<?xml version="1.0" encoding="UTF-8"?>
<svg width="144px" height="64px" viewBox="0 0 144 64" version="1.1" xmlns="http://www.w3.org/2000/svg" xmlns:xlink="http://www.w3.org/1999/xlink">
    <!-- Generator: Sketch 52.5 (67469) - http://www.bohemiancoding.com/sketch -->
    <title>Group 24</title>
    <desc>Created with Sketch.</desc>
    <defs>
        <polygon id="path-1" points="0.0713 0.5759 8.364 0.5759 8.364 17.8309 0.0713 17.8309"></polygon>
    </defs>
    <g id="Page-1" stroke="none" stroke-width="1" fill="none" fill-rule="evenodd">
        <g id="Group-24">
            <polygon id="Fill-1" fill="#FFFFFF" points="21.348 0.0003 8.683 9.3863 8.683 21.8523 10.235 23.0183 10.235 11.4603 21.348 2.9383 32.461 11.5693 32.461 22.8463 34.024 21.6463 34.024 9.4943"></polygon>
            <polygon id="Fill-2" fill="#FFFFFF" points="32.4612 33.6585 32.4612 52.0215 21.3482 60.7595 10.2352 52.1295 10.2352 33.8625 8.6832 32.6435 8.6832 54.1925 21.3482 63.6975 34.0242 54.0845 34.0242 32.4485"></polygon>
            <polygon id="Fill-3" fill="#D5A062" points="34.0245 24.6459 32.4615 25.8459 21.3585 34.3789 8.8545 24.9589 8.6835 24.8399 8.6835 24.8299 4.1985 21.4589 -0.0005 18.2949 -0.0005 48.1939 4.1985 51.7049 4.3125 26.7949 8.6835 30.2299 10.2345 31.4509 21.1425 40.0279 32.4615 31.2459 34.0245 30.0359 38.4965 26.5689 38.5995 51.1209 42.7075 47.7289 42.7075 17.9709"></polygon>
            <polygon id="Fill-4" fill="#FFFFFF" points="47.4408 24.2734 51.2698 24.2734 52.9768 36.6234 53.0258 36.6234 54.7328 24.2734 58.5618 24.2734 58.5618 41.5284 56.0248 41.5284 56.0248 28.4634 55.9778 28.4634 54.0258 41.5284 51.7818 41.5284 49.8308 28.4634 49.7808 28.4634 49.7808 41.5284 47.4408 41.5284"></polygon>
            <polygon id="Fill-5" fill="#FFFFFF" points="60.5624 24.2734 67.8784 24.2734 67.8784 26.7374 63.2444 26.7374 63.2444 31.2984 66.9284 31.2984 66.9284 33.7644 63.2444 33.7644 63.2444 39.0634 67.8784 39.0634 67.8784 41.5284 60.5624 41.5284"></polygon>
            <g id="Group-23" transform="translate(69.000000, 23.697800)">
                <path d="M4.0731,7.9711 C4.6091,7.9711 5.0111,7.8311 5.2801,7.5521 C5.5481,7.2721 5.6821,6.8031 5.6821,6.1461 L5.6821,4.8151 C5.6821,4.1901 5.5731,3.7391 5.3531,3.4591 C5.1351,3.1801 4.7871,3.0401 4.3171,3.0401 L3.0961,3.0401 L3.0961,7.9711 L4.0731,7.9711 Z M0.4151,0.5751 L4.3901,0.5751 C5.7721,0.5751 6.7801,0.9001 7.4131,1.5491 C8.0491,2.1981 8.3661,3.1961 8.3661,4.5441 L8.3661,5.6041 C8.3661,7.3951 7.7811,8.5301 6.6101,9.0061 L6.6101,9.0551 C7.2611,9.2531 7.7191,9.6551 7.9871,10.2631 C8.2551,10.8721 8.3901,11.6851 8.3901,12.7031 L8.3901,15.7361 C8.3901,16.2291 8.4061,16.6271 8.4401,16.9311 C8.4711,17.2351 8.5521,17.5351 8.6821,17.8311 L5.9501,17.8311 C5.8531,17.5521 5.7881,17.2881 5.7561,17.0421 C5.7221,16.7961 5.7061,16.3511 5.7061,15.7101 L5.7061,12.5561 C5.7061,11.7661 5.5811,11.2171 5.3291,10.9041 C5.0771,10.5921 4.6421,10.4351 4.0231,10.4351 L3.0961,10.4351 L3.0961,17.8311 L0.4151,17.8311 L0.4151,0.5751 Z" id="Fill-6" fill="#FFFFFF"></path>
                <path d="M11.0853,16.9682 C10.4103,16.2292 10.0733,15.1852 10.0733,13.8382 L10.0733,4.5692 C10.0733,3.2212 10.4103,2.1772 11.0853,1.4382 C11.7603,0.6982 12.7383,0.3282 14.0233,0.3282 C15.3073,0.3282 16.2873,0.6982 16.9623,1.4382 C17.6373,2.1772 17.9753,3.2212 17.9753,4.5692 L17.9753,6.3932 L15.4383,6.3932 L15.4383,4.3962 C15.4383,3.3272 14.9913,2.7942 14.0963,2.7942 C13.2033,2.7942 12.7543,3.3272 12.7543,4.3962 L12.7543,14.0342 C12.7543,15.0862 13.2033,15.6122 14.0963,15.6122 C14.9913,15.6122 15.4383,15.0862 15.4383,14.0342 L15.4383,11.3972 L17.9753,11.3972 L17.9753,13.8382 C17.9753,15.1852 17.6373,16.2292 16.9623,16.9682 C16.2873,17.7072 15.3073,18.0772 14.0233,18.0772 C12.7383,18.0772 11.7603,17.7072 11.0853,16.9682" id="Fill-8" fill="#FFFFFF"></path>
                <path d="M20.5135,16.9565 C19.8305,16.2075 19.4895,15.1355 19.4895,13.7385 L19.4895,0.5755 L22.1705,0.5755 L22.1705,13.9355 C22.1705,14.5275 22.2895,14.9555 22.5265,15.2185 C22.7605,15.4805 23.0975,15.6125 23.5365,15.6125 C23.9765,15.6125 24.3145,15.4805 24.5485,15.2185 C24.7845,14.9555 24.9035,14.5275 24.9035,13.9355 L24.9035,0.5755 L27.4885,0.5755 L27.4885,13.7385 C27.4885,15.1355 27.1465,16.2075 26.4635,16.9565 C25.7815,17.7035 24.7885,18.0775 23.4885,18.0775 C22.1865,18.0775 21.1965,17.7035 20.5135,16.9565" id="Fill-10" fill="#FFFFFF"></path>
                <path d="M33.0477,7.9711 C33.5837,7.9711 33.9867,7.8311 34.2547,7.5521 C34.5227,7.2721 34.6577,6.8031 34.6577,6.1461 L34.6577,4.8151 C34.6577,4.1901 34.5477,3.7391 34.3277,3.4591 C34.1097,3.1801 33.7617,3.0401 33.2917,3.0401 L32.0707,3.0401 L32.0707,7.9711 L33.0477,7.9711 Z M29.3897,0.5751 L33.3647,0.5751 C34.7467,0.5751 35.7557,0.9001 36.3877,1.5491 C37.0237,2.1981 37.3407,3.1961 37.3407,4.5441 L37.3407,5.6041 C37.3407,7.3951 36.7557,8.5301 35.5847,9.0061 L35.5847,9.0551 C36.2357,9.2531 36.6937,9.6551 36.9617,10.2631 C37.2297,10.8721 37.3647,11.6851 37.3647,12.7031 L37.3647,15.7361 C37.3647,16.2291 37.3807,16.6271 37.4147,16.9311 C37.4457,17.2351 37.5277,17.5351 37.6567,17.8311 L34.9247,17.8311 C34.8277,17.5521 34.7627,17.2881 34.7307,17.0421 C34.6967,16.7961 34.6807,16.3511 34.6807,15.7101 L34.6807,12.5561 C34.6807,11.7661 34.5557,11.2171 34.3037,10.9041 C34.0517,10.5921 33.6177,10.4351 32.9977,10.4351 L32.0707,10.4351 L32.0707,17.8311 L29.3897,17.8311 L29.3897,0.5751 Z" id="Fill-12" fill="#FFFFFF"></path>
                <polygon id="Fill-14" fill="#FFFFFF" points="39.2186 0.5756 46.5346 0.5756 46.5346 3.0396 41.9006 3.0396 41.9006 7.6006 45.5836 7.6006 45.5836 10.0666 41.9006 10.0666 41.9006 15.3656 46.5346 15.3656 46.5346 17.8306 39.2186 17.8306"></polygon>
                <path d="M52.2928,15.3656 C52.7628,15.3656 53.1128,15.2396 53.3408,14.9836 C53.5688,14.7296 53.6818,14.2896 53.6818,13.6656 L53.6818,12.1616 C53.6818,11.3726 53.5468,10.8266 53.2788,10.5216 C53.0108,10.2176 52.5688,10.0666 51.9518,10.0666 L50.7538,10.0666 L50.7538,15.3656 L52.2928,15.3656 Z M51.8048,7.6006 C52.3398,7.6006 52.7438,7.4616 53.0108,7.1816 C53.2788,6.9026 53.4138,6.4346 53.4138,5.7766 L53.4138,4.8156 C53.4138,4.1906 53.3048,3.7396 53.0848,3.4596 C52.8638,3.1806 52.5188,3.0396 52.0488,3.0396 L50.7538,3.0396 L50.7538,7.6006 L51.8048,7.6006 Z M48.0728,0.5756 L52.1218,0.5756 C53.5028,0.5756 54.5118,0.9006 55.1448,1.5496 C55.7798,2.1986 56.0978,3.1966 56.0978,4.5446 L56.0978,5.2346 C56.0978,6.1216 55.9548,6.8456 55.6708,7.4036 C55.3848,7.9626 54.9508,8.3656 54.3648,8.6116 L54.3648,8.6606 C55.6988,9.1216 56.3658,10.3216 56.3658,12.2606 L56.3658,13.7386 C56.3658,15.0696 56.0208,16.0846 55.3278,16.7836 C54.6368,17.4816 53.6248,17.8306 52.2928,17.8306 L48.0728,17.8306 L48.0728,0.5756 Z" id="Fill-16" fill="#D5A062"></path>
                <polygon id="Fill-18" fill="#D5A062" points="57.9256 0.5756 65.2416 0.5756 65.2416 3.0396 60.6076 3.0396 60.6076 7.6006 64.2906 7.6006 64.2906 10.0666 60.6076 10.0666 60.6076 15.3656 65.2416 15.3656 65.2416 17.8306 57.9256 17.8306"></polygon>
                <g id="Group-22" transform="translate(66.000000, 0.000000)">
                    <mask id="mask-2" fill="white">
                        <use xlink:href="#path-1"></use>
                    </mask>
                    <g id="Clip-21"></g>
                    <polygon id="Fill-20" fill="#D5A062" mask="url(#mask-2)" points="2.8783 3.0399 0.0713 3.0399 0.0713 0.5759 8.3643 0.5759 8.3643 3.0399 5.5593 3.0399 5.5593 17.8309 2.8783 17.8309"></polygon>
                </g>
            </g>
        </g>
    </g>
</svg>