<?xml version="1.0" encoding="utf-8"?>
<!-- Generator: Adobe Illustrator 24.3.0, SVG Export Plug-In . SVG Version: 6.00 Build 0)  -->
<svg version="1.1" id="Layer_1" xmlns="http://www.w3.org/2000/svg" xmlns:xlink="http://www.w3.org/1999/xlink" x="0px" y="0px"
	 viewBox="0 0 126 126" enable-background="new 0 0 126 126" xml:space="preserve">
<g>
	<circle fill="#EB5F79" cx="63" cy="52.6" r="39.7"/>
	<path fill="#F08FA1" d="M102.1,45.6C97.2,18.1,66.3,4.5,42.8,18.4c2.4,7.5,8,19.7,19.2,18.9C78,36.1,95.4,36.4,102.1,45.6z"/>
	<path fill="#F3ACC1" d="M54.6,13.8c1.9,4.8,5.9,10.5,14.6,11.6c9.3,1.2,19,2.5,26.3,4.4C86.3,16.6,70.2,10.4,54.6,13.8L54.6,13.8z"
		/>
	<path fill="#545178" d="M102.5,49.2H83.7c0.7-9.6,4.1-18.3,9.1-22.6c0,0,0.1-0.1,0.1-0.1c-1.5-1.7-3.1-3.2-4.8-4.7
		C81.8,27.5,77.6,37.7,77,49.2H66.3V13c-2.2-0.2-4.4-0.2-6.7,0v36.2H49c-0.7-11.5-4.8-21.7-11.1-27.4c-1.7,1.4-3.3,3-4.8,4.7
		c0,0,0.1,0.1,0.1,0.1c5,4.3,8.5,13,9.1,22.6H23.5c-0.2,2.2-0.2,4.4,0,6.7h18.9c-0.7,9.6-4.1,18.3-9.1,22.6c0,0-0.1,0.1-0.1,0.1
		c1.5,1.7,3.1,3.2,4.8,4.7c6.3-5.7,10.4-15.9,11.1-27.4h10.6v36.2c2.2,0.2,4.4,0.2,6.7,0V55.9H77c0.7,11.5,4.8,21.7,11.1,27.4
		c1.7-1.4,3.3-3,4.8-4.7c0,0-0.1-0.1-0.1-0.1c-5-4.3-8.5-13-9.1-22.6h18.9C102.7,53.7,102.7,51.5,102.5,49.2L102.5,49.2z"/>
	<path fill="#90D3F5" d="M93,113.1H33c-3.4,0-6.2-2.8-6.2-6.2V88.3c0-3.4,2.8-6.2,6.2-6.2H93c3.4,0,6.2,2.8,6.2,6.2v18.6
		C99.2,110.4,96.4,113.1,93,113.1L93,113.1z"/>
	<path fill="#72BBE8" d="M29.9,112.3c0.9,0.5,1.9,0.8,3.1,0.8H93c3.4,0,6.2-2.8,6.2-6.2V96.4c-9.8,4.7-24.5,5-36.9,1.3
		C50.7,94.2,37.2,105,29.9,112.3L29.9,112.3z"/>
	<g>
		<path fill="#545178" d="M43.4,100.4c0-0.9,0.3-1.2,1.6-1.2c1.1,0,1.8,0.1,1.8,1.1c0,0.8,0.6,1.3,1.9,1.3c1.8,0,2-0.8,2-2.4
			c0-1.1-0.4-1.7-2.1-1.7c-0.6,0-1-0.4-1-1.3c0-2.6,2.7,0,2.7-3.2c0-1-0.5-1.6-1.6-1.6c-2.3,0-1.2,1.3-2,2c-0.5,0.5-2.3,0.4-2.7,0
			c-0.5-0.4-0.6-2.3,0.9-3.8c0.8-0.8,2.1-1.2,3.8-1.2c3.3,0,4.9,1.3,4.9,4c0,1.4-0.5,3-1.7,3.5c1.5,0.6,2.2,1.6,2.2,3.2v0.4
			c0,3.3-2.2,4.9-5.5,4.9c-1.7,0-3-0.4-3.9-1.3C43.8,102.4,43.4,101.4,43.4,100.4L43.4,100.4z"/>
		<path fill="#545178" d="M57.8,95.2c0-1,2.7-2.1,3.2-0.9l2.2,5.7l2.2-5.7c0.5-1.3,3.2,0,3.2,0.9c0,0.3,0.3-0.4-3.9,8.8
			c-0.2,0.4-0.7,0.6-1.5,0.6c-0.8,0-1.4-0.2-1.5-0.6C57.5,94.7,57.8,95.5,57.8,95.2z"/>
		<path fill="#545178" d="M72.2,100.4c0-0.9,0.3-1.2,1.6-1.2c1.1,0,1.8,0.1,1.8,1.1c0,0.8,0.6,1.3,1.9,1.3c1.8,0,2-0.8,2-2.4
			c0-1.1-0.4-1.7-2.1-1.7c-0.6,0-1-0.4-1-1.3c0-2.6,2.7,0,2.7-3.2c0-1-0.5-1.6-1.6-1.6c-2.3,0-1.2,1.3-2,2c-0.5,0.5-2.3,0.4-2.7,0
			c-0.5-0.4-0.6-2.3,0.9-3.8c0.8-0.8,2.1-1.2,3.8-1.2c3.3,0,4.9,1.3,4.9,4c0,1.4-0.5,3-1.7,3.5c1.5,0.6,2.2,1.6,2.2,3.2v0.4
			c0,3.3-2.2,4.9-5.5,4.9c-1.7,0-3-0.4-3.9-1.3C72.7,102.4,72.2,101.4,72.2,100.4L72.2,100.4z"/>
	</g>
</g>
</svg>
