<?xml version="1.0" encoding="utf-8"?>
<!-- Generator: Adobe Illustrator 24.3.0, SVG Export Plug-In . SVG Version: 6.00 Build 0)  -->
<svg version="1.1" id="Layer_1" xmlns="http://www.w3.org/2000/svg" xmlns:xlink="http://www.w3.org/1999/xlink" x="0px" y="0px"
	 viewBox="0 0 126 126" enable-background="new 0 0 126 126" xml:space="preserve">
<g>
	<path fill="#37474F" d="M111.3,88c0,2.8-1.8,5.3-5,7.6C100,100,88.2,103,74.7,103c-0.8,0-1.7,0-2.5,0c19.1-0.5,34.2-7,34.2-15
		c0-7.4-12.9-13.4-29.9-14.7c-1.4-0.1-2.9-0.2-4.4-0.2c0.9,0,1.8-0.1,2.7-0.1c2.3,0,4.6,0.1,6.7,0.3C98.4,74.6,111.3,80.6,111.3,88z
		"/>
	<path fill="#37474F" d="M111.3,88v8.3c0,8.3-16.4,15-36.7,15c-0.8,0-1.7,0-2.5,0c19.1-0.5,34.2-7,34.2-15v-0.8
		C109.5,93.3,111.3,90.8,111.3,88z"/>
	<path fill="#37474F" d="M111.3,88v8.3c0,8.3-16.4,15-36.7,15c-0.8,0-1.7,0-2.5,0c19.1-0.5,34.2-7,34.2-15v-0.8
		C109.5,93.3,111.3,90.8,111.3,88z"/>
	<path fill="#617D8A" d="M106.3,88c0,7.9-15.1,14.4-34.2,15c-19.1-0.5-34.2-7-34.2-15c0-3.2,2.4-6.2,6.6-8.6
		c6.2-3.6,16.1-6.1,27.4-6.4c1.5,0,3,0.1,4.4,0.2C93.4,74.6,106.3,80.6,106.3,88z"/>
	<path fill="#617D8A" d="M106.3,95.6v0.8c0,7.9-15.1,14.4-34.2,15c-19.1-0.5-34.2-7-34.2-15V88c0,7.9,15.1,14.4,34.2,15
		c0.8,0,1.7,0,2.5,0C88.2,103,100,100,106.3,95.6z"/>
	<g>
		<path fill="#C42828" d="M69.7,73c0.8,0,1.6,0,2.3,0.1c-11.3,0.3-21.3,2.8-27.4,6.4c-1.4-0.1-2.9-0.3-4.2-0.4
			C47.1,75.3,57.7,73,69.7,73z"/>
		<path fill="#C42828" d="M88,49.7c0,2.8-1.8,5.3-5,7.6c-6.4,4.4-18.2,7.4-31.7,7.4c-0.8,0-1.7,0-2.5,0c19.1-0.5,34.2-7,34.2-15
			c0-5.8-8.1-10.9-20-13.4v-0.8C77.5,37.4,88,43,88,49.7z"/>
		<path fill="#C42828" d="M88,49.7v15c0,3.2-2.4,6.1-6.6,8.6c-1.5-0.1-3.1-0.2-4.7-0.2c4-2.4,6.2-5.3,6.2-8.4v-7.4
			C86.2,55,88,52.4,88,49.7z"/>
		<path fill="#C42828" d="M58,26.3v28.3c0,1.6-3.9,2.9-9.2,3.3h0c-5.2-0.3-9.1-1.7-9.1-3.3V26.3c0-3.1,1.2-6.1,3.4-8.2
			c0.3-0.3,0.5-0.5,0.8-0.7c0.5-0.4,1.1-0.8,1.7-1.2c0.3-0.2,0.6-0.3,1-0.5h0c0.1-0.1,0.3-0.1,0.5-0.2c0.2-0.1,0.3-0.1,0.5-0.2
			c0.1-0.1,0.3-0.1,0.5-0.2c0.3-0.1,0.6-0.2,0.8-0.2h0l0.4,0.1c0.2,0,0.4,0.1,0.6,0.2c0.4,0.1,0.7,0.2,1.1,0.4
			c0.3,0.1,0.6,0.3,0.9,0.4c0.1,0,0.2,0.1,0.2,0.1c0.3,0.1,0.5,0.3,0.8,0.5c0.1,0,0.2,0.1,0.2,0.2c0.3,0.2,0.5,0.4,0.8,0.6
			c0,0,0.1,0.1,0.1,0.1c0.3,0.3,0.6,0.5,0.9,0.8c0.2,0.2,0.5,0.5,0.7,0.7c1.3,1.6,2.1,3.4,2.4,5.4c0.1,0.3,0.1,0.5,0.1,0.8
			C58,25.6,58,25.9,58,26.3z"/>
		<path fill="#C42828" d="M69.7,73c0.8,0,1.6,0,2.3,0.1c-11.3,0.3-21.3,2.8-27.4,6.4c-1.4-0.1-2.9-0.3-4.2-0.4
			C47.1,75.3,57.7,73,69.7,73z"/>
		<path fill="#C42828" d="M88,49.7v15c0,3.2-2.4,6.1-6.6,8.6c-1.5-0.1-3.1-0.2-4.7-0.2c4-2.4,6.2-5.3,6.2-8.4v-7.4
			C86.2,55,88,52.4,88,49.7z"/>
		<path fill="#C42828" d="M63,26.3v28.3c0,1.8-5.2,3.3-11.7,3.3c-0.9,0-1.7,0-2.5-0.1c5.3-0.3,9.2-1.7,9.2-3.3V26.3
			c0-0.4,0-0.8-0.1-1.1c0-0.3,0-0.5-0.1-0.8c-0.3-2-1.2-3.9-2.4-5.4c-0.2-0.3-0.4-0.5-0.7-0.7c-0.3-0.3-0.6-0.6-0.9-0.8
			c0,0-0.1-0.1-0.1-0.1c-0.3-0.2-0.5-0.4-0.8-0.6c-0.1-0.1-0.1-0.1-0.2-0.2c-0.2-0.2-0.5-0.3-0.8-0.5c-0.1,0-0.2-0.1-0.2-0.1
			c-0.3-0.2-0.6-0.3-0.9-0.4c-0.3-0.2-0.7-0.3-1.1-0.4c-0.2-0.1-0.4-0.1-0.6-0.2l-0.4-0.1c0.4-0.1,0.8-0.2,1.3-0.2
			c0.4,0,0.8-0.1,1.2-0.1C57.8,14.7,63,19.9,63,26.3z"/>
		<path fill="#C42828" d="M58,26.3v28.3c0,1.6-3.9,2.9-9.2,3.3h0c-5.2-0.3-9.1-1.7-9.1-3.3V26.3c0-3.1,1.2-6.1,3.4-8.2
			c0.3-0.3,0.5-0.5,0.8-0.7c0.5-0.4,1.1-0.8,1.7-1.2c0.3-0.2,0.6-0.3,1-0.5h0c0.1-0.1,0.3-0.1,0.5-0.2c0.2-0.1,0.3-0.1,0.5-0.2
			c0.1-0.1,0.3-0.1,0.5-0.2c0.3-0.1,0.6-0.2,0.8-0.2h0l0.4,0.1c0.2,0,0.4,0.1,0.6,0.2c0.4,0.1,0.7,0.2,1.1,0.4
			c0.3,0.1,0.6,0.3,0.9,0.4c0.1,0,0.2,0.1,0.2,0.1c0.3,0.1,0.5,0.3,0.8,0.5c0.1,0,0.2,0.1,0.2,0.2c0.3,0.2,0.5,0.4,0.8,0.6
			c0,0,0.1,0.1,0.1,0.1c0.3,0.3,0.6,0.5,0.9,0.8c0.2,0.2,0.5,0.5,0.7,0.7c1.3,1.6,2.1,3.4,2.4,5.4c0.1,0.3,0.1,0.5,0.1,0.8
			C58,25.6,58,25.9,58,26.3z"/>
	</g>
	<path fill="#E84639" d="M74.7,73c0.7,0,1.4,0,2.1,0c-0.1,0.1-0.2,0.2-0.3,0.2c-1.4-0.1-2.9-0.2-4.4-0.2C72.9,73,73.8,73,74.7,73z"
		/>
	<path fill="#E84639" d="M83,49.7c0,7.9-15.1,14.4-34.2,15c-19.1-0.5-34.2-7-34.2-15c0-5.8,8.1-10.9,20-13.4c1.6-0.3,3.3-0.6,5-0.8
		v19.2c0,1.6,3.9,2.9,9.1,3.3h0c0.8,0.1,1.6,0.1,2.5,0.1c6.4,0,11.7-1.5,11.7-3.3V36.3C74.9,38.8,83,43.8,83,49.7z"/>
	<path fill="#E84639" d="M58,26.3v28.3c0,1.6-3.9,2.9-9.2,3.3h0c-5.2-0.3-9.1-1.7-9.1-3.3V26.3c0-3.1,1.2-6.1,3.4-8.2
		c0.3-0.3,0.5-0.5,0.8-0.7c0.5-0.4,1.1-0.8,1.7-1.2c0.3-0.2,0.6-0.3,1-0.5h0c0.1-0.1,0.3-0.1,0.5-0.2c0.2-0.1,0.3-0.1,0.5-0.2
		c0.1-0.1,0.3-0.1,0.5-0.2c0.3-0.1,0.6-0.2,0.8-0.2h0l0.4,0.1c0.2,0,0.4,0.1,0.6,0.2c0.4,0.1,0.7,0.2,1.1,0.4
		c0.3,0.1,0.6,0.3,0.9,0.4c0.1,0,0.2,0.1,0.2,0.1c0.3,0.1,0.5,0.3,0.8,0.5c0.1,0,0.2,0.1,0.2,0.2c0.3,0.2,0.5,0.4,0.8,0.6
		c0,0,0.1,0.1,0.1,0.1c0.3,0.3,0.6,0.5,0.9,0.8c0.2,0.2,0.5,0.5,0.7,0.7c1.3,1.6,2.1,3.4,2.4,5.4c0.1,0.3,0.1,0.5,0.1,0.8
		C58,25.6,58,25.9,58,26.3z"/>
	<path fill="#E84639" d="M83,57.2v7.4c0,3.1-2.3,6-6.2,8.4c-0.7,0-1.4,0-2.1,0c-0.9,0-1.8,0-2.7,0.1c-0.8,0-1.6-0.1-2.3-0.1
		c-12,0-22.6,2.3-29.3,6c-14.9-1.9-25.7-7.6-25.7-14.3v-15c0,7.9,15.1,14.4,34.2,15c0.8,0,1.7,0,2.5,0C64.8,64.7,76.6,61.7,83,57.2z
		"/>
	<path fill="#E84639" d="M74.7,73c0.7,0,1.4,0,2.1,0c-0.1,0.1-0.2,0.2-0.3,0.2c-1.4-0.1-2.9-0.2-4.4-0.2C72.9,73,73.8,73,74.7,73z"
		/>
	<path fill="#E84639" d="M58,26.3v28.3c0,1.6-3.9,2.9-9.2,3.3h0c-5.2-0.3-9.1-1.7-9.1-3.3V26.3c0-3.1,1.2-6.1,3.4-8.2
		c0.3-0.3,0.5-0.5,0.8-0.7c0.5-0.4,1.1-0.8,1.7-1.2c0.3-0.2,0.6-0.3,1-0.5h0c0.1-0.1,0.3-0.1,0.5-0.2c0.2-0.1,0.3-0.1,0.5-0.2
		c0.1-0.1,0.3-0.1,0.5-0.2c0.3-0.1,0.6-0.2,0.8-0.2h0l0.4,0.1c0.2,0,0.4,0.1,0.6,0.2c0.4,0.1,0.7,0.2,1.1,0.4
		c0.3,0.1,0.6,0.3,0.9,0.4c0.1,0,0.2,0.1,0.2,0.1c0.3,0.1,0.5,0.3,0.8,0.5c0.1,0,0.2,0.1,0.2,0.2c0.3,0.2,0.5,0.4,0.8,0.6
		c0,0,0.1,0.1,0.1,0.1c0.3,0.3,0.6,0.5,0.9,0.8c0.2,0.2,0.5,0.5,0.7,0.7c1.3,1.6,2.1,3.4,2.4,5.4c0.1,0.3,0.1,0.5,0.1,0.8
		C58,25.6,58,25.9,58,26.3z"/>
	<path fill="#37474F" d="M103,88c0-4.6-12.7-8.3-28.3-8.3c-15.6,0-28.3,3.7-28.3,8.3s12.7,8.3,28.3,8.3C90.3,96.3,103,92.6,103,88z"
		/>
	<path d="M23.6,53.8c0.7,0.6,1.8,0.5,2.3-0.2c0.6-0.7,0.5-1.8-0.2-2.3c-0.4-0.3-1.1-0.9-1.1-1.5c0-0.9,1.8-3,8.7-4.7
		c0.6-0.1,1.1-0.6,1.3-1.2c0.2-0.6,0-1.2-0.4-1.7c-0.4-0.4-1.1-0.6-1.6-0.4c-7.4,1.8-11.3,4.6-11.3,8C21.4,51.3,22.3,52.8,23.6,53.8
		z"/>
	<path d="M69.7,57.7c0.1,0,0.3,0,0.4-0.1c7.4-1.8,11.3-4.6,11.3-8c-0.2-2-1.3-3.8-3.1-4.7c-0.8-0.5-1.8-0.3-2.3,0.5
		c-0.5,0.8-0.3,1.8,0.5,2.3c1,0.7,1.6,1.4,1.6,2c0,0.9-1.8,3-8.7,4.7c-0.8,0.2-1.4,1-1.2,1.8C68.1,57.1,68.8,57.7,69.7,57.7z"/>
	<path d="M85.9,72c2.3-1.8,3.6-4.5,3.8-7.4v-15c0-7.2-9.8-13.3-25-15.6v-7.7c0-7.4-6-13.3-13.3-13.3S38,19,38,26.3V34
		c-15.2,2.4-25,8.4-25,15.6v15c0,7.6,11,13.9,27.2,16c-2.3,1.8-3.7,4.5-3.8,7.4v8.3c0,9.3,16.8,16.7,38.3,16.7
		c21.5,0,38.3-7.3,38.3-16.7V88C113,80.4,101.7,74.1,85.9,72z M51.3,16.3c5.5,0,10,4.5,10,10v28.1c-0.7,0.7-4.2,1.9-10,1.9
		s-9.3-1.2-10-1.9V26.3C41.3,20.8,45.8,16.3,51.3,16.3z M38,37.4v17.3c0,4.9,12,5,13.3,5s13.3-0.1,13.3-5V37.4
		c12.7,2.1,21.7,7.1,21.7,12.3c0,6.4-14.1,13.3-35,13.3s-35-6.9-35-13.3C16.3,44.5,25.3,39.5,38,37.4z M16.3,64.7v-8.1
		c5.9,5.8,19.2,9.8,35,9.8s29.1-4,35-9.8v8.1c0,2.3-1.9,4.8-5.4,6.9c-2-0.1-4.2-0.2-6.3-0.2c-12.5,0-23.4,2.5-30.4,6.4
		C28.6,76.4,16.3,70.7,16.3,64.7z M45.2,81c0,0,0.1-0.1,0.1-0.1c6-3.6,16.3-6.2,29.3-6.2c20.9,0,35,6.9,35,13.3s-14.1,13.3-35,13.3
		s-35-6.9-35-13.3C39.7,85.6,41.6,83.1,45.2,81z M74.7,109.7c-20.9,0-35-6.9-35-13.3v-1.4c5.9,5.8,19.2,9.8,35,9.8s29.1-4,35-9.8
		v1.4C109.7,102.8,95.6,109.7,74.7,109.7z"/>
	<path d="M74.7,98c14.9,0,30-3.4,30-10s-15.1-10-30-10c-14.9,0-30,3.4-30,10S59.8,98,74.7,98z M74.7,81.3c17.5,0,26.7,4.3,26.7,6.7
		s-9.2,6.7-26.7,6.7C57.2,94.7,48,90.3,48,88S57.2,81.3,74.7,81.3z"/>
	<path d="M59.3,90.4c0.1,0,0.2,0,0.4,0c0.8,0,1.5-0.5,1.6-1.3c0-0.2,0.1-0.4,0-0.6c2.2-0.3,4.5-0.5,6.7-0.5c0.9,0,1.7-0.8,1.6-1.7
		c0-0.9-0.8-1.7-1.7-1.6h-0.1c-11.6,0.4-11.6,2.1-11.6,3.3C56.3,89.8,58.4,90.2,59.3,90.4z"/>
	<path d="M81.3,91.3L81.3,91.3C93,91,93,89.3,93,88.1c0-1.8-2.1-2.2-3-2.4c-0.5-0.1-1.1,0-1.5,0.4c-0.4,0.4-0.6,0.9-0.5,1.5
		c-2.2,0.3-4.5,0.5-6.7,0.5c-0.6,0-1.1,0.3-1.4,0.9c-0.3,0.5-0.3,1.2,0,1.7C80.2,91,80.7,91.3,81.3,91.3z"/>
</g>
</svg>
