<?xml version="1.0" encoding="utf-8"?>
<!-- Generator: Adobe Illustrator 24.3.0, SVG Export Plug-In . SVG Version: 6.00 Build 0)  -->
<svg version="1.1" id="Layer_1" xmlns="http://www.w3.org/2000/svg" xmlns:xlink="http://www.w3.org/1999/xlink" x="0px" y="0px"
	 viewBox="0 0 126 126" enable-background="new 0 0 126 126" xml:space="preserve">
<g id="_18_Ski">
	<path fill="#CED7DB" d="M41.3,100c-0.1,0-0.2,0-0.3,0l-23.1-4.3c-0.9-0.2-1.6-1.1-1.4-2c0.2-0.9,1.1-1.6,2-1.4l23.1,4.3
		c0.9,0.2,1.6,1.1,1.4,2C42.9,99.4,42.1,100,41.3,100L41.3,100z"/>
	<path fill="#CED7DB" d="M56.3,109.7c-0.1,0-0.2,0-0.3,0l-29.5-5.5c-0.9-0.2-1.6-1.1-1.4-2c0.2-0.9,1.1-1.6,2-1.4l29.5,5.5
		c0.9,0.2,1.6,1.1,1.4,2C57.9,109.1,57.1,109.7,56.3,109.7L56.3,109.7z"/>
	<path fill="#617D8A" d="M32,57.8h-5.2c-1,0-1.7-0.8-1.7-1.7s0.8-1.7,1.7-1.7H32c1,0,1.7,0.8,1.7,1.7S32.9,57.8,32,57.8z"/>
	<circle fill="#579FD7" cx="92.3" cy="21.6" r="8.6"/>
	<path fill="#579FD7" d="M108.3,49.3c-1-1.2-2.4-1.8-3.9-1.8h-9.1l-3.2-8.9c0-0.1,0-0.1-0.1-0.2c-0.6-1.3-1.6-2.4-2.8-3.3l-5.6-3.9
		c-3.9-2.7-9.3-1.8-12,2.1c-0.1,0.1-0.1,0.2-0.2,0.3L60.3,50.9c-2.7,4.2-2.5,9.6,0.4,13.7l11.5,15.6c1.4,1.9,1.3,4.6-0.2,6.4
		l-10.1,9.2c-0.7,0.6-0.7,1.7-0.1,2.4c0.2,0.3,0.6,0.4,0.9,0.5l8.7,1.9c0.1,0,0.2,0,0.4,0c0.4,0,0.9-0.2,1.2-0.5l12-11.4
		c2.6-3,2.9-7.3,0.6-10.6L76.1,64c-0.4-0.6-0.4-1.4,0-1.9l8.8-12.5l2.4,7.1c0.2,0.7,0.9,1.2,1.6,1.2h15.3c2.6,0,4.8-1.8,5.3-4.3
		C109.7,52,109.3,50.4,108.3,49.3z"/>
	<path fill="#468DCB" d="M108.3,49.3c-1-1.2-2.4-1.8-3.9-1.8h-9.1l-3.2-8.9c0-0.1,0-0.1-0.1-0.2c-0.6-1.3-1.6-2.4-2.8-3.3l-4.2-2.9
		L62,66.4l10.2,13.8c1.4,1.9,1.3,4.6-0.2,6.4l-10.1,9.2c-0.7,0.6-0.7,1.7-0.1,2.4c0.2,0.3,0.6,0.4,0.9,0.5l8.7,1.9
		c0.1,0,0.2,0,0.4,0c0.4,0,0.9-0.2,1.2-0.5l12-11.4c2.6-3,2.9-7.3,0.6-10.6L76.1,64c-0.4-0.6-0.4-1.4,0-1.9l8.8-12.5l2.4,7.1
		c0.2,0.7,0.9,1.2,1.6,1.2h15.3c2.6,0,4.8-1.8,5.3-4.3C109.7,52,109.3,50.4,108.3,49.3z"/>
	<path fill="#617D8A" d="M88.8,57.8H37.2c-1,0-1.7-0.8-1.7-1.7s0.8-1.7,1.7-1.7h49.3l0.8,2.3C87.5,57.3,88.1,57.8,88.8,57.8z"/>
	<path fill="#37474F" d="M33.7,49.2h1.7c1,0,1.7,0.8,1.7,1.7v10.3c0,1-0.8,1.7-1.7,1.7h-1.7c-1,0-1.7-0.8-1.7-1.7V50.9
		C32,50,32.8,49.2,33.7,49.2z"/>
	<path fill="#F6A42C" d="M105.8,106.6c-0.6-1.4-1.8-2.5-3.3-2.8L42.9,91h0c-2.5-0.5-4.9,1.1-5.5,3.6s1.1,4.9,3.6,5.5l59.6,12.9
		c0.3,0.1,0.6,0.1,1,0.1c2.5,0,4.6-2.1,4.6-4.6C106.1,107.8,106,107.2,105.8,106.6L105.8,106.6z"/>
	<path fill="#AEBDC4" d="M56.6,106.3l-19.2-3.6l-2.1,3.1l20.7,3.9c0.1,0,0.2,0,0.3,0c1,0,1.7-0.8,1.7-1.7
		C58,107.2,57.4,106.5,56.6,106.3L56.6,106.3z"/>
	<path fill="#546F7B" d="M87.2,56.6l-0.8-2.3H70.1l-2.3,3.4h21.1C88.1,57.8,87.5,57.3,87.2,56.6z"/>
	<path fill="#F39723" d="M105.8,106.6c-0.6-1.4-1.8-2.5-3.3-2.8L45,91.4l-5.4,8c0.4,0.3,0.9,0.4,1.3,0.5l59.6,12.9
		c0.3,0.1,0.6,0.1,1,0.1c2.5,0,4.6-2.1,4.6-4.6C106.1,107.8,106,107.2,105.8,106.6L105.8,106.6z"/>
	<path fill="#468DCB" d="M92.3,30.2c4.8,0,8.6-3.9,8.6-8.6c0-2.9-1.4-5.6-3.8-7.2l-9.6,14.3C88.8,29.7,90.5,30.2,92.3,30.2z"/>
</g>
</svg>
