<?xml version="1.0" encoding="utf-8"?>
<!-- Generator: Adobe Illustrator 24.3.0, SVG Export Plug-In . SVG Version: 6.00 Build 0)  -->
<svg version="1.1" id="Layer_1" xmlns="http://www.w3.org/2000/svg" xmlns:xlink="http://www.w3.org/1999/xlink" x="0px" y="0px"
	 viewBox="0 0 126 126" enable-background="new 0 0 126 126" xml:space="preserve">
<g id="Layer_2_2_">
	
		<radialGradient id="SVGID_1_" cx="75.9393" cy="-1154.0719" r="75.9568" gradientTransform="matrix(1 0 0 1 0 1196)" gradientUnits="userSpaceOnUse">
		<stop  offset="0.16" style="stop-color:#B26342"/>
		<stop  offset="0.23" style="stop-color:#A45939"/>
		<stop  offset="0.44" style="stop-color:#823B1E"/>
		<stop  offset="0.61" style="stop-color:#6C2810"/>
		<stop  offset="0.72" style="stop-color:#63220E"/>
		<stop  offset="0.92" style="stop-color:#7A3010"/>
	</radialGradient>
	<path fill="url(#SVGID_1_)" d="M87.6,37.4c31.3,31.4,23.4,64.1,18.3,69.2c-4.8,4.8-45.3,16.2-74.3-12.8C4.3,66.5,13,25.2,18.8,19.5
		C23.9,14.3,59,8.8,87.6,37.4z"/>
	
		<radialGradient id="SVGID_2_" cx="67.2017" cy="-1141.7689" r="68.0026" gradientTransform="matrix(1 0 0 1 0 1196)" gradientUnits="userSpaceOnUse">
		<stop  offset="0.22" style="stop-color:#B26342"/>
		<stop  offset="0.28" style="stop-color:#A45939"/>
		<stop  offset="0.47" style="stop-color:#823B1E"/>
		<stop  offset="0.62" style="stop-color:#6C2810"/>
		<stop  offset="0.72" style="stop-color:#63220E"/>
		<stop  offset="0.92" style="stop-color:#7A3010"/>
	</radialGradient>
	<path fill="url(#SVGID_2_)" d="M93.1,32.2C64.5,3.6,23.9,14.3,18.8,19.5c0,0,72.6,7.6,87.1,87.1C111,101.5,124.5,63.6,93.1,32.2z"
		/>
	
		<radialGradient id="SVGID_3_" cx="63.4255" cy="-1138.766" r="77.5536" gradientTransform="matrix(1 0 0 1 0 1196)" gradientUnits="userSpaceOnUse">
		<stop  offset="0.13" style="stop-color:#9D4E2E"/>
		<stop  offset="0.2" style="stop-color:#8D4426"/>
		<stop  offset="0.4" style="stop-color:#6B2D13"/>
		<stop  offset="0.56" style="stop-color:#55210F"/>
		<stop  offset="0.67" style="stop-color:#4A1F0F"/>
		<stop  offset="1" style="stop-color:#702F0E"/>
	</radialGradient>
	<path fill="url(#SVGID_3_)" d="M105.7,105.6c1-5.7-3.9-32.9-26.1-56.4C59.5,27.8,35.2,21,24.3,19.6c-1.8-0.3-3.7-0.4-5.5-0.1
		C18.8,19.5,90.7,27,105.7,105.6z"/>
	
		<radialGradient id="SVGID_4_" cx="63.4958" cy="-1145.1536" r="77.0414" gradientTransform="matrix(1 0 0 1 0 1196)" gradientUnits="userSpaceOnUse">
		<stop  offset="0.13" style="stop-color:#E39E8C"/>
		<stop  offset="0.15" style="stop-color:#DD9785"/>
		<stop  offset="0.34" style="stop-color:#AD6E56"/>
		<stop  offset="0.5" style="stop-color:#8B4F32"/>
		<stop  offset="0.63" style="stop-color:#763B1C"/>
		<stop  offset="0.72" style="stop-color:#6E3315"/>
		<stop  offset="1" style="stop-color:#702F0E"/>
	</radialGradient>
	<path fill="url(#SVGID_4_)" d="M105.3,105.7c0-5.7-4.1-31.2-26.4-54.7C67.9,39.2,54.1,30.2,38.9,24.8c-6.3-2.2-13.3-4.5-18.9-5.2
		c-3.2-0.4,6.8,1.7,18.9,6.3c12.8,4.9,24.4,12.2,34.4,21.6C87.1,60.1,100.2,78.3,105.3,105.7z"/>
	
		<radialGradient id="SVGID_5_" cx="70.757" cy="-1149.0001" r="85.5782" gradientTransform="matrix(1 0 0 1 0 1196)" gradientUnits="userSpaceOnUse">
		<stop  offset="0" style="stop-color:#FFFFFF"/>
		<stop  offset="0.43" style="stop-color:#D6D5DF"/>
		<stop  offset="0.5" style="stop-color:#C8C8D1"/>
		<stop  offset="0.62" style="stop-color:#A2A2AA"/>
		<stop  offset="0.65" style="stop-color:#999AA2"/>
		<stop  offset="0.89" style="stop-color:#D0CFD0"/>
	</radialGradient>
	<path fill="url(#SVGID_5_)" d="M112.9,72.9c-0.8-3.1-2.4-4.4-3.8-5c-2.8-1.3-8.4-1-15,2.8C83.2,76.9,75,87,71,98.9
		c-2,6-0.6,11.7,3,13.8c5.3,0.3,10.7,0.1,16-0.7h-0.6c-9.7,0.9-3-17.3,11.2-27.2c5.5-3.8,8.7-4,10.3-2.8c2.6,1.9,1.5,7.2,1.5,7
		C113.3,83.6,113.4,78.2,112.9,72.9z M24.2,21.8c-3.9,3.4-6.9,7.7-8.8,12.4c-1.3,3.5-2.2,7.1-2.6,10.8c-0.1,6,0.6,12.1,1.9,18
		c-0.4-3.1-0.4-6.2,0.1-9.3c1.9-10.8,9.4-23.6,20.1-31.4c7.8-5.7,17.5-8.3,27.1-7.2c-5.4-1.2-11-1.9-16.6-1.8
		C36.9,13.9,29.7,16.9,24.2,21.8z"/>
	<path fill="#6E2F14" d="M41.5,26c-1.6,1.9,0.1,2.9,3.6,4.5c5.7,2.6,26.7,14.7,38.6,31.3c1.9,2.6,3.8,2,4.9,1.2
		c1.1-0.9,1-3.2-0.5-5.4c-1.5-2.2-14.5-22.8-41-32.1C44,24.3,42,25.2,41.5,26z"/>
	
		<linearGradient id="SVGID_6_" gradientUnits="userSpaceOnUse" x1="69.9667" y1="-1160.3572" x2="63.3884" y2="-1148.6067" gradientTransform="matrix(1 0 0 1 0 1196)">
		<stop  offset="0" style="stop-color:#FFFFFF"/>
		<stop  offset="0.92" style="stop-color:#C2B7B9"/>
	</linearGradient>
	<path fill="url(#SVGID_6_)" d="M42,25c-1.5,1.9,0.1,2.9,3.6,4.5c5.7,2.6,26.8,14.7,38.6,31.3c1.9,2.6,3.8,2.1,4.9,1.2
		c1.1-0.9,1-3.2-0.5-5.4S74.2,33.7,47.7,24.4C44.6,23.3,42.6,24.2,42,25z"/>
	
		<linearGradient id="SVGID_7_" gradientUnits="userSpaceOnUse" x1="50.5665" y1="-1167.7965" x2="54.7345" y2="-1162.9757" gradientTransform="matrix(1 0 0 1 0 1196)">
		<stop  offset="0" style="stop-color:#8E462A"/>
		<stop  offset="1" style="stop-color:#83634E"/>
	</linearGradient>
	<path fill="url(#SVGID_7_)" d="M50.5,28.4c2.3-1.7,5-3,7.8-3.6c3.8-0.8,5.9,2.3,3,3.7c-2.7,1.3-7.6,2.9-12.1,9
		c-0.8,1.2-2.5,1.5-3.7,0.7s-1.5-2.5-0.7-3.7l0,0C46.2,32,48.2,30,50.5,28.4z"/>
	
		<linearGradient id="SVGID_8_" gradientUnits="userSpaceOnUse" x1="61.3079" y1="-1161.3822" x2="65.2549" y2="-1156.23" gradientTransform="matrix(1 0 0 1 0 1196)">
		<stop  offset="0" style="stop-color:#8E462A"/>
		<stop  offset="1" style="stop-color:#83634E"/>
	</linearGradient>
	<path fill="url(#SVGID_8_)" d="M60.9,34.8c2.3-1.7,4.9-2.9,7.7-3.5c3.8-0.8,6,2.5,3.1,3.8c-2.7,1.3-7.7,2.8-12.3,8.7
		c-0.9,1.1-2.6,1.3-3.8,0.3c-1-0.8-1.2-2.2-0.6-3.3C56.5,38.4,58.5,36.4,60.9,34.8z"/>
	
		<linearGradient id="SVGID_9_" gradientUnits="userSpaceOnUse" x1="70.3645" y1="-1154.0234" x2="74.0905" y2="-1149.1927" gradientTransform="matrix(1 0 0 1 0 1196)">
		<stop  offset="0" style="stop-color:#8E462A"/>
		<stop  offset="1" style="stop-color:#83634E"/>
	</linearGradient>
	<path fill="url(#SVGID_9_)" d="M70.2,42.2c2.3-1.7,5-2.9,7.8-3.5c3.8-0.7,5.9,2.6,3,3.9c-2.9,1.3-7.7,2.7-12.4,8.6
		c-0.9,1.2-2.5,1.5-3.7,0.6c-1.2-0.9-1.5-2.5-0.6-3.7C65.8,45.8,67.8,43.8,70.2,42.2z"/>
	
		<linearGradient id="SVGID_10_" gradientUnits="userSpaceOnUse" x1="78.7017" y1="-1145.9213" x2="82.3273" y2="-1140.8795" gradientTransform="matrix(1 0 0 1 0 1196)">
		<stop  offset="0" style="stop-color:#8E462A"/>
		<stop  offset="1" style="stop-color:#83634E"/>
	</linearGradient>
	<path fill="url(#SVGID_10_)" d="M78.4,49.9c2.3-1.7,5-2.8,7.8-3.2c3.8-0.5,5.8,3.1,2.8,4.2c-2.8,1-7.8,2.2-12.8,7.9
		c-1,1.1-2.7,1.1-3.7,0.2c-1-0.9-1.1-2.5-0.3-3.6C73.8,53.2,76,51.3,78.4,49.9z"/>
	
		<linearGradient id="SVGID_11_" gradientUnits="userSpaceOnUse" x1="50.2238" y1="-1169.2155" x2="54.4018" y2="-1164.3948" gradientTransform="matrix(1 0 0 1 0 1196)">
		<stop  offset="0" style="stop-color:#FFFFFF"/>
		<stop  offset="0.92" style="stop-color:#C2B7B9"/>
	</linearGradient>
	<path fill="url(#SVGID_11_)" d="M50.2,26.9c2.3-1.7,5-3,7.8-3.6c3.8-0.8,5.9,2.3,3,3.7c-2.7,1.3-7.6,2.9-12.1,9
		c-0.8,1.2-2.5,1.5-3.7,0.7c-1.2-0.8-1.5-2.5-0.7-3.7l0,0l0,0C45.9,30.6,47.9,28.6,50.2,26.9z"/>
	
		<linearGradient id="SVGID_12_" gradientUnits="userSpaceOnUse" x1="60.9068" y1="-1162.7527" x2="64.8538" y2="-1157.6005" gradientTransform="matrix(1 0 0 1 0 1196)">
		<stop  offset="0" style="stop-color:#FFFFFF"/>
		<stop  offset="0.92" style="stop-color:#C2B7B9"/>
	</linearGradient>
	<path fill="url(#SVGID_12_)" d="M60.6,33.4c2.3-1.7,4.9-2.9,7.7-3.5c3.8-0.8,6,2.5,3.1,3.8c-2.7,1.2-7.7,2.8-12.4,8.7
		c-0.9,1.2-2.5,1.4-3.7,0.5c-1.1-0.8-1.4-2.4-0.6-3.5C56.2,37,58.2,34.9,60.6,33.4z"/>
	
		<linearGradient id="SVGID_13_" gradientUnits="userSpaceOnUse" x1="70.0129" y1="-1155.4385" x2="73.7389" y2="-1150.6178" gradientTransform="matrix(1 0 0 1 0 1196)">
		<stop  offset="0" style="stop-color:#FFFFFF"/>
		<stop  offset="0.92" style="stop-color:#C2B7B9"/>
	</linearGradient>
	<path fill="url(#SVGID_13_)" d="M69.8,40.8c2.3-1.7,5-2.9,7.8-3.5c3.8-0.7,5.8,2.6,2.9,3.9c-2.9,1.3-7.7,2.7-12.4,8.6
		c-0.9,1.2-2.5,1.5-3.7,0.6c-1.2-0.9-1.5-2.5-0.6-3.7C65.4,44.3,67.5,42.3,69.8,40.8z"/>
	
		<linearGradient id="SVGID_14_" gradientUnits="userSpaceOnUse" x1="78.3803" y1="-1147.3646" x2="82.0059" y2="-1142.313" gradientTransform="matrix(1 0 0 1 0 1196)">
		<stop  offset="0" style="stop-color:#FFFFFF"/>
		<stop  offset="0.92" style="stop-color:#C2B7B9"/>
	</linearGradient>
	<path fill="url(#SVGID_14_)" d="M78.1,48.5c2.3-1.7,5-2.8,7.8-3.2c3.8-0.5,5.8,3.1,2.8,4.2c-2.8,1.1-7.8,2.2-12.8,7.9
		c-1,1.1-2.7,1.1-3.7,0.2c-1-0.9-1.1-2.5-0.3-3.6C73.5,51.8,75.6,49.9,78.1,48.5z"/>
	<path fill="#9F9FAA" d="M95,70.1c2.6,4.5,4.7,9.3,6.4,14.2c-0.3,0.2-0.7,0.4-1,0.6c0,0-3-7.4-6.6-14.1C94.2,70.5,94.6,70.3,95,70.1
		z"/>
	
		<linearGradient id="SVGID_15_" gradientUnits="userSpaceOnUse" x1="98.7203" y1="-1120.113" x2="94.683" y2="-1115.7141" gradientTransform="matrix(1 0 0 1 0 1196)">
		<stop  offset="0" style="stop-color:#FFFFFF"/>
		<stop  offset="0.3" style="stop-color:#EBEBEF"/>
		<stop  offset="0.72" style="stop-color:#D5D5DD"/>
		<stop  offset="1" style="stop-color:#CDCDD8"/>
	</linearGradient>
	<path fill="url(#SVGID_15_)" d="M93.8,70.8c0,0,4.1,7.9,6.6,14.1c-0.3,0.2-0.6,0.4-0.9,0.7c0,0-3.2-7.4-6.8-14.1
		C93.1,71.2,93.5,71,93.8,70.8z"/>
	<path fill="#9F9FAA" d="M26.5,19.9c3,0.4,5.9,1.1,8.8,2c-0.4,0.4-0.9,0.7-1.4,1c-2.7-1-5.5-1.7-8.3-2.3
		C26.1,20.2,26.5,19.9,26.5,19.9z"/>
	
		<linearGradient id="SVGID_16_" gradientUnits="userSpaceOnUse" x1="29.5736" y1="-1175.17" x2="29.0413" y2="-1172.3981" gradientTransform="matrix(1 0 0 1 0 1196)">
		<stop  offset="0" style="stop-color:#FFFFFF"/>
		<stop  offset="0.3" style="stop-color:#EBEBEF"/>
		<stop  offset="0.72" style="stop-color:#D5D5DD"/>
		<stop  offset="1" style="stop-color:#CDCDD8"/>
	</linearGradient>
	<path fill="url(#SVGID_16_)" d="M24.8,21.3c0,0,5.6,1.6,8,2.5c0.5-0.4,0.9-0.8,0.9-0.8c-2.7-1-5.4-1.8-8.2-2.4
		C25.3,20.8,25,21.1,24.8,21.3z"/>
</g>
</svg>
