<?xml version="1.0" encoding="utf-8"?>
<!-- Generator: Adobe Illustrator 24.3.0, SVG Export Plug-In . SVG Version: 6.00 Build 0)  -->
<svg version="1.1" id="Layer_1" xmlns="http://www.w3.org/2000/svg" xmlns:xlink="http://www.w3.org/1999/xlink" x="0px" y="0px"
	 viewBox="0 0 126 126" enable-background="new 0 0 126 126" xml:space="preserve">
<g>
	<path fill="#FDF4F4" d="M113,63c0,27.6-22.4,50-50,50S13,90.6,13,63s22.4-50,50-50S113,35.4,113,63z"/>
	<path fill="#EEE1DC" d="M113,63c0,27.6-22.4,50-50,50c-18.3,0-34.4-9.9-43.1-24.6c9.1,11.8,23.5,19.4,39.5,19.4
		c27.6,0,50-22.4,50-50c0-9.3-2.5-18-6.9-25.4C109.1,40.8,113,51.5,113,63z"/>
	<path fill="#E84444" d="M100.7,63c0-20.1-16.9-36.4-37.7-36.4S25.3,42.9,25.3,63S42.2,99.4,63,99.4S100.7,83.1,100.7,63z"/>
	<path fill="#D83230" d="M100.7,63c0,20.1-16.9,36.4-37.7,36.4c-11,0-20.9-4.5-27.8-11.8c6.1,4.1,13.6,6.6,21.6,6.6
		c20.8,0,37.7-16.3,37.7-36.4c0-9.5-3.8-18.1-9.9-24.6C94.3,39.8,100.7,50.7,100.7,63z"/>
	<path fill="#FDF4F4" d="M87.5,63c0-13.1-11-23.6-24.5-23.6S38.5,49.9,38.5,63s11,23.6,24.5,23.6S87.5,76.1,87.5,63z"/>
	<path fill="#EEE1DC" d="M87.5,63c0,13-11,23.6-24.5,23.6c-9.7,0-18.1-5.5-22.1-13.4c4.5,5,11.1,8.2,18.5,8.2
		c13.5,0,24.5-10.6,24.5-23.6c0-3.7-0.9-7.1-2.4-10.2C85.2,51.7,87.5,57.1,87.5,63z"/>
	<path fill="#E84444" d="M74.7,63c0-6.2-5.2-11.3-11.7-11.3S51.3,56.8,51.3,63S56.5,74.3,63,74.3S74.7,69.2,74.7,63z"/>
	<path fill="#D83230" d="M74.7,63c0,6.2-5.2,11.3-11.7,11.3c-4.6,0-8.6-2.6-10.5-6.4c2,1.4,4.4,2.2,7,2.2c6.5,0,11.7-5.1,11.7-11.3
		c0-1.8-0.4-3.4-1.2-4.9C72.9,56,74.7,59.3,74.7,63z"/>
	<path fill="#7C8287" d="M83,48.8l14.5,3.8c1.1,0.3,2.3,0,3.1-0.8l9.4-9.4c1.7-1.7,1-4.6-1.2-5.4l-10.4-3.6L83,48.8z"/>
	<path fill="#6A7075" d="M110.1,42.4l-9.4,9.4c-0.8,0.8-2,1.1-3.1,0.8l-5.3-1.4c1.2,0.2,2.3-0.2,3.2-1L106,39.6
		c0.9-0.9,1.2-2.1,1-3.3l1.8,0.6C111.1,37.8,111.8,40.7,110.1,42.4z"/>
	<path fill="#7C8287" d="M77.4,43.2l-3.8-14.5c-0.3-1.1,0-2.3,0.8-3.1l9.4-9.4c1.7-1.7,4.6-1,5.4,1.2l3.6,10.4L77.4,43.2z"/>
	<path fill="#B0CFEE" d="M92.8,27.8l5.6,5.6L66.3,65.4c-1.6,1.6-4.1,1.6-5.6,0s-1.6-4.1,0-5.6L92.8,27.8z"/>
	<path fill="#89B9E4" d="M98.4,33.4L66.3,65.4c-1.6,1.6-4.1,1.6-5.6,0c-0.6-0.6-0.9-1.2-1.1-1.9c1.4,0.5,3.1,0.2,4.2-0.9l32-31.8
		L98.4,33.4z"/>
</g>
</svg>
