<?xml version="1.0" encoding="utf-8"?>
<!-- Generator: Adobe Illustrator 24.3.0, SVG Export Plug-In . SVG Version: 6.00 Build 0)  -->
<svg version="1.1" id="Layer_1" xmlns="http://www.w3.org/2000/svg" xmlns:xlink="http://www.w3.org/1999/xlink" x="0px" y="0px"
	 viewBox="0 0 126 126" enable-background="new 0 0 126 126" xml:space="preserve">
<g>
	<g>
		<path fill="#DB820F" d="M78.3,57.9c0,8.9-7.3,16.2-16.3,16.2c-9,0-16.3-7.3-16.3-16.2C45.6,49,53,41.7,62,41.7
			C71,41.7,78.3,49,78.3,57.9"/>
	</g>
	<g>
		<path fill="#FFFFFF" d="M72,57.8c0,5.9-4.5,10.7-10,10.7c-5.5,0-10-4.8-10-10.7s4.5-10.7,10-10.7C67.5,47.2,72,51.9,72,57.8"/>
	</g>
	<g>
		<path fill="#DB820F" d="M63.7,82.2c0,0.9-0.7,1.6-1.6,1.6c-0.9,0-1.6-0.7-1.6-1.6c0-0.9,0.7-1.6,1.6-1.6
			C63,80.6,63.7,81.3,63.7,82.2"/>
	</g>
	<g>
		<path fill="#DB820F" d="M63.1,82.2c0,0.6-0.5,1.1-1,1.1c-0.6,0-1-0.5-1-1.1c0-0.6,0.5-1.1,1-1.1C62.7,81.2,63.1,81.6,63.1,82.2"/>
	</g>
	<g>
		<path fill="#DB820F" d="M101.1,83.2c0,1.5-1.2,2.7-2.7,2.7c-1.5,0-2.7-1.2-2.7-2.7c0-1.5,1.2-2.7,2.7-2.7
			C99.9,80.6,101.1,81.8,101.1,83.2"/>
	</g>
	<g>
		<path fill="#DB820F" d="M100,83.2c0,1-0.7,1.8-1.6,1.8c-0.9,0-1.6-0.8-1.6-1.8c0-1,0.7-1.8,1.6-1.8C99.3,81.5,100,82.2,100,83.2"
			/>
	</g>
	<g>
		<path fill="#DB820F" d="M48.7,74.1H37l0.5-1.2c0,0,0.7-1.2-0.1-3.8l-6-15l-2.6,6.7l3.4,0.1l2.3,5.4l-7.9,0.2c0,0-2.4,4.8-0.9,7.6
			H16c0,0,3.9-5.8,4.3-7.5V66L18,61.2l4.6-0.1l8.4-19c0,0,0.5-0.8,0.8,0L43,66.5C43,66.5,45.1,73,48.7,74.1"/>
	</g>
	<g>
		<path fill="#1D1D1B" d="M32.8,75.6l1.1-0.6c0.1-0.1,3.5-1.8,2.1-5.5l-0.7-1.2l-7.9-0.1c-0.2,0.4-0.8,1.4-1,2.6
			c-0.4,1.9,0,3.4,1.4,4.3l0.8,0.6H13l2.1-2.5c0.2-0.2,3.2-4.4,3.7-6.4L16,59.6l5.6,0.1l0.2-0.3L30,40.9l0,0c0,0,0.8-0.8,1.7-0.8
			c0.5,0,0.9,0.3,1.3,0.8l0,0l12.4,27.2c0.2,0.3,2.5,3.5,5.3,5.9c0.9,0.8,0.9,0.8,1.2,0.9l1.9,0.6L32.8,75.6z M14.3,74.9h12.5
			c-1.1-1.1-1.4-2.6-1-4.4c0.4-1.6,1.2-2.9,1.2-2.9l0.1-0.1l8.6,0.2l0.9,1.6c1.1,3-0.5,4.9-1.6,5.7l15.8-0.1
			c-0.1-0.1-0.3-0.2-0.5-0.4c-2.9-2.5-5.3-6-5.4-6l0,0L32.5,41.2c-0.2-0.3-0.5-0.5-0.8-0.5c-0.5,0-1,0.4-1.2,0.6l-8.2,18.5l-0.4,0.6
			l-5.1-0.1l2.6,6.4l0,0.1c-0.5,2.1-3.7,6.5-3.9,6.7l0,0L14.3,74.9z"/>
	</g>
	<g>
		<polygon fill="#20201E" points="30.3,59.8 31.3,57.5 32.3,59.8 		"/>
	</g>
	<g>
		<path fill="#DB820F" d="M32.5,59.9h-2.4l1.2-2.7L32.5,59.9z M30.5,59.6h1.7l-0.8-1.9L30.5,59.6z"/>
	</g>
	<g>
		<path fill="#DB820F" d="M66.3,57.9c0,2.3-1.9,4.3-4.3,4.3c-2.3,0-4.3-1.9-4.3-4.3c0-2.3,1.9-4.3,4.3-4.3
			C64.4,53.7,66.3,55.6,66.3,57.9"/>
	</g>
	<g>
		<path fill="#13120D" d="M62,63.6c-3.1,0-5.6-2.5-5.6-5.6c0-3.1,2.5-5.6,5.6-5.6c3.1,0,5.6,2.5,5.6,5.6
			C67.6,61.1,65.1,63.6,62,63.6z M62,52.8c-2.8,0-5.1,2.3-5.1,5.1c0,2.8,2.3,5.2,5.1,5.2c2.8,0,5.1-2.3,5.1-5.2
			C67.1,55.1,64.8,52.8,62,52.8z"/>
	</g>
	<g>
		<path fill="#20201E" d="M62,67.5c-4.9,0-9-4.4-9-9.7c0-5.4,4-9.7,9-9.7c4.9,0,9,4.4,9,9.7C71,63.2,67,67.5,62,67.5z M62,48.5
			c-4.7,0-8.5,4.2-8.5,9.3c0,5.1,3.8,9.3,8.5,9.3c4.7,0,8.5-4.2,8.5-9.3C70.5,52.7,66.7,48.5,62,48.5z"/>
	</g>
	<g>
		<path fill="#1D1D1B" d="M61.9,75.5c-9.8,0-17.7-7.9-17.7-17.6c0-9.7,7.9-17.6,17.7-17.6c9.8,0,17.7,7.9,17.7,17.6
			C79.6,67.7,71.7,75.5,61.9,75.5z M61.9,41c-9.4,0-17.1,7.6-17.1,17c0,9.4,7.7,17,17.1,17c9.4,0,17.1-7.6,17.1-17
			C79,48.6,71.3,41,61.9,41z"/>
	</g>
	<g>
		<path fill="#DB820F" d="M104.3,48.6c0,0,2.7-5.9,4.1-6.5v-0.4H98.1c0,0,1,1.1,1.2,1.5c0,0-0.1,1.5-0.4,2.4L94,57.3
			c0,0-0.5,0.7,0,1.4c0,0,2.9,6.2,3,7.1C97,65.9,104.1,49.1,104.3,48.6"/>
	</g>
	<g>
		<path fill="#DB820F" d="M95.9,67.6l-2.2,5.6c0,0-0.8,1.9-1.7,0c0,0-11.7-26.2-12.2-26.8c0,0-2.3-3.7-3.3-4l-0.7-0.1v-0.5h11.2
			l-0.5,1.2c0,0-0.1,2.1,0.3,2.9L95.9,67.6z"/>
	</g>
	<g>
		<path fill="#1D1D1B" d="M92.9,75.7c-0.2,0-0.3,0-0.5-0.1c-0.3-0.1-0.5-0.3-0.6-0.6l-0.5-0.8c-4.3-9.4-12.7-27.5-13.4-28.6
			c-0.3-0.3-4.3-4-5.9-4.6l-1.6-0.6l19.4,0l-0.3,0.5c0,0-1.6,2.6-1.3,4.1l4.6,11.5l5.3-12.2c0-0.4-0.2-2.2-2.1-3.4l-0.9-0.6l18.1,0
			l-0.7,0.5c0,0-3.4,2.8-4.3,4L94.6,74.3l0,0l-0.6,1.2l-0.1,0C93.8,75.5,93.4,75.7,92.9,75.7z M91.8,73.9l0.5,0.8
			c0.1,0.2,0.2,0.3,0.3,0.3c0.3,0.1,0.7,0,0.9-0.1l0.5-1l13.5-29.5l0,0c0.6-0.9,2.7-2.7,3.7-3.6l-14.5,0c1.6,1.4,1.7,3.3,1.7,3.4
			v0.1l0,0.1l-5.9,13.7l-5.1-13c-0.3-1.4,0.6-3.3,1.1-4.1l-15.4,0c2,1.3,4.9,4,5.1,4.2l0,0C79.2,46.4,91.2,72.5,91.8,73.9z"/>
	</g>
	<g>
		<path fill="#DB820F" d="M62.5,82.2c0,0.2-0.2,0.4-0.4,0.4s-0.4-0.2-0.4-0.4c0-0.2,0.2-0.4,0.4-0.4S62.5,82,62.5,82.2"/>
	</g>
	<g>
		<path fill="#DB820F" d="M99.1,83.2c0,0.4-0.3,0.7-0.7,0.7c-0.4,0-0.7-0.3-0.7-0.7c0-0.4,0.3-0.7,0.7-0.7
			C98.8,82.5,99.1,82.8,99.1,83.2"/>
	</g>
	<g>
		<polygon fill="#DB820F" points="73.7,80.7 75,80.7 76.1,83.5 77.4,80.7 78.4,80.7 76.2,85.9 76,85.9 		"/>
	</g>
	<g>
		<polygon fill="#DB820F" points="89.4,85.9 89.4,80.7 90.4,80.7 90.4,84.9 92.3,84.9 93.3,85.9 		"/>
	</g>
	<g>
		<path fill="#DB820F" d="M24.3,85.4v-1.8l-0.8-0.8h0.8v-2.4h4.2v2c0,0-0.2,1-0.9,1.1l1.1,2h-1.2L26,82.9h1c0,0,0.5-0.1,0.5-0.4
			l0.1-1.1h-2.1v4.2h-1.1L24.3,85.4z"/>
	</g>
	<g>
		<path fill="#DB820F" d="M104.8,85.7v-1.8L104,83h0.8v-2.4h4.3v2.1c0,0-0.2,1-0.9,1.2l1.1,2.1h-1.2l-1.6-2.8h1c0,0,0.5-0.1,0.5-0.4
			l0.1-1.1h-2.2v4.3h-1.2L104.8,85.7z"/>
	</g>
	<g>
		<polygon fill="#DB820F" points="53,85.7 54.1,85.7 51.6,80.3 49.1,85.7 50.3,85.7 50.6,84.9 52.3,84.9 51.9,84 50.9,84 51.6,82.2 
					"/>
	</g>
	<g>
		<polygon fill="#DB820F" points="84.7,85.8 85.9,85.8 83.3,80.3 80.8,85.8 82,85.8 82.2,85 84,85 83.6,84.1 82.6,84 83.3,82.3 		
			"/>
	</g>
	<g>
		<polygon fill="#DB820F" points="18.9,85.7 20,85.7 17.5,80.3 15,85.7 16.2,85.7 16.5,84.9 18.2,84.9 17.8,84 16.8,84 17.5,82.2 		
			"/>
	</g>
	<g>
		<polygon fill="#DB820F" points="65.4,83.6 66,83.6 66,82.5 67.5,82.5 67.3,81.9 66.1,81.9 66.1,81.1 67.7,81.1 67.4,80.6 
			65.4,80.6 65.4,81.9 64.9,81.9 65.4,82.4 		"/>
	</g>
	<g>
		<polygon fill="#DB820F" points="60.9,85.7 60.9,85.1 68.6,85.1 68.9,85.7 		"/>
	</g>
	<g>
		<path fill="#DB820F" d="M33.6,85.7H37v-1h-2.4v-1.1h1.9v-1.1h-1.9l0-1.1h2.1c0,0,0.4-0.1,0.3-0.9h-3.4v1.9h-0.9l0.9,1.1V85.7z"/>
	</g>
	<g>
		<polygon fill="#DB820F" points="41.1,85.6 42,85.6 42,82.4 44.9,85.7 45.5,85.7 45.5,80.6 44.4,80.6 44.4,83.5 41.7,80.7 
			41.1,80.7 		"/>
	</g>
</g>
</svg>
