<?xml version="1.0" encoding="utf-8"?>
<!-- Generator: Adobe Illustrator 24.3.0, SVG Export Plug-In . SVG Version: 6.00 Build 0)  -->
<svg version="1.1" id="Layer_1" xmlns="http://www.w3.org/2000/svg" xmlns:xlink="http://www.w3.org/1999/xlink" x="0px" y="0px"
	 viewBox="0 0 126 126" enable-background="new 0 0 126 126" xml:space="preserve">
<g>
	<g>
		<g>
			<path fill="#308DC9" d="M97.8,53.4c-8.3,0-15,6.7-15,15c0,8.3,6.7,15,15,15c8.3,0,15-6.7,15-15S106.1,53.4,97.8,53.4z"/>
		</g>
		<g>
			<path fill="#308DC9" d="M88.3,91.8c-2.6-1.3-8.2-2.5-8.2-2.5c-0.1,0-0.2,0-0.3,0l-0.2,0c1.5-2.8,2.1-6.2,1.4-9.6
				c-0.7-3.5-2.6-6.6-5.3-8.5C79,55.7,85.9,46.9,96.9,44.4c5.4-1.2,6.9-5.7,6.5-9.2c-0.5-4.2-3.8-8.7-9.1-8.7
				c-0.7,0-1.5,0.1-2.2,0.3C73.6,31,61.9,46.2,57.3,72.1c-6.6,2-15.3,4.8-24,8c-4.4,1.6-7.6,4.7-9,8.5c-4.4,0.6-7.3,4.3-9.7,7.4
				l-1.4,1.7l2.2,1.8l1.5-1.8c3.5-5.7,8.8-5.9,8.8-5.9c0.8-0.1,1.6-0.2,2.3-0.2c3.7,0,7.3,1.5,9.9,4.2l1.4,1.5l1.4-1.5
				c2.6-2.7,6.2-4.2,9.9-4.2c4.2,0,8.2,1.9,10.8,5.3l1.6,2l1.6-2c3.3-4.2,8.7-6.1,13.9-4.9l1.3,0.3c0,0,4.8,1,7.1,2.1
				c3.6,2.1,5.8,3,9.5,3.2l1.1,0.1l0.2-2.9l-1.1-0.1C93.5,94.5,91,93.2,88.3,91.8z"/>
		</g>
	</g>
</g>
</svg>
