<?xml version="1.0" encoding="utf-8"?>
<!-- Generator: Adobe Illustrator 24.3.0, SVG Export Plug-In . SVG Version: 6.00 Build 0)  -->
<svg version="1.1" id="Layer_1" xmlns="http://www.w3.org/2000/svg" xmlns:xlink="http://www.w3.org/1999/xlink" x="0px" y="0px"
	 viewBox="0 0 126 126" enable-background="new 0 0 126 126" xml:space="preserve">
<g>
	<path fill="#E62B5B" d="M101,113H25c-6.6,0-12-5.4-12-12V25c0-6.6,5.4-12,12-12h76c6.6,0,12,5.4,12,12v76
		C113,107.6,107.6,113,101,113z"/>
	<g id="_x39_lGmGZ.tif">
		<g>
			<path fill="#FFFFFF" d="M47.5,30c3.2,11.6,6.4,23.3,9.7,34.9c0.4,1.5,0.2,2.4-0.9,3.4c-2.3,2.2-4.4,4.6-6.8,7.1
				c-0.7-1.1-1.1-1.7-1.5-2.4c-7.9-13.6-15.7-27.2-23.6-40.8c-0.4-0.6-0.8-1.2-1.2-1.8c0.5-0.1,0.9-0.4,1.4-0.4
				C32.3,30,39.9,30,47.5,30z"/>
			<path fill="#FFFFFF" d="M102.8,30.4c-3.2,5.4-6.4,10.8-9.6,16.2c-0.7,1.2-1.4,2.4-2.1,3.6c-8.6-2.3-17-4.6-25.5-6.9
				c-3.6-1-7.2-2-10.9-2.9c-1.1-0.3-1.7-0.8-1.9-1.9c-0.7-2.8-1.4-5.6-2.1-8.4c16.8,0,33.7,0,50.5,0C101.7,30,102.3,30.3,102.8,30.4
				z"/>
			<path fill="#FFFFFF" d="M89.7,52.7C80.9,68.2,72.1,83.5,63.3,99c-4.1-7.2-8.1-14.1-12.3-21.6c1.1-0.9,2.3-1.7,3.3-2.7
				C62,66.9,69.7,59,77.3,51.2c1-1,1.8-1.4,3.3-0.9C83.5,51.2,86.6,51.9,89.7,52.7z"/>
			<path fill="#FFFFFF" d="M59.9,62.8c-1.6-5.8-3.4-12.3-5.3-19.1c6.9,1.8,13.4,3.5,19.9,5.2C69.6,53.5,64.7,58.2,59.9,62.8z"/>
		</g>
	</g>
</g>
</svg>
