<?xml version="1.0" encoding="utf-8"?>
<!-- Generator: Adobe Illustrator 24.3.0, SVG Export Plug-In . SVG Version: 6.00 Build 0)  -->
<svg version="1.1" id="Layer_1" xmlns="http://www.w3.org/2000/svg" xmlns:xlink="http://www.w3.org/1999/xlink" x="0px" y="0px"
	 viewBox="0 0 126 126" enable-background="new 0 0 126 126" xml:space="preserve">
<g>
	<path fill="#64A4DA" d="M50.1,88.7c0,0,17.5-2.2,20.7,3.1s-2.6,18.9,0,21.1s13.9-16.3,13.1-24.6c-0.7-8.3-26.2-14-26.5-12.7
		C57.1,76.9,50.1,88.7,50.1,88.7L50.1,88.7z"/>
	<path fill="#7DCCED" d="M105.2,37.4c-3.3-0.5-10.5,4.5-14.7,7.7c-2,1.5-4.7,2-7.1,1.3c0,0-17.9-5.6-17.9-5.6
		C53,37.3,32.7,51.7,31.4,56.4c-1.2,4.1,22.4-7.8,27.9-2.5c5.5,5.3-39.4,59-39.4,59c26.3-6.5,44.5-36.6,48.7-42.8
		c1.7-2.6,3.6-7.8,4.3-13.2c5,1.3,13.5,3.2,16.8,2.8C94.3,59,110,38.1,105.2,37.4L105.2,37.4z"/>
	<path fill="#BEE2F0" d="M62.5,40.3c-13.2-0.8-30,12.2-31.1,16.1c-1.2,4.1,22.4-7.8,27.9-2.5c2.8,2.7-7.5,17.9-18.2,32.3
		C54.3,79.4,72.1,65.3,62.5,40.3L62.5,40.3z"/>
	<ellipse fill="#64A4DA" cx="74.1" cy="23.4" rx="10.4" ry="10.4"/>
	<path fill="#7DCCED" d="M74.7,13c-1.8,5.7-4,17,6.2,18.4C88,25.3,84.1,13.5,74.7,13z"/>
</g>
</svg>
