<?xml version="1.0" encoding="utf-8"?>
<!-- Generator: Adobe Illustrator 24.3.0, SVG Export Plug-In . SVG Version: 6.00 Build 0)  -->
<svg version="1.1" id="Layer_1" xmlns="http://www.w3.org/2000/svg" xmlns:xlink="http://www.w3.org/1999/xlink" x="0px" y="0px"
	 viewBox="0 0 126 126" enable-background="new 0 0 126 126" xml:space="preserve">
<g>
	<path fill="#FFFFFF" d="M22.6,48.5l0.4,2c0.7,4,1.7,8,2.9,11.9c2.7,9,7,17.5,12.6,25c6.3,8.1,14.3,14.6,23.6,19l1,0.5l1-0.5
		c9.2-4.4,17.3-10.9,23.6-19c5.7-7.5,10-16,12.6-25c1.2-3.9,2.1-7.9,2.9-11.9l0.4-2l-2-0.6c-6.7-1.9-10.5-8.8-8.7-15.4
		c0-0.2,0.1-0.3,0.2-0.5l0.7-2.1L63,19L32.4,29.9l0.7,2.1c0.4,1.3,0.6,2.6,0.6,3.9c0,5.6-3.7,10.5-9.1,12L22.6,48.5z"/>
	<path fill="#045DA0" d="M63,110.6l-2.4-1.2c-9.7-4.6-18.2-11.5-24.8-20c-5.9-7.8-10.4-16.6-13.2-26c-1.2-4-2.2-8.1-2.9-12.3l-0.9-5
		l4.8-1.4c4.9-1.4,7.8-6.5,6.4-11.4c0-0.1-0.1-0.2-0.1-0.4l-1.6-5.1L63,15.4l34.7,12.4L96.1,33c-1.6,4.9,1.1,10.1,5.9,11.6
		c0.1,0,0.2,0.1,0.3,0.1l4.8,1.4l-0.9,5c-0.7,4.2-1.7,8.3-2.9,12.3c-2.8,9.4-7.3,18.2-13.2,26.1c-6.6,8.5-15.1,15.3-24.8,19.9
		L63,110.6z M22.6,48.5l0.4,2c0.7,4,1.7,8,2.9,11.9c2.7,9,7,17.5,12.6,25c6.3,8.1,14.3,14.6,23.6,19l1,0.5l1-0.5
		c9.2-4.4,17.3-10.9,23.6-19c5.7-7.5,10-16,12.6-25c1.2-3.9,2.1-7.9,2.9-11.9l0.4-2l-2-0.6c-6.7-1.9-10.5-8.8-8.7-15.4
		c0-0.2,0.1-0.3,0.2-0.5l0.7-2.1L63,19L32.4,29.9l0.7,2.1c0.4,1.3,0.6,2.6,0.6,3.9c0,5.6-3.7,10.5-9.1,12L22.6,48.5z"/>
	<path fill="#045DA0" d="M63,104.3c-8.9-4.2-16.7-10.5-22.8-18.3c-5.5-7.3-9.7-15.5-12.3-24.3c-1.2-3.8-2.1-7.7-2.8-11.7
		C31.5,48.3,36,42.5,36,35.9c0-1.6-0.2-3.1-0.7-4.6L63,21.4l27.7,9.9c-0.5,1.5-0.7,3-0.7,4.6c0,6.6,4.4,12.5,10.8,14.2
		c-0.7,3.9-1.6,7.8-2.8,11.7c-2.6,8.8-6.8,17-12.3,24.3C79.7,93.8,71.9,100.1,63,104.3z"/>
	<path fill="#E32838" d="M63,102.2c-8.3-4.1-15.6-10-21.2-17.3c-5.4-7.1-9.4-15.1-12-23.7c-1-3.2-1.8-6.5-2.5-9.8
		c6.4-2.6,10.5-8.7,10.5-15.6c0-1.1-0.1-2.2-0.3-3.3L63,23.4l25.4,9.1c-1,5.1,0.3,10.4,3.7,14.3c1.7,2,4,3.6,6.4,4.6
		c-0.6,3.3-1.5,6.6-2.5,9.8c-2.5,8.5-6.6,16.6-11.9,23.7C78.6,92.1,71.3,98.1,63,102.2z"/>
	<path fill-rule="evenodd" clip-rule="evenodd" fill="#FFFFFF" d="M37.7,39.6c8.3-2.6,17-4,25.7-3.9c3.3,0,6.7,0.2,10,0.5
		C95.3,39,111.6,49.9,111.6,63c0,15.1-21.8,27.3-48.6,27.3S14.4,78.1,14.4,63C14.4,53.1,23.7,44.5,37.7,39.6z"/>
	<path fill-rule="evenodd" clip-rule="evenodd" fill="#045DA0" d="M14.9,62.9c0-15,21.7-27.2,48.5-27.2c21.1,0,39,7.5,45.8,18
		c1.5,2.6,2.4,5.5,2.4,8.4c0,15.1-21.8,27.3-48.6,27.3c-19.7,0-36.6-6.6-44.3-16C16.3,70.5,15,66.7,14.9,62.9L14.9,62.9z"/>
	<path fill-rule="evenodd" clip-rule="evenodd" fill="#E32838" d="M67.5,78.8H45.4l-0.8-4h-8.5l-1.2,3.2c6.6,5.3,17,8.7,28.6,8.7
		c11,0,20.8-3,27.5-7.8H80l-1.4-18.6h-2.8l0.5,9.4h-8.8V78.8z"/>
	<path fill-rule="evenodd" clip-rule="evenodd" fill="#E32838" d="M35.3,49.1h14.1l4.9,15.1l0.5-15.1h36.7
		c-4.8-3.5-10.3-5.9-16.1-7.2v2.5h-3.7v-3.1c-1-0.2-2-0.3-3-0.4v5.6H65v-5.7h-3v5.7h-3.7V41c-1,0.1-2,0.2-3,0.4v3.1h-3.8V42
		C45.7,43.2,40.2,45.7,35.3,49.1L35.3,49.1z"/>
	<path fill-rule="evenodd" clip-rule="evenodd" fill="#E32838" d="M91,53.7l1.8,14h6.6c0.4-1.3,0.6-2.7,0.5-4
		c0-4.3-1.9-8.3-5.2-11.7L91,53.7z"/>
	<path fill-rule="evenodd" clip-rule="evenodd" fill="#E32838" d="M34.9,53.4l-2.8-1.3c-3.2,3.4-5,7.4-5,11.6c0,0.7,0,1.4,0.1,2.1
		C27.2,65.8,34.9,53.4,34.9,53.4z"/>
	<path fill-rule="evenodd" clip-rule="evenodd" fill="#FFFFFF" d="M104.2,75.5H81.8l-2-25h13.6l-7,3h2.9l2,15.7h11.4L104.2,75.5
		L104.2,75.5z M74,60.9l0.3,5.5h-9.1v9.2H46.9L46,71.6H35l-2,3.9h-9.8l13.4-21.9h3.1l-6.6-3H48l7.5,22.6h0.3l0.7-22.6H78l0.5,6.2
		H65.2v4.1L74,60.9z"/>
	<polygon fill-rule="evenodd" clip-rule="evenodd" fill="#045DA0" points="42.7,57.1 42.1,57.1 37.2,67 45,67 42.7,57.1 	"/>
	<path fill-rule="evenodd" clip-rule="evenodd" fill="#FFFFFF" d="M63.5,38.3c-22,0-39.9,11.4-39.9,25.4c0,2.1,0.4,4.2,1.2,6.2
		l1.9-3.1c-0.2-1-0.3-2-0.3-3c0-11,11.1-20.3,26.5-23.3v2.7h1.1v-2.9c1.9-0.3,3.7-0.6,5.6-0.7v5.7h1.1v-5.7c0.9-0.1,1.9-0.1,2.8-0.1
		c0.9,0,1.9,0,2.9,0.1v5.7h1v-5.7c2,0.2,3.8,0.4,5.7,0.7v2.8h1.1v-2.7c15.3,3,26.5,12.3,26.5,23.3c0,1.4-0.2,2.7-0.5,4h2.8
		c0.4-1.3,0.6-2.7,0.5-4C103.4,49.7,85.6,38.3,63.5,38.3L63.5,38.3z"/>
	<path fill-rule="evenodd" clip-rule="evenodd" fill="#FFFFFF" d="M63.5,88c-11.8,0-22.2-3.6-29-9.2h-3c7.3,6.2,18.9,10.2,32,10.2
		s24.8-4,32.1-10.2h-3C85.7,84.4,75.2,88,63.5,88L63.5,88z"/>
	<path fill="#143657" d="M63,91.7c-27.6,0-50-12.9-50-28.8s22.4-28.8,50-28.8s50,12.9,50,28.8S90.6,91.7,63,91.7z M63,36.3
		c-26.4,0-47.9,12-47.9,26.6S36.6,89.6,63,89.6s47.9-12,47.9-26.6S89.4,36.3,63,36.3z"/>
</g>
</svg>
