<?xml version="1.0" encoding="utf-8"?>
<!-- Generator: Adobe Illustrator 24.3.0, SVG Export Plug-In . SVG Version: 6.00 Build 0)  -->
<svg version="1.1" id="Layer_1" xmlns="http://www.w3.org/2000/svg" xmlns:xlink="http://www.w3.org/1999/xlink" x="0px" y="0px"
	 viewBox="0 0 126 126" enable-background="new 0 0 126 126" xml:space="preserve">
<g>
	<g>
		<path fill="#E4E2F2" d="M28.5,73.2c-0.3-0.3-0.4-0.9-0.1-1.3l36.5-58.4c0.2-0.4,0.7-0.6,1.2-0.4l11.1,3.4c0.2,0,0.3,0.1,0.4,0.3
			c0.1,0.1,0.1,0.1,0.2,0.2l6,10c0.2,0.3,0.2,0.8,0,1.1L64.9,55.7c0,0.1-0.1,0.1-0.2,0.2L37.3,81c-0.4,0.4-1,0.4-1.4,0L28.5,73.2z"
			/>
		<path fill="#C3C7E5" d="M45.2,90.2c-0.4-0.4-0.4-1,0-1.4l25-27.6c0.1-0.1,0.1-0.1,0.2-0.2L98,42.3c0.3-0.2,0.8-0.2,1.1,0l10,6
			c0.1,0,0.1,0.1,0.2,0.2c0.1,0.1,0.2,0.3,0.3,0.4l3.4,11.1c0.1,0.4,0,0.9-0.4,1.2L54.1,97.7c-0.4,0.3-0.9,0.2-1.3-0.1L45.2,90.2z"
			/>
		<g>
			<path fill="#C3C7E5" d="M35.9,81c-0.4-0.4-0.4-1,0-1.4l46.5-52.7c0.3-0.3,0.8-0.4,1.2-0.3l10.6,4.8c0.1,0.1,0.2,0.1,0.3,0.2
				s0.2,0.2,0.2,0.3l4.8,10.6c0.2,0.4,0.1,0.9-0.3,1.2L46.6,90.3c-0.4,0.4-1,0.3-1.4,0L35.9,81z"/>
			<path fill="#A8ACD7" d="M99.5,42.6l-4.8-10.6c-0.1-0.1-0.1-0.2-0.2-0.3c-0.1-0.1-0.2-0.1-0.3-0.2L40.3,85.4l4.8,4.8
				c0.4,0.4,1,0.4,1.4,0l52.7-46.5C99.6,43.4,99.7,43,99.5,42.6L99.5,42.6z"/>
		</g>
	</g>
	<g>
		<g>
			<path fill="#E8455F" d="M18,106.4c-6.7-6.7-6.7-17.5,0-24.2l10.3-10.3l25.8,25.8L43.8,108c-6.7,6.7-17.5,6.7-24.2,0L18,106.4z"/>
			<path fill="#B01545" d="M41.1,84.7l-22.4,22.4l0.9,0.9c6.7,6.7,17.5,6.7,24.2,0l10.3-10.3L41.1,84.7z"/>
		</g>
		<g>
			<path fill="#2556A2" d="M18,106.4c-6.7-6.7-6.7-17.5,0-24.2l2-2L45.8,106l-2,2c-6.7,6.7-17.5,6.7-24.2,0L18,106.4z"/>
			<path fill="#21396F" d="M32.7,93l-14.1,14.1l0.9,0.9c6.7,6.7,17.5,6.7,24.2,0l2-2L32.7,93z"/>
		</g>
	</g>
</g>
</svg>
