<?xml version="1.0" encoding="utf-8"?>
<!-- Generator: Adobe Illustrator 24.3.0, SVG Export Plug-In . SVG Version: 6.00 Build 0)  -->
<svg version="1.1" id="Layer_1" xmlns="http://www.w3.org/2000/svg" xmlns:xlink="http://www.w3.org/1999/xlink" x="0px" y="0px"
	 viewBox="0 0 126 126" enable-background="new 0 0 126 126" xml:space="preserve">
<g>
	<g>
		<path fill-rule="evenodd" clip-rule="evenodd" fill="#858FAE" d="M33.3,34.1c-3.6-5.9-7.3-11.8-10.9-17.7
			c-1.1-1.9-3.6-2.6-5.5-1.5c-1.9,1.1-2.6,3.6-1.5,5.5l7.4,13.7L33.3,34.1L33.3,34.1z"/>
		<path fill-rule="evenodd" clip-rule="evenodd" fill="#C1AFB5" d="M33.3,34.1H22.8l19.4,36.1h13.2C48.1,58.2,40.7,46.1,33.3,34.1z"
			/>
		<path fill-rule="evenodd" clip-rule="evenodd" fill="#858FAE" d="M55.4,70.2H42.2l6,11.2h14.1C60,77.7,57.7,73.9,55.4,70.2
			L55.4,70.2z"/>
		<path fill-rule="evenodd" clip-rule="evenodd" fill="#FBBF44" d="M62.3,81.4H48.3l12.8,23.8c2.1,3.6,4.8,5.3,8.9,5.3h15.3
			l9.3-16.2h-6.6c-11.2,0-18.4-1-24.6-11.1C63.1,82.6,62.7,82,62.3,81.4L62.3,81.4z"/>
		<path fill-rule="evenodd" clip-rule="evenodd" fill="#858FAE" d="M94.7,94.3l-9.3,16.2h15.9c4.4,0,8.1-3.6,8.1-8.1
			s-3.6-8.1-8.1-8.1L94.7,94.3L94.7,94.3z"/>
		<g>
			<ellipse fill-rule="evenodd" clip-rule="evenodd" fill="#EE7A7A" cx="85.8" cy="58.9" rx="3.9" ry="3.9"/>
			<path fill-rule="evenodd" clip-rule="evenodd" fill="#EE7A7A" d="M89.7,58.9c0,2.2-1.7,3.9-3.9,3.9s-3.9-1.7-3.9-3.9
				s1.7-3.9,3.9-3.9S89.7,56.8,89.7,58.9z M85.8,47.2c-6.5,0-11.7,5.2-11.7,11.7s5.2,11.7,11.7,11.7s11.7-5.2,11.7-11.7
				S92.3,47.2,85.8,47.2z"/>
		</g>
	</g>
	<g>
		<path d="M101.2,92.4H88.1c-10.4,0-17.1-0.7-22.9-10.1l-17-27.7c-0.6-0.9-1.8-1.2-2.7-0.6c-0.9,0.6-1.2,1.8-0.6,2.7L52,68.3h-8.6
			L26.1,36h6.1l3.4,5.6c0.6,0.9,1.8,1.2,2.7,0.6c0.9-0.6,1.2-1.8,0.6-2.7L24.1,15.4c-1.6-2.8-5.3-3.8-8.1-2.2
			c-1.4,0.8-2.4,2.1-2.8,3.6c-0.4,1.5-0.2,3.1,0.6,4.5l45.6,84.8c0,0,0,0,0,0.1c2.5,4.3,5.8,6.2,10.6,6.2h31.2c5.5,0,10-4.5,10-10
			C111.3,96.9,106.8,92.4,101.2,92.4L101.2,92.4z M54.4,72.2l4.5,7.3h-9.4l-3.9-7.3H54.4z M17.1,19.4c-0.3-0.5-0.3-1-0.2-1.6
			s0.5-1,1-1.3c0.5-0.3,1-0.3,1.6-0.2c0.5,0.1,1,0.5,1.3,1c0,0,0,0,0,0l9,14.7H24L17.1,19.4C17.1,19.5,17.1,19.4,17.1,19.4z
			 M62.8,104.2L51.5,83.3h9.7l0.6,0.9c6.8,11.1,15.2,12,26.3,12h3.2l-7.1,12.2H70C66.6,108.5,64.5,107.3,62.8,104.2L62.8,104.2z
			 M101.2,108.5H88.7l7.1-12.2h5.5c3.4,0,6.1,2.7,6.1,6.1C107.4,105.8,104.6,108.5,101.2,108.5L101.2,108.5z"/>
		<path d="M85.8,72.6c7.5,0,13.7-6.1,13.7-13.7s-6.1-13.7-13.7-13.7c-7.5,0-13.7,6.1-13.7,13.7S78.3,72.6,85.8,72.6z M85.8,49.2
			c5.4,0,9.8,4.4,9.8,9.8c0,5.4-4.4,9.8-9.8,9.8c-5.4,0-9.8-4.4-9.8-9.8C76.1,53.5,80.4,49.2,85.8,49.2z"/>
		<path d="M85.8,64.8c3.2,0,5.9-2.6,5.9-5.9s-2.6-5.9-5.9-5.9S80,55.7,80,58.9S82.6,64.8,85.8,64.8z M85.8,57c1.1,0,2,0.9,2,2
			c0,1.1-0.9,2-2,2s-2-0.9-2-2C83.9,57.8,84.7,57,85.8,57z"/>
		<path d="M41.9,50c1.1,0,2-0.9,2-2c0-1.1-0.9-2-2-2h0c-1.1,0-2,0.9-2,2C39.9,49.2,40.8,50,41.9,50z"/>
	</g>
</g>
</svg>
