<?xml version="1.0" encoding="utf-8"?>
<!-- Generator: Adobe Illustrator 24.3.0, SVG Export Plug-In . SVG Version: 6.00 Build 0)  -->
<svg version="1.1" id="Layer_1" xmlns="http://www.w3.org/2000/svg" xmlns:xlink="http://www.w3.org/1999/xlink" x="0px" y="0px"
	 viewBox="0 0 126 126" enable-background="new 0 0 126 126" xml:space="preserve">
<g>
	<circle fill="#F8B450" cx="63" cy="63" r="48.1"/>
	<path fill="#B16E15" d="M63,113c-13.4,0-25.9-5.2-35.4-14.6S13,76.4,13,63s5.2-25.9,14.6-35.4S49.6,13,63,13s25.9,5.2,35.4,14.6
		S113,49.6,113,63s-5.2,25.9-14.6,35.4S76.4,113,63,113z M63,16.8c-25.4,0-46.2,20.7-46.2,46.2s20.7,46.2,46.2,46.2
		s46.2-20.7,46.2-46.2S88.4,16.8,63,16.8z"/>
	<path fill="#B16E15" d="M96.3,45.7c-0.7,0-1.3-0.4-1.7-1c0,0,0,0,0-0.1c-0.5-0.9-0.1-2.1,0.8-2.6c0.9-0.5,2.1-0.2,2.6,0.7
		c0,0,0,0,0,0.1c0.5,0.9,0.1,2.1-0.8,2.6C96.9,45.6,96.6,45.7,96.3,45.7z"/>
	<path fill="#B16E15" d="M92.3,40c-0.5,0-1.1-0.2-1.5-0.7c-7-8.2-17.1-12.8-27.8-12.8c-1.1,0-1.9-0.9-1.9-1.9c0-1.1,0.9-1.9,1.9-1.9
		c11.8,0,23.1,5.2,30.7,14.2c0.7,0.8,0.6,2-0.2,2.7C93.2,39.8,92.7,40,92.3,40z"/>
</g>
</svg>
