<?xml version="1.0" encoding="utf-8"?>
<!-- Generator: Adobe Illustrator 24.3.0, SVG Export Plug-In . SVG Version: 6.00 Build 0)  -->
<svg version="1.1" id="Layer_1" xmlns="http://www.w3.org/2000/svg" xmlns:xlink="http://www.w3.org/1999/xlink" x="0px" y="0px"
	 viewBox="0 0 126 126" enable-background="new 0 0 126 126" xml:space="preserve">
<g>
	<g id="design_3_">
		<g id="Layer_2_3_">
			
				<radialGradient id="SVGID_1_" cx="55.74" cy="-1143.3" r="76" gradientTransform="matrix(1 0 0 1 0 1196)" gradientUnits="userSpaceOnUse">
				<stop  offset="0" style="stop-color:#FFFFFF"/>
				<stop  offset="0.43" style="stop-color:#D6D5DF"/>
				<stop  offset="0.5" style="stop-color:#C8C8D1"/>
				<stop  offset="0.62" style="stop-color:#A2A2AA"/>
				<stop  offset="0.65" style="stop-color:#999AA2"/>
				<stop  offset="0.89" style="stop-color:#D0CFD0"/>
			</radialGradient>
			<circle fill="url(#SVGID_1_)" cx="63" cy="63" r="50"/>
			<path fill="#4E4D4D" d="M80.4,25.9c9.2-3.8,18,2.4,23,7.7c-1.3-1.7-2.6-3.4-4.1-4.9c-4.5-3.5-8.7-5-11.1-5.2
				c-9.9-1-18.3,5.4-21.1,16c-3,11.5,0.2,18.4,2.4,22.9c3.3,6.8,11,15.1,15.2,24c4.8,10.3,1.2,18.4-1.6,20.8
				c-1.9,1.5-3.9,2.8-6.1,3.8c1.7-0.5,3.4-1.1,5-1.7c2.1-1.2,3.9-3,5.1-5.1c1.3-2.6,1.9-5.5,1.7-8.4C88.4,84.2,79.7,76,72,63.1
				C64.1,49.7,67.6,31.1,80.4,25.9z M28.8,26.6c-1.1,1.2-2,2.5-2.7,4c-1.7,4,0.5,10.1,0.9,15.7c0.7,9.2-1.2,14.6-6.3,24.9
				c-2.5,4.9-2.9,10.6-1.2,15.8c0.2,0.5,0.4,1,0.6,1.4c1.6,2.6,3.4,5.1,5.4,7.4c-8-9.4-5.9-18.6-2-26.3c6-11.5,6.8-20.1,3.9-32.7
				c-1.4-6,2.1-10.4,5-13.4C31.1,24.4,29.9,25.5,28.8,26.6L28.8,26.6z"/>
			
				<radialGradient id="SVGID_2_" cx="52.83" cy="-1144.36" r="74.1" gradientTransform="matrix(1 0 0 1 0 1196)" gradientUnits="userSpaceOnUse">
				<stop  offset="0" style="stop-color:#D6473C"/>
				<stop  offset="1" style="stop-color:#B0333E"/>
			</radialGradient>
			<path fill="url(#SVGID_2_)" d="M82.8,106.3c-1.7,0.8-2.5,1.3-2.1,1.6s2.2-0.7,4.1-1.7c1.2-0.6,1.2-0.4,2.5-0.3
				c1,0.1,1.5-0.1,1.8-0.4c0.6-0.6-0.3-0.5-1.6-0.7C86.1,104.4,85.7,104.9,82.8,106.3z M84.6,100.7c-1.7,1-2.5,1.8-2,2.4
				c0.3,0.4,2.3-0.9,4.2-2.2c1.2-0.8,1.2-0.5,3,0c1.3,0.3,1.8,0.1,2-0.3c0.5-0.8-0.5-1-2.2-1.6C87.8,98.2,87.6,98.9,84.6,100.7
				L84.6,100.7z M27.5,35.8c1.5,0,3,0,3.1-0.5c0.3-0.8-0.2-1.1-1.5-1c-2.3,0.1-2.5-0.5-4.1,1.4s-2.6,2.7-2.2,3.3
				c0.3,0.3,0.8,0.2,2-1.2C26.5,36.1,26.5,35.8,27.5,35.8z M84,93.4c-1.3,1.2-1.8,2.1-1.1,2.8c0.4,0.4,2-1,3.5-2.6
				c1-1,1.2-0.7,3.3-0.2c1.8,0.4,2.4,0.1,2.6-0.6c0.3-1.2-1.1-1.2-3.4-1.9S86.4,91.2,84,93.4z M87.8,86.6c-2.6-0.5-2.5,0.5-4.9,3.1
				c-1.2,1.4-1.7,2.4-0.9,3.1c0.5,0.4,2-1.3,3.4-3.1c1-1.2,1.2-0.8,3.5-0.6c2,0.2,2.5-0.1,2.6-0.9C91.7,87,90.2,87,87.8,86.6
				L87.8,86.6z M89.8,95.2c-2.1-0.8-2.3,0-5.1,2c-1.6,1-2.2,1.8-1.7,2.5c0.4,0.4,2.1-0.9,3.9-2.3c1.2-0.9,1.2-0.6,3.2,0
				c1.6,0.4,2.1,0.2,2.3-0.4C92.9,96,91.7,95.9,89.8,95.2L89.8,95.2z M69.8,51.6c2.1,1.6,2.8,1.4,3.1,0.4c0.5-1.7-1.2-2.5-3.8-4.7
				s-2.8-0.9-5.9,1.4c-1.6,1.2-2.3,2.3-1.7,3.7c0.4,0.9,2.4-0.5,4.4-2.2C67.2,49.1,67.3,49.8,69.8,51.6z M66.2,43.6
				c1.4-1,1.5-0.3,3.8,1.8c2,1.8,2.7,1.7,3,0.7c0.6-1.7-0.9-2.6-3.3-5.1s-2.7-1.2-6,0.8c-1.8,1-2.5,2.1-2,3.5
				C61.9,46.2,64,45,66.2,43.6L66.2,43.6z M89.7,22.1c-1.3-1.3-2.1-1.9-2.7-1.7c-0.4,0.1,1.2,1.6,2.8,3.3c1.1,1.1,0.8,1.1,0.7,2.5
				c-0.1,1.2,0.3,1.8,1,2.1c1.2,0.6,1-0.4,1.2-2S92.1,24.6,89.7,22.1z M67.7,37.6c1.6-0.7,1.5-0.1,3.5,2c1.7,1.8,2.4,1.8,3,1
				c0.9-1.5-0.5-2.5-2.6-4.9s-2.5-1.3-6.2,0.1c-2,0.8-2.9,1.6-2.6,3C63,39.5,65.3,38.7,67.7,37.6L67.7,37.6z M85.5,82.3
				c-2.8-0.4-2.6,0.6-4.6,3.4c-1.1,1.5-1.3,2.6-0.4,3.2c0.6,0.4,1.8-1.4,3.1-3.3c0.8-1.3,1.1-0.9,3.7-0.7c2.1,0.2,2.7-0.2,2.6-1
				C89.8,82.5,88.3,82.6,85.5,82.3L85.5,82.3z M77.9,25.3c1.7,0.3,1.4,0.6,2.1,2.7c0.7,1.8,1.3,2.2,2.2,2c1.5-0.4,0.7-1.6-0.1-3.9
				s-1.6-1.8-5.3-2.7c-2-0.5-3.1-0.4-3.5,0.4C73,24.2,75.3,24.8,77.9,25.3L77.9,25.3z M86.1,23.2c1.3,1,1,1,1.1,2.7
				c0.1,1.5,0.6,2,1.3,2.2c1.3,0.4,1-0.8,0.9-2.7s-0.9-1.9-3.7-4c-1.5-1.1-2.4-1.6-3-1.2S84.1,21.8,86.1,23.2L86.1,23.2z M82,23.5
				c1.6,0.7,1.2,0.9,1.6,2.7c0.3,1.6,1,2.1,1.8,2.1c1.4,0.1,0.9-1.1,0.5-3.1s-1.2-1.9-4.6-3.5c-1.8-0.9-2.8-1.1-3.4-0.6
				C77.6,21.4,79.7,22.5,82,23.5L82,23.5z M92.7,22.8c-0.6-0.4-1.2-0.9-1.8-1.3c-0.1,0-0.2,0-0.3,0c-0.3,0.1,1.1,1.7,2.7,3.3
				c1.1,1.1,0.8,1.1,0.7,2.4c-0.1,0.8,0.3,1.7,1,2.1c1.1,0.7,0.9-0.4,1-1.8s-0.6-1.7-3-4.2L92.7,22.8z M73.7,27.8
				c1.8,0.1,1.5,0.5,2.6,2.7c1,1.9,1.7,2.2,2.5,1.8c1.4-0.7,0.4-2-0.8-4.4s-2-1.8-5.8-2.1c-2-0.2-3.2,0-3.5,1
				C68.6,27.5,71,27.8,73.7,27.8L73.7,27.8z M70,32.3c1.8-0.4,1.6,0.1,3.2,2.3c1.4,2,2.2,2,2.9,1.3c1.2-1.2-0.1-2.4-1.8-4.9
				s-2.3-1.5-6.2-0.7c-2,0.4-3.1,1.1-3.1,2.3C64.9,33.4,67.3,32.9,70,32.3z M81.7,81.3c0.7-1.4,1-1,3.6-0.9c2.2,0.1,2.7-0.4,2.6-1.2
				c-0.2-1.4-1.7-1.2-4.6-1.4s-2.6,0.7-4.4,3.7c-1,1.6-1.1,2.7-0.1,3.3C79.4,85.3,80.6,83.4,81.7,81.3L81.7,81.3z M82.5,76.4
				c2.2,0,2.7-0.4,2.5-1.2c-0.3-1.4-1.8-1.2-4.8-1.4s-2.6,0.8-4.2,3.9c-0.9,1.7-1,2.8,0.1,3.4c0.7,0.4,1.7-1.6,2.6-3.8
				C79.5,75.9,79.9,76.4,82.5,76.4L82.5,76.4z M79.5,72c2.4,0.1,3-0.4,2.8-1.2c-0.3-1.5-2-1.3-5.1-1.6s-2.7,0.7-4.4,3.9
				c-0.9,1.7-1,2.8,0,3.5c0.7,0.4,1.8-1.5,2.8-3.7C76.3,71.4,76.6,71.8,79.5,72L79.5,72z M76.5,67.5c2.4,0.2,3-0.2,2.8-1.1
				c-0.3-1.5-2-1.4-5.1-1.8s-2.7,0.6-4.6,3.8c-1,1.7-1.1,2.8,0,3.6c0.7,0.5,1.8-1.5,2.9-3.7C73.3,66.7,73.6,67.2,76.5,67.5
				L76.5,67.5z M73.4,62.8c2.5,0.6,3.1,0.2,3-0.7c-0.1-1.7-1.9-1.8-5.1-2.8s-2.9,0.2-5.1,3.2c-1.2,1.6-1.4,2.8-0.4,3.8
				c0.7,0.6,2.1-1.3,3.4-3.4C70.2,61.5,70.5,62.1,73.4,62.8L73.4,62.8z M84.2,103.7c-1.7,0.9-2.6,1.5-2.2,2c0.2,0.3,2.2-0.8,4.2-1.9
				c1.2-0.7,1.2-0.4,2.7-0.2c1.1,0.2,1.6,0,2-0.3c0.6-0.7-0.3-0.8-1.7-1.2C87.6,101.6,87.2,102.2,84.2,103.7L84.2,103.7z M19.2,83.7
				c1.2,2,2.6,4.1,2.9,3.9c0.5-0.2,0-1.4-1.2-3.1c-2-2.8-2-3.5-3.3-3.7c-0.4-0.1-0.9-0.1-1.3-0.1c0.2,0.5,0.3,1,0.5,1.4
				c0.2,0.1,0.3,0.2,0.5,0.2C18.5,82.7,18.5,82.4,19.2,83.7z M18.9,86.5c1.1,2,2.2,3.8,3.6,5.7c-0.4-0.8-0.8-1.7-1.4-2.4
				C20.4,88.6,19.7,87.5,18.9,86.5z M19,73.5c-1.8,0.2-2.8,0-2.7,1.3c0,0.7,0.4,1.2,1.7,1.2c1.7,0,1.9-0.4,2.5,1.1
				c1,2.2,2.1,4.3,2.5,3.9c0.7-0.6,0.4-1.7-0.5-3.5C20.8,74.3,20.9,73.3,19,73.5L19,73.5z M17.3,79.2c1.2,0.2,1.3-0.1,2,1.2
				c1.1,2.1,2.3,4.3,2.7,4.1c0.6-0.3,0.2-1.6-0.9-3.4c-1.8-3.1-1.8-3.9-3.3-3.8c-1.2,0-1.9-0.2-1.8,0.8C16.1,78.6,16.4,79,17.3,79.2
				z M23,65.3c-2.2,0.3-3.5,0.2-3.6,1.6c-0.1,0.8,0.4,1.3,2.1,1.1c2-0.2,2.3-0.6,2.9,0.8c0.9,2.1,1.8,4,2.3,3.6
				c0.7-0.7,0.6-1.8-0.2-3.4C25,66,25.2,65,23,65.3L23,65.3z M20.6,69.4c-2.1,0.2-3.3,0-3.4,1.4c0,0.8,0.4,1.3,2,1.2
				c2-0.1,2.1-0.5,2.8,1c1,2.2,2,4.2,2.4,3.7c0.7-0.7,0.5-1.8-0.4-3.5C22.6,70.2,22.8,69.2,20.6,69.4z M100.2,29.7
				c-1.7-1.9-3.5-3.7-5.5-5.3L96,26c1,1.2,0.7,1.1,0.9,2.4c0,0.8,0.4,1.6,1,2.1c1,0.8,0.7-0.2,0.6-1.6c0-0.4-0.1-0.8-0.3-1.1
				l0.1,0.1c0.6,0.6,1,1.4,1,2.3c0.1,0.8,0.5,1.5,1.1,2.1c0.8,0.8,0.5-0.2,0.3-1.5C100.5,30.4,100.4,30,100.2,29.7z M102.1,32.2
				c-0.1-0.2-0.1-0.4-0.2-0.5c-0.4-0.5-0.8-1-1.2-1.4c0.1,0.3,0.2,0.5,0.4,1.1c0.2,0.8,0.6,1.5,1.1,2.1
				C102.8,34.3,102.4,33.3,102.1,32.2L102.1,32.2z M81.1,108.4c-1.6,0.7-2.4,1.2-2.3,1.5s2-0.7,3.9-1.6c0.7-0.4,1.5-0.6,2.2-0.4
				c0.7-0.3,1.4-0.7,2.1-1c-0.4,0-0.8,0-1.2-0.1C84.4,106.7,84,107.1,81.1,108.4L81.1,108.4z M67,56.8c1-1.4,1.3-0.8,4.1,0.4
				c2.4,1,3.1,0.7,3.1-0.3c0.1-1.7-1.7-2.1-4.8-3.6s-3-0.2-5.4,2.7c-1.3,1.5-1.7,2.7-0.8,3.9C63.8,60.7,65.4,58.9,67,56.8z
				 M25.2,60.5c-2.4,1-3.7,1.2-3.7,2.8c0,0.9,0.5,1.3,2.3,0.7c2.2-0.8,2.4-1.3,3.1,0.1c1.1,2.1,2.2,3.9,2.7,3.3
				c0.7-1,0.5-2.2-0.5-3.7C27.3,60.7,27.5,59.5,25.2,60.5L25.2,60.5z M31.2,45.8c-2.6-1.4-2.8-2.3-4.8-0.5s-3.3,2.4-2.9,3.6
				c0.2,0.7,0.8,0.7,2.5-0.5c1.9-1.5,2-2,3.1-1.3c1.7,1,3.3,1.9,3.6,1.2C33.1,47.2,32.5,46.4,31.2,45.8L31.2,45.8z M30.6,28.4
				c0.5-0.6,0.1-0.7-0.9-0.6c-0.8,0-1.6,0.1-2.4,0.3c-0.6,0.7-1.2,1.4-1.9,2c1.4-1,1.6-1.1,2.4-1.2C29.1,28.8,30.3,28.7,30.6,28.4
				L30.6,28.4z M31,26.4c0.5-0.5,0.1-0.5-0.8-0.2c-0.5,0.1-0.9,0.2-1.2,0.3c-0.3,0.3-0.7,0.6-1,0.9l0.3-0.1
				C29.3,27.1,30.2,26.8,31,26.4L31,26.4z M17.9,83.7l-0.5-0.2c0.3,0.6,0.5,1.1,0.8,1.7c0.6,0.3,0.8,0.3,1.4,1.3
				c1.2,2,2.5,4.1,2.8,4s-0.1-1.2-1.3-2.9C19.2,84.8,19.1,84.1,17.9,83.7z M26.3,55c-2.2,1.6-3.6,2.1-3.4,3.8c0.1,1,0.7,1.3,2.4,0.1
				c2.1-1.3,2.2-2,3.2-0.7c1.4,2,2.8,3.6,3.2,2.8c0.6-1.2,0.2-2.4-1-3.8C28.5,54.6,28.5,53.4,26.3,55z M25.9,41.5
				c-2,1.9-3.2,2.7-2.7,3.7c0.3,0.6,0.9,0.5,2.4-0.9c1.9-1.7,1.9-2.1,3-1.7c1.7,0.6,3.4,1.1,3.6,0.5c0.4-1-0.2-1.5-1.6-2
				C28.1,40.4,27.9,39.6,25.9,41.5L25.9,41.5z M25.4,40.9c1.7-1.7,1.7-2.1,2.8-1.9c1.6,0.3,3.2,0.5,3.5-0.1c0.3-0.9-0.3-1.3-1.6-1.5
				c-2.5-0.3-2.7-0.9-4.5,1s-2.9,2.8-2.4,3.6C23.4,42.5,23.9,42.3,25.4,40.9L25.4,40.9z M30.8,24.9L30.6,25
				c-0.3,0.2-0.5,0.5-0.8,0.7c0.6-0.2,1.3-0.5,1.8-0.8C32.1,24.5,31.8,24.5,30.8,24.9L30.8,24.9z M24.8,32.5
				c1.7-1.3,1.8-1.5,2.6-1.6c1.3-0.1,2.6-0.3,2.9-0.7c0.4-0.6,0-0.7-1-0.6c-2,0.3-2.1,0-3.9,1.4c-0.9,0.7-1.5,1.2-2,1.6l-0.6,0.8
				v0.1C22.9,33.8,23.4,33.6,24.8,32.5L24.8,32.5z M31.2,50.8c-2.5-2-2.5-3.1-4.7-1.1s-3.5,2.7-3.2,4.3c0.2,0.9,0.8,1,2.5-0.4
				c2-1.7,2.1-2.3,3.2-1.3c1.6,1.5,3.1,2.7,3.5,1.9C33,52.8,32.5,51.8,31.2,50.8L31.2,50.8z M24.7,34.8c1.5-1.5,1.6-1.8,2.5-1.8
				c1.5,0,2.9,0,3.1-0.5c0.3-0.7-0.2-0.9-1.4-0.9c-2.2,0.1-2.4-0.4-4.1,1.2s-2.7,2.4-2.3,2.9C22.9,36.1,23.4,35.9,24.7,34.8
				L24.7,34.8z"/>
			<circle fill="none" cx="62.9" cy="63.1" r="49.7"/>
			<defs>
				<filter id="Adobe_OpacityMaskFilter" filterUnits="userSpaceOnUse" x="23.4" y="17.6" width="80.1" height="52">
					<feColorMatrix  type="matrix" values="1 0 0 0 0  0 1 0 0 0  0 0 1 0 0  0 0 0 1 0"/>
				</filter>
			</defs>
			<mask maskUnits="userSpaceOnUse" x="23.4" y="17.6" width="80.1" height="52" id="mask_3_">
				<g filter="url(#Adobe_OpacityMaskFilter)">
				</g>
			</mask>
			<g mask="url(#mask_3_)">
				
					<linearGradient id="SVGID_3_" gradientUnits="userSpaceOnUse" x1="63.405" y1="134.04" x2="63.405" y2="53.14" gradientTransform="matrix(1 0 0 -1 0 128)">
					<stop  offset="0" style="stop-color:#FFFFFF;stop-opacity:0.4"/>
					<stop  offset="1.000000e-02" style="stop-color:#FFFFFF;stop-opacity:0.39"/>
					<stop  offset="0.32" style="stop-color:#FFFFFF;stop-opacity:0.22"/>
					<stop  offset="0.6" style="stop-color:#FFFFFF;stop-opacity:0.1"/>
					<stop  offset="0.84" style="stop-color:#FFFFFF;stop-opacity:3.000000e-02"/>
					<stop  offset="1" style="stop-color:#FFFFFF;stop-opacity:0"/>
				</linearGradient>
				<path fill="url(#SVGID_3_)" d="M63.4,17.6c-22.1,0-40,15.7-40,35.1l0,0c0.1,3.1,1.8,5.8,4.5,7.3c10.8,6.3,23,9.6,35.5,9.5
					c12.5,0.1,24.8-3.2,35.5-9.5c2.7-1.5,4.4-4.2,4.5-7.3l0,0C103.4,33.4,85.5,17.6,63.4,17.6z"/>
			</g>
			<path opacity="0.2" fill="#868686" enable-background="new    " d="M112.4,62.5c0,2.2-0.1,4.4-0.4,6.6c0,0.3-0.1,0.7-0.2,1
				c-1.1,7-3.6,13.6-7.5,19.5l-0.7,1c-4.4,6.4-10.2,11.7-17,15.5l0,0c-0.5,0.3-1,0.5-1.5,0.8c-7,3.6-14.8,5.4-22.7,5.4
				c-0.7,0-1.4,0-2,0c-1.7-0.1-3.3-0.2-5-0.4l0,0c-9.4-1.3-18.1-5.3-25.3-11.4c-0.5-0.4-1-0.9-1.5-1.4c-2.2-2-4.1-4.2-5.9-6.5
				c-0.3-0.3-0.5-0.7-0.8-1.1c-2.6-3.7-4.8-7.7-6.3-11.9c3.2,1.2,6.6,2,10,2.5l0,0c1.7,0.2,3.3,0.4,5,0.5c0.7,0,1.4,0,2,0
				c7.9,0,15.7-1.8,22.7-5.4l1.5-0.8l0,0c6.8-3.8,12.6-9.1,17-15.5c0.2-0.3,0.4-0.7,0.7-1c3.8-5.9,6.4-12.5,7.4-19.5
				c0.1-0.3,0.1-0.7,0.2-1c1.1-8,0.2-16.1-2.6-23.7C99.3,22.9,112.4,41.6,112.4,62.5z"/>
			<path opacity="0.2" fill="#868686" enable-background="new    " d="M112.4,62.5c0,2.2-0.1,4.4-0.4,6.6c0,0.3-0.1,0.7-0.2,1
				c-1.1,7-3.6,13.6-7.5,19.5l-0.7,1c-4.4,6.4-10.2,11.7-17,15.5l0,0c-0.5,0.3-1,0.5-1.5,0.8c-7,3.6-14.8,5.4-22.7,5.4
				c-0.7,0-1.4,0-2,0c-1.7-0.1-3.3-0.2-5-0.4l0,0c-9.4-1.3-18.1-5.3-25.3-11.4c-0.5-0.4-1-0.9-1.5-1.4c-2.1-2-4.1-4.1-5.9-6.5
				c6.7,5.1,14.6,8.4,23,9.6l0,0c1.7,0.2,3.3,0.4,5,0.5c0.7,0,1.4,0,2,0c7.9,0,15.6-1.8,22.7-5.4l1.5-0.8l0,0
				c6.8-3.8,12.7-9.1,17.1-15.5l0.7-1c3.9-5.9,6.4-12.6,7.5-19.5c0.1-0.3,0.1-0.7,0.2-1c1.7-13-1.7-26.2-9.7-36.7
				C105.1,32.2,112.4,46.9,112.4,62.5z"/>
		</g>
	</g>
</g>
</svg>
