<?xml version="1.0" encoding="utf-8"?>
<!-- Generator: Adobe Illustrator 24.3.0, SVG Export Plug-In . SVG Version: 6.00 Build 0)  -->
<svg version="1.1" id="Layer_1" xmlns="http://www.w3.org/2000/svg" xmlns:xlink="http://www.w3.org/1999/xlink" x="0px" y="0px"
	 viewBox="0 0 126 126" enable-background="new 0 0 126 126" xml:space="preserve">
<g id="XMLID_1079_">
	<g id="XMLID_1446_">
		<path id="XMLID_1619_" fill="#FFFFFF" d="M40,25.9c7.1,8.3,10.9,18.8,10.9,29.6V77h42.2V55.5c0-10.9,3.9-21.4,10.9-29.6L40,25.9z"
			/>
	</g>
	<path id="XMLID_1445_" fill="#7BCBE4" d="M38.4,25.9h67.2c3,0,5.5-2.4,5.5-5.5s-2.4-5.5-5.5-5.5H38.4c-3,0-5.5,2.4-5.5,5.5
		S35.4,25.9,38.4,25.9z"/>
	<circle id="XMLID_1544_" fill="#EE7A7A" cx="47.8" cy="78.2" r="32.8"/>
	<g id="XMLID_355_">
		<path id="XMLID_386_" d="M105.6,13H80.8c-1.1,0-2,0.9-2,2s0.9,2,2,2h24.8c1.9,0,3.5,1.6,3.5,3.5s-1.6,3.5-3.5,3.5H38.4
			c-1.9,0-3.5-1.6-3.5-3.5s1.6-3.5,3.5-3.5h24.8c1.1,0,2-0.9,2-2s-0.9-2-2-2H38.4c-4.1,0-7.4,3.3-7.4,7.4s3.3,7.4,7.4,7.4H39
			c3.7,4.6,6.5,9.9,8.2,15.6C28.3,43.7,13,59.2,13,78.2C13,97.4,28.6,113,47.8,113s34.8-15.6,34.8-34.8c0-3.7-0.6-7.2-1.6-10.5
			l10.8,10.8c0.4,0.4,0.9,0.6,1.4,0.6c0.3,0,0.5,0,0.7-0.1c0.7-0.3,1.2-1,1.2-1.8V55.5c0-10.1,3.5-19.9,9.9-27.7h0.6
			c4.1,0,7.4-3.3,7.4-7.4S109.7,13,105.6,13L105.6,13z M81.8,29.2l7.1,7.1l-7.1,7.1l-7.1-7.1L81.8,29.2
			C81.8,29.2,81.8,29.2,81.8,29.2C81.8,29.2,81.8,29.2,81.8,29.2z M71.1,98.4c-3-5.6-4.7-11.8-5-18.2h12.4
			C78.2,87.1,75.4,93.4,71.1,98.4z M17,80.2h12.4c-0.3,6.4-2,12.6-5,18.2C20.1,93.4,17.4,87.1,17,80.2z M24.4,58
			c3,5.6,4.7,11.8,5,18.2H17C17.4,69.3,20.1,63,24.4,58z M50.5,40.8l11.6-11.6c0,0,0,0,0,0c0,0,0,0,0,0l7.1,7.1l-9.3,9.3
			c-2.7-1-5.6-1.7-8.6-2C51.1,42.7,50.8,41.7,50.5,40.8z M66.3,27.9h11.3L72,33.5L66.3,27.9z M49.7,76.3V47.4
			c7.1,0.4,13.5,3.3,18.5,7.7c-3.6,6.5-5.7,13.7-6,21.1H49.7z M64.9,46.1L72,39l7.1,7.1L72,53.2L64.9,46.1z M45.8,76.3H33.3
			c-0.3-7.4-2.4-14.7-6-21.1c5-4.4,11.5-7.3,18.5-7.7V76.3z M33.3,80.2h12.6V109c-7.1-0.4-13.5-3.3-18.5-7.7
			C30.9,94.8,33,87.6,33.3,80.2L33.3,80.2z M49.7,80.2h12.6c0.3,7.4,2.4,14.7,6,21.1c-5,4.4-11.5,7.3-18.5,7.7L49.7,80.2L49.7,80.2z
			 M66.2,76.3c0.3-6.4,2-12.6,5-18.2c4.3,5,7,11.3,7.4,18.2H66.2z M74.7,56l7.1-7.1l7.1,7.1L81.8,63L74.7,56z M91.2,52.7l-6.6-6.6
			l7.1-7.1l1.8,1.8C92.2,44.7,91.4,48.7,91.2,52.7L91.2,52.7z M58,27.9l-9,9c-1.4-3.2-3-6.2-5-9H58z M84.6,65.8l6.5-6.5v13.1
			L84.6,65.8z M95,36.8l-9-9h14C98,30.7,96.3,33.7,95,36.8z"/>
		<path id="XMLID_868_" d="M72,16.9c0.5,0,1-0.2,1.4-0.6c0.4-0.4,0.6-0.9,0.6-1.4c0-0.5-0.2-1-0.6-1.4C73,13.2,72.5,13,72,13
			s-1,0.2-1.4,0.6C70.2,13.9,70,14.4,70,15s0.2,1,0.6,1.4C71,16.7,71.5,16.9,72,16.9z"/>
	</g>
</g>
</svg>
