<?xml version="1.0" encoding="utf-8"?>
<!-- Generator: Adobe Illustrator 24.3.0, SVG Export Plug-In . SVG Version: 6.00 Build 0)  -->
<svg version="1.1" id="Layer_1" xmlns="http://www.w3.org/2000/svg" xmlns:xlink="http://www.w3.org/1999/xlink" x="0px" y="0px"
	 viewBox="0 0 126 126" enable-background="new 0 0 126 126" xml:space="preserve">
<g>
	<g id="design">
		
			<radialGradient id="SVGID_1_" cx="49.85" cy="398.87" r="79.46" gradientTransform="matrix(1 0 0 1 0 -364.23)" gradientUnits="userSpaceOnUse">
			<stop  offset="0" style="stop-color:#FFB854"/>
			<stop  offset="0.43" style="stop-color:#FF5900"/>
			<stop  offset="0.82" style="stop-color:#A33800"/>
			<stop  offset="1" style="stop-color:#421200"/>
		</radialGradient>
		<path fill="url(#SVGID_1_)" d="M109.8,79c0-0.7,0.4-1.2,1.1-1.4c3-10,2.9-20.7-0.5-30.7c-0.6-0.2-1.1-0.8-1.1-1.5
			c0-0.3,0.1-0.6,0.2-0.8c-4.8-12.1-14.2-21.9-26.1-27.3c-0.2,0.1-0.4,0.2-0.7,0.2c-0.7,0-1.2-0.4-1.4-1.1
			C68.2,11.2,53.6,11.8,41,18c-0.1,0.8-0.7,1.4-1.5,1.4c-0.3,0-0.5-0.1-0.8-0.2c-11.2,6.2-19.5,16.4-23.4,28.6
			c0.4,0.3,0.7,0.8,0.7,1.3c0,0.8-0.7,1.5-1.5,1.5c-1,4-1.5,8.2-1.5,12.3c0,8.6,2.2,17.1,6.5,24.6c0.8,0,1.5,0.7,1.5,1.6
			c0,0.2-0.1,0.4-0.2,0.6c7.3,11.6,19.1,19.6,32.5,22.3c0.3-0.3,0.7-0.4,1.1-0.4c0.6,0,1.1,0.3,1.4,0.8c12.1,1.8,24.4-0.9,34.7-7.6
			c0-0.8,0.7-1.4,1.5-1.4c0.2,0,0.3,0,0.4,0.1c8.2-5.9,14.3-14.1,17.8-23.6C109.9,79.6,109.8,79.3,109.8,79z"/>
		
			<radialGradient id="SVGID_2_" cx="68.33" cy="407.12" r="42.68" gradientTransform="matrix(1 0 0 1 0 -364.23)" gradientUnits="userSpaceOnUse">
			<stop  offset="0" style="stop-color:#9B9796"/>
			<stop  offset="0.36" style="stop-color:#000000"/>
		</radialGradient>
		<path fill="url(#SVGID_2_)" d="M109.8,79c0-0.1,0-0.2,0-0.3c-2.2,0.1-4.3-0.4-6.2-1.3C100,75,97.8,71,96,67c1-0.9,2-1.8,3-2.7
			c5-4.8,8.9-10.6,11.5-17l-0.1-0.4c-0.3-0.1-0.5-0.3-0.7-0.5c-3.2,7.4-8,13.9-14.2,19.1c-0.4-1-0.8-2-1.2-2.9
			c-3.8-11.1-3.5-22.4-4.6-32c-1-4.7-3-9.1-5.8-13l-0.4-0.2c-0.2,0.1-0.4,0.2-0.7,0.2c-0.1,0-0.1,0-0.2,0c4,5.4,6.1,12,5.9,18.7
			c0.4,11.1,1.6,22,5.6,30.4c-0.7,0.5-1.4,1.1-2.1,1.6c-2.2,1.5-4.5,2.9-6.8,4.3c-6-13.1-13.8-24.3-21-33.6c-7.8-10-16-17.2-23-21
			L41,18.1c0,0.2-0.1,0.4-0.2,0.6C52.1,25,60.5,36.5,67.7,46.1c6.1,8.6,11.5,17.7,16.1,27.2c-3.6,2.1-7.2,4-10.8,5.8
			c-2.9-5.3-8-9.1-12.8-11.9c-6-3.5-12.5-6.3-19.2-8.2c-8.7-2.2-17.1-5.4-25-9.6c0,0.3-0.2,0.5-0.3,0.7c10.2,5.8,21.5,9.5,31.7,12.9
			c9.7,3.6,19.4,9.4,24,17c-6.9,3.3-13.9,6-21.2,8.2c-9.5,3-19.6,3.4-29.2,1.2c0,0.1-0.1,0.2-0.1,0.3c0.1,0.2,0.2,0.4,0.4,0.5
			c12.3,3.1,25.8,1.5,37-2.9c4.8-1.9,9.6-3.8,14.1-5.9c1.7,3.4,2.3,7.2,1.5,10.9c-2.2,11.4-11.5,17.2-18,20.1l0,0
			c0.5,0.1,1,0.1,1.5,0.2c3.1-1.3,6.1-3.1,8.8-5.2c6.7-5.1,11.1-14,9.2-22.4c-0.3-1.5-0.7-2.9-1.3-4.3c3.8-1.8,7.4-3.7,10.8-5.7
			c1.8,4,3.3,8.1,4.5,12.2c1.7,5.2,2.6,10.6,2.7,16l0,0c0.2,0,0.3,0,0.4,0.1c0.2-0.1,0.4-0.3,0.6-0.4c-0.1-8.1-1.7-16.1-4.7-23.7
			c-0.7-1.8-1.4-3.5-2.2-5.2c3.1-1.9,6-3.9,8.8-6.2c0,0.1,0.1,0.1,0.1,0.2c2.1,4.2,4.5,8.4,8.3,10.2c2.1,0.9,4.4,1.3,6.7,1.1
			C109.8,79.4,109.8,79.2,109.8,79z"/>
		
			<radialGradient id="SVGID_3_" cx="29.28" cy="418.89" r="36.33" gradientTransform="matrix(1 0 0 1 0 -362)" gradientUnits="userSpaceOnUse">
			<stop  offset="0" style="stop-color:#9B9796"/>
			<stop  offset="0.36" style="stop-color:#000000"/>
		</radialGradient>
		<path fill="url(#SVGID_3_)" d="M76.6,77.3c-1.2,0.6-2.4,1.3-3.6,1.8c-2.9-5.3-8-9.1-12.8-11.9c-6-3.5-12.5-6.3-19.2-8.2
			c-8.7-2.2-17.1-5.4-25-9.6c0,0.3-0.2,0.5-0.3,0.7c10.2,5.8,21.5,9.5,31.7,12.9c9.7,3.6,19.4,9.4,24,17c-6.9,3.3-13.9,6-21.2,8.2
			c-9.5,3-19.6,3.4-29.2,1.2c0,0.1-0.1,0.2-0.1,0.3c0.1,0.2,0.2,0.4,0.4,0.5c12.3,3.1,25.8,1.5,37-2.9c4.8-1.9,9.6-3.8,14.1-5.9
			c1.7,3.4,2.3,7.2,1.5,10.9c-2.2,11.4-11.5,17.2-18,20.1l0,0c0.5,0.1,1,0.1,1.5,0.2c3.1-1.3,6.1-3.1,8.8-5.2
			c6.7-5.1,11.1-14,9.2-22.4c-0.3-1.5-0.7-2.9-1.3-4.3c1.2-0.6,2.5-1.2,3.7-1.8L76.6,77.3z"/>
		
			<radialGradient id="SVGID_4_" cx="87.03" cy="384.46" r="29.3" gradientTransform="matrix(1 0 0 1 0 -362)" gradientUnits="userSpaceOnUse">
			<stop  offset="0" style="stop-color:#9B9796"/>
			<stop  offset="0.36" style="stop-color:#000000"/>
		</radialGradient>
		<path fill="url(#SVGID_4_)" d="M110.5,47.3l-0.1-0.4c-0.3-0.1-0.5-0.3-0.7-0.5c-3.2,7.4-8,13.9-14.2,19.1c-0.4-1-0.8-2-1.2-2.9
			c-3.8-11.1-3.5-22.4-4.6-32c-1-4.7-3-9.1-5.8-13l-0.4-0.2c-0.1,0.1-0.2,0.1-0.3,0.1l0.1,0.9c3.6,5.2,5.5,11.4,5.3,17.8
			c0.4,11.1,1.6,22,5.6,30.4c-0.7,0.5-1.3,1-2,1.5l0.4,1.7c0.8-0.6,1.5-1.1,2.2-1.7c0,0.1,0.1,0.1,0.1,0.2c2.1,4.2,4.5,8.4,8.3,10.2
			c2.1,0.9,4.4,1.3,6.7,1.1c-0.1-0.2-0.1-0.4-0.1-0.6c0-0.1,0-0.2,0-0.3c-2.2,0.1-4.3-0.4-6.2-1.3C100,75,97.8,71,96,67
			c1-0.9,2-1.8,3-2.7C104,59.5,107.9,53.7,110.5,47.3z"/>
		<g>
			
				<linearGradient id="SVGID_5_" gradientUnits="userSpaceOnUse" x1="63.4" y1="355.96" x2="63.4" y2="436.86" gradientTransform="matrix(1 0 0 1 0 -362)">
				<stop  offset="0" style="stop-color:#FFFFFF;stop-opacity:0.4"/>
				<stop  offset="1.000000e-02" style="stop-color:#FFFFFF;stop-opacity:0.39"/>
				<stop  offset="0.32" style="stop-color:#FFFFFF;stop-opacity:0.22"/>
				<stop  offset="0.6" style="stop-color:#FFFFFF;stop-opacity:0.1"/>
				<stop  offset="0.84" style="stop-color:#FFFFFF;stop-opacity:3.000000e-02"/>
				<stop  offset="1" style="stop-color:#FFFFFF;stop-opacity:0"/>
			</linearGradient>
			<path fill="url(#SVGID_5_)" d="M63.4,17.6c-22.1,0-40,15.7-40,35.1l0,0c0.1,3.1,1.8,5.8,4.5,7.3c10.8,6.3,23,9.6,35.5,9.5
				c12.5,0.1,24.8-3.2,35.5-9.5c2.7-1.5,4.4-4.2,4.5-7.3l0,0C103.4,33.4,85.5,17.6,63.4,17.6z"/>
		</g>
		<path opacity="0.2" fill="#878787" enable-background="new    " d="M112.4,62.5c0,2.2-0.1,4.4-0.4,6.6c0,0.3-0.1,0.7-0.2,1
			c-1.1,7-3.6,13.6-7.5,19.5l-0.7,1c-4.4,6.4-10.2,11.7-17,15.5l0,0c-0.5,0.3-1,0.5-1.5,0.8c-7,3.6-14.8,5.4-22.7,5.4
			c-0.7,0-1.4,0-2,0c-1.7-0.1-3.3-0.2-5-0.4l0,0c-9.4-1.3-18.1-5.3-25.3-11.4c-0.5-0.4-1-0.9-1.5-1.4c-2.2-2-4.1-4.2-5.9-6.5
			c-0.3-0.3-0.5-0.7-0.8-1.1c-2.6-3.7-4.8-7.7-6.3-11.9c3.2,1.2,6.6,2,10,2.5l0,0c1.7,0.2,3.3,0.4,5,0.5c0.7,0,1.4,0,2,0
			c7.9,0,15.7-1.8,22.7-5.4l1.5-0.8l0,0c6.8-3.8,12.6-9.1,17-15.5c0.2-0.3,0.4-0.7,0.7-1c3.8-5.9,6.4-12.5,7.4-19.5
			c0.1-0.3,0.1-0.7,0.2-1c1.1-8,0.2-16.1-2.6-23.7C99.3,22.9,112.4,41.6,112.4,62.5z"/>
		<path opacity="0.2" fill="#878787" enable-background="new    " d="M112.4,62.5c0,2.2-0.1,4.4-0.4,6.6c0,0.3-0.1,0.7-0.2,1
			c-1.1,7-3.6,13.6-7.5,19.5l-0.7,1c-4.4,6.4-10.2,11.7-17,15.5l0,0c-0.5,0.3-1,0.5-1.5,0.8c-7,3.6-14.8,5.4-22.7,5.4
			c-0.7,0-1.4,0-2,0c-1.7-0.1-3.3-0.2-5-0.4l0,0c-9.4-1.3-18.1-5.3-25.3-11.4c-0.5-0.4-1-0.9-1.5-1.4c-2.1-2-4.1-4.1-5.9-6.5
			c6.7,5.1,14.6,8.4,23,9.6l0,0c1.7,0.2,3.3,0.4,5,0.5c0.7,0,1.4,0,2,0c7.9,0,15.6-1.8,22.7-5.4l1.5-0.8l0,0
			C83.7,92.7,89.6,87.4,94,81l0.7-1c3.9-5.9,6.4-12.6,7.5-19.5c0.1-0.3,0.1-0.7,0.2-1c1.7-13-1.7-26.2-9.7-36.7
			C105.1,32.2,112.4,46.9,112.4,62.5z"/>
	</g>
</g>
</svg>
