<?xml version="1.0" encoding="utf-8"?>
<!-- Generator: Adobe Illustrator 24.3.0, SVG Export Plug-In . SVG Version: 6.00 Build 0)  -->
<svg version="1.1" id="Layer_1" xmlns="http://www.w3.org/2000/svg" xmlns:xlink="http://www.w3.org/1999/xlink" x="0px" y="0px"
	 viewBox="0 0 126 126" enable-background="new 0 0 126 126" xml:space="preserve">
<g>
	<path fill="#F5A036" d="M112.2,73.3c-5.2-3.4-12.2-7.1-19.2-8.5c-14-2.9-34.9-0.3-34.9-0.3s-2.9,13-8.4,20.7
		c-5.6,7.7-13.9,14.6-17.2,17.1c0.5,0.5,1.1,0.9,1.6,1.3c8.2,5.9,18.3,9.4,29.2,9.4C87.3,113,107.4,96,112.2,73.3z"/>
	<path fill="#F5A036" d="M77.2,90.5c-6.6,9.7-13.4,16.5-21.4,21.9c1.3,0.4,3.6,0.2,4.9,0.5c0.9,0,1.7,0.1,2.6,0.1
		c27.6,0,50-22.4,50-50c0-1.7-0.1-3.4-0.3-5.1l-23.7-0.4C89.3,57.4,86.3,77.1,77.2,90.5z"/>
	<path fill="#F5A036" d="M86.4,107.3c16-8.4,26.8-25.1,26.8-44.3c0-1.8-0.1-3.5-0.3-5.2c-0.6,3.3-3.8,20.4-12,32.5
		C96.1,97.5,91.6,102.8,86.4,107.3z"/>
	<path fill="#F5A036" d="M113.2,63c0-27.6-22.4-50-50-50c-4.9,0-9.7,0.7-14.2,2.1c-0.7,6.5-1,15.7,1.3,23.5
		c4,13.7,16.1,30.9,16.1,30.9s12.8-3.6,22.3-2.3c9.5,1.3,19.5,5.4,23.2,7.1C112.8,70.6,113.2,66.9,113.2,63z"/>
	<path fill="#F5A036" d="M63.3,13c-10.6,0-20.4,3.3-28.5,8.9L48.6,49c0,0,18.7-6.6,34.9-4.9c11.7,1.2,20,3.4,28.6,7.9
		C107,29.7,87.1,13,63.3,13z"/>
	<path fill="#F5A036" d="M63.3,13c-9.6,0-18.5,2.7-26.1,7.4v7.8c0,0,18.7-6.6,34.9-4.9c12.6,1.3,21.3,3.8,30.6,9
		C93.5,20.5,79.2,13,63.3,13z"/>
	<path fill="#F5A036" d="M37.7,19.7C13.9,33.6,5.8,64.2,19.6,88c2.5,4.3,15.2,14.9,18.6,18.1c6-2.6,4.9-7.2,15.4-16.4
		s12.9-20.3,12.9-20.3s-13.1-20.7-15-27.6c-2-6.9-4.8-20.9-3.4-26.7C44.6,16.3,41.1,17.8,37.7,19.7z"/>
	<path fill="#F5A036" d="M19.6,88c5.3,9.2,10.5,14.7,19.5,18.9c8.1-7.3,17.3-13.4,20.4-22.9c0,0-16.5-14.2-23.1-29
		c-4.8-10.7-7.1-19-7.5-28.7C12.1,41.8,7.6,67.4,19.6,88z"/>
	<path fill="#F5A036" d="M19.6,88c5,8.7,11.4,15.2,19.5,18.9l5.7-5.2c0,0-14.1-11.6-20.8-26.4c-5.2-11.6-7.4-20.3-7.6-31
		C10.8,58.2,11.5,73.9,19.6,88z"/>
	<path opacity="0.1" fill="#37393B" d="M63.1,113c27.7,0,50.2-22.5,50.2-50.2c0-7.5-1.7-14.6-4.6-21c-0.1,3.5-0.4,7-1.2,10.4
		c-3.9,18.3-18.6,34.1-36.8,38.6c-7.9,2-16.2,1.9-24.4,1C39.2,91,32,89.4,25.4,86.4c-3.2-1.5-6.2-3.4-8.9-5.7
		c-0.1-0.1-0.3-0.2-0.4-0.4C23.2,99.4,41.5,113,63.1,113z"/>
	<g opacity="0.15">
		<path fill="#37393B" d="M48.1,15.2c0.1,4.7,0.7,9.3,1.6,13.8c0.9,4.5,2,9,3.3,13.5c0.6,2.2,1.5,4.3,2.4,6.4c0.9,2.1,1.9,4.2,3,6.3
			c2.1,4.1,4.4,8.1,6.9,12.1C62,63.8,59.2,60,56.8,56c-2.4-4-4.5-8.3-5.9-12.9c-1.3-4.5-2.4-9.1-2.9-13.8
			C47.5,24.6,47.3,19.8,48.1,15.2z"/>
	</g>
	<g opacity="0.15">
		<path fill="#37393B" d="M28.9,26.3c-0.2,0.3-0.1,0.6-0.1,0.9c0,0.3,0.1,0.6,0.1,1c0.1,0.6,0.2,1.3,0.4,1.9
			c0.3,1.3,0.6,2.5,0.9,3.8c0.6,2.5,1.3,5.1,2.1,7.5c1.5,5,3.1,9.9,5.6,14.4c2.5,4.5,5.5,8.8,8.6,12.9c3.1,4.2,6.5,8.2,9.8,12.3
			c-3.9-3.5-7.6-7.3-11-11.3c-1.7-2-3.4-4.1-4.9-6.2c-1.6-2.1-3-4.4-4.3-6.7c-0.6-1.2-1.3-2.4-1.8-3.6c-0.5-1.2-1-2.5-1.5-3.7
			c-0.9-2.5-1.6-5.1-2.2-7.6c-0.6-2.6-1.1-5.2-1.4-7.8c-0.2-1.3-0.3-2.6-0.4-3.9c0-0.7-0.1-1.3-0.1-2c0-0.3,0-0.7,0-1
			C28.8,26.9,28.7,26.5,28.9,26.3z"/>
	</g>
	<g opacity="0.15">
		<path fill="#37393B" d="M16.8,46.5c-0.2,0.3-0.1,0.6-0.1,1c0,0.3,0.1,0.7,0.1,1c0.1,0.6,0.2,1.3,0.3,1.9c0.2,1.3,0.5,2.6,0.8,3.9
			c0.6,2.6,1.2,5.1,1.9,7.6c1.4,5,2.9,10,5.3,14.6c2.5,4.5,5.5,8.8,8.8,12.9c3.2,4.1,6.7,8.1,10.2,12.1c-4.1-3.4-7.8-7.1-11.4-11.1
			c-1.8-2-3.5-4-5-6.2c-1.6-2.1-3.1-4.4-4.4-6.7c-0.6-1.2-1.3-2.4-1.8-3.6c-0.5-1.2-1-2.5-1.4-3.8c-0.9-2.5-1.5-5.1-2.1-7.7
			c-0.5-2.6-1-5.2-1.3-7.9c-0.2-1.3-0.3-2.6-0.3-4c0-0.7,0-1.3,0-2c0-0.3,0-0.7,0-1C16.5,47.2,16.5,46.8,16.8,46.5z"/>
	</g>
	<g opacity="0.15">
		<path fill="#37393B" d="M52.1,24.3c4.1-1.4,8.4-2,12.6-2.2c4.3-0.2,8.6,0,12.9,0.7c4.3,0.7,8.4,1.7,12.5,3c2,0.7,4,1.5,6,2.4
			c1.9,1,3.9,2,5.5,3.4c-1.9-1-3.9-1.8-5.9-2.4c-2-0.7-4-1.2-6.1-1.8c-2-0.5-4.1-1-6.2-1.4c-2.1-0.4-4.1-0.8-6.2-1.1
			c-4.1-0.7-8.3-1-12.5-1.1C60.6,23.7,56.3,23.8,52.1,24.3z"/>
	</g>
	<g opacity="0.15">
		<path fill="#37393B" d="M61.7,45.2c4.1-1.4,8.4-2,12.6-2.2c4.3-0.2,8.6,0,12.9,0.7c4.3,0.7,8.4,1.7,12.5,3c2,0.7,4,1.5,6,2.4
			c1.9,1,3.9,2,5.5,3.4c-1.9-1-3.9-1.8-5.9-2.4c-2-0.7-4-1.2-6.1-1.8c-2-0.5-4.1-1-6.2-1.4c-2.1-0.4-4.1-0.8-6.2-1.1
			c-4.1-0.7-8.3-1-12.5-1.1C70.1,44.6,65.9,44.7,61.7,45.2z"/>
	</g>
	<g opacity="0.15">
		<path fill="#37393B" d="M68.2,68.5c3.3-1.9,7.2-2.8,11-3.1c1-0.1,1.9-0.1,2.9-0.2c1,0,1.9,0,2.9,0.1c1.9,0.1,3.9,0.3,5.7,0.7
			c3.8,0.7,7.5,1.6,11.1,2.9c3.6,1.3,7.1,2.9,10.1,5.3c-3.4-1.7-7-2.9-10.6-3.9c-3.6-1-7.3-1.7-11-2.3c-3.7-0.6-7.4-0.9-11.1-0.8
			C75.6,67.3,71.9,67.6,68.2,68.5z"/>
	</g>
	<g opacity="0.15">
		<path fill="#37393B" d="M87.5,106c4.1-4.9,8.1-9.8,11.7-15c1.8-2.6,3.5-5.2,5.1-7.9c1.6-2.7,2.9-5.6,4.2-8.5
			c-0.4,3.2-1.4,6.3-2.7,9.3c-1.3,2.9-3,5.8-4.8,8.4c-1.9,2.6-3.9,5.1-6.2,7.4C92.6,102,90.2,104.2,87.5,106z"/>
	</g>
	<g opacity="0.15">
		<path fill="#37393B" d="M58.1,109.8c3.3-2.6,6.4-5.5,9.3-8.5c2.9-3,5.5-6.3,7.9-9.7c2.4-3.4,4.5-7,6.3-10.8
			c1.9-3.7,3.3-7.7,4.7-11.7c-0.6,4.2-1.5,8.4-3.2,12.4c-0.7,2-1.8,3.9-2.7,5.8c-0.5,0.9-1.1,1.8-1.6,2.8c-0.3,0.5-0.6,0.9-0.8,1.4
			l-0.9,1.3c-1.2,1.8-2.6,3.4-4,5.1l-2.2,2.3c-0.7,0.8-1.5,1.5-2.3,2.2C65.4,105.3,62,107.9,58.1,109.8z"/>
	</g>
	<g opacity="0.15">
		<path fill="#37393B" d="M39.1,106.9c5.4-5.7,10.6-11.5,15.2-17.7c2.4-3.1,4.5-6.3,6.6-9.6c2.1-3.3,3.8-6.7,5.6-10.3
			c-0.9,3.8-2.3,7.6-4.1,11.1c-1.8,3.5-3.9,6.9-6.3,10c-2.4,3.1-5,6.1-7.8,8.9C45.4,102.2,42.4,104.8,39.1,106.9z"/>
	</g>
	<path opacity="0.25" fill="#FFFFFF" d="M35,23.8c-1.2,0.8-2.4,1.7-2.9,3.1c-0.4,1.1-0.2,2.4,0,3.6c1.8,9.8,5.5,19.4,11,27.8
		c1,1.5,2.3,3.2,4.2,3.4c0.6-1,0.6-2.3,0.5-3.5C47,49.7,44.2,41.3,45,32.9c0.3-2.8,3.4-11.4,0.7-13.4C43.1,17.6,37,22.4,35,23.8z"/>
	<path opacity="0.25" fill="#FFFFFF" d="M19.7,52.8C20.5,60,24,66.6,27.4,73c0.8,1.4,1.5,2.9,2.3,4.3c1,1.9,2,3.8,3.5,5.3
		c1.5,1.5,3.6,2.6,5.7,2.4c0.8-0.1,1.6-0.3,2.1-0.9c1.2-1.2,0.8-3.2,0.3-4.7C39.5,74,36.6,69.2,34.3,64c-2.4-5.6-4-11.6-4.7-17.6
		c-0.3-2.7-0.4-15-6.1-10.1C19.7,39.7,19.2,48.1,19.7,52.8z"/>
	<path opacity="0.25" fill="#FFFFFF" d="M53.5,22.5c1.3,0,2.5-0.5,3.8-0.8c3.9-0.9,8.1,0.1,12.1-0.9c1.3-0.3,2.5-0.8,3.4-1.8
		c0.9-1,1.3-2.4,0.7-3.6c-0.7-1.5-2.7-1.9-4.3-2c-3-0.2-6,0-8.9,0.4c-2.4,0.3-5.6,0.3-7.9,1.2C48.7,16.4,49.4,22.5,53.5,22.5z"/>
	<path opacity="0.25" fill="#FFFFFF" d="M55.8,42.2c0.3,0.6,0.7,1.3,1.4,1.4c0.4,0.1,0.8-0.1,1.2-0.2C65,41,72.4,42.8,79.1,41
		c1.6-0.4,3.4-1.2,4-2.8c0.6-1.6-0.1-3.4-1.2-4.8c-2.9-3.6-7.6-5.1-12.1-6.3c-3-0.8-6.1-1.5-9.2-1.9c-1.7-0.2-6.9-1.1-8,0.6
		c-0.4,0.7-0.1,2.4-0.1,3.2c0.1,1.5,0.2,3,0.5,4.5C53.6,36.5,54.5,39.5,55.8,42.2z"/>
	<path opacity="0.25" fill="#FFFFFF" d="M66.6,62.7c0.4,0.5,0.9,1.1,1.5,1.4c1.6,0.9,3.5,0,5.3-0.5c4.9-1.5,10.3-0.5,15-2.5
		c1.5-0.6,3-1.7,3.6-3.3c0.4-1,0.2-2.2-0.1-3.2c-1.4-4-6.1-5.7-10.3-6.6c-4.5-0.9-16.9-3.6-20.7,0.2C57.5,51.6,64.5,60.1,66.6,62.7z
		"/>
</g>
</svg>
