<?xml version="1.0" encoding="utf-8"?>
<!-- Generator: Adobe Illustrator 24.3.0, SVG Export Plug-In . SVG Version: 6.00 Build 0)  -->
<svg version="1.1" id="Layer_1" xmlns="http://www.w3.org/2000/svg" xmlns:xlink="http://www.w3.org/1999/xlink" x="0px" y="0px"
	 viewBox="0 0 126 126" enable-background="new 0 0 126 126" xml:space="preserve">
<g>
	<g>
		<path fill="#AEC7E0" d="M45.2,67c-2.7,1.1-6.6-1.6-9.1,0c-2.5,1.6-3.6,7.4-5.8,9.4c2.3,7.6,6.7,16.7,13.9,22.9
			c5.4,4.7,12.8,7,19.2,9.6l2.1-7l-2.1-10.1c-3.5-2.7-5.8-7.3-8.5-10.5C50.5,76.3,46.4,72.4,45.2,67L45.2,67z"/>
		<path fill="#E0F2FD" d="M14.3,51.5C13.5,55.2,13,59,13,63c0,2.4,0.2,4.8,0.5,7.1c8.3-14.2,32.4-19.6,49.9-19l5.1-15l-5.1-15.9
			C46.2,20.1,23.6,37.9,14.3,51.5z"/>
		<g>
			<path fill="#9AB9D9" d="M84.9,18.1c-6.2-3-13.2-4.8-20.5-5c2.5,4.6,2.4,44.8-1,50.4c1.6,2.7,3.5,9.7,5.5,12
				c2.1,2.4,4.4,0.1,6.8,2C94.9,65.3,92.7,34.9,84.9,18.1L84.9,18.1z"/>
			<path fill="#9AB9D9" d="M113,63c0-12.4-4.5-23.8-12-32.5c6.1,16.8-3.5,38-10.1,55c2.5,0.8,3.1,4,5.7,4.4c2.6,0.4,7.2-2.1,9.9-2.1
				C110.6,80.5,113,72,113,63z"/>
		</g>
		<g>
			<path fill="#CFE5F7" d="M63,13c-23.6,0-43.4,16.4-48.7,38.5c9.2-13.5,31.9-24.7,49-24.6l1.3-6.1L63.4,13C63.3,13,63.1,13,63,13z"
				/>
		</g>
		<g>
			<path fill="#E0F2FD" d="M30.3,76.4c-1.9,1.8-5.4,0.1-7,2.2c-1.7,2.2-1.5,8.1-2.9,10.6C29.3,103.5,45,113,63,113
				c0.1,0,0.3,0,0.4,0l0.7-1.4l-0.7-2.7C48.7,102.9,34.3,89.7,30.3,76.4L30.3,76.4z"/>
			<path fill="#E0F2FD" d="M45.2,67c2,8.7,9.2,17.8,18.2,24.8l1.8-13.5l-1.8-15c-2.7,0-6.5-3.7-9.1-3.2C50.8,60.8,48.4,65.7,45.2,67
				L45.2,67z"/>
		</g>
		<g>
			<path fill="#9AB9D9" d="M91.4,104.1c-4.8-0.4-6.8-7.1-11.9-9.4c-4.5-2.1-12,0.3-16.1-2.8v17.1c1.7,0.7,2,2.4,3.7,2.9
				c1.7,0.5,4.9-0.3,6.6,0C80.1,110.4,86.1,107.8,91.4,104.1L91.4,104.1z"/>
			<path fill="#C9E2F7" d="M73.7,111.8c-3.4-0.5-6.8-1.5-10.3-2.9v4.1C66.9,113,70.4,112.6,73.7,111.8z"/>
		</g>
		<path fill="#BDDBF4" d="M64.4,13c-0.3,0-0.7,0-1,0v13.8c2.2,0,4.4,0.2,6.4,0.6C68.7,22.4,66.9,17.6,64.4,13z"/>
		<path fill="#C9E2F7" d="M69.7,27.4c-2-0.4-4.1-0.6-6.4-0.6v17.6c2.4,0.1,4.6,0.4,6.7,1C71,39.4,70.9,33.3,69.7,27.4z"/>
		<path fill="#BDDBF4" d="M101,30.5c-4.4-5.2-9.9-9.4-16.1-12.4c7.8,16.8,3.5,47.7-9.2,59.4c2.3,1.8,3.6,7.8,6.2,9.2
			c2.5,1.3,6.2-2,9-1.1C102.8,73.3,107.1,47.3,101,30.5L101,30.5z"/>
		<path fill="#C9E2F7" d="M63.4,63.4v28.5c8.7,6.7,19,11.5,28,12.3c6.2-4.3,11.3-9.9,15-16.4C88.7,88,72.5,78.8,63.4,63.4L63.4,63.4
			z"/>
		<path fill="#CFE5F7" d="M13.5,70.1c1,6.9,3.4,13.4,6.9,19.1C29,73.3,45.2,63.7,63.4,63.4l1.8-9.5l-1.8-9.5
			C45.9,43.8,21.8,55.9,13.5,70.1L13.5,70.1z"/>
		<path fill="#BDDBF4" d="M63.4,44.4v19c3.4-5.6,5.7-11.8,6.7-18C68,44.8,65.8,44.5,63.4,44.4L63.4,44.4z"/>
	</g>
</g>
</svg>
