<?xml version="1.0" encoding="utf-8"?>
<!-- Generator: Adobe Illustrator 24.3.0, SVG Export Plug-In . SVG Version: 6.00 Build 0)  -->
<svg version="1.1" id="Layer_1" xmlns="http://www.w3.org/2000/svg" xmlns:xlink="http://www.w3.org/1999/xlink" x="0px" y="0px"
	 viewBox="0 0 126 126" enable-background="new 0 0 126 126" xml:space="preserve">
<g>
	<g>
		<ellipse transform="matrix(0.2298 -0.9732 0.9732 0.2298 -12.7891 109.8402)" fill="#EBEBEB" cx="63" cy="63" rx="50" ry="50"/>
	</g>
	<g>
		<path fill="#ECD210" d="M97.1,26.4L86.7,29L63.1,55.9c0,0-6,15.6-0.1,31.3c7.5,20.1,19,21.9,19.2,22C100.3,101.7,113,83.8,113,63
			C113,48.6,106.9,35.6,97.1,26.4z"/>
	</g>
	<g>
		<path fill="#ECD210" d="M44.3,34.5L28.7,39c0,0-8.1,9.5-6.5,32.7c1.8,26.7,14.5,33.7,15.2,34.2c6.8,4.1,14.6,6.6,23,7
			c-0.9-1.3-13.1-10.1-17.2-35.8c-3.5-22,7.3-38,7.3-38L44.3,34.5z"/>
	</g>
	<g>
		<path fill="#3D5EA8" d="M97.8,66.2c13.5-10.3,12.8-18.4,12.9-18.5c0,0,0,0,0,0c0,0-1.3-4.8-4.6-10.2c-2.1-3.5-4.6-6.8-7.5-9.7
			L75.8,41.4L63.1,55.9c0,0-4.3,8.4-2.2,23.3C60.9,79.3,80.7,79.3,97.8,66.2z"/>
	</g>
	<g>
		<path fill="#3D5EA8" d="M63.1,13C43.2,13,26,24.7,17.9,41.6c0.1,0,10.6-5.4,27.1-0.9c12.8,3.5,18.1,15.2,18.1,15.2
			s18-0.7,27.8-9.4c10.9-9.7,8.5-17.8,8.5-17.9C90.3,19,77.4,13,63.1,13z"/>
	</g>
	<g>
		<path fill="#ECD210" d="M71.5,18.9c-8.3-3.8-18.4-4.5-19.5-4.6c-8.3,1.9-15.9,5.9-22.1,11.3c2.5-0.5,16.1-3.4,30.4,3.7
			C74.1,36.1,81.6,52,81.6,52l0,0c3.4-1.3,6.7-3.1,9.4-5.5c2.7-2.4,4.6-4.7,5.9-6.8C96.8,39.8,84.8,24.9,71.5,18.9z"/>
	</g>
	<g>
		<path fill="#3D5EA8" d="M94.2,90.5c-10.9,6.2-25.6,7.7-25.6,7.7l1.9,2.6c6,7.4,11.6,8.4,11.7,8.4c13.3-5.5,26.2-18.8,29.3-34
			C111.5,75.3,107.6,82.8,94.2,90.5z"/>
	</g>
	<g opacity="0.32">
		<path fill="#264889" d="M88.9,20.2c7.3,8.7,11.7,19.9,11.7,32.1c0,27.6-22.4,50-50,50c-9.5,0-18.4-2.7-26-7.3
			c9.2,10.9,22.9,17.9,38.3,17.9c27.6,0,50-22.4,50-50C112.9,44.8,103.3,28.9,88.9,20.2z"/>
	</g>
	<g opacity="0.55">
		<path fill="#FFFFFF" d="M28.8,32.1c-5.3,6.3-8.5,14.6-7.8,22.9c0.4,4.4,2,8.9,5.3,11.8c3.3,2.9,8.5,3.9,12.3,1.5
			c2.2-1.4,3.7-3.8,4.9-6.2c2.4-4.7,4.1-9.8,7.4-13.9c4.9-6,12.7-9.2,17.4-15.4c1.9-2.6,3.2-6.1,1.8-9.1c-2.8-5.9-15.2-6.1-20.6-5.1
			C41.8,20.2,33.7,26.3,28.8,32.1z"/>
	</g>
</g>
</svg>
