<?xml version="1.0" encoding="utf-8"?>
<!-- Generator: Adobe Illustrator 24.3.0, SVG Export Plug-In . SVG Version: 6.00 Build 0)  -->
<svg version="1.1" id="Layer_1" xmlns="http://www.w3.org/2000/svg" xmlns:xlink="http://www.w3.org/1999/xlink" x="0px" y="0px"
	 viewBox="0 0 126 126" enable-background="new 0 0 126 126" xml:space="preserve">
<g>
	<path fill="#37474F" d="M89.2,68.8c-1.5,1.9-4,2.6-6.3,1.8c-0.6-0.2-1.1-0.5-1.5-0.9L75.9,65c-0.6-0.5-1.2-1.2-1.6-1.9l-5.1-8.8
		l-2.2,3l-7.4,10.2c-1.1,1.5-0.9,3.6,0.6,4.9L71.6,82c3.3,2.8,4.1,7.6,2,11.3l-8.8,15.3c-1.3,2.3-4.2,3.3-6.6,2.3
		c-0.3-0.1-0.7-0.3-1-0.5c-2.4-1.7-3.1-5-1.6-7.5L62,91.8c0.9-1.5,0.5-3.4-0.8-4.6L46.6,74.9c-3.9-3.3-5-8.9-2.5-13.4l10-18.1
		c2.3-4.2,7.6-5.9,11.9-3.7l6.9,3.4c2.2,1.1,4,2.8,5.3,5l4.8,8.3c0.3,0.5,0.7,1,1.2,1.4l4.1,3.5C90.4,63.1,90.8,66.4,89.2,68.8z"/>
	<path fill="#617D8A" d="M85.2,68.8c-0.6,0.8-1.4,1.4-2.3,1.8c-0.6-0.2-1.1-0.5-1.5-0.9L75.9,65c-0.6-0.5-1.2-1.2-1.6-1.9l-5.1-8.8
		l-2.2,3l-1.7-3l-9.6,13.1c-1.1,1.5-0.9,3.7,0.6,4.9L67.7,82c3.3,2.8,4.1,7.6,2,11.3l-8.8,15.3c-0.6,1.1-1.6,1.9-2.7,2.3
		c-0.3-0.1-0.7-0.3-1-0.5c-2.4-1.7-3.1-5-1.6-7.5L62,91.8c0.9-1.5,0.5-3.4-0.8-4.6L46.6,74.9c-3.9-3.3-5-8.9-2.5-13.4l10-18.1
		c1.2-2.3,3.4-3.9,5.9-4.4c0.7,0.2,1.4,0.4,2.1,0.7l6.9,3.4c2.2,1.1,4,2.8,5.3,5l4.8,8.3c0.3,0.5,0.7,1,1.2,1.4l4.1,3.5
		C86.5,63.1,86.9,66.4,85.2,68.8z"/>
	<path fill="#622E87" d="M83.8,27.5c-0.2,0.2-0.5,0.3-0.8,0.4C82.7,28,82.4,28,82,28h-4.8c0.3,0,0.7,0,1-0.2
		c0.3-0.1,0.5-0.2,0.8-0.4c1.1-0.7,1.7-2.1,1.4-3.4c-0.7-3.6-3-8.5-10.7-9.3c0.8-0.1,1.6-0.1,2.4-0.1c9.6,0,12.4,5.5,13.1,9.4
		C85.5,25.4,84.9,26.8,83.8,27.5z"/>
	<path fill="#833E8F" d="M79,27.5c-0.2,0.2-0.5,0.3-0.8,0.4c-0.3,0.1-0.7,0.2-1,0.2h-3.4c-1.9,0-3.4,1.5-3.4,3.4
		c0,0.9-0.3,1.7-1,2.4c-0.6,0.6-1.5,1-2.4,1h-4.1c-0.1,0-0.2,0-0.4,0c-0.2,0-0.4-0.1-0.6-0.1c-1.2-0.3-2.1-1.3-2.3-2.6
		c-1-5.1-1.7-16,10-17.2c7.6,0.8,10,5.7,10.7,9.3C80.7,25.4,80.1,26.8,79,27.5z"/>
	<path fill="#2A388C" d="M43,36.1c-0.5-0.2-1-0.2-1.5-0.2c-0.7,0-1.4,0.1-2,0.4c-1.3,0.5-2.4,1.7-2.8,3.1l-5,15.9
		c-0.3,0.9-1.2,1.4-2.1,1.1l-3.2-1c-0.8-0.3-1.8-0.2-2.5,0.2c-0.8,0.4-1.4,1.1-1.6,2l-1,3.2c-0.5,1.8,0.4,3.6,2.2,4.2l3.2,1
		c0.9,0.3,1.4,1.2,1.1,2.1l-0.5,1.6c-0.1,0.4-0.1,0.9,0.1,1.3c0.2,0.4,0.6,0.7,1,0.8l2.1,0.7l4.2,1.3c0.2,0.1,0.3,0.1,0.5,0.1
		c0.7,0,1.4-0.5,1.6-1.2l9.5-30.2C47.1,39.7,45.7,36.9,43,36.1z"/>
	<path fill="#40539F" d="M39.6,36.3c-1.3,0.5-2.4,1.7-2.8,3.1l-5,15.9c-0.3,0.9-1.2,1.4-2.1,1.1l-3.2-1c-0.8-0.3-1.8-0.2-2.5,0.2
		c-0.8,0.4-1.4,1.1-1.6,2l-1,3.2c-0.5,1.8,0.4,3.6,2.2,4.2l3.2,1c0.9,0.3,1.4,1.2,1.1,2.1l-0.5,1.6c-0.1,0.4-0.1,0.9,0.1,1.3
		c0.2,0.4,0.6,0.7,1,0.8l2.1,0.7c0.3-0.2,0.6-0.5,0.7-0.9l9.5-30.2C41.2,39.5,40.8,37.6,39.6,36.3z"/>
	<path fill="#37474F" d="M32.6,81.6c-0.2,0-0.3,0-0.5-0.1l-6.4-2c-0.9-0.3-1.4-1.2-1.1-2.1l2.5-7.9c0.3-0.9,1.2-1.4,2.1-1.1l6.4,2
		c0.9,0.3,1.4,1.2,1.1,2.1l-2.5,7.9C34,81.2,33.4,81.6,32.6,81.6z"/>
	<path fill="#2A388C" d="M66.7,105.3l-2,3.4c-0.7,1.3-2,2.2-3.4,2.5c-1.4,0.3-3,0.1-4.2-0.7c-0.4-0.3-0.8-0.6-1.1-1h0
		c-1.5-1.9-1.6-4.4-0.4-6.5l1.5-2.6l6.9,3.5L66.7,105.3z"/>
	<path fill="#40539F" d="M63.9,103.9l-1.8,3.1c-1.2,2.2-3.8,3.2-6.2,2.5h0c-1.5-1.9-1.6-4.4-0.4-6.5l1.5-2.6L63.9,103.9z"/>
	<path fill="#C42828" d="M89.2,68.8c-1.4,1.9-4,2.6-6.2,1.8c0.6-0.3,1.1-0.8,1.5-1.4c1.7-2.4,1.2-5.7-1-7.6l-4.1-3.5
		c-0.5-0.4-0.9-0.9-1.2-1.4l-4.8-8.3c-1.2-2.1-3.1-3.9-5.3-4.9l-6.9-3.5c-0.8-0.4-1.6-0.7-2.5-0.8c2.3-0.9,4.9-0.7,7.2,0.4l6.9,3.4
		c2.2,1.1,4,2.8,5.3,5l4.8,8.3c0.3,0.5,0.7,1,1.2,1.4l4.1,3.5C90.4,63.1,90.8,66.4,89.2,68.8z"/>
	<path fill="#E84639" d="M84.5,69.2c-0.4,0.5-0.9,1-1.5,1.4c-0.6-0.2-1.1-0.5-1.6-0.9L75.9,65c-0.6-0.5-1.2-1.2-1.6-1.9l-5.1-8.8
		l-2.7,3.8l-6.9,9.4c-0.5,0.6-0.7,1.4-0.7,2.2L43,64.4c0.2-1,0.6-2,1.1-2.9l10-18.1c1-1.9,2.7-3.3,4.7-4.1c0.9,0.1,1.7,0.4,2.5,0.8
		l6.9,3.5c2.2,1.1,4,2.8,5.3,4.9l4.8,8.3c0.3,0.5,0.7,1,1.2,1.4l4.1,3.5C85.7,63.5,86.2,66.8,84.5,69.2z"/>
	<path fill="#617D8A" d="M88.1,61.2l-1.7-1.4l-8.8,6.6l3.8,3.2c1.1,1,2.6,1.4,4.1,1.3s2.8-0.9,3.7-2.1
		C90.8,66.4,90.4,63.1,88.1,61.2z"/>
	<path fill="#BFA784" d="M83.8,28v1.7c0,6.5-5.2,11.7-11.7,11.8c-0.6,0-1.2,0-1.7-0.1h0c-3.7-0.5-6.9-3-8.2-6.6c0,0,0,0,0,0
		s0-0.1,0-0.1c0.3,0.1,0.6,0.1,0.9,0.1h4.1c0.9,0,1.7-0.3,2.4-1c0.6-0.6,1-1.5,1-2.4c0-1.9,1.5-3.4,3.4-3.4H82c0.3,0,0.7,0,1-0.2
		c0.3-0.1,0.5-0.2,0.8-0.4C83.8,27.7,83.8,27.8,83.8,28z"/>
	<path fill="#FDDFB1" d="M80.5,28v1.7c0,5.9-4.3,10.8-10.1,11.6h0c-3.7-0.5-6.9-3-8.2-6.6h4.9c0.9,0,1.7-0.3,2.4-1
		c0.6-0.6,1-1.5,1-2.4c0-1.9,1.5-3.4,3.4-3.4h4.9c0.3,0,0.7,0,1-0.2c0.3-0.1,0.5-0.2,0.8-0.4C80.5,27.7,80.5,27.8,80.5,28z"/>
	<path d="M60,113c-1.4,0-2.7-0.4-3.8-1.1c-3.2-2.2-4.1-6.4-2.1-9.7L60.5,91c0.5-0.8,0.3-1.8-0.4-2.4L45.5,76.2
		c-4.5-3.8-5.7-10.3-2.8-15.5l10-18.1c2.8-5,9-7,14.1-4.4l6.9,3.4c2.5,1.2,4.6,3.2,6,5.6l4.8,8.2c0.2,0.4,0.5,0.7,0.8,1l4.1,3.5
		c3,2.4,3.5,6.7,1.3,9.9c-1.2,1.5-2.9,2.5-4.9,2.7c-1.9,0.2-3.9-0.4-5.3-1.6l-5.5-4.7c-0.8-0.7-1.4-1.4-1.9-2.3l-3.8-6.5l-8.1,11.1
		c-0.6,0.8-0.5,2,0.3,2.6l11.4,9.7c3.9,3.3,4.9,9,2.3,13.4l-8.8,15.3C64.9,111.7,62.5,113,60,113z M61.9,40.4
		c-2.7,0-5.1,1.5-6.4,3.8l-10,18.1c-2.1,3.8-1.2,8.5,2.1,11.4L62.2,86c1.9,1.6,2.4,4.4,1.1,6.6L57,103.8c-1.1,1.8-0.6,4,1,5.2
		c0.9,0.6,1.9,0.7,2.9,0.5c1-0.2,1.8-0.9,2.4-1.8l8.8-15.3c1.8-3.1,1.1-7-1.6-9.2l-11.4-9.7c-2.1-1.8-2.5-4.9-0.8-7.1l9.6-13.1
		c0.3-0.5,0.9-0.7,1.4-0.7c0.6,0,1.1,0.3,1.4,0.8l5.1,8.8c0.3,0.5,0.7,1,1.2,1.4l5.5,4.7c0.8,0.7,1.8,1,2.8,0.9
		c1-0.1,1.9-0.6,2.6-1.5c1.2-1.7,0.8-4-0.8-5.3L83,59c-0.6-0.5-1.1-1.2-1.5-1.9l-4.8-8.2c-1.1-1.9-2.7-3.4-4.6-4.3l-6.9-3.4
		C64.2,40.7,63.1,40.4,61.9,40.4L61.9,40.4z"/>
	<path d="M67.1,36.4h-4.1c-0.5,0-0.9-0.1-1.4-0.2c-1.8-0.5-3.2-2-3.5-3.9c-0.7-3.6-1.3-10.3,2.4-14.8c2.5-3,6.4-4.5,11.6-4.5
		c11.1,0,14,6.8,14.8,10.8c0.4,2-0.5,4-2.2,5.1c-0.4,0.2-0.8,0.4-1.2,0.6c-0.5,0.1-1,0.2-1.5,0.2h-8.2c-0.9,0-1.7,0.8-1.7,1.7
		C72.1,34.1,69.9,36.4,67.1,36.4z M72.1,16.3c-4.2,0-7.2,1.1-9,3.3c-2.9,3.5-2.3,9-1.7,12.1c0.1,0.6,0.6,1.1,1.2,1.3
		c0.2,0,0.3,0.1,0.5,0.1h4.1c0.4,0,0.9-0.2,1.2-0.5s0.5-0.7,0.5-1.2c0-2.8,2.3-5,5.1-5H82c0.2,0,0.3,0,0.5-0.1
		c0.1,0,0.3-0.1,0.4-0.2l0,0c0.6-0.4,0.8-1,0.7-1.7C82.6,19.1,78.7,16.3,72.1,16.3z"/>
	<path d="M35.2,73.7c-0.2,0-0.3,0-0.5-0.1l-6.4-2c-0.4-0.1-0.8-0.4-1-0.8s-0.2-0.8-0.1-1.3l0.5-1.6c0.1-0.4,0.1-0.9-0.1-1.3
		c-0.2-0.4-0.6-0.7-1-0.8l-3.2-1c-1.8-0.6-2.7-2.4-2.2-4.2l1-3.2c0.6-1.8,2.4-2.7,4.2-2.2l3.2,1c0.4,0.1,0.9,0.1,1.3-0.1
		c0.4-0.2,0.7-0.6,0.8-1l5-15.9c0.9-2.6,3.6-4,6.3-3.2c2.6,0.8,4.1,3.6,3.3,6.2l-9.6,30.2C36.5,73.2,35.9,73.7,35.2,73.7z
		 M30.9,68.9l3.2,1l9-28.6c0.2-0.6,0.1-1.2-0.3-1.7c-0.4-0.5-1-0.6-1.6-0.5c-0.6,0.1-1.1,0.6-1.2,1.2l-5,15.9
		c-0.8,2.6-3.6,4.1-6.3,3.3l-3.2-1l-1,3.2l3.2,1C30.3,63.5,31.7,66.3,30.9,68.9z"/>
	<path d="M35.8,82.6c-0.2,0-0.3,0-0.5-0.1l-12.7-4c-0.6-0.2-1-0.6-1.2-1.2c-0.1-0.6,0.1-1.2,0.5-1.6s1.1-0.5,1.7-0.3l12.7,4
		c0.8,0.2,1.3,1,1.1,1.8C37.4,82,36.7,82.6,35.8,82.6L35.8,82.6z"/>
	<path d="M32.6,81.6c-0.5,0-1-0.3-1.3-0.7s-0.4-1-0.2-1.5l2.5-7.9c0.3-0.8,1.2-1.3,2.1-1c0.9,0.3,1.3,1.2,1.1,2l-2.5,7.9
		C34,81.2,33.4,81.6,32.6,81.6z"/>
	<path d="M26.3,79.6c-0.5,0-1-0.3-1.3-0.7c-0.3-0.4-0.4-1-0.2-1.5l2.5-7.9c0.3-0.9,1.2-1.3,2.1-1c0.9,0.3,1.3,1.2,1.1,2l-2.5,7.9
		C27.7,79.2,27,79.6,26.3,79.6z"/>
	<path d="M44.7,43.5c-0.2,0-0.3,0-0.5-0.1c-0.9-0.3-1.4-1.2-1.1-2.1l7.5-23.8c0.3-0.9,1.2-1.4,2.1-1.1l1.6,0.5
		c0.6,0.2,1,0.6,1.2,1.2s-0.1,1.2-0.5,1.6s-1.1,0.5-1.7,0.3l-7,22.2C46.1,43,45.4,43.5,44.7,43.5z"/>
	<path d="M20.5,99.7c-0.8,0-1.4-0.5-1.6-1.3c-0.2-0.7,0.1-1.5,0.8-1.9l32.5-17.6c0.5-0.3,1.2-0.3,1.7,0s0.8,0.9,0.8,1.5
		c0,0.6-0.3,1.1-0.9,1.4L21.3,99.5C21.1,99.6,20.8,99.7,20.5,99.7z"/>
	<path d="M63.1,76.5c-0.8,0-1.4-0.5-1.6-1.3s0.2-1.5,0.8-1.9l14.8-8.1c0.8-0.4,1.8-0.1,2.3,0.7c0.4,0.8,0.1,1.8-0.7,2.3l-14.8,8.1
		C63.7,76.4,63.4,76.5,63.1,76.5z"/>
	<path d="M88.1,62.9c-0.8,0-1.4-0.5-1.6-1.3c-0.2-0.7,0.2-1.5,0.8-1.9l9-4.9c0.8-0.4,1.8-0.1,2.3,0.7c0.4,0.8,0.1,1.8-0.7,2.3
		l-9,4.9C88.7,62.8,88.4,62.9,88.1,62.9z"/>
	<path d="M30.5,101.3c-0.6,0-1.2-0.4-1.5-0.9l-5-10c-0.4-0.8-0.1-1.8,0.7-2.2c0.8-0.4,1.8-0.1,2.2,0.7l5,10c0.3,0.5,0.2,1.1-0.1,1.6
		C31.6,101,31.1,101.3,30.5,101.3z"/>
	<path d="M60,113c-1.4,0-2.7-0.4-3.8-1.1c-3.2-2.2-4.1-6.4-2.1-9.7l1.5-2.6c0.4-0.8,1.4-1.1,2.2-0.7l9.7,4.8c0.4,0.2,0.7,0.6,0.9,1
		c0.1,0.4,0.1,0.9-0.2,1.3l-2,3.4C64.9,111.7,62.5,113,60,113z M57.7,102.6l-0.7,1.2c-1.1,1.8-0.6,4,1,5.2c0.9,0.6,1.9,0.7,2.9,0.5
		c1-0.2,1.8-0.9,2.4-1.8l1.1-1.9L57.7,102.6z"/>
	<path d="M84.9,72.6c-1.7,0-3.3-0.6-4.6-1.7l-5.5-4.7c-0.8-0.7-1.4-1.4-1.9-2.3l-3.8-6.5l-8.1,11.1c-0.2,0.3-0.4,0.8-0.4,1.2
		c0,0.5-0.2,1.1-0.7,1.4s-1,0.4-1.5,0.2L42.5,66c-0.8-0.3-1.3-1.1-1.1-1.9c0.2-1.2,0.7-2.3,1.2-3.4l10-18.1c2.8-5,9-7,14.1-4.4
		l6.9,3.4c2.5,1.2,4.6,3.2,6,5.6l4.8,8.2c0.2,0.4,0.5,0.7,0.8,1l4.1,3.5c3,2.4,3.5,6.7,1.3,9.9c-1.2,1.5-2.9,2.5-4.9,2.7
		C85.4,72.6,85.1,72.6,84.9,72.6z M69.2,52.7L69.2,52.7c0.7,0,1.2,0.3,1.4,0.8l5.1,8.8c0.3,0.5,0.7,1,1.2,1.4l5.5,4.7
		c0.8,0.7,1.8,1,2.8,0.9s1.9-0.6,2.6-1.5c1.2-1.7,0.8-4-0.8-5.3L83,59c-0.6-0.5-1.1-1.2-1.5-1.9l-4.8-8.2c-1.1-1.9-2.7-3.4-4.6-4.3
		l-6.9-3.4c-3.5-1.8-7.8-0.4-9.7,3l-10,18.1c-0.2,0.3-0.3,0.7-0.5,1l12.6,4.2c0.2-0.4,0.4-0.7,0.6-1l9.6-13.1
		C68.2,52.9,68.7,52.7,69.2,52.7z"/>
	<path d="M84.9,72.6c-1.7,0-3.3-0.6-4.6-1.7l-3.8-3.2c-0.4-0.3-0.6-0.8-0.6-1.3c0-0.5,0.3-1,0.7-1.3l8.8-6.6
		c0.6-0.5,1.5-0.4,2.1,0.1l1.7,1.4c3,2.4,3.5,6.7,1.3,9.9c-1.2,1.6-2.9,2.5-4.9,2.7C85.4,72.6,85.1,72.6,84.9,72.6z M80.3,66.5
		l2.2,1.9c0.8,0.7,1.8,1,2.8,0.9s1.9-0.6,2.6-1.5c1.2-1.7,0.8-4-0.8-5.3l-0.7-0.6L80.3,66.5z"/>
	<path d="M97.2,113H30.5c-0.9,0-1.7-0.7-1.7-1.7c0-0.9,0.7-1.7,1.7-1.7h66.7c3.7,0,6.7-3,6.7-6.7c0-0.9,0.7-1.7,1.7-1.7
		c0.9,0,1.7,0.7,1.7,1.7C107.2,108.5,102.7,113,97.2,113z"/>
	<path d="M72.1,43.1c-5.1,0.1-9.7-3-11.5-7.8c0,0,0-0.1,0-0.1c-0.2-0.6-0.1-1.3,0.3-1.7c0.4-0.5,1.1-0.7,1.7-0.5
		c0.2,0,0.3,0.1,0.5,0.1h4.1c0.4,0,0.9-0.2,1.2-0.5s0.5-0.7,0.5-1.2c0-2.8,2.3-5,5.1-5H82c0.2,0,0.3,0,0.5-0.1
		c0.1,0,0.3-0.1,0.4-0.2c0.5-0.3,1.2-0.4,1.7-0.1c0.5,0.3,0.9,0.9,0.9,1.5c0,0.2,0,0.3,0,0.5v1.7C85.5,37.1,79.5,43.1,72.1,43.1z
		 M65.1,36.4c1.7,2.2,4.3,3.5,7.1,3.4c5.6,0,10.1-4.5,10-10.1h-8.3c-0.9,0-1.7,0.8-1.7,1.7c0,2.8-2.2,5-5,5H65.1z"/>
</g>
</svg>
