<?xml version="1.0" encoding="utf-8"?>
<!-- Generator: Adobe Illustrator 24.3.0, SVG Export Plug-In . SVG Version: 6.00 Build 0)  -->
<svg version="1.1" id="Layer_1" xmlns="http://www.w3.org/2000/svg" xmlns:xlink="http://www.w3.org/1999/xlink" x="0px" y="0px"
	 viewBox="0 0 126 126" enable-background="new 0 0 126 126" xml:space="preserve">
<g>
	<path fill="#4F4F4F" d="M29.9,78.4h2.9v8.8h-2.9V78.4z"/>
	<path fill="#4F4F4F" d="M87.3,78.4h2.9v8.8h-2.9V78.4z"/>
	<path fill="#84CFF4" d="M105.7,94.5H71.8c-0.8,0-1.5-0.7-1.5-1.5s0.7-1.5,1.5-1.5h33.9c2.4,0,4.4-2,4.4-4.4c0-0.8,0.7-1.5,1.5-1.5
		s1.5,0.7,1.5,1.5C113,91.2,109.7,94.5,105.7,94.5z"/>
	<path fill="#84CFF4" d="M48.4,94.5H14.5c-0.8,0-1.5-0.7-1.5-1.5s0.7-1.5,1.5-1.5h33.9c2.4,0,4.4-2,4.4-4.4c0-0.8,0.7-1.5,1.5-1.5
		s1.5,0.7,1.5,1.5C55.7,91.2,52.4,94.5,48.4,94.5z"/>
	<path fill="#58C3F1" d="M60.3,40.3v5.9L51.5,52V34.4L60.3,40.3z"/>
	<path fill="#84CFF4" d="M54.4,34.4V52l-11.7-5.9v-5.9L54.4,34.4z"/>
	<path fill="#353435" d="M60.3,40.3h-5.9l-2.9-8.8C56.3,31.5,60.3,35.4,60.3,40.3z"/>
	<path fill="#4F4F4F" d="M51.5,31.5c1.6,0,2.9,3.9,2.9,8.8H42.7C42.7,35.4,46.6,31.5,51.5,31.5z"/>
	<path fill="#353435" d="M54.4,46.2h5.9c0,4.9-3.9,8.8-8.8,8.8L54.4,46.2z"/>
	<path fill="#4F4F4F" d="M42.7,46.2h11.7c0,4.9-1.3,8.8-2.9,8.8C46.6,54.9,42.7,51,42.7,46.2z"/>
	<path fill="#58C3F1" d="M36.8,40.3v5.9L28,52V34.4L36.8,40.3z"/>
	<path fill="#84CFF4" d="M31,34.4V52l-11.7-5.9v-5.9L31,34.4z"/>
	<path fill="#353435" d="M36.8,40.3H31L28,31.5C32.9,31.5,36.8,35.4,36.8,40.3z"/>
	<path fill="#4F4F4F" d="M28,31.5c1.6,0,2.9,3.9,2.9,8.8H19.2C19.2,35.4,23.2,31.5,28,31.5z"/>
	<path fill="#353435" d="M31,46.2h5.9c0,4.9-3.9,8.8-8.8,8.8L31,46.2z"/>
	<path fill="#4F4F4F" d="M19.2,46.2H31c0,4.9-1.3,8.8-2.9,8.8C23.2,54.9,19.2,51,19.2,46.2z"/>
	<path fill="#F5A457" d="M99.7,68.1l11.8,5.9c0,4-3.3,7.3-7.3,7.3h-4.5V68.1z"/>
	<path fill="#FCCA65" d="M14.5,74l5.9-5.9h79.4l6,5.9c0,4-2.7,7.3-6,7.3H14.5V74z"/>
	<path fill="#CE301B" d="M107,67.2L80,56l25.7,18h5.9C111.5,70.9,109.7,68.3,107,67.2z"/>
	<path fill="#E74532" d="M102,67.2C96.5,64.4,80,56,80,56c-1.6-0.6-3.3-1-5.1-1h-5.9l-54.6,5.9V74h91.2
		C105.7,70.9,104.2,68.3,102,67.2z"/>
	<path fill="#F5A457" d="M14.5,60.8h48.7l5.9-5.9H14.5V60.8z"/>
	<g>
		<path fill="#989898" d="M42.5,88.6H20.3c-0.8,0-1.5-0.7-1.5-1.5s0.7-1.5,1.5-1.5h22.2c0.8,0,1.5,0.7,1.5,1.5S43.3,88.6,42.5,88.6z
			"/>
		<path fill="#989898" d="M99.8,88.6H77.6c-0.8,0-1.5-0.7-1.5-1.5s0.7-1.5,1.5-1.5h22.2c0.8,0,1.5,0.7,1.5,1.5S100.6,88.6,99.8,88.6
			z"/>
	</g>
</g>
</svg>
