<?xml version="1.0" encoding="utf-8"?>
<!-- Generator: Adobe Illustrator 24.3.0, SVG Export Plug-In . SVG Version: 6.00 Build 0)  -->
<svg version="1.1" id="Layer_1" xmlns="http://www.w3.org/2000/svg" xmlns:xlink="http://www.w3.org/1999/xlink" x="0px" y="0px"
	 viewBox="0 0 126 126" enable-background="new 0 0 126 126" xml:space="preserve">
<g>
	<g>
		<path fill="#EBC09B" d="M87.5,71.4c-2.2-2.3-5.5-3.3-7.8-3.6c-0.6-0.2-1.1-0.5-1.2-1.1L76.8,60c-0.2-0.5-0.5-0.9-1.1-1.1
			c-0.5-0.2-1.1,0-1.6,0.3c-3.9,3.6-8.6,5.3-11.1,5.3c-2.7,0-7.3-1.9-11.2-5.5c-0.5-0.3-0.9-0.5-1.6-0.3c-0.5,0.2-0.9,0.6-1.1,1.1
			l-1.7,6.7c-0.2,0.6-0.6,1.1-1.2,1.1c-2.3,0.3-5.6,1.2-7.8,3.6c-0.3,0.5-0.5,0.9-0.3,1.6c0.2,0.5,0.6,0.9,1.1,1.1
			c4.8,1.1,14.4,1.4,18.1,1.4c1.2,0,2.3,0.5,3.3,1.4l1.4,1.2c0.3,0.3,0.6,0.5,1.1,0.5s0.8-0.2,1.1-0.5l1.2-1.2
			c0.9-0.9,2-1.4,3.3-1.4c3.8,0,13.3-0.3,18.1-1.4c0.6-0.2,0.9-0.5,1.1-1.1C88.2,72.5,88,71.9,87.5,71.4z"/>
	</g>
	<g>
		<path fill="#F0CFB4" d="M108.8,100.5c-0.2-0.8-0.5-1.6-0.6-2.3c0.6-1.9,1.1-3.6,1.1-5.5c0-7.7-3.1-14.8-8.1-18.8
			c-4.1-3.3-9.2-4.2-15-3c-4.7,1.1-13.7,1.2-17.5,1.2c-2,0-3.9,0.8-5.3,2.3L63,74.9l-0.2-0.2c-1.4-1.4-3.3-2.2-5.5-2.3
			c-3.7,0-12.8-0.3-17.5-1.2c-5.8-1.4-10.9-0.3-15,3c-5,3.9-8.1,11.1-8.1,18.8c0,1.9,0.3,3.6,1.1,5.5c-0.2,0.5-0.5,1.2-0.6,2.2
			c-1.1,4.7-1.1,10.6-1.1,10.9c0,0.9,0.6,1.6,1.6,1.6h21.9c0.9,0,1.6-0.6,1.6-1.6v-5.6l0.2,0.2c1.4,1.4,3.4,2.3,5.5,2.3h11.6
			c2.2,0,3.4-0.2,4.7-1.7c1.2,1.6,2.7,1.7,4.7,1.7h11.4c2,0,4.1-0.8,5.5-2.3l0.2-0.2v5.6c0,0.9,0.6,1.6,1.6,1.6h21.9
			c0.9,0,1.6-0.6,1.6-1.6C109.9,111.1,109.9,105.2,108.8,100.5z"/>
	</g>
	<g>
		<path fill="#F0CFB4" d="M88,102.1c0-0.6-0.3-1.2-0.9-1.4c-0.6-0.2-1.2-0.2-1.7,0.3l-2.8,2.8c-0.9,0.9-2,1.4-3.3,1.4H67.7
			c-2,0-2.2,0-3.3-2.2c-0.5-1.1-2.2-1.1-2.8,0c-1.1,2.2-1.2,2.2-3.3,2.2H46.9c-1.2,0-2.5-0.5-3.3-1.4l-2.8-2.8
			c-0.5-0.5-1.1-0.6-1.7-0.3c-0.8,0.2-1.1,0.8-1.1,1.4v9.4c0,0.9,0.6,1.6,1.6,1.6h46.9c0.9,0,1.6-0.6,1.6-1.6L88,102.1z"/>
	</g>
	<g>
		<path fill="#78777F" d="M63,13c-12.5,0-23.4,10.2-23.4,21.9v5.3c0,0.5,0.2,0.9,0.6,1.2c0.3,0.3,0.8,0.5,1.2,0.3c0.3,0,0.9,0,2,0.8
			c0.3,0.2,0.8,0.2,1.2,0.2c0.5-0.2,0.8-0.5,0.9-0.8c0.9-1.7,1.7-3,2.7-4.2c1.9-2.5,3.3-4.7,2.3-10.2l0.3-0.3c2,0.5,7,1.4,12,1.4
			c5,0,10-0.9,12-1.4l0.3,0.3C74.4,33,76,35,77.7,37.7c0.8,1.1,1.7,2.3,2.7,4.2c0.2,0.5,0.6,0.6,0.9,0.8h0.5c0.3,0,0.6-0.2,0.9-0.3
			c1.1-0.6,1.7-0.8,2-0.8c0.5,0,0.9,0,1.2-0.3c0.3-0.3,0.6-0.8,0.6-1.2v-5.2C86.4,23.2,75.5,13,63,13z"/>
	</g>
	<g>
		<path fill="#F0CFB4" d="M84.6,38.5c-1.1,0-2,0.5-2.2,0.5c-2.5-4.4-4.2-5-4.2-8.3c0-0.9,0.2-1.9,0.3-3.3c0-0.2,0-0.2,0-0.3
			c0-0.5-0.2-0.8-0.5-1.1c-1.1-1.2-1.4-2-2.5-2c-0.2,0-0.3,0-0.3,0c-3.6,0.9-8.1,1.6-12.2,1.6c-3.9,0-8.4-0.6-12.2-1.6
			c-0.2,0-0.3,0-0.3,0c-1.1,0-1.4,0.8-2.7,2c-0.3,0.3-0.5,0.6-0.5,1.1v0.3c0.3,1.4,0.3,2.5,0.3,3.3c0,3.3-1.6,3.9-4.2,8.3
			c-0.6-0.3-1.2-0.5-2.2-0.5c-1.7,0-3.3,1.4-3.3,4.2c0,3.1,1.9,6.9,5,7.7c1.7,9.4,12.3,17.2,20,17.3c7.3-0.2,18.1-7.7,20-17.3
			c3.1-0.8,4.8-4.5,5-7.7C88,39.9,86.4,38.5,84.6,38.5z"/>
	</g>
	<g>
		<path fill="#213462" d="M108.8,100.5c-0.2-0.8-0.5-1.6-0.6-2.3c0.8-1.9,1.1-3.6,1.1-5.5c0-7.7-3.1-14.8-8.1-18.8
			c-3.9-3.1-8.8-4.2-14.2-3.1c-2.2-1.9-5-2.7-7.2-3c-0.6-0.2-1.1-0.6-1.2-1.1L77.1,61c3-2.8,5.2-6.4,5.9-10.6
			c2.7-0.8,4.4-3.6,4.8-6.4c0.2-0.8,0.2-1.6,0-2.5c-0.2-1.1-0.6-1.7-1.4-2.3v-4.2C86.4,23.2,75.5,13,63,13S39.6,23.2,39.6,34.9v4.2
			c-0.8,0.6-1.2,1.2-1.4,2.3c-0.2,0.9-0.2,1.7,0,2.5c0.5,2.8,2.2,5.6,4.8,6.4c0.8,4.1,3.1,7.7,5.9,10.5l-1.4,5.9
			c-0.2,0.6-0.6,1.1-1.2,1.1c-2.2,0.3-5,1.1-7.2,3c-5.3-1.1-10.3,0-14.2,3.1c-5,3.9-8.1,11.1-8.1,18.8c0,1.9,0.3,3.8,1.1,5.5
			c-0.2,0.8-0.5,1.6-0.6,2.3c-1.1,4.7-1.1,10.6-1.1,10.9c0,0.9,0.6,1.6,1.6,1.6c0.9,0,1.6-0.6,1.6-1.6c0,0,0-5,0.8-9.2
			c0.9,1.4,2,2.8,3.4,4.1c0.6,0.6,1.6,0.6,2.2,0c0.6-0.6,0.6-1.6,0-2.2c-3.9-3.9-5.8-7.7-5.8-11.4c0-6.7,2.7-13,6.9-16.2
			c3.4-2.7,7.5-3.4,12.3-2.3c4.7,1.1,13.3,1.2,18.1,1.4c2.7,0,3.8,2,4.5,2.7c0.3,0.3,0.8,0.5,1.1,0.5s0.8-0.2,1.1-0.5
			c0.9-0.6,1.9-2.7,4.5-2.7c4.7,0,13.4-0.3,18.1-1.4c4.8-1.1,8.9-0.3,12.3,2.3c4.2,3.4,6.9,9.7,6.9,16.2c0,3.8-1.9,7.5-5.8,11.4
			c-0.6,0.6-0.6,1.6,0,2.2c0.6,0.6,1.6,0.6,2.2,0c1.4-1.4,2.5-2.8,3.4-4.1c1.1,4.2,1.1,9.2,1.1,9.2c0,0.9,0.6,1.6,1.6,1.6
			s1.6-0.6,1.6-1.6C109.9,111.1,109.9,105.2,108.8,100.5z M84.9,43.5c-0.2,1.1-0.6,2.3-1.6,3.1v-4.5c0.3-0.2,1.1-0.5,1.4-0.3
			C84.9,42.2,84.9,42.8,84.9,43.5z M63,16.1c10.8,0,20.3,8.8,20.3,18.8v3.9c-0.5,0.2-0.3,0-0.9,0.3c-3-5.2-5.2-5.2-3.8-11.7
			c0.2-0.5,0-1.1-0.5-1.4l-1.6-1.6c-0.3-0.5-0.9-0.6-1.4-0.5c0,0-6.1,1.6-12.2,1.6c-5.9,0-12-1.6-12.2-1.6c-0.5-0.2-1.1,0-1.4,0.5
			L47.8,26c-0.3,0.3-0.5,0.9-0.5,1.4c1.2,6.4-0.8,6.6-3.8,11.7c-0.6-0.3-0.3-0.2-0.9-0.3v-3.9C42.7,24.9,52.2,16.1,63,16.1z
			 M41.1,43.5C41,43,41,42.2,41.3,41.8c0.3-0.2,1.1,0.2,1.4,0.3v4.5C41.9,45.8,41.4,44.6,41.1,43.5z M45.8,47.4v-5.8
			c2.8-5.5,6.1-6.4,4.8-13.9l0.3-0.3c2,0.3,7,1.2,12,1.2s10-0.9,12-1.4l0.3,0.3c-1.2,7.7,2,8.4,4.8,13.9v5.9
			c0,9.7-11.4,17.2-17.2,17.2C58,64.6,45.8,57.7,45.8,47.4z M68.6,72.4c-3.6,0-5.5,2.3-5.6,2.5c-0.2-0.2-2-2.5-5.6-2.5
			c-2.8,0-8.8-0.2-13.4-0.8c1.1-0.3,2-0.6,2.7-0.6c1.9-0.3,3.4-1.7,3.9-3.4l1.1-4.4c3.9,3,8.3,4.7,11.4,4.7c3.1,0,7.5-1.7,11.4-4.5
			l1.1,4.4c0.5,1.9,2,3.3,3.9,3.4c0.8,0.2,1.7,0.3,2.7,0.6C77.4,72.2,71.4,72.4,68.6,72.4z"/>
		<path fill="#213462" d="M88.9,106.6c0.8,0.3,1.7,0,2-0.6c0.5-0.8,0.2-1.7-0.6-2c-3.4-1.9-4.5-8.4-3.9-14.1
			c0.2-0.8-0.5-1.6-1.4-1.7c-0.8-0.2-1.6,0.5-1.7,1.4c-0.8,5.6,0.2,9.5,1.4,12.2l-2.2,2.2c-0.9,0.9-2,1.4-3.3,1.4H67.7
			c-1.9,0-2.2,0-3.1-1.9V92.7c0-0.9-0.6-1.6-1.6-1.6s-1.6,0.6-1.6,1.6v10.6c-0.9,1.9-1.1,1.9-3.1,1.9H46.9c-1.2,0-2.5-0.5-3.3-1.4
			l-2.2-2.2c1.2-2.7,2-6.6,1.4-12.2c-0.2-0.8-0.9-1.4-1.7-1.4c-0.8,0.2-1.4,0.9-1.4,1.7c0.8,5.8-0.6,12.2-3.9,14.1
			c-0.8,0.3-1.1,1.2-0.6,2c0.3,0.8,1.4,1.1,2,0.6c0,0,0.5-0.2,0.9-0.6v5.6c0,0.9,0.6,1.6,1.6,1.6c0.9,0,1.6-0.6,1.6-1.6v-5.6
			c0.2,0.2,2,2.5,5.8,2.5h11.2c2.2,0,3.4-0.2,4.7-1.7c1.2,1.6,2.7,1.7,4.7,1.7h11.4c3.6,0,5.6-2.3,5.8-2.5v5.6
			c0,0.9,0.6,1.6,1.6,1.6c0.9,0,1.6-0.6,1.6-1.6V106C88.5,106.4,88.8,106.6,88.9,106.6z"/>
		<path fill="#213462" d="M63,88c0.9,0,1.6-0.6,1.6-1.6v-3.1c0-0.9-0.6-1.6-1.6-1.6c-0.9,0-1.6,0.6-1.6,1.6v3.1
			C61.4,87.4,62.1,88,63,88z"/>
	</g>
</g>
</svg>
