<?xml version="1.0" encoding="utf-8"?>
<!-- Generator: Adobe Illustrator 24.3.0, SVG Export Plug-In . SVG Version: 6.00 Build 0)  -->
<svg version="1.1" id="Layer_1" xmlns="http://www.w3.org/2000/svg" xmlns:xlink="http://www.w3.org/1999/xlink" x="0px" y="0px"
	 viewBox="0 0 126 126" enable-background="new 0 0 126 126" xml:space="preserve">
<g>
	<path fill="#6BC7EC" d="M63,113c-13.4,0-25.9-5.2-35.4-14.6C18.2,88.9,13,76.4,13,63s5.2-25.9,14.6-35.4C37.1,18.2,49.6,13,63,13
		s25.9,5.2,35.4,14.6c9.4,9.4,14.6,22,14.6,35.4s-5.2,25.9-14.6,35.4C88.9,107.8,76.4,113,63,113L63,113z"/>
	<path fill="#448BC9" d="M54,36.1c-2.6,0-4.7-2.1-4.7-4.7s2.1-4.7,4.7-4.7c2.6,0,4.7,2.1,4.7,4.7S56.6,36.1,54,36.1z"/>
	<path fill="#448BC9" d="M63,48.9c-2.6,0-4.7-2.1-4.7-4.7c0-2.6,2.1-4.7,4.7-4.7c2.6,0,4.7,2.1,4.7,4.7C67.7,46.8,65.6,48.9,63,48.9
		z"/>
	<path fill="#32B1E6" d="M98.4,27.6C88.9,18.2,76.4,13,63,13v100c13.4,0,25.9-5.2,35.4-14.6c9.4-9.4,14.6-22,14.6-35.4
		S107.8,37.1,98.4,27.6L98.4,27.6z"/>
	<g>
		<path fill="#0A83C6" d="M63,39.5v9.5c2.6,0,4.7-2.1,4.7-4.7C67.7,41.6,65.6,39.5,63,39.5z"/>
		<path fill="#0A83C6" d="M72,36.1c-2.6,0-4.7-2.1-4.7-4.7s2.1-4.7,4.7-4.7c2.6,0,4.7,2.1,4.7,4.7S74.6,36.1,72,36.1z"/>
	</g>
</g>
</svg>
