<?xml version="1.0" encoding="utf-8"?>
<!-- Generator: Adobe Illustrator 24.3.0, SVG Export Plug-In . SVG Version: 6.00 Build 0)  -->
<svg version="1.1" id="Layer_1" xmlns="http://www.w3.org/2000/svg" xmlns:xlink="http://www.w3.org/1999/xlink" x="0px" y="0px"
	 viewBox="0 0 126 126" enable-background="new 0 0 126 126" xml:space="preserve">
<g>
	<path fill="#87181A" d="M63.1,98c0.1,0.1,0.1,0.2,0.2,0.3c0.6,1.8-2.2,2.4-3.2,2.6c-3.6,1.1-7.3,1.9-11,2.5
		c-3.6,0.3-7.3,0.1-10.9-0.6c-0.5,0-1-0.2-1.4-0.5c-0.4-0.3-0.4-0.9-0.1-1.2c0,0,0-0.1,0.1-0.1c0.2-0.1,0.4-0.1,0.7-0.1
		c3.7,0.1,7.3-0.9,10.4-2.7c-0.1-0.9,0.5-1.7,1.4-1.9c0.8-0.2,1.7-0.1,2.5,0.1c0.9-1,2.5-1.8,3.6-1c0.2,0.1,0.4,0.3,0.5,0.5
		c0.1,0.3,0.2,0.6,0.4,0.8c0.2,0.1,0.4,0.2,0.7,0.2C58.3,96.9,62.2,96.9,63.1,98z"/>
	<path fill="#87181A" d="M63.9,97.6c-0.4,1.4-1.3,2.5-2.6,3.3c-1.3,0.7-2.7,1.1-4.1,1.1c-1.8,0.2-3.7,0.2-5.5,0.1
		c-3.2-0.3-6.3-0.8-9.4-1.5c-2.5-0.5-5.2-1.1-7-3.1c-1.5-1.8-1.9-4.2-1-6.3L63.9,97.6z"/>
	<path fill="#AA292A" d="M62.9,76c1-0.2,1.9,0.5,2,1.4c0,0.1,0,0.1,0,0.2c0,1-0.5,2-1.4,2.5c-0.9,0.5-1.8,0.8-2.8,0.9
		c-8.6,1.6-17.5,1.1-25.9-1.5c-1.5-0.5-3-1.1-3.7-2.5c1.5-1.9,3.6-3.2,5.9-3.6L62.9,76z"/>
	<path fill="#87181A" d="M63.9,74.8c0.2,0.9-0.1,1.8-0.8,2.4c-0.7,0.6-1.5,1-2.4,1.2c-7.3,2.3-15.3,1.7-22.8,0.5
		c-1.8-0.2-3.5-0.7-5.1-1.6c-1.6-0.9-2.6-2.5-2.6-4.4c9.5-2.6,19.6-2,28.8,1.7L63.9,74.8z"/>
	<path fill="#AA292A" d="M71.4,40.6c0,0.2,0,0.5,0,0.7c0.1,1.1,0.1,2.1,0.1,3.3c0,0,0,0.1,0,0.1v0.6c0,2.1,0,4.2,0,6.4
		c0,0.1,0,0.2,0,0.3c0,0.2,0,0.5-0.1,0.7c-0.3,1.7-0.7,3.3-1.1,5c-1.3,5.2-3.4,9.9-5.3,14.9c-0.3,0.9-0.8,1.6-1.5,2.3l0,0
		c-0.4,0.3-0.8,0.6-1.2,0.9l-0.3,0.2c-2.1,1.2-4.8,1.6-7.2,2L54.1,78l-0.8,0.1l-0.6,0.1c-1.4,0.2-2.9,0.2-4.3,0.2
		c-0.7,0-1.4,0-2.2-0.1c-3-0.2-6.1-0.5-9.1-1.1c-1.2-0.2-2.3-0.4-3.5-0.7c-0.4-0.1-0.7-0.2-1.1-0.4l0,0l-0.3-0.1L32.1,76
		c-0.5-0.2-0.9-0.4-1.3-0.7c-0.5-0.3-1-0.7-1.4-1.2c-1.5-1.6-2.1-3.7-2.6-5.8c-1.1-4.2-2.2-8.5-3.3-12.7c-0.8-2.8-1.4-5.7-1.9-8.6
		c-0.5-3.5-0.7-7-0.5-10.5c0.1-0.6,0.1-1.3,0.2-1.9l0.1-0.6c0.3-1.5,0.7-2.9,1.4-4.3c1.9-4.2,5.3-7.5,9.4-9.5
		c5.2-2.5,11.1-3.4,16.9-2.6c6.4,1,14,3.6,17.9,9C70.1,31,71.1,35.5,71.4,40.6z"/>
	<path fill="#C33939" d="M58.6,25.7c2,2.8,1.8,6.5,1,9.8c-0.1,0.9-0.5,1.8-1.1,2.5c-1.1,1.3-3,1.5-4.7,1.6c-1.7,0.2-3.5-0.1-5-0.8
		c-1.2-0.8-2.2-1.8-2.9-3.1c-1-1.3-1.6-2.7-2-4.2c-0.4-2,0.2-4.1,1.6-5.7C49,21.9,55.5,21.2,58.6,25.7z"/>
	<path fill="#87181A" d="M20.7,35.3c0.3-1.3,1.4-2.2,2.7-2.5c1.3-0.2,2.6-0.2,3.8,0c1.7,0.2,3.4,0.5,4.6,1.6
		c0.7,0.9,1.3,1.8,1.7,2.9c2.5,4.9,8.4,7.3,13.9,7.1c5.5-0.2,10.6-2.7,15.3-5.5c1.5-0.9,3.8-1.7,4.7-0.2c-1.2,1-1.1,2.9-0.9,4.5
		c0.5,5.6-0.9,11.1-3.8,15.9c-2.2,3.6-5.3,6.5-7.4,10.2c-0.9,1.5-1.6,3.1-3,4.1c-2.2,1.5-5.2,1-7.7,1.7c-0.5,0.2-1,0.3-1.5,0.2
		c-0.4-0.1-0.8-0.4-1.1-0.7c-5.5-5.7-5.8-14.7-9.3-21.8c-2.3-4.6-5.8-8.4-10.2-10.9L20.7,35.3z"/>
	<path fill="#771616" d="M33.3,50.8c5.6,5.3,7.5,13.5,4.9,20.8c-0.2,0.4,0.5,0.8,0.6,0.3c2.8-7.6,0.8-16.1-5-21.6
		C33.4,50,33,50.5,33.3,50.8L33.3,50.8z"/>
	<path fill="#771616" d="M71.2,41c0,0.2,0,0.5,0,0.7c-1.6,0.5-3.3,1-5,1.3c-0.8,0.2-1.6,0.4-2.4,0.5c-10.4,2.1-21.1,1.9-31.4-0.5
		c-1.3-0.3-2.6-0.6-3.8-1c-0.2,0-0.3-0.1-0.5-0.1c-0.4-0.1-0.3-0.8,0.1-0.7l0,0c1.4,0.4,2.9,0.8,4.3,1.1c1.8,0.4,3.6,0.8,5.4,1
		c1,0.1,1.9,0.3,2.9,0.4c3.2,0.4,6.5,0.5,9.7,0.4c5.3-0.1,10.5-0.8,15.6-2C67.9,42,69.5,41.5,71.2,41z"/>
	<path fill="#771616" d="M71.5,44.6c0,0,0,0.1,0,0.1v0.6c-1.6,0.6-3.3,1.1-5,1.5c-0.7,0.1-1.4,0.3-2.1,0.4c-3.2,0.4-6.4,0.6-9.6,0.6
		c-3.2,0-6.4,0-9.5-0.1c-5-0.1-9.9-0.7-14.8-2l-0.7-0.2c-0.6-0.2-1.2-0.4-1.8-0.6l-0.8-0.3l-0.4-0.1c-0.4-0.2-0.1-0.7,0.2-0.7h0.1
		l0.7,0.3c0.6,0.2,1.2,0.4,1.8,0.6l0.3,0.1c2.4,0.7,4.9,1.3,7.4,1.6c6.1,0.7,12.3,0.9,18.5,0.7c3.6,0,7.2-0.3,10.7-1
		C68.3,45.7,69.9,45.3,71.5,44.6z"/>
	<path fill="#4A0D16" d="M32.6,41c0.4,0.6,0.4,1.5-0.2,2c-0.7,0.5-1.8,0.2-2.3,0.9c-0.5,0.7,0.1,1.5,0.6,1.9c1.8,1.4,4.7,1.2,6.1,3
		c-2.8,1.1-4.4,4-3.8,6.9c-4.5-1.5-7.8-5.2-9-9.8c-0.1-1.1-0.5-2.2-1.1-3.1c-1.7-2-2.7-5.7,1.2-6.1C26.4,36.5,31.5,39.2,32.6,41z"/>
	<path fill="#AA292A" d="M31.3,76.2c9.5-0.2,8.1-11.9,4.4-17.1c-2.9-4.1-4.7-9.4-6-14.1c-1.1-4-2.3-8.7-6.3-10
		c-3.8-1.3-8.1,1.5-9.6,5.1c-2.2,5.2,0.8,10,2.4,15c1.7,5.3,3.6,10.5,5.6,15.7C23.4,74.8,26.6,76.3,31.3,76.2z"/>
	<path fill="#C33939" d="M46.2,66c0.2-1.5-0.4-4.8,1.2-5.5c1.6-0.8,3.7,0.8,5,1.6c2.6,1.5,4.8,3.6,6.5,6c1.6,2.5,2,6.1,4.1,8.3
		c0.7,0.7,1.6,1,2.1,2c1,2.1,0.5,5.4,0.7,7.7c0.5,4.1,0.2,8.2-0.9,12.2c-0.2,0.7-0.7,1.4-1.4,1.3c-0.3-0.1-0.5-0.3-0.7-0.5
		c-1.2-1.1-2.9-1.7-4.5-1.6c-0.5,0.1-1,0.1-1.5-0.1c-1.6-0.7-0.9-3.7-0.7-5c0.7-7.7-1.9-15.3-7.1-21L46.2,66z"/>
	<path fill="#24282B" d="M55.6,79.8c-0.8,0.3-1.6,0.5-2.4,0.5c-0.4,0-0.7,0-1.1,0h-3.9c-0.4,0.1-0.9-0.1-1.3-0.3
		c-0.4-0.5-0.8-2-1.2-2.7c-0.6-1-1.1-2-1.4-3.1c-0.7-2.2-0.3-4.5,0.2-6.9c0.3-2.3,1-4.5,2.1-6.6c0.1-0.2,0.2-0.3,0.3-0.4
		c0.3-0.2,0.7,0.1,0.9,0.4c2,2.2,2.2,5.5,3.1,8.3c0.6,1.8,1.8,3.5,2.6,5.2S54.7,78.1,55.6,79.8z"/>
	<path fill="#13171A" d="M53.2,80.3c-0.4,0-0.7,0-1.1,0h-2c-0.7-0.6-1.4-1.3-1.9-2.1c-1.7-2.5-2.6-5.4-2.5-8.3c0.3-2.4,1-4.7,2-6.8
		c-0.1,2.2,0.1,4.4,0.6,6.6C48.8,71,53.2,77.7,53.2,80.3z"/>
	<path fill="#AA292A" d="M32.8,97.8l0.7,3.9c0,0.1,0,0.2,0.1,0.3c0.2,0.2,0.5,0.2,0.8,0.1c3.6-1,7.5-0.7,11.1-1.7
		c0.5-0.1,0.9-0.3,1.3-0.5c1.1-0.8,1.4-2.3,1.6-3.6h-0.6L32.8,97.8z"/>
	<path fill="#AA292A" d="M31.2,93c0.3,1.8,0.7,3.8,2.2,4.8c1.7,1.2,3.6,0.7,5.5,0.4c2.1-0.3,4.2-0.3,6.3-0.6c4.8-0.8,9.1-3,13.4-5.2
		c-0.1-2.7-0.3-5.4-0.7-8.1c0-0.5-0.2-0.9-0.4-1.3c-0.6-0.7-1.7-0.6-2.6-0.6c-2.9,0.3-5.7-0.3-8.5-0.7c-2.7-0.4-5.4-0.3-8-1.2
		c-0.8-0.3-1.6-0.6-2.4-0.7c-3-0.2-5.6-1.4-5.6,2.2C30.3,85.8,30.6,89.4,31.2,93z"/>
	<path fill="#13171A" d="M47.3,96.5c-0.3,0.4-0.5,0.9-0.6,1.3c-0.8,1.2-2,2.1-3.5,2.3c-2.8,0.5-5.8-0.2-8.5,0.9
		c-0.5,0.2-1,0.5-1.1,1c-0.1,0.7,1,1.1,1.8,1.3c7.6,1.4,15.4,1.2,23-0.6c2.4-0.6,5.2-1.6,5.8-3.5c0.4-0.9,0-1.9-0.9-2.2c0,0,0,0,0,0
		c-0.5-0.1-0.9-0.2-1.4-0.2h-4.1c-0.3,0-0.7,0-1-0.1c-1.1-0.5-0.4-1.8-0.8-2.8c-0.6-0.2-1.3,0.1-1.6,0.7c-0.2,0.5-0.2,1.1-0.1,1.6
		c0,0.5,0.2,1,0.6,1.3c0.7,0.5,1.5,0.7,2.4,0.5c0.8-0.1,1.7-0.1,2.5,0.1c0.8,0.3,1.3,1.1,0.8,1.6c-0.3,0.3-0.7,0.5-1.1,0.5
		c-7.1,1.8-14.4,2.5-21.8,2.2c0.3-1.1,2.1-1.2,3.4-1.2c2.1,0.1,4.9-0.2,6.7-1.2C50.3,98.6,48.6,95,47.3,96.5z"/>
	<path fill="#24282B" d="M35.9,79.8c6.4,1.4,13,1.9,19.5,1.3c0.6-0.1,1.4,0,1.7,0.5c0.2,0.5,0,1-0.4,1.3c-0.4,0.2-0.9,0.4-1.4,0.4
		c-2.1,0.4-4.3,0.5-6.4,0.5c-3.6-0.1-7-1.4-10.5-2.2c-1.8-0.6-3.6-0.9-5.5-0.9c-1,0.1-2.2,1-3.1,0.1c-0.6-0.7-0.5-1.9,0.2-2.5
		c0.2-0.2,0.4-0.3,0.6-0.3C31.4,77.6,34.8,79.5,35.9,79.8z"/>
	<path fill="#24282B" d="M37.2,99.2c6.8,0.1,13.5-1.4,19.6-4.2c0.9-0.3,1.7-1,2.3-1.8c-1.1-0.3-2.2-0.2-3.2,0.3
		c-3.5,1.1-6.9,2.5-10.5,3.4c-3.6,1-7.4,1-10.9-0.1c-2.1-0.7-4,0.6-1.7,1.9C33.9,99.4,35.9,99.2,37.2,99.2z"/>
	<path fill="#87181A" d="M23.9,35.5c1.7,1.7,2.4,4,2.9,6.4c0.5,2.3,0.8,4.7,1.4,7.1c1.4,5.2,3.2,10.2,5.5,15.1
		c1.3,2.8,2.6,5.6,3.9,8.3c0.2,0.4,0.9,0.2,0.7-0.2c-2.4-5-4.8-9.9-6.8-15.1c-1-2.6-1.9-5.3-2.6-8c-0.6-2.5-1-5-1.5-7.5
		c-0.3-2.5-1.4-4.8-3.1-6.6C24,34.7,23.5,35.2,23.9,35.5L23.9,35.5z"/>
	<path fill="#87181A" d="M31.6,77.2c5-0.8,8.4-5.6,7.6-10.6c-0.1-0.5-0.8-0.4-0.7,0c0.8,4.6-2.3,9-6.9,9.8
		C31.1,76.5,31.2,77.2,31.6,77.2L31.6,77.2z"/>
	<path fill="#771616" d="M71.5,52c0,0.2,0,0.5-0.1,0.7c-1.4,0.2-2.8,0.6-4.1,1.2c-0.9,0.3-1.8,0.7-2.6,1.2c-0.8,0.4-1.5,0.8-2.2,1.3
		c-2.9,1.8-5.1,4.6-6.2,7.9c-0.1,0.2-0.3,0.3-0.5,0.2c0,0-0.1,0-0.1,0c0,0,0,0-0.1-0.1c0-0.1,0-0.2,0-0.3c1.2-3.5,3.5-6.5,6.7-8.5
		c0.9-0.6,1.8-1.1,2.8-1.6c0.8-0.4,1.7-0.8,2.6-1.1C69,52.5,70.2,52.1,71.5,52z"/>
	<path fill="#C33939" d="M18.1,48.3c0.8,1.1,2.6,1,3.6,0.1c2.7-2.3,4.8-11.4-0.7-11.5c-1.7-0.1-3.3,0.9-3.8,2.6
		c-0.4,1.6,0.5,3.4,0.5,5C17.9,45.8,17.3,47.2,18.1,48.3z"/>
	<path opacity="0.8" fill="#461314" enable-background="new    " d="M66.3,90.8c0.5-6.7,1.3-13.5,1.8-20.2
		C69,57.3,68.3,44.1,70.5,31c-2.4-2.6-4.8-6.1-6.4-7.3c-0.4,0.3-0.9,0.7-1.3,1.1c-0.7,0.6-1.2,1.5-1.9,2.3c-0.4,0.5-0.8,0.9-1.4,1.1
		c-0.6,0.2-1.2,0.4-1.8,0.5c-0.9,0.1-1.8,0.5-2.4,1.1l-0.2,0.2c-0.7,0.8-1.2,1.7-1.6,2.6c-1.8,4-2.3,8.7-2.7,13.1
		c-0.3,2.5-0.5,5-0.7,7.5c-0.2,2.1,0.5,4.3,0.8,6.4c0.8,5.7,2.6,10.9,4,16.4c0.2,0.9,0.7,1.8,1.3,2.6h-0.3c-0.2,0.4-0.2,0.9-0.1,1.4
		c-0.7,0.2-1.2,0.8-1.3,1.5c0,0.2,0,0.3,0,0.5c-0.8,0.4-1.4,1.1-1.6,2v0.1c-0.3,1.2-0.4,2.3-0.4,3.5c-0.1,2.2-0.3,4.4-0.7,6.6
		c-0.3,1.9-2.3,7.2-2.2,9.2c0.1,2.5,9.4-1.3,11.6-0.7C63.8,103.4,65.8,96.3,66.3,90.8z"/>
	<path fill="#87181A" d="M61.4,102.6c0.3,1.5,1.2,2.9,2.4,3.8c1.3,0.8,2.7,1.4,4.2,1.6c1.9,0.4,3.9,0.6,5.9,0.7
		c3.4,0,6.8-0.2,10.1-0.6c2.7-0.3,5.7-0.7,7.7-2.6c1.8-1.7,2.4-4.3,1.7-6.6L61.4,102.6z"/>
	<path fill="#24282B" d="M96.2,93.8c-0.5,2.7-0.3,6.5-2,8.7c-1.3,1.4-3,2.4-4.8,2.7c-1.7,0.5-3.3,1.2-5,1.6
		c-2.7,0.6-5.4,0.8-8.1,0.7c-1.8-0.1-3.5-0.2-5.3-0.6c-2.8-0.7-5.5-1.5-8.2-2.4c-2.2-0.7-4.1-2.3-4.2-4.8c-0.1-1.9,0.8-3.8,1.1-5.7
		c0.4-2.2,0.6-4.4,0.7-6.6c0-1.2,0.1-2.4,0.4-3.5c0,0,0,0,0-0.1c1.3-4.2,6.5-1.6,9.6-1c8.6,1.7,17.4,3.3,26,1.5
		c0.8-0.2,1.9-0.3,2.3,0.5c0.2,0.5,0.1,1-0.1,1.5C97.4,88.7,96.7,91.2,96.2,93.8z"/>
	<path fill="#AA292A" d="M64.7,79.8c-1-0.3-2.1,0.3-2.3,1.3c0,0.1,0,0.1,0,0.2c-0.1,1.1,0.4,2.2,1.3,2.8c0.9,0.6,1.9,1,2.9,1.3
		c9,2.6,18.5,2.9,27.7,1c1.6-0.4,3.3-0.9,4.2-2.3c-1.4-2.1-3.5-3.7-5.9-4.5L64.7,79.8z"/>
	<path fill="#87181A" d="M63.8,78.5c-0.3,0.9-0.1,2,0.6,2.7c0.7,0.7,1.5,1.2,2.4,1.5c7.6,3.2,16.1,3.4,24.3,2.9
		c1.9,0,3.8-0.4,5.6-1.2c1.8-0.8,3-2.4,3.2-4.4C90,76.3,79.1,75.9,69,78.8L63.8,78.5z"/>
	<path fill="#AA292A" d="M111.8,53.1c-0.8,3.1-1.7,6.1-2.9,9c-1.6,4.4-3.2,8.8-4.8,13.2c-0.8,2.1-1.6,4.4-3.4,5.9
		c-2.3,2-5.6,2.4-8.7,2.6c-6,0.4-12.2,0.6-18.1-1c-4.3-1.1-9.8-2.3-11.1-6.9c-1.5-5.5-3.2-10.7-4-16.4c-0.3-2.1-1-4.3-0.8-6.4
		c0.2-2.5,0.5-5,0.7-7.5c0.5-4.4,0.9-9.1,2.7-13.1c0.4-1,0.9-1.9,1.6-2.6l0.2-0.2c0.7-0.6,1.5-1,2.4-1.1c0.6-0.1,1.2-0.2,1.8-0.5
		c0.5-0.3,1-0.7,1.4-1.1c0.7-0.8,1.2-1.7,1.9-2.3c3.9-3.6,9.3-5.5,14.7-5.7c9.5-0.5,18.7,3.5,25,10.7c0.9,1,1.5,2,2,3.2
		c0.5,1.5,0.6,3,0.6,4.5C113,42.7,112.9,48,111.8,53.1z"/>
	<path fill="#87181A" d="M65,44.6c0.9-1.7,1.2-3.6,0.8-5.5c-0.3-1.9-0.8-3.8-0.9-5.7c-0.1-1.6,0.2-3.2,0.8-4.8
		c0.6-0.1,1.2-0.2,1.8-0.5c0.5-0.3,1-0.7,1.4-1.1c-0.5,1.9-0.9,3.8-1.1,5.8c-0.2,2.1-0.1,4.1-0.3,6.2C67.2,41,66.4,43,65,44.6z"/>
	<path fill="#C33939" d="M74.3,26.6c-2.4,2.7-2.5,6.7-2.1,10.4c0.1,1,0.4,1.9,0.9,2.7c1,1.4,3,1.9,4.9,2.1c1.8,0.4,3.7,0.2,5.5-0.4
		c1.3-0.7,2.5-1.7,3.4-3c1.1-1.3,2-2.7,2.6-4.3c0.6-2.1,0.2-4.4-1.2-6.2C85,23.6,78.2,22.2,74.3,26.6z"/>
	<path fill="#C33939" d="M105.3,41.1c-0.5,3.4,1.4,6.7,1.8,10.1c0.4,4.2-1.6,8.2-3.5,12c-1,1.9-2,3.8-2.9,5.7
		c-0.8,1.7-1.7,3.3-2.5,5c-0.5,0.9-1.8,2.2-1.4,3.4c0.8,1.8,2.2,0.4,2.8-0.6c2.5-4,4.1-8.4,5.6-12.8l2.7-7.8c1.2-3,1.9-6.1,2.2-9.2
		c0.1-2.2-0.3-4.3-1.2-6.3c-0.3-0.7-1-2.3-1.9-2.2C106,38.4,105.4,40.4,105.3,41.1z"/>
	<path fill="#13171A" d="M82.6,103c-0.3,0.9-0.8,1.8-1.4,2.6c-0.8,0.8-1.9,1.3-3,1.6c-0.6,0.2-1.3,0.3-2,0.4
		c-1.8-0.1-3.5-0.2-5.3-0.6c-2.8-0.7-5.5-1.5-8.2-2.4c-2.2-0.7-4.1-2.3-4.2-4.8c-0.1-1.9,0.8-3.8,1.1-5.7c0.4-2.2,0.6-4.4,0.7-6.6
		c0-1.2,0.1-2.4,0.4-3.5c0.6-0.3,1,1,1.4,1.5c0.5,0.6,1.2,1.1,1.9,1.5c3.9,2.1,8.5,2.5,13,2.4c2.4-0.1,5.3-0.1,6.8,1.9
		C85.9,94.1,83.7,100,82.6,103z"/>
	<path fill="#24282B" d="M82.2,102.9c-0.3,1-0.8,1.8-1.5,2.6c-0.9,0.8-1.9,1.3-3.1,1.6c-5.5,1.4-11.2-0.5-16.5-2.7
		c-1.2-0.4-2.2-1-3-1.9c-0.8-1.1-1.2-2.6-1-4c0-0.4,0.1-0.7,0.2-1.1c0.4-1.7,1.1-3.4,1.4-5.1c0.3-1.7-0.4-3.8-0.2-5.7
		c0-0.6,0.1-1.1,0.3-1.6c0.1-0.3,0.2-0.6,0.4-0.9c0.7-1.1,1.3,0.1,1.7,0.7c0.7,1,1.6,1.7,2.7,2.2c2.3,1.3,4.8,2.2,7.4,2.6
		c2.3,0.4,4.8,0.1,7.2,0.3c0.6,0.1,1.3,0.2,1.9,0.3c1.3,0.1,2.4,0.8,3.1,1.9c0.2,0.4,0.4,0.7,0.5,1.1c0.1,0.4,0.2,0.8,0.2,1.3
		c0,0.6,0,1.2,0,1.8C83.7,98.7,83.1,100.9,82.2,102.9z"/>
	<path fill="#AA292A" d="M58.8,84.9c0-0.2,0.1-0.5,0.2-0.7L58.8,84.9z"/>
	<path fill="#AA292A" d="M80.6,102.1c-0.3,0.9-0.8,1.7-1.5,2.4c-1,0.8-2.2,1.2-3.5,1.3c-3.9,0.4-7.9-0.8-11.5-2.2
		c-1.9-0.7-3.7-1.6-5.2-2.9c-0.7-0.6-1.3-1.3-1.7-2c0-0.4,0.1-0.7,0.2-1.1c0.4-1.7,1.1-3.4,1.4-5.1c0.3-1.7-0.4-3.8-0.2-5.7
		c0-0.6,0.1-1.1,0.3-1.6c0.1,0.8,0.4,1.5,1,2.1c2,2.2,5,3.3,8,3.9c2.3,0.5,4.7,0.9,7.1,1.1c1.7,0,3.4,0.3,5,0.9
		c0.7,0.3,1.3,0.8,1.7,1.5c0.2,0.4,0.3,0.9,0.4,1.3C82.1,97.9,81.6,100.1,80.6,102.1z"/>
</g>
</svg>
