<?xml version="1.0" encoding="utf-8"?>
<!-- Generator: Adobe Illustrator 24.3.0, SVG Export Plug-In . SVG Version: 6.00 Build 0)  -->
<svg version="1.1" id="Layer_1" xmlns="http://www.w3.org/2000/svg" xmlns:xlink="http://www.w3.org/1999/xlink" x="0px" y="0px"
	 viewBox="0 0 126 126" enable-background="new 0 0 126 126" xml:space="preserve">
<g>
	<g>
		<path fill="#2D2A27" d="M101,113H25c-6.6,0-12-5.4-12-12V25c0-6.6,5.4-12,12-12h76c6.6,0,12,5.4,12,12v76
			C113,107.6,107.6,113,101,113z"/>
	</g>
	<path fill="#FFFFFF" d="M33.7,37c2.4-1.2,5.2-1.2,7.7-0.7c1.9,0.5,4,1.6,4.7,3.5c0.7,2.3,0.6,4.7,0.6,7c-2.3,0-4.6,0-6.9,0
		c0-1.9,0.1-3.9-0.1-5.8c0-1.3-2.3-1.3-2.3,0c-0.2,3-0.1,6.1-0.1,9.2c0.1,1.9-0.1,3.9,0.2,5.9c0.2,0.8,1.2,0.8,1.8,0.6
		c0.5-0.3,0.5-1,0.5-1.5c0.1-1.4,0-2.9,0-4.3c2.3,0,4.6,0,6.9,0c-0.1,2.2,0.1,4.5-0.8,6.6c-1.5,2.5-4.7,3.5-7.6,3.4
		c-2.5,0-5.3-0.6-6.9-2.7c-1.1-1.7-1.1-3.9-1.2-5.9c0-3.5-0.1-7,0.1-10.5C30.5,39.6,31.9,37.8,33.7,37z M50.4,36.4
		c3.4,0,6.7,0,10.1,0c1.3,8,2.6,15.9,3.9,23.9c-2.2,0-4.3,0-6.5,0c-0.2-1.5-0.3-3-0.6-4.5c-0.8,0-1.5,0-2.3,0c0.1-1.3,0.3-2.7,0.4-4
		c0.5,0,0.9,0,1.4,0c-0.4-3.4-0.8-6.8-1.3-10.2c-0.7,6.2-1.5,12.5-2.2,18.7c-2.2,0-4.3,0-6.5,0C48.1,52.3,49.3,44.4,50.4,36.4
		L50.4,36.4z M65.6,36.4c2.3,0,4.6,0,6.9,0c0,6.4,0,12.7,0,19.1c1.4,0,2.8,0,4.2,0c0,1.6,0,3.2,0,4.8c-3.7,0-7.4,0-11.1,0
		C65.6,52.3,65.6,44.4,65.6,36.4L65.6,36.4z M78.4,36.4c2.3,0,4.6,0,6.9,0c0,6.4,0,12.7,0,19.1c1.4,0,2.8,0,4.2,0c0,1.6,0,3.2,0,4.8
		H78.4C78.4,52.3,78.4,44.4,78.4,36.4L78.4,36.4z M31.8,62.7c3.1,0,6.1,0,9.2,0.1c1.6,0.1,3.3,0.2,4.7,1c1.3,0.8,2.1,2.2,2.1,3.7
		c0.2,4.2,0.1,8.3,0.1,12.5c-0.1,1.7,0.1,3.7-1.1,5.1c-1.4,1.3-3.4,1.3-5.1,1.4c-3.3,0-6.5,0-9.8,0C31.8,78.6,31.8,70.6,31.8,62.7
		 M38.7,66.8c0,5.2,0,10.5,0,15.7c0.7-0.1,1.7,0,2-0.8c0.4-1.7,0.2-3.5,0.2-5.3c-0.1-2.9,0.1-5.8-0.1-8.6
		C40.7,66.8,39.4,66.8,38.7,66.8z M49.5,62.7c2.3,0,4.6,0,6.9,0c0,5.8,0,11.6,0,17.4c0,0.8,0,1.5,0.1,2.3c0.1,0.9,1.6,0.8,1.7,0
		c0.2-0.7,0.1-1.5,0.1-2.3c0-5.8,0-11.6,0-17.4c2.3,0,4.6,0,6.9,0c0,5.6,0,11.2,0,16.7c-0.1,1.5,0.1,3.2-0.8,4.6
		c-1.1,1.8-3.2,2.7-5.2,3c-2.6,0.3-5.4,0-7.6-1.6c-1.4-1-2.1-2.6-2.1-4.3C49.5,74.9,49.6,68.8,49.5,62.7L49.5,62.7z M66.8,62.7H82
		c0,1.6,0,3.2,0,4.8c-1.4,0-2.7,0-4.1,0v19.1c-2.3,0-4.6,0-6.9,0V67.4c-1.4,0-2.7,0-4.1,0C66.8,65.8,66.8,64.3,66.8,62.7L66.8,62.7z
		 M83.2,62.7c2.1,0,4.3-0.1,6.4,0c1.3,4.3,2.7,8.5,4.1,12.8c0.3,1.1,0.8,2.1,0.8,3.2c0,2.6,0,5.3,0,7.9c-2.1,0-4.3,0-6.4,0
		c0-2.5,0-5.1,0-7.6c0-0.6,0-1.2-0.2-1.7C86.3,72.5,84.8,67.6,83.2,62.7L83.2,62.7z M93.1,62.7c2.1,0,4.2,0,6.3,0
		c-1.5,4.5-3,9-4.4,13.6c-0.9-3-2-6-2.9-9C92.4,65.6,92.8,64.2,93.1,62.7z"/>
	<path fill="#FFFFFF" d="M88.7,42.1c1.2-0.5,3,0,3.2,1.4c0.1,1.8,0.1,3.6,0,5.3c-0.4,2-3.8,2.1-4.3,0.2c-0.3-1.6-0.1-3.2-0.1-4.8
		C87.5,43.4,87.9,42.5,88.7,42.1 M89.6,43.3c-0.1,2-0.1,3.9,0,5.9L90,49c0.2-1.8,0.1-3.6,0-5.5C89.9,43.5,89.7,43.3,89.6,43.3
		L89.6,43.3z M92.7,42.1c1,0,2.1,0,3.1,0c0,0.5,0,1.1,0,1.6l-1.3,0c0,0.5,0,1,0,1.6c0.4,0,0.8,0,1.1,0c0,0.5,0,1,0,1.5l-1.1,0
		c0,1.2,0,2.3,0,3.5c-0.6,0-1.2,0-1.9,0C92.7,47.6,92.7,44.9,92.7,42.1L92.7,42.1z"/>
</g>
</svg>
