<?xml version="1.0" encoding="utf-8"?>
<!-- Generator: Adobe Illustrator 24.3.0, SVG Export Plug-In . SVG Version: 6.00 Build 0)  -->
<svg version="1.1" id="Layer_1" xmlns="http://www.w3.org/2000/svg" xmlns:xlink="http://www.w3.org/1999/xlink" x="0px" y="0px"
	 viewBox="0 0 126 126" enable-background="new 0 0 126 126" xml:space="preserve">
<g>
	<path fill="#F6A513" d="M51.2,47c26.3-24.8,60.1-32.3,60.1-32.3s-6.2,34.6-31,60.9l-4.8,4.8c-16.1,15.5-32.5,26.6-44.5,30.8
		c-1.3,0.5-2.7,0.1-3.7-0.8L16.5,99.9c-1-1-1.3-2.4-0.8-3.7c4.2-12,15.3-28.4,30.8-44.5L51.2,47z"/>
	<path fill="#FDDC0A" d="M50.5,45.7c26.3-24.8,60.9-31,60.9-31C104,36,92.3,55.6,77,72.2L72.2,77c-16.1,15.5-32.5,26.6-44.5,30.8
		c-1.3,0.5-2.7,0.1-3.7-0.8l-8.4-8.4c-1-1-1.3-2.4-0.8-3.7c4.2-12,15.3-28.4,30.8-44.5L50.5,45.7z"/>
	<path fill="#FFFFFF" d="M111.3,14.7c0,0-34.6,6.2-60.9,31l-4.8,4.8C30.2,66.5,19.1,82.9,14.9,94.9c-0.5,1.3-0.1,2.7,0.8,3.7
		l3.3,3.3c-1-1-1.3-2.4-0.8-3.7c4.2-12,15.3-28.4,30.8-44.5l4.7-4.8C70.4,33.7,90,22,111.3,14.7z"/>
	<path fill="#F6A513" d="M70.6,75.3c-12.5,12-25.7,21.8-36.4,26.9c-2,1-4.4,0.5-6-1.1l-3.4-3.4c-0.8-0.8-1.3-1.9-1.5-3
		c-0.2-1,0-2,0.4-3c3.3-6.7,7.3-13,11.9-18.9c4.7-6.1,9.7-11.9,15-17.5L67.2,72L70.6,75.3z"/>
	<path fill="#FDDC0A" d="M67.2,72C55,83.7,42.1,93.1,31.6,98.1c-2,1-4.4,0.5-6-1.1l-2.3-2.3c-0.2-1,0-2,0.4-3
		c3.3-6.7,7.3-13,11.9-18.9c4.7-6.1,9.7-11.9,15-17.5L67.2,72z"/>
	<path fill="#F6A513" d="M75.4,70.6L72,67.2L55.4,50.7c6-5.9,13.7-8.3,19.2-6.5c1.4,0.5,2.7,1.2,3.7,2.3l1.3,1.3
		C84.7,52.9,82.8,63.1,75.4,70.6z"/>
	<path fill="#FDDC0A" d="M72,67.2L55.4,50.7c6-5.9,13.7-8.3,19.2-6.5l1,1C80.5,50.2,78.9,59.8,72,67.2z"/>
	<g>
		<path d="M41.7,56.3c-0.7,0-1.3-0.4-1.5-1c-0.3-0.6-0.1-1.3,0.3-1.8c1.3-1.4,2.6-2.8,4-4.2c0.6-0.7,1.7-0.7,2.4,0
			c0.7,0.6,0.7,1.7,0,2.4c-1.3,1.4-2.7,2.8-3.9,4.2C42.6,56.1,42.2,56.3,41.7,56.3L41.7,56.3z"/>
		<path d="M29.9,113c-1.4,0-2.7-0.5-3.7-1.5L14.5,99.8c-1.4-1.4-1.9-3.5-1.2-5.4c3-8.7,9.6-19.6,18.5-30.7c0.4-0.5,1-0.7,1.6-0.6
			c0.6,0.1,1.1,0.5,1.3,1c0.2,0.6,0.1,1.2-0.3,1.6c-8.7,10.9-15.1,21.4-18,29.8c-0.2,0.7-0.1,1.4,0.4,1.9l11.7,11.7
			c0.5,0.5,1.3,0.7,1.9,0.4c12.1-4.2,28.5-15.6,43.9-30.5c0.7-0.6,1.7-0.6,2.4,0c0.6,0.7,0.6,1.7,0,2.4
			c-15.7,15.2-32.5,26.8-45.1,31.2C31.1,112.9,30.5,113,29.9,113L29.9,113z"/>
		<path d="M37.3,61.3c-0.1,0-0.2,0-0.3,0c-0.1,0-0.2-0.1-0.3-0.1c-0.1,0-0.2-0.1-0.3-0.2c-0.1-0.1-0.2-0.1-0.3-0.2
			c-0.6-0.7-0.6-1.7,0-2.4c0.5-0.5,1.2-0.6,1.8-0.4c0.2,0.1,0.4,0.2,0.6,0.4c0.5,0.5,0.6,1.2,0.4,1.8C38.6,60.9,38,61.3,37.3,61.3
			L37.3,61.3z"/>
		<path d="M80.3,77.2c-0.7,0-1.3-0.4-1.5-1c-0.3-0.6-0.1-1.3,0.3-1.8c20.4-21.6,28.1-49.3,30.1-57.6c-8.3,1.9-36,9.7-57.6,30.1
			c-0.4,0.4-1.1,0.6-1.6,0.4c-0.6-0.2-1-0.6-1.2-1.2s0.1-1.2,0.5-1.6C75.7,19.6,110.7,13.1,111,13c0.5-0.1,1.1,0.1,1.5,0.5
			s0.6,0.9,0.5,1.5c-0.1,0.4-6.6,35.4-31.5,61.7C81.2,77,80.8,77.2,80.3,77.2z"/>
		<path d="M32,104.4c-1.9,0-3.6-0.7-4.9-2.1l-3.4-3.4c-2.1-2.1-2.7-5.2-1.4-7.9c3.4-6.8,7.4-13.2,12-19.2c3-4,6.5-8.2,15.1-17.6
			c0.6-0.7,1.7-0.7,2.4-0.1c0.7,0.6,0.7,1.7,0.1,2.4C43.4,65.9,40,70,37,73.9c-4.5,5.8-8.4,12-11.7,18.6c-0.6,1.4-0.4,3,0.7,4.1
			l3.4,3.4c1.1,1.1,2.7,1.4,4.1,0.7C44,95.6,57.1,86,69.4,74.1c0.7-0.6,1.7-0.6,2.4,0c0.6,0.7,0.6,1.7,0,2.4
			c-12.5,12.1-25.9,22-36.8,27.2C34,104.1,33,104.4,32,104.4L32,104.4z"/>
		<path d="M75.1,72.1c-0.6,0-1.2-0.3-1.5-0.9c-0.3-0.5-0.3-1.2,0.1-1.7C76.6,65,76,59,72.2,55.2l-1.3-1.3c-3.8-3.8-9.8-4.4-14.4-1.6
			c-0.5,0.3-1.1,0.3-1.7,0.1C54.3,52.1,54,51.5,54,51c0-0.6,0.3-1.2,0.8-1.5c5.9-3.7,13.5-2.8,18.5,2l1.3,1.3
			c4.9,4.9,5.7,12.6,2,18.4C76.2,71.8,75.7,72.1,75.1,72.1z"/>
		<path d="M42.4,98.9c-2.7-0.1-5.3-1.3-7.2-3.3l-4.8-4.8c-2.3-2.1-3.5-5.1-3.2-8.2c0.1-0.9,0.9-1.5,1.8-1.5c0.9,0.1,1.6,0.8,1.6,1.7
			v0c0,0.1,0,0.2,0,0.2c-0.1,2,0.8,4,2.3,5.3l4.8,4.8c1.3,1.5,3.3,2.4,5.3,2.3c0.5-0.1,1,0.1,1.3,0.4c0.4,0.3,0.6,0.8,0.6,1.3
			c0,0.9-0.7,1.6-1.5,1.7C43.1,98.9,42.8,98.9,42.4,98.9z"/>
		<path d="M75.4,72.3c-0.7,0-1.3-0.4-1.5-1c-0.3-0.6-0.1-1.3,0.4-1.8c6.8-6.8,8.7-16,4.3-20.4l-1.3-1.3c-4.5-4.4-13.7-2.6-20.6,4.2
			c-0.7,0.6-1.7,0.6-2.4,0c-0.6-0.7-0.6-1.7,0-2.4c8.2-8,19.5-9.9,25.2-4.2l1.3,1.3c5.8,5.8,3.9,16.9-4.3,25.2
			C76.2,72.1,75.8,72.3,75.4,72.3z"/>
		<path d="M85.1,42.5c-0.7,0-1.3-0.4-1.5-1c-0.3-0.6-0.1-1.3,0.4-1.8l16.2-16.2c0.7-0.7,1.7-0.7,2.4,0c0.7,0.7,0.7,1.7,0,2.4
			L86.3,42C86,42.3,85.6,42.5,85.1,42.5L85.1,42.5z"/>
	</g>
	
		<rect x="59.6" y="21" transform="matrix(0.7071 -0.7071 0.7071 0.7071 -26.0944 63.0004)" fill="#FDDC0A" width="6.7" height="83.9"/>
	<path d="M90.3,96.7c-0.4,0-0.9-0.2-1.2-0.5L29.8,36.9c-0.3-0.3-0.5-0.7-0.5-1.2c0-0.4,0.2-0.9,0.5-1.2l4.7-4.7
		c0.3-0.3,0.7-0.5,1.2-0.5c0.4,0,0.9,0.2,1.2,0.5l59.4,59.4c0.3,0.3,0.5,0.7,0.5,1.2s-0.2,0.9-0.5,1.2l-4.7,4.7
		C91.2,96.5,90.7,96.7,90.3,96.7z M33.3,35.7l57,57l2.4-2.4l-57-57L33.3,35.7z"/>
	<g>
		<path fill="#F6A513" d="M35.7,30.9l-4.7,4.7l-13.2-8.5c-1.7-1.1-2.8-2.9-3-4.9s0.5-4,1.9-5.5l0.1-0.1c1.4-1.4,3.4-2.1,5.5-1.9
			s3.8,1.3,4.9,3L35.7,30.9z"/>
		<path fill="#F6A513" d="M90.3,95.1l4.7-4.7l13.2,8.5c1.7,1.1,2.8,2.9,3,4.9c0.2,2-0.5,4-1.9,5.5l-0.1,0.1
			c-1.4,1.4-3.4,2.1-5.5,1.9c-2-0.2-3.8-1.3-4.9-3L90.3,95.1z"/>
	</g>
	<g>
		<path d="M30.9,37.4c-0.3,0-0.6-0.1-0.9-0.3l-13.2-8.5c-2.1-1.4-3.5-3.6-3.8-6.2s0.6-5,2.4-6.8l0.1-0.1c1.8-1.8,4.3-2.7,6.8-2.4
			s4.8,1.7,6.2,3.8L37.1,30c0.4,0.7,0.3,1.5-0.2,2.1l-4.7,4.7C31.8,37.2,31.4,37.4,30.9,37.4z M21.5,16.3c-1.3,0-2.6,0.5-3.6,1.5
			l-0.1,0.1c-1.1,1.1-1.6,2.6-1.5,4.1c0.2,1.5,1,2.9,2.3,3.7l12.1,7.8l2.8-2.8l-7.8-12.1C24.8,17.2,23.2,16.3,21.5,16.3z"/>
		<path d="M104.5,113c-2.8,0-5.5-1.4-7.1-3.8L88.9,96c-0.4-0.7-0.3-1.5,0.2-2.1l4.8-4.7c0.6-0.6,1.4-0.6,2.1-0.2l13.2,8.5
			c2.1,1.4,3.5,3.6,3.8,6.2c0.3,2.5-0.6,5-2.4,6.8l-0.1,0.1C108.9,112.1,106.7,113,104.5,113L104.5,113z M92.4,95.3l7.8,12.1
			c0.8,1.3,2.2,2.1,3.7,2.3c1.5,0.2,3-0.4,4.1-1.5l0.1-0.1c1.1-1.1,1.6-2.6,1.5-4.1c-0.2-1.5-1-2.9-2.3-3.7l-12.1-7.8L92.4,95.3z"/>
	</g>
</g>
</svg>
