<?xml version="1.0" encoding="utf-8"?>
<!-- Generator: Adobe Illustrator 24.3.0, SVG Export Plug-In . SVG Version: 6.00 Build 0)  -->
<svg version="1.1" id="Layer_1" xmlns="http://www.w3.org/2000/svg" xmlns:xlink="http://www.w3.org/1999/xlink" x="0px" y="0px"
	 viewBox="0 0 126 126" enable-background="new 0 0 126 126" xml:space="preserve">
<path fill="#FFFFFF" d="M100.8,48.2l-0.5-2.2c-0.5-2.2-2-4-4.1-4.9L66.6,27.8l4.1-11.7c0.3-0.9,0-2-0.7-2.6
	c-0.8-0.6-1.8-0.7-2.7-0.2L53,22c-7.1,4.3-12.7,10.5-16,18.1c-3.2,7.3-4.9,14.7-4.9,22.1c-0.1,12.7,2.7,22,4.8,27.2h-4.2
	c-1.3,0-2.3,1-2.3,2.3v7.1h-3c-1.3,0-2.3,1-2.3,2.3v9.5c0,1.3,1,2.3,2.3,2.3H93c1.3,0,2.3-1,2.3-2.3v-9.5c0-1.3-1-2.3-2.3-2.3h-3
	v-7.1c0-1.3-1-2.3-2.3-2.3h-7.1l0.3-0.8c1.3-3.9,0.9-8.2-1.1-11.7l-9.8-17.4l1.3,0.4c0.6,0.2,1.2,0.3,1.8,0.3c1.6,0,3.2-0.7,4.2-1.9
	c0.9-1,2.1-1.6,3.5-1.6c0.5,0,1,0.1,1.5,0.2l7,2.4c0.8,0.3,1.5,0.4,2.3,0.4c2,0,4-0.9,5.3-2.4l2.3-2.5
	C100.7,53,101.4,50.5,100.8,48.2z"/>
</svg>
