<?xml version="1.0" encoding="utf-8"?>
<!-- Generator: Adobe Illustrator 24.3.0, SVG Export Plug-In . SVG Version: 6.00 Build 0)  -->
<svg version="1.1" id="Layer_1" xmlns="http://www.w3.org/2000/svg" xmlns:xlink="http://www.w3.org/1999/xlink" x="0px" y="0px"
	 viewBox="0 0 126 126" enable-background="new 0 0 126 126" xml:space="preserve">
<g>
	<path fill="#FFFFFF" d="M102.2,41.1c0,2,0,3.8,0,5.6c0,0.9,0.4,1.2,1.2,1.2c0.3,0,0.5,0,0.8,0c1.9-0.2,1.8-0.2,1.9-2.1
		c0.1-1.5,0.5-3,0.8-4.5c0-0.2,0.3-0.4,0.5-0.4c1.4-0.2,2.8-0.4,4.5-0.5c0.1,2.7,0.3,5.1,0.3,7.6c0,3.6,0,7.2,0,10.7
		c0,0.4-0.4,0.8-0.5,1.2c-0.1,0-0.3,0-0.4,0c0.1,0.4,0.3,0.7,0.6,1.4c-0.5-0.4-0.8-0.7-0.9-0.7c-1.1,0.2-2,0.3-2.8,0.5
		c-0.6,0.2-1.1,0.6-1.8,1.1c0.1-2.3,0.2-4.7,0.4-7.1c0.1-1.1,0-1.3-1.1-1.4c-0.4,0-0.8,0-1.2,0c-1.5,0-1.8,0.3-1.9,1.8
		c0,1.8,0,3.7,0,5.7c-1.3,0.1-2.5,0.2-3.8,0.3c0.1-0.4,0.2-0.6,0.2-0.8c-0.5,0.3-1.1,0.7-1.9,1.1c-0.1-0.6-0.1-1-0.1-1.4
		c-0.1-4.6-0.1-9.3-0.1-13.9c0-1.6,0.1-3.1,0.1-4.7c0-0.6,0.2-0.9,0.8-0.8C99.1,41.1,100.7,41.1,102.2,41.1z"/>
	<path fill="#FFFFFF" d="M84.9,73.2c-1.6-0.1-3-0.3-4.3-0.4c-0.4,0.4-0.8,0.8-1.2,1.2c-0.6-2-1.1-3.7-1.6-5.5c0.2,0,0.5-0.1,1-0.1
		c-1.8-1.1-2.2-0.9-2.7,1.4c0.3-0.5,0.6-0.9,0.8-1.4c0.1,0,0.2,0.1,0.3,0.1c-0.4,1.6-0.8,3.2-1.1,4.6c-1.1,0-2.1,0-3.1-0.1
		c-1.1,0-1.6,0.5-1.7,1.5c0,0.4-0.1,0.8-0.1,1.4c1.1-0.2,2-0.4,3-0.6c0,1.9,0,1.9,1.9,1.8c1,0,2-0.3,3-0.5c0.1,0,0.2-0.1,0.3-0.2
		c1.1-1.6,2.9-1,4.3-1.2c0.2,0,0.6,0.5,0.6,0.9c0.5,2.3,0.9,4.7,1.4,7c0.1,0.5-0.1,0.8-0.7,0.8c-0.1,0-0.3,0-0.4,0
		c-1.1,0.1-2.5-0.3-3.2,1.2c-0.2-1.8-1.8-3.5,0.4-5.3c-0.7-0.1-1-0.1-1.3-0.1c-2.1,0.1-4.2,0.3-6.3,0.4c-0.8,0-1.3,0.4-1.4,1.2
		c0,0,0,0.1,0,0.1c-0.5,3.1-0.6,3-3.7,3.2c-0.7,0-1.4,0.3-2.1,0.5c0.2-0.8,0.4-1.9,0.7-3c1,0.3,1.3-0.4,1.5-1.2c0.6-2,1.4-4,1.7-6.1
		c0.3-1.9,0.5-3.7,1.2-5.5c0.2-0.7,0.5-1.4,0.8-2.2c-0.8,0.2-1.6,0.4-2.3,0.6c0-0.1,0.1-0.4,0.1-0.6c0.6-2.5,0.6-2.6,3.1-2.7
		c2.9-0.1,5.7,0,8.6,0.1c0.3,0,0.8,0.3,0.8,0.6C83.9,67.8,84.4,70.5,84.9,73.2z"/>
	<path fill="#FFFFFF" d="M81.8,60.7c-0.5-0.3-1.1-0.5-1.6-0.8c-0.7-0.5-1.2-0.4-1.8,0.2c-0.4,0.4-0.9,0.8-1.5,1.3
		c-0.2-1.1-0.4-1.8-0.5-2.6c-0.1-0.7-0.5-1-1.1-1c-1.6,0-3.2,0.1-4.7,0.2c-0.4,0-0.8,0.1-1.3,0.2c0,0.2,0,0.5,0,0.8
		c-0.1,0-0.2,0-0.3,0c-0.1-0.6-0.2-1.2-0.3-1.8c-0.2,1.9-1.4,2.9-3.3,3.7c0.2-1.6,0.3-3,0.6-4.4c0.8-3,1.6-6,2.5-9
		c0.2-0.7,0.2-1.2-0.8-1.3c0.2-0.9,0.4-1.8,0.6-2.6c0.1-0.3,0.5-0.5,0.8-0.6c3.1-0.5,6.1-0.6,9.2-0.1c0.3,0,0.7,0.4,0.8,0.7
		c1.1,5.6,2.1,11.1,3.1,16.7C82.1,60.5,82,60.6,81.8,60.7z M72.8,47.4c0.1,0.4,0.3,0.7,0.2,1c-0.2,0.9-0.5,1.8-0.7,2.7
		c-0.6,2.6-0.4,2.8,2.2,2.6c0.7-0.1,0.9-0.3,0.8-1c-0.2-1.2-0.3-2.5-0.7-3.7C74.2,47.3,74.4,47.3,72.8,47.4z"/>
	<path fill="#FFFFFF" d="M108.6,75.4c-0.9,0-1.7,0-2.6,0c-0.8,0-1.2,0.3-1.2,1.1c0,1.4,0,2.8,0.1,4.1c0,0.3,0.6,0.6,1,0.7
		c1.1,0.1,2.2,0,3.4,0.1c0.9,0.1,1.4-0.2,1.2-1.2c0-0.2,0-0.5,0-0.8c0.8,0,1.5-0.1,2.3-0.1c0,1.5,0.1,2.9-0.1,4.3
		c0,0.2-0.8,0.6-1.2,0.6c-3-0.1-6.1-0.2-9.1-0.3c-0.8,0-1.6-0.1-2.1,0.7c-0.1,0.2-0.3,0.3-0.6,0.5c0-0.5-0.1-0.8-0.1-1.2
		c-0.1-4.6-0.1-9.2-0.2-13.8c0-1.1,0.1-2,1.1-2.6c-1.1-0.1-2.3-0.7-3.1,1c0.2-1.4,0.4-2.5,0.7-3.5c0-0.2,0.4-0.4,0.7-0.5
		c4.2-0.6,8.5-0.6,12.7-0.4c0.7,0,1,0.3,1.1,1c0.1,1.3,0.3,2.6,0.4,4c-0.8,0-1.5,0-2.3,0c-0.1-0.7-0.2-1.3-0.3-2c-1.6,0-3.2,0-4.7,0
		c-0.3,0-0.6,0.5-0.7,0.8c-0.1,0.9-0.1,1.8-0.2,2.7c0,0.7-0.3,1-1,1.1c-1,0-1.9,0.2-3.1,0.3c0.1,0.8,0.1,1.6,0.1,2.2
		c1.1-0.2,2-0.5,2.9-0.5c0.8,0,1.7,0.4,2.5,0.6c0.8,0.2,1.6,0.4,2.3,0.7C108.6,75.1,108.6,75.2,108.6,75.4z"/>
	<path fill="#FFFFFF" d="M53,46.3c-1.5,0.1-2.8,0.2-4.2,0.4c-2.2,0.3-2.4,0.5-2.7,2.6c-0.2,1.7-0.4,3.5-0.3,5.3
		c0.1,1.3,0.6,1.7,1.9,1.7c1.5,0,3-0.2,4.4-0.3c0.3,0,0.6,0,0.9,0c-0.6,2.3-1.8,3.2-4,3.2c0.8,0.4,1.8,0.9,2.8,1.3
		c0,0.1,0,0.3,0,0.4c-2.2-0.1-4.5-0.2-6.7-0.4c-1.4-0.2-2.8-0.6-4.2-1c-0.4-0.1-0.8-0.5-0.9-0.9c-0.3-1.7-0.6-3.5-0.6-5.2
		c0-2.9,0.3-5.8,1.5-8.5c0.1-0.3,0.4-0.8,0.7-0.9c3.6-1.3,7.2-2.1,11-1.6c0.1,0,0.2,0.1,0.4,0.2C51.8,44.2,51.8,44.2,53,46.3z"/>
	<path fill="#FFFFFF" d="M87.9,58.4c-0.3,0-0.6,0.1-1,0.1c-1.3,0.2-2.5,0.5-2.9,2c-0.1,0.2-0.3,0.4-0.5,0.6c-0.1,0-0.2,0-0.3,0
		c-0.2-1.3-0.3-2.7-0.5-4c1.8-0.4,3.5-0.7,5.1-1.1c0.5-0.1,1.1-0.3,1.1-1.1c0-0.7-0.1-1.2-0.9-1.3c-1.4-0.3-2.8-0.5-4.3-0.8
		c-0.5-0.1-1-0.3-1.5-0.4c-0.1-2.8,0.3-5.5,1.3-8.1c0.1-0.2,0.3-0.5,0.6-0.6c3.4-1.3,6.9-1.6,10.5-1.6c0.1,0.8,0.2,1.5,0.3,2.2
		c0,0-0.1,0-0.1,0c-0.1-0.3-0.3-0.6-0.4-0.9c-0.3,0.4-0.3,0.4,0.6,2.5c-1.3,0.2-2.5,0.4-3.7,0.5c-0.3,0-0.6,0.1-0.9,0.1
		c-1.4,0.2-2,1-1.8,2.5c0,0.2,0.4,0.5,0.7,0.6c1.7,0.4,3.3,0.7,5,1c0.6,0.1,0.9,0.4,1.1,1c0.4,1.9,0.3,3.8-0.4,5.7
		c-0.2,0.7-0.7,1-1.3,0.7c-0.7-0.3-1,0.1-1.3,0.6c-0.3,0.3-0.7,0.6-1,0.8c-0.1-0.1-0.1-0.1-0.2-0.2c0.1-0.5,0.1-1.1,0.2-1.7
		C89.8,57.8,88.8,58.1,87.9,58.4C87.9,58.4,87.9,58.4,87.9,58.4z"/>
	<path fill="#FFFFFF" d="M30.8,73.2c-0.5,0.1-0.9,0.3-1.4,0.4c-1,0.1-1.9,0.1-2.9,0.2c-0.1-1.4-0.2-2.8-0.3-4.3c0-0.8,0-1.6,0-2.6
		c-1.4-0.5-3.1-0.7-4.8-0.1c-0.3,0.1-0.7,0.7-0.8,1.1c-0.1,1.6-0.1,3.2-0.1,4.8c0,0.8-0.2,1.1-1.1,1.1c-1.2,0-2.5,0.2-3.8,0.4
		c0-1.1-0.1-2.4,0-3.7c0.1-1.3-0.5-2.8,1.2-3.8c-2-0.3-2.9,0-3.7,1.2c0.1-1.2,0.2-2.4,0.3-3.5c0-0.2,0.4-0.4,0.6-0.4
		c4.5-0.6,9-1.1,13.5-0.5c0.3,0,0.6,0,0.9,0c1.2-0.1,1.4,0.1,1.5,1.4c0,0.3,0.2,0.7,0.5,0.9c2,1.7,2,4,2.1,6.3
		c0,0.4-0.2,0.9-0.5,1.3C31.7,73.7,31.2,73.8,30.8,73.2c0.3-0.1,0.7-0.2,0.9-0.4c0.2-0.1,0.4-0.5,0.3-0.7c-0.2-0.6-0.4-1.1-0.6-1.4
		C31.3,71.4,31,72.3,30.8,73.2z"/>
	<path fill="#FFFFFF" d="M64.4,55.9c-0.4,1.3-1,2.4-2.2,2.9c0.7,0.4,1.3,0.7,2,1c0,0.1-0.1,0.3-0.1,0.4c-1.3-0.1-2.5,1.1-3.8-0.1
		c-0.1-0.1-0.4,0-0.5,0.1c-0.9,0.8-1.9,0.6-3,0.6c-0.9,0-1.7,0-2.8,0c0-6,0-11.9,0-18c1.9-0.1,3.8-0.3,5.9-0.4c0,1.9,0,3.6,0,5.4
		c0,2.4,0,4.7,0,7.1c0,0.8,0.4,1.1,1,1.1C61.9,55.9,63,55.9,64.4,55.9z"/>
	<path fill="#FFFFFF" d="M65.5,71.8c-0.6,1.1-1.6,1.5-2.9,1.4c-1.7-0.1-3.4-0.1-5.1-0.1c-0.4,0-0.8,0.5-1.4,0.8
		c-1.9-3.8-3.8-7.5-5.8-11.4c0.5,0,0.8-0.1,1.1,0c1.2,0.6,2.4,0.4,3.6,0.1c0.8-0.1,1.4-0.1,1.7,0.9c0.1-0.5,0.3-0.9,0.4-1.3
		c0.1,0,0.2,0,0.3,0c1.2,2.7,2.3,5.4,3.5,8c0.2,0,0.3,0,0.5,0c0.4-0.7,0.9-1.3,1.3-2c0.8-1.7,1.5-3.5,2.2-5.3
		c0.3-0.7,0.6-0.8,1.3-0.7c1.2,0.2,2.4,0.3,3.8,0.5c-1.2,2.3-2.3,4.4-3.4,6.6c-0.3,0.6-0.6,1.2-0.8,1.8
		C65.8,71.4,65.6,71.6,65.5,71.8z"/>
	<path fill="#FFFFFF" d="M88.6,84.5c-0.1-0.6-0.2-1.2-0.2-1.8c-0.1-6.1-0.2-12.3-0.3-18.4c0-1.5,0-1.4,1.4-1.3c1.6,0.1,3.2,0,4.8,0
		c0.4,2.7,0.2,16.2-0.3,16.8c0-5.5,0-10.9,0-16.3c-0.1,0-0.2,0-0.3,0c0,1.5,0,2.9,0,4.4c0,0.9,0,1.8-0.1,2.7c0,0.3-0.5,0.6-0.8,0.8
		c-0.3,0.2-0.8,0.1-1.2,0.2c-2.5,0.4-2.6,0.7-1.9,3.3c1.1-0.3,2.2-0.6,3.6-1c0,1.3,0,2.6,0,4c0,2.4,0,2.4,2.4,2.4c0.4,0,0.9,0,1.4,0
		c0,1,0,1.9,0,2.8c0,0.2-0.5,0.5-0.7,0.5c-2,0-3.9,0-5.9,0c-0.3,0-0.6,0.2-0.7,0.3c-0.3,0.3-0.4,0.6-0.7,1
		C88.9,84.6,88.7,84.6,88.6,84.5z"/>
	<path fill="#FFFFFF" d="M35.1,73.7c0.1-1.7,0.1-3.3,0.3-5c0-0.4,0.3-0.7,0.5-1c0.7-0.9,1.4-1.8,2-2.7c0.4-0.5,0.7-0.9,1.5-0.4
		c0.4,0.3,1.1,0,1.7,0c2.4-0.1,4.9-0.1,7.3-0.2c0.4,0,0.8-0.2,1.3-0.3c2.3,2.4,3.6,5.3,3,8.7c-1-0.5-0.9-0.5-0.7-1.6
		c0.1-0.8-0.3-1.6-0.4-2.4c-0.1,0-0.2,0-0.3,0c0,1,0,1.9,0.1,2.9c0.1,0.8-0.2,1.1-1,1.1c-1.3,0-2.6,0.2-4,0.4c0-1.5,0-3.3,0-5.3
		c-0.4,0-0.9-0.2-1.5-0.1c-0.9,0.1-1.8,0.3-2.7,0.4c-1.3,0.2-1.9,1-2,2.2c-0.1,0.8,0.1,1.8-0.3,2.3c-0.4,0.4-1.5,0.1-2.3,0.3
		C36.8,73.2,36,73.5,35.1,73.7z"/>
	<path fill="#FFFFFF" d="M39.9,76c0,1,0,1.9,0,2.9c0,2.2,1.4,3.3,3.5,2.7c0.9-0.3,1.8-0.9,2.6-1.4c0.3-0.2,0.3-0.7,0.4-1
		c0.1-1,0.1-1.9,0.2-2.9c0.1-0.6,0.4-0.9,1-0.7c1.5,0.7,2,0.8,3.6,0.4c0,2,0.3,3.9-0.8,5.8c-0.9,1.6-2.1,2.4-4,2.6
		c-2.5,0.3-5,0.2-7.5-0.1c-0.4-0.1-0.9-0.5-1.2-0.8c-0.3-0.3-0.6-0.8-0.9-1.3c-0.2,1.2,1.9,1.8,0.5,3.2c-1.3-1.4-2-3-2.2-4.8
		c-0.1-1.3,0-2.6,0-3.9c0-0.6,0.4-1.1,0.8-0.8c1.1,0.6,2.1,0.1,3.2,0.2C39.3,76.1,39.5,76,39.9,76z"/>
	<path fill="#FFFFFF" d="M31.3,81.2c0.5,1.2,1.4,1.1,2.5,0.8c0.2,1,0.3,1.9,0.5,2.9c-1.9,0-3.8,0.1-5.6,0c-0.5,0-1-0.6-1.3-1
		c-0.9-1.6-1.8-3.2-2.6-4.9c-0.4-0.9-1-1.2-1.9-1.2c-2.9,0-2.9,0-2.8,2.9c0,1.1,0,1.1,1,1.7c-0.1,0.8-0.2,1.7-0.2,2.6
		c-2.2,0-4.3,0-6.4,0c-0.5,0-1,0.3-1.5,0.4c0.1-0.9,0.3-2,0.4-3c0.8-0.1,1.5-0.1,2.4-0.2c0-1.9,0-3.7,0-5.5c0.1,0,0.2-0.1,0.3-0.1
		c1.8,1.8,3.9,0.9,5.9,0.9c0.9,0,1.9,0,2.8,0c1.2-0.1,2.5-0.3,3.9-0.4c0.7,1.1,1.5,2.4,2.3,3.7C31.1,80.8,31.2,81,31.3,81.2z
		 M16.1,83.4c-0.1-0.2-0.2-0.3-0.3-0.5c-0.7,0.4-1.4,0.7-2.1,1.1c0.1,0.1,0.1,0.2,0.2,0.4C14.7,84,15.4,83.7,16.1,83.4z"/>
	<path fill="#FFFFFF" d="M63.2,75.7c0,1.8,0,3.5,0,5.3c0,1.6,0,1.6,1.6,1.9c0,0.1,0.1,0.2,0.1,0.3c0.1,1.9,0.1,2-1.8,2
		c-1.9,0-3.8,0-5.6,0c-0.6,0-1.1,0.2-1.7,0.3c0-0.9,0-1.9,0-3c0.6,0,1.3,0.1,2,0.1c0.1-0.1,0.1-0.2,0.2-0.3
		c-0.2-0.1-0.5-0.1-0.5-0.2c0-2,0-3.9,0-5.9c0,0,0.6-0.1,1-0.1c1.2,0.1,2.5,0.2,3.7,0.2C62.5,76.4,62.8,76,63.2,75.7z"/>
	<path fill="#FFFFFF" d="M66.4,82.4c-1-0.4-1-1.3-0.5-2.3c1.3-2.5,2.6-4.9,3.9-7.3c0.1,0,0.2,0,0.3,0c0,0.4,0.1,0.9,0,1.3
		c-0.5,2.2-1.1,4.3-1.7,6.5c-0.1,0.3-0.4,0.6-0.6,0.8C67.4,81.7,66.9,82,66.4,82.4z"/>
	<path fill="#FFFFFF" d="M47.9,55.7c0.2-1,0.2-1.8,0.4-2.5c0.1-0.3,0.5-0.6,0.8-0.6c1.3-0.2,2.5-0.4,4-0.6c0.1,1.1,0.1,2.1,0.2,3.2
		C51.4,55.3,49.7,55.5,47.9,55.7z"/>
	<path fill="#FFFFFF" d="M45.6,74.3c0,1.6,0.1,3.2,0,4.9c-0.1,0.9-0.9,1.1-1.8,1.2c0-0.8,0-1.6,0-2.5c0-0.6,0.1-1.2,0.1-1.8
		C43.9,74.5,43.9,74.5,45.6,74.3z"/>
	<path fill="#FFFFFF" d="M112.9,78.2c-0.9,0.1-1.7,0.1-2.5,0.2c0-1.2,0-2.2,0-3.2c0.9-0.2,1.7-0.5,2.5-0.7
		C112.9,75.5,112.9,76.8,112.9,78.2z"/>
	<path fill="#FFFFFF" d="M103.1,59.1c0.7,0,1.3,0,2.1,0c0,1.3,0,2.6,0,3.9c-0.7,0-1.4,0-2.1,0C103.1,61.7,103.1,60.4,103.1,59.1z"/>
	<path fill="#FFFFFF" d="M24.1,78.6c0.8,1.5,1.7,3,2.5,4.5c0.3,0.5,0.6,1,0.9,1.6c0.1,0.3,0,0.6-0.1,0.9c-0.3-0.1-0.7-0.1-0.8-0.3
		c-1.1-1.9-2.1-3.8-3.1-5.7c-0.1-0.2,0.1-0.6,0.1-0.9C23.8,78.6,23.9,78.6,24.1,78.6z"/>
	<path fill="#FFFFFF" d="M65.5,71.8c0.1-0.2,0.2-0.5,0.4-0.7c1-1.5,1.9-3,2.9-4.5c0.1,0.1,0.2,0.1,0.3,0.2c-0.8,2.4-2.3,4.4-3.4,6.7
		C64.9,73,64.9,73,65.5,71.8z"/>
	<path fill="#FFFFFF" d="M63.1,65.6c-0.6,1.2-1,2.3-1.6,3.7c-0.6-1.3-1.1-2.3-1.6-3.4C61,65.8,62,65.8,63.1,65.6z"/>
	<path fill="#FFFFFF" d="M40.7,71.6c0.1,0.2,0.2,0.4,0.3,0.5c0.1,0,0.2,0,0.2,0c0.1-1,0.2-2.1,0.3-3.3c0.5,0,1.3,0.1,2,0.2
		c-2.6,0.5-1.7,2.7-2,4.3C40.7,72.9,40.2,72.5,40.7,71.6z"/>
	<path fill="#FFFFFF" d="M31.3,81.2c-0.1-0.2-0.3-0.4-0.4-0.6c-0.3-0.9-0.7-1.7-1-2.6c0.1,0,0.2-0.1,0.2-0.1
		c0.7,1.2,1.4,2.5,2.2,3.7c-0.1,0.1-0.1,0.2-0.2,0.2C31.8,81.6,31.6,81.4,31.3,81.2z"/>
	<path fill="#FFFFFF" d="M72.4,62.8c1.3-0.2,2.4-0.5,3.4,0.3C73.6,63.9,72.7,63.8,72.4,62.8z"/>
	<path fill="#FFFFFF" d="M34.2,78.5c0,0.9,0,1.7,0,3c-0.5-0.4-0.8-0.5-1-0.8C32.6,79.5,33.8,79.2,34.2,78.5z"/>
	<path fill="#FFFFFF" d="M87.9,58.4c0.3,0.1,0.6,0.2,1.1,0.4c-0.9,0.7-1.5,1.2-2.3,1.7C86.3,59.3,86.4,59.2,87.9,58.4
		C87.9,58.4,87.9,58.4,87.9,58.4z"/>
	<path fill="#FFFFFF" d="M22,68.9c0,1.6,0,3.2,0,4.8c-0.1,0-0.2,0-0.3,0C21.8,72.1,21.9,70.5,22,68.9C21.9,68.9,22,68.9,22,68.9z"/>
	<path fill="#FFFFFF" d="M108.4,73.4c-1.2,0-2.4,0-3.6,0c0-0.1,0-0.1,0-0.2c1.2,0,2.4,0,3.6,0C108.4,73.3,108.4,73.3,108.4,73.4z"/>
</g>
</svg>
