<?xml version="1.0" encoding="utf-8"?>
<!-- Generator: Adobe Illustrator 24.3.0, SVG Export Plug-In . SVG Version: 6.00 Build 0)  -->
<svg version="1.1" id="Layer_1" xmlns="http://www.w3.org/2000/svg" xmlns:xlink="http://www.w3.org/1999/xlink" x="0px" y="0px"
	 viewBox="0 0 126 126" enable-background="new 0 0 126 126" xml:space="preserve">
<g>
	<g>
		<polygon fill="#DA4722" points="113,95.5 13,95.5 38.6,24.1 82.4,24.1 		"/>
	</g>
	<g>
		<rect x="13" y="95.5" fill="#B62218" width="100" height="6.4"/>
	</g>
	<g>
		<path fill="#FFFFFF" d="M69.3,33c0,1.9-3.6,3.5-8,3.5c-4.4,0-8-1.6-8-3.5c0-1.9,3.6-3.5,8-3.5C65.7,29.5,69.3,31.1,69.3,33z"/>
	</g>
	<g>
		<path fill="#494843" d="M68.2,33c0,1.7-3.1,3-6.9,3c-3.8,0-6.9-1.4-6.9-3c0-1.7,3.1-3,6.9-3C65.1,30,68.2,31.4,68.2,33z"/>
	</g>
	<g>
		<path fill="#B62218" d="M54.8,32.1h13C67,30.9,64.4,30,61.3,30C58.3,30,55.7,30.9,54.8,32.1z"/>
	</g>
	<g>
		<path fill="#1F1E1C" d="M61.3,30.7c3.5,0,6.4,1.2,6.8,2.7c0-0.1,0-0.2,0-0.4c0-1.7-3.1-3-6.9-3c-3.8,0-6.9,1.4-6.9,3
			c0,0.1,0,0.2,0,0.4C54.9,31.9,57.8,30.7,61.3,30.7z"/>
	</g>
	<g>
		<path fill="#FFFFFF" d="M63.2,35.9C62.6,36,62,36,61.3,36c-0.8,0-1.6-0.1-2.3-0.2L13,95.8h99.8L63.2,35.9z"/>
	</g>
	<g>
		<polygon fill="#DA4722" points="61.5,40.9 21.4,95.8 103.7,95.8 		"/>
	</g>
</g>
</svg>
