<?xml version="1.0" encoding="utf-8"?>
<!-- Generator: Adobe Illustrator 24.3.0, SVG Export Plug-In . SVG Version: 6.00 Build 0)  -->
<svg version="1.1" id="Layer_1" xmlns="http://www.w3.org/2000/svg" xmlns:xlink="http://www.w3.org/1999/xlink" x="0px" y="0px"
	 viewBox="0 0 126 126" enable-background="new 0 0 126 126" xml:space="preserve">
<g>
	<path fill="#FFFFFF" d="M13,16.2h100v93.6H13V16.2z"/>
	<path fill="#1D2C49" d="M19.1,21.8h42.7c0,0-2.4,1.7-2.9,3.9s-0.4,3.7,0,4.8c0,0,0,0.5-0.3,0.9s-0.3-0.8-1.7-0.7
		c-1.4,0.1-3.3-0.4-5.9,4.3c0,0-0.8,2.2-1,4c-0.1,1.9-0.3,4.4-0.1,5.1s-2.7,0.5-2.7,0.5s-0.7,0.2-0.8,0.5c-0.1,0.3,0,1.9,0,2.8
		c0,0.9-0.2,1.4-0.3,2.3c-0.1,0.8-0.6,1.6-0.5,2.6s1.6,1,2.5,1.1s0.8,0.3,0.3,0.4c-0.5,0.1-1.9,0.2-1.9,1.9c0.1,1.8,0.6,5.9,0.7,7
		c0.1,1.1-0.8,0.1-0.7,0.4c0.1,0.3-0.4-0.2-0.7,1.1s0.1,1,0.2,1.2c0.1,0.2,0.3,0.2,0.3,0.2L46,66.6l-0.1,0.7l0.2,0.5l0.2,0.2
		c0,0-0.5,0.6,0,1.3c0.6,0.7,0.3,0.4,0.2,1s-1.2,5.3-0.9,7.4s-0.7,2.7-1.1,3.6c-0.4,0.9-3,4.9-2.9,5.8s-0.2,1.9-0.5,2.4
		s-1.5,1.8-1.4,3s0.1,1.5,0.7,2c0,0-0.5,1.8-0.7,2.5s-0.9,3.6-1.1,4.2c-0.1,0.5-0.4,1.5-0.3,2l-0.1,0.2H19.1V21.8z M44.9,103.3h22.8
		c0,0,0.2-2.7,0.8-3.9c0.6-1.2,0.5-2.7,0.4-3.7s0.1-2.7-0.7-3.1l-0.1-1.2c0,0-0.8-1.8-0.6-2.3c-0.1-0.5-0.2-4.9-0.2-4.9
		s0.2-0.8,0.7-1.1c0.1-0.4,0.2-2.8-0.2-3.3S67,79.3,66,79.2s-0.4,1-3.8-4.2c-0.6-1-1.2-1.9-1.4-2.3s-0.7-0.4-1.3-0.4
		c-0.6-0.1-0.7-0.1-1.3-1.1l-0.5-1c0,0-0.1-0.3-0.7,1.4s-1.1,0-2.2,4.3c-0.7,1.4-0.7,1.6-0.8,3.6c-0.3,1-0.8,1.2-1.4,1.6
		c-0.6,0.4-0.7,1.4-0.9,1.7C51.3,83,50.5,83,50,84.6s-0.5,0.7-0.1,2.2c0,0-0.7,2.6-1.1,3.2c-0.4,0.6-1.1,2.3-1.3,3
		c-0.2,0.8-1,1.9-1.7,2c-0.6,0.1-1.3,2.4-1.4,3c-0.1,0.6-0.3,4,0,4.5C44.7,103.1,44.9,103.3,44.9,103.3z"/>
	<path fill="#F5A216" d="M67.9,21.8H107v81.5H81.1c0,0-0.2-0.2-0.4-0.7c-0.2-0.5-2.5-1.4-3.2-1.6s-2-2.4-2.5-2.9
		c-0.3-0.4-0.3-0.8-0.3-0.8l-0.3-4.4c0,0,0-0.3,0.2-0.6c0.2-0.2,0.6-0.8,0.5-1.3s-0.2-2.4-0.3-2.7s-0.1-0.7-0.1-0.9
		c0-0.2,0.3-0.9,0.3-1.1s0.7-5.1,0.6-5.4s0-2.8-0.4-3.1s-0.1-1.4-0.2-1.6s-0.6,0.1-0.8-0.6c-0.2-0.6-2.1-5-2.1-5L71,68.2
		c0,0-3.4-4.8-3.8-5.2s-0.5-2.7-0.1-3.3s0.5,0.1,0.6,0.1c0,0,1,0.6,1.4,0.2s1.4-2,1.4-2.6s0.3-6.7,0.1-7c-0.1-0.3-0.2-1.3-1.3-1.7
		c-1.1-0.4,0-0.8,0-1.4s-0.2-1,0.2-0.7c0.4,0.3,4.9,2.8,5.5,2.8c0.6,0.1,0.7,0.1,1.1,0.1s0.9,0.5,1.1,0.4c0.2,0,0.9,0,2.4-1.2
		c1.5-1.2,1.7-1.1,2.1-2.4s0.2-3.1,1-3.2c0.8-0.1,1.4,0.5,0.6-2.1c-0.4-2.5-0.3-2.6,0.1-2.6c0.3-0.2,0.2-0.1,0.9-0.9
		s0.7-0.8,0.8-0.9v-0.4c0,0,0.2-0.1,0.3-0.2c0.1-0.1,0.4-0.2,0.5-0.2s-0.1-0.2,0.2-0.2h7.4v-0.7c0,0,0-0.2,0.2-0.2s0.3,0,0.3,0.1
		c0.1,0.1,1.5,0,1.5,0s0.3-0.2,0.7-0.2h4.6c0,0,0.1,0.4,0.3,0.4c0.2,0,0.5,0.1,0.5-0.2h2.5c0,0,0.1,0,0.1-0.6c0-0.5,0-0.4-1.7-0.4
		h-0.8c0,0,0.1-0.2-0.3-0.2s-0.6,0.2-0.6,0.3s-0.2,0.1-0.2,0.1h-4.7c0,0-0.2,0-0.2-0.7c0.1-0.7-0.2-1-0.4-0.8
		c-0.2,0.2-0.4,0.2-0.4,0.3c0,0-0.2-0.2-0.3-0.5v-2.5c0,0-0.1-0.4-0.3-0.3c-0.2,0.1-0.4,0-0.5,0.1v3.2c0,0-0.2,0.2-0.4,0
		c-0.1-0.2-0.3-0.1-0.2-0.4c0-0.3-0.2-0.5-0.2-0.5H75.4c0,0-0.1-0.8-0.2-0.8c-0.1,0.1-1.1,0.1-1.1,0.1v-1.4c0,0-0.1-0.4-0.4-0.2
		c-0.3,0-0.2,1.2-0.3,1.4c0,0.1-0.2,0.1-0.2,0.1v0.5l-1,0.1c0,0-1.3,0.2-1.5,0.4c-0.2,0.1-0.9,0.2-0.9,0.2l-0.3,0.1
		c0,0-0.2-0.6-0.2-0.7V31l-0.1-0.2c-0.1-0.4-0.1-0.7-0.1-0.7s1.7-0.6,2-1.2c0.3-0.5,0.3-2.6,0-3.5c-0.3-0.8-0.4-1.1-0.4-1.3
		c0-0.2-0.1-0.9-0.1-0.9S69.5,23,69,22.8s-1.3-0.7-1.3-0.7L67.9,21.8z"/>
</g>
</svg>
