<?xml version="1.0" encoding="utf-8"?>
<!-- Generator: Adobe Illustrator 24.3.0, SVG Export Plug-In . SVG Version: 6.00 Build 0)  -->
<svg version="1.1" id="Layer_1" xmlns="http://www.w3.org/2000/svg" xmlns:xlink="http://www.w3.org/1999/xlink" x="0px" y="0px"
	 viewBox="0 0 126 126" enable-background="new 0 0 126 126" xml:space="preserve">
<g>
	<g id="design">
		
			<radialGradient id="SVGID_1_" cx="114.8836" cy="-146.4231" r="66.58" gradientTransform="matrix(0.7883 -0.6152 -0.6152 -0.7883 -132.4983 11.9134)" gradientUnits="userSpaceOnUse">
			<stop  offset="0" style="stop-color:#F7BFB9"/>
			<stop  offset="6.000000e-02" style="stop-color:#F6B8B0"/>
			<stop  offset="0.16" style="stop-color:#F3A195"/>
			<stop  offset="0.29" style="stop-color:#EB7F6B"/>
			<stop  offset="0.44" style="stop-color:#DB4C30"/>
			<stop  offset="0.55" style="stop-color:#CE2817"/>
			<stop  offset="1" style="stop-color:#931914"/>
		</radialGradient>
		<path fill="url(#SVGID_1_)" d="M102.4,32.2c17,21.8,13.1,53.2-8.6,70.2s-53.2,13.1-70.2-8.6s-13.1-53.2,8.6-70.2c0,0,0,0,0,0
			C54,6.6,85.4,10.5,102.4,32.2z"/>
		<polygon fill="#FAC78F" points="110.5,60.2 110.5,60.3 110.5,60.2 		"/>
		<path fill="#FAC78F" d="M100.6,74.3c-0.1,0-0.2,0.1-0.2,0.1C100.4,74.4,100.5,74.3,100.6,74.3z"/>
		<path fill="#FAC78F" d="M103.6,44.5L103.6,44.5c1.3-3.5,1-3.9,0.8-4.2l0,0c0.3-3-0.1-3.5-0.3-3.8l0,0c-0.2-1.2-0.7-2.4-1.4-3.5
			l0,0l0,0l-0.9-1.2l-0.2-0.2l-0.2-0.3l-0.2-0.2c0.5,0.6,0.9,1.2,1.3,1.9c0.2,0.3,0.3,0.6,0.5,0.8c0.3,0.9,0.6,1.8,0.7,2.7
			c0,0.3,0.2,0.7,0.4,1l0,0c0,1-0.1,2-0.2,3c-0.1,0.3,0,0.7,0.1,1c0,0,0,0,0,0s0,0,0,0c-0.1,0.3-0.2,0.8-0.3,1.2
			c-0.2,0.7-0.6,1.4-0.8,2.1c-0.1,0.3-0.2,0.7-0.1,1c0,0,0,0.1,0.1,0.1l0,0c-0.6,1.2-1.4,2.2-2,3.4c-0.2,0.3-0.3,0.6-0.3,1
			c0,0,0,0.1,0.1,0.1l0,0c-0.9,1.2-2,2.3-2.9,3.5c-0.2,0.3-0.4,0.6-0.5,0.9c0,0.1,0,0.1,0,0.2c-1.2,1.2-2.6,2.3-3.8,3.5
			c-0.3,0.3-0.5,0.6-0.6,1c0,0.2,0,0.3,0.2,0.2c-0.1,0-0.1,0-0.2,0c-1.5,1.2-3.1,2.3-4.7,3.5c-0.7,0.6-0.8,0.9-0.8,1
			c0,0.1,0,0.1,0.1,0.1l0,0c-1.7,1.1-3.6,2.1-5.3,3.2c-0.6,0.4-0.8,0.7-0.9,0.9s0,0.2,0,0.2l0,0c-1.9,1-3.8,1.8-5.7,2.8
			c-0.8,0.4-0.9,0.7-1,0.8c0,0.1,0,0.2,0,0.2l0,0c-2,0.8-4,1.5-5.9,2.4c-0.8,0.4-1,0.6-1,0.7c0,0.1,0,0.1,0,0.2l0,0
			c-2,0.7-4,1.2-6,1.9c-0.8,0.3-1,0.5-1,0.6c0,0.1,0,0.1,0,0.2l0,0c-2,0.5-4,0.9-6,1.4c-0.4,0.1-0.8,0.2-1,0.5c0,0.1,0,0.1,0,0.2
			c-2,0.3-4,0.5-5.9,0.8c-0.7,0.2-0.9,0.3-1,0.4c-0.1,0.1-0.1,0.2,0,0.2l0,0c-1.9,0.1-3.8,0.1-5.7,0.2c-0.7,0.1-0.9,0.2-1,0.3
			c0,0.1,0,0.1,0,0.2l0,0c-1.8-0.1-3.6-0.3-5.3-0.4c-0.7,0-0.9,0.1-0.9,0.2c0,0,0,0.1,0,0.2c-1.6-0.3-3.3-0.7-4.9-1
			c-0.3-0.1-0.5-0.1-0.8,0c-0.1,0-0.1,0.1-0.1,0.2c0,0,0,0,0,0l0,0c-1.2-0.4-2.8-1-4-1.5c-0.5,0-0.8,0.1-0.8,0.2h-0.1
			c-1.5-0.8-2.9-1.7-4.2-2.8c-0.1-0.1-0.1-0.1-0.2-0.2c-0.4-0.3-0.4-0.1-0.4,0c0,0.1,0,0.1,0.1,0.2c0,0,0-0.1-0.1-0.2
			c-0.9-0.9-1.6-1.8-2.3-2.8c-0.2-0.3-0.3-0.3-0.3-0.3c0,0.1,0,0.1,0,0.2c0,0,0,0,0-0.1c-0.7-1.1-1.3-2.3-1.8-3.6
			c0-0.1-0.1-0.2-0.1-0.3l0,0l-0.3-1.8v0.3c0,0.1,0,0.3,0.1,0.4v-0.1v0.3c0.1,0.9,0.3,1.8,0.6,2.7c0,0,0,0,0-0.1l0,0
			c1,2.6,1.6,3.2,1.7,3.4c0.1,0.1,0.2,0.1,0.2,0l0,0c0.7,0.9,1.5,1.8,2.4,2.6c0.3,0.2,0.7,0.4,0.7,0.2l0,0c1,0.7,2.2,1.6,3.3,2.2
			c0.5,0.3,0.9,0.3,0.9,0.1c0,0,0,0,0-0.1c5.2,2.2,6.4,2.1,6.4,1.7l0,0c1.6,0.4,3.2,0.7,4.9,0.9c0.5,0.1,1.1-0.1,1.1-0.3l0,0
			c3.8,0.3,5.3,0.3,5.3,0.3c0.6,0,1.2-0.2,1.2-0.5l0,0c6.6-0.2,6.9-0.5,6.8-0.9l0,0c6.5-0.8,7.1-1.1,7.1-1.6l0,0
			c4.1-0.9,5.5-1.3,5.9-1.4c0.7-0.2,1.3-0.6,1.2-0.8l0,0c4.1-1.2,5.5-1.8,5.9-1.9c0.7-0.3,1.2-0.7,1.2-1l0,0c6.7-2.6,7-2.9,6.9-3.4
			l0,0c6.5-3.1,6.7-3.5,6.5-4l0,0c6.3-3.8,6.2-4,6-4.5l0,0c5.4-4,5.3-4.2,5.1-4.6l0,0c1.3-1.1,2.4-2.2,3.6-3.4
			c0.3-0.4,0.6-1,0.5-1.2l0,0c3.4-3.9,3.2-4.2,3-4.6l0,0C104.1,45.2,103.9,44.9,103.6,44.5z"/>
		<path fill="#FAC78F" d="M107.9,50.9L107.9,50.9c1.4-3.5,1.1-3.9,0.8-4.2l0,0c0.3-3-0.1-3.5-0.3-3.8l0,0c-0.2-1.2-0.7-2.4-1.5-3.5
			l0,0l0,0l-1-1.4l-0.2-0.2l-0.2-0.3l-0.2-0.2c0.5,0.6,0.9,1.2,1.3,1.9c0.2,0.3,0.3,0.6,0.6,0.8c0.4,0.9,0.6,1.8,0.7,2.7
			c0,0.4,0.2,0.7,0.4,1l0,0c0,1-0.1,2-0.2,3c-0.1,0.3,0,0.7,0.1,1l0,0l0,0c-0.1,0.3-0.2,0.8-0.3,1.2c-0.3,0.7-0.6,1.4-0.8,2.1
			c-0.1,0.3-0.2,0.7-0.1,1c0,0,0,0,0,0l0,0c-0.7,1.2-1.4,2.2-2.1,3.4c-0.2,0.3-0.3,0.6-0.3,1c0,0,0,0.1,0.1,0.1l0,0
			c-1,1.2-2,2.3-3,3.5c-0.2,0.3-0.4,0.6-0.5,0.9c0,0.1,0,0.1,0.1,0.2c-1.3,1.2-2.6,2.3-3.9,3.5c-0.3,0.3-0.5,0.6-0.7,1
			c0,0.2,0,0.3,0.2,0.2c-0.1,0-0.1,0-0.2,0c-1.6,1.2-3.2,2.3-4.8,3.5c-0.7,0.6-0.8,0.9-0.8,1c0,0.1,0,0.1,0.1,0.1l0,0
			c-1.8,1.1-3.7,2.1-5.5,3.2c-0.6,0.4-0.9,0.7-0.9,0.9c0,0.1,0,0.2,0,0.2l0,0c-1.9,1-3.9,1.8-5.8,2.8c-0.8,0.4-1,0.7-1,0.8
			s0,0.2,0,0.2l0,0c-2,0.8-4.1,1.5-6.1,2.4c-0.8,0.4-1,0.6-1,0.7c0,0.1,0,0.1,0,0.2l0,0c-2.1,0.7-4.2,1.2-6.2,1.9
			c-0.8,0.3-1,0.5-1.1,0.6s-0.1,0.2,0,0.2l0,0c-2.1,0.5-4.2,0.9-6.2,1.4c-0.4,0.1-0.8,0.2-1.1,0.5c0,0.1,0,0.1,0,0.2
			c-2,0.3-4.1,0.5-6.1,0.8c-0.4,0-0.7,0.2-1,0.4c-0.1,0.1-0.1,0.2,0,0.2l0,0c-2,0.1-3.9,0.1-5.9,0.2c-0.8,0.1-1,0.2-1,0.3
			c0,0.1,0,0.1,0,0.2l0,0c-1.8-0.1-3.7-0.3-5.5-0.4c-0.7,0-0.9,0.1-1,0.2c0,0,0,0.1,0,0.2c-1.7-0.3-3.4-0.7-5.1-1
			c-0.3-0.1-0.5-0.1-0.8,0c-0.1,0-0.1,0.1-0.1,0.2c0,0,0,0,0,0l0,0c-1.3-0.4-2.9-1-4.1-1.5c-0.5,0-0.8,0.1-0.8,0.2h-0.1
			c-1.6-0.8-3-1.7-4.4-2.8l-0.2-0.2c-0.4-0.2-0.5-0.1-0.4,0c0,0.1,0,0.1,0.1,0.2c0,0,0-0.1-0.1-0.2c-1-0.9-1.9-1.9-2.7-3
			c-0.2-0.3-0.3-0.3-0.3-0.3c0,0.1,0,0.1,0,0.2c0,0,0,0,0-0.1c-0.6-1-1.1-2.1-1.4-3.2c0-0.1-0.1-0.2-0.1-0.3l0,0l-0.3-1.8v0.3
			c0,0.1,0,0.3,0.1,0.4v-0.1v0.3c0.1,0.9,0.4,1.8,0.7,2.7v-0.1l0,0c1.1,2.6,1.6,3.2,1.8,3.4s0.2,0.1,0.2,0l0,0
			c0.8,0.9,1.6,1.7,2.5,2.5c0.3,0.2,0.7,0.4,0.7,0.2l0,0c1,0.7,2.3,1.6,3.4,2.2c0.5,0.3,0.9,0.3,0.9,0.1s0,0,0-0.1
			c5.4,2.2,6.6,2.1,6.6,1.7l0,0c1.6,0.4,3.3,0.7,5,0.9c0.5,0,1.2-0.1,1.1-0.3l0,0c3.9,0.3,5.5,0.3,5.5,0.3c0.6,0,1.2-0.2,1.2-0.5
			l0,0c6.8-0.2,7.1-0.5,7.1-0.9l0,0c6.7-0.8,7.4-1.1,7.3-1.6l0,0c4.3-1.1,5.7-1.5,6.1-1.7c0.7-0.2,1.3-0.6,1.3-0.8l0,0
			c4.3-1.2,5.7-1.8,6.1-1.9c0.7-0.3,1.3-0.7,1.2-1l0,0c6.9-2.6,7.2-2.9,7.1-3.4l0,0c6.7-3.1,6.9-3.5,6.7-4l0,0
			c6.5-3.8,6.4-4,6.2-4.4l0,0c5.6-4,5.5-4.2,5.3-4.6l0,0c2.8-2.4,3.6-3.3,3.7-3.4c0.3-0.4,0.6-1,0.5-1.2l0,0
			c3.5-3.9,3.3-4.2,3.1-4.6l0,0C108.3,51.6,108.1,51.3,107.9,50.9z"/>
		<path fill="#FAC78F" d="M106.1,47.5L106.1,47.5c1.3-3.5,1-3.9,0.8-4.2l0,0c0.3-3-0.1-3.5-0.3-3.8l0,0c-0.2-1.2-0.7-2.4-1.4-3.5
			l0,0l0,0l-0.9-1.2l-0.2-0.2l-0.2-0.3l-0.2-0.2c0.5,0.6,0.9,1.2,1.3,1.9c0.2,0.3,0.3,0.6,0.6,0.8c0.4,0.9,0.6,1.8,0.7,2.7
			c0,0.4,0.2,0.7,0.4,1l0,0c0,1-0.1,2-0.2,3c-0.1,0.3,0,0.7,0.1,1h0.1l0,0c-0.1,0.3-0.2,0.8-0.3,1.1c-0.3,0.7-0.6,1.4-0.8,2.1
			c-0.1,0.3-0.2,0.7-0.1,1c0,0,0,0.1,0.1,0.1l0,0c-0.6,1.2-1.4,2.2-2.1,3.4c-0.2,0.3-0.3,0.6-0.3,1c0,0,0,0.1,0.1,0.1l0,0
			c-1,1.2-2,2.3-3,3.5c-0.2,0.3-0.4,0.6-0.5,0.9c0,0.1,0,0.1,0,0.2c-1.2,1.2-2.6,2.3-3.9,3.5c-0.3,0.3-0.5,0.6-0.7,1
			c0,0.2,0,0.3,0.2,0.2c-0.1,0-0.1,0-0.2,0c-1.6,1.2-3.2,2.3-4.8,3.5c-0.7,0.6-0.8,0.9-0.8,1c0,0,0,0.1,0.1,0.1l0,0
			c-1.8,1.1-3.6,2.1-5.4,3.2c-0.4,0.2-0.7,0.5-0.9,0.9c0,0.1,0,0.2,0,0.2l0,0c-1.9,1-3.9,1.8-5.8,2.8c-0.8,0.4-1,0.7-1,0.8
			s0,0.2,0,0.2l0,0c-2,0.8-4,1.5-6,2.3c-0.8,0.4-1,0.6-1,0.7s0,0.2,0,0.2l0,0c-2,0.7-4.1,1.2-6.1,1.9c-0.8,0.3-1,0.5-1.1,0.6
			c0,0.1,0,0.1,0,0.2l0,0c-2,0.5-4.1,0.8-6.2,1.4c-0.7,0.2-1,0.4-1.1,0.5s-0.1,0.1,0,0.2c-2,0.3-4.1,0.5-6.1,0.8
			c-0.7,0.1-1,0.3-1,0.4c-0.1,0.1-0.1,0.2,0,0.2l0,0c-1.9,0.1-3.9,0.1-5.8,0.2c-0.8,0.1-1,0.2-1,0.3c0,0.1,0,0.1,0,0.2l0,0
			c-1.8-0.1-3.6-0.3-5.5-0.4c-0.7,0-0.9,0.1-0.9,0.2c0,0.1,0,0.1,0,0.2c-1.7-0.3-3.4-0.7-5-1c-0.3-0.1-0.5-0.1-0.8,0
			c-0.1,0-0.1,0.1-0.1,0.2c0,0,0,0,0,0l0,0c-1.2-0.4-2.9-1-4.1-1.5c-0.5,0-0.8,0.1-0.8,0.2H24c-1.5-0.8-3-1.7-4.3-2.8L19,80.1
			c-0.4-0.3-0.5-0.1-0.4,0c0,0.1,0,0.1,0.1,0.2c0,0-0.1-0.1-0.1-0.2c-0.9-0.9-1.7-1.8-2.4-2.8C16,77,16,77,15.9,77
			c0,0.1,0,0.1,0,0.2c0,0,0,0,0-0.1c-0.6-1-1.1-2.1-1.4-3.2c-0.1-0.3-0.1-0.3-0.1-0.3l0,0L14,71.8v0.3c0,0.1,0.1,0.3,0.1,0.4v-0.1
			v0.3c0.1,0.9,0.3,1.8,0.7,2.7c0,0,0-0.1,0-0.1l0,0c1.1,2.6,1.6,3.2,1.8,3.4s0.2,0.1,0.2,0l0,0c0.7,0.9,1.5,1.8,2.4,2.6
			c0.3,0.3,0.7,0.4,0.7,0.2l0,0c1,0.7,2.3,1.6,3.3,2.2C23.6,84,24,84,24,83.9c0,0,0,0,0-0.1c5.3,2.2,6.5,2.1,6.5,1.7l0,0
			c1.6,0.4,3.3,0.7,5,0.9c0.5,0,1.1-0.1,1.1-0.3l0,0c1.8,0.2,3.6,0.3,5.4,0.3c0.6,0,1.2-0.2,1.2-0.5l0,0c6.7-0.2,7-0.5,7-0.9l0,0
			c6.7-0.8,7.3-1.1,7.2-1.6l0,0c4.2-0.9,5.6-1.3,6-1.4c0.7-0.2,1.3-0.6,1.2-0.8l0,0c4.2-1.2,5.6-1.8,6-1.9c0.7-0.3,1.3-0.7,1.2-1
			l0,0c6.8-2.6,7.1-2.9,7-3.4l0,0c6.6-3.1,6.8-3.5,6.7-4l0,0c6.4-3.8,6.3-4,6.2-4.4l0,0c5.5-3.9,5.4-4.2,5.2-4.6l0,0
			c2.7-2.4,3.6-3.3,3.7-3.4c0.3-0.4,0.6-1,0.5-1.2l0,0c3.4-3.9,3.3-4.2,3.1-4.6l0,0C106.5,48.2,106.3,47.8,106.1,47.5z"/>
		<path fill="#FAC78F" d="M110.9,59.1L110.9,59.1c0.9-2.9,0.9-3.8,0.8-4.3l0,0l0,0c0.1-1.1,0-2.1-0.2-3.2c0.2,1.2,0.2,2.5,0,3.8
			c-0.1,0,0-0.4,0-0.5c0.1-1.1,0.1-2.1,0-3.2l0,0c0,0,0-0.1,0-0.2v-0.3l-0.1-0.4l-0.1-0.3l-0.1-0.3c0.2,1.1,0.2,1.1,0.2,1.1
			c0-0.2-0.1-0.3-0.1-0.5l-0.2-1l-0.1-0.3l0.2,1.1c0,0.4,0.1,0.7,0.2,1.1l0,0c0,0,0,0,0-0.1c0.1,1,0.1,2-0.1,3c0,0.4,0,0.7,0,1.1
			c-0.2,1.1-0.6,2.2-1,3.3c-0.3,0.9-0.1,1-0.1,1c-0.4,0.8-0.4,0.9-2,3.6c-0.4,0.8-0.4,1.1-0.4,1.1s0,0,0,0l0,0c-1,1.3-2,2.4-3,3.6
			c-0.3,0.3-0.5,0.7-0.6,1.1c0,0,0,0.1,0,0.1l0,0c-1.2,1.2-2.5,2.4-3.8,3.6c-0.6,0.6-0.7,0.9-0.7,1.1c0,0,0,0.1,0,0.1l0,0
			c-1.5,1.2-3.1,2.4-4.7,3.6c-0.8,0.7-0.9,1-0.9,1.1l0,0c-1.8,1.2-3.6,2.3-5.4,3.4c-0.9,0.6-1,0.9-1,1c0,0,0,0,0,0.1l0,0
			c-1.9,1-3.9,1.9-5.8,2.9c-1,0.6-1.1,0.8-1.1,0.9s0,0,0,0.1c-2,0.9-4.1,1.6-6.1,2.5c-0.4,0.1-0.8,0.4-1.1,0.7
			c-0.1,0.1-0.1,0.2,0,0.2l0,0c-2,0.7-4.1,1.3-6.2,2c-0.8,0.3-1,0.5-1.1,0.6s0,0.1,0,0.2l0,0c-2.1,0.5-4.2,1-6.2,1.5
			c-0.8,0.2-1,0.4-1.1,0.5s0,0.1,0,0.2l0,0c-2,0.3-4.1,0.6-6.1,0.9c-0.8,0.2-1,0.3-1,0.4c0,0,0,0.1,0,0.2l0,0
			c-2,0.2-3.9,0.2-5.9,0.3c-0.7,0.1-0.9,0.2-1,0.3s0,0.1,0,0.2l0,0c-1.9,0-3.7-0.2-5.6-0.3c-0.7,0-0.8,0.1-0.9,0.1s0,0.2,0.2,0.3
			c-0.1,0-0.1-0.1-0.2-0.1c-1.2-0.2-1.2-0.2-5.1-0.9c-0.2,0-0.5,0-0.8,0c-0.1,0-0.1,0.1,0,0.2l0,0c-1.3-0.4-3-1-4.2-1.5
			c-0.5-0.1-0.5,0.1-0.5,0.2L28,95.8c-1.6-0.8-3.1-1.7-4.5-2.8l-0.2-0.2c-0.2-0.1-0.2-0.2-0.3-0.2s0,0,0,0c0.3,0.4,0.6,0.7,1,1
			l0.5,0.4c1,0.7,2.4,1.6,3.5,2.1c0.5,0.2,0.8,0.3,0.8,0.2l0,0c5.7,2.2,6.6,1.9,6.5,1.7l0,0c4.2,0.8,6.3,1,6.2,0.6l0,0
			c3.5,0.2,5,0.2,5.4,0.2c0.7,0,1.2-0.2,1.2-0.4l0,0c4-0.2,5.6-0.4,5.8-0.4c0.6-0.1,1.2-0.3,1.2-0.5l0,0c1.1-0.2,4.4-0.6,6-1
			c0.6-0.2,1.3-0.4,1.2-0.7l0,0c3-0.7,5-1.2,6.1-1.5c0.6-0.2,1.3-0.6,1.3-0.8l0,0c3-0.9,5-1.6,6-2c0.6-0.2,1.3-0.7,1.2-0.9l0,0
			c7.1-2.9,7.1-3.1,7.1-3.5l0,0c6.8-3.4,6.7-3.7,6.7-4l0,0c6.3-3.8,6.2-4.1,6.2-4.5l0,0c5.3-4,5.3-4.3,5.2-4.7l0,0
			c4.3-4,4.2-4.3,4.2-4.7l0,0c3.2-3.9,3.1-4.3,3.1-4.7l0,0C111.1,60,111,59.5,110.9,59.1z"/>
		<path fill="#FAC78F" d="M111.5,61.3L111.5,61.3c0.9-2.9,0.9-3.8,0.8-4.3l0,0c0.1-1.1,0-2.1-0.2-3.2c0.2,1.2,0.2,2.5,0,3.8
			c-0.1,0,0-0.4,0-0.5c0.1-1.1,0.1-2.1,0-3.2l0,0c0-0.1,0-0.1,0-0.2v-0.3L112,53l-0.1-0.3l-0.1-0.3c0.1,0.4,0.2,0.7,0.2,1.1
			c0-0.1-0.1-0.4-0.1-0.5l-0.2-1l-0.1-0.3l0.2,1.1c0,0.4,0.1,0.7,0.2,1.1l0,0c0,0,0,0,0-0.1c0.1,1,0.1,2-0.1,3c0,0.3,0,0.7,0,1
			c-0.2,1.1-0.6,2.2-1,3.3c-0.3,0.9-0.2,1-0.1,1c-0.4,0.8-0.4,0.9-2,3.6c-0.4,0.8-0.4,1.1-0.4,1.1s0,0,0,0l0,0
			c-0.9,1.2-1.9,2.4-2.8,3.6c-0.3,0.3-0.5,0.7-0.6,1.1c0,0,0,0.1,0,0.1l0,0c-1.2,1.2-2.5,2.4-3.7,3.6c-0.3,0.3-0.6,0.6-0.7,1.1
			c0,0,0,0.1,0,0.1l0,0c-1.5,1.2-3.1,2.4-4.6,3.6c-0.8,0.7-0.9,1-0.9,1.1s0,0,0,0c-1.7,1.2-3.6,2.3-5.3,3.4c-0.9,0.6-1,0.9-1,1
			s0,0,0,0.1l0,0c-1.9,1-3.8,1.9-5.7,2.9c-1,0.6-1.1,0.8-1.1,0.9s0,0,0,0.1c-2,0.9-4,1.6-6,2.5c-0.8,0.4-1,0.6-1,0.7
			c-0.1,0-0.1,0.1-0.1,0.2c0,0,0,0.1,0.1,0.1l0,0c-2,0.7-4.1,1.3-6.1,2c-0.8,0.3-1,0.5-1.1,0.6s0,0.1,0,0.2l0,0
			c-2,0.5-4.1,1-6.1,1.5c-0.8,0.2-1,0.4-1,0.5s0,0.2,0,0.2l0,0c-2,0.3-4,0.6-6,0.9c-0.8,0.2-1,0.3-1,0.4s0,0.1,0,0.2l0,0
			c-1.9,0.2-3.9,0.2-5.8,0.3c-0.7,0.1-0.9,0.2-1,0.3s0,0.1,0,0.2l0,0c-1.8,0-3.7-0.2-5.5-0.3c-0.7,0-0.8,0.1-0.9,0.1s0,0.2,0.2,0.3
			c-0.1,0-0.1-0.1-0.2-0.1c-1.2-0.2-1.2-0.2-5.1-0.9c-0.2-0.1-0.5-0.1-0.7,0c-0.1,0-0.1,0.1,0,0.2s0,0,0,0c-1.3-0.4-2.9-1-4.2-1.5
			c-0.5-0.1-0.5,0.1-0.5,0.2l-0.2-0.1c-1.6-0.8-3.2-1.8-4.6-3l-0.2-0.2c-0.1-0.1-0.2-0.1-0.3-0.2l0,0c0.3,0.4,0.6,0.7,1,1l0.5,0.4
			c1,0.7,2.4,1.6,3.5,2.1c0.5,0.2,0.8,0.3,0.8,0.2l0,0c5.6,2.2,6.5,1.9,6.4,1.7l0,0c4.2,0.8,6.2,1,6.1,0.6l0,0
			c3.4,0.2,5,0.2,5.4,0.2c0.7,0,1.2-0.2,1.2-0.4l0,0c4-0.2,5.5-0.4,5.7-0.4c0.6-0.1,1.2-0.3,1.2-0.5l0,0c1.1-0.2,4.3-0.6,5.9-1
			c0.6-0.1,1.3-0.4,1.2-0.7l0,0c3-0.7,5-1.2,6-1.5c0.6-0.2,1.3-0.6,1.2-0.8l0,0c3-0.9,5-1.6,5.9-2c0.6-0.2,1.3-0.7,1.2-0.9l0,0
			c7-2.9,7-3.1,7-3.5l0,0c6.7-3.4,6.7-3.6,6.6-4l0,0c6.2-3.8,6.1-4.1,6.1-4.6l0,0c5.3-4,5.2-4.3,5.2-4.7l0,0c4.2-4,4.2-4.3,4.1-4.7
			l0,0c3.2-3.9,3.1-4.3,3-4.7l0,0C111.7,62.2,111.6,61.7,111.5,61.3z"/>
		<path fill="#FAC78F" d="M111.9,63.4L111.9,63.4c0.9-2.8,0.9-3.7,0.8-4.2l0,0l0,0c0.1-1.1,0-2.1-0.2-3.2c0.2,1.2,0.2,2.5,0,3.8
			c-0.1,0,0-0.4,0-0.5c0.1-1.1,0.1-2.1,0-3.2l0,0c0-0.1,0-0.1,0-0.2v-0.3l-0.1-0.4l-0.1-0.3l-0.1-0.3c0.1,0.4,0.2,0.7,0.2,1.1
			c0-0.1-0.1-0.4-0.1-0.5l-0.2-1l-0.1-0.3l0.2,1.1c0,0.4,0.1,0.7,0.2,1.1l0,0c0,0,0,0,0-0.1c0.1,1,0.1,2-0.1,3c0,0.4,0,0.7,0,1.1
			c-0.3,1.1-0.6,2.2-1,3.3c-0.3,0.9-0.1,1-0.1,1c-0.4,0.8-0.4,0.9-1.9,3.6c-0.4,0.8-0.4,1.1-0.4,1.1s0,0,0,0l0,0
			c-0.9,1.2-1.9,2.4-2.8,3.6c-0.3,0.3-0.5,0.7-0.6,1.1c0,0,0,0.1,0,0.1l0,0c-1.2,1.2-2.5,2.4-3.7,3.6c-0.3,0.3-0.6,0.6-0.7,1.1
			c0,0,0,0.1,0,0.1l0,0c-1.5,1.2-3,2.4-4.6,3.6c-0.8,0.7-0.9,1-0.9,1.1s0,0,0,0c-1.7,1.2-3.5,2.3-5.2,3.4c-0.9,0.6-1,0.9-1,1
			c0,0,0,0,0,0.1l0,0c-1.8,1-3.8,1.9-5.6,2.9c-1,0.6-1,0.8-1,0.9s0,0,0,0.1c-1.9,0.9-4,1.6-5.9,2.5c-0.4,0.1-0.7,0.4-1,0.7
			c0,0.1-0.1,0.2,0,0.2l0,0c-2,0.7-4,1.3-6,2c-0.8,0.3-1,0.5-1,0.6s-0.1,0.1,0,0.2l0,0c-2,0.5-4,1-6,1.5c-0.8,0.2-1,0.4-1,0.5
			s0,0.1,0,0.2l0,0c-2,0.3-4,0.6-6,0.9c-0.8,0.2-1,0.3-1,0.4c0,0,0,0.1,0,0.2c0,0,0,0,0,0l0,0c-1.9,0.2-3.8,0.2-5.8,0.3
			c-0.7,0.1-0.9,0.2-1,0.3s0,0.1,0,0.2s0,0,0,0c-1.8,0-3.6-0.2-5.4-0.3c-0.7,0-0.8,0.1-0.9,0.1s0,0.2,0.2,0.3
			c-0.1,0-0.1-0.1-0.2-0.1c-1.2-0.2-1.2-0.2-5-0.9c-0.2,0-0.5,0-0.7,0c-0.1,0-0.1,0.1,0,0.2l0,0c-1.2-0.4-2.9-1-4.1-1.5
			c-0.5-0.1-0.5,0.1-0.5,0.2l-0.2-0.1c-1.6-0.8-3.1-1.7-4.4-2.8L26.8,97c-0.2-0.1-0.2-0.2-0.3-0.2s0,0,0,0c0.3,0.4,0.6,0.7,1,1
			l0.5,0.3c1,0.7,2.3,1.6,3.4,2.2c0.5,0.2,0.8,0.3,0.8,0.2l0,0c5.5,2.2,6.4,1.9,6.3,1.7l0,0c4.1,0.8,6.1,1,6,0.6l0,0
			c3.4,0.2,4.9,0.2,5.3,0.2c0.7,0,1.2-0.2,1.2-0.4l0,0c3.9-0.2,5.5-0.4,5.6-0.4c0.6-0.1,1.2-0.3,1.2-0.5l0,0c1.1-0.2,4.3-0.6,5.8-1
			c0.6-0.1,1.3-0.4,1.2-0.7l0,0c2.9-0.7,4.9-1.2,5.9-1.5c0.6-0.2,1.3-0.6,1.2-0.8l0,0c2.9-0.9,4.9-1.6,5.8-2
			c0.6-0.2,1.2-0.7,1.2-0.9l0,0c6.9-2.9,6.9-3.1,6.9-3.5l0,0c6.6-3.4,6.6-3.7,6.5-4.1l0,0c6.1-3.8,6.1-4.1,6-4.6l0,0
			c5.2-4,5.2-4.3,5.1-4.7l0,0c4.2-4,4.1-4.3,4-4.7l0,0c3.1-3.9,3-4.3,3-4.7l0,0C112.1,64.3,112,63.8,111.9,63.4z"/>
		<g>
			<path d="M109.1,44.4c3.6,8.2-1.9,19.9-15.9,30.7C73.3,90.5,43.9,98,27.5,92c-0.1-0.2-0.2-0.4-0.3-0.6
				c16.4,6.1,45.8-1.5,65.7-16.8c14-10.9,19.6-22.7,15.8-30.9L109.1,44.4"/>
			<path d="M27,91.8c-4.6-1.8-7.7-4.6-9.1-8L17.5,83c1.5,3.5,4.5,6.3,9.2,8.2C26.8,91.3,26.9,91.5,27,91.8"/>
		</g>
		<defs>
			<filter id="Adobe_OpacityMaskFilter" filterUnits="userSpaceOnUse" x="23.3" y="17.9" width="79.8" height="51.8">
				<feColorMatrix  type="matrix" values="1 0 0 0 0  0 1 0 0 0  0 0 1 0 0  0 0 0 1 0"/>
			</filter>
		</defs>
		<mask maskUnits="userSpaceOnUse" x="23.3" y="17.9" width="79.8" height="51.8" id="mask_1_">
			<g filter="url(#Adobe_OpacityMaskFilter)">
			</g>
		</mask>
		<g mask="url(#mask_1_)">
			
				<linearGradient id="SVGID_2_" gradientUnits="userSpaceOnUse" x1="63.2662" y1="133.7595" x2="63.2662" y2="53.0595" gradientTransform="matrix(1 0 0 -1 0 128)">
				<stop  offset="0" style="stop-color:#FFFFFF;stop-opacity:0.4"/>
				<stop  offset="1.000000e-02" style="stop-color:#FFFFFF;stop-opacity:0.39"/>
				<stop  offset="0.32" style="stop-color:#FFFFFF;stop-opacity:0.22"/>
				<stop  offset="0.6" style="stop-color:#FFFFFF;stop-opacity:0.1"/>
				<stop  offset="0.84" style="stop-color:#FFFFFF;stop-opacity:3.000000e-02"/>
				<stop  offset="1" style="stop-color:#FFFFFF;stop-opacity:0"/>
			</linearGradient>
			<path fill="url(#SVGID_2_)" d="M63.3,17.9c-22,0-39.9,15.7-39.9,35l0,0c0.1,3,1.8,5.8,4.5,7.3c10.7,6.3,23,9.6,35.4,9.5
				c12.5,0.1,24.7-3.2,35.4-9.5c2.6-1.4,4.3-4.2,4.5-7.2l0,0C103.2,33.6,85.3,17.9,63.3,17.9z"/>
		</g>
		<path opacity="0.2" fill="#868686" enable-background="new    " d="M112.2,62.6c0,2.2-0.1,4.4-0.4,6.6c0,0.3-0.1,0.7-0.2,1
			c-1.1,6.9-3.6,13.6-7.4,19.5c-0.2,0.3-0.4,0.7-0.7,1c-4.4,6.4-10.2,11.7-17,15.4l0,0l-1.5,0.8c-7,3.6-14.7,5.4-22.6,5.4
			c-0.7,0-1.4,0-2,0c-1.7-0.1-3.3-0.2-5-0.4l0,0c-9.3-1.3-18-5.3-25.1-11.4c-0.5-0.4-1-0.9-1.5-1.4c-2.2-2-4.1-4.1-5.9-6.5
			c-0.3-0.3-0.5-0.7-0.8-1.1c-2.6-3.7-4.8-7.7-6.3-11.9c3.2,1.2,6.6,2,10,2.5l0,0c1.7,0.3,3.3,0.4,5,0.5c0.7,0,1.3,0.1,2,0.1
			c7.9,0,15.6-1.8,22.6-5.4l1.5-0.8l0,0c6.8-3.8,12.6-9.1,17-15.5c0.2-0.3,0.4-0.6,0.7-1c3.8-5.9,6.4-12.5,7.4-19.4
			c0.1-0.3,0.1-0.7,0.2-1c0.3-2.2,0.4-4.4,0.4-6.6c0-5.8-1-11.6-3-17.1C99.1,23.1,112.2,41.7,112.2,62.6z"/>
		<path opacity="0.2" fill="#868686" enable-background="new    " d="M112.2,62.6c0,2.2-0.1,4.4-0.4,6.6c0,0.3-0.1,0.7-0.2,1
			c-1.1,6.9-3.6,13.6-7.4,19.5c-0.2,0.3-0.4,0.7-0.7,1c-4.4,6.4-10.2,11.7-17,15.4l0,0l-1.5,0.8c-7,3.6-14.7,5.4-22.6,5.4
			c-0.7,0-1.4,0-2,0c-1.7-0.1-3.3-0.2-5-0.4l0,0c-9.3-1.3-18-5.3-25.1-11.4c-0.5-0.4-1-0.9-1.5-1.4c-2.1-2-4.1-4.1-5.9-6.4
			c6.7,5.1,14.6,8.4,22.9,9.6l0,0c1.7,0.2,3.3,0.4,5,0.5c0.7,0,1.4,0.1,2,0.1c7.9,0,15.6-1.8,22.6-5.4l1.5-0.8l0,0
			c6.8-3.8,12.6-9,17-15.4l0.7-1c3.8-5.9,6.3-12.5,7.3-19.4c0.1-0.3,0.1-0.7,0.2-1c1.7-13-1.7-26.2-9.7-36.7
			C104.9,32.4,112.2,47.1,112.2,62.6z"/>
	</g>
</g>
</svg>
