<?xml version="1.0" encoding="utf-8"?>
<!-- Generator: Adobe Illustrator 24.3.0, SVG Export Plug-In . SVG Version: 6.00 Build 0)  -->
<svg version="1.1" id="Layer_1" xmlns="http://www.w3.org/2000/svg" xmlns:xlink="http://www.w3.org/1999/xlink" x="0px" y="0px"
	 viewBox="0 0 126 126" enable-background="new 0 0 126 126" xml:space="preserve">
<g id="Flat">
	<path fill="#F08310" d="M41,55.4l-3.7-3.7c-2.6-2.6-2.6-6.9,0-9.6l17.5-17.5c2.6-2.6,6.9-2.6,9.6,0l3.7,3.7L41,55.4z"/>
	<path fill="#3C495E" d="M78.3,73l-5.1,18l-8.5,3.4L69.8,74l-2-0.6L59.2,71l-5.8-1.7l2.8-12.2l9.3,4l5.9,2.5l3,1.3
		C77.6,66.2,79.2,69.7,78.3,73z"/>
	<path fill="#313B4C" d="M71.4,63.6l-3.6,9.9L59.2,71l6.3-9.9L71.4,63.6z"/>
	<path fill="#F9C8A3" d="M71.5,38.4l5.1-5.1l5.1,3.4l5.4-6.3c2.6-3,2.2-7.5-0.8-10.1c-2.7-2.3-6.6-2.3-9.3-0.1L63.4,31.6"/>
	<path fill="#C7C6C5" d="M18.9,13h3.4v37.3h-3.4V13z"/>
	<path fill="#F9C8A3" d="M71,48.1L56.2,60.5l2.1,1.8l5.7,4.9l0.6,0.5c2.1,1.8,2.7,4.7,1.6,7.2L56.2,96l-8.9,3.3l8.8-23.6l-3.6-1.4
		L49,72.8c-6-2.4-9.9-8.3-9.8-14.8c0-0.3,0-0.6,0-0.9c0.3-3.7,2-7.2,4.6-9.9l10.6-10.6l-6.8-5.1l-18.2,6.7l-2.1,0.8
		c-0.4,3.7-3.8,6.4-7.5,6c-3.7-0.4-6.4-3.8-6-7.5s3.8-6.4,7.5-6c0.6,0.1,1.2,0.2,1.8,0.5l3.4-1.6l18.9-8.9c2.4-1.1,5.3-0.8,7.3,1
		l8.5,7.3l10.2,8.5c2.6,2.6,2.6,6.7,0,9.3C71.3,47.9,71.2,48,71,48.1L71,48.1z"/>
	<path fill="#4D5E79" d="M64.6,67.6L64,67.1l-5.7-4.9l-2.1-1.8L39.3,58C39.1,64.5,43,70.4,49,72.8l3.6,1.4l3.6,1.4l-8.8,23.6
		l8.9-3.3l9.9-21.2C67.3,72.3,66.7,69.4,64.6,67.6z"/>
	<ellipse fill="#D5D6D4" cx="20.6" cy="21.5" rx="5.1" ry="3.4"/>
	<path fill="#4D5E79" d="M84.6,25.5l-2.7-2l-3.5,4.7l-2.4-9.3l-3.3,0.8l4.5,18l3.3-0.8l-1.1-4.4L84.6,25.5z"/>
	<path fill="#E95346" d="M71,48.1l-7.2,6l-4.2,3.5l-3.5,2.9l-4.1-0.6l-3.9-0.6L39.3,58c0-0.3,0-0.6,0-0.9c0.2-2.2,0.8-4.3,1.9-6.2
		c0.7-1.4,1.7-2.6,2.8-3.7l2.1-2.1l8.5-8.5l-6.8-5.1l-18.2,6.7l-2.9-7.8l18.9-8.9c2.4-1.1,5.3-0.8,7.3,1l8.5,7.3l6.2,5.2l0,0
		l2.6,2.2l0,0l1.3,1.1c2.6,2.6,2.6,6.7,0,9.3C71.3,47.9,71.2,48,71,48.1L71,48.1z"/>
	<path fill="#DE4032" d="M70.1,37.3l-18,22.6l-3.9-0.6l19.3-24.2l0,0L70.1,37.3z"/>
	<path fill="#3C495E" d="M47.7,87.6h11.9l-5.1,11.9L41,104.5L47.7,87.6z"/>
	<path fill="#313B4C" d="M76.6,80.8l-11.9,1.7L61.3,96L74.9,91L76.6,80.8z"/>
	<path fill="#4D5E79" d="M63.9,54.1l-4.2,3.5l-5.9-2.1L41.2,51c0.7-1.4,1.7-2.6,2.8-3.7l2.1-2.1l10.7,5.3L63.9,54.1z"/>
	<path fill="#556A89" d="M56.7,50.5l-3,4.9L41.2,51c0.7-1.4,1.7-2.6,2.8-3.7l2.1-2.1L56.7,50.5z"/>
	<path fill="#DE4032" d="M61.3,29.9l5.1-5.1L74.9,35l-3.4,3.4L61.3,29.9z"/>
	<path fill="#F9B336" d="M37.3,42.1l8.8-0.3L44.4,35L37.3,42.1z"/>
	<path fill="#3C495E" d="M64,67.1l-11.3,7.2L49,72.8c-1.6-0.6-3.1-1.5-4.4-2.7l13.6-7.9L64,67.1z"/>
	<path fill="#C7C6C5" d="M95.3,75.7c-1.3-0.2-2.5,0.4-3.3,1.5l-1.7,2.5c-1.3,1.8-3.1,3.2-5.2,4l-58.8,20.2c-1.8,0.6-2.7,2.5-2.1,4.3
		c0,0,0,0,0,0c0.6,1.8,2.6,2.7,4.4,2.1l60.1-20.6c2.4-0.8,4.4-2.3,5.9-4.4l3.1-4.3c1.1-1.5,0.7-3.6-0.8-4.7
		C96.4,76,95.9,75.8,95.3,75.7L95.3,75.7z"/>
	<path fill="#D5D6D4" d="M109.4,78.6c-1.5-0.4-3,0.2-3.8,1.5l-1.5,2.2c-1.3,1.8-3.1,3.2-5.2,4l-58.8,20.2c-1.8,0.6-2.7,2.5-2.1,4.3
		c0,0,0,0,0,0c0.6,1.8,2.6,2.7,4.4,2.1l60.3-20.7c2.2-0.8,4.1-2.1,5.6-4l3.1-4c1.2-1.5,0.9-3.7-0.6-4.9
		C110.4,78.9,109.9,78.7,109.4,78.6z"/>
	<path fill="#4D5E79" d="M50,44.1c-1.5,0-3-0.2-4.5-0.7c-0.9-0.3-1.4-1.3-1.1-2.2c0.3-0.9,1.2-1.3,2.1-1.1c0.1,0,5,1.6,8.7-1.1
		c2.9-2.1,4.4-6.3,4.4-12.6c0-0.9,0.8-1.7,1.7-1.7s1.7,0.8,1.7,1.7c0,7.4-2,12.6-5.8,15.3C54.8,43.6,52.2,44.1,50,44.1L50,44.1z"/>
	<path fill="#F9B336" d="M90.8,27.2c-0.2,1.7-0.8,3.3-1.6,4.8c-0.2,0.3-0.4,0.4-0.7,0.4c-0.2,0-0.4-0.1-0.5-0.2L80.6,27l-8-5.8
		c-0.2-0.1-0.3-0.3-0.3-0.6c0-0.2,0-0.5,0.2-0.6c0.1-0.2,3-3.9,7.5-4.4c2.6-0.3,5.2,0.6,7.6,2.6c0.9,0.7,1.6,1.6,2.2,2.5
		C90.8,22.6,91.2,24.8,90.8,27.2L90.8,27.2z"/>
	<path fill="#F7AA24" d="M90.8,27.2c-0.2,1.7-0.8,3.3-1.6,4.8c-0.2,0.3-0.4,0.4-0.7,0.4c-0.2,0-0.4-0.1-0.5-0.2L80.6,27
		c3.3-1.7,6.3-3.8,9.1-6.2C90.8,22.6,91.2,24.8,90.8,27.2z"/>
</g>
</svg>
