<?xml version="1.0" encoding="utf-8"?>
<!-- Generator: Adobe Illustrator 24.3.0, SVG Export Plug-In . SVG Version: 6.00 Build 0)  -->
<svg version="1.1" id="Layer_1" xmlns="http://www.w3.org/2000/svg" xmlns:xlink="http://www.w3.org/1999/xlink" x="0px" y="0px"
	 viewBox="0 0 126 126" enable-background="new 0 0 126 126" xml:space="preserve">
<g id="surface1">
	<path fill-rule="evenodd" clip-rule="evenodd" fill="#192328" d="M16,49.8v-1.1h0.4v-1.1h0.4v-0.4h0.4v-0.7h0.4v-0.4h0.4v-0.4h0.4
		v-0.4h0.4v-0.4H19v-0.4h0.7v-0.4h0.4v-0.4h1.5v-0.4h38.3v0.4h-0.4v0.4h-0.4v0.4h-0.4v0.4h0.4v1.1h-0.4v0.7h-0.4v1.1H58V49h-0.4v1.5
		h-0.4v1.1h0.4v-0.7H58v-1.1h0.4v-1.1h0.4v-1.1h0.4v-1.1h0.4v1.9h-0.4v1.1h-0.4v1.1h-0.4v0.7H58v1.1h-0.4v1.1h-0.7v-0.4h-0.7v-0.7
		h-0.4v1.1h0.4v0.4h0.4v0.7H43.1v-0.7H42v0.7h-0.4v0.7h-0.4v0.7h-0.4v0.4h-0.4v0.7h-0.4V58h0.7v0.7h-0.4v0.7h-0.4v0.7h-0.4v0.7h0.7
		v0.4h1.1v-2.6H42V58h0.4v-0.4h0.4v-1.1h0.4v-0.4h0.4v-0.4h0.7v-0.4h9.7v0.4h-0.4v0.4h-9.3v0.7h-0.4v0.4h-0.4v1.1h-0.4v0.7h-0.4v0.7
		h-0.4v0.4h0.4v0.4h0.4v0.4h0.4v0.4h0.7v0.7H45v0.4h0.4v0.4h0.4v0.4h0.4v0.4h0.4v0.4h0.4v0.4h0.4v0.4H48V65h0.4v0.4h0.4v0.4h0.7v0.4
		h0.4v0.4h0.4v0.4h0.4v0.4h0.4v0.4h0.4V68h0.4v0.4h1.1v-1.1h0.4v-1.1h0.4v-0.7h0.4v-1.1h0.4v-1.1h0.4v-1.1H55v-1.1h0.4v-1.1h0.4
		v-0.7h0.4v2.6h-0.4v0.7h-0.4v1.1H55v0.7h-0.4v1.1h-0.4v2.2h-0.4v1.1h-0.4v0.4h-0.4v0.4h-1.9v-0.4h-0.4v-0.4h-0.4v-0.4h-0.4V68h-0.4
		v-0.4h-0.4v-0.4h-0.7v-0.4h-0.4v-0.4H48v-0.4h-0.7v0.7h0.4v0.4H48v0.4h0.4V68h0.7v0.4h0.4v0.4h0.4v0.4h0.4v0.4h0.4v0.4h0.4v0.4h0.4
		v0.4h0.4V71h0.7v0.4h0.4v0.4h0.7V71h0.4v-0.7h0.4v-1.1h0.4v-1.5H55v-1.5h0.4v-0.4h0.4v-1.9h0.4v-1.5h0.4v-0.7h0.4v-1.1h0.4v-1.1
		h0.4v-1.1H58v-1.5h0.4v-0.7h0.4v-1.5h0.4v-0.7h0.4v-1.5h0.4v-1.1h0.4v-0.7h0.4v-1.1H61v-1.1h0.4v-1.1h0.4v-1.5h0.4v-1.1h0.4v-0.7
		h0.4v-1.5h0.4v-0.7h0.4v-0.7H64v-0.4h0.4v-0.7h0.4v-0.4h0.4V39h0.4v-0.4h0.4v-0.4h0.4v-0.4h0.7v-0.4h0.4v-0.4h1.1v-0.4h0.7v-0.4H96
		V36h1.1v-0.4h0.7v-0.4h0.7v-0.4h0.7v-0.4h0.4v-0.4h0.7v-0.4h0.4v-0.4h0.7V33h0.4v-0.4h0.7v-0.4h0.4v-0.4h0.7v-0.4h0.7v-0.4h0.4
		v-0.4h0.4v-0.4h0.7v-0.4h0.4v-0.7h-0.7v0.4h-0.7v0.4h-0.7v0.7h-0.7v0.4h-0.7v0.4h-0.4v0.4h-0.7v0.4h-0.4v0.4H100V33h-0.4v0.4h-0.7
		v0.4h-0.4v0.4h-0.4v0.4h-1.1v0.4h-2.2v0.4H69.2v0.4h-0.7V36h-0.7v0.4h-0.4v0.4h-1.1v0.4h-0.4v0.4h-0.7v0.4h-0.7v0.4H64V39h-0.4v0.4
		h-0.4v1.1h-0.4v0.7h-0.7v1.1h-0.4v0.4h-1.9v-0.4H40.5v0.4H21.2v0.4h-1.1v0.4h-0.7v0.4h-0.7v0.4h-0.4v0.4h-0.4v0.4h-0.4v0.4h-0.4
		v0.4h-1.5v0.7h-0.4v1.1h-0.4v12.3h0.4v2.2h0.4V49.8H16z"/>
	<path fill-rule="evenodd" clip-rule="evenodd" fill="#21262A" d="M17.1,60.2h-0.4v1.5h0.7v-0.4h0.7v-0.4h0.4v-0.4H19v-0.4h0.4v-0.7
		h0.4v-0.4h0.7v-0.4h0.4V58H23v0.7h0.7v0.4h0.4v0.4h0.4v0.7h0.4v0.4h0.4v0.4h0.4v0.4H26v0.4h0.4v0.4h1.1v0.7h0.7v0.7h0.4v0.4H29v0.4
		h0.4v0.4h0.4V65h0.4v0.4h0.4v0.4h0.4v0.4h0.4v0.4h0.4v0.7H32v0.4h0.4V68h0.4v0.4h0.4v0.4h0.4v0.4h0.4v0.4h0.4v0.4h0.4v0.7h0.4V71
		h0.4v0.4h0.4v0.4h0.4v0.4h0.4v0.4h0.4v0.4h0.4v0.7h0.4v1.1h0.4v0.4h0.4v0.4h0.4v0.4H39v0.7h0.4v0.4h0.4v0.4h0.4v0.4h0.4v0.4h0.4
		v0.4h0.4v0.7h0.4v0.4H42v0.4h0.4v0.4h0.4v0.4h0.4V81h0.4v0.4h0.4v0.4h0.4v0.7h0.4v0.4H45v0.4h0.4v0.4h0.4V84h0.4v0.4h0.4v0.4h0.4
		v0.4h0.4v0.4h0.4v0.4H48v0.4h0.4V87h0.4v0.4h0.4v0.4h0.4v0.4h0.4v0.4h0.4v0.4h0.4v0.4h0.4v0.4h0.4v0.7h0.4v0.4h0.4v0.4h0.4v0.4h0.4
		v0.4h0.4v0.4h0.4v0.4h0.4v0.7h0.7v0.7H55v0.4h0.4v0.4h0.4v0.4h0.4v0.4h0.4v0.4h0.4v0.4h0.4v0.4h0.4V97H58v0.4h0.4v0.4h0.4v0.4h1.9
		v-0.7h0.7V97h0.4v-1.1h0.4v-0.4h0.4v0.7h0.4v-1.1h0.4v-2.2h0.4v-1.9H64v-0.7h0.4v-1.5h0.4v-1.1h0.4v-1.1h0.4v-1.5h0.4V84h0.4v-1.9
		h0.4v-0.7h0.4v-1.5h0.4v-1.1h0.4v-1.9h0.4v-1.1h0.4v-1.5h0.4v-1.1h0.4v-1.5h0.4V71h0.4v-1.1h0.4v-0.7h1.1v-0.7h17.9V68h0.4v-0.4H90
		v-1.1h0.4v-0.4h0.4v-1.5h0.4v-1.5h0.4v-0.4h0.4v-1.1h0.4v-1.1h0.4v-0.4H93v-2.6h-1.1V58h-0.4v3.7h-0.4v0.4h-0.4v1.5h-0.4v1.1H90
		v0.7h-0.4v0.7h-0.4v1.1h-0.4v0.4H76.2V68h-7.4v-0.4h0.4v-0.4h4.5v-0.4h15.3v-1.1h-0.7v0.4H68.1v0.7h-0.4v1.5h-0.4v1.1h-0.4v1.1
		h-0.4v0.7h-0.4v1.5h-0.4v1.5h-0.4v1.5h-0.4v1.1h-0.4v1.1h-0.4v1.1H64v1.5h-0.4v1.1h-0.4V84h-0.4v1.1h-0.4v1.1h-0.4v1.1h-0.4v1.5
		h-0.4V90H61v1.1h-0.4v1.1h-0.4v1.1h-0.4v1.1h-0.4v1.5h0.4v0.4h0.4v-1.5h0.4v-2.2H61v-0.7h0.4v-1.5h0.4v-1.1h0.4v-1.5h0.4v-1.1h0.4
		v-1.1h0.4v-1.1h0.4v-1.1H64v-1.5h0.4v-1.1h0.4v-1.1h0.4v-1.1h0.4v-1.5h0.4v-0.4h0.4v1.1h-0.4v1.1h-0.4v1.1h-0.4v1.5h-0.4v1.1h-0.4
		v1.1H64v1.5h-0.4v1.5h-0.4v1.1h-0.4v1.5h-0.4v1.1h-0.4v1.5h-0.4v1.1h-0.4v1.1H61v1.5h-0.4v1.1h-0.4v0.7h-0.7v-0.7h-0.4v-0.4h-0.4
		v-0.4h-0.4v-0.4H58v-0.4h-0.4v-0.4h-0.4v-0.4h-0.4v-0.7h-0.4v-0.4h-0.4v-0.4h-0.4v-0.4h-0.4v-0.4H55v-0.4h-0.4v-0.7h-0.4v-0.4h-0.4
		v-0.4h-0.4V90h-0.4v-0.4h-0.4v-0.4h-0.4v-0.4h-0.4v-0.4h-0.4v-0.4h-0.4v-0.7h-0.4V87h-0.4v-0.4h-0.4v-0.4h-0.4v-0.4h-0.4v-0.4h-0.4
		v-0.4h-0.4v-0.4h-0.4v-0.4H48V84h-0.4v-0.7h-0.4v-0.4h-0.4v-0.4h-0.4v-0.4h-0.4v-0.4h-0.4v-0.4h-0.4V81H45v-0.4h-0.4v-0.4h-0.4
		v-0.4h-0.4v-0.7h-0.4v-0.4h-0.4v-0.4h-0.4v-0.4h-0.4v-0.4H42v-0.4h-0.4v-0.4h-0.4v-0.7h-0.4v-0.4h-0.4v-0.4h-0.4v-0.4h-0.4v-0.4
		h-0.4v-0.4H39V74h-0.4v-0.4h-0.4v-0.7h-0.4v-0.4h-0.4v-0.4h-0.4v-0.4h-0.4v-0.4h-0.4V71h-0.4v-0.4h-0.4v-0.4h-0.4v-0.4h-0.4v-0.7
		h-0.4v-0.4h-0.4v-0.4h-0.4V68h-0.4v-0.4h-0.4v-0.4h-0.4v-0.4h-0.4v-0.4H32v-0.4h-0.4v-0.7h-0.4V65h-0.4v-0.4h-0.4v-0.4h-0.4v-0.4
		h-0.4v-0.4h-0.4v-0.4H29v-0.4h-0.4v-0.4h-0.4v-0.4h-0.4v-0.7h-0.4v-0.4h-0.4v-0.4h-0.4v-0.4h-0.4v-0.4H26v-0.4h-0.4v-0.4h-0.4v-0.4
		h-0.4v-0.4h-0.4v-0.7h-0.7v-0.4h-0.4v-0.7h0.4v-0.4h-0.4v-0.4h-0.7v-0.4h-2.2v0.4h1.5v0.4h-0.7v0.4h-0.7v0.4h-0.4v0.4h-0.4V58h-0.4
		v0.4H19v0.4h-0.4v0.7h-0.4v0.4h-0.4v0.4h-0.4v0.7h-0.4V60.2z"/>
	<g>
		<defs>
			<rect id="SVGID_1_" x="13.4" y="21.9" width="99.6" height="28.3"/>
		</defs>
		<clipPath id="SVGID_2_">
			<use xlink:href="#SVGID_1_"  overflow="visible"/>
		</clipPath>
		<g clip-path="url(#SVGID_2_)">
			<path fill-rule="evenodd" clip-rule="evenodd" fill="#192328" d="M14.1,50.2v-2.6h0.4v-1.1h0.4v-0.7h0.4v-0.7h0.4v-0.7H16v-0.4
				h0.4v-0.4h0.4v-0.4h0.7v-0.4h0.4v-0.4h0.4V42H19v-0.4h1.1v-0.4h1.5v-0.4H61v-0.4h0.4v-0.7h0.4V39h0.4v-0.7h0.4v-0.4h0.4v-0.4h0.4
				v-0.7h0.4v-0.4H64V36h0.4v-0.4h0.7v-0.4h0.4v-0.4h1.1v-0.7h1.1v-0.4h26.8v-0.4H96V33h1.1v-0.4h1.1v-0.4h0.7v-0.4h0.4v-0.4h0.7
				v-0.4h0.4v-0.4h0.7v-0.4h0.7v-0.4h0.7v-0.4h0.4v-0.4h0.7V29h0.4v-0.4h0.7v-0.4h0.7v-0.4h0.4v-0.4h0.7v-0.4h0.7v-0.4h0.4v-0.4h0.4
				V26h0.7v-0.4h0.4v-0.4h1.5v0.4h0.4v-1.1h0.4v-0.4h0.4v-0.4h0.4V23h0.4v-0.4h0.4v-0.7h-1.1v0.4h-0.7v0.4h-0.4V23h-0.7v0.4h-0.4
				v0.4H109v0.4h-0.4v0.4h-0.7v0.4h-0.4v0.4h-0.7v0.4H106V26h-0.4v0.4h-0.7v0.4h-0.7v0.4h-0.4v0.4H103v0.4h-0.4v0.4h-0.7v0.4h-0.4
				V29h-0.7v0.4h-0.4v0.4h-0.7v0.4h-0.4v0.4h-0.7v0.4h-0.7v0.4h-0.7v0.4h-0.7v0.4h-1.1v0.4h-2.6v0.4h-10v-0.4H68.1v0.4h-1.5V33h-0.7
				v0.4h-0.7v0.4h-0.4v0.4H64v0.4h-0.4v0.4h-0.4v0.4h-0.4v0.4h-0.4V36h-0.4v0.4h-0.4v0.4h-0.4v0.7H61v0.7h-0.4v0.4h-0.4V39h-0.4v0.4
				H21.2v0.4h-1.5v0.4h-1.1v0.4h-0.4v0.4h-0.7v0.4h-0.7v0.4h-0.4V42H16v0.4h-0.4v0.4h-0.4v0.4h-0.4v0.7h-0.4v0.7h-0.4v0.7h-0.4v0.7
				h-0.4v3.7h0.4v0.4H14.1z"/>
		</g>
	</g>
	<path fill-rule="evenodd" clip-rule="evenodd" fill="#252A2D" d="M78.5,33.8v0.4h15.6v0.4h-6.7v0.4h1.9v0.4h5.6v-0.4h2.2v-0.4h1.1
		v-0.4h0.4v-0.4h0.4v-0.4h0.7V33h0.4v-0.4h1.1v-0.4h0.4v-0.4h0.7v-0.4h0.4v-0.4h0.7v-0.4h0.7v-0.7h0.7v-0.4h0.7v-0.4h0.7v0.4h0.7
		v0.4h-0.4v0.4h-0.4v0.4H106v0.4h-0.4v0.4h-0.4v0.4h-0.4v0.4h-0.4V33h-0.4v0.7h-0.4v0.7h-0.4v0.7H103v1.1h-0.4v0.7h-0.4v0.4h-0.4
		v1.9h0.4V39h0.4v-0.7h0.4v-0.7h0.4v-0.7h0.4V36h0.4v-0.7h0.4v-0.7h0.4v-0.7h0.4V33h0.4v1.1h-0.4v0.7h-0.4v0.7h-0.4v0.7h-0.4v0.7
		h-0.4v1.1h-0.4v0.4H103v1.1h-0.4v0.7h-0.4v0.7h-0.4V42h-0.4v0.7h-0.4v0.7h-0.4v0.7h-0.4v0.7H100v0.7h-0.4v1.1h-0.4v0.7h-0.4v0.7
		h-0.4V49h-0.4v0.4H74v0.4h-0.4v0.7h-0.4v1.1h-0.4v1.1h-0.4v1.1h-0.4V55h0.4v0.7h0.4v0.4h0.4v0.4h-1.5v-0.4h-0.4v0.7h20.8v-0.4h0.4
		v-0.7h2.6v0.4h0.4v-0.4H96v-0.4h0.4V55h0.4v-0.4h0.4v-0.4h-4.5v0.4h0.7V55h0.4v0.4H74v-0.7h-0.4V55h-0.4v-3h0.4v-0.4h0.7v-0.4h0.4
		v1.5h0.4v-1.1h0.4v-1.1h24.2v-0.4h0.4v-0.7h0.4v-1.1h0.4v-0.7h0.4v-0.7h0.4v-0.7h0.4v-1.1h0.4v-0.7h0.4v-0.7h0.4v-0.7h0.4v-1.1h0.4
		v-0.7h0.4v-0.7h0.4V39h0.4v-0.7h0.4v-0.7h0.4v-0.7h0.4V36h0.4v-1.1h0.4v-0.7h0.4v-0.7h0.4v-1.1h0.4v-0.7h0.4v-0.7h0.4v-0.7h-0.4V29
		h-0.7v-0.4H106v-0.4h0.7v-0.4h0.4v-0.4h0.7v-0.4h0.7v-0.4h0.4v-0.4h-1.1v0.4h-0.4v0.4h-0.7v0.4H106v0.4h-0.4v0.4h-0.7v0.4h-0.7V29
		h-0.4v0.4H103v0.4h-0.4v0.4h-0.7v0.4h-0.7v0.4h-0.7v0.4H100v0.4h-0.7v0.4h-0.4v0.4h-0.7v0.4h-1.1V33H96v0.4h-1.5v0.4H78.5z"/>
	<path fill-rule="evenodd" clip-rule="evenodd" fill="#444D53" d="M16.3,61.7H16V49.8h-0.4v12.3h-0.4v-2.2h-0.4V47.6h0.4v-1.1h0.4
		v-0.7h1.5v-0.4h0.4v-0.4h0.4v-0.4h0.4v-0.4h0.4v-0.4h0.7v-0.4h0.7v-0.4h1.1v-0.4h19.3v-0.4h19.3v0.4h1.9v-0.4h0.4v-1.1h0.7v-0.7
		h0.4v-1.1h0.4V39H64v-0.7h0.4v-0.4h0.7v-0.4h0.7v-0.4h0.4v-0.4h1.1v-0.4h0.4V36h0.7v-0.4h0.7v-0.4h20.1v-0.4h-1.9v-0.4h6.7v-0.4
		H78.5v-0.4H67.7v0.4h-1.1v0.7h-1.1v0.4h-0.4v0.4h-0.7V36H64v0.4h-0.4v0.4h-0.4v0.7h-0.4v0.4h-0.4v0.4h-0.4V39h-0.4v0.7h-0.4v0.7H61
		v0.4H21.6v0.4h-1.5v0.4H19V42h-0.7v0.4h-0.4v0.4h-0.4v0.4h-0.7v0.4h-0.4v0.4H16v0.4h-0.4v0.7h-0.4v0.7h-0.4v0.7h-0.4v1.1h-0.4v6.3
		h0.4v7.1h0.4v5.6h0.4v-0.4h0.4v-0.7H16V65h0.4v-0.4h0.4v-0.4h0.4v-0.7h0.4v-0.7h-1.1V61.7z"/>
	<path fill-rule="evenodd" clip-rule="evenodd" fill="#807E7D" d="M100.8,35.3v1.1h-0.4v0.7h-0.7v0.4h-1.1v0.4h-0.4v0.4h-0.7v0.4
		h-8.2V39h-5.6v0.4h-6v0.4h-2.2v0.4h-2.2v0.7h-0.7v0.4h-0.7v0.4H71V42h1.9v0.4h0.4v0.4h-1.9v0.4h0.4v0.4h1.1v0.4h-1.5v0.4h-1.1v0.7
		h0.4v0.4h-0.4v0.4h-0.4v0.4h-4.8v1.9H64V49h-0.4v1.9h-0.7V52h-0.4v0.7h-1.1v0.4H61v0.4h-0.4v0.7h1.9v-0.4h-0.4v-0.7h0.7v-0.4H64
		v-0.4h0.7V52h0.7v-0.4h0.4v-0.4h0.4v-0.7h0.4v-0.4h1.1v-0.4h2.2v-0.4h-1.5V49h3v1.9h0.4v-0.4h0.4v-0.7h0.4v-1.1h0.4v-0.4h0.4v-0.7
		h11.2v-0.4h-2.2v-0.4h-0.7v-0.7h-4.1v-1.1h-2.6v-0.4h-1.9v-0.4h0.4v-0.4h1.5v-0.7h0.7V42H74v-0.4h1.5v-0.4h0.7v0.4h1.9v-0.4h14.5
		v-0.4h3.7v-0.4h0.7v-0.4h1.5v0.7h0.4v0.7h-0.4v0.7h1.5v-0.7h0.4v-0.7h0.4v-0.7h0.4v-0.7h0.4v-0.7h0.4v-1.1h0.4v-0.4h0.4v-0.7h0.4
		v-1.1h0.4v-0.7h0.4v-0.7h0.4V33h-0.4v0.4H103v0.4h-0.4v0.4h-0.4v0.4h-0.7v0.4h-0.4v0.4H100.8z"/>
	<path fill-rule="evenodd" clip-rule="evenodd" fill="#7A6E6A" d="M62.5,73.2v1.1h-0.4v0.4h-0.4v0.4h-1.9v1.9h-0.4v1.1h-1.9v1.1
		h-0.4v0.4h-0.4v0.4h-1.1v0.4h1.9V81h-1.5v0.4h-1.5v0.4h-0.4v0.4H55v0.4h-6.3v-0.4h-0.4v-0.7H48v-1.1h0.4v-0.4h-1.9v0.4h-0.4v0.4
		h0.4V81h0.4v0.4h0.4v0.4h0.4v0.4H48v0.4h0.4v0.4h0.4v0.4h0.4v0.4h0.4V84h0.4v0.7h0.4v0.4h0.7v0.7h0.4v0.4h0.4v0.4h0.4V87h0.4v0.4
		h0.4v0.4h0.4v0.7h0.4v-0.7H58v0.4h2.6v-0.4h-0.7v-0.4h-3V87h1.5v-0.4h1.1v-0.7h-1.9v-0.4h-1.5v-0.4h2.6v-0.4h0.4v-0.4h0.4v-0.7
		h-0.7V84h-4.1v-0.7h1.9v-0.7h0.4v-0.4h-1.5v-0.4h1.1v-0.4h2.6v-0.7H61v-0.4h1.5v-0.4h-0.4v-0.7h0.7v-0.4h-0.4v-0.7h0.7v-0.7h-0.7
		v-0.4h0.7v-0.7h-1.9v-0.4h0.7v-0.4h2.6V74h-1.1v-0.4h1.1v-1.9h0.7v-0.4h0.4v-0.7h-0.4v-1.1h0.4v-1.1h0.4v-1.9h0.4v-1.1h1.9v-0.7h3
		v-0.4h4.1v0.4h0.4V65h1.5v0.4h4.5V65h0.4v-0.4h1.1v-0.7h-0.7v-0.7h4.1v-1.5h-1.5v-1.1h0.4v-0.4h-0.4v-0.4h0.4v-0.4h-0.7v0.4h-0.4
		v0.7H84v0.4h-1.1v1.1h-0.4v0.4h-1.1v0.4h-1.1v0.7h0.4v0.4h-3.3v-0.4h-1.1v-0.4h-1.9v-0.4h0.4v-0.7H71v0.4h-3.3v0.4h-1.5v1.1h0.4
		v0.4h-1.1v2.2h-0.4v0.7h-0.7v0.4h-1.1V68h0.4v2.2H64v0.4h1.1V71H64v0.7h-0.7v0.4h-0.4v0.4h1.5v0.7H62.5z"/>
	<g>
		<defs>
			<rect id="SVGID_3_" x="73.9" y="21.2" width="39.1" height="34.3"/>
		</defs>
		<clipPath id="SVGID_4_">
			<use xlink:href="#SVGID_3_"  overflow="visible"/>
		</clipPath>
		<g clip-path="url(#SVGID_4_)">
			<path fill-rule="evenodd" clip-rule="evenodd" fill="#0F1417" d="M112.7,21.9h0.4v0.7h-0.4V23h-0.4v0.7h-0.4v0.4h-0.4v0.4h-0.4
				v1.1h-0.4V26h-0.4v0.7h-0.4v0.7h-0.4v0.7h-0.4v1.1H109v0.7h-0.4v0.7h-0.4v0.7h-0.4v0.7h-0.4v1.1h-0.4v0.7h-0.4v0.7h-0.4V36H106
				v0.7h-0.4v0.7h-0.4v0.7h-0.4V39h-0.4v1.1h-0.4v0.7h-0.4v0.7h-0.4v1.1H103v0.7h-0.4v0.7h-0.4v0.7h-0.4v1.1h-0.4v0.7h-0.4v0.7h-0.4
				v0.7h-0.4v1.1H100v0.7h-0.4v0.4H75.5v1.1h-0.4v1.1h-0.4v0.4h-0.4v1.1H74v1.1h3.7V55h-0.4v-0.4h-1.1v-0.4h-0.4v-0.4h21.6v-0.4
				H76.6v-0.4H77v-0.4h23.4v-0.4h0.4V52h0.4v-0.7h0.4v-0.7h0.4v-0.7h0.4v-1.1h0.4v-0.7h0.4v-0.7h0.4v-0.7h0.4v-1.1h0.4v-0.7h0.4
				v-0.7h0.4v-1.1h0.4V42h0.4v-0.7h0.4v-0.7h0.4v-1.1h0.4v-0.7h0.4v-0.7h0.4v-1.1h0.4V36h0.4v-0.7h0.4v-1.1h0.4v-0.7h0.4v-1.1h0.4
				v-0.7h0.4v-0.7h0.4v-1.1h0.4V29h0.4v-1.1h0.4v-1.1h0.4V26h0.4v-1.1h0.4v-0.7h0.4V23h0.4v-0.7h0.4v-1.1h-0.7v0.4h-0.4V21.9z"/>
		</g>
	</g>
	<path fill-rule="evenodd" clip-rule="evenodd" fill="#6E6561" d="M64.3,59.1v0.7h-0.7v1.5h-0.7v1.5h-0.4v1.1h-4.1v0.4h-0.7v-0.4
		h-0.4v1.9h1.9v0.7H58V68h-0.4v0.4H58v0.7h-0.7v1.5h-0.4V71h-0.4v0.4h-0.4V74h-0.4v0.4h1.5v-1.5H58v-1.1h-0.7V71H58v-0.4h0.4v-1.1
		h0.7v-0.4h1.5v-0.4h-0.4v-0.4h-0.7V68h0.7v-1.5h2.2v-0.7h-1.1V65h0.7v-0.4h0.7v-0.7h0.4v-0.4h0.4v-0.4H64v0.4h0.4V65h0.4v0.7h-0.4
		v0.7H64v0.7h-1.5V68h0.4v0.4h-0.7v2.2h0.4V71h-0.4v1.5h0.4v0.7h1.9v-0.7h-1.5v-0.4h0.4v-0.4H64V71h1.1v-0.4H64v-0.4h-0.4V68h-0.4
		v-0.4h1.1v-0.4h0.7v-0.7h0.4v-2.2h1.1v-0.4h-0.4v-1.1h1.5v-0.4H71v-0.4h3.7v0.7h-0.4v0.4h1.9v0.4h1.1v0.4h3.3v-0.4h-0.4v-0.7h1.1
		v-0.4h1.1v-0.4h0.4v-1.1H84v-0.4h0.4v-0.7h0.4v-0.4h0.7v-0.4h-0.4v-0.4H69.5v1.5h-0.4v0.4h-1.9v-0.4h-0.4v-0.4h0.7v-0.4h0.4v-0.4
		H64.3z"/>
	<path fill-rule="evenodd" clip-rule="evenodd" fill="#817671" d="M60.6,80.7v0.7h-0.7v0.4h0.4v0.4h1.1v0.4h0.7v0.4H61v0.4h0.7V84
		H61v0.4h-0.4v0.4h1.1v1.1h-0.4V87h-0.7v0.4H61v1.1h-1.1v-0.4H58v-0.4h-4.5v0.7h0.4v0.7h0.4v0.4h0.4V90H55v0.4h0.4v0.4h0.4v0.4h0.4
		v0.4h0.4v0.7h0.4v0.4h0.4v0.4h0.4v-0.7h3v-1.1H61V90h0.4v-1.1h0.4v-1.5h0.4v-1.1h0.4v-1.1h0.4V84h0.4v-2.2h0.4v-1.1H64v-1.5h0.4
		v-1.1h0.4v-1.1h0.4v-1.1h0.4v-1.5h0.4v-1.5h0.4v-1.5h0.4v-0.7h0.4v-1.1h0.4v-1.1h0.4v-1.5h0.4v-0.7h20.1v-0.4h-4.5v-0.4h2.2v-1.9
		H87v-0.4h0.7v-1.5h0.7v-0.7h0.4v-0.4h0.7v-0.4H90v-0.7h0.4v-0.4h-1.1v0.4h-0.4v0.4h-0.7v-1.1h-3v0.4h0.4v0.7h-0.4v0.4h0.4v0.4h-0.4
		v1.1h1.5v1.5h-4.1v0.7h0.7v0.7h-1.1V65h-0.4v0.4h-4.5V65h-1.5v-0.4h-0.4v-0.4h-4.1v0.4h-3v0.7h-1.9v1.1h-0.4v1.9h-0.4v1.1h-0.4v1.1
		h0.4v0.7h-0.4v0.4h-0.7v1.9h-1.1V74h1.1v1.5h-2.6v0.4h-0.7v0.4h1.9v0.7h-0.7v0.4h0.7v0.7h-0.7v0.7h0.4v0.4h-0.7v0.7h0.4v0.4H61v0.4
		H60.6z"/>
	<path fill-rule="evenodd" clip-rule="evenodd" fill="#766E6D" d="M96.7,43.5h0.4v0.7h0.4v1.1h-1.1v0.4H96v0.4h-0.4v0.4h-0.4v0.4H93
		v-0.4h-2.2v-0.4h4.5v-0.7h-0.4v-0.7H93v-0.4h0.4v-0.4h0.7v-0.4h-3v-0.7h6.3v0.4h-0.7V43.5z M81.4,41.2v0.4h-1.1V42H80v0.7h-0.4v0.4
		h-0.7v0.4h-0.4v0.4h-0.7v0.4h-1.1v0.4h2.2v0.4h4.8v0.7h0.7v0.4h1.5v0.4h-0.7v0.4h1.1v0.4H87v0.4h10.4v-0.4h0.4v-0.7h0.4v-0.7h0.4
		v-0.7h0.4v-0.7h0.4v-0.7h0.4v-0.7h0.4v-0.4h-1.5v-0.7h0.4v-0.7h-0.4v-0.7h-1.5v0.4h-0.7v0.4h-3.7v0.4H81.4z"/>
	<path fill-rule="evenodd" clip-rule="evenodd" fill="#161A1D" d="M77.7,55.4h16V55h-0.4v-0.4h-0.7v-0.4h4.5v0.4h-0.4V55h-0.4v0.4
		H96v0.4h-0.4v0.4h-0.4v1.1h-0.4V58h-0.4v1.1h-0.4v1.1h-0.4v0.7h-0.4v1.1H93v1.1h-0.4v0.7h-0.4V65h-0.4v1.5h-0.4v0.7h-0.4V68h-0.4
		v1.1H70.3v0.7h-0.4v0.4h0.4v0.4h0.4V71h21.2v-0.4h0.4v-1.1h0.4v-1.1H93v-0.7h0.4v-1.1h0.4v-1.1h0.4v-0.7h0.4v-1.1h0.4v-1.1h0.4
		v-0.7h0.4v-1.1H96v-1.1h0.4v-1.1h0.4v-0.7h0.4v-1.1h0.4v-1.1h0.4v-1.5H75.9v0.4h0.4v0.4h1.1V55h0.4V55.4z"/>
	<path fill-rule="evenodd" clip-rule="evenodd" fill="#82807F" d="M20.8,55.4h3V55h-0.4v-0.4h0.4v-0.4h0.4v-0.4h-0.4v-1.1h0.4V52
		h7.4v0.4h3.3v0.7h2.2v0.4h1.5V55h-0.4v1.1h-0.4v0.7h1.5V58h0.7v-0.7h0.4v-0.7h0.4v-0.4h-0.4v-3.7h-0.4V52h0.4v-0.4h0.4v-0.7h-0.7
		v-0.7h-0.4v-0.4h1.5v-0.4h-0.7V49h-2.2v-0.4h-8.9v-0.4h-4.8v0.4h-1.9V49h5.6v0.4h-7.1v0.7h-0.4v0.4h-0.4v0.4h-0.4v0.4h-0.4v1.1
		h-0.4v0.4h2.2v0.7h0.4v0.4h0.7v0.4h-0.4V55h-1.5V55.4z"/>
	<path fill-rule="evenodd" clip-rule="evenodd" fill="#726C69" d="M44.2,73.6H42v-1.1h-0.7v-1.1h0.4V71h0.7v-0.7H42v-1.1h0.7v-0.7
		h-0.4V68h-1.1v-0.7h1.1v-0.4h0.7v-0.7h1.1v-0.4h-3.3v0.4h-1.5v0.7h1.5v0.4h-0.7v0.4h-0.4v0.7h0.7v0.7h-0.7v0.4h-0.4v0.4h1.1v0.4
		h-2.2V71h0.4v0.4H39v0.4h0.4v0.4h0.4v0.4h0.4v0.7h0.4v0.4h0.4V74h0.4v0.4h0.4v0.4H42v0.4h0.4v0.4h0.4v0.4h0.4v0.4h0.4v0.4h0.4v0.4
		h0.4v0.7h0.4v0.4H45v0.4h0.4v0.4h0.4v0.7h0.7v0.4h1.9v0.4H48v1.1h0.4v0.7h0.4v0.4h3v-0.4h-1.1v-0.4h-0.4V81h-0.4v-0.4h0.7v-0.7
		h-0.4v-0.4h-0.4v-0.4h-0.7v-0.4h1.1v-0.7h0.7v-0.4h1.5v-0.4h0.4v-0.4h1.9v-1.1H55v-0.4h0.4v-1.1h0.4V74h0.4v-2.6h0.4V71h0.4v-0.4
		h0.4v-1.5H58v-0.7h-0.4V68H58v-1.5h1.1v-0.7h-1.9V65h-0.4v0.7h-0.4V68h-0.4v1.1h-0.4v0.4h-0.4v1.9H55v3.7h-1.5v0.7h0.4v0.4h-1.5
		v0.4h-1.9v-0.4h-1.5v-0.7h-0.4v-0.7h-0.4v-0.4H48V74h1.5v-0.4h-0.7v-1.1h-1.5v0.7h0.4v0.4h-1.1V74h-2.2V73.6z"/>
	<path fill-rule="evenodd" clip-rule="evenodd" fill="#212323" d="M60.6,101.1h-0.4v-0.4h-0.4V100h-0.4v-0.4h-0.4v-0.4h-0.4v-0.4
		h-0.4v-0.4H58v-0.4h-0.4v-0.4h-0.4v-0.4h-0.4V97h-0.4v-0.4h-0.4v-0.4h-0.4v-0.7h-0.4v-0.4H55v-0.4h-0.4v-0.4h-0.4v-0.4h-0.4v-0.4
		h-0.4v-0.4h-0.4v-0.4h-0.4v-0.7h-0.4v-0.4h-0.4v-0.4h-0.4v-0.4h-0.4v-0.4h-0.4v-0.4h-0.4V90h-0.4v-0.4h-0.4v-0.4h-0.4v-0.4h-0.4
		v-0.7h-0.4v-0.4h-0.4v-0.4H48V87h-0.4v-0.4h-0.4v-0.4h-0.4v-0.4h-0.4v-0.4h-0.4v-0.4h-0.4v-0.4h-0.4V84H45v-0.4h-0.4v-0.4h-0.4
		v-0.4h-0.4v-0.4h-0.4v-0.4h-0.4v-0.4h-0.4v-0.4h-0.4v-0.7H42v-0.4h-0.4v-0.4h-0.4v-0.4h-0.4v-0.4h-0.4v-0.4h-0.4v-0.4h-0.4v-0.4
		h-0.4v-0.7H39v-0.4h-0.4v-0.4h-0.4v-0.4h-0.4v-0.4h-0.4v-0.4h-0.4v-0.4h-0.4v-0.7h-0.4V74h-0.4v-0.4h-0.4v-0.4h-0.4v-0.4h-0.4v-0.4
		h-0.4v-0.7h-0.4v-0.4h-0.4V71h-0.4v-0.4h-0.4v-0.4h-0.4v-0.4h-0.4v-0.4H32v-0.4h-0.4v-0.4h-0.4v-0.4h-0.4V68h-0.4v-0.7h-0.4v-0.4
		h-0.4v-0.4h-0.4v-0.4H29v-0.4h-0.4v-0.4h-0.4v0.4h-0.4v-0.4h-0.4V65h-0.4v0.7h0.4v0.4h0.4v0.7h0.4v0.4h0.4v0.4H29V68h0.4v0.4h0.4
		v0.4h0.4v0.4h0.4v0.4h0.4v0.7h0.4v0.4h0.4V71H32v0.4h0.4v0.4h0.4v0.4h0.4v0.4h0.4v0.4h0.4v0.4h0.4v0.4h0.4v0.7h0.4v0.4h0.4v0.4h0.4
		v1.1h0.4v0.4h0.4v0.4h0.4v0.4h0.4v0.7h0.4v0.4h0.4v0.4h0.4v0.4h0.4v0.4H39v0.4h0.4v0.4h0.4V81h0.4v0.4h0.4v0.4h0.4v0.4h0.4v0.4h0.4
		v0.4H42v0.4h0.4v0.4h0.4V84h0.4v0.4h0.4v0.7h0.4v0.4h0.4v0.4h0.4v0.4H45v0.4h0.4V87h0.4v0.4h0.4v0.4h0.4v0.7h0.4v0.4h0.4v0.4h0.4
		v0.4H48V90h0.4v0.4h0.4v0.4h0.4v0.4h0.4v0.4h0.4v0.7h0.4v0.4h0.4v0.4h0.4v0.4h0.4v0.4h0.4v0.4h0.4v0.4h0.4v0.4h0.4v0.4h0.4v0.7h0.4
		v0.4h0.4v0.4h0.4V97h0.4v0.4H55v0.4h0.4v0.4h0.4v0.4h0.4v0.7h0.4v0.4h0.4v0.4h0.4v0.4h0.4v0.4H58v0.4h0.4v0.4h0.7v0.4h0.4v0.4h0.4
		v0.4h0.4v0.4h0.4v0.4H61v-1.1h-0.4V101.1z"/>
	<path fill-rule="evenodd" clip-rule="evenodd" fill="#4B4644" d="M59.5,94.8h-0.4v-0.4h-0.4v-0.4h-0.4v-0.4H58v-0.4h-0.4v-0.4h-0.4
		v-0.4h-0.4v-0.4h-0.4v-0.7h-0.4v-0.4h-0.4v-0.4h-0.4v-0.4H55V90h-0.4v-0.4h-0.4v-0.4h-0.4v-0.7h-0.7v-0.7h-0.4v-0.4h-0.4V87h-0.4
		v-0.4h-0.4v-0.4h-0.4v-0.4h-0.4v-0.7h-0.7v-0.4h-0.4V84h-0.4v-0.4h-0.4v-0.4h-0.4v-0.4h-0.4v-0.4H48v-0.4h-0.4v-0.4h-0.4v-0.4h-0.4
		V81h-0.4v-0.4h-0.4v-0.4h-0.4v-0.4h-0.4v-0.4H45v-0.7h-0.4v-0.4h-0.4v-0.4h-0.4v-0.4h-0.4v-0.4h-0.4v-0.4h-0.4v-0.4h-0.4v-0.7H42
		v-0.4h-0.4v-0.4h-0.4v-0.4h-0.4v-0.4h-0.4V74h-0.4v-0.4h-0.4v-0.4h-0.4v-0.7H39v-0.4h-0.4v-0.4h-0.4v-0.4h-0.4V71h-0.4v-0.4h-0.4
		v-0.4h-0.4v-0.4h-0.4v-0.7h-0.4v-0.4h-0.4v-0.4h-0.4V68h-0.4v-0.4h-0.4v-0.7h-0.4v-0.4h-0.4v-0.4h-0.4v-0.4h-0.4v-0.4h-0.4V65h-0.4
		v-0.4H32v-0.4h-0.4v-0.7h-0.4v-0.4h-0.4v-0.4h-0.4v-0.4h-0.4v-0.4h-0.4v-0.4h-0.4v-0.4H29v-0.4h-0.4v-0.4h-0.4v-0.4h-0.4v-0.4h-0.4
		v-0.7h-0.4v-0.4h-0.4v-0.4h-0.4V58H26v-0.4h-0.4v-0.4h-0.4v-0.4h-0.4v-0.4h-0.4v-0.4h-0.4v-0.4h-0.7v0.4h0.4v0.4h-0.4v0.7h0.4v0.4
		h0.7v0.7h0.4v0.4h0.4v0.4h0.4v0.4H26v0.4h0.4v0.4h0.4v0.4h0.4v0.4h0.4v0.4h0.4v0.7h0.4v0.4h0.4v0.4H29v0.4h0.4v0.4h0.4v0.4h0.4v0.4
		h0.4v0.4h0.4V65h0.4v0.4h0.4v0.7H32v0.4h0.4v0.4h0.4v0.4h0.4v0.4h0.4V68h0.4v0.4h0.4v0.4h0.4v0.4h0.4v0.7h0.4v0.4h0.4v0.4h0.4V71
		h0.4v0.4h0.4v0.4h0.4v0.4h0.4v0.4h0.4v0.4h0.4v0.7h0.4V74H39v0.4h0.4v0.4h0.4v0.4h0.4v0.4h0.4v0.4h0.4v0.4h0.4v0.7h0.4v0.4H42v0.4
		h0.4v0.4h0.4v0.4h0.4v0.4h0.4v0.4h0.4v0.7h0.4v0.4h0.4v0.4H45V81h0.4v0.4h0.4v0.4h0.4v0.4h0.4v0.4h0.4v0.4h0.4v0.4h0.4V84H48v0.4
		h0.4v0.4h0.4v0.4h0.4v0.4h0.4v0.4h0.4v0.4h0.4v0.4h0.4V87h0.4v0.4h0.4v0.7h0.4v0.4h0.4v0.4h0.4v0.4h0.4v0.4h0.4V90h0.4v0.4h0.4v0.4
		h0.4v0.4h0.4v0.7H55v0.4h0.4v0.4h0.4v0.4h0.4v0.4h0.4v0.4h0.4v0.7h0.4v0.4h0.4v0.4H58v0.4h0.4v0.4h0.4v0.4h0.4v0.4h0.4v0.7h0.7
		v-0.7h0.4v-1.1H61v-1.5h0.4v-1.1h0.4v-1.1h0.4v-1.5h0.4v-1.1h0.4v-1.5h0.4v-1.1h0.4v-1.5H64v-1.5h0.4v-1.1h0.4v-1.1h0.4v-1.5h0.4
		v-1.1h0.4v-1.1h0.4v-1.1h-0.4v0.4h-0.4v1.5h-0.4v1.1h-0.4v1.1h-0.4v1.1H64v1.5h-0.4v1.1h-0.4v1.1h-0.4v1.1h-0.4v1.1h-0.4v1.5h-0.4
		v1.1h-0.4v1.5H61v0.7h-0.4v2.2h-0.4v1.5h-0.4v-0.4h-0.4V94.8z"/>
	<path fill-rule="evenodd" clip-rule="evenodd" fill="#777473" d="M43.5,65.8v-0.4h-0.4V65h-0.4v-0.4h-0.4v-0.4H42v-0.4h-0.4v-0.4
		h-0.4v-0.4h-0.7v-0.4h-0.4v-0.4h-0.7v-0.7h1.1v0.4h0.7v0.7H42v0.4h0.4v0.4h0.4v0.4h0.4v0.4h0.4v0.4h0.4V65h0.4v0.4h0.4v0.4H45v0.4
		h0.4V65h-0.7v-0.4h-0.4v-0.4h-0.4v-0.4h-0.4v-0.4h-0.4v-0.4h-0.4v-0.4h-0.4v-0.4H42v-0.4h-0.4v-0.4h-0.7v-0.4h-0.4v-0.4H39v-1.1
		h-0.4v1.1h-0.4v-1.5h-0.7v0.4h0.4v1.1h-2.2v-0.4h-3v-0.4h-0.4v0.4h-0.7v0.4h1.5v1.1H32v0.4h0.7v0.4h4.1v0.4h0.7v0.4h-4.1v0.7h0.4
		v0.4h0.4V65h-1.1v0.7h0.4v0.4h0.4v0.4h0.4v0.4h0.4v0.7h0.4V68h0.4v0.4h0.4v0.4h0.4v0.4h0.4v0.7h0.4v0.4h0.4v0.4h0.4V71h0.4v0.4h0.4
		v0.4h0.4v0.4H39v0.4h0.4v0.7h0.4v0.4h0.4V74h0.4v0.4h0.4v0.4h0.4v0.4h0.4v0.4H42v0.4h0.4v0.7h0.4v0.4h0.4v0.4h0.4v0.4h0.4v0.4h0.4
		v0.4h0.4v0.4H45v0.7h0.4v0.4h0.4v0.4h0.7v-0.7h-0.7v-0.7h-0.4v-0.4H45v-0.4h-0.4v-0.4h-0.4v-0.7h-0.4v-0.4h-0.4v-0.4h-0.4v-0.4
		h-0.4v-0.4h-0.4v-0.4H42v-0.4h-0.4v-0.4h-0.4V74h-0.4v-0.4h-0.4v-0.4h-0.4v-0.7h-0.4v-0.4h-0.4v-0.4H39v-0.4h-0.4V71h-0.4v-0.7h2.2
		v-0.4h-1.1v-0.4h0.4v-0.4h0.7v-0.7h-0.7v-0.7h0.4v-0.4h0.7v-0.4h-1.5v-0.7h1.5v-0.4H43.5z"/>
	<path fill-rule="evenodd" clip-rule="evenodd" fill="#908D8B" d="M69.5,38.3v0.4h-0.4v0.7h-0.4v0.4h-0.7v0.4h-0.4v0.7h-0.4v0.7
		h-0.4V42h-0.4v0.7h-0.4v0.4h-0.4v0.7h-1.5v0.4H64v0.4h-0.4v0.7h-0.4v1.1h-0.4v1.5h-0.4V49h-0.4v0.4h-0.4v1.9h-0.4v1.1H61v0.7h0.4
		v-0.4h1.1V52h0.4v-1.1h0.7V49H64v-1.1h1.1v-1.9h0.7v-0.4h1.1v-3h0.4V42h0.7v-0.4h2.2v-0.4h2.2v-0.4h0.7v-0.7h2.2v-0.4h2.2v-0.4h6
		V39h5.6v-0.4h8.2v-0.4h0.7v-0.4h0.4v-0.4h1.1v-0.4h0.7v-0.7h0.4v-1.1h-0.4v0.4H100V36h-0.7v0.4h-1.1v0.7h-1.1v0.4h-1.9v0.4H69.9
		v0.4H69.5z"/>
	<path fill-rule="evenodd" clip-rule="evenodd" fill="#191E1E" d="M35.7,75.8v-0.7h-0.4v-0.4h-0.4v-0.4h-0.4v-0.7h-0.4v-0.4h-0.4
		v-0.4h-0.4v-0.4h-0.4v-0.4h-0.4v-0.4h-0.4v-0.4H32V71h-0.4v-0.4h-0.4v-0.4h-0.4v-0.7h-0.4v-0.4h-0.4v-0.4h-0.4v-0.4h-0.4V68H29
		v-0.4h-0.4v-0.4h-0.4v-0.4h-0.4v-0.7h-0.4v-0.4h-0.4V65h0.4v0.4h0.4v0.4h0.4V65h-0.4v-0.4h-0.4v-0.7h-0.4v-0.4h-0.4v-0.4h-0.4v-0.4
		H26v-0.4h-0.4v-0.4h-0.4v-0.4h-0.4v-0.7h-0.4v-0.4h-0.4v-0.4h-0.4v-0.4h-0.4v-0.4h-0.7v-0.4h-1.5v0.4h-0.4v0.4h-0.4v0.4h-0.4v0.4
		h-0.4v0.4h-0.4v0.7H19v0.4h-0.4v0.4h-0.4v0.4h-0.4v0.4h-0.4v0.4h-0.4v0.7h-0.4v0.4h-0.4V65H16v0.4h-0.4v0.7h-0.4v0.4h-0.4v-5.6
		h-0.4v-7.1h-0.4v-3.7h-0.4v-0.4h-0.4v-2.2H13v14.1h0.4v8.9h1.1v-0.7h0.4v-0.4h0.4v-0.4h0.4v-0.4H16V68h0.4v-0.4h0.4v-0.4h0.4v-0.4
		h0.4v-0.7h0.4v-0.4h0.4v-0.4h0.4V65H19v-0.7h0.4v-0.4h0.4v-0.4h0.4v-0.4h0.4v-0.7h0.4v-0.4h0.4v-0.4h0.4v-0.4h1.1v0.4H23v0.4h0.4
		v0.4h0.4v0.7h0.4v0.4h0.4v0.4h0.4v0.4h0.4v0.4h0.4V65H26v0.4h0.4v0.4h0.4v0.4h0.4v0.7h0.4v0.4h0.4v0.4h0.4V68h0.4v0.4H29v0.4h0.4
		v0.4h0.4v0.4h0.4v0.4h0.4v0.7h0.4V71h0.4v0.4h0.4v0.4H32v0.4h0.4v0.4h0.4v0.4h0.4v0.4h0.4v0.4h0.4v0.7h0.4v0.4h0.4v0.4h0.4v0.4h0.4
		v0.4H35.7z"/>
	<g>
		<defs>
			<rect id="SVGID_5_" x="58.7" y="70.1" width="30.3" height="34.7"/>
		</defs>
		<clipPath id="SVGID_6_">
			<use xlink:href="#SVGID_5_"  overflow="visible"/>
		</clipPath>
		<g clip-path="url(#SVGID_6_)">
			<path fill-rule="evenodd" clip-rule="evenodd" fill="#11161A" d="M62.5,96.3v1.5h-0.4v1.5h-0.4v0.7h-0.4v1.1h-0.7v1.1H61v1.1
				h-0.4V103h-0.4v-0.4h-0.4v-0.4h-0.4v-0.4h-0.4v-0.4h-0.4v0.7h0.4v0.4h0.4v0.4h0.4v0.4h0.4v0.4h0.4v0.4H61v0.4h0.4v0.4h0.4v-0.4
				h0.4v-0.7h0.4v-1.5h0.4v-1.1h0.4v-1.5h0.4v-1.1H64V97h0.4v-1.5h0.4v-1.1h0.4v-1.5h0.4v-1.5h0.4v-1.1h0.4v-1.5h0.4v-1.1h0.4v-1.5
				h0.4v-1.1h0.4v-1.5h0.4v-1.1h0.4V81h0.4v-1.1h0.4v-1.1h0.4v-1.5h0.4v-1.1h0.4v-1.5h0.4v-1.1H71v-1.5h0.4v-0.4h0.4v-0.4h17.1V71
				H70.7v-0.4h-0.4v-0.4h-0.4V71h-0.4v0.7h-0.4v1.5h-0.4v1.1h-0.4v1.5h-0.4v1.1h-0.4v1.9h-0.4v1.1h-0.4v1.5h-0.4v0.7h-0.4V84h-0.4
				v1.1h-0.4v1.5h-0.4v1.1h-0.4v1.1h-0.4v1.5H64v0.7h-0.4v1.9h-0.4v2.2h-0.4v1.1H62.5z"/>
		</g>
	</g>
	<path fill-rule="evenodd" clip-rule="evenodd" fill="#333D43" d="M16.7,60.6h-0.4v2.2h1.1v0.4h0.4v-0.4h0.4v-0.4h0.4v-0.4H19v-0.4
		h0.4v-0.7h0.4v-0.4h0.4v-0.4h0.4v-0.4h0.4v-0.4h0.4v-0.4h1.5v0.4h0.7v0.4h0.4v0.4h0.4v0.4h0.4v0.4h0.4v0.7h0.4v0.4h0.4v0.4H26v0.4
		h0.4v0.4h0.4v0.4h0.4v0.4h0.4v0.7h0.4V65h0.4v0.4h0.4v0.4H29v0.4h0.4v0.4h0.4v0.4h0.4v0.4h0.4V68h0.4v0.4h0.4v0.4h0.4v0.4H32v0.4
		h0.4v0.4h0.4v0.4h0.4v0.4h0.4V71h0.4v0.4h0.4v0.4h0.4v0.7h0.4v0.4h0.4v0.4h0.4v0.4h0.4V74h0.4v0.4h0.4v0.7h0.4v0.4h0.4v0.4h0.4v0.4
		h0.4v0.4h0.4v0.4H39v0.4h0.4v0.7h0.4v0.4h0.4v0.4h0.4v0.4h0.4v0.4h0.4v0.4h0.4v0.4H42v0.4h0.4v0.7h0.4v0.4h0.4v0.4h0.4v0.4h0.4v0.4
		h0.4v0.4h0.4v0.4H45V84h0.4v0.7h0.4v0.4h0.4v0.4h0.4v0.4h0.4v0.4h0.4v0.4h0.4V87H48v0.4h0.4v0.4h0.4v0.4h0.4v0.7h0.4v0.4h0.4v0.4
		h0.4V90h0.4v0.4h0.4v0.4h0.4v0.4h0.4v0.4h0.4v0.4h0.4v0.4h0.4v0.7h0.4v0.4h0.4v0.4h0.4v0.4h0.4v0.4h0.4v0.4H55v0.4h0.4v0.4h0.4v0.7
		h0.4v0.4h0.4V97h0.4v0.4h0.4v0.4h0.4v0.4H58v0.4h0.4v0.4h0.4v0.4h0.4v-0.4h0.4v0.4h0.4v0.4h0.4v0.4h0.4v0.4H61v-1.5h0.4v-0.7h0.4
		v1.1h0.4v-1.5h0.4v-2.2h-0.4v0.4h-0.4V97h-0.4v0.4h-0.7v0.7h-1.9v-0.4h-0.4v-0.4H58V97h-0.4v-0.4h-0.4v-0.4h-0.4v-0.4h-0.4v-0.4
		h-0.4v-0.4h-0.4v-0.4h-0.4v-0.4H55v-0.4h-0.4v-0.7h-0.7v-0.7h-0.4v-0.4h-0.4v-0.4h-0.4v-0.4h-0.4v-0.4h-0.4v-0.4h-0.4v-0.4h-0.4
		v-0.7h-0.4v-0.4h-0.4v-0.4h-0.4v-0.4h-0.4v-0.4h-0.4v-0.4h-0.4v-0.4h-0.4V87h-0.4v-0.7H48v-0.4h-0.4v-0.4h-0.4v-0.4h-0.4v-0.4h-0.4
		v-0.4h-0.4V84h-0.4v-0.4h-0.4v-0.4H45v-0.4h-0.4v-0.4h-0.4v-0.7h-0.4v-0.4h-0.4V81h-0.4v-0.4h-0.4v-0.4h-0.4v-0.4H42v-0.4h-0.4
		v-0.4h-0.4v-0.7h-0.4v-0.4h-0.4v-0.4h-0.4v-0.4h-0.4v-0.4h-0.4v-0.4H39v-0.7h-0.4v-0.4h-0.4v-0.4h-0.4v-0.4h-0.4v-1.1h-0.4v-0.7
		h-0.4v-0.4h-0.4v-0.4h-0.4v-0.4h-0.4v-0.4h-0.4V71h-0.4v-0.4h-0.4v-0.7h-0.4v-0.4h-0.4v-0.4h-0.4v-0.4h-0.4v-0.4h-0.4V68h-0.4v-0.4
		H32v-0.4h-0.4v-0.7h-0.4v-0.4h-0.4v-0.4h-0.4v-0.4h-0.4V65h-0.4v-0.4h-0.4v-0.4H29v-0.4h-0.4v-0.4h-0.4v-0.7h-0.7v-0.7h-1.1v-0.4
		H26v-0.4h-0.4v-0.4h-0.4v-0.4h-0.4v-0.4h-0.4v-0.7h-0.4v-0.4h-0.4v-0.4H23V58h-2.2v0.7h-0.4v0.4h-0.7v0.4h-0.4v0.7H19v0.4h-0.4v0.4
		h-0.4v0.4h-0.7v0.4h-0.7V60.6z"/>
	<path fill-rule="evenodd" clip-rule="evenodd" fill="#35393B" d="M101.9,38.6h-0.4v0.7h-0.4v0.7h-0.4v0.7h-0.4v0.7H100v1.1h-0.4
		v0.7h-0.4v0.7h-0.4v0.7h-0.4v0.7h-0.4v0.7h-0.4v0.7h-0.4v0.4H73.3v0.4h24.6v0.7H84V49H72.9v-0.4h-0.4v1.1h-0.4v0.7h-0.4v1.9h-0.4
		v1.1H71v1.1h-0.4v1.1h-0.4v1.5h21.9v0.4h0.4v-0.7H71.4v-0.7h0.4V55h0.4v-1.1h0.4v-1.1h0.4v-1.1h0.4v-1.1h0.4v-0.7H74v-0.4h24.2V49
		h0.4v-0.7h0.4v-0.7h0.4v-0.7h0.4v-1.1h0.4v-0.7h0.4v-0.7h0.4v-0.7h0.4v-0.7h0.4V42h0.4v-0.7h0.4v-0.7h0.4v-0.7h0.4v-1.1h0.4v-0.4
		h0.4v-1.1h0.4v-0.7h0.4v-0.7h0.4v-0.7h0.4v-0.7h0.4V33h-0.4v0.7h-0.4v0.7h-0.4v0.7h-0.4V36h-0.4v0.7h-0.4v0.7H103v0.7h-0.4V39h-0.4
		v0.4h-0.4V38.6z"/>
	<path fill-rule="evenodd" clip-rule="evenodd" fill="#7A7675" d="M23.8,55.4h0.4v-0.7h1.1v-0.7h0.4v-0.4h4.1v0.4h4.8v-0.4h1.9v0.7
		h0.4V55h-2.6v0.7h0.4v0.4h-0.7v0.7h0.4v0.4h0.7V58h-6.3v-0.7h-2.2v-0.4H26V58h0.4v0.4H29v0.4h1.1v0.7h8.2v1.5h0.4v-1.1H39v-0.4h0.4
		v-0.7h0.4V58h-0.4v-1.1h-1.5v-0.7h0.4V55h0.4v-1.5h-1.5v-0.4h-2.2v-0.7h-3.3V52h-7.4v0.7h-0.4v1.1h0.4v0.4h-0.4v0.4h-0.4V55h0.4
		V55.4z"/>
	<path fill-rule="evenodd" clip-rule="evenodd" fill="#DBDADA" d="M60.6,53.9v-0.4H61v-1.1h0.4v-1.1h0.4v-1.9h0.4V49h0.4v-1.1h0.4
		v-1.5h0.4v-1.1h0.4v-0.7H64v-1.1h0.4v-0.7h0.4V42h0.4v-0.4h0.4v-0.7h0.4v-0.4h0.4v-0.4h0.4v-0.4h0.4v-0.4h0.4V39h0.7v-0.4h0.7v-0.4
		h1.1v-0.4h19.3v-0.4h-0.4v-0.4h-10v-0.4H68.4v0.4h-1.1v0.4h-0.4v0.4h-0.7v0.4h-0.4v0.4h-0.4V39h-0.4v0.4h-0.4v0.4h-0.4v0.7H64v0.4
		h-0.4v0.7h-0.4v0.7h-0.4v1.5h-0.4v0.7h-0.4v1.1h-0.4v1.5h-0.4v1.1H61v1.1h-0.4v1.1h-0.4v0.7h-0.4v1.1h-0.4v1.9h0.7v-0.4H60.6z"/>
	<path fill-rule="evenodd" clip-rule="evenodd" fill="#9C9A99" d="M18.6,46.4v0.4h-0.4v0.7h-0.4v0.7h-0.4V49h-0.4v6.7h0.4v-1.9h0.4
		v-0.7h0.4v-1.9H19v-0.4h0.4V49h0.4v-0.4h1.1v-0.4h0.4v-0.4h0.4v-0.7h-1.5v-0.4h4.5v-0.4h3.7v0.4h-1.5v0.4h9.7v0.4h7.1v0.4h1.1V49
		H45v-0.7h0.4v-0.4H45v-0.4h-1.1v-0.4h-6v-0.7h-1.1v-0.4h-2.6v-0.4h1.1v-0.4H20.8v0.4h-1.1v0.4h-0.4v0.4H18.6z"/>
	<path fill-rule="evenodd" clip-rule="evenodd" fill="#928E8E" d="M21.6,47.9h6.7v-0.4h4.8v0.7h0.4v0.4h4.8V49h2.2v0.4h0.7v0.4h-1.5
		v0.4h0.4v0.7h0.7v0.7h-0.4V52h-0.4v0.4h0.4v3.7h0.7v-0.7h0.4v-0.7H42v-0.7h0.4v-0.7h0.4v-0.7h0.4V52h0.4v-0.7h0.4v-0.7h0.4v-0.7
		h0.4v-1.9h-1.1v-0.4h-7.1v-0.4h-9.7v-0.4h1.5v-0.4h-3.7v0.4h-4.5v0.4h1.5V47.9z"/>
	<path fill-rule="evenodd" clip-rule="evenodd" fill="#70645F" d="M55.8,74.3h-0.4v1.1H55v0.4h-0.4v1.1h-1.9v0.4h-0.4v0.4h-1.5v0.4
		h-0.7v0.7h-1.1v0.4h0.7v0.4h0.4v0.4h0.4v0.7h-0.7V81h0.4v0.7h0.4v0.4h1.1v0.4H55v-0.4h-0.7v-0.4h0.4v-0.4h1.5V81h1.5v-0.7h-1.9
		v-0.4h1.1v-0.4h0.4v-0.4h0.4v-1.1h1.9v-1.1h0.4v-1.9h1.9v-0.4h0.4v-0.4h0.4v-1.1h-3V74h-0.4v0.4h0.4v0.4h-0.4v0.4h-0.4v1.1h-0.4
		v0.7H58v0.4h-0.7v0.7h-1.9v-1.5h0.4V74.3z"/>
	<path fill-rule="evenodd" clip-rule="evenodd" fill="#6A5E5A" d="M55.8,74.3v2.2h-0.4v1.5h1.9v-0.7H58v-0.4h0.4v-0.7h0.4v-1.1h0.4
		v-0.4h0.4v-0.4h-0.4V74h0.4v-0.7h3v-0.7h-0.4V71h0.4v-0.4h-0.4v-2.2h0.7V68h-0.4v-0.7H64v-0.7h0.4v-0.7h0.4V65h-0.4v-1.5H64v-0.4
		h-0.4v0.4h-0.4v0.4h-0.4v0.7h-0.7V65h-0.7v0.7h1.1v0.7h-2.2V68h-0.7v0.4h0.7v0.4h0.4v0.4h-1.5v0.4h-0.7v1.1H58V71h-0.7v0.7H58v1.1
		h-0.7v1.5H55.8z"/>
	<path fill-rule="evenodd" clip-rule="evenodd" fill="#EAEAEA" d="M20.1,44.2h-0.4v0.4H19v0.4h-0.4v0.4h-0.4v1.1h1.1v-0.4h0.4v-0.4
		h1.1v-0.7h35v-0.4h0.7v-0.4H55v-0.4h-35V44.2z"/>
	<path fill-rule="evenodd" clip-rule="evenodd" fill="#736F6E" d="M22.7,55.4v0.4h1.5v0.4h0.4v0.4h0.4v0.4h0.4v0.4h0.4v0.4H26v-0.7
		h0.4v0.4h2.2V58h6.3v-0.7h-0.7v-0.4h-0.4v-0.7h0.7v-0.4h-0.4V55h2.6v-0.7h-0.4v-0.7h-1.9v0.4h-4.8v-0.4h-4.1v0.4h-0.4v0.7h-1.1v0.7
		H22.7z"/>
	<path fill-rule="evenodd" clip-rule="evenodd" fill="#726D6A" d="M59.5,57.6v0.7h-0.4v1.1h-0.4v1.1h-0.4v0.7h4.1v-0.7h0.4v-1.5h5.2
		v0.4h-0.4v0.4h-0.7v0.4h0.4v0.4h1.9v-0.4h0.4v-1.5h-5.2V58h-2.6v-0.7h0.4v-0.7h1.1v-0.4h0.4v-0.4h0.7V55h0.4v-0.7h2.2v-0.7h0.4
		v-0.4h3v0.7h0.4v-1.5H71v-1.5h-3v0.7h-0.4V52h-0.7v0.4h-1.5v0.4h-1.1v0.4h-0.7v0.7h0.7v0.4h-1.1v0.4h-0.4v0.7h-0.4v0.4h-0.7v0.7
		h-0.4v0.4H61v0.4h-0.7v0.4H59.5z"/>
	<path fill-rule="evenodd" clip-rule="evenodd" fill="#B8B6B6" d="M43.5,65.8h0.7v0.4h0.4v0.4H45v0.4h0.4v0.4h0.4v0.4h0.4V68h0.4
		v0.4h0.4v0.4h0.7v0.4H48v0.4h0.4v0.4h0.4v0.4h0.4v0.4h0.4V71h0.7v0.4h0.4v0.4h0.4v0.4h0.4v0.4h0.4v0.4h0.4v0.4h0.4v0.4h1.9v-0.4
		h0.4v-0.7H55v-1.1h0.4v-1.9h0.4v-0.4h0.4V68h0.4v-2.2h0.4V65h0.4v-1.1h0.4v-1.1H58v-1.1h0.4v-1.1h0.4v-1.1h0.4v-1.1h0.4v-1.1h-0.7
		v-1.1h-0.4v0.7H58v1.5h-0.4v1.1h-0.4v1.1h-0.4v1.1h-0.4v0.7h-0.4v1.5h-0.4v1.9h-0.4v0.4H55v1.5h-0.4v1.5h-0.4v1.1h-0.4V71h-0.4v1.1
		h-0.4v0.7h-0.7v-0.4h-0.4v-0.4h-0.4v-0.4h-0.4v-0.4h-0.4V71h-0.4v-0.4h-0.4v-0.4h-0.4v-0.4h-0.4v-0.4h-0.7v-0.4h-0.4v-0.4H48v-0.4
		h-0.4V68h-0.4v-0.4h-0.4v-0.4h-0.4v-0.4h-0.4v-0.4h-0.4v-0.4H45v-0.4h-0.4v-0.4h-0.4V65h-0.4v-0.4h-0.4v-0.4h-0.4v-0.4h-0.4v-0.4
		h-0.4v-0.4H42v-0.4h-0.7v-0.7h-0.7v-0.4h-1.1v0.7h0.7v0.4h0.4v0.4h0.7v0.4h0.4v0.4H42v0.4h0.4v0.4h0.4V65h0.4v0.4h0.4V65.8z"/>
	<path fill-rule="evenodd" clip-rule="evenodd" fill="#2A3237" d="M40.9,61.3v0.4h0.7v0.4H42v0.4h0.4v0.4h0.4v0.4h0.4v0.4h0.4v0.4
		h0.4v0.4h0.4v0.4h0.4V65h0.7v0.4h0.4v0.4h0.7v0.4h0.4v0.4h0.4v-0.4H48v0.4h0.4v0.4h0.4v0.4h0.7v0.4h0.4V68h0.4v0.4h0.4v0.4h0.4v0.4
		h0.4v0.4h1.9v-0.4h0.4v-0.4h0.4v-1.1h0.4v-2.2h0.4v-1.1H55v-0.7h0.4v-1.1h0.4v-0.7h0.4v-2.6h-0.4v0.7h-0.4v1.1H55v1.1h-0.4v1.1
		h-0.4v1.1h-0.4v1.1h-0.4v0.7h-0.4v1.1h-0.4v1.1h-1.1V68h-0.4v-0.4h-0.4v-0.4h-0.4v-0.4h-0.4v-0.4h-0.4v-0.4h-0.4v-0.4h-0.7v-0.4
		h-0.4V65H48v0.4h-1.5v-0.7h-0.7v-0.4h-0.4v-0.4H45v-0.4h-0.4v-0.4h-0.7v-0.4h-0.4v-0.4h-0.4v-0.7h-0.4v-0.7h0.4v-0.4h-0.4v-0.4
		h-0.4v-0.4h0.4v-0.7h0.4v-0.7h0.4v-1.1h0.4v-0.4h0.4v-0.7h9.3v-0.4h0.4v-0.4h-9.7v0.4h-0.7v0.4h-0.4v0.4h-0.4v1.1h-0.4V58H42v0.7
		h-0.4v2.6H40.9z"/>
	<path fill-rule="evenodd" clip-rule="evenodd" fill="#C9C6C5" d="M67.7,57.6V58h-1.9v0.4h0.4v0.4h24.9V58h0.7v-0.4h0.4v-0.4H69.5
		v0.4H67.7z"/>
	<path fill-rule="evenodd" clip-rule="evenodd" fill="#B8B6B6" d="M69.2,36.8h9.7v0.4h10v0.4h0.4v0.4h6v-0.4h1.9v-0.4h1.1v-0.7h1.1
		V36h0.7v-0.4h0.4v-0.4h0.7v-0.4h0.4v-0.4h0.7v-0.4h0.4v-0.4h0.4v-0.4h0.7V33h0.7v-0.7h0.4v-0.4h0.4v-0.4h0.4v-0.4h0.4v-0.7h-0.7
		v0.4h-0.4v0.4h-0.4v0.4h-0.7v0.4H103v0.4h-0.4v0.4h-0.7V33h-0.4v0.4h-0.7v0.4h-0.4v0.4h-0.7v0.4h-0.4v0.4h-0.7v0.4h-0.7v0.4h-0.7
		V36H96v0.4H69.2V36.8z"/>
	<path fill-rule="evenodd" clip-rule="evenodd" fill="#8A8786" d="M17.1,55.7v3.3h0.4v-0.4h0.4v-0.4h0.4v-0.7h0.4v-0.4H19v-0.4h0.4
		v-0.4h0.4v-0.4h0.4v-0.4h0.4v-0.4h0.4V55h1.5v-0.7h0.4v-0.4h-0.7v-0.4h-0.4v-0.7h-2.2v-0.4h0.4v-1.1h0.4v-0.4h0.4v-0.4h0.4v-0.4
		h0.4v-0.7h7.1V49h-5.6v-0.4h1.9v-0.4h4.8v0.4h4.1v-0.4h-0.4v-0.7h-4.8v0.4h-7.1v0.4h-0.4v0.4h-1.1V49h-0.4v1.9H19v0.4h-0.7v1.9
		h-0.4v0.7h-0.4v1.9H17.1z"/>
	<path fill-rule="evenodd" clip-rule="evenodd" fill="#2C3339" d="M92.2,56.9h0.4v0.7H93v2.6h-0.4v0.4h-0.4v1.1h-0.4v1.1h-0.4v0.4
		h-0.4v1.5h-0.4v1.5h-0.4v0.4H90v1.1h-0.4V68h-0.4v0.4H71.4v0.7h19.3V68h0.4v-0.7h0.4v-0.7h0.4V65h0.4v-1.1h0.4v-0.7H93v-1.1h0.4
		v-1.1h0.4v-0.7h0.4v-1.1h0.4V58h0.4v-0.7h0.4v-1.5h-2.6v0.7h-0.4V56.9z"/>
	<path fill-rule="evenodd" clip-rule="evenodd" fill="#766E69" d="M55,72.5h-0.4v0.7h-0.4v0.4h-1.9v-0.4h-0.4v-0.4h-0.4v-0.4h-0.4
		v-0.4h-0.4v-0.4h-0.4v-0.4h-0.4V71h-0.7v-0.4h-0.4v-0.4h-0.4v-0.4h-0.4v-0.4H48v-0.4h-0.4v0.7h-0.4v0.4h-0.4v1.9h-0.4v-0.4h-0.4
		v0.4h-0.7v0.4H45v-0.4h-0.7v0.7h0.4v0.4h-0.4V74h2.2v-0.4h1.1v-0.4h-0.4v-0.7h1.5v1.1h0.7V74H48v0.4h0.4v0.4h0.4v0.7h0.4v0.7h1.5
		v0.4h1.9v-0.4h1.5v-0.4h-0.4v-0.7H55V72.5z"/>
	<path fill-rule="evenodd" clip-rule="evenodd" fill="#A8A4A3" d="M47.6,45.3v0.7H48v0.4h0.7v0.4h2.2v1.5h0.4v1.1h0.4v0.7h-0.4v0.4
		h-0.4v0.4h-0.4v0.4h-0.4v1.1h0.4v0.4h1.9v-0.4h-0.4v-1.9h0.7v-0.4h1.1v-1.5h1.9v-1.5h0.7v-0.4h0.7v0.7h0.4v-0.4H58v-1.9h0.4v-0.4
		h-1.9v0.4H47.6z"/>
	<path fill-rule="evenodd" clip-rule="evenodd" fill="#C9C6C5" d="M20.8,45.3h35.7v-0.4h2.2v-0.4h0.4v-0.4h0.4v-0.4h0.4v-0.4H21.6
		v0.4H55v0.4h1.5v0.4h-0.7v0.4h-35V45.3z"/>
	<path fill-rule="evenodd" clip-rule="evenodd" fill="#716966" d="M44.2,73.6v-0.4h0.4v-0.4h-0.4v-0.7H45v0.4h0.4v-0.4h0.7v-0.4h0.4
		v0.4h0.4v-1.9h0.4v-0.4h0.4v-1.1h-0.7v-0.4h-0.4V68h-0.4v-0.4h-0.4v-0.4h-0.4v-0.4H45v-0.4h-0.4v-0.4h-1.5v0.7h-0.7v0.4h-1.1V68
		h1.1v0.4h0.4v0.7H42v1.1h0.4V71h-0.7v0.4h-0.4v1.1H42v1.1H44.2z"/>
	<path fill-rule="evenodd" clip-rule="evenodd" fill="#7A7675" d="M84.4,47.6H87v-0.4h-0.7v-0.4h-1.1v-0.4h0.7v-0.4h-1.5v-0.4h-0.7
		v-0.7h-4.8v-0.4h-2.2v-0.4h1.1v-0.4h0.7v-0.4h0.4v-0.4h0.7v-0.4H80V42h0.4v-0.4h1.1v-0.4h-3.3v0.4h-1.9v-0.4h-0.7v0.4H74V42h1.5
		v1.1h-0.7v0.7h-1.5v0.4h-0.4v0.4h1.9v0.4h2.6v1.1h4.1v0.7h0.7v0.4h2.2V47.6z"/>
	<path fill-rule="evenodd" clip-rule="evenodd" fill="#74706E" d="M33.1,65.4V65h1.1v-0.4h-0.4v-0.4h-0.4v-0.7h4.1v-0.4h-0.7v-0.4
		h-4.1v-0.4H32v-0.4h1.1v-1.1h-1.5v-0.4h0.7v-0.4h0.4v0.4h3v0.4h2.2v-1.1h-0.4v-0.4h-7.4v-0.7H29v-0.4h-2.2v0.4h0.4v0.4h0.4v0.7h0.4
		v0.4h0.4v0.4h0.4v0.4H29v0.4h0.4v0.4h0.4v0.4h0.4v0.4h0.4v0.4h0.4v0.4h0.4v0.4h0.4v0.7H32v0.4h0.4V65h0.4v0.4H33.1z"/>
	<path fill-rule="evenodd" clip-rule="evenodd" fill="#2B2B2C" d="M44.6,49v0.7h-0.4v0.7h-0.4v0.7h-0.4V52h-0.4v0.4h-0.4v0.7h-0.4
		v0.7h0.7v0.7h13.4v-0.7h-0.4v-0.4h-0.4v-0.4h-8.2v-0.4h-3.3v-1.1h0.4v-0.7H45v-1.1h0.4v-1.1H45V49H44.6z"/>
	<path fill-rule="evenodd" clip-rule="evenodd" fill="#7C726D" d="M59.9,88.1v0.4H61v-1.1h-0.4V87h0.7v-1.1h0.4v-1.1h-1.1v-0.4H61
		V84h0.7v-0.7H61v-0.4h1.1v-0.4h-0.7v-0.4h-1.1v-0.4h-0.4v-0.4h0.7v-0.7h-1.5v0.7h-2.6v0.4h-1.1v0.4h1.5v0.4h-0.4v0.7h-1.9V84h4.1
		v-0.4h0.7v0.7h-0.4v0.4h-0.4v0.4h-2.6v0.4h1.5v0.4h1.9v0.7h-1.1V87h-1.5v0.4h3v0.4h0.7v0.4H59.9z"/>
	<path fill-rule="evenodd" clip-rule="evenodd" fill="#2D373D" d="M88.5,65.8h0.4v1.1H73.6v0.4h-4.5v0.4h-0.4V68h7.4v-0.4h12.6v-0.4
		h0.4v-1.1h0.4v-0.7H90v-0.7h0.4v-1.1h0.4v-1.5h0.4v-0.4h0.4V58h-0.4v1.1h-0.4v0.7h-0.4v1.1H90v0.7h-0.4v1.1h-0.4v1.1h-0.4V65h-0.4
		V65.8z"/>
	<path fill-rule="evenodd" clip-rule="evenodd" fill="#777473" d="M60.6,54.2v0.4h-0.4v1.5h-0.4v1.1h-0.4v0.4h0.7v-0.4H61v-0.4h0.4
		v-0.4h0.4v-0.7h0.7v-0.4h0.4v-0.7h0.4v-0.4h1.1v-0.4h-0.7v-0.7h0.7v-0.4h1.1v-0.4h1.5V52h0.7v-0.4h0.4v-0.7h3v1.5h-0.4v1.5h-0.4V55
		h-0.4v1.5h-0.4v0.7h0.7v-1.5h0.4v-1.1H71v-1.1h0.4v-1.1h0.4v-1.5h-0.4V49h-3v0.4h1.5v0.4h-2.2v0.4h-1.1v0.4h-0.4v0.7h-0.4v0.4h-0.4
		V52h-0.7v0.4H64v0.4h-1.1v0.4h-0.7v0.7h0.4v0.4H60.6z"/>
	<path fill-rule="evenodd" clip-rule="evenodd" fill="#1E2121" d="M73.3,47.9v0.4h-0.4V49H84v-0.4h13.8v-0.7H73.3z"/>
	<path fill-rule="evenodd" clip-rule="evenodd" fill="#67615F" d="M67.7,57.6h-3.3v-0.7h1.1v-0.4h0.7v-0.4h0.7v-0.4h1.9v0.4h0.7v0.4
		h0.4V55h0.4v-1.9h-3v0.4h-0.4v0.7h-2.2V55h-0.4v0.7h-0.7v0.4h-0.4v0.4h-1.1v0.7h-0.4V58h6V57.6z"/>
	<path fill-rule="evenodd" clip-rule="evenodd" fill="#838283" d="M65.8,46.1h4.1v-0.4h0.4v-0.4h0.4v-0.4h-0.4v-0.7h1.1v-0.4h1.5
		v-0.4h-1.1v-0.4h-0.4v-0.4h1.9v-0.4h-0.4V42H71v-0.4h0.7v-0.4h-1.5v0.4h-2.2V42h-0.7v0.7h-0.4v3h-1.1V46.1z"/>
	<path fill-rule="evenodd" clip-rule="evenodd" fill="#A5A2A0" d="M45.4,47.9v-0.4h0.4v-0.4h0.4v-0.7h0.4v-0.4h0.4v-0.4h0.4v-0.4
		H35.3v0.4h-1.1v0.4h2.6v0.4h1.1v0.7h6v0.4H45v0.4H45.4z"/>
	<path fill-rule="evenodd" clip-rule="evenodd" fill="#B4B2B2" d="M52.4,52.8h3.3v-0.4h0.4v-1.9h0.4v-0.7h0.4v-1.1h0.4v-1.9h-0.7
		v0.4h-0.7v1.5h-1.9v1.5h-1.1v0.4h-0.7v1.9h0.4V52.8z"/>
	<path fill-rule="evenodd" clip-rule="evenodd" fill="#7A7675" d="M45.4,47.9h0.4v1.5h0.4v0.4h0.4V52h-0.4v0.4h0.4v0.4h1.1v0.4h8.2
		v-0.4h-7.4v-0.4H48v-1.1h0.4v-0.4h0.4v-0.7h0.4v-0.7h-0.4v-1.1h-0.4v-0.4h-1.1v-0.4h-0.4v-1.1h-0.7v0.7h-0.4v0.4h-0.4V47.9z"/>
	<path fill-rule="evenodd" clip-rule="evenodd" fill="#6B6664" d="M58.4,61.3v0.4H58v1.1h-0.4v1.5h0.7v-0.4h4.1v-1.1h0.4v-1.5h0.7
		v-1.5h0.7v-0.7h-1.5v1.5h-0.4v0.7H58.4z"/>
	<path fill-rule="evenodd" clip-rule="evenodd" fill="#918784" d="M88.5,65.8V65h0.4v-1.1h0.4v-1.1h0.4v-1.1H90v-0.7h0.4v-1.1h0.4
		v-0.7h0.4v-0.4h-3v1.1h0.7v-0.4h0.4v-0.4h1.1v0.4H90v0.7h-0.4v0.4h-0.7v0.4h-0.4v0.7h-0.7v1.5H87v0.4h-1.1v1.9h-2.2v0.4H88.5z"/>
	<path fill-rule="evenodd" clip-rule="evenodd" fill="#6E6561" d="M91.1,43.5h3v0.4h-0.7v0.4H93v0.4h1.9v0.7h0.4v0.7h-4.5v0.4H93
		v0.4h2.2v-0.4h0.4v-0.4H96v-0.4h0.4v-0.4h1.1v-1.1h-0.4v-0.7h-0.4v-0.4h0.7v-0.4h-6.3V43.5z"/>
	<path fill-rule="evenodd" clip-rule="evenodd" fill="#B3AFAE" d="M16.3,61.7v-1.1h0.4v-0.4h0.4v-9.3h-0.4v0.4h-0.4v-2.6H16v13H16.3
		z"/>
	<path fill-rule="evenodd" clip-rule="evenodd" fill="#131314" d="M57.3,47.6v1.1h-0.4v1.1h-0.4v0.7h-0.4v2.6h0.7v0.4h0.7v-1.1H58
		v-1.1h0.4v-0.7h0.4v-1.1h0.4v-1.1h0.4v-1.9h-0.4v1.1h-0.4v1.1h-0.4v1.1H58v1.1h-0.4v0.7h-0.4v-1.1h0.4V49H58v-1.1h0.4v-1.1h0.4
		v-0.7h0.4v-1.1h-0.7v0.4H58v1.9h-0.4v0.4H57.3z"/>
	<path fill-rule="evenodd" clip-rule="evenodd" fill="#999694" d="M46.5,46.4h0.4v1.1h0.4v0.4h2.6v0.4h0.7v1.1h0.4v0.4h-0.4v0.7
		h-0.4v0.4h-0.7v0.4h-0.4v1.1h0.4v0.4h1.1v-0.4h-0.4v-1.1h0.4v-0.4h0.4v-0.4h0.4v-0.4h0.4v-0.7h-0.4v-1.1h-0.4v-1.5h-2.2v-0.4H48
		v-0.4h-0.4v-0.7h-0.4v0.4h-0.4v0.4h-0.4V46.4z"/>
	<path fill-rule="evenodd" clip-rule="evenodd" fill="#9C9A99" d="M64,44.2h0.4v-0.4h1.5v-0.7h0.4v-0.4h0.4V42h0.4v-0.4h0.4v-0.7
		h0.4v-0.7h0.4v-0.4h0.7v-0.4h0.4v-0.7h0.4v-0.4h-0.7v0.4h-0.7V39h-0.7v0.4h-0.4v0.4h-0.4v0.4h-0.4v0.4h-0.4v0.4h-0.4v0.7h-0.4V42
		h-0.4v0.7h-0.4v0.7H64V44.2z"/>
	<path fill-rule="evenodd" clip-rule="evenodd" fill="#6B615E" d="M53.5,71.7h-0.7v-0.4h-0.4V71h-0.7v-0.4h-0.4v-0.4h-0.4v-0.4h-0.4
		v-0.4h-0.4v-0.4h-0.4v-0.4h-0.4v-0.4h-0.4V68h-0.7v-0.4H48v-0.4h-0.4v-0.4h-0.4v-0.4h-0.4v-0.4h-0.4v-0.4h-0.7v-0.4h-0.4v0.7h0.4
		v0.4h0.4v0.4h0.4v0.4h0.4v0.4h0.4V68h0.4v0.4H48v0.4h0.4v0.4h0.4v0.4h0.7v0.4h0.4v0.4h0.4v0.4h0.4V71h0.4v0.4h0.4v0.4h0.4v0.4h0.4
		v0.4h0.4v0.4h0.7v-0.7h0.4V71.7z"/>
	<path fill-rule="evenodd" clip-rule="evenodd" fill="#333D43" d="M108.2,26.4h0.7v0.4h-0.4v0.4h-0.7v0.4h-0.7v0.4h-0.4v0.4H106v0.4
		h1.5V29h0.7v1.1h0.7v-0.7h0.4v-1.1h0.4v-0.7h0.4v-0.7h0.4V26h0.4v-0.7h-1.5v0.4H109V26h-0.7V26.4z"/>
	<path fill-rule="evenodd" clip-rule="evenodd" fill="#545352" d="M66.9,56.1h-0.7v0.4h-0.7v0.4h-1.1v0.7h5.2v-1.5h-0.7v-0.4h-1.9
		V56.1z"/>
	<path fill-rule="evenodd" clip-rule="evenodd" fill="#8A8786" d="M49.5,52.8v-0.4h-0.4v-1.1h0.4v-0.4h0.7v-0.4h0.4v-0.7h0.4v-0.4
		h-0.4v-1.1h-0.7v-0.4h-1.5v0.4h0.4v1.1h0.4v0.7h-0.4v0.7h-0.4v0.4H48v1.1h0.4v0.4H49.5z"/>
	<path fill-rule="evenodd" clip-rule="evenodd" fill="#333D43" d="M42.8,61.7h0.4v0.7h0.4v0.4h0.4v0.4h0.7v0.4H45v0.4h0.4v0.4h0.4
		v0.4h0.7v0.7H48v-0.7h-0.7v-0.4h-0.4v-0.4h-0.4v-0.4h-0.4v-0.4h-0.4v-0.4h-0.4v-0.4H45v-0.4h-0.7v-0.7h-0.7v-0.4h-0.7V61.7z"/>
	<path fill-rule="evenodd" clip-rule="evenodd" fill="#6B6664" d="M45,48.7h0.4v1.1H45v1.1h-0.4v0.7h-0.4v1.1h2.2v-0.4h-0.4V52h0.4
		v-2.2h-0.4v-0.4h-0.4v-1.5h-0.4v0.4H45V48.7z"/>
	<path fill-rule="evenodd" clip-rule="evenodd" fill="#0A0D10" d="M17.1,59.1v1.9h0.4v-0.7h0.4v-0.4h0.4v-0.4h0.4v-0.7H19v-0.4h0.4
		V58h0.4v-0.7h0.4v-0.4h0.4v-0.4h0.7v-0.4h0.7v-0.4h-1.9v0.4h-0.4v0.4h-0.4v0.4H19v0.4h-0.4v0.4h-0.4v0.7h-0.4v0.4h-0.4v0.4H17.1z"
		/>
	<path fill-rule="evenodd" clip-rule="evenodd" fill="#C9C6C5" d="M17.1,50.9V49h0.4v-0.7h0.4v-0.7h0.4v-0.7h0.4v-0.4h-0.4v-0.7
		h-0.4v0.4h-0.4v0.4h-0.4v0.7h-0.4v0.4h-0.4v3.7h0.4v-0.4H17.1z"/>
	<path fill-rule="evenodd" clip-rule="evenodd" fill="#908D8B" d="M59.5,94.8v-0.4h0.4v-1.1h0.4v-1.1h-2.6v1.1H58v0.4h0.4v0.4h0.4
		v0.4h0.4v0.4H59.5z"/>
	<path fill-rule="evenodd" clip-rule="evenodd" fill="#D0CECE" d="M60.6,53.9h-0.4v0.4h-0.7v-0.4h-0.4v0.7h-0.4v2.6h1.1v-1.1h0.4
		v-1.5h0.4V53.9z"/>
	<path fill-rule="evenodd" clip-rule="evenodd" fill="#30383E" d="M74,54.6v-0.4h0.4v-1.1h0.4v-1.9h-0.4v0.4h-0.7V52h-0.4v3h0.4
		v-0.4H74z"/>
	<path fill-rule="evenodd" clip-rule="evenodd" fill="#444D53" d="M61.4,98.9H61v1.5h-0.4V100h-0.4v-0.4h-0.4v-0.4h-0.4v-0.4h-0.4
		v0.7h0.4v0.4h0.4v0.7h0.4v0.4h1.1V100h0.4v-1.9h-0.4V98.9z"/>
	<path fill-rule="evenodd" clip-rule="evenodd" fill="#131314" d="M39.8,60.9v-0.7h0.4v-0.7h0.4v-0.7h0.4V58h-1.1v0.7h-0.4v0.7H39
		v1.5H39.8z"/>
	<path fill-rule="evenodd" clip-rule="evenodd" fill="#111619" d="M71.8,56.5h1.5v-0.4h-0.4v-0.4h-0.4V55h-0.7V56.5z"/>
	<path fill-rule="evenodd" clip-rule="evenodd" fill="#A09D9C" d="M66.2,58.7v-0.4h-0.4V58h-1.5v0.7H66.2z"/>
	<path fill-rule="evenodd" clip-rule="evenodd" fill="#736F6E" d="M106,30.8h0.4v-0.4h0.4v-0.4h0.4v-0.4h-0.7v0.4H106V30.8z"/>
</g>
</svg>
