<?xml version="1.0" encoding="utf-8"?>
<!-- Generator: Adobe Illustrator 24.3.0, SVG Export Plug-In . SVG Version: 6.00 Build 0)  -->
<svg version="1.1" id="Layer_1" xmlns="http://www.w3.org/2000/svg" xmlns:xlink="http://www.w3.org/1999/xlink" x="0px" y="0px"
	 viewBox="0 0 126 126" enable-background="new 0 0 126 126" xml:space="preserve">
<g>
	<path fill="#EADDD7" d="M113,74.7v11.7l-50,2.3c-53.5-2.4-49.8-2.2-50-2.3V74.7l50-1.6L113,74.7z"/>
	<path fill="#C9B9B5" d="M113,74.7v11.7l-50,2.3V73.2L113,74.7z"/>
	<path fill="#F18D19" d="M83.5,45.4v11.7c0,1.6-1.3,2.9-2.9,2.9h-41c-1.6,0-2.9-1.3-2.9-2.9c0-8.1,6.6-14.6,14.6-14.6h5.9
		c1.6,0,2.9-1.3,2.9-2.9s-1.3-2.9-2.9-2.9H39.6c-8.1,0-14.6-6.6-14.6-14.6c0-1.6,1.3-2.9,2.9-2.9h29.3c2,0,4,0.2,5.9,0.7
		C74.7,22.4,83.5,32.9,83.5,45.4z"/>
	<path fill="#EB6528" d="M83.5,45.4v5.9v5.9c0,0.8-0.3,1.5-0.9,2.1s-1.3,0.9-2.1,0.9h-8.8H63V39.9V19.7c5.9,1.3,11,4.6,14.7,9.2
		C81.3,33.4,83.5,39.2,83.5,45.4L83.5,45.4z"/>
	<path fill="#FDEFF0" d="M113,86.4c0,11.3-9.2,20.5-20.5,20.5h-59c-11.3,0-20.5-9.2-20.5-20.5H113z"/>
	<path fill="#EADDD7" d="M113,86.4c0,11.3-9.2,20.5-20.5,20.5H63V86.4H113z"/>
	<path fill="#FDEFF0" d="M113,74.7H13c0-11.3,9.2-20.5,20.5-20.5h59C103.8,54.2,113,63.4,113,74.7z"/>
	<path fill="#EADDD7" d="M113,74.7H63V54.2h29.5C103.8,54.2,113,63.4,113,74.7z"/>
</g>
</svg>
