<?xml version="1.0" encoding="utf-8"?>
<!-- Generator: Adobe Illustrator 24.3.0, SVG Export Plug-In . SVG Version: 6.00 Build 0)  -->
<svg version="1.1" id="Layer_1" xmlns="http://www.w3.org/2000/svg" xmlns:xlink="http://www.w3.org/1999/xlink" x="0px" y="0px"
	 viewBox="0 0 126 126" enable-background="new 0 0 126 126" xml:space="preserve">
<g>
	<path fill="#252425" d="M51.6,65.1c-6.9-0.8-14.7-0.2-19.4-2.6l-0.7-0.3l-0.8,0c-0.2,0-0.4,0-0.6,0c-0.7,0.1-1.5-0.1-2.1-0.5
		l-0.1-2.4l-2.6-0.3c-3-0.3-5.9-0.8-8.9-1.4c2.2-8.8,7.3-16.7,14.4-22.3c3.8-3,8.1-5.5,12.6-7.1c4.5-1.6,9.2-2.5,14-2.5
		c4.4,0,8.8,0.8,12.9,2.4l0.8,0.3l0.8-0.2c0.7-0.1,1.5-0.2,2.2-0.2c4.3,0,8.3,1.8,9,2.5l1.1,1.5l1.9-0.4c0.5-0.1,0.9-0.1,1.4-0.1
		c4.3,0,9.6,2.5,10.7,5.1l0.8,1.8h2c2,0,6.1,1.3,8.3,3.9c-1.8,2.4-4,4.4-6.7,5.9c-1.4,0.8-2.6,1.5-3.2,2.8l-0.8,1.4l0.7,1.4
		c0.8,1.8,2.7,3.1,4.5,4.4c0.9,0.6,1.8,1.4,2.6,2.2c-0.3,1.2-2.2,4-4.4,6.5l-2.4,0.2l-0.5,0.2c-4.3,1.6-8.8,2.4-13.4,2.5l0,0
		c-1.1,0-2.1-0.1-3.2-0.2c-9.2-1-13.3-1.6-13.3-1.6L68.2,68l-0.9,0.6C67.1,68.8,58.2,65.9,51.6,65.1z"/>
	<path fill="#0C0D0D" d="M113,42.5c-2.3-4.7-8.6-6.9-11.9-7c-2-4.8-10.6-7.6-15.4-6.8c-1.4-2-8.6-4.5-14.2-3.5
		C47.8,15.9,17.5,32.9,13,59.6c2.4,1.5,12,2.5,12,2.5s0.1,3.4,5.9,3.1c6.1,3.1,12.4,5.6,18.9,7.5c12,3.3,19.2-1.6,19.2-1.6
		s4,0.6,13.4,1.6c9.4,1,18.1-2.6,18.1-2.6l3.1-0.2c0,0,6.5-7.1,5.9-10c-0.5-2.6-6.2-4.9-7.4-7.4C103,51,108.6,50,113,42.5z
		 M77.5,31.2c-5.8,1.2-19,6.7-19,6.7l-3-0.6C55.5,37.2,69.9,30.7,77.5,31.2z M61.9,28c-5.2,0.8-17.9,6.9-17.9,6.9l-2.8-0.3
		C41.2,34.6,52.7,27.1,61.9,28z M26.9,48c1.5-1.9,4.2-4.9,4.2-4.9l2.8,0.3C31.7,45.2,29.3,46.7,26.9,48L26.9,48z M46.4,44.3l3.3,0.4
		c0.3,0.3-8,5.7-12.4,6.7C39.8,49.8,46.5,44.3,46.4,44.3L46.4,44.3z M58.2,71.1c-0.2,0.8-2.3,0.8-5.1,0.2c-2.8-0.7-6.5-1.9-6.3-2.7
		c0.2-0.8,2.7,0,5.6,0.4C55.4,69.3,58.4,70.3,58.2,71.1L58.2,71.1z M50.6,54.2c4.1-1.9,8.1-4.2,11.9-6.8l4.8,0.8
		C67.6,48.6,59.2,53.8,50.6,54.2z M68.3,57.6c3.7-1.6,7.2-3.5,10.4-5.8l4.2,1C83.3,53,76.9,57.1,68.3,57.6L68.3,57.6z M76.1,41.9
		l-4.7-1.1c0,0,10-6.7,18.1-4.6C84.7,36.9,76.1,41.9,76.1,41.9L76.1,41.9z M99.7,43.2C97,44.4,94.4,46.1,92,48l-3.7-1.5
		C91.8,44.4,95.7,43.2,99.7,43.2L99.7,43.2z M102.9,60.2c-2.2,0.3-5,0.2-13.6,0.7c6.8-2.1,10.3-5.1,10.3-5.1
		C100.9,57,102,58.5,102.9,60.2L102.9,60.2z"/>
	<path fill="#BE372C" d="M103.7,50c3.2-1.8,6-4.3,7.9-7.4c-2.3-3.9-9.2-6.2-11.8-6.2c-10.2,0-22.9,6.7-23,6.7l-0.4,0.2l-8.2-1.8
		l2.4-1.7c0.3-0.2,8.1-5.3,15.9-5.3c1.3,0,2.5,0.1,3.7,0.5l2.1,0.9c0,0,5.1-0.5,7.1-0.8c-2.3-3-7.9-5.4-11.9-5.2
		C80.1,30.3,59.3,39,59.3,39l-0.4,0.3l-6.6-1.4l2.8-1.6c5.4-2.6,11-4.6,16.8-6.1c2.7-0.5,5.5-0.5,8.2-0.1c0.8-0.1,2.6-0.7,4.3-1
		c-1.8-1.4-7.7-3.7-12.5-2.8c-10.1,1.9-17.1,4.8-27.5,9.8l-0.3,0.1l-6.7-0.8l3-1.9c0.2-0.1,12.4-7.9,23.2-6.8c1.3-0.3,4-0.9,5.4-1.3
		c-6.1-2-20.2-4.5-38,7.8c-4.3,3-8.2,7.7-10.9,11.9c-2.5,3.8-4.3,8.1-5.3,12.6c0,0.1,18.3-3.5,37.4,3.2c-18-4.9-37.5-2-37.5-2
		c2.3,0.8,7.5,1.6,10.6,1.9c11.2-4.6,40.5,8.5,59.3,7.2c-8.9-1-15.3-2.4-18.7-3.8C70,66,103,68.8,103,68.8c2.8-3.2,5.6-7.3,5.3-8.6
		c-0.2-0.9-2-2.2-3.4-3.3c-1.7-1.2-3.2-2.4-3.9-3.8l-0.3-0.6l0.3-0.5C101.5,51.3,102.4,50.7,103.7,50z M22.4,51.4l3-3.8
		c1.6-1.9,4.3-5,4.3-5l0.4-0.5l6.5,0.7l-2.3,1.9C34.1,44.8,26.1,49.5,22.4,51.4z M31.5,54.6l4.7-3.7c2.4-1.6,9.3-7.2,9.3-7.2
		l0.4-0.3l4.3,0.5l0.3,0.2c0.4,0.3,0.5,0.8,0.4,1.3c-0.1,0.3-0.2,1.1-5.4,4C43.6,50.5,34.3,54,31.5,54.6L31.5,54.6z M50.2,55.6
		l-4.3-0.5c5.6-2.4,15.7-8.7,15.7-8.8l0.4-0.3l5.8,1.1l0.2,0.2c0.4,0.3,0.6,0.9,0.4,1.4C68,50,63.7,52,62.4,52.6
		C58.5,54.3,54.4,55.3,50.2,55.6L50.2,55.6z M84.3,53.4c-0.4,1.2-3.7,2.7-5.1,3.2c-3.5,1.4-7.3,2.3-11.1,2.5l-4.3-0.6
		c4.9-2.3,9.7-4.8,14.3-7.6l0.5-0.3l5.1,1.2l0.2,0.2C84.3,52.3,84.5,52.8,84.3,53.4z M104,59.6l0.7,1.5l-1.7,0.2
		c-1.3,0.2-2.7,0.2-5.3,0.3c-1.9,0.1-4.6,0.2-8.4,0.4l-4.9-0.7c6.9-1.7,14.3-6.4,14.3-6.5l0.8-0.7l0.8,0.8
		C101.8,56.2,103,57.8,104,59.6z M93.1,48.9l-0.6,0.5l-6.7-2.7l2-1.3c3.8-2.3,8-3.6,12.5-3.7h4.6C101.2,43.3,93.2,48.8,93.1,48.9
		L93.1,48.9z"/>
	<path fill="#CE4137" d="M108.5,41.2c-3.8,1.9-13.3,8.2-14.4,8.9l-1.2,1L82.6,47l4.4-2.9c4-2.5,8.6-3.8,13.3-3.9h4.6l2.8,0.4
		c-2.4-1.6-5.3-2.5-8.2-2.4c-0.1,0-0.2,0-0.2-0.1c0,0,0-0.1-0.1-0.1c-0.3-0.6-2.3,0.1-2.8,0.1c-6.9,0-18.4,5.9-18.8,6.1l-0.9,0.5
		l-12.2-2.7l5.4-3.6c0.3-0.2,10.7-6.7,18.9-6.7c3.3,0.1,6.6,1,9.5,2.6c-0.2-0.5-7.3-5.2-15.1-3c-3.3,1-6.7,1.9-9.9,3.1
		c-3.6,1.4-7.1,2.9-10.6,4.5c-0.9,0.4-1.9,0.8-2.8,1.3l-0.9,0.5l-10.9-2.4l6.1-3.6c12.3-5,20.2-9.4,28.7-6c-2.2-1.5-5.2-1.9-7.9-1.8
		c-3.4,0-9.9,1.3-30.1,10.3l-0.1,0.1l-0.7,0.3l-11.3-1.3l6.6-4.2c0.2-0.1,13.5-8.9,26.6-6.3c-2.7-1-5.5-1.5-8.4-1.5
		c-7.6,0-16.3,3.4-25.9,10.1C26.8,38,23,43.2,21.1,46.1c-2.4,3.6-4.5,6.9-5.4,11.1c2.3-0.7,9-0.7,9-0.7l9.9,0.2
		c11.7-0.5,30.9,8.4,65.3,10.9c0.8,0,1.7-0.1,2.5-0.2c1.3-1.5,2.5-3.2,3.6-4.9l-2.7,0.3c-1.4,0.2-2.8,0.2-5.5,0.3
		c-1.9,0.1-4.6,0.2-8.3,0.4h-0.1l-5.1-0.8l-5-0.8c6.3-1.6,17.9-8,18.6-8.5l1.4-1.2l0.5-1c0.6-1.2,1.8-1.8,3.1-2.7
		c2.7-1.5,5.1-3.6,6.9-6.2C109.4,42,109,41.6,108.5,41.2z M23.5,53.3L19,55.6l5-8.8l0.1-0.1c1.6-2,4.3-5,4.3-5.1l1-1.1l10.9,1.2
		l-5.2,4.1C34.8,46.1,27.2,51.3,23.5,53.3L23.5,53.3z M31.9,56.1l-4.1,0.4l7.5-6.7h0c1.9-1.3,7.3-5.6,9.2-7.1l0.9-0.8l5.4,0.6
		l0.6,0.5c0.8,0.7,1.2,1.7,0.9,2.8c-0.2,1-0.8,2-6.1,5C44.2,51.9,34.7,55.4,31.9,56.1z M50.2,57.2L39.9,56l5.4-2.3
		c5.4-2.3,15-8.3,15.5-8.6l0.9-0.6l6.8,1.2l0.6,0.5c0.9,0.7,1.2,1.9,0.8,3c-0.2,0.5-0.7,2-6.9,4.7C58.9,55.7,54.6,56.8,50.2,57.2
		L50.2,57.2z M85.8,53.8c-0.2,0.5-0.7,2-6,4.2c-3.7,1.5-7.6,2.4-11.5,2.6h-0.2l-9.9-1.4l5-2.1c4.8-2.2,9.5-4.7,14.1-7.4l1-0.7
		l6.1,1.4l0.5,0.4C85.8,51.5,86.1,52.7,85.8,53.8z"/>
	<path fill="#171616" d="M58.4,87.8l-0.1,5.3c0,0,0.6,7.6,4.6,8.2v1.7c-7-0.5-8.2-10.1-8.2-10.1l-0.5-5.1L58.4,87.8z"/>
	<path fill="#171616" d="M56.3,83.7L56.3,83.7c1.4,0,2.6,1.2,2.6,2.6l0,0c0,1.4-1.2,2.6-2.6,2.6l0,0c-1.4,0-2.6-1.2-2.6-2.6l0,0
		C53.7,84.8,54.9,83.7,56.3,83.7z"/>
	<polygon fill="#0C0D0D" points="57.7,86.6 53.9,86.6 42.6,70 46.4,70 	"/>
	<polygon fill="#0C0D0D" points="54.9,86.6 58.7,86.6 66.4,70 61.1,70 	"/>
	<path fill="#252425" d="M62.7,100.3h2.4c0.8,0,1.5,0.7,1.5,1.5l0,0c0,0.8-0.7,1.5-1.5,1.5h-2.4c-0.8,0-1.5-0.7-1.5-1.5l0,0
		C61.2,101,61.9,100.3,62.7,100.3z"/>
	<polygon fill="#0C0D0D" points="75,88.5 70.4,88.5 56.6,68.2 61.2,68.2 	"/>
	<polygon fill="#0C0D0D" points="71.5,88.5 76.2,88.5 86.4,68.2 79.5,68.2 	"/>
	<path fill="#252425" d="M73.3,84.9L73.3,84.9c1.7,0,3.2,1.4,3.2,3.2l0,0c0,1.7-1.4,3.2-3.2,3.2l0,0c-1.7,0-3.2-1.4-3.2-3.2l0,0
		C70.1,86.3,71.5,84.9,73.3,84.9z"/>
	<path fill="#252425" d="M70.3,89.9l0.2,4.3c0,0-0.2,4.3-4.9,7.3v1.1c8.7-0.4,9.9-8.6,9.9-8.6l0.7-4.1H70.3z"/>
	<path fill="#DC8C77" d="M63.6,25.2c-3.7-1.2-12.3-1.9-23.9,3.9C39.7,29.1,52.5,23.4,63.6,25.2z"/>
	<path fill="#DC8C77" d="M32.8,55.2c8.5-0.9,17-2.4,19.5-9.2C46.7,52.1,40.6,53.4,32.8,55.2z"/>
	<path fill="#DC8C77" d="M19.6,54.6c7.1-2.5,15-5.6,17.7-11.2C31.8,48.8,25.8,51.3,19.6,54.6z"/>
	<path fill="#DC8C77" d="M82.7,62.8c7.6,1,23.4,2.7,23.1-0.8C101,63.7,89.7,63,82.7,62.8z"/>
	<path fill="#DC8C77" d="M35,32.4c-3.6-0.1-12.1,9.4-15.8,16.9C23.2,42.9,30.3,35.6,35,32.4z"/>
	<path fill="#DC8C77" d="M66.6,60.6c7.3,1,15.1-0.2,17.5-4.9C79.1,59.8,73.1,60.8,66.6,60.6z"/>
	<path fill="#DC8C77" d="M52.1,57.1c8.5-0.9,15.4-1.4,17.9-8.2C64.5,55,59.9,55.4,52.1,57.1z"/>
	<path fill="#DC8C77" d="M80.7,27.8c-3.7-1.2-7.5-2.9-23.9,3.8C56.8,31.6,69.6,25.9,80.7,27.8z"/>
	<path fill="#DC8C77" d="M97,33.8c-5.3-3.8-9.6-5.2-25.6,2.2C71.3,36,88.1,29.7,97,33.8z"/>
	<polygon fill="#DC8C77" points="55.5,32.2 44.1,37.8 36.9,37.1 44.7,39 	"/>
	<polygon fill="#DC8C77" points="68,37 59.1,40.9 51.9,40.1 59.7,42.1 	"/>
	<path fill="#DC8C77" d="M108.4,40.5c-5.3-3.8-10.5-6.4-31.9,4.2C76.5,44.8,99.7,34.2,108.4,40.5z"/>
	<path fill="#DC8C77" d="M92.4,38.7c-4.5-0.3-16.1,6.1-16.1,6.1l-10.5-1.5L77,46.1C77,46.1,87.5,39.7,92.4,38.7z"/>
	<path fill="#DC8C77" d="M106.1,43.1c-4.7,2.2-9.2,4.8-13.5,7.8l-9-3.5l9.6,4.8C93.2,52.2,101.4,45.5,106.1,43.1z"/>
</g>
</svg>
