<?xml version="1.0" encoding="utf-8"?>
<!-- Generator: Adobe Illustrator 24.3.0, SVG Export Plug-In . SVG Version: 6.00 Build 0)  -->
<svg version="1.1" id="Layer_1" xmlns="http://www.w3.org/2000/svg" xmlns:xlink="http://www.w3.org/1999/xlink" x="0px" y="0px"
	 viewBox="0 0 126 126" enable-background="new 0 0 126 126" xml:space="preserve">
<g>
	<path fill="#221E20" d="M77.8,20.1c23.7,4.8,39.1,28,34.3,51.7c0,0.1,0,0.2,0,0.2c-5.1,23.7-28.5,38.9-52.5,33.9
		c-23.8-4.8-39.1-28-34.3-51.8c0-0.1,0-0.1,0-0.2C30.4,30.2,53.9,15.1,77.8,20.1z"/>
	<path fill="#009244" d="M106.7,56.3c0.7,3.9,0.8,8,0.2,11.9L105,68c0.5-3.8,0.5-7.6-0.2-11.3L106.7,56.3z"/>
	<path fill="#E42528" d="M105,68l1.9,0.3c-0.6,4-1.8,7.8-3.5,11.4l-1.8-0.8C103.3,75.5,104.4,71.8,105,68z"/>
	<path fill="#E42528" d="M106.7,56.3l-1.9,0.3c-0.7-3.7-1.9-7.4-3.7-10.7l1.7-0.9C104.6,48.6,105.9,52.4,106.7,56.3z"/>
	<path fill="#009244" d="M104.8,56.7c0.7,3.7,0.7,7.6,0.2,11.3l-0.5-0.1l0,0c0.5-3.7,0.5-7.4-0.2-11.1l0,0L104.8,56.7z"/>
	<path fill="#E43F43" d="M104.4,68L105,68c-0.5,3.8-1.7,7.4-3.3,10.8l-0.5-0.2c0,0,0,0,0-0.1C102.8,75.2,103.9,71.6,104.4,68z"/>
	<path fill="#E43F43" d="M104.8,56.7l-0.5,0.1c-0.6-3.7-1.9-7.2-3.6-10.5c0,0,0,0,0-0.1l0.5-0.3C102.9,49.3,104.1,52.9,104.8,56.7z"
		/>
	<path fill="#FDE6C9" d="M104.2,56.8c0.7,3.7,0.7,7.4,0.2,11.1l0,0l-12.2-1.7c0.3-2.4,0.3-4.9-0.1-7.4L104.2,56.8
		C104.2,56.8,104.2,56.8,104.2,56.8z"/>
	<path fill="#009244" d="M101.6,78.9l1.8,0.8c-1.8,3.6-4.1,6.9-6.9,9.7l-1.4-1.3C97.7,85.4,100,82.3,101.6,78.9z"/>
	<path fill="#009244" d="M102.7,45.1L101,46c-1.8-3.4-4.1-6.4-6.9-9.1l1.3-1.4C98.4,38.3,100.8,41.5,102.7,45.1z"/>
	<path fill="#009244" d="M101.1,78.6l0.5,0.2c-1.7,3.4-3.9,6.6-6.6,9.3l-0.4-0.4l0.1-0.1C97.3,85,99.5,82,101.1,78.6z"/>
	<path fill="#FDE6C9" d="M90.1,73.3l11,5.3c-1.6,3.3-3.8,6.4-6.4,9l-0.1,0.1l-8.8-8.4C87.6,77.6,89,75.5,90.1,73.3z"/>
	<path fill="#009244" d="M101,46l-0.5,0.3c-1.8-3.3-4-6.2-6.7-8.8c0,0-0.1-0.1-0.1-0.1l0.4-0.4C96.9,39.6,99.2,42.6,101,46z"/>
	<path fill="#FDE6C9" d="M100.5,46.2l-10.8,5.7c-1.2-2.2-2.7-4.2-4.5-5.9l8.5-8.7c0,0,0.1,0.1,0.1,0.1C96.5,40,98.8,43,100.5,46.2z"
		/>
	<path fill="#E42528" d="M95.1,88.2l1.4,1.3c-2.8,2.9-6.1,5.3-9.6,7.2L85.9,95C89.3,93.2,92.4,90.9,95.1,88.2z"/>
	<path fill="#E43F43" d="M94.6,87.8l0.4,0.4c-2.7,2.7-5.8,5-9.1,6.8l-0.3-0.6l0.1-0.1C89,92.6,92,90.4,94.6,87.8z"/>
	<path fill="#E42528" d="M95.4,35.5l-1.3,1.4c-2.8-2.6-5.9-4.8-9.4-6.5l0.9-1.7C89.2,30.5,92.5,32.8,95.4,35.5z"/>
	<path fill="#E43F43" d="M94.1,36.9l-0.4,0.4c-2.7-2.6-5.8-4.7-9.1-6.3L84.4,31l0.3-0.6C88.2,32.1,91.3,34.3,94.1,36.9z"/>
	<path fill="#009244" d="M92.1,58.9c0.4,2.4,0.5,4.9,0.1,7.4L90.4,66c0.3-2.3,0.3-4.5-0.1-6.8L92.1,58.9z"/>
	<path fill="#E42528" d="M90.4,66l1.9,0.3c-0.3,2.5-1.1,4.9-2.2,7.1l-1.7-0.8C89.4,70.5,90.1,68.3,90.4,66z"/>
	<path fill="#E42528" d="M92.1,58.9l-1.9,0.3c-0.4-2.2-1.2-4.4-2.2-6.4l1.7-0.9C90.9,54.1,91.7,56.5,92.1,58.9z"/>
	<path fill="#009244" d="M90.3,59.2c0.4,2.2,0.4,4.5,0.1,6.8l-0.7-0.1c0.3-2.2,0.3-4.4-0.1-6.6L90.3,59.2z"/>
	<path fill="#E43F43" d="M89.7,65.9l0.7,0.1c-0.3,2.3-1,4.4-2,6.5l-0.6-0.3C88.7,70.2,89.4,68.1,89.7,65.9L89.7,65.9z"/>
	<path fill="#009244" d="M88.4,72.5l1.7,0.8c-1.1,2.2-2.5,4.3-4.3,6L84.5,78C86.1,76.4,87.4,74.5,88.4,72.5z"/>
	<path fill="#E43F43" d="M90.3,59.2l-0.7,0.1l0,0c-0.4-2.2-1.1-4.3-2.1-6.2l0.6-0.3C89.1,54.8,89.9,57,90.3,59.2z"/>
	<path fill="#FDE6C9" d="M89.6,59.3c0.4,2.2,0.4,4.4,0.1,6.6L72,63.4c0,0,0-0.1,0-0.1c0-0.3,0-0.6,0-0.9L89.6,59.3z"/>
	<path fill="#009244" d="M89.7,51.9L88,52.8c-1.1-2-2.5-3.8-4.1-5.4l1.3-1.4C87,47.8,88.5,49.8,89.7,51.9z"/>
	<path fill="#009244" d="M87.8,72.2l0.6,0.3c-1,2-2.3,3.9-3.9,5.6L84,77.6C85.5,76,86.8,74.2,87.8,72.2L87.8,72.2z"/>
	<path fill="#FDE6C9" d="M87.8,72.2L87.8,72.2c-1,2-2.2,3.8-3.7,5.4l-13-12.3c0.2-0.2,0.4-0.5,0.6-0.8L87.8,72.2z"/>
	<path fill="#009244" d="M88,52.8l-0.6,0.3c0,0,0,0,0-0.1c-1-1.9-2.4-3.7-3.9-5.2l0.4-0.5C85.6,49,87,50.8,88,52.8z"/>
	<path fill="#FDE6C9" d="M87.4,53.1C87.4,53.1,87.4,53.1,87.4,53.1l-15.8,8.4c-0.2-0.3-0.4-0.6-0.6-0.8l12.5-12.8
		C85,49.4,86.4,51.1,87.4,53.1z"/>
	<path fill="#009244" d="M85.9,95l0.9,1.7c-3.6,1.9-7.4,3.2-11.4,3.9l-0.3-1.9C78.9,98.1,82.5,96.8,85.9,95z"/>
	<path fill="#009244" d="M85.6,94.4l0.3,0.5c-3.4,1.8-7,3-10.8,3.7L75,98h0.2C78.8,97.4,82.3,96.1,85.6,94.4z"/>
	<path fill="#E42528" d="M84.5,78l1.4,1.3c-1.7,1.8-3.7,3.3-5.9,4.4L79,82.1C81,81.1,82.9,79.7,84.5,78z"/>
	<path fill="#FDE6C9" d="M79.9,83.8l5.7,10.6c-3.3,1.7-6.8,2.9-10.5,3.5H75l-2.1-11.8C75.3,85.8,77.7,85,79.9,83.8z"/>
	<path fill="#009244" d="M85.5,28.7l-0.9,1.7c-3.5-1.7-7.2-2.8-11-3.3l0.3-1.9C78,25.8,81.9,26.9,85.5,28.7z"/>
	<path fill="#E42528" d="M85.2,46l-1.3,1.4c-1.7-1.6-3.5-2.9-5.6-3.9l0.8-1.7C81.4,42.9,83.4,44.3,85.2,46z"/>
	<path fill="#E43F43" d="M84,77.6l0.5,0.4c-1.6,1.6-3.4,3-5.5,4.1l-0.3-0.5C80.7,80.5,82.4,79.2,84,77.6L84,77.6z"/>
	<path fill="#009244" d="M84.7,30.4L84.4,31c-3.4-1.6-6.9-2.7-10.6-3.2h-0.2l0.1-0.7C77.5,27.6,81.3,28.7,84.7,30.4z"/>
	<path fill="#FDE6C9" d="M84.4,31l-5.3,10.8c-2.2-1.1-4.6-1.8-7.1-2.1l1.7-11.9h0.2C77.6,28.3,81.1,29.4,84.4,31z"/>
	<path fill="#E43F43" d="M83.9,47.4l-0.4,0.5c0,0,0,0-0.1-0.1c-1.6-1.5-3.4-2.8-5.3-3.7l0.3-0.5C80.4,44.6,82.3,45.9,83.9,47.4z"/>
	<path fill="#009244" d="M79,82.1l0.9,1.7c-2.2,1.2-4.6,2-7,2.4l-0.3-1.9C74.8,83.9,77,83.2,79,82.1z"/>
	<path fill="#009244" d="M78.7,81.6l0.3,0.5c-2,1.1-4.2,1.8-6.5,2.2l-0.1-0.6C74.6,83.4,76.7,82.7,78.7,81.6L78.7,81.6z"/>
	<path fill="#FDE6C9" d="M78.7,81.6L78.7,81.6c-2,1.1-4.1,1.8-6.3,2.2l-3.1-17.6c0.3-0.1,0.7-0.2,1-0.3L78.7,81.6z"/>
	<path fill="#009244" d="M79.1,41.8l-0.8,1.7c-2.1-1-4.3-1.7-6.5-2l0.3-1.9C74.5,40,76.9,40.7,79.1,41.8z"/>
	<path fill="#009244" d="M78.3,43.5L78,44l0,0h-0.1c-2-1-4.1-1.6-6.3-1.9l0.1-0.5C74,41.9,76.2,42.5,78.3,43.5z"/>
	<path fill="#FDE6C9" d="M78,44l-7.9,16c-0.3-0.1-0.6-0.2-1-0.3l2.5-17.7C73.8,42.4,76,43,78,44L78,44z"/>
	<path fill="#E42528" d="M75.1,98.7l0.3,1.9c-4,0.7-8,0.8-12.1,0.2l0.3-1.9C67.4,99.4,71.3,99.4,75.1,98.7z"/>
	<path fill="#E43F43" d="M75,98l0.1,0.7c-3.8,0.7-7.6,0.7-11.5,0.2l0.1-0.7h0.2C67.6,98.7,71.3,98.6,75,98z"/>
	<path fill="#E42528" d="M74,25.2l-0.3,1.9c-3.8-0.5-7.7-0.5-11.5,0.2L62,25.4C66,24.7,70,24.7,74,25.2z"/>
	<path fill="#E43F43" d="M73.8,27.1l-0.1,0.7c-3.7-0.5-7.4-0.4-11.1,0.2h-0.2l-0.1-0.7C66.1,26.6,70,26.6,73.8,27.1z"/>
	<path fill="#E42528" d="M72.5,84.3l0.3,1.9c-2.5,0.4-5,0.5-7.4,0.1l0.3-1.9C68,84.8,70.3,84.7,72.5,84.3z"/>
	<path fill="#E43F43" d="M72.4,83.8l0.1,0.5c-2.3,0.4-4.6,0.4-6.9,0.1l0.1-0.5C67.9,84.2,70.2,84.2,72.4,83.8L72.4,83.8z"/>
	<path fill="#E42528" d="M72,39.7l-0.3,1.9c-2.3-0.3-4.6-0.3-6.9,0.1l-0.3-1.9C67,39.4,69.5,39.3,72,39.7z"/>
	<path fill="#E43F43" d="M71.7,41.5l-0.1,0.5h-0.1c-2.2-0.3-4.4-0.3-6.6,0.1l-0.1-0.5C67.1,41.3,69.5,41.2,71.7,41.5z"/>
	<path fill="#FDE6C9" d="M68.3,66.2l-2.5,17.7h-0.1c-2.2-0.3-4.3-1-6.3-1.9l7.9-16.1C67.6,66.1,67.9,66.2,68.3,66.2z"/>
	<path fill="#FDE6C9" d="M65,42.1l3.2,17.6c-0.3,0.1-0.7,0.2-1,0.3L67.1,60l-8.5-15.7C60.6,43.3,62.7,42.6,65,42.1L65,42.1z"/>
	<path fill="#FDE6C9" d="M66.4,65.3L53.9,78.2l0,0c-1.6-1.5-3-3.3-4-5.3l16-8.4c0.1,0.3,0.3,0.5,0.5,0.7L66.4,65.3z"/>
	<path fill="#FDE6C9" d="M53.3,48.3l13,12.4c-0.2,0.3-0.4,0.6-0.6,0.9l-16.3-7.9C50.5,51.7,51.8,49.9,53.3,48.3L53.3,48.3z"/>
	<path fill="#009244" d="M65.8,83.9l-0.1,0.5c-2.3-0.3-4.5-1-6.5-2l0.2-0.5C61.3,83,63.5,83.6,65.8,83.9L65.8,83.9z"/>
	<path fill="#009244" d="M65.7,84.5l-0.3,1.9c-2.5-0.3-4.9-1.1-7.1-2.1l0.8-1.7C61.2,83.5,63.4,84.1,65.7,84.5z"/>
	<path fill="#FDE6C9" d="M65.4,86.3l-1.7,11.8c-3.7-0.5-7.2-1.6-10.6-3.2L53,94.9l5.3-10.7C60.5,85.3,62.9,86,65.4,86.3z"/>
	<path fill="#FDE6C9" d="M65.5,63.6l-17.8,3.1l0,0c-0.4-2.2-0.4-4.4-0.1-6.6l17.9,2.4C65.4,62.9,65.4,63.2,65.5,63.6z"/>
	<path fill="#009244" d="M64.9,41.7l0.1,0.5h-0.1c-2.2,0.4-4.3,1.1-6.2,2.1l-0.2-0.4C60.4,42.8,62.6,42,64.9,41.7z"/>
	<path fill="#009244" d="M64.6,39.8l0.3,1.9c-2.3,0.4-4.4,1.1-6.5,2.2l-0.9-1.7C59.7,41,62.1,40.2,64.6,39.8z"/>
	<path fill="#FDE6C9" d="M62.4,28l2.1,11.8c-2.5,0.4-4.8,1.2-7,2.4l-5.7-10.5l0.1-0.1C55.3,29.9,58.8,28.7,62.4,28z"/>
	<path fill="#009244" d="M63.7,98.2l-0.1,0.7c-3.8-0.5-7.5-1.6-11-3.3l0.3-0.7l0.1,0.1C56.5,96.6,60.1,97.6,63.7,98.2z"/>
	<path fill="#009244" d="M63.6,98.8l-0.3,1.9c-4-0.6-7.9-1.7-11.5-3.5l0.9-1.7C56.2,97.2,59.9,98.3,63.6,98.8z"/>
	<path fill="#009244" d="M62.3,27.3l0.1,0.7c-3.6,0.7-7.2,1.9-10.4,3.6l-0.1,0.1l0,0L51.5,31C54.9,29.2,58.5,28,62.3,27.3z"/>
	<path fill="#009244" d="M62,25.4l0.3,1.9c-3.8,0.7-7.4,1.9-10.8,3.7l-0.9-1.7C54.2,27.4,58,26.1,62,25.4z"/>
	<path fill="#E43F43" d="M59.3,82l-0.2,0.5c-2.1-1-4-2.3-5.6-3.9l0.4-0.4C55.5,79.8,57.3,81,59.3,82L59.3,82z"/>
	<path fill="#E42528" d="M59.1,82.5l-0.8,1.7c-2.2-1.1-4.3-2.5-6.1-4.2l1.3-1.4C55.2,80.2,57.1,81.5,59.1,82.5z"/>
	<path fill="#E43F43" d="M58.4,43.9l0.2,0.4l0,0c-2,1-3.8,2.4-5.3,4L53,48C54.6,46.3,56.4,45,58.4,43.9z"/>
	<path fill="#E42528" d="M57.5,42.2l0.9,1.7c-2,1.1-3.9,2.4-5.5,4.1l-1.4-1.3C53.3,44.9,55.3,43.4,57.5,42.2z"/>
	<path fill="#009244" d="M53.9,78.2L53.9,78.2l-0.4,0.4c-1.7-1.6-3-3.4-4.1-5.4l0.5-0.2C50.9,74.9,52.2,76.7,53.9,78.2z"/>
	<path fill="#009244" d="M53.5,78.6L52.2,80c-1.8-1.7-3.3-3.7-4.5-5.9l1.7-0.9C50.5,75.2,51.9,77,53.5,78.6z"/>
	<path fill="#E43F43" d="M53,94.9l-0.3,0.7c-3.4-1.7-6.6-3.8-9.4-6.5l0.6-0.6l0.1,0.1C46.6,91.1,49.7,93.3,53,94.9z"/>
	<path fill="#009244" d="M53.3,48.3L53.3,48.3c-1.6,1.6-2.8,3.4-3.8,5.4L49,53.5c1-2,2.3-3.9,3.9-5.6L53.3,48.3z"/>
	<path fill="#E42528" d="M52.7,95.6l-0.9,1.7c-3.6-1.8-7-4.1-9.9-6.9l1.4-1.4C46.1,91.7,49.2,93.9,52.7,95.6z"/>
	<path fill="#009244" d="M51.6,46.6l1.4,1.3c-1.6,1.6-2.9,3.5-3.9,5.6l-1.7-0.8C48.4,50.5,49.8,48.4,51.6,46.6z"/>
	<path fill="#FDE6C9" d="M52.2,80l-8.3,8.5c-2.7-2.6-4.9-5.5-6.7-8.8c0,0,0,0,0-0.1L47.7,74C48.9,76.2,50.4,78.2,52.2,80z"/>
	<path fill="#E43F43" d="M51.5,31l0.4,0.7c-3.3,1.7-6.3,4-8.9,6.6l-0.1,0.1l-0.6-0.6C45,35.1,48.1,32.8,51.5,31z"/>
	<path fill="#FDE6C9" d="M43,38.4l8.6,8.2c-1.7,1.8-3.2,3.8-4.3,6l-10.7-5.2v-0.1C38.2,44.1,40.4,41.1,43,38.4z"/>
	<path fill="#E43F43" d="M50.6,29.3l0.9,1.7c-3.4,1.8-6.5,4.1-9.1,6.8L41,36.5C43.8,33.6,47,31.2,50.6,29.3z"/>
	<path fill="#E43F43" d="M49.8,72.9L49.8,72.9l-0.5,0.2c-1.1-2-1.8-4.2-2.2-6.4l0.5-0.1C48,68.8,48.8,71,49.8,72.9z"/>
	<path fill="#E42528" d="M49.4,73.1L47.7,74c-1.2-2.2-2-4.5-2.4-7l1.9-0.3C47.6,69,48.3,71.1,49.4,73.1z"/>
	<path fill="#E43F43" d="M49.5,53.7L49.5,53.7c-1,2-1.6,4.1-1.9,6.3L47,60c0.3-2.3,1-4.4,2-6.5L49.5,53.7z"/>
	<path fill="#E42528" d="M47.3,52.7l1.7,0.8c-1,2-1.7,4.2-2,6.5l-1.9-0.3l0,0C45.5,57.3,46.2,54.9,47.3,52.7z"/>
	<path fill="#009244" d="M47.7,66.7L47.7,66.7l-0.5,0.1c-0.4-2.2-0.4-4.5-0.1-6.8l0.5,0.1C47.2,62.3,47.3,64.5,47.7,66.7z"/>
	<path fill="#009244" d="M47.2,66.8l-1.9,0.3c-0.4-2.4-0.5-4.9-0.1-7.4L47,60C46.7,62.2,46.8,64.5,47.2,66.8z"/>
	<path fill="#FDE6C9" d="M45.3,67.1l-11.8,2.1c-0.7-3.7-0.7-7.4-0.2-11.1l11.8,1.6l0,0C44.8,62.2,44.8,64.7,45.3,67.1z"/>
	<path fill="#009244" d="M43.9,88.5l-0.6,0.6c-2.8-2.6-5.1-5.7-6.9-9l0.8-0.4c0,0,0,0,0,0.1C39,83,41.2,85.9,43.9,88.5z"/>
	<path fill="#009244" d="M43.3,89.1L42,90.5c-2.9-2.8-5.4-6-7.3-9.5l1.7-0.9C38.2,83.4,40.5,86.5,43.3,89.1z"/>
	<path fill="#009244" d="M42.3,37.8l0.6,0.6c-2.6,2.7-4.7,5.7-6.4,9v0.1l-0.8-0.4C37.5,43.7,39.7,40.6,42.3,37.8z"/>
	<path fill="#009244" d="M41,36.5l1.4,1.3c-2.7,2.7-4.9,5.9-6.6,9.3L34,46.3C35.8,42.7,38.1,39.4,41,36.5z"/>
	<path fill="#E43F43" d="M37.2,79.6L36.4,80c-1.8-3.4-3.1-7-3.7-10.7l0.9-0.2l0,0C34.2,72.8,35.4,76.4,37.2,79.6z"/>
	<path fill="#E42528" d="M36.4,80l-1.7,0.9c-1.9-3.5-3.2-7.3-3.9-11.3l1.9-0.3C33.3,73.1,34.6,76.7,36.4,80z"/>
	<path fill="#E43F43" d="M35.8,47.1l0.8,0.4c-1.6,3.3-2.7,6.9-3.2,10.6l0,0L32.4,58C33,54.2,34.1,50.5,35.8,47.1z"/>
	<path fill="#E42528" d="M34.1,46.3l1.8,0.8c-1.7,3.4-2.8,7.1-3.4,10.9l-1.9-0.3l0,0C31.1,53.7,32.3,49.9,34.1,46.3z"/>
	<path fill="#009244" d="M33.5,69.2l-0.9,0.2c-0.7-3.7-0.7-7.6-0.2-11.3l0.9,0.1C32.8,61.8,32.9,65.5,33.5,69.2z"/>
	<path fill="#009244" d="M32.7,69.3l-1.9,0.3c-0.7-3.9-0.8-8-0.2-11.9l1.9,0.3C31.9,61.7,32,65.6,32.7,69.3z"/>
	<circle fill="#009244" cx="68.7" cy="63" r="3.3"/>
	<circle fill="#E42528" cx="68.7" cy="63" r="1.3"/>
	
		<linearGradient id="SVGID_1_" gradientUnits="userSpaceOnUse" x1="204.9606" y1="899.6159" x2="215.0999" y2="894.4487" gradientTransform="matrix(-0.75 0.67 -0.67 -0.75 779.62 590.14)">
		<stop  offset="0" style="stop-color:#E42320"/>
		<stop  offset="1" style="stop-color:#891812"/>
	</linearGradient>
	<path fill-rule="evenodd" clip-rule="evenodd" fill="url(#SVGID_1_)" d="M21,60.2c-10.1,3.8-11.2,11.6,1.6,6L21,60.2z"/>
	
		<linearGradient id="SVGID_2_" gradientUnits="userSpaceOnUse" x1="213.6749" y1="909.1626" x2="209.4649" y2="898.2344" gradientTransform="matrix(-0.75 0.67 -0.67 -0.75 779.62 590.14)">
		<stop  offset="0" style="stop-color:#E42320"/>
		<stop  offset="1" style="stop-color:#891812"/>
	</linearGradient>
	<path fill-rule="evenodd" clip-rule="evenodd" fill="url(#SVGID_2_)" d="M21,60.4c-12.1-6.6-9.7-11.5,2.2-5.8L21,60.4z"/>
	<path fill-rule="evenodd" clip-rule="evenodd" fill="#292823" d="M58.5,61.7c-1.9-0.1-3.4,0-3.4,0.3s1.5,0.5,3.4,0.6
		c1.3,0.1,9.8,0.4,10.4,0.3c0,0,0-0.1,0-0.1C68.2,62.6,59.8,61.8,58.5,61.7z"/>
	
		<linearGradient id="SVGID_3_" gradientUnits="userSpaceOnUse" x1="197.542" y1="884.0262" x2="201.5747" y2="879.8516" gradientTransform="matrix(-0.75 0.67 -0.67 -0.75 779.62 590.14)">
		<stop  offset="0" style="stop-color:#7F1710"/>
		<stop  offset="0.33" style="stop-color:#E31513"/>
		<stop  offset="1" style="stop-color:#891812"/>
	</linearGradient>
	<path fill-rule="evenodd" clip-rule="evenodd" fill="url(#SVGID_3_)" d="M57.3,59.9c-12.1-0.4-24.2-0.4-36.3,0v0.8
		c12,1.6,24.1,2.8,36.1,3.5L57.3,59.9z"/>
	
		<linearGradient id="SVGID_4_" gradientUnits="userSpaceOnUse" x1="197.542" y1="884.0262" x2="201.5747" y2="879.8516" gradientTransform="matrix(-0.75 0.67 -0.67 -0.75 779.62 590.14)">
		<stop  offset="0" style="stop-color:#7F1710"/>
		<stop  offset="0.33" style="stop-color:#E31513"/>
		<stop  offset="1" style="stop-color:#891812"/>
	</linearGradient>
	<path fill-rule="evenodd" clip-rule="evenodd" fill="url(#SVGID_4_)" d="M57.3,59.9c-12.1-0.4-24.2-0.4-36.3,0v0.8
		c12,1.6,24.1,2.8,36.1,3.5L57.3,59.9z"/>
	
		<linearGradient id="SVGID_5_" gradientUnits="userSpaceOnUse" x1="186.1537" y1="875.04" x2="189.1937" y2="871.7784" gradientTransform="matrix(-0.75 0.67 -0.67 -0.75 779.62 590.14)">
		<stop  offset="0" style="stop-color:#D59141"/>
		<stop  offset="0.33" style="stop-color:#F7D79D"/>
		<stop  offset="1" style="stop-color:#AF6F2B"/>
	</linearGradient>
	<path fill-rule="evenodd" clip-rule="evenodd" fill="url(#SVGID_5_)" d="M57.3,59.9L49,59.7c1.6,0.7,1.4,3.1-0.5,3.9l8.6,0.6
		c1.2-0.3,1.9-1.5,1.6-2.7C58.5,60.8,58,60.2,57.3,59.9z"/>
	
		<linearGradient id="SVGID_6_" gradientUnits="userSpaceOnUse" x1="207.1729" y1="881.9443" x2="212.1628" y2="876.5909" gradientTransform="matrix(-0.76 0.65 -0.65 -0.76 787.37 595.05)">
		<stop  offset="0" style="stop-color:#D59141"/>
		<stop  offset="0.33" style="stop-color:#F7D79D"/>
		<stop  offset="1" style="stop-color:#AF6F2B"/>
	</linearGradient>
	<path fill="url(#SVGID_6_)" d="M56.7,63.1c0.1-0.3,0.2-0.5,0.2-0.8V62c0-0.6-0.1-1.3-0.5-1.8c-0.1-0.1-0.2-0.3-0.3-0.4h0.3l0.2,0.2
		c0.4,0.6,0.6,1.2,0.5,1.9c0,0.7-0.3,1.3-0.7,1.9l-0.2,0.2h-0.3c0.1-0.1,0.3-0.2,0.4-0.4C56.4,63.6,56.6,63.4,56.7,63.1z"/>
	
		<linearGradient id="SVGID_7_" gradientUnits="userSpaceOnUse" x1="206.4519" y1="881.2666" x2="211.4418" y2="875.9133" gradientTransform="matrix(-0.76 0.65 -0.65 -0.76 787.37 595.05)">
		<stop  offset="0" style="stop-color:#D59141"/>
		<stop  offset="0.33" style="stop-color:#F7D79D"/>
		<stop  offset="1" style="stop-color:#AF6F2B"/>
	</linearGradient>
	<path fill="url(#SVGID_7_)" d="M57.3,63.8L57.3,63.8c0.1-0.2,0.3-0.4,0.4-0.6c0.2-0.4,0.3-0.7,0.3-1.1c0.1-0.8-0.3-1.6-0.9-2.2h0.2
		l0.2,0.1c0.1,0.1,0.1,0.1,0.2,0.2c0.4,0.6,0.6,1.2,0.5,1.9c0,0.4-0.1,0.9-0.3,1.2c-0.1,0.2-0.2,0.4-0.4,0.5L57.4,64l-0.2,0.2h-0.2
		h-0.2C57,64.1,57.2,64,57.3,63.8z"/>
	
		<linearGradient id="SVGID_8_" gradientUnits="userSpaceOnUse" x1="207.9112" y1="882.6298" x2="212.9011" y2="877.2765" gradientTransform="matrix(-0.76 0.65 -0.65 -0.76 787.37 595.05)">
		<stop  offset="0" style="stop-color:#D59141"/>
		<stop  offset="0.33" style="stop-color:#F7D79D"/>
		<stop  offset="1" style="stop-color:#AF6F2B"/>
	</linearGradient>
	<path fill="url(#SVGID_8_)" d="M55.9,62.2V62c0-0.3,0-0.6-0.1-0.9c-0.1-0.3-0.2-0.6-0.4-0.9c-0.1-0.1-0.2-0.2-0.3-0.3l0.3-0.1
		l0.1,0.2c0.3,0.4,0.5,0.9,0.5,1.4c0,0.2,0,0.4,0,0.6c0,0.2,0,0.3-0.1,0.5c-0.1,0.5-0.3,1-0.6,1.5c0,0.1-0.1,0.1-0.2,0.2h-0.3
		c0.1-0.1,0.2-0.2,0.3-0.3C55.6,63.3,55.8,62.8,55.9,62.2z"/>
	
		<linearGradient id="SVGID_9_" gradientUnits="userSpaceOnUse" x1="208.6542" y1="883.3216" x2="213.6441" y2="877.9772" gradientTransform="matrix(-0.76 0.65 -0.65 -0.76 787.37 595.05)">
		<stop  offset="0" style="stop-color:#D59141"/>
		<stop  offset="0.33" style="stop-color:#F7D79D"/>
		<stop  offset="1" style="stop-color:#AF6F2B"/>
	</linearGradient>
	<path fill="url(#SVGID_9_)" d="M54.2,63.8c0.4-0.5,0.7-1.2,0.7-1.8c0-0.3,0-0.6-0.1-0.9c-0.1-0.3-0.2-0.6-0.4-0.9l0,0
		c-0.1-0.1-0.1-0.2-0.2-0.2h0.3l0.1,0.1l0,0c0.3,0.4,0.5,0.9,0.5,1.4c0,0.2,0,0.4,0,0.6c0,0.7-0.3,1.4-0.7,1.9l-0.1,0.1h-0.3
		C54,64,54.1,63.9,54.2,63.8z"/>
	
		<linearGradient id="SVGID_10_" gradientUnits="userSpaceOnUse" x1="197.3959" y1="898.1689" x2="205.9222" y2="891.0164" gradientTransform="matrix(-0.75 0.67 -0.67 -0.75 779.62 590.14)">
		<stop  offset="0" style="stop-color:#E42320"/>
		<stop  offset="1" style="stop-color:#891812"/>
	</linearGradient>
	<path fill-rule="evenodd" clip-rule="evenodd" fill="url(#SVGID_10_)" d="M35.5,60.9l-14.9-0.6C24.4,46.6,33.9,44.5,35.5,60.9z"/>
	
		<linearGradient id="SVGID_11_" gradientUnits="userSpaceOnUse" x1="205.6694" y1="891.4247" x2="212.9992" y2="883.5632" gradientTransform="matrix(-0.75 0.67 -0.67 -0.75 779.62 590.14)">
		<stop  offset="0" style="stop-color:#E42320"/>
		<stop  offset="1" style="stop-color:#891812"/>
	</linearGradient>
	<path fill-rule="evenodd" clip-rule="evenodd" fill="url(#SVGID_11_)" d="M35.5,60.9l-14.9-0.6C23,74.3,32.4,77.1,35.5,60.9z"/>
</g>
</svg>
