<?xml version="1.0" encoding="utf-8"?>
<!-- Generator: Adobe Illustrator 24.3.0, SVG Export Plug-In . SVG Version: 6.00 Build 0)  -->
<svg version="1.1" id="Layer_1" xmlns="http://www.w3.org/2000/svg" xmlns:xlink="http://www.w3.org/1999/xlink" x="0px" y="0px"
	 viewBox="0 0 126 126" enable-background="new 0 0 126 126" xml:space="preserve">
<g>
	<path fill="#07485E" d="M76.1,78.4l27.6,7.4l3.4-1l2.5,2.6l3.4,0.9V112H13.1V88.3l3.4-0.9l3.3-2.8l2.5,1.3l26.8-7.2L76.1,78.4z"/>
	<path fill="#03232E" d="M73.8,77.8l29.9,8l2.8-1.2l3.1,2.8l3.4,0.9V112H63V77.8L73.8,77.8z"/>
	<path fill="#0C7A9D" d="M39.4,37.6C39.4,24.6,49.9,14,63,14s23.6,10.6,23.6,23.6v33c0,8.1-4.9,11-12.1,13.7l-4.9,1.8
		c-4.3,1.6-9,1.6-13.3,0l-4.9-1.8c-7.3-2.7-12.1-5.6-12.1-13.7L39.4,37.6L39.4,37.6z"/>
	<path fill="#07485E" d="M63,14v73.3c2.2,0,4.5-0.4,6.6-1.2l4.9-1.8c7.3-2.7,12.1-5.6,12.1-13.7v-33C86.6,24.6,76.1,14,63,14L63,14z
		"/>
	<path fill="#5B5A5A" d="M63,53l-9.4,13.8h18.9L63,53z"/>
	<g>
		<path fill="#BFE3F3" d="M89.5,56.8c0,3.9-3.2,7.1-7.1,7.1l-8.6,0l-9.2-11.2c-0.8-1-2.4-1-3.2,0l-9.2,11.2h-8.6
			c-3.9,0-7.1-3.2-7.1-7.1v-4.6c0-8,6.5-14.5,14.5-14.5H75c8,0,14.5,6.5,14.5,14.5L89.5,56.8L89.5,56.8z"/>
	</g>
	<g>
		<path fill="#82CEED" d="M89.5,56.8c0,3.9-3.2,7.1-7.1,7.1l-8.6,0l-9.2-11.2c-0.4-0.5-1-0.8-1.6-0.8V37.6h12
			c8,0,14.5,6.5,14.5,14.5V56.8z"/>
	</g>
	<path fill="#2D2D2E" d="M63,53v13.8h9.4L63,53z"/>
	<g>
		<g>
			<path fill="#F8B358" d="M72.4,66.8L63,55.4l-9.4,11.4h-9.9c-5.5,0-10-4.5-10-10v-4.6c0-9.6,7.8-17.4,17.4-17.4H75
				c9.6,0,17.4,7.8,17.4,17.4v4.6c0,5.5-4.5,10-10,10L72.4,66.8z M63,49c1.5,0,2.9,0.7,3.9,1.8L75.2,61l7.2,0c2.3,0,4.2-1.9,4.2-4.2
				v-4.6c0-6.4-5.2-11.6-11.6-11.6H51c-6.4,0-11.6,5.2-11.6,11.6v4.6c0,2.3,1.9,4.2,4.2,4.2h7.2l8.3-10.1C60.1,49.7,61.5,49,63,49
				L63,49z"/>
		</g>
	</g>
	<path fill="#EE794D" d="M75,34.7H63v5.9h12c6.4,0,11.6,5.2,11.6,11.6v4.6c0,2.3-1.9,4.2-4.2,4.2l-7.2,0l-8.3-10.1
		c-1-1.2-2.4-1.8-3.9-1.8v6.3l9.4,11.4l9.9,0c5.5,0,10-4.5,10-10v-4.6C92.4,42.5,84.6,34.7,75,34.7L75,34.7z"/>
	<circle fill="#818282" cx="63" cy="69.7" r="8.8"/>
	<path fill="#5B5A5A" d="M63,61c4.8,0,8.8,3.9,8.8,8.8c0,4.8-3.9,8.8-8.8,8.8V61z"/>
	<path fill="#5B5A5A" d="M22.3,85.8v-3.2c0-1.8,1.5-3.3,3.3-3.3h74.8c1.8,0,3.3,1.5,3.3,3.3v3.2l5.9,1.6v-4.8c0-5-4.1-9.1-9.1-9.1
		H25.6c-5,0-9.1,4.1-9.1,9.1v4.8L22.3,85.8z"/>
	<path fill="#2D2D2E" d="M100.4,79.3c1.8,0,3.3,1.5,3.3,3.3v3.2l5.9,1.6v-4.8c0-5-4.1-9.1-9.1-9.1H63v5.9H100.4z"/>
</g>
</svg>
