<?xml version="1.0" encoding="utf-8"?>
<!-- Generator: Adobe Illustrator 24.3.0, SVG Export Plug-In . SVG Version: 6.00 Build 0)  -->
<svg version="1.1" id="Layer_1" xmlns="http://www.w3.org/2000/svg" xmlns:xlink="http://www.w3.org/1999/xlink" x="0px" y="0px"
	 viewBox="0 0 126 126" enable-background="new 0 0 126 126" xml:space="preserve">
<g>
	<path fill="#FFFFFF" d="M65.7,112.8c-0.4,0-0.4,0-21.2-3.4l-2.1,0.2c-12.8,1.4-12.8,1.4-13,1.4h-6.7c-2,0-2.9-0.1-5.1-0.7
		c-2-0.5-3.4-2.3-3.3-4.3c0.1-3.2,0.2-6.1,0.4-8.8c1-25.2,1-25.2-0.9-62.2c-0.2-4.5-0.5-9.4-0.8-15.1c-0.1-2.3,1.7-4.4,4-4.5
		c9.7-0.6,16.5-1,21.6-1.3c12.4-0.8,14.7-0.9,21.7-0.9h19.9c1.2,0,1.9,0.1,6.2,0.4c3.8,0.3,10.4,0.8,22.5,1.6c2.4,0.2,4.1,2.2,4,4.6
		c0,0.7-0.1,1.3-0.1,1.7c-0.2,2.2-0.2,2.2,0,9.2c0,1.9,0.2,7.6,0.2,7.6c0,0.5-0.3,51-0.1,69.5c0,1.1-0.4,2.2-1.2,3.1
		c-0.8,0.8-1.9,1.3-3,1.3c-0.3,0-0.6,0-0.8-0.1l-8.8-1.8l-4.9,0.3C87,111,87,111,76.7,111.9l-10.5,0.9
		C66.2,112.8,65.7,112.8,65.7,112.8z"/>
	<path fill="#E4231F" d="M107,39.5c-0.3-16.3-0.4-12.8,0-17.9c0-0.3-0.2-0.6-0.5-0.6c-24.3-1.7-25.2-1.9-27.1-1.9
		c-33.2,0-15.8-0.5-60.1,2.1c-0.3,0-0.5,0.3-0.5,0.6c2.9,54.8,2.8,45.8,1.3,82.3c0,0.3,0.2,0.5,0.4,0.6c3.3,0.8,2.7,0.5,10.5,0.5
		l14.5-1.6c0.1,0,20,3.3,20.1,3.3c23.4-2,16.7-1.5,31.8-2.3l8.9,1.8c0.3,0.1,0.7-0.2,0.7-0.5C106.7,88,107,39.5,107,39.5z
		 M71.1,38.2c0.1,0,0.2,0,0.3-0.1l6.3-1.4c3.2-0.8,3.7-1,6.5-2.3c1.3,0.4,4.8,2.4,5.7,3.5c0.6,0.7,0.5,0.9,0.4,1.7
		c0,0.2-0.1,0.3-0.1,0.5L88.6,51c-1.4,0.1-1.5-0.1-1.9-0.4c-0.2-0.1-0.4-0.3-0.7-0.6c-2.1-1.4-8.9-6.5-11.1-8.2l-4.2-3.4
		c0,0,0.1-0.1,0.1-0.2C70.8,38.2,71.1,38.2,71.1,38.2z M80.9,92.8c-0.1-0.1-53-56.2-53-56.2l4.6-3.5L97,75.8
		c-0.5,1.5-0.7,3.3-1.1,4.7c-1.1,5.1-2.6,7.4-4.9,12.3C87.8,92.9,81.1,92.9,80.9,92.8z M32.8,77.7c0.6-1.4,1.4-3.7,2.1-4.9
		c3.4,2.1,16.6,15.4,17.7,17.1c-0.6,0.2-3.4,0.6-7.9,2.5c-2.9,1.1-5.6,2.2-8.2,1.3c-0.3-0.1-1-0.7-2-1.6c-1.9-1.6-3.6-2.8-4.6-3.4
		C28.2,87.8,28.5,88,32.8,77.7z"/>
</g>
</svg>
