<?xml version="1.0" encoding="utf-8"?>
<!-- Generator: Adobe Illustrator 24.3.0, SVG Export Plug-In . SVG Version: 6.00 Build 0)  -->
<svg version="1.1" id="Layer_1" xmlns="http://www.w3.org/2000/svg" xmlns:xlink="http://www.w3.org/1999/xlink" x="0px" y="0px"
	 viewBox="0 0 126 126" enable-background="new 0 0 126 126" xml:space="preserve">
<g>
	<path fill="#E19E7B" d="M99.4,97.3c-0.3,0.4-0.7,0.7-1.1,1.1c-0.4,0.4-0.7,0.7-1.1,1.1c-10.8,10.2-25.1,14.7-38.9,13.4v0
		c-10.7-1-21.2-5.5-29.6-13.4c-0.4-0.3-0.7-0.7-1.1-1.1c-0.4-0.4-0.7-0.7-1.1-1.1c-8.2-8.7-12.7-19.6-13.5-30.7
		c-1-13.5,3.5-27.3,13.5-37.9l2.1-2.1c10.6-9.9,24.4-14.4,37.9-13.5c11.1,0.8,22,5.3,30.7,13.5c0.4,0.3,0.7,0.7,1.1,1.1
		c0.4,0.4,0.7,0.7,1.1,1.1c7.9,8.4,12.4,18.9,13.4,29.6C114.1,72.2,109.6,86.4,99.4,97.3L99.4,97.3z"/>
	<path fill="#CE896A" d="M68,112.7c-3.2,0.3-6.5,0.3-9.7,0v0c-11.2-1-22.1-5.9-30.7-14.4C18.8,89.5,14,78.2,13.1,66.6
		c-1-14,3.8-28.3,14.5-39s25-15.5,39-14.5c0.5,0,1,0.1,1.4,0.1C57,14.4,46.2,19.2,37.7,27.6c-10.7,10.7-15.5,25-14.5,39
		c0.8,11.6,5.7,22.9,14.5,31.8C46.2,106.8,57,111.6,68,112.7z"/>
	<path fill="#AB5E2D" d="M58.8,110.9c-0.1,0.6-0.3,1.2-0.5,1.8c-11.2-1-22.1-5.9-30.7-14.4C18.8,89.5,14,78.2,13.1,66.6
		c3.2-0.9,6.6-1.2,10-0.9c0,0.3,0,0.6,0.1,0.9c0.8,11.6,5.7,22.9,14.5,31.8C43.8,104.5,51.1,108.6,58.8,110.9L58.8,110.9z"/>
	<path fill="#CE896A" d="M112.8,58.3c-11.1,3.4-25-0.4-35.3-10.7C67.4,37.6,63.6,24.1,66.6,13.1c11.6,0.8,22.9,5.7,31.8,14.5
		C106.9,36.2,111.7,47.1,112.8,58.3z"/>
	<path fill="#CE896A" d="M58.3,112.8c-11.2-1-22.1-5.9-30.7-14.4C18.8,89.5,14,78.2,13.1,66.6c11-3,24.5,0.8,34.5,10.9
		C57.9,87.8,61.7,101.7,58.3,112.8L58.3,112.8z"/>
	<path fill="#C37C5F" d="M58.8,110.9c-0.1,0.6-0.3,1.2-0.5,1.8c-11.2-1-22.1-5.9-30.7-14.4C18.8,89.5,14,78.2,13.1,66.6
		c3.2-0.9,6.6-1.2,10-0.9c0,0.3,0,0.6,0.1,0.9c0.8,11.6,5.7,22.9,14.5,31.8C43.8,104.5,51.1,108.6,58.8,110.9L58.8,110.9z"/>
	<path fill="#CE896A" d="M65.1,63l34.3,34.3c-0.3,0.4-0.7,0.7-1.1,1.1c-0.4,0.4-0.7,0.7-1.1,1.1L63,65.1L49.1,79L28.7,99.4l-2.1-2.1
		c0,0,0,0,0,0L47,76.9L60.9,63L26.6,28.7l2.1-2.1L63,60.9L76.9,47l20.4-20.4c0,0,0,0,0,0l2.1,2.1c0,0,0,0,0,0L79,49.1L65.1,63z"/>
	<g>
		<path fill="#C37C5F" d="M49.1,79L28.7,99.4c-0.4-0.3-0.7-0.7-1.1-1.1c-0.3-0.3-0.7-0.7-1-1c0,0,0,0,0,0L47,76.9
			c0.2,0.2,0.4,0.4,0.6,0.6C48.2,78,48.6,78.5,49.1,79L49.1,79z"/>
		<path fill="#C37C5F" d="M99.4,28.7L79,49.1c-0.5-0.5-1-1-1.5-1.5c-0.2-0.2-0.4-0.4-0.6-0.6l20.4-20.4c0,0,0,0,0,0
			c0.4,0.3,0.7,0.7,1,1C98.7,28,99.1,28.4,99.4,28.7C99.4,28.7,99.4,28.7,99.4,28.7L99.4,28.7z"/>
	</g>
</g>
</svg>
