<?xml version="1.0" encoding="utf-8"?>
<!-- Generator: Adobe Illustrator 24.3.0, SVG Export Plug-In . SVG Version: 6.00 Build 0)  -->
<svg version="1.1" id="Layer_1" xmlns="http://www.w3.org/2000/svg" xmlns:xlink="http://www.w3.org/1999/xlink" x="0px" y="0px"
	 viewBox="0 0 126 126" enable-background="new 0 0 126 126" xml:space="preserve">
<g>
	<path fill="#F5FAFF" d="M103.1,33.1L77.9,15.2C73.2,13.8,68.2,13,63,13c-5.4,0-10.6,0.9-15.5,2.4l-25,18.2
		c-3.9,7.2-7.6,13.4-7.6,22.7c0,29.5,23.9,53.3,53.3,53.3c15.3,0,26-7.5,35.2-17.2L113,63C113,51.8,109.3,41.4,103.1,33.1
		L103.1,33.1z"/>
	<path fill="#D6DFF2" d="M66.8,108.2c-27.8,0-50.4-22.6-50.4-50.4c0-8.7,2.2-17,6.1-24.1C16.5,41.9,13,52,13,63l9.9,29.9
		c6.2,8.3,15,14.7,25.2,17.8l30.3-0.2c10.1-3.3,18.9-9.7,25-18.2C94.3,102.1,81.2,108.2,66.8,108.2L66.8,108.2z"/>
	<path fill="#8A92C8" d="M101.8,75.6C109.8,69.3,113,63,113,63c0,11-3.5,21.1-9.5,29.4C103.4,92.4,104.6,85.4,101.8,75.6L101.8,75.6
		z M57.1,107.2c2.9,1.9,11.2,2.4,13.6,0.8c-2.3-1-4.9-2.3-7.7-4.2C60.9,105.2,58.9,106.3,57.1,107.2L57.1,107.2z M22.6,33.6
		c0,0,6.3-3.2,16.5-3.6c3.5-9.5,8.5-14.5,8.5-14.5C37.1,18.8,28.5,25.3,22.6,33.6z M17.8,69.6c0,5.7,2.8,10.6,5,12.7
		c0.3-2,0.7-4.3,1.4-6.7C21.6,73.5,19.5,71.5,17.8,69.6z M78.4,15.4c0,0,5,5,8.5,14.5c10.1,0.4,16.4,3.6,16.5,3.6
		C97.5,25.3,88.9,18.8,78.4,15.4z M79.8,86.1C74.9,87.3,69.3,88,63,88s-11.9-0.7-16.8-1.9c5.2,8.5,11.3,14,16.8,17.7
		C68.5,100.2,74.6,94.6,79.8,86.1z M79.8,86.1c9.6-2.3,16.8-6.4,22-10.5c-1.8-6.4-5.2-13.9-11.7-21.4c-0.4,5.1-1.5,10.6-3.4,16.6
		C84.8,76.7,82.4,81.8,79.8,86.1z M35.8,54.2c-6.4,7.5-9.9,15.1-11.7,21.4c5.2,4.1,12.4,8.2,22,10.5c-2.6-4.3-5-9.4-7-15.4
		C37.3,64.8,36.2,59.2,35.8,54.2z M48.3,42.8c5.1-3.7,10-6.4,14.7-8.3c-9.2-3.8-17.4-4.7-24-4.5c-2.3,6.2-4,14.3-3.2,24.2
		C39.1,50.3,43.2,46.5,48.3,42.8z M90.2,54.2c0.8-9.9-0.9-18-3.2-24.2c-6.6-0.3-14.8,0.7-24,4.5c4.7,2,9.6,4.7,14.7,8.3
		C82.8,46.5,86.9,50.3,90.2,54.2z"/>
	<path fill="#6F7BBA" d="M66.8,108.2c1.3,0,2.6-0.1,3.8-0.1c4.6,2,7.8,2.5,7.8,2.5c-10.4,3.4-21.2,3.2-30.9,0c0,0,4-0.6,9.5-3.3
		C60.2,107.8,63.5,108.2,66.8,108.2L66.8,108.2z M13,63c0,11,3.5,21.1,9.5,29.4c0,0-0.6-4,0.2-10.1c-2.2-3.9-3.9-8.2-5-12.7
		C14.5,65.8,13,63,13,63z"/>
</g>
</svg>
