<?xml version="1.0" encoding="utf-8"?>
<!-- Generator: Adobe Illustrator 24.3.0, SVG Export Plug-In . SVG Version: 6.00 Build 0)  -->
<svg version="1.1" id="Layer_1" xmlns="http://www.w3.org/2000/svg" xmlns:xlink="http://www.w3.org/1999/xlink" x="0px" y="0px"
	 viewBox="0 0 126 126" enable-background="new 0 0 126 126" xml:space="preserve">
<g id="_24-hocky">
	<g id="Flat">
		<path fill="#CDE9F7" d="M102.1,13.7c-0.4-0.5-1-0.7-1.6-0.7H88c-0.9,0-1.7,0.6-2,1.5l-8.7,28.1c-2,6-7.6,10-13.8,10H33.8
			c-5.8,0-10.4,4.7-10.4,10.4v12.5c0,5.8,4.7,10.4,10.4,10.4h40.3c9,0,16.8-6.4,18.4-15.3l10-55.2C102.7,14.8,102.5,14.2,102.1,13.7
			z"/>
		<path fill="#A0D8F0" d="M82.5,79.7H42.2c-5.8,0-10.4-4.7-10.4-10.4V56.8c0-1.4,0.3-2.8,0.8-4.1c-5.2,0.6-9.2,5.1-9.2,10.3v12.5
			c0,5.8,4.7,10.4,10.4,10.4h40.3c5.9,0,11.4-2.8,15-7.5C87,79.3,84.8,79.7,82.5,79.7z"/>
		
			<linearGradient id="SVGID_1_" gradientUnits="userSpaceOnUse" x1="25.7662" y1="106.8512" x2="28.5889" y2="109.6737" gradientTransform="matrix(5.3333 0 0 -5.3333 -56.3333 615.6667)">
			<stop  offset="0" style="stop-color:#4CC1ED"/>
			<stop  offset="1" style="stop-color:#E6D7EB"/>
		</linearGradient>
		<path fill="url(#SVGID_1_)" d="M77.5,42.2h20.3l1.5-8.3H80L77.5,42.2z"/>
		<circle fill="#4CC1ED" cx="54.7" cy="92.2" r="20.8"/>
	</g>
</g>
</svg>
