<?xml version="1.0" encoding="utf-8"?>
<!-- Generator: Adobe Illustrator 24.3.0, SVG Export Plug-In . SVG Version: 6.00 Build 0)  -->
<svg version="1.1" id="Layer_1" xmlns="http://www.w3.org/2000/svg" xmlns:xlink="http://www.w3.org/1999/xlink" x="0px" y="0px"
	 viewBox="0 0 126 126" enable-background="new 0 0 126 126" xml:space="preserve">
<g>
	<path fill="#DFE1E1" d="M113,63c0,3.6-0.4,7.2-1.1,10.6c0,0.1-0.1,0.3-0.1,0.4c-0.2,1.2-0.6,2.3-0.9,3.4
		c-2.6,8.7-7.6,16.5-14.2,22.5c-0.2,0.2-0.4,0.4-0.6,0.5c-0.1,0-0.1,0.1-0.2,0.1c-0.2,0.2-0.5,0.4-0.7,0.6
		c-4.9,4.2-10.6,7.4-16.9,9.4c-0.4,0.2-0.9,0.3-1.3,0.4c-4.4,1.3-9.2,2-14,2c-13,0-24.8-5-33.7-13.1c-0.4-0.3-0.7-0.7-1.1-1.1
		c-0.5-0.5-1-1-1.5-1.6C20.7,91,16.3,83,14.3,74.2c-0.1-0.3-0.2-0.7-0.2-1c-0.1-0.3-0.1-0.6-0.2-0.8c-0.6-3-0.9-6.1-0.9-9.3
		c0-3.7,0.4-7.3,1.2-10.7c0.1-0.5,0.2-0.9,0.3-1.4c4.3-17.3,17.6-31.1,34.7-36c0.1,0,0.2-0.1,0.3-0.1c1.1-0.3,2.1-0.6,3.2-0.8
		C56,13.4,59.5,13,63,13c3.8,0,7.4,0.4,10.9,1.2c1.5,0.3,3.1,0.7,4.5,1.2c0.2,0.1,0.5,0.1,0.7,0.2c0.4,0.1,0.7,0.2,1.1,0.4
		c6.1,2.2,11.7,5.7,16.4,10c0.4,0.3,0.7,0.7,1.1,1C107.1,36.1,113,48.9,113,63L113,63z"/>
	<path fill="#EBEFF0" d="M113,63c0,3.6-0.4,7.2-1.1,10.6c0,0.1-0.1,0.3-0.1,0.4c-0.2,1.2-0.6,2.3-0.9,3.4
		c-2.6,8.7-7.6,16.5-14.2,22.5c-0.2,0.2-0.4,0.4-0.6,0.5c-0.1,0-0.1,0.1-0.2,0.1c-5.6,1.9-11.6,3-18,3c-27.6,0-50-20-50-44.8
		c0-23.5,20.2-42.7,45.9-44.6c1.5,0.3,3.1,0.7,4.5,1.2c0.2,0.1,0.5,0.1,0.7,0.2c0.4,0.1,0.7,0.2,1.1,0.4c6.1,2.2,11.7,5.7,16.4,10
		c0.4,0.3,0.7,0.7,1.1,1C107.1,36.1,113,48.9,113,63L113,63z"/>
	<path fill="#FFFFFF" d="M102.7,45c0,12-9.7,21.6-21.6,21.6S59.4,57,59.4,45c0-11.9,9.7-21.6,21.6-21.6S102.7,33.1,102.7,45z"/>
	<path fill="#3996D2" d="M111.8,74c-0.2,1.2-0.6,2.3-0.9,3.4c-2.6,8.7-7.6,16.5-14.2,22.5c-0.2,0.2-0.4,0.4-0.6,0.5
		c0-0.9,0.1-2,0.2-3.3c0.7-5.3,0.2-10.5,0-14.7c-0.2-4.2-3.5-12.7-4.4-15.2c-0.9-2.4-8.1-13.7-8.1-13.7L77,45.8l-4.6-4
		c5.2-8.4,15.9-12.2,15.9-12.2s7.8,8.9,11.8,14c4,5.2,6.9,13,7.8,15c0.9,2,3.3,14.2,3.3,14.2S111.4,73.3,111.8,74L111.8,74z"/>
	<path fill="#E74B3C" d="M79.2,100.4c-0.7,1.1-17.4,4.1-22,4.3c-4.6,0.3-17-1.7-17-1.7l-12-4.2c-0.5-0.5-1-1-1.5-1.6
		C20.7,91,16.3,83,14.3,74.2c-0.1-0.3-0.2-0.7-0.2-1l6.6,4.7c0,0,8.7,4.5,18.3,7c9.6,2.5,18.1,0.2,25.6-0.5
		c7.5-0.6,11.7-3.6,11.7-3.6C79.3,84,80,99.3,79.2,100.4z"/>
	<path fill="#E57D21" d="M79.1,15.7l-0.2,0.2l-8.5,4.2l-8.9,6.2L54.2,34l-4.7,6.6l-4,7.7l-3,7.8l-2,9l-9.1-2.3L22,57.7l1.9-8.5
		l3.7-8.4l4.5-7.7l6.2-8.3l8.7-8c0,0,1.2-1,2.4-2c1.1-0.3,2.1-0.6,3.2-0.8C56,13.4,59.5,13,63,13c5.4,0,10.6,0.9,15.5,2.4
		C78.7,15.5,78.9,15.6,79.1,15.7z"/>
	<path fill="#5B5E71" d="M73.2,41.6c4,3.3,29.3,26.1,23.5,58.3c-0.5,0.5-1,0.9-1.5,1.3c6.8-32.4-18.8-55.4-22.7-58.7
		c-6.9,8.9-8.5,18.3-8.8,20.2c2.7,1.9,22,16.9,14.7,47.8c-0.4,0.2-0.9,0.3-1.3,0.4c0.9-3.4,1.4-6.7,1.6-9.7
		c-2.8,1.1-11.7,4.1-23.4,4.1c-7.8,0-16.8-1.3-25.9-5.4c-0.9-0.8-1.8-1.7-2.7-2.6c24.8,12.9,48.9,4,52.1,2.7
		c0.4-7.2-0.7-13.2-2.5-18.2c-2.6,1-12.8,4.7-25.6,4.7c-11.1,0-24.3-2.7-36.3-12.3c-0.1-0.6-0.3-1.2-0.4-1.9
		c25.7,21.6,57.3,10.2,61.9,8.4c-4.2-10.6-11.4-16.1-12.8-17c-1.4,0.5-7.4,2.6-15.5,2.6c-9.5,0-21.8-2.8-33.3-14
		c0.1-0.5,0.2-0.9,0.3-1.4c2.4,2.4,4.8,4.4,7.3,6.1c0.7-4.7,4.9-26.8,27.4-42.1c1.2-0.3,2.4-0.6,3.5-0.9c-26,15.9-29.6,41-29.9,43.7
		c5.8,3.8,11.6,5.8,17,6.7c0.9-5.3,7.2-36.8,38.7-49c0.6,0.2,1.2,0.4,1.8,0.6C48.2,27.6,41.8,59.5,41,64.7
		c11.1,1.6,19.8-1.4,21.5-2.1C63,59.2,67.8,32.8,96.7,26c0.4,0.3,0.7,0.7,1.1,1c-3.2,0.7-6.1,1.6-8.7,2.8
		c3.8,3.3,20.8,19.4,22.9,43.8c-0.3,1.3-0.6,2.6-1,3.9c-0.5-27.1-20.4-44.8-23.1-47.1C81.4,33.3,76.7,37.3,73.2,41.6L73.2,41.6z"/>
</g>
</svg>
