<?xml version="1.0" encoding="utf-8"?>
<!-- Generator: Adobe Illustrator 24.3.0, SVG Export Plug-In . SVG Version: 6.00 Build 0)  -->
<svg version="1.1" id="Layer_1" xmlns="http://www.w3.org/2000/svg" xmlns:xlink="http://www.w3.org/1999/xlink" x="0px" y="0px"
	 viewBox="0 0 126 126" enable-background="new 0 0 126 126" xml:space="preserve">
<g id="School_Sports">
	<circle fill="#F08A5F" cx="56.8" cy="52.8" r="39.8"/>
	<path fill="#EE7651" d="M69.7,15.1c7.1,20.8-4,43.5-24.8,50.6c-8.3,2.8-17.4,2.8-25.7,0c7.1,20.8,29.8,31.9,50.6,24.8
		s31.9-29.8,24.8-50.6C90.5,28.3,81.3,19.1,69.7,15.1L69.7,15.1z"/>
	<path fill="#414344" d="M89.8,75.1c5.4-22.5-5-34.3-11.7-42.3c-2.5-3-4.7-5.7-6-8.3c7.4,0.4,12.9,3.1,17.7,6
		c-1.2-1.7-2.5-3.4-3.9-4.9c-4.5-2.1-9.2-3.5-14.7-3.6c-0.5-2.1-0.4-4.2,0.2-6.2l0,0c-0.8-0.3-1.5-0.6-2.3-0.8
		c-0.8,2.3-0.9,4.7-0.4,7.1c-3.8,0.2-7.5,0.8-11.1,1.9c-4.3-5.4-8.4-8.5-10.2-9.8c-1.1,0.3-2.1,0.5-3.1,0.9l0.9,0.6
		c0.1,0,4.7,3,9.8,9.1c-2.5,0.8-6.3,2.1-11.9,5.8c-5.5-4.9-11.8-5.2-15.5-4.7c-0.9,1-1.7,2-2.5,3l0.2-0.1c0.1,0,8.8-2.7,15.8,3.2
		C27.1,42,21.3,56.5,19.3,66.2c0.5,1.4,1.1,2.9,1.8,4.2c0.3-2.5,3-23.4,21.8-36.8c3.3,3.9,2.3,8,0.7,14.6c-2.3,9.3-5.4,22,1.8,42.7
		c0.9,0.3,1.9,0.5,2.9,0.7c-7.4-20.6-4.9-32.3-2.3-42.9c1.6-6.5,2.9-11.7-1-16.5c5.5-3.5,9.3-4.7,11.8-5.5
		c12.4,16.1,13.1,33.5,12.7,43.4l2.4,0.1c0.3-8.6,0.2-26.9-12.7-44.3c3.3-0.9,6.8-1.4,10.2-1.5c1.3,3.3,3.9,6.4,6.8,9.9
		c7.5,9.1,16.9,20.3,10.4,43L89.8,75.1z"/>
	<path fill="#B46959" d="M111.6,82.7c0.8-2.2,1.4-4.5,1.8-6.7c0.3-1.9-0.5-3.7-2-4.8c-1.9-1.3-3.9-2.5-6-3.5l1.5,7.5L111.6,82.7z"/>
	<path fill="#A85C4B" d="M53,110.1c-3.4-1.3-6.7-3.1-9.7-5.2c-1.5-1.1-2.3-2.9-2-4.7c0.6-3.6,1.7-7.1,3.1-10.5l6.3,10.2L53,110.1z"
		/>
	<path fill="#B46959" d="M59.7,112.1c7.2,1.5,16.1,1.4,26.3-2.8c11.8-4.9,18.6-12.6,22.5-19.7l-3.2-13.4l-7.1-11.3
		c-7.8-2.2-18-2.9-29.8,2c-10.1,4.2-16.5,10.5-20.5,16.6l4.2,15L59.7,112.1z"/>
	<path fill="#A85C4B" d="M87.4,104.5c-16.9,0-30.7-13.5-31.1-30.4c-3.3,2.7-6.1,5.9-8.4,9.4l4.2,15l7.6,13.6
		c7.2,1.5,16.1,1.4,26.3-2.8c3.9-1.6,7.6-3.7,11-6.3C93.9,104,90.7,104.5,87.4,104.5L87.4,104.5z"/>
	<path fill="#F0F0F9" d="M98.2,64.9l10.2,24.7c1.2-2.2,2.3-4.5,3.1-6.9l-6.2-15.1C103,66.5,100.7,65.6,98.2,64.9L98.2,64.9z"/>
	<path fill="#F0F0F9" d="M93.4,71.9c-2.7,0.4-5.4,1-8.1,1.8l-0.8-1.9c-0.6-1.5-2.9-0.6-2.3,0.9l0.7,1.7c-2.9,0.9-5.8,1.9-8.7,3
		l-0.7-1.6c-0.6-1.5-2.9-0.6-2.3,0.9l0.7,1.6c-2.9,1.2-5.6,2.6-8.3,4L63,80.6c-0.6-1.5-2.9-0.6-2.3,0.9l0.8,1.9
		c-1.6,0.9-3.2,1.9-4.7,2.9c-1.4,0.9,0,2.9,1.4,2c1.4-0.9,2.8-1.8,4.3-2.7l0.9,2.2c0.6,1.5,2.9,0.6,2.3-0.9l-1-2.5
		c2.6-1.4,5.4-2.8,8.3-4l1.1,2.6c0.6,1.5,2.9,0.6,2.3-0.9l-1.1-2.6c2.9-1.2,5.8-2.2,8.7-3l1,2.5c0.6,1.5,2.9,0.6,2.3-0.9l-0.9-2.2
		c2.6-0.7,5.1-1.2,7.6-1.6C95.4,74,95,71.6,93.4,71.9L93.4,71.9z"/>
	<path fill="#CBCAE6" d="M52.9,110.1c2.2,0.9,4.5,1.5,6.8,2L47.9,83.5c-1.3,2-2.4,4.1-3.4,6.2L52.9,110.1z"/>
	<circle fill="#F0F0F9" cx="29.7" cy="91.3" r="17.1"/>
	<path fill="#E5E4F3" d="M37.3,76.1c-1.5,12-11.6,21-23.7,21.1c3.2,8.8,13,13.4,21.9,10.1c8.8-3.2,13.4-13,10.1-21.9
		C44.2,81.4,41.2,78,37.3,76.1z"/>
	<g>
		<path fill="#EA596F" d="M42.2,79.8c-0.9,1.1-1.8,2.4-2.4,3.7l-1.4-1.4c-1.1-1.1-2.9,0.6-1.7,1.7l2,2c-0.7,1.7-1.3,3.4-1.8,5.1
			l-2.1-0.2c-1.6-0.2-1.9,2.2-0.3,2.4l1.8,0.2c-0.4,1.9-0.6,3.8-0.7,5.7l-1.9,0.6c-1.6,0.5-0.8,2.8,0.7,2.3l1.1-0.3
			c0,1.9,0.1,3.8,0.3,5.7c0.8-0.3,1.6-0.7,2.3-1.1c-0.2-1.8-0.3-3.5-0.2-5.3l2.6-0.8c1.6-0.5,0.8-2.8-0.7-2.3l-1.8,0.5
			c0.1-1.6,0.3-3.1,0.7-4.6l2,0.2c1.6,0.2,1.9-2.2,0.3-2.4l-1.7-0.2c0.3-1.2,0.7-2.4,1.2-3.5l0.8,0.8c1.1,1.1,2.9-0.6,1.7-1.7
			l-1.5-1.5c0.6-1.2,1.3-2.4,2.2-3.5C43.3,81.1,42.8,80.4,42.2,79.8L42.2,79.8z"/>
		<path fill="#EA596F" d="M19.4,82.7l-1.8,1.1c-1.4,0.9-0.1,2.9,1.3,2.1l1-0.6c0.2,1.2,0.3,2.5,0.4,3.7l-1.8-0.2
			c-1.6-0.2-1.9,2.2-0.3,2.4l2.1,0.2c0,1.6-0.2,3.1-0.4,4.6l-1.6-0.9c-1.4-0.8-2.6,1.3-1.2,2.1l2.4,1.4c-0.4,1.7-0.9,3.4-1.4,5.1
			c0.6,0.6,1.3,1.1,2,1.6c0.6-1.8,1.2-3.6,1.6-5.4l1,0.6c1.4,0.8,2.6-1.3,1.2-2.1l-1.7-1c0.3-1.9,0.5-3.8,0.6-5.7l1.8,0.2
			c1.6,0.2,1.9-2.2,0.3-2.4l-2.1-0.2c-0.1-1.8-0.2-3.6-0.6-5.4l2.4-1.5c1.4-0.8,0.1-2.9-1.3-2.1l-1.7,1c-0.4-1.4-0.9-2.8-1.5-4.1
			c-0.7,0.5-1.3,1-2,1.6C18.7,80.1,19.1,81.4,19.4,82.7L19.4,82.7z"/>
	</g>
</g>
</svg>
