<?xml version="1.0" encoding="utf-8"?>
<!-- Generator: Adobe Illustrator 24.3.0, SVG Export Plug-In . SVG Version: 6.00 Build 0)  -->
<svg version="1.1" id="Layer_1" xmlns="http://www.w3.org/2000/svg" xmlns:xlink="http://www.w3.org/1999/xlink" x="0px" y="0px"
	 viewBox="0 0 126 126" enable-background="new 0 0 126 126" xml:space="preserve">
<g>
	<path fill="#E73B67" d="M113,45.3v35.5c0,1-0.7,1.8-1.7,1.9c-5.2,0.7-9.3,4.8-10,9.9c-0.1,1-1,1.7-1.9,1.7h-10l-2.9-1l-2.9,1H26.6
		c-1,0-1.8-0.7-1.9-1.7c-0.7-5.1-4.9-9.2-10-9.9c-1-0.1-1.7-1-1.7-1.9V45.3c0-1,0.7-1.8,1.7-1.9c5.1-0.7,9.1-4.8,9.8-9.9
		c0.1-1,1-1.7,1.9-1.7h57.1l2.9,1l2.9-1h10c1,0,1.8,0.7,1.9,1.7c0.7,5.1,4.9,9.2,10,9.9C112.3,43.5,113,44.3,113,45.3z"/>
	<path fill="#D8215F" d="M113,45.3v35.5c0,1-0.7,1.8-1.7,1.9c-5.2,0.7-9.3,4.8-10,9.9c-0.1,1-1,1.7-1.9,1.7h-10l-2.9-1l-2.9,1H51.3
		V31.7h32.2l2.9,1l2.9-1h10c1,0,1.8,0.7,1.9,1.7c0.7,5.1,4.9,9.2,10,9.9C112.3,43.5,113,44.3,113,45.3z"/>
	<path fill="#FCD560" d="M36.6,46.4h29.3c1.6,0,2.9-1.3,2.9-2.9c0-1.6-1.3-2.9-2.9-2.9H36.6c-1.6,0-2.9,1.3-2.9,2.9
		C33.7,45.1,35,46.4,36.6,46.4L36.6,46.4z"/>
	<path fill="#F8C04C" d="M68.8,43.5c0,1.6-1.3,2.9-2.9,2.9H51.3v-5.9h14.6C67.5,40.5,68.8,41.9,68.8,43.5z"/>
	<path fill="#FCD560" d="M65.9,79.6H36.6c-1.6,0-2.9,1.3-2.9,2.9s1.3,2.9,2.9,2.9h29.3c1.6,0,2.9-1.3,2.9-2.9S67.6,79.6,65.9,79.6z"
		/>
	<path fill="#F8C04C" d="M68.9,82.5c0,1.6-1.3,2.9-2.9,2.9H51.3v-5.9h14.7C67.6,79.6,68.9,80.9,68.9,82.5z"/>
	<path fill="#FCD560" d="M61.2,58.2l-4.8-0.9l-2.5-4.4c-1.1-2-4-2-5.1,0l-2.5,4.4l-4.8,0.9c-2.2,0.4-3.1,3.1-1.7,4.8l3.4,3.8
		l-0.5,4.9c-0.2,2.2,2,3.9,4.1,3l4.6-2l4.6,2c2.1,0.9,4.3-0.8,4.1-3l-0.5-4.9l3.4-3.8C64.3,61.3,63.4,58.6,61.2,58.2L61.2,58.2z"/>
	<path fill="#F8C04C" d="M62.8,63l-3.4,3.8l0.5,4.9c0.2,2.2-2,3.9-4.1,3l-4.6-2V51.4c1,0,2,0.5,2.6,1.5l2.5,4.4l4.8,0.9
		C63.4,58.6,64.3,61.3,62.8,63L62.8,63z"/>
	<g>
		<path fill="#CFE7F9" d="M86.4,48.4c-1.6,0-2.9,1.3-2.9,2.9v5.9c0,1.6,1.3,2.9,2.9,2.9c1.6,0,2.9-1.3,2.9-2.9v-5.9
			C89.4,49.7,88.1,48.4,86.4,48.4z"/>
		<path fill="#CFE7F9" d="M89.4,31.7v7.8c0,1.6-1.3,2.9-2.9,2.9s-2.9-1.3-2.9-2.9v-7.8H89.4z"/>
		<path fill="#CFE7F9" d="M86.4,65.9c-1.6,0-2.9,1.3-2.9,2.9v5.9c0,1.6,1.3,2.9,2.9,2.9c1.6,0,2.9-1.3,2.9-2.9v-5.9
			C89.4,67.3,88.1,65.9,86.4,65.9z"/>
		<path fill="#CFE7F9" d="M89.4,86.4v7.8h-5.9v-7.8c0-1.6,1.3-2.9,2.9-2.9S89.4,84.8,89.4,86.4z"/>
	</g>
</g>
</svg>
