<?xml version="1.0" encoding="utf-8"?>
<!-- Generator: Adobe Illustrator 24.3.0, SVG Export Plug-In . SVG Version: 6.00 Build 0)  -->
<svg version="1.1" id="Layer_1" xmlns="http://www.w3.org/2000/svg" xmlns:xlink="http://www.w3.org/1999/xlink" x="0px" y="0px"
	 viewBox="0 0 126 126" enable-background="new 0 0 126 126" xml:space="preserve">
<g>
	<path fill="#F8B77A" d="M85.9,51.4c2-9.7-2.2-20.3-2.2-20.3L72.9,46.3c-1.2-0.1-2.5,0-3.8-0.2c-22.7-3.1-40.2,20-40.2,20V113
		c23.4-6.2,36.9-36.7,36.9-36.7c5.4,13.8,24.8,13.2,24.8,13.2s0.7,9.7,7.9,8.6c7.3-1.1,9.7-12.1,9.7-12.1L85.9,51.4z"/>
	<path fill="#FBD2B3" d="M85,62.4c2.6,4.6,13.4,21.9,22.5,26.1c0.5-1.5,0.8-2.6,0.8-2.6L86.7,52.5C84.9,55.8,83.4,59.7,85,62.4z"/>
	<path fill="#F19270" d="M104.3,91.6c-8.3,1-13.1-7.6-17.1-9.7c-2.4-1.2-5.1-1.5-7.6-2.3c-4.1-1.2-7.5-3.8-8.6-8.1
		c-0.7-3-2.9-8.9-6.7-6.7c-3.8,2.2-2.5,8.5,0.1,14.4c1-1.9,1.5-3.1,1.5-3.1c5.4,13.8,24.8,13.2,24.8,13.2s0.7,9.7,7.9,8.6
		c2.7-0.4,4.8-2.2,6.3-4.4C105.1,92.4,105,91.5,104.3,91.6L104.3,91.6z"/>
	<path fill="#F19270" d="M61.2,84.8C52,74.5,38.1,89,28.9,101.6V113C44.3,108.9,55.4,94.3,61.2,84.8z"/>
	<path fill="#A17B7C" d="M58.4,57.8c-0.7-1.7-2.7-2.5-4.4-1.8c-12.3,5.2-20.9,15.3-25.1,21.1v9.4c1.2,0,2.3-0.6,2.9-1.7
		c0.1-0.2,9.4-16.1,24.8-22.7C58.3,61.4,59.1,59.4,58.4,57.8z"/>
	<path fill="#FCC657" d="M54,24.2l-25.1,9.1L21,29.9c-1.9-0.8-3.8,1-3.1,2.9L23,46.9l44.5-16l-5.1-14.1c-0.7-1.9-3.3-2.1-4.3-0.3
		L54,24.2z"/>
	<path fill="#F0843B" d="M33.7,31.5l0.7-16.3c0.1-2.1,2.6-3,4-1.4l10.9,12.1L33.7,31.5z"/>
	<path fill="#A17B7C" d="M79.5,67.3c-1,0-2-0.5-2.7-1.3l-1.8-2.4c-1.1-1.5-0.8-3.6,0.6-4.7c1.5-1.1,3.6-0.8,4.7,0.6l1.8,2.4
		C83.9,64.1,82.3,67.3,79.5,67.3z"/>
</g>
</svg>
