<?xml version="1.0" encoding="utf-8"?>
<!-- Generator: Adobe Illustrator 24.3.0, SVG Export Plug-In . SVG Version: 6.00 Build 0)  -->
<svg version="1.1" id="Layer_1" xmlns="http://www.w3.org/2000/svg" xmlns:xlink="http://www.w3.org/1999/xlink" x="0px" y="0px"
	 viewBox="0 0 126 126" enable-background="new 0 0 126 126" xml:space="preserve">
<g>
	<path fill="#80CCE3" d="M60,85.4H69v15.5H60V85.4z"/>
	<path fill="#BBE1EF" d="M57,85.4h6v15.5h-6V85.4z"/>
	<path fill="#50C0E1" d="M75.1,97.9h-6L63,110l18.1-6C81.1,100.6,78.4,97.9,75.1,97.9z"/>
	<path fill="#80CCE3" d="M69,97.9H50.9c-3.3,0-6,2.7-6,6l18.1,6l12.1-6C75.1,100.6,72.4,97.9,69,97.9z"/>
	<path fill="#50C0E1" d="M69,82.4l-9.1-3l3,9.1h6c1.7,0,3-1.4,3-3S70.7,82.4,69,82.4z"/>
	<path fill="#80CCE3" d="M66,85.4c0-1.7-1.4-3-3-3l-3-3l-3,3c-1.7,0-3,1.4-3,3s1.4,3,3,3h6C64.7,88.5,66,87.1,66,85.4z"/>
	<path fill="#80CCE3" d="M69,13h-6v57.3h6c5,0,9.1-4.1,9.1-9.1V22.1C78.1,17.1,74,13,69,13z"/>
	<path fill="#BBE1EF" d="M72.1,61.3V22.1c0-5-4.1-9.1-9.1-9.1h-6c-5,0-9.1,4.1-9.1,9.1v39.2c0,5,4.1,9.1,9.1,9.1h6
		C68,70.3,72.1,66.3,72.1,61.3z"/>
	<path fill="#458DCB" d="M87.1,47.7h-9.1l-6-6l6-6h6L87.1,47.7z"/>
	<path fill="#33B0E6" d="M78.1,47.7H38.9l3-12.1h36.2V47.7z"/>
	<path fill="#80CCE3" d="M87.1,103.9h-6l9.1,9.1h4.4c0.9,0,1.7-0.9,1.5-1.8C95.2,107.1,91.5,103.9,87.1,103.9z"/>
	<path fill="#BBE1EF" d="M81.1,103.9H38.9c-4.4,0-8.1,3.1-8.9,7.3c-0.2,0.9,0.5,1.8,1.5,1.8h58.7C90.2,108,86.1,103.9,81.1,103.9z"
		/>
	<path fill="#BBE1EF" d="M84.1,35.6v25.7c0,8.3-6.8,15.1-15.1,15.1H57c-8.3,0-15.1-6.8-15.1-15.1V35.6h-4.5c-0.8,0-1.5,0.7-1.5,1.5
		v24.1c0,11.7,9.5,21.1,21.1,21.1H69c11.7,0,21.1-9.5,21.1-21.1V37.1c0-0.8-0.7-1.5-1.5-1.5H84.1z"/>
	<g>
		<circle fill="#80CCE3" cx="94.7" cy="41.7" r="4.5"/>
		<circle fill="#80CCE3" cx="31.3" cy="41.7" r="4.5"/>
	</g>
</g>
</svg>
