<?xml version="1.0" encoding="utf-8"?>
<!-- Generator: Adobe Illustrator 24.3.0, SVG Export Plug-In . SVG Version: 6.00 Build 0)  -->
<svg version="1.1" id="Layer_1" xmlns="http://www.w3.org/2000/svg" xmlns:xlink="http://www.w3.org/1999/xlink" x="0px" y="0px"
	 viewBox="0 0 126 126" enable-background="new 0 0 126 126" xml:space="preserve">
<g>
	<g>
		<polygon fill="#333333" points="77.2,59.3 55.2,91.3 49.6,91.3 42.1,83.8 38,88 47.2,97.2 58.3,97.2 82.1,62.6 		"/>
		<rect x="49" y="98.4" fill="#333333" width="5.9" height="14.6"/>
	</g>
	<path fill="#D4D4D4" d="M33.8,90.9h-7.6V79.4l21.4-14.3h5.9v9.8L45,81.2C44.2,86.7,39.5,90.9,33.8,90.9z"/>
	<path fill="#4B80C1" d="M46.2,96.3v5.5c0,3.4,2.8,6.3,6.3,6.3c3.4,0,6.3-2.8,6.3-6.3v-5.5H46.2z"/>
	<polygon points="60.9,93.4 82.1,62.6 77.2,59.3 60.9,83 	"/>
	<path fill="#75B84C" d="M109.2,49l-0.8-1.9c-2.7-6.6-6.5-12.6-11.5-17.7c-5-5.1-10.9-9.1-17.4-11.9l-0.2-0.1
		c-7.8-3.4-16.4-4.8-24.9-4.3c-7.1,0.5-13.9,2.3-20.2,5.4c-6.4,3.1-12,7.4-16.7,12.7L13,36.2v21c0,9.3,2.9,14.5,4.4,16.5v8.5h13
		l5.3-5.3l0.1-0.1c10.5-12,27-11.9,40.2-11.8c5,0,9.6,0.1,13.4-0.6c14-2.3,21.2-9.4,21.5-9.7l2.1-2.1L109.2,49z"/>
	<path fill="#63B34A" d="M109.2,49l-0.8-1.9c-2.7-6.6-6.5-12.6-11.5-17.7c-5-5.1-10.9-9.1-17.4-11.9l-0.2-0.1
		c-5.8-2.5-12.1-3.9-18.4-4.3v52.5c5.2-0.5,10.4-0.5,15.1-0.4c5,0,9.6,0.1,13.4-0.6c14-2.3,21.2-9.4,21.5-9.7l2.1-2.1L109.2,49z"/>
	<path fill="#4B80C1" d="M74,32.2l-0.9-0.3c-8.2-2.7-16.9-3.2-25.4-1.5c-8.1,1.7-15.6,5.3-21.9,10.6H13v5.9h15.1l0.8-0.7
		C40.4,36,56.7,32.6,71.3,37.5l0.9,0.3c8.4,2.8,15.6,8,20.9,15.1l0.1,0.1c0,0,3,3.8,5.7,9.2c2-0.8,3.8-1.6,5.3-2.4
		c-2.8-5.8-6-9.9-6.4-10.4C91.7,41.3,83.5,35.4,74,32.2z"/>
	<path fill="#2055A2" d="M97.7,49.3c-6-8-14.2-13.9-23.7-17.1l-0.9-0.3c-4-1.3-8.1-2.1-12.2-2.4v5.9c3.5,0.3,7,1,10.4,2.1l0.9,0.3
		c8.4,2.8,15.6,8,20.9,15.1l0.1,0.1c0,0,3,3.8,5.7,9.2c2-0.8,3.8-1.6,5.3-2.4C101.3,53.9,98.1,49.8,97.7,49.3z"/>
</g>
</svg>
