<?xml version="1.0" encoding="utf-8"?>
<!-- Generator: Adobe Illustrator 24.3.0, SVG Export Plug-In . SVG Version: 6.00 Build 0)  -->
<svg version="1.1" id="Layer_1" xmlns="http://www.w3.org/2000/svg" xmlns:xlink="http://www.w3.org/1999/xlink" x="0px" y="0px"
	 viewBox="0 0 126 126" enable-background="new 0 0 126 126" xml:space="preserve">
<g>
	<path fill="#C2C5C6" d="M85.6,61.9l-0.2-0.6H50.9l-0.2,0.6c-3.2,8.6-8.9,16.1-16.2,21.7l-1.1,0.8C32.5,85,32,86.1,32,87.1v5.2h72.4
		v-5.2c0-1.1-0.5-2.1-1.4-2.8l-1.1-0.8C94.5,78,88.9,70.5,85.6,61.9L85.6,61.9z"/>
	<path fill="#E8EDF1" d="M37.1,85.4h-6.9L32,13h3.4L37.1,85.4z"/>
	<path fill="#D9DBDD" d="M45.8,92.3H21.6c0-3.8,3.1-6.9,6.9-6.9h10.3C42.7,85.4,45.8,88.5,45.8,92.3z"/>
	<path fill="#C2C5C6" d="M33.7,113c-1.9,0-3.4-1.5-3.4-3.4V92.3h6.9v17.2C37.1,111.5,35.6,113,33.7,113z"/>
	<path fill="#D9DBDD" d="M37.1,111.3v-3.4c2.9,0,5.2-2.3,5.2-5.2s-2.3-5.2-5.2-5.2V94c4.8,0,8.6,3.9,8.6,8.6S41.9,111.3,37.1,111.3z
		"/>
	<path fill="#D9DBDD" d="M88.2,67.6C84.6,74.3,77.6,78.5,70,78.5h-3.7c-7.6,0-14.6-4.2-18.2-10.9c1-1.9,1.9-3.8,2.6-5.8l0.2-0.6
		h34.5l0.2,0.6C86.4,63.8,87.2,65.8,88.2,67.6L88.2,67.6z"/>
	<path fill="#E8EDF1" d="M70,68.2h-3.7c-10.7,0-19.6-8.1-20.6-18.8l-1.3-13.8c-1.1-11.4,7.3-21.5,18.7-22.5C63.7,13,64.4,13,65,13
		h6.3C82.7,13,92,22.3,92,33.7c0,0.6,0,1.3-0.1,1.9l-1.3,13.8C89.6,60,80.7,68.2,70,68.2z"/>
	<path fill="#757C80" d="M85.9,34.8l0,0.6l-0.3,3.4L85,45.8l-0.2,2.9c0,0.2,0,0.4-0.1,0.6c-0.9,6.9-6.7,12.1-13.7,12.1h-5.7
		c-7,0-12.8-5.2-13.7-12.1c0-0.2,0-0.4-0.1-0.6l-0.2-2.9l-0.3-3.4l-0.3-3.4l-0.3-3.4l0-0.6c-0.1-1-0.1-1.9,0.1-2.9
		c0.1-1.2,0.4-2.3,0.9-3.4c2.1-5.2,7.2-8.6,12.8-8.6h7.9c5.6,0,10.7,3.4,12.8,8.6c0.4,1.1,0.8,2.3,0.9,3.4
		C86,32.9,86,33.9,85.9,34.8z"/>
	<path fill="#464C4F" d="M66.4,19.9h3.4v41.4h-3.4V19.9z"/>
	<g>
		<path fill="#505659" d="M84.9,28.5H51.4c0.5-1.2,1.2-2.4,2-3.4h29.5C83.8,26.1,84.4,27.3,84.9,28.5L84.9,28.5z"/>
		<path fill="#505659" d="M85.9,34.8l0,0.6H50.5l0-0.6c-0.1-1-0.1-1.9,0.1-2.9h35.3C86,32.9,86,33.9,85.9,34.8z"/>
		<path fill="#505659" d="M85.6,38.9l-0.3,3.4H51.1l-0.3-3.4H85.6z"/>
		<path fill="#505659" d="M85,45.8l-0.2,2.9c0,0.2,0,0.4-0.1,0.6h-33c0-0.2,0-0.4-0.1-0.6l-0.2-2.9H85z"/>
		<path fill="#505659" d="M83.8,52.7c-0.5,1.2-1.2,2.4-2,3.4H54.6c-0.8-1-1.5-2.2-2-3.4c0,0,0.1,0,0.1,0H83.8z"/>
	</g>
</g>
</svg>
