<?xml version="1.0" encoding="utf-8"?>
<!-- Generator: Adobe Illustrator 24.3.0, SVG Export Plug-In . SVG Version: 6.00 Build 0)  -->
<svg version="1.1" id="Layer_1" xmlns="http://www.w3.org/2000/svg" xmlns:xlink="http://www.w3.org/1999/xlink" x="0px" y="0px"
	 viewBox="0 0 126 126" enable-background="new 0 0 126 126" xml:space="preserve">
<g>
	<path fill="#E53951" d="M110.2,51.2h-10.1C96,31,77.8,16,56.9,16c-2,0-3.9,0.1-5.9,0.4c-21.6,2.9-38.2,21.3-38.2,43.7v11.7
		c0,1,0.5,1.9,1.3,2.5l16.3,10.9v4.1c0,11.3,9.1,20.7,20.4,20.8c11.4,0.1,20.7-9.2,20.7-20.6V63h41.5v-8.8
		C113.1,52.6,111.8,51.2,110.2,51.2z"/>
	<path fill="#C3D1DC" d="M68.7,63c-1.6,0-2.9,1.3-2.9,2.9s1.3,2.9,2.9,2.9h9.5l1.7,5.9H68.7c-1.6,0-2.9,1.3-2.9,2.9s1.3,2.9,2.9,2.9
		h12.9l1.7,5.9H68.7c-1.6,0-2.9,1.3-2.9,2.9s1.3,2.9,2.9,2.9h16.2l4.4,15.5c0.4,1.3,1.5,2.1,2.8,2.1h18c1.6,0,2.9-1.3,2.9-2.9v-47
		L68.7,63z M107.3,104.1H94.4L91,92.4h16.2V104.1z M107.3,86.5H89.4l-1.7-5.9h19.6V86.5z M107.3,74.7H86l-1.7-5.9h22.9V74.7z"/>
	<path fill="#AE2639" d="M113.1,54.2V63H71.6v26.4c0,11.3-9.2,20.6-20.6,20.6V16.4c1.9-0.3,3.9-0.4,5.9-0.4
		c20.9,0,39.1,15,43.2,35.2h10.1C111.8,51.2,113.1,52.6,113.1,54.2z"/>
	<path fill="#E95569" d="M51.1,80.6c-4.9,0-8.8,3.9-8.8,8.8c0,4.9,3.9,8.8,8.8,8.8s8.8-3.9,8.8-8.8C59.9,84.6,55.9,80.6,51.1,80.6z"
		/>
	<path fill="#CC2E43" d="M59.9,89.4c0,4.9-3.9,8.8-8.8,8.8V80.6C55.9,80.6,59.9,84.6,59.9,89.4z"/>
</g>
</svg>
