<?xml version="1.0" encoding="utf-8"?>
<!-- Generator: Adobe Illustrator 24.3.0, SVG Export Plug-In . SVG Version: 6.00 Build 0)  -->
<svg version="1.1" id="Layer_1" xmlns="http://www.w3.org/2000/svg" xmlns:xlink="http://www.w3.org/1999/xlink" x="0px" y="0px"
	 viewBox="0 0 126 126" enable-background="new 0 0 126 126" xml:space="preserve">
<g id="g3010" transform="translate(-253.06906,-187.79274)">
	<g id="g2826" transform="matrix(2.6829652,0,0,-2.6829652,-1160.0479,569.40838)">
		<g id="g3016" transform="matrix(3.0279789,0,0,3.0279789,-1773.2259,-155.95884)">
			<g id="g2880" transform="translate(759.558,98.48)">
				<path id="path2882" fill="#F2CE36" d="M1.6-5.8v-3.9h1.2v1.4h0.9L4-7.4H2.8v0.8h1.5l0.3,0.9H1.6"/>
			</g>
			<g id="g2884" transform="translate(777.985,98.48)">
				<path id="path2886" fill="#F2CE36" d="M-13.4-5.8l0-3.9h1.2v3.9H-13.4"/>
			</g>
			<g id="g2888" transform="translate(810.749,84.124)">
				<path id="path2890" fill="#F2CE36" d="M-40.1,5.9l0.5,1.6l0.5-1.6H-40.1z M-39,8.6h-1.3l-1.4-3.9h1.2l0.2,0.5h1.4l0.2-0.5h1.2
					L-39,8.6"/>
			</g>
			<g id="g2892" transform="translate(789.225,98.48)">
				<path id="path2894" fill="#F2CE36" d="M-22.6-5.8v-3.9h1.2v1.4h0.9l0.3,0.9h-1.2v0.8h1.5l0.3,0.9H-22.6"/>
			</g>
			<g id="g2896" transform="translate(823.148,96.207)">
				<path id="path2898" fill="#F2CE36" d="M-50.2-3.9L-50.2-3.9c0.1,0,0.1,0,0.1,0c0,0,0,0,0,0c0,0,0,0,0,0c0,0,0,0,0,0c0,0,0,0,0,0
					c0,0,0,0,0,0c0,0,0,0,0,0c0,0,0,0,0,0h-0.1V-3.9z M-50.3-3.7h0.2c0.1,0,0.1,0,0.1,0c0,0,0-0.1,0-0.1c0,0,0-0.1,0-0.1
					c0,0-0.1,0-0.1,0l0.1-0.2H-50L-50.2-4h-0.1v-0.2h-0.1V-3.7z M-50.1-4.3c0,0,0.1,0,0.1,0c0,0,0.1,0,0.1,0.1c0,0,0.1,0.1,0.1,0.1
					c0,0,0,0.1,0,0.1c0,0.1,0,0.1,0,0.1c0,0,0,0.1-0.1,0.1c0,0-0.1,0.1-0.1,0.1c0,0-0.1,0-0.1,0s-0.1,0-0.1,0c0,0-0.1,0-0.1-0.1
					c0,0-0.1-0.1-0.1-0.1c0,0,0-0.1,0-0.1c0-0.1,0-0.1,0-0.1c0,0,0-0.1,0.1-0.1c0,0,0.1-0.1,0.1-0.1C-50.2-4.3-50.2-4.3-50.1-4.3z
					 M-50.1-4.4c-0.1,0-0.1,0-0.2,0c-0.1,0-0.1,0.1-0.1,0.1c0,0-0.1,0.1-0.1,0.1c0,0.1,0,0.1,0,0.2c0,0.1,0,0.1,0,0.2
					c0,0.1,0.1,0.1,0.1,0.1c0,0,0.1,0.1,0.1,0.1c0.1,0,0.1,0,0.2,0c0.1,0,0.1,0,0.2,0c0.1,0,0.1-0.1,0.1-0.1c0,0,0.1-0.1,0.1-0.1
					c0-0.1,0-0.1,0-0.2c0-0.1,0-0.1,0-0.2c0-0.1-0.1-0.1-0.1-0.1c0,0-0.1-0.1-0.1-0.1C-50-4.4-50.1-4.4-50.1-4.4"/>
			</g>
		</g>
	</g>
</g>
</svg>
