<?xml version="1.0" encoding="utf-8"?>
<!-- Generator: Adobe Illustrator 24.3.0, SVG Export Plug-In . SVG Version: 6.00 Build 0)  -->
<svg version="1.1" id="Layer_1" xmlns="http://www.w3.org/2000/svg" xmlns:xlink="http://www.w3.org/1999/xlink" x="0px" y="0px"
	 viewBox="0 0 126 126" enable-background="new 0 0 126 126" xml:space="preserve">
<g>
	<path fill="#9963A5" d="M89.7,69.1c-4-4-9.2-6.4-14.8-6.8v-3.6l0.1,0c0.3,0,0.5-0.1,0.8-0.2c4.6-1.5,11-4.7,11-13.3
		C86.8,33.3,75,33.3,75,33.3H61.2c-2.1,0-4.2-0.3-6.1-1l-5.3-1.8c-0.9-0.3-1.7-1-2-2c-0.4-0.9-0.3-2,0.2-2.8l3-5.5
		c1.1-2.6,0-5.5-2.6-6.7c-2.6-1.1-5.5,0-6.7,2.6l-4.7,9.2c-1.3,2.5-1.4,5.4-0.3,8c1,2.6,3.1,4.6,5.8,5.5l12.4,4.9
		c1.9,0.6,3.2,2.3,3.4,4.3l1.5,14.4c-6.1,0.1-12,2.6-16.3,6.9c-0.4,0.4-0.6,1-0.4,1.6c0.2,0.6,0.6,1,1.2,1.2l5.4,1.7
		c0.5,0.2,1,0.3,1.5,0.3c-1,1.6-1.4,3.3-1.4,5.2C49.5,89.3,61.4,91,61.4,91v8.5c0,2.8,2.3,5.1,5.1,5.1c2.8,0,5.1-2.3,5.1-5.1V71.6
		c1,0,2,0.2,3,0.5l3.4,1.3c1.8,0.7,3.7,0.7,5.5,0.2l5.4-1.7c0.6-0.2,1-0.6,1.2-1.2C90.3,70.1,90.2,69.5,89.7,69.1z M61.4,71.6
		c0.4,0,0.8,0,1.3,0.1C62.2,71.6,61.8,71.6,61.4,71.6z M61.4,71.6c-0.5,0-1,0-1.5,0.1C60.4,71.7,60.9,71.6,61.4,71.6z M59.9,71.7
		c-0.5,0.1-1,0.2-1.5,0.4C58.9,72,59.4,71.8,59.9,71.7z M50.9,73.9c0.4,0,0.7,0.1,1.1,0.1C51.7,74,51.3,74,50.9,73.9L50.9,73.9z
		 M53.8,73.8c0.4-0.1,0.8-0.2,1.2-0.3C54.6,73.6,54.2,73.7,53.8,73.8L53.8,73.8z M52.5,74c0.3,0,0.5,0,0.8-0.1
		C53.1,73.9,52.8,74,52.5,74L52.5,74z M70.3,71.7c0.4-0.1,0.8-0.1,1.3-0.1C71.1,71.6,70.7,71.6,70.3,71.7z"/>
	<path fill="#9963A5" d="M76.7,23.2c0,5.6-4.6,10.2-10.2,10.2c-5.6,0-10.2-4.6-10.2-10.2c0-5.6,4.6-10.2,10.2-10.2
		C72.1,13,76.7,17.6,76.7,23.2z"/>
	<path fill="#445C71" d="M58.4,72.2L55,73.5c-1.3,0.5-2.7,0.7-4,0.5c-0.9,1.6-1.4,3.3-1.4,5.2C49.5,89.3,61.4,91,61.4,91V71.6
		C60.4,71.6,59.4,71.8,58.4,72.2z"/>
	<path fill="#A4B3B2" d="M66.5,113c-0.9,0-1.7-0.8-1.7-1.7v-6.8c0-0.9,0.8-1.7,1.7-1.7s1.7,0.8,1.7,1.7v6.8
		C68.2,112.2,67.4,113,66.5,113z"/>
	<path fill="#394F63" d="M61.4,82.5c-1.8-0.1-3.4-0.9-4.6-2.2c-0.6-0.7-0.6-1.7,0-2.4s1.7-0.7,2.4,0c0.6,0.6,1.4,1.1,2.2,1.2
		c0.9,0,1.6,0.8,1.6,1.7C63.1,81.8,62.3,82.5,61.4,82.5z"/>
	<path fill="#C1ACD3" d="M63.9,72c-1.8-0.6-3.8-0.5-5.5,0.2L55,73.5c-1.8,0.7-3.7,0.7-5.5,0.2L44,71.9c-0.6-0.2-1-0.6-1.2-1.2
		c-0.2-0.6,0-1.2,0.4-1.6c6.2-6.5,14.7-7.1,19.6-6.9c2.5,0.1,4.9,0.1,7.4,0c4.8-0.2,13.4,0.4,19.6,6.9c0.4,0.4,0.6,1,0.4,1.6
		c-0.2,0.6-0.6,1-1.2,1.2l-5.4,1.7c-1.8,0.6-3.8,0.5-5.5-0.2l-3.4-1.3c-1.8-0.7-3.7-0.7-5.5-0.2C67.4,72.5,65.6,72.5,63.9,72z"/>
	<path fill="#4F7080" d="M69,72c-1.7,0.5-3.4,0.5-5.1,0c-0.8-0.3-1.7-0.4-2.5-0.4v27.8c0,2.8,2.3,5.1,5.1,5.1s5.1-2.3,5.1-5.1V71.6
		C70.7,71.6,69.8,71.7,69,72z"/>
	<path fill="#FCDCBA" d="M76.7,23.2c0,5.6-4.6,10.2-10.2,10.2c-5.6,0-10.2-4.6-10.2-10.2c0-5.6,4.6-10.2,10.2-10.2
		C72.1,13,76.7,17.6,76.7,23.2z"/>
	<path fill="#A473AE" d="M75,33.3H61.2c-2.1,0-4.2-0.3-6.1-1l-5.3-1.8c-0.9-0.3-1.7-1-2-2c-0.4-0.9-0.3-2,0.2-2.8l3-5.5
		c1.1-2.6,0-5.5-2.6-6.7c-2.6-1.1-5.5,0-6.7,2.6l-4.7,9.2c-1.3,2.5-1.4,5.4-0.3,8c1,2.6,3.1,4.6,5.8,5.5l12.4,4.9
		c1.9,0.6,3.2,2.3,3.4,4.3l1.5,14.4c1.2-0.1,2.3-0.1,3.3,0c2.5,0.1,4.9,0.1,7.4,0c1.6-0.1,3.2,0,4.8,0.1v-3.6
		c4.6-1.4,11.9-4.4,11.9-13.6C86.8,33.3,75,33.3,75,33.3z"/>
	<path fill="#9963A5" d="M75,58.8c-0.9,0-1.7-0.8-1.7-1.7V46.9c0-0.9,0.8-1.7,1.7-1.7c0.9,0,1.7,0.8,1.7,1.7v10.2
		C76.7,58,75.9,58.8,75,58.8z"/>
</g>
</svg>
