<?xml version="1.0" encoding="utf-8"?>
<!-- Generator: Adobe Illustrator 24.3.0, SVG Export Plug-In . SVG Version: 6.00 Build 0)  -->
<svg version="1.1" id="Layer_1" xmlns="http://www.w3.org/2000/svg" xmlns:xlink="http://www.w3.org/1999/xlink" x="0px" y="0px"
	 viewBox="0 0 126 126" enable-background="new 0 0 126 126" xml:space="preserve">
<g>
	<g id="design">
		<circle fill="#E4610E" cx="63" cy="63" r="50"/>
		<defs>
			<filter id="Adobe_OpacityMaskFilter" filterUnits="userSpaceOnUse" x="23.2" y="19.6" width="80" height="52">
				<feColorMatrix  type="matrix" values="1 0 0 0 0  0 1 0 0 0  0 0 1 0 0  0 0 0 1 0"/>
			</filter>
		</defs>
		<mask maskUnits="userSpaceOnUse" x="23.2" y="19.6" width="80" height="52" id="mask_1_">
			<g filter="url(#Adobe_OpacityMaskFilter)">
			</g>
		</mask>
		<g mask="url(#mask_1_)">
			
				<linearGradient id="SVGID_1_" gradientUnits="userSpaceOnUse" x1="63.185" y1="132.04" x2="63.185" y2="51.14" gradientTransform="matrix(1 0 0 -1 0 128)">
				<stop  offset="0" style="stop-color:#FFFFFF;stop-opacity:0.4"/>
				<stop  offset="1.000000e-02" style="stop-color:#FFFFFF;stop-opacity:0.39"/>
				<stop  offset="0.32" style="stop-color:#FFFFFF;stop-opacity:0.22"/>
				<stop  offset="0.6" style="stop-color:#FFFFFF;stop-opacity:0.1"/>
				<stop  offset="0.84" style="stop-color:#FFFFFF;stop-opacity:3.000000e-02"/>
				<stop  offset="1" style="stop-color:#FFFFFF;stop-opacity:0"/>
			</linearGradient>
			<path fill="url(#SVGID_1_)" d="M63.2,19.6c-22.1,0-40,15.7-40,35.1l0,0c0.1,3.1,1.8,5.8,4.5,7.3c10.8,6.3,23,9.6,35.5,9.5
				c12.5,0.1,24.7-3.2,35.5-9.5c2.7-1.5,4.4-4.2,4.5-7.3l0,0C103.2,35.4,85.3,19.6,63.2,19.6z"/>
		</g>
		<path opacity="0.2" fill="#868686" enable-background="new    " d="M112.2,62.8c0,2.2-0.1,4.4-0.4,6.5c0,0.3-0.1,0.7-0.1,1
			c-1.1,6.9-3.6,13.4-7.4,19.2c-0.2,0.3-0.4,0.6-0.6,1c-4.3,6.3-10.1,11.5-16.8,15.2l0,0c-0.5,0.3-1,0.5-1.4,0.8
			c-6.9,3.5-14.6,5.4-22.4,5.4c-0.7,0-1.3,0-2,0c-1.7-0.1-3.3-0.2-5-0.4l0,0c-9.2-1.3-17.8-5.2-24.8-11.2c-0.5-0.4-1-0.9-1.5-1.4
			c-2.1-2-4.1-4.1-5.8-6.4c-0.3-0.3-0.5-0.7-0.8-1c-2.6-3.6-4.7-7.6-6.2-11.8c3.2,1.2,6.5,2,9.8,2.5l0,0c1.7,0.3,3.3,0.4,5,0.5
			c0.7,0,1.3,0,2,0c7.8,0,15.4-1.8,22.3-5.4c0.5-0.2,1-0.5,1.5-0.8l0,0c6.7-3.7,12.4-9,16.8-15.3l0.6-1c3.8-5.8,6.3-12.4,7.3-19.2
			c0.1-0.3,0.1-0.7,0.2-1c0.3-2.2,0.4-4.3,0.4-6.5c0-5.8-1-11.5-3-16.9C99.3,23.7,112.2,42.2,112.2,62.8z"/>
		<path opacity="0.2" fill="#868686" enable-background="new    " d="M112.2,62.8c0,2.2-0.1,4.4-0.4,6.5c0,0.3-0.1,0.7-0.1,1
			c-1.1,6.9-3.6,13.4-7.4,19.2c-0.2,0.3-0.4,0.6-0.6,1c-4.3,6.3-10.1,11.5-16.8,15.2l0,0c-0.5,0.3-1,0.5-1.4,0.8
			c-6.9,3.5-14.6,5.4-22.4,5.4c-0.7,0-1.3,0-2,0c-1.7-0.1-3.3-0.2-5-0.4l0,0c-9.2-1.3-17.8-5.2-24.8-11.2c-0.5-0.4-1-0.9-1.5-1.4
			c-2.1-1.9-4.1-4.1-5.8-6.4c6.6,5,14.4,8.3,22.7,9.4l0,0c1.7,0.2,3.3,0.4,5,0.4c0.7,0,1.3,0.1,2,0.1c7.8,0,15.5-1.8,22.4-5.3
			l1.4-0.8l0,0c6.7-3.7,12.4-9,16.7-15.3c0.2-0.3,0.4-0.6,0.6-1c3.8-5.8,6.3-12.4,7.4-19.2c0.1-0.3,0.1-0.7,0.2-1
			c0.3-2.2,0.4-4.3,0.4-6.5c0-10.7-3.5-21.2-10-29.7C105,33,112.2,47.5,112.2,62.8z"/>
		<path d="M18,42.7c-0.8,1.7-1.7,3.3-2.3,5.1c0-0.2,0.1-0.3,0.2-0.5c0.8-2.5,1.8-4.8,3-7.1c0.6-1.1,1.2-2.2,1.9-3.3
			C20.6,37.1,20.6,37.1,18,42.7"/>
		<path d="M35.1,42.7c-1.7,4.7-7.3,6.8-8.8,3.4c-1.4-3.1,2.1-9,6.3-9.3C35.8,37.1,36,40.4,35.1,42.7"/>
		<path d="M98.9,42.7c1.1,4.1-1.7,6.4-5.4,4.4c-4.8-2.6-5.4-9.2-1.8-10.2c0.3-0.1,0.6-0.1,0.8-0.1C95.9,37,98.3,40.4,98.9,42.7"/>
		<path d="M18.5,84.5c2,4.4,2,4.4,2.2,4.7c-0.7-1.1-1.3-2.2-1.9-3.3c-1.2-2.3-2.2-4.7-3-7.1l-0.1-0.4C16.5,80.4,17.6,82.4,18.5,84.5
			"/>
		<path d="M35.5,84.5c0.7,3.6-1.8,6.2-5.5,3.9c-4.3-2.7-5.4-9-1.9-10c0.3-0.1,0.6-0.1,0.9-0.1C32.2,78.4,34.9,81.6,35.5,84.5"/>
		<path d="M98.5,84.5c-1.9,4.3-7.3,6.6-8.8,2.9c-1.4-3.3,1.8-8.8,6.3-9.1C99.6,78.5,99.6,82,98.5,84.5"/>
		<path d="M20,63.7c-0.2,4.2-2.1,6.9-3.7,5.2c-2.3-2.3-2.1-11.8,1-12.2C19.2,56.9,20.1,60.4,20,63.7"/>
		<path d="M34.2,26c-3.3,3.2-6,4.5-6,3.5c-0.1-1.7,6.3-7.2,8.8-7.5C38.2,22.2,34.3,26,34.2,26"/>
		<path d="M35.1,100.8c0.5,0.5,3,3.3,2,3.3c-2.4,0-9.9-6.7-8.6-7.8c0.1-0.1,0.2-0.1,0.3-0.1C30.2,96.4,33.1,98.7,35.1,100.8"/>
		<path d="M79.2,100.8c-2.4,3.4-7.9,4.7-8.5,1.1c-0.4-2.4,2.2-5.5,6.2-5.7C80.2,96.4,80.7,98.7,79.2,100.8"/>
		<path d="M54.3,100.8c0.6,3-2.5,4.5-6.3,2c-3.5-2.3-4-5.9-0.9-6.5c0.3-0.1,0.6-0.1,0.9-0.1C51.5,96.4,53.9,98.7,54.3,100.8"/>
		<path d="M69.1,42.7c-0.3,5-8.4,7-12.2,3c-3-3.2-0.6-8.6,5.5-8.9C67.2,37,69.2,40.4,69.1,42.7"/>
		<path d="M69,84.5c-1,5.2-9.1,6.5-12.5,2c-2.3-3.1-0.6-8,5.7-8.2C67.7,78.4,69.5,82,69,84.5"/>
		<path d="M49.6,63.7c-0.6,5.5-7.9,7.7-11.5,3.4c-2.2-2.7-1.8-6.8,0.9-9c1.2-0.9,2.6-1.4,4.1-1.4C48.1,56.9,50,60.9,49.6,63.7"/>
		<path d="M54.1,26c-1.5,3.6-7.9,5.2-8.9,2.2c-0.9-2.4,3-6.1,6.5-6.3C54.5,22.1,54.8,24.4,54.1,26"/>
		<path d="M88,63.7c-0.6,5.5-7.8,7.7-11.6,3.4c-3.3-3.8-1.1-10.1,5.1-10.4C86.7,56.9,88.3,61.1,88,63.7"/>
		<path d="M79.7,26c1.4,3-1.6,4.5-4.9,3.5c-4.3-1.5-5.4-6-2.7-7.2c0.4-0.2,0.9-0.2,1.3-0.2C76.1,22.2,78.5,23.7,79.7,26"/>
		<path d="M110.4,47.8c-1.9-3.6-3.6-7.2-5.1-11C107.5,40.3,109.2,44,110.4,47.8"/>
		<path d="M105.3,89.2c1.5-3.8,3.2-7.4,5.1-11C109.2,82.1,107.5,85.8,105.3,89.2"/>
		<path d="M111,63.7c-0.2,4.6-2.3,7.1-4.2,4.9c-2.5-2.8-2-11.6,1.4-11.9C110.5,56.9,111.1,61.1,111,63.7"/>
		<path d="M95.1,26c2.1,2,3,3.8,1.9,3.8s-3.2-1.5-4.9-3C90,24.9,88,22.5,88.5,22c0.1,0,0.2-0.1,0.2-0.1C90,22.1,92.9,23.9,95.1,26"
			/>
		<path d="M94.2,100.8c-2.6,2.3-5.8,3.9-5.8,3c0-1.1,5.7-7.3,8.6-7.6C98.3,96.4,96.5,98.8,94.2,100.8"/>
		<path d="M64.3,112.4c4.8,0,4.8,0,5.2-0.1c-1.3,0.2-2.5,0.3-3.8,0.4c-2.6,0.1-5.2,0.1-7.8-0.2h-0.5C59.7,112.7,62,112.5,64.3,112.4
			"/>
		<path d="M68.7,13.6c-4,0.3-8.1,0.3-12.1,0.1C60.6,13.2,64.7,13.1,68.7,13.6"/>
	</g>
</g>
</svg>
