<?xml version="1.0" encoding="utf-8"?>
<!-- Generator: Adobe Illustrator 24.3.0, SVG Export Plug-In . SVG Version: 6.00 Build 0)  -->
<svg version="1.1" id="Layer_1" xmlns="http://www.w3.org/2000/svg" xmlns:xlink="http://www.w3.org/1999/xlink" x="0px" y="0px"
	 viewBox="0 0 126 126" enable-background="new 0 0 126 126" xml:space="preserve">
<g>
	<g>
		<ellipse fill="#EBEBEB" cx="63" cy="62.7" rx="49.8" ry="49.8"/>
	</g>
	<g>
		<path fill="#CDCDCC" d="M89,20.7c7.2,8.7,11.6,19.8,11.6,32c0,27.5-22.3,49.8-49.8,49.8c-9.5,0-18.3-2.6-25.9-7.2
			c9.2,10.9,22.8,17.8,38.1,17.8c27.5,0,49.8-22.3,49.8-49.8C112.8,45.3,103.3,29.5,89,20.7z"/>
	</g>
	<g>
		<g>
			<path fill="#868582" d="M60.8,110.4l-0.1-0.6c0,0,2.1-0.3,4.5-2.4c2.3-2,5.3-5.9,7-13.9c3.6-17-0.8-30.6-0.8-30.7l0.6-0.2
				c0,0.1,4.5,13.8,0.8,31c-1.7,8.2-4.9,12.3-7.2,14.3C63,110.1,60.9,110.4,60.8,110.4z"/>
		</g>
	</g>
	<g>
		<g>
			<path fill="#868582" d="M109.5,72.9c-6.1-15.3-16.4-22.4-24-25.8c-8.3-3.5-15-3.5-15.1-3.5V43c0.1,0,7-0.1,15.4,3.5
				c4.9,2.1,9.3,5,13.1,8.8c4.7,4.6,8.6,10.5,11.3,17.3L109.5,72.9z"/>
		</g>
	</g>
	<g>
		<g>
			<path fill="#868582" d="M71.5,42l-0.5-0.4c2.1-2.8,5.5-8.6,8.9-14.1c2.1-3.5,4.1-6.8,5.6-9.3l0.5,0.3c-1.5,2.4-3.5,5.7-5.6,9.3
				C77,33.3,73.6,39,71.5,42z"/>
		</g>
	</g>
	<g>
		<g>
			<path fill="#868582" d="M68.3,42.6c0-0.1-3.2-5.7-9.6-10.6c-5.8-4.4-15.6-9.1-29.3-5.9l-0.1-0.6c6.1-1.4,12-1.4,17.5,0
				c4.4,1.1,8.6,3.1,12.3,6c6.4,4.9,9.7,10.7,9.7,10.7L68.3,42.6z"/>
		</g>
	</g>
	<g>
		<g>
			<path fill="#868582" d="M21.1,89.3l-0.6-0.1c6.9-35.4,33.2-37.9,44.5-39c1.2-0.1,2.3-0.2,3.1-0.3l0.1,0.6
				c-0.8,0.1-1.9,0.2-3.1,0.3C53.9,51.8,28,54.3,21.1,89.3z"/>
		</g>
	</g>
	<g>
		<polygon fill="#373735" points="80.1,27.8 57,30.3 52.1,53 72.3,64.6 89.6,49.1 		"/>
	</g>
	<g>
		<path fill="#373735" d="M23.2,32.8l13.4-7.9v-4.4C31.8,23.6,26.7,28.3,23.2,32.8z"/>
	</g>
	<g>
		<path fill="#373735" d="M76.7,14.8l7.2,6.4l9.9,2.3c0,0-4-3.3-6.4-4.8C82.9,16.1,76.7,14.8,76.7,14.8z"/>
	</g>
	<g>
		<g>
			<path fill="#868582" d="M57.8,105.4c-14.1,0-27.1-12.8-29.5-16l0.5-0.4c2.4,3.1,15.2,15.7,29,15.7V105.4z"/>
		</g>
	</g>
	<g>
		<g>
			<path fill="#868582" d="M89.1,100.9l-0.3-0.5c5.7-3.8,10.2-9,13.1-15.3l0.5,0.3C99.3,91.8,94.9,97,89.1,100.9z"/>
		</g>
	</g>
	<g>
		<g>
			<path fill="#868582" d="M110.1,62.2l-0.6-0.1c1.3-5.1,0.1-12.9-3.3-21.2c-2.9-7-7.7-12.9-9.1-14.3l0,0c1.8,1.5,6.6,6.9,9.6,14.1
				C110.2,49,111.4,56.9,110.1,62.2z"/>
		</g>
	</g>
	<g>
		<g>
			<path fill="#868582" d="M16.7,66.1c-2-10-0.1-25.3,6-32.7l0,0c-2.7,3.2-4.6,9-5.6,15.3c-0.9,5.9-0.9,12.2,0.2,17.3L16.7,66.1z"/>
		</g>
	</g>
	<g>
		<path fill="#373735" d="M23.4,93.6l9.5-0.3l-2.4-27.2l-14.3-3.9l-3,3.9C13.3,75.5,17.8,88,23.4,93.6z"/>
	</g>
	<g>
		<path fill="#373735" d="M51.1,103.9l5.4,8.3c2.1,0.3,4.2,0.4,6.4,0.4c9.1,0,17.5-2.4,24.9-6.6l3.1-6.6l-18-10L51.1,103.9z"/>
	</g>
	<g>
		<path fill="#373735" d="M99.9,89.3h5.2c4.8-7.6,7.6-16.8,7.6-26.6c0-0.2,0-2.5,0-2.7l-2.4-2.1l-7.6,1.9L99.9,89.3z"/>
	</g>
	<g opacity="0.55">
		<path fill="#FFFFFF" d="M35.4,30.6c-4.5,4.7-7.3,11.2-7.1,17.7c0.1,3.5,1.2,7.1,3.6,9.6c2.5,2.4,6.5,3.4,9.7,1.7
			c1.8-1,3-2.8,4.1-4.6c2.1-3.6,3.6-7.5,6.4-10.7c4.1-4.5,10.5-6.7,14.4-11.5c1.6-2,2.8-4.7,1.8-7c-1.9-4.7-11.8-5.5-16.1-4.9
			C46.2,21.7,39.5,26.2,35.4,30.6z"/>
	</g>
</g>
</svg>
