<?xml version="1.0" encoding="utf-8"?>
<!-- Generator: Adobe Illustrator 24.3.0, SVG Export Plug-In . SVG Version: 6.00 Build 0)  -->
<svg version="1.1" id="Layer_1" xmlns="http://www.w3.org/2000/svg" xmlns:xlink="http://www.w3.org/1999/xlink" x="0px" y="0px"
	 viewBox="0 0 126 126" enable-background="new 0 0 126 126" xml:space="preserve">
<g>
	<circle fill="#FCD648" cx="63" cy="63" r="50"/>
	<path fill="#F9BE3F" d="M110.8,77.7l-10.4-10.4l-12.7,9.3L62.6,51.5l-10,15.3L31.8,45.9L25.4,78l34.9,34.9c0.9,0,1.8,0.1,2.7,0.1
		C85.5,113,104.5,98.2,110.8,77.7z"/>
	<polygon fill="#D13135" points="32.7,57.1 55.4,51.5 62.6,51.5 68.5,63.9 33.5,61.8 	"/>
	<polygon fill="#B2202B" points="62.9,52.1 62.9,63.6 68.5,63.9 	"/>
	<path fill="#E95454" d="M90.4,64.2c-1.2-0.4-2.5-0.6-3.8-0.7l-15.9-0.8l-34.1-3.5l-4.9-13.2h-6.9v23.8h4.9v6.7h70.7v-9.1L90.4,64.2
		z"/>
	<path fill="#D13135" d="M100.4,67.4l-10-3.2c-1.2-0.4-2.5-0.6-3.8-0.7l-15.9-0.8l-7.9-0.8v14.6h37.5L100.4,67.4L100.4,67.4
		L100.4,67.4z"/>
	<circle fill="#5A5A5A" cx="32.8" cy="72.2" r="9.4"/>
	<circle fill="#969596" cx="32.8" cy="72.2" r="4.3"/>
	<circle fill="#303031" cx="87.3" cy="72.2" r="9.4"/>
	<circle fill="#5A5A5A" cx="87.3" cy="72.2" r="4.3"/>
	<rect x="96.8" y="68.5" fill="#B2202B" width="3.7" height="3.7"/>
	<rect x="47.5" y="68.5" fill="#D13135" width="27.5" height="3.7"/>
	<rect x="62.9" y="68.5" fill="#B2202B" width="12.1" height="3.7"/>
</g>
</svg>
