<?xml version="1.0" encoding="utf-8"?>
<!-- Generator: Adobe Illustrator 24.3.0, SVG Export Plug-In . SVG Version: 6.00 Build 0)  -->
<svg version="1.1" id="Layer_1" xmlns="http://www.w3.org/2000/svg" xmlns:xlink="http://www.w3.org/1999/xlink" x="0px" y="0px"
	 viewBox="0 0 126 126" enable-background="new 0 0 126 126" xml:space="preserve">
<g>
	<path fill="#0C3B5D" d="M101,113H25c-6.6,0-12-5.4-12-12V25c0-6.6,5.4-12,12-12h76c6.6,0,12,5.4,12,12v76
		C113,107.6,107.6,113,101,113z"/>
	<path fill="#FFFFFF" d="M17.8,63c0,6.9,0,12.6,0,12.6c0,0,4.7-0.9,5.3-1l0.3-0.1v-9.3H27v-0.8c0-0.5,0-1.7,0-2.7l0-1.8h-3.6v-4.1
		h2.1c1.1,0,2.1,0,2.1,0c0-0.1,0.5-4.9,0.5-5.2l0-0.3H17.8V63z M103.3,51.1l-4.6,0.4v22.8l0.2,0c0.2,0,9,0.7,9.2,0.7
		c0.1,0,0.1-0.6,0.1-2.8v-2.8h-3.9v-4.1h3.3v-4.9h-3.4V57l0.1,0c0.1,0,0.7,0,1.3-0.1c0.6,0,1.5,0,1.9-0.1l0.7,0v-6.1l-0.2,0
		C107.9,50.8,105.8,50.9,103.3,51.1z M74,51.9c0.1,0.6,0.7,9.2,0.7,9.2c0,0-0.8-2.1-1.9-4.6c-1-2.5-1.9-4.6-1.9-4.7
		c0-0.1-1.6,0.2-4.2,0.8l-0.2,0.1v19.6h5.1l0-0.4c-0.1-0.8-0.3-7.1-0.2-7.3c0-0.2,0.2,0.2,1.8,4.1c1,2.4,1.8,4.4,1.8,4.4
		c0,0,0.8,0,2.2-0.1c1.2-0.1,2.1-0.2,2.1-0.2c0,0,0-4.1-0.1-9.2s-0.1-9.8-0.1-10.6l0-1.4H74L74,51.9z M33.8,51.9
		c-3.4,0.2-5.3,2.6-5.9,7.3c-0.1,1-0.2,4.3-0.1,5.5c0.3,3.8,1.3,6.2,3.1,7.5c1,0.7,2.4,1,3.9,0.9c1.7-0.1,2.8-0.6,3.8-1.6
		c0.8-0.8,1.3-1.6,1.7-2.9c0.6-1.9,0.9-4.6,0.7-7.5c-0.2-3.2-0.6-5.2-1.6-6.8c-1-1.5-2.5-2.3-4.2-2.4c-0.3,0-0.6,0-0.7,0
		C34.5,51.9,34.2,51.9,33.8,51.9L33.8,51.9z M34.6,56.4c0.4,0.5,0.6,2.3,0.6,6.1c0,4.7-0.3,6.7-0.9,6.3c-0.3-0.2-0.5-1.1-0.6-2.6
		c-0.1-1.1-0.1-6.2,0-7.3c0.1-1.5,0.3-2.3,0.6-2.5C34.4,56.3,34.4,56.3,34.6,56.4z M41.8,62.3v10.4h5.2l0-0.7c0-0.4,0.1-1.7,0.1-2.9
		c0-1.2,0.1-2.3,0.1-2.4c0-0.1,0.3,0.7,1,3.3c0.5,1.9,1,3.4,1,3.5c0,0.1,5.4-0.4,5.5-0.4c0,0-0.6-1.9-1.3-4.2l-1.3-4.1l0.3-0.3
		c0.9-0.8,1.7-2.4,2-4c0.1-0.7,0-2.4-0.1-3c-0.6-2.5-2.1-4.4-4-5.1C49.4,52,49.5,52,45.5,52l-3.7,0V62.3z M47.7,56.9
		c0.4,0.2,0.7,0.7,0.9,1.4c0.1,0.5,0.1,2,0,2.5c-0.2,0.9-0.7,1.4-1.3,1.6l-0.1,0v-5.7l0.2,0C47.4,56.7,47.6,56.8,47.7,56.9
		L47.7,56.9z M54.6,54.7v2.7h2.9v15.3H63V58.2h3v-5.3l-0.1,0c-0.1,0-11-0.9-11.2-0.9C54.6,52,54.6,52.6,54.6,54.7z M80.3,62.9v10.4
		H86V52.6h-5.7V62.9z M92.5,53.3c-3.1,0.2-5.7,0.3-5.7,0.3c-0.1,0-0.1,0.2-0.1,2.7V59h2.9v15h5.5V58.3h3.1v-2.7c0-1.5,0-2.7,0-2.7
		C98.1,53,95.6,53.1,92.5,53.3z"/>
</g>
</svg>
