<?xml version="1.0" encoding="utf-8"?>
<!-- Generator: Adobe Illustrator 24.3.0, SVG Export Plug-In . SVG Version: 6.00 Build 0)  -->
<svg version="1.1" id="Layer_1" xmlns="http://www.w3.org/2000/svg" xmlns:xlink="http://www.w3.org/1999/xlink" x="0px" y="0px"
	 viewBox="0 0 126 126" enable-background="new 0 0 126 126" xml:space="preserve">
<g>
	<circle fill="#ACDBE6" cx="63" cy="65.1" r="47.9"/>
	<path fill="#1B76BB" d="M95.3,68.1c0.5,0.9,0.8,2,0.9,3.1l0,0.2l0.2,0c1.4,0.2,2.7,0.8,3.7,1.8l0.8,0.8h9.2
		c0.4-1.9,0.6-3.9,0.7-5.9H95.3z"/>
	<path fill="#1B76BB" d="M25.9,73.1c1-1,2.3-1.6,3.7-1.8l0.2,0l0-0.2c0-1.1,0.3-2.1,0.9-3.1H15.2c0.1,2,0.4,3.9,0.7,5.9h9.2
		L25.9,73.1z"/>
	<path fill="#E73B80" d="M89.2,78.3l-0.2,0c-1.7-0.1-3.3-0.8-4.5-2l-0.7-0.7V86c0,1.5-0.5,3-1.3,4.3l-0.2,0.2l0.3,0.1l0,0
		c0.2,0,0.4,0.2,0.5,0.3c0.1,0.1,0.1,0.2,0.1,0.3l0,0.4l8.4-9.1l-0.5-0.5c-1-1-1.6-2.3-1.8-3.7L89.2,78.3z"/>
	<path fill="#E73B80" d="M41.5,76.3c-1.2,1.2-2.8,1.9-4.5,2l-0.2,0l0,0.2c-0.2,1.4-0.8,2.7-1.8,3.7l-0.5,0.5l8.4,9.1l0-0.4
		c0-0.1,0-0.2,0.1-0.3c0.1-0.2,0.3-0.3,0.5-0.3l0.3-0.1l-0.1-0.2c-0.9-1.3-1.3-2.8-1.3-4.3V75.6L41.5,76.3z"/>
	<path fill="#E73B80" d="M43.8,104.1L22.7,85.4c-2.5-2.5-2.5-6.5,0-9l2.7-2.7h-9.4c2.9,16,13.8,29.2,28.3,35.4L43.8,104.1z"/>
	<path fill="#E73B80" d="M100.7,73.7l2.7,2.7c2.5,2.5,2.5,6.5,0,9L82.2,104l-0.3,5.1c14.5-6.2,25.3-19.4,28.2-35.4L100.7,73.7z"/>
	<path fill="#FFFFFF" d="M48.4,43.1V30.8h-0.8c-2.1,0-3.9,1.8-3.9,3.9v7.2c0,2.1,1.8,3.9,3.9,3.9h1C48.5,44.9,48.4,44,48.4,43.1z"/>
	<path fill="#FFFFFF" d="M78.3,30.8h-0.8v12.3c0,0.9-0.1,1.8-0.2,2.7h1c2.1,0,3.9-1.8,3.9-3.9v-7.2C82.3,32.6,80.5,30.8,78.3,30.8z"
		/>
	<path fill="#E3F2FC" d="M48.6,45.7c-1.6-0.5-2.8-2-2.8-3.8v-7.2c0-1.7,1.1-3.1,2.6-3.7v-0.2h-0.8c-2.1,0-3.9,1.8-3.9,3.9v7.2
		c0,2.1,1.8,3.9,3.9,3.9h1C48.7,45.8,48.7,45.7,48.6,45.7L48.6,45.7z"/>
	<path fill="#005B9A" d="M63,13c-8.2,0-14.8,3.5-14.8,11.7v7.7v0v-3.6c0-8.2,6.6-11.7,14.8-11.7s14.8,3.5,14.8,11.7v-4.1
		C77.8,16.5,71.2,13,63,13z"/>
	<path fill="#11437E" d="M48.2,28.8c0-5.4,2.9-8.7,7.1-10.4c2.1-3.1,5.9-4.8,10.3-5.3C64.8,13,63.9,13,63,13
		c-8.2,0-14.8,3.5-14.8,11.7v7.7v0L48.2,28.8L48.2,28.8z"/>
	<path fill="#F7B77F" d="M42.8,91.6L42.8,91.6C42.8,91.5,42.8,91.5,42.8,91.6l-8.1-8.9l0.4-0.4c1.1-1.1,1.7-2.4,1.9-3.8
		c1.7-0.1,3.4-0.8,4.7-2.1L42,76v10c0,1.7,0.5,3.3,1.5,4.6c2.1-0.5,3.5-2.4,3.5-4.5v-26h-3c-0.7,0-1.4,0.4-1.7,1
		c-2.4-0.7-5.1-0.1-7,1.8l-3.5,3.5c-1.3,1.3-2,3-2.1,4.7c-1.4,0.2-2.7,0.8-3.8,1.9l-3.3,3.3c-2.6,2.6-2.6,6.7,0,9.3
		c0.8,0.8,20.6,18.3,20.6,18.3c0.2,0.2,0.5,0.4,0.8,0.5L42.8,91.6z"/>
	<path fill="#F7B77F" d="M103.5,76.3l-3.3-3.3c-1.1-1.1-2.4-1.7-3.8-1.9c-0.1-1.7-0.8-3.4-2.1-4.7l-3.5-3.5c-1.9-1.9-4.6-2.5-7-1.8
		c-0.3-0.6-1-1-1.7-1h-3v26c0,2.1,1.4,4,3.5,4.5c0.9-1.3,1.5-2.9,1.5-4.6V76l0.4,0.4c1.3,1.3,3,2,4.7,2.1c0.2,1.4,0.8,2.7,1.9,3.8
		l0.4,0.4l-8.1,8.8c0,0,0,0,0,0l0,0l-1,12.7c0.3-0.1,0.5-0.3,0.7-0.5c0,0,19.8-17.5,20.6-18.3C106,83,106,78.8,103.5,76.3z"/>
	<path fill="#F5A65F" d="M46.1,62.2h0.7v-1.9c0-0.1,0-0.2,0-0.2h-2.8c-0.7,0-1.4,0.4-1.7,1c-2.4-0.7-5.1-0.1-7,1.8l-3.5,3.5
		c-1.3,1.3-2,3-2.1,4.7c-1.4,0.2-2.7,0.8-3.8,1.9l-3.3,3.3c-2.6,2.6-2.6,6.7,0,9.3c0.1,0.1,0.7,0.6,1.5,1.4
		c-1.9-2.6-1.7-6.2,0.6-8.5l3.3-3.3c1.1-1.1,2.4-1.7,3.8-1.9c0.1-1.7,0.8-3.4,2.1-4.7l3.5-3.5c1.9-1.9,4.6-2.5,7-1.8
		C44.7,62.6,45.3,62.2,46.1,62.2L46.1,62.2z"/>
	<path fill="#F5A65F" d="M69.3,58.7v-2.4c-0.6,0.3-1.1,0.5-1.7,0.7l-0.1,0l0,0c-0.5,0.7-1.3,1.2-2.1,1.5
		C66.6,58.6,68,58.6,69.3,58.7z"/>
	<path fill="#F5A65F" d="M60.7,58.5c-0.8-0.2-1.6-0.8-2.1-1.5l0,0l-0.1,0c-0.6-0.2-1.2-0.4-1.7-0.7v2.4C58,58.6,59.4,58.6,60.7,58.5
		z"/>
	<path fill="#F7B77F" d="M65.8,58.4c-0.5,0.2-1.1,0.4-1.7,0.4h-2.3c-0.6,0-1.1-0.1-1.7-0.4c-2,0.1-4,0.2-6,0.3v12.4
		c0,4.9,3.9,8.8,8.8,8.8c4.9,0,8.8-3.9,8.8-8.8V58.7C69.8,58.5,67.8,58.4,65.8,58.4z"/>
	<path fill="#005B9A" d="M68.3,54.2v0.4c0,1-0.4,2-1,2.7c6.1-1.8,10.5-7.5,10.5-14.1v-2.7C77.8,46.7,73.8,52.1,68.3,54.2L68.3,54.2z
		"/>
	<path fill="#005B9A" d="M57.7,54.6c0,0,0-0.2,0-0.4c-5.5-2.1-9.5-7.5-9.5-13.8v2.7c0,6.7,4.4,12.3,10.5,14.1
		C58.1,56.6,57.7,55.6,57.7,54.6z"/>
	<path fill="#1B76BB" d="M63,55.2c-1.9,0-3.8-0.4-5.4-1c0,0.1,0,0.3,0,0.5c0,2.4,1.9,4.3,4.3,4.3h2.3c2.4,0,4.3-1.9,4.3-4.3
		c0-0.2,0-0.3,0-0.5C66.8,54.8,64.9,55.2,63,55.2L63,55.2z"/>
	<path fill="#1B76BB" d="M60.5,55c-1-0.2-2-0.5-2.9-0.8c0,0.1,0,0.3,0,0.5c0,2.4,1.9,4.3,4.3,4.3h2.3c0.1,0,0.2,0,0.3,0
		C62.4,58.7,60.7,57.1,60.5,55L60.5,55z"/>
	<g>
		<path fill="#F5A65F" d="M63,80.1c0.5,0,1,0,1.5-0.1v-8.6c0-0.8-0.7-1.5-1.5-1.5c-0.8,0-1.5,0.7-1.5,1.5V80
			C62,80,62.5,80.1,63,80.1z"/>
		<path fill="#F5A65F" d="M54,67.5h4.5c0.8,0,1.5-0.7,1.5-1.5s-0.7-1.5-1.5-1.5H54L54,67.5z"/>
		<path fill="#F5A65F" d="M45.5,67.5h1.4v-2.9h-1.4c-0.8,0-1.5,0.7-1.5,1.5C44,66.9,44.7,67.5,45.5,67.5z"/>
		<path fill="#F5A65F" d="M79.1,67.5h1.4c0.8,0,1.5-0.7,1.5-1.5s-0.7-1.5-1.5-1.5h-1.4V67.5z"/>
		<path fill="#F5A65F" d="M67.5,67.5H72v-2.9h-4.5c-0.8,0-1.5,0.7-1.5,1.5C66.1,66.9,66.7,67.5,67.5,67.5z"/>
	</g>
	<path fill="#005B9A" d="M51.4,58.9c-1.3,0.1-2.6,0.3-3.9,0.5c-0.5,0.1-0.8,0.5-0.8,0.9v25.7c0,2.1-1.4,3.9-3.4,4.4
		c-0.2,0.1-0.5,0.2-0.6,0.4c-0.1,0.2-0.2,0.5-0.1,0.7l1.5,17.5c2.4,1,4.8,1.8,7.3,2.5L51.4,58.9L51.4,58.9z"/>
	<path fill="#005B9A" d="M45.1,93.3c-0.1-0.2,0-0.5,0.1-0.7c0.1-0.2,0.3-0.4,0.6-0.4c2-0.5,3.4-2.3,3.4-4.4V59.2
		c-0.6,0.1-1.1,0.1-1.7,0.2c-0.5,0.1-0.8,0.5-0.8,0.9v25.7c0,2.1-1.4,3.9-3.4,4.4c-0.2,0.1-0.5,0.2-0.6,0.4
		c-0.1,0.2-0.2,0.5-0.1,0.7l1.5,17.5c0.8,0.3,1.6,0.7,2.5,1L45.1,93.3z"/>
	<path fill="#005B9A" d="M83.3,90.9c-0.1-0.2-0.3-0.4-0.6-0.4c-2-0.5-3.4-2.3-3.4-4.4V60.3c0-0.5-0.3-0.9-0.8-0.9
		c-1.3-0.2-2.6-0.3-3.9-0.5v52.6c2.6-0.6,5.1-1.5,7.4-2.5l1.4-17.5C83.5,91.4,83.4,91.1,83.3,90.9L83.3,90.9z"/>
	<path fill="#1B76BB" d="M71.8,58.7L71.8,58.7L71.8,58.7z"/>
	<path fill="#1B76BB" d="M74.6,96.2c-2.7-1-4.5-3.5-4.5-6.4V76.3c-1.6,2.2-4.2,3.6-7.1,3.6c-2.9,0-5.5-1.4-7.1-3.6v13.5
		c0,2.9-1.8,5.4-4.5,6.4h-0.2v15.4c3.8,1,7.7,1.5,11.8,1.5c4.1,0,8-0.5,11.8-1.5V96.2H74.6z"/>
	<path fill="#F7B77F" d="M77.8,40.4c0,8.2-6.6,14.8-14.8,14.8s-14.8-6.6-14.8-14.8v-7.7c0-8.2,6.6-11.7,14.8-11.7
		s14.8,3.5,14.8,11.7V40.4z"/>
	<path fill="#F5A65F" d="M54.6,25.9c2.2-2.9,6-4.4,10.5-4.8c-0.7-0.1-1.4-0.1-2.1-0.1c-5.3,0-10,1.5-12.6,4.8c0,0,0,0,0,0H54.6z"/>
	<path fill="#F5A65F" d="M52.5,40.4v-7.7c0-1.3,0.2-2.5,0.5-3.5h-3.2l-1.5,3.5v7.7c0,8.2,6.6,14.8,14.8,14.8c0.7,0,1.4-0.1,2.1-0.2
		C58,54,52.5,47.9,52.5,40.4L52.5,40.4z"/>
	<path fill="#1B76BB" d="M63,16.9c-8.2,0-14.8,3.5-14.8,11.7v4.1l1.5-3.5h26.6l1.5,3.5v-4.1C77.8,20.4,71.2,16.9,63,16.9z
		 M50.4,25.9c2.6-3.3,7.3-4.8,12.6-4.8c5.3,0,10,1.5,12.6,4.8H50.4z"/>
	<path fill="#005B9A" d="M51.4,28.6c0-1,0.1-1.9,0.3-2.7h-1.3c0.5-0.7,1.2-1.3,1.9-1.8c1.8-4.5,6.6-6.8,12.3-7.1c-0.5,0-1.1,0-1.6,0
		c-8.2,0-14.8,3.5-14.8,11.7v4.1l1.5-3.5h1.7L51.4,28.6z"/>
	<path fill="#E9610A" d="M64.5,44.6h-1.9c-1.3,0-2.4-1.1-2.4-2.4v-3.6c0-0.8,0.7-1.5,1.5-1.5c0.8,0,1.5,0.7,1.5,1.5v3.1h1.5
		c0.8,0,1.5,0.7,1.5,1.5C65.9,43.9,65.3,44.6,64.5,44.6z"/>
	<path fill="#E9610A" d="M66.5,49.9h-7.1c-0.8,0-1.5-0.7-1.5-1.5s0.7-1.5,1.5-1.5h7.1c0.8,0,1.5,0.7,1.5,1.5S67.3,49.9,66.5,49.9z"
		/>
	<path fill="#433F43" d="M57.8,33h-5.2c-0.8,0-1.5-0.7-1.5-1.5c0-0.8,0.7-1.5,1.5-1.5h5.2c0.8,0,1.5,0.7,1.5,1.5
		C59.3,32.4,58.7,33,57.8,33z"/>
	<path fill="#433F43" d="M73.4,33h-5.2c-0.8,0-1.5-0.7-1.5-1.5c0-0.8,0.7-1.5,1.5-1.5h5.2c0.8,0,1.5,0.7,1.5,1.5
		C74.8,32.4,74.2,33,73.4,33z"/>
	<path fill="#554E56" d="M70.8,35.1c-1.1,0-2,0.9-2,2v3c0,1.1,0.9,2,2,2h0.7c1.1,0,2-0.9,2-2v-3c0-1.1-0.9-2-2-2H70.8z"/>
	<path fill="#554E56" d="M54.5,35.1c-1.1,0-2,0.9-2,2v3c0,1.1,0.9,2,2,2h0.7c1.1,0,2-0.9,2-2v-3c0-1.1-0.9-2-2-2H54.5z"/>
	<path fill="#FFFFFF" d="M51.2,59v37.5c2.8-0.9,4.8-3.6,4.8-6.7V76.5c-1.2-1.5-1.9-3.4-1.9-5.4V58.7C53.2,58.8,52.2,58.8,51.2,59
		L51.2,59z"/>
	<path fill="#FFFFFF" d="M71.8,71.1c0,2-0.7,3.9-1.9,5.4v13.2c0,3.1,2,5.8,4.8,6.7V59c-1-0.1-2-0.2-3-0.3L71.8,71.1z"/>
	<path fill="#FFFFFF" d="M66.6,105.4c-0.1,0-0.2,0-0.3-0.1l-3.3-1.8l-3.3,1.8c-0.1,0-0.2,0.1-0.3,0.1c-0.1,0-0.3,0-0.4-0.1
		c-0.2-0.1-0.3-0.4-0.2-0.6l0.6-3.7l-2.7-2.6c-0.2-0.2-0.2-0.4-0.2-0.6c0.1-0.2,0.3-0.4,0.5-0.4l3.7-0.5l1.7-3.4
		c0.1-0.2,0.3-0.3,0.5-0.3s0.4,0.1,0.5,0.3l1.7,3.4l3.7,0.5c0.2,0,0.4,0.2,0.5,0.4c0.1,0.2,0,0.5-0.2,0.6l-2.7,2.6l0.6,3.7
		c0,0.2-0.1,0.5-0.2,0.6C66.9,105.3,66.7,105.4,66.6,105.4z"/>
	<path fill="#E3F2FC" d="M61.9,103.5l0.6-3.7l-2.7-2.6c-0.1-0.1-0.1-0.2-0.2-0.3l-2.6,0.4c-0.2,0-0.4,0.2-0.5,0.4
		c-0.1,0.2,0,0.5,0.2,0.6l2.7,2.6l-0.6,3.7c0,0.2,0.1,0.5,0.2,0.6c0.1,0.1,0.2,0.1,0.4,0.1c0.1,0,0.2,0,0.3-0.1l2.4-1.3
		C61.9,103.9,61.9,103.7,61.9,103.5L61.9,103.5z"/>
</g>
</svg>
