<?xml version="1.0" encoding="utf-8"?>
<!-- Generator: Adobe Illustrator 24.3.0, SVG Export Plug-In . SVG Version: 6.00 Build 0)  -->
<svg version="1.1" id="Layer_1" xmlns="http://www.w3.org/2000/svg" xmlns:xlink="http://www.w3.org/1999/xlink" x="0px" y="0px"
	 viewBox="0 0 126 126" enable-background="new 0 0 126 126" xml:space="preserve">
<g id="_15-ski">
	<path fill="#0968B1" d="M59.8,92.4v7.9c0,6.1-5,11.1-11.1,11.1s-11.1-5-11.1-11.1v-7.9H59.8z"/>
	<path fill="#E43B3C" d="M59.3,86l0.6,6.3H37.6l0.6-6.3H59.3z"/>
	<path fill="#A57C52" d="M44,67c0,5.3,2.1,6.3,4.8,6.3c2.6,0,4.8-1.1,4.8-6.3s-2.1-12.7-4.8-12.7C46.1,54.3,44,61.7,44,67z
		 M58.2,49.5v25.4l1,11.1H38.2l1-11.1V49.5l-1-11.2l20.4,7.9L58.2,49.5z"/>
	<path fill="#0968B1" d="M59.8,24.1V32l-0.6,6.5l-21.6-8.4v-6c0-6.1,5-11.1,11.1-11.1S59.8,18,59.8,24.1z"/>
	<path fill="#E43B3C" d="M59.2,38.5l-0.7,7.7l-20.4-7.9L37.6,32v-1.9L59.2,38.5z"/>
	<path fill="#E43B3C" d="M87.8,86l0.6,6.3H66.2l0.6-6.3H87.8z"/>
	<path fill="#0968B1" d="M88.4,92.4v7.9c0,6.1-5,11.1-11.1,11.1s-11.1-5-11.1-11.1v-7.9H88.4z"/>
	<path fill="#0968B1" d="M21.7,13h6.3v15.9h-6.3V13z"/>
	<path fill="#808080" d="M29.7,103.5h-3.2V35.2h-3.2v68.3h-3.2c-0.9,0-1.6,0.7-1.6,1.6s0.7,1.6,1.6,1.6h3.2v4.8
		c0,0.9,0.7,1.6,1.6,1.6s1.6-0.7,1.6-1.6v-4.8h3.2c0.9,0,1.6-0.7,1.6-1.6S30.5,103.5,29.7,103.5z"/>
	<path fill="#E43B3C" d="M26.5,35.2h1.6v-6.3h-6.3v6.3h1.6h1.6H26.5z"/>
	<path fill="#808080" d="M105.9,103.5h-3.2V35.2h-3.2v68.3h-3.2c-0.9,0-1.6,0.7-1.6,1.6s0.7,1.6,1.6,1.6h3.2v4.8
		c0,0.9,0.7,1.6,1.6,1.6s1.6-0.7,1.6-1.6v-4.8h3.2c0.9,0,1.6-0.7,1.6-1.6S106.7,103.5,105.9,103.5z"/>
	<path fill="#E43B3C" d="M102.7,35.2h1.6v-6.3h-6.3v6.3h1.6h1.6H102.7z"/>
	<path fill="#0968B1" d="M97.9,13h6.3v15.9h-6.3V13z"/>
	<path fill="#0968B1" d="M88.4,24.1v6l-21.6,8.4L66.2,32v-7.9c0-6.1,5-11.1,11.1-11.1S88.4,18,88.4,24.1z"/>
	<path fill="#E43B3C" d="M88.4,30.1V32l-0.6,6.2l-20.4,7.9l-0.7-7.7L88.4,30.1z"/>
	<path fill="#A57C52" d="M72.5,67c0,5.3,2.1,6.3,4.8,6.3S82,72.2,82,67s-2.1-12.7-4.8-12.7S72.5,61.7,72.5,67z M86.8,49.5v25.4
		l1,11.1H66.7l1-11.1V49.5l-0.3-3.3l20.4-7.9L86.8,49.5z"/>
	<path fill="#AC2D2D" d="M69.9,86h-3.2l-0.6,6.3h3.2L69.9,86z"/>
	<path fill="#024E85" d="M69.3,100.3v-7.9h-3.2v7.9c0,6.1,4.9,11.1,11,11.1c0.6,0,1.2,0,1.7-0.1C73.4,110.5,69.3,105.8,69.3,100.3z"
		/>
	<path fill="#024E85" d="M69.3,32v-7.9c0-5.5,4.1-10.2,9.5-11c-6.1-0.9-11.7,3.3-12.6,9.4c-0.1,0.5-0.1,1.1-0.1,1.6V32l0.6,6.5
		l3.1-1.2L69.3,32z"/>
	<path fill="#AC2D2D" d="M69.9,38.5l-0.1-1.2l-3.1,1.2l0.7,7.7l3.1-1.2L69.9,38.5z"/>
	<path fill="#7E5D3E" d="M70.9,74.9V49.5l-0.3-3.3L70.5,45l-3.1,1.2l0.3,3.3v25.4l-1,11.1h3.2L70.9,74.9z"/>
	<path fill="#AC2D2D" d="M56.1,86h3.2l0.6,6.3h-3.2L56.1,86z"/>
	<path fill="#024E85" d="M56.7,100.3v-7.9h3.2v7.9c0,6.1-4.9,11.1-11,11.1c-0.6,0-1.2,0-1.7-0.1C52.6,110.5,56.7,105.8,56.7,100.3z"
		/>
	<path fill="#024E85" d="M56.7,32v-7.9c0-5.5-4.1-10.2-9.5-11c6.1-0.9,11.7,3.3,12.6,9.4c0.1,0.5,0.1,1.1,0.1,1.6V32l-0.6,6.5
		l-3.1-1.2L56.7,32z"/>
	<path fill="#AC2D2D" d="M56.1,38.5l0.1-1.2l3.1,1.2l-0.7,7.7L55.5,45L56.1,38.5z"/>
	<path fill="#7E5D3E" d="M55.1,74.9V49.5l0.3-3.3l0.1-1.2l3.1,1.2l-0.3,3.3v25.4l1,11.1h-3.2L55.1,74.9z"/>
	<path fill="#E96463" d="M85.2,92.4h3.2L87.8,86h-3.2L85.2,92.4z"/>
	<path fill="#3685C1" d="M85.2,100.3c0,5.5-4.1,10.2-9.5,11c6.1,0.9,11.7-3.3,12.6-9.4c0.1-0.5,0.1-1.1,0.1-1.6v-7.9h-3.2V100.3z"/>
	<path fill="#3685C1" d="M77.3,13c-0.5,0-1.1,0-1.6,0.1c5.5,0.8,9.5,5.5,9.5,11v7.2l3.2-1.2v-6C88.4,18,83.4,13,77.3,13z"/>
	<path fill="#E96463" d="M85.2,32l-0.6,6.2l-0.1,1.3l3.3-1.3l0.6-6.2v-1.9l-3.2,1.2V32z"/>
	<path fill="#B79675" d="M83.6,49.5v25.4l1,11.1h3.2l-1-11.1V49.5l1-11.2l-3.3,1.3L83.6,49.5z"/>
	<path fill="#E96463" d="M40.8,92.4h-3.2l0.6-6.3h3.2L40.8,92.4z"/>
	<path fill="#3685C1" d="M40.8,100.3c0,5.5,4.1,10.2,9.5,11c-6.1,0.9-11.7-3.3-12.6-9.4c-0.1-0.5-0.1-1.1-0.1-1.6v-7.9h3.2V100.3z"
		/>
	<path fill="#3685C1" d="M48.7,13c0.5,0,1.1,0,1.6,0.1c-5.5,0.8-9.5,5.5-9.5,11v7.2l-3.2-1.2v-6C37.6,18,42.6,13,48.7,13z"/>
	<path fill="#E96463" d="M40.8,32l0.6,6.2l0.1,1.3l-3.3-1.3L37.6,32v-1.9l3.2,1.2V32z"/>
	<path fill="#B79675" d="M42.4,49.5v25.4l-1,11.1h-3.2l1-11.1V49.5l-1-11.2l3.3,1.3L42.4,49.5z"/>
	<path fill="#643A13" d="M77.3,54.3c2.6,0,4.8,7.4,4.8,12.7s-2.1,6.3-4.8,6.3s-4.8-1.1-4.8-6.3S74.7,54.3,77.3,54.3z"/>
	<path fill="#643A13" d="M48.7,54.3c2.6,0,4.8,7.4,4.8,12.7s-2.1,6.3-4.8,6.3c-2.6,0-4.8-1.1-4.8-6.3S46.1,54.3,48.7,54.3z"/>
	<g>
		<path fill="#4B2C13" d="M48.7,67c-2.2,0.3-4.2-1.3-4.5-3.5C44.1,64.6,44,65.8,44,67c0,5.3,2.1,6.3,4.8,6.3c2.6,0,4.8-1.1,4.8-6.3
			c0-1.2-0.1-2.4-0.3-3.5C52.9,65.6,50.9,67.2,48.7,67z"/>
		<path fill="#4B2C13" d="M77.3,67c-2.2,0.3-4.2-1.3-4.5-3.5c-0.2,1.2-0.3,2.4-0.3,3.5c0,5.3,2.1,6.3,4.8,6.3S82,72.2,82,67
			c0-1.2-0.1-2.4-0.3-3.5C81.5,65.6,79.5,67.2,77.3,67z"/>
	</g>
</g>
</svg>
