<?xml version="1.0" encoding="utf-8"?>
<!-- Generator: Adobe Illustrator 24.3.0, SVG Export Plug-In . SVG Version: 6.00 Build 0)  -->
<svg version="1.1" id="Layer_1" xmlns="http://www.w3.org/2000/svg" xmlns:xlink="http://www.w3.org/1999/xlink" x="0px" y="0px"
	 viewBox="0 0 126 126" enable-background="new 0 0 126 126" xml:space="preserve">
<g>
	<path fill="#F18D85" d="M29.8,83.9l-0.9,3.8l-0.6,2.7c-0.2,0.9-1,1.6-2,1.6h-2.3c-0.9,0-1.8-0.7-2-1.6l-0.5-2.2l-1-4.3H29.8z"/>
	<path fill="#EE7A6C" d="M20.7,83.9h9.1l-0.9,3.8l-4.8,0.5c-0.4,0-0.8,0.1-1.2,0.1c-0.4,0-0.8,0-1.2-0.1L20.7,83.9z"/>
	<path fill="#F18D85" d="M44.5,82.4l-0.8,4.1L43,90.3c-0.2,0.9-1,1.6-2,1.6h-2.2c-1,0-1.8-0.7-2-1.6l-0.6-3.3l-0.9-4.6L44.5,82.4
		L44.5,82.4z"/>
	<path fill="#EE7A6C" d="M35.4,82.4h9.1l-0.8,4.1c-1.7,0-3.4,0.1-5.1,0.3l-2.4,0.2L35.4,82.4z"/>
	<path fill="#7B6E7A" d="M72.1,83.9l-1,4.4l-0.5,2.1c-0.2,0.9-1,1.6-2,1.6h-2.3c-0.9,0-1.8-0.7-2-1.6l-0.6-2.6L63,83.9H72.1z"/>
	<path fill="#685E67" d="M63,83.9h9.1l-1,4.4l-7.3-0.5L63,83.9z"/>
	<path fill="#7B6E7A" d="M87.3,83.9l-0.9,3.9l-0.6,2.5c-0.2,0.9-1,1.6-2,1.6h-2.3c-0.9,0-1.8-0.7-2-1.6l-0.4-1.9l-1-4.6L87.3,83.9
		L87.3,83.9z"/>
	<path fill="#685E67" d="M78.2,83.9h9.1l-0.9,3.9c-2.4,0.4-4.8,0.6-7.2,0.7L78.2,83.9z"/>
	<path fill="#7B6E7A" d="M101.6,87.2c0,0.9-0.6,1.8-1.5,2l-2.2,0.6c-0.9,0.2-1.9-0.2-2.3-1l-1.4-2.6l-1.7-3.3l8.8-2.3l0.1,3.7
		L101.6,87.2z"/>
	<path fill="#685E67" d="M101.5,84.3l-7.3,1.8l-1.7-3.3l8.8-2.3L101.5,84.3z"/>
	<path fill="#685E67" d="M18.3,53.4V40.5c0-1.1,0.9-2,2.1-2c1.7,0,4.4,0,7.7-0.3c6.9-0.6,15.2-3,18.8-4.1c1-0.3,2.1,0.2,2.5,1.3
		l5.3,15.2c0,0-6.1,12.4-23.9,12.4C19.3,63.1,18.3,53.4,18.3,53.4L18.3,53.4z"/>
	<path fill="#554E55" d="M54.6,50.6c0,0-6.1,12.5-23.9,12.5c-2.1,0-3.9-0.3-5.4-0.9c23.9-0.3,21.8-19.4,19.8-27.5
		c0.6-0.2,1.2-0.4,1.7-0.5c1-0.3,2.1,0.2,2.5,1.3L54.6,50.6z"/>
	<path fill="#433F43" d="M26.8,59.3c0,0.8-0.6,1.5-1.4,1.6c0,0,0,0-0.1,0c-0.8,0-1.5-0.6-1.5-1.5L23,38.5c0.9,0,1.9,0,3-0.1
		L26.8,59.3z"/>
	<path fill="#433F43" d="M32.7,61.4c0,0-0.1,0-0.1,0c-0.8,0-1.4-0.6-1.5-1.4l-1.5-21.9c1-0.1,2-0.3,3-0.4l1.5,22.1
		C34.2,60.6,33.6,61.3,32.7,61.4L32.7,61.4z"/>
	<path fill="#433F43" d="M40.9,61.4c-0.1,0-0.1,0-0.2,0c-0.7,0-1.4-0.5-1.5-1.3l-3.4-23c1-0.2,2-0.4,3-0.7l3.4,23.3
		C42.3,60.5,41.7,61.2,40.9,61.4L40.9,61.4z"/>
	<path fill="#433F43" d="M48.7,57.3c-0.7,0-1.3-0.5-1.5-1.2l-3.6-15.1c-0.2-0.8,0.3-1.6,1.1-1.8c0.8-0.2,1.6,0.3,1.8,1.1l3.6,15.1
		c0.2,0.8-0.3,1.6-1.1,1.8C48.9,57.3,48.8,57.3,48.7,57.3L48.7,57.3z"/>
	<path fill="#F9C473" d="M51.1,40.3l-4.8,1.1l-9.5,2.3l-1-6.7c4.6-0.9,8.8-2.2,11.1-2.9c1-0.3,2.1,0.2,2.5,1.3L51.1,40.3z"/>
	<path fill="#E6B56B" d="M51.1,40.3l-4.8,1.1c-0.2-2.6-0.6-5-1-6.8c0.6-0.2,1.2-0.4,1.7-0.5c1-0.3,2.1,0.2,2.5,1.3L51.1,40.3z"/>
	<path fill="#F18D85" d="M113,72.2c0,3.8-2.6,7.1-6.3,8l-15.2,3.9c-6.1,1.5-12.3,2.1-18.6,1.6l-12.2-0.9l-7.6-2.6
		c-4.3-1.5-8.9-2.3-13.4-2.4c8.7-5.9,2.7-15.2-2.1-20.6c8.5-1.8,13.4-6.9,15.4-9.4c0.6-0.8,1.7-1,2.6-0.5c9,5.2,21.6,9.8,32.5,13.1
		c-0.1,0.2-0.2,0.4-0.3,0.7c-1.4,4-7,10.9-29.3,8.2c-0.5-0.1-0.9-0.1-1.2-0.1c-0.5,0-1,0.4-1,1v0c0,0.5,0.4,1,1,1.1
		c8.1,1.3,34.6,4.5,39.9-8.2c6,1.6,10.6,2.8,12.6,3.3c0.9,0.2,1.7,0.7,2.2,1.4C112.7,70.4,113,71.3,113,72.2L113,72.2z"/>
	<path fill="#F9C473" d="M98,65.2c-4.7,14.1-33.6,10.1-40.9,8.9c-0.5-0.1-0.9-0.3-1.2-0.7c-0.3-0.3-0.5-0.8-0.5-1.3
		c0-1.2,1-2.1,2.2-2C80,72.9,85.5,66,86.9,62C90.9,63.3,94.7,64.3,98,65.2z"/>
	<path fill="#908291" d="M35.2,83.2c-2.2,0.7-4.1,1.2-6,1.8l-5.5,0.6c-0.3,0-0.7,0.1-1,0.1c-4.4,0-8.3-3-9.3-7.4
		c-0.7-2.9-0.7-5.9,0-8.8c0.5-2.4,1-4.8,1.1-7.2c0.1-2.5,0.7-5.8,2.6-8.1c0.8-1,2.2-1,3-0.1c2,2.1,6.3,5.8,11.3,5.8
		c2.8,0,5.3-0.4,7.6-0.9C44.8,65.2,53.5,77.7,35.2,83.2z"/>
	<path fill="#7B6E7A" d="M38.9,81.9c7.3-11.3-1.4-17.4-4.4-22.2c1.6-0.2,3.1-0.4,4.5-0.8C44.4,64.7,52.2,75.9,38.9,81.9L38.9,81.9z"
		/>
	<path fill="#F9C473" d="M65.3,85.2L48.5,84c-3.4-0.2-6.8-0.2-10.1,0.1l-14.5,1.5c-0.3,0-0.7,0.1-1,0.1c-3.5,0-6.6-1.9-8.3-4.8l20-2
		c6.3-0.6,12.7,0.1,18.6,2.2L65.3,85.2z"/>
	<g>
		<path fill="#EE7A6C" d="M113,72.2c0,3.8-2.6,7.1-6.3,8l-15.2,3.9c-6.1,1.5-12.3,2.1-18.6,1.6l-7.3-0.5c3.3-2.7,7.1-4.7,11.7-5.7
			c23.6-5,26.4-9.9,23.9-13.4c4,1.1,7.1,1.8,8.6,2.2c0.9,0.2,1.7,0.7,2.2,1.4C112.7,70.4,113,71.3,113,72.2z"/>
		<path fill="#EE7A6C" d="M61.4,52.4l-3.2,3.2c-0.3,0.3-0.7,0.4-1.1,0.4c-0.4,0-0.8-0.1-1.1-0.4c-0.6-0.6-0.6-1.5,0-2.1l2.5-2.5
			C59.5,51.4,60.5,51.9,61.4,52.4z"/>
		<path fill="#EE7A6C" d="M66.4,54.6l-3.3,3.3c-0.3,0.3-0.7,0.4-1.1,0.4c-0.4,0-0.8-0.1-1.1-0.4c-0.6-0.6-0.6-1.5,0-2.1l2.5-2.5
			C64.4,53.7,65.4,54.2,66.4,54.6L66.4,54.6z"/>
		<path fill="#EE7A6C" d="M71.5,56.7l-3.5,3.6c-0.3,0.3-0.7,0.4-1.1,0.4c-0.4,0-0.8-0.1-1.1-0.4c-0.6-0.6-0.6-1.5,0-2.1l2.6-2.7
			C69.4,55.9,70.4,56.3,71.5,56.7z"/>
		<path fill="#EE7A6C" d="M76.6,58.6l-3.8,3.8c-0.3,0.3-0.7,0.4-1.1,0.4c-0.4,0-0.8-0.1-1.1-0.4c-0.6-0.6-0.6-1.5,0-2.1l2.8-2.8
			C74.5,57.8,75.6,58.2,76.6,58.6L76.6,58.6z"/>
		<path fill="#EE7A6C" d="M81.9,60.4l-3.7,3.7c-0.3,0.3-0.7,0.4-1.1,0.4c-0.4,0-0.8-0.1-1.1-0.4c-0.6-0.6-0.6-1.5,0-2.1l2.6-2.7
			C79.8,59.7,80.9,60.1,81.9,60.4z"/>
	</g>
	<circle fill="#F9C473" cx="22.6" cy="70.6" r="3.2"/>
</g>
</svg>
