<?xml version="1.0" encoding="utf-8"?>
<!-- Generator: Adobe Illustrator 24.3.0, SVG Export Plug-In . SVG Version: 6.00 Build 0)  -->
<svg version="1.1" id="Layer_1" xmlns="http://www.w3.org/2000/svg" xmlns:xlink="http://www.w3.org/1999/xlink" x="0px" y="0px"
	 viewBox="0 0 126 126" enable-background="new 0 0 126 126" xml:space="preserve">
<g>
	<path fill="#A0C86A" d="M61.4,111.4c0,0.9-0.7,1.6-1.6,1.6H14.6c-0.9,0-1.6-0.7-1.6-1.6v-21c0-0.9,0.7-1.6,1.6-1.6h45.2
		c0.9,0,1.6,0.7,1.6,1.6V111.4z"/>
	<path fill="#8CBF52" d="M61.4,109.8c0,0.9-0.7,1.6-1.6,1.6H14.6c-0.9,0-1.6-0.7-1.6-1.6v-21c0-0.9,0.7-1.6,1.6-1.6h45.2
		c0.9,0,1.6,0.7,1.6,1.6V109.8z"/>
	<path fill="#A0C86A" d="M61.4,108.2c0,0.9-0.7,1.6-1.6,1.6H14.6c-0.9,0-1.6-0.7-1.6-1.6v-21c0-0.9,0.7-1.6,1.6-1.6h45.2
		c0.9,0,1.6,0.7,1.6,1.6V108.2z"/>
	<path fill="#8CBF52" d="M61.4,106.5c0,0.9-0.7,1.6-1.6,1.6H14.6c-0.9,0-1.6-0.7-1.6-1.6v-21c0-0.9,0.7-1.6,1.6-1.6h45.2
		c0.9,0,1.6,0.7,1.6,1.6V106.5z"/>
	<path fill="#A0C86A" d="M61.4,104.9c0,0.9-0.7,1.6-1.6,1.6H14.6c-0.9,0-1.6-0.7-1.6-1.6V84c0-0.9,0.7-1.6,1.6-1.6h45.2
		c0.9,0,1.6,0.7,1.6,1.6V104.9z"/>
	<path fill="#8CBF52" d="M61.4,103.3c0,0.9-0.7,1.6-1.6,1.6H14.6c-0.9,0-1.6-0.7-1.6-1.6v-21c0-0.9,0.7-1.6,1.6-1.6h45.2
		c0.9,0,1.6,0.7,1.6,1.6V103.3z"/>
	<path fill="#656D78" d="M49.2,27.7c2.6-0.7,5.4-1.2,8.2-1.5c-1.6,3-3.1,6.5-4.1,10.5c-17.5,4-30.9,18.4-33.5,36.4
		C14.3,66.2,13,60.8,13,60.8c2.7-7.3,6.9-13.9,12.4-19.3C31.9,35,40,30.1,49.2,27.7z"/>
	<path fill="#965354" d="M69.5,64.6L69.5,64.6c0,7.4,2.2,14.3,5.9,20.1c6.4,9.9,17.4,16.6,30,17C52.7,101.5,29.7,85,19.9,73
		c2.5-18,16-32.4,33.5-36.4c1-3.9,2.4-7.4,4.1-10.5C62,17.8,67.8,13,67.8,13l3.2,17.7L113,56.5l-6.5,8.1l-24.8-5
		C78.5,62.8,74.1,64.6,69.5,64.6L69.5,64.6z"/>
	<path fill="#834747" d="M75.3,84.7C71.7,79,69.5,72.3,69.5,65c-2,0.8-6.7-1.7-6.7-1.7c0,7.4,2.4,17.3,6.1,23
		c4.2,6.6,10.5,11.7,17.9,14.6c5.7,0.5,11.9,0.8,18.5,0.8C92.7,101.3,81.7,94.6,75.3,84.7z"/>
	<path fill="#834747" d="M71.1,30.7L67.8,13c0,0-1.7,1.4-4.1,4.1c0,0-0.1,0.1-0.1,0.1l0.9,15.2l39.7,25.4l-4.4,5.5l6.7,1.3l6.5-8.1
		L71.1,30.7z"/>
	<path fill="#434A54" d="M71.1,45.2c-0.9,0-1.6-0.7-1.6-1.6s0.7-1.6,1.6-1.6h0c0.9,0,1.6,0.7,1.6,1.6S72,45.2,71.1,45.2z"/>
	<path fill="#834747" d="M65.1,67.3c1.5,0.3,2.9,0.5,4.4,0.5c0,0,0.1,0,0.1,0c-0.1-1-0.1-2.1-0.1-3.2c0,0-2.3-0.2-3.7-0.5
		c-3.5-0.8-6.5-2.7-8.8-5.4c-0.6-0.7-1.6-0.8-2.3-0.2c-0.7,0.6-0.8,1.6-0.2,2.3C57.3,64.1,60.9,66.3,65.1,67.3L65.1,67.3z"/>
	<path fill="#555C67" d="M47.7,28.2l0.4,1.5c0.2,0.7,0.8,1.2,1.6,1.2c0.1,0,0.3,0,0.4-0.1c0.9-0.2,1.4-1.1,1.1-2l-0.4-1.5
		c-0.5,0.1-1.1,0.2-1.6,0.4C48.7,27.8,48.2,28,47.7,28.2L47.7,28.2z"/>
	<path fill="#555C67" d="M35.8,35.2c0.3,0.5,0.8,0.8,1.4,0.8c0.3,0,0.6-0.1,0.8-0.2c0.8-0.4,1-1.4,0.6-2.2l-0.8-1.4
		c-0.9,0.5-1.9,1-2.8,1.6L35.8,35.2z"/>
	<path fill="#555C67" d="M24.3,42.7l1.1,1.1c0.3,0.3,0.7,0.5,1.1,0.5c0.4,0,0.8-0.2,1.1-0.5c0.6-0.6,0.6-1.7,0-2.3l-1.1-1.1
		c-0.4,0.4-0.8,0.7-1.2,1.1C25,41.9,24.6,42.3,24.3,42.7L24.3,42.7z"/>
	<path fill="#555C67" d="M19.1,51.9l-1.4-0.8c-0.6,0.9-1.1,1.8-1.6,2.8l1.4,0.8c0.3,0.1,0.5,0.2,0.8,0.2c0.6,0,1.1-0.3,1.4-0.8
		C20.1,53.3,19.9,52.4,19.1,51.9z"/>
	<path fill="#A0C86A" d="M61.4,101.7c0,0.9-0.7,1.6-1.6,1.6H14.6c-0.9,0-1.6-0.7-1.6-1.6v-21c0-0.9,0.7-1.6,1.6-1.6h45.2
		c0.9,0,1.6,0.7,1.6,1.6V101.7z"/>
	<g>
		<path fill="#8CBF52" d="M59.8,79.1h-4.8c0,3.6,2.9,6.5,6.5,6.5v-4.8C61.4,79.9,60.7,79.1,59.8,79.1z"/>
		<path fill="#8CBF52" d="M54.9,103.3h4.8c0.9,0,1.6-0.7,1.6-1.6v-4.8C57.8,96.9,54.9,99.8,54.9,103.3z"/>
		<path fill="#8CBF52" d="M19.5,79.1h-4.8c-0.9,0-1.6,0.7-1.6,1.6v4.8C16.6,85.6,19.5,82.7,19.5,79.1z"/>
		<path fill="#8CBF52" d="M13,96.9v4.8c0,0.9,0.7,1.6,1.6,1.6h4.8C19.5,99.8,16.6,96.9,13,96.9z"/>
	</g>
	<path fill="#E5E8EC" d="M42,108.2v4.8h-9.7v-4.8v-4.8V79.1H42v24.2V108.2z"/>
	<path fill="#CBD0D8" d="M32.4,103.3H42v9.7h-9.7V103.3z"/>
</g>
</svg>
