<?xml version="1.0" encoding="utf-8"?>
<!-- Generator: Adobe Illustrator 24.3.0, SVG Export Plug-In . SVG Version: 6.00 Build 0)  -->
<svg version="1.1" id="Layer_1" xmlns="http://www.w3.org/2000/svg" xmlns:xlink="http://www.w3.org/1999/xlink" x="0px" y="0px"
	 viewBox="0 0 126 126" enable-background="new 0 0 126 126" xml:space="preserve">
<g>
	<path fill="#F4F4F4" d="M113,63c0,12-4.2,23-11.2,31.6c-0.6,0.8-1.3,1.5-2,2.3C90.7,106.8,77.6,113,63,113
		c-14.6,0-27.7-6.2-36.8-16.2c-0.7-0.7-1.3-1.5-2-2.3C17.2,86,13,75,13,63c0-12,4.2-23,11.2-31.6c0.6-0.8,1.3-1.5,2-2.3
		C35.3,19.2,48.4,13,63,13s27.7,6.2,36.8,16.2c0.7,0.7,1.3,1.5,2,2.3C108.8,40,113,51,113,63z"/>
	<path fill="#E6E5E5" d="M63,13c-1,0-2,0-3,0.1c26.2,1.6,47,23.3,47,49.9s-20.8,48.3-47,49.9c1,0.1,2,0.1,3,0.1
		c27.6,0,50-22.4,50-50S90.6,13,63,13z"/>
	<g>
		<path fill="#D4D3D3" d="M93.9,85.9c-20,4.3-39.6,4.4-59.6,0.5c-0.2,0-0.4,0-0.6,0.2l-7.6,10.2c-0.7-0.7-1.3-1.5-2-2.3l7.4-10
			c0.1-0.1,0.1-0.3,0.1-0.5C29,70,29,55.9,31.7,41.8c0-0.2,0-0.3-0.1-0.5l-7.4-9.9c0.6-0.8,1.3-1.5,2-2.3l7.7,10.2
			c0.1,0.2,0.4,0.3,0.6,0.2c19.9-3.9,39.5-3.8,59.5,0.5C97.1,55.3,97.1,70.7,93.9,85.9z"/>
		<path fill="#BCBCBB" d="M94.3,84.9l7.4,9.7c-0.6,0.8-1.3,1.5-2,2.3L92,86.6c-0.1-0.2-0.4-0.3-0.6-0.2c-1,0.2-2,0.4-3.1,0.6
			c2.6-16,2.6-32,0-48c1.1,0.2,2.1,0.4,3.2,0.6c0.2,0,0.4,0,0.6-0.2l7.7-10.2c0.7,0.7,1.3,1.5,2,2.3l-7.4,9.9
			c-0.1,0.1-0.1,0.3-0.1,0.5C97,56,97,70.2,94.2,84.4C94.2,84.6,94.2,84.7,94.3,84.9z"/>
	</g>
	<path fill="#D4D3D3" d="M79.7,15.9l-6.4,24.7H52.6l-6.4-24.7C51.5,14,57.1,13,63,13S74.5,14,79.7,15.9z"/>
	<path fill="#D4D3D3" d="M79.7,110.1C74.5,112,68.9,113,63,113s-11.5-1-16.7-2.9l6.4-24.7h20.7L79.7,110.1z"/>
	<path fill="#D4D3D3" d="M113,63c0,5.5-0.9,10.8-2.5,15.8l-17.8-7.1V54.3l17.8-7.1C112.1,52.2,113,57.5,113,63z"/>
	<path fill="#BCBCBB" d="M110.5,78.8c1.7-5,2.5-10.3,2.5-15.8s-0.9-10.8-2.5-15.8l-5.4,2.1c1.2,4.3,1.9,8.9,1.9,13.6
		s-0.7,9.3-1.9,13.6L110.5,78.8z"/>
	<path fill="#D4D3D3" d="M33.4,54.3v17.3l-17.8,7.1C13.9,73.8,13,68.5,13,63s0.9-10.8,2.5-15.8L33.4,54.3z"/>
	<g>
		<path fill="#F4F4F4" d="M95.9,72.1c-22,1.5-43.9,1.5-65.9,0c-0.5-6.1-0.5-12.1,0-18.2c22-1.5,43.9-1.5,65.9,0
			C96.4,60,96.4,66,95.9,72.1z"/>
		<path fill="#D4D3D3" d="M95.9,53.9c-2-0.1-3.9-0.3-5.9-0.4c0.3,6.3,0.3,12.6,0,18.9c2-0.1,3.9-0.2,5.9-0.4
			C96.4,66,96.4,60,95.9,53.9z"/>
	</g>
</g>
</svg>
