<?xml version="1.0" encoding="utf-8"?>
<!-- Generator: Adobe Illustrator 24.3.0, SVG Export Plug-In . SVG Version: 6.00 Build 0)  -->
<svg version="1.1" id="Layer_1" xmlns="http://www.w3.org/2000/svg" xmlns:xlink="http://www.w3.org/1999/xlink" x="0px" y="0px"
	 viewBox="0 0 126 126" enable-background="new 0 0 126 126" xml:space="preserve">
<g>
	<path fill-rule="evenodd" clip-rule="evenodd" fill="#DA261B" d="M76.3,19.7c0-0.1-0.1-0.1-0.1-0.2C76.1,19.7,76.2,19.7,76.3,19.7
		L76.3,19.7z M23.1,40L23.1,40c0.2,0,0.3,0.1,0.5,0.1C23.4,40,23.2,39.9,23.1,40L23.1,40z M82.7,15.3L82.7,15.3
		C82.7,15.3,82.8,15.3,82.7,15.3C82.8,15.3,82.7,15.3,82.7,15.3L82.7,15.3z M20,75.8L20,75.8l0.3-0.3l-0.5,0.3l0.3,0.6l0.3-0.3
		C20.3,76.2,20.2,75.9,20,75.8L20,75.8z M91.6,19.7L91.6,19.7C91.6,19.7,91.6,19.7,91.6,19.7C91.5,19.7,91.5,19.7,91.6,19.7
		L91.6,19.7z M48.9,97.4L48.9,97.4c0.1-0.2,0.1-0.4,0-0.5C48.9,97.1,48.8,97.2,48.9,97.4L48.9,97.4z M41.9,39.6L41.9,39.6
		c0,0.1,0.1,0.1,0.1,0.2C42.1,39.7,42,39.6,41.9,39.6L41.9,39.6z M24,40.3L24,40.3c-0.1-0.1-0.2-0.1-0.4-0.2
		C23.7,40.2,23.8,40.3,24,40.3L24,40.3z M49.4,96.6L49.4,96.6c0,0-0.1,0-0.1,0.1C49.3,96.7,49.4,96.6,49.4,96.6L49.4,96.6z
		 M107,48.9L107,48.9c0-1.5,0.1-2.9-0.6-4.1c0.1-0.2,0.4-0.2,0.3-0.5c-0.1-0.1-0.2-0.4-0.5-0.3l-0.2-1c0,0.1-0.1,0.1-0.2,0.2
		l-0.8-0.8c-0.9,0.3-1.8-0.6-2.6-0.5l-0.3-0.3l-0.3,0.3c-0.3-0.2-0.3-0.5-0.5-0.7c-4.2,1.6-4.9-3.7-7-5.5c0-0.2-0.2-0.9-0.3-1.1
		l-0.2,0.2l-0.3-0.3c-0.1-0.3,0.2-0.4,0.1-0.7c-1.2,0.3-1-1.3-1.9-1.6l0.2-0.2c-0.7-0.1-0.3-0.8-1-1l0.2-0.1l-0.5-0.5
		c0.1-0.1,0.2-0.2,0.3-0.2c0-0.4-0.7-0.5-0.5-0.9c0.2-0.4,0.4,0,0.7,0c0-0.3-0.2-0.7,0.1-0.8c0.3,0.7,1.1,0.3,1.5,0.5
		c-0.6,1-1.1,0.2-1,1.5l0.3-0.3l0.2,0.1c0.1,0.4-0.1,0.7-0.5,0.8c0.6-0.2,1,0.6,1.1,0.8c0.1,0,0-0.6,0.5-0.3c0.4,0.2,0,0.4,0,0.7
		c0.4-0.2,0.7,0.2,1,0.5l-0.2,0.2c-0.3,0.1-0.5-0.1-0.6-0.3c-1,1.1,0.6,0,0.6,0.8c1,0.1,0.5-0.5,1.1-0.9c-0.3-0.5-0.7-0.8-0.5-1.3
		l-0.5-0.6l0.1-0.2c-0.4,0-0.8-0.6-1.3-0.1c-1.1-0.9,0.6-0.6,0.6-1c-0.1,0-0.2-0.1-0.3-0.2c0.9-0.3-0.4-0.7,0.1-1.1l-0.3-0.3
		c0-0.2,0.1-0.5,0.3-0.7c-0.1-0.8,0.3-1.9-0.3-2.3l0.6-0.7h-0.2c-0.2-0.3-0.7-0.4-0.5-0.8c-0.1-0.6,0.8-1.7-0.2-1.8
		c0.3-0.1,0.5-0.5,0.8-0.1c0.2-1.2,0.3-2.2,0-3.4c1.2-1.8-2.7-0.4-2.4-2.6c-0.2,0-0.4,0-0.5,0.2c-0.6-1-2.6-0.4-2.6-2
		c-0.5,0-1.1-0.7-1.5,0c-0.1-0.1-0.2-0.2-0.2-0.3c-0.8-0.2-0.4,0.3-0.6,0.7c-0.6,0.7-0.8-0.1-1.2-0.3c-0.3,0.3-0.7,0.6-0.8,1
		c-0.5-0.6-0.9,0.5-1.3,0.3c0.7,0.5,2.2-0.6,1.9,0.7l0.2-0.5c0.8-0.3,0.6,0.6,0.7,0.7c0.1-0.4,0.4-0.6,0.8-0.5
		c0.1,0.1,0.2,0.2,0.2,0.3c0.2-0.3,0.8-0.2,1,0.1c-0.6,0.4,0,0.4-0.6,0.7c0.2,0.7,0.6-0.2,0.9,0.3l-0.1,0.5c0.4-0.1,0.9-0.4,1.3-0.2
		v0.3c1.2-0.4,1,0.6,1.8,0.9c-0.6,0.4-0.1,0.4,0,0.8l0.2-0.8c0.3,0.4,0.8,0.8,0.6,1.1l0.3-0.6l0.3,0.3c0,0.2,0.1,0.6-0.2,0.7
		c-0.2-0.1-0.5,0.1-0.6,0.2c0.3,0.4,0.7,1,0.3,1.5c-0.9-0.3-1.2-1.1-2-1.5c-0.2-1.2-1.4-0.8-1.6-1.6c-0.5-0.2-1-0.5-1.3-1.1
		c-0.9,0.3-2-1-2.8-0.8c-0.3,0.2-1-0.4-1.3,0.2c-0.3-0.2-0.4-0.9-0.2-1c-0.5,0-1.5,0-1.9,0.3h0.3c-0.2,0.7,1,0.5,0.5,1.1
		c-0.3,0-0.4-0.3-0.6-0.5c-0.7-0.2-1.4-0.5-1.5,0.5l-0.3-0.5c-0.3,0.1-0.4,0.6-0.8,0.5v0.3c0.2,0,0.4,0,0.5-0.2l0.5,0.7
		c-0.8,0-0.1,0.4-0.5,0.8l-0.2-0.2c-0.6,0.8-1.3-0.2-1.5,1C77.2,19.1,77.1,19,77,19c0.2,0.4-0.4,0.7-0.7,0.7c0,0,0,0.1,0,0.2
		c-1,0.5-2.2,0.5-3.4,1l0.3,0.5c-0.3,0.5-0.6-0.2-1,0c-1.3,1.3-2.2-1.3-3.6,0c-0.3-0.2-1.1,0.1-1-0.6C66.8,21.3,66,21.3,65,21
		l0.2-0.2c-1.2,0.1-1.7-0.1-2.8-0.6l0.2-0.2c-0.9-0.6-1.8-1.6-2.1-2.6c-0.2-0.1-0.5,0.1-0.6-0.2c0.2-0.1,0.2-0.3,0.2-0.5
		c-1.8,0.1-1.1-2-2.4-2.1c-0.8-1-2.4-0.3-3.4,0c-0.1-0.1-0.2-0.2-0.2-0.3l-0.3,0.3c-0.6-0.8-1.6,0.3-2.3,0.1
		c0.3,0.9-1.1,0.1-1.1,0.8c-1.9-0.4-1.7,1.8-2.6,2.9l0.2,0.2c0.1,0.3-0.1,0.4-0.3,0.6c0,0.9-0.5,1.7-1.3,2.1l0.8,0.7
		c-0.4,0-0.4,0.8-1,0.7l0.3,0.8c-1,1-0.5,2.6-1.9,3.1c0.2,1.5-1.1-0.2-1.5,0.8c0.2,1.3-1.4,0-2,1.1l0.2,0.2
		c-0.5,0.2-0.8,0.4-1.1-0.2c-0.3,0.3-0.1,0.9-0.7,1l-0.1,1.1c-0.5-0.9-1,0.2-1.5,0.3c0.1,0.3,0.4,0.1,0.7,0.2V31
		c0.3,0,0.6-0.6,0.9-0.1v0.3c-0.8,0-0.7,0.8-1.6,0.5L38,32c0.1,0.3-0.1,0.5-0.3,0.6c-0.2-0.2-1-0.5-0.8-0.2l0.5,0.5l-1.2,0.2
		l0.2,0.1c-0.5,0.1-1.6,0.6-2.3,0.7c0.1,0,0.2,0.1,0.2,0.2c-0.6,0-1.2,1.2-1.8,0.3c-0.2-0.4,0.3-0.5,0.3-0.7c-0.1,0-0.2-0.1-0.3-0.2
		L32,34.1c0.6,0.4,0.9,1.2,0.8,1.6c-0.4,0.2-0.5-0.3-0.8-0.5c0.1-0.1,0.2-0.2,0.2-0.3c-1.2,0.4-0.8-1.3-1.8-1.1
		c-0.1-0.1-0.2-0.2-0.1-0.3c-0.3,0.1-0.7,0.6-1,0.2l0.3,0.7c-0.1,0.1-0.2,0.2-0.3,0.2c-0.1-0.2-0.4-0.2-0.3-0.5
		c-0.9,0.2-1.8,1-2.7,0.8c-0.4,0.9,0.6,0.4,0.8,1.1c-0.6,0.6-0.9-0.4-1.5-0.3c-0.1,0,0.1,1-0.6,0.6c0.5,0.4,0.1,0.8,0,1.3l-0.5-0.5
		c0.1-0.1,0.2-0.2,0.3-0.2c-0.3-0.1-1,0-1.3,0.3l0.2,0.1c-0.2,0.2-0.3,0.4-0.6,0.3c-0.2,0.5,0.6,1.6-0.7,1.5
		c0.2,0.1,0.2,0.3,0.2,0.5l0.8-0.7c0.2,0.2,0.5,0.4,0.5,0.7h0.5l-0.3-0.5c0.3-0.4,0.6,0.1,0.8,0.2c-0.5,0.6,0.5,0.9,0.2,1.4
		c-0.2-0.2-0.7-0.2-0.5-0.6c-0.1,0.2-0.3,0.2-0.4,0.2c0.1,0.1,0.2,0.2,0.3,0.3c-0.5,0.3-1.3-0.2-1.8,0.5l-0.5-1
		c0.1,0.4,0.3,1.1-0.3,1.1c0.2,0.9,1.2,1.1,1.3,2.1c0,1,1,0.7,1.8,1v0.2c-0.3,0.3-0.9,0.4-1.1,0.3c0.3,0.2,0.4,0.5,0.3,0.8l0.2-0.2
		c0.1,0.4,1,0.9,0.3,1.3l0.8,0.6l-0.3,0.5h0.3c0.1,0.4,0.5,0.8,0,1c1.1,1,2,2.6,2.1,4c-0.5,1.3-0.4,3.2-1,4.4h0.2
		c0.2,0.2,0.4,0.3,0.3,0.6c-0.2,0.2-0.3,0.4-0.6,0.3c0.2,0.4,0.9-0.1,0.8,0.5c-0.1,0.1-0.2,0.2-0.3,0.2l-0.2,1.1l-0.6-0.3
		c-0.2,0.2-0.2,0.4-0.3,0.6c0.6,0.1,0.8,0,1.1-0.5l0.3,0.5l0.1-0.8c1.1,1-0.3,1-0.7,1.8c-0.1-1-1,0-1.4-0.5c0.2,1-1.6,0.6-1,1.6
		c-0.1,0-0.2-0.2-0.3-0.1c0.4,0.3,0,0.9-0.3,0.9l0.3,0.3l-0.2,0.2c-0.8-0.3-0.3,0.5-0.5,0.6c-1,0.1,0,2.6-1.6,1.8
		c-0.2-0.7,0.9-0.4,0.5-1.2c-0.7,0.4-1.2,1.3-1.9,1.6l0.2,0.2c-0.2,0.4-0.6,1-1.2,1c0.8,0.9-0.3,2.5,1.2,2.6c0,0.2,0,0.4-0.2,0.5
		l-0.3-0.3c-0.1,0.1-0.2,0.2-0.2,0.3c0.1,0,0.2,0,0.3,0.2c-0.1,0.2-0.3,0.2-0.5,0.2l0.3,0.8c0.3,0.7-0.1,1.2,0.7,1.8
		C20.2,74.1,20,74,19.8,74c-0.2,0.9,1,0.9,1.1,1.6l-0.5,0.5c0.1,0.1,0.6-0.1,0.5,0.5c-0.1,0.1-0.2,0.2-0.3,0.2l0.2,0.5
		c0.1,0,0.2-0.2,0.3-0.2c-0.1-0.5,0.1-1,0.5-1.1c0.9,0.4-0.4,1.3,0.5,1.6v-0.8h0.3c0.4-0.1,0.7,0.3,0.7,0.4l0.1-0.1
		c0.8-0.3,1.4,1,1.6,1.2l0.3-0.3c0.2,0.1,0.1,0.3,0.2,0.5c-0.1,0-0.2,0.2-0.3,0.2l0.8,0.1c-0.2,0.2-0.3,0.4-0.6,0.3
		c0.6,0,0.9,0.3,1.6,0.6c0.1,0,0.4-0.6,0.7-0.2l0.3-0.3c0.3,0.2,0.8,0.2,0.8,0.6l-0.2,0.2c-0.3,0.1-0.5-0.2-0.6-0.3
		c0,0.1-0.2,0.2-0.3,0.2c0,0,0.1,0,0.1,0l0.6,0.5c0.3,0.2,0.5,0.2,0.6-0.1c0,0.5,0.6,0.1,0.8,0.5c0.3-0.6,0.7-1,1.3-1.6
		c0.9,0.3,1-0.2,2.1,0.2c0.4,1.1,1.8,0.9,2,2.3c0.2,0,0.4,0,0.5,0.2c-0.3,0.2-0.3,0.4-0.5,0.6l0.6,0.2L35.2,83
		c-0.4-0.1-1-0.2-1.1-0.7c0.1-0.2,0.3-0.2,0.5-0.2c0.1-0.1-1.2,0.1-1.3-0.6c-0.6,0.6-0.3-0.6-0.6-0.6c-0.1,0.3,0.1,0.7-0.2,1
		c-0.9,0,0.3-0.5-0.3-0.8l-0.5,0.3l-0.3-1.8c-0.2,0.4-0.2,1.1-0.6,1.3l0.6,0.2c-0.2,0.2,0,0.7-0.5,0.6l0.2,0.2l0.3-0.3l0.3,0.3
		l-0.5,0.6l0.5,0.2c0.5-0.9,1.2-0.1,1.8-0.3v0.8c-0.3-0.1-0.4,0.2-0.7,0.2c0.6,0.6,1.5-0.4,2.1-0.2c0,0.2-0.6,0.2-0.2,0.2l0.5,0.5
		l-0.5,0.6l0.3,0.3l-0.3,0.3l0.5,0.5c-0.1,0.2-0.3,0.2-0.5,0.2c0.2,0.5,1,0.9,1.1,1.4l0.3-0.6c0.3,0.1,0.1,0.4,0.2,0.6
		c0,0.3-0.3,0.4-0.5,0.3c0.2,0.3,0.1,0.7,0.6,0.8c0.2,0.9-1.1,1.8-0.5,2.1c-0.1,0.3-0.4,0.1-0.6,0.2c0,0.5-0.4,1.4,0.2,1.9l-0.8,0.2
		c0.4,0.6,0.8-0.2,1.1,0.5c-0.7,0.9,0.9,0.6,0.8,1.3l0.1-0.2c0,0.8,1.2,0.4,1.5,1.3c-0.1,0-0.2,0.2-0.3,0.1l0.2,0.2l0.2-0.2
		c0.5,0.7,0.9-0.7,1.5,0.2c-0.1,0.6,0.9,1.4-0.2,1.6l0.5,0.5L40,98.2c0,0.7,0.5-0.6,0.9-0.1c0.1,0.1,0,0.2-0.1,0.3
		c0.9-0.4,0.2,0.8,0.6,0.3l0.2-0.2c0,0.6,0.6,0.8,0.9,1.1c0,1.8,0.1,3.7-0.1,5.4c0.5,1.1-1.1,1.8,0.1,2.6c-0.6,0.7-0.2,1.5-0.3,2.3
		c0,0.3,0.6,0.7,0,1c0.7,0.8-1.2,1.5,0.2,2.1c0.6,0,1.3,0,1.4-0.6c-0.6-1.5-0.1-3.8-0.5-5.2c0.2-0.3,0.3-1.3,0.5-1.6
		c-0.2-1.2,0.3-2.8,0.2-4.1c0.3-0.6,0.1-1.5,0.7-1.9c0.2,0.1,0.1,0.3,0.2,0.5c0.8-0.2,0.4-1.6,1.4-1.8c0.2,0.1,0.1,0.3,0.2,0.5
		l0.1-0.2c0.2,0.2,0.5,0.4,0.5,0.6l0.2-1.4c0.2-0.6,0.6,0.4,0.6-0.3l-1-0.1c0.6-0.2,0.1-0.9,0.5-1.1c0.2,0.7,1.3,0.5,1.5,0.8
		c0.1-0.1,0.2-0.2,0.3-0.3c-0.3,0-1.1-0.5-1.5-0.7l0.6-0.8c0.3,0.2,0.9-0.3,1.2-0.2l0.2-0.8c1.4-0.8,2.6-0.2,3.4-1.4
		c0.2,0.1,0.2,0.3,0.2,0.5c0.7-0.6,1.4,0.3,2,0.1c0.2,0.3,0.7,0.4,0.5,0.8c0.6,0.2,0.3-0.3,0.5-0.5c0.9,0.5,3,0.1,3.6,0.6
		c0.1,0,0.2-0.2,0.3-0.2c0.3,0,0.8,0.8,0.8,0c0.3,0.8,1.6,0.5,1.9,1.5l0.2-0.2c0.4,1.6,1.7,1.5,2.6,2.6c-0.2,0.7,0.3,0.3,0.7,0.6
		c0.1,0.1-0.1,0.2-0.2,0.3l1.5,1.6c0.7,0.6,1.8,0.2,2.3,0.3l-0.2-0.2c0.7-0.8,2.3,0.1,3.1-0.8c0.6-0.3,1.3-0.7,1.8-0.7
		c0.3-0.3,0.9-1.1,1.1-0.3v-0.6c0.3-0.8,0.9,0.1,1.3-0.2c0.8,0.7,0.4-0.4,1.5-0.3c0.1-0.2-0.1-0.6,0.2-0.7c0.1,0.1,0.4,0.2,0.3,0.5
		c0.1-1.3,1.3,0.2,1.3-1c-1.7-0.7,1.1-1.1,0.3-2.1l0.3,0.3L81,94l0.5,0.3L81,93.9l0.3-0.3c-0.1-0.2,0.2-0.3,0.3-0.5l-0.3-0.3l0.8-1
		c-1-0.7,0.6-1.2,0-1.6c-0.1-0.1,0.1-0.2,0.1-0.3c0.2-0.1,0.2,0.1,0.3,0.2l1-1c0.8-0.6,1.9-1.3,2.1-2c0.6-0.3,1.8-0.4,2.3-1.3
		c0.5-0.3-0.3-1.2,0.5-0.7c0.2-0.7,1.4-0.5,1.4-1.5c0.2,0,0.4,0,0.5,0.2l0.2-0.6c0.5,0,0.3,0.5,0.6,0.6c0.7-0.4,1.7,0.2,2.3-0.5
		l0.1,0.2c0.8,0.5,1.3-0.2,1.5-0.8l0.1,0.1c0.5,0.1,0.3,0,0.5-0.3c0.4-0.1,0.9,0,1,0.5c0.2-0.5,0.6-0.1,0.8-0.3h-0.5
		c-0.2-0.3-0.2-0.8-0.2-1h0.2c0-0.2,0-0.4-0.2-0.5l0.5-0.5c0.1-1,1.7-0.6,1.8-1.6c0.5,0.2,0.3,0.5,0.8,0.8l-0.1-0.8
		c0.4-0.5,2.1,0.4,1.5-0.8l0.3-0.3c0-0.1-0.1-0.2-0.1-0.3l-0.2,0.2c-0.4,0.1-0.7-0.2-0.8-0.3c0,0.2-0.1,0.2-0.2,0.3
		c-0.2-0.1-0.5,0.1-0.7-0.2c0.1,0.9-0.6,0.1-0.8,0.3c0.6-0.6-0.3-0.8-0.5-1.1c0.5-0.2,1.4-0.4,1.6,0c-0.1,0.1-0.2,0.2-0.3,0.2
		c0,0.4,1.3-0.4,1.8,0.3c-0.1-0.8,0.2-1.3-0.2-1.8l0.2-0.1l-0.5-0.5l0.2-0.2c0.2-0.5,0.5-0.4-0.2-0.8c0.1-0.2,0.3-0.1,0.5-0.1
		c-0.4-0.7-0.4-1.4-1.1-1.8l0.3-0.3c0.5,0.1,0.9,0.4,0.9,1V72c-0.2-0.4,0-1.1-0.7-1.1c0.1-0.1,0.2-0.2,0.3-0.2c0-1-1.5-1.4-1.6-2.1
		l0.2-0.2l-0.5-0.2c0.6-0.2,0.4-0.8,0.8-0.9l-0.3-0.3l0.5-0.3c1-3,0.7-6.6,1.4-9.7c0.2,0,0.2,0.1,0.3,0.2l3.1-2.7
		c0.5-0.5,1.6-0.2,1.6-1l-0.2-0.2C107.2,51.7,106.9,50.5,107,48.9L107,48.9z M92.7,21.5L92.7,21.5c0.1,0.3,0.5,0.1,0.5,0.5h-0.5
		V21.5L92.7,21.5z M90.4,17.1L90.4,17.1v-0.2l0.8,0.2H90.4L90.4,17.1z M91.2,22.5L91.2,22.5c1,0.1-0.1-0.7,0.5-1l0.6,0.5
		c-0.3,0-0.4,0.3-0.6,0.5v0.6l-0.6-0.2C91.3,22.8,91.2,22.6,91.2,22.5L91.2,22.5z M23.4,38.2L23.4,38.2c0.2-0.1,0.2-1,0.6-0.5
		L23.4,38.2L23.4,38.2z M24.5,40.9L24.5,40.9c-0.1,0-0.2-0.1-0.3-0.1C24.4,40.7,24.5,40.8,24.5,40.9c0.2,0.1,0.4,0.1,0.4,0.4
		C24.4,41.5,24.6,41.1,24.5,40.9L24.5,40.9z M25,39L25,39c-0.2,0-0.2,0.1-0.3,0.2l-0.4-0.4c0,0-0.1-0.1-0.1-0.1l0.1,0.1
		c0.1,0.1,0.2,0,0.4,0l0.2-0.5c0.3,0.1,0.7,0.3,1,0.7c0.1-0.1,0.2-0.2,0.3-0.1C26,39.3,25.4,39.5,25,39L25,39z M20.2,67.3L20.2,67.3
		c0.1-0.8,0.9,0.1,0.8-0.8c0.2,0,0.4-0.1,0.5,0.1C21.2,67.4,20.5,67.2,20.2,67.3L20.2,67.3z M21.9,68.7L21.9,68.7l0.2-0.2l0.1,0.2
		H21.9L21.9,68.7z M23.9,66.1L23.9,66.1l0.5-0.5l0.2,0.1L23.9,66.1L23.9,66.1z M24.5,63.8L24.5,63.8c0.6-0.1,1,0.3,1.3,0.8
		L24.5,63.8L24.5,63.8z M25.7,78.1L25.7,78.1v-0.5c0.6-0.3,0.8,0.6,1.3,0.7C26.8,78.7,26.2,77.4,25.7,78.1L25.7,78.1z M27.8,35.6
		L27.8,35.6c0.4-0.2,1,0,1.1-0.7c0.1,0.5,0.9,0.1,0.7,0.7h-0.3v-0.3C28.6,34.9,28.6,36,27.8,35.6L27.8,35.6z M30,79.1L30,79.1
		c-0.3-0.1-0.5,0.3-0.8,0.3l-0.6-0.7C29.2,78.7,29.6,78.8,30,79.1c0.1,0,0.1,0.1,0.2,0.1C30.2,79.2,30.1,79.2,30,79.1L30,79.1z
		 M32.7,39.7L32.7,39.7h-0.2V39h0.2V39.7L32.7,39.7z M80.5,17.1L80.5,17.1c0.1,0.3-0.2,0.6-0.5,0.5h-0.5
		C79.8,17.5,80,16.9,80.5,17.1L80.5,17.1z M65.2,51.5L65.2,51.5l2.1-1.6l0.2,0.2c0.2-0.2,0.3-0.5,0.6-0.5l0.2,0.2
		c0.2-0.1,0.1-0.3,0.1-0.5c1.1-0.1,1.7-0.3,2.8-0.5c0.9,0.1,2,0.6,2.4,1.5c0,0.2,0,0.4-0.2,0.5c0.8,1.3,0.5,2.9,0.3,4.1
		c-0.8,0.2-1.6,0.9-2.1,1.3c-0.5-0.9-0.7,0.6-1.3-0.3c-0.2,0.1-0.2,0.3-0.2,0.5c-0.5-0.7-1.2-0.1-1.6-0.5c-0.2,0.1-0.2,0.2-0.2,0.3
		c0,0,0,0.1,0,0.1c0,0,0-0.1,0-0.1c-0.1-0.1-0.2-0.2-0.3-0.3c-0.6-0.2-1.3,0.5-1.8-0.5l-0.5,0.2c0-0.6-0.7-1.3-0.7-1.9
		c0.2,0,0.4,0,0.5-0.2c0-0.2-0.1-0.2-0.2-0.3h-0.3c0.1-0.1,0.2-0.2,0.2-0.3C64.9,52.8,65.8,51.9,65.2,51.5L65.2,51.5z M63.3,57
		L63.3,57c0.4,0.4,1,1.5,1.8,1.1L65,58.3c0.1,0.8,1.7,0.9,1.1,1.9c0.1,0.3,0.6,0.7,0.2,1c0.2,0.1,0.3,0.4,0.5,0.3l0.1-0.2
		c0.1,0.3-0.1,0.5-0.3,0.6c0.5,0.4-0.3,0.2-0.2,0.6c-0.2,0-0.4,0-0.5,0.2c0.1,0.3,0.4,0.1,0.7,0.2c-0.6,0.7-0.9-0.9-1.2,0.3
		c-0.5,0.3-0.6-0.8-1-0.1C63.2,61.6,62.5,59.2,63.3,57L63.3,57z M66.8,66.9L66.8,66.9v0.5l-0.2-0.6L66.8,66.9L66.8,66.9z M67.2,75.4
		L67.2,75.4c-0.8,0.4-1.2,0-1.8-0.2c-0.3-0.8-0.8-1.4-0.8-2.3l-0.3-0.3c-0.5,0.2-0.7,1-0.3,1.5l0.2,0.2c-0.6,0.5-1,0.1-1.3-0.5
		c0.2-0.5-0.3-0.9-0.6-1c-0.7,0.6,0,1.4,0,2.1c-0.9-0.1-0.6-1.3-1.1-1.9c0.5-1.3-0.9-2.4-0.5-3.6h0.7c0.3,1-0.1,2.5,1,2.9
		c-0.2-0.5-0.1-1.3,0.2-1.9c-0.8-0.8,0-1.7,0-2.6c0.2,0.3,0.2,1.1,0.6,1.3c-0.7,0.5,0.1,1-0.2,1.6c0.6-0.2,0.7,0.7,0.8,1.1
		c0,0.2,0.1,0.2,0.2,0.3c0.3-0.4,0.1-1.1,0.2-1.6c0.1-0.1,0.2,0.1,0.3,0.1c0-0.7-0.9-2,0.3-2.6c0.3-0.1,0.5,0.7,0.8,0.1
		c0.1,0.5-0.1,0.8-0.3,1.1c1.1,0.9,0.4,2.4,1.3,3.6C66.2,74,67.1,74.5,67.2,75.4L67.2,75.4z M60.7,58.5L60.7,58.5L60.5,58
		c0.8-0.2,1.2,0.9,1.5,1.5c-0.2,1.4,2,3.4,0.3,4.2c-0.5,0.7-0.9,0.3-1.6,0.2c-0.7-0.4,0.1-1.7-0.6-2.6C60.1,60.2,60,59.2,60.7,58.5
		L60.7,58.5z M59.6,70.2L59.6,70.2c0.5,0.7,0.3,1.6,0.8,2.3c-0.1,0.7,0.3,1.6,0.5,2.3c-0.8-0.5-0.4-1.5-0.8-2.6
		C59.7,71.5,59.5,70.9,59.6,70.2L59.6,70.2z M60.1,74.7L60.1,74.7h-0.5v-1.1C59.7,74,60.1,74.2,60.1,74.7L60.1,74.7z M51.8,17.9
		L51.8,17.9l0.3,0.5l-0.5-0.2L51.8,17.9L51.8,17.9z M51.6,52.5L51.6,52.5c0-0.1,0-0.2,0.1-0.3c0-0.1,0.1-0.2,0.1-0.3
		c0.2,0,0,0.1-0.1,0.3C51.7,52.3,51.7,52.4,51.6,52.5c0,0.1,0.1,0.1,0.2,0.2c0.7-0.7,1.2-0.8,2.1-0.5l0.3-0.3l0.2,0.5
		c1.1,0.7,2.8,0,3.9,0.8c0.2,1.2,0.2,1.9,0,3.3c-0.3,0.8-1,1.1-0.6,1.9c-1,1.1-2.3,0.4-3.2,1.3c-1.2-0.4-2.6,0.5-3.8-0.2h-0.3
		c0,0-0.1,0-0.1,0h0.1c0.1,0,0.1-0.1,0.2-0.2c0-0.3,0-0.6-0.3-0.8H50c1.5-0.1-0.9-2.8,0.8-3.7C50.4,53.9,51.2,53.3,51.6,52.5
		L51.6,52.5z M53.2,69.8L53.2,69.8c-0.3-0.4-0.4-0.9-0.8-1.3l0.3-0.3c-0.2-0.6-0.7,0.5-0.5-0.3c0.4,0,1.1,0,1.3,0.7
		c0.1-0.1,0.2-0.2,0.3-0.2c-0.1,0.8,0.7,1,1.3,1.1c0.1,0,0.2,0,0.2,0c0,0,0.1,0,0.1-0.1c0-0.1-0.3-0.4,0-0.4c0,0.1,0,0.3,0,0.4
		c0,0,0,0.1-0.1,0.1c0,0,0,0,0,0c0.3,0.2,0.3,0.5,0.3,0.8h-0.8c-0.3,0.4,0.3,0.8,0.3,1.3c0.7,0.2,1.2,1.7,2.1,1.3
		c0.1,0.4-0.3,1.2,0.3,1.3l0.3-0.3l0.2,0.7c-0.5,0.4-0.9,0.4-1.6,0.1c-1.7-0.5-1.7-2.5-2.8-3.7C52.9,70.8,53.7,70.3,53.2,69.8
		L53.2,69.8z M57,71.8L57,71.8v-0.6h0.1v0.6H57L57,71.8z M51.8,67.9L51.8,67.9l-0.5-0.5H52C51.8,67.5,51.8,67.7,51.8,67.9L51.8,67.9
		z M49.8,31.9L49.8,31.9H50c-0.1,0.2,0.2,0.3,0.3,0.5h-0.5V31.9L49.8,31.9z M51,69.2L51,69.2v-0.5c0.1,0,0.2,0.2,0.3,0.2v-0.7
		c1-0.4,0.8,0.8,1.1,1.1c-0.2,0.1-0.5-0.1-0.6,0.2c0.4,0.3,0.1,1,0.6,1.5l0.2-0.2L52.4,72c-0.6-0.2-0.9-1.1-1.2-1.2
		c-0.1,0-0.1,0.1-0.2,0.1c0.1-0.1,0.2-0.1,0.2-0.1c0.1-0.1,0.2-0.2,0.3-0.3l-0.3-0.7c0.1,0.1,0.2,0,0.3-0.1v-0.2
		c-0.4-0.3-1.2,0.6-1.6-0.2C50,68.6,50.5,70.2,51,69.2L51,69.2z M47.3,33.3L47.3,33.3c-0.1,0.2-0.3,0.2-0.5,0.2
		c0.4-0.5,1.6,0.1,1.8-0.8c0.1,0,0.2,0.1,0.3,0.2h-0.2c-0.5,1.3,1.2-0.3,0.8,1.1c-0.9,0.4-1.9-0.2-2,0.9c-0.3,0.6-0.6,0.2-1,0
		c0.7-0.1,0.5-0.9,1-1.3L47.3,33.3L47.3,33.3z M48.7,60.8L48.7,60.8c-0.4-0.4-0.6-0.6-0.2-1c-0.5-0.3-0.4,0-0.8-0.5l-0.2,0.2
		c-0.2-0.1-0.5-0.5-0.2-0.8c0.8-0.1,1,0.2,1.5-0.5c-0.8,1.3,0.1,1.2,0.5,2.4C49.3,60.9,48.9,60.7,48.7,60.8L48.7,60.8z M49.2,66.1
		L49.2,66.1l-0.7,0.2l0.2-0.2H49.2L49.2,66.1z M46.6,34.1L46.6,34.1l-0.1,0.5l-0.3-0.5H46.6L46.6,34.1z M40,33.8L40,33.8
		c-0.4,0.4-0.9-0.1-1.3-0.2L40,33.8L40,33.8z M37.5,45.4L37.5,45.4l0.1,0.5l-0.5-0.5H37.5L37.5,45.4z M36.5,50.7L36.5,50.7l0.3,0.3
		l-0.3,0.3c0.1,0.1,0.2,0.2,0.2,0.3h-0.3L36.5,50.7L36.5,50.7z M35.9,45.4L35.9,45.4c-0.4,0.4-0.8-0.1-1.1-0.2L35.9,45.4L35.9,45.4z
		 M35.4,47.1L35.4,47.1c0.1-0.1-0.1-0.2-0.2-0.3c-0.4,0.1-0.6,0.5-0.9,0.8l0.2,0.2c-0.2-0.1-0.5,0-0.7,0v-0.5
		c1.2,0.3,0.8-1.2,2.1-0.6L35.4,47.1L35.4,47.1z M35.4,83.2L35.4,83.2c0.2-0.3,0.5-0.4,0.8-0.3l-0.5,0.3l0.1,0
		C35.7,83.1,35.5,83.2,35.4,83.2L35.4,83.2z M35.7,83.5L35.7,83.5l-0.1,0.1C35.6,83.6,35.6,83.5,35.7,83.5l0.2-0.2
		c0,0-0.1-0.1-0.1-0.1l0.4,0.3C36.1,83.9,35.9,83.4,35.7,83.5L35.7,83.5z M36.5,85.8L36.5,85.8c-0.2,0.1-0.3,0.3-0.3,0.3
		C36.3,85.8,36.4,85.8,36.5,85.8c0.1-0.1,0.3-0.1,0.5,0.1C37,86.1,36.8,85.8,36.5,85.8L36.5,85.8z M36.2,84.3L36.2,84.3
		c0.4-0.2,0.2-0.9,0.8-0.7L36.5,84c0.9,0.2-0.4,1,0.7,1.3C36.4,85.3,36.8,84.6,36.2,84.3L36.2,84.3z M77.3,97.6L77.3,97.6
		c-0.1-0.3,0.3-0.5,0.5-0.2L77.3,97.6L77.3,97.6z M92,56.2L92,56.2c-0.1,1.8-0.2,3.5-0.6,5.4l0.3,0.3c-0.9,1.1-0.8,2.6-1.1,3.7
		c-0.2,0.6-0.5,1.2-1,1.8c-0.4,1.6-1.2,2.9-1.8,4.4l-0.5,0.5l0.2,0.2c-0.7,1.4-1.8,2.7-3.2,3.8l0.2,0.1c-0.4,0-0.7,0.5-0.3,0.8
		c-0.1,0.1-0.2,0-0.3-0.1c-0.4,0.6-1,0.8-1.5,1.5c0.1-0.2,0-0.2-0.1-0.3c-0.2,0.2-0.5,0.4-0.5,0.6l0.1,0.1c0.1,0,0.1,0,0,0l0,0
		c-0.2,0-1,0.4-0.8,1c-0.3-0.1-0.5-0.2-0.8-0.2c-1.2,0.9-2.5,2.5-4,2.6c-0.9,0.4-1.5,1.3-2.6,1.2c-0.3,0.7-1.9-0.1-1.5,0.8
		c-2.2,0.1-3.8,1-5.8,0.5c-1.6,0.6-2.9,0.2-4.4,0.8l0.3-0.7c-1.3-0.2-2.8,0.1-4.1-0.5c-0.3,0.1-0.1,0.5,0,0.6l0,0c0.1,0.1,0,0,0,0
		l-0.4-0.5c-0.3,0.2-0.6-0.3-1-0.3V84c-0.7-0.1-1.8,0.1-2-0.8c-0.1-0.2-0.3-0.2-0.5-0.2l-0.3,0.5c-0.1-0.1-0.2-0.2-0.3-0.2l0.3-0.3
		c-0.3-0.4-1-0.4-1.5-0.2c0.1-0.1,0.2-0.2,0.2-0.3c-0.2-0.3-0.5-0.4-0.8-0.3l-0.2,0.2c0,0,0,0,0,0l0.2,0.2c0,0.4-0.1,0.1-0.2-0.2
		l0,0l0,0c-0.1-0.3-0.3-0.6-0.7-0.2c-0.1-0.3-0.4-0.5-0.6-0.8l-0.8,0.2l0.3-0.3c-0.1-0.1-0.2-0.4-0.5-0.3l-0.2,0.2l-0.3-0.3
		l-0.2,0.2c-0.4-0.2,0.9-0.4,0.2-1l-1,0.5c0.6-0.9-1.7-0.7-0.6-1.5l-0.2-0.2l0.3-0.3c-0.5-0.6-1.5-0.2-1.6-0.5h0.7
		c0.3-0.7-0.9-0.9-1.1-1.5c-0.4,0.1-0.4,0.6-0.8,0c-0.6-0.8-0.9-2.3-1.6-2.4c-0.1,0.1-0.2,0.2-0.2,0.3c-0.3,0,0-0.9-0.6-0.6
		c0.1-0.8,0-1.3-0.5-2l-0.5-0.3c0.6-0.2,0.1-0.5,0-0.8c-1-0.2-0.8-1.6-1.6-2.1l-0.2,0.6c0.3-0.8-1.4-1-0.3-1.6
		c-0.3-1-1.7-1.2-1.1-2.4c-0.2-0.2-0.3-0.4-0.6-0.3c0.5-0.3,0.6-0.9,0.3-1.3c-1.6-0.4,0.5-1.8-1.2-2.4c0.1-0.3,0.5-0.4,0.3-0.8
		L36.4,60c0.9-0.4-0.4-0.7,0.2-1c0-0.4-0.4-0.3-0.5-0.7c0.3-0.8,0.7-1.8,1-2.8c-0.2-0.4-0.7-0.8-0.5-1.1c0.8-1.5,1.1-3.6,1-5
		c0,0,0.2,0.2,0.3,0.1c0.8-0.3-0.1-0.7-0.2-1.1c0.2,0,0.2-0.1,0.3-0.2c0-0.3-0.4-0.5-0.6-0.8c-0.2-0.4,0.3,0,0.6-0.2
		c0,0.2,0,0.4,0.2,0.5c0.1-0.3,0.4-0.4,0.3-0.8c0.2,0,0.4,0,0.5-0.2L38.3,46c0.3,0,0.4-0.3,0.6-0.5c-0.1-0.4,0.3-1.2-0.3-1.3v-0.3
		c1,0.3,0.2-0.7,0.7-0.8c0.1,0.1,0.2,0.2,0.3,0.2v-0.5l0.2,0.2c0.6-1.1,2.1-2.1,1.4-3.4c0,0,0,0,0,0c0,0,0,0,0,0
		c0.1,0,0.5-0.1,0.7,0.1c-0.2-0.7,1.4-1.3,0.1-1.7c0.2-0.1,0.5,0.1,0.6-0.2c0-0.5,1.1-0.2,1.1-1c0,0.2,0.1,0.2,0.2,0.3
		c0.7,0.1,0.5-0.8,1.1-0.7c-0.2-0.4-0.1-0.7-0.2-1c0,0,0,0,0,0c0,0,0,0,0,0c0-0.2-0.1-0.3-0.3-0.5h0.5C45,35,45,35.2,45,35.4
		c0,0,0,0,0,0c0.2,0.3,0.5,0.1,0.8,0.2c0.4-0.2-0.2-0.5,0.3-0.5l0.5,0.5c-0.3,0.2-0.6,0.6-0.1,0.9c-0.7,0.3-1,1.1-1.3,1.5
		c-0.2,0.5,0.5,1-0.3,1.1l-0.2,0.2c0.2,0.2,0.5,0.2,0.6,0.5L44,40.3l0.1,0.5c-0.1,0-0.2,0.1-0.3,0.2l0.5,0.5
		c-0.1-0.1-0.2-0.2-0.3-0.1l-0.3,0.3l1,1c-0.3-0.2-0.9,0-1.3,0.2c0,0.2,0.2,0.3,0.3,0.5c-0.5,0.3-1.1,0.9-1,1.5l0.2,0.7
		c-0.3,0-0.7,0.5-0.5,1.3l0.5,0.3c-0.2-0.1-0.5,0.1-0.6-0.2c-0.3,0.7-0.1,0.9,0,1.6c-0.2-0.1-0.5-0.1-0.7-0.3
		c-0.2,0.1-0.2,0.3-0.2,0.5l0.3,0.3c-0.3-0.1-0.4,0.2-0.7,0.3l0.5,0.6c-0.2,0-0.2,0.1-0.3,0.2c0,0.1,0.1,0.2,0.2,0.3h0.3l-0.1,1.2
		c-0.2,0-0.2,0-0.3,0.2c0,0.1,0.1,0.2,0.2,0.3h0.5v0.2c0.2,0.3,0.5,0,0.6-0.2c0,0.1-0.1,0.7-0.6,0.8c0.4,0.1,0.3,1.1,0.8,0.5
		c0.3,0.3-0.6,1,0.2,1.3l0.8-1c0,0.6-0.9,1-0.3,1.6h0.3c0.1,0.4-0.3,1.1,0.3,1.3c0.5,0.8-1.1,1.9,0.1,2.4c-0.4,0.3,0.9,0.9,0.2,1
		l-0.2-0.2c-0.8,0.3,0.1,0.7,0.2,1.1c-0.7-0.2-0.8,0.4-1,0.8c0.1,1,0.3,0.6,0.8,1.3c0.2,0.3,0,1,0.5,1c0.1,0,0.1,0,0.2,0l0.1-0.1
		l0,0l0.2-0.2L45,63.9l0.7,0.6c-0.3,0-0.5-0.4-0.8-0.5l0,0c-0.1,0-0.1,0-0.1,0c-0.1,0-0.1,0.1-0.2,0.3c0.3,0.7,0.7,0.9,1.4,1
		c0,0.2-0.5,0.3-0.3,0.7c0.5,0,1.1,0.5,1.5-0.2v0.7c-0.4-0.2-0.6,0.3-0.8,0.5c0.2,0.2,0,0.7,0.5,0.5c0.6,0.3,0.4-1,1.3-0.9v-0.5
		l0.1,1.1h0.3l-0.5,0.3c0.1,1,1.1,1.9,1.3,2.4c0.6-0.4,0.6,0.7,1,0.5l0.3-0.2c-0.1,0.1-0.2,0.2-0.3,0.2l-0.7,0.5
		c0.9,1.5,3.8,1.8,3.1,4c1.1,2.4,1.4,4.8,4.1,6.2c0.9-0.7,1.6,0.6,2.4,0.6c-0.6,0.2-0.3,0.7-0.3,1.1l0.5,0.5l0.1-0.2
		c0,0.2,0,0.4,0.2,0.5c0.6-0.2,2.6,0.5,3.2,0c0.7,0,1.2-0.6,1.8-0.3c0.9-0.3,2.2-0.7,3.2-1.2c1-0.5,2.5,0.6,2.8-1.1
		c2.5-1.8,6.3-3.3,5.8-6.5h0.2c0.3-0.3,0-0.8-0.2-1.1c0.5,0.3,0.3-0.9,0.7-1.3c0.3-0.5-0.6-0.9,0.1-1.1c0.1-1.1,0-2.4-0.5-3.1
		c-0.8,1.1-0.4,3-1.8,3.6c0.3,0.2,0.6,0.4,1,0.3c-0.3,0.8-1.2-0.9-1.6,0.2l-0.5-0.2l0.3-0.3l-0.3-0.3c0.2-0.1,0.1-0.3,0.1-0.5
		l-0.6-0.5l-0.3,0.3c-0.1-0.7-0.9-0.5-1.3-0.3l-0.2,0.5l-0.5-0.5c-0.7,0.6,0.2,1.3,0.2,2l0.2,0.2l0,0c0,0.1,0.1,0.1,0.1,0.2
		c0.8-0.4-0.1-0.9,0.2-1.4c0.1,0.4,0.5,1,0.3,1.6c-0.2,0.1-0.4,0-0.5-0.2c0,0,0,0,0,0l-0.1-0.1l-0.7,1c-1.2-1.1-1.8-3-2.4-4.7
		c-0.7,1.3,0.7,2.7,1,4c0.2,0.9,0.2,1.4,0.3,2.1c-0.2,0.1-0.8,0-0.8-0.6l0.3-0.3c-0.9-0.5-0.2-1.9-1.3-2c0.3,0.8,0.1,2.1,0.2,3.1
		c-0.3,0-0.7-0.8-0.6-1.1c-0.6-1.2-0.8-2.5-1.1-3.8c0.3-0.3,0.9,0,1-0.6c-0.4-0.2-0.9-0.5-1-0.8c-0.5-0.9,0.9-0.3,1.3-0.7
		c0,0.2,0.2,0.3,0.3,0.5c0.1,0,0.2-0.1,0.3-0.2v-0.5h1.1c0,0.2,0,0.4,0.2,0.5c0.3,0.1,0.5-0.1,0.6-0.3c0.1-0.2,0-0.4-0.1-0.6
		c0.4,0.4,1.1,0.3,1.5,0.2v-0.3h0.3c-0.1,0.1-0.4,0.2-0.3,0.5c0.4,1,0.7-0.6,1.3,0.2l0.2-0.2c-0.1,0.4,0.8-0.1,1.1-0.2
		c0.2,0.3-0.1,0.9,0.5,1.3c0.8-0.9,0.6-2.1,0.6-3.3c-0.3,1.5-2.3-1-1.3,0.9h-0.5l0.2-0.1c-0.6-0.4-0.3-1.3-0.2-1.8
		c0.3-0.7,1.7-0.5,1.1-1.5l0.3,0.5c1.2-0.7,1.7-1.4,2.8-2c0,0.2,0,0.2-0.2,0.3l0.7,0.6c0.1,0,0.2-0.2,0.3-0.2c0,0.3,0,0.7-0.3,0.8
		l1.1,0.7c0.1-0.6,0.4-1.4,1-1.5c-0.1-0.2-0.3-0.1-0.5-0.1c0.3-0.2,0.4-0.5,0.2-0.8L79.9,60c0.1,0.2,0.8-0.8,0.5-1
		c0.1,0,0.2-0.1,0.3-0.2c0.1-0.7-0.6-1-0.8-1.6c0.1-0.5,1.6-0.6,0.8-1.5l-0.5-0.2c0.9-0.5-0.3-1-0.2-1.6c0.2-0.4-1.2-1.2,0-1.6
		c-0.8-1-0.3-2.8-1.3-3.6l-0.2,1.5c-0.6-0.8-1-1.9-1.3-2.9l0.5-0.3l-0.3-0.5c0-1.8,0.8-3.3,0.5-5.2c-0.6-0.4,0.5-0.9-0.3-1.1
		l0.3-0.3c-0.1-1.2,0.4-3.4-1.3-3.6c-0.2-0.3-0.5-0.4-0.8-0.2c0.6-0.4,0.2-1.1-0.1-1.3l0.1-0.2c-0.2-0.9-1.5-0.2-1.3-1.2l-0.2-0.2
		c0.8,0-0.2-0.7,0.6-0.8c0,0.2,0.2,0.3,0.3,0.5l1.3-0.2L76.5,33c2.4,1.2,4.4,2,6.3,3.7c1,1,2,1.9,2.4,3.1c1,0.6,1.4,2.2,2.6,2.9
		c-0.8,0.7,0.8,0.5,0.3,1.3c0.6,0.2,0.3,1.2,1.1,1.3c0,0.1-0.1,1.2,0.6,1.1c-0.5,0.2-0.2,0.7,0.2,1c0.1,0.4-0.1,1.2,0.3,1.5l0.2-0.2
		l0.2,1.5c0.1-0.1,0.2,0.1,0.3,0.1c-0.9,0.4,0.3,0.7,0.1,1.2h0.3c-0.3,0.5-0.1,1.6,0.2,1.9c0.5,0.6-0.5,1.4,0.3,1.9
		C91.5,55.6,91.9,55.9,92,56.2L92,56.2z M72.7,71L72.7,71c0.1,0.4,0.6,0.9,0.2,1.3L72.7,71L72.7,71z M76.5,50.5L76.5,50.5v-0.6h0.1
		v0.6H76.5L76.5,50.5z M78.8,55.9L78.8,55.9l0.3-0.2l-0.1,0.5C78.5,56.7,79.1,55.9,78.8,55.9L78.8,55.9z M78.8,50.9L78.8,50.9h-0.2
		l0.3-0.5L78.8,50.9L78.8,50.9z M96.8,78.5L96.8,78.5v-0.2c0.3,0,0.7-0.1,0.9,0.2H96.8L96.8,78.5z M97.2,69L97.2,69h0.5l0.2,0.2
		L97.2,69L97.2,69z M99.3,68.4L99.3,68.4l-0.5,1C98.4,69,98.9,68.6,99.3,68.4L99.3,68.4z M99.5,75.7L99.5,75.7l0.2-0.2l-0.3,0.3
		l-0.2-0.2C99.2,75.7,99.4,75.7,99.5,75.7L99.5,75.7z M101.9,53.6L101.9,53.6h-0.2v-0.8h0.2V53.6L101.9,53.6z M101.9,52.5
		L101.9,52.5h-0.2v-0.6h0.2V52.5L101.9,52.5z M101.9,46.6L101.9,46.6h-0.2v-0.5h0.2V46.6L101.9,46.6z M47.3,19.2L47.3,19.2L47.1,19
		v0.2C47.2,19.2,47.2,19.2,47.3,19.2L47.3,19.2z M77.8,17.9L77.8,17.9l0.2,0.1l0.5-0.6c-0.4,0.4-0.9-0.1-1.1-0.3l-0.2,1.1
		C77.4,18.3,77.6,18.1,77.8,17.9L77.8,17.9z M76.1,18.2L76.1,18.2h0.5c0.5-0.6-0.2-0.5-0.5-1c0.2,0.6-0.5,0.5-0.8,0.5
		C75.5,18.1,76.2,17.6,76.1,18.2L76.1,18.2z M71.6,19.7L71.6,19.7c0-0.8-0.9-0.6-1.3-0.8c-0.3-0.6,0.4-0.7,0.7-1.1
		c0.6,0.1,0.1,0.8,0.5,1.1c0.9,0.1,1.6-0.2,2.6,0l0.1-0.9c-0.8-0.3-0.7,0.4-1.3,0.7l-0.3-0.5c-0.5,0.6-0.5-0.8-0.9,0.2l-0.5-0.5
		c0.1-0.1,0.2-0.2,0.3-0.2c-0.3,0-0.6-0.1-0.6,0.3l-0.2-0.1c-0.4-0.2-0.5,0.4-0.6,0.6h0.1c-0.2,0.4,0.5,1.2-0.5,1.1V20
		C69.6,18.9,71,20.1,71.6,19.7L71.6,19.7z M68.2,19.4L68.2,19.4l1-1L69,18.2c-0.3,0.6-0.6,0.1-1,0.2C68.6,18.6,68.2,19.2,68.2,19.4
		L68.2,19.4z M75.3,18.2L75.3,18.2l-0.2,0.5l0.5-0.2L75.3,18.2L75.3,18.2z M42.1,46.6L42.1,46.6v-0.5l-0.3,0.3
		C41.9,46.4,42,46.6,42.1,46.6L42.1,46.6z M77.6,47.6L77.6,47.6h0.2l0.2-0.3L77.6,47.6L77.6,47.6z M77.9,48.2L77.9,48.2l0.7,0.3
		l-0.5-0.5L77.9,48.2L77.9,48.2z M73.7,69.8L73.7,69.8l0.2-1.9C72.8,68.1,73.8,69.4,73.7,69.8L73.7,69.8z M70.1,69.8L70.1,69.8
		c0.4-0.4,0-1.1-0.1-1.4C69.6,68.8,70.1,69.5,70.1,69.8L70.1,69.8z M64.8,69.5L64.8,69.5v1.1c1,1.1,0.5,2.9,1.5,3.9l-1.1-5H64.8
		L64.8,69.5z M67.6,70.3L67.6,70.3c0.3,0.2-0.1,0.9,0.6,0.7v-0.2C68,70.6,67.8,70.3,67.6,70.3L67.6,70.3z M102.4,73.8L102.4,73.8
		c-0.8-0.5,0.2-1-0.3-1.5l-0.2,0.7C102.3,73.1,101.8,73.8,102.4,73.8L102.4,73.8z M102.4,75.5L102.4,75.5l0.3-0.3l-0.7-0.2
		L102.4,75.5L102.4,75.5z M104,76.5L104,76.5c-0.6,0.3-0.5-0.5-0.9-0.5v0.5h-1l0.2,1.6l0.3-0.3l-0.2-0.2c0.6-0.9,1.9-0.8,2.3-1.6
		h-0.3C104.4,76.2,104.2,76.3,104,76.5L104,76.5z M23.2,77.9L23.2,77.9c0.4,0,0.4,0.6,0.6,1l0.2-0.2l0.5,0.5
		c0.4-0.7-0.5-1.2-0.8-1.8L23.2,77.9L23.2,77.9z M98.5,80.7L98.5,80.7L97.7,82l0.6-0.5l0.2,0.2c0.2,0,0.5-0.1,0.5-0.3h-0.3
		C98.4,81.3,98.6,80.9,98.5,80.7L98.5,80.7z M32.2,82.7L32.2,82.7l0.2,0.3l0.6-0.3H32.2L32.2,82.7z M33.6,87L33.6,87v-0.2l-0.5-0.1
		L33.6,87L33.6,87z M51.3,94.7L51.3,94.7v-0.3h-0.7C50.6,94.7,51.1,94.7,51.3,94.7L51.3,94.7z M51.6,96L51.6,96l-0.8-0.2
		C50.6,96.5,51.6,96.3,51.6,96L51.6,96z M38.2,97.4L38.2,97.4l0.6-0.8c-0.3,0.3-0.8,0.3-1.1,0.5L38.2,97.4L38.2,97.4z M49.2,97.8
		L49.2,97.8l0.5,0.3v-0.2C49.6,97.7,49.4,97.8,49.2,97.8L49.2,97.8z M47.9,98.1L47.9,98.1c0.1,0.5,0.8,0,1,0H47.9L47.9,98.1z
		 M37.5,99.2L37.5,99.2c0.3-0.2,0.6-0.1,0.8-0.5l-0.2-0.2L37.5,99.2L37.5,99.2z M46.3,99.5L46.3,99.5l0.2-0.2L45.8,99L46.3,99.5
		L46.3,99.5z M49.5,99.4L49.5,99.4c-0.1-0.3-0.4-0.1-0.7-0.2l0.5,0.5C49.5,99.6,49.6,99.5,49.5,99.4L49.5,99.4z M39.6,100.7
		L39.6,100.7c0.3,0,0.4-0.3,0.6-0.5l-0.2-0.2L39.6,100.7L39.6,100.7z M49.2,100.7L49.2,100.7l0.2,0.5l0.3-0.3
		C49.6,100.6,49.4,100.7,49.2,100.7L49.2,100.7z M46.1,103.8L46.1,103.8l0.3-0.5c-0.1-0.1-0.2-0.2-0.3-0.2V103.8L46.1,103.8z"/>
</g>
</svg>
