<?xml version="1.0" encoding="utf-8"?>
<!-- Generator: Adobe Illustrator 24.3.0, SVG Export Plug-In . SVG Version: 6.00 Build 0)  -->
<svg version="1.1" id="Layer_1" xmlns="http://www.w3.org/2000/svg" xmlns:xlink="http://www.w3.org/1999/xlink" x="0px" y="0px"
	 viewBox="0 0 126 126" enable-background="new 0 0 126 126" xml:space="preserve">
<g>
	<g>
		<path fill="#D2CBCD" d="M85.4,34.1c0.6-0.3,1-1.1,0.7-1.9c-7.9-18-29.6,0.9-32.8,17.9c-0.1-11.9-17.2-14.6-19.7-2.3
			c-0.2,1.1,0.3,2.4,1.5,2.6c1.3,0.3,2.4,0.7,3.6,1.1c-6.1,6.3-14.9,1.7-13.3-8.3c1.5-9.4,13.6-8.9,20.4-6.9
			c1.3,0.4,2.4-0.4,2.8-1.6c1.1-2.9,3.4-7.4,3.6-11c0.1-0.1,0.2-0.3,0.3-0.5c1,0,1.7-1.1,0.9-2C34.1-0.6-1.7,40.9,19.5,60.6
			c8.9,8.3,30.3,6.1,33.5-7c-0.1,4,1,7.8,3.7,10.7C69.1,77.9,93.3,48.3,85.4,34.1z M68.7,48.5c-1.5-0.3-2.3-1.5-1.9-3
			c0.4-2.1,3.2-5.1,5.4-4.7c0.5,0.1,1,0.3,1.4,0.6C74.1,45,72.5,49.3,68.7,48.5z"/>
		<path fill="#D2CBCD" d="M112.3,76.5c-7.9-6.3-15.6-12.9-24.8-17.2c-1.7-0.8-3.3,0.2-3.5,2c-0.6,5.6-0.9,11.1-1,16.7
			c-20.6,4.6-42-3.1-62.8,0.7c-1-0.9-3-0.8-3.4,0.9c0,0.1,0,0.1,0,0.2c-0.3,0.3-0.3,0.7-0.3,1.1c-0.9,3.6-2.1,7.2-0.2,9.9
			c-1.5,0.5-1.4,3,0.5,3C39,94.8,61.1,92.4,83,89.6c0,5.9,0,11.7-0.1,17.5c0,0,0,0,0,0.1c-1.7,2.8,2.7,5.3,4.4,2.6
			c6.7-11.3,16.3-20.4,25.1-30C113.1,78.9,113.3,77.3,112.3,76.5z"/>
	</g>
</g>
</svg>
