<?xml version="1.0" encoding="utf-8"?>
<!-- Generator: Adobe Illustrator 24.3.0, SVG Export Plug-In . SVG Version: 6.00 Build 0)  -->
<svg version="1.1" id="Layer_1" xmlns="http://www.w3.org/2000/svg" xmlns:xlink="http://www.w3.org/1999/xlink" x="0px" y="0px"
	 viewBox="0 0 126 126" enable-background="new 0 0 126 126" xml:space="preserve">
<g>
	<g>
		<ellipse transform="matrix(0.1717 -0.9851 0.9851 0.1717 -9.8816 114.247)" fill="#EBEBEB" cx="63" cy="63" rx="50" ry="50"/>
	</g>
	<g>
		<path fill="#E3E4E3" d="M89,20.3c7.3,8.7,11.7,19.9,11.7,32.1c0,27.6-22.4,50-50,50c-9.5,0-18.4-2.7-26-7.3
			C33.8,106,47.6,113,63,113c27.6,0,50-22.4,50-50C113,44.9,103.4,29.1,89,20.3z"/>
	</g>
	<g>
		<path fill="#DCDCDC" d="M23.5,59.2c0,2.1-1.4,3.8-3,3.8c-1.7,0-3-1.7-3-3.8c0-2.1,1.4-3.8,3-3.8C22.2,55.3,23.5,57,23.5,59.2z"/>
	</g>
	<g>
		<circle fill="#DCDCDC" cx="32.5" cy="44.1" r="3.8"/>
	</g>
	<g>
		<circle fill="#DCDCDC" cx="64" cy="41.8" r="3.8"/>
	</g>
	<g>
		<path fill="#DCDCDC" d="M94,42.6c0,2.1-1.7,3.8-3.8,3.8c-2.1,0-3.8-1.7-3.8-3.8c0-2.1,1.7-3.8,3.8-3.8C92.2,38.8,94,40.5,94,42.6z
			"/>
	</g>
	<g>
		<path fill="#DCDCDC" d="M79.9,25.6c0,2.1-1.7,3.8-3.8,3.8c-2.1,0-3.8-1.7-3.8-3.8c0-2.1,1.7-3.8,3.8-3.8
			C78.2,21.8,79.9,23.5,79.9,25.6z"/>
	</g>
	<g>
		<path fill="#DCDCDC" d="M52,27.3c0,2.1-1.7,3.8-3.8,3.8c-2.1,0-3.8-1.7-3.8-3.8c0-2.1,1.7-3.8,3.8-3.8C50.3,23.5,52,25.2,52,27.3z
			"/>
	</g>
	<g>
		<ellipse fill="#DCDCDC" cx="64" cy="16.5" rx="3.8" ry="2.4"/>
	</g>
	<g>
		<path fill="#DCDCDC" d="M36.4,70.5c0,2.1-1.7,3.8-3.8,3.8c-2.1,0-3.8-1.7-3.8-3.8c0-2.1,1.7-3.8,3.8-3.8
			C34.6,66.6,36.4,68.4,36.4,70.5z"/>
	</g>
	<g>
		<path fill="#DCDCDC" d="M53.2,57.6c0,2.1-1.7,3.8-3.8,3.8c-2.1,0-3.8-1.7-3.8-3.8c0-2.1,1.7-3.8,3.8-3.8
			C51.5,53.8,53.2,55.5,53.2,57.6z"/>
	</g>
	<g>
		<path fill="#DCDCDC" d="M66.8,74.3c0,2.1-1.7,3.8-3.8,3.8c-2.1,0-3.8-1.7-3.8-3.8c0-2.1,1.7-3.8,3.8-3.8
			C65.1,70.5,66.8,72.2,66.8,74.3z"/>
	</g>
	<g>
		<path fill="#DCDCDC" d="M81.4,57.6c0,2.1-1.7,3.8-3.8,3.8c-2.1,0-3.8-1.7-3.8-3.8c0-2.1,1.7-3.8,3.8-3.8
			C79.7,53.8,81.4,55.5,81.4,57.6z"/>
	</g>
	<g>
		<path fill="#DCDCDC" d="M95.1,70.5c0,2.1-1.7,3.8-3.8,3.8c-2.1,0-3.8-1.7-3.8-3.8c0-2.1,1.7-3.8,3.8-3.8
			C93.4,66.6,95.1,68.4,95.1,70.5z"/>
	</g>
	<g>
		<path fill="#DCDCDC" d="M111.2,55.3c0,2.1-1.7,3.8-3.8,3.8c-2.1,0-3.8-1.7-3.8-3.8c0-2.1,1.7-3.8,3.8-3.8
			C109.4,51.5,111.2,53.2,111.2,55.3z"/>
	</g>
	<g>
		<path fill="#DCDCDC" d="M102.8,87.1c1.4,1.6,1.3,4-0.3,5.4c-1.6,1.4-4,1.3-5.4-0.3c-1.4-1.6-1.3-4,0.3-5.4
			C98.9,85.4,101.4,85.5,102.8,87.1z"/>
	</g>
	<g>
		<path fill="#DCDCDC" d="M79.9,93.5c0,2.1-1.7,3.8-3.8,3.8c-2.1,0-3.8-1.7-3.8-3.8c0-2.1,1.7-3.8,3.8-3.8
			C78.2,89.7,79.9,91.4,79.9,93.5z"/>
	</g>
	<g>
		<path fill="#DCDCDC" d="M55.9,93.5c0,2.1-1.7,3.8-3.8,3.8c-2.1,0-3.8-1.7-3.8-3.8c0-2.1,1.7-3.8,3.8-3.8
			C54.2,89.7,55.9,91.4,55.9,93.5z"/>
	</g>
	<g>
		<path fill="#DCDCDC" d="M33.9,90.5c0,2.1-1.7,3.8-3.8,3.8c-2.1,0-3.8-1.7-3.8-3.8c0-2.1,1.7-3.8,3.8-3.8
			C32.2,86.7,33.9,88.4,33.9,90.5z"/>
	</g>
	<g>
		<path fill="#DCDCDC" d="M66.8,108.5c0,1.6-1.7,3-3.8,3c-2.1,0-3.8-1.3-3.8-3c0-1.6,1.7-3,3.8-3C65.1,105.5,66.8,106.9,66.8,108.5z
			"/>
	</g>
	<g opacity="0.36">
		<path fill="#FFFFFF" d="M31.6,32c-6.1,6.4-9.9,15.1-9.7,24c0.2,4.7,1.6,9.6,5,13s8.9,4.7,13,2.4c2.5-1.4,4.1-3.8,5.6-6.3
			c2.8-4.9,4.9-10.3,8.7-14.4c5.6-6.2,14.2-9.1,19.5-15.5c2.2-2.7,3.8-6.4,2.5-9.6c-2.6-6.5-15.9-7.4-21.8-6.6
			C46.2,20.1,37.2,26.1,31.6,32z"/>
	</g>
</g>
</svg>
