<?xml version="1.0" encoding="utf-8"?>
<!-- Generator: Adobe Illustrator 24.3.0, SVG Export Plug-In . SVG Version: 6.00 Build 0)  -->
<svg version="1.1" id="Layer_1" xmlns="http://www.w3.org/2000/svg" xmlns:xlink="http://www.w3.org/1999/xlink" x="0px" y="0px"
	 viewBox="0 0 126 126" enable-background="new 0 0 126 126" xml:space="preserve">
<g>
	<g>
		<g>
			<g>
				<path fill="#DB7845" d="M42.6,68.5h-13c-1,0-1.9-0.8-1.9-1.9v-9.2h10.5l14.6-14.8l9.2,9.2L47.2,66.6
					C46,67.8,44.3,68.5,42.6,68.5L42.6,68.5z"/>
			</g>
		</g>
	</g>
	<path fill="#EF905A" d="M84.9,54.1c-2.9-2.9-7.6-2.9-10.5,0L59.6,68.9c-1.4,1.4-2.2,3.3-2.2,5.2v14.8h14.8V77.2l12.6-12.6
		C87.8,61.6,87.8,57,84.9,54.1L84.9,54.1z"/>
	<g>
		<g>
			<g>
				<path fill="#BD291E" d="M75.6,73.8l9.3-9.3c2.9-2.9,2.9-7.6,0-10.5c-2.9-2.9-7.6-2.9-10.5,0l-9.3,9.3L75.6,73.8z"/>
			</g>
		</g>
	</g>
	<path fill="#F7B890" d="M113,88.9c0-1.9-0.7-3.8-2.2-5.2L98.2,71V40.8c0-4.1-3.3-7.4-7.4-7.4h-7.4v40.7c0,2,0.8,3.8,2.2,5.2
		l9.6,9.6H113z"/>
	<g>
		<g>
			<g>
				<path fill="#BD291E" d="M98.2,70.4V40.8c0-4.1-3.3-7.4-7.4-7.4h-7.4v37H98.2z"/>
			</g>
		</g>
	</g>
	<g>
		<g>
			<g>
				<path fill="#333333" d="M53.7,100h14.8c2,0,3.7-1.7,3.7-3.7v-7.4H57.4c-4.1,0-7.4,3.3-7.4,7.4C50,98.4,51.7,100,53.7,100z"/>
			</g>
		</g>
	</g>
	<g>
		<g>
			<g>
				<path fill="#464646" d="M113,88.9v7.4c0,2-1.7,3.7-3.7,3.7H90.8c-2,0-3.7-1.7-3.7-3.7c0-4.1,3.3-7.4,7.4-7.4H113z"/>
			</g>
		</g>
	</g>
	<g>
		<g>
			<g>
				<path fill="#E84C38" d="M83.4,33.4v22.2H57.4c-4.1,0-7.4-3.3-7.4-7.4V33.4H83.4z"/>
			</g>
		</g>
	</g>
	<g>
		<g>
			<g>
				<path fill="#F7B890" d="M75,33.4h-3.7c-3.6,0-6.5,2.9-6.5,6.5v17.6H53.7v9.3c0,1,0.8,1.9,1.9,1.9h14.8c4.1,0,7.4-3.3,7.4-7.4
					V45.7c2.2-1,3.7-3.3,3.7-5.9C81.5,36.3,78.6,33.4,75,33.4z"/>
			</g>
		</g>
	</g>
	<g>
		<g>
			<g>
				<path fill="#EF905A" d="M42.6,51.9h13c2,0,3.7-1.7,3.7-3.7V31.5c0-3.1-2.5-5.6-5.6-5.6h-9.3c-3.1,0-5.6,2.5-5.6,5.6v16.7
					C38.9,50.2,40.6,51.9,42.6,51.9z"/>
			</g>
		</g>
	</g>
	<g>
		<g>
			<g>
				<path fill="#F7B890" d="M50,51.9h-7.4c-2,0-3.7-1.7-3.7-3.7V31.5c0-3.1,2.5-5.6,5.6-5.6h3.7c3.1,0,5.6,2.5,5.6,5.6v16.7
					C53.7,50.2,52.1,51.9,50,51.9z"/>
			</g>
		</g>
	</g>
	<g>
		<g>
			<g>
				<path fill="#333333" d="M51.9,42.6c-1,0-1.9-0.8-1.9-1.9v-3.7c-2,0-3.7-1.7-3.7-3.7h-9.3c0-4.1,3.3-7.4,7.4-7.4h9.3
					c4.1,0,7.4,3.3,7.4,7.4v11.1c0,2-1.7,3.7-3.7,3.7c-2,0-3.7-1.7-3.7-3.7v-1.9H51.9z"/>
			</g>
		</g>
	</g>
	<g>
		<g>
			<g>
				<path fill="#EF905A" d="M53.7,44.5c-1,0-1.9-0.8-1.9-1.9v-3.7c0-1,0.8-1.9,1.9-1.9c2,0,3.7,1.7,3.7,3.7
					C57.4,42.8,55.8,44.5,53.7,44.5z"/>
			</g>
		</g>
	</g>
	<g>
		<g>
			<g>
				<path fill="#EF905A" d="M42.6,57.4v11.1H50c2,0,3.7-1.7,3.7-3.7v-7.4H42.6z"/>
			</g>
		</g>
	</g>
	<g>
		<g>
			<g>
				<path fill="#F7B890" d="M38.9,68.6v-7.4c0-2,1.7-3.7,3.7-3.7v11.1c0,1-0.8,1.9-1.9,1.9S38.9,69.6,38.9,68.6z"/>
			</g>
		</g>
	</g>
	<g>
		<g>
			<g>
				<path fill="#EF905A" d="M16.7,57.4v11.1h7.4c2,0,3.7-1.7,3.7-3.7v-7.4H16.7z"/>
			</g>
		</g>
	</g>
	<g>
		<g>
			<g>
				<path fill="#F7B890" d="M13,68.6v-7.4c0-2,1.7-3.7,3.7-3.7v11.1c0,1-0.8,1.9-1.9,1.9S13,69.6,13,68.6z"/>
			</g>
		</g>
	</g>
	<g>
		<g>
			<g>
				<path fill="#F7B890" d="M20.4,59.3v4.6c0,0.5,0.4,0.9,0.9,0.9c1.5,0,2.8-1.2,2.8-2.8v-0.9c2,0,3.7-1.7,3.7-3.7h-5.6
					C21.2,57.4,20.4,58.3,20.4,59.3z"/>
			</g>
		</g>
	</g>
</g>
</svg>
