<?xml version="1.0" encoding="utf-8"?>
<!-- Generator: Adobe Illustrator 24.3.0, SVG Export Plug-In . SVG Version: 6.00 Build 0)  -->
<svg version="1.1" id="Layer_1" xmlns="http://www.w3.org/2000/svg" xmlns:xlink="http://www.w3.org/1999/xlink" x="0px" y="0px"
	 viewBox="0 0 126 126" enable-background="new 0 0 126 126" xml:space="preserve">
<g>
	<g>
		<path fill="#DCDBE5" d="M62.7,96.6c-3.8,0-13.4,3.8-13.4,3.8c1.3,6.4,7,11.1,13.6,11.1c0,0,0,0,0,0l1.9-8.3L63,96.6
			C62.9,96.6,62.8,96.6,62.7,96.6z"/>
		<path fill="#C5C5CF" d="M76.6,100.4c0,0-9.6-3.6-13.6-3.8v14.9C69.6,111.5,75.3,106.8,76.6,100.4z"/>
	</g>
	<path fill="#DCDBE5" d="M19.7,25.9l-6.4,15l5.3,2.3c0,0,1.6-3.7,1.7-4c0.3-0.9,1-1.6,1.8-1.9c0.9-0.4,2-0.3,2.9,0.2l7.7,4.4
		l11.7-16L19.7,25.9L19.7,25.9z"/>
	<path fill="#C5C5CF" d="M34.6,14.5c-6.1,0-11.6,3.6-14,9.2L17.5,31c2.1-2.8,5.4-4.5,9.1-4.5H44l4.6-6.2H55l2-5.8L34.6,14.5
		L34.6,14.5z"/>
	<g>
		<path fill="#C5C5CF" d="M81.5,25.9l11.7,16l7.7-4.4c0.9-0.5,1.9-0.6,2.9-0.2c0.9,0.4,1.5,1,1.8,1.9c0.1,0.3,1.7,4,1.7,4l5.3-2.3
			l-6.4-15L81.5,25.9z"/>
		<path fill="#B0B3BC" d="M91.4,14.5c6.1,0,11.6,3.6,14,9.2l3.1,7.3c-2.1-2.8-5.4-4.5-9.1-4.5H82l-4.6-6.2H71l-0.7-5.8
			C70.3,14.5,91.4,14.5,91.4,14.5z"/>
	</g>
	<g>
		<path fill="#F1EDF2" d="M55.6,14.5c-8.7,0-16.7,4.8-20.9,12.4c-3.9,7.1-4.6,15.6-2.2,23.3l12.1,45.1c1.3,4.6,5.6,7.8,10.4,7.8
			c3.1,0,6-1.3,8-3.3l1.5-40.5L63,14.5L55.6,14.5z"/>
		<path fill="#DCDBE5" d="M91.5,27.3L91.3,27c-4.2-7.7-12.2-12.5-21-12.5c0,0,0,0,0,0H63v85.4c2,2.1,4.7,3.3,7.8,3.3H71
			c4.8,0,9-3.2,10.3-7.8c2.9-10.8,8.3-33.1,12.3-45.4C95.9,42.5,95.2,34.2,91.5,27.3L91.5,27.3z"/>
	</g>
	<g>
		<path fill="#4A443F" d="M44.3,41.3h5.8v5.6h-5.8V41.3z"/>
		<path fill="#3A362F" d="M76,41.3h5.8v5.6H76V41.3z"/>
	</g>
	<path fill="#DCDBE5" d="M60.1,52.4v30.5H63l1.5-14.5l-1.5-16H60.1z"/>
	<path fill="#C5C5CF" d="M63,52.4h2.9v30.5H63V52.4z"/>
	<g>
		<path fill="#4A443F" d="M62,81.1c-4,0-7.2,3.3-7.2,7.2v1c0,4,3.3,7.2,7.2,7.2h1l1.9-7.8L63,81.1H62z"/>
	</g>
	<path fill="#3A362F" d="M63.9,81.1H63v15.5h0.9c4,0,7.2-3.3,7.2-7.2v-1C71.2,84.4,67.9,81.1,63.9,81.1L63.9,81.1z"/>
</g>
</svg>
