<?xml version="1.0" encoding="utf-8"?>
<!-- Generator: Adobe Illustrator 24.3.0, SVG Export Plug-In . SVG Version: 6.00 Build 0)  -->
<svg version="1.1" id="Layer_1" xmlns="http://www.w3.org/2000/svg" xmlns:xlink="http://www.w3.org/1999/xlink" x="0px" y="0px"
	 viewBox="0 0 126 126" enable-background="new 0 0 126 126" xml:space="preserve">
<g>
	<g>
		<g>
			
				<linearGradient id="SVGID_1_" gradientUnits="userSpaceOnUse" x1="42.034" y1="93.1984" x2="50.6" y2="93.1984" gradientTransform="matrix(1.0039 0 0 -1.0039 -5.098116e-02 126.4431)">
				<stop  offset="0" style="stop-color:#F7F5F6"/>
				<stop  offset="0.1788" style="stop-color:#F7F5F6"/>
				<stop  offset="1" style="stop-color:#E6E5F3"/>
			</linearGradient>
			<path fill="url(#SVGID_1_)" d="M42.9,15.3h6.9v35.1h-6.9V15.3z"/>
			
				<linearGradient id="SVGID_2_" gradientUnits="userSpaceOnUse" x1="32.9332" y1="105.2414" x2="50.2273" y2="105.2414" gradientTransform="matrix(1.0039 0 0 -1.0039 -5.098116e-02 126.4431)">
				<stop  offset="0" style="stop-color:#F7F5F6"/>
				<stop  offset="1" style="stop-color:#D0CDE7"/>
			</linearGradient>
			<path fill="url(#SVGID_2_)" d="M42.9,15.3h6.9v10.9h-6.9V15.3z"/>
			
				<linearGradient id="SVGID_3_" gradientUnits="userSpaceOnUse" x1="13" y1="46.5815" x2="85.6635" y2="46.5815" gradientTransform="matrix(1.0039 0 0 -1.0039 -5.098116e-02 126.4431)">
				<stop  offset="0" style="stop-color:#A2C632"/>
				<stop  offset="0.7542" style="stop-color:#00A66E"/>
				<stop  offset="1" style="stop-color:#007B4F"/>
			</linearGradient>
			<path fill="url(#SVGID_3_)" d="M46.3,46.4C27.9,46.4,13,61.3,13,79.7S27.9,113,46.3,113s33.3-14.9,33.3-33.3S64.7,46.4,46.3,46.4
				L46.3,46.4z M46.3,99.8c-11.1,0-20.1-9-20.1-20.1s9-20.1,20.1-20.1s20.1,9,20.1,20.1S57.4,99.8,46.3,99.8L46.3,99.8z"/>
			
				<linearGradient id="SVGID_4_" gradientUnits="userSpaceOnUse" x1="0.7082" y1="46.5813" x2="65.218" y2="46.5813" gradientTransform="matrix(1.0039 0 0 -1.0039 -5.098116e-02 126.4431)">
				<stop  offset="0" style="stop-color:#A2C632"/>
				<stop  offset="0.7542" style="stop-color:#00A66E"/>
				<stop  offset="1" style="stop-color:#007B4F"/>
			</linearGradient>
			<path fill="url(#SVGID_4_)" d="M26.3,79.7c0-10.3,7.7-18.8,17.6-20c-0.8-0.1-1.6-0.1-2.5-0.1c-11.1,0-20.1,9-20.1,20.1
				c0,11.1,9,20.1,20.1,20.1c0.8,0,1.6-0.1,2.5-0.1C33.9,98.5,26.3,90,26.3,79.7L26.3,79.7z"/>
			
				<linearGradient id="SVGID_5_" gradientUnits="userSpaceOnUse" x1="-25.3646" y1="46.5816" x2="84.1348" y2="46.5816" gradientTransform="matrix(1.0039 0 0 -1.0039 -5.098116e-02 126.4431)">
				<stop  offset="0" style="stop-color:#A2C632"/>
				<stop  offset="0.7542" style="stop-color:#00A66E"/>
				<stop  offset="1" style="stop-color:#007B4F"/>
			</linearGradient>
			<path fill="url(#SVGID_5_)" d="M46.3,46.4c-1.1,0-2.2,0.1-3.3,0.2c0,0-0.1,0-0.1,0v0c-0.2,0-0.3,0-0.5,0.1c0.2,0,0.3,0,0.5,0.1
				v13.2c1.1-0.2,2.3-0.3,3.4-0.3c4.1,0,7.8,1.2,11,3.3c0-4.4,5.6-6.2,8.2-2.7c0.4,0.6,0.9,1.2,1.3,1.9c-1.9,1.4-3.5,3-4.8,4.9
				c1.8,2.3,3.2,4.9,3.9,7.8h0c1-3,5.3-2.5,5.7,0.6c0.2,1.4,0.3,2.8,0.3,4.3c0,10.1-4.5,19.2-11.7,25.3c-2.4-1.9-4.6-4.1-6.4-6.6
				c-2,0.8-4.2,1.3-6.5,1.4c0.6,1,1.2,1.9,1.9,2.8c2.7,3.6,0.7,8.7-3.6,9.7c-1,0.2-2,0.4-3,0.5c1.3,0.2,2.6,0.2,3.9,0.2
				c18.4,0,33.3-14.9,33.3-33.3S64.7,46.4,46.3,46.4L46.3,46.4z"/>
			
				<linearGradient id="SVGID_6_" gradientUnits="userSpaceOnUse" x1="40.0238" y1="72.6086" x2="53.5252" y2="72.6086" gradientTransform="matrix(1.0039 0 0 -1.0039 -5.098116e-02 126.4431)">
				<stop  offset="0" style="stop-color:#FFF9E0"/>
				<stop  offset="0.593" style="stop-color:#FDDF76"/>
				<stop  offset="1" style="stop-color:#F8AF3A"/>
			</linearGradient>
			<path fill="url(#SVGID_6_)" d="M49.9,62.5h-7.1c-1.5,0-2.7-1.2-2.7-2.7V47.2c0-1.5,1.2-2.7,2.7-2.7h7.1c1.5,0,2.7,1.2,2.7,2.7
				v12.7C52.5,61.4,51.3,62.5,49.9,62.5L49.9,62.5z"/>
		</g>
		<g>
			
				<linearGradient id="SVGID_7_" gradientUnits="userSpaceOnUse" x1="75.2615" y1="93.1984" x2="83.8277" y2="93.1984" gradientTransform="matrix(1.0039 0 0 -1.0039 -5.098116e-02 126.4431)">
				<stop  offset="0" style="stop-color:#F7F5F6"/>
				<stop  offset="0.1788" style="stop-color:#F7F5F6"/>
				<stop  offset="1" style="stop-color:#E6E5F3"/>
			</linearGradient>
			<path fill="url(#SVGID_7_)" d="M76.2,15.3h6.9v35.1h-6.9V15.3z"/>
			
				<linearGradient id="SVGID_8_" gradientUnits="userSpaceOnUse" x1="66.1607" y1="105.2414" x2="83.4551" y2="105.2414" gradientTransform="matrix(1.0039 0 0 -1.0039 -5.098116e-02 126.4431)">
				<stop  offset="0" style="stop-color:#F7F5F6"/>
				<stop  offset="1" style="stop-color:#D0CDE7"/>
			</linearGradient>
			<path fill="url(#SVGID_8_)" d="M76.2,15.3h6.9v10.9h-6.9V15.3z"/>
			
				<linearGradient id="SVGID_9_" gradientUnits="userSpaceOnUse" x1="46.2277" y1="46.5815" x2="118.8912" y2="46.5815" gradientTransform="matrix(1.0039 0 0 -1.0039 -5.098116e-02 126.4431)">
				<stop  offset="0" style="stop-color:#A2C632"/>
				<stop  offset="0.7542" style="stop-color:#00A66E"/>
				<stop  offset="1" style="stop-color:#007B4F"/>
			</linearGradient>
			<path fill="url(#SVGID_9_)" d="M79.7,46.4c-18.4,0-33.3,14.9-33.3,33.3S61.3,113,79.7,113S113,98.1,113,79.7S98.1,46.4,79.7,46.4
				L79.7,46.4z M79.7,99.8c-11.1,0-20.1-9-20.1-20.1s9-20.1,20.1-20.1s20.1,9,20.1,20.1S90.8,99.8,79.7,99.8z"/>
			
				<linearGradient id="SVGID_10_" gradientUnits="userSpaceOnUse" x1="33.9357" y1="46.5813" x2="98.4457" y2="46.5813" gradientTransform="matrix(1.0039 0 0 -1.0039 -5.098116e-02 126.4431)">
				<stop  offset="0" style="stop-color:#A2C632"/>
				<stop  offset="0.7542" style="stop-color:#00A66E"/>
				<stop  offset="1" style="stop-color:#007B4F"/>
			</linearGradient>
			<path fill="url(#SVGID_10_)" d="M59.6,79.7c0-10.3,7.7-18.8,17.6-20c-0.8-0.1-1.6-0.1-2.5-0.1c-11.1,0-20.1,9-20.1,20.1
				c0,11.1,9,20.1,20.1,20.1c0.8,0,1.6-0.1,2.5-0.1C67.3,98.5,59.6,90,59.6,79.7L59.6,79.7z"/>
			
				<linearGradient id="SVGID_11_" gradientUnits="userSpaceOnUse" x1="7.8629" y1="46.5815" x2="117.3623" y2="46.5815" gradientTransform="matrix(1.0039 0 0 -1.0039 -5.098116e-02 126.4431)">
				<stop  offset="0" style="stop-color:#A2C632"/>
				<stop  offset="0.7542" style="stop-color:#00A66E"/>
				<stop  offset="1" style="stop-color:#007B4F"/>
			</linearGradient>
			<path fill="url(#SVGID_11_)" d="M79.7,46.4c-1.1,0-2.2,0.1-3.3,0.2c0,0-0.1,0-0.1,0v0c-0.2,0-0.3,0-0.5,0.1c0.2,0,0.3,0,0.5,0.1
				v13.2c1.1-0.2,2.3-0.3,3.4-0.3c4.1,0,7.8,1.2,11,3.3v-4.6c0-2.5,3-3.8,4.8-2c6,6,9.7,14.3,9.7,23.5c0,17.1-12.8,31.1-29.4,33.1
				c1.3,0.2,2.6,0.2,3.9,0.2c18.4,0,33.3-14.9,33.3-33.3S98.1,46.4,79.7,46.4L79.7,46.4z"/>
			
				<linearGradient id="SVGID_12_" gradientUnits="userSpaceOnUse" x1="73.2516" y1="72.6086" x2="86.7529" y2="72.6086" gradientTransform="matrix(1.0039 0 0 -1.0039 -5.098116e-02 126.4431)">
				<stop  offset="0" style="stop-color:#FFF9E0"/>
				<stop  offset="0.593" style="stop-color:#FDDF76"/>
				<stop  offset="1" style="stop-color:#F8AF3A"/>
			</linearGradient>
			<path fill="url(#SVGID_12_)" d="M83.2,62.5h-7.1c-1.5,0-2.7-1.2-2.7-2.7V47.2c0-1.5,1.2-2.7,2.7-2.7h7.1c1.5,0,2.7,1.2,2.7,2.7
				v12.7C85.9,61.4,84.7,62.5,83.2,62.5L83.2,62.5z"/>
		</g>
	</g>
	<g>
		
			<linearGradient id="SVGID_13_" gradientUnits="userSpaceOnUse" x1="21.2408" y1="109.1119" x2="112.0896" y2="109.1119" gradientTransform="matrix(1.0039 0 0 -1.0039 -5.098116e-02 126.4431)">
			<stop  offset="0" style="stop-color:#A69AA6"/>
			<stop  offset="0.7487" style="stop-color:#7A6D79"/>
			<stop  offset="1" style="stop-color:#685E69"/>
		</linearGradient>
		<path fill="url(#SVGID_13_)" d="M99.6,20.8H26.4c-2.2,0-3.9-1.7-3.9-3.9s1.7-3.9,3.9-3.9h73.3c2.2,0,3.9,1.7,3.9,3.9
			S101.8,20.8,99.6,20.8z"/>
		
			<linearGradient id="SVGID_14_" gradientUnits="userSpaceOnUse" x1="69.1645" y1="109.1119" x2="93.4955" y2="109.1119" gradientTransform="matrix(1.0039 0 0 -1.0039 -5.098116e-02 126.4431)">
			<stop  offset="0" style="stop-color:#A69AA6"/>
			<stop  offset="0.7487" style="stop-color:#7A6D79"/>
			<stop  offset="1" style="stop-color:#685E69"/>
		</linearGradient>
		<path fill="url(#SVGID_14_)" d="M99.6,13h-7.8c2.2,0,3.9,1.7,3.9,3.9s-1.7,3.9-3.9,3.9h7.8c2.2,0,3.9-1.7,3.9-3.9
			S101.8,13,99.6,13z"/>
	</g>
</g>
</svg>
