<?xml version="1.0" encoding="utf-8"?>
<!-- Generator: Adobe Illustrator 24.3.0, SVG Export Plug-In . SVG Version: 6.00 Build 0)  -->
<svg version="1.1" id="Layer_1" xmlns="http://www.w3.org/2000/svg" xmlns:xlink="http://www.w3.org/1999/xlink" x="0px" y="0px"
	 viewBox="0 0 126 126" enable-background="new 0 0 126 126" xml:space="preserve">
<g>
	<g id="design">
		<g id="Layer_4">
			
				<radialGradient id="SVGID_1_" cx="137.4738" cy="86.7814" r="77.64" gradientTransform="matrix(0.91 -9.000000e-02 -1.000000e-02 0.97 -69.71 -22.83)" gradientUnits="userSpaceOnUse">
				<stop  offset="3.000000e-02" style="stop-color:#FFFFFF"/>
				<stop  offset="0.18" style="stop-color:#DFE8EB"/>
				<stop  offset="0.34" style="stop-color:#B9CBD5"/>
				<stop  offset="0.51" style="stop-color:#9BADB7"/>
				<stop  offset="0.61" style="stop-color:#8B99A3"/>
				<stop  offset="0.78" style="stop-color:#69727E"/>
				<stop  offset="0.95" style="stop-color:#8995A1"/>
				<stop  offset="1" style="stop-color:#94A2AF"/>
			</radialGradient>
			<path fill="url(#SVGID_1_)" d="M109.1,66.4c0.8,0.1,2.1,1.7,2.5,2.3c2.4-4.3,0.9-19.9-2.5-23.5c-0.3,0.8-1.1,3.2-1.8,3.5
				C110.2,55.8,110.1,63,109.1,66.4z"/>
			<path fill="#516673" d="M111.8,70.4c-0.1-0.1-0.1-0.2-0.2-0.3c2.5-4.6,0.7-20.9-3-25.8l0.1-0.2c0.4-1.5-1-4.5-3.2-7.7
				c-1.7-2.7-3.7-5.2-5.9-7.6c-5-5.5-11.7-9.9-13.4-9.4c-4.5-5.4-24.7-8-26.4-5.8c0.4,0.3,0.3,0.2,0.1,0.1
				C57.6,12.2,49.4,14.1,43,17s-12.7,7.6-13.1,9.6c-6.9,3.8-15.6,21.2-14.4,24c0,0.1,0.1,0.2,0.1,0.3c-2.1,1.7-2.8,10-2.1,17.1
				c0.7,7.6,3.5,15.4,5.2,15.7c0.3,0.2,0.7,0.4,0.2,0.1c1.5,10.2,18.1,23.2,20.9,22.1v-0.1c1,2.3,7.7,4.4,14.6,5.9
				c7.4,1.6,15.9,0.4,16.9-0.3c0.1,0,0.1-0.1,0.2-0.2c6.8,1.4,24.5-8.9,24.4-11.8h-0.2c0.7-0.1,1.3-0.5,1.8-0.9
				c2.8-1.8,6.8-7.1,9.7-12.2C110.8,79.7,112.9,70.3,111.8,70.4z"/>
			
				<radialGradient id="SVGID_2_" cx="95.348" cy="33.2082" r="71.38" gradientTransform="matrix(1.01 0 0 1 -40.9 15)" gradientUnits="userSpaceOnUse">
				<stop  offset="3.000000e-02" style="stop-color:#FFFFFF"/>
				<stop  offset="0.18" style="stop-color:#DFE8EB"/>
				<stop  offset="0.34" style="stop-color:#B9CBD5"/>
				<stop  offset="0.51" style="stop-color:#9BADB7"/>
				<stop  offset="0.61" style="stop-color:#8B99A3"/>
				<stop  offset="0.78" style="stop-color:#69727E"/>
				<stop  offset="0.95" style="stop-color:#8995A1"/>
				<stop  offset="1" style="stop-color:#94A2AF"/>
			</radialGradient>
			<path fill="url(#SVGID_2_)" d="M21.2,48.8c0.8,3.9,4.1,11.3,6.7,16c0.5,0.9,17.1,0.3,17.3-0.5c0.5-2.4,8-15.7,10.4-18.3
				c0,0-5.2-11.5-6.8-15.1c-0.3-0.6-15.1,0.2-17.5,1.7C25.9,35.9,20.7,46.3,21.2,48.8z"/>
			
				<radialGradient id="SVGID_3_" cx="99.5895" cy="31.1782" r="71.33" gradientTransform="matrix(1 0 0 1 -44.36 16.75)" gradientUnits="userSpaceOnUse">
				<stop  offset="3.000000e-02" style="stop-color:#FFFFFF"/>
				<stop  offset="0.18" style="stop-color:#DFE8EB"/>
				<stop  offset="0.34" style="stop-color:#B9CBD5"/>
				<stop  offset="0.51" style="stop-color:#9BADB7"/>
				<stop  offset="0.61" style="stop-color:#8B99A3"/>
				<stop  offset="0.78" style="stop-color:#69727E"/>
				<stop  offset="0.95" style="stop-color:#8995A1"/>
				<stop  offset="1" style="stop-color:#94A2AF"/>
			</radialGradient>
			<path fill="url(#SVGID_3_)" d="M81.3,22.2c2.4,3.2,5.7,10.6,7.6,15.7c0.3,1-10.6,12.6-11.4,12.3c-2.5-1-16.6-4.7-20-4.7
				c0,0-5.2-11.6-6.8-15.1c-0.3-0.6,9.7-10.9,12.4-11.6C68.9,16.9,79.8,20.2,81.3,22.2z"/>
			
				<radialGradient id="SVGID_4_" cx="111.4561" cy="36.7605" r="72.45" gradientTransform="matrix(1 2.000000e-02 -2.000000e-02 0.98 -55.58 9.82)" gradientUnits="userSpaceOnUse">
				<stop  offset="3.000000e-02" style="stop-color:#FFFFFF"/>
				<stop  offset="0.18" style="stop-color:#DFE8EB"/>
				<stop  offset="0.34" style="stop-color:#B9CBD5"/>
				<stop  offset="0.51" style="stop-color:#9BADB7"/>
				<stop  offset="0.61" style="stop-color:#8B99A3"/>
				<stop  offset="0.78" style="stop-color:#69727E"/>
				<stop  offset="0.95" style="stop-color:#8995A1"/>
				<stop  offset="1" style="stop-color:#94A2AF"/>
			</radialGradient>
			<path fill="url(#SVGID_4_)" d="M38.6,97.6c3.9,0.5,11.5-0.4,16.8-1c0.3,0,3.2-15.7,3.2-15.7C55.4,79.1,47.1,69,45.4,66.8
				c0,0-15.2,1.1-16.9,0.3c-0.6-0.3-4.7,13.5-4.1,16.1C25.7,88.9,36.1,97.3,38.6,97.6z"/>
			
				<radialGradient id="SVGID_5_" cx="97.2851" cy="40.1131" r="71.79" gradientTransform="matrix(0.98 1.000000e-02 1.000000e-02 0.98 -40.92 7.41)" gradientUnits="userSpaceOnUse">
				<stop  offset="3.000000e-02" style="stop-color:#FFFFFF"/>
				<stop  offset="0.18" style="stop-color:#DFE8EB"/>
				<stop  offset="0.34" style="stop-color:#B9CBD5"/>
				<stop  offset="0.51" style="stop-color:#9BADB7"/>
				<stop  offset="0.61" style="stop-color:#8B99A3"/>
				<stop  offset="0.78" style="stop-color:#69727E"/>
				<stop  offset="0.95" style="stop-color:#8995A1"/>
				<stop  offset="1" style="stop-color:#94A2AF"/>
			</radialGradient>
			<path fill="url(#SVGID_5_)" d="M107.4,66.6c-3.4,4.5-7.4,8.4-11.9,11.8c-0.8,0.6-15.1-6.6-14.9-7.4c0.5-2.3-0.7-16-1.7-19.2
				c0,0,4.3-2.8,11-11.6c0.8-1,13.6,6,15.1,8.2C108.4,53.2,108.8,64.6,107.4,66.6z"/>
			
				<radialGradient id="SVGID_6_" cx="96.2194" cy="43.8389" r="72.31" gradientTransform="matrix(0.99 1.000000e-02 1.000000e-02 0.97 -40.58 4.16)" gradientUnits="userSpaceOnUse">
				<stop  offset="3.000000e-02" style="stop-color:#FFFFFF"/>
				<stop  offset="0.18" style="stop-color:#DFE8EB"/>
				<stop  offset="0.34" style="stop-color:#B9CBD5"/>
				<stop  offset="0.51" style="stop-color:#9BADB7"/>
				<stop  offset="0.61" style="stop-color:#8B99A3"/>
				<stop  offset="0.78" style="stop-color:#69727E"/>
				<stop  offset="0.95" style="stop-color:#8995A1"/>
				<stop  offset="1" style="stop-color:#94A2AF"/>
			</radialGradient>
			<path fill="url(#SVGID_6_)" d="M73.4,104.7c-3.6-0.9-10.8-5.3-15-8C57.7,96.2,60.6,81,60.6,81c3.5-0.9,15.1-5.7,18.1-7.5
				c4.7,2.7,9.6,5.1,14.7,7.1c0.7,0.3-2.6,14.8-3.5,16.3C87.7,100.3,74.6,105,73.4,104.7z"/>
			
				<radialGradient id="SVGID_7_" cx="87.8969" cy="22.8257" r="69.82" gradientTransform="matrix(1.03 0 0 1.02 -35.35 24.86)" gradientUnits="userSpaceOnUse">
				<stop  offset="3.000000e-02" style="stop-color:#FFFFFF"/>
				<stop  offset="0.18" style="stop-color:#DFE8EB"/>
				<stop  offset="0.34" style="stop-color:#B9CBD5"/>
				<stop  offset="0.51" style="stop-color:#9BADB7"/>
				<stop  offset="0.61" style="stop-color:#8B99A3"/>
				<stop  offset="0.78" style="stop-color:#69727E"/>
				<stop  offset="0.95" style="stop-color:#8995A1"/>
				<stop  offset="1" style="stop-color:#94A2AF"/>
			</radialGradient>
			<path fill="url(#SVGID_7_)" d="M29.7,32.1c-0.8-0.8-0.9-3.9-0.6-4.9c-6.8,3.6-15.6,21-14,23.2c0.7-0.5,3.2-1.9,4.2-1.9
				C20.6,40.6,27.1,33.5,29.7,32.1z"/>
			
				<radialGradient id="SVGID_8_" cx="99.0851" cy="41.2431" r="72.15" gradientTransform="matrix(0.98 1.000000e-02 1.000000e-02 0.98 -42.31 6.6)" gradientUnits="userSpaceOnUse">
				<stop  offset="3.000000e-02" style="stop-color:#FFFFFF"/>
				<stop  offset="0.18" style="stop-color:#DFE8EB"/>
				<stop  offset="0.34" style="stop-color:#B9CBD5"/>
				<stop  offset="0.51" style="stop-color:#9BADB7"/>
				<stop  offset="0.61" style="stop-color:#8B99A3"/>
				<stop  offset="0.78" style="stop-color:#69727E"/>
				<stop  offset="0.95" style="stop-color:#8995A1"/>
				<stop  offset="1" style="stop-color:#94A2AF"/>
			</radialGradient>
			<path fill="url(#SVGID_8_)" d="M81.4,20.4c0.4-1,3.5-2,3.9-1.9c-4.1-5-22.8-7.5-24.4-5.5c0.7,0.5,3,2.6,2.9,3.3
				C71.1,15.5,79.4,18.5,81.4,20.4z"/>
			
				<radialGradient id="SVGID_9_" cx="993.0741" cy="-269.7506" r="72.15" gradientTransform="matrix(0.3 0.92 -0.92 0.31 -474.31 -784.08)" gradientUnits="userSpaceOnUse">
				<stop  offset="0.78" style="stop-color:#69727E"/>
				<stop  offset="0.95" style="stop-color:#8995A1"/>
				<stop  offset="1" style="stop-color:#94A2AF"/>
			</radialGradient>
			<path fill="url(#SVGID_9_)" d="M108.5,67.2c1.1,0.1,2.9,2.7,3,3.1c3.5-5.5,0-24-2.4-24.9c-0.2,0.8-1.5,3.7-2.2,3.8
				C110,55.9,109.6,64.7,108.5,67.2z"/>
			
				<radialGradient id="SVGID_10_" cx="99.2081" cy="42.8547" r="72.91" gradientTransform="matrix(0.99 0 0 0.97 -43.67 5.92)" gradientUnits="userSpaceOnUse">
				<stop  offset="3.000000e-02" style="stop-color:#FFFFFF"/>
				<stop  offset="0.18" style="stop-color:#DFE8EB"/>
				<stop  offset="0.34" style="stop-color:#B9CBD5"/>
				<stop  offset="0.51" style="stop-color:#9BADB7"/>
				<stop  offset="0.61" style="stop-color:#8B99A3"/>
				<stop  offset="0.78" style="stop-color:#69727E"/>
				<stop  offset="0.95" style="stop-color:#8995A1"/>
				<stop  offset="1" style="stop-color:#94A2AF"/>
			</radialGradient>
			<path fill="url(#SVGID_10_)" d="M73.9,107c0,1.2-1.6,3.2-1.8,3.4c6.4,1.3,22.8-8,22.7-10.6c-0.6,0-3.9-0.1-4.3-0.7
				C87,103.2,74.6,107.2,73.9,107z"/>
			
				<radialGradient id="SVGID_11_" cx="102.0737" cy="61.7591" r="74.73" gradientTransform="matrix(1.01 -1.000000e-02 -1.000000e-02 0.95 -47.36 -9.87)" gradientUnits="userSpaceOnUse">
				<stop  offset="3.000000e-02" style="stop-color:#FFFFFF"/>
				<stop  offset="0.18" style="stop-color:#DFE8EB"/>
				<stop  offset="0.34" style="stop-color:#B9CBD5"/>
				<stop  offset="0.51" style="stop-color:#9BADB7"/>
				<stop  offset="0.61" style="stop-color:#8B99A3"/>
				<stop  offset="0.78" style="stop-color:#69727E"/>
				<stop  offset="0.95" style="stop-color:#8995A1"/>
				<stop  offset="1" style="stop-color:#94A2AF"/>
			</radialGradient>
			<path fill="url(#SVGID_11_)" d="M23.1,85.5c-1.4,0.2-2.9,0-4.2-0.6c1.3,9,16.9,20.4,19.6,19.4c-0.3-0.8-1.3-4.5-0.9-5.2
				C29.9,96,23.9,88.3,23.1,85.5z"/>
			
				<radialGradient id="SVGID_12_" cx="115.5561" cy="63.883" r="75.61" gradientTransform="matrix(0.97 -1.000000e-02 -1.000000e-02 0.95 -56.23 -11.4)" gradientUnits="userSpaceOnUse">
				<stop  offset="3.000000e-02" style="stop-color:#FFFFFF"/>
				<stop  offset="0.18" style="stop-color:#DFE8EB"/>
				<stop  offset="0.34" style="stop-color:#B9CBD5"/>
				<stop  offset="0.51" style="stop-color:#9BADB7"/>
				<stop  offset="0.61" style="stop-color:#8B99A3"/>
				<stop  offset="0.78" style="stop-color:#69727E"/>
				<stop  offset="0.95" style="stop-color:#8995A1"/>
				<stop  offset="1" style="stop-color:#94A2AF"/>
			</radialGradient>
			<path fill="url(#SVGID_12_)" d="M57.2,48C55.7,48.6,46.9,64.1,47,65.2s11.5,13.5,13,13.6s17.3-7.1,18-7.7s-0.7-18.3-1.3-18.8
				S58.7,47.5,57.2,48z"/>
			
				<radialGradient id="SVGID_13_" cx="85.6469" cy="8.3921" r="68.1" gradientTransform="matrix(1.03 0 0 1.04 -33.77 38.94)" gradientUnits="userSpaceOnUse">
				<stop  offset="3.000000e-02" style="stop-color:#FFFFFF"/>
				<stop  offset="0.18" style="stop-color:#DFE8EB"/>
				<stop  offset="0.34" style="stop-color:#B9CBD5"/>
				<stop  offset="0.51" style="stop-color:#9BADB7"/>
				<stop  offset="0.61" style="stop-color:#8B99A3"/>
				<stop  offset="0.78" style="stop-color:#69727E"/>
				<stop  offset="0.95" style="stop-color:#8995A1"/>
				<stop  offset="1" style="stop-color:#94A2AF"/>
			</radialGradient>
			<path fill="url(#SVGID_13_)" d="M31,31c-0.7-0.6-0.9-4-0.7-4.7c-0.3-1.7,6-6.7,12.7-9.6c6.3-2.7,14.2-4.6,16.4-3.1
				c0.5,0.3,3.6,3.2,2.9,3.5c-5.6,2.7-10.8,9.4-13.4,12.1C46.1,29,33.4,29.5,31,31z"/>
			
				<radialGradient id="SVGID_14_" cx="90.5438" cy="4.1964" r="67.79" gradientTransform="matrix(1.02 0 0 1.05 -37.76 43.39)" gradientUnits="userSpaceOnUse">
				<stop  offset="3.000000e-02" style="stop-color:#FFFFFF"/>
				<stop  offset="0.18" style="stop-color:#DFE8EB"/>
				<stop  offset="0.34" style="stop-color:#B9CBD5"/>
				<stop  offset="0.51" style="stop-color:#9BADB7"/>
				<stop  offset="0.61" style="stop-color:#8B99A3"/>
				<stop  offset="0.78" style="stop-color:#69727E"/>
				<stop  offset="0.95" style="stop-color:#8995A1"/>
				<stop  offset="1" style="stop-color:#94A2AF"/>
			</radialGradient>
			<path fill="url(#SVGID_14_)" d="M22.9,84.3c-0.8,0.5-3.9-0.4-4.5-0.9c-1.6-0.2-4.4-7.9-5-15.4c-0.6-6.9,0-15.2,2-16.8
				c0.4-0.3,4.2-2.5,4.2-1.8c1.8,5.8,4.1,11.5,6.9,17C25.5,69.2,22.2,81.5,22.9,84.3z"/>
			
				<radialGradient id="SVGID_15_" cx="96.5195" cy="21.7057" r="70.33" gradientTransform="matrix(1 0 0 1.02 -41.33 26.18)" gradientUnits="userSpaceOnUse">
				<stop  offset="3.000000e-02" style="stop-color:#FFFFFF"/>
				<stop  offset="0.18" style="stop-color:#DFE8EB"/>
				<stop  offset="0.34" style="stop-color:#B9CBD5"/>
				<stop  offset="0.51" style="stop-color:#9BADB7"/>
				<stop  offset="0.61" style="stop-color:#8B99A3"/>
				<stop  offset="0.78" style="stop-color:#69727E"/>
				<stop  offset="0.95" style="stop-color:#8995A1"/>
				<stop  offset="1" style="stop-color:#94A2AF"/>
			</radialGradient>
			<path fill="url(#SVGID_15_)" d="M72.2,106.4c0.2,0.8-1.5,3.4-2,3.8c-1,0.8-9,1.9-15.9,0.4c-6.5-1.4-12.8-3.4-13.7-5.7
				c-0.2-0.5-1.5-5.6-0.8-5.4c5.8,0,11.6-0.5,17.3-1.4C59.1,99.7,69.4,106.2,72.2,106.4z"/>
			
				<radialGradient id="SVGID_16_" cx="59.5135" cy="4.9847" r="67.11" gradientTransform="matrix(1.07 3.000000e-02 3.000000e-02 1.03 -8.96 40.89)" gradientUnits="userSpaceOnUse">
				<stop  offset="3.000000e-02" style="stop-color:#FFFFFF"/>
				<stop  offset="0.18" style="stop-color:#DFE8EB"/>
				<stop  offset="0.34" style="stop-color:#B9CBD5"/>
				<stop  offset="0.51" style="stop-color:#9BADB7"/>
				<stop  offset="0.61" style="stop-color:#8B99A3"/>
				<stop  offset="0.78" style="stop-color:#69727E"/>
				<stop  offset="0.95" style="stop-color:#8995A1"/>
				<stop  offset="1" style="stop-color:#94A2AF"/>
			</radialGradient>
			<path fill="url(#SVGID_16_)" d="M108.5,68.6c0.9,0.1,2.4,1.9,3.1,2.9c1.2,0-0.7,9.1-4.2,15.3c-3.3,5.9-8.4,12-10.9,12.2
				c-0.5,0-4.8-0.3-4.5-1c1.9-5.6,3.1-11.3,3.7-17.2C98,79.3,105.6,73,108.5,68.6z"/>
			
				<radialGradient id="SVGID_17_" cx="70.8284" cy="9.1157" r="68.42" gradientTransform="matrix(0.99 6.000000e-02 6.000000e-02 1 -15.2 34.19)" gradientUnits="userSpaceOnUse">
				<stop  offset="3.000000e-02" style="stop-color:#FFFFFF"/>
				<stop  offset="0.18" style="stop-color:#DFE8EB"/>
				<stop  offset="0.34" style="stop-color:#B9CBD5"/>
				<stop  offset="0.51" style="stop-color:#9BADB7"/>
				<stop  offset="0.61" style="stop-color:#8B99A3"/>
				<stop  offset="0.78" style="stop-color:#69727E"/>
				<stop  offset="0.95" style="stop-color:#8995A1"/>
				<stop  offset="1" style="stop-color:#94A2AF"/>
			</radialGradient>
			<path fill="url(#SVGID_17_)" d="M82.9,21.2c0.3-0.8,3-1.7,3.7-1.7c1.3-0.7,8,4,13.1,9.5c4.8,5.1,9.3,12,8.9,14.4
				c-0.1,0.5-1.3,4-1.8,3.4c-4.5-4.6-12.1-7.8-15.5-9.6C90.3,34.6,84.8,23.2,82.9,21.2z"/>
			
				<radialGradient id="SVGID_18_" cx="137.4738" cy="86.7814" r="77.64" gradientTransform="matrix(0.91 -9.000000e-02 -1.000000e-02 0.97 -69.71 -22.83)" gradientUnits="userSpaceOnUse">
				<stop  offset="3.000000e-02" style="stop-color:#FFFFFF"/>
				<stop  offset="0.18" style="stop-color:#DFE8EB"/>
				<stop  offset="0.34" style="stop-color:#B9CBD5"/>
				<stop  offset="0.51" style="stop-color:#9BADB7"/>
				<stop  offset="0.61" style="stop-color:#8B99A3"/>
				<stop  offset="0.78" style="stop-color:#69727E"/>
				<stop  offset="0.95" style="stop-color:#8995A1"/>
				<stop  offset="1" style="stop-color:#94A2AF"/>
			</radialGradient>
			<path fill="url(#SVGID_18_)" d="M109.1,66.4c0.8,0.1,2.1,1.7,2.5,2.3c2.4-4.3,0.9-19.9-2.5-23.5c-0.3,0.8-1.1,3.2-1.8,3.5
				C110.2,55.8,110.1,63,109.1,66.4z"/>
			
				<radialGradient id="SVGID_19_" cx="95.348" cy="33.2082" r="71.38" gradientTransform="matrix(1.01 0 0 1 -40.9 15)" gradientUnits="userSpaceOnUse">
				<stop  offset="3.000000e-02" style="stop-color:#FFFFFF"/>
				<stop  offset="0.18" style="stop-color:#DFE8EB"/>
				<stop  offset="0.34" style="stop-color:#B9CBD5"/>
				<stop  offset="0.51" style="stop-color:#9BADB7"/>
				<stop  offset="0.61" style="stop-color:#8B99A3"/>
				<stop  offset="0.78" style="stop-color:#69727E"/>
				<stop  offset="0.95" style="stop-color:#8995A1"/>
				<stop  offset="1" style="stop-color:#94A2AF"/>
			</radialGradient>
			<path fill="url(#SVGID_19_)" d="M21.2,48.8c0.8,3.9,4.1,11.3,6.7,16c0.5,0.9,17.1,0.3,17.3-0.5c0.5-2.4,8-15.7,10.4-18.3
				c0,0-5.2-11.5-6.8-15.1c-0.3-0.6-15.1,0.2-17.5,1.7C25.9,35.9,20.7,46.3,21.2,48.8z"/>
			
				<radialGradient id="SVGID_20_" cx="99.5895" cy="31.1782" r="71.33" gradientTransform="matrix(1 0 0 1 -44.36 16.75)" gradientUnits="userSpaceOnUse">
				<stop  offset="3.000000e-02" style="stop-color:#FFFFFF"/>
				<stop  offset="0.18" style="stop-color:#DFE8EB"/>
				<stop  offset="0.34" style="stop-color:#B9CBD5"/>
				<stop  offset="0.51" style="stop-color:#9BADB7"/>
				<stop  offset="0.61" style="stop-color:#8B99A3"/>
				<stop  offset="0.78" style="stop-color:#69727E"/>
				<stop  offset="0.95" style="stop-color:#8995A1"/>
				<stop  offset="1" style="stop-color:#94A2AF"/>
			</radialGradient>
			<path fill="url(#SVGID_20_)" d="M81.3,22.2c2.4,3.2,5.7,10.6,7.6,15.7c0.3,1-10.6,12.6-11.4,12.3c-2.5-1-16.6-4.7-20-4.7
				c0,0-5.2-11.6-6.8-15.1c-0.3-0.6,9.7-10.9,12.4-11.6C68.9,16.9,79.8,20.2,81.3,22.2z"/>
			
				<radialGradient id="SVGID_21_" cx="111.4561" cy="36.7605" r="72.45" gradientTransform="matrix(1 2.000000e-02 -2.000000e-02 0.98 -55.58 9.82)" gradientUnits="userSpaceOnUse">
				<stop  offset="3.000000e-02" style="stop-color:#FFFFFF"/>
				<stop  offset="0.18" style="stop-color:#DFE8EB"/>
				<stop  offset="0.34" style="stop-color:#B9CBD5"/>
				<stop  offset="0.51" style="stop-color:#9BADB7"/>
				<stop  offset="0.61" style="stop-color:#8B99A3"/>
				<stop  offset="0.78" style="stop-color:#69727E"/>
				<stop  offset="0.95" style="stop-color:#8995A1"/>
				<stop  offset="1" style="stop-color:#94A2AF"/>
			</radialGradient>
			<path fill="url(#SVGID_21_)" d="M38.6,97.6c3.9,0.5,11.5-0.4,16.8-1c0.3,0,3.2-15.7,3.2-15.7C55.4,79.1,47.1,69,45.4,66.8
				c0,0-15.2,1.1-16.9,0.3c-0.6-0.3-4.7,13.5-4.1,16.1C25.7,88.9,36.1,97.3,38.6,97.6z"/>
			
				<radialGradient id="SVGID_22_" cx="97.2851" cy="40.1131" r="71.79" gradientTransform="matrix(0.98 1.000000e-02 1.000000e-02 0.98 -40.92 7.41)" gradientUnits="userSpaceOnUse">
				<stop  offset="3.000000e-02" style="stop-color:#FFFFFF"/>
				<stop  offset="0.18" style="stop-color:#DFE8EB"/>
				<stop  offset="0.34" style="stop-color:#B9CBD5"/>
				<stop  offset="0.51" style="stop-color:#9BADB7"/>
				<stop  offset="0.61" style="stop-color:#8B99A3"/>
				<stop  offset="0.78" style="stop-color:#69727E"/>
				<stop  offset="0.95" style="stop-color:#8995A1"/>
				<stop  offset="1" style="stop-color:#94A2AF"/>
			</radialGradient>
			<path fill="url(#SVGID_22_)" d="M107.4,66.6c-3.4,4.5-7.4,8.4-11.9,11.8c-0.8,0.6-15.1-6.6-14.9-7.4c0.5-2.3-0.7-16-1.7-19.2
				c0,0,4.3-2.8,11-11.6c0.8-1,13.6,6,15.1,8.2C108.4,53.2,108.8,64.6,107.4,66.6z"/>
			
				<radialGradient id="SVGID_23_" cx="96.2194" cy="43.8389" r="72.31" gradientTransform="matrix(0.99 1.000000e-02 1.000000e-02 0.97 -40.58 4.16)" gradientUnits="userSpaceOnUse">
				<stop  offset="3.000000e-02" style="stop-color:#FFFFFF"/>
				<stop  offset="0.18" style="stop-color:#DFE8EB"/>
				<stop  offset="0.34" style="stop-color:#B9CBD5"/>
				<stop  offset="0.51" style="stop-color:#9BADB7"/>
				<stop  offset="0.61" style="stop-color:#8B99A3"/>
				<stop  offset="0.78" style="stop-color:#69727E"/>
				<stop  offset="0.95" style="stop-color:#8995A1"/>
				<stop  offset="1" style="stop-color:#94A2AF"/>
			</radialGradient>
			<path fill="url(#SVGID_23_)" d="M73.4,104.7c-3.6-0.9-10.8-5.3-15-8C57.7,96.2,60.6,81,60.6,81c3.5-0.9,15.1-5.7,18.1-7.5
				c4.7,2.7,9.6,5.1,14.7,7.1c0.7,0.3-2.6,14.8-3.5,16.3C87.7,100.3,74.6,105,73.4,104.7z"/>
			
				<radialGradient id="SVGID_24_" cx="87.8969" cy="22.8257" r="69.82" gradientTransform="matrix(1.03 0 0 1.02 -35.35 24.86)" gradientUnits="userSpaceOnUse">
				<stop  offset="3.000000e-02" style="stop-color:#FFFFFF"/>
				<stop  offset="0.18" style="stop-color:#DFE8EB"/>
				<stop  offset="0.34" style="stop-color:#B9CBD5"/>
				<stop  offset="0.51" style="stop-color:#9BADB7"/>
				<stop  offset="0.61" style="stop-color:#8B99A3"/>
				<stop  offset="0.78" style="stop-color:#69727E"/>
				<stop  offset="0.95" style="stop-color:#8995A1"/>
				<stop  offset="1" style="stop-color:#94A2AF"/>
			</radialGradient>
			<path fill="url(#SVGID_24_)" d="M29.7,32.1c-0.8-0.8-0.9-3.9-0.6-4.9c-6.8,3.6-15.6,21-14,23.2c0.7-0.5,3.2-1.9,4.2-1.9
				C20.6,40.6,27.1,33.5,29.7,32.1z"/>
			
				<radialGradient id="SVGID_25_" cx="99.0851" cy="41.2431" r="72.15" gradientTransform="matrix(0.98 1.000000e-02 1.000000e-02 0.98 -42.31 6.6)" gradientUnits="userSpaceOnUse">
				<stop  offset="3.000000e-02" style="stop-color:#FFFFFF"/>
				<stop  offset="0.18" style="stop-color:#DFE8EB"/>
				<stop  offset="0.34" style="stop-color:#B9CBD5"/>
				<stop  offset="0.51" style="stop-color:#9BADB7"/>
				<stop  offset="0.61" style="stop-color:#8B99A3"/>
				<stop  offset="0.78" style="stop-color:#69727E"/>
				<stop  offset="0.95" style="stop-color:#8995A1"/>
				<stop  offset="1" style="stop-color:#94A2AF"/>
			</radialGradient>
			<path fill="url(#SVGID_25_)" d="M81.4,20.4c0.4-1,3.5-2,3.9-1.9c-4.1-5-22.8-7.5-24.4-5.5c0.7,0.5,3,2.6,2.9,3.3
				C71.1,15.5,79.4,18.5,81.4,20.4z"/>
			
				<radialGradient id="SVGID_26_" cx="993.0741" cy="-269.7506" r="72.15" gradientTransform="matrix(0.3 0.92 -0.92 0.31 -474.31 -784.08)" gradientUnits="userSpaceOnUse">
				<stop  offset="0.78" style="stop-color:#69727E"/>
				<stop  offset="0.95" style="stop-color:#8995A1"/>
				<stop  offset="1" style="stop-color:#94A2AF"/>
			</radialGradient>
			<path fill="url(#SVGID_26_)" d="M108.5,67.2c1.1,0.1,2.9,2.7,3,3.1c3.5-5.5,0-24-2.4-24.9c-0.2,0.8-1.5,3.7-2.2,3.8
				C110,55.9,109.6,64.7,108.5,67.2z"/>
			
				<radialGradient id="SVGID_27_" cx="99.2081" cy="42.8547" r="72.91" gradientTransform="matrix(0.99 0 0 0.97 -43.67 5.92)" gradientUnits="userSpaceOnUse">
				<stop  offset="3.000000e-02" style="stop-color:#FFFFFF"/>
				<stop  offset="0.18" style="stop-color:#DFE8EB"/>
				<stop  offset="0.34" style="stop-color:#B9CBD5"/>
				<stop  offset="0.51" style="stop-color:#9BADB7"/>
				<stop  offset="0.61" style="stop-color:#8B99A3"/>
				<stop  offset="0.78" style="stop-color:#69727E"/>
				<stop  offset="0.95" style="stop-color:#8995A1"/>
				<stop  offset="1" style="stop-color:#94A2AF"/>
			</radialGradient>
			<path fill="url(#SVGID_27_)" d="M73.9,107c0,1.2-1.6,3.2-1.8,3.4c6.4,1.3,22.8-8,22.7-10.6c-0.6,0-3.9-0.1-4.3-0.7
				C87,103.2,74.6,107.2,73.9,107z"/>
			
				<radialGradient id="SVGID_28_" cx="102.0737" cy="61.7591" r="74.73" gradientTransform="matrix(1.01 -1.000000e-02 -1.000000e-02 0.95 -47.36 -9.87)" gradientUnits="userSpaceOnUse">
				<stop  offset="3.000000e-02" style="stop-color:#FFFFFF"/>
				<stop  offset="0.18" style="stop-color:#DFE8EB"/>
				<stop  offset="0.34" style="stop-color:#B9CBD5"/>
				<stop  offset="0.51" style="stop-color:#9BADB7"/>
				<stop  offset="0.61" style="stop-color:#8B99A3"/>
				<stop  offset="0.78" style="stop-color:#69727E"/>
				<stop  offset="0.95" style="stop-color:#8995A1"/>
				<stop  offset="1" style="stop-color:#94A2AF"/>
			</radialGradient>
			<path fill="url(#SVGID_28_)" d="M23.1,85.5c-1.4,0.2-2.9,0-4.2-0.6c1.3,9,16.9,20.4,19.6,19.4c-0.3-0.8-1.3-4.5-0.9-5.2
				C29.9,96,23.9,88.3,23.1,85.5z"/>
			
				<radialGradient id="SVGID_29_" cx="115.5561" cy="63.883" r="75.61" gradientTransform="matrix(0.97 -1.000000e-02 -1.000000e-02 0.95 -56.23 -11.4)" gradientUnits="userSpaceOnUse">
				<stop  offset="3.000000e-02" style="stop-color:#FFFFFF"/>
				<stop  offset="0.18" style="stop-color:#DFE8EB"/>
				<stop  offset="0.34" style="stop-color:#B9CBD5"/>
				<stop  offset="0.51" style="stop-color:#9BADB7"/>
				<stop  offset="0.61" style="stop-color:#8B99A3"/>
				<stop  offset="0.78" style="stop-color:#69727E"/>
				<stop  offset="0.95" style="stop-color:#8995A1"/>
				<stop  offset="1" style="stop-color:#94A2AF"/>
			</radialGradient>
			<path fill="url(#SVGID_29_)" d="M57.2,48C55.7,48.6,46.9,64.1,47,65.2s11.5,13.5,13,13.6s17.3-7.1,18-7.7s-0.7-18.3-1.3-18.8
				S58.7,47.5,57.2,48z"/>
			
				<radialGradient id="SVGID_30_" cx="85.6469" cy="8.3921" r="68.1" gradientTransform="matrix(1.03 0 0 1.04 -33.77 38.94)" gradientUnits="userSpaceOnUse">
				<stop  offset="3.000000e-02" style="stop-color:#FFFFFF"/>
				<stop  offset="0.18" style="stop-color:#DFE8EB"/>
				<stop  offset="0.34" style="stop-color:#B9CBD5"/>
				<stop  offset="0.51" style="stop-color:#9BADB7"/>
				<stop  offset="0.61" style="stop-color:#8B99A3"/>
				<stop  offset="0.78" style="stop-color:#69727E"/>
				<stop  offset="0.95" style="stop-color:#8995A1"/>
				<stop  offset="1" style="stop-color:#94A2AF"/>
			</radialGradient>
			<path fill="url(#SVGID_30_)" d="M31,31c-0.7-0.6-0.9-4-0.7-4.7c-0.3-1.7,6-6.7,12.7-9.6c6.3-2.7,14.2-4.6,16.4-3.1
				c0.5,0.3,3.6,3.2,2.9,3.5c-5.6,2.7-10.8,9.4-13.4,12.1C46.1,29,33.4,29.5,31,31z"/>
			
				<radialGradient id="SVGID_31_" cx="90.5438" cy="4.1964" r="67.79" gradientTransform="matrix(1.02 0 0 1.05 -37.76 43.39)" gradientUnits="userSpaceOnUse">
				<stop  offset="3.000000e-02" style="stop-color:#FFFFFF"/>
				<stop  offset="0.18" style="stop-color:#DFE8EB"/>
				<stop  offset="0.34" style="stop-color:#B9CBD5"/>
				<stop  offset="0.51" style="stop-color:#9BADB7"/>
				<stop  offset="0.61" style="stop-color:#8B99A3"/>
				<stop  offset="0.78" style="stop-color:#69727E"/>
				<stop  offset="0.95" style="stop-color:#8995A1"/>
				<stop  offset="1" style="stop-color:#94A2AF"/>
			</radialGradient>
			<path fill="url(#SVGID_31_)" d="M22.9,84.3c-0.8,0.5-3.9-0.4-4.5-0.9c-1.6-0.2-4.4-7.9-5-15.4c-0.6-6.9,0-15.2,2-16.8
				c0.4-0.3,4.2-2.5,4.2-1.8c1.8,5.8,4.1,11.5,6.9,17C25.5,69.2,22.2,81.5,22.9,84.3z"/>
			
				<radialGradient id="SVGID_32_" cx="96.5195" cy="21.7057" r="70.33" gradientTransform="matrix(1 0 0 1.02 -41.33 26.18)" gradientUnits="userSpaceOnUse">
				<stop  offset="3.000000e-02" style="stop-color:#FFFFFF"/>
				<stop  offset="0.18" style="stop-color:#DFE8EB"/>
				<stop  offset="0.34" style="stop-color:#B9CBD5"/>
				<stop  offset="0.51" style="stop-color:#9BADB7"/>
				<stop  offset="0.61" style="stop-color:#8B99A3"/>
				<stop  offset="0.78" style="stop-color:#69727E"/>
				<stop  offset="0.95" style="stop-color:#8995A1"/>
				<stop  offset="1" style="stop-color:#94A2AF"/>
			</radialGradient>
			<path fill="url(#SVGID_32_)" d="M72.2,106.4c0.2,0.8-1.5,3.4-2,3.8c-1,0.8-9,1.9-15.9,0.4c-6.5-1.4-12.8-3.4-13.7-5.7
				c-0.2-0.5-1.5-5.6-0.8-5.4c5.8,0,11.6-0.5,17.3-1.4C59.1,99.7,69.4,106.2,72.2,106.4z"/>
			
				<radialGradient id="SVGID_33_" cx="59.5135" cy="4.9847" r="67.11" gradientTransform="matrix(1.07 3.000000e-02 3.000000e-02 1.03 -8.96 40.89)" gradientUnits="userSpaceOnUse">
				<stop  offset="3.000000e-02" style="stop-color:#FFFFFF"/>
				<stop  offset="0.18" style="stop-color:#DFE8EB"/>
				<stop  offset="0.34" style="stop-color:#B9CBD5"/>
				<stop  offset="0.51" style="stop-color:#9BADB7"/>
				<stop  offset="0.61" style="stop-color:#8B99A3"/>
				<stop  offset="0.78" style="stop-color:#69727E"/>
				<stop  offset="0.95" style="stop-color:#8995A1"/>
				<stop  offset="1" style="stop-color:#94A2AF"/>
			</radialGradient>
			<path fill="url(#SVGID_33_)" d="M108.5,68.6c0.9,0.1,2.4,1.9,3.1,2.9c1.2,0-0.7,9.1-4.2,15.3c-3.3,5.9-8.4,12-10.9,12.2
				c-0.5,0-4.8-0.3-4.5-1c1.9-5.6,3.1-11.3,3.7-17.2C98,79.3,105.6,73,108.5,68.6z"/>
			
				<radialGradient id="SVGID_34_" cx="70.8284" cy="9.1157" r="68.42" gradientTransform="matrix(0.99 6.000000e-02 6.000000e-02 1 -15.2 34.19)" gradientUnits="userSpaceOnUse">
				<stop  offset="3.000000e-02" style="stop-color:#FFFFFF"/>
				<stop  offset="0.18" style="stop-color:#DFE8EB"/>
				<stop  offset="0.34" style="stop-color:#B9CBD5"/>
				<stop  offset="0.51" style="stop-color:#9BADB7"/>
				<stop  offset="0.61" style="stop-color:#8B99A3"/>
				<stop  offset="0.78" style="stop-color:#69727E"/>
				<stop  offset="0.95" style="stop-color:#8995A1"/>
				<stop  offset="1" style="stop-color:#94A2AF"/>
			</radialGradient>
			<path fill="url(#SVGID_34_)" d="M82.9,21.2c0.3-0.8,3-1.7,3.7-1.7c1.3-0.7,8,4,13.1,9.5c4.8,5.1,9.3,12,8.9,14.4
				c-0.1,0.5-1.3,4-1.8,3.4c-4.5-4.6-12.1-7.8-15.5-9.6C90.3,34.6,84.8,23.2,82.9,21.2z"/>
			<path fill="none" d="M111.8,70.4l-0.2-0.2c3.2-5.4,0.2-22.3-2.2-24.5l-0.1-0.1c-0.2-0.4-0.5-0.8-0.8-1.2l0.1-0.2
				c0.4-1.5-1-4.5-3.2-7.7c-1.7-2.7-3.7-5.2-5.9-7.6c-5-5.5-11.7-9.9-13.4-9.4c-0.3-0.4-0.7-0.7-1.1-1.1c-4.5-4.9-22.6-7.3-24.2-5.3
				l0,0c-0.4,0.1-0.8,0.3-1.1,0.6c0.4,0.3,0.3,0.2,0.1,0.1c-0.4-0.2-0.8-0.4-1.3-0.4c-2.9-0.8-9.9,1-15.6,3.4
				c-5.4,2.3-10.6,6-12.2,8.2c-0.5,0.4-0.8,0.9-1,1.5c-0.7,0.4-1.4,0.8-2,1.3C21.2,32.6,13.5,48.3,15,50.3l0.2-0.2
				c0,0.1,0,0.2,0.1,0.3c0,0.1,0.1,0.2,0.1,0.3c-0.9,1-1.5,2.3-1.6,3.7c-0.9,4.5-1,9.1-0.6,13.7c0.7,7.4,3.4,15.1,5,15.4
				c0.1,0.1,0.3,0.2,0.4,0.2c0.1,0.4,0.2,0.8,0.3,1.2l-0.2-0.1c0.7,4.6,5,9.8,9.5,13.7c4.8,4.6,9.9,7.7,11.3,7.1v-0.1
				c1.1,2.3,7.8,4.4,14.6,5.9c7.4,1.6,15.9,0.4,16.9-0.3c0.1,0,0.1-0.1,0.2-0.2c6.8,1.4,24.5-8.9,24.4-11.8h-0.1
				c0.3,0,0.6-0.1,0.8-0.2l0,0c2.6-0.2,7.6-6.3,10.9-12.2c2.4-4.3,4-9,4.7-13.9C112.2,71.3,112.1,70.3,111.8,70.4z"/>
			<defs>
				<filter id="Adobe_OpacityMaskFilter" filterUnits="userSpaceOnUse" x="23.4" y="19" width="80.1" height="52">
					<feColorMatrix  type="matrix" values="1 0 0 0 0  0 1 0 0 0  0 0 1 0 0  0 0 0 1 0"/>
				</filter>
			</defs>
			<mask maskUnits="userSpaceOnUse" x="23.4" y="19" width="80.1" height="52" id="mask_1_">
				<g filter="url(#Adobe_OpacityMaskFilter)">
				</g>
			</mask>
			<g mask="url(#mask_1_)">
				
					<linearGradient id="SVGID_35_" gradientUnits="userSpaceOnUse" x1="63.4145" y1="132.7018" x2="63.4145" y2="51.8018" gradientTransform="matrix(1 0 0 -1 0 128)">
					<stop  offset="0" style="stop-color:#FFFFFF;stop-opacity:0.4"/>
					<stop  offset="1.000000e-02" style="stop-color:#FFFFFF;stop-opacity:0.39"/>
					<stop  offset="0.32" style="stop-color:#FFFFFF;stop-opacity:0.22"/>
					<stop  offset="0.6" style="stop-color:#FFFFFF;stop-opacity:0.1"/>
					<stop  offset="0.84" style="stop-color:#FFFFFF;stop-opacity:3.000000e-02"/>
					<stop  offset="1" style="stop-color:#FFFFFF;stop-opacity:0"/>
				</linearGradient>
				<path fill="url(#SVGID_35_)" d="M63.4,19c-22.1,0-40,15.7-40,35.1l0,0c0.1,3.1,1.8,5.8,4.5,7.3c10.8,6.3,23,9.6,35.5,9.6
					c12.5,0.1,24.8-3.2,35.5-9.6c2.7-1.5,4.4-4.2,4.5-7.3l0,0C103.4,34.7,85.5,19,63.4,19z"/>
			</g>
			<path opacity="0.2" fill="#868686" enable-background="new    " d="M112.4,63.8c0,2.2-0.1,4.4-0.4,6.6c0,0.3-0.1,0.7-0.2,1
				c-1.1,7-3.6,13.6-7.5,19.5l-0.7,1c-4.4,6.4-10.2,11.7-17,15.5l0,0c-0.5,0.3-1,0.5-1.5,0.8c-7,3.6-14.8,5.4-22.7,5.4
				c-0.7,0-1.4,0-2,0c-1.7-0.1-3.3-0.2-5-0.4l0,0c-9.4-1.3-18.1-5.3-25.3-11.4c-0.5-0.4-1-0.9-1.5-1.4c-2.2-2-4.1-4.2-5.9-6.5
				c-0.3-0.3-0.5-0.7-0.8-1.1c-2.6-3.7-4.8-7.7-6.3-11.9c3.2,1.2,6.6,2,10,2.5l0,0c1.7,0.2,3.3,0.4,5,0.5c0.7,0,1.4,0,2,0
				c7.9,0,15.7-1.8,22.7-5.4l1.5-0.8l0,0c6.8-3.8,12.6-9.1,17-15.5c0.2-0.3,0.4-0.7,0.7-1c3.8-5.9,6.4-12.5,7.4-19.5
				c0.1-0.3,0.1-0.7,0.2-1c1.1-8,0.2-16.1-2.6-23.7C99.3,24.2,112.4,42.9,112.4,63.8z"/>
			<path opacity="0.2" fill="#868686" enable-background="new    " d="M112.4,63.8c0,2.2-0.1,4.4-0.4,6.6c0,0.3-0.1,0.7-0.2,1
				c-1.1,7-3.6,13.6-7.5,19.5l-0.7,1c-4.4,6.4-10.2,11.7-17,15.5l0,0c-0.5,0.3-1,0.5-1.5,0.8c-7,3.6-14.8,5.4-22.7,5.4
				c-0.7,0-1.4,0-2,0c-1.7-0.1-3.3-0.2-5-0.4l0,0c-9.4-1.3-18.1-5.3-25.3-11.4c-0.5-0.4-1-0.9-1.5-1.4c-2.1-2-4.1-4.1-5.9-6.5
				c6.7,5.1,14.6,8.4,23,9.6l0,0c1.7,0.2,3.3,0.4,5,0.5c0.7,0,1.4,0,2,0c7.9,0,15.6-1.8,22.7-5.4l1.5-0.8l0,0
				c6.8-3.8,12.7-9.1,17.1-15.5l0.7-1c3.9-5.9,6.4-12.6,7.5-19.5c0.1-0.3,0.1-0.7,0.2-1c1.7-13-1.7-26.2-9.7-36.7
				C105.1,33.5,112.5,48.2,112.4,63.8z"/>
		</g>
	</g>
</g>
</svg>
