<?xml version="1.0" encoding="utf-8"?>
<!-- Generator: Adobe Illustrator 24.3.0, SVG Export Plug-In . SVG Version: 6.00 Build 0)  -->
<svg version="1.1" id="Layer_1" xmlns="http://www.w3.org/2000/svg" xmlns:xlink="http://www.w3.org/1999/xlink" x="0px" y="0px"
	 viewBox="0 0 126 126" enable-background="new 0 0 126 126" xml:space="preserve">
<g id="GN3DxR.tif">
	<g id="tUULjk.tif">
		<g>
			<path fill="#FFFFFF" d="M13.4,62.3c0.2,0.1,0.4,0.2,0.5,0.3c5.9,3.5,11.9,6.9,17.8,10.4c0.4,0.3,0.7,0.6,0.9,1
				c0.8,2.3,1.7,4.5,3,6.5c0.1,0.1,0.1,0.4,0,0.6c-0.9,2.7-1.9,5.5-2.9,8.2c-0.4,1.1-0.8,2.3-1.2,3.5c0.2,0,0.4-0.1,0.6-0.1
				c4-1,8.1-1.9,12.1-2.9c0.2,0,0.5,0,0.6,0.1c0.8,0.5,1.5,1.1,2.3,1.5c1.8,1.1,3.6,2.1,5.4,3.1c0.3,0.2,0.6,0.4,0.7,0.7
				c3,5.7,6,11.4,9,17c0.1,0.2,0.2,0.4,0.3,0.6c0.1-0.2,0.2-0.4,0.3-0.5c3.4-5.7,6.8-11.4,10.1-17.1c0.2-0.4,0.5-0.6,0.9-0.8
				c2.6-1.3,5.2-2.6,7.8-3.9c0.2-0.1,0.4-0.1,0.6,0c3.2,0.8,6.4,1.7,9.5,2.5c0.9,0.2,1.8,0.5,2.7,0.7c-0.1-0.2-0.1-0.3-0.1-0.5
				c-1.2-4-2.4-8-3.7-12c-0.1-0.4-0.1-0.7,0.1-1c1.4-2.4,2.7-4.8,4-7.2c0.2-0.4,0.4-0.7,0.8-0.9c5.2-3.1,10.4-6.3,15.6-9.5
				c0.4-0.2,0.7-0.4,1.2-0.7c-1.2-0.7-2.3-1.4-3.5-2.1c-5-3-9.9-6-14.8-9c-0.2-0.1-0.4-0.3-0.4-0.5c-0.9-2.5-2.3-4.8-3.9-6.8
				c-0.1-0.2-0.2-0.5-0.1-0.7c0.8-3,1.6-6,2.4-9c0.3-1,0.5-2,0.8-3c-0.2,0-0.3,0.1-0.5,0.1c-3.6,1.1-7.2,2.2-10.8,3.4
				c-1,0.3-1.8,0.4-2.6-0.4c0,0-0.1-0.1-0.2-0.1c-1.5-1-3-2.1-4.7-2.6c-0.4-0.1-0.6-0.3-0.8-0.6c-3.4-5.8-6.8-11.6-10.2-17.4
				c-0.1-0.1-0.2-0.3-0.3-0.5c-0.1,0.2-0.3,0.4-0.4,0.6c-3.6,6.1-7.1,12.1-10.7,18.2c-0.1,0.2-0.3,0.4-0.6,0.5
				c-2.1,0.9-4.1,1.7-6.2,2.6c-0.2,0.1-0.4,0.1-0.6,0c-2.8-1.2-5.7-2.4-8.5-3.6c-1-0.4-2-0.9-3.1-1.3c0,0.2,0.1,0.4,0.1,0.5
				c1,3.7,2,7.4,3.1,11c0.4,1.2,0.3,2.2-0.4,3.3c-1.3,1.9-2.3,3.9-2.7,6.2c0,0.2-0.2,0.4-0.4,0.5c-3.2,1.8-6.3,3.6-9.5,5.4
				C19.9,58.6,16.7,60.4,13.4,62.3z"/>
			<path fill="#D6D6D6" d="M13.4,62.3c3.3-1.9,6.5-3.7,9.7-5.5c3.2-1.8,6.3-3.6,9.5-5.4c0.2-0.1,0.4-0.3,0.4-0.5
				c0.5-2.3,1.5-4.3,2.7-6.2c0.8-1.1,0.8-2.1,0.4-3.3c-1.1-3.7-2.1-7.3-3.1-11c0-0.1-0.1-0.3-0.1-0.5c1.1,0.5,2.1,0.9,3.1,1.3
				c2.8,1.2,5.7,2.4,8.5,3.6c0.2,0.1,0.4,0.1,0.6,0c2.1-0.8,4.1-1.7,6.2-2.6c0.2-0.1,0.4-0.3,0.6-0.5c3.6-6.1,7.1-12.1,10.7-18.2
				c0.1-0.2,0.2-0.4,0.4-0.6c0.1,0.2,0.2,0.3,0.3,0.5c3.4,5.8,6.8,11.6,10.2,17.4c0.2,0.3,0.4,0.5,0.8,0.6c1.8,0.5,3.2,1.6,4.7,2.6
				c0.1,0,0.1,0.1,0.2,0.1c0.8,0.8,1.6,0.8,2.6,0.4c3.6-1.2,7.2-2.3,10.8-3.4c0.1,0,0.3-0.1,0.5-0.1c-0.3,1-0.5,2-0.8,3
				c-0.8,3-1.6,6-2.4,9c-0.1,0.2,0,0.5,0.1,0.7c1.7,2.1,3.1,4.3,3.9,6.8c0.1,0.2,0.3,0.3,0.4,0.5c4.9,3,9.9,6,14.8,9
				c1.1,0.7,2.3,1.4,3.5,2.1c-0.4,0.3-0.8,0.5-1.2,0.7c-5.2,3.2-10.4,6.3-15.6,9.5c-0.4,0.2-0.6,0.5-0.8,0.9c-1.3,2.4-2.6,4.8-4,7.2
				c-0.2,0.4-0.2,0.7-0.1,1c1.2,4,2.4,8,3.7,12c0,0.1,0.1,0.2,0.1,0.5c-1-0.3-1.8-0.5-2.7-0.7c-3.2-0.9-6.4-1.7-9.5-2.5
				c-0.2-0.1-0.4-0.1-0.6,0c-2.6,1.3-5.2,2.6-7.8,3.9c-0.4,0.2-0.7,0.4-0.9,0.8c-3.4,5.7-6.7,11.4-10.1,17.1
				c-0.1,0.2-0.2,0.3-0.3,0.5c-0.1-0.2-0.2-0.4-0.3-0.6c-3-5.7-6-11.4-9-17c-0.2-0.3-0.4-0.5-0.7-0.7c-1.8-1-3.6-2.1-5.4-3.1
				c-0.8-0.5-1.5-1-2.3-1.5c-0.2-0.1-0.4-0.2-0.6-0.1c-4,1-8.1,1.9-12.1,2.9c-0.2,0-0.3,0.1-0.6,0.1c0.4-1.2,0.8-2.4,1.2-3.5
				c1-2.7,1.9-5.5,2.9-8.2c0.1-0.2,0.1-0.5,0-0.6c-1.3-2-2.2-4.3-3-6.5c-0.2-0.5-0.4-0.8-0.9-1c-5.9-3.4-11.9-6.9-17.8-10.4
				C13.8,62.5,13.7,62.4,13.4,62.3z M48.6,79.6c0.2,0.2,0.3,0.4,0.4,0.5c0.2,0.2,0.5,0.5,0.7,0.7c2.2,1.8,4.8,2.4,7.6,2.8
				c2.5,0.3,4.9,0.2,7.4,0c4.6-0.4,8.6-2,12.2-4.8c4.4-3.4,6.2-8.1,6.6-13.5c0.2-3,0-5.9-0.7-8.8c-0.3-1.5-0.6-3-1.4-4.4
				c-1.7-2.7-3.8-5.1-6-7.5c-0.1-0.1-0.3-0.2-0.4-0.2c-1.9-0.5-3.9-1.1-5.8-1.4c-1.3-0.3-2.3-0.7-2.9-1.9c0,0,0,0,0,0
				c-0.1-0.2-0.3-0.3-0.5-0.1c-0.6,0.3-1.3,0.6-1.9,0.8c-0.2,0.1-0.5,0.1-0.7,0.1c-0.7-0.1-1.4-0.3-2.1-0.4c-0.2,0-0.5,0-0.7,0.1
				c-1.9,1.1-3.8,2.2-5.7,3.3c-0.8,0.5-1.7,0.9-2.4,1.5c-2,1.6-3.9,3.3-5.8,5c-0.1,0.1-0.2,0.4-0.2,0.5c0.1,1.4,0.3,2.8,0.1,4.3
				c-0.2,1.7,0.3,3.4,1,4.9c1.2,2.7,3,4.9,4.9,7c0.6,0.7,1.2,1.4,1.9,1.8c1.4,0.9,3,1.4,4.7,1.4c3.7,0.1,6.7-1.5,9.4-3.8
				c0.1-0.1,0.2-0.3,0.2-0.4c0-1.9-0.2-3.7-0.9-5.5c-1.2-3.2-3.5-4.5-6.7-3.7c-1.3,0.3-1.3,0.3-1,1.6c0.1,0.8,0.3,1.6,0.3,2.3
				c0,0.7-0.4,1.1-1,1c-0.4-0.1-0.9-0.3-1.2-0.6c-1.8-1.8-2-4-1.4-6.3c0.2-0.8,0.4-1.8,1-2.3c2.9-3,6.5-4.2,10.7-3.5
				c0.5,0.1,1,0.2,1.6,0c0.3-0.1,0.4,0,0.5,0.3c0.3,0.6,0.6,1.3,1,1.8c1.7,2.4,2.5,5,2.6,7.9c0,2.7-0.9,5.2-1.9,7.6
				c-0.3,0.9-1.2,1.6-1.9,2.3c-1.8,1.6-4,2.8-6.3,3.7c-3.7,1.5-7.4,2.9-11.1,4.3C51.4,78.6,50,79.1,48.6,79.6z"/>
		</g>
	</g>
</g>
</svg>
