<?xml version="1.0" encoding="utf-8"?>
<!-- Generator: Adobe Illustrator 24.3.0, SVG Export Plug-In . SVG Version: 6.00 Build 0)  -->
<svg version="1.1" id="Layer_1" xmlns="http://www.w3.org/2000/svg" xmlns:xlink="http://www.w3.org/1999/xlink" x="0px" y="0px"
	 viewBox="0 0 126 126" enable-background="new 0 0 126 126" xml:space="preserve">
<g>
	<path d="M26.2,78.8c-0.1,0-0.1,0-0.2,0c-0.1,0-0.1-0.1-0.2-0.1C21.9,77.9,18,77,14,76.2c-1.2-0.3-1.3-0.6-0.7-1.6
		c1-1.8,2-3.5,2.9-5.3c0.4-0.7,0.9-1.5,1-2.3c0.5-3,1-6.1,1.4-9.1c0.1-0.5,0-0.8-0.5-0.9c-1-0.3-1.9-0.8-2.9-1.2
		c-0.3-0.1-0.4-0.4-0.6-0.7c0.2-0.2,0.4-0.5,0.7-0.6c5.1-1.8,10.4-3,15.7-4.1c0.6-0.1,0.7,0.2,0.6,0.7c-0.1,0.2-0.2,0.3-0.3,0.5
		c3.1-0.4,6.2-0.8,9.2-1.1c0.4,0,0.7,0.1,1.1,0.1c-0.1,0.3-0.3,0.6-0.4,1c0,0,0,0.1,0,0.2c1.7-0.1,3.3-0.3,4.9-0.4
		c5.6-0.3,11.2-0.6,16.8-0.9c0.5,0,0.9-0.1,1.3-0.3c1.7-0.8,3.4-1.7,5.1-2.6c0.9-0.5,1.7-0.4,2.5,0c1.8,0.9,3.6,1.8,5.5,2.7
		c0.9,0.4,2,0.7,3,0.8c4.3,0.5,8.6,0.9,12.9,1.4c1.1,0.1,2,0.2,2.9-0.8c0.9-1,2.1-1.4,3.4-1.1c3.2,0.8,6.5,1.6,9.7,2.4
		c1,0.3,1,0.7,0.3,1.4c-1.4,1.5-2.8,3-4.2,4.5c-0.1-0.1,0,0,0.1,0.1c5.7,3.5,7.6,9,7.6,15.3c0,0.9-0.4,1.4-1.3,1.6
		c-1.7,0.4-3.4,0.8-5.1,1.3c-2.2,0.6-4.3,1.2-6.4,1.8c-0.2,0-0.5,0-0.7,0c-2.5-0.7-5-1.3-7.5-2c0,0.1,0.1,0.2,0.1,0.3
		c-0.4,0.3-0.7,0.8-1.1,0.9c-0.8,0.2-1.6,0.1-1.9-1c-0.9,0.2-1.7,0.5-2.5,0.4c-1.2-0.2-2.4-0.3-3.7-0.5c-0.4,0-0.9-0.2-1.3-0.2
		c-1.3,0.1-1.5-0.1-1.6-1.3c0-0.2-0.1-0.4-0.1-0.6c-0.2,0.1-0.3,0.1-0.4,0.2c-1,1.4-2.6,1.8-4.1,1.1c-0.4-0.2-0.9-0.6-1-1
		c-0.2-1-0.9-0.9-1.6-0.8c-0.3,0.6,0.3,1.7-0.9,1.7c-0.3,0-0.9,0-1-0.2c-0.3-0.5-0.3-1.1-0.5-1.7c-0.4,0-0.8,0-1.2,0
		c-0.5,1.6-0.9,1.8-2.9,1.7c-1.3-0.1-1.3-0.1-1.7-1.9c-0.9,0-1.8,0-2.6,0C61.9,76,61.9,76,60,76c-0.2,0-0.4,0-0.5,0
		c-1.6,0-1.8,0.3-1.8-1.7c0,0-0.1-0.1-0.1-0.2C56.8,74,56.9,74.6,57,75c0.1,0.9-0.4,1.1-1.2,1.1c-0.8,0-1.1-0.3-1.1-1.1
		c0-0.3,0-0.5-0.1-0.8c-0.1,0-0.2,0-0.2,0c-0.3,0.8,0.3,2.2-1.5,2c-1.4-0.2-0.7-1.2-1-1.8c-0.5,0.1-0.9,0.1-1.4,0.2
		c-0.2,0.8,0.4,1.9-1.2,2c-1.4,0-1.2-0.9-1.3-1.8c-1.6,0.2-3.2,0.4-4.8,0.6c-0.5,0.1-0.5,0.4-0.5,0.8c0,0.6-0.2,1.1-0.9,1.1
		c-0.4,0-0.9,0-1.2-0.2c-0.3-0.2-0.3-0.7-0.5-1.1c0,0.1-0.1,0.1-0.1,0.1c-1.1,2.1-3.6,2.5-5.3,1c-0.2-0.1-0.5-0.3-0.7-0.2
		C31.4,77.5,28.8,78.2,26.2,78.8z M106.4,53.9c-2.5-0.6-5.1-1.2-7.7-1.8c-0.3-0.1-0.8,0.1-1,0.4c-1.5,1.2-2.9,2.5-4.4,3.8
		c-0.9,0.8-0.9,1.4,0.1,2.1c0.9,0.7,1.9,1.2,2.9,1.9c1.9,1.2,3.9,2.4,5.8,3.7c0.5,0.4,0.9,0.9,1.4,1.4c0,0.1-0.1,0.1-0.1,0.2
		c-0.3,0-0.5,0-0.8-0.1c-1.6-0.3-3.1-0.7-4.7-1.1c-1.1-0.3-2.4-0.2-2.7-1.9c-1.9,2.1-3.8,4.1-5.8,6.3c1-0.1,1.6-0.1,2.3-0.2
		c1.7-0.1,3.5-0.4,5.1-0.1c3,0.6,5.8,1.5,8.7,2.4c1.2,0.3,2.4,0.8,3.5,1.2c1.3,0.4,1.6,0.2,1.4-1.2c-0.1-0.6-0.2-1.3-0.4-1.9
		c-0.6-3.1-1.9-5.9-4.7-7.7c-2.2-1.4-4.4-2.8-6.6-4.2c-0.3-0.2-0.6-0.4-1-0.7c0.6-0.4,1-1,1.4-1c0.7-0.1,1.6,0,2,0.4
		c0.6,0.5,0.8,1.4,1.2,2.2C103.9,56.6,105.1,55.3,106.4,53.9z M29.8,53.7c0.9,0.8,1.9,1,1.6,2.4c-0.4,2.5-0.2,2.5-2.7,3
		c-1,0.2-2.1,0.4-3.2,0.6c0.5-2.5,0.1-5.2,2.6-6.9c-0.1-0.1-0.2-0.2-0.3-0.3c-2.9,0.7-5.8,1.5-8.7,2.2c0,0.1,0,0.2,0,0.3
		c0.5,0.2,1.1,0.5,1.7,0.7c-0.4,2.9-0.9,5.8-1.2,8.7c-0.2,2.5-0.9,4.8-2.4,6.9c-0.1,0.1-0.1,0.3-0.2,0.5c3.2-1,6.3-2,9.6-3.1
		c-0.5-0.3-0.9-0.7-1.3-0.9c-0.6-0.3-0.7-0.7-0.6-1.3c0.1-1.1,0.2-2.1,0.3-3.2c0-0.2,0.2-0.6,0.3-0.6c1.7-0.4,3.4-0.8,5.2-1.2
		c0,2.5-0.1,4.9-2.2,6.6c1.3-0.2,2.7-0.1,3.7-0.7c1.3-0.7,2.3-2,3.4-3c0.1-0.1,0-0.3,0.1-0.5c0.2-2.5,0.4-4.9,0.7-7.4
		c0.1-0.6-0.1-0.9-0.6-1.3c-0.5-0.4-1-0.8-1.7-1.4c1.6-0.2,3-0.2,3.7-1.8C35.2,52.8,32.6,53.2,29.8,53.7z M64.8,64.8
		c-2.1-1.8-4.6-3.3-6.4-3.8c2-0.8,2.6-2.4,2.7-4.3c0.1-1.5,0.2-3,0.3-4.6c-4,0.2-8,0.3-12,0.5c-0.5,0-0.7,0.2-0.8,0.7
		c-0.1,2.6-0.2,5.1-0.2,7.7c0,0.3,0.2,0.7,0.4,0.9c0.8,1,1.6,1.9,2.4,2.8c0.2,0.2,0.4,0.4,0.6,0.4c1.2,0,2.4-0.1,3.8-0.2
		c-0.7-0.5-1.4-0.8-1.7-1.3c-0.3-0.5-0.2-1.3-0.3-2.1c1.6,1,3,1.8,4.4,2.7c0.3,0.2,0.6,0.4,1,0.4C60.8,64.8,62.7,64.8,64.8,64.8z
		 M35.5,54.1c0,0.1,0,0.2-0.1,0.3c0.3,0.3,0.7,0.6,1.1,0.9c0.7,0.4,0.9,1,0.8,1.8c-0.2,2.2-0.3,4.5-0.5,6.7
		c-0.1,0.6-0.4,1.2-0.7,1.6c-0.5,0.6-1.1,1.2-1.9,1.9c5.9-0.8,11.6-2,17.3-0.6c0-0.1,0-0.2,0.1-0.3c-1.2-1.5-2.5-3-3.7-4.5
		c-1.8,1.5-4,0.8-6.1,1.4c0.1-1,0.2-1.7,0.2-2.5c1.8-0.5,3.5-0.6,5.3,0.2c0-0.1,0.1-0.2,0.1-0.2c-0.7-1.1-1.4-2.3-2-3.2
		c-1.1,0.2-2,0.4-3.1,0.5c0-0.8,0.1-1.4,0.1-2.1c1.8,0,3.6-0.7,5.4,0.3c0-1.2,0-2.3,0-3.5C43.5,53.2,39.5,53.7,35.5,54.1z
		 M90.2,57.7c-1.2,1-2.5,0.2-3.7,0.3c0-0.8,0-1.6,0-2.4c1.4,0.4,3.1,0,4.2,1.4c1.2-0.9,2.3-1.9,3.6-2.9c-4.9-0.8-9.7-1.5-14.8-1.7
		c0.6,0.5,1.1,0.8,1.5,1.2c0.2,0.2,0.4,0.5,0.4,0.7c0.1,2.9,0.1,5.8,0.2,8.7c0,0.5-0.2,0.8-0.6,1c-0.8,0.5-1.6,1-2.3,1.5
		c3.8,0.5,7.4,1,11.1,1.4c0.2,0,0.4,0,0.5-0.1c1.4-1.5,2.8-2.9,4.2-4.4c0-0.1-0.1-0.2-0.1-0.2c-2.3,1.3-4.8,1.6-7.4,0.5
		c0-0.7,0-1.5,0-2.4c1,0.1,1.9,0.1,2.8,0.3c0.9,0.2,1.7,0.6,2.7,1.1C91.6,60.3,90.9,59,90.2,57.7z M67.4,64.8c0,0.1,0,0.2,0,0.3
		c0.6,0.3,1.2,0.7,1.9,0.9c3.8,1,7-0.7,9.3-3.6c0.1-0.1,0.1-0.4,0.1-0.5c-0.9-1.4-1.9-2.7-2.9-4.1C74.4,62,72.5,65.2,67.4,64.8z
		 M63.6,62.4c1.7-0.2,3.4-0.5,5.3-0.7c-1.6-1.5-2.9-2.9-3.3-5c-0.4-2,0.3-3.9,1-5.8C62.3,53.6,61.7,57.5,63.6,62.4z M79.2,58.3
		c0.6-4.6-3.4-8.7-8.2-8.7c-0.7,1.4-1.4,2.9-2.1,4.3C73.4,52.7,77.1,53.5,79.2,58.3z M87.1,74.4c0.1,0,0.1,0,0.2,0
		c0.3,0.6,0.5,1.2,0.8,1.7c0.1,0.2,0.4,0.4,0.7,0.4c0.1,0,0.4-0.3,0.5-0.5c0.2-0.4,0.4-0.9,0.6-1.4c0.3,0.7,0.3,1.3,0.4,2
		c0.1,0.7,0.4,0.9,1.1,0.7c-0.2-1.4-0.4-2.8-0.6-4.1c0-0.2-0.5-0.5-0.8-0.5c-0.2,0-0.5,0.2-0.6,0.4c-0.3,0.6-0.5,1.3-0.8,2.1
		c-0.4-0.8-0.7-1.5-1-2.2c-0.3-0.8-0.8-0.9-1.5-0.9c0,1.5,0,3,0,4.5c0.3,0,0.6,0,0.9,0C87,75.9,87,75.1,87.1,74.4z M74.9,73
		c0,0.3,0,0.6,0,0.9c0.1,1.3,1.1,2,2.7,1.9c1.2-0.1,1.6-0.6,1.5-2.1c0-0.3,0-0.6-0.1-0.9c-0.2-1.3-1.2-1.9-2.9-1.8
		C75.2,71.1,74.8,71.6,74.9,73z M83.3,74.7c0.8-0.2,1-0.6,1-1.3c0-0.7-0.2-1.4-1-1.6c-0.8-0.2-1.7-0.3-2.6-0.4
		c0.1,1.6,0.2,3.1,0.3,4.6c0.3,0,0.6,0.1,1,0.1c0-0.6,0-1.1,0-1.6c1,0.3,0.9,2.2,2.5,1.7C84,75.8,83.7,75.3,83.3,74.7z M39.4,74
		c-0.2-0.5-0.3-1.1-0.7-1.3c-1-0.7-3.2,0.1-3.5,1.2C35,74.6,35,75.4,35,76.2c0,0.7,0.5,1.1,1.2,1.1C38.7,77.2,39.2,76.3,39.4,74z
		 M56.3,70.7c-0.3,0-0.7,0-0.8,0.1c-0.2,0.6-0.3,1.2-0.4,1.8c-0.5,0-0.9,0-1.5,0c0-0.6,0-1.1,0-1.7c-0.4,0-0.7,0-1,0.1
		c0,1.6,0,3,0,4.6c0.3,0,0.6,0,0.9-0.1c0-0.6,0.1-1.3,0.1-1.9c0.5,0,1-0.1,1.6-0.1c0,0.7,0,1.3,0,1.8c0.4,0,0.7,0,1,0
		C56.3,73.7,56.3,72.3,56.3,70.7z M61.3,75.1c0.1-0.1,0.1-0.2,0.2-0.3c-0.2-0.1-0.4-0.4-0.6-0.4c-0.3-0.1-0.6,0-0.9,0
		c-0.9,0.1-0.9-0.3-0.7-1c0.6,0,1.2-0.1,1.8-0.1c-0.1-1.5-1.4-0.4-1.9-1c0-0.2,0-0.5,0.1-0.9c0.7,0,1.4,0,2,0
		c0.1-0.1,0.1-0.2,0.2-0.2c-0.2-0.2-0.4-0.5-0.6-0.6c-0.9-0.1-1.7,0-2.6,0c0,1.7,0,3.2,0,4.7C59.3,75.2,60.3,75.1,61.3,75.1z
		 M65.4,74.3c-0.1,0.1-0.2,0.1-0.2,0.2c0.2,0.2,0.3,0.6,0.5,0.6c0.5,0.1,1.1,0.3,1.7,0.1c0.4-0.1,1-0.4,1.2-0.8
		c0.3-0.6,0-1.2-0.5-1.5c-0.4-0.2-0.9-0.4-1.2-0.7c-0.2-0.1-0.2-0.4-0.3-0.5c0.2-0.1,0.4-0.2,0.5-0.2c0.5,0,1,0.1,1.4,0.1
		c0.2-0.6,0.1-0.9-0.5-0.9c-0.4,0-0.9-0.1-1.3-0.1c-0.6,0-1.1,0.3-1.3,0.9c-0.2,0.7,0.2,1.1,0.7,1.5c0.4,0.2,0.8,0.4,1.2,0.6
		c0.2,0.1,0.2,0.4,0.4,0.5c-0.2,0.1-0.4,0.3-0.6,0.3C66.4,74.4,65.9,74.3,65.4,74.3z M44.2,71.6c-0.9,0.1-1.8,0.2-2.7,0.3
		c-0.2,0-0.4,0.2-0.5,0.4c-0.1,1.4-0.2,2.8-0.2,4.2c0.5,0,0.8-0.1,1.1-0.1c0-0.7,0.1-1.2,0.1-1.7c0.5-0.6,1.9,0.3,1.8-1.1
		c-0.7,0-1.3,0.1-1.8,0.1c-0.2-0.8,0.1-1.1,0.9-1.1c0.4,0,0.9-0.1,1.3-0.2C44.2,72.1,44.2,71.9,44.2,71.6z M72.3,75.4
		c0-1.2,0-2.4,0-3.7c0.5,0,0.9,0,1.3,0c0-0.3,0-0.5,0-0.8c-1.3-0.1-2.5-0.1-3.7-0.2c0,0.4,0.1,0.6,0.1,0.9c0.4,0,0.8,0.1,1.2,0.1
		c0.1,1.3,0.1,2.5,0.2,3.7C71.6,75.3,71.9,75.3,72.3,75.4z M49.8,75.6c0-1,0-1.9,0-2.8c0-0.6,0.1-1,0.8-0.9c0.7,0.1,0.7-0.3,0.5-0.9
		c-1,0.1-2.1,0.2-3.1,0.2c-0.6,0-0.7,0.3-0.5,0.9c0.4,0,0.8,0,1.2,0c0,1.2,0,2.4,0,3.6C49.1,75.7,49.3,75.6,49.8,75.6z"/>
	<path fill="#FFFFFF" d="M106.4,53.9c-1.3,1.4-2.6,2.7-3.8,4c-0.4-0.8-0.6-1.7-1.2-2.2c-0.5-0.4-1.4-0.5-2-0.4
		c-0.5,0.1-0.9,0.6-1.4,1c0.4,0.3,0.7,0.5,1,0.7c2.2,1.4,4.4,2.8,6.6,4.2c2.8,1.8,4.1,4.6,4.7,7.7c0.1,0.6,0.3,1.3,0.4,1.9
		c0.2,1.4-0.1,1.6-1.4,1.2c-1.2-0.4-2.3-0.9-3.5-1.2c-2.9-0.8-5.8-1.8-8.7-2.4c-1.6-0.3-3.4,0-5.1,0.1c-0.7,0-1.3,0.1-2.3,0.2
		c2-2.2,3.8-4.1,5.8-6.3c0.3,1.7,1.6,1.6,2.7,1.9c1.6,0.4,3.1,0.7,4.7,1.1c0.2,0.1,0.5,0.1,0.8,0.1c0-0.1,0.1-0.1,0.1-0.2
		c-0.5-0.5-0.9-1-1.4-1.4c-1.9-1.3-3.8-2.5-5.8-3.7c-1-0.6-2-1.2-2.9-1.9c-1-0.7-1-1.4-0.1-2.1c1.4-1.3,2.9-2.5,4.4-3.8
		c0.3-0.2,0.7-0.4,1-0.4C101.4,52.7,103.9,53.3,106.4,53.9z"/>
	<path fill="#FFFFFF" d="M29.8,53.7c2.8-0.5,5.4-0.9,8-1.4c-0.7,1.6-2.1,1.5-3.7,1.8c0.7,0.6,1.2,1,1.7,1.4c0.5,0.3,0.6,0.7,0.6,1.3
		c-0.2,2.5-0.5,4.9-0.7,7.4c0,0.2,0,0.4-0.1,0.5c-1.1,1.1-2.1,2.3-3.4,3c-1,0.6-2.4,0.6-3.7,0.7c2.1-1.7,2.1-4.1,2.2-6.6
		c-1.8,0.4-3.5,0.7-5.2,1.2c-0.2,0-0.3,0.4-0.3,0.6c-0.1,1.1-0.2,2.1-0.3,3.2c-0.1,0.6,0,1,0.6,1.3c0.4,0.2,0.8,0.5,1.3,0.9
		c-3.3,1-6.4,2-9.6,3.1c0.1-0.2,0.1-0.4,0.2-0.5c1.5-2.1,2.2-4.4,2.4-6.9c0.2-2.9,0.8-5.8,1.2-8.7c-0.6-0.2-1.1-0.5-1.7-0.7
		c0-0.1,0-0.2,0-0.3c2.9-0.7,5.8-1.5,8.7-2.2c0.1,0.1,0.2,0.2,0.3,0.3c-2.5,1.7-2.1,4.3-2.6,6.9c1.1-0.2,2.2-0.4,3.2-0.6
		c2.4-0.5,2.3-0.5,2.7-3C31.7,54.7,30.7,54.5,29.8,53.7z"/>
	<path fill="#FFFFFF" d="M64.8,64.8c-2,0-4,0-5.9,0c-0.3,0-0.7-0.3-1-0.4c-1.4-0.8-2.8-1.7-4.4-2.7c0.1,0.8,0,1.6,0.3,2.1
		c0.3,0.5,1,0.7,1.7,1.3c-1.4,0.1-2.6,0.2-3.8,0.2c-0.2,0-0.5-0.2-0.6-0.4c-0.8-0.9-1.7-1.9-2.4-2.8c-0.2-0.3-0.4-0.6-0.4-0.9
		c0-2.6,0.2-5.1,0.2-7.7c0-0.6,0.3-0.7,0.8-0.7c4-0.2,8.1-0.3,12-0.5c-0.1,1.6-0.2,3.1-0.3,4.6c-0.1,1.9-0.7,3.5-2.7,4.3
		C60.1,61.5,62.7,63,64.8,64.8z M53.3,55.1c0,1.3,0,2.4,0,3.5c0,0.1,0,0.3,0,0.4c0.1,0.2,0.2,0.5,0.3,0.6c0.9,0.3,2.4-0.5,2.6-1.4
		c0.2-1,0.2-2.1,0.3-3.1C55.5,55.1,54.5,55.1,53.3,55.1z"/>
	<path fill="#FFFFFF" d="M35.5,54.1c4-0.4,8.1-0.9,12.2-1.3c0,1.2,0,2.3,0,3.5c-1.7-1.1-3.5-0.3-5.4-0.3c0,0.7-0.1,1.3-0.1,2.1
		c1-0.2,2-0.3,3.1-0.5c0.6,0.9,1.3,2.1,2,3.2c0,0.1-0.1,0.2-0.1,0.2c-1.7-0.9-3.4-0.7-5.3-0.2c-0.1,0.7-0.2,1.5-0.2,2.5
		c2.1-0.6,4.3,0.2,6.1-1.4c1.3,1.5,2.5,3,3.7,4.5c0,0.1,0,0.2-0.1,0.3c-5.8-1.5-11.4-0.3-17.3,0.6c0.7-0.8,1.4-1.3,1.9-1.9
		c0.4-0.5,0.7-1.1,0.7-1.6c0.2-2.2,0.3-4.5,0.5-6.7c0.1-0.8-0.1-1.3-0.8-1.8c-0.4-0.2-0.7-0.6-1.1-0.9
		C35.4,54.3,35.4,54.2,35.5,54.1z"/>
	<path fill="#FFFFFF" d="M90.2,57.7c0.7,1.3,1.4,2.6,2.2,4c-1-0.4-1.9-0.8-2.7-1.1c-0.9-0.2-1.8-0.2-2.8-0.3c0,0.9,0,1.7,0,2.4
		c2.6,1,5,0.8,7.4-0.5c0,0.1,0.1,0.2,0.1,0.2c-1.4,1.5-2.8,2.9-4.2,4.4C90,67,89.8,67,89.6,67c-3.7-0.5-7.3-0.9-11.1-1.4
		c0.8-0.5,1.5-1,2.3-1.5c0.4-0.2,0.6-0.5,0.6-1c-0.1-2.9-0.1-5.8-0.2-8.7c0-0.3-0.2-0.6-0.4-0.7c-0.4-0.4-0.9-0.7-1.5-1.2
		c5.1,0.2,9.8,0.9,14.8,1.7c-1.3,1-2.4,1.9-3.6,2.9c-1.1-1.4-2.7-0.9-4.2-1.4c0,0.8,0,1.6,0,2.4C87.7,57.9,88.9,58.7,90.2,57.7z"/>
	<path fill="#FFFFFF" d="M67.4,64.8c5,0.4,7-2.8,8.2-7c1,1.4,2,2.8,2.9,4.1c0.1,0.1,0,0.4-0.1,0.5c-2.3,2.9-5.5,4.6-9.3,3.6
		c-0.7-0.2-1.2-0.6-1.9-0.9C67.4,65,67.4,64.9,67.4,64.8z"/>
	<path fill="#FFFFFF" d="M63.6,62.4c-1.9-5-1.3-8.9,3-11.5c-0.7,2-1.4,3.8-1,5.8c0.4,2,1.7,3.5,3.3,5C67,62,65.3,62.2,63.6,62.4z"/>
	<path fill="#FFFFFF" d="M79.2,58.3c-2.1-4.8-5.8-5.5-10.2-4.4c0.7-1.4,1.4-2.9,2.1-4.3C75.8,49.6,79.8,53.6,79.2,58.3z"/>
	<path fill="#FFFFFF" d="M87.1,74.4c0,0.7-0.1,1.5-0.1,2.3c-0.3,0-0.6,0-0.9,0c0-1.5,0-3,0-4.5c0.8-0.1,1.3,0.1,1.5,0.9
		c0.2,0.7,0.6,1.3,1,2.2c0.3-0.8,0.5-1.5,0.8-2.1c0.1-0.2,0.4-0.5,0.6-0.4c0.3,0.1,0.8,0.3,0.8,0.5c0.3,1.4,0.4,2.7,0.6,4.1
		c-0.8,0.3-1,0-1.1-0.7c-0.1-0.6-0.2-1.3-0.4-2c-0.2,0.5-0.3,0.9-0.6,1.4c-0.1,0.2-0.3,0.5-0.5,0.5c-0.2,0-0.6-0.2-0.7-0.4
		c-0.3-0.5-0.6-1.1-0.8-1.7C87.2,74.4,87.1,74.4,87.1,74.4z"/>
	<path fill="#FFFFFF" d="M74.9,73c-0.1-1.4,0.3-1.9,1.3-2c1.7-0.2,2.7,0.5,2.9,1.8c0,0.3,0.1,0.6,0.1,0.9c0.1,1.5-0.3,2-1.5,2.1
		c-1.6,0.1-2.6-0.6-2.7-1.9C74.9,73.6,74.9,73.3,74.9,73z M78,73.5c0-0.1,0-0.3,0-0.5c0-0.8-0.5-1.1-1.2-1.1c-0.8,0-0.8,0.6-0.8,1.2
		c0,0.2,0,0.4,0,0.6c0,0.9,0.4,1.3,1.2,1.3C78.1,74.9,78.1,74.3,78,73.5z"/>
	<path fill="#FFFFFF" d="M83.3,74.7c0.4,0.6,0.7,1.1,1.1,1.6c-1.6,0.4-1.4-1.4-2.5-1.7c0,0.5,0,1,0,1.6c-0.3,0-0.6-0.1-1-0.1
		c-0.1-1.5-0.2-3-0.3-4.6c0.9,0.1,1.8,0.2,2.6,0.4c0.8,0.2,0.9,0.9,1,1.6C84.3,74,84.1,74.5,83.3,74.7z M81.9,72.5
		c0,0.4,0,0.8,0,1.2c1.1,0.2,1.4,0.1,1.3-0.4C83.2,72.4,82.5,72.5,81.9,72.5z"/>
	<path fill="#FFFFFF" d="M39.4,74c-0.2,2.3-0.7,3.2-3.2,3.3c-0.8,0-1.2-0.4-1.2-1.1c0-0.8,0-1.6,0.2-2.3c0.3-1.1,2.6-1.9,3.5-1.2
		C39.1,72.9,39.2,73.5,39.4,74z M38.2,74.5c0-1.2-0.4-1.5-1.4-1.1c-0.6,0.3-1,2.3-0.6,2.8c0.1,0.1,0.3,0.2,0.5,0.2
		C37.7,76.5,38.1,76,38.2,74.5z"/>
	<path fill="#FFFFFF" d="M56.3,70.7c0,1.6,0,3.1,0,4.6c-0.4,0-0.6,0-1,0c0-0.6,0-1.2,0-1.8c-0.6,0-1.1,0.1-1.6,0.1
		c0,0.6-0.1,1.2-0.1,1.9c-0.3,0-0.6,0-0.9,0.1c0-1.5,0-3,0-4.6c0.4,0,0.6,0,1-0.1c0,0.6,0,1.1,0,1.7c0.5,0,1,0,1.5,0
		c0.1-0.6,0.2-1.2,0.4-1.8C55.6,70.7,56,70.7,56.3,70.7z"/>
	<path fill="#FFFFFF" d="M61.3,75.1c-1,0-1.9,0.1-3,0.1c0-1.5,0-3,0-4.7c0.9,0,1.7,0,2.6,0c0.2,0,0.4,0.4,0.6,0.6
		c-0.1,0.1-0.1,0.2-0.2,0.2c-0.6,0-1.3,0-2,0c0,0.4-0.1,0.7-0.1,0.9c0.5,0.7,1.8-0.5,1.9,1c-0.7,0-1.2,0.1-1.8,0.1
		c-0.2,0.7-0.2,1.1,0.7,1c0.3,0,0.6-0.1,0.9,0c0.2,0.1,0.4,0.3,0.6,0.4C61.4,74.9,61.3,75,61.3,75.1z"/>
	<path fill="#FFFFFF" d="M65.4,74.3c0.5,0,1.1,0.1,1.6,0.1c0.2,0,0.4-0.2,0.6-0.3c-0.1-0.2-0.2-0.4-0.4-0.5
		c-0.4-0.2-0.8-0.4-1.2-0.6c-0.5-0.3-0.9-0.8-0.7-1.5c0.2-0.7,0.7-0.9,1.3-0.9c0.4,0,0.9,0.1,1.3,0.1c0.6,0,0.7,0.3,0.5,0.9
		c-0.5,0-1-0.1-1.4-0.1c-0.2,0-0.4,0.2-0.5,0.2c0.1,0.2,0.2,0.4,0.3,0.5c0.4,0.3,0.8,0.4,1.2,0.7c0.6,0.4,0.8,1,0.5,1.5
		c-0.2,0.4-0.7,0.7-1.2,0.8c-0.5,0.1-1.1,0-1.7-0.1c-0.2-0.1-0.4-0.4-0.5-0.6C65.2,74.4,65.3,74.3,65.4,74.3z"/>
	<path fill="#FFFFFF" d="M44.2,71.6c0,0.3,0,0.5,0,0.8c-0.5,0.1-0.9,0.2-1.3,0.2c-0.7,0-1,0.3-0.9,1.1c0.6,0,1.1-0.1,1.8-0.1
		c0,1.4-1.3,0.6-1.8,1.1c0,0.5,0,1.1-0.1,1.7c-0.3,0-0.7,0-1.1,0.1c0.1-1.5,0.1-2.9,0.2-4.2c0-0.1,0.3-0.4,0.5-0.4
		C42.4,71.8,43.2,71.7,44.2,71.6z"/>
	<path fill="#FFFFFF" d="M72.3,75.4c-0.4,0-0.6-0.1-1-0.1c-0.1-1.2-0.1-2.4-0.2-3.7c-0.4,0-0.8-0.1-1.2-0.1c0-0.3-0.1-0.5-0.1-0.9
		c1.3,0.1,2.5,0.1,3.7,0.2c0,0.3,0,0.5,0,0.8c-0.4,0-0.8,0-1.3,0C72.3,72.9,72.3,74.1,72.3,75.4z"/>
	<path fill="#FFFFFF" d="M49.8,75.6c-0.4,0-0.7,0.1-1,0.1c0-1.2,0-2.4,0-3.6c-0.4,0-0.8,0-1.2,0c-0.2-0.5-0.1-0.8,0.5-0.9
		c1-0.1,2-0.1,3.1-0.2c0.2,0.5,0.2,0.9-0.5,0.9c-0.7-0.1-0.8,0.4-0.8,0.9C49.8,73.7,49.8,74.6,49.8,75.6z"/>
	<path d="M53.3,55.1c1.2,0,2.2,0,3.3,0c-0.1,1-0.1,2.1-0.3,3.1c-0.2,0.9-1.8,1.7-2.6,1.4c-0.2-0.1-0.2-0.4-0.3-0.6
		c0-0.1,0-0.2,0-0.4C53.3,57.5,53.3,56.4,53.3,55.1z"/>
	<path d="M78,73.5c0,0.8,0.1,1.5-0.9,1.5c-0.8,0-1.2-0.4-1.2-1.3c0-0.2,0-0.4,0-0.6c0-0.6,0-1.2,0.8-1.2c0.7,0,1.2,0.3,1.2,1.1
		C78,73.2,78,73.4,78,73.5z"/>
	<path d="M81.9,72.5c0.6,0,1.3-0.1,1.3,0.8c0,0.5-0.2,0.6-1.3,0.4C81.9,73.3,81.9,72.9,81.9,72.5z"/>
	<path d="M38.2,74.5c0,1.5-0.4,2-1.5,1.8c-0.2,0-0.4-0.1-0.5-0.2c-0.5-0.5,0-2.5,0.6-2.8C37.7,73,38.2,73.3,38.2,74.5z"/>
</g>
</svg>
