<?xml version="1.0" encoding="utf-8"?>
<!-- Generator: Adobe Illustrator 24.3.0, SVG Export Plug-In . SVG Version: 6.00 Build 0)  -->
<svg version="1.1" id="Layer_1" xmlns="http://www.w3.org/2000/svg" xmlns:xlink="http://www.w3.org/1999/xlink" x="0px" y="0px"
	 viewBox="0 0 126 126" enable-background="new 0 0 126 126" xml:space="preserve">
<path fill="#7AB947" d="M60.3,78.6c-8.6,0-15.6-7-15.6-15.6s7-15.6,15.6-15.6s15.6,7,15.6,15.6S68.8,78.6,60.3,78.6L60.3,78.6z
	 M60.3,54.3c-4.9,0-8.9,3.9-8.9,8.8s3.9,8.8,8.9,8.8c4.9,0,8.9-3.9,8.9-8.8C69.1,58.3,65.2,54.3,60.3,54.3L60.3,54.3z M101,78V59.3
	c0-2.4-2-4.4-4.4-4.4H85.7V78h-7.1V48.1h18.6c5.8,0,10.6,4.8,10.6,10.6V78H101L101,78z M35,78v-9.8H20V78h-7V48.1h7v13.2H35V48.1
	h6.9V78H35L35,78z M111.1,77.7c-1,0-1.9-0.9-1.9-1.9s0.9-1.9,1.9-1.9c1,0,1.9,0.9,1.9,1.9C113,76.9,112.1,77.7,111.1,77.7
	L111.1,77.7z M111.1,74.4c-0.8,0-1.4,0.6-1.4,1.5c0,0.8,0.6,1.5,1.4,1.5c0.8,0,1.4-0.6,1.4-1.5C112.5,75,111.9,74.4,111.1,74.4
	L111.1,74.4z M111.5,76l0.5,0.8h-0.5L111,76h-0.1v0.7h-0.5v-2h0.6c0.5,0,0.9,0.1,0.9,0.6C111.9,75.8,111.7,76,111.5,76L111.5,76z
	 M111.1,75.2h-0.2v0.4h0.2c0.1,0,0.3,0,0.3-0.2C111.4,75.2,111.3,75.2,111.1,75.2L111.1,75.2z"/>
</svg>
