<?xml version="1.0" encoding="utf-8"?>
<!-- Generator: Adobe Illustrator 24.3.0, SVG Export Plug-In . SVG Version: 6.00 Build 0)  -->
<svg version="1.1" id="Layer_1" xmlns="http://www.w3.org/2000/svg" xmlns:xlink="http://www.w3.org/1999/xlink" x="0px" y="0px"
	 viewBox="0 0 126 126" enable-background="new 0 0 126 126" xml:space="preserve">
<g>
	<path fill="#6F3E25" d="M13,57.5c0,0,2.4-1.9,12-0.9c1.4,0.1,2.9-0.2,4.2-0.8c0,0-7.8,1.5-11.7-4.6c0,0,8.3,1.7,11.3,0
		c0,0-7.6-1.7-7.6-5.7c0,0,5.8,2.7,10.5,0.8c1-0.4,3.2-1.5,4.3-1.5c0,0-7.4-1.1-9.7-5.5c0,0,9.2,3.1,11.8,0.8c0,0-6.4-0.4-6.8-2.1
		c0,0,4.8,0.8,9.7-3.7c2.1-1.8,5.4-3.6,11.7-1.8c0,0-4.8-3.7-10.3-3c0,0,4.3-3.1,14-0.1c0,0-4.8-2-4.2-8.1c0,0,2.6,6.1,10.8,5.5
		c3.3-0.3,8.7,1.1,11.4,5.7c0,0-3.1-5.8-6.9-7.2c3.1,0.3,6,1.4,8.5,3.2c1,0.8,6.7,4.1,7.4,8.1c-0.3-2.6-0.8-5.3-1.6-7.8
		c5.7,3.8,6.9,8.8,7.9,14.3l6.7,5c0,0,6.1,16.3,12.8,16.1l2.7,2.5c0,0-0.8,3.3,0.8,5c0,0-1.8,3.3-8,3.9l-1.5,2.9
		c-3.3,1-6.8,0.8-9.9-0.7c0,0,1.1-4.3-0.6-6.4l-2.4-1.8c0,0-7.2-0.5-10.7-1.7l-8.5-3.9c0,0-3.6,7.7-8.3,18c-1.3,2.7-5.8,10.2-8.2,14
		c0,0-3.7,6.4-6.6,8.5c0,0-0.2-0.8-0.3-1.9c0-0.3-0.1-0.5-0.2-0.8c-1.5-5-6.3-12.3-8.9-16C30,73.3,20.5,68.8,20.5,68.8L31,64.3
		C29.3,63.3,17.9,57.2,13,57.5z"/>
	<path fill="#F19175" d="M35.5,48c2.3-1.3,4.8-2.3,7.4-2.7c-3,0-6,0.8-8.8,2.1c-2.8,1.3-6,1.6-9.1,0.8c0,0,6.5,4.3,11.8,1.5
		c-2.2,0.6-4.5,0.5-6.7-0.3C32.1,49.4,33.9,48.9,35.5,48z M28.7,58.4c0,0-6.2-0.4-7.2-0.3l9.3,3.7l-3.5-2.6c0,0,6.8,1.2,9.3-2.7
		C36.7,56.6,34.3,59,28.7,58.4z M37.1,42.9c1.3-0.8,1.2-1,1.3-1.5c-0.8,0.7-3.8,1.2-6.8,0.5c0,0,4.1,2.2,6.6,2
		C37.8,43.6,37,43.2,37.1,42.9z M30.3,53.5c1.1-1.1,0.9-1.3,1-1.8c-0.7,0.8-3.5,2-6.5,2c0,0,4.5,1.2,6.8,0.5
		C31,54,30.3,53.8,30.3,53.5z M40.6,38.6c-0.8,0.1-1.8,0.1-2.6-0.1c1.9-0.7,3.8-1.7,5.5-2.9c1.8-1.4,3.9-2.2,6.1-2.3
		c-1.7-0.3-3.8-0.6-6.8,1.3c-2.3,1.4-4.8,2.7-7.3,3.6C35.5,38.5,38.3,39.6,40.6,38.6z"/>
	<path fill="#14273F" d="M105.1,70.6c0,0-0.8-3.8-3.1-3.4C102,67.2,100.8,68.3,105.1,70.6z"/>
	<path fill="#FFFFFF" d="M88.5,52.2L84,50.1C84,50.1,84.6,52.8,88.5,52.2z"/>
	<path fill="#F19175" d="M73.1,27.8c0,0,1.8,3.5,2.7,3.9c-0.5-0.7-0.9-1.4-1.2-2.3c0,0,5.2,3.6,6.4,5.3C81,34.8,78.9,30.6,73.1,27.8
		z M88.2,41.7c0-0.3-1-7.3-3.8-9.6c0,0,0.4,4.8,1.3,6.5c-0.3-1.2-0.4-2.3-0.4-3.6C86.7,36.8,88.2,41.7,88.2,41.7z M48.7,29.4
		c0,0,2.6,0.9,4.8,1.9C52,30.5,51,29.9,51,29.9s4.2,0.7,6.8,1.2C57.9,31.1,51.9,29,48.7,29.4z M54.7,25.3c0.8,2.3,2.8,4.1,5.2,4.5
		c0,0-2.4-0.8-2.8-2c0,0,1.6,1.6,7.7,1.3c1.8-0.1,4.8,0,6.8,1.4c0,0-2.4-2.5-8.3-2.4C60,28.4,57,27.4,54.7,25.3z"/>
	<path fill="#C6AC87" d="M68.6,45.7c-3.4-2-3.7-4.6-3.7-4.6l-32.6,23c-1.4,2.1-0.6,6.8-0.6,6.8c1.2-3,13-12.5,13-12.5
		c-3.8,4.6-9.2,15.5-9.2,15.5c0.5,5.7,9.1,11.4,9.1,11.4c2.3-1.1,7.7-8.1,7.7-8.1c2.1-3.1,8.6-11.3,11.8-15.4
		c-4.6,9.7-15.6,26.9-15.6,26.9l1.5,8.2c7.2-7.9,18.1-34.9,18.1-34.9l-2.5-3.7v0.1l-1.4-3.3C59.4,56.5,51,65.8,51,65.8
		C54.3,53.2,68.6,45.7,68.6,45.7z"/>
	<path fill="#C6AC87" d="M109.9,67.2c-0.8,0.3-4.6-2.3-4.6-2.3c-3.2-1.9-10.1-12.6-10.1-12.6l-0.8-3.1c-1.5-0.5-8.9-6.8-10.9-8.5
		c-1.8-2-4.5-4.9-6.4-5.3c0,0,0.3,0.8,0.8,1.8c1.3,0.7,3.4,2,4.3,3.2h-5.1l1.4,2.3c-1.3-1.3-13.5-8-13.5-8c0.1,3.6,6.6,9.3,7.3,9.3
		s3.4,0.6,3.4,0.6l0.9,3.1l6.1,0.8l7.8,3.5c0,0,6.3,7.4,6.8,8c0.5,0.6-7.3-6.1-7.3-6.1c-4.6,0.7-9.3-3.8-9.3-3.8h-2.2
		c3.6,5.4,8.3,5.3,8.3,5.3c-5.8,0.8-9.3-3.8-10.4-5.3h-4c1.9,4.2,4.4,8,7.5,11.3c-3.6-1.2-3.2-1.2-7.5-4c1.1,3.1,3.8,5.7,6,6.1
		c2.2,0.4,5.2-0.5,5.2-0.5c4.2-0.8,8.4,0.8,11,4.1H92c1.8,0.7,3.7,3.3,3.7,3.3l1.8,6.8c1.3,0.9,4.8,0,4.8,0l1-2.8l-1.6-0.6
		c0,2.8-1.9,0.8-1.9,0.8l-0.9-2.8l-1.3-1.9c0,0,1.4,0.9,1.7,1.1l2.8,1.8c1.7,0.5,3.5,0.6,5.3,0.2c-0.2-0.8-0.1-1.7,0.2-2.4l0.8,2.1
		c0.6-0.2,1.2-0.4,1.8-0.8C109.5,70.3,109.5,68.8,109.9,67.2L109.9,67.2z M101,67.8l4.9,1C102.2,70.3,101,67.8,101,67.8z"/>
</g>
</svg>
