<?xml version="1.0" encoding="utf-8"?>
<!-- Generator: Adobe Illustrator 24.3.0, SVG Export Plug-In . SVG Version: 6.00 Build 0)  -->
<svg version="1.1" id="Layer_1" xmlns="http://www.w3.org/2000/svg" xmlns:xlink="http://www.w3.org/1999/xlink" x="0px" y="0px"
	 viewBox="0 0 126 126" enable-background="new 0 0 126 126" xml:space="preserve">
<g>
	<g>
		<path fill="#FBBE02" d="M109.3,41.6c-1,1-2,1.7-3,2.1c-3.3,1.2-7,2.8-10.8,4.8l-11-2.8h-0.1l-1.9-10.2c1.5-3.1,1.6-6.8,0.2-10.3
			c-1.4-3.2-0.8-6,1.7-8.5c5.7-5.7,16-4.8,22.8,2.1c0.7,0.7,1.3,1.5,1.9,2.2C114.1,27.8,114.4,36.5,109.3,41.6z"/>
		<path fill="#F18E1A" d="M109.3,41.6c-1,1-2,1.7-3,2.1c-3.3,1.2-7,2.8-10.8,4.8l-11-2.8L109.1,21C114.1,27.8,114.4,36.5,109.3,41.6
			z"/>
		<path fill="#576065" d="M95.5,48.5c-3.4,1.8-6.8,4-9.9,6.7l-6.1,2.6l-7.1-7.1l2.6-6.1l6-6.5c0.6-0.7,1.1-1.5,1.5-2.4L95.5,48.5z"
			/>
		<path fill="#32393F" d="M95.5,48.5c-3.4,1.8-6.8,4-9.9,6.7l-6.1,2.6l-3.6-3.6l12.6-12.6L95.5,48.5z"/>
		<path fill="#FBBE02" d="M85.6,55.2c-0.2,0.2-0.5,0.4-0.8,0.5L42.6,94.1l-7.8,0.4h-0.1l0.3-8l39.9-42L85.6,55.2z"/>
		<path fill="#F18E1A" d="M80.3,49.9l5.3,5.3c-0.2,0.2-0.5,0.4-0.8,0.5L42.6,94.1l-7.8,0.4L80.3,49.9z"/>
		<path fill="#576065" d="M42.6,94.1l-19.7,18.1c-1.2,1.1-2.9,1-4.1-0.1l-5-5c-1.2-1.2-1.2-3,0-4.1c1.2-1.2,3-1.2,4.1,0l0.9,0.9
			L35,86.5L42.6,94.1z"/>
		<path fill="#32393F" d="M38.9,90.4l3.7,3.7l-19.7,18.1c-1.2,1.1-2.9,1-4.1-0.1l-0.8-0.8L38.9,90.4z"/>
	</g>
	<path fill="#DDECF1" d="M63,89.4c-6.4,0-11.7,5.3-11.7,11.7c0,6.4,5.3,11.9,11.7,11.9s11.7-5.5,11.7-11.9
		C74.7,94.6,69.4,89.4,63,89.4z"/>
	<path fill="#C3D1DC" d="M74.7,101.1c0,6.4-5.3,11.9-11.7,11.9V89.4C69.4,89.4,74.7,94.6,74.7,101.1z"/>
	<g>
		<path fill="#FFD92C" d="M18.8,18.8c-0.7,0.7-1.3,1.5-1.9,2.2c-5,6.7-5.3,15.4-0.2,20.5c1,1,2,1.6,3,2c3.3,1.3,7,2.8,10.8,4.9
			l11-2.8l0.1,0l1.9-10.1c-1.5-3-1.6-6.8-0.1-10.3c1.3-3.2,0.8-6-1.8-8.5C35.9,11,25.6,12,18.8,18.8z"/>
		<path fill="#FBBE02" d="M43.5,35.6c-1.5-3-1.6-6.8-0.1-10.3c1.3-3.2,0.8-6-1.8-8.5C35.9,11,25.6,12,18.8,18.8
			c-0.7,0.7-1.3,1.5-1.9,2.2l24.7,24.7l0.1,0L43.5,35.6z"/>
		<path fill="#7C8287" d="M37.4,41.6l-6.9,6.9c3.4,1.8,6.8,4,9.9,6.7l5.9,2.4l3.6-3.6l3.6-3.6l-2.4-5.9l-6-6.5
			c-0.7-0.7-1.1-1.6-1.6-2.4L37.4,41.6z"/>
		<path fill="#576065" d="M51.1,44.5l-6-6.5c-0.7-0.7-1.1-1.6-1.6-2.4l-6,6L49.9,54l3.6-3.6L51.1,44.5z"/>
		<path fill="#FFD92C" d="M45.7,49.9l-5.3,5.3c0.2,0.2,0.5,0.4,0.8,0.6l42.2,38.3l7.8,0.4l0.1,0l-0.3-8l-39.9-42L45.7,49.9z"/>
		<polygon fill="#FBBE02" points="91,86.5 51.1,44.5 45.7,49.9 91.2,94.5 91.3,94.5 		"/>
		<path fill="#7C8287" d="M108,103l-0.9,0.9L91,86.5l-3.9,3.9l-3.7,3.7l19.7,18.1c1.2,1.1,2.9,1,4.1-0.1l0.8-0.8l4.1-4.1
			c1.1-1.1,1.1-3,0-4.1C111,101.9,109.1,101.9,108,103z"/>
		<path fill="#576065" d="M112.1,103c-1.1-1.1-3-1.1-4.1,0l-0.9,0.9L91,86.5l-3.9,3.9l20.9,20.9l4.1-4.1
			C113.3,106,113.3,104.2,112.1,103z"/>
	</g>
</g>
</svg>
