<?xml version="1.0" encoding="utf-8"?>
<!-- Generator: Adobe Illustrator 24.3.0, SVG Export Plug-In . SVG Version: 6.00 Build 0)  -->
<svg version="1.1" id="Layer_1" xmlns="http://www.w3.org/2000/svg" xmlns:xlink="http://www.w3.org/1999/xlink" x="0px" y="0px"
	 viewBox="0 0 126 126" enable-background="new 0 0 126 126" xml:space="preserve">
<g>
	<path d="M111.3,61c-0.6-0.6-1.3-1-2.2-1c-0.2,0-0.4,0-0.6,0.1c-0.7,0-1.8,0.7-4.4,2.6l0,0c-0.2,0-0.3,0-0.5,0.1l-0.5,0.2V63
		c-0.2,0.1-0.5,0.3-0.7,0.4l-0.3,0.3c-0.1,0.1-0.2,0.2-0.3,0.3c-0.2,0.2-0.5,0.4-0.7,0.6l-0.1,0.1c-0.2,0.2-0.4,0.4-0.6,0.6
		l-0.1,0.1l-0.2,0.2l-0.3,0.2c-0.1,0-0.3,0.1-0.4,0.1c-0.2,0.1-0.4,0.3-0.6,0.4c-0.1,0.1-0.2,0.2-0.3,0.2h-0.1
		c-0.1,0.1-0.2,0.1-0.3,0.2c-0.2,0.1-0.3,0.2-0.4,0.4c-0.4,0.2-0.7,0.6-1,0.9l-0.2,0.3h-0.1l-0.2,0.1c-0.4,0.1-0.8,0.4-1.1,0.8
		l-0.1,0.1c-0.1,0.1-0.2,0.2-0.3,0.3c-0.3,0-0.7,0.2-0.9,0.5c-0.1,0.1-0.2,0.3-0.4,0.5c-0.4,0.1-0.7,0.3-0.9,0.5
		c-0.4,0.1-0.7,0.3-1,0.6c-0.2,0.1-0.3,0.2-0.4,0.3c-0.2,0.2-0.3,0.4-0.4,0.6l-2-2.3l0,0l-1.2-1.3l-0.1-0.2l0,0l-0.1-0.1l-0.3-0.3
		l-1-1.2l0,0L42.9,16.8h-2.5l-1.7,2.7c0,0,26.8,34.3,40.5,51.1l0,0l1.3,1.6l0,0l0.7,0.9l0.1,0.2l0,0l3.2,3.8l0,0
		c1.5,1.9,3.1,3.6,4.8,5.3c0.2,0.1,0.3,0.2,0.5,0.3l0.1,0.1l0.3,0.1c0.3,0.1,0.6,0.2,0.9,0.3c0.2,0.2,0.5,0.4,0.8,0.5
		c0.3,0.1,0.5,0.2,0.8,0.2c0.3,0,0.5-0.1,0.8-0.1c0.1,0,0.2,0,0.4,0c0.2,0,0.3,0,0.4,0h0.4c0.3,0,0.5-0.1,0.8-0.2l0.2-0.1h0.2
		c0.2,0,0.3,0,0.5,0h0.1l0,0c0.1,0,0.3,0,0.4,0c0.2,0,0.4,0,0.7-0.1c0.2-0.1,0.4-0.2,0.6-0.3h0.2c0.3,0,0.6-0.1,0.9-0.2
		c0.1,0,0.3,0,0.4,0h0.2c0.4,0,0.8-0.1,1.2-0.3h0.4c0.6,0,1.2-0.1,1.7-0.4c0.4-0.1,0.7-0.3,1-0.5l0.4-0.2c0.2-0.1,0.3-0.2,0.5-0.4
		c0.3-0.1,0.6-0.3,0.8-0.4h0.1c1.3-0.6,2.5-1.4,3.5-2.5c0.2-0.2,0.3-0.3,0.4-0.5c1.8-1.9,2.9-4.5,3-7.1
		C113.2,65.7,112.7,62.6,111.3,61z"/>
	<path fill="#045DA0" d="M41.1,17.9h1.4l48.8,57.2l17.4-13.9c0,0,3.9-1.5,3.1,9.2C111,81.2,96.6,83.1,90.6,81.9L41.1,17.9z"/>
	<path fill="#0671B8" d="M41.1,17.9c0,0,46.3,56.2,48,56.7c1.8,0.5,18.2-13.8,19.5-13.4c1.4,0.4,3.9,12.1,0,16.2
		c-3.9,4.1-15.5,6.3-18.6,4.2c-3-2.1-49.9-62.1-49.9-62.1L41.1,17.9z"/>
	<path fill="#BCBCBC" d="M103.9,80.3c0-0.1,0-0.1-0.1-0.1c-0.1-0.1-0.2-0.3-0.2-0.4c-0.1-0.3-0.2-0.5-0.4-0.8l0,0l-0.1-0.2
		c0-0.1,0-0.1-0.1-0.2c-0.2-0.8-0.4-1.6-0.4-2.4c0.1-0.9,0.1-1.7,0-2.6c0.1-1.1,0-2.3,0.1-3.4c0.1-0.7,0.2-1.4,0.2-2.1
		c0.1-0.2,0.1-0.4,0.2-0.6c0-0.4,0.2-0.7,0.2-1.1c0-0.4,0.1-0.7,0.2-1.1c0-0.3,0.1-0.6,0.2-0.8c0-0.1,0.1-0.1,0.1-0.2s0-0.1-0.1-0.1
		h-0.1c0,0-0.1,0-0.1,0c0,0-0.1,0.1-0.1,0.1l0,0c0,0,0,0.1-0.1,0.1c-0.2,0.1-0.3,0.2-0.5,0.3c-0.4,0.3-0.8,0.6-1.1,1.1c0,0,0,0,0,0
		c-0.1,0.1-0.2,0.2-0.2,0.3c-0.3,0.3-0.6,0.6-0.9,1c-0.8,0.3-1.6,0.7-2.2,1.3c-0.2,0.2-0.6,0.5-0.8,0.7c-0.2,0.2-0.5,0.6-0.9,0.7
		c-0.6,0.1-0.9,1-1.1,1.1l-0.1,0.1c-0.4,0-0.8,0.2-1,0.6c-0.1,0.1-0.2,0.2-0.4,0.3c-0.2,0-0.3,0.1-0.4,0.2L93.6,72
		c0,0-0.1,0.1-0.1,0.1v0.1c-0.6,0.1-1.1,0.5-1.6,0.9c-0.3,0.6-0.4,1.3-0.3,2c0,0.1-0.1,0.2-0.1,0.2v0.1c-0.2,1.5-0.3,2.9-0.2,4.4
		c0,0.8,0.2,1.7,0.6,2.4c0.3,0.4,0.9,0.6,1.4,0.4c0.3,0.1,0.7,0.1,1,0c0.2-0.1,0.6,0,0.8-0.2c0,0,0,0,0.1-0.1
		c0.1,0.1,0.2,0.1,0.4,0.1c0.3,0,0.6-0.1,0.8-0.2c0.1,0.1,0.2,0.1,0.3,0.1l0,0c0.1,0,0.2,0,0.2,0c0.2-0.1,0.4-0.2,0.6-0.2
		c0.2-0.1,0.3-0.2,0.4-0.3h0.1c0.3,0.1,0.6,0.1,0.9,0c0.1,0,0.1-0.1,0.2-0.1l0.2,0.1c0.3,0.1,0.6,0.1,0.9,0c0.2-0.1,0.3-0.3,0.4-0.4
		c0.1,0,0.2,0.1,0.4,0.1c0.4,0.1,0.8,0.1,1.2,0c0.3-0.1,0.6-0.3,0.9-0.4c0.1,0,0.2-0.1,0.3-0.2c0.1,0,0.2-0.1,0.3-0.2
		C103.9,80.5,104,80.4,103.9,80.3C103.9,80.3,103.9,80.3,103.9,80.3z"/>
	<path fill="#A3A3A3" d="M92.1,74.9c0,0-0.5,5.9,0,6.9c0.5,1,1-0.2,1-0.2c0.7,0.1,1.5,0.1,2.1-0.1c0.2,0.2,0.6,0.3,0.9,0.2
		c0,0,1.7,0,2-0.4c0,0,0.6,0.1,0.6-0.4c0.5,0.3,1.2,0.3,1.7,0.1c0,0,2.3-0.1,2.7-0.9c0,0-2.5-1.2-0.2-13.9c0,0-2.4,7.3-2.9,9.3
		c0,0,0.2-5,1.1-6.9c-1.4,1.4-2.4,3-2.9,4.9c-0.9,0.6-1.5,1.6-1.5,2.7l-0.4-2.5l-1,3.6c-0.2-1-0.2-2.1-0.1-3.2c0,0-1.3,3.5-2,3.5
		C92.5,76.9,92.1,75.9,92.1,74.9z"/>
	<path fill="#898989" d="M92,76.4c0,0-0.9,5,0.8,4.9c0,0,2.1,0.3,2.6-0.3v-3.6c-0.2-0.7-0.2-1.5-0.2-2.2c0,0-0.9,3.3-2.1,2.9
		C93.1,78.1,92,79.1,92,76.4z"/>
	<path fill="#898989" d="M96.1,81.1c0,0,0-3.5,0.6-5c0,0,0.7,3.3,1.3,5C98,81.1,96.4,81.6,96.1,81.1z"/>
	<path fill="#898989" d="M98.6,79.7c0,0,0.2,1,1.5,0.5c0,0,1.6,0.2,2.1-0.7c0,0-1.1-7.1,0.1-9.8c0,0-2.2,6.8-2.3,7.7
		c-0.1-1.6-0.1-3.3,0.2-4.9C99.2,74.7,98.6,77.2,98.6,79.7z"/>
	<path fill="#5A5A5A" d="M104,63.8L104,63.8c-0.3,0.2-0.6,0.3-0.9,0.5c-0.3,0.2-0.5,0.4-0.7,0.6c-0.2,0.1-0.4,0.3-0.5,0.4l-0.1,0.1
		l0,0c-0.3,0.2-0.4,0.5-0.6,0.7c-0.2,0.2-0.5,0.4-0.7,0.7c-0.1,0-0.3,0.1-0.4,0.1c-0.3,0.2-0.6,0.5-0.9,0.7
		c-0.1,0.1-0.3,0.1-0.4,0.2c0,0-0.1,0.1-0.1,0.2l0,0c-0.1,0-0.1,0.1-0.2,0.2c-0.3,0.2-0.6,0.4-0.8,0.7c-0.1,0.2-0.3,0.3-0.4,0.5
		l-0.3,0.1c-0.3,0.1-0.7,0.3-0.9,0.5c-0.1,0.2-0.4,0.3-0.5,0.6l0,0l0,0c-0.1,0-0.1,0.1-0.2,0.1c-0.2,0.1-0.5,0-0.6,0.2
		c-0.2,0.2-0.3,0.4-0.4,0.5c-0.1,0,0,0.1-0.1,0.1c-0.1,0-0.6,0.2-0.7,0.4c-0.1,0.2-0.1,0.1-0.1,0.2s-0.1,0.1-0.1,0.1
		c-0.1,0-0.3,0.1-0.4,0.1c-0.2,0.1-0.4,0.2-0.5,0.3c-0.1,0.2-0.3,0.2-0.4,0.3c-0.1,0.1-0.2,0.3-0.2,0.5c-0.1,0.6-0.2,1.2-0.2,1.8
		c0,0.3-0.2,0.6-0.2,0.9c0,0.3,0,0.7,0,1c0,0.8,0,1.6,0,2.5c0,0.6,0.1,1.3,0.3,1.9c0.1,0.5,0.4,1,0.9,1.3c0.4,0.2,0.7,0,1.1-0.1l0,0
		c0.3,0,0.7,0,1,0c0.1,0,0.3,0,0.4,0c0.2-0.1,0.4-0.2,0.6-0.3c0.3,0.1,0.6,0.1,0.9,0c0,0,0,0,0.1,0c0.2,0.1,0.5,0.1,0.8,0
		c0.1,0,0.6-0.4,0.8-0.5c0.3,0.2,0.8,0.1,1.2-0.1c0.2,0.1,0.4,0.1,0.7,0.1c0.3,0,0.6-0.1,0.9-0.4c0,0,0,0,0.1,0
		c0.2,0,0.3,0.1,0.5,0.1c0.5,0,1-0.1,1.5-0.3c0.4-0.2,0.8-0.4,1.2-0.7c0,0,0-0.1,0-0.1c0,0,0-0.1,0-0.1c-0.5-0.7-0.8-1.4-1.1-2.2
		c-0.2-0.8-0.3-1.7-0.2-2.5c0.1-0.7,0.1-1.4,0-2.1c-0.1-0.7-0.1-1.4,0-2.1c0-0.7,0.2-1.4,0.3-2.1c0.1-0.5,0.1-1.1,0.2-1.6
		s0.2-1.2,0.4-1.8c0.1-0.3,0.1-0.6,0.2-0.9c0.1-0.4,0.3-0.7,0.6-1C104.3,63.8,104.1,63.8,104,63.8z M98.6,69.1c0-0.4,0-1,0.4-1.2
		c0.3-0.2,0.6-0.4,0.9-0.6c0.1-0.1,0.1-0.1,0.2-0.1l0,0c-0.2,0.4-0.4,0.8-0.6,1.3c-0.3,0.8-0.6,1.5-0.9,2.2l-0.3,0.7l0.1-0.4
		C98.5,70.3,98.6,69.7,98.6,69.1z M93.9,71.9H94c-0.1,0.2-0.1,0.4-0.1,0.5c-0.1,0.9-0.3,1.8-0.6,2.6c0,0.1,0,0.2-0.1,0.3
		c0-0.6,0-1.2,0-1.8S93.2,72.1,93.9,71.9L93.9,71.9z M92,82.1c-0.3-0.6-0.5-1.3-0.5-2c0-0.6,0-1.2,0-1.7c0-0.6,0-1.2,0-1.8
		c0-0.6,0.2-1,0.2-1.5c0-0.6,0.1-1.2,0.2-1.8c0.1-0.3,1-0.9,1.2-0.9h0.1C93,72.7,93,73,93,73.3c0,1.1,0,2.2,0.1,3.3
		c0,0.1,0,0.1,0,0.2c0,0.2,0,0.3,0,0.4c0,0.7-0.2,1.4-0.3,2.1c0,0.3,0,0.7-0.1,1c0,0.4,0,0.7,0.1,1.1c0.1,0.4,0.1,0.8,0.4,1.1
		C92.7,82.6,92.3,82.6,92,82.1z M95.1,82.3c-0.4,0.2-0.8,0.2-1.3,0.2c-0.8,0-0.9-1.2-0.9-1.8c0-0.7,0-1.3,0.1-2
		c0-0.3,0.1-0.5,0.2-0.7s0-0.7,0.1-1c0.1-0.6,0.1-1.3,0.2-1.9c0.1-0.6,0.5-1.4,0.6-2.2c0.1-0.3,0-0.6,0.1-0.9c0-0.4,0.3-0.4,0.4-0.7
		c0.1-0.3,0.3-0.3,0.6-0.4c0.1,0,0.1,0,0.2-0.1c0,0.2,0,0.4,0,0.7c0.2,1.6-0.4,3.1-0.3,4.7c0.2,0.7,0.2,1.4,0.1,2.1
		c-0.1,0.6-0.1,1.3,0,1.9c0.1,0.6-0.1,1.3,0.2,1.9L95.1,82.3z M95.9,82.1c-0.5,0-0.5-0.6-0.4-1c0-0.6-0.2-1.2-0.1-1.8
		c0-0.6,0.2-1,0.2-1.5s-0.2-1.2-0.2-1.8c-0.1-1.3,0.3-2.5,0.3-3.8c0-0.3,0-0.6-0.1-1c-0.1-0.3,0.1-0.7,0.3-0.9
		c0.2-0.3,0.5-0.5,0.8-0.6l0.2-0.1c-0.2,0.2-0.2,0.5-0.3,0.7c0,0.4-0.2,0.8-0.3,1.2c0,0.4-0.1,1-0.1,1.4c0,0.4,0,0.8,0.1,1.2
		c0,0.1,0,0.2,0,0.2c0,0.2,0.1,0.4,0.1,0.6c0.1,0.9,0,1.8-0.3,2.6c-0.1,0.8-0.2,1.6-0.2,2.4c0,0.4,0.1,0.8,0.2,1.2
		c0,0.2,0.1,0.4,0.2,0.6C96.2,82.1,96.1,82.1,95.9,82.1z M98,81.7c-0.3,0.2-0.6,0.4-0.9,0.5c-0.3,0-0.4,0-0.5-0.3s-0.2-0.4-0.2-0.7
		c-0.1-0.5-0.2-1-0.1-1.5c0-0.4,0-0.7,0.1-1.1c0.1-0.4,0.2-0.7,0.2-1.1c0.1-0.4,0.1-0.5,0.1-0.8c0.1,0.8,0.5,1.6,0.7,2.4
		c0.1,0.4,0.1,0.8,0.2,1.2c0.1,0.4,0.3,0.9,0.4,1.3C97.9,81.6,97.9,81.6,98,81.7L98,81.7z M98.1,81.2c-0.1-0.4-0.2-0.8-0.4-1.2
		c-0.1-0.4-0.1-0.7-0.2-1.1c-0.1-0.4-0.2-0.7-0.3-1c-0.3-0.7-0.4-1.4-0.4-2.2c0-0.4,0-0.7-0.2-1c0-0.3-0.1-0.7-0.2-1.1
		c0-0.4,0-0.8,0-1.2c0-0.5,0.1-0.9,0.1-1.3c0.1-0.4,0.2-0.8,0.3-1.2c0.1-0.2,0.3-0.3,0.5-0.4s0.2-0.2,0.2-0.3
		c0.1-0.3,0.4-0.5,0.6-0.7l0.2-0.2c0,0.2,0,0.5,0,0.7c0,1.1-0.4,2.3-0.4,3.4c0,0,0,0.1,0,0.1V73c0,0.5,0,1.1,0,1.6
		c0,0.5,0,1.1,0,1.6c0.1,0.5,0.2,0.9,0.3,1.4c0.1,0.5,0.1,0.9,0.1,1.4c0.1,0.5-0.1,1.1,0,1.6c0.1,0.4,0.3,0.8,0.6,1.1l0,0
		C98.7,81.8,98.3,81.8,98.1,81.2z M99.7,81.6c-0.1,0-0.2,0-0.3-0.1c0,0,0,0-0.1,0c-0.4-0.4-0.6-1-0.6-1.5c0-0.7,0-1.5-0.1-2.2
		c-0.1-0.4-0.2-0.8-0.3-1.2c-0.1-0.5-0.1-1-0.1-1.5c0-0.9,0-1.9,0.1-2.8c0.1-0.4,0.3-0.8,0.5-1.2c0.1-0.2,0.3-0.5,0.4-0.7
		c0.2-0.7,0.4-1.3,0.7-1.9c0.2-0.4,0.4-0.8,0.6-1.2l0,0c0.1-0.1,0.2-0.2,0.3-0.3c0.1,0,0.2-0.1,0.3-0.2c0.1-0.2,0.3-0.3,0.5-0.5l0,0
		c0,0.1,0,0.2-0.1,0.3c-0.2,0.6-0.3,1.2-0.5,1.8c-0.2,1-0.5,2-0.7,3c-0.1,0.4-0.2,0.8-0.1,1.1c0,0.4-0.1,0.7-0.2,1
		c-0.1,0.3,0,0.6-0.1,0.8c-0.1,0.4-0.1,0.8-0.1,1.2v0.9c0,0.2,0.1,0.5,0.1,0.7c0,0.4,0.1,0.9,0.1,1.3c0,0.5,0,1,0,1.5
		c0.1,0.4,0.3,0.9,0.5,1.2c0,0.1,0.1,0.1,0.2,0.2C100.3,81.5,100,81.6,99.7,81.6z M103.6,64.6c-0.1,0.3-0.2,0.7-0.2,1
		c-0.1,0.6-0.3,1.3-0.4,2c-0.1,0.7-0.1,1.2-0.2,1.8c-0.2,0.7-0.3,1.5-0.3,2.3c0,0.4,0,0.7,0,1.1c0,0.4,0.1,0.6,0.1,0.9
		c0,0.3,0.1,0.8,0,1.2s0,0.8-0.1,1.1c-0.1,0.8,0,1.5,0.3,2.2c0.2,0.7,0.6,1.4,1,2c0,0,0,0.1,0,0.1c-0.3,0.2-0.7,0.4-1.1,0.6
		c-0.5,0.2-0.9,0.3-1.4,0.3c-0.7,0-0.9-0.7-1.1-1.3c-0.1-0.5-0.1-1-0.1-1.5c0-0.8-0.2-1.5-0.2-2.3s0.1-1.7,0.1-2.6
		c0.1-0.5,0.2-0.9,0.2-1.4c0-0.4,0.1-0.8,0.2-1.2c0.1-0.4,0.1-0.8,0.2-1.1c0.1-0.2,0.1-0.4,0.1-0.7c0.1-0.2,0.1-0.5,0.2-0.7
		c0.1-0.5,0.3-0.9,0.4-1.4c0.1-0.5,0.2-0.9,0.4-1.4c0,0,0-0.1,0.1-0.2c0.3-0.3,0.6-0.5,0.9-0.7c0.2-0.2,0.4-0.4,0.7-0.5l0.2-0.1
		C103.7,64.3,103.6,64.4,103.6,64.6z"/>
	<polygon fill="#F9F1A4" points="89.6,73.2 87.6,73.2 84.8,75.6 82.2,72.5 84.9,70.2 86.9,70 	"/>
	<polygon fill="#F5BF81" points="89.6,73.2 87.6,73.2 84.9,70.2 86.9,70 	"/>
	<polygon fill="#F9F1A4" points="86.4,69.4 84.3,69.6 81.6,71.8 80.8,70.8 83.5,68.6 85.6,68.5 	"/>
	<polygon fill="#F5BF81" points="86.4,69.4 84.3,69.6 83.5,68.6 85.6,68.5 	"/>
	<path d="M14.7,61c0.6-0.6,1.3-1,2.2-1c0.2,0,0.4,0,0.6,0.1c0.7,0,1.8,0.7,4.4,2.6l0,0c0.2,0,0.3,0,0.5,0.1l0.5,0.2V63
		c0.2,0.1,0.5,0.3,0.7,0.4l0.3,0.3c0.1,0.1,0.2,0.2,0.4,0.3c0.2,0.2,0.5,0.4,0.7,0.6c0,0,0,0,0.1,0.1c0.2,0.2,0.4,0.4,0.6,0.6
		l0.1,0.1l0.2,0.2c0.1,0.1,0.2,0.1,0.3,0.2c0.1,0,0.3,0.1,0.4,0.1c0.2,0.1,0.4,0.3,0.6,0.4c0.1,0.1,0.2,0.2,0.3,0.2h0.1
		c0.1,0.1,0.2,0.1,0.3,0.2c0.2,0.1,0.3,0.2,0.4,0.4c0.4,0.2,0.7,0.6,1,0.9l0.2,0.3h0.1l0.2,0.1c0.4,0.1,0.8,0.4,1.1,0.8
		c0,0,0,0,0.1,0.1c0.1,0.1,0.2,0.2,0.3,0.3c0.4,0,0.7,0.2,0.9,0.5c0.1,0.2,0.2,0.3,0.4,0.4c0.3,0.1,0.7,0.3,0.9,0.6
		c0.4,0.1,0.8,0.3,1,0.6c0.2,0.1,0.3,0.2,0.4,0.3c0.2,0.2,0.3,0.4,0.4,0.6l2-2.3l0,0l1.2-1.3l0.1-0.2l0,0l0.1-0.1l0.3-0.3l1-1.2l0,0
		l43.2-50.5h2.5l1.7,2.8c0,0-26.9,34.2-40.6,51.1l0,0l-1.3,1.6l0,0l-0.7,0.9l-0.1,0.2l0,0l-3.2,3.8l0,0c-1.5,1.9-3.1,3.6-4.8,5.3
		c-0.2,0.1-0.3,0.2-0.5,0.3L36,82.8l-0.3,0.1c-0.3,0.1-0.6,0.2-0.9,0.3c-0.2,0.2-0.5,0.4-0.8,0.5c-0.2,0.1-0.5,0.2-0.8,0.2
		c-0.3,0-0.5-0.1-0.8-0.1c-0.1,0-0.2,0-0.4,0h-0.4h-0.2h-0.1c-0.3,0-0.5-0.1-0.8-0.2l-0.2-0.1h-0.2c-0.2,0-0.3,0-0.5,0h-0.2
		c-0.1,0-0.3,0-0.4,0c-0.2,0-0.4,0-0.7-0.1c-0.2-0.1-0.4-0.2-0.6-0.3h-0.2c-0.3,0-0.6-0.1-0.9-0.2h-0.4H26c-0.4,0-0.8-0.1-1.2-0.3
		h-0.4c-0.6,0-1.2-0.1-1.7-0.4c-0.3-0.1-0.7-0.3-1-0.5c-0.1-0.1-0.2-0.1-0.4-0.2c-0.2-0.1-0.3-0.3-0.5-0.4l-0.8-0.4l-0.1,0
		c-1.3-0.6-2.5-1.5-3.5-2.5c-0.2-0.2-0.3-0.3-0.4-0.5c-1.8-1.9-2.9-4.4-3-7.1C12.8,65.6,13.3,62.5,14.7,61z"/>
	<path fill="#0671B8" d="M85,17.9h-1.4L34.8,75L17.4,61.1c0,0-3.9-1.5-3.2,9.2c0.7,10.7,15.2,12.7,21.2,11.4L85,17.9z"/>
	<path fill="#045DA0" d="M85,17.9c0,0-46.4,56.1-48.1,56.7c-1.8,0.5-18.2-13.9-19.5-13.4c-1.3,0.4-3.9,12.1,0,16.2
		c3.9,4.1,15.5,6.4,18.6,4.2c3-2.1,50-62,50-62L85,17.9z"/>
	<path fill="#BCBCBC" d="M22.1,80.2c0,0,0-0.1,0.1-0.1c0.1-0.1,0.2-0.3,0.2-0.4c0.1-0.3,0.2-0.5,0.4-0.8h0c0-0.1,0-0.1,0-0.2
		c0-0.1,0-0.1,0.1-0.2c0.2-0.8,0.4-1.6,0.4-2.4c-0.1-0.9-0.1-1.7,0-2.6c-0.1-1.1,0-2.3-0.1-3.4C23.1,69.3,23,68.7,23,68
		c-0.1-0.2-0.1-0.4-0.2-0.6c0-0.4-0.2-0.7-0.2-1.1c0-0.4-0.1-0.7-0.2-1.1c0-0.3-0.1-0.6-0.2-0.8c0-0.1-0.1-0.2-0.1-0.3
		c0,0,0-0.1,0.1-0.1h0.1c0,0,0.1,0,0.1,0c0,0,0.1,0,0.1,0.1l0,0l0.1,0.1c0.2,0.1,0.4,0.2,0.5,0.3c0.4,0.3,0.8,0.6,1.1,1.1l0,0
		c0.1,0.1,0.2,0.2,0.2,0.3c0.3,0.3,0.6,0.6,0.9,0.9c0.8,0.3,1.5,0.7,2.2,1.3c0.2,0.2,0.6,0.5,0.8,0.7c0.2,0.2,0.5,0.6,0.9,0.7
		c0.6,0.1,0.9,1,1.1,1.1l0.1,0.1c0.4,0,0.8,0.2,1,0.6c0.1,0.1,0.2,0.3,0.4,0.3c0.2,0,0.3,0.1,0.4,0.2l0.1,0.1l0.1,0.1V72
		c0.6,0.1,1.1,0.5,1.5,0.9c0.3,0.6,0.4,1.3,0.3,2c0,0.1,0.1,0.2,0.1,0.2c0,0,0,0.1,0,0.1c0.2,1.5,0.2,2.9,0.2,4.4
		c0,0.8-0.2,1.7-0.6,2.4c-0.3,0.4-0.9,0.6-1.4,0.4c-0.3,0.1-0.7,0.1-1,0c-0.3-0.1-0.6,0-0.8-0.3l-0.1-0.1c-0.1,0.1-0.2,0.1-0.4,0.1
		c-0.3,0-0.6-0.1-0.8-0.2c-0.1,0.1-0.2,0.1-0.3,0.1l0,0c-0.1,0-0.2,0-0.2,0c-0.2-0.1-0.4-0.2-0.6-0.2c-0.2-0.1-0.3-0.2-0.4-0.3h-0.1
		c-0.3,0.1-0.6,0.1-0.9,0c-0.1,0-0.1-0.1-0.2-0.1l-0.2,0.1c-0.3,0.1-0.6,0.1-0.9,0c-0.2-0.1-0.3-0.3-0.4-0.4c-0.1,0-0.2,0.1-0.4,0.1
		c-0.4,0.1-0.8,0.1-1.2,0c-0.3-0.2-0.6-0.3-0.9-0.4c-0.1,0-0.2-0.1-0.3-0.2c-0.1,0-0.2-0.1-0.3-0.2C22.1,80.4,22,80.3,22.1,80.2
		C22,80.3,22.1,80.2,22.1,80.2z"/>
	<path fill="#A3A3A3" d="M33.9,74.8c0,0,0.5,5.9,0,6.9s-1-0.2-1-0.2c-0.7,0.1-1.5,0.1-2.1-0.1c0,0-0.4,0.4-0.9,0.2c0,0-1.7,0-2-0.4
		c0,0-0.6,0.1-0.6-0.4c-0.5,0.3-1.2,0.3-1.7,0.1c0,0-2.3-0.2-2.7-0.9c0,0,2.5-1.2,0.3-13.9c0,0,2.4,7.3,2.9,9.3c0,0-0.2-4.9-1.1-6.9
		c1.4,1.4,2.4,3.1,2.9,4.9c0.9,0.6,1.5,1.6,1.5,2.7l0.4-2.5l1,3.6c0.2-1,0.2-2.1,0.1-3.2c0,0,1.3,3.5,2,3.5
		C33.5,76.8,33.9,75.8,33.9,74.8z"/>
	<path fill="#898989" d="M34,76.4c0,0,0.9,5-0.8,4.9c0,0-2.1,0.3-2.6-0.3v-3.6c0.2-0.7,0.2-1.5,0.2-2.2c0,0,1,3.3,2.1,2.9
		C32.9,78.1,34,79,34,76.4z"/>
	<path fill="#898989" d="M29.9,81.1c0,0,0-3.5-0.6-5c0,0-0.7,3.3-1.3,5C28,81.1,29.6,81.6,29.9,81.1z"/>
	<path fill="#898989" d="M27.3,79.7c0,0-0.2,1-1.5,0.5c0,0-1.6,0.2-2.1-0.7c0,0,1.1-7.1-0.1-9.8c0,0,2.2,6.8,2.3,7.7
		c0.1-1.6,0.1-3.3-0.2-4.9C26.8,74.7,27.3,77.2,27.3,79.7z"/>
	<path fill="#5A5A5A" d="M21.6,63.8c0.3,0.3,0.5,0.6,0.6,1c0.1,0.3,0.1,0.6,0.2,0.9c0.1,0.6,0.2,1.2,0.4,1.8
		c0.1,0.6,0.1,1.1,0.2,1.6c0.2,0.7,0.3,1.4,0.3,2.1c0,0.7,0,1.4-0.1,2.1c-0.1,0.7-0.1,1.4,0,2.1c0.1,0.8,0,1.7-0.2,2.5
		c-0.2,0.8-0.6,1.6-1.1,2.2c0,0,0,0.1,0,0.1c0,0,0,0.1,0,0.1c0,0,0,0,0,0c0.4,0.3,0.8,0.5,1.2,0.7c0.5,0.2,1,0.3,1.5,0.3
		c0.2,0,0.3,0,0.5-0.1c0,0,0,0,0.1,0c0.2,0.2,0.5,0.4,0.8,0.4c0.2,0,0.5,0,0.7-0.1c0.3,0.2,0.9,0.4,1.2,0.1c0.2,0.1,0.7,0.4,0.8,0.5
		c0.3,0.1,0.5,0.1,0.8,0c0,0,0,0,0.1,0c0.3,0.1,0.6,0.1,0.9,0c0.2,0,0.4,0.1,0.6,0.3c0.1,0,0.3,0,0.4,0c0.3,0,0.7,0,1,0h0
		c0.4,0.1,0.7,0.3,1.1,0.1c0.5-0.3,0.8-0.7,0.9-1.3c0.2-0.6,0.3-1.2,0.3-1.9c0-0.8,0-1.6,0-2.5c0-0.3,0-0.7,0-1
		c0-0.3-0.2-0.6-0.2-0.9c0-0.6-0.1-1.2-0.2-1.8c0-0.2-0.1-0.4-0.2-0.5c-0.1-0.1-0.3-0.1-0.4-0.3c-0.1-0.2-0.3-0.3-0.5-0.3
		c-0.1,0-0.3,0-0.4-0.1c-0.1,0-0.1-0.1-0.1-0.1c0-0.1-0.1-0.1-0.1-0.2c-0.1-0.2-0.6-0.3-0.7-0.4s-0.1-0.1-0.1-0.1
		c-0.1-0.2-0.3-0.4-0.4-0.5c-0.1-0.1-0.5-0.1-0.6-0.2l-0.2-0.1l0,0l0,0c-0.1-0.2-0.4-0.4-0.5-0.6c-0.2-0.3-0.6-0.4-0.9-0.5l-0.3-0.1
		l-0.4-0.5c-0.2-0.3-0.5-0.5-0.8-0.7c-0.1,0-0.1-0.1-0.2-0.2l0,0c-0.1-0.1-0.1-0.2-0.1-0.2c-0.1-0.1-0.3-0.2-0.4-0.2
		c-0.3-0.2-0.6-0.5-0.9-0.7c0,0-0.2-0.1-0.4-0.1c-0.2-0.2-0.5-0.5-0.7-0.7c-0.2-0.2-0.4-0.6-0.6-0.7l0,0c0,0-0.1-0.1-0.1-0.1
		c-0.2-0.2-0.3-0.3-0.5-0.4c-0.3-0.2-0.5-0.4-0.7-0.6c-0.3-0.2-0.6-0.4-0.9-0.5l0,0C21.9,63.7,21.7,63.7,21.6,63.8z M27.5,70.9
		l0.1,0.4c-0.1-0.2-0.2-0.4-0.3-0.7c-0.3-0.7-0.6-1.5-0.9-2.2c-0.2-0.4-0.3-0.9-0.5-1.3l0,0c0.1,0,0.2,0.1,0.2,0.1
		c0.3,0.2,0.6,0.4,0.9,0.6c0.4,0.2,0.4,0.8,0.4,1.2C27.4,69.7,27.4,70.3,27.5,70.9z M32.8,73.4c0,0.6,0,1.2,0,1.8
		c0-0.1,0-0.2-0.1-0.3c-0.3-0.8-0.5-1.7-0.6-2.6c0-0.2,0-0.4-0.1-0.5h0.1C32.7,72,32.8,72.8,32.8,73.4L32.8,73.4z M32.8,82.4
		c0.2-0.3,0.4-0.7,0.4-1.1c0.1-0.4,0.1-0.7,0.1-1.1c0-0.3,0-0.7-0.1-1c-0.1-0.7-0.2-1.4-0.3-2.1c0-0.1,0-0.3,0-0.4c0,0,0-0.1,0-0.2
		c0.1-1.1,0.1-2.2,0.1-3.3c0-0.3,0-0.6-0.1-0.9h0.1c0.2,0,1.1,0.6,1.2,0.9c0.1,0.6,0.2,1.2,0.2,1.8c0,0.5,0.2,1,0.2,1.5
		c0,0.5,0,1.2,0,1.8c0,0.6,0,1.2,0,1.7c-0.1,0.7-0.2,1.4-0.5,2C33.7,82.6,33.2,82.5,32.8,82.4L32.8,82.4z M30.5,82.1
		c0.3-0.6,0.1-1.3,0.2-1.9c0.1-0.6,0.1-1.3,0-1.9c-0.1-0.7,0-1.4,0.1-2.1c0.1-1.6-0.4-3.1-0.3-4.7c0-0.2,0-0.4,0-0.7
		c0,0,0.1,0.1,0.2,0.1c0.3,0,0.5,0.1,0.6,0.4c0.1,0.3,0.4,0.2,0.4,0.7c0,0.3,0,0.6,0.1,0.8c0.1,0.7,0.5,1.4,0.6,2.2
		c0.1,0.7,0.1,1.3,0.2,1.9c0,0.3,0,0.7,0.1,1c0,0.3,0.1,0.5,0.1,0.7c0.1,0.7,0.2,1.3,0.1,2c0,0.6-0.1,1.8-0.9,1.8
		c-0.4,0-0.9,0-1.3-0.2C30.7,82.2,30.6,82.1,30.5,82.1L30.5,82.1z M29.6,82.1c0.1-0.2,0.1-0.4,0.2-0.5c0.1-0.4,0.2-0.8,0.2-1.2
		c0-0.8,0-1.6-0.2-2.4c-0.2-0.9-0.3-1.7-0.3-2.6c0-0.2,0.1-0.4,0.1-0.6c0-0.1,0-0.2,0-0.2c0.1-0.4,0.1-0.8,0.1-1.3
		c0-0.5,0-1-0.1-1.5s-0.2-0.8-0.3-1.2c0-0.3-0.1-0.5-0.3-0.7c0.1,0,0.1,0.1,0.2,0.1c0.3,0.1,0.5,0.3,0.7,0.6
		c0.2,0.2,0.4,0.6,0.3,0.9c0,0.3-0.1,0.6-0.1,0.9c0,1.3,0.4,2.5,0.3,3.8c0,0.6-0.2,1.2-0.2,1.8s0.1,1,0.1,1.5c0,0.5-0.2,1.2-0.1,1.8
		c0,0.4,0.1,1-0.4,1C29.9,82.1,29.7,82.1,29.6,82.1L29.6,82.1z M28,81.7c0,0,0-0.1,0-0.1c0.1-0.5,0.3-0.9,0.4-1.3
		c0.1-0.4,0.1-0.8,0.2-1.2c0.2-0.8,0.6-1.6,0.7-2.4c0,0.3,0.1,0.5,0.1,0.8c0.1,0.3,0.2,0.7,0.2,1.1c0.1,0.4,0,0.8,0.1,1.1
		c0.1,0.5,0,1-0.1,1.5c-0.1,0.2-0.2,0.4-0.2,0.7c-0.1,0.2-0.3,0.3-0.5,0.3C28.5,82.1,28.2,81.9,28,81.7L28,81.7z M26.9,81.6
		L26.9,81.6c0.3-0.3,0.5-0.7,0.6-1.1c0.1-0.5-0.1-1.1,0-1.6c0-0.4,0.1-0.9,0.2-1.3c0.1-0.4,0.2-0.9,0.3-1.4c0.1-0.5,0.1-1.1,0-1.6
		c0-0.5,0-1.1,0-1.6c0-0.1,0-0.3,0-0.4c0,0,0,0,0-0.1c0-1.1-0.4-2.2-0.4-3.4c0-0.2,0-0.5,0-0.7l0.2,0.2c0.2,0.2,0.5,0.4,0.6,0.7
		c0,0.1,0.2,0.1,0.2,0.3c0.2,0.1,0.3,0.3,0.5,0.4c0.1,0.4,0.3,0.8,0.3,1.2c0.1,0.4,0.1,0.9,0.1,1.4c0.1,0.4,0.1,0.8,0,1.2
		c-0.1,0.4-0.1,0.7-0.2,1.1c-0.1,0.3-0.2,0.7-0.2,1c0,0.7-0.2,1.5-0.4,2.2c-0.1,0.3-0.2,0.7-0.3,1c-0.1,0.4,0,0.7-0.1,1.1
		c-0.1,0.4-0.2,0.8-0.4,1.2C27.7,81.7,27.3,81.8,26.9,81.6L26.9,81.6z M25.3,81.3c0.1-0.1,0.1-0.1,0.2-0.2c0.2-0.4,0.4-0.8,0.5-1.2
		c0.1-0.5,0-1,0-1.5c0.1-0.4,0.1-0.9,0.1-1.3c0-0.2,0.1-0.5,0.1-0.7v-0.9c0-0.4,0-0.8-0.1-1.2c0-0.3,0-0.6-0.1-0.8
		c-0.1-0.3-0.2-0.7-0.2-1c0-0.4-0.1-0.8-0.1-1.1c-0.2-1-0.4-2-0.7-2.9c-0.1-0.6-0.3-1.2-0.5-1.8c0-0.1-0.1-0.2-0.1-0.3l0,0
		c0.2,0.1,0.3,0.3,0.5,0.5c0.1,0.1,0.2,0.1,0.3,0.2c0.1,0,0.2,0.1,0.3,0.2l0,0c0.2,0.4,0.4,0.8,0.6,1.2c0.2,0.6,0.5,1.3,0.7,1.9
		c0.1,0.2,0.2,0.5,0.4,0.7c0.2,0.4,0.4,0.8,0.5,1.2c0.1,0.9,0.2,1.9,0.1,2.8c0,0.5,0,1-0.1,1.5c-0.1,0.4-0.2,0.8-0.3,1.2
		c-0.1,0.7-0.1,1.5-0.1,2.2c0,0.6-0.2,1.1-0.6,1.5h-0.1c-0.1,0.1-0.2,0.1-0.3,0.1C26,81.5,25.6,81.4,25.3,81.3L25.3,81.3z
		 M22.2,64.1l0.2,0.1c0.2,0.1,0.5,0.3,0.7,0.5c0.3,0.2,0.6,0.5,0.9,0.7c0.1,0.1,0.1,0.2,0.1,0.2c0.2,0.4,0.4,0.9,0.4,1.4
		c0.1,0.5,0.3,0.9,0.4,1.4c0,0.2,0.1,0.5,0.2,0.7c0.1,0.2,0.1,0.4,0.2,0.7c0.1,0.2,0.1,0.7,0.2,1.1c0.2,0.4,0.3,0.8,0.3,1.2
		c0,0.5,0.1,0.9,0.2,1.4c0,0.9,0.1,1.7,0.1,2.6c0,0.9-0.2,1.5-0.2,2.3c0,0.5,0,1-0.1,1.5c-0.2,0.6-0.4,1.3-1.1,1.3
		c-0.5,0-1-0.1-1.4-0.3c-0.4-0.2-0.7-0.3-1.1-0.6c0,0,0-0.1,0-0.1c0.4-0.6,0.8-1.3,1-2c0.3-0.7,0.4-1.5,0.3-2.2
		c0-0.4-0.1-0.8-0.1-1.1c0-0.4,0-0.8,0-1.2c0-0.4,0.1-0.6,0.1-0.9s0-0.7,0-1.1c0-0.8-0.1-1.5-0.3-2.3c-0.1-0.6-0.1-1.2-0.2-1.8
		c-0.1-0.6-0.2-1.3-0.4-2c-0.1-0.4-0.1-0.7-0.2-1C22.3,64.4,22.2,64.2,22.2,64.1z"/>
	<polygon fill="#F5BF81" points="36.4,73.2 38.3,73.2 41.2,75.6 43.8,72.4 41.1,70.2 39.1,70 	"/>
	<polygon fill="#F9F1A4" points="36.4,73.2 38.3,73.2 41.1,70.2 39.1,70 	"/>
	<polygon fill="#F5BF81" points="39.6,69.4 41.7,69.5 44.4,71.8 45.2,70.8 42.5,68.6 40.4,68.4 	"/>
	<polygon fill="#F9F1A4" points="39.6,69.4 41.7,69.5 42.5,68.6 40.4,68.4 	"/>
	<g id="Layer_2_5_">
		<path fill="#030404" d="M93.5,101.2c0,4.4-13.6,8-30.5,8s-30.5-3.6-30.5-8V82.4l61,0.1V101.2z"/>
		<path fill="#333333" d="M93.5,82.5v18.7c0,3.1-5,4.5-6.8,5.1c-5.6,1.7-11.4,2.6-17.3,2.8c-2.4,0.1-4.8,0.1-6.9-1.2
			c-0.7-0.3-1-1.1-0.7-1.8c0.1-0.1,0.2-0.3,0.3-0.4c0.4-0.4,0.8-0.8,1.3-1c0.9-0.6,1.7-1.2,2.5-1.9c0.9-0.7,1.4-1.6,1.5-2.7
			c0-1.3-1.1-2.2-2.1-2.9c-1.8-1.1-3.7-2.1-5-3.9c-0.3-0.4-0.5-0.9-0.5-1.3c0-1,0.9-1.6,1.6-2c4.5-2.4,9.1-4.8,13.6-7.3
			c2.5-1.3,5.9-0.8,8.5-0.5C84.3,82.3,93.5,82.4,93.5,82.5z"/>
		<path fill="#CCCBCB" d="M93.5,85.2c0,4.7-13.6,8.4-30.5,8.4s-30.5-3.8-30.5-8.4c0-2.4-0.1-4.4,3.7-6c3.8-1.5,11.4-2.5,26.8-2.5
			c17.9,0,25.9,0.6,28.9,2.6C94,80.8,93.5,83.3,93.5,85.2z"/>
		<ellipse cx="63" cy="81.1" rx="30.5" ry="8"/>
		<ellipse fill="#CCCBCB" cx="51" cy="78.7" rx="7.5" ry="2"/>
		<path opacity="0.7" fill="#7F7F7F" enable-background="new    " d="M88.9,80.7c0,3.5-11.6,6.4-25.9,6.4s13.6-3.8,13.6-7.3
			c0-3.5-2.1-4.9,1.6-4.2C83.8,76.5,88.9,77.1,88.9,80.7z"/>
	</g>
</g>
</svg>
