<?xml version="1.0" encoding="utf-8"?>
<!-- Generator: Adobe Illustrator 24.3.0, SVG Export Plug-In . SVG Version: 6.00 Build 0)  -->
<svg version="1.1" id="Layer_1" xmlns="http://www.w3.org/2000/svg" xmlns:xlink="http://www.w3.org/1999/xlink" x="0px" y="0px"
	 viewBox="0 0 126 126" enable-background="new 0 0 126 126" xml:space="preserve">
<g id="_18-hockey">
	<path fill="none" stroke="#000000" stroke-width="16" stroke-linejoin="round" stroke-miterlimit="32" d="M19.5,50.1h67.7"/>
	<path fill="none" stroke="#000000" stroke-width="16" stroke-linejoin="round" stroke-miterlimit="32" d="M19.5,59.8h58.1V19.5"/>
	<path fill="#FAFCFF" d="M19.5,19.5v61.3c0-5.3,4.3-9.7,9.7-9.7h67.7c5.3,0,9.7,4.3,9.7,9.7V19.5H19.5z"/>
	<path fill="#DBE0E9" d="M19.5,19.5v61.3c0-5.3,4.3-9.7,9.7-9.7V30.7c0-3.6,2.9-6.5,6.5-6.5h54.8c3.6,0,6.5,2.9,6.5,6.5v40.3
		c5.3,0,9.7,4.3,9.7,9.7V19.5H19.5z"/>
	<path fill="#333940" d="M19.5,13h6.5v6.5h-6.5V13z"/>
	<path fill="#333940" d="M100.1,13h6.5v6.5h-6.5V13z"/>
	<path fill="#DF292E" d="M100.1,13v6.5h-3.2h-9.7h-9.7h-9.7h-9.7h-9.7h-9.7h-9.7h-3.2V13H100.1z"/>
	<path fill="#DF292E" d="M19.5,13v74.2H13v-71c0-1.8,1.4-3.2,3.2-3.2H19.5z"/>
	<path fill="#DF292E" d="M113,56.5v30.6h-6.5V13h3.2c1.8,0,3.2,1.4,3.2,3.2V56.5z"/>
	<path fill="#414952" d="M106.5,31.5v-1.6h-8.9V19.5h-1.6v10.5H88V19.5h-1.6v10.5h-8.1V19.5h-1.6v10.5h-8.1V19.5H67v10.5H59V19.5
		h-1.6v10.5h-8.1V19.5h-1.6v10.5h-8.1V19.5H38v10.5h-8.1V19.5h-1.6v10.5h-8.9v1.6h8.9v8.1h-8.9v1.6h8.9v8.1h-8.9v1.6h8.9V59h-8.9
		v1.6h8.9v10.5h1.6V60.6H38v10.5h1.6V60.6h8.1v10.5h1.6V60.6h8.1v10.5H59V60.6H67v10.5h1.6V60.6h8.1v10.5h1.6V60.6h8.1v10.5H88V60.6
		h8.1v10.5h1.6V60.6h8.9V59h-8.9v-8.1h8.9v-1.6h-8.9v-8.1h8.9v-1.6h-8.9v-8.1H106.5z M86.4,31.5v8.1h-8.1v-8.1H86.4z M49.3,41.2h8.1
		v8.1h-8.1V41.2z M47.7,49.3h-8.1v-8.1h8.1V49.3z M59,41.2H67v8.1H59V41.2z M68.6,41.2h8.1v8.1h-8.1V41.2z M78.3,41.2h8.1v8.1h-8.1
		V41.2z M76.7,31.5v8.1h-8.1v-8.1H76.7z M67,31.5v8.1H59v-8.1H67z M57.4,31.5v8.1h-8.1v-8.1H57.4z M47.7,31.5v8.1h-8.1v-8.1H47.7z
		 M29.9,31.5H38v8.1h-8.1V31.5z M29.9,41.2H38v8.1h-8.1V41.2z M29.9,59v-8.1H38V59H29.9z M39.6,59v-8.1h8.1V59H39.6z M49.3,59v-8.1
		h8.1V59H49.3z M59,59v-8.1H67V59H59z M68.6,59v-8.1h8.1V59H68.6z M78.3,59v-8.1h8.1V59H78.3z M96.1,59H88v-8.1h8.1V59z M96.1,49.3
		H88v-8.1h8.1V49.3z M96.1,39.6H88v-8.1h8.1V39.6z"/>
	<path fill="#5E1211" d="M96.9,69.5H29.1c-4-0.2-7.7,1.8-9.7,5.3v7.6c0.9,0,1.6-0.7,1.6-1.6c0-0.3,0.1-8.1,8.1-8.1h67.7
		c7.8,0,8.1,7.2,8.1,8.1c0,0.9,0.7,1.6,1.6,1.6v-7.6C104.6,71.2,100.8,69.2,96.9,69.5z"/>
	<path fill="#23272B" d="M22.7,13h-3.2v6.5h6.5v-3.2C24.1,16.2,22.7,14.8,22.7,13z"/>
	<path fill="#23272B" d="M103.3,13c0,1.8-1.4,3.2-3.2,3.2v3.2h6.5V13H103.3z"/>
	<path fill="#B72327" d="M25.9,16.2v3.2h3.2h9.7h9.7h9.7h9.7h9.7h9.7h9.7h3.2v-3.2H25.9z"/>
	<g>
		<path fill="#E63437" d="M37.2,13h41.9c0.9,0,1.6,0.7,1.6,1.6l0,0c0,0.9-0.7,1.6-1.6,1.6H37.2c-0.9,0-1.6-0.7-1.6-1.6l0,0
			C35.6,13.7,36.3,13,37.2,13z"/>
		<path fill="#E63437" d="M85.6,13h4.8c0.9,0,1.6,0.7,1.6,1.6l0,0c0,0.9-0.7,1.6-1.6,1.6h-4.8c-0.9,0-1.6-0.7-1.6-1.6l0,0
			C84,13.7,84.7,13,85.6,13z"/>
		<path fill="#E63437" d="M109.8,74.3V32.4c0-0.9,0.7-1.6,1.6-1.6l0,0c0.9,0,1.6,0.7,1.6,1.6v41.9c0,0.9-0.7,1.6-1.6,1.6l0,0
			C110.5,75.9,109.8,75.2,109.8,74.3z"/>
		<path fill="#E63437" d="M109.8,25.9v-4.8c0-0.9,0.7-1.6,1.6-1.6l0,0c0.9,0,1.6,0.7,1.6,1.6v4.8c0,0.9-0.7,1.6-1.6,1.6l0,0
			C110.5,27.5,109.8,26.8,109.8,25.9z"/>
		<path fill="#E63437" d="M13,74.3V32.4c0-0.9,0.7-1.6,1.6-1.6l0,0c0.9,0,1.6,0.7,1.6,1.6v41.9c0,0.9-0.7,1.6-1.6,1.6l0,0
			C13.7,75.9,13,75.2,13,74.3z"/>
		<path fill="#E63437" d="M13,25.9v-4.8c0-0.9,0.7-1.6,1.6-1.6l0,0c0.9,0,1.6,0.7,1.6,1.6v4.8c0,0.9-0.7,1.6-1.6,1.6l0,0
			C13.7,27.5,13,26.8,13,25.9z"/>
	</g>
	<path fill="#B72327" d="M109.8,79.1V17.8c0-0.9-0.7-1.6-1.6-1.6h-1.6v71h6.5v-4.8C111.2,82.4,109.8,80.9,109.8,79.1z"/>
	<path fill="#B72327" d="M16.2,79.1V17.8c0-0.9,0.7-1.6,1.6-1.6h1.6v71H13v-4.8C14.8,82.4,16.2,80.9,16.2,79.1z"/>
	<path fill="#DBE0E9" d="M93.9,63.3L45.3,113h-4.8L22.7,95.3l7-7.6c2.4-2.5,6.5-2.6,9-0.1c0.5,0.4,0.8,0.9,1.1,1.5l7.1,12.7
		l42.2-43.3l4.6,4.6L93.9,63.3z"/>
	<path fill="#CCD0DF" d="M108.2,38.8l4.8,5l-4.7,4.8l-0.1-0.1l-4.8-4.8L108.2,38.8z"/>
	<path fill="#CCD0DF" d="M103.5,53.5l-4.8,4.9l-0.2-0.2l-4.6-4.6l4.8-4.9l4.7,4.7L103.5,53.5z"/>
	<path fill="#DF292E" d="M108.3,48.6l-4.8,4.9l-0.2-0.2l-4.7-4.7l4.8-4.9l4.8,4.8L108.3,48.6z"/>
	<path fill="#DF292E" d="M98.7,58.4l-4.8,4.9L93.6,63l-4.6-4.6l4.8-4.9l4.6,4.6L98.7,58.4z"/>
	<ellipse fill="#565B67" cx="75.9" cy="103.3" rx="11.3" ry="3.2"/>
	<path fill="#414952" d="M67.8,101.7c0-0.3,0.1-0.5,0.3-0.7c-2.2,0.6-3.5,1.4-3.5,2.3c0,1.8,5,3.2,11.3,3.2c5.4,0,9.8-1.1,11-2.5
		c-2.5,0.6-5.2,0.9-7.8,0.9C72.9,104.9,67.8,103.5,67.8,101.7z"/>
	<path fill="#2A2E33" d="M75.9,106.5c6.2,0,11.3-1.5,11.3-3.2v6.5c0,1.8-5,3.2-11.3,3.2c-6.2,0-11.3-1.5-11.3-3.2v-6.5
		C64.6,105.1,69.7,106.5,75.9,106.5z"/>
	<path fill="#1A1B1F" d="M75.9,109.8c-1.8,0-3.6-0.1-5.4-0.4c-1.6-0.3-2.7-1.6-2.7-3.2v-0.6c-2-0.6-3.2-1.4-3.2-2.3v6.5
		c0,1.8,5,3.2,11.3,3.2c6.2,0,11.3-1.5,11.3-3.2v-3.2C87.2,108.3,82.1,109.8,75.9,109.8L75.9,109.8z"/>
	<path fill="#F7F9FD" d="M31.1,90.1c1.7-1.7,4.5-1.7,6.3,0c0.4,0.4,0.8,0.9,1,1.5l3.6,9.1c0.6,1.5,2.4,2.3,3.9,1.7
		c0.4-0.1,0.7-0.4,1-0.7L39.8,89c-1.7-3.1-5.6-4.2-8.6-2.5c-0.5,0.3-1,0.7-1.5,1.1l-3.9,4.2l1.7,1.7L31.1,90.1z"/>
	<path fill="#BEC3D1" d="M92,61.4L46.4,107c-1.5,1.5-4,1.5-5.5,0c0,0,0,0,0,0L27.5,93.6l-1.7-1.7l-3.1,3.4L40.4,113h4.8l48.7-49.7
		L93.6,63L92,61.4z"/>
	<path fill="#9CA2B3" d="M111.3,42.1l-4.8,4.8l1.6,1.6l0.1,0.1l4.7-4.8L111.3,42.1z"/>
	<path fill="#9CA2B3" d="M101.7,51.7l-4.8,4.8l1.6,1.6l0.2,0.2l4.8-4.9l-0.2-0.2L101.7,51.7z"/>
	<path fill="#9A1B21" d="M106.5,46.9l-4.8,4.8l1.6,1.6l0.2,0.2l4.8-4.9l-0.1-0.1L106.5,46.9z"/>
	<path fill="#9A1B21" d="M96.9,56.5L92,61.4l1.6,1.6l0.3,0.3l4.8-4.9l-0.2-0.2L96.9,56.5z"/>
</g>
</svg>
