<?xml version="1.0" encoding="utf-8"?>
<!-- Generator: Adobe Illustrator 24.3.0, SVG Export Plug-In . SVG Version: 6.00 Build 0)  -->
<svg version="1.1" id="Layer_1" xmlns="http://www.w3.org/2000/svg" xmlns:xlink="http://www.w3.org/1999/xlink" x="0px" y="0px"
	 viewBox="0 0 126 126" enable-background="new 0 0 126 126" xml:space="preserve">
<g>
	<path fill="#EFF6FC" d="M113,81v11c0,8.5-6.9,15.5-15.5,15.5H16c-1.6,0-2.9-1.3-2.9-2.9s1.3-2.9,2.9-2.9h20.6V85.7
		c0-1.6,1.3-2.9,2.9-2.9c1.6,0,2.9,1.3,2.9,2.9v15.9h27.1V85.7c0-1.6,1.3-2.9,2.9-2.9s2.9,1.3,2.9,2.9v15.9h22.2
		c5.3,0,9.6-4.3,9.6-9.6V81c0-1.6,1.3-2.9,2.9-2.9C111.7,78.1,113,79.4,113,81z"/>
	<path fill="#DFE6F3" d="M113,81v11c0,8.5-6.9,15.5-15.5,15.5h-64v-5.9h3V85.7c0-1.6,1.3-2.9,2.9-2.9c1.6,0,2.9,1.3,2.9,2.9v15.9
		h27.1V85.7c0-1.6,1.3-2.9,2.9-2.9s2.9,1.3,2.9,2.9v15.9h22.2c5.3,0,9.6-4.3,9.6-9.6V81c0-1.6,1.3-2.9,2.9-2.9
		C111.7,78.1,113,79.4,113,81z"/>
	<path fill="#4E588C" d="M102,71.6c0,9.4-7.6,17.1-17.1,17.1H16c-1.6,0-2.9-1.3-2.9-2.9V21.4c0-1.6,1.3-2.9,2.9-2.9h36.5
		c1.6,0,2.9,1.3,2.9,2.9V43l-1.8,4.3c0,2.7,2.6,1,3.7,2.6c0.5,0.7,1.1,1.2,1.7,1.7c1.1,0.9,0.1,3.6,1.3,4c0.6,0.2,3.6-1.6,4.2-1.4
		c2.2,0.5,1.9,0.4,20.3,0.4C94.2,54.6,102,62.2,102,71.6z"/>
	<path fill="#323E73" d="M102,71.6c0,9.4-7.6,17.1-17.1,17.1H33.5V18.5h18.9c1.6,0,2.9,1.3,2.9,2.9V43l-1.8,4.3c0,2.7,2.6,1,3.7,2.6
		c0.5,0.7,1.1,1.2,1.7,1.7c1.1,0.9,0.1,3.6,1.3,4c0.6,0.2,3.6-1.6,4.2-1.4c2.2,0.5,1.9,0.4,20.3,0.4C94.2,54.6,102,62.2,102,71.6z"
		/>
	<g>
		<path fill="#DFE6F3" d="M57.3,49.9c-19.4,7.8-18.1,7.4-19,7.4c-3.2,0-4.1-4.5-1.1-5.7L48.8,47L37.4,43c-1.5-0.5-2.4-2.2-1.8-3.7
			c0.5-1.5,2.2-2.4,3.7-1.8L55.4,43C55.4,45.5,55.7,47.7,57.3,49.9L57.3,49.9z"/>
		<path fill="#DFE6F3" d="M64.5,54.2l-2.8,17.9c-0.2,1.5-1.5,2.5-2.9,2.5c-1.8,0-3.2-1.6-2.9-3.4l1.7-11.1l-9.5,7.3
			c-1.3,1-3.1,0.7-4.1-0.5c-1-1.3-0.7-3.1,0.5-4.1l14.4-11C60.5,52.9,62.5,53.8,64.5,54.2L64.5,54.2z"/>
	</g>
</g>
</svg>
