<?xml version="1.0" encoding="utf-8"?>
<!-- Generator: Adobe Illustrator 24.3.0, SVG Export Plug-In . SVG Version: 6.00 Build 0)  -->
<svg version="1.1" id="Layer_1" xmlns="http://www.w3.org/2000/svg" xmlns:xlink="http://www.w3.org/1999/xlink" x="0px" y="0px"
	 viewBox="0 0 126 126" enable-background="new 0 0 126 126" xml:space="preserve">
<g>
	<path fill="#FFD341" d="M56.1,49.2c-6.6,0-13,2.6-17.7,7.3L18.2,76.8l8.6,8.6l34.5-31L56.1,49.2z"/>
	<path fill="#F5A220" d="M23.3,82l36.2-36.2h5.2l22.4,22.4l-3.4,5.2l-5.2-3.4l1.7,5.2h-3.4L63,68.2l-27.6,31L23.3,82z"/>
	<path fill="#EF8017" d="M27.4,83.1c-1.1,0-2.2,0-3.3-0.1l11.3,16.2l18.4-20.7C45.3,81.6,36.4,83.1,27.4,83.1z"/>
	<path fill="#FFD341" d="M64.7,45.8l-5.2,3.4l-1.3-0.7c-2.7-1.4-3.8-4.7-2.5-7.4c0.1-0.2,0.2-0.4,0.3-0.6L64.7,45.8z"/>
	<path fill="#393856" d="M66.4,57.8c-0.2,0-0.4,0-0.7-0.1c-0.2-0.1-0.4-0.2-0.6-0.4c-0.3-0.3-0.5-0.8-0.5-1.2c0-0.5,0.2-0.9,0.5-1.2
		c0.1-0.1,0.2-0.1,0.3-0.2c0.1-0.1,0.2-0.1,0.3-0.2c0.1,0,0.2-0.1,0.3-0.1c0.2-0.1,0.5-0.1,0.7,0c0.1,0,0.2,0.1,0.3,0.1
		c0.1,0,0.2,0.1,0.3,0.2c0.1,0.1,0.2,0.1,0.3,0.2c0.3,0.3,0.5,0.8,0.5,1.2c0,0.2,0,0.5-0.1,0.7c-0.1,0.2-0.2,0.4-0.4,0.6
		c-0.2,0.2-0.4,0.3-0.6,0.4C66.9,57.8,66.7,57.8,66.4,57.8L66.4,57.8z"/>
	<path fill="#D7DBDF" d="M35.4,13C21.9,25.5,13,45.6,13,63c0,27.6,22.4,50,50,50s50-22.4,50-50c0-17.4-8.9-37.5-22.4-50l-10.7,8.6
		C91.4,31.3,99.2,49.1,99.2,63C99.2,83,83,99.2,63,99.2S26.8,83,26.8,63c0-13.9,7.8-31.7,19.3-41.4L35.4,13z"/>
	<g>
		<path fill="#6B7789" d="M46.1,21.6L35.4,13c-2.1,2-4.1,4.1-5.9,6.3l10.6,8.5C41.9,25.6,43.9,23.5,46.1,21.6z"/>
		<path fill="#6B7789" d="M90.6,13l-10.7,8.6c2.2,1.9,4.2,3.9,6,6.2l10.6-8.5C94.7,17.1,92.7,15,90.6,13z"/>
	</g>
</g>
</svg>
