<?xml version="1.0" encoding="utf-8"?>
<!-- Generator: Adobe Illustrator 24.3.0, SVG Export Plug-In . SVG Version: 6.00 Build 0)  -->
<svg version="1.1" id="Layer_1" xmlns="http://www.w3.org/2000/svg" xmlns:xlink="http://www.w3.org/1999/xlink" x="0px" y="0px"
	 viewBox="0 0 126 126" enable-background="new 0 0 126 126" xml:space="preserve">
<g id="XMLID_1509_">
	<path id="XMLID_1467_" fill="#A5D0A0" d="M25.6,103.2V22.8c0-4.3,3.5-7.8,7.8-7.8h67.1v80.5H33.4C29.1,95.4,25.6,98.9,25.6,103.2z"
		/>
	<path id="XMLID_1380_" fill="#FFFFFF" d="M100.4,111H33.4c-4.3,0-7.8-3.5-7.8-7.8s3.5-7.8,7.8-7.8h67.1V111z"/>
	<path id="XMLID_1626_" fill="#C68A65" d="M25.6,73.6l22-22l6.8,6.8L25.6,87.1V73.6z"/>
	<path id="XMLID_1639_" fill="#DCB8A2" d="M41.5,57.7l6.1-6.1l6.8,6.8l-6.1,6.1L41.5,57.7z"/>
	<g id="XMLID_2116_">
		<path id="XMLID_2117_" fill="#FCCC6A" d="M55.2,71h33.6V82H55.2L55.2,71z"/>
	</g>
	<path id="XMLID_1635_" fill="#DCB8A2" d="M79.2,56.6L66.3,69.5c-1.6,1.6-4.1,1.6-5.6,0c-1.6-1.6-1.6-4.1,0-5.7l12.9-12.9
		c1.6-1.6,4.1-1.6,5.6,0C80.7,52.5,80.7,55,79.2,56.6z"/>
	<path id="XMLID_1634_" fill="#DCB8A2" d="M55,32.3L42.1,45.3c-1.6,1.6-4.1,1.6-5.6,0c-1.6-1.6-1.6-4.1,0-5.7l12.9-12.9
		c1.6-1.6,4.1-1.6,5.6,0C56.5,28.2,56.5,30.8,55,32.3z"/>
	<path id="XMLID_1633_" fill="#C68A65" d="M41.7,45.7l13.7-13.7l18.5,18.6L60.2,64.3L41.7,45.7z"/>
	<g id="XMLID_788_">
		<path id="XMLID_791_" d="M100.4,13H33.4c-5.4,0-9.7,4.4-9.7,9.8v80.5c0,5.4,4.4,9.8,9.7,9.8h67.1c1.1,0,1.9-0.9,1.9-2V67.9
			c0-1.1-0.9-2-1.9-2c-1.1,0-1.9,0.9-1.9,2v25.6H33.4c-2.2,0-4.2,0.7-5.8,2V88l26.8-26.9l3.5,3.5c-0.2,0.6-0.4,1.3-0.4,2
			c0,0.8,0.2,1.7,0.5,2.4h-2.8c-1.1,0-1.9,0.9-1.9,2V82c0,1.1,0.9,2,1.9,2h33.6c1.1,0,1.9-0.9,1.9-2V71c0-1.1-0.9-2-1.9-2H69.5
			L80.6,58v0c2.3-2.3,2.3-6.1,0-8.4c-1.7-1.7-4.1-2.1-6.2-1.4L57.7,31.5c0.8-2.1,0.3-4.6-1.4-6.2c-1.1-1.1-2.6-1.7-4.2-1.7
			c-1.6,0-3.1,0.6-4.2,1.7L35,38.2c-1.1,1.1-1.7,2.6-1.7,4.2s0.6,3.1,1.7,4.2c1.1,1.1,2.6,1.7,4.2,1.7c0.7,0,1.4-0.1,2-0.4l3.5,3.5
			L27.5,68.9V22.8c0-3.2,2.6-5.9,5.8-5.9h65.1v33.4c0,1.1,0.9,2,1.9,2c1.1,0,1.9-0.9,1.9-2V15C102.4,13.9,101.5,13,100.4,13
			L100.4,13z M86.8,80H57.2v-7h29.7V80z M33.4,97.4h65.1v11.7H33.4c-3.2,0-5.8-2.6-5.8-5.9S30.1,97.4,33.4,97.4z M77.8,52.3
			c0.8,0.8,0.8,2.1,0,2.9L64.9,68.1c-0.4,0.4-0.9,0.6-1.4,0.6c-0.5,0-1.1-0.2-1.4-0.6c-0.4-0.4-0.6-0.9-0.6-1.4
			c0-0.5,0.2-1.1,0.6-1.4l12.9-12.9c0.4-0.4,0.9-0.6,1.4-0.6C76.9,51.7,77.4,51.9,77.8,52.3L77.8,52.3z M37.8,43.9
			c-0.4-0.4-0.6-0.9-0.6-1.4c0-0.5,0.2-1.1,0.6-1.4l12.9-12.9c0.4-0.4,0.9-0.6,1.4-0.6c0.5,0,1.1,0.2,1.4,0.6c0.8,0.8,0.8,2.1,0,2.9
			L40.7,43.9c-0.4,0.4-0.9,0.6-1.4,0.6S38.2,44.3,37.8,43.9L37.8,43.9z M55.4,34.7l15.8,15.8l-11,11L44.4,45.7L55.4,34.7z
			 M51.6,58.3l-3.3,3.3l-4-4l3.3-3.3L51.6,58.3z M41.5,60.4l4,4l-18,18v-8L41.5,60.4z"/>
		<path id="XMLID_911_" d="M91.1,24.3H73.9c-1.1,0-1.9,0.9-1.9,2s0.9,2,1.9,2h17.1c1.1,0,1.9-0.9,1.9-2S92.1,24.3,91.1,24.3z"/>
		<path id="XMLID_912_" d="M91.1,32.9h-8.6c-1.1,0-1.9,0.9-1.9,2c0,1.1,0.9,2,1.9,2h8.6c1.1,0,1.9-0.9,1.9-2
			C93,33.8,92.1,32.9,91.1,32.9z"/>
		<path id="XMLID_913_" d="M100.4,57.1c-0.5,0-1,0.2-1.4,0.6c-0.4,0.4-0.6,0.9-0.6,1.4s0.2,1,0.6,1.4c0.4,0.4,0.9,0.6,1.4,0.6
			c0.5,0,1-0.2,1.4-0.6c0.4-0.4,0.6-0.9,0.6-1.4s-0.2-1-0.6-1.4C101.4,57.3,100.9,57.1,100.4,57.1z"/>
	</g>
</g>
</svg>
