<?xml version="1.0" encoding="utf-8"?>
<!-- Generator: Adobe Illustrator 24.3.0, SVG Export Plug-In . SVG Version: 6.00 Build 0)  -->
<svg version="1.1" id="Layer_1" xmlns="http://www.w3.org/2000/svg" xmlns:xlink="http://www.w3.org/1999/xlink" x="0px" y="0px"
	 viewBox="0 0 126 126" enable-background="new 0 0 126 126" xml:space="preserve">
<g>
	<path fill="#FFD92C" d="M48.4,50.3v25.8h29.3V50.3H48.4z"/>
	<path fill="#FBBE02" d="M63,50.3h14.6v25.8H63V50.3z"/>
	<path fill="#A2CCEE" d="M24.9,73.2v19.9c0,1.6,1.3,2.9,2.9,2.9h70.3c1.6,0,2.9-1.3,2.9-2.9V73.2H24.9z"/>
	<path fill="#7EB6E4" d="M101.1,73.2v19.9c0,1.6-1.3,2.9-2.9,2.9H63V73.2H101.1z"/>
	<path fill="#F08459" d="M80.2,24.7l-2.5,11.5H48.4V13h29.3L80.2,24.7z"/>
	<path fill="#EA5C5E" d="M80.2,24.7l-2.5,11.5H63V13h14.6L80.2,24.7z"/>
	<path fill="#A2CCEE" d="M101.1,13H77.6v23.2h20.5c1.6,0,2.9-1.3,2.9-2.9V13z"/>
	<path fill="#B8CE3C" d="M78.8,104l-2.1,9H49.3l-2.7-10l2.7-10h27.3L78.8,104z"/>
	<path fill="#9CC334" d="M78.8,104l-2.1,9H63V93.1h13.7L78.8,104z"/>
	<path fill="#FFD92C" d="M24.9,93.1h24.4V113H24.9V93.1z"/>
	<path fill="#EA5C5E" d="M76.7,93.1h24.4V113H76.7V93.1z"/>
	<path fill="#B8CE3C" d="M24.9,33.3v19.9h76.2V33.3H24.9z"/>
	<path fill="#9CC334" d="M63,33.3h38.1v19.9H63V33.3z"/>
</g>
</svg>
