<?xml version="1.0" encoding="utf-8"?>
<!-- Generator: Adobe Illustrator 24.3.0, SVG Export Plug-In . SVG Version: 6.00 Build 0)  -->
<svg version="1.1" id="Layer_1" xmlns="http://www.w3.org/2000/svg" xmlns:xlink="http://www.w3.org/1999/xlink" x="0px" y="0px"
	 viewBox="0 0 126 126" enable-background="new 0 0 126 126" xml:space="preserve">
<g>
	<path fill="#F5B5B4" d="M85.1,109.8V71.5H45.7v3.2c0.9,0,1.6,0.7,1.6,1.6v33.5L85.1,109.8L85.1,109.8z"/>
	<path fill="#F5B5B4" d="M93.1,85.6h8.1c3.9,0,7-3.1,7-7V38.4l-20.9-17c-0.6-0.5-2-1-2.8-1l-4.1,0c-0.3,0-0.6-0.1-0.9-0.3l-5.2-3.4
		L54.2,45.2h30.9V31.7c0-0.9,0.7-1.6,1.6-1.6s1.6,0.7,1.6,1.6v11.2l3.9-3.9c0.6-0.6,1.6-0.6,2.3,0c0.6,0.6,0.6,1.6,0,2.3l-6.2,6.2
		v39.7h3.2C91.5,86.3,92.2,85.6,93.1,85.6z"/>
	<path fill="#EF8582" d="M37.7,47.5l-6.2-6.2c-0.6-0.6-0.6-1.6,0-2.3c0.6-0.6,1.6-0.6,2.3,0l3.9,3.9V31.7c0-0.9,0.7-1.6,1.6-1.6
		c0.9,0,1.6,0.7,1.6,1.6v13.5h9.4L61,30l-9.4-13.3l-5.2,3.4c-0.3,0.2-0.6,0.3-0.9,0.3c0,0-4.1,0-4.1,0c-0.8,0-2.2,0.5-2.8,1
		l-20.9,17v40.1c0,3.9,3.1,7,7,7h8.1c0.9,0,1.6,0.7,1.6,1.6c0,0,3.2,0,3.2,0V47.5z"/>
	<path fill="#EF8582" d="M40.9,71.5v38.3h3.3V76.3c0-0.9,0.7-1.6,1.6-1.6v-3.2H40.9z"/>
	<path fill="#E73F38" d="M40.9,56.8h4.8c0.9,0,1.6,0.7,1.6,1.6S46.5,60,45.7,60h-4.8v8.4h44.2V60H52c-0.9,0-1.6-0.7-1.6-1.6
		s0.7-1.6,1.6-1.6h33.1v-8.4H40.9V56.8z"/>
	<path fill="#1C1918" d="M110.8,36.4L89.4,19c-1.2-1-3.3-1.7-4.8-1.7h0l-3.7,0l-6.1-4c-0.7-0.5-1.7-0.3-2.2,0.4L63,27.3l-9.7-13.6
		c-0.5-0.7-1.5-0.9-2.2-0.4l-6.1,4l-3.7,0h0c-1.6,0-3.6,0.7-4.8,1.7L15.2,36.4c-0.4,0.3-0.6,0.8-0.6,1.2v40.9
		c0,5.6,4.6,10.2,10.2,10.2h8.1c0.9,0,1.6-0.7,1.6-1.6c0-0.9-0.7-1.6-1.6-1.6h-8.1c-3.9,0-7-3.1-7-7V38.4l20.9-17c0.6-0.5,2-1,2.8-1
		c0,0,4.1,0,4.1,0c0.3,0,0.6-0.1,0.9-0.3l5.2-3.4L61,30L50.3,45.2h-9.4V31.7c0-0.9-0.7-1.6-1.6-1.6c-0.9,0-1.6,0.7-1.6,1.6v11.2
		L33.8,39c-0.6-0.6-1.6-0.6-2.3,0c-0.6,0.6-0.6,1.6,0,2.3l6.2,6.2v64c0,0.9,0.7,1.6,1.6,1.6h47.4c0.9,0,1.6-0.7,1.6-1.6v-64l6.2-6.2
		c0.6-0.6,0.6-1.6,0-2.3c-0.6-0.6-1.6-0.6-2.3,0l-3.9,3.9V31.7c0-0.9-0.7-1.6-1.6-1.6c-0.9,0-1.6,0.7-1.6,1.6v13.5H54.2l20.2-28.4
		l5.2,3.4c0.3,0.2,0.6,0.3,0.9,0.3c0,0,4.1,0,4.1,0c0.8,0,2.2,0.5,2.8,1l20.9,17v40.1c0,3.9-3.1,7-7,7h-8.1c-0.9,0-1.6,0.7-1.6,1.6
		c0,0.9,0.7,1.6,1.6,1.6h8.1c5.6,0,10.2-4.6,10.2-10.2V37.7C111.4,37.2,111.2,36.7,110.8,36.4z M45.7,74.7c-0.9,0-1.6,0.7-1.6,1.6
		v33.5h-3.3V71.5h44.2v38.3H47.3V76.3C47.3,75.4,46.6,74.7,45.7,74.7z M85.1,48.4v8.4H52c-0.9,0-1.6,0.7-1.6,1.6S51.2,60,52,60h33.1
		v8.4H40.9V60h4.8c0.9,0,1.6-0.7,1.6-1.6s-0.7-1.6-1.6-1.6h-4.8v-8.4L85.1,48.4L85.1,48.4z"/>
</g>
</svg>
