<?xml version="1.0" encoding="utf-8"?>
<!-- Generator: Adobe Illustrator 24.3.0, SVG Export Plug-In . SVG Version: 6.00 Build 0)  -->
<svg version="1.1" id="Layer_1" xmlns="http://www.w3.org/2000/svg" xmlns:xlink="http://www.w3.org/1999/xlink" x="0px" y="0px"
	 viewBox="0 0 126 126" enable-background="new 0 0 126 126" xml:space="preserve">
<g transform="translate(0 -1020.36)" shape-rendering="auto" image-rendering="auto" color-rendering="auto">
	<path fill="#3F9ED8" d="M16.6,1054.8h92.9v57.1H16.6V1054.8z"/>
	<path fill="#65C4E0" d="M18.8,1057.5h88.4v51.8H18.8C18.8,1109.2,18.8,1057.5,18.8,1057.5z"/>
	<g>
		<path fill="#FFFFFF" d="M61.2,1053v60.7h3.6V1053H61.2L61.2,1053z"/>
		<path fill="#FFFFFF" d="M13.9,1061.9v3.6h98.2v-3.6H13.9L13.9,1061.9z"/>
		<path fill="#FFFFFF" d="M13.9,1101.2v3.6h98.2v-3.6H13.9L13.9,1101.2z"/>
		<path fill="#FFFFFF" d="M21.9,1062.8v41.1h3.6v-41.1H21.9z"/>
		<path fill="#FFFFFF" d="M30.9,1062.8v41.1h3.6v-41.1C34.4,1062.8,30.9,1062.8,30.9,1062.8z"/>
		<path fill="#FFFFFF" d="M100.5,1062.8v41.1h3.6v-41.1H100.5z"/>
		<path fill="#FFFFFF" d="M91.6,1062.8v41.1h3.6v-41.1H91.6z"/>
	</g>
	<path fill="#59358B" d="M13,1051.2v64.3h100v-1.8v-62.5H13z M16.6,1054.8h92.9v57.1H16.6V1054.8L16.6,1054.8z"/>
</g>
</svg>
