<?xml version="1.0" encoding="utf-8"?>
<!-- Generator: Adobe Illustrator 24.3.0, SVG Export Plug-In . SVG Version: 6.00 Build 0)  -->
<svg version="1.1" id="Layer_1" xmlns="http://www.w3.org/2000/svg" xmlns:xlink="http://www.w3.org/1999/xlink" x="0px" y="0px"
	 viewBox="0 0 126 126" enable-background="new 0 0 126 126" xml:space="preserve">
<g>
	<path fill="#D9D9D9" d="M101,113H25c-6.6,0-12-5.4-12-12V25c0-6.6,5.4-12,12-12h76c6.6,0,12,5.4,12,12v76
		C113,107.6,107.6,113,101,113z"/>
	<g id="VkXLBP.tif">
		<g>
			<path fill="#FFFFFF" d="M67,32.7L67,32.7c0.1,0.1,0.1,0.3,0.2,0.4c0.9,1.2,1.9,2.3,2.8,3.4c0.7,0.8,0.7,0.8,0.1,1.7
				c-0.6,1-1.2,2-1.8,2.9c0,0,0.1,0.1,0.1,0.1c0.7-1.1,1.3-2.1,1.9-3.2c0.3-0.5,0.4-1.1,0.7-1.7c0.1-0.3,0-0.5-0.3-0.6
				c-0.5-0.7-1-1.4-1.4-2.2c-0.2-0.2-0.3-0.5-0.5-0.7c-1.8-2.5-3.6-5-5.4-7.4c-0.2-0.2-0.3-0.5-0.6-0.8c0,1.1-0.1,2.1,0,3
				c0,0.3,0.5,0.6,0.7,0.9c0.1,0.2,0.3,0.4,0.4,0.6c0.2,0.3,0.4,0.7,0.6,0.9C65.4,31,66.2,31.8,67,32.7z M62.2,25.4
				c-1.3,1.8-2.7,3.7-4,5.5c-0.2,0.3-0.4,0.7-0.5,1c-0.8,1.1-1.6,2.2-2.5,3.3c-0.5,0.6-0.7,1.3-0.4,2.1c1.1,1.9,2.1,3.9,3.2,5.8
				c0.1,0.4,0.3,0.8,0.4,1.1c0,1.8,0,3.5,0,5.3c-0.1,0-0.1,0-0.2,0c0-1.7,0-3.4,0-5.1c0,0-0.1,0-0.1,0c0,0.7,0,1.3,0,2
				c-0.2-0.1-0.5-0.2-0.6-0.2c-0.5,0.4-1,0.8-1.5,1.2c-0.6-3.5-1.2-7-1.9-10.6c0,0-0.1,0-0.1,0c0.5,3.4,1,6.8,1.5,10.1
				c0,0-0.1,0-0.1,0c-0.6-3.2-1.3-6.4-1.9-9.8c-1.1,2.2-2.2,4.3-3.3,6.4c1.7,1.9,3.7,3.6,3.9,6.3c-0.3-0.7-0.6-1.5-0.8-2.1
				c-1.2-0.2-1.6-1.2-2.5-1.6c0.4,1,0.8,2,1.2,3c0,0-0.1,0-0.1,0c-0.2-0.5-0.5-1-0.7-1.5C51,47.9,51,48,51.1,48.1
				c0.4,1.1,0.8,2.2,1.2,3.3c0,0.1,0.3,0.2,0.4,0.2c2.1,0.2,4.1,0.4,6.2,0.6c0.2,0,0.3-0.1,0.5-0.2c0.2-0.3,0.4-0.5,0.7-0.8
				c0.7-0.9,1.3-1.8,2-2.6c0.6-0.7,0.8-1.5,0.8-2.4c-0.1-1,0-2.1,0-3.2c-0.1,0-0.1,0-0.2,0c0,0.4-0.1,0.9-0.1,1.3
				c-0.1,0-0.1-0.1-0.2-0.1c-0.3,0.3-0.6,0.6-0.9,0.9c0-0.2,0-0.5,0-0.8c0.1-0.9-0.2-1.7-0.6-2.5c-1-1.9-1.9-3.9-2.8-5.9
				c-0.1-0.1-0.1-0.4,0-0.5c0.4-0.5,0.8-0.9,1.2-1.3c1.2,1.3,2.4,2.6,3.5,3.9c1.2-1.3,2.3-2.5,3.5-3.8c0.3,0.4,0.6,0.7,1,1
				c0.3,0.2,0.3,0.5,0.1,0.8c-0.9,2-1.9,4.1-2.8,6.2c-0.2,0.5-0.3,1-0.3,1.5c0,1.7,0,3.3,0,5c0,0.3-0.1,0.6,0,0.8
				c0.4,0.7,0.9,1.3,1.3,1.9c0.2,0.2,0.3,0.5,0.5,0.7c0.2,0.1,0.4,0.2,0.6,0.2c1.6-0.1,3.2-0.4,4.8-0.4c1.4,0,2.2-0.5,2.4-1.9
				c0-0.2,0.2-0.5,0.2-0.7c0-0.1,0-0.3,0-0.4c-0.1,0-0.1,0-0.2,0c-0.2,0.4-0.4,0.8-0.6,1.2c0,0-0.1,0-0.1,0c0.5-1.2,0.9-2.4,1.4-3.7
				c0,0-0.1,0-0.1-0.1c-0.7,0.6-1.3,1.2-2,1.9c0,0-0.1-0.2-0.3-0.4c-0.2,0.4-0.3,0.7-0.5,1c0.2-0.9,0.4-1.8,1.1-2.5
				c0.7-0.7,1.4-1.5,2-2.3c0.1-0.2,0.2-0.5,0.1-0.7c-0.9-1.9-1.9-3.8-2.8-5.6c0-0.1-0.1-0.2-0.2-0.3c-0.7,3.2-1.3,6.2-2,9.3
				c-0.1,0-0.1,0-0.2,0c0.5-3.1,1.1-6.2,1.6-9.3c0,0,0,0,0,0c-0.8,3.7-1.5,7.3-2.3,10.9c-0.7-0.2-1.2-0.3-1.8-0.5
				c-0.1-0.5-0.2-1.1-0.2-1.7c0-1.1-0.3-2.3,0.4-3.3c-0.5,0.5-0.7,1-0.7,1.7c0,1.6,0,3.3,0,4.9c0,0-0.1,0-0.1,0
				c-0.1-0.3-0.2-0.5-0.4-0.8c-0.4,0.2-1-0.2-1.3,0.5C65,47.2,65,45.4,65,43.6c0-0.4,0.1-0.7,0.2-1.1c0.7-1.4,1.4-2.8,2-4.1
				c0.5-1,0.9-2.1,1.4-3.1c-0.8-0.9-1.5-1.8-2.3-2.7c-1.2,1.3-2.3,2.6-3.5,3.9c-1.2-1.3-2.5-2.6-3.7-3.9c-0.8,0.9-1.5,1.7-2.2,2.5
				c0-0.1,0-0.1-0.1-0.2c0-0.1,0.1-0.2,0.1-0.3c1.8-2.2,3.6-4.4,5.4-6.6c0.1-0.1,0.2-0.1,0.2-0.2c0-1,0-2,0-3c0,0-0.1,0-0.1,0
				C62.4,25,62.3,25.2,62.2,25.4z M64,32.3c0.3-0.5,0.5-0.9,0.8-1.5c-0.6-0.8-1.3-1.6-2.1-2.5c-0.7,0.8-1.3,1.6-1.9,2.4l0.1,0
				c-0.3,0.1-0.5,0.3-0.9,0.5c0.2,0.3,0.3,0.5,0.5,0.7c0.5,0.6,1,1.2,1.6,1.8c0.5,0.5,0.8,1,0.5,1.7c0.2-0.5,0.4-1.1,0.7-1.5
				c0.5-0.7,1.1-1.4,1.7-2.1c0.1-0.2,0.2-0.4,0.3-0.6c-0.3,0.1-0.4,0.3-0.6,0.5C64.5,31.9,64.2,32.1,64,32.3L64,32.3z M81.4,70.4
				c0.1,0.1,0.2,0.2,0.3,0.4c-1,0-1.8,0-2.6,0c0.1-0.5,0.3-1,0.3-1.5c0.3-2.2-0.2-4.2-1.7-5.9c-0.3-0.4-0.5-0.8-0.8-1.2
				c-0.5-0.8-1.1-1.5-1.6-2.3c0.5,0,1.1,0,1.7,0c0.2,0,0.5,0.2,0.6,0.3c0.9,1.5,1.8,3.1,2.7,4.6c-0.2-0.1-0.3-0.1-0.5-0.2
				c0,0.2,0.1,0.4,0.1,0.5c0.1,0.2,0.2,0.4,0.4,0.6c0.1,0,0.1,0,0.2,0c0-0.3-0.1-0.6-0.1-0.9c0.2-0.2,0.3-0.3,0.5-0.5
				c0.6-0.9,1.2-1.8,1.7-2.6c0.5-0.8,0.5-1-0.1-1.8c1.3,0.4,1.7-0.2,2.1-1.3c0.5-1.6,0.6-3.4,2.1-4.7c-0.2-0.1-0.4-0.2-0.6-0.3
				c-1.4,1.3-2.7,2.5-4,3.8c0,0-0.1-0.1-0.1-0.1c1.1-1.5,2.2-3,3.3-4.6c0.3,0.3,0.5,0.5,0.8,0.7c0.1,0,0.1,0,0.2,0
				c0-1.5,0-2.9,0-4.3c-1.7,0.8-3.4,1.6-5.1,2.4c-0.5,0.2-1.1,0.4-1.6,0.4c-2.8,0.3-5.6,0.5-8.4,0.8c-2.6,0.3-5.1,0.5-7.7,0.8
				c-0.5,0.1-0.7-0.1-0.7-0.6c0-0.8,0-1.5,0-2.2c-0.3,0.3-0.5,0.6-0.9,0.7c-0.5,0.2-0.6,0.4-0.6,0.9c0,0.2-0.1,0.4-0.2,0.6
				c0.5,0.2,1,0.4,1.6,0.5c-0.3,0.1-0.6,0.1-0.8,0.1c-2.2-0.2-4.4-0.5-6.6-0.7c-3-0.3-5.9-0.5-8.9-0.8c-0.4,0-0.9-0.1-1.2-0.3
				c-1.9-0.9-3.7-1.8-5.5-2.6c0,1.2,0,2.4,0,3.7c0,0.5,0,0.9-0.7,1.2c1.2,0.4,1.2,1.3,1.5,2.1c0.6,1.7,1.1,3.3,1.6,5
				c0.8-0.3,1.5-0.7,2.3-1c1.3-0.4,2.7-0.4,4-0.2c0.3,0,0.8-0.2,0.8,0.3c0.1,0.5,0,1.1,0,1.7c-1.9-1.1-4-1.1-5.6-0.1
				c-1.4,0.9-2.1,2.4-2,3.6c0.2-0.6,0.6-1.3,0.9-2.1c0.1,0,0.1,0,0.2,0.1c0.4,1.3,0.9,2.6,1.3,4c-0.8-0.4-1.6-0.8-2.4-1.3
				c0.1,0.3,0.1,0.5,0.1,0.7c0.7,2.7,4.1,4.3,6.7,3.2c0.1-0.1,0.3-0.3,0.3-0.5c0-0.6,0-1.2,0-1.8c0-0.7,0-1.5-0.6-2.1
				c0.8,0,1.5,0,2.1,0c0,1.6,0,3.1,0,4.7c0,0.4-0.1,0.6-0.5,0.7c-1.4,0.1-2.9,0.2-4.3,0.3c0,0-0.1,0-0.1-0.1
				c0.1-0.1,0.2-0.1,0.3-0.3c-0.6-0.2-1.2-0.3-1.7-0.5c-0.9-0.3-1.6-1-2.6-1c-0.1,0-0.3-0.2-0.4-0.3c-0.6-0.7-1.2-1.4-1.1-2.3
				c0.1-1.4-0.6-2.2-1.8-2.6c0,0-0.1,0-0.1-0.1c-1.5-0.8-3.1-1.6-4.7-2.5c0.1,0.2,0.1,0.3,0.2,0.4c1.5,3.2,3,6.5,4.5,9.7
				c0.4,0.8,0.7,1.8,1.3,2.5c1.3,1.6,2.6,3,4,4.6c0.2,0.3,0.6,0.6,0.6,0.9c0.5,2,1,4,1.5,6c0.1,0.3,0.3,0.6,0.6,0.7
				c2.8,1.5,5.6,3,8.4,4.5c0.2,0.1,0.5,0.3,0.7,0.5c1.6,2,3.1,3.9,4.7,5.9c1.1,1.4,2.2,2.8,3.3,4.2c0.1-0.1,0.2-0.2,0.2-0.3
				c2.2-2.8,4.4-5.7,6.6-8.5c0.6-0.7,1.2-1.4,2-1.9c2.7-1.5,5.5-2.9,8.2-4.4c0.2-0.1,0.5-0.4,0.5-0.7c0.4-1.5,0.8-3.1,1.2-4.6
				c0.2-0.7,0.4-1.5,0.8-2c0.8-1.1,1.8-2,2.7-3.1c0.8-0.9,1.6-1.8,2.1-2.9c1.2-2.3,2.3-4.7,3.4-7c0.7-1.5,1.4-2.9,2.2-4.5
				c-3.8,2-7.4,3.9-11.2,5.8c0.5-1.8,1-3.3,2-4.7c0.4-0.5,0.7-1.1,1.1-1.6c0.1-0.2,0.2-0.4,0.2-0.6c0,0-0.1,0-0.1,0
				c-0.7,1-1.4,1.9-2.1,2.9c0-0.2,0-0.3,0-0.5c0,0-0.1,0-0.1,0c-0.7,1.1-1.4,2.2-2.1,3.4c0.1,0,0.1,0.1,0.2,0.1
				c0.2-0.2,0.3-0.4,0.5-0.6c-0.1,0.1-0.1,0.3-0.1,0.4c0,1.2-0.1,2.4,0,3.6C81,69.9,81.3,70.2,81.4,70.4c-0.3-0.2-0.7-0.5-1-0.7
				c0.1-0.1,0.1-0.1,0.2-0.2C80.5,70.4,80.5,70.5,81.4,70.4z M40.6,62.7c0.2,0,0.4,0.1,0.6,0.1c0.4-0.5,0.7-0.9,1.1-1.4
				C41.6,61.3,41,61.8,40.6,62.7z M49.6,68.6c-0.2,1.5-0.1,1.6,0.4,1.8C49.9,69.8,50.3,69.1,49.6,68.6z"/>
			<path d="M82.8,63.2c0.7-1,1.4-1.9,2.1-2.9c0,0,0.1,0,0.1,0c-0.1,0.2-0.1,0.4-0.2,0.6c-0.3,0.5-0.7,1.1-1.1,1.6
				c-1,1.3-1.5,2.9-2,4.7c3.8-2,7.4-3.9,11.2-5.8c-0.8,1.6-1.5,3.1-2.2,4.5c-1.1,2.3-2.2,4.7-3.4,7c-0.6,1-1.4,1.9-2.1,2.9
				c-0.9,1.1-1.9,2-2.7,3.1c-0.4,0.6-0.6,1.3-0.8,2c-0.4,1.5-0.8,3.1-1.2,4.6c-0.1,0.3-0.3,0.6-0.5,0.7c-2.7,1.5-5.5,2.9-8.2,4.4
				c-0.8,0.4-1.4,1.2-2,1.9c-2.2,2.8-4.4,5.7-6.6,8.5c-0.1,0.1-0.1,0.2-0.2,0.3c-1.1-1.4-2.2-2.8-3.3-4.2c-1.5-2-3.1-3.9-4.7-5.9
				c-0.2-0.2-0.4-0.4-0.7-0.5c-2.8-1.5-5.6-3-8.4-4.5c-0.2-0.1-0.5-0.5-0.6-0.7c-0.5-2-1-4-1.5-6c-0.1-0.3-0.4-0.7-0.6-0.9
				c-1.3-1.5-2.7-3-4-4.6c-0.6-0.7-0.9-1.6-1.3-2.5c-1.5-3.2-3-6.4-4.5-9.7c0-0.1-0.1-0.2-0.2-0.4c1.6,0.9,3.2,1.7,4.7,2.5
				c0,0,0.1,0,0.1,0.1c1.3,0.4,1.9,1.1,1.8,2.6c-0.1,0.9,0.5,1.7,1.1,2.3c0.1,0.1,0.3,0.3,0.4,0.3c1,0,1.7,0.7,2.6,1
				c0.5,0.2,1.1,0.3,1.7,0.5c-0.1,0.1-0.2,0.2-0.3,0.3c0,0,0,0.1,0.1,0.1c1.4-0.1,2.9-0.2,4.3-0.3c0.4,0,0.5-0.3,0.5-0.7
				c0-1.6,0-3.1,0-4.7c-0.6,0-1.3,0-2.1,0c0.6,0.6,0.6,1.4,0.6,2.1c0,0.6,0,1.2,0,1.8c0,0.2-0.1,0.4-0.3,0.5c-2.6,1.1-6-0.5-6.7-3.2
				c-0.1-0.2-0.1-0.4-0.1-0.7c0.8,0.4,1.6,0.8,2.4,1.3c-0.5-1.4-0.9-2.7-1.3-4c-0.1,0-0.1,0-0.2-0.1c-0.3,0.8-0.7,1.6-0.9,2.1
				c-0.1-1.2,0.6-2.7,2-3.6c1.6-1,3.7-1,5.6,0.1c0-0.6,0.1-1.1,0-1.7c-0.1-0.5-0.5-0.2-0.8-0.3c-1.4-0.2-2.7-0.2-4,0.2
				c-0.8,0.2-1.5,0.6-2.3,1c-0.5-1.6-1.1-3.3-1.6-5c-0.3-0.8-0.3-1.7-1.5-2.1c0.7-0.2,0.7-0.7,0.7-1.2c0-1.3,0-2.5,0-3.7
				c1.7,0.8,3.6,1.8,5.5,2.6c0.4,0.2,0.8,0.2,1.2,0.3c3,0.3,5.9,0.5,8.9,0.8c2.2,0.2,4.4,0.5,6.6,0.7c0.3,0,0.5,0,0.8-0.1
				c-0.6-0.2-1.1-0.4-1.6-0.5c0.1-0.2,0.2-0.4,0.2-0.6c0-0.4,0.2-0.7,0.6-0.9c0.3-0.1,0.6-0.5,0.9-0.7c0,0.7,0,1.4,0,2.2
				c0,0.5,0.1,0.7,0.7,0.6c2.6-0.3,5.1-0.6,7.7-0.8c2.8-0.3,5.6-0.5,8.4-0.8c0.5-0.1,1.1-0.2,1.6-0.4c1.8-0.8,3.5-1.6,5.1-2.4
				c0,1.4,0,2.9,0,4.3c-0.1,0-0.1,0-0.2,0c-0.2-0.2-0.5-0.4-0.8-0.7c-1.1,1.5-2.2,3.1-3.3,4.6c0,0,0.1,0.1,0.1,0.1
				c1.3-1.2,2.7-2.5,4-3.8c0.2,0.1,0.4,0.2,0.6,0.3c-1.4,1.3-1.5,3.1-2.1,4.7c-0.4,1.1-0.8,1.7-2.1,1.3c0.6,0.9,0.6,1,0.1,1.8
				c-0.6,0.9-1.2,1.8-1.7,2.6c-0.1,0.2-0.3,0.3-0.5,0.5l0,0c-0.9-1.5-1.8-3.1-2.7-4.6c-0.1-0.2-0.4-0.3-0.6-0.3c-0.6,0-1.2,0-1.7,0
				c0.5,0.8,1.1,1.5,1.6,2.3c0.3,0.4,0.5,0.8,0.8,1.2c1.4,1.7,2,3.7,1.7,5.9c-0.1,0.5-0.2,1-0.3,1.5c0.7,0,1.6,0,2.6,0
				c-0.1-0.1-0.2-0.3-0.3-0.4c0,0,0,0,0,0c-0.1-0.3-0.3-0.5-0.3-0.8c0-1.2,0-2.4,0-3.6c0-0.1,0.1-0.3,0.1-0.4
				C81.8,64.8,82.3,64,82.8,63.2z M76.2,57.9c-0.3,0.5-0.1,0.9,0.3,1.1c0.4,0.2,0.8,0,1-0.4c0.2-0.4,0.1-0.8-0.3-1
				C76.9,57.3,76.4,57.4,76.2,57.9L76.2,57.9z M61.1,75.3c0.2,0.2,0.4,0.4,0.6,0.6c-1.7-1-3.6-1.3-5.5-1.6c-1.9-0.3-3.8-0.9-5.7-0.9
				c0.1,0.1,0.1,0.2,0.2,0.2c4,1,7.9,2.1,11.9,3.1c0.2,0.1,0.5,0,0.7-0.1c3-0.8,6-1.6,9-2.4c0.6-0.2,1.2-0.3,1.8-0.5
				c0-0.1,0-0.2-0.1-0.2c-2.9,0.5-5.7,1-8.5,1.7c-0.9-0.6-1.7-1.1-2.6-1.7c-0.1,0-0.2,0-0.3,0.1c-0.8,0.4-1.5,0.9-2.5,1.5
				C60.5,75.2,60.8,75.3,61.1,75.3z M75.9,70.5L75.9,70.5c-1.2-1.4-2.3-2.7-3.5-4c0.3-0.2,0.4-0.3,0.6-0.3c0.4-0.3,1-0.5,1.3-0.9
				c1.1-1.2,0.3-3.1-1.4-3.4c-1.3-0.2-2.7,0-3.9,0c0.1,0.5,0.3,1,0.3,1.4c0,2.1,0,4.2,0,6.3c0,0.4-0.2,0.8-0.3,1.2
				c0.6,0,1.3,0,1.9,0c-0.2-0.2-0.4-0.3-0.6-0.4c-0.1-0.1-0.3-0.3-0.3-0.5c0-1,0-2.1,0-3.1c0.6,1,0.2,2.1,0.4,3.2c0-0.1,0-0.2,0-0.2
				c0-2.2,0-4.4,0.1-6.6c0-0.2,0.1-0.5,0.3-0.5c0.9-0.3,1.9,0.1,2.3,0.8c0.4,0.8,0,1.8-0.9,2.3c-0.4,0.2-0.8,0.3-1.2,0.4
				c0.9,1.5,1.8,2.9,3,4.1c0.6,0.6,1.4,0.8,2.3,0.5c-0.1-0.1-0.1-0.1-0.2-0.1C76.1,70.6,76,70.5,75.9,70.5z M35.8,64.5
				c0,0-0.1,0-0.1,0.1c1.4,2.6,2.7,5.2,4.2,7.8c0.4,0.8,1,1.5,1.6,2.2c1.2,1.3,2.5,2.5,3.8,3.8c0.1,0.1,0.2,0.3,0.2,0.4
				c0.5,1.8,1,3.6,1.5,5.5c0.1,0.5,0.4,0.8,0.8,1c2.6,1.4,5.2,2.8,7.8,4.2c0.2,0.1,0.4,0.3,0.6,0.5c1.3,1.9,2.6,3.8,3.8,5.7
				c0.9,1.4,1.9,2.8,2.8,4.2c0.1-0.1,0.1-0.1,0.2-0.2c2.1-3.2,4.3-6.4,6.4-9.6c0.2-0.3,0.4-0.5,0.7-0.7c2.6-1.4,5.2-2.8,7.7-4.2
				c0.4-0.2,0.7-0.5,0.8-1c0.4-1.8,0.9-3.5,1.4-5.3c0.1-0.3,0.3-0.7,0.5-0.9c1.5-1.4,3-2.8,4.5-4.2c0.3-0.2,0.5-0.5,0.7-0.9
				c1-1.8,1.9-3.6,2.9-5.3c0.6-1.1,1.1-2.1,1.7-3.2c-1.7,2.2-3.3,4.4-5,6.6c-0.6,0.7-1.2,1.4-1.9,2c-1.5,1.3-3.1,2.5-4.6,3.8
				c-0.2,0.2-0.4,0.4-0.5,0.7c-0.6,1.9-1.1,3.8-1.7,5.7c-0.1,0.3-0.3,0.6-0.6,0.8c-2.3,1.3-4.7,2.6-7,3.9c-0.2,0.1-0.5,0.4-0.6,0.6
				c-1.2,2.3-2.5,4.5-3.7,6.8c-0.6,1.1-1.2,2.2-1.9,3.4c-0.2-0.3-0.3-0.5-0.4-0.7c-1.7-3.1-3.4-6.3-5.2-9.4
				c-0.2-0.3-0.4-0.5-0.7-0.7c-2.3-1.3-4.6-2.6-7-3.9c-0.4-0.2-0.6-0.4-0.7-0.9c-0.5-1.9-1-3.7-1.5-5.5c-0.1-0.4-0.3-0.7-0.6-1
				c-1.2-1-2.4-2-3.6-2.9c-0.6-0.5-1.4-1-1.9-1.6C39.4,69.6,37.6,67.1,35.8,64.5z M62.8,93.9c-0.1-0.3-0.2-0.5-0.3-0.7
				c-0.9-2.6-1.9-5.2-2.8-7.7c-0.1-0.3-0.4-0.6-0.7-0.8c-1-0.7-2.1-1.3-3.2-1.9c-0.5-0.3-0.7-0.6-0.9-1.2c-0.3-0.9-0.6-1.9-1-2.8
				c-0.2-0.5-0.5-0.5-1-0.1c0.3,1.2,0.7,2.5,1,3.8c0.1,0.2,0.3,0.5,0.5,0.6c1.2,0.8,2.3,1.5,3.5,2.3c0.2,0.1,0.4,0.3,0.5,0.5
				c1.3,2.9,2.5,5.8,3.8,8.8c0.2,0.4,0.3,0.7,0.5,1.2c0.1-0.2,0.1-0.3,0.2-0.3c1.4-3.2,2.8-6.4,4.2-9.6c0.1-0.1,0.1-0.3,0.3-0.4
				c1.2-0.8,2.5-1.6,3.7-2.4c0.2-0.1,0.4-0.4,0.5-0.6c0.4-1.4,0.8-2.7,1.2-4.3c-0.3,0-0.7,0-0.8,0.1c-0.3,0.4-0.6,0.9-0.8,1.4
				c-0.3,0.7-0.4,1.4-0.6,2.1c-0.1,0.3-0.3,0.6-0.6,0.8c-1.1,0.7-2.3,1.3-3.4,2c-0.3,0.2-0.6,0.6-0.7,0.9c-0.6,1.4-1.1,2.8-1.6,4.2
				C63.8,91.1,63.3,92.4,62.8,93.9z M59.7,69.4C59.7,69.4,59.8,69.4,59.7,69.4c0.2,0.1,0.3,0.1,0.3,0.2c1.6,1.1,3.2,1.4,4.9,0.3
				c0.1-0.1,0.3-0.1,0.3-0.1c0.4,0.4,0.6,0,0.8-0.2c1-0.9,1.5-2,1.5-3.3c0-0.4,0-0.8-0.6-0.8c-0.1,0-0.2-0.2-0.3-0.4
				c0.2,0,0.4-0.1,0.5-0.1c-0.2-2-2.4-3.4-5-3.1c-2.9,0.4-4.1,2.6-4.1,5c0,1.1,1.1,2.8,1.6,2.7C59.7,69.5,59.7,69.5,59.7,69.4z
				 M51.7,70.9c1.6,0,3.3,0,4.9,0c0.1,0,0.3-0.1,0.4-0.3c0.2-0.4,0.3-0.8,0.5-1.3c-1.1,0.7-2.2,0.7-3.4,0.6c-0.5,0-0.9,0-1.3,0
				c0-0.4,0-0.8,0-1.3c0.1,0,0.1,0,0.2,0c0.1,0.3,0.1,0.6,0.2,0.9c0.1,0,0.1,0,0.2,0c0-2,0-4.1,0-6.1c0-0.5,0.2-1,0.3-1.6
				c-0.6,0-1.3,0-1.9,0c0.1,0.5,0.3,1.1,0.3,1.6c0,2.1,0,4.2,0,6.3C51.9,70,51.8,70.4,51.7,70.9z M63.9,61c1.3,0,2.3-0.9,2.3-2.1
				c0-1.4-1-2.4-2.4-2.4c-1.4,0-2.4,1.1-2.4,2.4C61.4,60,62.5,60.9,63.9,61z M56,58.4c-0.8,0-1.4,0-2.1,0c-0.4,0-0.6-0.2-0.4-0.6
				c0.2-0.3,0.1-0.3-0.1-0.5c-0.1-0.2,0.1-0.5,0.1-0.7c-0.3,0-0.6,0-0.7,0c0,1.4,0,2.8,0,4.3c0.3,0,0.5,0.1,0.7,0.1
				c0-0.7,0-1.4,0-2.1c0.7,0,1.4,0,2,0c0.4,0,0.5,0.2,0.5,0.5c0,0.5,0,1.1,0,1.6c0.2,0,0.4,0,0.5,0c0-1.4,0-2.9,0-4.3
				c-0.2,0-0.4,0-0.6,0C55.9,57.2,55.9,57.8,56,58.4z M70.6,61.2c0.1,0,0.2-0.1,0.3-0.1c0-1.5,0-3,0-4.4c-0.1,0-0.4,0-0.5,0
				c0,1.1,0,2.2,0,3.4c-0.8-1.1-1.5-2-2.2-2.9c-0.3-0.4-0.6-0.7-1.1-0.5c0.1,0.3,0.2,0.6,0.2,0.9c0,1,0,1.9,0,2.9
				c0,0.5,0.2,0.5,0.5,0.5c0-1.1,0-2.2,0-3.6C68.7,58.7,69.7,59.9,70.6,61.2z M58.6,58.8c0.7,0.8,1.1,1.8,2.4,2.3
				c-0.6-0.8-1.2-1.5-1.7-2.2c0.2-0.1,0.3-0.2,0.4-0.2c0.5-0.3,0.7-0.7,0.6-1.3c-0.1-0.6-0.6-0.7-1.1-0.7c-0.5,0-1,0-1.5,0
				c0,0.4,0.1,0.7,0.1,1c0,0.9,0,1.9,0,2.8c0,0.4,0,0.4,0.6,0.3c0-1.2,0-2.5,0-3.7c0.8-0.1,1.2,0,1.3,0.5
				C59.9,58,59.6,58.3,58.6,58.8z M74.1,56.6c-0.7,0-1.4,0-2,0c0,1.5,0,2.9,0,4.3c0.7,0,1.6,0,2.4,0c0.1-0.2,0.1-0.4,0.2-0.5
				c-0.6,0-1.1,0.1-1.6,0.1c-0.1,0-0.4-0.2-0.4-0.3c0-0.5,0-0.9,0-1.4c0.5,0,0.8,0,1.1,0c0-0.1,0-0.3,0-0.3c-0.3-0.1-0.7-0.1-1-0.2
				c-0.3-1.4-0.2-1.4,1.4-1.3C74.1,56.9,74.1,56.7,74.1,56.6z M43.5,57.2C43.5,57.1,43.6,57.1,43.5,57.2c-1-1.5-2-3-3.1-4.5
				c-0.3,0.3-0.6,0.6-0.9,0.9C40.9,54.8,42.2,56,43.5,57.2z M50.8,57.1c0.4,0,0.7,0,1.2,0c0-0.1,0.1-0.3,0.1-0.5c-1,0-1.8,0-2.7,0
				c-0.2,0-0.4,0.2-0.5,0.3c0,0.1,0.1,0.1,0.1,0.2c0.1,0,0.3,0,0.4,0c0.6-0.1,0.9,0.1,0.9,0.8c0,1,0,2,0,3.1c0.2,0,0.5,0,0.6,0
				C50.8,59.7,50.8,58.4,50.8,57.1z M61.9,81.5c0.1,1.3,0.3,2.6,0.4,4c0.1-0.3,0.1-0.5,0.2-0.7c0,0,0.1,0,0.1,0c0,0.5,0.1,1,0.1,1.5
				c0.1-1.3,0.1-2.5,0.1-3.8C62.9,81.9,62.6,81.6,61.9,81.5z M64.3,84.5c0,0,0.1,0,0.1,0c0.5-1.1,1-2.2,1.5-3.4
				c-0.4-0.1-0.7-0.2-1.1-0.3C64.6,82.1,64.4,83.3,64.3,84.5z M59.8,81.2c0.5,1.2,1,2.3,1.5,3.4c0,0,0.1,0,0.1,0
				c-0.2-1.2-0.4-2.4-0.5-3.6C60.5,81,60.2,81.1,59.8,81.2z"/>
			<path d="M65.2,42.5c-0.1,0.4-0.2,0.7-0.2,1.1c0,1.8,0,3.6,0.1,5.4c0.3-0.7,0.9-0.3,1.3-0.5c0.1,0.3,0.2,0.5,0.4,0.8
				c0,0,0.1,0,0.1,0c0-1.6,0-3.3,0-4.9c0-0.7,0.2-1.2,0.7-1.7c-0.8,1-0.4,2.2-0.4,3.3c0,0.6,0.2,1.2,0.2,1.7
				c0.6,0.1,1.1,0.3,1.8,0.5c0.7-3.5,1.5-7.2,2.3-10.9c0,0,0,0,0,0c-0.5,3.1-1.1,6.2-1.6,9.3c0.1,0,0.1,0,0.2,0
				c0.7-3.1,1.3-6.2,2-9.3c0.1,0.1,0.2,0.2,0.2,0.3c0.9,1.9,1.9,3.8,2.8,5.6c0.1,0.2,0,0.5-0.1,0.7c-0.6,0.8-1.3,1.6-2,2.3
				c-0.7,0.7-0.9,1.6-1.1,2.5c0.1-0.3,0.3-0.7,0.5-1c0.1,0.2,0.3,0.4,0.3,0.4c0.7-0.6,1.3-1.2,2-1.9c0,0,0.1,0,0.1,0.1
				c-0.5,1.2-0.9,2.4-1.4,3.7c0,0,0.1,0,0.1,0c0.2-0.4,0.4-0.8,0.6-1.2c0.1,0,0.1,0,0.2,0c0,0.2,0,0.3,0,0.4
				c-0.1,0.2-0.2,0.5-0.2,0.7c-0.2,1.4-1.1,1.9-2.4,1.9c-1.6,0-3.2,0.2-4.8,0.4c-0.2,0-0.4-0.1-0.6-0.2c1.5-0.1,3-0.2,4.6-0.3
				c-0.6-0.7-1-1.3-1.5-1.8c-0.1-0.1-0.3-0.1-0.4-0.1c-1.2,0.3-2.3,0.6-3.6,1c0.1,0.3,0.2,0.4,0.3,0.6c-0.5-0.6-0.9-1.2-1.3-1.9
				c-0.1-0.2,0-0.5,0-0.8c0-1.7,0-3.3,0-5c0-0.5,0.1-1.1,0.3-1.5c0.9-2.1,1.8-4.1,2.8-6.2c0.1-0.3,0.2-0.5-0.1-0.8
				c-0.3-0.3-0.6-0.7-1-1c-1.2,1.3-2.3,2.5-3.5,3.8c-1.2-1.3-2.3-2.5-3.5-3.9c-0.4,0.4-0.8,0.9-1.2,1.3c-0.1,0.1,0,0.4,0,0.5
				c0.9,2,1.8,3.9,2.8,5.9c0.4,0.8,0.6,1.6,0.6,2.5c0,0.3,0,0.6,0,0.8c0.3-0.3,0.6-0.6,0.9-0.9c0.1,0,0.1,0.1,0.2,0.1
				c0-0.4,0.1-0.9,0.1-1.3c0.1,0,0.1,0,0.2,0c0,1.1-0.1,2.1,0,3.2c0.1,0.9-0.2,1.7-0.8,2.4c-0.7,0.8-1.3,1.7-2,2.6
				c0.1-0.3,0.1-0.5-0.3-0.6c-1.1-0.3-2.1-0.6-3.2-0.9c-0.1,0-0.4,0-0.4,0.1c-0.4,0.6-0.8,1.2-1.2,1.8c0.5,0.1,0.8,0.1,1.1,0.2
				c1.1,0.1,2.2,0.1,3.3,0.2c-0.2,0.1-0.4,0.2-0.5,0.2c-2.1-0.2-4.1-0.4-6.2-0.6c-0.2,0-0.4-0.1-0.4-0.2c-0.4-1.1-0.8-2.2-1.2-3.3
				c0-0.1,0-0.2,0.1-0.4c0.2,0.5,0.5,1,0.7,1.5c0,0,0.1,0,0.1,0c-0.4-1-0.8-2-1.2-3c0.9,0.4,1.3,1.5,2.5,1.6
				c0.3,0.6,0.6,1.4,0.8,2.1c-0.2-2.7-2.2-4.4-3.9-6.3c1.1-2.1,2.2-4.2,3.3-6.4c0.7,3.4,1.3,6.6,1.9,9.8c0,0,0.1,0,0.1,0
				c-0.5-3.4-1-6.8-1.5-10.1c0,0,0.1,0,0.1,0c0.6,3.6,1.3,7.1,1.9,10.6c0.5-0.4,0.9-0.8,1.5-1.2c0.1-0.1,0.3,0.1,0.6,0.2
				c0-0.6,0-1.3,0-2c0,0,0.1,0,0.1,0c0,1.7,0,3.4,0,5.1c0.1,0,0.1,0,0.2,0c0-1.8,0-3.5,0-5.3c0-0.4-0.2-0.8-0.4-1.1
				c0.9,1,0.6,2.2,0.7,3.2c0.1-0.2,0.2-0.6,0.4-0.8c0.3-0.2,0.7,0,1.2,0c0.1-1.3,0.3-2.6-0.5-3.9c-0.4-0.7-0.7-1.5-1-2.2
				c0.5,1,1.1,2,1.6,3.1c0.1,0.3,0.2,0.6,0.2,1c0,1.5,0,3,0,4.4c0.1,0,0.2,0,0.2,0c0-1.6,0-3.1,0-4.7c0.1,0,0.1,0,0.2,0
				c0.1,0.1,0.1,0.2,0.2,0.3c0-0.4,0-0.7-0.2-1c-1.1-2.2-2.2-4.4-3.2-6.6c-0.2-0.4-0.4-0.6-0.8-0.6c0-0.1,0-0.1,0-0.2
				c0.7-0.8,1.5-1.7,2.2-2.5c1.2,1.3,2.4,2.6,3.7,3.9c1.2-1.3,2.3-2.5,3.5-3.9c0.8,0.9,1.5,1.8,2.3,2.7c-0.1,0.1-0.3,0.2-0.4,0.4
				c-1.1,2.2-2.2,4.3-3.2,6.5c-0.2,0.5-0.3,1-0.3,1.5c0,2,0,4.1,0,6.1c0.1,0,0.2,0,0.2,0c0-2.1,0-4.1,0-6.2
				C64.9,43.3,65.1,42.9,65.2,42.5z M75,43.5c-1-1.9-1.9-3.8-2.9-5.8c-0.8,3.8-1.5,7.4-2.2,11c0,0,0.1,0,0.1,0
				c0.2-0.8,0.4-1.6,0.6-2.5c0.4,0.3,0.8,0.6,1.1,0.9C72.8,45.9,73.9,44.7,75,43.5z M55.4,49C55.4,48.9,55.5,48.9,55.4,49
				c-0.6-3.7-1.3-7.3-2-11.1c-0.2,0.3-0.3,0.5-0.4,0.7c-0.6,1.2-1.3,2.5-1.9,3.7c-0.6,1.2-0.6,1.2,0.3,2.3c0.8,0.9,1.7,1.9,2.6,2.9
				c0.2-0.3,0.5-0.7,0.8-1C55,47.2,55.2,48.1,55.4,49z M72.6,49.6c0.4-0.4,0.4-0.9,1-1.2c0.3-0.2,0.4-0.9,0.6-1.5
				C73,47.5,73,48.6,72.6,49.6z M51.4,46.8c0.6,1.1,1.2,2.1,1.9,3.2C52.7,48.9,52.6,47.6,51.4,46.8z"/>
			<path fill="#FFFFFF" d="M58.7,39.4c0.3,0.7,0.6,1.5,1,2.2c0.8,1.3,0.6,2.6,0.5,3.9c-0.4,0-0.9-0.1-1.2,0
				c-0.3,0.1-0.3,0.6-0.4,0.8c-0.1-1,0.2-2.2-0.7-3.2c-1.1-1.9-2.1-3.9-3.2-5.8c0.1-0.1,0.2-0.2,0.4-0.4c0.6-0.7,1.2-1.3,1.8-2
				c0,0.1,0,0.1,0.1,0.2c0,0.1,0,0.1,0,0.2c0,0,0,0,0,0c0,0.1-0.1,0.3-0.1,0.4c0.5,1.1,1,2.1,1.5,3.2c0.1,0.1,0.2,0.2,0.3,0.3
				C58.7,39.2,58.7,39.3,58.7,39.4z"/>
			<path fill="#FFFFFF" d="M56.9,34.9c-0.6,0.7-1.2,1.3-1.8,2c-0.1,0.1-0.2,0.2-0.4,0.4c-0.3-0.8-0.2-1.4,0.4-2.1
				c0.9-1.1,1.7-2.2,2.5-3.3c0.2-0.2,0.4-0.3,0.6-0.5c1.4-1.8,2.7-3.6,4.1-5.4c0,0.7,0.1,1.4,0.1,2.1c-1.8,2.2-3.6,4.4-5.4,6.6
				C56.9,34.7,56.9,34.8,56.9,34.9z"/>
			<path fill="#FFFFFF" d="M64.1,29.2c-0.1-0.2-0.3-0.4-0.4-0.6c-0.8-0.7-0.6-1.6-0.6-2.5c0.2,0.1,0.3,0.1,0.5,0.2
				c0.7,1,1.5,2,2.2,3c0,0.1,0.1,0.3,0.1,0.4c1.1,1.5,2.2,3,3.3,4.5c0.1,0.1,0.2,0.2,0.3,0.2c0.4,0.5,0.7,0.9,1.1,1.4
				c0.1,0.4,0.1,0.9,0.2,1.3c-0.1,0-0.1,0-0.2,0.1c-0.9-1.1-1.7-2.2-2.6-3.2c-0.3-0.4-0.7-0.8-1.1-1.2c0,0,0,0,0,0
				C66,31.5,65.1,30.3,64.1,29.2z"/>
			<path d="M60.9,30.8c0.6-0.8,1.2-1.6,1.9-2.4c0.7,0.9,1.4,1.7,2.1,2.5c-0.3,0.5-0.5,1-0.8,1.5c-0.5,0.2-0.7,0.5-0.8,1
				c0.1,0,0.2,0.1,0.2,0.1c0.2-0.4,0.4-0.8,0.6-1.1c0.3-0.2,0.5-0.5,0.8-0.7c0.2-0.2,0.3-0.4,0.6-0.5c-0.1,0.2-0.2,0.4-0.3,0.6
				c-0.5,0.7-1.1,1.4-1.7,2.1c-0.3,0.4-0.5,1-0.7,1.5c0.2-0.7-0.1-1.2-0.5-1.7c-0.6-0.6-1.1-1.2-1.6-1.8c-0.2-0.2-0.3-0.5-0.5-0.7
				C60.4,31.1,60.7,30.9,60.9,30.8c0,0.1,0,0.2,0,0.2c0.5,0.6,1.1,1.3,1.7,1.9c0.1,0.1,0.4,0.1,0.4,0c0.5-0.6,1-1.2,1.5-1.9
				c-1.1-0.3-1.2,0.7-1.8,1c-0.2-0.3-0.5-0.5-0.7-0.8c0.4-0.1,0.9-0.2,1.4-0.3c-0.2-0.3-0.5-0.6-0.8-1c-0.3,0.5-0.5,0.9-0.7,1.2
				c0-0.3,0.1-0.6,0.1-1C61.7,30.4,61.3,30.6,60.9,30.8z"/>
			<path fill="#FFFFFF" d="M65.5,51.3c-0.1-0.2-0.2-0.4-0.3-0.6c1.2-0.3,2.4-0.7,3.6-1c0.1,0,0.3,0,0.4,0.1c0.5,0.6,0.9,1.1,1.5,1.8
				C69,51.8,67.5,51.9,66,52C65.8,51.8,65.7,51.5,65.5,51.3z"/>
			<path fill="#FFFFFF" d="M59.4,51.9c-1.1-0.1-2.2-0.1-3.3-0.2c-0.3,0-0.7-0.1-1.1-0.2c0.4-0.6,0.8-1.2,1.2-1.8
				c0.1-0.1,0.3-0.1,0.4-0.1c1.1,0.3,2.1,0.6,3.2,0.9c0.4,0.1,0.4,0.3,0.3,0.6C59.8,51.4,59.6,51.7,59.4,51.9z"/>
			<path fill="#FFFFFF" d="M65.2,42.5c-0.1,0.4-0.3,0.8-0.3,1.1c0,2.1,0,4.1,0,6.2c-0.1,0-0.2,0-0.2,0c0-2,0-4.1,0-6.1
				c0-0.5,0.1-1.1,0.3-1.5c1-2.2,2.1-4.3,3.2-6.5c0.1-0.2,0.3-0.2,0.4-0.4c-0.5,1-0.9,2.1-1.4,3.1C66.6,39.8,65.9,41.1,65.2,42.5z"
				/>
			<path fill="#FFFFFF" d="M60.9,30.8c0.4-0.2,0.8-0.4,1.3-0.7c-0.1,0.4-0.1,0.7-0.1,1c0,0,0,0,0,0c0.2,0.3,0.5,0.5,0.7,0.8
				c0.6-0.3,0.7-1.3,1.8-1c-0.5,0.7-1,1.3-1.5,1.9c-0.1,0.1-0.4,0.1-0.4,0c-0.6-0.6-1.1-1.2-1.7-1.9C60.8,31,60.9,30.9,60.9,30.8
				C60.9,30.8,60.9,30.8,60.9,30.8z"/>
			<path fill="#FFFFFF" d="M65.8,29.3c-0.7-1-1.5-2-2.2-3c-0.2-0.3-0.4-0.6-0.5-0.9c0,0,0.1,0,0.1-0.1c0.1,0.1,0.3,0.1,0.4,0.2
				c1.8,2.5,3.6,5,5.4,7.4c0.2,0.2,0.3,0.5,0.5,0.7c0,0.1-0.1,0.1-0.1,0.2c-0.1-0.2-0.3-0.4-0.4-0.5C67.8,31.9,66.8,30.6,65.8,29.3z
				"/>
			<path fill="#FFFFFF" d="M62.3,25.9c-1.4,1.8-2.7,3.6-4.1,5.4c-0.2,0.2-0.4,0.4-0.6,0.5c0.2-0.3,0.3-0.7,0.5-1
				c1.3-1.8,2.7-3.7,4-5.5c0.1,0,0.1-0.1,0.3-0.2C62.4,25.5,62.3,25.7,62.3,25.9z"/>
			<path d="M66.9,32.7c0.4,0.4,0.8,0.8,1.1,1.2c0.9,1.1,1.8,2.1,2.6,3.2c0.1,0,0.1,0,0.2-0.1c-0.1-0.4-0.1-0.9-0.2-1.3
				c0,0,0.1,0,0.1,0c0.3,0.1,0.4,0.3,0.3,0.6c-0.2,0.6-0.4,1.2-0.7,1.7c-0.6,1.1-1.3,2.1-1.9,3.2c0,0-0.1-0.1-0.1-0.1
				c0.6-1,1.2-2,1.8-2.9c0.5-0.9,0.5-0.9-0.1-1.7c-0.9-1.1-1.9-2.3-2.8-3.4C67.1,33,67,32.8,66.9,32.7z"/>
			<path d="M82.8,63.2c-0.5,0.8-1.1,1.6-1.6,2.4c-0.2,0.2-0.3,0.4-0.5,0.6c-0.1,0-0.1-0.1-0.2-0.1c0.7-1.1,1.4-2.2,2.1-3.4
				c0,0,0.1,0,0.1,0C82.8,62.9,82.8,63,82.8,63.2z"/>
			<path d="M40.6,62.7c0.4-0.9,1-1.4,1.7-1.3c-0.4,0.4-0.7,0.9-1.1,1.4C41,62.8,40.8,62.8,40.6,62.7z"/>
			<path d="M49.6,68.6c0.7,0.5,0.3,1.2,0.4,1.8C49.5,70.2,49.4,70.1,49.6,68.6z"/>
			<path d="M64.1,29.2c1,1.2,1.9,2.4,2.9,3.6c-0.8-0.9-1.5-1.7-2.3-2.6C64.5,29.8,64.3,29.5,64.1,29.2z"/>
			<path fill="#FFFFFF" d="M70.8,35.8c0,0-0.1,0-0.1,0c-0.4-0.5-0.7-0.9-1.1-1.4c-0.1-0.2-0.2-0.4-0.4-0.6c0-0.1,0.1-0.1,0.1-0.2
				C69.9,34.4,70.3,35.1,70.8,35.8z"/>
			<path d="M63.5,25.5c-0.1-0.1-0.3-0.1-0.4-0.2c0,0-0.1,0-0.1,0.1c0.2,0.3,0.4,0.6,0.5,0.9c-0.1-0.1-0.3-0.1-0.5-0.2
				c0,0.9-0.2,1.8,0.6,2.5C63.4,28.3,63,28,63,27.7c-0.1-0.9,0-1.9,0-3C63.2,25,63.4,25.3,63.5,25.5z"/>
			<path d="M80.3,64.8c0,0.3,0.1,0.6,0.1,0.9c-0.1,0-0.1,0-0.2,0c-0.1-0.2-0.3-0.4-0.4-0.6c-0.1-0.2-0.1-0.4-0.1-0.5
				C80,64.7,80.2,64.8,80.3,64.8C80.4,64.8,80.3,64.8,80.3,64.8z"/>
			<path d="M62.3,25.9c0-0.2,0.1-0.4,0.2-0.7c-0.2,0.1-0.2,0.2-0.3,0.2c0.1-0.2,0.2-0.4,0.3-0.7c0,0,0.1,0,0.1,0c0,1,0,2,0,3
				c0,0.1-0.1,0.1-0.2,0.2C62.4,27.3,62.3,26.6,62.3,25.9z"/>
			<path fill="#FFFFFF" d="M64,32.3c-0.2,0.4-0.4,0.8-0.6,1.1c-0.1,0-0.2-0.1-0.2-0.1C63.3,32.8,63.5,32.5,64,32.3
				C64,32.3,64,32.3,64,32.3z"/>
			<path d="M81.4,70.4C81.4,70.4,81.4,70.4,81.4,70.4c-0.9,0.1-0.9,0-0.8-0.9c-0.1,0.1-0.1,0.1-0.2,0.2C80.7,70,81,70.2,81.4,70.4z"
				/>
			<path fill="#FFFFFF" d="M35.8,64.5c1.8,2.5,3.6,5.1,5.5,7.5c0.5,0.6,1.2,1.1,1.9,1.6c1.2,1,2.4,1.9,3.6,2.9
				c0.3,0.2,0.5,0.6,0.6,1c0.5,1.8,1,3.7,1.5,5.5c0.1,0.4,0.3,0.7,0.7,0.9c2.3,1.3,4.7,2.6,7,3.9c0.3,0.2,0.5,0.4,0.7,0.7
				c1.7,3.1,3.5,6.3,5.2,9.4c0.1,0.2,0.2,0.4,0.4,0.7c0.7-1.2,1.3-2.3,1.9-3.4c1.2-2.3,2.5-4.5,3.7-6.8c0.1-0.2,0.4-0.5,0.6-0.6
				c2.3-1.3,4.7-2.6,7-3.9c0.3-0.2,0.5-0.5,0.6-0.8c0.6-1.9,1.1-3.8,1.7-5.7c0.1-0.2,0.3-0.5,0.5-0.7c1.5-1.3,3.1-2.5,4.6-3.8
				c0.7-0.6,1.3-1.3,1.9-2c1.7-2.2,3.3-4.4,5-6.6c-0.6,1.1-1.1,2.1-1.7,3.2c-0.9,1.8-1.9,3.6-2.9,5.3c-0.2,0.3-0.4,0.6-0.7,0.9
				c-1.5,1.4-3,2.8-4.5,4.2c-0.2,0.2-0.4,0.6-0.5,0.9c-0.5,1.8-1,3.5-1.4,5.3c-0.1,0.5-0.4,0.8-0.8,1c-2.6,1.4-5.2,2.8-7.7,4.2
				c-0.3,0.2-0.5,0.4-0.7,0.7c-2.2,3.2-4.3,6.4-6.4,9.6c0,0-0.1,0.1-0.2,0.2c-1-1.4-1.9-2.8-2.8-4.2c-1.3-1.9-2.5-3.8-3.8-5.7
				c-0.1-0.2-0.4-0.4-0.6-0.5c-2.6-1.4-5.2-2.8-7.8-4.2c-0.4-0.2-0.7-0.5-0.8-1c-0.5-1.8-1-3.6-1.5-5.5c0-0.2-0.1-0.3-0.2-0.4
				c-1.3-1.3-2.5-2.5-3.8-3.8c-0.6-0.7-1.2-1.4-1.6-2.2c-1.4-2.6-2.8-5.2-4.2-7.8C35.7,64.6,35.7,64.6,35.8,64.5z"/>
			<path fill="#FFFFFF" d="M62.8,93.9c0.6-1.5,1.1-2.8,1.5-4.1c0.5-1.4,1-2.8,1.6-4.2c0.1-0.3,0.4-0.7,0.7-0.9
				c1.1-0.7,2.3-1.3,3.4-2c0.3-0.2,0.5-0.5,0.6-0.8c0.2-0.7,0.4-1.4,0.6-2.1c0.2-0.5,0.5-1,0.8-1.4c0.1-0.1,0.4-0.1,0.8-0.1
				c-0.4,1.5-0.8,2.9-1.2,4.3c-0.1,0.2-0.3,0.5-0.5,0.6c-1.2,0.8-2.5,1.6-3.7,2.4c-0.1,0.1-0.2,0.2-0.3,0.4
				c-1.4,3.2-2.8,6.4-4.2,9.6c0,0.1-0.1,0.1-0.2,0.3c-0.2-0.4-0.3-0.8-0.5-1.2c-1.3-2.9-2.5-5.8-3.8-8.8c-0.1-0.2-0.3-0.4-0.5-0.5
				c-1.2-0.8-2.4-1.5-3.5-2.3c-0.2-0.1-0.4-0.4-0.5-0.6c-0.4-1.3-0.7-2.6-1-3.8c0.5-0.4,0.8-0.3,1,0.1c0.4,0.9,0.7,1.8,1,2.8
				c0.2,0.5,0.4,0.9,0.9,1.2c1.1,0.6,2.2,1.2,3.2,1.9c0.3,0.2,0.6,0.5,0.7,0.8c1,2.6,1.9,5.2,2.8,7.7C62.6,93.4,62.7,93.5,62.8,93.9
				z"/>
			<path fill="#FFFFFF" d="M75.9,70.5c0.1,0,0.2,0.1,0.3,0.1c0.1,0,0.1,0.1,0.2,0.1c-0.9,0.3-1.7,0.2-2.3-0.5
				c-1.2-1.2-2.2-2.6-3-4.1c0.4-0.2,0.8-0.3,1.2-0.4c0.9-0.5,1.3-1.4,0.9-2.3c-0.4-0.8-1.4-1.2-2.3-0.8c-0.1,0.1-0.3,0.4-0.3,0.5
				c0,2.2-0.1,4.4-0.1,6.6c0,0.1,0,0.2,0,0.2c-0.2-1.1,0.2-2.2-0.4-3.2c0,1,0,2.1,0,3.1c0,0.2,0.2,0.3,0.3,0.5
				c0.2,0.1,0.4,0.2,0.6,0.4c-0.7,0-1.3,0-1.9,0c0.1-0.4,0.2-0.8,0.3-1.2c0-2.1,0-4.2,0-6.3c0-0.5-0.2-1-0.3-1.4
				c1.2,0,2.6-0.1,3.9,0c1.7,0.2,2.5,2.2,1.4,3.4c-0.3,0.4-0.9,0.6-1.3,0.9c-0.1,0.1-0.3,0.2-0.6,0.3C73.6,67.8,74.7,69.1,75.9,70.5
				c-0.4-0.3-0.8-0.6-1.2-0.8C75.1,70.4,75.4,70.6,75.9,70.5z"/>
			<path fill="#FFFFFF" d="M59.7,69.4c0,0.1,0,0.2,0,0.2c-0.5,0.1-1.6-1.6-1.6-2.7c-0.1-2.5,1.2-4.7,4.1-5c2.6-0.3,4.8,1.1,5,3.1
				c-0.2,0-0.3,0.1-0.5,0.1c0.1,0.1,0.2,0.4,0.3,0.4c0.6,0,0.6,0.4,0.6,0.8c0.1,1.3-0.4,2.4-1.5,3.3c-0.2,0.2-0.4,0.6-0.8,0.2
				c0,0-0.2,0.1-0.3,0.1c-1.7,1.1-3.3,0.8-4.9-0.3C60,69.5,59.9,69.4,59.7,69.4C59.8,69.4,59.7,69.4,59.7,69.4z M66.2,66.4
				c0-2-1.5-3.6-3.4-3.6c-1.9,0-3.4,1.6-3.5,3.6c0,2.1,1.5,3.7,3.6,3.7C64.5,70,66.3,68.3,66.2,66.4z"/>
			<path fill="#FFFFFF" d="M51.7,70.9c0.1-0.5,0.2-0.8,0.3-1.2c0-2.1,0-4.2,0-6.3c0-0.5-0.2-1-0.3-1.6c0.6,0,1.3,0,1.9,0
				c-0.1,0.5-0.3,1.1-0.3,1.6c0,2,0,4.1,0,6.1c-0.1,0-0.1,0-0.2,0c-0.1-0.3-0.1-0.6-0.2-0.9c-0.1,0-0.1,0-0.2,0c0,0.5,0,0.9,0,1.3
				c0.4,0,0.9,0,1.3,0c1.2,0.1,2.3,0.1,3.4-0.6c-0.2,0.5-0.3,0.9-0.5,1.3c-0.1,0.1-0.2,0.3-0.4,0.3C54.9,70.9,53.3,70.9,51.7,70.9z"
				/>
			<path fill="#FFFFFF" d="M65.5,75.2c2.8-0.6,5.7-1.2,8.5-1.7c0,0.1,0,0.2,0.1,0.2c-0.6,0.2-1.2,0.3-1.8,0.5c-3,0.8-6,1.6-9,2.4
				c-0.2,0.1-0.5,0.1-0.7,0.1c-4-1-7.9-2.1-11.9-3.1c-0.1,0-0.1-0.1-0.2-0.2c1.9,0.1,3.8,0.6,5.7,0.9c1.9,0.3,3.8,0.6,5.5,1.6
				c0,0,0,0,0,0c0.9,0.7,1.1,0.8,1.9,0.3C64.2,75.8,64.9,75.5,65.5,75.2z"/>
			<path fill="#FFFFFF" d="M65.5,75.2c-0.7,0.3-1.3,0.7-2,1c-1.2,0.4-1.3,0.3-1.6-1.4c-0.1,0.1-0.2,0.2-0.3,0.3
				c-0.2,0.1-0.4,0.2-0.6,0.3c-0.3-0.1-0.6-0.2-1-0.3c0.9-0.6,1.7-1,2.5-1.5c0.1-0.1,0.3-0.1,0.3-0.1C63.8,74,64.6,74.6,65.5,75.2z"
				/>
			<path fill="#FFFFFF" d="M63.9,61c-1.4-0.1-2.5-0.9-2.5-2.1c0-1.3,1.1-2.4,2.4-2.4c1.4,0,2.4,1,2.4,2.4C66.2,60,65.2,60.9,63.9,61
				z M62,58.8c0,1.3,0.6,1.7,1.8,1.8c1.1,0.1,1.8-0.7,1.9-1.8c0-1-0.8-1.9-1.8-1.9C62.8,56.9,62,57.7,62,58.8z"/>
			<path fill="#FFFFFF" d="M56,58.4c0-0.6-0.1-1.2-0.1-1.8c0.2,0,0.5,0,0.6,0c0,1.4,0,2.9,0,4.3c-0.1,0-0.3,0-0.5,0
				c0-0.5,0-1.1,0-1.6c0-0.3-0.1-0.5-0.5-0.5c-0.7,0-1.3,0-2,0c0,0.7,0,1.4,0,2.1c-0.2,0-0.4,0-0.7-0.1c0-1.4,0-2.8,0-4.3
				c0.2,0,0.5,0,0.7,0c0,0.2-0.2,0.6-0.1,0.7c0.1,0.2,0.2,0.3,0.1,0.5c-0.3,0.4,0,0.5,0.4,0.6C54.5,58.4,55.2,58.4,56,58.4z"/>
			<path fill="#FFFFFF" d="M70.6,61.2c-0.9-1.2-1.9-2.4-2.9-3.8c0,1.3,0,2.4,0,3.6c-0.3,0-0.5,0-0.5-0.5c0.1-1,0-1.9,0-2.9
				c0-0.3-0.1-0.6-0.2-0.9c0.5-0.2,0.8,0.1,1.1,0.5c0.7,1,1.4,1.9,2.2,2.9c0-1.2,0-2.3,0-3.4c0.1,0,0.4,0,0.5,0c0,1.5,0,3,0,4.4
				C70.8,61.1,70.7,61.1,70.6,61.2z"/>
			<path fill="#FFFFFF" d="M58.6,58.8c1-0.4,1.3-0.8,1.1-1.3c-0.1-0.4-0.6-0.6-1.3-0.5c0,1.2,0,2.5,0,3.7c-0.5,0.1-0.6,0.1-0.6-0.3
				c0-0.9,0-1.9,0-2.8c0-0.3-0.1-0.6-0.1-1c0.5,0,1,0,1.5,0c0.5,0,1,0.2,1.1,0.7c0.1,0.6-0.1,1-0.6,1.3c-0.1,0.1-0.2,0.1-0.4,0.2
				c0.5,0.7,1.1,1.4,1.7,2.2C59.8,60.6,59.4,59.6,58.6,58.8z"/>
			<path fill="#FFFFFF" d="M74.1,56.6c0,0.2,0,0.3,0,0.4c-1.6-0.1-1.7-0.1-1.4,1.3c0.3,0,0.7,0.1,1,0.2c0,0,0,0.2,0,0.3
				c-0.3,0-0.6,0-1.1,0c0,0.4,0,0.9,0,1.4c0,0.1,0.2,0.3,0.4,0.3c0.5,0,1,0,1.6-0.1c0,0.2-0.1,0.3-0.2,0.5c-0.8,0-1.6,0-2.4,0
				c0-1.4,0-2.9,0-4.3C72.7,56.6,73.4,56.6,74.1,56.6z"/>
			<path fill="#FFFFFF" d="M43.5,57.2c-1.3-1.2-2.6-2.4-3.9-3.6c0.3-0.3,0.5-0.6,0.9-0.9C41.5,54.2,42.5,55.6,43.5,57.2
				C43.6,57.1,43.5,57.1,43.5,57.2z"/>
			<path fill="#FFFFFF" d="M50.8,57.1c0,1.3,0,2.6,0,3.9c-0.1,0-0.4,0-0.6,0c0-1,0-2.1,0-3.1c0-0.7-0.2-0.9-0.9-0.8
				c-0.1,0-0.3,0-0.4,0c0-0.1-0.1-0.1-0.1-0.2c0.2-0.1,0.3-0.3,0.5-0.3c0.9,0,1.8,0,2.7,0c0,0.2-0.1,0.4-0.1,0.5
				C51.6,57.1,51.2,57.1,50.8,57.1z"/>
			<path fill="#FFFFFF" d="M61.9,81.5c0.7,0.1,0.9,0.4,0.9,1c0,1.3,0,2.5-0.1,3.8c0-0.5-0.1-1-0.1-1.5c0,0-0.1,0-0.1,0
				c0,0.2-0.1,0.4-0.2,0.7C62.2,84.1,62.1,82.8,61.9,81.5z"/>
			<path fill="#FFFFFF" d="M64.3,84.5c0.2-1.2,0.3-2.4,0.5-3.7c0.4,0.1,0.7,0.2,1.1,0.3c-0.5,1.2-1,2.3-1.5,3.4
				C64.3,84.5,64.3,84.5,64.3,84.5z"/>
			<path fill="#FFFFFF" d="M59.8,81.2c0.4-0.1,0.7-0.2,1-0.3c0.2,1.2,0.4,2.4,0.5,3.6c0,0-0.1,0-0.1,0
				C60.8,83.5,60.3,82.4,59.8,81.2z"/>
			<path fill="#FFFFFF" d="M76.2,57.9c0.2-0.5,0.6-0.6,1.1-0.3c0.4,0.2,0.5,0.6,0.3,1c-0.2,0.4-0.6,0.6-1,0.4
				C76.1,58.7,75.9,58.3,76.2,57.9c0,0.1,0,0.3,0,0.4c0.2,0.2,0.3,0.5,0.6,0.6c0.1,0.1,0.5-0.1,0.6-0.3c0.1-0.2,0-0.6-0.1-0.7
				c-0.2-0.1-0.5-0.1-0.7-0.1C76.4,57.7,76.3,57.8,76.2,57.9z"/>
			<path d="M75.9,70.5c-0.5,0.1-0.8-0.1-1.2-0.8C75.1,69.9,75.5,70.2,75.9,70.5C75.9,70.4,75.9,70.5,75.9,70.5z"/>
			<path fill="#FFFFFF" d="M61.1,75.3c0.2-0.1,0.4-0.2,0.6-0.3c0.1,0.1,0.3,0.2,0.3,0.3c-0.1,0.2-0.2,0.4-0.3,0.5c0,0,0,0,0,0
				C61.5,75.7,61.3,75.5,61.1,75.3z"/>
			<path fill="#FFFFFF" d="M75,43.5c-1.1,1.2-2.2,2.5-3.3,3.6c-0.3-0.2-0.7-0.5-1.1-0.9c-0.2,0.9-0.4,1.7-0.6,2.5c0,0-0.1,0-0.1,0
				c0.7-3.6,1.5-7.2,2.2-11C73.1,39.7,74.1,41.6,75,43.5z"/>
			<path fill="#FFFFFF" d="M55.4,49c-0.2-0.9-0.4-1.8-0.6-2.5c-0.2,0.3-0.6,0.7-0.8,1c-0.9-1-1.7-2-2.6-2.9c-0.9-1.1-1-1.1-0.3-2.3
				c0.6-1.2,1.3-2.5,1.9-3.7c0.1-0.2,0.2-0.4,0.4-0.7C54.1,41.6,54.8,45.3,55.4,49C55.5,48.9,55.4,48.9,55.4,49z"/>
			<path fill="#FFFFFF" d="M58.7,39.4c0-0.1,0-0.1,0-0.2c-0.5-1.1-1-2.1-1.5-3.2c-0.1-0.2-0.1-0.5-0.2-0.7c0,0,0,0,0,0
				c0.4,0,0.6,0.2,0.8,0.6c1.1,2.2,2.2,4.4,3.2,6.6c0.1,0.3,0.2,0.6,0.2,1c-0.1-0.1-0.1-0.2-0.2-0.3c-0.1,0-0.1,0-0.2,0
				c0,1.6,0,3.1,0,4.7c-0.1,0-0.2,0-0.2,0c0-1.5,0-3,0-4.4c0-0.3-0.1-0.7-0.2-1C59.8,41.4,59.2,40.4,58.7,39.4z"/>
			<path fill="#FFFFFF" d="M72.6,49.6c0.4-0.9,0.5-2.1,1.6-2.7c-0.2,0.5-0.3,1.3-0.6,1.5C72.9,48.6,72.9,49.2,72.6,49.6z"/>
			<path fill="#FFFFFF" d="M51.4,46.8c1.2,0.7,1.3,2.1,1.9,3.2C52.6,49,52,47.9,51.4,46.8z"/>
			<path d="M56.9,35.3c0.1,0.2,0.1,0.5,0.2,0.7c0.5,1.1,1,2.1,1.5,3.2c-0.1-0.1-0.2-0.2-0.3-0.3c-0.5-1-1-2.1-1.5-3.2
				C56.8,35.6,56.9,35.4,56.9,35.3z"/>
			<path d="M69.2,33.8c0.1,0.2,0.2,0.4,0.4,0.6c-0.1-0.1-0.3-0.1-0.3-0.2c-1.1-1.5-2.2-3-3.3-4.5c-0.1-0.1-0.1-0.3-0.1-0.4
				c1,1.3,2,2.6,3,4C68.9,33.5,69.1,33.6,69.2,33.8z"/>
			<path fill="#FFFFFF" d="M62,31.2C62,31.2,62,31.2,62,31.2c0.2-0.4,0.4-0.8,0.7-1.3c0.3,0.4,0.5,0.7,0.8,1
				C62.9,31,62.5,31.1,62,31.2z"/>
			<path d="M66.2,66.4c0.1,2-1.6,3.6-3.3,3.6c-2,0-3.6-1.6-3.6-3.7c0-2,1.6-3.6,3.5-3.6C64.7,62.7,66.2,64.4,66.2,66.4z"/>
			<path d="M61.6,75.9c0.1-0.2,0.2-0.3,0.3-0.5c0-0.1-0.2-0.2-0.3-0.3c0.1-0.1,0.2-0.2,0.3-0.3c0.2,1.7,0.3,1.7,1.6,1.4
				C62.8,76.7,62.6,76.7,61.6,75.9z"/>
			<path d="M62,58.8c0-1,0.8-1.9,1.9-1.9c1,0,1.9,0.9,1.8,1.9c0,1.2-0.8,1.9-1.9,1.8C62.6,60.5,62,60.1,62,58.8z"/>
			<path d="M76.2,57.9c0.1-0.1,0.2-0.2,0.3-0.2c0.3,0,0.6,0,0.7,0.1c0.1,0.1,0.2,0.5,0.1,0.7c-0.1,0.2-0.4,0.4-0.6,0.3
				c-0.2-0.1-0.4-0.4-0.6-0.6C76.2,58.1,76.2,58,76.2,57.9C76.2,57.9,76.2,57.9,76.2,57.9z"/>
		</g>
	</g>
</g>
</svg>
