<?xml version="1.0" encoding="utf-8"?>
<!-- Generator: Adobe Illustrator 24.3.0, SVG Export Plug-In . SVG Version: 6.00 Build 0)  -->
<svg version="1.1" id="Layer_1" xmlns="http://www.w3.org/2000/svg" xmlns:xlink="http://www.w3.org/1999/xlink" x="0px" y="0px"
	 viewBox="0 0 126 126" enable-background="new 0 0 126 126" xml:space="preserve">
<g>
	<circle fill="#E5E089" cx="63" cy="63" r="50"/>
	<path fill="#96C356" d="M30.4,100.9C39.1,108.4,50.5,113,63,113c27.6,0,50-22.4,50-50c0-6-1-11.7-3-17L96,31.9L30.4,100.9z"/>
	<path fill="#FFFFFF" d="M93.6,32.8c2.4,2.4,4.3,5.4,5.4,8.6c2.3,6.4,3.2,16.3-9.5,20.5c-19.7,6.6-16.4,12.8-23.2,16.6
		c-6.8,3.8-13.3,0-13.3,0l-5.1-5.1c0,0-3.8-6.5,0-13.3c3.8-6.8,10-3.5,16.6-23.2c4.3-12.9,14.4-11.8,20.8-9.4
		C88.4,28.6,91.2,30.4,93.6,32.8L93.6,32.8z"/>
	<g>
		<path fill="#DFDFDF" d="M99,41.4c-1.1-3.2-3-6.2-5.4-8.6L50.5,76l2.5,2.5c0,0,6.5,3.8,13.3,0c6.8-3.8,3.5-10,23.2-16.6
			C102.2,57.7,101.3,47.8,99,41.4z"/>
		<path fill="#DFDFDF" d="M99.5,42.7c-0.1-0.5-0.3-0.9-0.4-1.3c-0.2-0.6-0.4-1.1-0.7-1.7l-8.7,8.7l-4.8-4.8l9.8-9.8
			c-0.3-0.4-0.7-0.7-1-1.1l0,0c-0.3-0.3-0.7-0.7-1.1-1l-9.8,9.8l-4.9-4.9l8.7-8.7c-0.4-0.2-0.8-0.3-1.2-0.5
			c-0.6-0.2-1.2-0.4-1.9-0.6l-7.7,7.7l-6-6c-0.7,0.6-1.4,1.3-2.1,2.1l5.9,5.9L65,45.3l-2.7-2.7c-0.4,1-0.9,2-1.3,2.8l1.9,1.9
			l-9.1,9.1l-1.2-1.2c-0.8,0.6-1.6,1.2-2.3,1.8l1.4,1.4l-5.3,5.3c-0.3,1.6-0.3,3-0.2,4.3l7.6-7.6l4.9,4.9l-9.4,9.4l2.1,2.1l9.4-9.4
			l4.8,4.8L58,80.1c1.3,0.2,2.7,0.2,4.3-0.1l5.5-5.5l1.6,1.6c0.7-0.7,1.2-1.5,1.8-2.3l-1.3-1.3l9.1-9.1l2.1,2.1
			c0.9-0.4,1.8-0.9,2.8-1.3L81,61.3l8.6-8.6l6.1,6.1c0.8-0.6,1.5-1.3,2.1-2.1l-6.1-6.1L99.5,42.7z M60.8,63.5l-4.9-4.9l9.1-9.1
			l4.9,4.9L60.8,63.5z M72,52.3l-4.9-4.9l8.6-8.6l4.9,4.9L72,52.3z M67.7,70.3l-4.8-4.8l9.1-9.1l4.8,4.8L67.7,70.3z M78.9,59.2
			l-4.8-4.8l8.6-8.6l4.8,4.8L78.9,59.2z"/>
	</g>
	<path fill="#BFBEBE" d="M99,41.4c-0.2-0.6-0.4-1.1-0.7-1.7l-8.7,8.7l-4.8-4.8l9.8-9.8c-0.3-0.4-0.6-0.7-1-1L50.5,76l1,1l9.4-9.4
		l4.8,4.8L58,80.1c1.3,0.2,2.7,0.2,4.3-0.1l5.5-5.5l1.6,1.6c0.7-0.7,1.2-1.5,1.8-2.3l-1.3-1.3l9.1-9.1l2.1,2.1
		c0.9-0.4,1.8-0.9,2.8-1.3L81,61.3l8.6-8.6l6.1,6.1c0.8-0.6,1.5-1.3,2.1-2.1l-6.1-6.1l7.8-7.8C99.3,42.3,99.2,41.8,99,41.4z
		 M67.7,70.3l-4.8-4.8l9.1-9.1l4.8,4.8L67.7,70.3z M78.9,59.2l-4.8-4.8l8.6-8.6l4.8,4.8L78.9,59.2z"/>
	<path fill="#EC683F" d="M101.2,40.6c-1.2-3.5-3.3-6.8-6-9.5c-2.6-2.6-5.7-4.6-9.1-5.8c-5.8-2.1-11-2.2-15.1-0.2
		c-4,1.9-6.9,5.6-8.7,11c-4.1,12.3-7.8,15-11.1,17.3c-1.9,1.3-3.8,2.7-5.3,5.5c-4.4,7.9-0.2,15.2,0,15.6l0.1,0.3l0.3,0.3L25.5,96
		c1.5,1.7,3.2,3.3,4.9,4.9L51.2,80l0.3,0.3l0.3,0.1c0.3,0.2,7.7,4.4,15.6,0c2.8-1.5,4.2-3.5,5.5-5.3c2.4-3.3,5.1-7,17.3-11.1
		c5.3-1.8,9-4.7,11-8.6C103.2,51.4,103.2,46.3,101.2,40.6z M97,53.5c-1.4,2.8-4.1,4.9-8.3,6.3c-13.7,4.6-17,9.1-19.6,12.8
		c-1.2,1.7-2.1,3-4,4c-5,2.8-9.7,0.7-10.8,0.1L49.7,72c-0.5-1.1-2.6-5.8,0.1-10.8c1.1-1.9,2.3-2.8,4-4c3.7-2.6,8.2-5.9,12.8-19.6
		c1.4-4.2,3.5-7,6.3-8.3c3.8-1.8,8.4-0.8,11.6,0.3c2.7,1,5.3,2.6,7.4,4.8c2.2,2.2,3.9,4.9,4.9,7.8C97.9,45.3,98.9,49.8,97,53.5z"/>
	<path fill="#AE4E32" d="M101.2,40.6c-1.2-3.5-3.3-6.8-5.9-9.4L92,34.5c2.2,2.2,3.9,4.9,4.9,7.7c1.1,3.1,2,7.6,0.2,11.3
		c-1.4,2.8-4.1,4.9-8.3,6.3c-13.7,4.6-17,9.1-19.6,12.8c-1.2,1.7-2.1,3-4,4c-5,2.8-9.7,0.7-10.8,0.1l-2.3-2.3L27.9,98.6
		c0.8,0.8,1.6,1.6,2.5,2.3L51.2,80l0.3,0.3l0.3,0.1c0.3,0.2,7.7,4.4,15.6,0c2.8-1.5,4.2-3.5,5.5-5.3c2.4-3.3,5.1-7,17.3-11.1
		c5.3-1.8,9-4.7,11-8.6C103.2,51.4,103.2,46.3,101.2,40.6z"/>
	<circle fill="#FFFFFF" cx="68.6" cy="96.3" r="11.1"/>
	<path fill="#DFDFDF" d="M68.3,85.2C68.3,85.2,68.3,85.2,68.3,85.2l-0.1,22.2c0,0,0,0,0.1,0c6.1,0,11.1-5,11.1-11.1
		S74.5,85.2,68.3,85.2z"/>
</g>
</svg>
