<?xml version="1.0" encoding="utf-8"?>
<!-- Generator: Adobe Illustrator 24.3.0, SVG Export Plug-In . SVG Version: 6.00 Build 0)  -->
<svg version="1.1" id="Layer_1" xmlns="http://www.w3.org/2000/svg" xmlns:xlink="http://www.w3.org/1999/xlink" x="0px" y="0px"
	 viewBox="0 0 126 126" enable-background="new 0 0 126 126" xml:space="preserve">
<g>
	<path fill="#73859D" d="M31.2,98.6h63.7v12.9H31.2L31.2,98.6z"/>
	<circle fill="#E95173" cx="63" cy="52.1" r="37.1"/>
	<path fill="#F9ED89" d="M67.8,24.6l-4.4,9.7h-0.7l-4.4-9.7c-2.1,0.4-4,0.9-5.9,1.7l7.5,18c2-0.9,4.4-0.9,6.4,0l7.4-18
		C71.8,25.6,69.8,25,67.8,24.6L67.8,24.6z"/>
	<circle fill="#E95173" cx="63" cy="52.1" r="8.4"/>
	<path fill="#F9ED89" d="M66.2,59.8c-2,0.9-4.4,0.9-6.4,0l-7.4,18c6.8,2.8,14.5,2.8,21.3,0L66.2,59.8z"/>
	<path fill="#73859D" d="M58.2,14.5v10.2l4.4,9.7h0.7l4.4-9.7V14.5H58.2z"/>
	<path fill="#73859D" d="M73.6,26.3l-7.4,18c2.1,0.9,3.7,2.5,4.6,4.5l18-7.5C85.9,34.6,80.5,29.2,73.6,26.3L73.6,26.3z"/>
	<path fill="#F9ED89" d="M88.7,41.4l-18,7.5c0.9,2,0.9,4.4,0,6.4l18,7.4C91.6,55.9,91.6,48.2,88.7,41.4L88.7,41.4z"/>
	<path fill="#C0DCAF" d="M70.8,55.3c-0.9,2.1-2.5,3.7-4.5,4.6l7.5,18c6.8-2.8,12.2-8.2,15.1-15.1L70.8,55.3z"/>
	<path fill="#73859D" d="M55.2,55.3l-18,7.5c2.8,6.8,8.3,12.2,15.1,15.1l7.4-18C57.7,59,56.1,57.3,55.2,55.3L55.2,55.3z"/>
	<path fill="#F9ED89" d="M55.2,48.9l-18-7.4c-2.8,6.8-2.8,14.5,0,21.3l18-7.5C54.4,53.3,54.4,50.9,55.2,48.9L55.2,48.9z"/>
	<path fill="#C0DCAF" d="M52.3,26.3c-6.8,2.8-12.2,8.2-15.1,15.1l18,7.4c0.9-2.1,2.5-3.7,4.5-4.6L52.3,26.3z"/>
	<g>
		<g>
			<path fill="#F9ED89" d="M51.3,87.3l-2.7,11.4h-6L45.8,85C47.5,85.9,49.4,86.7,51.3,87.3L51.3,87.3z"/>
		</g>
	</g>
	<g>
		<g>
			<path fill="#F9ED89" d="M83.4,98.6h-6l-2.7-11.4c1.9-0.6,3.7-1.4,5.5-2.3L83.4,98.6z"/>
		</g>
	</g>
	<path fill="#546275" d="M31.2,98.6h3.9v12.9h-3.9V98.6z"/>
	<path fill="#B2397F" d="M29.8,52.1C29.8,32.2,45.4,16,65,15c-21.3-1.1-39.1,15.9-39.1,37.1c0,21.2,17.7,38.2,39.1,37.1
		C45.4,88.1,29.8,71.9,29.8,52.1z"/>
	<g>
		<g>
			<g>
				<path fill="#E7AA4B" d="M65,43.9c0.4,0.1,0.9,0.2,1.3,0.4l0.3-0.6C65.9,43.7,65.4,43.8,65,43.9L65,43.9z"/>
			</g>
			<g>
				<path fill="#E7AA4B" d="M66.6,34.3h0.7l4.1-8.8c-1.1-0.4-2.3-0.6-3.5-0.9L65,30.8L66.6,34.3z"/>
			</g>
			<g>
				<path fill="#E7AA4B" d="M56.2,26.3c0.8-0.3,1.6-0.6,2.4-0.9l-0.4-0.9c-2.1,0.4-4,0.9-5.9,1.7l7.5,18c1.1-0.5,2.3-0.7,3.7-0.6
					L56.2,26.3z"/>
			</g>
		</g>
	</g>
	<path fill="#B2397F" d="M58.5,52.1c0-4,2.7-7.3,6.4-8.2c-5.3-1.3-10.4,2.8-10.4,8.2c0,5.4,5.1,9.4,10.4,8.2
		C61.3,59.4,58.5,56,58.5,52.1L58.5,52.1z"/>
	<g>
		<g>
			<g>
				<path fill="#E7AA4B" d="M66.5,60.5l-0.3-0.6c-0.4,0.2-0.8,0.3-1.3,0.4C65.5,60.4,66,60.4,66.5,60.5z"/>
			</g>
			<g>
				<path fill="#E7AA4B" d="M56.3,77.8l7.2-17.4c-1.3,0.1-2.5-0.1-3.7-0.6l-7.4,18c3.9,1.6,8.2,2.3,12.6,2
					C61.9,79.7,59,79,56.3,77.8z"/>
			</g>
		</g>
	</g>
	<path fill="#546275" d="M62.1,24.6V14.5h-3.9v10.2l4.4,9.7h0.7l1.6-3.5L62.1,24.6z"/>
	<path fill="#546275" d="M70.1,44.3l6.8-16.4c-1-0.6-2.1-1.1-3.3-1.6l-7.4,18c2.1,0.9,3.7,2.5,4.6,4.5l3.2-1.3
		C73,46,71.7,44.9,70.1,44.3L70.1,44.3z"/>
	<path fill="#E7AA4B" d="M74.7,55.3c0.8-2,0.8-4.4,0-6.4l14.6-6.1c-0.2-0.5-0.3-0.9-0.5-1.4l-18,7.5c0.9,2,0.9,4.4,0,6.4l18,7.4
		c0.2-0.5,0.4-0.9,0.5-1.4L74.7,55.3z"/>
	<path fill="#11A7B2" d="M70.1,59.8c1.5-0.6,2.9-1.7,3.8-3.2l-3.2-1.3c-0.9,2.1-2.5,3.7-4.5,4.6l7.5,18c1.1-0.5,2.2-1,3.2-1.6
		L70.1,59.8z"/>
	<path fill="#546275" d="M41.2,62.8l14.8-6.1c-0.3-0.4-0.5-0.9-0.7-1.3l-18,7.5c2.8,6.8,8.2,12.2,15.1,15.1l0.7-1.6
		C47.8,73.2,43.6,68.6,41.2,62.8z"/>
	<path fill="#E7AA4B" d="M40.6,42.8l-3.4-1.4c-2.8,6.8-2.8,14.5,0,21.3l3.4-1.4C38.5,55.4,38.5,48.8,40.6,42.8L40.6,42.8z"/>
	<path fill="#11A7B2" d="M41.2,41.4c2.3-5.6,6.4-10.4,11.8-13.5l-0.7-1.6c-6.8,2.8-12.2,8.2-15.1,15.1l18,7.4
		c0.2-0.5,0.4-0.9,0.7-1.3L41.2,41.4z"/>
	<path fill="#E7AA4B" d="M45.8,85l-3.2,13.7h3.9l2.8-12.1C48.1,86.1,46.9,85.6,45.8,85z"/>
	<path fill="#E7AA4B" d="M80.6,86.6L80.2,85c-1.7,0.9-3.6,1.7-5.5,2.3l2.7,11.4h3.9l-2.7-11.4C79.3,87.1,79.9,86.8,80.6,86.6z"/>
	<g>
		<g>
			<path fill="#FFFFFF" d="M42.4,50.6h2.9v2.9h-2.9V50.6z"/>
		</g>
		<g>
			<path fill="#FFFFFF" d="M80.7,50.6h2.9v2.9h-2.9V50.6z"/>
		</g>
	</g>
	<g>
		<path fill="#FFFFFF" d="M61.8,70.3h2.9v2.9h-2.9V70.3z"/>
	</g>
	<g>
		<path fill="#FFFFFF" d="M73.3,106.6h-2.9v-2.9h2.9V106.6z M64.5,106.6h-2.9v-2.9h2.9V106.6z M55.7,106.6h-2.9v-2.9h2.9V106.6z"/>
	</g>
	<g>
		<path d="M63,90.7c10.2,0,19.8-4,27.1-11.1L88,77.4c-6.7,6.6-15.6,10.3-25,10.3c-19.6,0-35.6-16-35.6-35.6
			C27.4,34.6,40.1,20,56.7,17v6.4c-5.2,1.1-9.8,3.6-13.5,7l2,2.2c1.9-1.7,4-3.2,6.4-4.3c3.1,7.5,1.7,4.1,6.4,15.3
			c-1.3,0.8-2.5,1.9-3.4,3.4l-15.3-6.3c1.1-2.2,2.4-4.2,4-6.1L41,32.6c-5,5.6-7.4,12.5-7.4,19.4c0,18.7,15.6,29.4,29.3,29.4
			c16.5,0,29.4-13.5,29.4-29.3c0-13.4-9.3-25.6-23.1-28.7V17c16.7,3,29.4,17.6,29.4,35.1c0,8.6-3.1,16.8-8.7,23.3l2.2,1.9
			c6.1-7,9.4-16,9.4-25.2c0-19.1-14-35.1-32.3-38.1v-1H56.7v1c-18.3,3-32.3,18.9-32.3,38.1C24.4,73.3,41.7,90.7,63,90.7L63,90.7z
			 M58.1,47.2c3.5-3.5,9.4-2.3,11.3,2.2c1.1,2.5,0.5,5.5-1.5,7.6c-2,2-5,2.6-7.5,1.5C55.8,56.6,54.6,50.6,58.1,47.2z M38.1,43.4
			l15.3,6.3c-0.4,1.6-0.4,3.2,0,4.8c-1.8,0.8-13.4,5.6-15.3,6.4C36.1,55.2,36.1,49,38.1,43.4z M39.2,63.5c1.8-0.8,13.1-5.5,15.3-6.4
			c0.8,1.3,2,2.5,3.4,3.4l-6.3,15.3C46.2,73.3,41.8,68.9,39.2,63.5z M54.3,77l6.3-15.3c1.5,0.4,3.2,0.4,4.8,0L71.8,77
			C66.1,79,59.9,79,54.3,77z M86.8,63.5c-2.6,5.4-7,9.8-12.3,12.4c-0.6-1.5-5.6-13.5-6.4-15.3c1.3-0.8,2.5-2,3.4-3.4
			C72.9,57.8,84.6,62.6,86.8,63.5L86.8,63.5z M87.9,60.8c-1.9-0.8-13.5-5.6-15.3-6.3c0.4-1.6,0.4-3.2,0-4.8l15.3-6.4
			C89.9,48.9,89.9,55.2,87.9,60.8z M86.8,40.6L71.4,47c-0.8-1.3-2-2.5-3.4-3.4l6.3-15.3C79.8,30.9,84.2,35.3,86.8,40.6L86.8,40.6z
			 M65.4,42.5c-1.5-0.4-3.2-0.4-4.8,0c-4.4-10.6-3.1-7.4-6.4-15.3c1-0.4,2.1-0.7,3.1-0.9l4.4,9.5h2.6l4.4-9.5c1,0.2,2.1,0.5,3.1,0.9
			C70.6,29.7,67,38.6,65.4,42.5z M66.3,24.3L63,31.5l-3.3-7.2v-7.7c2.2-0.2,4.4-0.2,6.7,0V24.3z"/>
		<path d="M83,90.5l-2.9,0.7l1.4,6h-3l-1-4.5l-2.9,0.7l0.9,3.8h-25l0.9-3.8l-2.9-0.7l-1,4.5h-3l1.4-6L43,90.5l-1.6,6.7H29.7V113
			h66.6V97.2H84.6L83,90.5z M93.4,100.1v10H32.6v-10H93.4z"/>
	</g>
</g>
</svg>
