<?xml version="1.0" encoding="utf-8"?>
<!-- Generator: Adobe Illustrator 24.3.0, SVG Export Plug-In . SVG Version: 6.00 Build 0)  -->
<svg version="1.1" id="Layer_1" xmlns="http://www.w3.org/2000/svg" xmlns:xlink="http://www.w3.org/1999/xlink" x="0px" y="0px"
	 viewBox="0 0 126 126" enable-background="new 0 0 126 126" xml:space="preserve">
<g>
	<path fill="#476EB3" d="M74.3,57.5l25.8,10.8l2.8-4.1L78.2,48.7L74.3,57.5z"/>
	<path fill="#7CC8D0" d="M76.2,47.4c-4.4-2.8-9-5.2-13.7-7.3l-5.2-2.3c-2.8-1.3-6.2,0-7.4,2.9c-1.3,2.8,0,6.2,2.9,7.4L65,53.6
		l9.3,3.9l3.9-8.8L76.2,47.4z"/>
	<path fill="#A6C5E8" d="M112.2,66.9c0.1-0.6-0.2-1.1-0.8-1.2l-8.5-1.5l-0.1-0.1l-2.8,4.1l0.1,0c0.1,0.6,0.5,1.1,1,1.3l1.7,0.8
		c0.4,0.2,0.9,0.2,1.3,0l7.4-2.8C111.8,67.5,112.1,67.2,112.2,66.9L112.2,66.9z"/>
	<path fill="#3D60A9" d="M100.1,69.1c-0.1,0-0.2,0-0.3-0.1L73.9,58.2c-0.2-0.1-0.4-0.2-0.4-0.4c-0.1-0.2-0.1-0.4,0-0.6l3.9-8.8
		c0.1-0.2,0.3-0.4,0.5-0.4c0.2-0.1,0.5,0,0.7,0.1l24.7,15.5c0.2,0.1,0.3,0.3,0.4,0.5c0,0.2,0,0.4-0.1,0.6l-2.8,4.1
		C100.6,69,100.3,69.1,100.1,69.1L100.1,69.1z M75.3,57l24.5,10.3l1.9-2.9L78.5,49.8L75.3,57z"/>
	<path fill="#3D60A9" d="M74.3,58.3c-0.1,0-0.2,0-0.3-0.1l-9.3-3.9l-12.3-5.5c-3.2-1.4-4.7-5.3-3.3-8.5c1.4-3.2,5.3-4.7,8.5-3.3
		l5.2,2.3c4.8,2.1,9.4,4.6,13.8,7.3l2,1.3c0.3,0.2,0.5,0.6,0.3,1L75,57.8C74.9,58.1,74.6,58.3,74.3,58.3L74.3,58.3z M55,38.1
		c-1.9,0-3.6,1.1-4.4,2.9c-1.1,2.4,0,5.3,2.5,6.4l12.3,5.5l8.5,3.6l3.3-7.4l-1.4-0.9c-4.3-2.7-8.9-5.2-13.6-7.2l-5.2-2.3
		C56.3,38.3,55.6,38.1,55,38.1L55,38.1z"/>
	<path fill="#3D60A9" d="M103.6,71.3c-0.3,0-0.7-0.1-1-0.2l-1.7-0.8c-0.7-0.3-1.2-0.9-1.4-1.6c-0.1-0.1-0.1-0.2-0.1-0.2
		c-0.1-0.2,0-0.5,0.1-0.7l2.8-4.1c0.2-0.3,0.7-0.5,1.1-0.3l8.3,1.5c0.5,0.1,0.9,0.4,1.2,0.8c0.3,0.4,0.3,0.9,0.2,1.4v0
		c-0.1,0.5-0.6,1-1.1,1.2l-7.4,2.8C104.2,71.3,103.9,71.3,103.6,71.3z M101,68.4c0.1,0.2,0.3,0.4,0.5,0.5l1.7,0.8
		c0.2,0.1,0.5,0.1,0.7,0l7.4-2.8c0.1,0,0.1-0.1,0.1-0.1c0,0,0-0.1,0-0.1c0,0,0-0.1-0.1-0.1l-8.1-1.5L101,68.4z M112.2,66.9
		L112.2,66.9L112.2,66.9z"/>
	<path fill="#F3A5A6" d="M101.1,78.4L33.3,48.3c-1.2-0.5-1.8-2-1.2-3.2l1.3-2.9c0.5-1.2,2-1.8,3.2-1.2L104.4,71
		c1.2,0.5,1.8,2,1.2,3.2l-1.3,2.9C103.8,78.4,102.3,78.9,101.1,78.4z"/>
	<path fill="#3D60A9" d="M43.9,44.4c-1.1,0-2.2-0.2-3.3-0.7c-2-0.9-3.5-2.5-4.3-4.5c-0.8-2-0.7-4.2,0.2-6.2c0.9-2,2.5-3.5,4.5-4.3
		c2-0.8,4.2-0.7,6.2,0.2c2,0.9,3.5,2.5,4.3,4.5s0.7,4.2-0.2,6.2C50,42.6,47,44.4,43.9,44.4L43.9,44.4z M43.9,29.8
		c-0.8,0-1.6,0.1-2.3,0.4c-1.6,0.6-2.9,1.8-3.6,3.4c-0.7,1.6-0.7,3.3-0.1,4.9c0.6,1.6,1.8,2.9,3.4,3.6c1.6,0.7,3.3,0.7,4.9,0.1
		c1.6-0.6,2.9-1.8,3.6-3.4c0.7-1.6,0.7-3.3,0.1-4.9c-0.6-1.6-1.8-2.9-3.4-3.6C45.7,30,44.8,29.8,43.9,29.8z"/>
	<path fill="#3D60A9" d="M43.9,44.4c-1.1,0-2.2-0.2-3.3-0.7c-2-0.9-3.5-2.5-4.3-4.5c-0.8-2-0.7-4.2,0.2-6.2c0.9-2,2.5-3.5,4.5-4.3
		c2-0.8,4.2-0.7,6.2,0.2c2,0.9,3.5,2.5,4.3,4.5s0.7,4.2-0.2,6.2C50,42.6,47,44.4,43.9,44.4L43.9,44.4z M43.9,29.8
		c-0.8,0-1.6,0.1-2.3,0.4c-1.6,0.6-2.9,1.8-3.6,3.4c-0.7,1.6-0.7,3.3-0.1,4.9c0.6,1.6,1.8,2.9,3.4,3.6c1.6,0.7,3.3,0.7,4.9,0.1
		c1.6-0.6,2.9-1.8,3.6-3.4c0.7-1.6,0.7-3.3,0.1-4.9c-0.6-1.6-1.8-2.9-3.4-3.6C45.7,30,44.8,29.8,43.9,29.8z"/>
	<circle fill="#F8CFCE" cx="43.9" cy="36.3" r="7.3"/>
	<path fill="#476EB3" d="M45,29.1c-3.3-0.5-6.7,1.3-7.9,4.7c-1.2,3.3,0.1,7,3.1,8.8c3.8,2.2,8.6,0.6,10.3-3.3l-8-3.6
		c-0.2-0.1-0.3-0.3-0.2-0.5L45,29.1z"/>
	<path fill="#7CC8D0" d="M50,31.6l-2.6,5.8c-0.1,0.2-0.3,0.3-0.5,0.2l-4.4-2c-0.2-0.1-0.3-0.3-0.2-0.5l2.7-6.2
		c0.2-0.4,0.7-0.6,1.1-0.4l3.3,1.5C50,30.3,50.3,31,50,31.6z"/>
	<path fill="#A6C5E8" d="M28.3,51.7c-0.7-0.3-1.5-0.1-2,0.5c-0.6,0.8-0.2,1.9,0.7,2.3l73.7,32.7c0.8,0.3,1.7,0.4,2.5,0.1l6.2-2.4
		c0.8-0.3,1.2-1.2,0.9-2c-0.3-0.8-1.2-1.2-2-0.9l-5.3,2.1c-0.6,0.2-1.3,0.2-1.9,0L28.3,51.7z"/>
	<path fill="#E0EAF7" d="M13.8,48.6l96.5,42.9v13.7c0,1.3-1.1,2.4-2.4,2.4H16.2c-1.3,0-2.4-1.1-2.4-2.4
		C13.8,105.2,13.8,48.6,13.8,48.6z"/>
	<path fill="#A6C5E8" d="M74.8,84c-0.1,0-0.2,0-0.3-0.1L18.2,59c-0.4-0.2-0.6-0.7-0.4-1.1c0.2-0.4,0.7-0.6,1.1-0.4l56.3,25
		c0.4,0.2,0.6,0.7,0.4,1.1C75.4,83.9,75.2,84,74.8,84z"/>
	<path fill="#A6C5E8" d="M92.7,98.1c-0.1,0-0.2,0-0.3-0.1L36,73c-0.4-0.2-0.6-0.7-0.4-1.1c0.2-0.4,0.7-0.6,1.1-0.4l56.3,25
		c0.4,0.2,0.6,0.7,0.4,1.1C93.3,97.9,93,98.1,92.7,98.1z"/>
	<g>
		<path fill="#3D60A9" d="M102,88.3c-0.6,0-1.1-0.1-1.6-0.3L26.6,55.3c-0.7-0.3-1.2-0.9-1.4-1.6c-0.2-0.7,0-1.4,0.4-2
			c0.6-0.9,1.9-1.2,2.9-0.7l72.8,32.3c0.4,0.2,0.8,0.2,1.2,0l5.3-2.1c1.2-0.5,2.5,0.1,3,1.3c0.5,1.2-0.1,2.5-1.3,3l-6.2,2.4
			C103,88.2,102.5,88.3,102,88.3L102,88.3z M27.5,52.4c-0.2,0-0.5,0.1-0.6,0.3c-0.2,0.2-0.1,0.4-0.1,0.6c0.1,0.2,0.2,0.4,0.5,0.5
			L101,86.5c0.6,0.3,1.3,0.3,1.9,0l6.2-2.4c0.4-0.1,0.6-0.6,0.4-0.9c-0.1-0.4-0.6-0.6-0.9-0.4l-5.3,2.1c-0.8,0.3-1.7,0.3-2.5-0.1
			L27.9,52.5C27.8,52.4,27.7,52.4,27.5,52.4L27.5,52.4z"/>
		<path fill="#3D60A9" d="M107.9,108.4H16.2c-1.8,0-3.2-1.4-3.2-3.2V48.6c0-0.3,0.1-0.5,0.4-0.7c0.2-0.1,0.5-0.2,0.8-0.1l96.5,42.9
			c0.3,0.1,0.5,0.4,0.5,0.7v13.7C111.1,106.9,109.7,108.4,107.9,108.4z M14.6,49.9v55.3c0,0.9,0.7,1.6,1.6,1.6h91.7
			c0.9,0,1.6-0.7,1.6-1.6V92L14.6,49.9z"/>
		<path fill="#3D60A9" d="M102.1,79.4c-0.4,0-0.9-0.1-1.3-0.3L33,49.1c-1.6-0.7-2.4-2.6-1.6-4.3l1.3-2.9c0.7-1.6,2.6-2.4,4.3-1.6
			l67.8,30.1c0.8,0.4,1.4,1,1.7,1.8c0.3,0.8,0.3,1.7-0.1,2.5l-1.3,2.9C104.5,78.7,103.3,79.4,102.1,79.4L102.1,79.4z M101.4,77.6
			c0.8,0.4,1.8,0,2.1-0.8l1.3-2.9c0.2-0.4,0.2-0.8,0-1.2c-0.2-0.4-0.5-0.7-0.9-0.9L36.2,41.7c-0.8-0.4-1.8,0-2.1,0.8l-1.3,2.9
			c-0.4,0.8,0,1.8,0.8,2.1L101.4,77.6z"/>
		<path fill="#3D60A9" d="M43.9,44.4c-1.4,0-2.8-0.4-4.1-1.1c-3.3-1.9-4.8-6.1-3.5-9.7c1.3-3.6,5-5.8,8.8-5.2c0.2,0,0.5,0.2,0.6,0.4
			s0.1,0.5,0,0.7l-2.5,5.7l7.7,3.4c0.4,0.2,0.6,0.7,0.4,1.1c-0.9,2.1-2.7,3.7-4.9,4.4C45.6,44.2,44.8,44.4,43.9,44.4L43.9,44.4z
			 M43.8,29.8c-2.6,0.1-5,1.7-6,4.2c-1.1,2.9,0.1,6.2,2.8,7.8c1.6,0.9,3.5,1.2,5.3,0.6c1.5-0.5,2.8-1.5,3.6-2.8l-7.3-3.2
			c-0.3-0.1-0.5-0.4-0.6-0.7c-0.1-0.3-0.1-0.6,0-0.9L43.8,29.8z"/>
		<path fill="#3D60A9" d="M47.1,38.5c-0.2,0-0.3,0-0.5-0.1l-4.4-2c-0.3-0.1-0.5-0.4-0.6-0.7c-0.1-0.3-0.1-0.6,0-0.9l2.7-6.2
			c0.2-0.4,0.5-0.7,0.9-0.9c0.4-0.2,0.8-0.1,1.2,0l3.3,1.5c0.5,0.2,0.9,0.6,1.1,1.1c0.2,0.5,0.2,1,0,1.5l-2.6,5.8
			c-0.1,0.3-0.4,0.5-0.7,0.6C47.4,38.4,47.3,38.5,47.1,38.5L47.1,38.5z M43.2,35.1l3.7,1.6l2.4-5.4c0.1-0.1,0-0.2,0-0.3
			c0-0.1-0.1-0.2-0.2-0.2l-3.3-1.5L43.2,35.1z"/>
	</g>
	<path fill="#E0EAF7" d="M30.6,43.3c0.3-0.6,1-0.9,1.6-0.6l15.1,6.9c0.6,0.3,0.9,1,0.6,1.6c-0.3,0.6-1,0.9-1.6,0.6l-15.1-6.9
		C30.6,44.6,30.3,43.9,30.6,43.3L30.6,43.3z"/>
	<path fill="#E0EAF7" d="M33.2,52.1l-18.7-8.5c-0.6-0.3-0.9-1-0.6-1.6c0.3-0.6,1-0.9,1.6-0.6l18.7,8.5c0.6,0.3,0.9,1,0.6,1.6
		C34.5,52.1,33.8,52.4,33.2,52.1z"/>
	<path fill="#E0EAF7" d="M25.9,30c-0.3,0.6,0,1.3,0.6,1.6l15.2,6.8c0.6,0.3,1.3,0,1.6-0.6c0.3-0.6,0-1.3-0.6-1.6l-15.2-6.8
		C26.9,29.1,26.2,29.3,25.9,30L25.9,30z"/>
	<path fill="#E0EAF7" d="M34.2,26.1l-18.7-8.3c-0.6-0.3-1.3,0-1.6,0.6s0,1.3,0.6,1.6l18.7,8.3c0.6,0.3,1.3,0,1.6-0.6
		C35.1,27,34.8,26.3,34.2,26.1z"/>
	<path fill="#476EB3" d="M75.3,58.1l1.7,0.8c0.2,0.1,0.4,0,0.5-0.2l0.7-1.6c0.1-0.2,0-0.4-0.1-0.5L56.2,41.9
		c-1.8-1.2-4.4-0.5-5.3,1.5c-0.8,1.8,0,3.9,1.8,4.7l24.6,10.9L75.3,58.1z"/>
	<path fill="#3D60A9" d="M77.4,59.9c-0.1,0-0.2,0-0.3-0.1L75,58.9c0,0,0,0,0,0l-22.5-10c-1.1-0.5-1.9-1.3-2.3-2.4
		c-0.4-1.1-0.4-2.3,0.1-3.3c0.5-1.2,1.5-2.1,2.8-2.4c1.2-0.4,2.6-0.1,3.6,0.6L78.5,56c0.5,0.3,0.7,1,0.4,1.5L78.3,59
		c0,0.1-0.1,0.1-0.1,0.2c0,0.1,0,0.1-0.1,0.2C78,59.7,77.7,59.9,77.4,59.9L77.4,59.9z M75.6,57.4L77,58l0.4-0.9L55.7,42.6
		c-0.7-0.5-1.5-0.6-2.3-0.4c-0.8,0.2-1.4,0.8-1.8,1.5c-0.3,0.7-0.3,1.4-0.1,2.1c0.3,0.7,0.8,1.2,1.5,1.5L75.6,57.4z"/>
	<path fill="#3D60A9" d="M77.2,59.7c-0.1,0-0.3,0-0.4-0.1c0,0-0.1,0-0.1,0L52.4,48.9c-1.1-0.5-1.9-1.3-2.3-2.4
		c-0.4-1.1-0.4-2.3,0.1-3.3c0.5-1.2,1.5-2.1,2.8-2.4c1.2-0.4,2.6-0.2,3.7,0.6L78.5,56c0.4,0.3,0.6,0.7,0.5,1.2c0,0,0,0,0,0
		c0,0,0,0.1-0.1,0.2L78.3,59c0,0,0,0.1,0,0.1c-0.1,0.1-0.1,0.2-0.2,0.3c-0.1,0.1-0.2,0.1-0.3,0.2c0,0-0.1,0-0.1,0.1
		C77.5,59.7,77.3,59.7,77.2,59.7z M76.8,58.3C76.8,58.3,76.8,58.3,76.8,58.3C76.8,58.3,76.8,58.3,76.8,58.3z M77.3,58.1L77.3,58.1
		L77.3,58.1z M54.2,42.1c-0.3,0-0.5,0-0.8,0.1c-0.8,0.2-1.4,0.8-1.8,1.5c-0.3,0.7-0.3,1.4-0.1,2.1c0.3,0.7,0.8,1.2,1.5,1.5L77,58
		l0.4-0.9L55.7,42.6C55.3,42.3,54.8,42.1,54.2,42.1L54.2,42.1z"/>
	<path fill="#3D60A9" d="M77,59.7c-0.1,0-0.2,0-0.3-0.1L75,58.9l0.7-1.5l1.7,0.8c0.4,0.2,0.6,0.7,0.4,1.1
		C77.6,59.5,77.3,59.7,77,59.7L77,59.7z"/>
	<path fill="#F8CFCE" d="M84.7,60.9l-2.5-2.3c-0.2-0.2-0.4-0.3-0.6-0.3L78.2,57c0,0,0,0,0,0c0,0,0,0.1,0,0.1l-0.1,0.3l-0.6,1.2
		c0,0,0,0,0,0c0,0,0,0.1-0.1,0.1c0,0-0.1,0-0.1,0.1c0,0,0,0,0,0c-0.1,0-0.2,0-0.3,0l0,0l7.3,3.2c0.2,0.1,0.5,0,0.6-0.3
		C85,61.5,85,61.1,84.7,60.9L84.7,60.9z"/>
	<path fill="#3D60A9" d="M84.4,63c-0.2,0-0.3,0-0.5-0.1l-7.3-3.2c-0.4-0.2-0.6-0.7-0.4-1.1c0.1-0.3,0.4-0.4,0.6-0.5l0.5-1.2
		c0,0,0,0,0,0c0-0.2,0.2-0.4,0.4-0.5c0.2-0.1,0.5-0.1,0.7-0.1l3.4,1.3c0.3,0.1,0.6,0.3,0.8,0.5l2.5,2.3c0,0,0,0,0,0
		c0.5,0.4,0.6,1.2,0.3,1.8c-0.1,0.3-0.4,0.6-0.7,0.7C84.7,62.9,84.6,63,84.4,63L84.4,63z M84.6,61.4L84.6,61.4
		C84.6,61.4,84.6,61.4,84.6,61.4z M78.4,58.6l5.1,2.3l-1.8-1.7c-0.1-0.1-0.2-0.1-0.3-0.2l-2.7-1L78.4,58.6z"/>
	<path fill="#A6C5E8" d="M42.1,57.9l2.1-4.7l3,1.3l-2.1,4.7L42.1,57.9z"/>
	<path fill="#3D60A9" d="M45.1,60c-0.1,0-0.2,0-0.3-0.1l-3-1.3c-0.4-0.2-0.6-0.7-0.4-1.1l2.1-4.7c0.1-0.2,0.2-0.3,0.4-0.4
		c0.2-0.1,0.4-0.1,0.6,0l3,1.3c0.4,0.2,0.6,0.7,0.4,1.1l-2.1,4.7c-0.1,0.2-0.2,0.3-0.4,0.4C45.3,60,45.2,60,45.1,60L45.1,60z
		 M43.2,57.5l1.5,0.7l1.5-3.3l-1.5-0.7L43.2,57.5z"/>
	<path fill="#A6C5E8" d="M85.1,77l2.1-4.7l3,1.3L88,78.3L85.1,77z"/>
	<path fill="#3D60A9" d="M88.1,79.1c-0.1,0-0.2,0-0.3-0.1l-3-1.3c-0.4-0.2-0.6-0.7-0.4-1.1l2.1-4.7c0.1-0.2,0.2-0.3,0.4-0.4
		c0.2-0.1,0.4-0.1,0.6,0l3,1.3c0.4,0.2,0.6,0.7,0.4,1.1l-2.1,4.7c-0.1,0.2-0.2,0.3-0.4,0.4C88.3,79.1,88.2,79.1,88.1,79.1L88.1,79.1
		z M86.2,76.6l1.5,0.7l1.5-3.3l-1.5-0.7L86.2,76.6z"/>
</g>
</svg>
