<?xml version="1.0" encoding="utf-8"?>
<!-- Generator: Adobe Illustrator 24.3.0, SVG Export Plug-In . SVG Version: 6.00 Build 0)  -->
<svg version="1.1" id="Layer_1" xmlns="http://www.w3.org/2000/svg" xmlns:xlink="http://www.w3.org/1999/xlink" x="0px" y="0px"
	 viewBox="0 0 126 126" enable-background="new 0 0 126 126" xml:space="preserve">
<g>
	<g>
		<g>
			<path fill="#457AAA" d="M49.1,50.1l-0.9-3.6c-0.6-2.2-2.8-3.6-5-3l-5,1.3c-3.6,0.9-6.2,3.6-7.2,6.9"/>
		</g>
	</g>
	<g>
		<g>
			<path fill="#F3D9BC" d="M13,57.8v15.6c0,1.1,0.9,2.1,2.1,2.1h13.8V55.7H15C13.8,55.7,12.9,56.6,13,57.8L13,57.8z"/>
		</g>
	</g>
	<g>
		<g>
			<path fill="#518DCB" d="M25.8,55.7H20v19.8h4.6c2.8,4.3,7.7,7.2,13.2,7.2H42h0.1H47h7.9c1.6,0,3.2-0.9,3.9-2.3
				c1.4-2.9-1.1-5.8-3.9-5.8c2.2,0,4.3-1.8,4.3-4.1c0-2.2-2.1-4.1-4.3-4.1c2.2,0,4.3-1.8,4.3-4.1s-2.1-4.1-4.3-4.1
				c2.8,0,5.3-2.9,3.9-5.8c-0.7-1.5-2.3-2.3-3.9-2.3l-7.9,0h-5h-4.2C33,50.1,28.7,52.2,25.8,55.7L25.8,55.7z"/>
		</g>
	</g>
	<g>
		<g>
			<path fill="#457AAA" d="M55,58.2c2.8,0,5.3-2.9,3.9-5.8c-0.7-1.5-2.3-2.3-3.9-2.3l-5.8,0c2.2,0,4.1,1.8,4.1,4.1
				c0,1.1-0.5,2-1.2,2.8c-0.7,0.7-0.7,1.9,0,2.6c0.7,0.7,1.2,1.7,1.2,2.8c0,1.1-0.5,2-1.2,2.8c-0.7,0.7-0.7,1.9,0,2.6
				c0.7,0.7,1.2,1.7,1.2,2.8c0,1.1-0.5,2-1.2,2.8c-0.7,0.7-0.7,1.9,0,2.6c0.7,0.7,1.2,1.7,1.2,2.8c0,2.2-1.8,4.1-4.1,4.1l5.8,0
				c1.6,0,3.2-0.9,3.9-2.3c1.4-2.9-1.1-5.8-3.9-5.8c2.2,0,4.3-1.8,4.3-4.1c0-2.2-2.1-4.1-4.3-4.1c2.2,0,4.3-1.8,4.3-4.1
				C59.3,60,57.2,58.2,55,58.2L55,58.2z"/>
		</g>
	</g>
	<g>
		<g>
			<path fill="#C42330" d="M76.9,50.1l0.9-3.6c0.6-2.2,2.8-3.6,5-3l5,1.3c3.6,0.9,6.2,3.6,7.2,6.9"/>
		</g>
	</g>
	<g>
		<g>
			<path fill="#F3D9BC" d="M113,57.8v15.6c0,1.1-0.9,2.1-2.1,2.1H97.1V55.7h13.8C112.1,55.7,113,56.6,113,57.8L113,57.8z"/>
		</g>
	</g>
	<g>
		<g>
			<path fill="#DB4955" d="M100.2,55.7h5.8v19.8h-4.6c-2.8,4.3-7.7,7.2-13.2,7.2H84h-0.1H79h-7.9c-1.6,0-3.2-0.9-3.9-2.3
				c-1.4-2.9,1.1-5.8,3.9-5.8c-2.2,0-4.3-1.8-4.3-4.1c0-2.2,2.1-4.1,4.3-4.1c-2.2,0-4.3-1.8-4.3-4.1s2.1-4.1,4.3-4.1
				c-2.8,0-5.3-2.9-3.9-5.8c0.7-1.5,2.3-2.3,3.9-2.3l7.9,0h5h4.2C93,50.1,97.3,52.2,100.2,55.7L100.2,55.7z"/>
		</g>
	</g>
	<g>
		<g>
			<path fill="#D82F3D" d="M69.2,57.8c0.7-0.5,1.5-0.8,2.4-0.8h8.2h5H89c4.8,0,9.1,2.2,12,5.6h4.9v-6.9h-5.8
				c-2.9-3.4-7.2-5.6-12-5.6H84h-5l-8,0c-1.6,0-3.1,0.8-3.8,2.2C66,54.6,67.3,56.9,69.2,57.8L69.2,57.8z"/>
		</g>
	</g>
	<g>
		<g>
			<path fill="#457AAA" d="M46.1,76h-5.7c-0.8,0-1.5-0.7-1.5-1.5c0-0.8,0.7-1.5,1.5-1.5h5.7c0.8,0,1.5,0.7,1.5,1.5
				C47.6,75.3,46.9,76,46.1,76z"/>
		</g>
	</g>
	<g>
		<g>
			<path fill="#457AAA" d="M46.1,67.9h-5.7c-0.8,0-1.5-0.7-1.5-1.5c0-0.8,0.7-1.5,1.5-1.5h5.7c0.8,0,1.5,0.7,1.5,1.5
				C47.6,67.2,46.9,67.9,46.1,67.9z"/>
		</g>
	</g>
	<g>
		<g>
			<path fill="#457AAA" d="M46.1,59.7h-5.7c-0.8,0-1.5-0.7-1.5-1.5c0-0.8,0.7-1.5,1.5-1.5h5.7c0.8,0,1.5,0.7,1.5,1.5
				C47.6,59,46.9,59.7,46.1,59.7z"/>
		</g>
	</g>
	<g>
		<g>
			<path fill="#C42330" d="M85.6,76h-5.7c-0.8,0-1.5-0.7-1.5-1.5c0-0.8,0.7-1.5,1.5-1.5h5.7c0.8,0,1.5,0.7,1.5,1.5
				C87.1,75.3,86.4,76,85.6,76z"/>
		</g>
	</g>
	<g>
		<g>
			<path fill="#C42330" d="M85.6,67.9h-5.7c-0.8,0-1.5-0.7-1.5-1.5c0-0.8,0.7-1.5,1.5-1.5h5.7c0.8,0,1.5,0.7,1.5,1.5
				C87.1,67.2,86.4,67.9,85.6,67.9z"/>
		</g>
	</g>
	<g>
		<g>
			<path fill="#C42330" d="M85.6,59.7h-5.7c-0.8,0-1.5-0.7-1.5-1.5c0-0.8,0.7-1.5,1.5-1.5h5.7c0.8,0,1.5,0.7,1.5,1.5
				C87.1,59,86.4,59.7,85.6,59.7z"/>
		</g>
	</g>
</g>
</svg>
