<?xml version="1.0" encoding="utf-8"?>
<!-- Generator: Adobe Illustrator 24.3.0, SVG Export Plug-In . SVG Version: 6.00 Build 0)  -->
<svg version="1.1" id="Layer_1" xmlns="http://www.w3.org/2000/svg" xmlns:xlink="http://www.w3.org/1999/xlink" x="0px" y="0px"
	 viewBox="0 0 126 126" enable-background="new 0 0 126 126" xml:space="preserve">
<g>
	<g>
		<path fill="#7DCCED" d="M50,30.7c-2.1,0-4.8-0.5-8-2.1c-1.6-0.8-2.3-2.7-1.5-4.3c0.8-1.6,2.7-2.3,4.3-1.5c5,2.4,6.6,1.5,9.2,0.2
			c2.8-1.4,6.7-3.4,13.7-0.2c1.6,0.7,2.3,2.6,1.6,4.3c-0.7,1.6-2.6,2.3-4.3,1.6c-4.2-1.9-5.6-1.1-8.1,0.1C55.1,29.6,53,30.7,50,30.7
			L50,30.7z"/>
		<path fill="#7DCCED" d="M50,41.7c-2.1,0-4.8-0.5-8-2.1c-1.6-0.8-2.3-2.7-1.5-4.3c0.8-1.6,2.7-2.3,4.3-1.5c5,2.4,6.6,1.5,9.2,0.2
			c2.8-1.4,6.7-3.4,13.7-0.2c1.6,0.7,2.3,2.6,1.6,4.3c-0.7,1.6-2.6,2.3-4.3,1.6c-4.2-1.9-5.6-1.1-8.1,0.1C55.1,40.7,53,41.7,50,41.7
			z"/>
		<path fill="#7DCCED" d="M50,54c-2.1,0-4.8-0.5-8-2.1c-1.6-0.8-2.3-2.7-1.5-4.3c0.8-1.6,2.7-2.3,4.3-1.5c5,2.4,6.6,1.5,9.2,0.2
			c2.8-1.4,6.7-3.4,13.7-0.2c1.6,0.7,2.3,2.6,1.6,4.3C68.5,52,66.6,52.7,65,52c-4.2-1.9-5.6-1.1-8.1,0.1C55.1,53,53,54,50,54L50,54z
			"/>
	</g>
	<path fill="#545178" d="M28.3,49.1c-1.8,0-3.2-1.4-3.2-3.2V16.2c0-1.8,1.4-3.2,3.2-3.2s3.2,1.4,3.2,3.2v29.6
		C31.6,47.6,30.1,49.1,28.3,49.1z"/>
	<path fill="#545178" d="M28.3,65.8c-1.8,0-3.2-1.4-3.2-3.2V57c0-1.8,1.4-3.2,3.2-3.2s3.2,1.4,3.2,3.2v5.6
		C31.6,64.4,30.1,65.8,28.3,65.8z"/>
	<path fill="#F8B77A" d="M41.3,86.2c0-2.5-1-5.2-1.7-6.8c-0.4-0.9-0.3-1.9,0.3-2.6c1-1.5,2.2-4.6-0.1-8.9c0,0-4.1,4.7-5.6,5.2
		c0,0-1.5-2.1-5.9-2.3c-4.4,0.2-5.8,2.3-5.8,2.3c-1.5-0.5-5.6-5.2-5.6-5.2c-2.3,4.3-1.1,7.4-0.1,8.9c0.5,0.8,0.6,1.8,0.3,2.6
		c-0.7,1.6-1.7,4.3-1.7,6.8c0,2.4,4.5,9.4,6,11.8c1.4,2.4,1.7,5.3,0.5,6.8c-0.3,0.4-0.5,1-0.5,1.8c-0.2,3.5,2.4,6.4,5.8,6.4h2.2
		c3.4,0,6.2-2.9,6-6.4c-0.1-0.8-0.2-1.4-0.5-1.8c-1.2-1.5-0.9-4.3,0.5-6.8C36.8,95.6,41.3,88.6,41.3,86.2L41.3,86.2z"/>
	<path fill="#A17B7C" d="M73,69.2c-2.5,0-4.1-2.8-2.7-4.9l19.3-30.8c1.2-2,4.1-2,5.4-0.1l4.6,6.9l7.1-1.8c1.7-0.4,3.5,0.6,3.9,2.3
		c0.4,1.7-0.6,3.5-2.3,3.9l-9.3,2.4c-1.3,0.3-2.7-0.2-3.5-1.3l-3.1-4.6L75.7,67.7C75.1,68.7,74,69.2,73,69.2L73,69.2z"/>
	<path fill="#A17B7C" d="M87.8,70.1c-2.5,0-4.1-2.8-2.7-5l4-6.2l-8.6-4c-1.6-0.8-2.3-2.7-1.6-4.3c0.8-1.6,2.7-2.3,4.3-1.6l12,5.6
		c1.8,0.8,2.4,3,1.4,4.7l-6,9.3C89.9,69.5,88.8,70.1,87.8,70.1L87.8,70.1z"/>
	<path fill="#A17B7C" d="M76.6,39.2c-1.3,0-2.5-0.8-3-2.1c-0.6-1.7,0.2-3.5,1.8-4.2l9.1-3.5c0.8-0.3,1.6-0.3,2.4,0l6.5,2.7
		c1.6,0.7,2.4,2.6,1.7,4.2c-0.7,1.6-2.6,2.4-4.2,1.7L85.7,36C77.2,39.2,77.4,39.2,76.6,39.2z"/>
	<circle fill="#F9CAB3" cx="98.9" cy="23" r="6.1"/>
	<path fill="#7DCCED" d="M56.6,92.2l-3.1,20.4h12.9l1.7-12.7c0.2-1.8,1.8-3.1,3.6-3.1l1.8,0c3.6,0,6.7-2.8,7.1-6.4l0-0.4
		c0.2-1.7,1.6-3.1,3.4-3.1c22.8,0,23.1,0,23.1,0c1.8-3.2,2.1-7.2,0-11.2H62.2c-3.5,0-6.3,3-6.2,6.5L56.6,92.2z"/>
	<path fill="#EB5F79" d="M34.4,57h-12v-5.2c0-3.3,2.7-6,6-6c3.3,0,6,2.7,6,6V57z"/>
</g>
</svg>
