<?xml version="1.0" encoding="utf-8"?>
<!-- Generator: Adobe Illustrator 24.3.0, SVG Export Plug-In . SVG Version: 6.00 Build 0)  -->
<svg version="1.1" id="Layer_1" xmlns="http://www.w3.org/2000/svg" xmlns:xlink="http://www.w3.org/1999/xlink" x="0px" y="0px"
	 viewBox="0 0 126 126" enable-background="new 0 0 126 126" xml:space="preserve">
<g id="Fy6UT6.tif">
	<g>
		<path fill="#D9D9D9" d="M36.6,92.8c-3.2-8.9-6.4-17.7-9.6-26.6c-0.1,0-0.3,0-0.4,0c0,1.8,0,3.6,0,5.4c0,5.1,0.1,10.2,0,15.3
			c0,1.9,0.4,3.4,1.9,4.5c0.5,0.4,1,0.8,1.9,1.5c-6.2,0-11.7,0-17.5,0c0.3-0.3,0.4-0.7,0.7-0.9c2.1-1.5,2.5-3.4,2.5-5.9
			c-0.1-13-0.1-26,0-39c0-2.2-0.4-3.9-2.2-5.1c-0.4-0.3-0.8-0.6-1.1-1.3c0.5,0,1-0.1,1.5-0.1c3.3,0,6.6,0.1,9.8,0
			c1.6-0.1,2.2,0.4,2.7,1.9c3.1,9.5,6.3,19,9.4,28.4c0.1,0.2,0.2,0.5,0.4,1.2c2.7-8.3,5.2-16.1,7.8-24c0.1,0,0.2,0,0.3,0
			c0,2.8-0.2,5.7,0,8.5c0.7,9.2-0.8,17.9-4.5,26.3c-1.4,3.1-2.3,6.5-3.5,9.7C36.9,92.8,36.8,92.8,36.6,92.8z"/>
		<path fill="#D9D9D9" d="M58.3,111.2c-0.4-0.7-0.7-1.1-1-1.5c-2.8-4.9-5.7-9.7-8.4-14.6c-0.6-1.2-1.1-2.6-1.1-3.9
			c-0.1-17.5,0-35,0-52.5c0-0.7,0-1.4,0-2.3c-2,0-3.9,0-6.2,0c5.7-7.3,11.1-14.2,16.7-21.5C58.3,47.1,58.3,79,58.3,111.2z"/>
		<path fill="#D9D9D9" d="M72.4,36.2c-2.2,0-4.1,0-6.3,0c5.6-7.2,11-14.1,16.7-21.4c0.1,0.9,0.1,1.4,0.1,1.9c0,25,0,50,0,75
			c0,0.9-0.3,2-0.7,2.8c-3.1,5.4-6.3,10.8-9.7,16.2C72.4,86,72.4,61.2,72.4,36.2z"/>
		<path fill="#D9D9D9" d="M112.3,40.8c-0.4,0.3-0.6,0.5-0.8,0.6c-4.2,2-7,5.5-9.3,9.4c-2.5,4.2-5.3,8.1-8,12.2
			c-0.5,0.8-0.6,1.3-0.1,2.2c4.5,7.6,9,15.2,13.5,22.8c0.4,0.7,1,1.3,1.6,1.9c1.1,1.1,2.3,2.1,3.8,3.5c-4.5,0-8.5,0-12.5-0.1
			c-0.5,0-1.1-0.7-1.4-1.3c-3.4-5.7-6.7-11.4-10.1-17c-0.4-0.6-0.7-1.2-1.2-2c-0.6,0.8-1.2,1.5-2,2.7c0-1.9,0-3.4,0-4.9
			c0-3.5-0.7-7.2,0.3-10.5c1-3.2,3.6-5.9,5.5-8.9c1.2-1.9,2.4-3.8,3.7-5.5c0.8-1.1,1-2,0-3c-0.5-0.5-0.7-1.1-1.2-1.9
			C100.2,40.8,106.1,40.8,112.3,40.8z"/>
	</g>
</g>
</svg>
