<?xml version="1.0" encoding="utf-8"?>
<!-- Generator: Adobe Illustrator 24.3.0, SVG Export Plug-In . SVG Version: 6.00 Build 0)  -->
<svg version="1.1" id="Layer_1" xmlns="http://www.w3.org/2000/svg" xmlns:xlink="http://www.w3.org/1999/xlink" x="0px" y="0px"
	 viewBox="0 0 126 126" enable-background="new 0 0 126 126" xml:space="preserve">
<g>
	<path fill="#E53951" d="M63,42.5H36.6v11.7c0,4.9,3.9,8.8,8.8,8.8H63h17.6c4.9,0,8.8-3.9,8.8-8.8V42.5H63z"/>
	<path fill="#AE2639" d="M89.4,54.2V42.5H63V63h17.6C85.4,63,89.4,59.1,89.4,54.2z"/>
	<path fill="#384949" d="M80.6,80.6c-1.6,0-2.9-1.3-2.9-2.9v-5.9c0-1.6,1.3-2.9,2.9-2.9c1.6,0,2.9,1.3,2.9,2.9v5.9
		C83.5,79.3,82.2,80.6,80.6,80.6z"/>
	<path fill="#4B6A70" d="M45.4,80.6c-1.6,0-2.9-1.3-2.9-2.9v-5.9c0-1.6,1.3-2.9,2.9-2.9s2.9,1.3,2.9,2.9v5.9
		C48.4,79.3,47,80.6,45.4,80.6z"/>
	<path fill="#4B6A70" d="M89.4,80.6H63H36.6l-5.9,5.9V104H63h32.2V86.4L89.4,80.6z"/>
	<path fill="#384949" d="M95.2,86.4l-5.9-5.9H63V104h32.2V86.4z"/>
	<path fill="#AE2639" d="M65.9,74.7h29.3v11.7H71.8L65.9,74.7z"/>
	<path fill="#E53951" d="M54.2,86.4H30.8V74.7h29.3L54.2,86.4z"/>
	<path fill="#4B6A70" d="M113,77.7v11.7c0,4.9-3.9,14.6-8.8,14.6H89.4V77.7c0-4.9,3.9-8.8,8.8-8.8h6.1C109.1,68.9,113,72.8,113,77.7
		z"/>
	<path fill="#678C97" d="M36.6,77.7V104H21.8c-4.9,0-8.8-9.8-8.8-14.6V77.7c0-4.9,3.9-8.8,8.8-8.8h6.1
		C32.7,68.9,36.6,72.8,36.6,77.7z"/>
	<g>
		<path fill="#E53951" d="M21.8,98.2c-4.9,0-8.8-3.9-8.8-8.8v11.7c0,4.9,3.9,8.8,8.8,8.8h26.6l5.9-5.1l-5.9-6.6H21.8z"/>
		<path fill="#AE2639" d="M104.2,98.2H77.6l-5.9,5.7l5.9,6h26.6c4.9,0,8.8-3.9,8.8-8.8V89.4C113,94.2,109.1,98.2,104.2,98.2z"/>
	</g>
	<path fill="#E53951" d="M71.8,86.4l-5.9-5.9H63h-2.9l-5.9,5.9l-5.9,11.7l5.9,5.9H63h8.8l5.9-5.9L71.8,86.4z"/>
	<path fill="#AE2639" d="M77.6,98.2l-5.9-11.7l-5.9-5.9H63V104h8.8L77.6,98.2z"/>
	<path fill="#EA5C5E" d="M63,98.2H48.4v11.7H63h14.6V98.2H63z"/>
	<path fill="#E53951" d="M63,98.2h14.6v11.7H63V98.2z"/>
	<path fill="#EA5C5E" d="M63,51.3c-4.9,0-8.8,3.9-8.8,8.8v26.4H63h8.8V60.1C71.8,55.2,67.9,51.3,63,51.3z"/>
	<path fill="#E53951" d="M71.8,60.1c0-4.9-3.9-8.8-8.8-8.8v35.2h8.8V60.1z"/>
	<path fill="#384949" d="M105,51.8l-0.1-9.3l-7.4-0.6L88,45.7l1.5,8.4c2.1,1.4,3.8,3.3,4.8,5.8c0.4,1,1.4,1.7,2.4,1.8
		c1.1,0.1,2.1-0.4,2.7-1.3L105,51.8z"/>
	<path fill="#B5C3CF" d="M85.7,38.6l-9.5,3.7l1.1,8.9c1.6,0.4,3.3,0.7,5,0.7c2.6,0,5.1,0.8,7.2,2.1l8-12.1l-3.3-6.7L85.7,38.6z"/>
	<path fill="#384949" d="M74.5,28.8l-8.8,13.2c1.5,2.8,3.6,5.1,6.1,6.7c1.6,1.1,3.5,1.9,5.4,2.4l8.4-12.7l-2.9-10.2L74.5,28.8z"/>
	<path fill="#B5C3CF" d="M102.1,46.1c1.3,1.8,2.2,3.7,2.9,5.8l7.5-11.1c0.5-0.8,0.6-1.9,0.3-2.8c-1.5-3.5-4.1-6.4-7.1-8.4l-9.3,3.5
		l1.2,8.8C99.2,43.1,100.8,44.4,102.1,46.1L102.1,46.1z"/>
	<path fill="#384949" d="M87.1,38.7c3.7,0,7.3,1.2,10.4,3.2l8.2-12.3c-3-2-6.6-3.1-10.4-3.1c-0.5,0-1-0.1-1.5-0.1l-8.9,2.8l0.8,9.3
		C86.2,38.6,86.6,38.7,87.1,38.7L87.1,38.7z"/>
	<path fill="#B5C3CF" d="M85.7,38.6l8.1-12.2c-4.5-0.6-8.2-4.1-10-8.5l-2.2,0.4l-7,10.5c0.5,1.9,1.3,3.7,2.6,5.2
		C79.3,36.7,82.3,38.2,85.7,38.6L85.7,38.6z"/>
	<path fill="#4B6A70" d="M21,51.8l0.1-9.3l7.4-0.6l9.5,3.7l-1.5,8.4c-2.1,1.4-3.8,3.3-4.8,5.8c-0.4,1-1.4,1.7-2.4,1.8
		c-1.1,0.1-2.1-0.4-2.7-1.3L21,51.8z"/>
	<path fill="#DDECF1" d="M40.3,38.6l9.5,3.7l-1.1,8.9c-1.6,0.4-3.3,0.7-5,0.7c-2.6,0-5.1,0.8-7.2,2.1l-8-12.1l3.3-6.7L40.3,38.6z"/>
	<path fill="#4B6A70" d="M51.5,28.8l8.8,13.2c-1.5,2.8-3.6,5.1-6.1,6.7c-1.6,1.1-3.5,1.9-5.4,2.4l-8.4-12.7l2.9-10.2L51.5,28.8z"/>
	<path fill="#DDECF1" d="M23.9,46.1c-1.3,1.8-2.2,3.7-2.9,5.8l-7.5-11.1c-0.5-0.8-0.6-1.9-0.3-2.8c1.5-3.5,4.1-6.4,7.1-8.4l9.3,3.5
		l-1.2,8.8C26.8,43.1,25.2,44.4,23.9,46.1z"/>
	<path fill="#4B6A70" d="M38.9,38.7c-3.7,0-7.3,1.2-10.4,3.2l-8.2-12.3c3-2,6.6-3.1,10.4-3.1c0.5,0,1-0.1,1.5-0.1l8.9,2.8l-0.8,9.3
		C39.8,38.6,39.4,38.7,38.9,38.7z"/>
	<path fill="#DDECF1" d="M40.3,38.6l-8.1-12.2c4.5-0.6,8.2-4.1,10-8.5l2.2,0.4l7,10.5c-0.5,1.9-1.3,3.7-2.6,5.2
		C46.7,36.7,43.7,38.2,40.3,38.6L40.3,38.6z"/>
	<path fill="#678C97" d="M82.6,16.6c-1.3-0.9-3.2-0.5-4,0.8L63,41L47.4,17.4c-0.9-1.3-2.7-1.7-4-0.8c-1.3,0.9-1.7,2.8-0.8,4.1
		l18,27.2c0.6,0.9,1.5,1.3,2.4,1.3c0.9,0,1.9-0.4,2.4-1.3l18-27.2C84.3,19.4,84,17.5,82.6,16.6z"/>
	<path fill="#4B6A70" d="M83.4,20.7c0.9-1.3,0.5-3.2-0.8-4.1c-1.3-0.9-3.2-0.5-4,0.8L63,41v8.2c0.9,0,1.9-0.4,2.4-1.3L83.4,20.7z"/>
</g>
</svg>
