<?xml version="1.0" encoding="utf-8"?>
<!-- Generator: Adobe Illustrator 24.3.0, SVG Export Plug-In . SVG Version: 6.00 Build 0)  -->
<svg version="1.1" id="Layer_1" xmlns="http://www.w3.org/2000/svg" xmlns:xlink="http://www.w3.org/1999/xlink" x="0px" y="0px"
	 viewBox="0 0 126 126" enable-background="new 0 0 126 126" xml:space="preserve">
<g id="XMLID_1_">
	<g id="XMLID_3609_">
		<g id="XMLID_1826_">
			<path id="XMLID_1827_" fill="#EBE9DE" d="M97.2,72.9h2V93h-2V72.9z"/>
		</g>
		<g id="XMLID_1824_">
			<path id="XMLID_1825_" fill="#EBE9DE" d="M91.8,75.1L106,89.3l-1.4,1.4L90.4,76.5L91.8,75.1z"/>
		</g>
		<g id="XMLID_1822_">
			<path id="XMLID_1823_" fill="#EBE9DE" d="M88.1,81.9h20.1v2H88.1V81.9z"/>
		</g>
		<g id="XMLID_1820_">
			<path id="XMLID_1821_" fill="#EBE9DE" d="M104.6,75.1l1.4,1.4L91.8,90.7l-1.4-1.4L104.6,75.1z"/>
		</g>
		<path id="XMLID_1817_" fill="#313C2C" d="M98.3,68.3c-8.1,0-14.7,6.6-14.7,14.7s6.6,14.7,14.7,14.7S113,91.1,113,83
			S106.4,68.3,98.3,68.3z M98.3,92.3c-5.1,0-9.3-4.1-9.3-9.3s4.1-9.3,9.3-9.3s9.3,4.1,9.3,9.3S103.4,92.3,98.3,92.3z"/>
		<path id="XMLID_1816_" fill="#485143" d="M98.6,68.3c-0.9,0-1.8,0-2.7,0.2c-1.3,0.2-1.2,2.2,0.2,2.2h0.2
			c7.8,0.2,14.1,6.6,14.3,14.3v0.2c0,1.3,2,1.5,2.2,0.2c0.1-0.9,0.2-1.8,0.2-2.7C112.8,74.8,106.4,68.5,98.6,68.3z"/>
		<path id="XMLID_1904_" fill="#1C2618" d="M101.7,91.6c-1.3,0.5-2.7,0.7-4.2,0.6c-4.4-0.4-8-4-8.4-8.4c-0.1-1.5,0.1-2.9,0.6-4.2
			c0.1-0.3,0.2-0.6,0.2-0.9c0,0,0,0,0-0.1c0.1-3-4.1-3.9-5.2-1.1c-0.8,1.9-1.1,3.9-1,6c0.3,7.7,6.5,13.9,14.2,14.2
			c2.1,0.1,4.2-0.3,6-1c2.8-1.1,1.9-5.3-1.1-5.2c0,0,0,0-0.1,0C102.3,91.5,102,91.5,101.7,91.6z"/>
		<path id="XMLID_629_" fill="#1C2618" d="M91.3,76.9c0.9-1,2-1.9,3.3-2.4l-2.7-4.8c-1.4,0.7-2.7,1.6-3.8,2.6L91.3,76.9z"/>
		<g id="XMLID_2215_">
			<path id="XMLID_2217_" fill="#313C2C" d="M14.7,61.6l-1.7-1l4-7.1c0.1-0.2,0.2-0.3,0.4-0.4l7.5-4.4l1,1.7l-7.3,4.3L14.7,61.6z"/>
		</g>
		<g id="XMLID_757_">
			<path id="XMLID_760_" fill="#313C2C" d="M83.2,44.9l-2.5-4.2h-6.8v-2h7.3c0.4,0,0.7,0.2,0.8,0.5l2.8,4.6L83.2,44.9z"/>
		</g>
		<g id="XMLID_1911_">
			<path id="XMLID_1912_" fill="#EBE9DE" d="M27.5,72.9h2V93h-2V72.9z"/>
		</g>
		<g id="XMLID_1909_">
			<path id="XMLID_1910_" fill="#EBE9DE" d="M22.1,75.1l14.2,14.2l-1.4,1.4L20.7,76.5L22.1,75.1z"/>
		</g>
		<g id="XMLID_1907_">
			<path id="XMLID_1908_" fill="#EBE9DE" d="M18.4,81.9h20.1v2H18.4V81.9z"/>
		</g>
		<g id="XMLID_1905_">
			<path id="XMLID_1906_" fill="#EBE9DE" d="M34.9,75.1l1.4,1.4L22.1,90.7l-1.4-1.4L34.9,75.1z"/>
		</g>
		<path id="XMLID_1901_" fill="#313C2C" d="M28.6,68.3c-8.1,0-14.7,6.6-14.7,14.7s6.6,14.7,14.7,14.7S43.3,91.1,43.3,83
			S36.7,68.3,28.6,68.3z M28.6,92.3c-5.1,0-9.3-4.1-9.3-9.3s4.1-9.3,9.3-9.3s9.3,4.1,9.3,9.3S33.7,92.3,28.6,92.3z"/>
		<path id="XMLID_1914_" fill="#1C2618" d="M32,91.6c-1.3,0.5-2.7,0.7-4.2,0.6c-4.4-0.4-8-4-8.4-8.4c-0.1-1.5,0.1-2.9,0.6-4.2
			c0.1-0.3,0.2-0.6,0.2-0.9c0,0,0,0,0-0.1c0.1-3-4.1-3.9-5.2-1.1c-0.7,1.8-1.1,3.9-1,6c0.3,7.7,6.5,13.9,14.2,14.2
			c2.1,0.1,4.2-0.3,6-1c2.8-1.1,1.9-5.3-1.1-5.2c0,0,0,0-0.1,0C32.6,91.5,32.3,91.5,32,91.6z"/>
		<path id="XMLID_625_" fill="#1C2618" d="M28.6,68.3c-0.7,0-1.3,0-1.9,0.1v5.5c0.6-0.1,1.2-0.2,1.9-0.2c5.1,0,9.3,4.2,9.3,9.3
			c0,0.7-0.1,1.2-0.2,2h5.5c0.1-0.8,0.1-1.4,0.1-2C43.3,74.9,36.7,68.3,28.6,68.3z"/>
		<path id="XMLID_1625_" fill="#DA3328" d="M46.9,83H28.5V64h0.1c10.1,0,18.3,8.2,18.3,18.3V83z"/>
		<path id="XMLID_590_" fill="#B41918" d="M28.6,64L28.6,64l-0.1,2.8h3.7c0.5,0,1,0.1,1.4,0.4c2,1.1,1.9,4-0.1,5.1l-5,2.6v8.1h18.4
			v-0.7C46.9,72.2,38.7,64,28.6,64z"/>
		<path id="XMLID_1718_" fill="#C3C0AA" d="M55.1,63L28.5,78.2V83h26.5V63z"/>
		<g id="XMLID_525_">
			<path id="XMLID_581_" fill="#EBE9DE" d="M52.6,80.6H32.9c-0.5,0-0.8-0.3-1-0.8c-0.1-0.4,0.1-0.9,0.5-1.1l16.9-9l0.9,1.7
				l-13.4,7.1h15.7V80.6z"/>
		</g>
		<path id="XMLID_1720_" fill="#84454E" d="M46.9,50.4h24.2v32.6H51.6L44.9,63L17.8,46v-5.7H33l4.6,4.5L46.9,50.4z"/>
		<path id="XMLID_523_" fill="#5F252F" d="M17.9,46h8l27,15.6l8.5,0l5.3-7.1h4.4v28.4H51.6L44.9,63L17.9,46z"/>
		<g id="XMLID_1716_">
			<path id="XMLID_1717_" fill="#C3C0AA" d="M95.6,82.3L85.4,64.9l3.4-2L99,80.3c0.6,0.9,0.2,2.2-0.7,2.7
				C97.3,83.6,96.1,83.2,95.6,82.3L95.6,82.3z"/>
		</g>
		<path id="XMLID_2231_" fill="#313C2C" d="M46.9,50.4l-9.3-5.5c0,2.6,1.4,5,3.6,6.3l5.7,3.4h12v-4.1H46.9z"/>
		<path id="XMLID_1719_" fill="#C3C0AA" d="M81.3,54.5H58.9v-4.1c0-2.4,1.8-4.6,4.2-5l12.2-2.2c3.1-0.6,6,1.8,6,5L81.3,54.5
			L81.3,54.5z"/>
		<path id="XMLID_519_" fill="#EBE9DE" d="M75.2,43.1l-12.2,2.2c-2.1,0.4-3.7,2.1-4.1,4.1c0.8-1,1.9-1.8,3.2-2l12.2-2.2
			c3.1-0.6,6,1.8,6,5v4.3h0.8v-6.4C81.2,45,78.4,42.6,75.2,43.1L75.2,43.1z"/>
		<path id="XMLID_592_" fill="#747E6C" d="M81.2,48.2c0-1.3-0.4-2.5-1.2-3.4l-7.5,4.9c-0.8,0.6-1.8,0.8-2.8,0.8H68
			c-2.8,0-5.2-2.3-5.2-5.2c-2.3,0.5-3.9,2.6-3.9,5v4.1h22.3V48.2z"/>
		<g id="XMLID_1713_">
			<path id="XMLID_1994_" fill="#DA3328" d="M17.8,42.5h7.9v2h-7.9V42.5z"/>
		</g>
		<path id="XMLID_1723_" fill="#DA3328" d="M80,28.3h3.5c2.3,0,4.5,0.9,6.1,2.6l17.1,17.6l-3.3,5.9h-4.2L78.8,78.4l1.2,9.9H46.9
			l23.4-33.8l16.1-12.7L80,28.3z"/>
		<path id="XMLID_1714_" fill="#C3C0AA" d="M83.6,28.3l8,9.9c2.4,3,6,4.7,9.8,4.7l-11.7-12C88,29.2,85.9,28.3,83.6,28.3z"/>
		<path id="XMLID_333_" fill="#B41918" d="M86.3,41.9c2,0,3.1-2.2,2.1-3.8l-6.3-9.8H80L86.3,41.9z"/>
		<path id="XMLID_397_" fill="#B41918" d="M92.5,48.4l-7.1,5.9l-6.5,24.1l20.3-24.1L92.5,48.4z"/>
		<path id="XMLID_1715_" fill="#F1E530" d="M95.6,54.3h7.8l-7.6-5.9h-3.3L95.6,54.3z"/>
		<path id="XMLID_758_" fill="#B41918" d="M60.3,82.9h13.6l-0.8-7.7h-9.3v3.3L60.3,82.9z"/>
		<path id="XMLID_2242_" fill="#B41918" d="M63.8,75.2l10.1,7.7l6.2,5.3H46.9L59,70.9L63.8,75.2z"/>
		<g id="XMLID_2190_">
			<path id="XMLID_2250_" fill="#E67469" d="M75,56.2c-0.3,0-0.6-0.1-0.8-0.4c-0.3-0.4-0.3-1,0.2-1.4l13.7-10.8
				c0.4-0.3,1-0.3,1.4,0.2c0.3,0.4,0.3,1-0.2,1.4L75.6,56C75.4,56.1,75.2,56.2,75,56.2z"/>
		</g>
	</g>
</g>
</svg>
