<?xml version="1.0" encoding="utf-8"?>
<!-- Generator: Adobe Illustrator 24.3.0, SVG Export Plug-In . SVG Version: 6.00 Build 0)  -->
<svg version="1.1" id="Layer_1" xmlns="http://www.w3.org/2000/svg" xmlns:xlink="http://www.w3.org/1999/xlink" x="0px" y="0px"
	 viewBox="0 0 126 126" enable-background="new 0 0 126 126" xml:space="preserve">
<g>
	<path fill="#B6D9F3" d="M63.8,48.5c-0.6-0.9-2-0.6-2.3,0.4L59.4,57l8.3-3L63.8,48.5z"/>
	<path fill="#91C6EC" d="M65.6,51l-1.8-2.5c-0.6-0.9-2-0.6-2.3,0.4L59.4,57l5.1-1.8L65.6,51z"/>
	<path fill="#554E56" d="M42.2,53.5l1.3,2.7c0.2,0.4,0.8,0.8,1.2,0.8h4.4l-2.4-5.8c-0.4-1-1.5-1.5-2.5-1.2l-4,1
		C41.1,51.7,41.8,52.5,42.2,53.5L42.2,53.5z"/>
	<path fill="#433F43" d="M46.3,53.5c-0.6-1.3-1.5-2.5-2.5-3.4L40.2,51c0.8,0.6,1.5,1.5,2,2.5l1.3,2.7c0.2,0.4,0.8,0.8,1.2,0.8H48
		L46.3,53.5z"/>
	<path fill="#E84A58" d="M55.2,56.9H44.7c-0.4,0-0.8-0.3-1-0.7l-1.3-2.7c-1.4-2.9-4.6-4.5-7.8-3.7c-8.9,2.2-15.9,8.9-18.7,12
		c-0.9,1-1.4,2.3-1.4,3.7c0,0.2,0,0.3,0,0.5h15.3c1.3-3.3,4.5-5.6,8.2-5.6c4.9,0,8.8,4,8.8,8.8c0,0.2,0,0.4,0,0.6h8.2
		c-1.4-1.8-2.2-4-2.2-6.4C52.9,61,53.7,58.7,55.2,56.9L55.2,56.9z"/>
	<path fill="#E63540" d="M21.9,61.9c2.7-3,8.6-8.8,16.4-12c-1.2-0.4-2.4-0.5-3.7-0.1c-8.9,2.2-15.9,8.9-18.7,12
		c-0.9,1-1.4,2.3-1.4,3.7c0,0.2,0,0.3,0,0.5h5.8C20.4,64.5,20.9,63.1,21.9,61.9L21.9,61.9z"/>
	<path fill="#E84A58" d="M92.6,60.2L90.9,56h-6.4c-1.7,0-3.4-0.1-5.1-0.4l-11.7-1.7l-0.5,0.2c3.5,1.6,6,5.2,6,9.4
		c0,2.4-0.8,4.6-2.2,6.4h12.7c0-0.2,0-0.4,0-0.6c0-4.9,4-8.8,8.8-8.8c0.1,0,0.2,0,0.3,0L92.6,60.2z"/>
	<path fill="#D9ECFA" d="M14.5,65.8c0.2,2.6,2.2,4.8,4.8,5.1l10.4,1.3c-0.3-0.9-0.5-1.9-0.5-3c0-1.2,0.2-2.4,0.7-3.4H14.5z"/>
	<path fill="#B6D9F3" d="M20.4,66.7L20.4,66.7c0-0.1,0-0.1,0-0.2c0,0,0,0,0,0c0-0.1,0-0.2,0-0.4c0-0.1,0-0.2,0-0.3h-5.9
		c0.2,2.6,2.2,4.8,4.8,5.1l4.1,0.5C21.7,70.5,20.6,68.7,20.4,66.7z"/>
	<path fill="#D9ECFA" d="M101.2,69.3c0,1.1-0.2,2.1-0.5,3h7.1c2.1,0,3.7-1.7,3.7-3.7c0-3.2-1.5-6.3-4-8.3l-1.9-1.5
		c-2.2-1.8-4.9-2.7-7.7-2.7h-7.2l1.7,4.4C97.3,60.4,101.2,64.4,101.2,69.3L101.2,69.3z"/>
	<path fill="#B6D9F3" d="M106.5,72.3c0.3-0.9,0.5-1.9,0.5-2.9c0-4.8-3.7-8.7-8.4-9.1c-0.5,0-0.9-0.4-1.1-0.8L96.1,56h-5.4l1.7,4.4
		c4.9,0,8.8,4,8.8,8.8c0,1.1-0.2,2.1-0.5,3L106.5,72.3z"/>
	<path fill="#FFE359" d="M71.1,69.9c1.4-1.8,2.2-4,2.2-6.4c0-4.2-2.5-7.8-6.1-9.4l-7.8,2.9H55c-1.5,1.8-2.3,4.1-2.3,6.6
		c0,2.4,0.8,4.6,2.2,6.4H71.1z"/>
	<path fill="#FAC602" d="M61.6,56.1l-2.2,0.8H55c-1.5,1.8-2.3,4.1-2.3,6.6c0,2.4,0.8,4.6,2.2,6.4h5.9c-1.4-1.8-2.2-4-2.2-6.4
		C58.5,60.6,59.7,58,61.6,56.1L61.6,56.1z"/>
	<path fill="#D9ECFA" d="M83.9,69.7H46.5c-0.1,1.7-0.7,3.2-1.6,4.5h40.5C84.6,72.9,84.1,71.4,83.9,69.7z"/>
	<path fill="#B6D9F3" d="M46.3,71.3c-0.3,1.1-0.7,2.1-1.3,3h40.5c-0.6-0.9-1.1-1.9-1.3-3H46.3z"/>
	<path fill="#554E56" d="M92.4,60.2c-5,0-9,4-9,9s4,9,9,9s9-4,9-9S97.4,60.2,92.4,60.2z"/>
	<path fill="#433F43" d="M89,69.3c0-4,2.6-7.4,6.2-8.6c-0.9-0.3-1.8-0.4-2.8-0.4c-5,0-9,4-9,9s4,9,9,9c1,0,1.9-0.2,2.8-0.4
		C91.6,76.7,89,73.3,89,69.3L89,69.3z"/>
	<circle fill="#D9ECFA" cx="92.4" cy="69.3" r="4.4"/>
	<path fill="#B6D9F3" d="M93.9,69.3c0-1.3,0.6-2.5,1.4-3.3c-0.8-0.7-1.8-1.1-3-1.1c-2.4,0-4.4,2-4.4,4.4c0,2.4,2,4.4,4.4,4.4
		c1.1,0,2.2-0.4,3-1.1C94.5,71.7,93.9,70.6,93.9,69.3z"/>
	<path fill="#554E56" d="M38,60.2c-5,0-9,4-9,9s4,9,9,9s9-4,9-9S43,60.2,38,60.2z"/>
	<path fill="#433F43" d="M34.6,69.3c0-4,2.6-7.4,6.2-8.6C40,60.4,39,60.2,38,60.2c-5,0-9,4-9,9s4,9,9,9c1,0,1.9-0.2,2.8-0.4
		C37.3,76.7,34.6,73.3,34.6,69.3L34.6,69.3z"/>
	<circle fill="#D9ECFA" cx="38" cy="69.3" r="4.4"/>
	<path fill="#B6D9F3" d="M39.6,69.3c0-1.3,0.6-2.5,1.4-3.3c-0.8-0.7-1.8-1.1-3-1.1c-2.4,0-4.4,2-4.4,4.4c0,2.4,2,4.4,4.4,4.4
		c1.1,0,2.2-0.4,3-1.1C40.1,71.7,39.6,70.6,39.6,69.3z"/>
	<path d="M38,63.4c-3.2,0-5.9,2.6-5.9,5.9c0,3.2,2.6,5.9,5.9,5.9c3.2,0,5.9-2.6,5.9-5.9C43.9,66,41.3,63.4,38,63.4z M38,72.2
		c-1.6,0-2.9-1.3-2.9-2.9s1.3-2.9,2.9-2.9s2.9,1.3,2.9,2.9S39.7,72.2,38,72.2z"/>
	<path d="M92.4,63.4c-3.2,0-5.9,2.6-5.9,5.9c0,3.2,2.6,5.9,5.9,5.9c3.2,0,5.9-2.6,5.9-5.9C98.3,66,95.7,63.4,92.4,63.4z M92.4,72.2
		c-1.6,0-2.9-1.3-2.9-2.9s1.3-2.9,2.9-2.9s2.9,1.3,2.9,2.9S94,72.2,92.4,72.2z"/>
	<path d="M106.5,57.6c-2.4-2-5.5-3-8.6-3c-2.1,0-11.9,0-13.4,0c-1.6,0-3.3-0.1-4.9-0.4l-11.1-1.6L65,47.6c-0.6-0.9-1.7-1.3-2.7-1.1
		c-1.1,0.2-1.9,1-2.2,2l-1.8,6.9c-2.3,0-3.3,0-8.2,0l-2-4.7c-0.7-1.7-2.5-2.5-4.2-2.1l-3.1,0.8c-1.9-1.2-4.2-1.6-6.4-1.1
		c-9.1,2.2-16.1,8.8-19.5,12.5c-3.8,4.1-1.3,10.9,4.3,11.6l9.6,1.2c1.6,3.5,5.2,6,9.3,6c3.2,0,6.1-1.5,8-3.8h15.8
		c0.8,0,1.5-0.7,1.5-1.5c0-0.8-0.7-1.5-1.5-1.5H47.7c0.2-0.4,0.3-1,0.4-1.5h34.2c0.1,0.4,0.2,1,0.4,1.5H68.6c-0.8,0-1.5,0.7-1.5,1.5
		c0,0.8,0.7,1.5,1.5,1.5h15.8c1.9,2.3,4.8,3.8,8,3.8c4.1,0,7.6-2.4,9.3-5.8h6.2c2.9,0,5.2-2.3,5.2-5.2
		C113,62.1,108.6,59.2,106.5,57.6z M62.8,49.6l2.5,3.5l-3.8,1.4L62.8,49.6z M44.5,51.4c0.3-0.1,0.7,0.1,0.8,0.4l1.5,3.6h-2l-1.2-2.5
		c-0.2-0.4-0.4-0.8-0.6-1.1L44.5,51.4z M17,62.8c2.5-2.8,9.3-9.5,18-11.6c1.9-0.5,4,0.1,5.3,1.7c0.6,0.7,0.8,1.2,2.1,4
		c0.4,0.9,1.3,1.5,2.3,1.5h7.6c-0.8,1.6-1.2,3.3-1.2,5.1c0,1.7,0.4,3.4,1.1,4.9h-4c-0.4-5.2-4.8-9.4-10.3-9.4c-3.9,0-7.3,2.2-9,5.4
		H16.1C16.3,63.8,16.6,63.2,17,62.8L17,62.8z M27.7,69.2c0,0.5,0.1,1,0.1,1.3l-8.3-1c-1.4-0.2-2.5-1-3.1-2.2h11.6
		C27.8,67.8,27.7,68.5,27.7,69.2L27.7,69.2z M38,76.6c-4.1,0-7.4-3.3-7.4-7.4c0-4.1,3.3-7.4,7.4-7.4c4.1,0,7.4,3.3,7.4,7.4
		C45.4,73.3,42.1,76.6,38,76.6z M55.6,68.4c-1-1.5-1.5-3.1-1.5-4.9c0-1.8,0.6-3.6,1.6-5.1h3.7c0.2,0,0.4,0,0.5-0.1l7.3-2.7
		c1.7,0.9,3.1,2.4,3.9,4.2c0.3,0.7,1.2,1.1,1.9,0.7c0.7-0.3,1.1-1.2,0.7-1.9c-0.4-0.9-0.9-1.8-1.6-2.5l6.9,1
		c1.8,0.3,3.6,0.4,5.4,0.4h5.2l0.6,1.7c-4.4,0.9-7.8,4.6-8.2,9.2h-8.4c0.3-0.6,0.5-1.3,0.7-2c0.2-0.8-0.3-1.6-1.1-1.8
		c-0.8-0.2-1.6,0.3-1.8,1.1c-0.2,1-0.7,1.9-1.2,2.7L55.6,68.4L55.6,68.4z M92.4,76.6c-4.1,0-7.4-3.3-7.4-7.4c0-4.1,3.3-7.4,7.4-7.4
		s7.4,3.3,7.4,7.4C99.8,73.3,96.5,76.6,92.4,76.6z M107.8,70.8h-5.2c0.1-0.4,0.1-1,0.1-1.6c0-5.3-4.1-9.7-9.3-10.2l-0.6-1.5h5
		c2.5,0,4.9,0.8,6.8,2.4c2,1.6,5.4,3.7,5.4,8.7C110.1,69.8,109.1,70.8,107.8,70.8z"/>
	<path d="M79.9,64.2c0.8,0,1.5-0.7,1.5-1.5v-2.4c0-0.8-0.7-1.5-1.5-1.5s-1.5,0.7-1.5,1.5v2.4C78.5,63.6,79.1,64.2,79.9,64.2z"/>
</g>
</svg>
