<?xml version="1.0" encoding="utf-8"?>
<!-- Generator: Adobe Illustrator 24.3.0, SVG Export Plug-In . SVG Version: 6.00 Build 0)  -->
<svg version="1.1" id="Layer_1" xmlns="http://www.w3.org/2000/svg" xmlns:xlink="http://www.w3.org/1999/xlink" x="0px" y="0px"
	 viewBox="0 0 126 126" enable-background="new 0 0 126 126" xml:space="preserve">
<g>
	<path fill-rule="evenodd" clip-rule="evenodd" fill="#FFFFFF" d="M50,13H76c4.8,0,8.7,3.9,8.7,8.7v82.5c0,4.8-3.9,8.7-8.7,8.7H50
		c-4.8,0-8.7-3.9-8.7-8.7V21.7C41.2,16.9,45.2,13,50,13L50,13z"/>
	<path fill-rule="evenodd" clip-rule="evenodd" fill="#E20613" d="M77.8,111.6c0.5-1,1.5-4.2-0.3-7.6c0.5-1.9-0.9-2.3-1.5-6.5
		c0.6-1.2,1-2.7,0.9-4.3c-0.1-1.5-1.2-2.2-1.8-3.3c-0.9-3.8-1.5-7.7-2.9-11.3c-0.5-1.7-1.6-3.2-2.5-4.8c-0.8-4.2-1.2-8.7-2.5-12.7
		c0.2-0.2,0.5-0.4,0.6-0.6c-0.9-3.6-2.2-8.8-4.1-10.4c0.5-1.8,1.2-3.8,1.4-5.4c0.8-1.1,1.8-2.3,3.6-3.2c0.9,2.6,1.4,5.8,1.9,8.4
		c1.2,2.6,2.8,4.9,3.3,7.2c-3,1.2-5,3.9-5,7.2c0,4.2,3.3,7.5,7.5,7.5c3.1,0,5.7-1.9,6.9-4.6l0,37.5
		C83.4,108.1,81.1,110.9,77.8,111.6L77.8,111.6z"/>
	<path fill-rule="evenodd" clip-rule="evenodd" fill="#312782" d="M74.3,111.8c-1.2-2.8-0.5-5.2-0.2-8.4c-0.3-1.5-0.5-2.9-0.8-4.3
		c-1.6-2.5-2.2-4.8-2.6-7.5c-3.1-2.8-6.8-5.2-9.2-8.2c-4.4-4.2-7.6-8.5-9.9-13.3C50.9,70,50.1,70,49.3,70c-1.4-3.8-4.6-8.5-4.3-11.4
		c0.1-2.6,0.9-5,1.9-7.7c-0.9-0.2-1.7,0.1-2.6-0.4c-1.5-0.9-1.2-2.6-1.3-4.1c0.6-2.9,2.2-5.4,3.3-8c1.1-2.3,2.1-4.6,3.1-6.8
		c1.4-1.6,2.3-2.7,4.1-3.5c1.5-0.2,3.1,0.1,4.7-0.3c0.7-0.2,1.6-0.4,1.9-0.9c0.7-1,0.5-2.1,0.8-3.3c-0.9-0.5-0.8-3.2,0.2-4.2
		c0-1.9,0.8-4.4,2.3-5l-13.6-0.1c-3.9,0-7.1,3.2-7.1,7.1v83.4c0,3.9,3.2,7.1,7.1,7.1L74.3,111.8L74.3,111.8z M47.1,94.4h3.1l2.3,7.3
		v-7.3h2.8v12.3h-3.2l-2.3-7.3v7.3h-2.7V94.4L47.1,94.4z M55.8,94.4h3.6c4.8,0,3.5,5.8,1.8,5.9c2.6-0.3,3,6.4-1.3,6.4h-4.1V94.4
		L55.8,94.4z M58.6,96.4v2.8h0.7c1.2,0,1.2-2.8,0-2.8L58.6,96.4L58.6,96.4z M58.6,101.2v3.4h0.7c1.4,0,1.2-3.4,0-3.4L58.6,101.2
		L58.6,101.2z M65.3,94.4h3.8l2.2,12.3h-2.9l-0.2-2.2h-2l-0.4,2.2h-2.8L65.3,94.4L65.3,94.4z M66.4,102.3h1.5l-0.8-6.1L66.4,102.3
		L66.4,102.3z"/>
	<path fill-rule="evenodd" clip-rule="evenodd" fill="#E20613" d="M68.1,14.5c2,1.9,3.2,4.6,1.4,7.9c1.2,0.8-0.9,2.1-1.4,3.2
		c-0.6,1.6-2.6,2.6-2.3,3.2c2.6,1.6,4.6,3.2,7.2,5.2c1.4,1.7,1.9,8.5,2.6,13.7c1.1,3.2,2.7,6,3.3,9.6c2.1,0.8,3.6,2.3,4.5,4.2
		l0-40.2c0-3.9-3.2-7.1-7.1-7.1L68.1,14.5L68.1,14.5z"/>
</g>
</svg>
