<?xml version="1.0" encoding="utf-8"?>
<!-- Generator: Adobe Illustrator 24.3.0, SVG Export Plug-In . SVG Version: 6.00 Build 0)  -->
<svg version="1.1" id="Layer_1" xmlns="http://www.w3.org/2000/svg" xmlns:xlink="http://www.w3.org/1999/xlink" x="0px" y="0px"
	 viewBox="0 0 126 126" enable-background="new 0 0 126 126" xml:space="preserve">
<g>
	<circle fill="#A471AD" cx="63" cy="63" r="50"/>
	<g>
		<circle fill="#935A9F" cx="63" cy="63" r="0.8"/>
		<circle fill="#935A9F" cx="67.7" cy="66.1" r="0.8"/>
		<circle fill="#935A9F" cx="63" cy="69.2" r="0.8"/>
		<circle fill="#935A9F" cx="67.7" cy="72.4" r="0.8"/>
		<circle fill="#935A9F" cx="63" cy="75.5" r="0.8"/>
		<circle fill="#935A9F" cx="67.7" cy="78.6" r="0.8"/>
		<circle fill="#935A9F" cx="63" cy="81.8" r="0.8"/>
		<circle fill="#935A9F" cx="67.7" cy="84.9" r="0.8"/>
		<circle fill="#935A9F" cx="63" cy="88" r="0.8"/>
		<circle fill="#935A9F" cx="67.7" cy="91.1" r="0.8"/>
		<circle fill="#935A9F" cx="63" cy="94.2" r="0.8"/>
		<circle fill="#935A9F" cx="67.7" cy="97.4" r="0.8"/>
		<circle fill="#935A9F" cx="63" cy="100.5" r="0.8"/>
		<circle fill="#935A9F" cx="67.7" cy="103.6" r="0.8"/>
		<circle fill="#935A9F" cx="63" cy="106.8" r="0.8"/>
		<circle fill="#935A9F" cx="67.7" cy="109.9" r="0.8"/>
		<circle fill="#935A9F" cx="63" cy="44.2" r="0.8"/>
		<circle fill="#935A9F" cx="67.7" cy="47.4" r="0.8"/>
		<circle fill="#935A9F" cx="63" cy="50.5" r="0.8"/>
		<circle fill="#935A9F" cx="67.7" cy="53.6" r="0.8"/>
		<circle fill="#935A9F" cx="63" cy="56.8" r="0.8"/>
		<circle fill="#935A9F" cx="67.7" cy="59.9" r="0.8"/>
		<circle fill="#935A9F" cx="63" cy="25.5" r="0.8"/>
		<circle fill="#935A9F" cx="67.7" cy="28.6" r="0.8"/>
		<circle fill="#935A9F" cx="63" cy="31.8" r="0.8"/>
		<circle fill="#935A9F" cx="67.7" cy="34.9" r="0.8"/>
		<circle fill="#935A9F" cx="63" cy="38" r="0.8"/>
		<circle fill="#935A9F" cx="67.7" cy="41.1" r="0.8"/>
		<circle fill="#935A9F" cx="67.7" cy="16.1" r="0.8"/>
		<circle fill="#935A9F" cx="63" cy="19.2" r="0.8"/>
		<circle fill="#935A9F" cx="67.7" cy="22.4" r="0.8"/>
		<circle fill="#935A9F" cx="72.4" cy="63" r="0.8"/>
		<circle fill="#935A9F" cx="77.1" cy="66.1" r="0.8"/>
		<circle fill="#935A9F" cx="72.4" cy="69.2" r="0.8"/>
		<circle fill="#935A9F" cx="77.1" cy="72.4" r="0.8"/>
		<circle fill="#935A9F" cx="72.4" cy="75.5" r="0.8"/>
		<circle fill="#935A9F" cx="77.1" cy="78.6" r="0.8"/>
		<circle fill="#935A9F" cx="72.4" cy="81.8" r="0.8"/>
		<circle fill="#935A9F" cx="77.1" cy="84.9" r="0.8"/>
		<circle fill="#935A9F" cx="72.4" cy="88" r="0.8"/>
		<circle fill="#935A9F" cx="77.1" cy="91.1" r="0.8"/>
		<circle fill="#935A9F" cx="72.4" cy="94.2" r="0.8"/>
		<circle fill="#935A9F" cx="77.1" cy="97.4" r="0.8"/>
		<circle fill="#935A9F" cx="72.4" cy="100.5" r="0.8"/>
		<circle fill="#935A9F" cx="77.1" cy="103.6" r="0.8"/>
		<circle fill="#935A9F" cx="72.4" cy="106.8" r="0.8"/>
		<circle fill="#935A9F" cx="77.1" cy="109.9" r="0.8"/>
		<circle fill="#935A9F" cx="72.4" cy="44.2" r="0.8"/>
		<circle fill="#935A9F" cx="77.1" cy="47.4" r="0.8"/>
		<circle fill="#935A9F" cx="72.4" cy="50.5" r="0.8"/>
		<circle fill="#935A9F" cx="77.1" cy="53.6" r="0.8"/>
		<circle fill="#935A9F" cx="72.4" cy="56.8" r="0.8"/>
		<circle fill="#935A9F" cx="77.1" cy="59.9" r="0.8"/>
		<circle fill="#935A9F" cx="72.4" cy="25.5" r="0.8"/>
		<circle fill="#935A9F" cx="77.1" cy="28.6" r="0.8"/>
		<circle fill="#935A9F" cx="72.4" cy="31.8" r="0.8"/>
		<circle fill="#935A9F" cx="77.1" cy="34.9" r="0.8"/>
		<circle fill="#935A9F" cx="72.4" cy="38" r="0.8"/>
		<circle fill="#935A9F" cx="77.1" cy="41.1" r="0.8"/>
		<circle fill="#935A9F" cx="77.1" cy="16.1" r="0.8"/>
		<circle fill="#935A9F" cx="72.4" cy="19.2" r="0.8"/>
		<circle fill="#935A9F" cx="77.1" cy="22.4" r="0.8"/>
		<circle fill="#935A9F" cx="81.8" cy="63" r="0.8"/>
		<circle fill="#935A9F" cx="86.4" cy="66.1" r="0.8"/>
		<circle fill="#935A9F" cx="81.8" cy="69.2" r="0.8"/>
		<circle fill="#935A9F" cx="86.4" cy="72.4" r="0.8"/>
		<circle fill="#935A9F" cx="81.8" cy="75.5" r="0.8"/>
		<circle fill="#935A9F" cx="86.4" cy="78.6" r="0.8"/>
		<circle fill="#935A9F" cx="81.8" cy="81.8" r="0.8"/>
		<circle fill="#935A9F" cx="86.4" cy="84.9" r="0.8"/>
		<circle fill="#935A9F" cx="81.8" cy="88" r="0.8"/>
		<circle fill="#935A9F" cx="86.4" cy="91.1" r="0.8"/>
		<circle fill="#935A9F" cx="81.8" cy="94.2" r="0.8"/>
		<circle fill="#935A9F" cx="86.4" cy="97.4" r="0.8"/>
		<circle fill="#935A9F" cx="81.8" cy="100.5" r="0.8"/>
		<circle fill="#935A9F" cx="86.4" cy="103.6" r="0.8"/>
		<circle fill="#935A9F" cx="81.8" cy="106.8" r="0.8"/>
		<circle fill="#935A9F" cx="81.8" cy="44.2" r="0.8"/>
		<circle fill="#935A9F" cx="86.4" cy="47.4" r="0.8"/>
		<circle fill="#935A9F" cx="81.8" cy="50.5" r="0.8"/>
		<circle fill="#935A9F" cx="86.4" cy="53.6" r="0.8"/>
		<circle fill="#935A9F" cx="81.8" cy="56.8" r="0.8"/>
		<circle fill="#935A9F" cx="86.4" cy="59.9" r="0.8"/>
		<circle fill="#935A9F" cx="81.8" cy="25.5" r="0.8"/>
		<circle fill="#935A9F" cx="86.4" cy="28.6" r="0.8"/>
		<circle fill="#935A9F" cx="81.8" cy="31.8" r="0.8"/>
		<circle fill="#935A9F" cx="86.4" cy="34.9" r="0.8"/>
		<circle fill="#935A9F" cx="81.8" cy="38" r="0.8"/>
		<circle fill="#935A9F" cx="86.4" cy="41.1" r="0.8"/>
		<circle fill="#935A9F" cx="81.8" cy="19.2" r="0.8"/>
		<circle fill="#935A9F" cx="86.4" cy="22.4" r="0.8"/>
		<circle fill="#935A9F" cx="91.1" cy="63" r="0.8"/>
		<circle fill="#935A9F" cx="95.8" cy="66.1" r="0.8"/>
		<circle fill="#935A9F" cx="91.1" cy="69.2" r="0.8"/>
		<circle fill="#935A9F" cx="95.8" cy="72.4" r="0.8"/>
		<circle fill="#935A9F" cx="91.1" cy="75.5" r="0.8"/>
		<circle fill="#935A9F" cx="95.8" cy="78.6" r="0.8"/>
		<circle fill="#935A9F" cx="91.1" cy="81.8" r="0.8"/>
		<circle fill="#935A9F" cx="95.8" cy="84.9" r="0.8"/>
		<circle fill="#935A9F" cx="91.1" cy="88" r="0.8"/>
		<circle fill="#935A9F" cx="95.8" cy="91.1" r="0.8"/>
		<circle fill="#935A9F" cx="91.1" cy="94.2" r="0.8"/>
		<circle fill="#935A9F" cx="95.8" cy="97.4" r="0.8"/>
		<circle fill="#935A9F" cx="91.1" cy="100.5" r="0.8"/>
		<circle fill="#935A9F" cx="91.1" cy="44.2" r="0.8"/>
		<circle fill="#935A9F" cx="95.8" cy="47.4" r="0.8"/>
		<circle fill="#935A9F" cx="91.1" cy="50.5" r="0.8"/>
		<circle fill="#935A9F" cx="95.8" cy="53.6" r="0.8"/>
		<circle fill="#935A9F" cx="91.1" cy="56.8" r="0.8"/>
		<circle fill="#935A9F" cx="95.8" cy="59.9" r="0.8"/>
		<circle fill="#935A9F" cx="91.1" cy="25.5" r="0.8"/>
		<circle fill="#935A9F" cx="95.8" cy="28.6" r="0.8"/>
		<circle fill="#935A9F" cx="91.1" cy="31.8" r="0.8"/>
		<circle fill="#935A9F" cx="95.8" cy="34.9" r="0.8"/>
		<circle fill="#935A9F" cx="91.1" cy="38" r="0.8"/>
		<circle fill="#935A9F" cx="95.8" cy="41.1" r="0.8"/>
		<circle fill="#935A9F" cx="100.5" cy="63" r="0.8"/>
		<circle fill="#935A9F" cx="105.2" cy="66.1" r="0.8"/>
		<circle fill="#935A9F" cx="100.5" cy="69.2" r="0.8"/>
		<circle fill="#935A9F" cx="105.2" cy="72.4" r="0.8"/>
		<circle fill="#935A9F" cx="100.5" cy="75.5" r="0.8"/>
		<circle fill="#935A9F" cx="105.2" cy="78.6" r="0.8"/>
		<circle fill="#935A9F" cx="100.5" cy="81.8" r="0.8"/>
		<circle fill="#935A9F" cx="105.2" cy="84.9" r="0.8"/>
		<circle fill="#935A9F" cx="100.5" cy="88" r="0.8"/>
		<circle fill="#935A9F" cx="100.5" cy="94.2" r="0.8"/>
		<circle fill="#935A9F" cx="100.5" cy="44.2" r="0.8"/>
		<circle fill="#935A9F" cx="105.2" cy="47.4" r="0.8"/>
		<circle fill="#935A9F" cx="100.5" cy="50.5" r="0.8"/>
		<circle fill="#935A9F" cx="105.2" cy="53.6" r="0.8"/>
		<circle fill="#935A9F" cx="100.5" cy="56.8" r="0.8"/>
		<circle fill="#935A9F" cx="105.2" cy="59.9" r="0.8"/>
		<circle fill="#935A9F" cx="100.5" cy="31.8" r="0.8"/>
		<circle fill="#935A9F" cx="100.5" cy="38" r="0.8"/>
		<circle fill="#935A9F" cx="105.2" cy="41.1" r="0.8"/>
		<circle fill="#935A9F" cx="109.9" cy="63" r="0.8"/>
		<circle fill="#935A9F" cx="109.9" cy="69.2" r="0.8"/>
		<circle fill="#935A9F" cx="109.9" cy="75.5" r="0.8"/>
		<circle fill="#935A9F" cx="109.9" cy="50.5" r="0.8"/>
		<circle fill="#935A9F" cx="109.9" cy="56.8" r="0.8"/>
		<path fill="#935A9F" d="M63.8,113h-1.6c0-0.4,0.4-0.8,0.8-0.8C63.4,112.2,63.8,112.6,63.8,113z"/>
		<path fill="#935A9F" d="M63.8,13c0,0.4-0.3,0.8-0.8,0.8s-0.8-0.4-0.8-0.8H63.8z"/>
	</g>
	<g>
		<path fill="#FFFFFF" d="M42.4,95.1c-0.1,0-0.3,0-0.4-0.1c-1.8-1.2-3.5-2.5-5.1-4c-0.3-0.3-0.3-0.8,0-1.1c0.3-0.3,0.8-0.3,1.1,0
			c1.5,1.4,3.1,2.7,4.9,3.8c0.4,0.2,0.5,0.7,0.2,1.1C42.9,95,42.7,95.1,42.4,95.1z"/>
		<path fill="#FFFFFF" d="M27,53.3c-0.1,0-0.1,0-0.2,0c-0.4-0.1-0.7-0.6-0.5-1c1.1-3.9,2.8-7.5,5.1-10.8c2.5-3.7,5.6-6.9,9.2-9.5
			c0.4-0.3,0.8-0.2,1.1,0.2c0.3,0.3,0.2,0.8-0.2,1.1c-3.4,2.5-6.4,5.6-8.8,9.1c-2.2,3.2-3.8,6.7-4.9,10.4
			C27.7,53.1,27.3,53.3,27,53.3z"/>
		<path fill="#FFFFFF" d="M27.2,74.9c-0.3,0-0.6-0.2-0.7-0.5c-1.2-3.7-1.7-7.5-1.7-11.4c0-0.9,0-1.8,0.1-2.8c0-0.4,0.4-0.7,0.9-0.7
			c0.4,0,0.7,0.4,0.7,0.9c-0.1,0.8-0.1,1.7-0.1,2.6c0,3.7,0.6,7.4,1.7,10.9c0.1,0.4-0.1,0.8-0.5,1C27.4,74.9,27.3,74.9,27.2,74.9z"
			/>
	</g>
	<circle opacity="0.64" fill="#A471AD" enable-background="new    " cx="66.1" cy="66.1" r="28.1"/>
	<path fill="#FFFFFF" d="M61.9,34.9c-15.1,0.6-27.1,13-27.1,28.1c0,0.2,0,0.3,0,0.5c4,1.7,8.3,2.7,12.6,2.9
		C47.8,60.3,49.7,44.7,61.9,34.9z"/>
	<path fill="#84CCD6" d="M47.5,66.4C57.1,66.9,63,63,63,63s-0.4-7,4.8-15.1l0,0c2.4-3.7,5.4-6.9,8.9-9.5c-4.2-2.3-8.9-3.5-13.6-3.5
		c-0.4,0-0.7,0-1.1,0C49.7,44.7,47.8,60.3,47.5,66.4z"/>
	<g>
		<path fill="#FFFFFF" d="M76.6,38.4c-3.5,2.6-6.5,5.8-8.9,9.5c5.1,3.3,17.7,12.8,20.1,28.3C95,62.6,90,45.8,76.6,38.4z"/>
		<path fill="#FFFFFF" d="M39.2,78c8.1,13,25.2,17,38.3,9.1c-0.5-4.3-1.8-8.5-3.8-12.4C68.3,77.5,53.8,83.6,39.2,78z"/>
	</g>
	<g>
		<path fill="#84CCD6" d="M67.8,47.9C62.6,56,63,63,63,63s6.3,3.2,10.7,11.7l0,0c2,3.9,3.3,8.1,3.8,12.4c4.4-2.6,8-6.4,10.4-10.9
			C85.5,60.7,72.9,51.2,67.8,47.9z"/>
		<path fill="#84CCD6" d="M68,66.9c-6.2,3-18.5,7-32.3,2.6c0.7,3,1.9,5.9,3.5,8.5c14.6,5.6,29.1-0.5,34.5-3.3
			C72.2,71.8,70.3,69.2,68,66.9z"/>
	</g>
	<path fill="#F29135" d="M68,66.9c-1.5-1.5-3.2-2.8-5-3.9c0,0-5.9,3.9-15.5,3.4l0,0c-4.4-0.2-8.6-1.2-12.6-2.9c0,2,0.3,4,0.8,6
		C49.5,73.9,61.7,69.8,68,66.9z"/>
	<path fill="#FFE962" d="M63.9,56.8c-0.6,2-0.9,4.1-0.9,6.2c0,0,6.3,3.2,10.7,11.7l0,0c2,3.9,3.3,8.1,3.8,12.4
		c1.7-1,3.4-2.3,4.8-3.7C79.2,69.2,69.5,60.7,63.9,56.8z"/>
	<path fill="#1F72B8" d="M57.1,65.3c2-0.5,4-1.3,5.9-2.3c0,0-0.4-7,4.8-15.1l0,0c2.4-3.7,5.4-6.9,8.9-9.5c-1.8-1-3.6-1.8-5.6-2.3
		C60.3,45.8,57.7,58.5,57.1,65.3z"/>
	
		<linearGradient id="SVGID_1_" gradientUnits="userSpaceOnUse" x1="-6.4747" y1="-488.1347" x2="-11.2583" y2="-492.7554" gradientTransform="matrix(4 0 0 4 108 2034)">
		<stop  offset="0" style="stop-color:#A471AD"/>
		<stop  offset="1" style="stop-color:#A471AD;stop-opacity:0"/>
	</linearGradient>
	<path opacity="0.24" fill="url(#SVGID_1_)" enable-background="new    " d="M82.1,44.5c6.8,14,0.9,30.8-13.1,37.6
		c-7.7,3.7-16.7,3.7-24.5,0c10.6,10.1,27.4,9.7,37.6-0.9C91.9,70.9,91.9,54.8,82.1,44.5z"/>
</g>
</svg>
