<?xml version="1.0" encoding="utf-8"?>
<!-- Generator: Adobe Illustrator 24.3.0, SVG Export Plug-In . SVG Version: 6.00 Build 0)  -->
<svg version="1.1" id="Layer_1" xmlns="http://www.w3.org/2000/svg" xmlns:xlink="http://www.w3.org/1999/xlink" x="0px" y="0px"
	 viewBox="0 0 126 126" enable-background="new 0 0 126 126" xml:space="preserve">
<g>
	<path fill="#CACDE9" d="M19.2,83.6c5.5,1.1,4.7,5.2,10.1,6.3c5.5,1.1,6.3-2.9,11.8-1.8c5.5,1.1,4.7,5.2,10.1,6.3
		c5.5,1.1,6.3-2.9,11.8-1.8c5.5,1.1,4.7,5.2,10.1,6.3c5.5,1.1,6.3-2.9,11.8-1.8c5.5,1.1,4.7,5.2,10.1,6.3c5.5,1.1,6.3-2.9,11.8-1.8
		v11.2H19.2V83.6z"/>
	<path fill="#B2B3DA" d="M19.2,102.7v10.1h70.1c-11.3,0-42.8-8.4-51.5-11.7C32,99,24.1,101,19.2,102.7z"/>
	
		<ellipse transform="matrix(0.9998 -1.799708e-02 1.799708e-02 0.9998 -0.4076 1.4644)" fill="#F8C4AC" cx="81.2" cy="23.4" rx="6.5" ry="6.5"/>
	<path fill="#A17B7C" d="M75.9,27.2c-4.6-0.9-14.1-3.8-17.8-8.6c-1.1-1.4-3.1-1.7-4.5-0.6C52.2,19,51.9,21,53,22.4
		c2.2,2.9,5.7,5.4,10.3,7.5c-3.5,0.3-7.4,0.3-11.1-0.6c-1.7-0.4-3.4,0.7-3.8,2.5c-0.4,1.7,0.7,3.4,2.5,3.8c5.7,1.3,11.7,1,16.5,0.3
		L56.6,47.8c-2.9,3.2-4.4,7.2-4.4,11.4c0,0.8-0.1,3.7-2,6.9c-1.9,3.4-5,5.9-9.1,7.7c-1.6,0.7-2.4,2.6-1.7,4.2
		c0.7,1.6,2.6,2.4,4.2,1.7c9.3-3.9,13.6-11,14.7-17.1c3.1,5.9,2.1,11.8-1.6,17.2c-1.5,2.2,0.1,5,2.7,5c1,0,2-0.5,2.7-1.4
		C69.1,73,67.5,62.1,60,54c0.8-1.4,0-0.4,18.9-21.3c0.8-0.9,1-2,0.7-3C78.1,29.3,76.7,28.4,75.9,27.2z"/>
	<g>
		<path fill="#545178" d="M36.2,48.1c-3,0-4.4-3.8-2-5.7l17.2-14c1.4-1.1,3.4-0.9,4.5,0.5c1.1,1.4,0.9,3.4-0.5,4.5l-17.2,14
			C37.6,47.9,36.9,48.1,36.2,48.1z"/>
		<path fill="#545178" d="M39.1,33.6c-3,0-4.4-3.8-2-5.7l17.2-14c1.4-1.1,3.4-0.9,4.5,0.5c1.1,1.4,0.9,3.4-0.5,4.5l-17.2,14
			C40.5,33.4,39.8,33.6,39.1,33.6L39.1,33.6z"/>
		<path fill="#545178" d="M85.8,91.1c-0.6,0,2.8,0.8-50.8-12.1c-1.7-0.4-2.8-2.1-2.4-3.9c0.4-1.7,2.1-2.8,3.9-2.4l50.1,12
			c1.7,0.4,2.8,2.1,2.4,3.9C88.6,90.1,87.3,91.1,85.8,91.1z"/>
	</g>
</g>
</svg>
