<?xml version="1.0" encoding="utf-8"?>
<!-- Generator: Adobe Illustrator 24.3.0, SVG Export Plug-In . SVG Version: 6.00 Build 0)  -->
<svg version="1.1" id="Layer_1" xmlns="http://www.w3.org/2000/svg" xmlns:xlink="http://www.w3.org/1999/xlink" x="0px" y="0px"
	 viewBox="0 0 126 126" enable-background="new 0 0 126 126" xml:space="preserve">
<g>
	<path fill="#F5F8FC" d="M113,87.5c0,5.5-4.4,9.8-9.7,9.8H22.7c-5.3,0-9.7-4.4-9.7-9.8v-49c0-5.5,4.4-9.8,9.7-9.8h80.6
		c5.3,0,9.7,4.4,9.7,9.8V87.5z"/>
	<path fill="#E2EBF7" d="M22.7,28.6h80.6c5.3,0,9.7,4.4,9.7,9.8v49c0,5.5-4.4,9.8-9.7,9.8"/>
	<g>
		<path fill="#D3E4F3" d="M22.7,28.6h80.6c5.3,0,9.7,4.4,9.7,9.8v17.9"/>
		<path fill="#D3E4F3" d="M113,87.5c0,5.5-4.4,9.8-9.7,9.8H22.7c-5.3,0-9.7-4.4-9.7-9.8"/>
	</g>
	<path fill="#009C4C" d="M75.9,57c0-0.2,0-1,0-1c0.5,0,1.1-0.2,1.8-0.2c0.6,0,1.1,0,1.8,0.2c0.3,0,0.6,0.2,1,0.2
		c2.4,0.5,4.7,1.8,6.5,3.5c2.4,2.4,3.9,5.6,3.9,9.2s-1.3,6.8-3.9,9.2c-2.4,2.4-5.6,3.9-9.2,3.9c-3.4,0-6.8-1.3-9.2-3.9
		c-2.4-2.4-3.9-5.6-3.9-9.2c0-6,4-11,9.5-12.6v1l-0.2,1l0,0c-1.6,0.5-3.1,1.5-4.4,2.7c-2.1,2.1-3.2,5-3.2,7.9c0,3.1,1.1,5.8,3.2,7.9
		c2.1,2.1,5,3.2,7.9,3.2c6.1,0,11.3-5,11.3-11.3c0-3.1-1.1-5.8-3.2-7.9c-2.1-2.1-5-3.2-7.9-3.2c-0.6,0-1.1,0-1.6,0.2
		C75.9,57.8,75.9,57.4,75.9,57"/>
	<g>
		<path fill="#038840" d="M88.2,64.9c0.5,1.3,0.8,2.6,0.8,4c0,1.3-0.2,2.4-0.6,3.5c0.3,0.2,0.6,0.2,1,0.2c0.3,0,0.5,0,0.8,0
			c0.3-1.1,0.5-2.4,0.5-3.5c0-1.5-0.3-2.9-0.6-4.2c-0.2,0-0.3,0-0.6,0C88.8,64.8,88.5,64.8,88.2,64.9z"/>
		<path fill="#038840" d="M66.4,69c0-1.5,0.3-2.9,0.8-4.2c-0.2,0-0.3,0-0.5,0c-0.5,0-1.1,0.2-1.5,0.3c-0.3,1.1-0.6,2.4-0.6,3.9
			c0,1.1,0.2,2.3,0.5,3.2c0.5,0.3,1.1,0.3,1.8,0.3H67C66.7,71.4,66.4,70.3,66.4,69z"/>
	</g>
	<g>
		<path fill="#111516" d="M63,44.1c-7.1,0-12.9,5.8-12.9,12.9c0,3.4,1.3,6.8,3.9,9.2c1.9,1.9,4.2,3.1,6.8,3.5c0.3,0,0.6,0.2,0.8,0.2
			c0.2,0,0.6,0,0.8,0c0.2,0,0.5,0,0.6,0c3.4,0,6.8-1.3,9.2-3.9c2.4-2.4,3.9-5.6,3.9-9.2s-1.3-6.8-3.9-9.2
			C69.8,45.4,66.4,44.1,63,44.1 M74.3,57c0,6.1-5,11.3-11.3,11.3c-0.3,0-0.5,0-0.8,0c-0.3,0-0.6,0-1-0.2c-0.3,0-0.5,0-0.6-0.2
			c-2.1-0.5-4-1.5-5.5-3.1c-2.1-2.1-3.2-5-3.2-7.9c0-3.1,1.1-5.8,3.2-7.9c2.1-2.1,5-3.2,7.9-3.2c3.1,0,5.8,1.1,7.9,3.2
			C73,51.2,74.3,54,74.3,57z"/>
		<path fill="#F6E83D" d="M61.4,69.9c-0.3,0-0.8-0.2-0.8-0.2c-0.5,5.8-5.3,10.3-11.1,10.3c-3.1,0-5.8-1.1-7.9-3.2
			c-2.1-2.1-3.2-5-3.2-7.9c0-3.1,1.1-5.8,3.2-7.9c2.1-2.1,5-3.2,7.9-3.2c3.1,0,5.8,1.1,7.9,3.2c1.9,1.9,3.1,4.4,3.2,6.9
			c0,0,0.3,0.2,0.8,0.2c0.5,0,1,0.2,1,0.2c-0.2-3.2-1.5-6.1-3.7-8.5c-2.4-2.4-5.6-3.9-9.2-3.9c-7.1,0-12.9,5.8-12.9,12.9
			c0,3.5,1.3,6.8,3.9,9.2c2.4,2.4,5.6,3.9,9.2,3.9c3.4,0,6.8-1.3,9.2-3.9c2.3-2.3,3.5-5,3.7-8.1C62.4,69.9,61.7,69.9,61.4,69.9"/>
	</g>
	<path fill="#F1DA05" d="M43.3,59.5c1.8-1.1,3.9-1.8,6.1-1.8c0.3,0,0.6,0,1,0c0-0.2,0-0.3,0-0.5c0-0.5-0.2-0.8-0.2-1.3
		c-0.3,0-0.6,0-0.8,0c-2.4,0-4.8,0.6-6.8,1.9C42.7,58.5,43,59.1,43.3,59.5z"/>
	<g>
		<path fill="#049AD7" d="M36.4,69v-0.8c-0.6,0.2-1.3,0.2-2.1,0.2c-3.1,0-5.8-1.1-7.9-3.2c-2.1-2.1-3.2-5-3.2-7.9
			c0-3.1,1.1-5.8,3.2-7.9c2.1-2.1,5-3.2,7.9-3.2c3.1,0,5.8,1.1,7.9,3.2c2.1,2.1,3.2,5,3.2,7.9c0,4.8-3.1,9-7.4,10.6v1v0.8
			c2.1-0.6,3.9-1.8,5.5-3.2c2.4-2.4,3.9-5.6,3.9-9.2c0-3.5-1.3-6.8-3.9-9.2c-2.4-2.4-5.6-3.9-9.2-3.9c-7.1,0-12.9,5.8-12.9,12.9
			c0,3.4,1.3,6.8,3.9,9.2c2.4,2.4,5.6,3.9,9.2,3.9c0.6,0,1.3,0,2.1-0.2L36.4,69"/>
		<path fill="#E42329" d="M79.6,57.8l-1-0.2c0.2,3.2,1.5,6.1,3.7,8.4c2.4,2.4,5.6,3.9,9.2,3.9c3.4,0,6.8-1.3,9.2-3.9
			c2.4-2.4,3.9-5.6,3.9-9.2s-1.3-6.8-3.9-9.2c-2.4-2.4-5.6-3.9-9.2-3.9c-6.8,0-12.4,5.3-12.9,11.9l1,0.2l0.8,0.2
			c0.2-2.7,1.3-5.2,3.2-7.1c2.1-2.1,5-3.2,7.9-3.2c3.1,0,5.8,1.1,7.9,3.2c2.1,2.1,3.2,5,3.2,7.9c0,6.1-5,11.3-11.3,11.3
			c-1,0-1.9-0.2-2.7-0.3c-1.9-0.5-3.7-1.5-5.2-2.9c-1.9-1.9-3.1-4.4-3.2-6.9L79.6,57.8"/>
	</g>
	<g>
		<path fill="#F1DA05" d="M59.8,64.8c0.5,1,0.6,2.1,0.8,3.2c0,0,0.3,0.2,0.8,0.2c0.5,0,1,0.2,1,0.2c0-1.1-0.3-2.3-0.6-3.4
			c-0.5-0.2-0.8-0.3-1.3-0.3C60.1,64.8,59.9,64.8,59.8,64.8z"/>
		<path fill="#F1DA05" d="M61.4,69.9c-0.3,0-0.8-0.2-0.8-0.2c0,1-0.3,1.9-0.6,2.7c0.2,0,0.3,0,0.3,0c0.5,0,1.1-0.2,1.5-0.3
			c0.2-0.8,0.3-1.6,0.3-2.3C62.4,69.9,61.7,69.9,61.4,69.9z"/>
	</g>
	<g>
		<path fill="#0980BC" d="M36.4,69v-0.8c-0.6,0.2-1.3,0.2-2.1,0.2c-0.3,0-0.6,0-1,0c-0.2,0.3-0.2,0.6-0.2,1.1c0,0.2,0,0.5,0,0.6
			c0.3,0,0.6,0,1,0c0.6,0,1.3,0,2.1-0.2L36.4,69z"/>
		<path fill="#0980BC" d="M40.3,66.7c-0.6,0.3-1.3,0.8-2.1,1v1v0.8c1-0.3,1.9-0.8,2.9-1.3C40.9,67.7,40.6,67,40.3,66.7z"/>
	</g>
	<g>
		<path fill="#038840" d="M75.9,57c0,0.2,0,0.8,0,0.8c0.5-0.2,1.1-0.2,1.6-0.2c0.2,0,0.5,0,0.6,0c0-0.2,0-0.3,0-0.5
			c0-0.5-0.2-0.8-0.2-1.3c-0.2,0-0.3,0-0.5,0c-0.6,0-1.1,0-1.8,0.2C75.9,56.1,75.9,56.9,75.9,57z"/>
		<path fill="#038840" d="M71.2,59.8c0.8-0.6,1.8-1.1,2.7-1.5l0,0l0.2-1v-1c-1.3,0.3-2.6,1-3.7,1.8C70.6,58.8,70.9,59.3,71.2,59.8z"
			/>
	</g>
	<g>
		<path fill="#04883F" d="M88.5,71.4c-1.1,5-5.6,8.7-11,8.7c-3.1,0-5.8-1.1-7.9-3.2c-1.5-1.5-2.6-3.4-3.1-5.5h-1.8
			c0.5,2.6,1.8,4.8,3.5,6.6c2.4,2.4,5.6,3.9,9.2,3.9c3.4,0,6.8-1.3,9.2-3.9c1.8-1.8,3.1-4.2,3.5-6.6H88.5z"/>
		<path fill="#F8DC34" d="M60.3,71.4c-1.1,5-5.6,8.7-11,8.7c-3.1,0-5.8-1.1-7.9-3.2c-1.5-1.5-2.6-3.4-3.1-5.5h-1.8
			c0.5,2.6,1.8,4.8,3.5,6.6c2.4,2.4,5.6,3.9,9.2,3.9c3.4,0,6.8-1.3,9.2-3.9c1.8-1.8,3.1-4.2,3.5-6.6H60.3z"/>
	</g>
</g>
</svg>
