<?xml version="1.0" standalone="no"?>
<!DOCTYPE svg PUBLIC "-//W3C//DTD SVG 20010904//EN"
 "http://www.w3.org/TR/2001/REC-SVG-20010904/DTD/svg10.dtd">
<svg version="1.0" xmlns="http://www.w3.org/2000/svg"
 width="23.000000pt" height="26.000000pt" viewBox="0 0 23.000000 26.000000"
 preserveAspectRatio="xMidYMid meet">

<g transform="translate(0.000000,26.000000) scale(0.100000,-0.100000)"
fill="#000000" stroke="none">
<path d="M50 231 c0 -19 -8 -34 -24 -45 l-25 -16 26 -47 c15 -25 29 -63 33
-82 l5 -36 75 0 75 0 7 40 c4 22 7 79 7 128 l1 87 -90 0 -90 0 0 -29z m41 -13
l1 -33 7 29 c9 43 31 45 32 4 l1 -33 7 30 c3 17 13 30 21 30 8 0 18 -13 21
-30 l7 -30 1 33 c1 22 5 32 14 30 7 -3 13 -28 15 -66 l3 -62 -81 0 -80 0 0 65
c0 51 3 65 15 65 10 0 15 -11 16 -32z m-41 -70 l-1 -43 -15 28 c-12 22 -13 31
-3 43 17 21 19 18 19 -28z m168 -55 c-3 -15 -15 -18 -78 -18 -63 0 -75 3 -78
18 -3 15 6 17 78 17 72 0 81 -2 78 -17z m-78 -58 c0 -22 -4 -25 -35 -25 -31 0
-35 3 -35 25 0 22 4 25 35 25 31 0 35 -3 35 -25z m70 -1 c0 -22 -4 -25 -27
-22 -20 2 -29 9 -31 26 -3 19 1 22 27 22 27 0 31 -4 31 -26z"/>
</g>
</svg>
