<?xml version="1.0" encoding="utf-8"?>
<!-- Generator: Adobe Illustrator 24.3.0, SVG Export Plug-In . SVG Version: 6.00 Build 0)  -->
<svg version="1.1" id="Layer_1" xmlns="http://www.w3.org/2000/svg" xmlns:xlink="http://www.w3.org/1999/xlink" x="0px" y="0px"
	 viewBox="0 0 126 126" enable-background="new 0 0 126 126" xml:space="preserve">
<g>
	<path fill-rule="evenodd" clip-rule="evenodd" fill="#FFFFFF" d="M94.4,80.6L74.2,61.4L65,41.1v31.2l20,19C79,96,71.3,98.8,63,98.8
		S47,96,40.9,91.3l20-19V41.1l-9.1,20.4L31.6,80.6C28.7,75.4,27,69.4,27,63c0-10.2,4.3-19.4,11.1-25.9l-8.8-10.9
		C19.3,35.4,13,48.4,13,63c0,27.5,22.4,49.8,50,49.8h0h0c27.6,0,50-22.3,50-49.8c0-14.6-6.3-27.6-16.3-36.7l-8.8,10.9
		C94.7,43.6,99,52.8,99,63C99,69.4,97.3,75.4,94.4,80.6L94.4,80.6z"/>
	<path fill-rule="evenodd" clip-rule="evenodd" fill="#EE7D00" d="M63,13.2L63,13.2L63,13.2c11.6,0,22.3,3.9,30.8,10.6L85,34.6
		c-6.1-4.7-13.7-7.4-22-7.4c-8.3,0-15.9,2.8-22,7.4l-8.8-10.9C40.7,17.2,51.4,13.2,63,13.2L63,13.2z"/>
</g>
</svg>
