<?xml version="1.0" encoding="utf-8"?>
<!-- Generator: Adobe Illustrator 24.3.0, SVG Export Plug-In . SVG Version: 6.00 Build 0)  -->
<svg version="1.1" id="Layer_1" xmlns="http://www.w3.org/2000/svg" xmlns:xlink="http://www.w3.org/1999/xlink" x="0px" y="0px"
	 viewBox="0 0 126 126" enable-background="new 0 0 126 126" xml:space="preserve">
<path fill="#BE9615" d="M113.6,32.1c-0.2-0.4-0.5-0.8-0.9-1l-7.5-2.7l-1.3-2.3c-0.4-0.7-1.1-1.3-2-1.4l-7.2-1.5
	c-1.9-0.4-3.8,0.4-4.9,2l-10.6,16c-0.7,1.1-1.9,1.9-3.3,2.1c-5.1,0.8-15,2.1-24.2,1.9c-4.4-0.1-8.7,0.6-12.7,2
	c-1.3,0.4-2.4,0.9-3.5,1.5c-2-0.1-14.1-0.5-15.9,7.4c-1.7,7.4,3.6,14.9,4.5,16.1c0,0.1,0,0.2,0,0.2c-0.1,4.6-0.1,5.3-3.3,7.1
	c-6.1,3.6-7.7,5.6-7.8,5.8c-0.2,0.3-0.3,0.6-0.3,0.9l-0.4,15.1c0,0.4,0.1,0.8,0.4,1.1s0.7,0.5,1.1,0.5h6.5c0.5,0,1-0.2,1.3-0.6
	c0.3-0.4,0.4-0.9,0.2-1.4l-0.2-0.5c-0.4-1.3-1.4-2.4-2.6-3c0.1-3.2,1.1-9.1,4.5-10.8c1.6-0.8,3.6-1.8,5.8-3.2c0.3,1.5,0.4,3,0.2,4.3
	c-0.1,0.8,0.4,1.6,1.3,1.8c0.1,0,0.2,0,0.3,0c0.7,0,1.4-0.5,1.5-1.3c0.3-2.1,0.2-4.3-0.5-6.7c0.4-0.3,0.9-0.7,1.3-1.1
	c3.9-3.2,6.4-6.7,7.5-10.3c0.3-1,1.1-3.2,1.2-3.5c0.6-1.2,1.7-2.2,3.1-2.7c1.4-0.5,3.1-0.5,4.4,0.2L65,71.1
	c3.8,1.8,8.1,2.7,12.3,2.8c1.9,9.1,1,16,0.5,18.4c-0.2,1.2-0.1,2.5,0.5,3.6l2.9,5.8c0.3,0.5,0.8,0.9,1.4,0.9h6.2
	c0.6,0,1.1-0.3,1.3-0.8c0.3-0.5,0.3-1.1,0-1.6l-0.6-1c-0.6-1-1.5-1.8-2.6-2.2L86,94.1l1.3-21.3c0.1-1.4,0.5-2.7,1.2-3.8
	c1.6-2.4,3.4-6.7,3.3-13.1c-0.2-7.5,4.8-16.1,6.4-18.5l8.4,0.5c2.4,0.1,4.8-1.1,6.1-3.1l0.9-1.4C113.7,33,113.8,32.5,113.6,32.1z
	 M22.7,56.8c0.7-3.2,4.5-4.4,7.7-4.8c-3,2.6-4.8,5.8-5.4,9.6c-0.3,1.9-0.5,3.6-0.6,5.1C23.1,64,21.9,60.3,22.7,56.8z M106.7,34.8
	l-9.3-0.5c-0.8,0-1.6-0.4-2.1-1.1l-1.6-1.9c-0.5-0.7-1.5-0.8-2.2-0.2c-0.7,0.5-0.8,1.5-0.2,2.2l1.6,1.9c0.6,0.7,1.2,1.2,2,1.6
	c-2.1,3.5-6.4,11.7-6.3,19.3c0.1,5.9-1.7,9.6-2.8,11.3c-1,1.6-1.6,3.4-1.7,5.3l-1.3,21.6c0,0.2,0,0.4,0.1,0.6l1.2,3.9
	c0.1,0.3,0.2,0.5,0.4,0.7h-1.1L81,94.5c-0.2-0.5-0.3-1-0.2-1.6c0.9-4.5,2.2-16.6-4.3-31.3c-0.3-0.8-1.3-1.1-2-0.8
	c-0.8,0.3-1.1,1.3-0.8,2c1.2,2.8,2.1,5.4,2.8,8c-3.5-0.2-7-1-10.2-2.5l-15.3-7.1c-2.1-1-4.6-1.1-6.8-0.2h0c0.5-1.4,0.9-2.1,0.9-2.1
	c0.4-0.8,0-1.7-0.7-2.1c-0.8-0.4-1.7,0-2.1,0.7c-0.1,0.2-1.9,4.1-4.2,11.6c-0.8,2.5-3.8,8.8-15.8,14.6c-6.4,3.1-6.3,14.2-6.3,14.7
	c0,0.6,0.3,1,0.8,1.3h-1.3l0.4-12.9c0.6-0.6,2.5-2.2,6.6-4.7c4.7-2.7,4.7-4.9,4.9-9.7c0.1-2.4,0.2-5.7,0.9-10.5
	c0.8-5.4,4.8-9.4,11.9-11.9c3.7-1.3,7.6-1.9,11.6-1.8c9.4,0.2,19.5-1.1,24.7-1.9c2.2-0.3,4.2-1.6,5.4-3.5l10.6-16
	c0.3-0.5,0.9-0.8,1.5-0.7l-0.3,0.3c-0.6,0.6-0.5,1.6,0.1,2.2c0.3,0.3,0.7,0.4,1.1,0.4c0.4,0,0.8-0.2,1.1-0.5l1.6-1.7l3.7,0.8
	l0.4,0.8c-0.6,0.3-1,0.9-0.9,1.6c0.1,0.8,0.8,1.3,1.5,1.3c0.1,0,0.1,0,0.2,0l1.4-0.2l5.9,2.1C109.1,34.3,107.9,34.9,106.7,34.8z"/>
</svg>
