<?xml version="1.0" encoding="utf-8"?>
<!-- Generator: Adobe Illustrator 24.3.0, SVG Export Plug-In . SVG Version: 6.00 Build 0)  -->
<svg version="1.1" id="Layer_1" xmlns="http://www.w3.org/2000/svg" xmlns:xlink="http://www.w3.org/1999/xlink" x="0px" y="0px"
	 viewBox="0 0 126 126" enable-background="new 0 0 126 126" xml:space="preserve">
<g id="Page-1">
	<g id="_x30_11---Bats-and-Ball" transform="translate(0 -1)">
		<g id="Icons" transform="translate(0 1)">
			<path id="Shape" fill="#EE7C10" d="M62.9,76.3c-0.7,0.4-1.4,0.8-2.1,1.2l-0.1,0.1c-2.5,1.4-4.9,2.9-7.3,4.6l-9.7-9.7
				c1.4-2,2.7-4.1,4-6.2C52.4,70,57.5,73.4,62.9,76.3L62.9,76.3z"/>
			<path id="Shape_1_" fill="#E84639" d="M53.4,82.2C47.8,86,42.7,90.3,37.9,95l-2.4,2.4l-7.1-7.1l2.4-2.4c4.7-4.7,9-9.9,12.8-15.4
				L53.4,82.2z"/>
			<path id="Shape_2_" fill="#EE7C10" d="M35.6,97.4l-7.1,7.1l-7.1-7.1l7.1-7.1L35.6,97.4z"/>
			<path id="Shape_3_" fill="#F39519" d="M109.8,35L81.5,63.2c-1,1-2.2,2.1-3.3,3c-0.2-0.3-0.4-0.7-0.6-1L77.5,65
				c-4.2-7.4-8.5-14.8-14.3-20.7l-0.2-0.2l28-28c0.9-0.9,2.2-1.5,3.5-1.5c1.3,0,2.6,0.5,3.5,1.5l11.8,11.8c0.9,0.9,1.5,2.2,1.5,3.5
				S110.7,34,109.8,35L109.8,35z"/>
			<path id="Shape_4_" fill="#EE7C10" d="M109.8,27.9L98,16.1c-1.6-1.6-4.1-1.9-6-0.8c0.4,0.2,0.7,0.5,1,0.8l11.8,11.8
				c0.9,0.9,1.5,2.2,1.5,3.5c0,1.3-0.5,2.6-1.5,3.5L76.5,63.2l-0.1,0.1c0.3,0.6,0.7,1.2,1,1.8l0.1,0.1c0.2,0.3,0.4,0.7,0.6,1
				c1.1-1,2.3-2,3.3-3L109.8,35c0.9-0.9,1.5-2.2,1.5-3.5C111.2,30.1,110.7,28.8,109.8,27.9L109.8,27.9z"/>
			<path id="Shape_5_" fill="#F39519" d="M28.5,109.2l-1.2,1.2c-0.6,0.6-1.5,1-2.4,1c-0.9,0-1.7-0.4-2.4-1l-7.1-7.1
				c-0.6-0.6-1-1.5-1-2.4s0.4-1.7,1-2.4l1.2-1.2c0.6-0.6,1.5-1,2.4-1s1.7,0.4,2.4,1l7.1,7.1c0.6,0.6,1,1.5,1,2.4
				S29.1,108.5,28.5,109.2L28.5,109.2z"/>
			<path id="Shape_6_" fill="#F39519" d="M28.5,90.3L28.5,90.3"/>
			<path id="Rectangle-path" fill="#EE7C10" d="M90.2,97.4l7.1-7.1l7.1,7.1l-7.1,7.1L90.2,97.4z"/>
			<path id="Shape_7_" fill="#E84639" d="M97.3,90.3l-7.1,7.1L87.9,95c-4.7-4.7-9.9-9-15.4-12.8l9.7-9.7h0c3.8,5.5,8,10.7,12.8,15.4
				L97.3,90.3z"/>
			<path id="Shape_8_" fill="#F39519" d="M82.2,72.5L82.2,72.5l-9.7,9.7c-2.4-1.6-4.8-3.1-7.3-4.6L65,77.5c-0.7-0.4-1.4-0.8-2.1-1.2
				c-5.4-2.9-10.5-6.3-15.3-10.1c-1.2-1-2.3-2-3.3-3L16,35c-1.9-2-1.9-5.1,0-7.1l11.8-11.8c0.9-0.9,2.2-1.5,3.5-1.5
				c1.3,0,2.6,0.5,3.5,1.5l28,28l0.2,0.2c5.8,5.8,10.1,13.3,14.3,20.7l0.1,0.1c0.2,0.3,0.4,0.7,0.6,1C79.4,68.4,80.7,70.5,82.2,72.5
				L82.2,72.5z"/>
			<path id="Shape_9_" fill="#EE7C10" d="M78.2,66.2c-0.2-0.3-0.4-0.7-0.6-1L77.5,65c-4.2-7.4-8.5-14.8-14.3-20.7l-0.2-0.2l-28-28
				c-1.6-1.6-4.1-1.9-6-0.8c0.4,0.2,0.7,0.5,1,0.8l28,28l0.2,0.2c5.8,5.8,10.1,13.3,14.3,20.7l0.1,0.1c0.2,0.3,0.4,0.7,0.6,1
				c1.2,2.1,2.6,4.2,4,6.2h0l-7.7,7.7c1,0.6,2,1.3,3,2l9.7-9.7h0C80.7,70.5,79.4,68.4,78.2,66.2L78.2,66.2z"/>
			<path id="Shape_10_" fill="#F39519" d="M110.3,103.3l-7.1,7.1c-0.6,0.6-1.5,1-2.3,1s-1.7-0.4-2.3-1l-1.2-1.2
				c-0.6-0.6-1-1.5-1-2.4s0.4-1.7,1-2.4l7.1-7.1c0.6-0.6,1.5-1,2.4-1s1.7,0.4,2.4,1l1.2,1.2c0.6,0.6,1,1.5,1,2.4
				C111.2,101.8,110.9,102.6,110.3,103.3z"/>
			<circle id="Oval" fill="#FDDFB1" cx="62.9" cy="61.3" r="25"/>
			<path id="Shape_11_" fill="#DFC39B" d="M62.9,36.3c-0.8,0-1.7,0-2.5,0.1c12.8,1.3,22.5,12,22.5,24.9s-9.7,23.6-22.5,24.9
				c0.8,0.1,1.7,0.1,2.5,0.1c13.8,0,25-11.2,25-25S76.7,36.3,62.9,36.3z"/>
			<path id="Shape_12_" fill="#FDDFB1" d="M100.4,29.6c-0.4,0-0.9-0.2-1.2-0.5l-4.7-4.7l-4.7,4.7c-0.7,0.6-1.7,0.6-2.3,0
				c-0.6-0.6-0.7-1.7,0-2.3l5.9-5.9c0.7-0.7,1.7-0.7,2.4,0l5.9,5.9c0.5,0.5,0.6,1.2,0.4,1.8C101.7,29.2,101.1,29.6,100.4,29.6
				L100.4,29.6z"/>
			<path id="Shape_13_" fill="#FDDFB1" d="M37.3,29.6c-0.4,0-0.9-0.2-1.2-0.5l-4.7-4.7l-4.7,4.7c-0.4,0.4-1,0.6-1.6,0.5
				c-0.6-0.2-1-0.6-1.2-1.2c-0.2-0.6,0-1.2,0.5-1.6l5.9-5.9c0.7-0.6,1.7-0.6,2.4,0l5.9,5.9c0.5,0.5,0.6,1.2,0.4,1.8
				C38.6,29.2,38,29.6,37.3,29.6L37.3,29.6z"/>
			<g>
				<path id="Shape_14_" fill="#E84639" d="M58.1,59.6h-1.7c-0.1-1.7-0.3-3.4-0.6-5.1l1.7-0.4c0.9-0.2,1.4-1.1,1.2-2s-1.1-1.4-2-1.3
					l-1.7,0.4c-0.5-1.7-1-3.3-1.7-4.9l1.6-0.7c0.6-0.2,1-0.8,1-1.4c0.1-0.6-0.2-1.2-0.7-1.5c-0.5-0.3-1.2-0.4-1.7-0.1l-1.6,0.8
					c-0.6-1.2-1.3-2.3-2-3.4c-0.5-0.8-1.6-0.9-2.3-0.4c-0.8,0.5-0.9,1.6-0.4,2.3c0.6,1,1.2,1.9,1.8,2.9l-1.4,0.7
					c-0.8,0.4-1.1,1.4-0.7,2.2c0.4,0.8,1.3,1.2,2.1,0.8l1.5-0.7c0.6,1.4,1.1,2.8,1.5,4.2l-1.6,0.4c-0.6,0.1-1,0.6-1.2,1.1
					c-0.2,0.6,0,1.2,0.4,1.6c0.4,0.4,1,0.6,1.6,0.5l1.6-0.4c0.3,1.4,0.4,2.9,0.5,4.4h-1.6c-0.9,0-1.7,0.7-1.7,1.7
					c0,0.9,0.7,1.7,1.7,1.7H53c-0.1,1.5-0.2,2.9-0.5,4.4L51,67c-0.9-0.2-1.8,0.4-2,1.3c-0.2,0.9,0.4,1.8,1.3,2l1.6,0.4
					c-0.4,1.4-0.9,2.8-1.5,4.2l-1.5-0.7c-0.5-0.3-1.2-0.3-1.7,0.1s-0.8,0.9-0.7,1.5c0.1,0.6,0.4,1.1,1,1.4l1.4,0.7
					c-0.5,1-1.1,2-1.8,3c-0.3,0.5-0.4,1.1-0.1,1.7c0.3,0.5,0.8,0.9,1.4,0.9c0.6,0,1.2-0.2,1.5-0.7c0.7-1.1,1.4-2.2,2-3.4l1.6,0.8
					c0.2,0.1,0.5,0.2,0.7,0.2c0.8,0,1.4-0.5,1.6-1.3c0.2-0.8-0.2-1.5-0.9-1.9l-1.6-0.7c0.7-1.6,1.3-3.2,1.7-4.9l1.7,0.4
					c0.9,0.2,1.8-0.4,2-1.3c0.2-0.9-0.3-1.8-1.2-2l-1.7-0.4c0.3-1.7,0.5-3.4,0.6-5.1h1.7c0.9,0,1.7-0.7,1.7-1.7S59,59.6,58.1,59.6
					L58.1,59.6z"/>
				<path id="Shape_15_" fill="#E84639" d="M79.1,74.9c-0.2-0.4-0.5-0.7-0.9-0.9c-0.4-0.1-0.9-0.1-1.3,0.1l-1.5,0.7
					c-0.6-1.4-1.1-2.8-1.5-4.2l1.6-0.4c0.9-0.2,1.5-1.1,1.3-2s-1.1-1.5-2-1.3l-1.6,0.4c-0.3-1.4-0.4-2.9-0.5-4.4h1.6
					c0.9,0,1.7-0.7,1.7-1.7s-0.7-1.7-1.7-1.7h-1.6c0.1-1.5,0.2-2.9,0.5-4.4l1.6,0.4c0.9,0.2,1.8-0.4,2-1.3s-0.4-1.8-1.3-2L74,52
					c0.4-1.4,0.9-2.8,1.5-4.2l1.5,0.7c0.5,0.3,1.2,0.3,1.7-0.1s0.8-0.9,0.7-1.5c-0.1-0.6-0.4-1.1-1-1.4l-1.4-0.7c0.5-1,1.1-2,1.8-3
					c0.5-0.8,0.3-1.8-0.4-2.3C77.5,39,76.5,39.2,76,40c-0.7,1.1-1.4,2.2-2,3.4l-1.6-0.8c-0.5-0.3-1.2-0.3-1.7,0.1
					c-0.5,0.3-0.8,0.9-0.7,1.5c0.1,0.6,0.4,1.1,1,1.4l1.6,0.7c-0.7,1.6-1.3,3.2-1.7,4.9l-1.7-0.4c-0.9-0.2-1.8,0.4-2,1.3
					s0.3,1.8,1.2,2l1.7,0.4c-0.3,1.7-0.5,3.4-0.6,5.1h-1.7c-0.9,0-1.7,0.7-1.7,1.7s0.7,1.7,1.7,1.7h1.7c0.1,1.7,0.3,3.4,0.6,5.1
					l-1.7,0.4c-0.6,0.1-1.1,0.6-1.3,1.1c-0.2,0.6,0,1.2,0.4,1.6c0.4,0.4,1,0.6,1.6,0.5l1.7-0.4c0.5,1.7,1,3.3,1.7,4.9L70.9,77
					c-0.6,0.2-1,0.8-1,1.4c-0.1,0.6,0.2,1.2,0.7,1.5c0.5,0.3,1.2,0.4,1.7,0.1l1.6-0.8c0.6,1.2,1.3,2.3,2,3.4
					c0.5,0.8,1.6,0.9,2.3,0.4c0.8-0.5,0.9-1.6,0.4-2.3c-0.6-1-1.2-1.9-1.8-2.9l1.4-0.7c0.4-0.2,0.7-0.5,0.9-1
					C79.4,75.7,79.3,75.3,79.1,74.9L79.1,74.9z"/>
			</g>
		</g>
		<g id="Layer_11">
			<path id="Shape_16_" d="M113,32.4c0-1.8-0.7-3.4-2-4.7L99.3,16c-1.2-1.3-2.9-2-4.7-2c-1.8,0-3.5,0.7-4.7,2L69.4,36.5
				c-4.2-1.1-8.5-1.1-12.7,0L36.2,16c-2.6-2.6-6.8-2.6-9.4,0L15,27.7c-2.6,2.6-2.6,6.8,0,9.4l21.6,21.6c-0.2,1.2-0.3,2.4-0.3,3.6
				c0,4.8,1.3,9.5,3.8,13.6c-3.1,4.2-6.5,8.2-10.2,11.9l-2.4,2.4h0l0,0l-6.1,6.1c-1.9-0.9-4.2-0.5-5.7,1l-1.2,1.2
				c-0.9,0.9-1.5,2.2-1.5,3.5s0.5,2.6,1.5,3.5l7.1,7.1c0.9,0.9,2.2,1.5,3.5,1.5c1.3,0,2.6-0.5,3.5-1.5l1.2-1.2
				c1.5-1.5,1.9-3.8,1-5.7l6.1-6.1l0,0v0l2.4-2.4c3.9-3.9,8.1-7.5,12.6-10.7c7.1,3.3,15.3,3.3,22.4,0c4.5,3.3,8.7,6.9,12.6,10.8
				l2.4,2.4c0,0,0,0,0,0s0,0,0,0l6.1,6.1c-0.9,1.9-0.5,4.2,1,5.7l1.2,1.2c0.9,0.9,2.2,1.5,3.5,1.5s2.6-0.5,3.5-1.5l7.1-7.1
				c0.9-0.9,1.5-2.2,1.5-3.5c0-1.3-0.5-2.6-1.5-3.5l-1.2-1.2c-1.5-1.5-3.8-1.9-5.7-1l-8.5-8.5C92.5,84,89,80,85.9,75.8
				c3-5.1,4.3-11,3.4-16.9L111,37.2C112.3,35.9,113,34.2,113,32.4L113,32.4z M17.3,34.8c-1.3-1.3-1.3-3.4,0-4.7l11.8-11.8
				c1.3-1.3,3.4-1.3,4.7,0l19.3,19.3c-7.6,3-13.4,9.4-15.7,17.3L17.3,34.8z M23.9,98.4l4.7-4.7l4.7,4.7l-4.7,4.7L23.9,98.4z
				 M27.4,109l-1.2,1.2c-0.7,0.6-1.7,0.6-2.4,0l-7.1-7.1c-0.3-0.3-0.5-0.7-0.5-1.2s0.2-0.9,0.5-1.2l1.2-1.2c0.6-0.6,1.7-0.6,2.3,0
				c0,0,0,0,0,0l7.1,7.1l0,0C28.1,107.3,28.1,108.4,27.4,109L27.4,109z M36.9,94.8L35.7,96L31,91.3l1.2-1.2
				c3.5-3.6,6.8-7.3,9.9-11.3c1.8,2.3,4.1,4.3,6.5,5.9C44.4,87.8,40.5,91.2,36.9,94.8L36.9,94.8z M108,99.6l1.2,1.2
				c0.3,0.3,0.5,0.7,0.5,1.2s-0.2,0.9-0.5,1.2l-7.1,7.1c-0.3,0.3-0.7,0.5-1.2,0.5s-0.9-0.2-1.2-0.5l-1.2-1.2c-0.7-0.7-0.7-1.7,0-2.4
				l7.1-7.1C106.3,98.9,107.3,98.9,108,99.6L108,99.6z M97.4,103.1l-4.7-4.7l4.7-4.7l4.7,4.7L97.4,103.1z M93.8,90.1l1.2,1.2
				l-4.7,4.7l-1.2-1.2c-3.7-3.7-7.6-7.1-11.8-10.2c2.5-1.6,4.7-3.6,6.5-6C86.9,82.7,90.3,86.6,93.8,90.1L93.8,90.1z M62.9,85.6
				c-12.9,0-23.3-10.4-23.3-23.3S50,39,62.9,39s23.3,10.4,23.3,23.3C86.2,75.2,75.8,85.6,62.9,85.6L62.9,85.6z M108.7,34.8L88.5,55
				c-2.3-7.9-8-14.3-15.6-17.3l19.3-19.3c1.3-1.3,3.4-1.3,4.7,0l11.8,11.8c0.6,0.6,1,1.4,1,2.3C109.7,33.3,109.3,34.2,108.7,34.8z"
				/>
		</g>
	</g>
</g>
</svg>
