<?xml version="1.0" encoding="utf-8"?>
<!-- Generator: Adobe Illustrator 24.3.0, SVG Export Plug-In . SVG Version: 6.00 Build 0)  -->
<svg version="1.1" id="Layer_1" xmlns="http://www.w3.org/2000/svg" xmlns:xlink="http://www.w3.org/1999/xlink" x="0px" y="0px"
	 viewBox="0 0 126 126" enable-background="new 0 0 126 126" xml:space="preserve">
<g>
	<g>
		
			<linearGradient id="SVGID_1_" gradientUnits="userSpaceOnUse" x1="21.6857" y1="104.8947" x2="40.4357" y2="105.4324" gradientTransform="matrix(4 0 0 -4 -39 465)">
			<stop  offset="0" style="stop-color:#BBBDBE"/>
			<stop  offset="1" style="stop-color:#808184"/>
		</linearGradient>
		<circle fill="url(#SVGID_1_)" cx="81.5" cy="44.5" r="31.5"/>
		
			<linearGradient id="SVGID_2_" gradientUnits="userSpaceOnUse" x1="8.7198" y1="105.4917" x2="34.9798" y2="105.1388" gradientTransform="matrix(4 0 0 -4 -39 465)">
			<stop  offset="0" style="stop-color:#BBBDBE"/>
			<stop  offset="1" style="stop-color:#808184"/>
		</linearGradient>
		<path fill="url(#SVGID_2_)" d="M94.5,44.5c0-9.7,3.2-18.3,8.2-23.4c-0.4-0.4-0.8-0.7-1.2-1c-5.2,5.4-8.6,14.3-8.6,24.4
			s3.4,19,8.6,24.4c0.4-0.3,0.8-0.7,1.2-1C97.7,62.7,94.5,54.2,94.5,44.5L94.5,44.5z"/>
		
			<linearGradient id="SVGID_3_" gradientUnits="userSpaceOnUse" x1="8.7196" y1="105.4796" x2="34.9798" y2="105.1268" gradientTransform="matrix(4 0 0 -4 -39 465)">
			<stop  offset="0" style="stop-color:#BBBDBE"/>
			<stop  offset="1" style="stop-color:#808184"/>
		</linearGradient>
		<path fill="url(#SVGID_3_)" d="M90.4,44.5c0-11,3.5-20.6,8.8-26c-0.4-0.3-0.9-0.6-1.3-0.9c-5.4,5.8-9.1,15.7-9.1,26.9
			s3.6,21.1,9.1,26.9c0.5-0.3,0.9-0.6,1.3-0.9C93.9,65.1,90.4,55.4,90.4,44.5L90.4,44.5z"/>
		
			<linearGradient id="SVGID_4_" gradientUnits="userSpaceOnUse" x1="8.7181" y1="105.3701" x2="34.9782" y2="105.0173" gradientTransform="matrix(4 0 0 -4 -39 465)">
			<stop  offset="0" style="stop-color:#BBBDBE"/>
			<stop  offset="1" style="stop-color:#808184"/>
		</linearGradient>
		<path fill="url(#SVGID_4_)" d="M72.7,44.5c0,11-3.5,20.6-8.8,26c0.4,0.3,0.9,0.6,1.3,0.9c5.4-5.8,9-15.7,9-26.9s-3.6-21.1-9-26.9
			c-0.5,0.3-0.9,0.6-1.3,0.9C69.2,23.8,72.7,33.5,72.7,44.5z"/>
		
			<linearGradient id="SVGID_5_" gradientUnits="userSpaceOnUse" x1="8.7179" y1="105.3581" x2="34.978" y2="105.0053" gradientTransform="matrix(4 0 0 -4 -39 465)">
			<stop  offset="0" style="stop-color:#BBBDBE"/>
			<stop  offset="1" style="stop-color:#808184"/>
		</linearGradient>
		<path fill="url(#SVGID_5_)" d="M68.6,44.5c0,9.7-3.2,18.3-8.2,23.4c0.4,0.4,0.8,0.7,1.2,1c5.2-5.4,8.6-14.3,8.6-24.4
			s-3.4-19-8.6-24.4c-0.4,0.3-0.8,0.7-1.2,1C65.4,26.2,68.6,34.7,68.6,44.5L68.6,44.5z"/>
		
			<linearGradient id="SVGID_6_" gradientUnits="userSpaceOnUse" x1="8.7304" y1="106.289" x2="34.9905" y2="105.9362" gradientTransform="matrix(4 0 0 -4 -39 465)">
			<stop  offset="0" style="stop-color:#BBBDBE"/>
			<stop  offset="1" style="stop-color:#808184"/>
		</linearGradient>
		<path fill="url(#SVGID_6_)" d="M112.3,37.9c-0.1-0.5-0.2-1.1-0.4-1.6c-7,4.9-18,8.1-30.4,8.1s-23.3-3.2-30.4-8.1
			c-0.1,0.5-0.3,1.1-0.4,1.6c7.4,5,18.4,8.1,30.8,8.1S105,42.9,112.3,37.9L112.3,37.9z"/>
		
			<linearGradient id="SVGID_7_" gradientUnits="userSpaceOnUse" x1="8.7157" y1="105.1896" x2="34.9758" y2="104.8368" gradientTransform="matrix(4 0 0 -4 -39 465)">
			<stop  offset="0" style="stop-color:#BBBDBE"/>
			<stop  offset="1" style="stop-color:#808184"/>
		</linearGradient>
		<path fill="url(#SVGID_7_)" d="M113,42.8c0-0.6-0.1-1.1-0.1-1.7c-7.9,4.5-19,7.4-31.3,7.4s-23.3-2.8-31.3-7.4
			c-0.1,0.6-0.1,1.1-0.1,1.7c8.1,4.5,19.2,7.3,31.4,7.3S104.8,47.3,113,42.8z"/>
		
			<linearGradient id="SVGID_8_" gradientUnits="userSpaceOnUse" x1="14.1573" y1="96.2389" x2="35.7298" y2="95.0292" gradientTransform="matrix(4 0 0 -4 -39 465)">
			<stop  offset="0" style="stop-color:#BBBDBE"/>
			<stop  offset="1" style="stop-color:#808184"/>
		</linearGradient>
		<circle fill="url(#SVGID_8_)" cx="44.5" cy="81.5" r="31.5"/>
		
			<linearGradient id="SVGID_9_" gradientUnits="userSpaceOnUse" x1="10.2198" y1="99.1587" x2="24.5595" y2="94.2444" gradientTransform="matrix(4 0 0 -4 -39 465)">
			<stop  offset="0" style="stop-color:#BBBDBE"/>
			<stop  offset="1" style="stop-color:#808184"/>
		</linearGradient>
		<path fill="url(#SVGID_9_)" d="M26.7,82c0-15.7,6.5-28.9,15-31.7c-1.6,0.1-3.2,0.4-4.7,0.8c-7,5.3-11.9,17.2-11.9,31
			c0,12.8,4.2,24,10.5,29.8c1.2,0.4,2.5,0.6,3.8,0.9C32,108.3,26.7,96.2,26.7,82z"/>
		
			<linearGradient id="SVGID_10_" gradientUnits="userSpaceOnUse" x1="9.9666" y1="98.4203" x2="24.3063" y2="93.506" gradientTransform="matrix(4 0 0 -4 -39 465)">
			<stop  offset="0" style="stop-color:#BBBDBE"/>
			<stop  offset="1" style="stop-color:#808184"/>
		</linearGradient>
		<path fill="url(#SVGID_10_)" d="M26.8,107.6c0.9,0.6,1.8,1.2,2.8,1.7c-4.2-6.4-6.9-16.3-6.9-27.3c0-11.8,3.1-22.2,7.8-28.6
			c-1,0.5-2,1.1-3,1.7c-4,6.7-6.5,16.3-6.5,26.9C21.1,91.9,23.3,101,26.8,107.6z"/>
		
			<linearGradient id="SVGID_11_" gradientUnits="userSpaceOnUse" x1="10.6014" y1="100.2729" x2="24.9412" y2="95.3586" gradientTransform="matrix(4 0 0 -4 -39 465)">
			<stop  offset="0" style="stop-color:#BBBDBE"/>
			<stop  offset="1" style="stop-color:#808184"/>
		</linearGradient>
		<path fill="url(#SVGID_11_)" d="M44.1,83.2c0-14.9,7.6-27.1,17.2-28.1c-0.7-0.4-1.4-0.9-2.1-1.2c-9.5,2.4-16.7,14.7-16.7,29.4
			c0,12.7,5.4,23.5,12.9,27.8c0.7-0.2,1.3-0.5,1.9-0.8C49.7,106.7,44.1,95.9,44.1,83.2z"/>
		
			<linearGradient id="SVGID_12_" gradientUnits="userSpaceOnUse" x1="10.4932" y1="99.957" x2="24.8329" y2="95.0427" gradientTransform="matrix(4 0 0 -4 -39 465)">
			<stop  offset="0" style="stop-color:#BBBDBE"/>
			<stop  offset="1" style="stop-color:#808184"/>
		</linearGradient>
		<path fill="url(#SVGID_12_)" d="M40.1,83.2c0-15.9,7.4-29,16.8-30.5c-0.8-0.4-1.7-0.7-2.6-1c-9,3.2-15.8,16.1-15.8,31.5
			c0,13,4.8,24.2,11.7,29.3c0.7-0.1,1.4-0.3,2.1-0.5C45.2,107.7,40.1,96.4,40.1,83.2L40.1,83.2z"/>
		<g>
			
				<linearGradient id="SVGID_13_" gradientUnits="userSpaceOnUse" x1="10.2595" y1="99.2749" x2="24.5992" y2="94.3606" gradientTransform="matrix(4 0 0 -4 -39 465)">
				<stop  offset="0" style="stop-color:#BBBDBE"/>
				<stop  offset="1" style="stop-color:#808184"/>
			</linearGradient>
			<path fill="url(#SVGID_13_)" d="M75.8,79.5c0-0.6-0.1-1.3-0.2-1.9c-6.5,6.6-21.5,11.2-38.9,11.2c-8.7,0-16.8-1.2-23.5-3.1
				c0.1,0.6,0.2,1.1,0.3,1.7c6.7,1.9,14.7,3.1,23.2,3.1C53.8,90.4,68.5,86,75.8,79.5L75.8,79.5z"/>
		</g>
		<circle fill="none" cx="44.5" cy="81.5" r="31.5"/>
		
			<linearGradient id="SVGID_14_" gradientUnits="userSpaceOnUse" x1="10.6064" y1="100.2875" x2="24.9462" y2="95.3731" gradientTransform="matrix(4 0 0 -4 -39 465)">
			<stop  offset="0" style="stop-color:#BBBDBE"/>
			<stop  offset="1" style="stop-color:#808184"/>
		</linearGradient>
		<path fill="url(#SVGID_14_)" d="M75.1,74.4c-0.1-0.6-0.3-1.2-0.5-1.8C69,79.7,54.1,84.8,36.8,84.8c-8.9,0-17.1-1.3-23.8-3.6
			c0,0.1,0,0.2,0,0.4c0,0.4,0,0.8,0,1.3c6.8,2.3,14.9,3.6,23.8,3.6C53.9,86.4,68.6,81.4,75.1,74.4z"/>
	</g>
	
		<linearGradient id="SVGID_15_" gradientUnits="userSpaceOnUse" x1="30.5403" y1="92.8387" x2="36.9919" y2="92.8387" gradientTransform="matrix(4 0 0 -4 -39 465)">
		<stop  offset="0" style="stop-color:#DF5D63"/>
		<stop  offset="0.4062" style="stop-color:#DD585F"/>
		<stop  offset="0.8264" style="stop-color:#D34B53"/>
		<stop  offset="1" style="stop-color:#CD444C"/>
	</linearGradient>
	<circle fill="url(#SVGID_15_)" cx="96.1" cy="93.6" r="12.9"/>
</g>
</svg>
