<?xml version="1.0" encoding="utf-8"?>
<!-- Generator: Adobe Illustrator 24.3.0, SVG Export Plug-In . SVG Version: 6.00 Build 0)  -->
<svg version="1.1" id="Layer_1" xmlns="http://www.w3.org/2000/svg" xmlns:xlink="http://www.w3.org/1999/xlink" x="0px" y="0px"
	 viewBox="0 0 126 126" enable-background="new 0 0 126 126" xml:space="preserve">
<g>
	<path fill="#424852" d="M34.3,26.1c-0.1-2.5-0.6-4.9-1.4-7.3c-0.4-1-0.2-2.2,0.4-3.1s1.7-1.4,2.8-1.5c2.7-0.1,5.4,0.1,8.1,0.5
		l4,0.6c5.8,1.6,11.2,4.3,16,8c11.2,8.5,20.5,19.2,27.4,31.4c0.8,2.3,1.1,4.7,0.8,7.1c-1.7-0.4-3.5-0.5-5.3-0.5c-1,0-2,0.1-2.9,0.2
		h-0.1c-8.7-10.4-43.9-28.9-50.4-32.9C33,28.1,34.4,26.2,34.3,26.1z"/>
	<path fill="#927662" d="M84.1,61.5L73.3,109c-1.2,0.8-2.6,1.6-3.3,2l-1.7,1c-3.2,1.9-7.3,1.1-9.7-1.8c-6-7.7-12.5-22.3-16.3-31.3
		c-0.5-1.1-0.9-2.2-1.3-3.1c-3.7,2.6-6.2,4.1-9.3,9.6c-0.8,1.4-1.7,2.9-2.6,4.3l-2.2,3.2c-0.8,1.2-2,2-3.4,2.2s-2.8-0.1-4-1
		l-3.1-2.3c-3.5-2.6-4.5-7.4-2.5-11.3c2.9-5.6,6.6-13.9,6.6-21.1c0-11.5-6.3-15.2,5.2-27.5c0,0,0,0,0,0c-0.8-0.9-1.4-1.9-2.1-2.9
		c-1.9-3.1-4.3-8.3-2.4-13.3c0.2-0.5,0.6-0.9,1.1-1.1c0.5-0.2,1.1-0.1,1.5,0.2c3.7,2.6,6.8,5.9,9.2,9.8c0.3,0.5,0.7,1,1.2,1.3
		c0.8,0.7,1.9,1,2.9,0.9l0.4,0c2-0.1,3.7-1.6,3.9-3.6c0.4-3,1.3-5.9,2.6-8.7c0.2-0.3,0.4-0.7,0.6-1c0.4-0.6,1.1-0.8,1.7-0.7
		c0.7,0.1,1.2,0.6,1.4,1.3c0.1,0.3,0.2,0.7,0.3,1c0.3,1,0.6,2,0.9,3c0.1,0.3,0.2,0.6,0.3,0.8c0.2,0.5,0.3,1,0.5,1.5
		c0.6,2,1.1,4.1,1.3,6.2c0,0.9,0.4,1.7,1.1,2.3C63.6,39.1,74.3,49.9,84.1,61.5z"/>
	<path fill="#927662" d="M61.5,83.7c-0.2,1.1-0.2,2.3-0.2,3.4"/>
	<path fill="#FFFFFF" d="M46.4,47.5c0,0-1.9,3.4-4.3,3.4c-2.4,0-4.3-3.4-4.3-3.4s1.9-3.4,4.3-3.4C44.5,44,46.4,47.5,46.4,47.5z"/>
	<path fill="#E1AB40" d="M113,87.1c0,14.3-11.6,25.9-25.9,25.9c-14.3,0-25.8-11.6-25.9-25.9c0-1.2,0.1-2.3,0.2-3.4
		c1-7.9,5.6-14.8,12.5-18.8c1.8-1.1,3.8-2,5.8-2.6c1.4-0.4,2.8-0.7,4.3-0.9h0.1c1-0.1,2-0.2,2.9-0.2c1.8,0,3.5,0.2,5.3,0.5
		C104.4,64.3,113,74.9,113,87.1z"/>
	<path fill="#FDCC57" d="M106.1,87.1c0,10.5-8.5,19-19,19s-19-8.5-19-19c0-10.5,8.5-19,19-19S106.1,76.7,106.1,87.1z"/>
	<path fill="#9EC86C" d="M41.2,75.8c-1.8,1.2-3.5,2.5-5.1,3.9c-3.9-5.9-10-10-16.9-11.3c0.8-2.7,1.3-5.4,1.4-8.2
		C29.4,62.1,36.9,67.8,41.2,75.8z"/>
	<path fill="#89BF53" d="M27.5,57.8c0,1.5-0.1,3.1-0.4,4.6c-2.1-1-4.2-1.7-6.5-2.2c0-0.2,0-0.4,0-0.7c0-11.5-6.3-15.2,5.2-27.5
		c0.1,0.4,1.2,4.6,8.1,1.7C20.4,46.1,27.5,49.9,27.5,57.8z"/>
	<path fill="#D49C37" d="M113,87.1c0,14.3-11.6,25.9-25.9,25.9c-0.6,0-1.2,0-1.8-0.1c13.6-0.9,24.2-12.2,24.2-25.8
		c0-13.6-10.6-24.9-24.2-25.8c0.6-0.1,1.2-0.1,1.7-0.1C101.4,61.3,113,72.9,113,87.1z"/>
	<path fill="#EEBC50" d="M106.1,87.1c0,10.5-8.5,19-19,19c-0.9,0-1.7-0.1-2.6-0.2c9.4-1.3,16.4-9.3,16.4-18.8
		c0-9.5-7-17.5-16.4-18.8c0.9-0.1,1.7-0.2,2.6-0.2C97.6,68.2,106.1,76.7,106.1,87.1z"/>
	<path fill="#836956" d="M84.1,61.5c-1,0.1-1.9,0.3-2.8,0.5C71.1,50.4,60.2,39.4,48.7,29.1c-0.7-0.6-1.1-1.4-1.1-2.3
		c-0.2-2.1-0.6-4.2-1.3-6.2c-0.1-0.5-0.3-1-0.5-1.5c-0.1-0.3-0.2-0.6-0.3-0.8c-0.3-1-0.6-1.9-0.9-3c-0.1-0.3-0.2-0.7-0.3-1v0
		c0.1-0.2,0.2-0.4,0.3-0.6c0.4-0.6,1.1-0.8,1.7-0.7c0.7,0.1,1.2,0.6,1.4,1.3c0.1,0.3,0.2,0.7,0.3,1c0.3,1,0.6,2,0.9,3
		c0.1,0.3,0.2,0.6,0.3,0.8c0.2,0.5,0.3,1,0.5,1.5c0.6,2,1.1,4.1,1.3,6.2c0,0.9,0.4,1.7,1.1,2.3C63.6,39.1,74.3,49.9,84.1,61.5z"/>
	<path fill="#363E47" d="M92.4,61.8c-1.2-0.2-2.4-0.4-3.6-0.5c0.2-2.2,0-4.5-0.8-6.6c-7-12.2-16.3-22.9-27.4-31.4
		c-3.6-2.8-7.7-5.1-12.1-6.7c-0.1-0.4-0.3-0.9-0.4-1.3c5.8,1.6,11.2,4.3,16,8c11.2,8.5,20.5,19.2,27.4,31.4
		C92.4,57,92.7,59.4,92.4,61.8z"/>
	<g>
		<path fill="#836956" d="M50.4,72.5c-2.2,2.2-4.7,4.3-7.2,6.1c-0.2,0.2-0.5,0.3-0.7,0.3c-0.5-1.1-0.9-2.2-1.3-3.1
			c2.4-1.7,4.7-3.6,6.8-5.7c10.3-10.3,4.8-25.6,4.8-25.8c-0.3-0.9,0.1-1.9,1-2.2c0.9-0.3,1.9,0.1,2.2,1
			C56.2,43.8,62.3,60.6,50.4,72.5z"/>
		<path fill="#836956" d="M27.9,29.7L27.9,29.7c-0.5,0.5-1.4,1.4-2.2,2.3c-0.8-0.9-1.4-1.9-2.1-2.9c0.7-0.7,1.3-1.4,1.7-1.8
			c0.3-0.3,0.8-0.5,1.2-0.5c0.5,0,0.9,0.2,1.2,0.5c0.3,0.3,0.5,0.7,0.5,1.2C28.4,28.9,28.2,29.4,27.9,29.7z"/>
		<path fill="#836956" d="M25.8,81.9c-0.5,0-0.9-0.2-1.2-0.5c-0.1-0.2-0.3-0.3-0.5-0.3c-0.2,0-0.4,0.1-0.5,0.3
			c-0.4,0.4-1.1,0.6-1.7,0.5c-0.6-0.2-1.1-0.6-1.2-1.2c-0.2-0.6,0-1.2,0.5-1.7c1.6-1.6,4.3-1.6,5.9,0c0.5,0.5,0.6,1.2,0.4,1.9
			C27.1,81.5,26.4,81.9,25.8,81.9z"/>
	</g>
	<path fill="#E1AB40" d="M90.6,92.3h-1.7V80.2c0-0.7-0.4-1.3-1.1-1.6c-0.6-0.3-1.4-0.1-1.9,0.4l-3.4,3.4c-0.7,0.7-0.6,1.8,0,2.4
		c0.7,0.7,1.7,0.7,2.4,0l0.5-0.5v7.9h-1.7c-1,0-1.7,0.8-1.7,1.7s0.8,1.7,1.7,1.7h6.9c1,0,1.7-0.8,1.7-1.7S91.5,92.3,90.6,92.3z"/>
	<path fill="#424852" d="M42.4,47.5c0,1-0.8,1.8-1.8,1.8c-1,0-1.8-0.8-1.8-1.8c0-1,0.8-1.8,1.8-1.8C41.6,45.8,42.4,46.5,42.4,47.5z"
		/>
</g>
</svg>
