<?xml version="1.0" encoding="utf-8"?>
<!-- Generator: Adobe Illustrator 24.3.0, SVG Export Plug-In . SVG Version: 6.00 Build 0)  -->
<svg version="1.1" id="Layer_1" xmlns="http://www.w3.org/2000/svg" xmlns:xlink="http://www.w3.org/1999/xlink" x="0px" y="0px"
	 viewBox="0 0 126 126" enable-background="new 0 0 126 126" xml:space="preserve">
<g>
	<g transform="translate(1 1)">
		<path fill="#CED7DB" d="M110.3,62c0,12.8-5.1,25.1-14.1,34.2S74.8,110.3,62,110.3c-0.8,0-1.7,0-2.5-0.1c-9-0.5-17.7-3.4-25.1-8.6
			c-4.7-3.3-8.8-7.4-12.2-12.2c-4-5.7-6.6-12.1-7.9-19c-1-5.7-1-11.5,0-17.2c1.2-6.8,3.9-13.3,7.9-19c7.3-10.5,18.5-17.7,31.1-20
			c2-0.4,4.1-0.6,6.1-0.7c0.8-0.1,1.7-0.1,2.5-0.1c12.8,0,25.1,5.1,34.2,14.1S110.3,49.2,110.3,62z"/>
		<path fill="#F3F2F3" d="M105.3,62c0,25.7-20.1,47-45.8,48.3c-9-0.5-17.7-3.4-25.1-8.6c-4.7-3.3-8.8-7.4-12.2-12.2
			c-4-5.7-6.6-12.1-7.9-19c-1-5.7-1-11.5,0-17.2c1.2-6.8,3.9-13.3,7.9-19c7.3-10.5,18.5-17.7,31.1-20c2-0.4,4.1-0.6,6.1-0.7
			c9,0.5,17.7,3.4,25.1,8.6C97.6,31.3,105.4,46.2,105.3,62z"/>
		<g>
			<path fill="#C42828" d="M72.7,14.9l-4.8,14.3c-1.6-0.3-3.2-0.5-4.8-0.5c-0.4,0-0.7,0-1.1,0c-0.8,0-1.7,0-2.5,0.1
				c-1.2,0.1-2.3,0.2-3.4,0.4l-0.2-0.5l-4.6-13.8c2.7-0.6,5.5-1,8.2-1.1c0.8-0.1,1.7-0.1,2.5-0.1C65.6,13.7,69.2,14.1,72.7,14.9z"/>
			<path fill="#C42828" d="M43,34.6c-3.3,2.3-6.1,5.1-8.4,8.4L31,41.2l-9.9-4.9c3-4.8,6.9-9.1,11.5-12.6c1.2-0.9,2.4-1.8,3.7-2.6
				L43,34.6z"/>
			<path fill="#C42828" d="M28.7,62c0,2,0.2,4,0.5,5.9l-14.3,4.8c-0.1-0.5-0.2-1-0.3-1.6c-1.2-6-1.2-12.3,0-18.3
				c0.1-0.5,0.2-1.1,0.3-1.6l14.3,4.8C28.8,58,28.7,60,28.7,62z"/>
			<path fill="#C42828" d="M43,89.4l-6.8,13.5c-1.3-0.8-2.5-1.7-3.7-2.6c-4.5-3.5-8.4-7.7-11.5-12.6l9.9-4.9l3.6-1.8
				C36.9,84.3,39.7,87.1,43,89.4z"/>
			<path fill="#C42828" d="M72.7,109.1c-3.5,0.8-7.1,1.2-10.7,1.2c-0.8,0-1.7,0-2.5-0.1c-2.8-0.1-5.5-0.5-8.2-1.1l4.6-13.8l0.2-0.5
				c1.1,0.2,2.3,0.3,3.4,0.4c0.8,0.1,1.7,0.1,2.5,0.1c0.4,0,0.7,0,1.1,0c1.6-0.1,3.2-0.2,4.8-0.5L72.7,109.1z"/>
			<path fill="#C42828" d="M102.9,87.7c-3.9,6.1-9,11.3-15.2,15.2l-1.3-2.6L81,89.4c2.6-1.8,5-4.1,7-6.6c0.5-0.6,0.9-1.2,1.4-1.8
				L102.9,87.7z"/>
			<path fill="#C42828" d="M110.3,62c0,3.6-0.4,7.2-1.2,10.7l-4.7-1.6l-9.7-3.2c0.7-3.9,0.7-7.9,0-11.9l9.7-3.2l4.7-1.6
				C109.9,54.8,110.3,58.4,110.3,62z"/>
			<path fill="#C42828" d="M102.9,36.2L89.4,43c-0.4-0.6-0.9-1.2-1.4-1.8c-2-2.5-4.4-4.7-7-6.6l5.5-10.9l1.3-2.6
				C93.9,24.9,99.1,30.1,102.9,36.2z"/>
		</g>
		<g>
			<path fill="#E84639" d="M67.7,14.9l-4.6,13.8l-0.2,0.5c-1.1-0.2-2.3-0.3-3.4-0.4c-0.8-0.1-1.7-0.1-2.5-0.1c-0.4,0-0.7,0-1.1,0
				l-4.6-13.8c2.7-0.6,5.5-1,8.2-1.1C62.3,13.9,65,14.2,67.7,14.9z"/>
			<path fill="#E84639" d="M38,34.6c-2.6,1.8-5,4.1-7,6.6l-9.9-4.9c3-4.8,6.9-9.1,11.5-12.6L38,34.6z"/>
			<path fill="#E84639" d="M23.7,62c0,2,0.2,4,0.5,5.9l-9.7,3.2c-1.2-6-1.2-12.3,0-18.3l9.7,3.2C23.8,58,23.7,60,23.7,62z"/>
			<path fill="#E84639" d="M38,89.4l-5.5,10.9c-4.5-3.5-8.4-7.7-11.5-12.6l9.9-4.9C33,85.3,35.4,87.5,38,89.4z"/>
			<path fill="#E84639" d="M67.7,109.1c-2.7,0.6-5.5,1-8.2,1.1c-2.8-0.1-5.5-0.5-8.2-1.1l4.6-13.8c0.4,0,0.7,0,1.1,0
				c0.8,0,1.7,0,2.5-0.1c1.2-0.1,2.3-0.2,3.4-0.4l0.2,0.5L67.7,109.1z"/>
			<path fill="#E84639" d="M97.9,87.7c-3,4.8-6.9,9.1-11.5,12.6L81,89.4c2.6-1.8,5-4.1,7-6.6L97.9,87.7z"/>
			<path fill="#E84639" d="M105.3,62c0,3.1-0.3,6.1-0.9,9.2l-9.7-3.2c0.7-3.9,0.7-7.9,0-11.9l9.7-3.2
				C105.1,55.9,105.3,58.9,105.3,62z"/>
			<path fill="#E84639" d="M97.9,36.2L88,41.2c-2-2.5-4.4-4.7-7-6.6l5.5-10.9C91,27.2,94.9,31.4,97.9,36.2z"/>
		</g>
		<path id="SVGCleanerId_0" fill="#C42828" d="M95.3,62c0,2-0.2,4-0.5,5.9c-0.9,4.7-2.7,9.1-5.4,13.1c-2.3,3.3-5.1,6.1-8.4,8.4
			c-3.9,2.7-8.4,4.6-13.1,5.4c-2,0.4-3.9,0.5-5.9,0.5c-0.4,0-0.8,0-1.3,0c-0.4,0-0.8,0-1.3-0.1c-0.5,0-1-0.1-1.5-0.1
			c-0.7-0.1-1.3-0.2-2-0.3c-4.7-0.9-9.1-2.7-13.1-5.4c-3.3-2.3-6.1-5.1-8.4-8.4c-7.9-11.4-7.9-26.6,0-38c2.3-3.3,5.1-6.1,8.4-8.4
			c3.9-2.7,8.4-4.6,13.1-5.4c0.7-0.1,1.3-0.2,2-0.3c0.5-0.1,1-0.1,1.5-0.1c0.4,0,0.8-0.1,1.3-0.1c0.4,0,0.8,0,1.3,0
			c2,0,4,0.2,5.9,0.5c4.7,0.9,9.1,2.7,13.1,5.4c3.3,2.3,6.1,5.1,8.4,8.4c2.7,3.9,4.6,8.4,5.4,13.1C95.2,58,95.3,60,95.3,62z"/>
		<g>
			<path id="SVGCleanerId_0_1_" fill="#C42828" d="M95.3,62c0,2-0.2,4-0.5,5.9c-0.9,4.7-2.7,9.1-5.4,13.1c-2.3,3.3-5.1,6.1-8.4,8.4
				c-3.9,2.7-8.4,4.6-13.1,5.4c-2,0.4-3.9,0.5-5.9,0.5c-0.4,0-0.8,0-1.3,0c-0.4,0-0.8,0-1.3-0.1c-0.5,0-1-0.1-1.5-0.1
				c-0.7-0.1-1.3-0.2-2-0.3c-4.7-0.9-9.1-2.7-13.1-5.4c-3.3-2.3-6.1-5.1-8.4-8.4c-7.9-11.4-7.9-26.6,0-38c2.3-3.3,5.1-6.1,8.4-8.4
				c3.9-2.7,8.4-4.6,13.1-5.4c0.7-0.1,1.3-0.2,2-0.3c0.5-0.1,1-0.1,1.5-0.1c0.4,0,0.8-0.1,1.3-0.1c0.4,0,0.8,0,1.3,0
				c2,0,4,0.2,5.9,0.5c4.7,0.9,9.1,2.7,13.1,5.4c3.3,2.3,6.1,5.1,8.4,8.4c2.7,3.9,4.6,8.4,5.4,13.1C95.2,58,95.3,60,95.3,62z"/>
		</g>
		<path fill="#E84639" d="M90.3,62c0,2-0.2,4-0.5,5.9c-0.9,4.7-2.7,9.1-5.4,13.1c-2.3,3.3-5.1,6.1-8.4,8.4
			c-3.9,2.7-8.4,4.6-13.1,5.4c-1.1,0.2-2.3,0.3-3.4,0.4c-1.2-0.1-2.3-0.2-3.4-0.4c-4.7-0.9-9.1-2.7-13.1-5.4
			c-3.3-2.3-6.1-5.1-8.4-8.4c-7.9-11.4-7.9-26.6,0-38c2.3-3.3,5.1-6.1,8.4-8.4c3.9-2.7,8.4-4.6,13.1-5.4c1.1-0.2,2.3-0.3,3.4-0.4
			c1.2,0.1,2.3,0.2,3.4,0.4c4.7,0.9,9.1,2.7,13.1,5.4c3.3,2.3,6.1,5.1,8.4,8.4c2.7,3.9,4.6,8.4,5.4,13.1C90.2,58,90.3,60,90.3,62z"
			/>
		<path fill="#CED7DB" d="M65.3,73.3c0,2,0.4,5.4,4.1,5.4H54.6c3.7,0,4.1-3.3,4.1-5.4v-4.6c-1.6,0.7-3.3,1-5,0.8
			c-0.5,0-1-0.1-1.5-0.3c-1-0.3-1.9-0.7-2.7-1.4c-3.1-2.7-3.1-8.1,0-13.4c1.8-3.3,6-6.7,10-9.2c0.9-0.6,1.7-1.1,2.5-1.5
			c4.7,2.7,10.3,6.7,12.5,10.7c3.1,5.4,3.1,10.8,0,13.4c-2.2,1.7-5,2.2-7.7,1.4c-0.5-0.1-1-0.3-1.5-0.5V73.3z"/>
		<path fill="#F3F2F3" d="M69.5,67.8c-0.8,0.7-1.7,1.1-2.7,1.4c-0.5,0.2-1,0.2-1.5,0.3c-1.7,0.2-3.4-0.1-5-0.8v4.6
			c0,2,0.4,5.4,4.1,5.4h-9.8c3.7,0,4.1-3.3,4.1-5.4v-4.6c-1.6,0.7-3.3,1-5,0.8v-0.8c-0.5,0.2-1,0.4-1.5,0.5c-1-0.3-1.9-0.7-2.7-1.4
			c-3.1-2.7-3.1-8.1,0-13.4c1.8-3.3,6-6.7,10-9.2c4,2.6,8.2,5.9,10,9.2C72.6,59.8,72.6,65.1,69.5,67.8z"/>
	</g>
	<g>
		<path d="M64.7,36.3c0-0.9-0.7-1.7-1.7-1.7c-15.6,0-28.3,12.7-28.3,28.3c0,0.9,0.7,1.7,1.7,1.7c0.9,0,1.7-0.7,1.7-1.7
			c0-13.8,11.2-25,25-25C63.9,38,64.7,37.2,64.7,36.3z"/>
		<path d="M89.7,61.3c-0.9,0-1.7,0.7-1.7,1.7c0,13.8-11.2,25-25,25c-0.9,0-1.7,0.7-1.7,1.7s0.7,1.7,1.7,1.7
			c15.6,0,28.3-12.7,28.3-28.3C91.3,62.1,90.6,61.3,89.7,61.3z"/>
		<path d="M111.7,51.8L111.7,51.8c-1.3-5.4-3.4-10.5-6.3-15.2c0,0,0,0,0-0.1c0-0.1-0.1-0.1-0.1-0.2c-4-6.3-9.3-11.6-15.6-15.6
			c-0.1,0-0.1-0.1-0.2-0.1c0,0,0,0-0.1,0c-4.7-2.9-9.8-5.1-15.2-6.3l0,0c0,0,0,0,0,0c-7.4-1.7-15-1.7-22.4,0c0,0,0,0,0,0l0,0
			c-5.4,1.2-10.5,3.4-15.2,6.3c0,0,0,0-0.1,0c-0.1,0-0.1,0.1-0.2,0.1c-6.3,4-11.6,9.3-15.6,15.6c0,0.1-0.1,0.1-0.1,0.2
			c0,0,0,0,0,0.1c-2.9,4.7-5,9.8-6.3,15.2l0,0c0,0,0,0,0,0c-1.7,7.4-1.7,15,0,22.4c0,0,0,0,0,0l0,0c1.2,5.4,3.4,10.5,6.3,15.2
			c0,0,0,0,0,0.1c0.1,0.1,0.2,0.3,0.3,0.4c4,6.2,9.2,11.4,15.5,15.4c0.1,0,0.1,0.1,0.2,0.1c0,0,0.1,0,0.1,0c4.7,2.9,9.8,5,15.2,6.3
			l0,0c0,0,0,0,0.1,0c7.4,1.7,15,1.7,22.3,0c0,0,0,0,0.1,0l0,0c5.4-1.2,10.5-3.4,15.2-6.3c0,0,0.1,0,0.1,0c0.1,0,0.1-0.1,0.2-0.1
			c6.2-3.9,11.5-9.2,15.5-15.4c0.1-0.1,0.2-0.3,0.3-0.4c0,0,0,0,0-0.1c2.9-4.7,5-9.8,6.3-15.2l0,0c0,0,0,0,0,0
			C113.4,66.8,113.4,59.2,111.7,51.8C111.7,51.8,111.7,51.8,111.7,51.8z M103.3,86.6l-10.5-5.2c2-3.2,3.4-6.6,4.3-10.2l11.1,3.7
			C107.1,78.9,105.4,82.9,103.3,86.6z M74.8,108.1L71.1,97c3.6-0.9,7.1-2.3,10.2-4.3l5.2,10.5C82.9,105.4,78.9,107.1,74.8,108.1z
			 M63,94.7c-17.5,0-31.7-14.2-31.7-31.7S45.5,31.3,63,31.3S94.7,45.5,94.7,63C94.7,80.5,80.5,94.6,63,94.7z M39.4,103.3l5.2-10.5
			c3.2,2,6.6,3.4,10.2,4.3l-3.7,11.1C47.1,107.1,43.1,105.4,39.4,103.3z M17.9,74.8L29,71.1c0.9,3.6,2.3,7.1,4.3,10.2l-10.5,5.2
			C20.6,82.9,18.9,78.9,17.9,74.8z M16.3,63c0-2.9,0.3-5.7,0.8-8.5l11.2,3.8C28.1,59.8,28,61.4,28,63c0,1.6,0.1,3.2,0.4,4.8
			l-11.2,3.8C16.6,68.7,16.3,65.9,16.3,63z M22.7,39.4l10.5,5.2c-2,3.2-3.4,6.6-4.3,10.2l-11.1-3.7C18.9,47.1,20.6,43.1,22.7,39.4z
			 M51.2,17.8L54.9,29c-3.6,0.9-7.1,2.3-10.2,4.3l-5.2-10.5C43.1,20.6,47.1,18.9,51.2,17.8z M86.6,22.7l-5.2,10.5
			c-3.2-2-6.6-3.4-10.2-4.3l3.7-11.1C78.9,18.9,82.9,20.6,86.6,22.7z M108.2,51.2L97,54.9c-0.9-3.6-2.3-7.1-4.3-10.2l10.5-5.2
			C105.4,43.1,107.1,47.1,108.2,51.2z M97.6,67.8c0.2-1.6,0.4-3.2,0.4-4.8c0-1.6-0.1-3.2-0.4-4.8l11.2-3.8c1.1,5.6,1.1,11.4,0,17.1
			L97.6,67.8z M101.5,36.6l-10.6,5.3c-1.9-2.6-4.2-4.8-6.8-6.8l5.3-10.6C94.1,27.8,98.2,31.9,101.5,36.6L101.5,36.6z M71.5,17.1
			l-3.8,11.2C66.2,28.1,64.6,28,63,28c-1.6,0-3.2,0.1-4.8,0.4l-3.8-11.2C60.1,16.1,65.9,16.1,71.5,17.1z M36.6,24.5l5.3,10.6
			c-2.6,1.9-4.8,4.2-6.8,6.8l-10.6-5.3C27.8,31.9,31.9,27.8,36.6,24.5z M24.5,89.4l10.6-5.3c1.9,2.6,4.2,4.8,6.8,6.8l-5.3,10.6
			C31.9,98.2,27.8,94.1,24.5,89.4z M54.5,108.9l3.8-11.2c1.6,0.2,3.2,0.4,4.8,0.4c1.6,0,3.2-0.1,4.8-0.4l3.8,11.2
			C65.9,109.9,60.1,109.9,54.5,108.9z M89.4,101.5l-5.3-10.6c2.6-1.9,4.8-4.2,6.8-6.8l10.6,5.3C98.2,94.1,94.1,98.2,89.4,101.5z"/>
		<path d="M61.3,23h3.3c0.9,0,1.7-0.7,1.7-1.7c0-0.9-0.7-1.7-1.7-1.7h-3.3c-0.9,0-1.7,0.7-1.7,1.7C59.7,22.2,60.4,23,61.3,23z"/>
		<path d="M32.4,36.4c0.4,0,0.9-0.2,1.2-0.5l2.4-2.4c0.4-0.4,0.6-1,0.5-1.6c-0.2-0.6-0.6-1-1.2-1.2c-0.6-0.2-1.2,0-1.6,0.5l-2.4,2.4
			c-0.5,0.5-0.6,1.2-0.4,1.8C31.1,36,31.7,36.4,32.4,36.4z"/>
		<path d="M21.3,59.7c-0.9,0-1.7,0.7-1.7,1.7v3.3c0,0.9,0.7,1.7,1.7,1.7s1.7-0.7,1.7-1.7v-3.3C23,60.4,22.3,59.7,21.3,59.7z"/>
		<path d="M35.9,92.5l-2.4-2.4c-0.7-0.6-1.7-0.6-2.3,0c-0.6,0.6-0.7,1.7,0,2.3l2.4,2.4c0.7,0.6,1.7,0.6,2.3,0
			C36.5,94.2,36.5,93.1,35.9,92.5z"/>
		<path d="M64.7,103h-3.3c-0.9,0-1.7,0.7-1.7,1.7c0,0.9,0.7,1.7,1.7,1.7h3.3c0.9,0,1.7-0.7,1.7-1.7C66.3,103.7,65.6,103,64.7,103z"
			/>
		<path d="M92.5,90.1l-2.4,2.4c-0.4,0.4-0.6,1-0.5,1.6c0.2,0.6,0.6,1,1.2,1.2c0.6,0.2,1.2,0,1.6-0.5l2.4-2.4c0.6-0.7,0.6-1.7,0-2.3
			C94.2,89.5,93.1,89.5,92.5,90.1z"/>
		<path d="M104.7,59.7c-0.9,0-1.7,0.7-1.7,1.7v3.3c0,0.9,0.7,1.7,1.7,1.7s1.7-0.7,1.7-1.7v-3.3C106.3,60.4,105.6,59.7,104.7,59.7z"
			/>
		<path d="M90.1,33.5l2.4,2.4c0.7,0.6,1.7,0.6,2.3,0c0.6-0.6,0.7-1.7,0-2.3l-2.4-2.4c-0.7-0.6-1.7-0.6-2.3,0
			C89.5,31.8,89.5,32.9,90.1,33.5z"/>
		<path d="M72.1,79.7c0-0.9-0.7-1.7-1.7-1.7c-1.2,0-2.4-0.3-2.4-3.7V72c3,0.7,6.2,0,8.6-1.9c3.7-3.2,3.9-9.5,0.4-15.5
			c-2.6-4.9-9.4-9.2-13.1-11.4c-0.5-0.3-1.1-0.3-1.7,0c-3.8,2.2-10.5,6.5-13.1,11.4c-3.5,6.1-3.4,12.3,0.4,15.5
			C51.8,72,55,72.7,58,72v2.3c0,3.4-1.2,3.7-2.4,3.7c-0.9,0-1.7,0.7-1.7,1.7c0,0.9,0.7,1.7,1.7,1.7h14.8
			C71.3,81.3,72.1,80.6,72.1,79.7z M65.4,68.3c-0.5,0.3-0.8,0.8-0.8,1.4v4.6c0,1.3,0.2,2.5,0.6,3.7h-4.5c0.4-1.2,0.6-2.4,0.6-3.7
			v-4.6c0-0.6-0.3-1.1-0.8-1.4S59.5,68,59,68.2c-2.4,1.2-5.2,1-7.4-0.6c-2.5-2.1-2.3-6.7,0.4-11.4c1.6-2.9,5.6-6.4,11-9.6
			c5.5,3.2,9.5,6.7,11,9.6c2.7,4.6,2.8,9.2,0.4,11.3c-2.1,1.6-5,1.8-7.4,0.6C66.5,68,65.9,68,65.4,68.3z"/>
	</g>
</g>
</svg>
