<?xml version="1.0" encoding="utf-8"?>
<!-- Generator: Adobe Illustrator 24.3.0, SVG Export Plug-In . SVG Version: 6.00 Build 0)  -->
<svg version="1.1" id="Layer_1" xmlns="http://www.w3.org/2000/svg" xmlns:xlink="http://www.w3.org/1999/xlink" x="0px" y="0px"
	 viewBox="0 0 126 126" enable-background="new 0 0 126 126" xml:space="preserve">
<g>
	<path fill="#EB6673" d="M87.2,55.9c-0.7-1.9-1.9-3.4-3.5-4.6c0,0,0,0,0,0c-0.8-0.5-1.6-1-2.5-1.2L69.1,46H56.9L44.8,50
		c-0.9,0.3-1.7,0.7-2.5,1.2l0,0c-1.8,1.3-3.2,3.1-3.8,5.3c-0.2,0.6-0.3,1.2-0.3,1.8V80h49.4V58.3C87.7,57.5,87.5,56.6,87.2,55.9z
		 M42.4,51.3L42.4,51.3L42.4,51.3L42.4,51.3z"/>
	<path fill="#E1BAB4" d="M56.9,42.8L56.9,42.8l0,7.4c3.8,2.6,8.6,2.6,12.2,0l0,0v-7.4L56.9,42.8z"/>
	<path fill="#F0F1F1" d="M69.1,50.3c-3.7,2.6-8.6,2.6-12.2,0V80h12.2L69.1,50.3L69.1,50.3z"/>
	<path fill="#494D56" d="M34.7,86.9h55v24.9h-55V86.9z"/>
	<path fill="#4B5161" d="M71,44.9c-0.6,0.4-1.2,0.6-1.9,0.7h-0.1v-2.7c1.8-1.8,2.9-4.3,2.9-6.9c0.8,2.6,4.6,3.1,4.6,3.1v1.3
		c0,2.4-1.9,4.4-4.4,4.4c0,0,0,0,0,0H71z"/>
	<path fill="#4B5161" d="M52.7,35.2v0.9c0,3.2,1.6,6.2,4.2,8l0,0v1.5c-1,0.1-2-0.1-2.8-0.7h-1.2c-2.4,0-4.4-2-4.4-4.4c0,0,0,0,0,0
		v-1.3c0,0,3.8-0.5,3.8-3.7v-0.3L52.7,35.2z"/>
	<path fill="#6D7485" d="M60.4,24.2l-0.1,0.1c-1.7,0.3-3.3,0.9-4.7,1.8c-1.8,1.2-2.9,3.2-2.9,5.4h-0.5c-0.3,0-0.6,0.1-0.9,0.2
		c-0.5-1.1-0.7-2.3-0.7-3.5v-1.7c0-6.9,5.6-12.4,12.5-12.4c6.9,0,12.4,5.6,12.4,12.4v3.1c0,0,0.3,2.4,2.3,2c0,0-3.2,3.2-5.9,0.3
		c0-1.5-1.1-2.8-2.6-2.9C65.8,28.8,62.6,27,60.4,24.2L60.4,24.2z"/>
	<path fill="#FADBD7" d="M51.3,31.8c0.3-0.1,0.6-0.2,0.9-0.2h0.5c0-2.2,1.1-4.2,2.9-5.4c1.4-0.9,3-1.6,4.7-1.8l0.1-0.1
		c2.2,2.8,5.4,4.6,8.9,4.9c1.5,0.2,2.6,1.4,2.6,2.9v4c0,5.3-4.3,9.6-9.6,9.6s-9.6-4.3-9.6-9.6c0,0,0,0,0,0v-0.9h-0.5
		c-1,0-1.8-0.8-1.8-1.8c0-0.5,0.2-0.9,0.5-1.3C51.1,32,51.2,31.9,51.3,31.8z"/>
	<g>
		<path fill="#CB5F6F" d="M50.8,54l2.2,3.3l-2.9,2.4l6.7,13v-1.2V47.1L50.8,54z"/>
		<path fill="#CB5F6F" d="M73,57.3l2.2-3.3l-6-7v25.6l6.7-13L73,57.3z"/>
		<path fill="#CB5F6F" d="M87.8,80L87.8,80l-7.2,0V59.7c0-3.1,1.1-6.1,3.2-8.4c1.6,1.1,2.9,2.7,3.5,4.6c0.3,0.8,0.5,1.6,0.5,2.4V80z
			"/>
		<path fill="#CB5F6F" d="M42.4,51.3L42.4,51.3c-1.9,1.2-3.2,3.1-3.8,5.3c-0.2,0.6-0.3,1.2-0.3,1.8V80h7.3V59.7
			C45.6,56.6,44.4,53.6,42.4,51.3L42.4,51.3z"/>
	</g>
	<path fill="#525A68" d="M67.9,63.3c0,1-0.3,2-0.9,2.8H59c-1.6-2.2-1-5.2,1.1-6.8c2.2-1.6,5.2-1,6.8,1.1
		C67.5,61.3,67.9,62.3,67.9,63.3z"/>
	<path fill="#E6E7E7" d="M41.9,93.7h40.7v18.1H41.9V93.7z"/>
	<path fill="none" d="M42.4,50.4L42.4,50.4L42.4,50.4L42.4,50.4z"/>
	<path fill="#7878B7" d="M48.3,50.4L48.3,50.4L48.3,50.4L48.3,50.4z"/>
	<path fill="#F4C9C1" d="M61.4,42.9c-1.8-1.8-2.8-4.3-2.8-6.8v-4.5c0-2.2,1.1-4.2,2.9-5.4c0.1-0.1,0.3-0.2,0.4-0.3
		c-0.6-0.5-1.1-1.1-1.5-1.7l-0.1,0.1c-1.7,0.3-3.3,0.9-4.7,1.8c-1.8,1.2-2.9,3.2-2.9,5.4h-0.5c-0.3,0-0.6,0.1-0.9,0.2
		c-0.1,0.1-0.3,0.2-0.4,0.3c-0.7,0.7-0.7,1.9,0,2.6c0.3,0.3,0.8,0.5,1.3,0.5h0.5v0.9c0,5.3,4.3,9.6,9.6,9.6c1,0,2-0.2,3-0.5
		C63.8,44.8,62.5,43.9,61.4,42.9L61.4,42.9z"/>
	<path fill="#4B5161" d="M66,14.6C59.3,12.9,52.6,17,51,23.7c-0.2,1-0.4,2-0.4,3v1.7c0,1.2,0.3,2.4,0.7,3.5c0.3-0.1,0.6-0.2,0.9-0.2
		h0.5c0-2.2,1.1-4.2,2.9-5.4c0.3-0.2,0.6-0.4,1-0.6C57,20.2,60.8,15.8,66,14.6z"/>
	<path fill="#CFD1D3" d="M41.9,93.7h5.9v18.1h-5.9V93.7z"/>
	<path fill="#525A68" d="M60.8,71.3h4.3v8.9h-4.3V71.3z"/>
	<path fill="#5EB6E7" d="M57.3,66.1h11.5v5.3H57.3V66.1z"/>
	<path fill="#6D7485" d="M32,79.8H94v7.5H32V79.8z"/>
	<path fill="#AFB4C9" d="M32,79.8h5.9v7.5H32V79.8z"/>
	<path fill="#284268" d="M68.1,26.1c0.6,0.2,1.3-0.1,1.5-0.7c0.2-0.6-0.1-1.3-0.7-1.5c-3.9-1.4-4.7-5.3-4.8-5.5
		c-0.1-0.6-0.8-1-1.4-0.9c-0.6,0.1-1,0.7-0.9,1.4C61.9,19,62.9,24.1,68.1,26.1z"/>
	<path fill="#284268" d="M47,100h1.6c0.7,0,1.2-0.5,1.2-1.2s-0.5-1.2-1.2-1.2H47c-0.7,0-1.2,0.5-1.2,1.2S46.3,100,47,100z"/>
	<path fill="#284268" d="M52.5,100h12.9c0.7,0,1.2-0.5,1.2-1.2s-0.5-1.2-1.2-1.2H52.5c-0.7,0-1.2,0.5-1.2,1.2S51.9,100,52.5,100z"/>
	<path fill="#284268" d="M32,88.1h1.6v23.7c0,0.7,0.6,1.2,1.3,1.2h55c0.7,0,1.1-0.6,1.1-1.2V88.1H94c0.7,0,1.2-0.5,1.2-1.2
		c0,0,0,0,0,0V80c0-0.7-0.5-1.2-1.2-1.2h-5.1l0-20.6c-0.3-4.3-3.2-8-7.3-9.3L73,46c2.7-0.4,4.8-2.7,4.8-5.5v-1.3
		c0-0.6-0.5-1.1-1.1-1.2c0,0-2.8-0.4-3.6-2.1v-1.6c0.4,0.1,0.8,0.2,1.3,0.2c0,0,0.1,0,0.1,0c2.2,0,4-1.6,4.2-1.8
		c0.5-0.5,0.5-1.2,0-1.7c-0.3-0.3-0.7-0.4-1.1-0.3c-0.2,0.1-0.4,0-0.5-0.1c-0.3-0.2-0.4-0.5-0.5-0.9v-3C76.6,19.1,70.5,13,63,13
		s-13.6,6.1-13.6,13.6v1.7c0,1.1,0.2,2.1,0.5,3.1c-0.5,0.5-0.7,1.2-0.7,1.9c0,1.2,0.8,2.3,1.9,2.8c-0.5,1.5-2.6,1.8-2.7,1.8
		c-0.6,0.1-1,0.6-1,1.2v1.3c0,3,2.5,5.5,5.5,5.5l-8.5,2.9c-4.2,1.3-7.1,5-7.3,9.3l0,20.6H32c-0.7,0-1.2,0.5-1.2,1.2v6.9
		C30.8,87.6,31.3,88.1,32,88.1C32,88.1,32,88.1,32,88.1z M81.4,110.6H43V94.8h38.4V110.6z M88.5,110.6h-4.7v-17
		c0-0.7-0.4-1.2-1.1-1.2H41.9c-0.7,0-1.2,0.6-1.3,1.2v17h-4.7V88.1h52.6V110.6z M86.1,56.3c0.3,0.7,0.4,1.4,0.4,2.1v20.4h-4.7V59.7
		c0-2.4,0.7-4.8,2.2-6.7C84.9,53.9,85.7,55,86.1,56.3L86.1,56.3z M82,51.6c-1.7,2.4-2.6,5.2-2.6,8.1v19.1h-9.1v-5.8l6.6-12.7
		c0.3-0.5,0.1-1.1-0.3-1.5l-2-1.7l1.6-2.4c0.3-0.4,0.3-1-0.1-1.4L71.5,48L82,51.6z M73.7,54.1L72,56.6c-0.3,0.5-0.2,1.2,0.2,1.6
		l2.1,1.8l-4,7.8V50.3L73.7,54.1z M70.3,43.9v-0.6c0.5-0.5,1-1.1,1.3-1.8c0,0.1-0.1,0.2-0.1,0.3C71.5,42.7,71.1,43.4,70.3,43.9
		C70.4,43.9,70.4,43.9,70.3,43.9C70.3,43.9,70.3,43.9,70.3,43.9L70.3,43.9z M75.5,40.1v0.4c0,1.2-0.7,2.3-1.8,2.8
		c0.1-0.4,0.2-0.8,0.3-1.2c0.1-0.7-0.4-1.2-1-1.3c-0.4,0-0.8,0.1-1.1,0.5c0.4-0.7,0.8-1.5,1-2.3C73.6,39.5,74.5,39.9,75.5,40.1
		L75.5,40.1z M51.7,26.6c0-6.2,5-11.3,11.3-11.3s11.3,5,11.3,11.3v3.1c0,0,0,0.1,0,0.2c0.1,0.8,0.4,1.5,0.9,2.1
		c-0.2,0.1-0.5,0.1-0.8,0.1c-0.5,0-1-0.2-1.3-0.6c-0.2-1.9-1.8-3.4-3.7-3.6c-4.6-0.5-8.6-3.6-10-8.1c-0.1-0.3-0.2-0.7-0.3-1
		c-0.1-0.6-0.7-1.1-1.4-1c-0.6,0.1-1,0.7-1,1.3c0.1,0.5,0.2,0.9,0.3,1.4c0.3,1,0.8,2,1.3,2.9c-1.3,0.4-2.4,0.9-3.5,1.6
		c-1.5,1-2.6,2.4-3.1,4.2c-0.1-0.3-0.1-0.6-0.1-1L51.7,26.6z M52.3,40.8c-0.7,0.1-1.1,0.7-1,1.3c0,0,0,0,0,0c0,0.4,0.1,0.8,0.3,1.2
		c-1.1-0.5-1.8-1.6-1.8-2.8v-0.4c0.8-0.2,1.5-0.6,2.2-1.1c0.2,0.6,0.4,1.3,0.7,1.9C52.5,40.8,52.4,40.8,52.3,40.8L52.3,40.8z
		 M52.7,33.9h-0.5c-0.3,0-0.6-0.3-0.6-0.6c0-0.3,0.3-0.6,0.6-0.6h0.5c0.6,0,1.2-0.5,1.2-1.2c0,0,0,0,0,0c0-1.8,0.9-3.5,2.4-4.4
		c1.1-0.8,2.4-1.3,3.7-1.5c2.3,2.7,5.6,4.4,9.2,4.8c0.9,0.1,1.5,0.8,1.5,1.7v4c0,4.6-3.8,8.4-8.4,8.4s-8.4-3.8-8.4-8.4v-0.9
		C53.9,34.5,53.4,34,52.7,33.9L52.7,33.9z M58.5,70.3v-3h9.1v3H58.5z M64,72.7v6.1h-2v-6.1H64z M59.6,72.7v6.1h-1.6v-6.1H59.6z
		 M59.3,63.3c0-2,1.6-3.7,3.7-3.7c2,0,3.7,1.6,3.7,3.7c0,0.6-0.1,1.1-0.4,1.6h-6.6C59.5,64.4,59.3,63.9,59.3,63.3L59.3,63.3z
		 M66.4,72.7h1.6v6.1h-1.6V72.7z M63,57.3c-2,0-3.7,1-4.9,2.5v-7.5c3.1,1.4,6.7,1.4,9.9,0v7.5C66.8,58.3,65,57.3,63,57.3L63,57.3z
		 M58.1,49.6V46c1.4,0.6,2.8,0.9,4.3,0.9c2,0,3.9-0.5,5.6-1.6v4.3C64.9,51.5,61.1,51.5,58.1,49.6z M54,56.6l-1.7-2.5l3.4-3.9v17.5
		l-4-7.8l2.1-1.8C54.3,57.8,54.4,57.1,54,56.6L54,56.6z M55.1,44.1c-0.5-0.3-1-0.8-1.2-1.3C54.2,43.2,54.6,43.6,55.1,44.1L55.1,44.1
		z M54.6,48l-4.6,5.3c-0.4,0.4-0.4,1-0.1,1.4l1.6,2.4l-2,1.7c-0.4,0.4-0.6,1-0.3,1.5L55.7,73v5.8h-8.9V59.7c0-2.9-0.9-5.8-2.6-8.1
		L54.6,48z M39.5,58.4c0-0.5,0.1-1,0.2-1.5c0.4-1.5,1.3-2.9,2.5-3.9c1.4,2,2.2,4.4,2.2,6.8v19.1h-4.9V58.4z M33.1,81.2h59.7v4.5
		H33.1V81.2z"/>
</g>
</svg>
