<?xml version="1.0" encoding="utf-8"?>
<!-- Generator: Adobe Illustrator 24.3.0, SVG Export Plug-In . SVG Version: 6.00 Build 0)  -->
<svg version="1.1" id="Layer_1" xmlns="http://www.w3.org/2000/svg" xmlns:xlink="http://www.w3.org/1999/xlink" x="0px" y="0px"
	 viewBox="0 0 126 126" enable-background="new 0 0 126 126" xml:space="preserve">
<g>
	<g>
		<ellipse transform="matrix(0.9868 -0.1619 0.1619 0.9868 -9.3686 11.0309)" fill="#3C3C3C" cx="63" cy="63" rx="50" ry="50"/>
	</g>
	<g opacity="0.56">
		<path fill="#010102" d="M86.9,25.5c6.5,7.6,10.5,17.5,10.5,28.2c0,24.3-20.1,44-44.8,44c-8.5,0-16.5-2.3-23.3-6.4
			c8.2,9.6,20.5,15.7,34.3,15.7c24.7,0,44.8-19.7,44.8-44C108.4,47.2,99.8,33.2,86.9,25.5z"/>
	</g>
	<g>
		<g opacity="0.56">
			<path fill="#010102" d="M102.4,42.7c1.1,3.8,1.6,7.7,1.6,11.8c0,25.7-22.3,46.6-49.9,46.6c-2.3,0-4.6-0.2-6.9-0.4
				c4.2,1.3,8.7,2,13.4,2c24.7,0,44.8-19.7,44.8-44C105.4,53,104.4,47.7,102.4,42.7z"/>
		</g>
	</g>
	<g>
		<ellipse transform="matrix(0.5 -0.866 0.866 0.5 -17.5565 67.4462)" fill="#EBEBEB" cx="49.6" cy="48.9" rx="23.8" ry="18.2"/>
	</g>
	<g opacity="0.14">
		<path fill="#FFFFFF" d="M25.5,37.4c-0.6,1.6-1,3.3-0.8,5c0.1,1.7,0.9,3.4,2.2,4.4c2.2,1.6,5.4,1.1,7.6-0.5
			c2.2-1.6,3.5-4.1,4.8-6.5c1.2-2.4,2.5-4.9,4.5-6.7c1.9-1.7,4.6-2.8,5.6-5.2c1.1-2.6-1-6-3.6-6.9c-2.6-0.9-6.4,1.3-8.5,2.5
			C31.9,26.5,27.6,31.5,25.5,37.4z"/>
	</g>
	<g opacity="0.14">
		<path fill="#FFFFFF" d="M20.5,58.2c-0.2,1.1-0.4,2.3-0.2,3.4c0.4,2.3,2.5,4.2,4.9,4.5c2.4,0.2,4.8-1.1,5.9-3.3
			c0.5-1,0.7-2.1,0.9-3.2c0.5-3.6-0.4-8.9-5-9.2C23.1,50.2,21.1,55.1,20.5,58.2z"/>
	</g>
	<g>
		<g>
			<path d="M37.9,49.3l5.5,3c-0.6,1-0.9,1.7-1,2c-0.1,0.3-0.1,0.6,0,0.9c0.1,0.3,0.3,0.5,0.7,0.7c0.3,0.2,0.6,0.2,0.8,0.1
				c0.3-0.1,0.5-0.2,0.7-0.5s0.5-0.8,0.9-1.6l1.9-3.5c-0.6,0.4-1.2,0.7-1.9,0.7c-0.7,0-1.5-0.2-2.3-0.6c-1-0.5-1.8-1.3-2.2-2.3
				c-0.5-1-0.6-1.9-0.4-2.8c0.2-0.9,0.6-2,1.3-3.3l0.9-1.8c0.8-1.5,1.5-2.7,2-3.4c0.5-0.7,1.2-1.2,2.1-1.6c0.9-0.4,1.8-0.5,2.9-0.4
				c1.1,0.1,2.2,0.5,3.4,1.1c1.5,0.8,2.6,1.6,3.3,2.6c0.7,0.9,1.1,1.9,1.3,2.9c0.1,1,0,2-0.4,2.9c-0.4,0.9-1.2,2.6-2.5,5l-1.6,3.1
				c-1.4,2.6-2.4,4.4-2.9,5.2c-0.5,0.8-1.3,1.5-2.3,2c-1,0.5-2.1,0.7-3.2,0.6c-1.2-0.1-2.4-0.5-3.6-1.2c-1.6-0.8-2.7-1.8-3.4-2.8
				c-0.7-1-1.1-2.1-1-3.3C36.8,51.9,37.2,50.6,37.9,49.3z M47.1,45.3c-0.5,0.9-0.7,1.6-0.6,1.9c0.1,0.3,0.3,0.6,0.6,0.7
				c0.4,0.2,0.7,0.2,1.1,0c0.3-0.2,0.7-0.7,1.1-1.5l2.1-4c0.5-1,0.8-1.7,0.8-2c0-0.4-0.2-0.7-0.6-0.9c-0.2-0.1-0.5-0.1-0.9,0
				c-0.4,0.1-0.8,0.7-1.4,1.7L47.1,45.3z"/>
		</g>
	</g>
</g>
</svg>
