<?xml version="1.0" encoding="utf-8"?>
<!-- Generator: Adobe Illustrator 24.3.0, SVG Export Plug-In . SVG Version: 6.00 Build 0)  -->
<svg version="1.1" id="Layer_1" xmlns="http://www.w3.org/2000/svg" xmlns:xlink="http://www.w3.org/1999/xlink" x="0px" y="0px"
	 viewBox="0 0 126 126" enable-background="new 0 0 126 126" xml:space="preserve">
<g>
	<path fill="#EF8011" d="M101,113H25c-6.6,0-12-5.4-12-12V25c0-6.6,5.4-12,12-12h76c6.6,0,12,5.4,12,12v76
		C113,107.6,107.6,113,101,113z"/>
	<path fill="#FFFFFF" d="M32.8,44c-0.5,0.1-0.9,0.3-1.1,0.7c-0.4,0.5-0.4,0.5-0.4,1.9c0,0.8,0,2.2,0,3.2c0,1.7,0,1.7-0.3,1.6
		c-0.6-0.2-2.2-0.1-2.4,0.2c-0.2,0.2-0.2,0.2,0,0.1c0.2-0.1,0.2,0,0.2,0.1c0,0.1-0.1,0.2-0.2,0.1c-0.1,0-0.2,0.2-0.2,0.7
		c0,0.4,0,1-0.1,1.3c-0.1,0.4,0,0.6,0.3,0.9c0.3,0.4,0.5,0.4,1.5,0.4c1,0,1.1,0,1.2,0.2c0.1,0.3,0,16.8-0.1,17c0,0.1-0.4,0.2-1,0.2
		c-0.6,0-1.1,0.1-1.4,0.2c-0.4,0.3-0.4,0.3-0.5,1.4c0,2.3,0,2.4,1.9,2.4h1.2l0,2.8c-0.1,3.9,0.1,4.1,2.9,4.2
		c4.2,0.2,16.3,0.3,18.3,0.1c0.7-0.1,1.3-0.1,2-0.1c0.9,0,1.2,0,1.3-0.2c0.1-0.1,0.2-0.1,0.2,0c0,0.1,0.1,0.2,0.1,0.2
		c0.1,0,0.1-0.1,0.1-0.3c0-0.2-0.1-0.2-0.1-0.2c-0.1,0-0.1,0-0.1-0.1c0-0.3,0.3-0.1,0.5,0.3c0.1,0.3,0.2,0.3,3.4,0.3
		c1.8,0,4.2,0,5.5,0.1c3.3,0.1,8.4-0.1,8.4-0.3c0-0.1,0.1-0.2,0.2-0.2c0.1,0,0.1,0.1,0.1,0.2c-0.1,0.2,0.1,0.2,1,0.2
		c0.6,0,3.9,0,7.4,0c3.5,0,6.3,0,6.2-0.1c0-0.1,0-0.1,0.2-0.1c0.1,0,0.2,0.1,0.1,0.2c-0.2,0.3,3.6,0,4.2-0.3
		c1.1-0.5,1.1-0.7,1.1-3.9c0-1.5,0.1-2.9,0.1-3c0.1-0.2,0.2-0.2,0.4-0.1c0.4,0.1,2,0.1,2.3-0.1c0.2-0.1,0.2-0.1,0-0.1
		c-0.2,0-0.2-0.1-0.2-0.2c0-0.1,0.1-0.2,0.2-0.1c0.2,0,0.3-2.3,0.2-2.6c-0.3-0.6-0.4-0.7-1.7-0.7l-1.3-0.1l0-8.7l0-8.7h1.3
		c1.2,0,1.3,0,1.6-0.4c0.3-0.3,0.4-0.5,0.3-0.9c0-0.3-0.1-0.9-0.1-1.3c0-0.5-0.1-0.8-0.2-0.7c-0.1,0-0.2-0.1-0.2-0.2
		c0-0.1,0-0.1,0.2-0.1c0.2,0.1,0.2,0.1,0-0.1c-0.2-0.2-1.7-0.4-2.3-0.2c-0.7,0.2-0.7,0-0.8-2.6c-0.2-4-0.5-4.6-2.4-4.5
		c-0.6,0-1.1,0-1.2-0.1c-0.2-0.1-2.6-0.3-3.8-0.3c-0.5,0-1.3,0-1.9,0c-0.5,0-3.4,0-6.4,0c-2.9,0-5.9,0-6.6,0.1c-0.7,0-1.5,0.1-1.9,0
		C64.4,44,59.7,44,59.5,44c-0.2,0-0.3,0.1-0.3,0.2c0,0.1,0,0.1-0.1,0.1c-0.1,0-0.1,0-0.1-0.1c0-0.1-0.7-0.2-3-0.2
		c-2.3,0-2.9,0-2.9,0.2c0,0.1-0.1,0.2-0.2,0.2c-0.1,0-0.2-0.1-0.1-0.1c0.2-0.3-0.8-0.3-7.3-0.3c-3.7,0-7.8,0-9.2-0.1
		C34.2,43.9,33.3,43.9,32.8,44L32.8,44z M62.1,47.9c19.8,0,26.3,0,26.3-0.1c0-0.1,0-0.1,0.1,0c0.1,0.1,0.4,0.2,0.8,0.2l0.7,0l0,0.7
		c0,1.2,0.2,12.8,0.2,13.1c0,1.2,0,10.5,0.1,13.8s0.1,4.2-0.1,4.2c-0.1,0.1-0.7,0.1-1.2,0.1c-1.1,0-5,0-19.9,0c-7.8,0-8.8,0-8.7,0.2
		c0.1,0.1,0,0.2-0.2,0.2s-0.3-0.1-0.2-0.2c0.1-0.2-0.8-0.2-7.3-0.2c-4,0-8.5,0.1-10,0.1c-1.4,0.1-2.6,0.1-2.6,0
		c0-0.2-0.5-0.1-0.7,0.1c-0.1,0.1-0.2,0.1-0.3,0c-0.1-0.1-0.8-0.2-1.9-0.2c-1,0-1.9-0.1-1.9-0.1c-0.1,0-0.1-0.6-0.1-1.2
		c0-1,0-1.1-0.2-1.1c-0.1,0.1-0.2,0-0.2-0.2c0-0.2,0.1-0.3,0.2-0.2c0.2,0.1,0.2-0.6,0.2-5.2c0.1-17.3,0.1-17.1-0.1-17.1
		c-0.1,0-0.1-0.1,0-0.2c0.2-0.1,0.2-1.9,0-2.5c-0.1-0.3-0.1-0.6-0.1-0.7c0.1-0.1,0.1-0.9,0.1-1.8c0-0.9,0-1.7,0-1.8
		c0-0.1,0.1-0.2,0.3-0.1C35.7,47.9,47.7,47.9,62.1,47.9L62.1,47.9z"/>
	<path fill="#FFFFFF" d="M81.1,51.6l-3.1,0l-0.6,0.5c-0.5,0.5-0.6,0.7-0.7,1.3c-0.2,1.4-0.2,3.3,0,6.4c0.1,1.6,0.1,3.2,0.1,3.5
		c0,0.3-0.1,3-0.1,5.9l0,5.3l0.3,0.6c0.2,0.3,0.5,0.6,0.8,0.8c0.6,0.2,6.4,0.3,7.1,0.1c0.7-0.2,1.3-0.9,1.4-1.7
		c0.1-1.4,0.1-12.1-0.1-12.5l-0.2-0.4h-2c-1.3,0-2,0.1-2.2,0.2S82,62.3,82,63.2v1.4l0.4,0.2l0.4,0.3l0,1.6c0,0.9,0,2.3,0,3.2
		c0,1,0,1.7,0.1,1.9c0.1,0.2,0.1,0.4,0,0.7c-0.1,0.4-0.2,0.4-1.2,0.3c-1.2-0.1-1.5-0.1-1.2-0.4c0.2-0.2,0.2-10.3,0.1-15L80.6,55
		l1-0.1c1.5-0.1,1.5-0.1,1.5,1c0,0.5,0.1,1,0.2,1.1c0.1,0.1,0.1,0.2,0,0.2c-0.3,0-0.2,0.4,0.2,0.5c0.5,0.1,2.6,0,2.7-0.1
		c0.1-0.1,0.1-1.2,0.2-2.5l0.1-2.4L86,52.2c-0.3-0.3-0.7-0.5-1.6-0.6C84.3,51.6,82.8,51.6,81.1,51.6L81.1,51.6z M39.9,51.9
		c-0.1,0.1-0.2,1-0.1,3c0,3.2,0,3,0.2,2.7c0.1-0.2,0.1-0.1,0.1,0.2c0,0.2-0.1,0.4-0.2,0.4c-0.1,0-0.2,0.7-0.2,2.2
		c0,1.8,0,2.1-0.3,2.4c-0.2,0.2-0.3,0.5-0.3,1.9c0,0.9,0,1.6,0.1,1.5c0.1-0.1,0.6,0.3,0.6,0.6c0,0.1,0,0.2-0.1,0.2
		c-0.1,0-0.1,2-0.2,4.4c0,2.4,0,4.4,0.1,4.4c0.1,0,0.2,0.2,0.3,0.4c0.2,0.3,0.2,0.4,1.6,0.4c2.1,0,2,0.3,2-5c0-2.3-0.1-4.2-0.1-4.3
		c-0.2-0.6-0.1-0.7,2-0.7c2.2,0,3.1-0.2,3.6-0.7l0.3-0.4l0-6.3c0-4.2,0-6.4-0.1-6.6c-0.4-0.7-0.8-0.7-5.2-0.8
		C41.1,51.7,40,51.7,39.9,51.9L39.9,51.9z M45.6,55.3c0,0.1,0,1.7,0,3.4c0,1.8,0,3.1,0.1,2.9c0.1-0.4,0.3-0.3,0.3,0.3
		c0,0.4,0,0.5-0.2,0.4c-0.2-0.1-0.2,0-0.1,0.2c0.1,0.2,0,0.2-0.9,0.2c-0.5,0-1-0.1-1.2-0.2c-0.2-0.2-0.2-0.7,0-0.7
		c0.1,0,0.1-1,0.1-3.3c0-1.8,0-3.4,0-3.4c0.1,0,0.5-0.1,1-0.1C45.4,55.1,45.6,55.1,45.6,55.3L45.6,55.3z M52.2,51.8
		c-0.2,0.3-0.2,3.5,0.1,3.4c0.1,0,0.2,0.1,0.2,0.2s-0.1,0.2-0.2,0.2c-0.1,0-0.2,0.2-0.2,0.7c0,0.6,0,0.8,0.1,0.7
		c0.1-0.1,0.1-0.1,0,0.1c-0.2,0.3-0.4,16.7-0.2,17.6c0.1,0.5,0.3,0.8,0.7,1.1l0.5,0.4l3.8-0.1c4.2-0.1,4.5-0.1,5-1
		c0.3-0.6,0.4-5.5,0.4-14c0-3.5-0.1-6.9-0.1-7.6c0-0.8-0.1-1.4-0.2-1.4c-0.1,0-0.2,0-0.2,0.1c-0.1,0.2-0.3,0.2-0.3,0
		c0-0.2-0.2-0.2-1.2-0.2c-2,0-1.8-0.5-1.8,6.2c0,3.1,0.1,6.5,0.1,7.5c0.1,1.4,0,1.9-0.1,1.9c-0.3,0-0.2,0.5,0.1,0.7
		c0.2,0.1,0.2,0.2,0.1,0.3c-0.1,0.1-0.2,0.8-0.2,2.1c0,1.7-0.1,2-0.3,2.2C58,73,58,73,57.8,72.8c-0.2-0.3-0.8-0.3-1.3-0.1
		c-0.4,0.2-0.9-0.2-0.8-0.7c0.1-0.4,0.2-12.4,0.1-16.8l-0.1-3l-0.6-0.3c-0.4-0.2-0.7-0.3-0.9-0.2c-0.3,0.1-1.2,0.1-1.7,0
		C52.5,51.6,52.3,51.7,52.2,51.8L52.2,51.8z M65.1,51.8C64.9,52,64.9,57.3,65,58c0.1,0.3,0.1,1,0,1.5c-0.1,0.6,0,1.1,0,1.2
		c0.2,0.2,0,0.8-0.3,0.8c-0.1,0-0.2,0.1-0.1,0.1c0,0.1,0,0.2-0.1,0.4c-0.3,0.3-0.3,2.3-0.1,2.4c0.1,0,0.1,0.2,0.1,0.4
		s0.1,0.3,0.2,0.3c0.1,0,0.2,1.3,0.2,4.7c0,2.7,0,4.8,0.1,4.9c0.1,0.1,0.1,0.2,0,0.2c-0.1,0-0.1,0.3-0.1,0.7l0.1,0.6l3.9,0
		c5.7,0,5.4,0.4,5.4-6.7c0-4.8,0-5-0.3-5.3c-0.9-0.9-1-1.1-0.7-1.2c0.6-0.3,0.7-1,0.8-3.2c0-1.2,0-3.3,0.1-4.7c0-2.4,0-2.6-0.3-2.9
		c-0.4-0.4-1.1-0.5-5-0.5C66.2,51.6,65.2,51.7,65.1,51.8L65.1,51.8z M70.5,55.1c0.1,0.1,0.1,1.2,0,5.5c0,1.1-0.1,1.1-1.2,0.9
		l-0.6-0.1l-0.1-1.3c0-0.7-0.1-1.4-0.1-1.5c0-0.1,0-1,0.1-2l0.1-1.8h0.8C70,54.9,70.4,55,70.5,55.1z M70.4,65.2
		c0.1,0.1,0.1,1.2,0.1,2.5c0,1.3,0,2.9,0,3.6c0,0.7,0,1.4-0.1,1.5c-0.1,0.2-1.6,0.1-1.9-0.1c-0.2-0.1-0.2-0.3-0.1-0.7
		c0.1-0.3,0.1-1.9,0.1-3.6c0-2.7,0-3.1,0.2-3.3C69.2,64.9,70.3,65,70.4,65.2L70.4,65.2z"/>
</g>
</svg>
