<?xml version="1.0" encoding="utf-8"?>
<!-- Generator: Adobe Illustrator 24.3.0, SVG Export Plug-In . SVG Version: 6.00 Build 0)  -->
<svg version="1.1" id="Layer_1" xmlns="http://www.w3.org/2000/svg" xmlns:xlink="http://www.w3.org/1999/xlink" x="0px" y="0px"
	 viewBox="0 0 126 126" enable-background="new 0 0 126 126" xml:space="preserve">
<g>
	<path fill="#E74243" d="M101,113H25c-6.6,0-12-5.4-12-12V25c0-6.6,5.4-12,12-12h76c6.6,0,12,5.4,12,12v76
		C113,107.6,107.6,113,101,113z"/>
	<path fill-rule="evenodd" clip-rule="evenodd" fill="#FFFFFF" d="M58.2,59.2C58.2,59.2,58.2,59.1,58.2,59.2
		C58.1,59,58.1,59,58,58.9c-0.2-0.1-0.4-0.1-0.7,0v0.2c-0.3,0.1-0.5,0.2-0.8,0c-0.1,0-0.3-0.1-0.3-0.1c-0.1-0.3-0.5-0.2-0.8-0.1
		c0,0-0.1,0-0.1,0.1h-0.3c-0.2-0.1-0.3-0.2-0.5-0.2c-0.3-0.1-0.6,0.6-0.9,0.8c-0.1,0-0.3-0.8-0.3-0.8c-0.1-0.1-0.2-0.1-0.3-0.1h-0.3
		c-0.5-0.1-1-0.1-1.5-0.1c-0.3-0.1-0.7-0.1-0.9,0c-0.1,0-0.2-0.1-0.2,0h-0.3c-0.1,0-0.2-0.1-0.3-0.1h-0.2c-0.3-0.1-0.4-0.1-0.7-0.1
		c-0.4-0.1-0.9-0.1-1.4-0.1c0,0-0.1,0-0.1,0.1c-0.2,0-0.3,0-0.6-0.1c-0.2,0-0.3,0-0.4-0.1c0,0-0.1-0.1-0.2-0.1H46
		c-0.8-0.2-1.6-0.3-2.4-0.3h-0.3c-0.4-0.1-0.8-0.1-1.3-0.1c-0.1,0-0.1,0-0.2,0.1c-0.2-0.1-0.3,0.3-0.3,0.3c-0.1-0.1-0.2-0.6-0.3-0.5
		h-0.1c-0.1,0-0.3-0.1-0.4-0.1c0,0-0.1,0-0.1-0.1c-0.1-0.1-0.3,0-0.3,0H40c-0.1,0-0.2-0.1-0.3-0.2c-0.1,0-0.1,0.1-0.2,0.1v0.1h-0.1
		c-0.3,0-0.4-0.3-0.7-0.3C38.2,57,37.6,57,37,56.9c-0.3-0.1-0.7-0.2-1.1-0.2c-0.1,0-0.1,0.1-0.2,0.2h-0.1c-0.3,0-0.6-0.1-0.8-0.3
		h-0.1h-0.1c-0.2-0.2-0.4-0.4-0.7-0.5c-0.2-0.1-0.3-0.2-0.6-0.2c-0.1,0-0.3-0.1-0.4-0.1h-0.1c-0.1-0.1-0.3-0.2-0.3-0.3
		c-0.2,0-0.3-0.1-0.4-0.1c-0.1,0-0.2-0.1-0.3-0.1h-0.3l-0.5-0.5c-0.3-0.1-0.3-0.2-0.5-0.3c-0.2,0-0.3,1.5-0.3,1.5
		c-0.1,0-0.2-1.6-0.2-1.6c-0.2-0.1-0.2,0-0.3,0h-0.1c-0.3-0.3-0.6-0.5-0.5-0.9c-0.5-0.4-0.3-0.8-0.2-1.1c0.1-0.2,0.5-0.4,0.7-0.6
		c0.3-0.3,0.6-0.5,0.9-0.7c0.2-0.2,0.5-0.3,0.8-0.3c0.5-0.2,0.8-0.4,1.4-0.6c0.5-0.2,1-0.2,1.4-0.4c0.2-0.1,0.4-0.2,0.6-0.3
		c0.6-0.3,1.2-0.2,1.8-0.3c0.5-0.2,1-0.3,1.5-0.3c0.1,0,0.3-0.2,0.3-0.3c0.1-0.1,0.3-0.3,0.1-0.3c0.1-0.1-0.2-0.2-0.2-0.2
		c0-0.1-0.2-0.2-0.3-0.1c-0.3,0.1-0.7,0-0.9,0.1c-0.1,0.1-0.2,0.3-0.3,0.2c-0.3-0.1-0.6,0-0.9,0.2c-0.2,0-0.4-0.1-0.7,0.2
		c0,0-0.1-0.1-0.2-0.1c-0.7-0.1-1.4,0.2-2,0.3c-0.1,0-0.2,0.3-0.3,0.3c-0.3-0.3-0.6-0.2-0.8,0.2h-0.2c-0.1,0-0.2-0.1-0.2-0.1
		c-0.6-0.1-1.1,0-1.6,0.3c-0.2,0.1,0,0.3-0.1,0.4h-0.4c-0.1-0.1-0.2-0.1-0.3-0.1c-0.3-0.2-0.7,0.2-1,0.5h-0.1
		c-0.1-0.2-0.3-0.2-0.5-0.1c-0.8,0.4-1.7,0.9-2.3,1.7c-0.2,0.2-0.3,0.5-0.3,0.8c-0.2,0.2,0.2,0.5,0,0.7c0,0.1-0.1,0.2-0.2,0.2
		c0,0.3,0.2,0.6,0.3,0.8c0.1,0.3,0.3,0.4,0.4,0.7c0.1,0.3,0.3,0.4,0.6,0.5c0.2,0.1,0.3,0.2,0.5,0.3c0,0.1,0,0.2,0.1,0.3
		c0.2,0.3,0.6,0.5,0.9,0.8c0.3,0.2,0.4,0.3,0.6,0.4c0.2,0.1,0.3,0.1,0.4,0.2c0.1,0.1,0.2,0.2,0.3,0.2c0.1,0.1,0.2,0.1,0.2,0l0.5,0.3
		c0.2,0.2,0.4,0.3,0.7,0.4c0,0.1,0.1,0.1,0.1,0.2c0.3,0.1,0.4,0,0.7,0.1h0.1c0.1,0.1,0.3,0.2,0.3,0.2c0.1,0.1,0.3,0.2,0.4,0.3
		c0.1,0.1,0.3,0.2,0.4,0.3c0,0,0.1,0,0.2,0.1c0.3,0.1,0.7,0,0.9,0.2c0.1,0.1,0.2,0.3,0.3,0.3c0.2,0.1,0.3,0.2,0.4,0.2
		c0.7,0.5,1.5,0.6,2.3,0.8c0.4,0.2,0.9,0.1,1.4,0.2v0.1c0.2,0,0.3,0.1,0.5,0.2c0.3,0.1,0.5,0.3,0.8,0.3c1,0.3,1.9,0.4,2.9,0.7
		c0.7,0.2,1.3,0.2,1.9,0.3c0.4,0.1,0.8,0.3,1.3,0.3c0.2-0.1,0.4-0.3,0.6-0.2c0.1,0.1,0.2,0.1,0.3,0.2c0.1,0,0.1,0,0.1,0.1h0.2
		c0.9,0.3,2,0.5,3,0.5c0.2-0.1,0.3-0.1,0.5-0.2c0.3-0.2,0.3-0.7,0.7-0.8l0.1,0.3c0.1,0.1,0.1,0.1,0.1,0.2c0,0.1,0,0.2,0.1,0.2
		c0.1,0.1,0.2,0.3,0.3,0.3H51l0.1,0.1c0.3,0.1,0.7,0.2,1,0.2c0.3-0.1,0.6-0.2,0.8-0.1h0.5c0,0.1,0.1,0.1,0.1,0.1
		c0.2,0,0.3,0,0.5,0.2c0.1,0.2,0.2,0.3,0.3,0.4V65c0,0.1,0.1,0.2,0.1,0.3v0.2c0,0.2-0.1,0.3-0.1,0.3c0.1,0.1,0.1,0.1,0.2,0.1
		c0,0.2,0,0.3,0.1,0.6c-0.1,0.3-0.1,0.5-0.2,0.8c0,0.2-0.1,0.3-0.1,0.5v1.4l0.1,0.1v0.1c0,0.1,0.1,0.2,0.1,0.2
		c0.1,0.1,0.1,0.2,0.2,0.3c0,0,0,0.1,0.1,0.1c0,0.1,0.1,0.2,0.1,0.3c0.1,0.1,0,0.2,0,0.2c-0.1,0.1-0.2,0.2-0.2,0.3h-0.1
		c-0.1,0-0.1,0.1-0.2,0.3v0.2c-0.1,0.3,0,0.6,0,0.9c0.1,0.6,0.1,1.2,0.2,1.8V74l0.1,0.1c0,0.4,0.1,0.9,0.1,1.4c0,0.3-0.1,0.4,0,0.7
		l0.1,0.1c0,0.2,0.1,0.3,0.1,0.5c-0.1,0.1-0.1,0.1-0.1,0.2v0.3c0.1,0,0.1,0.1,0.2,0.1c0,0.2,0.6,0.3,0.7,0.3c0,0.2-0.6,0.4-0.6,0.6
		H55c0.2,0.3-0.1,0.4,0,0.6V79c0,0.3,0,0.5,0.1,0.8v0.5c0,0.5,0.1,1,0.1,1.5c0.1,0.2,0.1,0.3,0.1,0.4c0.1,1,0.2,2.1,0.3,3.2
		c0,0.5,0.1,0.9,0.1,1.4c0.1,0.8,0.2,1.6,0.3,2.4c0,0.3,0,0.8,0.1,1.1C56,90.3,56,90.4,56,90.5c0.1,0.1,0.1,0.3,0.1,0.3
		c0.1,0.4,0.1,0.8,0.2,1.3c0,0.5,0,0.9,0.2,1.4V94c0.1,0,0.1,0,0.1,0.1l-0.1,0.1c0,0.3,0,0.9,0.2,1.2c0,0.1,0.1-0.4,0.2-0.5
		c0-0.2,0.1-0.4,0.1-0.6c0.1-0.1,0.1-0.2,0.1-0.3c0.1-0.5,0.2-1.1,0.3-1.6c0.1-0.6-0.1-1.1,0.1-1.7c0.1-1.2,0.2-2.2,0.3-3.3
		c-0.3-0.4-0.3-0.9-0.2-1.4c0.1-0.1,0.1-0.2,0.1-0.3c0.1-0.1,0.2-0.3,0.2-0.3c0.1-2.8,0.3-5.5,0.4-8.3c0.1-1,0.1-2,0-3
		c0,0-0.1,0-0.1-0.1c0-0.1-0.1-0.1-0.1-0.2c-0.1-0.3-0.1-0.7,0-0.9c0.1-0.2,0.3-0.4,0.3-0.6c0.1-0.3,0.1-0.6,0.1-0.9
		c-0.1-0.3-0.4-0.8-0.3-1.2c0.1-0.3,0.3-0.5,0.3-0.8c0.1-0.5,0.2-1,0.1-1.5c0-0.3-0.1-0.5-0.1-0.8c0.1-0.3,0.2-0.6,0.2-0.9
		c-0.1-0.4,0.2-0.8,0-1.2c-0.2-0.4-0.3-0.8,0-1.3C58.3,62.4,58.7,60.8,58.2,59.2L58.2,59.2z M64.9,59.1c0.1-0.8,0.2-1.7,0.2-2.5
		c0-0.5-0.2-1-0.2-1.5c0.1-0.6,0.1-1.2,0-1.8v-0.2c0-0.1-0.1-0.3-0.1-0.4c-0.1-0.2-0.1-0.4,0-0.7c0-0.2,0.1-0.5,0.1-0.8
		c0-0.2,0-0.3-0.1-0.5v-0.3c0-0.1-0.1-0.1-0.1-0.2v-0.1c0-0.6,0.2-1.1,0.1-1.7c-0.1-2-0.2-4-0.3-5.9c-0.1-0.6-0.3-1.1-0.3-1.7
		c0.1-0.3,0-0.6,0-0.8c0-0.5-0.1-0.9-0.2-1.4C64,37.3,64.2,36,64,34.6c-0.1-0.2-0.1-0.3-0.2-0.5c0-0.3-0.1-0.6-0.2-0.8
		c0-0.3,0.2-0.7,0.1-1c0-0.1-0.4-0.2-0.4-0.3c0-0.2,0.3-0.3,0.3-0.3c-0.1-0.7,0-1.4-0.2-2.2v-0.2c-0.1-0.3-0.1-0.5-0.2-0.8
		c-0.1-0.1-0.2-1-0.3-1c-0.2-0.1-0.3,0.9-0.3,1c0,0.3-0.1,0.5-0.1,0.8c-0.3,1.1-0.2,2.2-0.3,3.3c0,0.2,0,0.3-0.1,0.4
		c0,0.2,0,0.4-0.1,0.6c-0.1,0.3-0.1,0.8-0.2,1.1c-0.1,0.9,0.1,1.8-0.1,2.7v0.1c0,0.2-0.1,0.3-0.1,0.3c0,0.3,0,0.4,0.1,0.7v0.6
		l-0.2,0.2v0.5c-0.2,0.8,0.1,1.6,0,2.4c0,0.2-0.1,0.3-0.1,0.5c-0.1,0-0.1,0.1-0.1,0.1c0,0.1,0.3,0.8,0.4,0.8h-0.4c0,0.1-0.2,0-0.2,0
		c0,0.3,0.2,0.2,0.1,0.3c-0.1,0.4-0.3,0.8-0.1,1.4c0.1,0.3,0,0.7,0,1v0.3c-0.2,1.2-0.4,2.4-0.3,3.5c0.1,0.3,0.1,0.7,0,0.9v0.3
		c-0.1,0.1-0.1,0.2,0,0.3c0,0.4,0,0.8-0.1,1.1c-0.1,0.3-0.2,0.7-0.1,1c0.1,0.8,0.2,1.5,0.1,2.4c0,0.3-0.1,0.6-0.2,0.8
		c-0.1,2.7-0.1,5.4,0,8.1c0.2,1.7,0,3.5,0.2,5.2c0.2,1.9,0,3.9,0.1,5.8c0.2,2.5,0.3,5.1,0.4,7.5c0,0.5,0.3,0.9,0.2,1.4
		c-0.1,0.4-0.2,0.9,0,1.4c0,0.1,0.3,0.1,0.3,0.2c0,0,0.3,0,0.3,0.1l-0.5,0.3c0.1,0.4,0.1,0.8,0.1,1.2c0,0.1,0.1,0.3,0.1,0.3
		c0,0.2,0,0.3,0.1,0.4c0.1,0.8-0.1,1.6,0.1,2.4v0.2c0.1,0.4,0.1,0.8,0.1,1.3c-0.1,0.3-0.1,0.8,0,1.2c0,0.4,0.1,0.8,0.3,1.2v0.4h0.1
		c0.1,0.5-0.2,0.9-0.1,1.4c0,0.1,0,0.3,0.1,0.3c0,0.3,0.1,1.4,0.3,1.4c0.2,0.1,0.4-0.9,0.3-1.2v-0.2c0.2-0.4,0.3-0.8,0.1-1.2
		c0-0.1,0-0.3-0.1-0.3c0.1,0,0.1,0,0.1-0.1h-0.1c0-0.1,0-0.3,0.1-0.3v-0.1c0-0.1,0-0.1,0.1-0.1c0.1-0.2,0.1-0.4,0.2-0.6v-0.1
		c0.2-0.5-0.1-1,0.1-1.5c0.2-0.9,0.2-1.7,0.3-2.6c0-0.2-0.1-0.3-0.1-0.5c0.1-0.2,0.1-0.3,0.1-0.3c0.3-0.8,0.3-1.6,0.2-2.4
		c0-0.3-0.2-0.6-0.1-0.8c0-0.3,0.2-0.6,0.2-1c0.2-0.8,0-1.5,0.1-2.4c0-0.3,0.2-0.6,0.2-0.8c0.1-1.7,0.3-3.2,0.3-4.9
		c0-0.3-0.1-0.6,0-0.8c0-0.3,0-0.6,0.1-0.8c0.1-0.3,0.1-0.5,0.1-0.8c-0.1-0.3-0.2-0.5-0.2-0.8c0.2-0.6-0.7-1-0.8-1.6
		c0-0.1,0.9-0.2,0.9-0.3h-0.1v-0.3c0-0.2-0.1-0.4,0-0.6c0.3-1.3,0.2-2.4,0.1-3.5v-0.1v-0.2c0-0.7-0.1-1.4,0-2.2
		c0.1-0.3,0.1-0.8,0.1-1.1c0-0.8,0-1.6-0.1-2.4c0.1-0.1,0.1-0.2,0-0.2c0-0.2-0.3-0.3-0.3-0.5c0-0.1,0.5-0.3,0.4-0.3
		c-0.1,0-0.1-0.1-0.1-0.1C64.9,60.1,64.9,59.6,64.9,59.1L64.9,59.1z M100.9,53.2c0-0.2-0.3-0.2-0.3-0.3c0.1-0.7-0.3-1.1-0.8-1.4
		c-0.2,0-0.3,0-0.5-0.1c-0.1-0.1-0.1-0.3-0.3-0.4c-0.3-0.2-0.4-0.1-0.6,0.1h-0.2c-0.3-0.1-0.5,0-0.5-0.3c-0.1,0,0.2-0.3,0-0.3
		c-0.3-0.1-0.6-0.3-0.8-0.3c-0.2,0-0.3-0.2-0.4,0l-0.1,0.1c-0.1,0-0.3,0.1-0.4,0.1c0-0.1,0-0.1-0.1-0.1c0-0.3-0.1-0.5-0.3-0.4
		c-0.2,0-0.3,0.2-0.4,0.2H95c-0.3-0.2-0.3-0.4-0.5-0.5c-0.8-0.3-1.5-0.2-2.3-0.4c-0.3-0.1-0.7-0.1-1-0.2c-0.2,0-0.3-0.1-0.3-0.1
		c-0.3-0.2-0.7-0.1-0.9,0.1v0.1c-0.1,0-0.3,0.1-0.3,0.1c0.2-0.1,0-0.3-0.1-0.4c-0.2-0.1-0.3-0.1-0.5-0.1c-0.1,0.1-0.2,0.2-0.2,0.3
		h-0.2c-0.1,0.1-0.2,0.1-0.2,0.2c0.1,0.2,0.2,0.3,0.3,0.3c0.3,0.2,0.5-0.1,0.8,0c0.2,0.1,0.3,0.3,0.5,0.3c0.6,0.1,1.1,0.4,1.6,0.3
		c0.3,0,0.4-0.2,0.7,0c0.3,0.1,0.3,0.3,0.5,0.4c1.1,0.4,2.1,0.8,3.1,1.5c0.5,0.3,0.9,0.9,0.7,1.6c-0.3,0.8-1.2,1.4-2,1.8
		c-0.2,0.1-0.3,0.3-0.5,0.5c-0.2,0.2-0.4,0.3-0.7,0.3h-0.1c0-0.1-0.1-0.2-0.2-0.2c-0.2,0-0.3,0-0.5,0.1c-0.1,0-0.3,0-0.3,0.1
		c-0.7,0.2-1.4,0.3-2,0.7h-0.6c-0.2,0-0.3,0.1-0.4,0.1C89.1,57,89,57,88.7,57.1c0-0.1-0.1-0.1-0.1-0.1c-0.2-0.1-0.3,0-0.5,0.1h-0.3
		c-0.2,0.1-0.3,0.3-0.3,0.3h-0.3c-0.2,0-0.3,0.1-0.5,0.1v-0.1c-0.8,0-1.7,0.3-2.5,0.3v0.1c-0.3,0-0.3,0.4-0.6,0.5
		c-0.1,0.1-0.3-0.3-0.3-0.3c0-0.1-0.1-0.1-0.1-0.1c-0.1-0.2-0.3,0-0.3,0.1h-0.3C82.5,58,82.4,58,82.3,58h-0.6l-1.5,0.3H80
		c-0.1,0-0.1,0.1-0.1,0.1c-0.2,0.1-0.3,0.1-0.4,0.1c-0.1,0.1-0.2,0.1-0.3,0.1c-0.1-0.1-0.3-0.2-0.4-0.1c-0.1,0-0.1,0.1-0.1,0.1h-0.5
		l-0.1-0.1h-1c-0.3,0-0.8,0-1.1,0.1c-0.5,0.1-0.8,0.4-1.4,0.4c-0.1,0-0.1,0-0.2-0.1c0-0.1,0-0.1-0.1-0.2c-0.3-0.1-0.4,0.1-0.7,0.2
		c-0.2,0.1-0.3,0.1-0.4,0.2h-0.4c0-0.1,0-0.2-0.1-0.2c-0.2-0.1-0.3-0.1-0.6,0c-0.1-0.1-0.2-0.1-0.3,0c-1.3,0.1-2.5,0-3.7,0
		c-0.2,0-0.3,0-0.4,0.1c-0.1,0.1,0.3,0.3,0.3,0.3c-0.1,0.1-0.4,0-0.4,0.1c-0.2,0.9-0.2,1.8-0.2,2.6c0.1,0.7,0.3,1.4,0.2,2.1
		c0,1.2,0.3,2.4,0.1,3.6c0,0.2-0.1,0.3-0.1,0.5c0.1,0.3,0.2,0.4,0.2,0.6c0.2,0.9-0.2,1.9,0,2.7c0,0.3,0.2,0.7,0.2,1
		c-0.2,1.2-0.1,2.4-0.1,3.5c0,0.2,0.1,0.3,0.1,0.6c0.2,0.3-0.1,0.7,0,1c0,0.1,0.1,0.2,0.1,0.3c0.2,0.4,0.2,0.8,0.2,1.3
		c-0.2,0.3-0.3,0.6-0.3,0.9c0.2,0.4,0.2,0.8,0.3,1.2c0.2,0.4,0.2,0.9,0.1,1.4c0,0.2-0.1,0.3-0.1,0.5c-0.3,1.9,0.3,3.7,0.3,5.6
		c0,0.2-0.1,0.5-0.1,0.8c0.2,0.6,0,1.1,0.3,1.7c0,0.1,0.1,0.3,0.2,0.3c0,0.1,0.1,0.2,0.1,0.2v0.2c-0.1,0.1-0.1,0.3-0.2,0.3
		c-0.1,0.1-0.1,0.3,0,0.4c0,0.1,0,0.2,0.1,0.3V93c0,0.2-0.2,0.3-0.1,0.5c0,0.1,0,0.1,0.1,0.2c0,0.2,0,0.7,0.1,0.8
		c0.1,0.2,0.1,0.7,0.2,0.7c0.3,0,0.3-1.2,0.3-1.5c0.1-0.2,0-0.3,0-0.6c0.1,0,0.1-0.1,0.1-0.2c0-0.2,0-0.3-0.1-0.3
		c0-0.1,0.1-0.2,0.1-0.3c-0.1-0.1-0.2-0.3-0.2-0.3h0.2c0-0.1,0.2-0.1,0.2-0.2c0-0.3,0.1-0.5,0.1-0.8c0-0.3-0.1-0.7,0-1
		c0,0,0.1-0.1,0.1-0.2s0-0.2-0.1-0.2c0.1-0.2,0.1-0.3,0-0.4v-0.5c0.1,0,0.2,0,0.2-0.1c0.1-0.2,0.2-0.3,0.2-0.6
		c0.1-0.1,0.1-0.3,0.1-0.5c0-0.3-0.3-0.5-0.2-0.8c0.1-0.1,0.2-0.2,0.3-0.3v-0.4v-0.3v-0.4c0.1-0.2,0.1-0.3,0-0.6
		c0-0.1,0.1-0.3,0.1-0.3l0.1-0.1v-0.4c0-0.2,0.1-0.4,0.1-0.6v-0.1c0.1-0.3,0.1-0.5,0.2-0.8c0-0.2,0.1-0.3,0.1-0.5
		c0.1-0.5-0.1-0.8-0.2-1.4c-0.1-0.2,0-0.3,0.1-0.6c0.2-0.3,0.3-0.5,0.3-0.7v-0.1c0.1-0.2,0.1-0.3,0-0.5v-0.4c0-0.1,0-0.1-0.1-0.1
		c-0.1-0.3-0.2-0.6-0.2-0.8c0-0.2,0.1-0.3,0.2-0.5c0.1,0,0.3-0.1,0.3-0.2c0-0.2,0-0.3,0.1-0.3v-0.1v-0.3c0-0.3,0-0.4-0.1-0.6
		c-0.1-0.1-0.1-0.2-0.1-0.3c-0.1-0.1-0.1-0.2,0-0.3l0.1,0.1c0-0.2,0.1-0.3,0.1-0.5c0.1-0.3,0.2-0.7,0.2-1v-1.4
		c-0.1-0.2-0.1-0.4,0-0.6c0.1-0.3,0.1-0.4,0.1-0.7c0.1-0.2,0.1-0.3,0.1-0.4c0.1-0.7-0.1-1.3-0.1-1.9c0.1-0.1,0.1-0.2,0.1-0.3v-0.8
		c0.1-0.2,0.1-0.3,0-0.4c0-0.2-0.1-0.3-0.1-0.5c-0.1-0.2,0-0.3,0.1-0.5v-0.3c0.1-0.2,0.1-0.3,0-0.4v-0.3c0,0,0.1-0.1,0-0.2v-0.1
		c0-0.1,0-0.3,0.1-0.3c0-0.2,0.2-0.2,0.3-0.2c0.8,0,1.6,0.1,2.5,0c0.1-0.1,0.2-0.1,0.3-0.2c0.6-0.3,1.1,0.2,1.7,0
		c0.3,0,0.6-0.1,0.8-0.1c1.3-0.3,2.4-0.3,3.6-0.6c0.1,0,0.1,0,0.2-0.1h0.1l0.1-0.1c0.2-0.1,0.3-0.2,0.4-0.3c0-0.1-0.1-0.2,0-0.2
		c0-0.1,0-0.1,0.1-0.2c0-0.1,0-0.1,0.1-0.2c0-0.1-0.3-0.3-0.3-0.4c0.1,0,0.2-0.4,0.2-0.6c0,0.1,0.3,0.3,0.3,0.5
		c-0.1,0.2-0.1,0.4,0,0.6c0.1,0.3,0.4,0.5,0.5,0.5c0.8,0.2,1.4-0.3,2-0.4c0.2,0,0.3-0.1,0.4-0.1c0.3-0.2,0.5-0.2,0.8-0.3
		c0.1,0,0.2-0.1,0.2-0.1h0.1c0.1,0,0.1,0,0.2-0.1c0.3-0.1,0.5-0.1,0.8-0.2h0.1c0.4-0.1,0.8-0.1,1.3-0.2c0.2-0.1,0.3-0.2,0.4-0.3h0.3
		c0.1,0,0.2-0.2,0.2-0.3v-0.1h0.2c0.3-0.2,0.5,0.1,0.8,0c0.2,0,0.4-0.2,0.6-0.3c0.3-0.1,0.4-0.3,0.6-0.4c0.2-0.1,0.3-0.1,0.3-0.2
		c0.4-0.1,0.8-0.1,1.1-0.2c0.2,0,0.3-0.1,0.3-0.2c0.2,0,0.3-0.1,0.4-0.2c0.1,0,0.2-0.1,0.2-0.2c0.1-0.1,0.3,0.1,0.3,0
		c0.1,0,0.2-0.1,0.3-0.2c0.3,0,0.4-0.2,0.7-0.4c0.1,0,0.2-0.1,0.3-0.1h0.2v-0.1c0.3-0.1,0.6-0.2,0.9-0.3c0-0.1,0.1-0.1,0.1-0.1
		c0.3-0.1,0.5-0.3,0.7-0.5c0-0.1,0.1-0.2,0.1-0.3h0.1c0.2,0,0.4-0.1,0.6-0.2h0.1c0.6-0.3,1.1-0.7,1.5-1.2c0.1-0.1,0.1-0.2,0.1-0.3
		v-0.1c0.1-0.1,0-0.6,0.1-0.7c0-0.2,0.4,0.2,0.7,0.1c0.3,0,0-0.4,0.1-0.6c0-0.2,0.2-0.2,0.3-0.2c0.1-0.1,0.1-0.2,0.1-0.2
		C101.1,53.8,101,53.5,100.9,53.2L100.9,53.2z M92.6,49.4L92.6,49.4L92.6,49.4z"/>
</g>
</svg>
