<?xml version="1.0" encoding="utf-8"?>
<!-- Generator: Adobe Illustrator 24.3.0, SVG Export Plug-In . SVG Version: 6.00 Build 0)  -->
<svg version="1.1" id="Layer_1" xmlns="http://www.w3.org/2000/svg" xmlns:xlink="http://www.w3.org/1999/xlink" x="0px" y="0px"
	 viewBox="0 0 126 126" enable-background="new 0 0 126 126" xml:space="preserve">
<g>
	<path fill="#EC6938" d="M101,113H25c-6.6,0-12-5.4-12-12V25c0-6.6,5.4-12,12-12h76c6.6,0,12,5.4,12,12v76
		C113,107.6,107.6,113,101,113z"/>
	<g>
		<g>
			<path fill="#FFFFFF" d="M38.4,29.4v67.8c0,0-1.1,16.2,23.9,15.7c0,0,22.5,2.7,25.3-15.1V54.6c0,0-1.7-8.8-17.1-8.8
				c0,0-10.5-0.2-11.1,3.2l-0.1-17c0,0,3.4-3.8,7.7,0.1L67,42.2h20.7V29.4c0,0-0.1-17.2-24.3-16.2C63.3,13.1,40.2,11.2,38.4,29.4z"
				/>
			<path fill="none" d="M65.4,113c-1.8,0-3-0.1-3.1-0.1c-5,0.1-9.4-0.5-12.9-1.7c-2.9-1-5.4-2.5-7.2-4.4c-2.2-2.3-3.1-4.8-3.5-6.5
				c-0.4-1.8-0.4-3.1-0.4-3.2V29.3l0,0c0.4-4.1,2-7.6,4.7-10.2c2.1-2.1,5-3.7,8.4-4.8c5.9-1.8,11.7-1.4,11.9-1.3
				c4.7-0.2,8.8,0.3,12.2,1.4c2.9,1,5.3,2.4,7.3,4.2c2.5,2.4,3.7,5.2,4.3,7.1c0.6,2,0.6,3.5,0.6,3.6v12.9H66.9L67,32.1
				c-1.4-1.2-2.8-1.8-4.2-1.7c-1.9,0.1-3.2,1.4-3.4,1.6l0.1,16.4c0.3-0.6,0.9-1.1,1.9-1.5c0.9-0.4,2.2-0.7,3.8-0.9
				c2.7-0.4,5.3-0.3,5.4-0.3c3.5,0,6.6,0.5,9.2,1.4c2.1,0.7,3.8,1.8,5.2,3c2.3,2.2,2.8,4.4,2.8,4.4l0,0v43.1l0,0
				c-0.6,4.1-2.4,7.4-5.2,9.9c-2.2,2-5.1,3.5-8.6,4.4C70.7,112.8,67.6,113,65.4,113z M62.3,112.7L62.3,112.7c0.1,0,5.7,0.7,11.6-0.9
				c3.5-0.9,6.3-2.4,8.5-4.3c2.8-2.5,4.5-5.8,5.1-9.8V54.6c0-0.1-0.5-2.3-2.8-4.4c-1.4-1.3-3.1-2.3-5.1-3c-2.6-0.9-5.6-1.4-9.1-1.4
				c-0.1,0-10.5-0.2-11,3.1l-0.2,1l-0.1-18l0,0c0,0,1.4-1.6,3.5-1.7c1.5-0.1,2.9,0.5,4.3,1.8l0,0l0,0l-0.1,10h20.5V29.4
				c0,0,0-1.5-0.6-3.5c-0.6-1.9-1.8-4.6-4.3-7c-1.9-1.8-4.3-3.2-7.2-4.2c-3.4-1.1-7.5-1.6-12.2-1.4l0,0l0,0c-0.2,0-6-0.4-11.9,1.3
				c-3.4,1-6.3,2.6-8.4,4.7c-2.6,2.6-4.2,6-4.6,10.1v67.8l0,0c0,0-0.1,1.3,0.4,3.1c0.4,1.7,1.3,4.1,3.5,6.4c1.8,1.9,4.2,3.4,7.1,4.4
				c3.2,1.1,7.2,1.7,11.7,1.7C61.5,112.7,61.9,112.7,62.3,112.7L62.3,112.7z"/>
		</g>
		<g>
			<path fill="#EC6938" d="M54.6,69.3v31.1h-0.6v1.7h1.7v0.6h5V102h0.7V85.8c0,0,1.8-2.4,5.9-1.8v-8.5c0,0,3.6-1.9,10.3-1.9v-7.7
				c0,0-2.5-3.5-8.3,0.4c0,0-6.6,3.6-8-0.4h-5.4v0.5h-1.2v1.1H54v1.3h0.6L54.6,69.3L54.6,69.3z"/>
			<path fill="#EC6938" d="M60.6,102.7h-5.1v-0.6h-1.7v-1.8h0.6v-31l0-0.4h-0.6v-1.4h0.6v-1.1h1.2v-0.5h5.6l0,0.1
				c0.3,0.8,0.8,1.4,1.5,1.6c1.2,0.5,2.9,0.1,4.1-0.3c1.2-0.4,2.2-0.9,2.3-1c1.3-0.9,2.6-1.5,3.7-1.7c0.9-0.2,1.8-0.2,2.6,0
				c1.4,0.4,2,1.3,2,1.3l0,0v7.8h-0.1c-3.4,0-6,0.5-7.6,0.9c-1.5,0.4-2.4,0.8-2.6,0.9v8.5l-0.1,0c-1.2-0.1-2.9-0.1-4.5,0.7
				c-0.8,0.5-1.3,1-1.4,1.1v16.2h-0.7V102.7z M55.7,102.6h4.8v-0.7h0.7V85.8l0,0c0,0,0.5-0.6,1.4-1.1c0.9-0.5,2.4-1,4.5-0.7v-8.4
				l0,0c0,0,0.9-0.5,2.7-0.9c1.6-0.4,4.2-0.9,7.6-0.9V66c-0.1-0.1-0.7-0.9-1.9-1.2c-0.8-0.2-1.6-0.2-2.5,0c-1.1,0.2-2.4,0.8-3.7,1.7
				l0,0c0,0-1,0.6-2.3,1c-1.7,0.6-3.2,0.7-4.2,0.3c-0.8-0.3-1.3-0.9-1.6-1.7h-5.3v0.5h-1.2v1.1H54v1.1h0.6l0,0.5v31.2H54v1.5h1.7
				V102.6z"/>
		</g>
		<g>
			<path fill="#FFFFFF" d="M61.7,78.5v4.8h4.9v-6.6l-0.7-1.2h-1.1l0,1.1c0,0,1.2,0.2,1.3,0.9L65.7,78C65.7,78,64.5,76.1,61.7,78.5
				L61.7,78.5z"/>
			<path fill="none" d="M66.7,83.4h-5v-4.9l0,0c1-0.9,1.9-1.3,2.6-1.3c0.7,0,1.1,0.3,1.3,0.5c0,0,0.1,0.1,0.1,0.1l0.3-0.3
				c-0.2-0.6-1.2-0.8-1.2-0.8l-0.1,0l0-1.3H66l0.7,1.3V83.4z M61.8,83.2h4.7v-6.5l-0.6-1.1h-1l0,1c0.3,0.1,1.2,0.3,1.3,1l0,0
				L65.7,78l-0.1-0.1c0,0,0,0.1,0,0.1c0,0-0.3-0.5-1-0.6c-0.8-0.1-1.7,0.3-2.8,1.2V83.2z"/>
		</g>
	</g>
</g>
</svg>
