<?xml version="1.0" encoding="utf-8"?>
<!-- Generator: Adobe Illustrator 24.3.0, SVG Export Plug-In . SVG Version: 6.00 Build 0)  -->
<svg version="1.1" id="Layer_1" xmlns="http://www.w3.org/2000/svg" xmlns:xlink="http://www.w3.org/1999/xlink" x="0px" y="0px"
	 viewBox="0 0 126 126" enable-background="new 0 0 126 126" xml:space="preserve">
<g>
	<ellipse transform="matrix(0.9873 -0.1586 0.1586 0.9873 -9.1959 10.7913)" fill="#F5BD2A" cx="63" cy="63" rx="41.9" ry="41.9"/>
	<g>
		<g>
			<g>
				<path fill="#1D1D1B" d="M111.6,85.6c0,0.1-0.1,0.2-0.2,0.2c0,0,0,0,0,0c-6.3,3.4-12.1,7.5-17.7,12c-0.2,0.1-0.4-0.1-0.3-0.3
					c0,0,0.1-0.1,0.1-0.1c1.6-1.5,3.4-2.9,5.1-4.3c-0.2-3.1-1.3-6.1-3-8.6c-0.2,0.1-0.4,0.3-0.7,0.4c0,0,0,0,0,0
					c0.5,0.5,1,1.1,1.1,1.8c0,0.1-0.1,0.2-0.2,0.1c0,0,0,0,0,0c-0.2-0.7-0.6-1.3-1.1-1.8c0,0,0,0,0-0.1c-0.3,0.2-0.6,0.4-0.8,0.6
					L94,85.8c0,0,0,0,0,0c-0.3,0.2-0.7,0.4-1,0.7c0.8,0.8,1.4,1.8,1.8,2.9c0.1,0.1-0.2,0.2-0.2,0.1c-0.4-1-1-2-1.7-2.8
					c-0.4,0.2-0.7,0.5-1.1,0.7c1.6,1.1,2.6,3.1,2.6,5c0,0.2-0.2,0.2-0.2,0c-0.2-2-1-3.6-2.5-5c-0.3,0.2-0.6,0.4-0.8,0.5
					c0.9,0.8,1.5,1.9,1.8,3.1c0,0.1-0.2,0.2-0.2,0.1c-0.3-1.2-0.9-2.2-1.7-3c-0.3,0.2-0.5,0.3-0.8,0.5c2,2.5,3.4,5.6,3.9,8.8
					c0,0.1,0,0.2-0.1,0.3c-0.1,0.1-0.4,0.1-0.4-0.1c-0.8-5.1-3.9-9.8-8.3-12.5c-2.2-1.3-4.7-2.2-6.6-3.9c-1.3-1.1-2.9-3.3-1.9-5
					c0,0-0.1-0.1-0.1-0.1c0-1.7,1.7-3.2,3.3-3.7c-2.5-2.7-6-3.8-9.3-5.1C65.1,77.2,60,87.3,54.8,97.4c0,0,0,0.1,0,0.1
					c-0.5,0.6-1.3,0.9-2.1,0.6c-0.7-0.3-1.2-1.1-1-1.8c0-0.1,0.1-0.1,0.1-0.1c0,0,0-0.1,0-0.1c1.6-2.9,3.2-5.8,4.7-8.8
					c0.8-1.5,1.5-3,2.2-4.5c0.6-1.3,1.2-2.7,2-4c0,0,0-0.1,0-0.1c1.7-3.3,3.5-6.7,5.2-10c3-5.8,6-11.7,9-17.6c3-5.9,5.8-12,8.9-17.8
					l0.3,0.1c0,0,0,0,0,0.1c-1.5,3.4-3.2,6.8-4.9,10.2C73.3,55.4,67.3,67.3,61,78.9c0,0.1-0.1,0.1-0.2,0.1c-0.5,1.4-1.2,2.7-1.8,4
					c-0.7,1.5-1.4,2.9-2.2,4.4c-1.5,3-3.1,6-4.8,8.9c-0.1,0.1-0.1,0.1-0.2,0.1c0.1,0.5,0.3,1,0.8,1.3c0.6,0.3,1.3,0,1.7-0.4
					c0,0,0,0,0,0c2.4-4.6,4.7-9.2,7.1-13.9c3.3-6.5,6.6-13,9.9-19.5c0,0-0.1,0-0.1,0c-0.1,0,0-0.2,0.1-0.1c0,0,0.1,0,0.1,0
					c0.7-1.4,1.4-2.7,2.1-4.1c0,0,0-0.1,0.1-0.1c0.1-0.2,0.2-0.4,0.3-0.6c2.1-4.1,4.2-8.2,6.3-12.3c0,0,0-0.1,0.1-0.1
					c1.8-3.5,3.6-7,5.3-10.6c0-0.1,0-0.2,0.1-0.2c0.2-0.4,0.4-0.8,0.6-1.3c0,0,0,0,0,0l0.3,0.1c0,0,0,0,0,0.1
					c-0.1,0.4-0.3,0.8-0.4,1.3c5.3,1.9,10.1,5,14.5,8.4c3.7,2.9,7.6,6.1,10.2,10.1c1.1,1.7,2.3,3.8,2.2,5.9c-0.1,2-1.4,3.7-3,4.7
					c-2.1,1.4-4.7,2.3-7.1,3.4C109,71.5,110.8,79.4,111.6,85.6z M108.4,87c0.9-0.5,1.8-1,2.6-1.5c-0.4-3.2-1-6.4-2.3-9.3
					c-1,0.6-1.9,1.3-2.9,1.9C107.4,80.8,108.4,83.9,108.4,87z M108,87.2c0,0,0-0.1,0-0.1c-0.4-3.1-1.1-6-2.5-8.8
					c-0.2,0.1-0.4,0.3-0.7,0.4c0.5,0.4,0.9,1,1.1,1.6c0,0.1-0.1,0.2-0.2,0.1c-0.2-0.6-0.5-1.1-1-1.5c-0.2,0.1-0.5,0.3-0.7,0.4
					c0.8,0.7,1.6,1.8,1.7,2.8c0,0.1-0.1,0.1-0.2,0.1c-0.2-0.5-0.4-1-0.6-1.5c-0.3-0.5-0.6-0.9-1-1.3c-0.3,0.2-0.5,0.3-0.8,0.5
					c0.9,0.7,1.6,1.7,1.9,2.8c0,0.1-0.2,0.2-0.2,0.1c-0.4-1.1-1-2-1.8-2.8c-0.2,0.1-0.4,0.2-0.6,0.4c0.5,0.5,1,1.1,1.3,1.8
					c0.1,0.1-0.1,0.2-0.2,0.1c-0.4-0.6-0.8-1.2-1.3-1.8c0,0,0,0,0,0c-0.2,0.1-0.4,0.2-0.5,0.3c1.5,2.6,2.5,5.6,2.9,8.5
					C105.7,88.6,106.9,87.9,108,87.2z M108.7,75.8c0-0.1-0.1-0.2-0.1-0.3c-1.2-2.5-2.8-4.6-5-6.3c0,0,0,0.1-0.1,0.1
					c-0.2,0.1-0.3,0.2-0.5,0.3c0.5,0.4,1.1,0.9,1.4,1.4c0.1,0.1-0.1,0.2-0.2,0.1c-0.4-0.5-0.8-1-1.4-1.4c0,0,0,0,0-0.1
					c-0.3,0.1-0.5,0.3-0.8,0.4c0.7,0.4,1.3,1,1.8,1.6c0.1,0.1-0.1,0.2-0.2,0.1c-0.5-0.7-1.1-1.2-1.9-1.6c-0.3,0.1-0.5,0.3-0.8,0.4
					c0.7,0.4,1.3,0.9,1.8,1.5c0.1,0.1-0.1,0.3-0.2,0.2c-0.6-0.6-1.2-1.1-1.8-1.6c-0.2,0.1-0.4,0.2-0.5,0.3c2.2,1.7,3.9,3.9,5.3,6.3
					c0.1,0.1,0.1,0.2,0.2,0.3C106.7,77,107.7,76.4,108.7,75.8C108.6,75.8,108.6,75.8,108.7,75.8z M109.6,64.6
					c2.2-1.4,3.4-3.6,2.6-6.2c-0.5-1.8-1.5-3.4-2.7-4.9c0,0,0,0.1-0.1,0.1c-0.4,0.3-0.8,0.7-1.3,1c0.7,0.6,1.4,1.3,1.8,2.2
					c0.1,0.1-0.1,0.3-0.2,0.1c-0.5-0.8-1-1.5-1.7-2.2c-0.3,0.3-0.7,0.5-1,0.8c1,0.7,1.7,1.8,2,3c0,0.2-0.2,0.2-0.3,0.1
					c-0.4-1.2-1-2.1-1.9-2.9c-0.3,0.2-0.5,0.4-0.8,0.6c0.5,0.6,1,1.2,1.2,1.9c0.1,0.1-0.1,0.2-0.2,0.1c-0.4-0.6-0.8-1.3-1.2-1.9
					c-0.3,0.3-0.6,0.5-1,0.8c1.1,0.8,2,2,2.3,3.3c0,0.2-0.2,0.2-0.2,0.1c-0.5-1.3-1.1-2.3-2.2-3.2c-0.3,0.2-0.6,0.4-0.8,0.7
					c0.6,0.5,1.2,1.1,1.5,1.9c0.1,0.1-0.1,0.2-0.2,0.1c-0.4-0.7-0.9-1.3-1.5-1.8c-0.2,0.2-0.5,0.4-0.7,0.6c1.6,2.3,2.8,4.9,2.8,7.8
					C107.2,65.9,108.4,65.3,109.6,64.6z M104.1,89.6c-0.3-3-1.3-5.9-2.8-8.5c-0.7,0.4-1.3,0.9-2,1.3c-1,0.7-2,1.3-3,2
					c1.7,2.5,2.8,5.5,3.1,8.5C100.8,91.7,102.4,90.6,104.1,89.6z M105.3,77.9c-0.1-0.1-0.1-0.2-0.2-0.3c-1.4-2.4-3.2-4.5-5.3-6.3
					c-1.6,0.8-3.2,1.7-4.7,2.5c2.6,1.6,4.8,3.9,6.4,6.6C102.7,79.6,104,78.7,105.3,77.9z M109.1,53.2c0,0,0.1-0.1,0.2-0.1
					c-0.2-0.2-0.4-0.5-0.6-0.7c-2-2.4-4.3-4.5-6.8-6.5c-1.9,1.9-3.7,3.8-5.5,5.7c0.5,0.4,1,0.9,1.5,1.4c1.7,1.5,3.4,3.3,4.8,5.2
					C104.9,56.5,107,54.9,109.1,53.2z M105.5,66.7C105.5,66.6,105.5,66.6,105.5,66.7c-0.1-2.9-1.2-5.5-2.8-7.7
					c-1.8,1.4-3.6,2.8-5.4,4.2c1.2,1.8,2.1,3.8,2.2,6.1c1.2-0.5,2.3-1,3.5-1.6C103.8,67.3,104.7,67,105.5,66.7z M99,82
					c0.7-0.4,1.3-0.9,2-1.3c-0.2-0.3-0.4-0.7-0.7-1c-1.6-2.3-3.6-4.1-5.8-5.5c-0.4,0.2-0.8,0.5-1.3,0.7c1.2,0.6,2.2,1.5,3,2.5
					c0.1,0.2-0.1,0.3-0.2,0.2c-0.8-1.1-1.8-1.9-3-2.6c-0.4,0.2-0.8,0.4-1.1,0.6c0.8,0.4,1.6,1,2.2,1.7c0.1,0.1,0,0.2-0.1,0.2
					c-0.7-0.6-1.4-1.2-2.2-1.7c0,0,0,0,0-0.1c0,0,0,0,0,0c-0.4,0.2-0.7,0.4-1.1,0.6c1.5,0.8,2.8,1.8,3.9,3.1
					c0.1,0.1-0.1,0.2-0.2,0.1c-1.2-1.2-2.5-2.3-4-3.1c-0.4,0.2-0.8,0.5-1.2,0.7c1,0.4,1.9,0.9,2.7,1.6c0.1,0.1,0,0.2-0.1,0.1
					c-0.8-0.7-1.7-1.3-2.7-1.7c-0.4,0.2-0.7,0.4-1.1,0.6c0.9,0.4,1.8,0.8,2.6,1.3c1.7,1,3.2,2.3,4.4,3.7c0.3,0.4,0.6,0.8,0.9,1.2
					C97,83.3,98,82.7,99,82z M103.2,69c-0.2-0.2-0.5-0.3-0.7-0.5c-1.2,0.5-2.4,1.1-3.6,1.6c0.3,0.2,0.6,0.4,0.9,0.6
					C101,70.2,102.1,69.6,103.2,69z M99.4,71c-0.3-0.2-0.6-0.5-0.9-0.7c-1.2,0.5-2.3,1-3.5,1.6c-0.7,0.3-1.3,0.6-2,0.9
					c0.5,0.2,1.1,0.5,1.6,0.8C96.2,72.7,97.8,71.8,99.4,71z M95.8,70.9l3.3-1.5c0,0,0,0,0-0.1c-0.1-2.3-0.9-4.2-2.1-6
					c-0.4,0.3-0.9,0.7-1.3,1c0.6,0.6,1.1,1.3,1.4,2.1c0.1,0.1-0.2,0.2-0.2,0.1c-0.4-0.7-0.8-1.4-1.4-2c0,0,0,0-0.1,0
					c-0.4,0.3-0.7,0.6-1.1,0.8c1,0.9,1.8,2.3,2.1,3.6c0,0.2-0.2,0.2-0.2,0.1c-0.4-1.4-1.1-2.5-2-3.6c-0.2,0.2-0.5,0.4-0.7,0.6
					c0.5,0.5,0.8,1.2,1,1.8c0,0.2-0.2,0.2-0.2,0.1c-0.2-0.7-0.5-1.2-0.9-1.8c-0.3,0.2-0.5,0.4-0.8,0.6c0.7,1,1.2,2.1,1.4,3.3
					c0,0.2-0.2,0.2-0.2,0.1C93.4,69.1,93,68,92.4,67c-0.3,0.2-0.6,0.5-0.9,0.7c0.3,0.5,0.6,1.1,0.7,1.6c0,0.2-0.2,0.2-0.2,0.1
					c-0.2-0.6-0.4-1-0.6-1.5c-0.3,0.2-0.6,0.4-0.9,0.7c0.4,0.5,0.6,1,0.8,1.6c0,0.1-0.2,0.2-0.2,0.1c-0.2-0.6-0.4-1.1-0.7-1.6
					c-0.3,0.2-0.5,0.4-0.8,0.6c0.6,1.3,0.8,2.8,0.6,4.3c0.7-0.3,1.3-0.5,2-0.8c0-0.1,0.1-0.2,0.2-0.2c0,0,0.1,0,0.1,0
					C93.5,72,94.7,71.5,95.8,70.9z M95.5,84.2c-0.4-0.6-0.9-1.2-1.4-1.7c-1.3-1.5-2.9-2.7-4.7-3.6c-0.6-0.3-1.3-0.6-1.9-0.9
					c-2.3,1.3-4.7,2.7-7,3.9c0.2,0.1,0.4,0.2,0.6,0.3c2.1,1.1,4.2,2.1,6.1,3.6c0.9,0.7,1.7,1.5,2.4,2.4c0.2-0.2,0.5-0.3,0.7-0.5
					c0-0.1,0.1-0.2,0.2-0.1C92.1,86.5,93.8,85.4,95.5,84.2z M97.1,62.7c1.8-1.4,3.6-2.8,5.3-4.2c-1.5-2-3.3-3.9-5.2-5.5
					c-0.4-0.3-0.8-0.7-1.1-1c-0.3,0.3-0.6,0.6-0.8,0.9c0.9,0.5,1.7,1.2,2.3,2c0.1,0.1-0.1,0.3-0.2,0.2c-0.7-0.8-1.4-1.4-2.3-2
					c-0.2,0.2-0.4,0.5-0.6,0.7c0.5,0.4,0.9,0.8,1.4,1.2c0.1,0.1,0,0.2-0.1,0.2c-0.5-0.3-1-0.8-1.4-1.2c-0.2,0.2-0.4,0.5-0.6,0.7
					c0.9,0.7,1.8,1.5,2.5,2.4c0.1,0.1-0.1,0.3-0.2,0.2c-0.8-0.9-1.6-1.7-2.4-2.5c-0.2,0.3-0.5,0.5-0.7,0.8c0.6,0.5,1.2,1,1.8,1.5
					c0.1,0.1,0,0.3-0.1,0.2c-0.6-0.5-1.2-1-1.8-1.6c-0.2,0.2-0.4,0.4-0.6,0.7c0.9,0.7,1.8,1.5,2.7,2.2c0.1,0.1,0,0.3-0.2,0.2
					c-0.9-0.7-1.8-1.5-2.6-2.2c-0.2,0.3-0.5,0.5-0.7,0.8c0.3,0.2,0.6,0.5,0.9,0.7C94,59.3,95.7,60.9,97.1,62.7z M95.4,64.1
					c0.4-0.3,0.9-0.7,1.3-1c-1.4-2-3.3-3.6-5.2-5.2c-0.1-0.1-0.3-0.2-0.5-0.4c-0.2,0.3-0.5,0.6-0.8,0.8c-1.7,1.9-3.3,3.8-4.9,5.7
					c0.2,0.1,0.3,0.3,0.5,0.4c1.4,1.1,2.6,2.6,3.4,4.2c0.6-0.4,1.2-0.9,1.8-1.3c0,0,0,0,0,0C92.6,66.2,94,65.2,95.4,64.1z
					 M91.6,75.3c0.8-0.5,1.7-0.9,2.5-1.4c-0.5-0.3-1-0.6-1.5-0.9c-2.6,1.1-5.1,2.2-7.8,2.9c0.8,0.7,1.8,1.2,2.8,1.6
					C88.9,76.8,90.2,76,91.6,75.3z M101.6,45.7c-1.1-0.9-2.2-1.7-3.3-2.5c-1.8-1.3-3.6-2.5-5.5-3.6c-0.1,0.2-0.2,0.3-0.3,0.5
					c0.8,0.4,1.6,1,2.3,1.6c0.1,0.1-0.1,0.3-0.2,0.2c-0.7-0.6-1.4-1.1-2.2-1.6c-0.1,0.2-0.3,0.5-0.4,0.7c0.5,0.3,1.1,0.6,1.6,0.9
					c0.1,0.1,0,0.3-0.1,0.2c-0.5-0.3-1.1-0.6-1.6-0.9c-0.2,0.3-0.4,0.6-0.6,0.9c0.9,0.4,1.9,0.9,2.8,1.5c0.1,0.1,0,0.3-0.1,0.2
					c-0.9-0.5-1.8-1.1-2.7-1.6c-0.1,0.2-0.3,0.5-0.4,0.7c0.7,0.3,1.4,0.8,2,1.2c0.1,0.1,0,0.2-0.1,0.2c-0.7-0.4-1.3-0.9-2-1.3
					c-0.2,0.3-0.3,0.5-0.5,0.8c0.9,0.4,1.8,0.9,2.6,1.4c0.1,0.1,0,0.3-0.1,0.2c-0.8-0.5-1.7-1-2.6-1.5c-0.2,0.4-0.4,0.7-0.6,1.1
					c0.8,0.3,1.6,0.7,2.4,1.2c0.1,0.1,0,0.3-0.1,0.2c-0.8-0.4-1.6-0.8-2.4-1.2c-0.2,0.3-0.4,0.6-0.5,0.9c2.6,1.5,5,3.3,7.3,5.2
					C97.9,49.4,99.7,47.6,101.6,45.7z M89.7,73.6c0,0,0-0.1,0-0.1c0.2-1.4,0-2.8-0.5-4.1c-2.4,1.7-4.9,3.4-7.5,4.9
					c0.3,0.6,0.4,1.3,0.1,1.8C84.5,75.6,87.1,74.7,89.7,73.6z M91,56.9c1.6-1.7,3.2-3.5,4.8-5.2c-2.3-1.9-4.7-3.6-7.3-5
					c-1.2,2-2.4,4-3.6,6c0.3,0.2,0.7,0.4,1,0.6C87.6,54.4,89.4,55.6,91,56.9z M87,77.8c-1-0.5-1.9-1-2.6-1.8
					c-0.7,0.2-1.4,0.4-2.1,0.5c0.2,0.1,0.4,0.3,0.6,0.4c0.1,0.1,0,0.2-0.1,0.1c-0.2-0.2-0.4-0.4-0.7-0.5c-0.3,0.1-0.5,0.1-0.8,0.1
					c-0.1,0.1-0.3,0.2-0.4,0.2c0.1,0.2,0.3,0.4,0.5,0.6c0.1,0.1,0,0.2-0.1,0.2c-0.3-0.1-0.5-0.4-0.6-0.7c-0.3,0-0.5,0-0.8-0.1
					c-0.2-0.1-0.6-0.2-1-0.4c0.2,0.6,0.5,1,1,1.4c0.1,0.1,0,0.2-0.1,0.1c-0.5-0.4-0.9-1-1.1-1.7c-0.4-0.2-0.8-0.3-1.1-0.3
					c-0.1,0.8,0.1,1.6,0.8,2.1c0.1,0.1,0,0.2-0.1,0.2c-0.7-0.5-1.2-1.5-0.9-2.3c-0.3,0-0.5,0.1-0.7,0.3c0,0-0.1,0-0.1,0
					c-0.8,2.3,1.6,4.3,3.6,5.5C82.5,80.4,84.7,79.1,87,77.8z M89.9,58.2c0.3-0.3,0.6-0.6,0.8-0.9c-1.7-1.3-3.5-2.6-5.4-3.7
					c-0.2-0.1-0.5-0.3-0.7-0.4c-0.1,0.2-0.3,0.4-0.4,0.7c0.6,0.3,1.2,0.7,1.8,1.1c0.1,0.1,0,0.3-0.2,0.2c-0.5-0.4-1.1-0.8-1.7-1.1
					c0,0,0,0,0,0.1c-0.1,0.2-0.3,0.5-0.4,0.7c1,0.5,1.9,1.1,2.8,1.7c0.1,0.1,0,0.4-0.1,0.3c-0.9-0.7-1.8-1.2-2.8-1.8
					c-0.2,0.3-0.4,0.7-0.6,1c0,0,0,0,0,0c0.6,0.3,1.3,0.6,1.9,0.9c0.1,0.1,0,0.3-0.1,0.2c-0.6-0.3-1.2-0.6-1.8-1c0,0,0,0,0,0
					c-0.2,0.3-0.3,0.6-0.5,0.9c1.1,0.6,2.1,1.2,3.1,1.8c0.1,0.1,0,0.2-0.1,0.2c-1-0.7-2-1.3-3.1-1.9c-0.1,0.2-0.3,0.5-0.4,0.7
					c0.7,0.4,1.3,0.8,1.9,1.2c0.1,0.1,0,0.3-0.1,0.2c-0.6-0.5-1.3-0.9-1.9-1.2c-0.2,0.3-0.3,0.5-0.5,0.8c1.1,0.6,2.2,1.3,3.3,1.9
					c0.1,0.1,0,0.3-0.1,0.2c-1.1-0.6-2.2-1.3-3.3-2c-0.2,0.3-0.3,0.6-0.5,0.8c0.7,0.2,1.4,0.7,1.9,1.1c0.1,0.1,0,0.3-0.1,0.2
					c-0.3-0.2-0.7-0.4-1-0.6c-0.3-0.2-0.6-0.3-0.9-0.5c-0.2,0.3-0.3,0.6-0.5,0.9c0.1,0.1,0.3,0.2,0.4,0.3c1.5,0.9,3,1.8,4.3,2.8
					C86.6,61.9,88.2,60,89.9,58.2z M88.9,68.9c-0.9-1.8-2.3-3.3-3.8-4.5c-0.2,0.2-0.4,0.5-0.6,0.7c0.8,0.5,1.6,1.3,1.8,2.2
					c0,0.1-0.1,0.2-0.2,0.1c-0.4-0.9-0.9-1.6-1.8-2.1c-0.3,0.3-0.5,0.6-0.8,0.9c0.4,0.3,0.8,0.7,1.1,1.1c0.1,0.1-0.1,0.2-0.2,0.1
					c-0.3-0.4-0.7-0.8-1.1-1.1c-0.2,0.2-0.4,0.5-0.6,0.7c0.3,0.3,0.6,0.6,0.9,1c0.1,0.1-0.1,0.2-0.2,0.1c-0.2-0.4-0.5-0.7-0.8-0.9
					c-0.3,0.3-0.5,0.6-0.8,1c0.8,0.7,1.6,1.4,2.3,2.2c0.1,0.1,0,0.2-0.2,0.2c-0.8-0.7-1.5-1.4-2.2-2.2c-0.3,0.3-0.5,0.6-0.8,0.9
					c0.6,0.5,1.1,1.1,1.5,1.7c0.1,0.1-0.1,0.3-0.2,0.2c-0.5-0.6-1-1.1-1.4-1.6c-0.3,0.3-0.6,0.7-0.9,1c0.4,0.3,0.8,0.6,1.1,1
					c0.1,0.1-0.1,0.3-0.2,0.2c-0.4-0.3-0.7-0.7-1.1-1c-0.2,0.2-0.4,0.4-0.5,0.6c0.5,0.5,1,1,1.4,1.5c0.3,0.4,0.6,0.8,0.8,1.3
					C84,72.3,86.5,70.6,88.9,68.9z M88.4,46c1.3-2.2,2.6-4.4,4-6.6c-2.1-1.2-4.2-2.2-6.4-3.1c-0.7,1.7-1.6,3.4-2.4,5.1
					c-0.3,0.6-0.6,1.2-0.9,1.9C84.5,43.9,86.5,44.9,88.4,46z M79.9,76.3c1.1,0.2,1.8-0.5,1.5-1.5c-0.2-0.8-0.9-1.6-1.4-2.3
					c-1.4,0.5-2.8,1.6-3.2,3.1c0,0,0.1,0,0.1,0c0.5-0.4,1.5,0.1,2,0.3C79.2,76.1,79.5,76.3,79.9,76.3z M84.5,52.5c1.2-2,2.4-4,3.6-6
					c-1.9-1.1-3.8-2-5.7-3c-0.2,0.5-0.5,1-0.7,1.4c1,0.2,1.9,0.6,2.6,1.3c0.1,0.1,0,0.2-0.2,0.2c-0.8-0.6-1.6-1-2.5-1.3
					c-0.1,0.2-0.2,0.4-0.3,0.7c0.4,0.2,0.9,0.3,1.3,0.5c0.1,0,0.1,0.3-0.1,0.2c-0.4-0.2-0.9-0.3-1.3-0.5c-0.1,0.3-0.3,0.6-0.4,0.9
					c0.7,0.3,1.5,0.7,2.2,1c0.1,0.1,0,0.3-0.1,0.2c-0.7-0.4-1.5-0.7-2.2-1.1c-0.1,0.3-0.3,0.5-0.4,0.8c0.5,0.1,0.9,0.3,1.3,0.6
					c0.1,0.1,0,0.2-0.1,0.2c-0.2-0.1-0.4-0.3-0.7-0.4c-0.2-0.1-0.4-0.2-0.6-0.2C80.1,48,80,48.1,80,48.2c-0.1,0.2-0.2,0.4-0.3,0.6
					c1,0.3,1.9,0.7,2.7,1.3c0.1,0.1,0,0.3-0.1,0.2c-0.9-0.6-1.8-1-2.7-1.3c-0.1,0.3-0.3,0.5-0.4,0.8C81,50.5,82.8,51.5,84.5,52.5z
					 M84.7,64.1c-1.5-1.1-3.1-2-4.7-3c0,0,0,0,0,0c-1.5,2.5-3,5.1-4.6,7.5c1.4,0.7,2.6,1.4,3.8,2.4c0.2-0.2,0.3-0.5,0.5-0.7
					c0,0,0-0.1,0.1-0.1C81.3,68.1,83,66.1,84.7,64.1z M83.7,53.8c0.2-0.3,0.4-0.6,0.5-0.9c-1.7-1-3.5-1.9-5.2-2.9
					c-1.4,2.7-2.8,5.4-4.2,8.1c1.8,0.3,3.3,1.3,4.8,2.3C81.1,58.2,82.4,56,83.7,53.8z M75.1,68.4c1.4-2.6,2.9-5.1,4.4-7.7
					c-1.5-1-3-1.9-4.8-2.3l-0.6,1.2c0.9,0.2,1.8,0.6,2.6,1c0.1,0.1,0,0.3-0.1,0.2c-0.8-0.5-1.7-0.8-2.5-1.1l-0.4,0.8
					c0.5,0.2,1,0.4,1.5,0.6c0.1,0,0,0.2-0.1,0.2c-0.5-0.2-1-0.4-1.5-0.6L73,61.8c0.8,0.2,1.7,0.5,2.4,0.9c0.1,0.1,0,0.2-0.1,0.2
					c-0.8-0.4-1.6-0.7-2.4-0.9c0,0,0,0,0,0l-0.5,0.9c0.6,0.2,1.1,0.4,1.7,0.6c0.1,0,0.1,0.2,0,0.2c-0.6-0.2-1.1-0.4-1.7-0.6
					c-0.2,0.3-0.3,0.6-0.5,0.9c0.9,0.4,1.8,0.7,2.7,1.1c0.1,0,0,0.2-0.1,0.2c-0.9-0.3-1.8-0.7-2.7-1.1c-0.2,0.3-0.3,0.6-0.5,0.9
					c0.7,0.2,1.4,0.4,2.1,0.7c0.1,0.1,0,0.2-0.1,0.2c-0.7-0.3-1.4-0.6-2.1-0.8c-0.1,0.3-0.3,0.6-0.4,0.8c0.9,0.2,1.8,0.5,2.6,1
					c0.1,0,0,0.2-0.1,0.1c-0.8-0.4-1.7-0.8-2.6-1c-0.1,0.2-0.2,0.4-0.3,0.7C72,67.2,73.6,67.7,75.1,68.4z"/>
				<path fill="#3C3C3A" d="M111.1,85.5c-0.9,0.5-1.8,1-2.6,1.5c0-3-1.1-6.2-2.5-8.9c1-0.6,1.9-1.2,2.9-1.9
					C110.1,79.1,110.7,82.3,111.1,85.5z M108.1,79.8c0,0.1,0.2,0.1,0.3,0c0.1-0.6-0.3-1.2-0.8-1.5c-0.1,0-0.2,0.1-0.1,0.1
					c0.2,0.2,0.4,0.4,0.5,0.6C108,79.3,108.1,79.6,108.1,79.8z M107.5,80c0,0.1,0.2,0,0.2-0.1c0-0.6-0.5-1.3-1-1.7
					c-0.1-0.1-0.2,0-0.1,0.1c0.2,0.2,0.4,0.5,0.6,0.8C107.3,79.4,107.4,79.7,107.5,80z"/>
				<path fill="#F4F4F4" d="M108,87.1c0,0,0,0.1,0,0.1c-1.2,0.7-2.3,1.4-3.5,2.1c-0.3-2.9-1.3-5.9-2.9-8.5c0.2-0.1,0.4-0.2,0.5-0.3
					c0,0,0,0,0,0c0.5,0.6,0.9,1.2,1.3,1.8c0.1,0.1,0.3,0,0.2-0.1c-0.4-0.7-0.8-1.3-1.3-1.8c0.2-0.1,0.4-0.2,0.6-0.4
					c0.9,0.8,1.4,1.7,1.8,2.8c0.1,0.1,0.3,0.1,0.2-0.1c-0.3-1.1-1-2.1-1.9-2.8c0.3-0.2,0.5-0.3,0.8-0.5c0.4,0.4,0.8,0.8,1,1.3
					c0.3,0.5,0.4,1,0.6,1.5c0,0.1,0.2,0,0.2-0.1c-0.1-1.1-0.9-2.1-1.7-2.8c0.2-0.1,0.5-0.3,0.7-0.4c0.5,0.4,0.8,0.9,1,1.5
					c0,0.1,0.2,0.1,0.2-0.1c-0.2-0.6-0.6-1.2-1.1-1.6c0.2-0.1,0.4-0.3,0.7-0.4C106.9,81.1,107.6,84,108,87.1z"/>
				<path fill="#1D1D1B" d="M108.4,79.8c0,0.1-0.2,0.1-0.3,0c0-0.3,0-0.5-0.2-0.8c-0.1-0.2-0.3-0.4-0.5-0.6c-0.1-0.1,0-0.2,0.1-0.1
					C108,78.6,108.4,79.3,108.4,79.8z"/>
				<path fill="#1D1D1B" d="M107.7,79.9c0,0.1-0.2,0.2-0.2,0.1c-0.1-0.3-0.2-0.6-0.3-0.8c-0.2-0.3-0.3-0.5-0.6-0.8
					c-0.1-0.1,0-0.2,0.1-0.1C107.2,78.7,107.7,79.3,107.7,79.9z"/>
				<path fill="#F4F4F4" d="M108.5,75.5c0,0.1,0.1,0.2,0.1,0.3c0,0,0,0,0,0c-1,0.6-2,1.2-2.9,1.8c-0.1-0.1-0.1-0.2-0.2-0.3
					c-1.3-2.4-3.1-4.6-5.3-6.3c0.2-0.1,0.4-0.2,0.5-0.3c0.6,0.5,1.2,1,1.8,1.6c0.1,0.1,0.3-0.1,0.2-0.2c-0.5-0.6-1.1-1.1-1.8-1.5
					c0.3-0.1,0.5-0.3,0.8-0.4c0.7,0.4,1.4,0.9,1.9,1.6c0.1,0.1,0.3,0,0.2-0.1c-0.5-0.7-1.1-1.2-1.8-1.6c0.3-0.1,0.5-0.3,0.8-0.4
					c0,0,0,0,0,0.1c0.5,0.4,0.9,0.9,1.4,1.4c0.1,0.1,0.2,0,0.2-0.1c-0.3-0.6-0.9-1-1.4-1.4c0.2-0.1,0.3-0.2,0.5-0.3
					c0.1,0,0.1-0.1,0.1-0.1C105.7,70.9,107.3,73,108.5,75.5z"/>
				<path fill="#F4F4F4" d="M112.2,58.3c0.8,2.6-0.4,4.8-2.6,6.2c-1.1,0.7-2.4,1.3-3.6,1.8c-0.1-2.9-1.2-5.5-2.8-7.8
					c0.2-0.2,0.5-0.4,0.7-0.6c0.6,0.5,1.1,1.1,1.5,1.8c0.1,0.1,0.2,0,0.2-0.1c-0.3-0.7-0.9-1.4-1.5-1.9c0.3-0.2,0.6-0.4,0.8-0.7
					c1,0.9,1.7,1.9,2.2,3.2c0.1,0.1,0.3,0.1,0.2-0.1c-0.3-1.3-1.2-2.5-2.3-3.3c0.3-0.3,0.6-0.5,1-0.8c0.4,0.6,0.8,1.2,1.2,1.9
					c0.1,0.1,0.2,0,0.2-0.1c-0.3-0.7-0.8-1.4-1.2-1.9c0.3-0.2,0.5-0.4,0.8-0.6c0.9,0.8,1.6,1.7,1.9,2.9c0.1,0.2,0.3,0.1,0.3-0.1
					c-0.3-1.2-1.1-2.2-2-3c0.3-0.3,0.7-0.5,1-0.8c0.7,0.6,1.3,1.3,1.7,2.2c0.1,0.1,0.3,0,0.2-0.1c-0.4-0.8-1.1-1.6-1.8-2.2
					c0.4-0.3,0.9-0.7,1.3-1c0,0,0,0,0.1-0.1C110.7,54.9,111.7,56.6,112.2,58.3z"/>
				<path fill="#3C3C3A" d="M101.2,81.1c1.5,2.6,2.5,5.5,2.8,8.5c-1.6,1-3.2,2.1-4.8,3.3c-0.3-3.1-1.3-6-3.1-8.5c1-0.7,2-1.3,3-2
					C99.9,81.9,100.6,81.5,101.2,81.1z"/>
				<path fill="#3C3C3A" d="M105.1,77.6c0.1,0.1,0.1,0.2,0.2,0.3c-1.3,0.8-2.6,1.7-3.8,2.5c-1.6-2.6-3.8-4.9-6.4-6.6
					c1.6-0.8,3.2-1.7,4.7-2.5C101.9,73.1,103.7,75.1,105.1,77.6z"/>
				<path fill="#3C3C3A" d="M109.3,53.2c-0.1,0-0.1,0-0.2,0.1c-2.1,1.7-4.2,3.3-6.3,5c-1.4-1.9-3.1-3.6-4.8-5.2
					c-0.5-0.5-1-0.9-1.5-1.4c1.8-1.9,3.6-3.8,5.5-5.7c2.4,2,4.8,4.1,6.8,6.5C108.9,52.7,109.1,52.9,109.3,53.2z"/>
				<path fill="#3C3C3A" d="M105.5,66.6C105.5,66.6,105.5,66.6,105.5,66.6c-0.8,0.4-1.6,0.8-2.4,1.1c-1.2,0.5-2.3,1-3.5,1.6
					c-0.1-2.3-1-4.3-2.2-6.1c1.8-1.4,3.6-2.8,5.4-4.2C104.3,61.2,105.4,63.7,105.5,66.6z"/>
				<path fill="#F4F4F4" d="M101,80.7c-0.7,0.4-1.3,0.9-2,1.3c-1,0.7-2,1.3-3.1,2c-0.3-0.4-0.6-0.8-0.9-1.2
					c-1.2-1.5-2.7-2.7-4.4-3.7c-0.8-0.5-1.7-0.9-2.6-1.3c0.4-0.2,0.7-0.4,1.1-0.6c1,0.4,1.9,1,2.7,1.7c0.1,0.1,0.2-0.1,0.1-0.1
					c-0.8-0.7-1.7-1.2-2.7-1.6c0.4-0.2,0.8-0.5,1.2-0.7c1.5,0.9,2.7,1.9,4,3.1c0.1,0.1,0.2,0,0.2-0.1c-1.1-1.3-2.4-2.3-3.9-3.1
					c0.4-0.2,0.7-0.4,1.1-0.6c0,0,0,0,0,0c0,0,0,0,0,0.1c0.8,0.5,1.5,1,2.2,1.7c0.1,0.1,0.2-0.1,0.1-0.2c-0.7-0.7-1.4-1.2-2.2-1.7
					c0.4-0.2,0.8-0.4,1.1-0.6c1.2,0.7,2.1,1.5,3,2.6c0.1,0.2,0.3,0,0.2-0.2c-0.8-1-1.8-1.9-3-2.5c0.4-0.2,0.8-0.5,1.3-0.7
					c2.3,1.5,4.2,3.3,5.8,5.5C100.6,80,100.8,80.3,101,80.7z"/>
				<path fill="#F4F4F4" d="M97.2,90.9c0.1,0.2,0.3,0.1,0.3-0.1c-0.4-1.2-1-2.5-1.9-3.6l0.5-0.2c0.1,0.1,0.2,0,0.2-0.1
					c-0.2-0.7-0.6-1.4-1.1-1.8c0,0,0,0,0,0c0.2-0.1,0.4-0.3,0.7-0.4c1.7,2.6,2.8,5.5,3,8.6c-1.8,1.3-3.5,2.8-5.1,4.3
					c0.1-0.1,0.1-0.1,0.1-0.3c-0.5-3.2-1.9-6.3-3.9-8.8c0.3-0.2,0.5-0.3,0.8-0.5c0.8,0.8,1.4,1.8,1.7,3c0,0.1,0.2,0.1,0.2-0.1
					c-0.2-1.2-0.9-2.2-1.8-3.1c0.3-0.2,0.6-0.4,0.8-0.5c1.5,1.4,2.4,2.9,2.5,5c0,0.1,0.2,0.2,0.2,0c0-1.9-1-4-2.6-5
					c0.4-0.2,0.7-0.5,1.1-0.7c0.7,0.8,1.3,1.8,1.7,2.8c0.1,0.1,0.3,0.1,0.2-0.1c-0.4-1.1-1-2-1.8-2.9c0.3-0.2,0.7-0.4,1-0.7
					c0,0,0,0,0,0C95.4,87.4,96.4,88.9,97.2,90.9z"/>
				<path fill="#1D1D1B" d="M97.5,90.8c0.1,0.2-0.2,0.2-0.3,0.1c-0.8-2-1.8-3.5-3.2-5.1l0.1-0.1c0.5,0.4,1,0.9,1.5,1.5
					C96.5,88.3,97.1,89.6,97.5,90.8z"/>
				<path fill="#3C3C3A" d="M102.5,68.5c0.2,0.2,0.5,0.3,0.7,0.5c-1.1,0.6-2.2,1.2-3.4,1.7c-0.3-0.2-0.6-0.4-0.9-0.6
					C100.1,69.6,101.3,69,102.5,68.5z"/>
				<path fill="#F4F4F4" d="M96.1,87l-0.5,0.2c-0.4-0.6-0.9-1.1-1.5-1.5c0.3-0.2,0.6-0.4,0.8-0.6c0,0,0,0,0,0.1
					C95.5,85.7,95.9,86.3,96.1,87C96.1,87,96.1,87,96.1,87z"/>
				<path fill="#F4F4F4" d="M98.5,70.3c0.3,0.2,0.6,0.5,0.9,0.7c-1.6,0.8-3.2,1.7-4.8,2.6c-0.5-0.3-1-0.6-1.6-0.8
					c0.7-0.3,1.3-0.6,2-0.9C96.2,71.3,97.4,70.8,98.5,70.3z"/>
				<path fill="#F4F4F4" d="M99.1,69.5l-3.3,1.5c-1.1,0.5-2.3,1-3.5,1.5c0,0-0.1,0-0.1,0c-0.1,0-0.2,0.1-0.2,0.2
					c-0.6,0.3-1.3,0.6-2,0.8c0.2-1.5-0.1-3-0.6-4.3c0.3-0.2,0.5-0.4,0.8-0.6c0.3,0.5,0.5,1,0.7,1.6c0,0.1,0.2,0.1,0.2-0.1
					c-0.1-0.6-0.4-1.1-0.8-1.6c0.3-0.2,0.6-0.4,0.9-0.7c0.2,0.5,0.4,1,0.6,1.5c0,0.1,0.3,0.1,0.2-0.1c-0.1-0.5-0.4-1.1-0.7-1.6
					c0.3-0.2,0.6-0.5,0.9-0.7c0.7,1,1,2.1,1.3,3.3c0,0.2,0.3,0.1,0.2-0.1c-0.2-1.2-0.7-2.3-1.4-3.3c0.3-0.2,0.5-0.4,0.8-0.6
					c0.4,0.6,0.7,1.1,0.9,1.8c0.1,0.2,0.3,0.1,0.2-0.1c-0.2-0.7-0.5-1.3-1-1.8c0.2-0.2,0.5-0.4,0.7-0.6c1,1.1,1.6,2.2,2,3.6
					c0,0.1,0.3,0.1,0.2-0.1c-0.3-1.3-1.1-2.7-2.1-3.6c0.4-0.3,0.7-0.6,1.1-0.8c0,0,0,0,0.1,0c0.6,0.6,0.9,1.3,1.4,2
					c0.1,0.1,0.3,0,0.2-0.1c-0.3-0.8-0.8-1.5-1.4-2.1c0.4-0.3,0.9-0.7,1.3-1C98.2,65.2,99,67.2,99.1,69.5
					C99.1,69.4,99.1,69.5,99.1,69.5z"/>
				<path fill="#3C3C3A" d="M94.1,82.5c0.5,0.6,1,1.1,1.4,1.7c-1.7,1.1-3.4,2.2-5,3.4c-0.1,0-0.2,0-0.2,0.1
					c-0.2,0.2-0.5,0.3-0.7,0.5c-0.7-0.9-1.5-1.7-2.4-2.4c-1.9-1.5-4-2.5-6.1-3.6c-0.2-0.1-0.4-0.2-0.6-0.3c2.3-1.3,4.7-2.6,7-3.9
					c0.6,0.3,1.3,0.6,1.9,0.9C91.2,79.8,92.8,81,94.1,82.5z M85.2,83.1c0.1,0.1,0.3-0.1,0.2-0.2c-0.6-0.5-1.3-0.8-1.9-1.2
					c-0.1-0.1-0.2,0.1-0.1,0.2c0.1,0.1,0.3,0.1,0.4,0.2l-0.3,0.4c-0.4-0.2-0.7-0.5-1.1-0.8c-0.1-0.1-0.3,0.1-0.2,0.2
					c0.6,0.7,1.5,1.3,2.4,1.5c0.1,0,0.2-0.2,0.1-0.2l0.2-0.3C85,82.9,85.1,83,85.2,83.1z"/>
				<path fill="#F4F4F4" d="M102.4,58.5c-1.8,1.4-3.6,2.8-5.3,4.2c-1.3-1.8-3.1-3.4-4.8-4.9c-0.3-0.2-0.6-0.5-0.9-0.7
					c0.2-0.3,0.5-0.5,0.7-0.8c0.9,0.8,1.7,1.5,2.6,2.2c0.1,0.1,0.3-0.1,0.2-0.2c-0.9-0.8-1.8-1.5-2.7-2.2c0.2-0.2,0.4-0.4,0.6-0.7
					c0.6,0.6,1.2,1.1,1.8,1.6c0.1,0.1,0.2-0.1,0.1-0.2c-0.6-0.5-1.2-1-1.8-1.5c0.2-0.3,0.5-0.5,0.7-0.8c0.9,0.8,1.6,1.6,2.4,2.5
					c0.1,0.1,0.3-0.1,0.2-0.2c-0.7-0.9-1.6-1.7-2.5-2.4c0.2-0.2,0.4-0.5,0.6-0.7c0.4,0.5,0.9,0.9,1.4,1.2c0.1,0.1,0.2-0.1,0.1-0.2
					c-0.5-0.4-1-0.8-1.4-1.2c0.2-0.2,0.4-0.5,0.6-0.7c0.9,0.6,1.6,1.2,2.3,2c0.1,0.1,0.3-0.1,0.2-0.2c-0.6-0.8-1.4-1.5-2.3-2
					c0.3-0.3,0.6-0.6,0.8-0.9c0.4,0.3,0.8,0.7,1.1,1C99.1,54.6,100.9,56.5,102.4,58.5z"/>
				<path fill="#3C3C3A" d="M96.7,63c-0.4,0.3-0.9,0.7-1.3,1c-1.4,1.1-2.8,2.2-4.3,3.2c0,0,0,0,0,0c-0.6,0.4-1.2,0.9-1.8,1.3
					c-0.8-1.6-2-3-3.4-4.2c-0.2-0.1-0.3-0.3-0.5-0.4c1.6-1.9,3.3-3.8,4.9-5.7c0.3-0.3,0.5-0.6,0.8-0.8c0.2,0.1,0.3,0.2,0.5,0.4
					C93.4,59.4,95.3,61.1,96.7,63z M93.9,61.2c0.1,0.1,0.3-0.1,0.2-0.2c-0.4-0.5-1-0.9-1.6-1.2c-0.1-0.1-0.3,0.1-0.1,0.2
					C93,60.4,93.5,60.8,93.9,61.2z M93.4,61.6c0.1,0.2,0.4,0,0.3-0.2c-0.3-0.4-0.7-0.7-1.1-0.9c-0.2-0.1-0.3,0.2-0.1,0.2
					C92.8,61,93.1,61.2,93.4,61.6z"/>
				<path fill="#3C3C3A" d="M94.1,73.9c-0.8,0.5-1.7,0.9-2.5,1.4c-1.4,0.7-2.7,1.5-4.1,2.3c-1-0.5-1.9-0.9-2.8-1.6
					c2.7-0.8,5.3-1.8,7.8-2.9C93.1,73.3,93.6,73.6,94.1,73.9z"/>
				<path fill="#F4F4F4" d="M98.3,43.2c1.1,0.8,2.2,1.6,3.3,2.5c-1.8,1.9-3.7,3.8-5.5,5.7c-2.3-1.9-4.7-3.7-7.3-5.2
					c0.2-0.3,0.4-0.6,0.5-0.9c0.8,0.4,1.6,0.8,2.4,1.2c0.1,0.1,0.2-0.1,0.1-0.2c-0.7-0.5-1.6-0.9-2.4-1.2c0.2-0.4,0.4-0.7,0.6-1.1
					c0.9,0.5,1.7,1,2.6,1.5c0.1,0.1,0.2-0.1,0.1-0.2c-0.8-0.5-1.7-1-2.6-1.4c0.2-0.3,0.3-0.5,0.5-0.8c0.7,0.4,1.3,0.8,2,1.3
					c0.1,0.1,0.2-0.1,0.1-0.2c-0.6-0.5-1.3-0.9-2-1.2c0.1-0.2,0.3-0.5,0.4-0.7c0.9,0.5,1.8,1,2.7,1.6c0.1,0.1,0.3-0.1,0.1-0.2
					c-0.9-0.6-1.8-1.1-2.8-1.5c0.2-0.3,0.4-0.6,0.6-0.9c0.5,0.3,1.1,0.7,1.6,0.9c0.1,0.1,0.2-0.1,0.1-0.2c-0.5-0.3-1.1-0.6-1.6-0.9
					c0.1-0.2,0.3-0.5,0.4-0.7c0.8,0.5,1.5,1,2.2,1.6c0.1,0.1,0.3-0.1,0.2-0.2c-0.7-0.6-1.5-1.2-2.3-1.6c0.1-0.2,0.2-0.3,0.3-0.5
					C94.7,40.6,96.5,41.8,98.3,43.2z"/>
				<path fill="#1D1D1B" d="M94.1,61c0.1,0.1-0.1,0.3-0.2,0.2c-0.4-0.5-0.9-0.8-1.5-1.2c-0.1-0.1,0-0.3,0.1-0.2
					C93.1,60.2,93.7,60.6,94.1,61z"/>
				<path fill="#1D1D1B" d="M93.6,61.5c0.1,0.2-0.2,0.3-0.3,0.2c-0.3-0.4-0.6-0.7-1-0.9c-0.2-0.1,0-0.3,0.1-0.2
					C93,60.7,93.4,61,93.6,61.5z"/>
				<path fill="#3C3C3A" d="M89.7,73.5c0,0.1,0,0.1,0,0.1c-2.6,1-5.2,1.9-7.9,2.5c0.3-0.6,0.1-1.2-0.1-1.8c2.6-1.5,5-3.1,7.5-4.9
					C89.7,70.7,89.9,72,89.7,73.5z"/>
				<path fill="#1D1D1B" d="M85.4,82.8c0.1,0.1,0,0.3-0.2,0.2c-0.1-0.1-0.2-0.2-0.3-0.2c-0.4-0.3-0.7-0.5-1.1-0.8
					c-0.1-0.1-0.3-0.2-0.4-0.2c-0.1-0.1,0-0.2,0.1-0.2C84.1,82,84.8,82.4,85.4,82.8z"/>
				<path fill="#3C3C3A" d="M95.8,51.7c-1.6,1.7-3.2,3.4-4.8,5.2c-1.7-1.3-3.4-2.5-5.2-3.6c-0.3-0.2-0.6-0.4-1-0.6
					c1.2-2,2.4-4,3.6-6C91,48.2,93.5,49.8,95.8,51.7z M88.1,53.2c0.1,0.1,0.3-0.1,0.2-0.2c-0.3-0.2-0.6-0.5-0.9-0.7
					c-0.1-0.1-0.2,0.1-0.1,0.1C87.5,52.7,87.8,52.9,88.1,53.2z M87.8,53.7c0.1,0.1,0.2-0.1,0.1-0.2c-0.4-0.3-0.8-0.5-1.2-0.8
					c-0.1-0.1-0.2,0.1-0.1,0.2C87,53.2,87.4,53.5,87.8,53.7z"/>
				<path fill="#3C3C3A" d="M84.9,82.8l-0.2,0.3c-0.4-0.2-0.8-0.4-1.2-0.6l0.3-0.4C84.1,82.3,84.5,82.5,84.9,82.8z"/>
				<path fill="#1D1D1B" d="M84.7,83.1c0.1,0.1,0,0.3-0.1,0.2c-0.9-0.2-1.7-0.8-2.4-1.5c-0.1-0.1,0.1-0.3,0.2-0.2
					c0.4,0.3,0.7,0.6,1.1,0.8C83.8,82.7,84.2,82.9,84.7,83.1z"/>
				<path fill="#F4F4F4" d="M84.4,76c0.7,0.8,1.6,1.3,2.6,1.8c-2.3,1.3-4.6,2.6-6.8,4c-2-1.2-4.4-3.2-3.6-5.5c0,0,0.1,0,0.1,0
					c0.1-0.2,0.4-0.3,0.7-0.3c-0.3,0.8,0.1,1.8,0.9,2.3c0.1,0.1,0.2-0.1,0.1-0.2c-0.7-0.5-0.9-1.3-0.8-2.1c0.3,0,0.7,0.2,1.1,0.3
					c0.2,0.7,0.6,1.3,1.1,1.7c0.1,0.1,0.2-0.1,0.1-0.1c-0.5-0.4-0.8-0.9-1-1.4c0.4,0.2,0.7,0.3,1,0.4c0.3,0.1,0.5,0.1,0.8,0.1
					c0.1,0.3,0.3,0.6,0.6,0.7c0.1,0.1,0.2-0.1,0.1-0.2c-0.2-0.1-0.4-0.3-0.5-0.6c0.2,0,0.3-0.1,0.4-0.2c0.3,0,0.5-0.1,0.8-0.1
					c0.2,0.2,0.4,0.4,0.7,0.5c0.1,0.1,0.2-0.1,0.1-0.1c-0.2-0.1-0.4-0.3-0.6-0.4C83,76.3,83.7,76.2,84.4,76z"/>
				<path fill="#F4F4F4" d="M90.7,57.3c-0.3,0.3-0.6,0.6-0.8,0.9c-1.6,1.8-3.3,3.7-4.9,5.6c-1.4-1-2.9-1.9-4.3-2.8
					c-0.1-0.1-0.3-0.2-0.4-0.3c0.2-0.3,0.3-0.6,0.5-0.9c0.3,0.2,0.6,0.3,0.9,0.5c0.3,0.2,0.7,0.4,1,0.6c0.1,0.1,0.2-0.1,0.1-0.2
					c-0.5-0.4-1.3-0.9-1.9-1.1c0.2-0.3,0.3-0.6,0.5-0.8c1,0.7,2.2,1.4,3.3,2c0.1,0.1,0.2-0.1,0.1-0.2c-1.1-0.7-2.2-1.3-3.3-1.9
					c0.2-0.3,0.3-0.5,0.5-0.8c0.7,0.4,1.3,0.8,1.9,1.2c0.1,0.1,0.2-0.1,0.1-0.2c-0.6-0.5-1.3-0.9-1.9-1.2c0.1-0.2,0.3-0.5,0.4-0.7
					c1,0.6,2.1,1.2,3.1,1.9c0.1,0.1,0.2-0.1,0.1-0.2c-1-0.7-2-1.3-3.1-1.8c0.2-0.3,0.3-0.6,0.5-0.9c0,0,0,0,0,0
					c0.6,0.3,1.2,0.7,1.8,1c0.1,0.1,0.2-0.1,0.1-0.2c-0.6-0.3-1.2-0.6-1.9-0.9c0,0,0,0,0,0c0.2-0.3,0.4-0.7,0.6-1
					c1,0.6,1.9,1.1,2.8,1.8c0.2,0.1,0.3-0.1,0.1-0.3c-0.9-0.6-1.8-1.2-2.8-1.7c0.1-0.2,0.3-0.5,0.4-0.7c0,0,0,0,0-0.1
					c0.6,0.4,1.2,0.7,1.7,1.1c0.1,0.1,0.3-0.1,0.2-0.2c-0.5-0.4-1.1-0.9-1.8-1.1c0.1-0.2,0.3-0.4,0.4-0.7c0.2,0.1,0.5,0.3,0.7,0.4
					C87.2,54.7,89,55.9,90.7,57.3z"/>
				<path fill="#F4F4F4" d="M85.1,64.4c1.5,1.2,3,2.7,3.8,4.5c-2.4,1.7-4.9,3.4-7.4,5.1c-0.3-0.5-0.6-1-0.8-1.3
					c-0.4-0.6-0.9-1.1-1.4-1.5c0.2-0.2,0.4-0.4,0.5-0.6c0.4,0.3,0.7,0.7,1.1,1c0.1,0.1,0.3-0.1,0.2-0.2c-0.3-0.4-0.7-0.7-1.1-1
					c0.3-0.3,0.6-0.7,0.9-1c0.5,0.5,1,1.1,1.4,1.6c0.1,0.1,0.3,0,0.2-0.2c-0.4-0.6-0.9-1.2-1.5-1.7c0.3-0.3,0.5-0.6,0.8-0.9
					c0.7,0.7,1.5,1.5,2.2,2.2c0.1,0.1,0.2,0,0.2-0.2c-0.7-0.8-1.5-1.5-2.3-2.2c0.3-0.3,0.5-0.6,0.8-1c0.3,0.3,0.6,0.6,0.8,0.9
					c0.1,0.1,0.3,0,0.2-0.1c-0.2-0.4-0.5-0.7-0.9-1c0.2-0.2,0.4-0.5,0.6-0.7c0.4,0.3,0.7,0.7,1.1,1.1c0.1,0.1,0.3,0,0.2-0.1
					c-0.3-0.4-0.7-0.8-1.1-1.1c0.3-0.3,0.5-0.6,0.8-0.9c0.8,0.5,1.3,1.2,1.8,2.1c0.1,0.1,0.2,0,0.2-0.1c-0.3-0.9-1-1.7-1.8-2.2
					C84.7,64.9,84.9,64.6,85.1,64.4z"/>
				<path fill="#1D1D1B" d="M88.3,53c0.1,0.1,0,0.3-0.2,0.2c-0.3-0.3-0.6-0.5-0.9-0.7c-0.1-0.1,0-0.2,0.1-0.1
					C87.7,52.5,88,52.7,88.3,53z"/>
				<path fill="#1D1D1B" d="M87.9,53.5c0.1,0.1,0,0.3-0.1,0.2c-0.4-0.2-0.8-0.5-1.2-0.8c-0.1-0.1,0-0.2,0.1-0.2
					C87.1,53,87.6,53.2,87.9,53.5z"/>
				<path fill="#3C3C3A" d="M92.4,39.3c-1.3,2.2-2.6,4.4-4,6.6c-1.9-1.1-3.9-2-5.9-2.8c0.3-0.6,0.6-1.2,0.9-1.9
					c0.8-1.7,1.7-3.3,2.4-5.1C88.2,37.1,90.3,38.2,92.4,39.3z M86.6,43.8c0.1,0.1,0.3-0.1,0.2-0.2c-0.5-0.5-1.1-0.8-1.8-1
					c-0.1,0-0.2,0.2-0.1,0.2C85.6,43.1,86.1,43.4,86.6,43.8z M86,44.1c0.1,0.1,0.3-0.2,0.1-0.2c-0.7-0.3-1.4-0.6-2.1-0.9
					c-0.1,0-0.2,0.1-0.1,0.1C84.6,43.5,85.3,43.8,86,44.1z"/>
				<path fill="#F4F4F4" d="M81.4,74.8c0.3,1.1-0.3,1.7-1.5,1.5c-0.4-0.1-0.7-0.2-1.1-0.4c-0.5-0.2-1.5-0.6-2-0.3c0,0-0.1,0-0.1,0
					c0.5-1.5,1.8-2.6,3.2-3.1C80.5,73.2,81.1,74,81.4,74.8z"/>
				<path fill="#F4F4F4" d="M88.1,46.5c-1.2,2-2.4,4-3.6,6c-1.7-1-3.5-2-5.3-2.7c0.1-0.3,0.3-0.5,0.4-0.8c1,0.3,1.9,0.7,2.7,1.3
					c0.1,0.1,0.2-0.1,0.1-0.2c-0.8-0.6-1.8-1.1-2.7-1.3c0.1-0.2,0.2-0.4,0.3-0.6c0-0.1,0.1-0.2,0.1-0.3c0.2,0.1,0.4,0.1,0.6,0.2
					c0.2,0.1,0.5,0.3,0.7,0.4c0.1,0.1,0.2-0.1,0.1-0.2c-0.3-0.3-0.8-0.5-1.3-0.6c0.1-0.3,0.3-0.5,0.4-0.8c0.7,0.4,1.5,0.7,2.2,1.1
					c0.1,0.1,0.3-0.1,0.1-0.2c-0.7-0.4-1.5-0.7-2.2-1c0.1-0.3,0.3-0.6,0.4-0.9c0.4,0.2,0.9,0.4,1.3,0.5c0.1,0,0.2-0.2,0.1-0.2
					c-0.4-0.2-0.8-0.3-1.3-0.5c0.1-0.2,0.2-0.4,0.3-0.7c0.9,0.3,1.8,0.7,2.5,1.3c0.1,0.1,0.3-0.1,0.2-0.2c-0.8-0.6-1.7-1-2.6-1.3
					c0.2-0.5,0.5-0.9,0.7-1.4C84.3,44.4,86.3,45.4,88.1,46.5z"/>
				<path fill="#3C3C3A" d="M80,61.1c1.6,1,3.2,1.9,4.7,3c-1.7,2-3.4,4-5,6.1c0,0-0.1,0.1-0.1,0.1c-0.2,0.2-0.3,0.4-0.5,0.7
					c-1.1-1-2.4-1.8-3.8-2.4C76.9,66.1,78.5,63.6,80,61.1C80,61,80,61,80,61.1z M78.6,68.8c0.1,0.1,0.3-0.1,0.2-0.2
					c-0.5-0.4-1-0.7-1.6-0.9c-0.1,0-0.2,0.2-0.1,0.2C77.7,68,78.2,68.3,78.6,68.8z M77.7,69c0.1,0.1,0.3-0.1,0.2-0.2
					c-0.5-0.4-1-0.7-1.6-0.9c-0.1,0-0.2,0.1-0.1,0.2C76.8,68.4,77.2,68.7,77.7,69z"/>
				<path fill="#1D1D1B" d="M90.2,32c-0.3,1.7-2,2.9-3.6,2.4c0,0,0,0-0.1,0.1c0,0,0,0,0,0l-0.3-0.1c-0.8-0.2-1.6-0.6-2.2-1.1
					l-0.3-0.1c0,0,0.1-0.1,0.1-0.1c-0.7-0.6-1.1-1.5-1-2.6c0.2-2,2.2-3.1,4-2.8C88.9,28.1,90.5,29.9,90.2,32z M86.6,34
					c1.8,0.4,3.4-1,3.2-2.8c-0.2-1.7-1.7-2.9-3.4-2.9c-1.8-0.1-3.4,1.4-3,3.2c0.3,1.6,1.7,2.1,3,2.7C86.4,34,86.5,34,86.6,34z"/>
				<path fill="#1D1D1B" d="M86.8,43.6c0.1,0.1-0.1,0.3-0.2,0.2c-0.5-0.4-1-0.7-1.7-0.9c-0.1,0-0.1-0.3,0.1-0.2
					C85.7,42.8,86.3,43.2,86.8,43.6z"/>
				<path fill="#3C3C3A" d="M84.3,52.9c-0.2,0.3-0.4,0.6-0.5,0.9c-1.3,2.2-2.7,4.4-4,6.6c-1.5-1-3-2-4.8-2.3
					c1.4-2.7,2.8-5.4,4.2-8.1C80.8,51,82.5,51.9,84.3,52.9z M79.2,58.1c0.1,0.1,0.2,0,0.1-0.1c-0.3-0.3-0.6-0.5-1-0.6
					c-0.1,0-0.1,0.1,0,0.1C78.6,57.7,78.9,57.8,79.2,58.1z M78.8,58.7c0.1,0.1,0.2-0.1,0.1-0.2c-0.6-0.4-1.2-0.6-1.8-0.9
					c-0.1,0-0.1,0.1,0,0.2C77.7,58.1,78.3,58.4,78.8,58.7z"/>
				<path fill="#707070" d="M89.8,31.2c0.2,1.8-1.4,3.3-3.2,2.8c-0.1,0-0.2,0.1-0.2,0.2c-1.3-0.6-2.7-1.1-3-2.7
					c-0.3-1.9,1.2-3.3,3-3.2C88.1,28.3,89.6,29.5,89.8,31.2z M84.4,31.5c0.1,0.1,0.3,0,0.2-0.1c-0.2-0.5-0.3-0.9-0.1-1.4
					c0.1-0.2-0.2-0.3-0.3-0.1C84,30.4,84,31.1,84.4,31.5z M84.3,32.2c0.1,0.1,0.3-0.1,0.2-0.2c-0.4-0.4-0.5-0.9-0.5-1.4
					c0-0.1-0.1-0.1-0.2,0C83.6,31.2,83.8,31.8,84.3,32.2z"/>
				<path fill="#1D1D1B" d="M86.1,43.9c0.1,0.1,0,0.3-0.1,0.2c-0.7-0.3-1.4-0.6-2-1c-0.1,0,0-0.2,0.1-0.1
					C84.8,43.3,85.4,43.6,86.1,43.9z"/>
				<path fill="#1D1D1B" d="M78.8,68.6c0.1,0.1-0.1,0.3-0.2,0.2c-0.4-0.4-0.9-0.7-1.5-0.9c-0.1,0-0.1-0.3,0.1-0.2
					C77.8,67.8,78.3,68.1,78.8,68.6z"/>
				<path fill="#1D1D1B" d="M77.9,68.8c0.1,0.1-0.1,0.3-0.2,0.2c-0.5-0.4-0.9-0.7-1.5-0.9c-0.1,0,0-0.2,0.1-0.2
					C76.9,68.1,77.4,68.4,77.9,68.8z"/>
				<path fill="#707070" d="M84.1,33.4c0.6,0.5,1.4,0.9,2.2,1.1c0,0,0,0,0,0c-0.2,0.4-0.4,0.8-0.6,1.3c-0.1,0-0.1,0.1-0.1,0.2
					c-1.7,3.6-3.5,7.1-5.3,10.6c0,0-0.1,0.1-0.1,0.1c-2.1,4.1-4.2,8.2-6.3,12.3c-0.1,0.2-0.2,0.4-0.3,0.6c-0.1,0-0.1,0.1-0.1,0.1
					c-0.7,1.4-1.4,2.7-2.1,4.1c0,0-0.1,0-0.1,0c-0.1,0-0.1,0.1-0.1,0.1c0,0,0.1,0,0.1,0c-3.3,6.5-6.6,13-9.9,19.5
					c-2.4,4.6-4.7,9.2-7.1,13.9c0,0,0,0,0,0c-0.4,0.5-1.1,0.7-1.7,0.4c-0.5-0.3-0.7-0.7-0.8-1.3c0.1,0,0.2,0,0.2-0.1
					c1.7-2.9,3.2-5.9,4.8-8.9c0.7-1.4,1.5-2.9,2.2-4.4c0.6-1.3,1.3-2.6,1.8-4c0.1,0,0.1,0,0.2-0.1c6.3-11.6,12.2-23.4,18.1-35.3
					C80.8,40.2,82.5,36.9,84.1,33.4C84.1,33.4,84.1,33.4,84.1,33.4z M84.9,36.5c0.1-0.2-0.1-0.3-0.2-0.1c-0.4,0.5-0.7,1.2-0.8,1.8
					c0,0.1,0.1,0.2,0.2,0.1C84.3,37.6,84.6,37.1,84.9,36.5z M84.6,35.8c0.1-0.1-0.2-0.2-0.3-0.1c-0.2,0.4-0.4,0.8-0.5,1.2
					C83.8,37,84,37.1,84,37C84.2,36.6,84.5,36.2,84.6,35.8z M54.2,94.3c0-0.2-0.2-0.3-0.3-0.1c-0.1,0.4-0.3,0.8-0.5,1.3
					c0,0.1,0.1,0.2,0.2,0.1C53.9,95.2,54.1,94.7,54.2,94.3z M52.9,96c0.3-0.5,0.6-1.1,0.8-1.6c0-0.1-0.2-0.2-0.2-0.1
					c-0.3,0.5-0.5,1.1-0.7,1.6C52.6,96,52.8,96.2,52.9,96z"/>
				<path fill="#1D1D1B" d="M84.7,36.4c0.1-0.1,0.3,0,0.2,0.1c-0.3,0.6-0.6,1.1-0.8,1.7c0,0.1-0.2,0.1-0.2-0.1
					C84,37.6,84.3,36.9,84.7,36.4z"/>
				<path fill="#1D1D1B" d="M79.3,58c0.1,0.1,0,0.2-0.1,0.1c-0.3-0.2-0.6-0.4-0.9-0.6c-0.1,0,0-0.1,0-0.1C78.7,57.5,79,57.7,79.3,58
					z"/>
				<path fill="#1D1D1B" d="M78.9,58.5c0.1,0.1,0,0.2-0.1,0.2c-0.6-0.3-1.1-0.6-1.7-0.9c-0.1,0-0.1-0.2,0-0.2
					C77.8,57.9,78.4,58.2,78.9,58.5z"/>
				<path fill="#1D1D1B" d="M84.4,35.7c0.1-0.1,0.3,0,0.3,0.1c-0.2,0.4-0.4,0.8-0.6,1.2c-0.1,0.1-0.2,0-0.2-0.1
					C84,36.5,84.2,36,84.4,35.7z"/>
				<path fill="#F4F4F4" d="M79.5,60.8c-1.5,2.5-3,5.1-4.4,7.7c-1.5-0.7-3.1-1.2-4.6-1.7c0.1-0.2,0.2-0.4,0.3-0.7
					c0.9,0.2,1.7,0.6,2.6,1c0.1,0,0.2-0.1,0.1-0.1c-0.8-0.4-1.7-0.7-2.6-1c0.1-0.3,0.3-0.6,0.4-0.8c0.7,0.2,1.4,0.5,2.1,0.8
					c0.1,0,0.2-0.1,0.1-0.2c-0.7-0.3-1.4-0.6-2.1-0.7c0.2-0.3,0.3-0.6,0.5-0.9c0.9,0.4,1.8,0.8,2.7,1.1c0.1,0,0.2-0.1,0.1-0.2
					c-0.9-0.4-1.8-0.7-2.7-1.1c0.2-0.3,0.3-0.6,0.5-0.9c0.6,0.2,1.1,0.4,1.7,0.6c0.1,0,0.2-0.1,0-0.2c-0.6-0.2-1.1-0.4-1.7-0.6
					l0.5-0.9c0,0,0,0,0,0c0.9,0.2,1.6,0.6,2.4,0.9c0.1,0.1,0.2-0.1,0.1-0.2c-0.7-0.5-1.6-0.7-2.4-0.9l0.6-1.1c0.5,0.2,1,0.4,1.5,0.6
					c0.1,0,0.2-0.1,0.1-0.2c-0.5-0.2-1-0.4-1.5-0.6l0.4-0.8c0.9,0.2,1.7,0.6,2.5,1.1c0.1,0.1,0.2-0.1,0.1-0.2
					c-0.8-0.5-1.7-0.8-2.6-1l0.6-1.2C76.5,58.8,78,59.8,79.5,60.8z"/>
				<path fill="#1D1D1B" d="M84.6,31.4c0.1,0.1-0.1,0.3-0.2,0.1c-0.4-0.5-0.4-1.1-0.2-1.7c0.1-0.2,0.4,0,0.3,0.1
					C84.4,30.5,84.4,30.9,84.6,31.4z"/>
				<path fill="#1D1D1B" d="M84.4,32c0.1,0.1-0.1,0.3-0.2,0.2c-0.4-0.4-0.6-1.1-0.5-1.7c0-0.1,0.2-0.1,0.2,0
					C83.9,31.1,84.1,31.6,84.4,32z"/>
				<path fill="#1D1D1B" d="M54,94.2c0.1-0.2,0.3-0.1,0.3,0.1c-0.1,0.5-0.3,0.9-0.6,1.3c-0.1,0.1-0.2,0-0.2-0.1
					C53.7,95,53.8,94.6,54,94.2z"/>
				<path fill="#1D1D1B" d="M53.6,94.4c-0.1,0.6-0.5,1.1-0.8,1.6c-0.1,0.1-0.3,0-0.2-0.1c0.3-0.5,0.5-1.1,0.7-1.6
					C53.4,94.2,53.6,94.3,53.6,94.4z"/>
			</g>
			<path opacity="0.32" fill="#1D1D1B" d="M109.9,77.9c0-2.1-1.6-4.4-3.2-5.7c-0.2-0.1-0.3-0.2-0.5-0.3c0.2,0,0.3-0.3,0.2-0.5
				c-0.4-0.4-0.9-0.7-1.4-0.9c0,0,0-0.1,0-0.1c-0.7-1.1-1.8-1.8-3.1-2.1c-0.3,0-0.5,0.2-0.5,0.4c-0.6,0.1-1.2,0.3-1.8,0.6
				c-2.5,1.1-5,2.3-7.5,3.4c-2.5,1.1-5.1,2-7.7,2.8c-1.1,0.3-2.1,0.6-3.2,0.9c0,0,0,0,0,0c0.1-0.1,0.2-0.2,0.2-0.3
				c0.1-1,0-2.6-0.9-3.2c-0.1-0.1-0.2-0.1-0.4-0.2c0-0.1-0.1-0.1-0.1-0.2c-0.2-0.4-0.8-0.4-0.8,0.1c0,0,0,0.1,0,0.1
				c-0.5,0.2-1,0.5-1.4,0.9c-0.6,0.5-1,1.2-1.2,1.9c-0.1,0-0.2,0.1-0.3,0.2c-0.2,0.4-0.1,0.7,0,1c0,0.4,0,0.7,0.1,1.1
				c-0.3,0.2-0.2,0.7,0.1,0.8c0,0,0.1,0,0.1,0c0.1,0.2,0.2,0.5,0.4,0.7c0,0,0,0,0,0c0,0.1,0,0.2,0.1,0.2c0,0.1,0,0.2,0.1,0.3
				c0.5,0.5,1,0.9,1.6,1.2c0,0,0,0,0,0c0.4,0.3,0.9,0.7,1.3,1c0.1,0.1,0.3,0.1,0.5,0c0.5,0.7,1.3,1.3,2.1,1.6
				c0.3,0.1,0.4-0.3,0.2-0.4c-1.5-1.1-2.9-2.8-1.6-4.6c0.4-0.6,1-1.1,1.5-1.5c0.5-0.2,1-0.4,1.5-0.6c2.4-0.9,4.9-1.8,7.3-2.7
				c2.4-0.9,4.7-1.8,7.1-2.6c0.4-0.1,0.8-0.2,1.2-0.3c2.2,0,4.4,0.5,6.2,1.9c0.7,0.6,1.4,1.3,1.9,2.1c0.6,0.9,0.8,1.9,1.2,2.9
				C109.5,78.3,109.9,78.3,109.9,77.9z M98.9,70.6c0.2-0.1,0.3-0.2,0.5-0.2c0,0,0,0.1,0,0.1C99.3,70.5,99.1,70.6,98.9,70.6z"/>
			<path opacity="0.32" fill="#1D1D1B" d="M91.9,38.4c-0.4-0.1-0.8-0.1-1.2-0.1c0-0.2-0.1-0.3-0.2-0.4c-1.2-0.6-2.5-1.4-3.8-1.8
				c-0.8-0.3-1.1,0.2-1.4,0.9c-0.8,2-1.7,4-2.8,6c-0.4,0.7-0.8,1.4-1.2,2.1c-0.1,0.2-0.1,0.3,0,0.5c-0.8,1.5-1.6,3-2.4,4.5
				c-0.3,0.5-0.6,1-0.9,1.5c-0.4,0.6-0.7,1.2-1.1,1.9c-1,1.8-2.2,3.5-2.8,5.5c0,0.1,0,0.2,0,0.3c-0.3,0.4-0.6,0.9-0.8,1.3
				c-0.2,0-0.3,0-0.4,0.2c-1,1.9-1.9,3.8-2.8,5.7c-0.2,0.4,0.2,0.7,0.5,0.5c0,0,0.1,0.1,0.1,0.1c0,0,0,0,0,0c0,0.1,0.1,0.1,0.2,0.2
				c0.2,0.1,0.3,0.1,0.5,0.2c0.3,0.1,0.6,0.3,1,0.4c0.1,0.1,0.3,0.1,0.4,0.2c0.1,0.1,0.2,0,0.3,0c0.3,0.3,0.6,0.5,1.1,0.6
				c0.2,0.1,0.4-0.3,0.2-0.4c-1.8-0.9-0.9-3.1-0.4-4.5c0.6-1.5,1.3-3,2-4.5c1.4-2.8,2.7-5.7,4.1-8.5c1.4-2.8,2.8-5.5,4.3-8.2
				c0.8-1.3,1.6-2.6,3.2-3c1.3-0.4,2.7-0.3,4-0.3C92.2,38.9,92.3,38.4,91.9,38.4z M73.4,62.5C73.4,62.5,73.4,62.5,73.4,62.5
				c-0.1,0.3-0.2,0.5-0.3,0.8c0,0,0,0,0,0c0.1-0.1,0.1-0.3,0.2-0.4C73.3,62.7,73.3,62.6,73.4,62.5z M85,40.4
				C84.9,40.4,84.9,40.3,85,40.4c-0.1-0.1-0.1-0.1,0-0.1c0.1,0,0.1,0,0.2,0c0,0,0,0,0,0C85.1,40.3,85,40.3,85,40.4z"/>
			<path opacity="0.32" fill="#1D1D1B" d="M86.6,34.4c-0.8-0.3-1.5-0.6-2.2-1.1c-0.1-0.1-0.3-0.1-0.4,0c0,0-0.1,0.1-0.1,0.1l0,0
				c0,0,0,0.1,0,0.1c-0.2,0-0.3,0.1-0.3,0.3c0,0,0,0.1,0,0.1c0,0,0,0,0,0c-2.2,4-4.3,8.1-6.2,12.2c-1.1,2.3-2.3,4.5-3.3,6.9
				c0,0,0,0,0,0c-1,1.6-1.9,3.6-2.5,5.4c0,0.1,0,0.1,0.1,0.2c-1,1.4-1.7,3-2.5,4.6c-0.9,1.7-1.8,3.4-2.6,5.1
				c-1.6,3.2-3.2,6.3-4.9,9.5c-0.1,0-0.2,0-0.2,0.1c-0.6,0.8-0.9,1.7-1.2,2.6c0,0,0,0.1,0,0.1c-1.5,2.9-3,5.9-4.5,8.8
				c-0.7,1.4-1.5,2.9-2.2,4.3c-0.1-0.2-0.3-0.3-0.4-0.1c-0.6,0.5-1.1,1.6-1.2,2.4c0,0.4,0.1,0.8,0.4,1c0,0.3,0.1,0.7,0.3,1
				c0.1,0.2,0.5,0.1,0.4-0.2c-0.6-1.5,1-3.6,1.7-5c0.8-1.6,1.6-3.2,2.5-4.8c1.7-3.3,3.4-6.7,5.2-10c1.7-3.3,3.4-6.6,5.1-9.9
				c1.7-3.2,3.1-6.7,5.2-9.7c0.1-0.2,0.1-0.3,0-0.4c1-1.8,1.8-3.7,2.7-5.6c1-2,1.9-4.1,2.9-6.1c1.9-3.9,3.9-7.8,6-11.7
				c0.4,0.5,1.1,0.9,1.7,0.8c0.2,0,0.4-0.3,0.3-0.5c0,0,0.1,0,0.1,0C86.7,35.2,87.1,34.6,86.6,34.4z"/>
			<path opacity="0.5" fill="#FFFFFF" d="M111.1,58.4c0.1-0.5-0.8-0.5-0.9,0c-0.3,2.5-2.6,4-4.6,5.1c-2.2,1.2-4.5,2.3-6.8,3.4
				c-2.4,1.1-4.7,2.1-7.1,3.1c-2.3,1-4.8,1.8-7.1,2.8c-0.3,0.1-0.1,0.5,0.2,0.4c2.8-0.7,5.5-1.8,8.1-2.9c2.5-1,5-2.1,7.5-3.3
				c2.4-1.1,4.9-2.2,7.1-3.7C109.3,62.2,110.8,60.7,111.1,58.4z"/>
			<path opacity="0.5" fill="#FFFFFF" d="M109.3,83.9c-1.3,2.6-4,3.8-6.4,5c-1.4,0.7-2.7,1.4-4.1,2.2c-1.2,0.7-2.9,1.4-3.8,2.5
				c-0.1,0.1,0,0.4,0.2,0.3c0.7-0.2,1.3-0.6,2-1c0.7-0.4,1.4-0.8,2.2-1.2c1.5-0.8,3-1.6,4.6-2.4c2.4-1.2,5-2.5,6.1-5
				C110.2,83.8,109.5,83.4,109.3,83.9z"/>
			<path opacity="0.5" fill="#FFFFFF" d="M86.1,29.2c-0.3,0.1-0.2,0.5,0.1,0.5c0.7,0,1.4,0.2,1.8,0.8c0.4,0.6,0.3,1.1,0.1,1.7
				c-0.1,0.4,0.4,0.6,0.6,0.2C89.6,30.8,87.9,28.7,86.1,29.2z"/>
			<path opacity="0.5" fill="#FFFFFF" d="M56.6,92.7c-0.8,1.4-1.6,2.8-2.5,4.1c-0.1,0.1,0.1,0.3,0.2,0.2c1-1.3,2-2.6,2.7-4.1
				C57.1,92.6,56.8,92.5,56.6,92.7z"/>
		</g>
		<g>
			<g>
				<path fill="#1D1D1B" d="M23.1,68.3c-2.3-1-4.9-2-7.1-3.4c-1.6-1.1-3-2.7-3-4.7c-0.1-2.1,1.1-4.2,2.2-5.9
					c2.6-4,6.5-7.2,10.2-10.1c4.4-3.5,9.2-6.5,14.5-8.4c-0.2-0.4-0.3-0.8-0.4-1.3c0,0,0,0,0-0.1l0.3-0.1c0,0,0,0,0,0
					c0.2,0.4,0.4,0.8,0.6,1.3c0.1,0,0.1,0.1,0.1,0.2c1.7,3.6,3.5,7.1,5.3,10.6c0,0,0.1,0.1,0.1,0.1c2.1,4.1,4.2,8.2,6.3,12.3
					c0.1,0.2,0.2,0.4,0.3,0.6c0.1,0,0.1,0.1,0.1,0.1c0.7,1.4,1.4,2.7,2.1,4.1c0,0,0.1,0,0.1,0c0.1,0,0.1,0.1,0.1,0.1
					c0,0-0.1,0-0.1,0c3.3,6.5,6.6,13,9.9,19.5c2.4,4.6,4.7,9.2,7.1,13.9c0,0,0,0,0,0c0.4,0.5,1.1,0.7,1.7,0.4
					c0.5-0.3,0.7-0.7,0.8-1.3c-0.1,0-0.2,0-0.2-0.1c-1.7-2.9-3.2-5.9-4.8-8.9c-0.7-1.4-1.5-2.9-2.2-4.4c-0.6-1.3-1.3-2.6-1.8-4
					c-0.1,0-0.1,0-0.2-0.1c-6.3-11.6-12.2-23.4-18.1-35.3c-1.7-3.4-3.4-6.7-4.9-10.2c0,0,0,0,0-0.1l0.3-0.1
					c3.1,5.8,5.9,11.9,8.9,17.8c3,5.9,5.9,11.7,9,17.6c1.7,3.3,3.5,6.7,5.2,10c0,0,0,0.1,0,0.1c0.7,1.3,1.3,2.7,2,4
					c0.7,1.5,1.5,3,2.2,4.5c1.5,3,3.1,5.9,4.7,8.8c0,0,0,0.1,0,0.1c0,0,0.1,0,0.1,0.1c0.2,0.8-0.3,1.6-1,1.8c-0.7,0.3-1.6,0-2.1-0.6
					c0,0,0,0,0-0.1C66,87.3,60.9,77.2,55.7,67.1c-3.3,1.3-6.8,2.4-9.3,5.1c1.5,0.5,3.3,2,3.3,3.7c0,0,0,0.1-0.1,0.1
					c1.1,1.7-0.6,3.9-1.9,5c-2,1.7-4.4,2.6-6.6,3.9c-4.5,2.7-7.5,7.4-8.3,12.5c0,0.2-0.3,0.2-0.4,0.1c-0.1-0.1-0.1-0.1-0.1-0.3
					c0.5-3.2,1.9-6.3,3.9-8.8c-0.3-0.2-0.5-0.3-0.8-0.5c-0.8,0.8-1.4,1.8-1.7,3c0,0.1-0.2,0.1-0.2-0.1c0.2-1.2,0.9-2.2,1.8-3.1
					c-0.3-0.2-0.6-0.4-0.8-0.5c-1.5,1.4-2.4,2.9-2.5,5c0,0.1-0.2,0.2-0.2,0c0-1.9,1-4,2.6-5c-0.4-0.2-0.7-0.5-1.1-0.7
					c-0.7,0.8-1.3,1.8-1.7,2.8c-0.1,0.1-0.3,0.1-0.2-0.1c0.4-1.1,1-2,1.8-2.9c-0.3-0.2-0.7-0.4-1-0.7c0,0,0,0,0,0l-0.1-0.1
					c-0.3-0.2-0.6-0.4-0.8-0.6c0,0,0,0,0,0.1c-0.5,0.5-0.9,1.1-1.1,1.8c0,0,0,0,0,0c-0.1,0.1-0.2,0-0.2-0.1c0.2-0.7,0.6-1.4,1.1-1.8
					c0,0,0,0,0,0c-0.2-0.1-0.4-0.3-0.7-0.4c-1.7,2.6-2.8,5.5-3,8.6c1.8,1.3,3.5,2.8,5.1,4.3c0,0,0.1,0.1,0.1,0.1
					c0.2,0.2-0.1,0.4-0.3,0.3c-5.6-4.5-11.3-8.6-17.7-12c0,0,0,0,0,0c-0.1,0-0.2-0.1-0.2-0.2C15.2,79.4,17,71.5,23.1,68.3z
					 M20.1,78.1c-1-0.6-1.9-1.2-2.9-1.9c-1.3,3-1.8,6.2-2.3,9.3c0.9,0.5,1.8,1,2.6,1.5C17.6,83.9,18.6,80.8,20.1,78.1z M21.5,89.3
					c0.3-2.9,1.3-5.9,2.9-8.5c-0.2-0.1-0.4-0.2-0.5-0.3c0,0,0,0,0,0c-0.5,0.6-0.9,1.2-1.3,1.8c-0.1,0.1-0.3,0-0.2-0.1
					c0.4-0.7,0.8-1.3,1.3-1.8c-0.2-0.1-0.4-0.2-0.6-0.4c-0.9,0.8-1.4,1.7-1.8,2.8c-0.1,0.1-0.3,0.1-0.2-0.1c0.3-1.1,1-2.1,1.9-2.8
					c-0.3-0.2-0.5-0.3-0.8-0.5c-0.4,0.4-0.8,0.8-1,1.3c-0.3,0.5-0.4,1-0.6,1.5c0,0.1-0.2,0-0.2-0.1c0.1-1.1,0.9-2.1,1.7-2.8
					c-0.2-0.1-0.5-0.3-0.7-0.4c-0.5,0.4-0.8,0.9-1,1.5c0,0.1-0.2,0.1-0.2-0.1c0.2-0.6,0.6-1.2,1.1-1.6c-0.2-0.1-0.4-0.3-0.7-0.4
					c-1.4,2.8-2.1,5.6-2.5,8.8c0,0,0,0.1,0,0.1C19.1,87.9,20.3,88.6,21.5,89.3z M17.4,75.8c1,0.6,2,1.2,2.9,1.8
					c0.1-0.1,0.1-0.2,0.2-0.3c1.3-2.4,3.1-4.6,5.3-6.3c-0.2-0.1-0.4-0.2-0.5-0.3c-0.6,0.5-1.2,1-1.8,1.6c-0.1,0.1-0.3-0.1-0.2-0.2
					c0.5-0.6,1.1-1.1,1.8-1.5c-0.3-0.1-0.5-0.3-0.8-0.4c-0.7,0.4-1.4,0.9-1.9,1.6c-0.1,0.1-0.3,0-0.2-0.1c0.5-0.7,1.1-1.2,1.8-1.6
					c-0.3-0.1-0.5-0.3-0.8-0.4c0,0,0,0,0,0.1c-0.5,0.4-0.9,0.9-1.4,1.4c-0.1,0.1-0.2,0-0.2-0.1c0.3-0.6,0.9-1,1.4-1.4
					c-0.2-0.1-0.3-0.2-0.5-0.3c-0.1,0-0.1-0.1-0.1-0.1c-2.1,1.7-3.8,3.7-5,6.3C17.4,75.6,17.4,75.7,17.4,75.8
					C17.4,75.8,17.4,75.8,17.4,75.8z M20,66.4c0.1-2.9,1.2-5.5,2.8-7.8c-0.2-0.2-0.5-0.4-0.7-0.6c-0.6,0.5-1.1,1.1-1.5,1.8
					c-0.1,0.1-0.2,0-0.2-0.1c0.3-0.7,0.9-1.4,1.5-1.9c-0.3-0.2-0.6-0.4-0.8-0.7c-1,0.9-1.7,1.9-2.2,3.2c-0.1,0.1-0.3,0.1-0.2-0.1
					c0.3-1.3,1.2-2.5,2.3-3.3c-0.3-0.3-0.6-0.5-1-0.8c-0.4,0.6-0.8,1.2-1.2,1.9c-0.1,0.1-0.2,0-0.2-0.1c0.3-0.7,0.8-1.4,1.2-1.9
					c-0.3-0.2-0.5-0.4-0.8-0.6c-0.9,0.8-1.6,1.7-1.9,2.9c-0.1,0.2-0.3,0.1-0.3-0.1c0.3-1.2,1.1-2.2,2-3c-0.3-0.3-0.7-0.5-1-0.8
					c-0.7,0.6-1.3,1.3-1.7,2.2c-0.1,0.1-0.3,0-0.2-0.1c0.4-0.8,1.1-1.6,1.8-2.2c-0.4-0.3-0.9-0.7-1.3-1c0,0,0,0-0.1-0.1
					c-1.1,1.5-2.1,3.1-2.7,4.9c-0.8,2.6,0.4,4.8,2.6,6.2C17.6,65.3,18.8,65.9,20,66.4z M26.7,92.9c0.3-3.1,1.3-6,3.1-8.5
					c-1-0.7-2-1.3-3-2c-0.7-0.4-1.3-0.9-2-1.3c-1.5,2.6-2.5,5.5-2.8,8.5C23.6,90.6,25.2,91.7,26.7,92.9z M24.6,80.4
					c1.6-2.6,3.8-4.9,6.4-6.6c-1.6-0.8-3.2-1.7-4.7-2.5c-2.1,1.8-3.9,3.8-5.3,6.3c-0.1,0.1-0.1,0.2-0.2,0.3
					C22,78.7,23.3,79.6,24.6,80.4z M23.2,58.2c1.4-1.9,3.1-3.6,4.8-5.2c0.5-0.5,1-0.9,1.5-1.4c-1.8-1.9-3.6-3.8-5.5-5.7
					c-2.4,2-4.8,4.1-6.8,6.5c-0.2,0.2-0.4,0.5-0.6,0.7c0.1,0,0.1,0,0.2,0.1C19,54.9,21.1,56.5,23.2,58.2z M23,67.7
					c1.2,0.5,2.3,1,3.5,1.6c0.1-2.3,1-4.3,2.2-6.1c-1.8-1.4-3.6-2.8-5.4-4.2c-1.6,2.3-2.7,4.8-2.7,7.7c0,0,0,0.1,0,0.1
					C21.3,67,22.2,67.3,23,67.7z M30.1,84c0.3-0.4,0.6-0.8,0.9-1.2c1.2-1.5,2.7-2.7,4.4-3.7c0.8-0.5,1.7-0.9,2.6-1.3
					c-0.4-0.2-0.7-0.4-1.1-0.6c-1,0.4-1.9,1-2.7,1.7c-0.1,0.1-0.2-0.1-0.1-0.1c0.8-0.7,1.7-1.2,2.7-1.6c-0.4-0.2-0.8-0.5-1.2-0.7
					c-1.5,0.9-2.7,1.9-4,3.1c-0.1,0.1-0.2,0-0.2-0.1c1.1-1.3,2.4-2.3,3.9-3.1c-0.4-0.2-0.7-0.4-1.1-0.6c0,0,0,0,0,0c0,0,0,0,0,0.1
					c-0.8,0.5-1.5,1-2.2,1.7c-0.1,0.1-0.2-0.1-0.1-0.2c0.7-0.7,1.4-1.2,2.2-1.7c-0.4-0.2-0.8-0.4-1.1-0.6c-1.2,0.7-2.1,1.5-3,2.6
					c-0.1,0.2-0.3,0-0.2-0.2c0.8-1,1.8-1.9,3-2.5c-0.4-0.2-0.8-0.5-1.3-0.7c-2.3,1.5-4.2,3.3-5.8,5.5c-0.2,0.3-0.5,0.7-0.7,1
					c0.7,0.4,1.3,0.9,2,1.3C28,82.7,29,83.3,30.1,84z M26.2,70.8c0.3-0.2,0.6-0.4,0.9-0.6c-1.2-0.5-2.4-1.1-3.6-1.6
					c-0.2,0.2-0.5,0.3-0.7,0.5C23.9,69.6,25,70.2,26.2,70.8z M31.4,73.6c0.5-0.3,1-0.6,1.6-0.8c-0.7-0.3-1.3-0.6-2-0.9
					c-1.2-0.5-2.3-1-3.5-1.6c-0.3,0.2-0.6,0.5-0.9,0.7C28.2,71.8,29.8,72.7,31.4,73.6z M33.6,72.5C33.6,72.5,33.7,72.5,33.6,72.5
					c0.2-0.1,0.3,0,0.3,0.1c0.6,0.3,1.3,0.6,2,0.8c-0.2-1.5,0.1-3,0.6-4.3c-0.3-0.2-0.5-0.4-0.8-0.6c-0.3,0.5-0.5,1-0.7,1.6
					c0,0.1-0.2,0.1-0.2-0.1c0.1-0.6,0.4-1.1,0.8-1.6c-0.3-0.2-0.6-0.4-0.9-0.7c-0.2,0.5-0.4,1-0.6,1.5c0,0.1-0.3,0.1-0.2-0.1
					c0.1-0.5,0.4-1.1,0.7-1.6c-0.3-0.2-0.6-0.5-0.9-0.7c-0.7,1-1,2.1-1.3,3.3c0,0.2-0.3,0.1-0.2-0.1c0.2-1.2,0.7-2.3,1.4-3.3
					c-0.3-0.2-0.5-0.4-0.8-0.6c-0.4,0.6-0.7,1.1-0.9,1.8c-0.1,0.2-0.3,0.1-0.2-0.1c0.2-0.7,0.5-1.3,1-1.8c-0.2-0.2-0.5-0.4-0.7-0.6
					c-1,1.1-1.6,2.2-2,3.6c0,0.1-0.3,0.1-0.2-0.1c0.3-1.3,1.1-2.7,2.1-3.6c-0.4-0.3-0.7-0.6-1.1-0.8c0,0,0,0-0.1,0
					c-0.6,0.6-0.9,1.3-1.4,2c-0.1,0.1-0.3,0-0.2-0.1c0.3-0.8,0.8-1.5,1.4-2.1c-0.4-0.3-0.9-0.7-1.3-1c-1.2,1.8-2,3.7-2.1,6
					c0,0,0,0,0,0.1l3.3,1.5C31.3,71.5,32.5,72,33.6,72.5z M35.5,87.7c0.1,0,0.2,0,0.2,0.1c0.2,0.2,0.5,0.3,0.7,0.5
					c0.7-0.9,1.5-1.7,2.4-2.4c1.9-1.5,4-2.5,6.1-3.6c0.2-0.1,0.4-0.2,0.6-0.3c-2.3-1.3-4.7-2.6-7-3.9c-0.6,0.3-1.3,0.6-1.9,0.9
					c-1.8,0.9-3.3,2.1-4.7,3.6c-0.5,0.6-1,1.1-1.4,1.7C32.2,85.4,33.9,86.5,35.5,87.7z M33.8,57.9c0.3-0.2,0.6-0.5,0.9-0.7
					c-0.2-0.3-0.5-0.5-0.7-0.8c-0.9,0.8-1.7,1.5-2.6,2.2c-0.1,0.1-0.3-0.1-0.2-0.2c0.9-0.8,1.8-1.5,2.7-2.2
					c-0.2-0.2-0.4-0.4-0.6-0.7c-0.6,0.6-1.2,1.1-1.8,1.6c-0.1,0.1-0.2-0.1-0.1-0.2c0.6-0.5,1.2-1,1.8-1.5c-0.2-0.3-0.5-0.5-0.7-0.8
					c-0.9,0.8-1.6,1.6-2.4,2.5c-0.1,0.1-0.3-0.1-0.2-0.2c0.7-0.9,1.6-1.7,2.5-2.4c-0.2-0.2-0.4-0.5-0.6-0.7
					c-0.4,0.5-0.9,0.9-1.4,1.2C30.1,55.1,30,55,30,54.9c0.5-0.4,1-0.8,1.4-1.2c-0.2-0.2-0.4-0.5-0.6-0.7c-0.9,0.6-1.6,1.2-2.3,2
					c-0.1,0.1-0.3-0.1-0.2-0.2c0.6-0.8,1.4-1.5,2.3-2c-0.3-0.3-0.6-0.6-0.8-0.9c-0.4,0.3-0.8,0.7-1.1,1c-1.8,1.6-3.7,3.5-5.2,5.5
					c1.8,1.4,3.6,2.8,5.3,4.2C30.3,60.9,32,59.3,33.8,57.9z M34.9,67.3C34.9,67.3,34.9,67.3,34.9,67.3c0.6,0.5,1.3,0.9,1.9,1.4
					c0.8-1.6,2-3,3.4-4.2c0.2-0.1,0.3-0.3,0.5-0.4c-1.6-1.9-3.3-3.8-4.9-5.7c-0.3-0.3-0.5-0.6-0.8-0.8c-0.2,0.1-0.3,0.2-0.5,0.4
					c-1.9,1.5-3.8,3.2-5.2,5.2c0.4,0.3,0.9,0.7,1.3,1C32,65.2,33.4,66.2,34.9,67.3z M38.5,77.5c1-0.5,1.9-0.9,2.8-1.6
					c-2.7-0.8-5.3-1.8-7.8-2.9c-0.5,0.3-1,0.6-1.5,0.9c0.8,0.5,1.7,0.9,2.5,1.4C35.8,76,37.1,76.8,38.5,77.5z M29.9,51.4
					c2.3-1.9,4.7-3.7,7.3-5.2c-0.2-0.3-0.4-0.6-0.5-0.9c-0.8,0.4-1.6,0.8-2.4,1.2c-0.1,0.1-0.2-0.1-0.1-0.2c0.7-0.5,1.6-0.9,2.4-1.2
					c-0.2-0.4-0.4-0.7-0.6-1.1c-0.9,0.5-1.7,1-2.6,1.5c-0.1,0.1-0.2-0.1-0.1-0.2c0.8-0.5,1.7-1,2.6-1.4c-0.2-0.3-0.3-0.5-0.5-0.8
					c-0.7,0.4-1.3,0.8-2,1.3c-0.1,0.1-0.2-0.1-0.1-0.2c0.6-0.5,1.3-0.9,2-1.2c-0.1-0.2-0.3-0.5-0.4-0.7c-0.9,0.5-1.8,1-2.7,1.6
					c-0.1,0.1-0.3-0.1-0.1-0.2c0.9-0.6,1.8-1.1,2.8-1.5c-0.2-0.3-0.4-0.6-0.6-0.9c-0.5,0.3-1.1,0.7-1.6,0.9
					c-0.1,0.1-0.2-0.1-0.1-0.2c0.5-0.3,1.1-0.6,1.6-0.9c-0.1-0.2-0.3-0.5-0.4-0.7c-0.8,0.5-1.5,1-2.2,1.6c-0.1,0.1-0.3-0.1-0.2-0.2
					c0.7-0.6,1.5-1.2,2.3-1.6c-0.1-0.2-0.2-0.3-0.3-0.5c-1.9,1.1-3.7,2.3-5.5,3.6c-1.1,0.8-2.2,1.6-3.3,2.5
					C26.3,47.6,28.1,49.4,29.9,51.4z M44.2,76.1c-0.3-0.6-0.1-1.2,0.1-1.8c-2.6-1.5-5-3.1-7.5-4.9c-0.5,1.3-0.8,2.6-0.5,4.1
					c0,0.1,0,0.1,0,0.1C38.9,74.7,41.5,75.6,44.2,76.1z M40.2,53.3c0.3-0.2,0.6-0.4,1-0.6c-1.2-2-2.4-4-3.6-6c-2.6,1.5-5,3.1-7.3,5
					c1.6,1.7,3.2,3.4,4.8,5.2C36.6,55.6,38.4,54.4,40.2,53.3z M45.8,81.8c2-1.2,4.4-3.2,3.6-5.5c0,0-0.1,0-0.1,0
					C49.1,76,48.8,76,48.6,76c0.3,0.8-0.1,1.8-0.9,2.3c-0.1,0.1-0.2-0.1-0.1-0.2c0.7-0.5,0.9-1.3,0.8-2.1c-0.3,0-0.7,0.2-1.1,0.3
					c-0.2,0.7-0.6,1.3-1.1,1.7c-0.1,0.1-0.2-0.1-0.1-0.1c0.5-0.4,0.8-0.9,1-1.4c-0.4,0.2-0.7,0.3-1,0.4c-0.3,0.1-0.5,0.1-0.8,0.1
					c-0.1,0.3-0.3,0.6-0.6,0.7c-0.1,0.1-0.2-0.1-0.1-0.2c0.2-0.1,0.4-0.3,0.5-0.6c-0.2,0-0.3-0.1-0.4-0.2c-0.3,0-0.5-0.1-0.8-0.1
					c-0.2,0.2-0.4,0.4-0.7,0.5c-0.1,0.1-0.2-0.1-0.1-0.1c0.2-0.1,0.4-0.3,0.6-0.4c-0.7-0.1-1.4-0.3-2.1-0.5
					c-0.7,0.8-1.6,1.3-2.6,1.8C41.3,79.1,43.5,80.4,45.8,81.8z M41.1,63.8c1.4-1,2.9-1.9,4.3-2.8c0.1-0.1,0.3-0.2,0.4-0.3
					c-0.2-0.3-0.3-0.6-0.5-0.9c-0.3,0.2-0.6,0.3-0.9,0.5c-0.3,0.2-0.7,0.4-1,0.6c-0.1,0.1-0.2-0.1-0.1-0.2c0.5-0.4,1.3-0.9,1.9-1.1
					c-0.2-0.3-0.3-0.6-0.5-0.8c-1,0.7-2.2,1.4-3.3,2c-0.1,0.1-0.2-0.1-0.1-0.2c1.1-0.7,2.2-1.3,3.3-1.9c-0.2-0.3-0.3-0.5-0.5-0.8
					c-0.7,0.4-1.3,0.8-1.9,1.2c-0.1,0.1-0.2-0.1-0.1-0.2c0.6-0.5,1.3-0.9,1.9-1.2c-0.1-0.2-0.3-0.5-0.4-0.7c-1,0.6-2.1,1.2-3.1,1.9
					c-0.1,0.1-0.2-0.1-0.1-0.2c1-0.7,2-1.3,3.1-1.8c-0.2-0.3-0.3-0.6-0.5-0.9c0,0,0,0,0,0c-0.6,0.3-1.2,0.7-1.8,1
					c-0.1,0.1-0.2-0.1-0.1-0.2c0.6-0.3,1.2-0.6,1.9-0.9c0,0,0,0,0,0c-0.2-0.3-0.4-0.7-0.6-1c-1,0.6-1.9,1.1-2.8,1.8
					c-0.2,0.1-0.3-0.1-0.1-0.3c0.9-0.6,1.8-1.2,2.8-1.7c-0.1-0.2-0.3-0.5-0.4-0.7c0,0,0,0,0-0.1c-0.6,0.4-1.2,0.7-1.7,1.1
					C40,55.2,39.9,55,40,54.9c0.5-0.4,1.1-0.9,1.8-1.1c-0.1-0.2-0.3-0.4-0.4-0.7c-0.2,0.1-0.5,0.3-0.7,0.4c-1.9,1.2-3.6,2.4-5.4,3.7
					c0.3,0.3,0.6,0.6,0.8,0.9C37.8,60,39.4,61.9,41.1,63.8z M44.4,74c0.3-0.5,0.6-1,0.8-1.3c0.4-0.6,0.9-1.1,1.4-1.5
					c-0.2-0.2-0.4-0.4-0.5-0.6c-0.4,0.3-0.7,0.7-1.1,1c-0.1,0.1-0.3-0.1-0.2-0.2c0.3-0.4,0.7-0.7,1.1-1c-0.3-0.3-0.6-0.7-0.9-1
					c-0.5,0.5-1,1.1-1.4,1.6c-0.1,0.1-0.3,0-0.2-0.2c0.4-0.6,0.9-1.2,1.5-1.7c-0.3-0.3-0.5-0.6-0.8-0.9c-0.7,0.7-1.5,1.5-2.2,2.2
					c-0.1,0.1-0.2,0-0.2-0.2c0.7-0.8,1.5-1.5,2.3-2.2c-0.3-0.3-0.5-0.6-0.8-1c-0.3,0.3-0.6,0.6-0.8,0.9c-0.1,0.1-0.3,0-0.2-0.1
					c0.2-0.4,0.5-0.7,0.9-1c-0.2-0.2-0.4-0.5-0.6-0.7c-0.4,0.3-0.7,0.7-1.1,1.1c-0.1,0.1-0.3,0-0.2-0.1c0.3-0.4,0.7-0.8,1.1-1.1
					c-0.3-0.3-0.5-0.6-0.8-0.9c-0.8,0.5-1.3,1.2-1.8,2.1c-0.1,0.1-0.2,0-0.2-0.1c0.3-0.9,1-1.7,1.8-2.2c-0.2-0.2-0.4-0.5-0.6-0.7
					c-1.5,1.2-3,2.7-3.8,4.5C39.5,70.6,42,72.3,44.4,74z M43.5,43.2c-0.3-0.6-0.6-1.2-0.9-1.9c-0.8-1.7-1.7-3.3-2.4-5.1
					c-2.2,0.9-4.4,1.9-6.4,3.1c1.3,2.2,2.6,4.4,4,6.6C39.5,44.9,41.5,43.9,43.5,43.2z M47.2,76c0.5-0.2,1.5-0.6,2-0.3
					c0,0,0.1,0,0.1,0c-0.5-1.5-1.8-2.6-3.2-3.1c-0.6,0.7-1.2,1.5-1.4,2.3c-0.3,1.1,0.3,1.7,1.5,1.5C46.5,76.3,46.8,76.1,47.2,76z
					 M46.8,49.7c-0.1-0.3-0.3-0.5-0.4-0.8c-1,0.3-1.9,0.7-2.7,1.3c-0.1,0.1-0.2-0.1-0.1-0.2c0.8-0.6,1.8-1.1,2.7-1.3
					c-0.1-0.2-0.2-0.4-0.3-0.6c0-0.1-0.1-0.2-0.1-0.3c-0.2,0.1-0.4,0.1-0.6,0.2c-0.2,0.1-0.5,0.3-0.7,0.4c-0.1,0.1-0.2-0.1-0.1-0.2
					c0.3-0.3,0.8-0.5,1.3-0.6c-0.1-0.3-0.3-0.5-0.4-0.8c-0.7,0.4-1.5,0.7-2.2,1.1c-0.1,0.1-0.3-0.1-0.1-0.2c0.7-0.4,1.5-0.7,2.2-1
					c-0.1-0.3-0.3-0.6-0.4-0.9c-0.4,0.2-0.9,0.4-1.3,0.5c-0.1,0-0.2-0.2-0.1-0.2c0.4-0.2,0.8-0.3,1.3-0.5c-0.1-0.2-0.2-0.4-0.3-0.7
					c-0.9,0.3-1.8,0.7-2.5,1.3c-0.1,0.1-0.3-0.1-0.2-0.2c0.8-0.6,1.7-1,2.6-1.3c-0.2-0.5-0.5-0.9-0.7-1.4c-2,0.9-3.9,1.9-5.7,3
					c1.2,2,2.4,4,3.6,6C43.2,51.5,45,50.5,46.8,49.7z M46.3,70.2c0,0,0.1,0.1,0.1,0.1c0.2,0.2,0.3,0.4,0.5,0.7
					c1.1-1,2.4-1.8,3.8-2.4c-1.6-2.4-3.1-5-4.6-7.5c0,0,0,0,0,0c-1.6,1-3.2,1.9-4.7,3C43,66.1,44.7,68.1,46.3,70.2z M46.3,60.4
					c1.5-1,3-2,4.8-2.3c-1.4-2.7-2.8-5.4-4.2-8.1c-1.7,1-3.5,1.9-5.2,2.9c0.2,0.3,0.4,0.6,0.5,0.9C43.6,56,44.9,58.2,46.3,60.4z
					 M55.5,66.7c-0.1-0.2-0.2-0.4-0.3-0.7c-0.9,0.2-1.7,0.6-2.6,1c-0.1,0-0.2-0.1-0.1-0.1c0.8-0.4,1.7-0.7,2.6-1
					c-0.1-0.3-0.3-0.6-0.4-0.8c-0.7,0.2-1.4,0.5-2.1,0.8c-0.1,0-0.2-0.1-0.1-0.2c0.7-0.3,1.4-0.6,2.1-0.7c-0.2-0.3-0.3-0.6-0.5-0.9
					c-0.9,0.4-1.8,0.8-2.7,1.1c-0.1,0-0.2-0.1-0.1-0.2c0.9-0.4,1.8-0.7,2.7-1.1c-0.2-0.3-0.3-0.6-0.5-0.9c-0.6,0.2-1.1,0.4-1.7,0.6
					c-0.1,0-0.2-0.1,0-0.2c0.6-0.2,1.1-0.4,1.7-0.6L53.1,62c0,0,0,0,0,0c-0.9,0.2-1.6,0.6-2.4,0.9c-0.1,0.1-0.2-0.1-0.1-0.2
					c0.7-0.5,1.6-0.7,2.4-0.9l-0.6-1.1c-0.5,0.2-1,0.4-1.5,0.6c-0.1,0-0.2-0.1-0.1-0.2c0.5-0.2,1-0.4,1.5-0.6l-0.4-0.8
					c-0.9,0.2-1.7,0.6-2.5,1.1c-0.1,0.1-0.2-0.1-0.1-0.2c0.8-0.5,1.7-0.8,2.6-1l-0.6-1.2c-1.8,0.4-3.2,1.4-4.8,2.3
					c1.5,2.5,3,5.1,4.4,7.7C52.4,67.7,54,67.2,55.5,66.7z"/>
				<path fill="#3C3C3A" d="M17.2,76.2c1,0.6,1.9,1.3,2.9,1.9c-1.4,2.7-2.5,5.9-2.5,8.9c-0.9-0.5-1.8-1-2.6-1.5
					C15.3,82.3,15.9,79.1,17.2,76.2z M18.1,79.1c0.1-0.2,0.3-0.4,0.5-0.6c0.1-0.1,0-0.2-0.1-0.1c-0.5,0.3-0.9,0.9-0.8,1.5
					c0,0.1,0.2,0.1,0.3,0C17.9,79.6,18,79.3,18.1,79.1z M18.8,79.2c0.2-0.3,0.3-0.5,0.6-0.8c0.1-0.1,0-0.2-0.1-0.1
					c-0.4,0.4-0.9,1.1-1,1.7c0,0.1,0.2,0.2,0.2,0.1C18.6,79.7,18.7,79.4,18.8,79.2z"/>
				<path fill="#F4F4F4" d="M18,87.1c0,0,0,0.1,0,0.1c1.2,0.7,2.3,1.4,3.5,2.1c0.3-2.9,1.3-5.9,2.9-8.5c-0.2-0.1-0.4-0.2-0.5-0.3
					c0,0,0,0,0,0c-0.5,0.6-0.9,1.2-1.3,1.8c-0.1,0.1-0.3,0-0.2-0.1c0.4-0.7,0.8-1.3,1.3-1.8c-0.2-0.1-0.4-0.2-0.6-0.4
					c-0.9,0.8-1.4,1.7-1.8,2.8c-0.1,0.1-0.3,0.1-0.2-0.1c0.3-1.1,1-2.1,1.9-2.8c-0.3-0.2-0.5-0.3-0.8-0.5c-0.4,0.4-0.8,0.8-1,1.3
					c-0.3,0.5-0.4,1-0.6,1.5c0,0.1-0.2,0-0.2-0.1c0.1-1.1,0.9-2.1,1.7-2.8c-0.2-0.1-0.5-0.3-0.7-0.4c-0.5,0.4-0.8,0.9-1,1.5
					c0,0.1-0.2,0.1-0.2-0.1c0.2-0.6,0.6-1.2,1.1-1.6c-0.2-0.1-0.4-0.3-0.7-0.4C19.1,81.1,18.4,84,18,87.1z"/>
				<path fill="#1D1D1B" d="M17.6,79.8c0,0.1,0.2,0.1,0.3,0c0-0.3,0-0.5,0.2-0.8c0.1-0.2,0.3-0.4,0.5-0.6c0.1-0.1,0-0.2-0.1-0.1
					C18,78.6,17.6,79.3,17.6,79.8z"/>
				<path fill="#1D1D1B" d="M18.3,79.9c0,0.1,0.2,0.2,0.2,0.1c0.1-0.3,0.2-0.6,0.3-0.8c0.2-0.3,0.3-0.5,0.6-0.8
					c0.1-0.1,0-0.2-0.1-0.1C18.8,78.7,18.3,79.3,18.3,79.9z"/>
				<path fill="#F4F4F4" d="M17.5,75.5c0,0.1-0.1,0.2-0.1,0.3c0,0,0,0,0,0c1,0.6,2,1.2,2.9,1.8c0.1-0.1,0.1-0.2,0.2-0.3
					c1.3-2.4,3.1-4.6,5.3-6.3c-0.2-0.1-0.4-0.2-0.5-0.3c-0.6,0.5-1.2,1-1.8,1.6c-0.1,0.1-0.3-0.1-0.2-0.2c0.5-0.6,1.1-1.1,1.8-1.5
					c-0.3-0.1-0.5-0.3-0.8-0.4c-0.7,0.4-1.4,0.9-1.9,1.6c-0.1,0.1-0.3,0-0.2-0.1c0.5-0.7,1.1-1.2,1.8-1.6c-0.3-0.1-0.5-0.3-0.8-0.4
					c0,0,0,0,0,0.1c-0.5,0.4-0.9,0.9-1.4,1.4c-0.1,0.1-0.2,0-0.2-0.1c0.3-0.6,0.9-1,1.4-1.4c-0.2-0.1-0.3-0.2-0.5-0.3
					c-0.1,0-0.1-0.1-0.1-0.1C20.3,70.9,18.7,73,17.5,75.5z"/>
				<path fill="#F4F4F4" d="M13.8,58.3c-0.8,2.6,0.4,4.8,2.6,6.2c1.1,0.7,2.4,1.3,3.6,1.8c0.1-2.9,1.2-5.5,2.8-7.8
					c-0.2-0.2-0.5-0.4-0.7-0.6c-0.6,0.5-1.1,1.1-1.5,1.8c-0.1,0.1-0.2,0-0.2-0.1c0.3-0.7,0.9-1.4,1.5-1.9c-0.3-0.2-0.6-0.4-0.8-0.7
					c-1,0.9-1.7,1.9-2.2,3.2c-0.1,0.1-0.3,0.1-0.2-0.1c0.3-1.3,1.2-2.5,2.3-3.3c-0.3-0.3-0.6-0.5-1-0.8c-0.4,0.6-0.8,1.2-1.2,1.9
					c-0.1,0.1-0.2,0-0.2-0.1c0.3-0.7,0.8-1.4,1.2-1.9c-0.3-0.2-0.5-0.4-0.8-0.6c-0.9,0.8-1.6,1.7-1.9,2.9c-0.1,0.2-0.3,0.1-0.3-0.1
					c0.3-1.2,1.1-2.2,2-3c-0.3-0.3-0.7-0.5-1-0.8c-0.7,0.6-1.3,1.3-1.7,2.2c-0.1,0.1-0.3,0-0.2-0.1c0.4-0.8,1.1-1.6,1.8-2.2
					c-0.4-0.3-0.9-0.7-1.3-1c0,0,0,0-0.1-0.1C15.3,54.9,14.3,56.6,13.8,58.3z"/>
				<path fill="#3C3C3A" d="M24.8,81.1c-1.5,2.6-2.5,5.5-2.8,8.5c1.6,1,3.2,2.1,4.8,3.3c0.3-3.1,1.3-6,3.1-8.5c-1-0.7-2-1.3-3-2
					C26.1,81.9,25.4,81.5,24.8,81.1z"/>
				<path fill="#3C3C3A" d="M20.9,77.6c-0.1,0.1-0.1,0.2-0.2,0.3c1.3,0.8,2.6,1.7,3.8,2.5c1.6-2.6,3.8-4.9,6.4-6.6
					c-1.6-0.8-3.2-1.7-4.7-2.5C24.1,73.1,22.3,75.1,20.9,77.6z"/>
				<path fill="#3C3C3A" d="M16.7,53.2c0.1,0,0.1,0,0.2,0.1c2.1,1.7,4.2,3.3,6.3,5c1.4-1.9,3.1-3.6,4.8-5.2c0.5-0.5,1-0.9,1.5-1.4
					c-1.8-1.9-3.6-3.8-5.5-5.7c-2.4,2-4.8,4.1-6.8,6.5C17.1,52.7,16.9,52.9,16.7,53.2z"/>
				<path fill="#3C3C3A" d="M20.5,66.6C20.5,66.6,20.5,66.6,20.5,66.6c0.8,0.4,1.6,0.8,2.4,1.1c1.2,0.5,2.3,1,3.5,1.6
					c0.1-2.3,1-4.3,2.2-6.1c-1.8-1.4-3.6-2.8-5.4-4.2C21.7,61.2,20.6,63.7,20.5,66.6z"/>
				<path fill="#F4F4F4" d="M25,80.7c0.7,0.4,1.3,0.9,2,1.3c1,0.7,2,1.3,3.1,2c0.3-0.4,0.6-0.8,0.9-1.2c1.2-1.5,2.7-2.7,4.4-3.7
					c0.8-0.5,1.7-0.9,2.6-1.3c-0.4-0.2-0.7-0.4-1.1-0.6c-1,0.4-1.9,1-2.7,1.7c-0.1,0.1-0.2-0.1-0.1-0.1c0.8-0.7,1.7-1.2,2.7-1.6
					c-0.4-0.2-0.8-0.5-1.2-0.7c-1.5,0.9-2.7,1.9-4,3.1c-0.1,0.1-0.2,0-0.2-0.1c1.1-1.3,2.4-2.3,3.9-3.1c-0.4-0.2-0.7-0.4-1.1-0.6
					c0,0,0,0,0,0c0,0,0,0,0,0.1c-0.8,0.5-1.5,1-2.2,1.7c-0.1,0.1-0.2-0.1-0.1-0.2c0.7-0.7,1.4-1.2,2.2-1.7c-0.4-0.2-0.8-0.4-1.1-0.6
					c-1.2,0.7-2.1,1.5-3,2.6c-0.1,0.2-0.3,0-0.2-0.2c0.8-1,1.8-1.9,3-2.5c-0.4-0.2-0.8-0.5-1.3-0.7c-2.3,1.5-4.2,3.3-5.8,5.5
					C25.4,80,25.2,80.3,25,80.7z"/>
				<path fill="#F4F4F4" d="M28.8,90.9c-0.1,0.2-0.3,0.1-0.3-0.1c0.4-1.2,1-2.5,1.9-3.6L29.9,87c-0.1,0.1-0.2,0-0.2-0.1
					c0.2-0.7,0.6-1.4,1.1-1.8c0,0,0,0,0,0c-0.2-0.1-0.4-0.3-0.7-0.4c-1.7,2.6-2.8,5.5-3,8.6c1.8,1.3,3.5,2.8,5.1,4.3
					c-0.1-0.1-0.1-0.1-0.1-0.3c0.5-3.2,1.9-6.3,3.9-8.8c-0.3-0.2-0.5-0.3-0.8-0.5c-0.8,0.8-1.4,1.8-1.7,3c0,0.1-0.2,0.1-0.2-0.1
					c0.2-1.2,0.9-2.2,1.8-3.1c-0.3-0.2-0.6-0.4-0.8-0.5c-1.5,1.4-2.4,2.9-2.5,5c0,0.1-0.2,0.2-0.2,0c0-1.9,1-4,2.6-5
					c-0.4-0.2-0.7-0.5-1.1-0.7c-0.7,0.8-1.3,1.8-1.7,2.8c-0.1,0.1-0.3,0.1-0.2-0.1c0.4-1.1,1-2,1.8-2.9c-0.3-0.2-0.7-0.4-1-0.7
					c0,0,0,0,0,0C30.6,87.4,29.6,88.9,28.8,90.9z"/>
				<path fill="#1D1D1B" d="M28.5,90.8c-0.1,0.2,0.2,0.2,0.3,0.1c0.8-2,1.8-3.5,3.2-5.1l-0.1-0.1c-0.5,0.4-1,0.9-1.5,1.5
					C29.5,88.3,28.9,89.6,28.5,90.8z"/>
				<path fill="#3C3C3A" d="M23.5,68.5c-0.2,0.2-0.5,0.3-0.7,0.5c1.1,0.6,2.2,1.2,3.4,1.7c0.3-0.2,0.6-0.4,0.9-0.6
					C25.9,69.6,24.7,69,23.5,68.5z"/>
				<path fill="#F4F4F4" d="M29.9,87l0.5,0.2c0.4-0.6,0.9-1.1,1.5-1.5c-0.3-0.2-0.6-0.4-0.8-0.6c0,0,0,0,0,0.1
					C30.5,85.7,30.1,86.3,29.9,87C29.9,87,29.9,87,29.9,87z"/>
				<path fill="#F4F4F4" d="M27.5,70.3c-0.3,0.2-0.6,0.5-0.9,0.7c1.6,0.8,3.2,1.7,4.8,2.6c0.5-0.3,1-0.6,1.6-0.8
					c-0.7-0.3-1.3-0.6-2-0.9C29.8,71.3,28.6,70.8,27.5,70.3z"/>
				<path fill="#F4F4F4" d="M26.9,69.5l3.3,1.5c1.1,0.5,2.3,1,3.5,1.5c0,0,0.1,0,0.1,0c0.1,0,0.2,0.1,0.2,0.2c0.6,0.3,1.3,0.6,2,0.8
					c-0.2-1.5,0.1-3,0.6-4.3c-0.3-0.2-0.5-0.4-0.8-0.6c-0.3,0.5-0.5,1-0.7,1.6c0,0.1-0.2,0.1-0.2-0.1c0.1-0.6,0.4-1.1,0.8-1.6
					c-0.3-0.2-0.6-0.4-0.9-0.7c-0.2,0.5-0.4,1-0.6,1.5c0,0.1-0.3,0.1-0.2-0.1c0.1-0.5,0.4-1.1,0.7-1.6c-0.3-0.2-0.6-0.5-0.9-0.7
					c-0.7,1-1,2.1-1.3,3.3c0,0.2-0.3,0.1-0.2-0.1c0.2-1.2,0.7-2.3,1.4-3.3c-0.3-0.2-0.5-0.4-0.8-0.6c-0.4,0.6-0.7,1.1-0.9,1.8
					c-0.1,0.2-0.3,0.1-0.2-0.1c0.2-0.7,0.5-1.3,1-1.8c-0.2-0.2-0.5-0.4-0.7-0.6c-1,1.1-1.6,2.2-2,3.6c0,0.1-0.3,0.1-0.2-0.1
					c0.3-1.3,1.1-2.7,2.1-3.6c-0.4-0.3-0.7-0.6-1.1-0.8c0,0,0,0-0.1,0c-0.6,0.6-0.9,1.3-1.4,2c-0.1,0.1-0.3,0-0.2-0.1
					c0.3-0.8,0.8-1.5,1.4-2.1c-0.4-0.3-0.9-0.7-1.3-1C27.8,65.2,27,67.2,26.9,69.5C26.9,69.4,26.9,69.5,26.9,69.5z"/>
				<path fill="#3C3C3A" d="M36.6,78.9c0.6-0.3,1.3-0.6,1.9-0.9c2.3,1.3,4.7,2.7,7,3.9c-0.2,0.1-0.4,0.2-0.6,0.3
					c-2.1,1.1-4.2,2.1-6.1,3.6c-0.9,0.7-1.7,1.5-2.4,2.4c-0.2-0.2-0.5-0.3-0.7-0.5c0-0.1-0.1-0.2-0.2-0.1c-1.6-1.2-3.3-2.3-5-3.4
					c0.4-0.6,0.9-1.2,1.4-1.7C33.2,81,34.8,79.8,36.6,78.9z M41.1,82.8l0.2,0.3c-0.1,0.1,0,0.3,0.1,0.2c0.9-0.2,1.7-0.8,2.4-1.5
					c0.1-0.1-0.1-0.3-0.2-0.2c-0.4,0.3-0.7,0.6-1.1,0.8L42.3,82c0.1-0.1,0.3-0.2,0.4-0.2c0.1-0.1,0-0.2-0.1-0.2
					c-0.7,0.4-1.3,0.7-1.9,1.2c-0.1,0.1,0,0.3,0.2,0.2C40.9,83,41,82.9,41.1,82.8z"/>
				<path fill="#F4F4F4" d="M23.6,58.5c1.8,1.4,3.6,2.8,5.3,4.2c1.3-1.8,3.1-3.4,4.8-4.9c0.3-0.2,0.6-0.5,0.9-0.7
					c-0.2-0.3-0.5-0.5-0.7-0.8c-0.9,0.8-1.7,1.5-2.6,2.2c-0.1,0.1-0.3-0.1-0.2-0.2c0.9-0.8,1.8-1.5,2.7-2.2
					c-0.2-0.2-0.4-0.4-0.6-0.7c-0.6,0.6-1.2,1.1-1.8,1.6c-0.1,0.1-0.2-0.1-0.1-0.2c0.6-0.5,1.2-1,1.8-1.5c-0.2-0.3-0.5-0.5-0.7-0.8
					c-0.9,0.8-1.6,1.6-2.4,2.5c-0.1,0.1-0.3-0.1-0.2-0.2c0.7-0.9,1.6-1.7,2.5-2.4c-0.2-0.2-0.4-0.5-0.6-0.7
					c-0.4,0.5-0.9,0.9-1.4,1.2C30.1,55.1,30,55,30,54.9c0.5-0.4,1-0.8,1.4-1.2c-0.2-0.2-0.4-0.5-0.6-0.7c-0.9,0.6-1.6,1.2-2.3,2
					c-0.1,0.1-0.3-0.1-0.2-0.2c0.6-0.8,1.4-1.5,2.3-2c-0.3-0.3-0.6-0.6-0.8-0.9c-0.4,0.3-0.8,0.7-1.1,1
					C26.9,54.6,25.1,56.5,23.6,58.5z"/>
				<path fill="#3C3C3A" d="M34.5,57.9c0.1-0.1,0.3-0.2,0.5-0.4c0.2,0.3,0.5,0.6,0.8,0.8c1.7,1.9,3.3,3.8,4.9,5.7
					c-0.2,0.1-0.3,0.3-0.5,0.4c-1.4,1.1-2.6,2.6-3.4,4.2c-0.6-0.4-1.2-0.9-1.8-1.3c0,0,0,0,0,0c-1.4-1.1-2.9-2.1-4.3-3.2
					c-0.4-0.3-0.9-0.7-1.3-1C30.7,61.1,32.6,59.4,34.5,57.9z M33.6,60.1c0.1-0.1,0-0.3-0.1-0.2c-0.6,0.3-1.1,0.7-1.6,1.2
					c-0.1,0.1,0.1,0.3,0.2,0.2C32.5,60.8,33,60.4,33.6,60.1z M33.6,60.7c0.2-0.1,0-0.3-0.1-0.2c-0.5,0.2-0.8,0.5-1.1,0.9
					c-0.1,0.2,0.2,0.3,0.3,0.2C32.9,61.2,33.2,61,33.6,60.7z"/>
				<path fill="#3C3C3A" d="M31.9,73.9c0.8,0.5,1.7,0.9,2.5,1.4c1.4,0.7,2.7,1.5,4.1,2.3c1-0.5,1.9-0.9,2.8-1.6
					c-2.7-0.8-5.3-1.8-7.8-2.9C32.9,73.3,32.4,73.6,31.9,73.9z"/>
				<path fill="#F4F4F4" d="M27.7,43.2c-1.1,0.8-2.2,1.6-3.3,2.5c1.8,1.9,3.7,3.8,5.5,5.7c2.3-1.9,4.7-3.7,7.3-5.2
					c-0.2-0.3-0.4-0.6-0.5-0.9c-0.8,0.4-1.6,0.8-2.4,1.2c-0.1,0.1-0.2-0.1-0.1-0.2c0.7-0.5,1.6-0.9,2.4-1.2
					c-0.2-0.4-0.4-0.7-0.6-1.1c-0.9,0.5-1.7,1-2.6,1.5c-0.1,0.1-0.2-0.1-0.1-0.2c0.8-0.5,1.7-1,2.6-1.4c-0.2-0.3-0.3-0.5-0.5-0.8
					c-0.7,0.4-1.3,0.8-2,1.3c-0.1,0.1-0.2-0.1-0.1-0.2c0.6-0.5,1.3-0.9,2-1.2c-0.1-0.2-0.3-0.5-0.4-0.7c-0.9,0.5-1.8,1-2.7,1.6
					c-0.1,0.1-0.3-0.1-0.1-0.2c0.9-0.6,1.8-1.1,2.8-1.5c-0.2-0.3-0.4-0.6-0.6-0.9c-0.5,0.3-1.1,0.7-1.6,0.9
					c-0.1,0.1-0.2-0.1-0.1-0.2c0.5-0.3,1.1-0.6,1.6-0.9c-0.1-0.2-0.3-0.5-0.4-0.7c-0.8,0.5-1.5,1-2.2,1.6c-0.1,0.1-0.3-0.1-0.2-0.2
					c0.7-0.6,1.5-1.2,2.3-1.6c-0.1-0.2-0.2-0.3-0.3-0.5C31.3,40.6,29.5,41.8,27.7,43.2z"/>
				<path fill="#1D1D1B" d="M31.9,61c-0.1,0.1,0.1,0.3,0.2,0.2c0.4-0.5,0.9-0.8,1.5-1.2c0.1-0.1,0-0.3-0.1-0.2
					C32.9,60.2,32.3,60.6,31.9,61z"/>
				<path fill="#1D1D1B" d="M32.4,61.5c-0.1,0.2,0.2,0.3,0.3,0.2c0.3-0.4,0.6-0.7,1-0.9c0.2-0.1,0-0.3-0.1-0.2
					C33,60.7,32.6,61,32.4,61.5z"/>
				<path fill="#3C3C3A" d="M36.3,73.5c0,0.1,0,0.1,0,0.1c2.6,1,5.2,1.9,7.9,2.5c-0.3-0.6-0.1-1.2,0.1-1.8c-2.6-1.5-5-3.1-7.5-4.9
					C36.3,70.7,36.1,72,36.3,73.5z"/>
				<path fill="#1D1D1B" d="M40.6,82.8c-0.1,0.1,0,0.3,0.2,0.2c0.1-0.1,0.2-0.2,0.3-0.2c0.4-0.3,0.7-0.5,1.1-0.8
					c0.1-0.1,0.3-0.2,0.4-0.2c0.1-0.1,0-0.2-0.1-0.2C41.9,82,41.2,82.4,40.6,82.8z"/>
				<path fill="#3C3C3A" d="M37.5,46.7c1.2,2,2.4,4,3.6,6c-0.3,0.2-0.7,0.4-1,0.6c-1.8,1.1-3.5,2.3-5.2,3.6
					c-1.6-1.7-3.2-3.5-4.8-5.2C32.5,49.8,35,48.2,37.5,46.7z M38.8,52.4c0.1-0.1,0-0.2-0.1-0.1c-0.3,0.2-0.6,0.5-0.9,0.7
					c-0.1,0.1,0,0.3,0.2,0.2C38.2,52.9,38.5,52.7,38.8,52.4z M39.4,52.9c0.1-0.1,0-0.2-0.1-0.2c-0.4,0.2-0.8,0.5-1.2,0.8
					c-0.1,0.1,0,0.3,0.1,0.2C38.6,53.5,39,53.2,39.4,52.9z"/>
				<path fill="#3C3C3A" d="M41.1,82.8l0.2,0.3c0.4-0.2,0.8-0.4,1.2-0.6L42.3,82C41.9,82.3,41.5,82.5,41.1,82.8z"/>
				<path fill="#1D1D1B" d="M41.3,83.1c-0.1,0.1,0,0.3,0.1,0.2c0.9-0.2,1.7-0.8,2.4-1.5c0.1-0.1-0.1-0.3-0.2-0.2
					c-0.4,0.3-0.7,0.6-1.1,0.8C42.2,82.7,41.8,82.9,41.3,83.1z"/>
				<path fill="#F4F4F4" d="M41.6,76c-0.7,0.8-1.6,1.3-2.6,1.8c2.3,1.3,4.6,2.6,6.8,4c2-1.2,4.4-3.2,3.6-5.5c0,0-0.1,0-0.1,0
					C49.1,76,48.8,76,48.6,76c0.3,0.8-0.1,1.8-0.9,2.3c-0.1,0.1-0.2-0.1-0.1-0.2c0.7-0.5,0.9-1.3,0.8-2.1c-0.3,0-0.7,0.2-1.1,0.3
					c-0.2,0.7-0.6,1.3-1.1,1.7c-0.1,0.1-0.2-0.1-0.1-0.1c0.5-0.4,0.8-0.9,1-1.4c-0.4,0.2-0.7,0.3-1,0.4c-0.3,0.1-0.5,0.1-0.8,0.1
					c-0.1,0.3-0.3,0.6-0.6,0.7c-0.1,0.1-0.2-0.1-0.1-0.2c0.2-0.1,0.4-0.3,0.5-0.6c-0.2,0-0.3-0.1-0.4-0.2c-0.3,0-0.5-0.1-0.8-0.1
					c-0.2,0.2-0.4,0.4-0.7,0.5c-0.1,0.1-0.2-0.1-0.1-0.1c0.2-0.1,0.4-0.3,0.6-0.4C43,76.3,42.3,76.2,41.6,76z"/>
				<path fill="#F4F4F4" d="M35.3,57.3c0.3,0.3,0.6,0.6,0.8,0.9c1.6,1.8,3.3,3.7,4.9,5.6c1.4-1,2.9-1.9,4.3-2.8
					c0.1-0.1,0.3-0.2,0.4-0.3c-0.2-0.3-0.3-0.6-0.5-0.9c-0.3,0.2-0.6,0.3-0.9,0.5c-0.3,0.2-0.7,0.4-1,0.6c-0.1,0.1-0.2-0.1-0.1-0.2
					c0.5-0.4,1.3-0.9,1.9-1.1c-0.2-0.3-0.3-0.6-0.5-0.8c-1,0.7-2.2,1.4-3.3,2c-0.1,0.1-0.2-0.1-0.1-0.2c1.1-0.7,2.2-1.3,3.3-1.9
					c-0.2-0.3-0.3-0.5-0.5-0.8c-0.7,0.4-1.3,0.8-1.9,1.2c-0.1,0.1-0.2-0.1-0.1-0.2c0.6-0.5,1.3-0.9,1.9-1.2
					c-0.1-0.2-0.3-0.5-0.4-0.7c-1,0.6-2.1,1.2-3.1,1.9c-0.1,0.1-0.2-0.1-0.1-0.2c1-0.7,2-1.3,3.1-1.8c-0.2-0.3-0.3-0.6-0.5-0.9
					c0,0,0,0,0,0c-0.6,0.3-1.2,0.7-1.8,1c-0.1,0.1-0.2-0.1-0.1-0.2c0.6-0.3,1.2-0.6,1.9-0.9c0,0,0,0,0,0c-0.2-0.3-0.4-0.7-0.6-1
					c-1,0.6-1.9,1.1-2.8,1.8c-0.2,0.1-0.3-0.1-0.1-0.3c0.9-0.6,1.8-1.2,2.8-1.7c-0.1-0.2-0.3-0.5-0.4-0.7c0,0,0,0,0-0.1
					c-0.6,0.4-1.2,0.7-1.7,1.1C40,55.2,39.9,55,40,54.9c0.5-0.4,1.1-0.9,1.8-1.1c-0.1-0.2-0.3-0.4-0.4-0.7c-0.2,0.1-0.5,0.3-0.7,0.4
					C38.8,54.7,37,55.9,35.3,57.3z"/>
				<path fill="#F4F4F4" d="M40.9,64.4c-1.5,1.2-3,2.7-3.8,4.5c2.4,1.7,4.9,3.4,7.4,5.1c0.3-0.5,0.6-1,0.8-1.3
					c0.4-0.6,0.9-1.1,1.4-1.5c-0.2-0.2-0.4-0.4-0.5-0.6c-0.4,0.3-0.7,0.7-1.1,1c-0.1,0.1-0.3-0.1-0.2-0.2c0.3-0.4,0.7-0.7,1.1-1
					c-0.3-0.3-0.6-0.7-0.9-1c-0.5,0.5-1,1.1-1.4,1.6c-0.1,0.1-0.3,0-0.2-0.2c0.4-0.6,0.9-1.2,1.5-1.7c-0.3-0.3-0.5-0.6-0.8-0.9
					c-0.7,0.7-1.5,1.5-2.2,2.2c-0.1,0.1-0.2,0-0.2-0.2c0.7-0.8,1.5-1.5,2.3-2.2c-0.3-0.3-0.5-0.6-0.8-1c-0.3,0.3-0.6,0.6-0.8,0.9
					c-0.1,0.1-0.3,0-0.2-0.1c0.2-0.4,0.5-0.7,0.9-1c-0.2-0.2-0.4-0.5-0.6-0.7c-0.4,0.3-0.7,0.7-1.1,1.1c-0.1,0.1-0.3,0-0.2-0.1
					c0.3-0.4,0.7-0.8,1.1-1.1c-0.3-0.3-0.5-0.6-0.8-0.9c-0.8,0.5-1.3,1.2-1.8,2.1c-0.1,0.1-0.2,0-0.2-0.1c0.3-0.9,1-1.7,1.8-2.2
					C41.3,64.9,41.1,64.6,40.9,64.4z"/>
				<path fill="#1D1D1B" d="M37.7,53c-0.1,0.1,0,0.3,0.2,0.2c0.3-0.3,0.6-0.5,0.9-0.7c0.1-0.1,0-0.2-0.1-0.1
					C38.3,52.5,38,52.7,37.7,53z"/>
				<path fill="#1D1D1B" d="M38.1,53.5c-0.1,0.1,0,0.3,0.1,0.2c0.4-0.2,0.8-0.5,1.2-0.8c0.1-0.1,0-0.2-0.1-0.2
					C38.9,53,38.4,53.2,38.1,53.5z"/>
				<path fill="#3C3C3A" d="M40.1,36.3c0.7,1.7,1.6,3.4,2.4,5.1c0.3,0.6,0.6,1.2,0.9,1.9c-2,0.8-4,1.7-5.9,2.8
					c-1.3-2.2-2.6-4.4-4-6.6C35.7,38.2,37.8,37.1,40.1,36.3z M41,42.9c0.1,0,0.1-0.3-0.1-0.2c-0.7,0.2-1.3,0.5-1.8,1
					c-0.1,0.1,0.1,0.3,0.2,0.2C39.9,43.4,40.4,43.1,41,42.9z M42,43.2c0.1,0,0-0.2-0.1-0.1c-0.7,0.3-1.4,0.6-2.1,0.9
					c-0.1,0.1,0,0.3,0.1,0.2C40.7,43.8,41.4,43.5,42,43.2z"/>
				<path fill="#F4F4F4" d="M44.6,74.8c-0.3,1.1,0.3,1.7,1.5,1.5c0.4-0.1,0.7-0.2,1.1-0.4c0.5-0.2,1.5-0.6,2-0.3c0,0,0.1,0,0.1,0
					c-0.5-1.5-1.8-2.6-3.2-3.1C45.5,73.2,44.9,74,44.6,74.8z"/>
				<path fill="#F4F4F4" d="M37.9,46.5c1.2,2,2.4,4,3.6,6c1.7-1,3.5-2,5.3-2.7c-0.1-0.3-0.3-0.5-0.4-0.8c-1,0.3-1.9,0.7-2.7,1.3
					c-0.1,0.1-0.2-0.1-0.1-0.2c0.8-0.6,1.8-1.1,2.7-1.3c-0.1-0.2-0.2-0.4-0.3-0.6c0-0.1-0.1-0.2-0.1-0.3c-0.2,0.1-0.4,0.1-0.6,0.2
					c-0.2,0.1-0.5,0.3-0.7,0.4c-0.1,0.1-0.2-0.1-0.1-0.2c0.3-0.3,0.8-0.5,1.3-0.6c-0.1-0.3-0.3-0.5-0.4-0.8
					c-0.7,0.4-1.5,0.7-2.2,1.1c-0.1,0.1-0.3-0.1-0.1-0.2c0.7-0.4,1.5-0.7,2.2-1c-0.1-0.3-0.3-0.6-0.4-0.9c-0.4,0.2-0.9,0.4-1.3,0.5
					c-0.1,0-0.2-0.2-0.1-0.2c0.4-0.2,0.8-0.3,1.3-0.5c-0.1-0.2-0.2-0.4-0.3-0.7c-0.9,0.3-1.8,0.7-2.5,1.3c-0.1,0.1-0.3-0.1-0.2-0.2
					c0.8-0.6,1.7-1,2.6-1.3c-0.2-0.5-0.5-0.9-0.7-1.4C41.7,44.4,39.7,45.4,37.9,46.5z"/>
				<path fill="#3C3C3A" d="M46,61c1.5,2.5,3,5.1,4.6,7.5C49.3,69.2,48,70,46.9,71c-0.2-0.2-0.3-0.5-0.5-0.7c0,0,0-0.1-0.1-0.1
					c-1.6-2.1-3.3-4.1-5-6.1C42.8,63,44.5,62.1,46,61C46,61,46,61,46,61z M48.9,67.9c0.1,0,0.1-0.3-0.1-0.2
					c-0.6,0.2-1.2,0.5-1.6,0.9c-0.1,0.1,0.1,0.3,0.2,0.2C47.8,68.3,48.3,68,48.9,67.9z M49.8,68.1c0.1,0,0-0.2-0.1-0.2
					c-0.6,0.2-1.2,0.5-1.6,0.9c-0.1,0.1,0.1,0.3,0.2,0.2C48.8,68.7,49.2,68.4,49.8,68.1z"/>
				<path fill="#1D1D1B" d="M39.1,27.8c1.9-0.3,3.8,0.8,4,2.8c0.1,1.1-0.3,1.9-1,2.6c0,0,0.1,0,0.1,0.1l-0.3,0.1
					c-0.6,0.5-1.4,0.9-2.2,1.1l-0.3,0.1c0,0,0,0,0,0c0,0,0,0-0.1-0.1c-1.7,0.5-3.4-0.7-3.6-2.4C35.5,29.9,37.1,28.1,39.1,27.8z
					 M39.7,34.1c1.3-0.6,2.7-1.1,3-2.7c0.3-1.9-1.2-3.3-3-3.2c-1.6,0.1-3.2,1.2-3.4,2.9C36,33,37.6,34.4,39.4,34
					C39.5,34,39.6,34,39.7,34.1z"/>
				<path fill="#1D1D1B" d="M39.2,43.6c-0.1,0.1,0.1,0.3,0.2,0.2c0.5-0.4,1-0.7,1.7-0.9c0.1,0,0.1-0.3-0.1-0.2
					C40.3,42.8,39.7,43.2,39.2,43.6z"/>
				<path fill="#3C3C3A" d="M47,50c1.4,2.7,2.8,5.4,4.2,8.1c-1.8,0.3-3.3,1.3-4.8,2.3c-1.3-2.2-2.7-4.4-4-6.6
					c-0.2-0.3-0.4-0.6-0.5-0.9C43.5,51.9,45.2,51,47,50z M47.7,57.5c0.1,0,0-0.1,0-0.1c-0.4,0.1-0.7,0.3-1,0.6
					c-0.1,0.1,0,0.2,0.1,0.1C47.1,57.8,47.4,57.7,47.7,57.5z M48.9,57.9c0.1,0,0.1-0.2,0-0.2c-0.6,0.2-1.2,0.5-1.8,0.9
					c-0.1,0.1,0,0.2,0.1,0.2C47.7,58.4,48.3,58.1,48.9,57.9z"/>
				<path fill="#707070" d="M39.6,28.2c1.8-0.1,3.4,1.4,3,3.2c-0.3,1.6-1.7,2.1-3,2.7c0-0.1-0.1-0.2-0.2-0.2c-1.8,0.4-3.4-1-3.2-2.8
					C36.4,29.5,37.9,28.3,39.6,28.2z M41.8,29.8c-0.1-0.2-0.4,0-0.3,0.1c0.2,0.5,0.2,1-0.1,1.4c-0.1,0.1,0.1,0.3,0.2,0.1
					C42,31.1,42,30.4,41.8,29.8z M42.2,30.6c0-0.1-0.2-0.1-0.2,0c0,0.5-0.1,1-0.5,1.4c-0.1,0.1,0.1,0.3,0.2,0.2
					C42.2,31.8,42.4,31.2,42.2,30.6z"/>
				<path fill="#1D1D1B" d="M39.9,43.9c-0.1,0.1,0,0.3,0.1,0.2c0.7-0.3,1.4-0.6,2-1c0.1,0,0-0.2-0.1-0.1
					C41.2,43.3,40.6,43.6,39.9,43.9z"/>
				<path fill="#1D1D1B" d="M47.2,68.6c-0.1,0.1,0.1,0.3,0.2,0.2c0.4-0.4,0.9-0.7,1.5-0.9c0.1,0,0.1-0.3-0.1-0.2
					C48.2,67.8,47.7,68.1,47.2,68.6z"/>
				<path fill="#1D1D1B" d="M48.1,68.8c-0.1,0.1,0.1,0.3,0.2,0.2c0.5-0.4,0.9-0.7,1.5-0.9c0.1,0,0-0.2-0.1-0.2
					C49.1,68.1,48.6,68.4,48.1,68.8z"/>
				<path fill="#707070" d="M42,33.4c1.5,3.4,3.2,6.8,4.9,10.2C52.7,55.4,58.7,67.3,65,78.9c0,0.1,0.1,0.1,0.2,0.1
					c0.5,1.4,1.2,2.7,1.8,4c0.7,1.5,1.4,2.9,2.2,4.4c1.5,3,3.1,6,4.8,8.9c0.1,0.1,0.1,0.1,0.2,0.1c-0.1,0.5-0.3,1-0.8,1.3
					c-0.6,0.3-1.3,0-1.7-0.4c0,0,0,0,0,0c-2.4-4.6-4.7-9.2-7.1-13.9c-3.3-6.5-6.6-13-9.9-19.5c0,0,0.1,0,0.1,0c0.1,0,0-0.2-0.1-0.1
					c0,0-0.1,0-0.1,0c-0.7-1.4-1.4-2.7-2.1-4.1c0,0,0-0.1-0.1-0.1c-0.1-0.2-0.2-0.4-0.3-0.6c-2.1-4.1-4.2-8.2-6.3-12.3
					c0,0,0-0.1-0.1-0.1c-1.8-3.5-3.6-7-5.3-10.6c0-0.1,0-0.2-0.1-0.2c-0.2-0.4-0.4-0.8-0.6-1.3c0,0,0,0,0,0
					C40.5,34.2,41.3,33.9,42,33.4C41.9,33.4,41.9,33.4,42,33.4z M41.9,38.2c0,0.1,0.2,0.1,0.2-0.1c-0.1-0.6-0.4-1.3-0.8-1.8
					c-0.1-0.1-0.3,0-0.2,0.1C41.4,37.1,41.7,37.6,41.9,38.2z M42,37c0.1,0.1,0.2,0,0.2-0.1c-0.2-0.4-0.3-0.8-0.5-1.2
					c-0.1-0.1-0.3,0-0.3,0.1C41.5,36.2,41.8,36.6,42,37z M72.4,95.6c0.1,0.1,0.2,0,0.2-0.1c-0.2-0.4-0.4-0.8-0.5-1.3
					c-0.1-0.2-0.3-0.1-0.3,0.1C71.9,94.7,72.1,95.2,72.4,95.6z M73.3,95.9c-0.3-0.5-0.5-1.1-0.7-1.6c-0.1-0.1-0.3,0-0.2,0.1
					c0.1,0.6,0.5,1.1,0.8,1.6C73.2,96.2,73.4,96,73.3,95.9z"/>
				<path fill="#1D1D1B" d="M41.3,36.4c-0.1-0.1-0.3,0-0.2,0.1c0.3,0.6,0.6,1.1,0.8,1.7c0,0.1,0.2,0.1,0.2-0.1
					C42,37.6,41.7,36.9,41.3,36.4z"/>
				<path fill="#1D1D1B" d="M46.7,58c-0.1,0.1,0,0.2,0.1,0.1c0.3-0.2,0.6-0.4,0.9-0.6c0.1,0,0-0.1,0-0.1C47.3,57.5,47,57.7,46.7,58z
					"/>
				<path fill="#1D1D1B" d="M47.1,58.5c-0.1,0.1,0,0.2,0.1,0.2c0.6-0.3,1.1-0.6,1.7-0.9c0.1,0,0.1-0.2,0-0.2
					C48.2,57.9,47.6,58.2,47.1,58.5z"/>
				<path fill="#1D1D1B" d="M41.6,35.7c-0.1-0.1-0.3,0-0.3,0.1c0.2,0.4,0.4,0.8,0.6,1.2c0.1,0.1,0.2,0,0.2-0.1
					C42,36.5,41.8,36,41.6,35.7z"/>
				<path fill="#F4F4F4" d="M46.5,60.8c1.5,2.5,3,5.1,4.4,7.7c1.5-0.7,3.1-1.2,4.6-1.7c-0.1-0.2-0.2-0.4-0.3-0.7
					c-0.9,0.2-1.7,0.6-2.6,1c-0.1,0-0.2-0.1-0.1-0.1c0.8-0.4,1.7-0.7,2.6-1c-0.1-0.3-0.3-0.6-0.4-0.8c-0.7,0.2-1.4,0.5-2.1,0.8
					c-0.1,0-0.2-0.1-0.1-0.2c0.7-0.3,1.4-0.6,2.1-0.7c-0.2-0.3-0.3-0.6-0.5-0.9c-0.9,0.4-1.8,0.8-2.7,1.1c-0.1,0-0.2-0.1-0.1-0.2
					c0.9-0.4,1.8-0.7,2.7-1.1c-0.2-0.3-0.3-0.6-0.5-0.9c-0.6,0.2-1.1,0.4-1.7,0.6c-0.1,0-0.2-0.1,0-0.2c0.6-0.2,1.1-0.4,1.7-0.6
					L53.1,62c0,0,0,0,0,0c-0.9,0.2-1.6,0.6-2.4,0.9c-0.1,0.1-0.2-0.1-0.1-0.2c0.7-0.5,1.6-0.7,2.4-0.9l-0.6-1.1
					c-0.5,0.2-1,0.4-1.5,0.6c-0.1,0-0.2-0.1-0.1-0.2c0.5-0.2,1-0.4,1.5-0.6l-0.4-0.8c-0.9,0.2-1.7,0.6-2.5,1.1
					c-0.1,0.1-0.2-0.1-0.1-0.2c0.8-0.5,1.7-0.8,2.6-1l-0.6-1.2C49.5,58.8,48,59.8,46.5,60.8z"/>
				<path fill="#1D1D1B" d="M41.4,31.4c-0.1,0.1,0.1,0.3,0.2,0.1c0.4-0.5,0.4-1.1,0.2-1.7c-0.1-0.2-0.4,0-0.3,0.1
					C41.6,30.5,41.6,30.9,41.4,31.4z"/>
				<path fill="#1D1D1B" d="M41.6,32c-0.1,0.1,0.1,0.3,0.2,0.2c0.4-0.4,0.6-1.1,0.5-1.7c0-0.1-0.2-0.1-0.2,0
					C42.1,31.1,41.9,31.6,41.6,32z"/>
				<path fill="#1D1D1B" d="M72,94.2c-0.1-0.2-0.3-0.1-0.3,0.1c0.1,0.5,0.3,0.9,0.6,1.3c0.1,0.1,0.2,0,0.2-0.1
					C72.3,95,72.2,94.6,72,94.2z"/>
				<path fill="#1D1D1B" d="M72.4,94.4c0.1,0.6,0.5,1.1,0.8,1.6c0.1,0.1,0.3,0,0.2-0.1c-0.3-0.5-0.5-1.1-0.7-1.6
					C72.6,94.2,72.4,94.3,72.4,94.4z"/>
			</g>
			<path opacity="0.32" fill="#1D1D1B" d="M16.6,78c0.4-1,0.6-2,1.2-2.9c0.5-0.8,1.1-1.5,1.9-2.1c1.8-1.5,3.9-2,6.2-1.9
				c0.4,0.1,0.8,0.2,1.2,0.3c2.4,0.8,4.8,1.7,7.1,2.6c2.4,0.9,4.9,1.7,7.3,2.7c0.5,0.2,1,0.4,1.5,0.6c0.6,0.4,1.1,0.9,1.5,1.5
				c1.4,1.8-0.1,3.5-1.6,4.6c-0.2,0.1-0.1,0.6,0.2,0.4c0.8-0.3,1.6-0.9,2.1-1.6c0.1,0.1,0.3,0.1,0.5,0c0.4-0.4,0.9-0.7,1.3-1
				c0,0,0,0,0,0c0.6-0.3,1.1-0.7,1.6-1.2c0.1-0.1,0.1-0.2,0.1-0.3c0.1,0,0.1-0.1,0.1-0.2c0,0,0,0,0,0c0.2-0.2,0.3-0.4,0.4-0.7
				c0,0,0.1,0,0.1,0c0.4-0.1,0.4-0.6,0.1-0.8c0.1-0.4,0.1-0.7,0.1-1.1c0.2-0.3,0.2-0.7,0-1c-0.1-0.1-0.2-0.2-0.3-0.2
				c-0.2-0.7-0.6-1.4-1.2-1.9c-0.4-0.3-0.9-0.7-1.4-0.9c0,0,0-0.1,0-0.1c0-0.5-0.6-0.5-0.8-0.1c0,0.1-0.1,0.1-0.1,0.2
				c-0.1,0-0.2,0.1-0.4,0.2c-0.9,0.6-1,2.2-0.9,3.2c0,0.2,0.1,0.3,0.2,0.3c0,0,0,0,0,0c-1.1-0.3-2.1-0.6-3.2-0.9
				c-2.6-0.7-5.2-1.6-7.7-2.8c-2.5-1.1-5-2.3-7.5-3.4c-0.6-0.2-1.2-0.5-1.8-0.6c0-0.2-0.2-0.5-0.5-0.4c-1.3,0.2-2.4,0.9-3.1,2.1
				c0,0,0,0.1,0,0.1c-0.5,0.2-1,0.5-1.4,0.9c-0.2,0.2,0,0.5,0.2,0.5c-0.2,0.1-0.3,0.2-0.5,0.3c-1.6,1.3-3.2,3.5-3.2,5.7
				C16.1,78.3,16.5,78.3,16.6,78z M26.5,70.5C26.6,70.5,26.6,70.4,26.5,70.5c0.2,0,0.4,0.1,0.5,0.2C26.9,70.6,26.7,70.5,26.5,70.5z"
				/>
			<path opacity="0.32" fill="#1D1D1B" d="M34.1,38.9c1.3,0,2.7-0.1,4,0.3c1.6,0.5,2.4,1.7,3.2,3c1.5,2.7,2.9,5.5,4.3,8.2
				c1.4,2.8,2.7,5.7,4.1,8.5c0.7,1.5,1.4,3,2,4.5c0.5,1.4,1.5,3.7-0.4,4.5c-0.2,0.1-0.1,0.5,0.2,0.4c0.5-0.1,0.9-0.3,1.1-0.6
				c0.1,0,0.2,0.1,0.3,0c0.1-0.1,0.3-0.1,0.4-0.2c0.3-0.1,0.7-0.2,1-0.4c0.2-0.1,0.3-0.1,0.5-0.2c0.1,0,0.1-0.1,0.2-0.2c0,0,0,0,0,0
				c0,0,0.1,0,0.1-0.1c0.3,0.2,0.7-0.1,0.5-0.5c-0.9-1.9-1.8-3.8-2.8-5.7c-0.1-0.2-0.3-0.2-0.4-0.2c-0.3-0.5-0.5-0.9-0.8-1.3
				c0.1-0.1,0.1-0.2,0-0.3c-0.6-2-1.8-3.7-2.8-5.5c-0.4-0.6-0.7-1.2-1.1-1.9c-0.3-0.5-0.6-1-0.9-1.5c-0.8-1.5-1.5-3-2.4-4.5
				c0.1-0.1,0.1-0.3,0-0.5c-0.4-0.7-0.8-1.4-1.2-2.1c-1.1-1.9-2-3.9-2.8-6c-0.3-0.7-0.6-1.1-1.4-0.9c-1.3,0.4-2.6,1.2-3.8,1.8
				c-0.2,0.1-0.2,0.2-0.2,0.4c-0.4,0-0.8,0.1-1.2,0.1C33.7,38.4,33.8,38.9,34.1,38.9z M52.8,62.8c0.1,0.1,0.1,0.3,0.2,0.4
				c0,0,0,0,0,0c-0.1-0.3-0.2-0.5-0.3-0.8c0,0,0,0,0,0C52.7,62.6,52.7,62.7,52.8,62.8z M40.9,40.2C40.9,40.2,40.9,40.2,40.9,40.2
				c0.1,0,0.1,0,0.2,0c0,0,0,0.1,0,0.1c0,0-0.1,0-0.1,0.1C41,40.3,40.9,40.3,40.9,40.2z"/>
			<path opacity="0.32" fill="#1D1D1B" d="M39.4,34.4c0.8-0.3,1.5-0.6,2.2-1.1c0.1-0.1,0.3-0.1,0.4,0c0,0,0.1,0.1,0.1,0.1l0,0
				c0,0,0,0.1,0,0.1c0.2,0,0.3,0.1,0.3,0.3c0,0,0,0.1,0,0.1c0,0,0,0,0,0c2.2,4,4.3,8.1,6.2,12.2c1.1,2.3,2.3,4.5,3.3,6.9
				c0,0,0,0,0,0c1,1.6,1.9,3.6,2.5,5.4c0,0.1,0,0.1-0.1,0.2c1,1.4,1.7,3,2.5,4.6c0.9,1.7,1.8,3.4,2.6,5.1c1.6,3.2,3.2,6.3,4.9,9.5
				c0.1,0,0.2,0,0.2,0.1c0.6,0.8,0.9,1.7,1.2,2.6c0,0,0,0.1,0,0.1c1.5,2.9,3,5.9,4.5,8.8c0.7,1.4,1.5,2.9,2.2,4.3
				c0.1-0.2,0.3-0.3,0.4-0.1c0.6,0.5,1.1,1.6,1.2,2.4c0,0.4-0.1,0.8-0.4,1c0,0.3-0.1,0.7-0.3,1c-0.1,0.2-0.5,0.1-0.4-0.2
				c0.6-1.5-1-3.6-1.7-5c-0.8-1.6-1.6-3.2-2.5-4.8c-1.7-3.3-3.4-6.7-5.2-10c-1.7-3.3-3.4-6.6-5.1-9.9c-1.7-3.2-3.1-6.7-5.2-9.7
				c-0.1-0.2-0.1-0.3,0-0.4c-1-1.8-1.8-3.7-2.7-5.6c-1-2-1.9-4.1-2.9-6.1c-1.9-3.9-3.9-7.8-6-11.7c-0.4,0.5-1.1,0.9-1.7,0.8
				c-0.2,0-0.4-0.3-0.3-0.5c0,0-0.1,0-0.1,0C39.3,35.2,38.9,34.6,39.4,34.4z"/>
			<path opacity="0.5" fill="#FFFFFF" d="M14.9,58.4c-0.1-0.5,0.8-0.5,0.9,0c0.3,2.5,2.6,4,4.6,5.1c2.2,1.2,4.5,2.3,6.8,3.4
				c2.4,1.1,4.7,2.1,7.1,3.1c2.3,1,4.8,1.8,7.1,2.8c0.3,0.1,0.1,0.5-0.2,0.4c-2.8-0.7-5.5-1.8-8.1-2.9c-2.5-1-5-2.1-7.5-3.3
				c-2.4-1.1-4.9-2.2-7.1-3.7C16.7,62.2,15.2,60.7,14.9,58.4z"/>
			<path opacity="0.5" fill="#FFFFFF" d="M16.7,83.9c1.3,2.6,4,3.8,6.4,5c1.4,0.7,2.7,1.4,4.1,2.2c1.2,0.7,2.9,1.4,3.8,2.5
				c0.1,0.1,0,0.4-0.2,0.3c-0.7-0.2-1.3-0.6-2-1c-0.7-0.4-1.4-0.8-2.2-1.2c-1.5-0.8-3-1.6-4.6-2.4c-2.4-1.2-5-2.5-6.1-5
				C15.8,83.8,16.5,83.4,16.7,83.9z"/>
			<path opacity="0.5" fill="#FFFFFF" d="M39.9,29.2c0.3,0.1,0.2,0.5-0.1,0.5c-0.7,0-1.4,0.2-1.8,0.8c-0.4,0.6-0.3,1.1-0.1,1.7
				c0.1,0.4-0.4,0.6-0.6,0.2C36.4,30.8,38.1,28.7,39.9,29.2z"/>
			<path opacity="0.5" fill="#FFFFFF" d="M69.4,92.7c0.8,1.4,1.6,2.8,2.5,4.1c0.1,0.1-0.1,0.3-0.2,0.2c-1-1.3-2-2.6-2.7-4.1
				C68.9,92.6,69.2,92.5,69.4,92.7z"/>
		</g>
	</g>
</g>
</svg>
