<?xml version="1.0" encoding="utf-8"?>
<!-- Generator: Adobe Illustrator 24.3.0, SVG Export Plug-In . SVG Version: 6.00 Build 0)  -->
<svg version="1.1" id="Layer_1" xmlns="http://www.w3.org/2000/svg" xmlns:xlink="http://www.w3.org/1999/xlink" x="0px" y="0px"
	 viewBox="0 0 126 126" enable-background="new 0 0 126 126" xml:space="preserve">
<g>
	<path fill="#A9B1BC" d="M88.8,101.7c10.7,0,22.6-5,22.6-11.3v9.7c0,6.2-11.9,11.3-22.6,11.3s-22.6-5-22.6-11.3v-9.7
		C66.2,96.7,78.1,101.7,88.8,101.7z"/>
	<path fill="#E5E8EC" d="M111.4,90.4c0,6.2-11.9,11.3-22.6,11.3s-22.6-5-22.6-11.3c0-6.2,11.9-11.3,22.6-11.3S111.4,84.2,111.4,90.4
		z"/>
	<path fill="#FFEAA6" d="M104.9,90.4c0-2.7-7.2-4.8-16.1-4.8s-16.1,2.2-16.1,4.8s7.2,4.8,16.1,4.8S104.9,93.1,104.9,90.4z"/>
	<path fill="#CBD0D8" d="M75.5,64.3l-4.3,5.4L60.1,58.5l5-4.7L75.5,64.3z"/>
	<path fill="#EF7F70" d="M71.2,69.6L66.9,75L55.1,63.2l5-4.7L71.2,69.6z"/>
	<path fill="#FFEAA6" d="M111.4,18.1v0.2c0,0.8-0.3,1.5-0.8,2.2L75.5,64.3L65.1,53.8l40.5-38.2c0.6-0.6,1.5-1,2.4-1
		C109.8,14.6,111.4,16.2,111.4,18.1z"/>
	<path fill="#FFEAA6" d="M66.9,75l-9.7,12.2C54.7,90.3,51,92,47.1,92H27.5c-3.6,0-6.8-1.5-9.1-3.8c-2.3-2.3-3.8-5.6-3.8-9.1
		c0-5.3,4.3-9.7,9.7-9.7h20.3c2.5,0,4.9-1,6.6-2.6l3.8-3.6L66.9,75z"/>
	<g>
		<path fill="#1E1713" d="M22.7,79.1c0-0.9,0.7-1.6,1.6-1.6h1.6v-3.2h-1.6c-2.7,0-4.8,2.2-4.8,4.8c0,4.4,3.6,8.1,8.1,8.1h9.7V84
			h-9.7C24.8,84,22.7,81.8,22.7,79.1z"/>
		<path fill="#1E1713" d="M40.4,84h3.2v3.2h-3.2V84z"/>
		<path fill="#1E1713" d="M107.9,13c-1.3,0-2.5,0.5-3.5,1.4L50.2,65.6c-1.5,1.4-3.5,2.2-5.5,2.2H24.3c-6.2,0-11.3,5.1-11.3,11.3
			c0,8,6.5,14.5,14.5,14.5h19.6c4.4,0,8.6-2,11.3-5.4l53.4-66.8c0.7-0.9,1.1-2,1.1-3.2v-0.2C113,15.3,110.7,13,107.9,13z M62.4,58.5
			L65,56l8.3,8.3l-2.3,2.8L62.4,58.5z M69.1,69.8l-2.3,2.8l-9.4-9.4l2.6-2.5L69.1,69.8z M55.9,86.2c-2.2,2.7-5.4,4.2-8.8,4.2H27.5
			c-6.2,0-11.3-5.1-11.3-11.3c0-4.4,3.6-8.1,8.1-8.1h20.3c2.9,0,5.6-1.1,7.8-3.1l2.7-2.5l9.7,9.7L55.9,86.2z M109.8,18.2
			c0,0.4-0.1,0.8-0.4,1.2l-34,42.4l-8-8l39.3-37.1c0.3-0.3,0.8-0.5,1.3-0.5c1,0,1.8,0.8,1.8,1.8V18.2z"/>
		<path fill="#1E1713" d="M88.8,84c-7.4,0-17.7,3.3-17.7,6.5c0,3.2,10.3,6.5,17.7,6.5c7.4,0,17.7-3.3,17.7-6.5
			C106.5,87.2,96.2,84,88.8,84z M88.8,93.6c-6,0-11.6-2-13.8-3.2c2.2-1.2,7.7-3.2,13.8-3.2s11.6,2,13.8,3.2
			C100.4,91.7,94.9,93.6,88.8,93.6z"/>
		<path fill="#1E1713" d="M88.8,77.5c-11.4,0-24.2,5.5-24.2,12.9v9.7c0,7.4,12.8,12.9,24.2,12.9s24.2-5.5,24.2-12.9v-9.7
			C113,83,100.2,77.5,88.8,77.5z M88.8,109.8c-10.4,0-21-4.9-21-9.7v-3.5c4.5,4.1,13.1,6.7,21,6.7s16.5-2.6,21-6.7v3.5
			C109.8,104.9,99.2,109.8,88.8,109.8z M88.8,100.1c-10.4,0-21-4.9-21-9.7c0-4.8,10.6-9.7,21-9.7s21,4.9,21,9.7
			C109.8,95.2,99.2,100.1,88.8,100.1z"/>
	</g>
</g>
</svg>
