<?xml version="1.0" encoding="utf-8"?>
<!-- Generator: Adobe Illustrator 24.3.0, SVG Export Plug-In . SVG Version: 6.00 Build 0)  -->
<svg version="1.1" id="Layer_1" xmlns="http://www.w3.org/2000/svg" xmlns:xlink="http://www.w3.org/1999/xlink" x="0px" y="0px"
	 viewBox="0 0 126 126" enable-background="new 0 0 126 126" xml:space="preserve">
<path fill="#FFFFFF" d="M19.1,77.3H26v4.8H13V63.7h6.1L19.1,77.3z M29.4,53.1c0-5.3,4.3-9.6,9.6-9.6c5.3,0,9.6,4.3,9.6,9.6
	s-4.3,9.6-9.6,9.6c0,0,0,0,0,0C33.7,62.7,29.4,58.4,29.4,53.1z M35.6,53.1c0,1.9,1.5,3.4,3.4,3.4c1.9,0,3.4-1.5,3.4-3.4
	c0-1.9-1.5-3.4-3.4-3.4C37.1,49.7,35.6,51.2,35.6,53.1L35.6,53.1z M69.8,56.2l3.8,6.1h6.8l-6.1-9.2l6.1-9.2h-6.8L69.8,50v-6.1h-6.1
	v18.4h6.1L69.8,56.2z M58.9,62.7c0.9,0,2.5-0.1,3.4-0.4v-7.1c-0.6,0.8-2.3,1.4-3.4,1.4c-1.9,0-3.4-1.5-3.4-3.4s1.5-3.4,3.4-3.4
	c1.1,0,2.8,0.5,3.4,1.4V44c-0.9-0.3-2.5-0.4-3.4-0.4c-5.3-0.1-9.7,4.1-9.8,9.3c-0.1,5.3,4.1,9.7,9.3,9.8
	C58.6,62.7,58.7,62.7,58.9,62.7L58.9,62.7z M19.1,62.3H13V43.9h9.6c3.4,0,6.1,2.4,6.1,5.8c0,2.6-1.4,4.9-3.7,5.4l4.7,7.3h-6.8
	l-3.8-6.1L19.1,62.3z M19.1,52.8h1.4c1.1,0,2-0.9,2-2c0-1.1-0.9-2-2-2h-1.4V52.8z M81,62.3h13v-4.8h-6.8v-2h5.5v-4.8h-5.5v-2H94
	v-4.8H81L81,62.3z M111.8,80.8l0.2,0.4h-0.5l-0.2-0.3c-0.1-0.2-0.2-0.4-0.3-0.4c-0.1-0.1-0.2-0.1-0.3-0.1h-0.1v0.8h-0.4v-2h0.4
	c0.4,0,0.6,0,0.6,0c0.1,0,0.2,0,0.3,0.1c0.1,0,0.1,0.1,0.2,0.2c0.1,0.1,0.1,0.2,0.1,0.3c0,0.1,0,0.3-0.1,0.4
	c-0.1,0.1-0.2,0.2-0.4,0.2c0.1,0,0.1,0,0.1,0.1c0.1,0,0.1,0.1,0.1,0.2C111.6,80.6,111.7,80.7,111.8,80.8L111.8,80.8z M111.4,80
	c0,0,0.1-0.1,0-0.2c0-0.1,0-0.1,0-0.1c0,0-0.1-0.1-0.1-0.1c-0.1,0-0.2,0-0.4,0h-0.2v0.5h0.2c0.2,0,0.4,0,0.4,0
	C111.3,80.1,111.4,80,111.4,80L111.4,80z M95.4,48.7h3.4v13.6h6.1V48.7h3.4v-4.8h-13V48.7z M87.9,74.3c0,1.1-1,2-2.1,2
	c-1.1,0-2-0.9-2-2V63.7h-6.1v10.6c0,4.5,3.7,8.2,8.3,8.1c4.5,0,8.1-3.7,8.1-8.1V63.7h-6.1L87.9,74.3z M67.6,75.6h2.8
	c-0.3,0.6-1,1.7-2.8,1.7c-2.1,0-3.8-1.8-3.8-4.1c0-2.5,1.9-4,3.8-4.1c2.1-0.1,2.9,0.7,3.5,1.3l4.2-4c-2-2-4.5-3.1-7.8-3.1
	c-5.3-0.1-9.7,4.1-9.8,9.3c-0.1,5.3,4.1,9.7,9.3,9.8c0.1,0,0.3,0,0.4,0c5.5,0,8.9-3.9,8.9-8.9v-2.4h-8.9V75.6z M95.4,82.1h13v-4.8
	h-6.8v-2h5.5v-4.8h-5.5v-2h6.8v-4.8h-13V82.1z M53.3,63.7l6.1,18.4h-6.1l-0.7-2.7h-4.8l-0.7,2.7H41l6.1-18.4H53.3z M51.4,74.6
	l-1.3-5.2l-1.3,5.2H51.4z M27.3,82.1h13v-4.8h-6.8v-2h5.5v-4.8h-5.5v-2h6.8v-4.8h-13L27.3,82.1z M113,80.2c0,0.3-0.1,0.6-0.2,0.9
	c-0.2,0.3-0.4,0.5-0.7,0.7c-0.6,0.3-1.3,0.3-1.9,0c-0.3-0.2-0.5-0.4-0.7-0.7c-0.3-0.6-0.3-1.3,0-1.9c0.2-0.3,0.4-0.5,0.7-0.7
	c0.6-0.3,1.3-0.3,1.8,0c0.3,0.2,0.5,0.4,0.7,0.7C112.9,79.6,113,79.9,113,80.2L113,80.2z M112.6,80.2c0-0.3-0.1-0.5-0.2-0.8
	c-0.1-0.2-0.3-0.4-0.6-0.6c-0.5-0.3-1-0.3-1.5,0c-0.2,0.1-0.4,0.3-0.6,0.6c-0.3,0.5-0.3,1,0,1.5c0.1,0.2,0.3,0.4,0.6,0.6
	c0.5,0.3,1,0.3,1.5,0c0.2-0.1,0.4-0.3,0.6-0.6C112.6,80.8,112.6,80.5,112.6,80.2L112.6,80.2z"/>
</svg>
