<?xml version="1.0" encoding="utf-8"?>
<!-- Generator: Adobe Illustrator 24.3.0, SVG Export Plug-In . SVG Version: 6.00 Build 0)  -->
<svg version="1.1" id="Layer_1" xmlns="http://www.w3.org/2000/svg" xmlns:xlink="http://www.w3.org/1999/xlink" x="0px" y="0px"
	 viewBox="0 0 126 126" enable-background="new 0 0 126 126" xml:space="preserve">
<g>
	<g id="design">
		<path fill="#045DA0" d="M60.7,13H20.8v49.2c0,0,4.4,38.8,39.9,50.8c35.5-12,39.9-50.8,39.9-50.8V13H60.7z"/>
		<rect x="23.7" y="15.9" fill="#15385D" width="73.8" height="12.7"/>
		
			<linearGradient id="SVGID_1_" gradientUnits="userSpaceOnUse" x1="33.9471" y1="100.9091" x2="33.9471" y2="111.0909" gradientTransform="matrix(1 0 0 -1 0 128)">
			<stop  offset="0" style="stop-color:#BBBDBE"/>
			<stop  offset="0.16" style="stop-color:#CFD0D1"/>
			<stop  offset="0.35" style="stop-color:#DFE0E1"/>
			<stop  offset="0.5" style="stop-color:#E6E7E7"/>
			<stop  offset="0.74" style="stop-color:#EEEFEF"/>
			<stop  offset="1" style="stop-color:#FFFFFF"/>
		</linearGradient>
		<polygon fill="url(#SVGID_1_)" points="33.9,17.4 35.1,21 38.9,21 35.8,23.2 37,26.8 33.9,24.6 30.9,26.8 32.1,23.2 29,21 
			32.8,21 		"/>
		
			<linearGradient id="SVGID_2_" gradientUnits="userSpaceOnUse" x1="47.3334" y1="100.9091" x2="47.3334" y2="111.0909" gradientTransform="matrix(1 0 0 -1 0 128)">
			<stop  offset="0" style="stop-color:#BBBDBE"/>
			<stop  offset="0.16" style="stop-color:#CFD0D1"/>
			<stop  offset="0.35" style="stop-color:#DFE0E1"/>
			<stop  offset="0.5" style="stop-color:#E6E7E7"/>
			<stop  offset="0.74" style="stop-color:#EEEFEF"/>
			<stop  offset="1" style="stop-color:#FFFFFF"/>
		</linearGradient>
		<polygon fill="url(#SVGID_2_)" points="47.3,17.4 48.5,21 52.3,21 49.2,23.2 50.4,26.8 47.3,24.6 44.3,26.8 45.4,23.2 42.4,21 
			46.2,21 		"/>
		
			<linearGradient id="SVGID_3_" gradientUnits="userSpaceOnUse" x1="60.7243" y1="100.9091" x2="60.7243" y2="111.0909" gradientTransform="matrix(1 0 0 -1 0 128)">
			<stop  offset="0" style="stop-color:#BBBDBE"/>
			<stop  offset="0.16" style="stop-color:#CFD0D1"/>
			<stop  offset="0.35" style="stop-color:#DFE0E1"/>
			<stop  offset="0.5" style="stop-color:#E6E7E7"/>
			<stop  offset="0.74" style="stop-color:#EEEFEF"/>
			<stop  offset="1" style="stop-color:#FFFFFF"/>
		</linearGradient>
		<polygon fill="url(#SVGID_3_)" points="60.7,17.4 61.9,21 65.7,21 62.6,23.2 63.8,26.8 60.7,24.6 57.7,26.8 58.8,23.2 55.8,21 
			59.6,21 		"/>
		
			<linearGradient id="SVGID_4_" gradientUnits="userSpaceOnUse" x1="74.1107" y1="100.9091" x2="74.1107" y2="111.0909" gradientTransform="matrix(1 0 0 -1 0 128)">
			<stop  offset="0" style="stop-color:#BBBDBE"/>
			<stop  offset="0.16" style="stop-color:#CFD0D1"/>
			<stop  offset="0.35" style="stop-color:#DFE0E1"/>
			<stop  offset="0.5" style="stop-color:#E6E7E7"/>
			<stop  offset="0.74" style="stop-color:#EEEFEF"/>
			<stop  offset="1" style="stop-color:#FFFFFF"/>
		</linearGradient>
		<polygon fill="url(#SVGID_4_)" points="74.1,17.4 75.3,21 79,21 76,23.2 77.2,26.8 74.1,24.6 71.1,26.8 72.2,23.2 69.2,21 
			72.9,21 		"/>
		
			<linearGradient id="SVGID_5_" gradientUnits="userSpaceOnUse" x1="87.5016" y1="100.9091" x2="87.5016" y2="111.0909" gradientTransform="matrix(1 0 0 -1 0 128)">
			<stop  offset="0" style="stop-color:#BBBDBE"/>
			<stop  offset="0.16" style="stop-color:#CFD0D1"/>
			<stop  offset="0.35" style="stop-color:#DFE0E1"/>
			<stop  offset="0.5" style="stop-color:#E6E7E7"/>
			<stop  offset="0.74" style="stop-color:#EEEFEF"/>
			<stop  offset="1" style="stop-color:#FFFFFF"/>
		</linearGradient>
		<polygon fill="url(#SVGID_5_)" points="87.5,17.4 88.7,21 92.4,21 89.4,23.2 90.6,26.8 87.5,24.6 84.5,26.8 85.6,23.2 82.6,21 
			86.3,21 		"/>
		<path fill="#FFFFFF" d="M62.6,108.1c-0.4-0.6-1.3-0.7-1.8-0.3c-0.6,0.4-0.7,1.3-0.3,1.8c0.4,0.6,1.3,0.7,1.8,0.3
			S63,108.7,62.6,108.1z"/>
		<path fill="#FFFFFF" d="M68.6,105.3c-0.4-0.5-1.1-0.6-1.6-0.3c-0.5,0.4-0.6,1.1-0.3,1.6c0.4,0.5,1.1,0.6,1.6,0.3c0,0,0,0,0,0
			C68.8,106.6,69,105.9,68.6,105.3z"/>
		<path fill="#FFFFFF" d="M74.6,101.6c-0.3-0.5-1-0.6-1.4-0.2s-0.6,1-0.2,1.4c0.3,0.5,1,0.6,1.4,0.2c0,0,0,0,0,0
			C74.8,102.7,74.9,102.1,74.6,101.6C74.6,101.6,74.6,101.6,74.6,101.6z"/>
		<path fill="#FFFFFF" d="M78.8,97.9c-0.3-0.4-0.8-0.5-1.3-0.2c-0.4,0.3-0.5,0.8-0.2,1.3s0.8,0.5,1.3,0.2c0,0,0,0,0,0
			C79,98.8,79.1,98.3,78.8,97.9z"/>
		<path fill="#FFFFFF" d="M83,93.3c-0.2-0.3-0.7-0.4-1-0.2c-0.3,0.2-0.4,0.7-0.2,1c0.2,0.3,0.7,0.4,1,0.2c0,0,0,0,0,0
			C83.2,94.1,83.2,93.6,83,93.3z"/>
		<path fill="#7D3D25" d="M80.9,91.1c26.5-17,37-47.8,30-58.8c-6.7-10.4-39.7-14.7-66.2,2.3S8.5,83.5,15,93.7
			C22,104.7,54.4,108,80.9,91.1z"/>
		
			<radialGradient id="SVGID_6_" cx="574.8999" cy="1815.8616" r="59.4818" gradientTransform="matrix(0.53 0.83 -1.62 1.04 2692.9099 -2323.47)" gradientUnits="userSpaceOnUse">
			<stop  offset="0" style="stop-color:#B76D48"/>
			<stop  offset="0.12" style="stop-color:#B16642"/>
			<stop  offset="0.31" style="stop-color:#9B5233"/>
			<stop  offset="0.53" style="stop-color:#7B3019"/>
			<stop  offset="0.71" style="stop-color:#5A150B"/>
			<stop  offset="0.78" style="stop-color:#601A0D"/>
			<stop  offset="0.89" style="stop-color:#73280F"/>
			<stop  offset="1" style="stop-color:#8D431E"/>
		</radialGradient>
		<path fill="url(#SVGID_6_)" d="M44.7,34.6C18.3,51.5,8.5,83.4,14.9,93.6c18.9-4.5,36.9-12.2,53.3-22.8
			C84.5,60.5,99,47.5,110.9,32.3c0,0,0,0,0-0.1C104.3,21.9,71.2,17.6,44.7,34.6z"/>
		<path fill="#CCE8F1" d="M44.7,34.6C18.3,51.5,8.5,83.4,14.9,93.6c18.9-4.5,36.9-12.2,53.3-22.8C84.5,60.5,99,47.5,110.9,32.3
			c0,0,0,0,0-0.1C104.3,21.9,71.2,17.6,44.7,34.6z"/>
		
			<radialGradient id="SVGID_7_" cx="-179.0821" cy="663.5368" r="68.7909" gradientTransform="matrix(0.8381 -0.527 -0.3407 -0.5418 431.1321 316.9429)" gradientUnits="userSpaceOnUse">
			<stop  offset="0" style="stop-color:#FFFFFF"/>
			<stop  offset="0.11" style="stop-color:#FAF8F8"/>
			<stop  offset="0.28" style="stop-color:#EDE4E2"/>
			<stop  offset="0.49" style="stop-color:#D7C4C1"/>
			<stop  offset="0.72" style="stop-color:#B99992"/>
			<stop  offset="0.97" style="stop-color:#926359"/>
			<stop  offset="1" style="stop-color:#8E5D52"/>
		</radialGradient>
		<path opacity="0.34" fill="url(#SVGID_7_)" enable-background="new    " d="M46.3,37.1c22.3-14.3,49.1-14,62-7.6
			c-10.3-8.2-39.6-10.3-63.6,5.1C20.9,49.8,10.5,77.3,13.5,90C13.3,75.7,24.1,51.3,46.3,37.1z"/>
		
			<radialGradient id="SVGID_8_" cx="-154.519" cy="657.3685" r="48.7909" gradientTransform="matrix(0.8381 -0.527 -0.2342 -0.3725 371.236 221.6712)" gradientUnits="userSpaceOnUse">
			<stop  offset="0" style="stop-color:#B76D48"/>
			<stop  offset="0.34" style="stop-color:#9B5232"/>
			<stop  offset="1" style="stop-color:#5A150B"/>
		</radialGradient>
		<path opacity="0.35" fill="url(#SVGID_8_)" enable-background="new    " d="M71.2,96.3c3.3-1.5,6.6-3.2,9.7-5.2
			c26.4-16.9,37-47.7,30-58.7l-0.3,0.4C113.4,53.2,98,79.1,71.2,96.3z"/>
		
			<radialGradient id="SVGID_9_" cx="-177.8551" cy="644.9291" r="51.8455" gradientTransform="matrix(0.8381 -0.527 -0.2342 -0.3725 375.816 228.9612)" gradientUnits="userSpaceOnUse">
			<stop  offset="0" style="stop-color:#B76D48"/>
			<stop  offset="0.34" style="stop-color:#9B5232"/>
			<stop  offset="1" style="stop-color:#5A150B"/>
		</radialGradient>
		<path opacity="0.28" fill="url(#SVGID_9_)" enable-background="new    " d="M79.4,88.6c-12.8,8.1-27.4,13-42.5,14.1
			c31.6,1.6,60.7-16.9,72.7-46.1C102.3,69.5,92,80.5,79.4,88.6z"/>
		<path fill="#563231" d="M36.8,45.1c0.7-0.5,1.1-1.2,0.8-1.6c-0.3-0.4-1.1-0.4-1.8,0.1s-1.1,1.2-0.8,1.6S36.1,45.5,36.8,45.1z"/>
		<path fill="#563231" d="M32.4,48.2c0.7-0.5,1.1-1.2,0.8-1.6s-1.1-0.4-1.8,0c-0.7,0.5-1.1,1.2-0.8,1.6S31.7,48.6,32.4,48.2z"/>
		<path fill="#563231" d="M41.4,42c0.7-0.5,1.1-1.2,0.8-1.6C41.8,40,41,40,40.3,40.5c-0.7,0.5-1.1,1.2-0.8,1.6
			C39.8,42.6,40.6,42.5,41.4,42z"/>
		<path fill="#563231" d="M45.8,39c0.7-0.5,1.1-1.2,0.7-1.6c-0.3-0.4-1.1-0.4-1.9,0.1c-0.7,0.5-1,1.2-0.7,1.6
			C44.3,39.5,45.1,39.5,45.8,39z"/>
		<path fill="#563231" d="M50.3,36.1c0.7-0.5,1-1.2,0.7-1.6c-0.3-0.4-1.1-0.4-1.8,0.1c-0.7,0.5-1.1,1.2-0.7,1.6
			C48.8,36.7,49.6,36.6,50.3,36.1z"/>
		<path fill="#563231" d="M55.1,33.1c0.7-0.5,1-1.2,0.7-1.6c-0.3-0.4-1.2-0.3-1.9,0.2c-0.7,0.5-1,1.2-0.7,1.6
			C53.5,33.7,54.4,33.6,55.1,33.1z"/>
		<path fill="#563231" d="M59.7,30.4c0.7-0.5,1-1.2,0.6-1.6c-0.3-0.4-1.2-0.3-1.9,0.2c-0.7,0.5-1,1.2-0.7,1.6
			C58.1,31,58.9,30.9,59.7,30.4z"/>
		<path fill="#A8C0C7" d="M30,48.4c-0.4,0.3-1.1-0.1-1.3-0.4l-0.1-0.3C28.5,47.2,39,37.4,44.5,33.9c4.8-3.1,16.2-7.5,16.2-7.5
			c0.2,0.3,0.5,1.2,0.1,1.4L60.5,28c-4.9,2.7-6.2,2.1-14.9,7.6C37,41,35.7,44,30.5,48L30,48.4z"/>
		<path fill="#15385D" d="M29.4,45.3c0.1,0.8,0.4,1.6,1,2.2c0.9,1.3,0.8,0.7,1.7,0.1c0.6-0.4,1.5-0.1,0.5-1.8c-0.4-0.6-0.7-1.3-1-2
			c-0.2-0.3-0.4,0.3-1.1,0.7C29.7,44.9,29.3,44.5,29.4,45.3z"/>
		<path fill="#15385D" d="M33.7,42c0.2,0.9,0.6,1.8,1.1,2.6c0.9,1.3,0.8,0.7,1.7,0.1c0.6-0.4,1.5-0.1,0.5-1.8
			c-0.4-0.8-0.8-1.5-1.2-2.3c-0.2-0.3-0.4,0.3-1.1,0.7S33.5,41.2,33.7,42z"/>
		<path fill="#15385D" d="M37.8,38.5c0.2,1.1,0.8,2.2,1.5,3.1c1,1.3,0.9,0.6,1.7,0.1c0.6-0.4,1.5-0.1,0.4-1.8
			c-1.1-1.7-1.4-2.5-1.6-2.8s-0.4,0.3-1.1,0.7C38.1,38.1,37.6,37.7,37.8,38.5z"/>
		<path fill="#15385D" d="M41.8,35.1c0.4,1.3,1.1,2.4,2,3.4c1,1.2,0.9,0.6,1.7,0c0.6-0.4,1.5-0.2,0.4-1.8c-0.6-1-1.2-2-1.7-3.1
			c-0.2-0.3-0.4,0.3-1.1,0.7C42.3,34.7,41.6,34.4,41.8,35.1z"/>
		<path fill="#15385D" d="M46.3,32.6c0.4,1.2,1,2.3,1.9,3.2c1,1.2,0.9,0.6,1.8,0c0.6-0.4,1.5-0.2,0.4-1.8c-0.6-0.9-1.1-1.8-1.5-2.8
			c-0.2-0.3-0.4,0.3-1.1,0.7C47.1,32.2,46.1,31.8,46.3,32.6z"/>
		<path fill="#15385D" d="M51,30.1c0.5,1.4,0.8,1.5,1.9,2.7c1.1,1.2,0.9,0.6,1.8,0c0.6-0.4,1.5-0.2,0.3-1.8
			c-0.6-0.7-1.1-1.5-1.6-2.3c-0.2-0.3-0.4,0.1-1.1,0.5C51.6,29.7,50.8,29.4,51,30.1z"/>
		<path fill="#15385D" d="M56.4,28.2c0.2,0.7,0.6,1.3,1.1,1.8c1.1,1.2,0.9,0.6,1.8,0c0.6-0.4,1.5-0.2,0.3-1.8
			c-0.4-0.5-0.8-1-1.2-1.6c-0.2-0.3-0.4,0.3-1.1,0.7C56.6,27.8,56.2,27.5,56.4,28.2z"/>
		
			<radialGradient id="SVGID_10_" cx="-179.1003" cy="646.8043" r="69.0091" gradientTransform="matrix(0.8381 -0.527 -0.3407 -0.5418 434.7921 322.7628)" gradientUnits="userSpaceOnUse">
			<stop  offset="0" style="stop-color:#FFFFFF"/>
			<stop  offset="0.15" style="stop-color:#FAF8F8"/>
			<stop  offset="0.36" style="stop-color:#EDE4E2"/>
			<stop  offset="0.63" style="stop-color:#D6C3C1"/>
			<stop  offset="0.92" style="stop-color:#B89993"/>
			<stop  offset="1" style="stop-color:#B08D86"/>
		</radialGradient>
		<path fill="url(#SVGID_10_)" d="M65.7,70.1C49.9,80.3,32.2,87.3,13.7,90.7c0.3,1,0.7,2,1.3,2.9c18.9-4.5,36.9-12.2,53.3-22.8
			C84.5,60.5,99,47.5,110.9,32.3c0,0,0,0,0-0.1c-0.9-1.3-2-2.4-3.2-3.3C96.7,45.4,82.4,59.4,65.7,70.1z"/>
	</g>
</g>
</svg>
