<?xml version="1.0" encoding="utf-8"?>
<!-- Generator: Adobe Illustrator 24.3.0, SVG Export Plug-In . SVG Version: 6.00 Build 0)  -->
<svg version="1.1" id="Layer_1" xmlns="http://www.w3.org/2000/svg" xmlns:xlink="http://www.w3.org/1999/xlink" x="0px" y="0px"
	 viewBox="0 0 126 126" enable-background="new 0 0 126 126" xml:space="preserve">
<g>
	<path fill="#8DA3AB" d="M24.1,105.5c-1.1-0.6-1.9-1.4-2.5-2.5c-1.9-2.9-3.2-6.2-3.8-9.6c0,0-3.7-14.2,3.6-33.5
		c0,0,4.9-13.4,20.7-29.9c0,0,18.6-18.9,44.7-17c0,0,13,2,17.6,8.3c0,0,11.1,10.3,3.1,41.4c0,0-6.1,20.7-26.8,36.9
		c0,0-18.3,11.8-33.9,13.2C46.7,112.9,29.6,114.4,24.1,105.5z"/>
	<path fill="#CCE8F1" d="M20.4,103c0.6,1.1,1.4,1.9,2.5,2.5c0.1,0.2,0.3,0.4,0.4,0.6c4.2-0.5,13.7-3.6,31.7-19.3
		c0,0,47.3-40.8,48-65.6c-4.7-6.1-17.4-8.1-17.4-8.1c-26.1-1.9-44.7,17-44.7,17C25.1,46.6,20.2,60,20.2,60
		c-7.3,19.3-3.6,33.5-3.6,33.5C17.2,96.9,18.5,100.1,20.4,103z"/>
	<path fill="#7D3D25" d="M103.7,35.9c-1.3,1.8-9.8,12.8-11,14.5c-1.2,1.6-10.3,13-11.5,14.5c-1.2,1.5-10.7,13-11.8,14.2
		c-1,1.2-7.5,8.7-8.7,10c-1.3,1.3-9.5,10.2-10.6,11.2c-1.1,1-6.6,6.3-7.6,7.1c0,0-2.8,2.8,1.6,3.6c0,0,3.8,0.7,11.6-0.1
		c8.3-2.7,16.2-6.4,23.7-11c20.7-16.2,26.8-36.9,26.8-36.9c4.1-15.9,3.2-26.4,1.3-32.8C106.5,31.6,104.6,34.6,103.7,35.9z"/>
	<path fill="#7D3D25" d="M22.9,88.9c0,0,1.5,7.9,7.6,5.4c5.7-2.4,11.2-5.2,16.4-8.4c6.3-3.9,12.4-8.3,18-13.2
		c5.5-4.7,10.6-9.8,15.3-15.3c0,0,10-12.1,14.3-23.2c0,0,3.9-9.7,2.1-15.7c0,0-0.1-2.4-5.9-3.9c-5.9-1.4-12-1.5-18-0.2
		c-6,1.2-11.7,3.4-17,6.3c-7,4.3-13.4,9.7-18.9,15.9c-7.2,8.7-12.2,19.1-14.3,30.2C22.5,66.8,20.3,78.8,22.9,88.9z"/>
	<path fill="#8DA3AB" d="M52.3,28.2c0,0,16-14.3,30.8-10.9c0,0,8.4,2.1,4,10.9c-2.6,5.6-6,10.8-10,15.5c0,0,9-7.9,13-16.6
		c0,0,3.9-7.1-1.6-10.4C88.6,16.6,72.9,9,52.3,28.2z"/>
	<path fill="#8DA3AB" d="M37.4,44.8c0,0-12.3,17.4-9,31.6c0,0,2.4,8.4,13.1,2.4c0,0,9.1-4.9,21.6-19c-4.2,6.3-9.2,12-14.8,17
		c0,0-13.3,13-19.8,8.1c0,0-3.9-2.5-3.1-12.8C25.4,72,26.1,59.1,37.4,44.8z"/>
	<path fill="#8DA3AB" d="M89.7,60.1c0,0-4.2,8.4-4.8,11.4c-3.5,1.8-6.7,3.9-9.7,6.4c0,0,5.8-4.5,8.7-2.8c0,0,2.5,1.2,0.8,5.9
		c-1.1,2.1-2.5,4-4.1,5.7c0,0,5.8-5.2,7.6-10.4c0,0,5.5-3.5,7.8-8.2c0,0-4.6,7.1-7.4,4.1C88.6,72.2,85.6,69.5,89.7,60.1z"/>
</g>
</svg>
