<?xml version="1.0" encoding="utf-8"?>
<!-- Generator: Adobe Illustrator 24.3.0, SVG Export Plug-In . SVG Version: 6.00 Build 0)  -->
<svg version="1.1" id="Layer_1" xmlns="http://www.w3.org/2000/svg" xmlns:xlink="http://www.w3.org/1999/xlink" x="0px" y="0px"
	 viewBox="0 0 126 126" enable-background="new 0 0 126 126" xml:space="preserve">
<g>
	<path fill="#E7ECF4" d="M107.1,47.1c-0.8,0-1.5-0.3-2.1-0.9L79.8,21c-0.8-0.8-1-1.9-0.7-2.9c0.3-1,1.1-1.8,2.2-2.1
		c8.5-1.9,16.2-2.7,21.1-3c2.9-0.2,5.7,0.9,7.8,2.9c2,2,3.1,4.9,2.9,7.8c-0.3,4.9-1.1,12.5-3,21.1c-0.2,1-1,1.9-2.1,2.2
		C107.7,47,107.4,47.1,107.1,47.1z"/>
	<path fill="#CCD0DF" d="M113,23.7c0.2-2.9-0.9-5.7-2.9-7.8L92.4,33.6L105,46.2c0.6,0.6,1.3,0.9,2.1,0.9c0.3,0,0.5,0,0.8-0.1
		c1-0.3,1.8-1.1,2.1-2.2C111.9,36.2,112.7,28.6,113,23.7z"/>
	<path fill="#E7ECF4" d="M23.1,113c-2.7,0-5.3-1.1-7.2-3c-2.1-2.1-3.1-4.9-2.9-7.8c0.3-4.9,1.1-12.5,3-21c0.2-1,1-1.9,2.1-2.2
		c1-0.3,2.1,0,2.9,0.7L46.2,105c0.8,0.8,1,1.9,0.7,2.9c-0.3,1-1.1,1.8-2.2,2.1c-8.5,1.9-16.1,2.7-21,3C23.6,113,23.3,113,23.1,113z"
		/>
	<path fill="#CCD0DF" d="M46.2,105L33.6,92.4L16,110c1.9,1.9,4.5,3,7.2,3c0.2,0,0.4,0,0.6,0c4.9-0.3,12.5-1.1,21-3
		c1-0.2,1.9-1,2.2-2.1C47.3,106.9,47,105.8,46.2,105z"/>
	<path fill="#F5A12C" d="M16,81.2c4.1-18,11.5-32.5,22.1-43.1c10.6-10.6,25.1-18,43.1-22.1L110,44.8c-4.1,18-11.5,32.5-22.1,43.1
		c-10.6,10.6-25.1,18-43.1,22.1L16,81.2z"/>
	<path fill="#D4521A" d="M95.6,30.4L30.4,95.6L44.8,110c18-4.1,32.5-11.6,43.1-22.1c10.6-10.6,18-25.1,22.1-43.1L95.6,30.4z"/>
	<path fill="#801811" d="M42,86.9c-0.8,0-1.5-0.3-2.1-0.9c-1.1-1.1-1.1-3,0-4.2l42-42c1.1-1.1,3-1.1,4.2,0c1.1,1.1,1.1,3,0,4.2
		l-42,42C43.5,86.6,42.8,86.9,42,86.9z"/>
	<g>
		<path fill="#D4521A" d="M53,87.5c-0.8,0-1.5-0.3-2.1-0.9L39.3,75.1c-1.1-1.1-1.1-3,0-4.2c1.1-1.1,3-1.1,4.2,0l11.6,11.6
			c1.1,1.1,1.1,3,0,4.2C54.5,87.2,53.8,87.5,53,87.5z"/>
		<path fill="#D4521A" d="M63.5,77c-0.8,0-1.5-0.3-2.1-0.9L49.9,64.6c-1.1-1.1-1.1-3,0-4.2s3-1.1,4.2,0L65.6,72c1.1,1.1,1.1,3,0,4.2
			C65,76.7,64.3,77,63.5,77z"/>
		<path fill="#D4521A" d="M74,66.5c-0.8,0-1.5-0.3-2.1-0.9L60.4,54c-1.1-1.1-1.1-3,0-4.2c1.1-1.1,3-1.1,4.2,0l11.6,11.6
			c1.1,1.1,1.1,3,0,4.2C75.5,66.2,74.8,66.5,74,66.5z"/>
		<path fill="#D4521A" d="M84.5,56c-0.8,0-1.5-0.3-2.1-0.9L70.9,43.5c-1.1-1.1-1.1-3,0-4.2c1.1-1.1,3-1.1,4.2,0l11.6,11.6
			c1.1,1.1,1.1,3,0,4.2C86.1,55.7,85.3,56,84.5,56z"/>
	</g>
	<path fill="#4C110B" d="M86.1,39.9L39.9,86.1c0.6,0.6,1.3,0.9,2.1,0.9c0.8,0,1.5-0.3,2.1-0.9l42-42C87.2,43,87.2,41.1,86.1,39.9z"
		/>
	<path fill="#801811" d="M55.1,82.5l-5.8-5.8l-4.2,4.2l5.8,5.8c0.6,0.6,1.3,0.9,2.1,0.9s1.5-0.3,2.1-0.9
		C56.2,85.5,56.2,83.6,55.1,82.5z"/>
	<path fill="#801811" d="M65.6,72l-5.8-5.8l-4.2,4.2l5.8,5.8c0.6,0.6,1.3,0.9,2.1,0.9c0.8,0,1.5-0.3,2.1-0.9
		C66.7,75,66.7,73.1,65.6,72z"/>
	<path fill="#801811" d="M76.1,61.5l-5.8-5.8l-4.2,4.2l5.8,5.8c0.6,0.6,1.3,0.9,2.1,0.9s1.5-0.3,2.1-0.9
		C77.3,64.5,77.3,62.6,76.1,61.5z"/>
	<path fill="#801811" d="M86.6,50.9l-5.8-5.8l-4.2,4.2l5.8,5.8c0.6,0.6,1.3,0.9,2.1,0.9c0.8,0,1.5-0.3,2.1-0.9
		C87.8,54,87.8,52.1,86.6,50.9z"/>
</g>
</svg>
