<?xml version="1.0" encoding="utf-8"?>
<!-- Generator: Adobe Illustrator 24.3.0, SVG Export Plug-In . SVG Version: 6.00 Build 0)  -->
<svg version="1.1" id="Layer_1" xmlns="http://www.w3.org/2000/svg" xmlns:xlink="http://www.w3.org/1999/xlink" x="0px" y="0px"
	 viewBox="0 0 126 126" enable-background="new 0 0 126 126" xml:space="preserve">
<g>
	<g>
		<path fill="#FBE29F" d="M102.8,32.8c-1.4-1.8-2.9-3.5-4.5-5.1c-5.5-5.5-12-9.5-19.1-11.9l-24.3,0v85.9l49-9.9
			c5.7-8.1,8.9-17.6,9.1-27.6L102.8,32.8z"/>
		<path fill="#FCCD73" d="M79.3,85.6L63,36.8l0-21.1H46.7C37,19,29,25.1,23.1,32.8L13,64c0.2,10,3.3,19.6,9,27.7l26.4,19.2
			c4.7,1.4,9.5,2.1,14.5,2.1c5,0,9.9-0.7,14.5-2.1l13.3-9.2L79.3,85.6z"/>
		<g>
			<path fill="#7EC5B0" d="M102.8,32.8C109.4,41.4,113,51.9,113,63c0,0.4,0,0.8,0,1.1l-10.1-8.8c-2.7-2.4-3.9-6.1-3.1-9.6
				L102.8,32.8z"/>
			<path fill="#7EC5B0" d="M103.9,91.8c-1.6,2.3-3.5,4.5-5.6,6.6c-5.9,5.9-13,10.2-20.8,12.5l5-12.1c1.4-3.4,4.6-5.7,8.3-6
				L103.9,91.8z"/>
		</g>
		<path fill="#3CB187" d="M22,91.7l13,1c3.7,0.3,6.9,2.6,8.3,6l5.1,12.2c-7.8-2.4-14.9-6.6-20.8-12.5C25.6,96.3,23.7,94,22,91.7
			L22,91.7z"/>
		<path fill="#3CB187" d="M13,64c0-0.3,0-0.7,0-1c0-11,3.6-21.6,10.1-30.2l3,12.8c0.8,3.5-0.4,7.2-3.1,9.6L13,64z"/>
		<g>
			<path fill="#7EC5B0" d="M85.7,50.8L67.4,38.2c-1.3-0.9-2.9-1.4-4.4-1.4v48.8h16.3c1.3-1,2.3-2.4,2.8-4l6.6-22.1
				C89.7,56.3,88.5,52.8,85.7,50.8z"/>
			<path fill="#3CB187" d="M77.3,82.7C68,69.7,63,54.2,63,38.2v-1.4c-1.6,0-3.1,0.5-4.4,1.4L40.3,50.8c-2.8,1.9-4,5.4-3,8.7
				l6.6,22.1c1,3.3,4,5.6,7.5,5.6h23.3c1.7,0,3.4-0.6,4.7-1.6L77.3,82.7z"/>
		</g>
	</g>
	<path fill="#7EC5B0" d="M46.7,15.7C51.9,13.9,57.4,13,63,13c5.6,0,11.1,0.9,16.3,2.7l-11.1,6.9c-3.1,1.9-7.1,1.9-10.3,0L46.7,15.7z
		"/>
	<g>
		<g>
			<g>
				<g>
					<ellipse fill="#FAD9DE" cx="48.4" cy="63" rx="4.5" ry="3.6"/>
				</g>
				<g>
					<ellipse fill="#FAD9DE" cx="77.6" cy="63" rx="4.5" ry="3.6"/>
				</g>
			</g>
		</g>
		<g>
			<g>
				<path fill="#313D40" d="M50.4,61.1c-0.8,0-1.5-0.7-1.5-1.5v-2.4c0-0.8,0.7-1.5,1.5-1.5s1.5,0.7,1.5,1.5v2.4
					C51.9,60.4,51.3,61.1,50.4,61.1z"/>
			</g>
			<g>
				<path fill="#313D40" d="M75.6,61.1c-0.8,0-1.5-0.7-1.5-1.5v-2.4c0-0.8,0.7-1.5,1.5-1.5s1.5,0.7,1.5,1.5v2.4
					C77.1,60.4,76.4,61.1,75.6,61.1z"/>
			</g>
			<g>
				<path fill="#313D40" d="M58.5,60.5c-0.5-0.6-0.5-1.6,0.1-2.1c0.6-0.5,1.6-0.5,2.1,0.1c1.2,1.3,3.2,1.3,4.3,0
					c0.5-0.6,1.5-0.7,2.1-0.1c0.6,0.5,0.7,1.5,0.1,2.1C65.1,63.2,60.9,63.2,58.5,60.5L58.5,60.5z"/>
			</g>
		</g>
	</g>
</g>
</svg>
