<?xml version="1.0" encoding="utf-8"?>
<!-- Generator: Adobe Illustrator 24.3.0, SVG Export Plug-In . SVG Version: 6.00 Build 0)  -->
<svg version="1.1" id="Layer_1" xmlns="http://www.w3.org/2000/svg" xmlns:xlink="http://www.w3.org/1999/xlink" x="0px" y="0px"
	 viewBox="0 0 126 126" enable-background="new 0 0 126 126" xml:space="preserve">
<g>
	<path fill="#34B7D5" d="M47.1,89.1c0,0,5.2-2.8,7.9-15.2c8-1.5,25-4.2,44.4-4c1.2,2.6,2.3,5.3,3.2,8.2L56.5,89.6L47.1,89.1z"/>
	<path fill="#7BCADE" d="M99.4,69.9c-19.4-0.2-36.4,2.5-44.4,4c0.8-3.6,1.4-8,1.6-13.3c1.1-29-9.5-46-9.5-46S82.4,31.7,99.4,69.9
		L99.4,69.9z"/>
	<path fill="#AFDCE2" d="M83.3,57.5c-0.5,0-1-0.2-1.3-0.7c-4.3-6.1-9.4-12-15.2-17.4c-0.6-0.6-0.7-1.6-0.1-2.2
		c0.6-0.6,1.6-0.7,2.2-0.1c5.9,5.6,11.2,11.6,15.6,17.9c0.5,0.7,0.3,1.7-0.4,2.2C83.9,57.4,83.6,57.5,83.3,57.5L83.3,57.5z"/>
	<circle fill="#AFDCE2" cx="63.6" cy="34.3" r="1.6"/>
	<path fill="#E94D56" d="M106,100.1c-1.3,3.6-3.6,7.6-7.9,10.5c-2.5,1.7-5.5,2.4-8.4,2.4h-49c-2.4,0-4.8-0.5-7-1.6
		c-8.1-4-11.9-10.5-13.6-15.7L106,100.1z"/>
	<path fill="#D83049" d="M102.8,104.2c-2.5,1.7-5.5,2.4-8.4,2.4H36c-2.4,0-4.8-0.5-7-1.6c-2.9-1.4-5.2-3.1-7-5
		c2.2,4.1,5.8,8.4,11.7,11.3c2.2,1.1,4.6,1.6,7,1.6h49c3,0,6-0.8,8.4-2.4c3.3-2.3,5.5-5.2,6.9-8.1
		C104.3,103.1,103.6,103.7,102.8,104.2L102.8,104.2z"/>
	<path fill="#ACACAC" d="M48.7,89.2V14.6c0-0.9-0.7-1.6-1.6-1.6s-1.6,0.7-1.6,1.6V89l1.6,0.1L48.7,89.2z"/>
	<path fill="#F29234" d="M56.5,89.6l-7.7-0.4l-1.6-0.1L45.5,89l-27-1.4c0,0,0,3.5,1.5,8.1l85.9,4.4c1.5-4.2,1.5-7.7,1.5-7.7
		L56.5,89.6z"/>
</g>
</svg>
