<?xml version="1.0" encoding="utf-8"?>
<!-- Generator: Adobe Illustrator 24.3.0, SVG Export Plug-In . SVG Version: 6.00 Build 0)  -->
<svg version="1.1" id="Layer_1" xmlns="http://www.w3.org/2000/svg" xmlns:xlink="http://www.w3.org/1999/xlink" x="0px" y="0px"
	 viewBox="0 0 126 126" enable-background="new 0 0 126 126" xml:space="preserve">
<g>
	<path fill="#F9DEB0" d="M57,58.9c-1.1-1.1-2.7-1.3-3.9-0.6l0,0L48.6,54c-1.3-1.3-3.4-1.3-4.7,0l-6.4,6.3v0
		c-0.7-0.2-1.4-0.4-2.1-0.4c-1.6,0-3.1,0.6-4.3,1.8l-6.3,6.2c-1.2,1.2-2,2.9-2,4.7v12.2l-10,10L29.6,113l11.7-11.6h5.6
		c1.8,0,3.5-0.7,4.7-1.9l17.4-17.3c1.3-1.3,1.3-3.4,0-4.7l-4.4-4.4h0c0.7-1.3,0.5-2.8-0.6-3.9l-4.4-4.4l0,0c0.7-1.3,0.5-2.8-0.6-3.9
		"/>
	<path fill="#F9DEB0" d="M69,67.1c1.1,1.1,2.7,1.3,3.9,0.6l0,0l4.4,4.4c1.3,1.3,3.4,1.3,4.7,0l6.4-6.3v0c0.7,0.2,1.4,0.4,2.1,0.4
		c1.6,0,3.1-0.6,4.3-1.8l6.3-6.2c1.2-1.2,2-2.9,2-4.7V41.2l10-10L96.4,13L84.7,24.6h-5.6c-1.8,0-3.5,0.7-4.7,1.9L57.1,43.8
		c-1.3,1.3-1.3,3.4,0,4.7l4.4,4.4h0c-0.7,1.3-0.5,2.8,0.6,3.9l4.4,4.4l0,0c-0.7,1.3-0.5,2.8,0.6,3.9"/>
	<path fill="#EEBD98" d="M56.5,83.5l1-1l7.6-7.6l-2.4-2.4l-7.6,7.6l-1,1c-0.6,0.7-1.7,0.7-2.4,0L51.6,81c0.8-0.4,1.5-0.9,2.2-1.5
		l2-2c0.7-0.7,0.7-1.7,0-2.4L53.6,73l6.5-6.5l-2.4-2.4l-6.5,6.5L47,66.3l6.5-6.5l-2.4-2.4L44.6,64l-3.7-3.7l-2.4,2.4l13.7,13.7
		l-0.8,0.8c-1.9,1.9-5.1,1.9-7.1,0l-7-7c-0.7-0.7-1.7-0.7-2.4,0c-0.3,0.3-0.5,0.8-0.5,1.2s0.2,0.9,0.5,1.2c4.9,4.9,4.9,12.8,0,17.6
		l2.4,2.4c3.6-3.6,5.1-8.5,4.5-13.1l0.1,0.1c1.6,1.6,3.7,2.4,5.8,2.4l1.6,1.6c0.9,0.9,2.1,1.4,3.3,1.4c0.1,1.2,0.5,2.4,1.4,3.3l2,2
		l2.4-2.4l-2-2C55.8,85.2,55.8,84.1,56.5,83.5L56.5,83.5z"/>
	<path fill="#EEBD98" d="M69.7,42.3l-1,1l-7.6,7.6l2.4,2.4l7.6-7.6l1-1c0.7-0.6,1.7-0.6,2.4,0l0.1,0.1c-0.8,0.4-1.5,0.9-2.2,1.5
		l-2,2c-0.7,0.7-0.7,1.7,0,2.4l2.2,2.2l-6.5,6.5l2.4,2.4l6.5-6.5l4.3,4.3l-6.5,6.5l2.4,2.4l6.5-6.5l3.7,3.7l2.4-2.4L73.9,49.4
		l0.8-0.8c1.9-1.9,5.1-1.9,7.1,0l7,7c0.7,0.7,1.7,0.7,2.4,0c0.3-0.3,0.5-0.8,0.5-1.2c0-0.4-0.2-0.9-0.5-1.2
		c-4.9-4.9-4.9-12.8,0-17.6l-2.4-2.4c-3.6,3.6-5.1,8.5-4.5,13.1l-0.1-0.1c-1.6-1.6-3.7-2.4-5.8-2.4l-1.6-1.6
		c-0.9-0.9-2.1-1.4-3.3-1.4c-0.1-1.2-0.5-2.4-1.4-3.3l-2-2L67.8,38l2,2C70.4,40.6,70.4,41.6,69.7,42.3L69.7,42.3z"/>
	<g>
		<path fill="#E37C6E" d="M25.1,27.5l2.4-2.4l16.7,16.7l-2.4,2.4L25.1,27.5z"/>
	</g>
	<g>
		<path fill="#E37C6E" d="M46.3,19.7h3.3v20h-3.3V19.7z"/>
	</g>
	<g>
		<path fill="#E37C6E" d="M19.6,46.3h20v3.3h-20V46.3z"/>
	</g>
	<g>
		<path fill="#E37C6E" d="M81.7,84.2l2.4-2.4l16.7,16.7l-2.4,2.4L81.7,84.2z"/>
	</g>
	<g>
		<path fill="#E37C6E" d="M86.3,76.3h20v3.3h-20V76.3z"/>
	</g>
	<g>
		<path fill="#E37C6E" d="M76.3,86.3h3.3v20h-3.3V86.3z"/>
	</g>
</g>
</svg>
