<?xml version="1.0" encoding="utf-8"?>
<!-- Generator: Adobe Illustrator 24.3.0, SVG Export Plug-In . SVG Version: 6.00 Build 0)  -->
<svg version="1.1" id="Layer_1" xmlns="http://www.w3.org/2000/svg" xmlns:xlink="http://www.w3.org/1999/xlink" x="0px" y="0px"
	 viewBox="0 0 126 126" enable-background="new 0 0 126 126" xml:space="preserve">
<g>
	<g>
		
			<linearGradient id="SVGID_1_" gradientUnits="userSpaceOnUse" x1="25.5" y1="147.9462" x2="25.5" y2="44.3117" gradientTransform="matrix(4 0 0 -4 -39 465)">
			<stop  offset="0" style="stop-color:#FDD386"/>
			<stop  offset="0.8238" style="stop-color:#F39939"/>
		</linearGradient>
		<circle fill="url(#SVGID_1_)" cx="63" cy="63" r="50"/>
		
			<linearGradient id="SVGID_2_" gradientUnits="userSpaceOnUse" x1="40.5248" y1="96.731" x2="36.123" y2="100.1919" gradientTransform="matrix(4 0 0 -4 -39 465)">
			<stop  offset="0" style="stop-color:#FFE786"/>
			<stop  offset="1" style="stop-color:#FCC86B"/>
		</linearGradient>
		<path fill="url(#SVGID_2_)" d="M109.1,43.6l-8.2,7.3L91.2,59c0,5.6-1.7,19.8,10.5,25c2.6,0,5.8-1.2,7.6-2.2
			C111.7,76,113,69.6,113,63C113,56.1,111.6,49.5,109.1,43.6z"/>
		<g>
			
				<linearGradient id="SVGID_3_" gradientUnits="userSpaceOnUse" x1="34.6192" y1="112.9364" x2="36.0305" y2="114.6838" gradientTransform="matrix(4 0 0 -4 -39 465)">
				<stop  offset="0" style="stop-color:#FFE786"/>
				<stop  offset="1" style="stop-color:#FCC86B"/>
			</linearGradient>
			<path fill="url(#SVGID_3_)" d="M109.4,44.4C102.2,26.5,84.9,13.7,64.6,13v20.1L109.4,44.4z"/>
			
				<linearGradient id="SVGID_4_" gradientUnits="userSpaceOnUse" x1="33.3833" y1="108.7768" x2="34.7742" y2="108.7768" gradientTransform="matrix(4 0 0 -4 -39 465)">
				<stop  offset="0" style="stop-color:#066D54"/>
				<stop  offset="1" style="stop-color:#2E7553"/>
			</linearGradient>
			<path fill="url(#SVGID_4_)" d="M100.1,35.6c0-3.7-0.5-5.9-0.7-6.8c-1.5-1.6-3.2-3.1-4.9-4.5c0.7,3.3,0.7,6.5,0.7,7.3L100.1,35.6z
				"/>
			
				<linearGradient id="SVGID_5_" gradientUnits="userSpaceOnUse" x1="11.1766" y1="104.5944" x2="14.2343" y2="99.7557" gradientTransform="matrix(4 0 0 -4 -39 465)">
				<stop  offset="0" style="stop-color:#FFE786"/>
				<stop  offset="1" style="stop-color:#FCC86B"/>
			</linearGradient>
			<path fill="url(#SVGID_5_)" d="M13.4,56.6C13.2,58.7,13,60.8,13,63c0,8,1.9,15.5,5.2,22.2l1.3-5.3l6.5-20.2
				C25.9,59.8,22.8,56.7,13.4,56.6z"/>
			
				<linearGradient id="SVGID_6_" gradientUnits="userSpaceOnUse" x1="13.0067" y1="99.1575" x2="15.4194" y2="99.1575" gradientTransform="matrix(4 0 0 -4 -39 465)">
				<stop  offset="0" style="stop-color:#066D54"/>
				<stop  offset="1" style="stop-color:#2E7553"/>
			</linearGradient>
			<path fill="url(#SVGID_6_)" d="M13.6,70.6l9.1,2.1V67l-9.7-3C13.1,66.3,13.2,68.4,13.6,70.6z"/>
			
				<linearGradient id="SVGID_7_" gradientUnits="userSpaceOnUse" x1="14.4112" y1="97.8902" x2="21.0645" y2="97.8902" gradientTransform="matrix(4 0 0 -4 -39 465)">
				<stop  offset="0" style="stop-color:#FFE786"/>
				<stop  offset="1" style="stop-color:#FCC86B"/>
			</linearGradient>
			<path fill="url(#SVGID_7_)" d="M45.3,67.8L26.7,47.7c-0.1,0-11.1,13.7-7.3,32.3c8,10,15.3,15.9,20.9,19.3
				c-0.8-3.9-1.5-11.6,0-19.3C41.3,75.6,42.8,71.4,45.3,67.8L45.3,67.8z"/>
			
				<linearGradient id="SVGID_8_" gradientUnits="userSpaceOnUse" x1="19.325" y1="93.5237" x2="25.6758" y2="97.2788" gradientTransform="matrix(4 0 0 -4 -39 465)">
				<stop  offset="0" style="stop-color:#FFE786"/>
				<stop  offset="1" style="stop-color:#FCC86B"/>
			</linearGradient>
			<path fill="url(#SVGID_8_)" d="M19.5,79.9c0,0-1,2.2-1.9,3.9c5.3,11.5,14.8,20.6,26.5,25.4c3.9-1.7,6.2-3.3,8.5-5.1
				C53.6,103.9,38.8,104.1,19.5,79.9L19.5,79.9z"/>
			
				<linearGradient id="SVGID_9_" gradientUnits="userSpaceOnUse" x1="20.5343" y1="87.6327" x2="24.8018" y2="89.2456" gradientTransform="matrix(4 0 0 -4 -39 465)">
				<stop  offset="0" style="stop-color:#FFE786"/>
				<stop  offset="1" style="stop-color:#FCC86B"/>
			</linearGradient>
			<path fill="url(#SVGID_9_)" d="M58.2,99.3c-4.7,4.1-14,7-18.3,8c6.9,3.6,14.8,5.7,23.2,5.7c7.7,0,15-1.7,21.5-4.9L58.2,99.3z"/>
			
				<linearGradient id="SVGID_10_" gradientUnits="userSpaceOnUse" x1="22.6786" y1="89.0294" x2="27.5161" y2="89.0294" gradientTransform="matrix(4 0 0 -4 -39 465)">
				<stop  offset="0" style="stop-color:#066D54"/>
				<stop  offset="1" style="stop-color:#2E7553"/>
			</linearGradient>
			<path fill="url(#SVGID_10_)" d="M64.6,104.9c-0.9,2.3-8.1,5.3-12.9,6.8c2.3,0.5,4.7,0.9,7.2,1.1c6.7-1.5,12.1-5.5,12.1-5.5
				L64.6,104.9z"/>
			
				<linearGradient id="SVGID_11_" gradientUnits="userSpaceOnUse" x1="15.9837" y1="91.4258" x2="16.398" y2="91.5292" gradientTransform="matrix(4 0 0 -4 -39 465)">
				<stop  offset="0" style="stop-color:#066D54"/>
				<stop  offset="1" style="stop-color:#2E7553"/>
			</linearGradient>
			<path fill="url(#SVGID_11_)" d="M32,93.1c-1.5,1.2-3.4,2.7-5.7,3.8c1.7,1.9,3.6,3.6,5.5,5.2c2.2-1.1,4.6-2.5,6.2-4.4
				C36.1,96.4,34.1,94.9,32,93.1z"/>
			
				<linearGradient id="SVGID_12_" gradientUnits="userSpaceOnUse" x1="34.869" y1="98.8821" x2="30.5343" y2="110.8276" gradientTransform="matrix(4 0 0 -4 -39 465)">
				<stop  offset="0" style="stop-color:#FFE786"/>
				<stop  offset="1" style="stop-color:#FCC86B"/>
			</linearGradient>
			<path fill="url(#SVGID_12_)" d="M107.5,40.2C103.1,36,95.2,29.8,84,26.7c-2.4,2.4-7.7,8.3-12.1,13.7c1.2,0.3,6.6,2.1,12.9,4.8
				c6.1,2.7,13.4,6.5,19.4,12.1c0,0,5.2-3.1,6.8-8.5C110.1,45.8,108.9,43,107.5,40.2L107.5,40.2z"/>
			<g>
				
					<linearGradient id="SVGID_13_" gradientUnits="userSpaceOnUse" x1="37.5429" y1="99.6011" x2="39.3137" y2="99.6201" gradientTransform="matrix(4 0 0 -4 -39 465)">
					<stop  offset="0" style="stop-color:#066D54"/>
					<stop  offset="1" style="stop-color:#2E7553"/>
				</linearGradient>
				<path fill="url(#SVGID_13_)" d="M104.1,64.6v5.6c3-0.1,6.7-0.6,8.5-1.2c0.2-2,0.4-4,0.4-6.1C109.8,63.8,105.6,64.6,104.1,64.6z"
					/>
				
					<linearGradient id="SVGID_14_" gradientUnits="userSpaceOnUse" x1="38" y1="100.5" x2="38" y2="100.5" gradientTransform="matrix(4 0 0 -4 -39 465)">
					<stop  offset="0" style="stop-color:#066D54"/>
					<stop  offset="1" style="stop-color:#2E7553"/>
				</linearGradient>
				<path fill="url(#SVGID_14_)" d="M113,63C113,63.1,113,62.9,113,63z"/>
			</g>
		</g>
		
			<linearGradient id="SVGID_15_" gradientUnits="userSpaceOnUse" x1="21.7978" y1="88.8313" x2="33.3905" y2="94.2918" gradientTransform="matrix(4 0 0 -4 -39 465)">
			<stop  offset="0" style="stop-color:#FFE786"/>
			<stop  offset="1" style="stop-color:#FCC86B"/>
		</linearGradient>
		<path fill="url(#SVGID_15_)" d="M79.9,85.6c-11.3,5.8-21.4,7.4-29,7.3v0v0c0.7,1.6,10.3,22.7,30.5,16.7c7.5-3,14.1-7.7,19.3-13.7
			C97.2,94.9,85.4,91.4,79.9,85.6L79.9,85.6z"/>
		
			<linearGradient id="SVGID_16_" gradientUnits="userSpaceOnUse" x1="26.3732" y1="91.5537" x2="32.321" y2="91.5537" gradientTransform="matrix(4 0 0 -4 -39 465)">
			<stop  offset="0" style="stop-color:#066D54"/>
			<stop  offset="1" style="stop-color:#2E7553"/>
		</linearGradient>
		<path fill="url(#SVGID_16_)" d="M72.8,88.8C72.8,88.7,72.8,88.7,72.8,88.8c-2.2,0.8-4.3,1.4-6.3,2c0,0,0,0.1,0,0.1
			c4.1,9.7,11.7,15.5,16.4,18.1c2.6-1.1,5-2.4,7.3-4C80.4,102.1,74.7,93.1,72.8,88.8z"/>
		
			<linearGradient id="SVGID_17_" gradientUnits="userSpaceOnUse" x1="15.082" y1="100.0983" x2="21.0296" y2="95.73" gradientTransform="matrix(4 0 0 -4 -39 465)">
			<stop  offset="0" style="stop-color:#FFE786"/>
			<stop  offset="1" style="stop-color:#FCC86B"/>
		</linearGradient>
		<path fill="url(#SVGID_17_)" d="M26.7,47.7c-0.1,0-11.1,13.7-7.3,32.3c8,10,15.3,15.9,20.9,19.3c-0.7-3.8-1.3-11.6,0-19.3
			c0.3-1.9,0.9-3.8,1.6-5.6c0.8-2.3,1.9-4.5,3.2-6.5L26.7,47.7z"/>
		
			<linearGradient id="SVGID_18_" gradientUnits="userSpaceOnUse" x1="15.9746" y1="97.6936" x2="19.4516" y2="97.6936" gradientTransform="matrix(4 0 0 -4 -39 465)">
			<stop  offset="0" style="stop-color:#066D54"/>
			<stop  offset="1" style="stop-color:#2E7553"/>
		</linearGradient>
		<path fill="url(#SVGID_18_)" d="M29.8,91.1c-0.2-7.1,0.3-23.5,9.1-29.7l-4-4c0,0-10.2,7.9-9.9,28.9C26.6,88,28.2,89.7,29.8,91.1z"
			/>
	</g>
	
		<linearGradient id="SVGID_19_" gradientUnits="userSpaceOnUse" x1="24.7889" y1="105.3116" x2="14.8354" y2="101.3152" gradientTransform="matrix(4 0 0 -4 -39 465)">
		<stop  offset="0" style="stop-color:#FFE786"/>
		<stop  offset="1" style="stop-color:#FCC86B"/>
	</linearGradient>
	<path fill="url(#SVGID_19_)" d="M54.9,37.2c-1.5-1.5-2.7-2.8-4-4c-1.4-1.3-3-2.4-4-3.2c-10.7,2.3-18.4,6-23.4,9.7
		c4.2,17.7,16.9,25.9,21.8,28.2c7.7-4,17.5-6.9,25.8-8.1C68.2,51.5,61.1,43.2,54.9,37.2z"/>
	
		<linearGradient id="SVGID_20_" gradientUnits="userSpaceOnUse" x1="22.0276" y1="104.5371" x2="18.8575" y2="103.2643" gradientTransform="matrix(4 0 0 -4 -39 465)">
		<stop  offset="0" style="stop-color:#066D54"/>
		<stop  offset="1" style="stop-color:#2E7553"/>
	</linearGradient>
	<path fill="url(#SVGID_20_)" d="M38,31.5l-5.6,1.6c5,14.1,14.9,28.2,19.4,33.1l5.6-2.4C47.2,52,40.4,37.9,38,31.5z"/>
	
		<linearGradient id="SVGID_21_" gradientUnits="userSpaceOnUse" x1="35.5212" y1="108.9151" x2="18.2833" y2="107.7558" gradientTransform="matrix(4 0 0 -4 -39 465)">
		<stop  offset="0" style="stop-color:#FFE786"/>
		<stop  offset="1" style="stop-color:#FCC86B"/>
	</linearGradient>
	<path fill="url(#SVGID_21_)" d="M44.5,35.6l19.4,15.3c0,0,3.6-5,8.1-10.5C76.3,35,81.6,29.1,84,26.7c0,0-1.2-2.6-4-5.6
		c-1.3-1.3-2.8-2.7-4.8-4c-2.6-1.7-6-3.1-10.3-4c-0.1,0-0.2,0-0.3,0C63.3,13.5,50.3,18.7,44.5,35.6z"/>
	
		<linearGradient id="SVGID_22_" gradientUnits="userSpaceOnUse" x1="33.3252" y1="109.9641" x2="20.4994" y2="109.1016" gradientTransform="matrix(4 0 0 -4 -39 465)">
		<stop  offset="0" style="stop-color:#066D54"/>
		<stop  offset="1" style="stop-color:#2E7553"/>
	</linearGradient>
	<path fill="url(#SVGID_22_)" d="M54.9,37.2c10.5-14.5,20.8-15.7,25-16.1c-1.3-1.3-2.8-2.7-4.8-4c-13.3,2.3-20.8,11.2-24.2,16.1
		C52.2,34.3,53.4,35.7,54.9,37.2z"/>
	
		<linearGradient id="SVGID_23_" gradientUnits="userSpaceOnUse" x1="24.7889" y1="105.3116" x2="14.8354" y2="101.3152" gradientTransform="matrix(4 0 0 -4 -39 465)">
		<stop  offset="0" style="stop-color:#FFE786"/>
		<stop  offset="1" style="stop-color:#FCC86B"/>
	</linearGradient>
	<path fill="url(#SVGID_23_)" d="M54.9,37.2c-1.5-1.5-2.7-2.8-4-4c-1.4-1.3-3-2.4-4-3.2c-10.7,2.3-18.4,6-23.4,9.7
		c4.2,17.7,16.9,25.9,21.8,28.2c7.7-4,17.5-6.9,25.8-8.1C68.2,51.5,61.1,43.2,54.9,37.2z"/>
	
		<linearGradient id="SVGID_24_" gradientUnits="userSpaceOnUse" x1="22.0276" y1="104.5371" x2="18.8575" y2="103.2643" gradientTransform="matrix(4 0 0 -4 -39 465)">
		<stop  offset="0" style="stop-color:#066D54"/>
		<stop  offset="1" style="stop-color:#2E7553"/>
	</linearGradient>
	<path fill="url(#SVGID_24_)" d="M38,31.5l-5.6,1.6c5,14.1,14.9,28.2,19.4,33.1l5.6-2.4C47.2,52,40.4,37.9,38,31.5z"/>
	
		<linearGradient id="SVGID_25_" gradientUnits="userSpaceOnUse" x1="16.7075" y1="110.9454" x2="21.463" y2="104.1375" gradientTransform="matrix(4 0 0 -4 -39 465)">
		<stop  offset="0" style="stop-color:#FFE786"/>
		<stop  offset="1" style="stop-color:#FCC86B"/>
	</linearGradient>
	<path fill="url(#SVGID_25_)" d="M46.9,29.9c2.8-5.5,6.4-9.3,9.6-11.9c-2.5-1-6.1-1.7-10.3-2c0,0,0,0,0,0
		c-14.5,5.2-25.9,17-30.7,31.7c0,0,0,0,0,0C17.8,43.9,25.9,34.5,46.9,29.9C46.9,29.9,46.9,29.9,46.9,29.9z"/>
	
		<linearGradient id="SVGID_26_" gradientUnits="userSpaceOnUse" x1="16.3454" y1="109.895" x2="22.6774" y2="109.895" gradientTransform="matrix(4 0 0 -4 -39 465)">
		<stop  offset="0" style="stop-color:#066D54"/>
		<stop  offset="1" style="stop-color:#2E7553"/>
	</linearGradient>
	<path fill="url(#SVGID_26_)" d="M51.7,22.7C51.7,22.7,51.7,22.7,51.7,22.7c-4.3-0.9-10.8-1.5-19.3,0.8c-2.2,1.7-4.2,3.5-6,5.5
		c4.1-1.8,13.5-4.1,22.6-2.6C49.9,25,50.8,23.8,51.7,22.7L51.7,22.7z"/>
	
		<linearGradient id="SVGID_27_" gradientUnits="userSpaceOnUse" x1="35.2202" y1="99.855" x2="31.4262" y2="110.3103" gradientTransform="matrix(4 0 0 -4 -39 465)">
		<stop  offset="0" style="stop-color:#066D54"/>
		<stop  offset="1" style="stop-color:#2E7553"/>
	</linearGradient>
	<path fill="url(#SVGID_27_)" d="M80.1,30.8c-1.1,1.3-2.4,2.7-3.7,4.1c15.9,4.7,27.6,14.4,31.6,18.9c0.9-1.1,1.8-2.4,2.4-3.9
		C102.4,38.8,86.6,32.7,80.1,30.8L80.1,30.8z"/>
	
		<linearGradient id="SVGID_28_" gradientUnits="userSpaceOnUse" x1="22.2958" y1="100.1928" x2="27.2353" y2="95.8916" gradientTransform="matrix(4 0 0 -4 -39 465)">
		<stop  offset="0" style="stop-color:#FFE786"/>
		<stop  offset="1" style="stop-color:#FCC86B"/>
	</linearGradient>
	<path fill="url(#SVGID_28_)" d="M71.1,59.8c-8.4,1.2-18.1,4-25.8,8.1c-1.4,2-2.4,4.1-3.2,6.5c-0.7,1.8-1.3,3.7-1.6,5.6
		c-0.7,3.9-0.9,7.9-0.8,11.3c5.7,1.8,21.5,4.1,40.3-5.7c0,0,0,0,0,0c2.6-4.4,3.4-9.9,4-16.9c0.3-3.4,0.7-7.1,0.8-10.5
		C82.8,58.3,77.4,58.9,71.1,59.8z"/>
	
		<linearGradient id="SVGID_29_" gradientUnits="userSpaceOnUse" x1="19.8548" y1="97.0767" x2="30.9435" y2="97.0767" gradientTransform="matrix(4 0 0 -4 -39 465)">
		<stop  offset="0" style="stop-color:#066D54"/>
		<stop  offset="1" style="stop-color:#2E7553"/>
	</linearGradient>
	<path fill="url(#SVGID_29_)" d="M42,74.3c-0.6,1.8-1.2,3.8-1.6,5.6c16.4,1.9,35-0.1,43.5-1.6l0.8-5.6C67.3,76,51.1,75.2,42,74.3z"
		/>
	
		<linearGradient id="SVGID_30_" gradientUnits="userSpaceOnUse" x1="34.1551" y1="102.7649" x2="27.4825" y2="86.309" gradientTransform="matrix(4 0 0 -4 -39 465)">
		<stop  offset="0" style="stop-color:#FFE786"/>
		<stop  offset="1" style="stop-color:#FCC86B"/>
	</linearGradient>
	<path fill="url(#SVGID_30_)" d="M95.7,94.3c4.3-5.8,11.6-16.4,8.4-37c-5.9-5.5-13.2-9.4-19.4-12.1c0.2,2.6,0.3,14.1-0.8,23.4
		c-0.8,7.1-1.5,12.5-4,16.9v0C83.8,89.7,90.7,92.6,95.7,94.3z"/>
	
		<linearGradient id="SVGID_31_" gradientUnits="userSpaceOnUse" x1="30.8556" y1="98.5182" x2="34.5716" y2="98.5182" gradientTransform="matrix(4 0 0 -4 -39 465)">
		<stop  offset="0" style="stop-color:#066D54"/>
		<stop  offset="1" style="stop-color:#2E7553"/>
	</linearGradient>
	<path fill="url(#SVGID_31_)" d="M93.6,49.7c0,10.1-0.3,29-9.2,39.4c1.8,1.1,3.7,2.1,5.6,3c4-5,9.2-15.8,9.2-38.7
		C97.4,52,95.5,50.8,93.6,49.7L93.6,49.7z"/>
</g>
</svg>
