<?xml version="1.0" encoding="utf-8"?>
<!-- Generator: Adobe Illustrator 24.3.0, SVG Export Plug-In . SVG Version: 6.00 Build 0)  -->
<svg version="1.1" id="Layer_1" xmlns="http://www.w3.org/2000/svg" xmlns:xlink="http://www.w3.org/1999/xlink" x="0px" y="0px"
	 viewBox="0 0 126 126" enable-background="new 0 0 126 126" xml:space="preserve">
<g>
	<g>
		<path fill-rule="evenodd" clip-rule="evenodd" fill="#89C8B0" d="M63,23.7c21.7,0,39.3,17.6,39.3,39.3S84.7,102.3,63,102.3
			S23.7,84.7,23.7,63S41.3,23.7,63,23.7z M111,63c0-26.5-21.5-48-48-48S15,36.5,15,63s21.5,48,48,48S111,89.5,111,63z"/>
		<path fill-rule="evenodd" clip-rule="evenodd" fill="#D9EEF7" d="M102.3,63c0-21.7-17.6-39.3-39.3-39.3S23.7,41.3,23.7,63
			s17.6,39.3,39.3,39.3S102.3,84.7,102.3,63z M63,47.4c8.6,0,15.6,7,15.6,15.6s-7,15.6-15.6,15.6s-15.6-7-15.6-15.6
			S54.4,47.4,63,47.4z"/>
		<g>
			<path fill-rule="evenodd" clip-rule="evenodd" fill="#97D4EC" d="M63,55.2v-7.8c-8.6,0-15.6,7-15.6,15.6H63V55.2z"/>
			<path fill-rule="evenodd" clip-rule="evenodd" fill="#97D4EC" d="M63,55.2V63h15.6c0-8.6-7-15.6-15.6-15.6V55.2z"/>
			<path fill-rule="evenodd" clip-rule="evenodd" fill="#97D4EC" d="M78.6,63H63v7.8v7.8C71.6,78.6,78.6,71.6,78.6,63z"/>
			<path fill-rule="evenodd" clip-rule="evenodd" fill="#97D4EC" d="M63,70.8V63H47.4c0,8.6,7,15.6,15.6,15.6V70.8z"/>
		</g>
	</g>
	<g>
		<path d="M63,13c-27.6,0-50,22.4-50,50s22.4,50,50,50s50-22.4,50-50S90.6,13,63,13z M63,109.1c-25.4,0-46.1-20.7-46.1-46.1
			S37.6,16.9,63,16.9s46.1,20.7,46.1,46.1S88.4,109.1,63,109.1z"/>
		<path d="M63,21.8c-7.8,0-15.4,2.2-21.9,6.3c-0.9,0.6-1.2,1.8-0.6,2.7s1.8,1.2,2.7,0.6c5.9-3.7,12.8-5.7,19.8-5.7
			c20.6,0,37.3,16.7,37.3,37.3S83.6,100.3,63,100.3S25.7,83.6,25.7,63c0-7,2-13.9,5.7-19.8c0.6-0.9,0.3-2.1-0.6-2.7
			c-0.9-0.6-2.1-0.3-2.7,0.6C24,47.6,21.8,55.2,21.8,63c0,22.7,18.5,41.2,41.2,41.2s41.2-18.5,41.2-41.2S85.7,21.8,63,21.8z"/>
		<path d="M35.7,61c-1.1,0-2,0.9-2,2c0,1.1,0.9,2,2,2h2v2c0,1.1,0.9,2,2,2s2-0.9,2-2v-2h4c0.9,8.1,7.4,14.6,15.5,15.5v4h-2
			c-1.1,0-2,0.9-2,2s0.9,2,2,2h2v2c0,1.1,0.9,2,2,2c1.1,0,2-0.9,2-2v-2h2c1.1,0,2-0.9,2-2s-0.9-2-2-2h-2v-4
			c8.1-0.9,14.6-7.4,15.5-15.5h4v2c0,1.1,0.9,2,2,2s2-0.9,2-2v-2h2c1.1,0,2-0.9,2-2c0-1.1-0.9-2-2-2h-2v-2c0-1.1-0.9-2-2-2
			s-2,0.9-2,2v2h-4c-0.9-8.1-7.4-14.6-15.5-15.5v-4h2c1.1,0,2-0.9,2-2c0-1.1-0.9-2-2-2h-2v-2c0-1.1-0.9-2-2-2s-2,0.9-2,2v2h-2
			c-1.1,0-2,0.9-2,2c0,1.1,0.9,2,2,2h2v4c-8.1,0.9-14.6,7.4-15.5,15.5h-4v-2c0-1.1-0.9-2-2-2c-1.1,0-2,0.9-2,2v2H35.7z M49.5,65H61
			v3.9h-2c-1.1,0-2,0.9-2,2c0,1.1,0.9,2,2,2h2v3.8C55.1,75.7,50.3,70.9,49.5,65z M65,76.5v-3.8h2c1.1,0,2-0.9,2-2s-0.9-2-2-2h-2V65
			h11.6C75.7,70.9,70.9,75.7,65,76.5L65,76.5z M76.5,61H65v-3.9h2c1.1,0,2-0.9,2-2s-0.9-2-2-2h-2v-3.8C70.9,50.3,75.7,55.1,76.5,61z
			 M61,49.5v3.8h-2c-1.1,0-2,0.9-2,2s0.9,2,2,2h2V61H49.5C50.3,55.1,55.1,50.3,61,49.5L61,49.5z"/>
		<path d="M35.2,37.2c0.5,0,0.9-0.2,1.3-0.5c0.8-0.7,0.9-2,0.1-2.8s-2-0.9-2.8-0.1l0,0c-0.8,0.7-0.9,2-0.1,2.8
			C34.2,37,34.7,37.2,35.2,37.2z"/>
	</g>
</g>
</svg>
