<?xml version="1.0" encoding="utf-8"?>
<!-- Generator: Adobe Illustrator 24.3.0, SVG Export Plug-In . SVG Version: 6.00 Build 0)  -->
<svg version="1.1" id="Layer_1" xmlns="http://www.w3.org/2000/svg" xmlns:xlink="http://www.w3.org/1999/xlink" x="0px" y="0px"
	 viewBox="0 0 126 126" enable-background="new 0 0 126 126" xml:space="preserve">
<g>
	<path fill="#0577BC" d="M61.9,55.5c-0.2,0.4-0.4,0.8-0.5,1.2c-1.1-1.3-2-2.7-2.8-4.2c-4.3-7.9-3.8-18.3,5.5-34
		c0.5-0.9,1-1.7,1.6-2.6l0.1-0.3c2.8,1,5.2,3.1,8.5,7.6C83.1,35.7,66.3,45.3,61.9,55.5z"/>
	<path fill="#37A2DC" d="M58.5,52.5c-4.3-7.9-3.8-18.3,5.5-34c1.8,1.6,3.4,3.4,4.7,5.4C76.6,34.9,64.6,43.6,58.5,52.5z"/>
	<path fill="#2664AD" d="M65.6,15.9c-12.8,20.3-11.6,32-4.3,40.8C57.5,66,59,69.3,44,80c0,0-13,11.6-17.4,5.3
		c-0.3-0.5-0.5-1.1-0.6-1.7c0-0.2,0-0.3,0-0.5c14-12,25-33.4,17.6-49.9c-1.3-2.9-3-5.6-5.3-7.9c-0.1-0.1-0.2-0.3-0.4-0.4l-1.8,0
		c0.3-0.4,0.6-0.9,0.9-1.3c4.8-5.7,11.8-9,19.2-9c2,0,3.7,0,5.2,0.1c1.4,0.1,2.9,0.4,4.2,0.8L65.6,15.9z"/>
	<path fill="#428DCB" d="M58.6,53.4c-3.8,9.2-2.4,12.6-17.4,23.2c0,0-9.7,8.7-15.2,6.9c0-0.2,0-0.3,0-0.5c14-12,25-33.4,17.6-49.9
		c-1.3-2.9-3-5.6-5.3-7.9c-0.4-0.6-0.8-1.2-1.2-1.7c4.8-5.7,11.8-9,19.2-9c2,0,3.7,0,5.2,0.1C50.2,33.7,51.6,44.9,58.6,53.4z"/>
	<path fill="#40539F" d="M25.9,83.1L25.9,83.1c-0.2-9.5,17.6-37.4,9.1-48.5c-1.9-2.5-1.3-6.1,1-9.6l1.8,0c2.4,2.4,4.3,5.2,5.6,8.3
		C51,49.6,40,71.1,25.9,83.1z"/>
	<path fill="#9D9D9D" d="M109.7,49.8l-82.9,58.8c-4.5,3.2-7.5,3-9.3,2.3c-0.5-0.2-1-0.7-1.1-1.3c-0.1-0.6,0-1.2,0.4-1.7
		c0,0,0,0,0-0.1c1.6-2,3.4-3.9,5.5-5.5l17.2-12.2c0.8-0.6,1.4-1.5,1.6-2.5s-0.1-2-0.7-2.9l-1-1.4l0,0c0,0,0,0,0,0
		c1.6-1.1,3.1-2.2,4.6-3.5c2.4-1.7,4.4-3.3,6.1-4.7l1.3,1.8c1.2,1.7,3.6,2.1,5.4,0.9l25.5-18.1c1.2-0.8,1.8-2.3,1.6-3.7l-0.3-1.7
		c-0.2-1.4,0.4-2.9,1.6-3.7l2-1.4c1.3-0.9,3.1-0.6,4,0.7c0.9,1.3,2.7,1.6,4,0.7l5.5-3.9c3.8-2.7,6.1-2.1,7.4-0.7
		C108.8,47.2,109.4,48.4,109.7,49.8z"/>
	<path fill="#CED7DB" d="M108,46.5l-82.9,58.8c-3.7,2.6-6.4,3-8.3,2.6c1.6-2,3.4-3.9,5.5-5.5l17.2-12.2c0.8-0.6,1.4-1.5,1.6-2.5
		s-0.1-2-0.7-2.9l-1-1.4c0,0,0,0,0,0c1.6-1.1,3.1-2.2,4.6-3.5c2.4-1.7,4.4-3.3,6.1-4.7l1.3,1.8c1.2,1.7,3.6,2.1,5.4,0.9l25.5-18.1
		c1.2-0.8,1.8-2.3,1.6-3.7l-0.3-1.7c-0.2-1.4,0.4-2.9,1.6-3.7l2-1.4c1.3-0.9,3.1-0.6,4,0.7c0.9,1.3,2.7,1.6,4,0.7l5.5-3.9
		c3.8-2.7,6.1-2.1,7.4-0.7C108,46.4,108,46.5,108,46.5z"/>
	<path fill="#617D8A" d="M82,36.5c-1.2-0.5-3.7-1.6-5.8-2.6c-1.2,3.4-3,6.5-5.3,9.2c2.2,0.3,4.3,1,6.2,2.1c0.9,0.4,1.9,0.1,2.4-0.7
		l3.3-5.1c0.3-0.5,0.4-1.1,0.2-1.6S82.6,36.7,82,36.5z"/>
	<path d="M30.3,88.8c-0.3,0-0.6,0-0.8,0c-1.7-0.2-3.3-1.1-4.3-2.5c-2.4-3.3,0.2-10,3.8-19.3c4.3-11.1,9.7-24.9,4.8-31.4
		c-1.9-2.5-1.9-6-0.1-9.6c3.2-6.4,12-12.9,22.7-12.9c8.6,0,12.6,0,19.2,9.3c6.9,9.6,0.2,17.6-5.7,24.7c-2.5,2.7-4.7,5.8-6.4,9.1
		c-1,2.2-1.6,4.1-2.2,5.7C59,68.2,57.6,72.3,45,81.3C43.8,82.3,36.2,88.8,30.3,88.8z M56.3,16.3c-9.3,0-17,5.6-19.7,11.1
		c-0.7,1.4-1.7,4.2-0.2,6.1c6,7.9,0.5,22.1-4.3,34.6c-2.5,6.4-5.5,14.3-4.2,16.2c0.4,0.7,1.2,1.1,2,1.1c4,0.4,10.7-4.7,13-6.7
		c0,0,0.1-0.1,0.1-0.1c11.8-8.4,13-11.9,15-17.8c0.6-1.7,1.3-3.7,2.3-6c1.9-3.6,4.2-6.9,6.9-9.9c5.6-6.8,11-13.2,5.6-20.7
		C67.2,16.3,64.4,16.3,56.3,16.3z"/>
	<path d="M25.9,84.7c-0.7,0-1.3-0.4-1.6-1.1c-0.2-0.7,0-1.4,0.5-1.8c13.6-11.6,24.2-32.3,17.2-47.9c-1.2-2.9-3-5.5-5.3-7.7
		c-0.7-0.6-0.7-1.7-0.1-2.4c0.6-0.7,1.7-0.7,2.4-0.1c2.6,2.5,4.6,5.5,6,8.8C52.8,49.6,41.5,72,27,84.3
		C26.7,84.6,26.3,84.7,25.9,84.7z"/>
	<path d="M61.4,58.5c-0.5,0-1-0.2-1.3-0.6c-9-10.9-7.7-24.1,4.1-42.8c0.5-0.8,1.5-1,2.3-0.5c0.8,0.5,1,1.5,0.5,2.3
		c-14,22.2-9.7,32.5-4.4,39c0.4,0.5,0.5,1.2,0.2,1.8C62.6,58.1,62,58.5,61.4,58.5z"/>
	<path d="M19.8,113c-1,0-2-0.2-3-0.6c-1-0.4-1.8-1.3-2.1-2.4c-0.3-1.1,0-2.3,0.7-3.2c1.7-2.2,3.6-4.2,5.8-5.9l17.2-12.2
		c0.5-0.3,0.8-0.8,0.9-1.4c0.1-0.6,0-1.1-0.4-1.6l-1-1.4c-0.3-0.4-0.4-0.8-0.3-1.3c0.1-0.4,0.3-0.8,0.7-1.1c1.5-1,3-2.1,4.4-3.3
		c0,0,0.1-0.1,0.1-0.1c2.4-1.7,4.3-3.2,6-4.6c0.4-0.3,0.8-0.4,1.3-0.4c0.5,0.1,0.9,0.3,1.1,0.7l1.3,1.8c0.7,1,2.1,1.2,3,0.5
		l25.4-18.1c0.7-0.5,1-1.3,0.9-2.1l-0.3-1.7c-0.3-2.1,0.5-4.1,2.2-5.3l2-1.4c2-1.4,4.9-1,6.3,1.1c0.4,0.5,1.2,0.7,1.7,0.3l5.5-3.9
		c3-2.1,5.6-2.7,7.8-1.8c3.2,1.4,3.9,5.3,4,5.8c0.1,0.6-0.2,1.3-0.7,1.6L27.7,110C25.4,111.8,22.7,112.8,19.8,113z M41.7,83.8
		L41.7,83.8c0.9,1.2,1.2,2.7,1,4.1c-0.2,1.4-1,2.7-2.2,3.6l-17.2,12.2c-1.9,1.5-3.7,3.3-5.2,5.2c-0.1,0.1-0.1,0.2-0.1,0.3
		c0,0.1,0,0.1,0.1,0.1c1.9,0.8,4.6,0.1,7.6-2.1l82-58.2c-0.3-1-0.9-1.8-1.7-2.3c-1.3-0.5-3.2,0.5-4.5,1.4L96,52.1
		c-2,1.4-4.9,1-6.3-1.1c-0.4-0.5-1.1-0.7-1.7-0.3l-2,1.4c-0.7,0.5-1,1.3-0.9,2.1l0.3,1.7c0.3,2.1-0.5,4.1-2.2,5.3L57.7,79.3
		c-2.5,1.8-5.9,1.2-7.7-1.3l-0.2-0.3c-1.4,1.1-3,2.3-4.7,3.6C44.7,81.5,43.4,82.6,41.7,83.8z"/>
	<path d="M78,47c-0.5,0-1.1-0.1-1.6-0.4c-1.7-1-3.7-1.6-5.6-1.9c-0.6-0.1-1.1-0.4-1.4-1c-0.2-0.6-0.2-1.2,0.2-1.7
		c2.2-2.5,3.9-5.4,5-8.6c0.1-0.5,0.5-0.9,0.9-1.1c0.5-0.2,1-0.2,1.4,0.1c2,1,4.4,2.1,5.6,2.6c1,0.4,1.8,1.2,2.1,2.2
		c0.3,1,0.2,2.1-0.4,3L81,45.3C80.4,46.4,79.2,47,78,47z M73.9,41.9c1.4,0.4,2.7,1,3.9,1.6c0.2,0.1,0.3,0.1,0.4-0.1l3.3-5.1
		c0-0.1,0.1-0.1,0-0.2c0-0.1-0.1-0.1-0.1-0.1c-0.9-0.4-2.6-1.1-4.2-1.8C76.3,38.2,75.2,40.2,73.9,41.9L73.9,41.9z"/>
</g>
</svg>
