<?xml version="1.0" encoding="utf-8"?>
<!-- Generator: Adobe Illustrator 24.3.0, SVG Export Plug-In . SVG Version: 6.00 Build 0)  -->
<svg version="1.1" id="Layer_1" xmlns="http://www.w3.org/2000/svg" xmlns:xlink="http://www.w3.org/1999/xlink" x="0px" y="0px"
	 viewBox="0 0 126 126" enable-background="new 0 0 126 126" xml:space="preserve">
<g>
	<path fill="#88878F" d="M33,111.5h60c5.9,0,8.7-7.2,4.3-11.2c-6.9-6.3-18-12.9-34.3-12.9c-16.3,0-27.4,6.6-34.3,12.9
		C24.4,104.3,27.1,111.5,33,111.5z"/>
	<path fill="#72727A" d="M63,87.5c-16.3,0-27.4,6.6-34.3,12.9c-4.3,4-1.6,11.2,4.3,11.2h19c-0.9-3.7,1.4-7.9,5.7-8.6
		c10.1-1.7,17.9-6.3,17.9-6.3v-7.8C71.8,88,67.6,87.5,63,87.5z"/>
	<path fill="#EEEEEE" d="M53.3,107.6l-9.3-3.2c-1.6-0.6-2.5-2.3-1.9-3.9c0.6-1.6,2.3-2.5,3.9-1.9l9.3,3.2c1.6,0.6,2.5,2.3,1.9,3.9
		S54.9,108.2,53.3,107.6z"/>
	<path fill="#DFDFDF" d="M57,103.1c-0.4-0.6-0.9-1.1-1.7-1.3L46,98.6c-1.6-0.6-3.4,0.3-3.9,1.9c-0.6,1.6,0.3,3.4,1.9,3.9l8.4,2.9
		C53.1,105.4,54.7,103.7,57,103.1z"/>
	<path fill="#EEEEEE" d="M72.7,107.6l9.3-3.2c1.6-0.6,2.5-2.3,1.9-3.9c-0.6-1.6-2.3-2.5-3.9-1.9l-9.3,3.2c-1.6,0.6-2.5,2.3-1.9,3.9
		C69.3,107.3,71.1,108.2,72.7,107.6z"/>
	<path fill="#EEEEEE" d="M94.9,57.1v-8.3c0-17.5-9.1-34.4-31.9-34.4S31.1,31.3,31.1,48.8v8.3c0,2-0.8,3.9-2.2,5.4
		c-2.1,2.1-3.4,5-3.4,8.2c0,6.4,5.2,11.7,11.7,11.7h0c7.7,0,7,8,7,8c0,3.5,2.8,6.3,6.3,6.3c2.1,0,3.9-1,5.1-2.6
		c0.6-0.8,1.8-0.8,2.4,0c1.2,1.6,3,2.6,5.1,2.6c2.1,0,3.9-1,5.1-2.6c0.6-0.8,1.8-0.8,2.4,0c1.1,1.6,3,2.6,5.1,2.6
		c3.5,0,6.3-2.8,6.3-6.3c0,0-0.5-8,7-8c6.4,0,11.7-5.2,11.7-11.7c0-3.2-1.3-6.1-3.4-8.2C95.7,61,94.9,59.1,94.9,57.1z"/>
	<path fill="#DFDFDF" d="M49,52.2c-3.8-18.4,1.8-30.6,6.4-37c-17.3,3.3-24.4,18.2-24.4,33.7v8.3c0,2-0.8,3.9-2.2,5.4
		c-2.1,2.1-3.4,5-3.4,8.2c0,6.4,5.2,11.7,11.7,11.7h0c7.7,0,7,8,7,8c0,3.5,2.8,6.3,6.3,6.3c2.1,0,3.9-1,5.1-2.6
		c0.6-0.8,1.8-0.8,2.4,0c1.2,1.6,3,2.6,5.1,2.6C63,96.7,55.5,83.6,49,52.2z"/>
	<g>
		<path fill="#88878F" d="M46.7,57.9c5.9-0.8,11.2,2.2,11.8,6.6s-3.7,8.7-9.7,9.5c-5.9,0.8-9-2.4-9.6-6.9
			C38.6,62.7,40.8,58.7,46.7,57.9z"/>
		<path fill="#88878F" d="M79.3,57.9c-5.9-0.8-11.2,2.2-11.8,6.6s3.7,8.7,9.7,9.5c5.9,0.8,9-2.4,9.6-6.9
			C87.4,62.7,85.2,58.7,79.3,57.9z"/>
		<path fill="#88878F" d="M67.7,79.3c0,2.6-2.1,2.9-4.7,2.9c-2.6,0-4.7-0.3-4.7-2.9s2.1-7.2,4.7-7.2C65.6,72.1,67.7,76.7,67.7,79.3z
			"/>
	</g>
	<path fill="#72727A" d="M46.1,58c-5.5,1-7.5,4.8-6.9,9.1c0.6,4.4,3.7,7.7,9.6,6.9c0.3,0,0.5-0.1,0.8-0.1
		C44.5,68.2,45.2,61.6,46.1,58z"/>
	<path fill="#72727A" d="M75.7,57.9c-4.3,0.5-7.8,3.1-8.2,6.6c-0.6,4.4,3.7,8.7,9.7,9.5c0.3,0,0.5,0.1,0.8,0.1
		C74.3,68.1,74.8,61.9,75.7,57.9z"/>
	<path d="M60,64.3c-0.7-5.2-6.7-8.7-13.4-7.9c-3.2,0.4-5.7,1.7-7.2,3.8c-1.4,1.9-1.9,4.3-1.6,7c0.4,2.7,1.5,4.9,3.4,6.4
		c1.6,1.3,4.9,2.2,7.9,1.8c3.2-0.4,6.1-1.8,8.1-3.8C59.3,69.6,60.3,67,60,64.3z M55.1,69.6c-1.6,1.6-3.9,2.6-6.4,3
		c-2.4,0.3-4.3-0.2-5.7-1.2c-1.8-1.2-3.8-5.8-1.2-9.3c1.1-1.4,2.8-2.3,5.2-2.6c0.6-0.1,9.5-0.7,10.2,5.3
		C57.3,66.4,56.6,68.1,55.1,69.6z"/>
	<path d="M84.9,73.7c1.8-1.5,3-3.7,3.4-6.4c0.4-2.7-0.2-5.1-1.6-7c-1.5-2.1-4-3.4-7.2-3.8c-3.2-0.4-6.3,0.1-8.8,1.5
		c-2.6,1.5-4.3,3.7-4.6,6.3c-0.7,5.2,4.2,10.3,10.9,11.1C80.6,75.9,83.3,74.9,84.9,73.7z M68.9,64.7c0.2-1.7,1.3-3.2,3.2-4.2
		c1.5-0.8,4.8-1.5,7-1.2c4.5,0.7,6.8,3.3,6.2,7.5c-0.3,1.9-1,3.5-2.3,4.4c-1.4,1.1-3.3,1.5-5.7,1.2C72.2,71.9,68.4,68.4,68.9,64.7z"
		/>
	<path d="M63,83.7c1.8,0,6.2,0,6.2-4.3c0-3-2.4-8.7-6.2-8.7c-3.8,0-6.2,5.7-6.2,8.7C56.8,83.7,61.2,83.7,63,83.7z M63,73.5
		c1.3,0,3.2,3.5,3.2,5.8c0,0.8,0,1.4-3.2,1.4c-3.2,0-3.2-0.6-3.2-1.4C59.8,77,61.7,73.5,63,73.5z"/>
	<path d="M98.3,99.3c-4.4-4.1-9.5-7.2-15-9.5c0-0.9,0.2-3.1,1.6-4.6c0.9-1,2.2-1.5,3.9-1.5c7.2,0,13.1-5.9,13.1-13.1
		c0-3.5-1.3-6.7-3.8-9.2c-1.2-1.2-1.8-2.7-1.8-4.3v-8.3c0-7.8-1.7-15-5-20.7c-0.4-0.7-1.3-0.9-2-0.5c-0.7,0.4-0.9,1.3-0.5,2
		c3,5.3,4.7,12,4.7,19.3v8.3c0,2.4,0.9,4.7,2.7,6.4C98,65.4,99,68,99,70.7c0,5.6-4.6,10.2-10.2,10.2c-2.6,0-4.6,0.8-6.1,2.4
		c-2.5,2.7-2.4,6.6-2.4,7.1c0,2.7-2.2,4.8-4.8,4.8c-1.5,0-3-0.7-3.9-2c-0.6-0.8-1.4-1.2-2.4-1.2c-0.9,0-1.8,0.4-2.4,1.2
		c-0.9,1.2-2.4,2-3.9,2s-3-0.7-3.9-2c-0.6-0.8-1.4-1.2-2.4-1.2c-0.9,0-1.8,0.4-2.4,1.2c-0.9,1.2-2.4,2-3.9,2c-2.7,0-4.8-2.1-4.8-4.8
		c0-0.6,0.2-4.5-2.2-7.1c-1.5-1.6-3.6-2.4-6.2-2.4c-5.6,0-10.2-4.6-10.2-10.2c0-2.7,1-5.2,2.9-7.2c1.7-1.7,2.7-4,2.7-6.4v-8.3
		c0-9,2.5-17.1,7.1-22.8c5.3-6.7,13.2-10,23.3-10c9.7,0,17.4,3.1,22.7,9.3c0.5,0.6,1.5,0.7,2.1,0.2c0.6-0.5,0.7-1.5,0.1-2.1
		c-2.8-3.3-6.3-5.8-10.3-7.5C73.4,13.9,68.4,13,63,13c-10.9,0-19.8,3.9-25.6,11.1c-5,6.2-7.7,15-7.7,24.7v8.3c0,1.6-0.6,3.2-1.8,4.3
		c-2.4,2.5-3.8,5.7-3.8,9.2c0,7.2,5.9,13.1,13.1,13.1c1.8,0,3.1,0.5,4,1.5c1.7,1.9,1.5,5,1.5,5.1c0,4.3,3.5,7.8,7.8,7.8
		c2.5,0,4.8-1.2,6.3-3.2l0,0c1.5,2,3.8,3.2,6.3,3.2s4.8-1.2,6.3-3.2c0,0,2,3.2,6.3,3.2c3.4,0,6.3-2.2,7.4-5.3
		c4.9,2.1,9.4,5,13.4,8.6c1.9,1.7,1.9,3.9,1.3,5.5c-0.6,1.5-2.1,3.2-4.6,3.2H33c-2.5,0-4-1.6-4.6-3.2c-0.6-1.5-0.6-3.8,1.3-5.5
		c2.8-2.6,5.9-4.8,9.2-6.6c0.7-0.4,1-1.3,0.6-2c-0.4-0.7-1.3-1-2-0.6c-3.5,1.9-6.8,4.3-9.8,7c-2.5,2.3-3.2,5.6-2,8.7
		c1.2,3.1,4,5,7.3,5h60c3.3,0,6.1-1.9,7.3-5C101.5,104.9,100.8,101.5,98.3,99.3z"/>
	<path d="M52.8,109c0.5,0.2,1,0.2,1.5,0.2c1.9,0,3.7-1.2,4.3-3.1c0.8-2.4-0.5-5-2.8-5.8l-9.3-3.2c-2.4-0.8-5,0.5-5.8,2.8
		c-0.8,2.4,0.5,5,2.8,5.8L52.8,109z M43.4,101c0.3-0.8,1.2-1.3,2.1-1l9.3,3.2c0.8,0.3,1.3,1.2,1,2.1c-0.3,0.8-1.2,1.3-2.1,1
		l-9.3-3.2C43.6,102.8,43.1,101.8,43.4,101z"/>
	<path d="M71.7,109.3c0.5,0,1-0.1,1.5-0.2l9.3-3.2c1.1-0.4,2.1-1.2,2.6-2.3c0.5-1.1,0.6-2.3,0.2-3.5S84.1,98,83,97.4
		s-2.3-0.6-3.5-0.2l-9.3,3.2c-2.4,0.8-3.7,3.4-2.8,5.8C68,108.1,69.8,109.3,71.7,109.3z M71.2,103.2l9.3-3.2
		c0.2-0.1,0.3-0.1,0.5-0.1c0.2,0,0.5,0.1,0.7,0.2c0.4,0.2,0.7,0.5,0.8,0.9c0.1,0.4,0.1,0.8-0.1,1.2c-0.2,0.4-0.5,0.7-0.9,0.8
		l-9.3,3.2c-0.8,0.3-1.8-0.2-2.1-1C69.9,104.4,70.3,103.5,71.2,103.2z"/>
</g>
</svg>
