<?xml version="1.0" encoding="utf-8"?>
<!-- Generator: Adobe Illustrator 24.3.0, SVG Export Plug-In . SVG Version: 6.00 Build 0)  -->
<svg version="1.1" id="Layer_1" xmlns="http://www.w3.org/2000/svg" xmlns:xlink="http://www.w3.org/1999/xlink" x="0px" y="0px"
	 viewBox="0 0 126 126" enable-background="new 0 0 126 126" xml:space="preserve">
<g id="Layer_29">
	<circle fill="#FAD1B5" cx="56.8" cy="25.5" r="10.4"/>
	<path fill="#A7D0E0" d="M103.5,93.5l-9.2,9.1h-75c-2.3,0-4.2,1.9-4.2,4.2l0,0c0,2.3,1.9,4.2,4.2,4.2h79.2l11.3-10.6
		c1.6-1.8,1.6-4.6,0-6.4l-0.4-0.4c-1.4-1.6-3.9-1.8-5.5-0.4C103.7,93.2,103.6,93.4,103.5,93.5z"/>
	<path fill="#F19388" d="M40.1,65.1v4.2c0,2.3,1.9,4.2,4.2,4.2h20.8l-6.2,29.2h10.4l6.2-29.2v-4.2c0-2.3-1.9-4.2-4.2-4.2H40.1z"/>
	<path fill="#DAA293" d="M56.8,15.1c-4.9,0-9.2,3.5-10.2,8.3H67C66,18.6,61.7,15.1,56.8,15.1z"/>
	<path fill="#EAB698" d="M67,27.6c0.3-1.4,0.3-2.8,0-4.2H46.5c-0.3,1.4-0.3,2.8,0,4.2H67z"/>
	<path fill="#C8CAA5" d="M60.9,65.1H40.1l4.8-22.6c0.8-3.8,4.2-6.6,8.1-6.6h3.8c4.6,0,8.3,3.7,8.3,8.3c0,0.5,0,1.1-0.1,1.6
		L60.9,65.1z"/>
	<path fill="#B2B289" d="M53.6,58.8c-2.3,0-4.2-1.9-4.2-4.2c0-0.3,0-0.6,0.1-0.9l3.7-17.5c0-0.1,0.1-0.2,0.1-0.3h-0.3
		c-3.9,0-7.3,2.7-8.1,6.6l-4.8,22.6h20.8l1.3-6.2H53.6z"/>
	<path fill="#FAD1B5" d="M56.6,44.1l26.7,4.7c2.3,0.4,3.8,2.6,3.4,4.8l0,0c-0.4,2.3-2.6,3.8-4.8,3.4l-26.7-4.7
		c-2.3-0.4-3.8-2.6-3.4-4.8l0,0C52.2,45.2,54.4,43.7,56.6,44.1z"/>
	<path d="M109.1,90.2c-2.3-1-5-0.5-6.8,1.4l-8.9,8.9H77.6c-1.2,0-2.1,0.9-2.1,2.1c0,1.2,0.9,2.1,2.1,2.1h16.7c0.6,0,1.1-0.2,1.5-0.6
		l9.6-9.6c0.8-0.8,2.1-0.8,2.9,0c0.4,0.4,0.6,0.9,0.6,1.5v1.6l-11.3,11.3H19.3c-1.2,0-2.1-0.9-2.1-2.1c0-1.2,0.9-2.1,2.1-2.1h50
		c1,0,1.8-0.7,2-1.6l6.2-29.2c0-0.1,0-0.3,0-0.4v-4.2c0-1.4-0.5-2.8-1.4-3.8l6.9-6c0.1-0.1,0.2-0.2,0.2-0.3c2.5-0.3,4.6-2.1,5.2-4.6
		c0.2-0.1,0.3-0.2,0.5-0.3l2.4-2.1c0.8-0.8,0.8-2.1,0-2.9c-0.7-0.7-1.9-0.8-2.7-0.2l-0.8,0.7c-0.9-1.5-2.5-2.6-4.2-2.9l-16.4-2.9
		c-0.1-2.6-1.2-5.1-3-6.9c-0.3-0.3-0.6-0.5-0.9-0.8c5.9-3.6,7.7-11.3,4.1-17.2c-3.6-5.9-11.3-7.7-17.2-4.1s-7.7,11.3-4.1,17.2
		c0.7,1.1,1.5,2.1,2.4,2.9c-2.9,1.4-5,4-5.7,7.1l-0.4,1.7c-0.2,1.1,0.5,2.2,1.6,2.5c1.1,0.2,2.2-0.5,2.5-1.6l0,0L47,43
		c0.6-2.9,3.2-4.9,6.1-5h3.8c3,0,5.6,2.1,6.1,5L57,42c-3.4-0.6-6.6,1.7-7.2,5.1c-0.6,3.4,1.7,6.6,5.1,7.2l6,1.1L59.2,63H42.7l2.1-10
		c0.2-1.1-0.5-2.2-1.6-2.5c-1.1-0.2-2.2,0.5-2.5,1.6l0,0L38,64.7c0,0.1,0,0.3,0,0.4v4.2c0,3.5,2.8,6.2,6.2,6.2h14.1L43.2,88.7
		l-1.5-2c-0.7-0.9-2-1.1-2.9-0.4c-0.9,0.7-1.1,2-0.4,2.9l1.7,2.2l-1.4,1.2c-0.9,0.8-1,2.1-0.2,2.9c0.8,0.9,2.1,1,2.9,0.2l0,0l1.1-1
		l2.1,2.8c0.7,0.9,2,1.1,2.9,0.4s1.1-2,0.4-2.9l-2.3-3L62,77.8l-4.9,22.7H19.3c-3.5,0-6.2,2.8-6.2,6.2c0,3.5,2.8,6.2,6.2,6.2h79.2
		c0.6,0,1.1-0.2,1.5-0.6l12.5-12.5c0.4-0.4,0.6-0.9,0.6-1.5V96C113,93.4,111.5,91.2,109.1,90.2z M72.5,63.1C72.1,63,71.7,63,71.3,63
		h-7.8l1.5-6.9l12.9,2.3L72.5,63.1z M56.8,17.2c3,0,5.7,1.6,7.2,4.2H49.6C51.1,18.8,53.8,17.2,56.8,17.2z M56.8,33.8
		c-4.6,0-8.3-3.7-8.3-8.3h16.7C65.1,30.1,61.4,33.8,56.8,33.8z M55.6,50.2c-1.1-0.2-1.9-1.3-1.7-2.4c0.2-1,1-1.7,2-1.7
		c0.1,0,0.2,0,0.4,0l26.7,4.7c1.1,0.2,1.9,1.2,1.8,2.4c-0.2,1.1-1.2,1.9-2.4,1.8c0,0-0.1,0-0.1,0L55.6,50.2z M44.3,71.3
		c-1.2,0-2.1-0.9-2.1-2.1v-2.1h25.7l-4.8,4.2H44.3z M67.3,73.2l5.7-5c0.2,0.3,0.3,0.7,0.4,1.1v4l-5.9,27.3h-6.2L67.3,73.2z"/>
	<path d="M21.3,42.2H38c1.2,0,2.1-0.9,2.1-2.1S39.2,38,38,38H21.3c-1.2,0-2.1,0.9-2.1,2.1S20.2,42.2,21.3,42.2z"/>
	<path d="M15.1,50.5h8.3c1.2,0,2.1-0.9,2.1-2.1c0-1.2-0.9-2.1-2.1-2.1h-8.3c-1.2,0-2.1,0.9-2.1,2.1C13,49.6,13.9,50.5,15.1,50.5z"/>
	<path d="M38,48.4c0-1.2-0.9-2.1-2.1-2.1h-4.2c-1.2,0-2.1,0.9-2.1,2.1c0,1.2,0.9,2.1,2.1,2.1h4.2C37.1,50.5,38,49.6,38,48.4z"/>
	<path d="M23.4,54.7c-1.2,0-2.1,0.9-2.1,2.1c0,1.2,0.9,2.1,2.1,2.1h8.3c1.2,0,2.1-0.9,2.1-2.1c0-1.2-0.9-2.1-2.1-2.1H23.4z"/>
</g>
</svg>
