<?xml version="1.0" encoding="utf-8"?>
<!-- Generator: Adobe Illustrator 24.3.0, SVG Export Plug-In . SVG Version: 6.00 Build 0)  -->
<svg version="1.1" id="Layer_1" xmlns="http://www.w3.org/2000/svg" xmlns:xlink="http://www.w3.org/1999/xlink" x="0px" y="0px"
	 viewBox="0 0 126 126" enable-background="new 0 0 126 126" xml:space="preserve">
<path id="surface1" fill="#E63066" d="M13,45l4,10h-4l4,10h-4l12,16l-1.3-4h78.7l-1.3,4l12-16h-4l4-10h-4l4-10H13z M22.1,49h81.7
	L101,59h4l-4,10h4l-1.3,4H22.3L21,69h4l-4-10h4L22.1,49z M29,53v10h10v2H29v4h14V59H33v-2h10v-4H29z M45,53v16h4v-7.3l4,7.3l4-7.3
	V69h4V53h-4l-4,8l-4-8H45z M63,53v16h4V53H63z M69,53v4h4v12h4V57h4v-4H69z M83,53v16h14v-4H87v-2h10v-4H87v-2h10v-4H83z"/>
</svg>
