<?xml version="1.0" encoding="utf-8"?>
<!-- Generator: Adobe Illustrator 24.3.0, SVG Export Plug-In . SVG Version: 6.00 Build 0)  -->
<svg version="1.1" id="Layer_1" xmlns="http://www.w3.org/2000/svg" xmlns:xlink="http://www.w3.org/1999/xlink" x="0px" y="0px"
	 viewBox="0 0 126 126" enable-background="new 0 0 126 126" xml:space="preserve">
<g>
	<circle fill="#D15241" cx="96.3" cy="91.9" r="16.7"/>
	<g>
		<path fill="#FFFFFF" d="M109.7,91.7c-0.4,0-0.8-0.3-0.8-0.7c-1.4-10.9-10.7-11.5-11.1-11.5c-0.5,0-0.8-0.4-0.8-0.9
			c0-0.5,0.4-0.8,0.9-0.8c0.1,0,11.1,0.7,12.7,13c0.1,0.5-0.3,0.9-0.7,1C109.8,91.7,109.8,91.7,109.7,91.7z"/>
		<circle fill="#FFFFFF" cx="109.9" cy="93.8" r="1.1"/>
	</g>
	<circle fill="#D15241" cx="63" cy="91.9" r="16.7"/>
	<g>
		<path fill="#FFFFFF" d="M76.4,91.7c-0.4,0-0.8-0.3-0.8-0.7c-1.4-10.9-10.7-11.5-11.1-11.5c-0.5,0-0.8-0.4-0.8-0.9
			c0-0.5,0.4-0.8,0.9-0.8c0.1,0,11.1,0.7,12.7,13c0.1,0.5-0.3,0.9-0.7,1C76.5,91.7,76.4,91.7,76.4,91.7z"/>
		<circle fill="#FFFFFF" cx="76.6" cy="93.8" r="1.1"/>
	</g>
	<circle fill="#D15241" cx="29.7" cy="91.9" r="16.7"/>
	<g>
		<path fill="#FFFFFF" d="M43.1,91.7c-0.4,0-0.8-0.3-0.8-0.7c-1.4-10.9-10.7-11.5-11.1-11.5c-0.5,0-0.8-0.4-0.8-0.9
			c0-0.5,0.4-0.8,0.9-0.8c0.1,0,11.1,0.7,12.7,13c0.1,0.5-0.3,0.9-0.7,1C43.1,91.7,43.1,91.7,43.1,91.7z"/>
		<circle fill="#FFFFFF" cx="43.2" cy="93.8" r="1.1"/>
	</g>
	<circle fill="#D15241" cx="46.3" cy="63.2" r="16.7"/>
	<g>
		<path fill="#FFFFFF" d="M59.7,63c-0.4,0-0.8-0.3-0.8-0.7c-1.4-10.9-10.7-11.5-11.1-11.5c-0.5,0-0.8-0.4-0.8-0.9
			c0-0.5,0.4-0.8,0.9-0.8c0.1,0,11.1,0.7,12.7,13c0.1,0.5-0.3,0.9-0.7,1C59.8,63,59.8,63,59.7,63z"/>
		<circle fill="#FFFFFF" cx="59.9" cy="65.1" r="1.1"/>
	</g>
	<circle fill="#D15241" cx="79.7" cy="63" r="16.7"/>
	<g>
		<path fill="#FFFFFF" d="M93.1,62.9c-0.4,0-0.8-0.3-0.8-0.7c-1.4-10.9-10.7-11.5-11.1-11.5c-0.5,0-0.8-0.4-0.8-0.9
			c0-0.5,0.4-0.8,0.9-0.8c0.1,0,11.1,0.7,12.7,13c0.1,0.5-0.3,0.9-0.7,1C93.1,62.8,93.1,62.9,93.1,62.9z"/>
		<circle fill="#FFFFFF" cx="93.2" cy="64.9" r="1.1"/>
	</g>
	<circle fill="#D15241" cx="63" cy="34.1" r="16.7"/>
	<g>
		<path fill="#FFFFFF" d="M76.4,33.9c-0.4,0-0.8-0.3-0.8-0.7c-1.4-10.9-10.7-11.5-11.1-11.5c-0.5,0-0.8-0.4-0.8-0.9
			c0-0.5,0.4-0.8,0.9-0.8c0.1,0,11.1,0.7,12.7,13c0.1,0.5-0.3,0.9-0.7,1C76.5,33.9,76.4,33.9,76.4,33.9z"/>
		<circle fill="#FFFFFF" cx="76.6" cy="35.9" r="1.1"/>
	</g>
</g>
</svg>
