<?xml version="1.0" encoding="utf-8"?>
<!-- Generator: Adobe Illustrator 24.3.0, SVG Export Plug-In . SVG Version: 6.00 Build 0)  -->
<svg version="1.1" id="Layer_1" xmlns="http://www.w3.org/2000/svg" xmlns:xlink="http://www.w3.org/1999/xlink" x="0px" y="0px"
	 viewBox="0 0 126 126" enable-background="new 0 0 126 126" xml:space="preserve">
<g>
	<path fill="#BDDBF2" d="M101.5,89.4c1.1-1.7,2.3-3.4,3.5-5.3c4.9-7.8,10.4-22.3-2.6-30.4c-12.9-8.1-23.6,3.2-28.4,11
		c-1.9,3-3.4,5.7-4.9,8.4v-9.9c3.1-1.6,6.9-4.2,6.9-10.5v-1.8c3.1-0.4,3.4-2.2,3.4-7.9c0-0.2,0-0.5,0-0.7c0-0.8-0.3-1.5-0.7-2.1
		c1.7-0.9,2.7-2.7,2.4-4.6c-0.1-1.5-0.8-2.9-2-3.8c-0.9-6.9-4.7-13.7-15.3-15v0.1c0-0.1,0-0.2,0-0.3c0-1.9-1.5-3.4-3.4-3.4
		S57,14.5,57,16.4c0,0.1,0,0.2,0,0.3c0,0,0,0,0-0.1c-10.6,1.2-14.4,8.1-15.3,15c-1.2,0.9-1.9,2.3-2,3.8c-0.2,1.9,0.7,3.8,2.4,4.6
		c-0.5,0.6-0.7,1.4-0.7,2.1c0,4.3,0.1,6.6,1.2,7.7c0.7,0.6,1.5,0.9,2.4,1c-0.1,0-0.1,0-0.2,0v1.8c0,6.3,3.8,8.9,6.9,10.5v5.2
		c-1.8,0.2-3.5,0.7-5.2,1.5c0,0-5.2,1.7-5.2,6.9v-0.1c-13,3.9-25.9,13.6-25.9,19v13.8c0,1.9,1.5,3.4,3.4,3.4h65.2
		c0.8-1.1,1.6-2.2,2.4-3.3c-0.8,1-1.5,2.1-2.4,3.3h17.6c1.9,0,3.4-1.5,3.4-3.4V95.8C105.2,94,103.8,91.7,101.5,89.4L101.5,89.4z
		 M65.6,79.7c-1.5,2.8-3,5.8-4.7,9.1C62.6,85.5,64.1,82.5,65.6,79.7z M66.9,77.1L66.9,77.1L66.9,77.1z M66.1,64.7
		c0.2-0.1,0.4-0.2,0.6-0.3C66.4,64.5,66.2,64.6,66.1,64.7z M57.8,18.7L57.8,18.7L57.8,18.7z M60.4,26.8c0.3,0,0.6,0,1,0
		C61,26.8,60.7,26.8,60.4,26.8c-0.3,0-0.6,0-1,0C59.8,26.8,60.1,26.8,60.4,26.8z M59.1,26.8l-0.7,0L59.1,26.8z M58.5,19.3L58.5,19.3
		L58.5,19.3z M59.3,19.7c0.1,0,0.1,0,0.2,0.1C59.5,19.7,59.4,19.7,59.3,19.7L59.3,19.7z M62.9,18.8L62.9,18.8L62.9,18.8z M62.5,35.4
		c-0.7,0-1.4,0-2,0c-0.6,0-1.3,0-2,0c0.7,0,1.4,0,2,0C61,35.4,61.7,35.4,62.5,35.4L62.5,35.4z M61.8,26.8c0.2,0,0.4,0,0.7,0
		C62.2,26.8,62,26.8,61.8,26.8L61.8,26.8z M63,26.9l0.4,0L63,26.9z M62.3,19.3C62.2,19.4,62.2,19.4,62.3,19.3
		C62.2,19.4,62.2,19.4,62.3,19.3z M61.5,19.7c-0.1,0-0.1,0-0.2,0.1C61.4,19.8,61.4,19.7,61.5,19.7z M57.3,18L57.3,18L57.3,18
		L57.3,18z M57.8,26.9L57.2,27L57.8,26.9z M51.4,27.7L51.4,27.7c-0.1,0-0.4,0.1-0.6,0.1C51,27.8,51.2,27.8,51.4,27.7z M55.7,27.1
		c-0.1,0-0.3,0-0.4,0C55.4,27.1,55.5,27.1,55.7,27.1z M54.4,27.3l-0.6,0.1L54.4,27.3z M53,27.5c-0.3,0-0.6,0.1-0.9,0.2
		C52.4,27.6,52.7,27.5,53,27.5z M45.5,50.9c0.3,0,0.7,0,1.1,0C46.2,50.9,45.9,50.9,45.5,50.9z M54.8,64.7c-0.2-0.1-0.4-0.2-0.6-0.3
		C54.4,64.5,54.6,64.6,54.8,64.7z M50,108.3l-0.1,0.2L50,108.3z M60.4,89.8l-0.5,0.9C60.1,90.4,60.2,90.1,60.4,89.8z M54.6,100.4
		L54.6,100.4L54.6,100.4z M52.5,104.1l-0.2,0.3L52.5,104.1z M99.7,92l-0.2,0.3C99.6,92.2,99.6,92.1,99.7,92L99.7,92z M89.1,106.3
		c-0.7,0.9-1.4,1.8-2.1,2.8C87.7,108.2,88.4,107.2,89.1,106.3L89.1,106.3z M91.2,103.4c-0.5,0.7-1.1,1.5-1.7,2.2
		C90.1,104.9,90.7,104.2,91.2,103.4L91.2,103.4z"/>
	<path fill="#5295CE" d="M60.9,88.8c2.2-4.3,4.1-8.1,6-11.7c-1.7,1.8-4,2.9-6.5,3.1c-3.4,0-6-2.6-8.6-5.2v-6.7
		c-1.8,0.2-3.5,0.7-5.2,1.5c0,0-5.2,1.7-5.2,6.9c0,5.2,6.9,12.1,19,12.1C60.6,88.9,60.7,88.8,60.9,88.8z"/>
	<path fill="#EC6B78" d="M102.4,53.7c-12.9-8.1-23.6,3.2-28.4,11C65.1,78.9,62.4,87.9,47.2,113h37C93,100.7,98.5,94.5,105,84.1
		C109.8,76.4,115.3,61.8,102.4,53.7z"/>
	<path fill="#678791" d="M63.9,16.4c0,1.9-1.5,3.4-3.4,3.4c-1.9,0-3.4-1.5-3.4-3.4s1.5-3.4,3.4-3.4C62.3,13,63.9,14.5,63.9,16.4z"/>
	<path fill="#94C1D4" d="M79.1,31.6c-3-2.1-6.5-3.5-10.1-3.9c0-5.2-5.6-9.7-5.6-9.7c0.2-0.4,0.3-0.9,0.4-1.3
		C74.5,17.9,78.2,24.7,79.1,31.6z"/>
	<path fill="#ADD2DA" d="M69,27.7c-2.8-0.5-5.7-0.8-8.6-0.9v-6.9c1.3,0,2.5-0.7,3.1-1.9C63.5,18,69,22.5,69,27.7z"/>
	<path fill="#94C1D4" d="M60.4,19.9v6.9c-3,0.1-6,0.4-9,0.9c0-5.2,5.9-9.8,5.9-9.8C57.9,19.1,59.1,19.9,60.4,19.9z"/>
	<path fill="#ADD2DA" d="M57.3,17.9c0,0-5.9,4.6-5.9,9.8c-3.5,0.5-6.8,1.8-9.7,3.9c0.9-6.9,4.7-13.8,15.3-15
		C57,17.1,57.1,17.5,57.3,17.9z"/>
	<path fill="#678791" d="M60.4,26.8c-5.2,0-20.7,1.7-20.7,8.6c-0.2,1.9,0.7,3.8,2.4,4.6c0.2-0.2,0.4-0.5,0.6-0.6
		c5.2-4,12.9-4,17.6-4c4.7,0,12.4,0,17.6,4c0.2,0.2,0.5,0.4,0.6,0.6c1.7-0.9,2.7-2.7,2.4-4.6C81.1,28.5,65.6,26.8,60.4,26.8z"/>
	<path fill="#FCDCBA" d="M74.2,50.9c-6.9,0-8.6-3.4-13.8-3.4c-5.2,0-6.9,3.4-13.8,3.4c-0.6,0-1.2,0-1.7-0.1v1.8
		c0,8.6,7.1,10.3,9.9,12.1s2.8,1.7,5.6,1.7c2.8,0,2.8,0,5.6-1.7s9.9-3.4,9.9-12.1v-1.8C75.4,50.9,74.8,50.9,74.2,50.9z"/>
	<path fill="#943F52" d="M62.1,59.6c-1,0-1.7-0.8-1.7-1.7c0-1,0.8-1.7,1.7-1.7c0.9-0.2,1.6-0.6,2.2-1.2c0.7-0.7,1.8-0.6,2.4,0
		s0.7,1.7,0,2.4C65.6,58.6,63.9,59.4,62.1,59.6z"/>
	<path fill="#346B93" d="M53.5,82c-0.7,0-1.3-0.4-1.6-1.1c-0.3-0.6-0.1-1.4,0.4-1.9l1.7-1.7c0.7-0.7,1.8-0.6,2.4,0
		c0.7,0.7,0.7,1.7,0,2.4l-1.7,1.7C54.4,81.8,54,82,53.5,82z"/>
	<path fill="#346B93" d="M60.4,83.7c-1,0-1.7-0.8-1.7-1.7v-1.7c0-1,0.8-1.7,1.7-1.7c1,0,1.7,0.8,1.7,1.7V82
		C62.1,82.9,61.4,83.7,60.4,83.7z"/>
	<path fill="#BDDBF2" d="M60.9,88.8c-3.3,6.3-7.4,13.9-13.6,24.2H19c-1.9,0-3.4-1.5-3.4-3.4V95.8c0-5.4,12.8-15.1,25.9-19v0.1
		c0,5.2,6.9,12.1,19,12.1C60.6,88.9,60.7,88.8,60.9,88.8z"/>
	<path fill="#BDDBF2" d="M101.5,89.4c-5.1,7.5-10.1,13.5-17.3,23.6h17.6c1.9,0,3.4-1.5,3.4-3.4V95.8C105.2,94,103.8,91.7,101.5,89.4
		z"/>
	<path fill="#346B93" d="M51.8,76.8h-1.7c-1,0-1.7-0.8-1.7-1.7s0.8-1.7,1.7-1.7h1.7c1,0,1.7,0.8,1.7,1.7S52.7,76.8,51.8,76.8z"/>
	<path fill="#F4A484" d="M60.4,80.2c2.5-0.2,4.8-1.3,6.5-3.1c-0.3,0.6-0.7,1.3-1,1.9c1-2,2.1-4,3.1-5.9v-10c-1.2,0.6-2.2,1.1-3,1.5
		c-2.8,1.7-2.8,1.7-5.6,1.7c-2.8,0-2.8,0-5.6-1.7c-0.8-0.5-1.8-0.9-3-1.5v11.9C54.4,77.7,57,80.2,60.4,80.2z"/>
	<path fill="#9FC6E7" d="M34.6,99.2V113h-3.4V99.2c0-1,0.8-1.7,1.7-1.7C33.8,97.5,34.6,98.3,34.6,99.2z"/>
	<path fill="#445C71" d="M79.4,42.2c0,0.2,0,0.5,0,0.7c0,6.6-0.5,8-5.2,8c-6.9,0-8.6-3.4-13.8-3.4c-5.2,0-6.9,3.4-13.8,3.4
		c-1.4,0.2-2.8-0.2-3.9-1c-1.1-1.1-1.2-3.4-1.2-7.7c0-1.1,0.5-2.1,1.3-2.8c5.2-4,12.9-4,17.6-4c4.7,0,12.4,0,17.6,4
		C78.9,40.1,79.4,41.1,79.4,42.2z"/>
	<path fill="#394F63" d="M79.4,42.9c0,6.6-0.5,8-5.2,8c-6.9,0-8.6-3.4-13.8-3.4c-5.2,0-6.9,3.4-13.8,3.4c-1.4,0.2-2.8-0.2-3.9-1
		C48.4,44.6,61.8,35.1,79.4,42.9z"/>
</g>
</svg>
