<?xml version="1.0" encoding="utf-8"?>
<!-- Generator: Adobe Illustrator 24.3.0, SVG Export Plug-In . SVG Version: 6.00 Build 0)  -->
<svg version="1.1" id="Layer_1" xmlns="http://www.w3.org/2000/svg" xmlns:xlink="http://www.w3.org/1999/xlink" x="0px" y="0px"
	 viewBox="0 0 126 126" enable-background="new 0 0 126 126" xml:space="preserve">
<g>
	<path fill="#A35F16" d="M37.6,95.5h-1.8c-11.6,0-21.1-9.4-21.1-21.1V57.7c0-6.3,5.1-11.4,11.4-11.4s11.4,5.1,11.4,11.4l1.8,29.5
		v8.5L37.6,95.5z"/>
	<path fill="#824C13" d="M106,113H46.3c-3.4-2.8-5.8-6.6-6.8-10.9c-1.3-5.7-2.6-9-2-17.4V58.6h10.5V35.8h63.2v48.3
		c0,7.5-1.1,15-3.3,22.2L106,113z"/>
	<path fill="#975815" d="M56,13c4.4,0,7.9,3.5,7.9,7.9v30.7H48.1V20.9C48.1,16.5,51.6,13,56,13z"/>
	<path fill="#A35F16" d="M71.8,13c4.4,0,7.9,3.5,7.9,7.9v30.7H63.9V20.9C63.9,16.5,67.4,13,71.8,13z"/>
	<path fill="#975815" d="M87.6,13c4.4,0,7.9,3.5,7.9,7.9v30.7H79.7V20.9C79.7,16.5,83.2,13,87.6,13z"/>
	<path fill="#A35F16" d="M103.4,13c4.4,0,7.9,3.5,7.9,7.9v30.7H95.5V20.9C95.5,16.5,99,13,103.4,13z"/>
	<path fill="#EAEAEA" d="M77.9,65.6c0,13.6-11,24.6-24.6,24.6c-13.6,0-24.6-11-24.6-24.6s11-24.6,24.6-24.6
		C66.9,41.1,77.9,52.1,77.9,65.6z"/>
	<path fill="#DADADA" d="M77.9,65.6c0,13.6-11,24.6-24.6,24.6c-13.6,0-24.6-11-24.6-24.6s11-24.6,24.6-24.6
		C66.9,41.1,77.9,52.1,77.9,65.6z"/>
	<path fill="#EAEAEA" d="M77.6,62.1c0-11.6-10.9-21.1-24.3-21.1s-24.3,9.4-24.3,21.1s10.9,21.1,24.3,21.1S77.6,73.7,77.6,62.1z"/>
	<path fill="#DC4C41" d="M43.9,85l-3.4-0.9c0.1-0.6,0.3-1.1,0.4-1.7l3.4,0.8C44.2,83.8,44,84.4,43.9,85z M44.7,81.4l-3.4-0.7
		c0.1-0.6,0.2-1.1,0.3-1.7l3.5,0.6C44.9,80.2,44.8,80.8,44.7,81.4z M45.3,77.8l-3.5-0.5c0.1-0.6,0.2-1.1,0.2-1.7l3.5,0.4
		C45.5,76.6,45.4,77.2,45.3,77.8L45.3,77.8z M45.7,74.2l-3.5-0.3c0-0.6,0.1-1.2,0.1-1.7l3.5,0.2C45.8,73,45.8,73.6,45.7,74.2
		L45.7,74.2z M45.9,70.5l-3.5-0.1c0-0.5,0-1,0-1.6l3.5-0.2C45.9,69.4,45.9,70,45.9,70.5L45.9,70.5z M42.4,67c0-0.6,0-1.2-0.1-1.7
		l3.5-0.2c0,0.6,0.1,1.2,0.1,1.8L42.4,67z M42.2,63.5c0-0.6-0.1-1.1-0.2-1.7l3.5-0.4c0.1,0.6,0.1,1.2,0.2,1.8L42.2,63.5z M41.8,60.1
		c-0.1-0.6-0.2-1.1-0.3-1.7l3.5-0.6c0.1,0.6,0.2,1.2,0.3,1.8L41.8,60.1z M41.2,56.7c-0.1-0.6-0.2-1.1-0.4-1.7l3.4-0.8
		c0.1,0.6,0.3,1.2,0.4,1.8L41.2,56.7z M40.4,53.3c-0.1-0.6-0.3-1.1-0.5-1.7l3.4-1c0.2,0.6,0.3,1.2,0.5,1.8L40.4,53.3z M39.4,50
		c-0.2-0.5-0.4-1.1-0.6-1.6l3.3-1.2c0.2,0.6,0.4,1.2,0.6,1.7L39.4,50z"/>
	<path fill="#DC4C41" d="M62.8,85c-0.2-0.6-0.3-1.2-0.4-1.8l3.4-0.8c0.1,0.6,0.3,1.1,0.4,1.7L62.8,85z M62,81.4
		c-0.1-0.6-0.2-1.2-0.3-1.8l3.5-0.6c0.1,0.6,0.2,1.1,0.3,1.7L62,81.4z M61.4,77.8c-0.1-0.6-0.2-1.2-0.2-1.8l3.5-0.4
		c0.1,0.6,0.1,1.1,0.2,1.7L61.4,77.8z M61,74.2c0-0.6-0.1-1.2-0.1-1.8l3.5-0.2c0,0.6,0.1,1.2,0.1,1.7L61,74.2z M60.8,70.5
		c0-0.6,0-1.1,0-1.7l3.5-0.2c0,0.7,0,1.2,0,1.7L60.8,70.5z M64.3,67l-3.5-0.1c0-0.6,0-1.2,0.1-1.8l3.5,0.2
		C64.4,65.8,64.3,66.4,64.3,67L64.3,67z M64.5,63.5L61,63.2c0.1-0.6,0.1-1.2,0.2-1.8l3.5,0.4C64.6,62.4,64.6,63,64.5,63.5L64.5,63.5
		z M64.9,60.1l-3.5-0.5c0.1-0.6,0.2-1.2,0.3-1.8l3.5,0.6C65.1,59,65,59.5,64.9,60.1L64.9,60.1z M65.5,56.7L62.1,56
		c0.1-0.6,0.2-1.2,0.4-1.8l3.4,0.8C65.8,55.6,65.6,56.1,65.5,56.7L65.5,56.7z M66.3,53.3l-3.4-0.9c0.2-0.6,0.3-1.2,0.5-1.8l3.4,1
		C66.6,52.2,66.4,52.8,66.3,53.3L66.3,53.3z M67.3,50l-3.3-1.1c0.2-0.6,0.4-1.2,0.6-1.7l3.3,1.2C67.6,48.9,67.4,49.5,67.3,50
		L67.3,50z"/>
	<path fill="#704110" d="M77.9,113h-3.5v-3.5h3.5V113z M77.9,106h-3.5v-3.5h3.5V106z M77.9,99h-3.5v-3.5h3.5V99z M72.2,95.5
		l-3.1-1.6l1.6-3.1l3.1,1.6L72.2,95.5z M66,92.3l-3.1-1.6l1.6-3.1l3.1,1.6L66,92.3z"/>
	<g>
		<path fill="#824C13" d="M67.4,28.8c-0.4,0-0.7-0.1-1.1-0.4l-7-5.3c-0.8-0.6-0.9-1.7-0.4-2.5s1.7-0.9,2.5-0.4l7,5.3
			c0.8,0.6,0.9,1.7,0.4,2.5C68.5,28.5,67.9,28.8,67.4,28.8z"/>
		<path fill="#824C13" d="M60.4,28.8c-1,0-1.8-0.8-1.8-1.8c0-0.6,0.3-1.1,0.7-1.4l7-5.3c0.8-0.6,1.9-0.4,2.5,0.4s0.4,1.9-0.4,2.5
			l-7,5.3C61.1,28.7,60.7,28.8,60.4,28.8z"/>
		<path fill="#824C13" d="M83.2,28.8c-0.4,0-0.7-0.1-1.1-0.4l-7-5.3c-0.8-0.6-0.9-1.7-0.4-2.5s1.7-0.9,2.5-0.4l7,5.3
			c0.8,0.6,0.9,1.7,0.4,2.5C84.2,28.5,83.7,28.8,83.2,28.8z"/>
		<path fill="#824C13" d="M76.2,28.8c-1,0-1.8-0.8-1.8-1.8c0-0.6,0.3-1.1,0.7-1.4l7-5.3c0.8-0.6,1.9-0.4,2.5,0.4s0.4,1.9-0.4,2.5
			l-7,5.3C76.9,28.7,76.5,28.8,76.2,28.8z"/>
		<path fill="#824C13" d="M99,28.8c-0.4,0-0.7-0.1-1.1-0.4l-7-5.3c-0.8-0.6-0.9-1.7-0.4-2.5s1.7-0.9,2.5-0.4l7,5.3
			c0.8,0.6,0.9,1.7,0.4,2.5C100,28.5,99.5,28.8,99,28.8z"/>
		<path fill="#824C13" d="M91.9,28.8c-1,0-1.8-0.8-1.8-1.8c0-0.6,0.3-1.1,0.7-1.4l7-5.3c0.8-0.6,1.9-0.4,2.5,0.4s0.4,1.9-0.4,2.5
			l-7,5.3C92.7,28.7,92.3,28.8,91.9,28.8z"/>
		<path fill="#824C13" d="M99,41.1c-0.4,0-0.7-0.1-1.1-0.4l-7-5.3c-0.8-0.6-0.9-1.7-0.4-2.5s1.7-0.9,2.5-0.4l7,5.3
			c0.8,0.6,0.9,1.7,0.4,2.5C100,40.8,99.5,41.1,99,41.1z"/>
		<path fill="#824C13" d="M91.9,41.1c-1,0-1.8-0.8-1.8-1.8c0-0.6,0.3-1.1,0.7-1.4l7-5.3c0.8-0.6,1.9-0.4,2.5,0.4s0.4,1.9-0.4,2.5
			l-7,5.3C92.7,40.9,92.3,41.1,91.9,41.1z"/>
		<path fill="#824C13" d="M83.2,41.1c-0.4,0-0.7-0.1-1.1-0.4l-7-5.3c-0.8-0.6-0.9-1.7-0.4-2.5s1.7-0.9,2.5-0.4l7,5.3
			c0.8,0.6,0.9,1.7,0.4,2.5C84.2,40.8,83.7,41.1,83.2,41.1z"/>
		<path fill="#824C13" d="M76.2,41.1c-1,0-1.8-0.8-1.8-1.8c0-0.6,0.3-1.1,0.7-1.4l7-5.3c0.8-0.6,1.9-0.4,2.5,0.4s0.4,1.9-0.4,2.5
			l-7,5.3C76.9,40.9,76.5,41.1,76.2,41.1z"/>
		<path fill="#824C13" d="M67.4,41.1c-0.4,0-0.7-0.1-1.1-0.4l-7-5.3c-0.8-0.6-0.9-1.7-0.4-2.5s1.7-0.9,2.5-0.4l7,5.3
			c0.8,0.6,0.9,1.7,0.4,2.5C68.5,40.8,67.9,41.1,67.4,41.1z"/>
		<path fill="#824C13" d="M60.4,41.1c-1,0-1.8-0.8-1.8-1.8c0-0.6,0.3-1.1,0.7-1.4l7-5.3c0.8-0.6,1.9-0.4,2.5,0.4s0.4,1.9-0.4,2.5
			l-7,5.3C61.1,40.9,60.7,41.1,60.4,41.1z"/>
	</g>
	<path fill="#704110" d="M104.4,102.2l-0.9-0.6c-0.7-0.5-1.4-1.1-2-1.6l2.3-2.6c0.6,0.5,1.1,1,1.7,1.4l0.9,0.6L104.4,102.2z
		 M98.9,97.2c-0.8-1-1.5-2-2.1-3.1l3.1-1.7c0.5,0.9,1.1,1.8,1.8,2.7L98.9,97.2z M95.1,90.6c-0.4-1.2-0.8-2.4-1-3.6l3.4-0.7
		c0.2,1.1,0.5,2.1,0.9,3.1L95.1,90.6z M93.7,83.2l0-3.6h3.5l0,3.5L93.7,83.2z M97.2,76.2h-3.5v-3.5h3.5V76.2z M97.2,69.1h-3.5v-3.5
		h3.5V69.1z M97.2,62.1h-3.5v-3.5h3.5V62.1z M97.2,55.1h-3.5v-3.5h3.5V55.1z"/>
</g>
</svg>
