<?xml version="1.0" encoding="utf-8"?>
<!-- Generator: Adobe Illustrator 24.3.0, SVG Export Plug-In . SVG Version: 6.00 Build 0)  -->
<svg version="1.1" id="Layer_1" xmlns="http://www.w3.org/2000/svg" xmlns:xlink="http://www.w3.org/1999/xlink" x="0px" y="0px"
	 viewBox="0 0 126 126" enable-background="new 0 0 126 126" xml:space="preserve">
<g>
	<path fill="#EDE5F2" d="M63.4,101.8l-27,9.4c-2.8,1-5.8-0.5-6.7-3.3L14.9,65.6c-1-2.8,0.5-5.8,3.3-6.7L32.3,54l12.9-4.5
		c2.8-1,5.8,0.5,6.7,3.3l11.8,33.9l2.9,8.4C67.6,97.8,66.2,100.9,63.4,101.8z"/>
	<path fill="#CDBFDF" d="M63.7,86.7H37.6c-2.9,0-5.3-2.4-5.3-5.3V54l12.9-4.5c2.8-1,5.8,0.5,6.7,3.3L63.7,86.7z"/>
	<path fill="#E74892" d="M44.5,91.1C33.1,90,25.7,77.6,30.4,74.3s9.5,3.6,9.5,3.6s-0.6-8.4,5.2-8.7C50.9,68.8,52.8,83.2,44.5,91.1z"
		/>
	<path fill="#EDE5F2" d="M77,31.5v44.8c0,0.1,0,0.3,0,0.4c-0.2,2.7-2.5,4.9-5.3,4.9H43.1c-2.9,0-5.3-2.4-5.3-5.3V31.5
		c0-2.9,2.4-5.3,5.3-5.3h28.6C74.6,26.2,77,28.5,77,31.5z"/>
	<path fill="#CDBFDF" d="M77,31.5v44.8c0,0.1,0,0.3,0,0.4l-17.1-4.5c-2.8-0.7-4.5-3.6-3.8-6.5l10.4-39.5h5.1
		C74.6,26.2,77,28.5,77,31.5z"/>
	<path fill="#4F4F75" d="M57.4,41.1c8.6,4,11,15.7,6.4,17c-4.6,1.3-6.4-5.4-6.4-5.4s-1.8,6.7-6.4,5.4C46.4,56.8,48.8,45.1,57.4,41.1
		z"/>
	<path fill="#EDE5F2" d="M65.6,68.2l27.7,7.3c2.8,0.7,5.7-0.9,6.5-3.8l11.4-43.3c0.7-2.8-0.9-5.7-3.8-6.5l-27.7-7.3
		c-2.8-0.7-5.7,0.9-6.5,3.8L61.9,61.7C61.1,64.6,62.8,67.5,65.6,68.2z"/>
	<path fill="#E74892" d="M83.4,56.8c3.9-4.6,8.8-7.5,14.8-8.6c-4.6-3.9-7.5-8.8-8.6-14.8c-3.9,4.6-8.8,7.5-14.8,8.6
		C79.5,45.9,82.3,50.8,83.4,56.8z"/>
	<path d="M64.9,85.5c-0.3-0.8-1.1-1.2-1.9-0.9c-0.8,0.3-1.2,1.1-0.9,1.9l3.2,9.1c0.3,1,0.3,2-0.2,2.9s-1.2,1.6-2.2,1.9l-11,3.8
		c-0.8,0.3-1.2,1.1-0.9,1.9c0.2,0.6,0.8,1,1.4,1c0.2,0,0.3,0,0.5-0.1l11-3.8c3.5-1.2,5.4-5.1,4.2-8.6L64.9,85.5z"/>
	<path d="M47.1,105.9l-11.2,3.9c-1,0.3-2,0.3-2.9-0.2c-0.9-0.4-1.6-1.2-1.9-2.2L16.3,65.2c-0.7-2,0.4-4.2,2.4-4.9l15.6-5.4
		c0.8-0.3,1.2-1.1,0.9-1.9c-0.3-0.8-1.1-1.2-1.9-0.9l-15.6,5.4c-1.7,0.6-3.1,1.8-3.9,3.4c-0.8,1.6-0.9,3.5-0.3,5.2l14.7,42.3
		c0.6,1.7,1.8,3.1,3.4,3.9c0.9,0.5,1.9,0.7,2.9,0.7c0.7,0,1.5-0.1,2.2-0.4l11.2-3.9c0.8-0.3,1.2-1.1,0.9-1.9
		C48.7,106.1,47.8,105.7,47.1,105.9z"/>
	<path d="M49.1,84c-0.8-0.3-1.6,0-1.9,0.8c-0.8,1.8-1.8,3.4-3.2,4.8c-7.2-1-12.3-6.8-13.3-10.8c-0.3-1.1-0.4-2.6,0.6-3.3
		c0.7-0.5,1.5-0.7,2.3-0.6c0.8,0.1,1.6-0.5,1.7-1.3c0.1-0.8-0.5-1.6-1.3-1.7c-1.5-0.2-3,0.2-4.3,1.1c-1.9,1.3-2.5,3.7-1.8,6.5
		c0.7,2.8,2.8,5.8,5.6,8.3c2.2,1.9,6,4.3,11,4.8c0,0,0.1,0,0.1,0c0.4,0,0.8-0.1,1-0.4c1.8-1.7,3.3-3.8,4.3-6.2
		C50.2,85.2,49.8,84.3,49.1,84z"/>
	<path d="M34.8,105.9c1.3,0.5,2.5-0.9,1.9-2.1c-0.3-0.5-0.9-0.8-1.4-0.7c-0.6,0.1-1.2,0.5-1.3,1.2C33.7,104.9,34.1,105.6,34.8,105.9
		z"/>
	<path d="M77,74.8c-0.8,0-1.5,0.7-1.5,1.5c0,2.1-1.7,3.8-3.8,3.8H43.1c-2.1,0-3.8-1.7-3.8-3.8V31.5c0-2.1,1.7-3.8,3.8-3.8h23.2
		c0.8,0,1.5-0.7,1.5-1.5s-0.7-1.5-1.5-1.5H43.1c-3.7,0-6.8,3-6.8,6.8v44.8c0,3.7,3,6.8,6.8,6.8h28.6c3.7,0,6.8-3,6.8-6.8
		C78.5,75.4,77.8,74.8,77,74.8z"/>
	<path d="M56.4,42.8c1.4,0.7,2.7,1.8,3.8,3c0.5,0.6,1.5,0.7,2.1,0.1c0.6-0.5,0.7-1.5,0.1-2.1c-1.5-1.8-3.4-3.1-5.4-4.1
		c-0.4-0.2-0.8-0.2-1.2,0c-3.9,1.8-6.1,4.7-7.4,6.8c-1.6,2.7-2.4,5.7-2.2,8.1c0.2,2.5,1.4,4.2,3.4,4.8c0.5,0.1,1,0.2,1.5,0.2
		c0.9,0,1.8-0.2,2.6-0.7c0.4-0.2,0.8-0.5,1.2-0.9v4.7h-3.1c-0.8,0-1.5,0.7-1.5,1.5c0,0.8,0.7,1.5,1.5,1.5H57c0.8,0,1.5-0.7,1.5-1.5
		c0-0.5-0.2-0.9-0.6-1.2v-5c0.6,0.4,1.4,0.4,1.9-0.1c0.6-0.6,0.6-1.5,0-2.1c-1.3-1.3-2-3.6-2-3.6c-0.2-0.6-0.8-1.1-1.4-1.1
		s-1.3,0.4-1.4,1.1c-0.2,0.8-1.2,3.3-2.7,4.2c-0.6,0.3-1.2,0.4-1.9,0.2c-0.9-0.3-1.1-1.5-1.2-2.2C48.9,51.3,51.3,45.5,56.4,42.8z"/>
	<path d="M44.9,73.5c-0.6-0.2-1.3-0.1-1.7,0.4c-0.4,0.5-0.5,1.2-0.1,1.8c0.3,0.5,0.9,0.8,1.5,0.7c0.6-0.1,1.1-0.6,1.2-1.2
		C45.9,74.4,45.5,73.8,44.9,73.5z"/>
	<path d="M111.9,23.7c-0.9-1.6-2.4-2.7-4.1-3.1l-27.7-7.3c-3.6-1-7.3,1.2-8.3,4.8L60.4,61.4c-1,3.6,1.2,7.3,4.8,8.3L92.9,77
		c0.6,0.2,1.2,0.2,1.7,0.2c1.2,0,2.3-0.3,3.4-0.9c1.6-0.9,2.7-2.4,3.1-4.1l4.3-16.1c0.2-0.8-0.3-1.6-1.1-1.8
		c-0.8-0.2-1.6,0.3-1.8,1.1l-4.3,16.1c-0.3,1-0.9,1.8-1.8,2.3c-0.9,0.5-1.9,0.7-2.9,0.4L66,66.8c-2-0.5-3.3-2.6-2.7-4.7l11.4-43.3
		c0.3-1,0.9-1.8,1.8-2.3c0.9-0.5,1.9-0.7,2.9-0.4l27.7,7.3c1,0.3,1.8,0.9,2.3,1.8c0.5,0.9,0.7,1.9,0.4,2.9l-5.7,21.5
		c-0.2,0.8,0.3,1.6,1.1,1.8c0.8,0.2,1.6-0.3,1.8-1.1l5.7-21.5C113.1,27.1,112.9,25.2,111.9,23.7z"/>
	<path d="M104.5,29.6c1.3,0,2-1.7,1-2.6c-1-0.9-2.6,0-2.4,1.3C103.2,29,103.8,29.6,104.5,29.6z"/>
	<path d="M69.8,61.2c-0.7-1.1-2.5-0.7-2.7,0.6c-0.2,1.3,1.3,2.2,2.3,1.4C70,62.8,70.2,61.9,69.8,61.2z"/>
	<path d="M91.1,33.1c-0.1-0.6-0.5-1-1.1-1.2c-0.6-0.1-1.1,0-1.5,0.5c-3.7,4.4-8.3,7.1-13.9,8.1c-0.6,0.1-1,0.5-1.2,1.1
		s0,1.1,0.5,1.5c4.4,3.7,7.1,8.3,8.1,13.9c0.1,0.6,0.5,1,1.1,1.2c0.1,0,0.3,0,0.4,0c0.4,0,0.8-0.2,1.1-0.5c3.7-4.4,8.3-7.1,13.9-8.1
		c0.6-0.1,1-0.5,1.2-1.1s0-1.1-0.5-1.5C94.8,43.4,92.1,38.7,91.1,33.1z M84.2,53.7c-1.2-4.2-3.3-7.8-6.4-10.9
		c4.2-1.2,7.8-3.3,10.9-6.4c1.2,4.2,3.3,7.8,6.4,10.9C91,48.6,87.4,50.7,84.2,53.7z"/>
</g>
</svg>
