<?xml version="1.0" encoding="utf-8"?>
<!-- Generator: Adobe Illustrator 24.3.0, SVG Export Plug-In . SVG Version: 6.00 Build 0)  -->
<svg version="1.1" id="Layer_1" xmlns="http://www.w3.org/2000/svg" xmlns:xlink="http://www.w3.org/1999/xlink" x="0px" y="0px"
	 viewBox="0 0 126 126" enable-background="new 0 0 126 126" xml:space="preserve">
<g>
	<path fill="#333333" d="M103.9,87.2c0-4.8-16.6-8.7-40.9-8.7s-40.9,3.9-40.9,8.7l-3-16.6c0-4.8,19.7-8.7,43.9-8.7
		s43.9,3.9,43.9,8.7L103.9,87.2z"/>
	<polygon fill="#808080" points="23.3,35.9 63,13 102.7,35.9 102.7,90.1 63,113 23.3,90.1 	"/>
	<polygon fill="#383838" points="26,88.5 26,37.5 63,16.2 100,37.5 100,88.5 63,109.8 	"/>
	
		<radialGradient id="SVGID_1_" cx="79.5678" cy="107.3727" r="24.2977" gradientTransform="matrix(1 0 0 -1 0 126)" gradientUnits="userSpaceOnUse">
		<stop  offset="0" style="stop-color:#F7AA12"/>
		<stop  offset="0.18" style="stop-color:#F6A414"/>
		<stop  offset="0.41" style="stop-color:#F39519"/>
		<stop  offset="0.43" style="stop-color:#F39419"/>
		<stop  offset="0.69" style="stop-color:#FCF086"/>
		<stop  offset="0.76" style="stop-color:#FFCD38"/>
		<stop  offset="0.81" style="stop-color:#FFD239"/>
		<stop  offset="0.85" style="stop-color:#FFDB3F"/>
		<stop  offset="0.94" style="stop-color:#F08418"/>
		<stop  offset="0.96" style="stop-color:#F08819"/>
		<stop  offset="0.97" style="stop-color:#F39519"/>
		<stop  offset="0.99" style="stop-color:#F7A912"/>
		<stop  offset="0.99" style="stop-color:#F7AA12"/>
	</radialGradient>
	<path fill="url(#SVGID_1_)" d="M63.1,28.1c1.9,0,3.1-0.3,3.4-0.6l0.9-5.9l-2.2,3.1L63,21.7l-2.2,3.1l-2.2-3.1l1,5.9
		C60,27.8,61.1,28.1,63.1,28.1z"/>
	
		<radialGradient id="SVGID_2_" cx="79.5678" cy="107.3727" r="24.2977" gradientTransform="matrix(1 0 0 -1 0 126)" gradientUnits="userSpaceOnUse">
		<stop  offset="0" style="stop-color:#F7AA12"/>
		<stop  offset="0.18" style="stop-color:#F6A414"/>
		<stop  offset="0.41" style="stop-color:#F39519"/>
		<stop  offset="0.43" style="stop-color:#F39419"/>
		<stop  offset="0.69" style="stop-color:#FCF086"/>
		<stop  offset="0.76" style="stop-color:#FFCD38"/>
		<stop  offset="0.81" style="stop-color:#FFD239"/>
		<stop  offset="0.85" style="stop-color:#FFDB3F"/>
		<stop  offset="0.94" style="stop-color:#F08418"/>
		<stop  offset="0.96" style="stop-color:#F08819"/>
		<stop  offset="0.97" style="stop-color:#F39519"/>
		<stop  offset="0.99" style="stop-color:#F7A912"/>
		<stop  offset="0.99" style="stop-color:#F7AA12"/>
	</radialGradient>
	<path fill="url(#SVGID_2_)" d="M66.4,28.4c-1.1,0.4-2.2,0.5-3.3,0.5c-1.1,0-2.3-0.1-3.3-0.5l0.1,0.3l0,0c0,0.4,1.5,0.7,3.3,0.7
		s3.3-0.3,3.3-0.7l0,0L66.4,28.4z"/>
	<path fill="#FFFFFF" d="M72.3,27.2c-0.3,0.6-1.1,0.8-1.6,0.5c0,0,0,0,0,0c-0.6-0.4-0.7-1.1-0.4-1.7c0.3-0.5,1-0.7,1.6-0.4
		C72.4,25.9,72.6,26.6,72.3,27.2C72.3,27.2,72.3,27.2,72.3,27.2z"/>
	<path fill="#FFFFFF" d="M77.3,30c-0.3,0.5-1,0.7-1.5,0.4s-0.7-1-0.4-1.5c0.3-0.5,1-0.7,1.5-0.4c0,0,0,0,0,0
		C77.5,28.9,77.6,29.5,77.3,30z"/>
	<path fill="#FFFFFF" d="M82.4,32.9c-0.3,0.5-0.8,0.6-1.3,0.4c-0.5-0.3-0.6-0.8-0.4-1.3c0.3-0.5,0.8-0.6,1.3-0.4c0,0,0,0,0,0
		C82.5,31.8,82.6,32.4,82.4,32.9z"/>
	<path fill="#FFFFFF" d="M87.4,35.7c-0.2,0.4-0.7,0.5-1.1,0.3c-0.4-0.2-0.5-0.7-0.3-1.1c0.2-0.4,0.7-0.5,1.1-0.3
		C87.5,34.8,87.6,35.3,87.4,35.7z"/>
	<path fill="#FFFFFF" d="M92.5,38.6c-0.2,0.3-0.6,0.4-0.9,0.3s-0.4-0.6-0.3-0.9c0.2-0.3,0.6-0.4,0.9-0.3
		C92.5,37.8,92.6,38.2,92.5,38.6L92.5,38.6z"/>
	<path fill="#FFFFFF" d="M53.7,27.2c0.3,0.6,1.1,0.8,1.6,0.5c0,0,0,0,0,0c0.6-0.4,0.7-1.1,0.4-1.7c-0.3-0.5-1-0.7-1.6-0.4
		C53.6,25.9,53.4,26.6,53.7,27.2C53.7,27.2,53.7,27.2,53.7,27.2z"/>
	<path fill="#FFFFFF" d="M48.7,30c0.3,0.5,0.9,0.7,1.5,0.4c0.5-0.3,0.7-0.9,0.4-1.5s-0.9-0.7-1.5-0.4c0,0,0,0,0,0
		C48.6,28.9,48.4,29.5,48.7,30z"/>
	<path fill="#FFFFFF" d="M43.6,32.9c0.3,0.5,0.8,0.6,1.3,0.4c0.5-0.3,0.6-0.8,0.4-1.3c-0.3-0.5-0.8-0.6-1.3-0.4c0,0,0,0,0,0
		C43.5,31.8,43.4,32.4,43.6,32.9z"/>
	<path fill="#FFFFFF" d="M38.6,35.7c0.2,0.4,0.7,0.5,1.1,0.3c0.4-0.2,0.5-0.7,0.3-1.1c-0.2-0.4-0.7-0.5-1.1-0.3
		C38.5,34.8,38.4,35.3,38.6,35.7z"/>
	<path fill="#FFFFFF" d="M33.5,38.6c0.2,0.3,0.6,0.4,0.9,0.3c0.3-0.2,0.4-0.6,0.3-0.9c-0.2-0.3-0.6-0.4-0.9-0.3
		C33.5,37.8,33.4,38.2,33.5,38.6L33.5,38.6z"/>
	<path fill="#FFFFFF" d="M72.3,100.9c-0.3-0.6-1.1-0.8-1.6-0.5c0,0,0,0,0,0c-0.6,0.3-0.8,1.1-0.5,1.6c0.3,0.6,1,0.8,1.6,0.6
		c0.6-0.3,0.8-1,0.6-1.6C72.3,101,72.3,101,72.3,100.9z"/>
	<path fill="#FFFFFF" d="M77.3,98.1c-0.3-0.5-1-0.7-1.5-0.4c-0.5,0.3-0.7,1-0.4,1.5c0.3,0.5,1,0.7,1.5,0.4c0,0,0,0,0,0
		C77.5,99.2,77.6,98.6,77.3,98.1z"/>
	<path fill="#FFFFFF" d="M82.4,95.3c-0.3-0.5-0.8-0.6-1.3-0.4s-0.6,0.8-0.4,1.3c0.3,0.5,0.8,0.6,1.3,0.4c0,0,0,0,0,0
		C82.5,96.3,82.6,95.7,82.4,95.3z"/>
	<path fill="#FFFFFF" d="M87.4,92.4c-0.2-0.4-0.7-0.5-1.1-0.3s-0.5,0.7-0.3,1.1c0.2,0.4,0.7,0.5,1.1,0.3
		C87.5,93.3,87.6,92.8,87.4,92.4C87.4,92.4,87.4,92.4,87.4,92.4z"/>
	<path fill="#FFFFFF" d="M92.5,89.6c-0.2-0.3-0.6-0.5-0.9-0.3c-0.3,0.2-0.5,0.6-0.3,0.9c0.2,0.3,0.6,0.5,0.9,0.3c0,0,0,0,0.1,0
		C92.5,90.3,92.6,89.9,92.5,89.6z"/>
	<path fill="#FFFFFF" d="M53.7,100.9c0.3-0.6,1.1-0.8,1.6-0.5c0,0,0,0,0,0c0.6,0.3,0.8,1.1,0.5,1.6c-0.3,0.6-1,0.8-1.6,0.6
		c-0.6-0.3-0.8-1-0.6-1.6C53.7,101,53.7,101,53.7,100.9z"/>
	<path fill="#FFFFFF" d="M48.7,98.1c0.3-0.5,0.9-0.7,1.5-0.4c0.5,0.3,0.7,0.9,0.4,1.5s-0.9,0.7-1.5,0.4c0,0,0,0,0,0
		C48.6,99.3,48.4,98.6,48.7,98.1z"/>
	<path fill="#FFFFFF" d="M43.6,95.3c0.3-0.5,0.8-0.6,1.3-0.4c0.5,0.3,0.6,0.8,0.4,1.3c-0.3,0.5-0.8,0.6-1.3,0.4c0,0,0,0,0,0
		C43.5,96.3,43.4,95.7,43.6,95.3z"/>
	<path fill="#FFFFFF" d="M38.6,92.4c0.2-0.4,0.7-0.5,1.1-0.3c0.4,0.2,0.5,0.7,0.3,1.1c-0.2,0.4-0.7,0.5-1.1,0.3
		C38.5,93.3,38.4,92.8,38.6,92.4C38.6,92.4,38.6,92.4,38.6,92.4z"/>
	<path fill="#FFFFFF" d="M33.5,89.6c0.2-0.3,0.6-0.5,0.9-0.3c0.3,0.2,0.5,0.6,0.3,0.9c-0.2,0.3-0.6,0.5-0.9,0.3c0,0,0,0-0.1,0
		C33.5,90.3,33.4,89.9,33.5,89.6z"/>
	
		<radialGradient id="SVGID_3_" cx="59.5015" cy="82.6999" r="31.0592" gradientTransform="matrix(1 0 0 -1 0 126)" gradientUnits="userSpaceOnUse">
		<stop  offset="0" style="stop-color:#F7AA12"/>
		<stop  offset="0.18" style="stop-color:#F6A414"/>
		<stop  offset="0.41" style="stop-color:#F39519"/>
		<stop  offset="0.43" style="stop-color:#F39419"/>
		<stop  offset="0.69" style="stop-color:#FCF086"/>
		<stop  offset="0.76" style="stop-color:#FFCD38"/>
		<stop  offset="0.81" style="stop-color:#FFD239"/>
		<stop  offset="0.85" style="stop-color:#FFDB3F"/>
		<stop  offset="0.94" style="stop-color:#F08418"/>
		<stop  offset="0.96" style="stop-color:#F08819"/>
		<stop  offset="0.97" style="stop-color:#F39519"/>
		<stop  offset="0.99" style="stop-color:#F7A912"/>
		<stop  offset="0.99" style="stop-color:#F7AA12"/>
	</radialGradient>
	<polygon fill="url(#SVGID_3_)" points="38.4,55.9 39.5,58.1 41.9,58.4 40.1,60.1 40.6,62.5 38.4,61.4 36.2,62.5 36.6,60.1 
		34.9,58.4 37.3,58.1 	"/>
	
		<radialGradient id="SVGID_4_" cx="108.7163" cy="82.6999" r="31.0592" gradientTransform="matrix(1 0 0 -1 0 126)" gradientUnits="userSpaceOnUse">
		<stop  offset="0" style="stop-color:#F7AA12"/>
		<stop  offset="0.18" style="stop-color:#F6A414"/>
		<stop  offset="0.41" style="stop-color:#F39519"/>
		<stop  offset="0.43" style="stop-color:#F39419"/>
		<stop  offset="0.69" style="stop-color:#FCF086"/>
		<stop  offset="0.76" style="stop-color:#FFCD38"/>
		<stop  offset="0.81" style="stop-color:#FFD239"/>
		<stop  offset="0.85" style="stop-color:#FFDB3F"/>
		<stop  offset="0.94" style="stop-color:#F08418"/>
		<stop  offset="0.96" style="stop-color:#F08819"/>
		<stop  offset="0.97" style="stop-color:#F39519"/>
		<stop  offset="0.99" style="stop-color:#F7A912"/>
		<stop  offset="0.99" style="stop-color:#F7AA12"/>
	</radialGradient>
	<polygon fill="url(#SVGID_4_)" points="87.6,55.9 88.7,58.1 91.1,58.4 89.4,60.1 89.8,62.5 87.6,61.4 85.4,62.5 85.9,60.1 
		84.1,58.4 86.5,58.1 	"/>
	<path fill="#676767" d="M106.9,70.2c0,4.8-19.7,8.7-43.9,8.7S19.1,75,19.1,70.2l3,16.7c0,4.8,16.6,8.7,40.9,8.7s40.9-3.9,40.9-8.7
		L106.9,70.2z"/>
	<path fill="#989898" d="M106.9,70.2c0,0.5-0.2,1-0.5,1.3c-0.3,0.4-0.7,0.7-1,1c-0.8,0.6-1.6,1-2.5,1.4c-1.8,0.7-3.6,1.3-5.5,1.8
		c-3.7,0.9-7.5,1.6-11.3,2c-7.6,0.9-15.3,1.4-23,1.3c-7.7,0-15.4-0.4-23-1.3c-3.8-0.5-7.6-1.1-11.3-2c-1.9-0.5-3.7-1.1-5.5-1.8
		c-0.9-0.4-1.7-0.8-2.5-1.4c-0.4-0.3-0.7-0.6-1-1c-0.3-0.4-0.5-0.8-0.5-1.3c0,0.5,0.2,0.9,0.5,1.3c0.3,0.4,0.7,0.7,1.1,1
		c0.8,0.5,1.6,1,2.5,1.3c1.8,0.7,3.6,1.3,5.5,1.7c3.7,0.9,7.5,1.5,11.3,1.9c7.6,0.9,15.3,1.3,23,1.3c7.7,0,15.4-0.4,23-1.2
		c3.8-0.4,7.6-1.1,11.3-1.9c1.9-0.4,3.7-1,5.5-1.7c0.9-0.4,1.7-0.8,2.5-1.3c0.4-0.3,0.8-0.6,1.1-1C106.7,71.2,106.9,70.7,106.9,70.2
		z"/>
	<path fill="#FFFFFF" d="M63.1,86.8c-3.1,0-6.1-0.6-9-1.6c-3.1-1.1-6-2.8-8.4-5l7-8.3c1.6,1.3,3.4,2.4,5.3,3.2
		c1.7,0.8,3.5,1.2,5.4,1.2c1.4,0.1,2.8-0.2,4-0.9c0.8-0.5,1.3-1.4,1.2-2.4c0-0.5-0.1-1-0.4-1.4c-0.3-0.4-0.8-0.8-1.2-1.1
		c-0.6-0.4-1.3-0.7-2-1c-0.8-0.3-1.6-0.6-2.6-1l-5.7-2.4c-1.3-0.5-2.4-1.1-3.5-1.9c-1.1-0.8-2.1-1.7-3-2.8c-0.9-1.1-1.5-2.3-2-3.6
		c-0.5-1.4-0.8-3-0.8-4.5c0-1.9,0.4-3.8,1.3-5.6c0.9-1.7,2.1-3.3,3.5-4.5c1.6-1.4,3.4-2.4,5.4-3.1c2.2-0.8,4.6-1.2,6.9-1.1
		c2.8,0,5.5,0.5,8.1,1.4c2.7,1,5.2,2.6,7.3,4.7l-6.1,7.7c-1.4-1-2.9-1.8-4.5-2.5c-1.5-0.6-3.1-0.9-4.7-0.9c-1.2-0.1-2.5,0.2-3.5,0.8
		c-0.8,0.5-1.3,1.4-1.3,2.3c0,1.1,0.7,2.1,1.8,2.5c1.2,0.6,2.9,1.3,5,2.1l5.6,2.2c2.6,0.9,4.9,2.6,6.7,4.7c1.6,2.3,2.5,5,2.3,7.9
		c0,4-1.7,7.7-4.7,10.3c-1.7,1.4-3.6,2.5-5.6,3.2C68.3,86.4,65.7,86.8,63.1,86.8z"/>
</g>
</svg>
