<?xml version="1.0" encoding="utf-8"?>
<!-- Generator: Adobe Illustrator 24.3.0, SVG Export Plug-In . SVG Version: 6.00 Build 0)  -->
<svg version="1.1" id="Layer_1" xmlns="http://www.w3.org/2000/svg" xmlns:xlink="http://www.w3.org/1999/xlink" x="0px" y="0px"
	 viewBox="0 0 126 126" enable-background="new 0 0 126 126" xml:space="preserve">
<g>
	<circle fill="#F5BB2B" cx="63" cy="63" r="39.8"/>
	<path fill="#E6E5E5" d="M108.6,84.3l-2.2,7.2c-3.5-1.1-5.6-0.6-7.7-0.2c-2.1,0.5-4.1,1-7.7-0.2c-3.5-1.1-4.9-2.8-6.3-4.4
		c-0.9-1-1.7-2-3-2.8c-0.9-0.6-2-1.1-3.3-1.6l6.7-21.8c3.5,1.1,4.9,2.8,6.3,4.4c1.4,1.7,2.9,3.3,6.3,4.4s5.6,0.6,7.7,0.2
		c2.1-0.5,4.1-1,7.7,0.2l-2.2,7.3L108.6,84.3L108.6,84.3z"/>
	<g>
		<path fill="#31474C" d="M110.7,77l-2.2,7.2c-3.5-1.1-5.6-0.6-7.7-0.2l2.2-7.2C105.1,76.4,107.2,75.9,110.7,77z M100.9,84.2
			l-2.2,7.2c-2.1,0.5-4.1,1-7.7-0.2l2.2-7.3C96.7,85.1,98.8,84.7,100.9,84.2z"/>
		<path fill="#31474C" d="M105.3,69.7l-2.2,7.3c-2.1,0.5-4.1,1-7.7-0.2l2.2-7.2C101.1,70.6,103.2,70.1,105.3,69.7z M95.4,76.8
			l-2.2,7.3c-3.5-1.1-4.9-2.8-6.3-4.4l2.2-7.2C90.5,74,91.9,75.6,95.4,76.8z M91.3,65.1L89,72.4c-1.4-1.7-2.9-3.3-6.3-4.4l2.2-7.2
			C88.4,61.8,89.8,63.5,91.3,65.1z M86.8,79.7L84.6,87c-0.9-1-1.7-2-3-2.8c-0.9-0.6-2-1.1-3.3-1.6l2.2-7.2
			C84,76.4,85.4,78,86.8,79.7z"/>
	</g>
	<path fill="#E0990F" d="M72,59.7l-6.1,19.4l-0.1,0.2l-6.6,21.5l-5.6-0.2L65,63.5C65,63.5,72,59.7,72,59.7z"/>
	<path fill="#F3C91A" d="M71.8,60.6l-12.4,40.2l-3.2-0.2l11.1-37.7L71.8,60.6z"/>
	<path opacity="0.4" enable-background="new    " d="M109.1,69L106,79.7c-4.8-1.7-7.7-1-10.6-0.2c-2.9,0.7-5.7,1.5-10.6-0.2
		c-2.1-0.7-3.7-1.6-4.9-2.5c1.3-4.4,2.9-9.8,7.7-8.1s7.1,4,10,3.2c2.9-0.7,6.4-2.6,11.2-2.9L109.1,69L109.1,69z"/>
	<path fill="#E6E5E5" d="M106.9,66l-3,10.6c-4.8-1.7-7.7-1-10.6-0.2c-2.9,0.7-5.7,1.5-10.6-0.2c-4.8-1.7-6.8-4-8.8-6.4
		c-1.2-1.4-2.4-2.9-4.1-4.1c-1.2-0.9-2.7-1.7-4.7-2.3l9.1-31.8c4.8,1.7,6.8,4,8.8,6.4c2,2.4,4,4.8,8.8,6.4s7.7,1,10.6,0.2
		c2.9-0.7,5.7-1.5,10.6,0.2l-3,10.6L106.9,66L106.9,66z"/>
	<g>
		<path fill="#31474C" d="M110,55.4L107,66c-4.8-1.7-7.7-1-10.6-0.2l3-10.6C102.2,54.4,105.1,53.7,110,55.4z M96.3,65.8l-3,10.6
			c-2.9,0.7-5.7,1.5-10.6-0.2l3-10.6C90.5,67.3,93.5,66.6,96.3,65.8z M102.4,44.6l-3,10.6c-2.9,0.7-5.7,1.5-10.6-0.2l3-10.6
			C96.7,46,99.6,45.3,102.4,44.6z M88.8,55l-3,10.6c-4.8-1.7-6.8-4-8.8-6.4l3-10.6C82,50.9,84,53.3,88.8,55z M83.1,37.9l-3,10.6
			c-2-2.4-4-4.8-8.8-6.4l3-10.6C79.1,33.2,81.1,35.5,83.1,37.9z M77,59.2l-3,10.6c-1.2-1.4-2.4-2.9-4.1-4.1
			c-1.2-0.9-2.7-1.7-4.7-2.3l3-10.6C73,54.4,75,56.8,77,59.2z"/>
	</g>
	<path opacity="0.4" enable-background="new    " d="M66.8,76.6L62.1,92l-2.9-9.2L64,67.6C64,67.6,66.8,76.6,66.8,76.6z"/>
	<g>
		<path fill="#E6E5E5" d="M15.3,77l-2.2-7.3c3.5-1.1,5.6-0.6,7.7-0.2c2.1,0.5,4.1,1,7.7-0.2s4.9-2.8,6.3-4.4
			c1.4-1.7,2.9-3.3,6.3-4.4l6.7,21.8c-1.4,0.5-2.5,1-3.3,1.6c-1.3,0.9-2.1,1.8-3,2.8c-1.4,1.7-2.9,3.3-6.3,4.4
			c-3.5,1.1-5.6,0.6-7.7,0.2c-2.1-0.5-4.1-1-7.7,0.2l-2.2-7.2C17.5,84.3,15.3,77,15.3,77z"/>
		<g>
			<path fill="#31474C" d="M22.9,76.9l2.2,7.2c-2.1-0.5-4.1-1-7.7,0.2L15.2,77C18.8,75.9,20.9,76.4,22.9,76.9z M25.1,84.2
				c2.1,0.5,4.1,1,7.7-0.2l2.2,7.3c-3.5,1.1-5.6,0.6-7.7,0.2C27.4,91.5,25.1,84.2,25.1,84.2z"/>
			<path fill="#31474C" d="M28.4,69.5l2.2,7.3c-3.5,1.1-5.6,0.6-7.7,0.2l-2.2-7.3C22.8,70.1,24.9,70.6,28.4,69.5z M30.6,76.8
				c3.5-1.1,4.9-2.8,6.3-4.4l2.2,7.2c-1.4,1.7-2.9,3.3-6.3,4.4L30.6,76.8z M41.1,60.7l2.2,7.2c-3.5,1.1-4.9,2.8-6.3,4.4l-2.2-7.2
				C36.2,63.5,37.6,61.8,41.1,60.7z M45.5,75.2l2.2,7.2c-1.4,0.5-2.5,1-3.3,1.6c-1.3,0.9-2.1,1.8-3,2.8l-2.2-7.1
				C40.6,78,42,76.4,45.5,75.2z"/>
		</g>
		<path fill="#E0990F" d="M60.9,63.4l11.3,37.1l-5.6,0.2L60,79.3l-0.1-0.2l-6.1-19.4L60.9,63.4L60.9,63.4z"/>
		<path fill="#F3C91A" d="M58.7,63l11.1,37.7l-3.2,0.2L54.2,60.6C54.2,60.6,58.7,63,58.7,63z"/>
		<path opacity="0.4" enable-background="new    " d="M17.1,69.1c4.8,0.2,8.3,2.1,11.2,2.9c2.9,0.7,5.2-1.5,10-3.2s6.3,3.7,7.7,8.1
			c-1.3,1-2.8,1.7-4.9,2.5c-4.8,1.7-7.7,1-10.6,0.2c-2.9-0.7-5.7-1.5-10.6,0.2L16.9,69C16.9,69,17.1,69.1,17.1,69.1z"/>
		<path fill="#E6E5E5" d="M16,55.4l-3-10.6c4.8-1.7,7.7-1,10.6-0.2c2.9,0.7,5.7,1.5,10.6-0.2s6.8-4,8.8-6.4s4-4.8,8.8-6.4l9.1,31.8
			c-2,0.6-3.4,1.4-4.7,2.3c-1.7,1.3-2.9,2.7-4.1,4.1c-2,2.4-4,4.8-8.8,6.4s-7.7,1-10.6,0.2c-2.9-0.7-5.7-1.5-10.6,0.2l-3-10.6
			L16,55.4z"/>
		<g>
			<path fill="#31474C" d="M26.7,55.1l3,10.6c-2.9-0.7-5.7-1.5-10.6,0.2L16,55.4C20.9,53.7,23.8,54.4,26.7,55.1z M29.7,65.8
				c2.9,0.7,5.7,1.5,10.6-0.2l3,10.6c-4.8,1.7-7.7,1-10.6,0.2L29.7,65.8z M34.2,44.3l3,10.6c-4.8,1.7-7.7,1-10.6,0.2l-3-10.6
				C26.4,45.3,29.3,46,34.2,44.3z"/>
			<path fill="#31474C" d="M37.2,55c4.8-1.7,6.8-4,8.8-6.4l3,10.6c-2,2.4-4,4.8-8.8,6.4C40.2,65.6,37.2,55,37.2,55z"/>
			<path fill="#31474C" d="M51.7,31.6l3,10.6c-4.8,1.7-6.8,4-8.8,6.4l-3-10.6C44.9,35.5,46.9,33.2,51.7,31.6z M57.8,52.8l3.1,10.6
				c-2,0.6-3.4,1.4-4.7,2.3c-1.7,1.3-2.9,2.7-4.1,4.1l-3-10.6C51,56.8,53,54.4,57.8,52.8z"/>
		</g>
	</g>
</g>
</svg>
