<?xml version="1.0" encoding="utf-8"?>
<!-- Generator: Adobe Illustrator 24.3.0, SVG Export Plug-In . SVG Version: 6.00 Build 0)  -->
<svg version="1.1" id="Layer_1" xmlns="http://www.w3.org/2000/svg" xmlns:xlink="http://www.w3.org/1999/xlink" x="0px" y="0px"
	 viewBox="0 0 126 126" enable-background="new 0 0 126 126" xml:space="preserve">
<g>
	<path fill="#EB637E" d="M30.1,97.6h52.4c2.7,0,5.3-1.3,6.9-3.5l2.7-3.7c2.5-3.5,0.4-8.3-3.8-8.9c-10.7-1.3-27-3.8-30.4-6.8
		c-5-4.4-14.6-7-14.6-7H26.9c-1.4,0-2.8,0.6-3.7,1.8c-2.6,3.1-7.3,10.4-7.6,21.2C15.6,95.7,25,97.6,30.1,97.6L30.1,97.6z"/>
	<path fill="#E7567D" d="M30.1,97.6c57.4,0,53,0.1,54.4-0.3c-7.9-2.4-23.6-7.1-32.4-8.6c-7.8-1.3-19.4,4.3-26.6,8.5
		C27,97.4,28.6,97.6,30.1,97.6L30.1,97.6z"/>
	<path fill="#FBC564" d="M49,76.5l4.7-4.5c-4.9-2.7-10.5-4.2-10.5-4.2H26.9c-1.4,0-2.8,0.6-3.7,1.8c-1.9,2.3-4.9,6.7-6.5,13.1h17
		C39.4,82.6,44.9,80.4,49,76.5L49,76.5z"/>
	<path fill="#8FD2ED" d="M45.6,50.7h62.6c1.3,0,2.3-1.2,2.1-2.5c-1.2-7.9-7.1-32.1-33.3-30.8c-24.6,1.3-31.7,22.9-33.5,30.6
		C43.2,49.4,44.2,50.7,45.6,50.7L45.6,50.7z"/>
	<path fill="#B1DEF0" d="M54.6,27.1c18,10.2,31.5,5.7,39.1-6.1c-4.4-2.4-9.8-3.8-16.7-3.4C66.8,18,59.7,22,54.6,27.1z"/>
	<path fill="#D9EEF9" d="M86.4,18.2c-7.1-1.6-16.5-0.8-23.9,3.1c2.1,3.1,5.3,5.7,10.3,5.4C79.1,26.4,83.6,22,86.4,18.2z"/>
	<path fill="#CACDE9" d="M46.1,39.9c-1.4,3.3-2.2,6.2-2.6,8.1c-0.3,1.4,0.7,2.7,2.1,2.7h62.6c1.3,0,2.3-1.2,2.1-2.5
		c-0.3-2-0.9-5-2-8.3L46.1,39.9L46.1,39.9z"/>
	<path d="M101.9,99.5c-1.4-1-3.4-0.6-4.4,0.9l-1.9,2.8c-1,1.4-2.6,2.3-4.3,2.3H76.6v-4.7h5.9c3.7,0,7.3-1.8,9.4-4.8l2.7-3.7
		c3.9-5.4,0.6-13-6-13.8c-2.6-0.3-5-0.7-7.1-1c0.4-3.4-4.2-4.9-5.9-2c0,0-0.2,0.4-0.6,0.9c-2.3-0.4-4.3-0.8-5.9-1.1
		c0.4-1.3-0.1-2.8-1.3-3.6c-1.5-0.9-3.4-0.5-4.4,0.9c-0.2,0.3-0.4,0.6-0.7,1c-4.2-1.4-2.2-1.5-7.5-4.4c-4.1-2.2-10.8-4.6-12.1-4.6
		H26.9c-2.8,0-4.9,1.3-6.6,3.4c-3,3.8-7.6,11.5-7.9,22.6c-0.2,6.5,8,9.3,14.4,9.9v4.8h-9.6c-1.7,0-3.2,1.4-3.2,3.2
		c0,1.7,1.4,3.2,3.2,3.2h74.1c3.8,0,7.4-1.9,9.5-5.1l1.9-2.8C103.7,102.4,103.3,100.4,101.9,99.5L101.9,99.5z M42.7,70.9
		c1.7,0.5,3.6,1.2,5.5,1.9c-0.7,0.5-5.3,6.7-14.5,6.7H21.1c1.5-3.8,3.4-6.5,4.6-8c0.3-0.4,0.8-0.6,1.3-0.6H42.7z M18.8,90.8
		c0-1.8,0.2-3.5,0.5-5h14.4c12.7,0,18.9-8.8,20.4-9.9c2.1,1.4,1.8,1.7,4.4,2.9c-0.5,0.5-1,1-1.6,1.5c-1.3,1.1-1.5,3.1-0.4,4.4
		c1.1,1.3,3.1,1.5,4.4,0.4c1.6-1.3,3-2.8,4.2-4.2c6,1.4,5.7,1,5.3,1.4c-1.9,2-0.5,5.3,2.3,5.3c0.8,0,1.7-0.3,2.3-1
		c1.1-1.1,2-2.3,2.9-3.4c3,0.5,6.3,0.9,9.9,1.4c1.9,0.2,2.8,2.4,1.7,3.9l-2.7,3.7c-1,1.4-2.6,2.2-4.3,2.2c-53.8-0.3-53.5,0.6-59-0.9
		C20,92.6,18.8,91.4,18.8,90.8L18.8,90.8z M33.2,100.7h37v4.7h-37L33.2,100.7z"/>
	<path d="M113.4,47.8c-3.1-20.1-15.6-34.5-36.6-33.4c-16,0.8-27.4,9.8-33.6,24.4c-1.5,3.6-2.6,7.6-2.9,9c-0.6,3.2,1.9,6.2,5.2,6.2
		h14.1c4.9,3.4,21.3,14.7,27.1,14.7c5.7,0,12.8-10.1,16-14.7h5.3C111.4,53.9,113.9,51,113.4,47.8L113.4,47.8z M77.1,20.6
		c12.6-0.6,21.4,5.1,26.5,16.1H51.2C57.1,26.3,66.2,21.2,77.1,20.6z M86.8,62.3c-2.9-0.2-13.2-6.8-15.7-8.4h24
		C93.7,55.8,89.1,61.7,86.8,62.3L86.8,62.3z M46.9,47.6c0.3-1.2,0.8-2.8,1.4-4.5H106c0.5,1.7,0.8,3.2,1,4.5H46.9z"/>
</g>
</svg>
