<?xml version="1.0" encoding="utf-8"?>
<!-- Generator: Adobe Illustrator 24.3.0, SVG Export Plug-In . SVG Version: 6.00 Build 0)  -->
<svg version="1.1" id="Layer_1" xmlns="http://www.w3.org/2000/svg" xmlns:xlink="http://www.w3.org/1999/xlink" x="0px" y="0px"
	 viewBox="0 0 126 126" enable-background="new 0 0 126 126" xml:space="preserve">
<g>
	<path fill="#EEECED" d="M101.9,44.8l-4.1-4.1l-7.9,7.9l-4.1-4.1l11-11l-4.1-4.1l-11,11l-4.1-4.1l7.9-7.9l-4.1-4.1L73.3,32l-5.4-5.4
		l-4.1,4.1l5.4,5.4L65,40.2l-6.9-6.9L44.7,60.5l4.1,4.1l7.9-7.9l4.1,4.1l-11,11l4.1,4.1l11-11l4.1,4.1l-7.9,7.9l4.1,4.1l7.9-7.9
		l5.4,5.4l4.1-4.1l-5.4-5.4l4.1-4.1l6.9,6.9l4.1-4.1L85.8,61l4.1-4.1l5.4,5.4l4.1-4.1L94,52.7L101.9,44.8z M73.3,40.2l4.1,4.1
		l-4.1,4.1l-4.1-4.1L73.3,40.2z M65,56.8l-4.1-4.1l4.1-4.1l4.1,4.1L65,56.8z M73.3,65.1L69.2,61l4.1-4.1l4.1,4.1L73.3,65.1z
		 M81.6,56.8l-4.1-4.1l4.1-4.1l4.1,4.1L81.6,56.8z"/>
	<path fill="#B8B9BB" d="M105.7,68.1c4.5-4.5,6.6-10.9,5.6-17.2c-1.4-9.1-5.4-17.6-12.1-24.2C92.5,20.1,84,16.1,74.9,14.7
		c-6.3-0.9-12.6,1.2-17.1,5.7c0,0,0,0,0,0C43.4,34.8,37.2,53.9,39.9,70.8c0.4,2.5,0,5-1.2,7.2c-0.8,1.5-1.8,2.9-3.1,4.2l-5.5,5.5
		l8.3,8.3l5.5-5.5c1.3-1.3,2.7-2.3,4.2-3.1c2.2-1.2,4.7-1.6,7.2-1.2C72.1,88.8,91.2,82.6,105.7,68.1
		C105.7,68.2,105.7,68.2,105.7,68.1z M97.4,59.9L97.4,59.9c-13,13-29.3,17-42.1,14.4c-1.8-0.4-3.2-1.8-3.6-3.6
		c-1.1-5.3-1-11.2,0.3-17c2.1-9.2,6.9-17.8,14-25l0.1-0.1c1.8-1.8,4.5-2.7,7.1-2.3c6.9,1.1,13,4.1,17.7,8.8
		c4.7,4.7,7.7,10.8,8.8,17.7C100.1,55.3,99.3,58,97.4,59.9z"/>
	<path fill="#9DA0A1" d="M74.9,14.7c-6.3-0.9-12.6,1.2-17.1,5.7c0,0,0,0,0,0C43.4,34.8,37.2,53.9,39.9,70.8c0.4,2.5,0,5-1.2,7.2
		c-0.8,1.5-1.8,2.9-3.1,4.2l-5.5,5.5l8.3,8.3l5.5-5.5c2.1-2.1,3.8-4.4,5.2-7c2.3-4.4,3.2-9.6,2.4-14.5c-0.4-2.8-0.6-5.7-0.4-8.6
		c0.1-2.2,0.5-4.5,1-6.7c2-8.8,6.6-17.5,14.1-25c0.4-0.4,0.9-0.8,1.4-1.1c1.7-1.1,3.7-1.5,5.6-1.2C78.3,21.3,74.9,14.7,74.9,14.7z"
		/>
	<path fill="#AB6757" d="M18.9,109.8l-2.8-2.8c-2.3-2.3-2.3-6,0-8.3l13.3-13.3c0.6-0.6,1.5-0.6,2.1,0l9,9c0.6,0.6,0.6,1.5,0,2.1
		l-13.3,13.3C24.9,112.1,21.2,112.1,18.9,109.8z"/>
	<path fill="#818689" d="M59.8,42.8c0,8.1-6.6,14.6-14.6,14.6s-14.6-6.6-14.6-14.6S37,28.1,45.1,28.1S59.8,34.7,59.8,42.8z"/>
	<path fill="#676F72" d="M46.2,28.2c-4.1-0.3-8.3,1.1-11.4,4.3c-5.7,5.7-5.7,15,0,20.7c3.1,3.1,7.3,4.5,11.4,4.3
		C40.3,49.8,40.2,35.8,46.2,28.2z"/>
	<path d="M112.7,50.8c-1.5-9.7-5.8-18.4-12.5-25c-6.7-6.7-15.4-11-25.2-12.5C74,13.1,73,13,71.9,13c-5.6,0-11.1,2.3-15.2,6.3l0,0
		c-2.5,2.5-4.8,5.2-6.9,8.1C39,24.1,28.2,32.7,29.1,44c0.1,0.8,0.8,1.4,1.6,1.4c0.8-0.1,1.4-0.8,1.4-1.6c-0.3-3.8,1.1-7.5,3.8-10.3
		c6.7-6.7,18.2-4.3,21.6,4.6c1.8,4.7,0.8,10.2-3,14c-6.3,6.3-17,4.6-21.1-3.3c-0.4-0.7-1.3-1-2-0.6c-0.7,0.4-1,1.3-0.6,2
		c1.6,3.1,4.1,5.6,7.3,7.2c-0.5,4.7-0.4,9.3,0.3,13.7c0.3,2.1,0,4.4-1,6.3c-0.8,1.4-1.7,2.7-2.8,3.8l-2.7,2.7
		c-1.1-0.5-2.4-0.3-3.3,0.6L15.1,97.7c-1.4,1.4-2.1,3.2-2.1,5.2s0.8,3.8,2.1,5.2l2.8,2.8c1.4,1.4,3.3,2.1,5.2,2.1
		c1.9,0,3.8-0.7,5.2-2.1l13.3-13.3c0.9-0.9,1.1-2.2,0.6-3.3l2.7-2.7c1.1-1.1,2.4-2.1,3.8-2.8c1.9-1,4.1-1.4,6.3-1
		c7.3,1.2,15.4,0.8,23.6-1.6c0.8-0.2,1.2-1,1-1.8c-0.2-0.8-1-1.2-1.8-1c-7.6,2.2-15.2,2.7-22.4,1.5c-2.9-0.5-5.7,0.1-8.1,1.3
		c-1.7,0.9-3.2,2-4.5,3.4L40.2,92L34,85.8l2.6-2.6c1.3-1.3,2.5-2.9,3.4-4.5c1.3-2.5,1.8-5.3,1.3-8.1c-0.6-3.9-0.8-8-0.4-12.2
		c3,0.8,6,0.7,8.9-0.1c-0.5,4.3-0.3,8.6,0.5,12.7c0.5,2.4,2.3,4.2,4.7,4.7c0.1,0,0.3,0.1,0.4,0.1c0,0,0.1,0,0.1,0
		c14,2.7,30.4-2.3,42.9-14.9c2.1-2.1,3.2-5.3,2.7-8.4c-2.3-14.7-12.9-25.4-27.7-27.7c-2.9-0.5-6.1,0.4-8.4,2.8
		c-2.3,2.3-4.5,4.9-6,7.1c-1.5-2.6-3.7-4.7-6.4-6.1c1.9-2.5,3.9-4.9,6.2-7.1l0,0c3.5-3.5,8.2-5.5,13.1-5.5c0.9,0,1.8,0.1,2.7,0.2
		c9.2,1.4,17.3,5.4,23.6,11.7c6.2,6.2,10.2,14.3,11.6,23.4c0.9,5.7-0.9,11.6-5.2,15.9l-0.1,0.1c-6.2,6.2-13.4,11-21.4,14.1
		c-0.8,0.3-1.1,1.1-0.8,1.9c0.3,0.8,1.2,1.1,1.9,0.8c8.3-3.3,15.8-8.3,22.4-14.8l0.1-0.1C111.7,64.2,113.8,57.4,112.7,50.8z
		 M26.2,108.8c-1.7,1.7-4.5,1.7-6.2,0l-2.8-2.8c-0.8-0.8-1.3-1.9-1.3-3.1s0.5-2.3,1.3-3.1l13.3-13.3l8.6,8.6c0,0,0,0,0,0s0,0,0,0
		l0.3,0.3L26.2,108.8z M62.8,73.5c-1.4,0-2.7-0.1-3.9-0.2l6.1-6.1l2.1,2.1L62.8,73.5z M67.2,73.3l3-3c0.6-0.6,0.6-1.5,0-2.1
		l-4.1-4.1c-0.6-0.6-1.5-0.6-2.1,0l-8.7,8.7c-1-0.3-1.8-1.1-2.1-2.1l8.6-8.6c0.6-0.6,0.6-1.5,0-2.1l-4.1-4.1c-0.6-0.6-1.5-0.6-2.1,0
		c-0.6,0.6-0.6,1.5,0,2.1l3.1,3.1l-6.1,6.1c-0.4-3.3-0.3-6.7,0.2-10.2c6.8-3.7,9.9-11.7,7.5-19.1c0,0,0,0,0,0l3.5,3.5
		c0.6,0.6,1.5,0.6,2.1,0l4.1-4.1c0.6-0.6,0.6-1.5,0-2.1L66,30.8c0.8-0.9,1.4-1.5,2.1-2l4.2,4.2c0.6,0.6,1.5,0.6,2.1,0l4-4
		c1,0.3,2,0.7,3,1.2l-4.9,4.9c-0.6,0.6-0.6,1.5,0,2.1l4.1,4.1c0.6,0.6,1.5,0.6,2.1,0l6.2-6.2c0.8,0.7,1.3,1.3,2.1,2.1l-6.2,6.2
		c-0.6,0.6-0.6,1.5,0,2.1l4.1,4.1c0.6,0.6,1.5,0.6,2.1,0l4.9-4.9c0.4,1,0.8,2,1.2,3l-4,4c-0.6,0.6-0.6,1.5,0,2.1l4.2,4.2
		c-0.4,0.6-0.7,0.9-2,2.1l-4.2-4.2c-0.6-0.6-1.5-0.6-2.1,0l-4.1,4.1c-0.6,0.6-0.6,1.5,0,2.1l3.5,3.5c-0.8,0.6-1.7,1.1-2.5,1.6
		l-3.1-3.1c-0.6-0.6-1.5-0.6-2.1,0l-4.1,4.1c-0.6,0.6-0.6,1.5,0,2.1l0.8,0.8C73.8,72.3,70.4,73,67.2,73.3z M64,33l3.1,3.1L65,38.2
		l-2.8-2.8C62.8,34.6,63.4,33.8,64,33z M86.6,33.2l-5,5l-2.1-2.1l4.5-4.5C84.9,32.1,85.8,32.6,86.6,33.2z M94.4,41.9l-4.5,4.5
		l-2.1-2.1l5-5C93.4,40.2,93.9,41.1,94.4,41.9z M98.3,54.9l-2.2-2.2l1.8-1.8C98.3,53,98.4,53.8,98.3,54.9z M90.7,63.8L87.8,61
		l2.1-2.1L93,62C92.2,62.6,91.5,63.2,90.7,63.8z M80.2,69.9l-0.7-0.7l2.1-2.1l1.4,1.4C82.1,69.1,81.1,69.5,80.2,69.9z M75.1,28.1
		l-1.8,1.8l-2.2-2.2C72.2,27.6,73,27.7,75.1,28.1z"/>
	<path d="M39.4,35.7L38,37.1c-0.6,0.6-0.6,1.5,0,2.1s1.5,0.6,2.1,0l1.4-1.4c0.6-0.6,0.6-1.5,0-2.1C40.9,35.1,40,35.1,39.4,35.7z"/>
	<path d="M50.9,49.9l1.4-1.4c0.6-0.6,0.6-1.5,0-2.1c-0.6-0.6-1.5-0.6-2.1,0l-1.4,1.4c-0.6,0.6-0.6,1.5,0,2.1S50.3,50.5,50.9,49.9z"
		/>
	<path d="M43.1,39.7c-0.8-0.3-1.6,0.1-1.9,0.9c-0.6,1.8-0.2,3.8,1.2,5.1c1.3,1.3,3.3,1.8,5.1,1.2c0.8-0.3,1.2-1.1,0.9-1.9
		s-1.1-1.2-1.9-0.9c-1.6,0.5-3.1-1-2.6-2.6C44.2,40.8,43.8,40,43.1,39.7z"/>
	<path d="M70.2,51.6l-4.1-4.1c-0.6-0.6-1.5-0.6-2.1,0l-4.1,4.1c-0.6,0.6-0.6,1.5,0,2.1l4.1,4.1c0.6,0.6,1.5,0.6,2.1,0l4.1-4.1
		C70.8,53.1,70.8,52.2,70.2,51.6z M65,54.7L63,52.7l2.1-2.1l2.1,2.1L65,54.7z"/>
	<path d="M72.3,49.6c0.6,0.6,1.5,0.6,2.1,0l4.1-4.1c0.6-0.6,0.6-1.5,0-2.1l-4.1-4.1c-0.6-0.6-1.5-0.6-2.1,0l-4.1,4.1
		c-0.6,0.6-0.6,1.5,0,2.1L72.3,49.6z M73.3,42.3l2.1,2.1l-2.1,2.1l-2.1-2.1L73.3,42.3z"/>
	<path d="M76.4,53.7l4.1,4.1c0.6,0.6,1.5,0.6,2.1,0l4.1-4.1c0.6-0.6,0.6-1.5,0-2.1l-4.1-4.1c-0.6-0.6-1.5-0.6-2.1,0l-4.1,4.1
		C75.9,52.2,75.9,53.1,76.4,53.7z M81.6,50.6l2.1,2.1l-2.1,2.1l-2.1-2.1L81.6,50.6z"/>
	<path d="M78.5,59.9l-4.1-4.1c-0.6-0.6-1.5-0.6-2.1,0l-4.1,4.1c-0.6,0.6-0.6,1.5,0,2.1l4.1,4.1c0.6,0.6,1.5,0.6,2.1,0l4.1-4.1
		C79.1,61.4,79.1,60.5,78.5,59.9z M73.3,63L71.3,61l2.1-2.1l2.1,2.1L73.3,63z"/>
</g>
</svg>
