<?xml version="1.0" encoding="utf-8"?>
<!-- Generator: Adobe Illustrator 24.3.0, SVG Export Plug-In . SVG Version: 6.00 Build 0)  -->
<svg version="1.1" id="Layer_1" xmlns="http://www.w3.org/2000/svg" xmlns:xlink="http://www.w3.org/1999/xlink" x="0px" y="0px"
	 viewBox="0 0 126 126" enable-background="new 0 0 126 126" xml:space="preserve">
<g>
	<path fill="#E3EDF9" d="M60.1,26v80.8c-0.2,0.3-1.1,0.2-1.3,0C43,96,42.8,89.3,42.8,89.3l-0.2-53.4c0-0.9-0.2-1.8-0.6-2.5
		c-1.2-2.1-6.8-5.6-9.9-7.3c-1.9-1.1-3.9-1.9-5.8-2.8c-0.2-0.2-0.4-0.8,0.2-1.1l16.6-3.1h0.3C43.5,19.2,59.8,25.9,60.1,26z M66.3,26
		v80.8c0.2,0.3,1.1,0.2,1.3,0C83.3,96,83.5,89.3,83.5,89.3l0.2-53.4c0-0.9,0.2-1.8,0.6-2.6c1.2-2.1,6.8-5.6,9.9-7.3
		c1.9-1.1,3.9-1.9,5.8-2.8c0.3-0.2,0.3-1-0.2-1.1l-16.7-3h-0.3C82.9,19.1,66.6,25.9,66.3,26z"/>
	<path fill="#E3EDF9" d="M96.3,75.6c-4.7,0-10.4-4.5-11.9-9.4c-0.6-1.9-0.9-2.9-0.9-4.7c0-2,0.4-4.1,1-6.1c0.1-0.3,0.4-0.8,1.1-0.8
		h7.6l0.2,0.1c0.5,0.2,0.9,0.6,0.9,1.1v0.3c-0.3,1.7-0.4,3.2-0.4,4.7c0,0.6,0.1,1.2,0.1,1.8c0.4,4.5,4.1,8,8.6,8.1
		c0.4,0,1.2-0.1,1.6-0.2h0.2c0.8,0,1.2,0.5,1.2,1.1v0.2C105.2,73.2,103.1,75.6,96.3,75.6z M104.4,55.5c-0.4,0-0.7-0.2-0.9-0.4
		l-0.7-0.9H86.4c-0.4,0-0.8-0.3-1.1-0.6c-0.2-0.4-0.1-0.9,0.2-1.3v-0.1l3.9-3.7l0.4-0.3l21.2,0.1c0.5,0,1,0.3,1.1,0.8
		c0.2,0.4,0,1.1-0.4,1.3l-6.9,4.9h-0.1C104.7,55.5,104.6,55.5,104.4,55.5z"/>
	<path fill="#3A68AF" d="M90.2,49.2l20.9,0.1c0.4,0,0.4,0.4,0.2,0.5l-6.8,4.8h-0.1c-0.1,0-0.3-0.1-0.3-0.1l-0.9-1.2H86.4
		c-0.3,0-0.4-0.3-0.2-0.4l3.8-3.6L90.2,49.2 M93.1,55.5c0.2,0.1,0.3,0.2,0.3,0.4c-0.3,1.7-0.4,3.3-0.4,4.9c0,0.6,0.1,1.3,0.1,1.9
		c0.4,4.9,4.5,8.8,9.4,8.9c0.6,0,1.7-0.2,1.7-0.2c0.3,0,0.4,0.1,0.4,0.3c-0.1,0.7-1.7,3-8.2,3c-4.3,0-9.7-4.3-11.1-8.8
		c-0.6-1.9-0.8-2.7-0.8-4.4c0-2,0.4-4,1-5.9c0.1-0.2,0.2-0.2,0.3-0.2L93.1,55.5L93.1,55.5 M89.6,47.5l-0.4,0.3L89,47.8l-0.1,0.1
		l-0.1,0.2L85,51.6l-0.1,0.1l-0.1,0.1c-0.5,0.6-0.6,1.5-0.3,2.2c-0.4,0.3-0.8,0.7-0.9,1.1c-0.7,2.2-1.1,4.3-1.1,6.5
		c0,1.9,0.4,3,0.9,4.9c1.7,5.3,7.8,10,12.8,10c9,0,9.8-4,9.9-4.5v-0.3c0-1.1-0.9-2-2.1-2h-0.2c-0.4,0.1-1.1,0.1-1.4,0.1
		c-4-0.2-7.4-3.2-7.7-7.3c-0.1-0.6-0.1-1.2-0.1-1.8c0-1.5,0.1-3,0.4-4.6v-0.4c0-0.3-0.1-0.5-0.2-0.7h7.4l0.4,0.5l0.1,0.1l0.1,0.1
		c0.4,0.4,1,0.6,1.5,0.6c0.4,0,0.6-0.1,0.9-0.2l0.1-0.1l0.1-0.1l6.8-4.8c0.7-0.5,1-1.5,0.7-2.3c-0.3-0.9-1.1-1.4-1.9-1.4l-20.9-0.1
		L89.6,47.5L89.6,47.5z"/>
	<g>
		<path fill="#E3EDF9" d="M15,75.6c-0.4,0-0.6-0.3-0.8-0.4c-0.4-0.4-0.4-1-0.1-1.5l0.1-0.1l6.4-6c0.2-0.2,0.4-0.4,0.9-0.4
			s0.6,0.3,0.8,0.4l0.1,0.1v0.1c0.2,0.3,0.4,0.5,0.6,0.7c0.7,0.5,1.5,0.8,2.2,0.8h4.9c-2.3-2.6-7.5-8.7-10.5-12.2
			c-0.3-0.4-0.4-0.9-0.2-1.2c0.2-0.4,0.5-0.6,1-0.6H29l0.6,0.3l0.2,0.2c2.9,3.7,10.5,13.3,11.3,14.1l0.1,0.1
			c0.4,0.5,0.7,1.3,0.7,2.1c-0.1,1.8-1.3,3.7-3.2,3.7L15,75.6L15,75.6z M35.6,56.4c-0.4,0-0.6-0.3-0.8-0.4l-1.7-1.5H18.4l-0.1-0.1
			c-0.7-0.3-0.7-1-0.7-1.9c0-1.5,0.4-2.6,1.4-3.4h0.1c0.7-0.4,1.6-0.7,2.5-0.7h19.2c0.8,0,1.1,0.5,1.1,0.6c0.2,0.5,0,1.1-0.4,1.3
			l-5.1,5.5C36.3,56.2,36,56.4,35.6,56.4z"/>
		<path fill="#3A68AF" d="M21.5,49.3h19.2c0.4,0,0.3,0.4,0.2,0.4l-5.2,5.7c0,0.1-0.1,0.1-0.2,0.1s-0.1,0-0.2-0.1l-1.9-1.8H18.6
			c-0.2-0.1-0.2-1.1-0.2-1.1c0-1.4,0.4-2.3,1.1-2.7C20.1,49.5,20.8,49.3,21.5,49.3 M28.9,56l0.3,0.1c0,0,10.4,13.2,11.4,14.2
			c0.4,0.4,0.4,1.1,0.4,1.6c-0.1,1.4-1,2.8-2.4,2.8H15c-0.1,0-0.1,0-0.2-0.1s-0.1-0.3,0-0.4l6.4-6c0.1-0.1,0.2-0.1,0.3-0.1
			c0.1,0,0.1,0,0.2,0.1c0.3,0.4,0.4,0.7,0.8,0.9c0.8,0.6,1.8,0.9,2.7,0.9H32v-0.2c-0.3-0.3-11.7-13.5-11.7-13.5
			c-0.2-0.2,0-0.4,0.2-0.4H28.9 M21.5,47.6c-1.1,0-2,0.3-2.9,0.9l-0.1,0.1l-0.1,0.1c-0.8,0.6-1.7,1.8-1.7,4.1c0,0.8,0,2.3,1.3,2.7
			l0.3,0.1h0.4c-0.3,0.7-0.2,1.4,0.3,2v0.2c2.5,3,6.7,7.7,9.3,10.8h-3c-0.6,0-1.1-0.2-1.8-0.6c-0.1-0.1-0.3-0.3-0.4-0.5L23,67.3
			l-0.1-0.1c-0.2-0.2-0.6-0.6-1.4-0.6s-1.2,0.4-1.6,0.7l-6.3,5.9l-0.2,0.2l-0.1,0.2c-0.5,0.9-0.4,1.9,0.2,2.6
			c0.2,0.2,0.6,0.6,1.4,0.6h23.6c2.2,0,4-1.9,4.1-4.5v-0.2c0-1-0.3-1.9-0.9-2.6l0.1-0.4l-0.1-0.1c-0.7-0.7-6.9-8.6-11-13.7h2
			l1.4,1.3c0.2,0.2,0.6,0.6,1.3,0.6c0.8,0,1.3-0.4,1.6-0.9l5-5.4c0.4-0.5,0.9-1.3,0.4-2.3c-0.3-0.6-0.9-1.2-1.9-1.2H21.8
			C21.7,47.6,21.6,47.6,21.5,47.6z"/>
	</g>
</g>
</svg>
