<?xml version="1.0" encoding="utf-8"?>
<!-- Generator: Adobe Illustrator 24.3.0, SVG Export Plug-In . SVG Version: 6.00 Build 0)  -->
<svg version="1.1" id="Layer_1" xmlns="http://www.w3.org/2000/svg" xmlns:xlink="http://www.w3.org/1999/xlink" x="0px" y="0px"
	 viewBox="0 0 126 126" enable-background="new 0 0 126 126" xml:space="preserve">
<g>
	<path fill="#E3EDF9" d="M85.2,85.4c-7.8,0-17.3-7.5-19.9-15.7c-1-3.2-1.5-4.8-1.5-7.8c0-3.4,0.6-6.9,1.6-10.2
		c0.1-0.4,0.6-1.3,1.8-1.3h12.7l0.3,0.1c0.9,0.3,1.5,1,1.5,1.9v0.4c-0.4,2.8-0.7,5.4-0.6,7.9c0,1,0.1,2,0.1,3.1
		c0.7,7.5,6.9,13.3,14.3,13.5c0.7,0,2-0.1,2.6-0.3h0.3c1.3,0,2,0.9,2,1.9v0.3C100,81.4,96.4,85.4,85.2,85.4z M98.6,52
		c-0.6,0-1.2-0.3-1.5-0.6L96,50H68.6c-0.7,0-1.3-0.4-1.8-1c-0.3-0.7-0.1-1.5,0.3-2.2v-0.1l6.4-6.1l0.7-0.4l35.3,0.1
		c0.9,0,1.6,0.4,1.9,1.3c0.3,0.7,0,1.8-0.7,2.2l-11.6,8.2h-0.1C99.2,52,98.9,52,98.6,52z"/>
	<path fill="#3A68AF" d="M74.9,41.5l34.8,0.1c0.6,0,0.6,0.6,0.3,0.9l-11.4,8h-0.1c-0.1,0-0.4-0.1-0.4-0.1l-1.5-2H68.6
		c-0.4,0-0.6-0.4-0.3-0.7l6.3-6L74.9,41.5 M79.8,52c0.3,0.1,0.4,0.3,0.4,0.6c-0.4,2.8-0.7,5.6-0.6,8.2c0,1,0.1,2.2,0.1,3.2
		c0.7,8.2,7.5,14.6,15.7,14.8c1,0,2.8-0.3,2.8-0.3c0.4,0,0.6,0.1,0.6,0.4c-0.1,1.2-2.8,5-13.6,5c-7.2,0-16.1-7.2-18.6-14.6
		c-1-3.2-1.3-4.5-1.3-7.3c0-3.4,0.6-6.6,1.6-9.8c0.1-0.3,0.3-0.3,0.4-0.3h12.4V52 M74.1,38.6L73.3,39L73,39.2l-0.1,0.1l-0.1,0.3
		l-6.4,5.9l-0.1,0.1L66,45.7c-0.9,1-1,2.5-0.4,3.7c-0.7,0.4-1.3,1.2-1.5,1.9c-1.2,3.7-1.8,7.2-1.8,10.8c0,3.2,0.6,5,1.5,8.2
		c2.8,8.8,13,16.7,21.4,16.7c15.1,0,16.4-6.7,16.5-7.5v-0.4c0-1.9-1.5-3.4-3.5-3.4h-0.3c-0.6,0.1-1.8,0.1-2.3,0.1
		c-6.7-0.3-12.3-5.4-12.9-12.1c-0.1-1-0.1-2-0.1-2.9c0-2.5,0.1-5,0.6-7.6v-0.6c0-0.4-0.1-0.9-0.3-1.2h12.3l0.6,0.9l0.1,0.1l0.1,0.1
		c0.6,0.6,1.6,1,2.5,1c0.6,0,1-0.1,1.5-0.3l0.1-0.1l0.1-0.1l11.4-8c1.2-0.9,1.6-2.5,1.2-3.8c-0.4-1.5-1.8-2.3-3.2-2.3l-34.8-0.1
		L74.1,38.6L74.1,38.6z"/>
	<g>
		<path fill="#E3EDF9" d="M16.4,85.4c-0.7,0-1-0.4-1.3-0.6c-0.7-0.7-0.7-1.6-0.1-2.5l0.1-0.1l10.7-9.9c0.3-0.3,0.7-0.7,1.5-0.7
			c0.7,0,1,0.4,1.3,0.6l0.1,0.1v0.1c0.3,0.4,0.7,0.9,1,1.2c1.2,0.9,2.5,1.3,3.7,1.3h8.2C37.7,70.5,29.1,60.4,24,54.5
			c-0.4-0.7-0.6-1.5-0.3-2s0.9-1,1.6-1h14.3l1,0.4l0.3,0.3c4.8,6.1,17.6,22.1,18.9,23.6l0.1,0.1c0.7,0.9,1.2,2.2,1.2,3.5
			c-0.1,3.1-2.2,6.1-5.4,6.1H16.4V85.4z M50.6,53.5c-0.7,0-1-0.4-1.3-0.6l-2.8-2.5H22.1l-0.1-0.1c-1.2-0.4-1.2-1.6-1.2-3.2
			c0-2.5,0.7-4.4,2.3-5.7h0.1c1.2-0.7,2.6-1.2,4.1-1.2h32c1.3,0,1.8,0.9,1.8,1c0.3,0.9,0,1.8-0.6,2.2l-8.5,9.2
			C51.9,53.1,51.3,53.5,50.6,53.5z"/>
		<path fill="#3A68AF" d="M27.2,41.6h32c0.7,0,0.4,0.6,0.3,0.7l-8.6,9.5c0,0.1-0.1,0.1-0.3,0.1s-0.1,0-0.3-0.1L47.1,49H22.4
			c-0.3-0.1-0.3-1.8-0.3-1.8c0-2.3,0.7-3.8,1.8-4.5C24.8,41.9,26,41.6,27.2,41.6 M39.5,52.8l0.4,0.1c0,0,17.3,21.9,19,23.7
			c0.6,0.7,0.7,1.8,0.7,2.6c-0.1,2.3-1.6,4.7-4,4.7H16.4c-0.1,0-0.1,0-0.3-0.1s-0.1-0.4,0-0.6l10.7-9.9c0.1-0.1,0.3-0.1,0.4-0.1
			c0.1,0,0.1,0,0.3,0.1c0.4,0.6,0.7,1.2,1.3,1.5c1.3,1,2.9,1.5,4.5,1.5h11.3v-0.3c-0.4-0.4-19.5-22.5-19.5-22.5
			c-0.3-0.3,0-0.6,0.3-0.6H39.5 M27.2,38.7c-1.8,0-3.4,0.4-4.8,1.5l-0.1,0.1l-0.1,0.1c-1.3,1-2.8,3.1-2.8,6.9c0,1.3,0,3.8,2.2,4.5
			l0.4,0.1h0.6c-0.4,1.2-0.3,2.3,0.4,3.4v0.3c4.2,5,11.1,12.9,15.5,18h-5c-1,0-1.9-0.3-2.9-1c-0.1-0.1-0.4-0.4-0.7-0.9l-0.1-0.1
			l-0.1-0.1c-0.3-0.3-1-1-2.3-1s-2,0.6-2.6,1.2L14,81.4l-0.3,0.3L13.6,82c-0.9,1.5-0.7,3.2,0.3,4.4c0.3,0.3,1,1,2.3,1h39.4
			c3.7,0,6.6-3.2,6.9-7.5v-0.3c0-1.6-0.4-3.2-1.5-4.4l0.1-0.6L61,74.6c-1.2-1.2-11.6-14.3-18.3-22.8h3.4l2.3,2.2c0.3,0.3,1,1,2.2,1
			c1.3,0,2.2-0.6,2.6-1.5l8.3-9.1c0.7-0.9,1.5-2.2,0.7-3.8c-0.4-1-1.5-2-3.2-2H27.6C27.5,38.7,27.3,38.7,27.2,38.7z"/>
	</g>
</g>
</svg>
