<?xml version="1.0" encoding="utf-8"?>
<!-- Generator: Adobe Illustrator 24.3.0, SVG Export Plug-In . SVG Version: 6.00 Build 0)  -->
<svg version="1.1" id="Layer_1" xmlns="http://www.w3.org/2000/svg" xmlns:xlink="http://www.w3.org/1999/xlink" x="0px" y="0px"
	 viewBox="0 0 126 126" enable-background="new 0 0 126 126" xml:space="preserve">
<g>
	<path fill-rule="evenodd" clip-rule="evenodd" d="M82,46.3v3.5l3.8-1l0.3-3.7L82,46.3L82,46.3z M82,40.2v3.2l3.3-1l0.5-3.1L82,40.2
		L82,40.2z M82,35.1v2.8l4.6-1.2l0.3-2.9L82,35.1z"/>
	<path fill-rule="evenodd" clip-rule="evenodd" d="M82,31.2v2.7c2.4-0.6,4.5-1.2,6.3-1.6c0.9-0.2,0.8,0.8,1,1.6
		c0.2,0.8-0.6,1.7-0.6,2.9c-0.1,1.1-0.5,11.6-0.5,11.6l0.8-0.3l1.1,0.1l0.5-1.2l0.8,0.6l0.5-0.6l0.5,0.4l0.8-0.2
		c0,0-0.3-14.2,1.9-15.6c1.3-0.9,5-1.1,7.4-1c4.2,0.2,8.3,0.5,8.1,2.7c-0.2,2.2-2.8,3.1-2.8,3.1l0.6,0.7l-0.7,0.1v1l-1.2,0.4
		l0.3,0.5l-2.5,1l0.9,0.2l-2.1,1.1c0,0,8.9-0.9,10-6.9c0.7-3.8-6-6.1-11.9-5.8C94.7,28.9,88.3,29.9,82,31.2L82,31.2z M82,33.9v-2.7
		c-7.1,1.5-14,3.4-19.9,5.3v4C68,38.3,75.7,35.7,82,33.9z M82,37.9v-2.8L78.4,36l-0.2,2.6l-0.4,1.1L77,51l5-1.2v-3.5l-1,0.3l0.4-3
		l0.6-0.2v-3.2l-0.4,0l0.1-2.4L82,37.9L82,37.9z M62.1,47.7v4.7c0.6-0.3,1.1-0.7,1.6-1.4l3.6,3.8l1.2-0.4l0.1-0.9l0.9,0.5l1.7-0.1
		l-0.3-0.4l4.5-1.4l0.6-4.3l-4.8,1.5l0.2-2.9l3.9-1.4l0.1-3l-3.9,1.2l0.2-2.4l4.6-1.6l0.1-2.8L69,39l-0.1,2.7l-0.5,1.2l-0.3,7.7
		l-2.3-2.2c0,0,0.7-1.2,0.7-3.4c0-2.2-1.8-4-3.7-4c-0.2,0-0.4,0-0.6,0.1v3c0.8,0,1.7,0.3,1.5,1.4C63.4,46.5,62.8,47.2,62.1,47.7z"/>
	<path fill-rule="evenodd" clip-rule="evenodd" d="M62.1,40.5v-4c-2.6,0.9-5.1,1.7-7.4,2.5v4.6C56.3,42.8,58.9,41.8,62.1,40.5z
		 M62.1,44.2v-3c-1.9,0.4-5.9,2.3-7.4,3v1l0.1,0.1l0.6,0.4l0.1,1.2l1.4-0.5c0,0-0.6,3.1-0.3,4.6l-1.8,0.7v0.4l0.2,0v0.9l0.3,0.5v0.7
		L56,54l-0.2,5.2l0.5-0.6l0.6-0.4l1.1,0.1v-0.7l1,0.1l0.2-0.6h1.2l0.1-4.2c0,0,0.8-0.1,1.7-0.6v-4.7c-0.5,0.4-1,0.7-1.5,0.9
		c0-2.3,0.6-4.4,0.6-4.4S61.6,44.1,62.1,44.2L62.1,44.2z M54.7,35.3L54.7,35.3l0.4,0L54.7,35.3L54.7,35.3z M54.7,35.3L54.7,35.3
		l-3.7,0.1v-0.6l-1.2,0l0.4-1c-1.3,0.3-2.5,0.6-3.7,1v3.4C50.3,36.7,53.7,35.7,54.7,35.3z M54.7,43.6V39c-2.8,1-5.5,2-8.2,3.1v4.8
		c0.3,0,0.6-0.1,0.7-0.1c0.4,0.6,0,3-0.7,6v10l0.1,0c2.1,0.5,2.6-1.2,2.6-1.2l0.8,0.3l0.2-0.4h1.3c0,0,0-14.6,2-17.1
		C53.7,44.2,54.1,43.9,54.7,43.6L54.7,43.6z"/>
	<path fill-rule="evenodd" clip-rule="evenodd" d="M54.7,45.2v-1c-0.3,0.1-0.5,0.2-0.5,0.2l0.4,0.3L54.7,45.2z M54.7,52.1v-0.4
		l-0.5,0.2L54.7,52.1z M46.5,38.2v-3.4c-15.2,4.1-20.9,9-20.9,14.1c0,5.5,5.6,7.4,5.9,8.3c1.8,7.1-17.1,10.6-17.1,10.6l1,0.9
		l0.1,0.9l1.5,1.8l1.8,0.3l0.6,1.1l3-0.4l-0.2,1.2c2.6,0.5,15.2-4.5,18.1-9.9c2-3.9,0.9-6.8,0.9-6.8c-1.3-4.7-7.1-4.9-7.2-9.1
		C33.8,44.1,40.6,40.6,46.5,38.2z"/>
	<path fill-rule="evenodd" clip-rule="evenodd" d="M46.5,46.9v-4.8c-2,0.8-3.2,1.4-3.4,1.6c0,0-0.6,2.4-3.3,4.4l1.5-0.3l-3.4,3.2
		C37.9,51.1,44.3,47.6,46.5,46.9z M46.5,62.8v-10c-0.8,3.9-1.8,8.7-1.2,11.2L46.5,62.8z"/>
	<path fill-rule="evenodd" clip-rule="evenodd" d="M106.9,80.6v-3c-1.9-2-4.5-4.8-7.3-7.7c1.2-1.1,2.7-2.4,2.9-5.9
		c0.1-3.7-2.2-7.6-6.8-8h-1v4c1.6,0.5,2.7,1.7,2.6,3.3c-0.1,2.3-1.2,3.9-2.6,5V74c0.5-0.3,1.1-0.7,1.5-1.1c4.2,4.6,7.1,9.2,7.1,9.2
		l1.5-0.1l0.3-1l1.4,0.1l0.4-0.6L106.9,80.6L106.9,80.6z M106.9,88.9v-3l-1.6,1.8l0.8,0.1l-2.4,2.3
		C104.3,89.8,105.4,89.4,106.9,88.9z M94.6,51.6v1.2c0.2-0.1,0.3-0.1,0.5-0.2c0,0-0.6-0.8,1.8-1.5C96.1,51.3,95.4,51.4,94.6,51.6z
		 M94.6,52.8v-1.2c-1.7,0.4-3.3,0.8-5,1.2v2.6c1.8-0.5,3.1-0.7,3.1-0.7S93.1,53.3,94.6,52.8L94.6,52.8z"/>
	<path fill-rule="evenodd" clip-rule="evenodd" d="M94.6,60v-4c-1.3,0-3.1,0.4-5,0.8v27.7l0.8-0.5c0,0,2-4.4,2-9.1
		c0,0,1.1-0.3,2.2-1v-5.6c-0.6,0.6-1.3,1-1.9,1.2c0,0-0.2-5.8-0.5-9.6C93.1,59.7,93.9,59.8,94.6,60L94.6,60z M89.6,55.4v-2.6
		c-1.8,0.5-3.8,1.1-5.8,1.6v2.5C85.9,56.3,88,55.8,89.6,55.4z M89.6,84.5V56.8c-2.1,0.5-4.2,1.1-5.8,1.6v2.4l1.2,0.7
		c0,0,1-0.3,2.1-0.4c0.4,5.9-0.4,12.3-0.4,12.3l-2.9,0.7v0.5l1.8,2.1l-0.2,1l0.5-0.1c0,0-0.2,2.5-2.1,5.9v2.4c1-0.3,1.9-0.9,1.9-0.9
		l3.4-1.2v0.8L89.6,84.5L89.6,84.5z"/>
	<path fill-rule="evenodd" clip-rule="evenodd" d="M83.8,62.8v3.7l0.4-0.1l0.7-0.9l-0.7-0.3l1.1-2.8L83.8,62.8z M83.8,56.9v-2.5
		L81,55.3v2.5C81.9,57.5,82.9,57.2,83.8,56.9z M83.8,60.8v-2.4c-0.6,0.2-1.1,0.4-1.5,0.5C84.2,59.7,83.8,60.7,83.8,60.8L83.8,60.8
		L83.8,60.8z"/>
	<path fill-rule="evenodd" clip-rule="evenodd" d="M83.8,66.5v-3.7L81,63.6v3.7L83.8,66.5z M83.8,74.6v-0.5l-0.3,0L83.8,74.6z
		 M83.8,85.9v-2.4c-0.4,0.8-0.9,1.6-1.5,2.4C82.7,86.2,83.2,86.1,83.8,85.9z M81,75.8V81l2.5-0.7v-4.7L81,75.8L81,75.8z M81,69.8
		v3.5l2.2-0.7l-0.1-0.9l0.7-2.5L81,69.8L81,69.8z M81,57.8v-2.5c-6.7,2-13.1,4.2-16.1,5.6v2.3c2.4-1,5.2-2,6-1.2
		c1,1.1-1.6,12.4-0.7,22c0.3-1.1,0.7-0.8,0.7-0.8l1.2,2.5l0.7-1.1l1.5,3.2l0.1-1.8l0.5,0.4c-0.6-5.5-0.1-24.2,1.9-26.3
		C77.3,59.2,79,58.5,81,57.8L81,57.8z"/>
	<path fill-rule="evenodd" clip-rule="evenodd" d="M81,67.3v-3.7l-3.8,1.1l-0.4,17.5L81,81v-5.1l-0.9,0.1l0.1-2.5l0.8-0.2v-3.5
		l-0.8,0.2l0.2-2.5L81,67.3L81,67.3z M64.9,67.9v18.3l1,0.4l0.2-1l2.1,2.2c0,0-0.9-12.8,0.4-21.3c-0.5,0.5-0.7-0.3-0.7-0.3
		s-0.6,1.7-1.5,0.4C66,67.5,65.4,67.8,64.9,67.9L64.9,67.9z M64.9,63.2v-2.3c-0.6,0.3-1,0.5-1.3,0.7c-0.7,0.5-1.5,1.8-1.5,1.8
		l-0.8,1.6C61.2,64.9,62.9,64,64.9,63.2L64.9,63.2z"/>
	<path fill-rule="evenodd" clip-rule="evenodd" d="M64.9,86.2V67.9c-0.2,0-0.4,0-0.4,0l-0.3,5.6l-1.7,0.8l0.5-6.2l-0.8,0.8l-0.7-0.8
		l-1.3,1.8l-0.3-0.6l-0.6,0.5v16.3l0.1-0.1l1.4,3.1l0.5-1.9l1,0.5v-8.8l1.9-0.7l0.1,7.7L64.9,86.2L64.9,86.2z M59.3,61.3v0.2
		c0.4-0.2,0.8-0.4,1.2-0.6C60,61,59.7,61.1,59.3,61.3L59.3,61.3z M59.3,61.5v-0.2c-2.5,0.8-4.9,1.6-7.3,2.5v1.2
		C54.4,63.7,56.8,62.6,59.3,61.5L59.3,61.5z"/>
	<path fill-rule="evenodd" clip-rule="evenodd" d="M59.3,86.1V69.8l-0.4,0.3c0,0-1.3,11.3-0.8,16.2c0.5-0.6,0.7,0.4,0.7,0.4
		L59.3,86.1z M52,82.7v3.8c0.1,0,0.2,0,0.2,0v3.5l0.4-0.8l0.6,0.4l0.9-0.6l1.2,0.9l0.1-0.7l0.7,0.1l0.3-9.1l1.4-0.6l-0.4-2.9
		L52,78.9v2.4l0.1,0l0.6-0.1v1.4C52.6,82.7,52.3,82.7,52,82.7L52,82.7z M52,71.6V76c1.6-1.3,3.7-1.9,4.7-2.7L56,73l1-0.5l0.1-2.9
		C57.1,69.6,54.6,70.1,52,71.6z M52,64.9v-1.2c-3.2,1.2-5.4,2.2-5.4,2.2l0.4-1.5c0,0-2.1,1.3-4,1.6v3.6C45.7,68.2,48.7,66.5,52,64.9
		z"/>
	<path fill-rule="evenodd" clip-rule="evenodd" d="M52,76v-4.4c-2.7,1.6-5.5,4.2-5.8,8.6c-0.4,7,4.9,6.4,5.8,6.3v-3.8
		c-0.8-0.1-2.1-0.6-2-3C50.1,78,50.9,76.9,52,76z"/>
	<path fill-rule="evenodd" clip-rule="evenodd" d="M52,81.3v-2.4l-1.2,0.5L52,81.3L52,81.3z M43,75.4v18.2c0.5,0.5,1,0.8,1.5,0.4
		c0.4-0.2-0.6-11.4,1.3-18.5c0,0-1.1,0.8-1.8-2.2C43.8,74.2,43.4,74.9,43,75.4L43,75.4z M43,69.7V66c-0.7,0.1-1.4,0.1-1.9-0.2
		c-3,1.1-15.3,8.7-17.8,12.5c-0.5,1.5-1.9,4.1-1.9,4.1l-1.1,3.4l0.7-0.1l-0.8,1.7l0.7-0.2v1c0,0,3.8-5.1,7.2-8
		c-0.5,2.6-0.5,5.4-0.5,5.4l-1.2,1.2l-1.1,2.4h0.9l-0.1,0.9l0.8-0.4l-0.3,1.1h0.7c0,0,0.1,3.8,0.6,6l2.4,0.8l0.5-0.5l1.4,1.2l1-0.9
		c0,0-0.3-7.3-0.2-10.5c1.2-1.3,5.6-3.8,5.6-3.8l0.3-1.4l-0.6-1.5l1.6-2.4c-3.1,1.7-7,3.9-7,3.9s0.4-5,1-6
		C34.5,74.8,38.1,72.5,43,69.7L43,69.7z"/>
	<path fill-rule="evenodd" clip-rule="evenodd" d="M43,93.6V75.4c-0.8,1.2-1.6,1.6-1.6,1.6s-1.7,7.3-1.2,15.3l0.6-0.3l0.7,0.6
		l0.6-0.2C42.2,92.3,42.5,93.1,43,93.6z"/>
	<path fill-rule="evenodd" clip-rule="evenodd" fill="#CC2428" d="M80.7,45.5V49l3.9-1l0.2-3.7L80.7,45.5L80.7,45.5z M80.7,39.4v3.3
		l3.3-1l0.5-3.1L80.7,39.4L80.7,39.4z M80.7,34.3v2.8l4.5-1.2l0.4-2.9L80.7,34.3L80.7,34.3z"/>
	<path fill-rule="evenodd" clip-rule="evenodd" fill="#CC2428" d="M80.7,30.5v2.7c2.4-0.6,4.5-1.2,6.3-1.6c0.9-0.2,0.8,0.8,1.1,1.6
		c0.2,0.8-0.6,1.7-0.7,2.9c-0.1,1.1-0.5,11.6-0.5,11.6l0.8-0.3l1.1,0.1l0.4-1.2l0.8,0.6l0.4-0.6l0.5,0.5l0.8-0.2
		c0,0-0.2-14.2,2-15.7c1.2-0.9,4.9-1.1,7.4-1c4.1,0.2,8.3,0.6,8,2.7c-0.2,2.2-2.7,3.1-2.7,3.1l0.6,0.7l-0.7,0.1v1.1l-1.3,0.4
		l0.4,0.4l-2.5,1l0.9,0.2l-2.1,1c0,0,8.9-0.9,10-6.9c0.7-3.8-6-6.1-12-5.8C93.3,28.2,86.9,29.2,80.7,30.5L80.7,30.5z"/>
	<path fill-rule="evenodd" clip-rule="evenodd" fill="#CC2428" d="M80.7,33.1v-2.7c-7.1,1.5-14,3.4-19.9,5.3v4
		C66.6,37.6,74.3,34.9,80.7,33.1z M80.7,37.1v-2.8L77,35.3l-0.2,2.6L76.5,39l-0.8,11.2l5-1.2v-3.5l-1,0.3l0.3-3l0.6-0.2v-3.3
		l-0.4,0.1l0.1-2.3L80.7,37.1L80.7,37.1z M60.7,46.9v4.8c0.6-0.4,1.2-0.8,1.6-1.4l3.6,3.8l1.3-0.4l0.1-0.9l0.9,0.5l1.6-0.1l-0.2-0.4
		l4.5-1.4l0.6-4.2l-4.7,1.5l0.2-2.9l3.9-1.4l0.1-3l-3.9,1.2l0.2-2.4l4.6-1.6l0.1-2.7l-7.6,2.5l-0.1,2.7L67,42.1l-0.3,7.7l-2.3-2.2
		c0,0,0.7-1.1,0.7-3.3s-1.8-4.1-3.7-4.1c-0.2,0-0.4,0-0.6,0.1v3c0.8,0,1.6,0.3,1.4,1.4C62,45.7,61.4,46.4,60.7,46.9L60.7,46.9z
		 M60.7,39.7v-4c-2.5,0.8-4.9,1.6-7.4,2.5v4.6C54.9,42,57.5,41,60.7,39.7z"/>
	<path fill-rule="evenodd" clip-rule="evenodd" fill="#CC2428" d="M60.7,43.4v-3c-1.9,0.4-5.9,2.3-7.4,3l0,1.2l0.6,0.4l0.1,1.1
		l1.3-0.5c0,0-0.6,3.1-0.3,4.7l-1.8,0.7v0.4l0.2,0v0.9l0.4,0.5v0.7l0.6-0.2l-0.2,5.2l0.5-0.6l0.7-0.3l1.1,0.1v-0.7l1.1,0.1l0.2-0.6
		h1.1l0.1-4.2c0,0,0.8-0.1,1.7-0.6v-4.8c-0.8,0.6-1.6,1-1.6,1c0-2.3,0.6-4.5,0.6-4.5S60.2,43.3,60.7,43.4z M53.4,34.5L53.4,34.5
		l0.4,0L53.4,34.5z M53.4,34.6L53.4,34.6l-3.7,0.1v-0.6l-1.2,0l0.4-1c-1.3,0.3-2.5,0.6-3.7,1v3.4C48.9,35.9,52.3,34.9,53.4,34.6
		L53.4,34.6z M53.4,42.8v-4.6c-3.4,1.2-6.2,2.3-8.2,3.2v4.8c0.3,0,0.5-0.1,0.6-0.1c0.4,0.6,0,3-0.6,6v10.1l0.1-0.1
		c2,0.5,2.5-1.2,2.5-1.2l0.8,0.3l0.2-0.5h1.2c0,0,0-14.6,2.1-17.1C52.3,43.4,52.7,43.1,53.4,42.8L53.4,42.8z"/>
	<path fill-rule="evenodd" clip-rule="evenodd" fill="#CC2428" d="M53.4,44.6v-1.2c-0.3,0.1-0.5,0.2-0.5,0.2l0.3,0.3L53.4,44.6
		L53.4,44.6L53.4,44.6L53.4,44.6z M53.4,51.3v-0.4l-0.5,0.2L53.4,51.3z M45.1,37.4V34c-15.2,4.1-21,9-21,14.1c0,5.5,5.6,7.4,5.9,8.3
		C31.8,63.6,13,67,13,67l1.1,1l0.1,0.9l1.5,1.8l1.7,0.3l0.6,1.1l3-0.3l-0.2,1.1c2.7,0.5,15.2-4.4,18.1-9.9c2.1-3.9,0.9-6.8,0.9-6.8
		c-1.4-4.8-7.2-5-7.2-9.1C32.4,43.3,39.2,39.8,45.1,37.4z"/>
	<path fill-rule="evenodd" clip-rule="evenodd" fill="#CC2428" d="M45.1,46.1v-4.8c-2,0.8-3.2,1.4-3.4,1.6c0,0-0.6,2.4-3.3,4.4
		l1.5-0.2l-3.5,3.2C36.5,50.3,43,46.8,45.1,46.1L45.1,46.1z M45.1,62.1V52c-0.8,4-1.8,8.8-1.3,11.3L45.1,62.1L45.1,62.1z M76.8,37.9
		L76.5,39l-0.8,11.2l8.9-2.2l0.2-3.7l-5.1,1.5l0.3-3l3.9-1.2l0.5-3.1l-4.2,0.9l0.1-2.3l4.8-1.3l0.4-2.9L77,35.3L76.8,37.9L76.8,37.9
		z"/>
	<path fill-rule="evenodd" clip-rule="evenodd" fill="#CC2428" d="M105.5,79.9v-3c-2.4-2.6-4.9-5.2-7.4-7.7c1.3-1.1,2.8-2.4,2.9-5.9
		c0.1-3.8-2.2-7.7-6.8-8.1h-1v4c1.6,0.5,2.6,1.7,2.6,3.4c-0.2,2.3-1.3,3.9-2.6,5v5.6c0.6-0.3,1.1-0.6,1.6-1.1c4.2,4.6,7,9.2,7,9.2
		l1.5-0.1l0.4-1l1.4,0.1l0.3-0.6L105.5,79.9L105.5,79.9z M105.5,88.1v-3l-1.6,1.8l0.8,0.1l-2.4,2.3C102.9,89,104,88.6,105.5,88.1
		L105.5,88.1z M93.2,50.8V52c0.2,0,0.4-0.1,0.6-0.2c0,0-0.6-0.8,1.7-1.5C94.7,50.5,94,50.7,93.2,50.8L93.2,50.8z M93.2,52v-1.2
		c-1.5,0.3-3.2,0.7-5,1.2v2.6c1.8-0.5,3.1-0.7,3.1-0.7S91.8,52.6,93.2,52L93.2,52z"/>
	<path fill-rule="evenodd" clip-rule="evenodd" fill="#CC2428" d="M93.2,59.2v-4c-1.3,0-3.1,0.4-5,0.8v27.7l0.8-0.5
		c0,0,1.9-4.3,1.9-9.1c0,0,1.1-0.3,2.3-1v-5.6c-0.6,0.6-1.3,1-1.9,1.2c0,0-0.2-5.7-0.5-9.6C91.7,59,92.5,59,93.2,59.2L93.2,59.2z
		 M88.2,54.6V52c-1.8,0.5-3.8,1.1-5.8,1.6v2.5C84.3,55.6,86.3,55.1,88.2,54.6z"/>
	<path fill-rule="evenodd" clip-rule="evenodd" fill="#CC2428" d="M88.2,83.7V56c-2.1,0.5-4.2,1.1-5.8,1.6V60l1.2,0.7
		c0,0,1.1-0.3,2.1-0.4c0.5,5.9-0.3,12.3-0.3,12.3l-2.9,0.7V74l1.8,2L83.9,77l0.6-0.1c0,0-0.3,2.5-2.1,5.9v2.3c1-0.3,1.9-0.8,1.9-0.8
		l3.4-1.2V84L88.2,83.7L88.2,83.7z"/>
	<path fill-rule="evenodd" clip-rule="evenodd" fill="#CC2428" d="M82.4,62v3.7l0.4-0.1l0.7-1l-0.7-0.3l1-2.8L82.4,62z M82.4,56.1
		v-2.5l-2.8,0.8V57C80.5,56.7,81.5,56.4,82.4,56.1z M82.4,60v-2.4c-0.6,0.2-1.1,0.4-1.5,0.5C82.8,58.9,82.3,59.9,82.4,60L82.4,60z
		 M82.4,65.7V62l-2.8,0.8v3.7L82.4,65.7L82.4,65.7z M82.4,74v-0.6l-0.3,0.1L82.4,74z M82.4,85.1v-2.3c-0.4,0.8-0.9,1.6-1.5,2.4
		C81.3,85.4,81.9,85.3,82.4,85.1z M79.6,75.1v5.1l2.4-0.7v-4.7L79.6,75.1L79.6,75.1z M79.6,69v3.4l2.2-0.7l-0.1-0.9l0.7-2.5L79.6,69
		L79.6,69z"/>
	<path fill-rule="evenodd" clip-rule="evenodd" fill="#CC2428" d="M79.6,57v-2.5c-6.6,2-13,4.2-16.1,5.6v2.3c2.4-1,5.1-1.9,5.8-1.2
		c1.1,1-1.6,12.4-0.6,22c0.3-1,0.6-0.8,0.6-0.8l1.2,2.5l0.6-1.1l1.5,3.2l0.1-1.8l0.5,0.4c-0.6-5.5-0.1-24.2,2-26.3
		C75.9,58.5,77.6,57.7,79.6,57L79.6,57z"/>
	<path fill-rule="evenodd" clip-rule="evenodd" fill="#CC2428" d="M79.6,66.5v-3.7l-3.7,1.1l-0.5,17.5l4.2-1.2v-5.1l-0.9,0.1
		l0.1-2.5l0.8-0.2V69l-0.8,0.2l0.2-2.5L79.6,66.5L79.6,66.5z M63.6,67.1v18.3l0.9,0.4l0.2-1l2.1,2.2c0,0-0.9-12.8,0.4-21.3
		c-0.5,0.5-0.7-0.3-0.7-0.3s-0.7,1.7-1.5,0.5C64.7,66.8,64.1,67,63.6,67.1L63.6,67.1z M63.6,62.4v-2.3c-0.6,0.3-1.2,0.6-1.4,0.7
		c-0.6,0.5-1.5,1.8-1.5,1.8l-0.8,1.6C59.9,64.1,61.6,63.2,63.6,62.4z M63.6,85.4V67.1c-0.3,0-0.5,0-0.5,0l-0.3,5.6l-1.7,0.8l0.5-6.2
		l-0.8,0.8l-0.7-0.8l-1.2,1.8l-0.4-0.7L57.9,69v16.4l0.2-0.2l1.3,3.1l0.5-1.9l0.9,0.4v-8.8l2-0.6l0.1,7.7L63.6,85.4L63.6,85.4z
		 M57.9,60.5v0.2c0.4-0.2,0.8-0.4,1.2-0.6C58.7,60.3,58.3,60.3,57.9,60.5L57.9,60.5z M57.9,60.7v-0.2c-2.5,0.8-4.9,1.6-7.3,2.5v1.2
		C53,63,55.4,61.8,57.9,60.7L57.9,60.7z M57.9,85.4V69l-0.4,0.3c0,0-1.3,11.3-0.8,16.2c0.6-0.6,0.8,0.5,0.8,0.5L57.9,85.4L57.9,85.4
		z M50.6,81.9v3.8c0.1,0,0.2,0,0.2,0v3.5l0.3-0.8l0.6,0.4l0.9-0.6l1.2,0.9l0.1-0.7l0.6,0.1l0.4-9.1l1.4-0.5L56,75.9l-5.4,2.3v2.4
		l0.1,0l0.6-0.1v1.4C51.2,81.9,51,81.9,50.6,81.9L50.6,81.9z M50.6,70.8v4.4c1.6-1.3,3.7-1.9,4.7-2.7l-0.7-0.3l1.1-0.5l0.1-2.9
		C55.8,68.8,53.2,69.3,50.6,70.8L50.6,70.8z M50.6,64.1V63c-3.2,1.2-5.3,2.2-5.3,2.2l0.3-1.5c0,0-2,1.3-3.9,1.6v3.6
		C44.3,67.4,47.4,65.8,50.6,64.1L50.6,64.1z M50.6,75.2v-4.4c-2.7,1.6-5.6,4.2-5.8,8.6c-0.5,7,4.9,6.4,5.8,6.3v-3.8
		c-0.8-0.1-2.1-0.6-2-3C48.7,77.2,49.5,76.1,50.6,75.2L50.6,75.2z"/>
	<path fill-rule="evenodd" clip-rule="evenodd" fill="#CC2428" d="M50.6,80.6v-2.4l-1.2,0.5L50.6,80.6z M41.6,74.6v18.3
		c0.5,0.5,1,0.7,1.5,0.4c0.4-0.2-0.6-11.4,1.3-18.5c0,0-1,0.8-1.8-2.2C42.4,73.4,42,74.1,41.6,74.6L41.6,74.6z M41.6,68.9v-3.6
		c-0.7,0.1-1.4,0.1-1.9-0.2c-3,1.1-15.4,8.7-17.8,12.5c-0.4,1.5-1.9,4.1-1.9,4.1l-1.1,3.4l0.7-0.1l-0.8,1.7l0.7-0.2v1
		c0,0,3.8-5.1,7.2-8c-0.5,2.7-0.5,5.4-0.5,5.4L25.1,86l-1.2,2.4h0.9l-0.1,0.9l0.8-0.4L25.2,90h0.6c0,0,0.1,3.8,0.6,6l2.4,0.8
		l0.4-0.5l1.4,1.2l1.1-0.9c0,0-0.4-7.3-0.2-10.5c1.2-1.3,5.6-3.8,5.6-3.8l0.4-1.4l-0.6-1.5l1.6-2.4c-3.1,1.6-6.9,3.9-6.9,3.9
		s0.4-5.1,0.9-6C33.2,74,36.7,71.7,41.6,68.9L41.6,68.9z"/>
	<path fill-rule="evenodd" clip-rule="evenodd" fill="#CC2428" d="M41.6,92.9V74.6c-0.8,1.2-1.6,1.6-1.6,1.6s-1.7,7.3-1.1,15.4
		l0.6-0.4l0.6,0.6l0.6-0.2C40.8,91.6,41.1,92.4,41.6,92.9L41.6,92.9z M75.4,81.4l6.7-2v-4.7l-3.3,0.5l0.1-2.5l3-0.9l-0.1-0.9
		l0.7-2.5l-3.6,0.9l0.2-2.5l3.7-1l0.7-1l-0.7-0.3l1-2.8l-7.9,2.3L75.4,81.4L75.4,81.4z"/>
</g>
</svg>
