<?xml version="1.0" encoding="utf-8"?>
<!-- Generator: Adobe Illustrator 24.3.0, SVG Export Plug-In . SVG Version: 6.00 Build 0)  -->
<svg version="1.1" id="Layer_1" xmlns="http://www.w3.org/2000/svg" xmlns:xlink="http://www.w3.org/1999/xlink" x="0px" y="0px"
	 viewBox="0 0 126 126" enable-background="new 0 0 126 126" xml:space="preserve">
<g>
	<path fill="#F8CCD2" d="M101.1,77.8c0,4.8-1,9.4-3,13.8H28c-2.1-4.3-3-9-3-13.8c0-14.9,10.3-28.3,25.6-33.2h25
		C90.8,49.5,101.1,62.9,101.1,77.8z"/>
	<path fill="#F3A7AA" d="M101.1,77.8c0,4.8-1,9.4-3,13.8H63v-47h12.5C90.8,49.5,101.1,62.9,101.1,77.8z"/>
	<path fill="#F8CCD2" d="M37.8,77.9L63,95.4c0,0,0,0,0,0c-6.8-0.2-13.5,0.8-18.9,2.4c-1.7,0.5-3.1,1.8-3.8,3.5
		c-0.7,1.8-0.5,3.8,0.5,5.4c0.6,0.9,1.4,2.1,2.2,3.3H28.4c-2.2-4.6-3.5-8.7-3.5-11.7C24.9,92.5,29.9,84.4,37.8,77.9z"/>
	<path fill="#F3A7AA" d="M88.2,77.9L62.9,95.4h0c6.8-0.2,13.5,0.8,18.9,2.4c1.7,0.5,3.1,1.8,3.8,3.5c0.7,1.8,0.5,3.8-0.5,5.4
		c-0.6,0.9-1.4,2.1-2.2,3.3h14.6c2.2-4.6,3.5-8.7,3.5-11.7C101.1,92.5,96,84.4,88.2,77.9z"/>
	<path fill="#AE2639" d="M88.7,82.9c-1.1,4.3-3.5,8.4-7.2,11.6c-3.3,2.9-7.5,5-12,6c-0.2,0.1-0.4,0.1-0.6,0.1H57.1
		c-0.2,0-0.4,0-0.6-0.1c-4.5-1.1-8.7-3.1-12-6c-3.7-3.2-6.1-7.3-7.2-11.6l1,0.5h49.5L88.7,82.9z"/>
	<path fill="#AE2639" d="M88.7,82.9c-1.1,4.3-3.5,8.4-7.2,11.6c-3.3,2.9-7.5,5-12,6c-0.2,0.1-0.4,0.1-0.6,0.1H63V83.4h24.7
		L88.7,82.9z"/>
	<path fill="#EB637C" d="M57.1,86.6h11.7v23.4H57.1V86.6z"/>
	<path fill="#E53951" d="M63,86.6h5.9v23.4H63V86.6z"/>
	<path fill="#FBE3E4" d="M89.4,77.8c0,1.8-0.2,3.4-0.6,5.1l-1,0.5C80,87.3,71.5,89.2,63,89.2s-17-1.9-24.7-5.8l-1-0.5
		c-0.4-1.7-0.6-3.3-0.6-5.1c0-0.6,0.1-1.1,0.2-1.7c0.5-5.7,3.1-11,7.7-15l3.7,4.5c0.1,0.2,0.1,0.3,0.1,0.5c0,3.2,2.6,5.9,5.9,5.9
		s5.9-2.6,5.9-5.9c0-1.6,1.3-2.9,2.9-2.9c1.6,0,2.9,1.3,2.9,2.9c0,3.2,2.6,5.9,5.9,5.9s5.9-2.6,5.9-5.9l3.9-5c4.6,4,7.2,9.3,7.7,15
		C89.2,76.7,89.4,77.3,89.4,77.8z"/>
	<path fill="#F8CCD2" d="M89.4,77.8c0,1.8-0.2,3.4-0.6,5.1l-1,0.5C80,87.3,71.5,89.2,63,89.2v-26c1.6,0,2.9,1.3,2.9,2.9
		c0,3.2,2.6,5.9,5.9,5.9s5.9-2.6,5.9-5.9l3.9-5c4.6,4,7.2,9.3,7.7,15C89.2,76.7,89.4,77.3,89.4,77.8z"/>
	<path fill="#7C8287" d="M106.9,110.1c0,1.6-1.3,2.9-2.9,2.9H22c-1.6,0-2.9-1.3-2.9-2.9c0-1.6,1.3-2.9,2.9-2.9h82
		C105.7,107.1,106.9,108.4,106.9,110.1z"/>
	<path fill="#576065" d="M106.9,110.1c0,1.6-1.3,2.9-2.9,2.9H63v-5.9h41C105.7,107.1,106.9,108.4,106.9,110.1z"/>
	<path fill="#F8CCD2" d="M83.5,63.2c0,6.4-5.3,11.7-11.7,11.7c-3.5,0-6.6-1.6-8.8-4c-2.2,2.5-5.3,4-8.8,4c-6.4,0-11.7-5.3-11.7-11.7
		c0-1.6,1.3-2.9,2.9-2.9s2.9,1.3,2.9,2.9c0,3.2,2.6,5.9,5.9,5.9s5.9-2.6,5.9-5.9c0-1.6,1.3-2.9,2.9-2.9s2.9,1.3,2.9,2.9
		c0,3.2,2.6,5.9,5.9,5.9s5.9-2.6,5.9-5.9c0-1.6,1.3-2.9,2.9-2.9S83.5,61.6,83.5,63.2z"/>
	<path fill="#F3A7AA" d="M71.8,74.9c-3.5,0-6.6-1.6-8.8-4V60.3c1.6,0,2.9,1.3,2.9,2.9c0,3.2,2.6,5.9,5.9,5.9s5.9-2.6,5.9-5.9
		c0-1.6,1.3-2.9,2.9-2.9s2.9,1.3,2.9,2.9C83.5,69.6,78.2,74.9,71.8,74.9z"/>
	<path fill="#576065" d="M71.8,22V28c0,1.6-1.3,2.9-2.9,2.9H57.1c-1.6,0-2.9-1.3-2.9-2.9V22c0-4.9,3.9-9,8.8-9S71.8,17.1,71.8,22z"
		/>
	<path fill="#32393F" d="M68.9,31H63V13c4.9,0,8.8,4.1,8.8,9V28C71.8,29.7,70.5,31,68.9,31z"/>
	<path fill="#7C8287" d="M77.6,33.9v2.9L63,42.7l-14.6-5.9v-2.9c0-4.9,3.9-8.8,8.8-8.8h11.7C73.7,25.1,77.6,29,77.6,33.9z"/>
	<path fill="#576065" d="M77.6,33.9v2.9L63,42.7V25.1h5.9C73.7,25.1,77.6,29,77.6,33.9z"/>
	<path fill="#FBE3E4" d="M77.6,36.8v8.8c0,8.1-6.6,14.6-14.6,14.6s-14.6-6.6-14.6-14.6v-8.8H77.6z"/>
	<path fill="#F8CCD2" d="M77.6,36.8v8.8c0,8.1-6.6,14.6-14.6,14.6V36.8H77.6z"/>
</g>
</svg>
