<?xml version="1.0" encoding="utf-8"?>
<!-- Generator: Adobe Illustrator 24.3.0, SVG Export Plug-In . SVG Version: 6.00 Build 0)  -->
<svg version="1.1" id="Layer_1" xmlns="http://www.w3.org/2000/svg" xmlns:xlink="http://www.w3.org/1999/xlink" x="0px" y="0px"
	 viewBox="0 0 126 126" enable-background="new 0 0 126 126" xml:space="preserve">
<g>
	<path fill="#EFC388" d="M113,63c0,27.6-22.4,50-50,50S13,90.6,13,63s22.4-50,50-50S113,35.4,113,63z"/>
	<path fill="#F08E9D" d="M91.6,34.7C71.2,45.8,57.4,65.9,54.4,88.9l-0.2,1.8l16.8,8.1l1.3-1.3C88.3,80.9,95.5,57.5,91.6,34.7z"/>
	<path fill="#4C4372" d="M70.9,100.3c-0.2,0-0.4,0-0.6-0.1L53.5,92c-0.6-0.3-0.9-0.9-0.8-1.5l0.2-1.8c1.5-11.5,5.8-22.6,12.4-32.2
		S80.7,39,90.9,33.4c0.4-0.2,0.9-0.2,1.3,0c0.4,0.2,0.7,0.6,0.8,1.1c2,11.4,1.2,23.3-2.2,34.4c-3.4,11.1-9.5,21.3-17.5,29.7
		l-1.3,1.3C71.7,100.1,71.3,100.3,70.9,100.3z M55.7,89.9l14.9,7.2l0.6-0.6c7.7-8,13.6-17.9,16.9-28.5c3.1-10,3.9-20.7,2.5-31
		c-9,5.3-16.9,12.6-22.8,21.2c-6.3,9.2-10.4,19.9-11.9,30.9L55.7,89.9z"/>
	<path fill="#4C4372" d="M61.6,95.8c-0.2,0-0.4,0-0.6-0.2c-0.7-0.4-1-1.2-0.6-1.9L90.3,34c0.4-0.7,1.2-1,1.9-0.6s1,1.2,0.6,1.9
		L62.9,95C62.7,95.5,62.2,95.8,61.6,95.8z"/>
	<path fill="#A4CDEF" d="M50.7,27.2C36.3,47.4,32.3,73.3,40.1,97l0.6,1.9h20l0.6-1.9C69.1,73.3,65.2,47.4,50.7,27.2z"/>
	<path fill="#D2E5F7" d="M36.6,64.6l0.3,0.5L50.7,57l13.8,8.1l0.3-0.4c-0.4-4.4-1.3-8.8-2.4-13L50.7,44L39,51.7
		C37.9,55.9,37,60.3,36.6,64.6z"/>
	<path fill="#D2E5F7" d="M37.1,84.5l13.6-8l13.6,8c0.4-2.4,0.6-4.8,0.8-7.3l-14.4-8.4l-14.4,8.5C36.5,79.6,36.7,82.1,37.1,84.5z"/>
	<g>
		<path fill="#4C4372" d="M36.9,66.5c-0.5,0-0.9-0.2-1.2-0.6l-0.3-0.5c-0.2-0.3-0.3-0.6-0.3-1c0.5-4.5,1.3-8.9,2.5-13.2
			c0.1-0.3,0.3-0.6,0.6-0.8l11.7-7.6c0.5-0.3,1.1-0.3,1.6,0l11.7,7.6c0.3,0.2,0.5,0.5,0.6,0.8c1.2,4.3,2,8.8,2.5,13.3
			c0,0.4-0.1,0.7-0.3,1L65.7,66c-0.4,0.6-1.3,0.7-1.9,0.4l-13.1-7.7l-13.1,7.7C37.4,66.5,37.2,66.5,36.9,66.5z M40.3,52.6
			c-0.9,3.3-1.6,6.7-2,10L50,55.7c0.5-0.3,1-0.3,1.5,0l11.7,6.9c-0.4-3.4-1.1-6.7-2-10l-10.4-6.8L40.3,52.6z"/>
		<path fill="#4C4372" d="M37.1,85.9c-0.2,0-0.4,0-0.6-0.1c-0.4-0.2-0.7-0.6-0.8-1.1c-0.4-2.4-0.6-4.9-0.8-7.4
			c0-0.5,0.2-1.1,0.7-1.3L50,67.5c0.5-0.3,1-0.3,1.5,0l14.4,8.4c0.5,0.3,0.7,0.8,0.7,1.3c-0.1,2.5-0.4,5-0.8,7.4
			c-0.1,0.5-0.4,0.9-0.8,1.1c-0.4,0.2-0.9,0.2-1.4-0.1l-12.9-7.6l-12.9,7.6C37.6,85.8,37.4,85.9,37.1,85.9z M37.8,78
			c0.1,1.4,0.2,2.8,0.4,4.1L50,75.2c0.5-0.3,1-0.3,1.5,0l11.8,6.9c0.2-1.4,0.3-2.7,0.4-4.1l-12.9-7.6L37.8,78z"/>
		<path fill="#4C4372" d="M60.7,100.3h-20c-0.6,0-1.2-0.4-1.4-1l-0.6-1.9c-3.9-11.8-5-24.6-3.1-36.8c1.9-12.3,6.7-24.1,13.9-34.3
			c0.3-0.4,0.7-0.6,1.2-0.6c0.5,0,0.9,0.2,1.2,0.6c7.2,10.1,12,22,13.9,34.3c1.9,12.3,0.8,25-3.1,36.8l-0.6,1.9
			C61.9,99.9,61.4,100.3,60.7,100.3z M41.8,97.4h17.9l0.3-0.9c3.7-11.4,4.8-23.7,3-35.5C61.3,49.8,57,39.1,50.7,29.7
			C44.4,39.1,40.2,49.8,38.5,61c-1.8,11.8-0.8,24.1,3,35.5L41.8,97.4z"/>
		<path fill="#4C4372" d="M60.7,100.3H33.4c-0.8,0-1.4-0.6-1.4-1.4c0-0.8,0.6-1.4,1.4-1.4h27.4c0.8,0,1.4,0.6,1.4,1.4
			C62.2,99.6,61.5,100.3,60.7,100.3z"/>
		<path fill="#4C4372" d="M78.6,100.3h-7.7c-0.8,0-1.4-0.6-1.4-1.4c0-0.8,0.6-1.4,1.4-1.4h7.7c0.8,0,1.4,0.6,1.4,1.4
			C80,99.6,79.4,100.3,78.6,100.3z"/>
		<path fill="#4C4372" d="M87.5,100.3h-3.9c-0.8,0-1.4-0.6-1.4-1.4c0-0.8,0.6-1.4,1.4-1.4h3.9c0.8,0,1.4,0.6,1.4,1.4
			C88.9,99.6,88.3,100.3,87.5,100.3z"/>
	</g>
</g>
</svg>
