<?xml version="1.0" encoding="utf-8"?>
<!-- Generator: Adobe Illustrator 24.3.0, SVG Export Plug-In . SVG Version: 6.00 Build 0)  -->
<svg version="1.1" id="Layer_1" xmlns="http://www.w3.org/2000/svg" xmlns:xlink="http://www.w3.org/1999/xlink" x="0px" y="0px"
	 viewBox="0 0 126 126" enable-background="new 0 0 126 126" xml:space="preserve">
<g>
	<path fill="#591118" d="M25.9,71.2c-0.8,4.6,1.8,13,7.3,20.1c6.4,8.2,26.5,22.8,47.6,20.1c29.3-3.7,11.6-43.9-11.9-50.3
		C54.2,64.8,26,70.5,25.9,71.2z"/>
	<path fill="#B11D1C" d="M25.9,70.3c-0.8,4.6,1.8,13,7.3,20.1c6.4,8.2,26.5,22.8,47.6,20.1c29.3-3.7,11.6-43.9-11.9-50.3
		c-13.7,3.4-38.3,4.1-42.1,7.3C26.4,68.4,26.1,69.3,25.9,70.3z"/>
	<path fill="#F4C05E" d="M19.5,35.5c0,0,13.7,15.5,14.6,16.4c0.9,0.9,1.8,2.7,0,5.5c-1.8,2.7-5.5,6.4-7.3,10.1s0.3,12.6,6.4,21
		c7.3,10.1,27.4,23.8,47.5,21c30.6-4.2,12.6-45.7-11-52.1c-20.1-5.5-21-6.4-22.9-8.2c-3.5-3.5-16.4-20.1-16.4-20.1s-4.1-2.1-6.4-0.9
		C18.6,30.9,19.5,35.5,19.5,35.5z"/>
	<path fill="#971829" d="M26.8,67.5c-0.8,4.5,1.8,13.1,7.3,20.1c6.4,8.2,26.5,22.8,47.5,20.1c29.3-3.6,11.6-43.9-11.9-50.3
		C55.1,61.1,26.9,66.8,26.8,67.5z"/>
	<path fill="#A6182D" d="M26.8,67.5c-0.4,2.1-0.1,4.2,0.9,7.3C35,73.1,56.1,67.5,78,61.1c-2.5-1.6-5.3-2.8-8.2-3.6
		C55.1,61.1,26.9,66.8,26.8,67.5z"/>
	<path fill="#591118" d="M81.7,106.8C59.7,110.5,40.5,95,34.1,86.7c-4.7-6-7.3-13-7.5-17.8c-0.2,4.8,2.4,12.3,7.5,18.7
		c6.4,8.2,25.6,23.8,47.5,20.1c11.1-1.8,15.5-8.1,15.3-16.2C96.8,99.3,92.3,105.1,81.7,106.8z"/>
	
		<linearGradient id="SVGID_1_" gradientUnits="userSpaceOnUse" x1="32.9405" y1="895.0821" x2="41.7936" y2="888.6479" gradientTransform="matrix(1 0 0 1 0 -848)">
		<stop  offset="0.25" style="stop-color:#E1823F"/>
		<stop  offset="0.4" style="stop-color:#F39D6B"/>
		<stop  offset="0.51" style="stop-color:#F5AD86"/>
		<stop  offset="0.52" style="stop-color:#F5AB84"/>
		<stop  offset="0.62" style="stop-color:#DC7D53"/>
		<stop  offset="0.71" style="stop-color:#C45A32"/>
		<stop  offset="0.78" style="stop-color:#B4451E"/>
		<stop  offset="0.83" style="stop-color:#B03E18"/>
	</linearGradient>
	<path fill="url(#SVGID_1_)" d="M43.2,60.2l11-2.7l-4-4L31.4,28.2c0,0-5.5-2.7-9.1,0.9c-1.3,1.2-2.3,2.8-2.8,4.6L43.2,60.2z"/>
	
		<linearGradient id="SVGID_2_" gradientUnits="userSpaceOnUse" x1="43.2578" y1="905.0392" x2="54.2307" y2="905.0392" gradientTransform="matrix(1 0 0 1 0 -848)">
		<stop  offset="0.25" style="stop-color:#E1823F"/>
		<stop  offset="0.59" style="stop-color:#C25726"/>
		<stop  offset="0.83" style="stop-color:#B03E18"/>
	</linearGradient>
	<path fill="url(#SVGID_2_)" d="M48.7,53.9c2.8,0,5.5,3.6,5.5,3.6l-11,2.7C43.3,60.2,46,53.9,48.7,53.9z"/>
	<polygon fill="#F6DE8C" points="25,30.9 45.1,56.5 46.9,54.7 35.9,41.9 	"/>
	<polygon fill="#972F15" points="35,34.6 46,49.2 54.2,57.5 33.2,30.9 	"/>
	<path fill="#B03E18" d="M21,34.2c0.3,0.4,15,16,15,16l6.4,8.2L21,34.2z"/>
	<path opacity="0.6" fill="#591118" enable-background="new    " d="M45.9,55.7c-2.2,3.4-3.3,17-1.1,24.6
		c2.5,8.9,11.6,24.4,29.7,29.3c25.1,6.8,24.2-31.9,7.1-45.1C68.4,62.7,46.3,55.1,45.9,55.7z"/>
	<path fill="#591118" d="M46.7,53.9c-2.5,3.9-3.3,12.8-0.8,21.4c2.8,10.1,15.9,31.1,36.4,36.7c28.5,7.7,27.4-36.2,8.1-51.1
		C75.4,58.8,47.2,53.3,46.7,53.9z"/>
	<path fill="#B11D1C" d="M47.1,53.1c-2.5,3.9-3.3,12.8-0.8,21.4c2.8,10.1,15.9,31.1,36.4,36.7c28.5,7.7,27.4-36.2,8.1-51.1
		C75.8,57.9,47.5,52.5,47.1,53.1z"/>
	<path fill="#F4C05E" d="M54.3,18.5c0,0,6.8,19.6,7.3,20.8c0.5,1.2,0.7,3.2-2.1,5.1s-7.5,3.8-10.6,6.5c-3.1,2.7-4.5,11.7-2,21.9
		c3,12.1,16.4,32.4,36,37.5c29.9,7.7,29-37.5,9.6-52.4C76,45.2,75.5,44,74.6,41.6C72.7,37.1,67,16.7,67,16.7s-3-3.5-5.6-3.3
		C55.2,14,54.3,18.5,54.3,18.5z"/>
	<path fill="#B61730" d="M49,50.9c-2.5,3.9-3.3,12.8-0.8,21.4c2.8,10.1,15.9,31.1,36.4,36.6c28.5,7.7,27.4-36.2,8.1-51
		C77.6,55.7,49.4,50.3,49,50.9z"/>
	<path fill="#C41533" d="M49,50.9c-1.1,1.8-1.7,3.8-1.9,7.1c7.4,1.2,29.1,4,51.7,6.4c-1.7-2.5-3.8-4.6-6.2-6.5
		C77.6,55.7,49.4,50.3,49,50.9z"/>
	<path fill="#591118" d="M84.8,108.1c-21.7-4.9-33.6-26.6-36.4-36.7c-2.1-7.3-1.8-14.8-0.2-19.3c-2,4.4-2.4,12.3-0.2,20.2
		c2.8,10.1,14.7,31.7,36.4,36.6c10.9,2.5,17.4-1.6,20.3-9.1C101.7,106.8,95.4,110.5,84.8,108.1z"/>
	
		<linearGradient id="SVGID_3_" gradientUnits="userSpaceOnUse" x1="328.8604" y1="353.5891" x2="337.7136" y2="347.155" gradientTransform="matrix(0.93 0.38 -0.38 0.93 -108.34 -419.67)">
		<stop  offset="0.25" style="stop-color:#E1823F"/>
		<stop  offset="0.4" style="stop-color:#F39D6B"/>
		<stop  offset="0.51" style="stop-color:#F5AD86"/>
		<stop  offset="0.52" style="stop-color:#F5AB84"/>
		<stop  offset="0.62" style="stop-color:#DC7D53"/>
		<stop  offset="0.71" style="stop-color:#C45A32"/>
		<stop  offset="0.78" style="stop-color:#B4451E"/>
		<stop  offset="0.83" style="stop-color:#B03E18"/>
	</linearGradient>
	<path fill="url(#SVGID_3_)" d="M67,50.4L78.2,52L76,46.7l-7.9-30.5c0,0-4-4.6-8.8-2.6c-1.7,0.6-3.2,1.8-4.3,3.2L67,50.4z"/>
	
		<linearGradient id="SVGID_4_" gradientUnits="userSpaceOnUse" x1="340.017" y1="363.9333" x2="350.9898" y2="363.9333" gradientTransform="matrix(0.93 0.38 -0.38 0.93 -108.34 -419.67)">
		<stop  offset="0.25" style="stop-color:#E1823F"/>
		<stop  offset="0.59" style="stop-color:#C25726"/>
		<stop  offset="0.83" style="stop-color:#B03E18"/>
	</linearGradient>
	<path fill="url(#SVGID_4_)" d="M74.5,46.5c2.5,1,3.7,5.5,3.7,5.5L67,50.4C67,50.4,71.9,45.5,74.5,46.5z"/>
	<polygon fill="#F6DE8C" points="61.1,16.4 70,47.7 72.4,46.7 67.1,30.7 	"/>
	<polygon fill="#972F15" points="69.1,23.6 73.7,41.3 78.2,52 68.8,19.5 	"/>
	<path fill="#B03E18" d="M56.3,17.9c0.1,0.5,7.8,20.4,7.8,20.4l2.8,10L56.3,17.9z"/>
	
		<radialGradient id="SVGID_5_" cx="95.803" cy="923.8427" r="12.1616" gradientTransform="matrix(1 0 0 1 0 -848)" gradientUnits="userSpaceOnUse">
		<stop  offset="8.000000e-02" style="stop-color:#FFE004"/>
		<stop  offset="0.18" style="stop-color:#FFD901"/>
		<stop  offset="0.34" style="stop-color:#FDC504"/>
		<stop  offset="0.43" style="stop-color:#F9B50F"/>
		<stop  offset="0.51" style="stop-color:#F3A605"/>
		<stop  offset="0.67" style="stop-color:#D37B10"/>
		<stop  offset="0.68" style="stop-color:#D17810"/>
		<stop  offset="0.87" style="stop-color:#EF8304"/>
	</radialGradient>
	<circle fill="url(#SVGID_5_)" cx="97" cy="77.5" r="8"/>
	
		<radialGradient id="SVGID_6_" cx="96.7257" cy="924.5659" r="10.8898" gradientTransform="matrix(1 0 0 1 0 -848)" gradientUnits="userSpaceOnUse">
		<stop  offset="0" style="stop-color:#FFE81E"/>
		<stop  offset="0.14" style="stop-color:#FFE013"/>
		<stop  offset="0.34" style="stop-color:#FFCD0A"/>
		<stop  offset="0.43" style="stop-color:#FBC009"/>
		<stop  offset="0.51" style="stop-color:#F9B306"/>
		<stop  offset="0.65" style="stop-color:#E98E03"/>
		<stop  offset="0.87" style="stop-color:#F29019"/>
	</radialGradient>
	<path fill="url(#SVGID_6_)" d="M98.6,79.6c-3.5,2.6-7,3.6-8.2,2.4c0,0,0,0.1,0,0.1c1,1.3,4.7,0.3,8.2-2.3c3.5-2.7,5.6-5.9,4.6-7.2
		l-0.1-0.1C104.1,73.9,102.1,77,98.6,79.6z"/>
	
		<radialGradient id="SVGID_7_" cx="96.5096" cy="924.5078" r="11.48" gradientTransform="matrix(1 0 0 1 0 -848)" gradientUnits="userSpaceOnUse">
		<stop  offset="1.000000e-02" style="stop-color:#FFCB16"/>
		<stop  offset="0.13" style="stop-color:#FCC314"/>
		<stop  offset="0.29" style="stop-color:#F8B01C"/>
		<stop  offset="0.38" style="stop-color:#F5A21D"/>
		<stop  offset="0.47" style="stop-color:#ED9512"/>
		<stop  offset="0.64" style="stop-color:#C77114"/>
		<stop  offset="0.65" style="stop-color:#C46E14"/>
		<stop  offset="0.87" style="stop-color:#E37B12"/>
	</radialGradient>
	<path fill="url(#SVGID_7_)" d="M98.4,79.4c-3.5,2.6-7,3.6-8.2,2.4c0,0,0,0.1,0,0.1c1,1.3,4.7,0.3,8.2-2.4c3.5-2.7,5.6-5.9,4.6-7.2
		l-0.1-0.1C103.9,73.6,101.9,76.8,98.4,79.4z"/>
</g>
</svg>
