<?xml version="1.0" encoding="utf-8"?>
<!-- Generator: Adobe Illustrator 24.3.0, SVG Export Plug-In . SVG Version: 6.00 Build 0)  -->
<svg version="1.1" id="Layer_1" xmlns="http://www.w3.org/2000/svg" xmlns:xlink="http://www.w3.org/1999/xlink" x="0px" y="0px"
	 viewBox="0 0 126 126" enable-background="new 0 0 126 126" xml:space="preserve">
<g>
	<path fill="#EDE0DB" d="M93.3,82.7L82,63.1c-0.3-0.5-0.4-1.2-0.4-1.8l4.4-38c0.1-1,0.7-1.8,1.6-2.3c0.9-0.4,1.9-0.4,2.8,0.1
		c3.2,1.8,5.4,4.5,6.6,8l15.8,47.4c0.3,0.8,0.2,1.6-0.2,2.3c-0.4,0.7-1,1.2-1.8,1.4L96.6,84c-0.3,0.1-0.5,0.1-0.8,0.1
		C94.8,84.1,93.8,83.6,93.3,82.7z"/>
	<path fill="#EDE0DB" d="M75.3,19.2l-12,21.1L50.6,19.2L49.8,13h25.4V19.2z"/>
	<path fill="#E0D2CD" d="M63.1,13v27l0.2,0.3l12-21.1V13L63.1,13z"/>
	<path fill="#F6EEE9" d="M30.2,84.1c-0.3,0-0.5,0-0.8-0.1l-14.2-3.8c-0.8-0.2-1.4-0.7-1.8-1.4c-0.4-0.7-0.5-1.6-0.2-2.3L29,29.1
		c1.2-3.5,3.4-6.2,6.6-8c0.9-0.5,1.9-0.5,2.8-0.1c0.9,0.4,1.5,1.3,1.6,2.3l4.4,38c0.1,0.6-0.1,1.3-0.4,1.8L32.7,82.7
		C32.2,83.6,31.2,84.1,30.2,84.1L30.2,84.1z"/>
	<path fill="#FDF2F3" d="M93.9,109.3l-7.8-32.5l-2.9-2.7l1.4-3.3l8.9-45.4c0.2-1.2-0.3-2.5-1.4-3.1l-15.2-9
		c-0.7-0.4-1.6-0.5-2.4-0.3c-0.8,0.2-1.4,0.8-1.8,1.6l-9.1,24.7c0,0-12.3-25.8-13-26c-0.8-0.2-1-0.6-1.7-0.2l-15.2,9
		c-1.1,0.6-1.6,1.9-1.4,3.1l9.1,45.7l1.8,2.9L40,76.8l-7.8,32.6c-0.2,0.9,0,1.8,0.5,2.5c0.6,0.7,1.4,1.1,2.3,1.1h55.9
		c0.5,0,1-0.1,1.4-0.3c0.4-0.2,0.8-0.5,1.1-0.8C93.9,111.1,94.1,110.2,93.9,109.3L93.9,109.3z"/>
	<g>
		<path fill="#F6EEE9" d="M93.9,109.3l-7.8-32.5l-2.9-2.7l1.4-3.3l8.9-45.4c0.2-1.2-0.3-2.5-1.4-3.1l-15.2-9
			c-0.7-0.4-1.6-0.5-2.4-0.3c-0.8,0.2-1.4,0.8-1.8,1.6l-9.1,24.7c0,0-0.2-0.4-0.6-1.2V113h27.8c0.5,0,1-0.1,1.4-0.3
			c0.4-0.2,0.8-0.5,1.1-0.8C93.9,111.1,94.1,110.2,93.9,109.3L93.9,109.3z"/>
		<path fill="#F6EEE9" d="M62.9,46.5c-1.1,0-2.2-0.6-2.7-1.7l-13-27.6c-0.7-1.5-0.1-3.2,1.4-3.9c1.5-0.7,3.2-0.1,3.9,1.4l13,27.6
			c0.7,1.5,0.1,3.2-1.4,3.9C63.8,46.4,63.3,46.5,62.9,46.5z"/>
		<path fill="#F6EEE9" d="M52,74.8c-0.4,0-0.7-0.1-1.1-0.2c-1.5-0.6-2.2-2.3-1.6-3.8l22.8-56c0.6-1.5,2.3-2.2,3.8-1.6
			c1.5,0.6,2.2,2.3,1.6,3.8L54.7,73C54.3,74.1,53.2,74.8,52,74.8L52,74.8z"/>
	</g>
	<path fill="#00607F" d="M57.5,96.5c-1.6,0-2.9-1.3-2.9-2.9V74.4c0-1.6,1.3-2.9,2.9-2.9c1.6,0,2.9,1.3,2.9,2.9v19.1
		C60.5,95.2,59.2,96.5,57.5,96.5z"/>
	<path fill="#042C3B" d="M68.5,85c-1.6,0-2.9-1.3-2.9-2.9v-7.4c0-1.6,1.3-2.9,2.9-2.9c1.6,0,2.9,1.3,2.9,2.9V82
		C71.4,83.7,70.1,85,68.5,85z"/>
	<path fill="#027A9F" d="M84.7,70.9H41.4L40,76.8h46.1L84.7,70.9z"/>
	<path fill="#00607F" d="M63.1,76.8h23l-1.4-5.9H63.1V76.8z"/>
	<path fill="#EDE0DB" d="M75.9,13.2c-1.5-0.6-3.2,0.1-3.8,1.6l-9,22.1v15.5L77.5,17C78.1,15.5,77.4,13.8,75.9,13.2L75.9,13.2z"/>
</g>
</svg>
