<?xml version="1.0" encoding="utf-8"?>
<!-- Generator: Adobe Illustrator 24.3.0, SVG Export Plug-In . SVG Version: 6.00 Build 0)  -->
<svg version="1.1" id="Layer_1" xmlns="http://www.w3.org/2000/svg" xmlns:xlink="http://www.w3.org/1999/xlink" x="0px" y="0px"
	 viewBox="0 0 126 126" enable-background="new 0 0 126 126" xml:space="preserve">
<g>
	<path fill="#A7A7A7" d="M101,113H25c-6.6,0-12-5.4-12-12V25c0-6.6,5.4-12,12-12h76c6.6,0,12,5.4,12,12v76
		C113,107.6,107.6,113,101,113z"/>
	<g>
		<path d="M52.1,64.1c-1.1,0-2.2,0-3.3,0c0.1-0.2,0.1-0.4,0.2-0.5c0.7-0.7,0.8-1.4,0.8-2.4c-0.1-1.8,0-3.6,0-5.4
			c0-0.6-0.1-1.1-0.4-1.5c-0.1-0.2-0.2-0.4-0.2-0.6c0-0.2,0.1-0.2,0.2-0.2c0.9,0,1.8,0,2.6,0c0.1,0,0.3,0.2,0.4,0.3
			c0.9,1.4,1.8,2.9,2.7,4.3c0.1,0.1,0.2,0.2,0.3,0.4c0.3-0.5,0.6-0.9,0.9-1.4c0.5-0.7,0.9-1.5,1.4-2.2c0.1-0.2,0.1-0.3,0-0.4
			c-0.2-0.2-0.3-0.4-0.5-0.6c-0.2-0.3-0.1-0.4,0.2-0.4c1.3,0,2.7,0,4,0c0,0,0.1,0,0.2,0c-0.1,0.2-0.1,0.4-0.2,0.5
			c-0.6,0.6-0.8,1.4-0.8,2.3c0.1,2,0,3.9,0,5.9c0,0.3,0.1,0.5,0.3,0.7c0.2,0.2,0.4,0.4,0.5,0.7c0.1,0.1,0.1,0.3,0.2,0.5
			c-0.2,0-0.3,0-0.4,0c-1.3,0-2.6,0-4,0c-0.1,0-0.3,0-0.3-0.1c0-0.1,0-0.2,0.1-0.4c0,0,0,0,0-0.1c0.7-0.7,0.8-1.5,0.8-2.4
			c-0.1-1.3,0-2.5,0-3.8c0-0.1,0-0.2-0.1-0.4c-0.1,0.1-0.2,0.2-0.2,0.3c-0.9,1.4-1.7,2.7-2.6,4.1c-0.2,0.4-0.5,0.4-0.7,0
			c-0.9-1.4-1.7-2.7-2.6-4.1c-0.1-0.1-0.2-0.3-0.4-0.4c0,0.1,0,0.2,0,0.3c0,1.6,0,3.2,0,4.9c0,0.2,0.1,0.4,0.2,0.6
			c0.2,0.3,0.4,0.5,0.6,0.8C52,63.7,52.1,63.9,52.1,64.1z"/>
		<path d="M94.4,64.1c0.1-0.2,0.1-0.4,0.2-0.5c0.7-0.7,0.9-1.4,0.8-2.4c-0.1-0.6,0-1.3,0-2c-0.1,0-0.2,0-0.3,0c-0.8,0-1.6,0-2.4,0
			c-0.2,0-0.3,0.1-0.3,0.3c0,0.9,0,1.9,0,2.8c0,0.1,0.1,0.3,0.1,0.4c0.2,0.3,0.4,0.5,0.6,0.7c0.1,0.2,0.2,0.4,0.3,0.6
			c-1.6,0-3.2,0-4.8,0c0.1-0.2,0.1-0.4,0.2-0.5c0.7-0.7,0.8-1.5,0.8-2.4c-0.1-1.9,0-3.9,0-5.8c0-0.3-0.1-0.5-0.2-0.7
			c-0.2-0.2-0.4-0.5-0.6-0.7c-0.1-0.1-0.1-0.3-0.2-0.5c1.6,0,3.1,0,4.8,0c-0.1,0.2-0.1,0.5-0.2,0.6c-0.6,0.6-0.8,1.4-0.7,2.2
			c0,0.5,0,0.9,0,1.4c0,0.1,0.1,0.3,0.2,0.3c0.9,0,1.9,0,2.8,0c0-0.4,0-0.7,0-1c0-0.2,0-0.3,0-0.5c0.1-0.9-0.1-1.8-0.8-2.4
			c-0.1-0.1-0.1-0.3-0.2-0.5c1.6,0,3.2,0,4.8,0c-0.1,0.2-0.1,0.4-0.2,0.5c-0.7,0.7-0.8,1.4-0.8,2.4c0.1,1.9,0,3.9,0,5.8
			c0,0.3,0.1,0.5,0.2,0.7c0.2,0.2,0.4,0.4,0.5,0.7c0.1,0.1,0.1,0.3,0.2,0.6C97.5,64.1,96,64.1,94.4,64.1z"/>
		<path d="M84.5,63c0-1.4,0-2.7,0-4.1c0.4,0,0.8,0,1.2,0c0.3,0,0.7,0,1,0c0.4,0,0.6,0.2,0.6,0.6c0,1.1,0,2.2,0,3.4
			c0,0.1-0.1,0.3-0.2,0.4c-1.8,0.8-3.6,1.2-5.6,0.5c-2.4-0.8-3.8-3-3.6-5.6c0.2-2.4,2.1-4.4,4.5-4.7c1.7-0.2,3.2,0.3,4.5,1.4
			c0.4,0.3,0.3,0.6-0.1,0.8c-0.6,0.3-1.1,0.6-1.7,0.9c-0.2,0.1-0.4,0.1-0.6,0c-1-0.8-2.1-1.4-3.3-1.6c-0.2,0-0.3,0-0.4,0.2
			c-1.2,2.9,0.4,6.6,3.3,7.7C84.2,62.9,84.3,63,84.5,63z"/>
		<path d="M34.4,64.1c-0.2,0-0.3,0-0.4,0c-2.2,0-4.4,0-6.7,0c-0.1,0-0.3-0.1-0.4-0.1c0-0.2,0-0.4,0.1-0.5c0.7-0.7,0.8-1.5,0.8-2.4
			c-0.1-1.9,0-3.9,0-5.8c0-0.2-0.1-0.5-0.2-0.7c-0.2-0.3-0.4-0.5-0.6-0.8c-0.1-0.1-0.1-0.3-0.2-0.5c0.2,0,0.3,0,0.4,0
			c2.2,0,4.5,0,6.7,0c0.3,0,0.4,0.1,0.4,0.4c0,0.6,0,1.2,0,1.8c0,0.4-0.1,0.5-0.5,0.3c-1-0.4-2-0.7-3-1.1c-0.1,0-0.2,0-0.3-0.1
			c0,0.7,0,1.4,0,2.1c0,0.8,0,0.8,0.8,0.8c0.5,0,1.1,0,1.6,0c0.3,0,0.4,0.1,0.4,0.3c0,0.5,0,1,0,1.5c0,0.4-0.2,0.5-0.5,0.3
			c-0.7-0.4-1.3-0.7-2-1.1c-0.1,0-0.2-0.1-0.3-0.1c0,1.4,0,2.7,0,4.1c0.5-0.2,1-0.4,1.5-0.6c0.6-0.2,1.2-0.4,1.8-0.6
			c0.2-0.1,0.4,0,0.4,0.3C34.4,62.6,34.4,63.3,34.4,64.1z"/>
		<path d="M42.4,64.1c0.1-0.2,0.1-0.4,0.2-0.5c0.2-0.3,0.4-0.5,0.6-0.8c0.1-0.2,0.2-0.3,0.1-0.5c-0.4-0.9-0.4-0.9-1.4-0.9
			c-0.9,0-1.8,0-2.7,0c-0.2,0-0.3,0.1-0.4,0.3c-0.4,0.6-0.4,1.2,0.2,1.7c0.3,0.3,0.3,0.4,0.2,0.7c-1.1,0-2.2,0-3.3,0
			c0-0.2,0-0.4,0.1-0.5c1-1.1,1.5-2.6,2.2-4c1-2,1.9-4,2.9-6c0.1-0.3,0.4-0.2,0.6-0.3c0.2,0,0.4,0,0.5,0.3c1.3,2.8,2.7,5.7,4.1,8.5
			c0.2,0.5,0.6,0.9,0.9,1.4c0.1,0.1,0.1,0.3,0.2,0.4c-0.1,0-0.3,0.1-0.4,0.1c-1.4,0-2.9,0-4.3,0C42.6,64.1,42.5,64.1,42.4,64.1z
			 M39.5,60c0.9,0,1.7,0,2.6,0c-0.4-0.9-0.9-1.8-1.3-2.8C40.4,58.2,40,59.1,39.5,60z"/>
		<path d="M21.8,55c-0.9,0.3-1.8,0.5-2.7,0.8c-0.4,0.1-0.7,0.2-1.1,0.3c-0.2,0.1-0.5-0.1-0.5-0.3c0-0.8,0-1.6,0-2.4
			c2.7,0,5.4,0,8.2,0c-0.1,0.2-0.1,0.4-0.2,0.5c-0.7,0.7-0.8,1.5-0.8,2.4c0.1,2.4,0,4.9,0,7.3c0,0.2-0.1,0.4-0.2,0.6
			c-0.8,0.9-1.5,1.8-2.3,2.7c-0.1,0.1-0.2,0.1-0.3,0.2c0-0.1-0.1-0.2-0.1-0.4c0-3.8,0-7.6,0-11.3C21.8,55.4,21.8,55.3,21.8,55z"/>
		<path d="M100.3,53.4c2.8,0,5.5,0,8.2,0c0,0.6,0,1.2,0,1.8c0,0.9-0.1,1-1,0.8c-1-0.3-1.9-0.6-2.9-0.8c-0.1,0-0.2,0-0.4-0.1
			c0,0.2,0,0.3,0,0.5c0,3.8,0,7.5,0,11.3c0,0.1,0,0.2,0,0.2c0,0.1-0.1,0.1-0.1,0.2c-0.1,0-0.2-0.1-0.2-0.1c-0.3-0.4-0.7-0.8-1-1.2
			c-0.5-0.5-0.9-1.1-1.4-1.6c-0.1-0.2-0.2-0.4-0.2-0.6c0-2.8,0-5.6,0-8.3c0-0.3-0.1-0.5-0.2-0.7c-0.2-0.2-0.4-0.5-0.6-0.7
			C100.4,53.8,100.4,53.6,100.3,53.4z"/>
		<path d="M67.2,57.7c0.9,0,1.8,0,2.8,0c0,0.2,0,0.4,0,0.6c0,0.4,0,0.8,0,1.3c0,0.4-0.2,0.5-0.5,0.3c-0.7-0.4-1.3-0.7-2-1.1
			c-0.1,0-0.2-0.1-0.3-0.1c0,0.1,0,0.2,0,0.3c0,1.1,0,2.2,0,3.3c0,0.2,0.1,0.3,0.2,0.5c0.2,0.3,0.4,0.5,0.6,0.8
			c0.1,0.1,0.1,0.3,0.2,0.5c-1.6,0-3.1,0-4.7,0c0.1-0.2,0.1-0.4,0.2-0.5c0,0,0,0,0,0c0.7-0.6,0.8-1.4,0.8-2.3c-0.1-1.9,0-3.9,0-5.8
			c0-0.3-0.1-0.6-0.3-0.8c-0.2-0.2-0.3-0.4-0.5-0.6c-0.1-0.1-0.1-0.3-0.2-0.5c0.2,0,0.3,0,0.4,0c2.3,0,4.5,0,6.8,0
			c0.3,0,0.4,0.1,0.4,0.4c0,0.5,0,1.1,0,1.6c0,0.6-0.1,0.7-0.7,0.5c-0.9-0.3-1.9-0.6-2.8-0.9c-0.1,0-0.2,0-0.3-0.1
			C67.2,55.8,67.2,56.7,67.2,57.7z"/>
		<path d="M77.1,64c-1.6,0-3.1,0-4.7,0c0.1-0.2,0.1-0.3,0.2-0.5c0,0,0-0.1,0.1-0.1c0.7-0.6,0.8-1.4,0.8-2.3c-0.1-2,0-3.9,0-5.9
			c0-0.3-0.1-0.5-0.2-0.7c-0.2-0.2-0.4-0.5-0.5-0.7c-0.1-0.1-0.1-0.3-0.2-0.5c0.2,0,0.3,0,0.4,0c1.3,0,2.6,0,4,0
			c0.1,0,0.3,0,0.3,0.1c0,0.1,0,0.3-0.1,0.4c-0.2,0.3-0.4,0.6-0.6,0.9c-0.1,0.1-0.2,0.3-0.2,0.5c0,2.3,0,4.7,0,7
			c0,0.2,0.1,0.4,0.2,0.5c0.2,0.3,0.4,0.5,0.6,0.8C77,63.7,77,63.8,77.1,64z"/>
		<path d="M46.5,72.7c-0.9,0-1.7,0-2.7,0c0.2-0.2,0.3-0.4,0.4-0.6c0.2-0.2,0.1-0.3,0-0.5c-0.1-0.2-0.2-0.4-0.4-0.4c-0.5,0-1,0-1.5,0
			c-0.2,0-0.3,0.1-0.4,0.3c-0.1,0.2-0.2,0.4,0,0.6c0.1,0.1,0.2,0.3,0.4,0.6c-0.7,0-1.2,0-1.8,0c0-0.1,0-0.2,0.1-0.2
			c0.6-0.8,0.9-1.7,1.4-2.5c0.4-0.9,0.8-1.8,1.3-2.6c0-0.1,0.2-0.2,0.3-0.2c0.1,0,0.3,0.1,0.3,0.2c0.7,1.4,1.3,2.8,2,4.2
			c0.1,0.3,0.3,0.6,0.5,0.8C46.4,72.4,46.4,72.5,46.5,72.7z M43.8,70.5c-0.2-0.5-0.4-0.9-0.7-1.4c-0.3,0.5-0.5,1-0.7,1.4
			C42.8,70.5,43.3,70.5,43.8,70.5z"/>
		<path d="M89,71.9c0.5-0.3,0.9-0.5,1.3-0.7c0.1,0,0.3,0,0.4,0c0.4,0.2,0.8,0.5,1.2,0.8c0.2-0.3,0.2-0.6,0-0.8
			c-0.2-0.2-0.4-0.4-0.7-0.6c-0.4-0.3-0.9-0.6-1.3-1c-0.9-0.9-0.5-2.2,0.7-2.5c0.9-0.3,1.8,0,2.5,0.6c-0.4,0.2-0.8,0.5-1.2,0.7
			c-0.1,0-0.2,0-0.3,0c-0.4-0.2-0.8-0.4-1.2-0.6c-0.1,0.3-0.1,0.5,0.1,0.7c0.3,0.2,0.6,0.5,0.9,0.7c0.3,0.2,0.7,0.5,1,0.7
			c1,0.9,0.7,2.2-0.6,2.7C91,72.8,90,72.5,89,71.9z"/>
		<path d="M83.9,68c-0.4,0.2-0.8,0.5-1.1,0.6c-0.1,0-0.2,0-0.3-0.1c-0.4-0.3-0.9-0.6-1.5-0.8c-0.2-0.1-0.3,0-0.4,0.2
			c-0.5,1.6,0.4,3.2,2.1,3.6c0.3,0.1,0.6,0.1,0.9,0.2c-0.9,1-2.5,1-3.6,0c-1.1-1.1-1.1-3.1,0-4.1C81.2,66.7,82.9,66.8,83.9,68z"/>
		<path d="M55.1,71.8c-1,1-2.7,1-3.7-0.1c-1.1-1.2-0.9-3.1,0.3-4.1c1.1-0.9,2.8-0.7,3.7,0.4c-0.4,0.2-0.8,0.5-1.2,0.6
			c-0.1,0-0.2,0-0.3-0.1c-0.4-0.4-0.9-0.6-1.5-0.7c-0.2-0.1-0.3,0-0.4,0.2c-0.4,1.2,0.1,2.6,1.3,3.3c0.3,0.1,0.5,0.3,0.8,0.3
			C54.4,71.8,54.7,71.8,55.1,71.8z"/>
		<path d="M35.1,72.6c-0.8,0-1.6,0-2.4,0c0.1-0.1,0.1-0.2,0.2-0.3c0.3-0.3,0.4-0.7,0.4-1.1c0-1.1,0-2.2,0-3.3c0-0.1,0-0.3,0-0.5
			c-0.4,0.2-0.8,0.4-1.1,0.6c-0.4,0.2-0.5,0.2-0.5-0.3c0-0.3,0-0.5,0-0.8c1.6,0,3.1,0,4.7,0c0,0.3,0,0.7,0,1c0,0.2-0.2,0.2-0.3,0.1
			c-0.4-0.2-0.8-0.4-1.3-0.7c0,0.2,0,0.3,0,0.4c0,1.2,0,2.3,0,3.5c0,0.3,0.1,0.6,0.3,0.9C35,72.3,35.1,72.5,35.1,72.6z"/>
		<path d="M61.8,67.5c-0.5,0.2-0.9,0.5-1.3,0.7c-0.3,0.1-0.4,0.1-0.4-0.2c0-0.3,0-0.6,0-0.9c1.6,0,3.1,0,4.7,0c0,0.3,0,0.7,0,1
			c0,0.2-0.1,0.3-0.3,0.2c-0.4-0.2-0.8-0.4-1.3-0.7c0,0.3,0,0.5,0,0.8c0,1,0,2.1,0,3.1c0,0.3,0.1,0.6,0.3,0.9
			c0.1,0.1,0.1,0.2,0.2,0.3c-0.8,0-1.6,0-2.4,0c0-0.1,0.1-0.2,0.1-0.2c0.4-0.3,0.4-0.8,0.4-1.2c0-1.1,0-2.2,0-3.2
			C61.8,67.8,61.8,67.6,61.8,67.5z"/>
		<path d="M70.8,67c0.2,0,0.2,0,0.3,0c0.7,0,1.4,0,2.2,0c-0.1,0.2-0.2,0.3-0.3,0.5c-0.2,0.2-0.3,0.5-0.3,0.8c0,1,0,2,0,3
			c0,0.4,0,0.7,0.3,0.9c0.1,0.1,0.1,0.2,0.2,0.4c-0.9,0-1.7,0-2.6,0c0.1-0.2,0.1-0.3,0.2-0.4c0.2-0.3,0.3-0.5,0.3-0.9c0-1,0-2,0-3
			c0-0.4-0.1-0.7-0.3-1C70.9,67.3,70.9,67.2,70.8,67z"/>
	</g>
</g>
</svg>
