<?xml version="1.0" encoding="utf-8"?>
<!-- Generator: Adobe Illustrator 24.3.0, SVG Export Plug-In . SVG Version: 6.00 Build 0)  -->
<svg version="1.1" id="Layer_1" xmlns="http://www.w3.org/2000/svg" xmlns:xlink="http://www.w3.org/1999/xlink" x="0px" y="0px"
	 viewBox="0 0 126 126" enable-background="new 0 0 126 126" xml:space="preserve">
<g id="T8nE86.tif">
	<g>
		<path fill="#FFFFFF" d="M24,62.6c-1.3,1.9-2.6,3.7-3.9,5.6c1.4,0,2.8,0,4.1,0c0.1,0,0.3,0,0.4-0.1c0.6-0.2,1.2-0.5,1.8-0.7
			c0.4-0.1,0.9-0.3,1.3-0.3c4.8,0,9.6,0,14.4,0c0.3,0,0.5-0.1,0.7-0.4c0.3-0.5,0.7-1,1-1.6c0.5,0.4,0.9,0.8,1.3,1.1
			c0.2,0.2,0.2,0.4,0,0.6c-0.1,0.1-0.1,0.2-0.2,0.3c2.7,0,5.4,0,8.1,0c-0.4-0.3-0.7-0.6-1-0.9c-0.5-0.5-0.5-0.5,0.1-1
			c0.6,0.5,1.2,1.1,1.8,1.6c0.2,0.2,0.6,0.3,0.9,0.3c5.3,0,10.6,0,15.9,0c0.2,0,0.5-0.1,0.7-0.2c0.6-0.3,1.2-0.6,1.8-0.9
			c0.8,1.2,1.6,2.4,2.5,3.7c1.6-2,3.1-3.9,4.6-5.9c0.6-0.8,1.2-1.3,2.2-1.1c0.3,0,0.6,0,0.8-0.2c0.8-0.5,1.6-1.1,2.3-1.7
			c0.8-0.7,1.7-1,2.8-0.9c0.5,0.1,1.1,0,1.6,0c0,0.1,0,0.1,0.1,0.2c-2.5,1.5-5,3-7.3,4.8c-2.3,1.8-4.2,4.1-5.9,6.5c0,0,0.1,0,0.1,0
			c4.5,0,9.1,0,13.6,0c0.1,0,0.3-0.2,0.4-0.3c0.4-0.6,0.8-1.3,1.3-1.9c2.8-3.5,6.3-6,10.5-7.5c0.5-0.2,1.1-0.3,1.5-0.6
			c2.6-1.9,5.2-3.9,7.8-5.9c0.2-0.2,0.4-0.4,0.7-0.6c-0.8,0-1.6,0-2.3,0c-11.6,0-23.1,0-34.7,0c-0.2,0-0.5,0.1-0.7,0.2
			c-1.5,1.1-2.9,2.2-4.4,3.3c-0.2,0.1-0.4,0.2-0.7,0.2c-6.9,0-13.9,0-20.8,0c-0.4,0-0.8,0.2-1.3,0.3c0,0-0.1,0-0.1,0
			c0-0.1,0.1-0.2,0.1-0.3c-11.7,0-23.4,0-35.2,0c0.3,0.2,0.6,0.3,0.8,0.4c2.4,1.2,4.9,2.4,7.3,3.6c0.2,0.1,0.4,0.1,0.7,0.1
			C22.5,62.6,23.2,62.6,24,62.6z M71.8,68.3c-0.2,0.2-0.4,0.3-0.6,0.5c0,0.3,0,0.6,0,0.9c0-0.1,0-0.2,0-0.3c0.1-0.2,0.2-0.4,0.2-0.7
			c0.1,0.2,0.2,0.4,0.3,0.7c0,0,0,0,0,0C71.8,69.1,71.8,68.7,71.8,68.3z"/>
		<path d="M24,62.6c-0.8,0-1.5,0-2.2,0c-0.2,0-0.5,0-0.7-0.1c-2.4-1.2-4.9-2.4-7.3-3.6c-0.2-0.1-0.5-0.3-0.8-0.4
			c11.8,0,23.5,0,35.2,0c0,0.1-0.1,0.2-0.1,0.3c0,0,0.1,0,0.1,0c0.4-0.1,0.8-0.3,1.3-0.3c6.9,0,13.9,0,20.8,0c0.2,0,0.5-0.1,0.7-0.2
			c1.5-1.1,2.9-2.2,4.4-3.3c0.2-0.1,0.4-0.2,0.7-0.2c11.6,0,23.1,0,34.7,0c0.7,0,1.5,0,2.3,0c-0.3,0.2-0.5,0.4-0.7,0.6
			c-2.6,2-5.2,4-7.8,5.9c-0.4,0.3-1,0.4-1.5,0.6c-4.2,1.5-7.7,4-10.5,7.5c-0.5,0.6-0.8,1.3-1.3,1.9c-0.1,0.1-0.3,0.3-0.4,0.3
			c-4.5,0-9.1,0-13.6,0c0,0,0,0-0.1,0c1.7-2.4,3.5-4.7,5.9-6.5c2.3-1.8,4.7-3.4,7.3-4.8c0-0.1,0-0.1-0.1-0.2c-0.5,0-1.1,0-1.6,0
			c-1.1-0.1-2,0.2-2.8,0.9c-0.7,0.6-1.5,1.2-2.3,1.7c-0.2,0.1-0.6,0.2-0.8,0.2c-1-0.2-1.6,0.3-2.2,1.1c-1.5,2-3,3.9-4.6,5.9
			c-0.8-1.2-1.6-2.4-2.5-3.7c-0.6,0.3-1.2,0.6-1.8,0.9c-0.2,0.1-0.5,0.2-0.7,0.2c-5.3,0-10.6,0-15.9,0c-0.3,0-0.6-0.2-0.9-0.3
			c-0.6-0.5-1.2-1.1-1.8-1.6c-0.6,0.5-0.6,0.6-0.1,1c0.3,0.3,0.6,0.6,1,0.9c-2.7,0-5.4,0-8.1,0c0.1-0.1,0.2-0.2,0.2-0.3
			c0.2-0.2,0.2-0.4,0-0.6c-0.4-0.3-0.8-0.7-1.3-1.1c-0.4,0.6-0.7,1.1-1,1.6c-0.2,0.3-0.4,0.4-0.7,0.4c-4.8,0-9.6,0-14.4,0
			c-0.4,0-0.9,0.1-1.3,0.3c-0.6,0.2-1.2,0.5-1.8,0.7c-0.1,0-0.3,0.1-0.4,0.1c-1.3,0-2.7,0-4.1,0C21.4,66.4,22.7,64.5,24,62.6z
			 M73,58.2c0,0,0,0.1,0,0.1c7.9,0,15.7,0,23.7,0c-0.1,0.1-0.2,0.1-0.2,0.1c-3,1.2-5.8,2.7-8.5,4.3c-2.5,1.5-4.9,3.3-6.9,5.4
			c-0.5,0.5-0.9,1-1.4,1.6c0.1,0,0.2,0.1,0.2,0.1c3.3,0,6.6,0,9.8,0c0.2,0,0.4-0.1,0.5-0.3c1.2-1.7,2.6-3.3,4.2-4.7
			c2.4-2.1,5.2-3.7,8.3-4.7c0.4-0.1,0.8-0.2,1.1-0.5c1.5-1.1,3-2.2,4.5-3.4c0.1-0.1,0.3-0.2,0.4-0.4c-0.2,0-0.2,0-0.3,0
			c-10.7,0-21.4,0-32.1,0c-0.1,0-0.3,0-0.4,0.1C75,56.8,74,57.5,73,58.2z M39.2,65.7c0.9,0,1.6,0,2.4,0c0.2,0,0.4-0.2,0.5-0.3
			c0.3-0.5,0.6-1,1-1.5c0.3-0.5,0.9-0.6,1.4-0.2c0.7,0.6,1.4,1.2,2.1,1.8c0.2,0.1,0.4,0.2,0.6,0.2c0.9,0,1.7,0,2.6,0
			c0.3,0,0.5-0.1,0.6-0.4c0.3-0.5,0.6-1,1-1.5c0.3-0.5,0.9-0.6,1.3-0.2c0.7,0.6,1.4,1.2,2.1,1.8c0.2,0.1,0.4,0.2,0.6,0.2
			c3.4,0,6.9,0,10.3,0c0.1,0,0.4,0,0.4-0.1c0.3-0.4,0.6-0.9,0.9-1.4c-2.2,0-4.4,0-6.5,0c0.2-0.6,0.5-0.9,1.2-0.9
			c1.8,0.1,3.6,0,5.4,0c0.2,0,0.4,0,0.5-0.1c0.3-0.3,0.5-0.7,0.8-1.2c-2.2,0-4.3,0-6.5,0c0.2-0.6,0.5-0.9,1.1-0.8
			c1.8,0.1,3.6,0,5.4,0c0.2,0,0.4,0,0.5-0.1c0.3-0.4,0.6-0.9,1-1.4c-0.2,0-0.3,0-0.4,0c-3.9,0-7.9,0-11.8,0c-0.2,0-0.5,0.1-0.7,0.2
			c-0.7,0.3-1.5,0.7-2.2,1c-0.6,0.3-1.3,0.6-1.9,0.9c0,0,0,0-0.1-0.1c0.4-0.7,0.8-1.3,1.3-2.1c-1.7,0-3.3,0-4.8,0
			c-0.1,0-0.3,0.1-0.4,0.1c-1.1,0.5-2.1,1-3.2,1.5c-0.3,0.2-0.7,0.3-1.2,0.5c0.5-0.8,0.9-1.4,1.4-2.2c-0.8,0-1.5,0-2.2,0
			c-0.2,0-0.5,0.2-0.6,0.3c-0.4,0.5-0.7,1.1-1,1.6C41,62.9,40.1,64.2,39.2,65.7z M75.8,67.2c0.1-0.2,0.2-0.3,0.3-0.4
			c1.3-1.7,2.6-3.4,3.9-5.1c0.3-0.4,0.6-0.6,1.2-0.6c0.5,0.1,1.2,0.1,1.6-0.1c0.7-0.3,1.3-0.9,2-1.4c-0.1-0.1-0.1-0.1-0.2-0.1
			c-1.8,0-3.6,0-5.4,0c-0.1,0-0.3,0.1-0.4,0.2c-0.6,0.8-1.2,1.7-1.8,2.5c-0.2,0.3-0.5,0.6-0.7,1c-0.1-0.1-0.2-0.2-0.2-0.3
			c-0.7-1-1.4-2.1-2.1-3.1c-0.1-0.2-0.4-0.3-0.6-0.3c-0.9,0-1.7,0-2.6,0c-0.2,0-0.4,0.1-0.5,0.3c-1,1.6-2,3.2-3,4.8
			c-0.2,0.3-0.4,0.6-0.6,1c1.1,0,2.1-0.1,3.1,0c1.5,0.2,2.5-0.9,3.7-1.4c0,0,0-0.1,0-0.1c-1,0-2.1,0-3.2,0c0.6-1,1.2-1.9,1.8-2.8
			C73.2,63.3,74.5,65.3,75.8,67.2z M33,64.2c0.2-0.7,0.6-0.9,1.3-0.9c1.8,0.1,3.5,0,5.3,0c0.2,0,0.4,0,0.5-0.1
			c0.3-0.3,0.5-0.7,0.8-1.2c-2.2,0-4.3,0-6.5,0c0.2-0.6,0.5-0.8,1.1-0.8c1.8,0,3.6,0,5.4,0c0.2,0,0.4,0,0.5-0.1
			c0.3-0.4,0.6-0.9,0.9-1.4c-0.2,0-0.2-0.1-0.3-0.1c-2.8,0-5.7,0-8.5,0c-0.2,0-0.4,0.2-0.5,0.3c-0.9,1.3-1.8,2.7-2.6,4
			c-0.3,0.5-0.7,1.1-1,1.6c0.1,0,0.2,0,0.3,0c2.9,0,5.8,0,8.7,0c0.1,0,0.3,0,0.3-0.1c0.3-0.4,0.6-0.9,0.9-1.4
			C37.3,64.2,35.2,64.2,33,64.2z M26.5,61.2c-1.3,1.9-2.6,3.7-3.9,5.6c0,0.1,0,0.1,0.1,0.2c0.6-0.1,1.2-0.1,1.7-0.3
			c1.3-0.5,2.6-1.1,4-1.6c0.4-0.2,0.9-0.4,1.3-0.6c0,0,0-0.1,0-0.1c-0.8,0-1.6,0-2.5,0c0.7-1,1.3-2,1.9-2.9c0.1-0.1,0.3-0.2,0.5-0.2
			c0.6,0,1.2,0,1.8,0c0.1,0,0.3,0,0.4-0.1c0.3-0.4,0.6-0.9,1-1.4c-4.7,0-9.3,0-13.8,0c0.8,0.5,1.6,0.9,2.4,1.2
			c0.3,0.1,0.7,0.2,1.1,0.2C23.6,61.2,25,61.2,26.5,61.2z M77.3,59.9c-0.6,0-1.2,0-1.8,0c0.3,0.5,0.6,0.8,0.8,1.3
			C76.7,60.7,76.9,60.3,77.3,59.9z"/>
		<path d="M71.8,68.3c0,0.4,0,0.8,0,1.1c0,0,0,0,0,0c-0.1-0.2-0.2-0.4-0.3-0.7c-0.1,0.2-0.2,0.4-0.2,0.7c0,0.1,0,0.2,0,0.3
			c0-0.3,0-0.6,0-0.9C71.4,68.6,71.6,68.5,71.8,68.3z"/>
		<path fill="#FFFFFF" d="M73,58.2c1-0.7,1.9-1.4,2.9-2.2C76,56,76.2,56,76.4,56c10.7,0,21.4,0,32.1,0c0.1,0,0.1,0,0.3,0
			c-0.2,0.2-0.3,0.3-0.4,0.4c-1.5,1.1-3,2.3-4.5,3.4c-0.3,0.2-0.7,0.3-1.1,0.5c-3.1,1-5.8,2.6-8.3,4.7c-1.6,1.4-3,2.9-4.2,4.7
			c-0.1,0.1-0.3,0.3-0.5,0.3c-3.3,0-6.6,0-9.8,0c0,0-0.1,0-0.2-0.1c0.5-0.6,0.9-1.1,1.4-1.6c2-2.1,4.4-3.9,6.9-5.4
			c2.7-1.7,5.6-3.1,8.5-4.3c0,0,0.1-0.1,0.2-0.1c-7.9,0-15.8,0-23.7,0C73.1,58.3,73.1,58.3,73,58.2z"/>
		<path fill="#FFFFFF" d="M39.2,65.7c0.9-1.4,1.8-2.8,2.7-4.1c0.3-0.5,0.7-1.1,1-1.6c0.1-0.2,0.4-0.3,0.6-0.3c0.7,0,1.4,0,2.2,0
			c-0.5,0.7-0.9,1.4-1.4,2.2c0.5-0.2,0.8-0.4,1.2-0.5c1.1-0.5,2.1-1,3.2-1.5c0.1-0.1,0.3-0.1,0.4-0.1c1.6,0,3.1,0,4.8,0
			c-0.5,0.7-0.9,1.4-1.3,2.1c0,0,0,0,0.1,0.1c0.6-0.3,1.3-0.6,1.9-0.9c0.7-0.3,1.4-0.7,2.2-1c0.2-0.1,0.5-0.2,0.7-0.2
			c3.9,0,7.9,0,11.8,0c0.1,0,0.2,0,0.4,0c-0.3,0.5-0.6,1-1,1.4c-0.1,0.1-0.3,0.1-0.5,0.1c-1.8,0-3.6,0-5.4,0c-0.6,0-0.9,0.3-1.1,0.8
			c2.2,0,4.3,0,6.5,0c-0.3,0.5-0.5,0.9-0.8,1.2c-0.1,0.1-0.3,0.1-0.5,0.1c-1.8,0-3.6,0-5.4,0c-0.7,0-1,0.3-1.2,0.9
			c2.2,0,4.3,0,6.5,0c-0.3,0.5-0.6,1-0.9,1.4c-0.1,0.1-0.3,0.1-0.4,0.1c-3.4,0-6.9,0-10.3,0c-0.2,0-0.4-0.1-0.6-0.2
			c-0.7-0.6-1.4-1.2-2.1-1.8c-0.4-0.4-1-0.3-1.3,0.2c-0.3,0.5-0.7,1-1,1.5c-0.1,0.2-0.3,0.4-0.6,0.4c-0.9,0-1.7,0-2.6,0
			c-0.2,0-0.4-0.1-0.6-0.2c-0.7-0.6-1.4-1.2-2.1-1.8c-0.5-0.4-1.1-0.3-1.4,0.2c-0.3,0.5-0.6,1-1,1.5c-0.1,0.1-0.3,0.3-0.5,0.3
			C40.8,65.7,40,65.7,39.2,65.7z M60.4,59.9C60.4,59.9,60.4,59.8,60.4,59.9c-2.1,0.8-4.1,1.8-6.2,2.7c1,0.9,1.9,1.7,2.8,2.5
			C58.2,63.3,59.3,61.6,60.4,59.9z M48.2,64.5c0.9-1.3,1.7-2.6,2.5-3.9c0,0,0,0-0.1-0.1c-1.5,0.7-3,1.4-4.5,2.1
			C46.8,63.3,47.4,63.9,48.2,64.5z"/>
		<path fill="#FFFFFF" d="M75.8,67.2c-1.3-1.9-2.6-3.9-3.9-5.8c-0.6,1-1.2,1.9-1.8,2.8c1.1,0,2.2,0,3.2,0c0,0,0,0.1,0,0.1
			c-1.2,0.5-2.2,1.5-3.7,1.4c-1-0.1-2,0-3.1,0c0.2-0.4,0.4-0.7,0.6-1c1-1.6,2-3.2,3-4.8c0.1-0.2,0.3-0.3,0.5-0.3c0.9,0,1.7,0,2.6,0
			c0.2,0,0.5,0.2,0.6,0.3c0.7,1,1.4,2.1,2.1,3.1c0.1,0.1,0.1,0.2,0.2,0.3c0.3-0.3,0.5-0.6,0.7-1c0.6-0.8,1.2-1.7,1.8-2.5
			c0.1-0.1,0.3-0.2,0.4-0.2c1.8,0,3.6,0,5.4,0c0,0,0.1,0,0.2,0.1c-0.7,0.5-1.3,1-2,1.4c-0.4,0.2-1.1,0.1-1.6,0.1
			c-0.6-0.1-0.9,0.2-1.2,0.6c-1.3,1.7-2.6,3.4-3.9,5.1C76,66.9,75.9,67,75.8,67.2z"/>
		<path fill="#FFFFFF" d="M33,64.2c2.2,0,4.3,0,6.6,0c-0.4,0.5-0.6,1-0.9,1.4c0,0.1-0.2,0.1-0.3,0.1c-2.9,0-5.8,0-8.7,0
			c-0.1,0-0.1,0-0.3,0c0.4-0.6,0.7-1.1,1-1.6c0.9-1.3,1.7-2.7,2.6-4c0.1-0.2,0.3-0.3,0.5-0.3c2.8,0,5.7,0,8.5,0c0.1,0,0.1,0,0.3,0.1
			c-0.3,0.5-0.6,0.9-0.9,1.4c-0.1,0.1-0.3,0.1-0.5,0.1c-1.8,0-3.6,0-5.4,0c-0.6,0-0.9,0.2-1.1,0.8c2.1,0,4.2,0,6.5,0
			c-0.3,0.5-0.5,0.9-0.8,1.2c-0.1,0.1-0.3,0.1-0.5,0.1c-1.8,0-3.5,0-5.3,0C33.6,63.3,33.3,63.5,33,64.2z"/>
		<path fill="#FFFFFF" d="M26.5,61.2c-1.5,0-2.9,0-4.3,0c-0.4,0-0.7-0.1-1.1-0.2c-0.8-0.4-1.6-0.8-2.4-1.2c4.6,0,9.1,0,13.8,0
			c-0.3,0.5-0.6,1-1,1.4c-0.1,0.1-0.2,0.1-0.4,0.1c-0.6,0-1.2,0-1.8,0c-0.2,0-0.4,0.1-0.5,0.2c-0.6,0.9-1.2,1.9-1.9,2.9
			c0.9,0,1.7,0,2.5,0c0,0,0,0.1,0,0.1c-0.4,0.2-0.9,0.4-1.3,0.6c-1.3,0.6-2.6,1.1-4,1.6c-0.5,0.2-1.2,0.2-1.7,0.3
			c0-0.1,0-0.1-0.1-0.2C23.9,64.9,25.2,63.1,26.5,61.2z"/>
		<path fill="#FFFFFF" d="M77.3,59.9c-0.3,0.5-0.6,0.8-0.9,1.3c-0.3-0.4-0.5-0.8-0.8-1.3C76.1,59.9,76.6,59.9,77.3,59.9z"/>
		<path d="M60.4,59.9c-1.1,1.7-2.2,3.4-3.4,5.2c-0.9-0.8-1.8-1.6-2.8-2.5C56.3,61.7,58.4,60.7,60.4,59.9
			C60.4,59.8,60.4,59.9,60.4,59.9z"/>
		<path d="M48.2,64.5c-0.7-0.6-1.4-1.2-2.1-1.9c1.6-0.7,3-1.4,4.5-2.1c0,0,0,0,0.1,0.1C49.8,61.9,49,63.2,48.2,64.5z"/>
	</g>
</g>
</svg>
