<?xml version="1.0" encoding="utf-8"?>
<!-- Generator: Adobe Illustrator 24.3.0, SVG Export Plug-In . SVG Version: 6.00 Build 0)  -->
<svg version="1.1" id="Layer_1" xmlns="http://www.w3.org/2000/svg" xmlns:xlink="http://www.w3.org/1999/xlink" x="0px" y="0px"
	 viewBox="0 0 126 126" enable-background="new 0 0 126 126" xml:space="preserve">
<g>
	
		<radialGradient id="SVGID_1_" cx="63.4" cy="424.292" r="56.8062" fx="43.5488" fy="395.3718" gradientTransform="matrix(1 0 0 1.0006 0 -361.2466)" gradientUnits="userSpaceOnUse">
		<stop  offset="6.200000e-02" style="stop-color:#E6E636"/>
		<stop  offset="1" style="stop-color:#5A631E"/>
	</radialGradient>
	<path fill="url(#SVGID_1_)" d="M65.9,13.3c-0.6,1.5-2,2.6-3.8,2.6c-1.6,0-3.1-1-3.7-2.4c-16.3,1.6-30.2,11-38.2,24.4
		c0.7,0.7,1.1,1.6,1.1,2.6c0,2-1.6,3.6-3.6,3.6c-0.2,0-0.4,0-0.6-0.1c-2.3,6-3.7,12.5-3.7,19.3c0,27.6,22.4,50,50,50s50-22.4,50-50
		C113.4,36.5,92.4,14.6,65.9,13.3z"/>
	
		<radialGradient id="SVGID_2_" cx="62.45" cy="416.8965" r="43.9326" gradientTransform="matrix(1 0 0 1.0006 0 -361.2466)" gradientUnits="userSpaceOnUse">
		<stop  offset="0.275" style="stop-color:#EBEDCC"/>
		<stop  offset="1" style="stop-color:#C4C27A"/>
	</radialGradient>
	<path fill="url(#SVGID_2_)" d="M102.5,41.5c-7.4-13.1-35-28.1-36.6-28.2c-0.6,1.5-2,2.6-3.8,2.6c-1.6,0-3.1-1-3.7-2.4
		c1,3.2,6.6,5,9.8,6.9C77.4,26,90.1,33.6,96.5,45c2.8,4.9,4.3,10.6,4.3,16.1c0,8.1-3.1,15.1-9.3,21c-6.4,6.1-14.4,9.5-22.3,9.5
		c-3.4,0-6.6-0.6-9.7-1.8c-12.7-5-20.7-17.3-24-27.1c-3.2-9.6-7.2-17-12.1-22c-0.7-0.7-1.4-1.4-2.3-2.1l-0.7-0.8c0,0,0,0.1-0.1,0.1
		c0.7,0.7,1.1,1.6,1.1,2.6c0,2-1.6,3.6-3.6,3.6c-0.2,0-0.4,0-0.6-0.1v0.1c0.5,0.4,0.9,0.8,1.3,1.2C22.6,49.5,26.1,56,29,64.7
		c3.7,11.4,13,25.6,28,31.5c3.8,1.5,7.9,2.3,12.2,2.3c9.7,0,19.4-4.1,27.1-11.4c9.5-9,11.4-19.1,11.4-26
		C107.7,54.4,105.9,47.5,102.5,41.5z"/>
	<path fill="#6E7A00" d="M35.5,65.5c3.1,9.9,11.2,22.1,24,27.1c3,1.2,6.3,1.8,9.7,1.8c7.9,0,15.9-3.4,22.3-9.5
		c6.1-5.9,9.2-12.9,9.3-21v-1.3c-0.4,7.4-3.5,14-9.2,19.4c-6.4,6.1-14.4,9.5-22.3,9.5c-3.4,0-6.6-0.6-9.7-1.8
		c-12.7-5-20.7-17.3-24-27.1c-3.2-9.6-7.2-17-12.1-22c-0.7-0.7-1.4-1.4-2.3-2.1l-0.8-0.7c0,0,0,0.1-0.1,0.1
		C21,38.5,28.6,43.7,35.5,65.5z"/>
</g>
</svg>
