<?xml version="1.0" encoding="utf-8"?>
<!-- Generator: Adobe Illustrator 24.3.0, SVG Export Plug-In . SVG Version: 6.00 Build 0)  -->
<svg version="1.1" id="Layer_1" xmlns="http://www.w3.org/2000/svg" xmlns:xlink="http://www.w3.org/1999/xlink" x="0px" y="0px"
	 viewBox="0 0 126 126" enable-background="new 0 0 126 126" xml:space="preserve">
<g>
	<polygon fill="#EF7E1E" points="70.7,97.5 52.7,97.5 47.1,56.5 76.6,56.5 	"/>
	<path fill="#424242" d="M70.7,98.3h-18c-0.4,0-0.8-0.3-0.8-0.7l-5.6-40.9c0-0.2,0-0.5,0.2-0.6s0.4-0.3,0.6-0.3h29.5
		c0.2,0,0.5,0.1,0.6,0.3c0.2,0.2,0.2,0.4,0.2,0.7l-5.9,40.9C71.4,98,71.1,98.3,70.7,98.3z M53.4,96.6H70l5.7-39.3H48.1L53.4,96.6z"
		/>
	<path fill="#EF7E1E" d="M73.8,65l-11.9-5.2L49.9,65c-3.3,1.5-6.9-1-6.9-4.6V50c0-5.4,4.4-9.8,9.8-9.8h18c5.4,0,9.8,4.4,9.8,9.8
		v10.5C80.5,64.1,76.9,66.4,73.8,65z"/>
	<path fill="#424242" d="M47.9,66.3c-1.1,0-2.1-0.3-3-0.9c-1.7-1.1-2.7-2.9-2.7-4.9V50c0-5.9,4.8-10.6,10.6-10.6h18
		c5.9,0,10.6,4.8,10.6,10.6v10.5c-0.1,2-1.1,3.8-2.8,4.9c-1.6,1-3.5,1.2-5.2,0.5c0,0,0,0,0,0l-11.6-5.1l-11.6,5.1
		C49.5,66.1,48.7,66.3,47.9,66.3z M52.9,41c-5,0-9,4-9,9v10.5c0,1.5,0.7,2.8,1.9,3.6c1.2,0.7,2.5,0.8,3.8,0.3l12-5.2
		c0.2-0.1,0.4-0.1,0.7,0l11.9,5.2c1.2,0.5,2.6,0.4,3.7-0.3c1.2-0.8,2-2.1,2-3.5V50c0-5-4-9-9-9L52.9,41L52.9,41z"/>
	<path fill="#EF7E1E" d="M76.6,102.4H47.1l0,0c0-2.8,2.1-4.9,4.9-4.9h24.5V102.4z"/>
	<path fill="#424242" d="M76.6,103.2H47.1c-0.5,0-0.8-0.4-0.8-0.8c0-3.2,2.5-5.7,5.7-5.7h24.5c0.5,0,0.8,0.4,0.8,0.8v4.9
		C77.4,102.8,77,103.2,76.6,103.2z M48,101.5h27.7v-3.3H52C50,98.3,48.4,99.6,48,101.5z"/>
	<path fill="#465A64" d="M79.9,112.2h-36c-2.8,0-4.9-2.1-4.9-4.9l0,0c0-2.8,2.1-4.9,4.9-4.9h36c2.8,0,4.9,2.1,4.9,4.9l0,0
		C84.8,110.1,82.5,112.2,79.9,112.2z"/>
	<path fill="#424242" d="M79.9,113h-36c-3.2,0-5.7-2.5-5.7-5.7c0-3.2,2.5-5.7,5.7-5.7h36c3.2,0,5.7,2.5,5.7,5.7
		C85.6,110.4,83,113,79.9,113z M43.9,103.2c-2.3,0-4.1,1.8-4.1,4.1s1.8,4.1,4.1,4.1h36c2.3,0,4.1-1.8,4.1-4.1c0-2.3-1.8-4.1-4.1-4.1
		H43.9z"/>
	<polygon fill="#F6A42C" points="77.2,97.5 59.2,97.5 53.7,56.5 83.1,56.5 	"/>
	<path fill="#424242" d="M77.2,98.3h-18c-0.4,0-0.8-0.3-0.8-0.7l-5.6-40.9c0-0.2,0-0.5,0.2-0.6s0.4-0.3,0.6-0.3h29.5
		c0.2,0,0.5,0.1,0.6,0.3c0.2,0.2,0.2,0.4,0.2,0.7L78,97.6C78,98,77.6,98.3,77.2,98.3z M59.9,96.6h16.6l5.7-39.3H54.6L59.9,96.6z"/>
	<path fill="#FBCB80" d="M62.2,95c-0.4,0-0.8-0.3-0.8-0.7l-4.7-34.4c-0.1-0.4,0.3-0.9,0.7-0.9c0.4-0.1,0.9,0.3,0.9,0.7L63,94.1
		c0.1,0.4-0.3,0.9-0.7,0.9C62.3,95,62.2,95,62.2,95z"/>
	<path fill="#EF7E1E" d="M74.6,95c0,0-0.1,0-0.1,0c-0.4-0.1-0.8-0.5-0.7-0.9l4.7-34.4c0.1-0.4,0.5-0.8,0.9-0.7
		c0.4,0.1,0.8,0.5,0.7,0.9l-4.7,34.4C75.4,94.7,75,95,74.6,95z"/>
	<circle fill="#F6A42C" cx="65.1" cy="27.1" r="13.1"/>
	<path fill="#424242" d="M65.1,41c-7.7,0-13.9-6.2-13.9-13.9s6.2-13.9,13.9-13.9S79,19.4,79,27.1S72.8,41,65.1,41z M65.1,14.8
		c-6.8,0-12.3,5.5-12.3,12.3s5.5,12.3,12.3,12.3s12.3-5.5,12.3-12.3S71.9,14.8,65.1,14.8z"/>
	<path fill="#FBCB80" d="M55.3,27.9c-0.5,0-0.8-0.4-0.8-0.8c0-5.9,4.8-10.6,10.6-10.6c0.5,0,0.8,0.4,0.8,0.8c0,0.5-0.4,0.8-0.8,0.8
		c-5,0-9,4-9,9C56.1,27.5,55.8,27.9,55.3,27.9z"/>
	<path fill="#F6A42C" d="M80.3,65l-11.9-5.2L56.5,65c-3.3,1.5-6.9-1-6.9-4.6V50c0-5.4,4.4-9.8,9.8-9.8h18c5.4,0,9.8,4.4,9.8,9.8
		v10.5C87.1,64.1,83.5,66.4,80.3,65z"/>
	<path fill="#424242" d="M54.5,66.3c-1.1,0-2.1-0.3-3-0.9c-1.7-1.1-2.7-2.9-2.7-4.9V50c0-5.9,4.8-10.6,10.6-10.6h18
		C83.3,39.4,88,44.1,88,50v10.5c-0.1,2-1.1,3.8-2.8,4.9c-1.6,1-3.5,1.2-5.2,0.5c0,0,0,0,0,0l-11.6-5.1l-11.6,5.1
		C56,66.1,55.3,66.3,54.5,66.3z M59.4,41c-5,0-9,4-9,9v10.5c0,1.5,0.7,2.8,1.9,3.6c1.2,0.7,2.5,0.8,3.8,0.3l12-5.2
		c0.2-0.1,0.4-0.1,0.7,0l11.9,5.2c1.2,0.5,2.6,0.4,3.7-0.3c1.2-0.8,2-2.1,2-3.5l0-10.4c0-5-4-9-9-9L59.4,41L59.4,41z"/>
	<path fill="#FBCB80" d="M52.7,61.3c-0.5,0-0.8-0.4-0.8-0.8V50c0-4.1,3.3-7.4,7.4-7.4c0.5,0,0.8,0.4,0.8,0.8c0,0.5-0.4,0.8-0.8,0.8
		c-3.2,0-5.7,2.6-5.7,5.7v10.5C53.5,60.9,53.1,61.3,52.7,61.3z"/>
	<path fill="#EF7E1E" d="M83.8,61.3c-0.5,0-0.8-0.4-0.8-0.8V50c0-3.2-2.6-5.7-5.7-5.7c-0.5,0-0.8-0.4-0.8-0.8c0-0.5,0.4-0.8,0.8-0.8
		c4.1,0,7.4,3.3,7.4,7.4v10.5C84.6,60.9,84.2,61.3,83.8,61.3z"/>
	<path fill="#F6A42C" d="M83.1,102.4H53.7l0,0c0-2.8,2.1-4.9,4.9-4.9h19.6C80.8,97.5,83.1,99.6,83.1,102.4L83.1,102.4z"/>
	<path fill="#424242" d="M83.1,103.2H53.7c-0.5,0-0.8-0.4-0.8-0.8c0-3.2,2.5-5.7,5.7-5.7h19.6c3.2,0,5.7,2.6,5.7,5.7
		C83.9,102.8,83.6,103.2,83.1,103.2z M54.6,101.5h27.7c-0.4-1.9-2-3.3-4-3.3H58.6C56.5,98.3,54.9,99.6,54.6,101.5z"/>
	<path fill="#546E7B" d="M86.4,112.2h-36c-2.8,0-4.9-2.1-4.9-4.9l0,0c0-2.8,2.1-4.9,4.9-4.9h36c2.8,0,4.9,2.1,4.9,4.9l0,0
		C91.3,110.1,89,112.2,86.4,112.2z"/>
	<path fill="#424242" d="M86.4,113h-36c-3.2,0-5.7-2.5-5.7-5.7c0-3.2,2.5-5.7,5.7-5.7h36c3.2,0,5.7,2.5,5.7,5.7
		C92.1,110.4,89.6,113,86.4,113z M50.4,103.2c-2.3,0-4.1,1.8-4.1,4.1s1.8,4.1,4.1,4.1h36c2.3,0,4.1-1.8,4.1-4.1
		c0-2.3-1.8-4.1-4.1-4.1H50.4z"/>
	<path fill="#CED7DB" d="M104.7,24.5c-1.8-0.5-3.1-1.8-3.6-3.6l-1.8-7l-1.8,7c-0.5,1.8-1.8,3.1-3.6,3.6l-6.9,1.8l7,1.8
		c1.8,0.5,3.1,1.8,3.6,3.6l1.8,7l1.8-7c0.5-1.8,1.8-3.1,3.6-3.6l6.7-1.8L104.7,24.5z"/>
	<path fill="#424242" d="M99.5,39.5c-0.4,0-0.7-0.3-0.8-0.6l-1.8-7c-0.4-1.5-1.5-2.6-3-3l-7-1.8c-0.4-0.1-0.6-0.4-0.6-0.8
		c0-0.4,0.3-0.7,0.6-0.8l6.9-1.8c1.5-0.4,2.6-1.5,3-3l1.8-7c0.1-0.4,0.4-0.6,0.8-0.6l0,0c0.4,0,0.7,0.3,0.8,0.6l1.8,7
		c0.4,1.5,1.5,2.6,3,3l6.9,1.8c0.4,0.1,0.6,0.4,0.6,0.8c0,0.4-0.2,0.7-0.6,0.8l-6.7,1.8c-1.5,0.4-2.6,1.5-3,3l-1.8,7
		C100.2,39.3,99.9,39.5,99.5,39.5z M90.3,26.2l4,1c2.1,0.6,3.6,2.1,4.2,4.2l1,4l1-3.9c0.6-2.1,2.1-3.6,4.2-4.2l3.7-1l-3.9-1
		c0,0,0,0,0,0c-2.1-0.6-3.6-2.1-4.2-4.2l-1-4l-1,3.9c-0.6,2.1-2.1,3.6-4.2,4.2L90.3,26.2z"/>
	<path fill="#CED7DB" d="M31.9,83.4c-1.8-0.5-3.1-1.8-3.6-3.6l-1.8-7l-1.8,7c-0.5,1.8-1.8,3.1-3.6,3.6l-6.7,1.8l6.9,1.8
		c1.8,0.5,3.1,1.8,3.6,3.6l1.8,7l1.8-7c0.5-1.8,1.8-3.1,3.6-3.6l7-1.8L31.9,83.4z"/>
	<g>
		<path fill="#424242" d="M26.7,98.4c-0.4,0-0.7-0.3-0.8-0.6l-1.8-7c-0.4-1.5-1.5-2.6-3-3L14.2,86c-0.4-0.1-0.6-0.4-0.6-0.8
			c0-0.4,0.2-0.7,0.6-0.8l6.7-1.8c1.5-0.4,2.6-1.5,3-3l1.8-7c0.2-0.7,1.4-0.7,1.6,0l1.8,7c0.4,1.5,1.5,2.6,3,3l7.2,1.8
			c0.4,0.1,0.6,0.4,0.6,0.8c0,0.4-0.3,0.7-0.6,0.8l-7,1.8c-1.5,0.4-2.6,1.5-3,3l-1.8,7C27.4,98.2,27,98.4,26.7,98.4z M17.6,85.2
			l3.9,1c2.1,0.6,3.6,2.1,4.2,4.2l1,4l1-3.9c0.6-2.1,2.1-3.6,4.2-4.2l3.9-1l-4.1-1c0,0,0,0,0,0c-2.1-0.6-3.6-2.1-4.2-4.2l-1-4
			l-1,3.9c-0.6,2.1-2.1,3.6-4.2,4.2L17.6,85.2z"/>
		<path fill="#424242" d="M68.4,98.3c-0.5,0-0.8-0.4-0.8-0.8V59.8c0-0.5,0.4-0.8,0.8-0.8c0.5,0,0.8,0.4,0.8,0.8v37.6
			C69.2,97.9,68.9,98.3,68.4,98.3z"/>
	</g>
</g>
</svg>
