<?xml version="1.0" encoding="utf-8"?>
<!-- Generator: Adobe Illustrator 24.3.0, SVG Export Plug-In . SVG Version: 6.00 Build 0)  -->
<svg version="1.1" id="Layer_1" xmlns="http://www.w3.org/2000/svg" xmlns:xlink="http://www.w3.org/1999/xlink" x="0px" y="0px"
	 viewBox="0 0 126 126" enable-background="new 0 0 126 126" xml:space="preserve">
<g>
	<g>
		<g>
			<path fill="#D3D3D5" d="M30.8,74.4c-0.8,0-1.5-0.7-1.5-1.5V21.5c0-0.8,0.7-1.5,1.5-1.5c0.8,0,1.5,0.7,1.5,1.5V73
				C32.3,73.8,31.6,74.4,30.8,74.4L30.8,74.4z"/>
		</g>
		<g>
			<path fill="#D3D3D5" d="M46.9,74.4c-0.8,0-1.5-0.7-1.5-1.5V48.4c0-0.8,0.7-1.5,1.5-1.5s1.5,0.7,1.5,1.5V73
				C48.4,73.8,47.7,74.4,46.9,74.4z"/>
		</g>
		<g>
			<path fill="#D3D3D5" d="M46.9,43.8c-0.8,0-1.5-0.7-1.5-1.5V21.5c0-0.8,0.7-1.5,1.5-1.5s1.5,0.7,1.5,1.5v20.9
				C48.4,43.1,47.7,43.8,46.9,43.8L46.9,43.8z"/>
		</g>
		<g>
			<path fill="#D3D3D5" d="M63,74.4c-0.8,0-1.5-0.7-1.5-1.5V21.5c0-0.8,0.7-1.5,1.5-1.5c0.8,0,1.5,0.7,1.5,1.5V73
				C64.5,73.8,63.8,74.4,63,74.4L63,74.4z"/>
		</g>
		<g>
			<path fill="#D3D3D5" d="M79.1,74.4c-0.8,0-1.5-0.7-1.5-1.5V21.5c0-0.8,0.7-1.5,1.5-1.5s1.5,0.7,1.5,1.5V73
				C80.6,73.8,79.9,74.4,79.1,74.4L79.1,74.4z"/>
		</g>
		<g>
			<path fill="#D3D3D5" d="M95.2,74.4c-0.8,0-1.5-0.7-1.5-1.5V21.5c0-0.8,0.7-1.5,1.5-1.5c0.8,0,1.5,0.7,1.5,1.5V73
				C96.7,73.8,96,74.4,95.2,74.4L95.2,74.4z"/>
		</g>
		<g>
			<g>
				<path fill="#EEECED" d="M108.7,38.6H17.3c-0.8,0-1.5-0.7-1.5-1.5s0.7-1.5,1.5-1.5h91.5c0.8,0,1.5,0.7,1.5,1.5
					S109.5,38.6,108.7,38.6z"/>
			</g>
			<g>
				<path fill="#EEECED" d="M108.7,54.7H17.3c-0.8,0-1.5-0.7-1.5-1.5s0.7-1.5,1.5-1.5h91.5c0.8,0,1.5,0.7,1.5,1.5
					S109.5,54.7,108.7,54.7z"/>
			</g>
		</g>
	</g>
	<g>
		<path fill="#73C1A9" d="M102.9,113H23.1c-5.6,0-10.1-4.5-10.1-10.1V69.3h100v33.6C113,108.5,108.5,113,102.9,113L102.9,113z"/>
	</g>
	<g>
		<path fill="#49B386" d="M30.8,102.9V69.3H13v33.6c0,5.6,4.5,10.1,10.1,10.1h17.8C35.3,113,30.8,108.5,30.8,102.9L30.8,102.9z"/>
	</g>
	<g>
		<path fill="#EEECED" d="M13,29.1v56.3c0,2.2,1.8,4,4,4s4-1.8,4-4V29.1c0-4.4,3.6-8,8-8h67.8c4.4,0,8,3.6,8,8v56.3c0,2.2,1.8,4,4,4
			c2.2,0,4-1.8,4-4V29.1c0-8.9-7.2-16.1-16.1-16.1H29.1C20.2,13,13,20.2,13,29.1L13,29.1z"/>
	</g>
	<g>
		<path fill="#EEECED" d="M80.5,68.1c-2.7-2.5-6-4.4-9.7-5.6H55.2c-3.6,1.1-6.9,3.1-9.7,5.6l-7.8,13.5c-0.4,1.8-0.6,3.7-0.6,5.6
			c0,1.9,0.2,3.8,0.6,5.6l7.8,13.5c2.7,2.5,6,4.4,9.7,5.6h15.6c3.6-1.1,6.9-3.1,9.7-5.6l7.8-13.5c0.4-1.8,0.6-3.7,0.6-5.6
			c0-1.9-0.2-3.8-0.6-5.6L80.5,68.1z"/>
	</g>
	<g>
		<path fill="#D3D3D5" d="M45.5,68.1l-7.8,13.5c-0.4,1.8-0.6,3.7-0.6,5.6c0,1.9,0.2,3.8,0.6,5.6l7.8,13.5c2.7,2.5,6,4.4,9.7,5.6
			h15.6v0c3.6-1.1,6.9-3.1,9.7-5.6l2.4-4.1c-3.5,1.8-7.5,2.8-11.7,2.8c-14.3,0-25.9-11.6-25.9-25.9c0-5.1,1.5-9.8,4-13.8
			C47.9,66.1,46.7,67,45.5,68.1L45.5,68.1z"/>
	</g>
	<g>
		<path fill="#676F72" d="M56.2,82l5.7-3.3c0.6-0.4,1.4-0.4,2.1,0l5.7,3.3c0.6,0.4,1,1.1,1,1.8v6.6c0,0.7-0.4,1.4-1,1.8L64,95.6
			c-0.6,0.4-1.4,0.4-2.1,0l-5.7-3.3c-0.6-0.4-1-1.1-1-1.8v-6.6C55.2,83.1,55.6,82.4,56.2,82L56.2,82z"/>
	</g>
	<g>
		<path fill="#676F72" d="M63,61.3c-2.7,0-5.3,0.4-7.8,1.2v2.1c0,0.7,0.4,1.4,1,1.8l5.7,3.3c0.6,0.4,1.4,0.4,2.1,0l5.7-3.3
			c0.6-0.4,1-1.1,1-1.8v-2.1C68.3,61.7,65.7,61.3,63,61.3z"/>
	</g>
	<g>
		<path fill="#4C5659" d="M69.8,107.9l-5.7-3.3c-0.6-0.4-1.4-0.4-2.1,0l-5.7,3.3c-0.6,0.4-1,1.1-1,1.8v2.1c2.5,0.8,5.1,1.2,7.8,1.2
			s5.3-0.4,7.8-1.2v-2.1C70.8,109,70.4,108.3,69.8,107.9z"/>
	</g>
	<g>
		<path fill="#676F72" d="M37.7,81.6l1.8,1.1c0.6,0.4,1.4,0.4,2.1,0l5.7-3.3c0.6-0.4,1-1.1,1-1.8v-6.6c0-0.7-0.4-1.4-1-1.8l-1.8-1
			C41.7,71.6,38.9,76.3,37.7,81.6L37.7,81.6z"/>
	</g>
	<g>
		<path fill="#676F72" d="M86.4,91.7c-0.6-0.4-1.4-0.4-2.1,0L78.6,95c-0.6,0.4-1,1.1-1,1.8v6.6c0,0.7,0.4,1.4,1,1.8l1.8,1
			c3.9-3.5,6.6-8.2,7.8-13.5L86.4,91.7z"/>
	</g>
	<g>
		<path fill="#4C5659" d="M47.4,95l-5.7-3.3c-0.6-0.4-1.4-0.4-2.1,0l-1.8,1.1c1.2,5.3,3.9,10,7.8,13.5l1.8-1c0.6-0.4,1-1.1,1-1.8
			v-6.6C48.4,96,48,95.3,47.4,95L47.4,95z"/>
	</g>
	<g>
		<path fill="#676F72" d="M80.4,68.1l-1.8,1c-0.6,0.4-1,1.1-1,1.8v6.6c0,0.7,0.4,1.4,1,1.8l5.7,3.3c0.6,0.4,1.4,0.4,2.1,0l1.8-1.1
			C87.1,76.3,84.3,71.6,80.4,68.1L80.4,68.1z"/>
	</g>
	<g>
		<path fill="#4C5659" d="M77.7,104c0.2,0.5,0.5,0.9,0.9,1.1l1.8,1c1.7-1.6,3.2-3.3,4.4-5.3C82.7,102.3,80.3,103.4,77.7,104
			L77.7,104z"/>
	</g>
	<g>
		<path fill="#4C5659" d="M45.2,79c0-3.5,0.7-6.9,2-10l-1.7-1c-3.9,3.5-6.6,8.2-7.8,13.5l1.8,1.1c0.6,0.4,1.4,0.4,2.1,0l3.6-2.1
			C45.3,80,45.2,79.5,45.2,79L45.2,79z"/>
	</g>
	<g>
		<path fill="#D3D3D5" d="M55,13H29.1C20.2,13,13,20.2,13,29.1v56.3c0,2.2,1.8,4,4,4s4-1.8,4-4V29.1c0-4.4,3.6-8,8-8H55
			c-2.2,0-4-1.8-4-4S52.7,13,55,13z"/>
	</g>
</g>
</svg>
