<?xml version="1.0" encoding="utf-8"?>
<!-- Generator: Adobe Illustrator 24.3.0, SVG Export Plug-In . SVG Version: 6.00 Build 0)  -->
<svg version="1.1" id="Layer_1" xmlns="http://www.w3.org/2000/svg" xmlns:xlink="http://www.w3.org/1999/xlink" x="0px" y="0px"
	 viewBox="0 0 126 126" enable-background="new 0 0 126 126" xml:space="preserve">
<g id="Layer_11">
	<g>
		<g>
			<g>
				<ellipse fill="#FCDC85" cx="88.4" cy="81.5" rx="23.6" ry="23.6"/>
			</g>
		</g>
		<g>
			<g>
				<ellipse fill="#F08DA5" cx="63" cy="37.5" rx="23.6" ry="23.6"/>
			</g>
		</g>
		<g>
			<g>
				<ellipse fill="#A1D8EE" cx="37.6" cy="81.4" rx="23.6" ry="23.6"/>
			</g>
		</g>
		<g>
			<g>
				<circle fill="#7ACBEF" cx="37.6" cy="81.5" r="19.8"/>
			</g>
		</g>
		<g>
			<g>
				<circle fill="#ECF3FB" cx="44" cy="77.5" r="3.2"/>
			</g>
		</g>
		<g>
			<g>
				<path fill="#ECF3FB" d="M43.6,67.9c-0.6-1-1.9-1.2-2.9-0.6l-6.1,4c-0.8,0.5-1.1,1.5-0.9,2.4l1,3.3L25,80.9c0.2,0,0.4,0,0.6,0
					c3,0,3,3.3,6,3.3c3,0,3-3.3,6-3.3c1.8,0,2.5,1.2,3.4,2.1c0,0,0-0.1,0-0.1L38.2,74l4.8-3.1C44,70.2,44.3,68.9,43.6,67.9
					L43.6,67.9z"/>
			</g>
		</g>
		<g>
			<g>
				<path fill="#568DCA" d="M55.6,84.1c-3,0-3.1-3.3-6-3.3c-3,0-3.1,3.3-6.1,3.3s-3-3.3-6-3.3c-3,0-3,3.3-6,3.3c-3,0-3-3.3-6-3.3
					c-3,0-3,3.3-6,3.3c-0.7,0-1.2-0.2-1.7-0.5c1.1,9.9,9.5,17.6,19.7,17.6c10.2,0,18.6-7.7,19.7-17.6C56.8,83.9,56.3,84.1,55.6,84.1
					L55.6,84.1z"/>
			</g>
		</g>
		<g>
			<g>
				<circle fill="#F4C74A" cx="88.4" cy="81.5" r="19.8"/>
			</g>
		</g>
		<g>
			<g>
				<circle fill="#ECF3FB" cx="95.5" cy="70.2" r="3.2"/>
			</g>
		</g>
		<g>
			<g>
				<path fill="#ECF3FB" d="M93.4,85.4L89,83l4.7-5c1-1,0.6-2.7-0.5-3.3l-6.3-3.4c-0.8-0.4-1.7-0.3-2.4,0.3l-5.9,5
					c-0.9,0.8-1,2.1-0.2,3c0.8,0.9,2.1,1,3,0.2l4.8-4.1l2.6,1.4L84.1,82c-0.9,1-0.7,2.6,0.5,3.3l4.4,2.5l-3.7,3.9
					c-0.8,0.9-0.7,2.2,0.1,3c0.9,0.8,2.2,0.7,3-0.1l5.5-5.9C94.8,87.7,94.6,86.1,93.4,85.4L93.4,85.4z"/>
			</g>
		</g>
		<g>
			<g>
				<path fill="#ECF3FB" d="M84.6,85.3c-1.2-0.7-1.4-2.3-0.5-3.3l0,0l-10.1,9.6c-0.8,0.8-0.9,2.1-0.1,3c0.8,0.8,2.1,0.9,3,0.1l9-8.6
					L84.6,85.3z"/>
			</g>
		</g>
		<g>
			<g>
				<path fill="#ECF3FB" d="M106.1,74.9c-0.7-1-2-1.2-2.9-0.5l-4.4,3.1l-5.6-2.8l0,0c1.2,0.6,1.5,2.3,0.5,3.3l-1.1,1.1l5.3,2.7
					c0.7,0.3,1.5,0.3,2.1-0.2l5.5-3.8C106.5,77.2,106.8,75.9,106.1,74.9L106.1,74.9z"/>
			</g>
		</g>
		<g>
			<g>
				<circle fill="#EB657F" cx="63" cy="37.6" r="19.8"/>
			</g>
		</g>
		<g>
			<g>
				<circle fill="#ECF3FB" cx="71.4" cy="25.1" r="3.2"/>
			</g>
		</g>
		<g>
			<g>
				<path fill="#ECF3FB" d="M74.8,31.9h-3.7l-3.4-3.7c-0.8-0.9-2.1-0.9-3-0.1c-0.9,0.8-0.9,2.1-0.1,3l4,4.4c0.4,0.4,1,0.7,1.6,0.7
					h4.6c1.2,0,2.1-0.9,2.1-2.1C76.9,32.8,75.9,31.9,74.8,31.9L74.8,31.9z"/>
			</g>
		</g>
		<g>
			<g>
				<path fill="#ECF3FB" d="M61.2,35.5l4.6-3.1L64.6,31c-0.8-0.9-0.7-2.2,0.1-3c0.1-0.1,0.2-0.1,0.3-0.2c0,0,0,0-0.1,0l-8,5.5
					c-0.5,0.3-0.8,0.8-0.9,1.4c-0.1,0.6,0.1,1.2,0.4,1.6l3.9,4.9v6c0,1.2,0.9,2.1,2.1,2.1s2.1-0.9,2.1-2.1v-6.7
					c0-0.5-0.2-0.9-0.5-1.3L61.2,35.5z"/>
			</g>
		</g>
		<g>
			<g>
				<circle fill="#ECF3FB" cx="73.1" cy="44.8" r="5.2"/>
			</g>
		</g>
		<g>
			<g>
				<circle fill="#ECF3FB" cx="52.1" cy="44.8" r="5.2"/>
			</g>
		</g>
		<g>
			<g>
				<g>
					<g>
						<path d="M88.4,56.9c-13.5,0-24.6,11-24.6,24.6s11,24.6,24.6,24.6S113,95,113,81.5S102,56.9,88.4,56.9L88.4,56.9z M88.4,104.1
							c-12.5,0-22.6-10.1-22.6-22.6S76,58.9,88.4,58.9S111,69,111,81.5S100.9,104.1,88.4,104.1L88.4,104.1z"/>
					</g>
				</g>
			</g>
		</g>
		<g>
			<g>
				<g>
					<g>
						<path d="M63,13c-13.5,0-24.6,11-24.6,24.6s11,24.6,24.6,24.6s24.6-11,24.6-24.6S76.5,13,63,13z M63,60.2
							c-12.5,0-22.6-10.1-22.6-22.6S50.5,15,63,15s22.6,10.1,22.6,22.6S75.5,60.2,63,60.2z"/>
					</g>
				</g>
			</g>
		</g>
		<g>
			<g>
				<path fill="#F4C74A" d="M70.3,105.9c-1.8-0.3-3.1-1.7-3.5-3.4c0-0.1-0.2-0.1-0.2,0c-0.4,1.7-1.7,3.1-3.5,3.4
					c-0.1,0-0.1,0.1,0,0.2c1.8,0.3,3.1,1.7,3.5,3.4c0,0.1,0.2,0.1,0.2,0c0.4-1.7,1.7-3.1,3.5-3.4C70.4,106,70.4,105.9,70.3,105.9z"
					/>
			</g>
		</g>
		<g>
			<g>
				<path fill="#EB657F" d="M95,44.2c-1.2-0.2-2.1-1.1-2.4-2.3c0-0.1-0.1-0.1-0.1,0c-0.2,1.2-1.2,2.1-2.4,2.3c-0.1,0-0.1,0.1,0,0.1
					c1.2,0.2,2.1,1.1,2.4,2.3c0,0.1,0.1,0.1,0.1,0c0.2-1.2,1.2-2.1,2.4-2.3C95,44.3,95,44.2,95,44.2z"/>
			</g>
		</g>
		<g>
			<g>
				<path fill="#7ACBEF" d="M34.6,21.2h-0.9v-0.9c0-0.7-0.5-1.2-1.2-1.2s-1.2,0.5-1.2,1.2v0.9h-0.9c-0.7,0-1.2,0.5-1.2,1.2
					c0,0.7,0.5,1.3,1.2,1.3h0.9v0.9c0,0.7,0.5,1.2,1.2,1.2s1.2-0.5,1.2-1.2v-0.9h0.9c0.7,0,1.2-0.5,1.2-1.2S35.3,21.2,34.6,21.2z"/>
			</g>
		</g>
		<g>
			<g>
				<path fill="#89BE4C" d="M76.2,110.3c-0.7,0-1.3,0.6-1.3,1.3s0.6,1.3,1.3,1.3c0.7,0,1.3-0.6,1.3-1.3S76.9,110.3,76.2,110.3z"/>
			</g>
		</g>
		<g>
			<g>
				<path fill="#F4C74A" d="M40.7,14c-0.7,0-1.3,0.6-1.3,1.3c0,0.7,0.6,1.3,1.3,1.3S42,16,42,15.3C42,14.6,41.4,14,40.7,14z"/>
			</g>
		</g>
		<g>
			<g>
				<path d="M53,93.7c-0.8-0.8-1.8-1.6-3.4-1.6c-1.9,0-2.9,1.1-3.7,1.9c-0.8,0.8-1.3,1.3-2.3,1.3c-1,0-1.5-0.5-2.3-1.3
					c-0.8-0.9-1.8-1.9-3.7-1.9c-1.9,0-2.9,1.1-3.7,1.9c-0.8,0.8-1.3,1.3-2.3,1.3c-1,0-1.5-0.5-2.3-1.3c-0.8-0.9-1.8-1.9-3.7-1.9
					c-1.7,0-2.7,0.9-3.5,1.7c-0.4,0.4-0.3,1,0,1.4c0.4,0.4,1,0.3,1.4,0c0.7-0.7,1.2-1.1,2.1-1.1c1,0,1.5,0.5,2.3,1.3
					c0.8,0.9,1.8,1.9,3.7,1.9c1.9,0,2.9-1.1,3.7-1.9c0.8-0.8,1.3-1.3,2.3-1.3c1,0,1.5,0.5,2.3,1.3c0.8,0.9,1.8,1.9,3.7,1.9
					c1.9,0,2.9-1.1,3.7-1.9c0.8-0.8,1.3-1.3,2.3-1.3c0.9,0,1.4,0.3,2,1c0.4,0.4,1,0.4,1.4,0C53.3,94.7,53.3,94.1,53,93.7L53,93.7z"
					/>
			</g>
		</g>
		<g>
			<g>
				<path d="M55.2,89.2c-0.8-0.1-1.3-0.6-2-1.3c-0.8-0.9-1.8-1.9-3.7-1.9c-1.9,0-2.9,1.1-3.7,1.9c-0.8,0.8-1.3,1.3-2.3,1.3
					c-1,0-1.5-0.5-2.3-1.3c-0.8-0.9-1.8-1.9-3.7-1.9c-1.9,0-2.9,1.1-3.7,1.9c-0.8,0.8-1.3,1.3-2.3,1.3c-1,0-1.5-0.5-2.3-1.3
					c-0.8-0.9-1.8-1.9-3.7-1.9c-1.9,0-2.9,1.1-3.7,1.9c-0.7,0.7-1.1,1.2-1.9,1.3c-0.5,0.1-0.9,0.6-0.8,1.1c0.1,0.5,0.6,0.9,1.1,0.8
					c1.5-0.2,2.4-1.1,3.1-1.9c0.8-0.8,1.3-1.3,2.3-1.3c1,0,1.5,0.5,2.3,1.3c0.8,0.9,1.8,1.9,3.7,1.9c1.9,0,2.9-1.1,3.7-1.9
					c0.8-0.8,1.3-1.3,2.3-1.3c1,0,1.5,0.5,2.3,1.3c0.8,0.9,1.8,1.9,3.7,1.9c1.9,0,2.9-1.1,3.7-1.9c0.8-0.8,1.3-1.3,2.3-1.3
					s1.5,0.5,2.3,1.3c0.7,0.8,1.6,1.7,3.1,1.9c0.5,0.1,1-0.3,1.1-0.8C56.1,89.7,55.8,89.2,55.2,89.2L55.2,89.2z"/>
			</g>
		</g>
		<g>
			<g>
				<g>
					<g>
						<path d="M37.6,56.9C24,56.9,13,67.9,13,81.5S24,106,37.6,106s24.6-11,24.6-24.6S51.1,56.9,37.6,56.9z M37.6,104.1
							C25.1,104.1,15,93.9,15,81.5s10.1-22.6,22.6-22.6S60.2,69,60.2,81.5S50,104.1,37.6,104.1z"/>
					</g>
				</g>
			</g>
		</g>
		<g>
			<g>
				<g>
					<g>
						<path d="M37.6,60.7c-11.4,0-20.8,9.3-20.8,20.8s9.3,20.8,20.8,20.8c11.4,0,20.8-9.3,20.8-20.8S49,60.7,37.6,60.7L37.6,60.7z
							 M37.6,100.3c-10.4,0-18.8-8.4-18.8-18.8s8.4-18.8,18.8-18.8s18.8,8.4,18.8,18.8S47.9,100.3,37.6,100.3z"/>
					</g>
				</g>
			</g>
		</g>
		<g>
			<g>
				<g>
					<g>
						<path d="M44,73.4c-2.3,0-4.1,1.9-4.1,4.1s1.9,4.1,4.1,4.1c2.3,0,4.1-1.9,4.1-4.1S46.2,73.4,44,73.4z M44,79.7
							c-1.2,0-2.2-1-2.2-2.2c0-1.2,1-2.2,2.2-2.2c1.2,0,2.2,1,2.2,2.2C46.1,78.7,45.2,79.7,44,79.7z"/>
					</g>
				</g>
			</g>
		</g>
		<g>
			<g>
				<path d="M44.4,67.4c-0.9-1.4-2.8-1.8-4.3-0.9l-6.1,4c-1.1,0.7-1.7,2.2-1.3,3.5l0.8,2.5l-8.4,3.3c-0.5,0.2-0.7,0.8-0.6,1.3
					c0.2,0.5,0.8,0.7,1.3,0.6l9.3-3.6c0.5-0.2,0.7-0.7,0.6-1.2l-1-3.3c-0.1-0.5,0-1,0.5-1.3l6.1-4c0.5-0.3,1.2-0.2,1.6,0.3
					C43,68.7,43,69,43,69.3c-0.1,0.3-0.2,0.5-0.5,0.7l-4.8,3.1c-0.4,0.2-0.5,0.7-0.4,1.1l2.7,8.8c0.1,0.4,0.5,0.7,0.9,0.7
					c0.1,0,0.2,0,0.3,0c0.5-0.2,0.8-0.7,0.6-1.2l-2.5-8.1l4.2-2.7c0.7-0.5,1.2-1.1,1.3-1.9C45,68.9,44.9,68.1,44.4,67.4L44.4,67.4z"
					/>
			</g>
		</g>
		<g>
			<g>
				<path d="M57.8,83.4c-0.2-0.5-0.8-0.7-1.3-0.5c-0.3,0.1-0.6,0.2-0.9,0.2c-1,0-1.5-0.5-2.3-1.3c-0.8-0.9-1.8-1.9-3.7-1.9
					c-1.9,0-2.9,1.1-3.7,1.9c-0.8,0.8-1.3,1.3-2.3,1.3c-1,0-1.5-0.5-2.3-1.3c-0.8-0.9-1.8-1.9-3.7-1.9c-1.9,0-2.9,1.1-3.7,1.9
					c-0.8,0.8-1.3,1.3-2.3,1.3c-1,0-1.5-0.5-2.3-1.3c-0.8-0.9-1.8-1.9-3.7-1.9c-1.9,0-2.9,1.1-3.7,1.9c-0.8,0.8-1.3,1.3-2.3,1.3
					c-0.3,0-0.6-0.1-0.9-0.2c-0.5-0.2-1.1,0-1.3,0.5c-0.2,0.5,0,1.1,0.5,1.3c0.5,0.2,1,0.3,1.6,0.3c1.9,0,2.9-1.1,3.7-1.9
					c0.8-0.8,1.3-1.3,2.3-1.3c1,0,1.5,0.5,2.3,1.3c0.8,0.9,1.8,1.9,3.7,1.9c1.9,0,2.9-1.1,3.7-1.9c0.8-0.8,1.3-1.3,2.3-1.3
					c1,0,1.5,0.5,2.3,1.3c0.8,0.9,1.8,1.9,3.7,1.9c1.9,0,2.9-1.1,3.7-1.9c0.8-0.8,1.3-1.3,2.3-1.3c1,0,1.5,0.5,2.3,1.3
					c0.8,0.9,1.8,1.9,3.7,1.9c0.6,0,1.2-0.1,1.7-0.3C57.8,84.5,58,83.9,57.8,83.4L57.8,83.4z"/>
			</g>
		</g>
		<g>
			<g>
				<g>
					<g>
						<path d="M88.4,60.7C77,60.7,67.7,70,67.7,81.5s9.3,20.8,20.8,20.8c11.4,0,20.8-9.3,20.8-20.8S99.9,60.7,88.4,60.7L88.4,60.7z
							 M88.4,100.3c-10.4,0-18.8-8.4-18.8-18.8s8.4-18.8,18.8-18.8s18.8,8.4,18.8,18.8S98.8,100.3,88.4,100.3z"/>
					</g>
				</g>
			</g>
		</g>
		<g>
			<g>
				<g>
					<g>
						<path d="M95.5,66.1c-2.3,0-4.1,1.9-4.1,4.1c0,2.3,1.9,4.1,4.1,4.1c2.3,0,4.1-1.9,4.1-4.1C99.7,68,97.8,66.1,95.5,66.1z
							 M95.5,72.4c-1.2,0-2.2-1-2.2-2.2s1-2.2,2.2-2.2s2.2,1,2.2,2.2S96.7,72.4,95.5,72.4z"/>
					</g>
				</g>
			</g>
		</g>
		<g>
			<g>
				<g>
					<g>
						<path d="M95.4,86.8c-0.1-0.9-0.7-1.7-1.5-2.2l-3.3-1.9l3.8-4.1c0.7-0.7,0.9-1.6,0.8-2.6c-0.2-1-0.7-1.8-1.6-2.2l-6.3-3.4
							c-1.1-0.6-2.5-0.5-3.5,0.4l-5.9,5c-1.3,1.1-1.4,3.1-0.3,4.3c1.1,1.3,3.1,1.4,4.3,0.3l4.3-3.7l0.9,0.5l-3.8,4
							c-0.7,0.7-0.9,1.6-0.8,2.6c0.1,0.9,0.7,1.8,1.5,2.2l3.3,1.9l-2.8,3c-0.6,0.6-0.9,1.4-0.8,2.2c0,0.8,0.4,1.6,1,2.1
							c0.6,0.5,1.3,0.8,2.1,0.8c0.8,0,1.7-0.3,2.3-1l5.5-5.9C95.3,88.7,95.6,87.7,95.4,86.8L95.4,86.8z M93.2,88l-5.5,5.9
							c-0.4,0.5-1.1,0.5-1.6,0.1c-0.5-0.4-0.5-1.1-0.1-1.6l3.7-3.9c0.2-0.2,0.3-0.5,0.2-0.8c0-0.3-0.2-0.6-0.5-0.7l-4.4-2.5
							c-0.3-0.2-0.5-0.5-0.6-0.8c-0.1-0.3,0.1-0.7,0.3-0.9l4.6-4.9c0.2-0.2,0.3-0.5,0.3-0.8c0-0.3-0.2-0.6-0.5-0.7l-2.6-1.4
							c-0.1-0.1-0.3-0.1-0.5-0.1c-0.2,0-0.5,0.1-0.6,0.2l-4.8,4.1c-0.5,0.4-1.2,0.3-1.6-0.1c-0.4-0.5-0.3-1.2,0.1-1.6l5.9-5
							c0.4-0.3,0.9-0.4,1.3-0.1l6.3,3.4c0.3,0.2,0.5,0.5,0.6,0.8c0,0.2,0,0.6-0.3,0.9l-4.7,5c-0.2,0.2-0.3,0.5-0.3,0.8
							c0,0.3,0.2,0.6,0.5,0.7l4.4,2.5c0.3,0.2,0.5,0.5,0.6,0.8C93.6,87.4,93.4,87.8,93.2,88L93.2,88z"/>
					</g>
				</g>
			</g>
		</g>
		<g>
			<g>
				<path d="M86.5,85.5c-0.4-0.4-1-0.4-1.4,0L76.3,94c-0.2,0.2-0.5,0.3-0.8,0.3c-0.3,0-0.6-0.1-0.8-0.3c-0.2-0.2-0.3-0.5-0.3-0.8
					c0-0.3,0.1-0.6,0.3-0.8l9.8-9.4c0.4-0.4,0.4-1,0-1.4c-0.4-0.4-1-0.4-1.4,0l-9.8,9.4c-0.6,0.6-0.9,1.3-0.9,2.2
					c0,0.8,0.3,1.6,0.9,2.2c0.6,0.6,1.3,0.9,2.2,0.9c0,0,0,0,0.1,0c0.8,0,1.6-0.3,2.1-0.9l8.8-8.5C86.9,86.6,86.9,85.9,86.5,85.5z"
					/>
			</g>
		</g>
		<g>
			<g>
				<path d="M106.9,74.4c-0.5-0.7-1.2-1.1-2-1.3c-0.8-0.1-1.6,0-2.3,0.5l-4,2.7l-4.8-2.4c-0.5-0.2-1.1,0-1.3,0.4
					c-0.2,0.5,0,1.1,0.4,1.3l5.3,2.7c0.3,0.2,0.7,0.1,1-0.1l4.4-3.1c0.2-0.2,0.5-0.2,0.8-0.2c0.3,0.1,0.6,0.2,0.7,0.5
					c0.2,0.2,0.2,0.5,0.2,0.8c-0.1,0.3-0.2,0.6-0.5,0.7l-5.5,3.8c-0.3,0.2-0.8,0.3-1.1,0.1l-5.1-2.5c-0.5-0.2-1.1,0-1.3,0.4
					c-0.2,0.5,0,1.1,0.4,1.3l5.1,2.5c0.4,0.2,0.9,0.3,1.4,0.3c0.6,0,1.2-0.2,1.8-0.5l5.5-3.8c0.7-0.5,1.1-1.2,1.3-2
					C107.5,75.9,107.4,75,106.9,74.4L106.9,74.4z"/>
			</g>
		</g>
		<g>
			<g>
				<g>
					<g>
						<path d="M63,16.8c-11.4,0-20.8,9.3-20.8,20.8c0,11.4,9.3,20.8,20.8,20.8S83.8,49,83.8,37.6C83.8,26.1,74.4,16.8,63,16.8z
							 M63,56.4c-10.4,0-18.8-8.4-18.8-18.8S52.6,18.8,63,18.8s18.8,8.4,18.8,18.8S73.4,56.4,63,56.4z"/>
					</g>
				</g>
			</g>
		</g>
		<g>
			<g>
				<g>
					<g>
						<path d="M71.4,21c-2.3,0-4.1,1.9-4.1,4.1s1.9,4.1,4.1,4.1s4.1-1.9,4.1-4.1S73.7,21,71.4,21z M71.4,27.3c-1.2,0-2.2-1-2.2-2.2
							s1-2.2,2.2-2.2c1.2,0,2.2,1,2.2,2.2C73.6,26.3,72.6,27.3,71.4,27.3z"/>
					</g>
				</g>
			</g>
		</g>
		<g>
			<g>
				<g>
					<g>
						<g>
							<path d="M74.8,30.9h-3.3l-3.1-3.4c-0.6-0.6-1.3-1-2.1-1c-0.8,0-1.6,0.2-2.2,0.8c-0.6,0.6-1,1.3-1,2.1c0,0.8,0.2,1.6,0.8,2.2
								l4,4.4c0.6,0.6,1.4,1,2.3,1h4.6c1.7,0,3.1-1.4,3.1-3.1C77.8,32.3,76.5,30.9,74.8,30.9L74.8,30.9z M74.8,35.1h-4.6
								c-0.3,0-0.6-0.1-0.8-0.4l-4-4.4c-0.2-0.2-0.3-0.5-0.3-0.8c0-0.3,0.1-0.6,0.4-0.8c0.2-0.2,0.5-0.3,0.8-0.3c0,0,0,0,0.1,0
								c0.3,0,0.6,0.1,0.8,0.4l3.4,3.7c0.2,0.2,0.4,0.3,0.7,0.3h3.7c0.6,0,1.1,0.5,1.1,1.1S75.4,35.1,74.8,35.1L74.8,35.1z"/>
						</g>
					</g>
				</g>
			</g>
		</g>
		<g>
			<g>
				<path d="M66.3,32c-0.3-0.4-0.9-0.6-1.4-0.3l-4.3,3c-0.2,0.2-0.4,0.4-0.4,0.7c0,0.3,0,0.5,0.2,0.8l3,3.7c0.2,0.2,0.3,0.5,0.3,0.7
					v6.7c0,0.6-0.5,1.1-1.1,1.1c-0.6,0-1.1-0.5-1.1-1.1v-6c0-0.2-0.1-0.4-0.2-0.6l-3.9-4.9c-0.2-0.2-0.3-0.6-0.2-0.9
					c0-0.3,0.2-0.6,0.5-0.8l7.8-5.3c0.4-0.3,0.6-0.9,0.3-1.4c-0.3-0.4-0.9-0.6-1.4-0.3l-7.8,5.3c-0.7,0.5-1.2,1.2-1.3,2.1
					c-0.1,0.8,0.1,1.7,0.7,2.4l3.7,4.6v5.6c0,1.7,1.4,3.1,3.1,3.1c1.7,0,3.1-1.4,3.1-3.1v-6.7c0-0.7-0.2-1.4-0.7-1.9l-2.3-2.9
					l3.4-2.4C66.5,33,66.6,32.4,66.3,32L66.3,32z"/>
			</g>
		</g>
		<g>
			<g>
				<g>
					<g>
						<path d="M73.1,38.7c-3.4,0-6.1,2.7-6.1,6.1c0,3.4,2.7,6.1,6.1,6.1c3.4,0,6.1-2.7,6.1-6.1C79.2,41.4,76.5,38.7,73.1,38.7z
							 M73.1,49c-2.3,0-4.2-1.9-4.2-4.2c0-2.3,1.9-4.2,4.2-4.2c2.3,0,4.2,1.9,4.2,4.2C77.3,47.1,75.4,49,73.1,49L73.1,49z"/>
					</g>
				</g>
			</g>
		</g>
		<g>
			<g>
				<g>
					<g>
						<path d="M52.1,38.7c-3.4,0-6.1,2.7-6.1,6.1c0,3.4,2.7,6.1,6.1,6.1c3.4,0,6.1-2.7,6.1-6.1C58.2,41.4,55.4,38.7,52.1,38.7z
							 M52.1,49c-2.3,0-4.2-1.9-4.2-4.2c0-2.3,1.9-4.2,4.2-4.2s4.2,1.9,4.2,4.2C56.2,47.1,54.4,49,52.1,49L52.1,49z"/>
					</g>
				</g>
			</g>
		</g>
	</g>
</g>
</svg>
