<?xml version="1.0" encoding="utf-8"?>
<!-- Generator: Adobe Illustrator 24.3.0, SVG Export Plug-In . SVG Version: 6.00 Build 0)  -->
<svg version="1.1" id="Layer_1" xmlns="http://www.w3.org/2000/svg" xmlns:xlink="http://www.w3.org/1999/xlink" x="0px" y="0px"
	 viewBox="0 0 126 126" enable-background="new 0 0 126 126" xml:space="preserve">
<g>
	<path fill="#6E240D" d="M63.5,57.5c3.5,0.8,5.4,5.2,5.6,7.8c0.2,2.5-2.1,5.7-3.3,6.6c-3.5,2.5-7.5,4.5-7.6,4.8
		c-0.1,0.6,1.2,10.6,1,11.7c-0.1,0.5-0.4,1.8-0.5,2.1s-2.6-0.9-2.6-0.9s0.1-1.8,0.3-2.4c1-2.4-2.5-10.6-2.5-11.3
		c0-0.7,2.5-2.9,2.7-4.1c0.2-1.2-2.3-6-2.3-8.3C54.4,61.1,56.9,56,63.5,57.5L63.5,57.5z"/>
	<path fill="#303031" d="M56.1,89.1c0,0-0.7,1-0.6,1.2s2.3,3.2,2.8,3.3c0.6,0.1,0.3-1.7,0.5-2.1c0.2-0.5,0.1-1.5,0.1-1.5
		S56.1,89.1,56.1,89.1z"/>
	<path fill="#30130C" d="M58.4,61.4c0,0,0.1-3.1-3.1-3.7c-3-0.6-7.1,3.9-12.9,3.5c-2.1-0.2-4.7-3.9-4.7-3.9s-0.5,1.4,0,2.7
		c0.5,1.3,1,1.9,1,1.9c0.1,0.2-1-0.2-1.6-0.7c-0.3-0.3-0.8-1.2-0.8-1.2s-0.4,2.4,2.1,4c0.2,0.1-1.4,0.6-1.4,0.6s1,1.3,2.8,2.1
		c1.6,0.7,3.6,1,3.6,1l-2.5,1.5c0,0,2.8,0.1,3.6,0c0.6-0.1,1.9-0.9,1.9-0.9l-1,1.6c0,0,1.7,0.3,5.2-2.1
		C54.2,65.7,58.4,61.4,58.4,61.4L58.4,61.4z M105.1,37.4c0.1,0.3-2.5,3.4-5.7,2.1c-3.1-1.4-5.6-4-7.5-3.8c-1.9,0.2-3.3,0.6-4.6-0.6
		c-0.9-0.8-1.2-1.7-1.2-1.7s1.4,1.4,2.2,1.5c1,0.1,1.9-0.4,3.2-0.8c0.6-0.2,1.5,0.1,1.5,0.1s-1-1-1.8-1.2c-1-0.2-1.9-0.5-2.3-1
		c-0.5-0.6-0.4-1.7-0.4-1.7s0.5,1,1.2,1.1s2.5,0,3.7,1c1.1,1,1.3-0.4,0.3-1.4c-0.4-0.4-1.7-0.3-1.7-0.3s1.3-1.1,2.5,0.2
		c3.4,3.6,3.4,2.8,4.8,2.8C103.9,33.7,105.1,37.4,105.1,37.4z"/>
	<path fill="#30130C" d="M93.4,35.5c0.2,0.2-0.1,4.3-3.5,4.9c-3.4,0.6-6.9-0.1-8.3,1.2c-1.5,1.3-2.4,2.4-4.1,2.1
		c-1.2-0.2-2-0.8-2-0.8s2.1,0.3,2.7-0.1c0.8-0.5,1.3-1.3,2.1-2.5c0.4-0.5,1.3-0.9,1.3-0.9s-1.3-0.3-2.2,0.1s-1.8,0.7-2.5,0.6
		C76.2,40,75.7,39,75.7,39s1,0.6,1.6,0.2c0.6-0.3,2.1-1.5,3.6-1.3s0.8-1-0.6-1.3c-0.6-0.1-1.5,0.7-1.5,0.7s0.5-1.7,2.2-1.3
		c4.8,1,5.6-0.5,5.6-0.5H93.4z"/>
	<path fill="#30130C" d="M99.8,35.9c0.2,0.3-1.5,4-4.8,3.6c-3.4-0.5-6.5-2.3-8.3-1.6c-1.8,0.7-3,1.5-4.6,0.6c-1-0.6-1.7-1.3-1.7-1.3
		s1.8,1,2.5,0.8c0.9-0.2,1.7-0.9,2.8-1.6c0.5-0.3,1.5-0.4,1.5-0.4s-1.2-0.7-2.1-0.6c-1,0.1-1.9,0.1-2.5-0.2
		c-0.6-0.4-0.8-1.5-0.8-1.5s0.7,0.9,1.4,0.7c0.7-0.1,2.5-0.7,3.8-0.1c1.3,0.6,1-0.8-0.1-1.4c-0.5-0.3-1.7,0.2-1.7,0.2s1-1.4,2.5-0.5
		c4.3,2.5,5.4,1.3,5.4,1.3S99.8,35.9,99.8,35.9z"/>
	<path fill="#191919" d="M97.2,62.7c-1,0.6,1,4.2,1.1,3.7c0.1-0.2,0.5-1,0.9-1.7c-0.5-0.9-0.3-2.1-1-2.8
		C98.1,62,97.9,62.3,97.2,62.7z"/>
	<path fill="#6E240D" d="M99.6,58c-0.5-1.8-0.3-3.4-1.3-3.9c-1-0.5-2.5-1.3-3.9-2C93,51.6,90,49.3,90,49.3l-2.2,4.8
		c0,0,1.6,2.1,3.6,2.1c2,0,4.8-0.1,5.1,0.2s2.1,5.5,2.1,5.5s0,0.1-0.1,0.2c0.6,0.7,0.5,1.9,1,2.8c0.6-1,1.2-2.1,1.4-2.4
		C100.9,61.9,100.2,60,99.6,58z"/>
	<path fill="#303031" d="M52.7,95.5c0.6,0.6,2.6,0.3,3.1,0.2c0.3-0.1-0.6-1.8-1-2.7c-0.8,0.1-1.7,0.2-2.2,0.2
		C52.6,93.2,52.4,95,52.7,95.5z"/>
	<path fill="#963915" d="M101.6,36c-1.4-0.5-9.4,0.7-12.2,1c-2.9,0.3-13.5,2.7-14.5,4c-1,1.3-4.4,6.5-6.6,9.1
		c-1.1,1.3-8.2,5.6-9.7,6.3c-1.5,0.8-3.7,4-4.3,5.7c-0.6,1.6,0.8,12.3,0.5,13.7c-0.3,1.4-2.5,4-2.6,5.8C52.1,83.4,52,92.8,52,92.8
		l0.6,0.4c0.6-0.1,1.5-0.2,2.2-0.2c-0.2-0.3-0.3-0.6-0.3-0.6s0.7-10.2,1.2-10.6s3.6-3.5,4.8-5.5c1.1-2,5.6-9.1,5.6-9.1
		S74,66.1,77.7,64c3.7-2.1,11.4-6.6,13.3-9.4s0.2-7.5,1.2-7.9c1-0.5,2.7-1.3,3.2-1.5c1.1-0.6,3.1-0.6,6-1.7
		C104,42.6,103,36.5,101.6,36z"/>
	<path fill="#303031" d="M91.3,68.1c-0.4,0.6,0.3,2.9,0.6,3.1c0.2,0.2,1-0.8,1.7-1.5c-0.5-1-0.6-1.7-0.6-2.8
		C92.4,67.2,91.6,67.7,91.3,68.1z"/>
	<path fill="#963915" d="M95.6,59.3c-0.6-0.4-5.4-2.5-6.4-3c-1-0.5-1-2.9-1-2.9l-5.1,3.7c0,0,1.6,1.9,2.8,3c1.2,1,7.4,1,7.8,2
		s-0.1,4.7-0.4,4.7c-0.1,0-0.2,0.1-0.5,0.2c0.1,1,0.2,1.8,0.6,2.8l0.4-0.4c0.9-0.9,1.3-1,1.7-1.7c0.4-0.6,0.4-1.3,0.5-2.8
		c0.1-1.2,0.8-2.8,0.6-3.4C96.7,60.9,96.1,59.7,95.6,59.3z M99.3,37c-0.5,1.4-0.2,6.1,1,7.5c1.2,1.3,4,1.7,5.2,2.1
		c1.3,0.3,2.3,0.5,2.8,1c0.5,0.5,0.6,0.9,0.9,1s2.5-0.2,2.9-0.4c0.3-0.3,0.4-1.1,0.7-1.4c0.2-0.4,0.4-1.2,0.2-1.4
		c-0.2-0.3-0.9-1.3-1.5-1.7c-0.7-0.3-2.8-2.4-3.6-3.1c-0.7-0.7-2-3.1-3.5-3.7C102.7,36.2,99.9,35.2,99.3,37L99.3,37z"/>
	<path fill="#6E240D" d="M101.3,37.4c-0.4,0.2-1.3-0.7-1.3-1.5s0.4-2.2,0.9-2.6s0.4,0.6,0.7,1C102.1,34.8,102.8,36.5,101.3,37.4z"/>
	<path fill="#191919" d="M108.2,47c-0.1,0-7.2-1.7-10.9-2.9c-6.3-2.1-9.2-3.4-9.2-3.4l0.2-0.4c0,0,2.9,1.3,9.1,3.4
		c3.7,1.3,10.8,2.9,10.9,2.9L108.2,47z M108.4,45.3c0,0-0.1-0.8,0.6-1.7c0.6-0.8,1.1-1,1.1-1l0.7,0.6c0,0-0.6,0.3-1,1
		c-0.4,0.6-0.5,1.6-0.5,1.6S108.4,45.3,108.4,45.3z M108.2,45.6c-0.1-0.1-6.2-4.3-6.2-4.3l-0.3,0.4l6.2,4.1L108.2,45.6z"/>
	<path fill="#191919" d="M103.6,46.1c-0.1-0.1-0.7-1.1-1.2-2.9c-0.4-1.5-0.2-2.6,0.1-3.6c0.2-1,1.4-2.9,1.4-2.9l-0.7-0.2
		c0,0-1.7,2.7-1.7,5.1c0,2.4,1.2,4.4,1.2,4.4L103.6,46.1z"/>
	<path fill="#191919" d="M101.4,41.4c-0.1,0-1.2-0.8-1.9-2C98.6,38.1,98,36,98,36l0.6-0.1c0,0,0.5,2.3,1.3,3.5
		c0.7,1,1.5,1.5,1.5,1.5S101.4,41.4,101.4,41.4z"/>
	<path fill="#E8A800" d="M108.8,47.2c-0.3,0-0.6-0.1-0.9-0.4c-0.2-0.2-0.2-0.5-0.2-0.7s0.2-0.5,0.4-0.7c0.4-0.3,1.1-0.2,1.4,0.2
		c0.2,0.2,0.2,0.5,0.2,0.7c0,0.2-0.2,0.5-0.4,0.7C109.2,47,109,47.1,108.8,47.2z M108.6,45.5c-0.2,0-0.2,0.1-0.3,0.2
		c-0.2,0.1-0.2,0.2-0.2,0.4s0,0.3,0.2,0.5c0.2,0.2,0.6,0.3,0.9,0.1c0.2-0.1,0.2-0.2,0.2-0.4s0-0.3-0.2-0.5S108.8,45.5,108.6,45.5z"
		/>
	<path fill="#A9A9AA" d="M68.9,60.3c1.1-0.2,3.2-1,6.9-3.9c1.3-1,4.2-3.2,6.5-6.2c1.1-1.4-8.3-8.2-8.5-8c-0.2,0.2-0.3,2.4-3.7,5.6
		c-4.4,4.3-7.5,6-7.5,6S67.9,60.5,68.9,60.3z"/>
	<path d="M71.1,46.9c0,0,3.7,2.9,6.4,6.1c3.7,4.4,5.6,7.8,5.6,7.8l1.9-1.2c0,0-1.7-4.1-5.8-8.7c-3.2-3.5-6.4-6-6.4-6
		S71.1,46.9,71.1,46.9z"/>
	<path d="M77.9,53.8c0,0,0.3,0.6,0.3,1.1s0.2,1.5,0.2,1.8c0.1,0.3,0.9,0.6,0.9,0.6l1-0.4c0,0-1-1.7-1.3-2.1
		c-0.2-0.5-0.2-1.2-0.2-1.2S77.9,53.8,77.9,53.8z"/>
	<path fill="#191919" d="M71.5,48.3c0,0,0.7,1.8,1.7,3.6c1.1,1.7,1.9,2.5,2.5,2.3s1.3-0.7,1.8-0.6c0.6,0.2,1.1,0.5,1.4,0.2
		c0.3-0.2-1.7-3.1-3-4.8c-1.3-1.7-2.2-2.1-2.2-2.1S71.5,48.3,71.5,48.3z"/>
	<path fill="#303031" d="M69,45c0.1-0.4,0.9-0.9,1.2-0.8c0.5,0.1,1.5,1.3,1.7,1.5c0.2,0.3,1,1.3,0.3,2c-0.6,0.7-1.3,0.2-1.7-0.2
		S68.8,45.7,69,45z"/>
	<path fill="#191919" d="M71.4,45.1c0,0,1.3,1.5,0.5,2.3c-0.6,0.6-1.2,0-1.3,0.2s-0.4,0.7-0.6,0.8s-1.2,0.3-1.4,0.6s-2.1,2.7-1.7,3
		c0.4,0.3,3.1,0.8,4.5-0.6c1.4-1.4,1-2.8,1.3-3.1s1.8-0.4,1.7-1.3C74.2,46.5,72.6,44.1,71.4,45.1z"/>
	<path fill="#303031" d="M69.2,45.9c0,0-1.2,3.4-2.5,4.2c-2.4,1.5-3.3,1-3.6,2c-0.2,0.5,1.5,1.4,2.8,0.6c1.2-0.8,5.7-5.2,5.7-5.2
		s-0.7,0.2-1.5-0.6C69.6,46.4,69.2,45.9,69.2,45.9z"/>
	<path fill="#024524" d="M15.3,56.1c0.8-1,2.2-0.5,3.8,0.5c1.5,1,5.2,3.3,5.9,4.2c0.6,0.8,0.5,2.5-1,2.3c-1.4-0.2-5.9-2-7.1-2.9
		C15.6,59.4,13.7,58.3,15.3,56.1z"/>
	<g>
		<path fill="#545454" d="M33.8,59.4c0-0.2-0.2-0.2-0.2-0.2l-1,0.2c-0.2,0-0.2,0.2-0.2,0.2c0,0.2,0.2,0.2,0.2,0.2l1-0.2
			C33.7,59.6,33.8,59.5,33.8,59.4z"/>
		<path fill="#545454" d="M33.8,58.9c0-0.2-0.2-0.2-0.2-0.2l-1,0.2c-0.2,0-0.2,0.2-0.2,0.2c0,0.2,0.2,0.2,0.2,0.2l1-0.2
			C33.7,59.2,33.8,59.1,33.8,58.9z"/>
		<path fill="#545454" d="M33.7,58.5c0-0.2-0.2-0.2-0.2-0.2l-1,0.2c-0.2,0-0.2,0.2-0.2,0.2c0,0.2,0.2,0.2,0.2,0.2l1-0.2
			C33.6,58.8,33.7,58.6,33.7,58.5z"/>
		<path fill="#545454" d="M33.6,58c0-0.2-0.2-0.2-0.2-0.2l-1,0.2c-0.2,0-0.2,0.2-0.2,0.2c0,0.2,0.2,0.2,0.2,0.2l1-0.2
			C33.5,58.4,33.7,58.2,33.6,58z"/>
		<path fill="#545454" d="M30,58.7c0,0,1.5-0.8,1.8-0.9c0.3-0.1,1.7,0,1.7,0s-0.3,0.5-0.2,0.8c0.1,0.3,0.3,1,0.3,1s-1,0.4-1.6,0.5
			c-0.6,0-1.3,0.2-1.3,0.2L30,58.7z"/>
	</g>
	<path fill="#024524" d="M30.3,58.4c0,0-1.7,0.4-3.5,1c-1.8,0.6-3.7,1.6-3.8,2.5c-0.2,1,0.6,1.6,1.7,1.3c1.2-0.2,6.3-2.5,6.4-2.7
		S30.3,58.4,30.3,58.4z"/>
	<path fill="#F4A17D" d="M17.2,58.4c0,0,0.3-0.9,0.6-1.3c0.6-1.2,1.5-2.5,1.5-2.5l-2.6-2.7c0,0,0,1.8-1.7,3.3
		C15.3,56.4,16,57.8,17.2,58.4z"/>
	<path fill="#303031" d="M40.7,81.8c0,0-1.2,0.3-1.3,0.6c-0.1,0.2-0.2,4.1,0.2,4.5s1.3-1.2,1.8-1.4c0.5-0.3,1-1.2,1-1.2
		S40.7,81.8,40.7,81.8z"/>
	<path fill="#303031" d="M46.4,86.5c-0.2,5.2-4.5,9.2-9.7,9s-9.2-4.5-9-9.7s4.5-9.2,9.7-9C42.6,77,46.6,81.4,46.4,86.5z M45.2,69.8
		c0,0,0.9,0.1,1.3-0.6c0.5-0.6,1.2-3.3,1.5-3.4c0.2-0.1,1.3,2.4,0.9,3.8c-0.1,0.2-0.2,0.7-0.2,0.7L48.2,72c0,0,0.6,0.5,0.6,0.6
		c-0.2,0.5-0.5,1.3-0.5,1.3s-0.8,0.3-1.4,0.2c-0.6-0.2-2.3-0.7-2.3-0.7L45.2,69.8z"/>
	<circle fill="#C8C5C1" cx="37.1" cy="86" r="7.9"/>
	<path fill="#C8C5C1" d="M23.6,67.8c0,0,7-0.2,9.4-0.1c2.5,0.2,12.4,1.3,12.4,1.3l-0.1,4.8c0,0-10.6-1.3-11.7-1.4
		c-1.2-0.2-9.2,2.1-11.4,1.7S23.6,67.8,23.6,67.8z"/>
	<path fill="#1D5B3B" d="M23.7,67.7c0-1-1-2.2-1.3-2.5c-0.6-0.6-1.8-5-2.2-6.3c-0.4-1.3-2.9-4.2-5.1-3.8c0,0-2.6,2-1.9,7.3
		c0.2,1.8,3.5,9.9,4.8,9.4C20.7,70.7,22.1,69.9,23.7,67.7z"/>
	<path fill="#C8C5C1" d="M25.8,68.5c-0.3-0.5-1.6-0.3-2.1-0.9c-2,1.8-3.1,2.7-5.7,4c0.6,0.7,1,1.2,1.3,1.5c1.8,1.3,4,0.7,4.8,0.2
		S26.5,69.9,25.8,68.5z"/>
	<path fill="#9F9B95" d="M45.2,72c-0.1,0-11.5-1.6-12.5-1.8c-0.5-0.1-2.3,0.3-4.4,0.6c-2.6,0.5-5.4,1-6.2,0.9
		c-1.6-0.3-1.7-1.3-1.8-1.4l0.2-0.1c0,0.1,0.2,1,1.6,1.3c0.8,0.2,3.7-0.4,6.1-0.9c2.1-0.4,3.9-0.7,4.4-0.6c1,0.2,12.5,1.7,12.5,1.8
		V72z"/>
	<path fill="#396F53" d="M15.3,57.1c0.8-1,2.2-0.5,3.8,0.5c1.5,1,5.2,3.3,5.9,4.2c0.6,0.8,0.5,2.5-1,2.3c-1.4-0.2-5.9-2-7.1-2.9
		C15.6,60.3,13.7,59.1,15.3,57.1z"/>
	<path fill="#024524" d="M21.1,75.2l10.6-1.9l0.2,1.1l-10.6,1.9L21.1,75.2z"/>
	<path fill="#303031" d="M17.6,72.2c-0.2,0-0.3,0.3-0.2,0.5c0.6,0.7,2.1,2.3,3.7,2.9c0.3,0.2,10.3-2.2,10.3-2.2l-2.5-1.3
		c-1.5-0.8-3.3-1-4.9-0.8C24,71.3,17.6,72.2,17.6,72.2z"/>
	<g>
		<path fill="#F7BA95" d="M19.8,49.1c-0.9-0.6-3.3-1.1-4.4,0.6c-1,1.7-0.3,3.2,0.4,4c0.6,0.7,1.1,1,2.1,1.4c0.2,0.1,2,0.2,2.3,0.1
			c0.2-0.1,0.2-1.9,0.3-1.9s0.2-0.2,0.2-0.2c0-0.2-0.3-1.4-0.3-1.6C20.5,51.4,20.8,49.9,19.8,49.1z"/>
		<path fill="#8C3B26" d="M20.3,49.9c0,0-1.4-0.6-2.9,1c-0.3,0.4,0.5,1.7,0.4,1.8c-0.1,0.2-1.4-0.9-1.3-0.7c0.6,1.6,0.2,2.5,0.1,2.5
			c-0.5,0.1-2.1-2.1-1.5-4c0.5-1.9,2.5-2.3,2.9-2.2C18.4,48.4,19.9,48.4,20.3,49.9z"/>
		<path fill="#F7BA95" d="M17.3,52.2c0.2,0.5,0.3,1.2,0.1,1.3c-0.2,0.1-0.6-0.2-0.9-0.7c-0.2-0.5-0.2-1,0.1-1.1
			C16.9,51.7,17.1,51.8,17.3,52.2z"/>
	</g>
	<path fill="#383838" d="M15.9,52.6c0.1,0,0.6,1.2,1.1,1.7c0.6,0.6,1.3,1,2.3,1h0.4c0,0-0.3-0.2-0.4-0.2c-1.1-0.2-1.8-0.8-1.8-0.9
		c-0.1-0.1,0.3-1,0.4-1.8c0.1-0.3,0-1,0-1l-0.3,0.1c0,0,0.1,0.5,0.1,0.8c-0.1,0.9-0.5,1.7-0.5,1.7l-0.5-0.6c-0.3-0.4-0.6-1-0.6-1
		S15.9,52.6,15.9,52.6z"/>
	<path fill="#024524" d="M21.5,50.2c0-0.2-0.7-0.3-0.8-0.5c-0.2-0.8-1-2.3-3.2-2.1c-3.1,0.3-3.9,3.5-2.8,5.1
		c0.2,0.3,0.6,0.7,0.6,0.8c0.2,0.1,0.3-0.5,1-1c0.6-0.5,1.3-0.9,1.9-1C19.6,51.1,21.6,50.4,21.5,50.2z"/>
	<path fill="#5D8872" d="M14.7,55.2c0.1,0,0.6-1,0.8-0.9c0.2,0.1,1.4,0.9,1.9,1.2c0.6,0.4,1.3,0.5,1.4,0.6v1.1
		C18.8,57.2,14.7,55.2,14.7,55.2z M19.2,59.9c-0.2,0.5-1,0.5-1.7,0.1c-0.7-0.4-1.1-1-0.9-1.5c0.2-0.3,1-0.4,1.7,0
		C19.1,58.9,19.5,59.5,19.2,59.9z"/>
	<path fill="#024524" d="M36.9,86.5l-9.8-11.7l39-28.6l6.2-2l0.3,1l-6.1,2L50.6,58.8C50.6,58.8,36.9,86.5,36.9,86.5z M28.6,74.9
		l8,9.6l12.1-24.4L28.6,74.9z"/>
	<path fill="#303031" d="M38.8,85.9c0,1-0.8,1.7-1.7,1.7s-1.7-0.8-1.7-1.7s0.8-1.7,1.7-1.7S38.8,84.9,38.8,85.9z"/>
	<path fill="#191919" d="M107.9,46.4c-1.4,0.5-3.1,1-5,1.4c-4.3,1-25.8,3.8-44.8,6.2c-11.3,1.4-21,2.7-25.2,3.3
		c-0.5,0.1-0.8,0.2-1,0.6c-0.3,0.6,0.1,1.4,0.1,1.5l0.4-0.2c-0.1-0.2-0.3-0.7-0.1-1.1c0.1-0.2,0.3-0.3,0.6-0.4
		c4.3-0.6,14-1.9,25.2-3.3c15.6-2,32.9-4.2,41-5.6c1.7-0.3,3-0.5,3.8-0.7c1.8-0.4,3.6-1,5-1.4C107.9,46.8,107.9,46.4,107.9,46.4z"/>
	<g>
		<path fill="#808080" d="M33.8,60.3c0-0.2-0.2-0.2-0.2-0.2l-1,0.2c-0.2,0-0.2,0.2-0.2,0.2c0,0.2,0.2,0.2,0.2,0.2l1-0.2
			C33.7,60.6,33.8,60.4,33.8,60.3z"/>
		<path fill="#808080" d="M33.8,59.9c0-0.2-0.2-0.2-0.2-0.2l-1,0.2c-0.2,0-0.2,0.2-0.2,0.2c0,0.2,0.2,0.2,0.2,0.2l1-0.2
			C33.7,60.1,33.8,59.9,33.8,59.9z M33.7,59.4c0-0.2-0.2-0.2-0.2-0.2l-1,0.2c-0.2,0-0.2,0.2-0.2,0.2c0,0.2,0.2,0.2,0.2,0.2l1-0.2
			C33.6,59.6,33.7,59.5,33.7,59.4z"/>
		<path fill="#808080" d="M33.6,59c0-0.2-0.2-0.2-0.2-0.2l-1,0.2c-0.2,0-0.2,0.2-0.2,0.2c0,0.2,0.2,0.2,0.2,0.2l1-0.2
			C33.5,59.2,33.7,59.1,33.6,59z"/>
		<path fill="#808080" d="M30,59.6c0,0,1.5-0.8,1.8-0.9c0.3-0.1,1.7,0,1.7,0s-0.3,0.5-0.2,0.8c0.1,0.3,0.3,1,0.3,1s-1,0.4-1.6,0.5
			c-0.6,0-1.3,0.2-1.3,0.2L30,59.6z"/>
	</g>
	<path fill="#396F53" d="M30.3,59.2c0,0-1.7,0.4-3.5,1c-1.8,0.6-3.7,1.6-3.8,2.5c-0.2,1,0.6,1.6,1.7,1.3c1.2-0.2,6.3-2.5,6.4-2.7
		C31.3,61.3,30.3,59.2,30.3,59.2z"/>
</g>
</svg>
