<?xml version="1.0" encoding="utf-8"?>
<!-- Generator: Adobe Illustrator 24.3.0, SVG Export Plug-In . SVG Version: 6.00 Build 0)  -->
<svg version="1.1" id="Layer_1" xmlns="http://www.w3.org/2000/svg" xmlns:xlink="http://www.w3.org/1999/xlink" x="0px" y="0px"
	 viewBox="0 0 126 126" enable-background="new 0 0 126 126" xml:space="preserve">
<g>
	<path id="path11" fill="#FFFFFF" d="M20.7,46.4h12.8l-6.7,22.5c-0.5,1.6,0.5,2.9,2.2,2.9l0,0c1.6,0,3.3-1.3,3.8-2.9l6.7-22.5
		l11.3,0L43,75.2c-0.7,2.5-3.4,4.6-6,4.6H17.4c-3.1,0-5-2.5-4.2-5.5L20.7,46.4L20.7,46.4z"/>
	<polygon id="polygon13" fill="#FFFFFF" points="65,58.7 65,58.7 78.1,58.7 75.7,66.5 62.6,66.5 58.9,79.8 58.9,79.8 46.6,79.8 
		52.6,58.7 	"/>
	<path id="path15" fill="#FFFFFF" d="M90.5,46.1h16.7c2.4,0,6.6,2,5.7,5.1l-0.3,1.2H97.7c-0.8,0-1.6,0.6-1.8,1.4l-4.6,16.7
		c-0.2,0.7,0.2,1.4,1,1.4h14.9l-1.1,4c-0.6,2.3-3.1,4.2-5.5,4.2H83c-3.1,0-5-2.4-4.2-5.3L85.3,50C85.8,47.8,88.2,46.1,90.5,46.1
		L90.5,46.1z"/>
	<path id="path17" fill="#FFFFFF" d="M79.4,54.2H66.3l0,0H54l2.4-8.2c8.5,0,16.9,0,25.4,0L79.4,54.2L79.4,54.2z"/>
</g>
</svg>
