<?xml version="1.0" encoding="utf-8"?>
<!-- Generator: Adobe Illustrator 24.3.0, SVG Export Plug-In . SVG Version: 6.00 Build 0)  -->
<svg version="1.1" id="Layer_1" xmlns="http://www.w3.org/2000/svg" xmlns:xlink="http://www.w3.org/1999/xlink" x="0px" y="0px"
	 viewBox="0 0 126 126" enable-background="new 0 0 126 126" xml:space="preserve">
<g>
	<rect x="13" y="13" fill="#E84958" width="100.1" height="100.1"/>
	<g>
		<g>
			<path fill="#111111" d="M83,53.1V37.5c0-0.2-0.3-0.3-0.5-0.2l-17,21.3c-0.1,0.2,0,0.4,0.2,0.4H78c0.3,0,0.6-0.2,0.8-0.4l3.9-4.8
				C82.9,53.6,83,53.4,83,53.1L83,53.1z M43.2,53.8l12.8,16c0.2,0.3,0.5,0.4,0.9,0.4h12.3c0.2,0,0.3-0.2,0.2-0.4L43.4,37.4
				c-0.2-0.2-0.5-0.1-0.5,0.2v15.6C43,53.4,43.1,53.6,43.2,53.8L43.2,53.8z"/>
		</g>
	</g>
	<g>
		<path fill="#111111" d="M94.3,79.5h2.9v8.8c0,0.1,0.1,0.2,0.2,0.2H99c0.1,0,0.2-0.1,0.2-0.2v-8.8h3.6c0.1,0,0.2-0.1,0.1-0.2
			l-1.2-1.5c-0.1-0.1-0.3-0.2-0.4-0.2h-7c-0.1,0-0.2,0.1-0.2,0.2v1.5C94.1,79.4,94.2,79.5,94.3,79.5 M25.1,88.3l8.4-10.5
			c0.1-0.1,0-0.2-0.1-0.2h-2.1c-0.2,0-0.3,0.1-0.4,0.2l-6,7.5v-7.5c0-0.1-0.1-0.2-0.2-0.2h-1.6c-0.1,0-0.2,0.1-0.2,0.2v10.5
			c0,0.1,0.1,0.2,0.2,0.2h1.6C24.9,88.5,25,88.4,25.1,88.3 M31.1,88.3l2.9-3.6l2.9,3.6c0.1,0.1,0.3,0.2,0.4,0.2h1.6
			c0.1,0,0.2-0.1,0.2-0.2V77.8c0-0.1-0.1-0.2-0.2-0.2h-1.3c-0.3,0-0.6,0.1-0.8,0.4l-8.2,10.3c-0.1,0.1,0,0.2,0.1,0.2h2.1
			C30.8,88.5,30.9,88.4,31.1,88.3 M37,80.6v4.8L35.1,83L37,80.6z M84,88.3l-8.4-10.5c-0.1-0.1-0.3-0.2-0.4-0.2h-1.6
			c-0.1,0-0.2,0.1-0.2,0.2v10.5c0,0.1,0.1,0.2,0.2,0.2h1.6c0.2,0,0.3-0.1,0.4-0.2l2.9-3.6l2.9,3.6c0.1,0.1,0.3,0.2,0.4,0.2h2.1
			C84,88.5,84,88.4,84,88.3 M77.3,83l-1.9,2.4v-4.8L77.3,83z M54.2,77.3c-3.2,0-5.7,2.6-5.7,5.7c0,3.2,2.6,5.7,5.7,5.7
			c3.2,0,5.7-2.6,5.7-5.7C59.9,79.9,57.3,77.3,54.2,77.3 M54.2,86.8c-2,0-3.7-1.7-3.7-3.8c0-2.1,1.6-3.8,3.7-3.8s3.7,1.7,3.7,3.8
			S56.2,86.8,54.2,86.8 M90.6,77.8v7.5l-6-7.5c-0.1-0.1-0.3-0.2-0.4-0.2h-1.6c-0.1,0-0.2,0.1-0.2,0.2v5.1c0,0.1,0,0.2,0.1,0.3
			l1.7,2.1c0.1,0.1,0.2,0,0.2-0.1v-4.4l6,7.5c0.1,0.1,0.3,0.2,0.4,0.2h1.6c0.1,0,0.2-0.1,0.2-0.2V77.8c0-0.1-0.1-0.2-0.2-0.2h-1.6
			C90.7,77.6,90.6,77.7,90.6,77.8 M70.6,80.1v-2.3c0-0.1-0.1-0.2-0.2-0.2H62c-0.1,0-0.2,0.1-0.2,0.2v10.5c0,0.1,0.1,0.2,0.2,0.2h1.6
			c0.1,0,0.2-0.1,0.2-0.2v-8.8h4.7l-3.2,4c-0.1,0.1-0.1,0.2,0,0.3l3.6,4.5c0.1,0.1,0.3,0.2,0.4,0.2h2.1c0.1,0,0.2-0.1,0.1-0.2
			l-3.7-4.7l2.6-3.2C70.5,80.3,70.6,80.2,70.6,80.1 M41.7,88.5h4.9c0.2,0,0.3-0.1,0.4-0.2l1.2-1.5c0.1-0.1,0-0.2-0.1-0.2h-4.6v-8.8
			c0-0.1-0.1-0.2-0.2-0.2h-1.6c-0.1,0-0.2,0.1-0.2,0.2v10.5C41.5,88.4,41.6,88.5,41.7,88.5"/>
	</g>
</g>
</svg>
