<?xml version="1.0" encoding="utf-8"?>
<!-- Generator: Adobe Illustrator 24.3.0, SVG Export Plug-In . SVG Version: 6.00 Build 0)  -->
<svg version="1.1" id="Layer_1" xmlns="http://www.w3.org/2000/svg" xmlns:xlink="http://www.w3.org/1999/xlink" x="0px" y="0px"
	 viewBox="0 0 126 126" enable-background="new 0 0 126 126" xml:space="preserve">
<g>
	<path fill="#F0F0F3" d="M112.7,57.2c-0.8-6.8-3-13.3-6.2-19L73.1,14c-3.3-0.7-6.6-1-10.1-1c-3.4,0-6.8,0.3-10.1,1L19.6,38.2
		c-3.3,5.7-5.4,12.1-6.2,19l12.8,39.6c4.4,4.8,9.8,8.8,15.8,11.6h42c6-2.8,11.4-6.8,15.8-11.6L112.7,57.2z"/>
	<path fill="#DEDCE1" d="M99.6,36.5l3.2-1.9l3.6,3.6c3.3,5.7,5.4,12.1,6.2,19l-2.1,10.1h-6.3c0.4-2.7,0.7-5.5,0.7-8.3
		c0-2-0.1-3.9-0.3-5.8C103.9,47.2,102.2,41.6,99.6,36.5L99.6,36.5z M36.7,105.6c1.7,1,3.4,2,5.3,2.8l1.2,0.1l0.3-0.9
		C41.2,107.1,38.9,106.4,36.7,105.6L36.7,105.6z M91.8,92.8c-4.4,4.8-9.8,8.8-15.8,11.6c0,0,0,0,0,0l2,4.3l6-0.3
		c6-2.8,11.4-6.8,15.8-11.6l1.4-6.9l-2.3-7.1C97,86.4,94.6,89.7,91.8,92.8z"/>
	<path fill="#DEDCE1" d="M45.9,65.1L26.1,77l-1.3-2.7l19-11.5L45.9,65.1z M82.2,62.8l19,11.5L99.9,77l-19.8-12L82.2,62.8z M64.5,102
		V77.8c0-0.8-0.7-1.5-1.5-1.5s-1.5,0.7-1.5,1.5V102c0,0.8,0.7,1.5,1.5,1.5S64.5,102.8,64.5,102z M36.6,30.6l15.2,14.2l2.8-1.5
		L39.8,29.4L36.6,30.6z M86,29.6L71.8,42.9l2.1,2.2l14.7-13.7L86,29.6z"/>
	<g>
		<path fill="#756E79" d="M52.9,14c-14.3,2.9-26.3,11.9-33.4,24.2L40.3,33c0.6-0.1,1-0.5,1.3-1L52.9,14z"/>
		<path fill="#756E79" d="M112.7,57.2L99,73.6c-0.4,0.4-0.6,1-0.5,1.6l1.4,21.6C108,87.9,113,76,113,63
			C113,61,112.9,59.1,112.7,57.2z"/>
		<path fill="#756E79" d="M13.3,57.2C13.1,59.1,13,61,13,63c0,13,5,24.9,13.1,33.8l1.4-21.6c0-0.6-0.1-1.1-0.5-1.6L13.3,57.2z"/>
		<path fill="#756E79" d="M106.4,38.2c-7-12.3-19.1-21.3-33.4-24.2l11.3,18c0.3,0.5,0.8,0.8,1.3,1L106.4,38.2z"/>
		<path fill="#756E79" d="M42,108.4c6.4,3,13.5,4.6,21,4.6s14.6-1.7,21-4.6l-20-9.9c-0.6-0.3-1.4-0.3-2,0L42,108.4z"/>
	</g>
	<path fill="#675E66" d="M112.7,57.2l-8.4,10.1c-0.9,5.5-2.8,10.8-5.3,15.5l0.9,14C108,87.9,113,76,113,63
		C113,61,112.9,59.1,112.7,57.2L112.7,57.2z"/>
	<path fill="#675E66" d="M55,109c-4,0-7.8-0.5-11.5-1.3l-1.5,0.7c6.4,3,13.5,4.6,21,4.6s14.6-1.7,21-4.6l-8.1-4
		C69.6,107.3,62.4,109,55,109z"/>
	<path fill="#675E66" d="M98.4,34.2c0.4,0.8,0.8,1.5,1.2,2.3l6.8,1.7c-5.6-9.9-14.5-17.6-25.2-21.8C88.3,20.8,94.2,26.9,98.4,34.2
		L98.4,34.2z"/>
	<path fill="#756E79" d="M74.8,40.7H51.2c-1,0-1.8,0.6-2.1,1.5l-7.4,22.3c-0.3,0.9,0,2,0.8,2.5l19.1,13.8c0.8,0.6,1.8,0.6,2.6,0
		l19.1-13.8c0.8-0.6,1.1-1.6,0.8-2.5l-7.4-22.3C76.6,41.3,75.7,40.7,74.8,40.7L74.8,40.7z"/>
	<path fill="#9FC3E8" d="M63,70.4c-4.3,0-7.9-3.5-7.9-7.9v-1.4c0-1.4,1.1-2.5,2.5-2.5c1.4,0,2.5,1.1,2.5,2.5v1.4
		c0,1.6,1.3,2.8,2.8,2.8c1.6,0,2.8-1.3,2.8-2.8V50.3c0-1.4,1.1-2.5,2.5-2.5c1.4,0,2.5,1.1,2.5,2.5v12.2C70.9,66.8,67.3,70.4,63,70.4
		L63,70.4z"/>
</g>
</svg>
