<?xml version="1.0" encoding="utf-8"?>
<!-- Generator: Adobe Illustrator 24.3.0, SVG Export Plug-In . SVG Version: 6.00 Build 0)  -->
<svg version="1.1" id="Layer_1" xmlns="http://www.w3.org/2000/svg" xmlns:xlink="http://www.w3.org/1999/xlink" x="0px" y="0px"
	 viewBox="0 0 126 126" enable-background="new 0 0 126 126" xml:space="preserve">
<g>
	<path fill="#E95569" d="M113,65.9v2.9l-5.9,5.9H25.8l-6.3-5.9C26.7,51.4,43.8,39.6,63,39.6c1.6,0,2.9,1.3,2.9,2.9v8.8h5.2
		c14.4,0,28.6,4.2,40.6,12.2C112.5,64.1,113,64.9,113,65.9z"/>
	<path fill="#E53951" d="M113,65.9v2.9l-5.9,5.9H65.9V51.3h5.2c14.4,0,28.6,4.2,40.6,12.2C112.5,64.1,113,64.9,113,65.9z"/>
	<path fill="#E53951" d="M113,68.9v8.8c0,1.6-1.3,2.9-2.9,2.9H24.7V68.9H113z"/>
	<path fill="#CC2E43" d="M113,68.9v8.8c0,1.6-1.3,2.9-2.9,2.9H65.9V68.9H113z"/>
	<path fill="#E53951" d="M24.7,74.7h-8.8c-1.6,0-2.9-1.3-2.9-2.9V42.5c0-1.6,1.3-2.9,2.9-2.9h2.9c3.2,0,5.9,2.6,5.9,5.9V74.7z"/>
	<path fill="#5B5A5A" d="M30.6,63c-6.4,0-11.7,5.3-11.7,11.7s5.3,11.7,11.7,11.7s11.7-5.3,11.7-11.7S37,63,30.6,63z"/>
	<path fill="#DDECF1" d="M30.6,68.9c-3.2,0-5.9,2.6-5.9,5.9s2.6,5.9,5.9,5.9s5.9-2.6,5.9-5.9S33.8,68.9,30.6,68.9z"/>
	<path fill="#454444" d="M89.4,63c-6.4,0-11.7,5.3-11.7,11.7s5.3,11.7,11.7,11.7s11.7-5.3,11.7-11.7S95.8,63,89.4,63z"/>
	<path fill="#C5E1E6" d="M89.4,68.9c-3.2,0-5.9,2.6-5.9,5.9s2.6,5.9,5.9,5.9s5.9-2.6,5.9-5.9S92.6,68.9,89.4,68.9z"/>
</g>
</svg>
