<?xml version="1.0" encoding="utf-8"?>
<!-- Generator: Adobe Illustrator 24.3.0, SVG Export Plug-In . SVG Version: 6.00 Build 0)  -->
<svg version="1.1" id="Layer_1" xmlns="http://www.w3.org/2000/svg" xmlns:xlink="http://www.w3.org/1999/xlink" x="0px" y="0px"
	 viewBox="0 0 126 126" enable-background="new 0 0 126 126" xml:space="preserve">
<g>
	<path fill="#F4F1F1" d="M112.9,65.9c-0.9,16.2-9.6,30.4-22.4,38.8c-0.8,0.5-3.4-0.4-3.4-0.4s-0.8,2.9-1.6,3.3
		c-6.7,3.4-14.4,5.3-22.4,5.3s-15.7-1.9-22.4-5.3c-0.9-0.4-1.4-3.6-1.4-3.6s-2.9,1.2-3.7,0.6C22.7,96.3,14,82.2,13.1,65.9
		C13,65,15.7,63,15.7,63s-2.7-2-2.6-2.9c0.9-16.2,9.6-30.4,22.4-38.8c0.8-0.5,3.6,0.3,3.6,0.3s0.6-2.8,1.5-3.2
		C47.3,14.9,54.9,13,63,13c8.1,0,15.7,1.9,22.4,5.3c0.8,0.4,1.6,3.1,1.6,3.1s2.5-0.8,3.4-0.2c12.8,8.4,21.5,22.6,22.4,38.8
		c0.1,1-2.6,2.9-2.6,2.9S113,65,112.9,65.9z"/>
	<path fill="#E1DEF0" d="M112.9,65.9c-0.9,16.2-9.6,30.4-22.4,38.8c-0.8,0.5-3.4-0.4-3.4-0.4s-0.8,2.9-1.6,3.3
		c-6.7,3.4-14.4,5.3-22.4,5.3V13c8.1,0,15.7,1.9,22.4,5.3c0.8,0.4,1.6,3.1,1.6,3.1s2.5-0.8,3.4-0.2c12.8,8.4,21.5,22.6,22.4,38.8
		c0.1,1-2.6,2.9-2.6,2.9S113,65,112.9,65.9z"/>
	<path fill="#E1DEF0" d="M112.9,65.9C113,65,113,64,113,63s0-2-0.1-2.9h-23L79,41.2l11.5-19.9c-1.6-1.1-3.3-2.1-5.1-2.9L73.9,38.2
		H52.1L40.6,18.3c-1.8,0.9-3.4,1.9-5.1,2.9L47,41.2L36.1,60.1h-23C13,61,13,62,13,63c0,1,0,2,0.1,2.9h23L47,84.8l-11.5,19.9
		c1.6,1.1,3.3,2.1,5.1,2.9l11.5-19.9h21.8l11.5,19.9c1.8-0.9,3.4-1.9,5.1-2.9L79,84.8l10.9-18.9H112.9z M73.9,81.9H52.1L41.2,63
		l10.9-18.9h21.8L84.8,63L73.9,81.9z"/>
	<path fill="#BCBBDA" d="M89.9,65.9L79,84.8l11.5,19.9c-1.6,1.1-3.3,2.1-5.1,2.9L73.9,87.8H63v-5.9h10.9L84.8,63L73.9,44.1H63v-5.9
		h10.9l11.5-19.9c1.8,0.9,3.4,1.9,5.1,2.9L79,41.2l10.9,18.9h23C113,61,113,62,113,63c0,1,0,2-0.1,2.9H89.9z"/>
</g>
</svg>
