<?xml version="1.0" encoding="utf-8"?>
<!-- Generator: Adobe Illustrator 24.3.0, SVG Export Plug-In . SVG Version: 6.00 Build 0)  -->
<svg version="1.1" id="Layer_1" xmlns="http://www.w3.org/2000/svg" xmlns:xlink="http://www.w3.org/1999/xlink" x="0px" y="0px"
	 viewBox="0 0 126 126" enable-background="new 0 0 126 126" xml:space="preserve">
<g id="XMLID_270_">
	<path id="XMLID_276_" fill="#E7B332" d="M68.8,64.5L60.5,59c2.2-2.1,2.1-2.1,5.9-5.9l-5.6-11.8l10,11.8c0.9,1,2.2,1.6,3.6,1.4
		l16.2-1.9c2.2-0.3,3.9-2.3,3.6-4.5c-0.3-2.2-2.3-3.9-4.5-3.6l-14,1.6l-8.5-10.1l8.3,5.8c0-1.5-0.5-3.1-1.7-4.2l-7.3-7.7
		C65.3,28.7,63.7,28,62,28c-1.7,0-3.3,0.7-4.4,1.9L40.1,48.5c-2.8,3-2.2,7.7,1.2,9.8l2.7,1.7l-6.5,0c-1.9,0-3.4,1.5-3.4,3.4
		c0,1.9,1.5,3.4,3.4,3.4h4.6l-3.1,5.9c-1.8-0.5-3.7-0.8-5.6-0.8C22.1,72,13,81.2,13,92.5S22.1,113,33.5,113
		c8.9,0,16.5-5.7,19.3-13.7c-1.1-0.1-2.2-0.5-3.2-1c-4.3-2.4-5.8-7.8-3.4-12c1.9-3.4,0.8-1.5,6.2-11.2l-1.6-3.8h3.3h0.1L45,60.7
		c10.3,6.6,7,4.5,14.6,9.5l-10,18c-1.3,2.4-0.5,5.4,1.9,6.7c2.4,1.3,5.4,0.5,6.7-1.9L70.4,71C71.6,68.7,71,65.9,68.8,64.5z
		 M43.3,74.5l2.3-4.3l4,9.6C47.8,77.6,45.7,75.8,43.3,74.5z"/>
	<path id="XMLID_275_" fill="#E7B332" d="M71.6,24c-0.3,2.6,0.5,5.3,2.4,7.3c3.4,3.6,9.1,3.8,12.8,0.4c0.8-0.7,1.4-1.6,1.9-2.5
		c-0.2-0.1-0.5-0.1-0.7-0.2c-3.5-1.3-7.1-2.3-10.4-3.3C75.3,25.1,73.3,24.5,71.6,24z"/>
	<path id="XMLID_274_" fill="#E7B332" d="M89.4,24.8c0.1,0,0.3,0.1,0.4,0.1c0.2,0,0.4-0.1,0.6-0.2c0.3-0.2,0.5-0.5,0.6-0.8
		c0.3-1.9,0.5-4.1-0.5-5.8c-2.2-3.6-5.2-5.1-10.7-5.1c-1,0-2.1,0.1-3.4,0.2c-0.8,0.1-1.5,0.1-2.2,0.1c-1.8,0-3.4-0.1-4.7-0.1
		c-1.6,0-2.8,0.2-3.2,1.2C64.7,18.9,77.5,20.4,89.4,24.8z"/>
	<path id="XMLID_271_" fill="#E7B332" d="M92.5,72c-1.5,0-2.9,0.2-4.3,0.5l-4.9-14.8l-4.6,0.5l1.3,4l-7.3,0.6c0.9,1,1.6,2.3,1.9,3.7
		c0.1,0.2,0.1,0.5,0.1,0.7l2.7-0.2l-2.7,2.9c-0.2,1-0.5,2.1-1,3L67,85.1l15.2-16.6l1.8,5.4C76.9,77.1,72,84.2,72,92.5
		c0,11.3,9.2,20.5,20.5,20.5c11.3,0,20.5-9.2,20.5-20.5C113,81.2,103.9,72,92.5,72z M92.5,107.5c-8.3,0-15-6.7-15-15
		c0-5.8,3.3-10.9,8.2-13.4l4.7,14.1c0.3,0.9,1.2,1.5,2.1,1.5c0.2,0,0.5,0,0.7-0.1c1.2-0.4,1.8-1.7,1.4-2.8L90,77.7
		c0.8-0.1,1.7-0.2,2.6-0.2c8.3,0,15,6.7,15,15C107.6,100.8,100.8,107.5,92.5,107.5z"/>
</g>
</svg>
