<?xml version="1.0" encoding="utf-8"?>
<!-- Generator: Adobe Illustrator 24.3.0, SVG Export Plug-In . SVG Version: 6.00 Build 0)  -->
<svg version="1.1" id="Layer_1" xmlns="http://www.w3.org/2000/svg" xmlns:xlink="http://www.w3.org/1999/xlink" x="0px" y="0px"
	 viewBox="0 0 126 126" enable-background="new 0 0 126 126" xml:space="preserve">
<g>
	<path fill="#EAE6F1" d="M83.3,85.8c-0.1-0.5-0.2-1.1-0.2-1.7c0-1.8,0.6-3.5,1.7-4.9H50.6c1,1.3,1.7,3,1.7,4.9
		c0,0.6-0.1,1.1-0.2,1.7L83.3,85.8z"/>
	<path fill="#EAE6F1" d="M97.4,79.3c1,1.3,1.7,3,1.7,4.9c0,0.6-0.1,1.1-0.2,1.7h5.1c0.9,0,1.7-0.5,2.1-1.2l3-5.3L97.4,79.3
		L97.4,79.3z"/>
	<path fill="#EAE6F1" d="M36.4,84.1c0-1.8,0.6-3.5,1.7-4.9H22.6l5,2.2c0.3,0.1,0.6,0.3,0.8,0.6l2.6,2.9c0.5,0.5,1.1,0.8,1.8,0.8h3.6
		C36.4,85.3,36.4,84.7,36.4,84.1L36.4,84.1z"/>
	<path fill="#A38ABF" d="M101.9,73.9c-2.4-0.9-5-1.7-7.7-2.4c-0.5-0.1-0.9,0.3-0.8,0.8l0.1,0.5c0.1,0.6,0.6,1,1.1,1.2l4.7,1.6
		c0.3,0.1,0.7,0.1,1,0l1.5-0.5C102.5,74.9,102.5,74.1,101.9,73.9L101.9,73.9z"/>
	<path fill="#EAE6F1" d="M32.1,68.1c-0.6,0-1.1-0.5-1.1-1.1v-1.9c0-0.6,0.5-1.1,1.1-1.1s1.1,0.5,1.1,1.1V67
		C33.2,67.6,32.7,68.1,32.1,68.1z"/>
	<path fill="#EAE6F1" d="M35.6,68.1c-0.6,0-1.1-0.5-1.1-1.1v-1.9c0-0.6,0.5-1.1,1.1-1.1s1.1,0.5,1.1,1.1V67
		C36.6,67.6,36.1,68.1,35.6,68.1z"/>
	<path fill="#EAE6F1" d="M39,68.1c-0.6,0-1.1-0.5-1.1-1.1v-1.9c0-0.6,0.5-1.1,1.1-1.1s1.1,0.5,1.1,1.1V67
		C40.1,67.6,39.6,68.1,39,68.1z"/>
	<path fill="#A38ABF" d="M21,74.5h-1c-0.5,0-0.9-0.4-0.9-0.9v-4.1c0-0.5,0.4-0.9,0.9-0.9h1c0.5,0,0.9,0.4,0.9,0.9v4.1
		C21.9,74.1,21.5,74.5,21,74.5z"/>
	<path fill="#EAE6F1" d="M113,40.8c-0.3-0.5-1-0.7-1.5-0.4l-12.3,7.1l-12.3-7.1c-0.5-0.3-1.2-0.1-1.5,0.4s-0.1,1.2,0.4,1.5l12.3,7.1
		v14.2c0,0.6,0.5,1.1,1.1,1.1s1.1-0.5,1.1-1.1V49.3l12.3-7.1C113.1,42,113.3,41.3,113,40.8z"/>
	<g>
		<path fill="#846F75" d="M110.3,73.8c-4.9-3.2-14.3-5.9-28-8.2c-0.4-0.1-0.9-0.1-1.1-0.2l-14.9-8.9c-0.7-0.4-1.6-0.7-2.4-0.7H51.6
			c-6,0-11.8,1.1-17.4,3.1l-15.6,5.8c-1.6,0.4-2.6,1.8-2.6,3.4v6.2c0,1.9,1.1,3.6,2.8,4.3l8.5,3.7c0.2,0.1,0.3,0.2,0.5,0.3l2.6,2.9
			c0.7,0.7,1.6,1.2,2.6,1.2c0.6,0,1.1-0.5,1.1-1.1s-0.5-1.1-1.1-1.1c-0.4,0-0.7-0.2-1-0.4l-2.6-2.9c-0.3-0.4-0.7-0.7-1.2-0.9
			l-8.5-3.7c-0.9-0.4-1.5-1.3-1.5-2.3v-6.2c0-0.6,0.4-1.2,1-1.3c0,0,0.1,0,0.1,0L34.9,61c5.4-2,11-3,16.7-3h12.4
			c0.5,0,0.9,0.1,1.3,0.4l15,9c0.2,0.1,0.2,0.1,1.7,0.4c13.5,2.2,22.7,4.9,27.3,8c0.1,0.1,0.2,0.1,0.3,0.1c0,0,0.1,0,0.1,0.1
			c0,0.1,0,0.1,0,0.1l-4.5,8c-0.2,0.3-0.3,0.5-0.4,0.7h-1.1c-0.6,0-1.1,0.5-1.1,1.1s0.5,1.1,1.1,1.1h1.6c0.3,0,0.6-0.1,0.8-0.3
			c0.1-0.1,0.6-0.6,1.1-1.5l4.5-8c0.3-0.6,0.4-1.3,0.1-2C111.4,74.5,110.9,74.1,110.3,73.8L110.3,73.8z"/>
		<path fill="#846F75" d="M78.7,84.7H56.9c-0.6,0-1.1,0.5-1.1,1.1s0.5,1.1,1.1,1.1h21.8c0.6,0,1.1-0.5,1.1-1.1S79.3,84.7,78.7,84.7z
			"/>
		<path fill="#846F75" d="M44.3,79.6c-2.5,0-4.6,2-4.6,4.6s2,4.6,4.6,4.6s4.6-2,4.6-4.6S46.8,79.6,44.3,79.6z M44.3,86.5
			c-1.3,0-2.4-1.1-2.4-2.4c0-1.3,1.1-2.4,2.4-2.4s2.4,1.1,2.4,2.4C46.7,85.4,45.6,86.5,44.3,86.5z"/>
		<path fill="#846F75" d="M44.3,75.1c-5,0-9,4.1-9,9c0,5,4.1,9,9,9c5,0,9-4.1,9-9C53.4,79.1,49.3,75.1,44.3,75.1z M44.3,91
			c-3.8,0-6.9-3.1-6.9-6.9c0-3.8,3.1-6.9,6.9-6.9s6.9,3.1,6.9,6.9C51.2,87.9,48.1,91,44.3,91z"/>
		<path fill="#846F75" d="M19.5,57.1l1.9,4.7c0.2,0.4,0.6,0.7,1,0.7c0.1,0,0.3,0,0.4-0.1c0.6-0.2,0.8-0.9,0.6-1.4l-1.6-3.9h0.6
			l2.9,3.6c0.2,0.3,0.5,0.4,0.8,0.4c0.2,0,0.5-0.1,0.7-0.2c0.5-0.4,0.5-1.1,0.2-1.5l-1.8-2.3h2.6c0.6,0,1.2-0.3,1.5-0.9
			c0.3-0.6,0.2-1.2-0.1-1.7l-1.4-1.9c-0.3-0.4-0.8-0.7-1.3-0.7H14.5c-0.6,0-1.2,0.3-1.5,0.9s-0.2,1.2,0.1,1.7
			c1.2,1.6,3.1,2.6,5.1,2.6L19.5,57.1L19.5,57.1z M26.1,54.1l0.6,0.9h-6.5c0,0,0,0,0,0h-1.9c-0.9,0-1.8-0.3-2.6-0.9H26.1z"/>
		<path fill="#846F75" d="M44.9,66.7l4.7,2.2c0.6,0.3,1.3,0.5,2,0.5h20.8c0.8,0,1.5-0.5,1.7-1.3c0.2-0.8-0.1-1.6-0.8-2L64,60.6
			c-0.7-0.4-1.6-0.7-2.4-0.7H51c-0.8,0-1.5,0.2-2.2,0.5l-4,2.1c-0.8,0.4-1.3,1.2-1.2,2.1C43.7,65.5,44.2,66.3,44.9,66.7L44.9,66.7z
			 M45.9,64.5l4-2.1c0.4-0.2,0.8-0.3,1.2-0.3h10.6c0.5,0,0.9,0.1,1.3,0.4l7.9,4.7H51.6c-0.4,0-0.8-0.1-1.1-0.2l-4.7-2.2
			c0,0-0.1,0-0.1-0.1C45.8,64.5,45.8,64.5,45.9,64.5L45.9,64.5z"/>
		<path fill="#846F75" d="M91.1,79.6c-2.5,0-4.6,2-4.6,4.6s2,4.6,4.6,4.6s4.6-2,4.6-4.6S93.6,79.6,91.1,79.6z M91.1,86.5
			c-1.3,0-2.4-1.1-2.4-2.4c0-1.3,1.1-2.4,2.4-2.4c1.3,0,2.4,1.1,2.4,2.4C93.5,85.4,92.4,86.5,91.1,86.5z"/>
		<path fill="#846F75" d="M91.1,75.1c-5,0-9,4.1-9,9c0,5,4.1,9,9,9s9-4.1,9-9C100.1,79.1,96.1,75.1,91.1,75.1z M91.1,91
			c-3.8,0-6.9-3.1-6.9-6.9c0-3.8,3.1-6.9,6.9-6.9s6.9,3.1,6.9,6.9C97.9,87.9,94.9,91,91.1,91z"/>
		<path fill="#846F75" d="M112.6,40.4L99.7,33c-0.3-0.2-0.7-0.2-1.1,0l-12.8,7.4c-0.3,0.2-0.5,0.6-0.5,0.9v14.8
			c0,0.4,0.2,0.7,0.5,0.9l12.8,7.4c0.2,0.1,0.4,0.1,0.5,0.1s0.4,0,0.5-0.1l12.8-7.4c0.3-0.2,0.5-0.6,0.5-0.9V41.3
			C113.1,40.9,112.9,40.6,112.6,40.4L112.6,40.4z M110.9,55.5l-11.7,6.8l-11.7-6.8V41.9l11.7-6.8l11.7,6.8V55.5z"/>
	</g>
	<path fill="#A38ABF" d="M90.6,53.8c-0.2,0-0.5-0.1-0.7-0.2c-0.5-0.4-0.5-1.1-0.2-1.5l6.3-7.8c0.3-0.4,0.8-0.5,1.2-0.3
		c0.4,0.2,0.7,0.6,0.7,1v7.8c0,0.6-0.5,1.1-1.1,1.1s-1.1-0.5-1.1-1.1V48l-4.3,5.4C91.2,53.7,90.9,53.8,90.6,53.8L90.6,53.8z"/>
	<path fill="#A38ABF" d="M107.8,53.8c-0.3,0-0.6-0.1-0.8-0.4l-3.5-4.2c-0.3-0.4-0.3-1,0-1.4L105,46h-3.3v6.7c0,0.6-0.5,1.1-1.1,1.1
		s-1.1-0.5-1.1-1.1v-7.8c0-0.6,0.5-1.1,1.1-1.1h6.6c0.4,0,0.8,0.2,1,0.6c0.2,0.4,0.1,0.8-0.1,1.1l-2.3,2.9l2.9,3.5
		c0.4,0.5,0.3,1.1-0.1,1.5C108.3,53.7,108.1,53.8,107.8,53.8L107.8,53.8z"/>
</g>
</svg>
