<?xml version="1.0" encoding="utf-8"?>
<!-- Generator: Adobe Illustrator 24.3.0, SVG Export Plug-In . SVG Version: 6.00 Build 0)  -->
<svg version="1.1" id="Layer_1" xmlns="http://www.w3.org/2000/svg" xmlns:xlink="http://www.w3.org/1999/xlink" x="0px" y="0px"
	 viewBox="0 0 126 126" enable-background="new 0 0 126 126" xml:space="preserve">
<g>
	<g>
		<path fill="#EAE6F1" d="M43,99.9c0.1,0.7-0.1,1.5-0.7,2h12.9c-0.6-0.5-0.8-1.3-0.7-2H43z"/>
		<path fill="#EAE6F1" d="M80.8,72.9l-6.2,15.6c-0.2-0.9-0.9-1.5-1.7-1.7l5.2-13C79.5,74.6,80.8,72.9,80.8,72.9z"/>
		<path fill="#EAE6F1" d="M60.6,41.4c-0.1-0.4-0.4-1.1-0.4-1.1l12.9,10.8c-0.9-0.1-1.7,0.4-2.1,1.1l-10.8-9
			C60.6,42.6,60.7,42,60.6,41.4z"/>
		<path fill="#EAE6F1" d="M16.8,72.9L23,88.5c0.2-0.9,0.9-1.5,1.7-1.7l-5.2-13C18.1,74.6,16.8,72.9,16.8,72.9z"/>
		<path fill="#EAE6F1" d="M36.9,41.4c0.1-0.4,0.4-1.1,0.4-1.1L24.5,51.1c0.9-0.1,1.7,0.4,2.1,1.1l10.8-9
			C36.9,42.6,36.8,42,36.9,41.4L36.9,41.4z"/>
		<path fill="#EAE6F1" d="M36.4,65.9l-8.2-2.5l0,0.2c0.1,0.7-0.1,1.3-0.6,1.8l-0.1,0.1l8.2,2.5C35.6,67.2,35.8,66.4,36.4,65.9
			L36.4,65.9z"/>
		<path fill="#EAE6F1" d="M40,81.3l-4,7.4l0.1,0c0.7,0.1,1.2,0.5,1.5,1.1l0.1,0.2l4-7.5C41,82.5,40.3,82,40,81.3L40,81.3z"/>
		<path fill="#EAE6F1" d="M49.9,57.8v-9.5l-0.2,0.1c-0.6,0.3-1.3,0.3-1.9,0l-0.2-0.1v9.5C48.4,57.4,49.2,57.4,49.9,57.8z"/>
		<path fill="#EAE6F1" d="M61.1,65.9l8.2-2.5l0,0.2c-0.1,0.7,0.1,1.3,0.6,1.8l0.1,0.1L61.9,68C62,67.2,61.7,66.4,61.1,65.9
			L61.1,65.9z"/>
		<path fill="#EAE6F1" d="M57.6,81.3l4,7.4l-0.1,0c-0.7,0.1-1.2,0.5-1.5,1.1l-0.1,0.2l-4-7.5C56.6,82.5,57.2,82,57.6,81.3L57.6,81.3
			z"/>
	</g>
	<path fill="#66C0D5" d="M55.4,83.9H42.1c-1.6,0-2.9-1-3.4-2.5l-4.1-12.6c-0.5-1.5,0-3.1,1.3-4L46.7,57c1.3-0.9,3-0.9,4.2,0
		l10.7,7.8c1.3,0.9,1.8,2.5,1.3,4l-4.1,12.6C58.4,82.9,57,83.9,55.4,83.9L55.4,83.9z M48.8,58.7c-0.2,0-0.5,0.1-0.7,0.2l-10.7,7.8
		c-0.4,0.3-0.6,0.8-0.4,1.3L41,80.7c0.2,0.5,0.6,0.8,1.1,0.8h13.3c0.5,0,1-0.3,1.1-0.8L60.7,68c0.2-0.5,0-1-0.4-1.3l-10.7-7.8
		C49.3,58.8,49,58.7,48.8,58.7L48.8,58.7z"/>
	<path fill="#EAE6F1" d="M97.6,37.9c-0.2,0-0.4-0.1-0.6-0.2l-14.2-8.2c-0.6-0.3-0.8-1.1-0.4-1.6c0.3-0.6,1.1-0.8,1.6-0.4l13.6,7.9
		l13.6-7.9c0.6-0.3,1.3-0.1,1.6,0.4c0.3,0.6,0.1,1.3-0.4,1.6l-14.2,8.2C98,37.9,97.8,37.9,97.6,37.9z"/>
	<path fill="#EAE6F1" d="M97.6,54.4c-0.7,0-1.2-0.5-1.2-1.2V36.7c0-0.7,0.5-1.2,1.2-1.2c0.7,0,1.2,0.5,1.2,1.2v16.4
		C98.8,53.8,98.2,54.4,97.6,54.4z"/>
	<path fill="#66C0D5" d="M88,42.4c-0.3,0-0.5-0.1-0.8-0.3c-0.5-0.4-0.6-1.2-0.2-1.7l7-8.7c0.3-0.4,0.9-0.6,1.3-0.4
		c0.5,0.2,0.8,0.6,0.8,1.1v8.7c0,0.7-0.5,1.2-1.2,1.2c-0.7,0-1.2-0.5-1.2-1.2v-5.2l-4.8,6C88.7,42.2,88.4,42.4,88,42.4z"/>
	<path fill="#66C0D5" d="M107.1,42.4c-0.3,0-0.7-0.1-0.9-0.4l-3.8-4.7c-0.4-0.4-0.4-1.1,0-1.5l1.6-2.1h-3.7v7.5
		c0,0.7-0.5,1.2-1.2,1.2c-0.7,0-1.2-0.5-1.2-1.2v-8.7c0-0.7,0.5-1.2,1.2-1.2h7.3c0.5,0,0.9,0.3,1.1,0.7c0.2,0.4,0.1,0.9-0.1,1.3
		l-2.6,3.2l3.2,3.9c0.4,0.5,0.3,1.3-0.2,1.7C107.7,42.3,107.4,42.4,107.1,42.4L107.1,42.4z"/>
	<path fill="#DBB9C4" d="M48.8,35.3C29.1,35.3,13,51.4,13,71.1s16.1,35.8,35.8,35.8s35.8-16.1,35.8-35.8S68.5,35.3,48.8,35.3
		L48.8,35.3z M58.2,39.1l1.1,2.2c0.1,0.3,0.1,0.5,0.1,0.8c-0.1,0.3-0.3,0.5-0.5,0.6l-9.6,4.5c-0.3,0.1-0.6,0.1-0.9,0l-9.6-4.5
		c-0.3-0.1-0.4-0.3-0.5-0.6c-0.1-0.3-0.1-0.6,0.1-0.8l1.1-2.2c3-0.9,6.2-1.4,9.4-1.4C52.1,37.7,55.2,38.2,58.2,39.1z M20.9,52.8
		l3.7-0.6c0.3,0,0.6,0,0.8,0.2s0.4,0.4,0.4,0.7l1.3,10.6c0,0.3-0.1,0.6-0.3,0.8l-7.3,7.8c-0.2,0.2-0.5,0.3-0.7,0.3
		c-0.3,0-0.5-0.1-0.7-0.3l-2.6-2.5C15.7,63.6,17.6,57.8,20.9,52.8L20.9,52.8z M23.5,92.9l0.7-4.1c0-0.3,0.2-0.5,0.4-0.7
		c0.2-0.2,0.5-0.2,0.8-0.2l10.5,2c0.3,0.1,0.6,0.2,0.7,0.5l5.1,9.3c0.1,0.2,0.2,0.5,0.1,0.8c-0.1,0.3-0.3,0.5-0.5,0.6l-3,1.6
		C32.5,100.9,27.4,97.4,23.5,92.9z M41.7,103.7l0.7-0.4c0.8-0.4,1.4-1.2,1.7-2.1c0.3-0.9,0.2-1.8-0.3-2.7l-5.1-9.3
		c-0.5-0.9-1.4-1.5-2.4-1.7l-10.5-2c-0.9-0.2-1.8,0-2.6,0.6c-0.8,0.5-1.3,1.3-1.4,2.3l-0.3,1.9c-3.4-4.9-5.6-10.7-6-17l0.8,0.8
		c0.6,0.6,1.5,1,2.4,1c0,0,0,0,0.1,0c0.9,0,1.8-0.4,2.4-1.1l7.3-7.8c0.7-0.7,1-1.8,0.9-2.8l-1.3-10.6c-0.1-0.9-0.6-1.7-1.3-2.3
		c-0.7-0.6-1.7-0.8-2.6-0.7l-1.3,0.2c3.5-4.3,8-7.7,13.2-9.9l0,0c-0.4,0.8-0.5,1.8-0.2,2.7c0.3,0.9,0.9,1.6,1.8,2l9.6,4.5
		c0.5,0.2,1,0.3,1.5,0.3c0.5,0,1-0.1,1.5-0.3l9.6-4.5c0.8-0.4,1.5-1.1,1.8-2c0.3-0.9,0.2-1.8-0.2-2.7l0,0c5.2,2.1,9.7,5.6,13.2,9.9
		l-1.3-0.2c-0.9-0.1-1.8,0.1-2.6,0.7c-0.7,0.6-1.2,1.4-1.3,2.3l-1.3,10.6c-0.1,1,0.2,2,0.9,2.8l7.3,7.8c0.6,0.7,1.5,1.1,2.4,1.1
		c0,0,0,0,0.1,0c0.9,0,1.8-0.4,2.4-1l0.8-0.8c-0.4,6.3-2.6,12.2-6,17l-0.3-1.9c-0.2-0.9-0.7-1.7-1.4-2.3c-0.8-0.5-1.7-0.7-2.6-0.6
		l-10.5,2c-1,0.2-1.9,0.8-2.4,1.7l-5.1,9.3c-0.5,0.8-0.6,1.8-0.3,2.7c0.3,0.9,0.9,1.6,1.7,2l0.7,0.4c-2.3,0.5-4.7,0.8-7.1,0.8
		C46.4,104.5,44,104.2,41.7,103.7L41.7,103.7z M82.1,69.9l-2.6,2.5c-0.2,0.2-0.5,0.3-0.7,0.3c-0.3,0-0.5-0.1-0.7-0.3l-7.3-7.8
		c-0.2-0.2-0.3-0.5-0.3-0.8l1.3-10.6c0-0.3,0.2-0.5,0.4-0.7s0.5-0.2,0.8-0.2l3.7,0.6C79.9,57.8,81.9,63.6,82.1,69.9
		C82.1,69.9,82.1,69.9,82.1,69.9z M59.3,102.8C59.3,102.8,59.2,102.8,59.3,102.8l-3-1.6c-0.2-0.1-0.4-0.3-0.5-0.6
		c-0.1-0.3-0.1-0.6,0.1-0.8l5.1-9.3c0.1-0.3,0.4-0.5,0.7-0.5l10.5-2c0.3-0.1,0.6,0,0.8,0.2c0.2,0.2,0.4,0.4,0.4,0.7l0.7,4.1
		C70.1,97.4,65.1,100.9,59.3,102.8L59.3,102.8z"/>
	<path fill="#DBB9C4" d="M112.4,27.5l-14.2-8.2c-0.4-0.2-0.8-0.2-1.2,0l-14.2,8.2c-0.4,0.2-0.6,0.6-0.6,1V45c0,0.4,0.2,0.8,0.6,1
		L97,54.2c0.2,0.1,0.4,0.2,0.6,0.2s0.4-0.1,0.6-0.2l14.2-8.2c0.4-0.2,0.6-0.6,0.6-1V28.5C113,28.1,112.8,27.7,112.4,27.5L112.4,27.5
		z M110.6,44.3l-13,7.5l-13-7.5v-15l13-7.5l13,7.5V44.3z"/>
</g>
</svg>
