<?xml version="1.0" encoding="utf-8"?>
<!-- Generator: Adobe Illustrator 24.3.0, SVG Export Plug-In . SVG Version: 6.00 Build 0)  -->
<svg version="1.1" id="Layer_1" xmlns="http://www.w3.org/2000/svg" xmlns:xlink="http://www.w3.org/1999/xlink" x="0px" y="0px"
	 viewBox="0 0 126 126" enable-background="new 0 0 126 126" xml:space="preserve">
<g>
	<path fill="#AFCBDC" d="M43.9,42.3h-6.8c-4.8,0-8.6-3.9-8.6-8.6v-6.9c0-3.8,3.1-6.9,6.9-6.9h6.9c1,0,1.7,0.8,1.7,1.7
		s-0.8,1.7-1.7,1.7h-6.9c-1.9,0-3.4,1.5-3.4,3.4v6.9c0,2.9,2.3,5.2,5.2,5.2h6.8c1,0,1.7,0.8,1.7,1.7C45.6,41.5,44.9,42.3,43.9,42.3z
		"/>
	<path fill="#AFCBDC" d="M88.9,42.3h-6.8c-1,0-1.7-0.8-1.7-1.7c0-1,0.8-1.7,1.7-1.7h6.8c2.9,0,5.2-2.3,5.2-5.2v-6.9
		c0-1.9-1.5-3.4-3.4-3.4h-6.9c-1,0-1.7-0.8-1.7-1.7s0.8-1.7,1.7-1.7h6.9c3.8,0,6.9,3.1,6.9,6.9v6.9C97.5,38.4,93.6,42.3,88.9,42.3z"
		/>
	<path fill="#E2C74C" d="M57.8,50.9h10.3V63H57.8V50.9z"/>
	<path fill="#FCDF5C" d="M38.9,18.2h48.3l0,0v12.1c0,13.3-10.8,24.1-24.1,24.1S38.9,43.6,38.9,30.2V18.2L38.9,18.2z"/>
	<path fill="#9EBACD" d="M18.2,73.3h3.4l0,0v27.6l0,0h-3.4c-2.9,0-5.2-2.3-5.2-5.2V78.5C13,75.7,15.3,73.3,18.2,73.3z"/>
	<path fill="#9EBACD" d="M107.8,100.9h-3.4l0,0V73.3l0,0h3.4c2.9,0,5.2,2.3,5.2,5.2v17.2C113,98.6,110.7,100.9,107.8,100.9z"/>
	<path fill="#BEDAEE" d="M32,61.3H94c6.7,0,12.1,5.4,12.1,12.1v27.6c0,6.7-5.4,12.1-12.1,12.1H32c-6.7,0-12.1-5.4-12.1-12.1V73.3
		C19.9,66.7,25.3,61.3,32,61.3z"/>
	<path fill="#2A639C" d="M99.2,73.3v27.6c0,2.9-2.3,5.2-5.2,5.2H32c-2.9,0-5.2-2.3-5.2-5.2V73.3c0-2.9,2.3-5.2,5.2-5.2H94
		C96.9,68.2,99.2,70.5,99.2,73.3z"/>
	<g>
		<path fill="#3B77BA" d="M47.5,61.3c1.9,0,3.4,1.5,3.4,3.4c0,1.9-1.5,3.4-3.4,3.4h-8.6c-1.9,0-3.4-1.5-3.4-3.4
			c0-1.9,1.5-3.4,3.4-3.4H47.5z"/>
		<path fill="#3B77BA" d="M87.1,61.3c1.9,0,3.4,1.5,3.4,3.4c0,1.9-1.5,3.4-3.4,3.4h-8.6c-1.9,0-3.4-1.5-3.4-3.4
			c0-1.9,1.5-3.4,3.4-3.4H87.1z"/>
		<path fill="#3B77BA" d="M47.5,106.1c1.9,0,3.4,1.5,3.4,3.4c0,1.9-1.5,3.4-3.4,3.4h-8.6c-1.9,0-3.4-1.5-3.4-3.4
			c0-1.9,1.5-3.4,3.4-3.4H47.5z"/>
		<path fill="#3B77BA" d="M87.1,106.1c1.9,0,3.4,1.5,3.4,3.4c0,1.9-1.5,3.4-3.4,3.4h-8.6c-1.9,0-3.4-1.5-3.4-3.4
			c0-1.9,1.5-3.4,3.4-3.4H87.1z"/>
	</g>
	<path fill="#E2C74C" d="M38.9,13h48.3c1.9,0,3.4,1.5,3.4,3.4l0,0c0,1.9-1.5,3.4-3.4,3.4H38.9c-1.9,0-3.4-1.5-3.4-3.4l0,0
		C35.4,14.5,37,13,38.9,13z"/>
	<path fill="#E2C74C" d="M64.5,27.7l1.2,2.6l2.8,0.4c0.9,0.2,1.5,1.1,1.4,2c-0.1,0.3-0.2,0.6-0.5,0.9l-2,2l0.5,2.9
		c0.2,0.9-0.4,1.8-1.3,1.9c-0.4,0.1-0.7,0-1.1-0.2L63,39l-2.5,1.4c-0.8,0.4-1.8,0.1-2.2-0.7c-0.2-0.3-0.2-0.7-0.2-1.1l0.5-2.9l-2-2
		c-0.7-0.7-0.7-1.8,0-2.4c0.2-0.2,0.6-0.4,0.9-0.5l2.8-0.4l1.2-2.6c0.4-0.8,1.3-1.2,2.1-0.8C64,27.1,64.3,27.4,64.5,27.7L64.5,27.7z
		"/>
	<path fill="#5D89C6" d="M61.9,76.9c-0.9-0.3-1.9,0.1-2.2,1c0,0,0,0,0,0l-5.3,14.3l-5.2-14.3c-0.4-0.9-1.4-1.3-2.2-0.9
		c-0.8,0.3-1.3,1.3-1,2.1l5.2,14.3c0.7,1.8,2.7,2.8,4.5,2.1c1-0.4,1.8-1.1,2.1-2.1l5.2-14.3C63.2,78.2,62.8,77.2,61.9,76.9
		C61.9,76.9,61.9,76.9,61.9,76.9z"/>
	<path fill="#5D89C6" d="M78.5,82.8c0-3.3-2.7-6-6-6h-2.6c-1.9,0-3.4,1.5-3.4,3.4V94c0,1,0.8,1.7,1.7,1.7c1,0,1.7-0.8,1.7-1.7v-5.2
		h1.7c1,0,1.7,0.8,1.7,1.7V94c0,1,0.8,1.7,1.7,1.7c1,0,1.7-0.8,1.7-1.7v-3.4c0-1-0.3-2-0.9-2.8C77.6,86.6,78.5,84.8,78.5,82.8z
		 M69.9,80.2h2.6c1.4,0,2.6,1.2,2.6,2.6s-1.2,2.6-2.6,2.6h-2.6V80.2z"/>
</g>
</svg>
