<?xml version="1.0" encoding="utf-8"?>
<!-- Generator: Adobe Illustrator 24.3.0, SVG Export Plug-In . SVG Version: 6.00 Build 0)  -->
<svg version="1.1" id="Layer_1" xmlns="http://www.w3.org/2000/svg" xmlns:xlink="http://www.w3.org/1999/xlink" x="0px" y="0px"
	 viewBox="0 0 126 126" enable-background="new 0 0 126 126" xml:space="preserve">
<g>
	<path fill="#D2B928" d="M56,66.8c4,4-0.4,14.8-9.8,24.2S26,104.7,22,100.8c9.4,9.4,24.6,9.4,34,0C65.3,91.4,65.3,76.2,56,66.8z"/>
	<path fill="#ECE39B" d="M31.8,76.6C41.2,67.2,52,62.8,56,66.8c-9.4-9.4-24.6-9.4-34,0s-9.4,24.6,0,34C18,96.8,22.4,86,31.8,76.6z"
		/>
	<ellipse transform="matrix(0.7071 -0.7071 0.7071 0.7071 -47.82 52.0919)" fill="#EDDF45" cx="39" cy="83.8" rx="24" ry="10.2"/>
	<path fill="#EF8072" d="M38.5,89.1c-0.4-1-5.5-7.5-4.1-13.3l4.6-16l-6.6,13.1c-2.2,4.5-1.4,9.8,2.2,13.4c2.7,2.7,3.9,6.6,3.2,10.4
		l-2.2,10.9c0,0,0.1,0,0.1,0c0,0,1.3-3,2.6-5.8C40,97.7,40.1,93.2,38.5,89.1L38.5,89.1z"/>
	<path fill="#E6393C" d="M42.5,80.5l-0.2-0.2c-2.2-2.2-3.4-5.1-3.4-8.2l0-12.4l-2.3,10.7c-0.6,2.8-0.4,5.7,0.7,8.4
		c1.8,4.3,4.8,7.9,4.4,14.6c-0.1,0.9-0.4,2.3-0.8,3.1l-5.3,11l8.3-12.5C47,90.5,46.4,84.4,42.5,80.5L42.5,80.5z"/>
	<path fill="#E95947" d="M41.8,93.4c0.4-6.7-2.6-10.2-4.4-14.6c-1.1-2.7-1.3-5.6-0.7-8.4L39,59.8l-4.6,16C33,81.5,38.2,88,38.5,89.1
		c1.5,4.1,1.4,8.7-0.4,12.7c-1.2,2.8-2.6,5.8-2.6,5.8l5.3-11C41.3,95.7,41.7,94.3,41.8,93.4L41.8,93.4z"/>
	<path fill="#263267" d="M35.6,109.3c-0.1,0-0.2,0-0.2,0l-0.1,0c-0.5-0.1-0.9-0.3-1.2-0.7c-0.3-0.4-0.4-0.9-0.3-1.3L36,96.4
		c0.6-3.2-0.4-6.6-2.7-8.9c-4-4-5-10.2-2.5-15.3L37.5,59c0.4-0.7,1.2-1.1,1.9-0.9c0.8,0.2,1.3,0.9,1.3,1.7l0,12.4c0,2.6,1,5.2,2.9,7
		l0.2,0.2c4.5,4.5,5.2,11.5,1.7,16.7l-8.3,12.5C36.7,109,36.2,109.3,35.6,109.3L35.6,109.3z M37.3,67l-3.3,6.6
		C32,77.5,32.8,82,35.8,85c3.1,3.1,4.5,7.6,3.6,12l-0.5,2.6l3.6-5.5c2.6-3.9,2.1-9.1-1.2-12.4l-0.2-0.2c-2.5-2.5-3.9-5.9-3.9-9.4
		L37.3,67z M32.4,72.9L32.4,72.9L32.4,72.9z"/>
	<path fill="#263267" d="M39,109.5c-14.2,0-25.7-11.5-25.7-25.7C13.3,69.6,24.8,58,39,58s25.7,11.5,25.7,25.7
		C64.7,98,53.2,109.5,39,109.5z M39,61.5c-12.3,0-22.3,10-22.3,22.3s10,22.3,22.3,22.3s22.3-10,22.3-22.3
		C61.3,71.5,51.3,61.5,39,61.5z"/>
	<path fill="#4A67AE" d="M104,66.8c4,4-0.4,14.8-9.8,24.2S74,104.7,70,100.8c9.4,9.4,24.6,9.4,34,0C113.4,91.4,113.4,76.2,104,66.8z
		"/>
	<path fill="#88A8D8" d="M79.8,76.6c9.4-9.4,20.2-13.8,24.2-9.8c-9.4-9.4-24.6-9.4-34,0s-9.4,24.6,0,34C66.1,96.8,70.4,86,79.8,76.6
		z"/>
	<ellipse transform="matrix(0.7071 -0.7071 0.7071 0.7071 -33.758 86.0507)" fill="#6186C4" cx="87" cy="83.8" rx="24" ry="10.2"/>
	<path fill="#A4D09F" d="M86.6,89.1c-0.4-1-5.5-7.5-4.1-13.3l4.6-16l-6.6,13.1c-2.2,4.5-1.4,9.8,2.2,13.4c2.7,2.7,3.9,6.6,3.2,10.4
		l-2.2,10.9c0,0,0.1,0,0.1,0c0,0,1.3-3,2.6-5.8C88,97.7,88.1,93.2,86.6,89.1L86.6,89.1z"/>
	<path fill="#409A46" d="M90.5,80.5l-0.2-0.2c-2.2-2.2-3.4-5.1-3.4-8.2l0-12.4l-2.3,10.7c-0.6,2.8-0.4,5.7,0.7,8.4
		c1.8,4.3,4.8,7.9,4.4,14.6c-0.1,0.9-0.4,2.3-0.8,3.1l-5.3,11L92,95.1C95,90.5,94.4,84.4,90.5,80.5L90.5,80.5z"/>
	<path fill="#69B44B" d="M89.8,93.4c0.4-6.7-2.6-10.2-4.4-14.6c-1.1-2.7-1.3-5.6-0.7-8.4L87,59.8l-4.6,16C81,81.5,86.2,88,86.6,89.1
		c1.5,4.1,1.4,8.7-0.4,12.7c-1.2,2.8-2.6,5.8-2.6,5.8l5.3-11C89.4,95.7,89.7,94.3,89.8,93.4L89.8,93.4z"/>
	<path fill="#263267" d="M83.7,109.3c-0.1,0-0.2,0-0.2,0l-0.1,0c-0.5-0.1-0.9-0.3-1.2-0.7c-0.3-0.4-0.4-0.9-0.3-1.3l2.2-10.9
		c0.6-3.2-0.4-6.6-2.7-8.9c-4-4-5-10.2-2.5-15.3L85.5,59c0.4-0.7,1.2-1.1,1.9-0.9c0.8,0.2,1.3,0.9,1.3,1.7l0,12.4c0,2.6,1,5.2,2.9,7
		l0.2,0.2c4.5,4.5,5.2,11.5,1.7,16.7l-8.3,12.5C84.8,109,84.2,109.3,83.7,109.3L83.7,109.3z M85.3,67L82,73.7
		c-1.9,3.8-1.2,8.4,1.8,11.4c3.1,3.1,4.5,7.6,3.6,12l-0.5,2.6l3.6-5.5c2.6-3.9,2.1-9.1-1.2-12.4l-0.2-0.2c-2.5-2.5-3.9-5.9-3.9-9.4
		L85.3,67z M80.4,72.9L80.4,72.9L80.4,72.9z"/>
	<path fill="#263267" d="M87,109.5c-14.2,0-25.7-11.5-25.7-25.7C61.3,69.6,72.8,58,87,58s25.7,11.5,25.7,25.7
		C112.7,98,101.2,109.5,87,109.5z M87,61.5c-12.3,0-22.3,10-22.3,22.3s10,22.3,22.3,22.3s22.3-10,22.3-22.3
		C109.3,71.5,99.3,61.5,87,61.5z"/>
	<path fill="#409A46" d="M80,25.2c4,4-0.4,14.8-9.8,24.2S50,63.2,46,59.2c9.4,9.4,24.6,9.4,34,0C89.4,49.8,89.4,34.6,80,25.2
		L80,25.2z"/>
	<path fill="#A4D09F" d="M55.8,35C65.2,25.7,76,21.3,80,25.2c-9.4-9.4-24.6-9.4-34,0s-9.4,24.6,0,34C42,55.2,46.4,44.4,55.8,35
		L55.8,35z"/>
	<ellipse transform="matrix(0.7071 -0.7071 0.7071 0.7071 -11.4109 56.9061)" fill="#69B44B" cx="63" cy="42.2" rx="24" ry="10.2"/>
	<path fill="#ECE39B" d="M62.6,47.5c-0.4-1-5.5-7.5-4.1-13.3l4.6-16l-6.6,13.1c-2.2,4.5-1.4,9.8,2.2,13.4c2.7,2.7,3.9,6.6,3.2,10.4
		L59.6,66c0,0,0.1,0,0.1,0c0,0,1.3-3,2.6-5.8C64,56.2,64.1,51.6,62.6,47.5L62.6,47.5z"/>
	<path fill="#D2B928" d="M66.5,38.9l-0.2-0.2c-2.2-2.2-3.4-5.1-3.4-8.2l0-12.4l-2.3,10.7c-0.6,2.8-0.4,5.7,0.7,8.4
		c1.8,4.3,4.8,7.9,4.4,14.6c-0.1,0.9-0.4,2.3-0.8,3.1l-5.3,11L68,53.5C71,48.9,70.4,42.8,66.5,38.9L66.5,38.9z"/>
	<path fill="#EDDF45" d="M65.8,51.8c0.4-6.7-2.6-10.2-4.4-14.6c-1.1-2.7-1.3-5.6-0.7-8.4L63,18.2l-4.6,16C57,40,62.2,46.5,62.6,47.5
		c1.5,4.1,1.4,8.7-0.4,12.7C61,63,59.6,66,59.7,66L65,55C65.4,54.2,65.7,52.8,65.8,51.8L65.8,51.8z"/>
	<g>
		<path fill="#263267" d="M59.7,67.7c-0.1,0-0.2,0-0.2,0l-0.1,0c-0.5-0.1-0.9-0.3-1.2-0.7c-0.3-0.4-0.4-0.9-0.3-1.3l2.2-10.9
			c0.6-3.2-0.4-6.6-2.7-8.9c-4-4-5-10.2-2.5-15.3l6.6-13.1c0.4-0.7,1.2-1.1,1.9-0.9c0.8,0.2,1.3,0.9,1.3,1.7l0,12.4
			c0,2.6,1,5.2,2.9,7l0.2,0.2c4.5,4.5,5.2,11.5,1.7,16.7L61.1,67C60.8,67.4,60.2,67.7,59.7,67.7L59.7,67.7z M57.9,32.1
			c-1.9,3.8-1.2,8.4,1.8,11.4c3.1,3.1,4.5,7.6,3.6,12L62.9,58l3.6-5.5c2.6-3.9,2.1-9.1-1.2-12.4L65.1,40c-2.5-2.5-3.9-5.9-3.9-9.4
			l0-5.1L57.9,32.1z"/>
		<path fill="#263267" d="M63,68c-14.2,0-25.7-11.5-25.7-25.7C37.3,28,48.8,16.5,63,16.5S88.7,28,88.7,42.2C88.7,56.4,77.2,68,63,68
			z M63,19.9c-12.3,0-22.3,10-22.3,22.3c0,12.3,10,22.3,22.3,22.3s22.3-10,22.3-22.3C85.3,29.9,75.3,19.9,63,19.9z"/>
	</g>
</g>
</svg>
