<?xml version="1.0" encoding="utf-8"?>
<!-- Generator: Adobe Illustrator 24.3.0, SVG Export Plug-In . SVG Version: 6.00 Build 0)  -->
<svg version="1.1" id="Layer_1" xmlns="http://www.w3.org/2000/svg" xmlns:xlink="http://www.w3.org/1999/xlink" x="0px" y="0px"
	 viewBox="0 0 126 126" enable-background="new 0 0 126 126" xml:space="preserve">
<g>
	<path fill="#E95947" d="M67.3,40.6C67.4,40.7,67.1,40.6,67.3,40.6L67.3,40.6z"/>
	<path fill="#E95947" d="M111.9,67.7L87.8,55.1c-0.6-2.7-2.1-6.2-5.7-9.1c-3.6-2.9-8.5-4.7-14.8-5.4l-47.7-5.1
		c-1.1-0.1-2.1,0.6-2.3,1.7c0,0.1-0.6,3.4,0.6,7.3c0.5,1.7,1.4,3.6,3,5.6l-6.2,1.7c-1.1,0.3-1.8,1.4-1.5,2.5c0,0.1,0.7,3.3,3.4,6.4
		c1.8,2.2,4.9,4.6,9.8,5.7c-4.4,9.7-5.9,18.3-6,18.7c-0.1,0.6,0.1,1.2,0.4,1.6c0.4,0.5,0.9,0.8,1.5,0.8L50,90.5c0.1,0,0.1,0,0.2,0
		c1,0,1.8-0.7,2.1-1.6c1.4-5.6,4.2-13,11.4-13c3.7,0,7.9,1.9,11.6,3.6c5.2,2.5,10.2,3.8,14.8,3.8c8.5,0,13.4-4.3,15.2-6.2
		c6.3-0.3,7.8-5.4,7.9-7.4C113,68.8,112.6,68.1,111.9,67.7z M80.9,58.9c-0.5,0.5-1.2,0.9-1.9,0.9c0,0-0.1,0-0.1,0
		c-1.5,0-2.7-1.2-2.8-2.6c-0.1-1.5,1.1-2.8,2.6-2.9c0,0,0.1,0,0.1,0c1.5,0,2.7,1.2,2.8,2.6C81.7,57.7,81.4,58.4,80.9,58.9z"/>
</g>
</svg>
