<?xml version="1.0" encoding="utf-8"?>
<!-- Generator: Adobe Illustrator 24.3.0, SVG Export Plug-In . SVG Version: 6.00 Build 0)  -->
<svg version="1.1" id="Layer_1" xmlns="http://www.w3.org/2000/svg" xmlns:xlink="http://www.w3.org/1999/xlink" x="0px" y="0px"
	 viewBox="0 0 126 126" enable-background="new 0 0 126 126" xml:space="preserve">
<g>
	<g id="design_2_">
		<g id="Layer_2_1_">
			
				<radialGradient id="SVGID_1_" cx="56.7641" cy="1206.6545" r="77.22" gradientTransform="matrix(0.98 0 0 0.98 -0.13 -1134.45)" gradientUnits="userSpaceOnUse">
				<stop  offset="0" style="stop-color:#FFFFFF"/>
				<stop  offset="0.43" style="stop-color:#D6D5DF"/>
				<stop  offset="0.5" style="stop-color:#C8C8D1"/>
				<stop  offset="0.62" style="stop-color:#A2A2AA"/>
				<stop  offset="0.65" style="stop-color:#999AA2"/>
				<stop  offset="0.89" style="stop-color:#D0CFD0"/>
			</radialGradient>
			<circle fill="url(#SVGID_1_)" cx="63" cy="63" r="50"/>
			<path fill="#5D5D5D" d="M93,68.6c-15.6,5.9-32.2,6.8-37,6.9c0.5-9.9,1.5-18.6,1.8-21c3.1-1.4,17-7.6,27-10.5
				c5.8-1.8,11.9-2.6,18-2.3c3.2,0.5,6,2.5,7.5,5.3c-0.5-1.5-1-2.9-1.7-4.3c-1.5-1.6-3.5-2.7-5.7-3.1c-1-2.2-4.7-8.9-13.7-16.5
				c-6.1-5.5-13.8-8.9-22-9.8C65.9,13.1,64.4,13,63,13h-0.6c9.3,0.8,18.1,4.6,25.2,10.8c5.1,4.3,9.5,9.4,12.8,15.2
				c-5.3-0.5-11.5,1-16.2,2.4c-1.2,0.3-2.5,0.8-3.8,1.2c-1.7-2.2-8.2-9.8-21-18.2C50.6,18.6,44.7,17.6,41,18c-0.7,0.3-1.3,0.6-2,1
				c2.6-0.4,8.9,0.9,18.8,7.5c7.3,4.8,14,10.5,19.8,17c-9,3.2-18.6,7.5-21,8.6C47,46.8,37.8,40.9,28.9,34.3c-1.5-1.1-3-2.1-4.6-3
				c-0.4,0.4-0.7,0.9-1,1.4c0.3,0.3,0.8,0.8,1.6,1.5c-2.1,3.1-9.1,15.1-8.9,33.1c0.1,6.9,2.1,17.3,5.7,23.7c0.8,1.1,1.5,2.2,2.4,3.2
				l-1-2.7c-11.2-29.5,0.6-51.5,3.3-56c0.4,0.3,0.8,0.7,1.3,1c2.2,1.7,5,3.7,8.3,5.9c-1.5,3.5-6.1,15.9-6.5,34.9
				c-0.4,18.2,4.9,26,10.8,30.1c1.4,0.7,2.8,1.4,4.2,2c-6.2-3.5-12.9-12.1-12.5-32c0.3-17.6,4.6-29.6,6.1-33.5
				c5,3.3,10.8,6.9,17.1,10.3c-1.4,12.4-2,24.9-2,37.4c0.1,7,0.6,19.1,8.2,21.2c0.5,0,1.1,0.1,1.6,0.1h1.8c-3.9-0.2-6.7-4-8-11.3
				c1.8,0.2,4.8,0.4,8.7,0.4c11.8,0,30.2-2.4,40.1-12.8c0.6-0.9,1.2-1.9,1.7-2.9c-17.1,14.9-44.5,13.6-50.8,13
				c-0.3-2.3-0.5-4.8-0.6-7.7c-0.2-4.4-0.1-9.1,0.1-13.6c4.8-0.1,22-0.9,38-7.1c14.7-5.6,17.6-6.1,18.9-5.6c0-0.5,0.1-1,0.1-1.6
				C110.8,63.1,106.4,63.5,93,68.6z"/>
			<circle fill="none" cx="63" cy="63.2" r="49.7"/>
			<defs>
				<filter id="Adobe_OpacityMaskFilter" filterUnits="userSpaceOnUse" x="23.3" y="17.9" width="79.9" height="51.8">
					<feColorMatrix  type="matrix" values="1 0 0 0 0  0 1 0 0 0  0 0 1 0 0  0 0 0 1 0"/>
				</filter>
			</defs>
			<mask maskUnits="userSpaceOnUse" x="23.3" y="17.9" width="79.9" height="51.8" id="mask_2_">
				<g filter="url(#Adobe_OpacityMaskFilter)">
				</g>
			</mask>
			<g mask="url(#mask_2_)">
				
					<linearGradient id="SVGID_2_" gradientUnits="userSpaceOnUse" x1="63.255" y1="133.74" x2="63.255" y2="53.04" gradientTransform="matrix(1 0 0 -1 0 128)">
					<stop  offset="0" style="stop-color:#FFFFFF;stop-opacity:0.4"/>
					<stop  offset="1.000000e-02" style="stop-color:#FFFFFF;stop-opacity:0.39"/>
					<stop  offset="0.32" style="stop-color:#FFFFFF;stop-opacity:0.22"/>
					<stop  offset="0.6" style="stop-color:#FFFFFF;stop-opacity:0.1"/>
					<stop  offset="0.84" style="stop-color:#FFFFFF;stop-opacity:3.000000e-02"/>
					<stop  offset="1" style="stop-color:#FFFFFF;stop-opacity:0"/>
				</linearGradient>
				<path fill="url(#SVGID_2_)" d="M63.3,17.9c-22,0-39.9,15.7-39.9,35l0,0c0.1,3,1.8,5.8,4.5,7.3c10.7,6.3,23,9.6,35.5,9.5
					c12.5,0.1,24.7-3.2,35.4-9.5c2.6-1.4,4.3-4.2,4.5-7.2l0,0C103.2,33.6,85.3,17.9,63.3,17.9z"/>
			</g>
			<path opacity="0.2" fill="#868686" enable-background="new    " d="M112.2,62.6c0,2.2-0.1,4.4-0.4,6.6c0,0.4-0.1,0.7-0.2,1
				c-1.1,6.9-3.6,13.6-7.4,19.5c-0.2,0.3-0.4,0.7-0.7,1c-4.4,6.4-10.2,11.7-17,15.4l0,0l-1.5,0.8c-7,3.6-14.7,5.4-22.6,5.4
				c-0.7,0-1.4,0-2,0c-1.7-0.1-3.3-0.2-5-0.4l0,0c-9.3-1.3-18-5.3-25.1-11.4c-0.5-0.4-1-0.9-1.5-1.4c-2.2-2-4.1-4.1-5.9-6.5
				c-0.3-0.4-0.5-0.7-0.8-1.1c-2.6-3.7-4.8-7.7-6.3-11.9c3.2,1.2,6.6,2,10,2.5l0,0c1.7,0.3,3.3,0.4,5,0.5c0.7,0,1.4,0.1,2,0.1
				c7.9,0,15.6-1.8,22.6-5.4l1.5-0.8l0,0c6.8-3.8,12.6-9.1,17-15.5c0.2-0.3,0.4-0.6,0.7-1c3.8-5.9,6.4-12.5,7.4-19.4
				c0.1-0.3,0.1-0.7,0.2-1c0.3-2.2,0.4-4.4,0.4-6.6c0-5.8-1-11.6-3-17.1C99.1,23.1,112.2,41.8,112.2,62.6z"/>
			<path opacity="0.2" fill="#868686" enable-background="new    " d="M112.2,62.6c0,2.2-0.1,4.4-0.4,6.6c0,0.4-0.1,0.7-0.2,1
				c-1.1,6.9-3.6,13.6-7.4,19.5c-0.2,0.3-0.4,0.7-0.7,1c-4.4,6.4-10.2,11.7-17,15.4l0,0l-1.5,0.8c-7,3.6-14.7,5.4-22.6,5.4
				c-0.7,0-1.4,0-2,0c-1.7-0.1-3.3-0.2-5-0.4l0,0c-9.3-1.3-18-5.3-25.1-11.4c-0.5-0.4-1-0.9-1.5-1.4c-2.1-2-4.1-4.1-5.9-6.4
				c6.7,5.1,14.6,8.4,22.9,9.6l0,0c1.7,0.2,3.3,0.4,5,0.5c0.7,0,1.4,0.1,2,0.1c7.9,0,15.6-1.8,22.6-5.4l1.5-0.8l0,0
				c6.8-3.8,12.6-9,17-15.4l0.7-1c3.8-5.9,6.3-12.5,7.3-19.4c0.1-0.3,0.1-0.7,0.2-1c1.7-13-1.7-26.2-9.7-36.7
				C104.9,32.4,112.2,47.1,112.2,62.6z"/>
		</g>
	</g>
</g>
</svg>
