<?xml version="1.0" encoding="utf-8"?>
<!-- Generator: Adobe Illustrator 24.3.0, SVG Export Plug-In . SVG Version: 6.00 Build 0)  -->
<svg version="1.1" id="Layer_1" xmlns="http://www.w3.org/2000/svg" xmlns:xlink="http://www.w3.org/1999/xlink" x="0px" y="0px"
	 viewBox="0 0 126 126" enable-background="new 0 0 126 126" xml:space="preserve">
<g id="flat">
	<path fill="#FFD681" d="M42.3,50.9l-5.2,17.2V82h24.1V57.8h19v-6.9H42.3z"/>
	<path fill="#FFD681" d="M37.1,13h20.7v31H37.1V13z"/>
	<path fill="#E33E5C" d="M45.8,44v3.4l3.4,6.9h6.9l3.4-6.9V44c0-3.8-3.1-6.9-6.9-6.9C48.8,37.1,45.8,40.2,45.8,44z"/>
	<path fill="#E33E5C" d="M90.6,47.5h-3.4l-6.9,3.4v6.9l6.9,3.4h3.4c3.8,0,6.9-3.1,6.9-6.9S94.4,47.5,90.6,47.5z"/>
	<path fill="#F8BA4C" d="M49.2,54.4l-1.7,6.9H44l-1.7-10.3h-3.4c-3.3,0-4.1,2-3.4,5.2l1.7,12.1h15.5l3.4-13.8H49.2z"/>
	<path fill="#163441" d="M68.2,99.2L61.3,82H37.1l-6.9,17.2h15.5l3.4-10.3l3.4,10.3H68.2z"/>
	<path fill="#FFD681" d="M38.9,113H28.5l5.2-13.8H44L38.9,113z"/>
	<path fill="#FFD681" d="M59.6,113h10.3l-5.2-13.8H54.4L59.6,113z"/>
	<path fill="#394D5C" d="M37.1,75.1h24.1V82H37.1V75.1z"/>
	<path fill="#394D5C" d="M37.1,13h20.7v10.3H37.1V13z"/>
	<path fill="#A9BDCD" d="M37.1,23.3h20.7c3.8,0,6.9,3.1,6.9,6.9l0,0c0,3.8-3.1,6.9-6.9,6.9H37.1c-3.8,0-6.9-3.1-6.9-6.9l0,0
		C30.2,26.4,33.3,23.3,37.1,23.3z"/>
	<path fill="#F3F3E5" d="M44,28.5h6.9V32H44V28.5z"/>
</g>
</svg>
