<?xml version="1.0" encoding="utf-8"?>
<!-- Generator: Adobe Illustrator 24.3.0, SVG Export Plug-In . SVG Version: 6.00 Build 0)  -->
<svg version="1.1" id="Layer_1" xmlns="http://www.w3.org/2000/svg" xmlns:xlink="http://www.w3.org/1999/xlink" x="0px" y="0px"
	 viewBox="0 0 126 126" enable-background="new 0 0 126 126" xml:space="preserve">
<g>
	<g transform="translate(29.75 53.5)">
		
			<linearGradient id="SVGID_1_" gradientUnits="userSpaceOnUse" x1="-2274.9509" y1="-305.6406" x2="-2274.0906" y2="-303.9766" gradientTransform="matrix(52.6316 0 0 52.6316 119742.0312 16044.4268)">
			<stop  offset="0" style="stop-color:#5B789E"/>
			<stop  offset="0.399" style="stop-color:#2D3B50"/>
			<stop  offset="1" style="stop-color:#0C0D13"/>
		</linearGradient>
		<path fill="url(#SVGID_1_)" d="M76.4,9.3c0,23.9-18.8,43.3-42.1,43.3C11,52.7-7.8,33.3-7.9,9.4v0C-7.9-14.6,11-34,34.3-34
			S76.4-14.6,76.4,9.3L76.4,9.3z"/>
		
			<linearGradient id="SVGID_2_" gradientUnits="userSpaceOnUse" x1="-2304.5952" y1="-357.4933" x2="-2304.3357" y2="-356.9247" gradientTransform="matrix(52.6316 0 0 52.6316 121318.6172 18792.6367)">
			<stop  offset="0" style="stop-color:#000000;stop-opacity:0"/>
			<stop  offset="1" style="stop-color:#000000;stop-opacity:0.621"/>
		</linearGradient>
		<path fill="url(#SVGID_2_)" d="M38.4-33.4l-16.9,1.1c-0.4,0-0.7,0.1-1.1,0.3L5.7-22.5c-1,0.6-1.4,2-0.7,3.1
			c0.2,0.3,0.4,0.5,0.7,0.7c1.9,1.3,3.9,2.8,4.4,4.2c1.2,3.1,2.5,7.6,3.6,11.5c0.5,1.7,1,3.5,1.6,5.2c0.2,0.7,0.4,1.4,0.7,1.9
			c0.2,0.5,0.4,1,0.9,1.6c0.1,0.1,0.2,0.1,0.3,0.2c1,0.8,2,1.3,3.3,1.6s2.7,0.7,4.1,0.9c1.4,0.2,2.7,0.3,3.9,0.3s2,0.3,3.4-0.6
			c0.1,0,0.1-0.1,0.2-0.1c0.6-0.5,0.7-0.8,0.8-1.1c0.1-0.3,0.2-0.5,0.3-0.7c0.2-0.5,0.3-1.1,0.5-1.8c0.8-3.3,1.4-6.7,1.8-10.1
			c0.2-1.5,0.3-2.5,0-3.8c0-0.1,0-0.1,0-0.2h-0.1c-0.3-1.6-1.2-4-2.7-6.7c-1.3-2.4-3.1-4.5-5.3-6.1c0.1-0.1,0.2-0.2,0.7-0.4l8.2,0.1
			c0.2,0,0.5,0,0.7-0.1c0.2-0.1,0.4,0.1,1.4-0.4c0.5-0.2,1.1-0.8,1.4-1.3c0.3-0.6,0.4-1,0.5-1.5l0.5-4.8c0.2-1.2-0.7-2.3-1.9-2.5
			C38.7-33.4,38.5-33.4,38.4-33.4L38.4-33.4z"/>
		
			<radialGradient id="b_1_" cx="-2600.5938" cy="-450.8847" r="0.3004" gradientTransform="matrix(197.0789 -40.0684 20.8421 102.5105 521937.0312 -58005.7852)" gradientUnits="userSpaceOnUse">
			<stop  offset="0" style="stop-color:#E5F0FA"/>
			<stop  offset="0" style="stop-color:#BED8F2"/>
			<stop  offset="6.500000e-02" style="stop-color:#BED8F2"/>
			<stop  offset="1" style="stop-color:#1B3556;stop-opacity:0.101"/>
		</radialGradient>
		<path id="b" fill="url(#b_1_)" d="M38.5-31.1L38-26.3c-0.1,1.4-0.7,1-1.7,1.4l-8.7,0c-2.6,0.8-2.8,2.2-2.7,3.3
			C29.8-19,32.8-11.3,33.3-9c0.6,2.2-1.8,14.6-2.6,15.3c-1.4,0.9-10-0.4-12.1-2.1c-1.2-1.3-3.9-13-6.3-19.5c-0.9-2.3-3.3-4-5.3-5.3
			l14.8-9.5L38.5-31.1z"/>
		
			<linearGradient id="SVGID_3_" gradientUnits="userSpaceOnUse" x1="-2305.2778" y1="-357.5524" x2="-2304.8281" y2="-356.5812" gradientTransform="matrix(52.6316 0 0 52.6316 121318.6172 18792.6367)">
			<stop  offset="0" style="stop-color:#000000;stop-opacity:0"/>
			<stop  offset="1" style="stop-color:#000000;stop-opacity:0.621"/>
		</linearGradient>
		<path fill="url(#SVGID_3_)" d="M-3.6-6.7C-4.4-6.6-5.1-6-5.3-5.3l-5.1,17.3c-0.2,0.8,0.1,1.7,0.8,2.2c1.9,1.3,4,2.8,4.5,4.3
			c0.1,0.1,0.1,0.2,0.2,0.3c0,0.1,0,0.1,0.1,0.2c0.1,0.4,0.2,1.1,0.3,1.8c0.3,1.5,0.6,3.6,1.1,5.8s1.1,4.4,2,6.3s2.1,3.7,4.2,4.4
			c-0.5-0.2-0.1,0,0.2,0.2c0.3,0.2,0.7,0.4,1.1,0.7c0.9,0.6,2.1,1.4,3.3,2.2c1.2,0.8,2.4,1.6,3.4,2.2c0.5,0.3,0.9,0.5,1.3,0.7
			c0.2,0.1,0.4,0.2,0.6,0.3c0.2,0.1,0.4,0.3,1.3,0.1c1-0.2,1.4-0.8,1.5-1.1c0.2-0.3,0.2-0.5,0.3-0.7c0.1-0.4,0.3-0.8,0.3-1.3
			c0.2-1,0.3-2.1,0.4-3.3s0.3-2.3,0.4-3.1C17,34.1,17,34,17,33.9c0.1-0.1,0.4-0.1,0.5-0.3c0.4-0.6,0.5-1.2,0.5-1.7
			c0-1-0.3-1.7-0.7-2.5c-0.8-1.6-2-3.5-3.4-5.5c-2.7-3.8-5.8-7.6-7.2-9.1c-0.1-0.4-0.2-0.8-0.3-1.2c-0.2-0.5-0.4-1.1-0.5-1.6
			c2.9,1.2,5.9,2.4,9.3,2.8c0.2,0,0.4,0,0.6-0.1c1-0.2,2.1-0.5,3-0.9c0.6-0.3,1.2-0.5,1.7-1c0.5-0.5,1.1-1.2,1.3-2.2
			c0.1-0.5-0.1-0.9-0.3-1.3c-3.7-5.6-9.1-7-14.8-9.1l-3.2-4C3.1-4,2.9-4.2,2.6-4.3l-5.2-2.2C-2.9-6.7-3.2-6.7-3.6-6.7L-3.6-6.7z"/>
		
			<radialGradient id="e_1_" cx="-2597.9666" cy="-457.8252" r="0.3004" gradientTransform="matrix(197.0789 -40.0684 20.8421 102.5105 521553.8125 -57176.6758)" gradientUnits="userSpaceOnUse">
			<stop  offset="0" style="stop-color:#E5F0FA"/>
			<stop  offset="0" style="stop-color:#BED8F2"/>
			<stop  offset="6.500000e-02" style="stop-color:#BED8F2"/>
			<stop  offset="1" style="stop-color:#1B3556;stop-opacity:0.101"/>
		</radialGradient>
		<path id="e" fill="url(#e_1_)" d="M5.4,1.9c5.9,2.2,10.8,3.3,14.3,8.5c-0.1,1.4-3.1,2.3-4.3,2.5c-3.6-0.4-6.9-1.7-10.2-3.2
			c-3.2-0.7-0.4,5-0.2,6.1c2.3,2.5,13.7,16.5,10.6,16.9c-0.8,0.1-1.1,9.3-1.8,9.4c-0.7,0.1-9.4-6.2-10.2-6.4
			c-5-1.7-5.8-17.3-6.7-17.8c-0.9-2.3-3.3-4-5.3-5.3l5.1-17.3l5.2,2.2L5.4,1.9L5.4,1.9z"/>
	</g>
	<path fill-opacity="0.318" d="M105.9,40.1l-0.1-14.6c0-1.4-1.1-2.6-2.6-2.6c0,0,0,0-0.1,0l-13.4-0.1c-1.4,0-2.6,1.2-2.6,2.6
		c0,0.7,0.3,1.3,0.7,1.8l13.4,14.8c0.7,0.8,1.9,1.1,2.9,0.7C105.2,42.2,105.9,41.2,105.9,40.1L105.9,40.1z"/>
	<path fill-opacity="0.318" d="M105,40.1l-0.1-14.6c0-0.9-0.8-1.7-1.7-1.7l-13.4-0.1c-1,0-1.7,0.8-1.8,1.7c0,0.4,0.2,0.8,0.4,1.2
		L102,41.3c0.7,0.7,1.8,0.8,2.5,0.1C104.8,41.1,105,40.6,105,40.1L105,40.1z"/>
	<path fill-opacity="0.318" d="M104.4,40.1l-0.1-14.6c0-0.3-0.1-0.6-0.3-0.8c-0.2-0.2-0.5-0.3-0.8-0.3l-13.4-0.1
		c-0.6,0-1.2,0.5-1.2,1.2c0,0.3,0.1,0.6,0.3,0.8l13.4,14.8c0.4,0.5,1.2,0.5,1.6,0.1C104.3,40.8,104.4,40.5,104.4,40.1z"/>
	<path fill-opacity="0.333" d="M103.8,40.1l-0.1-14.6c0-0.1,0-0.1-0.1-0.2c0-0.1-0.1-0.1-0.1-0.2c0,0,0,0-0.1-0.1
		c-0.1,0-0.2-0.1-0.3-0.1c0,0,0,0-0.1-0.1l-13.4-0.1c0,0-0.1,0-0.1,0.1c-0.1,0-0.1,0-0.2,0.1c-0.1,0-0.1,0.1-0.1,0.1
		c0,0.1-0.1,0.1-0.1,0.2c0,0.1,0,0.2,0,0.3c0,0.1,0.1,0.1,0.1,0.2l13.4,14.8c0.1,0.1,0.3,0.2,0.5,0.1c0.1,0,0.2,0,0.3-0.1
		c0,0,0,0,0.1-0.1c0.1-0.1,0.1-0.1,0.1-0.2C103.7,40.3,103.8,40.2,103.8,40.1L103.8,40.1z"/>
	
		<linearGradient id="SVGID_4_" gradientUnits="userSpaceOnUse" x1="-2214.6096" y1="-304.1396" x2="-2214.3582" y2="-303.9165" gradientTransform="matrix(52.6316 0 0 52.6316 116650.9922 16030.3467)">
		<stop  offset="0" style="stop-color:#FCEB97"/>
		<stop  offset="0.353" style="stop-color:#FCEB97"/>
		<stop  offset="0.513" style="stop-color:#FCEB97"/>
		<stop  offset="0.628" style="stop-color:#D9980E"/>
		<stop  offset="1" style="stop-color:#D9980E"/>
	</linearGradient>
	<path fill="url(#SVGID_4_)" d="M90.6,25.6l12.5-0.1L103,39L90.6,25.6L90.6,25.6z"/>
	<path fill-opacity="0.318" d="M90.7,102.2l14.6-0.1c1.4,0,2.6-1.1,2.6-2.6c0,0,0,0,0-0.1l0.1-13.4c0-1.4-1.1-2.6-2.6-2.6
		c-0.7,0-1.3,0.3-1.8,0.7L88.9,97.7c-1.1,1-1.2,2.6-0.2,3.7C89.2,101.9,89.9,102.2,90.7,102.2z"/>
	<path fill-opacity="0.318" d="M90.7,101.3l14.6-0.1c0.9,0,1.7-0.8,1.7-1.7l0.1-13.4c0-1-0.8-1.7-1.7-1.8c-0.4,0-0.8,0.2-1.2,0.4
		L89.5,98.3c-0.7,0.6-0.8,1.7-0.1,2.5C89.7,101.1,90.2,101.3,90.7,101.3L90.7,101.3z"/>
	<path fill-opacity="0.318" d="M90.7,100.7l14.6-0.1c0.6,0,1.2-0.5,1.2-1.2c0,0,0,0,0,0l0.1-13.4c0-0.6-0.5-1.2-1.1-1.2
		c-0.3,0-0.6,0.1-0.8,0.3L89.9,98.7c-0.6,0-1.2,0.5-1.2,1.2s0.5,1.2,1.2,1.2C90.2,101,90.5,100.9,90.7,100.7z"/>
	<path fill-opacity="0.333" d="M90.6,100.1l14.6-0.1c0.1,0,0.1,0,0.2-0.1c0.1,0,0.1-0.1,0.2-0.1c0,0,0,0,0.1-0.1
		c0-0.1,0.1-0.2,0.1-0.3c0,0,0,0,0.1-0.1l0.1-13.4c0,0,0-0.1-0.1-0.1c0-0.1,0-0.1-0.1-0.2c0-0.1-0.1-0.1-0.1-0.1
		c-0.1,0-0.1-0.1-0.2-0.1c-0.1,0-0.2,0-0.3,0c-0.1,0-0.1,0.1-0.2,0.1L90.2,99.1c-0.1,0.1-0.2,0.3-0.1,0.5c0,0.1,0,0.2,0.1,0.3
		c0,0,0,0,0.1,0.1c0.1,0.1,0.1,0.1,0.2,0.1C90.5,100.1,90.5,100.1,90.6,100.1L90.6,100.1z"/>
	
		<linearGradient id="SVGID_5_" gradientUnits="userSpaceOnUse" x1="-2214.5908" y1="-302.607" x2="-2214.3254" y2="-302.8773" gradientTransform="matrix(52.6316 0 0 52.6316 116650.9922 16030.3467)">
		<stop  offset="0" style="stop-color:#FFDB76"/>
		<stop  offset="0.327" style="stop-color:#E38E39"/>
		<stop  offset="0.451" style="stop-color:#C94617"/>
		<stop  offset="0.58" style="stop-color:#FCEB97"/>
		<stop  offset="0.704" style="stop-color:#D9980E"/>
		<stop  offset="1" style="stop-color:#D9980E"/>
	</linearGradient>
	<path fill="url(#SVGID_5_)" d="M105.2,84.4l0,15H90.8L105.2,84.4L105.2,84.4z"/>
	<path fill-opacity="0.318" d="M17.9,84.8L18,99.4c0,1.4,1.1,2.6,2.6,2.6c0,0,0,0,0.1,0l13.4,0.1c1,0,2-0.6,2.4-1.6
		c0.4-1,0.2-2.1-0.5-2.8L22.5,83c-1-1.1-2.6-1.1-3.7-0.2C18.2,83.4,17.9,84.1,17.9,84.8L17.9,84.8z"/>
	<path fill-opacity="0.318" d="M18.9,84.8l0.1,14.6c0,0.9,0.8,1.7,1.7,1.7l13.4,0.1c1,0,1.7-0.8,1.8-1.7c0-0.4-0.2-0.9-0.4-1.2
		L21.9,83.7c-0.5-0.5-1.3-0.7-1.9-0.5C19.3,83.5,18.9,84.1,18.9,84.8L18.9,84.8z"/>
	<path fill-opacity="0.318" d="M19.4,84.8l0.1,14.6c0,0.3,0.1,0.6,0.3,0.8c0.2,0.2,0.5,0.3,0.8,0.3l13.4,0.1c0.6,0,1.2-0.5,1.2-1.1
		c0-0.3-0.1-0.6-0.3-0.8L21.4,84c-0.4-0.5-1.2-0.5-1.6-0.1C19.5,84.1,19.4,84.5,19.4,84.8L19.4,84.8z"/>
	<path fill-opacity="0.333" d="M20,84.8L20,99.4c0,0.1,0,0.1,0.1,0.2c0,0.1,0.1,0.1,0.1,0.2c0,0,0,0,0.1,0.1c0.1,0,0.2,0.1,0.3,0.1
		c0,0,0,0,0.1,0.1l13.4,0.1c0,0,0.1,0,0.1-0.1c0.1,0,0.1,0,0.2-0.1c0.1,0,0.1-0.1,0.1-0.1c0-0.1,0.1-0.1,0.1-0.2c0-0.1,0-0.2,0-0.3
		c0-0.1-0.1-0.1-0.1-0.2L21,84.4c-0.1-0.1-0.3-0.2-0.5-0.1c-0.1,0-0.2,0-0.3,0.1c0,0,0,0-0.1,0.1c-0.1,0.1-0.1,0.1-0.1,0.2
		C20,84.6,20,84.7,20,84.8L20,84.8z"/>
	
		<linearGradient id="SVGID_6_" gradientUnits="userSpaceOnUse" x1="-2215.8132" y1="-302.6555" x2="-2215.9902" y2="-302.8503" gradientTransform="matrix(52.6316 0 0 52.6316 116650.9922 16030.3467)">
		<stop  offset="0" style="stop-color:#FFDB76"/>
		<stop  offset="0.327" style="stop-color:#E38E39"/>
		<stop  offset="0.451" style="stop-color:#C94617"/>
		<stop  offset="0.58" style="stop-color:#FCEB97"/>
		<stop  offset="0.704" style="stop-color:#D9980E"/>
		<stop  offset="1" style="stop-color:#D9980E"/>
	</linearGradient>
	<path fill="url(#SVGID_6_)" d="M34.3,99.3H20.8V84.6L34.3,99.3z"/>
	<path fill-opacity="0.318" d="M37.6,22.9l-14.6,0.1c-1.4,0-2.6,1.1-2.6,2.6c0,0,0,0,0,0.1L20.2,39c0,1.4,1.1,2.6,2.6,2.6
		c0.7,0,1.3-0.3,1.8-0.7l14.8-13.4c1.1-1,1.2-2.6,0.2-3.7C39,23.2,38.3,22.9,37.6,22.9z"/>
	<path fill-opacity="0.318" d="M37.6,23.8l-14.6,0.1c-0.9,0-1.7,0.8-1.7,1.7L21.1,39c0,1,0.8,1.7,1.7,1.8c0.4,0,0.8-0.2,1.2-0.4
		l14.8-13.4c0.7-0.6,0.8-1.7,0.1-2.5C38.5,24,38.1,23.8,37.6,23.8L37.6,23.8z"/>
	<path fill-opacity="0.318" d="M37.6,24.3l-14.6,0.1c-0.6,0-1.2,0.5-1.2,1.1c0,0,0,0,0,0L21.6,39c0,0.6,0.5,1.2,1.1,1.2
		c0.3,0,0.6-0.1,0.8-0.3l14.8-13.4c0.5-0.4,0.5-1.2,0.1-1.6C38.2,24.5,37.9,24.3,37.6,24.3z"/>
	<path fill-opacity="0.333" d="M37.6,24.9L22.9,25c-0.1,0-0.1,0-0.2,0.1c-0.1,0-0.1,0.1-0.2,0.1c0,0,0,0-0.1,0.1
		c0,0.1-0.1,0.2-0.1,0.3c0,0,0,0-0.1,0.1L22.2,39c0,0,0,0.1,0.1,0.1c0,0.1,0,0.1,0.1,0.2c0,0.1,0.1,0.1,0.1,0.1
		c0.1,0,0.1,0.1,0.2,0.1c0.1,0,0.2,0,0.3,0c0.1,0,0.1-0.1,0.2-0.1L38,25.9c0.1-0.1,0.2-0.3,0.1-0.5c0-0.1,0-0.2-0.1-0.3
		c0,0,0,0-0.1-0.1c-0.1-0.1-0.1-0.1-0.2-0.1C37.7,25,37.6,24.9,37.6,24.9L37.6,24.9z"/>
	
		<linearGradient id="h_1_" gradientUnits="userSpaceOnUse" x1="-2215.9868" y1="-303.9009" x2="-2215.7461" y2="-304.138" gradientTransform="matrix(52.6316 0 0 52.6316 116650.9922 16030.3467)">
		<stop  offset="0" style="stop-color:#C94617"/>
		<stop  offset="0.353" style="stop-color:#C94617"/>
		<stop  offset="0.513" style="stop-color:#FCEB97"/>
		<stop  offset="0.628" style="stop-color:#D9980E"/>
		<stop  offset="1" style="stop-color:#D9980E"/>
	</linearGradient>
	<path id="h" fill="url(#h_1_)" d="M22.8,39l0.1-13.4l14.6-0.1L22.8,39L22.8,39z"/>
	<g>
		<path fill-opacity="0.288" d="M35.5,35.2c-0.2,0-0.5,0.2-0.6,0.4c-0.1,0.2-0.2,0.5-0.1,0.7l1.5,5.1l10,44.5l-0.9,4.9
			c-0.1,0.5,0.2,0.9,0.7,1c0,0,0.1,0,0.1,0h14.6c0.5,0,0.8-0.4,0.8-0.9c0-0.1,0-0.1,0-0.2L60.6,86l2.5-9.6l3.1,9.7l-1.4,4.5
			c-0.2,0.4,0.1,0.9,0.5,1.1c0.1,0,0.2,0,0.3,0L82,91.8c0.5,0,0.8-0.4,0.8-0.8c0-0.1,0-0.2,0-0.3l-1.9-5.1l7.5-43.1l2.8-6
			c0.2-0.4,0-0.9-0.4-1.1c-0.1,0-0.2-0.1-0.3-0.1H76.2c-0.5,0-0.9,0.3-0.9,0.8c0,0.1,0,0.1,0,0.2l0.9,4.9l-4.9,27.9l-7.7-29.8
			c-0.2-0.4-0.6-0.7-1.1-0.5c-0.2,0.1-0.4,0.3-0.5,0.5l-7.4,29.6l-6.2-27.7l0.8-4.9c0-0.3-0.1-0.5-0.3-0.7c-0.2-0.2-0.4-0.3-0.6-0.3
			H35.5C35.6,35.2,35.6,35.2,35.5,35.2z"/>
		<path fill-opacity="0.288" d="M35.3,34.5c-0.8,0.2-1.3,1-1.1,1.8c0,0,0,0,0,0.1l1.4,5h-0.1l10,44.4l-0.9,4.7
			c-0.1,0.8,0.4,1.6,1.3,1.8c0.1,0,0.2,0,0.2,0h14.6c0.8,0,1.5-0.7,1.5-1.5c0-0.1,0-0.2,0-0.3l-0.9-4.5l1.8-7l2.3,7.1l-1.3,4.3
			c-0.1,0.5,0,1,0.2,1.3c0.3,0.4,0.7,0.6,1.2,0.6L82,92.4c0.8,0,1.5-0.7,1.5-1.5c0-0.2,0-0.3-0.1-0.5l-1.8-5L89,42.7l2.8-6
			c0.3-0.8,0-1.7-0.8-2c-0.2-0.1-0.4-0.1-0.6-0.1H76.2c-0.8,0-1.5,0.7-1.5,1.5c0,0.1,0,0.2,0,0.2l0.8,4.7l-4.3,24.5L64.3,39
			c-0.1-0.8-0.9-1.4-1.8-1.2c-0.6,0.1-1.1,0.6-1.2,1.2l-6.7,26.6L49,40.9l0.7-4.5c0.1-0.8-0.4-1.6-1.3-1.8c-0.1,0-0.2,0-0.2,0H35.6
			C35.5,34.5,35.4,34.5,35.3,34.5L35.3,34.5z"/>
		<path fill-opacity="0.288" d="M35.1,33.9c-1.2,0.2-1.9,1.4-1.7,2.6c0,0.1,0,0.1,0,0.2l1.5,4.9v0.1l9.9,44L44,90.5
			c-0.1,0.6,0.1,1.3,0.5,1.8c0.4,0.5,1,0.8,1.7,0.8h14.6c1.2,0,2.2-1,2.2-2.2c0-0.2,0-0.3,0-0.5l-0.9-4.5l1.3-4.6l1.5,4.8l-1.3,4.1
			c-0.4,1.2,0.3,2.4,1.5,2.7c0.2,0.1,0.4,0.1,0.7,0.1L82,93.1c1.2,0,2.2-1,2.2-2.2c0-0.2,0-0.5-0.1-0.7l-1.8-4.8l7.4-42.6l2.8-5.9
			c0.5-1.1,0-2.4-1.1-2.9c-0.3-0.1-0.6-0.2-0.9-0.2H76.2c-1.2,0-2.2,1-2.2,2.2c0,0.1,0,0.3,0,0.4l0.8,4.6L71,62.5l-6.1-23.7
			c-0.3-1.2-1.5-1.8-2.7-1.5c-0.7,0.2-1.3,0.8-1.5,1.5l-6.1,24.1L49.7,41l0.7-4.6c0.2-1.2-0.6-2.3-1.8-2.5c-0.1,0-0.2,0-0.3,0H35.6
			C35.4,33.9,35.3,33.9,35.1,33.9z"/>
		<path fill-opacity="0.288" d="M35.3,33.1c-1.6,0.2-2.8,1.6-2.7,3.3c0,0.2,0,0.3,0.1,0.5l1.5,4.9v0.1l9.9,43.9l-0.9,4.4
			c-0.3,1.6,0.7,3.2,2.3,3.5c0.2,0,0.4,0.1,0.6,0.1h14.6c1,0,1.9-0.5,2.4-1.3c0.6,0.8,1.5,1.3,2.4,1.3L82,93.9c1,0,1.9-0.5,2.4-1.3
			s0.7-1.8,0.3-2.7l-1.6-4.5l7.3-42.2l2.8-5.8c0.4-0.9,0.4-2-0.2-2.9c-0.6-0.9-1.5-1.4-2.5-1.4H76.2c-1.6,0-3,1.3-3,3
			c0,0.2,0,0.4,0,0.5l0.8,4.5l-3.2,17.7l-5.2-20.2c-0.4-1.6-2-2.6-3.6-2.2c-1.1,0.3-2,1.1-2.2,2.2l-5.2,20.8l-4.2-18.4l0.7-4.4
			c0.2-1.6-0.9-3.1-2.5-3.4c-0.2,0-0.3,0-0.5,0H35.6C35.5,33.1,35.4,33.1,35.3,33.1z M63.3,84.2l0.7,2l-0.7,2.2l-0.5-2.2L63.3,84.2z
			"/>
		<path id="m" fill-opacity="0.288" d="M35.6,36.1l1.5,5.1l10,44.7l-1,5.1h14.6l-1-4.9L63,73.4l4,12.7l-1.4,4.7l16.4,0l-2-5.4
			l7.5-43.3l2.9-6.2l-14.3,0l0.8,5l-5.6,31.8l-8.7-33.5l-8.3,32.9l-7-31.4l0.8-4.9H35.6L35.6,36.1z"/>
	</g>
	<g>
		
			<linearGradient id="SVGID_7_" gradientUnits="userSpaceOnUse" x1="-2215.6514" y1="-303.8853" x2="-2215.4338" y2="-302.9144" gradientTransform="matrix(52.6316 0 0 52.6316 116650.9922 16030.3467)">
			<stop  offset="0" style="stop-color:#D99310"/>
			<stop  offset="0.235" style="stop-color:#EED016"/>
			<stop  offset="0.75" style="stop-color:#EED016"/>
			<stop  offset="0.908" style="stop-color:#EED016"/>
			<stop  offset="1" style="stop-color:#D18F0F"/>
		</linearGradient>
		<path fill="url(#SVGID_7_)" d="M35.6,36.1l7.1,5.3l9.5,44.3l-6.1,5.2l1-5.1l-10-44.7L35.6,36.1z"/>
		<path fill="#79230F" d="M52.3,85.7l-6.1,5.2l14.6,0l-5.6-5.2L52.3,85.7L52.3,85.7z"/>
		
			<linearGradient id="SVGID_8_" gradientUnits="userSpaceOnUse" x1="-2215.5149" y1="-303.8882" x2="-2215.3223" y2="-302.9728" gradientTransform="matrix(52.6316 0 0 52.6316 116650.9922 16030.3467)">
			<stop  offset="0" style="stop-color:#C53317"/>
			<stop  offset="0.491" style="stop-color:#D98F04"/>
			<stop  offset="0.8" style="stop-color:#D98F04"/>
			<stop  offset="1" style="stop-color:#C23E17"/>
		</linearGradient>
		<path fill="url(#SVGID_8_)" d="M48.2,36.1l-5.5,5.2l9.5,44.3l2.8,0l-0.6-13.8l-6.8-30.8L48.2,36.1L48.2,36.1z"/>
		
			<linearGradient id="SVGID_9_" gradientUnits="userSpaceOnUse" x1="-2215.1348" y1="-303.4551" x2="-2215.2764" y2="-302.8668" gradientTransform="matrix(52.6316 0 0 52.6316 116650.9922 16030.3467)">
			<stop  offset="0" style="stop-color:#AD3017"/>
			<stop  offset="1" style="stop-color:#CA7512"/>
		</linearGradient>
		<path fill="url(#SVGID_9_)" d="M60.7,90.9l-5.6-5.2L63,55.4l0,18L59.7,86L60.7,90.9L60.7,90.9z"/>
		
			<linearGradient id="SVGID_10_" gradientUnits="userSpaceOnUse" x1="-2215.137" y1="-303.7347" x2="-2215.3386" y2="-303.1151" gradientTransform="matrix(52.6316 0 0 52.6316 116650.9922 16030.3467)">
			<stop  offset="0" style="stop-color:#EBD400"/>
			<stop  offset="0.869" style="stop-color:#EBD400"/>
			<stop  offset="1" style="stop-color:#FFED5B"/>
		</linearGradient>
		<path fill="url(#SVGID_10_)" d="M62.7,39.3l0.3,16l-7.9,30.4L54.6,72L62.7,39.3z"/>
		
			<linearGradient id="SVGID_11_" gradientUnits="userSpaceOnUse" x1="-2215.575" y1="-303.8964" x2="-2215.5254" y2="-303.7898" gradientTransform="matrix(52.6316 0 0 52.6316 116650.9922 16030.3467)">
			<stop  offset="0" style="stop-color:#FFD40E"/>
			<stop  offset="1" style="stop-color:#FDF8DC"/>
		</linearGradient>
		<path fill="url(#SVGID_11_)" d="M35.6,36.1l7.1,5.3l5.5-5.3L35.6,36.1z"/>
		
			<linearGradient id="SVGID_12_" gradientUnits="userSpaceOnUse" x1="-2215.2114" y1="-303.7531" x2="-2214.9778" y2="-302.9475" gradientTransform="matrix(52.6316 0 0 52.6316 116650.9922 16030.3467)">
			<stop  offset="0" style="stop-color:#BC3618"/>
			<stop  offset="0.188" style="stop-color:#BC3618"/>
			<stop  offset="0.411" style="stop-color:#CA850E"/>
			<stop  offset="1" style="stop-color:#C07014"/>
		</linearGradient>
		<path fill="url(#SVGID_12_)" d="M62.7,39.3L63,55.4l7.3,30.3l4.5,0L62.7,39.3L62.7,39.3z"/>
		
			<linearGradient id="SVGID_13_" gradientUnits="userSpaceOnUse" x1="-2215.2209" y1="-303.4407" x2="-2215.0657" y2="-302.905" gradientTransform="matrix(52.6316 0 0 52.6316 116650.9922 16030.3467)">
			<stop  offset="0" style="stop-color:#FFD206"/>
			<stop  offset="0.902" style="stop-color:#FFD206"/>
			<stop  offset="1" style="stop-color:#D07E10"/>
		</linearGradient>
		<path fill="url(#SVGID_13_)" d="M63,55.4l0,18l4,12.8l-1.4,4.7l4.7-5.1L63,55.4L63,55.4z"/>
		<path fill="#79230F" d="M74.7,85.7l-4.4,0l-4.7,5.1l16.4,0L74.7,85.7L74.7,85.7z"/>
		
			<linearGradient id="SVGID_14_" gradientUnits="userSpaceOnUse" x1="-2214.7124" y1="-303.9102" x2="-2214.887" y2="-302.8558" gradientTransform="matrix(52.6316 0 0 52.6316 116650.9922 16030.3467)">
			<stop  offset="0" style="stop-color:#A42316"/>
			<stop  offset="0.288" style="stop-color:#C57313"/>
			<stop  offset="0.644" style="stop-color:#C57313"/>
			<stop  offset="1" style="stop-color:#C25717"/>
		</linearGradient>
		<path fill="url(#SVGID_14_)" d="M87.5,42.2l2.9-6.1l-7.9,4.5l-7.8,45.2l7.3,5.2l-2-5.4L87.5,42.2L87.5,42.2z"/>
		
			<linearGradient id="SVGID_15_" gradientUnits="userSpaceOnUse" x1="-2214.8477" y1="-303.8875" x2="-2215.0229" y2="-302.9555" gradientTransform="matrix(52.6316 0 0 52.6316 116650.9922 16030.3467)">
			<stop  offset="0" style="stop-color:#CB7C11"/>
			<stop  offset="0.314" style="stop-color:#EED700"/>
			<stop  offset="1" style="stop-color:#EED700"/>
		</linearGradient>
		<path fill="url(#SVGID_15_)" d="M77,41.1l-0.9-5l6.4,4.4l-7.8,45.1l-3.3-12.8L77,41.1z"/>
		
			<linearGradient id="SVGID_16_" gradientUnits="userSpaceOnUse" x1="-2214.7883" y1="-303.8961" x2="-2214.7424" y2="-303.8048" gradientTransform="matrix(52.6316 0 0 52.6316 116650.9922 16030.3467)">
			<stop  offset="0" style="stop-color:#FFD40E"/>
			<stop  offset="1" style="stop-color:#FDF8DC"/>
		</linearGradient>
		<path fill="url(#SVGID_16_)" d="M76.1,36.1l6.4,4.5l8-4.5L76.1,36.1z"/>
	</g>
	<g>
		<path fill-opacity="0.263" d="M63,14.8c-26.5,0-48.1,21.6-48.1,48.2s21.5,48.2,48.1,48.2c26.5,0,48.1-21.6,48.1-48.2
			S89.5,14.8,63,14.8z M62.8,23.1c21.8,0,39.4,17.7,39.4,39.5s-17.6,39.6-39.4,39.6S23.3,84.5,23.3,62.7
			C23.3,40.8,41,23.1,62.8,23.1L62.8,23.1z"/>
		<path fill-opacity="0.278" d="M63,14.1C36.1,14.1,14.2,36,14.2,63c0,27,21.9,48.9,48.8,48.9S111.8,90,111.8,63
			C111.8,36,89.9,14.1,63,14.1z M62.8,23.9c21.4,0,38.7,17.3,38.7,38.8s-17.3,38.9-38.7,38.9c-21.4,0-38.7-17.4-38.7-38.9
			C24.1,41.2,41.4,23.9,62.8,23.9z"/>
		<path fill-opacity="0.414" d="M63,12.9c-27.6,0-50,22.4-50,50.1s22.4,50.1,50,50.1c27.6,0,50-22.4,50-50.1S90.6,12.9,63,12.9z
			 M62.8,25.1c20.7,0,37.5,16.8,37.5,37.6s-16.8,37.7-37.5,37.7S25.3,83.5,25.3,62.7S42.1,25.1,62.8,25.1z"/>
		
			<linearGradient id="x_1_" gradientUnits="userSpaceOnUse" x1="-2216.176" y1="-302.9615" x2="-2214.1033" y2="-303.8244" gradientTransform="matrix(52.6316 0 0 52.6316 116650.9922 16030.3467)">
			<stop  offset="0" style="stop-color:#4F2A12"/>
			<stop  offset="0.346" style="stop-color:#CF8D2A"/>
			<stop  offset="0.417" style="stop-color:#E0CE2B"/>
			<stop  offset="0.498" style="stop-color:#F4E37F"/>
			<stop  offset="0.537" style="stop-color:#F4E37F"/>
			<stop  offset="0.605" style="stop-color:#E0CE2B"/>
			<stop  offset="0.687" style="stop-color:#CF8D2A"/>
			<stop  offset="1" style="stop-color:#452A16"/>
		</linearGradient>
		<path id="x" fill="url(#x_1_)" d="M63,15.6c-26.2,0-47.4,21.2-47.4,47.4c0,26.2,21.2,47.4,47.4,47.4s47.4-21.2,47.4-47.4
			C110.4,36.8,89.2,15.6,63,15.6L63,15.6z M62.8,22.4c22.2,0,40.1,18,40.1,40.3S85,103,62.8,103S22.6,84.9,22.6,62.7
			S40.6,22.4,62.8,22.4z"/>
		
			<linearGradient id="SVGID_17_" gradientUnits="userSpaceOnUse" x1="-2214.1069" y1="-301.6722" x2="-2215.1782" y2="-303.1907" gradientTransform="matrix(52.6316 0 0 52.6316 116621.1484 15977.1895)">
			<stop  offset="0" style="stop-color:#FFE02B"/>
			<stop  offset="0.136" style="stop-color:#FFF5C6;stop-opacity:0"/>
			<stop  offset="0.819" style="stop-color:#FFF5C6;stop-opacity:0"/>
			<stop  offset="1" style="stop-color:#FFE02B"/>
		</linearGradient>
		<path fill="url(#SVGID_17_)" d="M61.8,15.9c-24.8,0-44.9,20.1-44.9,45s20.1,45,44.9,45s44.9-20.1,44.9-45S86.6,15.9,61.8,15.9z
			 M61.6,17.9c23.5,0,42.6,19.1,42.6,42.7s-19.1,42.8-42.6,42.8S19,84.1,19,60.5S38.1,17.9,61.6,17.9L61.6,17.9z"/>
	</g>
</g>
</svg>
