<?xml version="1.0" encoding="utf-8"?>
<!-- Generator: Adobe Illustrator 24.3.0, SVG Export Plug-In . SVG Version: 6.00 Build 0)  -->
<svg version="1.1" id="Layer_1" xmlns="http://www.w3.org/2000/svg" xmlns:xlink="http://www.w3.org/1999/xlink" x="0px" y="0px"
	 viewBox="0 0 126 126" enable-background="new 0 0 126 126" xml:space="preserve">
<g>
	<path fill="#FBE35B" d="M94.8,88.1c5-6.6,7.9-14.9,7.9-23.8c0-12.1-5.4-23-14-30.3c-6.9-5.9-15.9-9.4-25.7-9.4
		c-19.5,0-35.7,14-39,32.5v0c-0.4,2.3-0.6,4.7-0.6,7.1c0,3,0.3,6,1,8.8c1.2,5.5,3.6,10.6,6.9,15"/>
	<path fill="#E9CE4C" d="M49.4,88.1c-3.3-4.4-5.7-9.5-6.9-15c-0.6-2.8-1-5.8-1-8.8c0-2.4,0.2-4.8,0.6-7.1v0
		c2.8-15.6,14.7-27.9,30-31.5c-2.9-0.7-5.9-1-9.1-1c-19.5,0-35.7,14-39,32.5v0c-0.4,2.3-0.6,4.7-0.6,7.1c0,3,0.3,6,1,8.8
		c1.2,5.5,3.6,10.6,6.9,15l63.5,0c0,0,0,0,0,0L49.4,88.1z"/>
	<path fill="#56C3F0" d="M111.5,96.6c-6.1,0-6.1,4.8-12.1,4.8c-6.1,0-6.1-4.8-12.1-4.8c-6.1,0-6.1,4.8-12.1,4.8
		c-6.1,0-6.1-4.8-12.1-4.8c-6.1,0-6.1,4.8-12.1,4.8s-6.1-4.8-12.1-4.8s-6.1,4.8-12.1,4.8c-6.1,0-6.1-4.8-12.1-4.8v-12
		c6.1,0,6.1,4.8,12.1,4.8s6.1-4.8,12.1-4.8c6.1,0,6.1,4.8,12.1,4.8c6.1,0,6.1-4.8,12.1-4.8c6.1,0,6.1,4.8,12.1,4.8
		c6.1,0,6.1-4.8,12.1-4.8c6.1,0,6.1,4.8,12.1,4.8c6.1,0,6.1-4.8,12.1-4.8"/>
	<path d="M14.5,86.1c2.5,0,3.7,0.9,5.1,2.1c1.6,1.3,3.4,2.7,7,2.7s5.4-1.4,7-2.7c1.5-1.2,2.6-2.1,5.1-2.1c2.5,0,3.7,0.9,5.1,2.1
		c1.6,1.3,3.4,2.7,7,2.7c3.5,0,5.4-1.4,7-2.7c1.5-1.2,2.6-2.1,5.1-2.1c2.5,0,3.7,0.9,5.1,2.1c1.6,1.3,3.4,2.7,7,2.7
		c3.5,0,5.4-1.4,7-2.7c1.5-1.2,2.6-2.1,5.1-2.1c2.5,0,3.7,0.9,5.1,2.1c1.6,1.3,3.4,2.7,7,2.7c3.5,0,5.4-1.4,7-2.7
		c1.5-1.2,2.6-2.1,5.1-2.1c0.8,0,1.5-0.7,1.5-1.5c0-0.8-0.7-1.5-1.5-1.5c-3.5,0-5.4,1.4-7,2.7c-1.5,1.2-2.6,2.1-5.1,2.1
		c-1,0-1.7-0.1-2.4-0.4c4.7-6.9,7.2-14.9,7.2-23.2c0-12.1-5.3-23.5-14.5-31.4c-7.4-6.3-16.9-9.8-26.6-9.8c-19.9,0-37,14.2-40.5,33.8
		c0,0,0,0,0,0c-0.4,2.4-0.7,4.9-0.7,7.4c0,3.1,0.3,6.1,1,9.1c1.1,5.1,3.2,9.8,6.2,14.1c-0.7,0.2-1.4,0.4-2.4,0.4
		c-2.5,0-3.7-0.9-5.1-2.1c-1.6-1.3-3.4-2.7-7-2.7c-0.8,0-1.5,0.7-1.5,1.5C13,85.4,13.7,86.1,14.5,86.1z M56,85.8
		c-1.5,1.2-2.6,2.1-5.1,2.1c-2.5,0-3.7-0.9-5.1-2.1c-1.5-1.2-3.3-2.5-6.5-2.7c-4.9-3.1-9.4-6.8-13.6-10.8c-0.6-2.6-0.9-5.3-0.9-8
		c0-1.5,0.1-2.9,0.2-4.4c5.8,4.4,11.9,8.5,18.2,12.1c0.2,0.1,0.5,0.2,0.7,0.2c0.5,0,1-0.3,1.3-0.8c0.4-0.7,0.2-1.6-0.6-2
		c-6.7-3.8-13.1-8.1-19.2-12.8c0.7-3.6,2-7,3.6-10.1l32.3,18.7v12.4c-3.9-1.6-7.8-3.5-11.5-5.4c-0.7-0.4-1.6-0.1-2,0.6
		c-0.4,0.7-0.1,1.6,0.6,2c4.2,2.2,8.5,4.2,12.9,6v2.4C58.9,83.6,57.4,84.8,56,85.8z M70,85.8c-1.4-1.1-2.9-2.3-5.5-2.6V65.1
		l10.8-6.2c1.2,9.6,1.6,19.3,1.1,28.9c-0.4,0.1-0.8,0.1-1.2,0.1C72.6,87.9,71.4,87,70,85.8z M80.3,85.8c-0.3,0.2-0.6,0.5-0.9,0.7
		c0.4-9.7,0-19.6-1.3-29.2L89,51c2.5,10.7,3,21.7,1.5,32.6c-0.9-0.3-1.9-0.5-3.2-0.5C83.7,83.1,81.9,84.6,80.3,85.8z M94.4,86
		c-0.1,0-0.1-0.1-0.2-0.1c-0.3-0.2-0.6-0.5-1-0.7c1.9-11.9,1.3-23.9-1.6-35.7l5.1-2.9c2.9,5.4,4.4,11.5,4.4,17.8
		C101.2,72.1,98.8,79.6,94.4,86z M95.3,43.9L63,62.6l-10.8-6.2c7.9-6,16.5-11.3,25.4-15.7c0.7-0.4,1-1.3,0.7-2c-0.4-0.7-1.3-1-2-0.7
		c-9.5,4.7-18.5,10.3-26.8,16.8l-11-6.3c10.2-9.6,22.7-16.7,36.2-20.5c4,1.3,7.7,3.2,11.1,5.7c-1.1,0.5-2.2,0.9-3.3,1.4
		c-0.7,0.3-1.1,1.2-0.8,2c0.2,0.6,0.8,0.9,1.4,0.9c0.2,0,0.4,0,0.6-0.1c1.5-0.7,3.1-1.3,4.7-2C91.1,38.2,93.4,40.9,95.3,43.9z
		 M63,26.1c2,0,4.1,0.2,6,0.5c-12.4,4.3-23.8,11.2-33.3,20.3l-5.1-2.9C37.5,33.1,49.5,26.1,63,26.1z M27.3,77.9c2.4,2.1,5,4.1,7.6,6
		c-1.3,0.5-2.3,1.3-3.2,2c-0.1,0-0.1,0.1-0.2,0.1C29.8,83.4,28.4,80.7,27.3,77.9z"/>
	<path d="M111.5,95.2c-3.5,0-5.4,1.4-7,2.7c-1.5,1.2-2.6,2.1-5.1,2.1c-2.5,0-3.7-0.9-5.1-2.1c-0.1-0.1-0.2-0.2-0.4-0.3
		c-0.6-0.5-1.6-0.4-2.1,0.3c-0.5,0.6-0.4,1.6,0.3,2.1c0.1,0.1,0.2,0.2,0.4,0.3c1.6,1.3,3.4,2.7,7,2.7c3.5,0,5.4-1.4,7-2.7
		c1.5-1.2,2.6-2.1,5.1-2.1c0.8,0,1.5-0.7,1.5-1.5C113,95.8,112.3,95.2,111.5,95.2z"/>
	<path d="M87.3,95.2c-3.5,0-5.4,1.4-7,2.7c-1.5,1.2-2.6,2.1-5.1,2.1c-2.5,0-3.7-0.9-5.1-2.1c-1.6-1.3-3.4-2.7-7-2.7
		c-3.5,0-5.4,1.4-7,2.7c-1.5,1.2-2.6,2.1-5.1,2.1c-2.5,0-3.7-0.9-5.1-2.1c-1.6-1.3-3.4-2.7-7-2.7c-3.5,0-5.4,1.4-7,2.7
		c-1.5,1.2-2.6,2.1-5.1,2.1c-2.5,0-3.7-0.9-5.1-2.1c-1.6-1.3-3.4-2.7-7-2.7c-0.8,0-1.5,0.7-1.5,1.5s0.7,1.5,1.5,1.5
		c2.5,0,3.7,0.9,5.1,2.1c1.6,1.3,3.4,2.7,7,2.7s5.4-1.4,7-2.7c1.5-1.2,2.6-2.1,5.1-2.1s3.7,0.9,5.1,2.1c1.6,1.3,3.4,2.7,7,2.7
		c3.5,0,5.4-1.4,7-2.7c1.5-1.2,2.6-2.1,5.1-2.1c2.5,0,3.7,0.9,5.1,2.1c1.6,1.3,3.4,2.7,7,2.7c3.5,0,5.4-1.4,7-2.7
		c1.5-1.2,2.6-2.1,5.1-2.1c0.8,0,1.5-0.7,1.5-1.5C88.7,95.8,88.1,95.2,87.3,95.2z"/>
</g>
</svg>
