<?xml version="1.0" encoding="utf-8"?>
<!-- Generator: Adobe Illustrator 24.3.0, SVG Export Plug-In . SVG Version: 6.00 Build 0)  -->
<svg version="1.1" id="Layer_1" xmlns="http://www.w3.org/2000/svg" xmlns:xlink="http://www.w3.org/1999/xlink" x="0px" y="0px"
	 viewBox="0 0 126 126" enable-background="new 0 0 126 126" xml:space="preserve">
<g id="_10-weightlifter">
	<path fill="#632359" d="M113,79.1v17.7l-3.2-3.2c-2.9-2.5-6.4-4.2-10.2-4.6c2.3-5.6,3.7-9.9,3.7-9.9H113z"/>
	<path fill="#7D2D6F" d="M113,96.9V113H84c6-3,11.9-15.1,15.6-24c3.8,0.5,7.3,2.1,10.2,4.6L113,96.9z"/>
	<circle fill="#242A38" cx="42" cy="34" r="3.2"/>
	<path fill="#555C70" d="M42,17.8c8.9,0,16.1,7.2,16.1,16.1S50.9,50.1,42,50.1S25.9,42.9,25.9,34S33.1,17.8,42,17.8z M45.3,34
		c0-1.8-1.4-3.2-3.2-3.2c-1.8,0-3.2,1.4-3.2,3.2s1.4,3.2,3.2,3.2C43.8,37.2,45.3,35.7,45.3,34z"/>
	<path fill="#434959" d="M42,50.1c8.9,0,16.1-7.2,16.1-16.1S50.9,17.8,42,17.8S25.9,25.1,25.9,34S33.1,50.1,42,50.1z M42,13
		c11.6,0,21,9.4,21,21s-9.4,21-21,21s-21-9.4-21-21S30.5,13,42,13z"/>
	<path fill="#E59A78" d="M69.5,88.8c0,0,0,8.1,4.8,12.9c-0.6,0.5-1.2,1-1.8,1.5c-5.9-3.1-12.5-4.7-19.2-4.7
		c-6.2-0.2-12.1-3-16.1-7.7c-2.1-2.4-2.1-6,0-8.5c0.3-0.4,0.7-0.7,1.1-1c2-1.5,4.5-2.2,7-2.2c3.3,0.1,6.6,0.7,9.8,1.6
		c1.6,0.5,3.1,1.1,4.6,1.8c1.1,0.6,2.2,1.2,3.3,1.9L69.5,88.8z"/>
	<path fill="#BC7351" d="M53.3,98.5c6.7,0,13.3,1.6,19.2,4.7c-1.5,1.2-3.1,2.2-4.8,3c-4.4,2.3-9.4,3.5-14.4,3.5
		c-12.9,0-16.1-6.5-16.1-6.5C40.4,100.1,53.3,98.5,53.3,98.5L53.3,98.5z"/>
	<path fill="#BC7351" d="M103.3,79.1c0,0-1.4,4.3-3.7,9.9c-0.9-0.1-1.8-0.2-2.7-0.2c-2.1-0.1-3.9-1.4-4.8-3.2
		C94.3,81.5,98.7,79.1,103.3,79.1z"/>
	<path fill="#945235" d="M74.3,101.7c2.5,2.4,4.7,5.1,6.5,8.1v3.2h-9.7c-3.2-1.6-3.2-6.5-3.2-6.5l-0.2-0.3c1.7-0.9,3.3-1.9,4.8-3
		C73.1,102.8,73.7,102.2,74.3,101.7L74.3,101.7z"/>
	<path fill="#E59A78" d="M53.3,98.5c0,0-12.9,1.6-16.1,4.8c0,0-16.1-6.5-19.4-6.5c-2.1-0.2-3.9-1.4-4.8-3.2V75.9
		c0-9,11.2-26.4,12.7-28.8c2.9,3.6,6.9,6.2,11.5,7.2v0.6l-1.6,9.7c0.9,5.9,1.5,11.8,1.6,17.7c-2.1,2.4-2.2,6,0,8.5
		C41.2,95.5,47.1,98.3,53.3,98.5L53.3,98.5z"/>
	<path fill="#E59A78" d="M99.6,89c-3.7,8.9-9.7,21-15.6,24h-3.2v-3.2c-1.7-3-3.9-5.7-6.5-8.1c-4.8-4.8-4.8-12.9-4.8-12.9l-6.5-4.4
		c-1-0.7-2.1-1.3-3.3-1.9l0.1-0.2c4-1.9,8.4-3,12.9-3.2c6.5,0,17.7,3.2,19.4,6.5c0.9,1.9,2.8,3.1,4.8,3.2
		C97.8,88.8,98.7,88.9,99.6,89z"/>
	<path fill="#667086" d="M42,17.8c-8.9,0-16.1,7.2-16.1,16.1S33.1,50.1,42,50.1S58.2,42.9,58.2,34S50.9,17.8,42,17.8z M42,48.5
		c-8,0-14.5-6.5-14.5-14.5S34,19.5,42,19.5S56.5,26,56.5,34S50,48.5,42,48.5L42,48.5z"/>
	<path fill="#667086" d="M42,13c-11.6,0-21,9.4-21,21s9.4,21,21,21s21-9.4,21-21S53.6,13,42,13z M42,53.3
		c-10.7,0-19.4-8.7-19.4-19.4S31.3,14.6,42,14.6S61.4,23.3,61.4,34S52.7,53.3,42,53.3z"/>
	<path fill="#BC7351" d="M74.3,101.7c-0.6,0.5-1.2,1-1.8,1.5c-5.9-3.1-12.5-4.7-19.2-4.7c-6.2-0.2-12.1-3-16.1-7.7
		c-1-1.2-1.6-2.7-1.6-4.2c0-0.2,0-0.4,0-0.6c0.6,3.2,9.9,7.7,16.1,7.7c5.2-0.1,10.3,0.9,15.1,3c0.8,0.4,1.7,0.1,2.1-0.7
		c0.1-0.3,0.2-0.6,0.2-0.8c-0.2-2.1,0-4.1,0.4-6.1C69.5,90.1,69.9,97.3,74.3,101.7z"/>
	<path fill="#D08664" d="M53.3,98.5c0,0-12.9,1.6-16.1,4.8c0,0-16.1-6.5-19.4-6.5c-2.1-0.2-3.9-1.4-4.8-3.2V75.9
		c0-9,11.2-26.4,12.7-28.8c2.9,3.6,6.9,6.2,11.5,7.2v0.6l-0.5,3.2c-2.2-0.1-4.3-0.7-6.1-2c-1.5-0.9-3.5-0.5-4.4,1
		c-0.1,0.2-0.2,0.4-0.3,0.6l-6.4,16.5V92c0,3.2,9.7,3.2,9.7-3.2c0-6.3,7.6-6.5,8-6.5c-2.1,2.4-2.1,6,0,8.4
		C41.2,95.5,47.1,98.3,53.3,98.5z"/>
	<path fill="#632359" d="M113,96.9V113H84c2.5-1.3,5-4.2,7.4-7.8c4.9,1.3,9.8,2.2,14.9,2.8c1.8,0.2,3.3-1.1,3.5-2.9
		c0-0.1,0-0.2,0-0.3V93.6L113,96.9z"/>
	<path fill="#D08664" d="M99.6,89c-3.7,8.9-9.7,21-15.6,24h-3.2v-3.2c-1.7-3-3.9-5.7-6.5-8.1c-4.8-4.8-4.8-12.9-4.8-12.9l-6.5-4.4
		c-1-0.7-2.1-1.3-3.3-1.9l0.1-0.1c11.6,0.9,13,6.3,13,6.3s4.8,12.9,12.9,14.5c5.8,1.2,9.6-10.3,10.9-14.5c0.1,0,0.3,0,0.4,0
		C97.8,88.8,98.7,88.9,99.6,89L99.6,89z"/>
	<path fill="#F4A580" d="M42.9,80.5c-0.2,0.2-0.4,0.5-0.5,0.7c-0.4,0.8-0.4,1.8-0.1,2.7c0.7,1.7,2.6,2.3,4.3,2.6l11.4,2.2
		c1,0.4,2.1,0.2,2.9-0.5c0.3-0.4,0.5-0.9,0.6-1.5c0.1-1.1-0.4-2.2-1.1-3c-0.7-0.8-1.6-1.3-2.6-1.7c-2.2-1-4.4-1.7-6.7-2.1
		c-1.1-0.3-2.2-0.4-3.3-0.5C45.9,79.2,44.3,79.6,42.9,80.5L42.9,80.5z"/>
	<path fill="#F4A580" d="M72.3,80.7c-0.5,0.1-0.9,0.4-1.1,0.8c-0.2,0.4-0.1,0.9,0.1,1.3c0.3,0.4,0.6,0.7,1,1
		c2.3,2.1,4.7,4.1,7.2,5.9c2.5,1.9,5.7,2.6,8.8,2.2c0.8-0.1,1.6-0.6,1.9-1.4c0.1-0.8-0.2-1.7-0.9-2.2c-3.1-3.8-7.1-7.2-12.1-7.9
		C75.6,80.1,73.9,80.2,72.3,80.7L72.3,80.7z"/>
	<path fill="#E59A78" d="M28.6,94.1c-1.1,0.2-1.9,0.6-2.1,1.5c-0.2,1,0.8,1.7,1.6,2.1c3.5,1.7,7.5,1.8,11.4,1.8
		c0.8,0.1,1.5-0.1,2.2-0.4c0.8-0.5,1.1-1.5,0.7-2.3c-0.6-1.3-2-1.4-3.2-1.6c-1.7-0.3-3.4-0.6-5-0.9C32.4,93.9,30.5,93.8,28.6,94.1
		L28.6,94.1z"/>
	<path fill="#F4A580" d="M29.1,77.6c-0.2,0.8-0.1,1.7,0.3,2.5c1.1,1.5,3.3,1.8,4.8,0.7c0.2-0.1,0.4-0.3,0.5-0.5
		c1.1-1.4,0.5-3.1,0.3-4.7L34.5,71c-0.2-1.4-1.1-3.5-2.9-2.5c-0.7,0.4-0.7,1.1-0.9,1.8c-0.3,0.8-0.6,1.6-0.8,2.4
		C29.5,74.3,29.2,75.9,29.1,77.6L29.1,77.6z"/>
	<path fill="#434959" d="M51.2,45.2c-0.4,0-0.7,0-1.1,0c-10.5,0-19.4-7.8-20.8-18.3c-0.1-0.9-0.2-1.8-0.2-2.7
		c-2.1,2.8-3.2,6.2-3.2,9.7c0,8.9,7.2,16.1,16.1,16.1c4.5,0,8.8-1.9,11.8-5.2C53,45.1,52.1,45.2,51.2,45.2L51.2,45.2z"/>
	<path fill="#2E3442" d="M59,43.3c-1.6,0.8-3.4,1.3-5.2,1.6c-6,6.5-16.2,6.9-22.8,0.9c-6.1-5.6-6.9-14.9-2-21.5v0
		c0-1.8,0.2-3.6,0.7-5.4c0.2-0.9,0.5-1.8,0.9-2.6c-9.7,6.3-12.6,19.2-6.3,29s19.2,12.6,29,6.3c3.6-2.3,6.4-5.7,8.1-9.7
		C60.7,42.4,59.9,42.9,59,43.3L59,43.3z"/>
	<g>
		<path fill="#555C70" d="M51.2,45.2c-6.2,5.1-15.3,4.1-20.4-2.1c-3.7-4.6-4.3-11-1.5-16.1c-0.1-0.9-0.2-1.8-0.2-2.7
			c-2.1,2.8-3.2,6.2-3.2,9.7c0,8.9,7.2,16.1,16.1,16.1c4.5,0,8.8-1.9,11.8-5.2C53,45.1,52.1,45.2,51.2,45.2z"/>
		<path fill="#555C70" d="M59,43.3c-5.1,9.4-16.9,12.8-26.3,7.7S19.9,34,25.1,24.6c1.2-2.2,2.8-4.1,4.8-5.7c0.2-0.9,0.5-1.8,0.9-2.6
			c-9.7,6.3-12.6,19.2-6.3,29s19.2,12.6,29,6.3c3.6-2.3,6.4-5.7,8.1-9.7C60.7,42.4,59.9,42.9,59,43.3L59,43.3z"/>
	</g>
</g>
</svg>
