<?xml version="1.0" encoding="utf-8"?>
<!-- Generator: Adobe Illustrator 24.3.0, SVG Export Plug-In . SVG Version: 6.00 Build 0)  -->
<svg version="1.1" id="Layer_1" xmlns="http://www.w3.org/2000/svg" xmlns:xlink="http://www.w3.org/1999/xlink" x="0px" y="0px"
	 viewBox="0 0 126 126" enable-background="new 0 0 126 126" xml:space="preserve">
<g>
	<path fill="#FCF2CF" d="M105.2,56.6c0-23.3-18.9-42.2-42.2-42.2S20.8,33.4,20.8,56.6c0,17.4,10.5,32.3,25.4,38.7l9.7,12.7
		c3.6,4.7,10.6,4.7,14.1,0l9.7-12.7C94.7,88.9,105.2,74,105.2,56.6z"/>
	<path fill="#F5E2A2" d="M44.9,18.5c-14.2,6.8-24.1,21.3-24.1,38.1c0,17.4,10.5,32.3,25.4,38.7l9.7,12.7c3.6,4.7,10.6,4.7,14.1,0
		l6.7-8.8C48.7,91.1,32.8,39.2,44.9,18.5L44.9,18.5z"/>
	<path fill="#8FAEDB" d="M63,83.3c-2.3,0-4.2-1.9-4.2-4.2v-6.8c0-4.1,2.5-7.8,6.3-9.5c2.2-0.9,3.5-3.1,3.3-5.5
		c-0.2-2.7-2.4-4.9-5.1-5.1c-1.6-0.1-3,0.4-4.2,1.5c-1.1,1.1-1.8,2.5-1.8,4c0,2.3-1.9,4.2-4.2,4.2s-4.2-1.9-4.2-4.2
		c0-3.8,1.6-7.5,4.4-10.1c2.8-2.6,6.5-4,10.4-3.7c6.8,0.5,12.4,6,12.8,12.8c0.4,5.9-3,11.4-8.4,13.7c-0.8,0.3-1.3,1-1.3,1.8v6.8
		C67.2,81.4,65.3,83.3,63,83.3L63,83.3z"/>
	<circle fill="#A6DBF7" cx="63" cy="91.4" r="4.2"/>
	<path fill="#7FCCF3" d="M66.3,93.9c-2.2-1.6-4.2-3.5-6.1-5.6c-0.8,0.8-1.4,1.9-1.4,3.1c0,2.3,1.9,4.2,4.2,4.2
		C64.4,95.6,65.6,94.9,66.3,93.9L66.3,93.9z"/>
	<ellipse fill="#EDA0AA" cx="45" cy="36.7" rx="6.6" ry="5.3"/>
	<ellipse fill="#EDA0AA" cx="81" cy="36.7" rx="6.6" ry="5.3"/>
	<ellipse fill="#4F5761" cx="63" cy="32.6" rx="3.5" ry="3.9"/>
	<path d="M47.6,30.3v-2.6c0-0.8-0.7-1.5-1.5-1.5s-1.5,0.7-1.5,1.5v2.6c0,0.8,0.7,1.5,1.5,1.5S47.6,31.1,47.6,30.3z M63,85.8
		c-3.1,0-5.6,2.5-5.6,5.6c0,3.1,2.5,5.6,5.6,5.6c3.1,0,5.6-2.5,5.6-5.6C68.6,88.3,66.1,85.8,63,85.8z M63,94.1
		c-1.5,0-2.7-1.2-2.7-2.7c0-1.5,1.2-2.7,2.7-2.7c1.5,0,2.7,1.2,2.7,2.7S64.5,94.1,63,94.1z M47.7,57.7c0,3.1,2.5,5.6,5.6,5.6
		c3.1,0,5.6-2.5,5.6-5.6c0-1.1,0.5-2.2,1.3-3c0.8-0.8,1.9-1.2,3.1-1.1c2,0.1,3.6,1.7,3.7,3.7c0.1,1.7-0.9,3.4-2.5,4
		c-4.4,1.9-7.2,6.1-7.2,10.8v6.8c0,3.1,2.5,5.6,5.6,5.6c3.1,0,5.6-2.5,5.6-5.6v-6.8c0-0.2,0.1-0.4,0.4-0.5c6-2.6,9.7-8.6,9.3-15.2
		c-0.5-7.6-6.6-13.7-14.2-14.2c-4.3-0.3-8.4,1.1-11.5,4.1C49.5,49.4,47.7,53.5,47.7,57.7L47.7,57.7z M54.6,48.7
		c2.5-2.4,5.8-3.5,9.3-3.3c6.1,0.4,11,5.4,11.5,11.5c0.4,5.3-2.6,10.2-7.5,12.3c-1.3,0.6-2.1,1.8-2.1,3.2v6.8c0,1.5-1.2,2.7-2.7,2.7
		c-1.5,0-2.7-1.2-2.7-2.7v-6.8c0-3.5,2.1-6.7,5.4-8.1c2.7-1.2,4.4-4,4.2-6.9c-0.2-3.4-3-6.2-6.5-6.5c-0.2,0-0.3,0-0.5,0
		c-1.8,0-3.5,0.7-4.8,1.9C56.8,54,56,55.8,56,57.7c0,1.5-1.2,2.7-2.7,2.7c-1.5,0-2.7-1.2-2.7-2.7C50.6,54.3,52.1,51,54.6,48.7
		L54.6,48.7z M87.6,89.1c-2.6,2-5.5,3.7-8.5,4.9c-0.2,0.1-0.4,0.3-0.6,0.5l-9.7,12.7c-1.4,1.9-3.6,2.9-5.9,2.9
		c-2.3,0-4.5-1.1-5.9-2.9l-9.7-12.7c-0.2-0.2-0.4-0.4-0.6-0.5c-14.9-6.5-24.6-21.1-24.6-37.4c0-7.3,1.9-14.4,5.6-20.7
		c0.4-0.7,0.2-1.6-0.5-2c-0.7-0.4-1.6-0.2-2,0.5c-3.9,6.7-6,14.3-6,22.2c0,17.3,10.2,32.9,26,39.9l9.4,12.4c2,2.6,5,4.1,8.2,4.1
		c3.3,0,6.2-1.5,8.2-4.1l9.4-12.4c3.1-1.4,6-3.1,8.7-5.2c0.6-0.5,0.8-1.4,0.3-2.1C89.2,88.7,88.3,88.6,87.6,89.1z M79.9,31.8
		c0.8,0,1.5-0.7,1.5-1.5v-2.6c0-0.8-0.7-1.5-1.5-1.5s-1.5,0.7-1.5,1.5v2.6C78.4,31.1,79.1,31.8,79.9,31.8z M68,32.6
		c0-3-2.2-5.4-5-5.4c-2.8,0-5,2.4-5,5.4c0,3,2.2,5.4,5,5.4C65.8,38.1,68,35.6,68,32.6L68,32.6z M60.9,32.6c0-1.4,0.9-2.5,2.1-2.5
		s2.1,1.1,2.1,2.5c0,1.4-0.9,2.5-2.1,2.5C61.9,35.1,60.9,34,60.9,32.6z M93.9,25.8C85.6,17.5,74.7,13,63,13
		c-12.8,0-25,5.6-33.3,15.4c-0.5,0.6-0.4,1.5,0.2,2.1c0.6,0.5,1.5,0.4,2.1-0.2C39.7,21.2,51,15.9,63,15.9
		c22.5,0,40.7,18.3,40.7,40.7c0,10.4-3.9,20.2-11,27.8c-0.6,0.6-0.5,1.5,0.1,2.1c0.3,0.3,0.6,0.4,1,0.4c0.4,0,0.8-0.2,1.1-0.5
		c7.6-8.1,11.8-18.7,11.8-29.8C106.6,45,102.1,34,93.9,25.8L93.9,25.8z"/>
</g>
</svg>
