<?xml version="1.0" encoding="utf-8"?>
<!-- Generator: Adobe Illustrator 24.3.0, SVG Export Plug-In . SVG Version: 6.00 Build 0)  -->
<svg version="1.1" id="Layer_1" xmlns="http://www.w3.org/2000/svg" xmlns:xlink="http://www.w3.org/1999/xlink" x="0px" y="0px"
	 viewBox="0 0 126 126" enable-background="new 0 0 126 126" xml:space="preserve">
<g>
	<g transform="translate(29.75 53.5)">
		
			<linearGradient id="SVGID_1_" gradientUnits="userSpaceOnUse" x1="-2274.9504" y1="-305.6393" x2="-2274.0911" y2="-303.9775" gradientTransform="matrix(52.6316 0 0 52.6316 119742.0312 16044.4268)">
			<stop  offset="0" style="stop-color:#5B789E"/>
			<stop  offset="0.399" style="stop-color:#2D3B50"/>
			<stop  offset="1" style="stop-color:#0C0D13"/>
		</linearGradient>
		<path fill="url(#SVGID_1_)" d="M76.3,9.3c0,23.9-18.8,43.3-42.1,43.3C11,52.6-7.8,33.3-7.8,9.4v0c0-23.9,18.8-43.3,42.1-43.3
			C57.5-33.9,76.3-14.6,76.3,9.3L76.3,9.3z"/>
		
			<linearGradient id="SVGID_2_" gradientUnits="userSpaceOnUse" x1="-2304.595" y1="-357.4925" x2="-2304.3357" y2="-356.9246" gradientTransform="matrix(52.6316 0 0 52.6316 121318.6172 18792.6367)">
			<stop  offset="0" style="stop-color:#000000;stop-opacity:0"/>
			<stop  offset="1" style="stop-color:#000000;stop-opacity:0.621"/>
		</linearGradient>
		<path fill="url(#SVGID_2_)" d="M38.4-33.3l-16.8,1.1c-0.4,0-0.7,0.1-1.1,0.3L5.8-22.5c-1,0.6-1.4,2-0.7,3.1
			c0.2,0.3,0.4,0.5,0.7,0.7c1.9,1.3,3.9,2.8,4.4,4.2c1.2,3.1,2.5,7.6,3.6,11.5c0.5,1.7,1,3.5,1.6,5.2c0.2,0.7,0.4,1.4,0.7,1.9
			s0.4,1,0.9,1.6C17,5.8,17,5.8,17.1,5.9c1,0.8,2,1.3,3.3,1.6c1.3,0.4,2.7,0.7,4.1,0.9c1.4,0.2,2.7,0.3,3.9,0.3c1.2,0,2,0.3,3.4-0.6
			c0.1,0,0.1-0.1,0.2-0.1c0.6-0.5,0.7-0.8,0.8-1.1c0.1-0.3,0.2-0.5,0.3-0.7c0.2-0.5,0.3-1.1,0.5-1.8c0.8-3.3,1.4-6.7,1.8-10.1
			c0.2-1.5,0.3-2.5,0-3.8c0-0.1,0-0.1,0-0.2h-0.1c-0.3-1.6-1.2-4-2.7-6.6c-1.3-2.4-3.1-4.4-5.3-6.1c0.1-0.1,0.2-0.2,0.7-0.4l8.2,0.1
			c0.2,0,0.5,0,0.7-0.1c0.2-0.1,0.4,0.1,1.4-0.4c0.5-0.2,1.1-0.8,1.4-1.3c0.3-0.5,0.4-1,0.5-1.5l0.5-4.8c0.2-1.2-0.7-2.3-1.9-2.5
			C38.7-33.3,38.5-33.3,38.4-33.3L38.4-33.3z"/>
		
			<radialGradient id="b_1_" cx="-2600.5938" cy="-450.8842" r="0.3" gradientTransform="matrix(197.0789 -40.0684 20.8421 102.5105 521937.0312 -58005.7852)" gradientUnits="userSpaceOnUse">
			<stop  offset="0" style="stop-color:#E5F0FA"/>
			<stop  offset="0" style="stop-color:#BED8F2"/>
			<stop  offset="6.500000e-02" style="stop-color:#BED8F2"/>
			<stop  offset="1" style="stop-color:#1B3556;stop-opacity:0.101"/>
		</radialGradient>
		<path id="b" fill="url(#b_1_)" d="M38.5-31.1L38-26.3c-0.1,1.4-0.7,1-1.7,1.4l-8.7,0c-2.6,0.8-2.8,2.2-2.7,3.3
			c4.9,2.7,7.9,10.4,8.3,12.6c0.6,2.2-1.8,14.6-2.6,15.3c-1.4,0.9-10-0.4-12.1-2.1c-1.2-1.3-3.9-13-6.3-19.5c-0.9-2.3-3.3-4-5.3-5.3
			L21.7-30L38.5-31.1z"/>
		
			<linearGradient id="SVGID_3_" gradientUnits="userSpaceOnUse" x1="-2305.2769" y1="-357.5515" x2="-2304.8276" y2="-356.5816" gradientTransform="matrix(52.6316 0 0 52.6316 121318.6172 18792.6367)">
			<stop  offset="0" style="stop-color:#000000;stop-opacity:0"/>
			<stop  offset="1" style="stop-color:#000000;stop-opacity:0.621"/>
		</linearGradient>
		<path fill="url(#SVGID_3_)" d="M-3.5-6.7C-4.3-6.6-5-6-5.2-5.2l-5.1,17.3c-0.2,0.8,0.1,1.7,0.8,2.2c1.9,1.3,4,2.8,4.5,4.3
			c0.1,0.1,0.1,0.2,0.2,0.3c0,0.1,0,0.1,0.1,0.2c0.1,0.4,0.2,1.1,0.3,1.8c0.3,1.5,0.6,3.6,1.1,5.8s1.1,4.4,2,6.3s2.1,3.7,4.2,4.4
			c-0.5-0.2-0.1,0,0.2,0.2s0.7,0.4,1.1,0.7c0.9,0.6,2.1,1.4,3.3,2.2c1.2,0.8,2.4,1.6,3.4,2.2c0.5,0.3,0.9,0.5,1.3,0.7
			c0.2,0.1,0.4,0.2,0.6,0.3s0.4,0.3,1.3,0.1c1-0.2,1.3-0.8,1.5-1.1c0.2-0.3,0.2-0.5,0.3-0.7c0.1-0.4,0.3-0.8,0.3-1.3
			c0.2-1,0.3-2.1,0.4-3.3c0.1-1.1,0.3-2.3,0.4-3.1c0.1-0.3,0.1-0.5,0.1-0.6c0.1-0.1,0.4-0.1,0.5-0.3C18,33,18,32.3,18,31.9
			c0-1-0.3-1.7-0.7-2.5c-0.8-1.6-2-3.5-3.4-5.5c-2.7-3.8-5.8-7.5-7.2-9.1c-0.1-0.4-0.2-0.8-0.3-1.2c-0.2-0.5-0.4-1.1-0.5-1.6
			c2.9,1.2,5.9,2.4,9.3,2.8c0.2,0,0.4,0,0.6-0.1c1-0.2,2.1-0.5,3-0.9c0.6-0.3,1.2-0.5,1.7-1c0.5-0.5,1.1-1.2,1.3-2.2
			c0.1-0.5-0.1-0.9-0.3-1.3c-3.7-5.6-9.1-7-14.7-9.1L3.4-3.7C3.2-4,2.9-4.1,2.7-4.2l-5.2-2.2C-2.8-6.6-3.2-6.7-3.5-6.7L-3.5-6.7z"/>
		
			<radialGradient id="e_1_" cx="-2597.9663" cy="-457.8249" r="0.3" gradientTransform="matrix(197.0789 -40.0684 20.8421 102.5105 521553.8125 -57176.6758)" gradientUnits="userSpaceOnUse">
			<stop  offset="0" style="stop-color:#E5F0FA"/>
			<stop  offset="0" style="stop-color:#BED8F2"/>
			<stop  offset="6.500000e-02" style="stop-color:#BED8F2"/>
			<stop  offset="1" style="stop-color:#1B3556;stop-opacity:0.101"/>
		</radialGradient>
		<path id="e" fill="url(#e_1_)" d="M5.4,1.9c5.9,2.2,10.8,3.3,14.3,8.5c-0.1,1.4-3.1,2.3-4.3,2.5c-3.6-0.4-6.9-1.7-10.2-3.2
			C2,9,4.8,14.7,4.9,15.8c2.3,2.5,13.7,16.5,10.6,16.8c-0.8,0.1-1.1,9.3-1.8,9.4c-0.7,0.1-9.4-6.2-10.2-6.4
			c-5-1.6-5.8-17.3-6.6-17.7c-0.9-2.3-3.3-4-5.3-5.3l5.1-17.3l5.2,2.2L5.4,1.9L5.4,1.9z"/>
	</g>
	<path fill-opacity="0.318" d="M105.8,40.1l-0.1-14.6c0-1.4-1.1-2.6-2.6-2.6c0,0,0,0-0.1,0l-13.4-0.1c-1.4,0-2.6,1.2-2.6,2.6
		c0,0.7,0.3,1.3,0.7,1.8l13.4,14.7c0.7,0.8,1.9,1.1,2.9,0.7C105.2,42.2,105.8,41.2,105.8,40.1L105.8,40.1z"/>
	<path fill-opacity="0.318" d="M104.9,40.1l-0.1-14.6c0-0.9-0.8-1.7-1.7-1.7l-13.4-0.1c-1,0-1.7,0.8-1.8,1.7c0,0.4,0.2,0.8,0.4,1.2
		l13.4,14.7c0.6,0.7,1.8,0.8,2.5,0.1C104.7,41.1,104.9,40.6,104.9,40.1L104.9,40.1z"/>
	<path fill-opacity="0.318" d="M104.4,40.1l-0.1-14.6c0-0.3-0.1-0.6-0.3-0.8c-0.2-0.2-0.5-0.3-0.8-0.3l-13.4-0.1
		c-0.6,0-1.2,0.5-1.2,1.2c0,0.3,0.1,0.6,0.3,0.8l13.4,14.7c0.4,0.5,1.2,0.5,1.6,0.1C104.2,40.8,104.4,40.5,104.4,40.1z"/>
	<path fill-opacity="0.333" d="M103.7,40.2l-0.1-14.6c0-0.1,0-0.1-0.1-0.2c0-0.1-0.1-0.1-0.1-0.2c0,0,0,0-0.1-0.1
		c-0.1,0-0.2-0.1-0.3-0.1c0,0,0,0-0.1-0.1l-13.4-0.1c0,0-0.1,0-0.1,0.1c-0.1,0-0.1,0-0.2,0.1c-0.1,0-0.1,0.1-0.1,0.1
		c0,0.1-0.1,0.1-0.1,0.2c0,0.1,0,0.2,0,0.3c0,0.1,0.1,0.1,0.1,0.2l13.4,14.7c0.1,0.1,0.3,0.2,0.5,0.1c0.1,0,0.2,0,0.3-0.1
		c0,0,0,0,0.1-0.1c0.1-0.1,0.1-0.1,0.1-0.2C103.7,40.3,103.7,40.2,103.7,40.2L103.7,40.2z"/>
	
		<linearGradient id="SVGID_4_" gradientUnits="userSpaceOnUse" x1="-2214.6104" y1="-304.1386" x2="-2214.3591" y2="-303.9158" gradientTransform="matrix(52.6316 0 0 52.6316 116650.9922 16030.3467)">
		<stop  offset="0" style="stop-color:#FCEB97"/>
		<stop  offset="0.353" style="stop-color:#FCEB97"/>
		<stop  offset="0.513" style="stop-color:#FCEB97"/>
		<stop  offset="0.628" style="stop-color:#D9980E"/>
		<stop  offset="1" style="stop-color:#D9980E"/>
	</linearGradient>
	<path fill="url(#SVGID_4_)" d="M90.5,25.6l12.5-0.1L102.9,39L90.5,25.6L90.5,25.6z"/>
	<path fill-opacity="0.318" d="M90.6,102.1l14.6-0.1c1.4,0,2.6-1.1,2.6-2.6c0,0,0,0,0-0.1l0.1-13.4c0-1.4-1.1-2.6-2.6-2.6
		c-0.7,0-1.3,0.3-1.8,0.7L88.9,97.6c-1.1,1-1.1,2.6-0.2,3.7C89.2,101.8,89.9,102.2,90.6,102.1z"/>
	<path fill-opacity="0.318" d="M90.7,101.3l14.6-0.1c0.9,0,1.7-0.8,1.7-1.7l0.1-13.4c0-1-0.8-1.7-1.7-1.8c-0.4,0-0.8,0.2-1.2,0.4
		L89.5,98.2c-0.7,0.6-0.8,1.7-0.1,2.5C89.7,101.1,90.2,101.3,90.7,101.3L90.7,101.3z"/>
	<path fill-opacity="0.318" d="M90.6,100.7l14.6-0.1c0.6,0,1.2-0.5,1.2-1.2c0,0,0,0,0,0l0.1-13.4c0-0.6-0.5-1.2-1.1-1.2
		c-0.3,0-0.6,0.1-0.8,0.3L89.8,98.7c-0.6,0-1.2,0.5-1.1,1.2c0,0.6,0.5,1.2,1.2,1.1C90.2,101,90.4,100.9,90.6,100.7z"/>
	<path fill-opacity="0.333" d="M90.6,100.1l14.6-0.1c0.1,0,0.1,0,0.2-0.1c0.1,0,0.1-0.1,0.2-0.1c0,0,0,0,0.1-0.1
		c0-0.1,0.1-0.2,0.1-0.3c0,0,0,0,0.1-0.1l0.1-13.4c0,0,0-0.1-0.1-0.1c0-0.1,0-0.1-0.1-0.2c0-0.1-0.1-0.1-0.1-0.1
		c-0.1,0-0.1-0.1-0.2-0.1c-0.1,0-0.2,0-0.3,0c-0.1,0-0.1,0.1-0.2,0.1L90.2,99.1c-0.1,0.1-0.2,0.3-0.1,0.5c0,0.1,0,0.2,0.1,0.3
		c0,0,0,0,0.1,0.1c0.1,0.1,0.1,0.1,0.2,0.1C90.4,100,90.5,100.1,90.6,100.1L90.6,100.1z"/>
	
		<linearGradient id="SVGID_5_" gradientUnits="userSpaceOnUse" x1="-2214.5916" y1="-302.608" x2="-2214.3264" y2="-302.8779" gradientTransform="matrix(52.6316 0 0 52.6316 116650.9922 16030.3467)">
		<stop  offset="0" style="stop-color:#FFDB76"/>
		<stop  offset="0.327" style="stop-color:#E38E39"/>
		<stop  offset="0.451" style="stop-color:#C94617"/>
		<stop  offset="0.58" style="stop-color:#FCEB97"/>
		<stop  offset="0.704" style="stop-color:#D9980E"/>
		<stop  offset="1" style="stop-color:#D9980E"/>
	</linearGradient>
	<path fill="url(#SVGID_5_)" d="M105.1,84.4l0,14.9H90.8L105.1,84.4L105.1,84.4z"/>
	<path fill-opacity="0.318" d="M18,84.8l0.1,14.6c0,1.4,1.1,2.6,2.6,2.6c0,0,0,0,0.1,0l13.4,0.1c1,0,2-0.6,2.4-1.6
		c0.4-1,0.2-2.1-0.5-2.8L22.5,83c-1-1.1-2.6-1.1-3.7-0.2C18.3,83.3,18,84,18,84.8L18,84.8z"/>
	<path fill-opacity="0.318" d="M18.9,84.8L19,99.4c0,0.9,0.8,1.7,1.7,1.7l13.4,0.1c1,0,1.7-0.8,1.8-1.7c0-0.4-0.2-0.9-0.4-1.2
		L21.9,83.6c-0.5-0.5-1.2-0.7-1.9-0.5C19.4,83.4,18.9,84.1,18.9,84.8L18.9,84.8z"/>
	<path fill-opacity="0.318" d="M19.4,84.8l0.1,14.6c0,0.3,0.1,0.6,0.3,0.8c0.2,0.2,0.5,0.3,0.8,0.3l13.4,0.1c0.6,0,1.2-0.5,1.2-1.1
		c0-0.3-0.1-0.6-0.3-0.8L21.5,84c-0.4-0.5-1.2-0.5-1.6-0.1C19.6,84.1,19.4,84.4,19.4,84.8L19.4,84.8z"/>
	<path fill-opacity="0.333" d="M20,84.7l0.1,14.6c0,0.1,0,0.1,0.1,0.2c0,0.1,0.1,0.1,0.1,0.2c0,0,0,0,0.1,0.1c0.1,0,0.2,0.1,0.3,0.1
		c0,0,0,0,0.1,0.1l13.4,0.1c0,0,0.1,0,0.1-0.1c0.1,0,0.1,0,0.2-0.1c0.1,0,0.1-0.1,0.1-0.1c0-0.1,0.1-0.1,0.1-0.2c0-0.1,0-0.2,0-0.3
		c0-0.1-0.1-0.1-0.1-0.2L21,84.3c-0.1-0.1-0.3-0.2-0.5-0.1c-0.1,0-0.2,0-0.3,0.1c0,0,0,0-0.1,0.1c-0.1,0.1-0.1,0.1-0.1,0.2
		C20.1,84.6,20,84.7,20,84.7L20,84.7z"/>
	
		<linearGradient id="SVGID_6_" gradientUnits="userSpaceOnUse" x1="-2215.8123" y1="-302.6565" x2="-2215.989" y2="-302.851" gradientTransform="matrix(52.6316 0 0 52.6316 116650.9922 16030.3467)">
		<stop  offset="0" style="stop-color:#FFDB76"/>
		<stop  offset="0.327" style="stop-color:#E38E39"/>
		<stop  offset="0.451" style="stop-color:#C94617"/>
		<stop  offset="0.58" style="stop-color:#FCEB97"/>
		<stop  offset="0.704" style="stop-color:#D9980E"/>
		<stop  offset="1" style="stop-color:#D9980E"/>
	</linearGradient>
	<path fill="url(#SVGID_6_)" d="M34.4,99.2H20.9V84.5L34.4,99.2z"/>
	<path fill-opacity="0.318" d="M37.6,22.9L23,23c-1.4,0-2.6,1.1-2.6,2.6c0,0,0,0,0,0.1L20.2,39c0,1.4,1.1,2.6,2.6,2.6
		c0.7,0,1.3-0.3,1.8-0.7l14.7-13.4c1.1-1,1.2-2.6,0.2-3.7C39.1,23.2,38.4,22.9,37.6,22.9z"/>
	<path fill-opacity="0.318" d="M37.6,23.9L23,23.9c-0.9,0-1.7,0.8-1.7,1.7L21.2,39c0,1,0.8,1.7,1.7,1.8c0.4,0,0.8-0.2,1.2-0.4
		l14.7-13.4c0.7-0.6,0.8-1.7,0.1-2.5C38.6,24.1,38.1,23.9,37.6,23.9L37.6,23.9z"/>
	<path fill-opacity="0.318" d="M37.6,24.4L23,24.4c-0.6,0-1.2,0.5-1.2,1.1c0,0,0,0,0,0L21.7,39c0,0.6,0.5,1.2,1.1,1.2
		c0.3,0,0.6-0.1,0.8-0.3l14.7-13.4c0.5-0.4,0.5-1.2,0.1-1.6C38.3,24.5,37.9,24.4,37.6,24.4z"/>
	<path fill-opacity="0.333" d="M37.6,25L23,25c-0.1,0-0.1,0-0.2,0.1c-0.1,0-0.1,0.1-0.2,0.1c0,0,0,0-0.1,0.1c0,0.1-0.1,0.2-0.1,0.3
		c0,0,0,0-0.1,0.1L22.3,39c0,0,0,0.1,0.1,0.1c0,0.1,0,0.1,0.1,0.2c0,0.1,0.1,0.1,0.1,0.1c0.1,0,0.1,0.1,0.2,0.1c0.1,0,0.2,0,0.3,0
		c0.1,0,0.1-0.1,0.2-0.1L38,26c0.1-0.1,0.2-0.3,0.1-0.5c0-0.1,0-0.2-0.1-0.3c0,0,0,0-0.1-0.1c-0.1-0.1-0.1-0.1-0.2-0.1
		C37.7,25,37.7,25,37.6,25L37.6,25z"/>
	
		<linearGradient id="h_1_" gradientUnits="userSpaceOnUse" x1="-2215.9856" y1="-303.9002" x2="-2215.7454" y2="-304.137" gradientTransform="matrix(52.6316 0 0 52.6316 116650.9922 16030.3467)">
		<stop  offset="0" style="stop-color:#C94617"/>
		<stop  offset="0.353" style="stop-color:#C94617"/>
		<stop  offset="0.513" style="stop-color:#FCEB97"/>
		<stop  offset="0.628" style="stop-color:#D9980E"/>
		<stop  offset="1" style="stop-color:#D9980E"/>
	</linearGradient>
	<path id="h" fill="url(#h_1_)" d="M22.9,39L23,25.7l14.6-0.1L22.9,39L22.9,39z"/>
	<g>
		<path fill-opacity="0.288" d="M35.6,35.2c-0.2,0-0.5,0.2-0.6,0.4c-0.1,0.2-0.2,0.5-0.1,0.7l1.4,5.1l10,44.5l-0.9,4.9
			c-0.1,0.5,0.2,0.9,0.7,1c0,0,0.1,0,0.1,0h14.5c0.5,0,0.8-0.4,0.8-0.9c0-0.1,0-0.1,0-0.2L60.6,86l2.5-9.5l3.1,9.7l-1.4,4.5
			c-0.2,0.4,0.1,0.9,0.5,1.1c0.1,0,0.2,0,0.3,0l16.4,0.1c0.5,0,0.8-0.4,0.8-0.8c0-0.1,0-0.2,0-0.3l-1.9-5.1l7.5-43.1l2.8-6
			c0.2-0.4,0-0.9-0.4-1.1c-0.1,0-0.2-0.1-0.3-0.1H76.2c-0.5,0-0.9,0.3-0.9,0.8c0,0.1,0,0.1,0,0.2l0.9,4.9l-4.9,27.8l-7.7-29.7
			c-0.2-0.4-0.6-0.7-1.1-0.5c-0.2,0.1-0.4,0.3-0.5,0.5l-7.4,29.5l-6.2-27.6l0.8-4.9c0-0.3-0.1-0.5-0.3-0.7c-0.2-0.2-0.4-0.3-0.6-0.3
			H35.6C35.6,35.2,35.6,35.2,35.6,35.2z"/>
		<path fill-opacity="0.288" d="M35.3,34.6c-0.8,0.2-1.3,1-1.1,1.8c0,0,0,0,0,0.1l1.4,5h-0.1l10,44.3l-0.9,4.7
			c-0.1,0.8,0.4,1.6,1.3,1.8c0.1,0,0.2,0,0.2,0h14.5c0.8,0,1.5-0.7,1.5-1.5c0-0.1,0-0.2,0-0.3L61.3,86l1.8-7l2.3,7.1l-1.3,4.3
			c-0.1,0.5,0,1,0.2,1.3c0.3,0.4,0.7,0.6,1.2,0.6l16.4,0.1c0.8,0,1.5-0.7,1.5-1.5c0-0.2,0-0.3-0.1-0.5l-1.8-5L89,42.7l2.8-6
			c0.3-0.8,0-1.7-0.8-2c-0.2-0.1-0.4-0.1-0.6-0.1H76.2c-0.8,0-1.5,0.7-1.5,1.5c0,0.1,0,0.2,0,0.2l0.8,4.7l-4.3,24.5L64.3,39
			c-0.1-0.8-0.9-1.4-1.8-1.2c-0.6,0.1-1.1,0.6-1.2,1.2l-6.7,26.6l-5.5-24.7l0.7-4.5c0.1-0.8-0.4-1.6-1.3-1.8c-0.1,0-0.2,0-0.2,0
			H35.6C35.5,34.6,35.4,34.6,35.3,34.6L35.3,34.6z"/>
		<path fill-opacity="0.288" d="M35.2,33.9c-1.2,0.2-1.9,1.4-1.7,2.6c0,0.1,0,0.1,0,0.2l1.4,4.9v0.1l9.9,43.9L44,90.4
			c-0.1,0.6,0.1,1.3,0.5,1.8c0.4,0.5,1,0.8,1.7,0.8h14.5c1.2,0,2.2-1,2.2-2.2c0-0.2,0-0.3,0-0.5l-0.9-4.5l1.3-4.6l1.5,4.8l-1.3,4.1
			c-0.4,1.2,0.3,2.4,1.5,2.7c0.2,0.1,0.4,0.1,0.7,0.1l16.4,0.1c1.2,0,2.2-1,2.2-2.2c0-0.2,0-0.5-0.1-0.7l-1.8-4.8l7.4-42.5l2.8-5.9
			c0.5-1.1,0-2.4-1.1-2.9c-0.3-0.1-0.6-0.2-0.9-0.2H76.2c-1.2,0-2.2,1-2.2,2.2c0,0.1,0,0.3,0,0.4l0.8,4.6L71,62.5l-6.1-23.7
			c-0.3-1.2-1.5-1.8-2.7-1.5c-0.7,0.2-1.3,0.8-1.5,1.5l-6.1,24.1L49.7,41l0.7-4.6c0.2-1.2-0.6-2.3-1.8-2.5c-0.1,0-0.2,0-0.3,0H35.6
			C35.5,33.9,35.3,33.9,35.2,33.9z"/>
		<path fill-opacity="0.288" d="M35.3,33.1c-1.6,0.2-2.8,1.6-2.7,3.3c0,0.2,0,0.3,0.1,0.5l1.4,4.9v0.1l9.9,43.9l-0.9,4.4
			c-0.3,1.6,0.7,3.2,2.3,3.5c0.2,0,0.4,0.1,0.6,0.1h14.5c1,0,1.9-0.5,2.4-1.3c0.6,0.8,1.5,1.3,2.4,1.3l16.4,0.1c1,0,1.9-0.5,2.4-1.3
			c0.5-0.8,0.7-1.8,0.3-2.7l-1.6-4.5l7.3-42.1l2.8-5.8c0.4-0.9,0.4-2-0.2-2.9c-0.5-0.9-1.5-1.4-2.5-1.4H76.2c-1.6,0-3,1.3-3,2.9
			c0,0.2,0,0.4,0,0.5l0.8,4.5l-3.2,17.7l-5.2-20.1c-0.4-1.6-2-2.6-3.6-2.2c-1.1,0.3-2,1.1-2.2,2.2l-5.2,20.7L50.5,41l0.7-4.4
			c0.2-1.6-0.9-3.1-2.5-3.4c-0.2,0-0.3,0-0.5,0H35.6C35.5,33.1,35.4,33.1,35.3,33.1z M63.3,84.2l0.7,2l-0.7,2.2l-0.5-2.2L63.3,84.2z
			"/>
		<path id="m" fill-opacity="0.288" d="M35.6,36.1l1.5,5l10,44.6l-1,5.1h14.6l-1-4.9L63,73.4l4,12.7l-1.4,4.7l16.4,0l-2-5.4
			l7.5-43.2l2.9-6.2l-14.3,0l0.8,5l-5.6,31.8l-8.7-33.5l-8.3,32.9l-7-31.3l0.8-4.9H35.6L35.6,36.1z"/>
	</g>
	<g>
		
			<linearGradient id="SVGID_7_" gradientUnits="userSpaceOnUse" x1="-2215.6506" y1="-303.8847" x2="-2215.4333" y2="-302.915" gradientTransform="matrix(52.6316 0 0 52.6316 116650.9922 16030.3467)">
			<stop  offset="0" style="stop-color:#D99310"/>
			<stop  offset="0.235" style="stop-color:#EED016"/>
			<stop  offset="0.75" style="stop-color:#EED016"/>
			<stop  offset="0.908" style="stop-color:#EED016"/>
			<stop  offset="1" style="stop-color:#D18F0F"/>
		</linearGradient>
		<path fill="url(#SVGID_7_)" d="M35.6,36.1l7.1,5.3l9.5,44.3l-6.1,5.2l1-5.1l-10-44.6L35.6,36.1z"/>
		<path fill="#79230F" d="M52.3,85.6l-6.1,5.2l14.6,0l-5.6-5.2L52.3,85.6L52.3,85.6z"/>
		
			<linearGradient id="SVGID_8_" gradientUnits="userSpaceOnUse" x1="-2215.5144" y1="-303.8876" x2="-2215.322" y2="-302.9733" gradientTransform="matrix(52.6316 0 0 52.6316 116650.9922 16030.3467)">
			<stop  offset="0" style="stop-color:#C53317"/>
			<stop  offset="0.491" style="stop-color:#D98F04"/>
			<stop  offset="0.8" style="stop-color:#D98F04"/>
			<stop  offset="1" style="stop-color:#C23E17"/>
		</linearGradient>
		<path fill="url(#SVGID_8_)" d="M48.2,36.1l-5.5,5.2l9.5,44.3l2.8,0l-0.6-13.8l-6.8-30.7L48.2,36.1L48.2,36.1z"/>
		
			<linearGradient id="SVGID_9_" gradientUnits="userSpaceOnUse" x1="-2215.135" y1="-303.455" x2="-2215.2761" y2="-302.8675" gradientTransform="matrix(52.6316 0 0 52.6316 116650.9922 16030.3467)">
			<stop  offset="0" style="stop-color:#AD3017"/>
			<stop  offset="1" style="stop-color:#CA7512"/>
		</linearGradient>
		<path fill="url(#SVGID_9_)" d="M60.7,90.8l-5.6-5.2L63,55.4l0,18L59.7,86L60.7,90.8L60.7,90.8z"/>
		
			<linearGradient id="SVGID_10_" gradientUnits="userSpaceOnUse" x1="-2215.137" y1="-303.7342" x2="-2215.3386" y2="-303.1155" gradientTransform="matrix(52.6316 0 0 52.6316 116650.9922 16030.3467)">
			<stop  offset="0" style="stop-color:#EBD400"/>
			<stop  offset="0.869" style="stop-color:#EBD400"/>
			<stop  offset="1" style="stop-color:#FFED5B"/>
		</linearGradient>
		<path fill="url(#SVGID_10_)" d="M62.7,39.3l0.3,16l-7.9,30.4L54.6,72L62.7,39.3z"/>
		
			<linearGradient id="SVGID_11_" gradientUnits="userSpaceOnUse" x1="-2215.5745" y1="-303.8957" x2="-2215.5249" y2="-303.7892" gradientTransform="matrix(52.6316 0 0 52.6316 116650.9922 16030.3467)">
			<stop  offset="0" style="stop-color:#FFD40E"/>
			<stop  offset="1" style="stop-color:#FDF8DC"/>
		</linearGradient>
		<path fill="url(#SVGID_11_)" d="M35.6,36.1l7.1,5.3l5.5-5.2L35.6,36.1z"/>
		
			<linearGradient id="SVGID_12_" gradientUnits="userSpaceOnUse" x1="-2215.2114" y1="-303.7526" x2="-2214.978" y2="-302.9481" gradientTransform="matrix(52.6316 0 0 52.6316 116650.9922 16030.3467)">
			<stop  offset="0" style="stop-color:#BC3618"/>
			<stop  offset="0.188" style="stop-color:#BC3618"/>
			<stop  offset="0.411" style="stop-color:#CA850E"/>
			<stop  offset="1" style="stop-color:#C07014"/>
		</linearGradient>
		<path fill="url(#SVGID_12_)" d="M62.7,39.3L63,55.4l7.2,30.3l4.5,0L62.7,39.3L62.7,39.3z"/>
		
			<linearGradient id="SVGID_13_" gradientUnits="userSpaceOnUse" x1="-2215.2209" y1="-303.4406" x2="-2215.0659" y2="-302.9056" gradientTransform="matrix(52.6316 0 0 52.6316 116650.9922 16030.3467)">
			<stop  offset="0" style="stop-color:#FFD206"/>
			<stop  offset="0.902" style="stop-color:#FFD206"/>
			<stop  offset="1" style="stop-color:#D07E10"/>
		</linearGradient>
		<path fill="url(#SVGID_13_)" d="M63,55.4l0,17.9l4,12.7l-1.4,4.7l4.7-5.1L63,55.4L63,55.4z"/>
		<path fill="#79230F" d="M74.7,85.7l-4.4,0l-4.7,5.1l16.4,0L74.7,85.7L74.7,85.7z"/>
		
			<linearGradient id="SVGID_14_" gradientUnits="userSpaceOnUse" x1="-2214.7129" y1="-303.9095" x2="-2214.8875" y2="-302.8565" gradientTransform="matrix(52.6316 0 0 52.6316 116650.9922 16030.3467)">
			<stop  offset="0" style="stop-color:#A42316"/>
			<stop  offset="0.288" style="stop-color:#C57313"/>
			<stop  offset="0.644" style="stop-color:#C57313"/>
			<stop  offset="1" style="stop-color:#C25717"/>
		</linearGradient>
		<path fill="url(#SVGID_14_)" d="M87.5,42.2l2.9-6.1l-7.9,4.5l-7.8,45.1l7.3,5.2l-2-5.4L87.5,42.2L87.5,42.2z"/>
		
			<linearGradient id="SVGID_15_" gradientUnits="userSpaceOnUse" x1="-2214.8481" y1="-303.8869" x2="-2215.0232" y2="-302.9561" gradientTransform="matrix(52.6316 0 0 52.6316 116650.9922 16030.3467)">
			<stop  offset="0" style="stop-color:#CB7C11"/>
			<stop  offset="0.314" style="stop-color:#EED700"/>
			<stop  offset="1" style="stop-color:#EED700"/>
		</linearGradient>
		<path fill="url(#SVGID_15_)" d="M77,41.1l-0.9-5l6.4,4.4l-7.8,45.1l-3.3-12.8L77,41.1z"/>
		
			<linearGradient id="SVGID_16_" gradientUnits="userSpaceOnUse" x1="-2214.7888" y1="-303.8954" x2="-2214.7429" y2="-303.8043" gradientTransform="matrix(52.6316 0 0 52.6316 116650.9922 16030.3467)">
			<stop  offset="0" style="stop-color:#FFD40E"/>
			<stop  offset="1" style="stop-color:#FDF8DC"/>
		</linearGradient>
		<path fill="url(#SVGID_16_)" d="M76.1,36.1l6.4,4.5l8-4.5L76.1,36.1z"/>
	</g>
	<g>
		<path fill-opacity="0.263" d="M63,14.9c-26.5,0-48,21.5-48,48.1s21.5,48.1,48,48.1c26.5,0,48-21.5,48-48.1S89.5,14.9,63,14.9z
			 M62.8,23.2c21.7,0,39.3,17.6,39.3,39.5s-17.6,39.5-39.3,39.5S23.4,84.5,23.4,62.7C23.4,40.8,41.1,23.2,62.8,23.2L62.8,23.2z"/>
		<path fill-opacity="0.278" d="M63,14.2c-26.9,0-48.7,21.9-48.7,48.8c0,26.9,21.8,48.8,48.7,48.8s48.7-21.9,48.7-48.8
			C111.7,36.1,89.9,14.2,63,14.2z M62.8,23.9c21.3,0,38.6,17.3,38.6,38.7s-17.3,38.8-38.6,38.8c-21.3,0-38.7-17.4-38.7-38.8
			C24.1,41.2,41.5,23.9,62.8,23.9z"/>
		<path fill-opacity="0.414" d="M63,13c-27.5,0-49.9,22.4-49.9,50s22.4,50,49.9,50c27.5,0,49.9-22.4,49.9-50S90.5,13,63,13z
			 M62.8,25.1c20.7,0,37.4,16.8,37.4,37.6s-16.7,37.6-37.4,37.6S25.3,83.5,25.3,62.7S42.1,25.1,62.8,25.1z"/>
		
			<linearGradient id="x_1_" gradientUnits="userSpaceOnUse" x1="-2216.1748" y1="-302.9621" x2="-2214.1047" y2="-303.8238" gradientTransform="matrix(52.6316 0 0 52.6316 116650.9922 16030.3467)">
			<stop  offset="0" style="stop-color:#4F2A12"/>
			<stop  offset="0.346" style="stop-color:#CF8D2A"/>
			<stop  offset="0.417" style="stop-color:#E0CE2B"/>
			<stop  offset="0.498" style="stop-color:#F4E37F"/>
			<stop  offset="0.537" style="stop-color:#F4E37F"/>
			<stop  offset="0.605" style="stop-color:#E0CE2B"/>
			<stop  offset="0.687" style="stop-color:#CF8D2A"/>
			<stop  offset="1" style="stop-color:#452A16"/>
		</linearGradient>
		<path id="x" fill="url(#x_1_)" d="M63,15.6c-26.1,0-47.3,21.2-47.3,47.4c0,26.2,21.2,47.4,47.3,47.4s47.3-21.2,47.3-47.4
			C110.3,36.8,89.1,15.6,63,15.6L63,15.6z M62.8,22.5c22.1,0,40.1,18,40.1,40.2s-17.9,40.3-40.1,40.3s-40.1-18-40.1-40.3
			S40.7,22.5,62.8,22.5z"/>
		
			<linearGradient id="SVGID_17_" gradientUnits="userSpaceOnUse" x1="-2214.1074" y1="-301.6731" x2="-2215.1775" y2="-303.1896" gradientTransform="matrix(52.6316 0 0 52.6316 116621.1484 15977.1895)">
			<stop  offset="0" style="stop-color:#FFE02B"/>
			<stop  offset="0.136" style="stop-color:#FFF5C6;stop-opacity:0"/>
			<stop  offset="0.819" style="stop-color:#FFF5C6;stop-opacity:0"/>
			<stop  offset="1" style="stop-color:#FFE02B"/>
		</linearGradient>
		<path fill="url(#SVGID_17_)" d="M61.8,15.9C37,15.9,16.9,36,16.9,60.9s20.1,44.9,44.9,44.9s44.9-20.1,44.9-44.9
			S86.6,15.9,61.8,15.9z M61.6,17.9c23.5,0,42.5,19.1,42.5,42.6s-19,42.7-42.5,42.7S19,84.1,19,60.5S38.2,17.9,61.6,17.9L61.6,17.9z
			"/>
	</g>
</g>
</svg>
