<?xml version="1.0" encoding="utf-8"?>
<!-- Generator: Adobe Illustrator 24.3.0, SVG Export Plug-In . SVG Version: 6.00 Build 0)  -->
<svg version="1.1" id="Layer_1" xmlns="http://www.w3.org/2000/svg" xmlns:xlink="http://www.w3.org/1999/xlink" x="0px" y="0px"
	 viewBox="0 0 126 126" enable-background="new 0 0 126 126" xml:space="preserve">
<g>
	<path fill="#5B3D22" d="M101,113H25c-6.6,0-12-5.4-12-12V25c0-6.6,5.4-12,12-12h76c6.6,0,12,5.4,12,12v76
		C113,107.6,107.6,113,101,113z"/>
	<g>
		<path fill="#FFFFFF" d="M80.8,44.9l-4.2-4.2l-4.5-4.4H53.9l-4.4,4.4l-4.2,4.2h13.3v38.2l4.4,4.3l4.4-4.3V44.9l-4.4-4.2l4.4,4.2
			H80.8z"/>
		<path fill="#FFFFFF" d="M76.5,49.1h-4.2v17l-4.4,4.3l3.1,3l3.1,3l6.7-6.6l0-20.8H76.5z M53.8,66.1v-17h-8.5v20.8l6.7,6.6l3.1-3
			l3.1-3L53.8,66.1z"/>
		<path fill="#FFFFFF" d="M53.2,34L42.4,44.8v26.1L63,91.1l20.6-20.2V44.8L72.8,34H53.2z M40.4,43.5L51.9,32l0.3-0.3h21.5l0.3,0.3
			l11.5,11.5l0.3,0.3v28.1l-0.3,0.3L63.8,93.6L63,94.4l-0.8-0.8L40.4,72.2l-0.3-0.3V43.8L40.4,43.5L40.4,43.5z"/>
	</g>
</g>
</svg>
