<?xml version="1.0" encoding="utf-8"?>
<!-- Generator: Adobe Illustrator 24.3.0, SVG Export Plug-In . SVG Version: 6.00 Build 0)  -->
<svg version="1.1" id="Layer_1" xmlns="http://www.w3.org/2000/svg" xmlns:xlink="http://www.w3.org/1999/xlink" x="0px" y="0px"
	 viewBox="0 0 126 126" enable-background="new 0 0 126 126" xml:space="preserve">
<g>
	<path fill="#EA5E43" d="M91.3,74.7l4.9,21.4l-21.4-4.9L63,109.9l-8.4-13.3c0.7-0.5,0.6-0.5,5.8-6.9c1.7-2.2,1.7-5.2-0.1-7.3l0,0
		l6.4-6.4c1.4-1.4,1.4-3.6,0-5h0c-1.4-1.4-3.6-1.4-5,0c0,0,0,0,0,0l-1.3,1.3c1.4-1.4,1.4-3.6,0-5c-1.4-1.4-3.6-1.4-5,0c0,0,0,0,0,0
		l-1.6,1.6c1.4-1.4,1.4-3.6,0-5c-1.4-1.4-3.6-1.4-5,0l-1.6,1.6c1.4-1.4,1.4-3.6,0.1-5c-1.4-1.4-3.6-1.4-5-0.1c0,0,0,0-0.1,0.1
		c-0.2,0.2-2.5,2.4-2.6,2.6c0,0-7.2,5.3-7.2,5.3c-1.1,0.9-2.1,1.9-3,3.1L16.1,63l18.6-11.7l-4.9-21.4l21.4,4.9L63,16.1l8.4,13.3
		c-0.8,0.6-0.7,0.6-5.8,6.9c-1.7,2.2-1.7,5.2,0.1,7.3l0,0l-6.4,6.4c-1.4,1.4-1.4,3.6,0,5h0c1.4,1.4,3.6,1.4,5,0c0,0,0,0,0,0l1.3-1.3
		c-1.4,1.4-1.4,3.6,0,5c1.4,1.4,3.6,1.4,5,0c0,0,0,0,0,0l1.4-1.4c-1.4,1.7-1.1,3.7,0.1,4.9c1.4,1.4,3.6,1.4,5,0c0,0,0,0,0,0l1.5-1.5
		c-1.3,1.5-1.2,3.7,0.3,5c1.4,1.3,3.5,1.2,4.9-0.1c0.2-0.2,2.5-2.4,2.6-2.6c0,0,7.2-5.3,7.2-5.3c1.1-0.9,2.1-1.9,3-3.1l13.3,8.4
		L91.3,74.7z"/>
	<path fill="#F6B39F" d="M96.2,15c-1.5,1.5-9.1,9.3-11.4,10c-7.9,2.5-6.3,2-11.3,3.3c-0.8,0.2-1.5,0.5-2.1,1
		c-0.8,0.6-0.7,0.6-5.8,6.9c-1.7,2.2-1.7,5.2,0.1,7.3l0,0l-6.4,6.4c-1.4,1.4-1.4,3.6,0,5h0c1.4,1.4,3.6,1.4,5,0c0,0,0,0,0,0l1.3-1.3
		c-1.4,1.4-1.4,3.6,0,5c1.4,1.4,3.6,1.4,5,0c0,0,0,0,0,0l1.4-1.4c-1.4,1.7-1.1,3.7,0.1,4.9c1.4,1.4,3.6,1.4,5,0c0,0,0,0,0,0l1.5-1.5
		c-1.3,1.5-1.2,3.7,0.3,5c1.4,1.3,3.5,1.2,4.9-0.1c0.2-0.2,2.5-2.4,2.6-2.6c0,0,7.2-5.3,7.2-5.3c1.1-0.9,2.1-1.9,3-3.1
		c1.3-1.8,2.1-3.9,2.4-6.1l0.4-3.5c0.1-1.1,0.7-2.2,1.5-3L112,30.9L96.2,15z"/>
	<path fill="#F6B39F" d="M66.7,70.9L66.7,70.9c-1.4-1.4-3.6-1.4-5,0c0,0,0,0,0,0l-1.3,1.3c1.4-1.4,1.4-3.6,0-5s-3.6-1.4-5,0
		c0,0,0,0,0,0l-1.6,1.6c1.4-1.4,1.4-3.6,0-5c-1.4-1.4-3.6-1.4-5,0l-1.6,1.6c1.4-1.4,1.4-3.6,0.1-5c-1.4-1.4-3.6-1.4-5-0.1
		c0,0,0,0-0.1,0.1c-0.2,0.2-2.5,2.4-2.6,2.6c0,0-7.2,5.3-7.2,5.3c-1.1,0.9-2.1,1.9-3,3.1c-1.3,1.8-2.1,3.9-2.4,6.1L26.6,81
		c-0.1,1.1-0.7,2.2-1.5,3L14,95.1l15.8,15.8c1.1-1.1,5.7-5.8,8.8-8.4c1.1-0.9,2-1.5,2.5-1.7c7.9-2.5,6.3-2,11.3-3.3
		c0.8-0.2,1.5-0.5,2.1-1c0.7-0.5,0.6-0.5,5.8-6.9c1.7-2.2,1.7-5.2-0.1-7.3l0,0l6.4-6.4C68,74.5,68,72.3,66.7,70.9L66.7,70.9z"/>
	<path fill="#F8C9C2" d="M23.8,63.5c-0.3-0.5-0.2-1.1,0.3-1.4c0,0,0,0,0,0l14.4-9.3l-3.6-16.8c-0.1-0.5,0.2-1.1,0.8-1.2
		c0.1,0,0.3,0,0.4,0l16.8,3.6l5.2-8c0.3-0.5,0.9-0.6,1.4-0.3c0.5,0.3,0.6,0.9,0.3,1.4l-5.6,8.5c-0.2,0.3-0.6,0.5-1,0.4l-15.9-3.4
		l3.4,15.9c0.1,0.4-0.1,0.8-0.4,1l-14.9,9.7C24.7,64.1,24.1,64,23.8,63.5L23.8,63.5z M60.5,28.5c-0.5-0.3-0.6-0.9-0.3-1.4
		c0,0,0,0,0,0l2-3.1c0.3-0.5,0.9-0.6,1.4-0.3c0.5,0.3,0.6,0.9,0.3,1.4c0,0,0,0,0,0l-2,3.1C61.5,28.7,60.9,28.8,60.5,28.5
		C60.5,28.5,60.5,28.5,60.5,28.5L60.5,28.5z"/>
	<path fill="#F8C9C2" d="M62.5,102.2c-0.5-0.3-0.6-0.9-0.3-1.4l2-3.1c0.3-0.5,0.9-0.6,1.4-0.3c0.5,0.3,0.6,0.9,0.3,1.4c0,0,0,0,0,0
		l-2,3.1C63.5,102.4,62.9,102.5,62.5,102.2C62.5,102.2,62.5,102.2,62.5,102.2L62.5,102.2z M66.6,95.8c-0.5-0.3-0.6-0.9-0.3-1.4
		c0,0,0,0,0,0l5.6-8.5c0.2-0.3,0.6-0.5,1-0.4l15.9,3.4l-3.4-15.9c-0.1-0.4,0.1-0.8,0.4-1l14.9-9.7c0.5-0.3,1.1-0.2,1.4,0.3
		c0.3,0.5,0.2,1.1-0.3,1.4l0,0l-14.4,9.3l3.6,16.8c0.1,0.5-0.2,1.1-0.8,1.2c-0.1,0-0.3,0-0.4,0l-16.8-3.6l-5.2,8
		C67.7,96,67.1,96.1,66.6,95.8C66.6,95.8,66.6,95.8,66.6,95.8L66.6,95.8z"/>
	<path fill="#FBE0E2" d="M89.4,55.6c-0.3-0.4-0.2-1.1,0.2-1.4c0,0,0,0,0,0c3-2.2,3.7-4,4.1-5.6c0.1-0.5,0.6-0.9,1.2-0.8
		s0.9,0.6,0.8,1.2c-0.6,2.7-2,4.7-4.8,6.8C90.3,56.1,89.7,56,89.4,55.6C89.4,55.6,89.4,55.6,89.4,55.6L89.4,55.6z M95,45.9
		c-0.5-0.1-0.9-0.6-0.8-1.1c0,0,0,0,0,0c0.1-0.4,0.1-0.8,0.2-1.2c0.1-0.5,0.6-0.9,1.2-0.8c0.5,0.1,0.9,0.6,0.8,1.2
		c-0.1,0.3-0.1,0.7-0.2,1.1C96.1,45.6,95.6,45.9,95,45.9L95,45.9z"/>
	<path fill="#FBE0E2" d="M30.6,83.3c-0.5,0-1-0.4-1-1c0-0.1,0-0.1,0-0.2c0.1-0.3,0.1-0.7,0.2-1.1c0.1-0.5,0.6-0.9,1.1-0.8
		c0.5,0.1,0.9,0.6,0.8,1.1c-0.1,0.4-0.1,0.8-0.2,1.2C31.5,82.9,31.1,83.3,30.6,83.3z M31.2,78.2c-0.5-0.1-0.9-0.6-0.8-1.2
		c0,0,0,0,0,0c0.6-2.7,2-4.7,4.8-6.8c0.4-0.3,1.1-0.2,1.4,0.2c0.3,0.4,0.2,1.1-0.2,1.4l0,0c-3,2.2-3.7,4-4.1,5.6
		C32.2,77.9,31.7,78.3,31.2,78.2z"/>
	<path d="M92,39.1c-2.6,1.4-4.5,3.7-5.8,6.9c-0.7,1.8-1.2,3.6-1.4,5.5c-0.1,0.5,0.3,1,0.8,1.1c0.5,0.1,1-0.3,1.1-0.8c0,0,0,0,0-0.1
		c0.2-1.7,0.6-3.4,1.3-4.9c1.1-2.8,2.8-4.8,4.9-5.9c0.5-0.3,0.6-0.9,0.4-1.4C93.1,39.1,92.5,38.9,92,39.1L92,39.1z"/>
	<path d="M34,86.9L34,86.9c4.4-2.4,6.7-7.7,7.2-12.4c0.1-0.5-0.3-1-0.8-1.1c-0.5-0.1-1,0.3-1.1,0.8c0,0,0,0,0,0.1
		c-0.4,3.9-2.3,8.8-6.2,10.9c-0.5,0.2-0.7,0.8-0.4,1.3C32.8,86.9,33.4,87.1,34,86.9C33.9,86.9,34,86.9,34,86.9L34,86.9z"/>
	<path d="M100.4,45.1c0.1-0.9,0.5-1.8,1.2-2.4l11.2-11.2c0.4-0.4,0.4-1,0-1.4c-0.4-0.4-1-0.4-1.4,0l-11.2,11.2c-1,1-1.6,2.2-1.7,3.6
		L98,48.4c-0.4,3.4-2.2,6.5-4.9,8.5c0,0,0,0,0,0l-4.8,3.6c-0.2-2.5-2.3-4.4-4.8-4.2c-0.1,0-0.1,0-0.2,0c0.3-2.5-1.5-4.7-4-5
		c-0.3,0-0.7,0-1,0c0.1-0.9-0.1-1.9-0.5-2.7c1.3-0.6,1.5-0.7,1.5-0.8c2.1-1,3-3.6,1.9-5.7c-0.2-0.4-0.5-0.8-0.8-1.1l-0.9-0.9
		c1.3-0.9,2.5-1.9,3.6-3.1c0.4-0.4,0.4-1,0-1.4c0,0,0,0,0,0c-0.4-0.4-1-0.3-1.4,0.1c-3.6,3.9-8.3,5.5-9.7,5.5
		c-0.5,0.1-0.9,0.5-0.9,1.1c0.1,0.5,0.5,0.9,1.1,0.9l0,0h0c2-0.3,3.9-1,5.6-2l1.2,1.2c0.9,0.9,0.9,2.3,0,3.2
		c-0.2,0.2-0.4,0.3-0.6,0.4c-0.3,0.1-1.6,0.8-4.2,2.1c-0.8,0.4-1.9,0.3-2.5-0.4l0,0L66.4,43c-1.5-1.7-1.5-4.3-0.1-6
		c2.4-3,3.7-4.7,4.5-5.6c0.7-1,1.7-1.7,2.9-2c4.6-1.1,4.3-1,11.4-3.3c2.7-0.9,10.4-9,11.8-10.3c0.4-0.4,0.4-1,0-1.4
		c-0.4-0.4-1-0.4-1.4,0c0,0,0,0,0,0c-1.2,1.2-9.2,9.4-11,9.8c-7.7,2.4-5.6,1.8-11.3,3.3c-0.5,0.1-1.1,0.3-1.6,0.6l-7.8-12.4
		c-0.3-0.5-0.9-0.6-1.4-0.3c-0.1,0.1-0.2,0.2-0.3,0.3l-5.5,8.7c-0.3,0.5-0.2,1.1,0.3,1.4c0.5,0.3,1.1,0.1,1.4-0.3L63,18l7.1,11.2
		l0,0c-0.2,0.2-0.4,0.5-0.7,0.9c-0.7,0.9-1.8,2.2-4.5,5.6c-1.8,2.3-2,5.4-0.4,7.9c-3.3,3.3-2,2-5.8,5.8c-1.8,1.8-1.8,4.6,0,6.4
		c1.3,1.3,3.3,1.7,5,1c0.2,2.5,2.5,4.3,4.9,4.1c0.6-0.1,1.1-0.2,1.6-0.5c0.3,2.5,2.6,4.2,5.1,3.9c0.5-0.1,1.1-0.2,1.6-0.5
		c0.3,2.5,2.6,4.2,5.1,3.9c1-0.1,1.9-0.6,2.6-1.3c0.2-0.2,2.4-2.4,2.6-2.6l7.1-5.2l0,0c1-0.7,1.8-1.6,2.6-2.5L108,63L90.8,73.9
		c-0.4,0.2-0.5,0.6-0.4,1.1l4.5,19.9l-19.9-4.5c-0.4-0.1-0.8,0.1-1.1,0.4L63,108l-7.1-11.2c0.7-0.7,2.2-2.7,5.3-6.5
		c1.8-2.3,2-5.4,0.4-7.9l5.8-5.8c1.8-1.8,1.8-4.6,0-6.4c-1.3-1.3-3.3-1.7-5-1c-0.2-2.5-2.5-4.3-5-4.1c-0.6,0.1-1.1,0.2-1.6,0.5
		c-0.1-1-0.6-1.9-1.3-2.6c-1.4-1.4-3.6-1.7-5.4-0.8c-0.1-1-0.6-1.9-1.3-2.6c-1.8-1.8-4.6-1.8-6.4,0c0,0,0,0,0,0
		c-0.2,0.2-2.4,2.4-2.6,2.6l-7.1,5.2l0,0c-1,0.7-1.8,1.6-2.6,2.5L18,63l17.3-10.9c0.4-0.2,0.5-0.6,0.4-1.1l-4.5-19.9l19.9,4.5
		c0.4,0.1,0.8-0.1,1.1-0.4l2-3.2c0.3-0.5,0.2-1.1-0.3-1.4c0,0,0,0,0,0c-0.5-0.3-1.1-0.1-1.4,0.3l-1.7,2.6l-20.8-4.7
		c-0.5-0.1-1.1,0.2-1.2,0.7c0,0.1,0,0.3,0,0.4l4.7,20.8l-18,11.3c-0.5,0.3-0.6,0.9-0.3,1.4c0.1,0.1,0.2,0.2,0.3,0.3l12.5,7.9
		c-1,1.7-1.7,3.7-2,5.7l-0.4,3.5c-0.1,0.9-0.5,1.8-1.2,2.4L13.3,94.4c-0.4,0.4-0.4,1,0,1.4c0.4,0.4,1,0.4,1.4,0l11.2-11.2
		c1-1,1.6-2.2,1.7-3.6l0.4-3.5c0.3-2,1-4,2.2-5.7c0.8-1.1,1.7-2.1,2.8-2.9v0l4.8-3.6c0.2,2.5,2.3,4.4,4.8,4.2c0.1,0,0.1,0,0.2,0
		c-0.3,2.5,1.5,4.7,4,5c0.3,0,0.7,0,1,0c-0.1,0.9,0.1,1.8,0.5,2.7c-1.3,0.6-1.5,0.7-1.5,0.8c-2.1,1-3,3.6-1.9,5.6
		c0.2,0.4,0.5,0.8,0.8,1.1l0.9,0.9c-1.3,0.9-2.5,1.9-3.6,3.1c-0.4,0.4-0.4,1,0,1.4c0.4,0.4,1,0.4,1.4,0c2.6-2.8,5.9-4.8,9.7-5.5
		c0.5-0.1,0.9-0.5,0.9-1.1c-0.1-0.5-0.5-0.9-1.1-0.9c-2,0.3-3.9,1-5.6,2l-1.2-1.2c-0.9-0.9-0.9-2.3,0-3.2c0.2-0.2,0.4-0.3,0.6-0.4
		c0.3-0.1,1.4-0.7,4.2-2.1c0.8-0.4,1.9-0.3,2.5,0.4c0,0,0,0,0,0l5.1,4.8c1.5,1.7,1.5,4.3,0.1,6.1c-2.5,3.1-3.8,4.7-4.6,5.7
		c-0.8,1-1.5,1.6-2.8,1.9c-5,1.2-4,0.9-11.4,3.3c-0.9,0.3-1.8,1-2.8,1.8c-2.8,2.3-6.7,6.2-8.3,7.8c-0.3,0.3-0.5,0.5-0.6,0.6
		c-0.4,0.4-0.4,1,0,1.4c0.4,0.4,1,0.4,1.4,0l0,0v0l0.6-0.6c2.3-2.3,5.7-5.7,8.2-7.7c0.7-0.6,1.4-1.1,2.2-1.5
		c7.4-2.3,4.9-1.7,11.3-3.3c0.5-0.1,1.1-0.3,1.6-0.6l7.8,12.4c0.3,0.5,0.9,0.6,1.4,0.3c0.1-0.1,0.2-0.2,0.3-0.3l11.3-18l20.8,4.7
		c0.5,0.1,1.1-0.2,1.2-0.7c0-0.1,0-0.3,0-0.4l-4.7-20.8l18-11.3c0.5-0.3,0.6-0.9,0.3-1.4c-0.1-0.1-0.2-0.2-0.3-0.3l-12.5-7.9
		c1-1.7,1.7-3.7,2-5.7L100.4,45.1z M66,71.6c1,1,0.9,2.6,0,3.6l-5.7,5.7l-3.7-3.5c5.8-5.8,4-4,5.9-5.9C63.4,70.6,65,70.6,66,71.6
		C66,71.6,66,71.6,66,71.6L66,71.6z M40.5,67c-0.9-0.9-1-2.4-0.2-3.4c0.3-0.3,1.8-1.8,2.5-2.6c1-1,2.6-1,3.6-0.1c1,1,1,2.6,0.1,3.6
		c0,0,0,0-0.1,0.1c-0.5,0.5-2.2,2.2-2.3,2.3C43.1,68,41.5,68,40.5,67z M45.5,72c-1-1-1-2.6,0-3.6l2.3-2.3c0,0,0,0,0,0l1.6-1.6
		c1-1,2.6-1,3.6,0c1,1,1,2.6,0,3.6l0,0l-4,4C48.1,73,46.5,73,45.5,72C45.5,72,45.5,72,45.5,72L45.5,72z M51,76.1l-0.9,0.4
		c-0.6-1-0.4-2.3,0.4-3.1c4.4-4.4,5.2-5.2,5.6-5.6c1-1,2.6-1,3.6,0c1,1,1,2.6,0,3.6L55,76.2C53.7,75.5,52.2,75.4,51,76.1L51,76.1z
		 M85.5,59c0.9,0.9,1,2.4,0.2,3.4c-0.2,0.2-2.3,2.3-2.5,2.6c-1,1-2.6,1-3.6,0c-1-1-1-2.5-0.1-3.5c0,0,2.4-2.4,2.4-2.4
		C82.9,58,84.5,58,85.5,59L85.5,59z M80.5,53.9c1,1,1,2.6,0,3.6c0,0,0,0,0,0c-3.5,3.5-1.3,1.3-4,4c-1,1-2.6,1-3.6,0c0,0,0,0,0,0
		c-0.9-0.9-1.1-2.3-0.1-3.5l4.1-4.1C77.9,53,79.5,52.9,80.5,53.9C80.5,53.9,80.5,53.9,80.5,53.9L80.5,53.9z M64.9,53.1l-1.3,1.3
		c-1,1-2.6,1-3.6,0c-1-1-1-2.6,0-3.6l5.7-5.7l3.7,3.5L64.9,53.1z M66.3,58.1c-1-1-1-2.6,0-3.6c0,0,0,0,0,0l4.7-4.7
		c1.2,0.7,2.7,0.7,4,0.1l0.9-0.4c0.6,1,0.4,2.3-0.4,3.1c-5.3,5.3-3.9,3.9-5.6,5.6C68.9,59.1,67.3,59.1,66.3,58.1
		C66.3,58.1,66.3,58.1,66.3,58.1L66.3,58.1z"/>
	<path d="M54.9,29c0.5,0.3,1.1,0.2,1.4-0.3c0.3-0.5,0.2-1.1-0.3-1.4c-0.5-0.3-1.1-0.1-1.4,0.3C54.3,28.1,54.4,28.7,54.9,29
		C54.9,29,54.9,29,54.9,29z"/>
</g>
</svg>
