<?xml version="1.0" encoding="utf-8"?>
<!-- Generator: Adobe Illustrator 24.3.0, SVG Export Plug-In . SVG Version: 6.00 Build 0)  -->
<svg version="1.1" id="Layer_1" xmlns="http://www.w3.org/2000/svg" xmlns:xlink="http://www.w3.org/1999/xlink" x="0px" y="0px"
	 viewBox="0 0 126 126" enable-background="new 0 0 126 126" xml:space="preserve">
<g>
	<path fill="#ABDDF7" d="M99,111.5h-5.4L82.7,86.9l10.9-24.6H99V111.5z"/>
	<path fill="#DBEFFB" d="M77.3,62.3h16.3v49.2H77.3V62.3z"/>
	<path fill="#4F4F4F" d="M52.8,98.8v9.8l-5.4,2V98.8H52.8z"/>
	<path fill="#353435" d="M69.1,98.8v11.7l-5.4-2v-9.8H69.1z"/>
	<path fill="#CE301B" d="M66.4,67.2H52.8L61,78.4l0,11.6c0,1.6,1.2,2.9,2.7,2.9c1.5,0,2.7-1.3,2.7-2.9L66.4,67.2z"/>
	<path fill="#E74532" d="M50.1,67.2l0,22.9c0,1.6,1.2,2.9,2.7,2.9c1.5,0,2.7-1.3,2.7-2.9l0-11.6c0.8,0.3,1.8,0.5,2.7,0.5
		c1,0,1.9-0.2,2.7-0.5V67.2H50.1z"/>
	<path fill="#58C3F1" d="M63.7,46.7H52.8l-5.4,13.7v11.7h16.3l3.6-11.7L63.7,46.7z"/>
	<path fill="#2DABE2" d="M63.7,56.5v15.6h5.4V60.4L63.7,56.5z"/>
	<path fill="#FFE1A8" d="M65.5,46.7h-1.8v9.8c0,2.2,1.6,3.9,3.6,3.9h1.8v-9.8C69.1,48.4,67.5,46.7,65.5,46.7z"/>
	<path fill="#FFEFD2" d="M52.8,46.7v9.8c0,2.2-1.6,3.9-3.6,3.9h-1.8v-9.8c0-2.2,1.6-3.9,3.6-3.9H52.8z"/>
	<path fill="#E08E4D" d="M58.2,27.4v13.4c4.5,0,8.2-3.9,8.2-8.8v-2L58.2,27.4z"/>
	<path fill="#F5A457" d="M61,27.4l-10.9,2.7v2c0,4.9,3.7,8.8,8.2,8.8c1.5,0,2.7-3.9,2.7-8.8V27.4z"/>
	<path fill="#CE301B" d="M58.2,20.6l2.7,9.5h5.4v-0.7C66.4,24.5,62.7,20.6,58.2,20.6z"/>
	<path fill="#E74532" d="M58.2,20.6c-4.5,0-8.2,3.9-8.2,8.8v0.7H61v-0.7C61,24.5,59.7,20.6,58.2,20.6z"/>
	<path fill="#DBEFFB" d="M35.1,18.9c0,2.4-1.8,4.4-4.1,4.4s-4.1-2-4.1-4.4s1.8-4.4,4.1-4.4S35.1,16.4,35.1,18.9z"/>
	<path d="M99,60.9H77.3c-0.8,0-1.4,0.7-1.4,1.5v49.2c0,0.8,0.6,1.5,1.4,1.5H99c0.8,0,1.4-0.7,1.4-1.5V62.3
		C100.4,61.5,99.8,60.9,99,60.9z M97.7,110.1h-19V63.8h19V110.1z"/>
	<path d="M72.3,110.1l-1.8-0.6V98.8c0-0.8-0.6-1.5-1.4-1.5H65v-3.2c1.6-0.6,2.7-2.2,2.7-4.1l0-16.5h1.4c0.8,0,1.4-0.7,1.4-1.5v-20
		H80c0.7,0,1.4,0.7,1.4,1.5S80.7,55,80,55h-2.7c-0.8,0-1.4,0.7-1.4,1.5c0,0.8,0.6,1.5,1.4,1.5H80c2.2,0,4.1-2,4.1-4.4
		s-1.8-4.4-4.1-4.4h-9.7c-0.6-2.3-2.5-3.9-4.8-3.9H51c-2.3,0-4.2,1.6-4.8,3.9c-7.7-0.6-13.8-7.6-13.8-16.1c0-0.8-0.6-1.5-1.4-1.5
		c-0.8,0-1.4,0.7-1.4,1.5c0,10,7.2,18.2,16.3,19v20.1c0,0.8,0.6,1.5,1.4,1.5h1.4l0,16.5c0,1.9,1.1,3.5,2.7,4.1v3.2h-4.1
		c-0.8,0-1.4,0.7-1.4,1.5v10.7l-1.8,0.6c-0.7,0.3-1.1,1.1-0.9,1.9c0.2,0.6,0.7,1,1.3,1c0.1,0,0.3,0,0.4-0.1l2.7-1c0,0,5.5-2,5.5-2
		c0.6-0.2,0.9-0.8,0.9-1.4V94.2c1.6-0.6,2.7-2.2,2.7-4.1v-9.8c0.9,0.1,1.8,0.1,2.7,0v9.8c0,1.9,1.1,3.5,2.7,4.1v4.6v9.8
		c0,0.6,0.4,1.2,0.9,1.4l5.5,2c0,0,2.7,1,2.7,1c0.1,0.1,0.3,0.1,0.4,0.1c0.6,0,1.1-0.4,1.3-1C73.4,111.2,73,110.4,72.3,110.1z
		 M67.8,50.6v8.3h-0.5c-1.2,0-2.3-1.1-2.3-2.4v-8.3h0.5C66.7,48.2,67.8,49.3,67.8,50.6z M51,48.2h0.5v8.3c0,1.3-1,2.4-2.3,2.4h-0.5
		v-8.3C48.7,49.3,49.7,48.2,51,48.2z M48.7,61.8h0.5c2.7,0,5-2.4,5-5.4v-8.3h8.2v8.3c0,3,2.2,5.4,5,5.4h0.5v8.8h-19V61.8z
		 M48.7,108.5v-8.2h2.7l0,7.2L48.7,108.5z M62.3,78.4c0-0.5-0.2-0.9-0.6-1.2c-0.4-0.3-0.8-0.3-1.2-0.2c-1.5,0.6-3.1,0.6-4.5,0
		c-0.4-0.2-0.9-0.1-1.2,0.2s-0.6,0.7-0.6,1.2v11.6c0,0.8-0.6,1.5-1.4,1.5c-0.7,0-1.4-0.7-1.4-1.5V73.5H65l0,16.5
		c0,0.8-0.6,1.5-1.4,1.5c-0.7,0-1.4-0.7-1.4-1.5L62.3,78.4z M65,100.3h2.7v8.2l-2.7-1L65,100.3z"/>
	<path d="M50.1,42.3c0.8,0,1.4-0.7,1.4-1.5v-1.6c1.7,1.9,4.1,3.1,6.8,3.1c2.7,0,5.1-1.2,6.8-3.1v1.6c0,0.8,0.6,1.5,1.4,1.5
		s1.4-0.7,1.4-1.5V29.4c0-5.7-4.3-10.3-9.5-10.3s-9.5,4.6-9.5,10.3v11.5C48.7,41.6,49.3,42.3,50.1,42.3z M58.2,39.4
		c-3.7,0-6.8-3.3-6.8-7.3v-0.5H65V32C65,36.1,62,39.4,58.2,39.4z M58.2,22c3.5,0,6.4,2.9,6.8,6.6H51.5C51.8,24.9,54.7,22,58.2,22z"
		/>
	<path d="M36.5,18.9c0-3.2-2.4-5.9-5.4-5.9s-5.4,2.6-5.4,5.9s2.4,5.9,5.4,5.9S36.5,22.1,36.5,18.9z M28.3,18.9
		c0-1.6,1.2-2.9,2.7-2.9c1.5,0,2.7,1.3,2.7,2.9s-1.2,2.9-2.7,2.9C29.6,21.8,28.3,20.5,28.3,18.9z"/>
</g>
</svg>
