<?xml version="1.0" encoding="utf-8"?>
<!-- Generator: Adobe Illustrator 24.3.0, SVG Export Plug-In . SVG Version: 6.00 Build 0)  -->
<svg version="1.1" id="Layer_1" xmlns="http://www.w3.org/2000/svg" xmlns:xlink="http://www.w3.org/1999/xlink" x="0px" y="0px"
	 viewBox="0 0 126 126" enable-background="new 0 0 126 126" xml:space="preserve">
<g>
	<g>
		<g>
			<path fill-rule="evenodd" clip-rule="evenodd" fill="#00840F" d="M13,96.3h100v-9.5H13V96.3L13,96.3z M113,39.2v-9.5H63.5v9.5
				H113L113,39.2z M113,58.2v-9.5H63.5v9.5H113L113,58.2z M13,77.3h100v-9.5H13V77.3L13,77.3z"/>
			<polygon fill-rule="evenodd" clip-rule="evenodd" fill="#FF1612" points="13,29.7 63.5,29.7 63.5,58.2 13,58.2 13,29.7 			"/>
			<path fill-rule="evenodd" clip-rule="evenodd" fill="#F0F0F0" d="M13,86.8h100v-9.5H13V86.8L13,86.8z M35.9,54.8h4.2
				c0,0,0-1.4,0.5-1.9c0.6-0.5,1.3-1.4,2-2.3c0.8-0.9,0.8-2,0.9-2.4c0.1-0.4,0.6-2,1-2.3c0.4-0.4,0.7-0.8-0.1-0.8
				c-0.8,0-1.1,0.5-1.5,0.9c-0.4,0.4-0.5,0.9-0.6,1.2c-0.1,0.3-0.3,0.7-0.5,0.9c-0.2,0.1-0.3,0.2-0.3-0.1c-0.1-0.4-0.4-1.3-0.6-2.1
				c-0.2-0.8-0.4-1.1-0.5-2.2c-0.1-1.1-0.3-2.9-0.3-3.6c-0.1-0.6-0.2-1.1-0.5-1.1c-0.3,0-0.6,0.3-0.6,1c0,0.7-0.1,3.5-0.1,3.9
				c0,0.4-0.1,0.2-0.2-0.4c0-0.5-0.1-4-0.2-4.5c0-0.4-0.3-1-0.6-1c-0.4,0-0.7,0.3-0.7,1c0,0.7,0,4.7,0,4.9c0,0.3-0.1,0.3-0.1-0.2
				c0-0.5-0.1-4.2-0.1-4.5c0-0.3-0.2-0.5-0.5-0.5c-0.2,0-0.5,0.3-0.6,0.9c-0.1,0.7-0.1,2.1-0.1,3c0,0.9,0,1.7,0,1.9
				c0,0.2-0.1-0.1-0.1-0.3c0-0.3-0.1-2.9-0.1-3.2c0-0.3-0.2-0.5-0.5-0.5c-0.2,0-0.5,0.2-0.6,0.8c0,0.6-0.2,2.8-0.3,3.2
				c0,0.4,0,0.8,0,1c0,0.2-0.2,0.1-0.2,1.5c0,1.4,0.1,3.2,0.4,4.3c0.3,1.1,1,1.7,1,1.7L35.9,54.8L35.9,54.8z M55.7,44.9l0.5,1.4
				l1.5,0l-1.2,0.9l0.5,1.4l-1.2-0.9l-1.2,0.9l0.5-1.4l-1.2-0.9l1.5,0L55.7,44.9L55.7,44.9z M52,38.3l0.5,1.4l1.5,0l-1.2,0.9
				l0.5,1.4L52,41.2l-1.2,0.9l0.5-1.4L50,39.7l1.5,0L52,38.3L52,38.3z M45.7,33.6l0.5,1.4l1.5,0L46.5,36l0.5,1.4l-1.2-0.9l-1.2,0.9
				l0.5-1.4l-1.2-0.9l1.5,0L45.7,33.6L45.7,33.6z M38.3,32l0.5,1.4l1.5,0l-1.2,0.9l0.5,1.4l-1.2-0.9l-1.2,0.9l0.5-1.4l-1.2-0.9
				l1.5,0L38.3,32L38.3,32z M30.8,33.6l0.5,1.4l1.5,0l-1.2,0.9l0.5,1.4l-1.2-0.9l-1.2,0.9l0.5-1.4L28.8,35l1.5,0L30.8,33.6
				L30.8,33.6z M24.5,38.3l0.5,1.4l1.5,0l-1.2,0.9l0.5,1.4l-1.2-0.9l-1.2,0.9l0.5-1.4l-1.2-0.9l1.5,0L24.5,38.3L24.5,38.3z
				 M20.8,44.9l0.5,1.4l1.5,0l-1.2,0.9l0.5,1.4l-1.2-0.9l-1.2,0.9l0.5-1.4l-1.2-0.9l1.5,0L20.8,44.9L20.8,44.9z M113,48.7v-9.5H63.5
				v9.5H113L113,48.7z M13,67.8h100v-9.5H63.5l0,0H13V67.8L13,67.8z"/>
		</g>
	</g>
	<path opacity="0.35" fill="#FFFFFF" d="M13,29.7v25.5C26.2,62.6,43.7,67,63,67c19.3,0,36.8-4.5,50-11.8V29.7H13z"/>
</g>
</svg>
