<?xml version="1.0" encoding="utf-8"?>
<!-- Generator: Adobe Illustrator 24.3.0, SVG Export Plug-In . SVG Version: 6.00 Build 0)  -->
<svg version="1.1" id="Layer_1" xmlns="http://www.w3.org/2000/svg" xmlns:xlink="http://www.w3.org/1999/xlink" x="0px" y="0px"
	 viewBox="0 0 126 126" enable-background="new 0 0 126 126" xml:space="preserve">
<g>
	<g>
		<polygon fill-rule="evenodd" clip-rule="evenodd" fill="#D20714" points="46.3,29.7 79.7,29.7 79.7,96.3 46.3,96.3 46.3,29.7 		
			"/>
		<polygon fill-rule="evenodd" clip-rule="evenodd" points="13,29.7 46.3,29.7 46.3,96.3 13,96.3 13,29.7 		"/>
		<polygon fill-rule="evenodd" clip-rule="evenodd" fill="#119E07" points="79.7,29.7 113,29.7 113,96.3 79.7,96.3 79.7,29.7 		"/>
		<g>
			<path fill-rule="evenodd" clip-rule="evenodd" fill="#FFFFFF" d="M60.8,53.7c0.1-0.1,0.3-0.2,0.3-0.3c0.1-0.1,0.2,0.1,0.2,0.1
				c0.1,0.1,0.1,0,0.2-0.2c0.1-0.2,0.1-0.2,0.2-0.3c0.1-0.1,0.5-0.4,0.6-0.5c0.1-0.1,0.2,0.1,0.1,0.2c-0.1,0.1-0.6,0.5-0.7,0.6
				c-0.1,0.1-0.1,0.1-0.1,0.4c-0.1,0.2-0.3,0.2-0.3,0.1c0-0.1-0.1-0.2-0.2,0c0,0.1-0.2,0.3-0.3,0.2C60.8,53.9,60.8,53.9,60.8,53.7
				C60.6,53.7,60.7,53.7,60.8,53.7L60.8,53.7z M71.8,51.3c-0.1,0.3-0.4,1-0.8,1.3c-0.4,0.4-0.7,0.4-1,0.2c-0.3-0.1-0.3-0.1-0.3,0
				c0,0.1,0.1,0.1,0.3,0.2c0.2,0.1,0.7,0.1,1.1-0.3c0.4-0.4,0.6-1,0.9-1.3c0.2-0.2,0.4-0.5,0.2-0.7c-0.1-0.2-0.2-0.2-0.3,0
				C71.9,51,71.8,51.1,71.8,51.3L71.8,51.3z M70.5,50.8c0,0-0.5,1-0.8,1.3c-0.3,0.3-0.5,0.4-0.5,0c0-0.3,0-0.7-0.3-0.6
				c-0.3,0.1-0.5,0.3-0.8,0.2c-0.2-0.1-0.3-0.4-0.4-0.4c-0.1,0-0.1,0.2-0.1,0.3c0,0.1,0.3,0.4,0.7,0.3c0.4-0.1,0.6-0.3,0.6-0.1
				c0,0.2,0,0.7,0.3,0.7c0.2,0,0.5-0.2,0.9-0.7c0.3-0.6,0.5-0.9,0.5-0.9s0.1,0.5,0.1,0.6c0,0.1-0.3,0.5-0.4,0.7
				c-0.1,0.2,0.1,0.3,0.1,0.2c0.1-0.1,0.3-0.6,0.3-0.6s0,0.4,0,0.6c0,0.1,0,0.2,0.1,0.1c0.1-0.1,0-0.7,0-0.9c0-0.1,0.4-0.7,0.6-0.8
				c0.1-0.1,0.2-0.4,0.1-0.5c-0.1-0.1-0.1-0.1-0.2,0.1c-0.1,0.2-0.5,0.9-0.5,0.9l-0.1-0.7c0,0,0.2-0.3,0.3-0.5
				c0.1-0.2-0.1-0.3-0.2-0.2c-0.1,0.1-0.2,0.4-0.2,0.4s-0.1-0.6-0.3-0.8c-0.2-0.2-0.3,0.1-0.3,0.2C70.1,49.9,70.5,50.5,70.5,50.8
				L70.5,50.8z M69.3,50.5c0.1,0.1,0.2,0.2,0.3,0.1c0.1-0.1-0.1-0.1-0.1-0.2C69.4,50.4,69.2,50.4,69.3,50.5L69.3,50.5z M69.7,51.3
				c-0.2,0-0.4,0.1-0.6,0c-0.4-0.2,0.4-0.2,0.5-0.1C69.8,51.2,69.9,51.3,69.7,51.3L69.7,51.3z M69.1,49.3c-0.1,0.3-0.7,1.7-0.8,1.8
				c-0.1,0.2,0,0.3,0.1,0.1c0.1-0.2,1-1.9,1.1-2C69.6,49.1,69.3,48.8,69.1,49.3L69.1,49.3z M68.3,49.1c-0.1,0.3-0.4,1.5-0.5,1.6
				c-0.1,0.2-0.4,0.6-1,0.6c-0.6,0-0.2,0.2-0.1,0.2c0.2,0,1,0.1,1.2-0.5c0.2-0.6,0.3-1.4,0.5-1.6c0.2-0.1,0.2-0.3,0.1-0.5
				C68.6,48.7,68.4,48.8,68.3,49.1L68.3,49.1z M68.2,48.7c-0.1,0-0.5,0-0.5,0.2c0,0.2,0.4,0.1,0.5,0C68.3,48.8,68.4,48.7,68.2,48.7
				L68.2,48.7z M68,49.5c-0.1,0.1-0.5,0.1-0.5-0.1c0-0.2,0.1-0.2,0.2-0.1c0.1,0.1,0.1,0,0.2-0.1C68,49.1,68.1,49.4,68,49.5L68,49.5z
				 M66.9,49.9c-0.1,0.4-0.3,0.9-0.3,1.1c0,0.2,0.2,0.3,0.2,0.1c0.1-0.2,0.2-1,0.2-1.1c0-0.1,0.1,0,0.1,0.2c0,0.1,0.2,0.6,0.3,0.8
				c0.1,0.1,0.2,0,0.1-0.2c-0.1-0.2-0.4-0.9-0.5-1.1c0-0.2,0.2-0.9,0.3-1.1c0.1-0.2-0.1-0.4-0.2-0.2c-0.1,0.2-0.1,0.7-0.2,0.8
				c0,0.1-0.1,0.1-0.2,0c-0.1-0.1-0.5-0.9-0.6-1c-0.1-0.1-0.2,0-0.2,0c-0.1,0.1-0.1,0.2,0.1,0.4c0.2,0.2,0.5,0.6,0.7,0.8
				C66.9,49.5,66.9,49.6,66.9,49.9L66.9,49.9z M63.3,49.9c0,0.2,0,0.7,0.2,0.7c0.2,0,0.6-0.8,0.8-1c0.1-0.2,0.3-0.2,0.2,0
				c-0.1,0.2-0.1,0.6-0.1,0.9c0,0.3,0.1,0.4,0.3,0.3c0.2-0.1,0.4-0.2,0.4-0.4c0-0.3,0-0.6,0-0.9c0-0.2,0.2-0.3,0.2-0.1
				c0,0.1,0,1,0,1.2c0,0.1,0.1,0.3,0.3,0.3c0.2,0,0.2-0.2,0.3-0.4c0-0.3,0.1-0.5,0-0.6c-0.1-0.2-0.1-0.2-0.1-0.3
				c0.1-0.1,0.3,0.1,0.3,0.2c0.1,0.2,0,0.5-0.1,0.6c0,0.2,0.1,0.3-0.2,0.6c-0.2,0.2-0.5,0.1-0.6,0c-0.2-0.1-0.3-0.1-0.5,0.1
				c-0.1,0.1-0.4,0.2-0.5,0c-0.1-0.2-0.1-0.4-0.1-0.6c0-0.2-0.1-0.2-0.2,0c-0.1,0.2-0.3,0.5-0.4,0.6c-0.1,0.1-0.3-0.1-0.4-0.3
				c-0.1-0.3-0.1-0.5,0-0.6C63.2,49.8,63.4,49.7,63.3,49.9L63.3,49.9z M65.6,48.8c0.1-0.1,0-0.2-0.1-0.3c-0.1-0.1-0.1,0.2-0.2,0.3
				c-0.1,0.1,0-0.1-0.1-0.1c-0.1,0-0.1,0.2-0.1,0.1c-0.1,0-0.1-0.2-0.2-0.1C64.6,48.9,65.4,49,65.6,48.8L65.6,48.8z M65.1,48
				c0,0.1,0.2,0.3,0.2,0C65.3,47.8,65.1,47.8,65.1,48L65.1,48z M64.3,48c-0.1,0.1-0.2,0.2-0.2,0.3c0.1,0.1,0.2-0.1,0.3-0.2
				C64.5,48,64.5,47.9,64.3,48L64.3,48z M62.9,47.5c-0.1,0.2-0.4,0.4-0.3,0.5c0.1,0.1,0.4-0.3,0.5-0.4
				C63.2,47.4,63.1,47.2,62.9,47.5L62.9,47.5z M62.2,48.3c-0.1,0.1-0.2,0-0.2,0.1s0.1,0.2,0.2,0.1c0.1,0,0.2-0.1,0.2-0.2
				C62.4,48.2,62.3,48.1,62.2,48.3L62.2,48.3z M62,47.8c0.1-0.1,0.2-0.2,0.3-0.2c0.1,0,0.1,0,0.1,0.1c-0.1,0.1-0.2,0.2-0.3,0.2
				C62,48,61.8,47.9,62,47.8L62,47.8z M59.8,49.4c0,0,0.3-0.3,0.5-0.4c0.1-0.1,0.2,0.1,0.1,0.2c-0.1,0.1-0.4,0.3-0.5,0.4
				C59.8,49.5,59.7,49.5,59.8,49.4L59.8,49.4z M60.3,50.4c0,0-0.4,0.4-0.6,0.6c-0.1,0.1-0.1,0.4,0.1,0.3c0.1-0.1,0.6-0.6,0.6-0.6
				s0.6,0.4,1.4-0.5c0,0,0.1-0.1,0.2,0c0.1,0.1,0.4,0.7,0.6,0.7c0.2,0,0.2-0.1,0.1-0.3c-0.1-0.1-0.3-0.4-0.3-0.4
				c0,0,0.3-0.5,0.5-0.5c0.3-0.1,0.7,0,0.8-0.1c0.2-0.1,0.3-0.2,0.2-0.2c-0.1-0.1-1.2,0.1-1.4-0.1c-0.2-0.2,0.5-0.6,0.6-0.6
				c0.2,0,0.4-0.1,0.5-0.3c0.1-0.5-0.5-0.4-0.5-0.2c0,0.1,0.1,0.1,0.2,0.1c0.1,0.1,0,0.1-0.1,0.2c-0.1,0.1-0.3,0-0.4,0.1
				c-0.1,0.1-0.5,0.3-0.6,0.5c-0.1,0.2-0.2,0.3,0.1,0.4c0.3,0,0.4,0,0.4,0.1c0.1,0,0.1,0,0,0.1c-0.1,0-0.2,0.1-0.2,0.2
				c0,0.1-0.2,0.2-0.2,0.2S62,49.3,61.9,49c-0.1-0.2-0.2-0.5-0.2-0.7c-0.1-0.2-0.2-0.2-0.2-0.1c-0.1,0.1-0.1,0.2,0.1,0.4
				c0.1,0.2,0.3,0.7,0.4,0.8c0.1,0.1,0,0.3-0.1,0.5c-0.2,0.2-0.8,0.7-1.1,0.5c0,0,0.4-0.5,0.5-0.7c0.1-0.2,0.2-0.4,0.1-0.6
				C61.1,49,60.9,49,60.8,49c-0.1,0.1-0.1,0.2,0,0.3c0.1,0.1,0.2,0.3,0.1,0.4c-0.1,0.1-0.4,0.5-0.4,0.5s-0.1-0.3-0.1-0.5
				c0-0.2,0-0.3-0.1-0.3c0,0-0.1,0.1-0.1,0.2C60.3,49.8,60.3,50.1,60.3,50.4L60.3,50.4z M59.6,50.2c0,0.1,0.1,0.1,0.1,0.1
				C59.9,50.2,59.4,49.9,59.6,50.2L59.6,50.2z M56,49.4c-0.1,0.1-0.1,0.1-0.1,0.2c0,0.1,0,0.2,0.1,0.1c0.1-0.1,0.1-0.1,0.1-0.2
				C56.1,49.4,56.1,49.4,56,49.4L56,49.4z M55,50.4c0.1,0.1,0.2,0.1,0.2,0.1C55.2,50.4,54.9,50.2,55,50.4L55,50.4z M55.1,51.1
				c0.1,0.1,0.3,0,0.3-0.1c0-0.1,0.1-0.1,0.3-0.2c0.1-0.1,0.1-0.2,0.1-0.3c-0.1-0.1-0.2-0.2-0.3-0.2c-0.1,0.1-0.1,0.1,0,0.2
				c0.1,0.1,0.2,0.2,0.2,0.2c0,0-0.2,0-0.2,0c-0.1,0,0,0-0.1,0.2c0,0.2-0.1,0-0.2,0C55.1,51,55,51.1,55.1,51.1L55.1,51.1z
				 M54.4,52.4c0,0.1,0.2,0.3,0.3,0.1c0.1-0.2,0-0.2-0.1-0.2C54.5,52.2,54.4,52.2,54.4,52.4L54.4,52.4z M54.3,51.6
				c-0.1,0.1,0,0.1,0,0.2c0.1,0.1,0.3-0.1,0.4-0.3c0.1-0.2,0-0.2-0.1-0.3c-0.1-0.1-0.3-0.2-0.3-0.1c-0.1,0.1,0,0.2,0.1,0.2
				c0.1,0.1,0.2,0,0.2,0.1C54.5,51.5,54.4,51.5,54.3,51.6L54.3,51.6z M57.4,49c-0.1,0.2-0.1,0.4,0,0.3c0.1-0.2,0.3-0.3,0.3-0.4
				c0.1-0.4-0.3-0.3-0.3-0.1c0,0.1,0.1,0.1,0.1,0.1C57.5,48.9,57.5,48.9,57.4,49L57.4,49z M56.5,49.4c0.2,0.3,0.9,1.3,1.1,1.6
				c0.1,0.2,0.3,0.3,0.3,0.2c0-0.1-0.1-0.3-0.2-0.6c-0.2-0.2-0.7-1-0.8-1.2C56.7,49.1,56.3,49,56.5,49.4L56.5,49.4z M57.4,51
				c0.1,0.3,0.3,0.6,0.7,0.5c0.7-0.2,1-0.8,0.6-1.5c0,0-0.3,0.2-0.4,0.3c-0.1,0.1-0.3-0.1-0.2-0.2c0.1-0.1,0.5-0.3,0.5-0.3
				s-0.4-0.7-0.5-1c-0.1-0.3-0.1-0.4,0.1-0.4c0.2,0,0.1,0.1,0.2,0.3c0,0.2,0.4,1,0.4,1s0.4-0.3,0.5-0.6c0.1-0.2,0-0.2-0.1-0.2
				c-0.9,0.2-0.4-1-0.1-0.6c0.1,0.1,0.1,0.2,0.2,0.3c0.1,0.1,0.3-0.1,0.4-0.2c0.1-0.1,0.1-0.2,0.1-0.3c0.1-0.1,0.1-0.1,0.2,0
				c0.1,0.1,0.1,0.1,0.1,0.2c0.1,0.1,0.2,0,0.3-0.2c0.1-0.2,0.2-0.1,0.2-0.1c0.2,0.4,0.2-0.2,0.3-0.3c0.1-0.1,0.1-0.1,0.1,0.1
				c0,0.1,0,0.3,0,0.4c0,0.1-0.2,0.2-0.3,0.1c-0.1-0.1-0.2,0-0.3,0.1c-0.1,0.1-0.2,0.1-0.3,0c-0.1-0.1-0.3-0.1-0.4,0.1
				c-0.4,0.6-0.2,0.8-0.9,1.2c0.3,0.6,0.3,1.1-0.2,1.6c-0.4,0.4-1.3,0.4-1.4-0.3C57.3,51,57.4,50.8,57.4,51L57.4,51z M59.1,48.7
				c0.1,0,0-0.2,0-0.3C58.9,48.3,58.8,48.7,59.1,48.7L59.1,48.7z M55,53.1c0.2,0.1,0.2,0,0.2-0.2c0-0.2-0.1-0.6-0.1-0.8
				c0-0.2,0.2-0.3,0.3-0.1c0.1,0.2,0.3,0.4,0.5,0.5c0.2,0.2,0.5-0.4,0.3-0.6c-0.2-0.2-0.3-0.4-0.4-0.5c-0.1-0.1,0-0.3,0.2-0.2
				c0.1,0.1,0.4,0.6,0.5,0.7c0.1,0.1,0.3,0,0.3-0.1c0.1-0.1,0.1-0.1,0-0.3c-0.1-0.1-0.4-0.4-0.5-0.5c-0.1-0.1-0.1-0.2,0-0.3
				c0-0.1,0.2-0.1,0.3,0.1c0.3,0.3,0.8,0.7,0.4,1.2c-0.2,0.2-0.4-0.2-0.6,0.4c-0.3,0.5-0.4,0.4-0.5,0.3c-0.1-0.1-0.3-0.3-0.4-0.4
				c-0.1-0.1-0.2-0.1-0.1,0.1c0,0.1,0.1,0.6,0.1,0.7c0,0.2-0.1,0.2-0.3,0.2c-0.2,0-0.3-0.1-0.3-0.2C54.7,53.1,54.9,53,55,53.1
				L55,53.1z M59.5,51.8l1.4,0.7c0,0,0.8-0.4,2.1-0.4s2,0.4,2,0.4l1.4-0.7L65,52.4l0.6-0.5l-0.9,0.4l0.7-0.8l-1.1,0.7l0.3-0.6
				L64,52.1l0.2-0.9L63.5,52l0-0.6L63.2,52l-0.3-0.9L62.7,52l-0.3-0.6l0,0.6l-0.7-0.8l0.2,0.9l-0.6-0.5l0.3,0.6l-1.1-0.7l0.7,0.8
				l-0.9-0.4l0.6,0.5L59.5,51.8L59.5,51.8z M64.8,53.3c0,0.2-0.1,0.4,0,0.5c0.1,0.1,0.1-0.3,0.1-0.5c0-0.2,0.1-0.2,0.2-0.3
				c0.1,0,0.1-0.2,0-0.2c-0.1-0.1-0.1,0.1-0.2,0.2c-0.1,0.1-0.2,0-0.2,0.1C64.7,53.2,64.8,53.2,64.8,53.3L64.8,53.3z M63.9,52.7
				c0,0.2-0.1,0.4,0.1,0.3c0.1,0,0.1-0.2,0.1-0.3C64.1,52.6,64,52.6,63.9,52.7L63.9,52.7z M63.2,53.5c-0.1,0.1-0.1,0.3,0.1,0.3
				c0.2,0,0.2-0.1,0.2-0.2c0-0.1,0.1,0,0.1,0.1c0,0.1,0,0.3,0.2,0.2c0.2-0.1,0.3-0.1,0.4-0.1c0.2,0,0.3-0.1,0.3-0.3
				c0-0.2-0.1-0.4-0.2-0.2c-0.1,0.2,0,0.2-0.1,0.3c-0.1,0.1-0.2,0-0.1-0.1c0-0.2-0.1-0.4-0.1-0.2c0,0.2,0,0.3-0.1,0.4
				c-0.1,0-0.1,0-0.2-0.2C63.6,53.3,63.3,53.4,63.2,53.5L63.2,53.5z M62.3,53.3c0,0.1-0.1,0.2-0.1,0.4c0,0.2,0.1,0.2,0.1,0.1
				c0.1-0.1,0-0.5,0.1-0.6c0-0.1,0.1-0.1,0.2-0.2c0.2-0.2-0.4-0.1-0.4,0C62.1,53.2,62.3,53.1,62.3,53.3L62.3,53.3z"/>
			<g>
				<g>
					
						<path fill-rule="evenodd" clip-rule="evenodd" fill="none" stroke="#C68126" stroke-width="5.246400e-02" stroke-miterlimit="2.4142" d="
						M68.9,62c0,0,0.9,0.4,1.1,0.8c0.2,0.4,0.2,0.6,0.3,1c0.1,0.4,0.3,1.3,0.5,1.7c0,0,1-1.1,1.1-1.1c0.1-0.1,0-0.4-0.1-0.7
						c0-0.2,0.1-1.2-0.1-1.6c-0.2-0.4-0.3-0.4-0.6-0.8c-0.3-0.3-0.6-0.6-0.8-0.8c-0.2-0.2-0.4-0.3-0.4-0.3L68.9,62L68.9,62z"/>
					
						<path fill-rule="evenodd" clip-rule="evenodd" fill="#FFFFFF" stroke="#C68126" stroke-width="5.246400e-02" stroke-miterlimit="2.4142" d="
						M70.5,64.4c0.1,0.4,0.2,0.8,0.4,1.1c0,0,1-1.1,1.1-1.1c0.1-0.1,0-0.4-0.1-0.7c0-0.1,0-0.3,0-0.6C71.7,63.7,70.7,63.3,70.5,64.4
						L70.5,64.4z"/>
					
						<path fill-rule="evenodd" clip-rule="evenodd" fill="#FFFFFF" stroke="#C68126" stroke-width="5.246400e-02" stroke-miterlimit="2.4142" d="
						M68.9,62c0,0,0.9,0.4,1.1,0.8c0.4-0.9,1.3-0.5,1.2-1.4c-0.3-0.3-0.6-0.6-0.8-0.8c-0.2-0.2-0.4-0.3-0.4-0.3L68.9,62L68.9,62z"/>
					<g>
						<polygon fill="#FFFFFF" stroke="#C68126" stroke-width="5.246400e-02" stroke-miterlimit="2.4142" points="70.3,59.9 
							67.3,64.7 67.2,64.7 70.2,59.8 70.3,59.9 						"/>
						
							<path fill-rule="evenodd" clip-rule="evenodd" fill="#FFFFFF" stroke="#C68126" stroke-width="5.246400e-02" stroke-miterlimit="2.4142" d="
							M70.3,59.4c0.2,0,0.3,0.1,0.3,0.3c0,0.2-0.1,0.3-0.3,0.3c-0.2,0-0.3-0.1-0.3-0.3C70,59.6,70.1,59.4,70.3,59.4L70.3,59.4z"/>
					</g>
				</g>
				<g>
					
						<path fill-rule="evenodd" clip-rule="evenodd" fill="none" stroke="#C68126" stroke-width="5.246400e-02" stroke-miterlimit="2.4142" d="
						M57,62c0,0-0.9,0.4-1.1,0.8c-0.2,0.4-0.2,0.6-0.3,1c-0.1,0.4-0.3,1.3-0.5,1.7c0,0-1-1.1-1.1-1.1c-0.1-0.1,0-0.4,0.1-0.7
						c0-0.2-0.1-1.2,0.1-1.6c0.2-0.4,0.3-0.4,0.6-0.8c0.3-0.3,0.6-0.6,0.8-0.8c0.2-0.2,0.4-0.3,0.4-0.3L57,62L57,62z"/>
					
						<path fill-rule="evenodd" clip-rule="evenodd" fill="#FFFFFF" stroke="#C68126" stroke-width="5.246400e-02" stroke-miterlimit="2.4142" d="
						M55.5,64.4c-0.1,0.4-0.2,0.8-0.4,1.1c0,0-1-1.1-1.1-1.1c-0.1-0.1,0-0.4,0.1-0.7c0-0.1,0-0.3,0-0.6
						C54.2,63.7,55.2,63.3,55.5,64.4L55.5,64.4z"/>
					
						<path fill-rule="evenodd" clip-rule="evenodd" fill="#FFFFFF" stroke="#C68126" stroke-width="5.246400e-02" stroke-miterlimit="2.4142" d="
						M57,62c0,0-0.9,0.4-1.1,0.8c-0.4-0.9-1.3-0.5-1.2-1.4c0.3-0.3,0.6-0.6,0.8-0.8c0.2-0.2,0.4-0.3,0.4-0.3L57,62L57,62z"/>
					<g>
						<polygon fill="#FFFFFF" stroke="#C68126" stroke-width="5.246400e-02" stroke-miterlimit="2.4142" points="55.7,59.9 
							58.6,64.7 58.7,64.7 55.8,59.8 55.7,59.9 						"/>
						
							<path fill-rule="evenodd" clip-rule="evenodd" fill="#FFFFFF" stroke="#C68126" stroke-width="5.246400e-02" stroke-miterlimit="2.4142" d="
							M55.7,59.4c-0.2,0-0.3,0.1-0.3,0.3c0,0.2,0.1,0.3,0.3,0.3s0.3-0.1,0.3-0.3C56,59.6,55.8,59.4,55.7,59.4L55.7,59.4z"/>
					</g>
				</g>
				<polygon fill-rule="evenodd" clip-rule="evenodd" fill="#FFFFFF" points="57.4,68.5 68.7,68.5 69.9,69.5 56.1,69.5 57.4,68.5 
									"/>
				
					<path fill-rule="evenodd" clip-rule="evenodd" fill="#FFFFFF" stroke="#C68126" stroke-width="5.246400e-02" stroke-miterlimit="2.4142" d="
					M58.4,66.7h1.2c0,0,0,0.1,0,0.2s0.1,0.4,0.3,0.4c0.2,0,1.2,0,1.2,0v0.9h-3.6C57.6,68.2,58.5,67.5,58.4,66.7L58.4,66.7z"/>
				
					<polygon fill-rule="evenodd" clip-rule="evenodd" fill="#FFFFFF" stroke="#C68126" stroke-width="5.246400e-02" stroke-miterlimit="2.4142" points="
					58.4,65.7 59.9,65.7 59.9,66.5 58.4,66.5 58.4,65.7 				"/>
				
					<polygon fill-rule="evenodd" clip-rule="evenodd" fill="#FFFFFF" stroke="#C68126" stroke-width="5.246400e-02" stroke-miterlimit="2.4142" points="
					61.2,67.2 62.2,67.2 62.1,66.5 61.2,66.5 61.2,67.2 				"/>
				
					<polygon fill-rule="evenodd" clip-rule="evenodd" fill="#FFFFFF" stroke="#C68126" stroke-width="5.246400e-02" stroke-miterlimit="2.4142" points="
					62.2,67.2 62.9,67.2 63.3,68.1 62.5,68.1 62.2,67.2 				"/>
				
					<polygon fill-rule="evenodd" clip-rule="evenodd" fill="#FFFFFF" stroke="#C68126" stroke-width="5.246400e-02" stroke-miterlimit="2.4142" points="
					62.9,67.2 63.7,67.2 63.3,66.5 62.7,66.5 62.9,67.2 				"/>
				
					<polygon fill-rule="evenodd" clip-rule="evenodd" fill="#FFFFFF" stroke="#C68126" stroke-width="5.246400e-02" stroke-miterlimit="2.4142" points="
					63.7,67.2 64.7,67.2 65.5,68.1 64.3,68.1 63.7,67.2 				"/>
				
					<path fill-rule="evenodd" clip-rule="evenodd" fill="#FFFFFF" stroke="#C68126" stroke-width="5.246400e-02" stroke-miterlimit="2.4142" d="
					M61.2,66.5h-0.9v-3.6h0v0c0-0.7,0.3-1.3,0.8-1.8c0.4-0.4,1.1-0.7,1.7-0.8v0h-4.3v-0.1h9v0.1h-4.3v0c0.7,0,1.3,0.3,1.8,0.8
					c0.5,0.5,0.8,1.1,0.8,1.8v0.8h-0.1v-0.8c0-0.7-0.3-1.3-0.7-1.7c-0.4-0.4-1.1-0.7-1.7-0.7h-0.2c-0.7,0-1.3,0.3-1.7,0.7
					c-0.4,0.4-0.7,1.1-0.7,1.8h0.8h1.6v0.4l0.4,0.3l0.7,0.2v0.6l0.5,0.1v0.6l0.6,0.3V66l0.4,0.2v0.6l0.5,0.4h-1.3l-0.8-0.8l-0.6,0
					l-0.5-0.7h-0.3l0.2,0.7h-0.6l-0.2-0.7h-0.7V66.5L61.2,66.5z M65.7,64.2v1.2h-0.1v-1.2H65.7L65.7,64.2z"/>
				
					<path fill-rule="evenodd" clip-rule="evenodd" fill="#FFFFFF" stroke="#C68126" stroke-width="5.246400e-02" stroke-miterlimit="2.4142" d="
					M62.6,65.7h-0.5v-1c0-0.5-0.4-0.8-0.5-0.8c-0.2,0-0.5,0.3-0.5,0.8v1h-0.5v-2.4h2.1V65.7L62.6,65.7z"/>
				
					<polygon fill-rule="evenodd" clip-rule="evenodd" fill="#FFFFFF" stroke="#C68126" stroke-width="5.246400e-02" stroke-miterlimit="2.4142" points="
					61.3,64.4 61.8,64.4 61.8,65.7 61.3,65.7 61.3,64.4 				"/>
				
					<polygon fill-rule="evenodd" clip-rule="evenodd" fill="#FFFFFF" stroke="#C68126" stroke-width="5.246400e-02" stroke-miterlimit="2.4142" points="
					62.7,63.4 62.7,65.7 63.3,65.7 64.6,66.8 64.6,66.2 64.2,65.9 64.2,65.4 63.6,65.1 63.6,64.5 63,64.3 63,63.6 62.7,63.4 				"/>
				
					<polygon fill-rule="evenodd" clip-rule="evenodd" fill="#FFFFFF" stroke="#C68126" stroke-width="5.246400e-02" stroke-miterlimit="2.4142" points="
					63.1,63.8 63.8,63.8 63.8,64.3 63.1,64.3 63.1,63.8 				"/>
				
					<polygon fill-rule="evenodd" clip-rule="evenodd" fill="#FFFFFF" stroke="#C68126" stroke-width="5.063200e-02" stroke-miterlimit="2.4142" points="
					63.7,64.5 64.3,64.5 64.3,65 63.7,65 63.7,64.5 				"/>
				
					<polygon fill-rule="evenodd" clip-rule="evenodd" fill="#FFFFFF" stroke="#C68126" stroke-width="5.246400e-02" stroke-miterlimit="2.4142" points="
					64.3,65.4 64.9,65.4 64.9,65.9 64.3,65.9 64.3,65.4 				"/>
				
					<polygon fill-rule="evenodd" clip-rule="evenodd" fill="#FFFFFF" stroke="#C68126" stroke-width="5.246400e-02" stroke-miterlimit="2.4142" points="
					64.7,66.3 65.3,66.3 65.3,66.8 64.7,66.8 64.7,66.3 				"/>
				
					<path fill-rule="evenodd" clip-rule="evenodd" fill="#FFFFFF" stroke="#C68126" stroke-width="5.246400e-02" stroke-miterlimit="2.4142" d="
					M67.5,66.7c-0.2,0-0.4,0-0.7,0c-0.2,0-0.4,0-0.7,0c0,0.5-0.1,1-0.5,1.4c0.5,0,0.7,0,1.2,0c0.5,0,1,0,1.4,0
					C67.7,67.8,67.5,67.2,67.5,66.7L67.5,66.7z"/>
				
					<polygon fill-rule="evenodd" clip-rule="evenodd" fill="#FFFFFF" stroke="#C68126" stroke-width="5.246400e-02" stroke-miterlimit="2.4142" points="
					66.2,65.7 67.6,65.7 67.6,66.5 66.2,66.5 66.2,65.7 				"/>
				
					<polygon fill-rule="evenodd" clip-rule="evenodd" fill="#FFFFFF" stroke="#C68126" stroke-width="5.246400e-02" stroke-miterlimit="2.4142" points="
					65.5,64.2 65.7,64.2 65.7,65.4 65.5,65.4 65.5,64.2 				"/>
				
					<polygon fill-rule="evenodd" clip-rule="evenodd" fill="#FFFFFF" stroke="#C68126" stroke-width="5.246400e-02" stroke-miterlimit="2.4142" points="
					66.2,64 67.5,64 67.5,65.4 66.2,65.4 66.2,64 				"/>
				
					<polygon fill-rule="evenodd" clip-rule="evenodd" fill="#FFFFFF" stroke="#C68126" stroke-width="5.246400e-02" stroke-miterlimit="2.4142" points="
					66.2,63.3 67.4,63.3 67.4,63.7 66.2,63.7 66.2,63.3 				"/>
				
					<polygon fill-rule="evenodd" clip-rule="evenodd" fill="#FFFFFF" stroke="#C68126" stroke-width="5.246400e-02" stroke-miterlimit="2.4142" points="
					66.1,62.6 66.8,62.6 67.6,62.6 67.4,63 66.8,63 66.3,63 66.1,62.6 				"/>
				
					<polygon fill-rule="evenodd" clip-rule="evenodd" fill="#FFFFFF" stroke="#C68126" stroke-width="5.246400e-02" stroke-miterlimit="2.4142" points="
					66.2,60.4 67.5,60.4 67.5,62.3 66.2,62.3 66.2,60.4 				"/>
				
					<path fill-rule="evenodd" clip-rule="evenodd" fill="#FFFFFF" stroke="#C68126" stroke-width="5.246400e-02" stroke-miterlimit="2.4142" d="
					M66.4,62c0-0.1,0-0.9,0-1.1c0-0.2,0.3-0.3,0.4-0.3c0.2,0,0.5,0.1,0.5,0.3c0,0.2,0,1,0,1.1c0,0.1,0,0.1-0.1,0.1s-0.1,0-0.1-0.1
					c0-0.1,0-0.8,0-0.9c0-0.1-0.1-0.1-0.2-0.1c0,0-0.2,0-0.2,0.1c0,0.1,0,0.9,0,0.9c0,0.1-0.1,0.1-0.1,0.1S66.4,62.1,66.4,62
					L66.4,62z"/>
				
					<path fill-rule="evenodd" clip-rule="evenodd" fill="#FFFFFF" stroke="#C68126" stroke-width="5.246400e-02" stroke-miterlimit="2.4142" d="
					M65.1,60.6h0.8v0.9C65.9,61.5,65.6,61,65.1,60.6L65.1,60.6z"/>
				
					<path fill-rule="evenodd" clip-rule="evenodd" fill="#FFFFFF" stroke="#C68126" stroke-width="5.246400e-02" stroke-miterlimit="2.4142" d="
					M60.9,60.6h-0.8v0.9C60.2,61.5,60.4,61,60.9,60.6L60.9,60.6z"/>
				<g>
					
						<polygon fill-rule="evenodd" clip-rule="evenodd" fill="#FFFFFF" stroke="#C68126" stroke-width="5.246400e-02" stroke-miterlimit="2.4142" points="
						66.4,64.1 67.3,64.1 67.3,65.3 66.4,65.3 66.4,64.1 					"/>
					
						<polygon fill-rule="evenodd" clip-rule="evenodd" fill="none" stroke="#C68126" stroke-width="5.246400e-02" stroke-miterlimit="2.4142" points="
						66.7,64.1 67,64.1 67,65.3 66.7,65.3 66.7,64.1 					"/>
					
						<polygon fill-rule="evenodd" clip-rule="evenodd" fill="none" stroke="#C68126" stroke-width="5.817000e-02" stroke-miterlimit="2.4142" points="
						66.4,64.8 66.4,64.6 67.3,64.6 67.3,64.8 66.4,64.8 					"/>
				</g>
				<polygon fill-rule="evenodd" clip-rule="evenodd" fill="#FFFFFF" points="58.3,59.8 63,59.8 67.6,59.8 68.4,59 65.9,59 
					64.9,58.2 63,58.2 61.1,58.2 60,59 57.5,59 58.3,59.8 				"/>
				
					<polygon fill-rule="evenodd" clip-rule="evenodd" fill="#FFFFFF" stroke="#C68126" stroke-width="5.246400e-02" stroke-miterlimit="2.4142" points="
					58.5,58.6 59.7,58.6 59.7,56.4 58.5,56.4 58.5,58.6 				"/>
				
					<polygon fill-rule="evenodd" clip-rule="evenodd" fill="#FFFFFF" stroke="#C68126" stroke-width="0.1421" stroke-miterlimit="2.4142" points="
					58.5,55.8 59.7,55.8 59.7,56.1 58.5,56.1 58.5,55.8 				"/>
				
					<path fill-rule="evenodd" clip-rule="evenodd" fill="#FFFFFF" stroke="#C68126" stroke-width="5.387700e-02" stroke-miterlimit="2.4142" d="
					M59.1,54.6c0.3,0,0.6,0.4,0.6,0.7c0,0.1,0,0.1,0,0.2c-0.2,0-0.4,0-0.6,0c-0.2,0-0.4,0-0.6,0c0-0.1,0-0.1,0-0.2
					C58.5,55,58.8,54.6,59.1,54.6L59.1,54.6z"/>
				
					<path fill-rule="evenodd" clip-rule="evenodd" fill="#FFFFFF" stroke="#C68126" stroke-width="5.246400e-02" stroke-miterlimit="2.4142" d="
					M63,58h1.6c1.1-0.9,0.7-3-0.8-3.2c-0.4-0.1-0.6-0.1-0.6-0.3c0-0.2,0-0.3-0.1-0.3c-0.1,0-0.1,0.1-0.1,0.3c0,0.2-0.2,0.3-0.6,0.3
					c-1.5,0.2-1.9,2.3-0.8,3.2H63L63,58z"/>
				
					<path fill-rule="evenodd" clip-rule="evenodd" fill="#FFFFFF" stroke="#C68126" stroke-width="5.246400e-02" stroke-miterlimit="2.4142" d="
					M63.6,55.8c0.4,0.3,0.4,1,0.3,1.5c0,0.3,0.2,0.3,0.3,0.1c0.2-0.5,0.1-1.5-0.4-1.8C63.6,55.6,63.4,55.6,63.6,55.8L63.6,55.8z"/>
				
					<path fill-rule="evenodd" clip-rule="evenodd" fill="#FFFFFF" stroke="#C68126" stroke-width="5.246400e-02" stroke-miterlimit="2.4142" d="
					M64,55.5c0.4,0.3,0.6,1,0.5,1.5c0,0.3,0.2,0.3,0.3,0.1c0.2-0.5-0.1-1.6-0.6-1.8C64,55.2,63.8,55.3,64,55.5L64,55.5z"/>
				
					<path fill-rule="evenodd" clip-rule="evenodd" fill="#FFFFFF" stroke="#C68126" stroke-width="5.246400e-02" stroke-miterlimit="2.4142" d="
					M62.4,55.8c-0.4,0.3-0.4,1-0.3,1.5c0,0.3-0.2,0.3-0.3,0.1c-0.2-0.5-0.1-1.5,0.4-1.8C62.4,55.6,62.6,55.6,62.4,55.8L62.4,55.8z"
					/>
				
					<path fill-rule="evenodd" clip-rule="evenodd" fill="#FFFFFF" stroke="#C68126" stroke-width="5.246400e-02" stroke-miterlimit="2.4142" d="
					M62,55.5c-0.4,0.3-0.6,1-0.5,1.5c0,0.3-0.2,0.3-0.3,0.1c-0.2-0.5,0.1-1.6,0.6-1.8C62,55.2,62.2,55.3,62,55.5L62,55.5z"/>
				
					<polygon fill-rule="evenodd" clip-rule="evenodd" fill="#FFFFFF" stroke="#C68126" stroke-width="5.246400e-02" stroke-miterlimit="2.4142" points="
					66.3,58.6 67.5,58.6 67.5,56.4 66.3,56.4 66.3,58.6 				"/>
				
					<polygon fill-rule="evenodd" clip-rule="evenodd" fill="#FFFFFF" stroke="#C68126" stroke-width="0.1421" stroke-miterlimit="2.4142" points="
					66.3,55.8 67.5,55.8 67.5,56.1 66.3,56.1 66.3,55.8 				"/>
				
					<path fill-rule="evenodd" clip-rule="evenodd" fill="#FFFFFF" stroke="#C68126" stroke-width="5.387700e-02" stroke-miterlimit="2.4142" d="
					M66.9,54.6c0.3,0,0.6,0.4,0.6,0.7c0,0.1,0,0.1,0,0.2c-0.2,0-0.4,0-0.6,0c-0.2,0-0.4,0-0.6,0c0-0.1,0-0.1,0-0.2
					C66.3,55,66.6,54.6,66.9,54.6L66.9,54.6z"/>
				
					<polygon fill-rule="evenodd" clip-rule="evenodd" fill="#FFFFFF" stroke="#C68126" stroke-width="5.246400e-02" stroke-miterlimit="2.4142" points="
					58.5,63.3 59.8,63.3 59.8,63.7 58.5,63.7 58.5,63.3 				"/>
				
					<polygon fill-rule="evenodd" clip-rule="evenodd" fill="#FFFFFF" stroke="#C68126" stroke-width="5.246400e-02" stroke-miterlimit="2.4142" points="
					58.4,62.6 59.2,62.6 60,62.6 59.7,63 59.2,63 58.6,63 58.4,62.6 				"/>
				
					<polygon fill-rule="evenodd" clip-rule="evenodd" fill="#FFFFFF" stroke="#C68126" stroke-width="5.246400e-02" stroke-miterlimit="2.4142" points="
					58.5,60.4 59.8,60.4 59.8,62.3 58.5,62.3 58.5,60.4 				"/>
				
					<path fill-rule="evenodd" clip-rule="evenodd" fill="#FFFFFF" stroke="#C68126" stroke-width="5.246400e-02" stroke-miterlimit="2.4142" d="
					M58.7,62c0-0.1,0-0.9,0-1.1c0-0.2,0.3-0.3,0.4-0.3c0.2,0,0.5,0.1,0.5,0.3c0,0.2,0,1,0,1.1c0,0.1,0,0.1-0.1,0.1s-0.1,0-0.1-0.1
					c0-0.1,0-0.8,0-0.9c0-0.1-0.1-0.1-0.2-0.1c0,0-0.2,0-0.2,0.1c0,0.1,0,0.9,0,0.9c0,0.1-0.1,0.1-0.1,0.1
					C58.8,62.1,58.7,62.1,58.7,62L58.7,62z"/>
				
					<polygon fill-rule="evenodd" clip-rule="evenodd" fill="#FFFFFF" stroke="#C68126" stroke-width="5.246400e-02" stroke-miterlimit="2.4142" points="
					58.5,64 59.8,64 59.8,65.4 58.5,65.4 58.5,64 				"/>
				<g>
					
						<polygon fill-rule="evenodd" clip-rule="evenodd" fill="#FFFFFF" stroke="#C68126" stroke-width="5.246400e-02" stroke-miterlimit="2.4142" points="
						58.7,64.1 59.6,64.1 59.6,65.3 58.7,65.3 58.7,64.1 					"/>
					
						<polygon fill-rule="evenodd" clip-rule="evenodd" fill="none" stroke="#C68126" stroke-width="5.246400e-02" stroke-miterlimit="2.4142" points="
						59,64.1 59.3,64.1 59.3,65.3 59,65.3 59,64.1 					"/>
					
						<polygon fill-rule="evenodd" clip-rule="evenodd" fill="none" stroke="#C68126" stroke-width="5.817000e-02" stroke-miterlimit="2.4142" points="
						58.7,64.8 58.7,64.6 59.6,64.6 59.6,64.8 58.7,64.8 					"/>
				</g>
			</g>
			
				<path fill-rule="evenodd" clip-rule="evenodd" fill="#FFFFFF" stroke="#C68126" stroke-width="5.387700e-02" stroke-miterlimit="2.4142" d="
				M75.5,70.2c0,0-1,0.1-0.9,0.5C74.9,70.8,75.2,70.4,75.5,70.2L75.5,70.2z"/>
			<g>
				
					<path fill-rule="evenodd" clip-rule="evenodd" fill="#FFFFFF" stroke="#C68126" stroke-width="5.387700e-02" stroke-miterlimit="2.4142" d="
					M70.9,72.4c-0.4,0.4-1.3,1.1-1,1.4C69.9,73.8,70.2,74.2,70.9,72.4L70.9,72.4z"/>
				
					<path fill-rule="evenodd" clip-rule="evenodd" fill="#FFFFFF" stroke="#C68126" stroke-width="5.387700e-02" stroke-miterlimit="2.4142" d="
					M71.5,72.4c-0.5,0.4-1,0.8-0.7,1.1C70.7,73.4,71.1,73.8,71.5,72.4L71.5,72.4z"/>
				
					<path fill-rule="evenodd" clip-rule="evenodd" fill="#FFFFFF" stroke="#C68126" stroke-width="5.387700e-02" stroke-miterlimit="2.4142" d="
					M72.3,72.1c-0.5,0.2-1,0.6-0.8,0.9C72,73.2,72.4,72.4,72.3,72.1L72.3,72.1z"/>
				
					<path fill-rule="evenodd" clip-rule="evenodd" fill="#FFFFFF" stroke="#C68126" stroke-width="5.387700e-02" stroke-miterlimit="2.4142" d="
					M74.2,72.3c-0.6,0.2-1.7,0-1.7,0.6C72.5,72.9,72.8,73.5,74.2,72.3L74.2,72.3z"/>
				
					<path fill-rule="evenodd" clip-rule="evenodd" fill="#FFFFFF" stroke="#C68126" stroke-width="5.387700e-02" stroke-miterlimit="2.4142" d="
					M73.4,73.2c-0.8,0.2-1.8-0.2-1.9,0.2C71.5,73.6,72.4,73.9,73.4,73.2L73.4,73.2z"/>
				
					<path fill-rule="evenodd" clip-rule="evenodd" fill="#FFFFFF" stroke="#C68126" stroke-width="5.387700e-02" stroke-miterlimit="2.4142" d="
					M72.5,73.8c-0.8,0-1.7-0.4-1.8-0.1C70.7,73.8,70.9,74.3,72.5,73.8L72.5,73.8z"/>
				
					<path fill-rule="evenodd" clip-rule="evenodd" fill="#FFFFFF" stroke="#C68126" stroke-width="5.387700e-02" stroke-miterlimit="2.4142" d="
					M71.8,74.2c-0.5,0-1.6-0.5-1.8-0.2C70,74,69.8,74.5,71.8,74.2L71.8,74.2z"/>
			</g>
			<g>
				
					<path fill-rule="evenodd" clip-rule="evenodd" fill="#FFFFFF" stroke="#C68126" stroke-width="5.387700e-02" stroke-miterlimit="2.4142" d="
					M70.2,53.4c0,0,1.1,0.4,0.8,1.1C71,54.5,70.3,54.7,70.2,53.4L70.2,53.4z"/>
				
					<path fill-rule="evenodd" clip-rule="evenodd" fill="#FFFFFF" stroke="#C68126" stroke-width="5.387700e-02" stroke-miterlimit="2.4142" d="
					M69.9,54.2c0,0,1.6,0.6,1.5,1.2C71.4,55.4,70.6,55.6,69.9,54.2L69.9,54.2z"/>
				
					<path fill-rule="evenodd" clip-rule="evenodd" fill="#FFFFFF" stroke="#C68126" stroke-width="5.387700e-02" stroke-miterlimit="2.4142" d="
					M71.4,53.7c0,0,0.8,1,0.3,1.6C71.7,55.3,71.1,55.1,71.4,53.7L71.4,53.7z"/>
				
					<path fill-rule="evenodd" clip-rule="evenodd" fill="#FFFFFF" stroke="#C68126" stroke-width="5.387700e-02" stroke-miterlimit="2.4142" d="
					M72,54.6c0,0,0.9,1.1,0,1.6c0,0-0.2-0.1-0.1-0.7C72,54.9,72,55.1,72,54.6L72,54.6z"/>
				
					<path fill-rule="evenodd" clip-rule="evenodd" fill="#FFFFFF" stroke="#C68126" stroke-width="5.387700e-02" stroke-miterlimit="2.4142" d="
					M71.8,56.2c0,0,0-0.4-0.4-0.5c-0.4-0.2-0.8-0.4-0.8-0.4S70.9,56.3,71.8,56.2L71.8,56.2z"/>
				
					<path fill-rule="evenodd" clip-rule="evenodd" fill="#FFFFFF" stroke="#C68126" stroke-width="5.387700e-02" stroke-miterlimit="2.4142" d="
					M71.2,56.1c0,0,0.4,0.3,0.7,0.4c0.3,0.1,0.4,0.4,0.4,0.4S71.6,57.5,71.2,56.1L71.2,56.1z"/>
				
					<path fill-rule="evenodd" clip-rule="evenodd" fill="#FFFFFF" stroke="#C68126" stroke-width="5.387700e-02" stroke-miterlimit="2.4142" d="
					M72.5,57c0,0-0.3-0.2-0.1-0.9c0.1-0.7,0.1-0.7,0.1-0.7S73.3,56.5,72.5,57L72.5,57z"/>
				
					<path fill-rule="evenodd" clip-rule="evenodd" fill="#FFFFFF" stroke="#C68126" stroke-width="5.387700e-02" stroke-miterlimit="2.4142" d="
					M72.2,52.5c0,0,0.9,0.6,0.7,1.3C72.9,53.8,72,54,72.2,52.5L72.2,52.5z"/>
				
					<path fill-rule="evenodd" clip-rule="evenodd" fill="#FFFFFF" stroke="#C68126" stroke-width="5.387700e-02" stroke-miterlimit="2.4142" d="
					M71.6,53.3c0.7,0.7,1.4,0.8,1.4,1.3C73.1,54.6,72,55.1,71.6,53.3L71.6,53.3z"/>
				
					<path fill-rule="evenodd" clip-rule="evenodd" fill="#FFFFFF" stroke="#C68126" stroke-width="5.387700e-02" stroke-miterlimit="2.4142" d="
					M73.2,52.1c0,0,0.4,2.2,0,2.4C73.2,54.5,72.8,54.1,73.2,52.1L73.2,52.1z"/>
				
					<path fill-rule="evenodd" clip-rule="evenodd" fill="#FFFFFF" stroke="#C68126" stroke-width="5.387700e-02" stroke-miterlimit="2.4142" d="
					M73.8,53c0.1,0.6,0.4,2.2-0.1,2.4C73.6,55.4,73.1,55.4,73.8,53L73.8,53z"/>
				
					<path fill-rule="evenodd" clip-rule="evenodd" fill="#FFFFFF" stroke="#C68126" stroke-width="5.387700e-02" stroke-miterlimit="2.4142" d="
					M74.3,53.6c0.1,1,0.3,2.4-0.2,2.6C74.1,56.2,73.6,56.1,74.3,53.6L74.3,53.6z"/>
				
					<path fill-rule="evenodd" clip-rule="evenodd" fill="#FFFFFF" stroke="#C68126" stroke-width="5.387700e-02" stroke-miterlimit="2.4142" d="
					M72.4,54.7c0.3,0.2,1,0.2,1,0.7C73.4,55.4,72.6,55.5,72.4,54.7L72.4,54.7z"/>
				
					<path fill-rule="evenodd" clip-rule="evenodd" fill="#FFFFFF" stroke="#C68126" stroke-width="5.387700e-02" stroke-miterlimit="2.4142" d="
					M72.8,55.5c0.5,0.3,0.9,0,1.1,0.7C73.8,56.1,73,56.3,72.8,55.5L72.8,55.5z"/>
				
					<path fill-rule="evenodd" clip-rule="evenodd" fill="#FFFFFF" stroke="#C68126" stroke-width="5.387700e-02" stroke-miterlimit="2.4142" d="
					M73.2,56.3c0.5,0.3,0.9-0.1,1.1,0.7C74.3,56.9,73.7,57.3,73.2,56.3L73.2,56.3z"/>
				
					<path fill-rule="evenodd" clip-rule="evenodd" fill="#FFFFFF" stroke="#C68126" stroke-width="5.387700e-02" stroke-miterlimit="2.4142" d="
					M74.8,54.3c0.1,1,0.2,2.7-0.2,2.8C74.2,57,74.4,56.1,74.8,54.3L74.8,54.3z"/>
				
					<path fill-rule="evenodd" clip-rule="evenodd" fill="#FFFFFF" stroke="#C68126" stroke-width="5.387700e-02" stroke-miterlimit="2.4142" d="
					M74.5,57.2c0,0,0.6,0.1,0.6,1C75.1,58.2,74.3,58.2,74.5,57.2L74.5,57.2z"/>
				<path fill="#FFFFFF" stroke="#C68126" stroke-width="5.387700e-02" stroke-miterlimit="2.4142" d="M75.2,54.9
					C75.2,54.9,75.1,54.9,75.2,54.9c-0.1,0-0.1,0-0.1,0c0.1,0.2,0.1,0.3,0.1,0.5c0,0.2,0,0.4-0.1,0.7c-0.1,0.4-0.1,0.6,0,0.8
					c0,0.1,0,0.1,0,0.2c0,0,0,0.1,0.1,0.1c0,0,0.1,0,0.1-0.1c0-0.1,0-0.2,0-0.2c0-0.2-0.1-0.3,0-0.7c0.1-0.3,0.1-0.5,0.1-0.7
					C75.3,55.3,75.2,55.1,75.2,54.9L75.2,54.9z"/>
				<path fill="#FFFFFF" stroke="#C68126" stroke-width="5.387700e-02" stroke-miterlimit="2.4142" d="M75.8,55.7
					C75.8,55.7,75.8,55.7,75.8,55.7c-0.1-0.1-0.1-0.1-0.1,0c0,0.3-0.1,0.5,0,0.7c0,0.2,0.1,0.5,0.1,0.8c0.1,0.5,0,0.8-0.1,1
					c0,0.1-0.1,0.2-0.1,0.3c-0.1,0.3,0,0.4,0,0.4c0,0,0.1,0,0.1,0c0,0,0-0.1,0-0.1c0,0,0,0,0-0.3c0-0.1,0-0.2,0.1-0.3
					c0.1-0.3,0.2-0.6,0.1-1.1c-0.1-0.3-0.1-0.6-0.1-0.8C75.7,56.2,75.7,56,75.8,55.7L75.8,55.7z"/>
				<path fill="#FFFFFF" stroke="#C68126" stroke-width="5.387700e-02" stroke-miterlimit="2.4142" d="M76.4,56.5
					C76.4,56.4,76.4,56.4,76.4,56.5c-0.1-0.1-0.1-0.1-0.1,0l0,0c-0.1,0.3-0.1,0.4,0,0.7c0.1,0.3,0,0.7,0,0.7c0,0,0,0.1,0.1,0.1
					c0,0,0.1,0,0.1-0.1c0,0,0.1-0.5,0-0.8C76.3,56.8,76.3,56.8,76.4,56.5L76.4,56.5L76.4,56.5z"/>
				<path fill-rule="evenodd" clip-rule="evenodd" fill="#FFFFFF" d="M74.4,58.7c-0.7,1.1-1.7,2.8-1.6,3.6c0.1,0.8,0.5,1.6,0.6,1.8
					c0.1,0.1,0-0.1,0.2-0.6c0.2-0.8,1.8-3.1,2.4-3.7c0.2-0.2,0.2-0.2,0.2-0.3c-0.1-0.1-0.1-0.1-0.4-0.1c-0.4,0-0.7,0.1-0.7-0.2
					c0-0.3,0-0.5-0.1-0.7C74.7,58.4,74.5,58.4,74.4,58.7L74.4,58.7z"/>
				
					<path fill-rule="evenodd" clip-rule="evenodd" fill="#FFFFFF" stroke="#C68126" stroke-width="5.387700e-02" stroke-miterlimit="2.4142" d="
					M72,57.8c0.2,0.1,0.7,0.5,1,0.8c0.3,0.3,0.7,1,0.8,1.3c0.1,0.3,0.1-0.1,0.1-0.1s-0.2-1.2-0.2-1.5c0-0.4,0.1-0.5,0.1-0.6
					c0-0.1-0.1-0.4-0.2-0.2c-0.1,0.2-0.2,0.6-0.3,0.7c-0.1,0.1-0.1,0-0.1-0.1c0-0.1,0-0.7-0.3-0.8c-0.3-0.1-0.3,0-0.3,0.1
					c0,0.2,0.1,0.3,0.1,0.5s-0.1,0.1-0.2,0.1c-0.1-0.1-0.3-0.3-0.4-0.4C71.9,57.4,71.6,57.6,72,57.8L72,57.8z"/>
				
					<path fill-rule="evenodd" clip-rule="evenodd" fill="#FFFFFF" stroke="#C68126" stroke-width="5.387700e-02" stroke-miterlimit="2.4142" d="
					M76.6,58.1c0.2,0.7,0.3,1.1-0.1,1.5C76.6,59.7,76.2,59.3,76.6,58.1L76.6,58.1z"/>
				
					<path fill-rule="evenodd" clip-rule="evenodd" fill="#FFFFFF" stroke="#C68126" stroke-width="5.387700e-02" stroke-miterlimit="2.4142" d="
					M76,59.4c0.3,0.2,0.5,0.5,0.4,1C76.4,60.4,76,60.3,76,59.4L76,59.4z"/>
				
					<path fill-rule="evenodd" clip-rule="evenodd" fill="#FFFFFF" stroke="#C68126" stroke-width="5.387700e-02" stroke-miterlimit="2.4142" d="
					M77.4,58.8c-0.1,0.6-0.1,1.5-0.8,1.6c0,0-0.1-0.4,0.2-0.8C77.2,59.3,77.3,59,77.4,58.8L77.4,58.8z"/>
				
					<path fill-rule="evenodd" clip-rule="evenodd" fill="#FFFFFF" stroke="#C68126" stroke-width="5.387700e-02" stroke-miterlimit="2.4142" d="
					M77.6,59.5c-0.1,0.5-0.3,1.6-1.1,1.8c0,0-0.1-0.5,0.2-0.7C77.1,60.3,77.5,59.9,77.6,59.5L77.6,59.5z"/>
				
					<path fill-rule="evenodd" clip-rule="evenodd" fill="#FFFFFF" stroke="#C68126" stroke-width="5.387700e-02" stroke-miterlimit="2.4142" d="
					M76,60.1c0.1,0.4,0.5,0.5,0.5,1.1C76.4,61.3,75.7,61.3,76,60.1L76,60.1z"/>
				
					<path fill-rule="evenodd" clip-rule="evenodd" fill="#FFFFFF" stroke="#C68126" stroke-width="5.387700e-02" stroke-miterlimit="2.4142" d="
					M75.8,61c0.4,0.5,0.7,0.4,0.6,1.1C76.4,62.1,75.8,62.2,75.8,61L75.8,61z"/>
				
					<path fill-rule="evenodd" clip-rule="evenodd" fill="#FFFFFF" stroke="#C68126" stroke-width="5.387700e-02" stroke-miterlimit="2.4142" d="
					M77.7,60.5c-0.3,0.8-0.5,1.8-1.1,1.7C76.6,61.7,76.6,61.7,77.7,60.5L77.7,60.5z"/>
				
					<path fill-rule="evenodd" clip-rule="evenodd" fill="#FFFFFF" stroke="#C68126" stroke-width="5.387700e-02" stroke-miterlimit="2.4142" d="
					M77.7,61.4c-0.2,0.2-0.4,0.5-0.6,0.8c-0.3,0.3-0.6,0.5-0.5,0.8C76.6,63,77.2,63.2,77.7,61.4L77.7,61.4z"/>
				
					<path fill-rule="evenodd" clip-rule="evenodd" fill="#FFFFFF" stroke="#C68126" stroke-width="5.387700e-02" stroke-miterlimit="2.4142" d="
					M75.8,61.9c0.3,0.5,0.7,0.6,0.6,1C76.4,62.9,75.6,63.1,75.8,61.9L75.8,61.9z"/>
				
					<path fill-rule="evenodd" clip-rule="evenodd" fill="#FFFFFF" stroke="#C68126" stroke-width="5.387700e-02" stroke-miterlimit="2.4142" d="
					M77.4,62.5c-0.5,0.5-1.2,0.9-1,1.4C76.4,64,76.9,64.2,77.4,62.5L77.4,62.5z"/>
				
					<path fill-rule="evenodd" clip-rule="evenodd" fill="#FFFFFF" stroke="#C68126" stroke-width="5.387700e-02" stroke-miterlimit="2.4142" d="
					M75.7,62.7c0.2,0.5,0.7,0.6,0.6,1.1C76.3,63.8,75.6,64.1,75.7,62.7L75.7,62.7z"/>
				
					<path fill-rule="evenodd" clip-rule="evenodd" fill="#FFFFFF" stroke="#C68126" stroke-width="5.387700e-02" stroke-miterlimit="2.4142" d="
					M74.9,60.5c0.2,0.7,0.4,1.3,0,1.5C74.9,62.1,74.3,61.8,74.9,60.5L74.9,60.5z"/>
				
					<path fill-rule="evenodd" clip-rule="evenodd" fill="#FFFFFF" stroke="#C68126" stroke-width="5.387700e-02" stroke-miterlimit="2.4142" d="
					M75.5,61.5c-0.4,0.6-0.8,0.9-0.6,1.4C74.9,63,75.6,63,75.5,61.5L75.5,61.5z"/>
				
					<path fill-rule="evenodd" clip-rule="evenodd" fill="#FFFFFF" stroke="#C68126" stroke-width="5.387700e-02" stroke-miterlimit="2.4142" d="
					M74.2,61.5c0.1,0.3,0.6,0.6,0.6,1.3C74.7,62.8,74.1,62.8,74.2,61.5L74.2,61.5z"/>
				
					<path fill-rule="evenodd" clip-rule="evenodd" fill="#FFFFFF" stroke="#C68126" stroke-width="5.387700e-02" stroke-miterlimit="2.4142" d="
					M74.1,62.6c0.3,0.4,0.6,0.4,0.5,1C74.6,63.6,74,63.8,74.1,62.6L74.1,62.6z"/>
				
					<path fill-rule="evenodd" clip-rule="evenodd" fill="#FFFFFF" stroke="#C68126" stroke-width="5.387700e-02" stroke-miterlimit="2.4142" d="
					M75.6,62.7c-0.4,0.4-0.8,0.5-0.8,1C74.8,63.7,75.4,63.7,75.6,62.7L75.6,62.7z"/>
				
					<path fill-rule="evenodd" clip-rule="evenodd" fill="#FFFFFF" stroke="#C68126" stroke-width="5.387700e-02" stroke-miterlimit="2.4142" d="
					M75.5,63.4c-0.2,0.2-0.9,0.3-0.8,1C74.8,64.4,75.3,64.6,75.5,63.4L75.5,63.4z"/>
				
					<path fill-rule="evenodd" clip-rule="evenodd" fill="#FFFFFF" stroke="#C68126" stroke-width="5.387700e-02" stroke-miterlimit="2.4142" d="
					M74,63.4c0.4,0.6,0.6,0.5,0.6,1C74.6,64.5,73.8,64.6,74,63.4L74,63.4z"/>
				<path fill="#FFFFFF" stroke="#C68126" stroke-width="5.387700e-02" stroke-miterlimit="2.4142" d="M78,62.2
					C78,62.1,78,62.1,78,62.2c0-0.1-0.1-0.1-0.1-0.1c-0.1,0.2-0.2,0.3-0.2,0.5c0,0.1,0,0.1-0.1,0.2c-0.1,0.2-0.2,0.3-0.2,0.3
					c0,0,0,0.1,0,0.1s0.1,0,0.1,0c0,0,0.2-0.2,0.2-0.4c0-0.1,0-0.1,0.1-0.2C77.8,62.5,77.9,62.3,78,62.2L78,62.2z"/>
				
					<path fill-rule="evenodd" clip-rule="evenodd" fill="#FFFFFF" stroke="#C68126" stroke-width="5.387700e-02" stroke-miterlimit="2.4142" d="
					M71.8,58.6c0.2,0.2,0.3,0.3,0.4,0.8c0,0.5,0.4,0.9,0.5,1c0.2,0.1,0.3-0.1,0.2-0.2c-0.1-0.1-0.5-0.5-0.5-0.8
					c0-0.3-0.2-0.7-0.4-0.9C71.8,58.4,71.7,58.5,71.8,58.6L71.8,58.6z"/>
				
					<path fill-rule="evenodd" clip-rule="evenodd" fill="#FFFFFF" stroke="#C68126" stroke-width="5.387700e-02" stroke-miterlimit="2.4142" d="
					M72.4,58.5c0.2,0.2,0.5,0.5,0.6,0.8c0.1,0.4,0.1,0.5,0.2,0.7c0.1,0.2,0.3,0.1,0.3,0c0-0.1-0.1-0.7-0.3-0.9
					c-0.1-0.2-0.5-0.6-0.7-0.7C72.3,58.3,72.2,58.4,72.4,58.5L72.4,58.5z"/>
				<path fill-rule="evenodd" clip-rule="evenodd" fill="#FFFFFF" d="M71.6,67.2c0,0,0.3-1.2,0.5-1.7c0.2-0.4,0.8-0.9,1.3-0.9
					c0.5,0,2.1-0.2,2.7-0.4c0.6-0.2,1.3-0.6,1.5-0.9c0.2-0.3,0.3,0,0.2,0.2c-0.1,0.3-0.4,1.6-1.2,1.9c-0.8,0.3-1.6,0.5-2.2,0.7
					c-0.6,0.2-1.5,0.2-1.9,0.5C71.9,66.8,71.6,67.2,71.6,67.2L71.6,67.2z"/>
				
					<path fill-rule="evenodd" clip-rule="evenodd" fill="#FFFFFF" stroke="#C68126" stroke-width="5.387700e-02" stroke-miterlimit="2.4142" d="
					M72.8,63.6c0.5,0.3,0.7,0.4,0.8,1.2C73.6,64.8,72.8,64.6,72.8,63.6L72.8,63.6z"/>
				
					<path fill-rule="evenodd" clip-rule="evenodd" fill="#FFFFFF" stroke="#C68126" stroke-width="5.387700e-02" stroke-miterlimit="2.4142" d="
					M76.1,65.1c0.1,0.4,0.3,0.8,0,1.1C76.1,66.2,75.6,66,76.1,65.1L76.1,65.1z"/>
				
					<path fill-rule="evenodd" clip-rule="evenodd" fill="#FFFFFF" stroke="#C68126" stroke-width="5.387700e-02" stroke-miterlimit="2.4142" d="
					M77.8,64.9c-0.4,0.7-0.9,1.7-1.6,1.4c0,0,0-0.3,0.7-0.7C77.6,65.2,77.8,64.9,77.8,64.9L77.8,64.9z"/>
				
					<path fill-rule="evenodd" clip-rule="evenodd" fill="#FFFFFF" stroke="#C68126" stroke-width="5.387700e-02" stroke-miterlimit="2.4142" d="
					M75.7,65.6c0,0.3,0.2,1.3-0.2,1.3C75.1,66.9,75.6,66,75.7,65.6L75.7,65.6z"/>
				
					<path fill-rule="evenodd" clip-rule="evenodd" fill="#FFFFFF" stroke="#C68126" stroke-width="5.387700e-02" stroke-miterlimit="2.4142" d="
					M75.2,66.2c-0.1,0.5,0.4,1.2,0,1.4C75.2,67.6,74.6,67.4,75.2,66.2L75.2,66.2z"/>
				
					<path fill-rule="evenodd" clip-rule="evenodd" fill="#FFFFFF" stroke="#C68126" stroke-width="5.387700e-02" stroke-miterlimit="2.4142" d="
					M77.3,66.2c-0.7,0.3-1.5,0.5-1.5,0.9C75.8,67.1,76.1,67.6,77.3,66.2L77.3,66.2z"/>
				
					<path fill-rule="evenodd" clip-rule="evenodd" fill="#FFFFFF" stroke="#C68126" stroke-width="5.387700e-02" stroke-miterlimit="2.4142" d="
					M76.9,66.9c-0.4,0.3-1.6,0.4-1.6,0.9C75.3,67.8,75.6,68.3,76.9,66.9L76.9,66.9z"/>
				
					<path fill-rule="evenodd" clip-rule="evenodd" fill="#FFFFFF" stroke="#C68126" stroke-width="5.387700e-02" stroke-miterlimit="2.4142" d="
					M77,67.2c-0.7,0.5-1.7,0.6-1.5,1C75.8,68.6,76.9,67.5,77,67.2L77,67.2z"/>
				
					<path fill-rule="evenodd" clip-rule="evenodd" fill="#FFFFFF" stroke="#C68126" stroke-width="5.387700e-02" stroke-miterlimit="2.4142" d="
					M76.9,67.8c-0.6,0.4-1.8,0.8-1.6,1.1C75.6,69.2,76.7,68.2,76.9,67.8L76.9,67.8z"/>
				
					<path fill-rule="evenodd" clip-rule="evenodd" fill="#FFFFFF" stroke="#C68126" stroke-width="5.387700e-02" stroke-miterlimit="2.4142" d="
					M76.4,68.7c-0.4,0.2-2,0.5-1.8,1C74.6,69.7,74.9,70.1,76.4,68.7L76.4,68.7z"/>
				
					<path fill-rule="evenodd" clip-rule="evenodd" fill="#FFFFFF" stroke="#C68126" stroke-width="5.387700e-02" stroke-miterlimit="2.4142" d="
					M74.8,67.2c0.1,0.4,0.6,1.2,0.4,1.4C75.2,68.6,74.6,68.8,74.8,67.2L74.8,67.2z"/>
				
					<path fill-rule="evenodd" clip-rule="evenodd" fill="#FFFFFF" stroke="#C68126" stroke-width="5.387700e-02" stroke-miterlimit="2.4142" d="
					M74.5,67.8c0,0.6,0.4,1.4-0.1,1.7C74.4,69.5,73.9,69.2,74.5,67.8L74.5,67.8z"/>
				
					<path fill-rule="evenodd" clip-rule="evenodd" fill="#FFFFFF" stroke="#C68126" stroke-width="5.387700e-02" stroke-miterlimit="2.4142" d="
					M75.7,69.6c-0.3,0.1-0.6,0.3-0.9,0.3c-0.6,0.1-1.1,0.2-0.9,0.6C73.9,70.5,74.3,71,75.7,69.6L75.7,69.6z"/>
				
					<path fill-rule="evenodd" clip-rule="evenodd" fill="#FFFFFF" stroke="#C68126" stroke-width="5.387700e-02" stroke-miterlimit="2.4142" d="
					M73.9,68.8c0,0.7,0.2,1.4-0.3,1.5C73.6,70.3,73.1,70,73.9,68.8L73.9,68.8z"/>
				
					<path fill-rule="evenodd" clip-rule="evenodd" fill="#FFFFFF" stroke="#C68126" stroke-width="5.387700e-02" stroke-miterlimit="2.4142" d="
					M73.4,68.2c-0.1,0.5-0.3,0.6-0.3,1c-0.1,0.3,0,0.7-0.5,0.9c0,0,0.1-0.5,0.2-0.8C72.8,68.9,73.1,68.7,73.4,68.2L73.4,68.2z"/>
				
					<path fill-rule="evenodd" clip-rule="evenodd" fill="#FFFFFF" stroke="#C68126" stroke-width="5.387700e-02" stroke-miterlimit="2.4142" d="
					M74.2,67.2c0,0-0.3,0.4-0.4,0.8c-0.1,0.5-0.1,1-0.5,1.3c0,0,0.3-0.6,0.3-1.2C73.6,67.7,74,67.4,74.2,67.2L74.2,67.2z"/>
				
					<path fill-rule="evenodd" clip-rule="evenodd" fill="#FFFFFF" stroke="#C68126" stroke-width="5.387700e-02" stroke-miterlimit="2.4142" d="
					M72.7,68.8c-0.4,0.4-1.4,0.4-1.2,0.9C71.5,69.7,72.1,69.9,72.7,68.8L72.7,68.8z"/>
				
					<path fill-rule="evenodd" clip-rule="evenodd" fill="#FFFFFF" stroke="#C68126" stroke-width="5.387700e-02" stroke-miterlimit="2.4142" d="
					M71,68.5c0,0.6,0.6,0.9,0.3,1.1C71.2,69.6,70.6,69.7,71,68.5L71,68.5z"/>
				
					<path fill-rule="evenodd" clip-rule="evenodd" fill="#FFFFFF" stroke="#C68126" stroke-width="5.387700e-02" stroke-miterlimit="2.4142" d="
					M70.6,68.8c0,0.2,0.3,0.5,0.1,0.8C70.7,69.6,70.2,69.7,70.6,68.8L70.6,68.8z"/>
				
					<path fill-rule="evenodd" clip-rule="evenodd" fill="#FFFFFF" stroke="#C68126" stroke-width="5.387700e-02" stroke-miterlimit="2.4142" d="
					M71.3,67.8c0.1,0.7,0.6,0.9,0.4,1.1C71.7,68.9,70.9,69.1,71.3,67.8L71.3,67.8z"/>
				
					<path fill-rule="evenodd" clip-rule="evenodd" fill="#FFFFFF" stroke="#C68126" stroke-width="5.387700e-02" stroke-miterlimit="2.4142" d="
					M73.5,67.6c-0.4,0.5-1.8,0.9-1.6,1.3C72.1,69.3,73.3,68,73.5,67.6L73.5,67.6z"/>
				
					<path fill-rule="evenodd" clip-rule="evenodd" fill="#FFFFFF" stroke="#C68126" stroke-width="5.387700e-02" stroke-miterlimit="2.4142" d="
					M73.9,66.8c-0.4,0.3-2,0.9-1.7,1.4C72.2,68.2,72.4,68.6,73.9,66.8L73.9,66.8z"/>
				
					<path fill-rule="evenodd" clip-rule="evenodd" fill="#FFFFFF" stroke="#C68126" stroke-width="5.387700e-02" stroke-miterlimit="2.4142" d="
					M71.6,66.8c-0.1,0.5,0.5,1.1,0.3,1.4C71.6,68.4,71.3,67.5,71.6,66.8L71.6,66.8z"/>
				
					<path fill-rule="evenodd" clip-rule="evenodd" fill="#FFFFFF" stroke="#C68126" stroke-width="5.387700e-02" stroke-miterlimit="2.4142" d="
					M72.8,66.5c-0.1,0.2-1,0.7-0.7,1C72,67.5,72.9,67.8,72.8,66.5L72.8,66.5z"/>
				
					<path fill-rule="evenodd" clip-rule="evenodd" fill="#FFFFFF" stroke="#C68126" stroke-width="5.387700e-02" stroke-miterlimit="2.4142" d="
					M73.6,66.3c-0.2,0.2-0.8,0.5-0.7,0.8C73,67.1,73.5,67.3,73.6,66.3L73.6,66.3z"/>
				
					<path fill-rule="evenodd" clip-rule="evenodd" fill="#FFFFFF" stroke="#C68126" stroke-width="5.387700e-02" stroke-miterlimit="2.4142" d="
					M68.1,71c0.9-1.5,2.8-1.4,4.2-0.7c0.8,0.4,1.1,0.8,3.2,0.6c-0.8,1.8-2.7,1.7-4.4,0.7C70.1,71,69.5,70.6,68.1,71L68.1,71z"/>
				
					<path fill-rule="evenodd" clip-rule="evenodd" fill="#FFFFFF" stroke="#C68126" stroke-width="5.387700e-02" stroke-miterlimit="2.4142" d="
					M70,70.6C70,71,70,71.5,69.4,71.3C69.4,71.3,69.2,70.6,70,70.6L70,70.6z"/>
				
					<path fill-rule="evenodd" clip-rule="evenodd" fill="#FFFFFF" stroke="#C68126" stroke-width="5.387700e-02" stroke-miterlimit="2.4142" d="
					M69.1,70.5c0,0.4,0.2,1.2-0.2,1.3C68.9,71.8,68.3,71.6,69.1,70.5L69.1,70.5z"/>
				
					<path fill-rule="evenodd" clip-rule="evenodd" fill="#FFFFFF" stroke="#C68126" stroke-width="5.387700e-02" stroke-miterlimit="2.4142" d="
					M70.4,71.4c-0.5,0.2-1.2-0.1-1.2,0.4C69.2,71.9,69.4,72.4,70.4,71.4L70.4,71.4z"/>
				
					<path fill-rule="evenodd" clip-rule="evenodd" fill="#FFFFFF" stroke="#C68126" stroke-width="5.387700e-02" stroke-miterlimit="2.4142" d="
					M68.5,71.1c-0.2,0.7,0.3,1.2,0,1.4C68.3,72.5,67.8,72.1,68.5,71.1L68.5,71.1z"/>
				
					<path fill-rule="evenodd" clip-rule="evenodd" fill="#FFFFFF" stroke="#C68126" stroke-width="5.387700e-02" stroke-miterlimit="2.4142" d="
					M70.1,72.1c-0.5,0.1-1.4-0.1-1.4,0.3C68.7,72.8,69.8,72.4,70.1,72.1L70.1,72.1z"/>
				
					<path fill-rule="evenodd" clip-rule="evenodd" fill="#FFFFFF" stroke="#C68126" stroke-width="5.387700e-02" stroke-miterlimit="2.4142" d="
					M69.6,72.7c-0.5,0.2-1.5,0-1.5,0.5C68.2,73.4,68.7,73.6,69.6,72.7L69.6,72.7z"/>
				
					<path fill-rule="evenodd" clip-rule="evenodd" fill="#FFFFFF" stroke="#C68126" stroke-width="5.387700e-02" stroke-miterlimit="2.4142" d="
					M70.3,72.3c-0.8,0.7-1.8,1.4-1.5,1.8C68.8,74.1,69.3,74.4,70.3,72.3L70.3,72.3z"/>
				
					<path fill-rule="evenodd" clip-rule="evenodd" fill="#FFFFFF" stroke="#C68126" stroke-width="5.387700e-02" stroke-miterlimit="2.4142" d="
					M70.6,74.5c-0.4,0-1.4-0.7-1.7-0.3C69,74.3,68.8,74.9,70.6,74.5L70.6,74.5z"/>
				
					<path fill-rule="evenodd" clip-rule="evenodd" fill="#FFFFFF" stroke="#C68126" stroke-width="5.387700e-02" stroke-miterlimit="2.4142" d="
					M72.6,74.2c-1.7,0.6-3,0.6-2.8,1.2C69.7,75.4,70.8,75.8,72.6,74.2L72.6,74.2z"/>
				
					<path fill-rule="evenodd" clip-rule="evenodd" fill="#FFFFFF" stroke="#C68126" stroke-width="5.387700e-02" stroke-miterlimit="2.4142" d="
					M67.2,73.1c0.1-0.1,0.1-0.3,0.3-0.3c0.3,0-0.2-0.5-0.3-0.5C67.1,72.4,67.1,72.7,67.2,73.1L67.2,73.1z"/>
				
					<path fill-rule="evenodd" clip-rule="evenodd" fill="#FFFFFF" stroke="#C68126" stroke-width="5.387700e-02" stroke-miterlimit="2.4142" d="
					M68.8,73.5c0,0-0.7,0.1-1,0c-0.3,0,0.3,0.4,0.3,0.4S68.5,73.9,68.8,73.5L68.8,73.5z"/>
				
					<path fill-rule="evenodd" clip-rule="evenodd" fill="#FFFFFF" stroke="#C68126" stroke-width="5.387700e-02" stroke-miterlimit="2.4142" d="
					M67.9,71.8c0,0.1,0,0.4,0,0.8c0.1,0.3,0.2,0.5-0.1,0.7C67.7,73.3,67.3,72.6,67.9,71.8L67.9,71.8z"/>
			</g>
			<g>
				
					<path fill-rule="evenodd" clip-rule="evenodd" fill="#FFFFFF" stroke="#C68126" stroke-width="5.387700e-02" stroke-miterlimit="2.4142" d="
					M55.8,53.4c0,0-1.1,0.4-0.8,1.1C55,54.5,55.7,54.7,55.8,53.4L55.8,53.4z"/>
				
					<path fill-rule="evenodd" clip-rule="evenodd" fill="#FFFFFF" stroke="#C68126" stroke-width="5.387700e-02" stroke-miterlimit="2.4142" d="
					M56.1,54.2c0,0-1.6,0.6-1.5,1.2C54.6,55.4,55.4,55.6,56.1,54.2L56.1,54.2z"/>
				
					<path fill-rule="evenodd" clip-rule="evenodd" fill="#FFFFFF" stroke="#C68126" stroke-width="5.387700e-02" stroke-miterlimit="2.4142" d="
					M54.6,53.7c0,0-0.8,1-0.3,1.6C54.3,55.3,54.9,55.1,54.6,53.7L54.6,53.7z"/>
				
					<path fill-rule="evenodd" clip-rule="evenodd" fill="#FFFFFF" stroke="#C68126" stroke-width="5.387700e-02" stroke-miterlimit="2.4142" d="
					M54,54.6c0,0-0.9,1.1-0.1,1.6c0,0,0.2-0.1,0.1-0.7C54,54.9,54,55.1,54,54.6L54,54.6z"/>
				
					<path fill-rule="evenodd" clip-rule="evenodd" fill="#FFFFFF" stroke="#C68126" stroke-width="5.387700e-02" stroke-miterlimit="2.4142" d="
					M54.2,56.2c0,0,0-0.4,0.4-0.5c0.4-0.2,0.8-0.4,0.8-0.4S55.1,56.3,54.2,56.2L54.2,56.2z"/>
				
					<path fill-rule="evenodd" clip-rule="evenodd" fill="#FFFFFF" stroke="#C68126" stroke-width="5.387700e-02" stroke-miterlimit="2.4142" d="
					M54.8,56.1c0,0-0.4,0.3-0.7,0.4c-0.3,0.1-0.4,0.4-0.4,0.4S54.4,57.5,54.8,56.1L54.8,56.1z"/>
				
					<path fill-rule="evenodd" clip-rule="evenodd" fill="#FFFFFF" stroke="#C68126" stroke-width="5.387700e-02" stroke-miterlimit="2.4142" d="
					M53.5,57c0,0,0.3-0.2,0.1-0.9c-0.1-0.7-0.1-0.7-0.1-0.7S52.7,56.5,53.5,57L53.5,57z"/>
				
					<path fill-rule="evenodd" clip-rule="evenodd" fill="#FFFFFF" stroke="#C68126" stroke-width="5.387700e-02" stroke-miterlimit="2.4142" d="
					M53.8,52.5c0,0-0.9,0.6-0.7,1.3C53.1,53.8,54,54,53.8,52.5L53.8,52.5z"/>
				
					<path fill-rule="evenodd" clip-rule="evenodd" fill="#FFFFFF" stroke="#C68126" stroke-width="5.387700e-02" stroke-miterlimit="2.4142" d="
					M54.4,53.3c-0.7,0.7-1.4,0.8-1.4,1.3C52.9,54.6,54,55.1,54.4,53.3L54.4,53.3z"/>
				
					<path fill-rule="evenodd" clip-rule="evenodd" fill="#FFFFFF" stroke="#C68126" stroke-width="5.387700e-02" stroke-miterlimit="2.4142" d="
					M52.8,52.1c0,0-0.4,2.2,0,2.4C52.8,54.5,53.2,54.1,52.8,52.1L52.8,52.1z"/>
				
					<path fill-rule="evenodd" clip-rule="evenodd" fill="#FFFFFF" stroke="#C68126" stroke-width="5.387700e-02" stroke-miterlimit="2.4142" d="
					M52.2,53c-0.1,0.6-0.4,2.2,0.1,2.4C52.4,55.4,52.9,55.4,52.2,53L52.2,53z"/>
				
					<path fill-rule="evenodd" clip-rule="evenodd" fill="#FFFFFF" stroke="#C68126" stroke-width="5.387700e-02" stroke-miterlimit="2.4142" d="
					M51.7,53.6c-0.1,1-0.3,2.4,0.2,2.6C51.9,56.2,52.4,56.1,51.7,53.6L51.7,53.6z"/>
				
					<path fill-rule="evenodd" clip-rule="evenodd" fill="#FFFFFF" stroke="#C68126" stroke-width="5.387700e-02" stroke-miterlimit="2.4142" d="
					M53.6,54.7c-0.3,0.2-1,0.2-1,0.7C52.6,55.4,53.4,55.5,53.6,54.7L53.6,54.7z"/>
				
					<path fill-rule="evenodd" clip-rule="evenodd" fill="#FFFFFF" stroke="#C68126" stroke-width="5.387700e-02" stroke-miterlimit="2.4142" d="
					M53.2,55.5c-0.5,0.3-0.9,0-1.1,0.7C52.2,56.1,53,56.3,53.2,55.5L53.2,55.5z"/>
				
					<path fill-rule="evenodd" clip-rule="evenodd" fill="#FFFFFF" stroke="#C68126" stroke-width="5.387700e-02" stroke-miterlimit="2.4142" d="
					M52.8,56.3c-0.5,0.3-0.9-0.1-1.1,0.7C51.7,56.9,52.3,57.3,52.8,56.3L52.8,56.3z"/>
				
					<path fill-rule="evenodd" clip-rule="evenodd" fill="#FFFFFF" stroke="#C68126" stroke-width="5.387700e-02" stroke-miterlimit="2.4142" d="
					M51.2,54.3c-0.1,1-0.2,2.7,0.2,2.8C51.8,57,51.6,56.1,51.2,54.3L51.2,54.3z"/>
				
					<path fill-rule="evenodd" clip-rule="evenodd" fill="#FFFFFF" stroke="#C68126" stroke-width="5.387700e-02" stroke-miterlimit="2.4142" d="
					M51.5,57.2c0,0-0.6,0.1-0.6,1C50.9,58.2,51.7,58.2,51.5,57.2L51.5,57.2z"/>
				<path fill="#FFFFFF" stroke="#C68126" stroke-width="5.387700e-02" stroke-miterlimit="2.4142" d="M50.8,54.9
					C50.8,54.9,50.9,54.9,50.8,54.9c0.1,0,0.1,0,0.1,0c-0.1,0.2-0.1,0.3-0.1,0.5c0,0.2,0,0.4,0.1,0.7c0.1,0.4,0.1,0.6,0,0.8
					c0,0.1,0,0.1,0,0.2c0,0,0,0.1-0.1,0.1c0,0-0.1,0-0.1-0.1c0-0.1,0-0.2,0-0.2c0-0.2,0.1-0.3,0-0.7c-0.1-0.3-0.1-0.5-0.1-0.7
					C50.7,55.3,50.8,55.1,50.8,54.9L50.8,54.9z"/>
				<path fill="#FFFFFF" stroke="#C68126" stroke-width="5.387700e-02" stroke-miterlimit="2.4142" d="M50.2,55.7
					C50.2,55.7,50.2,55.7,50.2,55.7c0.1-0.1,0.1-0.1,0.1,0c0,0.3,0.1,0.5,0,0.7c0,0.2-0.1,0.5-0.1,0.8c-0.1,0.5,0,0.8,0.1,1
					c0,0.1,0.1,0.2,0.1,0.3c0.1,0.3,0,0.4,0,0.4c0,0-0.1,0-0.1,0c0,0,0-0.1,0-0.1c0,0,0,0,0-0.3c0-0.1,0-0.2-0.1-0.3
					c-0.1-0.3-0.2-0.6-0.1-1.1c0.1-0.3,0.1-0.6,0.1-0.8C50.3,56.2,50.3,56,50.2,55.7L50.2,55.7z"/>
				<path fill="#FFFFFF" stroke="#C68126" stroke-width="5.387700e-02" stroke-miterlimit="2.4142" d="M49.6,56.5
					C49.6,56.4,49.6,56.4,49.6,56.5c0.1-0.1,0.1-0.1,0.1,0l0,0c0.1,0.3,0.1,0.4,0,0.7c-0.1,0.3,0,0.7,0,0.7c0,0,0,0.1-0.1,0.1
					c0,0-0.1,0-0.1-0.1c0,0-0.1-0.5,0-0.8C49.7,56.8,49.7,56.8,49.6,56.5L49.6,56.5L49.6,56.5z"/>
				<path fill-rule="evenodd" clip-rule="evenodd" fill="#FFFFFF" d="M51.6,58.7c0.7,1.1,1.7,2.8,1.6,3.6c-0.1,0.8-0.5,1.6-0.6,1.8
					c-0.1,0.1,0-0.1-0.2-0.6c-0.2-0.8-1.8-3.1-2.4-3.7c-0.2-0.2-0.2-0.2-0.2-0.3c0.1-0.1,0.1-0.1,0.4-0.1c0.4,0,0.7,0.1,0.7-0.2
					c0-0.3,0-0.5,0.1-0.7C51.3,58.4,51.5,58.4,51.6,58.7L51.6,58.7z"/>
				
					<path fill-rule="evenodd" clip-rule="evenodd" fill="#FFFFFF" stroke="#C68126" stroke-width="5.387700e-02" stroke-miterlimit="2.4142" d="
					M54,57.8c-0.2,0.1-0.7,0.5-1,0.8c-0.3,0.3-0.7,1-0.8,1.3c-0.1,0.3-0.1-0.1-0.1-0.1s0.2-1.2,0.2-1.5s-0.1-0.5-0.1-0.6
					c0-0.1,0.2-0.4,0.2-0.2c0.1,0.2,0.2,0.6,0.3,0.7c0.1,0.1,0.1,0,0.1-0.1c0-0.1,0-0.7,0.3-0.8c0.3-0.1,0.3,0,0.3,0.1
					c0,0.2-0.1,0.3-0.1,0.5c0,0.1,0.1,0.1,0.2,0.1c0.1-0.1,0.3-0.3,0.4-0.4C54.1,57.4,54.4,57.6,54,57.8L54,57.8z"/>
				
					<path fill-rule="evenodd" clip-rule="evenodd" fill="#FFFFFF" stroke="#C68126" stroke-width="5.387700e-02" stroke-miterlimit="2.4142" d="
					M49.4,58.1c-0.2,0.7-0.3,1.1,0.1,1.5C49.4,59.7,49.8,59.3,49.4,58.1L49.4,58.1z"/>
				
					<path fill-rule="evenodd" clip-rule="evenodd" fill="#FFFFFF" stroke="#C68126" stroke-width="5.387700e-02" stroke-miterlimit="2.4142" d="
					M50,59.4c-0.3,0.2-0.5,0.5-0.4,1C49.6,60.4,50,60.3,50,59.4L50,59.4z"/>
				
					<path fill-rule="evenodd" clip-rule="evenodd" fill="#FFFFFF" stroke="#C68126" stroke-width="5.387700e-02" stroke-miterlimit="2.4142" d="
					M48.6,58.8c0.1,0.6,0.1,1.5,0.8,1.6c0,0,0.1-0.4-0.2-0.8C48.8,59.3,48.7,59,48.6,58.8L48.6,58.8z"/>
				
					<path fill-rule="evenodd" clip-rule="evenodd" fill="#FFFFFF" stroke="#C68126" stroke-width="5.387700e-02" stroke-miterlimit="2.4142" d="
					M48.4,59.5c0.1,0.5,0.3,1.6,1.1,1.8c0,0,0.1-0.5-0.2-0.7C48.9,60.3,48.5,59.9,48.4,59.5L48.4,59.5z"/>
				
					<path fill-rule="evenodd" clip-rule="evenodd" fill="#FFFFFF" stroke="#C68126" stroke-width="5.387700e-02" stroke-miterlimit="2.4142" d="
					M50,60.1c-0.1,0.4-0.5,0.5-0.5,1.1C49.6,61.3,50.3,61.3,50,60.1L50,60.1z"/>
				
					<path fill-rule="evenodd" clip-rule="evenodd" fill="#FFFFFF" stroke="#C68126" stroke-width="5.387700e-02" stroke-miterlimit="2.4142" d="
					M50.2,61c-0.4,0.5-0.7,0.4-0.6,1.1C49.6,62.1,50.2,62.2,50.2,61L50.2,61z"/>
				
					<path fill-rule="evenodd" clip-rule="evenodd" fill="#FFFFFF" stroke="#C68126" stroke-width="5.387700e-02" stroke-miterlimit="2.4142" d="
					M48.3,60.5c0.3,0.8,0.5,1.8,1.1,1.7C49.4,61.7,49.4,61.7,48.3,60.5L48.3,60.5z"/>
				
					<path fill-rule="evenodd" clip-rule="evenodd" fill="#FFFFFF" stroke="#C68126" stroke-width="5.387700e-02" stroke-miterlimit="2.4142" d="
					M48.3,61.4c0.2,0.2,0.4,0.5,0.6,0.8c0.3,0.3,0.6,0.5,0.5,0.8C49.4,63,48.8,63.2,48.3,61.4L48.3,61.4z"/>
				
					<path fill-rule="evenodd" clip-rule="evenodd" fill="#FFFFFF" stroke="#C68126" stroke-width="5.387700e-02" stroke-miterlimit="2.4142" d="
					M50.2,61.9c-0.3,0.5-0.7,0.6-0.6,1C49.6,62.9,50.4,63.1,50.2,61.9L50.2,61.9z"/>
				
					<path fill-rule="evenodd" clip-rule="evenodd" fill="#FFFFFF" stroke="#C68126" stroke-width="5.387700e-02" stroke-miterlimit="2.4142" d="
					M48.6,62.5c0.5,0.5,1.2,0.9,1,1.4C49.6,64,49.1,64.2,48.6,62.5L48.6,62.5z"/>
				
					<path fill-rule="evenodd" clip-rule="evenodd" fill="#FFFFFF" stroke="#C68126" stroke-width="5.387700e-02" stroke-miterlimit="2.4142" d="
					M50.3,62.7c-0.2,0.5-0.7,0.6-0.6,1.1C49.7,63.8,50.4,64.1,50.3,62.7L50.3,62.7z"/>
				
					<path fill-rule="evenodd" clip-rule="evenodd" fill="#FFFFFF" stroke="#C68126" stroke-width="5.387700e-02" stroke-miterlimit="2.4142" d="
					M51.1,60.5c-0.2,0.7-0.4,1.3,0,1.5C51.1,62.1,51.7,61.8,51.1,60.5L51.1,60.5z"/>
				
					<path fill-rule="evenodd" clip-rule="evenodd" fill="#FFFFFF" stroke="#C68126" stroke-width="5.387700e-02" stroke-miterlimit="2.4142" d="
					M50.5,61.5c0.4,0.6,0.8,0.9,0.6,1.4C51.1,63,50.4,63,50.5,61.5L50.5,61.5z"/>
				
					<path fill-rule="evenodd" clip-rule="evenodd" fill="#FFFFFF" stroke="#C68126" stroke-width="5.387700e-02" stroke-miterlimit="2.4142" d="
					M51.8,61.5c-0.1,0.3-0.6,0.6-0.6,1.3C51.3,62.8,51.9,62.8,51.8,61.5L51.8,61.5z"/>
				
					<path fill-rule="evenodd" clip-rule="evenodd" fill="#FFFFFF" stroke="#C68126" stroke-width="5.387700e-02" stroke-miterlimit="2.4142" d="
					M51.9,62.6c-0.3,0.4-0.6,0.4-0.5,1C51.4,63.6,52,63.8,51.9,62.6L51.9,62.6z"/>
				
					<path fill-rule="evenodd" clip-rule="evenodd" fill="#FFFFFF" stroke="#C68126" stroke-width="5.387700e-02" stroke-miterlimit="2.4142" d="
					M50.4,62.7c0.4,0.4,0.8,0.5,0.8,1C51.2,63.7,50.6,63.7,50.4,62.7L50.4,62.7z"/>
				
					<path fill-rule="evenodd" clip-rule="evenodd" fill="#FFFFFF" stroke="#C68126" stroke-width="5.387700e-02" stroke-miterlimit="2.4142" d="
					M50.5,63.4c0.2,0.2,0.9,0.3,0.8,1C51.2,64.4,50.7,64.6,50.5,63.4L50.5,63.4z"/>
				
					<path fill-rule="evenodd" clip-rule="evenodd" fill="#FFFFFF" stroke="#C68126" stroke-width="5.387700e-02" stroke-miterlimit="2.4142" d="
					M52,63.4c-0.4,0.6-0.6,0.5-0.6,1C51.4,64.5,52.2,64.6,52,63.4L52,63.4z"/>
				<path fill="#FFFFFF" stroke="#C68126" stroke-width="5.387700e-02" stroke-miterlimit="2.4142" d="M48,62.2
					C48,62.1,48,62.1,48,62.2c0-0.1,0.1-0.1,0.1-0.1c0.1,0.2,0.2,0.3,0.2,0.5c0,0.1,0,0.1,0.1,0.2c0.1,0.2,0.2,0.3,0.2,0.3
					c0,0,0,0.1,0,0.1c0,0-0.1,0-0.1,0c0,0-0.2-0.2-0.2-0.4c0-0.1,0-0.1-0.1-0.2C48.2,62.5,48.1,62.3,48,62.2L48,62.2z"/>
				
					<path fill-rule="evenodd" clip-rule="evenodd" fill="#FFFFFF" stroke="#C68126" stroke-width="5.387700e-02" stroke-miterlimit="2.4142" d="
					M54.2,58.6c-0.2,0.2-0.3,0.3-0.4,0.8c0,0.5-0.4,0.9-0.5,1c-0.2,0.1-0.3-0.1-0.2-0.2c0.1-0.1,0.5-0.5,0.5-0.8
					c0-0.3,0.2-0.7,0.4-0.9C54.2,58.4,54.3,58.5,54.2,58.6L54.2,58.6z"/>
				
					<path fill-rule="evenodd" clip-rule="evenodd" fill="#FFFFFF" stroke="#C68126" stroke-width="5.387700e-02" stroke-miterlimit="2.4142" d="
					M53.6,58.5c-0.2,0.2-0.5,0.5-0.6,0.8S53,59.8,52.9,60c-0.1,0.2-0.3,0.1-0.3,0c0-0.1,0.1-0.7,0.3-0.9c0.1-0.2,0.5-0.6,0.7-0.7
					C53.7,58.3,53.8,58.4,53.6,58.5L53.6,58.5z"/>
				<path fill-rule="evenodd" clip-rule="evenodd" fill="#FFFFFF" d="M54.4,67.2c0,0-0.3-1.2-0.5-1.7c-0.2-0.4-0.8-0.9-1.3-0.9
					c-0.5,0-2.1-0.2-2.7-0.4c-0.6-0.2-1.3-0.6-1.5-0.9c-0.2-0.3-0.3,0-0.2,0.2c0.1,0.3,0.4,1.6,1.2,1.9c0.8,0.3,1.6,0.5,2.2,0.7
					c0.6,0.2,1.5,0.2,1.9,0.5C54.1,66.8,54.4,67.2,54.4,67.2L54.4,67.2z"/>
				
					<path fill-rule="evenodd" clip-rule="evenodd" fill="#FFFFFF" stroke="#C68126" stroke-width="5.387700e-02" stroke-miterlimit="2.4142" d="
					M53.2,63.6c-0.5,0.3-0.7,0.4-0.8,1.2C52.4,64.8,53.2,64.6,53.2,63.6L53.2,63.6z"/>
				
					<path fill-rule="evenodd" clip-rule="evenodd" fill="#FFFFFF" stroke="#C68126" stroke-width="5.387700e-02" stroke-miterlimit="2.4142" d="
					M49.9,65.1c-0.1,0.4-0.3,0.8,0,1.1C49.9,66.2,50.4,66,49.9,65.1L49.9,65.1z"/>
				
					<path fill-rule="evenodd" clip-rule="evenodd" fill="#FFFFFF" stroke="#C68126" stroke-width="5.387700e-02" stroke-miterlimit="2.4142" d="
					M48.2,64.9c0.4,0.7,0.9,1.7,1.6,1.4c0,0,0-0.3-0.7-0.7C48.4,65.2,48.2,64.9,48.2,64.9L48.2,64.9z"/>
				
					<path fill-rule="evenodd" clip-rule="evenodd" fill="#FFFFFF" stroke="#C68126" stroke-width="5.387700e-02" stroke-miterlimit="2.4142" d="
					M50.3,65.6c0,0.3-0.2,1.3,0.2,1.3C50.9,66.9,50.4,66,50.3,65.6L50.3,65.6z"/>
				
					<path fill-rule="evenodd" clip-rule="evenodd" fill="#FFFFFF" stroke="#C68126" stroke-width="5.387700e-02" stroke-miterlimit="2.4142" d="
					M50.8,66.2c0.1,0.5-0.4,1.2,0,1.4C50.8,67.6,51.4,67.4,50.8,66.2L50.8,66.2z"/>
				
					<path fill-rule="evenodd" clip-rule="evenodd" fill="#FFFFFF" stroke="#C68126" stroke-width="5.387700e-02" stroke-miterlimit="2.4142" d="
					M48.7,66.2c0.7,0.3,1.5,0.5,1.5,0.9C50.2,67.1,49.9,67.6,48.7,66.2L48.7,66.2z"/>
				
					<path fill-rule="evenodd" clip-rule="evenodd" fill="#FFFFFF" stroke="#C68126" stroke-width="5.387700e-02" stroke-miterlimit="2.4142" d="
					M49.1,66.9c0.4,0.3,1.6,0.4,1.6,0.9C50.7,67.8,50.4,68.3,49.1,66.9L49.1,66.9z"/>
				
					<path fill-rule="evenodd" clip-rule="evenodd" fill="#FFFFFF" stroke="#C68126" stroke-width="5.387700e-02" stroke-miterlimit="2.4142" d="
					M49,67.2c0.7,0.5,1.7,0.6,1.5,1C50.2,68.6,49.1,67.5,49,67.2L49,67.2z"/>
				
					<path fill-rule="evenodd" clip-rule="evenodd" fill="#FFFFFF" stroke="#C68126" stroke-width="5.387700e-02" stroke-miterlimit="2.4142" d="
					M49.1,67.8c0.6,0.4,1.8,0.8,1.6,1.1C50.4,69.2,49.3,68.2,49.1,67.8L49.1,67.8z"/>
				
					<path fill-rule="evenodd" clip-rule="evenodd" fill="#FFFFFF" stroke="#C68126" stroke-width="5.387700e-02" stroke-miterlimit="2.4142" d="
					M49.6,68.7c0.4,0.2,2,0.5,1.8,1C51.4,69.7,51.1,70.1,49.6,68.7L49.6,68.7z"/>
				
					<path fill-rule="evenodd" clip-rule="evenodd" fill="#FFFFFF" stroke="#C68126" stroke-width="5.387700e-02" stroke-miterlimit="2.4142" d="
					M51.2,67.2c-0.1,0.4-0.6,1.2-0.4,1.4C50.8,68.6,51.4,68.8,51.2,67.2L51.2,67.2z"/>
				
					<path fill-rule="evenodd" clip-rule="evenodd" fill="#FFFFFF" stroke="#C68126" stroke-width="5.387700e-02" stroke-miterlimit="2.4142" d="
					M51.5,67.8c0,0.6-0.4,1.4,0.1,1.7C51.6,69.5,52.1,69.2,51.5,67.8L51.5,67.8z"/>
				
					<path fill-rule="evenodd" clip-rule="evenodd" fill="#FFFFFF" stroke="#C68126" stroke-width="5.387700e-02" stroke-miterlimit="2.4142" d="
					M50.3,69.6c0.3,0.1,0.6,0.3,0.9,0.3c0.6,0.1,1.1,0.2,0.9,0.6C52.1,70.5,51.7,71,50.3,69.6L50.3,69.6z"/>
				
					<path fill-rule="evenodd" clip-rule="evenodd" fill="#FFFFFF" stroke="#C68126" stroke-width="5.387700e-02" stroke-miterlimit="2.4142" d="
					M52.1,68.8c0,0.7-0.2,1.4,0.3,1.5C52.4,70.3,52.9,70,52.1,68.8L52.1,68.8z"/>
				
					<path fill-rule="evenodd" clip-rule="evenodd" fill="#FFFFFF" stroke="#C68126" stroke-width="5.387700e-02" stroke-miterlimit="2.4142" d="
					M52.6,68.2c0.1,0.5,0.3,0.6,0.3,1c0.1,0.3,0,0.7,0.5,0.9c0,0-0.1-0.5-0.2-0.8C53.2,68.9,52.9,68.7,52.6,68.2L52.6,68.2z"/>
				
					<path fill-rule="evenodd" clip-rule="evenodd" fill="#FFFFFF" stroke="#C68126" stroke-width="5.387700e-02" stroke-miterlimit="2.4142" d="
					M51.8,67.2c0,0,0.3,0.4,0.4,0.8c0.1,0.5,0.1,1,0.5,1.3c0,0-0.3-0.6-0.3-1.2C52.4,67.7,52,67.4,51.8,67.2L51.8,67.2z"/>
				
					<path fill-rule="evenodd" clip-rule="evenodd" fill="#FFFFFF" stroke="#C68126" stroke-width="5.387700e-02" stroke-miterlimit="2.4142" d="
					M53.3,68.8c0.4,0.4,1.4,0.4,1.2,0.9C54.5,69.7,53.9,69.9,53.3,68.8L53.3,68.8z"/>
				
					<path fill-rule="evenodd" clip-rule="evenodd" fill="#FFFFFF" stroke="#C68126" stroke-width="5.387700e-02" stroke-miterlimit="2.4142" d="
					M55,68.5c0,0.6-0.6,0.9-0.3,1.1C54.8,69.6,55.4,69.7,55,68.5L55,68.5z"/>
				
					<path fill-rule="evenodd" clip-rule="evenodd" fill="#FFFFFF" stroke="#C68126" stroke-width="5.387700e-02" stroke-miterlimit="2.4142" d="
					M55.4,68.8c0,0.2-0.3,0.5-0.1,0.8C55.3,69.6,55.8,69.7,55.4,68.8L55.4,68.8z"/>
				
					<path fill-rule="evenodd" clip-rule="evenodd" fill="#FFFFFF" stroke="#C68126" stroke-width="5.387700e-02" stroke-miterlimit="2.4142" d="
					M54.7,67.8c-0.1,0.7-0.6,0.9-0.4,1.1C54.4,68.9,55.1,69.1,54.7,67.8L54.7,67.8z"/>
				
					<path fill-rule="evenodd" clip-rule="evenodd" fill="#FFFFFF" stroke="#C68126" stroke-width="5.387700e-02" stroke-miterlimit="2.4142" d="
					M52.5,67.6c0.4,0.5,1.8,0.9,1.6,1.3C53.9,69.3,52.7,68,52.5,67.6L52.5,67.6z"/>
				
					<path fill-rule="evenodd" clip-rule="evenodd" fill="#FFFFFF" stroke="#C68126" stroke-width="5.387700e-02" stroke-miterlimit="2.4142" d="
					M52.1,66.8c0.4,0.3,2,0.9,1.7,1.4C53.8,68.2,53.6,68.6,52.1,66.8L52.1,66.8z"/>
				
					<path fill-rule="evenodd" clip-rule="evenodd" fill="#FFFFFF" stroke="#C68126" stroke-width="5.387700e-02" stroke-miterlimit="2.4142" d="
					M54.4,66.8c0.1,0.5-0.5,1.1-0.3,1.4C54.4,68.4,54.7,67.5,54.4,66.8L54.4,66.8z"/>
				
					<path fill-rule="evenodd" clip-rule="evenodd" fill="#FFFFFF" stroke="#C68126" stroke-width="5.387700e-02" stroke-miterlimit="2.4142" d="
					M53.2,66.5c0.1,0.2,1,0.7,0.7,1C54,67.5,53.1,67.8,53.2,66.5L53.2,66.5z"/>
				
					<path fill-rule="evenodd" clip-rule="evenodd" fill="#FFFFFF" stroke="#C68126" stroke-width="5.387700e-02" stroke-miterlimit="2.4142" d="
					M52.4,66.3c0.2,0.2,0.8,0.5,0.7,0.8C53,67.1,52.5,67.3,52.4,66.3L52.4,66.3z"/>
				
					<path fill-rule="evenodd" clip-rule="evenodd" fill="#FFFFFF" stroke="#C68126" stroke-width="5.387700e-02" stroke-miterlimit="2.4142" d="
					M57.9,71c-0.9-1.5-2.8-1.4-4.2-0.7c-0.8,0.4-1.1,0.8-3.2,0.6c0.8,1.8,2.7,1.7,4.4,0.7C55.9,71,56.5,70.6,57.9,71L57.9,71z"/>
				
					<path fill-rule="evenodd" clip-rule="evenodd" fill="#FFFFFF" stroke="#C68126" stroke-width="5.387700e-02" stroke-miterlimit="2.4142" d="
					M56,70.6c0.1,0.3,0.1,0.9,0.6,0.7C56.6,71.3,56.8,70.6,56,70.6L56,70.6z"/>
				
					<path fill-rule="evenodd" clip-rule="evenodd" fill="#FFFFFF" stroke="#C68126" stroke-width="5.387700e-02" stroke-miterlimit="2.4142" d="
					M56.9,70.5c0,0.4-0.2,1.2,0.2,1.3C57.1,71.8,57.7,71.6,56.9,70.5L56.9,70.5z"/>
				
					<path fill-rule="evenodd" clip-rule="evenodd" fill="#FFFFFF" stroke="#C68126" stroke-width="5.387700e-02" stroke-miterlimit="2.4142" d="
					M55.6,71.4c0.5,0.2,1.2-0.1,1.2,0.4C56.8,71.9,56.6,72.4,55.6,71.4L55.6,71.4z"/>
				
					<path fill-rule="evenodd" clip-rule="evenodd" fill="#FFFFFF" stroke="#C68126" stroke-width="5.387700e-02" stroke-miterlimit="2.4142" d="
					M57.5,71.1c0.2,0.7-0.3,1.2,0,1.4C57.7,72.5,58.2,72.1,57.5,71.1L57.5,71.1z"/>
				
					<path fill-rule="evenodd" clip-rule="evenodd" fill="#FFFFFF" stroke="#C68126" stroke-width="5.387700e-02" stroke-miterlimit="2.4142" d="
					M55.9,72.1c0.5,0.1,1.4-0.1,1.4,0.3C57.3,72.8,56.2,72.4,55.9,72.1L55.9,72.1z"/>
				
					<path fill-rule="evenodd" clip-rule="evenodd" fill="#FFFFFF" stroke="#C68126" stroke-width="5.387700e-02" stroke-miterlimit="2.4142" d="
					M56.4,72.7c0.5,0.2,1.5,0,1.5,0.5C57.8,73.4,57.3,73.6,56.4,72.7L56.4,72.7z"/>
				
					<path fill-rule="evenodd" clip-rule="evenodd" fill="#FFFFFF" stroke="#C68126" stroke-width="5.387700e-02" stroke-miterlimit="2.4142" d="
					M55.7,72.3c0.8,0.7,1.8,1.4,1.5,1.8C57.2,74.1,56.7,74.4,55.7,72.3L55.7,72.3z"/>
				
					<path fill-rule="evenodd" clip-rule="evenodd" fill="#FFFFFF" stroke="#C68126" stroke-width="5.387700e-02" stroke-miterlimit="2.4142" d="
					M55.4,74.5c0.4,0,1.4-0.7,1.7-0.3C57,74.3,57.2,74.9,55.4,74.5L55.4,74.5z"/>
				
					<path fill-rule="evenodd" clip-rule="evenodd" fill="#FFFFFF" stroke="#C68126" stroke-width="5.387700e-02" stroke-miterlimit="2.4142" d="
					M53.4,74.2c1.7,0.6,3,0.6,2.8,1.2C56.3,75.4,55.2,75.8,53.4,74.2L53.4,74.2z"/>
				
					<path fill-rule="evenodd" clip-rule="evenodd" fill="#FFFFFF" stroke="#C68126" stroke-width="5.387700e-02" stroke-miterlimit="2.4142" d="
					M58.8,73.1c-0.1-0.1-0.1-0.3-0.3-0.3c-0.3,0,0.2-0.5,0.3-0.5C58.9,72.4,58.9,72.7,58.8,73.1L58.8,73.1z"/>
				
					<path fill-rule="evenodd" clip-rule="evenodd" fill="#FFFFFF" stroke="#C68126" stroke-width="5.387700e-02" stroke-miterlimit="2.4142" d="
					M57.2,73.5c0,0,0.7,0.1,1,0c0.3,0-0.3,0.4-0.3,0.4S57.5,73.9,57.2,73.5L57.2,73.5z"/>
				
					<path fill-rule="evenodd" clip-rule="evenodd" fill="#FFFFFF" stroke="#C68126" stroke-width="5.387700e-02" stroke-miterlimit="2.4142" d="
					M58.1,71.8c0,0.1,0,0.4,0,0.8c-0.1,0.3-0.2,0.5,0.1,0.7C58.3,73.3,58.7,72.6,58.1,71.8L58.1,71.8z"/>
			</g>
			<path fill-rule="evenodd" clip-rule="evenodd" fill="#FFFFFF" d="M59.1,70.9c0.7,1.2,0.3,1.7,1.4,2.5c-0.3-0.4-0.4-0.8-0.6-1.2
				C59.7,71.6,59.5,71.3,59.1,70.9L59.1,70.9z M66.4,70.9c-0.5,0.6-0.5,0.7-0.7,1.2c-0.2,0.6-0.4,1.1-0.8,1.3
				C65.6,72.4,65.1,71.8,66.4,70.9L66.4,70.9z M66.9,70.9c-0.7,1.2-0.3,1.7-1.4,2.5c0.3-0.4,0.4-0.8,0.6-1.2
				C66.3,71.6,66.5,71.3,66.9,70.9L66.9,70.9z M64.3,73c-0.5,0.2-1.1,0.1-1.2,0.6C63.1,73.5,63.7,73.7,64.3,73L64.3,73z M64.8,72.9
				c-0.2,0.2-0.7,0.4-0.6,0.6C64.2,73.5,64.5,73.7,64.8,72.9L64.8,72.9z M61.7,73c0.5,0.2,1.1,0.1,1.2,0.6
				C62.9,73.5,62.3,73.7,61.7,73L61.7,73z M61.2,72.9c0.2,0.2,0.6,0.4,0.6,0.6C61.9,73.5,61.5,73.7,61.2,72.9L61.2,72.9z M63.7,72.4
				c-0.1,0-0.2,0.1-0.3,0.1c-0.1,0-0.2,0-0.2-0.1c0-0.2-0.1-0.4,0-0.5c0.1-0.1,0.4-0.1,0.5-0.1c0.1,0,0.1,0.1,0.1,0.2
				C63.9,72.2,63.9,72.4,63.7,72.4L63.7,72.4z M64.8,71.9c-0.3-0.1-0.6-0.2-0.6-0.1c0,0.1,0,0.3,0,0.4c0,0.2,0.1,0.1,0.3,0.2
				c0.1,0.1,0.3,0.1,0.4,0C64.9,72.3,65,72,64.8,71.9L64.8,71.9z M62.3,72.4c0.1,0,0.2,0.1,0.3,0.1c0.1,0,0.2,0,0.2-0.1
				c0-0.2,0.1-0.4,0-0.5c-0.1-0.1-0.4-0.1-0.5-0.1c-0.1,0-0.1,0.1-0.1,0.2C62.1,72.2,62.1,72.4,62.3,72.4L62.3,72.4z M61.2,71.9
				c0.3-0.1,0.6-0.2,0.6-0.1c0,0.1,0,0.3,0,0.4c0,0.2-0.1,0.1-0.3,0.2c-0.1,0.1-0.3,0.1-0.4,0C61.1,72.3,61,72,61.2,71.9L61.2,71.9z
				 M63.9,70.9c0.2-0.3,0.3-0.7,0.3-0.8c0-0.1,0.1-0.1,0.1,0c0.1,0.3,0.2,0.5,0.4,0.8c0,0,0,0.2,0,0.2c0,0.1,0,0.2-0.1,0.1
				c-0.1-0.2-0.2-0.5-0.3-0.7c0-0.1,0-0.2-0.1,0c0,0.1-0.1,0.4-0.1,0.5c0,0.1-0.2,0.3-0.2,0.2C63.9,71,63.9,71,63.9,70.9L63.9,70.9z
				 M63.5,70.3c0,0.4,0,0.5,0.1,0.7c0.1,0.1,0,0.2,0,0.3c0,0.1-0.1,0.1-0.2-0.1c0-0.1,0-0.3-0.1-0.4c0-0.1-0.1,0-0.2,0
				c-0.1,0-0.3-0.1-0.3-0.2C63.1,70,63.6,70,63.5,70.3L63.5,70.3z M63.4,70.5c0,0.1-0.1,0-0.2,0C63,70.5,63.4,70.2,63.4,70.5
				L63.4,70.5z M62.1,70.5c0.2,0.3,0.3,0.6,0.3,0.8c0,0.3,0.1,0,0.1-0.2c0-0.1-0.1-0.3-0.1-0.4c0-0.1,0.1,0,0.2-0.1
				c0.1-0.1,0.1-0.4,0.1-0.4c0,0-0.1,0.1-0.1,0.2c-0.1,0-0.2,0-0.3-0.1C62.1,70,62,70.3,62.1,70.5L62.1,70.5z M61.3,70.5
				c0.2,0.3,0.3,0.7,0.3,0.8c0,0.1,0,0.1,0.1,0c0.1-0.2-0.1-1.4-0.3-1.1C61.2,70.4,61.2,70.4,61.3,70.5L61.3,70.5z M59.6,70.9
				c0.5,0.6,0.5,0.7,0.7,1.2c0.2,0.6,0.4,1.1,0.8,1.3C60.4,72.4,60.9,71.8,59.6,70.9L59.6,70.9z"/>
			<path fill-rule="evenodd" clip-rule="evenodd" fill="#FFFFFF" d="M67.1,73.1c0.3-0.1,0.4-0.1,0.6,0.1c0.3,0.3,1.7,1.6,2,1.9
				c0.3,0.3,0.6,0.6,0.1,1c-0.5,0.4-1.7,0.4-1.8,0.6c-0.1,0.2-0.1,0.2,0,0.4c0.1,0.2,0.1,0.2,0.2,0.4c0,0.1,0,0.2-0.2,0.1
				c-0.2-0.1-0.7-0.3-1.2-0.2c-0.5,0.1-0.9,0.3-1.2,0.3c-0.3,0-0.6,0-0.7-0.3c-0.1-0.3-0.2-0.5-0.5-0.5c-0.8,0.1-2.1,0.1-2.8,0
				c-0.3,0-0.3,0.2-0.5,0.5c-0.1,0.3-0.4,0.3-0.7,0.3c-0.3,0-0.6-0.2-1.2-0.3c-0.5-0.1-1.1,0.1-1.2,0.2c-0.1,0.1-0.2,0-0.2-0.1
				c0-0.1,0.1-0.2,0.2-0.4c0.1-0.2,0.1-0.2,0-0.4c-0.1-0.2-1.3-0.1-1.8-0.6c-0.5-0.4-0.2-0.7,0.1-1c0.3-0.3,1.7-1.5,2-1.9
				c0.2-0.3,0.3-0.2,0.6-0.1C62.4,74.4,63.6,74.4,67.1,73.1L67.1,73.1z M66.8,74.2c0.1,0.1,0.7,0.6,0.9,0.8c0.1,0.1,0.2,0.2,0.2,0.1
				c0-0.1-0.1-0.3-0.1-0.4c-0.1-0.1-0.8-0.7-0.9-0.8c-0.1-0.1-0.1-0.1-0.1,0C66.7,74,66.7,74.1,66.8,74.2L66.8,74.2z M59.3,74.5
				c0.1-0.1,0.2-0.1,0.3-0.1s0.2,0.2,0.3,0.2c0,0,0,0-0.1,0.1c-0.1,0-0.2,0.1-0.2,0.1C59.5,74.8,59.3,74.6,59.3,74.5
				C59.2,74.5,59.2,74.5,59.3,74.5L59.3,74.5z M58.7,74.7c-0.3,0.1-1.2,0.5-0.7,0.9c0.2,0.2,0.7,0.4,1.2,0.4c0.5,0,0.7-0.5,0.8-0.6
				c0.1-0.1,0.1-0.4,0-0.3c-0.1,0.1-0.2,0.1-0.3,0.2c0,0.1,0,0.2,0,0.3c0,0.1-0.1,0.2-0.3,0.2c-0.2,0-0.7-0.1-0.9-0.2
				c-0.2-0.1-0.5-0.3-0.2-0.4C58.5,74.9,58.7,74.8,58.7,74.7C58.9,74.8,58.8,74.7,58.7,74.7L58.7,74.7z M60.3,74.6
				c0,0.1,0,0.2-0.1,0.3c-0.1,0.1-0.2,0.4-0.3,0.5c0,0.1,0,0.3,0.2,0.3c0.2,0,0.8,0.1,0.9,0.2c0.1,0.1,0.3,0.1,0.5,0.1
				c0.1,0,0.2,0,0.2-0.1c0.3-0.1,0.3,0.3,1,0.1c0.1,0,0.1,0,0.3,0c0.5,0.1,0.4,0,0.6,0c0.1,0,0.6,0,0.7,0c0.1,0,0-0.3,0-0.4
				c0-0.1-0.1-0.4-0.3-0.5c0,0-0.1,0-0.1,0.1c0,0.1,0,0.1,0,0.2c0,0,0,0,0.1,0.1c0.1,0.1,0.2,0.1,0.2,0.1c0,0,0,0-0.2,0.1
				c-0.2,0-0.3,0.1-0.4,0c-0.1,0-0.1-0.2-0.1-0.3c0-0.1-0.1,0-0.1,0c-0.1,0.1-0.1,0.1-0.1,0.1c0,0,0.1,0.1,0,0.2c0,0.1-0.2,0-0.3,0
				c0,0,0-0.1,0-0.2c0-0.1-0.1,0-0.2,0c-0.1,0.1-0.1,0.2-0.2,0.2c-0.1,0.1-0.6,0-0.7,0c-0.1,0-0.1-0.1-0.1-0.2
				c0-0.1-0.1-0.2-0.1-0.1c0,0.1-0.2,0.3-0.3,0.3c-0.1,0-0.1,0-0.1-0.1c0-0.1,0-0.3,0-0.3c-0.1-0.1-0.1-0.1-0.1,0
				c0,0-0.1,0.1-0.2,0.2c0,0,0,0.1,0.1,0.1c0,0.1,0,0.1,0,0.2c0,0-0.9-0.1-1-0.2c-0.1-0.1,0.3-0.7,0.3-0.8c0-0.1,0-0.4-0.1-0.3
				C60.5,74.4,60.4,74.5,60.3,74.6C60.3,74.6,60.3,74.6,60.3,74.6L60.3,74.6z M60.9,74.8c0.1,0.1,0.2,0.1,0.2,0.1
				c0.1,0,0.2-0.1,0.2-0.1s0.1,0.1,0.2,0.1c0.1,0,0.2-0.1,0.3-0.1c0,0,0-0.1-0.1-0.1c-0.1-0.1-0.2-0.1-0.2,0c-0.1,0.1-0.1,0.1-0.2,0
				c-0.1-0.1-0.1-0.1-0.2,0C61,74.7,60.9,74.8,60.9,74.8L60.9,74.8z M64.3,74.9c0.1,0.2,0.1,0.5,0.3,0.7c0.3,0.4,0.8,0.2,1.1,0
				c0.1,0,0.1,0,0.3,0c0.2,0,1.2-0.3,1.4-0.4c0.3-0.1-0.6-0.8-0.8-0.9C65.9,74,66.1,75,66.5,75c0.2,0,0.4-0.1,0.5-0.2
				c0.1-0.1,0.2,0,0.2,0.1s0,0.1-0.1,0.1c-0.1,0-0.6,0.2-0.8,0.3c-0.2,0-0.3,0.1-0.3,0c0-0.1,0.1-0.3-0.1-0.3c-0.3-0.1-1,0-0.8,0.4
				c0.1,0.1,0.1,0,0.2,0c0.1,0,0.2,0,0.2,0.1c0,0.1,0,0.1-0.1,0.1c-0.1,0-0.4,0.2-0.5,0c-0.1-0.1-0.3-0.6-0.4-0.8
				c-0.2-0.3-0.2,0-0.2,0c0,0.1-0.2-0.1-0.3-0.1c-0.1,0-0.1,0.2-0.2,0.2c-0.1,0.1,0.2,0.1,0.3,0.2c0.1,0,0.1,0,0.1-0.1
				C64.2,74.8,64.2,74.8,64.3,74.9L64.3,74.9z M66.4,74.6c0.1,0.1,0.2,0,0.2,0C66.8,74.5,66.3,74.5,66.4,74.6L66.4,74.6z M65,74.6
				c0.2,0,0.2,0,0.3,0c0,0,0.1-0.1,0.1-0.2c0-0.1,0-0.1-0.1-0.1c-0.1,0-0.3,0-0.3,0c-0.1,0-0.1,0.1-0.1,0.2
				C64.9,74.6,64.9,74.6,65,74.6L65,74.6z M65.9,74.1c0.2,0,0.2,0,0.3,0c0,0,0.1-0.1,0.1-0.2c0-0.1,0-0.1-0.1-0.1
				c-0.1,0-0.3,0-0.3,0c-0.1,0-0.1,0.1-0.1,0.2C65.8,74.1,65.8,74.1,65.9,74.1L65.9,74.1z M58.1,77.2c0,0,0.1-0.3,0.1-0.4
				c0-0.1,0-0.1,0.2-0.1c0.3,0,1.3-0.1,1.7,0c0.4,0.1,0.7,0.3,0.6,0.6c-0.1,0.2-0.9-0.1-1.2-0.2C59.2,77,58.7,77,58.1,77.2
				L58.1,77.2z M67.8,77.2c0,0-0.1-0.3-0.1-0.4c0-0.1,0-0.1-0.2-0.1c-0.3,0-1.3-0.1-1.7,0c-0.4,0.1-0.7,0.3-0.6,0.6
				c0.1,0.2,0.9-0.1,1.2-0.2C66.7,77,67.2,77,67.8,77.2L67.8,77.2z"/>
			
				<path fill-rule="evenodd" clip-rule="evenodd" fill="none" stroke="#C68126" stroke-width="5.246400e-02" stroke-miterlimit="2.4142" d="
				M67,73.3c0.4-0.2,0.6,0.1,0.7,0.3c0.3,0.3,1,0.8,1.3,1.2c0.2,0.2,0.3,0.2,0.4,0.3c0.1,0.1,0.1,0.2-0.1,0.3
				c-1.3,0.5-2.9,1.1-4.2,1.2c-3.3,0.3-5.6,0.1-8.6-1.2c-0.3-0.1-0.2-0.3,0-0.5c0.2-0.1,1.5-1.4,1.7-1.5c0.2-0.1,0.3-0.2,0.7,0
				c1.2,0.5,2.6,0.8,4,0.8C64.4,74.2,65.8,73.9,67,73.3L67,73.3z"/>
			<g>
				
					<path fill-rule="evenodd" clip-rule="evenodd" fill="#FFFFFF" stroke="#C68126" stroke-width="5.387700e-02" stroke-miterlimit="2.4142" d="
					M55.1,72.4c0.4,0.4,1.3,1.1,1,1.4C56.1,73.8,55.8,74.2,55.1,72.4L55.1,72.4z"/>
				
					<path fill-rule="evenodd" clip-rule="evenodd" fill="#FFFFFF" stroke="#C68126" stroke-width="5.387700e-02" stroke-miterlimit="2.4142" d="
					M54.5,72.4c0.5,0.4,1,0.8,0.7,1.1C55.3,73.4,54.9,73.8,54.5,72.4L54.5,72.4z"/>
				
					<path fill-rule="evenodd" clip-rule="evenodd" fill="#FFFFFF" stroke="#C68126" stroke-width="5.387700e-02" stroke-miterlimit="2.4142" d="
					M53.7,72.1c0.5,0.2,1,0.6,0.8,0.9C54,73.2,53.6,72.4,53.7,72.1L53.7,72.1z"/>
				
					<path fill-rule="evenodd" clip-rule="evenodd" fill="#FFFFFF" stroke="#C68126" stroke-width="5.387700e-02" stroke-miterlimit="2.4142" d="
					M51.8,72.3c0.6,0.2,1.8,0,1.7,0.6C53.5,72.9,53.2,73.5,51.8,72.3L51.8,72.3z"/>
				
					<path fill-rule="evenodd" clip-rule="evenodd" fill="#FFFFFF" stroke="#C68126" stroke-width="5.387700e-02" stroke-miterlimit="2.4142" d="
					M52.6,73.2c0.8,0.2,1.8-0.2,1.9,0.2C54.5,73.6,53.6,73.9,52.6,73.2L52.6,73.2z"/>
				
					<path fill-rule="evenodd" clip-rule="evenodd" fill="#FFFFFF" stroke="#C68126" stroke-width="5.387700e-02" stroke-miterlimit="2.4142" d="
					M53.5,73.8c0.8,0,1.7-0.4,1.8-0.1C55.3,73.8,55.1,74.3,53.5,73.8L53.5,73.8z"/>
				
					<path fill-rule="evenodd" clip-rule="evenodd" fill="#FFFFFF" stroke="#C68126" stroke-width="5.387700e-02" stroke-miterlimit="2.4142" d="
					M54.2,74.2c0.5,0,1.6-0.5,1.8-0.2C56,74,56.2,74.5,54.2,74.2L54.2,74.2z"/>
			</g>
		</g>
	</g>
	<path opacity="0.35" fill="#FFFFFF" d="M13,29.7v25.5C26.2,62.6,43.7,67,63,67c19.3,0,36.8-4.5,50-11.8V29.7H13z"/>
</g>
</svg>
