<?xml version="1.0" encoding="utf-8"?>
<!-- Generator: Adobe Illustrator 24.3.0, SVG Export Plug-In . SVG Version: 6.00 Build 0)  -->
<svg version="1.1" id="Layer_1" xmlns="http://www.w3.org/2000/svg" xmlns:xlink="http://www.w3.org/1999/xlink" x="0px" y="0px"
	 viewBox="0 0 126 126" enable-background="new 0 0 126 126" xml:space="preserve">
<g>
	<g>
		<polygon fill-rule="evenodd" clip-rule="evenodd" fill="#F0F0F0" points="63,29.7 113,29.7 113,96.3 63,96.3 63,29.7 		"/>
		<polygon fill-rule="evenodd" clip-rule="evenodd" fill="#1AA624" points="13,29.7 63,29.7 63,96.3 13,96.3 13,29.7 		"/>
		<path fill-rule="evenodd" clip-rule="evenodd" fill="#F0120D" d="M72.7,55.2l-0.1,6.1l5.7,2L72.5,65l-0.1,6.1l-3.5-5l-5.8,1.8
			l3.7-4.8l-3.5-5l5.7,2L72.7,55.2L72.7,55.2z M63.4,46.5c5.5,0,10.4,2.7,13.5,6.9c-2.4-2.3-5.7-3.7-9.3-3.7
			c-7.4,0-13.5,6-13.5,13.5c0,7.4,6,13.5,13.5,13.5c3.6,0,6.9-1.4,9.3-3.7c-3,4.2-7.9,6.9-13.5,6.9c-9.2,0-16.6-7.5-16.6-16.6
			C46.8,53.9,54.2,46.5,63.4,46.5L63.4,46.5z"/>
	</g>
	<path opacity="0.35" fill="#FFFFFF" d="M13,29.7v25.5C26.2,62.6,43.7,67,63,67c19.3,0,36.8-4.5,50-11.8V29.7H13z"/>
</g>
</svg>
