<?xml version="1.0" encoding="utf-8"?>
<!-- Generator: Adobe Illustrator 24.3.0, SVG Export Plug-In . SVG Version: 6.00 Build 0)  -->
<svg version="1.1" id="Layer_1" xmlns="http://www.w3.org/2000/svg" xmlns:xlink="http://www.w3.org/1999/xlink" x="0px" y="0px"
	 viewBox="0 0 126 126" enable-background="new 0 0 126 126" xml:space="preserve">
<g>
	<g>
		<g>
			<polygon fill="#FF1612" points="13,29.7 113,29.7 113,63 13,63 13,29.7 			"/>
			<polygon points="13,63 113,63 113,96.3 13,96.3 13,63 			"/>
			<path fill-rule="evenodd" clip-rule="evenodd" fill="#FEDF00" d="M59,47.8c6.7,0.7,11.9,6.3,11.9,13.1c0,4-1.8,7.7-4.7,10.1
				l3.7,2.6c0.1-0.1,0.1-0.1,0.2-0.2c0.4-0.4,0.8-0.8,1.1-1.3l-1-0.9c0.7-0.8,1.3-1.7,1.8-2.6l1.2,0.6c0.3-0.5,0.5-1,0.8-1.6
				c0.2-0.5,0.4-1.1,0.6-1.6l-1.3-0.4c0.3-1,0.5-2,0.6-3.1l1.3,0.1c0.1-0.6,0.1-1.2,0.1-1.8c0-0.6,0-1.1-0.1-1.7l-1.3,0.1
				c-0.1-1.1-0.3-2.1-0.6-3.1l1.3-0.4c-0.2-0.6-0.4-1.1-0.6-1.7c-0.2-0.5-0.5-1-0.7-1.5L72,53.3c-0.5-0.9-1.1-1.8-1.8-2.6l1-0.9
				c-0.4-0.5-0.8-0.9-1.2-1.3c-0.4-0.4-0.8-0.8-1.3-1.1l-0.9,1c-0.8-0.7-1.7-1.3-2.6-1.8l0.6-1.2c-0.5-0.3-1-0.5-1.6-0.8
				c-0.5-0.2-1.1-0.4-1.6-0.6l-0.4,1.3c-1-0.3-2-0.5-3-0.6L59,47.8L59,47.8L59,47.8z M57.6,48.7l1.4,4.2l4.4,0l-3.6,2.6l1.4,4.2
				l-3.6-2.6L54,59.7l1.4-4.2l-3.6-2.6l4.4,0L57.6,48.7L57.6,48.7z M71.8,75.9c1.3,1.1,4.2,3.3,4.9,4.6c0.3,0.6,0.4,1.7-0.2,2
				c-0.6,0.3-1.3-0.2-2-1.3c-0.7-1.1-1.7-2.1-2.5-2.5c-0.8-0.4-1.3-0.5-1.7-0.5c-0.3,0-0.2-0.3-0.1-0.4
				C70.3,77.7,71.8,75.9,71.8,75.9L71.8,75.9z M72.4,77.1c0.1,0,0.2,0.1,0.2,0.2s-0.1,0.2-0.2,0.2c-0.1,0-0.2-0.1-0.2-0.2
				S72.3,77.1,72.4,77.1L72.4,77.1z M75.6,80c0.1,0,0.2,0.1,0.2,0.2c0,0.1-0.1,0.2-0.2,0.2c-0.1,0-0.2-0.1-0.2-0.2
				C75.3,80.1,75.4,80,75.6,80L75.6,80z M74.1,78.5c0.1,0,0.2,0.1,0.2,0.2c0,0.1-0.1,0.2-0.2,0.2c-0.1,0-0.2-0.1-0.2-0.2
				C73.9,78.6,74,78.5,74.1,78.5L74.1,78.5z M51.7,58.6c0,2.6,8.7,9.1,11,10.8c4.3,3.3,8.7,6.4,8.7,6.4L71,76.4
				c-1.2-0.9-2.4-1.7-3.6-2.5c-4-2.8-8-5.7-11.8-9.1c-0.1-0.1-0.2-0.1-0.2,0c-0.1,0.1-0.1,0.2,0,0.2c3.8,3.4,7.8,6.2,11.8,9.1
				c1.2,0.8,2.4,1.7,3.5,2.5l-0.8,1c0,0-7.1-4.6-9.2-5.8c-1.5-0.8-2.8-1.7-4.1-2.4C51.8,66.8,49,63.9,51.7,58.6L51.7,58.6z
				 M47.3,73.5c0.8,0.7,1.7,1.3,2.6,1.8l-0.6,1.2c0.5,0.3,1,0.5,1.5,0.7c0.5,0.2,1.1,0.4,1.7,0.6l0.4-1.3c1,0.3,2,0.5,3.1,0.6
				l-0.1,1.4c0.6,0.1,1.2,0.1,1.8,0.1c0.6,0,1.1,0,1.7-0.1l-0.1-1.4c1.1-0.1,2.1-0.3,3.1-0.6l0.4,1.3c0.5-0.2,1.1-0.4,1.6-0.6
				l-0.7-2.8l-1.7-1c-1.3,0.5-2.8,0.7-4.2,0.7c-3.2,0-6.1-1.1-8.4-3v0L47.3,73.5L47.3,73.5z"/>
		</g>
	</g>
	<path opacity="0.25" fill="#FFFFFF" d="M13,29.7v25.5C26.2,62.6,43.7,67,63,67c19.3,0,36.8-4.5,50-11.8V29.7H13z"/>
</g>
</svg>
