<?xml version="1.0" encoding="utf-8"?>
<!-- Generator: Adobe Illustrator 24.3.0, SVG Export Plug-In . SVG Version: 6.00 Build 0)  -->
<svg version="1.1" id="Layer_1" xmlns="http://www.w3.org/2000/svg" xmlns:xlink="http://www.w3.org/1999/xlink" x="0px" y="0px"
	 viewBox="0 0 126 126" enable-background="new 0 0 126 126" xml:space="preserve">
<g>
	<g>
		<rect x="13" y="29.7" fill-rule="evenodd" clip-rule="evenodd" fill="#FF1612" width="100" height="66.7"/>
		<polygon fill-rule="evenodd" clip-rule="evenodd" points="13,29.7 63,96.3 113,29.7 13,29.7 		"/>
		<polygon fill-rule="evenodd" clip-rule="evenodd" fill="#FEDF00" points="63,32.2 65.2,45.3 72.2,34 69.1,47 80,39.2 72.2,50 
			85.2,47 73.8,54 87,56.2 39,56.2 52.2,54 40.8,47 53.8,50 46,39.2 56.9,47 53.8,34 60.8,45.3 63,32.2 		"/>
		<polygon fill-rule="evenodd" clip-rule="evenodd" fill="#F4F4F4" points="43.6,70.4 63,96.3 82.4,70.4 43.6,70.4 		"/>
		<polygon fill-rule="evenodd" clip-rule="evenodd" fill="#0072C6" points="32.9,56.2 93.1,56.2 82.4,70.4 43.6,70.4 32.9,56.2 		
			"/>
	</g>
	<path opacity="0.35" fill="#FFFFFF" d="M13,29.7v25.5C26.2,62.6,43.7,67,63,67c19.3,0,36.8-4.5,50-11.8V29.7H13z"/>
</g>
</svg>
