<?xml version="1.0" encoding="utf-8"?>
<!-- Generator: Adobe Illustrator 24.3.0, SVG Export Plug-In . SVG Version: 6.00 Build 0)  -->
<svg version="1.1" id="Layer_1" xmlns="http://www.w3.org/2000/svg" xmlns:xlink="http://www.w3.org/1999/xlink" x="0px" y="0px"
	 viewBox="0 0 126 126" enable-background="new 0 0 126 126" xml:space="preserve">
<g>
	<g>
		<path fill-rule="evenodd" clip-rule="evenodd" fill="#49A9F6" d="M13,29.7h100v22.2H13V29.7L13,29.7z M113,74.1v22.2H13V74.1H113
			L113,74.1z"/>
		<polygon fill-rule="evenodd" clip-rule="evenodd" fill="#F0F0F0" points="13,51.9 113,51.9 113,74.1 13,74.1 13,51.9 		"/>
		<g>
			<g>
				<g>
					<g>
						
							<path fill-rule="evenodd" clip-rule="evenodd" fill="#FFC703" stroke="#853409" stroke-width="3.774900e-02" stroke-miterlimit="2.4142" d="
							M63.1,54.6l0.1,2.9l0.1,2.8l0,0l0,0c0,0,0,0.1,0,0.1c0,0,0,0,0,0l0,0H63h-0.2c0,0-0.1,0-0.1,0l0,0c0,0,0-0.1,0-0.1
							c0,0,0,0,0,0l0,0c0,0,0,0,0,0l0.1-2.9l0.1-2.9l0,0l0,0c0,0,0-0.1,0-0.1c0,0,0.1,0,0.1,0C63,54.5,63.1,54.5,63.1,54.6
							C63.1,54.6,63.1,54.6,63.1,54.6L63.1,54.6z"/>
						<polygon fill-rule="evenodd" clip-rule="evenodd" fill="#853409" points="63,57.3 63,58.7 63.1,60 63,60 62.9,60 63,58.7 
							63,57.3 						"/>
					</g>
					<g>
						
							<path fill-rule="evenodd" clip-rule="evenodd" fill="#FFC703" stroke="#853409" stroke-width="3.774900e-02" stroke-miterlimit="2.4142" d="
							M63.2,59.9c0.2-0.4,0.3-0.5,0.3-0.8c0-0.4,0-0.6,0.1-1.1c0.1-0.4,0.4-0.8,0.5-1.3c0.1-0.5,0.1-0.8,0.1-1.1
							c0-0.3,0.2-0.7,0.4-0.8c0.2-0.1,0.2,0,0.1,0.1c-0.1,0.1-0.2,0.2-0.2,0.6c0,0.4,0.1,0.6,0.1,1.1c0,0.5-0.3,0.9-0.4,1.1
							C64.1,58,64,58.7,64,59c0,0.3-0.1,0.9-0.1,1C63.9,60.1,63.2,59.9,63.2,59.9L63.2,59.9z"/>
						<path fill-rule="evenodd" clip-rule="evenodd" fill="#853409" d="M63.5,59.9c0,0,0.2-0.5,0.2-0.9c0-0.4,0-0.8,0.1-1
							c0.1-0.2,0.2-0.5,0.2-0.5s-0.1,0.3-0.2,0.5c0,0.2-0.1,0.8-0.1,1s-0.1,0.9-0.1,0.9L63.5,59.9L63.5,59.9z"/>
					</g>
				</g>
				<g>
					<g>
						
							<path fill-rule="evenodd" clip-rule="evenodd" fill="#FFC703" stroke="#853409" stroke-width="3.774900e-02" stroke-miterlimit="2.4142" d="
							M59.9,55.2l1.2,2.6l1.2,2.6l0,0l0,0c0,0,0,0.1,0,0.1c0,0,0,0,0,0l0,0l-0.2,0.1l-0.2,0.1c0,0-0.1,0-0.1,0l0,0
							c0,0-0.1,0-0.1-0.1c0,0,0,0,0,0l0,0c0,0,0,0,0,0l-1-2.7l-1-2.7h0l0,0c0,0,0-0.1,0-0.1c0,0,0-0.1,0.1-0.1
							C59.8,55.1,59.8,55.1,59.9,55.2C59.9,55.2,59.9,55.2,59.9,55.2L59.9,55.2z"/>
						<polygon fill-rule="evenodd" clip-rule="evenodd" fill="#853409" points="60.8,57.7 61.4,59 61.9,60.2 61.9,60.3 61.8,60.3 
							61.3,59 60.8,57.7 						"/>
					</g>
					<g>
						
							<path fill-rule="evenodd" clip-rule="evenodd" fill="#FFC703" stroke="#853409" stroke-width="3.774900e-02" stroke-miterlimit="2.4142" d="
							M62,60.1c0.1-0.4,0.1-0.5,0-0.9c-0.1-0.4-0.2-0.6-0.3-1c-0.1-0.4,0.1-0.9,0-1.4c-0.1-0.5-0.2-0.8-0.4-1.1
							c-0.1-0.3-0.1-0.7,0.1-0.9c0.2-0.2,0.2-0.1,0.1,0.1c0,0.2-0.1,0.3,0,0.7c0.2,0.3,0.3,0.5,0.5,1c0.2,0.5,0,1,0.1,1.2
							c0,0.2,0.2,1,0.3,1.2c0.1,0.3,0.3,0.8,0.3,0.9C62.7,59.9,62,60.1,62,60.1L62,60.1z"/>
						<path fill-rule="evenodd" clip-rule="evenodd" fill="#853409" d="M62.3,59.9c0,0-0.1-0.6-0.2-0.9c-0.1-0.3-0.3-0.7-0.3-1
							c0-0.3,0-0.5,0-0.5s0,0.3,0,0.5c0,0.2,0.3,0.8,0.3,1c0.1,0.2,0.2,0.9,0.2,0.9L62.3,59.9L62.3,59.9z"/>
					</g>
				</g>
				<g>
					<g>
						
							<path fill-rule="evenodd" clip-rule="evenodd" fill="#FFC703" stroke="#853409" stroke-width="3.774900e-02" stroke-miterlimit="2.4142" d="
							M57.2,57l2.1,2l2.1,1.9l0,0l0,0c0,0,0,0.1,0,0.1c0,0,0,0,0,0l0,0l-0.1,0.1l-0.1,0.1c0,0-0.1,0-0.1,0l0,0c0,0-0.1,0-0.1,0
							c0,0,0,0,0,0l0,0c0,0,0,0,0,0l-2-2.1l-2-2.1l0,0l0,0c0,0,0-0.1,0-0.1c0,0,0-0.1,0-0.1C57,57,57,57,57.2,57
							C57.1,57,57.1,57,57.2,57L57.2,57z"/>
						<polygon fill-rule="evenodd" clip-rule="evenodd" fill="#853409" points="59,59 60,59.9 60.9,60.9 60.9,60.9 60.8,61 59.9,60 
							59,59 						"/>
					</g>
					<g>
						
							<path fill-rule="evenodd" clip-rule="evenodd" fill="#FFC703" stroke="#853409" stroke-width="3.774900e-02" stroke-miterlimit="2.4142" d="
							M61,60.7c-0.1-0.4-0.1-0.5-0.4-0.8c-0.2-0.3-0.4-0.5-0.7-0.8c-0.3-0.4-0.3-0.9-0.6-1.3c-0.3-0.4-0.5-0.6-0.8-0.9
							c-0.2-0.2-0.3-0.7-0.3-0.9c0.1-0.2,0.1-0.1,0.2,0c0,0.2,0,0.3,0.3,0.6c0.3,0.3,0.5,0.3,0.8,0.7c0.3,0.4,0.4,0.9,0.5,1.1
							c0.1,0.2,0.6,0.8,0.8,1c0.2,0.2,0.6,0.7,0.6,0.8C61.5,60.3,61,60.7,61,60.7L61,60.7z"/>
						<path fill-rule="evenodd" clip-rule="evenodd" fill="#853409" d="M61.2,60.4c0,0-0.3-0.5-0.5-0.8c-0.2-0.3-0.5-0.6-0.7-0.8
							c-0.1-0.2-0.2-0.5-0.2-0.5s0.1,0.3,0.2,0.5c0.1,0.2,0.5,0.6,0.7,0.8c0.2,0.2,0.6,0.7,0.6,0.7L61.2,60.4L61.2,60.4z"/>
					</g>
				</g>
				<g>
					<g>
						
							<path fill-rule="evenodd" clip-rule="evenodd" fill="#FFC703" stroke="#853409" stroke-width="3.774900e-02" stroke-miterlimit="2.4142" d="
							M55.3,59.7l2.7,1l2.7,1l0,0l0,0c0,0,0.1,0,0.1,0.1c0,0,0,0,0,0l0,0l-0.1,0.2l-0.1,0.2c0,0,0,0.1-0.1,0.1l0,0c0,0-0.1,0-0.1,0
							c0,0,0,0,0,0l0,0c0,0,0,0,0,0l-2.6-1.2l-2.6-1.2l0,0l0,0c0,0-0.1,0-0.1-0.1c0,0,0-0.1,0-0.1C55.2,59.7,55.2,59.7,55.3,59.7
							C55.2,59.7,55.3,59.7,55.3,59.7L55.3,59.7z"/>
						<polygon fill-rule="evenodd" clip-rule="evenodd" fill="#853409" points="57.7,60.8 59,61.3 60.3,61.8 60.3,61.9 60.2,61.9 
							59,61.4 57.7,60.8 						"/>
					</g>
					<g>
						
							<path fill-rule="evenodd" clip-rule="evenodd" fill="#FFC703" stroke="#853409" stroke-width="3.774900e-02" stroke-miterlimit="2.4142" d="
							M60.2,61.7c-0.3-0.3-0.3-0.4-0.7-0.6c-0.3-0.2-0.6-0.3-0.9-0.5c-0.4-0.2-0.6-0.7-1-1c-0.4-0.3-0.7-0.4-1-0.5
							C56.3,59,56,58.6,56,58.4c0-0.2,0.1-0.2,0.2,0c0.1,0.1,0.1,0.3,0.5,0.4c0.4,0.1,0.6,0.1,1,0.3c0.5,0.2,0.7,0.7,0.9,0.8
							c0.2,0.2,0.8,0.5,1.1,0.6c0.3,0.1,0.8,0.4,0.9,0.5C60.6,61.1,60.2,61.7,60.2,61.7L60.2,61.7z"/>
						<path fill-rule="evenodd" clip-rule="evenodd" fill="#853409" d="M60.3,61.3c0,0-0.4-0.4-0.7-0.5c-0.3-0.2-0.7-0.3-0.9-0.5
							c-0.2-0.2-0.3-0.4-0.3-0.4s0.2,0.2,0.4,0.4c0.1,0.1,0.7,0.4,0.9,0.4c0.2,0.1,0.8,0.4,0.8,0.4L60.3,61.3L60.3,61.3z"/>
					</g>
				</g>
				<g>
					<g>
						
							<path fill-rule="evenodd" clip-rule="evenodd" fill="#FFC703" stroke="#853409" stroke-width="3.774900e-02" stroke-miterlimit="2.4142" d="
							M54.6,62.9l2.9-0.1l2.8-0.1v0h0c0,0,0.1,0,0.1,0c0,0,0,0,0,0l0,0V63v0.2c0,0,0,0.1,0,0.1v0c0,0-0.1,0-0.1,0c0,0,0,0,0,0l0,0
							c0,0,0,0,0,0l-2.9-0.1l-2.9-0.1l0,0h0c0,0-0.1,0-0.1,0c0,0,0-0.1,0-0.1C54.5,63,54.5,62.9,54.6,62.9
							C54.6,62.9,54.6,62.9,54.6,62.9L54.6,62.9z"/>
						<polygon fill-rule="evenodd" clip-rule="evenodd" fill="#853409" points="57.3,63 58.7,63 60,62.9 60,63 60,63.1 58.7,63 
							57.3,63 						"/>
					</g>
					<g>
						
							<path fill-rule="evenodd" clip-rule="evenodd" fill="#FFC703" stroke="#853409" stroke-width="3.774900e-02" stroke-miterlimit="2.4142" d="
							M59.9,62.8c-0.4-0.2-0.5-0.3-0.8-0.3c-0.4,0-0.6,0-1.1-0.1c-0.4-0.1-0.8-0.4-1.3-0.5c-0.5-0.1-0.8-0.1-1.1-0.1
							c-0.3,0-0.7-0.2-0.8-0.4c-0.1-0.2,0-0.2,0.1-0.1c0.1,0.1,0.2,0.2,0.6,0.2c0.4,0,0.6-0.1,1.1-0.1c0.5,0,0.9,0.3,1.1,0.4
							c0.2,0.1,1,0.2,1.3,0.2c0.3,0,0.9,0.1,1,0.1C60.1,62.1,59.9,62.8,59.9,62.8L59.9,62.8z"/>
						<path fill-rule="evenodd" clip-rule="evenodd" fill="#853409" d="M59.9,62.5c0,0-0.5-0.2-0.9-0.2c-0.4,0-0.8,0-1-0.1
							c-0.2-0.1-0.5-0.2-0.5-0.2s0.3,0.1,0.5,0.2c0.2,0,0.8,0.1,1,0.1c0.2,0,0.9,0.1,0.9,0.1L59.9,62.5L59.9,62.5z"/>
					</g>
				</g>
				<g>
					<g>
						
							<path fill-rule="evenodd" clip-rule="evenodd" fill="#FFC703" stroke="#853409" stroke-width="3.774900e-02" stroke-miterlimit="2.4142" d="
							M55.2,66.1l2.6-1.2l2.6-1.2l0,0l0,0c0,0,0.1,0,0.1,0c0,0,0,0,0,0l0,0l0.1,0.2l0.1,0.2c0,0,0,0.1,0,0.1l0,0c0,0,0,0.1-0.1,0.1
							c0,0,0,0,0,0l0,0c0,0,0,0,0,0l-2.7,1l-2.7,1v0l0,0c0,0-0.1,0-0.1,0c0,0-0.1,0-0.1-0.1C55.1,66.2,55.1,66.2,55.2,66.1
							C55.2,66.1,55.2,66.1,55.2,66.1L55.2,66.1z"/>
						<polygon fill-rule="evenodd" clip-rule="evenodd" fill="#853409" points="57.7,65.2 59,64.6 60.2,64.1 60.3,64.1 60.3,64.2 
							59,64.7 57.7,65.2 						"/>
					</g>
					<g>
						
							<path fill-rule="evenodd" clip-rule="evenodd" fill="#FFC703" stroke="#853409" stroke-width="3.774900e-02" stroke-miterlimit="2.4142" d="
							M60.1,64c-0.4-0.1-0.5-0.1-0.9,0c-0.4,0.1-0.6,0.2-1,0.3c-0.4,0.1-0.9-0.1-1.4,0c-0.5,0.1-0.8,0.2-1.1,0.4
							c-0.3,0.1-0.7,0.1-0.9-0.1c-0.2-0.2-0.1-0.2,0.1-0.1c0.2,0,0.3,0.1,0.7,0c0.3-0.2,0.5-0.3,1-0.5c0.5-0.2,1,0,1.2-0.1
							c0.2,0,1-0.2,1.2-0.3c0.3-0.1,0.8-0.3,0.9-0.3C59.9,63.3,60.1,64,60.1,64L60.1,64z"/>
						<path fill-rule="evenodd" clip-rule="evenodd" fill="#853409" d="M59.9,63.7c0,0-0.6,0.1-0.9,0.2c-0.3,0.1-0.7,0.3-1,0.3
							c-0.3,0-0.5,0-0.5,0s0.3,0,0.5,0c0.2,0,0.8-0.3,1-0.3c0.2-0.1,0.9-0.2,0.9-0.2L59.9,63.7L59.9,63.7z"/>
					</g>
				</g>
				<g>
					<g>
						
							<path fill-rule="evenodd" clip-rule="evenodd" fill="#FFC703" stroke="#853409" stroke-width="3.774900e-02" stroke-miterlimit="2.4142" d="
							M57,68.8l2-2.1l1.9-2.1l0,0l0,0c0,0,0.1,0,0.1,0c0,0,0,0,0,0l0,0l0.1,0.1l0.1,0.1c0,0,0,0.1,0,0.1l0,0c0,0,0,0.1,0,0.1
							c0,0,0,0,0,0l0,0c0,0,0,0,0,0l-2.1,2l-2.1,2v0l0,0c0,0-0.1,0-0.1,0c0,0-0.1,0-0.1,0C57,69,57,69,57,68.8
							C57,68.9,57,68.9,57,68.8L57,68.8z"/>
						<polygon fill-rule="evenodd" clip-rule="evenodd" fill="#853409" points="59,67 59.9,66 60.9,65.1 60.9,65.1 61,65.2 60,66.1 
							59,67 						"/>
					</g>
					<g>
						
							<path fill-rule="evenodd" clip-rule="evenodd" fill="#FFC703" stroke="#853409" stroke-width="3.774900e-02" stroke-miterlimit="2.4142" d="
							M60.7,65c-0.4,0.1-0.5,0.1-0.8,0.4c-0.3,0.2-0.5,0.4-0.8,0.7c-0.4,0.3-0.9,0.3-1.3,0.6c-0.4,0.3-0.6,0.5-0.9,0.8
							c-0.2,0.2-0.7,0.3-0.9,0.3c-0.2-0.1-0.1-0.1,0-0.2c0.2,0,0.3,0,0.6-0.3c0.3-0.3,0.3-0.5,0.7-0.8c0.4-0.3,0.9-0.4,1.1-0.5
							c0.2-0.1,0.8-0.6,1-0.8c0.2-0.2,0.7-0.6,0.8-0.6C60.3,64.5,60.7,65,60.7,65L60.7,65z"/>
						<path fill-rule="evenodd" clip-rule="evenodd" fill="#853409" d="M60.4,64.8c0,0-0.5,0.3-0.8,0.5c-0.3,0.2-0.6,0.5-0.8,0.7
							c-0.2,0.1-0.5,0.2-0.5,0.2s0.3-0.1,0.5-0.2c0.2-0.1,0.6-0.5,0.8-0.7c0.2-0.2,0.7-0.6,0.7-0.6L60.4,64.8L60.4,64.8z"/>
					</g>
				</g>
				<g>
					<g>
						
							<path fill-rule="evenodd" clip-rule="evenodd" fill="#FFC703" stroke="#853409" stroke-width="3.774900e-02" stroke-miterlimit="2.4142" d="
							M59.7,70.7l1-2.7l1-2.7l0,0l0,0c0,0,0-0.1,0.1-0.1c0,0,0,0,0,0l0,0l0.2,0.1l0.2,0.1c0,0,0.1,0,0.1,0.1v0c0,0,0,0.1,0,0.1
							c0,0,0,0,0,0l0,0c0,0,0,0,0,0l-1.2,2.6l-1.2,2.6l0,0l0,0c0,0,0,0.1-0.1,0.1c0,0-0.1,0-0.1,0C59.7,70.8,59.7,70.8,59.7,70.7
							C59.7,70.8,59.7,70.7,59.7,70.7L59.7,70.7z"/>
						<polygon fill-rule="evenodd" clip-rule="evenodd" fill="#853409" points="60.8,68.3 61.3,67 61.8,65.7 61.9,65.7 61.9,65.8 
							61.4,67 60.8,68.3 						"/>
					</g>
					<g>
						
							<path fill-rule="evenodd" clip-rule="evenodd" fill="#FFC703" stroke="#853409" stroke-width="3.774900e-02" stroke-miterlimit="2.4142" d="
							M61.7,65.8c-0.3,0.3-0.4,0.3-0.6,0.7c-0.2,0.3-0.3,0.6-0.5,0.9c-0.2,0.4-0.7,0.6-1,1c-0.3,0.4-0.4,0.7-0.5,1
							C59,69.7,58.6,70,58.4,70c-0.2,0-0.2-0.1,0-0.2c0.1-0.1,0.3-0.1,0.4-0.5c0.1-0.4,0.1-0.6,0.3-1c0.2-0.5,0.7-0.7,0.8-0.9
							c0.2-0.2,0.5-0.8,0.6-1.1c0.1-0.3,0.4-0.8,0.5-0.9C61.1,65.4,61.7,65.8,61.7,65.8L61.7,65.8z"/>
						<path fill-rule="evenodd" clip-rule="evenodd" fill="#853409" d="M61.3,65.7c0,0-0.4,0.4-0.5,0.7c-0.2,0.3-0.3,0.7-0.5,0.9
							c-0.2,0.2-0.4,0.3-0.4,0.3s0.2-0.2,0.4-0.4c0.1-0.1,0.4-0.7,0.4-0.9c0.1-0.2,0.4-0.8,0.4-0.8L61.3,65.7L61.3,65.7z"/>
					</g>
				</g>
				<g>
					<g>
						
							<path fill-rule="evenodd" clip-rule="evenodd" fill="#FFC703" stroke="#853409" stroke-width="3.774900e-02" stroke-miterlimit="2.4142" d="
							M62.9,71.4l-0.1-2.9l-0.1-2.8h0v0c0,0,0-0.1,0-0.1c0,0,0,0,0,0l0,0H63h0.2c0,0,0.1,0,0.1,0h0c0,0,0,0.1,0,0.1v0l0,0
							c0,0,0,0,0,0l-0.1,2.9l-0.1,2.9v0v0c0,0,0,0.1,0,0.1c0,0-0.1,0-0.1,0C63,71.5,62.9,71.5,62.9,71.4
							C62.9,71.4,62.9,71.4,62.9,71.4L62.9,71.4z"/>
						<polygon fill-rule="evenodd" clip-rule="evenodd" fill="#853409" points="63,68.7 63,67.3 62.9,66 63,66 63.1,66 63,67.3 
							63,68.7 						"/>
					</g>
					<g>
						
							<path fill-rule="evenodd" clip-rule="evenodd" fill="#FFC703" stroke="#853409" stroke-width="3.774900e-02" stroke-miterlimit="2.4142" d="
							M62.8,66.1c-0.2,0.4-0.3,0.5-0.3,0.8c0,0.4,0,0.6-0.1,1.1c-0.1,0.4-0.4,0.8-0.5,1.3c-0.1,0.5-0.1,0.8-0.1,1.1
							c0,0.3-0.2,0.7-0.4,0.8c-0.2,0.1-0.2,0-0.1-0.1c0.1-0.1,0.2-0.2,0.2-0.6c0-0.4-0.1-0.6-0.1-1.1c0-0.5,0.3-0.9,0.4-1.1
							c0.1-0.2,0.2-1,0.2-1.2c0-0.3,0.1-0.9,0.1-1C62.1,65.9,62.8,66.1,62.8,66.1L62.8,66.1z"/>
						<path fill-rule="evenodd" clip-rule="evenodd" fill="#853409" d="M62.5,66.1c0,0-0.2,0.5-0.2,0.9c0,0.4,0,0.8-0.1,1
							c-0.1,0.2-0.2,0.5-0.2,0.5s0.1-0.3,0.2-0.5c0-0.2,0.1-0.8,0.1-1c0-0.2,0.1-0.9,0.1-0.9L62.5,66.1L62.5,66.1z"/>
					</g>
				</g>
				<g>
					<g>
						
							<path fill-rule="evenodd" clip-rule="evenodd" fill="#FFC703" stroke="#853409" stroke-width="3.774900e-02" stroke-miterlimit="2.4142" d="
							M66.1,70.8l-1.2-2.6l-1.2-2.6l0,0l0,0c0,0,0-0.1,0-0.1c0,0,0,0,0,0l0,0l0.2-0.1l0.2-0.1c0,0,0.1,0,0.1,0l0,0
							c0,0,0.1,0,0.1,0.1c0,0,0,0,0,0l0,0c0,0,0,0,0,0l1,2.7l1,2.7h0l0,0c0,0,0,0.1,0,0.1s0,0.1-0.1,0.1
							C66.2,70.9,66.2,70.9,66.1,70.8C66.1,70.8,66.1,70.8,66.1,70.8L66.1,70.8z"/>
						<polygon fill-rule="evenodd" clip-rule="evenodd" fill="#853409" points="65.2,68.3 64.6,67 64.1,65.8 64.1,65.7 64.2,65.7 
							64.7,67 65.2,68.3 						"/>
					</g>
					<g>
						
							<path fill-rule="evenodd" clip-rule="evenodd" fill="#FFC703" stroke="#853409" stroke-width="3.774900e-02" stroke-miterlimit="2.4142" d="
							M64,65.9c-0.1,0.4-0.1,0.5,0,0.9c0.1,0.4,0.2,0.6,0.3,1c0.1,0.4-0.1,0.9,0,1.4c0.1,0.5,0.2,0.8,0.4,1.1
							c0.1,0.3,0.1,0.8-0.1,0.9c-0.2,0.2-0.2,0.1-0.1-0.1c0-0.2,0.1-0.3,0-0.7c-0.2-0.4-0.3-0.5-0.5-1c-0.2-0.5,0-1-0.1-1.2
							c0-0.2-0.2-1-0.3-1.2c-0.1-0.3-0.3-0.8-0.3-0.9C63.3,66.1,64,65.9,64,65.9L64,65.9z"/>
						<path fill-rule="evenodd" clip-rule="evenodd" fill="#853409" d="M63.7,66.1c0,0,0.1,0.6,0.2,0.9c0.1,0.3,0.3,0.7,0.3,1
							c0,0.3,0,0.5,0,0.5s0-0.3,0-0.5c0-0.2-0.3-0.8-0.3-1c-0.1-0.2-0.2-0.9-0.2-0.9L63.7,66.1L63.7,66.1z"/>
					</g>
				</g>
				<g>
					<g>
						
							<path fill-rule="evenodd" clip-rule="evenodd" fill="#FFC703" stroke="#853409" stroke-width="3.774900e-02" stroke-miterlimit="2.4142" d="
							M68.8,69l-2.1-2l-2.1-1.9v0l0,0c0,0,0-0.1,0-0.1c0,0,0,0,0,0l0,0l0.1-0.1l0.1-0.1c0,0,0.1,0,0.1,0l0,0c0,0,0.1,0,0.1,0
							c0,0,0,0,0,0l0,0c0,0,0,0,0,0l2,2.1l2,2.1l0,0l0,0c0,0,0,0.1,0,0.1c0,0,0,0.1,0,0.1C69,69,69,69,68.8,69
							C68.9,69,68.9,69,68.8,69L68.8,69z"/>
						<polygon fill-rule="evenodd" clip-rule="evenodd" fill="#853409" points="67,67 66,66.1 65.1,65.1 65.1,65.1 65.2,65 66.1,66 
							67,67 						"/>
					</g>
					<g>
						
							<path fill-rule="evenodd" clip-rule="evenodd" fill="#FFC703" stroke="#853409" stroke-width="3.774900e-02" stroke-miterlimit="2.4142" d="
							M65,65.3c0.1,0.4,0.1,0.5,0.4,0.8c0.2,0.3,0.4,0.5,0.7,0.8c0.3,0.4,0.3,0.9,0.6,1.3c0.3,0.4,0.5,0.6,0.8,0.9
							c0.2,0.2,0.3,0.7,0.3,0.9c-0.1,0.2-0.1,0.1-0.2,0c0-0.2,0-0.3-0.3-0.6c-0.3-0.3-0.5-0.3-0.8-0.7c-0.3-0.4-0.4-0.9-0.5-1.1
							c-0.1-0.2-0.6-0.8-0.8-1c-0.2-0.2-0.6-0.7-0.6-0.8C64.5,65.7,65,65.3,65,65.3L65,65.3z"/>
						<path fill-rule="evenodd" clip-rule="evenodd" fill="#853409" d="M64.8,65.6c0,0,0.3,0.5,0.5,0.8c0.2,0.3,0.5,0.6,0.7,0.8
							c0.1,0.2,0.2,0.5,0.2,0.5s-0.1-0.3-0.2-0.5c-0.1-0.2-0.5-0.6-0.7-0.8s-0.6-0.7-0.6-0.7L64.8,65.6L64.8,65.6z"/>
					</g>
				</g>
				<g>
					<g>
						
							<path fill-rule="evenodd" clip-rule="evenodd" fill="#FFC703" stroke="#853409" stroke-width="3.774900e-02" stroke-miterlimit="2.4142" d="
							M70.7,66.3l-2.7-1l-2.7-1l0,0l0,0c0,0-0.1,0-0.1-0.1c0,0,0,0,0,0l0,0l0.1-0.2l0.1-0.2c0,0,0-0.1,0.1-0.1h0c0,0,0.1,0,0.1,0
							c0,0,0,0,0,0l0,0c0,0,0,0,0,0l2.6,1.2l2.6,1.2l0,0l0,0c0,0,0.1,0,0.1,0.1c0,0,0,0.1,0,0.1C70.8,66.3,70.8,66.3,70.7,66.3
							C70.8,66.3,70.7,66.3,70.7,66.3L70.7,66.3z"/>
						<polygon fill-rule="evenodd" clip-rule="evenodd" fill="#853409" points="68.3,65.2 67,64.7 65.7,64.2 65.7,64.1 65.8,64.1 
							67,64.6 68.3,65.2 						"/>
					</g>
					<g>
						
							<path fill-rule="evenodd" clip-rule="evenodd" fill="#FFC703" stroke="#853409" stroke-width="3.774900e-02" stroke-miterlimit="2.4142" d="
							M65.8,64.3c0.3,0.3,0.3,0.4,0.7,0.6c0.3,0.2,0.6,0.3,0.9,0.5c0.4,0.2,0.6,0.7,1,1c0.4,0.3,0.7,0.4,1,0.5
							c0.3,0.1,0.6,0.5,0.6,0.7c0,0.2-0.1,0.2-0.2,0c-0.1-0.1-0.1-0.3-0.5-0.4c-0.4-0.1-0.6-0.1-1-0.3c-0.5-0.2-0.7-0.7-0.9-0.8
							c-0.2-0.2-0.8-0.5-1.1-0.6c-0.3-0.1-0.8-0.4-0.9-0.5C65.4,64.9,65.8,64.3,65.8,64.3L65.8,64.3z"/>
						<path fill-rule="evenodd" clip-rule="evenodd" fill="#853409" d="M65.7,64.7c0,0,0.4,0.4,0.7,0.5c0.3,0.2,0.7,0.3,0.9,0.5
							c0.2,0.2,0.3,0.4,0.3,0.4s-0.2-0.2-0.4-0.4c-0.1-0.1-0.7-0.4-0.9-0.4c-0.2-0.1-0.8-0.4-0.8-0.4L65.7,64.7L65.7,64.7z"/>
					</g>
				</g>
				<g>
					<g>
						
							<path fill-rule="evenodd" clip-rule="evenodd" fill="#FFC703" stroke="#853409" stroke-width="3.774900e-02" stroke-miterlimit="2.4142" d="
							M71.4,63.1l-2.9,0.1l-2.8,0.1l0,0l0,0c0,0-0.1,0-0.1,0c0,0,0,0,0,0l0,0V63v-0.2c0,0,0-0.1,0-0.1l0,0c0,0,0.1,0,0.1,0
							c0,0,0,0,0,0l0,0c0,0,0,0,0,0l2.9,0.1l2.9,0.1h0h0c0,0,0.1,0,0.1,0c0,0,0,0.1,0,0.1C71.5,63,71.5,63.1,71.4,63.1
							C71.4,63.1,71.4,63.1,71.4,63.1L71.4,63.1z"/>
						<polygon fill-rule="evenodd" clip-rule="evenodd" fill="#853409" points="68.7,63 67.3,63 66,63.1 66,63 66,62.9 67.3,63 
							68.7,63 						"/>
					</g>
					<g>
						
							<path fill-rule="evenodd" clip-rule="evenodd" fill="#FFC703" stroke="#853409" stroke-width="3.774900e-02" stroke-miterlimit="2.4142" d="
							M66.1,63.2c0.4,0.2,0.5,0.3,0.8,0.3c0.4,0,0.6,0,1.1,0.1c0.4,0.1,0.8,0.4,1.3,0.5c0.5,0.1,0.8,0.1,1.1,0.1s0.7,0.2,0.8,0.4
							c0.1,0.2,0,0.2-0.1,0.1c-0.1-0.1-0.2-0.2-0.6-0.2c-0.4,0-0.6,0.1-1.1,0.1c-0.5,0-0.9-0.3-1.1-0.4C68,64.1,67.3,64,67,64
							c-0.3,0-0.9-0.1-1-0.1C65.9,63.9,66.1,63.2,66.1,63.2L66.1,63.2z"/>
						<path fill-rule="evenodd" clip-rule="evenodd" fill="#853409" d="M66.1,63.5c0,0,0.5,0.2,0.9,0.2c0.4,0,0.8,0,1,0.1
							c0.2,0.1,0.5,0.2,0.5,0.2s-0.3-0.1-0.5-0.2c-0.2,0-0.8-0.1-1-0.1c-0.2,0-0.9-0.1-0.9-0.1L66.1,63.5L66.1,63.5z"/>
					</g>
				</g>
				<g>
					<g>
						
							<path fill-rule="evenodd" clip-rule="evenodd" fill="#FFC703" stroke="#853409" stroke-width="3.774900e-02" stroke-miterlimit="2.4142" d="
							M70.8,59.9l-2.6,1.2l-2.6,1.2l0,0l0,0c0,0-0.1,0-0.1,0c0,0,0,0,0,0l0,0l-0.1-0.2l-0.1-0.2c0,0,0-0.1,0-0.1l0,0
							c0,0,0-0.1,0.1-0.1c0,0,0,0,0,0l0,0c0,0,0,0,0,0l2.7-1l2.7-1l0,0l0,0c0,0,0.1,0,0.1,0s0.1,0,0.1,0.1
							C70.9,59.8,70.9,59.8,70.8,59.9C70.8,59.9,70.8,59.9,70.8,59.9L70.8,59.9z"/>
						<polygon fill-rule="evenodd" clip-rule="evenodd" fill="#853409" points="68.3,60.8 67,61.4 65.8,61.9 65.7,61.9 65.7,61.8 
							67,61.3 68.3,60.8 						"/>
					</g>
					<g>
						
							<path fill-rule="evenodd" clip-rule="evenodd" fill="#FFC703" stroke="#853409" stroke-width="3.774900e-02" stroke-miterlimit="2.4142" d="
							M65.9,62c0.4,0.1,0.5,0.1,0.9,0c0.4-0.1,0.6-0.2,1-0.3c0.4-0.1,0.9,0.1,1.4,0c0.5-0.1,0.8-0.2,1.1-0.4
							c0.3-0.1,0.8-0.1,0.9,0.1c0.2,0.2,0.1,0.2-0.1,0.1c-0.2,0-0.3-0.1-0.7,0c-0.4,0.2-0.5,0.3-1,0.5c-0.5,0.2-1,0-1.2,0.1
							c-0.2,0-1,0.2-1.2,0.3c-0.3,0.1-0.8,0.3-0.9,0.3C66.1,62.7,65.9,62,65.9,62L65.9,62z"/>
						<path fill-rule="evenodd" clip-rule="evenodd" fill="#853409" d="M66.1,62.3c0,0,0.6-0.1,0.9-0.2c0.3-0.1,0.7-0.3,1-0.3
							c0.3,0,0.5,0,0.5,0s-0.3,0-0.5,0c-0.2,0-0.8,0.3-1,0.3c-0.2,0.1-0.9,0.2-0.9,0.2L66.1,62.3L66.1,62.3z"/>
					</g>
				</g>
				<g>
					<g>
						
							<path fill-rule="evenodd" clip-rule="evenodd" fill="#FFC703" stroke="#853409" stroke-width="3.774900e-02" stroke-miterlimit="2.4142" d="
							M69,57.2l-2,2.1l-1.9,2.1l0,0l0,0c0,0-0.1,0-0.1,0c0,0,0,0,0,0l0,0l-0.1-0.1l-0.1-0.1c0,0,0-0.1,0-0.1l0,0c0,0,0-0.1,0-0.1
							c0,0,0,0,0,0l0,0l0,0l2.1-2l2.1-2l0,0l0,0c0,0,0.1,0,0.1,0c0,0,0.1,0,0.1,0C69,57,69,57,69,57.2C69,57.1,69,57.1,69,57.2
							L69,57.2z"/>
						<polygon fill-rule="evenodd" clip-rule="evenodd" fill="#853409" points="67,59 66.1,60 65.1,60.9 65.1,60.9 65,60.8 66,59.9 
							67,59 						"/>
					</g>
					<g>
						
							<path fill-rule="evenodd" clip-rule="evenodd" fill="#FFC703" stroke="#853409" stroke-width="3.774900e-02" stroke-miterlimit="2.4142" d="
							M65.3,61c0.4-0.1,0.5-0.1,0.8-0.4c0.3-0.2,0.5-0.4,0.8-0.7c0.4-0.3,0.9-0.3,1.3-0.6c0.4-0.3,0.6-0.5,0.9-0.8
							c0.2-0.2,0.7-0.3,0.9-0.3c0.2,0.1,0.1,0.1,0,0.2c-0.2,0-0.3,0-0.6,0.3c-0.3,0.3-0.3,0.5-0.7,0.8c-0.4,0.3-0.9,0.4-1.1,0.5
							c-0.2,0.1-0.8,0.6-1,0.8c-0.2,0.2-0.7,0.6-0.8,0.6C65.7,61.5,65.3,61,65.3,61L65.3,61z"/>
						<path fill-rule="evenodd" clip-rule="evenodd" fill="#853409" d="M65.6,61.2c0,0,0.5-0.3,0.8-0.5c0.3-0.2,0.6-0.5,0.8-0.7
							c0.2-0.1,0.5-0.2,0.5-0.2s-0.3,0.1-0.5,0.2c-0.2,0.1-0.6,0.5-0.8,0.7c-0.2,0.2-0.7,0.6-0.7,0.6L65.6,61.2L65.6,61.2z"/>
					</g>
				</g>
				<g>
					<g>
						
							<path fill-rule="evenodd" clip-rule="evenodd" fill="#FFC703" stroke="#853409" stroke-width="3.774900e-02" stroke-miterlimit="2.4142" d="
							M66.3,55.3l-1,2.7l-1,2.7l0,0l0,0c0,0,0,0.1-0.1,0.1c0,0,0,0,0,0l0,0l-0.2-0.1l-0.2-0.1c0,0-0.1,0-0.1-0.1l0,0
							c0,0,0-0.1,0-0.1c0,0,0,0,0,0l0,0c0,0,0,0,0,0l1.2-2.6l1.2-2.6v0l0,0c0,0,0-0.1,0.1-0.1c0,0,0.1,0,0.1,0
							C66.3,55.2,66.3,55.2,66.3,55.3C66.3,55.2,66.3,55.3,66.3,55.3L66.3,55.3z"/>
						<polygon fill-rule="evenodd" clip-rule="evenodd" fill="#853409" points="65.2,57.7 64.7,59 64.2,60.3 64.1,60.3 64.1,60.2 
							64.6,59 65.2,57.7 						"/>
					</g>
					<g>
						
							<path fill-rule="evenodd" clip-rule="evenodd" fill="#FFC703" stroke="#853409" stroke-width="3.774900e-02" stroke-miterlimit="2.4142" d="
							M64.3,60.2c0.3-0.3,0.4-0.3,0.6-0.7c0.2-0.3,0.3-0.6,0.5-0.9c0.2-0.4,0.7-0.6,1-1c0.3-0.4,0.4-0.7,0.5-1
							c0.1-0.3,0.5-0.6,0.7-0.6c0.2,0,0.2,0.1,0,0.2c-0.1,0.1-0.3,0.1-0.4,0.5c-0.1,0.4-0.1,0.6-0.3,1c-0.2,0.5-0.7,0.7-0.8,0.9
							c-0.2,0.2-0.5,0.8-0.6,1.1c-0.1,0.3-0.4,0.8-0.5,0.9C64.9,60.6,64.3,60.2,64.3,60.2L64.3,60.2z"/>
						<path fill-rule="evenodd" clip-rule="evenodd" fill="#853409" d="M64.7,60.3c0,0,0.4-0.4,0.5-0.7c0.2-0.3,0.3-0.7,0.5-0.9
							c0.2-0.2,0.4-0.3,0.4-0.3s-0.2,0.2-0.4,0.4c-0.1,0.1-0.4,0.7-0.4,0.9c-0.1,0.2-0.4,0.8-0.4,0.8L64.7,60.3L64.7,60.3z"/>
					</g>
				</g>
			</g>
			
				<path fill-rule="evenodd" clip-rule="evenodd" fill="#FFC703" stroke="#853409" stroke-width="6.291500e-02" stroke-miterlimit="2.4142" d="
				M63,59.6c1.9,0,3.4,1.5,3.4,3.4c0,1.9-1.5,3.4-3.4,3.4c-1.9,0-3.4-1.5-3.4-3.4C59.6,61.1,61.1,59.6,63,59.6z"/>
			<path fill-rule="evenodd" clip-rule="evenodd" fill="#853409" d="M63.2,62.7c0,0.3,0.3,0.7,0.3,0.7l0,0v0c0,0,0,0,0,0.1
				c0,0,0,0,0,0c0,0,0,0,0,0c0,0,0,0,0,0c0,0,0,0,0,0C63.2,63.2,63.1,63,63.2,62.7c-0.1-0.3,0.1-0.7,0.1-0.7l0,0v0
				c0.3-0.2,0.7-0.3,1-0.3c0.3,0,0.6,0.2,0.9,0.5l0,0.1l0,0c0,0-0.8-0.8-1.7-0.2c-0.1,0.1-0.1,0.1-0.2,0.3
				C63.2,62.4,63.2,62.5,63.2,62.7L63.2,62.7z M63,64.9c0.1,0,0.2,0.1,0.3,0.1c0.1,0.1,0.1,0.2,0.1,0.3c0,0,0,0,0,0c0,0,0,0,0,0
				l0,0.1l0-0.1c0-0.1-0.1-0.2-0.1-0.3C63.2,65.1,63.1,65,63,64.9c-0.1,0.1-0.2,0.1-0.3,0.2c-0.1,0.1-0.1,0.2-0.1,0.3l0,0.1l0-0.1
				c0,0,0,0,0,0c0,0,0,0,0,0c0-0.1,0.1-0.2,0.1-0.3C62.8,65,62.9,64.9,63,64.9L63,64.9z M62.5,64.5c0,0,0.1,0,0.2,0
				c0.1,0,0.1,0,0.2,0c0.1,0,0.1,0,0.2,0c0.1,0,0.1,0,0.2,0c0,0,0.1,0,0.2,0c0.1,0,0.2,0,0.2,0l0.1,0h-0.1c-0.1,0-0.2,0-0.2,0
				c-0.1,0-0.1,0-0.1,0c-0.1,0-0.1,0-0.2,0c-0.1,0-0.1,0-0.2,0c0,0-0.1,0-0.1,0C62.6,64.5,62.6,64.5,62.5,64.5L62.5,64.5L62.5,64.5
				L62.5,64.5z M62.6,64.7c-0.1-0.1-0.2-0.2-0.3-0.2l0,0l0,0C62.5,64.5,62.6,64.6,62.6,64.7c0.1,0,0.2,0.1,0.3,0.1l0,0
				c0,0,0,0,0.1,0c0,0,0,0,0.1,0h0l0,0c0,0,0,0,0,0c0,0,0,0,0,0c0.1,0,0.2-0.1,0.3-0.1c0.1-0.1,0.2-0.2,0.4-0.1l0.1,0l-0.1,0
				c-0.1,0-0.2,0.1-0.3,0.2c-0.1,0.1-0.2,0.2-0.3,0.2c0,0,0,0-0.1,0c0,0,0,0-0.1,0c0,0,0,0-0.1,0c0,0,0,0-0.1,0
				C62.8,64.9,62.7,64.8,62.6,64.7L62.6,64.7z M62.3,64.5C62.3,64.4,62.3,64.4,62.3,64.5c0.2-0.2,0.3-0.3,0.5-0.3
				c0.1,0,0.2,0,0.2,0.1c0,0,0.1,0,0.1,0c0,0,0.1,0,0.1,0c0.1,0,0.1-0.1,0.2-0.1c0.1,0,0.3,0.1,0.4,0.3c0,0,0.1,0.1,0.1,0.1l0.1,0.1
				l-0.1-0.1c-0.1-0.1-0.2-0.1-0.3-0.2c-0.1-0.1-0.2-0.1-0.3,0c0,0,0,0-0.1,0c0,0-0.1,0-0.1,0c0,0-0.1,0-0.1,0c0,0,0,0-0.1,0
				c-0.1,0-0.2,0-0.3,0C62.4,64.3,62.3,64.4,62.3,64.5L62.3,64.5L62.3,64.5L62.3,64.5z M61.1,62.5C61.1,62.5,61.1,62.5,61.1,62.5
				c0.1-0.1,0.2-0.2,0.3-0.3c0.1-0.1,0.2-0.1,0.3-0.1c0.1,0,0.2,0,0.3,0c0.1,0,0.2,0.1,0.3,0.2l0,0c0.1,0.1,0.1,0.1,0.2,0.1l0,0
				c0,0,0,0,0,0l0,0c0,0,0,0,0,0l0,0c0,0,0,0,0,0l0,0c0,0,0,0,0,0c-0.1,0-0.2-0.1-0.2-0.1l0,0c-0.1-0.1-0.2-0.1-0.3-0.2
				c-0.1,0-0.2,0-0.3,0c-0.1,0-0.2,0.1-0.3,0.1C61.3,62.3,61.2,62.4,61.1,62.5C61.1,62.5,61.1,62.5,61.1,62.5
				C61.1,62.5,61.1,62.5,61.1,62.5C61.1,62.5,61.1,62.5,61.1,62.5L61.1,62.5z M65,62.5C65,62.5,65,62.5,65,62.5
				C65,62.5,65,62.5,65,62.5C65,62.5,65,62.5,65,62.5C64.9,62.5,64.9,62.5,65,62.5c-0.1-0.1-0.2-0.1-0.3-0.2
				c-0.1-0.1-0.2-0.1-0.3-0.1c-0.1,0-0.2,0-0.3,0c-0.1,0-0.2,0.1-0.3,0.2l0,0c-0.1,0.1-0.2,0.1-0.2,0.1c0,0,0,0,0,0l0,0c0,0,0,0,0,0
				l0,0c0,0,0,0,0,0l0,0c0,0,0,0,0,0l0,0c0.1,0,0.2-0.1,0.2-0.1l0,0c0.1-0.1,0.2-0.2,0.3-0.2c0.1,0,0.2,0,0.3,0
				c0.1,0,0.2,0.1,0.3,0.1C64.8,62.3,64.9,62.4,65,62.5L65,62.5z M64.8,62.5L64.8,62.5L64.8,62.5L64.8,62.5L64.8,62.5L64.8,62.5
				L64.8,62.5L64.8,62.5L64.8,62.5L64.8,62.5c0,0-0.3,0.2-0.6,0.2c-0.4,0-0.6-0.2-0.6-0.2l0,0l0,0l0,0l0,0v0l0,0l0,0l0,0l0,0l0,0
				c0,0,0.2-0.3,0.6-0.3C64.6,62.2,64.8,62.5,64.8,62.5L64.8,62.5z M64,62.4C64,62.3,64.1,62.3,64,62.4C64,62.3,64,62.3,64,62.4
				c-0.1,0-0.1,0-0.2,0c-0.1,0-0.1,0.1-0.1,0.1c0,0,0,0,0,0.1c0,0,0,0,0,0.1c0,0,0.1,0.1,0.2,0.1c0,0,0.1,0,0.1,0c0,0,0,0,0.1,0
				c0,0-0.1,0-0.1-0.1c0,0,0-0.1,0-0.1C64,62.4,64,62.4,64,62.4L64,62.4z M64.4,62.6C64.4,62.6,64.3,62.7,64.4,62.6
				C64.4,62.7,64.4,62.7,64.4,62.6c0.1,0,0.2,0,0.2,0c0,0,0.1,0,0.1,0c0,0,0,0,0,0c0,0,0,0,0,0c0,0,0,0-0.1-0.1c0,0-0.1-0.1-0.1-0.1
				l0,0c0,0-0.1,0-0.1,0c0,0,0,0,0.1,0.1c0,0,0,0.1,0,0.1C64.4,62.5,64.4,62.6,64.4,62.6L64.4,62.6z M64.7,62.7
				C64.7,62.7,64.8,62.7,64.7,62.7L64.7,62.7C64.8,62.7,64.8,62.7,64.7,62.7C64.8,62.7,64.8,62.7,64.7,62.7L64.7,62.7
				C64.8,62.7,64.8,62.8,64.7,62.7c-0.1,0.1-0.2,0.1-0.3,0.2c-0.1,0-0.2,0-0.3,0c-0.1,0-0.2,0-0.3-0.1c-0.1,0-0.2-0.1-0.3-0.2l0,0
				c0,0,0,0,0,0c0,0,0,0,0,0l0,0c0,0,0,0,0,0c0,0,0,0,0,0l0,0c0.1,0.1,0.2,0.1,0.3,0.2c0.1,0,0.2,0.1,0.3,0.1c0.1,0,0.2,0,0.3,0
				C64.5,62.8,64.6,62.8,64.7,62.7L64.7,62.7L64.7,62.7z M61.2,62.5L61.2,62.5L61.2,62.5c0,0,0.2-0.3,0.6-0.3c0.4,0,0.6,0.3,0.6,0.3
				l0,0l0,0l0,0l0,0l0,0v0l0,0l0,0l0,0l0,0c0,0-0.2,0.2-0.6,0.2C61.5,62.7,61.2,62.6,61.2,62.5L61.2,62.5L61.2,62.5L61.2,62.5
				L61.2,62.5L61.2,62.5L61.2,62.5L61.2,62.5L61.2,62.5z M62,62.3C62,62.3,62,62.3,62,62.3c0.1,0.1,0.1,0.1,0.1,0.2c0,0,0,0.1,0,0.1
				c0,0,0,0.1-0.1,0.1c0,0,0,0,0.1,0c0,0,0.1,0,0.1,0c0.1,0,0.1,0,0.2-0.1c0,0,0,0,0-0.1c0,0,0,0,0-0.1c0,0-0.1-0.1-0.1-0.1
				c0,0-0.1,0-0.1-0.1C62,62.3,62,62.3,62,62.3L62,62.3z M61.7,62.7C61.7,62.7,61.7,62.6,61.7,62.7c-0.1-0.1-0.1-0.1-0.1-0.2
				c0,0,0-0.1,0-0.1c0,0,0,0,0.1-0.1c-0.1,0-0.1,0-0.1,0c-0.1,0-0.1,0.1-0.1,0.1c0,0-0.1,0-0.1,0.1c0,0,0,0,0,0c0,0,0,0,0,0
				c0,0,0,0,0.1,0c0,0,0.1,0,0.1,0C61.6,62.7,61.7,62.7,61.7,62.7L61.7,62.7z M61.3,62.7C61.3,62.7,61.3,62.7,61.3,62.7L61.3,62.7
				c0.1,0,0.2,0.1,0.3,0.1c0.1,0,0.2,0,0.3,0c0.1,0,0.2,0,0.3-0.1c0.1,0,0.2-0.1,0.3-0.2l0,0c0,0,0,0,0,0c0,0,0,0,0,0l0,0
				c0,0,0,0,0,0c0,0,0,0,0,0l0,0c-0.1,0.1-0.2,0.2-0.3,0.2c-0.1,0-0.2,0.1-0.3,0.1c-0.1,0-0.2,0-0.3,0
				C61.5,62.8,61.4,62.8,61.3,62.7C61.3,62.8,61.3,62.7,61.3,62.7L61.3,62.7C61.3,62.7,61.3,62.7,61.3,62.7
				C61.3,62.7,61.3,62.7,61.3,62.7L61.3,62.7L61.3,62.7z M63.5,63.8c0,0,0.1,0,0.1-0.1l0,0c0,0,0.1-0.1,0.1-0.1c0,0,0-0.1,0-0.1
				c0,0,0,0,0-0.1l0,0l0,0c0,0,0.1,0,0.1,0.1c0,0,0,0.1,0,0.1c0,0.1,0,0.1-0.1,0.2c0,0-0.1,0.1-0.2,0.1c0,0-0.1,0-0.1,0
				c0,0-0.1-0.1-0.1-0.1c0,0-0.1,0.1-0.1,0.1c-0.1,0-0.1,0-0.2,0c-0.1,0-0.1,0-0.2,0c-0.1,0-0.1-0.1-0.1-0.1c0,0,0,0.1-0.1,0.1
				c0,0-0.1,0-0.1,0c-0.1,0-0.1,0-0.2-0.1c0,0-0.1-0.1-0.1-0.2c0,0,0-0.1,0-0.1c0,0,0.1-0.1,0.1-0.1l0,0l0,0c0,0,0,0,0,0.1
				c0,0,0,0,0,0.1c0,0,0,0.1,0.1,0.1c0,0,0.1,0.1,0.1,0.1c0,0,0.1,0,0.1,0c0,0,0,0,0.1-0.1l0,0l0,0c0,0,0.1,0.1,0.1,0.1
				c0.1,0,0.1,0,0.2,0c0.1,0,0.1,0,0.2,0c0.1,0,0.1-0.1,0.1-0.1l0,0l0,0c0,0,0,0.1,0.1,0.1C63.4,63.8,63.5,63.8,63.5,63.8L63.5,63.8
				z M62.6,63.4c0,0,0.2-0.4,0.3-0.7c0-0.2,0-0.3-0.1-0.4c0-0.1-0.1-0.2-0.2-0.3c-0.9-0.5-1.7,0.2-1.7,0.2l-0.1,0l0-0.1
				c0.2-0.3,0.5-0.5,0.9-0.5c0.3,0,0.7,0,1,0.3l0,0v0c0,0,0.2,0.4,0.2,0.7c0,0.3-0.1,0.6-0.2,0.7C62.7,63.4,62.7,63.4,62.6,63.4
				C62.7,63.4,62.7,63.4,62.6,63.4C62.7,63.4,62.7,63.4,62.6,63.4C62.6,63.4,62.6,63.4,62.6,63.4C62.6,63.4,62.6,63.4,62.6,63.4
				L62.6,63.4L62.6,63.4L62.6,63.4z"/>
		</g>
	</g>
	<path opacity="0.35" fill="#FFFFFF" d="M13,29.7v25.5C26.2,62.6,43.7,67,63,67c19.3,0,36.8-4.5,50-11.8V29.7H13z"/>
</g>
</svg>
