<?xml version="1.0" encoding="utf-8"?>
<!-- Generator: Adobe Illustrator 24.3.0, SVG Export Plug-In . SVG Version: 6.00 Build 0)  -->
<svg version="1.1" id="Layer_1" xmlns="http://www.w3.org/2000/svg" xmlns:xlink="http://www.w3.org/1999/xlink" x="0px" y="0px"
	 viewBox="0 0 126 126" enable-background="new 0 0 126 126" xml:space="preserve">
<g>
	<path fill="#C7EBF9" d="M52.5,89.5h-10v-8.1l-4.7-9.5h-1.1v4.1l-7.6,7.6h-8.3L13,76.1v-8.3l6.1-5.9v-9.2L13,46.8v-9.4l14.8-3.7
		l12.1,3h4.8l7.5-3.7l-3.8-3.8v-10h15.9l5.9,5.9h13.4v5.9h9.3l20.2,6.7v10.9h-7.8l-5.9,5.9h-10v-5.9h-5.9v1.7l7.1,7.1l-8.8,8.8h-4.1
		v4.1l-7.6,7.6h-4.1v5.9h-7.6L52.5,89.5z"/>
	<path fill="#C7EBF9" d="M27.8,25.1h11.7v5.9H27.8V25.1z"/>
	<path fill="#C7EBF9" d="M87.7,77.8h-7.1v-5.9h4.6l5-5l4.1,4.1L87.7,77.8z"/>
	<path fill="#C7EBF9" d="M90.2,100.4l-5-5h-4.6v-5.9h7.1l6.7,6.7L90.2,100.4z"/>
	<path fill="#C7EBF9" d="M71.8,98.3h5.9v5.9h-5.9V98.3z"/>
	<path fill="#C7EBF9" d="M77.6,80.7h5.9v5.9h-5.9V80.7z"/>
	<path fill="#C7EBF9" d="M77.3,95.4H65.9v-8.8h7.8L77.3,95.4z"/>
	<path fill="#C7EBF9" d="M67.5,106.8l-13.3-6.7v-7.7h5.9v4l10.1,5L67.5,106.8z"/>
</g>
</svg>
