<?xml version="1.0" encoding="utf-8"?>
<!-- Generator: Adobe Illustrator 24.3.0, SVG Export Plug-In . SVG Version: 6.00 Build 0)  -->
<svg version="1.1" id="Layer_1" xmlns="http://www.w3.org/2000/svg" xmlns:xlink="http://www.w3.org/1999/xlink" x="0px" y="0px"
	 viewBox="0 0 126 126" enable-background="new 0 0 126 126" xml:space="preserve">
<g>
	<g>
		<polygon fill-rule="evenodd" clip-rule="evenodd" fill="#0437A0" points="13,29.7 63,29.7 113,29.7 113,96.3 63,96.3 13,96.3 
			13,29.7 		"/>
		<polygon fill-rule="evenodd" clip-rule="evenodd" fill="#F4F4F4" points="33.9,29.7 38,29.7 42.1,29.7 42.1,39.5 56.8,29.7 
			63,29.7 63,33.8 52.4,40.8 63,40.8 63,51.8 52.4,51.8 63,58.9 63,63 56.8,63 42.1,53.2 42.1,63 38,63 33.9,63 33.9,53.2 19.2,63 
			13,63 13,58.9 23.6,51.8 13,51.8 13,40.8 23.6,40.8 13,33.8 13,29.7 19.2,29.7 33.9,39.5 33.9,29.7 		"/>
		<path fill-rule="evenodd" clip-rule="evenodd" fill="#FF1612" d="M40.6,29.7v13.2H63v6.9H40.6V63H38h-2.6V49.8H13v-6.9h22.4V29.7
			H38H40.6L40.6,29.7z M63,61.5l-14.4-9.6h-4.6L60.7,63H63V61.5L63,61.5z M48.6,40.8L63,31.2v-1.5h-2.3L43.9,40.8H48.6L48.6,40.8z
			 M32.1,40.8L15.3,29.7H13v1.5l14.4,9.6H32.1L32.1,40.8z M27.4,51.8L13,61.5V63h2.3l16.7-11.2H27.4L27.4,51.8z"/>
		<polygon fill-rule="evenodd" clip-rule="evenodd" fill="#F4F4F4" points="88,73.2 88.7,75.4 90.8,74.6 89.5,76.4 91.5,77.6 
			89.2,77.8 89.6,80 88,78.4 86.5,80 86.8,77.8 84.5,77.6 86.5,76.4 85.2,74.6 87.3,75.4 88,73.2 		"/>
		<polygon fill-rule="evenodd" clip-rule="evenodd" fill="#F4F4F4" points="75.5,53.4 76.2,55.6 78.3,54.8 77,56.7 79,57.8 76.7,58 
			77,60.2 75.5,58.6 74,60.2 74.3,58 72,57.8 74,56.7 72.7,54.8 74.8,55.6 75.5,53.4 		"/>
		<polygon fill-rule="evenodd" clip-rule="evenodd" fill="#F4F4F4" points="88,39.9 88.7,42 90.8,41.2 89.5,43.1 91.5,44.3 
			89.2,44.5 89.6,46.7 88,45.1 86.5,46.7 86.8,44.5 84.5,44.3 86.5,43.1 85.2,41.2 87.3,42 88,39.9 		"/>
		<polygon fill-rule="evenodd" clip-rule="evenodd" fill="#F4F4F4" points="99.1,50.1 99.8,52.2 101.9,51.4 100.7,53.3 102.6,54.5 
			100.4,54.7 100.7,56.9 99.1,55.3 97.6,56.9 97.9,54.7 95.6,54.5 97.6,53.3 96.3,51.4 98.4,52.2 99.1,50.1 		"/>
		<polygon fill-rule="evenodd" clip-rule="evenodd" fill="#F4F4F4" points="93,60.1 93.5,61.5 95,61.6 93.9,62.5 94.2,63.9 93,63.1 
			91.8,63.9 92.1,62.5 91,61.6 92.5,61.5 93,60.1 		"/>
		<polygon fill-rule="evenodd" clip-rule="evenodd" fill="#F4F4F4" points="38,71.8 39.4,76.3 43.9,74.6 41.2,78.5 45.3,80.9 
			40.6,81.3 41.3,86 38,82.6 34.7,86 35.4,81.3 30.7,80.9 34.7,78.5 32.1,74.6 36.6,76.3 38,71.8 		"/>
	</g>
	<path opacity="0.25" fill="#FFFFFF" d="M13,29.7v25.5C26.2,62.6,43.7,67,63,67s36.8-4.5,50-11.8V29.7H13z"/>
</g>
</svg>
