<?xml version="1.0" encoding="utf-8"?>
<!-- Generator: Adobe Illustrator 24.3.0, SVG Export Plug-In . SVG Version: 6.00 Build 0)  -->
<svg version="1.1" id="Layer_1" xmlns="http://www.w3.org/2000/svg" xmlns:xlink="http://www.w3.org/1999/xlink" x="0px" y="0px"
	 viewBox="0 0 126 126" enable-background="new 0 0 126 126" xml:space="preserve">
<g>
	<g>
		<polygon fill-rule="evenodd" clip-rule="evenodd" fill="#17AA22" points="13,96.3 113,96.3 113,74.1 13,74.1 13,96.3 		"/>
		<polygon fill-rule="evenodd" clip-rule="evenodd" fill="#2489F0" points="13,51.9 113,51.9 113,29.7 13,29.7 13,51.9 		"/>
		<polygon fill-rule="evenodd" clip-rule="evenodd" fill="#FF1612" points="13,74.1 113,74.1 113,51.9 13,51.9 13,74.1 		"/>
		<g>
			<path fill-rule="evenodd" clip-rule="evenodd" fill="#FFFFFF" d="M67.7,57.7c-1.7-2.5-4.6-4.2-7.9-4.2c-5.3,0-9.5,4.3-9.5,9.5
				s4.3,9.5,9.5,9.5c3.3,0,6.2-1.7,7.9-4.2c-1.4,1.6-3.5,2.6-5.9,2.6c-4.4,0-7.9-3.5-7.9-7.9s3.5-7.9,7.9-7.9
				C64.2,55.1,66.3,56.1,67.7,57.7L67.7,57.7z"/>
			<polygon fill-rule="evenodd" clip-rule="evenodd" fill="#FFFFFF" points="74.1,66.7 71.4,65.4 70.4,68.3 69.4,65.4 66.7,66.7 
				68,64 65.1,63 68,62 66.7,59.3 69.4,60.6 70.4,57.7 71.4,60.6 74.1,59.3 72.8,62 75.7,63 72.8,64 74.1,66.7 			"/>
		</g>
	</g>
	<path opacity="0.35" fill="#FFFFFF" d="M13,29.7v25.5C26.2,62.6,43.7,67,63,67c19.3,0,36.8-4.5,50-11.8V29.7H13z"/>
</g>
</svg>
