<?xml version="1.0" encoding="utf-8"?>
<!-- Generator: Adobe Illustrator 24.3.0, SVG Export Plug-In . SVG Version: 6.00 Build 0)  -->
<svg version="1.1" id="Layer_1" xmlns="http://www.w3.org/2000/svg" xmlns:xlink="http://www.w3.org/1999/xlink" x="0px" y="0px"
	 viewBox="0 0 126 126" enable-background="new 0 0 126 126" xml:space="preserve">
<g>
	<g>
		<path fill-rule="evenodd" clip-rule="evenodd" fill="#0440A8" d="M13,96.3h33.3V29.7H13V96.3L13,96.3z M79.7,96.3H113V29.7H79.7
			V96.3L79.7,96.3z"/>
		<polygon fill-rule="evenodd" clip-rule="evenodd" fill="#FFF200" points="46.3,96.3 79.7,96.3 79.7,29.7 46.3,29.7 46.3,96.3 		
			"/>
		<path fill-rule="evenodd" clip-rule="evenodd" d="M64.6,79.1v-8.7c0.7,0,1.9,0.1,3.1,0.4c1.9,0.4,3.1,0.4,3.1,0.4s0.1-5,1.6-9.8
			c1.5-4.7,4.6-9.3,4.9-9.7c0.3-0.5-1.2-0.1-1.8,0.1c-0.6,0.2-3.2,1.1-4.5,2.3c-1.3,1.2-1.3,1.2-1,1.1c0.3,0,0.8-0.3,1.2-0.4
			c0.4-0.1,0.4,0.2,0.3,0.5c-0.2,0.3-1.3,3.3-1.7,4.6c-0.3,1.3-1.1,4.9-1.3,6.3c-0.1,1.5,0,1.5-0.5,1.4c-0.4-0.1-2.6-0.5-3.3-0.6
			V54.7c1.4,0.1,2.9,0.4,2.9,0.4C65,53.3,63,46.9,63,46.9s-2,6.4-4.6,8.2c0,0,1.5-0.3,2.9-0.4v12.4c-0.7,0.1-2.9,0.5-3.3,0.6
			c-0.5,0.1-0.4,0.1-0.5-1.4c-0.1-1.5-0.9-5-1.3-6.3c-0.3-1.3-1.5-4.4-1.7-4.6c-0.2-0.3-0.1-0.7,0.3-0.5c0.4,0.1,0.9,0.3,1.2,0.4
			c0.3,0,0.3,0.1-1-1.1c-1.3-1.2-3.9-2.1-4.5-2.3c-0.6-0.2-2.1-0.6-1.8-0.1c0.3,0.5,3.4,5,4.9,9.7c1.5,4.7,1.6,9.8,1.6,9.8
			s1.2,0,3.1-0.4c1.2-0.3,2.3-0.3,3.1-0.4v8.7H64.6L64.6,79.1z"/>
	</g>
	<path opacity="0.3" fill="#FFFFFF" d="M13,29.7v25.5C26.2,62.6,43.7,67,63,67c19.3,0,36.8-4.5,50-11.8V29.7H13z"/>
</g>
</svg>
