<?xml version="1.0" encoding="utf-8"?>
<!-- Generator: Adobe Illustrator 24.3.0, SVG Export Plug-In . SVG Version: 6.00 Build 0)  -->
<svg version="1.1" id="Layer_1" xmlns="http://www.w3.org/2000/svg" xmlns:xlink="http://www.w3.org/1999/xlink" x="0px" y="0px"
	 viewBox="0 0 126 126" enable-background="new 0 0 126 126" xml:space="preserve">
<g>
	<g>
		<polygon fill="#FF1612" points="27.8,29.7 113,29.7 113,74.1 27.8,74.1 27.8,29.7 		"/>
		<polygon fill="#1AA624" points="27.8,74.1 113,74.1 113,96.3 27.8,96.3 27.8,74.1 		"/>
		<polygon fill="#F4F4F4" points="13,29.7 27.8,29.7 27.8,96.3 13,96.3 13,29.7 		"/>
		<path fill-rule="evenodd" clip-rule="evenodd" fill="#FF1612" d="M17.2,43.9h0.5V45h0.5v1.1h0.5v1.1h0.5v1.1h0.5v1.1h0.5v1.1h0.5
			v-1.1h0.5v-1.1h0.5v-1.1H22v-1.1h0.5V45H23v-1.1h0.5V45h0.5v1.1h0.5v1.1h0.5v1.1h0.5v1.1h0.5v1.1v1.1h-0.5v1.1h-0.5v1.1h-0.5v1.1
			h-0.5v-1.1h-0.5v-1.1H23v-1.1h0.5h0.5v-1.1h-0.5H23h-0.5v1.1H22v1.1h-0.5v1.1H22v1.1h0.5v1.1H23V57h0.5v1.1h0.5v1.1h0.5v-1.1h0.5
			V57h0.5v-1.1h0.5V57v1.1v1.1h-0.5v1.1h-0.5v1.1h-0.5v1.1h-0.5v1.1h0.5v1.1h0.5v1.1h0.5v1.1h0.5v1.1V69v1.1h-0.5V69h-0.5v-1.1h-0.5
			v-1.1h-0.5v1.1h-0.5V69H23v1.1h-0.5v1.1H22v1.1h-0.5v1.1H22v1.1h0.5v1.1H23h0.5h0.5v-1.1h-0.5H23v-1.1h0.5v-1.1h0.5v-1.1h0.5v1.1
			h0.5v1.1h0.5v1.1h0.5v1.1v1.1h-0.5v1.1h-0.5v1.1h-0.5v1.1h-0.5V81h-0.5v1.1H23V81h-0.5v-1.1H22v-1.1h-0.5v-1.1h-0.5v-1.1h-0.5
			v-1.1h-0.5v1.1h-0.5v1.1h-0.5v1.1h-0.5v1.1h-0.5V81h-0.5v1.1h-0.5V81h-0.5v-1.1h-0.5v-1.1h-0.5v-1.1h-0.5v-1.1h-0.5v-1.1v-1.1h0.5
			v-1.1h0.5v-1.1h0.5v-1.1h0.5v1.1h0.5v1.1h0.5v1.1h-0.5h-0.5v1.1h0.5h0.5h0.5v-1.1h0.5v-1.1h0.5v-1.1h-0.5v-1.1h-0.5v-1.1h-0.5V69
			h-0.5v-1.1h-0.5v-1.1h-0.5v1.1h-0.5V69h-0.5v1.1h-0.5V69v-1.1v-1.1h0.5v-1.1h0.5v-1.1h0.5v-1.1h0.5v-1.1h-0.5v-1.1h-0.5v-1.1h-0.5
			v-1.1h-0.5v-1.1V57v-1.1h0.5V57h0.5v1.1h0.5v1.1h0.5v-1.1h0.5V57h0.5v-1.1h0.5v-1.1h0.5v-1.1h0.5v-1.1h-0.5v-1.1h-0.5v-1.1h-0.5
			h-0.5h-0.5v1.1h0.5h0.5v1.1h-0.5v1.1h-0.5v1.1h-0.5v-1.1h-0.5v-1.1h-0.5v-1.1h-0.5v-1.1v-1.1h0.5v-1.1h0.5v-1.1h0.5v-1.1h0.5V45
			h0.5V43.9L17.2,43.9z M25.4,62.5h0.5v1.1h-0.5V62.5L25.4,62.5z M14.8,62.5h0.5v1.1h-0.5V62.5L14.8,62.5z M23,63.6v-1.1v-1.1v-1.1
			h-0.5v-1.1H22v-1.1h-0.5V57h-0.5v-1.1h-0.5v-1.1h-0.5v1.1h-0.5V57h-0.5v1.1h-0.5v1.1h-0.5v1.1h-0.5v1.1v1.1v1.1v1.1v1.1h0.5v1.1
			h0.5v1.1h0.5V69h0.5v1.1h0.5v1.1h0.5v-1.1h0.5V69h0.5v-1.1H22v-1.1h0.5v-1.1H23v-1.1V63.6L23,63.6z M20.1,64.7h0.5v1.1h0.5v1.1
			h0.5v-1.1v-1.1h-0.5v-1.1h-0.5v-1.1h0.5v-1.1h0.5v-1.1v-1.1h-0.5v1.1h-0.5v1.1h-0.5v-1.1h-0.5v-1.1h-0.5v1.1v1.1h0.5v1.1h0.5v1.1
			h-0.5v1.1h-0.5v1.1v1.1h0.5v-1.1h0.5V64.7L20.1,64.7z M20.1,69h0.5v-1.1h-0.5V69L20.1,69z M25.4,71.2h0.5v1.1h-0.5V71.2L25.4,71.2
			z M15.3,71.2h-0.5v1.1h0.5V71.2L15.3,71.2z M25.4,79.9h0.5v-1.1h-0.5V79.9L25.4,79.9z M15.3,79.9h-0.5v-1.1h0.5V79.9L15.3,79.9z
			 M20.1,79.9V81h0.5v-1.1v-1.1h-0.5V79.9L20.1,79.9z M18.6,86.5h0.5h0v0v-1.1h0.5h0v0v-1.1h0.5v-1.1h-0.5v-1.1h-0.5V81h-0.5v1.1
			h-0.5v1.1h-0.5v1.1h0.5v1.1v0h0h0.5L18.6,86.5L18.6,86.5L18.6,86.5L18.6,86.5z M24.9,84.3h-0.4h0v-1.1h0.5L24.9,84.3L24.9,84.3
			L24.9,84.3z M24.9,85.4h0.5h0v0v-1.1h0.5v-1.1h-0.5v-1.1h-0.5V81h-0.5v1.1h-0.5v1.1h-0.5v1.1h0.5v1.1v0h0h0.5v1.1v0h0h0.5h0v0
			V85.4L24.9,85.4z M22,84.3h-0.4h0v-1.1H22L22,84.3L22,84.3L22,84.3z M22,85.4h0.5h0v0v-1.1H23v-1.1h-0.5v-1.1H22V81h-0.5v1.1h-0.5
			v1.1h-0.5v1.1H21v1.1v0h0h0.5v1.1v0h0H22h0v0V85.4L22,85.4z M16.2,84.3h-0.4h0v-1.1h0.5L16.2,84.3L16.2,84.3L16.2,84.3z
			 M16.3,85.4h0.5h0v0v-1.1h0.5v-1.1h-0.5v-1.1h-0.5V81h-0.5v1.1h-0.5v1.1h-0.5v1.1h0.5v1.1v0h0h0.5v1.1v0h0h0.5h0v0V85.4L16.3,85.4
			z M19.1,84.3h-0.4h0v-1.1h0.5L19.1,84.3L19.1,84.3L19.1,84.3z M25.9,87.6h-0.5h0v0v1.1v0h0h0.5h0v0L25.9,87.6L25.9,87.6L25.9,87.6
			L25.9,87.6z M24.4,88.7v-1.1v0h0H24v-1.1v0h0h-0.5v-1.1v0h0H23h0v0v1.1h-0.5h0v0v1.1H22h0v0v1.1h-0.5h0v0v1.1h-0.5h0v0v1.1h-0.5h0
			v0V92v0h0H21V93v0h0h0.5v1.1v0h0H22v1.1v0h0h0.5v1.1v0h0H23h0h0h0.4h0h0h0.5h0v0v-1.1h0.5h0v0v-1.1h0.5h0v0v-1.1h0.5h0v0V92h0.5h0
			v0v-1.1v0h0h-0.5v-1.1v0h0h-0.5v-1.1v0h0H24.4L24.4,88.7z M23,88.7h0.4v1.1v0h0h0.5v1.1v0h0h0.5v1h-0.5h0v0V93h-0.5h0v0v1.1H23V93
			v0h0h-0.5V92v0h0H22v-1h0.5h0v0v-1.1H23h0v0V88.7L23,88.7z M23.5,90.8H23h0v0V92v0h0h0.5h0v0L23.5,90.8L23.5,90.8L23.5,90.8
			L23.5,90.8z M25.9,94.1h-0.5h0v0v1.1v0h0h0.5h0v0L25.9,94.1L25.9,94.1L25.9,94.1L25.9,94.1z M20.6,86.5h-0.5h0v0v1.1v0v0v1.1v0h0
			h0.5h0v0v-1.1v0v0L20.6,86.5L20.6,86.5L20.6,86.5L20.6,86.5z M20.1,96.3h0.5h0v0v-1.1v0v0v-1.1v0h0h-0.5h0v0v1.1v0v0L20.1,96.3
			L20.1,96.3L20.1,96.3L20.1,96.3z M17.2,96.3L17.2,96.3h0.5h0h0h0.5h0v0v-1.1h0.5h0v0v-1.1h0.5h0v0v-1.1h0.5h0v0V92h0.5h0v0v-1.1v0
			h0h-0.5v-1.1v0h0h-0.5v-1.1v0h0h-0.5v-1.1v0h0h-0.5v-1.1v0h0h-0.5v-1.1v0h0h-0.5h0v0v1.1h-0.5h0v0v1.1h-0.5h0v0v1.1h-0.5h0v0v1.1
			h-0.5h0v0v1.1h-0.5h0v0V92v0h0h0.5V93v0h0h0.5v1.1v0h0h0.5v1.1v0h0h0.5v1.1v0h0H17.2L17.2,96.3L17.2,96.3z M17.7,88.7v1.1v0h0h0.5
			v1.1v0h0h0.5v1h-0.5h0v0V93h-0.5h0v0v1.1h-0.4V93v0h0h-0.5V92v0h0h-0.5v-1h0.5h0v0v-1.1h0.5h0v0v-1.1H17.7L17.7,88.7z M15.3,87.6
			h-0.5h0v0v1.1v0h0h0.5h0v0L15.3,87.6L15.3,87.6L15.3,87.6L15.3,87.6z M17.7,90.8h-0.5h0v0V92v0h0h0.5h0v0L17.7,90.8L17.7,90.8
			L17.7,90.8L17.7,90.8z M15.3,94.1h-0.5h0v0v1.1v0h0h0.5h0v0L15.3,94.1L15.3,94.1L15.3,94.1L15.3,94.1z M22.5,63.6H22v-1.1h0.5
			V63.6L22.5,63.6z M18.2,63.6h0.5v-1.1h-0.5V63.6L18.2,63.6z M20.1,57h0.5v1.1h-0.5V57L20.1,57z M25.4,54.8h0.5v-1.1h-0.5V54.8
			L25.4,54.8z M15.3,54.8h-0.5v-1.1h0.5V54.8L15.3,54.8z M25.4,46.1h0.5v1.1h-0.5V46.1L25.4,46.1z M15.3,46.1h-0.5v1.1h0.5V46.1
			L15.3,46.1z M20.1,46.1V45h0.5v1.1v1.1h-0.5V46.1L20.1,46.1z M18.6,39.5h0.5h0v0v1.1h0.5h0v0v1.1h0.5v1.1h-0.5v1.1h-0.5V45h-0.5
			v-1.1h-0.5v-1.1h-0.5v-1.1h0.5v-1.1v0h0h0.5L18.6,39.5L18.6,39.5L18.6,39.5L18.6,39.5z M24.9,41.7h-0.4h0v1.1h0.5L24.9,41.7
			L24.9,41.7L24.9,41.7z M24.9,40.6h0.5h0v0v1.1h0.5v1.1h-0.5v1.1h-0.5V45h-0.5v-1.1h-0.5v-1.1h-0.5v-1.1h0.5v-1.1v0h0h0.5v-1.1v0h0
			h0.5h0v0V40.6L24.9,40.6z M22,41.7h-0.4h0v1.1H22L22,41.7L22,41.7L22,41.7z M22,40.6h0.5h0v0v1.1H23v1.1h-0.5v1.1H22V45h-0.5v-1.1
			h-0.5v-1.1h-0.5v-1.1H21v-1.1v0h0h0.5v-1.1v0h0H22h0v0V40.6L22,40.6z M16.2,41.7h-0.4h0v1.1h0.5L16.2,41.7L16.2,41.7L16.2,41.7z
			 M16.3,40.6h0.5h0v0v1.1h0.5v1.1h-0.5v1.1h-0.5V45h-0.5v-1.1h-0.5v-1.1h-0.5v-1.1h0.5v-1.1v0h0h0.5v-1.1v0h0h0.5h0v0V40.6
			L16.3,40.6z M19.1,41.7h-0.4h0v1.1h0.5L19.1,41.7L19.1,41.7L19.1,41.7z M25.9,38.5h-0.5h0v0v-1.1v0h0h0.5h0v0L25.9,38.5L25.9,38.5
			L25.9,38.5L25.9,38.5z M24.4,37.4v1.1v0h0H24v1.1v0h0h-0.5v1.1v0h0H23h0v0v-1.1h-0.5h0v0v-1.1H22h0v0v-1.1h-0.5h0v0v-1.1h-0.5h0v0
			v-1.1h-0.5h0v0v-1.1v0h0H21V33v0h0h0.5v-1.1v0h0H22v-1.1v0h0h0.5v-1.1v0h0H23h0h0h0.4h0h0h0.5h0v0v1.1h0.5h0v0v1.1h0.5h0v0V33h0.5
			h0v0V34h0.5h0v0v1.1v0h0h-0.5v1.1v0h0h-0.5v1.1v0h0H24.4L24.4,37.4z M23,37.3h0.4v-1.1v0h0h0.5v-1.1v0h0h0.5v-1h-0.5h0v0V33h-0.5
			h0v0v-1.1H23V33v0h0h-0.5v1.1v0h0H22v1h0.5h0v0v1.1H23h0v0V37.3L23,37.3z M23.5,35.2H23h0v0v-1.1v0h0h0.5h0v0L23.5,35.2L23.5,35.2
			L23.5,35.2L23.5,35.2z M25.9,31.9h-0.5h0v0v-1.1v0h0h0.5h0v0L25.9,31.9L25.9,31.9L25.9,31.9L25.9,31.9z M20.6,39.6h-0.5h0v0v-1.1
			v0v0v-1.1v0h0h0.5h0v0v1.1v0v0L20.6,39.6L20.6,39.6L20.6,39.6L20.6,39.6z M20.1,29.7h0.5h0v0v1.1v0v0v1.1v0h0h-0.5h0v0v-1.1v0v0
			L20.1,29.7L20.1,29.7L20.1,29.7L20.1,29.7z M17.2,29.7L17.2,29.7h0.5h0h0h0.5h0v0v1.1h0.5h0v0v1.1h0.5h0v0V33h0.5h0v0V34h0.5h0v0
			v1.1v0h0h-0.5v1.1v0h0h-0.5v1.1v0h0h-0.5v1.1v0h0h-0.5v1.1v0h0h-0.5v1.1v0h0h-0.5h0v0v-1.1h-0.5h0v0v-1.1h-0.5h0v0v-1.1h-0.5h0v0
			v-1.1h-0.5h0v0v-1.1h-0.5h0v0v-1.1v0h0h0.5V33v0h0h0.5v-1.1v0h0h0.5v-1.1v0h0h0.5v-1.1v0h0H17.2L17.2,29.7L17.2,29.7z M17.7,37.3
			v-1.1v0h0h0.5v-1.1v0h0h0.5v-1h-0.5h0v0V33h-0.5h0v0v-1.1h-0.4V33v0h0h-0.5v1.1v0h0h-0.5v1h0.5h0v0v1.1h0.5h0v0v1.1H17.7
			L17.7,37.3z M15.3,38.5h-0.5h0v0v-1.1v0h0h0.5h0v0L15.3,38.5L15.3,38.5L15.3,38.5L15.3,38.5z M17.7,35.2h-0.5h0v0v-1.1v0h0h0.5h0
			v0L17.7,35.2L17.7,35.2L17.7,35.2L17.7,35.2z M15.3,31.9h-0.5h0v0v-1.1v0h0h0.5h0v0L15.3,31.9L15.3,31.9L15.3,31.9L15.3,31.9z"/>
	</g>
	<path opacity="0.35" fill="#FFFFFF" d="M13,29.7v25.5C26.2,62.6,43.7,67,63,67c19.3,0,36.8-4.5,50-11.8V29.7H13z"/>
</g>
</svg>
