<?xml version="1.0" encoding="utf-8"?>
<!-- Generator: Adobe Illustrator 24.3.0, SVG Export Plug-In . SVG Version: 6.00 Build 0)  -->
<svg version="1.1" id="Layer_1" xmlns="http://www.w3.org/2000/svg" xmlns:xlink="http://www.w3.org/1999/xlink" x="0px" y="0px"
	 viewBox="0 0 126 126" enable-background="new 0 0 126 126" xml:space="preserve">
<g>
	<g>
		<polygon fill-rule="evenodd" clip-rule="evenodd" fill="#FF1612" points="13,96.3 113,96.3 113,29.7 13,29.7 13,96.3 		"/>
		<polygon fill-rule="evenodd" clip-rule="evenodd" fill="#0437A0" points="13,91.6 113,91.6 113,34.4 13,34.4 13,91.6 		"/>
		<g>
			<path fill-rule="evenodd" clip-rule="evenodd" fill="#FFFFFF" d="M63,36.8c14.5,0,26.2,11.7,26.2,26.2
				c0,14.5-11.7,26.2-26.2,26.2c-14.5,0-26.2-11.7-26.2-26.2C36.8,48.5,48.5,36.8,63,36.8L63,36.8z"/>
			
				<path fill-rule="evenodd" clip-rule="evenodd" fill="#289400" stroke="#0E6F0E" stroke-width="4.184400e-02" stroke-miterlimit="2.4142" d="
				M47.9,72c0,0,0.6-0.2,1,0l0-1.1l1.4,1.5l2.1-2.1l0.2,0.7l0.7-0.9l-0.2,0.8c0,0,0.4,0.3,0.4,0.8l2.4-0.9l0.6-1.1l0.1,0.7l1.5-1.6
				l10.2,0.8l1.2,1.3l1.7-0.5l1.3,1c0,0,0.1-0.3,0-0.5c0,0,0.6,0.1,0.7,0.5c0,0,0.2-0.8,0.7-0.2c0.5,0.6,1.8,0.5,2,0.7
				c0.3,0.2,0.4,0.3,0.4,0.5c0,0,0.4-0.1,0.6-0.1c0,0-0.2,0.3-0.2,0.5c0,0.3-0.4,0.4-0.4,0.4s0.2,0.1,0.5,0.2c0.3,0-0.1,0.3-0.3,0.5
				c-0.2,0.1-0.5,0.3-0.2,0.6c0,0-0.4,0.1-0.5-0.1c0,0-0.2,0.2-0.2,0.5c0,0-0.5-0.1-0.7-0.3c0,0-0.2,0.1-0.1,0.3
				c0,0-0.9-0.1-1.2-0.5c0,0-0.4,0.1-0.4,0.3c0,0-1-1-0.8-0.3c0,0-0.9-0.6-0.8-0.1L71,74.2l-0.3,0.4L70,74.2l-0.2,0.3
				c0,0-0.7-0.7-0.6,0.2c0,0-1.1-0.3-1.1-0.2c0,0.2,0.1,0.3,0.1,0.3s-0.7-0.2-0.8-0.3l0,0.3c0,0-0.5,0-0.6-0.2l-0.3,0.5l-0.5,0
				l-0.1,0.4c0,0-0.9-0.3-1-0.1c-0.1,0.3,0.1,0.4,0.1,0.4s-0.7-0.1-0.8-0.1c-0.1,0-0.1,0.3-0.1,0.3s-0.9-0.2-1.1-0.2
				c-0.2,0.1-0.4,0.4-0.7,0.4c0,0,0.1-0.2-0.2-0.5c-0.2-0.2-0.4,0.1-0.5,0c-0.2,0-0.9,0.2-0.9,0.2s-0.1-0.6-0.7-0.2
				c0,0-0.4-0.9-0.7-0.4c0,0,0.1-0.4-0.2-0.4c-0.2,0-0.6,0-0.7-0.3c0,0-0.5,0-0.8,0c-0.3,0,0.1-0.2,0.1-0.2s-1.1,0.3-1.3,0.1
				c-0.3-0.2,0.3-0.3,0.3-0.3s-0.8-0.3-1.3-0.3c-0.4,0-1.2,0.3-1.5,0c0,0-0.4,0.4-0.5,0.2c-0.1-0.2-0.1-0.4-0.1-0.4
				s-0.6,0.1-0.7,0.4c0,0-0.1-0.2-0.2-0.4c0,0-0.2,0.4-0.5,0.6c0,0,0-0.1,0-0.2c0,0-0.2,0.4-0.5,0.5c0,0-0.1-0.2,0-0.3
				c0,0-1,0.5-1.5,0.5c0,0,0-0.1,0.1-0.3c0,0-1.2,0-1.4-0.2c0,0,0.2-0.1,0.6-0.1c0,0-0.5-0.3-1-0.2c0,0-0.1-0.3,0.3-0.4
				c0,0-0.3-0.4-0.8-0.5c0,0,0.2-0.2,0.6-0.1C48.4,73,48.3,72.5,47.9,72L47.9,72z"/>
			<path fill-rule="evenodd" clip-rule="evenodd" fill="#5AC800" d="M59.2,74.6l0.4-0.5c0,0,0.3,0.2,0.4,0.7l0.2-0.5
				c0,0,0.4,0.2,0.5,0.5c0,0,0.3-0.8,0.5,0.2c0,0,0.4-0.7,0.8,0.3c0,0,0.5-0.6,0.6,0.3c0,0,0.5-0.2,0.7-0.3c0.2-0.1,0.5,0.3,0.5,0.3
				s0.3-0.4,0.4-0.6c0.1-0.1,0.4,0.2,0.4,0.2s0.1-1,0.5-0.3c0,0,0.2-0.8,0.5-0.2c0,0,0.2-0.4,0.4-0.4C65,76.4,61.1,75.9,59.2,74.6
				L59.2,74.6z"/>
			<path fill="#0E6F0E" d="M59.2,74.6l0.4-0.5l0,0l0,0c0,0,0.3,0.2,0.4,0.6l0.1-0.4l0,0l0,0c0,0,0.3,0.2,0.5,0.4
				c0.1-0.2,0.4-0.7,0.5,0.2c0.1-0.2,0.4-0.5,0.8,0.3c0.1-0.1,0.5-0.5,0.6,0.4c0.1,0,0.5-0.2,0.7-0.3c0.2-0.1,0.4,0.2,0.5,0.2
				c0.1-0.1,0.3-0.4,0.4-0.5c0.1-0.1,0.3,0.1,0.4,0.1c0-0.2,0.2-0.9,0.5-0.3c0.1-0.2,0.2-0.7,0.5-0.2c0.1-0.1,0.2-0.4,0.4-0.4l0,0
				c-0.2,0.1-0.4,0.4-0.4,0.4l0,0l0,0c-0.2-0.6-0.4,0.2-0.4,0.2l0,0.1l0-0.1c-0.3-0.6-0.4,0.3-0.4,0.3l0,0l0,0c0,0-0.3-0.3-0.3-0.2
				c-0.1,0.1-0.4,0.6-0.4,0.6l0,0l0,0c0,0-0.3-0.3-0.5-0.3c-0.2,0.1-0.7,0.3-0.7,0.3l0,0l0,0c-0.1-0.9-0.6-0.3-0.6-0.3l0,0l0,0
				c-0.4-1-0.7-0.3-0.7-0.3l0,0.1l0-0.1c-0.1-0.9-0.4-0.2-0.4-0.2l0,0.1l0-0.1c-0.1-0.2-0.4-0.4-0.4-0.5L60,74.8l0,0.1l0-0.1
				c-0.1-0.3-0.3-0.6-0.4-0.6L59.2,74.6L59.2,74.6L59.2,74.6z"/>
			
				<path fill-rule="evenodd" clip-rule="evenodd" fill="#730000" stroke="#000000" stroke-width="4.184400e-02" stroke-miterlimit="2.4142" d="
				M61.8,53.9c0,0-0.5-1.1-1-1.4c-0.4-0.3-0.8-0.2-1.3-0.1c-0.5,0.1-2,0.1-2.2-0.9c-0.2-1,0.8-0.2,0.8-0.2s0.1,0.8,1.2,0.7
				c1.1-0.1,0.9-0.5,0.8-1c-0.1-0.6,0.6-0.1,0.6-0.1s-0.4,0.9,0.2,1.3c0.5,0.4,0.7,0.5,1,0.2c0.3-0.3,0.9-0.9,1.1-1.2
				c0.2-0.4,0.6-0.9,0.7-1.1c0.1-0.2,0.1-0.8,0.1-1.1c0-0.4,0.2,0.1,0.2,0.1l0,0.7l0.6-0.6l0,0.3c0,0-0.5,0.4-1.2,1.4
				c-0.6,1-1.1,1.4-1.1,1.5c0,0.2-0.3,0.3-0.4,0.6c-0.1,0.2,0.3,1.3,0.3,1.3L61.8,53.9L61.8,53.9z"/>
			
				<path fill-rule="evenodd" clip-rule="evenodd" fill="#730000" stroke="#000000" stroke-width="4.184400e-02" stroke-miterlimit="2.4142" d="
				M55.8,48.3c0.1,0.2,0.2,0.9,0.8,1.3c0.6,0.4,0.1-0.3-0.1-0.5c-0.2-0.2-0.4-0.6-0.4-0.8C56,48.2,55.8,48.3,55.8,48.3L55.8,48.3z"
				/>
			
				<path fill-rule="evenodd" clip-rule="evenodd" fill="#730000" stroke="#000000" stroke-width="4.184400e-02" stroke-miterlimit="2.4142" d="
				M57.1,48c0,0,0,0.8-0.1,1.4c-0.1,0.5,0.4-0.2,0.3-1.1C57.3,47.3,57.1,48,57.1,48L57.1,48z"/>
			
				<path fill-rule="evenodd" clip-rule="evenodd" fill="#730000" stroke="#000000" stroke-width="4.184400e-02" stroke-miterlimit="2.4142" d="
				M64.3,45.8c0,0.3-0.1,1.6,0.2,2.2c0.3,0.6,0.2-0.5,0.3-0.7c0.1-0.1,0.7-0.3,1-0.5l-0.1-0.2c0,0-1.1,0.8-1.2,0.3
				c-0.1-0.5,0-0.8,0-0.8L64.3,45.8L64.3,45.8z"/>
			
				<path fill-rule="evenodd" clip-rule="evenodd" fill="#730000" stroke="#000000" stroke-width="4.184400e-02" stroke-miterlimit="2.4142" d="
				M67.1,46.4C67.1,46.4,67.1,46.5,67.1,46.4c0.1,0.1,0.3,0.5,0.3,1.2l0.2-0.3c0,0,0-0.6-0.3-1L67.1,46.4L67.1,46.4z"/>
			
				<path fill-rule="evenodd" clip-rule="evenodd" fill="#730000" stroke="#000000" stroke-width="4.184400e-02" stroke-miterlimit="2.4142" d="
				M65.8,51.1c0,0,0.1-0.4-0.1-0.9C65.6,49.7,66,50,66,50s0.1,0.7,0,1C65.9,51.3,65.8,51.1,65.8,51.1L65.8,51.1z"/>
			
				<polygon fill-rule="evenodd" clip-rule="evenodd" fill="#730000" stroke="#000000" stroke-width="4.184400e-02" stroke-miterlimit="2.4142" points="
				67,51.8 67,50.5 67.3,50.7 67.3,51.9 67,51.8 			"/>
			
				<polygon fill-rule="evenodd" clip-rule="evenodd" fill="#730000" stroke="#000000" stroke-width="4.184400e-02" stroke-miterlimit="2.4142" points="
				67.6,51.7 68.3,51 69.9,49.8 70,50.1 67.8,51.8 67.6,51.7 			"/>
			
				<path fill-rule="evenodd" clip-rule="evenodd" fill="#730000" stroke="#000000" stroke-width="4.184400e-02" stroke-miterlimit="2.4142" d="
				M63.4,59c0,0,0.1-0.9,0.2-1.7c0.1-0.8,0.1-2.3,0.1-2.3s2.3-0.9,3.1-1.5c0.8-0.7-0.6-0.3-0.6-0.3s-0.7,0.6-1,0.7
				C65,54,64.8,53.8,65,53.4c0.2-0.4-0.4-0.5-0.4-0.5s0.1,0.9-0.3,1.2c-0.4,0.3-0.7,0.6-0.7,0.2c0-0.4,0-1.5,0-1.5s-0.4-0.7-0.5-0.9
				c-0.1-0.2-0.6-1-0.7-1.5c-0.1-0.4-0.2-1.4-0.1-1.8c0-0.4,0.2-0.8,0.5-1.2c0.3-0.4-0.3,0.2-0.4,0.3c-0.1,0.1-0.2,0.1-0.1-0.2
				c0.1-0.2-0.1-0.4-0.1-0.4s-0.3,0.1-0.2,0.5c0,0.4,0.1,1,0,1.2c-0.2,0.2-0.3,0.4-0.7,0c-0.4-0.4-0.6-0.8-0.6-1.1
				c0-0.3,0-1.1,0-1.1l-0.3,0.2c0,0,0.1,0.7-0.1,0.7c-0.2,0.1-0.9-0.4-0.9-0.4l-0.1,0.2c0,0,0.7,0.2,0.9,0.4c0.2,0.1,0.4,0.5,0.7,1
				c0.3,0.4,0.5,0.7,1,0.7c0,0,0.1,1,0.4,1.7c0.3,0.8,0.5,1.4,0.6,2.1c0.1,0.8,0.1,2.5,0.1,3c0,0.6-0.3,0.7-0.4,0.4
				c-0.1-0.2-0.2-0.5-0.2-1c0.1-0.5,0.1-1.2,0.1-1.2s-0.6,1.3-0.8,1.5l-0.9-1.1l-0.3,0.4c0,0,1.1,1.1,1.5,1.6c0.4,0.5,0.2,1.3,0,1.7
				C61.9,59,63.4,59,63.4,59L63.4,59z"/>
			
				<polygon fill-rule="evenodd" clip-rule="evenodd" fill="#289400" stroke="#0D3E0D" stroke-width="4.184400e-02" stroke-miterlimit="2.4142" points="
				62,51.3 61.7,50.7 61.9,50.4 61.6,50.4 61.8,50.1 61.6,50.1 61.7,50 61.3,49.9 61.5,49.5 60.5,49.2 60.7,49 60.5,48.8 59.8,48.8 
				59.6,48.5 59.2,48.8 59,48.7 58.7,48.9 58.4,48.5 57.8,49.2 57.4,48.8 57.1,49.2 56.7,49.1 56.2,49.5 55.7,49.5 55.6,49.8 
				54.9,50 55.2,50.4 54.9,50.4 54.5,50.9 54,52.3 56.4,51.4 57.2,51.7 58.3,51.5 58.4,51.6 58.7,51.4 58.9,51.6 59.3,51.3 
				59.5,51.4 59.7,51.1 60,51 60.2,51.2 60.5,50.9 60.8,51.2 61.2,51.4 61.4,51 62,51.3 			"/>
			
				<path fill-rule="evenodd" clip-rule="evenodd" fill="#289400" stroke="#0D3E0D" stroke-width="4.184400e-02" stroke-miterlimit="2.4142" d="
				M54.5,49l0.2-0.4l-0.4,0.3l0.2-0.7l-0.3,0l0.2-0.1l-0.3-0.1l0.4-0.1l-0.1-0.1l0.2-0.1l-0.2-0.2c0,0,0.3-0.1,0.5-0.2
				c0,0-0.2-0.1-0.2-0.1c0,0,0.2-0.1,0.4-0.1c0,0,0-0.3-0.1-0.4c0,0,0.2-0.1,0.5,0.1c0,0,0-0.1-0.1-0.2c0,0,0.2-0.1,0.3,0
				c0,0,0-0.2,0.1-0.3c0,0,0.1,0.2,0.3,0.1c0.2,0,0.3-0.4,0.6-0.5c0,0,0,0.2,0.2,0.3c0,0,0.1-0.1,0.3-0.1c0.2,0,0.2,0.1,0.2,0.1
				l0.2,0c0,0,0,0.2,0,0.3c0,0.1,0,0.2,0,0.2s0.5,0.1,0.7,0.3c0,0-0.3,0-0.4,0c0,0,0.1,0,0.2,0.2c0,0-0.2-0.1-0.4,0.1
				c0,0,0.6,0.2,0.3,0.7c0,0-0.3-0.4-0.6-0.1c0,0,0.1,0.1,0,0.4c0,0-0.1-0.1-0.2-0.2c0,0,0,0.3,0,0.4c0,0-0.3-0.4-0.8-0.4
				c0,0,0,0.3-0.1,0.4c0,0-0.2-0.1-0.3,0.3c0,0-0.1-0.2-0.3-0.1c0,0-0.3-0.2-0.4-0.2l0,0.2l-0.3-0.2c0,0-0.1,0.2-0.2,0.4l0-0.5
				C55.1,48.4,54.9,48.8,54.5,49L54.5,49z"/>
			
				<path fill-rule="evenodd" clip-rule="evenodd" fill="#289400" stroke="#0D3E0D" stroke-width="4.184400e-02" stroke-miterlimit="2.4142" d="
				M59.1,45.5l0.4-0.2l0.1-0.4l0.7,0.1l0.2-0.3l0.5,0.2l0.5-0.3l0.4,0.4l0.5,0l0,0.5l0.6,0.2l-0.1,0.4c0,0,0.3-0.1,0.6-0.1
				c0,0,0,0.2,0,0.5c0,0,0.6,0.1,0.8,0.4L63.7,47c0,0,0.1,0.2,0.1,0.7c0,0-0.2-0.2-0.4-0.2c0,0-0.1,0.2-0.1,0.3L63,47.6l-0.2,0
				c0,0-0.1-0.2-0.2-0.1l0-0.2l-0.2,0.1l-0.2-0.1l0-0.3l-0.3,0.2l-0.1-0.3c0,0-0.1,0.1-0.1,0.2c0,0-0.1-0.2-0.2-0.3
				c0,0-0.1,0.1,0,0.2c0,0-0.3,0-0.3-0.3c0,0-0.2,0.2-0.3,0.2c-0.1,0.1-0.2-0.1-0.2-0.1l-0.3,0.4c0,0-0.1-0.1,0-0.2
				c0,0-0.1,0.1-0.2,0.3c0,0-0.1,0-0.2-0.1c0,0-0.1,0.2-0.2,0.3c-0.1,0-0.2-0.1-0.2,0c-0.1,0-0.2,0.2-0.2,0.2c0,0,0-0.2,0-0.2
				l-0.2,0.2l-0.1-0.2c0,0-0.1,0.2-0.2,0.2c-0.1,0,0-0.2,0-0.2s-0.1,0.1-0.2,0.3c0,0,0-0.1,0-0.2l-0.1,0c0,0,0-0.2,0.2-0.4l-0.1-0.2
				c0,0,0.1,0,0.1-0.1c0,0-0.1-0.1-0.3-0.1c0,0,0-0.2,0.3-0.4c0,0,0-0.3,0-0.4c0.1-0.1,0.5-0.2,0.5-0.2S59.3,45.6,59.1,45.5
				L59.1,45.5z"/>
			
				<path fill-rule="evenodd" clip-rule="evenodd" fill="#289400" stroke="#0D3E0D" stroke-width="4.184400e-02" stroke-miterlimit="2.4142" d="
				M62.8,45.6c0,0-0.2-0.7,0.9-0.8l-0.1-0.3l0.7,0.1l0.1-0.3l0.5,0.3c0,0,0.4-0.2,0.8-0.1l-0.1,0.3c0,0,0.6,0,0.8,0.2
				c0,0-0.1,0.1-0.2,0.2c0,0,0.9,0.1,1.1,0.4c0.2,0.3,0,0.3,0,0.3l0.4,0.6c0,0-0.6,0-0.7,0.3c0,0-0.1-0.1-0.2-0.2
				c0,0-0.1,0.3-0.1,0.4c0,0-0.4-0.2-0.5-0.3c0,0-0.1,0.1-0.1,0.3c0,0-0.4-0.4-0.6-0.4c-0.2,0-0.2,0.2-0.2,0.2l-0.4-0.5l-0.4,0.2
				c0,0-0.2-0.3-0.4-0.1l-0.4-0.4c0,0-0.4,0.4-0.4,0.2C63.3,45.5,63.2,45.6,62.8,45.6L62.8,45.6z"/>
			
				<path fill-rule="evenodd" clip-rule="evenodd" fill="#289400" stroke="#0D3E0D" stroke-width="4.184400e-02" stroke-miterlimit="2.4142" d="
				M63.8,48.9C63.7,49,63.6,49,63.5,49c0,0-0.3,0.3-0.3,0.1c0,0-0.4,0.4-0.4,0.2c0-0.2,0.3-0.3,0.3-0.3s-0.3-0.1,0-0.2
				c0,0-0.6-0.2,0-0.4c0,0-0.5-0.5,0.3-0.2c0,0-0.2-0.3,0.3-0.2c0,0-0.2-0.2,0.3-0.1c0,0-0.2-0.3,0.3-0.1c0,0-0.4-0.3,0.2-0.2
				c0,0,0-0.3,0.2-0.3c0.2,0,0.1,0.4,0.1,0.4s0.3-0.5,0.3-0.1c0,0,0.1-0.1,0.1-0.1c0,0,0-0.2,0.1-0.3c0,0,0,0.2,0.1,0.3l0-0.2
				l0.2,0.2l0-0.2c0,0,0.2,0.1,0.2,0.2c0,0,0.3-0.3,0.4-0.2c0.1,0.1,0.2,0.2,0.3,0.3c0.1,0,0.2,0,0.2,0l-0.1-0.2c0,0,0.2,0,0.3,0.1
				c0,0,0-0.2,0.2-0.2c0,0-0.2-0.4,0.3-0.2c0,0,0.1-0.3,0.2-0.4c0.1-0.1,0.3-0.5,0.3-0.5l-0.1,0.5l0.2-0.3l0.1,0.3l0.3-0.3l0,0.2
				c0,0,0.1-0.2,0.3-0.3c0,0,0.1,0.1,0.1,0.5c0,0,0.3,0,0.4,0.1c0,0-0.3-0.5,0.3,0c0,0,0.2-0.5,0.3,0.2c0,0,0.2-0.2,0.6,0l-0.2,0.1
				c0,0,0.4,0,0.6,0.2c0,0-0.2,0-0.2,0.2c0,0,0.3,0,0.4,0.3L71.2,48c0,0,0.3,0,0.3,0.4c0,0,0.3,0,0.5,0.3c0,0-0.1,0.1-0.4,0.3
				c0,0,0.2,0.1,0.4,0.3c0,0-0.3,0.2-0.4,0.6c0,0.5-0.5,0.7-0.5,0.7s-0.3-0.4-0.5-0.4c0,0,0,0.2-0.2,0.3c0,0-0.1-0.3-0.5-0.5
				c0,0,0,0.2-0.2,0.2c-0.3-0.1-0.7-0.5-0.7-0.5S69,49.9,69,50.1c0,0.2-2.8-0.3-3.3,0.4c0,0-0.3-0.2-0.3-0.3c0,0-0.2,0.1-0.3,0.2
				c0,0,0-0.2,0-0.4c0,0-0.2,0.1-0.2-0.4c0,0-0.1,0-0.3-0.1c-0.1-0.1-0.4-0.3-0.4-0.3S64.2,49.4,63.8,48.9L63.8,48.9z"/>
			
				<path fill-rule="evenodd" clip-rule="evenodd" fill="#289400" stroke="#0D3E0D" stroke-width="4.184400e-02" stroke-miterlimit="2.4142" d="
				M58.1,56.9l0-0.4l-0.4,0.1l-0.2-0.4L56.8,56l0.2-0.3l-0.4-0.3l0.5-0.4l-0.2-0.2l0.6,0.1l-0.2-0.2l0.7-0.3l-0.2-0.2l0.4-0.1l0-0.3
				l0.4,0.2l-0.1-0.3l0.6-0.1l0-0.2l0.4,0.1l-0.1-0.2l0.6,0.2l0-0.2l0.6,0.2c0,0-0.2-0.5,0.4,0c0,0,0-0.5,0.5,0.1
				c0,0,0.2-0.4,0.8,0.3c0,0,0.2-0.2,0.7,0.5l-0.2,0.1c0,0,0.1,0.3-0.1,0.5c0,0,0.2,0.6-0.2,0.2L62,55.6l0-0.5l-0.2,0.3l-0.2-0.3
				l-0.2,0.2l-0.3-0.2l0,0.4l-0.5-0.1L60.3,56l-0.4-0.5L59.6,56l-0.2-0.2l0,0.4l-0.2,0c0,0,0.2,1-0.5,0.2L58.1,56.9L58.1,56.9z"/>
			
				<path fill-rule="evenodd" clip-rule="evenodd" fill="#289400" stroke="#0D3E0D" stroke-width="4.184400e-02" stroke-miterlimit="2.4142" d="
				M69.3,54.7c0,0,0-0.5,0.4-0.3c0.4,0.3,0.3-0.3,0.3-0.7c0,0,0.8-0.3,0.2-0.5c-0.6-0.2-0.7-0.4-0.7-0.5c0-0.1,0.1-0.3,0-0.3
				c0,0-0.5,0-0.6-0.1l0.2-0.1c0,0-0.6-0.2-0.6-0.2c0,0,0.1-0.2,0.1-0.2l-0.4,0c0,0,0-0.4-0.8-0.1c0,0-0.4-0.1-0.9-0.1l0.3-0.3
				c0,0-0.3-0.2-0.7-0.1c0,0,0-0.6-0.6,0L64.8,51l-0.1,0.3l-0.9,0l-0.6,0.6c0,0,0,0.2,0,0.2c0,0.1,0.2,0.1,0.2,0.1l-0.1,0.6l0.3,0
				l-0.1,0.6l0.2-0.2l0.1,0.6l0.3-0.6l0.3,0.4l0.2-0.4l0.2,0.4l0.2-0.4l0.2,0.4l0.4-0.5l0.3,0.2l0.1-0.4l0.1,0.5l0.5,0l-0.2,0.2
				l0.5,0l0.4,0.5l0.3-0.2l0.4,0.4l0-0.3l0.5,0.5C68.5,54.3,68.4,53.4,69.3,54.7L69.3,54.7z"/>
			
				<path fill-rule="evenodd" clip-rule="evenodd" fill="#289400" stroke="#0D3E0D" stroke-width="4.184400e-02" stroke-miterlimit="2.4142" d="
				M64.3,56.5c0,0,0.4-0.2,0.8-0.7c0,0,0.1-0.1,0.3,0.4c0.2,0.5,0.3,0.5,0.3,0.5s0-0.5,0.3-0.2c0.2,0.3,0.6,0.7,0.6,0.7s0-0.9,0.6,0
				c0,0,0.2-0.2,0.3-0.5c0,0,0.3,0.1,0.7,0.1c0,0,0.1-0.2,0.1-0.5c0,0,0.1,0.3,0.3,0.3c0.1,0,0-0.6-0.1-0.7
				c-0.1-0.2-0.1-0.6-0.1-0.6l-0.5-0.1l-0.1-0.4c0,0-0.4,0.1-0.6,0.1l-0.1-0.3l-0.3,0l-0.2-0.2l-0.2,0.2l-0.3-0.4l-0.2,0.4l-0.3-0.4
				l-0.5,0.3l-0.4,0l-0.1,0.1l-0.3,0c0,0-0.3,0.2-0.3,0.3c0,0.1,0,0-0.1,0.3c-0.1,0.3,0,1,0,1S64.4,55.6,64.3,56.5L64.3,56.5z"/>
			<g>
				<defs>
					<path id="SVGID_1_" d="M63,58.3c2.1,0,4.3,0,6.4,0c0,5.6,0,2.4,0,8c0,2.9-1.2,5.1-2.7,6.6c-1.4,1.4-3,2-3.7,2.3
						c-0.7-0.2-2.3-0.9-3.7-2.3c-1.5-1.5-2.7-3.7-2.7-6.6c0-5.7,0-2.4,0-8C58.7,58.3,60.9,58.3,63,58.3L63,58.3z"/>
				</defs>
				<clipPath id="SVGID_2_">
					<use xlink:href="#SVGID_1_"  overflow="visible"/>
				</clipPath>
				<g clip-path="url(#SVGID_2_)">
					<g>
						
							<path fill-rule="evenodd" clip-rule="evenodd" fill="#FFFFFF" stroke="#000000" stroke-width="6.276600e-02" stroke-miterlimit="2.4142" d="
							M63,57.6v6.6l-6.3,5.6c0,0-0.9-6.7-0.5-11.8L63,57.6L63,57.6z"/>
						
							<path fill-rule="evenodd" clip-rule="evenodd" fill="#FFD83C" stroke="#000000" stroke-width="6.276600e-02" stroke-miterlimit="2.4142" d="
							M63,57.6v6.6l6.3,5.6c0,0,0.9-6.7,0.5-11.8L63,57.6L63,57.6z"/>
						
							<path fill-rule="evenodd" clip-rule="evenodd" fill="#9DD7FF" stroke="#000000" stroke-width="6.276600e-02" stroke-miterlimit="2.4142" d="
							M63,75.6c0,0-3.4-0.5-6.3-5.8l6.3-5.6l6.3,5.6C69.3,69.8,67,75.1,63,75.6L63,75.6z"/>
					</g>
					<g>
						
							<path fill-rule="evenodd" clip-rule="evenodd" fill="#730000" stroke="#000000" stroke-width="4.184400e-02" stroke-miterlimit="2.4142" d="
							M64.8,59.5c0,0,4.3,5,4.3,5.1c0.1,0.1,0,0.3-0.1,0.4c-0.1,0.1-0.3,0.1-0.3,0.1c0-0.1-4.3-5.2-4.3-5.2L64.8,59.5L64.8,59.5z"/>
						
							<path fill-rule="evenodd" clip-rule="evenodd" fill="#FFFFFF" stroke="#000000" stroke-width="4.184400e-02" stroke-miterlimit="2.4142" d="
							M63.4,60.6c0,0,0.6,0,0.9-0.3c0.3-0.3,0.3-0.5,0.8-0.6c0,0,0.4,0.5,0.6,0.7c0,0-0.1,0.3-0.5,0.6c-0.4,0.3-0.6,1-0.6,1
							S63.8,61.8,63.4,60.6L63.4,60.6z"/>
						<path fill-rule="evenodd" clip-rule="evenodd" fill="#7E4B7E" d="M63.8,60.7c0.1,0,0.5-0.2,0.5-0.3c0.1-0.1,0.1,0,0.1,0.1
							c0,0.1-0.1,0.1-0.1,0.2c0,0.1-0.1,0.1-0.1,0.2c0,0.1,0,0.1-0.1,0.1c-0.1,0.1-0.2,0-0.2-0.1c0-0.1-0.1-0.1-0.2-0.1
							C63.8,60.8,63.7,60.7,63.8,60.7L63.8,60.7z"/>
						<path fill-rule="evenodd" clip-rule="evenodd" fill="#7E4B7E" d="M64.7,60.1c0,0.1,0.5,0.6,0.5,0.6c0,0-0.1,0.1-0.1,0.1
							c0,0,0-0.1-0.1-0.1c-0.1,0-0.1,0.1-0.2,0.1c-0.1,0-0.2,0-0.2-0.1c0,0,0.1-0.2,0.1-0.3c0-0.1,0.1-0.1,0-0.2
							C64.6,60.3,64.5,60,64.7,60.1L64.7,60.1z"/>
						
							<path fill-rule="evenodd" clip-rule="evenodd" fill="#730000" stroke="#000000" stroke-width="4.184400e-02" stroke-miterlimit="2.4142" d="
							M64.5,63.1c0,0-0.2,0-0.3,0c-0.1,0-0.4,0.1-0.5,0.2c-0.1,0.1-0.1,0.3,0.1,0.2c0.2-0.1,0.3-0.1,0.4-0.1
							C64.4,63.4,64.5,63.1,64.5,63.1L64.5,63.1z"/>
						
							<path fill-rule="evenodd" clip-rule="evenodd" fill="#730000" stroke="#000000" stroke-width="4.184400e-02" stroke-miterlimit="2.4142" d="
							M68.1,59.7c0-0.1-0.1-0.3,0-0.4c0.1-0.1,0.1-0.2,0.1-0.3c0-0.1-0.2-0.1-0.3,0.1c-0.1,0.1-0.2,0.5,0,0.7
							C68,60.1,68.1,59.7,68.1,59.7L68.1,59.7z"/>
						
							<path fill-rule="evenodd" clip-rule="evenodd" fill="#FFFFFF" stroke="#000000" stroke-width="4.184400e-02" stroke-miterlimit="2.4142" d="
							M64.1,63.5l4-4l1,1c0,0-0.5-0.2-0.2,0.2c0,0-0.4-0.2-0.3,0.2c0,0-0.4-0.2-0.2,0.3c0,0-0.4-0.2-0.3,0.3c0,0-0.5-0.2-0.3,0.3
							c0,0-0.5-0.2-0.4,0.3c0,0-0.4-0.1-0.3,0.3c0,0-0.4-0.2-0.3,0.3c0,0-0.4-0.1-0.2,0.3c0,0-0.4-0.2-0.3,0.3c0,0-0.4-0.1-0.3,0.3
							c0,0-0.4-0.1-0.3,0.3c0,0-0.4-0.1-0.3,0.2c0,0-0.3-0.1-0.2,0.2c0,0-0.3-0.1-0.2,0.3L64.1,63.5L64.1,63.5z"/>
						<polygon fill-rule="evenodd" clip-rule="evenodd" fill="#7E4B7E" points="67.1,60.7 67.3,60.4 67.3,61.6 67.2,61.5 67.1,61.7 
							67.1,60.7 						"/>
						<polygon fill-rule="evenodd" clip-rule="evenodd" fill="#7E4B7E" points="67.6,60.2 67.9,59.9 67.8,60.9 67.8,61.2 67.8,61 
							67.6,61.2 67.6,60.2 						"/>
						<polygon fill-rule="evenodd" clip-rule="evenodd" fill="#7E4B7E" points="64.6,63.1 64.8,62.9 64.8,63.6 64.8,63.5 64.7,63.7 
							64.6,63.1 						"/>
					</g>
					<g>
						
							<path fill-rule="evenodd" clip-rule="evenodd" fill="#FFFFFF" stroke="#000000" stroke-width="4.184400e-02" stroke-linejoin="round" stroke-miterlimit="2.4142" d="
							M60.3,60.1c0,0,1.3,0.8,1.6,1.2c0,0,0.6-0.6,0.7-1c0,0-1.2-0.9-1.5-1.1C61.1,59.1,60.5,59.5,60.3,60.1L60.3,60.1z"/>
						
							<path fill-rule="evenodd" clip-rule="evenodd" fill="#CCB8C8" stroke="#000000" stroke-width="4.184400e-02" stroke-linejoin="round" stroke-miterlimit="2.4142" d="
							M60.3,60.1c0,0-0.1,0.1-0.2,0.3c0,0,1,0.7,1.8,0.9C61.6,60.9,60.3,60.1,60.3,60.1L60.3,60.1z"/>
						<path fill="#7E4B7E" d="M61.8,61C61.8,61,61.8,61,61.8,61c0.1,0.1,0.1,0.1,0.1,0c0,0,0.1-0.3,0.5-0.6c0,0,0-0.1,0-0.1
							c0,0-0.1,0-0.1,0C61.9,60.7,61.8,61,61.8,61L61.8,61z"/>
						
							<path fill-rule="evenodd" clip-rule="evenodd" fill="#B34B00" stroke="#000000" stroke-width="4.184400e-02" stroke-miterlimit="2.4142" d="
							M61.9,63.7c0,0-1.7-1.7-1.9-2c-0.2-0.3-0.1-0.7-0.4-1c-0.3-0.3-1.7-1.8-1.8-1.9c-0.1-0.1-0.3-0.1-0.4,0
							C57.2,59,57,59.1,57,59.2c-0.1,0.1-0.1,0.3,0,0.5c0.1,0.1,1.8,1.6,2,1.8c0.2,0.2,0.6,0.3,0.9,0.5c0.2,0.2,1.8,1.8,1.9,1.9
							c0.1,0.1,0.1,0.2,0,0.3c-0.1,0.1-0.1,0.3,0,0.3c0.1,0,0.2,0.1,0.5-0.2c0.3-0.4,0.3-0.5,0.2-0.5c-0.1,0-0.2,0-0.3,0
							C62,63.9,62,63.8,61.9,63.7L61.9,63.7z"/>
						
							<path fill-rule="evenodd" clip-rule="evenodd" fill="#730000" stroke="#000000" stroke-width="4.184400e-02" stroke-miterlimit="2.4142" d="
							M57.1,64.9l3.6-4.4c0,0,0.4-0.1,0.4,0.3l-3.4,4.6C57.7,65.4,57.3,65.3,57.1,64.9L57.1,64.9z"/>
						<path d="M57.7,59.5c0,0,1.6,1.6,1.8,1.8l0,0C59.2,61.1,57.6,59.6,57.7,59.5L57.7,59.5L57.7,59.5z"/>
					</g>
					<g>
						<g>
							<polygon points="61.7,67.2 61.7,70.9 61.7,70.9 61.7,67.2 61.7,67.2 							"/>
							<polygon points="63.2,66.8 63.2,70.9 63.1,70.9 63.1,66.8 63.2,66.8 							"/>
							<polygon points="64.6,67 64.6,70.9 64.5,70.9 64.5,67 64.6,67 							"/>
							
								<path fill-rule="evenodd" clip-rule="evenodd" fill="#FFFFFF" stroke="#000000" stroke-width="4.184400e-02" stroke-miterlimit="2.4142" d="
								M61.1,68.6c0,0-0.3,0.3-0.1,0.8c0,0,0.3-0.3,1-0.1c0,0-0.1-0.3,0-0.7C62.1,68.6,61.5,68.6,61.1,68.6L61.1,68.6z"/>
							
								<path fill-rule="evenodd" clip-rule="evenodd" fill="#FFFFFF" stroke="#000000" stroke-width="4.184400e-02" stroke-miterlimit="2.4142" d="
								M62.2,69.5c0,0-0.2,0.7,0,0.9c0,0-0.7-0.2-1.1,0.1c0,0-0.3-0.6,0-1.1L62.2,69.5L62.2,69.5z"/>
							<polygon points="61.2,68.3 59.4,70.1 59.3,70 61.1,68.3 61.2,68.3 							"/>
							<polygon points="60.8,70.6 61,68.4 61,68.5 60.8,70.6 60.8,70.6 							"/>
							
								<path fill-rule="evenodd" clip-rule="evenodd" fill="#FFFFFF" stroke="#000000" stroke-width="4.184400e-02" stroke-miterlimit="2.4142" d="
								M60.2,70.1l-0.6-0.3l1.4-1.3l-0.1,0.8C60.9,69.3,60.3,69.6,60.2,70.1L60.2,70.1z"/>
							
								<path fill-rule="evenodd" clip-rule="evenodd" fill="#FFFFFF" stroke="#000000" stroke-width="4.184400e-02" stroke-miterlimit="2.4142" d="
								M60.3,70.1c0,0,0.2-0.5,0.6-0.7l-0.1,0.9L60.3,70.1L60.3,70.1z"/>
							
								<path fill-rule="evenodd" clip-rule="evenodd" fill="#FFFFFF" stroke="#000000" stroke-width="4.184400e-02" stroke-miterlimit="2.4142" d="
								M62.4,67.7c0,0,0.5,0,1,0c0,0-0.1,0.3,0,0.7c0,0-0.7-0.2-1.1,0.1C62.3,68.5,62.2,68,62.4,67.7L62.4,67.7z"/>
							
								<path fill-rule="evenodd" clip-rule="evenodd" fill="#FFFFFF" stroke="#000000" stroke-width="4.184400e-02" stroke-miterlimit="2.4142" d="
								M63.6,68.5c0,0-0.9-0.1-1.3,0c0,0-0.2,0.3,0.1,0.8c0,0,0.3-0.3,1.2,0C63.6,69.3,63.4,68.9,63.6,68.5L63.6,68.5z"/>
							
								<path fill-rule="evenodd" clip-rule="evenodd" fill="#FFFFFF" stroke="#000000" stroke-width="4.184400e-02" stroke-miterlimit="2.4142" d="
								M62.3,69.4c0,0-0.3,0.4,0,1.1c0,0,0.2-0.3,1.4,0.1c0,0-0.3-0.4,0-1.1C63.7,69.4,62.9,69.3,62.3,69.4L62.3,69.4z"/>
							
								<path fill-rule="evenodd" clip-rule="evenodd" fill="#FFFFFF" stroke="#000000" stroke-width="4.184400e-02" stroke-miterlimit="2.4142" d="
								M64.8,68.5c0,0-0.5-0.1-1,0c0,0-0.2,0.3-0.1,0.8c0,0,0.3-0.2,1.1-0.1C64.8,69.2,64.7,68.7,64.8,68.5L64.8,68.5z"/>
							<path d="M64.8,68.3c0,0,0.4,0.4,0.4,0.9c0,0.5-0.5,0.8-0.5,0.8l0,0c0,0,0.4-0.2,0.4-0.8C65.1,68.7,64.7,68.3,64.8,68.3
								L64.8,68.3L64.8,68.3z"/>
							
								<path fill-rule="evenodd" clip-rule="evenodd" fill="#FF0018" stroke="#000000" stroke-width="4.184400e-02" stroke-miterlimit="2.4142" d="
								M65.5,68.6c0,0,0.1,0.5,0,0.8c0,0-0.2,0-0.4,0c0,0,0.1-0.3-0.1-0.6C65,68.8,65.2,68.6,65.5,68.6L65.5,68.6z"/>
							
								<polygon fill-rule="evenodd" clip-rule="evenodd" fill="#FF0018" stroke="#000000" stroke-width="4.184400e-02" stroke-miterlimit="2.4142" points="
								61.1,67.6 61.7,67.7 61.7,67.3 61.1,67.6 							"/>
							
								<polygon fill-rule="evenodd" clip-rule="evenodd" fill="#FF0018" stroke="#000000" stroke-width="4.184400e-02" stroke-miterlimit="2.4142" points="
								62.4,67.1 63.1,67.2 63.1,66.8 62.4,67.1 							"/>
							
								<polygon fill-rule="evenodd" clip-rule="evenodd" fill="#FF0018" stroke="#000000" stroke-width="4.184400e-02" stroke-miterlimit="2.4142" points="
								63.9,67.3 64.6,67.4 64.6,67 63.9,67.3 							"/>
							
								<path fill-rule="evenodd" clip-rule="evenodd" fill="#730000" stroke="#000000" stroke-width="4.184400e-02" stroke-miterlimit="2.4142" d="
								M59.3,70c1.3,0.6,4.1,1.3,6.4,0.4l-1,1l-3.5-0.1C61.2,71.4,59.8,70.7,59.3,70L59.3,70z"/>
							
								<path fill-rule="evenodd" clip-rule="evenodd" fill="#FFFFFF" stroke="#000000" stroke-width="4.184400e-02" stroke-miterlimit="2.4142" d="
								M62.2,67.9l-1,0c0,0-0.3,0.3,0,0.7c0,0,0.2-0.3,0.9,0C62.1,68.6,62,68.2,62.2,67.9L62.2,67.9z"/>
							
								<path fill-rule="evenodd" clip-rule="evenodd" fill="#FFFFFF" stroke="#000000" stroke-width="4.184400e-02" stroke-miterlimit="2.4142" d="
								M64.9,69.3c0,0-0.6-0.1-1,0c0,0-0.2,0.3,0,1c0,0,0.2-0.2,1,0C64.8,70.3,64.8,69.8,64.9,69.3L64.9,69.3z"/>
							
								<path fill-rule="evenodd" clip-rule="evenodd" fill="#FFFFFF" stroke="#000000" stroke-width="4.184400e-02" stroke-miterlimit="2.4142" d="
								M63.8,67.7c0,0,0.6-0.1,1,0c0,0-0.1,0.6,0,0.7c0,0-0.6-0.2-1.1,0.1C63.7,68.5,63.6,67.9,63.8,67.7L63.8,67.7z"/>
							
								<path fill-rule="evenodd" clip-rule="evenodd" fill="#FFFFFF" stroke="#000000" stroke-width="4.184400e-02" stroke-miterlimit="2.4142" d="
								M65.2,70.6c0,0,0.3-0.4,0.3-0.4s-0.5-0.5-0.4-0.8c0,0,0,0.4-0.4,0.7C64.7,70,64.8,70.3,65.2,70.6L65.2,70.6z"/>
						</g>
						<path fill-rule="evenodd" clip-rule="evenodd" fill="#006AC8" d="M57.6,71.3c0,0,0.5,0,0.8-0.3c0,0,0.4,0.4,1.1,0.1
							c0,0,0.3,0.3,0.8,0c0,0,0.6,0.3,1,0c0,0,0.5,0.3,1.1,0c0,0,0.4,0.3,0.9,0c0,0,0.2,0.4,1,0c0,0,0.4,0.3,0.8,0
							c0,0,0.3,0.3,0.7,0c0,0,0.3,0.4,0.9,0c0,0,0.2,0.4,0.7,0c0,0,0.4,0.2,0.7,0.2c-0.3,2.4-3.7,3.5-5.3,4.1
							C62.9,75.5,58.3,73.7,57.6,71.3L57.6,71.3z"/>
						<path d="M58,71.6c0,0,0.4,0,0.8-0.2l0,0l0,0c0,0,0.5,0.4,1.1,0.1l0,0l0,0c0,0,0.4,0.3,0.8,0l0,0l0,0c0,0,0.4,0.3,1.1,0l0,0
							l0,0c0,0,0.6,0.4,1,0l0,0l0,0c0,0,0.4,0.5,1.1,0l0,0l0,0c0,0,0.3,0.5,1,0l0,0l0,0c0,0,0.4,0.4,0.8,0l0,0l0,0
							c0,0,0.3,0.4,0.8,0l0,0l0,0c0,0,0.3,0.4,0.9,0l0,0l0,0c0,0,0.2,0.2,0.5,0.2l0,0c-0.3,0-0.4-0.2-0.5-0.2
							c-0.5,0.3-0.8,0.1-0.9,0c-0.4,0.4-0.7,0.1-0.8,0c-0.4,0.3-0.8,0.1-0.8,0c-0.7,0.4-1,0.1-1,0c-0.7,0.4-1,0.1-1.1,0
							c-0.4,0.3-0.9,0-1,0c-0.6,0.3-1,0-1.1,0c-0.4,0.2-0.8,0.1-0.9,0c-0.6,0.3-1,0-1.1-0.1C58.3,71.7,57.9,71.7,58,71.6L58,71.6
							L58,71.6z"/>
						
							<path fill-rule="evenodd" clip-rule="evenodd" fill="#5AC800" stroke="#000000" stroke-width="4.184400e-02" stroke-miterlimit="2.4142" d="
							M58.5,72.4c0,0,0.4,0.1,0.9-0.2c0,0,0.5,0.4,1.1,0.1c0,0,0.3,0.3,0.9,0c0,0,0.4,0.4,1.1,0c0,0,0.4,0.5,1,0.1
							c0,0,0.5,0.4,1.1,0c0,0,0.4,0.5,1.1,0c0,0,0.3,0.4,0.8,0c0,0,0.5,0.5,1.3,0c0,0-1.9,2.4-4.8,3.2
							C62.9,75.5,59.3,73.9,58.5,72.4L58.5,72.4z"/>
						
							<path fill-rule="evenodd" clip-rule="evenodd" fill="#FFD800" stroke="#000000" stroke-width="5.554300e-02" stroke-miterlimit="2.4142" d="
							M60.3,74c0.3-0.1,0.5-0.2,0.7-0.3c0,0,0.5,0.4,1.1,0.1c0,0,0.4,0.3,0.9,0c0,0,0.6,0.3,1.1,0c0,0,0.5,0.4,0.9,0.1
							c0,0,0.2,0.2,0.6,0.3c0,0-2.2,1.3-2.7,1.4C62.9,75.5,60.5,74.3,60.3,74L60.3,74z"/>
					</g>
				</g>
				
					<use xlink:href="#SVGID_1_"  overflow="visible" fill-rule="evenodd" clip-rule="evenodd" fill="none" stroke="#000000" stroke-width="0.1255" stroke-miterlimit="2.4142"/>
			</g>
			<path fill="#004B00" d="M67.6,51.6c0,0.1,0.1,0.1,0.1,0.2c0,0.1,0,0.1-0.1,0.2l0,0l0,0l-0.2-0.1l0,0.4l0,0l0,0L67,51.9l0,0.3l0,0
				l0,0l-0.4-0.1l-0.2,0.5l0.3,0.3l0.3-0.3l0,0l0,0l0.3,0.5l0.3-0.2l0,0l0,0l0.4,0.3l0.2-0.2l0,0l0,0l0.5,0.4l0.2-0.4l0,0l0,0
				l0.4,0.1l0.3-0.5l0,0l-0.3,0.5l0,0l0,0l-0.4-0.1l-0.2,0.4l0,0l0,0l-0.5-0.4l-0.2,0.2l0,0l0,0L67.5,53l-0.3,0.2l0,0l0,0l-0.3-0.5
				L66.7,53l0,0l0,0l-0.5-0.6L66,52.8l0,0l0,0l-0.3-0.2l-0.2,0.4l0,0l0.2-0.5l0,0l0,0l0.3,0.2l0.2-0.5l0,0l0,0l0.2,0.3l0.2-0.5l0,0
				l0,0l0.3,0.1l0-0.3l0,0l0,0l0.3,0.3l0-0.3v0l0,0l0.3,0.1c0.1-0.1,0.1-0.1,0-0.2C67.7,51.7,67.6,51.6,67.6,51.6L67.6,51.6
				L67.6,51.6z M57.9,51.4c0,0,0.2-0.2,0.1-0.5l0,0l0,0c0,0,0.3,0.1,0.4,0.3c0-0.1,0.1-0.3,0-0.5l0,0l0,0c0,0,0.4,0.2,0.5,0.4
				c0-0.1,0.1-0.3,0-0.6l0,0l0,0c0,0,0.5,0.2,0.6,0.2c0.1,0,0.2-0.3,0.2-0.3l0,0l0,0c0,0,0.3,0.1,0.4,0.3c0-0.1,0.1-0.3,0-0.5l0-0.1
				l0.1,0l0.4,0.2L60.4,50l0,0l0,0l0.4,0l0-0.4l0,0l0,0.4l0,0l0,0l-0.4,0l0.2,0.4l0,0l0,0l-0.4-0.2c0.1,0.2,0,0.5,0,0.5l0,0l0,0
				c-0.1-0.1-0.4-0.2-0.4-0.3c0,0.1-0.1,0.3-0.2,0.3c-0.1,0-0.5-0.1-0.6-0.2c0.1,0.3,0,0.6,0,0.6l0,0l0,0c-0.1-0.2-0.4-0.4-0.5-0.4
				c0,0.2,0,0.5,0,0.5l0,0l0,0c-0.1-0.1-0.3-0.2-0.3-0.3C58.1,51.2,57.9,51.4,57.9,51.4L57.9,51.4L57.9,51.4z M56.1,48.1
				c0,0,0-0.3,0-0.6l0,0l0,0c0,0,0.1,0.1,0.3,0.1l0,0c-0.1,0-0.2-0.1-0.2-0.1C56.2,47.8,56.2,48.1,56.1,48.1L56.1,48.1L56.1,48.1z
				 M57.3,47.4c0,0,0.3,0,0.5,0.2l0,0C57.5,47.4,57.3,47.4,57.3,47.4L57.3,47.4L57.3,47.4z M55.1,48.1c0,0.2,0,0.3-0.1,0.3
				c0,0,0,0,0,0c0,0.1,0,0.2,0,0.2l0,0c0,0,0-0.1,0-0.2c0,0,0,0,0,0C55,48.4,55.1,48.3,55.1,48.1L55.1,48.1L55.1,48.1z M59.5,46.8
				c0,0.1,0,0.1,0,0.2c0,0.1,0,0.2,0,0.3l0,0c0-0.1,0-0.2,0-0.3C59.5,46.9,59.5,46.9,59.5,46.8L59.5,46.8L59.5,46.8z M62.2,45.9
				c0,0.1-0.1,0.3-0.1,0.3l0,0l0,0c0,0-0.1-0.1-0.2-0.1c0,0-0.1,0.2-0.2,0.2l0,0l0,0c0,0-0.1-0.1-0.2-0.2c0,0-0.1,0.2-0.2,0.2l0,0
				l0,0c0,0-0.1-0.1-0.2-0.2c0,0.1-0.1,0.3-0.3,0.2c0,0.1,0.1,0.2-0.1,0.3c-0.1,0-0.2,0-0.2,0c0,0,0,0.1-0.1,0.3l0,0
				c0.1-0.3,0.1-0.3,0.1-0.3l0,0l0,0c0,0,0.1,0.1,0.2,0.1c0.1,0,0-0.3,0-0.3l0,0l0,0c0.3,0.1,0.3-0.2,0.3-0.2l0,0l0,0
				c0.1,0,0.2,0.1,0.2,0.2c0.1-0.1,0.1-0.2,0.1-0.2l0,0l0,0c0.1,0,0.2,0.2,0.2,0.2c0.1,0,0.2-0.2,0.2-0.2l0,0l0,0
				c0.1,0,0.2,0.1,0.2,0.1C62.1,46.1,62.2,46,62.2,45.9L62.2,45.9L62.2,45.9z M63.8,45.2c0,0,0,0.1,0,0.2c0,0.1,0,0.1,0,0.2l0,0
				c0-0.1,0-0.1,0-0.2C63.8,45.4,63.8,45.3,63.8,45.2L63.8,45.2L63.8,45.2z M64.7,45.8c0-0.1-0.1-0.3-0.1-0.3l0-0.1l0.1,0.1l0.6,0.5
				l0,0l-0.5-0.5C64.6,45.6,64.7,45.7,64.7,45.8L64.7,45.8L64.7,45.8z M65.8,46c0.1,0,0.1,0.1,0.2,0.1c0.1,0,0.1,0,0.2,0
				c0-0.1,0-0.3-0.1-0.4l0-0.1l0.1,0c0,0,0.7,0.4,0.7,0v0l0,0c0,0,0.3,0,0.6,0.1l0,0c-0.2-0.1-0.5-0.1-0.5-0.1
				c0,0.4-0.5,0.2-0.7,0.1c0.1,0.2,0.1,0.4,0.1,0.4l0,0l0,0c-0.1,0-0.1,0-0.2,0C65.9,46.1,65.8,46.1,65.8,46L65.8,46L65.8,46z
				 M69.7,48.9c0,0,0.1-0.4,0-0.6l0-0.1l0.1,0c0,0,0.8,0.6,0.5-0.2l0,0l0,0c0,0,0.8,0.4,0.3-0.1l0,0l0,0c0,0,0.1-0.2,0.3,0l0,0
				c-0.2-0.1-0.3,0-0.3,0c0.4,0.6-0.2,0.3-0.4,0.2c0.3,0.7-0.3,0.3-0.5,0.2C69.8,48.5,69.7,48.9,69.7,48.9L69.7,48.9L69.7,48.9z
				 M67.4,47.3c0,0,0.1,0.1,0.1,0.1c0.1,0,0.2-0.1,0.4,0l0,0l0,0c0,0,0,0.2-0.1,0.3c0.1,0,0.3,0,0.5,0l0,0l0,0c0,0,0,0.1-0.1,0.2
				c0.1,0,0.2,0.1,0.3,0.1l0,0l0,0c0,0-0.1,0.2-0.3,0.3c0.1,0,0.5,0.2,0.6,0.4l0,0l0,0c0,0-0.2,0.2-0.4,0.3c0,0,0,0.1,0.1,0.2l0,0h0
				c0,0-0.2,0-0.2,0c0,0.1,0.1,0.3,0.1,0.5l0,0c0-0.2-0.1-0.6-0.1-0.6l0,0l0,0c0.1,0,0.2,0,0.2,0c0-0.1-0.1-0.2-0.1-0.2l0,0l0,0
				c0.2-0.1,0.4-0.2,0.4-0.3c-0.2-0.2-0.6-0.3-0.6-0.3l0,0l0,0c0.2-0.1,0.3-0.2,0.3-0.3c-0.1-0.1-0.4-0.1-0.4-0.1l0,0l0,0
				c0,0,0.1-0.1,0.1-0.2c-0.2-0.1-0.5,0-0.5,0l0,0l0,0c0.1-0.1,0.1-0.2,0.1-0.3c-0.2,0-0.4,0.1-0.4,0.1l0,0v0
				C67.4,47.4,67.4,47.3,67.4,47.3L67.4,47.3L67.4,47.3z M58.5,55.2c0,0,0.2-0.4,0.2-0.4l0,0l0,0l0.2,0.5l0.1-0.3l0,0l0,0l0.1,0.1
				l0.3-0.3l0,0l0,0l0.3,0.5l0,0l-0.3-0.5l-0.3,0.3l0,0l0,0l0-0.1l-0.1,0.3l0,0l0,0l-0.2-0.5C58.7,55,58.5,55.2,58.5,55.2L58.5,55.2
				L58.5,55.2z M65.1,55.8l0.3-0.1l0,0l0,0l0.3,0.3l0.3-0.4l0,0l0,0l0.3,0.3l0.1-0.3l0,0l0,0l0.4,0.2l0.1-0.2l0,0l0,0l0.4,0.2l0-0.3
				l0,0l0,0l0.2,0.1l0-0.2l0,0l0,0.2l0,0l0,0l-0.2-0.1l0,0.3l0,0l0,0l-0.4-0.2l-0.1,0.2l0,0l0,0l-0.4-0.2l-0.1,0.4l0,0l0,0l-0.4-0.4
				l-0.3,0.4l0,0l0,0l-0.3-0.3L65.1,55.8L65.1,55.8L65.1,55.8z"/>
			
				<path fill-rule="evenodd" clip-rule="evenodd" fill="#730000" stroke="#000000" stroke-width="4.184400e-02" stroke-miterlimit="2.4142" d="
				M46.7,57.3c0.3-0.5,0.6-1,1-1.2l1.2-0.7l1.2-0.6l2.1-1.1l3.9-2l1.5-0.8c0,0,0.1-0.2-0.3-0.7L53.9,52c0,0-3.2,1.6-3.8,1.9
				c-0.7,0.2-1.9,0.6-2.3,0.8c-0.4,0.2-1.2,0.7-1.7,1.3C45.7,56.7,46.1,58,46.7,57.3L46.7,57.3z"/>
			
				<radialGradient id="SVGID_3_" cx="53.5166" cy="55.592" r="5.8276" gradientTransform="matrix(4.500000e-03 0 0 4.500000e-03 -38.8434 -79.1755)" gradientUnits="userSpaceOnUse">
				<stop  offset="0" style="stop-color:#FEEA5A"/>
				<stop  offset="1" style="stop-color:#EC6408"/>
			</radialGradient>
			
				<path fill-rule="evenodd" clip-rule="evenodd" fill="url(#SVGID_3_)" stroke="#000000" stroke-width="4.184400e-02" stroke-miterlimit="2.4142" d="
				M52.6,52.8c0,0.3,0.1,0.7-0.2,0.9c-0.3,0.2-2.2,1.2-2.2,1.2s-0.2,0.3-0.1,0.5c0,0.2,0.1,0.4,0.1,0.5c0,0.1-0.6,0.5-0.5,0.9
				c0,0-0.2-0.2-0.4-0.3c-0.1-0.1,0-0.3,0-0.4c0.1-0.1,0.2-0.4,0.2-0.6c0-0.2,0.1-0.5,0-0.5c-0.1-0.1-0.4-0.2-0.4-0.2
				c-0.1,0-0.1,0.1-0.1,0.2c0.1,0.1,0.2,0.1,0.2,0.1s-0.2,0.2-0.1,0.4l-1.2,0.7c0,0,0.2,0.2,0.2,0.3c0.1,0.1,0.2,1.2,0.4,1.7
				c0.2,0.5,0.5,0.6,0.7,0.8c0.2,0.1,0.2,0.3,0.6,0.3c0.4,0,0.3-0.4,0.5-0.5c0.1-0.1,0.9-0.7,1.1-1.1c0,0,0.2,0.3,0.3,0.9
				c0,0.6-0.1,1.1-0.1,1.1l3.6,0c0,0,0.2-0.8,0.2-1.3c0,0,0.3,0.8,0.6,1.1c0.3,0.3,0.4,0.2,0.8-0.1v-1h1.3c0,0,0.5,0.2,0.7,0.1
				c0.1-0.1,0.1-0.2,0.1-0.2h0.8c0,0-0.4-0.7-1.3-0.7s-1.6,0.3-1.6,0.3s0-1.1-0.2-1.6c-0.2-0.5,0-1.3-0.1-1.6
				c-0.1-0.4-0.3-0.6-0.8-0.7c-0.5-0.1-0.9-0.3-1-0.6c-0.1-0.3-0.1-1.5-0.1-1.5l-0.5,0.1c0,0-0.3,0.8-0.3,0.8
				C53.5,52.7,52.6,52.8,52.6,52.8L52.6,52.8z"/>
			
				<path fill-rule="evenodd" clip-rule="evenodd" fill="#EF7F18" stroke="#000000" stroke-width="4.184400e-02" stroke-miterlimit="2.4142" d="
				M47.2,55.2c0.1,0,0.2-0.1,0.4,0.1c0.2,0.2,0.3,0,0.3-0.2c0,0,0.3,0.2,0.4-0.2c0,0,0.3,0.2,0.3-0.2c0,0,0.2,0.2,0.2-0.1
				c0-0.3-0.1-0.4-0.2-0.5c0,0-0.1-0.1-0.2-0.1c-0.2-0.1-0.3,0-0.4,0.2c0,0-0.4,0-0.5,0.2c0,0-0.3,0-0.3,0.3
				C47.3,54.7,47,54.9,47.2,55.2L47.2,55.2z"/>
			<path d="M47.3,54.7c0,0,0.5,0,0.6,0.3l0,0C47.7,54.8,47.3,54.8,47.3,54.7L47.3,54.7L47.3,54.7z"/>
			<path d="M47.6,54.4c0,0,0.7,0,0.8,0.5l0,0C48.2,54.4,47.6,54.5,47.6,54.4L47.6,54.4L47.6,54.4z"/>
			<path d="M48.1,54.2c0,0,0.5,0.1,0.5,0.5l0,0C48.5,54.4,48.1,54.3,48.1,54.2L48.1,54.2L48.1,54.2z"/>
			<path d="M48.4,56.1c0-0.1,0-0.1,0-0.2c0-0.1,0-0.1,0-0.2c0-0.1,0-0.1,0-0.1l0,0c0,0,0,0,0,0.1c0,0,0,0.1,0,0.1
				C48.4,56,48.5,56,48.4,56.1L48.4,56.1L48.4,56.1z"/>
			<path d="M48.4,56.8c0,0.2,0.1,0.6,0.3,1c0.1,0.3,0.3,0.5,0.5,0.7l0,0c-0.2-0.2-0.4-0.4-0.5-0.7C48.4,57.4,48.3,57,48.4,56.8
				L48.4,56.8L48.4,56.8z"/>
			<path d="M50,57.8c0-0.1-0.1-0.2-0.1-0.3l0,0c0-0.1,0-0.2-0.1-0.3c-0.1-0.2-0.4-0.5-0.4-0.5l0,0c0,0,0.3,0.3,0.4,0.5
				c0,0.1,0.1,0.2,0.1,0.3l0,0C50,57.6,50.1,57.7,50,57.8L50,57.8L50,57.8z"/>
			<path d="M51.1,55.2c0,0.1,0,0.5,0,0.9c0,0.1,0,0.2,0,0.3c0,0.2,0,0.5,0,0.7c0,0.2,0,0.4,0.1,0.5l0,0c0,0,0-0.2-0.1-0.5
				c0-0.3,0-0.6,0-0.8c0-0.1,0-0.2,0-0.3C51,55.8,51.1,55.4,51.1,55.2L51.1,55.2L51.1,55.2z"/>
			<path d="M50.4,57.5c0-0.1,0.1-0.1,0.1-0.2c0-0.1,0.1-0.1,0.2-0.2c0.1,0,0.1-0.1,0.2-0.1c0.1,0,0.1-0.1,0.1-0.1l0,0
				c0,0-0.1,0.1-0.1,0.1c-0.1,0-0.1,0.1-0.2,0.1c-0.1,0-0.1,0.1-0.2,0.1C50.5,57.4,50.5,57.5,50.4,57.5L50.4,57.5L50.4,57.5z"/>
			<path d="M50.6,56.4c0.1,0,0.2-0.1,0.3-0.2c0.1-0.1,0.2-0.3,0.2-0.3l0,0c0,0.1-0.1,0.2-0.2,0.4C50.8,56.4,50.7,56.5,50.6,56.4
				L50.6,56.4L50.6,56.4z"/>
			<path d="M52.9,53.3L52.9,53.3c0,0.3,0,0.7,0.5,0.8l0,0C52.9,54,52.9,53.6,52.9,53.3L52.9,53.3L52.9,53.3L52.9,53.3z"/>
			<path d="M54,53.2c0,0.1-0.1,0.5-0.1,0.5l0,0C53.9,53.7,53.9,53.3,54,53.2L54,53.2L54,53.2z"/>
			<path d="M53.9,54.1L53.9,54.1c0.4-0.1,0.8-0.2,1.1-0.1l0,0C54.8,54,54.4,54.1,53.9,54.1L53.9,54.1L53.9,54.1L53.9,54.1z"/>
			<path d="M52.8,54.1c-0.2,0-0.4,0-0.6,0c-0.2,0-0.4,0-0.5,0.1l0,0c0.1-0.1,0.3-0.1,0.5-0.1C52.4,54.1,52.7,54.1,52.8,54.1
				L52.8,54.1L52.8,54.1z"/>
			<path d="M53.5,54.7c0,0.1,0,0.3,0,0.4c0,0.1,0,0.3,0,0.4l0,0c0-0.2,0-0.3,0-0.5C53.4,54.9,53.4,54.8,53.5,54.7L53.5,54.7
				L53.5,54.7z"/>
			<path d="M55.9,58.2C56,58.2,56,58.2,55.9,58.2c0.2-0.2,0.4-0.3,0.5-0.3l0,0c-0.1,0.1-0.3,0.2-0.4,0.3C56,58.2,56,58.3,55.9,58.2
				L55.9,58.2L55.9,58.2z"/>
			<path d="M57.9,57.9c0.1,0.1,0.2,0.1,0.4,0.2c0.1,0.1,0.2,0.1,0.3,0.1l0,0c0,0-0.1-0.1-0.3-0.1C58.1,58.1,57.9,58.1,57.9,57.9
				L57.9,57.9L57.9,57.9z"/>
			<path d="M58.4,57.9c0.1,0,0.3,0.1,0.4,0.2c0.1,0.1,0.3,0.1,0.3,0.2l0,0c0,0-0.2-0.1-0.3-0.2C58.7,58,58.5,57.9,58.4,57.9
				L58.4,57.9L58.4,57.9z"/>
			<path d="M53.2,56c-0.1,0-0.1,0.1-0.2,0.1c-0.3,0.2-0.6,0.3-1,0.3c-0.3,0-0.7-0.2-0.9-0.5c0,0,0-0.1-0.1-0.1l0,0
				c0,0,0,0.1,0.1,0.1c0.3,0.4,0.6,0.5,0.9,0.5c0.3,0,0.7-0.1,0.9-0.3C53.1,56,53.1,56,53.2,56L53.2,56L53.2,56z"/>
			<path fill-rule="evenodd" clip-rule="evenodd" d="M51.8,56c0.1,0,0.1,0.1,0.1,0.1s-0.1,0.1-0.1,0.1c-0.1,0-0.1-0.1-0.1-0.1
				S51.7,56,51.8,56L51.8,56z"/>
			<path d="M53.7,56c0.2,0.2,0.5,0.3,0.7,0.4c0.3,0,0.5-0.1,0.7-0.2c0.1-0.1,0.2-0.3,0.2-0.5c0-0.2,0-0.4-0.1-0.7l0,0
				c0.1,0.3,0.1,0.5,0.1,0.7c0,0.2-0.1,0.4-0.2,0.5c-0.2,0.2-0.4,0.3-0.7,0.2C54.2,56.3,53.9,56.2,53.7,56L53.7,56L53.7,56z"/>
			<path fill-rule="evenodd" clip-rule="evenodd" d="M54.8,56c0.1,0,0.1,0.1,0.1,0.1c0,0.1-0.1,0.1-0.1,0.1c-0.1,0-0.1-0.1-0.1-0.1
				C54.7,56.1,54.7,56,54.8,56L54.8,56z"/>
			<path d="M55.2,56.1c0,0.1,0,0.2,0.1,0.3c0.1,0.2,0.1,0.5,0,0.8c-0.1,0.2-0.1,0.4-0.1,0.7c0,0.2,0,0.4,0,0.5l0,0
				c0-0.1,0-0.3,0-0.5c0-0.2,0.1-0.5,0.1-0.7c0.1-0.3,0-0.5,0-0.7C55.2,56.3,55.2,56.2,55.2,56.1L55.2,56.1L55.2,56.1z"/>
			<path d="M55.7,57.9c-0.1-0.1-0.2-0.3-0.3-0.5c-0.1-0.1-0.2-0.3-0.2-0.4l0,0c0,0.1,0.1,0.2,0.2,0.4C55.6,57.6,55.7,57.8,55.7,57.9
				L55.7,57.9L55.7,57.9z"/>
			<path d="M54,56.8c0.1,0.1,0.3,0.3,0.4,0.5c0.1,0.2,0.2,0.4,0.2,0.6l0,0c0-0.2-0.1-0.4-0.2-0.6C54.3,57.2,54.1,57,54,56.8L54,56.8
				L54,56.8z"/>
			<path d="M53.6,56.5c0,0.1,0.1,0.3,0.1,0.3l0,0C53.6,56.8,53.5,56.7,53.6,56.5L53.6,56.5L53.6,56.5z"/>
			<path d="M53.7,57.2c0,0.2-0.1,1.1-0.1,1.1l0,0C53.5,58.3,53.6,57.4,53.7,57.2L53.7,57.2L53.7,57.2z"/>
			<path d="M54.1,58.3c0.1,0,0.2,0.1,0.3,0.3c0.1,0.2,0.1,0.4,0.1,0.8l0,0c0-0.4,0-0.6-0.1-0.8C54.3,58.5,54.2,58.4,54.1,58.3
				L54.1,58.3L54.1,58.3z"/>
			<path d="M52.8,58.7c0-0.1,0.1-0.2,0.1-0.2c0-0.1,0.1-0.1,0.2-0.1l0,0c-0.1,0-0.2,0.1-0.2,0.1C52.9,58.5,52.9,58.6,52.8,58.7
				L52.8,58.7L52.8,58.7z"/>
			
				<path fill-rule="evenodd" clip-rule="evenodd" fill="#F5AD34" stroke="#000000" stroke-width="4.184400e-02" stroke-miterlimit="2.4142" d="
				M54,71.7c-0.1,0.3-0.3,1.2,0.3,1.1c0.6-0.1,1.2,0,1.7,0c0.5,0.1,0.8-0.1,1-0.1c0.2,0,0.3,0.1,0.4,0c0.1-0.1,0.2-0.3,0-0.4
				s-0.5,0-0.7-0.1c-0.2-0.1-0.8-0.3-0.9-0.3c-0.1-0.1-0.5-0.2-0.5-0.2L54,71.7L54,71.7z"/>
			<path d="M52.8,57c0,0.2-0.1,0.5-0.3,0.8c-0.1,0.2-0.2,0.4-0.3,0.6c0.1,0.1,0.4,0.4,0.4,1l0,0c0-0.7-0.4-1-0.4-1l0,0l0,0
				c0.1-0.2,0.2-0.4,0.3-0.6C52.6,57.4,52.7,57.1,52.8,57L52.8,57L52.8,57z"/>
			<path d="M51.6,56.4c0,0.2-0.1,0.5-0.1,0.7c0,0.2,0,0.4,0.1,0.7c0.1,0.2,0.1,0.5,0,0.7c0,0.3-0.1,0.5-0.2,0.6l0,0
				c0.1-0.1,0.2-0.4,0.2-0.6c0-0.2,0-0.5,0-0.7c-0.1-0.2-0.1-0.5-0.1-0.7C51.5,56.9,51.5,56.7,51.6,56.4L51.6,56.4L51.6,56.4z"/>
			
				<path fill-rule="evenodd" clip-rule="evenodd" fill="#F5AD34" stroke="#000000" stroke-width="4.184400e-02" stroke-miterlimit="2.4142" d="
				M50.1,72.4c0,0.2-0.2,0.6-0.2,0.9c0,0.3,0.1,0.5,0.3,0.3c0,0,0,0.4,0.3,0.1c0,0,0.1,0.4,0.3,0.1c0,0,0.1,0.4,0.3,0
				c0,0,0.2,0.5,0.4,0.1c0.2-0.4,0.2-0.9,0.2-1c0-0.1-0.2-0.6-0.2-0.6S50.1,72.4,50.1,72.4L50.1,72.4z"/>
			<path d="M50.2,73.4c0,0,0,0.2-0.1,0.3l0,0C50.2,73.6,50.2,73.4,50.2,73.4L50.2,73.4L50.2,73.4z"/>
			<path d="M50.6,73.4c0,0.1-0.1,0.3-0.1,0.3l0,0C50.4,73.7,50.5,73.5,50.6,73.4L50.6,73.4L50.6,73.4z"/>
			<path d="M50.9,73.4c0,0.1-0.1,0.4-0.1,0.4l0,0C50.7,73.8,50.8,73.6,50.9,73.4L50.9,73.4L50.9,73.4z"/>
			<path d="M51.2,73.5c0,0.1,0,0.4,0,0.4l0,0C51.1,73.8,51.1,73.6,51.2,73.5L51.2,73.5L51.2,73.5z"/>
			<path d="M52.3,56.6c-0.1,0.1-0.1,0.2-0.2,0.3C52,57,52,57,51.9,57.2l0,0c0-0.1,0.1-0.2,0.1-0.3C52.1,56.8,52.1,56.7,52.3,56.6
				L52.3,56.6L52.3,56.6z"/>
			
				<path fill-rule="evenodd" clip-rule="evenodd" fill="#FFFFFF" stroke="#000000" stroke-width="4.184400e-02" stroke-miterlimit="2.4142" d="
				M52.1,71.9c0,0-1.1,0.9-1.3,1c-0.2,0.1-1.2-0.6-1.2-0.6s0.5-3.9,0.7-4.5c0.2-0.7,0-3.2,0.1-3.7c0-0.5,0.1-2.1,0.2-2.5
				c0-0.4,0.7-1.9,0.7-1.9l3.7,0.1c0,0,0.1-0.1,0.2,0.4c0.1,0.4,0.2,2.5,0.3,3.2c0,0.7,0.2,2.1,0.2,2.5c0,0.4,0.1,1.1,0.1,1.4
				c0,0.4,0.2,2.8,0.2,3.1c0,0.3,0.1,1.5,0.1,1.5s-2.1,0.2-2.3,0c0,0-0.1-5,0.2-5.6c0,0-0.1-0.7-0.3-1.1c-0.2-0.4-0.5-1.2-0.5-1.2
				s-0.8,2.4-0.8,2.7c0,0.3,0,1.8,0,2.4C52.2,69.7,52.1,71.9,52.1,71.9L52.1,71.9z"/>
			<path d="M55.2,68.1c0,0.4,0,1.4,0.1,2.3c0.1,0.6,0.2,1.1,0.4,1.3l0,0c-0.2-0.3-0.3-0.8-0.4-1.3C55.1,69.6,55.1,68.5,55.2,68.1
				L55.2,68.1L55.2,68.1z M51.2,70.4c-0.1,0.3-0.2,0.8-0.2,1.4c0,0.4-0.1,0.8-0.1,1.1h0c0-0.3,0-0.7,0.1-1.1
				C51,71.3,51.1,70.8,51.2,70.4L51.2,70.4L51.2,70.4z M51.5,60.1c-0.1,0.2-0.2,0.6-0.5,0.9c-0.2,0.2-0.3,0.4-0.5,0.5l0,0
				c0.2-0.1,0.3-0.3,0.5-0.5C51.2,60.7,51.4,60.3,51.5,60.1L51.5,60.1L51.5,60.1z M51.8,60.1c0.2,0.1,0.3,0.1,0.3,0.1v0
				C52.1,60.3,51.9,60.3,51.8,60.1L51.8,60.1L51.8,60.1z M52.5,60.3c0,0-0.8,3.1-0.8,6h0C51.7,63.4,52.4,60.3,52.5,60.3L52.5,60.3
				L52.5,60.3z M52.6,62.3c0,0.1-0.1,0.4-0.2,0.7c-0.1,0.3-0.1,0.6-0.2,0.8l0,0c0.1-0.2,0.1-0.5,0.2-0.8
				C52.5,62.7,52.6,62.4,52.6,62.3L52.6,62.3L52.6,62.3z M52.8,60.5c0,0.1,0,0.2,0,0.3c0,0.1,0,0.2,0,0.3l0,0c0-0.1,0-0.2,0-0.3
				C52.8,60.7,52.8,60.6,52.8,60.5L52.8,60.5L52.8,60.5z M53.2,60.4c0,0.2,0,0.7-0.1,1.1c0,0.5,0,1,0,1.1c0,0.1,0,0.2,0.1,0.3
				c0.1,0.1,0.2,0.1,0.2,0.2l0,0l0,0c0,0-0.3,0.2-0.3,0.8l0,0c0-0.5,0.2-0.8,0.3-0.8c-0.1,0-0.2-0.1-0.2-0.2
				c-0.1-0.1-0.1-0.2-0.1-0.3c0-0.1,0-0.6,0-1.1C53.1,61.1,53.1,60.6,53.2,60.4L53.2,60.4L53.2,60.4z M53.7,60.9c0,0.1,0,0.4,0,0.6
				c0,0.6,0,1.3-0.1,1.5l0,0c0-0.2,0-0.9,0.1-1.5C53.6,61.3,53.6,61,53.7,60.9L53.7,60.9L53.7,60.9z M53.9,63.3
				c0.1,0.1,0.1,0.1,0.1,0.2c0,0.1,0,0.2,0.1,0.3l0,0c0-0.1,0-0.2-0.1-0.3C54,63.5,54,63.4,53.9,63.3L53.9,63.3L53.9,63.3z M54,60.3
				c0.2,0.1,0.7,0,0.7,0l0,0l0,0c0,0,0.2,5.4,0.5,6l0,0c-0.3-0.6-0.5-5.6-0.5-6C54.5,60.4,54.1,60.5,54,60.3L54,60.3L54,60.3z
				 M54,66.8c0-0.1,0-0.2,0-0.3c0-0.1-0.1-0.2-0.1-0.2l0,0c0,0.1,0.1,0.1,0.1,0.2C54,66.6,54.1,66.7,54,66.8L54,66.8L54,66.8z
				 M51.9,67.2c0.1,0,0.4-0.6,0.4-0.6l0,0C52.3,66.6,52,67.2,51.9,67.2L51.9,67.2L51.9,67.2z M51.5,67.2l-0.2,2.7l0,0L51.5,67.2
				L51.5,67.2L51.5,67.2z"/>
			
				<path fill-rule="evenodd" clip-rule="evenodd" fill="#FFFFFF" stroke="#000000" stroke-width="4.184400e-02" stroke-miterlimit="2.4142" d="
				M56,53.7c0,0,0.2-1.5-0.2-1.9c0,0,0.1-0.6-0.2-0.8l1.2-0.7c0,0,0.3,0.2,0.4,0.7c0.1,0.5,0.6,1.2,1.1,1.4
				C58.4,52.5,57.8,53.4,56,53.7L56,53.7z"/>
			<path fill="#7E4B7E" d="M56.2,51.7C56.2,51.7,56.3,51.8,56.2,51.7C56.3,51.8,56.3,51.7,56.2,51.7l0.1-0.1l0,0l0,0.3c0,0,0,0,0,0
				c0,0,0,0,0,0l0-0.3l0.1,0l0,0.5c0,0,0,0,0,0c0,0,0,0,0,0l0-0.5l0,0c0,0.2,0,0.7,0,0.7c0,0,0,0,0.1,0c0,0,0,0,0-0.1
				c0,0,0-0.6,0-0.7l0.3-0.2c0,0,0,0,0-0.1c0,0,0,0-0.1,0c0,0-1,0.5-1,0.5c0,0,0,0,0,0.1c0,0,0,0,0.1,0C56,51.7,56.1,51.7,56.2,51.7
				L56.2,51.7L56.2,51.7z M57.2,51.6C57.2,51.6,57.1,51.6,57.2,51.6C57.1,51.6,57.1,51.7,57.2,51.6l0.5,0.8c0,0,0,0,0.1,0
				c0,0,0,0,0-0.1L57.2,51.6L57.2,51.6z M57.2,51.9C57.2,51.9,57.2,51.9,57.2,51.9C57.1,51.9,57.1,51.9,57.2,51.9l0.3,0.6
				c0,0,0,0,0.1,0c0,0,0,0,0-0.1L57.2,51.9L57.2,51.9z M57.2,52.2C57.2,52.1,57.2,52.1,57.2,52.2C57.1,52.2,57.1,52.2,57.2,52.2
				l0.2,0.4c0,0,0,0,0.1,0c0,0,0,0,0-0.1L57.2,52.2L57.2,52.2z M57.2,52.4C57.2,52.4,57.1,52.4,57.2,52.4
				C57.1,52.4,57.1,52.4,57.2,52.4l0.1,0.3c0,0,0,0,0.1,0c0,0,0,0,0-0.1L57.2,52.4L57.2,52.4z"/>
			
				<radialGradient id="SVGID_4_" cx="53.3246" cy="51.5518" r="1.5201" gradientTransform="matrix(4.500000e-03 0 0 4.500000e-03 -38.8913 -79.4391)" gradientUnits="userSpaceOnUse">
				<stop  offset="0" style="stop-color:#FEEA5A"/>
				<stop  offset="1" style="stop-color:#EC6408"/>
			</radialGradient>
			
				<path fill-rule="evenodd" clip-rule="evenodd" fill="url(#SVGID_4_)" stroke="#000000" stroke-width="4.184400e-02" stroke-miterlimit="2.4142" d="
				M52.1,50.2c0,0-0.2,1.2-0.1,1.6c0.1,0.5,0.3,1.1,0.8,1.3c0.5,0.2,1.2-0.3,1.3-0.5c0.1-0.2,0.1-0.6,0.1-0.6s0.1,0,0.2-0.2
				c0.1-0.1,0.1-0.2,0.2-0.4c0.1-0.2-0.1-1.2-0.1-1.2l-1.2,0.1C53.3,50.3,52.5,50.4,52.1,50.2L52.1,50.2z"/>
			<path fill-rule="evenodd" clip-rule="evenodd" d="M54.2,51.4l0-1c0,0-1.3,0.3-2.1,0c0,0,0,0.3-0.1,0.3c-0.1,0-0.1-0.6,0.1-0.8
				c0.1-0.2,0.2-0.4,0.5-0.4c0.2,0,0.6-0.3,1.1-0.2c0.5,0.1,0.7,0.2,0.9,0.6c0.2,0.4,0.2,1.2,0.2,1.4c0,0.1-0.1,0.2-0.2,0.1
				C54.4,51.2,54.3,51.2,54.2,51.4L54.2,51.4z"/>
			<path d="M54.2,51.8c0,0,0,0,0.1,0.1l0,0C54.2,51.9,54.1,51.9,54.2,51.8L54.2,51.8L54.2,51.8z"/>
			<path d="M54.4,51.3c0,0,0.2-0.1,0.1,0.2l0,0C54.5,51.3,54.4,51.4,54.4,51.3L54.4,51.3L54.4,51.3z"/>
			<path d="M53,51.1c0,0,0.4-0.3,0.9-0.1l0,0C53.4,50.8,53,51.1,53,51.1L53,51.1L53,51.1z"/>
			<path d="M52.1,50.9c0,0,0.5,0.1,0.5,0.3c0,0.2-0.1,0.3-0.1,0.4c0,0.1,0,0.1-0.1,0.2c0,0,0,0.1,0,0.1c0,0,0,0,0,0c0,0,0,0,0.1,0
				c0,0,0.1,0,0.1,0c0,0,0.1,0,0.1,0l0,0c0.1,0,0.1,0,0.2,0c0,0,0.1,0,0.1,0c0,0,0,0,0.1,0c0,0,0,0,0,0c0,0,0-0.1,0-0.1l0,0
				c0,0,0,0.1,0,0.1c0,0,0,0.1,0,0.1c0,0,0,0-0.1,0l0,0c0,0-0.1,0-0.1,0c-0.1,0-0.1,0-0.1,0l0,0c0,0-0.1,0-0.1,0c0,0-0.1,0-0.1,0
				c0,0-0.1,0-0.1,0c0,0,0,0,0-0.1c0,0,0-0.1,0-0.1c0,0,0-0.1,0.1-0.2c0-0.1,0.1-0.3,0.1-0.4C52.6,51,52.1,50.9,52.1,50.9L52.1,50.9
				L52.1,50.9z"/>
			<path d="M52.9,51.2c0,0.1-0.1,0.4-0.1,0.4l0,0C52.7,51.6,52.8,51.4,52.9,51.2L52.9,51.2L52.9,51.2z"/>
			
				<path fill-rule="evenodd" clip-rule="evenodd" fill="#FFFFFF" stroke="#000000" stroke-width="4.184400e-02" stroke-miterlimit="2.4142" d="
				M53.2,51.3c0,0,0.1-0.3,0.6,0c0,0-0.1,0.1-0.3,0.2C53.3,51.5,53.2,51.3,53.2,51.3L53.2,51.3z"/>
			<path fill-rule="evenodd" clip-rule="evenodd" stroke="#000000" stroke-width="4.184400e-02" stroke-miterlimit="2.4142" d="
				M53.4,51.1c0.1,0,0.1,0.1,0.1,0.1s-0.1,0.1-0.1,0.1s-0.1-0.1-0.1-0.1S53.3,51.1,53.4,51.1L53.4,51.1z"/>
			
				<path fill-rule="evenodd" clip-rule="evenodd" fill="#FFFFFF" stroke="#000000" stroke-width="4.184400e-02" stroke-miterlimit="2.4142" d="
				M52.6,51.3c0,0-0.1-0.2-0.2-0.2c-0.2,0-0.3,0.1-0.3,0.1S52.2,51.6,52.6,51.3L52.6,51.3z"/>
			<path fill-rule="evenodd" clip-rule="evenodd" stroke="#000000" stroke-width="4.184400e-02" stroke-miterlimit="2.4142" d="
				M52.3,51.1c0.1,0,0.1,0.1,0.1,0.1s-0.1,0.1-0.1,0.1c-0.1,0-0.1-0.1-0.1-0.1S52.2,51.1,52.3,51.1L52.3,51.1z"/>
			<path d="M52.5,52.4c0.1,0,0.4,0,0.6,0c-0.1,0-0.1-0.1-0.2-0.1c-0.1,0.1-0.1,0-0.2,0c0,0,0,0-0.1,0C52.6,52.3,52.6,52.4,52.5,52.4
				C52.6,52.4,52.5,52.4,52.5,52.4L52.5,52.4z M53.2,52.4c-0.3,0.1-0.7,0-0.7,0l0,0l0,0c0,0,0-0.1,0.1-0.1c0,0,0.1,0,0.1-0.1
				c0.1,0,0.1,0,0.1,0c0,0,0.1,0,0.2,0C53,52.2,53.2,52.4,53.2,52.4L53.2,52.4L53.2,52.4L53.2,52.4z"/>
			<path d="M52.5,52.5c0,0,0.1,0.1,0.1,0.1c0.1,0,0.1,0,0.2,0c0.1,0,0.1,0,0.2,0c0,0,0.1,0,0.1-0.1l0,0c0,0-0.1,0.1-0.1,0.1
				c-0.1,0-0.1,0-0.2,0c-0.1,0-0.2,0-0.2,0C52.6,52.6,52.5,52.5,52.5,52.5L52.5,52.5L52.5,52.5z"/>
			<path fill-rule="evenodd" clip-rule="evenodd" fill="#FFFFFF" d="M52.3,49.9c0,0.1,0.1,0.2,0.2,0.3c0.1,0.1,0.2,0,0.2-0.1
				c0-0.1-0.2-0.2-0.2-0.4C52.5,49.6,52.2,49.6,52.3,49.9L52.3,49.9z"/>
			
				<path fill-rule="evenodd" clip-rule="evenodd" fill="#9B5F00" stroke="#000000" stroke-width="4.184400e-02" stroke-miterlimit="2.4142" d="
				M51.1,59.7c0,0,1.4,0.3,2.3,0.3c1,0,1.7-0.2,1.7-0.2s0-0.6-0.1-0.7c0,0-0.6,0.3-1.7,0.2c-1.1-0.1-2-0.3-2-0.3
				S51.1,59.3,51.1,59.7L51.1,59.7z"/>
			
				<path fill-rule="evenodd" clip-rule="evenodd" fill="#FFFFFF" stroke="#000000" stroke-width="4.184400e-02" stroke-miterlimit="2.4142" d="
				M54.6,60c0-0.1,0-0.7,0-0.7s-0.1,0-0.2,0l0,0.7C54.5,60,54.6,60,54.6,60L54.6,60z"/>
			
				<path fill-rule="evenodd" clip-rule="evenodd" fill="#FFFFFF" stroke="#000000" stroke-width="4.184400e-02" stroke-miterlimit="2.4142" d="
				M52.4,59.3c0,0.1-0.1,0.6-0.1,0.7c0,0.1,0.1,0,0.1,0s0.1-0.6,0.1-0.7C52.5,59.2,52.4,59.2,52.4,59.3L52.4,59.3z"/>
			
				<path fill-rule="evenodd" clip-rule="evenodd" fill="#FFFFFF" stroke="#000000" stroke-width="4.184400e-02" stroke-miterlimit="2.4142" d="
				M51.8,59.2c0,0-0.1,0.6-0.1,0.7c0,0.1-0.2,0-0.2,0c0,0,0.1-0.6,0.1-0.7C51.6,59.1,51.7,59.1,51.8,59.2L51.8,59.2z"/>
			
				<path fill-rule="evenodd" clip-rule="evenodd" fill="#B34B00" stroke="#000000" stroke-width="4.184400e-02" stroke-miterlimit="2.4142" d="
				M79.3,55.9c0,0-2.6-1.4-3.1-1.6c-0.5-0.2-4.3-2.1-4.6-2.4c-0.3-0.2-0.5-1-1.2-1.3c-0.7-0.3-3.8-1.8-4.1-2c-0.3-0.1-0.6,0-0.7,0.2
				c-0.1,0.2-0.2,0.2-0.3,0.5c-0.1,0.2,0,0.7,0.3,0.9c0.4,0.2,4.1,2,4.3,2.1c0.2,0.1,1.1,0,1.3,0.2c0.2,0.1,2.4,1.2,2.4,1.2l2.2,1.2
				l1.2,0.6l1.2,0.6c0,0,0.7,0.2,0.8,0.3c0.1,0.1,0.1,0.2,0.2,0.5c0,0.2,0,0.3,0.1,0.3c0.1,0.1,0.4,0.1,0.6-0.1
				c0.2-0.2,0.3-0.5,0.4-0.7c0.1-0.2,0.1-0.4-0.1-0.5c-0.1-0.1-0.3-0.2-0.4,0C79.7,56,79.5,56.1,79.3,55.9L79.3,55.9z"/>
			<path d="M66.5,49.7C66.5,49.7,66.5,49.7,66.5,49.7C66.5,49.7,66.5,49.7,66.5,49.7l4,2c0,0,0,0,0,0c0,0,0,0,0,0L66.5,49.7
				L66.5,49.7z"/>
			
				<radialGradient id="SVGID_5_" cx="72.4133" cy="55.592" r="5.8279" gradientTransform="matrix(-4.500000e-03 0 0 4.500000e-03 -50.3387 -79.1755)" gradientUnits="userSpaceOnUse">
				<stop  offset="0" style="stop-color:#932C19"/>
				<stop  offset="1" style="stop-color:#5D0E03"/>
			</radialGradient>
			
				<path fill-rule="evenodd" clip-rule="evenodd" fill="url(#SVGID_5_)" stroke="#000000" stroke-width="4.184400e-02" stroke-miterlimit="2.4142" d="
				M73.3,52.8c0,0.3-0.1,0.7,0.2,0.9c0.3,0.2,2.2,1.2,2.2,1.2s0.2,0.3,0.1,0.5c0,0.2-0.1,0.4-0.1,0.5c0,0.1,0.6,0.5,0.5,0.9
				c0,0,0.2-0.2,0.4-0.3c0.1-0.1,0-0.3,0-0.4c-0.1-0.1-0.2-0.4-0.2-0.6c0-0.2-0.1-0.5,0-0.5c0.1-0.1,0.4-0.2,0.4-0.2
				s0.1,0.1,0.1,0.2C77,55,76.9,55,76.9,55s0.2,0.2,0.1,0.4l1.2,0.7c0,0-0.2,0.2-0.2,0.3c-0.1,0.1-0.2,1.2-0.4,1.7
				c-0.2,0.5-0.5,0.6-0.7,0.8c-0.2,0.1-0.2,0.3-0.6,0.3c-0.4,0-0.3-0.4-0.5-0.5c-0.1-0.1-0.9-0.7-1.1-1.1c0,0-0.2,0.3-0.3,0.9
				c0,0.6,0,1.1,0,1.1l-3.6,0c0,0-0.2-0.8-0.2-1.3c0,0-0.3,0.8-0.6,1.1c-0.3,0.3-0.4,0.2-0.8-0.1v-1h-1.3c0,0-0.5,0.2-0.7,0.1
				c-0.1-0.1-0.1-0.2-0.1-0.2h-0.8c0,0,0.4-0.7,1.3-0.7c0.8,0,1.6,0.3,1.6,0.3s-0.1-0.9,0.1-1.4c0.2-0.5-0.1-1.3-0.1-1.7
				c0.1-0.4,0.2-0.9,0.8-1c0.5-0.1,1.1-0.3,1.2-0.6c0.1-0.3,0.1-1.4,0.1-1.4l0.5,0.1c0,0,0.3,0.8,0.3,0.8
				C72.4,52.7,73.3,52.8,73.3,52.8L73.3,52.8z"/>
			
				<path fill-rule="evenodd" clip-rule="evenodd" fill="#730000" stroke="#000000" stroke-width="4.184400e-02" stroke-miterlimit="2.4142" d="
				M78.7,55.6c-0.1,0-0.2-0.1-0.4,0.1c-0.2,0.2-0.3,0-0.3-0.2c0,0-0.3,0.2-0.4-0.2c0,0-0.3,0.2-0.3-0.2c0,0-0.2,0.2-0.2-0.1
				c0-0.3,0.1-0.4,0.2-0.5c0,0,0.1-0.1,0.2-0.1c0.2-0.1,0.3,0,0.4,0.2c0,0,0.4,0,0.5,0.2c0,0,0.3,0,0.3,0.3
				C78.6,55.2,78.9,55.4,78.7,55.6L78.7,55.6z"/>
			<path d="M78.6,55.2c0,0-0.5,0-0.6,0.3l0,0C78.2,55.2,78.6,55.2,78.6,55.2L78.6,55.2L78.6,55.2z"/>
			<path d="M78.3,54.9c0,0-0.7,0-0.8,0.5l0,0C77.7,54.9,78.3,54.9,78.3,54.9L78.3,54.9L78.3,54.9z"/>
			<path d="M77.8,54.7c0,0-0.5,0.1-0.5,0.5l0,0C77.4,54.8,77.8,54.7,77.8,54.7L77.8,54.7L77.8,54.7z"/>
			<path d="M77.5,56.1c0-0.1,0-0.1,0-0.2c0-0.1,0-0.1,0-0.2c0-0.1,0-0.1,0-0.1l0,0c0,0,0,0,0,0.1c0,0,0,0.1,0,0.1
				C77.5,56,77.5,56,77.5,56.1L77.5,56.1L77.5,56.1z"/>
			<path d="M77.6,56.8c0,0.2-0.1,0.6-0.3,1c-0.1,0.3-0.3,0.5-0.5,0.7l0,0c0.2-0.2,0.4-0.4,0.5-0.7C77.5,57.4,77.6,57,77.6,56.8
				L77.6,56.8L77.6,56.8z"/>
			<path d="M75.9,57.8c0-0.1,0.1-0.2,0.1-0.3l0,0c0-0.1,0-0.2,0.1-0.3c0.1-0.2,0.4-0.5,0.4-0.5l0,0c0,0-0.3,0.3-0.4,0.5
				c0,0.1-0.1,0.2-0.1,0.3l0,0C75.9,57.6,75.9,57.7,75.9,57.8L75.9,57.8L75.9,57.8z"/>
			<path d="M74.9,55.2c0,0.1,0,0.5,0,0.9c0,0.1,0,0.2,0,0.3c0,0.2,0,0.5,0,0.7c0,0.2,0,0.4-0.1,0.5l0,0c0,0,0.1-0.2,0.1-0.5
				c0-0.3,0-0.6,0-0.8c0-0.1,0-0.2,0-0.3C74.9,55.8,74.9,55.4,74.9,55.2L74.9,55.2L74.9,55.2z"/>
			<path d="M75.5,57.5c0-0.1-0.1-0.1-0.1-0.2c0-0.1-0.1-0.1-0.2-0.2c-0.1,0-0.1-0.1-0.2-0.1c0,0-0.1-0.1-0.1-0.1l0,0
				c0,0,0.1,0.1,0.1,0.1c0.1,0,0.1,0.1,0.2,0.1c0.1,0,0.1,0.1,0.2,0.1C75.4,57.4,75.5,57.5,75.5,57.5L75.5,57.5L75.5,57.5z"/>
			<path d="M75.4,56.4c-0.1,0-0.2-0.1-0.3-0.2c-0.1-0.1-0.2-0.3-0.2-0.3l0,0c0,0.1,0.1,0.2,0.2,0.4C75.1,56.4,75.3,56.5,75.4,56.4
				L75.4,56.4L75.4,56.4z"/>
			<path d="M73,53.3L73,53.3c0,0.3,0,0.7-0.5,0.8l0,0C73,54,73,53.6,73,53.3L73,53.3L73,53.3L73,53.3z"/>
			<path d="M71.9,53.2c0,0.1,0.1,0.5,0.1,0.5l0,0C72.1,53.7,72,53.3,71.9,53.2L71.9,53.2L71.9,53.2z"/>
			<path d="M72,54.1L72,54.1c-0.4-0.1-0.8-0.2-1.1-0.1l0,0C71.2,54,71.6,54.1,72,54.1L72,54.1L72,54.1L72,54.1z"/>
			<path d="M73.1,54.1c0.2,0,0.4,0,0.6,0c0.2,0,0.4,0,0.5,0.1l0,0c-0.1-0.1-0.3-0.1-0.5-0.1C73.5,54.1,73.3,54.1,73.1,54.1
				L73.1,54.1L73.1,54.1z"/>
			<path d="M72.4,54.7c0,0.1,0,0.3,0,0.4c0,0.1,0,0.3,0,0.4l0,0c0-0.2,0-0.3,0-0.5C72.5,54.9,72.5,54.8,72.4,54.7L72.4,54.7
				L72.4,54.7z"/>
			<path d="M70,58.2C70,58.2,69.9,58.2,70,58.2c-0.2-0.2-0.4-0.3-0.5-0.3l0,0c0.1,0.1,0.3,0.2,0.4,0.3C69.9,58.2,69.9,58.3,70,58.2
				L70,58.2L70,58.2z"/>
			<path d="M68,57.9c-0.1,0.1-0.2,0.1-0.4,0.2c-0.1,0.1-0.2,0.1-0.3,0.1l0,0c0,0,0.1-0.1,0.3-0.1C67.8,58.1,68,58.1,68,57.9L68,57.9
				L68,57.9z"/>
			<path d="M67.5,57.9c-0.1,0-0.3,0.1-0.4,0.2c-0.1,0.1-0.3,0.1-0.3,0.2l0,0c0,0,0.2-0.1,0.3-0.2C67.2,58,67.4,57.9,67.5,57.9
				L67.5,57.9L67.5,57.9z"/>
			<path d="M72.7,56c0.1,0,0.1,0.1,0.2,0.1c0.3,0.2,0.6,0.3,1,0.3c0.3,0,0.7-0.2,0.9-0.5c0,0,0-0.1,0.1-0.1l0,0c0,0,0,0.1-0.1,0.1
				c-0.3,0.4-0.6,0.5-0.9,0.5c-0.3,0-0.7-0.1-0.9-0.3C72.9,56,72.8,56,72.7,56L72.7,56L72.7,56z"/>
			<path fill-rule="evenodd" clip-rule="evenodd" d="M74.2,56c-0.1,0-0.1,0.1-0.1,0.1s0.1,0.1,0.1,0.1c0.1,0,0.1-0.1,0.1-0.1
				S74.2,56,74.2,56L74.2,56z"/>
			<path d="M72.2,56c-0.2,0.2-0.5,0.3-0.7,0.4c-0.3,0-0.5-0.1-0.7-0.2c-0.1-0.1-0.2-0.3-0.2-0.5c0-0.2,0-0.4,0.1-0.7l0,0
				c-0.1,0.3-0.1,0.5-0.1,0.7c0,0.2,0.1,0.4,0.2,0.5c0.2,0.2,0.4,0.3,0.7,0.2C71.7,56.3,72,56.2,72.2,56L72.2,56L72.2,56z"/>
			<path fill-rule="evenodd" clip-rule="evenodd" d="M71.1,56C71,56,71,56.1,71,56.1c0,0.1,0.1,0.1,0.1,0.1c0.1,0,0.1-0.1,0.1-0.1
				C71.3,56.1,71.2,56,71.1,56L71.1,56z"/>
			<path d="M70.7,56.1c0,0.1,0,0.2-0.1,0.3c-0.1,0.2-0.1,0.5,0,0.8c0.1,0.2,0.1,0.4,0.1,0.7c0,0.2,0,0.4,0,0.5l0,0
				c0-0.1,0-0.3,0-0.5c0-0.2-0.1-0.5-0.1-0.7c-0.1-0.3,0-0.5,0-0.7C70.8,56.3,70.8,56.2,70.7,56.1L70.7,56.1L70.7,56.1z"/>
			<path d="M70.2,57.9c0.1-0.1,0.2-0.3,0.3-0.5c0.1-0.1,0.1-0.3,0.2-0.4l0,0c0,0.1-0.1,0.2-0.2,0.4C70.4,57.6,70.3,57.8,70.2,57.9
				L70.2,57.9L70.2,57.9z"/>
			<path d="M71.9,56.8c-0.1,0.1-0.3,0.3-0.4,0.5c-0.1,0.2-0.2,0.4-0.2,0.6l0,0c0-0.2,0.1-0.4,0.2-0.6C71.7,57.2,71.8,57,71.9,56.8
				L71.9,56.8L71.9,56.8z"/>
			<path d="M72.4,56.5c0,0.1-0.1,0.3-0.1,0.3l0,0C72.3,56.8,72.4,56.7,72.4,56.5L72.4,56.5L72.4,56.5z"/>
			<path d="M72.3,57.2c0,0.2,0.1,1.1,0.1,1.1l0,0C72.4,58.3,72.3,57.4,72.3,57.2L72.3,57.2L72.3,57.2z"/>
			<path d="M71.9,58.3c-0.1,0-0.2,0.1-0.3,0.3c-0.1,0.2-0.1,0.4-0.1,0.8l0,0c0-0.4,0-0.6,0.1-0.8C71.7,58.5,71.8,58.4,71.9,58.3
				L71.9,58.3L71.9,58.3z"/>
			<path d="M73.1,58.7c0-0.1-0.1-0.2-0.1-0.2c-0.1-0.1-0.1-0.1-0.2-0.1l0,0c0.1,0,0.2,0.1,0.2,0.1C73,58.5,73,58.6,73.1,58.7
				L73.1,58.7L73.1,58.7z"/>
			
				<path fill-rule="evenodd" clip-rule="evenodd" fill="#730000" stroke="#000000" stroke-width="4.184400e-02" stroke-miterlimit="2.4142" d="
				M71.9,71.7c0.1,0.3,0.3,1.2-0.3,1.1c-0.6-0.1-1.2,0-1.7,0c-0.5,0.1-0.8-0.1-1-0.1c-0.2,0-0.3,0.1-0.4,0c-0.1-0.1-0.2-0.3,0-0.4
				c0.2-0.1,0.5,0,0.7-0.1c0.2-0.1,0.8-0.3,0.9-0.3c0.1-0.1,0.5-0.2,0.5-0.2L71.9,71.7L71.9,71.7z"/>
			<path d="M73.1,57c0,0.2,0.1,0.5,0.3,0.8c0.1,0.2,0.2,0.4,0.3,0.6c-0.1,0.1-0.4,0.4-0.4,1l0,0c0-0.7,0.4-1,0.4-1l0,0l0,0
				c-0.1-0.2-0.2-0.4-0.3-0.6C73.3,57.4,73.2,57.1,73.1,57L73.1,57L73.1,57z"/>
			<path d="M74.4,56.4c0,0.2,0.1,0.5,0.1,0.7c0,0.2,0,0.4-0.1,0.7c-0.1,0.2-0.1,0.5,0,0.7c0,0.3,0.1,0.5,0.2,0.6l0,0
				c-0.1-0.1-0.2-0.4-0.2-0.6c0-0.2,0-0.5,0-0.7c0.1-0.2,0.1-0.5,0.1-0.7C74.5,56.9,74.4,56.7,74.4,56.4L74.4,56.4L74.4,56.4z"/>
			
				<path fill-rule="evenodd" clip-rule="evenodd" fill="#730000" stroke="#000000" stroke-width="4.184400e-02" stroke-miterlimit="2.4142" d="
				M75.9,72.4c0,0.2,0.2,0.6,0.2,0.9c0,0.3-0.1,0.5-0.3,0.3c0,0-0.1,0.4-0.3,0.1c0,0-0.1,0.4-0.3,0.1c0,0-0.1,0.4-0.3,0
				c0,0-0.2,0.5-0.4,0.1c-0.2-0.4-0.2-0.9-0.2-1c0-0.1,0.2-0.6,0.2-0.6S75.9,72.4,75.9,72.4L75.9,72.4z"/>
			<path d="M75.7,73.4c0,0,0,0.2,0.1,0.3l0,0C75.8,73.6,75.7,73.4,75.7,73.4L75.7,73.4L75.7,73.4z"/>
			<path d="M75.4,73.4c0,0.1,0.1,0.3,0.1,0.3l0,0C75.5,73.7,75.4,73.5,75.4,73.4L75.4,73.4L75.4,73.4z"/>
			<path d="M75,73.4c0,0.1,0.1,0.4,0.1,0.4l0,0C75.2,73.8,75.1,73.6,75,73.4L75,73.4L75,73.4z"/>
			<path d="M74.8,73.5c0,0.1,0,0.4,0,0.4l0,0C74.8,73.8,74.8,73.6,74.8,73.5L74.8,73.5L74.8,73.5z"/>
			<path d="M73.7,56.6c0.1,0.1,0.1,0.2,0.2,0.3C73.9,57,74,57,74,57.2l0,0c0-0.1-0.1-0.2-0.1-0.3C73.9,56.8,73.8,56.7,73.7,56.6
				L73.7,56.6L73.7,56.6z"/>
			
				<path fill-rule="evenodd" clip-rule="evenodd" fill="#FFFFFF" stroke="#000000" stroke-width="4.184400e-02" stroke-miterlimit="2.4142" d="
				M73.8,71.9c0,0,1.1,0.9,1.3,1c0.2,0.1,1.2-0.6,1.2-0.6s-0.5-3.9-0.7-4.5c-0.2-0.7,0-3.2-0.1-3.7c0-0.5-0.1-2.1-0.2-2.5
				c0-0.4-0.7-1.9-0.7-1.9L71,59.8c0,0-0.1-0.1-0.2,0.4c-0.1,0.4-0.2,2.5-0.3,3.2c0,0.7-0.2,2.1-0.2,2.5c0,0.4-0.1,1.1-0.1,1.4
				c0,0.4-0.2,2.8-0.2,3.1c0,0.3-0.1,1.5-0.1,1.5s2.1,0.2,2.3,0c0,0,0.1-5-0.2-5.6c0,0,0.1-0.7,0.3-1.1c0.2-0.4,0.5-1.2,0.5-1.2
				s0.8,2.4,0.8,2.7c0,0.3,0,1.8,0,2.4C73.8,69.7,73.8,71.9,73.8,71.9L73.8,71.9z"/>
			<path d="M70.7,68.1c0,0.4,0,1.4-0.1,2.3c-0.1,0.6-0.2,1.1-0.4,1.3l0,0c0.2-0.3,0.3-0.8,0.4-1.3C70.8,69.6,70.8,68.5,70.7,68.1
				L70.7,68.1L70.7,68.1z M74.7,70.4c0.1,0.3,0.2,0.8,0.2,1.4c0,0.4,0.1,0.8,0.1,1.1h0c0-0.3,0-0.7-0.1-1.1
				C74.9,71.3,74.8,70.8,74.7,70.4L74.7,70.4L74.7,70.4z M74.4,60.1c0.1,0.2,0.2,0.6,0.5,0.9c0.2,0.2,0.3,0.4,0.5,0.5l0,0
				c-0.2-0.1-0.3-0.3-0.5-0.5C74.7,60.7,74.5,60.3,74.4,60.1L74.4,60.1L74.4,60.1z M74.2,60.1c-0.2,0.1-0.3,0.1-0.3,0.1v0
				C73.8,60.3,74,60.3,74.2,60.1L74.2,60.1L74.2,60.1z M73.5,60.3c0,0,0.8,3.1,0.8,6h0C74.3,63.4,73.5,60.3,73.5,60.3L73.5,60.3
				L73.5,60.3z M73.3,62.3c0,0.1,0.1,0.4,0.2,0.7c0.1,0.3,0.1,0.6,0.2,0.8l0,0c-0.1-0.2-0.1-0.5-0.2-0.8
				C73.4,62.7,73.4,62.4,73.3,62.3L73.3,62.3L73.3,62.3z M73.1,60.5c0,0.1,0,0.2,0,0.3c0,0.1,0,0.2,0,0.3l0,0c0-0.1,0-0.2,0-0.3
				C73.2,60.7,73.2,60.6,73.1,60.5L73.1,60.5L73.1,60.5z M72.7,60.4c0,0.2,0,0.7,0.1,1.1c0,0.5,0,1,0.1,1.1c0,0.1,0,0.2-0.1,0.3
				c-0.1,0.1-0.2,0.1-0.2,0.2l0,0l0,0c0,0,0.3,0.2,0.3,0.8l0,0c0-0.5-0.2-0.8-0.3-0.8c0.1,0,0.2-0.1,0.2-0.2
				c0.1-0.1,0.1-0.2,0.1-0.3c0-0.1,0-0.6-0.1-1.1C72.8,61.1,72.8,60.6,72.7,60.4L72.7,60.4L72.7,60.4z M72.2,60.9c0,0.1,0,0.4,0,0.6
				c0,0.6,0,1.3,0.1,1.5l0,0c0-0.2,0-0.9-0.1-1.5C72.3,61.3,72.3,61,72.2,60.9L72.2,60.9L72.2,60.9z M72,63.3
				c-0.1,0.1-0.1,0.1-0.1,0.2c0,0.1,0,0.2-0.1,0.3l0,0c0-0.1,0-0.2,0.1-0.3C71.9,63.5,72,63.4,72,63.3L72,63.3L72,63.3z M72,60.3
				c-0.2,0.1-0.7,0-0.7,0l0,0v0c0,0-0.2,5.4-0.5,6l0,0c0.3-0.6,0.5-5.6,0.5-6C71.4,60.4,71.8,60.5,72,60.3L72,60.3L72,60.3z
				 M71.9,66.8c0-0.1,0-0.2,0-0.3c0-0.1,0-0.2,0.1-0.2l0,0c0,0.1-0.1,0.1-0.1,0.2C71.9,66.6,71.9,66.7,71.9,66.8L71.9,66.8
				L71.9,66.8z M74.1,67.2c-0.1,0-0.4-0.6-0.4-0.6l0,0C73.6,66.6,73.9,67.2,74.1,67.2L74.1,67.2L74.1,67.2z M74.4,67.2l0.2,2.7l0,0
				L74.4,67.2L74.4,67.2L74.4,67.2z"/>
			
				<radialGradient id="SVGID_6_" cx="72.6063" cy="51.5518" r="1.5203" gradientTransform="matrix(-4.500000e-03 0 0 4.500000e-03 -50.2908 -79.4391)" gradientUnits="userSpaceOnUse">
				<stop  offset="0" style="stop-color:#932C19"/>
				<stop  offset="1" style="stop-color:#5D0E03"/>
			</radialGradient>
			
				<path fill-rule="evenodd" clip-rule="evenodd" fill="url(#SVGID_6_)" stroke="#000000" stroke-width="4.184400e-02" stroke-miterlimit="2.4142" d="
				M73.8,50.2c0,0,0.2,1.2,0.1,1.6c-0.1,0.5-0.3,1.1-0.8,1.3c-0.5,0.2-1.2-0.3-1.3-0.5s-0.1-0.6-0.1-0.6s-0.1,0-0.2-0.2
				c-0.1-0.1-0.1-0.2-0.2-0.4c-0.1-0.2,0.1-1.2,0.1-1.2l1.2,0.1C72.6,50.3,73.5,50.4,73.8,50.2L73.8,50.2z"/>
			<path fill-rule="evenodd" clip-rule="evenodd" d="M71.7,51.4l0-1c0,0,1.3,0.3,2.1,0c0,0,0,0.3,0.1,0.3c0.1,0,0.1-0.6-0.1-0.8
				c-0.3-0.6-1.9-0.9-2.5,0.1c-0.2,0.4-0.2,1.2-0.2,1.4c0,0.1,0.1,0.2,0.2,0.1C71.5,51.2,71.6,51.2,71.7,51.4L71.7,51.4z"/>
			<path d="M71.8,51.8c0,0,0,0-0.1,0.1l0,0C71.7,51.9,71.8,51.9,71.8,51.8L71.8,51.8L71.8,51.8z"/>
			<path d="M71.6,51.3c0,0-0.2-0.1-0.1,0.2l0,0C71.4,51.3,71.6,51.4,71.6,51.3L71.6,51.3L71.6,51.3z"/>
			<path d="M72.9,51.1c0,0-0.4-0.3-0.9-0.1l0,0C72.5,50.8,72.9,51.1,72.9,51.1L72.9,51.1L72.9,51.1z"/>
			<path d="M73.8,50.9c0,0-0.5,0.1-0.5,0.3c0,0.2,0.1,0.3,0.1,0.4c0,0.1,0,0.1,0.1,0.2c0,0,0,0.1,0,0.1c0,0,0,0,0,0c0,0,0,0-0.1,0
				c0,0-0.1,0-0.1,0c0,0-0.1,0-0.1,0l0,0c-0.1,0-0.1,0-0.2,0c0,0-0.1,0-0.1,0c0,0,0,0-0.1,0c0,0,0,0,0,0c0,0,0-0.1,0-0.1l0,0
				c0,0,0,0.1,0,0.1c0,0,0,0.1,0,0.1c0,0,0,0,0.1,0l0,0c0,0,0.1,0,0.1,0c0.1,0,0.1,0,0.1,0l0,0c0,0,0.1,0,0.1,0c0,0,0.1,0,0.1,0
				c0,0,0.1,0,0.1,0c0,0,0,0,0-0.1c0,0,0-0.1,0-0.1c0,0,0-0.1-0.1-0.2c0-0.1-0.1-0.3-0.1-0.4C73.4,51,73.8,50.9,73.8,50.9L73.8,50.9
				L73.8,50.9z"/>
			<path d="M73,51.2c0,0.1,0.1,0.4,0.1,0.4l0,0C73.2,51.6,73.1,51.4,73,51.2L73,51.2L73,51.2z"/>
			
				<path fill-rule="evenodd" clip-rule="evenodd" fill="#FFFFFF" stroke="#000000" stroke-width="4.184400e-02" stroke-miterlimit="2.4142" d="
				M72.8,51.3c0,0-0.1-0.3-0.6,0c0,0,0.2,0.1,0.3,0.2C72.6,51.5,72.8,51.3,72.8,51.3L72.8,51.3z"/>
			<path fill-rule="evenodd" clip-rule="evenodd" stroke="#000000" stroke-width="4.184400e-02" stroke-miterlimit="2.4142" d="
				M72.5,51.1c-0.1,0-0.1,0.1-0.1,0.1s0.1,0.1,0.1,0.1s0.1-0.1,0.1-0.1S72.6,51.1,72.5,51.1L72.5,51.1z"/>
			
				<path fill-rule="evenodd" clip-rule="evenodd" fill="#FFFFFF" stroke="#000000" stroke-width="4.184400e-02" stroke-miterlimit="2.4142" d="
				M73.4,51.3c0,0,0.1-0.2,0.2-0.2c0.2,0,0.3,0.1,0.3,0.1S73.7,51.6,73.4,51.3L73.4,51.3z"/>
			<path fill-rule="evenodd" clip-rule="evenodd" stroke="#000000" stroke-width="4.184400e-02" stroke-miterlimit="2.4142" d="
				M73.6,51.1c-0.1,0-0.1,0.1-0.1,0.1s0.1,0.1,0.1,0.1c0.1,0,0.1-0.1,0.1-0.1S73.7,51.1,73.6,51.1L73.6,51.1z"/>
			<path d="M73.4,52.4c-0.1,0-0.4,0-0.6,0c0,0,0.1-0.1,0.2-0.1c0.1,0.1,0.1,0,0.2,0c0,0,0.1,0,0.1,0C73.3,52.3,73.3,52.4,73.4,52.4
				C73.4,52.4,73.4,52.4,73.4,52.4L73.4,52.4z M72.7,52.4c0.3,0.1,0.7,0,0.7,0l0,0l0,0c0,0,0-0.1-0.1-0.1c0,0-0.1,0-0.1-0.1
				c-0.1,0-0.1,0-0.1,0c0,0-0.1,0-0.2,0C72.9,52.2,72.7,52.4,72.7,52.4L72.7,52.4L72.7,52.4L72.7,52.4z"/>
			<path d="M73.4,52.5c0,0-0.1,0.1-0.1,0.1c-0.1,0-0.1,0-0.2,0c-0.1,0-0.1,0-0.2,0c0,0-0.1,0-0.1-0.1l0,0c0.1,0,0.1,0.1,0.1,0.1
				c0.1,0,0.1,0,0.2,0c0.1,0,0.2,0,0.2,0C73.4,52.6,73.4,52.5,73.4,52.5L73.4,52.5L73.4,52.5z"/>
			
				<path fill-rule="evenodd" clip-rule="evenodd" fill="#9B5F00" stroke="#000000" stroke-width="4.184400e-02" stroke-miterlimit="2.4142" d="
				M74.8,59.7c0,0-1.4,0.3-2.3,0.3c-1,0-1.7-0.2-1.7-0.2s0-0.6,0.1-0.7c0,0,0.6,0.3,1.7,0.2c1.1-0.1,2-0.3,2-0.3
				S74.8,59.3,74.8,59.7L74.8,59.7z"/>
			
				<path fill-rule="evenodd" clip-rule="evenodd" fill="#FFFFFF" stroke="#000000" stroke-width="4.184400e-02" stroke-miterlimit="2.4142" d="
				M71.3,60c0-0.1,0-0.7,0-0.7s0.1,0,0.2,0l0,0.7C71.5,60,71.4,60,71.3,60L71.3,60z"/>
			
				<path fill-rule="evenodd" clip-rule="evenodd" fill="#FFFFFF" stroke="#000000" stroke-width="4.184400e-02" stroke-miterlimit="2.4142" d="
				M73.5,59.3c0,0.1,0.1,0.6,0.1,0.7c0,0.1-0.1,0-0.1,0s-0.1-0.6-0.1-0.7C73.4,59.2,73.5,59.2,73.5,59.3L73.5,59.3z"/>
			
				<path fill-rule="evenodd" clip-rule="evenodd" fill="#FFFFFF" stroke="#000000" stroke-width="4.184400e-02" stroke-miterlimit="2.4142" d="
				M74.2,59.2c0,0,0.1,0.6,0.1,0.7c0,0.1,0.2,0,0.2,0c0,0-0.1-0.6-0.1-0.7C74.3,59.1,74.2,59.1,74.2,59.2L74.2,59.2z"/>
			<path fill-rule="evenodd" clip-rule="evenodd" fill="#5AC800" d="M51.8,72.9l0-0.6l0.2,0.2l0.1-0.5l0.3,0.2l0-0.6l0.4,0.5
				l0.1-0.6l0.3,0.7l0.2-0.5l0.2,0.7l0.2-0.3l0.2,0.6l0.4-0.6l0.3,0.6l0.5,0l0.1,0.4l0.3-0.4l0.3,0.2l0.5-0.1l0.3,0.2
				c0,0,0.2-0.5,0.5-0.1l0.2-0.4l0.3,0.4c0,0,0.1-0.8,0.4-0.3l0.2-0.6l0.4,0.3l0.1-0.3L59,73C59,73,56.4,74.3,51.8,72.9L51.8,72.9z"
				/>
			<path fill="#0E6F0E" d="M51.8,72.9l0-0.6v-0.1l0,0l0.2,0.2l0.1-0.5l0,0l0,0l0.2,0.2l0-0.5l0-0.1l0,0.1l0.4,0.5l0.1-0.6l0-0.1
				l0,0.1l0.3,0.6l0.2-0.4l0,0l0,0.1l0.2,0.7l0.1-0.3l0-0.1l0,0.1l0.1,0.5l0.3-0.5l0,0l0,0l0.3,0.6l0.5,0h0l0,0l0.1,0.3l0.2-0.3l0,0
				l0,0l0.3,0.2l0.5-0.1l0,0l0,0l0.3,0.2c0-0.1,0.2-0.5,0.5-0.1l0.2-0.3l0,0l0,0l0.3,0.3c0-0.2,0.1-0.7,0.4-0.3l0.2-0.5l0,0l0,0
				l0.4,0.3l0.1-0.3l0,0l0,0L59,73l0,0l-0.4-0.6l-0.1,0.3l0,0l0,0l-0.4-0.3L58,72.9l0,0.1l0,0c-0.3-0.5-0.3,0.3-0.3,0.3l0,0.1l0,0
				l-0.3-0.3L57,73.2l0,0l0,0c-0.3-0.4-0.4,0.1-0.4,0.1l0,0l0,0L56.3,73l-0.5,0.1l0,0l0,0l-0.3-0.2l-0.3,0.3l0,0l0,0l-0.1-0.3
				l-0.5,0h0l0,0l-0.2-0.6l-0.3,0.5l0,0l0,0l-0.1-0.5l-0.1,0.3l0,0.1l0-0.1l-0.2-0.7l-0.2,0.4l0,0l0,0l-0.3-0.6l-0.1,0.6l0,0l0,0
				l-0.4-0.5l0,0.5l0,0.1l0,0l-0.2-0.2l-0.1,0.5l0,0l0,0l-0.2-0.2L51.8,72.9L51.8,72.9L51.8,72.9z"/>
			<path fill-rule="evenodd" clip-rule="evenodd" fill="#5AC800" d="M67.1,72.9c0,0,0.3-0.4,0.3-0.4l0.3,0.5l0.2-0.2l0.2,0.2
				l0.3-0.2l0.2,0.2l0.5-0.2l0.2,0.2l0.7-0.1l0.3,0.2l0.2-0.4l0.2,0.3l0.4-0.4l0.3,0.3l0.4-0.4l0.3,0.1c0,0,0.2-0.2,0.2-0.4
				c0,0,0.2,0.1,0.2,0.3l0.3-0.3c0,0,0.2,0.3,0.1,0.5l0.5-0.3l0,0.7c0,0,0.1-0.2,0.4-0.4c0,0,0.1,0.3,0.1,0.8l0.3-0.2
				c0,0,0.1,0.2,0.1,0.4C74.1,73.6,70.6,74.3,67.1,72.9L67.1,72.9z"/>
			<path fill="#0E6F0E" d="M67.1,72.8c0,0,0.3-0.5,0.3-0.5l0,0l0,0l0.3,0.5l0.2-0.2l0,0l0,0l0.2,0.2l0.2-0.2l0,0l0,0l0.2,0.2
				l0.4-0.2l0,0l0,0l0.2,0.2l0.7-0.1l0,0l0,0l0.3,0.1l0.2-0.3l0,0l0,0l0.2,0.3l0.3-0.4l0,0l0,0l0.2,0.3l0.4-0.3l0,0l0,0l0.3,0.1
				c0,0,0.2-0.2,0.2-0.3l0,0l0,0c0,0,0.2,0.1,0.2,0.2l0.2-0.3l0,0l0,0c0,0,0.2,0.3,0.1,0.5l0.4-0.3l0,0l0,0l0,0.6
				c0.1-0.1,0.2-0.2,0.3-0.3l0,0l0,0c0,0,0.1,0.3,0.1,0.7l0.2-0.2l0,0l0,0c0,0,0.1,0.2,0.1,0.4l0,0c0-0.1-0.1-0.3-0.1-0.3l-0.3,0.2
				l0,0l0,0c0-0.3,0-0.6-0.1-0.7c-0.2,0.2-0.3,0.4-0.3,0.4l0,0.1l0-0.1l0-0.6l-0.4,0.3l0,0l0-0.1c0-0.2-0.1-0.4-0.1-0.5l-0.2,0.3
				l0,0l0,0c0-0.1-0.1-0.2-0.2-0.2c0,0.2-0.2,0.3-0.2,0.3l0,0l0,0l-0.3-0.1l-0.4,0.3l0,0l0,0L71,72.6L70.7,73l0,0l0,0l-0.2-0.3
				l-0.2,0.3l0,0l0,0l-0.3-0.2l-0.7,0.1l0,0l0,0l-0.2-0.2L68.6,73l0,0l0,0l-0.2-0.2L68.2,73l0,0l0,0l-0.2-0.2l-0.2,0.2l0,0l0,0
				l-0.3-0.4C67.4,72.5,67.2,72.8,67.1,72.8L67.1,72.8L67.1,72.8z"/>
			
				<path fill-rule="evenodd" clip-rule="evenodd" fill="#6699FF" stroke="#000000" stroke-width="6.276600e-02" stroke-miterlimit="2.4142" d="
				M60.3,79.5c0,0,0.6,0.8-0.1,1.5c0,0-2.3-0.3-2.6-0.5c-0.3-0.1-0.4-0.3-0.4-0.3l0.9,0l0.5-0.7l0.2-0.5L60.3,79.5L60.3,79.5z"/>
			<path fill-rule="evenodd" clip-rule="evenodd" fill="#6699FF" d="M53.2,78.3c2.6,0.1,3.7-0.5,6.3-1.3L58,75.2
				c0,0-0.5-0.1-0.5-0.1c0-0.1-1.1,1-1.1,1l-3.8,0.5L53.2,78.3L53.2,78.3z"/>
			
				<path fill-rule="evenodd" clip-rule="evenodd" fill="#FFFFFF" stroke="#000000" stroke-width="6.276600e-02" stroke-miterlimit="2.4142" d="
				M58.1,76.6c0.1-0.5-0.1-1.8-0.8-1.2c-0.2,0.2-0.4,0.4-0.4,0.4l-0.4-0.3c0,0,0.6-0.5,0.9-0.5c0.2-0.1,0.4,0,0.8,0.2
				c0.3,0.2,1.6,0.7,1.8,0.9c0.2,0.1,0.3,0.5,0.3,0.7c0,0.2,0,0.9,0,0.9S58.3,77.1,58.1,76.6L58.1,76.6z"/>
			
				<path fill-rule="evenodd" clip-rule="evenodd" fill="#FFFFFF" stroke="#000000" stroke-width="6.276600e-02" stroke-miterlimit="2.4142" d="
				M57.3,78.2c0,0-0.7,0.8-0.5,1.5c0.2,0.7,0.8,0.7,1.1,0.7s0.9-0.3,0.8-1.4L57.3,78.2L57.3,78.2z"/>
			
				<path fill-rule="evenodd" clip-rule="evenodd" fill="#FFFFFF" stroke="#000000" stroke-width="6.276600e-02" stroke-miterlimit="2.4142" d="
				M57.6,78.4c-0.1,0.1-0.9,1.3-0.1,1.6c0.8,0.3,1-0.7,0.8-1.2L57.6,78.4L57.6,78.4z"/>
			<path fill="#FFFFFF" d="M60.3,80C60.3,79.9,60.3,79.9,60.3,80C60.2,80,60.2,80,60.3,80c0,0.1,0,0.2,0,0.3c0,0.1-0.1,0.2-0.2,0.3
				c0,0,0,0,0,0.1c0,0,0,0,0.1,0c0.1-0.1,0.2-0.3,0.2-0.4C60.4,80.2,60.4,80,60.3,80L60.3,80z M59.6,79.8
				C59.6,79.8,59.5,79.8,59.6,79.8C59.5,79.8,59.5,79.8,59.6,79.8l0.6,0.4c0,0,0,0,0.1,0c0,0,0,0,0-0.1L59.6,79.8L59.6,79.8z
				 M59,79.7C59,79.7,58.9,79.7,59,79.7C58.9,79.8,58.9,79.8,59,79.7l1.2,0.6c0,0,0,0,0.1,0c0,0,0,0,0-0.1L59,79.7L59,79.7z
				 M59.2,80C59.2,80,59.2,80,59.2,80C59.1,80.1,59.2,80.1,59.2,80l0.9,0.5c0,0,0,0,0.1,0c0,0,0,0,0-0.1L59.2,80L59.2,80z"/>
			
				<path fill-rule="evenodd" clip-rule="evenodd" fill="#6699FF" stroke="#000000" stroke-width="6.276600e-02" stroke-miterlimit="2.4142" d="
				M65.7,79.5c0,0-0.6,0.8,0.1,1.5c0,0,2.3-0.3,2.6-0.5c0.3-0.1,0.4-0.3,0.4-0.3l-0.9,0l-0.5-0.7L67.3,79L65.7,79.5L65.7,79.5z"/>
			<path fill-rule="evenodd" clip-rule="evenodd" fill="#6699FF" d="M72.8,78.3c-2.6,0.1-3.7-0.5-6.3-1.3l1.5-1.8
				c0,0,0.5-0.1,0.5-0.1c0-0.1,1.1,1,1.1,1l3.8,0.5L72.8,78.3L72.8,78.3z"/>
			
				<path fill-rule="evenodd" clip-rule="evenodd" fill="#FFFFFF" stroke="#000000" stroke-width="6.276600e-02" stroke-miterlimit="2.4142" d="
				M67.9,76.6c-0.1-0.5,0.1-1.8,0.8-1.2c0.2,0.2,0.4,0.4,0.4,0.4l0.4-0.3c0,0-0.6-0.5-0.9-0.5c-0.2-0.1-0.4,0-0.8,0.2
				c-0.3,0.2-1.6,0.7-1.8,0.9c-0.2,0.1-0.3,0.5-0.4,0.7c0,0.2,0,0.9,0,0.9S67.7,77.1,67.9,76.6L67.9,76.6z"/>
			
				<path fill-rule="evenodd" clip-rule="evenodd" fill="#FFFFFF" stroke="#000000" stroke-width="6.276600e-02" stroke-miterlimit="2.4142" d="
				M68.7,78.2c0,0,0.7,0.8,0.5,1.5c-0.2,0.7-0.8,0.7-1.1,0.7c-0.3,0-0.9-0.3-0.8-1.4L68.7,78.2L68.7,78.2z"/>
			
				<path fill-rule="evenodd" clip-rule="evenodd" fill="#FFFFFF" stroke="#000000" stroke-width="6.276600e-02" stroke-miterlimit="2.4142" d="
				M68.4,78.4c0.1,0.1,0.9,1.3,0.1,1.6c-0.8,0.3-1-0.7-0.8-1.2L68.4,78.4L68.4,78.4z"/>
			<path fill="#FFFFFF" d="M65.7,80C65.7,79.9,65.7,79.9,65.7,80C65.8,80,65.8,80,65.7,80c0,0.1,0,0.2,0,0.3c0,0.1,0.1,0.2,0.2,0.3
				c0,0,0,0,0,0.1c0,0,0,0-0.1,0c-0.1-0.1-0.2-0.3-0.2-0.4C65.6,80.2,65.6,80,65.7,80L65.7,80z M66.4,79.8
				C66.4,79.8,66.5,79.8,66.4,79.8C66.5,79.8,66.5,79.8,66.4,79.8l-0.6,0.4c0,0,0,0-0.1,0c0,0,0,0,0-0.1L66.4,79.8L66.4,79.8z
				 M67,79.7C67,79.7,67.1,79.7,67,79.7C67.1,79.8,67.1,79.8,67,79.7l-1.2,0.6c0,0,0,0-0.1,0c0,0,0,0,0-0.1L67,79.7L67,79.7z
				 M66.8,80C66.8,80,66.8,80,66.8,80C66.9,80.1,66.8,80.1,66.8,80l-0.9,0.5c0,0,0,0-0.1,0c0,0,0,0,0-0.1L66.8,80L66.8,80z"/>
			
				<path fill-rule="evenodd" clip-rule="evenodd" fill="#FFFFFF" stroke="#000000" stroke-width="6.276600e-02" stroke-miterlimit="2.4142" d="
				M63,77.8c-1.2,0-3.4-0.2-5.3-1.6c-1.8-1.4-3.8-1.9-4.6-1.5c-0.8,0.4-1.4,1-1.4,1s0.8,1.9,1.1,2.4c0.2,0.5,1.2,1,3.9-0.1l-0.4-0.3
				c0,0-1.8,0.7-2.8,0.2c-1-0.5-0.4-1.2,0.4-1.2c0.8,0,2.5,1,2.5,1l0.4,0.3c0,0,2.8,2.1,6.3,2c3.5,0,6.3-2,6.3-2l0.4-0.3
				c0,0,1.7-1,2.5-1c0.8,0,1.3,0.7,0.4,1.2c-1,0.5-2.8-0.2-2.8-0.2L69.3,78c2.7,1.1,3.7,0.6,3.9,0.1c0.2-0.5,1.1-2.4,1.1-2.4
				s-0.5-0.6-1.4-1c-0.8-0.4-2.8,0.1-4.6,1.5C66.4,77.6,64.2,77.8,63,77.8L63,77.8z"/>
			<path d="M55.2,75.3l0,0.4l-0.2,0c0-0.1,0-0.2-0.1-0.3c0-0.1-0.1-0.1-0.2-0.1c0,0-0.1,0-0.1,0c0,0-0.1,0-0.1,0.1c0,0,0,0.1,0,0.1
				c0,0,0,0.1,0.1,0.1l0.2,0.1c0.1,0.1,0.2,0.1,0.2,0.2c0,0.1,0,0.2,0,0.2c0,0.1-0.1,0.2-0.2,0.2c-0.1,0.1-0.2,0.1-0.3,0
				c-0.1,0-0.1,0-0.1-0.1c0,0-0.1-0.1-0.1-0.1l-0.1,0.1l-0.1,0l0.1-0.5l0.2,0c0,0.1,0,0.2,0.1,0.3c0.1,0.1,0.1,0.1,0.2,0.2
				c0,0,0.1,0,0.1,0c0,0,0.1,0,0.1,0c0,0,0,0,0-0.1c0,0,0-0.1,0-0.1c0,0-0.1-0.1-0.1-0.1l-0.2-0.1c0,0-0.1,0-0.1-0.1
				c0,0-0.1-0.1-0.1-0.1c0,0,0-0.1,0-0.1c0,0,0-0.1,0-0.1c0-0.1,0.1-0.1,0.1-0.2c0,0,0.1-0.1,0.2-0.1c0.1,0,0.1,0,0.2,0
				c0.1,0,0.2,0.1,0.2,0.2l0-0.1L55.2,75.3L55.2,75.3z M55.7,75.5l0.5,0.3l-0.1,0.2l0,0c0,0,0,0-0.1,0c0,0,0,0,0,0c0,0,0,0,0,0.1
				l-0.2,0.4c0,0.1-0.1,0.1-0.1,0.2c0,0,0,0.1,0,0.1c0,0,0,0.1,0.1,0.1c0,0,0.1,0,0.1,0c0,0,0.1,0,0.1,0c0,0,0.1-0.1,0.1-0.2
				l0.2-0.4c0,0,0,0,0,0c0,0,0,0,0,0c0,0,0,0,0,0l0,0l0.1-0.2l0.4,0.2l-0.1,0.2l0,0c0,0-0.1,0-0.1,0c0,0,0,0,0,0c0,0,0,0,0,0.1
				l-0.2,0.4c0,0.1-0.1,0.1-0.1,0.2c-0.1,0.1-0.1,0.1-0.2,0.1c-0.1,0-0.2,0-0.3-0.1c-0.1,0-0.1-0.1-0.1-0.1c0,0-0.1-0.1-0.1-0.2
				c0-0.1,0-0.1,0-0.2c0-0.1,0-0.1,0.1-0.2l0.2-0.4c0,0,0-0.1,0-0.1c0,0,0,0,0,0c0,0,0,0,0,0l0,0L55.7,75.5L55.7,75.5z M56.8,76.3
				l0.1-0.1l0.5,0.3c0.1,0.1,0.1,0.1,0.2,0.2c0,0.1,0,0.1,0,0.2c0,0.1,0,0.1,0,0.2c0,0,0,0.1-0.1,0.1c0,0-0.1,0-0.1,0.1
				c0,0-0.1,0-0.1,0c0,0,0.1,0.1,0.1,0.1c0,0,0,0.1,0,0.1c0,0.1,0,0.1-0.1,0.1c0,0.1-0.1,0.1-0.1,0.1c-0.1,0-0.1,0-0.2,0
				c-0.1,0-0.2,0-0.3-0.1l-0.5-0.3l0.1-0.1l0,0c0,0,0,0,0.1,0c0,0,0,0,0,0c0,0,0,0,0-0.1l0.4-0.6C56.9,76.4,56.9,76.4,56.8,76.3
				C56.9,76.4,56.9,76.4,56.8,76.3C56.9,76.3,56.8,76.3,56.8,76.3L56.8,76.3L56.8,76.3z M56.9,76.8l0.1,0.1c0.1,0,0.1,0.1,0.1,0.1
				c0,0,0.1,0,0.1,0c0,0,0,0,0.1-0.1c0,0,0-0.1,0-0.1s0-0.1,0-0.1c0,0-0.1-0.1-0.1-0.1l-0.1-0.1L56.9,76.8L56.9,76.8z M56.8,76.9
				l-0.1,0.2c0,0,0,0.1,0,0.1c0,0,0,0,0,0c0,0,0,0,0,0l0.1,0c0,0,0.1,0,0.1,0.1c0,0,0.1,0,0.1,0c0,0,0.1,0,0.1-0.1c0,0,0-0.1,0-0.1
				c0,0,0-0.1,0-0.1c0,0-0.1-0.1-0.1-0.1L56.8,76.9L56.8,76.9z M58.7,77.3l0.5,0.2l-0.1,0.2l0,0c0,0,0,0-0.1,0c0,0,0,0,0,0
				c0,0,0,0,0,0.1l-0.2,0.4c0,0.1-0.1,0.1-0.1,0.2c0,0,0,0.1,0,0.1c0,0,0,0.1,0.1,0.1c0,0,0.1,0,0.1,0c0,0,0.1,0,0.1-0.1
				c0,0,0.1-0.1,0.1-0.2l0.2-0.5c0,0,0,0,0,0c0,0,0,0,0,0c0,0,0,0,0,0l0,0l0.1-0.2l0.4,0.2l-0.1,0.2l0,0c0,0-0.1,0-0.1,0
				c0,0,0,0,0,0c0,0,0,0,0,0.1l-0.2,0.5c0,0.1-0.1,0.1-0.1,0.2c-0.1,0.1-0.1,0.1-0.2,0.1c-0.1,0-0.2,0-0.3,0c-0.1,0-0.1-0.1-0.2-0.1
				c0,0-0.1-0.1-0.1-0.2c0-0.1,0-0.1,0-0.2c0-0.1,0-0.1,0.1-0.2l0.2-0.4c0,0,0-0.1,0-0.1c0,0,0,0,0,0c0,0,0,0,0,0l0,0L58.7,77.3
				L58.7,77.3z M59.7,77.8l0.5,0.1l0,0.8l0.4-0.7l0.5,0.1l0,0.2l-0.1,0c0,0-0.1,0-0.1,0c0,0,0,0,0,0.1L60.7,79c0,0,0,0.1,0,0.1
				c0,0,0,0,0,0c0,0,0,0,0,0l0.1,0l0,0.2l-0.5-0.1l0-0.2l0,0c0,0,0,0,0.1,0c0,0,0,0,0,0c0,0,0,0,0-0.1l0.2-0.8l-0.5,1l-0.1,0l0-1.1
				l-0.2,0.8c0,0,0,0,0,0c0,0,0,0,0,0c0,0,0,0,0,0l0.1,0l0,0.2L59.5,79l0-0.2l0,0c0,0,0,0,0.1,0c0,0,0,0,0,0c0,0,0,0,0-0.1l0.2-0.7
				c0,0,0-0.1,0-0.1c0,0,0,0,0,0c0,0,0,0,0,0l-0.1,0L59.7,77.8L59.7,77.8z M61.1,78.3l0-0.2l0.6,0.1c0.1,0,0.2,0,0.2,0.1
				c0.1,0,0.1,0.1,0.1,0.1c0,0.1,0,0.1,0,0.2c0,0,0,0.1,0,0.1c0,0,0,0.1-0.1,0.1c0,0-0.1,0-0.1,0.1c0,0,0.1,0,0.1,0.1
				c0,0,0.1,0.1,0.1,0.1c0,0,0,0.1,0,0.2c0,0.1,0,0.1-0.1,0.2c0,0.1-0.1,0.1-0.2,0.1c-0.1,0-0.2,0-0.3,0L61,79.4l0-0.2l0,0
				c0,0,0,0,0.1,0c0,0,0,0,0,0c0,0,0,0,0-0.1l0.1-0.7c0,0,0-0.1,0-0.1C61.2,78.3,61.2,78.3,61.1,78.3C61.2,78.3,61.2,78.3,61.1,78.3
				L61.1,78.3L61.1,78.3z M61.5,78.7l0.1,0c0.1,0,0.1,0,0.1,0c0,0,0.1,0,0.1,0c0,0,0-0.1,0-0.1c0,0,0-0.1,0-0.1c0,0,0,0-0.1-0.1
				c0,0-0.1,0-0.1,0l-0.1,0L61.5,78.7L61.5,78.7z M61.5,78.9l0,0.3c0,0,0,0.1,0,0.1c0,0,0,0,0,0c0,0,0,0,0,0l0.1,0c0,0,0.1,0,0.1,0
				c0,0,0.1,0,0.1-0.1c0,0,0-0.1,0-0.1c0,0,0-0.1,0-0.1c0,0,0,0-0.1-0.1c0,0-0.1,0-0.1,0L61.5,78.9L61.5,78.9z M62.2,78.3l0.7,0
				c0,0,0.1,0,0.1,0c0.1,0,0.1,0,0.1,0.1c0,0,0.1,0.1,0.1,0.1c0,0,0,0.1,0,0.2c0,0.1,0,0.2-0.1,0.2C63.1,78.9,63.1,79,63,79l0.2,0.3
				l0,0c0,0,0,0,0,0c0,0,0,0,0,0c0,0,0,0,0.1,0h0l0,0.2l-0.4,0L62.7,79l-0.1,0l0,0.3c0,0,0,0.1,0,0.1c0,0,0,0,0,0c0,0,0,0,0.1,0h0.1
				l0,0.2l-0.5,0l0-0.2l0,0c0,0,0,0,0.1,0c0,0,0,0,0,0c0,0,0,0,0-0.1l0-0.7c0,0,0,0,0-0.1c0,0,0,0,0,0c0,0,0,0,0,0l0,0l0,0
				L62.2,78.3L62.2,78.3z M62.6,78.5l0,0.3l0.2,0c0.1,0,0.1,0,0.1,0c0,0,0.1,0,0.1-0.1c0,0,0-0.1,0-0.1c0,0,0-0.1,0-0.1
				c0,0,0,0-0.1-0.1c0,0-0.1,0-0.1,0L62.6,78.5L62.6,78.5z M63.8,78.2l0.2,0l0.4,1c0,0.1,0,0.1,0.1,0.1s0,0,0.1,0l0,0.2l-0.5,0
				l0-0.2l0,0c0,0,0,0,0.1,0c0,0,0,0,0,0c0,0,0,0,0-0.1l0-0.1l-0.3,0l0,0.1c0,0,0,0,0,0.1c0,0,0,0,0,0c0,0,0,0,0,0c0,0,0,0,0.1,0
				l0,0.2l-0.4,0l0-0.2c0,0,0,0,0.1,0c0,0,0,0,0,0c0,0,0,0,0-0.1L63.8,78.2L63.8,78.2z M63.8,78.9l0.2,0l-0.1-0.3L63.8,78.9
				L63.8,78.9z M65.4,78l0.9-0.3l0.2,0.3l-0.1,0.1c0,0-0.1-0.1-0.1-0.1c0,0-0.1,0-0.1,0c0,0-0.1,0-0.1,0c0,0-0.1,0-0.1,0l-0.1,0
				l0.1,0.3l0.1,0c0,0,0,0,0.1,0c0,0,0,0,0,0c0,0,0,0,0-0.1l0-0.1l0.1,0l0.2,0.5l-0.1,0l0-0.1c0,0,0,0,0,0c0,0,0,0,0,0c0,0,0,0,0,0
				c0,0,0,0-0.1,0l-0.1,0l0.1,0.3c0,0,0,0.1,0,0.1c0,0,0,0,0,0c0,0,0,0,0.1,0l0,0l0.1,0.2l-0.5,0.2l-0.1-0.2l0,0c0,0,0.1,0,0.1,0
				c0,0,0,0,0-0.1l-0.2-0.7c0,0,0-0.1,0-0.1c0,0,0,0,0,0c0,0,0,0-0.1,0l0,0L65.4,78L65.4,78z M66.4,77.7l0.5-0.2l0.1,0.2l0,0
				c0,0,0,0,0,0c0,0,0,0,0,0c0,0,0,0,0,0.1l0.3,0.7c0,0,0,0,0,0s0,0,0,0c0,0,0,0,0,0c0.1,0,0.1-0.1,0.1-0.1c0,0,0.1-0.1,0.1-0.1
				c0-0.1,0-0.1,0-0.2l0.2,0l0.1,0.5L67,78.8l-0.1-0.2l0,0c0,0,0,0,0,0c0,0,0,0,0,0c0,0,0,0,0-0.1l-0.3-0.7c0,0,0,0,0-0.1
				c0,0,0,0,0,0c0,0,0,0,0,0l-0.1,0L66.4,77.7L66.4,77.7z M67.7,76.9c0.1-0.1,0.3-0.1,0.5-0.1c0.2,0,0.3,0.1,0.4,0.3
				c0.1,0.1,0.1,0.2,0.1,0.3c0,0.1,0,0.2-0.1,0.3c0,0.1-0.1,0.2-0.2,0.2c-0.1,0.1-0.3,0.1-0.4,0.1c-0.2,0-0.3-0.1-0.4-0.3
				c-0.1-0.2-0.1-0.3-0.1-0.5C67.5,77.2,67.6,77,67.7,76.9L67.7,76.9z M67.8,77.1c-0.1,0-0.1,0.1-0.1,0.2c0,0.1,0,0.2,0.1,0.3
				c0.1,0.1,0.2,0.2,0.3,0.2c0.1,0,0.2,0,0.2,0c0.1,0,0.1-0.1,0.1-0.2c0-0.1,0-0.2-0.1-0.3c-0.1-0.1-0.1-0.2-0.2-0.2
				c-0.1,0-0.1-0.1-0.2-0.1C67.9,77.1,67.9,77.1,67.8,77.1L67.8,77.1z M68.4,76.5l0.6-0.4c0,0,0.1,0,0.1-0.1c0,0,0.1,0,0.2,0
				c0.1,0,0.1,0,0.1,0.1c0,0,0.1,0.1,0.1,0.1c0,0.1,0.1,0.2,0,0.2s-0.1,0.2-0.1,0.2l0.4,0.1l0,0c0,0,0,0,0.1,0c0,0,0,0,0,0
				c0,0,0,0,0,0l0,0l0.1,0.2l-0.3,0.2l-0.6-0.3l-0.1,0l0.1,0.2c0,0,0,0.1,0,0.1c0,0,0,0,0,0c0,0,0,0,0.1,0l0,0l0.1,0.2L69,77.6
				l-0.1-0.2l0,0c0,0,0,0,0,0c0,0,0,0,0,0c0,0,0,0,0-0.1l-0.4-0.6c0,0,0,0,0,0c0,0,0,0,0,0c0,0,0,0,0,0l0,0l0,0L68.4,76.5L68.4,76.5
				z M68.8,76.5l0.2,0.3l0.1-0.1c0.1,0,0.1-0.1,0.1-0.1c0,0,0-0.1,0-0.1s0-0.1,0-0.1c0,0,0,0-0.1-0.1s-0.1,0-0.1,0
				c0,0-0.1,0-0.1,0.1L68.8,76.5L68.8,76.5z M69.7,75.7l0.9-0.3l0.3,0.3l-0.1,0.1c0-0.1-0.1-0.1-0.1-0.1s-0.1,0-0.1,0
				c0,0-0.1,0-0.1,0l-0.2,0.1l0.1,0.3l0.1,0c0,0,0.1,0,0.1,0c0,0,0,0,0,0c0,0,0,0,0-0.1l0,0l0.1,0l0.2,0.5l-0.1,0.1l0-0.1
				c0,0,0-0.1,0-0.1c0,0,0,0,0,0c0,0,0,0-0.1,0l0,0l0.1,0.3c0,0,0,0,0,0.1c0,0,0,0,0,0c0,0,0,0,0,0l0.1,0c0.1,0,0.1-0.1,0.2-0.1
				c0,0,0.1-0.1,0.1-0.1c0-0.1,0-0.1,0-0.2l0.2,0l0,0.5l-0.9,0.3l-0.1-0.2l0,0c0,0,0.1,0,0.1,0c0,0,0,0,0,0c0,0,0,0,0-0.1l-0.2-0.6
				c0,0,0-0.1,0-0.1c0,0,0,0,0,0c0,0,0,0-0.1,0l0,0L69.7,75.7L69.7,75.7z M71.7,75.1c0.2,0,0.3,0,0.4,0.1c0.1,0.1,0.2,0.3,0.2,0.4
				c0,0.1,0,0.2,0,0.4c0,0.1-0.1,0.2-0.2,0.3c-0.1,0.1-0.2,0.1-0.3,0.1c-0.2,0-0.3,0-0.4-0.1c-0.1-0.1-0.2-0.3-0.3-0.5
				c0-0.2,0-0.4,0.1-0.5C71.4,75.2,71.5,75.1,71.7,75.1L71.7,75.1z M71.7,75.3c-0.1,0-0.1,0.1-0.2,0.1c0,0.1-0.1,0.2,0,0.4
				c0,0.1,0.1,0.2,0.1,0.3c0.1,0.1,0.1,0.1,0.2,0.1c0.1,0,0.1-0.1,0.2-0.1c0-0.1,0.1-0.2,0-0.4c0-0.1,0-0.2-0.1-0.2
				c0-0.1-0.1-0.1-0.1-0.1C71.8,75.3,71.8,75.3,71.7,75.3L71.7,75.3z"/>
			<path fill="#730000" d="M63,41.1c6,0,11.5,2.5,15.5,6.4c4,4,6.4,9.4,6.4,15.5c0,6-2.5,11.5-6.4,15.5c-4,4-9.4,6.4-15.5,6.4
				c-6,0-11.5-2.5-15.5-6.4c-4-4-6.4-9.4-6.4-15.5c0-6,2.5-11.5,6.4-15.5C51.5,43.6,57,41.1,63,41.1L63,41.1z M78.2,47.8
				c-3.9-3.9-9.2-6.3-15.2-6.3c-5.9,0-11.3,2.4-15.2,6.3c-3.9,3.9-6.3,9.2-6.3,15.2c0,5.9,2.4,11.3,6.3,15.2
				c3.9,3.9,9.2,6.3,15.2,6.3c5.9,0,11.3-2.4,15.2-6.3c3.9-3.9,6.3-9.2,6.3-15.2C84.5,57.1,82.1,51.7,78.2,47.8L78.2,47.8z"/>
			<path fill-rule="evenodd" clip-rule="evenodd" fill="#007F00" d="M60.6,40c0,0,1.2-0.2,1.8,0.4c0.6,0.7,0.7,0.9,1.2,1.1
				c0,0-0.5,0.2-1.3,1.1c-0.8,0.9-1.9,0.5-1.9,0.5s1,1.2,2.2,0.6c1.2-0.6,1.5-1.5,1.7-2.2c0,0-0.1-1.6-1.4-2.2
				C61.5,38.8,60.6,40,60.6,40L60.6,40z"/>
			<path fill-rule="evenodd" clip-rule="evenodd" fill="#005800" d="M60.6,40C60.6,40,60.6,40,60.6,40c0.9-0.7,1.9-0.9,2.7,0.1
				c0.3,0.4,0.7,1,0.9,1.5c0,0-0.1-1.6-1.4-2.2C61.5,38.8,60.6,40,60.6,40L60.6,40z"/>
			<path fill-rule="evenodd" clip-rule="evenodd" fill="#005800" d="M63.6,41.5c0,0-0.5,0.2-1.3,1.1c-0.8,0.9-1.9,0.5-1.9,0.5
				c0.8,0.5,1.6,0,2.2-0.5C63.1,42.3,63.3,42.1,63.6,41.5L63.6,41.5z"/>
			<path fill-rule="evenodd" clip-rule="evenodd" fill="#007F00" d="M54.5,41.3c0,0,1.1-0.5,1.9,0c0.7,0.5,0.9,0.7,1.5,0.7
				c0,0-0.4,0.3-1,1.4c-0.6,1-1.7,1-1.7,1s1.2,0.9,2.2,0c1-0.9,1.1-1.8,1.1-2.5c0,0-0.5-1.6-1.9-1.8C55.1,40,54.5,41.3,54.5,41.3
				L54.5,41.3z"/>
			<path fill-rule="evenodd" clip-rule="evenodd" fill="#005800" d="M54.5,41.3C54.5,41.3,54.5,41.3,54.5,41.3
				c0.7-0.9,1.7-1.4,2.7-0.6c0.4,0.3,0.9,0.8,1.3,1.2c0,0-0.5-1.6-1.9-1.8C55.1,40,54.5,41.3,54.5,41.3L54.5,41.3z"/>
			<path fill-rule="evenodd" clip-rule="evenodd" fill="#005800" d="M57.8,42c0,0-0.4,0.3-1,1.4c-0.6,1-1.7,1-1.7,1
				c0.9,0.3,1.5-0.4,2-1.1C57.4,42.9,57.6,42.6,57.8,42L57.8,42z"/>
			<path fill-rule="evenodd" clip-rule="evenodd" fill="#007F00" d="M49.5,43.6c0,0,1-0.7,1.8-0.3c0.8,0.4,1,0.5,1.6,0.5
				c0,0-0.4,0.4-0.7,1.5c-0.4,1.1-1.5,1.3-1.5,1.3s1.4,0.7,2.2-0.3c0.9-1,0.7-2,0.6-2.7c0,0-0.7-1.5-2.2-1.4
				C49.8,42.2,49.5,43.6,49.5,43.6L49.5,43.6z"/>
			<path fill-rule="evenodd" clip-rule="evenodd" fill="#005800" d="M49.5,43.6C49.5,43.6,49.5,43.6,49.5,43.6c0.6-1,1.4-1.6,2.5-1
				c0.5,0.3,1,0.6,1.5,1c0,0-0.7-1.5-2.2-1.4C49.8,42.2,49.5,43.6,49.5,43.6L49.5,43.6z"/>
			<path fill-rule="evenodd" clip-rule="evenodd" fill="#005800" d="M52.9,43.8c0,0-0.4,0.4-0.7,1.5c-0.4,1.1-1.5,1.3-1.5,1.3
				c1,0.1,1.4-0.7,1.8-1.4C52.7,44.7,52.8,44.4,52.9,43.8L52.9,43.8z"/>
			<path fill-rule="evenodd" clip-rule="evenodd" fill="#007F00" d="M45.7,47c0,0,0.8-1,1.7-0.8c0.9,0.2,1.1,0.3,1.6,0.1
				c0,0-0.3,0.5-0.4,1.6c-0.1,1.2-1.2,1.6-1.2,1.6s1.5,0.3,2.1-0.9c0.6-1.2,0.2-2.1,0-2.7c0,0-1.1-1.2-2.5-0.8
				C45.7,45.5,45.7,47,45.7,47L45.7,47z"/>
			<path fill-rule="evenodd" clip-rule="evenodd" fill="#005800" d="M45.7,47C45.7,47,45.7,47,45.7,47c0.3-1.1,1-1.9,2.2-1.6
				c0.5,0.1,1.2,0.3,1.7,0.6c0,0-1.1-1.2-2.5-0.8C45.7,45.5,45.7,47,45.7,47L45.7,47z"/>
			<path fill-rule="evenodd" clip-rule="evenodd" fill="#005800" d="M49,46.3c0,0-0.3,0.5-0.4,1.6c-0.1,1.2-1.2,1.6-1.2,1.6
				c1-0.1,1.2-1,1.4-1.8C49,47.3,49.1,46.9,49,46.3L49,46.3z"/>
			<path fill-rule="evenodd" clip-rule="evenodd" fill="#007F00" d="M42.3,51.1c0,0,0.7-1.1,1.6-1c0.9,0.1,1.2,0.1,1.6-0.1
				c0,0-0.2,0.5-0.1,1.7s-0.9,1.7-0.9,1.7s1.5,0.1,1.9-1.2c0.4-1.3-0.1-2.1-0.4-2.7c0,0-1.2-1.1-2.6-0.5
				C42.1,49.6,42.3,51.1,42.3,51.1L42.3,51.1z"/>
			<path fill-rule="evenodd" clip-rule="evenodd" fill="#005800" d="M42.3,51.1C42.3,51.1,42.3,51.1,42.3,51.1
				c0.2-1.2,0.7-2.1,1.9-1.9c0.5,0.1,1.2,0.2,1.7,0.3c0,0-1.2-1.1-2.6-0.5C42.1,49.6,42.3,51.1,42.3,51.1L42.3,51.1z"/>
			<path fill-rule="evenodd" clip-rule="evenodd" fill="#005800" d="M45.5,49.9c0,0-0.2,0.5-0.1,1.7s-0.9,1.7-0.9,1.7
				c1-0.3,1.1-1.1,1.1-2C45.7,50.8,45.7,50.5,45.5,49.9L45.5,49.9z"/>
			<path fill-rule="evenodd" clip-rule="evenodd" fill="#007F00" d="M40.2,56.5c0,0,0.4-1.2,1.2-1.4c0.9-0.2,1.2-0.2,1.5-0.6
				c0,0,0,0.5,0.3,1.6c0.4,1.1-0.4,1.9-0.4,1.9s1.5-0.3,1.5-1.6c0-1.3-0.6-2-1.2-2.5c0,0-1.5-0.7-2.6,0.2
				C39.6,55.1,40.2,56.5,40.2,56.5L40.2,56.5z"/>
			<path fill-rule="evenodd" clip-rule="evenodd" fill="#005800" d="M40.2,56.5C40.2,56.5,40.2,56.5,40.2,56.5
				c-0.2-1.2,0.1-2.2,1.3-2.4c0.5-0.1,1.2-0.2,1.7-0.2c0,0-1.5-0.7-2.6,0.2C39.6,55.1,40.2,56.5,40.2,56.5L40.2,56.5z"/>
			<path fill-rule="evenodd" clip-rule="evenodd" fill="#005800" d="M43,54.5c0,0,0,0.5,0.3,1.6c0.4,1.1-0.4,1.9-0.4,1.9
				c0.8-0.5,0.7-1.4,0.6-2.2C43.4,55.3,43.3,55,43,54.5L43,54.5z"/>
			<path fill-rule="evenodd" clip-rule="evenodd" fill="#007F00" d="M39.8,62.3c0,0-0.1-1.3,0.6-1.8c0.7-0.5,1-0.7,1.2-1.1
				c0,0,0.2,0.5,1,1.4c0.8,0.9,0.4,1.9,0.4,1.9s1.3-0.9,0.8-2.1c-0.5-1.2-1.4-1.6-2-1.8c0,0-1.6-0.1-2.3,1.2
				C38.8,61.3,39.8,62.3,39.8,62.3L39.8,62.3z"/>
			<path fill-rule="evenodd" clip-rule="evenodd" fill="#005800" d="M39.8,62.3C39.8,62.3,39.8,62.3,39.8,62.3c-0.6-1-0.8-2,0.3-2.7
				c0.4-0.3,1.1-0.6,1.5-0.8c0,0-1.6-0.1-2.3,1.2C38.8,61.3,39.8,62.3,39.8,62.3L39.8,62.3z"/>
			<path fill-rule="evenodd" clip-rule="evenodd" fill="#005800" d="M41.6,59.4c0,0,0.2,0.5,1,1.4c0.8,0.9,0.4,1.9,0.4,1.9
				c0.6-0.8,0.1-1.6-0.3-2.2C42.3,60,42.1,59.8,41.6,59.4L41.6,59.4z"/>
			<path fill-rule="evenodd" clip-rule="evenodd" fill="#007F00" d="M40.8,67.9c0,0-0.6-1.1-0.1-1.9c0.5-0.7,0.7-1,0.7-1.5
				c0,0,0.3,0.4,1.4,1c1,0.5,1,1.7,1,1.7s0.9-1.2,0-2.2c-0.9-1-1.9-1-2.5-1c0,0-1.6,0.5-1.7,1.9C39.5,67.3,40.8,67.9,40.8,67.9
				L40.8,67.9z"/>
			<path fill-rule="evenodd" clip-rule="evenodd" fill="#005800" d="M40.8,67.9C40.8,67.9,40.8,67.8,40.8,67.9
				c-0.9-0.7-1.4-1.6-0.6-2.7c0.3-0.4,0.8-0.9,1.2-1.3c0,0-1.6,0.5-1.7,1.9C39.5,67.3,40.8,67.9,40.8,67.9L40.8,67.9z"/>
			<path fill-rule="evenodd" clip-rule="evenodd" fill="#005800" d="M41.5,64.5c0,0,0.3,0.4,1.4,1c1,0.5,1,1.7,1,1.7
				c0.3-1-0.4-1.5-1.1-2C42.4,64.9,42.1,64.7,41.5,64.5L41.5,64.5z"/>
			<path fill-rule="evenodd" clip-rule="evenodd" fill="#007F00" d="M42.4,73.1c0,0-0.7-1-0.3-1.8c0.4-0.8,0.5-1,0.5-1.6
				c0,0,0.4,0.4,1.5,0.7c1.1,0.4,1.2,1.5,1.2,1.5s0.7-1.4-0.3-2.2c-1-0.9-2-0.7-2.7-0.6c0,0-1.5,0.7-1.4,2.2
				C40.9,72.8,42.4,73.1,42.4,73.1L42.4,73.1z"/>
			<path fill-rule="evenodd" clip-rule="evenodd" fill="#005800" d="M42.4,73.1C42.4,73.1,42.4,73.1,42.4,73.1c-1-0.6-1.6-1.4-1-2.5
				c0.3-0.5,0.6-1,1-1.5c0,0-1.5,0.7-1.4,2.2C40.9,72.8,42.4,73.1,42.4,73.1L42.4,73.1z"/>
			<path fill-rule="evenodd" clip-rule="evenodd" fill="#005800" d="M42.5,69.7c0,0,0.4,0.4,1.5,0.7c1.1,0.4,1.2,1.5,1.2,1.5
				c0.1-1-0.6-1.4-1.4-1.8C43.4,70,43.1,69.8,42.5,69.7L42.5,69.7z"/>
			<path fill-rule="evenodd" clip-rule="evenodd" fill="#007F00" d="M45.3,77.9c0,0-0.9-0.9-0.7-1.8c0.2-0.9,0.3-1.1,0.2-1.6
				c0,0,0.5,0.3,1.6,0.5c1.2,0.2,1.5,1.3,1.5,1.3s0.4-1.5-0.7-2.1c-1.2-0.7-2.1-0.4-2.7-0.2c0,0-1.3,1-1,2.4
				C43.8,77.8,45.3,77.9,45.3,77.9L45.3,77.9z"/>
			<path fill-rule="evenodd" clip-rule="evenodd" fill="#005800" d="M45.3,77.9C45.3,77.9,45.3,77.9,45.3,77.9
				c-1.1-0.4-1.9-1.1-1.5-2.3c0.2-0.5,0.4-1.1,0.7-1.6c0,0-1.3,1-1,2.4C43.8,77.8,45.3,77.9,45.3,77.9L45.3,77.9z"/>
			<path fill-rule="evenodd" clip-rule="evenodd" fill="#005800" d="M44.9,74.5c0,0,0.5,0.3,1.6,0.5c1.2,0.2,1.5,1.3,1.5,1.3
				c-0.1-1-0.9-1.3-1.7-1.5C45.8,74.6,45.5,74.5,44.9,74.5L44.9,74.5z"/>
			<path fill-rule="evenodd" clip-rule="evenodd" fill="#007F00" d="M49.1,82.2c0,0-1-0.8-0.8-1.7c0.2-0.9,0.2-1.2,0-1.6
				c0,0,0.5,0.2,1.6,0.3c1.2,0.1,1.6,1.1,1.6,1.1s0.3-1.5-0.9-2c-1.2-0.5-2.1-0.2-2.7,0.1c0,0-1.2,1.1-0.8,2.5
				C47.6,82.3,49.1,82.2,49.1,82.2L49.1,82.2z"/>
			<path fill-rule="evenodd" clip-rule="evenodd" fill="#005800" d="M49.1,82.2C49.1,82.2,49.1,82.2,49.1,82.2
				c-1.1-0.3-2-0.9-1.7-2.1c0.1-0.5,0.3-1.2,0.5-1.7c0,0-1.2,1.1-0.8,2.5C47.6,82.3,49.1,82.2,49.1,82.2L49.1,82.2z"/>
			<path fill-rule="evenodd" clip-rule="evenodd" fill="#005800" d="M48.3,78.9c0,0,0.5,0.2,1.6,0.3c1.2,0.1,1.6,1.1,1.6,1.1
				c-0.2-1-1-1.2-1.8-1.4C49.3,78.9,49,78.8,48.3,78.9L48.3,78.9z"/>
			<path fill-rule="evenodd" clip-rule="evenodd" fill="#007F00" d="M55.3,84.7c0,0-1.2-0.3-1.4-1.2c-0.2-0.9-0.3-1.1-0.6-1.5
				c0,0,0.5,0,1.6-0.4c1.1-0.4,1.9,0.4,1.9,0.4s-0.4-1.5-1.7-1.5c-1.3,0-2,0.7-2.4,1.2c0,0-0.7,1.5,0.3,2.6
				C53.9,85.4,55.3,84.7,55.3,84.7L55.3,84.7z"/>
			<path fill-rule="evenodd" clip-rule="evenodd" fill="#005800" d="M55.3,84.7C55.3,84.7,55.3,84.7,55.3,84.7
				c-1.2,0.2-2.2,0-2.4-1.3c-0.1-0.5-0.2-1.2-0.2-1.7c0,0-0.7,1.5,0.3,2.6C53.9,85.4,55.3,84.7,55.3,84.7L55.3,84.7z"/>
			<path fill-rule="evenodd" clip-rule="evenodd" fill="#005800" d="M53.2,82c0,0,0.5,0,1.6-0.4c1.1-0.4,1.9,0.4,1.9,0.4
				c-0.5-0.8-1.4-0.7-2.2-0.5C54,81.6,53.7,81.7,53.2,82L53.2,82z"/>
			<path fill-rule="evenodd" clip-rule="evenodd" fill="#007F00" d="M61.4,86.5c0,0-1.3-0.1-1.6-0.9c-0.4-0.8-0.5-1.1-0.9-1.4
				c0,0,0.5-0.1,1.5-0.7c1-0.6,2,0,2,0s-0.6-1.4-1.9-1.1c-1.3,0.3-1.8,1.1-2.1,1.7c0,0-0.3,1.6,0.8,2.5
				C60.2,87.4,61.4,86.5,61.4,86.5L61.4,86.5z"/>
			<path fill-rule="evenodd" clip-rule="evenodd" fill="#005800" d="M61.4,86.5C61.4,86.5,61.4,86.5,61.4,86.5
				c-1.1,0.4-2.1,0.4-2.6-0.8c-0.2-0.5-0.4-1.1-0.5-1.7c0,0-0.3,1.6,0.8,2.5C60.2,87.4,61.4,86.5,61.4,86.5L61.4,86.5z"/>
			<path fill-rule="evenodd" clip-rule="evenodd" fill="#005800" d="M58.8,84.2c0,0,0.5-0.1,1.5-0.7c1-0.6,2,0,2,0
				c-0.7-0.7-1.5-0.4-2.3,0C59.6,83.7,59.3,83.8,58.8,84.2L58.8,84.2z"/>
			<path fill-rule="evenodd" clip-rule="evenodd" fill="#007F00" d="M67.4,86.1c0,0-1.2,0.3-1.8-0.4c-0.6-0.7-0.7-0.9-1.2-1.1
				c0,0,0.5-0.2,1.3-1.1c0.8-0.9,1.9-0.5,1.9-0.5s-1-1.2-2.2-0.6c-1.2,0.6-1.5,1.5-1.6,2.2c0,0,0.1,1.6,1.4,2.2
				C66.5,87.3,67.4,86.1,67.4,86.1L67.4,86.1z"/>
			<path fill-rule="evenodd" clip-rule="evenodd" fill="#005800" d="M67.4,86.1C67.4,86.1,67.4,86.1,67.4,86.1
				c-0.9,0.7-1.9,0.9-2.7-0.1c-0.3-0.4-0.7-1-1-1.5c0,0,0.1,1.6,1.4,2.2C66.5,87.3,67.4,86.1,67.4,86.1L67.4,86.1z"/>
			<path fill-rule="evenodd" clip-rule="evenodd" fill="#005800" d="M64.4,84.6c0,0,0.5-0.2,1.3-1.1c0.8-0.9,1.9-0.5,1.9-0.5
				c-0.9-0.5-1.6,0-2.2,0.6C65,83.8,64.7,84,64.4,84.6L64.4,84.6z"/>
			<path fill-rule="evenodd" clip-rule="evenodd" fill="#007F00" d="M73.4,83.6c0,0-1.1,0.7-1.9,0.2c-0.8-0.4-1-0.6-1.5-0.6
				c0,0,0.4-0.4,0.8-1.5c0.4-1.1,1.6-1.2,1.6-1.2s-1.3-0.8-2.2,0.2c-0.9,1-0.8,2-0.8,2.6c0,0,0.7,1.5,2.1,1.5
				C73,85.1,73.4,83.6,73.4,83.6L73.4,83.6z"/>
			<path fill-rule="evenodd" clip-rule="evenodd" fill="#005800" d="M73.4,83.6C73.4,83.6,73.4,83.7,73.4,83.6
				c-0.6,1-1.5,1.6-2.6,0.9c-0.5-0.3-1-0.7-1.4-1c0,0,0.7,1.5,2.1,1.5C73,85.1,73.4,83.6,73.4,83.6L73.4,83.6z"/>
			<path fill-rule="evenodd" clip-rule="evenodd" fill="#005800" d="M70,83.3c0,0,0.4-0.4,0.8-1.5c0.4-1.1,1.6-1.2,1.6-1.2
				c-1-0.2-1.5,0.6-1.9,1.3C70.3,82.4,70.1,82.7,70,83.3L70,83.3z"/>
			<path fill-rule="evenodd" clip-rule="evenodd" fill="#007F00" d="M78.1,80.1c0,0-0.7,1-1.6,0.9c-0.9-0.1-1.2-0.2-1.6,0.1
				c0,0,0.2-0.5,0.2-1.7c0-1.2,1-1.7,1-1.7s-1.5-0.2-2,1.1c-0.5,1.3,0,2.1,0.3,2.7c0,0,1.2,1.1,2.5,0.6
				C78.2,81.6,78.1,80.1,78.1,80.1L78.1,80.1z"/>
			<path fill-rule="evenodd" clip-rule="evenodd" fill="#005800" d="M78.1,80.1C78.1,80.1,78.1,80.1,78.1,80.1c-0.2,1.2-0.8,2-2,1.8
				c-0.5-0.1-1.2-0.2-1.7-0.4c0,0,1.2,1.1,2.5,0.6C78.2,81.6,78.1,80.1,78.1,80.1L78.1,80.1z"/>
			<path fill-rule="evenodd" clip-rule="evenodd" fill="#005800" d="M74.8,81.1c0,0,0.2-0.5,0.2-1.7c0-1.2,1-1.7,1-1.7
				c-1,0.2-1.1,1.1-1.2,1.9C74.7,80.2,74.7,80.5,74.8,81.1L74.8,81.1z"/>
			<path fill-rule="evenodd" clip-rule="evenodd" fill="#007F00" d="M82.2,76.1c0,0-0.6,1.1-1.5,1.1c-0.9,0-1.2,0-1.6,0.2
				c0,0,0.2-0.5,0-1.7C79,74.6,80,74,80,74s-1.5,0-1.9,1.2c-0.3,1.3,0.2,2.1,0.6,2.7c0,0,1.3,1,2.6,0.4
				C82.5,77.6,82.2,76.1,82.2,76.1L82.2,76.1z"/>
			<path fill-rule="evenodd" clip-rule="evenodd" fill="#005800" d="M82.2,76.1C82.2,76.1,82.2,76.2,82.2,76.1
				c-0.1,1.2-0.6,2.1-1.8,2c-0.5,0-1.2-0.1-1.7-0.2c0,0,1.3,1,2.6,0.4C82.5,77.6,82.2,76.1,82.2,76.1L82.2,76.1z"/>
			<path fill-rule="evenodd" clip-rule="evenodd" fill="#005800" d="M79.1,77.4c0,0,0.2-0.5,0-1.7C79,74.6,80,74,80,74
				c-0.9,0.3-1,1.2-1,2C78.9,76.5,78.9,76.9,79.1,77.4L79.1,77.4z"/>
			<path fill-rule="evenodd" clip-rule="evenodd" fill="#007F00" d="M84.9,70.5c0,0-0.3,1.2-1.1,1.5c-0.9,0.3-1.1,0.3-1.5,0.7
				c0,0,0-0.5-0.5-1.6c-0.5-1.1,0.3-1.9,0.3-1.9s-1.5,0.4-1.4,1.7c0.1,1.3,0.8,2,1.3,2.4c0,0,1.5,0.6,2.6-0.4
				C85.6,71.8,84.9,70.5,84.9,70.5L84.9,70.5z"/>
			<path fill-rule="evenodd" clip-rule="evenodd" fill="#005800" d="M84.9,70.5C84.9,70.5,84.9,70.5,84.9,70.5
				c0.3,1.1,0.1,2.2-1.2,2.5c-0.5,0.1-1.2,0.3-1.7,0.3c0,0,1.5,0.6,2.6-0.4C85.6,71.8,84.9,70.5,84.9,70.5L84.9,70.5z"/>
			<path fill-rule="evenodd" clip-rule="evenodd" fill="#005800" d="M82.3,72.7c0,0,0-0.5-0.5-1.6c-0.5-1.1,0.3-1.9,0.3-1.9
				c-0.8,0.6-0.6,1.4-0.4,2.2C81.9,71.8,81.9,72.1,82.3,72.7L82.3,72.7z"/>
			<path fill-rule="evenodd" clip-rule="evenodd" fill="#007F00" d="M85.7,64.2c0,0,0.2,1.2-0.5,1.8c-0.7,0.6-0.9,0.7-1.1,1.2
				c0,0-0.2-0.5-1.1-1.3c-0.8-0.8-0.5-1.9-0.5-1.9s-1.2,1-0.6,2.2c0.6,1.2,1.5,1.5,2.1,1.7c0,0,1.6-0.1,2.2-1.4
				C86.8,65.1,85.7,64.2,85.7,64.2L85.7,64.2z"/>
			<path fill-rule="evenodd" clip-rule="evenodd" fill="#005800" d="M85.7,64.2C85.7,64.2,85.7,64.2,85.7,64.2c0.7,1,0.9,2-0.1,2.7
				c-0.4,0.3-1,0.7-1.5,0.9c0,0,1.6-0.1,2.2-1.4C86.8,65.1,85.7,64.2,85.7,64.2L85.7,64.2z"/>
			<path fill-rule="evenodd" clip-rule="evenodd" fill="#005800" d="M84.1,67.2c0,0-0.2-0.5-1.1-1.3c-0.8-0.8-0.5-1.9-0.5-1.9
				c-0.5,0.8,0,1.6,0.5,2.2C83.4,66.6,83.6,66.9,84.1,67.2L84.1,67.2z"/>
			<path fill-rule="evenodd" clip-rule="evenodd" fill="#007F00" d="M85.9,58.8c0,0,0.3,1.2-0.3,1.8c-0.7,0.6-0.9,0.8-1,1.3
				c0,0-0.2-0.5-1.1-1.2c-0.9-0.7-0.6-1.9-0.6-1.9s-1.1,1-0.5,2.2c0.7,1.2,1.6,1.4,2.3,1.5c0,0,1.6-0.2,2.1-1.6
				C87.2,59.7,85.9,58.8,85.9,58.8L85.9,58.8z"/>
			<path fill-rule="evenodd" clip-rule="evenodd" fill="#005800" d="M85.9,58.8C85.9,58.8,86,58.8,85.9,58.8c0.8,0.9,1,1.9,0.1,2.7
				c-0.4,0.3-0.9,0.8-1.4,1c0,0,1.6-0.2,2.1-1.6C87.2,59.7,85.9,58.8,85.9,58.8L85.9,58.8z"/>
			<path fill-rule="evenodd" clip-rule="evenodd" fill="#005800" d="M84.6,62c0,0-0.2-0.5-1.1-1.2c-0.9-0.7-0.6-1.9-0.6-1.9
				c-0.5,0.9,0.1,1.6,0.7,2.2C83.8,61.4,84.1,61.7,84.6,62L84.6,62z"/>
			<path fill-rule="evenodd" clip-rule="evenodd" fill="#007F00" d="M84.2,53.8c0,0,0.7,1.1,0.2,1.9c-0.4,0.8-0.6,1-0.6,1.5
				c0,0-0.4-0.4-1.5-0.8c-1.1-0.4-1.2-1.6-1.2-1.6s-0.8,1.3,0.2,2.2c1,0.9,1.9,0.9,2.6,0.8c0,0,1.5-0.6,1.6-2.1
				C85.6,54.3,84.2,53.8,84.2,53.8L84.2,53.8z"/>
			<path fill-rule="evenodd" clip-rule="evenodd" fill="#005800" d="M84.2,53.8C84.2,53.8,84.2,53.9,84.2,53.8
				c1,0.6,1.5,1.5,0.9,2.6c-0.3,0.4-0.7,1-1,1.4c0,0,1.5-0.6,1.6-2.1C85.6,54.3,84.2,53.8,84.2,53.8L84.2,53.8z"/>
			<path fill-rule="evenodd" clip-rule="evenodd" fill="#005800" d="M83.8,57.2c0,0-0.4-0.4-1.5-0.8c-1.1-0.4-1.2-1.6-1.2-1.6
				c-0.2,1,0.6,1.5,1.3,1.9C82.9,56.9,83.2,57.1,83.8,57.2L83.8,57.2z"/>
			<path fill-rule="evenodd" clip-rule="evenodd" fill="#007F00" d="M81.5,49.2c0,0,0.9,0.9,0.6,1.8c-0.3,0.8-0.4,1.1-0.3,1.6
				c0,0-0.4-0.3-1.6-0.5c-1.2-0.2-1.5-1.3-1.5-1.3s-0.5,1.4,0.7,2.2c1.1,0.7,2.1,0.4,2.7,0.2c0,0,1.4-0.9,1.1-2.4
				C83,49.3,81.5,49.2,81.5,49.2L81.5,49.2z"/>
			<path fill-rule="evenodd" clip-rule="evenodd" fill="#005800" d="M81.5,49.2C81.5,49.2,81.5,49.2,81.5,49.2
				c1.1,0.4,1.8,1.2,1.4,2.3c-0.2,0.5-0.5,1.1-0.7,1.6c0,0,1.4-0.9,1.1-2.4C83,49.3,81.5,49.2,81.5,49.2L81.5,49.2z"/>
			<path fill-rule="evenodd" clip-rule="evenodd" fill="#005800" d="M81.9,52.6c0,0-0.4-0.3-1.6-0.5c-1.2-0.2-1.5-1.3-1.5-1.3
				c0,1,0.9,1.3,1.6,1.6C81,52.5,81.3,52.6,81.9,52.6L81.9,52.6z"/>
			<path fill-rule="evenodd" clip-rule="evenodd" fill="#007F00" d="M77.3,45.6c0,0,1.2,0.5,1.2,1.4c0.1,0.9,0.1,1.2,0.4,1.6
				c0,0-0.5-0.1-1.7,0.1c-1.1,0.2-1.9-0.7-1.9-0.7s0.1,1.5,1.4,1.7c1.3,0.2,2.1-0.4,2.6-0.8c0,0,0.9-1.4,0.1-2.6
				C78.7,45.2,77.3,45.6,77.3,45.6L77.3,45.6z"/>
			<path fill-rule="evenodd" clip-rule="evenodd" fill="#005800" d="M77.3,45.6C77.3,45.6,77.3,45.6,77.3,45.6
				c1.2,0,2.1,0.4,2.2,1.6c0,0.5,0,1.2-0.1,1.7c0,0,0.9-1.4,0.1-2.6C78.7,45.2,77.3,45.6,77.3,45.6L77.3,45.6z"/>
			<path fill-rule="evenodd" clip-rule="evenodd" fill="#005800" d="M78.9,48.6c0,0-0.5-0.1-1.7,0.1c-1.1,0.2-1.9-0.7-1.9-0.7
				c0.4,0.9,1.3,0.9,2.1,0.8C78,48.9,78.3,48.9,78.9,48.6L78.9,48.6z"/>
			<path fill-rule="evenodd" clip-rule="evenodd" fill="#007F00" d="M73.1,42.5c0,0,1.2,0.3,1.5,1.2c0.2,0.9,0.3,1.1,0.6,1.5
				c0,0-0.5,0-1.6,0.4c-1.1,0.4-1.9-0.3-1.9-0.3s0.4,1.5,1.7,1.5c1.3,0,2-0.7,2.4-1.3c0,0,0.6-1.5-0.4-2.6
				C74.4,41.8,73.1,42.5,73.1,42.5L73.1,42.5z"/>
			<path fill-rule="evenodd" clip-rule="evenodd" fill="#005800" d="M73.1,42.5C73.1,42.5,73.1,42.5,73.1,42.5
				c1.2-0.2,2.2,0,2.4,1.2c0.1,0.5,0.2,1.2,0.2,1.7c0,0,0.6-1.5-0.4-2.6C74.4,41.8,73.1,42.5,73.1,42.5L73.1,42.5z"/>
			<path fill-rule="evenodd" clip-rule="evenodd" fill="#005800" d="M75.2,45.1c0,0-0.5,0-1.6,0.4c-1.1,0.4-1.9-0.3-1.9-0.3
				c0.6,0.8,1.4,0.7,2.2,0.5C74.3,45.6,74.6,45.5,75.2,45.1L75.2,45.1z"/>
			<path fill-rule="evenodd" clip-rule="evenodd" fill="#007F00" d="M67.8,40.2c0,0,1.3,0.1,1.6,1c0.3,0.8,0.4,1.1,0.8,1.4
				c0,0-0.5,0.1-1.6,0.6c-1,0.6-2-0.1-2-0.1s0.6,1.4,1.9,1.2c1.3-0.2,1.9-1,2.2-1.6c0,0,0.4-1.6-0.7-2.5
				C69,39.3,67.8,40.2,67.8,40.2L67.8,40.2z"/>
			<path fill-rule="evenodd" clip-rule="evenodd" fill="#005800" d="M67.8,40.2C67.8,40.2,67.8,40.2,67.8,40.2
				c1.1-0.4,2.1-0.3,2.6,0.9c0.2,0.5,0.4,1.2,0.5,1.7c0,0,0.4-1.6-0.7-2.5C69,39.3,67.8,40.2,67.8,40.2L67.8,40.2z"/>
			<path fill-rule="evenodd" clip-rule="evenodd" fill="#005800" d="M70.2,42.5c0,0-0.5,0.1-1.6,0.6c-1,0.6-2-0.1-2-0.1
				c0.7,0.7,1.5,0.5,2.3,0.2C69.4,43.1,69.7,42.9,70.2,42.5L70.2,42.5z"/>
		</g>
	</g>
	<path opacity="0.25" fill="#FFFFFF" d="M13,29.7v25.5C26.2,62.6,43.7,67,63,67c19.3,0,36.8-4.5,50-11.8V29.7H13z"/>
</g>
</svg>
