<?xml version="1.0" encoding="utf-8"?>
<!-- Generator: Adobe Illustrator 24.3.0, SVG Export Plug-In . SVG Version: 6.00 Build 0)  -->
<svg version="1.1" id="Layer_1" xmlns="http://www.w3.org/2000/svg" xmlns:xlink="http://www.w3.org/1999/xlink" x="0px" y="0px"
	 viewBox="0 0 126 126" enable-background="new 0 0 126 126" xml:space="preserve">
<g>
	<g>
		<path fill="#0F33AF" d="M13,29.7h18.7l66.7,66.7H13V29.7L13,29.7z M98.3,29.7H113v66.7H98.3V29.7L98.3,29.7z"/>
		<path fill="#FFFFFF" d="M17.7,29.7h4.5l1.3,4.1l-3.6-2.6l-3.6,2.6L17.7,29.7L17.7,29.7z M88.5,96.3h-4.6L84,96l-3.6-2.6l4.4,0
			l1.4-4.2l1.4,4.2l4.4,0L88.4,96L88.5,96.3L88.5,96.3z M28.2,31.2l1.4,4.2l4.4,0L30.4,38l1.4,4.2l-3.6-2.6l-3.6,2.6L26,38l-3.6-2.6
			l4.4,0L28.2,31.2L28.2,31.2z M36.5,39.5l1.4,4.2l4.4,0l-3.6,2.6l1.4,4.2l-3.6-2.6l-3.6,2.6l1.4-4.2l-3.6-2.6l4.4,0L36.5,39.5
			L36.5,39.5z M44.8,47.8l1.4,4.2l4.4,0L47,54.6l1.4,4.2l-3.6-2.6l-3.6,2.6l1.4-4.2L39,52l4.4,0L44.8,47.8L44.8,47.8z M53.1,56.1
			l1.4,4.2l4.4,0l-3.6,2.6l1.4,4.2l-3.6-2.6l-3.6,2.6l1.4-4.2l-3.6-2.6l4.4,0L53.1,56.1L53.1,56.1z M61.4,64.4l1.4,4.2l4.4,0
			l-3.6,2.6l1.4,4.2l-3.6-2.6l-3.6,2.6l1.4-4.2l-3.6-2.6l4.4,0L61.4,64.4L61.4,64.4z M69.6,72.7l1.4,4.2l4.4,0l-3.6,2.6l1.4,4.2
			l-3.6-2.6l-3.6,2.6l1.4-4.2l-3.6-2.6l4.4,0L69.6,72.7L69.6,72.7z M77.9,80.9l1.4,4.2l4.4,0l-3.6,2.6l1.4,4.2l-3.6-2.6l-3.6,2.6
			l1.4-4.2l-3.6-2.6l4.4,0L77.9,80.9L77.9,80.9z"/>
		<polygon fill="#FFD520" points="31.7,29.7 98.3,29.7 98.3,96.3 31.7,29.7 		"/>
	</g>
	<path opacity="0.35" fill="#FFFFFF" d="M13,29.7v25.5C26.2,62.6,43.7,67,63,67c19.3,0,36.8-4.5,50-11.8V29.7H13z"/>
</g>
</svg>
