<?xml version="1.0" encoding="utf-8"?>
<!-- Generator: Adobe Illustrator 24.3.0, SVG Export Plug-In . SVG Version: 6.00 Build 0)  -->
<svg version="1.1" id="Layer_1" xmlns="http://www.w3.org/2000/svg" xmlns:xlink="http://www.w3.org/1999/xlink" x="0px" y="0px"
	 viewBox="0 0 126 126" enable-background="new 0 0 126 126" xml:space="preserve">
<g>
	<g>
		<path fill="#47B71D" d="M13,29.7v66.7h100V29.7H13L13,29.7z M104.5,63L63,89.5L21.5,63L63,36.5L104.5,63L104.5,63z"/>
		<path fill="#FFF200" d="M104.5,63L63,89.5L21.5,63L63,36.5L104.5,63L104.5,63z M46.2,58.7c-0.4,1.4-0.5,2.8-0.5,4.3
			c0,9.6,7.7,17.3,17.3,17.3c7.8,0,14.3-5.1,16.5-12.1v0c0.3-0.9,0.5-1.8,0.6-2.7c0.1-0.8,0.2-1.6,0.2-2.5c0-9.6-7.7-17.3-17.3-17.3
			c-7.1,0-13.2,4.3-15.8,10.3C46.8,56.9,46.5,57.8,46.2,58.7L46.2,58.7z"/>
		<polygon fill="#FFFFFF" points="45.2,58.9 45.2,58.9 45.2,58.9 		"/>
		<path fill="#0F33AF" d="M46.2,58.7c-0.4,1.4-0.5,2.8-0.5,4.3c0,9.6,7.7,17.3,17.3,17.3c7.8,0,14.3-5.1,16.5-12.1
			c-1.9-1.7-7.4-6.3-15.9-8.7C55.7,57.4,48.8,58.2,46.2,58.7L46.2,58.7z M64.2,57.1c8.6,2.4,13.5,6.3,15.9,8.4
			c0.1-0.8,0.2-1.6,0.2-2.5c0-9.6-7.7-17.3-17.3-17.3c-7.1,0-13.2,4.3-15.8,10.3C49.4,55.7,56.3,54.9,64.2,57.1L64.2,57.1z"/>
		<path fill="#FFFFFF" d="M64.2,57.1c-7.9-2.2-14.8-1.4-17.1-1.1c-0.4,0.9-0.7,1.7-0.9,2.7c2.5-0.5,9.5-1.4,17.4,0.8
			c8.5,2.4,14,7,15.9,8.7c0.3-0.9,0.5-1.8,0.6-2.7C77.7,63.4,72.8,59.6,64.2,57.1L64.2,57.1z"/>
		<path fill="#26B516" d="M48.1,56.3c0.1,0,0.2,0,0.3,0c0.1,0,0.2,0.1,0.3,0.2c0.1,0.1,0.1,0.2,0.2,0.3C49,56.9,49,57,49,57.1
			c0,0.1,0,0.2,0,0.3c0,0.1-0.1,0.2-0.1,0.3c-0.1,0.1-0.1,0.1-0.2,0.2c-0.1,0-0.2,0.1-0.3,0.1c-0.1,0-0.2,0-0.3,0
			c-0.1,0-0.2-0.1-0.3-0.1c-0.1-0.1-0.1-0.1-0.2-0.2c-0.1-0.1-0.1-0.2-0.1-0.3c0-0.1,0-0.3,0-0.4c0-0.1,0.1-0.2,0.1-0.3
			c0.1-0.1,0.1-0.2,0.2-0.2C47.9,56.3,48,56.3,48.1,56.3L48.1,56.3z M79.3,65.3c-0.1-0.1-0.1-0.2-0.2-0.3c-0.1-0.1-0.2-0.1-0.3-0.2
			c-0.1,0-0.2,0-0.3,0c-0.1,0-0.2,0.1-0.3,0.1c-0.1,0.1-0.2,0.2-0.3,0.3c-0.1,0.1-0.1,0.2-0.2,0.3c0,0.1,0,0.2,0,0.3
			c0,0.1,0,0.2,0.1,0.3c0.1,0.1,0.1,0.2,0.2,0.3c0.1,0.1,0.2,0.1,0.3,0.1c0.1,0,0.2,0,0.3,0c0.1,0,0.2-0.1,0.3-0.1
			c0.1-0.1,0.2-0.1,0.3-0.3s0.1-0.2,0.2-0.3c0-0.1,0-0.2,0-0.3C79.4,65.5,79.4,65.4,79.3,65.3L79.3,65.3z M79.1,65.8L79.1,65.8
			c0,0.1-0.1,0.2-0.1,0.2c-0.1,0.1-0.1,0.1-0.2,0.2c-0.1,0-0.1,0.1-0.2,0.1c-0.1,0-0.1,0-0.2,0c-0.1,0-0.1,0-0.2-0.1
			c-0.1,0-0.1-0.1-0.1-0.2c0-0.1,0-0.1-0.1-0.2c0-0.1,0-0.1,0-0.2c0-0.1,0.1-0.2,0.1-0.2c0.1-0.1,0.1-0.1,0.2-0.2
			c0.1,0,0.1-0.1,0.2-0.1c0.1,0,0.1,0,0.2,0c0.1,0,0.1,0,0.2,0.1c0.1,0,0.1,0.1,0.1,0.2c0,0.1,0.1,0.1,0.1,0.2
			C79.1,65.7,79.1,65.8,79.1,65.8L79.1,65.8z M77.5,63.8c-0.1-0.1-0.1-0.1-0.2-0.2c-0.1-0.1-0.2-0.1-0.2-0.1c-0.1,0-0.2,0-0.2,0
			c-0.1,0-0.1,0-0.2,0.1c-0.1,0-0.1,0.1-0.1,0.1c0,0.1-0.1,0.1-0.1,0.2c0,0.1,0,0.1,0,0.2c0,0.1,0,0.1,0.1,0.2
			c0,0.1,0.1,0.1,0.2,0.2c0.1,0.1,0.1,0.1,0.1,0.2c0,0,0.1,0.1,0.1,0.1c0,0,0,0.1,0,0.1c0,0,0,0.1,0,0.1c0,0,0,0.1-0.1,0.1
			c0,0-0.1,0-0.1,0c0,0-0.1,0-0.1,0c0,0-0.1,0-0.1-0.1c0,0-0.1-0.1-0.1-0.1c0,0-0.1-0.1-0.1-0.1c0,0,0-0.1,0-0.1
			c0-0.1,0-0.1,0.1-0.2c-0.1-0.1-0.2-0.1-0.3-0.2c-0.1,0.1-0.1,0.2-0.1,0.3c0,0.1,0,0.2,0,0.3c0,0.1,0.1,0.2,0.1,0.2
			c0.1,0.1,0.1,0.2,0.2,0.2c0.1,0.1,0.2,0.1,0.2,0.1c0.1,0,0.2,0,0.2,0c0.1,0,0.1,0,0.2-0.1c0.1,0,0.1-0.1,0.2-0.2
			c0-0.1,0.1-0.1,0.1-0.2c0-0.1,0-0.1,0-0.2c0-0.1,0-0.1,0-0.2c0,0,0-0.1-0.1-0.1c0,0-0.1-0.1-0.1-0.1c0,0-0.1-0.1-0.1-0.1
			c0,0-0.1-0.1-0.1-0.1c0,0,0-0.1-0.1-0.1c0,0,0-0.1,0-0.1c0,0,0,0,0-0.1c0-0.1,0.1-0.1,0.2-0.1c0.1,0,0.1,0,0.2,0.1
			c0.2,0.1,0.2,0.3,0.1,0.5c0.1,0.1,0.2,0.1,0.3,0.2c0.1-0.1,0.1-0.2,0.1-0.2c0-0.1,0-0.2,0-0.2C77.6,64,77.6,63.9,77.5,63.8
			L77.5,63.8z M75.8,62.7c-0.1-0.1-0.1-0.1-0.2-0.2c-0.1-0.1-0.2-0.1-0.2-0.1c-0.1,0-0.2,0-0.2,0c-0.1,0-0.1,0-0.2,0.1
			c-0.1,0-0.1,0.1-0.1,0.1c0,0.1-0.1,0.1-0.1,0.2c0,0.1,0,0.1,0,0.2c0,0.1,0.1,0.1,0.1,0.2c0,0.1,0.1,0.1,0.2,0.2
			c0.1,0.1,0.1,0.1,0.2,0.2c0,0,0.1,0.1,0.1,0.1c0,0,0,0.1,0,0.1c0,0,0,0.1,0,0.1c0,0,0,0.1-0.1,0.1c0,0-0.1,0-0.1,0
			c0,0-0.1,0-0.1,0c0,0-0.1,0-0.1-0.1c0,0-0.1-0.1-0.1-0.1c0,0-0.1-0.1-0.1-0.1c0,0,0-0.1,0-0.1c0-0.1,0-0.1,0-0.2
			c-0.1-0.1-0.2-0.1-0.3-0.2c-0.1,0.1-0.1,0.2-0.1,0.3c0,0.1,0,0.2,0,0.3c0,0.1,0.1,0.2,0.1,0.2c0.1,0.1,0.1,0.1,0.2,0.2
			c0.1,0.1,0.2,0.1,0.2,0.1c0.1,0,0.2,0,0.2,0c0.1,0,0.1,0,0.2-0.1c0.1,0,0.1-0.1,0.2-0.2c0-0.1,0.1-0.1,0.1-0.2c0-0.1,0-0.1,0-0.2
			c0-0.1,0-0.1-0.1-0.1c0,0-0.1-0.1-0.1-0.1c0,0-0.1-0.1-0.1-0.1c0,0-0.1-0.1-0.1-0.1c0,0-0.1-0.1-0.1-0.1c0,0-0.1-0.1-0.1-0.1
			c0,0,0-0.1,0-0.1c0,0,0,0,0-0.1c0-0.1,0.1-0.1,0.1-0.1c0.1,0,0.1,0,0.2,0.1c0.2,0.1,0.2,0.3,0.1,0.4c0.1,0.1,0.2,0.1,0.3,0.2
			c0-0.1,0.1-0.2,0.1-0.2c0-0.1,0-0.2,0-0.2C75.9,62.8,75.8,62.7,75.8,62.7L75.8,62.7z M74,62c0.1-0.1,0.1-0.2,0.2-0.3
			c-0.4-0.3-0.7-0.4-1.1-0.6c-0.3,0.6-0.5,0.9-0.8,1.5c0.4,0.3,0.7,0.4,1.1,0.7c0.1-0.1,0.1-0.2,0.2-0.3c-0.3-0.2-0.5-0.3-0.8-0.5
			c0.1-0.2,0.1-0.2,0.2-0.4c0.3,0.2,0.5,0.3,0.8,0.4c0.1-0.1,0.1-0.2,0.1-0.3c-0.3-0.2-0.5-0.3-0.8-0.4c0.1-0.1,0.1-0.2,0.2-0.3
			C73.6,61.7,73.7,61.8,74,62L74,62z M72.2,60.7c0,0,0-0.1-0.1-0.1c0,0-0.1-0.1-0.1-0.1c0,0-0.1,0-0.1-0.1c0,0-0.1,0-0.1-0.1
			c-0.3-0.1-0.4-0.2-0.7-0.3c-0.3,0.6-0.5,0.9-0.8,1.5c0.1,0.1,0.2,0.1,0.3,0.1c0.1-0.2,0.2-0.4,0.3-0.6c0.1,0.1,0.2,0.1,0.3,0.2
			c0,0,0.1,0,0.1,0.1c0,0,0,0.1,0.1,0.1c0,0,0,0.1,0,0.1c0,0,0,0.1,0,0.1c0,0.2,0,0.3-0.1,0.5c0.1,0.1,0.2,0.1,0.3,0.2
			c0-0.2,0-0.3,0.1-0.5c0-0.1,0-0.3,0-0.3c0,0,0.2,0,0.3-0.1c0.1,0,0.1-0.1,0.2-0.2c0,0,0-0.1,0-0.1c0,0,0-0.1,0-0.1
			c0,0,0-0.1,0-0.1C72.2,60.8,72.2,60.8,72.2,60.7L72.2,60.7z M71.9,61L71.9,61C71.9,61,71.8,61.1,71.9,61c-0.1,0.1-0.1,0.1-0.1,0.1
			c0,0-0.1,0-0.1,0c0,0-0.1,0-0.1-0.1c-0.2-0.1-0.2-0.1-0.4-0.2c0.1-0.2,0.1-0.2,0.2-0.4c0.2,0.1,0.2,0.1,0.4,0.2
			c0.1,0,0.1,0.1,0.2,0.1C71.9,60.9,71.9,60.9,71.9,61L71.9,61z M70.1,59.6c-0.1-0.1-0.2-0.1-0.2-0.2c-0.1,0-0.2-0.1-0.3-0.1
			c-0.1,0-0.2,0-0.3,0.1c-0.1,0-0.2,0.1-0.3,0.2c-0.1,0.1-0.1,0.2-0.2,0.3c-0.1,0.1-0.1,0.2-0.1,0.3c0,0.1,0,0.2,0,0.3
			c0,0.1,0.1,0.2,0.2,0.3c0.1,0.1,0.2,0.1,0.3,0.2c0.1,0,0.2,0.1,0.3,0.1c0.1,0,0.2,0,0.2,0c0,0,0,0.1,0,0.1c0.1,0,0.1,0.1,0.2,0.1
			c0.2-0.3,0.2-0.5,0.4-0.8c-0.3-0.1-0.4-0.2-0.7-0.3c0,0.1-0.1,0.2-0.1,0.3c0.2,0.1,0.2,0.1,0.4,0.2c0,0.1,0,0.1-0.1,0.2
			c-0.1,0-0.2,0.1-0.2,0.1c-0.1,0-0.2,0-0.3-0.1c-0.1,0-0.1-0.1-0.2-0.1c0,0-0.1-0.1-0.1-0.2c0-0.1,0-0.1,0-0.2c0-0.1,0-0.2,0.1-0.2
			c0-0.1,0.1-0.2,0.1-0.2c0.1-0.1,0.1-0.1,0.2-0.1c0.1,0,0.1,0,0.2,0c0.1,0,0.1,0,0.2,0c0.1,0,0.1,0.1,0.1,0.1c0,0,0.1,0.1,0.1,0.1
			c0,0,0,0.1,0,0.1c0,0,0,0.1,0,0.1c0.1,0.1,0.2,0.1,0.3,0.1c0-0.1,0-0.2,0-0.3c0-0.1,0-0.2-0.1-0.2C70.2,59.7,70.1,59.7,70.1,59.6
			L70.1,59.6z M68.1,58.8c-0.1-0.1-0.2-0.1-0.3-0.2c-0.1,0-0.2-0.1-0.3-0.1c-0.1,0-0.2,0-0.3,0.1c-0.1,0-0.2,0.1-0.3,0.2
			c-0.1,0.1-0.1,0.2-0.2,0.3c0,0.1-0.1,0.2-0.1,0.3c0,0.1,0,0.2,0.1,0.3c0,0.1,0.1,0.2,0.2,0.2c0.1,0.1,0.2,0.1,0.3,0.2
			c0.1,0,0.2,0.1,0.3,0.1c0.1,0,0.2,0,0.3-0.1c0.1,0,0.2-0.1,0.3-0.2c0.1-0.1,0.1-0.2,0.2-0.3c0-0.1,0.1-0.2,0.1-0.3
			c0-0.1,0-0.2-0.1-0.3S68.1,58.9,68.1,58.8L68.1,58.8z M67.9,59.6L67.9,59.6c0,0.1-0.1,0.2-0.1,0.2c0,0.1-0.1,0.1-0.2,0.1
			c-0.1,0-0.1,0.1-0.2,0.1c-0.1,0-0.1,0-0.2,0c-0.1,0-0.1-0.1-0.2-0.1c0,0-0.1-0.1-0.1-0.2c0-0.1,0-0.1,0-0.2c0-0.1,0-0.2,0.1-0.2
			c0-0.1,0.1-0.2,0.1-0.2c0.1-0.1,0.1-0.1,0.2-0.1c0.1,0,0.1,0,0.2-0.1c0.1,0,0.1,0,0.2,0c0.1,0,0.1,0.1,0.2,0.1
			c0,0,0.1,0.1,0.1,0.2c0,0.1,0,0.1,0,0.2C68,59.5,68,59.5,67.9,59.6L67.9,59.6z M66.1,58.2C66.1,58.2,66.1,58.1,66.1,58.2
			C66,58.1,66,58.1,66,58c0,0-0.1,0-0.1,0s-0.1,0-0.1,0c-0.3-0.1-0.4-0.1-0.7-0.2c-0.2,0.6-0.3,1-0.5,1.6c0.1,0,0.2,0.1,0.3,0.1
			c0.1-0.3,0.1-0.4,0.2-0.6c0.1,0,0.2,0.1,0.3,0.1c0,0,0.1,0,0.1,0c0,0,0.1,0,0.1,0.1c0,0,0,0.1,0,0.1c0,0,0,0.1,0,0.1
			c0,0.2,0,0.3,0,0.5c0.1,0,0.2,0.1,0.3,0.1c0-0.2,0-0.3,0-0.5c0-0.1-0.1-0.3-0.1-0.3c0,0,0.2,0,0.2-0.1c0.1-0.1,0.1-0.1,0.2-0.2
			c0,0,0-0.1,0-0.1c0,0,0-0.1,0-0.1C66.2,58.4,66.2,58.3,66.1,58.2C66.2,58.3,66.1,58.2,66.1,58.2L66.1,58.2z M65.9,58.5L65.9,58.5
			C65.8,58.5,65.8,58.6,65.9,58.5c-0.1,0.1-0.1,0.1-0.1,0.1c0,0-0.1,0-0.1,0c0,0-0.1,0-0.1,0c-0.2-0.1-0.2-0.1-0.4-0.1
			c0.1-0.2,0.1-0.3,0.1-0.4c0.2,0.1,0.3,0.1,0.4,0.1c0.1,0,0.2,0.1,0.2,0.1C65.9,58.4,65.9,58.4,65.9,58.5L65.9,58.5z M64.1,57.5
			c0,0-0.1-0.1-0.1-0.1c0,0-0.1-0.1-0.2-0.1c-0.1,0-0.1,0-0.2-0.1c-0.3-0.1-0.4-0.1-0.7-0.2c-0.2,0.6-0.2,1-0.4,1.6
			c0.1,0,0.2,0,0.3,0.1c0.1-0.2,0.1-0.4,0.2-0.6c0.1,0,0.2,0.1,0.4,0.1c0.2,0.1,0.4,0.1,0.5,0c0.1-0.1,0.2-0.2,0.3-0.3
			c0-0.1,0-0.1,0-0.2c0-0.1,0-0.1,0-0.1C64.1,57.6,64.1,57.6,64.1,57.5L64.1,57.5z M63.8,57.9L63.8,57.9
			C63.8,57.9,63.8,58,63.8,57.9c-0.1,0.1-0.1,0.1-0.1,0.2c0,0-0.1,0-0.1,0c0,0-0.1,0-0.2,0c-0.1,0-0.2-0.1-0.4-0.1
			c0-0.2,0.1-0.3,0.1-0.5c0.1,0,0.2,0.1,0.4,0.1c0,0,0.1,0,0.1,0c0,0,0.1,0,0.1,0.1c0,0,0,0.1,0.1,0.1
			C63.9,57.8,63.9,57.9,63.8,57.9L63.8,57.9z M60.5,58.4c-0.5-0.1-0.7-0.1-1.2-0.2c0.1-0.6,0.1-0.9,0.2-1.5c0.5,0.1,0.7,0.1,1.2,0.2
			c0,0.1,0,0.2,0,0.3c-0.4-0.1-0.5-0.1-0.9-0.2c0,0.1,0,0.2-0.1,0.3c0.3,0.1,0.5,0.1,0.8,0.1c0,0.1,0,0.2,0,0.2
			c-0.3-0.1-0.5-0.1-0.8-0.1c0,0.2,0,0.2-0.1,0.4c0.4,0.1,0.5,0.1,0.9,0.2C60.6,58.2,60.6,58.3,60.5,58.4L60.5,58.4z M57.5,57.9
			c-0.1,0-0.2,0-0.3,0c0-0.4,0.1-0.6,0.1-1c-0.2,0.4-0.3,0.6-0.4,1c-0.1,0-0.2,0-0.3,0c-0.1-0.4-0.2-0.6-0.3-1.1c0,0.4,0,0.6-0.1,1
			c-0.1,0-0.2,0-0.3,0c0-0.6,0.1-1,0.1-1.7c0.2,0,0.2,0,0.4,0c0.1,0.5,0.2,0.7,0.3,1.2c0.2-0.5,0.3-0.7,0.5-1.1c0.2,0,0.2,0,0.4,0
			C57.6,56.9,57.5,57.3,57.5,57.9L57.5,57.9z M55.2,57.8c-0.5,0-0.8,0-1.3,0c0-0.6,0-0.9,0-1.7c0.5,0,0.8,0,1.3,0.1
			c0,0.1,0,0.2,0,0.3c-0.4,0-0.6,0-0.9,0c0,0.2,0,0.2,0,0.4c0.4,0,0.5,0,0.9,0c0,0.1,0,0.2,0,0.3c-0.3,0-0.5,0-0.9,0
			c0,0.2,0,0.3,0,0.4c0.4,0,0.6,0,1,0C55.2,57.6,55.2,57.7,55.2,57.8L55.2,57.8z M53.2,56.9c0,0.6-0.3,0.8-0.9,0.8
			c-0.2,0-0.3,0-0.5,0c0-0.6,0-0.9,0-1.7c0.2,0,0.3,0,0.6,0C52.9,56,53.2,56.4,53.2,56.9L53.2,56.9z M52.9,56.9L52.9,56.9
			c0-0.1,0-0.2,0-0.2c0-0.1,0-0.1-0.1-0.2c0,0-0.1-0.1-0.2-0.1s-0.2,0-0.3,0c-0.1,0-0.1,0-0.2,0c0,0.5,0,0.7,0,1.1
			c0.1,0,0.1,0,0.2,0c0.1,0,0.2,0,0.3,0c0.1,0,0.1-0.1,0.2-0.1c0,0,0.1-0.1,0.1-0.2C52.8,57.1,52.9,57,52.9,56.9L52.9,56.9z
			 M51.1,57.8c-0.1,0-0.2,0-0.3,0c-0.1-0.2-0.1-0.2-0.2-0.4c0,0,0-0.1-0.1-0.1c0,0,0,0-0.1-0.1s-0.1,0-0.1,0c0,0-0.1,0-0.1,0
			c-0.1,0-0.2,0-0.3,0c0,0.3,0,0.4,0,0.6c-0.1,0-0.2,0-0.3,0c0-0.6-0.1-0.9-0.1-1.7c0.3,0,0.5,0,0.8-0.1c0,0,0.1,0,0.1,0
			s0.1,0,0.1,0c0,0,0.1,0,0.1,0c0,0,0.1,0,0.1,0.1c0,0,0.1,0.1,0.1,0.1c0,0,0,0.1,0.1,0.1c0,0,0,0.1,0,0.1c0,0,0,0.1,0,0.1
			c0,0.1,0,0.2-0.1,0.3c0,0.1-0.2,0.2-0.2,0.2c0,0,0.1,0.1,0.2,0.2C51,57.5,51,57.6,51.1,57.8L51.1,57.8z M49.9,56.9L49.9,56.9
			c0.2,0,0.2,0,0.4,0c0.1,0,0.1,0,0.1,0c0,0,0.1,0,0.1,0c0,0,0,0,0.1-0.1c0,0,0-0.1,0-0.1c0-0.1,0-0.1-0.1-0.2c-0.1,0-0.1,0-0.2,0
			c-0.2,0-0.3,0-0.5,0C49.9,56.6,49.9,56.7,49.9,56.9L49.9,56.9z M48.3,57.8L48.3,57.8c0.1,0,0.1,0,0.2-0.1c0.1,0,0.1-0.1,0.1-0.1
			c0-0.1,0.1-0.1,0.1-0.2c0-0.1,0-0.2,0-0.2c0-0.1,0-0.2-0.1-0.2c0-0.1-0.1-0.1-0.1-0.2c-0.1-0.1-0.1-0.1-0.2-0.1
			c-0.1,0-0.1,0-0.2,0c-0.1,0-0.1,0-0.2,0.1c-0.1,0-0.1,0.1-0.1,0.1c0,0.1-0.1,0.1-0.1,0.2c0,0.1,0,0.2,0,0.3c0,0.1,0,0.2,0.1,0.2
			c0,0.1,0.1,0.1,0.1,0.2c0,0,0.1,0.1,0.2,0.1C48.1,57.8,48.2,57.8,48.3,57.8L48.3,57.8z"/>
		<path fill="#FFFFFF" d="M50.4,66.4l0.2,0.5h0.5l-0.4,0.3l0.2,0.5l-0.4-0.3L50,67.8l0.2-0.5L49.7,67h0.5L50.4,66.4L50.4,66.4z
			 M63,76.3l0.1,0.2h0.2l-0.1,0.1l0.1,0.2L63,76.7l-0.2,0.1l0.1-0.2l-0.1-0.1h0.2L63,76.3L63,76.3z M66.8,72.2l0.1,0.3h0.3L67,72.8
			l0.1,0.3l-0.3-0.2l-0.3,0.2l0.1-0.3l-0.3-0.2h0.3L66.8,72.2L66.8,72.2z M69.7,72.7l0.1,0.3h0.3l-0.3,0.2l0.1,0.3l-0.3-0.2
			l-0.3,0.2l0.1-0.3L69.2,73h0.3L69.7,72.7L69.7,72.7z M71.6,72.1l0.1,0.3H72l-0.3,0.2l0.1,0.3l-0.3-0.2l-0.3,0.2l0.1-0.3l-0.3-0.2
			h0.3L71.6,72.1L71.6,72.1z M77.5,68.8l0.1,0.3H78l-0.3,0.2l0.1,0.3l-0.3-0.2l-0.3,0.2l0.1-0.3l-0.3-0.2h0.3L77.5,68.8L77.5,68.8z
			 M71.6,75.5l0.1,0.3h0.3l-0.3,0.2l0.1,0.3l-0.3-0.2l-0.3,0.2l0.1-0.3l-0.3-0.2h0.3L71.6,75.5L71.6,75.5z M73.4,72.4l0.1,0.3h0.3
			L73.6,73l0.1,0.3l-0.3-0.2l-0.3,0.2l0.1-0.3l-0.3-0.2h0.3L73.4,72.4L73.4,72.4z M67.7,61.7l0.1,0.3h0.3l-0.3,0.2l0.1,0.3l-0.3-0.2
			l-0.3,0.2l0.1-0.3L67.3,62h0.3L67.7,61.7L67.7,61.7z M61.3,66.9l0.1,0.3h0.3l-0.3,0.2l0.1,0.3l-0.3-0.2L61,67.7l0.1-0.3l-0.3-0.2
			h0.3L61.3,66.9L61.3,66.9z M48.3,68.2l0.1,0.3h0.3l-0.3,0.2l0.1,0.3l-0.3-0.2L48,69.1l0.1-0.3l-0.3-0.2h0.3L48.3,68.2L48.3,68.2z
			 M75.8,70l0.1,0.4h0.4L76,70.7l0.1,0.4l-0.4-0.3l-0.4,0.3l0.1-0.4l-0.4-0.3h0.4L75.8,70L75.8,70z M74.8,71.4l0.1,0.4h0.4L75,72.1
			l0.1,0.4l-0.4-0.3l-0.4,0.3l0.1-0.4l-0.4-0.3h0.4L74.8,71.4L74.8,71.4z M68.2,74.1l0.1,0.4h0.4l-0.4,0.3l0.1,0.4l-0.4-0.3
			l-0.4,0.3l0.1-0.4l-0.4-0.3H68L68.2,74.1L68.2,74.1z M71.7,73.6l0.1,0.4h0.4l-0.4,0.3l0.1,0.4l-0.4-0.3l-0.4,0.3l0.1-0.4l-0.4-0.3
			h0.4L71.7,73.6L71.7,73.6z M53.5,70l0.1,0.4h0.4l-0.4,0.3l0.1,0.4l-0.4-0.3l-0.4,0.3l0.1-0.4l-0.4-0.3h0.4L53.5,70L53.5,70z
			 M65,66.7l0.1,0.4h0.4l-0.4,0.3l0.1,0.4L65,67.6l-0.4,0.3l0.1-0.4l-0.4-0.3h0.4L65,66.7L65,66.7z M63,65.2l0.1,0.4h0.4l-0.4,0.3
			l0.1,0.4L63,66l-0.4,0.3l0.1-0.4l-0.4-0.3h0.4L63,65.2L63,65.2z M56.4,63.1l0.1,0.4H57l-0.4,0.3l0.1,0.4l-0.4-0.3l-0.4,0.3
			l0.1-0.4l-0.4-0.3h0.4L56.4,63.1L56.4,63.1z M54,68.3l0.1,0.4h0.4L54.2,69l0.1,0.4L54,69.2l-0.4,0.3l0.1-0.4l-0.4-0.3h0.4L54,68.3
			L54,68.3z M62.1,68.2l0.1,0.2h0.2l-0.2,0.1l0.1,0.2l-0.2-0.1l-0.2,0.1l0.1-0.2l-0.2-0.1h0.2L62.1,68.2L62.1,68.2z M52.1,65.8
			l0.1,0.2h0.2l-0.2,0.1l0.1,0.2l-0.2-0.1l-0.2,0.1l0.1-0.2L51.8,66H52L52.1,65.8L52.1,65.8z M68.4,56.9l0.2,0.5h0.5l-0.4,0.3
			l0.2,0.5l-0.4-0.3l-0.4,0.3l0.2-0.5l-0.4-0.3h0.5L68.4,56.9L68.4,56.9z M75.1,68.3l0.2,0.5h0.5l-0.4,0.3l0.2,0.5l-0.4-0.3
			l-0.4,0.3l0.2-0.5l-0.4-0.3H75L75.1,68.3L75.1,68.3z M48.9,59.2l0.2,0.5h0.5L49.1,60l0.2,0.5l-0.4-0.3l-0.4,0.3l0.2-0.5l-0.4-0.3
			h0.5L48.9,59.2L48.9,59.2z M63,70l0.2,0.5h0.5l-0.4,0.3l0.2,0.5L63,71.1l-0.4,0.3l0.2-0.5l-0.4-0.3h0.5L63,70L63,70z M56,71.4
			l0.2,0.5h0.5l-0.4,0.3l0.2,0.5L56,72.5l-0.4,0.3l0.2-0.5L55.3,72h0.5L56,71.4L56,71.4z"/>
	</g>
	<path opacity="0.35" fill="#FFFFFF" d="M13,29.7v25.5C26.2,62.6,43.7,67,63,67s36.8-4.5,50-11.8V29.7H13z"/>
</g>
</svg>
