<?xml version="1.0" encoding="utf-8"?>
<!-- Generator: Adobe Illustrator 24.3.0, SVG Export Plug-In . SVG Version: 6.00 Build 0)  -->
<svg version="1.1" id="Layer_1" xmlns="http://www.w3.org/2000/svg" xmlns:xlink="http://www.w3.org/1999/xlink" x="0px" y="0px"
	 viewBox="0 0 126 126" enable-background="new 0 0 126 126" xml:space="preserve">
<g>
	<g>
		<path fill-rule="evenodd" clip-rule="evenodd" fill="#FFF200" d="M13,96.3h100v-4.6L13,63.9V96.3L13,96.3z M113,62.1V29.7H13v4.6
			L113,62.1L113,62.1z"/>
		<polygon fill-rule="evenodd" clip-rule="evenodd" fill="#F0F0F0" points="13,34.3 113,62.1 113,77.8 13,50 13,34.3 		"/>
		<polygon fill-rule="evenodd" clip-rule="evenodd" points="13,50 113,77.8 113,91.7 13,63.9 13,50 		"/>
		<path fill-rule="evenodd" clip-rule="evenodd" fill="#D20714" d="M63,59.3L63,59.3c0.2,0.2,0.3,0.5,0.3,0.7c0,0.2,0,0.3,0.3,0
			c0.3-0.3,0.5-0.4,0.7-0.4c0.2,0,0.1,0.1-0.1,0.4c-0.2,0.2-0.5,0.6-0.4,1.2c0.1,0.6,0.9,1.8,0.8,2.9c-0.1,1-0.5,1.2-0.6,1.4
			c-0.2,0.2-0.2,0.1-0.2-0.1c0-0.2-0.3-1.3-0.8-1.6V59.3L63,59.3z M63,59.3L63,59.3c-0.2,0.2-0.3,0.5-0.3,0.7c0,0.2,0,0.3-0.3,0
			c-0.3-0.3-0.5-0.4-0.7-0.4c-0.2,0-0.1,0.1,0.1,0.4c0.2,0.2,0.5,0.6,0.4,1.2c-0.1,0.6-0.9,1.8-0.8,2.9c0.1,1,0.5,1.2,0.6,1.4
			c0.2,0.2,0.2,0.1,0.2-0.1c0-0.2,0.2-1.3,0.8-1.6V59.3L63,59.3z M63,46.3l0.7-0.7l0.8,0.9l0.6-0.7l1,0.8c0,0-1-1.6-0.8-2.8
			c0,0-0.6,0.6-2.3,0.6c-1.7,0-2.3-0.6-2.3-0.6c0.1,1.1-0.8,2.8-0.8,2.8l1-0.8l0.6,0.7l0.8-0.9L63,46.3L63,46.3z M79.7,57
			c0,0,1-0.7,1.4-0.9c0.4-0.2,0.2-0.4,0.4-0.9c0.2-0.4,0.5-1.1,0.8-1.3c0,0-0.1-0.9,0.1-1.2c0.4-0.6-0.9-0.7-0.7,1.4
			c0,0-0.8,0.7-1,1.8C80.8,55.8,79.7,56.2,79.7,57L79.7,57z M80.2,54.2c0.2,0,0.3,0.2,0.3,0.2s0,0,0.1-0.2c0.1-0.1,0.1-0.3,0.1-0.5
			c0-0.2,0.1-0.7,0.2-0.9c0.2-0.3-0.4-0.7-0.6,0.6C80.3,53.9,80.3,53.8,80.2,54.2L80.2,54.2z M79.9,56.1c0,0,0.3-0.3,0.7-0.3
			c0,0,0.2-1.1,1-1.8c0,0-0.1-0.8,0.1-1.2c0.3-0.7-0.8-0.2-0.7,0.9c0,0.5,0,0.7-0.2,0.9c-0.2,0.2-0.3,0.5-0.4,0.7
			C80.4,55.5,80,55.9,79.9,56.1L79.9,56.1z M46.3,57c0,0-1-0.7-1.4-0.9c-0.4-0.2-0.2-0.4-0.4-0.9c-0.2-0.4-0.5-1.1-0.8-1.3
			c0,0,0.1-0.9-0.1-1.2c-0.4-0.6,0.9-0.7,0.7,1.4c0,0,0.8,0.7,1,1.8C45.2,55.8,46.3,56.2,46.3,57L46.3,57z M45.7,54.2
			c-0.2,0-0.3,0.2-0.3,0.2s0,0-0.1-0.2c-0.1-0.1-0.1-0.3-0.1-0.5c0-0.2-0.1-0.7-0.2-0.9c-0.2-0.3,0.4-0.7,0.6,0.6
			C45.7,53.9,45.6,53.8,45.7,54.2L45.7,54.2z M46,56.1c0,0-0.3-0.3-0.7-0.3c0,0-0.2-1.1-1-1.8c0,0,0.1-0.8-0.1-1.2
			c-0.3-0.7,0.8-0.2,0.7,0.9c0,0.5,0,0.7,0.2,0.9c0.2,0.2,0.3,0.5,0.4,0.7C45.6,55.5,46,55.9,46,56.1L46,56.1z M47.5,66.9
			c0,0-0.9,0-1.7-0.4c-0.8-0.4-0.7,0.3-0.3,0.5c0.4,0.2,1.2,0.5,2,0.5c0.8,0,1.7-0.2,2.2-0.4c0.5-0.2,0.3-0.8-0.2-0.6
			C49,66.7,48.3,66.9,47.5,66.9L47.5,66.9z M47.5,66c-0.5,0-1-0.1-1.6-0.4c-0.5-0.3-0.7,0.3-0.2,0.6c0.4,0.2,1,0.4,1.7,0.4
			c0.7,0,1.5-0.1,1.9-0.4c0.1-0.1,0.3-0.3,0.1-0.5c-0.2-0.2-0.5,0.1-0.7,0.1C48.4,65.9,47.8,66,47.5,66L47.5,66z M49,64.8
			c-0.3,0.2-0.8,0.4-1.4,0.4c-0.6,0-1.3-0.4-1.4-0.4c-0.3-0.2-0.6,0.2-0.3,0.5c0.2,0.2,0.8,0.6,1.6,0.6c0.8,0,1.3-0.2,1.6-0.5
			C49.4,65,49.2,64.6,49,64.8L49,64.8z M49.2,64.4c0,0-0.1-6-0.1-6.5c0-0.5-0.2-0.7-0.6-1.1c-0.5-0.4-1.2-0.9-1.7-1.6
			c-0.5-0.7-0.9-0.8-1.1-0.7c-0.2,0.2,0.1,0.7,0.3,1c0.2,0.2,0.3,0.5,0.4,0.8c0.1,0.4,0.2,0.5,0.3,0.8c0.1,0.4,0,0.6-0.2,0.3
			c-0.2-0.3-0.5-0.5-0.8-0.7c-0.3-0.2-0.7-0.4-1-0.6c-0.3-0.2-0.3-0.7-0.4-1c-0.1-0.4-0.4-0.8-0.7-1.1c0,0,0.2-1.2-0.4-1.8
			c-0.6-0.5-0.2,1.5-0.1,1.9c0,0.4,0.4,2.2,0.8,2.7c0.4,0.5,1.6,1.4,1.9,1.9C46,59.4,46,59.4,46,60c0,0.5,0,4.5,0,4.5
			S47.6,65.6,49.2,64.4L49.2,64.4z M76.8,64.4c0,0,0.1-6,0.1-6.5c0-0.5,0.2-0.7,0.6-1.1c0.5-0.4,1.2-0.9,1.7-1.6
			c0.5-0.7,0.9-0.8,1.1-0.7c0.2,0.2-0.1,0.7-0.3,1c-0.1,0.2-0.3,0.5-0.4,0.8c-0.1,0.4-0.2,0.5-0.2,0.8c-0.1,0.4,0,0.6,0.2,0.3
			c0.2-0.3,0.5-0.5,0.8-0.7c0.3-0.2,0.7-0.4,1-0.6c0.3-0.2,0.3-0.7,0.4-1c0.1-0.4,0.4-0.8,0.7-1.1c0,0-0.2-1.2,0.4-1.8
			c0.6-0.5,0.2,1.5,0.1,1.9c0,0.4-0.4,2.2-0.8,2.7c-0.4,0.5-1.6,1.4-1.9,1.9C80.1,59.4,80,59.4,80,60s0,4.5,0,4.5
			S78.4,65.6,76.8,64.4L76.8,64.4z M78.5,66.9c0,0,0.9,0,1.7-0.4c0.8-0.4,0.7,0.3,0.3,0.5c-0.4,0.2-1.2,0.5-2,0.5
			c-0.8,0-1.7-0.2-2.2-0.4c-0.5-0.2-0.3-0.8,0.2-0.6C77,66.7,77.7,66.9,78.5,66.9L78.5,66.9z M78.5,66c0.5,0,1-0.1,1.6-0.4
			c0.5-0.3,0.7,0.3,0.2,0.6c-0.4,0.2-1,0.4-1.7,0.4c-0.7,0-1.5-0.1-1.9-0.4c-0.1-0.1-0.3-0.3-0.1-0.5c0.2-0.2,0.5,0.1,0.7,0.1
			C77.6,65.9,78.2,66,78.5,66L78.5,66z M77,64.8c0.3,0.2,0.8,0.4,1.4,0.4c0.6,0,1.3-0.4,1.4-0.4c0.3-0.2,0.7,0.2,0.3,0.5
			c-0.2,0.2-0.8,0.6-1.6,0.6c-0.8,0-1.3-0.2-1.6-0.5C76.6,65,76.8,64.6,77,64.8L77,64.8z M63,71.6c0,0,2.8-0.1,5.3-1.3
			c2.5-1.3,3.2-2.3,3.8-2.7c0.6-0.4,1.2-0.2,1.6,0.3c0.4,0.5,0.1,1.4-0.1,1.7c-0.2,0.3,0.2,0.2,0.5,0.1c0.3-0.1,1.3-0.2,1.8,0.3
			c0.5,0.6,0.1,1.1,0,1.3c-0.1,0.2-0.1,0.2,0.2,0.3c0.3,0.1,1.1,0.2,0.9,1.4c0,0-1.1-0.6-2.3-0.5c-1.2,0.2-1.7,0.5-2.9,1.4
			c-1.2,1-2.1,0.1-2.1-0.3c0-0.4,0-0.5,0-0.7c0-0.2-0.1-0.1-0.2,0c-0.1,0.1-2.5,1.8-6.6,1.9c-4.1-0.1-6.4-1.8-6.6-1.9
			c-0.1-0.1-0.2-0.2-0.2,0c0,0.2,0,0.3,0,0.7c0,0.4-0.9,1.3-2.1,0.3c-1.2-1-1.7-1.3-2.9-1.4c-1.2-0.2-2.3,0.5-2.3,0.5
			c-0.2-1.1,0.6-1.3,0.9-1.4c0.3-0.1,0.3-0.1,0.2-0.3c-0.1-0.2-0.5-0.8,0-1.3c0.5-0.6,1.5-0.4,1.8-0.3c0.3,0.1,0.7,0.2,0.5-0.1
			c-0.2-0.3-0.5-1.2-0.1-1.7c0.4-0.5,1-0.7,1.7-0.3c0.6,0.4,1.3,1.5,3.8,2.7C60.2,71.6,63,71.6,63,71.6L63,71.6z M63,67.1
			c2.4,0,13.1-2.8,9.1-15.3c6.3,7.9,0.5,19.2-9.1,19.2c-9.7,0-15.4-11.3-9.1-19.2C49.9,64.3,60.6,67.1,63,67.1L63,67.1z M63,64.2
			c0.2,0.1,0.6,0.9,0.6,1.3c0,0.4-0.2,0.4-0.1,0.5c0.1,0.2,0.9-0.7,1.4-0.8c0.4-0.1,0.5-0.2,0.8-0.3c0.2-0.1,0.2,0,0.1,0.2
			c-0.1,0.2-0.8,1.7-2.7,1.8c-2-0.1-2.6-1.6-2.7-1.8c-0.1-0.2-0.1-0.3,0.1-0.2c0.2,0.1,0.3,0.2,0.8,0.3c0.4,0.1,1.3,0.9,1.4,0.8
			c0.1-0.2-0.1-0.1-0.1-0.5C62.4,65.1,62.8,64.2,63,64.2L63,64.2z M63,54.1c0,0,0.2-0.1,0.2,0.5c0.1,0.6,0.6-0.4,0.9-0.3
			c0.3,0.1,0.4,0.1-0.2,0.7c-0.5,0.6-0.1,1.7,0.1,2.1c0.1,0.4,0.4,1.6,0,2.1c-0.6,0.8-0.4,0-1-0.4c-0.6,0.4-0.4,1.2-1,0.4
			c-0.4-0.5-0.2-1.7,0-2.1c0.1-0.4,0.6-1.5,0.1-2.1c-0.5-0.6-0.4-0.6-0.2-0.7c0.3-0.1,0.9,0.9,0.9,0.3C62.8,54,63,54.1,63,54.1
			L63,54.1z M63,46.6l0.4-0.3v1.9c0,0,0.6-1.1,2.1-1.1c1.5,0,2.1,0.3,3,0.9c0.8,0.6,1.9,1.4,3.2,1.4c1.3,0,1.5-0.1,1.7-0.1
			c0.2,0,0.2,0.1,0.1,0.3c-0.1,0.2-0.7,1.2-1.7,1.2c-1,0-1.6-0.6-2.3-0.8c-0.6-0.2-1.2-0.4-1.3-0.2c-0.1,0.2,0.5,0.1,0.9,0.3
			c0.4,0.2,1.6,0.9,2.1,0.9c0.5,0.1,0.5,0.1,0.3,0.3c-0.2,0.2-0.6,0.6-1.3,0.5c-0.6-0.1-0.9-0.5-1.5-0.9c-0.7-0.3-1-0.4-1.3-0.5
			c-0.3-0.1-0.4,0.2-0.2,0.2c0.2,0,0.8,0.2,1.3,0.4c0.4,0.2,1.2,0.8,1.3,0.9c0.1,0.1,0.1,0.2-0.1,0.3c-0.1,0.1-0.8,0.6-1.5,0.2
			c-0.7-0.4-0.9-0.7-1.5-1.1c-0.6-0.4-0.7-0.5-0.9-0.4c-0.2,0,0.3,0.3,0.5,0.4c0.2,0.1,1.1,0.8,1.5,1.1c0.4,0.4,0.1,0.4-0.1,0.6
			c-0.2,0.2-0.9,0.3-1.5-0.1c-0.6-0.4-1.8-1.6-2-1.7c-0.1-0.1-0.2,0-0.1,0.1c0.1,0.1,0.6,0.6,0.5,0.9c-0.1,0.3-0.2,0.4-0.7,0.2
			c-0.5-0.1-0.1,0.3,0,0.5c0.1,0.1,0.4,0.8-0.4,1.3c0,0-0.4-0.6-0.5-0.5c-0.2,0-0.5,0.5-0.5,0.5c-0.9-0.5-0.6-1.2-0.4-1.3
			c0.1-0.1,0.5-0.6,0-0.5c-0.5,0.1-0.6,0.1-0.7-0.2c-0.1-0.3,0.4-0.8,0.5-0.9c0.1-0.1,0-0.2-0.1-0.1c-0.1,0.1-1.3,1.3-2,1.7
			c-0.6,0.4-1.3,0.3-1.5,0.1c-0.2-0.1-0.5-0.2-0.1-0.6c0.4-0.4,1.3-1,1.5-1.1c0.2-0.1,0.7-0.4,0.5-0.4c-0.2-0.1-0.3,0-0.9,0.4
			c-0.6,0.4-0.8,0.7-1.5,1.1c-0.7,0.4-1.4-0.1-1.5-0.2c-0.1-0.1-0.2-0.2-0.1-0.3c0.1-0.1,0.9-0.7,1.3-0.9c0.4-0.2,1.1-0.4,1.3-0.4
			c0.2,0,0.1-0.3-0.2-0.2c-0.3,0.1-0.7,0.2-1.3,0.5c-0.7,0.3-0.9,0.8-1.5,0.9c-0.6,0.1-1.1-0.2-1.3-0.5c-0.2-0.2-0.2-0.3,0.3-0.3
			c0.5-0.1,1.7-0.8,2.1-0.9c0.4-0.2,1-0.1,0.9-0.3c-0.1-0.2-0.6,0-1.3,0.2c-0.6,0.2-1.2,0.8-2.3,0.8c-1,0-1.6-0.9-1.7-1.2
			c-0.1-0.2-0.1-0.4,0.1-0.3c0.2,0,0.4,0.2,1.7,0.1c1.3,0,2.4-0.8,3.2-1.4c0.8-0.6,1.5-0.8,3-0.9c1.5,0,2.1,1.1,2.1,1.1v-1.9
			L63,46.6L63,46.6z M63,43.8h0.4v-0.6c0,0,1.2,0,1.8,0.4c0,0-0.3,0.5-2.2,0.7c-1.9-0.1-2.2-0.7-2.2-0.7c0.6-0.4,1.8-0.4,1.8-0.4
			v0.6H63L63,43.8z M63,39.1c0,0-0.6,0-0.6,0.2c0,0.2,0.3,0.3,0.3,0.3s0,4.1,0,4.1s0.2,0,0.2,0s0.3,0,0.2,0c0,0,0-1,0-2l1.8,0.9
			c0,0-1-1.4-1-1.4l1.4-0.5l-2.2-1.1v0c0,0,0.3,0,0.3-0.3C63.6,39.1,63,39.1,63,39.1L63,39.1z"/>
		<g>
			<path fill-rule="evenodd" clip-rule="evenodd" fill="#FEDF00" d="M52.5,69.4c0.3,0.3,0.2,0.5,0.5,0.7c0.3,0.1,0.9,0.1,0.9,0.1
				s0,0.3,0.1,0.4c0.1,0.1,0.2,0.1,0.5-0.1c0.3-0.3,0.5-0.5,0.3-0.7c-0.1-0.2-0.3-0.3-0.6-0.1C54,69.8,53.7,70,53.4,70
				c-0.3-0.1-0.4-0.3-0.6-0.6c-0.2-0.2-0.5-0.4-0.5-0.3C52.3,69.2,52.4,69.3,52.5,69.4L52.5,69.4z M54.4,70c-0.1,0.1-0.1,0.2,0,0.3
				c0.1,0,0.2,0,0.2-0.1C54.6,70,54.5,69.9,54.4,70L54.4,70z"/>
			<path fill-rule="evenodd" clip-rule="evenodd" fill="#FEDF00" d="M55.7,70.2c0,0.2-0.3,0.8-0.4,1c-0.1,0.1,0,0.2,0.1,0.1
				c0.1-0.1,0.5-0.8,0.6-1c0.1-0.2,0.2-0.3,0.2-0.4C56.1,69.8,55.7,70,55.7,70.2L55.7,70.2z"/>
			<path fill-rule="evenodd" clip-rule="evenodd" fill="#FEDF00" d="M55.1,71.5c-0.4-0.4-0.6-0.7-0.7-0.5c-0.1,0.1-0.1,0.4,0.2,0.6
				c0.3,0.2,0.6,0.4,0.9,0.4c0.3,0.1,0.3,0.1,0.5,0.3c0.2,0.2,0.7,0.4,1.2,0.4c0.5,0,0.7-0.1,0.8,0.1c0.1,0.2,0.2,0.3,0.5,0.3
				c0.3,0,0.4,0,0.3,0.1c0,0.1-0.1,0.3,0.3,0.3c0.3-0.1,0.6-0.2,0.7,0.1c0.2,0.2,0.4,0.3,0.8,0.1c0.3-0.1,0.5-0.6,0.5-1
				c0-0.4,0.1-0.6,0.1-0.7c0-0.1-0.2-0.1-0.3,0.1c-0.2,0.2-0.1,0.2,0,0.4c0,0.2,0,0.8-0.2,1c-0.2,0.2-0.5,0.1-0.5-0.1
				c0-0.2-0.1-0.4-0.4-0.2c-0.3,0.2-0.5,0.2-0.5,0c0-0.2-0.1-0.3-0.4-0.2c-0.3,0-0.4,0-0.5-0.2c-0.1-0.2-0.1-0.1-0.5-0.2
				c-0.4,0-0.9,0-1.3-0.3c-0.4-0.3-0.4-0.3-0.3-0.7c0.2-0.4,0.2-0.5,0.3-0.7c0.1-0.2,0.1-0.3,0.3-0.4c0.1-0.1,0-0.2-0.2-0.1
				c-0.3,0.1-0.3,0.2-0.3,0.3c0,0.2,0,0.3-0.2,0.6C56,71.5,55.6,72,55.1,71.5L55.1,71.5z"/>
			<path fill-rule="evenodd" clip-rule="evenodd" fill="#FEDF00" d="M61.7,72.3c0,0.4,0,1,0,1.3c-0.1,0.3,0,0.3,0.1,0.2
				c0.1-0.2,0.2-0.6,0.2-0.9c0-0.3,0.1-0.7,0.1-0.8c0-0.1,0-0.2-0.2-0.1C61.8,72.1,61.7,72.1,61.7,72.3L61.7,72.3z"/>
			<path fill-rule="evenodd" clip-rule="evenodd" fill="#FEDF00" d="M63.1,72.4c0.1,0.1,0.1,1.2,0.1,1.4c0,0.3,0.1,0.2,0.2,0
				c0.1-0.3,0.1-1.1,0-1.3c0-0.2,0-0.3,0-0.4c0-0.1,0-0.1-0.1-0.1C63.1,72.1,62.9,72.2,63.1,72.4L63.1,72.4z"/>
			<path fill-rule="evenodd" clip-rule="evenodd" fill="#FEDF00" d="M62.4,73.5c0,0.3,0.1,0.5-0.5,0.6c-0.6,0.2-1.2,0-1.4,0
				c-0.2,0-0.3,0-0.1,0.2c0.2,0.1,1.2,0,1.5,0c0.3,0,0.6-0.2,0.7-0.7s0.2-0.7,0-0.6C62.5,73.2,62.4,73.3,62.4,73.5L62.4,73.5z"/>
			<path fill-rule="evenodd" clip-rule="evenodd" fill="#FEDF00" d="M64.5,73.2c0.1,0.1,0.1,0.2,0.2,0.3c0.1,0.2-0.1,0.3-0.4,0.3
				c-0.3,0-0.2,0-0.4,0.2c-0.1,0.2-0.2,0.4,0.1,0.2c0.3-0.1,0.4-0.1,0.6-0.3c0.2-0.2,0.4-0.4,0.4-0.7c0-0.3-0.3-0.7-0.5-0.8
				c-0.2-0.1-0.2,0-0.3,0.1c-0.1,0.1-0.3,0.3-0.1,0.4C64.3,73,64.3,72.9,64.5,73.2L64.5,73.2z"/>
			<path fill-rule="evenodd" clip-rule="evenodd" fill="#FEDF00" d="M66.6,72.6c-0.2,0.5-0.4,0.8,0.1,0.9c0.4,0.1,0.8,0.1,1.4-0.2
				c0.6-0.3,0.9-0.9,1-1.1c0.1-0.2-0.1-0.3-0.3-0.3c-0.2,0-0.3-0.1-0.2-0.3c0.1-0.2,0.1-0.4,0-0.6c-0.1-0.2-0.2-0.1-0.3,0.1
				c-0.1,0.2,0,0.3,0,0.5c0,0.2-0.3,0.4-0.4,0.5c-0.1,0.2,0,0.3,0.1,0.2c0.2-0.1,0.4-0.3,0.5-0.2c0.1,0.1,0.3,0.3,0.1,0.5
				c-0.2,0.2-0.7,0.6-1.4,0.7c-0.7,0-0.6-0.2-0.5-0.4C66.8,72.6,66.8,72.2,66.6,72.6L66.6,72.6z"/>
			<path fill-rule="evenodd" clip-rule="evenodd" fill="#FEDF00" d="M67.5,73.7c-0.1,0.1,0,0.2,0.1,0.2c0.1,0,0.1-0.1,0.1-0.2
				C67.7,73.6,67.6,73.6,67.5,73.7L67.5,73.7z"/>
			<path fill-rule="evenodd" clip-rule="evenodd" fill="#FEDF00" d="M68,73.5c-0.1,0.1,0,0.2,0.1,0.2c0.1,0,0.1-0.1,0.1-0.2
				C68.2,73.4,68.1,73.4,68,73.5L68,73.5z"/>
			<path fill-rule="evenodd" clip-rule="evenodd" fill="#FEDF00" d="M67.8,71c-0.1,0-0.1,0.1,0,0.2c0.1,0,0.1,0,0.2,0
				C67.9,71.1,67.8,71,67.8,71L67.8,71z"/>
			<path fill-rule="evenodd" clip-rule="evenodd" fill="#FEDF00" d="M69.6,72.2c0.5-0.3,1-0.8,1.2-1.4c0.2-0.5-0.2-0.3-0.3-0.2
				c-0.1,0.1-0.4-0.2-0.4-0.4c0-0.3,0.1-0.7,0.4-0.8c0.3-0.1,0.5,0,0.6,0.4c0,0.4,0,1.2-0.3,1.6c-0.3,0.4-0.6,0.7-1.1,1
				C69.2,72.6,69.5,72.3,69.6,72.2L69.6,72.2z M70.6,70.2c0.1-0.1,0.1-0.3,0.1-0.4c0-0.1-0.2-0.1-0.2-0.1
				C70.3,69.9,70.5,70.4,70.6,70.2L70.6,70.2z"/>
			<path fill-rule="evenodd" clip-rule="evenodd" fill="#FEDF00" d="M71,71.5c0.3-0.3,0.5-0.7,0.5-1.3c0-0.5,0-0.7,0.2-0.8
				c0.2-0.1,0.6-0.2,0.8-0.5c0.2-0.3,0.3,0,0.2,0.1c-0.1,0.2-0.5,0.5-0.7,0.6c-0.2,0.1-0.1,0.3-0.1,0.5c0,0.3-0.1,1-0.6,1.4
				C70.6,72,71,71.6,71,71.5L71,71.5z"/>
			<path fill-rule="evenodd" clip-rule="evenodd" fill="#FEDF00" d="M72.5,69.9c-0.1,0-0.1,0.1-0.1,0.2c0.1,0,0.1,0,0.2,0
				S72.6,69.8,72.5,69.9L72.5,69.9z"/>
		</g>
		<g>
			<path fill-rule="evenodd" clip-rule="evenodd" fill="#FEDF00" d="M53.3,62.4c-0.4,0.1-0.6,0.3-0.7,0.7c-0.1,0.4-0.1,0.6,0.2,1
				c0.3,0.4,0.7,0.7,0.7,0.4c0-0.3-0.1-0.8,0.2-0.8c0.3,0,0.7,0,1,0.3c0.3,0.3,0.5,0.5,0.4,0.7c-0.1,0.2-0.3,0.4-0.4,0.3
				c-0.1-0.1,0.1-0.2,0.1-0.4c0-0.1,0-0.3-0.3-0.5c-0.3-0.2-0.7-0.3-0.6,0c0.1,0.4,0.2,0.6-0.1,0.7c-0.3,0.2-1.1-0.3-1.3-0.8
				c-0.2-0.5-0.2-1.4,0.2-1.6C53.2,62.2,53.4,62.2,53.3,62.4C53.5,62.3,53.4,62.4,53.3,62.4L53.3,62.4z"/>
			<path fill-rule="evenodd" clip-rule="evenodd" fill="#FEDF00" d="M54,65.6c0.1,0.2,0.4,0.3,0.6,0.2c0.3-0.1,0.4-0.4,0.6-0.6
				c0.1-0.2,0.3-0.2,0.4-0.1c0.1,0,0,0.2-0.2,0.3c-0.2,0.2-0.6,0.7-0.7,0.8c-0.1,0.1,0,0.2,0.2,0.2c0.1,0,0.5-0.3,0.7-0.3
				c0.2-0.1,0.5,0.1,0.3,0.3c-0.2,0.1-0.6,0.4-0.3,0.4c0.3,0,0.4,0.1,0.8-0.3c0.4-0.4,0.4-0.5,0.6-0.7c0.2-0.2,0.4,0,0.2,0.2
				c-0.3,0.3-0.6,0.7-0.8,0.9C56.2,67,55.8,67,55.5,67c-0.3,0-0.4-0.1-0.6,0.1c-0.2,0.2-0.3,0.3-0.3,0.1c0-0.2,0.1-0.4,0.1-0.5
				c-0.1-0.1-0.1-0.2-0.3-0.2c-0.1,0-0.1-0.1-0.2-0.3c-0.1-0.1-0.6-0.3-0.7-0.5C53.6,65.5,53.8,65.1,54,65.6L54,65.6z M55.4,66.4
				c0.2-0.1,0.3-0.1,0.2,0c0,0.1-0.1,0.1-0.2,0.2S55.3,66.4,55.4,66.4L55.4,66.4z M55.3,66.7c0,0-0.1,0.1-0.2,0.1
				C54.9,66.7,55.3,66.5,55.3,66.7L55.3,66.7z"/>
			<path fill-rule="evenodd" clip-rule="evenodd" fill="#FEDF00" d="M57.3,66.3c-0.2,0.2-0.9,1.1-1,1.3c-0.1,0.2,0,0.3,0.3,0.4
				c0.2,0.1,0.4,0.1,0.6-0.1c0.2-0.2,0.3-0.2,0.3-0.3c0-0.2-0.1-0.2-0.3-0.2c-0.1,0.1,0,0.3-0.2,0.4c-0.1,0.1-0.3,0-0.4-0.1
				c-0.1-0.1,0-0.2,0.1-0.3c0.1-0.2,0.9-1,1-1.1c0.1-0.1,0-0.2-0.2-0.2S57.4,66.2,57.3,66.3L57.3,66.3z"/>
			<path fill-rule="evenodd" clip-rule="evenodd" fill="#FEDF00" d="M56.3,68.2c0,0.1,0,0.2,0.1,0.2c0.1,0,0.1-0.1,0.1-0.1
				C56.5,68.1,56.4,68.1,56.3,68.2L56.3,68.2z"/>
			<path fill-rule="evenodd" clip-rule="evenodd" fill="#FEDF00" d="M57.8,67.5c-0.2,0.2-0.3,0.3-0.3,0.6c0,0.3,0.1,0.4,0.4,0.5
				c0.3,0.1,0.6,0,0.9-0.1c0.3-0.2,0.3-0.7,0.3-1c0-0.2-0.3-0.1-0.3,0.1c0,0.2,0,0.5-0.2,0.6c-0.2,0.1-0.6,0.2-0.7,0
				c-0.2-0.2-0.3-0.3-0.1-0.5C58,67.6,58.2,67.1,57.8,67.5L57.8,67.5z"/>
			<path fill-rule="evenodd" clip-rule="evenodd" fill="#FEDF00" d="M58.7,66.9c0,0.1,0,0.2,0.1,0.2c0.1,0,0.1-0.1,0.1-0.1
				C58.9,66.8,58.8,66.8,58.7,66.9L58.7,66.9z"/>
			<path fill-rule="evenodd" clip-rule="evenodd" fill="#FEDF00" d="M57.4,69.1c0.6,0.2,1.2,0.3,1.6,0.1c0.4-0.2,0.5-0.3,0.4-0.4
				c-0.1-0.1-0.3-0.3-0.2-0.4c0.1-0.2,0.2-0.3,0.5-0.5c0.3-0.2,0.4,0.1,0.4,0.3c0,0.2,0,0.4,0.3,0.4c0.3,0,0.3-0.1,0.5-0.1
				c0.2,0,0.2,0.1,0.1,0.3C60.9,69,61,69,61.4,69c0.4,0,0.8-0.2,0.8,0c0,0.2,0.1,0.2,0.4,0.1c0.3-0.2,0.3-0.1,0.4,0
				c0.1,0.1,0.2,0,0.4,0c0.2,0,0.2,0.1,0.5,0.1c0.2,0.1,0.7-0.2,1-0.3c0.2-0.1,0.1-0.2,0-0.3c-0.2-0.1-0.3-0.1-0.5,0
				c-0.2,0-0.3-0.1-0.1-0.3c0.2-0.2,0.3-0.1,0.7,0c0.4,0.1,0.5,0.1,0.7,0.1c0.2,0,0.2,0.2-0.1,0.2c-0.3,0-0.3,0-0.5,0.2
				c-0.2,0.2-0.6,0.5-1,0.6c-0.4,0.1-0.8-0.2-1.1-0.2c-0.2,0-0.7,0.2-0.9,0.1c-0.2,0-0.1-0.2-0.4-0.2c-0.3,0-0.9,0-1-0.1
				c-0.1-0.1,0.1-0.4-0.3-0.4c-0.4,0-0.5-0.1-0.7,0.1c-0.2,0.2-0.3,0.5-0.9,0.6c-0.6,0.1-1.3,0.1-1.6-0.1
				C57,69.3,56.9,68.9,57.4,69.1L57.4,69.1z M59.6,68.5c-0.1-0.1-0.2-0.2-0.1-0.3c0.1-0.1,0.2-0.1,0.2,0
				C59.8,68.4,59.7,68.6,59.6,68.5L59.6,68.5z"/>
			<path fill-rule="evenodd" clip-rule="evenodd" fill="#FEDF00" d="M60.7,67.6c-0.1,0.2,0.1,0.2,0.1,0.2c0.1,0,0.1-0.1,0.1-0.2
				C60.8,67.6,60.7,67.6,60.7,67.6L60.7,67.6z"/>
			<path fill-rule="evenodd" clip-rule="evenodd" fill="#FEDF00" d="M65.2,69.3c0,0.2,0,0.3,0.2,0.3c0.2,0,0.3-0.1,0.4,0.1
				c0.1,0.2,0.2,0.3,0.4,0.3s0.4-0.1,0.5-0.4c0.1-0.2,0.1-0.2,0.3-0.2c0.1-0.1,0.5-0.1,0.6-0.6c0-0.5-0.3-1.8-0.4-2.1
				c-0.1-0.3-0.2-0.1-0.3,0c-0.1,0.1-0.1,0.1,0,0.3c0.1,0.1,0.4,0.8,0.5,1.3c0.1,0.4,0,0.9-0.3,0.8c-0.3,0-0.8-0.1-1,0
				c-0.3,0.2-0.4,0.2-0.5,0C65.3,69.1,65.2,69,65.2,69.3L65.2,69.3z M66.1,69.7c0.1,0.1,0.2,0.2,0.3,0.1c0.1-0.1,0-0.2,0-0.3
				C66.3,69.4,65.9,69.4,66.1,69.7L66.1,69.7z"/>
			<path fill-rule="evenodd" clip-rule="evenodd" fill="#FEDF00" d="M67.4,67.1c0.2,0.3,0.4,1,0.4,1.3c0,0.2,0.1,0.2,0.1-0.1
				c0-0.3,0-0.5,0.2-0.4c0.2,0,0.7,0.1,1-0.2c0.3-0.3,0.3-0.5,0.3-0.9c0-0.4,0.4-0.2,0.6-0.2c0.2,0.1,0.2,0.2,0.2,0.4
				c0,0.3-0.3,0.9-0.7,1.1c-0.3,0.2-0.4,0.4-0.2,0.4c0.2,0,0.7-0.4,0.9-0.8c0.2-0.3,0.1-0.7,0.2-1c0.1-0.3,0-0.4,0.2-0.4
				c0.2,0,0.3,0,0.5,0c0.2-0.1,0.3-0.2,0.3-0.4c0-0.2-0.1-0.3,0.2-0.5c0.4-0.2,0.5-0.1,0.6-0.6c0-0.5,0.1-0.6-0.1-0.6
				c-0.2,0-0.1,0.4-0.1,0.5c0,0.2-0.1,0.3-0.6,0.4c-0.5,0.2-0.7,0.6-0.9,0.8c-0.2,0.2-0.2,0.2-0.5,0c-0.3-0.2-0.5-0.1-0.6,0.1
				c-0.1,0.2-0.1,0.5-0.3,0.2c-0.1-0.3-0.3-0.2-0.4-0.1c-0.1,0.1,0,0.3,0.1,0.5c0.1,0.2,0.2,0.4,0,0.7c-0.2,0.3-0.6,0.2-0.7,0
				c-0.1-0.1,0-0.4-0.2-0.5c-0.1-0.1-0.1,0.3-0.2,0.3s-0.2-0.3-0.2-0.5c0-0.2-0.2-0.1-0.3,0C67.3,66.9,67.3,67,67.4,67.1L67.4,67.1z
				 M71,65.8c-0.1,0.1-0.1,0.3,0,0.3c0.1,0,0.2-0.1,0.2-0.2C71.3,65.8,71.1,65.7,71,65.8L71,65.8z M70,66.1c0.1,0.1,0,0.4-0.1,0.3
				C69.6,66.3,69.7,65.9,70,66.1L70,66.1z"/>
			<path fill-rule="evenodd" clip-rule="evenodd" fill="#FEDF00" d="M68.2,66c-0.1,0.1,0.1,0.3,0.2,0.2C68.5,66.1,68.4,65.7,68.2,66
				L68.2,66z"/>
			<path fill-rule="evenodd" clip-rule="evenodd" fill="#FEDF00" d="M71,63.8c0.2,0.1,0.3,0.2,0.3,0.4c0,0.2,0.2,0.4,0.2,0.1
				c0.1-0.3,0.1-0.5,0.2-0.6c0.1-0.1,0-0.2-0.2-0.1c-0.2,0.1-0.4,0.1-0.3,0c0.1-0.1,0.2-0.1,0.2-0.2c0.1-0.1-0.2-0.2-0.4-0.1
				C70.9,63.4,70.9,63.7,71,63.8L71,63.8z"/>
			<path fill-rule="evenodd" clip-rule="evenodd" fill="#FEDF00" d="M71.7,63.1c0.3,0.3,0.9,0.9,1,1.1c0.2,0.1,0.4-0.1,0.5-0.3
				c0.1-0.2,0.5-0.4,0.6-0.6c0.1-0.3,0.1-0.5-0.1-0.7c-0.1-0.2-1.1-1-1.2-1.2c-0.1-0.1-0.2,0-0.2,0.2c0.1,0.2,0.5,0.2,0.8,0.7
				c0.4,0.5,0.5,0.7,0.4,0.8c-0.1,0.2-0.6-0.3-0.8-0.5c-0.2-0.2-0.4-0.1-0.2,0.2c0.2,0.3,0.3,0.4,0.4,0.6c0.1,0.2-0.1,0.3-0.2,0.5
				c-0.1,0.1-0.1,0-0.2-0.2c-0.1-0.2-0.8-0.8-0.9-0.9C71.6,62.6,71.5,62.9,71.7,63.1L71.7,63.1z"/>
			<path fill-rule="evenodd" clip-rule="evenodd" fill="#FEDF00" d="M72.8,61.2c0.3,0.1,0.8,0.7,1,0.8c0.2,0.1,0.1-0.1-0.1-0.3
				c-0.1-0.2-0.8-0.8-0.9-0.9c-0.2-0.1-0.2-0.1-0.1,0.1C72.6,61.1,72.6,61.2,72.8,61.2L72.8,61.2z"/>
		</g>
	</g>
	<path opacity="0.35" fill="#FFFFFF" d="M13,29.7v25.5C26.2,62.6,43.7,67,63,67c19.3,0,36.8-4.5,50-11.8V29.7H13z"/>
</g>
</svg>
