<?xml version="1.0" encoding="utf-8"?>
<!-- Generator: Adobe Illustrator 24.3.0, SVG Export Plug-In . SVG Version: 6.00 Build 0)  -->
<svg version="1.1" id="Layer_1" xmlns="http://www.w3.org/2000/svg" xmlns:xlink="http://www.w3.org/1999/xlink" x="0px" y="0px"
	 viewBox="0 0 126 126" enable-background="new 0 0 126 126" xml:space="preserve">
<g>
	<g>
		<rect x="13" y="29.7" fill="#FFFFFF" width="100" height="66.7"/>
		<path fill="#47B71D" d="M13,35l34,22.6c-0.6,1.7-0.9,3.6-0.9,5.5c0,1.9,0.3,3.6,0.8,5.3l-0.2,0.2L13,91L13,35L13,35z M59.6,52.2
			h2.3l1.2-2l1.2,2h2.3l-1.1,2l1.2,2h-2.3l-1.2,2l-1.1-2h-2.3l1.2-1.9L59.6,52.2L59.6,52.2z M51.9,65.4h2.3l1.2-2l1.2,2h2.3l-1.1,2
			l1.2,2h-2.3l-1.2,2l-1.1-2h-2.3l1.2-1.9L51.9,65.4L51.9,65.4z M67.1,65.4h2.3l1.2-2l1.2,2h2.3l-1.1,2l1.2,2h-2.3l-1.2,2l-1.1-2
			h-2.3l1.2-1.9L67.1,65.4L67.1,65.4z M113,35L79.1,57.5c0.6,1.8,1,3.6,1,5.6c0,1.9-0.3,3.8-0.9,5.5l0,0L113,91V35L113,35z"/>
		<path fill="#D20714" d="M21.2,96.3l30.5-20.6c3,2.7,7,4.3,11.3,4.3c4.3,0,8.3-1.6,11.3-4.3L105,96.3H21.2L21.2,96.3z M68.9,67.4
			l-1,1.6h1.9l0.9,1.6l0.9-1.6h1.9l-0.9-1.6l0.9-1.7h-1.9l-0.9-1.6l-0.9,1.6h-1.9L68.9,67.4L68.9,67.4z M53.6,67.4l-1,1.6h1.9
			l0.9,1.6l0.9-1.6h1.9l-0.9-1.6l0.9-1.6h-1.9l-0.9-1.6l-0.9,1.6h-1.9L53.6,67.4L53.6,67.4z M61.3,54.3l-1,1.6h1.9l0.9,1.6l0.9-1.6
			h1.9l-0.9-1.6l0.9-1.6H64L63,51l-0.9,1.6h-1.9L61.3,54.3L61.3,54.3z M21.2,29.7l30.6,20.7c3-2.7,6.9-4.3,11.3-4.3
			c4.3,0,8.2,1.6,11.2,4.2L105,29.7H21.2L21.2,29.7z"/>
	</g>
	<path opacity="0.25" fill="#FFFFFF" d="M13,29.7v25.5C26.2,62.6,43.7,67,63,67c19.3,0,36.8-4.5,50-11.8V29.7H13z"/>
</g>
</svg>
