<?xml version="1.0" encoding="utf-8"?>
<!-- Generator: Adobe Illustrator 24.3.0, SVG Export Plug-In . SVG Version: 6.00 Build 0)  -->
<svg version="1.1" id="Layer_1" xmlns="http://www.w3.org/2000/svg" xmlns:xlink="http://www.w3.org/1999/xlink" x="0px" y="0px"
	 viewBox="0 0 126 126" enable-background="new 0 0 126 126" xml:space="preserve">
<g>
	<g>
		<polygon fill-rule="evenodd" clip-rule="evenodd" fill="#0437A0" points="13,96.3 113,96.3 113,29.7 13,29.7 13,96.3 		"/>
		<polygon fill-rule="evenodd" clip-rule="evenodd" fill="#FF1612" points="13,79.7 113,79.7 113,46.3 13,46.3 13,79.7 		"/>
		
			<path fill-rule="evenodd" clip-rule="evenodd" fill="#FFFFFF" stroke="#000000" stroke-width="0.1061" stroke-miterlimit="2.4142" d="
			M43.8,69.4c0,0,0.9-0.5,1.1-1.3v-3.9c0,0-0.1-0.6-0.8-1v-3.6c0.4,0,0.7,0.5,0.7,0.5v0v-1.3c0,0,0.2-0.2,0.5,0v0.3h0.8v-1.7
			c0,0,0.5,0.9,0.8,0.8c0.4-0.1-0.1-0.7-0.1-1c0-0.3,0.1-0.7,0.1-0.7s0.3,0.5,0.5,0.4c0.2-0.1-0.3-0.6-0.3-0.9
			c0-0.3,0.1-0.5,0.1-0.5s0.2,0.5,0.4,0.4c0.2-0.1-0.2-0.6-0.2-0.9c0-0.3,0.1-0.6,0.1-0.6s0.1,0.5,0.3,0.5c0.2-0.1,0.1-0.7,0.1-1
			c0-0.4,0.4-0.8,0.8-0.9c0,0,0-0.6,0.3-0.6c0.3,0,0.3,0.6,0.3,0.6s0.7,0.3,0.8,0.9c0,0.6,0,0.6,0,0.8c0,0.1,0.3,0.2,0.3-0.2
			c0,0,0.2,0.2,0.1,0.7c-0.2,0.4-0.2,0.5-0.1,0.6c0.1,0.1,0.3-0.1,0.4-0.3c0,0,0.2,0.4-0.1,0.8c-0.3,0.4-0.2,0.6,0,0.5
			s0.3-0.3,0.4-0.4c0,0,0.2,0.4,0,0.9c-0.2,0.5-0.2,0.6-0.1,0.7c0.1,0.1,0.5-0.1,0.6-0.3c0.1-0.3,0.2-0.3,0.3-0.3v2.8h0.9
			c0,0,0-0.3,0.3-0.3c0.2,0,0.3,0.3,0.3,0.3h4.5v-2.7c0,0,0.6,0.3,0.6,0.7c0,0.3,0,0.4,0,0.4s0.4,0,0.6,0c0.2,0,0.3-0.3,0.3-0.5
			c0-0.2,0-0.7-0.5-0.8v-0.9c0,0,0.6,0.1,0.9,0.7v-0.4c0,0,0.4,0.1,0.4,0.6c0,0.5,0,0.8,0,0.8h0.3c0,0,0.1-0.9,0-1.1
			c-0.1-0.3-0.2-0.4-0.4-0.5c-0.2-0.1-0.3-0.7-0.1-1.1c0,0,0.2,0.6,0.5,0.4c0.3-0.2,0-0.6-0.2-1c-0.3-0.3-0.6-0.8-0.2-1.4
			c0,0,0.1,0.9,0.5,0.7c0.4-0.2,0.1-0.7-0.1-1c-0.2-0.3-0.3-0.9,0.1-1.2c0,0,0,0.8,0.4,0.7c0.4-0.1-0.1-0.6-0.1-1
			c-0.1-0.3,0.1-0.6,0.2-0.7c0,0,0.2,0.6,0.4,0.4c0.3-0.2-0.2-0.5-0.3-0.7c-0.1-0.2,0.1-0.5,0.1-0.5s0.2,0.5,0.4,0.3
			c0.2-0.2-0.1-0.9-0.1-0.9h0.2L61.5,49h0.3l-0.1-0.5c0,0,0.5,0,0.5,0c0,0,0-0.5,0-0.5h0.4c0,0,0-0.8,0.4-0.8c0.4,0,0.4,0.8,0.4,0.8
			h0.4c0,0-0.1,0.5,0,0.5c0,0,0.5,0,0.5,0L64.1,49h0.3l-0.1,0.6h0.2c0,0-0.3,0.8-0.1,0.9c0.2,0.2,0.4-0.3,0.4-0.3s0.2,0.3,0.1,0.5
			c-0.1,0.2-0.5,0.5-0.3,0.7c0.3,0.2,0.4-0.4,0.4-0.4c0.1,0.1,0.2,0.4,0.2,0.7c-0.1,0.3-0.6,0.9-0.1,1c0.4,0.1,0.4-0.7,0.4-0.7
			c0.4,0.2,0.3,0.9,0.1,1.2c-0.2,0.3-0.4,0.8-0.1,1c0.4,0.2,0.5-0.7,0.5-0.7c0.3,0.6,0,1.1-0.2,1.4c-0.3,0.3-0.5,0.8-0.2,1
			c0.3,0.2,0.5-0.4,0.5-0.4c0.2,0.4,0.1,0.9-0.1,1.1c-0.2,0.1-0.3,0.3-0.4,0.5c-0.1,0.3,0,1.1,0,1.1H66c0,0,0-0.3,0-0.8
			c0-0.5,0.4-0.6,0.4-0.6v0.4c0.3-0.6,0.9-0.7,0.9-0.7v0.9c-0.5,0.1-0.5,0.6-0.5,0.8c0,0.2,0.1,0.5,0.3,0.5c0.2,0,0.6,0,0.6,0
			s0-0.1,0-0.4c0-0.3,0.6-0.7,0.6-0.7v2.7h4.5c0,0,0-0.3,0.3-0.3c0.2,0,0.3,0.3,0.3,0.3H74v-2.8c0.1,0,0.1,0.1,0.3,0.3
			c0.1,0.3,0.5,0.4,0.6,0.3c0.1-0.1,0.1-0.2-0.1-0.7c-0.2-0.5,0-0.9,0-0.9c0.1,0.1,0.2,0.3,0.4,0.4c0.2,0.1,0.2-0.1,0-0.5
			c-0.3-0.4-0.1-0.8-0.1-0.8c0.1,0.2,0.3,0.4,0.4,0.3c0.1-0.1,0-0.2-0.1-0.6c-0.2-0.4,0.1-0.7,0.1-0.7c0.1,0.4,0.3,0.4,0.3,0.2
			c0-0.1,0-0.2,0.1-0.8c0-0.6,0.8-0.9,0.8-0.9s0-0.6,0.3-0.6c0.3,0,0.3,0.6,0.3,0.6c0.4,0.1,0.7,0.5,0.8,0.9c0,0.4-0.1,1,0.1,1
			c0.2,0.1,0.3-0.5,0.3-0.5s0.1,0.3,0.1,0.6c0,0.3-0.4,0.8-0.2,0.9c0.2,0.1,0.4-0.4,0.4-0.4s0.1,0.2,0.1,0.5c0,0.3-0.5,0.8-0.3,0.9
			c0.2,0.1,0.5-0.4,0.5-0.4s0.2,0.4,0.1,0.7c0,0.3-0.5,0.9-0.1,1c0.4,0.1,0.8-0.8,0.8-0.8v1.7h0.8v-0.3c0.3-0.2,0.5,0,0.5,0v1.3v0
			c0,0,0.3-0.5,0.7-0.5v3.6c-0.7,0.4-0.8,1-0.8,1v3.9c0.3,0.8,1.1,1.3,1.1,1.3L63,69.7L43.8,69.4L43.8,69.4z"/>
		<g>
			<polygon points="45,68.1 81,68.1 81,68.2 45,68.2 45,68.1 			"/>
			<g>
				<polygon points="47.2,63 44.8,63 44.7,63 44.7,63 44.7,60.1 44.9,60.1 44.9,62.9 47.2,62.9 47.2,63 				"/>
				<path d="M46.1,59.2v3.7l0.8,0.7l0,0v0v4.5v0v0c0,0-0.1,1-1.4,1.2l0-0.1c1.1-0.2,1.2-1,1.3-1.1v-4.5L46,63l0,0v0v-3.8H46.1
					L46.1,59.2z"/>
				<path d="M44.3,69.2c0,0,0.1,0,0.1-0.1c0.3-0.2,0.7-0.4,0.7-1v-4.8L45,63l0.1-0.1l0.2,0.4l0,0v0v4.8c0,0.6-0.5,0.9-0.8,1.1
					C44.5,69.2,44.4,69.2,44.3,69.2L44.3,69.2L44.3,69.2z"/>
				<path d="M45.8,68.2v-3.1c0-0.2,0.1-0.2,0.2-0.2l0,0h0h0.5c0,0,0.1,0,0.1,0.2v3h-0.1v-3c0-0.1,0-0.1,0-0.1H46h0v0
					c0,0-0.1,0-0.1,0.1v3.1H45.8L45.8,68.2z"/>
				<path d="M44.8,61.5c0.2,0.1,0.4,0.2,0.7,0.4c0.2,0.2,0.5,0.5,0.6,0.8l-0.1,0c-0.1-0.3-0.3-0.6-0.6-0.8c-0.2-0.2-0.5-0.3-0.6-0.4
					L44.8,61.5L44.8,61.5z"/>
				<polygon points="45.4,59.2 45.4,61.8 45.2,61.8 45.2,59.2 45.4,59.2 				"/>
				<polygon points="45.3,59.8 46,59.8 46,59.9 45.3,59.9 45.3,59.8 				"/>
				<path d="M46.6,69.2c0.2,0,0.5-0.2,0.7-0.5c0.2-0.2,0.4-0.5,0.4-0.7v-4l-0.5-0.7l0,0v0v-1.2v-0.1l0.1,0c0,0,0.6,0.2,1,0.6
					c0.1-0.3,0.3-0.9,0.8-1.3l0,0l0,0c0,0,0.6,0.4,0.9,1.2c0.2-0.1,0.5-0.5,0.9-0.5l0.1,0v0.1v1.2v0l0,0l-0.5,0.7v4
					c0,0.1,0.1,0.8,1.1,1.2l0,0.1c-1.1-0.5-1.2-1.3-1.2-1.3l0,0v0v-4.1v0l0,0l0.5-0.7v-1.1c-0.4,0.1-0.8,0.6-0.8,0.6l-0.1,0.1l0-0.1
					c-0.2-0.8-0.7-1.2-0.8-1.3c-0.6,0.5-0.8,1.3-0.8,1.3l0,0.1l-0.1-0.1c-0.2-0.3-0.7-0.6-0.9-0.6v1.1l0.5,0.7l0,0v0v4.1
					c0,0.2-0.2,0.5-0.4,0.7c-0.2,0.2-0.5,0.5-0.7,0.5L46.6,69.2L46.6,69.2z"/>
				<polygon points="47.2,63.4 50.8,63.4 50.8,63.5 47.2,63.5 47.2,63.4 				"/>
				<polygon points="48.1,69.2 48.1,63.4 48.2,63.4 48.2,69.2 48.1,69.2 				"/>
				<polygon points="49.8,69.2 49.8,63.4 49.9,63.4 49.9,69.2 49.8,69.2 				"/>
				<path d="M47.7,62.5c0.1-0.3,0.3-0.7,0.5-1c0.2-0.3,0.5-0.6,0.8-0.7l0,0l0,0c0,0,0.9,0.4,1.3,1.7l-0.1,0c-0.3-1.1-1-1.6-1.2-1.7
					c-0.2,0.1-0.5,0.4-0.7,0.7c-0.2,0.3-0.4,0.7-0.5,1L47.7,62.5L47.7,62.5z"/>
				<path d="M47.8,62.1l-0.7-0.8l0,0v0v-1.1v-0.1l0.1,0c0,0,0.4,0,0.8,0.5c0.1-0.3,0.3-0.9,1.1-1.5l0,0l0,0c0,0,0.8,0.5,1,1.5
					c0.1-0.1,0.4-0.4,0.7-0.5l0.1,0v0.1v1v0l0,0l-0.8,0.9L50,62.1l0.7-0.9v-1c-0.4,0.1-0.7,0.5-0.7,0.5L50,60.9l0-0.1
					c-0.2-0.9-0.8-1.4-1-1.5c-0.9,0.8-1,1.6-1,1.6l0,0.1l-0.1-0.1c-0.3-0.4-0.6-0.5-0.7-0.6v1L47.8,62.1L47.8,62.1L47.8,62.1z"/>
				<path d="M47.4,60.3l-0.3-0.6l0,0v0v-1.1v-0.1l0.1,0c0,0,0.4,0.1,0.7,0.5c0.1-0.3,0.4-1.2,1.1-1.6l0,0l0,0c0,0,0.8,0.5,1,1.6
					c0.1-0.1,0.3-0.4,0.7-0.5l0.1,0v0.1v1.1v0l0,0l-0.3,0.6l-0.1-0.1l0.3-0.6v-1c-0.5,0.1-0.7,0.5-0.7,0.5L50,59.3l0-0.2
					c-0.2-1-0.8-1.5-1-1.7c-0.8,0.6-1,1.7-1,1.7l0,0.2l-0.1-0.1c-0.2-0.4-0.5-0.5-0.7-0.6v1L47.4,60.3L47.4,60.3L47.4,60.3z"/>
				<path d="M48.1,58.6c0,0-0.5-0.6-0.5-0.7c0-0.1,0-0.7,0-0.7l0-0.1l0.1,0c0,0,0.3,0.1,0.6,0.3c0.1-0.2,0.4-0.7,0.8-0.8l0,0l0,0
					c0,0,0.5,0.2,0.8,0.9c0.1-0.1,0.3-0.3,0.6-0.3l0.1,0l0,0.1c0,0,0.1,0.4,0,0.7c-0.1,0.3-0.5,0.7-0.5,0.7l-0.1-0.1
					c0,0,0.4-0.3,0.5-0.6c0-0.2,0-0.5,0-0.7c-0.3,0-0.5,0.3-0.5,0.3l-0.1,0.1l0-0.1c-0.2-0.6-0.6-0.8-0.7-0.9
					c-0.5,0.2-0.7,0.8-0.8,0.8l0,0.1l-0.1-0.1c-0.2-0.2-0.4-0.2-0.5-0.3c0,0.1,0,0.5,0,0.6C47.7,57.9,48.2,58.5,48.1,58.6L48.1,58.6
					L48.1,58.6z"/>
				<path d="M48.3,57.3C48.3,57.3,48.2,57.2,48.3,57.3c-0.2-0.2-0.4-0.4-0.4-0.5c0-0.1,0-0.6,0-0.6l0-0.1l0.1,0c0,0,0.2,0,0.4,0.2
					c0.1-0.1,0.3-0.5,0.7-0.6l0,0l0,0c0,0,0.4,0.2,0.7,0.6c0.1-0.1,0.2-0.2,0.4-0.2l0.1,0v0.1v0.6c0,0.1-0.1,0.1-0.1,0.2
					c-0.1,0.1-0.2,0.2-0.3,0.3l-0.1-0.1c0.1,0,0.2-0.2,0.3-0.3c0.1-0.1,0.1-0.1,0.1-0.2v-0.5c-0.2,0-0.3,0.2-0.3,0.2l-0.1,0.1l0-0.1
					c-0.2-0.4-0.6-0.6-0.7-0.6c-0.6,0.2-0.7,0.6-0.7,0.6l0,0.1l-0.1-0.1c-0.1-0.1-0.2-0.2-0.3-0.2c0,0.1,0,0.4,0,0.5
					c0,0,0.2,0.3,0.3,0.4c0,0,0.1,0.1,0.1,0.1L48.3,57.3L48.3,57.3z"/>
				<path d="M48.4,56.2c0-0.1-0.1-0.1-0.1-0.1c-0.1-0.1-0.1-0.1-0.1-0.2c0-0.1,0-0.5,0-0.5l0-0.1l0.1,0c0,0,0.1,0.1,0.2,0.1
					c0-0.1,0.1-0.3,0.5-0.5l0,0l0,0c0,0,0.4,0.2,0.5,0.5c0.1,0,0.1-0.1,0.2-0.1l0.1,0l0,0.1c0,0,0,0.3,0,0.4c0,0.1-0.2,0.4-0.2,0.4
					l-0.1-0.1c0,0,0.2-0.3,0.2-0.4c0-0.1,0-0.3,0-0.3c-0.1,0-0.2,0.1-0.2,0.1l-0.1,0.1l0-0.1c0-0.2-0.3-0.4-0.4-0.5
					c-0.4,0.2-0.4,0.5-0.4,0.5l0,0.2l-0.1-0.1c0,0-0.1-0.1-0.2-0.1c0,0.1,0,0.3,0,0.4c0,0.1,0,0.1,0.1,0.2
					C48.4,56,48.5,56.1,48.4,56.2L48.4,56.2L48.4,56.2z"/>
				<path d="M48.6,55.3c0,0-0.1-0.1-0.2-0.1c-0.1-0.1-0.3-0.2-0.2-0.3c0-0.1,0-0.4,0-0.4l0-0.1l0.1,0c0,0,0.2,0.1,0.3,0.1
					c0.1-0.1,0.2-0.4,0.4-0.5l0,0l0,0c0,0,0.4,0.2,0.5,0.5c0,0,0.1-0.1,0.2-0.1l0.1,0v0.1v0.4c0,0.1-0.4,0.4-0.4,0.4l-0.1-0.1
					c0,0,0.4-0.2,0.4-0.3v-0.3c-0.1,0.1-0.1,0.1-0.1,0.1l-0.1,0.1l0-0.1c0-0.2-0.4-0.4-0.5-0.5c-0.3,0.2-0.4,0.5-0.4,0.5l0,0.1
					l-0.1-0.1c0,0-0.1-0.1-0.2-0.1c0,0.1,0,0.2,0,0.3c0,0.1,0.1,0.1,0.2,0.2C48.6,55.1,48.6,55.2,48.6,55.3L48.6,55.3L48.6,55.3z"/>
				<polygon points="50.8,62.9 60.3,62.9 60.3,63 50.8,63 50.8,62.9 				"/>
				<path d="M52,69.4c-0.2-0.1-0.5-0.3-0.7-0.6c-0.2-0.2-0.3-0.4-0.3-0.6v-4.5v0l0,0l0.7-0.7l0.1,0.1l-0.7,0.7v4.5
					c0,0.2,0.1,0.4,0.3,0.5C51.6,68.9,51.9,69.1,52,69.4L52,69.4L52,69.4z"/>
				<polygon points="52,60.5 52,63 51.9,63 51.9,60.5 52,60.5 				"/>
				<path d="M51.5,68.2v-3.1c0-0.2,0.1-0.2,0.2-0.2l0,0l0,0h0.5c0,0,0.1,0,0.1,0.2v3h-0.1v-3c0-0.1,0-0.1,0-0.1h-0.5l0,0v0
					c0,0-0.1,0-0.1,0.1v3.1H51.5L51.5,68.2z"/>
				<path d="M53.9,68.2v-3.1c0-0.2,0.1-0.2,0.2-0.2l0,0h0h0.5c0,0,0.1,0,0.1,0.2v3h-0.1v-3c0-0.1,0-0.1,0-0.1h-0.5h0v0
					c0,0-0.1,0-0.1,0.1v3.1H53.9L53.9,68.2z"/>
				<path d="M55.3,68.2v-3.1c0-0.2,0.1-0.2,0.2-0.2l0,0h0h0.5c0,0,0.1,0,0.1,0.2v3h-0.1v-3c0-0.1,0-0.1,0-0.1h-0.5h0v0
					c0,0-0.1,0-0.1,0.1v3.1H55.3L55.3,68.2z"/>
				<path d="M56.6,68.2v-3.1c0-0.2,0.1-0.2,0.2-0.2l0,0h0h0.5c0,0,0.1,0,0.1,0.2v3h-0.1v-3c0-0.1,0-0.1,0-0.1h-0.5h0v0
					c0,0-0.1,0-0.1,0.1v3.1H56.6L56.6,68.2z"/>
				<path d="M52.9,64.9h0.4c0,0,0.1,0,0.1,0.2v3h-0.1v-3c0-0.1,0-0.1,0-0.1h-0.4V64.9L52.9,64.9z"/>
				<path d="M58.5,64.9h-0.4c0,0-0.1,0-0.1,0.2v3h0.1v-3c0-0.1,0-0.1,0-0.1h0.4V64.9L58.5,64.9z"/>
				<path d="M53.7,69.4c-0.2-0.2-0.5-0.3-0.6-0.5c-0.2-0.2-0.3-0.4-0.3-0.7v-4.7v0l0,0l0.5-0.5v-2.5h0.1V63v0l0,0l-0.5,0.5v4.7
					c0,0.2,0.1,0.4,0.2,0.6C53.3,68.9,53.5,69.1,53.7,69.4L53.7,69.4L53.7,69.4z"/>
				<path d="M51.9,62.7c0.1-0.2,0.3-0.5,0.5-0.8c0.2-0.2,0.5-0.4,0.9-0.5l0,0.1c-0.4,0.1-0.6,0.3-0.9,0.5c-0.3,0.2-0.4,0.5-0.5,0.7
					L51.9,62.7L51.9,62.7z"/>
				<polygon points="52.9,60.5 52.9,61.7 52.8,61.7 52.8,60.5 52.9,60.5 				"/>
				<path d="M57.5,69.2c0.3-0.1,0.5-0.3,0.7-0.5c0.2-0.2,0.3-0.4,0.3-0.6v-4.5L57.8,63l0,0v0v-2.5h0.1v2.5l0.7,0.7l0,0v0v4.5
					c0,0.2-0.1,0.5-0.3,0.7c-0.2,0.2-0.4,0.4-0.7,0.5L57.5,69.2L57.5,69.2z"/>
				<polygon points="52.9,64.4 58.6,64.4 58.6,64.5 52.9,64.5 52.9,64.4 				"/>
				<polygon points="52.9,63.5 58.4,63.5 58.4,63.6 52.9,63.6 52.9,63.5 				"/>
				<polygon points="53.4,62.1 57.9,62.1 57.9,62.2 53.4,62.2 53.4,62.1 				"/>
				<polygon points="53.4,61.6 57.9,61.6 57.9,61.8 53.4,61.8 53.4,61.6 				"/>
				<polygon points="53.4,60.8 57.9,60.8 57.9,60.9 53.4,60.9 53.4,60.8 				"/>
				<path d="M60.4,64.9h-0.4c0,0-0.1,0-0.1,0.2v3h0.1v-3c0-0.1,0-0.1,0-0.1h0.4V64.9L60.4,64.9z"/>
				<path d="M59.2,69.2c0.2-0.1,0.6-0.3,0.8-0.6c0.2-0.2,0.3-0.4,0.3-0.6v-5.1c-0.1-0.1-0.3-0.4-0.6-0.5l0-0.1
					c0.4,0.1,0.7,0.6,0.7,0.6l0,0v0v5.1c0,0.2-0.1,0.4-0.3,0.6c-0.3,0.3-0.6,0.5-0.9,0.6L59.2,69.2L59.2,69.2z"/>
				<polygon points="61.2,62.6 58.4,62.6 58.4,62.6 58.4,62.5 58.4,58.8 58.5,58.8 58.5,62.5 61.2,62.5 61.2,62.6 				"/>
				<polygon points="62.3,61.6 58.4,61.6 58.4,61.5 62.3,61.5 62.3,61.6 				"/>
				<polygon points="59,58.8 59,61.5 58.9,61.5 58.9,58.8 59,58.8 				"/>
				<path d="M59.6,57.3c0,0.1,0,0.2,0.1,0.2c0,0.1,0,0.2,0,0.3v3.6h-0.1v-3.6c0-0.1,0-0.2,0-0.3c0-0.1,0-0.1,0-0.2L59.6,57.3
					L59.6,57.3z"/>
				<path d="M59.7,59.9c0.2,0,0.4,0.2,0.7,0.5c0.2,0.2,0.5,0.5,0.6,0.8l-0.1,0.1c-0.2-0.3-0.4-0.5-0.6-0.7C60,60.2,59.8,60,59.6,60
					L59.7,59.9L59.7,59.9z"/>
				<polygon points="60.7,58.3 60.2,58.3 60.2,58.2 60.7,58.2 60.7,58.3 				"/>
				<polygon points="61.1,56 60.2,56 60.2,55.9 61.1,55.9 61.1,56 				"/>
				<polygon points="61.3,54.4 60.3,54.4 60.3,54.2 61.3,54.2 61.3,54.4 				"/>
				<polygon points="61.8,52.9 60.7,52.9 60.7,52.7 61.8,52.7 61.8,52.9 				"/>
				<polygon points="61.9,51.6 61.1,51.6 61.1,51.5 61.9,51.5 61.9,51.6 				"/>
				<polygon points="62.3,50.7 61.4,50.7 61.4,50.5 62.3,50.5 62.3,50.7 				"/>
				<path d="M60.5,69.3c0.3-0.1,0.6-0.3,0.8-0.6c0.2-0.2,0.3-0.4,0.3-0.6v-4.3l-0.4-0.4l0,0v0v-1.9h0.1v1.9l0.4,0.4l0,0v0v4.3
					c0,0.3-0.1,0.5-0.3,0.7c-0.2,0.2-0.5,0.4-0.8,0.6L60.5,69.3L60.5,69.3z"/>
				<polygon points="62.1,69.3 62.1,63.4 62.2,63.4 62.2,69.3 62.1,69.3 				"/>
			</g>
			<g>
				<polygon points="78.8,63 81.2,63 81.2,63 81.2,63 81.2,60.1 81.1,60.1 81.1,62.9 78.8,62.9 78.8,63 				"/>
				<path d="M79.9,59.2v3.7L79,63.6l0,0v0v4.5v0v0c0,0,0.1,1,1.4,1.2l0-0.1c-1.1-0.2-1.2-1-1.3-1.1v-4.5l0.8-0.7l0,0v0v-3.8H79.9
					L79.9,59.2z"/>
				<path d="M81.6,69.2c0,0-0.1,0-0.1-0.1c-0.3-0.2-0.7-0.4-0.7-1v-4.8L81,63l-0.1-0.1l-0.2,0.4l0,0v0v4.8c0,0.6,0.5,0.9,0.8,1.1
					C81.5,69.2,81.5,69.2,81.6,69.2L81.6,69.2L81.6,69.2z"/>
				<path d="M80.1,68.2v-3.1c0-0.2-0.1-0.2-0.2-0.2l0,0l0,0h-0.5c0,0-0.1,0-0.1,0.2v3h0.1v-3c0-0.1,0-0.1,0-0.1H80l0,0v0
					c0,0,0.1,0,0.1,0.1v3.1H80.1L80.1,68.2z"/>
				<path d="M81.1,61.5c-0.2,0.1-0.4,0.2-0.7,0.4c-0.2,0.2-0.5,0.5-0.6,0.8l0.1,0c0.1-0.3,0.3-0.6,0.6-0.8c0.2-0.2,0.5-0.3,0.6-0.4
					L81.1,61.5L81.1,61.5z"/>
				<polygon points="80.6,59.2 80.6,61.8 80.7,61.8 80.7,59.2 80.6,59.2 				"/>
				<polygon points="80.6,59.8 79.9,59.8 79.9,59.9 80.6,59.9 80.6,59.8 				"/>
				<path d="M79.4,69.2c-0.2,0-0.5-0.2-0.7-0.5c-0.2-0.2-0.4-0.5-0.4-0.7v-4l0.5-0.7l0,0v0v-1.2v-0.1l-0.1,0c0,0-0.6,0.2-1,0.6
					c-0.1-0.3-0.3-0.9-0.8-1.3l0,0l0,0c0,0-0.6,0.4-0.9,1.2c-0.2-0.1-0.5-0.5-0.9-0.5l-0.1,0v0.1v1.2v0l0,0l0.5,0.7v4
					c0,0.1-0.1,0.8-1.1,1.2l0,0.1c1.1-0.5,1.2-1.3,1.2-1.3v0v0v-4.1v0l0,0l-0.5-0.7v-1.1c0.4,0.1,0.8,0.6,0.8,0.6l0.1,0.1l0-0.1
					c0.2-0.8,0.7-1.2,0.8-1.3c0.6,0.5,0.8,1.3,0.8,1.3l0,0.1l0.1-0.1c0.2-0.3,0.7-0.6,0.9-0.6v1.1L78.2,64l0,0v0v4.1
					c0,0.2,0.2,0.5,0.4,0.7c0.2,0.2,0.5,0.5,0.7,0.5L79.4,69.2L79.4,69.2z"/>
				<polygon points="78.8,63.4 75.2,63.4 75.2,63.5 78.8,63.5 78.8,63.4 				"/>
				<polygon points="77.9,69.2 77.9,63.4 77.7,63.4 77.7,69.2 77.9,69.2 				"/>
				<polygon points="76.2,69.2 76.2,63.4 76.1,63.4 76.1,69.2 76.2,69.2 				"/>
				<path d="M78.3,62.5c-0.1-0.3-0.3-0.7-0.5-1c-0.2-0.3-0.5-0.6-0.8-0.7l0,0l0,0c0,0-0.9,0.4-1.3,1.7l0.1,0c0.3-1.1,1-1.6,1.2-1.7
					c0.2,0.1,0.5,0.4,0.7,0.7c0.2,0.3,0.4,0.7,0.5,1L78.3,62.5L78.3,62.5z"/>
				<path d="M78.1,62.1l0.7-0.8l0,0v0v-1.1v-0.1l-0.1,0c0,0-0.4,0-0.8,0.5c-0.1-0.3-0.3-0.9-1.1-1.5l0,0l0,0c0,0-0.8,0.5-1,1.5
					c-0.1-0.1-0.4-0.4-0.7-0.5l-0.1,0v0.1v1v0l0,0l0.8,0.9l0.1-0.1l-0.7-0.9v-1c0.4,0.1,0.7,0.5,0.7,0.5l0.1,0.1l0-0.1
					c0.2-0.9,0.8-1.4,1-1.5c0.9,0.8,1,1.6,1,1.6l0,0.1l0.1-0.1c0.3-0.4,0.6-0.5,0.7-0.6v1L78.1,62.1L78.1,62.1L78.1,62.1z"/>
				<path d="M78.6,60.3l0.3-0.6l0,0v0v-1.1v-0.1l-0.1,0c0,0-0.4,0.1-0.8,0.5c-0.1-0.3-0.4-1.2-1.1-1.6l0,0l0,0c0,0-0.8,0.5-1,1.6
					c-0.1-0.1-0.3-0.4-0.7-0.5l-0.1,0v0.1v1.1v0l0,0l0.3,0.6l0.1-0.1l-0.3-0.6v-1c0.5,0.1,0.7,0.5,0.7,0.5l0.1,0.1l0-0.2
					c0.2-1,0.8-1.5,1-1.7c0.8,0.6,1,1.7,1,1.7l0,0.2l0.1-0.1c0.2-0.4,0.5-0.5,0.7-0.6v1L78.6,60.3L78.6,60.3L78.6,60.3z"/>
				<path d="M77.9,58.6c0,0,0.5-0.6,0.5-0.7c0-0.1,0-0.7,0-0.7l0-0.1l-0.1,0c0,0-0.3,0.1-0.6,0.3c-0.1-0.2-0.4-0.7-0.8-0.8l0,0l0,0
					c0,0-0.5,0.2-0.8,0.9c-0.1-0.1-0.3-0.3-0.6-0.3l-0.1,0l0,0.1c0,0-0.1,0.4,0,0.7c0.1,0.3,0.5,0.7,0.5,0.7l0.1-0.1
					c0,0-0.4-0.3-0.5-0.6c0-0.2,0-0.5,0-0.7c0.3,0,0.5,0.3,0.5,0.3l0.1,0.1l0-0.1c0.2-0.6,0.6-0.8,0.7-0.9c0.5,0.2,0.8,0.8,0.8,0.8
					l0,0.1l0.1-0.1c0.2-0.2,0.4-0.2,0.5-0.3c0,0.1,0,0.5,0,0.6C78.3,57.9,77.8,58.5,77.9,58.6L77.9,58.6L77.9,58.6z"/>
				<path d="M77.7,57.3C77.7,57.3,77.7,57.2,77.7,57.3c0.2-0.2,0.4-0.4,0.4-0.5c0-0.1,0-0.6,0-0.6v-0.1l-0.1,0c0,0-0.2,0-0.4,0.2
					c-0.1-0.1-0.3-0.5-0.7-0.6l0,0l0,0c0,0-0.4,0.2-0.7,0.6c-0.1-0.1-0.2-0.2-0.4-0.2l-0.1,0v0.1v0.6c0,0.1,0.1,0.1,0.1,0.2
					c0.1,0.1,0.2,0.2,0.3,0.3l0.1-0.1c-0.1,0-0.2-0.2-0.3-0.3c-0.1-0.1-0.1-0.1-0.1-0.2v-0.5c0.2,0,0.3,0.2,0.3,0.2l0.1,0.1l0-0.1
					c0.2-0.4,0.6-0.6,0.7-0.6c0.6,0.2,0.7,0.6,0.7,0.6l0,0.1l0.1-0.1c0.1-0.1,0.2-0.2,0.3-0.2c0,0.1,0,0.4,0,0.5
					c0,0-0.2,0.3-0.3,0.4c-0.1,0-0.1,0.1-0.1,0.1L77.7,57.3L77.7,57.3z"/>
				<path d="M77.5,56.2c0-0.1,0.1-0.1,0.1-0.1c0.1-0.1,0.1-0.1,0.1-0.2c0-0.1,0-0.5,0-0.5l0-0.1l-0.1,0c0,0-0.1,0.1-0.2,0.1
					c0-0.1-0.1-0.3-0.5-0.5l0,0l0,0c0,0-0.4,0.2-0.5,0.5c-0.1,0-0.1-0.1-0.2-0.1l-0.1,0l0,0.1c0,0,0,0.3,0,0.4
					c0,0.1,0.2,0.4,0.2,0.4l0.1-0.1c0,0-0.2-0.3-0.2-0.4c0-0.1,0-0.3,0-0.3c0.1,0,0.2,0.1,0.2,0.1l0.1,0.1l0-0.1
					c0-0.2,0.3-0.4,0.4-0.5c0.4,0.2,0.4,0.5,0.4,0.5l0,0.2l0.1-0.1c0,0,0.1-0.1,0.2-0.1c0,0.1,0,0.3,0,0.4c0,0.1,0,0.1-0.1,0.2
					C77.5,56,77.5,56.1,77.5,56.2L77.5,56.2L77.5,56.2z"/>
				<path d="M77.4,55.3c0,0,0.1-0.1,0.2-0.1c0.1-0.1,0.3-0.2,0.2-0.3c0-0.1,0-0.4,0-0.4l0-0.1l-0.1,0c0,0-0.2,0.1-0.3,0.1
					c-0.1-0.1-0.2-0.4-0.4-0.5l0,0l0,0c0,0-0.4,0.2-0.5,0.5c0,0-0.1-0.1-0.2-0.1l-0.1,0v0.1v0.4c0,0.1,0.4,0.4,0.4,0.4l0.1-0.1
					c0,0-0.4-0.2-0.4-0.3v-0.3c0.1,0.1,0.1,0.1,0.1,0.1l0.1,0.1l0-0.1c0-0.2,0.4-0.4,0.5-0.5c0.3,0.2,0.4,0.5,0.4,0.5l0,0.1l0.1-0.1
					c0,0,0.1-0.1,0.2-0.1c0,0.1,0,0.2,0,0.3c0,0.1-0.1,0.1-0.2,0.2C77.4,55.1,77.3,55.2,77.4,55.3L77.4,55.3L77.4,55.3z"/>
				<polygon points="75.2,62.9 65.6,62.9 65.6,63 75.2,63 75.2,62.9 				"/>
				<path d="M73.9,69.4c0.2-0.1,0.5-0.3,0.7-0.6c0.2-0.2,0.3-0.4,0.3-0.6v-4.5v0l0,0l-0.7-0.7L74.1,63l0.7,0.7v4.5
					c0,0.2-0.1,0.4-0.3,0.5C74.4,68.9,74.1,69.1,73.9,69.4L73.9,69.4L73.9,69.4z"/>
				<polygon points="73.9,60.5 73.9,63 74.1,63 74.1,60.5 73.9,60.5 				"/>
				<path d="M74.5,68.2v-3.1c0-0.2-0.1-0.2-0.2-0.2l0,0h0h-0.5c0,0-0.1,0-0.1,0.2v3h0.1v-3c0-0.1,0-0.1,0-0.1h0.5h0v0
					c0,0,0.1,0,0.1,0.1v3.1H74.5L74.5,68.2z"/>
				<path d="M72,68.2v-3.1c0-0.2-0.1-0.2-0.2-0.2l0,0l0,0h-0.5c0,0-0.1,0-0.1,0.2v3h0.1v-3c0-0.1,0-0.1,0-0.1h0.5l0,0v0
					c0,0,0.1,0,0.1,0.1v3.1H72L72,68.2z"/>
				<path d="M70.7,68.2v-3.1c0-0.2-0.1-0.2-0.2-0.2l0,0l0,0h-0.5c0,0-0.1,0-0.1,0.2v3H70v-3c0-0.1,0-0.1,0-0.1h0.5l0,0v0
					c0,0,0.1,0,0.1,0.1v3.1H70.7L70.7,68.2z"/>
				<path d="M69.3,68.2v-3.1c0-0.2-0.1-0.2-0.2-0.2l0,0l0,0h-0.5c0,0-0.1,0-0.1,0.2v3h0.1v-3c0-0.1,0-0.1,0-0.1h0.5l0,0v0
					c0,0,0.1,0,0.1,0.1v3.1H69.3L69.3,68.2z"/>
				<path d="M73.1,64.9h-0.4c0,0-0.1,0-0.1,0.2v3h0.1v-3c0-0.1,0-0.1,0-0.1h0.4V64.9L73.1,64.9z"/>
				<path d="M67.5,64.9h0.4c0,0,0.1,0,0.1,0.2v3h-0.1v-3c0-0.1,0-0.1,0-0.1h-0.4V64.9L67.5,64.9z"/>
				<path d="M72.3,69.4c0.2-0.2,0.4-0.3,0.6-0.5c0.2-0.2,0.3-0.4,0.3-0.7v-4.7v0l0,0l-0.5-0.5v-2.5h-0.1V63v0l0,0l0.5,0.5v4.7
					c0,0.2-0.1,0.4-0.2,0.6C72.7,68.9,72.4,69.1,72.3,69.4L72.3,69.4L72.3,69.4z"/>
				<path d="M74.1,62.7c-0.1-0.2-0.3-0.5-0.5-0.8c-0.2-0.2-0.5-0.4-0.9-0.5l0,0.1c0.4,0.1,0.6,0.3,0.9,0.5c0.3,0.2,0.4,0.5,0.5,0.7
					L74.1,62.7L74.1,62.7z"/>
				<polygon points="73,60.5 73,61.7 73.2,61.7 73.2,60.5 73,60.5 				"/>
				<path d="M68.4,69.2c-0.3-0.1-0.5-0.3-0.7-0.5c-0.2-0.2-0.3-0.4-0.3-0.6v-4.5l0.7-0.7l0,0v0v-2.5H68v2.5l-0.7,0.7l0,0v0v4.5
					c0,0.2,0.1,0.5,0.3,0.7c0.2,0.2,0.4,0.4,0.7,0.5L68.4,69.2L68.4,69.2z"/>
				<polygon points="73.1,64.4 67.4,64.4 67.4,64.5 73.1,64.5 73.1,64.4 				"/>
				<polygon points="73.1,63.5 67.5,63.5 67.5,63.6 73.1,63.6 73.1,63.5 				"/>
				<polygon points="72.6,62.1 68.1,62.1 68.1,62.2 72.6,62.2 72.6,62.1 				"/>
				<polygon points="72.6,61.6 68.1,61.6 68.1,61.8 72.6,61.8 72.6,61.6 				"/>
				<polygon points="72.6,60.8 68.1,60.8 68.1,60.9 72.6,60.9 72.6,60.8 				"/>
				<path d="M65.6,64.9H66c0,0,0.1,0,0.1,0.2v3h-0.1v-3c0-0.1,0-0.1,0-0.1h-0.4V64.9L65.6,64.9z"/>
				<path d="M66.8,69.2c-0.2-0.1-0.6-0.3-0.8-0.6c-0.2-0.2-0.3-0.4-0.3-0.6v-5.1c0.1-0.1,0.3-0.4,0.6-0.5l0-0.1
					c-0.4,0.1-0.7,0.6-0.7,0.6l0,0v0v5.1c0,0.2,0.1,0.4,0.3,0.6c0.3,0.3,0.6,0.5,0.9,0.6L66.8,69.2L66.8,69.2z"/>
				<polygon points="64.7,62.6 67.5,62.6 67.6,62.6 67.6,62.5 67.6,58.8 67.5,58.8 67.5,62.5 64.7,62.5 64.7,62.6 				"/>
				<polygon points="63.7,61.6 67.5,61.6 67.5,61.5 63.7,61.5 63.7,61.6 				"/>
				<polygon points="66.9,58.8 66.9,61.5 67.1,61.5 67.1,58.8 66.9,58.8 				"/>
				<path d="M66.3,57.3c0,0.1,0,0.2-0.1,0.2c0,0.1,0,0.2,0,0.3v3.6h0.1v-3.6c0-0.1,0-0.2,0-0.3c0-0.1,0-0.1,0.1-0.2L66.3,57.3
					L66.3,57.3z"/>
				<path d="M66.3,59.9c-0.2,0-0.4,0.2-0.7,0.5c-0.2,0.2-0.5,0.5-0.6,0.8l0.1,0.1c0.2-0.3,0.4-0.5,0.6-0.7c0.3-0.2,0.5-0.4,0.6-0.4
					L66.3,59.9L66.3,59.9z"/>
				<polygon points="65.3,58.3 65.7,58.3 65.7,58.2 65.3,58.2 65.3,58.3 				"/>
				<polygon points="64.8,56 65.8,56 65.8,55.9 64.8,55.9 64.8,56 				"/>
				<polygon points="64.7,54.4 65.7,54.4 65.7,54.2 64.7,54.2 64.7,54.4 				"/>
				<polygon points="64.2,52.9 65.2,52.9 65.2,52.7 64.2,52.7 64.2,52.9 				"/>
				<polygon points="64.1,51.6 64.8,51.6 64.8,51.5 64.1,51.5 64.1,51.6 				"/>
				<polygon points="63.7,50.7 64.5,50.7 64.5,50.5 63.7,50.5 63.7,50.7 				"/>
				<path d="M65.4,69.3c-0.3-0.1-0.6-0.3-0.8-0.6c-0.2-0.2-0.3-0.4-0.3-0.6v-4.3l0.4-0.4l0,0v0v-1.9h-0.1v1.9l-0.4,0.4l0,0v0v4.3
					c0,0.3,0.1,0.5,0.3,0.7c0.2,0.2,0.5,0.4,0.8,0.6L65.4,69.3L65.4,69.3z"/>
				<polygon points="63.8,69.3 63.8,63.4 63.7,63.4 63.7,69.3 63.8,69.3 				"/>
			</g>
			<path d="M59.8,61.5c0.3,0.1,0.9,0.2,1.4,0.5c0.3,0.1,0.5,0.3,0.7,0.5c0.1-0.4,0.3-1.3,1.1-1.7l0,0l0,0c0,0,0.9,0.5,1.1,1.7
				c0.2-0.2,1-0.9,2.1-1l0,0.1c-1.3,0.1-2.1,1-2.1,1l-0.1,0.1l0-0.1c-0.2-1.1-0.9-1.7-1.1-1.8c-0.9,0.5-1,1.8-1,1.8l0,0.2l-0.1-0.2
				c-0.1-0.2-0.4-0.4-0.7-0.6c-0.5-0.2-1-0.4-1.4-0.4L59.8,61.5L59.8,61.5z"/>
			<path d="M60.9,61.5v-1.3v-0.1l0.1,0c0,0,0.4,0.2,0.6,0.5c0.1-0.5,0.4-2,1.4-2.7l0,0l0,0c0,0,1.1,0.9,1.3,2.7
				c0.1-0.2,0.3-0.4,0.6-0.5l0.1,0v0.1v1.2h-0.1v-1.1c-0.3,0.1-0.6,0.6-0.6,0.6l-0.1,0.2l0-0.2c-0.2-1.6-1.1-2.6-1.3-2.7
				c-1.1,0.8-1.3,2.7-1.3,2.8l0,0.2l-0.1-0.2c-0.1-0.3-0.4-0.5-0.6-0.6v1.2H60.9L60.9,61.5z"/>
			<path d="M62.4,58.9h-1.5c-0.1,0-0.1,0-0.2,0c0,0-0.1-0.1-0.1-0.2v-0.9c0,0,0,0,0-0.1c0,0,0.1,0,0.1,0c0.1,0,0.1,0,0.2,0
				c0.2,0.1,0.4,0.2,0.6,0.4c0.1-0.3,0.6-1.4,1.3-1.9l0,0l0,0c0,0,1,0.5,1.4,1.9c0.2-0.2,0.9-0.9,0.9-0.4c0,0.4,0,0.9,0,1
				c0,0,0,0.2-0.2,0.2h-1.5v-0.1h1.5c0.1,0,0.1-0.1,0.1-0.1l0,0v0c0,0,0-0.6,0-1c0-0.2-0.8,0.6-0.8,0.6l-0.1,0.1l0-0.1
				c-0.3-1.3-1.2-1.8-1.3-1.9c-0.9,0.5-1.3,1.9-1.3,1.9l0,0.1l-0.1-0.1c-0.2-0.3-0.4-0.4-0.6-0.5c-0.1,0-0.1,0-0.2,0c0,0,0,0-0.1,0
				v0.9c0,0.1,0,0.1,0,0.1c0,0,0.1,0,0.1,0h1.5V58.9L62.4,58.9z"/>
			<path d="M64.6,60.5c0-0.2,0.1-0.7,0.2-1.1c0.1-0.3,0.2-0.6,0.3-0.7l0.1,0.1c-0.1,0.1-0.2,0.4-0.3,0.7c-0.1,0.4-0.2,0.8-0.1,1
				L64.6,60.5L64.6,60.5z"/>
			<path d="M61.3,60.5c0.1-0.2,0-0.6-0.1-1c-0.1-0.3-0.2-0.6-0.3-0.7l0.1-0.1c0.2,0.1,0.3,0.4,0.4,0.8c0.1,0.4,0.1,0.8,0.1,1.1
				L61.3,60.5L61.3,60.5z"/>
			<path d="M62.5,56.6h-1.3c-0.1,0-0.1,0-0.1-0.1c0,0-0.1-0.1-0.1-0.1v-0.8c0,0,0,0,0-0.1c0,0,0.1,0,0.1,0c0,0,0.1,0,0.2,0
				c0.1,0,0.3,0.2,0.5,0.4c0.1-0.3,0.5-1,1.1-1.4l0,0l0,0c0,0,0.8,0.5,1.1,1.4c0.2-0.2,0.8-0.7,0.8-0.3v0.9c0,0,0,0.1,0,0.1
				c0,0-0.1,0-0.1,0h-1.3v-0.1h1.3c0,0,0,0,0,0c0,0,0,0,0,0v-0.9c0-0.1-0.7,0.5-0.7,0.5L64,56.1l0-0.1c-0.2-0.7-0.9-1.3-1-1.4
				c-0.6,0.4-1,1.4-1,1.4l0,0.1l-0.1-0.1c-0.1-0.2-0.3-0.4-0.5-0.4c-0.1,0-0.1,0-0.1,0c0,0,0,0,0,0v0.8c0,0,0,0,0,0.1c0,0,0,0,0.1,0
				h1.3V56.6L62.5,56.6z"/>
			<path d="M64.1,57.5c0-0.2,0.1-0.4,0.2-0.6c0.1-0.2,0.2-0.3,0.3-0.4l0.1,0.1c-0.1,0.1-0.2,0.2-0.3,0.3c-0.1,0.2-0.1,0.4-0.2,0.6
				L64.1,57.5L64.1,57.5z"/>
			<path d="M61.9,57.6c0-0.2-0.1-0.4-0.2-0.6c-0.1-0.2-0.2-0.3-0.3-0.4l-0.1,0.1c0.1,0.1,0.2,0.2,0.3,0.3c0.1,0.2,0.1,0.4,0.2,0.6
				L61.9,57.6L61.9,57.6z"/>
			<path d="M62.7,54.9h-1.2c-0.1,0-0.1,0-0.2-0.1l0,0c0,0-0.1-0.1-0.1-0.2v-0.8c0,0,0,0,0-0.1l0,0c0,0,0.1,0,0.1,0c0,0,0.1,0,0.2,0
				c0.1,0,0.3,0.1,0.4,0.3c0.1-0.3,0.4-0.9,1-1.3l0,0l0,0c0,0,0.8,0.6,1,1.4c0.2-0.2,0.7-0.7,0.7-0.3v0.9c0,0.1,0,0.1-0.1,0.1
				c0,0-0.1,0-0.1,0h-1.3v-0.1h1.3c0,0,0,0,0.1,0c0,0,0,0,0-0.1v-0.9c0-0.2-0.6,0.5-0.6,0.5l-0.1,0.1l0-0.1
				c-0.1-0.7-0.8-1.2-0.9-1.4c-0.7,0.5-0.9,1.3-0.9,1.3l0,0.1l-0.1-0.1c-0.1-0.2-0.3-0.3-0.4-0.4c-0.1,0-0.1,0-0.1,0c0,0,0,0,0,0
				v0.8c0,0,0,0.1,0,0.1l0,0c0,0,0,0,0.1,0h1.2V54.9L62.7,54.9z"/>
			<polygon points="61.8,54.8 62.2,55.4 62.2,55.4 61.7,54.9 61.8,54.8 			"/>
			<polygon points="63.7,55.3 64.2,54.8 64.3,54.8 63.8,55.4 63.7,55.3 			"/>
			<path d="M62.3,53.6c0,0-0.1-0.1-0.2-0.1c-0.2-0.1-0.4-0.3-0.4-0.4v-0.9v-0.1l0.1,0c0,0,0.4,0.1,0.6,0.3c0.1-0.2,0.2-0.7,0.5-1
				l0,0l0,0c0,0,0.4,0.4,0.6,1c0.1-0.1,0.3-0.4,0.6-0.4h0.1v0.1V53c0,0.2-0.6,0.6-0.6,0.6l-0.1-0.1c0,0,0.5-0.4,0.5-0.5v-0.8
				c-0.3,0-0.6,0.4-0.6,0.4l-0.1,0.1l0-0.1c-0.1-0.6-0.4-0.9-0.5-1c-0.4,0.3-0.5,1-0.5,1l0,0.2l-0.1-0.1c-0.1-0.2-0.4-0.3-0.6-0.4
				v0.8c0,0,0.2,0.2,0.3,0.3C62.2,53.4,62.3,53.4,62.3,53.6L62.3,53.6L62.3,53.6z"/>
			<path d="M62.5,52.1c0,0-0.7-0.4-0.7-0.5V51v-0.1l0.1,0c0,0,0.4,0,0.6,0.2c0-0.2,0.2-0.4,0.4-0.6l0,0l0,0c0,0,0.4,0.1,0.6,0.7
				c0.1-0.1,0.3-0.2,0.6-0.2l0.1,0V51v0.6c0,0.1-0.7,0.6-0.7,0.6l-0.1-0.1c0,0,0.7-0.5,0.7-0.5v-0.5c-0.4,0.1-0.5,0.3-0.5,0.3
				l-0.1,0.1l0-0.1c-0.1-0.5-0.4-0.6-0.5-0.7c-0.3,0.2-0.4,0.6-0.4,0.6l0,0.2l-0.1-0.1c-0.1-0.2-0.4-0.2-0.5-0.2v0.5
				C62,51.7,62.6,52,62.5,52.1L62.5,52.1L62.5,52.1z"/>
			<path d="M62.6,51.1c0,0-0.1,0-0.1-0.1h0c-0.1-0.1-0.3-0.1-0.3-0.2v-0.6v-0.1l0.1,0c0,0,0.2,0.1,0.4,0.2c0-0.1,0.2-0.3,0.3-0.4
				l0,0l0,0c0,0,0.2,0.1,0.4,0.4c0.1-0.1,0.2-0.2,0.4-0.2l0.1,0v0.1v0.7c0,0.1-0.3,0.2-0.3,0.2l0-0.1c0,0,0.3-0.1,0.3-0.1v-0.6
				c-0.2,0.1-0.3,0.2-0.3,0.2l-0.1,0.1l0-0.1c-0.1-0.2-0.2-0.4-0.3-0.4c-0.2,0.1-0.3,0.4-0.3,0.4l0,0.1l-0.1-0.1
				c-0.1-0.1-0.2-0.1-0.3-0.2v0.5c0,0,0.1,0,0.2,0.1l0,0C62.5,50.9,62.6,50.9,62.6,51.1L62.6,51.1L62.6,51.1z"/>
			<polygon points="61.6,49.6 64.3,49.6 64.3,49.7 61.6,49.7 61.6,49.6 			"/>
			<polygon points="61.6,49 64.3,49 64.3,49.1 61.6,49.1 61.6,49 			"/>
			<polygon points="62.2,48.5 63.8,48.5 63.8,48.6 62.2,48.6 62.2,48.5 			"/>
			<polygon points="62.5,48 63.4,48 63.4,48.1 62.5,48.1 62.5,48 			"/>
			<polygon points="61.3,63.4 64.7,63.4 64.7,63.5 61.3,63.5 61.3,63.4 			"/>
		</g>
		<g>
			<polygon fill="#FFFFFF" stroke="#000000" stroke-width="0.1388" stroke-miterlimit="10" points="38.8,78.4 87.2,78.4 87.2,76.1 
				38.8,76.1 38.8,78.4 			"/>
			<polygon fill="#FFFFFF" stroke="#000000" stroke-width="0.1388" stroke-miterlimit="10" points="40,73.8 86,73.8 86,76.1 
				40,76.1 40,73.8 			"/>
			<polygon fill="#FFFFFF" stroke="#000000" stroke-width="0.1388" stroke-miterlimit="10" points="41.2,73.8 84.8,73.8 84.8,71.7 
				41.2,71.7 41.2,73.8 			"/>
			<polygon fill="#FFFFFF" stroke="#000000" stroke-width="0.1388" stroke-miterlimit="10" points="42.4,70.3 83.6,70.3 83.6,71.7 
				42.4,71.7 42.4,70.3 			"/>
			<polygon fill="#FFFFFF" stroke="#000000" stroke-width="0.1388" stroke-miterlimit="10" points="43.2,70.3 82.8,70.3 82.8,69.1 
				43.2,69.1 43.2,70.3 			"/>
			<polygon fill="#FFFFFF" stroke="#000000" stroke-width="0.1388" stroke-miterlimit="10" points="61.6,78.4 64.4,78.4 64.4,69.1 
				61.6,69.1 61.6,78.4 			"/>
			<polygon fill="#FFFFFF" stroke="#000000" stroke-width="0.1388" stroke-miterlimit="10" points="47.5,78.4 50.4,78.4 50.4,69.1 
				47.5,69.1 47.5,78.4 			"/>
			<polygon fill="#FFFFFF" stroke="#000000" stroke-width="0.1388" stroke-miterlimit="10" points="75.6,78.4 78.5,78.4 78.5,69.1 
				75.6,69.1 75.6,78.4 			"/>
			<polygon fill="#FFFFFF" stroke="#000000" stroke-width="0.1388" stroke-miterlimit="10" points="48.1,70.2 49.8,70.2 49.8,69.1 
				48.1,69.1 48.1,70.2 			"/>
			<polygon fill="#FFFFFF" stroke="#000000" stroke-width="0.1388" stroke-miterlimit="10" points="48.1,70.2 49.8,70.2 49.8,71.4 
				48.1,71.4 48.1,70.2 			"/>
			<polygon fill="#FFFFFF" stroke="#000000" stroke-width="0.1388" stroke-miterlimit="10" points="48.1,72.5 49.8,72.5 49.8,71.4 
				48.1,71.4 48.1,72.5 			"/>
			<polygon fill="#FFFFFF" stroke="#000000" stroke-width="0.1388" stroke-miterlimit="10" points="48.1,72.5 49.8,72.5 49.8,73.7 
				48.1,73.7 48.1,72.5 			"/>
			<polygon fill="#FFFFFF" stroke="#000000" stroke-width="0.1388" stroke-miterlimit="10" points="48.1,74.9 49.8,74.9 49.8,73.7 
				48.1,73.7 48.1,74.9 			"/>
			<polygon fill="#FFFFFF" stroke="#000000" stroke-width="0.1388" stroke-miterlimit="10" points="48.1,74.9 49.8,74.9 49.8,76 
				48.1,76 48.1,74.9 			"/>
			<polygon fill="#FFFFFF" stroke="#000000" stroke-width="0.1388" stroke-miterlimit="10" points="48.1,77.2 49.8,77.2 49.8,76 
				48.1,76 48.1,77.2 			"/>
			<polygon fill="#FFFFFF" stroke="#000000" stroke-width="0.1388" stroke-miterlimit="10" points="48.1,77.2 49.8,77.2 49.8,78.4 
				48.1,78.4 48.1,77.2 			"/>
			<polygon fill="#FFFFFF" stroke="#000000" stroke-width="0.1388" stroke-miterlimit="10" points="62.2,70.2 63.8,70.2 63.8,69.1 
				62.2,69.1 62.2,70.2 			"/>
			<polygon fill="#FFFFFF" stroke="#000000" stroke-width="0.1388" stroke-miterlimit="10" points="62.2,70.2 63.8,70.2 63.8,71.4 
				62.2,71.4 62.2,70.2 			"/>
			<polygon fill="#FFFFFF" stroke="#000000" stroke-width="0.1388" stroke-miterlimit="10" points="62.2,72.5 63.8,72.5 63.8,71.4 
				62.2,71.4 62.2,72.5 			"/>
			<polygon fill="#FFFFFF" stroke="#000000" stroke-width="0.1388" stroke-miterlimit="10" points="62.2,72.5 63.8,72.5 63.8,73.7 
				62.2,73.7 62.2,72.5 			"/>
			<polygon fill="#FFFFFF" stroke="#000000" stroke-width="0.1388" stroke-miterlimit="10" points="62.2,74.9 63.8,74.9 63.8,73.7 
				62.2,73.7 62.2,74.9 			"/>
			<polygon fill="#FFFFFF" stroke="#000000" stroke-width="0.1388" stroke-miterlimit="10" points="62.2,74.9 63.8,74.9 63.8,76 
				62.2,76 62.2,74.9 			"/>
			<polygon fill="#FFFFFF" stroke="#000000" stroke-width="0.1388" stroke-miterlimit="10" points="62.2,77.2 63.8,77.2 63.8,76 
				62.2,76 62.2,77.2 			"/>
			<polygon fill="#FFFFFF" stroke="#000000" stroke-width="0.1388" stroke-miterlimit="10" points="62.2,77.2 63.8,77.2 63.8,78.4 
				62.2,78.4 62.2,77.2 			"/>
			<polygon fill="#FFFFFF" stroke="#000000" stroke-width="0.1388" stroke-miterlimit="10" points="76.2,70.2 77.9,70.2 77.9,69.1 
				76.2,69.1 76.2,70.2 			"/>
			<polygon fill="#FFFFFF" stroke="#000000" stroke-width="0.1388" stroke-miterlimit="10" points="76.2,70.2 77.9,70.2 77.9,71.4 
				76.2,71.4 76.2,70.2 			"/>
			<polygon fill="#FFFFFF" stroke="#000000" stroke-width="0.1388" stroke-miterlimit="10" points="76.2,72.5 77.9,72.5 77.9,71.4 
				76.2,71.4 76.2,72.5 			"/>
			<polygon fill="#FFFFFF" stroke="#000000" stroke-width="0.1388" stroke-miterlimit="10" points="76.2,72.5 77.9,72.5 77.9,73.7 
				76.2,73.7 76.2,72.5 			"/>
			<polygon fill="#FFFFFF" stroke="#000000" stroke-width="0.1388" stroke-miterlimit="10" points="76.2,74.9 77.9,74.9 77.9,73.7 
				76.2,73.7 76.2,74.9 			"/>
			<polygon fill="#FFFFFF" stroke="#000000" stroke-width="0.1388" stroke-miterlimit="10" points="76.2,74.9 77.9,74.9 77.9,76 
				76.2,76 76.2,74.9 			"/>
			<polygon fill="#FFFFFF" stroke="#000000" stroke-width="0.1388" stroke-miterlimit="10" points="76.2,77.2 77.9,77.2 77.9,76 
				76.2,76 76.2,77.2 			"/>
			<polygon fill="#FFFFFF" stroke="#000000" stroke-width="0.1388" stroke-miterlimit="10" points="76.2,77.2 77.9,77.2 77.9,78.4 
				76.2,78.4 76.2,77.2 			"/>
		</g>
	</g>
	<path opacity="0.3" fill="#FFFFFF" d="M13,29.7v25.5C26.2,62.6,43.7,67,63,67c19.3,0,36.8-4.5,50-11.8V29.7H13z"/>
</g>
</svg>
