<?xml version="1.0" encoding="utf-8"?>
<!-- Generator: Adobe Illustrator 24.3.0, SVG Export Plug-In . SVG Version: 6.00 Build 0)  -->
<svg version="1.1" id="Layer_1" xmlns="http://www.w3.org/2000/svg" xmlns:xlink="http://www.w3.org/1999/xlink" x="0px" y="0px"
	 viewBox="0 0 126 126" enable-background="new 0 0 126 126" xml:space="preserve">
<g>
	<g>
		<polygon fill-rule="evenodd" clip-rule="evenodd" fill="#F0F0F0" points="38,29.7 88,29.7 88,96.3 38,96.3 38,29.7 		"/>
		<polygon fill-rule="evenodd" clip-rule="evenodd" fill="#FF1612" points="13,29.7 38,29.7 38,96.3 13,96.3 13,29.7 		"/>
		<polygon fill-rule="evenodd" clip-rule="evenodd" fill="#FF1612" points="88,29.7 113,29.7 113,96.3 88,96.3 88,29.7 		"/>
		<path fill-rule="evenodd" clip-rule="evenodd" fill="#FF1612" d="M62.9,41.8c0,0,3,5.6,3.4,6.3c0.4,0.7,0.8,0.8,1.9,0.3
			c1-0.5,2.5-1.3,2.5-1.3s-1.7,8.6-1.9,10c-0.3,1.4,0.7,1.9,1.6,0.8c0.9-1,4.3-4.8,4.3-4.8s0.5,1.7,0.6,2.3c0.1,0.5,0.4,0.9,1.4,0.7
			c1-0.2,5.1-1.1,5.1-1.1s-1.5,5.2-1.6,5.8c-0.1,0.7-0.3,0.9,0.5,1.4c0.8,0.4,1.9,0.9,1.9,0.9s-8.5,7-9.2,7.5
			c-0.7,0.5-0.9,0.9-0.5,2c0.4,1.1,0.6,2.3,0.6,2.3s-8.4-1.2-9.3-1.3c-0.9-0.1-0.8,0.9-0.8,1.4c0,0.5,0.2,9.4,0.2,9.4h-0.8h-0.8
			c0,0,0.2-8.8,0.2-9.4c0-0.5,0.1-1.5-0.8-1.4c-0.9,0.1-9.3,1.3-9.3,1.3s0.3-1.1,0.6-2.3c0.4-1.1,0.2-1.5-0.5-2
			c-0.7-0.5-9.2-7.5-9.2-7.5s1-0.5,1.9-0.9c0.8-0.4,0.7-0.7,0.5-1.4c-0.1-0.7-1.6-5.8-1.6-5.8s4.1,0.9,5.1,1.1
			c1,0.2,1.3-0.2,1.4-0.7c0.1-0.5,0.6-2.3,0.6-2.3s3.4,3.8,4.3,4.8c0.9,1,1.8,0.6,1.6-0.8c-0.3-1.4-1.9-10-1.9-10s1.5,0.8,2.5,1.3
			c1,0.5,1.4,0.4,1.9-0.3C60,47.4,62.9,41.8,62.9,41.8L62.9,41.8z"/>
	</g>
	<path opacity="0.35" fill="#FFFFFF" d="M13,29.7v25.5C26.2,62.6,43.7,67,63,67c19.3,0,36.8-4.5,50-11.8V29.7H13z"/>
</g>
</svg>
