<?xml version="1.0" encoding="utf-8"?>
<!-- Generator: Adobe Illustrator 24.3.0, SVG Export Plug-In . SVG Version: 6.00 Build 0)  -->
<svg version="1.1" id="Layer_1" xmlns="http://www.w3.org/2000/svg" xmlns:xlink="http://www.w3.org/1999/xlink" x="0px" y="0px"
	 viewBox="0 0 126 126" enable-background="new 0 0 126 126" xml:space="preserve">
<g>
	<g>
		<path fill-rule="evenodd" clip-rule="evenodd" fill="#0440A8" d="M13,96.3h100V77.7H13V96.3L13,96.3z M113,63V29.7H13V63H113
			L113,63z"/>
		<path fill-rule="evenodd" clip-rule="evenodd" fill="#F4F4F4" d="M13,77.7h100v-4.9H13V77.7L13,77.7z M113,67.9V63H13v4.9H113
			L113,67.9z"/>
		<polygon fill-rule="evenodd" clip-rule="evenodd" fill="#F90805" points="13,72.8 113,72.8 113,67.9 13,67.9 13,72.8 		"/>
		<path fill-rule="evenodd" clip-rule="evenodd" fill="#FFD520" d="M50.5,52.6l0.7,2.1l2.2,0L51.6,56l0.7,2.1l-1.8-1.3l-1.8,1.3
			l0.7-2.1l-1.8-1.3l2.2,0L50.5,52.6L50.5,52.6z M41.9,55.4l0.7,2.1l2.2,0L43,58.8l0.7,2.1l-1.8-1.3l-1.8,1.3l0.7-2.1l-1.8-1.3
			l2.2,0L41.9,55.4L41.9,55.4z M36.5,62.8l0.7,2.1l2.2,0l-1.8,1.3l0.7,2.1L36.5,67l-1.8,1.3l0.7-2.1l-1.8-1.3l2.2,0L36.5,62.8
			L36.5,62.8z M36.5,71.8l0.7,2.1l2.2,0l-1.8,1.3l0.7,2.1l-1.8-1.3l-1.8,1.3l0.7-2.1L33.6,74l2.2,0L36.5,71.8L36.5,71.8z M41.9,79.2
			l0.7,2.1l2.2,0L43,82.6l0.7,2.1l-1.8-1.3l-1.8,1.3l0.7-2.1l-1.8-1.3l2.2,0L41.9,79.2L41.9,79.2z M50.5,82l0.7,2.1l2.2,0l-1.8,1.3
			l0.7,2.1l-1.8-1.3l-1.8,1.3l0.7-2.1l-1.8-1.3l2.2,0L50.5,82L50.5,82z M59.1,79.2l0.7,2.1l2.2,0l-1.8,1.3l0.7,2.1l-1.8-1.3
			l-1.8,1.3l0.7-2.1l-1.8-1.3l2.2,0L59.1,79.2L59.1,79.2z M64.5,71.8l0.7,2.1l2.2,0l-1.8,1.3l0.7,2.1l-1.8-1.3l-1.8,1.3l0.7-2.1
			L61.6,74l2.2,0L64.5,71.8L64.5,71.8z M64.5,62.8l0.7,2.1l2.2,0l-1.8,1.3l0.7,2.1L64.5,67l-1.8,1.3l0.7-2.1l-1.8-1.3l2.2,0
			L64.5,62.8L64.5,62.8z M59.1,55.4l0.7,2.1l2.2,0l-1.8,1.3l0.7,2.1l-1.8-1.3l-1.8,1.3l0.7-2.1l-1.8-1.3l2.2,0L59.1,55.4L59.1,55.4z
			"/>
	</g>
	<path opacity="0.25" fill="#FFFFFF" d="M13,29.7v25.5C26.2,62.6,43.7,67,63,67c19.3,0,36.8-4.5,50-11.8V29.7H13z"/>
</g>
</svg>
