<?xml version="1.0" encoding="utf-8"?>
<!-- Generator: Adobe Illustrator 24.3.0, SVG Export Plug-In . SVG Version: 6.00 Build 0)  -->
<svg version="1.1" id="Layer_1" xmlns="http://www.w3.org/2000/svg" xmlns:xlink="http://www.w3.org/1999/xlink" x="0px" y="0px"
	 viewBox="0 0 126 126" enable-background="new 0 0 126 126" xml:space="preserve">
<g>
	<g>
		<g>
			<g>
				<path fill-rule="evenodd" clip-rule="evenodd" fill="#0440A8" d="M13,46.3h100V29.7H13V46.3L13,46.3z"/>
				<path fill-rule="evenodd" clip-rule="evenodd" fill="#F4F4F4" d="M13,63h100V46.3H13V63L13,63z"/>
				<path fill-rule="evenodd" clip-rule="evenodd" fill="#47B71D" d="M13,79.7h100V63H13V79.7L13,79.7z"/>
				<path fill-rule="evenodd" clip-rule="evenodd" fill="#FFDE27" d="M13,96.3h100V79.7H13V96.3L13,96.3z"/>
			</g>
			<polygon fill-rule="evenodd" clip-rule="evenodd" fill="#FF1612" points="54.7,96.3 71.4,96.3 71.4,29.7 54.7,29.7 54.7,96.3 			
				"/>
			<polygon fill-rule="evenodd" clip-rule="evenodd" fill="#FFCD31" points="29.5,31.2 27.9,36.4 22.4,36.4 26.8,39.6 25.1,44.8 
				29.5,41.6 33.9,44.8 32.3,39.6 36.7,36.4 31.2,36.4 29.5,31.2 			"/>
		</g>
	</g>
	<path opacity="0.35" fill="#FFFFFF" d="M13,29.7v25.5C26.2,62.6,43.7,67,63,67c19.3,0,36.8-4.5,50-11.8V29.7H13z"/>
</g>
</svg>
