<?xml version="1.0" encoding="utf-8"?>
<!-- Generator: Adobe Illustrator 24.3.0, SVG Export Plug-In . SVG Version: 6.00 Build 0)  -->
<svg version="1.1" id="Layer_1" xmlns="http://www.w3.org/2000/svg" xmlns:xlink="http://www.w3.org/1999/xlink" x="0px" y="0px"
	 viewBox="0 0 126 126" enable-background="new 0 0 126 126" xml:space="preserve">
<g>
	<g>
		<g>
			<polygon fill-rule="evenodd" clip-rule="evenodd" fill="#F0F0F0" points="113,63 113,29.7 46.3,29.7 46.3,63 113,63 			"/>
			<polygon fill-rule="evenodd" clip-rule="evenodd" fill="#0437A0" points="46.3,63 46.3,29.7 13,29.7 13,63 46.3,63 			"/>
			<polygon fill-rule="evenodd" clip-rule="evenodd" fill="#FF1612" points="13,96.3 113,96.3 113,63 13,63 13,96.3 			"/>
			<polygon fill-rule="evenodd" clip-rule="evenodd" fill="#F4F4F4" points="29.7,37.9 31.6,43.8 37.8,43.8 32.8,47.5 34.7,53.4 
				29.7,49.7 24.6,53.4 26.6,47.5 21.5,43.8 27.8,43.8 29.7,37.9 			"/>
		</g>
	</g>
	<path opacity="0.35" fill="#FFFFFF" d="M13,29.7v25.5C26.2,62.6,43.7,67,63,67c19.3,0,36.8-4.5,50-11.8V29.7H13z"/>
</g>
</svg>
