<?xml version="1.0" encoding="utf-8"?>
<!-- Generator: Adobe Illustrator 24.3.0, SVG Export Plug-In . SVG Version: 6.00 Build 0)  -->
<svg version="1.1" id="Layer_1" xmlns="http://www.w3.org/2000/svg" xmlns:xlink="http://www.w3.org/1999/xlink" x="0px" y="0px"
	 viewBox="0 0 126 126" enable-background="new 0 0 126 126" xml:space="preserve">
<g>
	<g>
		<polygon fill-rule="evenodd" clip-rule="evenodd" fill="#FF1612" points="13,96.3 113,96.3 113,29.7 13,29.7 13,96.3 		"/>
		<path fill-rule="evenodd" clip-rule="evenodd" fill="#FEDF00" d="M47.5,33.1l-1.5,2l-2.4-0.8l1.4,2l-1.5,2l2.4-0.7l1.4,2l0-2.5
			l2.4-0.7l-2.4-0.8L47.5,33.1L47.5,33.1z M55.7,41l-2.3,0.8l-1.5-2l0,2.5l-2.4,0.8l2.4,0.7l0,2.5l1.4-2l2.4,0.7l-1.5-2L55.7,41
			L55.7,41z M56.3,52l-2.5,0l-0.7-2.4l-0.8,2.4l-2.5,0l2,1.5l-0.8,2.3l2-1.4l2,1.5l-0.7-2.4L56.3,52L56.3,52z M49.7,59.7l-2.4-0.7
			l0-2.5l-1.4,2l-2.4-0.7l1.5,2l-1.4,2l2.3-0.8l1.5,2l0-2.5L49.7,59.7L49.7,59.7z M29.7,36.3l-2.3,7l-7.4,0l6,4.3l-2.3,7l6-4.4
			l6,4.4l-2.3-7l6-4.3l-7.4,0L29.7,36.3L29.7,36.3z"/>
	</g>
	<path opacity="0.35" fill="#FFFFFF" d="M13,29.7v25.5C26.2,62.6,43.7,67,63,67c19.3,0,36.8-4.5,50-11.8V29.7H13z"/>
</g>
</svg>
