<?xml version="1.0" encoding="utf-8"?>
<!-- Generator: Adobe Illustrator 24.3.0, SVG Export Plug-In . SVG Version: 6.00 Build 0)  -->
<svg version="1.1" id="Layer_1" xmlns="http://www.w3.org/2000/svg" xmlns:xlink="http://www.w3.org/1999/xlink" x="0px" y="0px"
	 viewBox="0 0 126 126" enable-background="new 0 0 126 126" xml:space="preserve">
<g>
	<g>
		<polygon fill-rule="evenodd" clip-rule="evenodd" fill="#0437A0" points="13,29.7 63,29.7 113,29.7 113,96.3 63,96.3 13,96.3 
			13,29.7 		"/>
		<rect x="13" y="29.7" fill-rule="evenodd" clip-rule="evenodd" fill="#0437A0" width="50" height="33.3"/>
		<polygon fill="#FBF9F9" points="63,58.9 44.2,46.3 63,33.8 63,29.7 56.8,29.7 38,42.2 19.2,29.7 13,29.7 13,33.8 31.8,46.3 
			13,58.9 13,63 19.2,63 38,50.5 56.8,63 63,63 63,58.9 		"/>
		<polygon fill="#F90805" points="63,61.5 40.3,46.3 63,31.2 63,29.7 60.7,29.7 38,44.8 15.3,29.7 13,29.7 13,31.2 35.7,46.3 
			13,61.5 13,63 15.3,63 38,47.9 60.7,63 63,63 63,61.5 		"/>
		<polygon fill-rule="evenodd" clip-rule="evenodd" fill="#FBF9F9" points="33.9,29.7 38,29.7 42.1,29.7 42.1,40.8 63,40.8 63,51.8 
			42.1,51.8 42.1,63 38,63 33.9,63 33.9,51.8 13,51.8 13,40.8 33.9,40.8 33.9,29.7 		"/>
		<polygon fill-rule="evenodd" clip-rule="evenodd" fill="#F90805" points="40.6,29.7 40.6,42.9 63,42.9 63,49.8 40.6,49.8 40.6,63 
			38,63 35.4,63 35.4,49.8 13,49.8 13,42.9 35.4,42.9 35.4,29.7 38,29.7 40.6,29.7 		"/>
		<path fill-rule="evenodd" clip-rule="evenodd" fill="#FFFFFF" d="M88.6,49.7l0.9,2.6l2.7,0L90,53.9l0.8,2.6l-2.2-1.6l-2.2,1.6
			l0.8-2.6L85,52.3l2.7,0L88.6,49.7L88.6,49.7z M96,88.5l-2.5-1.1l0.2-2.7l-1.8,2l-2.5-1.1l1.4,2.4l-1.8,2l2.7-0.6l1.4,2.3l0.3-2.7
			L96,88.5L96,88.5z M81.2,88.5l2.5-1.1l-0.2-2.7l1.8,2l2.5-1.1L86.4,88l1.8,2l-2.7-0.6l-1.4,2.3l-0.3-2.7L81.2,88.5L81.2,88.5z
			 M98.9,81.3l0.9,2.6l2.7,0l-2.2,1.6l0.8,2.6l-2.2-1.6l-2.2,1.6l0.8-2.6l-2.2-1.6l2.7,0L98.9,81.3L98.9,81.3z M78.3,81.3l0.9,2.6
			l2.7,0l-2.2,1.6l0.8,2.6l-2.2-1.6l-2.2,1.6l0.8-2.6l-2.2-1.6l2.7,0L78.3,81.3L78.3,81.3z M106.6,77.2l-2.5,1.1l-1.8-2l0.3,2.7
			l-2.5,1.1l2.7,0.6l0.3,2.7l1.4-2.4l2.7,0.5l-1.8-2L106.6,77.2L106.6,77.2z M70.6,77.2l2.5,1.1l1.8-2L74.7,79l2.5,1.1l-2.7,0.6
			l-0.3,2.7l-1.4-2.4l-2.7,0.5l1.8-2L70.6,77.2L70.6,77.2z M107.6,69.4l-1.8,2l-2.5-1.1l1.3,2.4l-1.8,2l2.7-0.5l1.4,2.4l0.3-2.7
			l2.7-0.6l-2.5-1.1L107.6,69.4L107.6,69.4z M69.6,69.4l1.8,2l2.5-1.1l-1.3,2.4l1.8,2l-2.7-0.5l-1.4,2.4l-0.3-2.7l-2.7-0.6l2.5-1.1
			L69.6,69.4L69.6,69.4z M105.2,61.8l0.9,2.6l2.7,0l-2.2,1.6l0.8,2.6l-2.2-1.6l-2.2,1.6l0.8-2.6l-2.2-1.6l2.7,0L105.2,61.8
			L105.2,61.8z M72,61.8l0.9,2.6l2.7,0L73.3,66l0.8,2.6L72,67.1l-2.2,1.6l0.8-2.6l-2.2-1.6l2.7,0L72,61.8L72,61.8z M104.4,56.8
			l-1.3,2.4l1.8,2l-2.7-0.5l-1.4,2.4l-0.3-2.7l-2.7-0.6l2.5-1.1l-0.3-2.7l1.9,2L104.4,56.8L104.4,56.8z M72.8,56.8l1.3,2.4l-1.8,2
			l2.7-0.5l1.4,2.4l0.3-2.7l2.7-0.6l-2.5-1.1l0.3-2.7l-1.9,2L72.8,56.8L72.8,56.8z M79.9,51.6l0.2,2.7l-2.5,1.1l2.6,0.6l0.3,2.7
			l1.4-2.3l2.7,0.6l-1.8-2.1l1.4-2.3l-2.5,1.1L79.9,51.6L79.9,51.6z M97.3,51.6L97,54.3l2.5,1.1L96.9,56l-0.3,2.7l-1.4-2.3l-2.7,0.6
			l1.8-2.1L93,52.5l2.5,1.1L97.3,51.6L97.3,51.6z"/>
	</g>
	<path opacity="0.25" fill="#FFFFFF" d="M13,29.7v25.5C26.2,62.6,43.7,67,63,67c19.3,0,36.8-4.5,50-11.8V29.7H13z"/>
</g>
</svg>
