<?xml version="1.0" encoding="utf-8"?>
<!-- Generator: Adobe Illustrator 24.3.0, SVG Export Plug-In . SVG Version: 6.00 Build 0)  -->
<svg version="1.1" id="Layer_1" xmlns="http://www.w3.org/2000/svg" xmlns:xlink="http://www.w3.org/1999/xlink" x="0px" y="0px"
	 viewBox="0 0 126 126" enable-background="new 0 0 126 126" xml:space="preserve">
<g>
	<g>
		<path fill-rule="evenodd" clip-rule="evenodd" fill="#F4F4F4" d="M113,40.8v11.1H13V40.8H113L113,40.8z M113,74.1v11.1H13V74.1
			H113L113,74.1z"/>
		<path fill-rule="evenodd" clip-rule="evenodd" fill="#0437A0" d="M13,96.3h100V85.2H13V96.3L13,96.3z M113,40.8V29.7H13v11.1H113
			L113,40.8z"/>
		<polygon fill-rule="evenodd" clip-rule="evenodd" fill="#F90805" points="13,74.1 113,74.1 113,51.9 13,51.9 13,74.1 		"/>
	</g>
	<path opacity="0.35" fill="#FFFFFF" d="M13,29.7v25.5C26.2,62.6,43.7,67,63,67c19.3,0,36.8-4.5,50-11.8V29.7H13z"/>
</g>
</svg>
