<?xml version="1.0" encoding="utf-8"?>
<!-- Generator: Adobe Illustrator 24.3.0, SVG Export Plug-In . SVG Version: 6.00 Build 0)  -->
<svg version="1.1" id="Layer_1" xmlns="http://www.w3.org/2000/svg" xmlns:xlink="http://www.w3.org/1999/xlink" x="0px" y="0px"
	 viewBox="0 0 126 126" enable-background="new 0 0 126 126" xml:space="preserve">
<g>
	<g>
		<g>
			<polygon fill-rule="evenodd" clip-rule="evenodd" fill="#F90805" points="13,51.9 113,51.9 113,29.7 13,29.7 13,51.9 			"/>
			<polygon fill-rule="evenodd" clip-rule="evenodd" fill="#F0F0F0" points="13,74.1 113,74.1 113,51.9 13,51.9 13,74.1 			"/>
			<polygon fill-rule="evenodd" clip-rule="evenodd" fill="#0437A0" points="13,96.3 113,96.3 113,74.1 13,74.1 13,96.3 			"/>
			<g>
				<defs>
					<path id="SVGID_1_" d="M50.3,54.9l-3-6.8l2.3-3.7l3.9,1.4l2.8-3.1l3.6,2.1l3.2-2.6l3.2,2.6l3.6-2.1l2.7,3.1l3.9-1.4l2.3,3.7
						l-3,6.8C75.7,54.9,63.8,48.9,50.3,54.9L50.3,54.9z"/>
				</defs>
				<use xlink:href="#SVGID_1_"  overflow="visible" fill-rule="evenodd" clip-rule="evenodd" fill="#0093DD"/>
				<clipPath id="SVGID_2_">
					<use xlink:href="#SVGID_1_"  overflow="visible"/>
				</clipPath>
				<g clip-path="url(#SVGID_2_)">
					<path fill-rule="evenodd" clip-rule="evenodd" fill="#F4F4F4" d="M77.6,50.6l-1.1,2.5l0,0c0,0-1.9-1-5.3-1.9l0.7-2.7
						C71.9,48.6,75.9,49.6,77.6,50.6L77.6,50.6z"/>
					<path fill-rule="evenodd" clip-rule="evenodd" fill="#F90805" d="M77.4,51.1l-0.7,1.6c0,0-2.9-1.4-5.4-1.9l0.5-1.8
						C71.8,49,76.3,50.3,77.4,51.1L77.4,51.1L77.4,51.1z"/>
					<path fill-rule="evenodd" clip-rule="evenodd" fill="#0F33AF" d="M66.2,44.8l3.6-2.1l2.7,3.1l-1.9,7.3
						c-1.4-0.4-3.2-0.7-5.1-0.8L66.2,44.8L66.2,44.8z"/>
					<path fill-rule="evenodd" clip-rule="evenodd" fill="#0F33AF" d="M53.4,45.8l2.8-3.1l3.6,2.1l0.6,7.6c-1.6,0.1-3.3,0.4-5.1,0.8
						L53.5,46L53.4,45.8L53.4,45.8z"/>
					<path fill-rule="evenodd" clip-rule="evenodd" fill="#F90805" d="M53.5,46l0.5,1.8c1.6-0.6,6-1,6-1l-0.1-1.8l0,0
						C57,45.1,53.5,46,53.5,46L53.5,46z M54.4,49.5l0.5,1.8c1.9-0.6,5.4-0.9,5.4-0.9l0,0l-0.1-1.8l0,0
						C57.5,48.7,54.4,49.5,54.4,49.5L54.4,49.5z"/>
					<g>
						<g>
							<g>
								
									<path fill-rule="evenodd" clip-rule="evenodd" fill="#F7DB17" stroke="#000000" stroke-width="2.145400e-02" stroke-miterlimit="2.4142" d="
									M60.6,47c0.1-0.2,0-0.3,0.2-0.4c0,0-0.2-0.1-0.3-0.3c0,0,0.1,0,0.3,0c0,0-0.3-0.1-0.3-0.5c0,0,0.1,0,0.2,0
									c0.1,0,0.2,0,0.2,0s0,0,0,0c0,0,0-0.1-0.1-0.2c-0.1-0.1-0.3-0.5-0.3-0.5s0.1,0.1,0.2,0.1c0.1,0,0.2,0.1,0.2,0.1
									c0,0,0.2-0.1,0.3,0.1c0,0,0,0,0,0c0,0,0-0.2,0.1-0.2c0,0-0.1-0.1,0-0.1c0.1-0.1,0.2-0.2,0.2-0.2s0.1,0.2,0.2,0.2
									c0.1,0.1,0.1,0.1,0.1,0.2c0,0,0.1-0.1,0.1,0.2c0,0,0,0,0,0c0-0.1,0.1-0.2,0.3-0.1c0,0,0-0.1,0.1-0.1c0.1,0,0.2,0,0.3-0.1
									c0,0-0.3,0.5-0.3,0.7c0,0,0.1-0.1,0.2-0.1c0.1,0,0.2-0.1,0.2-0.1s0,0.4-0.2,0.5c0,0,0.2,0,0.3,0c0,0,0,0.2-0.3,0.3
									c0,0,0.2,0,0.2,0.2c0,0.1,0.1,0.2,0.1,0.2s-0.1,0.1-0.4,0c0,0,0.1,0.1,0.1,0.3c0,0-0.1,0-0.2,0c0,0,0,0.1,0,0.1
									c0,0.1,0,0.1,0,0.1s-0.2,0-0.3,0c0,0,0,0.1,0,0.3c0,0-0.1-0.2-0.2-0.2c0,0,0,0.1-0.2,0.2c0,0,0-0.1-0.1-0.1
									c0,0-0.1-0.1-0.1-0.1s-0.1,0.1-0.2,0.2c0,0-0.1-0.1,0-0.3c0,0-0.1,0.1-0.3,0.1c0,0,0-0.1,0-0.1c0-0.1,0-0.1,0-0.1
									s-0.1,0.1-0.2,0c0,0-0.1-0.2,0.1-0.3C60.9,47,60.7,47,60.6,47L60.6,47z"/>
								<path d="M61.6,46c0,0,0,0.1,0,0.1c0,0.1,0,0.1,0,0.1c0,0,0,0.1,0,0.1c0,0,0,0,0,0c0,0,0,0,0,0c0,0-0.1,0-0.1,0
									c-0.1-0.1-0.1-0.1-0.2-0.1c0,0,0,0-0.1,0c0,0,0,0-0.1,0c0,0,0,0-0.1,0l0,0c0,0,0,0,0.1,0c0,0,0,0,0,0c0,0,0,0,0,0
									c0,0,0.1,0,0.2,0.1c0,0,0.1,0,0.1,0c0,0,0,0,0,0c0,0,0,0,0,0c0,0,0,0,0-0.1c0,0,0-0.1,0-0.1C61.6,46.1,61.6,46,61.6,46
									L61.6,46L61.6,46z"/>
								<path d="M61.2,46.1c0.1,0,0.1,0,0.1,0c0,0,0.1,0.1,0.1,0.1l0,0c0,0-0.1-0.1-0.1-0.1C61.3,46.1,61.3,46.1,61.2,46.1
									L61.2,46.1L61.2,46.1z"/>
								<path d="M61.5,46.3c0,0.1,0,0.1,0,0.1l0,0l0,0c0,0-0.3-0.1-0.3-0.2l0,0c0,0.1,0.2,0.2,0.2,0.2
									C61.5,46.5,61.5,46.4,61.5,46.3L61.5,46.3L61.5,46.3z"/>
								<path d="M61.3,46.3C61.4,46.3,61.4,46.3,61.3,46.3C61.4,46.3,61.4,46.3,61.3,46.3c0.1,0.1,0.1,0.1,0.1,0.1c0,0,0,0-0.1,0
									c0,0,0,0-0.1,0C61.3,46.4,61.3,46.4,61.3,46.3C61.3,46.3,61.3,46.3,61.3,46.3C61.3,46.3,61.3,46.3,61.3,46.3L61.3,46.3z
									 M61.4,46.3C61.4,46.3,61.4,46.3,61.4,46.3C61.3,46.3,61.3,46.3,61.4,46.3c-0.1,0-0.1,0-0.1,0
									C61.3,46.4,61.3,46.4,61.4,46.3c-0.1,0.1-0.1,0.1,0,0.1C61.4,46.4,61.4,46.4,61.4,46.3C61.4,46.4,61.4,46.4,61.4,46.3
									C61.4,46.3,61.4,46.3,61.4,46.3L61.4,46.3z"/>
								<path fill-rule="evenodd" clip-rule="evenodd" d="M61.3,46.3C61.3,46.3,61.4,46.3,61.3,46.3C61.4,46.4,61.3,46.4,61.3,46.3
									C61.3,46.4,61.3,46.4,61.3,46.3C61.3,46.3,61.3,46.3,61.3,46.3L61.3,46.3z"/>
								<path d="M61.7,46c0,0,0,0.1,0,0.1c0,0.1,0,0.1,0,0.1c0,0,0,0.1,0,0.1c0,0,0,0,0,0c0,0,0,0,0,0c0,0,0.1,0,0.1,0
									c0.1-0.1,0.1-0.1,0.2-0.1c0,0,0,0,0.1,0c0,0,0,0,0.1,0c0,0,0,0,0.1,0l0,0c0,0,0,0-0.1,0c0,0,0,0,0,0c0,0,0,0,0,0
									c0,0-0.1,0-0.2,0.1c0,0-0.1,0-0.1,0c0,0,0,0,0,0c0,0,0,0,0,0c0,0,0,0,0-0.1c0,0,0-0.1,0-0.1C61.7,46.1,61.7,46,61.7,46
									L61.7,46L61.7,46z"/>
								<path d="M62,46.1c-0.1,0-0.1,0-0.1,0c0,0-0.1,0.1-0.1,0.1l0,0c0,0,0.1-0.1,0.1-0.1C61.9,46.1,61.9,46.1,62,46.1L62,46.1
									L62,46.1z"/>
								<path d="M61.8,46.3c0,0.1,0,0.1,0,0.1v0l0,0c0,0,0.3-0.1,0.3-0.2l0,0c0,0.1-0.2,0.2-0.2,0.2C61.8,46.5,61.8,46.4,61.8,46.3
									L61.8,46.3L61.8,46.3z"/>
								<path d="M61.9,46.3C61.9,46.3,61.9,46.3,61.9,46.3C61.8,46.3,61.8,46.3,61.9,46.3c-0.1,0.1-0.1,0.1-0.1,0.1c0,0,0,0,0.1,0
									c0,0,0,0,0.1,0C62,46.4,62,46.4,61.9,46.3C62,46.3,62,46.3,61.9,46.3C61.9,46.3,61.9,46.3,61.9,46.3L61.9,46.3z M61.9,46.3
									C61.9,46.3,61.9,46.3,61.9,46.3C61.9,46.3,61.9,46.3,61.9,46.3c0.1,0,0.1,0,0.1,0C62,46.4,61.9,46.4,61.9,46.3
									c0.1,0.1,0.1,0.1,0,0.1S61.9,46.4,61.9,46.3C61.8,46.4,61.8,46.4,61.9,46.3C61.8,46.3,61.8,46.3,61.9,46.3L61.9,46.3z"/>
								<path fill-rule="evenodd" clip-rule="evenodd" d="M61.9,46.3C61.9,46.3,61.9,46.3,61.9,46.3C61.9,46.4,61.9,46.4,61.9,46.3
									C61.9,46.4,61.9,46.4,61.9,46.3C61.9,46.3,61.9,46.3,61.9,46.3L61.9,46.3z"/>
								<path d="M61.5,46.6c0,0,0-0.1,0.1-0.1l0,0C61.5,46.5,61.5,46.6,61.5,46.6L61.5,46.6L61.5,46.6z"/>
								<path d="M61.4,46.8C61.4,46.8,61.4,46.8,61.4,46.8c0,0,0,0.1,0,0.1s0,0,0.1,0.1l0,0l0,0l0,0c0,0,0.1,0,0.1,0
									c0,0,0.1,0,0.1-0.1c0,0,0,0,0,0c0,0,0,0,0,0c0,0,0,0,0,0c0,0-0.1,0-0.1,0l0,0c0,0,0.1,0,0.1,0c0,0,0,0,0,0c0,0,0,0,0,0
									c0,0,0,0,0,0.1c0,0-0.1,0-0.1,0.1c-0.1,0-0.1,0-0.2,0l0,0l0,0l0,0c0,0-0.1,0-0.1-0.1C61.4,46.9,61.4,46.9,61.4,46.8
									C61.4,46.8,61.4,46.8,61.4,46.8L61.4,46.8L61.4,46.8z"/>
								<path d="M61.6,47c0,0,0,0.1,0,0.1c0,0,0,0,0,0.1c0,0,0,0,0,0c0,0,0,0,0,0c0,0,0,0,0.1,0c0,0,0.1,0,0.1,0l0,0
									c0,0-0.1,0-0.1,0s-0.1,0-0.1,0c0,0,0,0,0,0c0,0,0,0,0,0c0,0,0,0,0-0.1C61.6,47.1,61.6,47,61.6,47L61.6,47L61.6,47z"/>
								<path d="M61.4,47.2c0,0,0.1,0,0.1,0c0,0,0.1,0,0.1,0l0,0c0,0-0.1,0-0.1,0.1C61.5,47.2,61.4,47.2,61.4,47.2L61.4,47.2
									L61.4,47.2z"/>
								<path d="M61.3,47C61.4,47,61.4,47,61.3,47c0.1,0.1,0.2,0.1,0.2,0.1l0,0C61.5,47.1,61.4,47,61.3,47C61.4,47,61.3,47,61.3,47
									L61.3,47L61.3,47z"/>
								<path d="M61.4,47.1c0.1,0,0.2,0.1,0.2,0.1l0,0C61.5,47.1,61.4,47.1,61.4,47.1L61.4,47.1L61.4,47.1z"/>
								<path d="M61.9,47C61.9,47,61.9,47,61.9,47c-0.1,0.1-0.2,0.1-0.2,0.1l0,0C61.8,47.1,61.8,47,61.9,47C61.9,47,61.9,47,61.9,47
									L61.9,47L61.9,47z"/>
								<path d="M61.9,47.1c0,0-0.2,0.1-0.2,0.1l0,0C61.7,47.1,61.9,47.1,61.9,47.1L61.9,47.1L61.9,47.1z"/>
								<path d="M60.9,45.8c0.1,0,0.4,0,0.7,0c0.3,0,0.5,0,0.7,0l0,0c-0.1,0-0.4,0-0.7,0C61.3,45.8,61,45.8,60.9,45.8L60.9,45.8
									L60.9,45.8z"/>
								<path d="M60.9,45.8c0.1,0,0.4,0,0.7,0c0.3,0,0.5,0,0.7,0l0,0c-0.1,0-0.4,0-0.7,0C61.3,45.8,61,45.8,60.9,45.8L60.9,45.8
									L60.9,45.8z"/>
								<path d="M60.8,45.7c0.1,0,0.5-0.1,0.8-0.1c0.3,0,0.5,0,0.7,0l0,0c-0.2,0-0.4,0-0.7,0C61.3,45.6,61,45.6,60.8,45.7L60.8,45.7
									L60.8,45.7z"/>
								<path d="M60.8,45.6c0.1,0,0.4-0.1,0.8-0.1c0.3,0,0.6,0,0.8,0l0,0c-0.2,0-0.5,0-0.8,0C61.3,45.6,61,45.6,60.8,45.6L60.8,45.6
									L60.8,45.6z"/>
								<path d="M61.6,45.6C61.6,45.6,61.6,45.6,61.6,45.6L61.6,45.6C61.6,45.7,61.6,45.7,61.6,45.6C61.6,45.7,61.6,45.7,61.6,45.6
									C61.6,45.7,61.6,45.7,61.6,45.6C61.6,45.7,61.6,45.7,61.6,45.6L61.6,45.6L61.6,45.6C61.5,45.7,61.5,45.7,61.6,45.6
									C61.5,45.7,61.5,45.7,61.6,45.6C61.6,45.6,61.6,45.6,61.6,45.6L61.6,45.6z M61.6,45.7L61.6,45.7
									C61.6,45.7,61.6,45.7,61.6,45.7C61.6,45.7,61.6,45.7,61.6,45.7C61.6,45.7,61.6,45.7,61.6,45.7
									C61.6,45.7,61.6,45.7,61.6,45.7L61.6,45.7C61.6,45.7,61.6,45.7,61.6,45.7C61.6,45.7,61.6,45.7,61.6,45.7
									C61.6,45.7,61.6,45.7,61.6,45.7C61.6,45.7,61.6,45.7,61.6,45.7L61.6,45.7z"/>
								<path d="M61.3,45.6C61.3,45.6,61.3,45.7,61.3,45.6L61.3,45.6C61.3,45.7,61.3,45.7,61.3,45.6C61.3,45.7,61.3,45.7,61.3,45.6
									C61.3,45.7,61.3,45.7,61.3,45.6C61.2,45.7,61.2,45.7,61.3,45.6L61.3,45.6L61.3,45.6C61.2,45.7,61.2,45.7,61.3,45.6
									C61.2,45.7,61.2,45.7,61.3,45.6C61.2,45.7,61.2,45.6,61.3,45.6L61.3,45.6z M61.3,45.7L61.3,45.7
									C61.3,45.7,61.3,45.7,61.3,45.7C61.2,45.7,61.2,45.7,61.3,45.7C61.2,45.7,61.2,45.7,61.3,45.7
									C61.2,45.7,61.2,45.7,61.3,45.7L61.3,45.7C61.2,45.7,61.2,45.7,61.3,45.7C61.3,45.7,61.3,45.7,61.3,45.7
									C61.3,45.7,61.3,45.7,61.3,45.7C61.3,45.7,61.3,45.7,61.3,45.7L61.3,45.7z"/>
								<path d="M61.9,45.6C61.9,45.6,61.9,45.6,61.9,45.6L61.9,45.6C62,45.6,62,45.7,61.9,45.6C62,45.7,62,45.7,61.9,45.6
									C61.9,45.7,61.9,45.7,61.9,45.6C61.9,45.7,61.9,45.7,61.9,45.6L61.9,45.6L61.9,45.6C61.9,45.7,61.9,45.7,61.9,45.6
									C61.9,45.7,61.9,45.6,61.9,45.6C61.9,45.6,61.9,45.6,61.9,45.6L61.9,45.6z M61.9,45.7L61.9,45.7
									C61.9,45.6,61.9,45.6,61.9,45.7C61.9,45.6,61.9,45.6,61.9,45.7C61.9,45.7,61.9,45.7,61.9,45.7
									C61.9,45.7,61.9,45.7,61.9,45.7L61.9,45.7C61.9,45.7,61.9,45.7,61.9,45.7C61.9,45.7,61.9,45.7,61.9,45.7
									C61.9,45.7,61.9,45.7,61.9,45.7C61.9,45.7,61.9,45.7,61.9,45.7L61.9,45.7z"/>
								<path d="M62.2,45.6C62.3,45.6,62.3,45.6,62.2,45.6L62.2,45.6C62.3,45.7,62.3,45.7,62.2,45.6C62.3,45.7,62.3,45.7,62.2,45.6
									C62.3,45.7,62.3,45.7,62.2,45.6C62.2,45.7,62.2,45.7,62.2,45.6L62.2,45.6L62.2,45.6C62.2,45.7,62.2,45.7,62.2,45.6
									C62.2,45.7,62.2,45.7,62.2,45.6C62.2,45.6,62.2,45.6,62.2,45.6L62.2,45.6z M62.3,45.7L62.3,45.7
									C62.3,45.7,62.2,45.7,62.3,45.7C62.2,45.7,62.2,45.7,62.3,45.7C62.2,45.7,62.2,45.7,62.3,45.7
									C62.2,45.7,62.2,45.7,62.3,45.7L62.3,45.7C62.2,45.7,62.2,45.7,62.3,45.7C62.2,45.7,62.3,45.7,62.3,45.7
									C62.3,45.7,62.3,45.7,62.3,45.7C62.3,45.7,62.3,45.7,62.3,45.7L62.3,45.7z"/>
								<path d="M60.9,45.7C61,45.7,61,45.7,60.9,45.7L60.9,45.7C61,45.7,61,45.7,60.9,45.7C61,45.7,61,45.7,60.9,45.7
									C61,45.8,61,45.8,60.9,45.7C60.9,45.8,60.9,45.8,60.9,45.7L60.9,45.7L60.9,45.7C60.9,45.7,60.9,45.7,60.9,45.7
									C60.9,45.7,60.9,45.7,60.9,45.7C60.9,45.7,60.9,45.7,60.9,45.7L60.9,45.7z M61,45.7L61,45.7C61,45.7,60.9,45.7,61,45.7
									C60.9,45.7,60.9,45.7,61,45.7C60.9,45.7,60.9,45.7,61,45.7C60.9,45.7,60.9,45.7,61,45.7L61,45.7
									C60.9,45.7,60.9,45.8,61,45.7C60.9,45.8,61,45.7,61,45.7C61,45.7,61,45.7,61,45.7C61,45.7,61,45.7,61,45.7L61,45.7z"/>
								<path d="M61.6,45.2C61.6,45.2,61.6,45.2,61.6,45.2C61.6,45.2,61.6,45.2,61.6,45.2l0.1,0.1l0,0c0,0,0,0,0,0
									c0,0-0.1,0-0.1,0.1l0,0l0,0c0,0,0-0.1-0.1-0.1l0,0l0,0C61.5,45.3,61.5,45.2,61.6,45.2L61.6,45.2L61.6,45.2L61.6,45.2z
									 M61.7,45.3C61.6,45.2,61.6,45.2,61.7,45.3c-0.1,0-0.1,0-0.1,0C61.5,45.3,61.6,45.3,61.7,45.3
									C61.6,45.3,61.6,45.3,61.7,45.3L61.7,45.3z"/>
								<path d="M60.7,45.4C60.7,45.4,60.7,45.4,60.7,45.4c0.1,0,0.1,0,0.1,0c0,0,0,0,0,0c0,0,0,0,0,0c0,0,0,0,0,0c0,0,0,0,0,0l0,0
									c0,0,0,0,0,0c0,0,0,0,0,0c0,0,0,0,0,0c0,0,0,0,0,0C60.8,45.4,60.8,45.4,60.7,45.4C60.7,45.4,60.7,45.4,60.7,45.4L60.7,45.4
									L60.7,45.4z"/>
								<path d="M62.4,45.4C62.4,45.4,62.4,45.4,62.4,45.4C62.4,45.4,62.4,45.4,62.4,45.4C62.4,45.4,62.4,45.4,62.4,45.4L62.4,45.4
									L62.4,45.4C62.4,45.4,62.4,45.4,62.4,45.4C62.3,45.4,62.3,45.4,62.4,45.4C62.4,45.4,62.4,45.5,62.4,45.4
									C62.4,45.5,62.4,45.5,62.4,45.4l-0.1,0.1c0,0,0,0,0,0c0,0,0,0,0,0c0,0,0,0,0-0.1C62.3,45.4,62.3,45.4,62.4,45.4L62.4,45.4
									L62.4,45.4L62.4,45.4C62.4,45.3,62.4,45.3,62.4,45.4C62.4,45.3,62.4,45.4,62.4,45.4C62.4,45.4,62.5,45.4,62.4,45.4
									L62.4,45.4L62.4,45.4z"/>
								<path d="M61,46C61,46,61,46,61,46c-0.1-0.1-0.1-0.1-0.1-0.1l0,0C60.9,45.9,60.9,45.9,61,46L61,46C61,45.9,61,46,61,46L61,46
									L61,46z"/>
								<path d="M61.1,46C61.1,45.9,61.1,45.9,61.1,46C61,45.9,61,45.9,61,45.8l0,0C61,45.8,61.1,45.9,61.1,46
									C61.1,45.9,61.1,45.9,61.1,46L61.1,46L61.1,46z"/>
								<path d="M61.2,45.9C61.2,45.9,61.2,45.8,61.2,45.9L61.2,45.9C61.2,45.8,61.2,45.9,61.2,45.9L61.2,45.9L61.2,45.9z"/>
								<path d="M61.3,45.9C61.3,45.9,61.3,45.8,61.3,45.9L61.3,45.9C61.3,45.8,61.3,45.9,61.3,45.9L61.3,45.9L61.3,45.9z"/>
								<polygon points="61.5,45.9 61.4,45.8 61.5,45.8 61.5,45.9 61.5,45.9 								"/>
								<polygon points="61.7,45.9 61.7,45.8 61.7,45.8 61.7,45.9 61.7,45.9 								"/>
								<polygon points="61.8,45.9 61.9,45.8 61.9,45.8 61.9,45.9 61.8,45.9 								"/>
								<polygon points="62,45.9 62,45.8 62,45.8 62,45.9 62,45.9 								"/>
								<polygon points="62,45.9 62.1,45.8 62.2,45.8 62,45.9 62,45.9 								"/>
								<polygon points="62.2,45.9 62.3,45.8 62.3,45.8 62.2,46 62.2,45.9 								"/>
								<path d="M62.5,45.8c0,0,0,0.1,0,0.1c0,0,0,0.1,0,0.1C62.4,46.1,62.5,46,62.5,45.8c0.1,0,0.2-0.1,0.2-0.1l0,0
									c0,0-0.1,0.1-0.1,0.2c0,0.1-0.1,0.2-0.1,0.2l0,0l0,0c0,0,0.1-0.1,0.1-0.1C62.5,45.9,62.5,45.9,62.5,45.8L62.5,45.8
									L62.5,45.8z"/>
								<path d="M60.7,45.9c0,0,0,0.1,0,0.1c0,0,0,0.1,0,0.1c0,0-0.1-0.1-0.1-0.1c0-0.1-0.2-0.2-0.2-0.2l0,0c0,0,0.1,0,0.1,0.1
									c0,0.1,0.1,0.1,0.1,0.1l0,0l0,0c0,0-0.1-0.1-0.1-0.1C60.7,46,60.7,45.9,60.7,45.9L60.7,45.9L60.7,45.9z"/>
								<path d="M60.9,46.5C60.9,46.4,60.9,46.4,60.9,46.5c-0.1-0.1-0.1-0.1-0.2-0.1v0c0,0,0.1,0,0.1,0
									C60.9,46.4,60.9,46.4,60.9,46.5L60.9,46.5L60.9,46.5z"/>
								<path d="M60.8,46.5c0,0-0.2-0.1-0.2-0.1c-0.1,0-0.1,0-0.1,0l0,0c0,0,0,0,0.1,0C60.7,46.4,60.8,46.5,60.8,46.5L60.8,46.5
									L60.8,46.5z"/>
								<path d="M62.3,46.4C62.3,46.4,62.4,46.3,62.3,46.4c0.1-0.1,0.1-0.1,0.1-0.1l0,0C62.5,46.3,62.4,46.3,62.3,46.4
									C62.4,46.3,62.4,46.4,62.3,46.4L62.3,46.4L62.3,46.4z"/>
								<path d="M62.4,46.4c0-0.1,0.1-0.1,0.2-0.1l0,0c0.1,0,0.1-0.1,0.1-0.1l0,0c0,0-0.1,0-0.1,0.1l0,0
									C62.5,46.4,62.5,46.4,62.4,46.4L62.4,46.4L62.4,46.4z"/>
								<path d="M62.4,46.6c0,0,0.1,0,0.1,0c0,0,0.1,0.1,0.1,0.1l0,0c0,0-0.1-0.1-0.1-0.1C62.5,46.7,62.4,46.6,62.4,46.6L62.4,46.6
									L62.4,46.6z"/>
								<path d="M62.5,46.8c0,0,0.1,0,0.1,0c0,0,0.1,0,0.1,0l0,0C62.6,46.9,62.6,46.9,62.5,46.8C62.5,46.9,62.5,46.9,62.5,46.8
									L62.5,46.8L62.5,46.8z"/>
								<path d="M62.2,46.8c0.1,0,0.1,0,0.1,0.1c0,0,0,0,0,0l0,0c0,0,0,0,0,0C62.3,46.9,62.3,46.9,62.2,46.8L62.2,46.8L62.2,46.8z"
									/>
								<path d="M62.3,46.9c0,0,0.1,0.1,0.1,0.1c0,0,0.1,0.1,0.1,0.1l0,0c0,0,0-0.1-0.1-0.1C62.3,47,62.3,47,62.3,46.9L62.3,46.9
									L62.3,46.9z"/>
								<path d="M62.2,47c0,0,0.1,0,0.1,0c0.1,0,0.1,0.1,0.1,0.1l0,0c0-0.1-0.1-0.1-0.1-0.1C62.3,47.1,62.2,47,62.2,47L62.2,47
									L62.2,47z"/>
								<path d="M62.2,47.1C62.2,47.1,62.2,47.1,62.2,47.1L62.2,47.1C62.2,47.2,62.2,47.2,62.2,47.1L62.2,47.1
									C62.2,47.2,62.2,47.2,62.2,47.1L62.2,47.1C62.2,47.2,62.2,47.1,62.2,47.1L62.2,47.1L62.2,47.1z"/>
								<path d="M62.1,47.2c0.1,0,0.1,0.1,0.1,0.1l0,0l0,0c0,0,0,0.1,0.1,0.1c0,0,0.1,0,0.1,0.1l0,0c0,0-0.1,0-0.1-0.1
									c0,0,0,0-0.1-0.1l0,0l0,0C62.1,47.2,62.1,47.2,62.1,47.2L62.1,47.2L62.1,47.2z"/>
								<path d="M62.1,47.3c0,0,0.1,0.1,0.1,0.1l0,0C62.2,47.5,62.1,47.4,62.1,47.3L62.1,47.3L62.1,47.3z"/>
								<path d="M61.9,47.3c0,0,0.1,0.1,0.1,0.1c0,0,0,0,0,0l0,0c0,0,0,0,0,0C62,47.4,61.9,47.3,61.9,47.3L61.9,47.3L61.9,47.3z"/>
								<path d="M61.9,47.4C61.9,47.4,61.9,47.4,61.9,47.4c0,0.1,0,0.1,0,0.2l0,0C61.8,47.5,61.8,47.5,61.9,47.4
									C61.8,47.4,61.9,47.4,61.9,47.4L61.9,47.4L61.9,47.4z"/>
								<path d="M61.9,47.4C61.9,47.4,61.9,47.4,61.9,47.4c0,0.1,0,0.1,0,0.1c0,0,0,0,0,0.1c0,0,0,0,0,0l0,0c0,0,0,0,0,0
									c0,0,0,0,0,0C61.9,47.5,61.9,47.5,61.9,47.4C61.9,47.4,61.9,47.4,61.9,47.4L61.9,47.4L61.9,47.4z"/>
								<path d="M61.8,47.5C61.8,47.5,61.8,47.5,61.8,47.5c0,0.1,0,0.1,0,0.1l0,0C61.8,47.6,61.8,47.6,61.8,47.5
									C61.8,47.5,61.8,47.5,61.8,47.5L61.8,47.5L61.8,47.5z"/>
								<path d="M61.6,47.4c0,0,0,0.1,0,0.2c0,0.1,0,0.1,0,0.2l0,0c0,0,0-0.1,0-0.1C61.6,47.5,61.6,47.5,61.6,47.4L61.6,47.4
									L61.6,47.4z"/>
								<path d="M61.6,47.3c0.1,0,0.1,0,0.1,0v0C61.7,47.3,61.6,47.3,61.6,47.3L61.6,47.3L61.6,47.3z"/>
								<path d="M61.6,47.4c0,0,0,0.2,0,0.2l0,0C61.5,47.5,61.5,47.4,61.6,47.4L61.6,47.4L61.6,47.4z"/>
								<path d="M61.5,47.4c0,0.1,0,0.2,0,0.2h0C61.4,47.6,61.5,47.5,61.5,47.4L61.5,47.4L61.5,47.4z"/>
								<path d="M61.4,47.4L61.4,47.4c0,0.1,0,0.2,0,0.2l0,0C61.4,47.6,61.4,47.5,61.4,47.4L61.4,47.4L61.4,47.4L61.4,47.4z"/>
								<path d="M61.4,47.3C61.4,47.3,61.4,47.3,61.4,47.3c-0.1,0.1-0.1,0.1-0.1,0.1l0,0C61.3,47.4,61.3,47.4,61.4,47.3
									C61.4,47.3,61.4,47.3,61.4,47.3L61.4,47.3L61.4,47.3z"/>
								<path d="M61.2,47.4C61.2,47.4,61.2,47.4,61.2,47.4c-0.1,0.1-0.1,0.1-0.1,0.1l0,0C61.1,47.5,61.1,47.5,61.2,47.4
									C61.2,47.4,61.2,47.4,61.2,47.4L61.2,47.4L61.2,47.4z"/>
								<path d="M61.2,47.2C61.2,47.2,61.2,47.2,61.2,47.2c-0.1,0.1-0.1,0.1-0.1,0.1c0,0,0,0.1-0.1,0.1c0,0-0.1,0.1-0.1,0.1l0,0
									c0,0,0,0,0.1-0.1c0,0,0.1-0.1,0.1-0.1C61.1,47.3,61.1,47.3,61.2,47.2C61.2,47.2,61.2,47.2,61.2,47.2L61.2,47.2L61.2,47.2z"
									/>
								<path d="M61.2,47.1C61.1,47.1,61.1,47.2,61.2,47.1c-0.1,0.1-0.1,0.1-0.1,0.1l0,0C61,47.2,61.1,47.2,61.2,47.1
									C61.1,47.1,61.1,47.1,61.2,47.1L61.2,47.1L61.2,47.1z"/>
								<path d="M61.1,47.1c0,0-0.1,0-0.1,0.1c-0.1,0-0.1,0.1-0.1,0.1l0,0c0,0,0.1-0.1,0.1-0.1C61,47.1,61,47.1,61.1,47.1L61.1,47.1
									L61.1,47.1z"/>
								<path d="M61,47c0,0-0.1,0.1-0.1,0.1c0,0-0.1,0.1-0.1,0.1l0,0c0,0,0.1-0.1,0.1-0.1C60.9,47,61,47,61,47L61,47L61,47z"/>
								<path d="M61.1,46.9c0,0-0.1,0.1-0.1,0.1l0,0C60.9,47,61,46.9,61.1,46.9L61.1,46.9L61.1,46.9z"/>
								<path d="M60.8,46.9C60.8,46.9,60.8,46.9,60.8,46.9C60.7,47,60.7,47,60.6,47l0,0C60.7,47,60.7,47,60.8,46.9
									C60.8,46.9,60.8,46.9,60.8,46.9L60.8,46.9L60.8,46.9z"/>
								<path d="M60.9,46.7c0,0-0.1,0-0.1,0c0,0-0.1,0.1-0.1,0.1l0,0c0-0.1,0.1-0.1,0.1-0.1C60.8,46.7,60.8,46.7,60.9,46.7
									L60.9,46.7L60.9,46.7z"/>
								<path d="M61,46.6c-0.1,0-0.1,0-0.2,0c0,0,0,0,0,0l0,0c0,0,0,0,0,0C60.9,46.6,60.9,46.6,61,46.6L61,46.6L61,46.6z"/>
							</g>
							<g>
								
									<path fill-rule="evenodd" clip-rule="evenodd" fill="#F7DB17" stroke="#000000" stroke-width="2.145400e-02" stroke-miterlimit="2.4142" d="
									M63.3,46.8c0.1-0.1,0.1-0.3,0.2-0.3c0,0-0.2-0.1-0.3-0.3c0,0,0.1,0,0.3,0c0,0-0.3-0.2-0.2-0.6c0,0,0.1,0,0.2,0.1
									c0.1,0,0.2,0.1,0.2,0.1s0,0,0,0c0,0,0-0.1-0.1-0.2c-0.1-0.1-0.2-0.5-0.2-0.5s0.1,0.1,0.2,0.1c0.1,0,0.2,0.1,0.2,0.2
									c0,0,0.2-0.1,0.3,0.1c0,0,0,0,0,0c0,0,0-0.2,0.1-0.2c0,0-0.1-0.1,0.1-0.1c0.1-0.1,0.2-0.2,0.2-0.2s0.1,0.2,0.2,0.3
									c0.1,0.1,0.1,0.1,0,0.2c0,0,0.1-0.1,0.1,0.2c0,0,0,0,0,0c0-0.1,0.1-0.2,0.3-0.1c0,0,0-0.1,0.1-0.1c0.1,0,0.2,0,0.3-0.1
									c0,0-0.4,0.5-0.4,0.7c0,0,0.1,0,0.2,0c0.1,0,0.2,0,0.2,0s0,0.4-0.3,0.5c0,0,0.2,0,0.3,0c0,0-0.1,0.2-0.4,0.3
									c0,0,0.2,0.1,0.2,0.2c0,0.1,0.1,0.2,0.1,0.2s-0.1,0.1-0.4,0c0,0,0.1,0.1,0.1,0.3c0,0-0.1,0-0.2,0c0,0,0,0.1,0,0.1
									c0,0.1,0,0.1,0,0.1s-0.2,0-0.3-0.1c0,0,0,0.1-0.1,0.3c0,0-0.1-0.2-0.1-0.2c0,0,0,0.1-0.2,0.2c0,0,0-0.1-0.1-0.1
									c0,0-0.1-0.1-0.1-0.1s-0.1,0.1-0.2,0.2c0,0-0.1-0.1,0-0.3c0,0-0.1,0.1-0.3,0c0,0,0-0.1,0-0.1c0-0.1,0-0.1,0-0.1
									s-0.1,0-0.2,0c0,0,0-0.2,0.1-0.3C63.6,46.9,63.4,46.9,63.3,46.8L63.3,46.8z"/>
								<path d="M64.4,46c0,0,0,0.1,0,0.1c0,0.1,0,0.1,0,0.1c0,0,0,0.1,0,0.1c0,0,0,0,0,0c0,0,0,0,0,0c0,0,0,0-0.1,0
									c-0.1-0.1-0.1-0.1-0.2-0.1c0,0,0,0,0,0c0,0,0,0-0.1,0c0,0,0,0,0,0l0,0c0,0,0,0,0.1,0c0,0,0,0,0,0c0,0,0,0,0,0
									c0,0,0.1,0,0.2,0.1c0,0,0,0,0.1,0c0,0,0,0,0,0c0,0,0,0,0,0c0,0,0,0,0-0.1c0,0,0-0.1,0-0.1C64.4,46.1,64.4,46,64.4,46
									L64.4,46L64.4,46z"/>
								<path d="M64.1,46.1c0.1,0,0.1,0,0.1,0c0,0,0.1,0.1,0.1,0.1l0,0c0-0.1-0.1-0.1-0.1-0.1C64.2,46.1,64.1,46.1,64.1,46.1
									L64.1,46.1L64.1,46.1z"/>
								<path d="M64.3,46.3c0,0.1,0,0.1,0,0.1l0,0l0,0c0,0-0.3-0.1-0.2-0.3l0,0c0,0.1,0.2,0.2,0.2,0.2
									C64.3,46.4,64.3,46.4,64.3,46.3L64.3,46.3L64.3,46.3z"/>
								<path d="M64.1,46.2C64.2,46.3,64.2,46.3,64.1,46.2C64.2,46.3,64.2,46.3,64.1,46.2c0.1,0.1,0.1,0.1,0,0.1c0,0,0,0-0.1,0
									c0,0,0,0-0.1,0C64.1,46.4,64.1,46.3,64.1,46.2C64.1,46.3,64.1,46.3,64.1,46.2C64.1,46.3,64.1,46.2,64.1,46.2L64.1,46.2z
									 M64.2,46.3C64.2,46.3,64.2,46.3,64.2,46.3C64.1,46.3,64.1,46.3,64.2,46.3c-0.1,0-0.1,0-0.1,0
									C64.1,46.3,64.1,46.4,64.2,46.3C64.1,46.4,64.1,46.4,64.2,46.3C64.1,46.4,64.2,46.4,64.2,46.3
									C64.2,46.4,64.2,46.3,64.2,46.3C64.2,46.3,64.2,46.3,64.2,46.3L64.2,46.3z"/>
								<path fill-rule="evenodd" clip-rule="evenodd" d="M64.1,46.3C64.2,46.3,64.2,46.3,64.1,46.3C64.2,46.3,64.1,46.3,64.1,46.3
									C64.1,46.3,64.1,46.3,64.1,46.3C64.1,46.3,64.1,46.3,64.1,46.3L64.1,46.3z"/>
								<path d="M64.5,46c0,0,0,0.1,0,0.1c0,0.1,0,0.1,0,0.1c0,0,0,0.1,0,0.1c0,0,0,0,0,0c0,0,0,0,0,0c0,0,0.1,0,0.1,0
									c0.1-0.1,0.1,0,0.2,0c0,0,0,0,0.1,0c0,0,0,0,0.1,0c0,0,0,0,0.1,0l0,0c0,0,0,0-0.1,0c0,0,0,0-0.1,0c0,0,0,0,0,0
									c0,0-0.1,0-0.2,0c0,0-0.1,0-0.1,0c0,0,0,0,0,0c0,0,0,0,0,0c0,0,0-0.1,0-0.1c0,0,0-0.1,0-0.1C64.5,46.1,64.5,46.1,64.5,46
									L64.5,46L64.5,46z"/>
								<path d="M64.8,46.1c-0.1,0-0.1,0-0.2,0c0,0-0.1,0-0.1,0.1l0,0c0,0,0.1-0.1,0.1-0.1C64.7,46.2,64.8,46.2,64.8,46.1L64.8,46.1
									L64.8,46.1z"/>
								<path d="M64.6,46.4c0,0.1,0,0.1,0,0.1l0,0l0,0c0,0,0.3,0,0.3-0.2l0,0c0,0.1-0.2,0.2-0.3,0.2C64.6,46.5,64.6,46.4,64.6,46.4
									L64.6,46.4L64.6,46.4z"/>
								<path d="M64.7,46.3C64.7,46.3,64.7,46.3,64.7,46.3C64.6,46.3,64.6,46.4,64.7,46.3c-0.1,0.1-0.1,0.1-0.1,0.1c0,0,0,0,0.1,0
									c0,0,0,0,0.1,0S64.8,46.4,64.7,46.3C64.8,46.4,64.8,46.3,64.7,46.3C64.7,46.3,64.7,46.3,64.7,46.3L64.7,46.3z M64.7,46.3
									C64.7,46.3,64.7,46.3,64.7,46.3C64.7,46.3,64.7,46.3,64.7,46.3C64.7,46.4,64.8,46.4,64.7,46.3
									C64.8,46.4,64.7,46.4,64.7,46.3c0.1,0.1,0.1,0.1,0,0.1C64.7,46.4,64.7,46.4,64.7,46.3C64.6,46.4,64.6,46.4,64.7,46.3
									C64.6,46.4,64.6,46.3,64.7,46.3L64.7,46.3z"/>
								<path fill-rule="evenodd" clip-rule="evenodd" d="M64.7,46.4C64.7,46.4,64.7,46.4,64.7,46.4C64.7,46.4,64.7,46.4,64.7,46.4
									C64.7,46.4,64.7,46.4,64.7,46.4C64.7,46.4,64.7,46.4,64.7,46.4L64.7,46.4z"/>
								<path d="M64.2,46.6c0,0,0-0.1,0.1-0.1l0,0C64.3,46.5,64.2,46.6,64.2,46.6L64.2,46.6L64.2,46.6z"/>
								<path d="M64.2,46.8C64.2,46.8,64.2,46.8,64.2,46.8c0,0,0,0.1,0,0.1c0,0,0,0.1,0.1,0.1l0,0l0,0l0,0c0,0,0.1,0,0.2,0
									c0,0,0.1,0,0.1,0c0,0,0,0,0,0c0,0,0,0,0,0c0,0,0,0,0,0c0,0-0.1,0-0.1,0l0,0c0,0,0.1,0,0.1,0c0,0,0,0,0,0c0,0,0,0,0,0
									c0,0,0,0,0,0.1c0,0-0.1,0-0.1,0c-0.1,0-0.1,0-0.2,0l0,0h0l0,0c0,0-0.1,0-0.1-0.1C64.2,46.9,64.2,46.8,64.2,46.8L64.2,46.8
									L64.2,46.8L64.2,46.8z"/>
								<path d="M64.4,47c0,0,0,0.1,0,0.1c0,0,0,0,0,0.1c0,0,0,0,0,0c0,0,0,0,0,0c0,0,0,0,0.1,0c0,0,0.1,0,0.1,0l0,0
									c0,0-0.1,0-0.1,0c0,0-0.1,0-0.1,0c0,0,0,0,0,0c0,0,0,0,0,0c0,0,0,0,0-0.1C64.3,47.1,64.3,47,64.4,47L64.4,47L64.4,47z"/>
								<path d="M64.1,47.2c0,0,0.1,0,0.1,0c0,0,0.1,0,0.1,0l0,0c0,0-0.1,0-0.1,0C64.2,47.2,64.2,47.2,64.1,47.2L64.1,47.2
									L64.1,47.2z"/>
								<path d="M64.1,46.9C64.1,46.9,64.1,47,64.1,46.9c0.1,0.1,0.2,0.1,0.2,0.1l0,0C64.2,47,64.2,47,64.1,46.9
									C64.1,47,64.1,46.9,64.1,46.9L64.1,46.9L64.1,46.9z"/>
								<path d="M64.1,47c0,0,0.2,0.1,0.2,0.1l0,0C64.2,47.1,64.1,47.1,64.1,47L64.1,47L64.1,47z"/>
								<path d="M64.7,47C64.7,47,64.6,47,64.7,47c-0.1,0.1-0.2,0.1-0.2,0.1l0,0C64.5,47.1,64.5,47.1,64.7,47
									C64.6,47,64.7,47,64.7,47L64.7,47L64.7,47z"/>
								<path d="M64.6,47.1c-0.1,0-0.2,0-0.2,0v0C64.5,47.1,64.6,47.1,64.6,47.1L64.6,47.1L64.6,47.1z"/>
								<path d="M63.7,45.8c0.1,0,0.4,0,0.7,0c0.3,0,0.5,0,0.7,0.1l0,0c-0.1,0-0.4-0.1-0.7-0.1C64.2,45.8,63.8,45.8,63.7,45.8
									L63.7,45.8L63.7,45.8z"/>
								<path d="M63.8,45.7c0.1,0,0.4,0,0.7,0c0.3,0,0.5,0,0.7,0.1l0,0c-0.1,0-0.4-0.1-0.7-0.1C64.2,45.7,63.9,45.7,63.8,45.7
									L63.8,45.7L63.8,45.7z"/>
								<path d="M63.7,45.6c0.1,0,0.5,0,0.8,0c0.3,0,0.5,0,0.7,0.1l0,0c-0.2,0-0.4-0.1-0.7-0.1C64.2,45.6,63.8,45.6,63.7,45.6
									L63.7,45.6L63.7,45.6z"/>
								<path d="M63.7,45.5c0.1,0,0.4,0,0.8,0c0.3,0,0.6,0,0.8,0.1v0c-0.2,0-0.5-0.1-0.8-0.1C64.1,45.5,63.8,45.5,63.7,45.5
									L63.7,45.5L63.7,45.5z"/>
								<path d="M64.4,45.6C64.5,45.6,64.5,45.6,64.4,45.6L64.4,45.6C64.5,45.7,64.5,45.7,64.4,45.6C64.5,45.7,64.5,45.7,64.4,45.6
									C64.5,45.7,64.5,45.7,64.4,45.6C64.4,45.7,64.4,45.7,64.4,45.6L64.4,45.6L64.4,45.6C64.4,45.7,64.4,45.7,64.4,45.6
									C64.4,45.7,64.4,45.6,64.4,45.6C64.4,45.6,64.4,45.6,64.4,45.6L64.4,45.6z M64.5,45.7L64.5,45.7
									C64.5,45.6,64.5,45.6,64.5,45.7C64.4,45.6,64.4,45.6,64.5,45.7C64.4,45.7,64.4,45.7,64.5,45.7
									C64.4,45.7,64.4,45.7,64.5,45.7L64.5,45.7C64.4,45.7,64.4,45.7,64.5,45.7C64.4,45.7,64.5,45.7,64.5,45.7
									C64.5,45.7,64.5,45.7,64.5,45.7C64.5,45.7,64.5,45.7,64.5,45.7L64.5,45.7z"/>
								<path d="M64.1,45.6C64.1,45.6,64.1,45.6,64.1,45.6L64.1,45.6C64.2,45.6,64.2,45.6,64.1,45.6C64.2,45.7,64.1,45.7,64.1,45.6
									C64.1,45.7,64.1,45.7,64.1,45.6C64.1,45.7,64.1,45.7,64.1,45.6L64.1,45.6L64.1,45.6C64.1,45.7,64.1,45.7,64.1,45.6
									C64.1,45.6,64.1,45.6,64.1,45.6C64.1,45.6,64.1,45.6,64.1,45.6L64.1,45.6z M64.1,45.6L64.1,45.6
									C64.1,45.6,64.1,45.6,64.1,45.6C64.1,45.6,64.1,45.6,64.1,45.6C64.1,45.6,64.1,45.6,64.1,45.6
									C64.1,45.7,64.1,45.7,64.1,45.6L64.1,45.6C64.1,45.7,64.1,45.7,64.1,45.6C64.1,45.7,64.1,45.7,64.1,45.6
									C64.1,45.7,64.1,45.7,64.1,45.6C64.1,45.6,64.1,45.6,64.1,45.6L64.1,45.6z"/>
								<path d="M64.8,45.7C64.8,45.7,64.8,45.7,64.8,45.7L64.8,45.7C64.8,45.7,64.8,45.7,64.8,45.7C64.8,45.7,64.8,45.7,64.8,45.7
									C64.8,45.7,64.8,45.7,64.8,45.7C64.8,45.7,64.8,45.7,64.8,45.7L64.8,45.7L64.8,45.7C64.7,45.7,64.7,45.7,64.8,45.7
									C64.7,45.7,64.7,45.7,64.8,45.7C64.8,45.7,64.8,45.7,64.8,45.7L64.8,45.7z M64.8,45.7L64.8,45.7
									C64.8,45.7,64.8,45.7,64.8,45.7C64.8,45.7,64.8,45.7,64.8,45.7C64.8,45.7,64.8,45.7,64.8,45.7
									C64.8,45.7,64.8,45.7,64.8,45.7L64.8,45.7C64.8,45.7,64.8,45.7,64.8,45.7C64.8,45.7,64.8,45.7,64.8,45.7
									C64.8,45.7,64.8,45.7,64.8,45.7C64.8,45.7,64.8,45.7,64.8,45.7L64.8,45.7z"/>
								<path d="M65.1,45.7C65.1,45.7,65.1,45.7,65.1,45.7L65.1,45.7C65.1,45.7,65.1,45.7,65.1,45.7C65.1,45.8,65.1,45.8,65.1,45.7
									C65.1,45.8,65.1,45.8,65.1,45.7C65.1,45.8,65.1,45.8,65.1,45.7L65.1,45.7L65.1,45.7C65.1,45.8,65.1,45.7,65.1,45.7
									C65.1,45.7,65.1,45.7,65.1,45.7C65.1,45.7,65.1,45.7,65.1,45.7L65.1,45.7z M65.1,45.7L65.1,45.7
									C65.1,45.7,65.1,45.7,65.1,45.7C65.1,45.7,65.1,45.7,65.1,45.7C65.1,45.7,65.1,45.7,65.1,45.7
									C65.1,45.7,65.1,45.8,65.1,45.7L65.1,45.7C65.1,45.8,65.1,45.8,65.1,45.7C65.1,45.8,65.1,45.8,65.1,45.7
									C65.1,45.8,65.1,45.7,65.1,45.7C65.1,45.7,65.1,45.7,65.1,45.7L65.1,45.7z"/>
								<path d="M63.8,45.6C63.8,45.6,63.8,45.6,63.8,45.6L63.8,45.6C63.8,45.6,63.8,45.6,63.8,45.6C63.8,45.7,63.8,45.7,63.8,45.6
									C63.8,45.7,63.8,45.7,63.8,45.6C63.8,45.7,63.8,45.7,63.8,45.6L63.8,45.6L63.8,45.6C63.8,45.7,63.8,45.7,63.8,45.6
									C63.8,45.6,63.8,45.6,63.8,45.6C63.8,45.6,63.8,45.6,63.8,45.6L63.8,45.6z M63.8,45.6L63.8,45.6
									C63.8,45.6,63.8,45.6,63.8,45.6C63.8,45.6,63.8,45.6,63.8,45.6C63.8,45.6,63.8,45.6,63.8,45.6
									C63.8,45.7,63.8,45.7,63.8,45.6L63.8,45.6C63.8,45.7,63.8,45.7,63.8,45.6C63.8,45.7,63.8,45.7,63.8,45.6
									C63.8,45.7,63.8,45.7,63.8,45.6C63.8,45.7,63.8,45.6,63.8,45.6L63.8,45.6z"/>
								<path d="M64.5,45.2C64.5,45.2,64.5,45.2,64.5,45.2c0,0,0,0,0.1,0.1l0,0l0,0c0,0,0,0,0,0c0,0-0.1,0-0.1,0.1l0,0l0,0
									c0,0,0-0.1-0.1-0.1l0,0l0,0C64.4,45.3,64.5,45.2,64.5,45.2L64.5,45.2L64.5,45.2L64.5,45.2z M64.6,45.3
									C64.5,45.2,64.5,45.2,64.6,45.3c-0.1,0-0.1,0-0.1,0C64.4,45.3,64.5,45.3,64.6,45.3C64.5,45.3,64.5,45.3,64.6,45.3L64.6,45.3
									z"/>
								<path d="M63.6,45.3C63.6,45.3,63.6,45.3,63.6,45.3c0.1,0,0.1,0,0.1,0c0,0,0,0,0,0c0,0,0,0,0,0c0,0,0,0,0,0c0,0,0,0,0,0v0
									c0,0,0,0,0,0C63.7,45.4,63.7,45.4,63.6,45.3c0.1,0.1,0.1,0.1,0.1,0.1C63.7,45.4,63.7,45.4,63.6,45.3
									C63.7,45.4,63.7,45.3,63.6,45.3C63.6,45.3,63.6,45.3,63.6,45.3L63.6,45.3L63.6,45.3z"/>
								<path d="M65.3,45.5C65.3,45.5,65.3,45.5,65.3,45.5C65.3,45.4,65.3,45.4,65.3,45.5C65.3,45.4,65.3,45.4,65.3,45.5L65.3,45.5
									L65.3,45.5C65.2,45.5,65.2,45.5,65.3,45.5C65.2,45.5,65.2,45.5,65.3,45.5C65.2,45.5,65.2,45.5,65.3,45.5
									C65.3,45.5,65.3,45.5,65.3,45.5l-0.1,0.1C65.3,45.6,65.3,45.6,65.3,45.5c-0.1,0.1-0.1,0.1-0.1,0c0,0,0,0,0,0
									C65.2,45.4,65.2,45.4,65.3,45.5L65.3,45.5L65.3,45.5L65.3,45.5C65.3,45.4,65.3,45.4,65.3,45.5
									C65.3,45.4,65.3,45.4,65.3,45.5C65.3,45.4,65.3,45.4,65.3,45.5L65.3,45.5L65.3,45.5z"/>
								<path d="M63.8,45.9C63.8,45.9,63.8,45.9,63.8,45.9c-0.1-0.1-0.1-0.1-0.1-0.1l0,0C63.8,45.8,63.8,45.8,63.8,45.9L63.8,45.9
									C63.8,45.9,63.8,45.9,63.8,45.9L63.8,45.9L63.8,45.9z"/>
								<path d="M64,45.9C64,45.9,63.9,45.9,64,45.9c-0.1-0.1-0.1-0.1-0.1-0.1l0,0C63.9,45.8,63.9,45.8,64,45.9
									C64,45.8,64,45.9,64,45.9L64,45.9L64,45.9z"/>
								<path d="M64.1,45.9C64.1,45.8,64,45.8,64.1,45.9L64.1,45.9C64,45.8,64.1,45.8,64.1,45.9L64.1,45.9L64.1,45.9z"/>
								<path d="M64.2,45.9C64.2,45.8,64.1,45.8,64.2,45.9L64.2,45.9C64.2,45.8,64.2,45.8,64.2,45.9L64.2,45.9L64.2,45.9z"/>
								<polygon points="64.3,45.9 64.3,45.8 64.3,45.8 64.3,45.9 64.3,45.9 								"/>
								<polygon points="64.5,45.9 64.6,45.8 64.6,45.8 64.6,45.9 64.5,45.9 								"/>
								<polygon points="64.7,45.9 64.7,45.8 64.8,45.8 64.7,45.9 64.7,45.9 								"/>
								<polygon points="64.8,45.9 64.8,45.8 64.9,45.8 64.8,45.9 64.8,45.9 								"/>
								<polygon points="64.9,45.9 65,45.9 65,45.9 64.9,46 64.9,45.9 								"/>
								<polygon points="65,46 65.1,45.9 65.2,45.9 65,46 65,46 								"/>
								<path d="M65.3,45.9c0,0,0,0.1,0,0.1c0,0,0,0.1-0.1,0.1c0,0,0.1-0.1,0.1-0.1c0.1-0.1,0.2-0.2,0.2-0.2l0,0c0,0-0.1,0-0.2,0.2
									c-0.1,0.1-0.2,0.1-0.2,0.1l0,0l0,0c0,0,0.1-0.1,0.1-0.1C65.3,46,65.3,46,65.3,45.9L65.3,45.9L65.3,45.9z"/>
								<path d="M63.6,45.8c0,0,0,0.1,0,0.1c0,0,0,0.1,0,0.1c0,0-0.1-0.1-0.1-0.1c0-0.1-0.1-0.2-0.1-0.2l0,0c0,0,0.1,0,0.1,0.2
									c0,0.1,0.1,0.2,0.1,0.2l0,0l0,0c0,0,0-0.1-0.1-0.1C63.6,45.9,63.6,45.8,63.6,45.8L63.6,45.8L63.6,45.8z"/>
								<path d="M63.7,46.4c0,0,0-0.1-0.1-0.1c0,0,0,0-0.1,0l0,0c0,0,0.1,0,0.1,0C63.7,46.3,63.7,46.4,63.7,46.4L63.7,46.4
									L63.7,46.4z"/>
								<path d="M63.6,46.4c0,0-0.2-0.1-0.2-0.1c-0.1,0-0.1,0-0.1-0.1l0,0c0,0,0,0,0.1,0C63.5,46.3,63.6,46.4,63.6,46.4L63.6,46.4
									L63.6,46.4z"/>
								<path d="M65.1,46.4C65.1,46.4,65.2,46.4,65.1,46.4c0.1-0.1,0.1-0.1,0.2-0.1l0,0C65.3,46.3,65.2,46.4,65.1,46.4
									C65.2,46.4,65.2,46.4,65.1,46.4L65.1,46.4L65.1,46.4z"/>
								<path d="M65.2,46.5c0.1,0,0.1-0.1,0.2-0.1l0,0c0.1,0,0.1-0.1,0.1-0.1l0,0c0,0-0.1,0-0.1,0.1l0,0
									C65.3,46.4,65.3,46.5,65.2,46.5L65.2,46.5L65.2,46.5z"/>
								<path d="M65.2,46.7c0,0,0.1,0,0.1,0c0,0,0.1,0.1,0.1,0.1l0,0c0,0-0.1-0.1-0.1-0.1C65.2,46.7,65.2,46.7,65.2,46.7L65.2,46.7
									L65.2,46.7z"/>
								<path d="M65.2,46.9c0,0,0.1,0,0.1,0c0,0,0.1,0,0.1,0l0,0C65.3,47,65.3,47,65.2,46.9C65.3,47,65.2,46.9,65.2,46.9L65.2,46.9
									L65.2,46.9z"/>
								<path d="M65,46.9c0.1,0,0.1,0,0.1,0.1c0,0,0,0,0,0l0,0c0,0,0,0,0,0C65,46.9,65,46.9,65,46.9L65,46.9L65,46.9z"/>
								<path d="M65,47c0,0,0.1,0.1,0.1,0.1c0,0,0.1,0.1,0.1,0.1l0,0c0,0,0-0.1-0.1-0.1C65.1,47,65,47,65,47L65,47L65,47z"/>
								<path d="M64.9,47.1c0,0,0.1,0,0.1,0.1c0,0,0.1,0.1,0.1,0.2l0,0c0-0.1-0.1-0.1-0.1-0.1C65,47.1,65,47.1,64.9,47.1L64.9,47.1
									L64.9,47.1z"/>
								<path d="M64.9,47.2C64.9,47.2,64.9,47.2,64.9,47.2L64.9,47.2C65,47.2,65,47.2,64.9,47.2L64.9,47.2
									C65,47.2,64.9,47.2,64.9,47.2L64.9,47.2C64.9,47.2,64.9,47.2,64.9,47.2L64.9,47.2L64.9,47.2z"/>
								<path d="M64.8,47.2c0.1,0,0.1,0.1,0.1,0.1l0,0l0,0c0,0,0,0.1,0.1,0.1c0,0,0.1,0,0.1,0.1l0,0c0,0-0.1,0-0.1-0.1
									c0,0,0-0.1-0.1-0.1l0,0l0,0C64.9,47.3,64.8,47.2,64.8,47.2L64.8,47.2L64.8,47.2z"/>
								<path d="M64.8,47.4c0,0,0.1,0.1,0.1,0.1l0,0C64.9,47.5,64.8,47.4,64.8,47.4L64.8,47.4L64.8,47.4z"/>
								<path d="M64.6,47.3c0,0,0.1,0.1,0.1,0.1c0,0,0,0,0,0l0,0c0,0,0,0,0,0C64.7,47.4,64.6,47.3,64.6,47.3L64.6,47.3L64.6,47.3z"
									/>
								<path d="M64.6,47.4C64.6,47.4,64.6,47.5,64.6,47.4c0,0.1,0,0.1,0,0.2l0,0C64.5,47.5,64.5,47.5,64.6,47.4
									C64.5,47.5,64.5,47.4,64.6,47.4L64.6,47.4L64.6,47.4z"/>
								<path d="M64.6,47.4C64.6,47.4,64.6,47.4,64.6,47.4c0,0.1,0,0.1,0,0.1c0,0,0,0,0,0.1c0,0,0,0,0,0l0,0c0,0,0,0,0,0
									c0,0,0,0,0,0C64.6,47.5,64.6,47.5,64.6,47.4C64.6,47.4,64.6,47.4,64.6,47.4L64.6,47.4L64.6,47.4z"/>
								<path d="M64.5,47.5C64.5,47.5,64.5,47.5,64.5,47.5c0,0.1,0,0.1,0,0.1l0,0C64.5,47.6,64.5,47.6,64.5,47.5
									C64.5,47.5,64.5,47.5,64.5,47.5L64.5,47.5L64.5,47.5z"/>
								<path d="M64.3,47.4c0,0,0,0.1,0,0.2c0,0.1,0,0.1,0,0.2l0,0c0,0,0-0.1,0-0.1C64.3,47.5,64.3,47.4,64.3,47.4L64.3,47.4
									L64.3,47.4z"/>
								<path d="M64.3,47.3c0.1,0,0.1,0,0.1,0v0C64.4,47.3,64.3,47.3,64.3,47.3L64.3,47.3L64.3,47.3z"/>
								<path d="M64.3,47.4c0,0,0,0.2,0,0.2l0,0C64.2,47.5,64.2,47.4,64.3,47.4L64.3,47.4L64.3,47.4z"/>
								<path d="M64.2,47.4c0,0.1,0,0.2,0,0.2l0,0C64.1,47.6,64.2,47.4,64.2,47.4L64.2,47.4L64.2,47.4z"/>
								<path d="M64.1,47.4L64.1,47.4c0,0.1,0,0.2,0,0.2l0,0C64.1,47.5,64.1,47.5,64.1,47.4L64.1,47.4L64.1,47.4L64.1,47.4z"/>
								<path d="M64.1,47.3C64.1,47.3,64.1,47.3,64.1,47.3C64,47.4,64,47.4,64,47.4l0,0C64,47.4,64,47.3,64.1,47.3
									C64.1,47.3,64.1,47.3,64.1,47.3L64.1,47.3L64.1,47.3z"/>
								<path d="M63.9,47.3C63.9,47.4,63.9,47.4,63.9,47.3c-0.1,0.1-0.1,0.1-0.1,0.1l0,0C63.8,47.4,63.8,47.4,63.9,47.3
									C63.9,47.4,63.9,47.4,63.9,47.3L63.9,47.3L63.9,47.3z"/>
								<path d="M64,47.2C63.9,47.2,63.9,47.2,64,47.2c-0.1,0.1-0.1,0.1-0.1,0.1c0,0,0,0.1-0.1,0.1c0,0-0.1,0.1-0.1,0.1l0,0
									c0,0,0,0,0.1-0.1c0,0,0.1-0.1,0.1-0.1C63.8,47.2,63.9,47.2,64,47.2C63.9,47.2,63.9,47.2,64,47.2L64,47.2L64,47.2z"/>
								<path d="M63.9,47.1C63.9,47.1,63.8,47.1,63.9,47.1c-0.1,0.1-0.1,0.1-0.1,0.1l0,0C63.8,47.2,63.8,47.1,63.9,47.1
									C63.8,47.1,63.9,47.1,63.9,47.1L63.9,47.1L63.9,47.1z"/>
								<path d="M63.8,47c0,0-0.1,0-0.1,0.1c-0.1,0-0.1,0.1-0.1,0.1l0,0c0,0,0.1-0.1,0.1-0.1C63.7,47,63.8,47,63.8,47L63.8,47
									L63.8,47z"/>
								<path d="M63.8,46.9c0,0-0.1,0-0.1,0.1c0,0-0.1,0.1-0.1,0.1l0,0c0,0,0.1-0.1,0.1-0.1C63.7,46.9,63.7,46.9,63.8,46.9
									L63.8,46.9L63.8,46.9z"/>
								<path d="M63.8,46.8c0,0-0.2,0.1-0.2,0.1l0,0C63.6,46.9,63.8,46.8,63.8,46.8L63.8,46.8L63.8,46.8z"/>
								<path d="M63.6,46.8C63.5,46.8,63.5,46.9,63.6,46.8c-0.1,0-0.2,0.1-0.2,0.1v0C63.4,46.9,63.5,46.9,63.6,46.8
									C63.5,46.8,63.5,46.8,63.6,46.8L63.6,46.8L63.6,46.8z"/>
								<path d="M63.6,46.6c0,0-0.1,0-0.1,0c0,0-0.1,0-0.1,0.1l0,0c0,0,0.1-0.1,0.1-0.1C63.6,46.6,63.6,46.6,63.6,46.6L63.6,46.6
									L63.6,46.6z"/>
								<path d="M63.8,46.6c-0.1,0-0.1,0-0.2,0c0,0,0,0,0,0l0,0c0,0,0,0,0,0C63.6,46.5,63.7,46.5,63.8,46.6L63.8,46.6L63.8,46.6z"/>
							</g>
							<g>
								
									<path fill-rule="evenodd" clip-rule="evenodd" fill="#F7DB17" stroke="#000000" stroke-width="2.145400e-02" stroke-miterlimit="2.4142" d="
									M62,50.2c0.1-0.1,0.1-0.3,0.2-0.4c0,0-0.2-0.1-0.3-0.3c0,0,0.1,0,0.3,0c0,0-0.3-0.2-0.2-0.5c0,0,0.1,0,0.2,0.1
									c0.1,0,0.2,0,0.2,0s0,0,0,0c0,0,0-0.1-0.1-0.2c-0.1-0.1-0.3-0.5-0.3-0.5s0.1,0.1,0.2,0.1c0.1,0,0.2,0.1,0.2,0.1
									c0,0,0.2-0.1,0.3,0.1c0,0,0,0,0,0c0,0,0-0.2,0.1-0.2c0,0-0.1-0.1,0-0.1c0.1-0.1,0.2-0.2,0.2-0.2s0.1,0.2,0.2,0.2
									c0.1,0.1,0.1,0.1,0.1,0.2c0,0,0.1-0.1,0.1,0.2c0,0,0,0,0,0c0-0.1,0.1-0.2,0.3-0.1c0,0,0-0.1,0.1-0.1c0.1,0,0.2,0,0.3-0.1
									c0,0-0.4,0.5-0.3,0.7c0,0,0.1-0.1,0.2,0c0.1,0,0.2-0.1,0.2-0.1s0,0.4-0.2,0.5c0,0,0.2,0,0.3,0c0,0,0,0.2-0.3,0.3
									c0,0,0.2,0,0.2,0.2c0,0.1,0.1,0.2,0.1,0.2s-0.1,0.1-0.4,0c0,0,0.1,0.1,0.1,0.3c0,0-0.1,0-0.2,0c0,0,0,0.1,0,0.1
									c0,0.1,0,0.1,0,0.1s-0.2,0-0.3,0c0,0,0,0.1,0,0.3c0,0-0.1-0.2-0.2-0.2c0,0,0,0.1-0.2,0.2c0,0,0-0.1-0.1-0.1
									c0,0-0.1-0.1-0.1-0.1s-0.1,0.1-0.2,0.2c0,0-0.1-0.1,0-0.3c0,0-0.1,0.1-0.3,0c0,0,0-0.1,0-0.1c0-0.1,0-0.1,0-0.1
									s-0.1,0.1-0.2,0c0,0,0-0.2,0.1-0.3C62.3,50.2,62.1,50.3,62,50.2L62,50.2z"/>
								<path d="M63,49.3c0,0,0,0.1,0,0.1c0,0.1,0,0.1,0,0.1c0,0,0,0.1,0,0.1c0,0,0,0,0,0c0,0,0,0,0,0c0,0,0,0-0.1,0
									c-0.1-0.1-0.1-0.1-0.2-0.1c0,0,0,0-0.1,0c0,0,0,0-0.1,0c0,0,0,0-0.1,0l0,0c0,0,0,0,0.1,0c0,0,0,0,0,0c0,0,0,0,0,0
									c0,0,0.1,0,0.2,0.1c0,0,0.1,0,0.1,0c0,0,0,0,0,0c0,0,0,0,0,0c0,0,0,0,0-0.1c0,0,0-0.1,0-0.1C63,49.3,63,49.3,63,49.3
									L63,49.3L63,49.3z"/>
								<path d="M62.7,49.3c0.1,0,0.1,0,0.1,0c0,0,0.1,0.1,0.1,0.1l0,0c0,0-0.1-0.1-0.1-0.1C62.8,49.4,62.7,49.4,62.7,49.3
									L62.7,49.3L62.7,49.3z"/>
								<path d="M62.9,49.6c0,0.1,0,0.1,0,0.1l0,0l0,0c0,0-0.3-0.1-0.3-0.2l0,0c0,0.1,0.2,0.2,0.2,0.2
									C62.9,49.7,62.9,49.6,62.9,49.6L62.9,49.6L62.9,49.6z"/>
								<path d="M62.8,49.5C62.8,49.5,62.8,49.5,62.8,49.5C62.8,49.6,62.8,49.6,62.8,49.5c0.1,0.1,0.1,0.1,0.1,0.1c0,0,0,0-0.1,0
									c0,0,0,0-0.1,0C62.7,49.6,62.7,49.6,62.8,49.5C62.7,49.6,62.7,49.6,62.8,49.5C62.7,49.5,62.7,49.5,62.8,49.5L62.8,49.5z
									 M62.8,49.6C62.8,49.5,62.8,49.5,62.8,49.6C62.7,49.5,62.7,49.5,62.8,49.6c-0.1,0-0.1,0-0.1,0
									C62.7,49.6,62.7,49.6,62.8,49.6c-0.1,0.1-0.1,0.1,0,0.1C62.8,49.7,62.8,49.7,62.8,49.6C62.8,49.6,62.8,49.6,62.8,49.6
									C62.8,49.6,62.8,49.6,62.8,49.6L62.8,49.6z"/>
								<path fill-rule="evenodd" clip-rule="evenodd" d="M62.8,49.6C62.8,49.6,62.8,49.6,62.8,49.6C62.8,49.6,62.8,49.6,62.8,49.6
									C62.7,49.6,62.7,49.6,62.8,49.6C62.7,49.6,62.7,49.6,62.8,49.6L62.8,49.6z"/>
								<path d="M63.1,49.3c0,0,0,0.1,0,0.1c0,0.1,0,0.1,0,0.1c0,0,0,0.1,0,0.1c0,0,0,0,0,0c0,0,0,0,0,0c0,0,0.1,0,0.1,0
									c0.1-0.1,0.1-0.1,0.2-0.1c0,0,0,0,0.1,0c0,0,0,0,0.1,0c0,0,0,0,0.1,0l0,0c0,0,0,0-0.1,0c0,0,0,0-0.1,0c0,0,0,0,0,0
									c0,0-0.1,0-0.2,0.1c0,0-0.1,0-0.1,0c0,0,0,0,0,0c0,0,0,0,0,0c0,0,0-0.1,0-0.1c0,0,0-0.1,0-0.1
									C63.1,49.3,63.1,49.3,63.1,49.3L63.1,49.3L63.1,49.3z"/>
								<path d="M63.4,49.4c-0.1,0-0.1,0-0.1,0c0,0-0.1,0.1-0.1,0.1l0,0c0,0,0.1-0.1,0.1-0.1C63.3,49.4,63.4,49.4,63.4,49.4
									L63.4,49.4L63.4,49.4z"/>
								<path d="M63.2,49.6c0,0.1,0,0.1,0,0.1l0,0h0c0,0,0.3,0,0.3-0.2l0,0c0,0.1-0.2,0.2-0.3,0.2C63.2,49.7,63.2,49.6,63.2,49.6
									L63.2,49.6L63.2,49.6z"/>
								<path d="M63.3,49.5C63.3,49.5,63.3,49.6,63.3,49.5C63.2,49.6,63.2,49.6,63.3,49.5c-0.1,0.1-0.1,0.1-0.1,0.1c0,0,0,0,0.1,0
									c0,0,0,0,0.1,0C63.4,49.7,63.4,49.6,63.3,49.5C63.4,49.6,63.4,49.6,63.3,49.5C63.4,49.6,63.3,49.5,63.3,49.5L63.3,49.5z
									 M63.3,49.6C63.3,49.6,63.3,49.6,63.3,49.6C63.3,49.6,63.3,49.6,63.3,49.6c0.1,0,0.1,0,0.1,0C63.4,49.6,63.4,49.7,63.3,49.6
									c0.1,0.1,0.1,0.1,0,0.1S63.3,49.7,63.3,49.6C63.3,49.7,63.2,49.6,63.3,49.6C63.3,49.6,63.3,49.6,63.3,49.6L63.3,49.6z"/>
								<path fill-rule="evenodd" clip-rule="evenodd" d="M63.3,49.6C63.3,49.6,63.3,49.6,63.3,49.6C63.3,49.6,63.3,49.6,63.3,49.6
									C63.3,49.6,63.3,49.6,63.3,49.6C63.3,49.6,63.3,49.6,63.3,49.6L63.3,49.6z"/>
								<path d="M62.9,49.8c0,0,0-0.1,0.1-0.1l0,0C62.9,49.8,62.9,49.8,62.9,49.8L62.9,49.8L62.9,49.8z"/>
								<path d="M62.8,50.1L62.8,50.1c0,0,0,0.1,0,0.1c0,0,0,0,0.1,0.1l0,0h0l0,0c0,0,0.1,0,0.2,0c0,0,0.1,0,0.1,0c0,0,0,0,0,0
									c0,0,0,0,0,0c0,0,0,0,0,0c0,0-0.1,0-0.1,0l0,0c0,0,0.1,0,0.1,0c0,0,0,0,0,0c0,0,0,0,0,0c0,0,0,0,0,0.1c0,0-0.1,0-0.1,0.1
									c-0.1,0-0.1,0-0.2,0l0,0l0,0l0,0c0,0-0.1,0-0.1-0.1C62.8,50.1,62.8,50.1,62.8,50.1L62.8,50.1L62.8,50.1L62.8,50.1z"/>
								<path d="M63,50.2c0,0,0,0.1,0,0.1c0,0,0,0,0,0.1c0,0,0,0,0,0c0,0,0,0,0,0c0,0,0,0,0.1,0c0,0,0.1,0,0.1,0l0,0
									c0,0-0.1,0-0.1,0c0,0-0.1,0-0.1,0c0,0,0,0,0,0c0,0,0,0,0,0c0,0,0,0,0-0.1C63,50.3,63,50.3,63,50.2L63,50.2L63,50.2z"/>
								<path d="M62.8,50.4c0,0,0.1,0,0.1,0c0,0,0.1,0,0.1,0l0,0c0,0-0.1,0-0.1,0C62.9,50.5,62.8,50.5,62.8,50.4L62.8,50.4
									L62.8,50.4z"/>
								<path d="M62.7,50.2C62.7,50.2,62.8,50.2,62.7,50.2c0.1,0.1,0.2,0.1,0.2,0.1l0,0C62.9,50.3,62.8,50.3,62.7,50.2
									C62.8,50.2,62.7,50.2,62.7,50.2L62.7,50.2L62.7,50.2z"/>
								<path d="M62.7,50.3c0,0,0.2,0.1,0.2,0.1l0,0C62.9,50.4,62.8,50.4,62.7,50.3L62.7,50.3L62.7,50.3z"/>
								<path d="M63.3,50.2C63.3,50.2,63.3,50.2,63.3,50.2c-0.1,0.1-0.2,0.1-0.2,0.1l0,0C63.2,50.3,63.2,50.3,63.3,50.2
									C63.3,50.3,63.3,50.2,63.3,50.2L63.3,50.2L63.3,50.2z"/>
								<path d="M63.3,50.3c-0.1,0-0.2,0.1-0.2,0.1l0,0C63.1,50.4,63.3,50.4,63.3,50.3L63.3,50.3L63.3,50.3z"/>
								<path d="M62.3,49.1c0.1,0,0.4,0,0.7,0c0.3,0,0.5,0,0.7,0v0c-0.2,0-0.4,0-0.7,0C62.7,49.1,62.4,49.1,62.3,49.1L62.3,49.1
									L62.3,49.1z"/>
								<path d="M62.3,49c0.1,0,0.4,0,0.7,0c0.3,0,0.5,0,0.7,0l0,0c-0.2,0-0.4,0-0.7,0C62.7,49,62.4,49,62.3,49L62.3,49L62.3,49z"/>
								<path d="M62.3,48.9c0.1,0,0.5,0,0.8,0c0.3,0,0.5,0,0.7,0v0c-0.2,0-0.4,0-0.7,0C62.7,48.9,62.4,48.9,62.3,48.9L62.3,48.9
									L62.3,48.9z"/>
								<path d="M62.3,48.8c0.1,0,0.4-0.1,0.8-0.1c0.3,0,0.6,0,0.8,0l0,0c-0.2,0-0.5,0-0.8,0C62.7,48.8,62.4,48.8,62.3,48.8
									L62.3,48.8L62.3,48.8z"/>
								<path d="M63,48.9C63,48.9,63,48.9,63,48.9L63,48.9C63.1,48.9,63.1,48.9,63,48.9C63.1,48.9,63.1,49,63,48.9
									C63,49,63,49,63,48.9C63,49,63,49,63,48.9L63,48.9L63,48.9C63,49,63,48.9,63,48.9C63,48.9,63,48.9,63,48.9
									C63,48.9,63,48.9,63,48.9L63,48.9z M63,48.9L63,48.9C63,48.9,63,48.9,63,48.9C63,48.9,63,48.9,63,48.9
									C63,48.9,63,48.9,63,48.9C63,48.9,63,48.9,63,48.9L63,48.9C63,49,63,49,63,48.9C63,49,63,49,63,48.9
									C63,48.9,63,48.9,63,48.9C63,48.9,63,48.9,63,48.9L63,48.9z"/>
								<path d="M62.7,48.9C62.7,48.9,62.7,48.9,62.7,48.9L62.7,48.9C62.7,48.9,62.7,48.9,62.7,48.9C62.7,48.9,62.7,49,62.7,48.9
									C62.7,49,62.7,49,62.7,48.9C62.7,49,62.7,49,62.7,48.9L62.7,48.9L62.7,48.9C62.6,49,62.6,48.9,62.7,48.9
									C62.6,48.9,62.7,48.9,62.7,48.9C62.7,48.9,62.7,48.9,62.7,48.9L62.7,48.9z M62.7,48.9L62.7,48.9
									C62.7,48.9,62.7,48.9,62.7,48.9C62.7,48.9,62.7,48.9,62.7,48.9C62.7,48.9,62.7,48.9,62.7,48.9
									C62.7,48.9,62.7,48.9,62.7,48.9L62.7,48.9C62.7,49,62.7,49,62.7,48.9C62.7,49,62.7,49,62.7,48.9
									C62.7,48.9,62.7,48.9,62.7,48.9C62.7,48.9,62.7,48.9,62.7,48.9L62.7,48.9z"/>
								<path d="M63.4,48.9C63.4,48.9,63.4,48.9,63.4,48.9L63.4,48.9C63.4,48.9,63.4,48.9,63.4,48.9C63.4,48.9,63.4,49,63.4,48.9
									C63.4,49,63.4,49,63.4,48.9C63.3,49,63.3,49,63.4,48.9L63.4,48.9L63.4,48.9C63.3,49,63.3,48.9,63.4,48.9
									C63.3,48.9,63.3,48.9,63.4,48.9C63.3,48.9,63.4,48.9,63.4,48.9L63.4,48.9z M63.4,48.9L63.4,48.9
									C63.4,48.9,63.4,48.9,63.4,48.9C63.4,48.9,63.3,48.9,63.4,48.9C63.3,48.9,63.3,48.9,63.4,48.9
									C63.3,48.9,63.3,48.9,63.4,48.9L63.4,48.9C63.3,49,63.4,49,63.4,48.9C63.4,49,63.4,49,63.4,48.9
									C63.4,48.9,63.4,48.9,63.4,48.9C63.4,48.9,63.4,48.9,63.4,48.9L63.4,48.9z"/>
								<path d="M63.7,48.9C63.7,48.9,63.7,48.9,63.7,48.9L63.7,48.9C63.7,48.9,63.7,48.9,63.7,48.9C63.7,49,63.7,49,63.7,48.9
									C63.7,49,63.7,49,63.7,48.9C63.7,49,63.7,49,63.7,48.9L63.7,48.9L63.7,48.9C63.6,49,63.6,49,63.7,48.9
									C63.6,48.9,63.6,48.9,63.7,48.9C63.7,48.9,63.7,48.9,63.7,48.9L63.7,48.9z M63.7,48.9L63.7,48.9
									C63.7,48.9,63.7,48.9,63.7,48.9C63.7,48.9,63.7,48.9,63.7,48.9C63.7,48.9,63.7,48.9,63.7,48.9C63.7,49,63.7,49,63.7,48.9
									L63.7,48.9C63.7,49,63.7,49,63.7,48.9C63.7,49,63.7,49,63.7,48.9C63.7,49,63.7,49,63.7,48.9C63.7,48.9,63.7,48.9,63.7,48.9
									L63.7,48.9z"/>
								<path d="M62.4,48.9C62.4,48.9,62.4,48.9,62.4,48.9L62.4,48.9C62.4,48.9,62.4,48.9,62.4,48.9C62.4,49,62.4,49,62.4,48.9
									C62.4,49,62.4,49,62.4,48.9C62.4,49,62.4,49,62.4,48.9L62.4,48.9L62.4,48.9C62.3,49,62.3,49,62.4,48.9
									C62.3,48.9,62.3,48.9,62.4,48.9C62.4,48.9,62.4,48.9,62.4,48.9L62.4,48.9z M62.4,48.9L62.4,48.9
									C62.4,48.9,62.4,48.9,62.4,48.9C62.4,48.9,62.4,48.9,62.4,48.9C62.4,48.9,62.4,48.9,62.4,48.9C62.4,49,62.4,49,62.4,48.9
									L62.4,48.9C62.4,49,62.4,49,62.4,48.9C62.4,49,62.4,49,62.4,48.9C62.4,49,62.4,49,62.4,48.9C62.4,48.9,62.4,48.9,62.4,48.9
									L62.4,48.9z"/>
								<path d="M63,48.4C63,48.4,63.1,48.4,63,48.4c0,0,0,0,0.1,0.1l0,0l0,0c0,0,0,0,0,0c0,0-0.1,0-0.1,0.1l0,0l0,0
									c0,0,0-0.1-0.1-0.1l0,0l0,0C62.9,48.5,63,48.5,63,48.4L63,48.4L63,48.4L63,48.4z M63.1,48.5C63.1,48.5,63,48.5,63.1,48.5
									c-0.1,0-0.1,0-0.1,0C63,48.5,63,48.6,63.1,48.5C63.1,48.6,63.1,48.5,63.1,48.5L63.1,48.5z"/>
								<path d="M62.1,48.6C62.2,48.6,62.2,48.6,62.1,48.6c0.1,0,0.1,0,0.1,0c0,0,0,0,0,0c0,0,0,0,0,0c0,0,0,0,0,0c0,0,0,0,0,0v0
									c0,0,0,0,0,0c0,0,0,0,0,0c0,0,0,0,0,0c0,0,0,0,0,0C62.2,48.7,62.2,48.7,62.1,48.6C62.2,48.6,62.2,48.7,62.1,48.6L62.1,48.6
									L62.1,48.6z"/>
								<path d="M63.9,48.7C63.9,48.7,63.9,48.7,63.9,48.7C63.9,48.6,63.9,48.6,63.9,48.7C63.8,48.6,63.8,48.6,63.9,48.7L63.9,48.7
									L63.9,48.7C63.8,48.7,63.8,48.7,63.9,48.7C63.8,48.7,63.8,48.7,63.9,48.7C63.8,48.7,63.8,48.7,63.9,48.7
									C63.8,48.8,63.8,48.8,63.9,48.7l-0.1,0.1C63.8,48.8,63.8,48.8,63.9,48.7c-0.1,0.1-0.1,0.1-0.1,0.1c0,0,0,0,0-0.1
									C63.8,48.7,63.8,48.6,63.9,48.7L63.9,48.7L63.9,48.7L63.9,48.7C63.8,48.6,63.8,48.6,63.9,48.7
									C63.9,48.6,63.9,48.6,63.9,48.7C63.9,48.6,63.9,48.6,63.9,48.7L63.9,48.7L63.9,48.7z"/>
								<path d="M62.4,49.2C62.4,49.2,62.4,49.2,62.4,49.2c-0.1-0.1-0.1-0.1-0.1-0.1l0,0C62.3,49.1,62.4,49.1,62.4,49.2L62.4,49.2
									C62.4,49.2,62.4,49.2,62.4,49.2L62.4,49.2L62.4,49.2z"/>
								<path d="M62.6,49.2C62.6,49.2,62.5,49.1,62.6,49.2c-0.1-0.1-0.1-0.1-0.1-0.1l0,0C62.5,49.1,62.5,49.1,62.6,49.2
									C62.5,49.1,62.6,49.2,62.6,49.2L62.6,49.2L62.6,49.2z"/>
								<path d="M62.7,49.1C62.6,49.1,62.6,49.1,62.7,49.1L62.7,49.1C62.6,49.1,62.6,49.1,62.7,49.1L62.7,49.1L62.7,49.1z"/>
								<path d="M62.8,49.1C62.7,49.1,62.7,49.1,62.8,49.1L62.8,49.1C62.7,49.1,62.8,49.1,62.8,49.1L62.8,49.1L62.8,49.1z"/>
								<polygon points="62.9,49.1 62.9,49.1 62.9,49.1 62.9,49.1 62.9,49.1 								"/>
								<polygon points="63.1,49.1 63.2,49.1 63.2,49.1 63.1,49.1 63.1,49.1 								"/>
								<polygon points="63.3,49.1 63.3,49.1 63.3,49.1 63.3,49.1 63.3,49.1 								"/>
								<polygon points="63.4,49.1 63.4,49.1 63.4,49.1 63.4,49.1 63.4,49.1 								"/>
								<polygon points="63.5,49.2 63.6,49.1 63.6,49.1 63.5,49.2 63.5,49.2 								"/>
								<path d="M63.6,49.2c0,0,0.1-0.1,0.1-0.1l0,0C63.7,49.1,63.6,49.2,63.6,49.2L63.6,49.2L63.6,49.2z"/>
								<path d="M63.9,49.1c0,0,0,0.1,0,0.1c0,0,0,0.1-0.1,0.1c0,0,0.1-0.1,0.1-0.1c0-0.1,0.2-0.2,0.2-0.2l0,0c0,0-0.1,0-0.2,0.2
									c0,0.1-0.2,0.2-0.2,0.2l0,0l0,0c0,0,0.1-0.1,0.1-0.1C63.9,49.2,63.9,49.2,63.9,49.1L63.9,49.1L63.9,49.1z"/>
								<path d="M62.1,49.1c0,0,0,0.1,0,0.1c0,0,0,0.1,0,0.1c0,0-0.1-0.1-0.1-0.1c0-0.1-0.2-0.2-0.2-0.2l0,0c0,0,0.1,0,0.1,0.2
									c0,0.1,0.1,0.1,0.1,0.1l0,0l0,0c0,0-0.1-0.1-0.1-0.1C62.2,49.2,62.2,49.2,62.1,49.1L62.1,49.1L62.1,49.1z"/>
								<path d="M62.3,49.7C62.3,49.7,62.3,49.6,62.3,49.7c-0.1-0.1-0.1-0.1-0.1-0.1v0c0,0,0.1,0,0.1,0
									C62.3,49.6,62.3,49.7,62.3,49.7L62.3,49.7L62.3,49.7z"/>
								<path d="M62.2,49.7c0,0-0.2-0.1-0.2-0.1c-0.1,0-0.1,0-0.1,0l0,0c0,0,0,0,0.1,0C62.1,49.6,62.2,49.7,62.2,49.7L62.2,49.7
									L62.2,49.7z"/>
								<path d="M63.7,49.7C63.8,49.6,63.8,49.6,63.7,49.7c0.1-0.1,0.1-0.1,0.2-0.1l0,0C63.9,49.5,63.8,49.6,63.7,49.7
									C63.8,49.6,63.8,49.6,63.7,49.7L63.7,49.7L63.7,49.7z"/>
								<path d="M63.8,49.7c0.1-0.1,0.1-0.1,0.2-0.1l0,0c0.1,0,0.1-0.1,0.1-0.1l0,0c0,0-0.1,0-0.1,0.1l0,0
									C64,49.6,63.9,49.7,63.8,49.7L63.8,49.7L63.8,49.7z"/>
								<path d="M63.8,49.9c0,0,0.1,0,0.1,0C64,50,64,50,64,50l0,0c0,0-0.1-0.1-0.1-0.1C63.9,49.9,63.8,49.9,63.8,49.9L63.8,49.9
									L63.8,49.9z"/>
								<path d="M63.8,50.1c0,0,0.1,0,0.1,0c0,0,0.1,0,0.1,0l0,0C64,50.2,64,50.2,63.8,50.1C63.9,50.2,63.9,50.1,63.8,50.1
									L63.8,50.1L63.8,50.1z"/>
								<path d="M63.6,50.1c0.1,0,0.1,0,0.1,0.1c0,0,0,0,0,0l0,0c0,0,0,0,0,0C63.7,50.2,63.7,50.1,63.6,50.1L63.6,50.1L63.6,50.1z"
									/>
								<path d="M63.7,50.2c0,0,0.1,0.1,0.1,0.1c0,0,0.1,0.1,0.1,0.1l0,0c0,0,0-0.1-0.1-0.1C63.7,50.3,63.7,50.2,63.7,50.2
									L63.7,50.2L63.7,50.2z"/>
								<path d="M63.6,50.3c0,0,0.1,0,0.1,0c0,0,0.1,0.1,0.1,0.1l0,0c0-0.1-0.1-0.1-0.1-0.1C63.7,50.3,63.6,50.3,63.6,50.3
									L63.6,50.3L63.6,50.3z"/>
								<path d="M63.6,50.4C63.6,50.4,63.6,50.4,63.6,50.4L63.6,50.4C63.6,50.4,63.6,50.4,63.6,50.4L63.6,50.4
									C63.6,50.5,63.6,50.4,63.6,50.4L63.6,50.4C63.6,50.4,63.6,50.4,63.6,50.4L63.6,50.4L63.6,50.4z"/>
								<path d="M63.4,50.4c0.1,0,0.1,0.1,0.1,0.1l0,0l0,0c0,0,0,0.1,0.1,0.1c0,0,0.1,0,0.1,0.1l0,0c0,0-0.1,0-0.1-0.1
									c0,0,0,0-0.1-0.1l0,0l0,0C63.5,50.5,63.5,50.5,63.4,50.4L63.4,50.4L63.4,50.4z"/>
								<path d="M63.5,50.6c0,0,0.1,0.1,0.1,0.1l0,0C63.6,50.7,63.5,50.7,63.5,50.6L63.5,50.6L63.5,50.6z"/>
								<path d="M63.3,50.5c0,0,0.1,0.1,0.1,0.1c0,0,0,0,0,0l0,0c0,0,0,0,0,0C63.4,50.6,63.3,50.6,63.3,50.5L63.3,50.5L63.3,50.5z"
									/>
								<path d="M63.2,50.7C63.2,50.7,63.2,50.7,63.2,50.7c0,0.1,0,0.1,0,0.2l0,0C63.2,50.8,63.2,50.8,63.2,50.7
									C63.2,50.7,63.2,50.7,63.2,50.7L63.2,50.7L63.2,50.7z"/>
								<path d="M63.3,50.6C63.3,50.7,63.3,50.7,63.3,50.6c0,0.1,0,0.1,0,0.1c0,0,0,0,0,0.1c0,0,0,0,0,0l0,0c0,0,0,0,0,0
									c0,0,0,0,0,0C63.3,50.8,63.3,50.7,63.3,50.6C63.3,50.7,63.3,50.7,63.3,50.6L63.3,50.6L63.3,50.6z"/>
								<path d="M63.2,50.7C63.2,50.8,63.2,50.8,63.2,50.7c0,0.1,0,0.1,0,0.1l0,0C63.2,50.9,63.2,50.8,63.2,50.7
									C63.2,50.8,63.2,50.8,63.2,50.7L63.2,50.7L63.2,50.7z"/>
								<path d="M63,50.7c0,0,0,0.1,0,0.2c0,0.1,0,0.1,0,0.2l0,0c0,0,0-0.1,0-0.1C63,50.8,63,50.7,63,50.7L63,50.7L63,50.7z"/>
								<path d="M62.9,50.5c0.1,0,0.1,0,0.1,0v0C63.1,50.5,63,50.5,62.9,50.5L62.9,50.5L62.9,50.5z"/>
								<path d="M62.9,50.6c0,0,0,0.2,0,0.2l0,0C62.9,50.8,62.9,50.7,62.9,50.6L62.9,50.6L62.9,50.6z"/>
								<path d="M62.9,50.7c0,0.1,0,0.2,0,0.2h0C62.8,50.8,62.8,50.7,62.9,50.7L62.9,50.7L62.9,50.7z"/>
								<path d="M62.8,50.7L62.8,50.7c0,0.1,0,0.2,0,0.2l0,0C62.8,50.8,62.8,50.7,62.8,50.7L62.8,50.7L62.8,50.7L62.8,50.7z"/>
								<path d="M62.8,50.6C62.8,50.6,62.8,50.6,62.8,50.6c-0.1,0.1-0.1,0.1-0.1,0.1l0,0C62.7,50.7,62.7,50.6,62.8,50.6
									C62.7,50.6,62.8,50.6,62.8,50.6L62.8,50.6L62.8,50.6z"/>
								<path d="M62.6,50.6C62.6,50.7,62.6,50.7,62.6,50.6c-0.1,0.1-0.1,0.1-0.1,0.1l0,0C62.5,50.7,62.5,50.7,62.6,50.6
									C62.6,50.7,62.6,50.6,62.6,50.6L62.6,50.6L62.6,50.6z"/>
								<path d="M62.6,50.5C62.6,50.5,62.6,50.5,62.6,50.5c-0.1,0.1-0.1,0.1-0.1,0.1c0,0,0,0.1-0.1,0.1c0,0-0.1,0.1-0.1,0.1l0,0
									c0,0,0,0,0.1-0.1c0,0,0.1-0.1,0.1-0.1C62.5,50.5,62.5,50.5,62.6,50.5C62.6,50.5,62.6,50.5,62.6,50.5L62.6,50.5L62.6,50.5z"
									/>
								<path d="M62.6,50.4C62.5,50.4,62.5,50.4,62.6,50.4c-0.1,0.1-0.1,0.1-0.1,0.1l0,0C62.4,50.4,62.4,50.4,62.6,50.4
									C62.5,50.4,62.5,50.4,62.6,50.4L62.6,50.4L62.6,50.4z"/>
								<path d="M62.5,50.3c0,0-0.1,0-0.1,0.1c-0.1,0-0.1,0.1-0.1,0.1l0,0c0,0,0.1-0.1,0.1-0.1C62.4,50.3,62.4,50.3,62.5,50.3
									L62.5,50.3L62.5,50.3z"/>
								<path d="M62.4,50.2c0,0-0.1,0-0.1,0.1c0,0-0.1,0.1-0.1,0.1l0,0c0,0,0.1-0.1,0.1-0.1C62.3,50.3,62.4,50.2,62.4,50.2
									L62.4,50.2L62.4,50.2z"/>
								<path d="M62.5,50.1c0,0-0.2,0.1-0.2,0.1l0,0C62.3,50.2,62.4,50.1,62.5,50.1L62.5,50.1L62.5,50.1z"/>
								<path d="M62.2,50.1C62.2,50.2,62.2,50.2,62.2,50.1c-0.1,0.1-0.1,0.1-0.2,0.1v0C62.1,50.2,62.1,50.2,62.2,50.1
									C62.2,50.1,62.2,50.1,62.2,50.1L62.2,50.1L62.2,50.1z"/>
								<path d="M62.3,49.9c0,0-0.1,0-0.1,0c0,0-0.1,0-0.1,0.1l0,0c0-0.1,0.1-0.1,0.1-0.1C62.2,49.9,62.2,49.9,62.3,49.9L62.3,49.9
									L62.3,49.9z"/>
								<path d="M62.4,49.9c-0.1,0-0.1,0-0.2,0c0,0,0,0,0,0l0,0c0,0,0,0,0,0C62.3,49.8,62.3,49.8,62.4,49.9L62.4,49.9L62.4,49.9z"/>
							</g>
						</g>
						<g>
							
								<path fill-rule="evenodd" clip-rule="evenodd" fill="#F7DB17" stroke="#000000" stroke-width="1.609100e-02" stroke-miterlimit="2.4142" d="
								M67.2,46.8c0,0-0.2-0.1-0.2-0.2c0,0,0,0,0,0c0,0-0.1,0-0.1-0.1c0-0.1,0.3-0.1,0.5,0.1c0,0,0.4-0.4,0.9-0.4
								c0.5,0,0.6,0.1,1,0.2c0.4,0.2,0.5,0.2,0.9,0.2c0,0-0.2,0.2-0.5,0.1c-0.3,0-0.7-0.2-0.8-0.3c0,0,0.2,0.1,0.4,0.3
								c0.2,0.2,0.5,0.6,1.3,0.5c0,0-0.3,0.2-0.7,0.1c-0.4-0.1-0.8-0.5-1-0.6c-0.2-0.1-0.6-0.2-0.8-0.1c0,0,0.1,0,0.2,0.1
								c0.1,0.1,0.3,0,0.3,0S68.5,47,68.3,47c-0.1,0-0.1,0-0.2,0C68.1,47.1,68,47,68,47s0,0.1,0,0.1c0,0.1,0,0.2,0,0.2
								c0,0,0,0.1,0.1,0.2c0,0,0.2,0.1,0.2,0.2c0,0.1,0,0.1,0,0.1s0.1,0,0.1,0.1c0,0,0,0,0.1,0.1c0,0,0.5-0.1,0.6,0.2
								c0,0,0.1,0,0.2,0c0.1,0,0.1-0.1,0.4-0.1c0.2,0,0.3,0.1,0.3,0.2s0.1,0,0.2,0c0.1,0,0.3-0.1,0.3,0c0,0,0.1-0.1,0.2,0
								c0,0,0.1-0.1,0.2-0.1c0.1,0.1-0.1,0.2-0.2,0.2c0,0,0,0.1-0.1,0.1c0,0,0.1,0.2-0.1,0.2c0,0,0,0.1-0.1,0c0,0,0,0.1-0.1,0.1
								c0,0,0,0.1,0,0.1c0.1,0,0,0.2-0.1,0.1c0,0,0,0.1,0,0.2c0,0,0.1,0.1,0,0.2c0,0,0.2,0.1-0.1,0.2c0,0,0,0.1-0.1,0.2c0,0,0,0,0,0
								c0,0,0.1,0.1,0,0.2c-0.1,0.1-0.2,0.1-0.3,0.2c-0.1,0.1-0.2,0.3-0.3,0.3c0,0-0.1,0.2-0.2,0.2c0,0,0.1,0.1,0,0.2
								C69.3,51,69.2,51,69.1,51c-0.1,0-0.1-0.1,0-0.1c0,0-0.2,0-0.2,0c0-0.1,0.1,0,0.2-0.1c0.1,0,0-0.1,0.1-0.2
								c0.1-0.1,0.2-0.1,0.3-0.2c0.1-0.1,0.1-0.2,0.1-0.2c0,0,0-0.2-0.1-0.2c-0.1,0-0.1-0.1-0.1-0.1c-0.1,0-0.1-0.1-0.1-0.1
								s-0.2,0.3-0.3,0.3c-0.1,0-0.2,0-0.2,0.1c-0.1,0.1-0.1,0.1-0.1,0.2c0,0.1,0,0.2-0.1,0.2c-0.1,0-0.1,0-0.1,0s0.1,0.1,0,0.2
								c-0.2,0-0.3,0-0.3,0c-0.1,0,0-0.1,0.1-0.1c0,0-0.2,0-0.1,0c0-0.1,0.1,0,0.2-0.1c0.1-0.1,0.1-0.1,0.2-0.2
								c0.1,0,0.1-0.1,0.1-0.2c0-0.1,0.1-0.1,0.1-0.1c0-0.1,0.1-0.1,0-0.1c0-0.1,0-0.1,0-0.1c0-0.1,0-0.1,0-0.1s-0.2,0.2-0.2,0
								c0,0-0.1,0.1-0.1,0c0,0-0.1,0.1-0.2,0c-0.1,0-0.2,0.1-0.2,0.1c0,0-0.1,0.3-0.2,0.4c0,0.1,0,0.2-0.1,0.3
								c-0.1,0.1-0.1,0.1-0.1,0.2c0,0.1,0,0.1-0.1,0.1c-0.1,0-0.1,0.1-0.2,0c-0.1,0-0.1-0.1,0-0.1c0,0-0.1,0.1-0.1,0
								c-0.1,0,0-0.1,0-0.1c0.1,0,0.1-0.1,0.2-0.2c0-0.1,0.1,0,0.1-0.1c0-0.1,0.1-0.1,0.1-0.2c0-0.1,0-0.1,0-0.1
								c0-0.1,0-0.1,0.1-0.2c0-0.1,0-0.2,0-0.2c0-0.1,0-0.1-0.1-0.1c0,0-0.1,0-0.1,0.1c0,0.1,0,0.1-0.1,0.2
								c-0.1,0.1-0.1,0.1-0.1,0.1c0,0.1,0,0.2,0,0.2c0,0-0.1,0.1-0.1,0.1c0,0.1,0,0.1,0,0.2c-0.1,0.1-0.2,0-0.3,0
								c-0.1,0-0.1-0.1-0.1-0.1c0,0-0.1,0-0.1,0c0-0.1,0.1-0.1,0.2-0.1c0,0,0.1-0.1,0.2-0.2c0-0.1,0-0.1,0-0.2c0,0,0,0,0.1-0.1
								c0,0,0-0.1,0.1-0.2c0-0.1,0-0.1,0-0.2c0,0,0,0,0-0.1c0,0,0-0.1,0-0.1c0,0,0-0.1,0-0.1c0,0-0.1,0,0-0.1c0-0.1,0-0.1,0-0.2
								s0.1-0.1,0-0.1c0,0,0,0-0.1-0.1c0,0-0.1,0-0.1-0.1c0-0.1,0.1-0.1,0.1-0.2c0,0,0-0.1,0-0.2c0-0.1,0.1-0.1,0.1-0.1
								c0,0-0.1,0,0-0.1c0-0.1,0-0.1,0-0.1c0-0.1-0.1,0-0.1-0.1c0,0,0,0,0-0.1c0,0,0-0.1,0-0.1c0,0,0.1,0,0.1-0.1c0-0.1,0-0.1,0-0.1
								c-0.1,0-0.1,0-0.1,0c0,0,0,0,0,0c0,0-0.1,0-0.1,0c0,0-0.1-0.1-0.1-0.1c0,0-0.1,0-0.1-0.1c0,0,0.1-0.1,0.1-0.1
								c0-0.1,0-0.1,0.1-0.2C67.2,46.9,67.2,46.9,67.2,46.8C67.2,46.8,67.2,46.8,67.2,46.8L67.2,46.8z"/>
							<path fill-rule="evenodd" clip-rule="evenodd" fill="#F90805" d="M69.2,50.7c0.1,0,0.2,0,0.2,0l0,0l0,0c0,0,0.1,0.1,0,0.2
								c-0.1,0-0.1,0.1-0.2,0.1c-0.1,0-0.1,0-0.1,0c0,0,0,0,0,0c0,0,0,0,0,0c0,0,0,0,0,0c0,0,0,0,0.1-0.1l0,0l0,0c0,0-0.1,0-0.1,0
								c0,0,0,0,0.1,0C69.1,50.8,69.1,50.8,69.2,50.7C69.2,50.7,69.2,50.7,69.2,50.7L69.2,50.7z M68.1,46.7
								C68,46.7,68,46.8,68.1,46.7c-0.2,0-0.3,0-0.5,0c-0.1,0,0,0-0.1,0c0,0,0,0,0,0l0,0c0,0,0.4-0.4,0.9-0.4c0.4,0,0.6,0,0.8,0.2
								c0,0,0.1,0,0.1,0.1c0.2,0.1,0.3,0.1,0.4,0.2c0.1,0,0.3,0,0.5,0c-0.1,0-0.2,0.2-0.5,0.1c-0.2,0-0.5-0.2-0.7-0.2
								c0,0-0.1,0-0.1,0l-0.1,0l0,0c0,0,0.2,0.1,0.4,0.3c0,0,0,0,0,0c0.2,0.2,0.5,0.5,1.2,0.5c-0.1,0.1-0.4,0.2-0.7,0.1
								c-0.3-0.1-0.6-0.3-0.8-0.5c-0.1,0-0.1-0.1-0.2-0.1c-0.1-0.1-0.3-0.1-0.4-0.1C68.4,46.7,68.2,46.7,68.1,46.7L68.1,46.7
								L68.1,46.7z M68.3,50.5c0.1,0,0.1,0,0.2,0c0,0,0,0,0.1,0v0c0,0,0.1,0.1,0,0.1c-0.1,0-0.1,0-0.2,0c-0.1,0-0.1,0-0.1,0
								c0,0,0,0,0,0c0,0,0,0,0,0c0,0,0,0,0,0c0,0,0,0,0,0c0,0,0,0,0,0L68.3,50.5L68.3,50.5L68.3,50.5L68.3,50.5
								C68.2,50.6,68.2,50.6,68.3,50.5c-0.1,0.1-0.2,0.1-0.2,0.1C68.1,50.5,68.2,50.5,68.3,50.5C68.2,50.5,68.2,50.5,68.3,50.5
								L68.3,50.5z M67.4,50.5C67.5,50.5,67.5,50.5,67.4,50.5c0.1,0.1,0.1,0.1,0.2,0.1c0,0,0.1,0,0.1,0c0,0,0,0,0,0c0,0,0,0,0,0
								c0,0,0,0.1,0,0.1c0,0,0,0-0.1,0.1c0,0-0.1,0-0.1,0c0,0-0.1,0-0.1,0c0,0,0,0,0,0c0,0,0,0,0,0l0,0c0,0,0,0,0-0.1c0,0,0,0,0,0
								l0-0.1l-0.1,0.1c0,0-0.1,0.1-0.1,0c0,0,0,0,0,0c0,0,0,0,0,0c0,0,0,0,0,0C67.4,50.5,67.4,50.5,67.4,50.5L67.4,50.5z M67,50
								c0,0,0.1,0.1,0.2,0.1v0c0,0,0,0,0,0l0,0c0,0,0,0.1,0,0.1c-0.1,0-0.2,0-0.2,0c0,0,0,0,0,0c0,0,0,0-0.1,0c0,0,0,0,0,0
								c0,0,0,0,0,0c0,0,0,0,0,0l0,0l0,0c0,0-0.1,0-0.1,0c0,0,0.1-0.1,0.1-0.1C66.9,50.1,67,50.1,67,50L67,50L67,50
								C67,50.1,67,50.1,67,50L67,50z"/>
							<g>
								<path d="M67.4,46.9C67.4,46.9,67.4,46.8,67.4,46.9L67.4,46.9c0.1-0.1,0.1-0.1,0.2-0.1c0,0,0,0,0.1,0c0,0,0.1,0,0.2,0v0
									c-0.1,0-0.2,0-0.2,0c0,0,0,0-0.1,0C67.5,46.8,67.5,46.8,67.4,46.9L67.4,46.9C67.4,46.8,67.4,46.9,67.4,46.9L67.4,46.9
									L67.4,46.9z"/>
								<path d="M67.4,46.9C67.4,46.9,67.4,46.9,67.4,46.9c0.1,0,0.1,0,0.2,0c0,0,0.1,0,0.1,0l0,0c0,0,0,0,0,0l0,0c0,0,0,0,0,0l0,0
									c0,0,0,0-0.1,0C67.5,47,67.5,47,67.4,46.9C67.4,47,67.4,46.9,67.4,46.9L67.4,46.9L67.4,46.9z"/>
								<path fill-rule="evenodd" clip-rule="evenodd" d="M67.5,46.8C67.5,46.8,67.5,46.9,67.5,46.8C67.5,46.9,67.5,46.9,67.5,46.8
									C67.5,46.9,67.5,46.9,67.5,46.8C67.5,46.9,67.5,46.8,67.5,46.8L67.5,46.8z"/>
								<path d="M67.4,46.8C67.4,46.8,67.4,46.8,67.4,46.8C67.4,46.7,67.4,46.7,67.4,46.8L67.4,46.8C67.4,46.7,67.4,46.7,67.4,46.8
									C67.4,46.8,67.4,46.8,67.4,46.8L67.4,46.8L67.4,46.8z"/>
								<path d="M67.5,46.8C67.5,46.8,67.5,46.8,67.5,46.8C67.5,46.7,67.5,46.7,67.5,46.8L67.5,46.8C67.5,46.7,67.5,46.7,67.5,46.8
									C67.5,46.8,67.5,46.8,67.5,46.8L67.5,46.8L67.5,46.8z"/>
								<path d="M67.2,46.9C67.2,46.9,67.2,46.9,67.2,46.9C67.3,46.8,67.3,46.8,67.2,46.9L67.2,46.9C67.3,46.8,67.3,46.9,67.2,46.9
									C67.3,46.9,67.2,46.9,67.2,46.9L67.2,46.9L67.2,46.9z"/>
								<path d="M67.2,47C67.3,47,67.3,47,67.2,47C67.3,47,67.3,47,67.2,47L67.2,47C67.3,47,67.3,47,67.2,47
									C67.3,47,67.3,47,67.2,47L67.2,47L67.2,47z"/>
								<path d="M67.2,47C67.2,47,67.2,47,67.2,47C67.2,47,67.2,47.1,67.2,47L67.2,47C67.2,47.1,67.2,47,67.2,47
									C67.2,47,67.2,47,67.2,47L67.2,47L67.2,47z"/>
								<path d="M67.5,47.2C67.5,47.2,67.5,47.1,67.5,47.2C67.5,47.1,67.5,47.1,67.5,47.2c0-0.1,0-0.1,0-0.1l0,0
									C67.5,47.1,67.5,47.1,67.5,47.2C67.5,47.1,67.5,47.1,67.5,47.2C67.5,47.1,67.5,47.2,67.5,47.2L67.5,47.2L67.5,47.2z"/>
								<path d="M67.6,47C67.6,47,67.6,47,67.6,47C67.6,47,67.6,47,67.6,47c0.1,0,0.1,0,0.1,0l0,0C67.7,47,67.7,47,67.6,47
									C67.6,47,67.6,47,67.6,47C67.6,47,67.6,47,67.6,47L67.6,47L67.6,47z"/>
								<path d="M67.7,47.1C67.8,47.1,67.8,47.1,67.7,47.1c0.1-0.1,0.1-0.1,0.1-0.1l0,0C67.9,47,67.8,47,67.7,47.1
									C67.8,47.1,67.8,47.1,67.7,47.1L67.7,47.1L67.7,47.1z"/>
								<path d="M67.3,47.3C67.3,47.3,67.3,47.3,67.3,47.3C67.3,47.2,67.3,47.2,67.3,47.3L67.3,47.3C67.3,47.2,67.3,47.2,67.3,47.3
									C67.3,47.3,67.3,47.3,67.3,47.3L67.3,47.3L67.3,47.3z"/>
								<path d="M67.2,47.2C67.2,47.2,67.2,47.2,67.2,47.2C67.2,47.1,67.2,47.1,67.2,47.2L67.2,47.2C67.3,47.1,67.2,47.2,67.2,47.2
									C67.2,47.2,67.2,47.2,67.2,47.2L67.2,47.2L67.2,47.2z"/>
								<path d="M67.2,47.3C67.2,47.3,67.2,47.3,67.2,47.3C67.2,47.4,67.2,47.4,67.2,47.3l0,0.1C67.2,47.4,67.2,47.4,67.2,47.3
									C67.2,47.3,67.2,47.3,67.2,47.3L67.2,47.3L67.2,47.3z"/>
								<path d="M66.9,47.1C67,47.1,67,47.1,66.9,47.1C67,47.2,67,47.2,66.9,47.1C67,47.2,67,47.2,66.9,47.1L66.9,47.1
									C67,47.1,67,47.1,66.9,47.1c0.1,0,0.1-0.1,0.1-0.1l0,0c0,0,0,0,0,0c0,0,0,0,0,0l0,0C67,47.2,67,47.2,66.9,47.1
									C67,47.2,67,47.2,66.9,47.1C67,47.2,67,47.2,66.9,47.1L66.9,47.1L66.9,47.1z"/>
								<path d="M68.2,46.9C68.3,46.9,68.3,46.9,68.2,46.9C68.3,46.9,68.3,46.9,68.2,46.9c0.1,0,0.3,0,0.3,0l0,0
									C68.5,47,68.4,47,68.2,46.9C68.3,47,68.3,47,68.2,46.9C68.3,46.9,68.3,46.9,68.2,46.9L68.2,46.9L68.2,46.9z"/>
								<path d="M68.3,46.9C68.3,46.9,68.3,46.9,68.3,46.9C68.3,46.9,68.3,46.9,68.3,46.9L68.3,46.9C68.3,46.9,68.3,46.9,68.3,46.9
									C68.3,46.9,68.3,46.9,68.3,46.9L68.3,46.9L68.3,46.9z"/>
								<path d="M68,46.9C68,46.8,68,46.8,68,46.9c0.1-0.1,0.1-0.1,0.1-0.1l0,0C68.1,46.8,68.1,46.8,68,46.9
									C68,46.8,68,46.9,68,46.9L68,46.9L68,46.9z"/>
								<path d="M68,46.9C68,46.9,68,46.9,68,46.9C68,46.9,68.1,46.9,68,46.9L68,46.9C68.1,46.9,68,46.9,68,46.9
									C68,46.9,68,46.9,68,46.9L68,46.9L68,46.9z"/>
								<path d="M68,46.8C68,46.7,68,46.7,68,46.8c0.1,0,0.1,0,0.1,0l0,0C68.1,46.7,68,46.7,68,46.8C68,46.7,68,46.8,68,46.8
									L68,46.8L68,46.8z"/>
								<path d="M67.2,46.7C67.2,46.7,67.2,46.7,67.2,46.7c0-0.1,0-0.1,0-0.1c0,0,0.1,0,0.1,0h0l0,0c0,0,0.1,0,0.1,0l0,0
									c0,0,0,0-0.1,0.1l0,0l0,0C67.3,46.7,67.3,46.7,67.2,46.7C67.2,46.7,67.2,46.7,67.2,46.7C67.2,46.7,67.2,46.7,67.2,46.7
									L67.2,46.7L67.2,46.7z"/>
								<path d="M67.2,46.5C67.2,46.5,67.2,46.5,67.2,46.5C67.2,46.5,67.2,46.6,67.2,46.5L67.2,46.5C67.2,46.6,67.2,46.5,67.2,46.5
									C67.2,46.5,67.2,46.5,67.2,46.5L67.2,46.5L67.2,46.5z"/>
								<path d="M67,46.6C67,46.5,67,46.5,67,46.6c0.1,0,0.1,0,0.1,0l0,0C67.1,46.6,67.1,46.6,67,46.6C67,46.6,67,46.6,67,46.6
									L67,46.6L67,46.6z"/>
								<path d="M67,46.5C67,46.5,67,46.5,67,46.5L67,46.5C67,46.5,67,46.5,67,46.5L67,46.5C67,46.5,67,46.5,67,46.5L67,46.5
									C67,46.5,67,46.5,67,46.5L67,46.5L67,46.5z"/>
								<path d="M67.9,47.1c0,0,0.1,0,0.1,0l0,0C68,47.1,68,47.1,67.9,47.1L67.9,47.1L67.9,47.1z"/>
								<path d="M67.4,47.4C67.4,47.4,67.4,47.4,67.4,47.4C67.4,47.3,67.4,47.3,67.4,47.4L67.4,47.4C67.4,47.3,67.4,47.4,67.4,47.4
									C67.4,47.4,67.4,47.4,67.4,47.4L67.4,47.4L67.4,47.4z"/>
								<path d="M67.7,47.2c0,0,0.1,0,0.1,0c0.1,0,0.1,0,0.2-0.1l0,0c0,0-0.1,0-0.2,0.1C67.8,47.2,67.7,47.2,67.7,47.2L67.7,47.2
									L67.7,47.2z"/>
								<path d="M67.8,47.3C67.9,47.2,67.9,47.2,67.8,47.3C67.9,47.2,67.9,47.2,67.8,47.3c0.1-0.1,0.1,0,0.1,0v0
									C68,47.2,67.9,47.2,67.8,47.3C67.9,47.2,67.9,47.2,67.8,47.3C67.9,47.2,67.9,47.3,67.8,47.3L67.8,47.3L67.8,47.3z"/>
								<path d="M67.9,47.4C68,47.4,68,47.3,67.9,47.4L67.9,47.4C68,47.3,68,47.4,67.9,47.4L67.9,47.4L67.9,47.4z"/>
								<path d="M68,47.4C68,47.4,68.1,47.4,68,47.4L68,47.4C68.1,47.4,68,47.4,68,47.4L68,47.4L68,47.4z"/>
								<path d="M67.6,47.3L67.6,47.3L67.6,47.3C67.6,47.3,67.6,47.3,67.6,47.3C67.7,47.3,67.7,47.3,67.6,47.3L67.6,47.3L67.6,47.3
									L67.6,47.3L67.6,47.3L67.6,47.3C67.7,47.3,67.7,47.3,67.6,47.3C67.6,47.3,67.6,47.3,67.6,47.3L67.6,47.3L67.6,47.3
									L67.6,47.3L67.6,47.3z"/>
								<path d="M67.7,47.4C67.7,47.4,67.7,47.4,67.7,47.4C67.7,47.4,67.7,47.4,67.7,47.4c-0.1,0-0.1,0-0.1,0c0,0,0,0,0,0
									c0,0.1-0.1,0.2-0.1,0.3c0,0.1-0.1,0.1-0.1,0.1l0,0c0,0,0.1-0.1,0.1-0.1c0,0,0-0.1,0.1-0.1c0,0,0.1-0.2,0.1-0.2l0,0l0,0
									c0,0,0,0,0,0C67.6,47.4,67.6,47.4,67.7,47.4C67.7,47.4,67.7,47.4,67.7,47.4C67.7,47.4,67.7,47.4,67.7,47.4L67.7,47.4
									L67.7,47.4z"/>
								<path d="M67.8,47.4c0,0,0,0.1,0,0.1c0,0,0,0.1-0.1,0.1c0,0.1-0.1,0.2-0.1,0.2l0,0c0,0,0-0.1,0.1-0.2c0,0,0-0.1,0.1-0.1
									C67.8,47.4,67.8,47.4,67.8,47.4L67.8,47.4L67.8,47.4z"/>
								<path d="M67.6,47.6c0,0-0.1,0.1-0.1,0.1c-0.1,0.1-0.1,0.1-0.2,0.1l0,0c0,0,0.1-0.1,0.2-0.1C67.5,47.7,67.6,47.6,67.6,47.6
									L67.6,47.6L67.6,47.6z"/>
								<path d="M67.5,47.8C67.5,47.8,67.5,47.8,67.5,47.8c0-0.1,0-0.1,0-0.2l0,0C67.6,47.7,67.6,47.7,67.5,47.8
									C67.6,47.8,67.6,47.8,67.5,47.8L67.5,47.8L67.5,47.8z"/>
								<path d="M67.4,47.9c0,0-0.1,0.1-0.1,0.1l0,0C67.3,48,67.4,48,67.4,47.9L67.4,47.9L67.4,47.9z"/>
								<path d="M67.5,48C67.5,48,67.4,48,67.5,48c-0.1,0.1-0.1,0.1-0.1,0.1l0,0C67.4,48.1,67.4,48,67.5,48C67.4,48,67.5,48,67.5,48
									L67.5,48L67.5,48z"/>
								<path d="M67.4,48.1C67.4,48.1,67.4,48.1,67.4,48.1c-0.1,0.1-0.1,0.1-0.2,0.1v0C67.3,48.2,67.3,48.2,67.4,48.1
									C67.4,48.1,67.4,48.1,67.4,48.1L67.4,48.1L67.4,48.1z"/>
								<path d="M67.5,48.2c0-0.1,0-0.1,0.1-0.2l0,0c0.1-0.1,0-0.2,0-0.2h0c0,0,0,0.1,0,0.2l0,0C67.5,48,67.5,48.1,67.5,48.2
									L67.5,48.2L67.5,48.2z"/>
								<path d="M67.5,48.2c0,0.1,0,0.1,0,0.1l0,0C67.4,48.4,67.5,48.3,67.5,48.2L67.5,48.2L67.5,48.2z"/>
								<path d="M67.4,48.5c0,0-0.1,0.1-0.1,0.1c0,0-0.1,0-0.1,0.1c0,0,0,0.1,0,0.1l0,0c0,0,0,0,0-0.1c0,0,0,0,0.1-0.1
									C67.3,48.5,67.4,48.5,67.4,48.5L67.4,48.5L67.4,48.5z"/>
								<path d="M67.3,48.4c0,0-0.1,0.1-0.1,0.1c0,0,0,0,0,0c0,0,0,0.1,0,0.1l0,0c0,0,0,0,0-0.1c0,0,0,0,0,0
									C67.2,48.4,67.3,48.4,67.3,48.4L67.3,48.4L67.3,48.4z"/>
								<path d="M67.3,48.7C67.4,48.7,67.4,48.7,67.3,48.7c0.1-0.1,0.1-0.1,0.1-0.1c0-0.1,0-0.1,0-0.1l0,0c0,0,0,0,0,0.1
									C67.5,48.6,67.4,48.6,67.3,48.7C67.4,48.7,67.4,48.7,67.3,48.7L67.3,48.7L67.3,48.7z"/>
								<path d="M67.4,48.8c0,0-0.1,0.1-0.1,0.2c0,0,0,0.1,0,0.1c0,0,0,0.1,0,0.1l0,0c0,0,0,0,0-0.1c0,0,0,0,0-0.1
									C67.4,48.9,67.4,48.8,67.4,48.8L67.4,48.8L67.4,48.8z"/>
								<path d="M67.5,49C67.5,48.9,67.5,48.9,67.5,49c0-0.1,0-0.1,0-0.1l0,0C67.5,48.9,67.5,48.9,67.5,49
									C67.5,48.9,67.5,48.9,67.5,49L67.5,49L67.5,49z"/>
								<path d="M67.4,49C67.4,49,67.4,49,67.4,49c0,0.1-0.1,0.1-0.1,0.1l0,0C67.3,49.1,67.3,49.1,67.4,49C67.4,49,67.4,49,67.4,49
									L67.4,49L67.4,49z"/>
								<path d="M67.4,49.1C67.4,49.1,67.4,49.1,67.4,49.1C67.4,49.2,67.4,49.2,67.4,49.1c0,0.1,0,0.2,0,0.2l0,0
									C67.4,49.2,67.4,49.2,67.4,49.1C67.4,49.2,67.4,49.2,67.4,49.1C67.4,49.1,67.4,49.1,67.4,49.1L67.4,49.1L67.4,49.1z"/>
								<path d="M67.5,49.3C67.5,49.4,67.5,49.4,67.5,49.3L67.5,49.3C67.5,49.4,67.5,49.4,67.5,49.3L67.5,49.3L67.5,49.3z"/>
								<path d="M67.6,49.3C67.6,49.2,67.6,49.2,67.6,49.3L67.6,49.3c0-0.1,0-0.1,0-0.2l0,0C67.6,49.1,67.6,49.2,67.6,49.3
									C67.6,49.2,67.6,49.2,67.6,49.3L67.6,49.3L67.6,49.3z"/>
								<path d="M67.6,49C67.6,49,67.6,48.9,67.6,49c0-0.1-0.1-0.2,0-0.2c0-0.1,0.1-0.1,0.1-0.2c0,0,0,0,0,0c0.1-0.1,0-0.2,0-0.2
									l0,0c0,0,0,0.1,0,0.2c0,0,0,0,0,0c-0.1,0.1-0.1,0.1-0.1,0.2C67.6,48.8,67.6,48.9,67.6,49C67.6,48.9,67.6,49,67.6,49L67.6,49
									L67.6,49z"/>
								<path d="M67.6,48.5c0-0.1,0-0.1,0-0.2c0,0,0-0.1,0-0.1c0,0,0-0.1,0-0.1c0,0,0-0.1,0.1-0.1l0,0c0,0,0,0.1-0.1,0.1
									c0,0,0,0.1,0,0.1c0,0,0,0.1,0,0.1C67.6,48.4,67.6,48.4,67.6,48.5L67.6,48.5L67.6,48.5z"/>
								<path d="M67.8,48.3c0,0,0-0.1-0.1-0.1c0,0,0-0.1,0-0.1c0,0,0-0.1,0-0.1c0,0,0-0.1,0.1-0.1l0,0c0,0,0,0-0.1,0.1
									c0,0,0,0.1,0,0.1c0,0,0,0.1,0,0.1C67.7,48.2,67.8,48.3,67.8,48.3L67.8,48.3L67.8,48.3z"/>
								<path d="M67.8,48.1c0-0.1,0-0.1,0-0.1l0,0l0,0l0,0c0,0,0-0.1,0-0.1c0,0,0-0.1,0.1-0.1l0,0c0,0-0.1,0.1-0.1,0.1
									c0,0,0,0.1,0,0.1l0,0l0,0l0,0C67.8,48,67.8,48,67.8,48.1L67.8,48.1L67.8,48.1z"/>
								<path d="M67.9,47.8C67.9,47.8,67.9,47.9,67.9,47.8L67.9,47.8C67.9,47.9,67.9,47.9,67.9,47.8L67.9,47.8L67.9,47.8z"/>
								<path d="M67.7,47.8C67.7,47.8,67.7,47.8,67.7,47.8c0.1-0.1,0.1-0.1,0.1-0.1c0,0,0-0.1,0-0.1h0c0,0,0,0,0,0.1
									C67.8,47.7,67.8,47.7,67.7,47.8C67.8,47.8,67.7,47.8,67.7,47.8L67.7,47.8L67.7,47.8z"/>
								<path d="M67.9,47.6c0,0,0-0.1,0-0.1c0,0,0,0,0,0h0c0,0,0,0,0,0C67.9,47.5,67.9,47.6,67.9,47.6L67.9,47.6L67.9,47.6z"/>
								<path d="M68,47.8c0,0,0-0.1,0.1-0.1c0,0,0-0.1,0-0.1l0,0c0,0,0,0.1,0,0.1C68.1,47.7,68.1,47.7,68,47.8L68,47.8L68,47.8z"/>
								<path d="M68.2,47.7C68.2,47.7,68.2,47.7,68.2,47.7c0-0.1,0-0.1,0-0.1l0,0C68.2,47.6,68.2,47.6,68.2,47.7
									C68.2,47.7,68.2,47.7,68.2,47.7L68.2,47.7L68.2,47.7z"/>
								<path d="M68.3,47.9C68.3,47.9,68.3,47.9,68.3,47.9c0-0.1,0.1-0.1,0.1-0.1h0C68.4,47.9,68.3,47.9,68.3,47.9
									C68.3,47.9,68.3,47.9,68.3,47.9L68.3,47.9L68.3,47.9z"/>
								<path d="M68.3,47.9c0,0,0,0.1,0,0.1c0,0,0,0.1,0,0.1l0,0c0,0,0,0,0-0.1C68.2,47.9,68.2,47.9,68.3,47.9L68.3,47.9L68.3,47.9z
									"/>
								<path d="M68.2,48C68.2,48,68.2,48,68.2,48c0.1,0.1,0.1,0.1,0.1,0.2c0,0.1,0,0.1,0,0.1l0,0c0,0,0,0,0-0.1
									C68.2,48.1,68.2,48.1,68.2,48C68.2,48,68.2,48,68.2,48L68.2,48L68.2,48z"/>
								<path d="M68.1,48C68.1,48.1,68.1,48.1,68.1,48c0,0.1,0,0.2,0,0.2l0,0C68.1,48.2,68.1,48.2,68.1,48
									C68.1,48.1,68.1,48.1,68.1,48L68.1,48L68.1,48z"/>
								<path d="M68.1,47.8C68.1,47.8,68.1,47.8,68.1,47.8c-0.1,0.1-0.1,0.1-0.1,0.1c0,0.1,0,0.1,0,0.1c0,0,0,0,0,0c0,0,0,0,0,0.1
									c0,0,0,0.1,0,0.1c0,0,0,0.1,0,0.1c0,0.1,0,0.1,0,0.2l0,0c0-0.1,0-0.1,0-0.2c0-0.1,0-0.1,0-0.1c0,0,0-0.1,0-0.1
									c0,0,0-0.1,0-0.1c0,0,0,0,0,0c0,0,0,0,0-0.1C68,47.9,68.1,47.8,68.1,47.8C68.1,47.8,68.1,47.8,68.1,47.8L68.1,47.8
									L68.1,47.8z"/>
								<path d="M67.9,48.2C67.9,48.2,67.9,48.3,67.9,48.2c0,0.1,0,0.1,0,0.2l0,0C67.9,48.4,67.9,48.3,67.9,48.2
									C67.9,48.3,67.9,48.2,67.9,48.2L67.9,48.2L67.9,48.2z"/>
								<path d="M67.8,48.7C67.8,48.7,67.8,48.6,67.8,48.7c0-0.1,0.1-0.1,0.1-0.1h0C67.8,48.6,67.8,48.6,67.8,48.7
									C67.8,48.6,67.8,48.7,67.8,48.7L67.8,48.7L67.8,48.7z"/>
								<path d="M67.7,48.8C67.7,48.8,67.7,48.8,67.7,48.8C67.7,48.8,67.7,48.8,67.7,48.8L67.7,48.8C67.7,48.8,67.7,48.8,67.7,48.8
									C67.7,48.8,67.7,48.8,67.7,48.8L67.7,48.8L67.7,48.8z"/>
								<path d="M67.8,48.9C67.8,48.9,67.8,49,67.8,48.9c-0.1,0.1-0.1,0.2-0.1,0.3c0,0.1,0,0.1,0,0.1c0,0,0,0.1,0,0.1l0,0
									c0,0,0-0.1,0-0.1c0,0,0-0.1,0-0.1C67.7,49.1,67.7,49,67.8,48.9C67.7,49,67.8,48.9,67.8,48.9L67.8,48.9L67.8,48.9z"/>
								<path d="M67.9,48.7c0,0.1,0,0.1,0,0.2c0,0,0,0.1,0,0.1c0,0.1,0.1,0.2,0.1,0.2l0,0c0,0-0.1-0.1-0.1-0.2c0,0,0-0.1,0-0.1
									C67.9,48.8,67.9,48.7,67.9,48.7L67.9,48.7L67.9,48.7z"/>
								<path d="M67.9,48.9C67.9,48.9,67.9,48.9,67.9,48.9c0,0.1,0,0.2,0,0.2c0,0,0,0.1,0.1,0.1c0,0,0,0,0,0c0,0,0,0,0,0
									c0,0,0,0,0,0l0,0c0,0,0,0,0,0c0,0,0,0,0,0c0,0,0-0.1,0-0.1h0c0,0,0,0,0,0.1c0,0,0,0,0,0c0,0,0,0,0,0l0,0c0,0,0,0,0,0
									s0,0,0,0c0,0,0,0,0,0c0,0,0,0-0.1-0.1C67.9,49,67.9,49,67.9,48.9C67.9,48.9,67.9,48.9,67.9,48.9L67.9,48.9L67.9,48.9z"/>
								<path d="M68,48.7c0,0,0,0.1,0,0.1c0,0,0,0.1,0,0.1l0,0c0,0,0-0.1,0-0.1C68,48.7,68,48.7,68,48.7L68,48.7L68,48.7z"/>
								<path d="M68.1,48.4c0,0,0,0.1,0,0.1c0,0,0,0.1,0,0.1l0,0c0,0,0-0.1,0-0.1C68.1,48.5,68.1,48.4,68.1,48.4L68.1,48.4
									L68.1,48.4z"/>
								<path d="M68.2,48.3L68.2,48.3L68.2,48.3c0,0.1,0.1,0.1,0.1,0.2c0,0,0,0,0,0c0,0,0,0,0,0C68.3,48.4,68.3,48.3,68.2,48.3
									L68.2,48.3c0.1,0,0.1,0.1,0.1,0.1c0,0,0,0,0,0c0,0,0,0,0,0c0,0,0,0,0,0C68.3,48.4,68.3,48.4,68.2,48.3L68.2,48.3L68.2,48.3
									L68.2,48.3L68.2,48.3z M68.3,48.5L68.3,48.5C68.3,48.5,68.3,48.5,68.3,48.5L68.3,48.5z"/>
								<path d="M68.3,48.6c0,0,0,0.1,0,0.1c0,0-0.1,0.1-0.1,0.2c0,0.1,0,0.1,0,0.1c0,0,0,0,0,0.1c0,0,0-0.1,0.1-0.1
									c0.1-0.1,0.1-0.1,0.1-0.1l0,0c0,0,0,0.1-0.1,0.1c-0.1,0.1-0.1,0.1-0.1,0.1l0,0l0,0c0,0,0-0.1,0-0.1c0,0,0-0.1,0-0.1
									C68.1,48.8,68.2,48.8,68.3,48.6C68.2,48.7,68.2,48.6,68.3,48.6L68.3,48.6L68.3,48.6z"/>
								<path d="M68.3,49.2c0,0,0.1-0.1,0.1-0.1c0,0,0-0.1,0-0.1h0c0,0,0,0.1,0,0.1C68.4,49.2,68.3,49.2,68.3,49.2L68.3,49.2
									L68.3,49.2z"/>
								<path d="M68.3,49.5C68.3,49.5,68.3,49.5,68.3,49.5c0,0.1-0.1,0.1-0.1,0.2l0,0C68.2,49.6,68.2,49.6,68.3,49.5
									C68.3,49.5,68.3,49.5,68.3,49.5L68.3,49.5L68.3,49.5z"/>
								<path d="M68.1,49.4C68.1,49.4,68.1,49.4,68.1,49.4c0,0.1,0,0.1,0,0.2c0,0.1-0.1,0.1-0.1,0.1l0,0c0,0,0.1-0.1,0.1-0.1
									C68.1,49.5,68.1,49.5,68.1,49.4C68.1,49.4,68.1,49.4,68.1,49.4L68.1,49.4L68.1,49.4z"/>
								<path d="M67.8,49.8c0-0.1,0-0.1,0-0.1l0,0C67.9,49.7,67.8,49.8,67.8,49.8L67.8,49.8L67.8,49.8z"/>
								<path d="M67.8,49.9c0,0,0,0.1,0,0.1L67.8,49.9C67.8,50,67.8,50,67.8,49.9L67.8,49.9L67.8,49.9z"/>
								<path d="M67.8,50.2C67.7,50.3,67.7,50.3,67.8,50.2L67.8,50.2C67.7,50.3,67.7,50.2,67.8,50.2L67.8,50.2L67.8,50.2z"/>
								<path d="M67.8,49.2c0,0,0,0.1,0,0.1c0,0.1,0,0.1,0.1,0.2c0,0,0.1-0.1,0.1-0.2h0c0,0.1-0.1,0.2-0.1,0.2l0,0v0
									c0-0.1,0-0.1-0.1-0.2C67.8,49.3,67.8,49.3,67.8,49.2L67.8,49.2L67.8,49.2z"/>
								<path d="M68,49.2C68,49.3,68,49.3,68,49.2L68,49.2C68,49.3,67.9,49.3,68,49.2L68,49.2L68,49.2z"/>
								<path d="M68.4,49.3c0,0,0,0.1,0,0.2c0,0,0,0.1,0,0.1l0,0c0,0,0-0.1,0-0.1C68.4,49.4,68.4,49.4,68.4,49.3L68.4,49.3
									L68.4,49.3z"/>
								<path d="M68.8,49.4c-0.1,0-0.1,0.1-0.2,0.1c0,0-0.1,0.1-0.1,0.1l0,0c0,0,0.1-0.1,0.1-0.1C68.7,49.4,68.7,49.4,68.8,49.4
									L68.8,49.4L68.8,49.4z"/>
								<path d="M68.5,49.3C68.5,49.3,68.6,49.4,68.5,49.3L68.5,49.3C68.6,49.4,68.5,49.3,68.5,49.3L68.5,49.3L68.5,49.3z"/>
								<path d="M68.4,48.5L68.4,48.5c0.1,0.1,0.1,0.2,0.1,0.3l0,0C68.6,48.7,68.5,48.6,68.4,48.5L68.4,48.5L68.4,48.5L68.4,48.5z"
									/>
								<path d="M68.4,48.1C68.5,48.1,68.5,48.2,68.4,48.1L68.4,48.1c0.1,0.1,0.1,0.2,0.1,0.2c0,0.1,0,0.2,0,0.2l0,0
									c0,0,0-0.1,0-0.2C68.5,48.3,68.5,48.2,68.4,48.1L68.4,48.1C68.5,48.2,68.4,48.1,68.4,48.1L68.4,48.1L68.4,48.1z"/>
								<path d="M68.6,48.5C68.6,48.5,68.6,48.5,68.6,48.5c0,0.1,0,0.1,0,0.2h0C68.6,48.6,68.6,48.6,68.6,48.5
									C68.6,48.5,68.6,48.5,68.6,48.5L68.6,48.5L68.6,48.5z"/>
								<path d="M68.6,48.3c0-0.1,0-0.1,0-0.2c0,0,0-0.1,0-0.1l0,0c0,0,0,0.1,0,0.1C68.6,48.2,68.6,48.2,68.6,48.3L68.6,48.3
									L68.6,48.3z"/>
								<path d="M68.4,48C68.4,48,68.4,48,68.4,48C68.5,48,68.5,47.9,68.4,48L68.4,48C68.5,47.9,68.5,48,68.4,48
									C68.5,48,68.4,48,68.4,48L68.4,48L68.4,48z"/>
								<path d="M68.8,48.3C68.8,48.3,68.8,48.2,68.8,48.3c-0.1-0.1-0.1-0.1-0.1-0.2c0-0.1-0.1-0.1-0.1-0.1l0,0c0,0,0.1,0.1,0.1,0.1
									C68.8,48.1,68.8,48.2,68.8,48.3C68.8,48.2,68.8,48.2,68.8,48.3L68.8,48.3L68.8,48.3z"/>
								<path d="M68.8,48.1C68.8,48.1,68.8,48.1,68.8,48.1c0-0.1-0.1-0.1-0.1-0.1l0,0C68.8,48,68.8,48,68.8,48.1
									C68.8,48.1,68.9,48.1,68.8,48.1L68.8,48.1L68.8,48.1z"/>
								<path d="M69,48.1C69,48.2,69,48.2,69,48.1C69,48.2,69,48.2,69,48.1c0,0.1,0,0.2,0,0.2l0,0C69,48.3,69,48.3,69,48.1
									C69,48.2,69,48.2,69,48.1C69,48.2,69,48.2,69,48.1L69,48.1L69,48.1z"/>
								<path d="M69,48.2C69,48.2,69,48.1,69,48.2c0-0.1,0-0.2-0.1-0.2l0,0C69,48,69,48.1,69,48.2C69.1,48.1,69.1,48.2,69,48.2
									L69,48.2L69,48.2z"/>
								<path d="M69.1,48.3C69.1,48.3,69.1,48.3,69.1,48.3L69.1,48.3L69.1,48.3L69.1,48.3L69.1,48.3C69.1,48.3,69.1,48.3,69.1,48.3
									L69.1,48.3L69.1,48.3z"/>
								<path d="M69.2,48.4c0,0,0-0.1,0-0.1c0-0.1,0-0.1,0-0.1l0,0c0,0,0,0.1,0,0.1C69.3,48.4,69.3,48.4,69.2,48.4L69.2,48.4
									L69.2,48.4z"/>
								<path d="M69.3,48.4c0,0,0-0.1,0-0.1c0,0,0-0.1,0-0.1l0,0c0,0,0,0.1,0,0.1C69.3,48.4,69.3,48.4,69.3,48.4L69.3,48.4
									L69.3,48.4z"/>
								<path d="M69.5,48.3C69.5,48.3,69.5,48.3,69.5,48.3c-0.1-0.1-0.1-0.1-0.1-0.2l0,0C69.4,48.2,69.4,48.2,69.5,48.3
									C69.5,48.3,69.5,48.3,69.5,48.3L69.5,48.3L69.5,48.3z"/>
								<path d="M69.5,48.2C69.5,48.2,69.5,48.2,69.5,48.2L69.5,48.2C69.5,48.1,69.5,48.2,69.5,48.2L69.5,48.2L69.5,48.2z"/>
								<path d="M69.7,48.5c0,0,0-0.1-0.1-0.2c0-0.1-0.1-0.1-0.1-0.1l0,0c0,0,0.1,0.1,0.1,0.1C69.7,48.3,69.7,48.4,69.7,48.5
									L69.7,48.5L69.7,48.5z"/>
								<path d="M69.7,48.2C69.7,48.2,69.7,48.2,69.7,48.2C69.7,48.1,69.7,48.1,69.7,48.2L69.7,48.2C69.7,48.1,69.7,48.1,69.7,48.2
									C69.7,48.1,69.7,48.2,69.7,48.2L69.7,48.2L69.7,48.2z"/>
								<path d="M69.9,48.4c0,0,0-0.1-0.1-0.1c0,0,0-0.1,0-0.1c0,0,0-0.1,0-0.1h0c0,0,0,0,0,0.1c0,0,0,0,0,0.1
									C69.9,48.3,69.9,48.3,69.9,48.4L69.9,48.4L69.9,48.4z"/>
								<path d="M70,48.2C70,48.2,70,48.2,70,48.2c0,0.1,0,0.1,0,0.1l0,0C69.9,48.2,69.9,48.2,70,48.2C69.9,48.2,69.9,48.2,70,48.2
									L70,48.2L70,48.2z"/>
								<path d="M70,48.4C70,48.4,70,48.4,70,48.4C70,48.5,70,48.5,70,48.4L70,48.4C70,48.5,70,48.5,70,48.4
									C70,48.4,70,48.4,70,48.4L70,48.4L70,48.4z"/>
								<path d="M70.1,48.5C70.1,48.5,70.1,48.5,70.1,48.5c0-0.1,0-0.1,0-0.2c0,0,0-0.1,0-0.1l0,0c0,0,0,0,0,0.1
									C70.1,48.4,70.1,48.4,70.1,48.5C70.1,48.5,70.1,48.5,70.1,48.5L70.1,48.5L70.1,48.5z"/>
								<path d="M70.2,48.4C70.2,48.4,70.2,48.3,70.2,48.4C70.2,48.3,70.2,48.3,70.2,48.4L70.2,48.4C70.2,48.3,70.2,48.3,70.2,48.4
									C70.2,48.3,70.2,48.3,70.2,48.4L70.2,48.4L70.2,48.4z"/>
								<path d="M70.3,48.5C70.3,48.4,70.3,48.4,70.3,48.5c0-0.1-0.1-0.1-0.1-0.2l0,0C70.3,48.3,70.3,48.3,70.3,48.5
									C70.3,48.4,70.3,48.4,70.3,48.5L70.3,48.5L70.3,48.5z"/>
								<path d="M70.2,48.4C70.2,48.5,70.2,48.5,70.2,48.4c0,0.1,0.1,0.1,0.1,0.2h0C70.3,48.6,70.2,48.5,70.2,48.4
									C70.2,48.5,70.2,48.5,70.2,48.4L70.2,48.4L70.2,48.4z"/>
								<path d="M70.2,48.6C70.2,48.7,70.2,48.7,70.2,48.6c0,0.1,0,0.1,0,0.2c0,0.1,0,0.1,0,0.1l0,0c0,0,0-0.1,0-0.1
									C70.1,48.8,70.2,48.7,70.2,48.6C70.2,48.7,70.2,48.7,70.2,48.6L70.2,48.6L70.2,48.6z"/>
								<path d="M70.3,48.9C70.3,48.9,70.3,48.9,70.3,48.9c0.1,0.1,0.1,0.1,0.1,0.1l0,0C70.3,49,70.3,49,70.3,48.9
									C70.3,48.9,70.2,48.9,70.3,48.9L70.3,48.9L70.3,48.9z"/>
								<path d="M70.4,48.8C70.4,48.8,70.4,48.8,70.4,48.8C70.4,48.8,70.4,48.8,70.4,48.8L70.4,48.8C70.4,48.8,70.4,48.8,70.4,48.8
									C70.4,48.8,70.4,48.8,70.4,48.8L70.4,48.8L70.4,48.8z"/>
								<path d="M70.5,48.6c0,0,0.1,0.1,0.1,0.1l0,0C70.6,48.7,70.5,48.7,70.5,48.6L70.5,48.6L70.5,48.6z"/>
								<path d="M70.6,48.6C70.6,48.6,70.6,48.6,70.6,48.6C70.6,48.6,70.6,48.6,70.6,48.6c0,0.1,0.1,0.1,0.1,0.1l0,0
									C70.7,48.7,70.6,48.7,70.6,48.6C70.6,48.6,70.6,48.6,70.6,48.6C70.6,48.6,70.6,48.6,70.6,48.6L70.6,48.6L70.6,48.6z"/>
								<path d="M70.7,48.5C70.7,48.5,70.7,48.5,70.7,48.5L70.7,48.5L70.7,48.5L70.7,48.5L70.7,48.5L70.7,48.5
									C70.7,48.5,70.7,48.5,70.7,48.5L70.7,48.5L70.7,48.5z"/>
								<path d="M70.8,48.3C70.8,48.3,70.8,48.3,70.8,48.3C70.9,48.3,70.9,48.3,70.8,48.3L70.8,48.3C70.9,48.3,70.9,48.3,70.8,48.3
									C70.8,48.3,70.8,48.3,70.8,48.3L70.8,48.3L70.8,48.3z"/>
								<path d="M70.6,48.3C70.6,48.3,70.6,48.3,70.6,48.3C70.7,48.3,70.7,48.3,70.6,48.3c0,0.1,0,0.1,0,0.1l0,0
									C70.6,48.4,70.7,48.4,70.6,48.3C70.7,48.3,70.7,48.3,70.6,48.3C70.6,48.3,70.6,48.3,70.6,48.3L70.6,48.3L70.6,48.3z"/>
								<path d="M70.5,48.4C70.5,48.4,70.5,48.4,70.5,48.4L70.5,48.4C70.5,48.5,70.5,48.4,70.5,48.4L70.5,48.4L70.5,48.4z"/>
								<path d="M70.5,48.3C70.5,48.3,70.5,48.3,70.5,48.3C70.5,48.3,70.5,48.2,70.5,48.3L70.5,48.3C70.5,48.2,70.5,48.2,70.5,48.3
									C70.5,48.3,70.5,48.3,70.5,48.3L70.5,48.3L70.5,48.3z"/>
								<path d="M69.9,48.5C70,48.5,70,48.6,69.9,48.5c0.1,0.1,0.1,0.2,0.1,0.2v0v0c0,0,0,0-0.1,0c0,0.1,0,0.3-0.1,0.4l0,0l0,0
									c0,0,0-0.1,0-0.2l0,0c0,0.1,0,0.2,0,0.2C70,49,70,48.7,70,48.7v0l0,0c0,0,0.1,0,0.1,0c0,0,0-0.1,0-0.1
									C70,48.6,70,48.5,69.9,48.5L69.9,48.5L69.9,48.5z"/>
								<path d="M69.9,48.6C69.8,48.7,69.9,48.7,69.9,48.6L69.9,48.6C69.8,48.7,69.8,48.7,69.9,48.6L69.9,48.6L69.9,48.6z"/>
								<path d="M69.7,48.7C69.7,48.7,69.7,48.7,69.7,48.7c-0.1,0.1-0.1,0.2-0.1,0.2c0,0.1,0,0.2,0,0.2l0,0l0,0c0,0-0.1-0.1-0.1-0.2
									c0-0.1,0-0.1,0-0.2c0,0,0,0,0-0.1h0c0,0,0,0,0,0c0,0,0,0.1,0,0.2c0,0.1,0.1,0.1,0.1,0.2c0,0,0-0.1,0-0.2
									C69.6,48.8,69.7,48.8,69.7,48.7C69.7,48.7,69.7,48.7,69.7,48.7L69.7,48.7L69.7,48.7z"/>
								<path d="M69.4,48.9C69.4,48.9,69.3,48.9,69.4,48.9c0,0.1-0.1,0.1-0.1,0.2C69.3,49,69.4,49,69.4,48.9L69.4,48.9
									c0,0.2-0.1,0.2-0.1,0.2l0,0l0,0C69.3,49,69.3,49,69.4,48.9C69.3,48.9,69.3,48.9,69.4,48.9L69.4,48.9L69.4,48.9z"/>
								<path d="M69.5,48.4C69.5,48.5,69.5,48.5,69.5,48.4C69.5,48.5,69.5,48.5,69.5,48.4L69.5,48.4C69.5,48.5,69.5,48.5,69.5,48.4
									C69.5,48.5,69.5,48.5,69.5,48.4L69.5,48.4L69.5,48.4z"/>
								<path d="M69.4,48.5C69.3,48.5,69.4,48.6,69.4,48.5L69.4,48.5C69.4,48.6,69.3,48.5,69.4,48.5L69.4,48.5L69.4,48.5z"/>
								<path d="M69.2,48.5C69.2,48.5,69.2,48.5,69.2,48.5c0.1,0.1,0.1,0.1,0.1,0.2c0,0.1,0,0.1,0,0.1h0c0,0,0,0,0-0.1
									C69.2,48.6,69.2,48.6,69.2,48.5C69.2,48.5,69.2,48.5,69.2,48.5L69.2,48.5L69.2,48.5z"/>
								<path d="M69.1,48.7C69.1,48.7,69.1,48.7,69.1,48.7c0,0.1,0,0.2,0,0.2c0,0,0,0,0,0c0,0-0.1,0.1-0.1,0.2c0,0,0.1-0.1,0.2-0.1
									c0,0,0.1,0,0.1,0c0,0,0,0,0,0l0,0c0,0,0,0,0,0h0l0,0c0,0,0,0-0.1,0.1c-0.1,0-0.2,0.1-0.2,0.1l0,0v0c0-0.1,0.1-0.1,0.1-0.2
									c0,0,0,0,0,0C69.1,48.8,69.1,48.8,69.1,48.7C69.1,48.7,69.1,48.7,69.1,48.7L69.1,48.7L69.1,48.7z"/>
								<path d="M69,48.7C69,48.8,69,48.8,69,48.7L69,48.7C69,48.8,69,48.8,69,48.7L69,48.7L69,48.7z"/>
								<path d="M69,48.6c0,0,0-0.1,0-0.1c0,0,0-0.1-0.1-0.1c0,0,0,0.1-0.1,0.2c0,0.1-0.1,0.2-0.1,0.2l0,0v0c0,0,0-0.2-0.1-0.3l0,0
									c0.1,0.1,0.1,0.2,0.1,0.3c0,0,0.1-0.1,0.1-0.2c0-0.1,0.1-0.2,0.1-0.2l0,0l0,0c0,0,0.1,0.1,0.1,0.1C69,48.5,69,48.6,69,48.6
									L69,48.6L69,48.6z"/>
								<path d="M68.7,48.3c0,0.1,0.1,0.1,0.1,0.1l0,0C68.8,48.4,68.7,48.3,68.7,48.3L68.7,48.3L68.7,48.3z"/>
								<path d="M68.6,48.8c0,0,0,0.1,0,0.1c0,0,0,0.1,0,0.1c0,0,0,0.1,0,0.1h0c0,0,0,0,0-0.1C68.6,48.9,68.6,48.9,68.6,48.8
									C68.6,48.8,68.6,48.8,68.6,48.8L68.6,48.8L68.6,48.8z"/>
								<path d="M68.6,49.1c0,0,0-0.1,0.1-0.1c0,0,0,0,0,0c0,0,0.1-0.1,0.1-0.1l0,0c0,0,0,0.1-0.1,0.2c0,0,0,0,0,0
									C68.6,49.1,68.6,49.1,68.6,49.1L68.6,49.1L68.6,49.1z"/>
								<path d="M68.7,49.3C68.7,49.3,68.7,49.3,68.7,49.3c0-0.1,0-0.1,0.1-0.2c0.1-0.1,0.1-0.1,0.1-0.1l0,0c0,0,0,0-0.1,0.1
									C68.7,49.2,68.7,49.2,68.7,49.3C68.7,49.3,68.7,49.3,68.7,49.3L68.7,49.3L68.7,49.3z"/>
								<path d="M68.8,49.3C68.8,49.2,68.8,49.2,68.8,49.3c0-0.1,0-0.1,0-0.1l0,0C68.9,49.2,68.9,49.2,68.8,49.3
									C68.9,49.2,68.9,49.2,68.8,49.3L68.8,49.3L68.8,49.3z"/>
								<path d="M69.2,49.1C69.2,49.1,69.1,49.1,69.2,49.1c-0.1,0.1-0.2,0.2-0.2,0.3c-0.1,0.1,0,0.3,0,0.3l0,0c0,0,0-0.1,0-0.3
									C69,49.3,69,49.2,69.2,49.1C69.1,49.1,69.2,49.1,69.2,49.1L69.2,49.1L69.2,49.1z"/>
								<path d="M68.9,49.7C68.9,49.7,68.9,49.6,68.9,49.7c0.1-0.1,0.1-0.1,0.1-0.1c0.1,0,0.1-0.1,0.1-0.2c0,0,0,0,0,0l0,0
									c0,0,0.1,0,0.1,0v0c0,0,0,0-0.1,0l0,0c0,0,0,0,0,0c0,0.1-0.1,0.1-0.1,0.2C68.9,49.6,68.9,49.6,68.9,49.7
									C68.9,49.7,68.9,49.7,68.9,49.7L68.9,49.7L68.9,49.7z"/>
								<path d="M68.7,49.6C68.8,49.6,68.8,49.6,68.7,49.6c0.1-0.1,0.1-0.1,0.2-0.1l0,0C68.9,49.5,68.8,49.5,68.7,49.6
									C68.8,49.6,68.8,49.6,68.7,49.6L68.7,49.6L68.7,49.6z"/>
								<path d="M69,49.7C69,49.8,69,49.8,69,49.7c0,0.1,0,0.1,0,0.1l0,0C68.9,49.8,68.9,49.8,69,49.7C68.9,49.8,68.9,49.8,69,49.7
									L69,49.7L69,49.7z"/>
								<path d="M69.1,49.9c0,0,0,0.1,0,0.1h0C69,50.1,69,50,69.1,49.9L69.1,49.9L69.1,49.9z"/>
								<path d="M68.6,50.4C68.6,50.4,68.6,50.4,68.6,50.4L68.6,50.4C68.6,50.4,68.6,50.4,68.6,50.4L68.6,50.4L68.6,50.4z"/>
								<path d="M68.4,50.5C68.5,50.5,68.5,50.5,68.4,50.5C68.5,50.4,68.5,50.4,68.4,50.5L68.4,50.5C68.5,50.4,68.5,50.4,68.4,50.5
									C68.5,50.5,68.5,50.5,68.4,50.5L68.4,50.5L68.4,50.5z"/>
								<path d="M69.1,49.8C69.1,49.8,69.1,49.8,69.1,49.8L69.1,49.8C69.2,49.8,69.2,49.7,69.1,49.8L69.1,49.8
									C69.2,49.8,69.2,49.8,69.1,49.8L69.1,49.8C69.1,49.8,69.1,49.8,69.1,49.8L69.1,49.8L69.1,49.8z"/>
								<path d="M69.3,49.8c0,0-0.1-0.1-0.1-0.1c0,0,0-0.1,0-0.1c0,0-0.1,0.1-0.2,0.2l0,0c0.1-0.1,0.2-0.2,0.2-0.2l0,0l0,0
									c0,0,0,0.1,0,0.1C69.3,49.7,69.3,49.8,69.3,49.8L69.3,49.8L69.3,49.8z"/>
								<path d="M69.1,49.5c0,0,0,0.1,0,0.1c0,0,0,0,0,0c0,0,0,0,0,0l0,0c0,0,0,0,0,0c0,0,0,0,0,0C69.1,49.6,69.1,49.5,69.1,49.5
									L69.1,49.5L69.1,49.5z"/>
								<path d="M69.5,49.6C69.5,49.7,69.5,49.7,69.5,49.6c-0.1,0.1-0.1,0.1-0.1,0.1l0,0C69.4,49.8,69.4,49.7,69.5,49.6
									C69.5,49.7,69.5,49.6,69.5,49.6L69.5,49.6L69.5,49.6z"/>
								<path d="M69.4,49.6C69.4,49.6,69.4,49.6,69.4,49.6C69.4,49.5,69.4,49.5,69.4,49.6L69.4,49.6C69.4,49.5,69.4,49.5,69.4,49.6
									C69.4,49.6,69.4,49.6,69.4,49.6L69.4,49.6L69.4,49.6z"/>
								<path d="M69.6,49.6C69.6,49.6,69.6,49.6,69.6,49.6C69.6,49.6,69.6,49.6,69.6,49.6L69.6,49.6C69.6,49.6,69.6,49.6,69.6,49.6
									C69.6,49.6,69.6,49.6,69.6,49.6L69.6,49.6L69.6,49.6z"/>
								<path d="M69.6,49.7C69.6,49.8,69.6,49.8,69.6,49.7C69.6,49.8,69.6,49.8,69.6,49.7c0,0.1,0,0.2,0,0.2l0,0
									C69.6,49.9,69.6,49.9,69.6,49.7C69.6,49.8,69.6,49.8,69.6,49.7C69.6,49.8,69.6,49.8,69.6,49.7L69.6,49.7L69.6,49.7z"/>
								<path d="M69.7,49.9C69.7,49.9,69.7,49.9,69.7,49.9C69.7,49.9,69.7,49.9,69.7,49.9c0,0.1-0.1,0.1-0.1,0.1l0,0
									C69.7,50,69.7,50,69.7,49.9C69.7,49.9,69.7,49.9,69.7,49.9C69.7,49.9,69.7,49.9,69.7,49.9L69.7,49.9L69.7,49.9z"/>
								<path d="M69.8,50C69.8,50,69.7,50,69.8,50c-0.1,0.1-0.1,0.1-0.1,0.1L69.8,50C69.7,50,69.7,50,69.8,50
									C69.7,50,69.7,50,69.8,50L69.8,50L69.8,50z"/>
								<path d="M69.8,50.2c0,0.1-0.1,0.1-0.1,0.1l0,0C69.7,50.3,69.7,50.2,69.8,50.2L69.8,50.2L69.8,50.2z"/>
								<path d="M69.7,50.4c0,0-0.1,0.1-0.1,0.1l0,0C69.5,50.5,69.6,50.4,69.7,50.4L69.7,50.4L69.7,50.4z"/>
								<path d="M69.8,50.2C69.8,50.2,69.8,50.2,69.8,50.2L69.8,50.2C69.9,50.2,69.8,50.2,69.8,50.2L69.8,50.2L69.8,50.2z"/>
								<path d="M69.9,50C69.9,50.1,69.9,50.1,69.9,50c0,0.1,0,0.2,0,0.2l0,0C69.9,50.2,69.9,50.2,69.9,50
									C69.9,50.1,69.9,50.1,69.9,50L69.9,50L69.9,50z"/>
								<path d="M70.1,49.9c0,0.1-0.1,0.1-0.1,0.1l0,0C70,50.1,70.1,50,70.1,49.9L70.1,49.9L70.1,49.9z"/>
								<path d="M69.9,50C69.9,50,69.9,49.9,69.9,50L69.9,50C69.9,49.9,69.9,50,69.9,50L69.9,50L69.9,50z"/>
								<path d="M70.3,49.6C70.3,49.6,70.3,49.6,70.3,49.6C70.3,49.6,70.3,49.6,70.3,49.6L70.3,49.6C70.3,49.6,70.3,49.6,70.3,49.6
									C70.3,49.6,70.3,49.6,70.3,49.6L70.3,49.6L70.3,49.6z"/>
								<path d="M70.2,49.5C70.2,49.5,70.2,49.5,70.2,49.5c0,0.1,0,0.1,0,0.2c0,0.1,0,0.1,0,0.1c0,0,0,0,0,0c0,0,0,0,0,0l0,0
									c0,0,0,0,0,0c0,0,0,0,0,0c0,0,0,0,0-0.1C70.1,49.6,70.1,49.6,70.2,49.5C70.2,49.5,70.2,49.5,70.2,49.5L70.2,49.5L70.2,49.5z
									"/>
								<path d="M70.3,49.4C70.3,49.4,70.3,49.4,70.3,49.4C70.4,49.4,70.4,49.4,70.3,49.4l0.1,0C70.4,49.4,70.4,49.4,70.3,49.4
									C70.3,49.4,70.3,49.4,70.3,49.4L70.3,49.4L70.3,49.4z"/>
								<path d="M70.3,49.1c0,0,0.1,0.1,0.1,0.1l0,0C70.4,49.3,70.3,49.2,70.3,49.1L70.3,49.1L70.3,49.1z"/>
								<path d="M70.2,49.3C70.2,49.3,70.2,49.4,70.2,49.3l0,0.1C70.2,49.4,70.2,49.3,70.2,49.3L70.2,49.3L70.2,49.3z"/>
								<path d="M70,49.1c0,0,0,0.1,0,0.1c0,0,0,0.1,0,0.1c0,0,0-0.1,0-0.1C70.1,49.2,70.1,49.2,70,49.1c0.1,0.1,0.1,0,0.1,0
									c0,0,0,0,0,0l0,0c0,0,0,0,0,0.1c0,0,0,0,0,0.1c0,0,0,0,0,0c0,0.1-0.1,0.1-0.1,0.1l0,0l0,0c0,0,0-0.1,0-0.1
									C70,49.2,70,49.1,70,49.1L70,49.1L70,49.1z"/>
								<path d="M70,49.5C70,49.5,70,49.5,70,49.5c0,0.1,0,0.1,0,0.2l0,0C70.1,49.6,70,49.6,70,49.5C70,49.5,70,49.5,70,49.5
									L70,49.5L70,49.5z"/>
								<path d="M69.9,49.4c0,0,0,0.1,0,0.1c0,0,0,0.1,0,0.1c0,0,0,0,0,0.1c0,0,0-0.1,0.1-0.1l0,0c0,0-0.1,0.1-0.1,0.1l0,0l0,0
									c0,0,0,0,0-0.1c0,0,0,0,0-0.1C69.9,49.5,69.9,49.5,69.9,49.4L69.9,49.4L69.9,49.4z"/>
								<path d="M69.7,49.7C69.7,49.7,69.7,49.7,69.7,49.7C69.7,49.6,69.7,49.6,69.7,49.7c0-0.1,0.1-0.1,0.1-0.1l0,0
									C69.7,49.6,69.7,49.6,69.7,49.7C69.7,49.6,69.7,49.6,69.7,49.7C69.7,49.7,69.7,49.7,69.7,49.7L69.7,49.7L69.7,49.7z"/>
								<path d="M69.8,49.7C69.8,49.8,69.8,49.8,69.8,49.7L69.8,49.7L69.8,49.7L69.8,49.7L69.8,49.7L69.8,49.7
									C69.8,49.8,69.8,49.8,69.8,49.7L69.8,49.7L69.8,49.7z"/>
								<path d="M69.7,49.4C69.7,49.4,69.7,49.3,69.7,49.4c0-0.1,0-0.1,0-0.1c0-0.1,0-0.1,0-0.1h0c0,0,0,0,0,0.1
									C69.7,49.3,69.7,49.3,69.7,49.4C69.7,49.3,69.7,49.4,69.7,49.4L69.7,49.4L69.7,49.4z"/>
								<path d="M69.9,49.2C69.9,49.2,69.9,49.2,69.9,49.2C69.9,49.2,69.9,49.3,69.9,49.2C69.9,49.3,69.9,49.3,69.9,49.2L69.9,49.2
									L69.9,49.2L69.9,49.2C69.9,49.3,69.9,49.3,69.9,49.2L69.9,49.2C69.9,49.3,69.9,49.3,69.9,49.2
									C69.9,49.3,69.9,49.2,69.9,49.2C69.9,49.2,69.9,49.2,69.9,49.2L69.9,49.2L69.9,49.2z"/>
								<path d="M69.5,49.1L69.5,49.1L69.5,49.1C69.6,49.2,69.6,49.2,69.5,49.1C69.6,49.2,69.6,49.2,69.5,49.1L69.5,49.1
									C69.6,49.2,69.6,49.2,69.5,49.1C69.6,49.2,69.6,49.2,69.5,49.1L69.5,49.1L69.5,49.1L69.5,49.1L69.5,49.1z"/>
								<path d="M69.4,49.2C69.4,49.2,69.4,49.2,69.4,49.2c0.1,0.1,0.1,0.2,0.1,0.3l0,0l0,0c0,0,0-0.1-0.2-0.2l0,0
									c0.1,0,0.1,0.1,0.2,0.2C69.5,49.3,69.5,49.3,69.4,49.2C69.4,49.2,69.4,49.2,69.4,49.2L69.4,49.2L69.4,49.2z"/>
								<path d="M67.3,49.9C67.3,49.9,67.3,49.9,67.3,49.9C67.3,50,67.3,50,67.3,49.9L67.3,49.9C67.3,50,67.3,50,67.3,49.9
									C67.2,49.9,67.2,49.9,67.3,49.9L67.3,49.9L67.3,49.9z"/>
								<path d="M67.3,49.5C67.3,49.5,67.3,49.4,67.3,49.5L67.3,49.5C67.3,49.4,67.3,49.5,67.3,49.5L67.3,49.5L67.3,49.5z"/>
								<path d="M67.5,46.7c0.1-0.1,0.1-0.1,0.3-0.2c0.1-0.1,0.3-0.1,0.6-0.1c0.5,0,0.6,0.1,0.6,0.1l0,0c0,0-0.1-0.1-0.6-0.1
									c-0.2,0-0.4,0-0.5,0.1C67.7,46.5,67.6,46.6,67.5,46.7L67.5,46.7L67.5,46.7z"/>
								<path d="M67.9,46.6C67.9,46.6,67.9,46.6,67.9,46.6c-0.1-0.1-0.2-0.1-0.2-0.1v0C67.8,46.5,67.8,46.5,67.9,46.6
									C67.9,46.6,67.9,46.6,67.9,46.6L67.9,46.6L67.9,46.6z"/>
								<path d="M68.2,46.6c0,0,0-0.1-0.1-0.1c0,0-0.1-0.1-0.1-0.1l0,0c0,0,0.1,0,0.1,0.1C68.2,46.5,68.2,46.6,68.2,46.6L68.2,46.6
									L68.2,46.6z"/>
								<path d="M68,46.4C68,46.4,68,46.4,68,46.4c-0.1-0.1-0.2-0.1-0.2-0.1v0C67.9,46.3,67.9,46.3,68,46.4C68,46.3,68,46.4,68,46.4
									L68,46.4L68,46.4z"/>
								<path d="M68.3,46.4c0,0,0-0.1,0-0.1c0,0,0-0.1-0.1-0.1l0,0c0,0,0.1,0,0.1,0.1C68.3,46.3,68.3,46.4,68.3,46.4L68.3,46.4
									L68.3,46.4z"/>
								<path d="M68.6,46.4C68.6,46.4,68.6,46.4,68.6,46.4c0-0.1,0-0.1,0-0.1c0,0,0-0.1,0-0.1c0,0,0,0,0,0l0,0c0,0,0,0,0,0
									c0,0,0,0,0,0.1C68.6,46.3,68.6,46.3,68.6,46.4C68.6,46.4,68.6,46.4,68.6,46.4L68.6,46.4L68.6,46.4z"/>
								<path d="M68.9,46.5c0,0,0.1-0.1,0.1-0.1c0,0,0-0.1,0-0.1l0,0c0,0,0,0.1,0,0.1C68.9,46.4,68.9,46.5,68.9,46.5L68.9,46.5
									L68.9,46.5z"/>
								<path d="M69.3,46.4C69.3,46.4,69.3,46.4,69.3,46.4C69.3,46.5,69.3,46.5,69.3,46.4c0,0.1-0.1,0.2-0.1,0.2c0,0,0,0,0,0v0
									c0,0,0,0,0,0C69.2,46.6,69.2,46.5,69.3,46.4C69.2,46.5,69.3,46.5,69.3,46.4L69.3,46.4L69.3,46.4L69.3,46.4z"/>
								<path d="M69.5,46.5C69.5,46.5,69.5,46.5,69.5,46.5c0,0.1,0,0.1,0,0.1c0,0,0,0-0.1,0.1c0,0,0,0,0,0v0c0,0,0,0,0,0
									c0,0,0,0,0.1-0.1C69.4,46.6,69.5,46.6,69.5,46.5C69.4,46.5,69.4,46.5,69.5,46.5L69.5,46.5L69.5,46.5z"/>
								<path d="M69.7,46.6c0,0,0,0.1,0,0.1c0,0,0,0-0.1,0.1l0,0c0,0,0,0,0.1-0.1C69.7,46.7,69.7,46.7,69.7,46.6L69.7,46.6
									L69.7,46.6z"/>
								<path d="M69.9,46.6C69.9,46.7,69.9,46.7,69.9,46.6c0,0.1,0,0.1-0.1,0.1l0,0C69.9,46.8,69.9,46.7,69.9,46.6
									C69.9,46.7,69.9,46.7,69.9,46.6L69.9,46.6L69.9,46.6z"/>
								<path d="M68.4,46.4C68.4,46.4,68.4,46.4,68.4,46.4c0.1,0.1,0.1,0.1,0.1,0.2c0,0,0,0.1,0,0.1c0,0,0,0,0,0l0,0c0,0,0,0,0,0
									c0,0,0-0.1,0-0.1C68.5,46.5,68.5,46.5,68.4,46.4C68.4,46.4,68.4,46.4,68.4,46.4L68.4,46.4L68.4,46.4z"/>
								<path d="M68.8,46.4c0,0.1,0.1,0.1,0.1,0.2c0,0,0,0.1-0.1,0.1l0,0c0.1,0,0.1-0.1,0.1-0.1C68.9,46.6,68.8,46.5,68.8,46.4
									L68.8,46.4L68.8,46.4z"/>
								<path d="M69.2,46.7c0,0.1,0,0.1-0.1,0.2c-0.1,0-0.1,0-0.1,0l0,0c0,0,0.1,0,0.1,0C69.1,46.8,69.2,46.8,69.2,46.7L69.2,46.7
									L69.2,46.7z"/>
								<path d="M69.4,46.9C69.4,46.9,69.4,47,69.4,46.9c0,0.1,0,0.1,0,0.1c0,0,0,0-0.1,0c0,0-0.1,0-0.1,0l0,0c0,0,0.1,0,0.1,0
									c0,0,0,0,0.1,0C69.4,47,69.4,47,69.4,46.9C69.4,47,69.4,46.9,69.4,46.9L69.4,46.9L69.4,46.9z"/>
								<path d="M69.8,47.1C69.8,47.2,69.8,47.2,69.8,47.1C69.8,47.2,69.8,47.2,69.8,47.1C69.7,47.2,69.7,47.2,69.8,47.1
									c-0.1,0.1-0.2,0.1-0.2,0.1v0C69.6,47.3,69.7,47.2,69.8,47.1C69.7,47.2,69.7,47.2,69.8,47.1C69.8,47.2,69.8,47.2,69.8,47.1
									L69.8,47.1C69.8,47.2,69.8,47.2,69.8,47.1L69.8,47.1L69.8,47.1z"/>
								<path d="M70,47.2C70,47.2,70,47.2,70,47.2C70,47.3,70,47.3,70,47.2c0,0.1-0.1,0.1-0.1,0.2c0,0,0,0,0,0l0,0c0,0,0,0,0,0
									C69.9,47.4,69.9,47.3,70,47.2C70,47.3,70,47.3,70,47.2C70,47.2,70,47.2,70,47.2L70,47.2L70,47.2z"/>
								<path d="M70.2,47.3C70.2,47.3,70.2,47.3,70.2,47.3C70.2,47.3,70.2,47.3,70.2,47.3c0,0.1,0,0.1-0.1,0.1c0,0,0,0-0.1,0l0,0
									c0,0,0,0,0.1,0C70.2,47.4,70.2,47.4,70.2,47.3C70.2,47.3,70.2,47.3,70.2,47.3C70.2,47.3,70.2,47.3,70.2,47.3L70.2,47.3
									L70.2,47.3z"/>
							</g>
						</g>
						<g>
							
								<polygon fill-rule="evenodd" clip-rule="evenodd" fill="#F7DB17" stroke="#000000" stroke-width="2.145400e-02" stroke-miterlimit="2.4142" points="
								74.8,46 75.5,46.2 76,45.8 76.1,46.4 76.8,46.7 76.3,47.2 76.4,47.8 75.8,47.6 75.2,48.1 75.1,47.4 74.4,47.2 74.9,46.7 
								74.8,46 							"/>
							<polygon points="74.8,46 76.4,47.8 76.4,47.9 74.8,46 74.8,46 							"/>
							<polygon points="74.4,47.1 76.8,46.7 76.8,46.7 74.4,47.2 74.4,47.1 							"/>
							<polygon points="75.2,48.1 76,45.8 76,45.8 75.2,48.1 75.2,48.1 							"/>
							<polygon points="75.5,46.2 75.8,47.6 75.7,47.6 75.5,46.2 75.5,46.2 							"/>
							<polygon points="75.1,47.4 76.1,46.4 76.2,46.5 75.1,47.4 75.1,47.4 							"/>
							<polygon points="74.9,46.7 76.3,47.1 76.3,47.2 74.9,46.7 74.9,46.7 							"/>
						</g>
						<g>
							<path fill-rule="evenodd" clip-rule="evenodd" d="M72.3,49.7c0.1,0,0.1,0,0.2-0.1c0-0.1,0-0.1,0.1-0.1
								c0.1,0.1,0.1,0.1,0.1,0.1c0.1,0,0.1,0.1,0.1,0.1c0.1,0,0.1,0,0.1,0c0,0,0,0.1,0,0.1c0,0,0.1,0.1,0.1,0.1c0,0,0.1,0,0.2,0
								c0.1,0,0.4,0.2,0.5,0.3c0.1,0.1,0.3,0.1,0.4,0.1c0.1,0,0.1,0.1,0.3,0.1c0.2,0,0.6-0.1,1,0.2c0,0,0.2,0.1,0.4,0.1
								c0.2,0,0.4,0.1,0.6,0.1c0.2,0.1,0.3,0.2,0.2,0.3c-0.1,0.1-0.3,0.1-0.4,0c-0.1,0-0.2-0.1-0.3-0.2c-0.1-0.1-0.3-0.2-0.4-0.2
								c-0.1,0-0.1,0-0.1,0.1c0.1,0.1,0,0.2,0,0.3c0,0.1,0.1,0.1,0.2,0.1c0.1,0,0.1,0,0.1,0.2c0,0.1,0.1,0.1,0.1,0.2
								c0.1,0,0,0.1-0.1,0.2S75.8,52,75.7,52c-0.1,0-0.2,0-0.2-0.1c0-0.1,0.1,0,0.2-0.1c0.1-0.1,0.1-0.1,0-0.1c0,0-0.2-0.1-0.3-0.2
								c-0.1-0.1-0.2-0.1-0.3-0.1c-0.1,0-0.1-0.1-0.2-0.1c-0.1,0-0.1,0-0.2,0.1c-0.1,0-0.2,0-0.2,0c-0.1,0-0.2,0-0.2,0
								c-0.1,0-0.1,0-0.2,0c-0.1-0.1-0.2-0.1-0.1-0.1c0.1,0,0.1,0,0.2,0c0.1,0,0.2,0,0.2-0.1c0,0-0.1,0-0.1-0.1
								c-0.1,0-0.2-0.1-0.3-0.1c-0.1,0-0.1,0.1-0.2,0.1c-0.1,0-0.2,0-0.3,0c-0.1,0-0.1,0-0.2,0S73.1,51,73,51
								c-0.1,0-0.1-0.1-0.2-0.1c-0.1,0-0.1-0.1-0.1-0.1c0.1,0,0.1,0,0.2,0c0.1,0,0.1,0,0.2,0c0.1,0,0.1,0,0.2-0.1c0,0-0.1,0-0.1-0.1
								c0,0-0.1,0-0.1-0.1c-0.1,0-0.2-0.1-0.2-0.1c-0.1,0-0.1,0-0.2,0c-0.1,0-0.2,0-0.2,0c-0.1,0-0.1,0.1-0.2,0
								c0-0.1-0.2-0.1-0.2-0.2c0-0.1,0.2,0,0.2,0c0.1,0,0.2-0.1,0.2,0c0.1,0,0.1,0,0.2,0c0-0.1-0.1-0.1-0.1-0.2s-0.1-0.2-0.2-0.2
								c-0.1,0-0.3-0.2-0.3-0.2c0-0.1,0.1,0,0.1-0.1C72.2,49.7,72.2,49.7,72.3,49.7L72.3,49.7z"/>
							<path fill-rule="evenodd" clip-rule="evenodd" fill="#F4F4F4" d="M74.3,51C74.3,51,74.3,51,74.3,51c-0.1,0-0.2-0.1-0.3-0.1
								c0,0,0,0,0,0c0,0,0.1-0.1,0.3,0c0.1,0,0.2,0,0.3,0.1c0.1,0,0.2,0.1,0.2,0.1c0,0.1-0.1,0-0.1,0C74.5,51,74.4,51,74.3,51
								L74.3,51z"/>
						</g>
						<g>
							
								<polygon fill-rule="evenodd" clip-rule="evenodd" fill="#F7DB17" stroke="#000000" stroke-width="2.145400e-02" stroke-miterlimit="2.4142" points="
								51.5,46.9 50.8,47.1 50.3,46.6 50.2,47.3 49.5,47.6 50,48 49.9,48.7 50.6,48.5 51.1,48.9 51.2,48.3 51.9,48 51.4,47.6 
								51.5,46.9 							"/>
							<polygon points="51.5,46.9 49.9,48.7 49.9,48.7 51.5,46.9 51.5,46.9 							"/>
							<polygon points="51.9,48 49.5,47.5 49.5,47.6 51.9,48 51.9,48 							"/>
							<polygon points="51.1,48.9 50.3,46.6 50.3,46.6 51.1,48.9 51.1,48.9 							"/>
							<polygon points="50.8,47.1 50.5,48.5 50.6,48.5 50.8,47.1 50.8,47.1 							"/>
							<polygon points="51.2,48.2 50.2,47.3 50.2,47.3 51.2,48.3 51.2,48.2 							"/>
							<polygon points="51.4,47.5 50,48 50,48 51.4,47.6 51.4,47.5 							"/>
						</g>
						
							<path fill-rule="evenodd" clip-rule="evenodd" fill="#F4F4F4" stroke="#000000" stroke-width="2.145400e-02" stroke-miterlimit="2.4142" d="
							M53.3,49.5c0.1,0.3,0.2,0.5,0.2,0.9c0,1-0.9,1.9-1.9,1.9c-0.9,0-1.7-0.7-1.9-1.6c0.3,0.6,1,1.1,1.7,1.1c1,0,1.9-0.9,1.9-1.9
							C53.3,49.7,53.3,49.6,53.3,49.5L53.3,49.5z"/>
					</g>
				</g>
				
					<use xlink:href="#SVGID_1_"  overflow="visible" fill-rule="evenodd" clip-rule="evenodd" fill="none" stroke="#F4F4F4" stroke-width="0.2684" stroke-miterlimit="2.4142"/>
			</g>
			
				<path fill-rule="evenodd" clip-rule="evenodd" fill="#FFFFFF" stroke="#F0120D" stroke-width="0.8949" stroke-miterlimit="2.4142" d="
				M50.2,55.8c4.3,0,8.5,0,12.8,0c4.3,0,8.5,0,12.8,0c0,5.4,0,10.7,0,16.1c0,6-5.8,12-12.8,12c-6.9,0-12.8-5.9-12.8-12
				C50.2,66.5,50.2,61.1,50.2,55.8L50.2,55.8z"/>
			<g>
				<defs>
					<path id="SVGID_3_" d="M50.2,55.8c4.3,0,8.5,0,12.8,0c4.3,0,8.5,0,12.8,0c0,5.4,0,10.7,0,16.1c0,6-5.8,12-12.8,12
						c-6.9,0-12.8-5.9-12.8-12C50.2,66.5,50.2,61.1,50.2,55.8L50.2,55.8z"/>
				</defs>
				<use xlink:href="#SVGID_3_"  overflow="visible" fill-rule="evenodd" clip-rule="evenodd" fill="#F4F4F4"/>
				<clipPath id="SVGID_4_">
					<use xlink:href="#SVGID_3_"  overflow="visible"/>
				</clipPath>
				<polygon clip-path="url(#SVGID_4_)" fill-rule="evenodd" clip-rule="evenodd" fill="#F90805" points="75.6,55.9 70.6,55.9 
					70.6,61.5 65.5,61.5 65.5,55.9 60.5,55.9 60.5,61.5 55.5,61.5 55.5,55.9 50.4,55.9 50.4,61.5 55.5,61.5 55.5,67.1 60.5,67.1 
					60.5,72.7 60.5,78.3 65.5,78.3 65.5,72.7 65.5,67.1 60.5,67.1 60.5,61.5 65.5,61.5 65.5,67.1 70.6,67.1 70.6,72.7 70.6,78.3 
					75.6,78.3 75.6,83.8 70.6,83.8 70.6,78.3 65.5,78.3 65.5,83.8 60.5,83.8 60.5,78.3 55.5,78.3 55.5,83.8 50.4,83.8 50.4,78.3 
					55.5,78.3 55.5,72.7 50.4,72.7 50.4,67.1 55.5,67.1 55.5,72.7 60.5,72.7 65.5,72.7 70.6,72.7 75.6,72.7 75.6,67.1 70.6,67.1 
					70.6,61.5 75.6,61.5 75.6,55.9 				"/>
				
					<use xlink:href="#SVGID_3_"  overflow="visible" fill-rule="evenodd" clip-rule="evenodd" fill="none" stroke="#F4F4F4" stroke-width="0.4295" stroke-miterlimit="2.4142"/>
			</g>
		</g>
	</g>
	<path opacity="0.35" fill="#FFFFFF" d="M13,29.7v25.5C26.2,62.6,43.7,67,63,67s36.8-4.5,50-11.8V29.7H13z"/>
</g>
</svg>
