<?xml version="1.0" encoding="utf-8"?>
<!-- Generator: Adobe Illustrator 24.3.0, SVG Export Plug-In . SVG Version: 6.00 Build 0)  -->
<svg version="1.1" id="Layer_1" xmlns="http://www.w3.org/2000/svg" xmlns:xlink="http://www.w3.org/1999/xlink" x="0px" y="0px"
	 viewBox="0 0 126 126" enable-background="new 0 0 126 126" xml:space="preserve">
<g>
	<g>
		<path fill-rule="evenodd" clip-rule="evenodd" fill="#0437A0" d="M13,96.3h100V83H36.1L13,96.3L13,96.3z M113,69.7V56.3H59.2
			L70.7,63l-11.5,6.7H113L113,69.7z M113,43V29.7H13L36.1,43H113L113,43z"/>
		<polygon fill-rule="evenodd" clip-rule="evenodd" fill="#F90805" points="13,29.7 13,96.3 70.7,63 13,29.7 		"/>
		<path fill-rule="evenodd" clip-rule="evenodd" fill="#F0F0F0" d="M36.1,83H113V69.7H59.2L36.1,83L36.1,83z M32.2,53L30,59.9h-7.3
			l5.9,4.3l-2.2,6.9l5.9-4.3l5.9,4.3l-2.2-6.9l5.9-4.3h-7.3L32.2,53L32.2,53z M59.2,56.3H113V43H36.1L59.2,56.3L59.2,56.3z"/>
	</g>
	<path opacity="0.35" fill="#FFFFFF" d="M13,29.7v25.5C26.2,62.6,43.7,67,63,67c19.3,0,36.8-4.5,50-11.8V29.7H13z"/>
</g>
</svg>
