<?xml version="1.0" encoding="utf-8"?>
<!-- Generator: Adobe Illustrator 24.3.0, SVG Export Plug-In . SVG Version: 6.00 Build 0)  -->
<svg version="1.1" id="Layer_1" xmlns="http://www.w3.org/2000/svg" xmlns:xlink="http://www.w3.org/1999/xlink" x="0px" y="0px"
	 viewBox="0 0 126 126" enable-background="new 0 0 126 126" xml:space="preserve">
<g>
	<g>
		<polygon fill-rule="evenodd" clip-rule="evenodd" fill="#F0F0F0" points="13,96.3 113,96.3 113,29.7 13,29.7 13,96.3 		"/>
		<g>
			<path fill-rule="evenodd" clip-rule="evenodd" fill="#F39229" d="M41,58c0.5,0.5,1.3,1.5,2.3,1.4c1-0.1,1.8-0.8,2.1-1.6
				c0.3-0.8,0.8-1,0.8-1.2c0.1-0.2-0.1-0.5,0.1-0.4c0.2,0.1,0.6,0,0.8,0c0.3,0,0.2-0.2,0.5-0.3c0.3-0.1,0.6-0.1,0.8-0.2
				c0.2-0.1,1.1,0.4,1.7,0.4c0.5,0,0.7,0.2,1,0.5c0.2,0.3,0.8,0.5,1.3,0.3c0.5-0.2,1.2-0.5,1.5-1.4c0.3-0.9,0.7-2.9,0.4-3.4
				c-0.3-0.5-0.1-0.7-0.2-1.1c-0.1-0.3-0.2-0.6,0.1-0.4c0.2,0.2,1.1,0.9,1.5,0.9c0.4,0,0.5-0.1,0.7,0c0.3,0.1,1,0.3,1.3,0.1
				c0.3-0.2,1.1,0.1,1.3,0.1c0.2,0,0.8-0.2,1-0.1c0.2,0.1,0.3,0.1,0.4,0.1c0.2,0.1,0.2,0.3,0.4,0.1c0.2-0.2,0.3,0.1,0.5,0
				c0.2-0.1,0.3-0.2,0.5-0.1c0.2,0.1,0.6,0.1,0.8,0.1c0.2,0.1,0.3,0.2,0.5,0.2c0.2,0,0.6-0.1,0.9,0c0.3,0.1,1,0,1.2,0
				c0.2,0,0.4-0.2,0.6-0.1c0.3,0.1,0.8-0.1,1.2-0.1c0.4,0,0.7-0.3,0.9-0.3c0.2,0,0.4,0.1,0.7,0c0.4-0.1,0.3,0,0.5,0.1
				c0.2,0.1,0.5-0.1,0.7-0.2c0.2-0.1,0.5-0.4,1-0.6c0.4-0.2,0.9-0.3,1.3-0.3c0.4,0,0.6,0,0.9,0c0.3,0,1-0.4,1.4-0.5
				c0.3-0.1,0.8-0.1,1.2-0.3c0.4-0.2,1.6-0.7,2.1-1c0.5-0.4,0.8-0.3,1-0.5c0.2-0.2,0.5-0.5,0.7-0.8c0.2-0.2,0.4-0.2,0.4-0.4
				c0-0.2,0-0.2,0.3-0.1c0.3,0.1,0.2,0.1,0.4,0.1c0.2,0,0.3,0.1,0.5,0c0.1-0.1,0.2-0.3,0.4-0.3c0.2,0,0.3,0,0.5-0.1
				c0.1-0.1,0.2,0,0.4-0.1c0.2-0.1,0.2-0.1,0.3-0.2c0.2-0.1,0.2-0.1,0.2-0.3c0.1-0.1,0.2,0,0.4-0.1c0.1-0.1,0.1-0.2,0.2-0.4
				c0.1-0.2,0.2-0.1,0.4-0.2c0.2-0.1,0.2-0.1,0.3-0.2c0.2,0,0.4,0,0.5-0.1c0.2-0.1,0.3-0.3,0.5-0.4c0.2-0.1,0.3,0.1,0.5,0.1
				c0.1,0,0.2-0.1,0.3-0.2c0.1,0,0.2,0.1,0.4,0c0.2-0.1,0.1-0.2,0.2-0.3c0.1-0.1,0.1-0.1,0.4-0.1c0.2,0,0.5-0.3,0.7-0.4
				c0.2-0.1,0.2,0,0.4-0.1c0.1-0.1,0.2-0.2,0.3-0.2c0.1,0-0.1,0.2-0.2,0.3c-0.1,0.1,0,0.3-0.1,0.4c-0.1,0.1,0,0.5-0.1,0.6
				C87.5,45,87.2,45,87.1,45c-0.1,0-0.1,0.1-0.2,0.2c-0.1,0.1-0.1,0-0.4,0.1c-0.2,0.1-1.5,0.6-1.7,0.9c-0.2,0.2-0.2,0.3-0.3,0.4
				s0,0.3-0.2,0.5c-0.2,0.2-0.3,0.4-0.5,0.5c-0.2,0.1-0.8,0.3-1.1,0.6c-0.3,0.3-0.5,0.7-0.8,0.8c-0.3,0.1-1.6,0.7-2.2,1
				c-0.5,0.3-2,1.4-2.2,2.1c-0.2,0.7-0.2,0.7-0.7,0.8c-0.5,0.1-0.6-0.1-1-0.1c-0.4,0.1-0.6,0-0.9,0.4c-0.3,0.4-0.3,0.5-0.5,0.7
				c-0.2,0.2-0.5,1-0.5,1.3c0,0.4,0,0.7,0.1,0.9c0.1,0.2,0,0.2-0.1,0.3c-0.1,0.1,0,0.1,0.1,0.1c0.1,0,0.3,0.3,0.5,0.6
				c0.2,0.3,0.4,0.4,0.5,0.6c0.1,0.2,0.2,0.5,0.4,0.7c0.2,0.2,0.8,0.8,1.1,0.9c0.3,0.1,0.7,1,0.9,1.2c0.2,0.2,0.1,0.3,0.1,0.3
				c-0.1,0.1,0,0.3,0.1,0.3c0.1,0.1,0.2,0,0.3,0.1c0,0.1-0.1,0.2-0.2,0.1c-0.1-0.1-0.1-0.1-0.3-0.1c-0.2,0-0.4-0.2-0.6-0.3
				c-0.2-0.1-0.3-0.1-0.4-0.2c-0.1-0.1-0.2,0-0.4-0.1c-0.2,0-0.2,0-0.4,0c-0.2,0-0.3-0.1-0.4-0.1c-0.2,0-0.1,0.1-0.3,0.2
				c-0.2,0.1-0.4,0-0.7,0.1c-0.3,0.1-0.3,0.3-0.5,0.4c-0.2,0.1-0.4,0.3-0.6,0.3c-0.2,0.1-0.5-0.4-0.9-0.6c-0.3-0.2-0.5-0.3-1-0.3
				c-0.5,0-1.1-0.1-1.6,0c-0.4,0.1-0.8,0.4-0.9,0.6c-0.1,0.2-0.2,0.7-0.3,0.9c0,0.2,0,0.4,0,0.7c-0.1,0.3-0.1,0.6-0.3,0.8
				c-0.2,0.2-0.2,0.4-0.3,0.6c-0.1,0.2-0.4,0-0.9,0.1c-0.5,0.1-0.4,0.2-0.6,0.4c-0.1,0.2-0.2,0.2-0.3,0.3c-0.1,0.1-0.2,0-0.4,0.1
				c-0.1,0.1,0,0.2-0.3,0.2c-0.2,0.1-0.4-0.1-0.7,0c-0.2,0.1-0.3,0.2-0.6,0.4c-0.3,0.2-0.6,0.1-0.8,0.3c-0.2,0.2-0.3,0.3-0.4,0.3
				c-0.1,0-0.2,0-0.4,0.1c-0.2,0.1-0.3,0.1-0.5,0.2c-0.2,0.1-0.4-0.1-0.6-0.1c-0.3,0-0.4,0.2-0.5,0.3c-0.1,0.1-0.2,0.1-0.4,0.1
				c-0.2,0-1.4-0.1-1.6-0.1c-0.3,0-1.1,0-1.6,0.3c-0.6,0.3-0.7,0.4-0.9,0.6c-0.2,0.2-0.4,0.2-0.6,0.5c-0.2,0.3-0.2,0.5-0.2,0.9
				c-0.1,0.3,0.4,0.7,0.5,0.9c0.1,0.1,0.1,0.4-0.1,0.3s-0.2-0.3-0.5-0.2c-0.2,0.1-0.3-0.2-0.4-0.1c-0.1,0.1-0.2,0.2-0.3,0.2
				c-0.1-0.1-0.3-0.1-0.4,0c-0.2,0.1-0.2,0-0.1-0.2c0.1-0.2,0.2-0.4,0-0.5c-0.2-0.2-0.2-0.6-0.4-0.8c-0.2-0.2-0.3-0.2-0.2-0.4
				c0-0.1-0.1-0.1-0.2-0.1c-0.1,0-0.2-0.2-0.3-0.3c-0.2,0-0.3-0.1-0.4-0.1c-0.2,0-0.2,0.1-0.5,0c-0.2-0.1-0.2,0-0.4,0.1
				c-0.2,0.1-0.3-0.1-0.5,0c-0.2,0.1-0.4,0-0.5,0.1c-0.2,0.1-0.2,0.3-0.4,0.3c-0.2,0-0.2-0.1-0.4,0c-0.2,0.1-0.3,0.2-0.4,0.1
				c-0.1-0.1-0.8-0.3-1.1-0.4c-0.3,0-0.6-0.2-1.1-0.5c-0.5-0.3-0.8-0.4-1-0.5c-0.2,0-0.4,0-0.5-0.1s-0.2-0.3-0.3-0.2
				c-0.2,0.1-0.2,0.2-0.3,0.1C45.1,67.1,45,67,44.9,67c-0.1,0-0.4-0.4-0.5-0.5c-0.2-0.1-0.2-0.1-0.4-0.1c-0.1,0-0.1-0.2-0.3-0.3
				c-0.1-0.1-0.3,0-0.4-0.1c-0.1-0.1-0.1-0.2,0-0.4c0-0.2-0.1-0.3-0.1-0.5c0-0.2,0-0.3-0.1-0.4C43,64.5,43,64.4,43,64.2
				c0-0.2-0.1-0.3-0.2-0.4c-0.1,0-0.3-0.1-0.3-0.2c-0.1-0.1-0.3,0-0.4-0.3c-0.1-0.3-0.3-0.4-0.4-0.5c-0.1-0.1-0.2-0.1,0-0.5
				c0.2-0.4-0.1-0.5-0.2-0.8c-0.2-0.3-0.1-0.1,0-0.5c0.1-0.3,0.1-0.5,0-0.7c-0.1-0.1-0.2-0.8-0.5-1c-0.3-0.3-0.4-0.6-0.3-0.9
				C40.6,58.1,40.7,57.8,41,58L41,58z"/>
			<path fill-rule="evenodd" clip-rule="evenodd" fill="#40AB19" d="M43.6,69.9c0,0,1-0.1,2,1.5c1,1.6,0.6,1.6,0.5,1.6
				c-0.1,0-1.7-0.7-2.1-1.2C43.6,71.2,43.6,70.3,43.6,69.9L43.6,69.9z M67,77.3c0,0.7-0.4,0.9-0.6,0.7C66.3,77.8,66.4,77.4,67,77.3
				L67,77.3z M65.8,77.7c0,0-1.8-0.2-2.8,2.2C63,79.9,65.7,79.6,65.8,77.7L65.8,77.7z M67,80.6c0,0-0.7-1.3-3.6,0
				C63.4,80.6,65,81.7,67,80.6L67,80.6z M68.3,79.7c-0.8,0.2-0.8,0.7-0.6,0.8C68,80.6,68.4,80.4,68.3,79.7L68.3,79.7z M68.3,78.7
				c0,0-1.2-0.7-3.1,0.8C65.3,79.5,68.1,79.9,68.3,78.7L68.3,78.7z M72.2,78.6c-1-0.2-3.3-0.3-3.4,0.5C68.7,79.9,72,79.1,72.2,78.6
				L72.2,78.6z M70.5,75.9c0,0-0.5,1.5-2.7,1.9C67.8,77.8,68.5,75.5,70.5,75.9L70.5,75.9z M74.4,73c0,0-0.9,2.1-2.4,2.8
				C72,75.8,72.7,72.7,74.4,73L74.4,73z M71.6,75.4c0,0.7-0.4,0.9-0.6,0.7C70.8,75.9,71.1,75.3,71.6,75.4L71.6,75.4z M72.6,76.4
				c0,0-0.2,1.4-3.1,1.5C69.5,77.9,71.3,76,72.6,76.4L72.6,76.4z M72.6,77.5c0,0.4-0.2,0.8-0.4,0.7C71.9,78,72.3,77.5,72.6,77.5
				L72.6,77.5z M76.3,76.2c0,0-2.2-0.6-3.4,0.9C72.9,77.1,75.8,77.6,76.3,76.2L76.3,76.2z M76.2,75c-0.5-0.1-1.1,0.2-1,0.5
				C75.3,75.9,76.3,75.6,76.2,75L76.2,75z M75.7,73.5c0,0-1.4,0.1-2.4,2.3C73.4,75.9,75.7,75.1,75.7,73.5L75.7,73.5z M78.6,73
				c0,0,0,1.7-2.4,1.4C76.2,74.4,76.2,73.1,78.6,73L78.6,73z M75.9,70.6c0,0.4,0,1.2-0.2,1.6c-0.2,0.4-0.4,0.8-0.4,0.8
				S74.8,71,75.9,70.6L75.9,70.6z M78.8,69.9c0,0-1-0.1-2,1.5c-1,1.6-0.6,1.6-0.5,1.6c0.1,0,1.7-0.7,2.1-1.2
				C78.8,71.2,78.9,70.3,78.8,69.9L78.8,69.9z M60,80.6l0.3-0.3l1,0.4l1-0.4l0.3,0.3l-0.6,0.3l1.4,1l-0.8,0.8l-1.3-1.6l-1.3,1.6
				l-0.9-0.8l1.5-1L60,80.6L60,80.6z M55.4,77.3c0,0.7,0.4,0.9,0.6,0.7C56.2,77.8,56.1,77.4,55.4,77.3L55.4,77.3z M56.6,77.7
				c0,0,1.8-0.2,2.8,2.2C59.5,79.9,56.8,79.6,56.6,77.7L56.6,77.7z M55.5,80.6c0,0,0.7-1.3,3.6,0C59.1,80.6,57.4,81.7,55.5,80.6
				L55.5,80.6z M54.1,79.7c0.8,0.2,0.8,0.7,0.6,0.8C54.4,80.6,54,80.4,54.1,79.7L54.1,79.7z M54.1,78.7c0,0,1.2-0.7,3.1,0.8
				C57.2,79.5,54.3,79.9,54.1,78.7L54.1,78.7z M50.2,78.6c1-0.2,3.3-0.3,3.4,0.5C53.8,79.9,50.4,79.1,50.2,78.6L50.2,78.6z M52,75.9
				c0,0,0.5,1.5,2.7,1.9C54.7,77.8,54,75.5,52,75.9L52,75.9z M48,73c0,0,0.9,2.1,2.4,2.8C50.5,75.8,49.7,72.7,48,73L48,73z
				 M50.8,75.4c0,0.7,0.4,0.9,0.6,0.7C51.6,75.9,51.4,75.3,50.8,75.4L50.8,75.4z M49.9,76.4c0,0,0.2,1.4,3.1,1.5
				C53,77.9,51.2,76,49.9,76.4L49.9,76.4z M49.8,77.5c0,0.4,0.2,0.8,0.4,0.7C50.5,78,50.1,77.5,49.8,77.5L49.8,77.5z M46.1,76.2
				c0,0,2.2-0.6,3.4,0.9C49.5,77.1,46.7,77.6,46.1,76.2L46.1,76.2z M46.2,75c0.5-0.1,1.1,0.2,1,0.5C47.2,75.9,46.1,75.6,46.2,75
				L46.2,75z M46.7,73.5c0,0,1.4,0.1,2.4,2.3C49.1,75.9,46.7,75.1,46.7,73.5L46.7,73.5z M43.8,73c0,0,0,1.7,2.4,1.4
				C46.3,74.4,46.3,73.1,43.8,73L43.8,73z M46.5,70.6c0,0.4,0,1.2,0.2,1.6c0.2,0.4,0.4,0.8,0.4,0.8S47.6,71,46.5,70.6L46.5,70.6z"/>
		</g>
	</g>
	<path opacity="0.35" fill="#FFFFFF" d="M13,29.7v25.5C26.2,62.6,43.7,67,63,67c19.3,0,36.8-4.5,50-11.8V29.7H13z"/>
</g>
</svg>
