<?xml version="1.0" encoding="utf-8"?>
<!-- Generator: Adobe Illustrator 24.3.0, SVG Export Plug-In . SVG Version: 6.00 Build 0)  -->
<svg version="1.1" id="Layer_1" xmlns="http://www.w3.org/2000/svg" xmlns:xlink="http://www.w3.org/1999/xlink" x="0px" y="0px"
	 viewBox="0 0 126 126" enable-background="new 0 0 126 126" xml:space="preserve">
<g>
	<g>
		<polygon fill="#47B71D" points="13,29.7 71,63 113,63 113,96.3 13,96.3 71,63 13,29.7 		"/>
		<polygon fill="#49A9F6" points="13,29.7 113,29.7 113,63 71,63 13,29.7 		"/>
		<polygon fill="#F0F0F0" points="71,63 13,96.3 13,29.7 71,63 		"/>
		<polygon fill="#FF1612" points="33.8,55.2 35.7,61.2 42,61.2 36.9,64.8 38.9,70.8 33.8,67.1 28.7,70.8 30.7,64.8 25.6,61.2 
			31.9,61.2 33.8,55.2 		"/>
	</g>
	<path opacity="0.25" fill="#FFFFFF" d="M13,29.7v25.5C26.2,62.6,43.7,67,63,67c19.3,0,36.8-4.5,50-11.8V29.7H13z"/>
</g>
</svg>
