<?xml version="1.0" encoding="utf-8"?>
<!-- Generator: Adobe Illustrator 24.3.0, SVG Export Plug-In . SVG Version: 6.00 Build 0)  -->
<svg version="1.1" id="Layer_1" xmlns="http://www.w3.org/2000/svg" xmlns:xlink="http://www.w3.org/1999/xlink" x="0px" y="0px"
	 viewBox="0 0 126 126" enable-background="new 0 0 126 126" xml:space="preserve">
<g>
	<g>
		<g>
			<polygon fill-rule="evenodd" clip-rule="evenodd" fill="#F4F4F4" points="13,96.3 113,96.3 113,29.7 13,29.7 13,96.3 			"/>
			<path fill-rule="evenodd" clip-rule="evenodd" fill="#0F47AF" d="M13,56.3h42.9V29.7H13V56.3L13,56.3z M70.1,96.3H113V69.7H70.1
				V96.3L70.1,96.3z"/>
			<path fill-rule="evenodd" clip-rule="evenodd" fill="#FF1612" d="M70.1,56.3H113V29.7H70.1V56.3L70.1,56.3z M13,96.3h42.9V69.7
				H13V96.3L13,96.3z"/>
			<g>
				<g>
					<g>
						<defs>
							<path id="SVGID_1_" d="M62.8,57.6h-4.4l0.9,0.9c0,0,0,5,0,6.2c0,1.2,0.9,1.4,1.4,1.4c0.5,0,1.2,0,1.4,0
								c0.2,0,0.5,0.2,0.7,0.5c0.1-0.3,0.4-0.5,0.7-0.5s0.9,0,1.4,0c0.5,0,1.4-0.2,1.4-1.4c0-1.2,0-6.2,0-6.2l0.9-0.9H62.8
								L62.8,57.6z"/>
						</defs>
						<use xlink:href="#SVGID_1_"  overflow="visible" fill-rule="evenodd" clip-rule="evenodd" fill="#FFFFFF"/>
						<clipPath id="SVGID_2_">
							<use xlink:href="#SVGID_1_"  overflow="visible"/>
						</clipPath>
						<g clip-path="url(#SVGID_2_)">
							<polygon fill-rule="evenodd" clip-rule="evenodd" fill="#1235AA" points="62.1,57.6 58.4,57.6 59.4,58.6 59.4,61.2 
								62.1,61.2 62.1,57.6 							"/>
							<path fill-rule="evenodd" clip-rule="evenodd" fill="#F20D0B" d="M59.4,62.7v2.1c0,1.2,0.9,1.4,1.4,1.4h1.3v-3.5H59.4
								L59.4,62.7z"/>
							<polygon fill-rule="evenodd" clip-rule="evenodd" fill="#F20D0B" points="66.3,61.2 66.3,58.6 67.3,57.6 63.6,57.6 
								63.6,61.2 66.3,61.2 							"/>
							<path fill-rule="evenodd" clip-rule="evenodd" fill="#1235AA" d="M63.6,66.2h1.3c0.5,0,1.4-0.2,1.4-1.4v-2.1h-2.8V66.2
								L63.6,66.2z"/>
						</g>
						
							<use xlink:href="#SVGID_1_"  overflow="visible" fill-rule="evenodd" clip-rule="evenodd" fill="none" stroke="#000000" stroke-width="5.061300e-02" stroke-miterlimit="2.4142"/>
					</g>
					<g>
						
							<polygon fill-rule="evenodd" clip-rule="evenodd" fill="#EAC102" stroke="#000000" stroke-width="2.530700e-02" stroke-miterlimit="2.4142" points="
							62.7,58.5 63,58.5 63,58.9 63.4,58.9 63.4,59.2 63,59.2 63,61 62.7,61 62.7,59.2 62.3,59.2 62.3,58.9 62.7,58.9 62.7,58.5 
													"/>
						<g>
							<defs>
								<polygon id="SVGID_3_" points="65.3,58.9 65.3,60 63.8,61.4 63.6,61.1 65.3,58.9 								"/>
							</defs>
							<use xlink:href="#SVGID_3_"  overflow="visible" fill-rule="evenodd" clip-rule="evenodd" fill="#FFFFFF"/>
							<clipPath id="SVGID_4_">
								<use xlink:href="#SVGID_3_"  overflow="visible"/>
							</clipPath>
							<g clip-path="url(#SVGID_4_)">
								<polygon fill-rule="evenodd" clip-rule="evenodd" fill="#1235AA" points="65.3,58.9 65.3,60 64.4,60.8 64.4,60.1 65.3,58.9 
																	"/>
								<polygon fill-rule="evenodd" clip-rule="evenodd" fill="#F20D0B" points="64.1,61.2 63.8,61.4 63.6,61.1 64.1,60.5 
									64.1,61.2 								"/>
							</g>
							
								<use xlink:href="#SVGID_3_"  overflow="visible" fill-rule="evenodd" clip-rule="evenodd" fill="none" stroke="#000000" stroke-width="2.530700e-02" stroke-miterlimit="2.4142"/>
						</g>
						<g>
							<defs>
								<path id="SVGID_5_" d="M65.6,59.3c0,0,0,4,0,4.7c0,0.7-0.7,1.2-1.1,1.2c-0.5,0-1.2-0.4-1.2-1.4S63,62,63,62L65.6,59.3
									L65.6,59.3z"/>
							</defs>
							<use xlink:href="#SVGID_5_"  overflow="visible" fill-rule="evenodd" clip-rule="evenodd" fill="#FFFFFF"/>
							<clipPath id="SVGID_6_">
								<use xlink:href="#SVGID_5_"  overflow="visible"/>
							</clipPath>
							<g clip-path="url(#SVGID_6_)">
								<path fill-rule="evenodd" clip-rule="evenodd" fill="#1235AA" d="M65.6,59.3V62l-1.2,1.1v-2.6L65.6,59.3L65.6,59.3z
									 M63.3,64.1c0-0.1,0-0.2,0-0.3c0,0,0-0.1,0-0.1c0.2,0.2,0.6,0.2,0.6,0.2C63.8,64.3,63.5,64.2,63.3,64.1L63.3,64.1z"/>
								<path fill-rule="evenodd" clip-rule="evenodd" fill="#F20D0B" d="M65.6,62.8V64c0,0.7-0.7,1.2-1.1,1.2
									c-0.4,0-0.9-0.3-1.1-0.9c0.9,0.7,1.1-0.6,1.1-0.6L65.6,62.8L65.6,62.8z M63.3,63.4C63.2,62.6,63,62,63,62l0.9-0.9v2.4
									C63.6,63.6,63.4,63.5,63.3,63.4L63.3,63.4z"/>
							</g>
							
								<use xlink:href="#SVGID_5_"  overflow="visible" fill-rule="evenodd" clip-rule="evenodd" fill="none" stroke="#000000" stroke-width="2.530700e-02" stroke-miterlimit="2.4142"/>
						</g>
						<g>
							<polygon fill="#EAC102" stroke="#C98F2B" stroke-width="2.530700e-02" stroke-miterlimit="2.4142" points="63,61.5 
								64.7,58.5 64.8,58.5 63.1,61.5 63,61.5 							"/>
							
								<polygon fill-rule="evenodd" clip-rule="evenodd" fill="#EAC102" stroke="#C98F2B" stroke-width="2.530700e-02" stroke-miterlimit="2.4142" points="
								65.2,57.9 64.7,58.3 64.8,58.5 65,58.4 65.2,57.9 							"/>
							<polygon fill="#C98F2B" points="65.2,57.9 64.8,58.5 64.8,58.5 65.1,57.9 65.2,57.9 							"/>
							
								<path fill-rule="evenodd" clip-rule="evenodd" fill="#EAC102" stroke="#C98F2B" stroke-width="2.530700e-02" stroke-miterlimit="2.4142" d="
								M64.8,58.4l0.1,0.1c0,0,0,0,0,0.1l0,0c0,0,0,0-0.1,0L64.8,58.4C64.7,58.5,64.7,58.5,64.8,58.4L64.8,58.4
								C64.7,58.4,64.7,58.4,64.8,58.4L64.8,58.4z"/>
						</g>
						<g>
							<polygon fill="#EAC102" stroke="#C98F2B" stroke-width="2.530700e-02" stroke-miterlimit="2.4142" points="63.4,61.4 
								65.5,58.6 65.6,58.7 63.4,61.4 63.4,61.4 							"/>
							
								<polygon fill-rule="evenodd" clip-rule="evenodd" fill="#EAC102" stroke="#C98F2B" stroke-width="2.530700e-02" stroke-miterlimit="2.4142" points="
								66,58.1 65.5,58.4 65.5,58.6 65.8,58.6 66,58.1 							"/>
							<polygon fill="#C98F2B" points="66,58.1 65.6,58.6 65.5,58.6 66,58.1 66,58.1 							"/>
							
								<path fill-rule="evenodd" clip-rule="evenodd" fill="#EAC102" stroke="#C98F2B" stroke-width="2.530700e-02" stroke-miterlimit="2.4142" d="
								M65.5,58.6L65.5,58.6c0.1,0.1,0.1,0.1,0.1,0.1l0,0c0,0,0,0-0.1,0L65.5,58.6C65.4,58.6,65.4,58.6,65.5,58.6L65.5,58.6
								C65.5,58.5,65.5,58.5,65.5,58.6L65.5,58.6z"/>
						</g>
						<g>
							<polygon fill="#EAC102" stroke="#C98F2B" stroke-width="2.530700e-02" stroke-miterlimit="2.4142" points="63.2,61.7 
								65.6,59.2 65.7,59.3 63.3,61.8 63.2,61.7 							"/>
							
								<polygon fill-rule="evenodd" clip-rule="evenodd" fill="#EAC102" stroke="#C98F2B" stroke-width="2.530700e-02" stroke-miterlimit="2.4142" points="
								66.2,58.7 65.7,59 65.7,59.2 65.9,59.2 66.2,58.7 							"/>
							<polygon fill="#C98F2B" points="66.2,58.7 65.7,59.2 65.7,59.2 66.2,58.7 66.2,58.7 							"/>
							
								<path fill-rule="evenodd" clip-rule="evenodd" fill="#EAC102" stroke="#C98F2B" stroke-width="2.530700e-02" stroke-miterlimit="2.4142" d="
								M65.7,59.1L65.7,59.1c0.1,0.1,0.1,0.1,0.1,0.2l0,0c0,0-0.1,0-0.1,0L65.7,59.1C65.6,59.2,65.6,59.2,65.7,59.1L65.7,59.1
								C65.6,59.1,65.6,59.1,65.7,59.1L65.7,59.1z"/>
						</g>
						<g>
							<defs>
								<polygon id="SVGID_7_" points="60.4,58.9 60.4,60 61.9,61.4 62.1,61.1 60.4,58.9 								"/>
							</defs>
							<use xlink:href="#SVGID_7_"  overflow="visible" fill-rule="evenodd" clip-rule="evenodd" fill="#FFFFFF"/>
							<clipPath id="SVGID_8_">
								<use xlink:href="#SVGID_7_"  overflow="visible"/>
							</clipPath>
							<g clip-path="url(#SVGID_8_)">
								<polygon fill-rule="evenodd" clip-rule="evenodd" fill="#1235AA" points="60.4,58.9 60.4,60 61.3,60.8 61.3,60.1 60.4,58.9 
																	"/>
								<polygon fill-rule="evenodd" clip-rule="evenodd" fill="#F20D0B" points="61.7,61.2 61.9,61.4 62.1,61.1 61.7,60.5 
									61.7,61.2 								"/>
							</g>
							
								<use xlink:href="#SVGID_7_"  overflow="visible" fill-rule="evenodd" clip-rule="evenodd" fill="none" stroke="#000000" stroke-width="2.530700e-02" stroke-miterlimit="2.4142"/>
						</g>
						<g>
							<defs>
								<path id="SVGID_9_" d="M60.1,59.3c0,0,0,4,0,4.7c0,0.7,0.7,1.2,1.1,1.2c0.5,0,1.2-0.4,1.2-1.4s0.3-1.9,0.3-1.9L60.1,59.3
									L60.1,59.3z"/>
							</defs>
							<use xlink:href="#SVGID_9_"  overflow="visible" fill-rule="evenodd" clip-rule="evenodd" fill="#FFFFFF"/>
							<clipPath id="SVGID_10_">
								<use xlink:href="#SVGID_9_"  overflow="visible"/>
							</clipPath>
							<g clip-path="url(#SVGID_10_)">
								<path fill-rule="evenodd" clip-rule="evenodd" fill="#1235AA" d="M60.1,59.3V62l1.2,1.1v-2.6L60.1,59.3L60.1,59.3z
									 M62.4,64.1c0-0.1,0-0.2,0-0.3c0,0,0-0.1,0-0.1C62.2,64,61.8,64,61.8,64C61.9,64.3,62.2,64.2,62.4,64.1L62.4,64.1z"/>
								<path fill-rule="evenodd" clip-rule="evenodd" fill="#F20D0B" d="M60.1,62.8V64c0,0.7,0.7,1.2,1.1,1.2
									c0.4,0,0.9-0.3,1.1-0.9c-0.9,0.7-1.1-0.6-1.1-0.6L60.1,62.8L60.1,62.8z M62.4,63.4c0.1-0.8,0.3-1.4,0.3-1.4l-0.9-0.9v2.4
									C62.1,63.6,62.3,63.5,62.4,63.4L62.4,63.4z"/>
							</g>
							
								<use xlink:href="#SVGID_9_"  overflow="visible" fill-rule="evenodd" clip-rule="evenodd" fill="none" stroke="#000000" stroke-width="2.530700e-02" stroke-miterlimit="2.4142"/>
						</g>
						<g>
							<polygon fill="#EAC102" stroke="#C98F2B" stroke-width="2.530700e-02" stroke-miterlimit="2.4142" points="62.8,61.5 
								61,58.5 60.9,58.5 62.7,61.5 62.8,61.5 							"/>
							
								<polygon fill-rule="evenodd" clip-rule="evenodd" fill="#EAC102" stroke="#C98F2B" stroke-width="2.530700e-02" stroke-miterlimit="2.4142" points="
								60.6,57.9 61,58.3 60.9,58.5 60.7,58.4 60.6,57.9 							"/>
							<polygon fill="#C98F2B" points="60.6,57.9 60.9,58.5 60.9,58.5 60.6,57.9 60.6,57.9 							"/>
							
								<path fill-rule="evenodd" clip-rule="evenodd" fill="#EAC102" stroke="#C98F2B" stroke-width="2.530700e-02" stroke-miterlimit="2.4142" d="
								M61,58.4l-0.1,0.1c0,0,0,0,0,0.1l0,0c0,0,0,0,0.1,0L61,58.4C61,58.5,61,58.5,61,58.4L61,58.4C61,58.4,61,58.4,61,58.4
								L61,58.4z"/>
						</g>
						<g>
							<polygon fill="#EAC102" stroke="#C98F2B" stroke-width="2.530700e-02" stroke-miterlimit="2.4142" points="62.4,61.4 
								60.2,58.6 60.2,58.7 62.3,61.4 62.4,61.4 							"/>
							
								<polygon fill-rule="evenodd" clip-rule="evenodd" fill="#EAC102" stroke="#C98F2B" stroke-width="2.530700e-02" stroke-miterlimit="2.4142" points="
								59.8,58.1 60.2,58.4 60.2,58.6 59.9,58.6 59.8,58.1 							"/>
							<polygon fill="#C98F2B" points="59.7,58.1 60.2,58.6 60.2,58.6 59.8,58.1 59.7,58.1 							"/>
							
								<path fill-rule="evenodd" clip-rule="evenodd" fill="#EAC102" stroke="#C98F2B" stroke-width="2.530700e-02" stroke-miterlimit="2.4142" d="
								M60.2,58.6L60.2,58.6c-0.1,0.1-0.1,0.1-0.1,0.1l0,0c0,0,0,0,0.1,0L60.2,58.6C60.3,58.6,60.3,58.6,60.2,58.6L60.2,58.6
								C60.3,58.5,60.2,58.5,60.2,58.6L60.2,58.6z"/>
						</g>
						<g>
							<polygon fill="#EAC102" stroke="#C98F2B" stroke-width="2.530700e-02" stroke-miterlimit="2.4142" points="62.5,61.7 
								60.1,59.2 60,59.3 62.4,61.8 62.5,61.7 							"/>
							
								<polygon fill-rule="evenodd" clip-rule="evenodd" fill="#EAC102" stroke="#C98F2B" stroke-width="2.530700e-02" stroke-miterlimit="2.4142" points="
								59.6,58.7 60.1,59 60.1,59.2 59.8,59.2 59.6,58.7 							"/>
							<polygon fill="#C98F2B" points="59.6,58.7 60,59.2 60.1,59.2 59.6,58.7 59.6,58.7 							"/>
							
								<path fill-rule="evenodd" clip-rule="evenodd" fill="#EAC102" stroke="#C98F2B" stroke-width="2.530700e-02" stroke-miterlimit="2.4142" d="
								M60.1,59.1L60.1,59.1C60,59.2,60,59.3,60,59.3l0,0c0,0,0.1,0,0.1,0L60.1,59.1C60.2,59.2,60.2,59.2,60.1,59.1L60.1,59.1
								C60.1,59.1,60.1,59.1,60.1,59.1L60.1,59.1z"/>
						</g>
						<g>
							
								<path fill-rule="evenodd" clip-rule="evenodd" fill="#F20D0B" stroke="#000000" stroke-width="2.530700e-02" stroke-miterlimit="2.4142" d="
								M62.4,63.2c0,0.1-0.2,1.4-0.2,1.5c0,0,0,0.2,0.4,0.1l0-1.7L62.4,63.2L62.4,63.2z"/>
							
								<path fill-rule="evenodd" clip-rule="evenodd" fill="#1235AA" stroke="#000000" stroke-width="2.530700e-02" stroke-miterlimit="2.4142" d="
								M62.5,63.2l-0.1,2.1c0,0.2,0.6,0.4,0.6-0.2l0.2,0L63,62.8L62.5,63.2L62.5,63.2z"/>
							
								<path fill-rule="evenodd" clip-rule="evenodd" fill="#1235AA" stroke="#000000" stroke-width="2.530700e-02" stroke-miterlimit="2.4142" d="
								M62.4,63.2c0,0,0,0.5,0,0.5c0,0.1,0.1,0.1,0.1,0.1l0-0.7L62.4,63.2L62.4,63.2z"/>
							<path d="M63,65.1c-0.1,0-0.2-0.1-0.3,0c-0.1,0-0.2,0.1-0.2,0.2l0,0c0-0.1,0.1-0.1,0.2-0.2C62.8,65,62.9,65,63,65.1L63,65.1
								L63,65.1z"/>
							
								<path fill-rule="evenodd" clip-rule="evenodd" fill="#FFFFFF" stroke="#000000" stroke-width="2.530700e-02" stroke-miterlimit="2.4142" d="
								M63.1,65.1c0.1,0,0.3,0,0.3-0.2l-0.2-2.3L63,62.8L63.1,65.1L63.1,65.1z"/>
							
								<path fill-rule="evenodd" clip-rule="evenodd" fill="#F20D0B" stroke="#000000" stroke-width="2.530700e-02" stroke-miterlimit="2.4142" d="
								M63.3,62.6c0,0,0.3,1.1,0.3,1.2c0,0.1-0.2,0.2-0.2,0.3L63.3,62.6L63.3,62.6L63.3,62.6z"/>
							
								<path fill-rule="evenodd" clip-rule="evenodd" fill="#F20D0B" stroke="#000000" stroke-width="2.530700e-02" stroke-miterlimit="2.4142" d="
								M62.7,63c0,0,0,1.2,0,1.4c0,0.2,0.3,0.3,0.4,0.1l0-0.3L63,62.8L62.7,63L62.7,63z"/>
							<path d="M62.7,64.4C62.7,64.4,62.7,64.4,62.7,64.4c0-0.1,0.1-0.1,0.1-0.2c0.1,0,0.2,0,0.2,0c0,0,0,0,0,0l0,0c0,0,0,0,0,0
								c-0.1,0-0.2,0-0.2,0C62.7,64.2,62.7,64.3,62.7,64.4C62.7,64.4,62.7,64.4,62.7,64.4L62.7,64.4L62.7,64.4z"/>
						</g>
						<g>
							
								<path fill-rule="evenodd" clip-rule="evenodd" fill="#FFFFFF" stroke="#000000" stroke-width="3.374200e-02" stroke-miterlimit="2.4142" d="
								M61.6,61.5l-0.2-0.1c0,0,0,0.1-0.1,0.2l0.9,1.7l2.1-1.3l-1.2-1.7l-0.3,0.6L61.6,61.5L61.6,61.5z"/>
							
								<polygon fill-rule="evenodd" clip-rule="evenodd" stroke="#000000" stroke-width="2.530700e-02" stroke-miterlimit="2.4142" points="
								62.4,62.9 62.3,63 62.3,63.3 64.3,62 64.1,61.7 62.4,62.9 							"/>
							<g>
								
									<path fill-rule="evenodd" clip-rule="evenodd" fill="#FFFFFF" stroke="#000000" stroke-width="2.530700e-02" stroke-miterlimit="2.4142" d="
									M61.4,61.4l0.9,1.6c0,0,0.3,0,0.5-0.3c0.2-0.3,0.5-0.2,0.5-0.2s0.1-0.4,0.4-0.4c0.3,0,0.4-0.3,0.4-0.3l-1-1.5
									c0,0,0,0.2-0.3,0.4c-0.3,0.1-0.4,0.4-0.4,0.4s-0.4,0-0.6,0.2C61.7,61.5,61.4,61.4,61.4,61.4L61.4,61.4z"/>
								<polygon points="62.5,61 63.3,62.5 63.3,62.5 62.4,61 62.5,61 								"/>
								<path d="M61.7,61.7l0.3-0.2l0,0L61.7,61.7L61.7,61.7L61.7,61.7z M63.3,62.1l0.3-0.2l0,0L63.3,62.1L63.3,62.1L63.3,62.1z
									 M63.2,62l0.7-0.4l0,0L63.2,62L63.2,62L63.2,62z M63.1,61.9l0.6-0.4l0,0L63.1,61.9L63.1,61.9L63.1,61.9z M62.9,61.5l0.4-0.3
									l0,0L62.9,61.5L62.9,61.5L62.9,61.5z M62.9,61.4l0.6-0.4l0,0L62.9,61.4L62.9,61.4L62.9,61.4z M62.8,61.3l0.4-0.3l0,0
									L62.8,61.3L62.8,61.3L62.8,61.3z M62.7,61.2l0.4-0.3l0,0L62.7,61.2L62.7,61.2L62.7,61.2z M62.7,61.1l0.4-0.2l0,0L62.7,61.1
									L62.7,61.1L62.7,61.1z M62.3,62.7l0.5-0.3l0,0L62.3,62.7L62.3,62.7L62.3,62.7z M62.3,62.6l0.6-0.4l0,0L62.3,62.6L62.3,62.6
									L62.3,62.6z M62.2,62.5l0.6-0.4l0,0L62.2,62.5L62.2,62.5L62.2,62.5z M62,62.2l0.6-0.4l0,0L62,62.2L62,62.2L62,62.2z
									 M61.9,61.9l0.6-0.4l0,0L61.9,61.9L61.9,61.9L61.9,61.9z M61.8,61.8l0.3-0.2l0,0L61.8,61.8L61.8,61.8L61.8,61.8z"/>
							</g>
							<polygon fill="#1A1A1A" points="61.4,61.6 62.3,63.2 62.3,63.3 61.4,61.6 61.4,61.6 							"/>
						</g>
					</g>
				</g>
				<g>
					
						<path fill-rule="evenodd" clip-rule="evenodd" fill="#0437A0" stroke="#000000" stroke-width="2.530700e-02" stroke-miterlimit="2.4142" d="
						M62.2,54.1c-0.7,0-1.6,0.2-1.4,0.8c0.1,0.4,0.2,0.6,0.2,0.7c0,0,0-0.4,1.2-0.4c0.4,0,0.9,0,1.3,0c1.2,0,1.2,0.4,1.2,0.4
						c0,0,0.1-0.3,0.2-0.7c0.2-0.6-0.8-0.8-1.5-0.8C63,54.1,62.5,54.1,62.2,54.1L62.2,54.1z"/>
					
						<path fill-rule="evenodd" clip-rule="evenodd" fill="#1235AA" stroke="#000000" stroke-width="2.530700e-02" stroke-miterlimit="2.4142" d="
						M62.1,55.6c0,0,0.1,0.4-0.5,0.4c-0.6,0-1.2-0.2-2.1,0c-0.9,0.2-1.6,0.6-1.7,0.9c0,0-0.4-0.5-0.5-0.7c-0.1-0.2,0-0.4,0.2-0.5
						c0.1-0.1,1.6-1.1,3.4-0.9c0.1,0.4,0.2,0.6,0.2,0.6l0,0c0.1,0.2,0.3,0.3,0.6,0.1C61.9,55.6,61.9,55.6,62.1,55.6L62.1,55.6z"/>
					
						<path fill-rule="evenodd" clip-rule="evenodd" fill="#1235AA" stroke="#000000" stroke-width="2.530700e-02" stroke-miterlimit="2.4142" d="
						M62.1,55.6L62,55.2c-1,0.1-1,0.4-1,0.4l0,0c0.1,0.2,0.3,0.3,0.6,0.1C61.9,55.6,61.9,55.6,62.1,55.6L62.1,55.6z"/>
					
						<path fill-rule="evenodd" clip-rule="evenodd" fill="#1235AA" stroke="#000000" stroke-width="2.530700e-02" stroke-miterlimit="2.4142" d="
						M57.8,57c0.1,0.2,0.4-0.1,0.5-0.2c0.2-0.2,0.2-0.2,0.4-0.3l-0.1-0.2C58.2,56.5,57.8,56.7,57.8,57L57.8,57z"/>
					
						<path fill-rule="evenodd" clip-rule="evenodd" fill="#1235AA" stroke="#000000" stroke-width="2.530700e-02" stroke-miterlimit="2.4142" d="
						M57.4,56.5c-0.4,0.1-1.5,0.5-1.9,0.9c0,0,0.4-0.1,0.8-0.1c0,0-0.4,0.5-0.5,0.7c0,0,0.6-0.5,1.7-0.7c1.2-0.2,1.2-0.7,1.1-0.8
						l0,0l0,0c-0.2,0-0.2,0.1-0.4,0.3c-0.1,0.1-0.4,0.4-0.5,0.2C57.8,57,57.6,56.7,57.4,56.5L57.4,56.5z"/>
					
						<path fill-rule="evenodd" clip-rule="evenodd" fill="#1235AA" stroke="#000000" stroke-width="2.530700e-02" stroke-miterlimit="2.4142" d="
						M63.6,55.6c0,0-0.1,0.4,0.5,0.4c0.6,0,1.2-0.2,2.1,0c0.9,0.2,1.6,0.6,1.7,0.9c0,0,0.4-0.5,0.5-0.7c0.1-0.2,0-0.4-0.2-0.5
						c-0.1-0.1-1.6-1.1-3.4-0.9c-0.1,0.4-0.2,0.6-0.2,0.6l0,0c-0.1,0.2-0.3,0.3-0.6,0.1C63.8,55.6,63.7,55.6,63.6,55.6L63.6,55.6z"
						/>
					
						<path fill-rule="evenodd" clip-rule="evenodd" fill="#1235AA" stroke="#000000" stroke-width="2.530700e-02" stroke-miterlimit="2.4142" d="
						M63.6,55.6l0.1-0.5c1,0.1,1,0.4,1,0.4l0,0c-0.1,0.2-0.3,0.3-0.6,0.1C63.8,55.6,63.7,55.6,63.6,55.6L63.6,55.6z"/>
					
						<path fill-rule="evenodd" clip-rule="evenodd" fill="#1235AA" stroke="#000000" stroke-width="2.530700e-02" stroke-miterlimit="2.4142" d="
						M67.8,57c-0.1,0.2-0.4-0.1-0.5-0.2c-0.2-0.2-0.2-0.2-0.4-0.3l0.1-0.2C67.5,56.5,67.8,56.7,67.8,57L67.8,57z"/>
					
						<path fill-rule="evenodd" clip-rule="evenodd" fill="#1235AA" stroke="#000000" stroke-width="2.530700e-02" stroke-miterlimit="2.4142" d="
						M68.2,56.5c0.4,0.1,1.5,0.5,1.9,0.9c0,0-0.4-0.1-0.8-0.1c0,0,0.4,0.5,0.5,0.7c0,0-0.6-0.5-1.7-0.7c-1.2-0.2-1.2-0.7-1.1-0.8
						l0,0l0,0c0.2,0,0.2,0.1,0.4,0.3c0.1,0.1,0.4,0.4,0.5,0.2C67.8,57,68.1,56.7,68.2,56.5L68.2,56.5z"/>
				</g>
				<g>
					<path fill="#FFF200" d="M58.8,56.1C58.7,56.1,58.7,56.1,58.8,56.1L58.8,56.1L58.8,56.1C58.7,56.1,58.7,56,58.8,56.1
						C58.7,56,58.7,56,58.8,56.1C58.7,56,58.7,56,58.7,56l-0.1-0.3c0,0,0,0,0,0c0,0,0,0,0,0c0,0,0,0,0,0h0l0,0c0,0,0.1,0,0.1,0
						c0,0,0,0,0.1,0c0,0,0,0,0.1,0c0.1,0,0.1,0,0.2,0c0.1,0,0.1,0.1,0.1,0.2c0,0.1,0,0.2,0,0.2c0,0.1-0.1,0.1-0.1,0.1
						C58.8,56,58.8,56.1,58.8,56.1C58.8,56.1,58.8,56.1,58.8,56.1L58.8,56.1z M58.8,56C58.8,56,58.8,56,58.8,56
						C58.8,56,58.8,56,58.8,56c0.1,0,0.1-0.1,0.1-0.1c0,0,0-0.1,0-0.2c0-0.1-0.1-0.1-0.1-0.2c0,0-0.1,0-0.1,0c0,0,0,0-0.1,0L58.8,56
						L58.8,56z M59.2,55.8C59.3,55.8,59.3,55.8,59.2,55.8C59.3,55.8,59.3,55.8,59.2,55.8C59.3,55.9,59.3,55.9,59.2,55.8L59.2,55.8
						l0.1,0.1c0,0-0.1,0-0.1,0c0,0-0.1,0-0.1,0l0,0l0,0c0,0,0,0,0,0C59.2,55.9,59.2,55.9,59.2,55.8C59.2,55.8,59.2,55.8,59.2,55.8
						l-0.2-0.3c0,0,0,0,0,0c0,0,0,0,0,0c0,0,0,0,0,0l0,0l0,0c0,0,0.1,0,0.1,0c0,0,0.1,0,0.1,0l0,0l0,0c0,0,0,0,0,0c0,0,0,0,0,0
						c0,0,0,0,0,0L59.2,55.8L59.2,55.8z M59.4,55.5c0,0.1,0,0.1,0.1,0.2c0,0,0.1,0.1,0.1,0c0,0,0.1,0,0.1-0.1c0,0,0-0.1,0-0.2
						c0-0.1,0-0.1-0.1-0.2c0,0-0.1-0.1-0.1,0c0,0-0.1,0-0.1,0.1C59.4,55.4,59.4,55.5,59.4,55.5L59.4,55.5z M59.8,55.4
						c0,0.1,0,0.2,0,0.2c0,0.1-0.1,0.1-0.1,0.1c-0.1,0-0.1,0-0.2,0c-0.1,0-0.1-0.1-0.1-0.2c0-0.1,0-0.2,0-0.2c0-0.1,0.1-0.1,0.1-0.1
						c0.1,0,0.1,0,0.2,0C59.7,55.3,59.7,55.4,59.8,55.4L59.8,55.4z M60,55.2C60,55.2,60,55.2,60,55.2C59.9,55.2,59.9,55.2,60,55.2
						c-0.1,0.1-0.1,0.1-0.1,0.1c0,0,0,0,0,0c0,0,0,0,0,0c0,0,0,0,0,0c0,0,0,0,0,0c0,0,0,0,0,0c0,0,0,0,0,0c0,0,0,0,0,0
						c0,0,0,0,0,0.1c0,0.1,0,0.1,0,0.1c0,0-0.1,0.1-0.1,0.1c0,0-0.1,0-0.1,0l0,0l0-0.1l0,0l0,0.1c0,0,0,0,0.1,0c0,0,0,0,0.1,0
						c0,0,0,0,0-0.1c0,0,0,0,0,0c0,0,0,0,0,0c0,0,0,0,0,0c0,0,0,0,0,0c0,0,0,0,0,0c0,0,0,0,0,0c0,0,0,0,0,0c0,0,0,0,0-0.1
						c0-0.1,0-0.1,0-0.1C59.9,55.2,59.9,55.1,60,55.2C60,55.1,60,55.1,60,55.2L60,55.2L60,55.2l0,0.1L60,55.2L60,55.2z"/>
					<path fill="#FFF200" d="M61.8,54.7C61.8,54.7,61.8,54.7,61.8,54.7c0.1,0,0.1,0,0.1,0c0,0,0-0.1,0-0.1c0,0,0-0.1,0-0.1
						c0,0,0,0-0.1,0c0,0,0,0,0,0L61.8,54.7L61.8,54.7z M61.8,54.9C61.8,54.9,61.8,54.9,61.8,54.9C61.8,54.9,61.8,54.9,61.8,54.9
						C61.8,54.9,61.8,55,61.8,54.9l0.1,0.1l0,0c0,0-0.1,0-0.1,0c0,0-0.1,0-0.1,0l0,0l0,0C61.7,55,61.7,55,61.8,54.9
						C61.7,54.9,61.7,54.9,61.8,54.9c-0.1,0-0.1,0-0.1,0l0-0.3c0,0,0,0,0,0c0,0,0,0,0,0c0,0,0,0,0,0l0,0l0,0c0,0,0.1,0,0.1,0
						c0,0,0,0,0.1,0c0,0,0,0,0.1,0c0.1,0,0.1,0,0.1,0c0,0,0.1,0.1,0.1,0.1c0,0.1,0,0.1,0,0.1c0,0-0.1,0.1-0.1,0.1c0,0,0,0-0.1,0
						L61.8,54.9L61.8,54.9z M62.2,54.8L62.2,54.8c0,0.1,0,0.1,0,0.1s0,0,0,0c0,0,0,0,0,0c0,0,0,0,0,0l0,0l0,0c0,0-0.1,0-0.1,0
						c0,0,0,0-0.1,0l0,0l0,0c0,0,0,0,0,0c0,0,0,0,0,0l0.1-0.5l0,0l0.2,0.5c0,0,0,0,0,0c0,0,0,0,0,0l0,0l0,0c0,0-0.1,0-0.1,0
						c0,0-0.1,0-0.1,0l0,0l0,0c0,0,0,0,0,0c0,0,0,0,0,0c0,0,0,0,0,0c0,0,0,0,0,0l0-0.1L62.2,54.8L62.2,54.8z M62.2,54.5
						C62.2,54.6,62.2,54.6,62.2,54.5l-0.1,0.2l0.1,0L62.2,54.5C62.2,54.6,62.2,54.6,62.2,54.5L62.2,54.5z M62.7,54.9
						c0,0-0.1,0-0.1,0l0,0L62.7,54.9C62.6,54.9,62.6,54.9,62.7,54.9c-0.1-0.1-0.1-0.1-0.1-0.1l0-0.4l-0.1,0l0,0.1l0,0l0-0.2l0,0
						c0.1,0,0.1,0,0.2,0l0.1,0c0.1,0,0.1,0,0.2,0l0,0l0,0.2l0,0l0-0.1l-0.1,0l0,0.4C62.7,54.8,62.7,54.9,62.7,54.9
						C62.7,54.9,62.7,54.9,62.7,54.9l0.1,0v0C62.8,54.9,62.7,54.9,62.7,54.9L62.7,54.9z M63.1,54.8C63.1,54.8,63.1,54.8,63.1,54.8
						C63.1,54.9,63.1,54.9,63.1,54.8C63.1,54.9,63.1,54.9,63.1,54.8l0,0.1l0,0c0,0-0.1,0-0.1,0c0,0-0.1,0-0.1,0l0,0l0,0c0,0,0,0,0,0
						c0,0,0,0,0,0c0,0,0,0,0,0v-0.3c0,0,0,0,0,0c0,0,0,0,0,0c0,0,0,0,0,0l0,0l0,0c0,0,0.1,0,0.1,0c0,0,0,0,0,0c0,0,0,0,0,0
						c0,0,0,0,0,0c0,0,0,0,0,0c0.1,0,0.1,0,0.1,0c0,0,0,0.1,0,0.1c0,0,0,0.1,0,0.1c0,0,0,0-0.1,0.1c0,0,0,0.1,0,0.1c0,0,0,0,0,0.1
						c0,0,0,0,0,0.1c0,0,0,0,0,0c0,0,0,0,0,0c0,0,0,0,0,0c0,0,0,0,0,0c0,0,0,0,0,0v0c0,0,0,0-0.1,0c0,0,0,0,0,0c0,0,0,0,0,0
						c0,0,0,0,0,0c0,0,0,0,0-0.1C63.2,54.8,63.2,54.8,63.1,54.8c0.1-0.1,0.1-0.1,0-0.1c0,0,0,0,0,0c0,0,0,0,0,0c0,0,0,0,0,0
						c0,0,0,0,0,0h0V54.8L63.1,54.8z M63.1,54.6C63.1,54.6,63.1,54.6,63.1,54.6c0.1,0,0.1,0,0.1,0c0,0,0-0.1,0-0.1c0,0,0-0.1,0-0.1
						c0,0,0,0-0.1,0c0,0,0,0,0,0c0,0,0,0,0,0V54.6L63.1,54.6z M63.6,54.8C63.6,54.8,63.6,54.9,63.6,54.8
						C63.6,54.9,63.6,54.9,63.6,54.8C63.6,54.9,63.6,54.9,63.6,54.8l0.1,0.1l0,0c0,0-0.1,0-0.1,0c0,0-0.1,0-0.1,0v0l0,0c0,0,0,0,0,0
						c0,0,0,0,0,0c0,0,0,0,0,0l0-0.3c0,0,0,0,0,0c0,0,0,0,0,0c0,0,0,0,0,0l0,0v0c0,0,0.1,0,0.1,0c0,0,0.1,0,0.1,0l0,0l0,0
						c0,0,0,0,0,0c0,0,0,0,0,0s0,0,0,0L63.6,54.8L63.6,54.8z M63.8,54.8L63.8,54.8c0,0.1,0,0.1,0,0.1c0,0,0,0,0,0c0,0,0,0,0,0
						c0,0,0,0,0,0l0,0l0,0c0,0-0.1,0-0.1,0c0,0,0,0-0.1,0v0l0,0c0,0,0,0,0,0C63.7,54.9,63.7,54.9,63.8,54.8l0.1-0.4l0,0l0.1,0.5
						c0,0,0,0,0,0c0,0,0,0,0,0l0,0l0,0c0,0-0.1,0-0.1,0c0,0-0.1,0-0.1,0v0l0,0c0,0,0,0,0,0c0,0,0,0,0,0c0,0,0,0,0,0c0,0,0,0,0,0
						l0-0.1L63.8,54.8L63.8,54.8z M63.9,54.6C63.9,54.6,63.9,54.6,63.9,54.6l-0.1,0.2l0.1,0L63.9,54.6
						C63.9,54.6,63.9,54.6,63.9,54.6L63.9,54.6z"/>
					<path fill="#FFF200" d="M65.2,55.3l0,0.3c0,0,0,0.1,0,0.1l0.1,0l0-0.1l0,0l0,0.2l0,0c-0.1,0-0.1,0-0.2,0l-0.1,0
						c0,0-0.1,0-0.1,0l0,0l0,0c0,0,0,0,0,0c0,0,0,0,0,0c0,0,0,0,0,0L65.2,55.3C65.1,55.3,65.1,55.2,65.2,55.3
						C65.1,55.2,65.1,55.2,65.2,55.3c-0.1-0.1-0.1-0.1-0.1-0.1l0,0l0,0c0,0,0.1,0,0.1,0c0,0,0.1,0,0.1,0L65.2,55.3L65.2,55.3
						C65.2,55.2,65.2,55.2,65.2,55.3C65.2,55.2,65.2,55.2,65.2,55.3C65.2,55.3,65.2,55.3,65.2,55.3L65.2,55.3z M65.6,55.6
						C65.6,55.6,65.6,55.6,65.6,55.6C65.6,55.6,65.6,55.7,65.6,55.6C65.6,55.7,65.6,55.7,65.6,55.6l0,0.1v0c0,0-0.1,0-0.1,0
						c0,0-0.1,0-0.1,0v0l0,0C65.5,55.7,65.5,55.7,65.6,55.6C65.5,55.7,65.5,55.6,65.6,55.6C65.5,55.6,65.5,55.6,65.6,55.6l-0.1-0.3
						c0,0,0,0,0,0c0,0,0,0,0,0c0,0,0,0,0,0l0,0l0,0c0,0,0.1,0,0.1,0c0,0,0.1,0,0.1,0v0l0,0c0,0,0,0,0,0c0,0,0,0,0,0c0,0,0,0,0,0
						L65.6,55.6L65.6,55.6z M65.8,55.2C65.8,55.2,65.8,55.2,65.8,55.2c0.1,0,0.1,0,0.1,0c0,0,0,0,0,0c0.1,0,0.1,0,0.1,0
						c0,0,0,0.1,0,0.1c0,0.1,0,0.1-0.1,0.1c0,0,0.1,0,0.1,0.1c0,0,0,0.1,0,0.1c0,0.1,0,0.1-0.1,0.1c0,0-0.1,0-0.1,0c0,0,0,0,0,0
						c0,0,0,0,0,0c0,0-0.1,0-0.1,0v0l0,0c0,0,0,0,0,0c0,0,0,0,0,0c0,0,0,0,0,0l0-0.3C65.8,55.3,65.8,55.3,65.8,55.2
						C65.8,55.2,65.8,55.2,65.8,55.2C65.8,55.2,65.8,55.2,65.8,55.2L65.8,55.2L65.8,55.2L65.8,55.2z M65.9,55.5l0,0.2c0,0,0,0,0,0
						c0,0,0.1,0,0.1,0c0,0,0,0,0-0.1C66,55.6,66,55.5,65.9,55.5C65.9,55.5,65.9,55.5,65.9,55.5C65.9,55.5,65.9,55.5,65.9,55.5
						L65.9,55.5z M65.9,55.4C65.9,55.4,65.9,55.4,65.9,55.4C65.9,55.4,65.9,55.4,65.9,55.4c0.1,0,0.1-0.1,0.1-0.1c0,0,0-0.1,0-0.1
						s0,0-0.1,0c0,0,0,0,0,0c0,0,0,0,0,0L65.9,55.4L65.9,55.4z M66.3,55.2L66.3,55.2c0.1,0,0.2,0,0.2,0l0,0l0,0.1h0l0-0.1L66.3,55.2
						l0,0.3l0,0c0,0,0,0,0.1,0c0,0,0,0,0,0l0-0.1l0,0c0,0,0,0.1,0,0.1c0,0,0,0,0,0.1l0,0l0-0.1c0,0,0,0,0,0c0,0,0,0-0.1,0l0,0l0,0.1
						c0,0,0,0.1,0,0.1l0.1,0l0.1-0.1h0l0,0.1l0,0c-0.1,0-0.1,0-0.1,0l-0.1,0c0,0-0.1,0-0.1,0l0,0l0,0c0,0,0,0,0,0c0,0,0,0,0,0
						c0,0,0,0,0,0l0.1-0.3C66.2,55.3,66.2,55.3,66.3,55.2C66.3,55.3,66.3,55.3,66.3,55.2C66.3,55.3,66.3,55.3,66.3,55.2L66.3,55.2
						L66.3,55.2C66.2,55.2,66.3,55.2,66.3,55.2L66.3,55.2z M66.6,55.8C66.6,55.8,66.6,55.8,66.6,55.8C66.6,55.9,66.6,55.9,66.6,55.8
						C66.6,55.9,66.6,55.9,66.6,55.8l0,0.1l0,0c0,0,0,0-0.1,0c0,0-0.1,0-0.1,0l0,0h0c0,0,0,0,0,0c0,0,0,0,0,0
						C66.6,55.8,66.6,55.8,66.6,55.8l0-0.3c0,0,0,0,0,0c0,0,0,0,0,0c0,0,0,0,0,0l0,0l0,0c0,0,0.1,0,0.1,0c0,0,0,0,0,0c0,0,0,0,0,0
						c0,0,0,0,0,0c0,0,0,0,0,0c0.1,0,0.1,0,0.1,0.1c0,0,0,0.1,0,0.1c0,0,0,0.1-0.1,0.1c0,0-0.1,0-0.1,0c0,0,0,0.1,0,0.1
						c0,0,0,0,0,0.1c0,0,0,0,0,0.1c0,0,0,0,0,0c0,0,0,0,0,0c0,0,0,0,0,0c0,0,0,0,0,0c0,0,0,0,0,0l0,0c0,0,0,0-0.1,0c0,0,0,0,0,0
						c0,0,0,0,0,0c0,0,0,0,0,0C66.7,55.9,66.7,55.9,66.6,55.8C66.7,55.8,66.7,55.8,66.6,55.8C66.7,55.8,66.7,55.7,66.6,55.8
						c0.1-0.1,0.1-0.1,0.1-0.1c0,0,0,0,0,0c0,0,0,0,0,0c0,0,0,0,0,0l0,0L66.6,55.8L66.6,55.8z M66.7,55.6
						C66.7,55.6,66.7,55.6,66.7,55.6C66.8,55.7,66.8,55.7,66.7,55.6c0.1,0,0.1,0,0.1-0.1c0,0,0-0.1,0-0.1c0,0,0,0,0,0c0,0,0,0,0,0
						c0,0,0,0,0,0L66.7,55.6L66.7,55.6z M67,56.1C67,56.1,67,56.1,67,56.1L67,56.1L67,56.1C67,56,67,56,67,56.1c0-0.1,0-0.1,0-0.1
						l0.2-0.4l-0.1,0L67,55.6l0,0l0.1-0.1h0c0,0,0.1,0,0.1,0.1l0.1,0c0,0,0.1,0,0.1,0.1l0,0l-0.1,0.1l0,0l0-0.1l-0.1,0L67,56.1
						C67.1,56,67.1,56,67,56.1C67.1,56.1,67.1,56.1,67,56.1l0.1,0L67,56.1C67.1,56.1,67.1,56.1,67,56.1L67,56.1z M67.4,56.1
						L67.4,56.1C67.3,56.1,67.3,56.1,67.4,56.1C67.3,56.2,67.3,56.2,67.4,56.1c-0.1,0.1-0.1,0.1-0.1,0.1c0,0,0,0,0,0l0,0l0,0
						c0,0,0,0-0.1,0c0,0,0,0-0.1,0l0,0l0,0c0,0,0,0,0,0c0,0,0,0,0,0l0.4-0.3l0,0l-0.1,0.5c0,0,0,0,0,0c0,0,0,0,0,0l0,0l0,0
						c0,0,0,0-0.1,0c0,0-0.1,0-0.1-0.1l0,0l0,0c0,0,0,0,0,0c0,0,0,0,0,0c0,0,0,0,0,0c0,0,0,0,0,0l0-0.1L67.4,56.1L67.4,56.1z
						 M67.5,55.9C67.5,55.9,67.5,55.9,67.5,55.9L67.4,56l0.1,0.1L67.5,55.9C67.5,55.9,67.5,55.9,67.5,55.9L67.5,55.9z M67.6,56.5
						C67.6,56.4,67.6,56.4,67.6,56.5L67.6,56.5L67.6,56.5C67.6,56.4,67.6,56.4,67.6,56.5C67.6,56.4,67.6,56.4,67.6,56.5
						c0-0.1,0-0.1,0.1-0.1l0.2-0.3c0,0,0,0,0,0c0,0,0,0,0,0c0,0,0,0,0,0l0,0l0,0c0,0,0,0,0.1,0.1c0,0,0,0,0.1,0c0,0,0,0,0.1,0
						c0.1,0,0.1,0.1,0.1,0.2c0,0.1,0,0.1-0.1,0.2c-0.1,0.1-0.1,0.1-0.2,0.1C67.8,56.6,67.8,56.6,67.6,56.5
						C67.7,56.5,67.7,56.5,67.6,56.5C67.7,56.5,67.6,56.5,67.6,56.5L67.6,56.5z M67.7,56.5C67.7,56.5,67.7,56.5,67.7,56.5
						C67.7,56.5,67.7,56.5,67.7,56.5c0.1,0.1,0.1,0.1,0.2,0.1c0,0,0.1-0.1,0.1-0.1c0.1-0.1,0.1-0.1,0.1-0.2c0,0,0-0.1,0-0.1
						c0,0,0,0,0,0L67.7,56.5L67.7,56.5z"/>
				</g>
				<g>
					<path fill="#006200" d="M59.1,67C59.2,67.1,59.2,67.1,59.1,67c0.1,0,0.2,0,0.2,0l0,0c0,0,0,0-0.1,0
						C59.2,67.1,59.2,67.1,59.1,67L59.1,67L59.1,67z"/>
					<path fill="#006200" d="M58,66.3c0,0.1,0,0.2,0,0.2c0,0.1,0,0.2,0.1,0.3l0,0c0,0-0.1-0.2-0.1-0.3C58,66.5,58,66.4,58,66.3
						L58,66.3L58,66.3z"/>
					<path fill="#00FF00" d="M56.6,61C56.6,61,56.6,61,56.6,61c0,0,0.1,0.1,0.1,0.1l0,0C56.7,61.1,56.6,61.1,56.6,61L56.6,61
						L56.6,61L56.6,61z"/>
					<path fill="#006200" d="M57.4,61.9c-0.1,0-0.3,0.1-0.4,0.1c-0.1,0.1-0.2,0.2-0.3,0.3l0,0c0.1-0.1,0.2-0.2,0.3-0.3
						C57.1,61.9,57.3,61.9,57.4,61.9L57.4,61.9L57.4,61.9z"/>
					<path fill="#006200" d="M57.7,61.2c0,0-0.1,0.1-0.1,0.1c-0.1,0.1-0.2,0.3-0.3,0.4c0,0.1,0,0.1-0.1,0.2c0,0.1-0.1,0.3-0.2,0.5
						c-0.2,0.3-0.3,0.3-0.3,0.3l0,0c0,0,0.1,0,0.3-0.3c0.1-0.2,0.1-0.3,0.2-0.5c0-0.1,0-0.1,0.1-0.2c0-0.1,0.2-0.3,0.3-0.4
						C57.6,61.3,57.6,61.2,57.7,61.2L57.7,61.2L57.7,61.2z"/>
					<path fill="#006200" d="M56.2,62.5c0,0,0,0.1,0.1,0.1c0.1,0.1,0.2,0.2,0.2,0.4l0,0c0-0.1-0.1-0.3-0.2-0.4
						C56.2,62.6,56.1,62.5,56.2,62.5L56.2,62.5L56.2,62.5z"/>
					<path fill="#006200" d="M57,63.2c0,0.1,0,0.1,0,0.1c0,0,0,0.1,0,0.2c0,0.1,0,0.2,0,0.2c0,0.1,0,0.1,0,0.1l0,0c0,0,0-0.1,0-0.1
						c0-0.1,0-0.1,0-0.2c0-0.1,0-0.1,0-0.2C57,63.3,57,63.3,57,63.2L57,63.2L57,63.2z"/>
					<path fill="#006200" d="M57.3,65.2c0,0.1-0.1,0.1-0.1,0.2l0,0c0,0.1,0,0.2,0,0.2l0,0c0-0.1,0-0.2,0-0.2l0,0
						C57.2,65.3,57.2,65.3,57.3,65.2L57.3,65.2L57.3,65.2z"/>
					<path fill="#006200" d="M56.5,65c0.1,0,0.2,0.1,0.3,0.2c0.1,0.1,0.1,0.1,0.2,0.2l0,0c-0.1-0.1-0.1-0.1-0.2-0.2
						C56.7,65.1,56.6,65.1,56.5,65L56.5,65L56.5,65z"/>
					<path fill="#006200" d="M57.4,63.5L57.4,63.5c-0.2,0.2-0.5,0.4-0.6,0.8l0,0C56.9,64,57.2,63.7,57.4,63.5L57.4,63.5L57.4,63.5
						L57.4,63.5z"/>
					<path fill="#006200" d="M57,60c0,0,0,0.1,0,0.2c0,0.1-0.1,0.2-0.1,0.3c0,0.1-0.1,0.3-0.1,0.5c0,0.2-0.1,0.4-0.1,0.5
						c0,0.2-0.1,0.7-0.1,1.2c0,0.3,0,0.6,0,0.8c0,0.3,0.1,0.9,0.3,1.5c0.1,0.4,0.3,0.8,0.5,1.2c0.6,0.9,1.2,1.3,1.2,1.3l0,0
						c0,0-0.7-0.4-1.3-1.3c-0.2-0.4-0.4-0.8-0.5-1.2c-0.2-0.6-0.3-1.2-0.3-1.5c0-0.2,0-0.5,0-0.8c0-0.5,0.1-1.1,0.1-1.2
						c0-0.1,0-0.3,0.1-0.5c0-0.2,0.1-0.4,0.1-0.5c0-0.1,0.1-0.2,0.1-0.3C57,60.1,57,60.1,57,60L57,60L57,60z"/>
					<g>
						
							<path fill-rule="evenodd" clip-rule="evenodd" fill="#00863D" stroke="#006200" stroke-width="3.374200e-02" stroke-miterlimit="2.4142" d="
							M56.2,59.8c0,0.3,0.7,0.4,0.4,1.2C56.6,61,55.7,60.8,56.2,59.8L56.2,59.8z"/>
						<path fill="#006200" d="M56.2,60.3c0,0,0.1,0.1,0.2,0.3c0.1,0.1,0.1,0.2,0.2,0.4l0,0c0-0.2-0.1-0.3-0.2-0.4c0,0,0,0,0,0
							c0,0,0,0-0.1,0c0,0,0,0-0.1,0v0c0,0,0,0,0.1,0c0,0,0,0,0.1,0C56.3,60.5,56.3,60.4,56.2,60.3L56.2,60.3L56.2,60.3z"/>
					</g>
					<g>
						
							<path fill-rule="evenodd" clip-rule="evenodd" fill="#00863D" stroke="#006200" stroke-width="3.374200e-02" stroke-miterlimit="2.4142" d="
							M57.7,59.9c-0.1,0.3-0.8,0.1-0.8,1C56.8,60.9,57.8,61,57.7,59.9L57.7,59.9z"/>
						<path fill="#006200" d="M57.4,60.4c-0.1,0-0.2,0.1-0.3,0.2c-0.1,0.1-0.2,0.2-0.3,0.3l0,0c0.1-0.1,0.2-0.2,0.3-0.3c0,0,0,0,0,0
							c0,0,0,0,0.1,0c0,0,0,0,0.1,0l0,0c0,0,0,0-0.1,0c0,0,0,0-0.1,0C57.3,60.5,57.4,60.4,57.4,60.4L57.4,60.4L57.4,60.4z"/>
					</g>
					<g>
						
							<path fill-rule="evenodd" clip-rule="evenodd" fill="#00863D" stroke="#006200" stroke-width="3.374200e-02" stroke-miterlimit="2.4142" d="
							M57.5,60.8c-0.1,0.3-0.8,0.1-0.8,1C56.6,61.8,57.6,61.9,57.5,60.8L57.5,60.8z"/>
						<path fill="#006200" d="M57.2,61.3c-0.1,0-0.2,0.1-0.3,0.2c-0.1,0.1-0.2,0.2-0.3,0.3l0,0c0.1-0.1,0.2-0.2,0.3-0.3c0,0,0,0,0,0
							c0,0,0,0,0.1,0c0,0,0,0,0.1,0l0,0c0,0,0,0-0.1,0c0,0,0,0-0.1,0C57.1,61.3,57.2,61.3,57.2,61.3L57.2,61.3L57.2,61.3z"/>
					</g>
					<g>
						
							<path fill-rule="evenodd" clip-rule="evenodd" fill="#00863D" stroke="#006200" stroke-width="3.199600e-02" stroke-miterlimit="2.4142" d="
							M56.2,60.8c0,0.3,0.7,0.4,0.4,1.1C56.6,61.9,55.7,61.7,56.2,60.8L56.2,60.8z"/>
						<path fill="#006200" d="M56.2,61.3c0,0,0.1,0.1,0.2,0.3c0.1,0.1,0.1,0.2,0.2,0.4l0,0c0-0.1-0.1-0.3-0.2-0.4c0,0,0,0,0,0
							c0,0,0,0-0.1,0c0,0,0,0-0.1,0l0,0c0,0,0,0,0.1,0c0,0,0,0,0.1,0C56.3,61.4,56.3,61.3,56.2,61.3L56.2,61.3L56.2,61.3z"/>
					</g>
					<g>
						
							<path fill-rule="evenodd" clip-rule="evenodd" fill="#00863D" stroke="#006200" stroke-width="3.374200e-02" stroke-miterlimit="2.4142" d="
							M55.1,61.8c0.2,0.3,0.8-0.1,1.1,0.7C56.1,62.5,55.2,62.9,55.1,61.8L55.1,61.8z"/>
						<path fill="#006200" d="M55.4,62.2c0.1,0,0.2,0,0.3,0.1c0.1,0.1,0.3,0.1,0.4,0.2l0,0c-0.1-0.1-0.3-0.2-0.4-0.2c0,0,0,0,0,0
							c0,0,0,0-0.1,0c0,0,0,0-0.1,0l0,0c0,0,0,0,0.1,0c0,0,0,0,0.1,0C55.6,62.2,55.5,62.2,55.4,62.2L55.4,62.2L55.4,62.2z"/>
					</g>
					<g>
						
							<path fill-rule="evenodd" clip-rule="evenodd" fill="#00863D" stroke="#006200" stroke-width="3.374200e-02" stroke-miterlimit="2.4142" d="
							M55.3,60.8c0,0.3,0.7,0.4,0.5,1.2C55.7,62,54.8,61.7,55.3,60.8L55.3,60.8z"/>
						<path fill="#006200" d="M55.3,61.3c0.1,0,0.1,0.1,0.2,0.3c0.1,0.1,0.1,0.2,0.2,0.4l0,0c-0.1-0.1-0.1-0.3-0.2-0.4c0,0,0,0,0,0
							c0,0,0,0-0.1,0c0,0,0,0-0.1,0v0c0,0,0,0,0.1,0c0,0,0,0,0.1,0C55.4,61.4,55.4,61.3,55.3,61.3L55.3,61.3L55.3,61.3z"/>
					</g>
					<g>
						
							<path fill-rule="evenodd" clip-rule="evenodd" fill="#00863D" stroke="#006200" stroke-width="3.374200e-02" stroke-miterlimit="2.4142" d="
							M55.9,61.3c-0.1,0.3,0.6,0.5,0.2,1.3C56.1,62.5,55.3,62.1,55.9,61.3L55.9,61.3z"/>
						<path fill="#006200" d="M55.9,61.8c0,0,0.1,0.2,0.2,0.3c0,0.1,0.1,0.3,0.1,0.4l0,0c0-0.2-0.1-0.3-0.1-0.4c0,0,0,0,0,0
							c0,0,0,0-0.1,0c0,0,0,0-0.1,0l0,0c0,0,0,0,0.1,0c0,0,0,0,0,0C56,61.9,55.9,61.8,55.9,61.8L55.9,61.8L55.9,61.8z"/>
					</g>
					<g>
						
							<path fill-rule="evenodd" clip-rule="evenodd" fill="#00863D" stroke="#006200" stroke-width="3.374200e-02" stroke-miterlimit="2.4142" d="
							M58.6,62c-0.3,0.1-0.5-0.6-1.3-0.2C57.3,61.9,57.8,62.7,58.6,62L58.6,62z"/>
						<path fill="#006200" d="M58.1,62.1c-0.1,0-0.2-0.1-0.3-0.1c-0.1,0-0.3-0.1-0.4-0.1l0,0c0.2,0,0.3,0,0.4,0.1c0,0,0,0,0,0
							c0,0,0,0,0,0.1c0,0,0,0,0,0.1l0,0c0,0,0,0,0-0.1c0,0,0,0,0,0C58,62,58.1,62.1,58.1,62.1L58.1,62.1L58.1,62.1z"/>
					</g>
					<g>
						
							<path fill-rule="evenodd" clip-rule="evenodd" fill="#00863D" stroke="#006200" stroke-width="3.374200e-02" stroke-miterlimit="2.4142" d="
							M58.6,61.6c-0.2,0.2-0.7-0.3-1.2,0.3C57.3,61.9,58.1,62.5,58.6,61.6L58.6,61.6z"/>
						<path fill="#006200" d="M58.1,61.8c-0.1,0-0.2,0-0.4,0c-0.1,0-0.3,0-0.4,0.1l0,0c0.1,0,0.3-0.1,0.4-0.1c0,0,0,0,0,0
							c0,0,0,0,0.1,0c0,0,0,0,0,0l0,0c0,0,0,0,0-0.1c0,0,0,0,0,0C58,61.8,58.1,61.8,58.1,61.8L58.1,61.8L58.1,61.8z"/>
					</g>
					<g>
						
							<path fill-rule="evenodd" clip-rule="evenodd" fill="#00863D" stroke="#006200" stroke-width="3.249500e-02" stroke-miterlimit="2.4142" d="
							M58.5,63.3c-0.2,0.2-0.7-0.3-1.2,0.3C57.3,63.6,58,64.2,58.5,63.3L58.5,63.3z"/>
						<path fill="#006200" d="M58.1,63.5c-0.1,0-0.2,0-0.3,0c-0.1,0-0.3,0-0.4,0.1l0,0c0.1,0,0.3-0.1,0.4-0.1c0,0,0,0,0,0
							c0,0,0,0,0.1,0c0,0,0,0,0,0l0,0c0,0,0,0,0-0.1c0,0,0,0,0,0C57.9,63.5,58,63.5,58.1,63.5L58.1,63.5L58.1,63.5z"/>
					</g>
					<g>
						
							<path fill-rule="evenodd" clip-rule="evenodd" fill="#00863D" stroke="#006200" stroke-width="3.249500e-02" stroke-miterlimit="2.4142" d="
							M57.6,62.4c0.1,0.3-0.6,0.5-0.2,1.2C57.3,63.6,58.2,63.2,57.6,62.4L57.6,62.4z"/>
						<path fill="#006200" d="M57.6,62.9c0,0-0.1,0.2-0.2,0.3c0,0.1-0.1,0.3-0.1,0.4l0,0c0-0.1,0.1-0.3,0.1-0.4c0,0,0,0,0,0
							c0,0,0,0,0.1,0c0,0,0,0,0.1,0l0,0c0,0,0,0-0.1,0c0,0,0,0,0,0C57.5,63,57.6,62.9,57.6,62.9L57.6,62.9L57.6,62.9z"/>
					</g>
					<g>
						
							<path fill-rule="evenodd" clip-rule="evenodd" fill="#00863D" stroke="#006200" stroke-width="3.665500e-02" stroke-miterlimit="2.4142" d="
							M58.3,62.6c-0.1,0.3-0.8,0.1-1,1C57.3,63.6,58.3,63.8,58.3,62.6L58.3,62.6z"/>
						<path fill="#006200" d="M58,63.1c-0.1,0-0.2,0.1-0.3,0.2c-0.1,0.1-0.2,0.2-0.4,0.3l0,0c0.1-0.1,0.2-0.2,0.4-0.3c0,0,0,0,0,0
							c0,0,0.1,0,0.1,0c0,0,0,0,0.1,0l0,0c0,0,0,0-0.1,0c0,0,0,0-0.1,0C57.8,63.2,57.9,63.1,58,63.1L58,63.1L58,63.1z"/>
					</g>
					<g>
						
							<path fill-rule="evenodd" clip-rule="evenodd" fill="#00863D" stroke="#006200" stroke-width="3.104500e-02" stroke-miterlimit="2.4142" d="
							M55.6,62.7c0.2,0.2,0.7-0.1,1,0.6C56.6,63.3,55.8,63.6,55.6,62.7L55.6,62.7z"/>
						<path fill="#006200" d="M55.9,63c0.1,0,0.2,0,0.3,0.1c0.1,0,0.2,0.1,0.4,0.2l0,0c-0.1-0.1-0.2-0.1-0.4-0.2c0,0,0,0,0,0
							c0,0,0,0-0.1,0c0,0,0,0-0.1,0l0,0c0,0,0,0,0.1,0c0,0,0,0,0,0C56.1,63,56,63,55.9,63L55.9,63L55.9,63z"/>
					</g>
					<g>
						
							<path fill-rule="evenodd" clip-rule="evenodd" fill="#00863D" stroke="#006200" stroke-width="3.374200e-02" stroke-miterlimit="2.4142" d="
							M56.5,62.1c0.2,0.3-0.5,0.6,0.1,1.3C56.6,63.4,57.3,62.8,56.5,62.1L56.5,62.1z"/>
						<path fill="#006200" d="M56.7,62.6c0,0.1-0.1,0.2-0.1,0.4c0,0.1,0,0.3,0,0.4l0,0c0-0.2,0-0.3,0-0.4c0,0,0,0,0,0
							c0,0,0,0,0.1-0.1c0,0,0,0,0.1,0l0,0c0,0,0,0-0.1,0c0,0,0,0,0,0C56.6,62.7,56.7,62.6,56.7,62.6L56.7,62.6L56.7,62.6z"/>
					</g>
					<g>
						
							<path fill-rule="evenodd" clip-rule="evenodd" fill="#00863D" stroke="#006200" stroke-width="3.723300e-02" stroke-miterlimit="2.4142" d="
							M55.1,63c0.1,0.3,0.9,0,1.1,0.9C56.2,63.9,55.2,64.2,55.1,63L55.1,63z"/>
						<path fill="#006200" d="M55.5,63.5c0.1,0,0.2,0.1,0.4,0.2c0.1,0.1,0.3,0.2,0.4,0.3l0,0c-0.1-0.1-0.3-0.2-0.4-0.3c0,0,0,0,0,0
							c0,0-0.1,0-0.1,0c0,0,0,0-0.1,0l0,0c0,0,0,0,0.1,0c0,0,0,0,0.1,0C55.6,63.5,55.5,63.5,55.5,63.5L55.5,63.5L55.5,63.5z"/>
					</g>
					<g>
						
							<path fill-rule="evenodd" clip-rule="evenodd" fill="#00863D" stroke="#006200" stroke-width="3.723300e-02" stroke-miterlimit="2.4142" d="
							M55,63.8c0.3,0.2,0.7-0.4,1.4,0.3C56.4,64.1,55.6,64.8,55,63.8L55,63.8z"/>
						<path fill="#006200" d="M55.5,64.1c0.1,0,0.2,0,0.4,0c0.1,0,0.3,0,0.5,0.1l0,0c-0.2,0-0.3-0.1-0.5-0.1c0,0,0,0,0,0
							c0,0,0,0-0.1,0.1c0,0,0,0,0,0.1l0,0c0,0,0,0,0-0.1c0,0,0,0,0,0C55.6,64,55.5,64.1,55.5,64.1L55.5,64.1L55.5,64.1z"/>
					</g>
					<g>
						
							<path fill-rule="evenodd" clip-rule="evenodd" fill="#00863D" stroke="#006200" stroke-width="3.723300e-02" stroke-miterlimit="2.4142" d="
							M56.1,63.4c0,0.4,0.8,0.3,0.7,1.2C56.8,64.7,55.7,64.6,56.1,63.4L56.1,63.4z"/>
						<path fill="#006200" d="M56.3,64c0.1,0,0.2,0.1,0.3,0.3c0.1,0.1,0.2,0.3,0.3,0.4l0,0c-0.1-0.2-0.2-0.3-0.3-0.4c0,0,0,0,0,0
							c0,0,0,0-0.1,0c0,0,0,0-0.1,0l0,0c0,0,0.1,0,0.1,0c0,0,0,0,0.1,0C56.4,64.1,56.3,64,56.3,64L56.3,64L56.3,64z"/>
					</g>
					<g>
						
							<path fill-rule="evenodd" clip-rule="evenodd" fill="#00863D" stroke="#006200" stroke-width="3.336000e-02" stroke-miterlimit="2.4142" d="
							M55.5,64.5c0.2,0.2,0.7-0.2,1.1,0.6C56.6,65,55.8,65.5,55.5,64.5L55.5,64.5z"/>
						<path fill="#006200" d="M55.8,64.8c0.1,0,0.2,0,0.4,0.1c0.1,0,0.3,0.1,0.4,0.2l0,0c-0.1-0.1-0.3-0.1-0.4-0.2c0,0,0,0,0,0
							c0,0,0,0-0.1,0c0,0,0,0-0.1,0l0,0c0,0,0,0,0.1,0c0,0,0,0,0,0C56,64.8,55.9,64.8,55.8,64.8L55.8,64.8L55.8,64.8z"/>
					</g>
					<g>
						
							<path fill-rule="evenodd" clip-rule="evenodd" fill="#00863D" stroke="#006200" stroke-width="3.336000e-02" stroke-miterlimit="2.4142" d="
							M56.2,65.8c0.3,0,0.4,0.7,1.2,0.4C57.4,66.3,57.2,65.4,56.2,65.8L56.2,65.8z"/>
						<path fill="#006200" d="M56.7,65.9c0,0,0.1,0.1,0.3,0.2c0.1,0.1,0.2,0.1,0.4,0.2l0,0c-0.1,0-0.3-0.1-0.4-0.2c0,0,0,0,0,0
							c0,0,0,0,0-0.1c0,0,0,0,0-0.1h0c0,0,0,0,0,0.1c0,0,0,0,0,0.1C56.8,66,56.8,65.9,56.7,65.9L56.7,65.9L56.7,65.9z"/>
					</g>
					<g>
						
							<path fill-rule="evenodd" clip-rule="evenodd" fill="#00863D" stroke="#006200" stroke-width="3.648300e-02" stroke-miterlimit="2.4142" d="
							M58.4,65c-0.2,0.3,0.3,0.8-0.4,1.3C58,66.4,57.4,65.5,58.4,65L58.4,65z"/>
						<path fill="#006200" d="M58.1,65.5c0,0.1,0,0.2,0,0.4c0,0.1-0.1,0.3-0.1,0.5l0,0c0.1-0.2,0.1-0.3,0.1-0.5c0,0,0,0,0,0
							c0,0,0,0,0-0.1c0,0,0,0,0-0.1l0,0c0,0,0,0,0.1,0.1c0,0,0,0,0,0C58.1,65.7,58.1,65.6,58.1,65.5L58.1,65.5L58.1,65.5z"/>
					</g>
					<g>
						
							<path fill-rule="evenodd" clip-rule="evenodd" fill="#00863D" stroke="#006200" stroke-width="2.959000e-02" stroke-miterlimit="2.4142" d="
							M58.8,65.5c-0.1,0.3-0.7,0.1-0.8,0.8C58,66.3,58.8,66.5,58.8,65.5L58.8,65.5z"/>
						<path fill="#006200" d="M58.6,65.9c-0.1,0-0.2,0.1-0.3,0.2c-0.1,0.1-0.2,0.2-0.3,0.3l0,0c0.1-0.1,0.2-0.2,0.3-0.3c0,0,0,0,0,0
							c0,0,0,0,0.1,0c0,0,0,0,0.1,0l0,0c0,0,0,0-0.1,0c0,0,0,0,0,0C58.4,66,58.5,65.9,58.6,65.9L58.6,65.9L58.6,65.9z"/>
					</g>
					<g>
						
							<path fill-rule="evenodd" clip-rule="evenodd" fill="#00863D" stroke="#006200" stroke-width="3.367100e-02" stroke-miterlimit="2.4142" d="
							M57.6,65.1c0,0.3,0.7,0.4,0.4,1.2C58,66.3,57.1,66.1,57.6,65.1L57.6,65.1z"/>
						<path fill="#006200" d="M57.6,65.6c0.1,0,0.1,0.1,0.2,0.3c0.1,0.1,0.1,0.2,0.2,0.4l0,0c0-0.2-0.1-0.3-0.2-0.4c0,0,0,0,0,0
							c0,0,0,0-0.1,0c0,0,0,0-0.1,0l0,0c0,0,0,0,0.1,0c0,0,0,0,0.1,0C57.7,65.8,57.7,65.7,57.6,65.6L57.6,65.6L57.6,65.6z"/>
					</g>
					<g>
						
							<path fill-rule="evenodd" clip-rule="evenodd" fill="#00863D" stroke="#006200" stroke-width="3.367100e-02" stroke-miterlimit="2.4142" d="
							M56.6,66.4c0.2,0.3,0.8-0.2,1.1,0.6C57.7,67,56.9,67.4,56.6,66.4L56.6,66.4z"/>
						<path fill="#006200" d="M57,66.7c0.1,0,0.2,0,0.4,0.1c0.1,0,0.3,0.1,0.4,0.2l0,0c-0.1-0.1-0.3-0.1-0.4-0.2c0,0,0,0,0,0
							c0,0,0,0-0.1,0c0,0,0,0-0.1,0l0,0c0,0,0,0,0.1,0c0,0,0,0,0.1,0C57.2,66.8,57.1,66.7,57,66.7L57,66.7L57,66.7z"/>
					</g>
					<g>
						
							<path fill-rule="evenodd" clip-rule="evenodd" fill="#00863D" stroke="#006200" stroke-width="4.605100e-02" stroke-miterlimit="2.4142" d="
							M57.5,66.9c0.4-0.1,0.6,0.9,1.7,0.5C59.2,67.4,58.8,66.2,57.5,66.9L57.5,66.9z"/>
						<path fill="#006200" d="M58.2,66.9c0.1,0.1,0.2,0.2,0.4,0.3c0.2,0.1,0.3,0.2,0.6,0.2l0,0c-0.2-0.1-0.4-0.1-0.6-0.2
							c0,0,0,0-0.1,0c0,0,0-0.1,0-0.1c0,0,0-0.1,0-0.1l0,0c0,0,0,0.1,0,0.1c0,0,0,0.1,0,0.1C58.4,67,58.3,67,58.2,66.9L58.2,66.9
							L58.2,66.9z"/>
					</g>
					<g>
						
							<path fill-rule="evenodd" clip-rule="evenodd" fill="#00863D" stroke="#006200" stroke-width="3.775000e-02" stroke-miterlimit="2.4142" d="
							M57.8,67.7c0.4,0.1,0.5-0.7,1.4-0.3C59.2,67.4,58.8,68.3,57.8,67.7L57.8,67.7z"/>
						<path fill="#006200" d="M58.4,67.7c0.1,0,0.2-0.1,0.4-0.2c0.1-0.1,0.3-0.1,0.5-0.1l0,0c-0.2,0-0.3,0.1-0.5,0.1c0,0,0,0,0,0
							c0,0,0,0,0,0.1c0,0,0,0,0,0.1l0,0c0,0,0,0,0-0.1c0,0,0,0,0-0.1C58.5,67.6,58.4,67.6,58.4,67.7L58.4,67.7L58.4,67.7z"/>
					</g>
					<g>
						
							<path fill-rule="evenodd" clip-rule="evenodd" fill="#00863D" stroke="#006200" stroke-width="2.956800e-02" stroke-miterlimit="2.4142" d="
							M58.4,66.5c0.3,0.1,0,0.7,0.8,0.8C59.1,67.3,59.3,66.5,58.4,66.5L58.4,66.5z"/>
						<path fill="#006200" d="M58.7,66.7c0,0.1,0.1,0.2,0.1,0.3c0.1,0.1,0.1,0.2,0.2,0.3l0,0c-0.1-0.1-0.2-0.2-0.2-0.3c0,0,0,0,0,0
							c0,0,0,0,0-0.1c0,0,0,0,0-0.1l0,0c0,0,0,0,0,0.1c0,0,0,0,0,0C58.8,66.8,58.8,66.8,58.7,66.7L58.7,66.7L58.7,66.7z"/>
					</g>
					<g>
						<g>
							
								<path fill-rule="evenodd" clip-rule="evenodd" fill="#00863D" stroke="#006200" stroke-width="3.648300e-02" stroke-miterlimit="2.4142" d="
								M58,64.1c-0.3,0.2,0.1,0.8-0.8,1.2C57.2,65.2,56.8,64.3,58,64.1L58,64.1z"/>
							<path fill="#006200" d="M57.6,64.5c0,0.1,0,0.2-0.1,0.4c-0.1,0.1-0.1,0.3-0.2,0.4l0,0c0.1-0.1,0.2-0.3,0.2-0.4c0,0,0,0,0,0
								c0,0,0,0,0-0.1c0,0,0,0,0-0.1l0,0c0,0,0,0,0,0.1c0,0,0,0,0,0.1C57.5,64.6,57.6,64.5,57.6,64.5L57.6,64.5L57.6,64.5z"/>
						</g>
						<g>
							
								<path fill-rule="evenodd" clip-rule="evenodd" fill="#00863D" stroke="#006200" stroke-width="2.959000e-02" stroke-miterlimit="2.4142" d="
								M58.2,64.6c-0.2,0.2-0.7-0.1-1,0.6C57.2,65.2,58,65.6,58.2,64.6L58.2,64.6z"/>
							<path fill="#006200" d="M57.9,65c-0.1,0-0.2,0-0.3,0.1c-0.1,0-0.2,0.1-0.3,0.2l0,0c0.1-0.1,0.2-0.1,0.3-0.2c0,0,0,0,0,0
								c0,0,0,0,0.1,0c0,0,0,0,0,0l0,0c0,0,0,0-0.1,0c0,0,0,0,0,0C57.7,65,57.8,65,57.9,65L57.9,65L57.9,65z"/>
						</g>
						<g>
							
								<path fill-rule="evenodd" clip-rule="evenodd" fill="#00863D" stroke="#006200" stroke-width="3.367100e-02" stroke-miterlimit="2.4142" d="
								M57.1,63.9c-0.1,0.3,0.6,0.5,0.1,1.3C57.2,65.2,56.4,64.7,57.1,63.9L57.1,63.9z"/>
							<path fill="#006200" d="M57.1,64.4c0,0.1,0.1,0.2,0.1,0.3c0,0.1,0.1,0.3,0.1,0.4h0c0-0.2,0-0.3-0.1-0.4c0,0,0,0,0,0
								c0,0,0,0-0.1,0c0,0,0,0-0.1,0l0,0c0,0,0,0,0.1,0c0,0,0,0,0,0C57.1,64.6,57.1,64.5,57.1,64.4L57.1,64.4L57.1,64.4z"/>
						</g>
					</g>
					<g>
						
							<path fill-rule="evenodd" clip-rule="evenodd" fill="#00863D" stroke="#006200" stroke-width="3.686100e-02" stroke-miterlimit="2.4142" d="
							M58.3,64.4c-0.4,0-0.4-0.8-1.3-0.5C57,63.9,57.3,64.9,58.3,64.4L58.3,64.4z"/>
						<path fill="#006200" d="M57.8,64.3c0-0.1-0.2-0.1-0.3-0.2c-0.1-0.1-0.3-0.1-0.4-0.2l0,0c0.2,0.1,0.3,0.1,0.4,0.2c0,0,0,0,0,0
							c0,0,0,0,0,0.1c0,0,0,0,0,0.1h0c0,0,0,0,0-0.1c0,0,0,0,0-0.1C57.7,64.2,57.7,64.3,57.8,64.3L57.8,64.3L57.8,64.3z"/>
					</g>
					<g>
						
							<path fill-rule="evenodd" clip-rule="evenodd" fill="#00863D" stroke="#006200" stroke-width="3.231200e-02" stroke-miterlimit="2.4142" d="
							M58.8,60.6c-0.2,0.3-0.7-0.1-1.1,0.6C57.8,61.2,58.6,61.6,58.8,60.6L58.8,60.6z"/>
						<path fill="#006200" d="M58.5,60.9c-0.1,0-0.2,0-0.3,0.1c-0.1,0-0.2,0.1-0.4,0.2l0,0c0.1-0.1,0.3-0.1,0.4-0.2c0,0,0,0,0,0
							c0,0,0,0,0.1,0c0,0,0,0,0.1,0l0,0c0,0,0,0-0.1,0c0,0,0,0,0,0C58.3,60.9,58.4,60.9,58.5,60.9L58.5,60.9L58.5,60.9z"/>
					</g>
					<g>
						
							<path fill-rule="evenodd" clip-rule="evenodd" fill="#00863D" stroke="#006200" stroke-width="3.374200e-02" stroke-miterlimit="2.4142" d="
							M58.6,60.1c-0.1,0.3-0.8,0.2-0.8,1C57.8,61.1,58.8,61.2,58.6,60.1L58.6,60.1z"/>
						<path fill="#006200" d="M58.4,60.6c-0.1,0-0.2,0.1-0.3,0.2c-0.1,0.1-0.2,0.2-0.3,0.3l0,0c0.1-0.1,0.2-0.2,0.3-0.3c0,0,0,0,0,0
							c0,0,0,0,0.1,0c0,0,0,0,0.1,0l0,0c0,0,0,0-0.1,0c0,0,0,0-0.1,0C58.3,60.7,58.4,60.6,58.4,60.6L58.4,60.6L58.4,60.6z"/>
					</g>
					<g>
						
							<path fill-rule="evenodd" clip-rule="evenodd" fill="#00863D" stroke="#006200" stroke-width="3.315000e-02" stroke-miterlimit="2.4142" d="
							M58.3,58.9c-0.1,0.3-0.8,0-1,0.8C57.3,59.7,58.2,59.9,58.3,58.9L58.3,58.9z"/>
						<path fill="#006200" d="M58,59.3c-0.1,0-0.2,0.1-0.3,0.1c-0.1,0.1-0.2,0.1-0.3,0.3l0,0c0.1-0.1,0.2-0.2,0.3-0.3c0,0,0,0,0,0
							c0,0,0,0,0.1,0c0,0,0,0,0.1,0l0,0c0,0,0,0-0.1,0c0,0,0,0-0.1,0C57.9,59.3,58,59.3,58,59.3L58,59.3L58,59.3z"/>
					</g>
					<g>
						
							<path fill-rule="evenodd" clip-rule="evenodd" fill="#00863D" stroke="#006200" stroke-width="3.374200e-02" stroke-miterlimit="2.4142" d="
							M58.2,60.1c-0.3,0.2,0.2,0.8-0.6,1.1C57.6,61.3,57.2,60.4,58.2,60.1L58.2,60.1z"/>
						<path fill="#006200" d="M57.9,60.5c0,0.1,0,0.2-0.1,0.4c0,0.1-0.1,0.3-0.2,0.4l0,0c0.1-0.1,0.1-0.3,0.2-0.4c0,0,0,0,0,0
							c0,0,0,0,0-0.1c0,0,0,0,0-0.1l0,0c0,0,0,0,0,0.1c0,0,0,0,0,0.1C57.8,60.7,57.8,60.6,57.9,60.5L57.9,60.5L57.9,60.5z"/>
					</g>
					<g>
						
							<path fill-rule="evenodd" clip-rule="evenodd" fill="#00863D" stroke="#006200" stroke-width="3.796800e-02" stroke-miterlimit="2.4142" d="
							M57.9,58.5c0,0.4-0.8,0.3-0.8,1.2C57.2,59.7,58.2,59.7,57.9,58.5L57.9,58.5z"/>
						<path fill="#006200" d="M57.7,59.1c-0.1,0-0.2,0.1-0.3,0.3c-0.1,0.1-0.2,0.2-0.3,0.4l0,0c0.1-0.2,0.2-0.3,0.3-0.4c0,0,0,0,0,0
							c0,0,0.1,0,0.1,0c0,0,0.1,0,0.1,0l0,0c0,0-0.1,0-0.1,0c0,0,0,0-0.1,0C57.6,59.2,57.7,59.1,57.7,59.1L57.7,59.1L57.7,59.1z"/>
					</g>
					<g>
						
							<path fill-rule="evenodd" clip-rule="evenodd" fill="#00863D" stroke="#006200" stroke-width="3.824900e-02" stroke-miterlimit="2.4142" d="
							M57.2,58.6c-0.2,0.3,0.5,0.7-0.2,1.4C57,60.1,56.2,59.3,57.2,58.6L57.2,58.6z"/>
						<path fill="#006200" d="M57,59.2c0,0.1,0.1,0.2,0.1,0.4c0,0.1,0,0.3,0,0.5l0,0c0-0.2,0-0.3,0-0.5c0,0,0,0,0,0c0,0,0,0-0.1-0.1
							c0,0,0,0-0.1,0l0,0c0,0,0,0,0.1,0c0,0,0,0,0,0C57,59.3,57,59.2,57,59.2L57,59.2L57,59.2z"/>
					</g>
					<g>
						<g>
							
								<path fill-rule="evenodd" clip-rule="evenodd" fill="#00863D" stroke="#006200" stroke-width="3.490900e-02" stroke-miterlimit="2.4142" d="
								M60.3,66.6c0,0.3-0.7,0.4-0.5,1.2C59.9,67.9,60.8,67.6,60.3,66.6L60.3,66.6z"/>
							<path fill="#006200" d="M60.3,67.2c-0.1,0-0.1,0.1-0.2,0.3c-0.1,0.1-0.1,0.3-0.2,0.4l0,0c0.1-0.2,0.1-0.3,0.2-0.4
								c0,0,0,0,0,0c0,0,0,0,0.1,0c0,0,0,0,0.1,0v0c0,0,0,0-0.1,0c0,0,0,0-0.1,0C60.2,67.3,60.2,67.2,60.3,67.2L60.3,67.2L60.3,67.2
								z"/>
						</g>
						<g>
							
								<path fill-rule="evenodd" clip-rule="evenodd" fill="#00863D" stroke="#006200" stroke-width="2.631500e-02" stroke-miterlimit="2.4142" d="
								M59.1,67.1c0.1,0.2,0.6,0.1,0.7,0.7C59.8,67.8,59.1,67.9,59.1,67.1L59.1,67.1z"/>
							<path fill="#006200" d="M59.3,67.4c0,0,0.1,0.1,0.2,0.1c0.1,0.1,0.2,0.1,0.2,0.2l0,0c-0.1-0.1-0.2-0.2-0.2-0.2c0,0,0,0,0,0
								c0,0,0,0-0.1,0c0,0,0,0,0,0l0,0c0,0,0,0,0.1,0c0,0,0,0,0,0C59.4,67.5,59.3,67.5,59.3,67.4L59.3,67.4L59.3,67.4z"/>
						</g>
						<g>
							
								<path fill-rule="evenodd" clip-rule="evenodd" fill="#00863D" stroke="#006200" stroke-width="4.029600e-02" stroke-miterlimit="2.4142" d="
								M59.4,66.4c0.3,0.3-0.4,0.9,0.5,1.5C59.8,67.9,60.5,67,59.4,66.4L59.4,66.4z"/>
							<path fill="#006200" d="M59.7,66.9c0,0.1,0,0.2,0,0.4c0,0.2,0.1,0.3,0.1,0.5l0,0c-0.1-0.2-0.1-0.3-0.1-0.5c0,0,0,0,0-0.1
								c0,0,0,0,0.1-0.1c0,0,0,0,0.1-0.1l0,0c0,0,0,0-0.1,0.1c0,0,0,0,0,0.1C59.7,67.1,59.7,67,59.7,66.9L59.7,66.9L59.7,66.9z"/>
						</g>
					</g>
					<path fill="#006200" d="M56.7,60.1c0,0,0.1,0.1,0.1,0.1c0,0.1,0.1,0.1,0.1,0.2l0,0c0-0.1,0-0.1-0.1-0.2
						C56.8,60.2,56.8,60.2,56.7,60.1L56.7,60.1L56.7,60.1z"/>
					<path fill="#006200" d="M56.9,63.5L56.9,63.5L56.9,63.5c0.1,0,0.1,0.1,0.2,0.1l0,0C57.1,63.6,57,63.5,56.9,63.5L56.9,63.5
						L56.9,63.5L56.9,63.5L56.9,63.5z"/>
					<path fill="#006200" d="M56.4,65.3c0.1,0,0.3,0.1,0.4,0.1c0.1,0.1,0.2,0.1,0.3,0.2l0,0c-0.1-0.1-0.1-0.1-0.2-0.2
						C56.7,65.5,56.6,65.4,56.4,65.3L56.4,65.3L56.4,65.3z"/>
					
						<path fill-rule="evenodd" clip-rule="evenodd" fill="#F20D0B" stroke="#006200" stroke-width="3.374200e-02" stroke-miterlimit="2.4142" d="
						M56.3,65.2c0.1,0,0.1,0.1,0.1,0.1c0,0.1-0.1,0.1-0.1,0.1c-0.1,0-0.1-0.1-0.1-0.1C56.2,65.3,56.2,65.2,56.3,65.2z"/>
					
						<path fill-rule="evenodd" clip-rule="evenodd" fill="#F20D0B" stroke="#006200" stroke-width="3.374200e-02" stroke-miterlimit="2.4142" d="
						M56.5,65.5c0.1,0,0.1,0.1,0.1,0.1c0,0.1-0.1,0.1-0.1,0.1c-0.1,0-0.1-0.1-0.1-0.1C56.4,65.5,56.4,65.5,56.5,65.5z"/>
					
						<circle fill-rule="evenodd" clip-rule="evenodd" fill="#F20D0B" stroke="#006200" stroke-width="3.374200e-02" stroke-miterlimit="2.4142" cx="56.5" cy="64.7" r="0.1"/>
					
						<path fill-rule="evenodd" clip-rule="evenodd" fill="#F20D0B" stroke="#006200" stroke-width="3.374200e-02" stroke-miterlimit="2.4142" d="
						M56.8,63.3c0.1,0,0.1,0.1,0.1,0.1c0,0.1-0.1,0.1-0.1,0.1c-0.1,0-0.1-0.1-0.1-0.1C56.7,63.4,56.8,63.3,56.8,63.3z"/>
					
						<path fill-rule="evenodd" clip-rule="evenodd" fill="#F20D0B" stroke="#006200" stroke-width="3.374200e-02" stroke-miterlimit="2.4142" d="
						M57,63c0.1,0,0.1,0.1,0.1,0.1c0,0.1-0.1,0.1-0.1,0.1c-0.1,0-0.1-0.1-0.1-0.1C56.9,63,56.9,63,57,63z"/>
					
						<path fill-rule="evenodd" clip-rule="evenodd" fill="#F20D0B" stroke="#006200" stroke-width="3.374200e-02" stroke-miterlimit="2.4142" d="
						M56.6,59.9c0.1,0,0.1,0.1,0.1,0.1c0,0.1-0.1,0.1-0.1,0.1c-0.1,0-0.1-0.1-0.1-0.1C56.5,60,56.6,59.9,56.6,59.9z"/>
					
						<circle fill-rule="evenodd" clip-rule="evenodd" fill="#F20D0B" stroke="#006200" stroke-width="3.374200e-02" stroke-miterlimit="2.4142" cx="59.2" cy="66.8" r="0.1"/>
					
						<path fill-rule="evenodd" clip-rule="evenodd" fill="#F20D0B" stroke="#006200" stroke-width="3.374200e-02" stroke-miterlimit="2.4142" d="
						M59.4,66.8c0.1,0,0.1,0.1,0.1,0.1c0,0.1-0.1,0.1-0.1,0.1c-0.1,0-0.1-0.1-0.1-0.1C59.3,66.9,59.3,66.8,59.4,66.8z"/>
					<path fill="#006200" d="M56.6,65.5L56.6,65.5c0,0,0.1,0,0.1,0l0,0C56.7,65.5,56.7,65.5,56.6,65.5L56.6,65.5L56.6,65.5
						L56.6,65.5z"/>
				</g>
				
					<path fill-rule="evenodd" clip-rule="evenodd" fill="#006300" stroke="#C98F2B" stroke-width="1.687100e-02" stroke-miterlimit="2.4142" d="
					M65.1,67.8c0,0,0.6-0.9,0.7-1.4c0,0,0,0.2,0,0.5c0,0,0.2-0.4,0.3-0.7c0,0,0,0.4-0.1,0.6c0,0,0.2-0.3,0.2-0.5c0,0,0,0.2,0,0.5
					c0,0,0.5-0.7,0.9-1.9c0,0-0.1,1.1-0.5,1.7c0,0,0.8-0.7,0.8-2c0,0-0.2-0.7-0.3-0.4c0,0.3,0,0.5,0,0.5s-0.2-0.6,0-0.7
					c0.2-0.1,0.4,0.5,0.4,0.5l0.1-0.2c0,0,0,0.3,0,0.4c0,0.1,0.1,0.5,0.1,0.5l0.1-0.3c0,0-0.2-0.8-0.3-0.9c-0.1-0.1-0.1,0-0.2,0
					c0,0,0-0.2,0.1-0.3c0.1-0.1,0.3,0.4,0.5,0.8c0,0,0-1-0.2-1.3c-0.2-0.2-0.3,0.5-0.3,0.5l0.1-0.6c0,0-0.3,0.4-0.3,0.6
					c0,0-0.1-0.7,0.4-1c0,0,0.2-0.5,0.4-0.1c0.2,0.4,0.5,1.1,0.5,1.1s-0.2-0.8-0.3-0.9c-0.1-0.1-0.8-0.9-1.2-1.1c0,0,0.5,0.1,1,0.6
					c0,0-0.7-0.9-0.9-1.1c0,0,0.6,0.4,1.1,1c0.5,0.7-0.7-1-1.1-1.3c0,0,0.4,0.2,1,0.9c0,0-0.9-1.3-1.4-1.7c0,0,0.6,0.4,1.1,0.9
					c0,0-0.6-0.9-0.8-1.1c0,0,0.6,0.5,0.7,0.6c0,0-0.3-0.4-0.3-0.6c0,0-0.6-0.4-0.6-0.6c0,0,0.3,0.2,0.5,0.3c0,0-0.1-0.7-0.1-0.8
					c0,0,0.3,1.1,0.8,1.2c0,0-0.6-0.7-0.6-1.4c0,0,0.3,0.6,0.5,0.8c0,0-0.1-0.7-0.4-1c0,0,0.5,0.4,0.7,1c0.2,0.6,0.3,0.7,0.3,0.7
					s0.2-0.8,0.4-1c0,0-0.1,1-0.1,1.4c0,0,0.3-1,0.6-1.2c0,0-0.2,0.3-0.2,0.5c0,0,0.3-0.6,0.5-0.7c0,0-0.4,0.8-0.4,1.1
					c0,0,0.3-0.6,0.5-0.7c0,0-0.5,0.9-0.6,1.6c0,0,0.7-1.1,1.1-1.2c0,0-0.6,0.8-0.8,1.3c0,0,0.5-0.7,0.9-0.8c0,0-0.6,0.7-0.9,1.3
					c-0.3,0.6-0.3,0.8-0.3,0.8s0.5-1.2,1.1-1.7c0,0-0.7,0.9-0.8,1.5c0,0,0.6-1.2,1-1.4c0,0-0.7,1.1-0.9,1.7c0,0,0.8-1,1.4-1.1
					c0,0-1.1,1-1.6,2.1c0,0,1.1-1,1.2-1.4c0,0-0.1,0.6-0.8,1.3c0,0,0.9-0.7,1.2-0.8c0,0-1.2,1-1.4,1.6c0,0,1-0.8,1.4-1
					c0,0-1.1,1-1.3,1.2c0,0,0.8-0.5,1.2-0.6c0,0-0.9,0.7-1.1,0.9c0,0,0.8-0.3,1.1-0.4c0,0-0.9,0.5-1,0.7c0,0,0.4-0.1,0.5-0.1
					c0,0,0.3-0.3,0.4-0.4c0,0-0.1,0.2-0.2,0.4c0,0,0.2,0,0.3,0.2c0,0-0.4,0-0.5,0c-0.1,0-0.3,0.3-0.4,0.4c0,0,0.7-0.1,0.9,0
					c0,0-1.2,0.2-1.3,0.3l-0.2,0.2l1.1-0.3l-1,0.4l1.3-0.2l-1.2,0.4l0.1,0.1c0,0-0.9,0.3-0.8,0.3c0,0,0.8-0.1,1-0.1
					c0,0-1.2,0.3-1.6,0.6c0,0,0.6,0.1,0.9,0.3c0,0-0.9-0.1-1.2,0c0,0,0.5,0.1,0.7,0.2c0,0-1.2,0-1.4,0.1c0,0,0.8,0,1,0.2
					c0,0-0.9,0-1.2,0c0,0,0.4,0.1,0.8,0.3C67.8,67.8,66.5,67.8,65.1,67.8L65.1,67.8z"/>
				<g>
					<path fill="#008F4C" d="M68.5,61.3C68.5,61.3,68.5,61.3,68.5,61.3c0-0.3,0.1-1.1,0.5-1.9l0,0C68.7,60.2,68.6,61,68.5,61.3
						C68.6,61.3,68.6,61.3,68.5,61.3L68.5,61.3L68.5,61.3z"/>
					<path fill="#008F4C" d="M68.5,59.4c0,0.2-0.1,0.5-0.1,0.9c0,0.2,0,0.5,0.1,0.7l-0.1,0c-0.1-0.2-0.1-0.5-0.1-0.7
						C68.3,59.9,68.4,59.6,68.5,59.4L68.5,59.4L68.5,59.4z"/>
					<path fill="#008F4C" d="M67.7,58.7c0.1,0.2,0.1,0.3,0.2,0.5c0,0.1,0.1,0.2,0.1,0.4l-0.1,0c-0.1-0.2-0.1-0.3-0.1-0.4
						C67.8,59,67.7,58.9,67.7,58.7L67.7,58.7L67.7,58.7z"/>
					<path fill="#008F4C" d="M67.4,58.8c0,0.1,0.2,0.4,0.4,0.7c0.1,0.2,0.3,0.4,0.4,0.5l0,0c-0.1-0.1-0.3-0.3-0.4-0.5
						C67.6,59.2,67.4,58.9,67.4,58.8L67.4,58.8L67.4,58.8z"/>
					<path fill="#008F4C" d="M67,59.3c0,0,0.3,0.3,0.7,0.5l0,0.1C67.3,59.7,66.9,59.4,67,59.3L67,59.3L67,59.3z"/>
					<path fill="#008F4C" d="M67.2,59.1c0,0.2,0.1,0.4,0.3,0.6c0.1,0.2,0.3,0.5,0.4,0.6l0,0c-0.1-0.2-0.3-0.4-0.4-0.6
						C67.3,59.5,67.2,59.3,67.2,59.1L67.2,59.1L67.2,59.1z"/>
					<path fill="#008F4C" d="M67.6,60.4c0.1,0.1,0.4,0.4,0.6,0.7c0.1,0.2,0.3,0.4,0.3,0.6l-0.1,0c-0.1-0.2-0.2-0.4-0.3-0.6
						C67.9,60.9,67.7,60.6,67.6,60.4L67.6,60.4L67.6,60.4z"/>
					<path fill="#008F4C" d="M67.5,60.7c0.2,0.2,0.4,0.5,0.6,0.8c0.2,0.2,0.3,0.5,0.4,0.7l0,0c-0.1-0.3-0.2-0.5-0.4-0.7
						C67.9,61.2,67.7,60.9,67.5,60.7L67.5,60.7L67.5,60.7z"/>
					<path fill="#008F4C" d="M69.5,60.3c-0.1,0.1-0.2,0.3-0.3,0.5c-0.1,0.2-0.3,0.5-0.4,0.8l0,0c0.1-0.3,0.3-0.5,0.4-0.8
						C69.2,60.6,69.3,60.4,69.5,60.3L69.5,60.3L69.5,60.3z"/>
					<path fill="#008F4C" d="M69.5,60.7c-0.1,0.2-0.3,0.5-0.4,0.7c-0.1,0.2-0.3,0.5-0.3,0.6l-0.1,0c0.1-0.2,0.2-0.4,0.3-0.6
						C69.1,61.2,69.3,60.9,69.5,60.7L69.5,60.7L69.5,60.7z"/>
					<path fill="#008F4C" d="M69.5,61.5c0,0.1-0.1,0.2-0.1,0.2c-0.1,0.3-0.3,0.6-0.4,1l-0.1,0c0.1-0.4,0.3-0.7,0.4-1
						C69.3,61.7,69.4,61.6,69.5,61.5L69.5,61.5L69.5,61.5z"/>
					<path fill="#008F4C" d="M69.6,61.8c-0.1,0.2-0.3,0.5-0.4,0.9c-0.1,0.3-0.2,0.5-0.3,0.7l-0.1,0c0-0.2,0.1-0.4,0.3-0.7
						C69.3,62.3,69.4,62,69.6,61.8L69.6,61.8L69.6,61.8z"/>
					<path fill="#008F4C" d="M70.1,61.8c-0.2,0.2-0.3,0.4-0.5,0.6c-0.1,0.2-0.3,0.4-0.3,0.5l0,0c0.1-0.1,0.2-0.3,0.4-0.5
						C69.7,62.1,69.9,61.9,70.1,61.8L70.1,61.8L70.1,61.8z"/>
					<path fill="#008F4C" d="M70.2,62.5c-0.1,0.1-0.3,0.3-0.5,0.5c-0.3,0.3-0.6,0.5-0.8,0.7l0,0c0.2-0.1,0.5-0.4,0.8-0.7
						C69.9,62.8,70.1,62.6,70.2,62.5L70.2,62.5L70.2,62.5z"/>
					<path fill="#008F4C" d="M69.9,63.1c0,0.1-0.1,0.1-0.2,0.2c-0.2,0.3-0.6,0.6-1.1,1.6l0,0c0.5-0.9,0.8-1.3,1.1-1.6
						C69.8,63.2,69.8,63.1,69.9,63.1L69.9,63.1L69.9,63.1z"/>
					<path fill="#008F4C" d="M67.7,62.7C67.7,62.7,67.8,62.7,67.7,62.7c0.1,0,0.2,0,0.2,0.1c0.1,0.1,0.1,0.2,0.2,0.3
						c0.1,0.2,0.1,0.5,0.2,0.9c0.1,1.1,0.1,1.2,0.1,1.2h-0.1c0,0,0-0.1-0.1-1.2c0-0.4-0.1-0.7-0.2-0.9c-0.1-0.2-0.1-0.2-0.2-0.3
						C67.9,62.7,67.8,62.7,67.7,62.7C67.8,62.7,67.8,62.7,67.7,62.7L67.7,62.7L67.7,62.7z"/>
					<path fill="#008F4C" d="M67.5,62.9c0,0,0.1,0,0.1,0c0.1,0,0.1,0,0.2,0c0.1,0,0.1,0.1,0.2,0.2c0.1,0.1,0.1,0.2,0.1,0.4
						c0.1,0.7,0.1,2.1,0.1,2.1l-0.1,0c0,0,0.1-1.4-0.1-2.1c0-0.2-0.1-0.3-0.1-0.4c0-0.1-0.1-0.1-0.1-0.1c0,0-0.1,0-0.1,0
						C67.5,62.9,67.5,63,67.5,62.9L67.5,62.9L67.5,62.9z"/>
					<path fill="#008F4C" d="M67.6,64.6c0,0.2,0,0.5-0.1,0.9c-0.1,0.3-0.2,0.5-0.3,0.8C66.7,67,66.7,67,66.7,67l0,0c0,0,0,0,0.4-0.7
						c0.2-0.3,0.3-0.5,0.3-0.8C67.5,65.1,67.5,64.7,67.6,64.6L67.6,64.6L67.6,64.6z"/>
					<path fill="#008F4C" d="M67.7,65.7c0,0-0.2-1.2-0.4-1.4l0,0C67.6,64.5,67.8,65.7,67.7,65.7L67.7,65.7L67.7,65.7z"/>
					<path fill="#008F4C" d="M70.7,64.6c-0.1,0-0.6,0.1-1,0.3c-0.3,0.1-0.7,0.3-0.9,0.4c-0.4,0.3-0.7,0.5-0.7,0.5l0,0
						c0,0,0.2-0.2,0.7-0.5c0.2-0.2,0.5-0.3,0.9-0.4C70.1,64.6,70.5,64.5,70.7,64.6L70.7,64.6L70.7,64.6z"/>
					<path fill="#008F4C" d="M70.1,64.2c-0.2,0.1-0.4,0.3-0.6,0.4c-0.2,0.1-0.3,0.2-0.4,0.3l0,0c0.1-0.1,0.2-0.2,0.4-0.3
						C69.7,64.4,69.9,64.3,70.1,64.2L70.1,64.2L70.1,64.2z"/>
					<path fill="#008F4C" d="M70.2,63.8c-0.1,0-0.1,0.1-0.2,0.2c-0.4,0.3-0.9,0.6-1.1,1l0,0c0.2-0.4,0.8-0.8,1.2-1.1
						C70,63.9,70.1,63.8,70.2,63.8L70.2,63.8L70.2,63.8z"/>
					<path fill="#008F4C" d="M69.8,65.7c-0.4,0.1-1.7,0.3-1.7,0.3l0-0.1C68.1,66,69.4,65.8,69.8,65.7L69.8,65.7L69.8,65.7z"/>
					<path fill="#008F4C" d="M70.1,65.2c0,0-0.9,0.2-1.2,0.3l0-0.1C69.1,65.3,70.1,65.1,70.1,65.2L70.1,65.2L70.1,65.2z"/>
					<path fill="#008F4C" d="M70.6,64.5c-0.1,0.1-0.4,0.3-0.7,0.6c-0.2,0.2-0.4,0.3-0.5,0.4c-0.1,0.1-0.6,0.4-0.9,0.6
						c-0.3,0.2-0.6,0.4-0.7,0.4l0,0c0.1-0.1,0.4-0.2,0.7-0.4c0.4-0.2,0.8-0.5,0.9-0.6c0.1-0.1,0.3-0.2,0.5-0.4
						C70.2,64.8,70.5,64.5,70.6,64.5L70.6,64.5L70.6,64.5z"/>
					<path fill="#008F4C" d="M68.9,66.4c0,0-1.5,0.5-1.7,0.6l0-0.1C67.3,66.8,68.9,66.3,68.9,66.4L68.9,66.4L68.9,66.4z"/>
					<path fill="#008F4C" d="M68.6,67c-0.1,0-0.3,0-0.4,0c-0.3,0-0.5,0-0.6,0l0-0.1c0.1,0,0.3,0,0.6,0C68.4,66.9,68.5,66.9,68.6,67
						L68.6,67L68.6,67z"/>
					<path fill="#008F4C" d="M68,67.2c-0.2,0-0.5,0-0.7,0c-0.2,0-0.4,0-0.5,0.1l0-0.1c0.1,0,0.3-0.1,0.5-0.1
						C67.5,67.1,67.8,67.1,68,67.2L68,67.2L68,67.2z"/>
					<path fill="#008F4C" d="M67.4,67.4c-0.1,0-0.3,0-0.5,0c-0.3,0-0.6,0-0.7,0.1l0-0.1c0.1,0,0.4,0,0.7-0.1
						C67.1,67.4,67.3,67.4,67.4,67.4L67.4,67.4L67.4,67.4z"/>
					<path fill="#008F4C" d="M67.2,67.7c0,0-0.7,0-1,0l0-0.1C66.5,67.7,67.2,67.7,67.2,67.7L67.2,67.7L67.2,67.7z"/>
					<path fill="#008F4C" d="M66.5,66.5c0,0.1-0.1,0.2-0.1,0.3c-0.1,0.2-0.2,0.5-0.3,0.6l0,0c0.1-0.1,0.2-0.4,0.3-0.6
						C66.4,66.7,66.4,66.6,66.5,66.5L66.5,66.5L66.5,66.5z"/>
					<path fill="#008F4C" d="M66.1,66.9c-0.1,0.2-0.4,0.7-0.4,0.7l0,0C65.7,67.5,66,67,66.1,66.9L66.1,66.9L66.1,66.9z"/>
					<path fill="#008F4C" d="M65.9,66.9c0,0.1-0.1,0.2-0.1,0.3c0,0.1-0.1,0.2-0.1,0.2l0,0c0-0.1,0.1-0.1,0.1-0.2
						C65.8,67.1,65.8,67,65.9,66.9L65.9,66.9L65.9,66.9z"/>
					<path fill="#008F4C" d="M65.7,66.9c0,0.1-0.1,0.4-0.1,0.4l0,0C65.5,67.3,65.6,67,65.7,66.9L65.7,66.9L65.7,66.9z"/>
				</g>
				<g>
					<path fill-rule="evenodd" clip-rule="evenodd" fill="#006300" d="M61.1,69.9c0.3-0.1,0.7-0.3,1-0.4c0.2-0.1-1.1-0.7-1.2-0.8
						c-0.1-0.1,2.1-0.5,2.1-0.5l2,0.5c0,0-0.8,0.3-1.1,0.5c-0.3,0.2-0.2,0.3,0,0.4c0.2,0.1,0.7,0.3,0.8,0.4c0.1,0.1,0,0.3-0.3,0.2
						c-0.3-0.1-1.4-0.8-1.4-0.8s-1.1,0.7-1.5,0.8C60.9,70.2,60.9,69.9,61.1,69.9L61.1,69.9z"/>
					<path fill-rule="evenodd" clip-rule="evenodd" fill="#FFF200" d="M61.2,69.9c0.1,0,0.1,0,0.1,0.1c0,0.1-0.1,0.1-0.1,0.1
						c-0.1,0-0.1,0-0.1-0.1C61,69.9,61.1,69.9,61.2,69.9L61.2,69.9z"/>
					<path fill-rule="evenodd" clip-rule="evenodd" fill="#FFF200" d="M64.4,69.9c0.1,0,0.1,0,0.1,0.1c0,0.1-0.1,0.1-0.1,0.1
						c-0.1,0-0.1,0-0.1-0.1C64.3,69.9,64.3,69.9,64.4,69.9L64.4,69.9z"/>
				</g>
				<g>
					
						<path fill-rule="evenodd" clip-rule="evenodd" fill="#FF0000" stroke="#000000" stroke-width="2.530700e-02" stroke-miterlimit="2.4142" d="
						M62.9,68.6c0,0-1.2,0-2.4,0.3c-0.7,0.2-1.9,0.5-2,0.9c0,0-0.6-0.5-0.7-1c0,0,1.1-1.3,5.1-1.3c4,0,5.1,1.3,5.1,1.3
						c-0.1,0.6-0.7,1-0.7,1c-0.1-0.4-1.3-0.8-2-0.9C64,68.5,62.9,68.6,62.9,68.6L62.9,68.6z"/>
					
						<path fill-rule="evenodd" clip-rule="evenodd" fill="#FF0000" stroke="#000000" stroke-width="2.530700e-02" stroke-miterlimit="2.4142" d="
						M59.7,69.1l0.1,0.4c0,0-0.2,0-0.7,0.3c-0.5,0.4-0.7,0.1-0.7,0C58.5,69.5,59.1,69.2,59.7,69.1L59.7,69.1z"/>
					
						<path fill-rule="evenodd" clip-rule="evenodd" fill="#FF0000" stroke="#000000" stroke-width="2.530700e-02" stroke-miterlimit="2.4142" d="
						M59.8,69.4c0,0,0,0.3-0.4,0.5c-0.5,0.2-1,0.2-1.3,0c-0.3-0.2-0.7-0.7-0.9-1.1c-0.2-0.4-0.5-1.1-0.9-1c0,0,0.1-0.4,0.6-0.7
						c0,0,0.5-0.1,1.2,1.3l0,0c-0.2,0.2-0.3,0.3-0.3,0.3c0.1,0.4,0.4,0.8,0.6,1c0.1,0.1,0.1,0.1,0.1,0.1c0.1,0.1,0.3,0.2,0.7-0.1
						C59.6,69.4,59.8,69.4,59.8,69.4L59.8,69.4z"/>
					
						<path fill-rule="evenodd" clip-rule="evenodd" fill="#FF0000" stroke="#000000" stroke-width="2.530700e-02" stroke-miterlimit="2.4142" d="
						M56.7,67.4c-0.1-0.2-0.2-0.4-0.4-0.7c-0.4-0.4-0.6-0.7-0.6-0.7s0.2,0.8,0.2,0.9c0,0-0.2-0.3-0.9-0.4c0,0,0.5,0.5,0.7,1.2
						c0.2,0.7,0.8,1.1,0.9,1.1c0.1,0,0.3,0,0.4-0.1c-0.2-0.4-0.5-0.9-0.8-0.9C56.3,67.9,56.4,67.6,56.7,67.4L56.7,67.4z"/>
					
						<path fill-rule="evenodd" clip-rule="evenodd" fill="#FF0000" stroke="#000000" stroke-width="2.530700e-02" stroke-miterlimit="2.4142" d="
						M56.3,67.9c0,0.1-0.1,0.4,0.4,0.6c0.4,0.2,0.3,0.4,0.3,0.4c0,0,0.1,0,0.1-0.1C56.9,68.4,56.6,67.9,56.3,67.9L56.3,67.9z"/>
					
						<path fill-rule="evenodd" clip-rule="evenodd" fill="#FF0000" stroke="#000000" stroke-width="2.530700e-02" stroke-miterlimit="2.4142" d="
						M66,69.1l-0.1,0.4c0,0,0.2,0,0.7,0.3c0.5,0.4,0.7,0.1,0.7,0C67.2,69.5,66.6,69.2,66,69.1L66,69.1z"/>
					
						<path fill-rule="evenodd" clip-rule="evenodd" fill="#FF0000" stroke="#000000" stroke-width="2.530700e-02" stroke-miterlimit="2.4142" d="
						M65.9,69.4c0,0,0,0.3,0.4,0.5c0.5,0.2,1,0.2,1.3,0c0.3-0.2,0.7-0.7,0.9-1.1c0.2-0.4,0.5-1.1,0.9-1c0,0-0.1-0.4-0.6-0.7
						c0,0-0.5-0.1-1.2,1.3l0,0c0.2,0.2,0.3,0.3,0.3,0.3c-0.1,0.4-0.4,0.8-0.6,1c-0.1,0.1-0.1,0.1-0.1,0.1c-0.1,0.1-0.3,0.2-0.7-0.1
						C66.1,69.4,65.9,69.4,65.9,69.4L65.9,69.4z"/>
					
						<path fill-rule="evenodd" clip-rule="evenodd" fill="#FF0000" stroke="#000000" stroke-width="2.530700e-02" stroke-miterlimit="2.4142" d="
						M69,67.4c0.1-0.2,0.2-0.4,0.4-0.7C69.8,66.3,70,66,70,66s-0.2,0.8-0.2,0.9c0,0,0.2-0.3,0.9-0.4c0,0-0.5,0.5-0.7,1.2
						c-0.2,0.7-0.8,1.1-0.9,1.1c-0.1,0-0.3,0-0.4-0.1c0.2-0.4,0.5-0.9,0.8-0.9C69.4,67.9,69.3,67.6,69,67.4L69,67.4z"/>
					
						<path fill-rule="evenodd" clip-rule="evenodd" fill="#FF0000" stroke="#000000" stroke-width="2.530700e-02" stroke-miterlimit="2.4142" d="
						M69.4,67.9c0.1,0.1,0.1,0.4-0.4,0.6c-0.4,0.2-0.3,0.4-0.3,0.4c0,0-0.1,0-0.1-0.1C68.8,68.4,69.1,67.9,69.4,67.9L69.4,67.9z"/>
					<path fill-rule="evenodd" clip-rule="evenodd" fill="#FFF200" d="M59.1,68.8C59.1,68.8,59.1,68.8,59.1,68.8
						C59.2,68.9,59.2,68.9,59.1,68.8C59.2,68.9,59.2,68.9,59.1,68.8L59.1,68.8l0.1,0.1c0,0,0,0-0.1,0c0,0-0.1,0-0.1,0l0,0l0,0
						c0,0,0,0,0,0C59.1,68.9,59.1,68.9,59.1,68.8C59.1,68.9,59.1,68.9,59.1,68.8l-0.2-0.3c0,0,0,0,0,0c0,0,0,0,0,0c0,0,0,0,0,0h0
						l0,0c0,0,0.1,0,0.1,0c0,0,0,0,0,0c0,0,0,0,0,0c0,0,0,0,0,0c0,0,0,0,0,0c0,0,0.1,0,0.1,0c0,0,0.1,0,0.1,0.1c0,0,0,0.1,0,0.1
						c0,0,0,0.1,0,0.1c0,0,0,0,0.1,0.1c0,0,0,0,0,0c0,0,0,0,0,0c0,0,0,0,0,0c0,0,0,0,0,0c0,0,0,0,0,0c0,0,0,0,0,0c0,0,0,0,0,0l0,0
						c0,0,0,0-0.1,0c0,0,0,0,0,0c0,0,0,0,0,0c0,0,0,0,0,0C59.3,68.8,59.2,68.8,59.1,68.8C59.2,68.8,59.2,68.8,59.1,68.8
						c0-0.1,0-0.1,0-0.1c0,0,0,0,0,0c0,0,0,0,0,0c0,0,0,0,0,0c0,0,0,0,0,0l0,0L59.1,68.8L59.1,68.8z M59.1,68.7
						C59.1,68.7,59.1,68.6,59.1,68.7C59.1,68.6,59.1,68.6,59.1,68.7c0.1-0.1,0.1-0.1,0.1-0.2c0,0,0-0.1,0-0.1c0,0,0,0-0.1,0
						c0,0,0,0,0,0c0,0,0,0,0,0L59.1,68.7L59.1,68.7z M59.4,68.3L59.4,68.3c0.1,0,0.2,0,0.2-0.1l0,0l0,0.1l0,0l0-0.1L59.4,68.3
						l0.1,0.2l0,0c0,0,0,0,0.1,0c0,0,0,0,0,0l0-0.1l0,0c0,0,0,0.1,0,0.1c0,0,0,0,0,0.1l0,0l0-0.1c0,0,0,0,0,0c0,0,0,0-0.1,0l0,0
						l0,0.1c0,0,0,0.1,0,0.1l0.1,0l0-0.1l0,0l0,0.1l0,0c0,0-0.1,0-0.1,0l-0.1,0c0,0,0,0-0.1,0l0,0l0,0c0,0,0,0,0,0c0,0,0,0,0,0
						c0,0,0,0,0,0l-0.1-0.3C59.4,68.4,59.4,68.4,59.4,68.3C59.4,68.3,59.4,68.3,59.4,68.3C59.4,68.3,59.3,68.3,59.4,68.3L59.4,68.3
						L59.4,68.3C59.3,68.3,59.3,68.3,59.4,68.3L59.4,68.3z M59.9,68.4C59.9,68.4,59.9,68.4,59.9,68.4C59.9,68.4,59.9,68.4,59.9,68.4
						c0.1-0.1,0.1-0.1,0.1-0.2c0,0,0-0.1,0-0.1c0,0,0,0-0.1,0c0,0,0,0,0,0L59.9,68.4L59.9,68.4z M59.9,68.6
						C59.9,68.6,59.9,68.6,59.9,68.6C59.9,68.6,59.9,68.6,59.9,68.6C59.9,68.7,59.9,68.7,59.9,68.6L59.9,68.6l0.1,0.1
						c0,0-0.1,0-0.1,0c0,0-0.1,0-0.1,0l0,0l0,0C59.8,68.7,59.8,68.7,59.9,68.6C59.8,68.7,59.8,68.6,59.9,68.6
						C59.8,68.6,59.8,68.6,59.9,68.6l-0.2-0.3c0,0,0,0,0,0c0,0,0,0,0,0c0,0,0,0,0,0l0,0l0,0c0,0,0.1,0,0.1,0c0,0,0,0,0.1,0
						c0,0,0,0,0,0c0.1,0,0.1,0,0.1,0c0,0,0.1,0.1,0.1,0.1c0,0.1,0,0.1,0,0.1c0,0-0.1,0.1-0.1,0.1c0,0,0,0,0,0L59.9,68.6L59.9,68.6z
						 M60,68.1C60.1,68.1,60.1,68.1,60,68.1c0.1,0,0.2,0,0.2,0l0,0l0,0c0,0,0,0,0,0c0,0,0,0,0,0c0,0,0,0,0,0l0,0.2
						c0,0.1,0,0.1,0.1,0.1c0,0,0.1,0,0.1,0c0,0,0.1,0,0.1-0.1c0,0,0-0.1,0-0.1l0-0.2c0,0,0,0,0,0s0,0,0,0c0,0,0,0,0,0l0,0l0,0
						c0,0,0,0,0.1,0c0,0,0,0,0.1,0l0,0l0,0c0,0,0,0,0,0c0,0,0,0,0,0c0,0,0,0,0,0l0,0.2c0,0.1,0,0.2,0,0.2c0,0-0.1,0.1-0.1,0.1
						c-0.1,0-0.1,0-0.1,0c0,0-0.1-0.1-0.1-0.2l0-0.2C60.1,68.2,60.1,68.2,60,68.1C60.1,68.1,60.1,68.1,60,68.1
						C60.1,68.1,60.1,68.1,60,68.1L60,68.1L60,68.1L60,68.1z M60.5,68C60.6,68,60.6,68,60.5,68c0.1,0,0.1,0,0.1,0c0,0,0,0,0,0
						c0,0,0.1,0,0.1,0c0,0,0,0,0.1,0.1c0,0.1,0,0.1-0.1,0.1c0,0,0.1,0,0.1,0c0,0,0,0.1,0,0.1c0,0.1,0,0.1,0,0.1c0,0-0.1,0.1-0.1,0.1
						c0,0,0,0,0,0c0,0,0,0,0,0c0,0-0.1,0-0.1,0l0,0l0,0c0,0,0,0,0,0c0,0,0,0,0,0c0,0,0,0,0,0l-0.1-0.3C60.6,68.1,60.6,68,60.5,68
						C60.6,68,60.6,68,60.5,68C60.6,68,60.6,68,60.5,68L60.5,68L60.5,68L60.5,68z M60.7,68.2l0,0.2c0,0,0,0,0,0c0,0,0,0,0.1,0
						c0,0,0-0.1,0-0.1C60.8,68.3,60.8,68.3,60.7,68.2C60.8,68.2,60.8,68.2,60.7,68.2C60.7,68.2,60.7,68.2,60.7,68.2L60.7,68.2z
						 M60.7,68.2C60.7,68.2,60.7,68.2,60.7,68.2C60.8,68.2,60.8,68.2,60.7,68.2c0.1-0.1,0.1-0.1,0.1-0.1c0,0,0-0.1,0-0.1
						c0,0,0,0-0.1,0c0,0,0,0,0,0c0,0,0,0,0,0L60.7,68.2L60.7,68.2z M61.1,68l0,0.3c0,0,0,0.1,0,0.1l0.1,0l0-0.1l0,0l0,0.2l0,0
						c0,0-0.1,0-0.1,0l-0.1,0c0,0-0.1,0-0.1,0l0,0l0,0c0,0,0,0,0,0c0,0,0,0,0,0c0,0,0,0,0,0L61.1,68C61,68,61,68,61.1,68
						C61,68,61,67.9,61.1,68C61,67.9,61,67.9,61,67.9l0,0l0,0c0,0,0.1,0,0.1,0c0,0,0.1,0,0.1,0l0,0L61.1,68
						C61.1,67.9,61.1,67.9,61.1,68C61.1,67.9,61.1,67.9,61.1,68C61.1,68,61.1,68,61.1,68L61.1,68z M61.5,68.3
						C61.5,68.3,61.5,68.3,61.5,68.3C61.5,68.3,61.5,68.3,61.5,68.3C61.5,68.3,61.5,68.4,61.5,68.3l0.1,0.1l0,0c0,0-0.1,0-0.1,0
						c0,0-0.1,0-0.1,0l0,0l0,0C61.4,68.4,61.4,68.4,61.5,68.3C61.4,68.3,61.4,68.3,61.5,68.3C61.4,68.3,61.4,68.3,61.5,68.3
						l-0.1-0.3c0,0,0,0,0,0c0,0,0,0,0,0c0,0,0,0,0,0l0,0l0,0c0,0,0.1,0,0.1,0c0,0,0.1,0,0.1,0l0,0l0,0c0,0,0,0,0,0c0,0,0,0,0,0
						c0,0,0,0,0,0L61.5,68.3L61.5,68.3z M61.9,67.9L61.9,67.9l0-0.1c0,0,0,0-0.1,0c0,0-0.1,0-0.1,0.1c0,0,0,0.1,0,0.2
						c0,0.1,0,0.1,0.1,0.2c0,0,0.1,0.1,0.1,0.1c0,0,0.1,0,0.1,0l0,0c0,0-0.1,0.1-0.1,0.1c-0.1,0-0.1,0-0.2-0.1
						c0-0.1-0.1-0.1-0.1-0.2c0-0.1,0-0.2,0-0.2c0-0.1,0.1-0.1,0.2-0.1c0,0,0.1,0,0.1,0l0,0L61.9,67.9L61.9,67.9z M62.1,68.2
						L62.1,68.2c0,0.1,0,0.1,0,0.1c0,0,0,0,0,0c0,0,0,0,0,0c0,0,0,0,0,0l0,0l0,0c0,0-0.1,0-0.1,0c0,0,0,0-0.1,0l0,0l0,0c0,0,0,0,0,0
						c0,0,0,0,0,0l0.1-0.5l0,0l0.2,0.5c0,0,0,0,0,0c0,0,0,0,0,0l0,0v0c0,0-0.1,0-0.1,0c0,0-0.1,0-0.1,0l0,0l0,0c0,0,0,0,0,0s0,0,0,0
						c0,0,0,0,0,0c0,0,0,0,0,0l0-0.1L62.1,68.2L62.1,68.2z M62.1,67.9C62.1,67.9,62.1,67.9,62.1,67.9l0,0.2l0.1,0L62.1,67.9
						C62.1,67.9,62.1,67.9,62.1,67.9L62.1,67.9z M62.8,68.3C62.7,68.3,62.7,68.3,62.8,68.3L62.8,68.3L62.8,68.3
						C62.7,68.3,62.7,68.3,62.8,68.3C62.7,68.3,62.7,68.2,62.8,68.3c0-0.1,0-0.1,0-0.1v-0.3c0,0,0,0,0,0c0,0,0,0,0,0c0,0,0,0,0,0
						l0,0l0,0c0,0,0.1,0,0.1,0c0,0,0,0,0.1,0c0,0,0,0,0.1,0c0.1,0,0.1,0,0.2,0.1c0,0,0.1,0.1,0.1,0.2c0,0.1,0,0.2-0.1,0.2
						s-0.1,0.1-0.2,0.1C62.9,68.3,62.8,68.3,62.8,68.3C62.8,68.3,62.8,68.3,62.8,68.3L62.8,68.3z M62.8,68.3
						C62.8,68.3,62.8,68.3,62.8,68.3C62.9,68.3,62.9,68.3,62.8,68.3c0.1,0,0.1,0,0.2-0.1c0,0,0-0.1,0-0.2c0-0.1,0-0.1,0-0.2
						c0,0-0.1-0.1-0.1-0.1c0,0,0,0-0.1,0V68.3L62.8,68.3z M63.3,68c0,0.1,0,0.2,0,0.2c0,0,0.1,0.1,0.1,0.1s0.1,0,0.1-0.1
						c0,0,0-0.1,0-0.2c0-0.1,0-0.1,0-0.2c0,0-0.1-0.1-0.1-0.1c0,0-0.1,0-0.1,0.1C63.3,67.9,63.3,67.9,63.3,68L63.3,68z M63.6,68
						c0,0.1,0,0.2-0.1,0.2c0,0.1-0.1,0.1-0.2,0.1c-0.1,0-0.1,0-0.2-0.1c0-0.1-0.1-0.1-0.1-0.2c0-0.1,0-0.2,0.1-0.2
						c0-0.1,0.1-0.1,0.2-0.1c0.1,0,0.1,0,0.2,0.1C63.6,67.9,63.6,67.9,63.6,68L63.6,68z M64.1,67.8C64.1,67.8,64.1,67.8,64.1,67.8
						c0.1,0,0.1,0,0.1,0v0L64.1,67.8C64.2,67.9,64.2,67.9,64.1,67.8c0.1,0.1,0.1,0.1,0.1,0.1l0,0.3c0,0,0,0.1,0,0.1c0,0,0,0,0,0l0,0
						v0c0,0-0.1,0-0.1,0c0,0-0.1,0-0.1,0v0l0,0c0,0,0,0,0,0c0,0,0,0,0-0.1l0-0.3c0,0,0,0,0-0.1c0,0,0,0,0,0.1l-0.2,0.4l0,0L63.8,68
						c0,0,0,0,0-0.1c0,0,0,0.1,0,0.1l0,0.3c0,0,0,0.1,0,0.1c0,0,0,0,0,0l0,0l0,0c0,0,0,0-0.1,0c0,0,0,0-0.1,0v0l0,0c0,0,0,0,0,0
						c0,0,0,0,0-0.1l0-0.3c0,0,0,0,0-0.1c0,0,0,0,0,0l0,0l0,0c0,0,0.1,0,0.1,0c0,0,0,0,0.1,0l0.1,0.4c0,0,0,0,0,0c0,0,0,0,0,0
						L64.1,67.8L64.1,67.8z M64.4,68.3C64.4,68.3,64.4,68.3,64.4,68.3C64.4,68.3,64.4,68.4,64.4,68.3C64.4,68.4,64.4,68.4,64.4,68.3
						l0,0.1l0,0c0,0-0.1,0-0.1,0c0,0-0.1,0-0.1,0v0l0,0C64.3,68.4,64.3,68.4,64.4,68.3C64.3,68.3,64.3,68.3,64.4,68.3
						C64.3,68.3,64.3,68.3,64.4,68.3l0-0.3c0,0,0,0,0,0c0,0,0,0,0,0c0,0,0,0,0,0l0,0l0,0c0,0,0.1,0,0.1,0c0,0,0.1,0,0.1,0v0l0,0
						c0,0,0,0,0,0c0,0,0,0,0,0c0,0,0,0,0,0L64.4,68.3L64.4,68.3z M64.6,68.4C64.6,68.4,64.6,68.4,64.6,68.4L64.6,68.4L64.6,68.4
						C64.6,68.4,64.5,68.4,64.6,68.4C64.5,68.4,64.5,68.4,64.6,68.4L64.6,68.4L64.6,68.4C64.5,68.4,64.5,68.4,64.6,68.4
						C64.5,68.4,64.5,68.3,64.6,68.4l0-0.4c0,0,0,0,0-0.1c0,0,0,0,0,0l0,0l0,0c0,0,0,0,0.1,0c0,0,0,0,0.1,0l0.1,0.4c0,0,0,0,0,0
						c0,0,0,0,0-0.1l0-0.2c0,0,0,0,0-0.1c0,0,0,0,0,0l0,0l0,0c0,0,0,0,0.1,0c0,0,0,0,0.1,0l0,0l0,0c0,0,0,0,0,0c0,0,0,0,0,0.1
						l-0.1,0.4h0L64.6,68c0,0,0,0,0,0c0,0,0,0,0,0.1L64.6,68.4C64.6,68.3,64.6,68.4,64.6,68.4L64.6,68.4z M65.1,68.4
						C65.1,68.4,65.1,68.4,65.1,68.4C65.1,68.5,65.1,68.5,65.1,68.4C65.1,68.5,65.1,68.5,65.1,68.4l0,0.1l0,0c0,0-0.1,0-0.1,0
						c0,0-0.1,0-0.1,0l0,0l0,0c0,0,0,0,0,0C65,68.5,65,68.4,65.1,68.4C65,68.4,65,68.4,65.1,68.4l0-0.3c0,0,0,0,0,0c0,0,0,0,0,0
						c0,0,0,0,0,0l0,0l0,0c0,0,0.1,0,0.1,0c0,0,0.1,0,0.1,0l0,0l0,0c0,0,0,0,0,0c0,0,0,0,0,0c0,0,0,0,0,0L65.1,68.4L65.1,68.4z
						 M65.6,68.2L65.6,68.2l0-0.1c0,0,0,0,0,0c0,0-0.1,0-0.1,0c0,0-0.1,0.1-0.1,0.2c0,0.1,0,0.1,0,0.2c0,0.1,0,0.1,0.1,0.1
						c0,0,0.1,0,0.1,0l0,0c0,0-0.1,0-0.1,0c-0.1,0-0.1-0.1-0.1-0.1c0-0.1,0-0.1,0-0.2c0-0.1,0.1-0.2,0.1-0.2c0.1,0,0.1-0.1,0.2,0
						c0,0,0.1,0,0.1,0v0L65.6,68.2L65.6,68.2z M65.7,68.5L65.7,68.5C65.6,68.6,65.6,68.6,65.7,68.5c-0.1,0.1-0.1,0.1-0.1,0.1
						c0,0,0,0,0,0c0,0,0,0,0,0l0,0l0,0c0,0,0,0-0.1,0c0,0,0,0-0.1,0l0,0l0,0c0,0,0,0,0,0C65.6,68.6,65.6,68.6,65.7,68.5l0.2-0.4l0,0
						l0,0.5c0,0,0,0,0,0c0,0,0,0,0,0l0,0l0,0c0,0-0.1,0-0.1,0c0,0-0.1,0-0.1,0l0,0l0,0c0,0,0,0,0,0c0,0,0,0,0,0c0,0,0,0,0,0
						c0,0,0,0,0,0l0-0.1L65.7,68.5L65.7,68.5z M65.8,68.3C65.8,68.3,65.8,68.3,65.8,68.3l-0.1,0.2l0.1,0L65.8,68.3
						C65.8,68.3,65.8,68.3,65.8,68.3L65.8,68.3z M66,68.7C66,68.8,66,68.8,66,68.7L66,68.7L66,68.7C66,68.8,66,68.8,66,68.7
						C66,68.8,66,68.8,66,68.7L66,68.7L66,68.7C66,68.7,66,68.7,66,68.7C66,68.7,66,68.7,66,68.7l0.1-0.4c0,0,0,0,0-0.1c0,0,0,0,0,0
						l0,0l0,0c0,0,0,0,0.1,0c0,0,0,0,0.1,0l0.1,0.4c0,0,0,0,0,0c0,0,0,0,0-0.1l0.1-0.2c0,0,0,0,0-0.1c0,0,0,0,0,0l0,0l0,0
						c0,0,0,0,0.1,0c0,0,0,0,0.1,0l0,0l0,0c0,0,0,0,0,0c0,0,0,0,0,0.1l-0.1,0.4l0,0l-0.1-0.5c0,0,0,0,0,0c0,0,0,0,0,0.1L66,68.7
						C66,68.7,66,68.7,66,68.7L66,68.7z M66.5,68.8L66.5,68.8C66.5,68.8,66.5,68.9,66.5,68.8c-0.1,0.1-0.1,0.1-0.1,0.1c0,0,0,0,0,0
						c0,0,0,0,0,0l0,0l0,0c0,0,0,0-0.1,0c0,0,0,0-0.1,0l0,0h0c0,0,0,0,0,0c0,0,0,0,0,0l0.3-0.4l0,0L66.7,69c0,0,0,0,0,0c0,0,0,0,0,0
						l0,0l0,0c0,0,0,0-0.1,0c0,0-0.1,0-0.1,0l0,0h0c0,0,0,0,0,0c0,0,0,0,0,0c0,0,0,0,0,0c0,0,0,0,0,0l0-0.1L66.5,68.8L66.5,68.8z
						 M66.7,68.6C66.7,68.6,66.7,68.6,66.7,68.6l-0.1,0.2l0.1,0L66.7,68.6C66.7,68.6,66.7,68.6,66.7,68.6L66.7,68.6z"/>
					<g>
						
							<path fill-rule="evenodd" clip-rule="evenodd" fill="#FF0000" stroke="#000000" stroke-width="2.530700e-02" stroke-miterlimit="2.4142" d="
							M62.9,68.9c0.3,0,0.6-0.2,0.8-0.2c0.2,0,0.4,0.1,0.3,0.4c-0.1,0.3,0.1,0.4-0.2,0.5s-0.8-0.2-0.9-0.3L62.9,68.9L62.9,68.9z"/>
						<path d="M63.9,68.8c0,0-0.6,0.2-0.9,0.1l0,0C63.3,69,63.9,68.8,63.9,68.8L63.9,68.8L63.9,68.8z"/>
						<path d="M63.9,69.4c-0.1,0-0.2-0.1-0.4-0.2c-0.1,0-0.3-0.1-0.5-0.1v0c0.2,0,0.3,0,0.5,0.1C63.7,69.3,63.8,69.4,63.9,69.4
							L63.9,69.4L63.9,69.4z"/>
						<path d="M63.1,69.2c0.1,0,0.3,0.1,0.4,0.1c0.1,0,0.2,0.1,0.3,0.1c0,0,0,0,0,0c0,0,0,0,0,0c0,0-0.1,0-0.1,0
							C63.5,69.5,63.1,69.4,63.1,69.2L63.1,69.2c0.1,0.2,0.4,0.3,0.6,0.3c0,0,0.1,0,0.1,0c0,0,0,0,0,0c0,0,0,0,0,0
							c-0.1,0-0.2-0.1-0.3-0.1C63.3,69.3,63.1,69.3,63.1,69.2L63.1,69.2L63.1,69.2z"/>
						
							<path fill-rule="evenodd" clip-rule="evenodd" fill="#FF0000" stroke="#000000" stroke-width="2.530700e-02" stroke-miterlimit="2.4142" d="
							M64.1,68.9c0.1,0.1,0.4,0.2,0.8,0.2c0,0-0.2,0.1-0.3,0.2c0,0,0.1,0.2,0.2,0.4c0,0-0.5-0.1-0.7-0.2c0-0.1,0-0.2,0-0.4
							C64,69,64.1,68.9,64.1,68.9L64.1,68.9z"/>
						
							<path fill-rule="evenodd" clip-rule="evenodd" fill="#FF0000" stroke="#000000" stroke-width="2.530700e-02" stroke-miterlimit="2.4142" d="
							M62.7,68.9c-0.3,0-0.6-0.2-0.8-0.2c-0.2,0-0.4,0.1-0.3,0.4c0.1,0.3-0.1,0.4,0.2,0.5c0.3,0.1,0.8-0.2,0.9-0.3L62.7,68.9
							L62.7,68.9z"/>
						<path d="M61.7,68.8c0,0,0.6,0.2,0.9,0.1l0,0C62.3,69,61.7,68.8,61.7,68.8L61.7,68.8L61.7,68.8z"/>
						<path d="M61.7,69.4c0.1,0,0.2-0.1,0.4-0.2c0.1,0,0.3-0.1,0.5-0.1v0c-0.2,0-0.3,0-0.5,0.1C61.9,69.3,61.7,69.4,61.7,69.4
							L61.7,69.4L61.7,69.4z"/>
						<path d="M62.5,69.2c-0.1,0-0.3,0.1-0.4,0.1c-0.1,0-0.2,0.1-0.3,0.1c0,0,0,0,0,0c0,0,0,0,0,0c0,0,0.1,0,0.1,0
							C62.1,69.5,62.4,69.4,62.5,69.2L62.5,69.2c-0.1,0.2-0.4,0.3-0.6,0.3c0,0-0.1,0-0.1,0c0,0,0,0,0,0c0,0,0,0,0,0
							c0.1,0,0.2-0.1,0.3-0.1C62.3,69.3,62.4,69.3,62.5,69.2L62.5,69.2L62.5,69.2z"/>
						
							<path fill-rule="evenodd" clip-rule="evenodd" fill="#FF0000" stroke="#000000" stroke-width="2.530700e-02" stroke-miterlimit="2.4142" d="
							M61.5,68.9c-0.1,0.1-0.4,0.2-0.8,0.2c0,0,0.2,0.1,0.3,0.2c0,0-0.1,0.2-0.2,0.4c0,0,0.5-0.1,0.7-0.2c0-0.1,0-0.2,0-0.4
							C61.5,69,61.5,68.9,61.5,68.9L61.5,68.9z"/>
						
							<path fill-rule="evenodd" clip-rule="evenodd" fill="#FF0000" stroke="#000000" stroke-width="2.530700e-02" stroke-miterlimit="2.4142" d="
							M62.6,68.7c0.2,0,0.3-0.1,0.4,0c0.1,0.1,0,0.2,0,0.3c0,0.1,0.1,0.3-0.1,0.3c-0.2,0-0.4,0.1-0.5,0c-0.1-0.1,0.1-0.2,0-0.3
							C62.4,69,62.4,68.7,62.6,68.7L62.6,68.7z"/>
					</g>
				</g>
			</g>
		</g>
	</g>
	<path opacity="0.35" fill="#FFFFFF" d="M13,29.7v25.5C26.2,62.6,43.7,67,63,67c19.3,0,36.8-4.5,50-11.8V29.7H13z"/>
</g>
</svg>
