<?xml version="1.0" encoding="utf-8"?>
<!-- Generator: Adobe Illustrator 24.3.0, SVG Export Plug-In . SVG Version: 6.00 Build 0)  -->
<svg version="1.1" id="Layer_1" xmlns="http://www.w3.org/2000/svg" xmlns:xlink="http://www.w3.org/1999/xlink" x="0px" y="0px"
	 viewBox="0 0 126 126" enable-background="new 0 0 126 126" xml:space="preserve">
<g>
	<g>
		<path fill="#107D40" d="M13,29.7h41.7v19c-2.5,1.5-4.6,3.5-6,6H13V29.7L13,29.7z M54.7,77.4v19H13v-25h35.6
			C50.1,73.8,52.2,75.9,54.7,77.4L54.7,77.4z M71.3,29.7H113v25H77.4c-1.4-2.5-3.5-4.6-6-6V29.7L71.3,29.7z M113,71.3v25H71.3v-19
			c2.5-1.5,4.6-3.5,6-6H113L113,71.3z"/>
		<path fill="#FFD31E" d="M54.7,29.7h5.6v17c-2,0.3-3.9,1-5.6,2V29.7L54.7,29.7z M13,54.7h35.6c-1,1.7-1.7,3.6-2,5.6H13V54.7
			L13,54.7z M77.4,54.7H113v5.6H79.4C79,58.2,78.3,56.4,77.4,54.7L77.4,54.7z M60.2,79.4v17h-5.6v-19C56.4,78.3,58.2,79,60.2,79.4
			L60.2,79.4z"/>
		<path d="M60.2,29.7h5.6v17c-0.9-0.2-1.8-0.2-2.8-0.2c-0.9,0-1.9,0.1-2.8,0.2V29.7L60.2,29.7z M13,60.2h33.6
			c-0.2,0.9-0.2,1.8-0.2,2.8c0,0.9,0.1,1.9,0.2,2.8H13V60.2L13,60.2z M79.4,60.2H113v5.6H79.4c0.2-0.9,0.2-1.8,0.2-2.8
			C79.6,62.1,79.5,61.1,79.4,60.2L79.4,60.2z M65.8,79.4v17h-5.6v-17c0.9,0.2,1.8,0.2,2.8,0.2C63.9,79.6,64.9,79.5,65.8,79.4
			L65.8,79.4z"/>
		<path fill="#F4F4F4" d="M65.8,29.7h5.6v19c-1.7-1-3.6-1.7-5.6-2V29.7L65.8,29.7z M13,65.8h33.6c0.3,2,1,3.9,2,5.6H13V65.8L13,65.8
			z M79.4,65.8H113v5.6H77.4C78.3,69.6,79,67.8,79.4,65.8L79.4,65.8z M71.3,77.4v19h-5.6v-17C67.8,79,69.6,78.3,71.3,77.4L71.3,77.4
			z"/>
		<path fill-rule="evenodd" clip-rule="evenodd" fill="#DA0E2B" d="M63,46.4c9.2,0,16.6,7.4,16.6,16.6c0,9.2-7.4,16.6-16.6,16.6
			c-9.2,0-16.6-7.4-16.6-16.6C46.4,53.8,53.8,46.4,63,46.4L63,46.4z"/>
		
			<path fill-rule="evenodd" clip-rule="evenodd" fill="#107D40" stroke="#231F20" stroke-width="5.554300e-02" stroke-miterlimit="2.4142" d="
			M53.9,51.2l1.4,1l1.3-1l-0.5,1.6l1.4,1l-1.7,0l-0.5,1.6l-0.5-1.6l-1.7,0l1.3-1L53.9,51.2L53.9,51.2z M62.9,48.2l0.5,1.6l1.7,0
			l-1.4,1l0.5,1.6l-1.4-1l-1.4,1l0.5-1.6l-1.4-1l1.7,0L62.9,48.2L62.9,48.2z M71.6,51l-1.4,1l-1.4-1l0.5,1.6l-1.4,1l1.7,0l0.5,1.6
			l0.5-1.6l1.7,0l-1.4-1L71.6,51L71.6,51z M77,58.3l-1.7,0l-0.5-1.6l-0.5,1.6l-1.7,0l1.4,1l-0.5,1.6l1.3-1l1.4,1l-0.5-1.6L77,58.3
			L77,58.3z M77.1,67.3l-1.4-1l0.5-1.6l-1.3,1l-1.4-1l0.6,1.6l-1.3,1l1.7,0l0.5,1.6l0.5-1.6L77.1,67.3L77.1,67.3z M71.9,74.8
			l-0.6-1.6l1.3-1l-1.7,0l-0.5-1.6L70,72.3l-1.7,0l1.4,1l-0.5,1.6l1.3-1L71.9,74.8L71.9,74.8z M62.9,77.8l0.5-1.6l1.7,0l-1.4-1
			l0.5-1.6l-1.4,1l-1.4-1l0.5,1.6l-1.4,1l1.7,0L62.9,77.8L62.9,77.8z M54.2,75l0.5-1.6l-1.4-1l1.7,0l0.5-1.6l0.5,1.6l1.7,0l-1.4,1
			l0.5,1.6l-1.4-1L54.2,75L54.2,75z M48.8,67.7l1.4-1l-0.5-1.6l1.4,1l1.3-1l-0.5,1.6l1.4,1l-1.7,0L51,69.3l-0.5-1.6L48.8,67.7
			L48.8,67.7z M48.7,58.7l1.7,0l0.5-1.6l0.5,1.6l1.7,0l-1.3,1l0.6,1.6l-1.4-1l-1.3,1l0.5-1.6L48.7,58.7L48.7,58.7z"/>
		<g>
			
				<path fill-rule="evenodd" clip-rule="evenodd" fill="#107D40" stroke="#000000" stroke-width="3.142500e-02" stroke-miterlimit="2.4142" d="
				M62.8,67.5c0.3,0,0.5,0.5,0.6,1c0.1,0.6-0.1,1.1-0.4,1.1c-0.3,0-0.5-0.5-0.6-1C62.4,68,62.6,67.5,62.8,67.5L62.8,67.5z"/>
			
				<path fill-rule="evenodd" clip-rule="evenodd" fill="#107D40" stroke="#000000" stroke-width="3.142500e-02" stroke-miterlimit="2.4142" d="
				M62.3,66.5c0.3,0,0.5,0.5,0.6,1c0.1,0.6-0.1,1.1-0.4,1.1c-0.3,0-0.5-0.5-0.6-1C61.9,66.9,62,66.5,62.3,66.5L62.3,66.5z"/>
			
				<path fill-rule="evenodd" clip-rule="evenodd" fill="#107D40" stroke="#000000" stroke-width="3.142500e-02" stroke-miterlimit="2.4142" d="
				M62.1,65.2c0.3,0,0.5,0.5,0.6,1c0.1,0.6-0.1,1.1-0.4,1.1c-0.3,0-0.5-0.5-0.6-1C61.6,65.7,61.8,65.2,62.1,65.2L62.1,65.2z"/>
			
				<path fill-rule="evenodd" clip-rule="evenodd" fill="#107D40" stroke="#000000" stroke-width="4.754400e-02" stroke-miterlimit="2.4142" d="
				M63.1,66.5c0.3,0,0.5,0.5,0.6,1c0.1,0.6-0.1,1.1-0.4,1.1c-0.3,0-0.5-0.5-0.6-1C62.7,67,62.9,66.5,63.1,66.5z"/>
			
				<path fill-rule="evenodd" clip-rule="evenodd" fill="#107D40" stroke="#000000" stroke-width="3.142500e-02" stroke-miterlimit="2.4142" d="
				M64.4,69.1c0.1,0.9,0.8,3.8,1.5,3.2l0.3-0.1c0.1,0.1,0.3,0.2,0.4,0.2c0.7-0.3,0.8-3.3,0.8-3.6c0-0.2-0.3-0.9-0.7-0.8
				C65.8,67.9,64.4,69.1,64.4,69.1L64.4,69.1z"/>
			
				<path fill-rule="evenodd" clip-rule="evenodd" fill="#107D40" stroke="#000000" stroke-width="3.142500e-02" stroke-miterlimit="2.4142" d="
				M65.1,69c0.1,0.9,0.3,4.3,1,4c0.7-0.3,0.5-4.8,0.5-5.5c0-0.6-1.3,0.1-1.4,0.2C65.3,68,65.1,69,65.1,69L65.1,69z"/>
			
				<path fill-rule="evenodd" clip-rule="evenodd" fill="#9461C9" stroke="#000000" stroke-width="3.142500e-02" stroke-miterlimit="2.4142" d="
				M60.8,57.9c0,0-0.8,0.9-0.9,3.7c-0.1,2.9,1.1,4.2,1.7,4.9c0.6,0.7,1.9,1.7,1.9,1.7l3.2-0.3l-0.3-0.3c0-0.2-3.3-9.4-3.3-9.4
				L60.8,57.9L60.8,57.9z"/>
			
				<path fill-rule="evenodd" clip-rule="evenodd" fill="#107D40" stroke="#000000" stroke-width="3.142500e-02" stroke-miterlimit="2.4142" d="
				M62.2,56.9c0,0,0,0.1,0,0.1c0,0.3-0.2,0.5-0.5,0.5s-0.5-0.2-0.5-0.5c0-0.1,0.1-0.3,0.2-0.4C61.6,56.8,61.9,56.9,62.2,56.9
				L62.2,56.9z"/>
			
				<path fill-rule="evenodd" clip-rule="evenodd" fill="#107D40" stroke="#000000" stroke-width="3.142500e-02" stroke-miterlimit="2.4142" d="
				M62.9,56.9c0,0.1,0,0.1,0,0.2c0,0.3-0.2,0.5-0.5,0.5c-0.1,0-0.3-0.1-0.4-0.1c0.1-0.1,0.2-0.2,0.2-0.4c0-0.1,0-0.1,0-0.1
				C62.4,57,62.7,56.9,62.9,56.9L62.9,56.9z"/>
			
				<path fill-rule="evenodd" clip-rule="evenodd" fill="#107D40" stroke="#000000" stroke-width="3.142500e-02" stroke-miterlimit="2.4142" d="
				M62.5,57.6c0.1,0.1,0.1,0.2,0.1,0.3c0,0.3-0.2,0.5-0.5,0.5c-0.2,0-0.3-0.1-0.4-0.2c0.1-0.1,0.1-0.2,0.1-0.3c0,0,0,0,0,0l0,0
				c0.1-0.1,0.2-0.2,0.2-0.4l0,0c0,0,0,0,0.1,0h0c0.1,0.1,0.2,0.1,0.4,0.1C62.4,57.6,62.5,57.6,62.5,57.6L62.5,57.6z M61.8,57.6
				C61.8,57.6,61.8,57.6,61.8,57.6C61.8,57.6,61.8,57.6,61.8,57.6L61.8,57.6z M61.8,57.6C61.8,57.6,61.8,57.6,61.8,57.6
				C61.8,57.6,61.8,57.6,61.8,57.6L61.8,57.6z M61.8,57.6C61.8,57.6,61.8,57.6,61.8,57.6C61.8,57.6,61.8,57.6,61.8,57.6L61.8,57.6z
				 M61.8,57.6C61.8,57.6,61.8,57.6,61.8,57.6C61.8,57.6,61.8,57.6,61.8,57.6L61.8,57.6z M61.8,57.6C61.8,57.6,61.8,57.6,61.8,57.6
				C61.8,57.6,61.8,57.6,61.8,57.6L61.8,57.6z M61.8,57.6C61.8,57.6,61.8,57.6,61.8,57.6C61.8,57.6,61.8,57.6,61.8,57.6L61.8,57.6z
				 M61.8,57.6C61.8,57.6,61.8,57.6,61.8,57.6C61.8,57.6,61.8,57.6,61.8,57.6L61.8,57.6z M61.8,57.6C61.7,57.6,61.7,57.6,61.8,57.6
				C61.7,57.6,61.7,57.6,61.8,57.6L61.8,57.6z M61.7,57.6C61.7,57.6,61.7,57.6,61.7,57.6C61.7,57.6,61.7,57.6,61.7,57.6L61.7,57.6z
				 M61.7,57.6C61.7,57.6,61.7,57.6,61.7,57.6C61.7,57.6,61.7,57.6,61.7,57.6L61.7,57.6z M61.7,57.6C61.7,57.6,61.7,57.6,61.7,57.6
				C61.7,57.6,61.7,57.6,61.7,57.6L61.7,57.6z M61.7,57.6C61.7,57.6,61.7,57.6,61.7,57.6C61.7,57.6,61.7,57.6,61.7,57.6
				C61.7,57.6,61.7,57.6,61.7,57.6C61.7,57.6,61.7,57.6,61.7,57.6L61.7,57.6z M61.6,58C61.6,58,61.6,58,61.6,58
				C61.6,58,61.6,58,61.6,58L61.6,58z M61.6,58L61.6,58L61.6,58L61.6,58L61.6,58z"/>
			
				<circle fill-rule="evenodd" clip-rule="evenodd" fill="#107D40" stroke="#000000" stroke-width="3.142700e-02" stroke-miterlimit="2.4142" cx="63.6" cy="57.7" r="0.5"/>
			
				<path fill-rule="evenodd" clip-rule="evenodd" fill="#107D40" stroke="#000000" stroke-width="3.142700e-02" stroke-miterlimit="2.4142" d="
				M63.5,57.6c0.3,0,0.5,0.2,0.5,0.5c0,0.3-0.2,0.5-0.5,0.5c-0.3,0-0.5-0.2-0.5-0.5C62.9,57.9,63.2,57.6,63.5,57.6z"/>
			
				<path fill-rule="evenodd" clip-rule="evenodd" fill="#107D40" stroke="#000000" stroke-width="3.142500e-02" stroke-miterlimit="2.4142" d="
				M63.6,57.2c-0.1,0.2-0.3,0.4-0.5,0.4c-0.1,0-0.2,0-0.3-0.1c0.1-0.1,0.1-0.2,0.1-0.3c0-0.1,0-0.1,0-0.2c-0.1,0-0.2,0-0.3,0l0,0
				c0.3,0,0.6-0.1,0.9-0.2c0,0,0,0,0,0C63.5,56.9,63.6,57,63.6,57.2L63.6,57.2z"/>
			
				<path fill-rule="evenodd" clip-rule="evenodd" fill="#107D40" stroke="#000000" stroke-width="3.142500e-02" stroke-miterlimit="2.4142" d="
				M62,57.5c0,0.3-0.3,0.5-0.5,0.5c-0.3,0-0.5-0.2-0.5-0.5c0-0.2,0.1-0.4,0.2-0.4c0,0,0,0,0,0c0,0.3,0.2,0.5,0.5,0.5
				C61.8,57.6,61.9,57.6,62,57.5L62,57.5z"/>
			
				<path fill-rule="evenodd" clip-rule="evenodd" fill="#107D40" stroke="#000000" stroke-width="3.142500e-02" stroke-miterlimit="2.4142" d="
				M61.8,57.9C61.8,57.9,61.8,57.9,61.8,57.9c0,0.3-0.2,0.6-0.5,0.6s-0.5-0.2-0.5-0.5c0-0.2,0.1-0.3,0.2-0.4c0,0.3,0.2,0.5,0.5,0.5
				C61.6,58,61.7,58,61.8,57.9L61.8,57.9z"/>
			
				<path fill-rule="evenodd" clip-rule="evenodd" fill="#107D40" stroke="#000000" stroke-width="3.142500e-02" stroke-miterlimit="2.4142" d="
				M63.3,57.5c0.1,0.1,0.1,0.2,0.1,0.3c0,0.3-0.2,0.5-0.5,0.5c-0.2,0-0.3-0.1-0.4-0.2c0.1-0.1,0.1-0.2,0.1-0.3c0-0.1,0-0.2-0.1-0.3
				c0,0,0,0,0,0c0.1,0,0.2-0.1,0.3-0.2c0.1,0.1,0.2,0.1,0.3,0.1C63.2,57.5,63.3,57.5,63.3,57.5L63.3,57.5z M62.8,57.4
				C62.8,57.4,62.8,57.4,62.8,57.4C62.8,57.4,62.8,57.4,62.8,57.4L62.8,57.4z M62.8,57.4C62.9,57.4,62.9,57.3,62.8,57.4L62.8,57.4
				C62.9,57.3,62.9,57.4,62.8,57.4L62.8,57.4z M62.5,57.6C62.5,57.6,62.5,57.6,62.5,57.6C62.5,57.6,62.5,57.6,62.5,57.6L62.5,57.6z
				 M62.5,57.6C62.4,57.6,62.4,57.6,62.5,57.6L62.5,57.6C62.4,57.6,62.4,57.6,62.5,57.6L62.5,57.6z"/>
			
				<path fill-rule="evenodd" clip-rule="evenodd" fill="#107D40" stroke="#000000" stroke-width="3.142500e-02" stroke-miterlimit="2.4142" d="
				M63.3,58.3c0,0.1,0.1,0.2,0.1,0.3c0,0.3-0.2,0.5-0.5,0.5c-0.3,0-0.5-0.2-0.5-0.5c0,0,0-0.1,0-0.1c0.2-0.1,0.3-0.2,0.4-0.4l0,0
				c0,0.1-0.1,0.2-0.1,0.2c0.1,0.1,0.2,0.2,0.4,0.2C63.1,58.4,63.2,58.3,63.3,58.3L63.3,58.3z"/>
			
				<path fill-rule="evenodd" clip-rule="evenodd" fill="#107D40" stroke="#000000" stroke-width="3.142500e-02" stroke-miterlimit="2.4142" d="
				M65.9,66.7c0.3,0,0.4,0.5,0.4,1.1s-0.3,1-0.5,1c-0.2,0-0.3-0.3-0.3-0.6c0.2-0.1,0.3-0.5,0.3-0.9c0-0.2,0-0.4,0-0.5
				C65.7,66.7,65.8,66.7,65.9,66.7L65.9,66.7z"/>
			<g>
				
					<path fill-rule="evenodd" clip-rule="evenodd" fill="#9C4A00" stroke="#000000" stroke-width="3.142500e-02" stroke-miterlimit="2.4142" d="
					M66.9,70c0,0-6.1,0.1-6.4,0.1c-0.3,0-0.2-0.2-0.3-0.4c-0.1-0.2-0.2-0.5-0.8-0.5c-0.6,0.1-0.6,0.4-0.7,0.6
					c-0.2,0.2-0.5,0.3-0.6,0.2c0,0,0.4,0.8,0.5,0.9c0.2,0.2,0.3,0.2,0.7,0.2c0.4,0,7,0,7.3-0.1c0.5,0,0.9-0.1,0.9-0.5
					C67.5,70.1,67.3,70,66.9,70L66.9,70z"/>
				
					<path fill-rule="evenodd" clip-rule="evenodd" fill="#FCD116" stroke="#000000" stroke-width="3.142500e-02" stroke-miterlimit="2.4142" d="
					M65.1,71.3c-0.4-0.1-0.7-0.4-0.7-0.6c0-0.2,0.1-0.5,0.5-0.6c0.4-0.2,0.4-0.3,0.2-0.5c-0.2-0.2-0.6,0-0.9,0.2
					c-0.3,0.2-0.5,0.5-0.5,0.9c0,0.4,0.4,0.9,0.9,1.1C65,71.9,65.6,71.6,65.1,71.3L65.1,71.3z"/>
				<path d="M66.8,71c-0.1-0.1-0.3-0.2-0.3-0.3c-0.1-0.1-0.1-0.2-0.1-0.3c0-0.1,0-0.2,0.1-0.3c0.1-0.1,0.2-0.2,0.3-0.2l0,0
					c-0.1,0-0.2,0.1-0.3,0.2c-0.1,0.1-0.1,0.2-0.1,0.3c0,0.1,0,0.2,0.1,0.3C66.6,70.9,66.7,71,66.8,71L66.8,71L66.8,71z"/>
				
					<path fill-rule="evenodd" clip-rule="evenodd" fill="#FCD116" stroke="#000000" stroke-width="3.142500e-02" stroke-miterlimit="2.4142" d="
					M64.5,69.4c-0.2-0.2-0.6,0-0.9,0.2c-0.3,0.2-0.5,0.5-0.5,0.9c0,0.4,0.4,0.9,0.9,1.1c0.2,0.1,0.4,0.1,0.6,0c0,0,0,0,0,0
					c-0.4-0.2-0.8-0.6-0.9-1.1c0-0.4,0.2-0.7,0.5-0.9C64.3,69.6,64.4,69.5,64.5,69.4L64.5,69.4z"/>
				
					<path fill-rule="evenodd" clip-rule="evenodd" fill="#FCD116" stroke="#000000" stroke-width="3.142500e-02" stroke-miterlimit="2.4142" d="
					M63.9,69.5C63.9,69.5,63.9,69.5,63.9,69.5c-0.2-0.3-0.6-0.1-0.9,0.2c-0.3,0.2-0.5,0.5-0.5,0.9c0,0.4,0.4,0.9,0.9,1.1
					c0.2,0.1,0.5,0.1,0.6,0c-0.4-0.2-0.8-0.6-0.8-1.1c0-0.4,0.2-0.7,0.5-0.9C63.7,69.6,63.8,69.5,63.9,69.5L63.9,69.5z"/>
				
					<path fill-rule="evenodd" clip-rule="evenodd" fill="#FCD116" stroke="#000000" stroke-width="3.142500e-02" stroke-miterlimit="2.4142" d="
					M63.4,69.4c-0.2-0.2-0.6,0-0.9,0.2c-0.3,0.2-0.5,0.5-0.5,0.9c0,0.4,0.4,0.9,0.9,1.1c0.2,0.1,0.4,0.1,0.6,0c0,0,0,0,0,0
					c-0.4-0.2-0.8-0.6-0.9-1.1c0-0.4,0.2-0.7,0.5-0.9C63.1,69.6,63.2,69.5,63.4,69.4L63.4,69.4z"/>
			</g>
			
				<path fill-rule="evenodd" clip-rule="evenodd" fill="#107D40" stroke="#000000" stroke-width="3.142500e-02" stroke-miterlimit="2.4142" d="
				M65.1,67.6c0.3,0,0.4,0.5,0.4,1.1c-0.1,0.6-0.3,1-0.5,1c-0.3,0-0.4-0.5-0.4-1.1C64.6,68,64.9,67.6,65.1,67.6L65.1,67.6z"/>
			
				<path fill-rule="evenodd" clip-rule="evenodd" fill="#107D40" stroke="#000000" stroke-width="3.142500e-02" stroke-miterlimit="2.4142" d="
				M66.5,66.3c0.3,0,0.4,0.5,0.4,1.1c-0.1,0.6-0.3,1-0.5,1c-0.3,0-0.4-0.5-0.4-1.1C66,66.7,66.2,66.2,66.5,66.3L66.5,66.3z"/>
			
				<path fill-rule="evenodd" clip-rule="evenodd" fill="#107D40" stroke="#000000" stroke-width="3.142500e-02" stroke-miterlimit="2.4142" d="
				M64.3,67.5c0.3,0,0.4,0.5,0.4,1.1c-0.1,0.6-0.3,1-0.5,1c-0.3,0-0.4-0.5-0.4-1.1C63.8,67.9,64.1,67.4,64.3,67.5L64.3,67.5z"/>
			
				<path fill-rule="evenodd" clip-rule="evenodd" fill="#107D40" stroke="#000000" stroke-width="3.142500e-02" stroke-miterlimit="2.4142" d="
				M63.9,67.6c0.3,0,0.4,0.5,0.4,1.1c0,0.6-0.3,1-0.5,1c-0.3,0-0.4-0.5-0.4-1.1C63.4,68,63.6,67.5,63.9,67.6L63.9,67.6z"/>
			
				<path fill-rule="evenodd" clip-rule="evenodd" fill="#107D40" stroke="#000000" stroke-width="3.142500e-02" stroke-miterlimit="2.4142" d="
				M63.9,66.3c0.3,0,0.4,0.5,0.4,1.1c-0.1,0.6-0.3,1-0.5,1c-0.3,0-0.4-0.5-0.4-1.1C63.4,66.7,63.7,66.3,63.9,66.3L63.9,66.3z"/>
			
				<path fill-rule="evenodd" clip-rule="evenodd" fill="#107D40" stroke="#000000" stroke-width="3.142500e-02" stroke-miterlimit="2.4142" d="
				M64.7,66.5c0.3,0,0.4,0.5,0.4,1.1c-0.1,0.6-0.3,1-0.5,1c-0.3,0-0.4-0.5-0.4-1.1C64.2,66.9,64.5,66.5,64.7,66.5L64.7,66.5z"/>
			
				<path fill-rule="evenodd" clip-rule="evenodd" fill="#107D40" stroke="#000000" stroke-width="3.142500e-02" stroke-miterlimit="2.4142" d="
				M64.3,65.1c0.3,0,0.4,0.5,0.4,1.1c0,0.6-0.3,1-0.5,1c-0.3,0-0.4-0.5-0.4-1.1C63.8,65.4,64.1,65,64.3,65.1L64.3,65.1z"/>
			
				<path fill-rule="evenodd" clip-rule="evenodd" fill="#107D40" stroke="#000000" stroke-width="3.142500e-02" stroke-miterlimit="2.4142" d="
				M65,65.5c0.3,0,0.4,0.5,0.4,1.1c-0.1,0.6-0.3,1-0.5,1c-0.2,0-0.3-0.3-0.4-0.6c0.1-0.2,0.2-0.5,0.2-0.8c0-0.2,0-0.3,0-0.5
				C64.8,65.5,64.9,65.5,65,65.5L65,65.5z"/>
			
				<path fill-rule="evenodd" clip-rule="evenodd" fill="#107D40" stroke="#000000" stroke-width="3.142500e-02" stroke-miterlimit="2.4142" d="
				M65.7,66.2c0.3,0,0.4,0.5,0.4,1.1c-0.1,0.6-0.3,1-0.5,1c-0.2,0-0.4-0.4-0.4-0.9c0.1-0.2,0.2-0.5,0.2-0.8c0-0.1,0-0.2,0-0.3
				C65.4,66.2,65.5,66.1,65.7,66.2L65.7,66.2z"/>
			
				<path fill-rule="evenodd" clip-rule="evenodd" fill="#107D40" stroke="#000000" stroke-width="3.142500e-02" stroke-miterlimit="2.4142" d="
				M67.8,70.1c0,0-0.7-1.8-1.5-2.7c0,0-1.5-1.1-2.5-3.4c-1-2.4-1-3.4-1.1-4.2c-0.1-0.9,0.5-1.3,0.6-1.3c0.1,0,0.6-0.1,1.1,0.4
				c1.6,1.4,3.8,5.3,3.3,8.2c0,0,0.2,0.4,0.1,1.1C67.7,68.1,68.1,68.9,67.8,70.1L67.8,70.1z"/>
			<g>
				
					<path fill-rule="evenodd" clip-rule="evenodd" fill="#9461C9" stroke="#000000" stroke-width="3.142500e-02" stroke-miterlimit="2.4142" d="
					M60.5,55.5c0-0.4,0.1-1.1,1.2-1.3c1.1-0.2,1.9,0.4,2.5,0.9c0.5,0.5,1.2,1.1,1.6,1.3c0,0-0.8,0.1-1.2-0.1c0,0-1.8,1.4-3.6,0.4
					L60.5,55.5L60.5,55.5z"/>
				
					<path fill-rule="evenodd" clip-rule="evenodd" fill="#9461C9" stroke="#000000" stroke-width="3.142500e-02" stroke-miterlimit="2.4142" d="
					M66.1,56.9c0,0-0.7-0.3-1.1-0.6c-0.1,0-0.2-0.1-0.3-0.1c0,0-0.4,0.3-1,0.5C63.9,57,65,58,66.1,56.9L66.1,56.9z"/>
				
					<path fill-rule="evenodd" clip-rule="evenodd" fill="#9461C9" stroke="#000000" stroke-width="3.142500e-02" stroke-miterlimit="2.4142" d="
					M66.6,57.8c0,0-0.7-0.2-1-0.5c-0.9,0.4-1.8-0.3-2-0.5c-0.1,0-0.1,0-0.2,0.1C63.8,57.7,65.6,58.9,66.6,57.8L66.6,57.8z"/>
				
					<path fill-rule="evenodd" clip-rule="evenodd" fill="#9461C9" stroke="#000000" stroke-width="3.142500e-02" stroke-miterlimit="2.4142" d="
					M66.9,58.6c0,0-0.6-0.2-0.9-0.4c-0.9,0.3-1.9-0.3-2.4-1C63.5,58,65.5,59.9,66.9,58.6L66.9,58.6z"/>
				
					<path fill-rule="evenodd" clip-rule="evenodd" fill="#9461C9" stroke="#000000" stroke-width="3.142500e-02" stroke-miterlimit="2.4142" d="
					M67.1,59.4c0,0-0.6-0.2-0.9-0.4c-0.9,0.2-1.8-0.4-2.3-1.1l0,0C63.6,58.8,65.8,60.6,67.1,59.4L67.1,59.4z"/>
				<g>
					
						<path fill-rule="evenodd" clip-rule="evenodd" fill="#FCD116" stroke="#000000" stroke-width="3.142500e-02" stroke-miterlimit="2.4142" d="
						M59.8,57.3c-0.6-1.3,0-1.8,0.5-1.9c0.7-0.1,1,0.5,0.3,0.9C60.2,56.6,60,56.6,59.8,57.3L59.8,57.3z"/>
					
						<path fill-rule="evenodd" clip-rule="evenodd" fill="#FCD116" stroke="#000000" stroke-width="3.142500e-02" stroke-miterlimit="2.4142" d="
						M60.1,56.8c0.1,0.1,0.2,0.3,0.7,0.1c0.7-0.2,0.6-0.8,0.2-0.9c-0.1,0.1-0.2,0.2-0.3,0.3C60.4,56.5,60.2,56.6,60.1,56.8
						L60.1,56.8z"/>
					<path fill-rule="evenodd" clip-rule="evenodd" d="M60.6,55.7c0.1,0,0.1,0,0.1,0.1c0,0.1,0,0.1-0.1,0.1c-0.1,0-0.1,0-0.1-0.1
						C60.5,55.7,60.5,55.7,60.6,55.7L60.6,55.7z"/>
				</g>
				<g>
					
						<path fill-rule="evenodd" clip-rule="evenodd" fill="#D81C30" stroke="#000000" stroke-width="3.142500e-02" stroke-miterlimit="2.4142" d="
						M62.2,55.1c0.3,0,0.5,0.1,0.5,0.3c0,0.2-0.2,0.3-0.5,0.3c-0.3,0-0.5-0.1-0.5-0.3C61.7,55.2,61.9,55.1,62.2,55.1L62.2,55.1z"/>
					<path fill-rule="evenodd" clip-rule="evenodd" d="M62.2,55.2c0.1,0,0.1,0.1,0.1,0.1c0,0.1-0.1,0.1-0.1,0.1
						c-0.1,0-0.1-0.1-0.1-0.1C62,55.3,62.1,55.2,62.2,55.2L62.2,55.2z"/>
				</g>
			</g>
			<g>
				<path d="M62.8,60.4c0.1,0.2,0.4,0.6,0.7,0.8c0.1,0.1,0.1,0.1,0.2,0.1c0,0,0.1,0,0.1-0.1c0-0.1,0-0.2-0.1-0.4l0,0
					c0.1,0.2,0.1,0.4,0.1,0.5c0,0.1-0.1,0.1-0.1,0.1c0,0-0.1-0.1-0.2-0.1C63.2,61,62.9,60.6,62.8,60.4L62.8,60.4L62.8,60.4z"/>
				<path d="M63.1,59.8c0.1,0.1,0.2,0.4,0.3,0.6c0.1,0.2,0.2,0.3,0.3,0.3l0,0l0,0c0.1,0,0.2,0.1,0.2,0.1c0.1,0,0.1-0.1,0-0.5l0,0
					c0.1,0.4,0,0.5-0.1,0.6c-0.1,0-0.2,0-0.3-0.1l0,0l0,0c-0.1,0-0.2-0.2-0.3-0.3C63.2,60.3,63.1,60,63.1,59.8L63.1,59.8L63.1,59.8z
					"/>
				<path d="M63.5,59.5c0,0.1,0.1,0.2,0.2,0.4c0.1,0.2,0.2,0.3,0.3,0.5c0.1,0.1,0.2,0.2,0.3,0.2c0,0,0.1,0,0.1,0c0,0,0,0,0,0
					c0,0,0-0.1,0-0.1c0-0.2-0.1-0.4-0.2-0.7c-0.1-0.3-0.2-0.5-0.3-0.7l0,0c0.1,0.1,0.2,0.4,0.3,0.7c0.1,0.3,0.2,0.6,0.2,0.7
					c0,0.1,0,0.1,0,0.1c0,0,0,0-0.1,0c0,0-0.1,0-0.1,0c-0.1,0-0.2-0.1-0.3-0.3c-0.1-0.1-0.2-0.3-0.3-0.5
					C63.6,59.8,63.5,59.6,63.5,59.5L63.5,59.5L63.5,59.5z"/>
				<path d="M63.2,60.8C63.2,60.9,63.2,60.9,63.2,60.8c0.1,0.3,0.2,0.6,0.3,0.8c0.2,0.3,0.3,0.5,0.5,0.5c0,0,0,0,0.1,0
					c0.4-0.1-0.1-1.3-0.1-1.3l0,0c0,0,0.5,1.2,0,1.3c0,0,0,0-0.1,0c-0.2,0-0.4-0.2-0.5-0.5c-0.2-0.3-0.3-0.6-0.3-0.7
					C63.1,60.9,63.1,60.9,63.2,60.8L63.2,60.8L63.2,60.8z"/>
				<path d="M64.2,61.3c0.1,0.1,0.2,0.2,0.3,0.3c0.1,0.1,0.2,0.2,0.3,0.1l0,0c0.2-0.1,0.1-0.6,0.1-0.6l0,0c0,0,0.1,0.5-0.2,0.6v0
					c-0.1,0-0.3,0-0.4-0.1C64.3,61.6,64.2,61.4,64.2,61.3L64.2,61.3L64.2,61.3z"/>
				<path d="M64.5,60.6L64.5,60.6L64.5,60.6c0,0.1,0.2,0.3,0.4,0.5l0,0c0.2,0.2,0.4,0.4,0.5,0.3l0,0l0,0l0,0c0,0,0,0,0,0
					c0,0,0.1-0.1,0-0.2c0-0.1-0.1-0.3-0.1-0.5c-0.1-0.4-0.4-0.9-0.6-1.3l0,0c0.2,0.4,0.5,0.9,0.6,1.3c0.1,0.2,0.1,0.4,0.1,0.5
					c0,0.1,0,0.2-0.1,0.3c0,0,0,0,0,0l0,0h0l0,0c-0.1,0-0.4-0.1-0.6-0.3l0,0C64.6,60.9,64.5,60.7,64.5,60.6L64.5,60.6L64.5,60.6
					L64.5,60.6L64.5,60.6z"/>
				<path d="M63.2,61.7c0.1,0.4,0.4,0.8,0.6,1.2c0.2,0.2,0.3,0.4,0.5,0.4c0.1,0,0.1-0.1,0.1-0.2c0-0.1,0-0.2,0-0.3
					c0-0.4-0.2-0.9-0.2-0.9l0,0c0,0,0.2,0.5,0.2,0.9c0,0.1,0,0.3,0,0.4c0,0.1-0.1,0.2-0.1,0.2c-0.2,0-0.3-0.1-0.5-0.4
					C63.6,62.6,63.3,62.1,63.2,61.7L63.2,61.7L63.2,61.7z"/>
				<path d="M64.8,61.8c0.1,0.2,0.2,0.6,0.2,0.8c0,0.2,0,0.4-0.1,0.4c-0.1,0-0.2,0-0.3,0c-0.1-0.1-0.2-0.2-0.3-0.2l0,0
					c0,0,0.1,0.1,0.2,0.2c0.1,0,0.1,0,0.2,0c0.1,0,0.1-0.2,0.1-0.4C65,62.4,64.9,62,64.8,61.8L64.8,61.8L64.8,61.8z"/>
				<path d="M65.3,62.5c0.1,0,0.1,0,0.2,0c0.1,0,0.1-0.1,0.1-0.1c0-0.1,0-0.2,0-0.3c0-0.3-0.1-0.6-0.2-0.7l0,0
					c0.1,0.1,0.2,0.4,0.2,0.7c0,0.1,0,0.2,0,0.3c0,0.1-0.1,0.1-0.2,0.2C65.4,62.6,65.4,62.6,65.3,62.5L65.3,62.5L65.3,62.5z"/>
				<path d="M63.7,62.7c0,0.2,0,0.5,0.1,0.8c0.1,0.3,0.2,0.6,0.3,0.8c0.1,0.2,0.3,0.6,0.5,0.8c0.1,0.1,0.3,0.2,0.4,0.2
					c0.1,0,0.2-0.2,0.2-0.4c0-0.3-0.1-0.6-0.1-0.8c0-0.1-0.1-0.4-0.2-0.6c-0.2-0.3-0.3-0.6-0.4-0.7l0,0c0.1,0.1,0.2,0.4,0.4,0.7
					c0.1,0.2,0.2,0.4,0.2,0.6c0.1,0.2,0.1,0.6,0.1,0.8c0,0.2-0.1,0.4-0.2,0.4c-0.1,0-0.3-0.1-0.4-0.2c-0.2-0.2-0.4-0.5-0.5-0.8
					c-0.1-0.2-0.2-0.5-0.3-0.8C63.7,63.2,63.6,62.9,63.7,62.7L63.7,62.7L63.7,62.7z"/>
				<path d="M65.1,64.3c0.1,0.1,0.2,0.2,0.3,0.3c0.1,0.1,0.2,0.1,0.3,0.1c0,0,0,0,0,0l0,0c0.1,0,0.1-0.2,0.1-0.4
					c0-0.2,0-0.5-0.1-0.7c0,0,0-0.1,0-0.1c-0.1-0.2-0.2-0.5-0.4-0.7c-0.1-0.2-0.3-0.4-0.4-0.5l0,0c0.2,0.1,0.3,0.3,0.5,0.5
					c0.2,0.2,0.3,0.5,0.4,0.7c0,0,0,0.1,0,0.1c0.1,0.2,0.1,0.5,0.1,0.7c0,0.2-0.1,0.4-0.1,0.4l0,0c0,0,0,0,0,0c-0.1,0-0.2,0-0.3-0.1
					C65.3,64.5,65.2,64.4,65.1,64.3L65.1,64.3L65.1,64.3z"/>
				<path d="M65.9,63.7C65.9,63.7,65.9,63.7,65.9,63.7c0.2,0.2,0.4,0.4,0.6,0.3l0,0l0,0c0.1-0.1,0.1-0.6,0-1.1
					c-0.1-0.6-0.4-1.3-0.9-1.8c-0.1-0.1-0.1-0.1-0.2-0.2l0,0c0.1,0.1,0.1,0.1,0.2,0.2c0.5,0.6,0.8,1.3,0.9,1.8c0.1,0.6,0.1,1,0,1.2
					l0,0c0,0,0,0,0,0C66.3,64.2,66,63.9,65.9,63.7C65.8,63.7,65.8,63.7,65.9,63.7L65.9,63.7L65.9,63.7z"/>
				<path d="M64.9,65.3c0.1,0.2,0.1,0.4,0.3,0.7c0.1,0.2,0.2,0.4,0.4,0.6c0.2,0.2,0.3,0.3,0.4,0.5c0.1,0.2,0.2,0.3,0.3,0.4l0,0
					c-0.1-0.1-0.2-0.2-0.3-0.4c-0.1-0.2-0.3-0.3-0.4-0.5c-0.1-0.2-0.3-0.4-0.4-0.6C65,65.7,64.9,65.5,64.9,65.3L64.9,65.3L64.9,65.3
					z"/>
				<path d="M65.5,64.6c0,0.4,0.4,0.9,0.9,1.4l0,0c0.3,0.3,0.6,0.8,0.9,1.2c0.2,0.3,0.4,0.6,0.4,0.9l0,0c-0.1-0.2-0.2-0.5-0.4-0.9
					c-0.3-0.4-0.6-0.9-0.9-1.2l0,0C65.9,65.5,65.5,65,65.5,64.6L65.5,64.6L65.5,64.6z"/>
				<path d="M65.9,64.2c0,0,0.1,0.1,0.1,0.1c0.3,0.4,0.5,0.8,0.9,1.2c0.4,0.5,0.8,1.5,0.8,1.5l0,0c0,0-0.4-1-0.8-1.5
					c-0.4-0.4-0.6-0.8-0.9-1.2C65.9,64.3,65.9,64.3,65.9,64.2L65.9,64.2L65.9,64.2z"/>
				<path d="M66.5,63.9c0.2,0.2,0.5,0.6,0.8,1.2c0.2,0.4,0.3,0.8,0.4,1.4l0,0c-0.1-0.5-0.2-1-0.4-1.4C67,64.5,66.7,64.1,66.5,63.9
					L66.5,63.9L66.5,63.9z"/>
				<path d="M66.6,63c0.2,0.1,0.3,0.5,0.5,0.8c0.1,0.4,0.2,0.7,0.1,1l0,0c0-0.2,0-0.6-0.1-0.9C66.9,63.5,66.7,63.2,66.6,63L66.6,63
					L66.6,63z"/>
			</g>
		</g>
	</g>
	<path opacity="0.3" fill="#FFFFFF" d="M13,29.7v25.5C26.2,62.6,43.7,67,63,67c19.3,0,36.8-4.5,50-11.8V29.7H13z"/>
</g>
</svg>
