<?xml version="1.0" encoding="utf-8"?>
<!-- Generator: Adobe Illustrator 24.3.0, SVG Export Plug-In . SVG Version: 6.00 Build 0)  -->
<svg version="1.1" id="Layer_1" xmlns="http://www.w3.org/2000/svg" xmlns:xlink="http://www.w3.org/1999/xlink" x="0px" y="0px"
	 viewBox="0 0 126 126" enable-background="new 0 0 126 126" xml:space="preserve">
<g>
	<g>
		<path fill-rule="evenodd" clip-rule="evenodd" fill="#2489F0" d="M19.2,96.3H113V29.7l0,0v16.7L19.2,96.3L19.2,96.3z M106.8,29.7
			H13v50L106.8,29.7L106.8,29.7z"/>
		<path fill-rule="evenodd" clip-rule="evenodd" fill="#FEDF00" d="M32.4,35.9l2.8,8.7l9.1,0L37,49.9l2.8,8.7l-7.4-5.4l-7.4,5.4
			l2.8-8.7l-7.4-5.4l9.1,0L32.4,35.9L32.4,35.9z"/>
		<path fill-rule="evenodd" clip-rule="evenodd" fill="#FEDF00" d="M106.8,29.7L13,79.7V83l100-53.3H106.8L106.8,29.7z M13,96.3
			L13,96.3L13,96.3L13,96.3L13,96.3L13,96.3z M13,96.3h6.2l93.8-50V43L13,96.3L13,96.3z"/>
		<polygon fill-rule="evenodd" clip-rule="evenodd" fill="#F90805" points="113,29.7 13,83 13,96.3 13,96.3 13,96.3 113,43 
			113,29.7 		"/>
	</g>
	<path opacity="0.25" fill="#FFFFFF" d="M13,29.7v25.5C26.2,62.6,43.7,67,63,67c19.3,0,36.8-4.5,50-11.8V29.7H13z"/>
</g>
</svg>
