<?xml version="1.0" encoding="utf-8"?>
<!-- Generator: Adobe Illustrator 24.3.0, SVG Export Plug-In . SVG Version: 6.00 Build 0)  -->
<svg version="1.1" id="Layer_1" xmlns="http://www.w3.org/2000/svg" xmlns:xlink="http://www.w3.org/1999/xlink" x="0px" y="0px"
	 viewBox="0 0 126 126" enable-background="new 0 0 126 126" xml:space="preserve">
<g>
	<g>
		<g>
			<polygon fill="#FF1612" points="13,29.7 113,29.7 113,51.9 13,51.9 13,29.7 			"/>
			<polygon fill="#F0F0F0" points="13,51.9 113,51.9 113,74.1 13,74.1 13,51.9 			"/>
			<polygon points="13,74.1 113,74.1 113,96.3 13,96.3 13,74.1 			"/>
			<g>
				<g>
					<path fill="#C09300" d="M63,57.8l0.4-0.4l0,0l0,0c0,0,0.3,0.3,0.8,0.4c0-0.1,0-0.1,0-0.2l0-0.1l0.1,0c0,0,0.4,0.1,0.6,0.1
						c-0.2-0.4-0.4-0.7-0.5-1.1c-0.1-0.4-0.2-0.8-0.2-1.3c0-0.1,0-0.2,0-0.4c0-0.6,0-1.2-0.2-1.6c-0.4-0.2-0.9-0.1-1.1,0.1
						c-0.2,0.2-0.3-0.1-0.3-0.1c-0.1,0-0.2,0-0.5-0.2c-0.3-0.2-0.3-0.3-0.6-0.3c-0.2,0-0.4,0-0.5,0.1c-0.1,0.1-0.1,0.3,0,0.4
						c0.6-1,1.5,0.5,1.5,0.5c-0.3-0.1-0.4,0-0.5,0c0,0.1,0,0.2,0,0.3c0,0.2,0,0.5-0.1,0.7c-0.1,0.4-0.1,0.7-0.2,0.8
						c-0.3,0.7-0.8,1.5-1,1.8c0.2,0,0.6-0.2,0.8-0.3l0.1-0.1l0,0.1c0,0,0,0.3-0.1,0.5c0.2-0.1,0.5-0.3,0.7-0.5l0,0l0,0L63,57.8
						L63,57.8z M63.4,57.5l-0.4,0.4l0,0l0,0l-0.4-0.4c-0.3,0.3-0.8,0.5-0.8,0.5l-0.1,0.1l0-0.1c0-0.1,0.1-0.3,0.1-0.4
						c-0.4,0.2-0.9,0.3-0.9,0.3l-0.1,0l0.1-0.1c0,0,0.7-1,1.1-1.9c0-0.1,0.1-0.4,0.2-0.8c0-0.2,0.1-0.5,0.1-0.7
						c0-0.3-0.1-0.5-0.2-0.7c-0.1-0.1-0.1-0.1-0.2-0.2c-0.1,0-0.1-0.1-0.2,0c-0.1,0-0.2,0-0.2,0.1c-0.1,0.1-0.2,0-0.2,0l0,0l0,0
						c-0.1-0.5,0-0.7,0.3-0.8c0.2-0.1,0.6-0.1,1,0.1c0,0,0-0.1,0-0.1c0.1-0.1,0.2-0.1,0.4-0.1c0.2,0,0.4,0.1,0.6,0.1
						c0.3,0.1,0.7,0.3,0.8,0.5c0.3,0.4,0.3,1.1,0.3,1.7c0,0.1,0,0.2,0,0.4c0,0.4,0.1,0.9,0.2,1.3c0.1,0.4,0.3,0.8,0.5,1.2l0.1,0.1
						l-0.1,0c-0.2,0-0.5-0.1-0.7-0.1c0,0.1,0,0.2,0,0.2l0,0.1l-0.1,0C63.8,57.9,63.5,57.6,63.4,57.5L63.4,57.5z"/>
					<path fill="#C09300" d="M62.6,55.1c0,0-0.2,1.6-0.8,2.4l-0.1-0.1c0.6-0.8,0.7-2.3,0.7-2.3L62.6,55.1L62.6,55.1z"/>
					<path fill="#C09300" d="M63,55c0,0.3-0.1,0.9-0.2,1.5c-0.1,0.4-0.1,0.7-0.2,1l-0.1,0c0.1-0.2,0.2-0.6,0.2-0.9
						c0.1-0.6,0.2-1.2,0.2-1.5L63,55L63,55z"/>
					<path fill="#C09300" d="M63.4,55.1c0,0.5,0,1.1,0,1.5c0,0.4,0,0.7,0.1,0.8l-0.1,0c0-0.2-0.1-0.5-0.1-0.8c0-0.4,0-1,0-1.5H63.4
						L63.4,55.1z"/>
					<path fill="#C09300" d="M63.8,55.2c0,0.4,0.1,0.9,0.2,1.3c0.1,0.4,0.2,0.8,0.4,1.1l-0.1,0.1c-0.2-0.2-0.3-0.7-0.4-1.1
						c-0.1-0.4-0.1-0.9-0.2-1.3L63.8,55.2L63.8,55.2z"/>
					<path fill-rule="evenodd" clip-rule="evenodd" fill="#FFFFFF" d="M62.9,53.1c0.1,0,0.1,0.1,0.1,0.1c0,0.1-0.1,0.1-0.1,0.1
						c-0.1,0-0.1-0.1-0.1-0.1C62.7,53.1,62.8,53.1,62.9,53.1L62.9,53.1z"/>
				</g>
				<g>
					<path fill="#C09300" d="M64.9,57.4c0.4,0,0.7,0,1-0.1c0.3-0.1,0.7-0.2,1.2-0.5c0.5-0.2,0.8-0.4,1.1-0.5
						c0.3-0.1,0.6-0.1,0.9-0.1c0.3,0,0.6,0.2,0.8,0.4c0.2,0.2,0.3,0.6,0.3,1c0,0.8,0.5,12.6,0.5,12.7l0,0.1l-0.1-0.1L63,63.3
						l0.1-0.1l3.4,3.1l-0.3-7.1l0.7-0.3l0.3,8l0.3,0.3l-0.3-8.5l0.6-0.5l0.4,9.7l0.3,0.3L68.2,58l0.8-0.7l0.5,11.8l0.3,0.2
						l-0.5-12.2c0.4,0.1,0.7,0.3,0.8,0.4v0c0-0.4-0.1-0.7-0.3-0.9c-0.2-0.2-0.4-0.3-0.7-0.4c-0.3,0-0.6,0-0.9,0.1
						c-0.3,0.1-0.6,0.3-1.1,0.5c-0.5,0.2-0.8,0.4-1.2,0.5c-0.4,0.1-0.7,0.1-1.1,0.1V57.4L64.9,57.4z M66.1,65.2l-0.1-4l-1,1.9
						L66.1,65.2L66.1,65.2z"/>
					<path fill="#C09300" d="M61.1,57.4c-0.4,0-0.7,0-1-0.1c-0.3-0.1-0.7-0.2-1.2-0.5c-0.5-0.2-0.8-0.4-1.1-0.5
						c-0.3-0.1-0.6-0.1-0.9-0.1c-0.3,0-0.6,0.2-0.8,0.4c-0.2,0.2-0.3,0.6-0.3,1c0,0.8-0.5,12.6-0.5,12.7l0,0.1l0.1-0.1l7.6-6.9
						l-0.1-0.1l-3.4,3.1l0.3-7.1L59.2,59l-0.3,8l-0.3,0.3l0.3-8.5l-0.6-0.5L57.8,68l-0.3,0.3L57.8,58l-0.8-0.7l-0.5,11.8l-0.3,0.2
						l0.5-12.2c-0.4,0.1-0.7,0.3-0.8,0.4v0c0-0.4,0.1-0.7,0.3-0.9c0.2-0.2,0.4-0.3,0.7-0.4c0.3,0,0.6,0,0.9,0.1
						c0.3,0.1,0.6,0.3,1.1,0.5c0.5,0.2,0.8,0.4,1.2,0.5c0.4,0.1,0.7,0.1,1.1,0.1L61.1,57.4L61.1,57.4z M59.9,65.2l0.1-4l1,1.9
						L59.9,65.2L59.9,65.2z"/>
				</g>
				<g>
					<path fill-rule="evenodd" clip-rule="evenodd" fill="#C09300" d="M61.4,69.3l0.5,0.6l0.4-0.3l0.4-2.8l-0.2,2.8l0.4,0.5l0.4-0.5
						l-0.2-2.8l0.4,2.8l0.4,0.3l0.5-0.6c0,0-1.1-4.3-1.1-4.3L63,65.3L62.5,65C62.5,65,61.4,69.3,61.4,69.3L61.4,69.3z"/>
					<g>
						<defs>
							<polygon id="SVGID_1_" points="58.6,69.8 60.6,62.5 62.6,65.2 61.4,70.3 60,70.5 58.6,69.8 							"/>
						</defs>
						<use xlink:href="#SVGID_1_"  overflow="visible" fill-rule="evenodd" clip-rule="evenodd" fill="#FFFFFF"/>
						<clipPath id="SVGID_2_">
							<use xlink:href="#SVGID_1_"  overflow="visible"/>
						</clipPath>
						<g clip-path="url(#SVGID_2_)">
							<path fill="#C09300" d="M59.9,64.8l0.3,0.7l1.6-1.4l0.1,0.1l-1.6,1.5c0,0,0,0,0,0c0,0-0.1,0-0.1,0l0,0l-0.3-0.8L59.9,64.8
								L59.9,64.8z"/>
							<path fill="#C09300" d="M60.9,63.4l0.3,2.6l0.4-0.5l0.5-0.6l0.1,0.1l-0.5,0.6l-0.5,0.7c0,0,0,0,0,0c0,0-0.1,0-0.1,0l0.1,0
								l-0.1,0l-0.3-2.8L60.9,63.4L60.9,63.4z"/>
							<path fill="#C09300" d="M59.1,67.5l1.1-1.1l0,0c0,0,0.1,0,0.1,0c0,0,0,0,0,0l0.2,0.8l0.6-0.7l0,0l0,0c0,0,0.1,0,0.1,0
								c0,0,0,0,0,0l0.7,3.3l-0.1,0l-0.6-3.1l-0.6,0.7c0,0,0,0,0,0c0,0-0.1,0-0.1,0l0.1,0l-0.1,0l-0.3-0.9L59.1,67.5L59.1,67.5
								L59.1,67.5z"/>
							<polygon fill="#C09300" points="59.3,67 60.3,70.8 60.2,70.9 59.2,67 59.3,67 							"/>
							<path fill="#C09300" d="M58.9,70.1l1.5-2.2l0,0c0,0,0.1,0,0.1,0c0,0,0,0,0,0l0.3,0.9l1.7-2.6l0.1,0.1L60.8,69c0,0,0,0,0,0
								c0,0-0.1,0-0.1,0l0.1,0l-0.1,0l-0.3-0.9L58.9,70.1L58.9,70.1L58.9,70.1z"/>
							<path fill="#C09300" d="M60,70.4l0.6-1l0,0l0,0c0,0,0.1,0,0.1,0c0,0,0,0,0,0l0.3,1.1l-0.1,0l-0.3-1L60,70.4L60,70.4L60,70.4z
								"/>
							<polygon fill="#C09300" points="61.7,65.5 62.3,67.5 62.2,67.5 61.6,65.5 61.7,65.5 							"/>
						</g>
						
							<use xlink:href="#SVGID_1_"  overflow="visible" fill-rule="evenodd" clip-rule="evenodd" fill="none" stroke="#C09300" stroke-width="0.1036" stroke-miterlimit="2.4142"/>
					</g>
					<g>
						<defs>
							<polygon id="SVGID_3_" points="67.4,69.8 65.3,62.5 63.4,65.2 64.6,70.3 66,70.5 67.4,69.8 							"/>
						</defs>
						<use xlink:href="#SVGID_3_"  overflow="visible" fill-rule="evenodd" clip-rule="evenodd" fill="#FFFFFF"/>
						<clipPath id="SVGID_4_">
							<use xlink:href="#SVGID_3_"  overflow="visible"/>
						</clipPath>
						<g clip-path="url(#SVGID_4_)">
							<path fill="#C09300" d="M66.1,64.8l-0.3,0.7l-1.6-1.4l-0.1,0.1l1.6,1.5c0,0,0,0,0,0c0,0,0.1,0,0.1,0l0,0l0.3-0.8L66.1,64.8
								L66.1,64.8z"/>
							<path fill="#C09300" d="M65.1,63.4L64.8,66l-0.4-0.5l-0.5-0.6l-0.1,0.1l0.5,0.6l0.5,0.7c0,0,0,0,0,0c0,0,0.1,0,0.1,0l-0.1,0
								l0.1,0l0.3-2.8L65.1,63.4L65.1,63.4z"/>
							<path fill="#C09300" d="M66.9,67.5l-1.1-1.1l0,0c0,0-0.1,0-0.1,0c0,0,0,0,0,0l-0.2,0.8l-0.6-0.7l0,0l0,0c0,0-0.1,0-0.1,0
								c0,0,0,0,0,0l-0.7,3.3l0.1,0l0.6-3.1l0.6,0.7c0,0,0,0,0,0c0,0,0.1,0,0.1,0l-0.1,0l0.1,0l0.2-0.9L66.9,67.5L66.9,67.5
								L66.9,67.5z"/>
							<polygon fill="#C09300" points="66.7,67 65.7,70.8 65.8,70.9 66.8,67 66.7,67 							"/>
							<path fill="#C09300" d="M67.1,70.1L65.7,68l0,0c0,0-0.1,0-0.1,0c0,0,0,0,0,0l-0.3,0.9l-1.7-2.6l-0.1,0.1l1.8,2.7c0,0,0,0,0,0
								c0,0,0.1,0,0.1,0l-0.1,0l0.1,0l0.3-0.9L67.1,70.1L67.1,70.1L67.1,70.1z"/>
							<path fill="#C09300" d="M66,70.4l-0.6-1l0,0l0,0c0,0-0.1,0-0.1,0c0,0,0,0,0,0l-0.3,1.1l0.1,0l0.3-1L66,70.4L66,70.4L66,70.4z
								"/>
							<polygon fill="#C09300" points="64.2,65.5 63.7,67.5 63.8,67.5 64.4,65.5 64.2,65.5 							"/>
						</g>
						
							<use xlink:href="#SVGID_3_"  overflow="visible" fill-rule="evenodd" clip-rule="evenodd" fill="none" stroke="#C09300" stroke-width="0.1036" stroke-miterlimit="2.4142"/>
					</g>
				</g>
				<path fill="#FFFFFF" d="M60.4,70.7c0.2,0,0.7,0.1,1.8,0c0-0.1,0.1-0.2,0.3-0.3c0-0.1,0-0.3-0.4-0.3c0,0-0.1,0-0.1,0
					c-0.4,0-0.9,0.1-1.9-0.1c-0.9-0.1-1.6-0.3-1.9-0.4c0,0-0.1,0-0.1,0c0,0-0.1,0-0.1,0c0,0-0.1,0-0.1,0c0,0,0,0.1-0.1,0.1
					c0,0,0,0.1,0,0.1c0,0.1,0,0.3,0,0.3c0.2,0.1,1.1,0.3,1.8,0.4L60.4,70.7L60.4,70.7z"/>
				<g>
					
						<path fill-rule="evenodd" clip-rule="evenodd" fill="#FFFFFF" stroke="#C09300" stroke-width="8.291700e-02" stroke-miterlimit="2.4142" d="
						M63,58.3c-1.2,0.7-2.3,0.9-3.3,0.9c0,1.6,0.5,4.5,3.3,6.7c2.8-2.2,3.3-5.1,3.3-6.7C65.4,59.3,64.2,59,63,58.3L63,58.3z"/>
					<g>
						<defs>
							<path id="SVGID_5_" d="M63,58.6c-1.1,0.6-2.1,0.9-3,0.8c0,1.5,0.4,4.1,3,6.1c2.5-2,3-4.6,3-6.1C65.2,59.5,64.1,59.2,63,58.6
								L63,58.6z"/>
						</defs>
						<use xlink:href="#SVGID_5_"  overflow="visible" fill-rule="evenodd" clip-rule="evenodd" fill="#C09300"/>
						<clipPath id="SVGID_6_">
							<use xlink:href="#SVGID_5_"  overflow="visible"/>
						</clipPath>
						<path clip-path="url(#SVGID_6_)" fill-rule="evenodd" clip-rule="evenodd" fill="#FFFFFF" d="M63,58.6
							c-0.4,0.2-0.8,0.4-1.2,0.5v5.3c0.3,0.4,0.7,0.8,1.2,1.1c0.4-0.3,0.8-0.7,1.1-1v-5.4C63.8,59,63.4,58.9,63,58.6L63,58.6z"/>
						
							<use xlink:href="#SVGID_5_"  overflow="visible" fill-rule="evenodd" clip-rule="evenodd" fill="none" stroke="#C09300" stroke-width="8.291700e-02" stroke-miterlimit="2.4142"/>
					</g>
				</g>
				<g>
					<path fill="#C09300" d="M60.4,70.7c0.2,0,0.7,0.1,1.8,0c0-0.1,0.1-0.2,0.3-0.3c0-0.1,0-0.3-0.4-0.3c0,0-0.1,0-0.1,0
						c-0.4,0-0.9,0.1-1.9-0.1c-0.9-0.1-1.6-0.3-1.9-0.4c0,0-0.1,0-0.1,0c0,0-0.1,0-0.1,0c0,0-0.1,0-0.1,0c0,0,0,0.1-0.1,0.1
						c0,0,0,0.1,0,0.1c0,0.1,0,0.3,0,0.3c0.2,0.1,1.1,0.3,1.8,0.4c0-0.1,0-0.5,0.4-0.5C60.4,70.1,60.4,70.5,60.4,70.7L60.4,70.7z
						 M62.2,70.8c-1.4,0.1-2,0-2,0l-0.1,0l0-0.1c0,0,0.1-0.5-0.2-0.5c-0.3,0-0.3,0.4-0.3,0.4l0,0.1l-0.1,0c-0.8-0.1-1.9-0.4-1.9-0.4
						l0,0l0,0c0,0,0-0.2,0-0.4c0-0.1,0-0.1,0-0.2c0-0.1,0-0.1,0.1-0.1c0,0,0.1-0.1,0.2-0.1c0,0,0.1,0,0.1,0c0,0,0.1,0,0.1,0
						c0.3,0.1,1,0.3,1.9,0.4c1,0.1,1.5,0.1,1.9,0.1c0,0,0.1,0,0.1,0c0.5,0,0.5,0.4,0.5,0.4l0,0l0,0C62.3,70.6,62.3,70.8,62.2,70.8
						L62.2,70.8L62.2,70.8L62.2,70.8z"/>
					<path fill="#C09300" d="M59.7,70.6c0,0,0.1,0.1,0.1,0.2c0,0.1,0.1,0.2,0.1,0.2c0,0,0.1-0.1,0.1-0.1c0,0,0.1-0.1,0.1-0.1
						c0.1-0.1,0.1-0.1,0.1-0.1l0.1,0c0,0.1-0.1,0.1-0.1,0.2c0,0,0,0-0.1,0.1C60,71.1,60,71.2,60,71.2c0,0,0,0.1-0.1,0
						c0,0-0.1,0-0.1-0.1l0,0c0-0.1-0.1-0.2-0.2-0.3c-0.1-0.1-0.1-0.2-0.1-0.2L59.7,70.6L59.7,70.6z"/>
					<path fill="#C09300" d="M62.3,70.7c0,0.1,0.1,0.1,0.1,0.2c0,0,0.1,0.1,0.1,0.1c0.1,0.1,0.1,0.1,0.1,0.2
						c0.1-0.1,0.1-0.3,0.1-0.4c0-0.1,0-0.2-0.1-0.3c-0.1-0.1-0.1-0.1-0.2-0.1l0-0.1c0.1,0,0.2,0,0.3,0.1c0.1,0.1,0.1,0.2,0.1,0.3
						c0,0.3-0.2,0.6-0.2,0.6c0,0,0,0,0,0c0,0-0.1,0-0.1,0l0.1,0l-0.1,0c0,0,0-0.1,0-0.1c0,0-0.1-0.1-0.1-0.1c0,0-0.1-0.1-0.1-0.1
						c-0.1-0.1-0.2-0.1-0.2-0.2L62.3,70.7L62.3,70.7z"/>
					<path fill="#C09300" d="M57.8,69.7c0,0-0.1,0-0.2,0c-0.1,0-0.2,0.1-0.3,0.1c-0.1,0.1-0.1,0.2-0.1,0.3c0,0.1,0,0.1,0,0.2
						c0.1,0,0.1-0.1,0.2-0.1c0.1,0,0.2-0.1,0.2-0.1l0.1,0.1c0,0-0.1,0.1-0.3,0.1c-0.1,0-0.2,0.1-0.2,0.1l0,0c0,0,0,0,0,0
						c0,0-0.1,0-0.1,0l0,0c0-0.1,0-0.2,0-0.3c0-0.2,0.1-0.3,0.2-0.4c0.1-0.1,0.2-0.1,0.3-0.2c0.1,0,0.1,0,0.2,0L57.8,69.7L57.8,69.7
						z"/>
					<path fill="#C09300" d="M58,69.8C58,69.8,58,69.8,58,69.8c0.2,0.1,0.4,0.1,0.6,0.2c0,0,0,0,0.1,0c0-0.1-0.2-0.2-0.3-0.2
						C58.3,69.8,58,69.7,58,69.8L58,69.8z"/>
					<path fill="#C09300" d="M58.9,70.1C58.9,70.1,58.9,70.1,58.9,70.1c0.2,0.1,0.4,0.1,0.6,0.2c0,0,0,0,0.1,0
						c0-0.1-0.2-0.2-0.3-0.2C59.2,70.1,58.9,70,58.9,70.1L58.9,70.1z"/>
					<path fill="#C09300" d="M60.5,70.4C60.5,70.5,60.5,70.5,60.5,70.4c0.2,0,0.4,0,0.6,0c0,0,0.1,0,0.1,0c0-0.1-0.3-0.1-0.3-0.1
						C60.7,70.3,60.5,70.4,60.5,70.4L60.5,70.4z"/>
					<path fill="#C09300" d="M61.4,70.5C61.4,70.5,61.4,70.6,61.4,70.5c0.2,0,0.4,0,0.6,0c0,0,0,0,0.1,0c0-0.1-0.3-0.1-0.3-0.1
						C61.7,70.4,61.4,70.4,61.4,70.5L61.4,70.5z"/>
				</g>
				<path fill="#FFFFFF" d="M65.7,70.7c-0.2,0-0.7,0.1-1.8,0c0-0.1-0.1-0.2-0.2-0.3c0-0.1,0-0.3,0.4-0.3c0,0,0.1,0,0.1,0
					c0.4,0,0.9,0.1,1.9-0.1c0.9-0.1,1.6-0.3,1.9-0.4c0,0,0.1,0,0.1,0c0,0,0.1,0,0.1,0c0,0,0.1,0,0.1,0c0,0,0,0.1,0.1,0.1
					c0,0,0,0.1,0,0.1c0,0.1,0,0.3,0,0.3c-0.2,0.1-1.1,0.3-1.8,0.4L65.7,70.7L65.7,70.7z"/>
				<g>
					<path fill="#C09300" d="M65.7,70.7c-0.2,0-0.7,0.1-1.8,0c0-0.1-0.1-0.2-0.2-0.3c0-0.1,0-0.3,0.4-0.3c0,0,0.1,0,0.1,0
						c0.4,0,0.9,0.1,1.9-0.1c0.9-0.1,1.6-0.3,1.9-0.4c0,0,0.1,0,0.1,0c0,0,0.1,0,0.1,0c0,0,0.1,0,0.1,0c0,0,0,0.1,0.1,0.1
						c0,0,0,0.1,0,0.1c0,0.1,0,0.3,0,0.3c-0.2,0.1-1.1,0.3-1.8,0.4c0-0.1,0-0.5-0.4-0.5C65.6,70.1,65.6,70.5,65.7,70.7L65.7,70.7z
						 M63.8,70.8c1.4,0.1,2,0,2,0l0.1,0l0-0.1c0,0-0.1-0.5,0.2-0.5c0.3,0,0.3,0.4,0.3,0.4l0,0.1l0.1,0c0.8-0.1,1.9-0.4,1.9-0.4l0,0
						l0,0c0,0,0-0.2,0-0.4c0-0.1,0-0.1,0-0.2c0-0.1,0-0.1-0.1-0.1c0,0-0.1-0.1-0.2-0.1c0,0-0.1,0-0.1,0c0,0-0.1,0-0.1,0
						c-0.3,0.1-1,0.3-1.9,0.4c-1,0.1-1.5,0.1-1.9,0.1c0,0-0.1,0-0.1,0c-0.5,0-0.5,0.4-0.5,0.4l0,0l0,0
						C63.7,70.6,63.7,70.8,63.8,70.8L63.8,70.8L63.8,70.8L63.8,70.8z"/>
					<path fill="#C09300" d="M66.3,70.6c0,0-0.1,0.1-0.1,0.2c0,0.1-0.1,0.2-0.1,0.2c0,0-0.1-0.1-0.1-0.1c0,0-0.1-0.1-0.1-0.1
						c-0.1-0.1-0.1-0.1-0.1-0.1l-0.1,0c0,0.1,0.1,0.1,0.1,0.2c0,0,0,0,0.1,0.1c0.1,0.1,0.1,0.2,0.1,0.2c0,0,0,0.1,0.1,0
						c0,0,0.1,0,0.1-0.1l0,0c0-0.1,0.1-0.2,0.2-0.3c0.1-0.1,0.1-0.2,0.1-0.2L66.3,70.6L66.3,70.6z"/>
					<path fill="#C09300" d="M63.7,70.7c0,0.1-0.1,0.1-0.1,0.2c0,0-0.1,0.1-0.1,0.1c-0.1,0.1-0.1,0.1-0.1,0.2
						c-0.1-0.1-0.1-0.3-0.1-0.4c0-0.1,0-0.2,0.1-0.3c0.1-0.1,0.1-0.1,0.2-0.1l0-0.1c-0.1,0-0.2,0-0.3,0.1c-0.1,0.1-0.1,0.2-0.1,0.3
						c0,0.3,0.2,0.6,0.2,0.6c0,0,0,0,0,0c0,0,0.1,0,0.1,0l-0.1,0l0.1,0c0,0,0-0.1,0-0.1c0,0,0.1-0.1,0.1-0.1c0,0,0.1-0.1,0.1-0.1
						c0.1-0.1,0.2-0.1,0.2-0.2L63.7,70.7L63.7,70.7z"/>
					<path fill="#C09300" d="M68.2,69.7c0,0,0.1,0,0.2,0c0.1,0,0.2,0.1,0.3,0.1c0.1,0.1,0.1,0.2,0.1,0.3c0,0.1,0,0.1,0,0.2
						c0,0-0.1-0.1-0.2-0.1c-0.1,0-0.2-0.1-0.2-0.1l-0.1,0.1c0,0,0.1,0.1,0.3,0.1c0.1,0,0.2,0.1,0.2,0.1l0,0c0,0,0,0,0,0
						c0,0,0.1,0,0.1,0l0,0c0-0.1,0-0.2,0-0.3c0-0.2-0.1-0.3-0.2-0.4c-0.1-0.1-0.2-0.1-0.3-0.2c-0.1,0-0.1,0-0.2,0L68.2,69.7
						L68.2,69.7z"/>
					<path fill="#C09300" d="M68,69.8C68,69.8,68,69.8,68,69.8c-0.2,0.1-0.4,0.1-0.6,0.2c0,0,0,0-0.1,0c0-0.1,0.2-0.2,0.3-0.2
						C67.7,69.8,68,69.7,68,69.8L68,69.8z"/>
					<path fill="#C09300" d="M67.1,70.1C67.1,70.1,67.1,70.1,67.1,70.1c-0.2,0.1-0.4,0.1-0.6,0.2c0,0,0,0-0.1,0
						c0-0.1,0.2-0.2,0.3-0.2C66.8,70.1,67.1,70,67.1,70.1L67.1,70.1z"/>
					<path fill="#C09300" d="M65.5,70.4C65.5,70.5,65.5,70.5,65.5,70.4c-0.2,0-0.4,0-0.6,0c0,0,0,0-0.1,0c0-0.1,0.3-0.1,0.3-0.1
						C65.3,70.3,65.5,70.4,65.5,70.4L65.5,70.4z"/>
					<path fill="#C09300" d="M64.6,70.5C64.6,70.5,64.6,70.6,64.6,70.5c-0.2,0-0.4,0-0.6,0c0,0,0,0-0.1,0c0-0.1,0.3-0.1,0.3-0.1
						C64.3,70.4,64.6,70.4,64.6,70.5L64.6,70.5z"/>
				</g>
				<path fill="#C09300" d="M57.5,70.3c-0.1,0.1-0.1,0.4-0.1,0.4l0,0c0,0.1,0,0.1-0.1,0.1c0,0,0,0,0,0c0,0-0.2,0-0.3,0.2
					c0,0,0,0,0,0.1c-0.1,0.1-0.2,0.2-0.2,0.3c0,0.1,0.1,0.1,0.1,0.2c0,0.1,0.1,0.2,0.1,0.3c0,0.1,0.1,0.1,0.2,0.2L57,72.1L57,72
					c0,0,0.1,0.1,0,0.1c0,0.1,0,0.4,0.2,0.5c0.1,0.1,0.4,0.1,0.7,0.2c0.5,0.1,1,0.2,1.4,0.2c0.3,0,1.1,0.1,1.9,0.1
					c0.6,0,1.3,0.1,1.8,0.1l0,0c0.6,0,1.1,0,1.5,0c0.5,0,0.9,0,1.4-0.1c0.4,0,0.9-0.1,1.4-0.2c0.6-0.1,1.1-0.2,1.3-0.2
					c0.2,0,0.3-0.1,0.3-0.2c0.1-0.1,0.1-0.2,0.1-0.3l0,0c0,0,0-0.1,0.1-0.1c0,0,0.2-0.1,0.3-0.3c0,0,0-0.1,0-0.1
					c0-0.1,0-0.2,0.1-0.2c-0.1-0.1-0.1-0.1-0.2-0.3c-0.2-0.2-0.3-0.2-0.3-0.2l0,0c-0.1,0-0.1,0-0.1-0.1c0,0,0,0,0,0
					c0,0,0-0.2-0.1-0.4l0.2,0.1c0,0.1,0,0.2,0,0.2c0.1,0,0.3,0.1,0.4,0.3c0.1,0.1,0.2,0.2,0.2,0.3c0,0,0,0,0.1,0c0,0,0,0,0,0l0,0
					c0.1,0,0.1,0,0.1,0.1c0,0.1,0,0.1-0.1,0.1l0,0c0,0,0,0,0,0c-0.1,0-0.1,0.1-0.1,0.2c0,0,0,0.1,0,0.1c0,0.3-0.2,0.4-0.3,0.5
					c0,0.2,0,0.3-0.1,0.4c-0.1,0.1-0.2,0.2-0.4,0.3c-0.2,0.1-0.7,0.2-1.3,0.3c-0.5,0.1-1,0.1-1.4,0.2c-0.5,0-0.9,0.1-1.4,0.1
					c-0.5,0-0.9,0-1.5,0l0,0c-0.5,0-1.2,0-1.8-0.1c-0.8,0-1.5-0.1-1.9-0.1c-0.4,0-0.9-0.1-1.4-0.2c-0.4-0.1-0.6-0.2-0.8-0.2
					c-0.3-0.2-0.3-0.5-0.3-0.6c-0.1-0.1-0.1-0.1-0.2-0.2c-0.1-0.1-0.1-0.2-0.1-0.3c-0.1-0.2-0.1-0.2-0.2-0.2l0,0
					c-0.1,0-0.1-0.1-0.1-0.1c0-0.1,0.1-0.1,0.1-0.1l0,0l0,0l0,0l0,0c0.1,0,0.2-0.1,0.3-0.2c0,0,0,0,0-0.1c0.1-0.2,0.3-0.2,0.4-0.2
					c0-0.1,0-0.2,0.1-0.3L57.5,70.3L57.5,70.3z"/>
				<g>
					<path fill-rule="evenodd" clip-rule="evenodd" fill="#C09300" d="M58.2,70.8c0.1,0,0.1-0.1,0.2-0.1c0.1,0,0.1,0.1,0,0.2
						c0,0.1-0.2,0.6-0.2,0.7c0,0.1,0,0.1,0.1,0.1s0.1,0,0.1,0c0.1,0,0.1,0,0.1-0.1c0-0.1,0-0.1,0-0.2c0,0,0-0.1,0-0.1
						c0.1,0,0.1-0.1,0.2-0.1c0.1,0,0.1,0,0.1,0.1c0,0.1-0.1,0.3-0.1,0.4c0,0,0,0.1,0.1,0.1c0.1,0,0.1,0,0.2,0c0.1,0,0.1,0,0.1-0.1
						c0-0.1,0-0.1,0-0.2c0-0.1,0-0.1,0.1-0.1c0.1,0,0.1,0,0.1-0.1c0,0,0.1,0,0.1,0.1c0,0.1-0.1,0.4-0.1,0.5c0,0.1-0.1,0.1-0.2,0.1
						c-0.1,0-1.1-0.3-1.2-0.3s-0.1-0.2,0-0.2c0.1-0.1,0.2-0.1,0.3-0.2s0.1,0,0.1-0.1c0-0.1,0.1-0.3,0.1-0.3
						C58.2,70.9,58.1,70.8,58.2,70.8c-0.1,0.1-0.2,0.2-0.2,0.1c0,0-0.1-0.1,0-0.1C57.9,70.7,58.1,70.8,58.2,70.8L58.2,70.8z
						 M57.9,71.5C57.9,71.5,57.9,71.6,57.9,71.5C58,71.6,58,71.6,57.9,71.5C58,71.5,58,71.5,57.9,71.5L57.9,71.5z"/>
					<path fill-rule="evenodd" clip-rule="evenodd" fill="#C09300" d="M57.8,71c0,0.1,0,0.1,0,0.1c0,0,0.1,0,0.1,0c0,0,0-0.1,0-0.1
						C57.9,71,57.9,71,57.8,71L57.8,71z"/>
					<path fill-rule="evenodd" clip-rule="evenodd" fill="#C09300" d="M57.9,71.9c0,0,0,0.1,0,0.1c0,0,0.1,0.1,0.1,0
						c0.1,0,0.1-0.1,0-0.1S57.9,71.9,57.9,71.9L57.9,71.9z"/>
					<path fill-rule="evenodd" clip-rule="evenodd" fill="#C09300" d="M58.1,72c0,0.1,0,0.1,0,0.1c0,0,0.1,0,0.1-0.1
						c0,0,0-0.1,0-0.1C58.2,72,58.2,72,58.1,72L58.1,72z"/>
					<path fill-rule="evenodd" clip-rule="evenodd" fill="#C09300" d="M58.6,72.1c0,0,0,0.1,0,0.1c0,0,0.1,0,0.1,0c0,0,0-0.1,0-0.1
						C58.7,72.1,58.7,72.1,58.6,72.1L58.6,72.1z"/>
					<path fill-rule="evenodd" clip-rule="evenodd" fill="#C09300" d="M59.4,71.9c0,0.1,0,0.3-0.1,0.3c-0.1,0-0.3,0-0.3,0.1
						c0,0,0.2,0.1,0.3,0.1c0.1,0,0.1-0.2,0.3-0.2c0.1,0,0.2,0,0.3,0c0.1,0,0.1-0.1,0.2-0.1c0,0,0.1,0,0.1,0.1c0,0.1,0.1,0.1,0.1,0.1
						c0.1,0,0.1,0,0.1,0.1c0,0.1,0,0.2,0.2,0.2c0.2,0,0.3-0.2,0.3-0.3c0-0.1,0.1-0.8,0.1-1c0-0.1,0-0.2-0.1-0.1
						c-0.1,0.1-0.1,0.1-0.1,0.1c-0.1,0-0.1,0.1,0,0.1c0,0,0,0.2,0,0.5c0,0.3-0.1,0.4-0.1,0.5c0,0.1-0.1,0.1-0.1,0
						c0-0.1,0-0.2-0.1-0.2c-0.1,0-0.2,0-0.2-0.1c0-0.1,0.1-0.1,0.1-0.1s0.1,0,0.1-0.1c0-0.1-0.2-0.1-0.2-0.2c0-0.1-0.1-0.2-0.2-0.3
						c-0.1,0-0.2,0.1-0.2,0.2c0,0.1-0.1,0-0.2,0.1c-0.1,0-0.1,0.1-0.1,0.1c0,0.1,0.1,0.1,0.2,0.1c0.1,0,0,0.1-0.1,0.1
						c-0.1,0-0.3,0-0.3-0.1c0-0.1,0-0.3-0.1-0.3c0-0.1-0.1-0.1-0.1,0C59.3,71.7,59.3,71.8,59.4,71.9L59.4,71.9z M60.1,71.7
						c0,0,0.1-0.1,0.1,0c0,0.1,0,0.1,0,0.1c0,0,0,0.1-0.1,0.1c-0.1,0-0.1,0-0.1,0C60,71.8,60.1,71.8,60.1,71.7L60.1,71.7z"/>
					<path fill-rule="evenodd" clip-rule="evenodd" fill="#C09300" d="M61.1,71.4c0,0.2-0.1,0.8-0.1,0.9c0,0.1,0.2,0.2,0.2,0
						c0-0.2,0.1-0.7,0.1-0.8c0-0.1,0-0.1,0.1-0.1c0,0,0.1-0.1,0-0.1C61.3,71.4,61.3,71.3,61.1,71.4C61.2,71.2,61.2,71.2,61.1,71.4
						L61.1,71.4z"/>
					<path fill-rule="evenodd" clip-rule="evenodd" fill="#C09300" d="M61.5,72.2c0.1,0.1,0.1,0.4-0.2,0.5c-0.3,0-0.1,0.1,0,0.1
						c0.1,0,0.3,0,0.4-0.1c0.1-0.1,0.1-0.2,0.2-0.2c0.1,0,0.6,0,0.7,0c0.1,0,0.1,0,0.1,0.1c0,0.1,0.1,0.1,0.2,0.2
						c0.1,0,0.2,0,0.2-0.1c0-0.1,0-0.2,0.1-0.2c0.1,0,0.4,0,0.5,0c0.1,0,0.1-0.1,0.1-0.1c0-0.1,0-0.3,0-0.4c0-0.1-0.1,0-0.2,0
						c-0.1,0-0.1,0-0.2,0.1c-0.1,0.1-0.1,0.1-0.1,0.2c0,0.1-0.1,0.1-0.1,0c0-0.1,0-0.1,0-0.2c0,0,0-0.1-0.2-0.1c-0.1,0-0.6,0-0.7,0
						c-0.1,0-0.1,0-0.1-0.1c0-0.1,0-0.2-0.1-0.1c-0.1,0-0.1,0.1-0.1,0.1c0,0.1,0.1,0.2,0,0.3c0,0.1-0.1,0.1-0.2,0
						c-0.1-0.1-0.1-0.2-0.1-0.3c0,0-0.1,0-0.1,0C61.5,72,61.4,72.1,61.5,72.2L61.5,72.2z M63.4,72.3C63.4,72.2,63.5,72.2,63.4,72.3
						c0.1,0,0.1,0,0.1,0C63.5,72.3,63.5,72.3,63.4,72.3C63.4,72.3,63.4,72.3,63.4,72.3L63.4,72.3z M62.3,72.2c0.1,0,0.5,0,0.5,0
						c0.1,0,0.1,0,0.1,0.1c0,0.1,0,0.2,0,0.2c0,0-0.1,0.1-0.1,0c0-0.1,0-0.1,0-0.1s0,0-0.1-0.1c-0.1,0-0.3,0-0.4,0
						c-0.1,0-0.2,0-0.2-0.1C62.1,72.2,62.2,72.2,62.3,72.2L62.3,72.2z"/>
					<path fill-rule="evenodd" clip-rule="evenodd" fill="#C09300" d="M63.9,71.5c-0.1,0.1-0.1,0.1,0,0.1c0,0.1,0.1,0.1,0.1,0
						c0-0.1,0.1-0.1,0-0.1C64,71.4,64,71.4,63.9,71.5L63.9,71.5z"/>
					<path fill-rule="evenodd" clip-rule="evenodd" fill="#C09300" d="M63.9,71.7c-0.1,0-0.1,0.1,0,0.1c0.1,0.1,0.1,0.1,0.1,0
						c0.1-0.1,0.1-0.1,0-0.1C64,71.7,64,71.7,63.9,71.7L63.9,71.7z"/>
					<path fill-rule="evenodd" clip-rule="evenodd" fill="#C09300" d="M64.2,71.6c0,0.1,0,0.3,0,0.3c0,0.1,0,0.1-0.1,0.1
						c-0.1,0-0.2,0.1-0.2,0.2c0,0.1,0,0.1,0,0.2c0,0.1,0,0.1,0.1,0.1c0.1,0,0.6-0.1,0.7-0.1s0.1-0.1,0.1-0.1c0-0.1,0-0.4,0-0.4
						c0-0.1-0.1-0.1-0.1,0c-0.1,0-0.1,0.1-0.1,0.1c0,0.1,0.1,0,0.1,0.1c0,0.1,0,0.2-0.1,0.2c-0.1,0-0.2,0.1-0.2-0.1
						c0-0.2-0.1-0.7-0.1-0.8c0-0.1-0.1-0.1-0.1,0c-0.1,0.1-0.1,0.1-0.1,0.1C64.1,71.5,64.2,71.5,64.2,71.6
						C64.2,71.5,64.2,71.5,64.2,71.6L64.2,71.6z M64.2,72.2C64.2,72.3,64.2,72.3,64.2,72.2C64.2,72.3,64.2,72.3,64.2,72.2
						C64.3,72.3,64.3,72.2,64.2,72.2L64.2,72.2z"/>
					<path fill-rule="evenodd" clip-rule="evenodd" fill="#C09300" d="M64.3,72.6c0.1,0,0.1,0,0.1,0c0,0,0-0.1,0.1-0.1
						c0.1,0,0.1,0.1,0.1,0.1c0,0,0,0.1-0.1,0.1c-0.1,0-0.1-0.1-0.1-0.1c0,0,0,0-0.1,0c0,0-0.1,0.1-0.2,0c0-0.1,0-0.1,0-0.1
						C64.3,72.6,64.3,72.6,64.3,72.6L64.3,72.6z"/>
					<path fill-rule="evenodd" clip-rule="evenodd" fill="#C09300" d="M65.1,72.1c0.1,0.1,0.1,0.1,0.1,0.2c0,0.2-0.1,0.2-0.2,0.3
						c-0.1,0.1-0.1,0.1,0,0.1c0.1,0,0.3,0,0.3-0.1c0.1-0.1,0.2-0.3,0-0.5c-0.1-0.2-0.1-0.2-0.2-0.3c0,0,0,0-0.1,0.1
						C65.1,72,65,72.1,65.1,72.1L65.1,72.1z"/>
					<path fill-rule="evenodd" clip-rule="evenodd" fill="#C09300" d="M65.7,71.9c-0.1,0.1-0.1,0.1-0.1,0.2c0,0.1,0,0.2,0.1,0.2
						c0.1,0,0.2,0,0.2,0c0,0,0,0.1-0.2,0.2c-0.2,0-0.1,0.1,0,0.1c0.1,0,0.3-0.1,0.3-0.2c0-0.1,0.1-0.1,0.2-0.2c0.1,0,0.2,0,0.3,0
						c0,0,0.1,0,0.1,0.1c0.1,0.1,0.1,0.2,0.2,0.1c0.1,0,0.2-0.1,0.2-0.2c0-0.1,0-0.1,0.1-0.1c0,0,0.1,0,0.1,0.1
						c0.1,0.1,0.3,0.1,0.4-0.1c0.1-0.1,0.1-0.1,0.3-0.2c0.1,0,0.4-0.1,0.5-0.1c0.1,0,0.1-0.1,0.1-0.1c0,0-0.1-0.1-0.1-0.1
						c0,0-0.1,0-0.1,0c0,0-0.2,0.1-0.3,0c-0.1-0.1-0.1-0.3-0.1-0.4c0-0.2,0-0.3-0.1-0.4c-0.1-0.1-0.3-0.1-0.4,0
						c-0.1,0-0.1,0.1-0.1,0.1c0,0.1,0.1,0.1,0.1,0.1c0.1-0.1,0.2-0.1,0.3,0c0.1,0.1,0.1,0.2,0.1,0.4c0,0.2,0.1,0.2,0.1,0.3
						c0,0.1-0.1,0.1-0.1,0.1c-0.1,0-0.2-0.2-0.3-0.1c-0.1,0-0.2,0.1-0.2,0.2c0,0.1-0.1,0.1-0.2,0c-0.1-0.2-0.1-0.2-0.3-0.2
						c-0.2,0-0.1-0.3-0.2-0.3c-0.1-0.1-0.1,0-0.1,0c0,0-0.1,0.1,0,0.1c0,0.1,0.1,0.1,0,0.2c-0.1,0.1-0.2,0.1-0.2,0.3
						c0,0.2,0,0.2-0.1,0.2C66,72.1,66,72,66,71.9C66,71.8,65.9,71.8,65.7,71.9L65.7,71.9z M65.8,72.1C65.7,72.1,65.7,72.1,65.8,72.1
						C65.8,72.2,65.9,72.1,65.8,72.1C65.9,72.1,65.8,72,65.8,72.1L65.8,72.1z M67.4,71.9c-0.1,0.1-0.1,0.1,0,0.1
						c0.1,0,0.1,0,0.1-0.1C67.5,71.9,67.4,71.8,67.4,71.9L67.4,71.9z M66.8,72.2C66.7,72.2,66.7,72.2,66.8,72.2
						c0.1,0.1,0.1,0.1,0.1,0C66.9,72.2,66.8,72.2,66.8,72.2L66.8,72.2z M66.7,71.9c0,0.1,0.1,0.1,0.1,0.1c0.1,0,0.1,0,0-0.1
						C66.8,71.9,66.6,71.8,66.7,71.9L66.7,71.9z M66.4,72c0,0.1,0.1,0.1,0.1,0.1c0-0.1,0-0.1,0-0.1C66.4,71.9,66.4,71.9,66.4,72
						L66.4,72z"/>
					<path fill-rule="evenodd" clip-rule="evenodd" fill="#C09300" d="M68,72c-0.1,0.1-0.1,0.1,0,0.1c0.1,0,0.1,0,0.2,0
						c0,0,0-0.1,0-0.1C68.1,72,68.1,72,68,72L68,72z"/>
				</g>
			</g>
		</g>
	</g>
	<path opacity="0.25" fill="#FFFFFF" d="M13,29.7v25.5C26.2,62.6,43.7,67,63,67c19.3,0,36.8-4.5,50-11.8V29.7H13z"/>
</g>
</svg>
