<?xml version="1.0" encoding="utf-8"?>
<!-- Generator: Adobe Illustrator 24.3.0, SVG Export Plug-In . SVG Version: 6.00 Build 0)  -->
<svg version="1.1" id="Layer_1" xmlns="http://www.w3.org/2000/svg" xmlns:xlink="http://www.w3.org/1999/xlink" x="0px" y="0px"
	 viewBox="0 0 126 126" enable-background="new 0 0 126 126" xml:space="preserve">
<g>
	<g>
		<polygon fill-rule="evenodd" clip-rule="evenodd" fill="#FF1612" points="13,96.3 113,96.3 113,74.1 29.7,74.1 13,96.3 		"/>
		<polygon fill-rule="evenodd" clip-rule="evenodd" fill="#F0F0F0" points="29.7,74.1 113,74.1 113,51.9 29.7,51.9 38,63 29.7,74.1 
					"/>
		<polygon fill-rule="evenodd" clip-rule="evenodd" fill="#47B71D" points="29.7,51.9 113,51.9 113,29.7 13,29.7 29.7,51.9 		"/>
		<polygon fill-rule="evenodd" clip-rule="evenodd" fill="#2489F0" points="13,29.7 13,96.3 38,63 13,29.7 		"/>
		<g>
			
				<path fill-rule="evenodd" clip-rule="evenodd" fill="#F4F4F4" stroke="#000000" stroke-width="0.1569" stroke-miterlimit="2.4142" d="
				M63,56.1c1.8,0,3.5,0,5.3,0c0,3.8,0,7.4,0,11.2c0,3.5-5,0.7-5.3,2.9c0,0.1,0,0.1,0,0c-0.3-2.2-5.3,0.6-5.3-2.9
				c0-3.8,0-7.3,0-11.2C59.5,56.1,61.2,56.1,63,56.1L63,56.1z"/>
			<g>
				<g>
					
						<path fill-rule="evenodd" clip-rule="evenodd" fill="#73452B" stroke="#000000" stroke-width="3.137400e-02" stroke-miterlimit="2.4142" d="
						M62.9,60.2c0,0.3,0,2,0,2.2c0,0.3,0,1.7,0,2.1c0,0.3,0,2.6,0,2.8c0,0.3-0.1,0.9-0.1,0.9c0,0.1,0,0.1,0,0.1s0.3,0.5,0.7,0
						c0,0,0.1,0.1,0.3-0.1c0,0,0.4,0.2,0.4-0.1c0-0.3-0.1-0.7-0.2-0.9c-0.1-0.2-0.3-1-0.4-1.2c-0.1-0.2-0.2-1.2-0.2-1.7
						c0-0.5-0.1-1.4-0.1-1.6c0-0.2,0-0.8,0.1-1c0.1-0.2,0.4-0.9,1.1-1.1l-0.4-0.3c0,0-0.5,0.2-0.8,0.6v0l0.1-0.8L62.9,60.2
						L62.9,60.2z"/>
					
						<path fill-rule="evenodd" clip-rule="evenodd" fill="#A36629" stroke="#000000" stroke-width="3.137400e-02" stroke-miterlimit="2.4142" d="
						M62.1,60.3c0,0,0.4,0.2,0.8,0.7c0,0.6,0,1.3,0,1.4c0,0.3,0,1.7,0,2.1c0,0.3,0,2.6,0,2.8c0,0.3-0.1,0.9-0.1,0.9
						c0,0.1,0,0.1,0,0.1s-0.5,0.5-0.7-0.1c0,0-0.5,0.3-0.5-0.2c0.5-1.1,0.9-2.8,1-4.1c0-0.6,0.1-1.9-0.1-2.4
						c-0.2-0.5-0.3-0.5-0.4-0.7L62.1,60.3L62.1,60.3z"/>
					<path d="M62.1,68.2C62.1,68.2,62.1,68.2,62.1,68.2c0-0.1-0.1-0.2,0-0.3c0-0.1,0.1-0.3,0.2-0.5c0.1-0.3,0.2-0.6,0.3-0.8
						c0.1-0.2,0.1-0.4,0.2-0.7c0-0.2,0.1-0.4,0-0.6l0,0c0,0.1,0,0.3,0,0.6c0,0.2-0.1,0.5-0.2,0.7c-0.1,0.2-0.2,0.5-0.3,0.8
						c-0.1,0.2-0.2,0.4-0.2,0.5C62.1,68.1,62.1,68.1,62.1,68.2C62.2,68.2,62.2,68.2,62.1,68.2L62.1,68.2L62.1,68.2z"/>
					<path d="M63.4,60.9c0,0,0,0.1,0,0.2c0,0.1,0,0.2,0,0.4c0,0.1,0,0.5,0,0.9c0,0.6,0,1.2,0,1.4c0,0.1,0,0.6,0,1.1
						c0,0.6,0,1.3,0.1,1.7c0,0.2,0,0.4,0,0.6c0,0.6,0,1,0.2,1.1l0,0c-0.2-0.2-0.2-0.6-0.2-1.2c0-0.2,0-0.4,0-0.6
						c0-0.5-0.1-1.2-0.1-1.7c0-0.5,0-0.9,0-1.1c0-0.2,0-0.8,0-1.4c0-0.4,0-0.8,0-0.9c0-0.2,0-0.3,0-0.4C63.3,61,63.3,60.9,63.4,60.9
						L63.4,60.9L63.4,60.9z"/>
					<path d="M63.5,66.4c0.1,0.3,0.2,0.7,0.3,1l0,0c0,0.1,0,0.3,0,0.4c0,0.2,0,0.4,0,0.4l0,0c0-0.1,0-0.2,0-0.4c0-0.1,0-0.3,0-0.4
						l0,0C63.7,67.1,63.6,66.7,63.5,66.4L63.5,66.4L63.5,66.4z"/>
				</g>
				
					<path fill-rule="evenodd" clip-rule="evenodd" fill="#1AA624" stroke="#000000" stroke-width="2.353100e-02" stroke-miterlimit="2.4142" d="
					M59.1,60.7c0,0,0-0.5,0.7-0.3c0,0-0.1-0.3,0.3-0.2c0,0-0.2-0.3,0.2-0.4c0,0-0.5-0.5,0.2-0.8c0,0-0.3-0.5,0.4-0.4
					c0,0-0.2-0.6,0.6-0.6c0,0-0.1-0.3,0.3-0.3c0,0-0.3-0.7,0.5-0.5c0,0,0.1-0.5,0.8-0.3c0.7,0.2,0.7,0.9,0.7,0.9s0.5,0,0.7,0.5
					c0,0,0.1-0.3,0.5-0.2c0,0,0-0.3,0.4-0.3c0.4,0,0.4,0.4,0.4,0.4s0.4-0.1,0.5,0.1c0.1,0.3-0.1,0.4-0.1,0.4s1-0.3,0.9,0.6
					c0,0,0.6,0.1,0.6,0.6c0,0.4-0.4,0.5-0.4,0.5s0,0.7-1,0.4c0,0-0.8,0.7-1.3-0.2c0,0-0.8,0.2-1.1-0.5c0,0-0.6,0.4-1.2,0
					c0,0,0,0.4-0.4,0.2c0,0,0.1,0.8-0.6,0.6c0,0,0.2,0.5-0.1,0.7c-0.4,0.1-0.7-0.1-0.8-0.2c0,0-0.4,0.1-0.6-0.2c0,0-0.1,0.4-0.5,0.4
					c-0.3,0-0.4-0.3-0.4-0.3s-0.5,0-0.6-0.3C58.6,60.7,59.1,60.7,59.1,60.7L59.1,60.7z"/>
				<g>
					<path d="M60.9,59.9c-0.1,0-0.2-0.1-0.3-0.1c-0.1,0-0.2,0-0.3,0.1l0,0c0.1-0.1,0.2-0.1,0.3-0.1C60.8,59.8,60.9,59.9,60.9,59.9
						L60.9,59.9L60.9,59.9z"/>
					<path d="M60.7,61.4c0-0.1,0-0.1,0-0.2c0-0.1,0.1-0.1,0.1-0.2c0,0,0,0,0,0l0,0c0,0,0-0.1,0-0.1c0,0,0-0.1-0.1-0.1c0,0,0,0,0,0
						l0,0c0,0-0.1,0-0.2,0c-0.1,0-0.1,0.1-0.2,0.1l0,0c0.1-0.1,0.2-0.1,0.2-0.1c0.1,0,0.2,0,0.2,0l0,0c0,0,0,0,0,0
						c0,0,0.1,0.1,0.1,0.1c0,0.1,0,0.1,0,0.2l0,0c0,0,0,0,0,0c-0.1,0-0.1,0.1-0.1,0.1C60.7,61.2,60.7,61.3,60.7,61.4L60.7,61.4
						L60.7,61.4z"/>
					<path d="M61.2,61c0,0-0.1-0.1-0.2-0.1c-0.1,0-0.1,0-0.2,0l0,0c0.1,0,0.1,0,0.2,0C61.2,60.9,61.2,61,61.2,61L61.2,61L61.2,61z"
						/>
					<path d="M61.5,60.3c0.1-0.1,0.1-0.1,0.2-0.1c0.1,0,0.1,0,0.2,0c0-0.1,0-0.3,0.2-0.3v0c-0.3,0-0.2,0.3-0.2,0.3l0,0l0,0
						c-0.1,0-0.1-0.1-0.2,0C61.7,60.2,61.6,60.2,61.5,60.3L61.5,60.3L61.5,60.3z"/>
					<path d="M61,59.2L61,59.2c0.1,0,0.3,0,0.5,0.2c0.1-0.1,0.3-0.5,0.6-0.3l0,0c-0.2-0.2-0.5,0.3-0.5,0.3l0,0l0,0
						C61.3,59.2,61.1,59.3,61,59.2L61,59.2L61,59.2L61,59.2z"/>
					<path d="M62.5,59.1c0.1,0,0.3,0,0.5,0.1c0.1,0.1,0.3,0.2,0.4,0.4c0-0.1,0.1-0.3,0.4-0.2v0c-0.4,0-0.4,0.3-0.4,0.3l0,0l0,0
						c-0.1-0.2-0.2-0.3-0.4-0.4C62.8,59.1,62.7,59.1,62.5,59.1L62.5,59.1L62.5,59.1z"/>
					<path d="M63.9,59.8C63.9,59.8,63.9,59.8,63.9,59.8c0,0-0.1,0.1-0.1,0.2c0,0.1,0,0.2,0,0.2c0,0,0,0,0,0l0,0c0,0,0,0,0,0
						c0-0.1,0-0.2,0-0.2C63.8,59.9,63.8,59.8,63.9,59.8C63.9,59.8,63.9,59.8,63.9,59.8L63.9,59.8L63.9,59.8z"/>
					<path d="M62.3,58.6c0-0.1,0-0.3-0.1-0.4c0,0-0.1-0.1-0.1-0.1c0,0-0.1,0-0.1,0c-0.1,0-0.1,0.1-0.2,0.2l0,0v0c0,0,0-0.3-0.3-0.3
						v0c0.2,0,0.3,0.2,0.3,0.3c0.1-0.1,0.1-0.1,0.2-0.1c0,0,0.1,0,0.1,0c0,0,0.1,0.1,0.1,0.1C62.3,58.4,62.4,58.5,62.3,58.6
						L62.3,58.6L62.3,58.6z"/>
					<path d="M62.9,58.4c0-0.1,0.1-0.1,0.2-0.1c0.1,0,0.2,0,0.3,0.1c0-0.1,0-0.3,0.2-0.3c0.1-0.1,0.2-0.1,0.2-0.1
						c0.1,0,0.1-0.1,0.1-0.1l0,0c0,0-0.1,0.1-0.1,0.1c-0.1,0-0.1,0.1-0.2,0.1c-0.2,0.1-0.1,0.4-0.1,0.4l0,0l0,0
						c-0.1-0.1-0.2-0.2-0.3-0.2C63,58.3,62.9,58.3,62.9,58.4L62.9,58.4L62.9,58.4z"/>
					<path d="M64.4,58.9c0-0.1,0.1-0.2,0.1-0.3c0-0.1,0-0.3,0-0.3l0,0c0,0.1,0,0.2,0,0.3C64.5,58.7,64.5,58.8,64.4,58.9L64.4,58.9
						L64.4,58.9z"/>
					<path d="M65.7,58.9c0,0,0.1-0.1,0.1-0.1c0.1,0,0.1,0,0.2,0c0,0,0.1,0,0.1,0c0.1,0,0.1,0,0.1,0l0,0c0,0-0.1,0-0.1,0
						c0,0-0.1,0-0.1,0c0,0-0.1,0-0.2,0C65.8,58.9,65.7,58.9,65.7,58.9L65.7,58.9L65.7,58.9z"/>
					<path d="M64.9,59.6c0.1-0.1,0.2-0.1,0.4,0c0.1,0.1,0.2,0.1,0.3,0.3c0-0.1,0.2-0.2,0.5-0.2v0c-0.3,0-0.5,0.2-0.5,0.2l0,0l0,0
						c-0.1-0.1-0.2-0.2-0.3-0.3C65.1,59.6,65,59.6,64.9,59.6L64.9,59.6L64.9,59.6z"/>
					<path d="M65.4,60.5c0,0-0.1,0-0.2,0c0,0-0.1,0-0.1,0c0,0-0.1,0-0.1,0.1c0,0,0,0.1,0,0.2l0,0c0-0.1,0-0.1,0.1-0.2
						c0,0,0.1-0.1,0.1-0.1c0,0,0.1,0,0.1,0C65.3,60.4,65.4,60.4,65.4,60.5L65.4,60.5L65.4,60.5z"/>
					<path d="M66.2,60.4c0,0.1,0.1,0.1,0.1,0.2c0,0.1,0,0.2,0,0.3l0,0c0,0,0-0.2,0-0.3C66.3,60.5,66.2,60.4,66.2,60.4L66.2,60.4
						L66.2,60.4z"/>
					<path d="M66.5,60c0.1,0,0.2,0,0.2,0.1c0.1,0.1,0.1,0.2,0.1,0.3c0.1-0.1,0.2-0.2,0.5,0l0,0c-0.3-0.2-0.5,0-0.5,0l0,0v0
						c0-0.2,0-0.2-0.1-0.3C66.6,60.1,66.6,60.1,66.5,60L66.5,60L66.5,60z"/>
				</g>
			</g>
			<g>
				
					<polygon fill-rule="evenodd" clip-rule="evenodd" fill="#FFD700" stroke="#000000" stroke-width="7.843100e-02" stroke-miterlimit="2.4142" points="
					64.5,52.9 64.8,53.5 65.4,53.5 65,54 65.3,54.6 64.7,54.6 64.4,55.1 64.1,54.5 63.4,54.5 63.8,54 63.5,53.4 64.1,53.4 
					64.5,52.9 				"/>
				
					<polygon fill-rule="evenodd" clip-rule="evenodd" fill="#FFD700" stroke="#000000" stroke-width="7.843100e-02" stroke-miterlimit="2.4142" points="
					67.4,53.3 67.5,54 68.2,54.1 67.7,54.6 67.9,55.2 67.3,55 66.8,55.5 66.6,54.9 66,54.7 66.5,54.3 66.3,53.7 66.9,53.8 
					67.4,53.3 				"/>
				
					<polygon fill-rule="evenodd" clip-rule="evenodd" fill="#FFD700" stroke="#000000" stroke-width="7.843100e-02" stroke-miterlimit="2.4142" points="
					70.1,54.2 70.2,54.8 70.7,55.1 70.2,55.4 70.3,56.1 69.7,55.8 69.2,56.2 69.1,55.5 68.5,55.2 69.1,54.9 69,54.3 69.6,54.5 
					70.1,54.2 				"/>
				
					<polygon fill-rule="evenodd" clip-rule="evenodd" fill="#FFD700" stroke="#000000" stroke-width="7.843100e-02" stroke-miterlimit="2.4142" points="
					61.6,52.9 61.4,53.5 60.7,53.5 61.1,54 60.8,54.6 61.4,54.6 61.8,55.1 62.1,54.5 62.7,54.5 62.3,54 62.6,53.4 62,53.4 
					61.6,52.9 				"/>
				
					<polygon fill-rule="evenodd" clip-rule="evenodd" fill="#FFD700" stroke="#000000" stroke-width="7.843100e-02" stroke-miterlimit="2.4142" points="
					58.7,53.3 58.6,54 58,54.1 58.4,54.6 58.2,55.2 58.8,55 59.3,55.5 59.5,54.9 60.1,54.7 59.6,54.3 59.8,53.7 59.2,53.8 
					58.7,53.3 				"/>
				
					<polygon fill-rule="evenodd" clip-rule="evenodd" fill="#FFD700" stroke="#000000" stroke-width="7.843100e-02" stroke-miterlimit="2.4142" points="
					56,54.2 55.9,54.8 55.4,55.1 55.9,55.4 55.8,56.1 56.4,55.8 56.9,56.2 57,55.5 57.6,55.2 57,54.9 57.1,54.3 56.5,54.5 56,54.2 
									"/>
			</g>
			<g>
				
					<path fill-rule="evenodd" clip-rule="evenodd" fill="#F4F4F4" stroke="#000000" stroke-width="7.843100e-02" stroke-miterlimit="2.4142" d="
					M65.9,71.9v-1.4c-0.1,0.7-5.7,0.7-5.8,0v1.4C60.4,72.8,65.6,72.8,65.9,71.9L65.9,71.9z"/>
				
					<path fill-rule="evenodd" clip-rule="evenodd" fill="#F4F4F4" stroke="#000000" stroke-width="7.843100e-02" stroke-miterlimit="2.4142" d="
					M65,70.9l0-1c0,0,0.9,0.2,1,0.6C65.9,70.5,65.8,70.8,65,70.9L65,70.9z"/>
				
					<path fill-rule="evenodd" clip-rule="evenodd" fill="#F4F4F4" stroke="#000000" stroke-width="7.843100e-02" stroke-miterlimit="2.4142" d="
					M64.9,69.9c0,0-0.1-0.1,0-0.4c0,0,4.3,0.9,5.5-2.3c0.1-0.2,0-0.2,0.1,0c0.1,0.3,0.2,1.2,0.5,1.6c0,0-0.1,2.4-5,2.6
					c0-0.2,0-0.9,0-0.9C65.9,70.1,64.9,69.9,64.9,69.9L64.9,69.9z"/>
				
					<path fill-rule="evenodd" clip-rule="evenodd" fill="#F4F4F4" stroke="#000000" stroke-width="7.843100e-02" stroke-miterlimit="2.4142" d="
					M70.4,67c-0.1-0.2-0.2-0.6-0.6-0.4c-0.3,0.2-0.4,0.2-0.5,0.3c-0.1,0,0,0,0,0.1l0.7,1C70.2,67.7,70.3,67.4,70.4,67L70.4,67z"/>
				
					<path fill-rule="evenodd" clip-rule="evenodd" fill="#F4F4F4" stroke="#000000" stroke-width="7.843100e-02" stroke-miterlimit="2.4142" d="
					M69.3,66.9c0,0-0.2-0.3,0.3-0.8c0.4-0.5,1-1.1,1.1-1.5c0-0.1,0-0.1,0,0c0,0.2,0.2,1.1,0.4,1.6c0.3,0.7,0.1,1.3-0.5,1.6
					c0,0,0,0,0,0c-0.1-0.4-0.2-0.8-0.2-0.8c-0.1-0.2-0.2-0.6-0.6-0.4C69.5,66.9,69.5,66.9,69.3,66.9L69.3,66.9z"/>
				
					<path fill-rule="evenodd" clip-rule="evenodd" fill="#F4F4F4" stroke="#000000" stroke-width="7.843100e-02" stroke-miterlimit="2.4142" d="
					M61,70.9l0-1c0,0-0.9,0.2-1,0.6C60.1,70.5,60.2,70.8,61,70.9L61,70.9z"/>
				
					<path fill-rule="evenodd" clip-rule="evenodd" fill="#F4F4F4" stroke="#000000" stroke-width="7.843100e-02" stroke-miterlimit="2.4142" d="
					M61.1,69.9c0,0,0.1-0.1,0-0.4c0,0-4.4,1-5.5-2.4c0,0,0,0,0,0c0,0.2-0.2,1.2-0.5,1.7c0,0,0.1,2.4,5,2.6c0-0.2,0-0.9,0-0.9
					C60.1,70.1,61.1,69.9,61.1,69.9L61.1,69.9z"/>
				
					<path fill-rule="evenodd" clip-rule="evenodd" fill="#F4F4F4" stroke="#000000" stroke-width="7.843100e-02" stroke-miterlimit="2.4142" d="
					M55.6,67c0.1-0.2,0.2-0.6,0.6-0.4c0.3,0.2,0.4,0.2,0.5,0.3c0,0,0,0,0,0l-0.7,1C55.8,67.7,55.7,67.4,55.6,67L55.6,67z"/>
				
					<path fill-rule="evenodd" clip-rule="evenodd" fill="#F4F4F4" stroke="#000000" stroke-width="7.843100e-02" stroke-miterlimit="2.4142" d="
					M56.7,66.9c0,0,0.2-0.3-0.3-0.8c-0.4-0.5-1-1.1-1.1-1.5c0-0.1,0-0.1,0,0c0,0.2-0.2,1.1-0.4,1.7c-0.3,0.7-0.1,1.3,0.5,1.6
					c0,0,0,0,0,0c0.1-0.4,0.2-0.8,0.2-0.8c0.1-0.2,0.2-0.6,0.6-0.4C56.5,66.9,56.5,66.9,56.7,66.9L56.7,66.9z"/>
			</g>
			<g>
				<path d="M62,72.2v-0.9h0.3c0.1,0,0.2,0,0.2,0c0.1,0,0.1,0,0.1,0.1c0,0,0.1,0.1,0.1,0.2c0,0.1,0,0.1,0,0.1c0,0,0,0.1-0.1,0.1
					c0,0-0.1,0-0.1,0c0,0-0.1,0-0.2,0h-0.1v0.3H62L62,72.2z M62.2,71.5v0.2h0.1c0.1,0,0.1,0,0.1,0c0,0,0,0,0.1,0s0,0,0-0.1
					c0,0,0-0.1,0-0.1c0,0,0,0-0.1,0C62.3,71.5,62.3,71.5,62.2,71.5L62.2,71.5L62.2,71.5z M63.5,72.2h-0.2L63.2,72h-0.3l-0.1,0.2
					h-0.2l0.3-0.9h0.2L63.5,72.2L63.5,72.2z M63.1,71.8L63,71.5l-0.1,0.3H63.1L63.1,71.8z M63.5,72.2V72l0.4-0.6h-0.4v-0.1h0.6v0.1
					L63.7,72h0.5v0.1H63.5L63.5,72.2z"/>
				<path d="M56.3,68.8l0.1,0.1l-0.3,0.3c0,0.1-0.1,0.1-0.1,0.1c0,0,0,0.1,0,0.1c0,0,0,0.1,0.1,0.1c0,0,0.1,0.1,0.1,0.1
					c0,0,0.1,0,0.1,0c0,0,0.1-0.1,0.1-0.1l0.3-0.4l0.1,0.1l-0.3,0.3c-0.1,0.1-0.1,0.1-0.2,0.2c0,0-0.1,0-0.1,0c0,0-0.1,0-0.1,0
					c0,0-0.1,0-0.1-0.1c-0.1-0.1-0.1-0.1-0.1-0.1c0,0,0-0.1,0-0.1c0,0,0-0.1,0-0.1c0,0,0.1-0.1,0.1-0.2L56.3,68.8L56.3,68.8z
					 M56.4,70l0.4-0.7l0.1,0.1l0,0.7l0.3-0.5l0.1,0.1L57,70.4l-0.1-0.1l0-0.7l-0.3,0.5L56.4,70L56.4,70z M57.2,70.4l0.3-0.8l0.2,0.1
					l-0.3,0.8L57.2,70.4L57.2,70.4z M57.7,69.8l0.3,0.1c0.1,0,0.1,0,0.1,0.1c0,0,0.1,0.1,0.1,0.1c0,0,0,0.1,0,0.2c0,0.1,0,0.1,0,0.2
					c0,0.1-0.1,0.1-0.1,0.2c0,0.1-0.1,0.1-0.1,0.1c0,0-0.1,0-0.1,0c0,0-0.1,0-0.2,0l-0.3-0.1L57.7,69.8L57.7,69.8z M57.9,70
					l-0.2,0.5l0.1,0c0,0,0.1,0,0.1,0c0,0,0.1,0,0.1,0c0,0,0,0,0.1-0.1c0,0,0-0.1,0.1-0.1c0-0.1,0-0.1,0-0.1c0,0,0-0.1,0-0.1
					c0,0,0,0-0.1-0.1C58,70,58,70,57.9,70L57.9,70L57.9,70z M59.1,71l-0.2,0l0-0.2l-0.3-0.1l-0.1,0.2l-0.2,0l0.5-0.8l0.2,0L59.1,71
					L59.1,71z M58.8,70.6l-0.1-0.3l-0.2,0.3L58.8,70.6L58.8,70.6z M59.2,70.1l0.3,0c0.1,0,0.1,0,0.2,0c0.1,0,0.1,0,0.1,0.1
					c0,0,0.1,0.1,0.1,0.1c0,0.1,0,0.1,0,0.2c0,0.1,0,0.1,0,0.2c0,0.1-0.1,0.1-0.1,0.2c0,0-0.1,0.1-0.1,0.1c0,0-0.1,0-0.2,0l-0.3,0
					L59.2,70.1L59.2,70.1z M59.3,70.3l0,0.6l0.1,0c0,0,0.1,0,0.1,0c0,0,0.1,0,0.1,0c0,0,0,0,0-0.1s0-0.1,0-0.2c0-0.1,0-0.1,0-0.2
					c0,0,0-0.1-0.1-0.1c0,0,0,0-0.1,0C59.5,70.3,59.5,70.3,59.3,70.3L59.3,70.3L59.3,70.3z"/>
				<path d="M66.4,70.2l0.2,0l0.1,0.5c0,0.1,0,0.1,0,0.2c0,0.1,0,0.1-0.1,0.1c0,0-0.1,0.1-0.2,0.1c-0.1,0-0.2,0-0.2,0
					c-0.1,0-0.1-0.1-0.1-0.2l0.2,0c0,0,0,0.1,0,0.1c0,0,0.1,0,0.1,0c0,0,0.1,0,0.1,0c0,0,0-0.1,0-0.1L66.4,70.2L66.4,70.2z
					 M66.6,70.2l0.2,0l0.1,0.5c0,0.1,0,0.1,0,0.1c0,0,0,0.1,0.1,0.1c0,0,0.1,0,0.1,0c0,0,0.1,0,0.1-0.1s0-0.1,0-0.1c0,0,0-0.1,0-0.1
					l-0.1-0.5l0.2,0l0.1,0.4c0,0.1,0,0.2,0,0.2c0,0,0,0.1,0,0.1c0,0,0,0.1-0.1,0.1c0,0-0.1,0-0.2,0.1c-0.1,0-0.1,0-0.2,0
					c0,0-0.1,0-0.1-0.1c0,0-0.1-0.1-0.1-0.1c0,0,0-0.1-0.1-0.2L66.6,70.2L66.6,70.2z M67.5,70.6l0.2-0.1c0,0.1,0.1,0.1,0.1,0.1
					c0,0,0.1,0,0.1,0c0.1,0,0.1,0,0.1-0.1c0,0,0-0.1,0-0.1c0,0,0,0,0,0c0,0,0,0-0.1,0c0,0-0.1,0-0.1,0c-0.1,0-0.2,0-0.2,0
					c-0.1,0-0.1-0.1-0.1-0.1c0,0,0-0.1,0-0.1s0-0.1,0.1-0.1c0,0,0.1-0.1,0.2-0.1c0.1,0,0.2,0,0.3,0C68,70,68,70,68,70.1l-0.2,0.1
					c0,0,0-0.1-0.1-0.1c0,0-0.1,0-0.1,0c0,0-0.1,0-0.1,0.1c0,0,0,0,0,0.1c0,0,0,0,0,0c0,0,0.1,0,0.2,0c0.1,0,0.2,0,0.2,0
					c0,0,0.1,0,0.1,0.1c0,0,0.1,0.1,0.1,0.1c0,0,0,0.1,0,0.1c0,0,0,0.1-0.1,0.1c0,0-0.1,0.1-0.2,0.1c-0.1,0-0.2,0-0.3,0
					C67.6,70.7,67.5,70.7,67.5,70.6L67.5,70.6z M68.5,70.6l-0.2-0.7L68,70L68,69.9l0.6-0.2l0,0.1l-0.2,0.1l0.2,0.7L68.5,70.6
					L68.5,70.6z M69,70.4l-0.3-0.8l0.2-0.1l0.3,0.8L69,70.4L69,70.4z M69.6,69.7l0.2,0c0,0.1,0,0.2,0,0.2c0,0.1-0.1,0.1-0.2,0.2
					c-0.1,0.1-0.2,0.1-0.3,0c-0.1,0-0.2-0.1-0.3-0.2c-0.1-0.1-0.1-0.2-0.1-0.3c0-0.1,0.1-0.2,0.2-0.3c0.1-0.1,0.2-0.1,0.3-0.1
					c0.1,0,0.1,0,0.2,0.1l-0.1,0.1c0,0-0.1-0.1-0.1-0.1c0,0-0.1,0-0.1,0c-0.1,0-0.1,0.1-0.1,0.1c0,0.1,0,0.1,0.1,0.2
					c0.1,0.1,0.1,0.1,0.2,0.2c0.1,0,0.1,0,0.2,0c0,0,0.1-0.1,0.1-0.1C69.6,69.8,69.6,69.8,69.6,69.7L69.6,69.7z M70,69.8l-0.6-0.6
					l0.1-0.1l0.6,0.6L70,69.8L70,69.8z M70.7,69l-0.1,0.2l-0.2-0.1l-0.2,0.3l0.1,0.2l-0.1,0.1l-0.5-0.8l0.1-0.1L70.7,69L70.7,69z
					 M70.3,69l-0.3-0.1l0.2,0.3L70.3,69L70.3,69z"/>
			</g>
		</g>
	</g>
	<path opacity="0.25" fill="#FFFFFF" d="M13,29.7v25.5C26.2,62.6,43.7,67,63,67s36.8-4.5,50-11.8V29.7H13z"/>
</g>
</svg>
