<?xml version="1.0" encoding="utf-8"?>
<!-- Generator: Adobe Illustrator 24.3.0, SVG Export Plug-In . SVG Version: 6.00 Build 0)  -->
<svg version="1.1" id="Layer_1" xmlns="http://www.w3.org/2000/svg" xmlns:xlink="http://www.w3.org/1999/xlink" x="0px" y="0px"
	 viewBox="0 0 126 126" enable-background="new 0 0 126 126" xml:space="preserve">
<g>
	<g>
		<polygon fill="#FF1612" points="113,74.1 113,96.3 13,96.3 13,74.1 113,74.1 		"/>
		<polygon fill="#FFF200" points="13,51.9 113,51.9 113,74.1 13,74.1 13,51.9 		"/>
		<polygon fill="#47B71D" points="13,29.7 113,29.7 113,51.9 13,51.9 13,29.7 		"/>
		<path fill="#0F47AF" d="M63,40.8c12.3,0,22.2,9.9,22.2,22.2S75.3,85.2,63,85.2c-12.3,0-22.2-9.9-22.2-22.2S50.7,40.8,63,40.8
			L63,40.8z"/>
		<path d="M63,71.2v9.6V71.2L63,71.2z M55.3,65.5L55.3,65.5l-9.2,3L55.3,65.5L55.3,65.5z M58.2,56.4L58.2,56.4l-5.7-7.8L58.2,56.4
			L58.2,56.4z M67.8,56.4L67.8,56.4l5.7-7.8L67.8,56.4L67.8,56.4z M70.8,65.5L70.8,65.5l9.2,3L70.8,65.5L70.8,65.5z"/>
		<path fill="#FFF200" d="M63.7,47.3l3,9.2l0,0l0.4,1.1h1v0l8.4,0l-2,1.5l-4.9,0v0h-4.9v0h-3.9l0.5-1.5h4.3l-2.2-6.7h0l-0.1-0.3
			L63,49.9v0l-0.8-2.4l0.1-0.2l0.7-2.2L63.7,47.3L63.7,47.3z M52.8,48.4l5.7,7.8l-0.6,0.4l-5.7-7.8L52.8,48.4L52.8,48.4z M73.2,48.4
			l-5.7,7.8l0.6,0.4l5.7-7.8L73.2,48.4L73.2,48.4z M63.4,71.2v9.7h-0.7v-9.7H63.4L63.4,71.2z M80.1,68.2l-9.2-3l-0.2,0.7l9.2,3
			L80.1,68.2L80.1,68.2z M45.9,68.2l9.2-3l0.2,0.7l-9.2,3L45.9,68.2L45.9,68.2z M77.6,57.5h0.2l2.3,0l-1.9,1.3L70,64.8l-0.5,0.4
			l0.2,0.7l0,0l2.7,8.3l-2-1.5l-1.8-5.5l-0.8-2.6l0,0l-1.6-5h1.6l1.3,4l0.1-0.1l0,0l5.2-3.7l0,0l0.4-0.3l0.8-0.6h0L77.6,57.5
			L77.6,57.5z M72.8,75.2l0.1,0.2l0.7,2.2l-1.9-1.4L63,69.9l-7.6,5.6l0.8-2.4l5.4-3.9l1.9-1.4l0,0l3.8-2.7l0.5,1.5L64.3,69l5.5,4
			l0,0l0.2,0.2l0.8,0.6l0,0L72.8,75.2L72.8,75.2z M54.5,76.1l-0.2,0.2l-1.9,1.4l0.7-2.2l3.1-9.6l0.2-0.6l-0.7-0.5l-6.9-5h2.5
			l5.2,3.8l1.7,1.2v0l4.2,3.1l-1.3,0.9l-3.4-2.5l-2.1,6.3h0l-0.2,0.5l-0.3,0.8l0,0L54.5,76.1L54.5,76.1z M47.9,59l-0.2-0.1l-1.9-1.3
			l2.3,0l9.3,0H59l0.4-1.1v0l2.5-7.9l0.8,2.4l-1.9,5.9h0l-0.2,0.5l-0.1,0.2h0L60.1,59h0l-1.6,5l-1.3-0.9l1.3-4h-1.1v0l-4.8,0v0h-1.4
			l-0.7,0l0,0H47.9L47.9,59z"/>
	</g>
	<path opacity="0.25" fill="#FFFFFF" d="M13,29.7v25.5C26.2,62.6,43.7,67,63,67c19.3,0,36.8-4.5,50-11.8V29.7H13z"/>
</g>
</svg>
