<?xml version="1.0" encoding="utf-8"?>
<!-- Generator: Adobe Illustrator 24.3.0, SVG Export Plug-In . SVG Version: 6.00 Build 0)  -->
<svg version="1.1" id="Layer_1" xmlns="http://www.w3.org/2000/svg" xmlns:xlink="http://www.w3.org/1999/xlink" x="0px" y="0px"
	 viewBox="0 0 126 126" enable-background="new 0 0 126 126" xml:space="preserve">
<g>
	<path fill="#C7EBF9" d="M75.9,106.9h-10v-8.1l-4.7-9.5h-1.1v11.7H49.5l-4.9-9.7l-3.3,3.3L30.8,100v7h-10L13,99.4V85.2l9-8.7
		l5.8,5.8l2.9-2.9v-5.9l7.4-7.4l13.1-2l9.4,1.4l1.1-5.3l-1.2-3.9l-2.8-1.4l-6.4,6.4l-9.1-9.1l3.9-15.5h9.9l5.9-5.9h10v11.7h1.1
		l4.7-9.5v-14h10l7.6,7.6V33l4.7,9.5h13v10.6l-9.9,4.9l3.8,3.8v5.8l6.1,5.9v10H96.9l-4.6-4.6l-4.6,4.6h-5.9L78.3,87l5.9,11.7
		L75.9,106.9z"/>
	<path fill="#C7EBF9" d="M36.6,63h-10l-7.6-7.6v-8.3l11.7-11.7l5.9,5.9V63z"/>
</g>
</svg>
