<?xml version="1.0" encoding="utf-8"?>
<!-- Generator: Adobe Illustrator 24.3.0, SVG Export Plug-In . SVG Version: 6.00 Build 0)  -->
<svg version="1.1" id="Layer_1" xmlns="http://www.w3.org/2000/svg" xmlns:xlink="http://www.w3.org/1999/xlink" x="0px" y="0px"
	 viewBox="0 0 126 126" enable-background="new 0 0 126 126" xml:space="preserve">
<g>
	<g>
		<polygon fill="#49A9F6" points="13,29.7 113,29.7 113,96.3 13,96.3 13,29.7 		"/>
		<path fill-rule="evenodd" clip-rule="evenodd" fill="#F4F4F4" d="M89.6,63L85,61.5l0-4.9l-2.8,3.9l-4.6-1.5l2.9,3.9l-2.9,3.9
			l4.6-1.5l2.8,3.9l0-4.9L89.6,63L89.6,63z M63,36.4l1.5,4.6l4.9,0l-3.9,2.8l1.5,4.6L63,45.6l-3.9,2.9l1.5-4.6L56.7,41l4.9,0
			L63,36.4L63,36.4z M63,89.6l1.5-4.6l4.9,0l-3.9-2.8l1.5-4.6L63,80.4l-3.9-2.9l1.5,4.6L56.7,85l4.9,0L63,89.6L63,89.6z M36.4,63
			l4.6-1.5l0-4.9l2.8,3.9l4.6-1.5L45.6,63l2.9,3.9l-4.6-1.5L41,69.3l0-4.9L36.4,63L36.4,63z"/>
	</g>
	<path opacity="0.25" fill="#FFFFFF" d="M13,29.7v25.5C26.2,62.6,43.7,67,63,67c19.3,0,36.8-4.5,50-11.8V29.7H13z"/>
</g>
</svg>
