<?xml version="1.0" encoding="utf-8"?>
<!-- Generator: Adobe Illustrator 24.3.0, SVG Export Plug-In . SVG Version: 6.00 Build 0)  -->
<svg version="1.1" id="Layer_1" xmlns="http://www.w3.org/2000/svg" xmlns:xlink="http://www.w3.org/1999/xlink" x="0px" y="0px"
	 viewBox="0 0 126 126" enable-background="new 0 0 126 126" xml:space="preserve">
<g>
	<g>
		<polygon fill-rule="evenodd" clip-rule="evenodd" fill="#58A9EE" points="13,29.7 63,29.7 113,29.7 113,96.3 63,96.3 13,96.3 
			13,29.7 		"/>
		<rect x="13" y="29.7" fill-rule="evenodd" clip-rule="evenodd" fill="#0437A0" width="50" height="33.3"/>
		<polygon fill="#FBF9F9" points="63,58.9 44.2,46.3 63,33.8 63,29.7 56.8,29.7 38,42.2 19.2,29.7 13,29.7 13,33.8 31.8,46.3 
			13,58.9 13,63 19.2,63 38,50.5 56.8,63 63,63 63,58.9 		"/>
		<polygon fill="#F90805" points="63,61.5 40.3,46.3 63,31.2 63,29.7 60.7,29.7 38,44.8 15.3,29.7 13,29.7 13,31.2 35.7,46.3 
			13,61.5 13,63 15.3,63 38,47.9 60.7,63 63,63 63,61.5 		"/>
		<polygon fill-rule="evenodd" clip-rule="evenodd" fill="#FBF9F9" points="33.9,29.7 38,29.7 42.1,29.7 42.1,40.8 63,40.8 63,51.8 
			42.1,51.8 42.1,63 38,63 33.9,63 33.9,51.8 13,51.8 13,40.8 33.9,40.8 33.9,29.7 		"/>
		<polygon fill-rule="evenodd" clip-rule="evenodd" fill="#F90805" points="40.6,29.7 40.6,42.9 63,42.9 63,49.8 40.6,49.8 40.6,63 
			38,63 35.4,63 35.4,49.8 13,49.8 13,42.9 35.4,42.9 35.4,29.7 38,29.7 40.6,29.7 		"/>
		<g>
			<defs>
				<path id="SVGID_1_" d="M89.5,80c5.2-2.3,13.1-6.1,13.1-11.6c0-7.5,0-14.7,0-22.2c-4.4,0-8.7,0-13.1,0c-4.4,0-8.7,0-13.1,0
					c0,7.5,0,14.7,0,22.2C76.3,73.9,84.2,77.8,89.5,80L89.5,80z"/>
			</defs>
			<use xlink:href="#SVGID_1_"  overflow="visible" fill-rule="evenodd" clip-rule="evenodd" fill="#FFFFFF"/>
			<clipPath id="SVGID_2_">
				<use xlink:href="#SVGID_1_"  overflow="visible"/>
			</clipPath>
			<path clip-path="url(#SVGID_2_)" fill-rule="evenodd" clip-rule="evenodd" fill="#F90805" d="M89.5,80c0.6-0.2,1.1-0.5,1.7-0.8
				V67.6h11.4v-3.6H91.2v-9.2h11.4v-8.6c-4.4,0-8.7,0-13.1,0c-4.4,0-8.7,0-13.1,0v8.6h11.3v9.2H76.3v3.6h11.3v11.6
				C88.3,79.5,88.9,79.8,89.5,80L89.5,80z"/>
			
				<use xlink:href="#SVGID_1_"  overflow="visible" fill-rule="evenodd" clip-rule="evenodd" fill="none" stroke="#000000" stroke-width="0.4075" stroke-miterlimit="2.4142"/>
		</g>
		<g>
			
				<path fill-rule="evenodd" clip-rule="evenodd" fill="#00A651" stroke="#000000" stroke-width="5.094500e-02" stroke-miterlimit="2.4142" d="
				M91.7,57.8c0,0,0.7-1.7,2.3-1.8c1.6-0.1,2.5,1,2.7,1.4l-0.1-2.1l0.2,0.9l0.2-0.4l-0.1,0.7c0,0,0.2-0.7,0.6-0.9L97,56.8l0.2,0
				L97,57.3l0.1,0.2c0,0,0.8-1.3,2.3-1.5c1.5-0.2,2.5,1.5,2.5,1.5s0,0.4-0.2,0.6l-0.1-0.2l-0.2,0v-0.1l-0.3,0l0-0.4l-0.2,0.2
				c0,0,0-0.2,0-0.2c0,0-0.3,0.3-0.3,0.3l0-0.6l-0.3,0.5l0-0.3l-0.1,0.1l-0.1-0.2l-0.1,0.2l-0.2-0.1l0,0.2l-0.2-0.2l-0.1,0.3
				l-0.2-0.4l-0.1,0.3l-0.1-0.2l0,0.3l-0.5-0.2l0.1,0.3l-0.2-0.1l0,0.1l-0.3-0.1l0,0.2l-0.3,0l0,0.1l-0.4,0l0.2,0.2l0,0.1
				c0,0,1.2-0.5,2.1,0.4c0.8,0.9,0.6,1.8,0.6,1.8l-0.5,0.2l0.1-0.3l-0.5-0.4l0.1-0.4l-0.1,0l0-0.2l-0.1,0L99.3,59l-0.1,0.1l-0.1-0.2
				L99,58.9L99,58.5l-0.1,0.2l0-0.1l-0.1,0.1l-0.2-0.2l-0.1,0.1l-0.1-0.1l-0.1,0.1l-0.2-0.2l0,0.1L98,58.6l-0.1,0.1l-0.3-0.2l0,0.1
				l-0.2-0.1l-0.1,0.2c0,0,2.2,1.3,1.4,3.5l-0.1-0.6l-0.1,0.2l0.1-0.7l-0.1,0.1l0-0.3l-0.2,0.3l-0.1-0.3L98.1,61L98,60.5l-0.1,0.1
				l-0.2-0.5l-0.1,0.2l-0.1-0.4l-0.1,0.2l-0.2-0.6l-0.1,0.3l-0.5,0l-0.3-0.3L96,60l0-0.3l-0.1,0.2l0-0.2l-0.2,0.7L95.5,60l-0.1,0.4
				l-0.1-0.1l0,0.2l-0.1-0.1l-0.1,0.2L95,60.6l0,0.3l-0.1-0.1l-0.1,0.4l-0.1,0l0,0.1l-0.1-0.1l-0.1,0.5l-0.2-0.2l0,0.6L94.2,62
				l0,0.2c0,0-0.9-2.3,1.9-3.5c0,0-0.1-0.1-0.1-0.2l-0.6,0.3l0-0.2l-0.2,0.1l0-0.2L95,58.8l-0.1-0.3l-0.1,0.3l-0.1-0.2L94.5,59
				l0-0.2l-0.2,0.3l0-0.3l-0.1,0.2l0-0.1L94,59.2l-0.1-0.3l-0.1,0.3l-0.1-0.3l-0.1,0.5L93.3,59l-0.1,0.6l-0.1-0.2l0,0.4L93,59.7
				l0,0.4l-0.1-0.1l0,0.2L92.7,60l0,0.5l-0.2-0.3c0,0,0-1.4,1-2.1c1-0.7,2.7-0.1,2.7-0.1l-0.4-0.4l0.1-0.2l-0.2,0l0.1-0.2l-0.4,0
				l0.1-0.2l-0.3,0l0-0.1l-0.1,0.1l0-0.1l-0.3,0.2l0-0.2l-0.1,0.2l-0.1-0.2l-0.6,0.6L94,57l-0.1,0.1l0-0.1l-0.2,0.3l-0.1-0.1
				l-0.1,0.1l-0.1-0.1l-0.1,0.2l-0.2-0.3l0,0.3L93,57.3l-0.1,0.2l-0.1-0.1l0,0.1l-0.3-0.1l0,0.2l-0.2-0.2l-0.1,0.3L92,57.6l-0.1,0.6
				l-0.1-0.4L91.7,57.8L91.7,57.8z"/>
			<path d="M96.3,59c0,0,0,0.1,0,0.2c0,0.1,0,0.2,0,0.3l0,0c0,0,0-0.2,0-0.3C96.3,59.2,96.3,59.1,96.3,59L96.3,59L96.3,59z"/>
			<path d="M96.9,59.1c0,0.1,0.1,0.1,0.1,0.2c0,0.1,0,0.2,0,0.3c0,0.1-0.1,0.2-0.1,0.2l0,0c0,0,0-0.1,0.1-0.2c0,0,0-0.1,0-0.3
				C97,59.2,96.9,59.2,96.9,59.1L96.9,59.1L96.9,59.1z"/>
			<path d="M97.2,59.2L97.2,59.2L97.2,59.2c0,0.1,0.1,0.1,0.1,0.3h0C97.2,59.4,97.2,59.3,97.2,59.2L97.2,59.2L97.2,59.2L97.2,59.2
				L97.2,59.2z"/>
			<path d="M96.5,58.8c0,0-0.1-0.1-0.1-0.1c-0.1,0-0.2-0.1-0.2-0.1v0c0,0,0.2,0,0.2,0.1C96.4,58.7,96.5,58.7,96.5,58.8L96.5,58.8
				L96.5,58.8z"/>
			<path d="M96.9,58.7c0.1,0,0.2-0.1,0.2-0.1c0.1,0,0.2,0,0.2,0l0,0c0,0-0.1,0-0.2,0C97,58.6,96.9,58.7,96.9,58.7L96.9,58.7
				L96.9,58.7z"/>
			<polygon points="96.7,58.7 96.8,58.4 96.7,58.5 96.7,58.5 96.7,58.5 96.3,57.9 96.3,57.8 96.3,57.8 96.4,57.8 96.3,57.6 
				96.3,57.5 96.3,57.5 96.5,57.7 96.5,57.5 96.5,57.4 96.5,57.5 96.7,57.5 96.7,57.5 96.6,57.5 96.6,57.7 96.6,57.7 96.5,57.7 
				96.4,57.6 96.5,57.9 96.5,57.9 96.5,57.9 96.4,57.9 96.7,58.4 96.9,58.3 96.9,58.2 96.9,58.3 96.7,58.7 96.7,58.7 			"/>
			<polygon points="96.7,58.1 97,57.6 96.9,57.7 96.8,57.7 96.9,57.7 96.9,57.5 96.8,57.6 96.7,57.6 96.8,57.5 96.9,56.4 96.9,56.4 
				96.8,57.5 96.9,57.5 97,57.5 97,57.5 96.9,57.6 97.1,57.6 97.1,57.6 97.1,57.6 96.8,58.1 96.7,58.1 			"/>
			
				<path fill-rule="evenodd" clip-rule="evenodd" fill="#964B36" stroke="#000000" stroke-width="3.820900e-02" stroke-miterlimit="2.4142" d="
				M96.5,60.1c0,0.3,0,0.7,0,1c0,0.4,0.1,0.8,0,1c-0.1,0.2-0.1,0.6-0.1,0.7c0,0-0.3,0.2-0.3,0.3l0,0c0,0-0.2-0.1-0.2,0.2
				c0,0-0.2,0.1-0.2,0.2c0,0.1,0.4,0,0.4,0s0.1,0.1,0.1,0c0,0,0.1,0.1,0.2,0c0,0,0.2,0.1,0.4,0c0,0,0.1,0.1,0.3,0
				c0,0,0.1,0.1,0.2-0.1c0,0,0.1,0.1,0.2,0c0,0,0.1,0.2,0.2,0.1c0.1-0.1-0.1-0.1-0.1-0.1s0-0.1-0.1-0.1c0,0,0-0.1-0.1-0.1
				c0,0,0-0.1-0.1-0.2c-0.1,0-0.1-0.1-0.1-0.2c0-0.1-0.1-0.2-0.1-0.3c0-0.1,0-0.2,0-0.3c0-0.1,0.1-0.2,0-0.3c0-0.1,0-0.2,0-0.3
				c0-0.1,0-0.2,0-0.4c0-0.2,0-0.2,0-0.4c0-0.1,0-0.3,0-0.3c0-0.1,0-0.5,0-0.5L96.5,60.1L96.5,60.1z"/>
			<path d="M96.1,63.1C96.1,63.1,96.1,63.2,96.1,63.1C96.1,63.2,96.1,63.2,96.1,63.1c0,0.1,0,0.1,0,0.1c0,0,0,0,0,0.1c0,0,0,0,0,0.1
				l0,0c0,0,0,0,0,0c0,0,0,0,0,0c0,0,0,0,0,0c0,0,0,0,0,0c0,0,0,0,0,0l0,0c0,0,0,0,0-0.1c0-0.1,0-0.1,0.1-0.2c0,0,0.1,0,0.1,0
				c0,0,0,0,0,0.1c0,0,0,0.1,0,0.1l0,0c0,0,0,0,0,0c0,0,0,0,0,0c0,0,0-0.1,0.1-0.1c0,0,0,0,0,0c0,0,0,0,0.1,0c0,0,0,0,0.1,0
				c0,0,0.1,0,0.1,0.1c0,0,0.1,0,0.1,0l0,0v0c0,0,0.1,0,0.1,0c0,0,0,0,0,0c0,0,0,0,0,0c0,0,0-0.1,0.1-0.1c0,0,0,0,0,0c0,0,0,0,0,0
				l0,0c0,0,0,0,0,0c0,0,0,0,0,0l0,0c0,0,0,0,0,0c0,0,0,0,0.1,0c0,0,0,0,0,0.1c0,0,0,0,0,0.1c0,0,0,0,0,0c0,0,0,0,0,0c0,0,0,0,0,0
				l0,0c0,0,0,0-0.1,0.1c0,0,0,0,0,0c0,0,0,0,0,0c0,0,0,0-0.1-0.1c0,0,0,0,0-0.1c0,0,0,0,0,0h0l0,0c0,0,0,0,0,0c0,0,0,0,0,0.1l0,0
				c0,0,0,0-0.1,0.1c0,0,0,0,0,0c0,0,0,0,0,0c0,0,0,0-0.1,0.1c0,0,0,0-0.1,0c0,0,0,0-0.1,0l0,0l0,0c-0.1,0-0.1,0.1-0.2,0
				c0,0,0,0-0.1,0c0,0,0,0,0,0c0,0,0,0,0,0c0,0,0,0,0,0c0,0,0,0.1-0.1,0.1c0,0,0,0,0,0c0,0,0,0-0.1,0c0,0,0,0,0,0c0,0,0-0.1,0-0.1
				c0,0,0,0,0,0c0,0,0,0,0,0c0,0,0,0.1-0.1,0.1c0,0,0,0.1,0,0.1l0,0c0,0,0,0,0,0c0,0,0,0,0,0c0,0,0,0,0,0c0,0,0,0,0-0.1
				c0,0,0,0,0-0.1l0,0c0,0,0,0,0,0c0,0,0,0,0,0c0,0,0,0,0,0C96.1,63.2,96.1,63.2,96.1,63.1C96.1,63.2,96.1,63.1,96.1,63.1L96.1,63.1
				L96.1,63.1z"/>
			<path fill-rule="evenodd" clip-rule="evenodd" stroke="#000000" stroke-width="3.820900e-02" stroke-miterlimit="2.4142" d="
				M97.2,59.8c0.1,0,0.2,0.1,0.2,0.3c0,0.1-0.1,0.3-0.3,0.3c0,0-0.1,0-0.1,0c0,0.1-0.1,0.2-0.3,0.2c-0.1,0-0.2-0.1-0.3-0.2
				c0,0-0.1,0-0.1,0c-0.1,0-0.3-0.1-0.3-0.3c0-0.1,0-0.1,0.1-0.2c-0.1,0-0.1-0.1-0.1-0.2c0-0.1,0.1-0.3,0.3-0.3
				c0.1,0,0.2,0.1,0.2,0.1c0.1-0.1,0.1-0.1,0.2-0.1C97.1,59.5,97.2,59.6,97.2,59.8L97.2,59.8z"/>
		</g>
		<g>
			<g>
				
					<path fill-rule="evenodd" clip-rule="evenodd" fill="#964B36" stroke="#000000" stroke-width="5.094500e-02" stroke-miterlimit="2.4142" d="
					M82.1,59.4c-0.2,0.1-0.4,0.5-0.2,0.7c0,0,0,0,0,0c0,0-0.3,0.4,0,0.7c0,0-0.2,0.4-0.1,0.7c0,0-0.1,0.6,0.1,0.8
					c0.3,0.2,0.5,0,0.6-0.1c0-0.1,0.2-0.5,0-0.7c0,0,0.3-0.5,0-0.8c0,0,0.1-0.4-0.1-0.6c0,0,0.1-0.1,0.1-0.4
					C82.3,59.4,82.1,59.4,82.1,59.4L82.1,59.4z"/>
				<path d="M81.9,60.1c0,0,0.1,0.1,0.2,0.1c0.1,0,0.1,0,0.2,0l0,0c-0.1,0-0.1,0-0.2,0C82,60.2,81.9,60.1,81.9,60.1L81.9,60.1
					L81.9,60.1z"/>
				<path d="M81.8,60.8c0.1,0,0.2,0,0.3,0c0.1,0,0.2,0,0.2-0.1l0,0c0,0-0.1,0.1-0.3,0.1C82.1,60.8,81.9,60.8,81.8,60.8L81.8,60.8
					L81.8,60.8z"/>
				<path d="M81.7,61.5c0.1,0,0.2,0.1,0.4,0.1c0.1,0,0.2,0,0.3-0.1l0,0c-0.1,0.1-0.2,0.1-0.3,0.1C81.9,61.6,81.8,61.6,81.7,61.5
					L81.7,61.5L81.7,61.5z"/>
			</g>
			<g>
				
					<path fill-rule="evenodd" clip-rule="evenodd" fill="#964B36" stroke="#000000" stroke-width="5.094500e-02" stroke-miterlimit="2.4142" d="
					M79.4,60.1c-0.1,0.1,0,0.4,0.1,0.6c0.1,0.2,0,0.4,0,0.4s0,0.4,0.3,0.5c0,0,0,0.2,0.2,0.4c0,0-0.1,0.2,0.1,0.4
					c0,0-0.1,0.4,0.1,0.5c0,0,0.4,0,0.6-0.2c0,0,0.1-0.3-0.1-0.6c0,0,0.1-0.3-0.2-0.5c0,0,0.1-0.4-0.2-0.6c0,0,0-0.4-0.4-0.6
					c0,0-0.3-0.6-0.3-0.6C79.6,60,79.4,60.1,79.4,60.1L79.4,60.1z"/>
				<path d="M79.9,61.6c0.1,0,0.2-0.1,0.3-0.2c0.1-0.1,0.2-0.2,0.2-0.2h0c0,0.1-0.1,0.2-0.2,0.3C80.1,61.5,79.9,61.6,79.9,61.6
					L79.9,61.6L79.9,61.6z"/>
				<path d="M80.1,62c0.1,0,0.2-0.1,0.3-0.1c0.1,0,0.2-0.1,0.2-0.1l0,0c0,0-0.1,0.1-0.2,0.2C80.3,62,80.2,62,80.1,62L80.1,62
					L80.1,62z"/>
				<path d="M80.2,62.4c0,0,0.2,0,0.3-0.1s0.2-0.1,0.3-0.1l0,0c0,0-0.2,0.1-0.3,0.1C80.3,62.4,80.2,62.4,80.2,62.4L80.2,62.4
					L80.2,62.4z"/>
			</g>
			<g>
				
					<path fill-rule="evenodd" clip-rule="evenodd" fill="#964B36" stroke="#000000" stroke-width="5.094500e-02" stroke-miterlimit="2.4142" d="
					M83.4,62.1c0,0-0.4,0.5-0.2,0.8c0.2,0.3,0.5,0.2,0.5,0.2s0.4-0.6,0.3-0.9c0,0,0.4-0.4,0.1-0.8C83.7,60.8,83.4,61.7,83.4,62.1
					L83.4,62.1z"/>
				<path d="M83.4,62c0,0,0.2,0.1,0.3,0.1c0.1,0,0.2,0,0.3-0.1l0,0c-0.1,0.1-0.2,0.1-0.3,0.1C83.6,62.2,83.4,62.1,83.4,62L83.4,62
					L83.4,62z"/>
			</g>
			
				<path fill-rule="evenodd" clip-rule="evenodd" fill="#00A651" stroke="#000000" stroke-width="5.094500e-02" stroke-miterlimit="2.4142" d="
				M83.7,61.3c0,0,0.2-0.4,0.4-0.7c0,0,0-0.6,0.6-1.3c0,0,0-0.6,0.2-0.9c0,0-0.8-1.7-1.4-1.8c0,0-0.9,0.9-0.8,1.6
				c0,0,0.6-0.2,0.9,0.4c0,0,0.7,0.4,0.2,1.4c0,0,0-0.7-0.7-1.3c0,0-0.3,0.2-0.4,0.5c0,0,0,0.5-0.1,0.7c0,0-0.7-1-1-1.2
				c0,0,0.3,1.8-0.3,2.4c0,0-0.1-1.2-0.4-1.7c-0.4-0.5-0.1-1.1,0.3-1.2c0.4-0.1,1.1,0.3,1.1,0.3s0-0.1,0.1-0.1c0,0-0.8-1.4-1.2-1.7
				c0,0-0.7,0.3-1,0.9c0,0-0.4,1.2-0.3,1.8c0,0,0.7,1,0.5,1.2c-0.2,0.2-0.4-0.5-0.4-0.5s-0.1,0.2-0.2,0.2c-0.1-0.1-0.4-0.5-0.5-0.9
				c0,0-1.1-0.6-1.3,1c0,0-0.3-0.5-0.2-1.1c0.2-0.6,1.1-0.5,1.2-0.4c0,0-0.2-1.5-0.7-1.5c-0.5-0.1-0.4,1.1-0.4,1.1s-0.4-0.3-0.5-0.8
				C77,57,77.4,56.6,78,56.6c0.5,0,1.1,0.3,1.3,1.2c0,0,0.5-0.9,1.1-1.3c0,0-0.7-0.1-0.7-0.6c0,0,0.2,0.2,0.6,0.2
				c0.4,0,0.6,0.2,0.6,0.2s0.4-0.1,0.8,0.1c0,0-0.2,0-0.4,0.1c0,0,0.4,0.3,0.6,0.6c0.2,0.3,0.2,0.6,0.3,0.7c0,0,0.3-1.1,0.8-1.5
				c0.5-0.5,1-0.5,1.4-0.5c0.5,0,0.8,0,0.8,0s-0.9,0.4-1.3,0.5c0,0,1,0.6,1.1,1.4c0,0,0.4-1,1.2-0.9c0,0,0.9-0.6,0.8,1.1
				c0,0-0.7-1.2-1.2-0.4c0,0-0.3,0.9-0.4,1.3c0,0,1.3-0.3,1.1,1.3c0,0-0.3-0.6-1.3-0.8c0,0-0.1,0.4-0.4,0.5c0,0,0,0,0,0
				c0,0,0.3,0,0.5,0.3c0,0,0.8,0,0.3,1.3c0,0-0.1-0.5-0.4-0.6c0,0-0.4-0.4-0.7,0c-0.3,0.4-0.3,0.7-0.3,0.7S83.8,61.4,83.7,61.3
				L83.7,61.3z"/>
			<path d="M78.9,59.3c0,0,0.2,0.2,0.4,0.4c0.1,0.1,0.2,0.3,0.3,0.4l0,0c-0.1-0.1-0.2-0.3-0.3-0.4C79.1,59.5,78.9,59.4,78.9,59.3
				L78.9,59.3L78.9,59.3z"/>
			<path d="M78.7,58.8c0,0,0.1,0,0.2,0.1c0.2,0.1,0.6,0.3,0.7,0.5l0,0c-0.1-0.2-0.5-0.4-0.7-0.5C78.7,58.9,78.7,58.8,78.7,58.8
				L78.7,58.8L78.7,58.8z"/>
			<path d="M77.4,56.7c0.2,0,0.4,0,0.6,0.1c0.2,0.2,0.4,0.5,0.5,1.1l0,0c-0.1-0.6-0.3-0.9-0.4-1.1C77.8,56.7,77.6,56.8,77.4,56.7
				L77.4,56.7L77.4,56.7z"/>
			<path d="M79.3,57.8c0,0.2,0,0.5,0,0.8c0,0.2,0,0.5,0,0.6l0,0c0-0.1,0-0.3,0-0.5C79.2,58.3,79.3,57.9,79.3,57.8L79.3,57.8
				L79.3,57.8z"/>
			<path d="M79.8,57.7c-0.2,0.2-0.6,0.8-0.6,0.8l0,0C79.2,58.5,79.7,57.9,79.8,57.7L79.8,57.7L79.8,57.7z"/>
			<path d="M80.9,56.3c-0.2,0-0.4,0.2-0.5,0.2c0,0,0,0,0,0l0,0c0,0,0,0,0,0C80.5,56.4,80.7,56.3,80.9,56.3L80.9,56.3L80.9,56.3z"/>
			<path d="M81.4,56.6c-0.1,0-0.2,0.1-0.2,0.1c-0.1,0.1-0.2,0.1-0.3,0.1l0,0c0.1,0,0.2-0.1,0.3-0.1C81.2,56.6,81.3,56.5,81.4,56.6
				L81.4,56.6L81.4,56.6z"/>
			<path d="M81.3,58.8c0,0-0.1-0.1-0.1-0.2c0-0.1-0.1-0.2,0-0.3l0,0c0,0,0,0.2,0,0.3C81.3,58.6,81.3,58.7,81.3,58.8L81.3,58.8
				L81.3,58.8z"/>
			<path d="M82,58.5c0.1,0,0.2,0.1,0.4,0.3c0.1,0.1,0.1,0.2,0.2,0.4l0,0c0-0.2-0.1-0.3-0.2-0.4C82.2,58.7,82,58.6,82,58.5L82,58.5
				L82,58.5z"/>
			<path fill="none" d="M82.2,57.9c0,0.1,0,0.1,0,0.2c0,0.1,0,0.2,0,0.2c0,0.1-0.1,0.1-0.1,0.1l0,0c0,0,0.1,0,0.1,0c0,0,0-0.1,0-0.2
				C82.2,58,82.2,58,82.2,57.9L82.2,57.9L82.2,57.9z"/>
			<path d="M82.6,58.3C82.6,58.3,82.5,58.3,82.6,58.3c-0.2,0.1-0.4,0.2-0.5,0.4l0,0C82.1,58.5,82.4,58.4,82.6,58.3
				C82.5,58.3,82.6,58.3,82.6,58.3L82.6,58.3L82.6,58.3z"/>
			<path d="M83.4,58.7C83.4,58.7,83.4,58.7,83.4,58.7c-0.1,0-0.3-0.1-0.5,0.1l0,0C83.1,58.5,83.3,58.6,83.4,58.7
				C83.4,58.6,83.4,58.6,83.4,58.7L83.4,58.7L83.4,58.7z"/>
			<path d="M83.9,56.4c-0.1,0-0.2,0-0.3,0c-0.1,0-0.2,0-0.2,0c0,0,0,0,0,0l0,0c0,0,0,0,0,0c0,0,0,0,0,0c0,0,0,0,0,0l0,0c0,0,0,0,0,0
				c0,0,0,0,0-0.1c0,0,0,0,0-0.1l0,0c0,0,0,0,0,0c0.1,0,0.1-0.1,0.2,0C83.7,56.4,83.8,56.4,83.9,56.4L83.9,56.4L83.9,56.4z"/>
			<path d="M85,57.8c0,0.1,0,0.1,0,0.1c0,0,0,0.1,0,0.1c0,0,0,0.1-0.1,0.2c0,0.1-0.1,0.2-0.1,0.2l0,0c0,0,0.1-0.1,0.1-0.2
				c0-0.1,0.1-0.1,0.1-0.1c0-0.1,0-0.1,0-0.1C84.9,57.9,84.9,57.9,85,57.8L85,57.8L85,57.8z"/>
			<path d="M86.2,56.9C86.1,57,86,57.1,86,57.3c-0.1,0.1-0.1,0.2-0.1,0.3l0,0c0-0.1,0.1-0.2,0.1-0.3C86,57.1,86.1,57,86.2,56.9
				L86.2,56.9L86.2,56.9z"/>
			<path d="M85.5,59c0,0-0.1,0-0.1,0c-0.2,0.1-0.6,0.1-0.7,0.3l0,0c0.2-0.2,0.5-0.3,0.8-0.3C85.4,59,85.4,59,85.5,59L85.5,59
				L85.5,59z"/>
			<path d="M84.8,60C84.8,60,84.8,60,84.8,60c-0.1,0-0.1,0-0.3,0.2c-0.1,0.1-0.2,0.2-0.2,0.3c-0.1,0.1-0.2,0.2-0.2,0.2l0,0
				c0,0,0.1-0.1,0.2-0.2c0.1-0.1,0.2-0.2,0.2-0.3C84.6,60,84.6,60,84.8,60C84.7,59.9,84.8,59.9,84.8,60L84.8,60L84.8,60z"/>
			<path d="M85.3,60.2c0,0.1,0.1,0.2,0,0.4c0,0.1-0.1,0.2-0.1,0.3l0,0c0.1-0.1,0.1-0.1,0.1-0.2C85.3,60.4,85.2,60.3,85.3,60.2
				L85.3,60.2L85.3,60.2z"/>
			<path d="M85.2,59.4c0-0.1,0.1-0.2,0.3-0.3c0.1-0.1,0.3-0.2,0.5-0.2l0,0c-0.2,0-0.3,0.1-0.5,0.2C85.3,59.3,85.2,59.4,85.2,59.4
				L85.2,59.4L85.2,59.4z"/>
			
				<path fill-rule="evenodd" clip-rule="evenodd" fill="#00A651" stroke="#000000" stroke-width="5.094500e-02" stroke-miterlimit="2.4142" d="
				M79.5,61.3c0.4-0.2,0.5-0.4,0.6-0.5c0-0.1,0-0.1-0.1-0.1c-0.1,0-0.2-0.1-0.7-0.2c-0.5,0-1,0-1.3,0.5c-0.2,0.4,0.1,1,0.1,1
				S78.2,60.8,79.5,61.3L79.5,61.3z"/>
			<path d="M79.4,61.3c0-0.1-0.2-0.4-0.6-0.5c-0.2-0.1-0.4-0.1-0.8,0l0,0c0.3-0.1,0.6-0.1,0.8,0C79.3,60.9,79.5,61.2,79.4,61.3
				L79.4,61.3L79.4,61.3z"/>
		</g>
		<g>
			<g>
				
					<path fill-rule="evenodd" clip-rule="evenodd" fill="#964B36" stroke="#000000" stroke-width="5.094500e-02" stroke-miterlimit="2.4142" d="
					M91.9,77.4c0.2-0.4,0.7-1.6,0.9-1.9c0.2-0.3,0.6-0.3,0.7-0.2c0,0,0.1-0.3,0.2-0.3c0.1,0,0.2,0.1,0.2,0.1s0,0.1-0.1,0.2
					C93.9,75.3,94.5,76.3,91.9,77.4L91.9,77.4z"/>
				<path d="M93.9,75.3c-0.1,0-0.1,0-0.2,0c0,0,0,0,0,0c-0.1,0-0.1,0-0.1-0.1l0,0l0,0l0,0c0,0,0,0.1,0.1,0l0,0
					C93.7,75.3,93.8,75.3,93.9,75.3L93.9,75.3L93.9,75.3z"/>
				<path d="M93.6,75.4c-0.1,0-0.2,0.1-0.3,0.2c-0.1,0.1-0.1,0.2-0.2,0.3c0,0.1-0.1,0.2-0.1,0.3c0,0.2-0.1,0.4-0.2,0.6
					c-0.2,0.2-0.6,0.6-0.6,0.6l0,0c0,0,0.4-0.3,0.6-0.6c0.1-0.2,0.2-0.4,0.2-0.6c0-0.1,0.1-0.2,0.1-0.3c0-0.1,0.1-0.2,0.2-0.3
					C93.4,75.4,93.5,75.4,93.6,75.4L93.6,75.4L93.6,75.4z"/>
			</g>
			<g>
				
					<path fill-rule="evenodd" clip-rule="evenodd" fill="#964B36" stroke="#000000" stroke-width="5.094500e-02" stroke-miterlimit="2.4142" d="
					M97.7,69.9c0,0,0.2-0.4,0.6-0.7c0.4-0.3,0.5-0.3,0.6-0.2c0.1,0.1,0.5,0.5,0.7,0.5c0.2,0.1,0.4-0.1,0.5-0.3
					c0-0.2,0.1-0.5,0.1-0.5s-1.1-0.4-1.4-0.5c-0.3-0.1-0.5,0-0.7,0.1c-0.2,0.1-0.8,0.6-1,1L97.7,69.9L97.7,69.9z"/>
				<path d="M100.2,68.9L100.2,68.9L100.2,68.9c-0.1,0.1-0.4,0.2-0.5,0.4c-0.1,0.2-0.1,0.4-0.1,0.4l0,0c0,0,0-0.2,0.1-0.4
					C99.8,69,100.1,68.9,100.2,68.9L100.2,68.9L100.2,68.9L100.2,68.9L100.2,68.9z"/>
			</g>
			
				<path fill-rule="evenodd" clip-rule="evenodd" fill="#FFF200" stroke="#000000" stroke-width="5.094500e-02" stroke-miterlimit="2.4142" d="
				M94.6,70.4c0.1-0.7,0.3-1.5,0.9-1.7c0.6-0.2,0.8,0,0.7,0.2c0,0,0.3-0.2,0.4,0.1c0,0,0.5-0.2,0.5,0.3c0,0,0.8,0,0.7,0.5
				c0,0,0.3-0.2,0.4,0.2c0,0,0.3-0.3,0.4,0.2c0,0,0.6-0.3,0.6,0.4c0,0.6-0.4,1.2-0.6,1.4c-0.3,0.2-0.5,0.4-0.5,0.4L94.6,70.4
				L94.6,70.4z"/>
			<g>
				<path d="M96.3,69c0,0-0.1,0.1-0.2,0.1c0,0-0.1,0-0.1,0.1c-0.1,0-0.4,0.2-0.6,0.6c-0.1,0.2-0.2,0.5-0.2,0.8h0
					c0-0.3,0.1-0.6,0.2-0.8c0.2-0.4,0.6-0.6,0.6-0.6c0,0,0.1,0,0.1-0.1C96.1,69,96.2,69,96.3,69L96.3,69L96.3,69z"/>
				<path d="M96.7,69.1C96.7,69.1,96.7,69.2,96.7,69.1c-0.3,0.3-0.7,0.7-0.7,1.8l0,0C95.9,69.8,96.4,69.4,96.7,69.1
					C96.6,69.1,96.6,69.1,96.7,69.1L96.7,69.1L96.7,69.1z"/>
				<path d="M97.2,69.4c-0.1,0.1-0.4,0.3-0.6,0.7c-0.1,0.3-0.2,0.6-0.2,1l0,0c0-0.4,0.1-0.8,0.2-1C96.8,69.7,97,69.5,97.2,69.4
					L97.2,69.4L97.2,69.4z"/>
				<path d="M97.6,69.7L97.6,69.7c-0.2,0.3-0.7,0.9-0.7,2l0,0C96.9,70.6,97.3,70,97.6,69.7L97.6,69.7L97.6,69.7L97.6,69.7z"/>
				<path d="M97.9,69.9C97.9,69.9,97.9,69.9,97.9,69.9c-0.2,0.3-0.7,1.2-0.7,2h0C97.2,71.1,97.7,70.2,97.9,69.9
					C97.9,69.9,97.9,69.9,97.9,69.9L97.9,69.9L97.9,69.9z"/>
				<path d="M98.3,70.1c0,0.2,0,0.5-0.1,0.9c-0.1,0.4-0.3,0.8-0.6,1l0,0c0.3-0.3,0.5-0.6,0.6-1C98.2,70.6,98.2,70.2,98.3,70.1
					L98.3,70.1L98.3,70.1z"/>
				<path d="M98.6,70.3c0,0.2,0,0.6,0,1c-0.1,0.4-0.3,0.8-0.6,1l0,0c0.4-0.2,0.5-0.6,0.6-1C98.6,70.9,98.6,70.5,98.6,70.3L98.6,70.3
					L98.6,70.3z"/>
			</g>
			<g>
				
					<path fill-rule="evenodd" clip-rule="evenodd" fill="#00A651" stroke="#000000" stroke-width="5.094500e-02" stroke-miterlimit="2.4142" d="
					M93.8,75.1c0,0-0.9-0.7-0.5-1.1c0,0-0.2-0.7,0-1.3c0.2-0.5,0.4-0.5,0.5-0.4c0,0,0,0,0,0c0-0.2-0.1-1,0.1-1.3
					c0.1-0.3,0.4-0.6,0.5-0.7c0.2-0.1,0.3,0,0.3,0.2c0,0,0.4-0.3,0.5,0.2c0,0,0.3-0.2,0.3,0.1c0,0,0.4-0.1,0.5,0.3
					c0,0,0.4-0.1,0.4,0.3c0,0,0.4-0.2,0.4,0.2c0,0,0.4-0.1,0.4,0.3c0,0,0.5-0.1,0.4,0.4c0,0,0.4-0.1,0.3,0.2c0,0,0.5,0.1,0.3,0.4
					c-0.2,0.3-0.9,0.9-1.6,1.2c0,0,0.1,0.1,0,0.3c-0.1,0.2-0.7,0.8-1.2,0.9c0,0,0.1,0.2-0.2,0.2C95,75.3,94.2,75.4,93.8,75.1
					L93.8,75.1z"/>
				<g>
					<path d="M93.3,74C93.3,74,93.3,74,93.3,74c0.1,0,0.3-0.1,0.5,1.1l0,0C93.6,74,93.4,74,93.3,74C93.3,74,93.3,74,93.3,74L93.3,74
						L93.3,74z"/>
					<path d="M93.5,74.2c0,0,0.1-0.1,0.1-0.1c0,0,0.1,0,0.1,0c0,0,0.1,0,0.1,0.1c0,0,0,0.1,0,0.2c0,0.3,0,0.8,0,0.8l0,0
						c0,0,0.1-0.5,0-0.8c0-0.1,0-0.1,0-0.1c0,0,0,0-0.1,0c0,0,0,0-0.1,0C93.7,74.2,93.6,74.2,93.5,74.2L93.5,74.2L93.5,74.2z"/>
					<path d="M93.9,74.2c0,0,0.1,0,0.2,0c0,0,0,0,0.1,0c0,0,0,0,0,0.1c0,0,0,0.1,0,0.2c0,0.1-0.1,0.2-0.1,0.4
						c-0.1,0.2-0.1,0.3-0.2,0.3l0,0c0,0,0.1-0.2,0.2-0.3c0-0.1,0.1-0.2,0.1-0.4c0-0.1,0-0.1,0-0.1c0,0,0,0,0,0c0,0,0,0,0,0
						C94,74.2,93.9,74.2,93.9,74.2L93.9,74.2L93.9,74.2z"/>
					<path d="M94.2,74.3c0.1,0,0.1,0,0.2,0.1c0.1,0,0.1,0.1,0.1,0.2c0,0.1-0.1,0.2-0.2,0.3c-0.1,0.1-0.2,0.2-0.3,0.2l0,0
						c0.1,0,0.2-0.1,0.3-0.2c0.1-0.1,0.2-0.2,0.2-0.3c0-0.1,0-0.1-0.1-0.2C94.3,74.4,94.2,74.4,94.2,74.3L94.2,74.3L94.2,74.3z"/>
					<path d="M94.4,74.5c0,0,0.1,0,0.2,0c0,0,0.1,0,0.1,0c0,0,0,0.1,0,0.1c0,0,0,0,0,0.1c0,0.1-0.2,0.2-0.3,0.4
						c-0.1,0.1-0.2,0.1-0.3,0.2l0,0c0.1,0,0.2-0.1,0.3-0.2c0.2-0.1,0.3-0.3,0.3-0.4c0,0,0,0,0,0c0,0,0,0,0-0.1c0,0,0,0-0.1,0
						C94.5,74.5,94.4,74.5,94.4,74.5L94.4,74.5L94.4,74.5z"/>
					<path d="M94.6,74.7c0.1,0,0.2,0,0.2,0c0,0,0.1,0,0.1,0c0,0,0,0,0,0.1c0,0,0,0,0,0.1c-0.1,0.1-0.2,0.2-0.4,0.3
						c-0.1,0.1-0.3,0.1-0.4,0.1v0c0.1,0,0.3,0,0.4-0.1c0.2-0.1,0.4-0.2,0.4-0.3c0,0,0,0,0,0c0,0,0,0,0,0c0,0,0,0-0.1,0
						C94.8,74.7,94.7,74.7,94.6,74.7L94.6,74.7L94.6,74.7z"/>
					<path d="M94.9,74.8c0,0,0.1,0,0.2,0c0,0,0.1,0,0.1,0.1c0,0,0,0.1,0,0.1c0,0,0,0,0,0.1c-0.1,0.1-0.2,0.2-0.3,0.2
						c-0.2,0.1-0.4,0.1-0.7,0l0,0c0.3,0,0.5,0,0.7,0c0.2-0.1,0.2-0.1,0.3-0.2c0,0,0,0,0,0c0,0,0,0,0,0c0,0,0,0-0.1,0
						C95,74.8,95,74.8,94.9,74.8L94.9,74.8L94.9,74.8z"/>
					<path d="M95.2,75c0.1,0,0.1,0,0.2,0.1c0.1,0,0.1,0.1,0.1,0.1l0,0c0,0-0.1-0.1-0.1-0.1C95.3,75,95.2,75,95.2,75L95.2,75L95.2,75
						z"/>
					<path d="M93.8,72.3c0,0,0,0.1,0,0.1c0,0,0,0.1-0.1,0.2c0,0,0,0,0,0.1c-0.1,0.2-0.3,0.7-0.1,1.5l0,0c-0.2-0.8,0-1.3,0.1-1.5
						c0,0,0,0,0-0.1C93.8,72.5,93.8,72.5,93.8,72.3C93.8,72.4,93.8,72.4,93.8,72.3L93.8,72.3L93.8,72.3z"/>
					<path d="M93.8,72.4c0,0,0.1-0.1,0.2-0.1c0,0,0.1,0,0.1,0c0,0,0,0,0.1,0c0,0,0,0.1,0,0.1c0,0.1-0.1,0.2-0.1,0.4
						c0,0.2-0.1,0.4-0.1,0.6c0,0.2,0,0.4,0,0.5c0,0.1,0,0.2,0,0.3l0,0c0-0.1,0-0.1,0-0.3c0-0.1,0-0.3,0-0.5c0-0.2,0.1-0.4,0.1-0.6
						c0-0.2,0.1-0.3,0.1-0.4c0,0,0,0,0-0.1c0,0,0,0,0,0c0,0,0,0-0.1,0C93.9,72.3,93.9,72.4,93.8,72.4L93.8,72.4L93.8,72.4z"/>
					<path d="M94.1,72.4c0.1,0,0.2,0,0.3,0c0,0,0.1,0,0.1,0l0,0c0,0,0.1,0,0.1,0.1c0,0,0,0,0,0.1c0,0,0,0.1-0.1,0.1
						c-0.1,0.3-0.4,0.9-0.4,1.7l0,0c-0.1-0.8,0.2-1.4,0.4-1.7c0,0,0-0.1,0.1-0.1c0,0,0,0,0-0.1c0,0,0,0,0-0.1l0,0c0,0-0.1,0-0.1,0
						C94.3,72.4,94.2,72.4,94.1,72.4L94.1,72.4L94.1,72.4z"/>
					<path d="M94.6,72.5c0,0,0.1,0,0.2,0c0,0,0.1,0,0.1,0c0,0,0.1,0.1,0.1,0.1c0,0,0,0.1,0,0.1c0,0,0,0.1-0.1,0.2
						c-0.1,0.5-0.5,1.5-0.5,1.6l0,0c0-0.1,0.4-1.2,0.5-1.7c0-0.1,0-0.1,0.1-0.2c0,0,0-0.1,0-0.1c0,0,0-0.1-0.1-0.1c0,0-0.1,0-0.1,0
						C94.7,72.5,94.6,72.5,94.6,72.5L94.6,72.5L94.6,72.5z"/>
					<path d="M94.9,72.6c0,0,0.1,0,0.1,0c0,0,0.1,0,0.1,0c0,0,0,0,0.1,0.1c0,0,0,0.1,0,0.1c0,0.1-0.1,0.4-0.1,0.6
						c-0.1,0.2-0.1,0.4-0.2,0.6c-0.2,0.4-0.4,0.5-0.4,0.5l0,0c0,0,0.2-0.1,0.4-0.5c0.1-0.2,0.1-0.4,0.2-0.6c0.1-0.3,0.1-0.5,0.1-0.6
						c0,0,0-0.1,0-0.1c0,0,0,0,0-0.1c0,0,0,0-0.1,0C95,72.6,95,72.6,94.9,72.6L94.9,72.6L94.9,72.6z"/>
					<path d="M95.2,72.7c0.1,0,0.1,0,0.2,0c0,0,0.1,0,0.1,0c0,0,0.1,0.1,0.1,0.1c0,0,0,0.1,0,0.2c0,0.2-0.1,0.6-0.4,1
						c-0.1,0.3-0.3,0.5-0.5,0.6l0,0c0.2-0.1,0.4-0.4,0.5-0.6c0.2-0.4,0.3-0.8,0.3-1c0-0.1,0-0.1,0-0.1c0,0,0-0.1,0-0.1
						c0,0,0,0-0.1,0C95.3,72.7,95.2,72.7,95.2,72.7L95.2,72.7L95.2,72.7z"/>
					<path d="M95.5,72.9c0.1,0,0.1,0,0.2,0c0.1,0,0.1,0.1,0.1,0.3c0,0.2-0.2,0.6-0.4,1c-0.2,0.2-0.3,0.5-0.6,0.6l0,0
						c0.2-0.1,0.4-0.3,0.5-0.5c0.2-0.3,0.4-0.7,0.4-0.9c0-0.2,0-0.2,0-0.3C95.6,72.9,95.6,72.9,95.5,72.9L95.5,72.9L95.5,72.9z"/>
					<path d="M95.8,73.1c0.1,0,0.2,0,0.3,0.1c0,0,0.1,0,0.1,0.1c0,0,0,0.1,0,0.1c0,0,0,0.1,0,0.1c-0.1,0.1-0.4,0.5-0.7,0.9
						c-0.2,0.2-0.4,0.4-0.5,0.4l0,0c0.1-0.1,0.3-0.2,0.5-0.4c0.3-0.3,0.6-0.7,0.7-0.9c0,0,0,0,0-0.1c0,0,0,0,0-0.1c0,0,0,0-0.1-0.1
						C96,73.2,95.8,73.2,95.8,73.1L95.8,73.1L95.8,73.1z"/>
					<path d="M96.1,73.4c0.1,0,0.2,0.1,0.2,0.1c0.1,0.1,0.1,0.1,0,0.2c-0.1,0.1-0.4,0.5-0.7,0.7c-0.2,0.2-0.4,0.3-0.6,0.4l0,0
						c0.2-0.1,0.4-0.2,0.5-0.3c0.3-0.3,0.6-0.6,0.7-0.7c0.1-0.1,0.1-0.1,0-0.2C96.3,73.5,96.2,73.5,96.1,73.4L96.1,73.4L96.1,73.4z"
						/>
					<path d="M96.4,73.7c0.1,0,0.2,0,0.3,0.1c0.1,0,0.1,0.1,0,0.3c-0.1,0.1-0.4,0.4-0.7,0.7c-0.2,0.2-0.5,0.3-0.6,0.4l0,0
						c0.2,0,0.4-0.2,0.6-0.4c0.3-0.2,0.6-0.5,0.7-0.7c0.1-0.1,0.1-0.2,0-0.2C96.5,73.7,96.4,73.7,96.4,73.7L96.4,73.7L96.4,73.7z"/>
					<path d="M96.7,74c0,0-0.1,0-0.1,0l0,0C96.6,73.9,96.7,73.9,96.7,74L96.7,74L96.7,74z"/>
					<path d="M94.8,70.5c0,0,0,0.1-0.1,0.1c-0.3,0.4-0.6,1-0.6,1.8l0,0c0-0.7,0.3-1.3,0.6-1.8C94.7,70.6,94.8,70.5,94.8,70.5
						L94.8,70.5L94.8,70.5z"/>
					<path d="M95.3,70.7c0,0-0.1,0.1-0.1,0.2c-0.1,0.2-0.4,0.5-0.5,0.8c-0.1,0.2-0.1,0.4-0.1,0.5c0,0.1,0,0.2,0,0.3l0,0
						c0-0.1,0-0.2,0-0.3c0-0.1,0.1-0.2,0.1-0.5c0.1-0.3,0.3-0.6,0.5-0.8C95.2,70.8,95.3,70.7,95.3,70.7L95.3,70.7L95.3,70.7z"/>
					<path d="M95.7,70.8c-0.1,0.2-0.4,0.6-0.5,1C95,72,94.9,72.3,95,72.6l0,0c0-0.3,0.1-0.6,0.2-0.9C95.2,71.3,95.5,70.9,95.7,70.8
						L95.7,70.8L95.7,70.8z"/>
					<path d="M96.1,71.1L96.1,71.1c-0.4,0.5-0.8,1.1-0.8,1.7l0,0C95.2,72.1,95.7,71.5,96.1,71.1L96.1,71.1L96.1,71.1L96.1,71.1z"/>
					<path d="M96.5,71.3c-0.1,0.2-0.3,0.6-0.6,1c-0.2,0.3-0.3,0.5-0.4,0.6l0,0c0.1-0.1,0.3-0.3,0.4-0.6
						C96.2,71.9,96.4,71.4,96.5,71.3L96.5,71.3L96.5,71.3z"/>
					<path d="M96.9,71.5c-0.2,0.2-0.5,0.5-0.7,0.9c-0.2,0.3-0.3,0.5-0.3,0.8l0,0c0-0.3,0.2-0.6,0.3-0.8C96.4,72,96.7,71.7,96.9,71.5
						L96.9,71.5L96.9,71.5z"/>
					<path d="M97.3,71.8c-0.1,0.2-0.4,0.7-0.7,1.1c-0.2,0.3-0.4,0.5-0.5,0.6l0,0c0.1-0.1,0.3-0.3,0.5-0.6
						C96.9,72.4,97.2,71.9,97.3,71.8L97.3,71.8L97.3,71.8z"/>
					<path d="M97.7,72.1c-0.1,0.2-0.4,0.6-0.8,0.9c-0.2,0.2-0.4,0.4-0.6,0.5l0,0c0.2-0.1,0.4-0.3,0.6-0.5
						C97.2,72.7,97.5,72.2,97.7,72.1L97.7,72.1L97.7,72.1z"/>
					<path d="M98,72.4c-0.1,0.2-0.4,0.6-0.8,0.9c-0.2,0.2-0.4,0.4-0.6,0.5l0,0c0.2-0.1,0.4-0.3,0.6-0.5C97.5,72.9,97.9,72.5,98,72.4
						L98,72.4L98,72.4z"/>
				</g>
			</g>
		</g>
		<g>
			
				<path fill-rule="evenodd" clip-rule="evenodd" fill="#00A651" stroke="#000000" stroke-width="5.094500e-02" stroke-miterlimit="2.4142" d="
				M79.5,68.7c-0.1,0.3-0.1,0.6,0.2,0.8c0,0,0.1-0.1,0.1-0.3C79.8,68.9,79.7,68.9,79.5,68.7L79.5,68.7z"/>
			
				<path fill-rule="evenodd" clip-rule="evenodd" fill="#00A651" stroke="#000000" stroke-width="5.094500e-02" stroke-miterlimit="2.4142" d="
				M78.8,68.7c0,0.3,0.2,0.7,0.6,0.6c0,0,0-0.3-0.1-0.4C79.1,68.7,78.9,68.8,78.8,68.7L78.8,68.7z"/>
			
				<path fill-rule="evenodd" clip-rule="evenodd" fill="#00A651" stroke="#000000" stroke-width="5.094500e-02" stroke-miterlimit="2.4142" d="
				M79.1,70.1c0.1-0.1,0.5-0.2,0.4-0.7c0,0-0.2,0-0.4,0.1C79,69.7,79.1,69.9,79.1,70.1L79.1,70.1z"/>
			
				<path fill-rule="evenodd" clip-rule="evenodd" fill="#00A651" stroke="#000000" stroke-width="5.094500e-02" stroke-miterlimit="2.4142" d="
				M79.8,70.1c-0.2-0.1-0.3-0.2-0.5-0.1s-0.1,0.2-0.3,0.3C79,70.4,79.7,70.6,79.8,70.1L79.8,70.1z"/>
			
				<path fill-rule="evenodd" clip-rule="evenodd" fill="#00A651" stroke="#000000" stroke-width="5.094500e-02" stroke-miterlimit="2.4142" d="
				M79.9,70.3c-0.1,0.1-0.2,0.2-0.2,0.4c0,0.2,0.2,0.2,0.3,0.4C80,71.1,80.4,70.6,79.9,70.3L79.9,70.3z"/>
			
				<path fill-rule="evenodd" clip-rule="evenodd" fill="#00A651" stroke="#000000" stroke-width="5.094500e-02" stroke-miterlimit="2.4142" d="
				M80,70.1c0.1,0.1,0.4,0.5,0.5,0.6C80.5,70.7,80.6,69.8,80,70.1L80,70.1z"/>
			<g>
				<path d="M80.1,69.5c0,0-0.2,0.7-0.1,1.1l0,0C79.8,70.2,80.1,69.5,80.1,69.5L80.1,69.5L80.1,69.5z"/>
				<path d="M79.5,70.2c0,0,0.1,0,0.2-0.1c0.1,0,0.1-0.1,0.2-0.1c0.1,0,0.1,0,0.2,0c0.1,0,0.2,0.1,0.2,0.2l0,0c0,0-0.1-0.1-0.2-0.2
					c-0.1,0-0.1-0.1-0.2,0c-0.1,0-0.1,0-0.2,0.1C79.7,70.2,79.6,70.2,79.5,70.2L79.5,70.2L79.5,70.2z"/>
				<polygon points="80.2,69.8 79.1,69.2 79.1,69.2 80.2,69.8 80.2,69.8 				"/>
				<polygon points="79.6,69.1 79.7,69.5 79.7,69.5 79.6,69.1 79.6,69.1 				"/>
				<polygon points="79.5,69.4 79.3,69.6 79.3,69.6 79.5,69.4 79.5,69.4 				"/>
			</g>
			<g>
				
					<path fill-rule="evenodd" clip-rule="evenodd" fill="#FFFFFF" stroke="#000000" stroke-width="6.367500e-02" stroke-miterlimit="2.4142" d="
					M79.8,69.9l0.6-0.4c0,0,0.2-0.5,0.8-0.5c0.6,0,0.8,0.4,0.8,0.7c0.1,0.3,0.2,1.1,0.7,1.5c0,0-0.4-1.3,0.6-1.7
					c1.1-0.4,1.4-0.8,1.7-0.9c0,0-0.3,0.8-0.7,1.3c0,0,0.4-0.2,0.5-0.3c0,0-0.1,0.4-0.2,0.6c0,0,1.3-0.3,1.9-1c0,0-0.2,0.7-1,1.3
					c0,0,0.4-0.1,0.7-0.3c0,0-0.3,0.6-1.2,1c0,0,0.3,0,0.6-0.1c0,0-0.5,0.5-1.1,0.6c0,0,0.2,0.2,0.8,0.1c0,0-0.3,0.3-0.7,0.4
					c0,0,0,0.3-0.5,0.4c0,0,0.6,1.1,0.7,1.7c0,0,1,1.1,1.6,1.4l-0.3,0l0.1,0.2L85.9,76v0.2l-0.3-0.1l0,0.2l-0.2-0.1l-0.1,0.1
					c0,0-0.2-0.1-0.4,0.1c0,0-0.1-0.1-0.3,0.2l-0.8-1.8c0,0-2-0.3-2.6-1.1c-0.6-0.8-0.5-1.6-0.4-2.1c0-0.5,0.4-1.3-0.4-1.6
					L79.8,69.9L79.8,69.9z"/>
				<path d="M83,71.6L83,71.6c0.1-0.5,0.2-0.6,0.4-0.7c0.1-0.1,0.2-0.1,0.3,0c0.1,0,0.2,0,0.3-0.1c0.1-0.1,0.1-0.1,0.2-0.2
					c0.2-0.2,0.3-0.3,0.4-0.4l0,0c-0.2,0.1-0.3,0.2-0.4,0.4c-0.1,0.1-0.1,0.1-0.2,0.2c-0.1,0.2-0.2,0.1-0.4,0.1c-0.1,0-0.2,0-0.3,0
					C83.2,71,83.2,71.1,83,71.6L83,71.6L83,71.6L83,71.6z"/>
				<path d="M85.1,70.7c0.2-0.1,0.5-0.2,0.5-0.2l0,0C85.6,70.6,85.3,70.7,85.1,70.7L85.1,70.7L85.1,70.7z"/>
				<path d="M84.6,71.4C84.6,71.4,84.7,71.4,84.6,71.4c0.2,0,0.4-0.1,0.5-0.1l0,0c-0.1,0-0.2,0-0.4,0.1
					C84.7,71.4,84.7,71.4,84.6,71.4L84.6,71.4L84.6,71.4z"/>
				<path d="M84.4,71.7c0.1,0,0.2,0,0.3,0l0,0C84.7,71.8,84.5,71.8,84.4,71.7L84.4,71.7L84.4,71.7z"/>
				<path d="M83.1,72.7c0-0.1,0-0.1,0-0.2c0,0,0,0,0.1-0.1c0,0,0.1,0,0.1,0c0.1,0,0.2,0,0.3,0.1c0.2,0.1,0.3,0.2,0.4,0.2
					c0.1,0,0.2,0,0.3,0l0,0c-0.1,0-0.2,0-0.3,0s-0.2-0.1-0.4-0.2c-0.1-0.1-0.2-0.1-0.2-0.1c0,0,0,0-0.1,0c0,0,0,0,0,0
					C83.1,72.6,83.1,72.7,83.1,72.7L83.1,72.7L83.1,72.7z"/>
				<polygon points="84.3,74.1 86.2,75.9 86.2,75.9 84.3,74.2 84.3,74.1 				"/>
				<polygon points="84.1,74.2 85.9,76.2 85.9,76.2 84.1,74.3 84.1,74.2 				"/>
				<polygon points="84,74.4 85,76.3 85,76.3 83.9,74.4 84,74.4 				"/>
				<polygon points="83.9,74.6 84,74.7 83.9,74.8 83.8,74.6 83.9,74.6 				"/>
				<path d="M80.5,69.5c0,0.1,0.1,0.1,0.1,0.2c0,0.1,0,0.2-0.1,0.2l0,0c0-0.1,0-0.1,0-0.2C80.5,69.7,80.5,69.6,80.5,69.5L80.5,69.5
					L80.5,69.5z"/>
				<path d="M80.8,69.6C80.8,69.6,80.8,69.6,80.8,69.6c0.1-0.1,0.1-0.1,0.2-0.1c0.1,0,0.1,0.1,0.1,0.1c0,0,0,0,0,0l0,0c0,0,0,0,0,0
					c0,0-0.1-0.1-0.1-0.1C80.9,69.5,80.9,69.6,80.8,69.6C80.8,69.6,80.8,69.6,80.8,69.6L80.8,69.6L80.8,69.6z"/>
				<path d="M81.1,69.7C81.1,69.7,81.1,69.7,81.1,69.7c0,0-0.1,0.1-0.1,0.1c-0.1,0-0.1,0-0.2-0.1c0,0,0,0-0.1,0l0,0c0,0,0,0,0,0
					c0.1,0,0.1,0.1,0.2,0C81,69.7,81.1,69.7,81.1,69.7C81.1,69.6,81.1,69.6,81.1,69.7L81.1,69.7L81.1,69.7z"/>
				<path fill-rule="evenodd" clip-rule="evenodd" d="M80.9,69.6C81,69.6,81,69.6,80.9,69.6C81,69.6,81,69.7,80.9,69.6
					C80.9,69.7,80.9,69.6,80.9,69.6C80.9,69.6,80.9,69.6,80.9,69.6L80.9,69.6z"/>
				<path fill-rule="evenodd" clip-rule="evenodd" d="M81.1,73.7c0.2,0.1,0.2,0.1,0.2,0.2c0,0.1,0.2,0.1,0.4,0.1
					c0,0-0.5-0.3-0.6-0.8C81.1,73.3,80.9,73.6,81.1,73.7L81.1,73.7z"/>
			</g>
		</g>
		<g>
			<g>
				
					<path fill-rule="evenodd" clip-rule="evenodd" fill="#FFFFFF" stroke="#000000" stroke-width="9.818700e-02" stroke-miterlimit="2.4142" d="
					M78.4,50.3c0.8,0,1.5,0.5,1.5,1.1c0,0.6-0.7,1.1-1.5,1.1c-0.8,0-1.5-0.5-1.5-1.1C76.9,50.8,77.6,50.3,78.4,50.3z"/>
				
					<path fill-rule="evenodd" clip-rule="evenodd" fill="#FFFFFF" stroke="#000000" stroke-width="8.023200e-02" stroke-miterlimit="2.4142" d="
					M78.4,50.2c0.7,0,1.3,0.3,1.3,0.7c0,0.4-0.6,0.7-1.3,0.7c-0.7,0-1.3-0.3-1.3-0.7C77.1,50.5,77.7,50.2,78.4,50.2z"/>
				
					<path fill-rule="evenodd" clip-rule="evenodd" fill="#FFFFFF" stroke="#000000" stroke-width="8.023200e-02" stroke-miterlimit="2.4142" d="
					M78.4,51.5c0.7,0,1.3,0.3,1.3,0.7c0,0.4-0.6,0.7-1.3,0.7c-0.7,0-1.3-0.3-1.3-0.7C77.1,51.8,77.7,51.5,78.4,51.5z"/>
				
					<path fill-rule="evenodd" clip-rule="evenodd" fill="#FFFFFF" stroke="#000000" stroke-width="8.023200e-02" stroke-miterlimit="2.4142" d="
					M78.4,50.8c0.7,0,1.3,0.3,1.3,0.7c0,0.4-0.6,0.7-1.3,0.7c-0.7,0-1.3-0.3-1.3-0.7C77.1,51.1,77.7,50.8,78.4,50.8z"/>
			</g>
			
				<path fill-rule="evenodd" clip-rule="evenodd" fill="#FFD100" stroke="#000000" stroke-width="7.641100e-02" stroke-miterlimit="2.4142" d="
				M77.7,50c-0.1-0.1-0.5-0.5,0.1-0.8c0,0,0.3-0.5,1.3-0.5c0,0,0.2-0.5,0.9-0.3c0.7,0.3,1,0.5,1.4,0.7c0.4,0.2,1,0.2,1.1-0.1
				c0.1-0.3,0.2-0.8,0.7-1.1c0,0,0.2-0.6,0.1-1.3c0,0,0.5,0.2,0.7,0.8c0,0,0.5-0.6,1.2-0.7c0,0,0.3,0.7,0.2,1.3c0,0,0.7-0.3,1.2,0.2
				c0,0-0.9,0.2-1.3,0.7c0,0,0.1,0.3,0.1,0.7c0,0.4,0,0.5,0.3,0.6c0.2,0.1,0.6,0.1,0.7,0.2c0.1,0.1,1.1,0.2,1.6,0.2
				c0.5,0,2.4-0.5,3.1-0.7c0.7-0.2,0.8-0.2,0.9-0.2c0.1,0,0.2-0.2,0.9-0.3c0.7-0.1,1.6-0.4,2.1-0.4c0.5,0,0.4-0.1,0.9,0.1
				c0.4,0.2,1.7,0.6,1.9-0.3c0,0-0.2-0.1-0.3-0.6c0,0-0.3-0.4-1.2-0.2c-1,0.2-1.6,0.3-1.9,0.4c-0.4,0.1-1.2,0.2-1.7,0.4
				c0,0-0.4,0-0.9,0.2c-0.5,0.2-0.7,0.2-0.9-0.1c-0.3-0.2-0.6-0.6-0.7-0.6c-0.1,0-0.1,0.1-0.1,0.2c0,0.1,0.2,0.4,0.2,0.4
				s-0.4,0.1-0.7-0.1c-0.3-0.2-0.4-0.3-0.7-0.2c-0.3,0.1-0.3,0.2-0.3,0.2s0.1,0,0.1,0.2c0,0.1,0.1,0.1,0.1,0.2c0,0.1,0,0.3,0,0.3
				s-0.8-0.1-0.9-1c0,0-0.1,0.2-0.2,0.1c-0.1,0-0.1-0.1-0.1-0.2c-0.1-0.1-0.3-0.2-0.3-0.4c0,0-0.4-0.6,0-1.1c0,0,0,0.2,0.1,0.4
				c0.1,0.2,0.1,0.2,0.2,0.3c0,0,0.4,0,0.6,0.2c0.3,0.2,1.3-0.2,1.5-0.3c0.2,0,0.4,0,1.1,0.3c0.6,0.3,1,0.4,1.7,0.4
				c0.7-0.1,2.1-0.8,2.9-0.9c0.8-0.1,1.1-0.2,1.6,0c0.5,0.2,1.2,0.4,1.4-0.1c0.2-0.5,0.2-0.5,0.2-0.5s0.7,0.4,0.5,1.5
				c0,0,0.2,0,0.3-0.2c0,0,0.2,0.1,0.4,0.1c0,0,0.4,0.3,0.4,0.8c0,0.5-0.8,0.9-0.5,0c0,0-0.4-0.2-0.8,0.2c-0.4,0.4-0.9,0.9-1.5,1
				c0,0,0.2,0.2,0.3,0.5c0.1,0.3,0.4,0.3,0.4,0.3s0,0.2,0.7,0.1c0.7,0,0.9-0.3,1.2-0.3c0.3,0,0.9,0.2,1.1,0.9c0.1,0.7,0.2,0.7,0.7,1
				c0,0,0.2,0.4,0.2,0.6c0.1,0.2-0.3,0.5-0.8,0.6c0,0-0.2,0.5-1.7,0.3c0,0-0.5,0.1-0.8-0.1c0,0-0.1-0.6,0.6-0.7
				c0.7-0.1,1.1,0.1,1.1-0.3c0.1-0.3-0.1-0.3-0.3-0.6c-0.2-0.3-0.2-0.4-0.2-0.5c0,0-1.8,1.5-2.2-0.3c0,0-0.2,0.3,0.1,0.7
				c0,0-0.8-0.2-1.2-1.2c0,0,0.1,0.6-0.2,1c0,0-0.5-0.2-0.7-0.7c0,0-0.1,0.7-0.5,0.7c-0.4,0-0.3-0.1-0.4,0c-0.1,0.1,0,0.2,0.3,0.4
				c0.2,0.1,0.5,0.3,0.5,0.5c0,0.2-0.2,0.4-0.5,0.6c-0.3,0.2-0.3,0.3-0.3,0.3s-1.2,0.5-1.7,0.7c-0.5,0.1-1.4,0.2-1.8-0.3
				c0,0-0.5-0.2-0.5-0.8c0,0-0.3-0.6,0.2-0.9c0.5-0.3,0.8-0.2,1-0.1c0.1,0.1,0.2,0.4,0.6,0.7c0.4,0.3,0.8,0.3,1,0.1
				c0.2-0.2,0.3-0.6,0-0.8c-0.3-0.3-0.4-0.3-0.6-0.3c0,0-0.5-1.1,0.4-1.3c0.8-0.2,1.7-0.2,1.7-0.2s-0.5-0.5-1.4-0.3
				c-0.8,0.2-1,0.8-1.4,1c-0.4,0.2-0.6,0.2-0.6,0.2s0,0.3-0.4,0.4c0,0-0.8,0.7-1.5,0.7c0,0-0.1,0.3-0.5,0.2c0,0-0.1,0.2-0.3,0.1
				c0,0-1.2,0.6-2,0.1c0,0,0.1,0.3-0.1,0.3c-0.2,0-0.3-0.1-0.4-0.2l-0.1,0.2c0,0-0.2-0.2-0.2-0.3l-0.1,0l-0.3-0.2l0.2,0.4l-0.2,0
				l-0.1,0.5c0,0-0.6-0.1-0.9-0.9c0,0-0.1,0.2-0.4,0.3c-0.3,0.1-0.7,0.2-0.7,0.2s0.1-0.4,0.1-0.5c0,0-0.1,0.3-0.4,0.4
				c0,0-0.3,0.4-1,0.5c-0.7,0.2-1,0.3-1.2,0.5c-0.2,0.3-0.4-0.1-0.5-0.2c-0.1-0.1-0.3-0.1-0.5-0.1c-0.1,0-0.1-0.1-0.3-0.1
				c-0.1,0-1.3,0.1-1.6-0.2c-0.3-0.3-0.6-0.7-0.2-0.9c0.1-0.1,0.2,0,0.3-0.1c0.3-0.3,0.8-0.6,1.3-0.5c0,0,0,0.1,0.1,0.4
				c0.1,0.3,0,0.3,0.2,0.3c0.2,0,0.3,0,0.5,0.1c0.2,0.1,0.2,0.2,0.3,0.2c0.1,0,0.2,0.1,0.3,0.1c0,0,0.2-0.1,0.4-0.3
				c0.2-0.2,0.6-0.3,0.9-0.4c0,0,0.2-0.8,0.3-1l0-0.1c0,0-0.5,0.2-0.7,0c-0.2-0.1-0.2-0.1,0-0.3c0,0,0-0.5,0.2-0.6
				c0,0-0.6,0-0.9-0.2l0-0.1c0,0-0.7-0.4-0.8-0.7c0,0-0.2,0.1-0.5,0.1c0,0,0,0.3-0.3,0.4c0,0-0.1,0-0.1,0c-0.1,0-0.2-0.1-0.3-0.1
				c-0.1,0-0.3,0.1-0.4,0.1c-0.2,0-0.3-0.1-0.4-0.1C77.9,50.1,77.8,50.1,77.7,50L77.7,50z"/>
			<path d="M83.7,52.1c0,0.1,0,0.2,0,0.2c0,0.1-0.1,0.1-0.2,0.2c-0.2,0.1-0.1,0.5-0.1,0.5l0,0c0,0-0.1-0.4,0.1-0.5
				c0.1,0,0.1-0.1,0.2-0.1C83.7,52.2,83.7,52.1,83.7,52.1L83.7,52.1L83.7,52.1z"/>
			<path d="M82,52.6c0,0,0.5,0,0.9,0c0.3-0.1,0.6-0.2,0.8-0.3l0,0c-0.2,0.2-0.5,0.3-0.8,0.3C82.5,52.7,82,52.7,82,52.6L82,52.6
				L82,52.6z"/>
			<path d="M85,52c0,0.1,0.1,0.2,0.2,0.4c0.1,0.2,0.3,0.5,0.4,0.6l0,0c-0.1-0.1-0.2-0.3-0.4-0.6C85.1,52.3,85,52.1,85,52L85,52
				L85,52z"/>
			<path d="M86,51.9c0,0.1,0.2,0.4,0.5,0.6c0.2,0.1,0.6,0.2,1,0.2c-0.1-0.2-0.6-1.4-2-1.8l0,0c1.5,0.5,2,1.9,2,1.9l0,0l0,0
				c-0.5,0-0.8,0-1.1-0.2C86.1,52.4,86,52.1,86,51.9L86,51.9L86,51.9z"/>
			<path d="M86.9,51.6c0.1,0,0.5,0.1,0.9,0c0.2,0,0.4-0.1,0.6-0.3c-0.1-0.1-0.7-0.5-1.2-0.7l0,0l0,0l0.1,0L87,50.5l0,0l0.2,0.1l0,0
				l0,0l-0.1,0c0.6,0.3,1.2,0.7,1.2,0.7l0,0l0,0c-0.1,0.2-0.4,0.3-0.6,0.3C87.4,51.8,87,51.7,86.9,51.6L86.9,51.6L86.9,51.6z"/>
			<path d="M86.8,53.2L86.8,53.2c-0.1-0.2-0.4-0.5-0.4-0.7h0C86.4,52.6,86.7,53,86.8,53.2L86.8,53.2L86.8,53.2L86.8,53.2z"/>
			<path d="M78.3,53.5c0-0.1,0-0.2,0-0.4c0-0.1-0.1-0.2-0.2-0.3l0,0c0.1,0.1,0.2,0.2,0.3,0.3C78.4,53.3,78.4,53.4,78.3,53.5
				L78.3,53.5L78.3,53.5z"/>
			<path d="M78.7,53.4c-0.1-0.1-0.2-0.2-0.2-0.4c-0.1-0.2-0.1-0.5-0.1-0.6l0,0c0,0.1,0,0.4,0.1,0.6C78.6,53.2,78.6,53.3,78.7,53.4
				L78.7,53.4L78.7,53.4z"/>
			<path d="M79.1,53.3c-0.1-0.2-0.2-0.4-0.3-0.5c0-0.2-0.1-0.3-0.1-0.4h0c0,0.1,0,0.3,0.1,0.4C78.9,52.9,78.9,53,79.1,53.3
				L79.1,53.3L79.1,53.3z"/>
			<path d="M78.2,49.4C78.2,49.4,78.2,49.4,78.2,49.4c-0.1,0.1-0.2,0.1-0.2,0.3c0,0.1,0,0.3,0.1,0.4c0,0,0,0,0,0l0,0c0,0,0,0,0,0
				c-0.1-0.2-0.1-0.3-0.1-0.5C78,49.5,78.1,49.4,78.2,49.4C78.2,49.4,78.2,49.4,78.2,49.4L78.2,49.4L78.2,49.4z"/>
			<path d="M78.7,49.3c-0.1,0-0.1,0.1-0.2,0.2c-0.1,0.1-0.1,0.2-0.1,0.3c0,0.1,0,0.2,0.1,0.3c0,0,0.1,0.1,0.1,0.1l0,0
				c-0.1-0.1-0.1-0.1-0.1-0.2c-0.1-0.1-0.1-0.2-0.1-0.3c0-0.1,0.1-0.2,0.1-0.3C78.5,49.4,78.6,49.3,78.7,49.3L78.7,49.3L78.7,49.3z"
				/>
			<path d="M79.1,49.5c-0.1,0.1-0.2,0.2-0.2,0.3c0,0.1,0,0.2,0.1,0.3l0,0c0-0.1-0.1-0.2-0.1-0.3C78.9,49.7,78.9,49.6,79.1,49.5
				L79.1,49.5L79.1,49.5z"/>
			<path d="M80.6,49.3c0,0.1-0.1,0.2-0.2,0.3c-0.1,0.1-0.2,0.1-0.3,0.1l0,0c0.1,0,0.2-0.1,0.2-0.1C80.4,49.5,80.5,49.4,80.6,49.3
				L80.6,49.3L80.6,49.3z"/>
			<path d="M80.9,50.4C80.9,50.4,80.9,50.4,80.9,50.4c0.2-0.1,0.3-0.2,0.5-0.2c0,0,0-0.2-0.1-0.3l0-0.1l0.1,0c0,0,0.1,0,0.3,0
				c0,0,0-0.2,0-0.3l0,0c0,0.2,0,0.3,0,0.3l0,0h0c-0.1,0-0.2,0-0.3,0c0.1,0.1,0,0.3,0,0.3l0,0l0,0C81.2,50.3,81.1,50.4,80.9,50.4
				C80.9,50.5,80.9,50.5,80.9,50.4L80.9,50.4L80.9,50.4z"/>
			<path d="M82.5,49.1c-0.1,0.1-0.1,0.2-0.3,0.3c-0.1,0.1-0.4,0.1-0.8,0c0,0.1,0.1,0.2,0.3,0.3c0.2,0.1,0.6,0.1,0.6,0.1l0.1,0l0,0
				c0,0-0.4,0.5-0.5,0.9c0.1,0,0.4,0.2,0.8-0.1l0,0l0,0.1c0,0,0,0.4,0.1,0.6c0.1,0.2,0.1,0.4,0.1,0.5c0.1-0.1,0.3-0.3,0.4-0.5l0,0
				c0.1-0.3,0.2-0.3,0.3-0.4l0,0l0,0c0,0-0.1,0.4,0.5,0.6c0-0.1,0-0.3,0.1-0.4c0.1-0.1,0.1-0.1,0.1-0.2c0-0.1,0-0.1,0-0.2l0,0h0
				c0,0,0.3,0,0.4,0.2c0.1,0.1,0.1,0.1,0.2,0.2c0.1,0,0.1,0,0.2,0c-0.1,0-0.3-0.1-0.3-0.3c0-0.1,0-0.2,0-0.2c0-0.1,0-0.2-0.1-0.3
				l0,0l0,0c0,0,0.2-0.1,0.3,0.1c0.1,0.1,0.2,0.2,0.3,0.2c-0.1-0.1-0.2-0.2-0.2-0.4c0-0.1,0-0.2,0.1-0.4c0.1-0.3,0.1-0.6,0.1-0.7
				l0,0c0,0.1,0,0.4-0.1,0.7c0,0.1-0.1,0.3-0.1,0.4c0,0.2,0.2,0.4,0.2,0.4l0,0l0,0c0,0-0.2,0-0.3-0.2c-0.1-0.1-0.2-0.1-0.2-0.1
				c0.1,0.1,0.1,0.2,0.1,0.3c0,0.1,0,0.1,0,0.2c0,0.2,0.3,0.3,0.3,0.3l0.1,0l-0.1,0c-0.1,0.1-0.3,0.1-0.3,0c-0.1,0-0.2-0.1-0.2-0.2
				c-0.1-0.1-0.3-0.2-0.3-0.2c0,0.1,0,0.2,0,0.2c0,0.1-0.1,0.1-0.1,0.2c-0.1,0.1-0.1,0.4-0.1,0.4l0,0l0,0c-0.5-0.2-0.5-0.6-0.5-0.7
				c-0.1,0-0.2,0.1-0.3,0.4v0c-0.1,0.3-0.5,0.5-0.5,0.5l0,0l0,0c0,0,0-0.3-0.1-0.5c-0.1-0.2-0.1-0.5-0.1-0.6
				c-0.4,0.3-0.8,0.1-0.8,0.1l0,0l0,0c0.1-0.3,0.4-0.7,0.5-0.9c-0.1,0-0.4,0-0.6-0.1c-0.3-0.1-0.3-0.4-0.3-0.4l0,0l0,0
				c0.4,0.1,0.6,0.1,0.8,0C82.3,49.3,82.4,49.2,82.5,49.1L82.5,49.1L82.5,49.1z"/>
			<path d="M83.3,47.8L83.3,47.8c0.4,0,1.5,0.1,2.2,1.1l0,0C84.8,47.9,83.7,47.8,83.3,47.8L83.3,47.8L83.3,47.8L83.3,47.8z"/>
			<path d="M83.1,48.1c0.1,0,0.2,0,0.3,0.1c0.5,0.1,1.2,0.2,1.9,0.9l0,0c-0.8-0.7-1.4-0.9-1.9-0.9C83.2,48.1,83.1,48.1,83.1,48.1
				L83.1,48.1L83.1,48.1z"/>
			<path d="M85.4,48.9C85.4,49,85.4,49,85.4,48.9c-0.1,0.1-0.1,0.1-0.1,0.2c0,0,0,0,0,0.1c0,0.1-0.1,0.2-0.2,0.4
				c0,0.1-0.1,0.1-0.1,0.2c-0.1,0.1-0.1,0.2-0.2,0.2c-0.1,0-0.1,0.1-0.2,0.1c-0.1,0-0.1,0-0.1,0.1l0,0c0,0,0.1,0,0.1,0
				c0,0,0.1,0,0.2-0.1c0.1-0.1,0.2-0.1,0.2-0.2c0,0,0.1-0.1,0.1-0.2c0.1-0.2,0.2-0.3,0.2-0.4c0,0,0,0,0-0.1
				C85.3,49,85.3,49,85.4,48.9C85.3,49,85.3,48.9,85.4,48.9L85.4,48.9L85.4,48.9z"/>
			<path d="M84.2,49.6c0.1,0.1,0.1,0.1,0.2,0.2c0,0.1,0,0.2,0,0.3c0,0.1-0.1,0.2-0.1,0.3c-0.1,0.1-0.2,0.1-0.2,0.2
				c-0.1,0-0.3,0.1-0.5,0.2c-0.1,0-0.2,0-0.3,0c-0.1,0-0.2-0.1-0.3-0.2c-0.1-0.1-0.1-0.2-0.2-0.4c-0.1-0.2-0.1-0.3-0.1-0.5
				c0-0.2,0-0.3,0.1-0.4c0.1-0.1,0.1-0.2,0.2-0.2c0.1,0,0.2,0,0.3,0l0,0c-0.1,0-0.2,0-0.3,0c-0.1,0-0.1,0.1-0.2,0.2
				c-0.1,0.1-0.1,0.2-0.1,0.4c0,0.2,0,0.3,0.1,0.5c0.1,0.2,0.1,0.3,0.2,0.4c0.1,0.1,0.1,0.1,0.2,0.2c0.1,0,0.2,0,0.3,0
				c0.2,0,0.4-0.1,0.5-0.2c0.1,0,0.2-0.1,0.2-0.1c0.1-0.1,0.1-0.1,0.1-0.3c0-0.1,0-0.2,0-0.3C84.3,49.7,84.2,49.6,84.2,49.6
				L84.2,49.6L84.2,49.6z"/>
			<path d="M82.9,49.1c0-0.2,0.1-0.3,0.2-0.5c0.1-0.2,0.3-0.3,0.5-0.5l0,0c-0.2,0.2-0.4,0.3-0.5,0.5C83,48.8,82.9,48.9,82.9,49.1
				L82.9,49.1L82.9,49.1z"/>
			<path d="M83.5,48.6C83.5,48.6,83.5,48.7,83.5,48.6c-0.1,0.1-0.1,0.1-0.1,0.2c0,0.1,0,0.1,0.1,0.2c0,0,0.1,0.1,0.1,0.1l0,0
				c0,0-0.1-0.1-0.1-0.1c-0.1-0.1-0.1-0.1-0.1-0.2C83.4,48.8,83.4,48.7,83.5,48.6C83.4,48.6,83.5,48.6,83.5,48.6L83.5,48.6
				L83.5,48.6z"/>
			<path d="M83.4,48.5L83.4,48.5C83.4,48.5,83.5,48.6,83.4,48.5c0.2,0.1,0.3,0.2,0.2,0.6l0,0C83.7,48.8,83.6,48.7,83.4,48.5
				C83.4,48.6,83.4,48.6,83.4,48.5L83.4,48.5L83.4,48.5L83.4,48.5z"/>
			<path d="M83.6,48.5c0,0,0.2,0.3,0,0.6l0,0C83.8,48.8,83.6,48.5,83.6,48.5L83.6,48.5L83.6,48.5z"/>
			<path fill-rule="evenodd" clip-rule="evenodd" d="M83.5,48.8C83.6,48.8,83.6,48.8,83.5,48.8c0.1,0.1,0,0.1,0,0.1
				C83.5,48.9,83.5,48.9,83.5,48.8C83.5,48.8,83.5,48.8,83.5,48.8L83.5,48.8z"/>
			<path d="M84.7,49.2C84.7,49.2,84.6,49.2,84.7,49.2c-0.1,0.1-0.1,0.1-0.2,0.1c-0.1,0-0.1,0-0.2,0c0,0-0.1-0.1-0.1-0.1l0,0
				c0,0,0.1,0.1,0.1,0.1c0.1,0,0.1,0,0.2,0C84.6,49.3,84.6,49.3,84.7,49.2C84.7,49.2,84.7,49.2,84.7,49.2L84.7,49.2L84.7,49.2z"/>
			<path d="M84.8,49.2L84.8,49.2C84.8,49.2,84.8,49.2,84.8,49.2c-0.1-0.2-0.3-0.3-0.6,0l0,0c0.3-0.2,0.4-0.2,0.5-0.1
				C84.7,49.2,84.7,49.2,84.8,49.2L84.8,49.2L84.8,49.2L84.8,49.2z"/>
			<path d="M84.8,49c0,0-0.3-0.1-0.6,0.1l0,0C84.5,48.9,84.8,49.1,84.8,49L84.8,49L84.8,49z"/>
			<path fill-rule="evenodd" clip-rule="evenodd" d="M84.5,49.2C84.5,49.1,84.5,49.1,84.5,49.2c-0.1,0-0.1,0-0.1,0
				C84.4,49.2,84.4,49.3,84.5,49.2C84.5,49.2,84.5,49.2,84.5,49.2L84.5,49.2z"/>
			<path d="M84,49.2c0,0,0,0.2-0.1,0.4l0,0C84,49.5,83.9,49.3,84,49.2L84,49.2L84,49.2z"/>
			<path d="M83.9,50.3c-0.1,0-0.2,0-0.3,0c-0.1,0-0.2,0-0.2-0.1c-0.1,0-0.1-0.1-0.1-0.2c0,0,0-0.1,0-0.1l0,0c0,0,0,0.1,0,0.1
				c0,0.1,0.1,0.1,0.1,0.2c0.1,0,0.1,0.1,0.2,0.1C83.8,50.3,83.8,50.3,83.9,50.3L83.9,50.3L83.9,50.3z"/>
			<path d="M82.7,49.7C82.7,49.7,82.7,49.7,82.7,49.7c0,0.1,0.1,0.2,0.2,0.2c0.1,0,0.2,0.1,0.3,0c0,0,0,0,0.1,0l0,0c0,0,0,0-0.1,0
				c-0.2,0-0.3,0-0.4,0C82.7,49.9,82.7,49.8,82.7,49.7C82.7,49.7,82.7,49.7,82.7,49.7L82.7,49.7L82.7,49.7z"/>
			<path d="M83.7,49.9C83.7,49.9,83.7,49.9,83.7,49.9c0,0.1,0,0.1,0,0.1c0,0,0,0-0.1,0c0,0,0,0-0.1,0c-0.1,0-0.2,0-0.2,0
				c-0.1,0-0.1,0-0.1-0.1c-0.1-0.1-0.1-0.1-0.1-0.1c0,0,0,0,0-0.1c0,0,0,0,0-0.1c0,0,0.1-0.1,0.1-0.1l0,0l0,0l0,0c0.1,0,0.2,0,0.3,0
				C83.6,49.7,83.7,49.8,83.7,49.9L83.7,49.9L83.7,49.9L83.7,49.9L83.7,49.9z M83.6,49.9C83.6,49.9,83.6,49.9,83.6,49.9L83.6,49.9
				L83.6,49.9L83.6,49.9c0-0.1-0.1-0.2-0.2-0.2c-0.1,0-0.2-0.1-0.3,0l0,0l0,0l0,0c0,0-0.1,0-0.1,0.1c0,0,0,0,0,0c0,0,0,0,0,0
				c0,0,0,0.1,0.1,0.1c0,0,0.1,0.1,0.1,0.1c0.1,0,0.1,0,0.2,0C83.6,50,83.6,50,83.6,49.9C83.6,50,83.6,50,83.6,49.9
				C83.6,50,83.6,49.9,83.6,49.9L83.6,49.9z"/>
			<path d="M83.3,49.9c0,0-0.1,0-0.1-0.1c0,0-0.1-0.1-0.1-0.1l0,0c0,0,0,0.1,0.1,0.1C83.2,49.8,83.3,49.8,83.3,49.9L83.3,49.9
				L83.3,49.9z"/>
			<polygon points="83.4,50.2 83.4,50.4 83.5,50.3 83.5,50.3 83.4,50.5 83.3,50.6 83.3,50.5 83.3,50.2 83.4,50.2 			"/>
			<path d="M83,50c0,0,0,0.1,0,0.2l0.1-0.2l0,0L83,50.2l0,0l0-0.1C82.9,50.2,82.9,50,83,50L83,50L83,50z"/>
			<path d="M82.8,49.9c0,0.1,0.1,0.2,0.1,0.4c0,0.1,0.1,0.2,0.2,0.2c0.1,0.1,0.2,0.1,0.3,0c0.1,0,0.2-0.1,0.3-0.2l0,0
				c-0.1,0.1-0.2,0.2-0.3,0.2c-0.1,0-0.2,0-0.3,0c-0.1,0-0.1-0.1-0.2-0.2C82.9,50.2,82.8,50,82.8,49.9L82.8,49.9L82.8,49.9z"/>
			<path fill-rule="evenodd" clip-rule="evenodd" d="M82.9,49.3C83,49.3,83,49.3,82.9,49.3C83,49.4,83,49.4,82.9,49.3
				C82.9,49.4,82.9,49.4,82.9,49.3C82.9,49.3,82.9,49.3,82.9,49.3L82.9,49.3z"/>
			<path fill-rule="evenodd" clip-rule="evenodd" d="M83.1,49.3C83.1,49.3,83.1,49.3,83.1,49.3C83.1,49.3,83.1,49.3,83.1,49.3
				C83.1,49.3,83,49.3,83.1,49.3C83,49.3,83.1,49.3,83.1,49.3L83.1,49.3z"/>
			<path fill-rule="evenodd" clip-rule="evenodd" d="M83.1,49.4C83.1,49.4,83.1,49.4,83.1,49.4C83.1,49.4,83.1,49.5,83.1,49.4
				C83.1,49.5,83.1,49.4,83.1,49.4C83.1,49.4,83.1,49.4,83.1,49.4L83.1,49.4z"/>
			<path fill-rule="evenodd" clip-rule="evenodd" d="M83,49.5C83,49.5,83,49.5,83,49.5C83,49.6,83,49.6,83,49.5
				C83,49.6,83,49.6,83,49.5C83,49.5,83,49.5,83,49.5L83,49.5z"/>
			<path fill-rule="evenodd" clip-rule="evenodd" d="M83.9,50.1C83.9,50.1,83.9,50.1,83.9,50.1C83.9,50.1,83.9,50.1,83.9,50.1
				C83.8,50.1,83.8,50.1,83.9,50.1C83.8,50.1,83.8,50.1,83.9,50.1L83.9,50.1z"/>
			<path fill-rule="evenodd" clip-rule="evenodd" d="M83.8,49.9C83.8,49.9,83.8,49.9,83.8,49.9C83.8,49.9,83.8,49.9,83.8,49.9
				C83.8,49.9,83.8,49.9,83.8,49.9C83.8,49.9,83.8,49.9,83.8,49.9L83.8,49.9z"/>
			<path fill-rule="evenodd" clip-rule="evenodd" d="M83.9,49.8C84,49.8,84,49.8,83.9,49.8C84,49.9,84,49.9,83.9,49.8
				C83.9,49.9,83.9,49.9,83.9,49.8C83.9,49.8,83.9,49.8,83.9,49.8L83.9,49.8z"/>
			<path fill-rule="evenodd" clip-rule="evenodd" d="M84,49.9C84,49.9,84,50,84,49.9C84,50,84,50,84,49.9C83.9,50,83.9,50,84,49.9
				C83.9,50,83.9,49.9,84,49.9L84,49.9z"/>
			
				<path fill-rule="evenodd" clip-rule="evenodd" fill="#FFFFFF" stroke="#000000" stroke-width="5.094500e-02" stroke-miterlimit="2.4142" d="
				M79.3,50.2c0,0-0.2-0.2-0.4-0.1c0,0,0,0.2,0.1,0.5C79,50.5,79.1,50.3,79.3,50.2L79.3,50.2z"/>
			
				<path fill-rule="evenodd" clip-rule="evenodd" fill="#FFFFFF" stroke="#000000" stroke-width="5.094500e-02" stroke-miterlimit="2.4142" d="
				M78.5,50.2c0,0,0.2-0.2,0.4-0.1c0,0-0.1,0.3-0.1,0.5C78.8,50.6,78.6,50.5,78.5,50.2L78.5,50.2z"/>
			
				<path fill-rule="evenodd" clip-rule="evenodd" fill="#FFFFFF" stroke="#000000" stroke-width="5.094500e-02" stroke-miterlimit="2.4142" d="
				M78.5,50.2c-0.2,0-0.3,0-0.4-0.1c0,0-0.1-0.1,0,0c0,0.1,0.2,0.4,0.4,0.5C78.4,50.6,78.3,50.4,78.5,50.2L78.5,50.2z"/>
			
				<path fill-rule="evenodd" clip-rule="evenodd" fill="#FFFFFF" stroke="#000000" stroke-width="5.094500e-02" stroke-miterlimit="2.4142" d="
				M78,50.1C77.9,50,77.8,50,77.7,50c0,0,0,0.3,0.3,0.6C78,50.6,77.9,50.2,78,50.1C78,50.1,78,50.1,78,50.1L78,50.1z"/>
			
				<path fill-rule="evenodd" clip-rule="evenodd" fill="#FFFFFF" stroke="#000000" stroke-width="5.094500e-02" stroke-miterlimit="2.4142" d="
				M78.8,52.4c0.1-0.1,0.3-0.2,0.5-0.2c0.1,0,0.1,0,0-0.1C79.2,52.1,79,52,79,51.8C79,51.8,78.7,52,78.8,52.4
				C78.8,52.5,78.7,52.5,78.8,52.4L78.8,52.4z"/>
			
				<path fill-rule="evenodd" clip-rule="evenodd" fill="#FFFFFF" stroke="#000000" stroke-width="5.094500e-02" stroke-miterlimit="2.4142" d="
				M78.4,52.5c0.1,0,0.2-0.1,0.3,0c0,0,0,0,0,0c0-0.1-0.1-0.3-0.1-0.5C78.7,51.9,78.4,52.1,78.4,52.5C78.4,52.5,78.4,52.5,78.4,52.5
				L78.4,52.5z"/>
			
				<path fill-rule="evenodd" clip-rule="evenodd" fill="#FFFFFF" stroke="#000000" stroke-width="5.094500e-02" stroke-miterlimit="2.4142" d="
				M78.1,52.8c0.1-0.2,0.1-0.3,0.3-0.3c0.1,0,0,0,0,0c-0.1-0.1-0.1-0.3-0.1-0.4C78.3,52.1,78,52.4,78.1,52.8
				C78.1,52.9,78.1,52.9,78.1,52.8L78.1,52.8z"/>
			
				<path fill-rule="evenodd" clip-rule="evenodd" fill="#FFFFFF" stroke="#000000" stroke-width="5.094500e-02" stroke-miterlimit="2.4142" d="
				M77.8,52.8c0,0,0.1,0.2,0.3,0.1c0,0-0.2-0.3-0.1-0.5C77.9,52.3,77.7,52.5,77.8,52.8L77.8,52.8z"/>
			<path d="M91,52.8c-0.1,0.1-0.2,0.2-0.3,0.3c-0.1,0.1-0.1,0.2-0.1,0.4l0,0c0-0.1,0.1-0.3,0.2-0.4C90.7,52.9,90.8,52.8,91,52.8
				L91,52.8L91,52.8z"/>
			<path d="M91.3,53.5c-0.1,0.1-0.1,0.2-0.1,0.3c0,0.1-0.1,0.2,0,0.4l0,0c0-0.1,0-0.2,0-0.4C91.1,53.7,91.2,53.6,91.3,53.5
				L91.3,53.5L91.3,53.5z"/>
			<path d="M99.3,53.4c-0.1,0-0.2,0.1-0.3,0.2c-0.1,0.1-0.1,0.2-0.1,0.3l0,0c0-0.1,0-0.3,0.1-0.4C99,53.5,99.2,53.4,99.3,53.4
				L99.3,53.4L99.3,53.4z"/>
			<path d="M99.7,53.5C99.7,53.5,99.7,53.6,99.7,53.5c-0.3,0.2-0.4,0.3-0.4,0.5l0,0C99.3,53.8,99.4,53.7,99.7,53.5
				C99.6,53.5,99.7,53.5,99.7,53.5L99.7,53.5L99.7,53.5z"/>
		</g>
	</g>
	<path opacity="0.25" fill="#FFFFFF" d="M13,29.7v25.5C26.2,62.6,43.7,67,63,67c19.3,0,36.8-4.5,50-11.8V29.7H13z"/>
</g>
</svg>
