<?xml version="1.0" encoding="utf-8"?>
<!-- Generator: Adobe Illustrator 24.3.0, SVG Export Plug-In . SVG Version: 6.00 Build 0)  -->
<svg version="1.1" id="Layer_1" xmlns="http://www.w3.org/2000/svg" xmlns:xlink="http://www.w3.org/1999/xlink" x="0px" y="0px"
	 viewBox="0 0 126 126" enable-background="new 0 0 126 126" xml:space="preserve">
<g>
	<g>
		<path fill-rule="evenodd" clip-rule="evenodd" fill="#F0F0F0" d="M13,29.7h43.4v26.7H13V29.7L13,29.7z M69.6,29.7H113v26.7H69.6
			V29.7L69.6,29.7z M113,69.6v26.7H69.6V69.6H113L113,69.6z M56.4,96.3H13V69.6h43.4V96.3L56.4,96.3z M36.7,49.3
			c0,0-0.5-2.7-0.6-4.8c2.1,0.1,4.8,0.6,4.8,0.6c-0.2-0.8-0.2-3.8,0-4.6c0,0-2.7,0.5-4.8,0.6c0.1-2.1,0.6-4.8,0.6-4.8
			c-0.8,0.2-3.8,0.2-4.6,0c0,0,0.5,2.7,0.6,4.8c-2.1-0.1-4.8-0.6-4.8-0.6c0.2,0.8,0.2,3.8,0,4.6c0,0,2.7-0.5,4.8-0.6
			c-0.1,2.1-0.6,4.8-0.6,4.8C32.9,49.1,35.9,49.1,36.7,49.3L36.7,49.3z M93.6,89.7c0,0-0.5-2.7-0.6-4.8c2.1,0.1,4.8,0.6,4.8,0.6
			c-0.2-0.8-0.2-3.8,0-4.6c0,0-2.7,0.5-4.8,0.6c0.1-2.1,0.6-4.8,0.6-4.8c-0.8,0.2-3.8,0.2-4.6,0c0,0,0.5,2.7,0.6,4.8
			c-2.1-0.1-4.8-0.6-4.8-0.6c0.2,0.8,0.2,3.8,0,4.6c0,0,2.7-0.5,4.8-0.6c-0.1,2.1-0.6,4.8-0.6,4.8C89.8,89.4,92.8,89.4,93.6,89.7
			L93.6,89.7z M36.7,89.7c0,0-0.5-2.7-0.6-4.8c2.1,0.1,4.8,0.6,4.8,0.6c-0.2-0.8-0.2-3.8,0-4.6c0,0-2.7,0.5-4.8,0.6
			c0.1-2.1,0.6-4.8,0.6-4.8c-0.8,0.2-3.8,0.2-4.6,0c0,0,0.5,2.7,0.6,4.8c-2.1-0.1-4.8-0.6-4.8-0.6c0.2,0.8,0.2,3.8,0,4.6
			c0,0,2.7-0.5,4.8-0.6c-0.1,2.1-0.6,4.8-0.6,4.8C32.9,89.4,35.9,89.4,36.7,89.7L36.7,89.7z M93.6,49.3c0,0-0.5-2.7-0.6-4.8
			c2.1,0.1,4.8,0.6,4.8,0.6c-0.2-0.8-0.2-3.8,0-4.6c0,0-2.7,0.5-4.8,0.6c0.1-2.1,0.6-4.8,0.6-4.8c-0.8,0.2-3.8,0.2-4.6,0
			c0,0,0.5,2.7,0.6,4.8c-2.1-0.1-4.8-0.6-4.8-0.6c0.2,0.8,0.2,3.8,0,4.6c0,0,2.7-0.5,4.8-0.6c-0.1,2.1-0.6,4.8-0.6,4.8
			C89.8,49.1,92.8,49.1,93.6,49.3L93.6,49.3z"/>
		
			<path fill-rule="evenodd" clip-rule="evenodd" fill="#FF1612" stroke="#F4F4F7" stroke-width="0.1199" stroke-miterlimit="2.4142" d="
			M56.4,96.3V69.6H13V56.4h43.4V29.7h13.2v26.7H113v13.2H69.6v26.7H56.4L56.4,96.3z M36.7,49.3c0,0-0.5-2.7-0.6-4.8
			c2.1,0.1,4.8,0.6,4.8,0.6c-0.2-0.8-0.2-3.8,0-4.6c0,0-2.7,0.5-4.8,0.6c0.1-2.1,0.6-4.8,0.6-4.8c-0.8,0.2-3.8,0.2-4.6,0
			c0,0,0.5,2.7,0.6,4.8c-2.1-0.1-4.8-0.6-4.8-0.6c0.2,0.8,0.2,3.8,0,4.6c0,0,2.7-0.5,4.8-0.6c-0.1,2.1-0.6,4.8-0.6,4.8
			C32.9,49.1,35.9,49.1,36.7,49.3L36.7,49.3z M93.6,89.7c0,0-0.5-2.7-0.6-4.8c2.1,0.1,4.8,0.6,4.8,0.6c-0.2-0.8-0.2-3.8,0-4.6
			c0,0-2.7,0.5-4.8,0.6c0.1-2.1,0.6-4.8,0.6-4.8c-0.8,0.2-3.8,0.2-4.6,0c0,0,0.5,2.7,0.6,4.8c-2.1-0.1-4.8-0.6-4.8-0.6
			c0.2,0.8,0.2,3.8,0,4.6c0,0,2.7-0.5,4.8-0.6c-0.1,2.1-0.6,4.8-0.6,4.8C89.8,89.4,92.8,89.4,93.6,89.7L93.6,89.7z M36.7,89.7
			c0,0-0.5-2.7-0.6-4.8c2.1,0.1,4.8,0.6,4.8,0.6c-0.2-0.8-0.2-3.8,0-4.6c0,0-2.7,0.5-4.8,0.6c0.1-2.1,0.6-4.8,0.6-4.8
			c-0.8,0.2-3.8,0.2-4.6,0c0,0,0.5,2.7,0.6,4.8c-2.1-0.1-4.8-0.6-4.8-0.6c0.2,0.8,0.2,3.8,0,4.6c0,0,2.7-0.5,4.8-0.6
			c-0.1,2.1-0.6,4.8-0.6,4.8C32.9,89.4,35.9,89.4,36.7,89.7L36.7,89.7z M93.6,49.3c0,0-0.5-2.7-0.6-4.8c2.1,0.1,4.8,0.6,4.8,0.6
			c-0.2-0.8-0.2-3.8,0-4.6c0,0-2.7,0.5-4.8,0.6c0.1-2.1,0.6-4.8,0.6-4.8c-0.8,0.2-3.8,0.2-4.6,0c0,0,0.5,2.7,0.6,4.8
			c-2.1-0.1-4.8-0.6-4.8-0.6c0.2,0.8,0.2,3.8,0,4.6c0,0,2.7-0.5,4.8-0.6c-0.1,2.1-0.6,4.8-0.6,4.8C89.8,49.1,92.8,49.1,93.6,49.3
			L93.6,49.3z"/>
	</g>
	<path opacity="0.35" fill="#FFFFFF" d="M13,29.7v25.5C26.2,62.6,43.7,67,63,67c19.3,0,36.8-4.5,50-11.8V29.7H13z"/>
</g>
</svg>
