<?xml version="1.0" encoding="utf-8"?>
<!-- Generator: Adobe Illustrator 24.3.0, SVG Export Plug-In . SVG Version: 6.00 Build 0)  -->
<svg version="1.1" id="Layer_1" xmlns="http://www.w3.org/2000/svg" xmlns:xlink="http://www.w3.org/1999/xlink" x="0px" y="0px"
	 viewBox="0 0 126 126" enable-background="new 0 0 126 126" xml:space="preserve">
<g>
	<g>
		<path fill-rule="evenodd" clip-rule="evenodd" fill="#207BF2" d="M13,96.3h100v-7.4H13V96.3L13,96.3z M113,81.5v-7.4H13v7.4H113
			L113,81.5z M113,66.7v-7.4H50v-7.4h63v-7.4H50v-7.4h63v-7.4H35.2v14.8H50v7.4H35.2v14.8H113L113,66.7z M27.8,29.7H13v14.8h14.8
			V29.7L27.8,29.7z M13,51.9v14.8h14.8V51.9H13L13,51.9z"/>
		<path fill-rule="evenodd" clip-rule="evenodd" fill="#F0F0F0" d="M27.8,29.7h7.4v14.8H50v7.4H35.2v14.8H113v7.4H13v-7.4h14.8V51.9
			H13v-7.4h14.8V29.7L27.8,29.7z M50,37.1h63v7.4H50V37.1L50,37.1z M50,51.9h63v7.4H50V51.9L50,51.9z M13,66.7v7.4V66.7L13,66.7z
			 M13,81.5h100v7.4H13V81.5L13,81.5z"/>
	</g>
	<path opacity="0.35" fill="#FFFFFF" d="M13,29.7v25.5C26.2,62.6,43.7,67,63,67c19.3,0,36.8-4.5,50-11.8V29.7H13z"/>
</g>
</svg>
