<?xml version="1.0" encoding="utf-8"?>
<!-- Generator: Adobe Illustrator 24.3.0, SVG Export Plug-In . SVG Version: 6.00 Build 0)  -->
<svg version="1.1" id="Layer_1" xmlns="http://www.w3.org/2000/svg" xmlns:xlink="http://www.w3.org/1999/xlink" x="0px" y="0px"
	 viewBox="0 0 126 126" enable-background="new 0 0 126 126" xml:space="preserve">
<g>
	<g>
		<polygon fill="#F90805" points="13,29.7 113,29.7 113,96.3 13,96.3 13,29.7 		"/>
		<path fill="#47B71D" d="M103.8,39v48L69.9,67.1c0.7-1.2,1.1-2.6,1.1-4.1c0-1.5-0.4-2.9-1.1-4.1L103.8,39L103.8,39z M22.2,87V39
			L56.1,59C55.4,60.1,55,61.5,55,63c0,1.5,0.4,2.9,1.1,4.1L22.2,87L22.2,87z"/>
		<path fill="#FEDC36" d="M22.2,39L56.1,59c1.4-2.4,4-3.9,6.9-3.9c2.9,0,5.5,1.6,6.9,3.9L103.8,39H22.2L22.2,39z M69.9,67.1
			L103.8,87H22.2l33.9-19.9c1.4,2.4,4,3.9,6.9,3.9C65.9,71,68.5,69.4,69.9,67.1L69.9,67.1z"/>
		<polygon fill="#FEDC36" points="56,60.7 61.4,60.7 63,55.7 64.6,60.7 70,60.7 65.7,63.9 67.3,68.9 63,65.8 58.7,68.9 60.3,63.9 
			56,60.7 		"/>
		<path fill="#FEDC36" d="M31.1,33.4h3.1l1-3l1,3h3.2l-2.5,1.9l1,3l-2.5-1.9l-2.5,1.9l1-3L31.1,33.4L31.1,33.4z M86.7,33.4h3.1l1-3
			l1,3h3.1l-2.5,1.9l1,3l-2.5-1.9l-2.5,1.9l1-3L86.7,33.4L86.7,33.4z M58.9,33.4H62l1-3l1,3h3.2l-2.5,1.9l1,3L63,36.4l-2.5,1.9l1-3
			L58.9,33.4L58.9,33.4z"/>
		<path fill="#FFDE27" d="M31.1,90.8h3.1l1-3l1,3h3.2l-2.5,1.9l1,3l-2.5-1.9l-2.5,1.9l1-3L31.1,90.8L31.1,90.8z M86.7,90.8h3.1l1-3
			l1,3h3.1l-2.5,1.9l1,3l-2.5-1.9l-2.5,1.9l1-3L86.7,90.8L86.7,90.8z M58.9,90.8H62l1-3l1,3h3.2l-2.5,1.9l1,3L63,93.7l-2.5,1.9l1-3
			L58.9,90.8L58.9,90.8z"/>
		<path fill="#F90805" d="M32.5,67.6c0.1-4-0.7-5.9-4.2-7.2C27.7,63.8,29.1,66.2,32.5,67.6L32.5,67.6z"/>
		<path fill="#FEDC36" d="M26.4,56.7c1.4,3-3.8,10.2,4.9,11.9c-1.1-1.5-1.8-3.9-1.5-5.8c1.8,0.7,3.7,2.7,4.5,4.3
			C36.6,58.8,28.5,59.3,26.4,56.7L26.4,56.7z"/>
	</g>
	<path opacity="0.35" fill="#FFFFFF" d="M13,29.7v25.5C26.2,62.6,43.7,67,63,67s36.8-4.5,50-11.8V29.7H13z"/>
</g>
</svg>
