<?xml version="1.0" encoding="utf-8"?>
<!-- Generator: Adobe Illustrator 24.3.0, SVG Export Plug-In . SVG Version: 6.00 Build 0)  -->
<svg version="1.1" id="Layer_1" xmlns="http://www.w3.org/2000/svg" xmlns:xlink="http://www.w3.org/1999/xlink" x="0px" y="0px"
	 viewBox="0 0 126 126" enable-background="new 0 0 126 126" xml:space="preserve">
<g>
	<g>
		<path fill-rule="evenodd" clip-rule="evenodd" fill="#49A9F6" d="M13,96.3h33.3V29.7H13V96.3L13,96.3z M79.7,96.3H113V29.7H79.7
			V96.3L79.7,96.3z"/>
		<polygon fill-rule="evenodd" clip-rule="evenodd" fill="#F0F0F0" points="46.3,96.3 79.7,96.3 79.7,29.7 46.3,29.7 46.3,96.3 		
			"/>
		<g>
			<g>
				<path fill="#2F4D18" d="M65.2,72.5c0-0.1,0.1-0.2,0.2-0.4c0.1-0.1,0.2-0.3,0.2-0.3l0,0c-0.1,0-0.2,0.2-0.2,0.3
					C65.3,72.3,65.2,72.4,65.2,72.5L65.2,72.5L65.2,72.5z"/>
				<path fill="#2F4D18" d="M65.7,72.3c0,0,0.3-0.4,0.4-0.5l0,0C66,71.9,65.8,72.4,65.7,72.3L65.7,72.3L65.7,72.3z"/>
				<path fill="#2F4D18" d="M64.9,72.6c0.1,0.1,0.6,0.3,0.7,0.3l0,0C65.5,72.9,65,72.7,64.9,72.6L64.9,72.6L64.9,72.6z"/>
				<path fill="#2F4D18" d="M65.9,72.3c0,0,0.2,0.2,0.3,0.2l0,0C66.1,72.5,65.9,72.4,65.9,72.3L65.9,72.3L65.9,72.3z"/>
				<path fill="#2F4D18" d="M66.9,72.6c-0.1-0.1-0.2-0.1-0.4-0.2c-0.2,0-0.3-0.1-0.5-0.1v0c0.2,0,0.3,0,0.5,0.1
					C66.7,72.4,66.9,72.5,66.9,72.6L66.9,72.6L66.9,72.6z"/>
				<path fill="#2F4D18" d="M67.4,72.3c-0.1,0-0.3-0.1-0.6-0.1c-0.2,0-0.5,0-0.6,0l0,0c0.1,0,0.3,0,0.6,0
					C67.1,72.2,67.3,72.2,67.4,72.3L67.4,72.3L67.4,72.3z"/>
				<path fill="#2F4D18" d="M68.2,71.2C68.2,71.2,68.2,71.2,68.2,71.2c0,0.1,0,0.2,0,0.2l0,0C68.1,71.3,68.1,71.3,68.2,71.2
					C68.1,71.2,68.1,71.2,68.2,71.2L68.2,71.2L68.2,71.2z"/>
				<path fill="#2F4D18" d="M68.2,71.7C68.2,71.7,68.2,71.7,68.2,71.7c-0.1,0-0.3-0.1-0.3-0.1l0,0C67.9,71.6,68.1,71.6,68.2,71.7
					C68.2,71.6,68.2,71.6,68.2,71.7L68.2,71.7L68.2,71.7z"/>
				<path fill="#2F4D18" d="M69.6,70.9c-0.1,0-0.2,0-0.3,0c-0.1,0-0.2,0-0.3,0l0,0c0,0,0.1,0,0.3,0C69.4,70.9,69.5,70.9,69.6,70.9
					L69.6,70.9L69.6,70.9z"/>
				<path fill="#2F4D18" d="M71.1,68.1c0,0.1,0,0.2,0,0.4c0,0.2,0,0.3,0,0.4l0,0c0-0.1,0-0.2,0-0.4C71.1,68.3,71.1,68.2,71.1,68.1
					L71.1,68.1L71.1,68.1z"/>
				<path fill="#2F4D18" d="M72.7,67.6c0,0-0.2,0-0.3,0c-0.1,0-0.1,0-0.2,0l0,0c0,0,0.1,0,0.2,0C72.5,67.5,72.6,67.5,72.7,67.6
					L72.7,67.6L72.7,67.6z"/>
				<path fill="#2F4D18" d="M72,67.3c0,0,0,0.1,0,0.1c0,0.1,0.1,0.1,0.1,0.1l0,0c0,0-0.1-0.1-0.1-0.1C72,67.4,72,67.3,72,67.3
					L72,67.3L72,67.3z"/>
				<path fill="#2F4D18" d="M72.8,66.6c-0.1,0-0.2,0.1-0.2,0.1l0,0C72.6,66.7,72.8,66.6,72.8,66.6L72.8,66.6L72.8,66.6z"/>
				<path fill="#2F4D18" d="M73.9,64.5c0,0-0.1,0.2-0.3,0.3c-0.1,0.1-0.2,0.2-0.3,0.2l0,0c0.1,0,0.2-0.1,0.3-0.2
					C73.7,64.6,73.8,64.5,73.9,64.5L73.9,64.5L73.9,64.5z"/>
				<path fill="#2F4D18" d="M73.4,65.5C73.4,65.5,73.4,65.6,73.4,65.5c-0.1,0.2-0.2,0.3-0.4,0.3l0,0c0.2,0,0.2-0.2,0.3-0.2
					C73.3,65.5,73.4,65.5,73.4,65.5L73.4,65.5L73.4,65.5z"/>
				<path fill="#2F4D18" d="M73.3,63.2c0,0,0.1,0.2,0.1,0.3c0.1,0.1,0.1,0.2,0.2,0.2l0,0c-0.1,0-0.1-0.2-0.2-0.3
					C73.3,63.4,73.3,63.3,73.3,63.2L73.3,63.2L73.3,63.2z"/>
				<path fill="#2F4D18" d="M74.1,62.8C74.1,62.8,74.1,62.8,74.1,62.8c-0.1,0.2-0.2,0.4-0.4,0.5l0,0C73.9,63.1,74,62.9,74.1,62.8
					C74.1,62.8,74.1,62.8,74.1,62.8L74.1,62.8L74.1,62.8z"/>
				<path fill="#2F4D18" d="M73.2,59c0.1,0,0.2,0.1,0.2,0.2c0.1,0.1,0.1,0.1,0.2,0.2l0,0c0-0.1-0.1-0.1-0.2-0.2
					C73.3,59.1,73.2,59.1,73.2,59L73.2,59L73.2,59z"/>
				<path fill="#2F4D18" d="M73.9,59C73.9,59,73.9,59,73.9,59c-0.1,0.1-0.2,0.2-0.3,0.3l0,0C73.7,59.2,73.7,59.1,73.9,59
					C73.8,59,73.8,59,73.9,59L73.9,59L73.9,59z"/>
				<path fill="#2F4D18" d="M73.7,58.8c0,0.1-0.1,0.2-0.1,0.2l0,0C73.5,58.9,73.6,58.8,73.7,58.8L73.7,58.8L73.7,58.8z"/>
				<path fill="#2F4D18" d="M73,58c0,0,0.3,0.2,0.3,0.2l0,0C73.3,58.2,73,58,73,58L73,58L73,58z"/>
				<path fill="#2F4D18" d="M73.3,56.8c0,0.1,0,0.3-0.1,0.5c0,0.1,0,0.2-0.1,0.3l0,0c0,0,0.1-0.1,0.1-0.3
					C73.2,57.2,73.3,56.9,73.3,56.8L73.3,56.8L73.3,56.8z"/>
				<path fill="#2F4D18" d="M72.1,56.2c0,0.1,0.1,0.2,0.3,0.2c0.1,0.1,0.3,0.2,0.4,0.2l0,0c-0.1-0.1-0.3-0.1-0.4-0.2
					C72.3,56.4,72.2,56.3,72.1,56.2L72.1,56.2L72.1,56.2z"/>
				<path fill="#2F4D18" d="M72.8,55.6c0,0.1,0,0.2,0,0.4s-0.1,0.3-0.1,0.3l0,0c0-0.1,0.1-0.2,0.1-0.3
					C72.8,55.8,72.8,55.7,72.8,55.6L72.8,55.6L72.8,55.6z"/>
				<path fill="#2F4D18" d="M72.4,55.1c0,0,0,0.1,0,0.1c0.1,0.2,0.1,0.4,0.1,0.7h0c0-0.2,0-0.4-0.1-0.7
					C72.3,55.2,72.3,55.2,72.4,55.1L72.4,55.1L72.4,55.1z"/>
				<path fill="#2F4D18" d="M67,72c-0.1,0-0.2-0.1-0.2-0.1l0,0C66.9,71.9,67,71.9,67,72L67,72L67,72z"/>
				<path fill="#2F4D18" d="M71.7,67.7c0,0,0,0.1,0.1,0.2c0,0.1,0.1,0.1,0.1,0.2l0,0c0,0,0-0.1-0.1-0.2
					C71.7,67.8,71.7,67.8,71.7,67.7L71.7,67.7L71.7,67.7z"/>
				<path fill="#2F4D18" d="M72.3,68c-0.1,0-0.1,0-0.1,0c-0.1,0-0.1,0-0.2,0l0,0c0.1,0,0.2,0,0.2-0.1C72.2,68,72.3,68,72.3,68
					L72.3,68L72.3,68z"/>
				<path fill="#2F4D18" d="M74,63.6c-0.1,0-0.1,0-0.2,0.1c-0.1,0-0.1,0-0.2,0.1l0,0c0.1,0,0.1-0.1,0.2-0.1
					C73.9,63.6,73.9,63.6,74,63.6L74,63.6L74,63.6z"/>
				<path fill="#2F4D18" d="M73.5,62.8c0,0.1,0.2,0.1,0.2,0.1l0,0C73.7,63,73.5,62.9,73.5,62.8L73.5,62.8L73.5,62.8z"/>
				<path fill="#2F4D18" d="M73.4,57.5c0,0.1-0.1,0.1-0.1,0.1c0,0-0.1,0.1-0.1,0.1l0,0c0-0.1,0.1-0.1,0.1-0.1
					C73.3,57.6,73.3,57.6,73.4,57.5L73.4,57.5L73.4,57.5z"/>
				<path fill="#2F4D18" d="M72.6,56.8c0.1,0,0.3,0.1,0.3,0.1l0,0C72.9,57,72.6,56.9,72.6,56.8L72.6,56.8L72.6,56.8z"/>
			</g>
			<path fill="#406325" stroke="#2F4D18" stroke-width="1.989100e-02" stroke-miterlimit="2.4142" d="M62.3,73.5
				c0.3-0.4,1.1-0.6,1.5-0.8c0.3-0.1,0.6-0.2,0.8-0.2c0.1,0,0.3-0.1,0.5-0.1c0.3,0,0.5-0.1,0.7-0.2c0.1-0.1,0.3-0.1,0.4-0.2
				c0.1-0.1,0.3-0.2,0.5-0.3c0.1-0.1,0.4-0.1,0.7-0.2c0.4-0.1,0.8-0.3,0.9-0.3c0.1,0,0.2-0.2,0.4-0.3c0.3-0.2,0.6-0.4,0.8-0.5
				c0.1,0,0.4-0.3,0.6-0.5c0.4-0.4,1-1,1.2-1.3c0,0,0,0,0.1-0.1c0.4-0.4,0.8-0.9,1.3-2.4c0.2-0.5,0.4-0.8,0.5-1
				c0.3-0.7,0.4-1,0.5-1.7c0.2-1,0-2.9,0-3.5c0,0,0-0.1,0-0.1c0-0.2-0.2-1-0.4-1.7c-0.2-0.6-0.3-1.2-0.5-1.5C72.4,55.9,72,55,72,55
				l0.1,0c0,0,0.5,1,0.8,1.7c0.1,0.3,0.3,0.9,0.5,1.5c0.2,0.8,0.4,1.6,0.4,1.8c0,0,0,0.1,0,0.1c0,0.6,0.2,2.5,0,3.5
				c-0.1,0.8-0.2,1.1-0.5,1.8c-0.1,0.3-0.3,0.6-0.4,1c-0.6,1.5-1,2-1.4,2.5c0,0,0,0-0.1,0.1c-0.2,0.3-0.8,0.8-1.2,1.3
				c-0.3,0.3-0.5,0.5-0.7,0.6c-0.2,0.1-0.5,0.3-0.8,0.5c-0.2,0.1-0.3,0.2-0.4,0.3c-0.1,0-0.5,0.2-0.9,0.3c-0.3,0.1-0.6,0.2-0.7,0.3
				c-0.2,0.1-0.3,0.2-0.5,0.2c-0.1,0.1-0.3,0.2-0.4,0.2c-0.2,0.1-0.5,0.1-0.8,0.2c-0.2,0-0.4,0.1-0.5,0.1c-0.2,0.1-0.5,0.1-0.8,0.2
				c-0.4,0.1-1.1,0.4-1.4,0.8L62.3,73.5L62.3,73.5z"/>
			<g>
				
					<path fill-rule="evenodd" clip-rule="evenodd" fill="#406325" stroke="#2F4D18" stroke-width="1.752600e-02" stroke-miterlimit="2.4142" d="
					M70.9,52.7c0.1,0.4,0.5,2.2,1.3,2.7C72.6,55.1,72.6,54,70.9,52.7L70.9,52.7z"/>
				
					<path fill-rule="evenodd" clip-rule="evenodd" fill="#67923D" stroke="#2F4D18" stroke-width="1.752600e-02" stroke-miterlimit="2.4142" d="
					M70.9,52.7c0.1,0.4,0.5,2.2,1.3,2.7C72.3,55.1,70.9,52.7,70.9,52.7L70.9,52.7z"/>
			</g>
			<g>
				
					<path fill-rule="evenodd" clip-rule="evenodd" fill="#406325" stroke="#2F4D18" stroke-width="1.458300e-02" stroke-miterlimit="2.4142" d="
					M72.7,53.2c-0.1,0.3-0.3,1.8,0,2.5C73.1,55.6,73.5,54.7,72.7,53.2L72.7,53.2z"/>
				
					<path fill-rule="evenodd" clip-rule="evenodd" fill="#67923D" stroke="#2F4D18" stroke-width="1.458300e-02" stroke-miterlimit="2.4142" d="
					M72.7,53.2c-0.1,0.3-0.3,1.8,0,2.5C72.9,55.5,72.7,53.2,72.7,53.2L72.7,53.2z"/>
			</g>
			<g>
				
					<path fill-rule="evenodd" clip-rule="evenodd" fill="#406325" stroke="#2F4D18" stroke-width="1.548900e-02" stroke-miterlimit="2.4142" d="
					M73.3,54.3c-0.1,0.3-0.5,1.9-0.1,2.7C73.6,56.9,74.1,56,73.3,54.3L73.3,54.3z"/>
				
					<path fill-rule="evenodd" clip-rule="evenodd" fill="#67923D" stroke="#2F4D18" stroke-width="1.548900e-02" stroke-miterlimit="2.4142" d="
					M73.3,54.3c-0.1,0.3-0.5,1.9-0.1,2.7C73.4,56.7,73.3,54.3,73.3,54.3L73.3,54.3z"/>
			</g>
			<g>
				
					<path fill-rule="evenodd" clip-rule="evenodd" fill="#406325" stroke="#2F4D18" stroke-width="1.876300e-02" stroke-miterlimit="2.4142" d="
					M74.8,55.8c-0.3,0.3-1.3,2-1.2,3C74.1,58.9,75,58.1,74.8,55.8L74.8,55.8z"/>
				
					<path fill-rule="evenodd" clip-rule="evenodd" fill="#67923D" stroke="#2F4D18" stroke-width="1.876300e-02" stroke-miterlimit="2.4142" d="
					M74.8,55.8c-0.3,0.3-1.3,2-1.2,3C73.9,58.7,74.8,55.8,74.8,55.8L74.8,55.8z"/>
			</g>
			<g>
				
					<path fill-rule="evenodd" clip-rule="evenodd" fill="#406325" stroke="#2F4D18" stroke-width="1.511800e-02" stroke-miterlimit="2.4142" d="
					M75.4,57.8c-0.3,0.2-1.5,1.2-1.7,1.9C74,59.9,74.9,59.5,75.4,57.8L75.4,57.8z"/>
				
					<path fill-rule="evenodd" clip-rule="evenodd" fill="#67923D" stroke="#2F4D18" stroke-width="1.511800e-02" stroke-miterlimit="2.4142" d="
					M75.4,57.8c-0.3,0.2-1.5,1.2-1.7,1.9C73.9,59.7,75.4,57.8,75.4,57.8L75.4,57.8z"/>
			</g>
			<g>
				
					<path fill-rule="evenodd" clip-rule="evenodd" fill="#406325" stroke="#2F4D18" stroke-width="1.887800e-02" stroke-miterlimit="2.4142" d="
					M74.6,59.2c-0.2,0.4-1.1,2.2-0.8,3.1C74.2,62.3,75,61.4,74.6,59.2L74.6,59.2z"/>
				
					<path fill-rule="evenodd" clip-rule="evenodd" fill="#67923D" stroke="#2F4D18" stroke-width="1.887800e-02" stroke-miterlimit="2.4142" d="
					M74.6,59.2c-0.2,0.4-1.1,2.2-0.8,3.1C74,62.1,74.6,59.2,74.6,59.2L74.6,59.2z"/>
			</g>
			<g>
				
					<path fill-rule="evenodd" clip-rule="evenodd" fill="#406325" stroke="#2F4D18" stroke-width="1.575400e-02" stroke-miterlimit="2.4142" d="
					M75.4,60.5C75.1,60.8,74,62,74,62.8C74.3,63,75.2,62.4,75.4,60.5L75.4,60.5z"/>
				
					<path fill-rule="evenodd" clip-rule="evenodd" fill="#67923D" stroke="#2F4D18" stroke-width="1.575400e-02" stroke-miterlimit="2.4142" d="
					M75.4,60.5C75.1,60.8,74,62,74,62.8C74.2,62.7,75.4,60.5,75.4,60.5L75.4,60.5z"/>
			</g>
			<g>
				
					<path fill-rule="evenodd" clip-rule="evenodd" fill="#406325" stroke="#2F4D18" stroke-width="1.627800e-02" stroke-miterlimit="2.4142" d="
					M76,62.7c-0.3,0.1-1.8,1-2.2,1.8C74.1,64.8,75.1,64.5,76,62.7L76,62.7z"/>
				
					<path fill-rule="evenodd" clip-rule="evenodd" fill="#67923D" stroke="#2F4D18" stroke-width="1.627800e-02" stroke-miterlimit="2.4142" d="
					M76,62.7c-0.3,0.1-1.8,1-2.2,1.8C74.1,64.5,76,62.7,76,62.7L76,62.7z"/>
			</g>
			<g>
				
					<path fill-rule="evenodd" clip-rule="evenodd" fill="#406325" stroke="#2F4D18" stroke-width="1.546700e-02" stroke-miterlimit="2.4142" d="
					M75.9,64.7c-0.4,0-2,0.2-2.5,0.8C73.5,65.8,74.5,66,75.9,64.7L75.9,64.7z"/>
				
					<path fill-rule="evenodd" clip-rule="evenodd" fill="#67923D" stroke="#2F4D18" stroke-width="1.546700e-02" stroke-miterlimit="2.4142" d="
					M75.9,64.7c-0.4,0-2,0.2-2.5,0.8C73.6,65.6,75.9,64.7,75.9,64.7L75.9,64.7z"/>
			</g>
			<g>
				
					<path fill-rule="evenodd" clip-rule="evenodd" fill="#406325" stroke="#2F4D18" stroke-width="1.653000e-02" stroke-miterlimit="2.4142" d="
					M74.8,64.7c-0.3,0.2-1.8,1.1-2.1,1.9C73.1,66.9,74.1,66.6,74.8,64.7L74.8,64.7z"/>
				
					<path fill-rule="evenodd" clip-rule="evenodd" fill="#67923D" stroke="#2F4D18" stroke-width="1.653000e-02" stroke-miterlimit="2.4142" d="
					M74.8,64.7c-0.3,0.2-1.8,1.1-2.1,1.9C73,66.6,74.8,64.7,74.8,64.7L74.8,64.7z"/>
			</g>
			<g>
				
					<path fill-rule="evenodd" clip-rule="evenodd" fill="#406325" stroke="#2F4D18" stroke-width="1.804400e-02" stroke-miterlimit="2.4142" d="
					M75.5,66.8c-0.4,0-2.3,0-3,0.7C72.7,67.9,73.8,68.2,75.5,66.8L75.5,66.8z"/>
				
					<path fill-rule="evenodd" clip-rule="evenodd" fill="#67923D" stroke="#2F4D18" stroke-width="1.804400e-02" stroke-miterlimit="2.4142" d="
					M75.5,66.8c-0.4,0-2.3,0-3,0.7C72.8,67.7,75.5,66.8,75.5,66.8L75.5,66.8z"/>
			</g>
			<g>
				<path fill="#2F4D18" d="M60.8,72.5c0-0.1-0.1-0.2-0.2-0.4c-0.1-0.1-0.2-0.3-0.2-0.3l0,0c0.1,0,0.2,0.2,0.2,0.3
					C60.7,72.3,60.8,72.4,60.8,72.5L60.8,72.5L60.8,72.5z"/>
				<path fill="#2F4D18" d="M60.3,72.3c0,0-0.3-0.4-0.4-0.5l0,0C60,71.9,60.2,72.4,60.3,72.3L60.3,72.3L60.3,72.3z"/>
				<path fill="#2F4D18" d="M61.1,72.6c-0.1,0.1-0.6,0.3-0.7,0.3l0,0C60.5,72.9,61,72.7,61.1,72.6L61.1,72.6L61.1,72.6z"/>
				<path fill="#2F4D18" d="M60.1,72.3c0,0-0.2,0.2-0.3,0.2l0,0C59.9,72.5,60.1,72.4,60.1,72.3L60.1,72.3L60.1,72.3z"/>
				<path fill="#2F4D18" d="M59.1,72.6c0.1-0.1,0.2-0.1,0.4-0.2c0.2,0,0.3-0.1,0.5-0.1l0,0c-0.2,0-0.3,0-0.5,0.1
					C59.3,72.4,59.1,72.5,59.1,72.6L59.1,72.6L59.1,72.6z"/>
				<path fill="#2F4D18" d="M58.6,72.3c0.1,0,0.3-0.1,0.6-0.1c0.2,0,0.5,0,0.6,0l0,0c-0.1,0-0.3,0-0.6,0
					C58.9,72.2,58.7,72.2,58.6,72.3L58.6,72.3L58.6,72.3z"/>
				<path fill="#2F4D18" d="M57.8,71.2C57.8,71.2,57.8,71.2,57.8,71.2c0,0.1,0,0.2,0,0.2l0,0C57.9,71.3,57.9,71.3,57.8,71.2
					C57.9,71.2,57.9,71.2,57.8,71.2L57.8,71.2L57.8,71.2z"/>
				<path fill="#2F4D18" d="M57.8,71.7C57.8,71.7,57.8,71.7,57.8,71.7c0.1,0,0.3-0.1,0.3-0.1l0,0C58.1,71.6,57.9,71.6,57.8,71.7
					C57.8,71.6,57.8,71.6,57.8,71.7L57.8,71.7L57.8,71.7z"/>
				<path fill="#2F4D18" d="M56.4,70.9c0.1,0,0.2,0,0.3,0c0.1,0,0.2,0,0.3,0l0,0c0,0-0.1,0-0.3,0C56.6,70.9,56.5,70.9,56.4,70.9
					L56.4,70.9L56.4,70.9z"/>
				<path fill="#2F4D18" d="M54.9,68.1c0,0.1,0,0.2,0,0.4c0,0.2,0,0.3,0,0.4l0,0c0-0.1,0-0.2,0-0.4C54.9,68.3,54.9,68.2,54.9,68.1
					L54.9,68.1L54.9,68.1z"/>
				<path fill="#2F4D18" d="M53.3,67.6c0,0,0.2,0,0.3,0c0.1,0,0.1,0,0.2,0l0,0c0,0-0.1,0-0.2,0C53.5,67.5,53.4,67.5,53.3,67.6
					L53.3,67.6L53.3,67.6z"/>
				<path fill="#2F4D18" d="M54,67.3c0,0,0,0.1,0,0.1c0,0.1-0.1,0.1-0.1,0.1l0,0c0,0,0-0.1,0.1-0.1C54,67.4,54,67.3,54,67.3L54,67.3
					L54,67.3z"/>
				<path fill="#2F4D18" d="M53.2,66.6c0.1,0,0.2,0.1,0.2,0.1l0,0C53.4,66.7,53.2,66.6,53.2,66.6L53.2,66.6L53.2,66.6z"/>
				<path fill="#2F4D18" d="M52.1,64.5c0,0,0.1,0.2,0.3,0.3c0.1,0.1,0.2,0.2,0.3,0.2l0,0c-0.1,0-0.2-0.1-0.3-0.2
					C52.3,64.6,52.2,64.5,52.1,64.5L52.1,64.5L52.1,64.5z"/>
				<path fill="#2F4D18" d="M52.6,65.5C52.6,65.5,52.6,65.6,52.6,65.5c0.2,0.2,0.2,0.3,0.4,0.3l0,0c-0.2,0-0.2-0.2-0.3-0.2
					C52.7,65.5,52.6,65.5,52.6,65.5L52.6,65.5L52.6,65.5z"/>
				<path fill="#2F4D18" d="M52.7,63.2c0,0-0.1,0.2-0.1,0.3c-0.1,0.1-0.1,0.2-0.2,0.2l0,0c0.1,0,0.1-0.2,0.2-0.3
					C52.7,63.4,52.7,63.3,52.7,63.2L52.7,63.2L52.7,63.2z"/>
				<path fill="#2F4D18" d="M51.9,62.8C51.9,62.8,51.9,62.8,51.9,62.8c0.1,0.2,0.2,0.4,0.4,0.5l0,0C52.1,63.1,52,62.9,51.9,62.8
					C51.9,62.8,51.9,62.8,51.9,62.8L51.9,62.8L51.9,62.8z"/>
				<path fill="#2F4D18" d="M52.8,59c-0.1,0-0.2,0.1-0.2,0.2c-0.1,0.1-0.1,0.1-0.2,0.2l0,0c0-0.1,0.1-0.1,0.2-0.2
					C52.7,59.1,52.8,59.1,52.8,59L52.8,59L52.8,59z"/>
				<path fill="#2F4D18" d="M52.1,59C52.1,59,52.1,59,52.1,59c0.1,0.1,0.2,0.2,0.2,0.3l0,0C52.3,59.2,52.3,59.1,52.1,59
					C52.2,59,52.2,59,52.1,59L52.1,59L52.1,59z"/>
				<path fill="#2F4D18" d="M52.3,58.8c0,0.1,0.1,0.2,0.1,0.2l0,0C52.5,58.9,52.4,58.8,52.3,58.8L52.3,58.8L52.3,58.8z"/>
				<path fill="#2F4D18" d="M53,58c0,0-0.3,0.2-0.3,0.2l0,0C52.7,58.2,53,58,53,58L53,58L53,58z"/>
				<path fill="#2F4D18" d="M52.7,56.8c0,0.1,0,0.3,0.1,0.5c0,0.1,0,0.2,0.1,0.3l0,0c0,0-0.1-0.1-0.1-0.3
					C52.8,57.2,52.7,56.9,52.7,56.8L52.7,56.8L52.7,56.8z"/>
				<path fill="#2F4D18" d="M53.9,56.2c0,0.1-0.1,0.2-0.3,0.2c-0.1,0.1-0.3,0.2-0.4,0.2l0,0c0.1-0.1,0.3-0.1,0.4-0.2
					C53.7,56.4,53.8,56.3,53.9,56.2L53.9,56.2L53.9,56.2z"/>
				<path fill="#2F4D18" d="M53.2,55.6c0,0.1,0,0.2,0,0.4c0,0.1,0.1,0.3,0.1,0.3l0,0c0-0.1-0.1-0.2-0.1-0.3
					C53.2,55.8,53.2,55.7,53.2,55.6L53.2,55.6L53.2,55.6z"/>
				<path fill="#2F4D18" d="M53.7,55.1c0,0,0,0.1,0,0.1c-0.1,0.2-0.1,0.4-0.1,0.7h0c0-0.2,0-0.4,0.1-0.7
					C53.7,55.2,53.7,55.2,53.7,55.1L53.7,55.1L53.7,55.1z"/>
				<path fill="#2F4D18" d="M59,72c0.1,0,0.2-0.1,0.2-0.1l0,0C59.1,71.9,59,71.9,59,72L59,72L59,72z"/>
				<path fill="#2F4D18" d="M54.3,67.7c0,0-0.1,0.1-0.1,0.2c0,0.1-0.1,0.1-0.1,0.2l0,0c0,0,0.1-0.1,0.1-0.2
					C54.3,67.8,54.3,67.8,54.3,67.7L54.3,67.7L54.3,67.7z"/>
				<path fill="#2F4D18" d="M53.7,68c0.1,0,0.1,0,0.1,0c0.1,0,0.2,0,0.2,0l0,0c-0.1,0-0.2,0-0.2-0.1C53.8,68,53.7,68,53.7,68
					L53.7,68L53.7,68z"/>
				<path fill="#2F4D18" d="M52,63.6c0.1,0,0.1,0,0.2,0.1c0.1,0,0.1,0,0.2,0.1l0,0c-0.1,0-0.1-0.1-0.2-0.1
					C52.1,63.6,52.1,63.6,52,63.6L52,63.6L52,63.6z"/>
				<path fill="#2F4D18" d="M52.5,62.8c0,0.1-0.2,0.1-0.2,0.1l0,0C52.3,63,52.5,62.9,52.5,62.8L52.5,62.8L52.5,62.8z"/>
				<path fill="#2F4D18" d="M52.6,57.5c0,0.1,0.1,0.1,0.1,0.1c0,0,0.1,0.1,0.1,0.1l0,0c0-0.1-0.1-0.1-0.1-0.1
					C52.7,57.6,52.7,57.6,52.6,57.5L52.6,57.5L52.6,57.5z"/>
				<path fill="#2F4D18" d="M53.4,56.8c-0.1,0-0.3,0.1-0.3,0.1l0,0C53.1,57,53.4,56.9,53.4,56.8L53.4,56.8L53.4,56.8z"/>
			</g>
			<g>
				
					<path fill-rule="evenodd" clip-rule="evenodd" fill="#406325" stroke="#2F4D18" stroke-width="1.804400e-02" stroke-miterlimit="2.4142" d="
					M73.5,68c-0.4,0.1-2.2,0.7-2.7,1.4C71,69.8,72.2,69.8,73.5,68L73.5,68z"/>
				
					<path fill-rule="evenodd" clip-rule="evenodd" fill="#67923D" stroke="#2F4D18" stroke-width="1.804400e-02" stroke-miterlimit="2.4142" d="
					M73.5,68c-0.4,0.1-2.2,0.7-2.7,1.4C71,69.6,73.5,68,73.5,68L73.5,68z"/>
			</g>
			<path fill="#406325" stroke="#2F4D18" stroke-width="1.989100e-02" stroke-miterlimit="2.4142" d="M63.7,73.5
				c-0.3-0.4-1.1-0.6-1.5-0.8c-0.3-0.1-0.6-0.2-0.8-0.2c-0.1,0-0.3-0.1-0.5-0.1c-0.3,0-0.5-0.1-0.7-0.2c-0.1-0.1-0.3-0.1-0.4-0.2
				c-0.1-0.1-0.3-0.2-0.5-0.3c-0.1-0.1-0.4-0.1-0.7-0.2c-0.4-0.1-0.8-0.3-0.9-0.3c-0.1,0-0.2-0.2-0.4-0.3c-0.3-0.2-0.6-0.4-0.8-0.5
				c-0.1,0-0.4-0.3-0.6-0.5c-0.4-0.4-1-1-1.2-1.3c0,0,0,0-0.1-0.1c-0.4-0.4-0.8-0.9-1.3-2.4c-0.2-0.5-0.4-0.8-0.5-1
				c-0.3-0.7-0.4-1-0.5-1.7c-0.2-1,0-2.9,0-3.5c0,0,0-0.1,0-0.1c0-0.2,0.2-1,0.4-1.7c0.2-0.6,0.3-1.2,0.5-1.5C53.6,55.9,54,55,54,55
				l-0.1,0c0,0-0.5,1-0.8,1.7c-0.1,0.3-0.3,0.9-0.5,1.5c-0.2,0.8-0.4,1.6-0.4,1.8c0,0,0,0.1,0,0.1c0,0.6-0.2,2.5,0,3.5
				c0.1,0.8,0.2,1.1,0.5,1.8c0.1,0.3,0.3,0.6,0.4,1c0.6,1.5,1,2,1.4,2.5c0,0,0,0,0.1,0.1c0.2,0.3,0.8,0.8,1.2,1.3
				c0.3,0.3,0.5,0.5,0.7,0.6c0.2,0.1,0.5,0.3,0.8,0.5c0.2,0.1,0.3,0.2,0.4,0.3c0.1,0,0.5,0.2,0.9,0.3c0.3,0.1,0.6,0.2,0.7,0.3
				c0.2,0.1,0.3,0.2,0.5,0.2c0.1,0.1,0.3,0.2,0.4,0.2c0.2,0.1,0.5,0.1,0.7,0.2c0.2,0,0.4,0.1,0.5,0.1c0.2,0.1,0.5,0.1,0.8,0.2
				c0.4,0.1,1.1,0.4,1.4,0.8L63.7,73.5L63.7,73.5z"/>
			<g>
				
					<path fill-rule="evenodd" clip-rule="evenodd" fill="#406325" stroke="#2F4D18" stroke-width="2.163300e-02" stroke-miterlimit="2.4142" d="
					M73,70c-0.5,0-2.8,0-3.6,0.8C69.6,71.3,71,71.6,73,70L73,70z"/>
				
					<path fill-rule="evenodd" clip-rule="evenodd" fill="#67923D" stroke="#2F4D18" stroke-width="2.163300e-02" stroke-miterlimit="2.4142" d="
					M73,70c-0.5,0-2.8,0-3.6,0.8C69.8,71,73,70,73,70L73,70z"/>
			</g>
			<g>
				
					<path fill-rule="evenodd" clip-rule="evenodd" fill="#406325" stroke="#2F4D18" stroke-width="1.757600e-02" stroke-miterlimit="2.4142" d="
					M69.6,73.8c-0.3-0.3-1.8-1.3-2.7-1.3C66.7,72.9,67.5,73.8,69.6,73.8L69.6,73.8z"/>
				
					<path fill-rule="evenodd" clip-rule="evenodd" fill="#67923D" stroke="#2F4D18" stroke-width="1.757600e-02" stroke-miterlimit="2.4142" d="
					M69.6,73.8c-0.3-0.3-1.8-1.3-2.7-1.3C67,72.8,69.6,73.8,69.6,73.8L69.6,73.8z"/>
			</g>
			<g>
				
					<path fill-rule="evenodd" clip-rule="evenodd" fill="#406325" stroke="#2F4D18" stroke-width="1.757600e-02" stroke-miterlimit="2.4142" d="
					M68.2,74.1c-0.3-0.3-1.8-1.4-2.7-1.4C65.3,73.2,66.1,74.1,68.2,74.1L68.2,74.1z"/>
				
					<path fill-rule="evenodd" clip-rule="evenodd" fill="#67923D" stroke="#2F4D18" stroke-width="1.757600e-02" stroke-miterlimit="2.4142" d="
					M68.2,74.1c-0.3-0.3-1.8-1.4-2.7-1.4C65.6,73,68.2,74.1,68.2,74.1L68.2,74.1z"/>
			</g>
			<g>
				
					<path fill-rule="evenodd" clip-rule="evenodd" fill="#67923D" stroke="#2F4D18" stroke-width="1.561600e-02" stroke-miterlimit="2.4142" d="
					M71.3,56c0.3,0.2,1.6,1.2,1.8,2C72.7,58.2,71.8,57.8,71.3,56L71.3,56z"/>
				
					<path fill-rule="evenodd" clip-rule="evenodd" fill="#406325" stroke="#2F4D18" stroke-width="1.561600e-02" stroke-miterlimit="2.4142" d="
					M71.3,56c0.3,0.2,1.6,1.2,1.8,2C72.8,58,71.3,56,71.3,56L71.3,56z"/>
			</g>
			<g>
				
					<path fill-rule="evenodd" clip-rule="evenodd" fill="#67923D" stroke="#2F4D18" stroke-width="1.734000e-02" stroke-miterlimit="2.4142" d="
					M70.9,57.2c0.4,0.1,2,1,2.3,1.8C72.9,59.4,71.8,59.1,70.9,57.2L70.9,57.2z"/>
				
					<path fill-rule="evenodd" clip-rule="evenodd" fill="#406325" stroke="#2F4D18" stroke-width="1.734000e-02" stroke-miterlimit="2.4142" d="
					M70.9,57.2c0.4,0.1,2,1,2.3,1.8C72.9,59.1,70.9,57.2,70.9,57.2L70.9,57.2z"/>
			</g>
			<g>
				
					<path fill-rule="evenodd" clip-rule="evenodd" fill="#67923D" stroke="#2F4D18" stroke-width="1.353800e-02" stroke-miterlimit="2.4142" d="
					M71.6,58.9c0.3,0.1,1.7,0.4,2.1,1C73.5,60.2,72.6,60.2,71.6,58.9L71.6,58.9z"/>
				
					<path fill-rule="evenodd" clip-rule="evenodd" fill="#406325" stroke="#2F4D18" stroke-width="1.353800e-02" stroke-miterlimit="2.4142" d="
					M71.6,58.9c0.3,0.1,1.7,0.4,2.1,1C73.4,60,71.6,58.9,71.6,58.9L71.6,58.9z"/>
			</g>
			<g>
				
					<path fill-rule="evenodd" clip-rule="evenodd" fill="#67923D" stroke="#2F4D18" stroke-width="1.890300e-02" stroke-miterlimit="2.4142" d="
					M72.7,59.2c0.3,0.4,1.2,2.1,1.1,3.1C73.3,62.3,72.4,61.4,72.7,59.2L72.7,59.2z"/>
				
					<path fill-rule="evenodd" clip-rule="evenodd" fill="#406325" stroke="#2F4D18" stroke-width="1.890300e-02" stroke-miterlimit="2.4142" d="
					M72.7,59.2c0.3,0.4,1.2,2.1,1.1,3.1C73.5,62.1,72.7,59.2,72.7,59.2L72.7,59.2z"/>
			</g>
			<g>
				
					<path fill-rule="evenodd" clip-rule="evenodd" fill="#67923D" stroke="#2F4D18" stroke-width="1.890300e-02" stroke-miterlimit="2.4142" d="
					M72.1,60.3c0.3,0.3,1.3,2,1.2,3C72.9,63.4,71.9,62.5,72.1,60.3L72.1,60.3z"/>
				
					<path fill-rule="evenodd" clip-rule="evenodd" fill="#406325" stroke="#2F4D18" stroke-width="1.890300e-02" stroke-miterlimit="2.4142" d="
					M72.1,60.3c0.3,0.3,1.3,2,1.2,3C73,63.1,72.1,60.3,72.1,60.3L72.1,60.3z"/>
			</g>
			<g>
				
					<path fill-rule="evenodd" clip-rule="evenodd" fill="#67923D" stroke="#2F4D18" stroke-width="1.434000e-02" stroke-miterlimit="2.4142" d="
					M72.3,62.7c0.2,0.3,1,1.5,0.9,2.3C72.9,65,72.2,64.4,72.3,62.7L72.3,62.7z"/>
				
					<path fill-rule="evenodd" clip-rule="evenodd" fill="#406325" stroke="#2F4D18" stroke-width="1.434000e-02" stroke-miterlimit="2.4142" d="
					M72.3,62.7c0.2,0.3,1,1.5,0.9,2.3C73,64.8,72.3,62.7,72.3,62.7L72.3,62.7z"/>
			</g>
			<g>
				
					<path fill-rule="evenodd" clip-rule="evenodd" fill="#67923D" stroke="#2F4D18" stroke-width="1.684300e-02" stroke-miterlimit="2.4142" d="
					M73,63.4c0.1,0.4,0.2,2.1-0.3,2.9C72.3,66.2,72,65.1,73,63.4L73,63.4z"/>
				
					<path fill-rule="evenodd" clip-rule="evenodd" fill="#406325" stroke="#2F4D18" stroke-width="1.684300e-02" stroke-miterlimit="2.4142" d="
					M73,63.4c0.1,0.4,0.2,2.1-0.3,2.9C72.6,66.1,73,63.4,73,63.4L73,63.4z"/>
			</g>
			<g>
				
					<path fill-rule="evenodd" clip-rule="evenodd" fill="#67923D" stroke="#2F4D18" stroke-width="1.910000e-02" stroke-miterlimit="2.4142" d="
					M71.9,64.1c0.1,0.4,0.6,2.4,0.1,3.3C71.5,67.3,71,66.2,71.9,64.1L71.9,64.1z"/>
				
					<path fill-rule="evenodd" clip-rule="evenodd" fill="#406325" stroke="#2F4D18" stroke-width="1.910000e-02" stroke-miterlimit="2.4142" d="
					M71.9,64.1c0.1,0.4,0.6,2.4,0.1,3.3C71.8,67.1,71.9,64.1,71.9,64.1L71.9,64.1z"/>
			</g>
			<g>
				
					<path fill-rule="evenodd" clip-rule="evenodd" fill="#67923D" stroke="#2F4D18" stroke-width="1.495700e-02" stroke-miterlimit="2.4142" d="
					M71.1,65.6c0.1,0.3,0.4,1.9,0.1,2.6C70.8,68.1,70.4,67.3,71.1,65.6L71.1,65.6z"/>
				
					<path fill-rule="evenodd" clip-rule="evenodd" fill="#406325" stroke="#2F4D18" stroke-width="1.495700e-02" stroke-miterlimit="2.4142" d="
					M71.1,65.6c0.1,0.3,0.4,1.9,0.1,2.6C71,68,71.1,65.6,71.1,65.6L71.1,65.6z"/>
			</g>
			<g>
				
					<path fill-rule="evenodd" clip-rule="evenodd" fill="#406325" stroke="#2F4D18" stroke-width="1.752600e-02" stroke-miterlimit="2.4142" d="
					M55.1,52.7c-0.1,0.4-0.5,2.2-1.3,2.7C53.4,55.1,53.4,54,55.1,52.7L55.1,52.7z"/>
				
					<path fill-rule="evenodd" clip-rule="evenodd" fill="#67923D" stroke="#2F4D18" stroke-width="1.752600e-02" stroke-miterlimit="2.4142" d="
					M55.1,52.7c-0.1,0.4-0.5,2.2-1.3,2.7C53.7,55.1,55.1,52.7,55.1,52.7L55.1,52.7z"/>
			</g>
			<g>
				
					<path fill-rule="evenodd" clip-rule="evenodd" fill="#67923D" stroke="#2F4D18" stroke-width="1.495700e-02" stroke-miterlimit="2.4142" d="
					M70.7,67.3c0,0.3,0,1.9-0.5,2.5C69.9,69.7,69.6,68.8,70.7,67.3L70.7,67.3z"/>
				
					<path fill-rule="evenodd" clip-rule="evenodd" fill="#406325" stroke="#2F4D18" stroke-width="1.495700e-02" stroke-miterlimit="2.4142" d="
					M70.7,67.3c0,0.3,0,1.9-0.5,2.5C70.1,69.6,70.7,67.3,70.7,67.3L70.7,67.3z"/>
			</g>
			<g>
				
					<path fill-rule="evenodd" clip-rule="evenodd" fill="#67923D" stroke="#2F4D18" stroke-width="1.947000e-02" stroke-miterlimit="2.4142" d="
					M69.9,67.3c0.1,0.4,0.1,2.5-0.5,3.3C68.9,70.4,68.6,69.2,69.9,67.3L69.9,67.3z"/>
				
					<path fill-rule="evenodd" clip-rule="evenodd" fill="#406325" stroke="#2F4D18" stroke-width="1.947000e-02" stroke-miterlimit="2.4142" d="
					M69.9,67.3c0.1,0.4,0.1,2.5-0.5,3.3C69.2,70.3,69.9,67.3,69.9,67.3L69.9,67.3z"/>
			</g>
			<g>
				
					<path fill-rule="evenodd" clip-rule="evenodd" fill="#67923D" stroke="#2F4D18" stroke-width="1.919700e-02" stroke-miterlimit="2.4142" d="
					M69,68.1c0,0.4-0.2,2.4-0.9,3.2C67.7,71,67.5,69.8,69,68.1L69,68.1z"/>
				
					<path fill-rule="evenodd" clip-rule="evenodd" fill="#406325" stroke="#2F4D18" stroke-width="1.919700e-02" stroke-miterlimit="2.4142" d="
					M69,68.1c0,0.4-0.2,2.4-0.9,3.2C68,70.9,69,68.1,69,68.1L69,68.1z"/>
			</g>
			<g>
				
					<path fill-rule="evenodd" clip-rule="evenodd" fill="#67923D" stroke="#2F4D18" stroke-width="2.102900e-02" stroke-miterlimit="2.4142" d="
					M68.5,69.1c-0.2,0.4-1.3,2.3-2.3,2.7C65.8,71.5,66.2,70.1,68.5,69.1L68.5,69.1z"/>
				
					<path fill-rule="evenodd" clip-rule="evenodd" fill="#406325" stroke="#2F4D18" stroke-width="2.102900e-02" stroke-miterlimit="2.4142" d="
					M68.5,69.1c-0.2,0.4-1.3,2.3-2.3,2.7C66.1,71.5,68.5,69.1,68.5,69.1L68.5,69.1z"/>
			</g>
			<g>
				
					<path fill-rule="evenodd" clip-rule="evenodd" fill="#67923D" stroke="#2F4D18" stroke-width="1.989300e-02" stroke-miterlimit="2.4142" d="
					M67.6,69.1c-0.2,0.4-1.1,2.3-2,2.8C65.2,71.5,65.5,70.2,67.6,69.1L67.6,69.1z"/>
				
					<path fill-rule="evenodd" clip-rule="evenodd" fill="#406325" stroke="#2F4D18" stroke-width="1.989300e-02" stroke-miterlimit="2.4142" d="
					M67.6,69.1c-0.2,0.4-1.1,2.3-2,2.8C65.5,71.5,67.6,69.1,67.6,69.1L67.6,69.1z"/>
			</g>
			
				<path fill-rule="evenodd" clip-rule="evenodd" fill="#BA1F3E" stroke="#511124" stroke-width="1.752600e-02" stroke-miterlimit="2.4142" d="
				M66.3,72.5c0.1,0,0.2,0.1,0.2,0.2c0,0.1-0.1,0.2-0.2,0.2c-0.1,0-0.2-0.1-0.2-0.2C66.1,72.5,66.2,72.5,66.3,72.5z"/>
			
				<path fill-rule="evenodd" clip-rule="evenodd" fill="#BA1F3E" stroke="#511124" stroke-width="1.752600e-02" stroke-miterlimit="2.4142" d="
				M67.2,71.8c0.1,0,0.2,0.1,0.2,0.2c0,0.1-0.1,0.2-0.2,0.2c-0.1,0-0.2-0.1-0.2-0.2C67,71.9,67.1,71.8,67.2,71.8z"/>
			
				<path fill-rule="evenodd" clip-rule="evenodd" fill="#BA1F3E" stroke="#511124" stroke-width="1.752600e-02" stroke-miterlimit="2.4142" d="
				M71.6,67.5c0.1,0,0.2,0.1,0.2,0.2c0,0.1-0.1,0.2-0.2,0.2c-0.1,0-0.2-0.1-0.2-0.2C71.5,67.6,71.6,67.5,71.6,67.5z"/>
			
				<path fill-rule="evenodd" clip-rule="evenodd" fill="#BA1F3E" stroke="#511124" stroke-width="1.752600e-02" stroke-miterlimit="2.4142" d="
				M72.4,67.8c0.1,0,0.2,0.1,0.2,0.2c0,0.1-0.1,0.2-0.2,0.2c-0.1,0-0.2-0.1-0.2-0.2C72.3,67.9,72.3,67.8,72.4,67.8z"/>
			
				<path fill-rule="evenodd" clip-rule="evenodd" fill="#BA1F3E" stroke="#511124" stroke-width="1.752600e-02" stroke-miterlimit="2.4142" d="
				M74.1,63.4c0.1,0,0.2,0.1,0.2,0.2c0,0.1-0.1,0.2-0.2,0.2c-0.1,0-0.2-0.1-0.2-0.2C73.9,63.5,74,63.4,74.1,63.4z"/>
			
				<path fill-rule="evenodd" clip-rule="evenodd" fill="#BA1F3E" stroke="#511124" stroke-width="1.752600e-02" stroke-miterlimit="2.4142" d="
				M73.4,62.6c0.1,0,0.2,0.1,0.2,0.2c0,0.1-0.1,0.2-0.2,0.2c-0.1,0-0.2-0.1-0.2-0.2C73.3,62.6,73.3,62.6,73.4,62.6z"/>
			
				<path fill-rule="evenodd" clip-rule="evenodd" fill="#BA1F3E" stroke="#511124" stroke-width="1.555400e-02" stroke-miterlimit="2.4142" d="
				M73.5,57.3c0.1,0,0.1,0.1,0.1,0.1c0,0.1-0.1,0.1-0.1,0.1c-0.1,0-0.1-0.1-0.1-0.1C73.3,57.4,73.4,57.3,73.5,57.3z"/>
			
				<path fill-rule="evenodd" clip-rule="evenodd" fill="#BA1F3E" stroke="#511124" stroke-width="1.555400e-02" stroke-miterlimit="2.4142" d="
				M73.9,58.8c0.1,0,0.1,0.1,0.1,0.1c0,0.1-0.1,0.1-0.1,0.1c-0.1,0-0.1-0.1-0.1-0.1C73.8,58.9,73.8,58.8,73.9,58.8z"/>
			
				<path fill-rule="evenodd" clip-rule="evenodd" fill="#BA1F3E" stroke="#511124" stroke-width="1.555400e-02" stroke-miterlimit="2.4142" d="
				M72.5,56.6c0.1,0,0.1,0.1,0.1,0.1c0,0.1-0.1,0.1-0.1,0.1s-0.1-0.1-0.1-0.1C72.4,56.7,72.4,56.6,72.5,56.6z"/>
			<g>
				
					<path fill-rule="evenodd" clip-rule="evenodd" fill="#B2B6BA" stroke="#515E5C" stroke-width="1.752600e-02" stroke-miterlimit="2.4142" d="
					M68.6,67.9c0,0,0,0.1,0,0.1c0,0.1-0.2,0.3-0.5,0.2c-0.4-0.2-0.5-0.7-0.1-0.8c0.2,0,0.2,0.1,0.2,0.1s-0.3,0-0.4,0.2
					c0,0.2,0.1,0.3,0.2,0.4c0.1,0.1,0.4,0.1,0.4-0.2l0-0.1L68.6,67.9L68.6,67.9z"/>
				
					<path fill-rule="evenodd" clip-rule="evenodd" fill="#B2B6BA" stroke="#515E5C" stroke-width="1.752600e-02" stroke-miterlimit="2.4142" d="
					M68.6,66.7c0.1,0,0.3-0.1,0.4-0.2c0-0.1,0,0-0.1,0c-0.1,0-0.3,0-0.3,0L68.6,66.7L68.6,66.7z"/>
				
					<path fill-rule="evenodd" clip-rule="evenodd" fill="#B2B6BA" stroke="#515E5C" stroke-width="1.752600e-02" stroke-miterlimit="2.4142" d="
					M68.4,67.7c-0.1,0.4-0.7,0.2-0.3,0.2C68.1,67.8,68.3,67.8,68.4,67.7L68.4,67.7L68.4,67.7z"/>
				
					<path fill-rule="evenodd" clip-rule="evenodd" fill="#B2B6BA" stroke="#515E5C" stroke-width="3.505300e-02" stroke-miterlimit="2.4142" d="
					M72,70.8c-0.4-0.5-1.5-1.8-1.7-2c-0.2-0.2-0.2-0.2-0.4-0.3c-0.1-0.1-0.2,0-0.3-0.3c-0.2-0.2-0.4-0.6-0.6-0.7
					c-0.1-0.2-0.2-0.4-0.3-0.5c0-0.1-0.1-0.6-0.2-0.7c-0.1-0.1-0.5-0.4-0.7-0.5c-0.2-0.1-0.4-0.3-0.7-0.6c-0.3-0.3-8.8-9.4-8.8-9.4
					s0-0.2-0.2-0.2c0,0-0.2-0.2-0.2-0.2c0,0,0,0-0.1,0c0,0-0.1,0.1-0.1,0.1c0,0,0,0,0,0.1c0,0,0.2,0.2,0.2,0.2s0,0,0,0.1
					c0,0-0.3,0.2-0.4,0.3c-0.1,0-0.1,0-0.1,0c0,0-3.4-3.1-3.4-3.1s3.3,3.3,3.4,3.4c0.1,0.1,0.2,0,0.2,0c0,0,0.4-0.4,0.4-0.4
					s0.1,0,0.1,0l0.7,0.7l0,0.2l8.2,9.4c0,0,0,0,0,0.1c0,0,1.3,1.6,1.3,1.6c0,0,0,0,0,0c0,0,0.3,0.5,0.4,1.2
					c0.2,0.6,0.5,1.2,0.7,1.5s1,1.5,1,1.5c0.1,0.1,0.3,0.1,0.5-0.1c0.2-0.3,0.7-0.9,0.8-0.9C72,71.1,72.1,71,72,70.8L72,70.8z"/>
				
					<path fill-rule="evenodd" clip-rule="evenodd" fill="#6C301E" stroke="#515E5C" stroke-width="1.752600e-02" stroke-miterlimit="2.4142" d="
					M72,70.8c-0.4-0.5-1.5-1.8-1.7-2c-0.2-0.2-0.2-0.2-0.4-0.3c-0.1-0.1-0.2,0-0.3-0.3c-0.2-0.2-0.4-0.6-0.6-0.7L68.5,68
					c0,0,0.3,0.5,0.4,1.2c0.2,0.6,0.5,1.2,0.7,1.5s1,1.5,1,1.5c0.1,0.1,0.3,0.1,0.5-0.1c0.2-0.3,0.7-0.9,0.8-0.9
					C72,71.1,72.1,71,72,70.8L72,70.8z"/>
				
					<path fill-rule="evenodd" clip-rule="evenodd" fill="#6C301E" stroke="#515E5C" stroke-width="1.752600e-02" stroke-miterlimit="2.4142" d="
					M59,56.7l0,0.2l8.2,9.4l0.4-0.4C67.6,65.9,59.1,56.8,59,56.7C59,56.7,59,56.7,59,56.7L59,56.7z"/>
				<path fill="#515E5C" d="M67.6,65.9c0,0,0.1,0,0.1-0.1c0,0,0.1-0.1,0.1-0.1l0,0c0,0-0.1,0.1-0.1,0.1
					C67.6,65.9,67.6,65.9,67.6,65.9L67.6,65.9L67.6,65.9z"/>
				<path fill="#515E5C" d="M68.8,67C68.7,67,68.7,67,68.8,67c-0.1,0-0.2,0-0.2-0.1c0-0.1,0-0.2-0.1-0.3c0-0.1,0-0.2,0-0.2
					c0,0,0,0,0-0.1c0,0,0,0,0.1-0.1l0,0c0,0,0,0-0.1,0.1c0,0,0,0,0,0.1c0,0,0,0.1,0,0.2c0,0.1,0.1,0.2,0.1,0.3
					C68.6,67,68.7,67,68.8,67C68.7,67,68.7,67,68.8,67L68.8,67L68.8,67z"/>
				
					<path fill-rule="evenodd" clip-rule="evenodd" fill="none" stroke="#515E5C" stroke-width="1.752600e-02" stroke-miterlimit="2.4142" d="
					M68.3,67.1C68.2,67.1,68.2,67.1,68.3,67.1c-0.1,0.1-0.1,0.2,0,0.2C68.3,67.3,68.4,67.2,68.3,67.1C68.4,67.1,68.3,67.1,68.3,67.1
					L68.3,67.1z"/>
				
					<path fill-rule="evenodd" clip-rule="evenodd" fill="none" stroke="#515E5C" stroke-width="1.752600e-02" stroke-miterlimit="2.4142" d="
					M67.9,66.6C67.8,66.6,67.8,66.6,67.9,66.6c-0.1,0.1-0.1,0.2,0,0.2C67.9,66.8,67.9,66.7,67.9,66.6C67.9,66.6,67.9,66.6,67.9,66.6
					L67.9,66.6z"/>
				
					<path fill-rule="evenodd" clip-rule="evenodd" fill="#8C959D" stroke="#515E5C" stroke-width="1.752600e-02" stroke-miterlimit="2.4142" d="
					M60.4,57.8c0,0-0.4,0.3-0.4,0.4c0,0,0,0-0.1,0c0,0,0,0,0,0c0,0,0,0,0,0C59.9,58,60.3,57.7,60.4,57.8
					C60.3,57.7,60.3,57.7,60.4,57.8C60.3,57.7,60.4,57.7,60.4,57.8C60.4,57.7,60.4,57.7,60.4,57.8L60.4,57.8z"/>
			</g>
			<g>
				
					<path fill-rule="evenodd" clip-rule="evenodd" fill="#406325" stroke="#2F4D18" stroke-width="2.163300e-02" stroke-miterlimit="2.4142" d="
					M71.8,71.7c-0.5-0.1-2.7-0.5-3.7,0C68.2,72.2,69.5,72.8,71.8,71.7L71.8,71.7z"/>
				
					<path fill-rule="evenodd" clip-rule="evenodd" fill="#67923D" stroke="#2F4D18" stroke-width="2.163300e-02" stroke-miterlimit="2.4142" d="
					M71.8,71.7c-0.5-0.1-2.7-0.5-3.7,0C68.4,71.9,71.8,71.7,71.8,71.7L71.8,71.7z"/>
			</g>
			
				<path fill-rule="evenodd" clip-rule="evenodd" fill="#B2B6BA" stroke="#515E5C" stroke-width="1.752600e-02" stroke-miterlimit="2.4142" d="
				M66.7,70.7l-0.3-0.1l0-0.2C65,68.5,59.7,63.2,57,62c2.4,0.1,8.3,6,10,8.1l0,0.4L66.7,70.7L66.7,70.7z"/>
			
				<path fill-rule="evenodd" clip-rule="evenodd" fill="#8C959D" stroke="#515E5C" stroke-width="1.752600e-02" stroke-miterlimit="2.4142" d="
				M66.7,70.7l-0.3-0.1l0-0.2C65,68.5,59.7,63.2,57,62c0,0,0,0,0,0c2.7,0.8,8.2,6.2,9.8,8.6L66.7,70.7L66.7,70.7z"/>
			<g>
				
					<path fill-rule="evenodd" clip-rule="evenodd" fill="#406325" stroke="#2F4D18" stroke-width="1.458300e-02" stroke-miterlimit="2.4142" d="
					M53.3,53.2c0.1,0.3,0.3,1.8,0,2.5C52.9,55.6,52.5,54.7,53.3,53.2L53.3,53.2z"/>
				
					<path fill-rule="evenodd" clip-rule="evenodd" fill="#67923D" stroke="#2F4D18" stroke-width="1.458300e-02" stroke-miterlimit="2.4142" d="
					M53.3,53.2c0.1,0.3,0.3,1.8,0,2.5C53.1,55.5,53.3,53.2,53.3,53.2L53.3,53.2z"/>
			</g>
			<g>
				
					<path fill-rule="evenodd" clip-rule="evenodd" fill="#406325" stroke="#2F4D18" stroke-width="1.548900e-02" stroke-miterlimit="2.4142" d="
					M52.7,54.3c0.1,0.3,0.5,1.9,0.1,2.7C52.4,56.9,51.9,56,52.7,54.3L52.7,54.3z"/>
				
					<path fill-rule="evenodd" clip-rule="evenodd" fill="#67923D" stroke="#2F4D18" stroke-width="1.548900e-02" stroke-miterlimit="2.4142" d="
					M52.7,54.3c0.1,0.3,0.5,1.9,0.1,2.7C52.6,56.7,52.7,54.3,52.7,54.3L52.7,54.3z"/>
			</g>
			<g>
				
					<path fill-rule="evenodd" clip-rule="evenodd" fill="#406325" stroke="#2F4D18" stroke-width="1.876300e-02" stroke-miterlimit="2.4142" d="
					M51.2,55.8c0.3,0.3,1.3,2,1.2,3C51.9,58.9,51,58.1,51.2,55.8L51.2,55.8z"/>
				
					<path fill-rule="evenodd" clip-rule="evenodd" fill="#67923D" stroke="#2F4D18" stroke-width="1.876300e-02" stroke-miterlimit="2.4142" d="
					M51.2,55.8c0.3,0.3,1.3,2,1.2,3C52.1,58.7,51.2,55.8,51.2,55.8L51.2,55.8z"/>
			</g>
			<g>
				
					<path fill-rule="evenodd" clip-rule="evenodd" fill="#406325" stroke="#2F4D18" stroke-width="1.511800e-02" stroke-miterlimit="2.4142" d="
					M50.6,57.8c0.3,0.2,1.5,1.2,1.7,1.9C52,59.9,51.1,59.5,50.6,57.8L50.6,57.8z"/>
				
					<path fill-rule="evenodd" clip-rule="evenodd" fill="#67923D" stroke="#2F4D18" stroke-width="1.511800e-02" stroke-miterlimit="2.4142" d="
					M50.6,57.8c0.3,0.2,1.5,1.2,1.7,1.9C52.1,59.7,50.6,57.8,50.6,57.8L50.6,57.8z"/>
			</g>
			<g>
				
					<path fill-rule="evenodd" clip-rule="evenodd" fill="#406325" stroke="#2F4D18" stroke-width="1.887800e-02" stroke-miterlimit="2.4142" d="
					M51.4,59.2c0.2,0.4,1.1,2.2,0.8,3.1C51.8,62.3,51,61.4,51.4,59.2L51.4,59.2z"/>
				
					<path fill-rule="evenodd" clip-rule="evenodd" fill="#67923D" stroke="#2F4D18" stroke-width="1.887800e-02" stroke-miterlimit="2.4142" d="
					M51.4,59.2c0.2,0.4,1.1,2.2,0.8,3.1C52,62.1,51.4,59.2,51.4,59.2L51.4,59.2z"/>
			</g>
			<g>
				
					<path fill-rule="evenodd" clip-rule="evenodd" fill="#406325" stroke="#2F4D18" stroke-width="1.575400e-02" stroke-miterlimit="2.4142" d="
					M50.6,60.5c0.3,0.2,1.4,1.5,1.4,2.3C51.7,63,50.8,62.4,50.6,60.5L50.6,60.5z"/>
				
					<path fill-rule="evenodd" clip-rule="evenodd" fill="#67923D" stroke="#2F4D18" stroke-width="1.575400e-02" stroke-miterlimit="2.4142" d="
					M50.6,60.5c0.3,0.2,1.4,1.5,1.4,2.3C51.8,62.7,50.6,60.5,50.6,60.5L50.6,60.5z"/>
			</g>
			<g>
				
					<path fill-rule="evenodd" clip-rule="evenodd" fill="#406325" stroke="#2F4D18" stroke-width="1.627800e-02" stroke-miterlimit="2.4142" d="
					M50,62.7c0.3,0.1,1.8,1,2.2,1.8C51.9,64.8,50.9,64.5,50,62.7L50,62.7z"/>
				
					<path fill-rule="evenodd" clip-rule="evenodd" fill="#67923D" stroke="#2F4D18" stroke-width="1.627800e-02" stroke-miterlimit="2.4142" d="
					M50,62.7c0.3,0.1,1.8,1,2.2,1.8C51.9,64.5,50,62.7,50,62.7L50,62.7z"/>
			</g>
			<g>
				
					<path fill-rule="evenodd" clip-rule="evenodd" fill="#406325" stroke="#2F4D18" stroke-width="1.546700e-02" stroke-miterlimit="2.4142" d="
					M50.1,64.7c0.4,0,2,0.2,2.5,0.8C52.5,65.8,51.5,66,50.1,64.7L50.1,64.7z"/>
				
					<path fill-rule="evenodd" clip-rule="evenodd" fill="#67923D" stroke="#2F4D18" stroke-width="1.546700e-02" stroke-miterlimit="2.4142" d="
					M50.1,64.7c0.4,0,2,0.2,2.5,0.8C52.4,65.6,50.1,64.7,50.1,64.7L50.1,64.7z"/>
			</g>
			<g>
				
					<path fill-rule="evenodd" clip-rule="evenodd" fill="#406325" stroke="#2F4D18" stroke-width="1.653000e-02" stroke-miterlimit="2.4142" d="
					M51.2,64.7c0.3,0.2,1.8,1.1,2.1,1.9C52.9,66.9,51.9,66.6,51.2,64.7L51.2,64.7z"/>
				
					<path fill-rule="evenodd" clip-rule="evenodd" fill="#67923D" stroke="#2F4D18" stroke-width="1.653000e-02" stroke-miterlimit="2.4142" d="
					M51.2,64.7c0.3,0.2,1.8,1.1,2.1,1.9C53,66.6,51.2,64.7,51.2,64.7L51.2,64.7z"/>
			</g>
			<g>
				
					<path fill-rule="evenodd" clip-rule="evenodd" fill="#406325" stroke="#2F4D18" stroke-width="1.804400e-02" stroke-miterlimit="2.4142" d="
					M50.5,66.8c0.4,0,2.3,0,3,0.7C53.3,67.9,52.2,68.2,50.5,66.8L50.5,66.8z"/>
				
					<path fill-rule="evenodd" clip-rule="evenodd" fill="#67923D" stroke="#2F4D18" stroke-width="1.804400e-02" stroke-miterlimit="2.4142" d="
					M50.5,66.8c0.4,0,2.3,0,3,0.7C53.2,67.7,50.5,66.8,50.5,66.8L50.5,66.8z"/>
			</g>
			<g>
				
					<path fill-rule="evenodd" clip-rule="evenodd" fill="#406325" stroke="#2F4D18" stroke-width="1.804400e-02" stroke-miterlimit="2.4142" d="
					M52.5,68c0.4,0.1,2.2,0.7,2.7,1.4C55,69.8,53.8,69.8,52.5,68L52.5,68z"/>
				
					<path fill-rule="evenodd" clip-rule="evenodd" fill="#67923D" stroke="#2F4D18" stroke-width="1.804400e-02" stroke-miterlimit="2.4142" d="
					M52.5,68c0.4,0.1,2.2,0.7,2.7,1.4C55,69.6,52.5,68,52.5,68L52.5,68z"/>
			</g>
			<g>
				
					<path fill-rule="evenodd" clip-rule="evenodd" fill="#406325" stroke="#2F4D18" stroke-width="2.163300e-02" stroke-miterlimit="2.4142" d="
					M53,70c0.5,0,2.8,0,3.6,0.8C56.4,71.3,55,71.6,53,70L53,70z"/>
				
					<path fill-rule="evenodd" clip-rule="evenodd" fill="#67923D" stroke="#2F4D18" stroke-width="2.163300e-02" stroke-miterlimit="2.4142" d="
					M53,70c0.5,0,2.8,0,3.6,0.8C56.2,71,53,70,53,70L53,70z"/>
			</g>
			<g>
				
					<path fill-rule="evenodd" clip-rule="evenodd" fill="#406325" stroke="#2F4D18" stroke-width="1.757600e-02" stroke-miterlimit="2.4142" d="
					M56.4,73.8c0.3-0.3,1.8-1.3,2.7-1.3C59.3,72.9,58.5,73.8,56.4,73.8L56.4,73.8z"/>
				
					<path fill-rule="evenodd" clip-rule="evenodd" fill="#67923D" stroke="#2F4D18" stroke-width="1.757600e-02" stroke-miterlimit="2.4142" d="
					M56.4,73.8c0.3-0.3,1.8-1.3,2.7-1.3C59,72.8,56.4,73.8,56.4,73.8L56.4,73.8z"/>
			</g>
			<g>
				
					<path fill-rule="evenodd" clip-rule="evenodd" fill="#406325" stroke="#2F4D18" stroke-width="1.757600e-02" stroke-miterlimit="2.4142" d="
					M57.8,74.1c0.3-0.3,1.8-1.4,2.7-1.4C60.7,73.2,59.9,74.1,57.8,74.1L57.8,74.1z"/>
				
					<path fill-rule="evenodd" clip-rule="evenodd" fill="#67923D" stroke="#2F4D18" stroke-width="1.757600e-02" stroke-miterlimit="2.4142" d="
					M57.8,74.1c0.3-0.3,1.8-1.4,2.7-1.4C60.4,73,57.8,74.1,57.8,74.1L57.8,74.1z"/>
			</g>
			<g>
				
					<path fill-rule="evenodd" clip-rule="evenodd" fill="#67923D" stroke="#2F4D18" stroke-width="1.561600e-02" stroke-miterlimit="2.4142" d="
					M54.7,56c-0.3,0.2-1.6,1.2-1.8,2C53.3,58.2,54.2,57.8,54.7,56L54.7,56z"/>
				
					<path fill-rule="evenodd" clip-rule="evenodd" fill="#406325" stroke="#2F4D18" stroke-width="1.561600e-02" stroke-miterlimit="2.4142" d="
					M54.7,56c-0.3,0.2-1.6,1.2-1.8,2C53.2,58,54.7,56,54.7,56L54.7,56z"/>
			</g>
			<g>
				
					<path fill-rule="evenodd" clip-rule="evenodd" fill="#67923D" stroke="#2F4D18" stroke-width="1.734000e-02" stroke-miterlimit="2.4142" d="
					M55.1,57.2c-0.4,0.1-2,1-2.3,1.8C53.1,59.4,54.2,59.1,55.1,57.2L55.1,57.2z"/>
				
					<path fill-rule="evenodd" clip-rule="evenodd" fill="#406325" stroke="#2F4D18" stroke-width="1.734000e-02" stroke-miterlimit="2.4142" d="
					M55.1,57.2c-0.4,0.1-2,1-2.3,1.8C53.1,59.1,55.1,57.2,55.1,57.2L55.1,57.2z"/>
			</g>
			<g>
				
					<path fill-rule="evenodd" clip-rule="evenodd" fill="#67923D" stroke="#2F4D18" stroke-width="1.353800e-02" stroke-miterlimit="2.4142" d="
					M54.4,58.9c-0.3,0.1-1.7,0.4-2.1,1C52.5,60.2,53.4,60.2,54.4,58.9L54.4,58.9z"/>
				
					<path fill-rule="evenodd" clip-rule="evenodd" fill="#406325" stroke="#2F4D18" stroke-width="1.353800e-02" stroke-miterlimit="2.4142" d="
					M54.4,58.9c-0.3,0.1-1.7,0.4-2.1,1C52.6,60,54.4,58.9,54.4,58.9L54.4,58.9z"/>
			</g>
			<g>
				
					<path fill-rule="evenodd" clip-rule="evenodd" fill="#67923D" stroke="#2F4D18" stroke-width="1.890300e-02" stroke-miterlimit="2.4142" d="
					M53.3,59.2c-0.3,0.4-1.2,2.1-1.1,3.1C52.7,62.3,53.6,61.4,53.3,59.2L53.3,59.2z"/>
				
					<path fill-rule="evenodd" clip-rule="evenodd" fill="#406325" stroke="#2F4D18" stroke-width="1.890300e-02" stroke-miterlimit="2.4142" d="
					M53.3,59.2c-0.3,0.4-1.2,2.1-1.1,3.1C52.5,62.1,53.3,59.2,53.3,59.2L53.3,59.2z"/>
			</g>
			<g>
				
					<path fill-rule="evenodd" clip-rule="evenodd" fill="#67923D" stroke="#2F4D18" stroke-width="1.890300e-02" stroke-miterlimit="2.4142" d="
					M53.9,60.3c-0.3,0.3-1.3,2-1.2,3C53.1,63.4,54.1,62.5,53.9,60.3L53.9,60.3z"/>
				
					<path fill-rule="evenodd" clip-rule="evenodd" fill="#406325" stroke="#2F4D18" stroke-width="1.890300e-02" stroke-miterlimit="2.4142" d="
					M53.9,60.3c-0.3,0.3-1.3,2-1.2,3C53,63.1,53.9,60.3,53.9,60.3L53.9,60.3z"/>
			</g>
			<g>
				
					<path fill-rule="evenodd" clip-rule="evenodd" fill="#67923D" stroke="#2F4D18" stroke-width="1.434000e-02" stroke-miterlimit="2.4142" d="
					M53.7,62.7c-0.2,0.3-1,1.5-0.9,2.3C53.1,65,53.8,64.4,53.7,62.7L53.7,62.7z"/>
				
					<path fill-rule="evenodd" clip-rule="evenodd" fill="#406325" stroke="#2F4D18" stroke-width="1.434000e-02" stroke-miterlimit="2.4142" d="
					M53.7,62.7c-0.2,0.3-1,1.5-0.9,2.3C53,64.8,53.7,62.7,53.7,62.7L53.7,62.7z"/>
			</g>
			<g>
				
					<path fill-rule="evenodd" clip-rule="evenodd" fill="#67923D" stroke="#2F4D18" stroke-width="1.684300e-02" stroke-miterlimit="2.4142" d="
					M53,63.4c-0.1,0.4-0.2,2.1,0.3,2.9C53.7,66.2,54,65.1,53,63.4L53,63.4z"/>
				
					<path fill-rule="evenodd" clip-rule="evenodd" fill="#406325" stroke="#2F4D18" stroke-width="1.684300e-02" stroke-miterlimit="2.4142" d="
					M53,63.4c-0.1,0.4-0.2,2.1,0.3,2.9C53.4,66.1,53,63.4,53,63.4L53,63.4z"/>
			</g>
			<g>
				
					<path fill-rule="evenodd" clip-rule="evenodd" fill="#67923D" stroke="#2F4D18" stroke-width="1.910000e-02" stroke-miterlimit="2.4142" d="
					M54.1,64.1c-0.1,0.4-0.6,2.4-0.1,3.3C54.5,67.3,55,66.2,54.1,64.1L54.1,64.1z"/>
				
					<path fill-rule="evenodd" clip-rule="evenodd" fill="#406325" stroke="#2F4D18" stroke-width="1.910000e-02" stroke-miterlimit="2.4142" d="
					M54.1,64.1c-0.1,0.4-0.6,2.4-0.1,3.3C54.2,67.1,54.1,64.1,54.1,64.1L54.1,64.1z"/>
			</g>
			<g>
				
					<path fill-rule="evenodd" clip-rule="evenodd" fill="#67923D" stroke="#2F4D18" stroke-width="1.495700e-02" stroke-miterlimit="2.4142" d="
					M54.9,65.6c-0.1,0.3-0.4,1.9-0.1,2.6C55.2,68.1,55.6,67.3,54.9,65.6L54.9,65.6z"/>
				
					<path fill-rule="evenodd" clip-rule="evenodd" fill="#406325" stroke="#2F4D18" stroke-width="1.495700e-02" stroke-miterlimit="2.4142" d="
					M54.9,65.6c-0.1,0.3-0.4,1.9-0.1,2.6C55,68,54.9,65.6,54.9,65.6L54.9,65.6z"/>
			</g>
			<g>
				
					<path fill-rule="evenodd" clip-rule="evenodd" fill="#67923D" stroke="#2F4D18" stroke-width="1.495700e-02" stroke-miterlimit="2.4142" d="
					M55.3,67.3c0,0.3,0,1.9,0.5,2.5C56.1,69.7,56.4,68.8,55.3,67.3L55.3,67.3z"/>
				
					<path fill-rule="evenodd" clip-rule="evenodd" fill="#406325" stroke="#2F4D18" stroke-width="1.495700e-02" stroke-miterlimit="2.4142" d="
					M55.3,67.3c0,0.3,0,1.9,0.5,2.5C55.9,69.6,55.3,67.3,55.3,67.3L55.3,67.3z"/>
			</g>
			<g>
				
					<path fill-rule="evenodd" clip-rule="evenodd" fill="#67923D" stroke="#2F4D18" stroke-width="1.947000e-02" stroke-miterlimit="2.4142" d="
					M56.1,67.3c-0.1,0.4-0.1,2.5,0.5,3.3C57.1,70.4,57.4,69.2,56.1,67.3L56.1,67.3z"/>
				
					<path fill-rule="evenodd" clip-rule="evenodd" fill="#406325" stroke="#2F4D18" stroke-width="1.947000e-02" stroke-miterlimit="2.4142" d="
					M56.1,67.3c-0.1,0.4-0.1,2.5,0.5,3.3C56.8,70.3,56.1,67.3,56.1,67.3L56.1,67.3z"/>
			</g>
			<g>
				
					<path fill-rule="evenodd" clip-rule="evenodd" fill="#67923D" stroke="#2F4D18" stroke-width="1.919700e-02" stroke-miterlimit="2.4142" d="
					M57,68.1c0,0.4,0.2,2.4,0.9,3.2C58.3,71,58.5,69.8,57,68.1L57,68.1z"/>
				
					<path fill-rule="evenodd" clip-rule="evenodd" fill="#406325" stroke="#2F4D18" stroke-width="1.919700e-02" stroke-miterlimit="2.4142" d="
					M57,68.1c0,0.4,0.2,2.4,0.9,3.2C58,70.9,57,68.1,57,68.1L57,68.1z"/>
			</g>
			<g>
				
					<path fill-rule="evenodd" clip-rule="evenodd" fill="#67923D" stroke="#2F4D18" stroke-width="2.102900e-02" stroke-miterlimit="2.4142" d="
					M57.5,69.1c0.2,0.4,1.3,2.3,2.3,2.7C60.2,71.5,59.8,70.1,57.5,69.1L57.5,69.1z"/>
				
					<path fill-rule="evenodd" clip-rule="evenodd" fill="#406325" stroke="#2F4D18" stroke-width="2.102900e-02" stroke-miterlimit="2.4142" d="
					M57.5,69.1c0.2,0.4,1.3,2.3,2.3,2.7C59.9,71.5,57.5,69.1,57.5,69.1L57.5,69.1z"/>
			</g>
			<g>
				
					<path fill-rule="evenodd" clip-rule="evenodd" fill="#67923D" stroke="#2F4D18" stroke-width="1.989300e-02" stroke-miterlimit="2.4142" d="
					M58.4,69.1c0.2,0.4,1.1,2.3,2,2.8C60.8,71.5,60.5,70.2,58.4,69.1L58.4,69.1z"/>
				
					<path fill-rule="evenodd" clip-rule="evenodd" fill="#406325" stroke="#2F4D18" stroke-width="1.989300e-02" stroke-miterlimit="2.4142" d="
					M58.4,69.1c0.2,0.4,1.1,2.3,2,2.8C60.5,71.5,58.4,69.1,58.4,69.1L58.4,69.1z"/>
			</g>
			
				<path fill-rule="evenodd" clip-rule="evenodd" fill="#BA1F3E" stroke="#511124" stroke-width="1.752600e-02" stroke-miterlimit="2.4142" d="
				M59.7,72.5c-0.1,0-0.2,0.1-0.2,0.2c0,0.1,0.1,0.2,0.2,0.2c0.1,0,0.2-0.1,0.2-0.2C59.9,72.5,59.8,72.5,59.7,72.5z"/>
			
				<path fill-rule="evenodd" clip-rule="evenodd" fill="#BA1F3E" stroke="#511124" stroke-width="1.752600e-02" stroke-miterlimit="2.4142" d="
				M58.8,71.8c-0.1,0-0.2,0.1-0.2,0.2c0,0.1,0.1,0.2,0.2,0.2c0.1,0,0.2-0.1,0.2-0.2C59,71.9,58.9,71.8,58.8,71.8z"/>
			
				<path fill-rule="evenodd" clip-rule="evenodd" fill="#BA1F3E" stroke="#511124" stroke-width="1.752600e-02" stroke-miterlimit="2.4142" d="
				M54.4,67.5c-0.1,0-0.2,0.1-0.2,0.2c0,0.1,0.1,0.2,0.2,0.2c0.1,0,0.2-0.1,0.2-0.2C54.5,67.6,54.4,67.5,54.4,67.5z"/>
			
				<path fill-rule="evenodd" clip-rule="evenodd" fill="#BA1F3E" stroke="#511124" stroke-width="1.752600e-02" stroke-miterlimit="2.4142" d="
				M53.6,67.8c-0.1,0-0.2,0.1-0.2,0.2c0,0.1,0.1,0.2,0.2,0.2c0.1,0,0.2-0.1,0.2-0.2C53.7,67.9,53.7,67.8,53.6,67.8z"/>
			
				<path fill-rule="evenodd" clip-rule="evenodd" fill="#BA1F3E" stroke="#511124" stroke-width="1.752600e-02" stroke-miterlimit="2.4142" d="
				M51.9,63.4c-0.1,0-0.2,0.1-0.2,0.2c0,0.1,0.1,0.2,0.2,0.2c0.1,0,0.2-0.1,0.2-0.2C52.1,63.5,52,63.4,51.9,63.4z"/>
			
				<path fill-rule="evenodd" clip-rule="evenodd" fill="#BA1F3E" stroke="#511124" stroke-width="1.752600e-02" stroke-miterlimit="2.4142" d="
				M52.6,62.6c-0.1,0-0.2,0.1-0.2,0.2c0,0.1,0.1,0.2,0.2,0.2c0.1,0,0.2-0.1,0.2-0.2C52.7,62.6,52.7,62.6,52.6,62.6z"/>
			
				<path fill-rule="evenodd" clip-rule="evenodd" fill="#BA1F3E" stroke="#511124" stroke-width="1.555400e-02" stroke-miterlimit="2.4142" d="
				M52.5,57.3c-0.1,0-0.1,0.1-0.1,0.1c0,0.1,0.1,0.1,0.1,0.1c0.1,0,0.1-0.1,0.1-0.1C52.7,57.4,52.6,57.3,52.5,57.3z"/>
			
				<path fill-rule="evenodd" clip-rule="evenodd" fill="#BA1F3E" stroke="#511124" stroke-width="1.555400e-02" stroke-miterlimit="2.4142" d="
				M52.1,58.8c-0.1,0-0.1,0.1-0.1,0.1c0,0.1,0.1,0.1,0.1,0.1s0.1-0.1,0.1-0.1C52.2,58.9,52.2,58.8,52.1,58.8z"/>
			
				<path fill-rule="evenodd" clip-rule="evenodd" fill="#BA1F3E" stroke="#511124" stroke-width="1.555400e-02" stroke-miterlimit="2.4142" d="
				M53.5,56.6c-0.1,0-0.1,0.1-0.1,0.1c0,0.1,0.1,0.1,0.1,0.1c0.1,0,0.1-0.1,0.1-0.1C53.6,56.7,53.6,56.6,53.5,56.6z"/>
			<g>
				
					<path fill-rule="evenodd" clip-rule="evenodd" fill="#67923D" stroke="#2F4D18" stroke-width="1.816900e-02" stroke-miterlimit="2.4142" d="
					M55.7,53.7c-0.3,0.2-1.8,1.5-1.9,2.5C54.2,56.4,55.2,55.9,55.7,53.7L55.7,53.7z"/>
				
					<path fill-rule="evenodd" clip-rule="evenodd" fill="#406325" stroke="#2F4D18" stroke-width="1.816900e-02" stroke-miterlimit="2.4142" d="
					M55.7,53.7c-0.3,0.2-1.8,1.5-1.9,2.5C54.1,56.2,55.7,53.7,55.7,53.7L55.7,53.7z"/>
			</g>
			<g>
				
					<path fill-rule="evenodd" clip-rule="evenodd" fill="#B2B6BA" stroke="#515E5C" stroke-width="1.752600e-02" stroke-miterlimit="2.4142" d="
					M57,67.7c0,0,0,0.1,0,0.1c0,0.1,0.2,0.3,0.5,0.2c0.4-0.1,0.6-0.7,0.1-0.8c-0.2-0.1-0.2,0.1-0.2,0.1s0.3,0,0.3,0.2
					c0,0.2-0.1,0.3-0.2,0.4c-0.1,0.1-0.4,0.1-0.4-0.2l0-0.1L57,67.7L57,67.7z"/>
				
					<path fill-rule="evenodd" clip-rule="evenodd" fill="#B2B6BA" stroke="#515E5C" stroke-width="1.752600e-02" stroke-miterlimit="2.4142" d="
					M57,66.5c-0.1,0-0.3-0.1-0.4-0.2c0-0.1,0,0,0.1,0c0.1,0,0.3,0,0.3,0L57,66.5L57,66.5z"/>
				
					<path fill-rule="evenodd" clip-rule="evenodd" fill="#B2B6BA" stroke="#515E5C" stroke-width="1.752600e-02" stroke-miterlimit="2.4142" d="
					M57.2,67.5c0.1,0.4,0.6,0.2,0.3,0.2C57.4,67.7,57.3,67.6,57.2,67.5L57.2,67.5L57.2,67.5z"/>
				
					<path fill-rule="evenodd" clip-rule="evenodd" fill="#B2B6BA" stroke="#515E5C" stroke-width="3.505300e-02" stroke-miterlimit="2.4142" d="
					M53.5,70.5c0.4-0.5,1.6-1.7,1.8-1.9c0.2-0.2,0.3-0.2,0.4-0.3c0.1,0,0.2,0,0.3-0.2c0.2-0.2,0.5-0.6,0.6-0.7
					c0.1-0.1,0.2-0.3,0.3-0.5c0.1-0.1,0.2-0.6,0.3-0.7c0.1-0.1,0.5-0.3,0.7-0.5c0.2-0.1,0.4-0.3,0.7-0.6c0.3-0.3,9.2-9,9.2-9
					s0-0.2,0.2-0.2c0,0,0.2-0.2,0.2-0.2c0,0,0,0,0.1,0c0,0,0.1,0.1,0.1,0.1c0,0,0,0,0,0.1c0,0-0.2,0.2-0.2,0.2s0,0,0,0.1
					c0,0,0.3,0.3,0.4,0.3c0,0,0.1,0,0.1,0c0,0,3.6-2.9,3.6-2.9s-3.5,3.1-3.6,3.2c-0.1,0.1-0.2,0-0.2,0c0,0-0.3-0.4-0.3-0.4
					s-0.1,0-0.1,0L67.2,57l0,0.2l-8.7,9c0,0,0,0,0,0.1c0,0-1.4,1.5-1.4,1.5c0,0,0,0,0,0c0,0-0.3,0.5-0.5,1.1
					c-0.2,0.6-0.6,1.1-0.8,1.5c-0.2,0.3-1,1.4-1.1,1.5c-0.1,0.1-0.3,0.1-0.5-0.2c-0.2-0.3-0.7-0.9-0.7-1
					C53.4,70.7,53.3,70.6,53.5,70.5L53.5,70.5z"/>
				
					<path fill-rule="evenodd" clip-rule="evenodd" fill="#6C301E" stroke="#515E5C" stroke-width="1.752600e-02" stroke-miterlimit="2.4142" d="
					M53.5,70.5c0.4-0.5,1.6-1.7,1.8-1.9c0.2-0.2,0.3-0.2,0.4-0.3c0.1,0,0.2,0,0.3-0.2c0.2-0.2,0.5-0.6,0.6-0.7l0.5,0.5
					c0,0-0.3,0.5-0.5,1.1c-0.2,0.6-0.6,1.1-0.8,1.5c-0.2,0.3-1,1.4-1.1,1.5c-0.1,0.1-0.3,0.1-0.5-0.2c-0.2-0.3-0.7-0.9-0.7-1
					C53.4,70.7,53.3,70.6,53.5,70.5L53.5,70.5z"/>
				
					<path fill-rule="evenodd" clip-rule="evenodd" fill="#6C301E" stroke="#515E5C" stroke-width="1.752600e-02" stroke-miterlimit="2.4142" d="
					M67.2,57l0,0.2l-8.7,9l-0.4-0.4C58.1,65.8,67,57.1,67.2,57C67.1,57,67.2,57,67.2,57L67.2,57z"/>
				<path fill="#515E5C" d="M58.1,65.8c0,0-0.1-0.1-0.1-0.1c0,0-0.1-0.1-0.1-0.1l0,0c0,0,0.1,0.1,0.1,0.1
					C58.1,65.7,58.1,65.8,58.1,65.8L58.1,65.8L58.1,65.8z"/>
				<path fill="#515E5C" d="M56.9,66.8C56.9,66.8,56.9,66.8,56.9,66.8c0.1,0,0.2,0,0.2-0.1c0-0.1,0.1-0.2,0.1-0.3
					c0-0.1,0.1-0.2,0.1-0.2c0,0,0,0,0-0.1c0,0,0,0-0.1-0.1l0,0c0,0,0,0,0.1,0.1c0,0,0,0,0,0.1c0,0,0,0.1-0.1,0.2
					c0,0.1-0.1,0.2-0.1,0.3C57.1,66.8,57,66.8,56.9,66.8C56.9,66.8,56.9,66.8,56.9,66.8L56.9,66.8L56.9,66.8z"/>
				
					<path fill-rule="evenodd" clip-rule="evenodd" fill="none" stroke="#515E5C" stroke-width="1.752600e-02" stroke-miterlimit="2.4142" d="
					M57.3,66.9C57.4,66.9,57.4,67,57.3,66.9c0.1,0.1,0,0.2,0,0.2C57.3,67.1,57.3,67.1,57.3,66.9C57.3,67,57.3,66.9,57.3,66.9
					L57.3,66.9z"/>
				
					<path fill-rule="evenodd" clip-rule="evenodd" fill="none" stroke="#515E5C" stroke-width="1.752600e-02" stroke-miterlimit="2.4142" d="
					M57.8,66.4C57.8,66.4,57.9,66.5,57.8,66.4c0.1,0.1,0.1,0.2,0,0.2C57.7,66.6,57.7,66.6,57.8,66.4C57.7,66.5,57.7,66.4,57.8,66.4
					L57.8,66.4z"/>
				
					<path fill-rule="evenodd" clip-rule="evenodd" fill="#8C959D" stroke="#515E5C" stroke-width="1.752600e-02" stroke-miterlimit="2.4142" d="
					M65.7,58c0,0,0.4,0.4,0.4,0.4c0,0,0,0,0.1,0c0,0,0,0,0,0c0,0,0,0,0,0C66.2,58.3,65.8,57.9,65.7,58C65.8,57.9,65.8,57.9,65.7,58
					C65.8,57.9,65.8,58,65.7,58C65.7,58,65.7,58,65.7,58L65.7,58z"/>
			</g>
			<g>
				
					<path fill-rule="evenodd" clip-rule="evenodd" fill="#67923D" stroke="#2F4D18" stroke-width="1.816900e-02" stroke-miterlimit="2.4142" d="
					M70.3,53.7c0.3,0.2,1.7,1.5,1.9,2.5C71.8,56.4,70.8,55.9,70.3,53.7L70.3,53.7z"/>
				
					<path fill-rule="evenodd" clip-rule="evenodd" fill="#406325" stroke="#2F4D18" stroke-width="1.816900e-02" stroke-miterlimit="2.4142" d="
					M70.3,53.7c0.3,0.2,1.7,1.5,1.9,2.5C71.9,56.2,70.3,53.7,70.3,53.7L70.3,53.7z"/>
			</g>
			<g>
				
					<path fill-rule="evenodd" clip-rule="evenodd" fill="#B2B6BA" stroke="#515E5C" stroke-width="1.752600e-02" stroke-miterlimit="2.4142" d="
					M59,70.3l0.3-0.1l0-0.2c1.6-1.8,7.2-6.8,10-7.7c-2.4,0-8.7,5.4-10.5,7.4l0,0.4L59,70.3L59,70.3z"/>
				
					<path fill-rule="evenodd" clip-rule="evenodd" fill="#8C959D" stroke="#515E5C" stroke-width="1.752600e-02" stroke-miterlimit="2.4142" d="
					M59,70.3l0.3-0.1l0-0.2c1.6-1.8,7.2-6.8,10-7.7c0,0,0,0,0,0c-2.7,0.6-8.6,5.6-10.4,7.9L59,70.3L59,70.3z"/>
				<g>
					
						<path fill-rule="evenodd" clip-rule="evenodd" fill="#FAB81C" stroke="#6C301E" stroke-width="2.336900e-02" stroke-miterlimit="2.4142" d="
						M59.3,70.1l-0.1,0.1c0,0-0.3-0.1-0.4-0.4c0,0-0.6-0.7-1.2-0.1c0,0-0.2,0-0.2,0.1c0,0-0.1,0-0.1,0.1c0,0-0.1,0-0.1,0.1
						c0,0-0.1,0-0.1,0.1c0,0-0.1,0.1,0,0.2c0,0-0.2,0.5,0.2,0.9v0.1c0,0-0.2,0-0.2,0.2c0,0.2,0.4,0.2,0.5,0.1
						c0.1-0.1,1.1-0.9,1.3-1.1c0,0,0.1,0.3,0.4,0.2c0.3-0.1,0.5-0.5,0.2-0.6C59.3,70.1,59.4,70.1,59.3,70.1L59.3,70.1z M57.2,70.3
						c0,0-0.2,0.6,0.3,0.8c0,0,0-0.2,0.2-0.2c0,0,0-0.2,0.2-0.2c0,0,0-0.2,0.2-0.2c0,0-0.1-0.2,0.2-0.2c0,0,0-0.2,0.2-0.2
						c0,0,0-0.1,0.1-0.2c0,0-0.2-0.2-0.3-0.3c-0.1-0.1-0.4-0.2-0.5-0.1c0,0,0,0.2-0.1,0.2c0,0,0,0.1-0.1,0.1c0,0,0,0.1-0.1,0.1
						c0,0,0,0.1-0.1,0.1C57.2,70.2,57.3,70.3,57.2,70.3L57.2,70.3z"/>
					<path fill="#6C301E" d="M58.5,70c0.1,0,0.2,0.1,0.3,0.2c0.1,0.1,0.1,0.2,0.2,0.3l0,0c0-0.1-0.1-0.2-0.2-0.3
						C58.6,70.1,58.5,70,58.5,70L58.5,70L58.5,70z"/>
					<path fill="#6C301E" d="M58.4,70.2c0,0.1,0,0.1,0.1,0.2c0.1,0.1,0.2,0.1,0.3,0.2l0,0c-0.2-0.1-0.3-0.1-0.3-0.2
						C58.4,70.3,58.4,70.2,58.4,70.2L58.4,70.2L58.4,70.2z"/>
					<path fill="#6C301E" d="M58.2,70.4c0,0,0.1,0.2,0.2,0.2c0.1,0.1,0.2,0.1,0.3,0.1v0c-0.1,0-0.2,0-0.3-0.1
						C58.3,70.5,58.2,70.4,58.2,70.4L58.2,70.4L58.2,70.4z"/>
					<path fill="#6C301E" d="M58,70.5c0,0,0.1,0.1,0.1,0.2c0.1,0.1,0.2,0.1,0.3,0.1v0c-0.2,0-0.3-0.1-0.3-0.1
						C58.1,70.7,58,70.6,58,70.5L58,70.5L58,70.5z"/>
					<path fill="#6C301E" d="M57.9,70.7c0,0,0.1,0.1,0.2,0.2c0.1,0,0.2,0.1,0.3,0.1v0c-0.1,0-0.2,0-0.3-0.1
						C57.9,70.9,57.9,70.8,57.9,70.7L57.9,70.7L57.9,70.7z"/>
					<path fill="#6C301E" d="M57.7,70.9c0,0,0.1,0.1,0.2,0.2c0.1,0,0.2,0.1,0.3,0.1v0c-0.1,0-0.2,0-0.3-0.1
						C57.7,71.1,57.6,71,57.7,70.9L57.7,70.9L57.7,70.9z"/>
					<path fill="#6C301E" d="M57.5,71.1C57.5,71.1,57.5,71.1,57.5,71.1c0,0.1,0.1,0.2,0.4,0.3v0C57.6,71.4,57.5,71.2,57.5,71.1
						C57.5,71.2,57.5,71.1,57.5,71.1L57.5,71.1L57.5,71.1z"/>
					<path fill="#6C301E" d="M57.3,71.3c0,0,0,0.1,0.1,0.2c0.1,0,0.1,0.1,0.2,0.1l0,0c-0.1,0-0.2-0.1-0.2-0.1
						C57.3,71.4,57.3,71.3,57.3,71.3L57.3,71.3L57.3,71.3z"/>
					<path fill="#6C301E" d="M57.1,70.3C57.1,70.3,57.1,70.3,57.1,70.3C57.1,70.3,57.1,70.3,57.1,70.3L57.1,70.3
						C57.1,70.3,57.1,70.3,57.1,70.3C57.1,70.3,57.1,70.3,57.1,70.3L57.1,70.3L57.1,70.3z"/>
					<path fill="#6C301E" d="M57.1,70.2C57.1,70.2,57.1,70.2,57.1,70.2c0.1,0,0.1,0,0.1,0l0,0C57.2,70.2,57.2,70.2,57.1,70.2
						C57.1,70.2,57.1,70.2,57.1,70.2L57.1,70.2L57.1,70.2z"/>
					<path fill="#6C301E" d="M57.2,70C57.2,70,57.2,70,57.2,70c0.1,0,0.1,0,0.1,0l0,0C57.3,70.1,57.3,70.1,57.2,70
						C57.2,70,57.2,70,57.2,70L57.2,70L57.2,70z"/>
					<path fill="#6C301E" d="M57.3,69.9C57.3,69.9,57.3,69.9,57.3,69.9c0.1,0,0.1,0.1,0.1,0.1l0,0C57.4,69.9,57.3,69.9,57.3,69.9
						C57.3,69.9,57.3,69.9,57.3,69.9L57.3,69.9L57.3,69.9z"/>
					<path fill="#6C301E" d="M57.4,69.8C57.4,69.8,57.4,69.8,57.4,69.8c0.1,0,0.1,0.1,0.1,0.1v0C57.5,69.8,57.5,69.8,57.4,69.8
						C57.4,69.8,57.4,69.8,57.4,69.8L57.4,69.8L57.4,69.8z"/>
					<path fill="#6C301E" d="M57.6,69.6C57.6,69.6,57.6,69.6,57.6,69.6C57.6,69.7,57.6,69.7,57.6,69.6L57.6,69.6
						C57.6,69.7,57.6,69.7,57.6,69.6C57.6,69.7,57.6,69.6,57.6,69.6L57.6,69.6L57.6,69.6z"/>
				</g>
			</g>
			<g>
				
					<path fill-rule="evenodd" clip-rule="evenodd" fill="#406325" stroke="#2F4D18" stroke-width="2.163300e-02" stroke-miterlimit="2.4142" d="
					M54.2,71.7c0.5-0.1,2.7-0.5,3.7,0C57.8,72.2,56.5,72.8,54.2,71.7L54.2,71.7z"/>
				
					<path fill-rule="evenodd" clip-rule="evenodd" fill="#67923D" stroke="#2F4D18" stroke-width="2.163300e-02" stroke-miterlimit="2.4142" d="
					M54.2,71.7c0.5-0.1,2.7-0.5,3.7,0C57.6,71.9,54.2,71.7,54.2,71.7L54.2,71.7z"/>
			</g>
			<g>
				
					<path fill-rule="evenodd" clip-rule="evenodd" fill="#406325" stroke="#2F4D18" stroke-width="1.651000e-02" stroke-miterlimit="2.4142" d="
					M55.8,72.2c0.4-0.1,2.1-0.4,2.8,0C58.6,72.6,57.6,73.1,55.8,72.2L55.8,72.2z"/>
				
					<path fill-rule="evenodd" clip-rule="evenodd" fill="#67923D" stroke="#2F4D18" stroke-width="1.651000e-02" stroke-miterlimit="2.4142" d="
					M55.8,72.2c0.4-0.1,2.1-0.4,2.8,0C58.4,72.4,55.8,72.2,55.8,72.2L55.8,72.2z"/>
			</g>
			<g>
				
					<path fill-rule="evenodd" clip-rule="evenodd" fill="#B2B6BA" stroke="#515E5C" stroke-width="1.752600e-02" stroke-miterlimit="2.4142" d="
					M66.7,70.7l-0.3-0.1l0-0.2c-0.8-1.1-2.9-3.3-5.1-5.3l0.7,0c2.1,1.8,4.1,3.9,4.9,5l0,0.4L66.7,70.7L66.7,70.7z"/>
				
					<path fill-rule="evenodd" clip-rule="evenodd" fill="#8C959D" stroke="#515E5C" stroke-width="1.752600e-02" stroke-miterlimit="2.4142" d="
					M66.7,70.7l-0.3-0.1l0-0.2c-0.8-1.1-2.9-3.3-5.1-5.3l0.3,0c2.2,1.9,4.3,4.1,5.2,5.5L66.7,70.7L66.7,70.7z"/>
			</g>
			<g>
				
					<path fill-rule="evenodd" clip-rule="evenodd" fill="#FAB81C" stroke="#6C301E" stroke-width="2.336900e-02" stroke-miterlimit="2.4142" d="
					M66.5,70.5l0.1,0.1c0,0,0.3-0.1,0.4-0.4c0,0,0.7-0.6,1.2,0c0,0,0.2,0,0.2,0.2c0,0,0.1,0,0.1,0.1c0,0,0.1,0,0.1,0.1
					c0,0,0.1,0,0.1,0.1c0,0,0.1,0.1,0,0.2c0,0,0.2,0.5-0.3,0.9l0,0.1c0,0,0.2,0,0.2,0.2c-0.1,0.2-0.4,0.2-0.5,0.1
					c-0.1-0.1-1-1-1.2-1.2c0,0-0.1,0.3-0.4,0.2c-0.3-0.1-0.4-0.6-0.1-0.6C66.4,70.5,66.4,70.4,66.5,70.5L66.5,70.5z M68.6,70.9
					c0,0,0.1,0.6-0.4,0.8c0,0,0-0.2-0.2-0.2c0,0,0-0.2-0.2-0.2c0,0,0-0.2-0.2-0.2c0,0,0.1-0.2-0.2-0.2c0,0,0.1-0.2-0.2-0.2
					c0,0,0-0.1-0.1-0.2c0,0,0.2-0.2,0.3-0.3c0.1-0.1,0.4-0.2,0.5,0c0,0,0,0.2,0.1,0.2c0,0,0,0.1,0.1,0.1c0,0,0,0.1,0.1,0.1
					c0,0,0,0.1,0,0.1C68.5,70.7,68.4,70.8,68.6,70.9L68.6,70.9z"/>
				<path fill="#6C301E" d="M67.3,70.4c-0.1,0-0.2,0.1-0.3,0.2c-0.1,0.1-0.1,0.2-0.2,0.3l0,0c0-0.1,0.1-0.2,0.2-0.3
					C67.1,70.5,67.2,70.5,67.3,70.4L67.3,70.4L67.3,70.4z"/>
				<path fill="#6C301E" d="M67.3,70.6c0,0.1,0,0.1-0.1,0.2c-0.1,0.1-0.2,0.1-0.3,0.2l0,0c0.2,0,0.3-0.1,0.3-0.2
					C67.3,70.7,67.3,70.7,67.3,70.6L67.3,70.6L67.3,70.6z"/>
				<path fill="#6C301E" d="M67.5,70.8c0,0-0.1,0.2-0.2,0.2c-0.1,0-0.2,0.1-0.3,0.1l0,0c0.1,0,0.2,0,0.3-0.1
					C67.4,71,67.5,70.9,67.5,70.8L67.5,70.8L67.5,70.8z"/>
				<path fill="#6C301E" d="M67.7,71c0,0-0.1,0.1-0.1,0.2c-0.1,0.1-0.2,0.1-0.3,0.1l0,0c0.2,0,0.3,0,0.4-0.1
					C67.6,71.1,67.7,71.1,67.7,71L67.7,71L67.7,71z"/>
				<path fill="#6C301E" d="M67.8,71.2c0,0-0.1,0.1-0.2,0.2c-0.1,0-0.2,0.1-0.3,0.1v0c0.1,0,0.2,0,0.3-0.1
					C67.8,71.4,67.8,71.3,67.8,71.2L67.8,71.2L67.8,71.2z"/>
				<path fill="#6C301E" d="M68,71.4c0,0-0.1,0.1-0.2,0.2c-0.1,0-0.2,0.1-0.3,0.1l0,0c0.1,0,0.2,0,0.3-0.1C68,71.6,68,71.5,68,71.4
					L68,71.4L68,71.4z"/>
				<path fill="#6C301E" d="M68.2,71.6C68.2,71.6,68.2,71.6,68.2,71.6c-0.1,0.1-0.1,0.2-0.4,0.2v0C68.1,71.9,68.1,71.7,68.2,71.6
					C68.2,71.7,68.2,71.7,68.2,71.6L68.2,71.6L68.2,71.6z"/>
				<path fill="#6C301E" d="M68.4,71.8c0,0-0.1,0.1-0.1,0.2c-0.1,0-0.1,0.1-0.2,0.1l0,0c0.1,0,0.2-0.1,0.2-0.1
					C68.3,71.9,68.4,71.9,68.4,71.8L68.4,71.8L68.4,71.8z"/>
				<path fill="#6C301E" d="M68.6,70.8C68.6,70.8,68.6,70.8,68.6,70.8C68.6,70.8,68.6,70.8,68.6,70.8L68.6,70.8
					C68.6,70.9,68.6,70.9,68.6,70.8C68.6,70.9,68.6,70.9,68.6,70.8L68.6,70.8L68.6,70.8z"/>
				<path fill="#6C301E" d="M68.6,70.7C68.6,70.7,68.6,70.7,68.6,70.7c-0.1,0-0.1,0-0.2,0l0,0C68.5,70.7,68.5,70.7,68.6,70.7
					C68.6,70.7,68.6,70.7,68.6,70.7L68.6,70.7L68.6,70.7z"/>
				<path fill="#6C301E" d="M68.6,70.5C68.6,70.5,68.5,70.6,68.6,70.5c-0.1,0-0.1,0-0.1,0l0,0C68.5,70.6,68.5,70.6,68.6,70.5
					C68.5,70.6,68.6,70.6,68.6,70.5L68.6,70.5L68.6,70.5z"/>
				<path fill="#6C301E" d="M68.5,70.4C68.5,70.4,68.5,70.4,68.5,70.4c-0.1,0-0.1,0-0.1,0l0,0C68.4,70.5,68.4,70.4,68.5,70.4
					C68.5,70.4,68.5,70.4,68.5,70.4L68.5,70.4L68.5,70.4z"/>
				<path fill="#6C301E" d="M68.3,70.3C68.3,70.3,68.3,70.3,68.3,70.3c-0.1,0-0.1,0.1-0.1,0.1l0,0C68.3,70.3,68.3,70.3,68.3,70.3
					C68.3,70.3,68.4,70.3,68.3,70.3L68.3,70.3L68.3,70.3z"/>
				<path fill="#6C301E" d="M68.2,70.1C68.2,70.1,68.2,70.1,68.2,70.1C68.2,70.1,68.2,70.1,68.2,70.1L68.2,70.1
					C68.2,70.2,68.2,70.2,68.2,70.1C68.2,70.2,68.2,70.1,68.2,70.1L68.2,70.1L68.2,70.1z"/>
			</g>
			<g>
				
					<path fill-rule="evenodd" clip-rule="evenodd" fill="#406325" stroke="#2F4D18" stroke-width="1.651000e-02" stroke-miterlimit="2.4142" d="
					M70.2,72.2c-0.4-0.1-2.1-0.4-2.8,0C67.4,72.6,68.4,73.1,70.2,72.2L70.2,72.2z"/>
				
					<path fill-rule="evenodd" clip-rule="evenodd" fill="#67923D" stroke="#2F4D18" stroke-width="1.651000e-02" stroke-miterlimit="2.4142" d="
					M70.2,72.2c-0.4-0.1-2.1-0.4-2.8,0C67.6,72.4,70.2,72.2,70.2,72.2L70.2,72.2z"/>
			</g>
			<g>
				<g>
					
						<linearGradient id="SVGID_1_" gradientUnits="userSpaceOnUse" x1="-28829.3477" y1="9668.1592" x2="-28821.1836" y2="9901.9385" gradientTransform="matrix(4.090000e-02 0 0 4.090000e-02 1241.7125 -339.7201)">
						<stop  offset="2.000000e-02" style="stop-color:#F9F0AA"/>
						<stop  offset="0.7688" style="stop-color:#F9F0A9"/>
						<stop  offset="0.98" style="stop-color:#D2B354"/>
					</linearGradient>
					
						<path fill-rule="evenodd" clip-rule="evenodd" fill="url(#SVGID_1_)" stroke="#AFA87C" stroke-width="3.505300e-02" stroke-miterlimit="2.4142" d="
						M59.6,65.3c0,0,6.2-0.4,7-0.4c0,0,1.2-0.6,0.7-2.6c-0.5-2-1.6-4-2.4-5.1c-1-1.4-4.3-1.4-6-1.6c-0.8,0-1.2,1-0.8,1.9
						C58.9,59.1,62.1,64.6,59.6,65.3L59.6,65.3z"/>
					
						<linearGradient id="SVGID_2_" gradientUnits="userSpaceOnUse" x1="-28802.1016" y1="10080.2422" x2="-28800.2246" y2="10133.9688" gradientTransform="matrix(4.090000e-02 0 0 4.090000e-02 1240.2418 -356.848)">
						<stop  offset="4.000000e-02" style="stop-color:#F9F0AA"/>
						<stop  offset="0.5276" style="stop-color:#F9F0A9"/>
						<stop  offset="0.96" style="stop-color:#D2B354"/>
					</linearGradient>
					
						<path fill-rule="evenodd" clip-rule="evenodd" fill="url(#SVGID_2_)" stroke="#AFA87C" stroke-width="3.505300e-02" stroke-miterlimit="2.4142" d="
						M59,55.7c0,0,0.8,0,0.8,0.9c0,0.9-0.8,1-0.8,1c2-0.2,4-0.3,6-0.3c0,0,1.4-0.3,0.2-1.7C63.2,55.5,60.6,55.5,59,55.7L59,55.7z"/>
					
						<linearGradient id="SVGID_3_" gradientUnits="userSpaceOnUse" x1="-28953.7969" y1="10037.0742" x2="-28953.7969" y2="10000.9326" gradientTransform="matrix(4.090000e-02 0 0 4.090000e-02 1243.2906 -352.9769)">
						<stop  offset="0" style="stop-color:#F9F0AA"/>
						<stop  offset="0.53" style="stop-color:#F9F0A9"/>
						<stop  offset="1" style="stop-color:#D2B354"/>
					</linearGradient>
					
						<path fill-rule="evenodd" clip-rule="evenodd" fill="url(#SVGID_3_)" stroke="#AFA87C" stroke-width="3.505300e-02" stroke-miterlimit="2.4142" d="
						M59,57.5c0,0-0.6,0-0.7-0.8c0-0.8,0.7-0.7,0.7-0.7l0.7,0.2c0,0.1,0,0.2,0,0.3C59.8,57.3,59.2,57.5,59,57.5L59,57.5z"/>
					
						<linearGradient id="SVGID_4_" gradientUnits="userSpaceOnUse" x1="-28891.6309" y1="10032.0205" x2="-28891.6309" y2="10003.874" gradientTransform="matrix(4.090000e-02 0 0 4.090000e-02 1241.0836 -353.1351)">
						<stop  offset="0" style="stop-color:#F9F0AA"/>
						<stop  offset="0.53" style="stop-color:#F9F0A9"/>
						<stop  offset="1" style="stop-color:#D2B354"/>
					</linearGradient>
					
						<path fill-rule="evenodd" clip-rule="evenodd" fill="url(#SVGID_4_)" stroke="#AFA87C" stroke-width="3.505300e-02" stroke-miterlimit="2.4142" d="
						M59.2,57.2c0,0,0.2-0.7-0.2-1.1c0,0,0.2,0,0.6,0c0.1,0.1,0.2,0.3,0.2,0.6c0,0.2-0.1,0.4-0.2,0.6L59.2,57.2L59.2,57.2z"/>
					
						<linearGradient id="SVGID_5_" gradientUnits="userSpaceOnUse" x1="-28944.6445" y1="9909.3584" x2="-28944.6445" y2="9852.5303" gradientTransform="matrix(4.090000e-02 0 0 4.090000e-02 1243.36 -340.0023)">
						<stop  offset="0" style="stop-color:#F9F0AA"/>
						<stop  offset="0.53" style="stop-color:#F9F0A9"/>
						<stop  offset="1" style="stop-color:#D2B354"/>
					</linearGradient>
					
						<path fill-rule="evenodd" clip-rule="evenodd" fill="url(#SVGID_5_)" stroke="#AFA87C" stroke-width="3.505300e-02" stroke-miterlimit="2.4142" d="
						M59.6,65.3c0,0-0.6,0.1-0.9-0.6c-0.3-0.7-0.1-1.3,0.1-1.5c0.3-0.2,0.6-0.2,0.9-0.2c0.2,0,0.6,0,0.7-0.1
						C60.6,64.1,60.5,65,59.6,65.3L59.6,65.3z"/>
					
						<linearGradient id="SVGID_6_" gradientUnits="userSpaceOnUse" x1="-28908.5449" y1="9848.3525" x2="-28907.6016" y2="9902.4053" gradientTransform="matrix(4.090000e-02 0 0 4.090000e-02 1241.7125 -339.7201)">
						<stop  offset="1.000000e-02" style="stop-color:#F9F0AA"/>
						<stop  offset="0.7744" style="stop-color:#F9F0A9"/>
						<stop  offset="0.99" style="stop-color:#D2B354"/>
					</linearGradient>
					
						<path fill-rule="evenodd" clip-rule="evenodd" fill="url(#SVGID_6_)" stroke="#AFA87C" stroke-width="3.505300e-02" stroke-miterlimit="2.4142" d="
						M59.6,65.3c0,0-0.6,0.1-0.9-0.6c-0.3-0.7-0.1-1.3,0.1-1.5c0.1-0.1,0.3-0.1,0.4-0.2c0,0,0.7,0,0.9,0.5c0.2,0.6-0.1,1.2-0.5,1.3
						l0.5,0C60.1,65.1,59.8,65.2,59.6,65.3L59.6,65.3z"/>
					
						<linearGradient id="SVGID_7_" gradientUnits="userSpaceOnUse" x1="-28921.6484" y1="9947.167" x2="-28921.6484" y2="9929.9541" gradientTransform="matrix(4.090000e-02 0 0 4.090000e-02 1242.6354 -342.5736)">
						<stop  offset="0" style="stop-color:#F9F0AA"/>
						<stop  offset="0.53" style="stop-color:#F9F0A9"/>
						<stop  offset="1" style="stop-color:#D2B354"/>
					</linearGradient>
					
						<path fill-rule="evenodd" clip-rule="evenodd" fill="url(#SVGID_7_)" stroke="#AFA87C" stroke-width="3.505300e-02" stroke-miterlimit="2.4142" d="
						M60.1,63.6C60.1,63.6,60.1,63.6,60.1,63.6c0.1,0.3,0.1,0.4,0,0.7l-0.5,0c-0.1-0.4-0.3-0.6-0.4-0.6L60.1,63.6L60.1,63.6z
						 M59.3,63.6L59.3,63.6L59.3,63.6C59.3,63.6,59.3,63.6,59.3,63.6L59.3,63.6z"/>
					
						<linearGradient id="SVGID_8_" gradientUnits="userSpaceOnUse" x1="-28921.4766" y1="9915.3457" x2="-28921.4766" y2="9883.5615" gradientTransform="matrix(4.090000e-02 0 0 4.090000e-02 1242.4871 -340.5951)">
						<stop  offset="0" style="stop-color:#F9F0AA"/>
						<stop  offset="0.53" style="stop-color:#F9F0A9"/>
						<stop  offset="1" style="stop-color:#D2B354"/>
					</linearGradient>
					
						<path fill-rule="evenodd" clip-rule="evenodd" fill="url(#SVGID_8_)" stroke="#AFA87C" stroke-width="3.505300e-02" stroke-miterlimit="2.4142" d="
						M59.7,64.9L59.7,64.9c0,0-0.5,0.1-0.6-0.6c-0.2-0.9,0.5-1,0.7-0.1l0.5,0C60.1,64.6,59.9,64.8,59.7,64.9L59.7,64.9z"/>
				</g>
				<path fill="#B07E09" d="M60.2,58.6C60.2,58.6,60.2,58.6,60.2,58.6c0.1-0.1,0.2-0.1,0.3-0.1c0,0,0,0,0,0c0,0,0,0-0.1,0
					c0,0,0,0,0,0c0,0,0,0,0,0c0.1,0.2,0.2,0.4,0.2,0.6c0,0,0,0,0,0c0,0,0,0,0,0c0,0,0.1,0,0.1,0c0,0,0.1,0,0.1-0.1c0,0,0-0.1,0-0.2
					c0,0,0,0,0,0c0,0.1,0.1,0.2,0.1,0.3c-0.2,0-0.3,0-0.5,0c0,0,0,0,0,0c0,0,0,0,0.1,0c0,0,0,0,0,0c0,0,0,0,0,0
					c-0.1-0.2-0.2-0.4-0.2-0.6C60.3,58.6,60.3,58.6,60.2,58.6C60.3,58.6,60.3,58.6,60.2,58.6C60.3,58.6,60.2,58.6,60.2,58.6
					L60.2,58.6z M60.8,58.5c0.1,0,0.2,0,0.3,0c0,0,0,0,0,0c0,0,0,0-0.1,0c0,0,0,0,0,0c0,0,0,0,0,0c0.1,0.2,0.2,0.4,0.2,0.6
					c0,0,0,0,0,0c0,0,0,0,0,0c0,0,0,0,0.1,0c0,0,0,0,0,0c-0.1,0-0.2,0-0.3,0c0,0,0,0,0,0c0,0,0,0,0,0c0,0,0,0,0,0c0,0,0,0,0,0
					c-0.1-0.2-0.2-0.4-0.2-0.6c0,0,0,0,0,0C60.9,58.6,60.9,58.6,60.8,58.5C60.8,58.6,60.8,58.6,60.8,58.5
					C60.8,58.5,60.8,58.5,60.8,58.5L60.8,58.5z M61.1,58.5c0.1,0,0.2,0,0.3,0c0.1,0,0.1,0,0.1,0c0,0,0.1,0.1,0.1,0.1
					c0,0,0,0.1,0,0.1c0,0,0,0.1-0.1,0.1c0.1,0,0.1,0,0.2,0.1c0,0,0.1,0.1,0.1,0.1c0,0,0,0.1,0,0.1c0,0,0,0,0,0.1c0,0-0.1,0-0.1,0
					c-0.1,0-0.2,0-0.3,0c0,0,0,0,0,0c0,0,0,0,0.1,0c0,0,0,0,0,0c0,0,0,0,0,0c-0.1-0.2-0.2-0.4-0.2-0.6
					C61.2,58.6,61.2,58.6,61.1,58.5C61.2,58.5,61.2,58.5,61.1,58.5C61.2,58.5,61.2,58.5,61.1,58.5C61.1,58.5,61.1,58.5,61.1,58.5
					L61.1,58.5z M61.5,58.8C61.5,58.8,61.5,58.8,61.5,58.8c0.1,0,0.1,0,0.1,0c0,0,0-0.1,0-0.1c0,0,0-0.1-0.1-0.1c0,0-0.1,0-0.1,0
					c0,0,0,0,0,0c0,0,0,0,0,0C61.4,58.7,61.4,58.8,61.5,58.8L61.5,58.8z M61.5,58.9c0,0.1,0.1,0.2,0.1,0.3c0,0,0,0,0,0c0,0,0,0,0,0
					c0,0,0.1,0,0.1,0c0,0,0.1,0,0.1,0c0,0,0-0.1,0-0.1c0-0.1,0-0.1-0.1-0.1C61.7,58.9,61.6,58.9,61.5,58.9
					C61.6,58.9,61.5,58.9,61.5,58.9L61.5,58.9z M61.7,58.5c0.2,0,0.3,0,0.5,0c0,0.1,0.1,0.2,0.1,0.3c0,0,0,0,0,0
					c0-0.1-0.1-0.1-0.1-0.1c0,0,0,0-0.1-0.1c0,0-0.1,0-0.1,0c0,0-0.1,0-0.1,0c0,0,0,0,0,0c0,0,0,0,0,0c0,0.1,0.1,0.2,0.1,0.3
					c0,0,0,0,0,0c0,0,0,0,0.1,0c0,0,0-0.1,0-0.1c0,0,0,0,0,0c0,0.1,0.1,0.2,0.1,0.3c0,0,0,0,0,0c0-0.1-0.1-0.1-0.1-0.1
					c0,0-0.1,0-0.1,0c0,0,0,0,0,0c0,0.1,0.1,0.2,0.1,0.3c0,0,0,0,0,0c0,0,0,0,0,0c0,0,0,0,0.1,0c0,0,0.1,0,0.1-0.1c0,0,0-0.1,0-0.2
					c0,0,0,0,0,0c0,0.1,0.1,0.2,0.1,0.3c-0.2,0-0.3,0-0.5,0c0,0,0,0,0,0c0,0,0,0,0.1,0c0,0,0,0,0,0c0,0,0,0,0,0
					c-0.1-0.2-0.2-0.4-0.2-0.6C61.9,58.5,61.9,58.5,61.7,58.5C61.8,58.5,61.8,58.5,61.7,58.5C61.8,58.5,61.8,58.5,61.7,58.5
					C61.8,58.5,61.7,58.5,61.7,58.5L61.7,58.5z M62.4,58.5c0.1,0,0.2,0,0.3,0c0,0,0.1,0,0.1,0c0,0,0.1,0,0.1,0.1c0,0,0,0.1,0.1,0.1
					c0,0.1,0,0.1,0,0.1c0,0-0.1,0-0.1,0.1c0,0,0.1,0,0.1,0c0,0,0,0,0.1,0.1c0,0,0.1,0.1,0.1,0.1c0,0,0,0.1,0,0.1c0,0,0,0,0,0
					c0,0,0,0,0-0.1c0,0,0,0,0,0c0,0.1,0,0.1,0,0.1c0,0,0,0-0.1,0c0,0,0,0-0.1,0c0,0,0,0-0.1-0.1c0,0,0,0-0.1-0.1
					c0-0.1-0.1-0.1-0.1-0.1c0,0,0,0-0.1,0c0,0,0,0-0.1,0c0,0,0,0,0,0c0,0.1,0.1,0.2,0.1,0.3c0,0,0,0,0,0c0,0,0,0,0,0c0,0,0,0,0.1,0
					c0,0,0,0,0,0c-0.1,0-0.2,0-0.3,0c0,0,0,0,0,0c0,0,0,0,0,0c0,0,0,0,0,0c0,0,0,0,0,0c-0.1-0.2-0.2-0.4-0.2-0.6
					C62.5,58.5,62.5,58.5,62.4,58.5C62.4,58.5,62.4,58.5,62.4,58.5C62.4,58.5,62.4,58.5,62.4,58.5C62.4,58.5,62.4,58.5,62.4,58.5
					L62.4,58.5z M62.7,58.8C62.7,58.8,62.7,58.8,62.7,58.8c0.1,0,0.1,0,0.1,0c0,0,0-0.1,0-0.1c0,0,0-0.1-0.1-0.1c0,0-0.1,0-0.1,0
					c0,0,0,0,0,0c0,0,0,0,0,0C62.6,58.6,62.7,58.7,62.7,58.8L62.7,58.8z M63,58.4c0.2,0,0.3,0,0.5,0c0,0.1,0.1,0.2,0.1,0.3
					c0,0,0,0,0,0c0-0.1-0.1-0.1-0.1-0.1c0,0,0-0.1-0.1-0.1c0,0,0,0-0.1,0c0,0,0,0,0,0c0,0,0,0,0,0c0.1,0.2,0.2,0.4,0.2,0.6
					c0,0,0,0,0,0c0,0,0,0,0,0c0,0,0,0,0.1,0c0,0,0,0,0,0c-0.1,0-0.2,0-0.3,0c0,0,0,0,0,0c0,0,0,0,0.1,0c0,0,0,0,0,0c0,0,0,0,0,0
					c-0.1-0.2-0.2-0.4-0.2-0.6c0,0,0,0,0,0c0,0,0,0,0,0c-0.1,0-0.1,0.1,0,0.2c0,0,0,0,0,0C63.1,58.6,63,58.5,63,58.4L63,58.4z
					 M63.8,58.4c0.2,0.2,0.3,0.4,0.5,0.7c0,0,0,0,0,0c0,0,0,0,0,0c0,0,0,0,0,0c0,0,0,0,0,0c-0.1,0-0.2,0-0.3,0c0,0,0,0,0,0
					c0,0,0,0,0,0c0,0,0,0,0,0c0,0,0,0,0,0c0,0,0,0,0,0c0,0-0.1-0.1-0.1-0.1c-0.1,0-0.1,0-0.2,0c0,0,0,0,0,0.1c0,0,0,0,0,0.1
					c0,0,0,0,0,0.1c0,0,0,0,0.1,0c0,0,0,0,0,0c0,0,0,0,0,0c-0.1,0-0.1,0-0.2,0c0,0,0,0,0,0c0,0,0,0,0,0c0,0,0,0,0,0c0,0,0,0,0-0.1
					C63.8,58.8,63.8,58.6,63.8,58.4C63.8,58.4,63.8,58.4,63.8,58.4L63.8,58.4z M63.8,58.6c0,0.1,0,0.2,0,0.3c0.1,0,0.1,0,0.2,0
					C64,58.8,63.9,58.7,63.8,58.6L63.8,58.6z M64.1,58.4c0.1,0,0.2,0,0.3,0c0.1,0,0.1,0,0.2,0c0.1,0,0.1,0.1,0.1,0.1
					c0,0.1,0.1,0.1,0.1,0.2c0,0.1,0,0.1,0,0.2s0,0.1,0,0.1c0,0-0.1,0.1-0.1,0.1c-0.1,0-0.2,0-0.3,0c0,0,0,0,0,0c0,0,0,0,0,0
					c0,0,0,0,0,0c0,0,0,0,0,0c-0.1-0.2-0.1-0.4-0.2-0.6C64.2,58.5,64.2,58.5,64.1,58.4C64.2,58.4,64.2,58.4,64.1,58.4
					C64.2,58.4,64.2,58.4,64.1,58.4C64.1,58.4,64.1,58.4,64.1,58.4L64.1,58.4z M64.7,59.1C64.7,59.1,64.7,59.1,64.7,59.1
					c0.1-0.1,0.1-0.1,0.1-0.1c0,0,0-0.1-0.1-0.2c0-0.1-0.1-0.2-0.1-0.2c0,0-0.1-0.1-0.1-0.1c0,0-0.1,0-0.1,0c0,0,0,0,0,0
					c0,0,0,0,0,0C64.4,58.7,64.5,58.8,64.7,59.1C64.6,59,64.6,59.1,64.7,59.1C64.6,59.1,64.6,59.1,64.7,59.1
					C64.7,59.1,64.7,59.1,64.7,59.1L64.7,59.1z M61.9,59.8C61.9,59.8,62,59.8,61.9,59.8c0.1,0,0.1-0.1,0.2-0.1c0,0,0,0,0,0
					c0.1,0.2,0.2,0.4,0.3,0.6c0,0,0,0,0,0c0,0,0,0,0,0c0,0,0,0,0.1,0c0,0,0,0,0,0c-0.1,0-0.2,0-0.3,0c0,0,0,0,0,0c0,0,0,0,0.1,0
					c0,0,0,0,0,0c0,0,0,0,0,0c-0.1-0.2-0.1-0.3-0.2-0.5c0,0,0,0,0,0C62,59.9,62,59.9,61.9,59.8C62,59.9,62,59.9,61.9,59.8
					C61.9,59.9,61.9,59.8,61.9,59.8L61.9,59.8z M62.3,59.7c0.1,0,0.1,0,0.2,0c0,0,0.1,0,0.1,0c0,0,0,0,0,0c0,0,0,0,0,0
					c0,0,0,0,0,0.1c0,0,0,0,0,0.1c0,0,0,0-0.1,0c0,0-0.1,0-0.1,0c0,0,0,0.1,0,0.1c0,0,0,0,0,0c0,0,0,0,0,0c0,0,0.1,0,0.2,0.1
					c0.1,0,0.1,0.1,0.1,0.2c0,0.1,0,0.1,0,0.2c0,0-0.1,0.1-0.1,0.1c-0.1,0-0.1,0-0.1,0c0,0-0.1-0.1-0.1-0.1c0,0,0-0.1,0-0.1
					c0,0,0,0,0,0c0,0,0,0,0.1,0c0,0,0,0,0,0c0,0,0,0,0,0c0,0,0,0,0,0c0,0,0,0,0,0c0,0,0,0,0,0c0,0,0,0,0.1,0c0,0,0,0,0.1,0
					c0,0,0-0.1,0-0.2c0-0.1-0.1-0.1-0.1-0.1c0,0-0.1,0-0.1,0c0,0,0,0,0,0c0,0,0,0,0,0c0,0,0,0,0,0.1c0,0,0,0,0,0c0,0,0,0,0,0
					c0,0,0,0,0,0c0,0,0,0,0-0.1C62.4,59.9,62.4,59.8,62.3,59.7L62.3,59.7z M62.9,59.7c0.1,0,0.2,0,0.3,0c0.1,0,0.1,0,0.2,0
					c0.1,0,0.1,0.1,0.2,0.1c0,0.1,0.1,0.1,0.1,0.2c0,0.1,0,0.1,0,0.2c0,0.1,0,0.1,0,0.1c0,0-0.1,0.1-0.1,0.1c-0.1,0-0.2,0-0.3,0
					c0,0,0,0,0,0c0,0,0,0,0,0c0,0,0,0,0,0c0,0,0,0,0,0c-0.1-0.2-0.1-0.4-0.2-0.6C63.1,59.7,63,59.7,62.9,59.7
					C63,59.7,63,59.7,62.9,59.7C63,59.7,63,59.7,62.9,59.7C63,59.7,62.9,59.7,62.9,59.7L62.9,59.7z M63.5,60.3
					C63.5,60.3,63.6,60.3,63.5,60.3c0.1-0.1,0.1-0.1,0.1-0.1c0,0,0-0.1-0.1-0.2c0-0.1-0.1-0.2-0.1-0.2c0,0-0.1-0.1-0.1-0.1
					c0,0-0.1,0-0.1,0c0,0,0,0,0,0c0,0,0,0,0,0C63.3,59.9,63.3,60.1,63.5,60.3C63.4,60.3,63.4,60.3,63.5,60.3
					C63.4,60.3,63.4,60.3,63.5,60.3C63.5,60.3,63.5,60.3,63.5,60.3L63.5,60.3z M63.6,59.6c0.2,0,0.3,0,0.5,0c0,0.1,0.1,0.2,0.1,0.3
					c0,0,0,0,0,0c0-0.1-0.1-0.1-0.1-0.1c0,0,0,0-0.1-0.1c0,0-0.1,0-0.1,0c0,0-0.1,0-0.1,0c0,0,0,0,0,0c0,0,0,0,0,0
					c0,0.1,0.1,0.2,0.1,0.3c0,0,0,0,0,0c0,0,0.1,0,0.1,0c0,0,0-0.1,0-0.1c0,0,0,0,0,0c0,0.1,0.1,0.2,0.1,0.3c0,0,0,0,0,0
					c0-0.1-0.1-0.1-0.1-0.1c0,0-0.1,0-0.1,0c0,0,0,0,0,0c0,0.1,0.1,0.2,0.1,0.3c0,0,0,0,0,0c0,0,0,0,0,0c0,0,0,0,0.1,0
					c0,0,0.1,0,0.1-0.1c0,0,0-0.1,0-0.2c0,0,0,0,0,0c0,0.1,0.1,0.2,0.1,0.3c-0.2,0-0.3,0-0.5,0c0,0,0,0,0,0c0,0,0,0,0.1,0
					c0,0,0,0,0,0c0,0,0,0,0,0c-0.1-0.2-0.2-0.4-0.2-0.6C63.7,59.7,63.7,59.7,63.6,59.6C63.7,59.7,63.7,59.7,63.6,59.6
					C63.6,59.7,63.6,59.7,63.6,59.6C63.6,59.7,63.6,59.7,63.6,59.6L63.6,59.6z M61,61C61,61,61,61,61,61C61,61,61,61,61,61
					c0.1,0,0.1,0.1,0.1,0.2c0,0,0,0,0,0C61,61.2,61,61.1,61,61c-0.1,0-0.1,0-0.2,0c0,0-0.1,0-0.1,0c0,0,0,0.1,0,0.1c0,0,0,0,0,0.1
					c0,0,0,0,0.1,0c0,0,0.1,0,0.1,0c0.1,0,0.1,0,0.1,0c0,0,0.1,0,0.1,0.1c0,0,0.1,0.1,0.1,0.1c0,0.1,0,0.1,0,0.2
					c0,0.1-0.1,0.1-0.1,0.1c-0.1,0-0.1,0-0.2-0.1c0,0,0,0,0,0.1c0,0,0,0,0,0c0-0.1-0.1-0.2-0.1-0.3c0,0,0,0,0,0
					c0.1,0.2,0.2,0.2,0.3,0.2c0,0,0.1,0,0.1,0c0,0,0-0.1,0-0.1c0,0,0,0,0-0.1c0,0,0,0-0.1,0c0,0,0,0-0.1,0c-0.1,0-0.1,0-0.2,0
					c0,0-0.1,0-0.1-0.1c0,0,0-0.1-0.1-0.1c0-0.1,0-0.1,0-0.2c0,0,0.1-0.1,0.1-0.1C60.8,61,60.9,61,61,61L61,61z M61.1,61
					c0.2,0,0.3,0,0.5,0c0,0.1,0.1,0.2,0.1,0.3c0,0,0,0,0,0c0-0.1-0.1-0.1-0.1-0.1c0,0,0,0-0.1-0.1c0,0-0.1,0-0.1,0c0,0-0.1,0-0.1,0
					c0,0,0,0,0,0c0,0,0,0,0,0c0,0.1,0.1,0.2,0.1,0.3c0,0,0,0,0,0c0,0,0,0,0.1,0c0,0,0-0.1,0-0.1c0,0,0,0,0,0c0,0.1,0.1,0.2,0.1,0.3
					c0,0,0,0,0,0c0-0.1-0.1-0.1-0.1-0.1c0,0-0.1,0-0.1,0c0,0,0,0,0,0c0,0.1,0.1,0.2,0.1,0.3c0,0,0,0,0,0c0,0,0,0,0,0c0,0,0,0,0.1,0
					c0,0,0.1,0,0.1-0.1c0,0,0-0.1,0-0.2c0,0,0,0,0,0c0,0.1,0.1,0.2,0.1,0.3c-0.2,0-0.3,0-0.5,0c0,0,0,0,0,0c0,0,0,0,0.1,0
					c0,0,0,0,0,0c0,0,0,0,0,0c-0.1-0.2-0.2-0.4-0.2-0.6C61.2,61,61.2,61,61.1,61C61.2,61,61.2,61,61.1,61C61.2,61,61.1,61,61.1,61
					C61.1,61,61.1,61,61.1,61L61.1,61z M61.7,60.9c0.1,0,0.2,0,0.3,0c0.1,0,0.1,0,0.2,0.1c0.1,0,0.1,0.1,0.1,0.1c0,0,0,0.1,0,0.1
					c0,0,0,0.1-0.1,0.1c0,0-0.1,0-0.1,0c0,0-0.1,0-0.1,0c0,0.1,0.1,0.2,0.1,0.2c0,0,0,0,0,0c0,0,0,0,0,0c0,0,0,0,0.1,0c0,0,0,0,0,0
					c-0.1,0-0.2,0-0.3,0c0,0,0,0,0,0c0,0,0,0,0.1,0c0,0,0,0,0,0c0,0,0,0,0,0c-0.1-0.2-0.2-0.4-0.2-0.6C61.8,61,61.8,61,61.7,60.9
					C61.8,61,61.8,61,61.7,60.9C61.8,61,61.8,61,61.7,60.9C61.7,61,61.7,61,61.7,60.9L61.7,60.9z M62.1,61.3
					C62.1,61.3,62.1,61.3,62.1,61.3c0.1,0,0.1,0,0.1,0c0,0,0,0,0-0.1c0,0,0-0.1,0-0.1c0-0.1-0.1-0.1-0.1-0.1c0,0-0.1,0-0.1,0
					c0,0,0,0,0,0c0,0,0,0,0,0C62,61.1,62,61.2,62.1,61.3L62.1,61.3z M62.3,60.9c0.2,0,0.3,0,0.5,0c0,0.1,0.1,0.2,0.1,0.3
					c0,0,0,0,0,0c0-0.1-0.1-0.1-0.1-0.1c0,0-0.1-0.1-0.1-0.1c0,0,0,0-0.1,0c0,0,0,0,0,0c0,0,0,0,0,0c0.1,0.2,0.2,0.4,0.2,0.6
					c0,0,0,0,0,0c0,0,0,0,0,0c0,0,0,0,0.1,0c0,0,0,0,0,0c-0.1,0-0.2,0-0.3,0c0,0,0,0,0,0c0,0,0,0,0.1,0c0,0,0,0,0,0c0,0,0,0,0,0
					c-0.1-0.2-0.2-0.4-0.2-0.6c0,0,0,0,0,0c0,0,0,0,0,0c-0.1,0-0.1,0.1,0,0.2c0,0,0,0,0,0C62.4,61.1,62.3,61,62.3,60.9L62.3,60.9z
					 M62.9,60.9c0.1,0,0.2,0,0.3,0c0,0,0,0,0,0c0,0,0,0-0.1,0c0,0,0,0,0,0c0,0,0,0,0,0c0.1,0.2,0.2,0.4,0.2,0.6c0,0,0,0,0,0
					c0,0,0,0,0,0c0,0,0,0,0,0c0,0,0,0,0,0c-0.1,0-0.2,0-0.3,0c0,0,0,0,0,0c0,0,0,0,0,0c0,0,0,0,0,0c0,0,0,0,0,0
					c-0.1-0.2-0.2-0.4-0.2-0.6c0,0,0,0,0,0C62.9,60.9,62.9,60.9,62.9,60.9C62.9,60.9,62.9,60.9,62.9,60.9
					C62.9,60.9,62.9,60.9,62.9,60.9L62.9,60.9z M63.2,60.9c0.2,0,0.3,0,0.5,0c0,0.1,0.1,0.2,0.1,0.3c0,0,0,0,0,0
					c0-0.1-0.1-0.1-0.1-0.1c0,0,0,0-0.1-0.1c0,0-0.1,0-0.1,0c0,0-0.1,0-0.1,0c0,0,0,0,0,0c0,0,0,0,0,0c0,0.1,0.1,0.2,0.1,0.3
					c0,0,0,0,0,0c0,0,0,0,0.1,0c0,0,0-0.1,0-0.1c0,0,0,0,0,0c0,0.1,0.1,0.2,0.1,0.3c0,0,0,0,0,0c0-0.1-0.1-0.1-0.1-0.1
					c0,0-0.1,0-0.1,0c0,0,0,0,0,0c0,0.1,0.1,0.2,0.1,0.3c0,0,0,0,0,0c0,0,0,0,0,0c0,0,0,0,0.1,0c0,0,0.1,0,0.1-0.1c0,0,0-0.1,0-0.2
					c0,0,0,0,0,0c0,0.1,0.1,0.2,0.1,0.3c-0.2,0-0.3,0-0.5,0c0,0,0,0,0,0c0,0,0,0,0.1,0c0,0,0,0,0,0c0,0,0,0,0,0
					c-0.1-0.2-0.1-0.4-0.2-0.6C63.3,60.9,63.3,60.9,63.2,60.9C63.3,60.9,63.3,60.9,63.2,60.9C63.2,60.9,63.2,60.9,63.2,60.9
					C63.2,60.9,63.2,60.9,63.2,60.9L63.2,60.9z M63.8,60.9c0.1,0,0.1,0,0.2,0c0.1,0.2,0.2,0.3,0.3,0.5c0-0.2,0-0.3-0.1-0.5
					c0.1,0,0.2,0,0.2,0c0,0,0,0,0,0c0,0,0,0-0.1,0c0,0,0,0,0,0c0,0,0,0,0,0c0.1,0.2,0.1,0.4,0.2,0.6c0,0,0,0,0,0c0,0,0,0,0,0
					c0,0,0,0,0,0c0,0,0,0,0,0c-0.1,0-0.2,0-0.3,0c0,0,0,0,0,0c0,0,0,0,0.1,0c0,0,0,0,0,0c0,0,0,0,0,0c-0.1-0.2-0.2-0.4-0.2-0.6
					c0,0.2,0.1,0.5,0.1,0.7c0,0,0,0,0,0c-0.1-0.2-0.3-0.5-0.4-0.7c0.1,0.2,0.1,0.4,0.2,0.5c0,0,0,0.1,0.1,0.1c0,0,0,0,0.1,0
					c0,0,0,0,0,0c-0.1,0-0.1,0-0.2,0c0,0,0,0,0,0c0,0,0,0,0,0c0,0,0,0,0-0.1c-0.1-0.2-0.1-0.3-0.2-0.5
					C63.9,60.9,63.9,60.9,63.8,60.9C63.9,60.9,63.9,60.9,63.8,60.9C63.8,60.9,63.8,60.9,63.8,60.9C63.8,60.9,63.8,60.9,63.8,60.9
					L63.8,60.9z M64.5,60.8c0.1,0,0.2,0,0.3,0c0.1,0,0.1,0,0.1,0c0,0,0.1,0.1,0.1,0.1c0,0,0,0.1,0,0.1c0,0,0,0.1-0.1,0.1
					c0.1,0,0.1,0,0.2,0.1c0,0,0.1,0.1,0.1,0.1c0,0,0,0.1,0,0.1c0,0,0,0,0,0.1c0,0-0.1,0-0.1,0c-0.1,0-0.2,0-0.3,0c0,0,0,0,0,0
					c0,0,0,0,0.1,0c0,0,0,0,0,0c0,0,0,0,0,0c-0.1-0.2-0.2-0.4-0.2-0.6C64.7,60.9,64.6,60.9,64.5,60.8C64.6,60.9,64.6,60.9,64.5,60.8
					C64.6,60.9,64.6,60.9,64.5,60.8C64.6,60.8,64.6,60.8,64.5,60.8L64.5,60.8z M64.9,61.1C64.9,61.1,64.9,61.1,64.9,61.1
					c0.1,0,0.1,0,0.1,0c0,0,0-0.1,0-0.1c0,0,0-0.1-0.1-0.1c0,0-0.1,0-0.1,0c0,0,0,0,0,0c0,0,0,0,0,0C64.8,61,64.8,61.1,64.9,61.1
					L64.9,61.1z M64.9,61.2c0,0.1,0.1,0.2,0.1,0.3c0,0,0,0,0,0c0,0,0,0,0,0c0,0,0,0,0.1,0c0,0,0.1,0,0.1,0c0,0,0-0.1,0-0.1
					c0-0.1,0-0.1-0.1-0.1C65.1,61.2,65,61.2,64.9,61.2C64.9,61.2,64.9,61.2,64.9,61.2L64.9,61.2z M65.2,60.8c0.1,0,0.2,0,0.3,0
					c0,0,0.1,0,0.1,0c0,0,0.1,0,0.1,0.1s0,0.1,0.1,0.1c0,0.1,0,0.1,0,0.1c0,0-0.1,0-0.1,0.1c0,0,0.1,0,0.1,0c0,0,0,0,0.1,0.1
					c0,0,0.1,0.1,0.1,0.1c0,0,0,0.1,0,0.1c0,0,0,0,0,0c0,0,0,0,0-0.1c0,0,0,0,0,0c0,0.1,0,0.1,0,0.1c0,0,0,0-0.1,0c0,0,0,0-0.1,0
					c0,0,0,0-0.1-0.1c0,0,0,0-0.1-0.1c0-0.1-0.1-0.1-0.1-0.1c0,0,0,0,0,0c0,0,0,0-0.1,0c0,0,0,0,0,0c0,0.1,0.1,0.2,0.1,0.3
					c0,0,0,0,0,0c0,0,0,0,0,0c0,0,0,0,0.1,0c0,0,0,0,0,0c-0.1,0-0.2,0-0.3,0c0,0,0,0,0,0c0,0,0,0,0,0c0,0,0,0,0,0c0,0,0,0,0,0
					c-0.1-0.2-0.1-0.4-0.2-0.5C65.3,60.9,65.3,60.8,65.2,60.8C65.2,60.8,65.2,60.8,65.2,60.8C65.2,60.8,65.2,60.8,65.2,60.8
					C65.2,60.8,65.2,60.8,65.2,60.8L65.2,60.8z M65.5,61.1C65.5,61.1,65.5,61.1,65.5,61.1c0.1,0,0.1,0,0.1,0c0,0,0-0.1,0-0.1
					c0,0,0-0.1-0.1-0.1c0,0-0.1,0-0.1,0c0,0,0,0,0,0c0,0,0,0,0,0C65.4,61,65.4,61,65.5,61.1L65.5,61.1z M65.8,60.8
					c0.2,0,0.3,0,0.5,0c0,0.1,0.1,0.2,0.1,0.3c0,0,0,0,0,0c0-0.1-0.1-0.1-0.1-0.1c0,0,0,0-0.1-0.1c0,0-0.1,0-0.1,0c0,0-0.1,0-0.1,0
					c0,0,0,0,0,0c0,0,0,0,0,0c0,0.1,0.1,0.2,0.1,0.2c0,0,0,0,0,0c0,0,0,0,0.1,0c0,0,0-0.1,0-0.1c0,0,0,0,0,0c0,0.1,0.1,0.2,0.1,0.3
					c0,0,0,0,0,0c0-0.1-0.1-0.1-0.1-0.1c0,0-0.1,0-0.1,0c0,0,0,0,0,0c0,0.1,0.1,0.2,0.1,0.3c0,0,0,0,0,0c0,0,0,0,0,0c0,0,0,0,0.1,0
					c0,0,0.1,0,0.1-0.1c0,0,0-0.1,0-0.2c0,0,0,0,0,0c0,0.1,0.1,0.2,0.1,0.3c-0.2,0-0.3,0-0.5,0c0,0,0,0,0,0c0,0,0,0,0.1,0
					c0,0,0,0,0,0c0,0,0,0,0,0c-0.1-0.2-0.1-0.4-0.2-0.6C65.9,60.8,65.9,60.8,65.8,60.8C65.8,60.8,65.8,60.8,65.8,60.8
					C65.8,60.8,65.8,60.8,65.8,60.8C65.8,60.8,65.8,60.8,65.8,60.8L65.8,60.8z M62.4,62.1c0.1,0,0.2,0,0.3,0c0.1,0,0.1,0,0.2,0
					c0.1,0,0.1,0.1,0.1,0.1c0,0.1,0.1,0.1,0.1,0.2c0,0.1,0,0.1,0,0.2s0,0.1,0,0.1c0,0-0.1,0.1-0.1,0.1c-0.1,0-0.2,0-0.3,0
					c0,0,0,0,0,0c0,0,0,0,0,0s0,0,0,0c0,0,0,0,0,0c-0.1-0.2-0.1-0.4-0.2-0.5C62.5,62.2,62.5,62.2,62.4,62.1
					C62.4,62.2,62.4,62.2,62.4,62.1C62.4,62.2,62.4,62.2,62.4,62.1C62.4,62.2,62.4,62.1,62.4,62.1L62.4,62.1z M62.9,62.8
					C62.9,62.8,63,62.8,62.9,62.8c0.1-0.1,0.1-0.1,0.1-0.1c0,0,0-0.1-0.1-0.2c0-0.1-0.1-0.2-0.1-0.2c0,0-0.1-0.1-0.1-0.1
					c0,0-0.1,0-0.1,0c0,0,0,0,0,0c0,0,0,0,0,0C62.7,62.4,62.7,62.6,62.9,62.8C62.8,62.8,62.8,62.8,62.9,62.8
					C62.8,62.8,62.9,62.8,62.9,62.8C62.9,62.8,62.9,62.8,62.9,62.8L62.9,62.8z M63,62.1c0.2,0,0.3,0,0.5,0c0,0.1,0.1,0.2,0.1,0.3
					c0,0,0,0,0,0c0-0.1-0.1-0.1-0.1-0.1c0,0,0,0-0.1-0.1c0,0-0.1,0-0.1,0c0,0-0.1,0-0.1,0c0,0,0,0,0,0c0,0,0,0,0,0
					c0,0.1,0.1,0.2,0.1,0.2c0,0,0,0,0,0c0,0,0,0,0.1,0c0,0,0-0.1,0-0.1c0,0,0,0,0,0c0,0.1,0.1,0.2,0.1,0.3c0,0,0,0,0,0
					c0-0.1-0.1-0.1-0.1-0.1c0,0-0.1,0-0.1,0c0,0,0,0,0,0c0,0.1,0.1,0.2,0.1,0.3c0,0,0,0,0,0c0,0,0,0,0,0c0,0,0,0,0.1,0
					c0,0,0.1,0,0.1-0.1c0,0,0-0.1,0-0.2c0,0,0,0,0,0c0,0.1,0.1,0.2,0.1,0.3c-0.2,0-0.3,0-0.5,0c0,0,0,0,0,0c0,0,0,0,0.1,0
					c0,0,0,0,0,0c0,0,0,0,0,0c-0.1-0.2-0.1-0.4-0.2-0.6c0,0,0,0,0,0C63.1,62.1,63.1,62.1,63,62.1C63,62.1,63,62.1,63,62.1
					C63,62.1,63,62.1,63,62.1L63,62.1z M63.9,62.2C63.9,62.2,64,62.1,63.9,62.2c0.1,0,0.1-0.1,0.2-0.1c0,0,0,0,0,0
					c0.1,0.2,0.2,0.4,0.2,0.6c0,0,0,0,0,0c0,0,0,0,0,0c0,0,0,0,0.1,0c0,0,0,0,0,0c-0.1,0-0.2,0-0.3,0c0,0,0,0,0,0c0,0,0,0,0.1,0
					c0,0,0,0,0,0c0,0,0,0,0,0c-0.1-0.1-0.1-0.3-0.2-0.4c0,0,0,0,0,0C64,62.2,64,62.2,63.9,62.2C64,62.2,63.9,62.2,63.9,62.2
					C63.9,62.2,63.9,62.2,63.9,62.2L63.9,62.2z M64.6,62.3c0.1,0,0.1,0,0.1,0.1c0,0,0.1,0.1,0.1,0.1c0,0.1,0,0.1,0,0.2
					c0,0-0.1,0.1-0.1,0.1c-0.1,0-0.1,0-0.1,0c0,0-0.1-0.1-0.1-0.1c0,0,0-0.1,0-0.1C64.5,62.5,64.5,62.4,64.6,62.3
					c-0.1,0.1-0.2,0-0.2,0c0,0,0-0.1-0.1-0.1c0-0.1,0-0.1,0-0.1c0,0,0-0.1,0.1-0.1c0,0,0.1,0,0.1,0c0,0,0.1,0.1,0.1,0.1
					C64.7,62.2,64.7,62.2,64.6,62.3C64.7,62.3,64.7,62.3,64.6,62.3L64.6,62.3z M64.6,62.3C64.6,62.3,64.6,62.3,64.6,62.3
					c0-0.1,0-0.1,0-0.1c0,0,0-0.1-0.1-0.1c0,0-0.1,0-0.1,0s0,0,0,0c0,0,0,0,0,0.1c0,0,0,0.1,0,0.1C64.5,62.3,64.5,62.3,64.6,62.3
					L64.6,62.3z M64.6,62.4C64.6,62.4,64.6,62.5,64.6,62.4c0,0.1,0,0.1,0,0.1c0,0,0,0.1,0.1,0.1c0,0,0.1,0,0.1,0c0,0,0.1,0,0.1,0
					c0,0,0-0.1,0-0.1c0,0,0-0.1-0.1-0.1C64.7,62.5,64.6,62.5,64.6,62.4L64.6,62.4z M65,62.6c0.1,0,0.1,0,0.2,0c0,0,0,0,0,0
					c0,0,0,0,0-0.1c0,0,0,0,0,0c0,0.1,0.1,0.2,0.1,0.2c-0.1,0-0.2,0-0.3,0C65,62.7,65,62.7,65,62.6C65,62.6,65,62.6,65,62.6
					c0-0.2,0-0.2,0-0.3c0,0,0-0.1,0-0.1c0,0,0-0.1-0.1-0.1c0,0,0,0-0.1,0c0,0,0,0-0.1,0c0,0,0,0,0,0.1c0,0,0,0,0,0c0,0,0,0,0,0
					c0,0,0.1,0,0.1,0.1c0,0,0,0,0,0.1c0,0,0,0,0,0c0,0,0,0-0.1,0c0,0,0,0-0.1-0.1c0-0.1,0-0.1,0-0.1c0,0,0-0.1,0.1-0.1
					c0,0,0.1,0,0.1,0c0,0,0.1,0.1,0.1,0.1c0,0,0,0.1,0,0.1c0,0,0,0.1,0,0.1c0,0,0,0.1,0,0.1C65.1,62.5,65,62.5,65,62.6
					C65,62.6,65,62.6,65,62.6L65,62.6z M65.2,62.1C65.2,62.1,65.3,62.1,65.2,62.1c0.1,0,0.1-0.1,0.2-0.1c0,0,0,0,0,0
					c0.1,0.2,0.2,0.4,0.2,0.6c0,0,0,0,0,0c0,0,0,0,0,0c0,0,0,0,0.1,0c0,0,0,0,0,0c-0.1,0-0.2,0-0.3,0c0,0,0,0,0,0c0,0,0,0,0.1,0
					c0,0,0,0,0,0c0,0,0,0,0,0c-0.1-0.1-0.1-0.3-0.2-0.4c0,0,0,0,0,0C65.3,62.1,65.3,62.1,65.2,62.1C65.3,62.1,65.3,62.1,65.2,62.1
					C65.2,62.1,65.2,62.1,65.2,62.1L65.2,62.1z"/>
			</g>
			<g>
				<path fill-rule="evenodd" clip-rule="evenodd" fill="#4C0505" d="M62.1,53.4c-0.7,1.3,1.2,2.3,2.4,2.1c1.1-0.2-1.7-2.3-1.7-2.3
					L62.1,53.4L62.1,53.4z"/>
				
					<path fill-rule="evenodd" clip-rule="evenodd" fill="#448127" stroke="#3B5C26" stroke-width="3.505300e-02" stroke-miterlimit="2.4142" d="
					M61.8,53.9c0,0,0-0.5,0.4-1c0,0-0.3-0.2-0.1-0.5l-0.1-0.1l0.1,0l0-0.1l0.1,0l0-0.1l0.1,0l0-0.1l0.1,0.1l0-0.1l0.1,0.1l0-0.1
					l0.1,0.1l0.1-0.1l0.1,0.1l0.1-0.1l0,0.1l0.1-0.1l0,0.1l0.1-0.1l0,0.1l0.1-0.1l0,0.1l0.1,0l-0.1,0.1l0.1,0l-0.1,0.1l0.1,0
					l-0.1,0.1l0.1,0.1l-0.1,0l0.1,0.1l-0.1,0l0.1,0.1l-0.1,0l0.1,0.1l-0.1,0l0,0.1c0,0,0.8,0.3,1.8,1.2c1,0.9,2.3,2.2,3,3.1
					c0.7,0.9,1.7,2.9,1.4,5.9c-0.3,3-2.2,5.3-3,6.7c-0.9,1.4-2.2,3.8-2.3,4.2c0,0,0-1.2,2.1-4.6c0,0-2.4,2.9-4.5,3.4
					c0,0,2.4-1.3,4.2-3.8c1.8-2.5,2.3-4,2.6-5c0,0-0.8,1.5-1.6,2.2c0,0,1-1.3,1.6-3.2c0,0-0.8,1.8-1.7,2.4c0,0,4-4.8-0.4-9.2
					c0,0,0,0.1-0.1,0.4c0,0,0-0.5-0.2-0.7c0,0-0.1,0.3-0.1,0.5c0,0-0.2-0.3-0.2-0.6c0,0-0.1,0.4,0.1,0.6c0,0-0.4-0.3-0.4-0.7
					c0,0-0.2,0-0.2,0.4c0,0-0.2-0.2-0.2-0.5c0,0-0.2,0.3-0.6,0.3c0,0,0.1-0.1,0.2-0.3c0,0-0.2,0-0.3,0.3c0,0,0-0.3,0.1-0.4
					c0,0-0.1,0.1-0.3,0.2c0,0,0.1-0.2,0.1-0.4c0,0-0.2,0.1-0.4,0.1c0,0,0.1-0.2,0.1-0.5c0,0-0.2,0.1-0.2,0.2c0,0,0-0.2,0-0.5
					c0,0-0.2,0.1-0.2,0.2c0,0-0.1-0.3,0-0.6c0,0-0.1,0.1-0.2,0.3c0,0-0.1-0.2-0.1-0.4c0,0-0.2,0.2-0.2,0.3c0,0,0-0.2,0-0.3
					c0,0-0.1,0.1-0.2,0.2c0,0-0.1-0.2-0.1-0.4c0,0-0.1,0.1-0.1,0.2c0,0-0.1-0.1,0-0.3c0,0-0.1,0.1-0.1,0.2c0,0-0.2-0.4,0.1-0.8
					C62.4,53.4,62.1,53.4,61.8,53.9L61.8,53.9z"/>
				<path fill="#3B5C26" d="M63.1,53.2c0.3,0,0.7,0.2,1.1,0.5c0.4,0.3,0.7,0.6,1,0.9l0,0c-0.2-0.3-0.6-0.7-1-0.9
					C63.8,53.5,63.4,53.3,63.1,53.2L63.1,53.2L63.1,53.2z"/>
				<path fill="#3B5C26" d="M64.2,54.3c0.1,0.1,0.3,0.2,0.5,0.3c0.1,0.1,0.3,0.1,0.4,0.2c0,0-0.1-0.2-0.5-0.5l0,0
					c0.4,0.3,0.5,0.5,0.5,0.5v0l0,0c-0.1,0-0.3-0.1-0.4-0.2C64.5,54.4,64.3,54.3,64.2,54.3L64.2,54.3L64.2,54.3z"/>
				<path fill="#3B5C26" d="M65,54.6c0.1,0,0.2,0.1,0.3,0.2c0.1,0.1,0.2,0.2,0.3,0.3l0,0l0,0c0,0-0.3-0.1-0.5-0.2l0,0
					c0.1,0.1,0.4,0.1,0.4,0.2c-0.1-0.1-0.2-0.2-0.2-0.3C65.2,54.7,65.1,54.6,65,54.6L65,54.6L65,54.6z"/>
				<path fill="#3B5C26" d="M64.8,54.6c0.1,0.1,0.2,0.2,0.2,0.3c0.1,0.1,0.1,0.1,0.1,0.2l0,0l0,0c0,0-0.6-0.3-0.7-0.4l0,0
					c0.1,0.1,0.6,0.4,0.7,0.4c0-0.1-0.1-0.1-0.1-0.2C65,54.8,64.9,54.7,64.8,54.6L64.8,54.6L64.8,54.6z"/>
				<path fill="#3B5C26" d="M63.7,54c0,0,0.7,0.5,0.9,0.9l0,0l0,0c0,0-0.8-0.3-0.9-0.5l0,0c0.1,0.1,0.8,0.4,0.9,0.5
					C64.4,54.5,63.7,54,63.7,54L63.7,54L63.7,54z"/>
				<path fill="#3B5C26" d="M63.9,54.8c0,0.1,0.1,0.1,0.3,0.2c0.1,0.1,0.2,0.1,0.3,0.1c0,0-0.1-0.2-0.3-0.4l0,0
					c0.3,0.2,0.3,0.4,0.3,0.4l0,0l0,0c-0.1,0-0.2-0.1-0.3-0.1C64,54.9,63.9,54.8,63.9,54.8L63.9,54.8L63.9,54.8z"/>
				<path fill="#3B5C26" d="M64.4,54.9c0.1,0,0.1,0.1,0.2,0.1c0.1,0,0.2,0.1,0.3,0.1c0-0.1-0.2-0.3-0.4-0.4l0,0
					c0.2,0.1,0.4,0.4,0.4,0.4l0,0l0,0c-0.1,0-0.2,0-0.3-0.1C64.5,55,64.4,55,64.4,54.9L64.4,54.9L64.4,54.9z"/>
				<path fill="#3B5C26" d="M65.6,69.8c-0.4,0.5-1.1,1.3-1.9,1.9c-0.6,0.5-1.3,0.9-2,1.3l0,0c0.7-0.3,1.4-0.8,2-1.3
					C64.5,71,65.2,70.3,65.6,69.8L65.6,69.8L65.6,69.8z"/>
				<path fill="#3B5C26" d="M66,70.2c-0.1,0.1-0.2,0.3-0.3,0.5c-0.6,1-1.5,2.6-1.6,3.4l0,0c0.1-0.8,1.1-2.4,1.7-3.4
					C65.8,70.5,65.9,70.3,66,70.2L66,70.2L66,70.2z"/>
				<path fill="#3B5C26" d="M68.2,58.8c0.4,1.2,0.6,2.3,0.4,3.3c-0.2,1.1-0.8,2.2-1.7,3.4l0,0c1-1.2,1.5-2.3,1.7-3.4
					C68.8,61,68.6,59.9,68.2,58.8L68.2,58.8L68.2,58.8z"/>
				<path fill="#3B5C26" d="M68.4,59.1c0.4,1,0.6,2.2,0.3,3.6c-0.2,1.1-0.8,2.4-1.8,3.7l0,0c1-1.3,1.6-2.5,1.8-3.6
					C69,61.3,68.8,60.1,68.4,59.1L68.4,59.1L68.4,59.1z"/>
				<path fill="#3B5C26" d="M68.2,58.3c0.8,1.5,1,3.1,0.6,4.9c-0.3,1.8-1.2,3.7-2.6,5.7l0,0c1.4-1.9,2.2-3.8,2.6-5.7
					C69.2,61.4,69,59.8,68.2,58.3L68.2,58.3L68.2,58.3z"/>
				<path fill="#3B5C26" d="M68,57.6c0,0,1.2,1.9,1.1,5.1c-0.2,3.2-2.5,6.5-2.5,6.5l0,0c0,0,2.3-3.4,2.5-6.5
					C69.3,59.5,68,57.6,68,57.6L68,57.6L68,57.6z"/>
				<path fill="#3B5C26" d="M68.1,66.2c0,0-1.2,2.4-1.8,3.1l0,0C66.9,68.6,68.1,66.2,68.1,66.2L68.1,66.2L68.1,66.2z"/>
				<path fill-rule="evenodd" clip-rule="evenodd" d="M62.7,52.5c0.1,0,0.1,0,0.1,0.1c0,0.1,0,0.1-0.1,0.1c-0.1,0-0.1,0-0.1-0.1
					C62.6,52.5,62.6,52.5,62.7,52.5L62.7,52.5z"/>
				<path fill-rule="evenodd" clip-rule="evenodd" fill="#FFFFFF" d="M62.7,52.5C62.7,52.5,62.7,52.5,62.7,52.5
					C62.7,52.6,62.7,52.6,62.7,52.5C62.7,52.6,62.7,52.6,62.7,52.5C62.7,52.5,62.7,52.5,62.7,52.5L62.7,52.5z"/>
				
					<path fill-rule="evenodd" clip-rule="evenodd" fill="#EAC102" stroke="#A48709" stroke-width="3.505300e-02" stroke-miterlimit="2.4142" d="
					M61.9,52.7c0,0,0.1-0.2,0.3-0.2c0,0,0,0,0,0.1c0,0.1,0,0.1,0,0.1C62.1,52.8,61.9,52.8,61.9,52.7L61.9,52.7z"/>
				<path fill="#A48709" d="M62.1,52.7c0,0-0.2,0-0.2,0.1l0,0C61.9,52.7,62.1,52.7,62.1,52.7L62.1,52.7L62.1,52.7z"/>
			</g>
		</g>
	</g>
	<path opacity="0.25" fill="#FFFFFF" d="M13,29.7v25.5C26.2,62.6,43.7,67,63,67c19.3,0,36.8-4.5,50-11.8V29.7H13z"/>
</g>
</svg>
