<?xml version="1.0" encoding="utf-8"?>
<!-- Generator: Adobe Illustrator 24.3.0, SVG Export Plug-In . SVG Version: 6.00 Build 0)  -->
<svg version="1.1" id="Layer_1" xmlns="http://www.w3.org/2000/svg" xmlns:xlink="http://www.w3.org/1999/xlink" x="0px" y="0px"
	 viewBox="0 0 126 126" enable-background="new 0 0 126 126" xml:space="preserve">
<g>
	<g>
		<polygon fill-rule="evenodd" clip-rule="evenodd" fill="#FFDE27" points="113,63 113,29.7 53,29.7 53,63 113,63 		"/>
		<polygon fill-rule="evenodd" clip-rule="evenodd" fill="#47B71D" points="53,96.3 113,96.3 113,63 53,63 53,96.3 		"/>
		<polygon fill-rule="evenodd" clip-rule="evenodd" fill="#FF1612" points="13,96.3 53,96.3 53,29.7 13,29.7 13,96.3 		"/>
		<polygon fill-rule="evenodd" clip-rule="evenodd" points="22.7,59.5 31.6,59.5 34.3,51 37.1,59.5 46,59.5 38.8,64.7 41.6,73.2 
			34.3,67.9 27.1,73.2 29.9,64.7 22.7,59.5 		"/>
	</g>
	<path opacity="0.25" fill="#FFFFFF" d="M13,29.7v25.5C26.2,62.6,43.7,67,63,67c19.3,0,36.8-4.5,50-11.8V29.7H13z"/>
</g>
</svg>
