<?xml version="1.0" encoding="utf-8"?>
<!-- Generator: Adobe Illustrator 24.3.0, SVG Export Plug-In . SVG Version: 6.00 Build 0)  -->
<svg version="1.1" id="Layer_1" xmlns="http://www.w3.org/2000/svg" xmlns:xlink="http://www.w3.org/1999/xlink" x="0px" y="0px"
	 viewBox="0 0 126 126" enable-background="new 0 0 126 126" xml:space="preserve">
<g>
	<g>
		<polygon fill-rule="evenodd" clip-rule="evenodd" fill="#47B71D" points="13,96.2 113,96.2 113,29.8 13,29.8 113,63 13,96.2 		"/>
		<polygon fill-rule="evenodd" clip-rule="evenodd" fill="#F4F4F4" points="13,29.8 113,63 13,96.2 13,93.3 104.2,63 13,32.7 
			13,29.8 		"/>
		<polygon fill-rule="evenodd" clip-rule="evenodd" fill="#FFDE27" points="23.8,36.3 104.2,63 23.8,89.7 68.4,63 23.8,36.3 		"/>
		<polygon fill-rule="evenodd" clip-rule="evenodd" points="13,29.8 68.4,63 13,96.2 13,92.4 61.9,63 13,33.6 13,29.8 		"/>
		<polygon fill-rule="evenodd" clip-rule="evenodd" fill="#FF1612" points="13,33.6 61.9,63 13,92.4 13,33.6 		"/>
	</g>
	<path opacity="0.35" fill="#FFFFFF" d="M13,29.8v25.5c13.2,7.3,30.7,11.8,50,11.8c19.3,0,36.8-4.5,50-11.8V29.8H13z"/>
</g>
</svg>
