<?xml version="1.0" encoding="utf-8"?>
<!-- Generator: Adobe Illustrator 24.3.0, SVG Export Plug-In . SVG Version: 6.00 Build 0)  -->
<svg version="1.1" id="Layer_1" xmlns="http://www.w3.org/2000/svg" xmlns:xlink="http://www.w3.org/1999/xlink" x="0px" y="0px"
	 viewBox="0 0 126 126" enable-background="new 0 0 126 126" xml:space="preserve">
<g>
	<g>
		<g>
			<g>
				<polygon fill="#0437A0" points="13,29.7 113,29.7 113,63 13,63 13,29.7 				"/>
				<polygon fill="#FF1612" points="13,63 113,63 113,96.3 13,96.3 13,63 				"/>
			</g>
			<g>
				<polygon fill-rule="evenodd" clip-rule="evenodd" fill="#FFFFFF" points="52.1,54.3 73.9,54.3 73.9,71.7 52.1,71.7 52.1,54.3 
									"/>
				<path fill-rule="evenodd" clip-rule="evenodd" fill="#119E07" d="M73.9,69.3v2.4H52.1v-2.5c0.2-0.1,0.4-0.3,0.6-0.3
					c0.4-0.1,0.7-0.1,1.2-0.2c0.4-0.1,0.6-0.4,1-0.5c0.4-0.1,0.9-0.2,1.2-0.3c0.3-0.1,1.1-0.4,1.1-0.4s3.4-1.9,6.3-1.3
					c3,0.5,6,1.5,6.3,1.7c0.3,0.2,0.9,0.3,1.2,0.3c0.3,0.1,0.6,0.4,0.8,0.5c0.3,0.1,0.9,0.3,1.5,0.5C73.5,69.1,73.7,69.2,73.9,69.3
					L73.9,69.3z"/>
				<g>
					<path fill-rule="evenodd" clip-rule="evenodd" fill="#119E07" d="M62.8,59.6c0,0-0.1-0.1-0.1-0.4c0-0.3,0.1-2.1,0.1-2.1
						s0.4,0,0.4,0c0,0,0.1,1.9,0.1,2.1c0,0.2-0.1,0.3-0.2,0.4L62.8,59.6L62.8,59.6z"/>
					<g>
						<g>
							
								<polygon fill-rule="evenodd" clip-rule="evenodd" fill="#F1B517" stroke="#000000" stroke-width="2.963100e-02" stroke-miterlimit="2.4142" points="
								60.8,61.8 62.2,64.6 61.8,64.6 60.6,61.8 60.8,61.8 							"/>
							
								<polygon fill-rule="evenodd" clip-rule="evenodd" fill="#FFFFFF" stroke="#000000" stroke-width="2.963100e-02" stroke-miterlimit="2.4142" points="
								59.9,60.5 60.5,62.1 60.8,62.1 59.9,60.5 							"/>
							
								<polygon fill-rule="evenodd" clip-rule="evenodd" fill="#F1B517" stroke="#000000" stroke-width="2.963100e-02" stroke-miterlimit="2.4142" points="
								61.4,61.3 62.6,64.7 62.3,64.7 61.1,61.3 61.4,61.3 							"/>
							
								<polygon fill-rule="evenodd" clip-rule="evenodd" fill="#FFFFFF" stroke="#000000" stroke-width="2.963100e-02" stroke-miterlimit="2.4142" points="
								60.6,59.9 61,61.7 61.3,61.7 60.6,59.9 							"/>
							
								<polygon fill-rule="evenodd" clip-rule="evenodd" fill="#F1B517" stroke="#000000" stroke-width="2.963100e-02" stroke-miterlimit="2.4142" points="
								62.1,61.5 62.8,64.4 62.6,64.5 61.8,61.5 62.1,61.5 							"/>
							
								<polygon fill-rule="evenodd" clip-rule="evenodd" fill="#FFFFFF" stroke="#000000" stroke-width="2.963100e-02" stroke-miterlimit="2.4142" points="
								61.5,60 61.9,61.7 61.6,61.7 61.5,60 							"/>
						</g>
						<g>
							
								<polygon fill-rule="evenodd" clip-rule="evenodd" fill="#F1B517" stroke="#000000" stroke-width="2.963100e-02" stroke-miterlimit="2.4142" points="
								65.2,61.8 63.8,64.6 64.2,64.6 65.4,61.8 65.2,61.8 							"/>
							
								<polygon fill-rule="evenodd" clip-rule="evenodd" fill="#FFFFFF" stroke="#000000" stroke-width="2.963100e-02" stroke-miterlimit="2.4142" points="
								66.1,60.5 65.5,62.1 65.2,62.1 66.1,60.5 							"/>
							
								<polygon fill-rule="evenodd" clip-rule="evenodd" fill="#F1B517" stroke="#000000" stroke-width="2.963100e-02" stroke-miterlimit="2.4142" points="
								64.6,61.3 63.4,64.7 63.8,64.7 65,61.3 64.6,61.3 							"/>
							
								<polygon fill-rule="evenodd" clip-rule="evenodd" fill="#FFFFFF" stroke="#000000" stroke-width="2.963100e-02" stroke-miterlimit="2.4142" points="
								65.4,59.9 65,61.7 64.7,61.7 65.4,59.9 							"/>
							
								<polygon fill-rule="evenodd" clip-rule="evenodd" fill="#F1B517" stroke="#000000" stroke-width="2.963100e-02" stroke-miterlimit="2.4142" points="
								63.9,61.5 63.2,64.4 63.5,64.5 64.2,61.5 63.9,61.5 							"/>
							
								<polygon fill-rule="evenodd" clip-rule="evenodd" fill="#FFFFFF" stroke="#000000" stroke-width="2.963100e-02" stroke-miterlimit="2.4142" points="
								64.5,60 64.1,61.7 64.4,61.7 64.5,60 							"/>
						</g>
					</g>
					<g>
						<g>
							
								<path fill-rule="evenodd" clip-rule="evenodd" fill="#0437A0" stroke="#000000" stroke-width="2.963100e-02" stroke-miterlimit="2.4142" d="
								M58.5,60.3c-0.6,0.6-0.7,3.1-0.4,3.9c0,0-0.2,1.1,0.7,1.5c0.9,0.4,1.3-0.2,1.5-0.4l0.7,0.4l0.6,0.6l1.3,1V65L58.5,60.3
								L58.5,60.3z"/>
							
								<path fill-rule="evenodd" clip-rule="evenodd" fill="#F90805" stroke="#000000" stroke-width="2.963100e-02" stroke-miterlimit="2.4142" d="
								M61.1,65.7l0.6,0.6l1.3,1V65l-1.2-1.2C61.9,63.7,60.7,63.6,61.1,65.7L61.1,65.7z"/>
							<g>
								
									<polygon fill-rule="evenodd" clip-rule="evenodd" fill="#F1B517" stroke="#000000" stroke-width="2.963100e-02" stroke-miterlimit="2.4142" points="
									57.4,59.1 57.8,59.9 58.3,60 58.2,59.6 57.4,59.1 								"/>
								
									<path fill-rule="evenodd" clip-rule="evenodd" fill="#F1B517" stroke="#000000" stroke-width="2.963100e-02" stroke-miterlimit="2.4142" d="
									M63,64.9l-4.5-4.7l0.1-0.1l-0.2-0.3c0,0-0.4,0.2-0.6,0.5l0.3,0.2l0.2-0.1l4.6,5V64.9L63,64.9z"/>
							</g>
							<path fill-rule="evenodd" clip-rule="evenodd" fill="#F90805" d="M57.5,61.2l0.7-0.7c0,0,0,0,0-0.1l0.3-0.2
								c0,0,0.4,0.3,0.8,0c0,0-0.3,0.8-0.9,0.4l-0.5,0.9L57.5,61.2L57.5,61.2z"/>
							<path fill-rule="evenodd" clip-rule="evenodd" fill="#0437A0" d="M57.5,61.2l0-0.3l0.8-0.5c0,0,0,0.1,0,0.1L57.5,61.2
								L57.5,61.2z M58.4,60.2c0,0,0.5-0.5,0.8,0C58.9,60.4,58.4,60.2,58.4,60.2L58.4,60.2z"/>
						</g>
						<g>
							
								<path fill-rule="evenodd" clip-rule="evenodd" fill="#0437A0" stroke="#000000" stroke-width="2.963100e-02" stroke-miterlimit="2.4142" d="
								M56.7,61.4c-0.5,0.7-0.2,3.2,0.3,3.9c0,0,0,1.1,1,1.3c0.9,0.2,1.3-0.5,1.4-0.7l0.8,0.3l0.7,0.5l2.2,1.1v-1.8L56.7,61.4
								L56.7,61.4z"/>
							
								<path fill-rule="evenodd" clip-rule="evenodd" fill="#F90805" stroke="#000000" stroke-width="2.963100e-02" stroke-miterlimit="2.4142" d="
								M60.2,66.3l0.7,0.5l2.2,1.1v-1.8l-2.4-1.8C60.6,64.3,59.5,64.3,60.2,66.3L60.2,66.3z"/>
							<g>
								
									<polygon fill-rule="evenodd" clip-rule="evenodd" fill="#F1B517" stroke="#000000" stroke-width="2.963100e-02" stroke-miterlimit="2.4142" points="
									55.4,60.4 55.9,61.2 56.4,61.2 56.3,60.8 55.4,60.4 								"/>
								
									<path fill-rule="evenodd" clip-rule="evenodd" fill="#F1B517" stroke="#000000" stroke-width="2.963100e-02" stroke-miterlimit="2.4142" d="
									M63,66l-6.3-4.7l0.1-0.2l-0.2-0.3c0,0-0.3,0.2-0.5,0.6l0.4,0.2l0.1-0.2l6.3,4.9L63,66L63,66L63,66z"/>
							</g>
							<path fill-rule="evenodd" clip-rule="evenodd" fill="#F90805" d="M55.8,62.4l0.6-0.8c0,0,0,0,0-0.1l0.2-0.3
								c0,0,0.5,0.2,0.8-0.1c0,0-0.1,0.9-0.8,0.5l-0.3,1L55.8,62.4L55.8,62.4z"/>
							<path fill-rule="evenodd" clip-rule="evenodd" fill="#0437A0" d="M55.8,62.4l-0.1-0.3l0.7-0.6c0,0,0,0.1,0,0.1L55.8,62.4
								L55.8,62.4z M56.6,61.3c0,0,0.4-0.5,0.8-0.1C57.1,61.5,56.6,61.3,56.6,61.3L56.6,61.3z"/>
						</g>
						<g>
							
								<path fill-rule="evenodd" clip-rule="evenodd" fill="#0437A0" stroke="#000000" stroke-width="2.963100e-02" stroke-miterlimit="2.4142" d="
								M55.6,63.3c-0.2,0.3-0.3,0.9,0.1,1.4c0,0-0.3,1.3,0.8,2.4c0,0,0.2,1.1,1.2,1.2c1,0.1,1.2-0.7,1.3-0.9l0.8,0.2l0.7,0.4
								l2.4,0.8v-1.6L55.6,63.3L55.6,63.3z"/>
							
								<path fill-rule="evenodd" clip-rule="evenodd" fill="#F90805" stroke="#000000" stroke-width="2.963100e-02" stroke-miterlimit="2.4142" d="
								M59.8,67.6l0.7,0.4l2.4,0.8v-1.6l-3.1-1.6C59.9,65.5,58.7,65.7,59.8,67.6L59.8,67.6z"/>
							<g>
								
									<polygon fill-rule="evenodd" clip-rule="evenodd" fill="#F1B517" stroke="#000000" stroke-width="2.963100e-02" stroke-miterlimit="2.4142" points="
									54.2,62.4 54.8,63.1 55.3,63.1 55.1,62.7 54.2,62.4 								"/>
								
									<path fill-rule="evenodd" clip-rule="evenodd" fill="#F1B517" stroke="#000000" stroke-width="2.963100e-02" stroke-miterlimit="2.4142" d="
									M62.6,66.9l-6.9-3.7l0.1-0.2l-0.3-0.3c0,0-0.3,0.3-0.4,0.7l0.4,0.1l0.1-0.2l7,3.9L62.6,66.9L62.6,66.9z"/>
							</g>
							<path fill-rule="evenodd" clip-rule="evenodd" fill="#F90805" d="M54.9,64.4l0.5-0.9c0,0,0,0-0.1,0l0.2-0.3
								c0,0,0.5,0.1,0.8-0.2c0,0,0,0.9-0.8,0.6l-0.2,1L54.9,64.4L54.9,64.4z"/>
							<path fill-rule="evenodd" clip-rule="evenodd" fill="#0437A0" d="M54.9,64.4l-0.1-0.3l0.6-0.7c0,0,0.1,0,0.1,0L54.9,64.4
								L54.9,64.4z M55.5,63.2c0,0,0.3-0.6,0.8-0.2C56,63.3,55.5,63.2,55.5,63.2L55.5,63.2z"/>
						</g>
						<g>
							
								<path fill-rule="evenodd" clip-rule="evenodd" fill="#0437A0" stroke="#000000" stroke-width="2.963100e-02" stroke-miterlimit="2.4142" d="
								M67.5,60.3c0.6,0.6,0.7,3.1,0.4,3.9c0,0,0.1,1.1-0.7,1.5c-0.9,0.4-1.3-0.2-1.5-0.4l-0.7,0.4l-0.6,0.6l-1.3,1V65L67.5,60.3
								L67.5,60.3z"/>
							
								<path fill-rule="evenodd" clip-rule="evenodd" fill="#F90805" stroke="#000000" stroke-width="2.963100e-02" stroke-miterlimit="2.4142" d="
								M64.9,65.7l-0.6,0.6l-1.3,1V65l1.2-1.2C64.2,63.7,65.3,63.6,64.9,65.7L64.9,65.7z"/>
							<g>
								
									<polygon fill-rule="evenodd" clip-rule="evenodd" fill="#F1B517" stroke="#000000" stroke-width="2.963100e-02" stroke-miterlimit="2.4142" points="
									68.6,59.1 68.2,59.9 67.7,60 67.8,59.6 68.6,59.1 								"/>
								
									<path fill-rule="evenodd" clip-rule="evenodd" fill="#F1B517" stroke="#000000" stroke-width="2.963100e-02" stroke-miterlimit="2.4142" d="
									M63,64.9l4.5-4.7L67.3,60l0.2-0.3c0,0,0.4,0.2,0.6,0.5l-0.3,0.2l-0.2-0.1l-4.6,5V64.9L63,64.9z"/>
							</g>
							<path fill-rule="evenodd" clip-rule="evenodd" fill="#F90805" d="M68.5,61.2l-0.7-0.7c0,0,0,0,0-0.1l-0.3-0.2
								c0,0-0.4,0.3-0.8,0c0,0,0.3,0.8,0.9,0.4l0.5,0.9L68.5,61.2L68.5,61.2z"/>
							<path fill-rule="evenodd" clip-rule="evenodd" fill="#0437A0" d="M68.5,61.2l0-0.3l-0.8-0.5c0,0,0,0.1,0,0.1L68.5,61.2
								L68.5,61.2z M67.6,60.2c0,0-0.5-0.5-0.8,0C67.2,60.4,67.6,60.2,67.6,60.2L67.6,60.2z"/>
						</g>
						<g>
							
								<path fill-rule="evenodd" clip-rule="evenodd" fill="#0437A0" stroke="#000000" stroke-width="2.963100e-02" stroke-miterlimit="2.4142" d="
								M69.3,61.4c0.5,0.7,0.2,3.2-0.3,3.9c0,0,0,1.1-1,1.3c-0.9,0.2-1.3-0.5-1.4-0.7l-0.8,0.3l-0.7,0.5L63,67.9v-1.8L69.3,61.4
								L69.3,61.4z"/>
							
								<path fill-rule="evenodd" clip-rule="evenodd" fill="#F90805" stroke="#000000" stroke-width="2.963100e-02" stroke-miterlimit="2.4142" d="
								M65.8,66.3l-0.7,0.5L63,67.9v-1.8l2.4-1.8C65.4,64.3,66.5,64.3,65.8,66.3L65.8,66.3z"/>
							<g>
								
									<polygon fill-rule="evenodd" clip-rule="evenodd" fill="#F1B517" stroke="#000000" stroke-width="2.963100e-02" stroke-miterlimit="2.4142" points="
									70.6,60.4 70.1,61.2 69.6,61.2 69.7,60.8 70.6,60.4 								"/>
								
									<path fill-rule="evenodd" clip-rule="evenodd" fill="#F1B517" stroke="#000000" stroke-width="2.963100e-02" stroke-miterlimit="2.4142" d="
									M63,66l6.3-4.7l-0.1-0.2l0.2-0.3c0,0,0.3,0.2,0.5,0.6l-0.4,0.2l-0.1-0.2l-6.3,4.9L63,66L63,66L63,66z"/>
							</g>
							<path fill-rule="evenodd" clip-rule="evenodd" fill="#F90805" d="M70.2,62.4l-0.6-0.8c0,0,0,0,0-0.1l-0.2-0.3
								c0,0-0.5,0.2-0.8-0.1c0,0,0.1,0.9,0.8,0.5l0.3,1L70.2,62.4L70.2,62.4z"/>
							<path fill-rule="evenodd" clip-rule="evenodd" fill="#0437A0" d="M70.2,62.4l0.1-0.3l-0.7-0.6c0,0,0,0.1,0,0.1L70.2,62.4
								L70.2,62.4z M69.4,61.3c0,0-0.4-0.5-0.8-0.1C68.9,61.5,69.4,61.3,69.4,61.3L69.4,61.3z"/>
						</g>
						<g>
							
								<path fill-rule="evenodd" clip-rule="evenodd" fill="#0437A0" stroke="#000000" stroke-width="2.963100e-02" stroke-miterlimit="2.4142" d="
								M70.4,63.3c0.2,0.3,0.3,0.9-0.1,1.4c0,0,0.3,1.3-0.8,2.4c0,0-0.2,1.1-1.2,1.2c-1,0.1-1.2-0.7-1.3-0.9l-0.8,0.2L65.5,68
								L63,68.7v-1.6L70.4,63.3L70.4,63.3z"/>
							
								<path fill-rule="evenodd" clip-rule="evenodd" fill="#F90805" stroke="#000000" stroke-width="2.963100e-02" stroke-miterlimit="2.4142" d="
								M66.2,67.6L65.5,68L63,68.7v-1.6l3.1-1.6C66.1,65.5,67.3,65.7,66.2,67.6L66.2,67.6z"/>
							<g>
								
									<polygon fill-rule="evenodd" clip-rule="evenodd" fill="#F1B517" stroke="#000000" stroke-width="2.963100e-02" stroke-miterlimit="2.4142" points="
									71.8,62.4 71.2,63.1 70.7,63.1 70.9,62.7 71.8,62.4 								"/>
								
									<path fill-rule="evenodd" clip-rule="evenodd" fill="#F1B517" stroke="#000000" stroke-width="2.963100e-02" stroke-miterlimit="2.4142" d="
									M63.4,66.9l6.9-3.7L70.3,63l0.3-0.3c0,0,0.3,0.3,0.4,0.7l-0.4,0.1l-0.1-0.2l-7,3.9L63.4,66.9L63.4,66.9z"/>
							</g>
							<path fill-rule="evenodd" clip-rule="evenodd" fill="#F90805" d="M71.1,64.4l-0.5-0.9c0,0,0,0,0.1,0l-0.2-0.3
								c0,0-0.5,0.1-0.8-0.2c0,0,0,0.9,0.8,0.6l0.2,1L71.1,64.4L71.1,64.4z"/>
							<path fill-rule="evenodd" clip-rule="evenodd" fill="#0437A0" d="M71.1,64.4l0.1-0.3l-0.6-0.7c0,0-0.1,0-0.1,0L71.1,64.4
								L71.1,64.4z M70.5,63.2c0,0-0.3-0.6-0.8-0.2C70,63.3,70.5,63.2,70.5,63.2L70.5,63.2z"/>
						</g>
					</g>
					<g>
						
							<path fill-rule="evenodd" clip-rule="evenodd" fill="#F1B517" stroke="#000000" stroke-width="2.963100e-02" stroke-miterlimit="2.4142" d="
							M63,67h-0.2c0,0-0.3-2.5-0.3-3.9c0-1.4,0.3-3.6,0.3-3.8l0.2,0l0.2,0c0,0.2,0.3,2.4,0.3,3.8c0,1.4-0.3,3.9-0.3,3.9H63L63,67z"
							/>
						<polygon points="62.7,59.6 63.3,59.6 63.3,59.7 62.7,59.7 62.7,59.6 						"/>
						<polygon points="62.7,60.1 63.3,60.1 63.3,60.1 62.7,60.1 62.7,60.1 						"/>
						<polygon points="62.6,60.6 63.4,60.6 63.4,60.6 62.6,60.6 62.6,60.6 						"/>
						<polygon points="62.6,61.1 63.4,61.1 63.4,61.1 62.6,61.1 62.6,61.1 						"/>
						<polygon points="62.6,61.5 63.5,61.5 63.5,61.6 62.6,61.6 62.6,61.5 						"/>
						<polygon points="62.5,62 63.5,62 63.5,62 62.5,62 62.5,62 						"/>
						<polygon points="62.5,62.5 63.5,62.5 63.5,62.5 62.5,62.5 62.5,62.5 						"/>
						<polygon points="62.5,63 63.5,63 63.5,63 62.5,63 62.5,63 						"/>
						<polygon points="62.5,63.5 63.5,63.5 63.5,63.5 62.5,63.5 62.5,63.5 						"/>
						<polygon points="62.5,63.9 63.5,63.9 63.5,63.9 62.5,63.9 62.5,63.9 						"/>
						<polygon points="62.5,64.4 63.5,64.4 63.5,64.4 62.5,64.4 62.5,64.4 						"/>
						<polygon points="62.6,64.9 63.4,64.9 63.4,64.9 62.6,64.9 62.6,64.9 						"/>
						<polygon points="62.6,65.4 63.4,65.4 63.4,65.4 62.6,65.4 62.6,65.4 						"/>
						<polygon points="62.7,65.8 63.3,65.8 63.3,65.8 62.7,65.8 62.7,65.8 						"/>
						<polygon points="62.7,66.3 63.3,66.3 63.3,66.3 62.7,66.3 62.7,66.3 						"/>
					</g>
					<g>
						
							<path fill-rule="evenodd" clip-rule="evenodd" fill="#119E07" stroke="#000000" stroke-width="2.963100e-02" stroke-miterlimit="2.4142" d="
							M62.1,60.3c0,0-0.1-0.5,0-0.7c0,0,0.2,0.4,0.5,0.5c0,0-0.2-0.6-0.3-0.7c0,0,0.2,0.2,0.4,0.3c0,0-0.2-0.4-0.3-0.5
							c0,0,0.2,0.1,0.3,0.2c0,0-0.2-0.4-0.3-0.5c0,0,0.3,0.1,0.4,0.1c0,0-0.3-0.4-0.3-0.6c0,0,0.2,0.2,0.3,0.3c0,0,0-0.3-0.1-0.4
							c0,0,0.1,0,0.2,0c0,0-0.2-0.3-0.3-0.3l0.2,0l0-0.2c0,0,0.1,0,0.1-0.1c0,0,0-0.2,0-0.2l0.1,0l0.1,0c0,0,0,0.2,0,0.2
							c0,0,0.1,0.1,0.1,0.1l0,0.2l0.2,0c-0.1,0-0.3,0.3-0.3,0.3c0.1,0,0.2,0,0.2,0c0,0.1-0.1,0.4-0.1,0.4c0.1-0.1,0.3-0.3,0.3-0.3
							c0.1,0.2-0.3,0.6-0.3,0.6c0.1-0.1,0.4-0.1,0.4-0.1c-0.1,0.1-0.3,0.5-0.3,0.5c0.1-0.1,0.3-0.2,0.3-0.2c0,0.1-0.3,0.5-0.3,0.5
							c0.2-0.1,0.4-0.3,0.4-0.3c0,0.1-0.3,0.7-0.3,0.7c0.2-0.1,0.5-0.5,0.5-0.5c0.1,0.2,0,0.7,0,0.7c0.3-0.4,0.2-0.9,0.2-0.9
							c0.1,0.1,0.2,0.2,0.2,0.2c0-0.4-0.3-0.7-0.3-0.7c0.1,0,0.3,0.2,0.3,0.2c-0.1-0.3-0.4-0.6-0.4-0.6c0.1,0,0.4,0.2,0.4,0.2
							c-0.1-0.3-0.5-0.6-0.5-0.6c0,0,0.2,0,0.2,0c-0.1-0.1-0.3-0.2-0.3-0.2c0,0,0.2-0.1,0.2-0.1s-0.1-0.1-0.1-0.1c0,0,0.1-0.1,0.2,0
							c0.1,0.1,0.1,0.2,0.1,0.2s0.1-0.1,0.2,0c0,0.1,0,0.3,0,0.3l-0.1,0l0.1,0.1l0,0.2l0.1-0.1c0,0,0,0.3,0,0.3l0.1,0
							c0,0.1,0,0.4,0,0.4c0-0.1,0.1-0.3,0.1-0.3c0.1,0.1,0.1,0.5,0.1,0.5c0-0.1,0.2-0.4,0.2-0.4c0.1,0,0.3,0.3,0.3,0.3
							c0.1-0.5-0.6-1.2-0.6-1.2l0.1-0.1c0.1,0.1,0.2,0.3,0.2,0.3c0,0,0.1-0.2,0.1-0.2c0,0,0.1,0.3,0.1,0.3l0.1-0.2
							c0,0,0.1,0.3,0.1,0.3c0-0.1,0.1-0.3,0.1-0.3c0.1,0.1,0.2,0.5,0.2,0.5l0.1-0.3l0.1,0.2l0.1-0.2l0.1,0.2c0-0.1,0.1-0.1,0.1-0.1
							l0.1,0.1l0.1-0.1c0,0,0.1,0.2,0.1,0.2c0-0.1,0.1-0.2,0.1-0.2l0.3,0.1c-0.6-0.8-2.3-1.2-2.3-1.2l0.1-0.1l0-0.1l0.2,0.2l0.1-0.2
							c0,0.1,0.2,0.2,0.2,0.2c0-0.1,0.1-0.2,0.1-0.2l0.3,0.3c0,0,0.1,0,0.1-0.1c0.1,0,0.2,0.1,0.2,0.1l0.1-0.2
							c0,0.1,0.2,0.3,0.2,0.3c0-0.1,0.1-0.2,0.1-0.2c0.1,0.1,0.3,0.4,0.3,0.4c0-0.1,0.1-0.4,0.1-0.4c0,0.1,0.2,0.6,0.2,0.6
							c0-0.1,0.2-0.3,0.2-0.3c0,0.1,0.1,0.5,0.1,0.5c0-0.1,0.2-0.3,0.2-0.3c0.1,0.1,0.3,0.3,0.3,0.3c0.1-0.7-1.3-1.2-1.4-1.3
							c-0.1,0,0-0.1,0-0.1c0.1,0.1,0.3,0.1,0.3,0.1c0-0.1,0-0.2,0-0.2c0.1,0.1,0.4,0.4,0.4,0.4c0-0.1,0-0.3,0-0.3
							c0.1,0.1,0.3,0.3,0.3,0.3c0-0.1-0.1-0.3-0.1-0.3c0.1,0,0.4,0.3,0.4,0.3c0-0.1,0-0.2,0-0.2c0.3,0.3,0.5,0.2,0.5,0.2
							c-0.8-1.1-3.4-0.4-3.4-0.4c0.3-0.3,0.9-0.4,0.9-0.4c0,0,0.1-0.1,0.1-0.1c0.1,0.1,0.3,0.1,0.3,0.1c0,0-0.1-0.3-0.1-0.3
							c0.1,0.1,0.4,0.3,0.4,0.3c-0.1-0.1-0.1-0.2-0.1-0.2c0.3,0.1,0.6,0.2,0.6,0.2c-0.1-0.1-0.2-0.3-0.2-0.3
							c0.1,0.1,0.5,0.1,0.5,0.1c-1.6-1.1-3.1,0.3-3.6,0.7c-0.4-0.4-2-1.8-3.6-0.7c0,0,0.3,0,0.5-0.1c0,0-0.1,0.2-0.2,0.3
							c0,0,0.3-0.2,0.6-0.2c0,0,0,0.1-0.1,0.2c0,0,0.3-0.1,0.4-0.3c0,0-0.1,0.3-0.1,0.3c0,0,0.2-0.1,0.3-0.1c0,0,0.1,0.1,0.1,0.1
							c0,0,0.6,0.1,0.9,0.4c0,0-2.7-0.6-3.4,0.4c0,0,0.2,0.1,0.5-0.2c0,0,0,0.2,0,0.2c0,0,0.3-0.3,0.4-0.3c0,0-0.1,0.2-0.1,0.3
							c0,0,0.2-0.2,0.3-0.3c0,0,0,0.2,0,0.3c0,0,0.3-0.3,0.4-0.4c0,0,0,0.2,0,0.2c0,0,0.3-0.1,0.3-0.1c0,0,0.1,0.1,0,0.1
							c-0.1,0-1.5,0.5-1.4,1.3c0,0,0.2-0.2,0.3-0.3c0,0,0.1,0.2,0.2,0.3c0,0,0.1-0.4,0.1-0.5c0,0,0.1,0.2,0.1,0.3
							c0,0,0.2-0.5,0.2-0.6c0,0,0.1,0.3,0.1,0.4c0,0,0.3-0.3,0.3-0.4c0,0,0.1,0.1,0.1,0.2c0,0,0.1-0.2,0.2-0.3l0.1,0.2
							c0,0,0.1-0.1,0.2-0.1c0.1,0,0.1,0.1,0.1,0.1l0.3-0.3c0,0,0.1,0.2,0.1,0.2c0,0,0.2-0.2,0.2-0.2l0.1,0.2l0.2-0.2l0,0.1l0.1,0.1
							c0,0-1.7,0.4-2.3,1.2l0.3-0.1c0,0,0,0.2,0.1,0.2c0,0,0.1-0.2,0.1-0.2l0.1,0.1l0.1-0.1c0,0,0.1,0.1,0.1,0.1l0.1-0.2l0.1,0.2
							l0.1-0.2l0.1,0.3c0,0,0.2-0.4,0.2-0.5c0,0,0,0.2,0.1,0.3c0,0,0.1-0.2,0.1-0.3L61,58c0,0,0-0.2,0.1-0.3c0,0,0.1,0.1,0.1,0.2
							c0,0,0.1-0.2,0.1-0.3l0.1,0.1c0,0-0.7,0.8-0.6,1.2c0,0,0.2-0.3,0.3-0.3c0,0,0.1,0.4,0.2,0.4c0,0,0.1-0.4,0.1-0.5
							c0,0,0.1,0.2,0.1,0.3c0,0,0-0.3,0-0.4l0.1,0c0,0,0-0.3,0-0.3l0.1,0.1l0-0.2l0.1-0.1l-0.1,0c0,0,0-0.2,0-0.3c0-0.1,0.2,0,0.2,0
							s0-0.1,0-0.2c0.1-0.1,0.2-0.1,0.2,0c0,0-0.1,0.1-0.1,0.1s0.1,0,0.2,0.1c0,0-0.2,0.1-0.3,0.2c0,0,0.2,0,0.2,0
							c0,0-0.4,0.2-0.5,0.6c0,0,0.3-0.2,0.4-0.2c0,0-0.3,0.3-0.4,0.6c0,0,0.2-0.1,0.3-0.2c0,0-0.2,0.3-0.3,0.7c0,0,0.1-0.1,0.2-0.2
							C61.9,59.4,61.8,59.9,62.1,60.3L62.1,60.3z"/>
						<path d="M62.5,56.8c-0.1-0.1-0.2-0.1-0.3-0.2c-0.2-0.1-0.4-0.2-0.5-0.2l0,0c0.1,0,0.3,0.1,0.5,0.2
							C62.3,56.7,62.5,56.7,62.5,56.8L62.5,56.8L62.5,56.8z"/>
						<path d="M62.3,56.9c-0.2-0.1-0.5-0.2-0.8-0.3c-0.4-0.1-0.8,0-1.3,0.1l0,0c0.5-0.1,1-0.1,1.4-0.1
							C61.9,56.6,62.1,56.7,62.3,56.9L62.3,56.9L62.3,56.9z"/>
						<path d="M62.2,57.1c-0.1,0-0.2,0-0.3,0c-0.1,0-0.2,0-0.3,0.1l0,0c0.1,0,0.2-0.1,0.3-0.1C62,57,62.1,57,62.2,57.1L62.2,57.1
							L62.2,57.1z"/>
						<path d="M62.3,57.1c-0.2,0.1-0.3,0.2-0.4,0.3c-0.2,0.2-0.4,0.3-0.4,0.4l0,0c0.1-0.1,0.2-0.2,0.4-0.4
							C61.9,57.3,62.1,57.2,62.3,57.1L62.3,57.1L62.3,57.1z"/>
						<path d="M62.4,57.2c0,0.1-0.2,0.3-0.2,0.3l0,0C62.1,57.6,62.3,57.4,62.4,57.2L62.4,57.2L62.4,57.2z"/>
						<path d="M62.7,57.4c-0.1,0.1-0.2,0.3-0.2,0.5c-0.1,0.2-0.1,0.4-0.1,0.6c0,0.2,0,0.4-0.1,0.6c0,0.2-0.1,0.4-0.1,0.5l0,0
							c0-0.1,0.1-0.3,0.1-0.5c0-0.2,0.1-0.4,0.1-0.6c0-0.2,0-0.4,0.1-0.6C62.5,57.7,62.5,57.6,62.7,57.4L62.7,57.4L62.7,57.4z"/>
						<path d="M63.3,57.4c0.1,0.2,0.2,0.4,0.2,0.5c0,0.2,0.1,0.4,0.1,0.6l0,0.1c0,0.4,0.1,0.9,0.2,1.1l0,0c-0.1-0.1-0.2-0.6-0.2-1.1
							l0-0.1c0-0.2,0-0.4-0.1-0.6C63.5,57.8,63.4,57.6,63.3,57.4L63.3,57.4L63.3,57.4z"/>
						<path d="M63.6,57.2c0,0.1,0,0.1,0.1,0.2c0.1,0.1,0.1,0.2,0.2,0.2l0,0c0,0-0.1-0.1-0.2-0.2C63.7,57.3,63.6,57.3,63.6,57.2
							L63.6,57.2L63.6,57.2z"/>
						<path d="M63.7,57.1c0.1,0,0.2,0.1,0.4,0.2c0.3,0.2,0.5,0.4,0.5,0.4l0,0c0,0-0.3-0.3-0.5-0.4C63.9,57.3,63.8,57.2,63.7,57.1
							L63.7,57.1L63.7,57.1z"/>
						<path d="M63.8,57c0.1,0,0.2,0,0.3,0c0.1,0,0.3,0,0.3,0.1l0,0c-0.1,0-0.2-0.1-0.3-0.1C63.9,57,63.8,57,63.8,57L63.8,57L63.8,57
							z"/>
						<path d="M63.6,56.9c0.2-0.1,0.4-0.2,0.8-0.3c0.4-0.1,0.9-0.1,1.4,0.1l0,0c-0.6-0.2-1-0.2-1.4-0.1
							C64.1,56.7,63.8,56.8,63.6,56.9L63.6,56.9L63.6,56.9z"/>
						<path d="M63.4,56.8c0.1-0.1,0.2-0.2,0.4-0.2c0.2-0.1,0.4-0.2,0.5-0.2l0,0c-0.1,0-0.3,0.1-0.5,0.2
							C63.7,56.7,63.5,56.8,63.4,56.8L63.4,56.8L63.4,56.8z"/>
					</g>
					<path fill-rule="evenodd" clip-rule="evenodd" fill="#0437A0" d="M62.6,55.5c0.1,0.1,0.4,0.5,0.8,0.4c0.3,0,0.2-0.6,0.3-0.7
						c0-0.2,0.1-0.3-0.2-0.5c-0.3-0.1-0.5-0.1-0.6-0.1c-0.2,0,0,0.1,0,0.2c0,0.1-0.1,0.3-0.2,0.4C62.6,55.3,62.5,55.4,62.6,55.5
						L62.6,55.5z"/>
					
						<path fill-rule="evenodd" clip-rule="evenodd" fill="#F1B517" stroke="#000000" stroke-width="2.963100e-02" stroke-miterlimit="2.4142" d="
						M62.9,57l0-1.6l0.2,0.1l0,1.7C63.1,57.2,63,57.1,62.9,57L62.9,57z"/>
					<path fill-rule="evenodd" clip-rule="evenodd" fill="#F90805" d="M62.6,55.5L62.6,55.5c0.2,0,0.4,0,0.6,0.1
						c0.1,0.1,0.2,0.2,0.3,0.3c0.2-0.1,0.2-0.3,0.2-0.5c-0.3-0.3-0.7-0.3-0.8-0.3c0,0-0.1,0.1-0.1,0.1
						C62.6,55.3,62.5,55.4,62.6,55.5L62.6,55.5z"/>
					<g>
						
							<polygon fill-rule="evenodd" clip-rule="evenodd" fill="#F1B517" stroke="#000000" stroke-width="2.963100e-02" stroke-miterlimit="2.4142" points="
							63.9,65.7 63.6,67 63.9,67.1 64,65.8 63.9,65.7 						"/>
						
							<path fill-rule="evenodd" clip-rule="evenodd" fill="#FFFFFF" stroke="#000000" stroke-width="2.963100e-02" stroke-miterlimit="2.4142" d="
							M64,65.6c-0.1,0-0.2,0-0.3,0c-0.1,0-0.2,0.1-0.1,0.2c0,0,0.4,0,0.4,0C64,65.8,64,65.6,64,65.6L64,65.6z"/>
						
							<path fill-rule="evenodd" clip-rule="evenodd" fill="#FFFFFF" stroke="#000000" stroke-width="2.963100e-02" stroke-miterlimit="2.4142" d="
							M64.6,65.3c0,0-0.3,0.3-0.5,0.3l0,0.1c0,0,0.4,0.2,0.5,0.4c0,0,0-0.2,0.2-0.3C64.8,65.7,64.7,65.4,64.6,65.3L64.6,65.3z"/>
						
							<path fill-rule="evenodd" clip-rule="evenodd" fill="#FFFFFF" stroke="#000000" stroke-width="2.963100e-02" stroke-miterlimit="2.4142" d="
							M63.9,65.8c0.1,0,0.1,0,0.2-0.1c0-0.1,0-0.2,0-0.3c-0.1-0.1-0.2,0-0.2,0C63.9,65.5,63.8,65.8,63.9,65.8L63.9,65.8z"/>
					</g>
					<g>
						
							<polygon fill-rule="evenodd" clip-rule="evenodd" fill="#F1B517" stroke="#000000" stroke-width="2.963100e-02" stroke-miterlimit="2.4142" points="
							62.1,65.7 62.4,67 62.2,67.1 62,65.8 62.1,65.7 						"/>
						
							<path fill-rule="evenodd" clip-rule="evenodd" fill="#FFFFFF" stroke="#000000" stroke-width="2.963100e-02" stroke-miterlimit="2.4142" d="
							M62.1,65.6c0.1,0,0.2,0,0.3,0c0.1,0,0.2,0.1,0.1,0.2c0,0-0.4,0-0.4,0C62.1,65.8,62.1,65.6,62.1,65.6L62.1,65.6z"/>
						
							<path fill-rule="evenodd" clip-rule="evenodd" fill="#FFFFFF" stroke="#000000" stroke-width="2.963100e-02" stroke-miterlimit="2.4142" d="
							M61.5,65.3c0,0,0.3,0.3,0.5,0.3l0,0.1c0,0-0.4,0.2-0.5,0.4c0,0,0-0.2-0.2-0.3C61.2,65.7,61.3,65.4,61.5,65.3L61.5,65.3z"/>
						
							<path fill-rule="evenodd" clip-rule="evenodd" fill="#FFFFFF" stroke="#000000" stroke-width="2.963100e-02" stroke-miterlimit="2.4142" d="
							M62.1,65.8c-0.1,0-0.1,0-0.2-0.1c0-0.1,0-0.2,0-0.3c0.1-0.1,0.2,0,0.2,0C62.2,65.5,62.2,65.8,62.1,65.8L62.1,65.8z"/>
					</g>
					<g>
						
							<path fill-rule="evenodd" clip-rule="evenodd" fill="#0437A0" stroke="#000000" stroke-width="2.963100e-02" stroke-miterlimit="2.4142" d="
							M61.9,67.2v1.6c0,0,0.8,0.7,2.1,0v-1.6C64.1,67.2,63.1,67.8,61.9,67.2L61.9,67.2z"/>
						
							<path fill-rule="evenodd" clip-rule="evenodd" fill="#F1B517" stroke="#000000" stroke-width="2.963100e-02" stroke-miterlimit="2.4142" d="
							M63.8,68.9c0.1,0,0.2-0.1,0.2-0.1v-0.4l-0.2,0.1V68.9L63.8,68.9z"/>
						
							<path fill-rule="evenodd" clip-rule="evenodd" fill="#F1B517" stroke="#000000" stroke-width="2.963100e-02" stroke-miterlimit="2.4142" d="
							M63.1,69.1c0.1,0,0.2,0,0.3,0v-0.4l-0.3,0V69.1L63.1,69.1z"/>
						
							<path fill-rule="evenodd" clip-rule="evenodd" fill="#F1B517" stroke="#000000" stroke-width="2.963100e-02" stroke-miterlimit="2.4142" d="
							M62.3,69c0.1,0,0.2,0.1,0.3,0.1v-0.4l-0.3-0.1V69L62.3,69z"/>
						
							<path fill-rule="evenodd" clip-rule="evenodd" fill="#F1B517" stroke="#000000" stroke-width="2.963100e-02" stroke-miterlimit="2.4142" d="
							M61.9,68.4v0.4c0,0,0,0,0.1,0.1v-0.4L61.9,68.4L61.9,68.4z"/>
						<path fill-rule="evenodd" clip-rule="evenodd" fill="#0437A0" d="M61.9,67.2c-0.1-0.9,2.3-0.8,2.1,0
							C64.1,67.2,63.1,67.8,61.9,67.2L61.9,67.2z"/>
						
							<path fill-rule="evenodd" clip-rule="evenodd" fill="#F1B517" stroke="#000000" stroke-width="2.963100e-02" stroke-miterlimit="2.4142" d="
							M61.9,67.2v1.3c0,0,0.8,0.7,2.1,0v-1.3C64.1,67.2,63.1,67.8,61.9,67.2L61.9,67.2z"/>
						
							<path fill-rule="evenodd" clip-rule="evenodd" fill="#F90805" stroke="#000000" stroke-width="2.963100e-02" stroke-miterlimit="2.4142" d="
							M61.9,67.2v0.4l0.3,0.9l0.1,0.1c0,0,0.1,0,0.2,0l0.1-0.2l0.3-0.6l0.3,0.6l0.1,0.2c0,0,0.1,0,0.1,0l0.1-0.2l0.2-0.6l0.3,0.6
							c0,0,0,0,0.1,0V68l-0.3-0.5l-0.1-0.2c0,0-0.1,0-0.1,0l-0.1,0.1l-0.2,0.5L63,67.5l0,0c-0.1,0-0.2,0-0.3,0l0,0l-0.3,0.6
							l-0.3-0.8C62.1,67.3,62,67.2,61.9,67.2L61.9,67.2z"/>
						<path fill-rule="evenodd" clip-rule="evenodd" fill="#FFFFFF" d="M63,66.7c0.5,0,0.8,0.1,0.8,0.3c0,0.1-0.4,0.3-0.8,0.3
							c-0.5,0-0.8-0.1-0.8-0.3C62.2,66.8,62.5,66.7,63,66.7L63,66.7z"/>
						
							<polygon fill-rule="evenodd" clip-rule="evenodd" fill="#F1B517" stroke="#000000" stroke-width="2.963100e-02" stroke-miterlimit="2.4142" points="
							61.9,66.9 61.9,67.2 62.1,67.3 62.1,67 61.9,66.9 						"/>
						
							<path fill-rule="evenodd" clip-rule="evenodd" fill="#F1B517" stroke="#000000" stroke-width="2.963100e-02" stroke-miterlimit="2.4142" d="
							M62.7,67.2c0,0,0,0.2,0.1,0.3l0.2,0c0,0,0.1-0.1,0.1-0.3L62.7,67.2L62.7,67.2z"/>
						
							<path fill-rule="evenodd" clip-rule="evenodd" fill="#F1B517" stroke="#000000" stroke-width="2.963100e-02" stroke-miterlimit="2.4142" d="
							M63.5,67.1v0.3c0,0,0.2,0,0.2-0.1v-0.3L63.5,67.1L63.5,67.1z"/>
						
							<path fill-rule="evenodd" clip-rule="evenodd" fill="#F1B517" stroke="#000000" stroke-width="2.963100e-02" stroke-miterlimit="2.4142" d="
							M62.3,66.7l0,0.2c0,0,0,0,0.1,0c0.1,0,0.1,0,0.1-0.1l0-0.2L62.3,66.7L62.3,66.7z"/>
						
							<path fill-rule="evenodd" clip-rule="evenodd" fill="#F1B517" stroke="#000000" stroke-width="2.963100e-02" stroke-miterlimit="2.4142" d="
							M62.9,66.5c0,0,0,0.1,0,0.2c0,0,0,0.1,0.1,0.1c0,0,0.1,0,0.1,0s0.1-0.1,0.1-0.1c0-0.1,0-0.2,0-0.2H62.9L62.9,66.5z"/>
						
							<path fill-rule="evenodd" clip-rule="evenodd" fill="#F1B517" stroke="#000000" stroke-width="2.963100e-02" stroke-miterlimit="2.4142" d="
							M63.6,66.6c0,0,0,0.1,0,0.2c0,0.1,0.1,0.1,0.1,0.1s0,0,0-0.1c0-0.1,0-0.1,0-0.1L63.6,66.6L63.6,66.6z"/>
						
							<path fill-rule="evenodd" clip-rule="evenodd" fill="#F1B517" stroke="#000000" stroke-width="2.963100e-02" stroke-miterlimit="2.4142" d="
							M64,66.9c-0.1,0-0.1,0-0.1,0.1c0,0.1,0.2,0.2,0.2,0.2L64,66.9L64,66.9L64,66.9z"/>
					</g>
					
						<path fill-rule="evenodd" clip-rule="evenodd" fill="#F1B517" stroke="#000000" stroke-width="2.963100e-02" stroke-miterlimit="2.4142" d="
						M60.9,67v0.3c0,0-0.1,0.1-0.1,0.2c0,0.1,0,1.2,0,1.2s-0.3,0.1-0.3,0.2s0.2,0.2,0.4,0.2c0.2,0,0.4-0.1,0.4-0.2S61,68.7,61,68.7
						s0-0.2,0-0.2c0,0,0-0.1,0.1-0.1c0.1,0,0.3,0,0.3-0.3c0-0.3,0-0.4,0-0.6c0-0.1-0.1-0.3-0.3-0.3c0,0,0-0.2,0-0.2
						C61.1,67,61.1,67,60.9,67C60.9,67,60.9,67,60.9,67L60.9,67z M60.9,67.7c0,0.1,0,0.2,0,0.3s0.1,0.3,0.2,0.3
						c0.1,0,0.2-0.1,0.2-0.2c0-0.1,0-0.4,0-0.4c0,0-0.1-0.2-0.2-0.2C61,67.4,60.9,67.6,60.9,67.7L60.9,67.7z"/>
					
						<path fill-rule="evenodd" clip-rule="evenodd" fill="#F1B517" stroke="#000000" stroke-width="2.963100e-02" stroke-miterlimit="2.4142" d="
						M65.1,67v0.3c0,0,0.1,0.1,0.1,0.2c0,0.1,0,1.2,0,1.2s0.3,0.1,0.3,0.2s-0.2,0.2-0.4,0.2c-0.2,0-0.4-0.1-0.4-0.2s0.3-0.2,0.3-0.2
						s0-0.2,0-0.2c0,0,0-0.1-0.1-0.1c-0.1,0-0.3,0-0.3-0.3c0-0.3,0-0.4,0-0.6c0-0.1,0.1-0.3,0.3-0.3c0,0,0-0.2,0-0.2
						C64.9,67,64.9,67,65.1,67C65.1,67,65.1,67,65.1,67L65.1,67z M65.1,67.7c0,0.1,0,0.2,0,0.3s-0.1,0.3-0.2,0.3
						c-0.1,0-0.2-0.1-0.2-0.2c0-0.1,0-0.4,0-0.4c0,0,0.1-0.2,0.2-0.2S65.1,67.6,65.1,67.7L65.1,67.7z"/>
					<g>
						<polygon fill="#503200" stroke="#000000" stroke-width="2.963100e-02" stroke-miterlimit="2.4142" points="60.3,68.7 
							57.7,64.9 57.9,64.8 60.4,68.6 60.3,68.7 						"/>
						
							<path fill-rule="evenodd" clip-rule="evenodd" fill="#FFFFFF" stroke="#000000" stroke-width="2.963100e-02" stroke-miterlimit="2.4142" d="
							M57.8,65.1l0.3-0.2c0,0-0.2-0.3-0.3-0.4c-0.1-0.2-0.4-0.1-0.3,0.2C57.5,64.7,57.8,65.1,57.8,65.1L57.8,65.1z"/>
					</g>
					<g>
						<polygon fill="#503200" stroke="#000000" stroke-width="2.963100e-02" stroke-miterlimit="2.4142" points="65.7,68.7 
							68.3,64.9 68.1,64.8 65.6,68.6 65.7,68.7 						"/>
						
							<path fill-rule="evenodd" clip-rule="evenodd" fill="#FFFFFF" stroke="#000000" stroke-width="2.963100e-02" stroke-miterlimit="2.4142" d="
							M68.3,65.1l-0.3-0.2c0,0,0.2-0.3,0.3-0.4c0.1-0.2,0.4-0.1,0.3,0.2C68.5,64.7,68.3,65.1,68.3,65.1L68.3,65.1z"/>
					</g>
					<g>
						
							<path fill-rule="evenodd" clip-rule="evenodd" fill="#F1B517" stroke="#000000" stroke-width="2.963100e-02" stroke-miterlimit="2.4142" d="
							M70.6,65.5c0,0-0.2,0-0.2,0.2l-0.6,0.1c0-0.1-0.3-0.1-0.2,0l-3.3,0.3c0,0,0-0.1-0.1-0.1c-0.1,0-0.1,0.1-0.1,0.1l-0.5,0l0-0.1
							l-0.3,0l0,0.4h0c0,0,0-0.2-0.2-0.1c-0.2,0-0.2,0.2-0.2,0.3c0,0,0.1,0.2,0.2,0.2c0.2,0,0.2-0.1,0.2-0.2l0,0l0.1,0.5l0.3,0
							l0-0.2l0.5,0c0,0,0,0.1,0.2,0.1c0.1,0,0.1-0.1,0.1-0.1l3.3-0.3c0,0,0,0.1,0.1,0.1c0.1,0,0.1-0.1,0.1-0.1l0.7-0.1
							c0,0,0,0.1,0.1,0.1c0.1,0,0.2,0,0.2,0L70.6,65.5L70.6,65.5z"/>
						<polygon points="70.3,65.7 70.4,66.5 70.5,66.5 70.4,65.7 70.3,65.7 						"/>
						<polygon points="69.7,65.8 69.8,66.5 69.8,66.5 69.8,65.8 69.7,65.8 						"/>
						<polygon points="69.5,65.8 69.6,66.5 69.6,66.5 69.5,65.8 69.5,65.8 						"/>
						<polygon points="66.2,66.1 66.3,66.9 66.4,66.9 66.2,66.1 66.2,66.1 						"/>
						<polygon points="66,66.2 66,66.9 66.1,66.9 66,66.2 66,66.2 						"/>
						<polygon points="65.4,66.2 65.6,66.9 65.6,66.9 65.5,66.2 65.4,66.2 						"/>
					</g>
					<g>
						
							<path fill-rule="evenodd" clip-rule="evenodd" fill="#F1B517" stroke="#000000" stroke-width="2.963100e-02" stroke-miterlimit="2.4142" d="
							M68,67l-0.1-1.1h0.2h0.2L68.2,67l0.7-0.8l0.1,0.1l0.1,0.1l-0.8,0.7l1.1-0.1v0.2v0.2l-1.1-0.1l0.8,0.7l-0.1,0.1l-0.1,0.1
							l-0.7-0.8l0.1,1.1h-0.2h-0.2l0.1-1.1l-0.7,0.8l-0.1-0.1L67.1,68l0.8-0.7l-1.1,0.1v-0.2V67l1.1,0.1l-0.8-0.7l0.1-0.1l0.1-0.1
							L68,67L68,67z M68.2,67.2L68.2,67.2L68.2,67.2L68.2,67.2l-0.1,0l0,0l0,0l0,0l0,0l0,0l0,0l0,0l0,0L68.2,67.2L68.2,67.2
							L68.2,67.2L68.2,67.2L68.2,67.2z"/>
						
							<path fill-rule="evenodd" clip-rule="evenodd" fill="#F1B517" stroke="#000000" stroke-width="2.963100e-02" stroke-miterlimit="2.4142" d="
							M68.1,67c0.2,0,0.3,0.1,0.3,0.3c0,0.2-0.1,0.3-0.3,0.3c-0.1,0-0.3-0.1-0.3-0.3C67.9,67.1,68,67,68.1,67L68.1,67z"/>
						<g>
							
								<path fill-rule="evenodd" clip-rule="evenodd" fill="#F1B517" stroke="#000000" stroke-width="2.963100e-02" stroke-miterlimit="2.4142" d="
								M68.1,65.7c0.8,0,1.5,0.7,1.5,1.5c0,0.8-0.7,1.5-1.5,1.5c-0.8,0-1.5-0.7-1.5-1.5C66.6,66.4,67.3,65.7,68.1,65.7L68.1,65.7z
								 M68.1,66c0.7,0,1.2,0.6,1.2,1.2c0,0.7-0.6,1.2-1.2,1.2c-0.7,0-1.2-0.6-1.2-1.2C66.9,66.5,67.4,66,68.1,66L68.1,66z"/>
							<polygon points="68.9,66.3 69.1,66.1 69.1,66.1 68.9,66.3 68.9,66.3 							"/>
							<polygon points="67.1,66.5 66.9,66.3 66.9,66.3 67.2,66.5 67.1,66.5 							"/>
							<polygon points="67.2,68.4 67.4,68.2 67.4,68.2 67.2,68.4 67.2,68.4 							"/>
							<polygon points="69.3,68.2 69.1,68 69.1,68 69.3,68.2 69.3,68.2 							"/>
						</g>
					</g>
					<g>
						
							<path fill-rule="evenodd" clip-rule="evenodd" fill="#119E07" stroke="#FFFFFF" stroke-width="3.085900e-02" stroke-miterlimit="2.4142" d="
							M59.5,65.3c0,0,0,0.7,0.5,0.9c0,0,0.4-0.1,0.5-0.9C60.1,65.6,59.7,65.5,59.5,65.3L59.5,65.3z"/>
						<path fill-rule="evenodd" clip-rule="evenodd" fill="#FFFFFF" d="M59.9,64.9c0.3,0,0.5,0.2,0.5,0.4c0,0.2-0.2,0.4-0.5,0.4
							c-0.3,0-0.5-0.2-0.5-0.4C59.4,65.1,59.6,64.9,59.9,64.9z"/>
						
							<path fill-rule="evenodd" clip-rule="evenodd" fill="#119E07" stroke="#FFFFFF" stroke-width="3.279200e-02" stroke-miterlimit="2.4142" d="
							M60.4,65.4c-0.1,0.2-0.2,0.3-0.5,0.3c-0.2,0-0.4-0.1-0.5-0.3c0-0.1,0-0.1,0,0c0.1,0.1,0.3,0.2,0.5,0.2
							C60.1,65.5,60.3,65.4,60.4,65.4C60.4,65.3,60.4,65.3,60.4,65.4L60.4,65.4z"/>
						
							<path fill-rule="evenodd" clip-rule="evenodd" fill="#119E07" stroke="#FFFFFF" stroke-width="3.279200e-02" stroke-miterlimit="2.4142" d="
							M60.4,65.2c-0.1-0.2-0.2-0.3-0.5-0.3c-0.2,0-0.4,0.1-0.5,0.3c0,0.1,0,0,0,0c0.1-0.1,0.3-0.2,0.5-0.2
							C60.1,65.1,60.3,65.2,60.4,65.2C60.4,65.3,60.4,65.3,60.4,65.2L60.4,65.2z"/>
						
							<path fill-rule="evenodd" clip-rule="evenodd" fill="#119E07" stroke="#F1B517" stroke-width="3.042600e-02" stroke-miterlimit="2.4142" d="
							M59.8,64.8c0.1,0,0.2,0,0.3,0c0,0.2,0,0.4,0,0.6c-0.1,0.1-0.2,0.1-0.3,0C59.8,65.2,59.8,65,59.8,64.8L59.8,64.8z"/>
					</g>
					<g>
						
							<path fill-rule="evenodd" clip-rule="evenodd" fill="#F1B517" stroke="#000000" stroke-width="2.963100e-02" stroke-miterlimit="2.4142" d="
							M55.5,65.5c0,0,0.2,0,0.2,0.2l0.6,0.1c0-0.1,0.3-0.1,0.2,0l3.3,0.3c0,0,0-0.1,0.1-0.1c0.1,0,0.1,0.1,0.1,0.1l0.5,0l0-0.1
							l0.3,0l0,0.4h0c0,0,0-0.2,0.2-0.1c0.2,0,0.2,0.2,0.2,0.3c0,0-0.1,0.2-0.2,0.2c-0.2,0-0.2-0.1-0.2-0.2l0,0l-0.1,0.5l-0.3,0
							l0-0.2l-0.5,0c0,0,0,0.1-0.2,0.1c-0.1,0-0.1-0.1-0.1-0.1l-3.3-0.3c0,0,0,0.1-0.1,0.1c-0.1,0-0.1-0.1-0.1-0.1l-0.7-0.1
							c0,0,0,0.1-0.1,0.1c-0.1,0-0.2,0-0.2,0L55.5,65.5L55.5,65.5z"/>
						<polygon points="55.7,65.7 55.6,66.5 55.5,66.5 55.7,65.7 55.7,65.7 						"/>
						<polygon points="56.3,65.8 56.2,66.5 56.2,66.5 56.2,65.8 56.3,65.8 						"/>
						<polygon points="56.5,65.8 56.4,66.5 56.4,66.5 56.5,65.8 56.5,65.8 						"/>
						<polygon points="59.8,66.1 59.7,66.9 59.7,66.9 59.8,66.1 59.8,66.1 						"/>
						<polygon points="60.1,66.2 60,66.9 60,66.9 60,66.2 60.1,66.2 						"/>
						<polygon points="60.6,66.2 60.5,66.9 60.4,66.9 60.5,66.2 60.6,66.2 						"/>
					</g>
					<g>
						
							<path fill-rule="evenodd" clip-rule="evenodd" fill="#F1B517" stroke="#000000" stroke-width="2.963100e-02" stroke-miterlimit="2.4142" d="
							M57.8,67l-0.1-1.1h0.2h0.2L58,67l0.7-0.8l0.1,0.1l0.1,0.1l-0.8,0.7l1.1-0.1v0.2v0.2l-1.1-0.1L59,68l-0.1,0.1l-0.1,0.1L58,67.4
							l0.1,1.1h-0.2h-0.2l0.1-1.1l-0.7,0.8L57,68.2L56.8,68l0.8-0.7l-1.1,0.1v-0.2V67l1.1,0.1l-0.8-0.7l0.1-0.1l0.1-0.1L57.8,67
							L57.8,67z M57.9,67.2L57.9,67.2L57.9,67.2L57.9,67.2l-0.1,0l0,0l0,0l0,0l0,0l0,0l0,0l0,0l0,0L57.9,67.2L57.9,67.2L57.9,67.2
							L57.9,67.2L57.9,67.2z"/>
						
							<path fill-rule="evenodd" clip-rule="evenodd" fill="#F1B517" stroke="#000000" stroke-width="2.963100e-02" stroke-miterlimit="2.4142" d="
							M57.9,67c0.1,0,0.3,0.1,0.3,0.3c0,0.2-0.1,0.3-0.3,0.3c-0.1,0-0.3-0.1-0.3-0.3C57.6,67.1,57.7,67,57.9,67L57.9,67z"/>
						<g>
							
								<path fill-rule="evenodd" clip-rule="evenodd" fill="#F1B517" stroke="#000000" stroke-width="2.963100e-02" stroke-miterlimit="2.4142" d="
								M57.9,65.7c0.8,0,1.5,0.7,1.5,1.5c0,0.8-0.7,1.5-1.5,1.5c-0.8,0-1.5-0.7-1.5-1.5C56.4,66.4,57.1,65.7,57.9,65.7L57.9,65.7z
								 M57.9,66c0.7,0,1.2,0.6,1.2,1.2c0,0.7-0.6,1.2-1.2,1.2c-0.7,0-1.2-0.6-1.2-1.2C56.7,66.5,57.2,66,57.9,66L57.9,66z"/>
							<polygon points="58.7,66.3 58.9,66.1 58.9,66.1 58.7,66.3 58.7,66.3 							"/>
							<polygon points="56.9,66.5 56.7,66.3 56.7,66.3 56.9,66.5 56.9,66.5 							"/>
							<polygon points="56.9,68.4 57.1,68.2 57.1,68.2 57,68.4 56.9,68.4 							"/>
							<polygon points="59.1,68.2 58.8,68 58.9,68 59.1,68.2 59.1,68.2 							"/>
						</g>
					</g>
					<g>
						
							<path fill-rule="evenodd" clip-rule="evenodd" fill="#F1B517" stroke="#000000" stroke-width="2.963100e-02" stroke-miterlimit="2.4142" d="
							M65.9,66c0,0-0.2-0.6,0.2-0.7c0.3,0,0.5,0.3,0.6,0.4c0,0.2,0,0.4-0.3,0.3c0,0-0.2,0.3-0.5,0.2C65.6,66.2,65.9,66,65.9,66
							L65.9,66z"/>
						<path d="M66.5,66c-0.1,0-0.1,0-0.2,0c-0.1,0-0.1,0-0.1,0.1l0,0l0,0c0,0-0.1-0.1-0.2-0.1l0,0c0.1,0,0.2,0.1,0.2,0.1
							c0,0,0.1-0.1,0.1-0.1C66.3,65.9,66.4,65.9,66.5,66L66.5,66L66.5,66z"/>
						
							<path fill-rule="evenodd" clip-rule="evenodd" fill="#F90805" stroke="#F1B517" stroke-width="2.963100e-02" stroke-miterlimit="2.4142" d="
							M66,65.1c-0.2,0.1-0.3,0.1-0.3,0.2c0,0.1,0.1,0.2,0.2,0.2c0.1,0,0.1-0.2,0.2-0.2c0.2,0.1,0.2,0.1,0.2,0.1
							C66.4,65.4,66.4,65,66,65.1L66,65.1z"/>
					</g>
					<g>
						
							<path fill-rule="evenodd" clip-rule="evenodd" fill="#FFFFFF" stroke="#000000" stroke-width="2.963100e-02" stroke-miterlimit="2.4142" d="
							M66.5,68.2l0.2-0.1c0,0,0.2,0.1,0.1,0.3l-0.2,0c0,0-0.2,0.1-0.1,0.2c0.1,0.1,0.4,0,0.5,0c0,0,0,0.3-0.3,0.4
							c-0.3,0.1-0.6,0-0.7-0.2C65.9,68.7,65.9,68.3,66.5,68.2L66.5,68.2z"/>
						<path d="M66.5,68.2C66.5,68.3,66.5,68.3,66.5,68.2c0.1,0.1,0.1,0.1,0.1,0.1l0,0C66.5,68.4,66.5,68.3,66.5,68.2
							C66.5,68.3,66.5,68.3,66.5,68.2L66.5,68.2L66.5,68.2z"/>
					</g>
					<g>
						
							<path fill-rule="evenodd" clip-rule="evenodd" fill="#FFFFFF" stroke="#000000" stroke-width="2.963100e-02" stroke-miterlimit="2.4142" d="
							M59.6,68.2l-0.2-0.1c0,0-0.2,0.1-0.1,0.3l0.2,0c0,0,0.2,0.1,0.2,0.2c-0.1,0.1-0.4,0-0.5,0c0,0,0,0.3,0.3,0.4
							c0.3,0.1,0.6,0,0.7-0.2C60.2,68.7,60.1,68.3,59.6,68.2L59.6,68.2z"/>
						<path d="M59.6,68.2C59.5,68.3,59.5,68.3,59.6,68.2c-0.1,0.1-0.1,0.1-0.1,0.1l0,0C59.5,68.4,59.5,68.3,59.6,68.2
							C59.5,68.3,59.6,68.3,59.6,68.2L59.6,68.2L59.6,68.2z"/>
					</g>
					<g>
						<path fill-rule="evenodd" clip-rule="evenodd" fill="#F90805" d="M53.9,66.7c0,0-0.4,0-0.6,0c-0.1,0-0.1,0.1,0,0.2
							c0.1,0.1,0.1,0.2-0.1,0.3c-0.2,0.1-0.9,0-0.9,0s0.2-0.1,0.4-0.1c0.2,0,0.3,0,0.4-0.1c0.1,0,0.1-0.1,0-0.2s0-0.4,0.4-0.4
							L53.9,66.7L53.9,66.7z"/>
						
							<path fill-rule="evenodd" clip-rule="evenodd" fill="#503200" stroke="#000000" stroke-width="2.963100e-02" stroke-miterlimit="2.4142" d="
							M54.5,67.2c0,0-1.1-0.9-1.2-1c-0.1-0.1,0-0.2,0.1-0.1C53.5,66.3,54.6,67.2,54.5,67.2L54.5,67.2L54.5,67.2z"/>
						
							<polygon fill-rule="evenodd" clip-rule="evenodd" fill="#F1B517" stroke="#000000" stroke-width="2.963100e-02" stroke-miterlimit="2.4142" points="
							55.4,68.1 54.6,67.4 54.3,67.4 54.7,67 54.7,67.2 55.7,68.1 55.4,68.1 						"/>
						<polygon points="54.9,68.3 54.8,67.5 54.8,67.5 55,68.3 54.9,68.3 						"/>
						<polygon points="55.2,68.2 55,67.7 55,67.7 55.2,68.2 55.2,68.2 						"/>
						<polygon points="55.8,68 55.3,67.7 55.3,67.7 55.8,68 55.8,68 						"/>
						<polygon points="56.1,68 54.9,67.4 54.9,67.4 56.1,67.9 56.1,68 						"/>
					</g>
					<g>
						<path fill-rule="evenodd" clip-rule="evenodd" fill="#F90805" d="M72.1,66.7c0,0,0.4,0,0.6,0c0.1,0,0.1,0.1,0,0.2
							c-0.1,0.1-0.1,0.2,0.1,0.3c0.2,0.1,0.9,0,0.9,0S73.6,67,73.4,67c-0.2,0-0.3,0-0.4-0.1c-0.1,0-0.1-0.1,0-0.2
							c0.1-0.1,0-0.4-0.4-0.4L72.1,66.7L72.1,66.7z"/>
						
							<path fill-rule="evenodd" clip-rule="evenodd" fill="#503200" stroke="#000000" stroke-width="2.963100e-02" stroke-miterlimit="2.4142" d="
							M71.5,67.2c0,0,1.1-0.9,1.2-1c0.1-0.1,0-0.2-0.1-0.1C72.5,66.3,71.4,67.2,71.5,67.2L71.5,67.2L71.5,67.2z"/>
						
							<polygon fill-rule="evenodd" clip-rule="evenodd" fill="#F1B517" stroke="#000000" stroke-width="2.963100e-02" stroke-miterlimit="2.4142" points="
							70.6,68.1 71.4,67.4 71.7,67.4 71.3,67 71.3,67.2 70.3,68.1 70.6,68.1 						"/>
						<polygon points="71.1,68.3 71.3,67.5 71.2,67.5 71.1,68.3 71.1,68.3 						"/>
						<polygon points="70.8,68.2 71,67.7 71,67.7 70.8,68.2 70.8,68.2 						"/>
						<polygon points="70.2,68 70.8,67.7 70.8,67.7 70.2,68 70.2,68 						"/>
						<polygon points="69.9,68 71.1,67.4 71.1,67.4 69.9,67.9 69.9,68 						"/>
					</g>
					
						<path fill-rule="evenodd" clip-rule="evenodd" fill="#F1B517" stroke="#000000" stroke-width="2.963100e-02" stroke-miterlimit="2.4142" d="
						M71.1,68.9c0,0-0.3-0.2-0.3-0.3c0.1-0.1,0.4,0.1,0.4,0.1s0.1-0.2,0.2-0.1c0.1,0.1,0,0.2,0,0.2l1.5,0.6c0,0,0.1-0.3,0-0.5
						c0,0-0.1,0.1-0.2,0.1c0,0,0-0.6-0.2-0.9c0,0,0.6,0.4,0.9,0.8c0,0-0.2-0.1-0.3-0.1c0,0,0,0.2,0.4,0.7c0,0-0.3,0.1-0.4,0.3
						c0,0.1,0,0.2,0,0.2h-0.3c0,0-0.1-0.2,0.1-0.3L71.3,69c0,0-0.1,0.2-0.2,0.2C70.9,69.1,71.1,68.9,71.1,68.9L71.1,68.9z"/>
					<path d="M71.1,68.9C71.1,68.9,71.1,68.9,71.1,68.9c0.1-0.1,0.1-0.2,0.1-0.2l0,0C71.2,68.7,71.2,68.8,71.1,68.9
						C71.1,68.9,71.1,68.9,71.1,68.9L71.1,68.9L71.1,68.9z"/>
					<path d="M71.3,69c0,0,0-0.1,0.1-0.2c0,0,0.1-0.1,0.1-0.1l0,0c0,0-0.1,0.1-0.1,0.1C71.3,68.9,71.3,69,71.3,69L71.3,69L71.3,69z"
						/>
					
						<path fill-rule="evenodd" clip-rule="evenodd" fill="#F1B517" stroke="#000000" stroke-width="2.963100e-02" stroke-miterlimit="2.4142" d="
						M54.7,69l-1.7,0.6c0,0,0-0.2,0.3-0.4c0,0,0.1,0.1,0.1,0.2c0,0,0-0.4,0.4-0.6c0,0-0.6,0.1-0.9,0.3c0,0,0.1,0,0.2,0
						c0,0-0.4,0.5-0.5,0.7c0,0,0.1,0.2,0.9,0.3c0,0-0.1,0.1-0.2,0.2c0,0,0.4,0,1-0.3c0,0-0.6-0.2-0.7-0.3c0,0,0,0.1,0,0.2
						c0,0-0.4-0.1-0.5-0.2l1.7-0.5c0,0,0.1,0.3,0.3,0.3c0.2,0,0.1-0.3,0.1-0.3c0.2,0.1,0.3-0.1,0.3-0.2c-0.1-0.1-0.3-0.2-0.3,0
						c0,0-0.1-0.3-0.2-0.3C54.6,68.7,54.6,68.9,54.7,69L54.7,69z M55.1,68.9C55.2,68.9,55.2,69,55.1,68.9c0.1,0.1,0,0.2,0,0.2
						C55.1,69.1,55.1,69.1,55.1,68.9C55.1,69,55.1,68.9,55.1,68.9L55.1,68.9z"/>
					
						<path fill-rule="evenodd" clip-rule="evenodd" fill="#F1B517" stroke="#000000" stroke-width="2.963100e-02" stroke-miterlimit="2.4142" d="
						M55.9,69.2c0.1,0,0.2,0.1,0.2,0.2c0,0.1-0.1,0.2-0.2,0.2c-0.1,0-0.2-0.1-0.2-0.2C55.8,69.2,55.8,69.2,55.9,69.2L55.9,69.2z"/>
					
						<path fill-rule="evenodd" clip-rule="evenodd" fill="#F1B517" stroke="#000000" stroke-width="2.963100e-02" stroke-miterlimit="2.4142" d="
						M56.3,69.2c0.1,0,0.2,0.1,0.2,0.2c0,0.1-0.1,0.2-0.2,0.2c-0.1,0-0.2-0.1-0.2-0.2C56.2,69.2,56.2,69.2,56.3,69.2L56.3,69.2z"/>
					
						<path fill-rule="evenodd" clip-rule="evenodd" fill="#F1B517" stroke="#000000" stroke-width="2.963100e-02" stroke-miterlimit="2.4142" d="
						M56.7,69.2c0.1,0,0.2,0.1,0.2,0.2c0,0.1-0.1,0.2-0.2,0.2s-0.2-0.1-0.2-0.2C56.5,69.2,56.6,69.2,56.7,69.2L56.7,69.2z"/>
					
						<path fill-rule="evenodd" clip-rule="evenodd" fill="#F1B517" stroke="#000000" stroke-width="2.963100e-02" stroke-miterlimit="2.4142" d="
						M57.1,69.1c0.1,0,0.2,0.1,0.2,0.2c0,0.1-0.1,0.2-0.2,0.2c-0.1,0-0.2-0.1-0.2-0.2C56.9,69.2,57,69.1,57.1,69.1L57.1,69.1z"/>
					
						<path fill-rule="evenodd" clip-rule="evenodd" fill="#F1B517" stroke="#000000" stroke-width="2.963100e-02" stroke-miterlimit="2.4142" d="
						M56.9,68.9c0.1,0,0.2,0.1,0.2,0.2c0,0.1-0.1,0.2-0.2,0.2c-0.1,0-0.2-0.1-0.2-0.2C56.7,68.9,56.8,68.9,56.9,68.9L56.9,68.9z"/>
					
						<path fill-rule="evenodd" clip-rule="evenodd" fill="#F1B517" stroke="#000000" stroke-width="2.963100e-02" stroke-miterlimit="2.4142" d="
						M56.5,68.9c0.1,0,0.2,0.1,0.2,0.2c0,0.1-0.1,0.2-0.2,0.2c-0.1,0-0.2-0.1-0.2-0.2C56.3,69,56.4,68.9,56.5,68.9L56.5,68.9z"/>
					
						<path fill-rule="evenodd" clip-rule="evenodd" fill="#F1B517" stroke="#000000" stroke-width="2.963100e-02" stroke-miterlimit="2.4142" d="
						M56.1,68.9c0.1,0,0.2,0.1,0.2,0.2c0,0.1-0.1,0.2-0.2,0.2C56,69.2,56,69.1,56,69C56,69,56,68.9,56.1,68.9L56.1,68.9z"/>
					
						<path fill-rule="evenodd" clip-rule="evenodd" fill="#F1B517" stroke="#000000" stroke-width="2.963100e-02" stroke-miterlimit="2.4142" d="
						M56.3,68.6c0.1,0,0.2,0.1,0.2,0.2c0,0.1-0.1,0.2-0.2,0.2c-0.1,0-0.2-0.1-0.2-0.2C56.1,68.6,56.2,68.6,56.3,68.6L56.3,68.6z"/>
					
						<path fill-rule="evenodd" clip-rule="evenodd" fill="#F1B517" stroke="#000000" stroke-width="2.963100e-02" stroke-miterlimit="2.4142" d="
						M56.6,68.6c0.1,0,0.2,0.1,0.2,0.2s-0.1,0.2-0.2,0.2c-0.1,0-0.2-0.1-0.2-0.2S56.6,68.6,56.6,68.6L56.6,68.6z"/>
					
						<path fill-rule="evenodd" clip-rule="evenodd" fill="#F1B517" stroke="#000000" stroke-width="2.963100e-02" stroke-miterlimit="2.4142" d="
						M58,68.9c0.1,0,0.2,0.1,0.2,0.2c0,0.1-0.1,0.2-0.2,0.2c-0.1,0-0.2-0.1-0.2-0.2C57.8,69,57.9,68.9,58,68.9L58,68.9z"/>
					
						<path fill-rule="evenodd" clip-rule="evenodd" fill="#F1B517" stroke="#000000" stroke-width="2.963100e-02" stroke-miterlimit="2.4142" d="
						M58.6,68.7c0.1,0,0.2,0.1,0.2,0.2c0,0.1-0.1,0.2-0.2,0.2c-0.1,0-0.2-0.1-0.2-0.2C58.4,68.8,58.5,68.7,58.6,68.7L58.6,68.7z"/>
					
						<path fill-rule="evenodd" clip-rule="evenodd" fill="#F1B517" stroke="#000000" stroke-width="2.963100e-02" stroke-miterlimit="2.4142" d="
						M59,69c0.1,0,0.2,0.1,0.2,0.2c0,0.1-0.1,0.2-0.2,0.2c-0.1,0-0.2-0.1-0.2-0.2C58.8,69.1,58.9,69,59,69L59,69z"/>
					
						<path fill-rule="evenodd" clip-rule="evenodd" fill="#F1B517" stroke="#000000" stroke-width="2.963100e-02" stroke-miterlimit="2.4142" d="
						M70.1,69.2c-0.1,0-0.2,0.1-0.2,0.2c0,0.1,0.1,0.2,0.2,0.2c0.1,0,0.2-0.1,0.2-0.2C70.3,69.2,70.2,69.2,70.1,69.2L70.1,69.2z"/>
					
						<path fill-rule="evenodd" clip-rule="evenodd" fill="#F1B517" stroke="#000000" stroke-width="2.963100e-02" stroke-miterlimit="2.4142" d="
						M69.7,69.2c-0.1,0-0.2,0.1-0.2,0.2c0,0.1,0.1,0.2,0.2,0.2c0.1,0,0.2-0.1,0.2-0.2C69.9,69.2,69.8,69.2,69.7,69.2L69.7,69.2z"/>
					
						<path fill-rule="evenodd" clip-rule="evenodd" fill="#F1B517" stroke="#000000" stroke-width="2.963100e-02" stroke-miterlimit="2.4142" d="
						M69.3,69.2c-0.1,0-0.2,0.1-0.2,0.2c0,0.1,0.1,0.2,0.2,0.2c0.1,0,0.2-0.1,0.2-0.2C69.5,69.2,69.4,69.2,69.3,69.2L69.3,69.2z"/>
					
						<path fill-rule="evenodd" clip-rule="evenodd" fill="#F1B517" stroke="#000000" stroke-width="2.963100e-02" stroke-miterlimit="2.4142" d="
						M68.9,69.1c-0.1,0-0.2,0.1-0.2,0.2c0,0.1,0.1,0.2,0.2,0.2c0.1,0,0.2-0.1,0.2-0.2C69.1,69.2,69,69.1,68.9,69.1L68.9,69.1z"/>
					
						<path fill-rule="evenodd" clip-rule="evenodd" fill="#F1B517" stroke="#000000" stroke-width="2.963100e-02" stroke-miterlimit="2.4142" d="
						M69.2,68.9c-0.1,0-0.2,0.1-0.2,0.2c0,0.1,0.1,0.2,0.2,0.2c0.1,0,0.2-0.1,0.2-0.2C69.3,68.9,69.3,68.9,69.2,68.9L69.2,68.9z"/>
					
						<path fill-rule="evenodd" clip-rule="evenodd" fill="#F1B517" stroke="#000000" stroke-width="2.963100e-02" stroke-miterlimit="2.4142" d="
						M69.5,68.9c-0.1,0-0.2,0.1-0.2,0.2c0,0.1,0.1,0.2,0.2,0.2c0.1,0,0.2-0.1,0.2-0.2C69.7,69,69.6,68.9,69.5,68.9L69.5,68.9z"/>
					
						<path fill-rule="evenodd" clip-rule="evenodd" fill="#F1B517" stroke="#000000" stroke-width="2.963100e-02" stroke-miterlimit="2.4142" d="
						M69.9,68.9c-0.1,0-0.2,0.1-0.2,0.2c0,0.1,0.1,0.2,0.2,0.2c0.1,0,0.2-0.1,0.2-0.2C70.1,69,70,68.9,69.9,68.9L69.9,68.9z"/>
					
						<path fill-rule="evenodd" clip-rule="evenodd" fill="#F1B517" stroke="#000000" stroke-width="2.963100e-02" stroke-miterlimit="2.4142" d="
						M69.7,68.6c-0.1,0-0.2,0.1-0.2,0.2c0,0.1,0.1,0.2,0.2,0.2s0.2-0.1,0.2-0.2C69.9,68.6,69.8,68.6,69.7,68.6L69.7,68.6z"/>
					
						<path fill-rule="evenodd" clip-rule="evenodd" fill="#F1B517" stroke="#000000" stroke-width="2.963100e-02" stroke-miterlimit="2.4142" d="
						M69.4,68.6c-0.1,0-0.2,0.1-0.2,0.2s0.1,0.2,0.2,0.2c0.1,0,0.2-0.1,0.2-0.2S69.5,68.6,69.4,68.6L69.4,68.6z"/>
					
						<path fill-rule="evenodd" clip-rule="evenodd" fill="#F1B517" stroke="#000000" stroke-width="2.963100e-02" stroke-miterlimit="2.4142" d="
						M68.1,68.9c-0.1,0-0.2,0.1-0.2,0.2c0,0.1,0.1,0.2,0.2,0.2c0.1,0,0.2-0.1,0.2-0.2C68.2,69,68.1,68.9,68.1,68.9L68.1,68.9z"/>
					
						<path fill-rule="evenodd" clip-rule="evenodd" fill="#F1B517" stroke="#000000" stroke-width="2.963100e-02" stroke-miterlimit="2.4142" d="
						M67.5,68.7c-0.1,0-0.2,0.1-0.2,0.2c0,0.1,0.1,0.2,0.2,0.2s0.2-0.1,0.2-0.2C67.6,68.8,67.5,68.7,67.5,68.7L67.5,68.7z"/>
					
						<path fill-rule="evenodd" clip-rule="evenodd" fill="#F1B517" stroke="#000000" stroke-width="2.963100e-02" stroke-miterlimit="2.4142" d="
						M67,69c-0.1,0-0.2,0.1-0.2,0.2c0,0.1,0.1,0.2,0.2,0.2c0.1,0,0.2-0.1,0.2-0.2C67.2,69.1,67.1,69,67,69L67,69z"/>
					
						<path fill-rule="evenodd" clip-rule="evenodd" fill="#F1B517" stroke="#000000" stroke-width="2.963100e-02" stroke-miterlimit="2.4142" d="
						M59.8,69.2c0.1,0,0.2,0,0.3,0.1c0,0,0.1-0.2,0.3,0c0,0,0.1-0.2,0.2-0.2c0.1,0,0.2,0.1,0.2,0.1s0.2-0.2,0.4,0c0,0,0.2-0.2,0.4,0
						c0,0,0.1-0.1,0.2,0c0,0,0.2-0.2,0.4,0c0,0,0.1-0.1,0.3,0c0,0,0.1-0.1,0.1,0c0,0,0,0.1,0,0.1c-0.1,0-0.1,0.1,0,0.1
						c0,0,0.1,0.1,0,0.1c0,0-0.1,0-0.1,0c0,0-0.2,0.1-0.3-0.1c0,0-0.2,0.1-0.3,0c0,0-0.1,0.1-0.2,0c0,0-0.2,0.2-0.4,0
						c0,0-0.2,0.2-0.4,0c0,0-0.2,0.2-0.4,0c0,0-0.2,0.3-0.4,0c0,0-0.1,0.1-0.2,0c-0.1,0,0-0.1,0.1-0.1c0.1,0,0.1-0.1,0-0.1
						C59.8,69.3,59.7,69.3,59.8,69.2L59.8,69.2z M60.2,69.4C60.2,69.4,60.3,69.4,60.2,69.4c0.1,0.1,0.1,0.1,0,0.1
						C60.1,69.5,60.1,69.5,60.2,69.4C60.1,69.4,60.1,69.4,60.2,69.4L60.2,69.4z M62.2,69.4C62.3,69.4,62.3,69.5,62.2,69.4
						c0.1,0.1,0,0.1,0,0.1C62.2,69.5,62.2,69.5,62.2,69.4C62.2,69.5,62.2,69.4,62.2,69.4L62.2,69.4z M61.9,69.4
						C62,69.4,62,69.4,61.9,69.4c0.1,0.1,0.1,0.1,0,0.1C61.9,69.5,61.8,69.5,61.9,69.4C61.8,69.4,61.9,69.4,61.9,69.4L61.9,69.4z
						 M61.7,69.4C61.7,69.4,61.8,69.4,61.7,69.4C61.8,69.5,61.7,69.5,61.7,69.4C61.7,69.5,61.6,69.5,61.7,69.4
						C61.6,69.4,61.7,69.4,61.7,69.4L61.7,69.4z M61.4,69.4c0.1,0,0.1,0,0.1,0.1s-0.1,0.1-0.1,0.1c-0.1,0-0.1,0-0.1-0.1
						S61.3,69.4,61.4,69.4L61.4,69.4z M61,69.3c0.1,0,0.1,0,0.1,0.1s0,0.1-0.1,0.1c-0.1,0-0.1,0-0.1-0.1S60.9,69.3,61,69.3L61,69.3z
						 M60.6,69.3c0.1,0,0.1,0,0.1,0.1s0,0.1-0.1,0.1c-0.1,0-0.1,0-0.1-0.1S60.5,69.3,60.6,69.3L60.6,69.3z"/>
					
						<path fill-rule="evenodd" clip-rule="evenodd" fill="#F1B517" stroke="#000000" stroke-width="2.963100e-02" stroke-miterlimit="2.4142" d="
						M66.2,69.2c-0.1,0-0.2,0-0.3,0.1c0,0-0.1-0.2-0.3,0c0,0-0.1-0.2-0.2-0.2c-0.1,0-0.2,0.1-0.2,0.1s-0.2-0.2-0.4,0
						c0,0-0.2-0.2-0.4,0c0,0-0.1-0.1-0.2,0c0,0-0.2-0.2-0.4,0c0,0-0.1-0.1-0.3,0c0,0-0.1-0.1-0.1,0c0,0,0,0.1,0,0.1
						c0.1,0,0.1,0.1,0,0.1c0,0-0.1,0.1,0,0.1c0,0,0.1,0,0.1,0c0,0,0.2,0.1,0.3-0.1c0,0,0.2,0.1,0.3,0c0,0,0.1,0.1,0.2,0
						c0,0,0.2,0.2,0.4,0c0,0,0.2,0.2,0.4,0c0,0,0.2,0.2,0.4,0c0,0,0.2,0.3,0.4,0c0,0,0.1,0.1,0.2,0c0.1,0,0-0.1-0.1-0.1
						c-0.1,0-0.1-0.1,0-0.1C66.2,69.3,66.3,69.3,66.2,69.2L66.2,69.2z M65.8,69.4C65.8,69.4,65.7,69.4,65.8,69.4
						c-0.1,0.1-0.1,0.1,0,0.1C65.9,69.5,65.9,69.5,65.8,69.4C65.9,69.4,65.9,69.4,65.8,69.4L65.8,69.4z M63.8,69.4
						C63.7,69.4,63.7,69.5,63.8,69.4c-0.1,0.1,0,0.1,0,0.1C63.8,69.5,63.8,69.5,63.8,69.4C63.8,69.5,63.8,69.4,63.8,69.4L63.8,69.4z
						 M64.1,69.4C64,69.4,64,69.4,64.1,69.4c-0.1,0.1-0.1,0.1,0,0.1C64.1,69.5,64.2,69.5,64.1,69.4C64.2,69.4,64.1,69.4,64.1,69.4
						L64.1,69.4z M64.3,69.4C64.3,69.4,64.2,69.4,64.3,69.4C64.2,69.5,64.3,69.5,64.3,69.4C64.3,69.5,64.4,69.5,64.3,69.4
						C64.4,69.4,64.3,69.4,64.3,69.4L64.3,69.4z M64.6,69.4c-0.1,0-0.1,0-0.1,0.1s0,0.1,0.1,0.1c0.1,0,0.1,0,0.1-0.1
						S64.6,69.4,64.6,69.4L64.6,69.4z M65,69.3c-0.1,0-0.1,0-0.1,0.1s0,0.1,0.1,0.1c0.1,0,0.1,0,0.1-0.1S65.1,69.3,65,69.3L65,69.3z
						 M65.4,69.3c-0.1,0-0.1,0-0.1,0.1s0,0.1,0.1,0.1c0.1,0,0.1,0,0.1-0.1S65.5,69.3,65.4,69.3L65.4,69.3z"/>
					
						<path fill-rule="evenodd" clip-rule="evenodd" fill="#FFFFFF" stroke="#000000" stroke-width="2.963100e-02" stroke-miterlimit="2.4142" d="
						M54.4,70.2c0,0,1.7,0.1,2.5-0.1c0.7-0.3,1.2-0.6,1.4-0.6c0.2-0.1,0.4,0,0.4,0.1v0.3c-0.2-0.1-0.5-0.1-0.6-0.2l0,0.6
						c-0.6,0.3-2,0.9-3.7,0.5l0.6-0.2C55,70.5,54.5,70.3,54.4,70.2L54.4,70.2z"/>
					
						<path fill-rule="evenodd" clip-rule="evenodd" fill="#FFFFFF" stroke="#000000" stroke-width="2.963100e-02" stroke-miterlimit="2.4142" d="
						M58.7,69.5v0.3c-0.2-0.1-0.5-0.1-0.6-0.2C58.1,69.6,58.6,69.8,58.7,69.5C58.7,69.5,58.7,69.5,58.7,69.5L58.7,69.5z"/>
					
						<path fill-rule="evenodd" clip-rule="evenodd" fill="#FFFFFF" stroke="#000000" stroke-width="2.963100e-02" stroke-miterlimit="2.4142" d="
						M58.1,69.6c2.2,0.8,7.6,0.8,9.8,0l0,0.7c-1.7,0.8-8.1,0.8-9.8,0L58.1,69.6L58.1,69.6z"/>
					
						<path fill-rule="evenodd" clip-rule="evenodd" fill="#FFFFFF" stroke="#000000" stroke-width="2.963100e-02" stroke-miterlimit="2.4142" d="
						M71.6,70.2c0,0-1.7,0.1-2.5-0.1c-0.7-0.3-1.2-0.6-1.4-0.6c-0.2-0.1-0.4,0-0.4,0.1v0.3c0.2-0.1,0.5-0.1,0.6-0.2l0,0.6
						c0.6,0.3,2,0.9,3.7,0.5l-0.6-0.2C70.9,70.5,71.4,70.3,71.6,70.2L71.6,70.2z"/>
					
						<path fill-rule="evenodd" clip-rule="evenodd" fill="#FFFFFF" stroke="#000000" stroke-width="2.963100e-02" stroke-miterlimit="2.4142" d="
						M67.3,69.5v0.3c0.2-0.1,0.5-0.1,0.6-0.2C67.9,69.6,67.4,69.8,67.3,69.5C67.3,69.5,67.3,69.5,67.3,69.5L67.3,69.5z"/>
					<path stroke="#FFFFFF" stroke-width="9.877000e-03" stroke-miterlimit="2.4142" d="M58.5,70.4l0.2-0.5l0.1,0L58.5,70.4l0.4,0
						l0,0.1L58.5,70.4L58.5,70.4z M58.9,70.1L58.9,70.1L58.9,70.1L58.9,70.1C59,70.1,59,70.1,58.9,70.1c0,0.1,0,0.1,0,0.1L58.9,70.1
						C58.9,70.1,58.9,70.1,58.9,70.1C59,70.1,59,70.1,58.9,70.1L58.9,70.1L58.9,70.1z M59.5,70.1L59.5,70.1l0,0.3c0,0.1,0,0.1,0,0.1
						c0,0,0,0.1-0.1,0.1c0,0-0.1,0-0.1,0c-0.1,0-0.1,0-0.1,0c0,0,0-0.1-0.1-0.1c0,0,0-0.1,0-0.1l0.1-0.3l0.1,0l-0.1,0.3
						c0,0,0,0.1,0,0.1c0,0,0,0,0,0.1c0,0,0,0,0.1,0c0.1,0,0.1,0,0.1,0s0-0.1,0.1-0.1L59.5,70.1L59.5,70.1z M59.6,70.7l0.1-0.6l0.1,0
						l0.2,0.5l0.1-0.4l0.1,0L60,70.7l-0.1,0l-0.2-0.5L59.6,70.7L59.6,70.7L59.6,70.7z M60.1,70.8l0.1-0.6l0.1,0L60.1,70.8L60.1,70.8
						L60.1,70.8z M60.3,70.5c0-0.1,0-0.2,0.1-0.2c0.1,0,0.1-0.1,0.2-0.1c0.1,0,0.1,0,0.1,0c0,0,0.1,0.1,0.1,0.1c0,0,0,0.1,0,0.2
						c0,0.1,0,0.1,0,0.1c0,0-0.1,0.1-0.1,0.1c0,0-0.1,0-0.1,0c-0.1,0-0.1,0-0.1,0c0,0-0.1-0.1-0.1-0.1
						C60.3,70.6,60.3,70.6,60.3,70.5L60.3,70.5z M60.4,70.5c0,0.1,0,0.1,0,0.2c0,0,0.1,0.1,0.1,0.1s0.1,0,0.1,0c0,0,0.1-0.1,0.1-0.2
						c0,0,0-0.1,0-0.1c0,0,0-0.1-0.1-0.1c0,0-0.1,0-0.1,0c-0.1,0-0.1,0-0.1,0C60.4,70.4,60.4,70.4,60.4,70.5L60.4,70.5z M61,70.8
						l0-0.6l0.1,0l0.3,0.5l0-0.4l0.1,0l0,0.6l-0.1,0l-0.3-0.5L61,70.8L61,70.8L61,70.8z M61.7,70.9l0-0.6l0.4,0l0,0.1l-0.3,0l0,0.2
						l0.3,0l0,0.1l-0.3,0L61.7,70.9L61.7,70.9L61.7,70.9z M62.1,70.9l0.2-0.6l0.1,0l0.2,0.6l-0.1,0l-0.1-0.2l-0.2,0L62.1,70.9
						L62.1,70.9L62.1,70.9z M62.3,70.7l0.2,0l-0.1-0.2c0,0,0-0.1,0-0.1c0,0,0,0.1,0,0.1L62.3,70.7L62.3,70.7z M62.7,70.9v-0.6h0.1
						L62.7,70.9L62.7,70.9L62.7,70.9z M63,70.9v-0.5h-0.2v-0.1h0.4v0.1h-0.2L63,70.9L63,70.9L63,70.9z M63.6,70.9l0-0.6l0.1,0
						L63.6,70.9l0.3-0.1l0,0.1L63.6,70.9L63.6,70.9z M63.9,70.9l0.2-0.6l0.1,0l0.2,0.5l-0.1,0l-0.1-0.2l-0.2,0L63.9,70.9L63.9,70.9
						L63.9,70.9z M64.1,70.7l0.2,0l-0.1-0.2c0,0,0-0.1,0-0.1c0,0,0,0.1,0,0.1L64.1,70.7L64.1,70.7z M64.7,70.9l0-0.6l0.4,0l0,0.1
						l-0.3,0l0,0.2l0.3,0l0,0.1l-0.3,0L64.7,70.9L64.7,70.9L64.7,70.9z M65.1,70.6c0-0.1,0-0.2,0.1-0.2c0-0.1,0.1-0.1,0.2-0.1
						c0.1,0,0.1,0,0.1,0c0,0,0.1,0.1,0.1,0.1c0,0,0,0.1,0,0.1c0,0.1,0,0.1,0,0.2c0,0,0,0.1-0.1,0.1c0,0-0.1,0-0.1,0
						c-0.1,0-0.1,0-0.1,0c0,0-0.1-0.1-0.1-0.1C65.2,70.6,65.1,70.6,65.1,70.6L65.1,70.6z M65.2,70.5c0,0.1,0,0.1,0.1,0.2
						c0,0,0.1,0.1,0.1,0c0.1,0,0.1,0,0.1-0.1c0,0,0-0.1,0-0.2c0,0,0-0.1,0-0.1c0,0,0-0.1-0.1-0.1c0,0-0.1,0-0.1,0
						c-0.1,0-0.1,0-0.1,0.1C65.2,70.4,65.2,70.5,65.2,70.5L65.2,70.5z M65.8,70.8l-0.1-0.6l0.2,0c0,0,0.1,0,0.1,0c0,0,0.1,0,0.1,0
						c0,0,0,0.1,0,0.1c0,0,0,0.1,0,0.1c0,0-0.1,0.1-0.1,0.1c0,0,0,0,0,0c0,0,0,0,0.1,0.1l0.1,0.1l-0.1,0l-0.1-0.1c0,0,0-0.1-0.1-0.1
						c0,0,0,0,0,0c0,0,0,0,0,0c0,0,0,0,0,0l-0.1,0L65.8,70.8L65.8,70.8L65.8,70.8z M65.8,70.4l0.2,0c0,0,0.1,0,0.1,0c0,0,0,0,0,0
						c0,0,0,0,0-0.1c0,0,0,0,0-0.1c0,0-0.1,0-0.1,0l-0.2,0L65.8,70.4L65.8,70.4z M66.7,70.4L66.7,70.4c0.1,0.1,0,0.1,0,0.2
						c0,0-0.1,0.1-0.1,0.1c-0.1,0-0.1,0-0.2,0c0,0-0.1-0.1-0.1-0.1c0,0,0-0.1-0.1-0.1c0-0.1,0-0.1,0-0.2c0,0,0-0.1,0.1-0.1
						c0,0,0.1,0,0.1-0.1c0.1,0,0.1,0,0.1,0c0,0,0.1,0.1,0.1,0.1l-0.1,0c0,0,0-0.1-0.1-0.1s-0.1,0-0.1,0c0,0-0.1,0-0.1,0
						c0,0,0,0.1,0,0.1c0,0,0,0.1,0,0.1c0,0,0,0.1,0,0.1c0,0,0,0.1,0.1,0.1c0,0,0.1,0,0.1,0c0,0,0.1,0,0.1-0.1
						C66.7,70.5,66.7,70.5,66.7,70.4L66.7,70.4z M66.9,70.6L66.8,70l0.4-0.1l0,0.1l-0.3,0.1l0,0.2l0.3-0.1l0,0.1l-0.3,0.1L66.9,70.6
						l0.4-0.2l0,0.1L66.9,70.6L66.9,70.6z"/>
				</g>
			</g>
		</g>
	</g>
	<path opacity="0.35" fill="#FFFFFF" d="M13,29.7v25.5C26.2,62.6,43.7,67,63,67c19.3,0,36.8-4.5,50-11.8V29.7H13z"/>
</g>
</svg>
