<?xml version="1.0" encoding="utf-8"?>
<!-- Generator: Adobe Illustrator 24.3.0, SVG Export Plug-In . SVG Version: 6.00 Build 0)  -->
<svg version="1.1" id="Layer_1" xmlns="http://www.w3.org/2000/svg" xmlns:xlink="http://www.w3.org/1999/xlink" x="0px" y="0px"
	 viewBox="0 0 126 126" enable-background="new 0 0 126 126" xml:space="preserve">
<g>
	<g>
		<g>
			<polygon fill-rule="evenodd" clip-rule="evenodd" fill="#F0F0F0" points="13,74.1 113,74.1 113,51.9 13,51.9 13,74.1 			"/>
			<path fill-rule="evenodd" clip-rule="evenodd" fill="#207BF2" d="M13,96.3h100V74.1H13V96.3L13,96.3z M62.9,59.3l-0.8,2.5l-2.6,0
				l2.1,1.5l-0.8,2.5l2.1-1.5l2.1,1.5l-0.8-2.5l2.1-1.5l-2.6,0L62.9,59.3L62.9,59.3z M73.3,64.7l-0.8,2.5l-2.6,0l2.1,1.5l-0.8,2.5
				l2.1-1.5l2.1,1.5l-0.8-2.5l2.1-1.5l-2.6,0L73.3,64.7L73.3,64.7z M73.3,53.5L72.5,56l-2.6,0l2.1,1.5L71.2,60l2.1-1.5l2.1,1.5
				l-0.8-2.5l2.1-1.5l-2.6,0L73.3,53.5L73.3,53.5z M52.5,64.7l-0.8,2.5l-2.6,0l2.1,1.5l-0.8,2.5l2.1-1.5l2.1,1.5l-0.8-2.5l2.1-1.5
				l-2.6,0L52.5,64.7L52.5,64.7z M52.5,53.5L51.7,56l-2.6,0l2.1,1.5L50.4,60l2.1-1.5l2.1,1.5l-0.8-2.5l2.1-1.5l-2.6,0L52.5,53.5
				L52.5,53.5z M113,51.9V29.7H13v22.2H113L113,51.9z"/>
		</g>
	</g>
	<path opacity="0.35" fill="#FFFFFF" d="M13,29.7v25.5C26.2,62.6,43.7,67,63,67c19.3,0,36.8-4.5,50-11.8V29.7H13z"/>
</g>
</svg>
