<?xml version="1.0" encoding="utf-8"?>
<!-- Generator: Adobe Illustrator 24.3.0, SVG Export Plug-In . SVG Version: 6.00 Build 0)  -->
<svg version="1.1" id="Layer_1" xmlns="http://www.w3.org/2000/svg" xmlns:xlink="http://www.w3.org/1999/xlink" x="0px" y="0px"
	 viewBox="0 0 126 126" enable-background="new 0 0 126 126" xml:space="preserve">
<g>
	<g>
		<polygon fill="#F90805" points="13,29.7 113,29.7 113,96.3 13,96.3 13,29.7 		"/>
		<g>
			<path fill-rule="evenodd" clip-rule="evenodd" fill="#FFFFFF" d="M66.5,43.6c-0.8,0.5-2.2,1.2-2,2.9c0.2,1.7,1.7,3.6,1.3,5.6
				c-0.5,2-2.6,3.4-3.6,4.2c-1,0.8-3.2,3.5-0.8,6.2c-0.6-0.5-1.2-1.1-1.6-1.8c-0.5-0.8-0.9-1.8-1-3.2c-0.1-1,0-1.8,0.1-2.5
				c0.3-1.3,0.8-2.1,1-2.3l-0.2-0.2c-0.1,0.2-0.7,1.1-1,2.4c-0.2,0.8-0.3,1.6-0.2,2.6c0.2,1.4,0.5,2.4,1,3.3
				c0.4,0.6,0.9,1.2,1.4,1.6h0c-7.7-3.5-7.3-14.4,0.6-17.9C62.8,44,64.6,43.6,66.5,43.6L66.5,43.6z M60.1,49.7l0.9,0.9l1.2-0.6
				l-0.6,1.1l0.9,0.9l-1.3-0.2l-0.6,1.1l-0.2-1.3l-1.3-0.2l1.2-0.6L60.1,49.7L60.1,49.7z"/>
			<path fill-rule="evenodd" clip-rule="evenodd" fill="#FFFFFF" d="M81.8,61.5c-0.7-0.6-1.8-1.7-3.4-1.1c-1.6,0.7-2.9,2.8-5,2.9
				s-4-1.4-5.1-2.2c-1.1-0.8-4.3-2-6.2,1.1c0.3-0.8,0.6-1.5,1.2-2.1c0.6-0.7,1.5-1.4,2.7-1.9c0.9-0.4,1.7-0.6,2.5-0.6
				c1.3-0.1,2.3,0.1,2.5,0.2l0.1-0.3c-0.2-0.1-1.2-0.3-2.6-0.2c-0.8,0.1-1.6,0.3-2.6,0.7c-1.3,0.6-2.2,1.2-2.8,2
				c-0.5,0.6-0.8,1.2-1.1,1.8l0,0c1-8.4,11.5-11.4,17.2-5C80.3,58.1,81.1,59.6,81.8,61.5L81.8,61.5z M74,57.3l-0.6,1.1l0.9,0.9
				L73,59.1l-0.6,1.1L72.2,59l-1.3-0.2l1.2-0.6l-0.2-1.3l0.9,1L74,57.3L74,57.3z"/>
			<path fill-rule="evenodd" clip-rule="evenodd" fill="#FFFFFF" d="M69.4,81.6c0.4-0.8,1.1-2.2-0.1-3.5c-1.2-1.3-3.5-1.9-4.4-3.8
				c-0.8-1.9,0.1-4.3,0.4-5.5c0.4-1.2,0.5-4.7-3-5.5c0.8,0,1.6,0.1,2.4,0.4c0.9,0.4,1.8,1,2.7,2c0.7,0.7,1.1,1.5,1.4,2.1
				c0.5,1.2,0.6,2.2,0.6,2.4h0.3c0-0.2-0.1-1.3-0.6-2.5c-0.3-0.7-0.8-1.5-1.4-2.2c-0.9-1-1.9-1.7-2.8-2c-0.7-0.3-1.4-0.4-2.1-0.5
				l0,0c8.3-1.7,14.5,7.3,10.1,14.7C72.1,79,71,80.4,69.4,81.6L69.4,81.6z M70.9,72.8l-1.3-0.2L69,73.7l-0.2-1.3l-1.3-0.2l1.2-0.6
				l-0.2-1.3l0.9,0.9l1.2-0.6L70,71.9L70.9,72.8L70.9,72.8z"/>
			<path fill-rule="evenodd" clip-rule="evenodd" fill="#FFFFFF" d="M46.8,75.9c0.9,0.1,2.5,0.4,3.3-1.1c0.9-1.5,0.7-4,2.3-5.3
				c1.6-1.3,4.1-1.2,5.4-1.2c1.3,0,4.6-0.9,4.3-4.5c0.2,0.8,0.4,1.6,0.3,2.4c-0.1,1-0.4,2-1.1,3.2c-0.5,0.8-1.1,1.5-1.6,2
				c-1,0.9-1.9,1.2-2.1,1.3l0.1,0.3c0.2-0.1,1.2-0.5,2.2-1.4c0.6-0.5,1.2-1.2,1.7-2c0.7-1.2,1-2.3,1.1-3.3c0.1-0.7,0-1.4-0.2-2.1
				l0,0c4.1,7.4-2.6,16-11,14.1C50,77.7,48.4,77,46.8,75.9L46.8,75.9z M55.6,74.7l-0.2-1.3l-1.3-0.2l1.2-0.6l-0.2-1.3l0.9,1l1.2-0.6
				l-0.6,1.1l0.9,0.9l-1.3-0.2L55.6,74.7L55.6,74.7z"/>
			<path fill-rule="evenodd" clip-rule="evenodd" fill="#FFFFFF" d="M44.8,52.8c0.2,0.9,0.5,2.4,2.2,2.8c1.7,0.3,4-0.6,5.8,0.4
				c1.8,1,2.5,3.5,2.9,4.7c0.4,1.2,2.4,4.1,5.7,2.6c-0.7,0.5-1.4,0.8-2.2,1.1c-0.9,0.2-2,0.3-3.3,0c-0.9-0.2-1.7-0.5-2.4-0.9
				c-1.1-0.7-1.8-1.4-1.9-1.6l-0.2,0.2c0.1,0.2,0.8,1,2,1.7c0.7,0.4,1.5,0.7,2.5,0.9c1.4,0.3,2.5,0.2,3.5,0c0.7-0.2,1.4-0.5,2-0.9
				l0,0c-5.6,6.3-16,2.8-16.9-5.8C44.1,56.4,44.3,54.7,44.8,52.8L44.8,52.8z M48.8,60.7l1.2-0.6l-0.2-1.3l0.9,0.9l1.2-0.6l-0.6,1.2
				l0.9,0.9l-1.3-0.2l-0.6,1.2l-0.2-1.3L48.8,60.7L48.8,60.7z"/>
		</g>
	</g>
	<path opacity="0.4" fill="#FFFFFF" d="M13,29.7v25.5C26.2,62.6,43.7,67,63,67c19.3,0,36.8-4.5,50-11.8V29.7H13z"/>
</g>
</svg>
