<?xml version="1.0" encoding="utf-8"?>
<!-- Generator: Adobe Illustrator 24.3.0, SVG Export Plug-In . SVG Version: 6.00 Build 0)  -->
<svg version="1.1" id="Layer_1" xmlns="http://www.w3.org/2000/svg" xmlns:xlink="http://www.w3.org/1999/xlink" x="0px" y="0px"
	 viewBox="0 0 126 126" enable-background="new 0 0 126 126" xml:space="preserve">
<g>
	<g>
		<polygon fill="#F0F0F0" points="113,51.9 113,74.1 13,74.1 13,51.9 113,51.9 		"/>
		<polygon fill="#F39229" points="13,29.7 113,29.7 113,51.9 13,51.9 13,29.7 		"/>
		<polygon fill="#47B71D" points="13,74.1 113,74.1 113,96.3 13,96.3 13,74.1 		"/>
		<path fill-rule="evenodd" clip-rule="evenodd" fill="#0437A0" d="M63.1,61.3c0.1,0,0.2,0,0.3,0l0.3-1.8l1.6-4.8l-1,4.9l-0.7,1.7
			c0.1,0,0.2,0.1,0.3,0.1l0.7-1.7l2.8-4.2L65,60.1l-1.1,1.5c0.1,0.1,0.2,0.1,0.2,0.2l1.1-1.4l3.8-3.4l-3.4,3.8l-1.4,1.1
			c0.1,0.1,0.1,0.2,0.2,0.2l1.5-1.1l4.5-2.3l-4.2,2.8l-1.7,0.7c0,0.1,0.1,0.2,0.1,0.3l1.7-0.7l4.9-1l-4.8,1.6l-1.8,0.3
			c0,0.1,0,0.2,0,0.3l1.8-0.2l5,0.3l-5,0.3l-1.8-0.2c0,0.1,0,0.2,0,0.3l1.8,0.3l4.8,1.6l-4.9-1l-1.7-0.7c0,0.1-0.1,0.2-0.1,0.3
			l1.7,0.7l4.2,2.8L65.9,65l-1.5-1.1c-0.1,0.1-0.1,0.2-0.2,0.2l1.4,1.1l3.4,3.8l-3.8-3.4l-1.1-1.4c-0.1,0.1-0.2,0.1-0.2,0.2l1.1,1.5
			l2.3,4.5l-2.8-4.2l-0.7-1.7c-0.1,0-0.2,0.1-0.3,0.1l0.7,1.7l1,4.9l-1.6-4.8l-0.3-1.8c-0.1,0-0.2,0-0.3,0l0.2,1.8l-0.3,5l-0.3-5
			l0.2-1.8c-0.1,0-0.2,0-0.3,0l-0.3,1.8l-1.6,4.8l1-4.9l0.7-1.7c-0.1,0-0.2-0.1-0.3-0.1l-0.7,1.7l-2.8,4.2l2.3-4.5l1.1-1.5
			c-0.1-0.1-0.2-0.1-0.2-0.2l-1.1,1.4l-3.8,3.4l3.4-3.8l1.4-1.1c-0.1-0.1-0.1-0.2-0.2-0.2L60.1,65l-4.5,2.3l4.2-2.8l1.7-0.7
			c0-0.1-0.1-0.2-0.1-0.3l-1.7,0.7l-4.9,1l4.8-1.6l1.8-0.3c0-0.1,0-0.2,0-0.3l-1.8,0.2l-5-0.3l5-0.3l1.8,0.2c0-0.1,0-0.2,0-0.3
			l-1.8-0.3l-4.8-1.6l4.9,1l1.7,0.7c0-0.1,0.1-0.2,0.1-0.3l-1.7-0.7l-4.2-2.8l4.5,2.3l1.5,1.1c0.1-0.1,0.1-0.2,0.2-0.2l-1.4-1.1
			l-3.4-3.8l3.8,3.4l1.1,1.4c0.1-0.1,0.2-0.1,0.2-0.2L61,60.1l-2.3-4.5l2.8,4.2l0.7,1.7c0.1,0,0.2-0.1,0.3-0.1l-0.7-1.7l-1-4.9
			l1.6,4.8l0.3,1.8c0.1,0,0.2,0,0.3,0l-0.2-1.8l0.3-5l0.3,5L63.1,61.3L63.1,61.3z M62.3,54.3c0,0.2-0.1,0.5-0.4,0.5
			c-0.2,0-0.5-0.1-0.5-0.4c-0.5,0.1-0.9,0.2-1.4,0.4c0.1,0.2,0,0.5-0.2,0.6c-0.2,0.1-0.5,0-0.6-0.2c-0.4,0.2-0.8,0.4-1.2,0.7
			c0.1,0.2,0.1,0.5-0.1,0.6c-0.2,0.1-0.5,0.1-0.6-0.1c-0.2,0.2-0.4,0.3-0.5,0.5c-0.2,0.2-0.3,0.3-0.5,0.5c0.2,0.2,0.2,0.4,0.1,0.6
			c-0.1,0.2-0.4,0.2-0.6,0.1c-0.3,0.4-0.5,0.8-0.7,1.2c0.2,0.1,0.3,0.4,0.2,0.6c-0.1,0.2-0.3,0.3-0.6,0.2c-0.2,0.4-0.3,0.9-0.4,1.4
			c0.2,0,0.4,0.3,0.4,0.5c0,0.2-0.2,0.4-0.5,0.4c0,0.2,0,0.5,0,0.7c0,0.2,0,0.5,0,0.7c0.2,0,0.5,0.1,0.5,0.4c0,0.2-0.1,0.5-0.4,0.5
			c0.1,0.5,0.2,0.9,0.4,1.4c0.2-0.1,0.5,0,0.6,0.2c0.1,0.2,0,0.5-0.2,0.6c0.2,0.4,0.4,0.8,0.7,1.2c0.2-0.1,0.5-0.1,0.6,0.1
			c0.1,0.2,0.1,0.5-0.1,0.6c0.2,0.2,0.3,0.3,0.5,0.5c0.2,0.2,0.3,0.3,0.5,0.5c0.2-0.2,0.4-0.2,0.6-0.1c0.2,0.1,0.2,0.4,0.1,0.6
			c0.4,0.3,0.8,0.5,1.2,0.7c0.1-0.2,0.4-0.3,0.6-0.2c0.2,0.1,0.3,0.3,0.2,0.6c0.4,0.2,0.9,0.3,1.4,0.4c0-0.2,0.3-0.4,0.5-0.4
			c0.2,0,0.4,0.2,0.4,0.5c0.2,0,0.5,0,0.7,0c0.2,0,0.5,0,0.7,0c0-0.2,0.1-0.5,0.4-0.5c0.2,0,0.5,0.1,0.5,0.4
			c0.5-0.1,0.9-0.2,1.4-0.4c-0.1-0.2,0-0.5,0.2-0.6c0.2-0.1,0.5,0,0.6,0.2c0.4-0.2,0.8-0.4,1.2-0.7c-0.1-0.2-0.1-0.5,0.1-0.6
			c0.2-0.1,0.5-0.1,0.6,0.1c0.2-0.2,0.4-0.3,0.5-0.5c0.2-0.2,0.3-0.3,0.5-0.5c-0.2-0.2-0.2-0.4-0.1-0.6c0.1-0.2,0.4-0.2,0.6-0.1
			c0.3-0.4,0.5-0.8,0.7-1.2c-0.2-0.1-0.3-0.4-0.2-0.6c0.1-0.2,0.3-0.3,0.6-0.2c0.2-0.4,0.3-0.9,0.4-1.4c-0.2,0-0.4-0.3-0.4-0.5
			c0-0.2,0.2-0.4,0.5-0.4c0-0.2,0-0.5,0-0.7c0-0.2,0-0.5,0-0.7c-0.2,0-0.5-0.1-0.5-0.4c0-0.2,0.1-0.5,0.4-0.5
			c-0.1-0.5-0.2-0.9-0.4-1.4c-0.2,0.1-0.5,0-0.6-0.2c-0.1-0.2,0-0.5,0.2-0.6c-0.2-0.4-0.4-0.8-0.7-1.2c-0.2,0.1-0.5,0.1-0.6-0.1
			c-0.1-0.2-0.1-0.5,0.1-0.6c-0.2-0.2-0.3-0.4-0.5-0.5c-0.2-0.2-0.3-0.3-0.5-0.5c-0.2,0.2-0.4,0.2-0.6,0.1c-0.2-0.1-0.2-0.4-0.1-0.6
			c-0.4-0.3-0.8-0.5-1.2-0.7c-0.1,0.2-0.4,0.3-0.6,0.2c-0.2-0.1-0.3-0.3-0.2-0.6c-0.4-0.2-0.9-0.3-1.4-0.4c0,0.2-0.3,0.4-0.5,0.4
			c-0.2,0-0.4-0.2-0.4-0.5c-0.2,0-0.5,0-0.7,0C62.8,54.3,62.5,54.3,62.3,54.3L62.3,54.3z M63,53c2.8,0,5.3,1.1,7.1,2.9
			c1.8,1.8,2.9,4.3,2.9,7.1c0,2.8-1.1,5.3-2.9,7.1C68.3,71.9,65.8,73,63,73c-2.8,0-5.3-1.1-7.1-2.9C54.1,68.3,53,65.8,53,63
			c0-2.8,1.1-5.3,2.9-7.1C57.7,54.2,60.2,53,63,53L63,53z"/>
	</g>
	<path opacity="0.25" fill="#FFFFFF" d="M13,29.7v25.5c13.2,7.4,30.7,11.8,50,11.8c19.3,0,36.8-4.5,50-11.8V29.7H13z"/>
</g>
</svg>
