<?xml version="1.0" encoding="utf-8"?>
<!-- Generator: Adobe Illustrator 24.3.0, SVG Export Plug-In . SVG Version: 6.00 Build 0)  -->
<svg version="1.1" id="Layer_1" xmlns="http://www.w3.org/2000/svg" xmlns:xlink="http://www.w3.org/1999/xlink" x="0px" y="0px"
	 viewBox="0 0 126 126" enable-background="new 0 0 126 126" xml:space="preserve">
<g>
	<g>
		<g>
			<polygon fill-rule="evenodd" clip-rule="evenodd" fill="#F0F0F0" points="13,29.7 113,29.7 113,96.3 13,96.3 13,29.7 			"/>
			<path fill-rule="evenodd" clip-rule="evenodd" fill="#F90805" d="M67.4,56.8c2.5,2,5.6,6.8,1.9,12.6C74.6,66.2,73,57.7,67.4,56.8
				L67.4,56.8z M59.8,56.8c-2.5,2-5.6,6.8-1.9,12.6C52.5,66.2,54.1,57.7,59.8,56.8L59.8,56.8z M63.6,72.5l-0.7-0.9v-0.3
				c0,0-2,0.5-4.1-0.2c0,0,2.6-0.1,3.4-0.6c-5-2.2-5.8-9.8-1.6-13.4c-2.5,3.9-1.7,9.8,2.3,12.2l-0.3-12c0,0,0.5-0.1,1.1-0.8
				c0.5,0.7,1.1,0.8,1.1,0.8l-0.3,12c4-2.4,4.8-8.3,2.3-12.2c4.1,3.6,3.4,11.2-1.6,13.4c0.8,0.5,3.4,0.6,3.4,0.6
				c-2,0.7-4.1,0.2-4.1,0.2v0.3L63.6,72.5L63.6,72.5z M61.3,54.8c0,0,0.8,1.9,2.3,0.4c1.5,1.5,2.3-0.4,2.3-0.4
				c0.2,0.8-0.2,1.6-1,1.7C64,56.6,63.6,56,63.6,56s-0.4,0.6-1.2,0.5C61.5,56.4,61.1,55.6,61.3,54.8L61.3,54.8z"/>
			<path fill="#47B71D" d="M13,29.7h100v22.3l0,0v-0.6h-5v0.6h-0.6v-0.6h-5v0.6h-0.6v-0.6h-5v0.6h-0.6v-0.6h-5v0.6h-0.6v-0.6h-5v0.6
				h-0.6v-0.6h-5v0.6h-0.6v-0.6h-5v0.6h-0.6v-0.6h-5v0.6h-0.6v-0.6h-5v0.6h-0.6v-0.6h-5v0.6h-0.6v-0.6h-5v0.6h-0.6v-0.6h-5v0.6h-0.6
				v-0.6h-5v0.6h-0.6v-0.6h-5v0.6h-0.6v-0.6h-5v0.6h-0.6v-0.6h-5v0.6h-0.6v-0.6h-5v0.6H18v-0.6h-5v-0.6h0.6v-1.1h1.7v0.6v0.6h0.6
				h1.7H18v-0.6v-0.6v-0.6h-0.6h-1.1v0.6h1.1v0.6h-1.7v-0.6v-0.6h-0.6h-1.7H13v-0.6h7.2v-0.6H13V29.7L13,29.7z M102.4,50.8h0.6v-1.1
				h1.7v0.6v0.6h0.6h1.7h0.6v-0.6v-0.6v-0.6h-0.6h-1.1v0.6h1.1v0.6h-1.7v-0.6v-0.6h-0.6H103h-0.6v0.6V50.8L102.4,50.8z M109.6,48.6
				v-0.6h-7.2v0.6H109.6L109.6,48.6z M112.4,50.3h-0.6v-2.2h-0.6v2.2h-0.6v-0.6v-0.6v-1.1h-0.6v1.1h-1.7H108v0.6v0.6v0.6h0.5h1.1
				v-0.6h-1.1v-0.6h1.7v0.6v0.6h0.6h0.6h0.6h0.6h0.6v-0.6v-2.2h-0.6V50.3L112.4,50.3z M104.1,50.8v-0.6h-0.6v0.6H104.1L104.1,50.8z
				 M91.2,50.8h0.6v-1.1h1.7v0.6v0.6H94h1.7h0.6v-0.6v-0.6v-0.6h-0.6h-1.1v0.6h1.1v0.6H94v-0.6v-0.6h-0.6h-1.7h-0.6v0.6V50.8
				L91.2,50.8z M98.5,48.6v-0.6h-7.2v0.6H98.5L98.5,48.6z M101.3,50.3h-0.6v-2.2h-0.6v2.2h-0.6v-0.6v-0.6v-1.1H99v1.1h-1.7h-0.6v0.6
				v0.6v0.6h0.6h1.1v-0.6h-1.1v-0.6H99v0.6v0.6h0.6h0.6h0.6h0.6h0.6v-0.6v-2.2h-0.6V50.3L101.3,50.3z M92.9,50.8v-0.6h-0.6v0.6H92.9
				L92.9,50.8z M80.1,50.8h0.6v-1.1h1.7v0.6v0.6h0.6h1.7h0.5v-0.6v-0.6v-0.6h-0.5h-1.1v0.6h1.1v0.6h-1.7v-0.6v-0.6h-0.6h-1.7h-0.6
				v0.6V50.8L80.1,50.8z M87.3,48.6v-0.6h-7.2v0.6H87.3L87.3,48.6z M90.1,50.3h-0.6v-2.2H89v2.2h-0.6v-0.6v-0.6v-1.1h-0.6v1.1h-1.7
				h-0.6v0.6v0.6v0.6h0.6h1.1v-0.6h-1.1v-0.6h1.7v0.6v0.6h0.6H89h0.6h0.6h0.6v-0.6v-2.2h-0.6V50.3L90.1,50.3z M81.7,50.8v-0.6h-0.6
				v0.6H81.7L81.7,50.8z M68.9,50.8h0.6v-1.1h1.7v0.6v0.6h0.6h1.7h0.6v-0.6v-0.6v-0.6h-0.6h-1.1v0.6h1.1v0.6h-1.7v-0.6v-0.6h-0.6
				h-1.7h-0.6v0.6V50.8L68.9,50.8z M76.1,48.6v-0.6h-7.2v0.6H76.1L76.1,48.6z M78.9,50.3h-0.6v-2.2h-0.5v2.2h-0.6v-0.6v-0.6v-1.1
				h-0.6v1.1H75h-0.6v0.6v0.6v0.6H75h1.1v-0.6H75v-0.6h1.7v0.6v0.6h0.6h0.6h0.5h0.6h0.6v-0.6v-2.2h-0.6V50.3L78.9,50.3z M70.6,50.8
				v-0.6H70v0.6H70.6L70.6,50.8z M57.7,50.8h0.6v-1.1h1.7v0.6v0.6h0.6h1.7h0.6v-0.6v-0.6v-0.6h-0.6H61v0.6h1.1v0.6h-1.7v-0.6v-0.6
				h-0.6h-1.7h-0.6v0.6V50.8L57.7,50.8z M64.9,48.6v-0.6h-7.2v0.6H64.9L64.9,48.6z M67.7,50.3h-0.6v-2.2h-0.6v2.2h-0.6v-0.6v-0.6
				v-1.1h-0.6v1.1h-1.7h-0.6v0.6v0.6v0.6h0.6h1.1v-0.6h-1.1v-0.6h1.7v0.6v0.6h0.6h0.6h0.6h0.6h0.6v-0.6v-2.2h-0.6V50.3L67.7,50.3z
				 M59.4,50.8v-0.6h-0.6v0.6H59.4L59.4,50.8z M46.5,50.8h0.6v-1.1h1.7v0.6v0.6h0.6H51h0.6v-0.6v-0.6v-0.6H51h-1.1v0.6H51v0.6h-1.7
				v-0.6v-0.6h-0.6h-1.7h-0.6v0.6V50.8L46.5,50.8z M53.8,48.6v-0.6h-7.2v0.6H53.8L53.8,48.6z M56.6,50.3H56v-2.2h-0.6v2.2h-0.6v-0.6
				v-0.6v-1.1h-0.6v1.1h-1.7h-0.6v0.6v0.6v0.6h0.6h1.1v-0.6h-1.1v-0.6h1.7v0.6v0.6h0.6h0.6H56h0.6h0.6v-0.6v-2.2h-0.6V50.3
				L56.6,50.3z M48.2,50.8v-0.6h-0.6v0.6H48.2L48.2,50.8z M35.3,50.8h0.6v-1.1h1.7v0.6v0.6h0.6h1.7h0.6v-0.6v-0.6v-0.6h-0.6h-1.1
				v0.6h1.1v0.6h-1.7v-0.6v-0.6h-0.6h-1.7h-0.6v0.6V50.8L35.3,50.8z M42.6,48.6v-0.6h-7.2v0.6H42.6L42.6,48.6z M45.4,50.3h-0.6v-2.2
				h-0.6v2.2h-0.6v-0.6v-0.6v-1.1h-0.6v1.1h-1.7h-0.6v0.6v0.6v0.6h0.6h1.1v-0.6h-1.1v-0.6h1.7v0.6v0.6h0.6h0.6h0.6h0.6h0.5v-0.6
				v-2.2h-0.5V50.3L45.4,50.3z M37,50.8v-0.6h-0.6v0.6H37L37,50.8z M24.2,50.8h0.6v-1.1h1.7v0.6v0.6H27h1.7h0.6v-0.6v-0.6v-0.6h-0.6
				h-1.1v0.6h1.1v0.6H27v-0.6v-0.6h-0.6h-1.7h-0.6v0.6V50.8L24.2,50.8z M31.4,48.6v-0.6h-7.2v0.6H31.4L31.4,48.6z M34.2,50.3h-0.6
				v-2.2h-0.6v2.2h-0.6v-0.6v-0.6v-1.1H32v1.1h-1.7h-0.6v0.6v0.6v0.6h0.6h1.1v-0.6h-1.1v-0.6H32v0.6v0.6h0.6h0.6h0.6h0.6h0.6v-0.6
				v-2.2h-0.6V50.3L34.2,50.3z M25.9,50.8v-0.6h-0.6v0.6H25.9L25.9,50.8z M23,50.3h-0.6v-2.2h-0.6v2.2h-0.6v-0.6v-0.6v-1.1h-0.5v1.1
				h-1.7h-0.6v0.6v0.6v0.6h0.6h1.1v-0.6h-1.1v-0.6h1.7v0.6v0.6h0.5h0.6h0.6H23h0.6v-0.6v-2.2H23V50.3L23,50.3z M14.7,50.8v-0.6h-0.6
				v0.6H14.7L14.7,50.8z"/>
			<path fill="#FF1612" d="M14.7,77.9v-0.6h-0.6v0.6H14.7L14.7,77.9z M18,74.1h0.6v0.6h5v-0.6h0.6v0.6h5v-0.6h0.6v0.6h5v-0.6h0.6
				v0.6h5v-0.6h0.6v0.6h5v-0.6h0.6v0.6h5v-0.6h0.6v0.6h5v-0.6h0.6v0.6h5v-0.6h0.6v0.6h5v-0.6h0.6v0.6h5v-0.6h0.6v0.6h5v-0.6h0.6v0.6
				h5v-0.6h0.6v0.6h5v-0.6h0.6v0.6h5v-0.6h0.6v0.6h5v-0.6h0.6v0.6h5v-0.6h0.6v0.6h5v-0.6l0,0v22.3H13V77.9h0.6v-1.1h1.7v0.6v0.6h0.6
				h1.7H18v-0.6v-0.6v-0.6h-0.6h-1.1v0.6h1.1v0.6h-1.7v-0.6v-0.6h-0.6h-1.7H13v-0.6h7.2v-0.6H13v-0.6h5V74.1L18,74.1z M104.1,77.9
				v-0.6h-0.6v0.6H104.1L104.1,77.9z M102.4,77.9h0.6v-1.1h1.7v0.6v0.6h0.6h1.7h0.6v-0.6v-0.6v-0.6h-0.6h-1.1v0.6h1.1v0.6h-1.7v-0.6
				v-0.6h-0.6H103h-0.6v0.6V77.9L102.4,77.9z M109.6,75.7v-0.6h-7.2v0.6H109.6L109.6,75.7z M112.4,77.4h-0.6v-2.2h-0.6v2.2h-0.6
				v-0.6v-0.6v-1.1h-0.6v1.1h-1.7H108v0.6v0.6v0.6h0.5h1.1v-0.6h-1.1v-0.6h1.7v0.6v0.6h0.6h0.6h0.6h0.6h0.6v-0.6v-2.2h-0.6V77.4
				L112.4,77.4z M92.9,77.9v-0.6h-0.6v0.6H92.9L92.9,77.9z M91.2,77.9h0.6v-1.1h1.7v0.6v0.6H94h1.7h0.6v-0.6v-0.6v-0.6h-0.6h-1.1
				v0.6h1.1v0.6H94v-0.6v-0.6h-0.6h-1.7h-0.6v0.6V77.9L91.2,77.9z M98.5,75.7v-0.6h-7.2v0.6H98.5L98.5,75.7z M101.3,77.4h-0.6v-2.2
				h-0.6v2.2h-0.6v-0.6v-0.6v-1.1H99v1.1h-1.7h-0.6v0.6v0.6v0.6h0.6h1.1v-0.6h-1.1v-0.6H99v0.6v0.6h0.6h0.6h0.6h0.6h0.6v-0.6v-2.2
				h-0.6V77.4L101.3,77.4z M81.7,77.9v-0.6h-0.6v0.6H81.7L81.7,77.9z M80.1,77.9h0.6v-1.1h1.7v0.6v0.6h0.6h1.7h0.5v-0.6v-0.6v-0.6
				h-0.5h-1.1v0.6h1.1v0.6h-1.7v-0.6v-0.6h-0.6h-1.7h-0.6v0.6V77.9L80.1,77.9z M87.3,75.7v-0.6h-7.2v0.6H87.3L87.3,75.7z M90.1,77.4
				h-0.6v-2.2H89v2.2h-0.6v-0.6v-0.6v-1.1h-0.6v1.1h-1.7h-0.6v0.6v0.6v0.6h0.6h1.1v-0.6h-1.1v-0.6h1.7v0.6v0.6h0.6H89h0.6h0.6h0.6
				v-0.6v-2.2h-0.6V77.4L90.1,77.4z M70.6,77.9v-0.6H70v0.6H70.6L70.6,77.9z M68.9,77.9h0.6v-1.1h1.7v0.6v0.6h0.6h1.7h0.6v-0.6v-0.6
				v-0.6h-0.6h-1.1v0.6h1.1v0.6h-1.7v-0.6v-0.6h-0.6h-1.7h-0.6v0.6V77.9L68.9,77.9z M76.1,75.7v-0.6h-7.2v0.6H76.1L76.1,75.7z
				 M78.9,77.4h-0.6v-2.2h-0.5v2.2h-0.6v-0.6v-0.6v-1.1h-0.6v1.1H75h-0.6v0.6v0.6v0.6H75h1.1v-0.6H75v-0.6h1.7v0.6v0.6h0.6h0.6h0.5
				h0.6h0.6v-0.6v-2.2h-0.6V77.4L78.9,77.4z M59.4,77.9v-0.6h-0.6v0.6H59.4L59.4,77.9z M57.7,77.9h0.6v-1.1h1.7v0.6v0.6h0.6h1.7h0.6
				v-0.6v-0.6v-0.6h-0.6H61v0.6h1.1v0.6h-1.7v-0.6v-0.6h-0.6h-1.7h-0.6v0.6V77.9L57.7,77.9z M64.9,75.7v-0.6h-7.2v0.6H64.9
				L64.9,75.7z M67.7,77.4h-0.6v-2.2h-0.6v2.2h-0.6v-0.6v-0.6v-1.1h-0.6v1.1h-1.7h-0.6v0.6v0.6v0.6h0.6h1.1v-0.6h-1.1v-0.6h1.7v0.6
				v0.6h0.6h0.6h0.6h0.6h0.6v-0.6v-2.2h-0.6V77.4L67.7,77.4z M48.2,77.9v-0.6h-0.6v0.6H48.2L48.2,77.9z M46.5,77.9h0.6v-1.1h1.7v0.6
				v0.6h0.6H51h0.6v-0.6v-0.6v-0.6H51h-1.1v0.6H51v0.6h-1.7v-0.6v-0.6h-0.6h-1.7h-0.6v0.6V77.9L46.5,77.9z M53.8,75.7v-0.6h-7.2v0.6
				H53.8L53.8,75.7z M56.6,77.4H56v-2.2h-0.6v2.2h-0.6v-0.6v-0.6v-1.1h-0.6v1.1h-1.7h-0.6v0.6v0.6v0.6h0.6h1.1v-0.6h-1.1v-0.6h1.7
				v0.6v0.6h0.6h0.6H56h0.6h0.6v-0.6v-2.2h-0.6V77.4L56.6,77.4z M37,77.9v-0.6h-0.6v0.6H37L37,77.9z M35.3,77.9h0.6v-1.1h1.7v0.6
				v0.6h0.6h1.7h0.6v-0.6v-0.6v-0.6h-0.6h-1.1v0.6h1.1v0.6h-1.7v-0.6v-0.6h-0.6h-1.7h-0.6v0.6V77.9L35.3,77.9z M42.6,75.7v-0.6h-7.2
				v0.6H42.6L42.6,75.7z M45.4,77.4h-0.6v-2.2h-0.6v2.2h-0.6v-0.6v-0.6v-1.1h-0.6v1.1h-1.7h-0.6v0.6v0.6v0.6h0.6h1.1v-0.6h-1.1v-0.6
				h1.7v0.6v0.6h0.6h0.6h0.6h0.6h0.5v-0.6v-2.2h-0.5V77.4L45.4,77.4z M25.9,77.9v-0.6h-0.6v0.6H25.9L25.9,77.9z M24.2,77.9h0.6v-1.1
				h1.7v0.6v0.6H27h1.7h0.6v-0.6v-0.6v-0.6h-0.6h-1.1v0.6h1.1v0.6H27v-0.6v-0.6h-0.6h-1.7h-0.6v0.6V77.9L24.2,77.9z M31.4,75.7v-0.6
				h-7.2v0.6H31.4L31.4,75.7z M34.2,77.4h-0.6v-2.2h-0.6v2.2h-0.6v-0.6v-0.6v-1.1H32v1.1h-1.7h-0.6v0.6v0.6v0.6h0.6h1.1v-0.6h-1.1
				v-0.6H32v0.6v0.6h0.6h0.6h0.6h0.6h0.6v-0.6v-2.2h-0.6V77.4L34.2,77.4z M23,77.4h-0.6v-2.2h-0.6v2.2h-0.6v-0.6v-0.6v-1.1h-0.5v1.1
				h-1.7h-0.6v0.6v0.6v0.6h0.6h1.1v-0.6h-1.1v-0.6h1.7v0.6v0.6h0.5h0.6h0.6H23h0.6v-0.6v-2.2H23V77.4L23,77.4z"/>
		</g>
		<path opacity="0.2" fill="#FFFFFF" d="M13,29.7v25.5C26.2,62.6,43.7,67,63,67s36.8-4.5,50-11.8V29.7H13z"/>
	</g>
	<path opacity="0.25" fill="#FFFFFF" d="M13,29.7v25.5C26.2,62.6,43.7,67,63,67s36.8-4.5,50-11.8V29.7H13z"/>
</g>
</svg>
