<?xml version="1.0" encoding="utf-8"?>
<!-- Generator: Adobe Illustrator 24.3.0, SVG Export Plug-In . SVG Version: 6.00 Build 0)  -->
<svg version="1.1" id="Layer_1" xmlns="http://www.w3.org/2000/svg" xmlns:xlink="http://www.w3.org/1999/xlink" x="0px" y="0px"
	 viewBox="0 0 126 126" enable-background="new 0 0 126 126" xml:space="preserve">
<g>
	<g>
		<g>
			<polygon fill="#D20714" points="13,29.7 113,29.7 113,51.9 13,51.9 13,29.7 			"/>
			<polygon fill="#F0F0F0" points="13,51.9 113,51.9 113,74.1 13,74.1 13,51.9 			"/>
			<polygon points="13,74.1 113,74.1 113,96.3 13,96.3 13,74.1 			"/>
			<path fill-rule="evenodd" clip-rule="evenodd" fill="#119E07" d="M42.4,69.7c0.4-0.2,1.7-0.8,1.7-2c-0.1-1.2-0.7-2.5-1.1-2.9
				c0,0,1.4-0.5,1.7-0.9c0,0-0.4,1.3,0.9,1.5c1.3,0.2,2.3,0.1,2.3,0.1s0.2-1.2-0.4-1.4c0,0,0.6-0.1,1.6-1.1v2.4h11.6
				c0,0,0-1.1,0-1.6c0-0.4-0.3-0.5-0.4-0.5c-0.1,0-0.3,0.2-0.3,0.4c0,0.3,0,0.6,0,0.8c0,0.2,0,0.3-0.3,0.3c-0.3,0-8.8,0-8.8,0v-1.5
				c0,0,5.6-5.6,6.6-6.4c0,0,0.2,0.8,0.8,1.3c0,0-0.5,0.1-0.7,0.3c-0.2,0.2-5.1,5.2-5.1,5.2s3.9,0.1,6-0.1c0,0,0-0.9,0.8-1.3
				c0.8-0.4,1.2-0.4,1.3-0.6c0,0,0.2,0.3,0.8,0.6c0.6,0.3,0.9,0.7,0.9,1.1c0,0.4,0,4.4,0,4.4H45.5C45.5,67.8,45.1,70.2,42.4,69.7
				L42.4,69.7z M74.6,57.5C75,55.4,73.6,56.3,74.6,57.5L74.6,57.5z M72.7,58.4c0,0,1.3,0.5,2-0.4c0,0,0.8,0.6,1.1,0.2
				c0.3-0.3,0.3-0.3,0.3-0.6c0,0,0.4,0.2,0.2,0.7c-0.1,0.4-0.7,0.6-1.2,0.4c-0.5-0.2-0.4,0.1-0.9,0.2C73.6,59,73,58.8,72.7,58.4
				L72.7,58.4z M79.9,56.9v11h3.7c0,0-0.1-0.8-0.4-1.5c-0.3-0.7-0.4-1.3-0.4-1.5c0,0-0.6,0.7-1.5,0.6v-6.8c0,0,0.4-0.5,0.5-0.7
				C81.8,57.9,81.1,57.7,79.9,56.9L79.9,56.9z M70.2,67.8h8.4V57.3c0,0-0.4,0.6-1.3,1.3v6.6h-0.9v-5.9L75,60.5v4.8h-1v-3.9l-1.7,1.5
				c0,0,0.3,0,0.3,0.2c0,0.1,0,0.9,0,0.9C70.2,63.2,70,65.9,70.2,67.8L70.2,67.8z M72.3,64.8c0.2,0,0.4,0.1,0.4,0.3
				c0,0.2-0.2,0.3-0.4,0.3c-0.2,0-0.4-0.1-0.4-0.3C71.8,64.9,72,64.8,72.3,64.8L72.3,64.8z M63.4,56.9v11h3.7c0,0-0.2-1-0.4-1.6
				c-0.3-0.6-0.3-1.3-0.4-1.4c0,0-0.6,0.8-1.5,0.5c0,0,0-6.3,0-6.7s0.5-0.8,0.5-0.8S64.7,57.8,63.4,56.9L63.4,56.9z M47.6,68.5
				c0.3,0,0.5,0.2,0.5,0.5s-0.2,0.5-0.5,0.5s-0.5-0.2-0.5-0.5S47.3,68.5,47.6,68.5L47.6,68.5z"/>
		</g>
	</g>
	<path opacity="0.35" fill="#FFFFFF" d="M13,29.7v25.5C26.2,62.6,43.7,67,63,67c19.3,0,36.8-4.5,50-11.8V29.7H13z"/>
</g>
</svg>
