<?xml version="1.0" encoding="utf-8"?>
<!-- Generator: Adobe Illustrator 24.3.0, SVG Export Plug-In . SVG Version: 6.00 Build 0)  -->
<svg version="1.1" id="Layer_1" xmlns="http://www.w3.org/2000/svg" xmlns:xlink="http://www.w3.org/1999/xlink" x="0px" y="0px"
	 viewBox="0 0 126 126" enable-background="new 0 0 126 126" xml:space="preserve">
<g>
	<g>
		<g>
			<path fill="#F0F0F0" d="M13,29.7h100v6.2H13V29.7L13,29.7z M113,46.3v33.3H13V46.3H113L113,46.3z M113,90.1v6.2H13v-6.2H113
				L113,90.1z"/>
			<path fill="#207BF2" d="M63,52.9l-1.7,3h3.5L63,52.9L63,52.9z M13,35.9h100v10.4H13V35.9L13,35.9z M13,79.7h100v10.4H13V79.7
				L13,79.7z M60.1,58l-2.9,5l2.9,5h5.8l2.9-5l-2.9-5H60.1L60.1,58z M56,65l-1.7,3h3.5L56,65L56,65z M68.3,68h3.5L70,65L68.3,68
				L68.3,68z M63,73.1l1.7-3h-3.5L63,73.1L63,73.1z M70,61l1.7-3h-3.5L70,61L70,61z M57.7,58h-3.5l1.7,3L57.7,58L57.7,58z
				 M74.4,57.4L71.2,63l3.2,5.6l0,0l0.6,1.1l0.3,0.4h-0.5h-1.3h-6.4l-3.2,5.6l-0.6,1.1L63,77.2l-0.3-0.4l-0.6-1.1l-3.2-5.6h-6.4
				h-1.3h-0.5l0.3-0.4l0.6-1.1l0,0l3.2-5.6l-3.2-5.6v0L51,56.3l-0.3-0.4h0.5h1.3h6.4l3.2-5.6l0,0l0.6-1.1l0.3-0.4l0.3,0.4l0.6,1.1
				l3.2,5.6h6.4h1.3h0.5L75,56.3L74.4,57.4L74.4,57.4L74.4,57.4z"/>
		</g>
	</g>
	<path opacity="0.35" fill="#FFFFFF" d="M13,29.7v25.5C26.2,62.6,43.7,67,63,67s36.8-4.5,50-11.8V29.7H13z"/>
</g>
</svg>
