<?xml version="1.0" encoding="utf-8"?>
<!-- Generator: Adobe Illustrator 24.3.0, SVG Export Plug-In . SVG Version: 6.00 Build 0)  -->
<svg version="1.1" id="Layer_1" xmlns="http://www.w3.org/2000/svg" xmlns:xlink="http://www.w3.org/1999/xlink" x="0px" y="0px"
	 viewBox="0 0 126 126" enable-background="new 0 0 126 126" xml:space="preserve">
<g>
	<g>
		<polygon fill-rule="evenodd" clip-rule="evenodd" fill="#FFDE27" points="13,29.7 22.4,29.7 63,56.9 103.7,29.7 113,29.7 
			113,35.5 72,62.9 113,90.4 113,96.3 104,96.3 63,68.9 22,96.3 13.1,96.3 13,96.2 13,90.4 54.1,62.9 13,35.4 13,29.7 		"/>
		<path fill-rule="evenodd" clip-rule="evenodd" fill="#47B71D" d="M63,68.9l41,27.4H22L63,68.9L63,68.9z M63,56.9l40.7-27.2H22.4
			L63,56.9L63,56.9z"/>
		<path fill-rule="evenodd" clip-rule="evenodd" d="M13,35.4l41.1,27.5L13,90.4V35.4L13,35.4z M113,35.4L71.9,62.9L113,90.4V35.4
			L113,35.4z"/>
	</g>
	<path opacity="0.25" fill="#FFFFFF" d="M13,29.7v25.5C26.2,62.6,43.7,67,63,67c19.3,0,36.8-4.5,50-11.8V29.7H13z"/>
</g>
</svg>
