<?xml version="1.0" encoding="utf-8"?>
<!-- Generator: Adobe Illustrator 24.3.0, SVG Export Plug-In . SVG Version: 6.00 Build 0)  -->
<svg version="1.1" id="Layer_1" xmlns="http://www.w3.org/2000/svg" xmlns:xlink="http://www.w3.org/1999/xlink" x="0px" y="0px"
	 viewBox="0 0 126 126" enable-background="new 0 0 126 126" xml:space="preserve">
<g>
	<g>
		<polygon fill="#49A9F6" points="13,29.7 113,29.7 113,96.3 13,96.3 13,29.7 		"/>
		<path fill-rule="evenodd" clip-rule="evenodd" fill="#FEDC36" d="M67.8,46.4c-0.1-0.6-0.7-2.7-0.7-2.7s-0.7,2.1-0.7,2.7
			C66.2,47.8,68,47.8,67.8,46.4L67.8,46.4z M66.1,74.6c0,0,0.5-0.6,0.7-1.3c0,0-4.9-0.4-7.5-2c-2.6-1.6-4.3-3.3-5-4.1
			c-0.6-0.8-2.3-3.3-2.8-5.5c-0.5-2.2-0.8-1.6-1-0.9c-0.1,0.8,0.1,2.2,0.2,2.6c0,0-1-2-1.3-3.5c-0.2-1.5-1.1-1.2-1,0
			c0.1,1.2,0.5,3.1,1.5,4.8c0,0-0.7-0.6-1.7-2.2c-1-1.6-1.8-1.1-1.5-0.4c0.3,0.7,2.1,3.7,3.3,4.5c0,0-1.2-0.4-2.6-2.1
			c-1.2-1.4-1.2-0.5-0.9,0.2c0.3,0.8,2.7,3,3.4,3.5c0,0,0.3,0.2-0.2,0.1c-0.5-0.1-1.6-1-1.8-0.7c-0.2,0.3,0.2,1.2,3.7,2.7
			c0,0-0.4,0.1-1.3,0.1c-0.9-0.1-0.9,0-0.6,0.2c0.3,0.2,1.2,0.4,1.9,0.5c0.7,0.1,0.7,0.3,0.3,0.4c-0.5,0.1-0.8,0.1-1,0.2
			c-0.3,0.1-0.2,0.2,0.1,0.3c0.3,0.1,1.4,0.2,1.6,0.3c0.2,0,0.2,0.1,0,0.2c-0.2,0.1-0.6,0.2-0.8,0.2c-0.2,0-0.1,0.2,0,0.2
			c0.1,0,0.9,0.3,1.6,0.4c0.7,0.1,0.3,0.2,0,0.2c-0.3,0.1-0.8,0.2-0.5,0.3c0.3,0.1,3.1,1.7,6.3,2c0,0-2.3-0.7-3.3-1.1
			c-1-0.4-1.5-0.7-1.7-0.8c-0.2-0.1-0.1-0.2,0.1-0.3c0.1-0.1,0.4-0.2,0.5-0.3c0.2-0.1,0.1-0.1-0.2-0.1c-0.3,0-1.1-0.3-1.3-0.5
			c-0.2-0.2,0.1-0.3,0.2-0.4c0.1-0.1,0.3-0.2-0.2-0.4c-0.5-0.1-0.8-0.3-0.6-0.6c0.2-0.3,0.4-0.3,0-0.4c-0.3-0.1-0.5-0.3-0.4-0.6
			c0.1-0.3-0.2-0.3-0.3-0.3c-0.2-0.1-0.8-0.4-1.2-0.7c-0.3-0.3-0.3-0.3,0.1-0.3c0.4,0,0.6,0,0.3-0.2c-0.3-0.2-0.9-0.9-1.1-1.1
			c-0.2-0.3,0.1-0.2,0.3-0.2c0.2,0,0.5,0.1,0.4-0.2c-0.1-0.3-0.2-0.7-0.6-1.3c-0.4-0.6,0.3-0.4,0.4-0.3c0.2,0.1,0.2,0,0.4-0.3
			c0.2-0.3,1.5,1.1,1.7,1.4c0.2,0.3,1.5,2,2.5,2.9c0.9,0.9,1.6,0.8,2.4,1.2c0.8,0.4,2,2,2.8,2.4c0.8,0.4,2.5,0.4,3.3,0.4
			C64.8,73.8,65.6,74.2,66.1,74.6L66.1,74.6z M78.4,77.5c0,0-3.8-0.4-4.6-0.4c-0.8,0-0.7,0.1-0.9,0.4c-0.2,0.3-0.5,0.2-0.6,0.4
			c0,0.2,0.2,0.3-0.2,0.5c-0.3,0.2-0.4,0.6-2.7,0.6c-2.3,0.1-3,0-3.8,0.3c-0.8,0.3-1.2,0.6-1.4,1.3c0,0,0.7,0.1,1.4-0.4
			c0.6-0.5,0.5-0.2,0.5,0c0,0.2,0,1,0.4,0.6c0.5-0.4,0.6-0.7,0.8-0.8c0.2-0.2,0.2,0,0.2,0.2c0,0.2-0.2,0.8,0.2,0.7
			c0.4-0.1,0.8-0.7,1-0.9c0.2-0.2,0.3,0,0.2,0.2c0,0.2-0.1,0.7,0.3,0.7c0.5,0,0.6-0.6,0.8-0.8c0.1-0.2,0.2-0.1,0.3,0.1
			c0.1,0.2,0.1,0.5,0.4,0.5c0.4,0,0.5-0.5,0.7-0.6c0.2-0.1,0.3,0,0.4,0.2c0.1,0.2,0.5,0.4,0.8,0c0.3-0.4,0.4-0.6,0.5-0.7
			c0.1-0.1,0.1-0.1,0.2,0.1c0.1,0.2,0.4,0.6,0.7,0.2c0.2-0.4,0.3-0.6,0.4-0.7c0.1-0.2,0.2-0.2,0.4,0c0.2,0.1,0.9,0.6,1.1,0.2
			c0.2-0.4,0.3-1.1,0.3-1.1S78.2,79.6,78.4,77.5L78.4,77.5z M62,79c0.4-0.2,1.4-0.3,2.2-0.3c0.8,0,2.8,0,3.5,0c0.7,0,1,0.1,1,0
			c0-0.1-0.7-0.2-1.3-0.1c-0.5,0-1.2,0-1.4-0.1c-0.2-0.1-0.2,0-0.6,0c-0.3,0-0.5,0-0.7-0.1c-0.1-0.1,0.1-0.3,0.2-0.5
			c0.2-0.2,0.1-0.3-0.3-0.2c0,0,0.1-0.2,0.6-0.5c0,0-0.9,0.2-1.8,0.3c0,0,0.1,0.5-0.3,0.6c-0.4,0.1-0.5-0.1-0.6-0.1
			c-0.2,0-0.5,0.1-0.6-0.1c0,0-0.9,0.2-0.6,1.2c0,0,0.2-0.3,0.6-0.4C62.1,78.7,62,78.8,62,79L62,79z M75.1,76
			c0.9-0.2,1.7-0.4,2.4-0.8c0.8-0.4,1.5-0.7,1.2-1.5c0,0,0.4,0,0.7-0.1c0.3-0.2,0.3-0.3,0.2-0.4c-0.1-0.1-0.1-0.2,0.1-0.3
			c0.2-0.1,0.5-0.1,0.8-0.3c0.3-0.2-0.2-0.4,0.1-0.5c0.2-0.2,0.7-0.4,1-0.5c0.3-0.1,0-0.2-0.2-0.3c-0.1-0.1,0-0.1,0.2-0.2
			c0.2-0.1,1.4-0.8,1.6-1c0.2-0.2-0.3-0.3-0.5-0.3c-0.2,0,0.1-0.3,0.2-0.4c0.1-0.1,0.6-0.5,0.6-1.1c0,0-0.4-0.1-1.1,0.2
			c0,0,0.8-0.9,0.9-1.7c0,0-1-0.4-2.4,0.8c-1.4,1.1-1.7,1.6-1.9,2.1c-0.2,0.4-0.1,0.6-1.3,1.2c-1.2,0.6-2.6,1.2-3.3,1.8
			c-0.8,0.6-0.9,0.8-1.1,1c-0.2,0.2-0.6,0.3-1.1,0.3c-0.5,0.1-3,0.4-3.7,0.6c-0.8,0.2-1.3,0.4-1.8,1c-0.5,0.6-2,1.5-2.5,1.7
			c-0.4,0.1-0.8,0.3-1.1,0.5c0.1,0,0.2,0.1,0.2,0.2c0,0.1-0.1,0.2-0.2,0.2c-0.1,0-0.2-0.1-0.2-0.2c0,0,0-0.1,0-0.1
			c-0.1,0-0.2,0.1-0.2,0.1c-0.3,0.2-0.7,0.1-0.6-0.2c0.1-0.3,0.6-0.6,1.1-0.8c0.5-0.2,1.2-0.4,1.8-0.7c0.6-0.3,1.2-1.1,1.7-1.6
			c0.5-0.5,0.8-0.9,1.1-1c0.2-0.1,0.7-0.2,1-0.2c0.4,0,1.8-0.3,2.5-0.4c0.7-0.1,3-1.1,4.3-1.8s2.7-2,3.3-2.6
			c0.5-0.6,1.6-1.9,2.2-2.8c0.5-0.9,1.4-2.6,1.7-3.8c0.3-1.2,0.3-1.6,0.7-1.6c0.4,0,0.6,0.9,0.1,3.2c0,0,0.8-1,1.1-2.6
			c0.3-1.6,0.4-1.9,0.8-1.9c0.4,0,0.4,0.9,0.2,2.2c-0.2,1.3-1.5,3.6-1.5,3.6s1-0.9,1.7-2.1c0.7-1.2,1.2-1.3,1.5-1.1
			c0.3,0.2,0,1-0.4,1.7c-0.4,0.6-1.7,2.5-2.7,3.4c0,0,1.4-0.9,2.1-1.7c0.7-0.8,1-1.1,1.4-0.9c0.4,0.2-0.2,0.8-0.5,1.3
			c-0.4,0.5-2.3,2.5-3.1,2.9c0,0,0.6,0.1,1.3-0.4c0.7-0.5,0.9-0.4,0.9-0.2c0,0.2-0.3,1-1.6,1.8c-1.3,0.8-1.7,1-1.6,1.1
			c0.1,0.2,1.2-0.1,1.2,0.2c0.1,0.2-1.3,0.7-1.8,0.8c-0.5,0.2-0.9,0.2-0.9,0.3s0.9,0,1.2,0.1c0.3,0.1,0.4,0.2-0.2,0.4
			c-0.6,0.2-2,0.3-2,0.5c0,0.2,1.1,0.1,1.2,0.3c0.1,0.2-1.9,0.3-2.1,0.5c-0.3,0.1-0.4,0.2,0.1,0.4c0.5,0.2,0.7,0.2,0.4,0.4
			c-0.3,0.2-1.5,0.9-2.4,1.2C76.9,76,76.6,76.1,75.1,76L75.1,76z M67.1,48.7c4.9,0,8.9,4,8.9,8.9s-4,8.9-8.9,8.9s-8.9-4-8.9-8.9
			S62.1,48.7,67.1,48.7L67.1,48.7z M64.2,68.5c0,0.6,0.2,2.8,0.2,2.8s1.1-2,1.2-2.5C66,67.4,64.3,67.1,64.2,68.5L64.2,68.5z
			 M68.6,46.4c0.2-0.5,1.2-2.5,1.2-2.5s0.2,2.2,0.2,2.8C69.9,48.1,68.1,47.8,68.6,46.4L68.6,46.4z M62.1,67.7
			c-0.2,0.5-0.4,2.8-0.4,2.8s1.4-1.7,1.7-2.2C64.2,67,62.5,66.3,62.1,67.7L62.1,67.7z M70.7,46.9c0.3-0.5,1.7-2.2,1.7-2.2
			s-0.2,2.2-0.4,2.8C71.6,48.8,70,48.2,70.7,46.9L70.7,46.9z M60.2,66.6c-0.3,0.5-0.9,2.6-0.9,2.6s1.7-1.4,2.1-1.8
			C62.4,66.3,60.9,65.3,60.2,66.6L60.2,66.6z M72.7,47.8c0.4-0.4,2.1-1.8,2.1-1.8s-0.6,2.1-0.9,2.6C73.3,49.9,71.8,48.9,72.7,47.8
			L72.7,47.8z M58.6,65.1c-0.4,0.4-1.4,2.4-1.4,2.4s2-1,2.4-1.4C60.8,65.2,59.5,63.9,58.6,65.1L58.6,65.1z M74.5,49.1
			c0.4-0.4,2.4-1.4,2.4-1.4s-1,2-1.4,2.4C74.6,51.3,73.4,50,74.5,49.1L74.5,49.1z M57.3,63.3c-0.4,0.4-1.8,2.1-1.8,2.1
			s2.1-0.6,2.6-0.9C59.4,63.8,58.4,62.3,57.3,63.3L57.3,63.3z M76,50.7c0.5-0.3,2.6-0.9,2.6-0.9s-1.4,1.7-1.8,2.1
			C75.7,52.9,74.7,51.4,76,50.7L76,50.7z M56.4,61.2c-0.5,0.3-2.2,1.7-2.2,1.7s2.2-0.2,2.8-0.4C58.3,62.2,57.7,60.5,56.4,61.2
			L56.4,61.2z M77.2,52.6c0.5-0.2,2.8-0.4,2.8-0.4s-1.7,1.4-2.2,1.7C76.5,54.7,75.8,53,77.2,52.6L77.2,52.6z M55.9,59.1
			c-0.5,0.2-2.5,1.2-2.5,1.2s2.2,0.2,2.8,0.2C57.6,60.4,57.3,58.7,55.9,59.1L55.9,59.1z M78,54.7c0.6,0,2.8,0.2,2.8,0.2
			s-2,1.1-2.5,1.2C76.9,56.5,76.5,54.8,78,54.7L78,54.7z M55.8,56.9c-0.6,0.1-2.7,0.7-2.7,0.7s2.1,0.7,2.7,0.7
			C57.2,58.5,57.2,56.7,55.8,56.9L55.8,56.9z M78.3,56.8c0.6,0.1,2.7,0.7,2.7,0.7s-2.1,0.7-2.7,0.7C76.9,58.5,76.9,56.7,78.3,56.8
			L78.3,56.8z M56.2,54.7c-0.6,0-2.8,0.2-2.8,0.2s2,1.1,2.5,1.2C57.3,56.6,57.6,54.8,56.2,54.7L56.2,54.7z M78.2,59
			c0.5,0.2,2.5,1.2,2.5,1.2s-2.2,0.2-2.8,0.2C76.5,60.4,76.9,58.6,78.2,59L78.2,59z M56.9,52.7c-0.5-0.2-2.8-0.4-2.8-0.4
			s1.7,1.4,2.2,1.7C57.6,54.7,58.3,53,56.9,52.7L56.9,52.7z M77.8,61.2c0.5,0.3,2.2,1.7,2.2,1.7s-2.2-0.2-2.8-0.4
			C75.8,62.2,76.5,60.5,77.8,61.2L77.8,61.2z M58.1,50.8c-0.5-0.3-2.6-0.9-2.6-0.9s1.4,1.7,1.8,2.1C58.4,52.9,59.4,51.4,58.1,50.8
			L58.1,50.8z M76.8,63.2c0.4,0.4,1.8,2.1,1.8,2.1s-2.1-0.6-2.6-0.9C74.8,63.8,75.8,62.3,76.8,63.2L76.8,63.2z M59.6,49.1
			c-0.4-0.4-2.4-1.4-2.4-1.4s1,2,1.4,2.4C59.5,51.3,60.8,50,59.6,49.1L59.6,49.1z M75.5,65c0.4,0.4,1.4,2.4,1.4,2.4s-2-1-2.4-1.4
			C73.4,65.2,74.7,63.9,75.5,65L75.5,65z M61.4,47.9C61,47.4,59.3,46,59.3,46s0.6,2.1,0.9,2.6C60.9,49.9,62.3,48.9,61.4,47.9
			L61.4,47.9z M73.9,66.5c0.3,0.5,0.9,2.6,0.9,2.6s-1.7-1.4-2.1-1.8C71.8,66.3,73.3,65.3,73.9,66.5L73.9,66.5z M63.4,46.9
			c-0.3-0.5-1.7-2.2-1.7-2.2s0.2,2.2,0.4,2.8C62.5,48.9,64.1,48.2,63.4,46.9L63.4,46.9z M72.1,67.7c0.2,0.5,0.4,2.8,0.4,2.8
			s-1.4-1.7-1.7-2.2C70,67,71.7,66.3,72.1,67.7L72.1,67.7z M65.6,46.4c-0.2-0.5-1.2-2.5-1.2-2.5s-0.2,2.2-0.2,2.8
			C64.2,48.1,66,47.8,65.6,46.4L65.6,46.4z M70,68.5c0,0.6-0.2,2.8-0.2,2.8s-1.1-2-1.2-2.5C68.1,67.4,69.9,67.1,70,68.5L70,68.5z
			 M67.8,68.8c-0.1,0.6-0.7,2.7-0.7,2.7s-0.7-2.1-0.7-2.7C66.2,67.4,68,67.4,67.8,68.8L67.8,68.8z"/>
		<path fill-rule="evenodd" clip-rule="evenodd" fill="#FEDC36" d="M17.3,45.3c0,0,0.8-0.7,0.5-2.3c-0.3-1.7-0.7-2.5,0.3-3.2
			c0,0,0,0,0,0c-0.2,0-0.4-0.2-0.6-0.4c0,0,0.2-0.3,0.7-0.4c-0.5-0.3-0.7-0.8-0.7-1.4c0-1.9,1.1-2.1-0.1-4.2c0,0,1.5,0.2,1.2,1.7
			c0,0,0.2,0.1,0.4-0.1c0,0,0.1,0.3-0.2,0.7c0,0,0.1,0.1,0.4,0c0,0-0.1,0.4-0.4,0.6c0,0,1.2-0.2,1.4,0.9c0.2,1.1-0.9,0.9-1,0.9
			c0,0-0.1,0.2,0,0.4c0,0-0.4-0.1-0.3-0.5c0,0-0.2,0-0.4-0.2c0,0,0.1-0.2,0.4-0.2c0,0-0.1-0.4,0.2-0.5c0,0-0.1,0.5,0.3,0.5
			c0.4,0,0.4-0.5,0.1-0.7c-0.3-0.2-0.8-0.2-1,0.2c-0.2,0.3-0.2,0.9,0,1.2c0.2,0.3,0.6,0.4,1.2,0.4c0.6,0,0.9-0.6,0.8-1.1
			c-0.1-0.5-0.4-1.3-0.8-2.1c-0.4-0.8-0.5-1.4,0-1.7c0.5-0.3,1.1-0.1,1.4,0.1c0.3-0.2,0.9-0.4,1.4-0.1c0.5,0.3,0.4,0.9,0,1.7
			c-0.4,0.8-0.7,1.6-0.8,2.1c-0.1,0.5,0.2,1.1,0.8,1.1c0.6,0,1.1-0.1,1.2-0.4c0.2-0.3,0.2-0.8,0-1.2c-0.2-0.3-0.7-0.3-1-0.2
			c-0.3,0.2-0.3,0.7,0.1,0.7c0.4,0,0.3-0.5,0.3-0.5c0.3,0.1,0.2,0.5,0.2,0.5c0.3,0,0.4,0.2,0.4,0.2c-0.2,0.2-0.4,0.2-0.4,0.2
			c0.1,0.5-0.3,0.5-0.3,0.5c0.1-0.3,0-0.4,0-0.4c-0.1,0.1-1.2,0.2-1-0.9c0.2-1.1,1.4-0.9,1.4-0.9c-0.3-0.2-0.4-0.6-0.4-0.6
			c0.3,0.1,0.4,0,0.4,0c-0.3-0.3-0.2-0.7-0.2-0.7c0.2,0.2,0.4,0.1,0.4,0.1c-0.3-1.5,1.2-1.7,1.2-1.7c-1.2,2.1-0.1,2.3-0.1,4.2
			c0,0.6-0.2,1.1-0.7,1.4c0.5,0.1,0.7,0.4,0.7,0.4c-0.2,0.3-0.4,0.4-0.6,0.4c0,0,0,0,0,0c1,0.7,0.6,1.6,0.3,3.2
			c-0.3,1.7,0.5,2.3,0.5,2.3c-1.6-0.3-1.1-1.8-1.1-1.8c-0.3-0.1-0.5,0.2-0.5,0.2c0-0.5,0.3-0.7,0.3-0.7c-0.2,0-0.3,0.1-0.3,0.1
			c0.1-0.3,0.3-0.5,0.3-0.5c-0.3,0-0.5,0.1-0.9-0.2c-0.4-0.2-0.5-0.8-0.4-1.2c0.1-0.4,0.6-0.4,0.8-0.5c0.2,0,0.2-0.3,0.2-0.3
			c0.4,0.2,0.2,0.5,0.2,0.5c0.2,0,0.3,0.2,0.3,0.2c-0.1,0.1-0.3,0.2-0.3,0.2c0,0.4-0.3,0.5-0.3,0.5c0.1-0.4-0.2-0.5-0.3-0.5
			c-0.1,0-0.3,0.2-0.2,0.3c0,0.2,0.2,0.5,0.7,0.4c0.5-0.1,0.8-0.6,0.5-1.3c-0.3-0.7-1.2-0.9-1.7-0.4c-0.6,0.5-0.3,1.3-0.2,1.6
			c0.1,0.3,1.5,3.1,1.7,3.6c0.2,0.5,1.5,2.9,1.6,3.7c0.1,0.8-0.5,1.9-1.9,2c-1.4,0.1-2.1-1.3-2.1-1.3s-0.6,1.4-2.1,1.3
			c-1.4-0.1-2-1.1-1.9-2c0.1-0.8,1.3-3.2,1.6-3.7c0.2-0.5,1.6-3.3,1.7-3.6c0.1-0.3,0.4-1.1-0.2-1.6c-0.6-0.5-1.5-0.3-1.7,0.4
			c-0.3,0.7,0,1.3,0.5,1.3c0.5,0.1,0.7-0.2,0.7-0.4c0-0.2-0.1-0.3-0.2-0.3c-0.1,0-0.4,0.1-0.3,0.5c0,0-0.3,0-0.2-0.5
			c0,0-0.3-0.1-0.3-0.2c0,0,0.1-0.1,0.3-0.2c0,0-0.1-0.3,0.2-0.5c0,0-0.1,0.3,0.2,0.3c0.2,0,0.7,0.1,0.8,0.5c0.1,0.4,0,0.9-0.4,1.2
			c-0.4,0.2-0.6,0.2-0.9,0.2c0,0,0.2,0.2,0.3,0.5c0,0-0.1-0.1-0.4-0.1c0,0,0.3,0.3,0.3,0.7c0,0-0.2-0.2-0.5-0.2
			C18.5,43.5,19,45,17.3,45.3L17.3,45.3z M24.6,92.8c0,0-1.5-0.2-1.2-1.7c0,0-0.2-0.1-0.4,0.1c0,0-0.1-0.3,0.2-0.7
			c0,0-0.1-0.1-0.4,0c0,0,0.1-0.4,0.4-0.6c0,0-1.2,0.2-1.4-0.9c-0.2-1.1,0.9-0.9,1-0.9c0,0,0.1-0.2,0-0.4c0,0,0.4,0.1,0.3,0.5
			c0,0,0.2,0,0.4,0.2c0,0-0.1,0.2-0.4,0.2c0,0,0.1,0.4-0.2,0.5c0,0,0.1-0.5-0.3-0.5c-0.4,0-0.4,0.5-0.1,0.7c0.3,0.2,0.8,0.2,1-0.2
			c0.2-0.3,0.2-0.9,0-1.2c-0.2-0.3-0.6-0.4-1.2-0.4c-0.6,0-0.9,0.6-0.8,1.1c0.1,0.5,0.4,1.3,0.8,2.1c0.4,0.8,0.5,1.4,0,1.7
			c-0.5,0.3-1.1,0.1-1.4-0.1c-0.3,0.2-0.9,0.4-1.4,0.1c-0.5-0.3-0.4-0.9,0-1.7c0.4-0.8,0.7-1.6,0.8-2.1c0.1-0.5-0.2-1.1-0.8-1.1
			c-0.6,0-1.1,0.1-1.2,0.4c-0.2,0.3-0.2,0.8,0,1.2c0.2,0.3,0.7,0.3,1,0.2c0.3-0.2,0.3-0.7-0.1-0.7c-0.4,0-0.3,0.5-0.3,0.5
			c-0.3-0.1-0.2-0.5-0.2-0.5c-0.3,0-0.4-0.2-0.4-0.2c0.2-0.2,0.4-0.2,0.4-0.2c-0.1-0.5,0.3-0.5,0.3-0.5c-0.1,0.3,0,0.4,0,0.4
			c0.1-0.1,1.2-0.2,1,0.9c-0.2,1.1-1.4,0.9-1.4,0.9c0.3,0.2,0.4,0.6,0.4,0.6c-0.3-0.1-0.4,0-0.4,0c0.3,0.3,0.2,0.7,0.2,0.7
			c-0.2-0.2-0.4-0.1-0.4-0.1c0.3,1.5-1.2,1.7-1.2,1.7c1.2-2.1,0.1-2.3,0.1-4.2c0-0.6,0.2-1,0.6-1.3c-0.2-0.1-0.4-0.2-0.5-0.4
			c0,0,0.2-0.3,0.8-0.4c0,0-0.1-0.1-0.1-0.1c-1-0.7-0.6-1.6-0.3-3.2c0.3-1.7-0.5-2.3-0.5-2.3c1.6,0.3,1.1,1.8,1.1,1.8
			c0.3,0.1,0.5-0.2,0.5-0.2c0,0.5-0.3,0.7-0.3,0.7c0.2,0,0.4-0.1,0.4-0.1c-0.1,0.3-0.3,0.5-0.3,0.5c0.3,0,0.5-0.1,0.9,0.2
			c0.4,0.2,0.5,0.8,0.4,1.2c-0.1,0.4-0.6,0.4-0.8,0.5s-0.2,0.3-0.2,0.3c-0.4-0.2-0.2-0.5-0.2-0.5c-0.2,0-0.3-0.2-0.3-0.2
			c0.1-0.1,0.3-0.2,0.3-0.2c0-0.4,0.2-0.5,0.2-0.5c-0.1,0.4,0.2,0.5,0.3,0.5c0.1,0,0.3-0.2,0.2-0.3c0-0.2-0.2-0.5-0.7-0.4
			c-0.5,0.1-0.8,0.6-0.5,1.3c0.3,0.7,1.2,0.9,1.7,0.4c0.6-0.5,0.3-1.3,0.2-1.6c-0.1-0.3-1.5-3.1-1.7-3.6c-0.2-0.5-1.5-2.9-1.6-3.7
			c-0.1-0.8,0.5-1.9,1.9-2c1.4-0.1,2.1,1.3,2.1,1.3s0.6-1.4,2.1-1.3c1.4,0.1,2,1.1,1.9,2c-0.1,0.8-1.3,3.2-1.6,3.7
			c-0.2,0.5-1.6,3.3-1.7,3.6c-0.1,0.3-0.4,1.1,0.2,1.6c0.6,0.5,1.5,0.3,1.7-0.4c0.3-0.7,0-1.3-0.5-1.3c-0.5-0.1-0.7,0.2-0.7,0.4
			c0,0.2,0.1,0.3,0.2,0.3c0.1,0,0.4-0.1,0.3-0.5c0,0,0.3,0,0.3,0.5c0,0,0.3,0.1,0.3,0.2c0,0-0.1,0.1-0.3,0.2c0,0,0.1,0.3-0.2,0.5
			c0,0,0.1-0.3-0.2-0.3c-0.2,0-0.7-0.1-0.8-0.5c-0.1-0.4,0-0.9,0.4-1.2c0.4-0.2,0.6-0.2,0.9-0.2c0,0-0.2-0.2-0.3-0.5
			c0,0,0.1,0.1,0.3,0.1c0,0-0.3-0.3-0.3-0.7c0,0,0.2,0.2,0.5,0.2c0,0-0.5-1.5,1.1-1.8c0,0-0.8,0.7-0.5,2.3c0.3,1.7,0.7,2.5-0.3,3.2
			c0,0-0.1,0.1-0.1,0.1c0.5,0,0.8,0.4,0.8,0.4c-0.2,0.2-0.3,0.3-0.5,0.4c0.4,0.3,0.6,0.8,0.6,1.3C24.6,90.5,23.5,90.6,24.6,92.8
			L24.6,92.8z M19.6,86.8c0.6,0,1.1,0.3,1.4,0.8c0.3-0.5,0.8-0.7,1.4-0.8c0,0,0,0,0,0c-0.3,0-0.5-0.1-0.7-0.2
			c-0.3-0.2-0.6-0.5-0.7-0.6c-0.1,0.1-0.4,0.4-0.7,0.6C20.1,86.7,19.9,86.8,19.6,86.8C19.6,86.8,19.6,86.8,19.6,86.8L19.6,86.8z
			 M21,91.6c0,0,0.7,0.6,0.9,0.3c0.2-0.3-0.1-1-0.3-1.4C21.4,90,21,89.3,21,89.3s-0.4,0.7-0.5,1.2c-0.2,0.4-0.5,1.1-0.3,1.4
			C20.3,92.2,21,91.6,21,91.6L21,91.6z M21,84c0,0-2.5-5.2-2.7-5.8c-0.3-0.5-0.6-1.4-0.3-2c0.3-0.6,1.2-0.7,1.7-0.3
			c0.5,0.4,0.4,0.9,0.2,1.1c-0.2,0.2-0.8,0.1-0.7-0.7c0,0-0.5,0.1-0.5,0.7c0,0-0.4,0.1-0.5,0.3c0,0,0.2,0.3,0.5,0.3
			c0,0-0.2,0.5,0.5,0.7c0,0-0.1-0.7,0.5-0.7c0.7,0,0.9-0.4,0.9-0.4s0.1,1.3,0.1,1.8c0,0.5-0.8,0.6-1.1,0.4c0,0,0,0.7,1.3,0.8
			c0,0-0.9,0.7,0.3,1.8c1.3-1.1,0.3-1.8,0.3-1.8c1.3-0.1,1.3-0.8,1.3-0.8c-0.3,0.2-1.1,0.1-1.1-0.4c0-0.5,0.1-1.8,0.1-1.8
			s0.2,0.3,0.9,0.4c0.7,0,0.5,0.7,0.5,0.7c0.6-0.3,0.5-0.7,0.5-0.7c0.3,0,0.5-0.3,0.5-0.3c-0.2-0.3-0.5-0.3-0.5-0.3
			c0-0.6-0.5-0.7-0.5-0.7c0.1,0.8-0.5,0.9-0.7,0.7c-0.2-0.2-0.3-0.6,0.2-1.1c0.5-0.4,1.3-0.3,1.7,0.3c0.3,0.6,0,1.5-0.3,2
			C23.5,78.8,21,84,21,84L21,84z M17.3,69.1c0,0,0.8-0.7,0.5-2.3c-0.3-1.7-0.7-2.5,0.3-3.2c0,0,0.1-0.1,0.1-0.1
			c-0.5,0-0.8-0.4-0.8-0.4c0.2-0.3,0.4-0.4,0.6-0.4c0,0,0,0,0,0c-1-0.7-0.6-1.6-0.3-3.2c0.3-1.7-0.5-2.3-0.5-2.3
			c1.6,0.3,1.1,1.8,1.1,1.8c0.3,0.1,0.5-0.2,0.5-0.2c0,0.5-0.3,0.7-0.3,0.7c0.2,0,0.4-0.1,0.4-0.1c-0.1,0.3-0.3,0.5-0.3,0.5
			c0.3,0,0.5-0.1,0.9,0.2c0.4,0.2,0.5,0.8,0.4,1.2c-0.1,0.4-0.6,0.4-0.8,0.5c-0.2,0-0.2,0.3-0.2,0.3c-0.4-0.2-0.2-0.5-0.2-0.5
			c-0.2,0-0.3-0.2-0.3-0.2c0.1-0.1,0.3-0.2,0.3-0.2c0-0.4,0.2-0.5,0.2-0.5c-0.1,0.4,0.2,0.5,0.3,0.5c0.1,0,0.3-0.2,0.2-0.3
			c0-0.2-0.2-0.5-0.7-0.4c-0.5,0.1-0.8,0.6-0.5,1.3c0.3,0.7,1.2,0.9,1.7,0.4c0.6-0.5,0.3-1.3,0.2-1.6c-0.1-0.3-1.5-3.1-1.7-3.6
			c-0.2-0.5-1.5-2.9-1.6-3.7c-0.1-0.8,0.5-1.9,1.9-2c1.4-0.1,2.1,1.3,2.1,1.3s0.6-1.4,2.1-1.3c1.4,0.1,2,1.1,1.9,2
			c-0.1,0.8-1.3,3.2-1.6,3.7c-0.2,0.5-1.6,3.3-1.7,3.6c-0.1,0.3-0.4,1.1,0.2,1.6c0.6,0.5,1.5,0.3,1.7-0.4c0.3-0.7,0-1.3-0.5-1.3
			c-0.5-0.1-0.7,0.2-0.7,0.4c0,0.2,0.1,0.3,0.2,0.3c0.1,0,0.4-0.1,0.3-0.5c0,0,0.3,0,0.3,0.5c0,0,0.3,0.1,0.3,0.2
			c0,0-0.1,0.1-0.3,0.2c0,0,0.1,0.3-0.2,0.5c0,0,0.1-0.3-0.2-0.3c-0.2,0-0.7-0.1-0.8-0.5c-0.1-0.4,0-0.9,0.4-1.2
			c0.4-0.2,0.6-0.2,0.9-0.2c0,0-0.2-0.2-0.3-0.5c0,0,0.1,0.1,0.3,0.1c0,0-0.3-0.3-0.3-0.7c0,0,0.2,0.2,0.5,0.2c0,0-0.5-1.5,1.1-1.8
			c0,0-0.8,0.7-0.5,2.3c0.3,1.7,0.7,2.5-0.3,3.2c0,0,0,0,0,0c0.2,0,0.4,0.2,0.6,0.4c0,0-0.2,0.3-0.8,0.4c0,0,0.1,0.1,0.1,0.1
			c1,0.7,0.6,1.6,0.3,3.2c-0.3,1.7,0.5,2.3,0.5,2.3c-1.6-0.3-1.1-1.8-1.1-1.8c-0.3-0.1-0.5,0.2-0.5,0.2c0-0.5,0.3-0.7,0.3-0.7
			c-0.2,0-0.3,0.1-0.3,0.1c0.1-0.3,0.3-0.5,0.3-0.5c-0.3,0-0.5,0.1-0.9-0.2c-0.4-0.2-0.5-0.8-0.4-1.2c0.1-0.4,0.6-0.4,0.8-0.5
			c0.2,0,0.2-0.3,0.2-0.3c0.4,0.2,0.2,0.5,0.2,0.5c0.2,0,0.3,0.2,0.3,0.2c-0.1,0.1-0.3,0.2-0.3,0.2c0,0.4-0.3,0.5-0.3,0.5
			c0.1-0.4-0.2-0.5-0.3-0.5c-0.1,0-0.3,0.2-0.2,0.3c0,0.2,0.2,0.5,0.7,0.4c0.5-0.1,0.8-0.6,0.5-1.3c-0.3-0.7-1.2-0.9-1.7-0.4
			c-0.6,0.5-0.3,1.3-0.2,1.6c0.1,0.3,1.5,3.1,1.7,3.6c0.2,0.5,1.5,2.9,1.6,3.7c0.1,0.8-0.5,1.9-1.9,2C21.6,75,21,73.6,21,73.6
			s-0.6,1.4-2.1,1.3c-1.4-0.1-2-1.1-1.9-2c0.1-0.8,1.3-3.2,1.6-3.7s1.6-3.3,1.7-3.6c0.1-0.3,0.4-1.1-0.2-1.6
			c-0.6-0.5-1.5-0.3-1.7,0.4c-0.3,0.7,0,1.3,0.5,1.3c0.5,0.1,0.7-0.2,0.7-0.4c0-0.2-0.1-0.3-0.2-0.3c-0.1,0-0.4,0.1-0.3,0.5
			c0,0-0.3,0-0.2-0.5c0,0-0.3-0.1-0.3-0.2c0,0,0.1-0.1,0.3-0.2c0,0-0.1-0.3,0.2-0.5c0,0-0.1,0.3,0.2,0.3c0.2,0,0.7,0.1,0.8,0.5
			c0.1,0.4,0,0.9-0.4,1.2c-0.4,0.2-0.6,0.2-0.9,0.2c0,0,0.2,0.2,0.3,0.5c0,0-0.1-0.1-0.4-0.1c0,0,0.3,0.3,0.3,0.7
			c0,0-0.2-0.2-0.5-0.2C18.5,67.3,19,68.8,17.3,69.1L17.3,69.1z M19.6,63c0.3,0,0.5,0.1,0.7,0.2c0.3,0.2,0.6,0.5,0.7,0.6
			c0.1-0.1,0.4-0.4,0.7-0.6c0.1-0.1,0.4-0.2,0.7-0.2l0,0c-0.3,0-0.6-0.1-0.7-0.2c-0.3-0.2-0.6-0.5-0.7-0.6c-0.1,0.1-0.4,0.4-0.7,0.6
			C20.1,62.9,19.9,63,19.6,63L19.6,63L19.6,63z M21,65.8c0,0-2.5,5.2-2.7,5.8c-0.3,0.5-0.6,1.4-0.3,2c0.3,0.6,1.2,0.7,1.7,0.3
			c0.5-0.4,0.4-0.9,0.2-1.1c-0.2-0.2-0.8-0.1-0.7,0.7c0,0-0.5-0.1-0.5-0.7c0,0-0.4-0.1-0.5-0.3c0,0,0.2-0.3,0.5-0.3
			c0,0-0.2-0.5,0.5-0.7c0,0-0.1,0.7,0.5,0.7c0.7,0,0.9,0.4,0.9,0.4s0.1-1.3,0.1-1.8c0-0.5-0.8-0.6-1.1-0.4c0,0,0-0.7,1.3-0.8
			c0,0-0.9-0.7,0.3-1.8c1.3,1.1,0.3,1.8,0.3,1.8c1.3,0.1,1.3,0.8,1.3,0.8c-0.3-0.2-1.1-0.1-1.1,0.4c0,0.5,0.1,1.8,0.1,1.8
			s0.2-0.3,0.9-0.4c0.7,0,0.5-0.7,0.5-0.7c0.6,0.3,0.5,0.7,0.5,0.7c0.3,0,0.5,0.3,0.5,0.3c-0.2,0.3-0.5,0.3-0.5,0.3
			c0,0.6-0.5,0.7-0.5,0.7c0.1-0.8-0.5-0.9-0.7-0.7c-0.2,0.2-0.3,0.6,0.2,1.1c0.5,0.4,1.3,0.3,1.7-0.3c0.3-0.6,0-1.5-0.3-2
			C23.5,71.1,21,65.8,21,65.8L21,65.8z M21,60.3c0,0-2.5-5.2-2.7-5.8c-0.3-0.5-0.6-1.4-0.3-2c0.3-0.6,1.2-0.7,1.7-0.3
			c0.5,0.4,0.4,0.9,0.2,1c-0.2,0.2-0.8,0.1-0.7-0.7c0,0-0.5,0.1-0.5,0.7c0,0-0.4,0.1-0.5,0.3c0,0,0.2,0.3,0.5,0.3
			c0,0-0.2,0.5,0.5,0.7c0,0-0.1-0.7,0.5-0.7c0.7,0,0.9-0.4,0.9-0.4s0.1,1.3,0.1,1.8c0,0.5-0.8,0.6-1.1,0.4c0,0,0,0.7,1.3,0.8
			c0,0-0.9,0.7,0.3,1.8c1.3-1.1,0.3-1.8,0.3-1.8c1.3-0.1,1.3-0.8,1.3-0.8c-0.3,0.2-1.1,0.1-1.1-0.4c0-0.5,0.1-1.8,0.1-1.8
			s0.2,0.3,0.9,0.4c0.7,0,0.5,0.7,0.5,0.7c0.6-0.3,0.5-0.7,0.5-0.7c0.3,0,0.5-0.3,0.5-0.3c-0.2-0.3-0.5-0.3-0.5-0.3
			c0-0.6-0.5-0.7-0.5-0.7c0.1,0.8-0.5,0.9-0.7,0.7c-0.2-0.2-0.3-0.6,0.2-1c0.5-0.4,1.3-0.3,1.7,0.3c0.3,0.6,0,1.5-0.3,2
			C23.5,55,21,60.3,21,60.3L21,60.3z M19.6,39.3c0.3,0,0.6,0.1,0.7,0.2c0.3,0.2,0.6,0.5,0.7,0.6c0.1-0.1,0.4-0.4,0.7-0.6
			c0.1-0.1,0.4-0.2,0.7-0.2c0,0,0,0,0,0s0,0,0,0c-0.6,0-1.1-0.3-1.4-0.8C20.7,38.9,20.2,39.2,19.6,39.3
			C19.6,39.2,19.6,39.2,19.6,39.3C19.6,39.2,19.6,39.3,19.6,39.3L19.6,39.3z M21,34.5c0,0,0.7-0.6,0.9-0.3c0.2,0.3-0.1,1-0.3,1.4
			c-0.2,0.4-0.5,1.2-0.5,1.2s-0.4-0.7-0.5-1.2c-0.2-0.4-0.5-1.1-0.3-1.4C20.3,33.8,21,34.5,21,34.5L21,34.5z M21,42
			c0,0-2.5,5.2-2.7,5.8c-0.3,0.5-0.6,1.4-0.3,2c0.3,0.6,1.2,0.7,1.7,0.3c0.5-0.4,0.4-0.9,0.2-1c-0.2-0.2-0.8-0.1-0.7,0.7
			c0,0-0.5-0.1-0.5-0.7c0,0-0.4-0.1-0.5-0.3c0,0,0.2-0.3,0.5-0.3c0,0-0.2-0.5,0.5-0.7c0,0-0.1,0.7,0.5,0.7c0.7,0,0.9,0.4,0.9,0.4
			s0.1-1.3,0.1-1.8s-0.8-0.6-1.1-0.4c0,0,0-0.7,1.3-0.8c0,0-0.9-0.7,0.3-1.8c1.3,1.1,0.3,1.8,0.3,1.8c1.3,0.1,1.3,0.8,1.3,0.8
			c-0.3-0.2-1.1-0.1-1.1,0.4s0.1,1.8,0.1,1.8s0.2-0.3,0.9-0.4c0.7,0,0.5-0.7,0.5-0.7c0.6,0.3,0.5,0.7,0.5,0.7c0.3,0,0.5,0.3,0.5,0.3
			c-0.2,0.3-0.5,0.3-0.5,0.3c0,0.6-0.5,0.7-0.5,0.7c0.1-0.8-0.5-0.9-0.7-0.7c-0.2,0.2-0.3,0.6,0.2,1c0.5,0.4,1.3,0.3,1.7-0.3
			c0.3-0.6,0-1.5-0.3-2C23.5,47.3,21,42,21,42L21,42z"/>
	</g>
	<path opacity="0.25" fill="#FFFFFF" d="M13,29.7v25.5C26.2,62.6,43.7,67,63,67c19.3,0,36.8-4.5,50-11.8V29.7H13z"/>
</g>
</svg>
