<?xml version="1.0" encoding="utf-8"?>
<!-- Generator: Adobe Illustrator 24.3.0, SVG Export Plug-In . SVG Version: 6.00 Build 0)  -->
<svg version="1.1" id="Layer_1" xmlns="http://www.w3.org/2000/svg" xmlns:xlink="http://www.w3.org/1999/xlink" x="0px" y="0px"
	 viewBox="0 0 126 126" enable-background="new 0 0 126 126" xml:space="preserve">
<g>
	<g>
		<polygon fill="#F4F4F4" points="13,29.7 113,29.7 113,96.3 13,96.3 13,29.7 		"/>
		<polygon fill="#030303" points="13,29.7 113,29.7 113,49.7 13,49.7 13,29.7 		"/>
		<polygon fill="#00840F" points="13,76.3 113,76.3 113,96.3 13,96.3 13,76.3 		"/>
		<path fill="#D20714" d="M13,53v20c41.9,0,58.1,0,100,0V53C70.9,53,55.1,53,13,53L13,53z"/>
		<g>
			
				<path fill-rule="evenodd" clip-rule="evenodd" fill="#F4F4F4" stroke="#000000" stroke-width="0.1559" stroke-miterlimit="2.4142" d="
				M49.6,41.3c0,0,7,6.7,6,9.4l19.4,33.4l-0.9,0.5L54.7,51.2C54.7,51.2,52.2,51.5,49.6,41.3L49.6,41.3z"/>
			
				<path fill-rule="evenodd" clip-rule="evenodd" fill="#F4F4F4" stroke="#000000" stroke-width="0.1559" stroke-miterlimit="2.4142" d="
				M76.4,41.3c0,0-7,6.7-6,9.4L51.1,84.2l0.9,0.5l19.3-33.5C71.3,51.2,73.8,51.5,76.4,41.3L76.4,41.3z"/>
			<path fill-rule="evenodd" clip-rule="evenodd" fill="#D20714" d="M63,84.4c0,0,1.1,0.2,3-2.1c1.9-2.3,6.9-9.1,6.9-17.7
				c0-9.8-7.1-19.9-9.9-19.9c-2.8,0-9.9,10.1-9.9,19.9c0,8.6,4.9,15.4,6.9,17.7C61.9,84.5,63,84.4,63,84.4L63,84.4z"/>
			<path fill-rule="evenodd" clip-rule="evenodd" fill="#F4F4F4" d="M63.4,44.9V62c0,0,1.6-2.9,1.6-8.6
				C65.1,47.8,63.4,44.9,63.4,44.9L63.4,44.9z"/>
			<path fill-rule="evenodd" clip-rule="evenodd" fill="#F4F4F4" d="M63.4,67v17.1c0,0,1.6-2.9,1.6-8.6C65.1,69.9,63.4,67,63.4,67
				L63.4,67z"/>
			<path fill-rule="evenodd" clip-rule="evenodd" fill="#F4F4F4" d="M63,62.1c2.2,0,2.2,4.9,0,4.9C60.8,67,60.8,62.1,63,62.1
				L63,62.1z"/>
			<path fill-rule="evenodd" clip-rule="evenodd" d="M70.8,74.4c1.2-2.8,2.1-6.1,2.1-9.8c0-3.4-0.8-6.8-2.1-9.8
				c-1.2,3-2.1,6.4-2.1,9.8C68.8,68.3,69.7,71.6,70.8,74.4L70.8,74.4z"/>
			<path fill-rule="evenodd" clip-rule="evenodd" fill="#F4F4F4" d="M62.6,44.9V62c0,0-1.6-2.9-1.6-8.6C61,47.8,62.6,44.9,62.6,44.9
				L62.6,44.9z"/>
			<path fill-rule="evenodd" clip-rule="evenodd" fill="#F4F4F4" d="M62.6,67v17.1c0,0-1.6-2.9-1.6-8.6C61,69.9,62.6,67,62.6,67
				L62.6,67z"/>
			<path fill-rule="evenodd" clip-rule="evenodd" d="M55.2,74.4c-1.2-2.8-2.1-6.1-2.1-9.8c0-3.4,0.8-6.8,2.1-9.8
				c1.2,3,2.1,6.4,2.1,9.8C57.2,68.3,56.4,71.6,55.2,74.4L55.2,74.4z"/>
		</g>
	</g>
	<path opacity="0.25" fill="#FFFFFF" d="M13,29.7v25.5C26.2,62.6,43.7,67,63,67c19.3,0,36.8-4.5,50-11.8V29.7H13z"/>
</g>
</svg>
