<?xml version="1.0" encoding="utf-8"?>
<!-- Generator: Adobe Illustrator 24.3.0, SVG Export Plug-In . SVG Version: 6.00 Build 0)  -->
<svg version="1.1" id="Layer_1" xmlns="http://www.w3.org/2000/svg" xmlns:xlink="http://www.w3.org/1999/xlink" x="0px" y="0px"
	 viewBox="0 0 126 126" enable-background="new 0 0 126 126" xml:space="preserve">
<g>
	<g>
		<path fill-rule="evenodd" clip-rule="evenodd" fill="#FF1612" d="M113,65.3V29.7H13v35.8c3.4-0.8,7.4-2.5,10.6-2.5
			c4.1,0,8.9,2.9,13.3,2.9c4.4,0,9.4-2.9,13.4-2.9c4,0,8.9,2.9,13.4,2.9S72.9,63,77,63c4.1,0,9.5,2.9,13.4,2.9
			c3.9,0,9.9-2.9,13.3-2.9S110.5,64.4,113,65.3L113,65.3z"/>
		<g>
			
				<path fill-rule="evenodd" clip-rule="evenodd" fill="#FFDE27" stroke="#BD9C08" stroke-width="0.2105" stroke-miterlimit="2.4142" d="
				M55.9,38.5c0,0,1.3-1.5,3.8,0.3h0.9h0c0,0-0.8-1.3-5.4-2.2c-4.6-0.8-6.1-1.2-8.1-2.8c0,0,3.2,0.7,4.9,0.9c1.7,0.2,5,0.5,6.3,0.7
				c1.3,0.2,3.2,0.6,4,2.5c0,0,2.5-3.3,6-3.6c3.5-0.3,8.3-0.2,11.5-1c3.2-0.8-5.9,2.9-9.1,3.2c-3.2,0.3-3.2,0.2-3.7,0.7
				c-0.5,0.5-1.3,1.6-1.3,1.6l6.2,0.2l-2.8,1c0,0,1.1,0,1.4,0c0.4,0,0.9,0.3,1,0.7h-4.4c0,0-2.5,1.3-4.6,1.3c-2.1,0-4.5-0.8-5.7-2.5
				c0,0-1.8,0-2.3,0c-0.5,0-0.9-0.4-1-0.6c-0.2-0.3,0.1-0.4,0.4-0.4C54.3,38.5,55.9,38.5,55.9,38.5L55.9,38.5z"/>
			<path fill="#BD9C08" d="M67.2,40.6c0.8-0.3,1.9-0.7,1.9-0.7l0.1,0.2c0,0-1.1,0.4-1.9,0.7L67.2,40.6L67.2,40.6z"/>
			<path fill="#BD9C08" d="M61.4,41.3c1,0,1.7,0,2.6-0.2c0.9-0.2,1.9-0.6,3.4-1.3l0.1,0.2c-1.5,0.7-2.5,1.1-3.4,1.3
				c-0.9,0.2-1.7,0.2-2.7,0.2V41.3L61.4,41.3z"/>
			<path fill="#BD9C08" d="M61.1,40c0.2,0.3,0.7,0.7,1.4,0.8c0.4,0,1-0.1,1.5-0.5c1.4-1.1,1.6-1.5,1.6-1.5l0.2,0.2
				c0,0-0.2,0.4-1.7,1.5c-0.6,0.5-1.2,0.6-1.6,0.5c-0.7-0.1-1.3-0.5-1.6-0.8L61.1,40L61.1,40z"/>
			<polygon fill="#BD9C08" points="62.3,38.1 61.5,38.8 61.4,38.8 61.4,38.8 60.6,38.9 60.6,38.6 61.4,38.6 62.2,37.8 62.3,38.1 			
				"/>
			<path fill="#BD9C08" d="M60.5,38.8c0-0.5-0.2-1.1-0.7-1.5c-0.3-0.4-0.8-0.7-1.5-0.9c-0.5-0.1-1.5-0.3-2.8-0.5
				c-3.1-0.5-7.4-1.2-8.1-1.9l0.2-0.2c0.6,0.7,4.9,1.4,8,1.9c1.3,0.2,2.4,0.4,2.8,0.5c0.7,0.2,1.3,0.5,1.6,0.9
				c0.5,0.5,0.7,1.1,0.7,1.7L60.5,38.8L60.5,38.8z"/>
			<polygon fill="#BD9C08" points="56.4,39 53.6,39 53.6,38.8 56.4,38.8 56.4,39 			"/>
			<path fill-rule="evenodd" clip-rule="evenodd" fill="#BD9C08" d="M57.3,38.2c0.2,0,0.4,0.2,0.4,0.4c0,0.2-0.2,0.4-0.4,0.4
				c-0.2,0-0.4-0.2-0.4-0.4C57,38.4,57.2,38.2,57.3,38.2L57.3,38.2z"/>
			<path fill="#BD9C08" d="M61.8,39c0,0,2.3-1.9,3.5-2.8c0.6-0.5,1.3-0.8,2.2-1c0.8-0.2,1.8-0.3,2.9-0.4c0.3,0,0.7,0,1.1,0
				c2-0.1,4.5-0.2,8.7-1.5l0.1,0.2c-4.3,1.3-6.8,1.4-8.8,1.5c-0.4,0-0.7,0-1.1,0c-1.1,0.1-2,0.2-2.8,0.4c-0.8,0.2-1.5,0.5-2.1,1
				c-1.2,1-3.5,2.8-3.5,2.8L61.8,39L61.8,39z"/>
		</g>
		<g>
			
				<path fill-rule="evenodd" clip-rule="evenodd" fill="#FFDE27" stroke="#BD9C08" stroke-width="0.2105" stroke-miterlimit="2.4142" d="
				M72.4,77.1c-0.1-0.2-0.5-0.9-1.8-1.7c-1.4-0.7-2.2-1.1-2.2-1.1L67,70l1.6-0.7C69,69.1,73.1,74.3,72.4,77.1L72.4,77.1z M66.8,79.2
				c0-0.3-0.1-1-1.1-2.2S64,75.2,64,75.2l0.2-4.5l1.7-0.1C66.4,70.5,68.6,76.8,66.8,79.2L66.8,79.2z M60.5,46.1c0,0.3,0.1,1,1.1,2.2
				c1,1.2,1.6,1.8,1.6,1.8L63,54.7l-1.7,0.1C60.9,54.8,58.7,48.5,60.5,46.1L60.5,46.1z M66.6,46.1c0,0.3-0.3,1,0.3,2.4
				c0.5,1.4,0.9,2.3,0.9,2.3L65.9,55l-1.7-0.5C63.9,54.4,64.1,47.7,66.6,46.1L66.6,46.1z M60.7,79.3c0-0.3,0.3-1-0.3-2.4
				c-0.5-1.5-0.9-2.3-0.9-2.3l1.8-4.2l1.7,0.5C63.4,71,63.2,77.7,60.7,79.3L60.7,79.3z M72.1,48.1c-0.1,0.2-0.6,0.8-0.6,2.4
				c0,1.5,0,2.5,0,2.5l-3.1,3.3l-1.4-1C66.7,55,69.3,48.8,72.1,48.1L72.1,48.1z M55.2,77.2c0.1-0.2,0.6-0.8,0.6-2.4
				c0-1.5,0-2.5,0-2.5l3.1-3.3l1.4,1.1C60.6,70.4,58,76.6,55.2,77.2L55.2,77.2z M76.7,52c-0.2,0.2-0.8,0.6-1.4,2
				c-0.5,1.5-0.8,2.3-0.8,2.3l-4.1,2l-0.9-1.5C69.2,56.5,73.7,51.6,76.7,52L76.7,52z M50.6,73.4c0.2-0.2,0.8-0.6,1.4-2
				c0.5-1.5,0.8-2.3,0.8-2.3l4.1-2l0.9,1.5C58.1,68.9,53.6,73.8,50.6,73.4L50.6,73.4z M79.6,57.2c-0.2,0.1-1,0.3-2,1.4
				c-1,1.2-1.6,1.9-1.6,1.9l-4.5,0.4l-0.4-1.7C71,58.8,76.9,55.8,79.6,57.2L79.6,57.2z M47.7,68.2c0.2-0.1,1-0.3,2-1.4
				c1-1.2,1.6-1.9,1.6-1.9l4.5-0.4l0.4,1.7C56.3,66.6,50.3,69.6,47.7,68.2L47.7,68.2z M80.5,63c-0.3,0-1-0.1-2.4,0.7
				c-1.3,0.8-2.1,1.2-2.1,1.2l-4.4-1.1l0.2-1.7C71.9,61.6,78.5,60.8,80.5,63L80.5,63z M46.8,62.4c0.3,0,1,0.1,2.4-0.7
				c1.3-0.8,2.1-1.2,2.1-1.2l4.4,1.1l-0.2,1.7C55.4,63.8,48.8,64.6,46.8,62.4L46.8,62.4z M79.7,67.9c-0.2-0.1-1-0.4-2.5-0.1
				c-1.5,0.3-2.4,0.6-2.4,0.6L70.9,66l0.7-1.6C71.8,64.1,78.4,65.3,79.7,67.9L79.7,67.9z M47.6,57.5c0.2,0.1,1,0.4,2.5,0.1
				c1.5-0.3,2.4-0.6,2.4-0.6l3.9,2.4l-0.7,1.6C55.4,61.3,48.9,60.1,47.6,57.5L47.6,57.5z M76.8,73.2c-0.2-0.2-0.8-0.7-2.3-0.9
				C73,72.1,72.1,72,72.1,72l-2.8-3.6l1.2-1.2C70.8,66.9,76.5,70.3,76.8,73.2L76.8,73.2z M54.9,48.3c0.1,0.2,0.5,0.9,1.8,1.7
				c1.4,0.7,2.2,1.1,2.2,1.1l1.4,4.3l-1.6,0.7C58.3,56.3,54.1,51.1,54.9,48.3L54.9,48.3z M50.5,52.1c0.2,0.2,0.7,0.7,2.3,0.9
				c1.5,0.2,2.4,0.3,2.4,0.3L58,57l-1.2,1.2C56.5,58.5,50.7,55.1,50.5,52.1L50.5,52.1z"/>
			
				<polygon fill-rule="evenodd" clip-rule="evenodd" fill="#FFDE27" stroke="#BD9C08" stroke-width="0.2105" stroke-miterlimit="2.4142" points="
				63.6,46.6 64.6,50.7 65.3,53.8 67,51.1 69.3,47.6 68.7,51.8 68.3,54.9 70.8,53 74.2,50.5 72.3,54.2 70.9,57 73.8,56.1 77.8,54.8 
				74.7,57.7 72.5,59.8 75.6,59.9 79.7,60.2 75.9,61.8 73.1,62.9 75.9,64.1 79.8,65.7 75.6,65.9 72.4,66.1 74.8,68.2 77.8,71.1 
				73.8,69.9 70.8,69 72.3,71.7 74.2,75.5 70.8,73 68.4,71.1 68.8,74.2 69.3,78.3 67,74.8 65.3,72.2 64.6,75.2 63.6,79.3 62.7,75.2 
				62,72.2 60.3,74.8 58,78.3 58.6,74.2 58.9,71.1 56.5,72.9 53.1,75.5 55,71.7 56.4,69 53.5,69.9 49.5,71.1 52.5,68.3 54.8,66.2 
				51.7,66 47.5,65.8 51.4,64.2 54.2,63 51.4,61.9 47.5,60.3 51.7,60 54.9,59.8 52.5,57.7 49.5,54.9 53.5,56.1 56.5,57 55,54.2 
				53.1,50.5 56.5,53 58.9,54.9 58.5,51.8 58,47.6 60.3,51.1 62,53.8 62.7,50.7 63.6,46.6 			"/>
			
				<path fill-rule="evenodd" clip-rule="evenodd" fill="#FFDE27" stroke="#BD9C08" stroke-width="0.2105" stroke-miterlimit="2.4142" d="
				M63.6,53.8c5.1,0,9.2,4.1,9.2,9.2c0,5.1-4.1,9.2-9.2,9.2s-9.2-4.1-9.2-9.2C54.5,57.9,58.6,53.8,63.6,53.8z"/>
		</g>
		<path fill-rule="evenodd" clip-rule="evenodd" fill="#F4F4F4" d="M113,70.1v-4.8c-2.5-0.8-5.8-2.2-9.3-2.2s-9.5,2.9-13.3,2.9
			c-3.9,0-9.3-2.9-13.4-2.9c-4.1,0-8.9,2.9-13.3,2.9S54.3,63,50.3,63c-4,0-9,2.9-13.4,2.9c-4.4,0-9.2-2.9-13.3-2.9
			c-3.2,0-7.2,1.7-10.6,2.5v4.8c3.4-0.8,7.4-2.5,10.6-2.5c4.1,0,8.9,2.9,13.3,2.9c4.4,0,9.4-2.9,13.4-2.9c4,0,8.9,2.9,13.4,2.9
			s9.2-2.9,13.3-2.9c4.1,0,9.5,2.9,13.4,2.9c3.9,0,9.9-2.9,13.3-2.9S110.5,69.2,113,70.1L113,70.1z"/>
		<path fill-rule="evenodd" clip-rule="evenodd" fill="#0437A0" d="M113,74.9v-4.8c-2.5-0.8-5.8-2.2-9.3-2.2s-9.5,2.9-13.3,2.9
			c-3.9,0-9.3-2.9-13.4-2.9c-4.1,0-8.9,2.9-13.3,2.9s-9.4-2.9-13.4-2.9c-4,0-9,2.9-13.4,2.9c-4.4,0-9.2-2.9-13.3-2.9
			c-3.2,0-7.2,1.7-10.6,2.5v4.8c3.4-0.8,7.4-2.5,10.6-2.5c4.1,0,8.9,2.9,13.3,2.9c4.4,0,9.4-2.9,13.4-2.9c4,0,8.9,2.9,13.4,2.9
			s9.2-2.9,13.3-2.9c4.1,0,9.5,2.9,13.4,2.9c3.9,0,9.9-2.9,13.3-2.9S110.5,74,113,74.9L113,74.9z"/>
		<path fill-rule="evenodd" clip-rule="evenodd" fill="#F4F4F4" d="M113,79.6v-4.7c-2.5-0.8-5.8-2.2-9.3-2.2s-9.5,2.9-13.3,2.9
			c-3.9,0-9.3-2.9-13.4-2.9c-4.1,0-8.9,2.9-13.3,2.9s-9.4-2.9-13.4-2.9c-4,0-9,2.9-13.4,2.9c-4.4,0-9.2-2.9-13.3-2.9
			c-3.2,0-7.2,1.7-10.6,2.5v4.7c3.4-0.8,7.4-2.5,10.6-2.5c4.1,0,8.9,2.9,13.3,2.9c4.4,0,9.4-2.9,13.4-2.9c4,0,8.9,2.9,13.4,2.9
			s9.2-2.9,13.3-2.9c4.1,0,9.5,2.9,13.4,2.9c3.9,0,9.9-2.9,13.3-2.9S110.5,78.8,113,79.6L113,79.6z"/>
		<path fill-rule="evenodd" clip-rule="evenodd" fill="#0437A0" d="M113,84.4v-4.8c-2.5-0.8-5.8-2.2-9.3-2.2s-9.5,2.9-13.3,2.9
			c-3.9,0-9.3-2.9-13.4-2.9c-4.1,0-8.9,2.9-13.3,2.9s-9.4-2.9-13.4-2.9c-4,0-9,2.9-13.4,2.9c-4.4,0-9.2-2.9-13.3-2.9
			c-3.2,0-7.2,1.7-10.6,2.5v4.8c3.4-0.8,7.4-2.5,10.6-2.5c4.1,0,8.9,2.9,13.3,2.9c4.4,0,9.4-2.9,13.4-2.9c4,0,8.9,2.9,13.4,2.9
			s9.2-2.9,13.3-2.9c4.1,0,9.5,2.9,13.4,2.9c3.9,0,9.9-2.9,13.3-2.9S110.5,83.5,113,84.4L113,84.4z"/>
		<path fill-rule="evenodd" clip-rule="evenodd" fill="#F4F4F4" d="M113,89.2v-4.8c-2.5-0.8-5.8-2.2-9.3-2.2S94.3,85,90.4,85
			c-3.9,0-9.3-2.9-13.4-2.9c-4.1,0-8.9,2.9-13.3,2.9s-9.4-2.9-13.4-2.9c-4,0-9,2.9-13.4,2.9c-4.4,0-9.2-2.9-13.3-2.9
			c-3.2,0-7.2,1.7-10.6,2.5v4.8c3.4-0.8,7.4-2.5,10.6-2.5c4.1,0,8.9,2.9,13.3,2.9c4.4,0,9.4-2.9,13.4-2.9c4,0,8.9,2.9,13.4,2.9
			s9.2-2.9,13.3-2.9c4.1,0,9.5,2.9,13.4,2.9c3.9,0,9.9-2.9,13.3-2.9S110.5,88.3,113,89.2L113,89.2z"/>
		<path fill-rule="evenodd" clip-rule="evenodd" fill="#0437A0" d="M13,96.3h100v-7.2c-2.5-0.8-5.8-2.2-9.3-2.2s-9.5,2.9-13.3,2.9
			c-3.9,0-9.3-2.9-13.4-2.9c-4.1,0-8.9,2.9-13.3,2.9s-9.4-2.9-13.4-2.9c-4,0-9,2.9-13.4,2.9c-4.4,0-9.2-2.9-13.3-2.9
			c-3.2,0-7.2,1.7-10.6,2.5V96.3L13,96.3z"/>
	</g>
	<path opacity="0.25" fill="#FFFFFF" d="M13,29.7v25.5C26.2,62.6,43.7,67,63,67c19.3,0,36.8-4.5,50-11.8V29.7H13z"/>
</g>
</svg>
