<?xml version="1.0" encoding="utf-8"?>
<!-- Generator: Adobe Illustrator 24.3.0, SVG Export Plug-In . SVG Version: 6.00 Build 0)  -->
<svg version="1.1" id="Layer_1" xmlns="http://www.w3.org/2000/svg" xmlns:xlink="http://www.w3.org/1999/xlink" x="0px" y="0px"
	 viewBox="0 0 126 126" enable-background="new 0 0 126 126" xml:space="preserve">
<g>
	<path opacity="0.35" fill="#FFFFFF" d="M13,29.7v25.5C26.2,62.6,43.7,67,63,67c19.3,0,36.8-4.5,50-11.8V29.7H13z"/>
	<g>
		<g>
			<polygon fill="#F0F0F0" stroke="#F3F3F4" stroke-width="3.927300e-02" stroke-miterlimit="2.4142" points="13,29.7 113,29.7 
				113,96.3 13,96.3 13,29.7 			"/>
			<g>
				<path fill-rule="evenodd" clip-rule="evenodd" fill="#0437A0" d="M78.2,69.7c-2.6,5.9-8.5,10-15.3,10c-9.2,0-16.7-7.5-16.7-16.7
					c0-2.8,0.7-5.4,1.9-7.7c-1.6,8.2,4.8,13.2,10.8,10.8c3.3-1.3,3.9-3.5,6.4-5.3C71.3,56.4,79.2,61.4,78.2,69.7
					C78.2,69.7,78.2,69.7,78.2,69.7L78.2,69.7z"/>
				<path fill-rule="evenodd" clip-rule="evenodd" fill="#FF1612" d="M62.9,46.3c9.2,0,16.7,7.5,16.7,16.7c0,2.4-0.5,4.6-1.4,6.7
					c1-8.3-7-13.3-13-8.8c-2.5,1.8-3.1,4-6.4,5.3c-5.9,2.4-12.3-2.6-10.8-10.8C50.8,50,56.4,46.3,62.9,46.3L62.9,46.3z"/>
				<path d="M31.7,52.2L41,38.3l2.3,1.5l-9.3,13.9L31.7,52.2L31.7,52.2z M35.2,54.5l9.3-13.9l2.3,1.5L37.5,56L35.2,54.5L35.2,54.5z
					 M28.2,49.9L37.5,36l2.3,1.5l-9.3,13.9L28.2,49.9L28.2,49.9z"/>
				<path d="M91.9,53.7l-9.3-13.9l2.3-1.5l9.3,13.9L91.9,53.7L91.9,53.7z M95.5,51.5L91.2,45l2.3-1.5l4.3,6.5L95.5,51.5L95.5,51.5z
					 M90.4,43.9l-4.2-6.3l2.3-1.5l4.2,6.3L90.4,43.9L90.4,43.9z M88.5,56l-4.3-6.4l2.3-1.5l4.3,6.4L88.5,56L88.5,56z M83.5,48.5
					l-4.2-6.4l2.3-1.5l4.2,6.4L83.5,48.5L83.5,48.5z"/>
				<path d="M90.8,71.5l-4.3,6.4l-2.3-1.5l4.3-6.4L90.8,71.5L90.8,71.5z M85.8,79l-4.2,6.4l-2.3-1.5l4.2-6.4L85.8,79L85.8,79z
					 M97.8,76.1l-4.3,6.5L91.2,81l4.3-6.5L97.8,76.1L97.8,76.1z M92.8,83.7L88.5,90l-2.3-1.5l4.2-6.3L92.8,83.7L92.8,83.7z
					 M94.3,73.8L90,80.2l-2.3-1.5l4.3-6.4L94.3,73.8L94.3,73.8z M89.2,81.3L85,87.7l-2.3-1.5l4.3-6.4L89.2,81.3L89.2,81.3z"/>
				<path d="M34.1,72.3l4.3,6.4l-2.3,1.5l-4.3-6.4L34.1,72.3L34.1,72.3z M37.5,70l9.3,13.9l-2.3,1.5l-9.3-13.9L37.5,70L37.5,70z
					 M30.6,74.5l9.3,13.9L37.5,90l-9.3-13.9L30.6,74.5L30.6,74.5z M39.1,79.8l4.3,6.4l-2.3,1.5l-4.3-6.4L39.1,79.8L39.1,79.8z"/>
			</g>
		</g>
	</g>
</g>
</svg>
