<?xml version="1.0" encoding="utf-8"?>
<!-- Generator: Adobe Illustrator 24.3.0, SVG Export Plug-In . SVG Version: 6.00 Build 0)  -->
<svg version="1.1" id="Layer_1" xmlns="http://www.w3.org/2000/svg" xmlns:xlink="http://www.w3.org/1999/xlink" x="0px" y="0px"
	 viewBox="0 0 126 126" enable-background="new 0 0 126 126" xml:space="preserve">
<g>
	<g>
		<path fill-rule="evenodd" clip-rule="evenodd" fill="#0437A0" d="M13,96.3h100V85.2H13V96.3L13,96.3z M113,40.8V29.7H13v11.1H113
			L113,40.8z"/>
		<path fill-rule="evenodd" clip-rule="evenodd" fill="#F4F4F4" d="M13,85.2h100v-1.9H13V85.2L13,85.2z M113,42.6v-1.9H13v1.9H113
			L113,42.6z"/>
		<polygon fill-rule="evenodd" clip-rule="evenodd" fill="#FF1612" points="13,83.4 113,83.4 113,42.6 13,42.6 13,83.4 		"/>
		<path fill-rule="evenodd" clip-rule="evenodd" fill="#F4F4F4" d="M60.2,63c0,8.2-6.6,14.8-14.8,14.8c-8.2,0-14.8-6.6-14.8-14.8
			c0-8.2,6.6-14.8,14.8-14.8C53.6,48.2,60.2,54.8,60.2,63L60.2,63z M45.4,48.7l-3.2,9.9l-10.4,0l8.4,6.1L37,74.5l8.4-6.1l8.4,6.1
			l-3.2-9.9l8.4-6.1l-10.4,0L45.4,48.7L45.4,48.7z"/>
	</g>
	<path opacity="0.35" fill="#FFFFFF" d="M13,29.7v25.5C26.2,62.6,43.7,67,63,67c19.3,0,36.8-4.5,50-11.8V29.7H13z"/>
</g>
</svg>
