<?xml version="1.0" encoding="utf-8"?>
<!-- Generator: Adobe Illustrator 24.3.0, SVG Export Plug-In . SVG Version: 6.00 Build 0)  -->
<svg version="1.1" id="Layer_1" xmlns="http://www.w3.org/2000/svg" xmlns:xlink="http://www.w3.org/1999/xlink" x="0px" y="0px"
	 viewBox="0 0 126 126" enable-background="new 0 0 126 126" xml:space="preserve">
<g>
	<g>
		<polygon fill="#0437A0" points="13,29.7 113,29.7 113,96.3 13,96.3 13,29.7 		"/>
		<g>
			<path fill-rule="evenodd" clip-rule="evenodd" fill="#D0A650" d="M59.8,51.2c0.6-0.7,1.3-1,1.7-0.8c0.4,0.2,0.5-0.1,0.5-0.3
				c0-0.2,0.5-0.5,0.9-0.1c0.4,0.4,0.3,0.5,0.5,0.7c0.1,0.2,0.2,0.2,0.3,0.5c0.1,0.3,0.3,0.3-0.2,0.2c-0.5-0.1-0.6,0.1-0.4,0.2
				c0.2,0.1,0.3,0.4,0,0.4c-0.3,0-0.4,0.2-0.2,0.3c0.2,0.2,0.1-0.1,0.4,0c0.2,0.1,0.2,0.3,0.4,0.1c0.2-0.1,0.2,0.2,0.4,0.4
				c0.2,0.2,0.2,0.3,0.4,0.1c0.3-0.1,0.3,0.2,0.4,0.3c0.1,0.1,0.3,0.1,0.4,0.3c0.1,0.1,0.4,0.1,0.5,0c0.1-0.1,0.1,0,0.3-0.1
				c0.2-0.1,0.3-0.2,0.5-0.1c0.2,0.1,0.3,0.3,0.4,0.5c0.2,0.1,0.1,0.1,0.3,0.3c0.2,0.2,0.3-0.2,0.4-0.2c0.2,0,0.3,0,0.3-0.1
				c0-0.1-0.1-0.1,0-0.3c0.1-0.2,0.1-0.3,0.3,0c0.2,0.3,0.2,0.6,0.4,0.4c0.2-0.1,0.4-0.1,0.4,0.1c0,0.2,0.3,0.3,0.2,0.5
				c-0.1,0.1-0.2,0-0.2,0.3c0,0.4,0.1,0.2,0.2,0.5c0.1,0.3,0,0.4,0.1,0.7c0.1,0.2,0.4,0,0.4,0.2c0,0.2-0.2,0.2-0.2,0.4
				c0.1,0.2,0.1,0.1,0.3,0.2c0.2,0.1,0.4,0,0.4-0.2c-0.1-0.2-0.1-0.2,0-0.4c0.1-0.1,0.1-0.1,0.4,0c0.3,0.1,0.3,0,0.4,0.4
				c0,0.4,0.2,0.4,0.1,0.8c-0.1,0.4-0.3,0.3-0.1,0.6c0.2,0.4,0.2,0.3,0.4,0.7c0.2,0.4,0.3,0.4,0.5,0.7c0.1,0.3,0.4,0,0.6-0.1
				c0.2,0,0.5,0.1,0.7,0.1c0.2,0,0.3-0.1,0.3,0.2c0,0.3-0.1,0.3,0.1,0.4c0.1,0,0.1,0.1,0.2,0.2c0.1,0.1,0.2,0,0.2,0
				c0.1,0,0.3,0.1,0.4,0c0.1-0.1,0.4-0.1,0.6-0.1c0.1,0.1,0.2,0.3,0.2,0.5C75.2,61,75,60.9,75,61.1c0,0.2-0.1,0.2-0.1,0.4
				c-0.1,0.1,0.1,0.2,0.1,0.3c0,0.2,0,0.2-0.2,0.3c-0.2,0.1-0.3,0.1-0.3,0.3c0,0.2,0,0.2,0,0.3c0,0.1,0.1,0.2,0.1,0.3
				c0,0.1-0.1,0.1-0.3,0.2c-0.2,0.1-0.2,0.2-0.1,0.3c0.1,0.2,0.2,0,0.4,0c0.2,0,0.6,0,0.7-0.1c0.1-0.1,0.1,0.3,0.3,0.4
				c0.2,0.1,0.3-0.1,0.4-0.2c0.1,0,0.1,0.1,0.3,0.1c0.1,0.1,0.1,0.2,0.2,0.2c0.1,0,0.2,0,0.3,0c0.1,0.1,0.1,0.1,0.2,0.1
				c0.1-0.1,0.1-0.1,0.3,0c0.1,0.1,0.3,0,0.4-0.1c0.1-0.1,0.2,0,0.4,0.1c0.2,0.1,0.4,0.2,0.3,0.4c-0.1,0.2-0.2,0.2-0.1,0.3
				c0.1,0.1,0.3,0.2,0.5,0.2c0.2,0,0.3-0.2,0.4-0.1c0.1,0,0,0,0.1,0.2c0.1,0.2,0.2,0.4,0.3,0.6c0.2,0.1,0.5,0.1,0.5-0.1
				c0-0.2-0.1-0.2,0.2-0.4c0.3-0.2,0.2-0.2,0.5-0.2c0.3,0.1,0.4,0.1,0.6,0c0.1-0.1,0.2-0.2,0.3-0.1c0.1,0.1,0,0.2,0.1,0.4
				c0.1,0.1,0.3,0.1,0.2,0.3c0,0.2,0.2,0.2,0.3,0.3c0.1,0.1,0.1,0.2,0,0.3c-0.1,0.1-0.1,0.1-0.2,0.2c-0.1,0.1-0.4,0.1-0.4,0.1
				s0,0.2,0,0.3c0,0.1,0,0.3-0.2,0.4c-0.2,0.1-0.2,0-0.3,0.2c0,0.2,0.1,0.3,0.2,0.4c0.2,0.1,0.1,0.3,0.1,0.5c0,0.2,0.2,0.2,0.1,0.3
				c-0.1,0.1-0.3-0.1-0.4,0.1c-0.1,0.2-0.3,0-0.4,0.1c-0.1,0.2-0.2,0.2-0.3,0.2c-0.1,0-0.1,0.1-0.1,0.2c0,0.1,0.4,0.2,0.3,0.4
				c0,0.2-0.1,0-0.3,0c-0.2,0.1-0.1,0.3-0.2,0.4c-0.1,0.1-0.3,0.1-0.4,0.2c-0.1,0.2,0.1,0.1-0.2,0.3c-0.2,0.2-0.3,0.2-0.4,0.4
				c-0.1,0.2-0.3,0-0.4,0.2c-0.1,0.2-0.1,0.2,0,0.4c0.1,0.2,0.2,0.4,0.2,0.6c0,0.2,0.2,0.1,0.3,0.2c0.1,0.1-0.3,0.2-0.3,0.3
				c-0.1,0.2-0.1,0.3-0.2,0.5c-0.1,0.2-0.4,0-0.5,0c-0.2-0.1-0.3,0-0.4,0.1c-0.1,0.1-0.1,0.3-0.2,0.4c-0.2,0.1-0.4,0.1-0.5,0
				c-0.1-0.1-0.3-0.1-0.4-0.1c-0.1,0.1,0,0.2,0.1,0.3c0.1,0.1,0,0.3-0.1,0.4c-0.1,0.1-0.2,0.3,0,0.5c0.2,0.2,0.1,0.3,0.2,0.4
				c0.1,0.1,0.3,0.1,0.3-0.1c0.1-0.2,0.3,0,0.3,0.2c0,0.2,0.1,0.4,0.2,0.4c0.1,0.1,0.3,0.4,0.2,0.6c-0.1,0.2-0.3,0.2-0.4,0.3
				c-0.1,0.1-0.4,0.1-0.5,0.2c-0.1,0.1-0.3-0.1-0.2-0.4c0-0.3-0.1-0.4-0.3-0.4c-0.2,0-0.3,0.1-0.4,0c-0.1-0.2-0.1-0.3-0.3-0.1
				c-0.2,0.1-0.1,0.3-0.2,0.3c-0.1,0-0.1-0.2-0.3-0.2c-0.2,0-0.1,0.1-0.1,0.2c0,0.1-0.2,0.2-0.2,0.2c0,0.1,0.2,0.3,0.2,0.4
				c0,0.2,0.1,0.4-0.2,0.3c-0.3-0.1-0.4-0.5-0.6-0.4c-0.2,0-0.6,0-0.5,0.2c0,0.2-0.1,0.4-0.2,0.5c-0.1,0.1-0.2,0-0.3,0.3
				c-0.1,0.2-0.3,0.2-0.4,0.3c-0.1,0.1,0,0.3-0.1,0.5c-0.1,0.2-0.2,0.2-0.2,0.3c0,0.1,0.1,0.2,0,0.3c-0.1,0.2-0.4,0.3-0.4,0.5
				c0,0.1,0,0.1,0.1,0.3c0.1,0.2,0.1,0.2,0.2,0.4c0.1,0.1,0.3,0.2,0.1,0.3c-0.2,0.2-0.2-0.1-0.4-0.2c-0.2-0.1-0.1,0.1-0.2,0.2
				c-0.1,0.1-0.3,0.1-0.4,0.2c-0.1,0.2-0.2,0.1-0.4,0c-0.3-0.1-0.4,0-0.6-0.1c-0.2-0.1-0.3-0.3-0.2-0.6c0.1-0.3-0.1-0.3-0.2-0.6
				c-0.2-0.2,0-0.2-0.1-0.4c-0.1-0.2-0.3-0.2-0.3-0.5c0-0.2-0.2-0.2-0.2-0.4c0-0.2,0-0.2-0.3-0.3c-0.3,0-0.5-0.1-0.6-0.2
				c-0.2-0.1-0.3,0-0.6,0.3c-0.3,0.3-0.4,0.1-0.6,0.3c-0.2,0.3-0.2,0.4-0.4,0.4c-0.2,0.1-0.6,0.5-1.4,0.7c-0.8,0.2-0.7-0.1-1,0.2
				c-0.3,0.2-0.1,0.4-0.4,0.6c-0.3,0.3-0.3,0.3-0.8,0.2c-0.4,0-0.5,0-0.8,0.3c-0.2,0.2-0.4-0.1-0.8,0.1c-0.4,0.1-0.2,0.3-0.4,0.5
				c-0.2,0.2-0.3,0.2-0.3,0.5c0,0.3-0.4,0.4-0.4,0.6c0,0.3,0.1,0.4,0,0.7c-0.1,0.3,0.3,0.5,0.4,0.8c0.1,0.3-0.1,0.4-0.1,0.5
				c0,0.2,0,0.3,0.2,0.4c0.2,0.2,0.1,0.3-0.1,0.4c-0.1,0.1-0.1,0.2-0.3,0.4c-0.2,0.2-0.3,0.2-0.4,0.4c-0.1,0.2-0.3,0.3-0.6,0.4
				c-0.3,0.1-0.4,0.2-0.5,0c-0.1-0.1-0.2-0.3-0.4-0.2c-0.2,0.1-0.3,0-0.4,0.2c-0.1,0.2-0.3,0.4-0.4,0.3c-0.1-0.1-0.4-0.3-0.5-0.5
				c-0.1-0.2,0-0.2-0.1-0.4c-0.1-0.2-0.2-0.5-0.3-0.6c0-0.1,0.2-0.3,0.2-0.4c0.1,0,0.2,0.1,0.4-0.1c0.2-0.2,0.4-0.9,0.3-1.1
				c-0.1-0.1-0.3-0.3-0.3-0.6c-0.1-0.3,0-0.4-0.1-0.6c-0.1-0.2-0.2-0.1-0.2-0.5c0-0.3-0.2-0.4-0.4-0.6c-0.2-0.1-0.3-0.4-0.4-0.6
				c-0.1-0.2,0.1-0.3,0.1-0.4c0-0.1-0.1-0.2-0.1-0.4c0-0.2,0.3-0.3,0.2-0.4c0-0.1-0.3-0.1-0.3-0.3c0-0.2,0.2-0.2,0.1-0.3
				c-0.1-0.1-0.3-0.1-0.3-0.3c0-0.2,0-0.1,0-0.3c0-0.2-0.2-0.4-0.3-0.6c-0.1-0.2,0-0.4-0.1-0.5c-0.1-0.2-0.2-0.2-0.4-0.3
				c-0.2-0.1,0-0.3-0.3-0.6c-0.3-0.3-0.6-0.4-0.8-0.6c-0.1-0.2-0.3-0.1-0.5-0.2c-0.2-0.1-0.4-0.1-0.5-0.2c-0.1-0.1-0.1-0.4-0.3-0.4
				c-0.2,0-0.3,0-0.5-0.1c-0.1-0.1-0.2-0.2-0.3-0.3c-0.1-0.2-0.2-0.2-0.4-0.2c-0.2,0-0.4,0.3-0.6,0.3c-0.2,0-0.2-0.2-0.4-0.2
				c-0.2,0-0.3,0.2-0.5,0.1c-0.2-0.1-0.3,0.1-0.3-0.2c0-0.3-0.3-0.2-0.2-0.5c0.1-0.3,0.3-0.4,0.2-0.6c0-0.2-0.2-0.4-0.4-0.5
				c-0.2-0.1-0.2-0.1-0.4-0.3c-0.1-0.2,0.3-0.3,0.3-0.5c0.1-0.2,0-0.2-0.2-0.5c-0.2-0.2-0.4-0.1-0.4-0.4c0-0.3,0-0.4-0.1-0.5
				c-0.1-0.1-0.1-0.2-0.2-0.4c-0.1-0.2-0.2-0.1-0.3-0.3c-0.1-0.2-0.1-0.2-0.3-0.4c-0.3-0.2-0.4-0.2-0.6-0.3
				c-0.2-0.2-0.3-0.1-0.4-0.2c-0.1-0.1-0.1-0.1-0.2-0.4c-0.1-0.2-0.3-0.1-0.2-0.5c0.1-0.4,0.3-0.2,0.1-0.6c-0.2-0.4-0.3-0.5-0.2-0.7
				c0.1-0.2,0.2-0.3,0.3-0.5c0.1-0.2,0.2-0.3,0.3-0.4c0.1-0.1,0.2-0.1,0.1-0.2c-0.1-0.1-0.1,0.1-0.3-0.1c-0.2-0.2-0.3-0.1-0.5-0.2
				c-0.2-0.1-0.1-0.1-0.3-0.3c-0.2-0.2-0.2-0.1-0.6-0.1c-0.4,0.1-0.4-0.1-0.5-0.1c-0.1-0.1-0.2,0.1-0.3-0.1
				c-0.1-0.2-0.1-0.2-0.2-0.3c-0.1-0.1-0.2-0.3-0.1-0.4c0.1-0.1,0.2-0.1,0.2-0.3c0-0.2-0.1-0.2-0.1-0.3c0-0.1,0.1-0.2,0.2-0.2
				c0.2,0,0.3,0,0.4-0.2c0.1-0.2,0.4-0.2,0.5-0.3c0.1-0.1,0.1-0.2,0.3-0.2c0.1-0.1,0.3-0.1,0.6,0.1c0.2,0.2,0.4,0,0.6,0.2
				c0.2,0.1,0.2,0.1,0.4,0.2c0.2,0,0.4,0.2,0.6,0.2c0.2,0,0.5-0.2,0.6-0.1c0.1,0.1,0.3,0.1,0.4-0.1c0.1-0.2,0.1-0.4,0.3-0.3
				c0.2,0,0,0,0-0.3c0-0.2,0.1-0.1,0.3-0.3c0.2-0.1,0.1-0.2,0.2-0.4c0.1-0.1,0.1-0.3,0.4-0.3c0.3,0,0.2-0.2,0.4-0.2
				c0.2-0.1,0.2,0.2,0.4,0.2c0.2,0,0.2-0.2,0.4-0.3c0.2-0.1,0.3-0.1,0.5-0.1c0.3,0.1,0.4-0.1,0.5-0.3c0.2-0.1,0.3-0.2,0.4-0.1
				c0.1,0.1,0.2,0,0.3,0.2c0.1,0.2,0.3,0.3,0.5,0.2c0.2-0.1,0.3,0,0.4-0.3c0.1-0.2,0-0.2,0.3-0.4c0.2-0.1,0.3-0.2,0.5-0.3
				c0.2-0.1,0.3,0,0.4-0.1c0.1-0.1,0.1-0.2,0.2-0.2c0.2,0,0.3,0,0.3-0.2c0-0.2-0.2-0.1-0.3-0.2c-0.1-0.1-0.2,0-0.3-0.2
				c-0.1-0.2,0-0.2-0.1-0.3c-0.1-0.1-0.1-0.2-0.3-0.3c-0.2-0.1-0.1-0.1,0-0.2c0.1-0.1,0.2-0.1,0.2-0.3c0-0.2-0.1-0.1,0.1-0.3
				c0.2-0.1,0.2-0.3,0.3-0.3c0.1-0.1,0.2-0.2,0.3,0c0.1,0.1,0.2,0.2,0.3,0.2c0.1-0.1,0-0.1,0.2-0.3c0.2-0.2,0.1-0.3,0.3-0.5
				c0.2-0.2,0.2-0.1,0.3-0.3c0.1-0.2,0.1-0.3,0.3-0.1c0.2,0.1,0.3,0.2,0.5,0.1c0.2-0.1,0.2-0.1,0.4-0.1c0.1-0.1,0-0.3,0.1-0.4
				c0.2-0.1,0.2-0.1,0.3-0.2c0.1-0.1,0.3,0,0.4-0.1c0.1-0.2-0.1-0.1-0.2-0.3c0-0.1,0.1-0.1,0.1-0.3c0.1-0.2-0.2-0.1-0.3-0.2
				c-0.1-0.1-0.2-0.3,0.1-0.3c0.2,0,0.5-0.1,0.6-0.3c0.1-0.2,0.1-0.1,0.1-0.4c0.1-0.3-0.2-0.4-0.3-0.5c-0.1-0.2-0.1-0.2-0.3-0.3
				c-0.2-0.1-0.2-0.2-0.1-0.3c0-0.1,0-0.3-0.2-0.3c-0.2-0.1-0.3-0.2-0.5-0.2c-0.2,0-0.4,0-0.3-0.2c0.1-0.2,0.2-0.2,0.1-0.3
				c-0.1-0.2-0.3-0.2-0.4-0.3c-0.1-0.1-0.1-0.4,0.1-0.4c0.2,0,0.2,0.2,0.4,0.2c0.2-0.1,0.2-0.1,0.3,0c0.1,0.1,0.2,0,0.4,0
				c0.2,0,0.2,0.1,0.4,0.1C59.7,51.4,59.7,51.3,59.8,51.2L59.8,51.2z"/>
			<path fill-rule="evenodd" clip-rule="evenodd" fill="#F4F4F4" d="M58.4,39l0.9,2.7l2.9,0l-2.3,1.7l0.9,2.7l-2.3-1.7L56,46.2
				l0.9-2.7l-2.3-1.7l2.9,0L58.4,39L58.4,39z M85.6,43.9l0.9,2.7l2.9,0l-2.3,1.7l0.9,2.7l-2.3-1.7L83.3,51l0.9-2.7l-2.3-1.7l2.9,0
				L85.6,43.9L85.6,43.9z M40.4,43.9l0.9,2.7l2.9,0l-2.3,1.7l0.9,2.7l-2.3-1.7L38.1,51l0.9-2.7l-2.3-1.7l2.9,0L40.4,43.9L40.4,43.9z
				 M76.9,40.7l0.9,2.7l2.9,0l-2.3,1.7l0.9,2.7l-2.3-1.7l-2.3,1.7l0.9-2.7l-2.3-1.7l2.9,0L76.9,40.7L76.9,40.7z M49.1,40.7l0.9,2.7
				l2.9,0l-2.3,1.7l0.9,2.7l-2.3-1.7l-2.3,1.7l0.9-2.7l-2.3-1.7l2.9,0L49.1,40.7L49.1,40.7z M67.7,39l0.9,2.7l2.9,0l-2.3,1.7
				l0.9,2.7l-2.3-1.7l-2.3,1.7l0.9-2.7l-2.3-1.7l2.9,0L67.7,39L67.7,39z"/>
		</g>
	</g>
	<path opacity="0.3" fill="#FFFFFF" d="M13,29.7v25.5C26.2,62.6,43.7,67,63,67c19.3,0,36.8-4.5,50-11.8V29.7H13z"/>
</g>
</svg>
