<?xml version="1.0" encoding="utf-8"?>
<!-- Generator: Adobe Illustrator 24.3.0, SVG Export Plug-In . SVG Version: 6.00 Build 0)  -->
<svg version="1.1" id="Layer_1" xmlns="http://www.w3.org/2000/svg" xmlns:xlink="http://www.w3.org/1999/xlink" x="0px" y="0px"
	 viewBox="0 0 126 126" enable-background="new 0 0 126 126" xml:space="preserve">
<g>
	<g>
		<polygon fill="#FF1612" points="13,29.7 113,29.7 113,96.3 13,96.3 13,29.7 		"/>
		<path fill-rule="evenodd" clip-rule="evenodd" fill="#FFDE27" d="M63,52.4c2.2,0,4.2,0.7,5.9,1.9l-0.1,0c0,0-2.6,0-5.8,1.4
			c-3.2-1.4-5.8-1.4-5.8-1.4l-0.1,0C58.8,53.1,60.8,52.4,63,52.4L63,52.4z M48.9,48.9c1.7,1.2,2,2.3,2.8,3.6
			c0.7,1.2,1.4,2.3,2.2,2.7c0.4-0.5,0.8-0.9,1.3-1.3c-0.4-0.2-1.2-0.8-1.8-1.5C52.5,51.4,50.7,48.8,48.9,48.9L48.9,48.9z M43.2,66.2
			c2-0.7,3.1-0.3,4.6-0.1c1.4,0.2,2.6,0.2,3.5-0.2c-0.1-0.6-0.2-1.2-0.3-1.8c-0.4,0.2-1.3,0.5-2.3,0.6
			C47.4,64.7,44.2,64.7,43.2,66.2L43.2,66.2z M82.8,59.9c-2,0.7-3.1,0.3-4.6,0.1c-1.4-0.2-2.6-0.2-3.5,0.2c0.1,0.6,0.2,1.2,0.3,1.8
			c0.4-0.2,1.3-0.5,2.3-0.6C78.6,61.4,81.8,61.5,82.8,59.9L82.8,59.9z M44,69.2c1.8-1,3-0.8,4.5-0.8c1.4-0.1,2.6-0.2,3.4-0.8
			c-0.2-0.6-0.4-1.1-0.6-1.7c-0.4,0.3-1.2,0.7-2.2,0.9C47.8,67.1,44.7,67.5,44,69.2L44,69.2z M82,56.9c-1.8,1-3,0.8-4.5,0.8
			c-1.4,0.1-2.6,0.2-3.4,0.8c0.2,0.6,0.4,1.1,0.6,1.7c0.4-0.3,1.2-0.7,2.2-0.9C78.2,59,81.3,58.6,82,56.9L82,56.9z M59.9,82.8
			c-0.1-2.1,0.6-3,1.3-4.4c0.6-1.3,1-2.5,0.8-3.4c-0.6,0-1.2-0.1-1.8-0.3c0,0.5,0.1,1.4-0.1,2.3C59.8,78.5,58.7,81.4,59.9,82.8
			L59.9,82.8z M66.1,43.3c0.1,2.1-0.6,3-1.3,4.4c-0.6,1.3-1,2.5-0.8,3.4c0.6,0,1.2,0.1,1.8,0.3c-0.1-0.5-0.1-1.4,0.1-2.3
			C66.2,47.7,67.3,44.7,66.1,43.3L66.1,43.3z M43.3,59.9c2.1-0.1,3,0.7,4.4,1.3c1.2,0.6,2.5,1,3.4,0.9c0.1-0.6,0.1-1.2,0.3-1.8
			c-0.5,0-1.4,0.1-2.3-0.2C47.6,59.8,44.7,58.7,43.3,59.9L43.3,59.9z M82.7,66.3c-2.1,0.1-3-0.7-4.4-1.3c-1.3-0.6-2.5-1-3.4-0.9
			c-0.1,0.6-0.1,1.2-0.3,1.8c0.5,0,1.4-0.1,2.3,0.2C78.4,66.4,81.3,67.4,82.7,66.3L82.7,66.3z M45.2,72.2c1.6-1.3,2.8-1.2,4.3-1.6
			c1.3-0.3,2.6-0.6,3.2-1.3c-0.3-0.5-0.6-1.1-0.8-1.6c-0.4,0.3-1.1,0.9-2,1.3C48.6,69.5,45.6,70.4,45.2,72.2L45.2,72.2z M80.8,54
			c-1.6,1.3-2.8,1.2-4.3,1.6c-1.3,0.3-2.6,0.6-3.2,1.3c0.3,0.5,0.6,1.1,0.8,1.6c0.4-0.3,1.1-0.9,2-1.3C77.4,56.7,80.4,55.8,80.8,54
			L80.8,54z M63,43.1c0.4,2-0.2,3.1-0.6,4.6c-0.4,1.3-0.6,2.6-0.3,3.4c0.3,0,0.6,0,0.9,0c0.3,0,0.6,0,0.9,0
			c-0.1-0.5-0.3-1.4-0.2-2.3C63.8,47.4,64.4,44.3,63,43.1L63,43.1z M63,83.1c-0.4-2,0.2-3.1,0.6-4.6c0.4-1.3,0.6-2.6,0.3-3.4
			c-0.3,0-0.6,0-0.9,0c-0.3,0-0.6,0-0.9,0c0.1,0.5,0.3,1.4,0.2,2.3C62.2,78.8,61.6,81.9,63,83.1L63,83.1z M56.8,82.1
			c0.2-2.1,1.1-2.9,2-4.2c0.8-1.1,1.4-2.3,1.4-3.2c-0.6-0.1-1.2-0.3-1.7-0.6c0,0.5-0.1,1.4-0.5,2.3C57.4,77.8,55.9,80.5,56.8,82.1
			L56.8,82.1z M69.2,44.1c-0.2,2.1-1.1,2.9-2,4.2c-0.8,1.1-1.4,2.3-1.4,3.2c0.6,0.1,1.2,0.3,1.7,0.6c0-0.5,0.1-1.4,0.5-2.3
			C68.6,48.4,70.1,45.6,69.2,44.1L69.2,44.1z M53.9,80.9c0.6-2,1.5-2.7,2.6-3.8c0.9-1,1.7-2,1.8-2.9c-0.6-0.2-1.1-0.5-1.6-0.8
			c-0.1,0.5-0.4,1.4-0.9,2.2C55.2,76.7,53.2,79.2,53.9,80.9L53.9,80.9z M72.1,45.2c-0.6,2-1.5,2.7-2.6,3.8c-0.9,1-1.7,2-1.8,2.9
			c0.6,0.2,1.1,0.5,1.6,0.8c0.1-0.5,0.4-1.4,0.9-2.2C70.8,49.5,72.8,47,72.1,45.2L72.1,45.2z M46.8,74.8c1.4-1.5,2.6-1.7,4-2.2
			c1.3-0.5,2.4-1,3-1.8c-0.4-0.5-0.7-0.9-1.1-1.5c-0.3,0.4-0.9,1.1-1.8,1.6C49.8,71.7,47,73,46.8,74.8L46.8,74.8z M79.2,51.3
			c-1.4,1.5-2.6,1.7-4,2.2c-1.3,0.5-2.5,1-3,1.8c0.4,0.5,0.8,1,1.1,1.5c0.3-0.4,0.9-1.1,1.8-1.6C76.2,54.5,79,53.1,79.2,51.3
			L79.2,51.3z M46.8,51.3c1.9,0.9,2.4,1.9,3.4,3.2c0.9,1.1,1.7,2,2.6,2.3c0.3-0.5,0.7-1,1.1-1.5c-0.5-0.2-1.3-0.6-2-1.2
			C50.8,53.2,48.6,50.9,46.8,51.3L46.8,51.3z M79.2,74.8c-1.9-0.9-2.4-1.9-3.4-3.2c-0.9-1.1-1.7-2-2.6-2.3c-0.3,0.5-0.7,1-1.1,1.5
			c0.5,0.2,1.3,0.6,2,1.2C75.2,73,77.4,75.2,79.2,74.8L79.2,74.8z M45.2,54c2,0.6,2.7,1.6,3.8,2.6c1,0.9,2,1.7,2.9,1.8
			c0.2-0.6,0.5-1.1,0.8-1.6c-0.5-0.1-1.4-0.4-2.2-0.9C49.4,55.2,46.9,53.3,45.2,54L45.2,54z M80.8,72.2c-2-0.6-2.7-1.5-3.8-2.6
			c-1-0.9-2-1.7-2.9-1.8c-0.2,0.6-0.5,1.1-0.8,1.6c0.5,0.1,1.4,0.4,2.2,0.9C76.6,70.9,79.1,72.9,80.8,72.2L80.8,72.2z M43,63.1
			c2-0.4,3.1,0.2,4.6,0.6c1.3,0.4,2.6,0.6,3.4,0.3c0-0.3,0-0.6,0-0.9c0-0.3,0-0.6,0-0.9c-0.5,0.1-1.4,0.3-2.3,0.2
			C47.3,62.3,44.2,61.7,43,63.1L43,63.1z M83,63.1c-2,0.4-3.1-0.2-4.6-0.6c-1.3-0.4-2.6-0.6-3.4-0.3c0,0.3,0,0.6,0,0.9
			c0,0.3,0,0.6,0,0.9c0.5-0.1,1.4-0.3,2.3-0.2C78.7,63.9,81.8,64.5,83,63.1L83,63.1z M51.3,46.9c1.5,1.4,1.7,2.6,2.2,4
			c0.5,1.3,1,2.5,1.8,3c0.5-0.4,0.9-0.7,1.5-1.1c-0.4-0.3-1.1-0.9-1.6-1.8C54.4,49.9,53.1,47,51.3,46.9L51.3,46.9z M74.7,79.3
			c-1.5-1.4-1.7-2.6-2.2-4c-0.5-1.3-1-2.5-1.8-3c-0.5,0.4-1,0.7-1.5,1.1c0.4,0.3,1.1,0.9,1.5,1.8C71.6,76.3,72.9,79.1,74.7,79.3
			L74.7,79.3z M53.9,45.3c1.3,1.6,1.2,2.8,1.5,4.3c0.3,1.3,0.6,2.6,1.3,3.2c0.5-0.3,1.1-0.6,1.6-0.8c-0.3-0.4-0.9-1.1-1.3-2
			C56.6,48.7,55.7,45.7,53.9,45.3L53.9,45.3z M72.1,80.9c-1.3-1.6-1.2-2.8-1.5-4.3c-0.3-1.3-0.6-2.6-1.3-3.2
			c-0.5,0.3-1.1,0.6-1.6,0.8c0.3,0.4,0.9,1.1,1.3,2C69.4,77.4,70.3,80.5,72.1,80.9L72.1,80.9z M56.9,44c1,1.8,0.8,3,0.8,4.5
			c0.1,1.4,0.2,2.6,0.8,3.4c0.6-0.2,1.1-0.4,1.7-0.6c-0.3-0.4-0.7-1.2-0.9-2.2C59,47.9,58.6,44.8,56.9,44L56.9,44z M69.1,82.1
			c-1-1.8-0.8-3-0.8-4.5c-0.1-1.4-0.2-2.6-0.8-3.4c-0.6,0.2-1.1,0.4-1.7,0.6c0.3,0.4,0.7,1.2,0.9,2.2C67,78.3,67.4,81.4,69.1,82.1
			L69.1,82.1z M59.9,43.3c0.7,2,0.3,3.1,0.1,4.6c-0.2,1.4-0.2,2.6,0.2,3.5c0.6-0.1,1.2-0.2,1.8-0.3c-0.2-0.4-0.5-1.3-0.6-2.3
			C61.4,47.4,61.5,44.3,59.9,43.3L59.9,43.3z M66.1,82.8c-0.7-2-0.3-3.1-0.1-4.6c0.2-1.4,0.2-2.6-0.2-3.5c-0.6,0.1-1.2,0.2-1.8,0.3
			c0.2,0.4,0.5,1.3,0.6,2.3C64.6,78.7,64.5,81.9,66.1,82.8L66.1,82.8z M51.3,79.3c0.9-1.9,1.9-2.4,3.2-3.4c1.1-0.9,2-1.7,2.3-2.6
			c-0.5-0.3-1-0.7-1.5-1.1c-0.2,0.5-0.6,1.3-1.2,2C53.1,75.3,50.8,77.5,51.3,79.3L51.3,79.3z M74.7,46.9c-0.9,1.9-1.9,2.4-3.2,3.4
			c-1.1,0.9-2,1.7-2.3,2.6c0.5,0.3,1,0.7,1.5,1.1c0.2-0.5,0.6-1.3,1.2-2C72.9,50.8,75.2,48.7,74.7,46.9L74.7,46.9z M44,56.9
			c2.1,0.2,2.9,1.1,4.2,2c1.1,0.8,2.3,1.4,3.2,1.4c0.1-0.6,0.3-1.2,0.6-1.7c-0.5,0-1.4-0.1-2.3-0.5C48.3,57.5,45.5,56,44,56.9
			L44,56.9z M82,69.2c-2.1-0.2-2.9-1.1-4.2-2c-1.1-0.8-2.3-1.4-3.2-1.4c-0.1,0.6-0.3,1.2-0.6,1.7c0.5,0,1.4,0.1,2.3,0.5
			C77.7,68.7,80.5,70.2,82,69.2L82,69.2z M48.9,77.2c1.2-1.7,2.3-2,3.6-2.8c1.2-0.7,2.3-1.4,2.7-2.2c-0.5-0.4-0.9-0.8-1.3-1.3
			c-0.2,0.4-0.8,1.2-1.5,1.8C51.3,73.6,48.7,75.4,48.9,77.2L48.9,77.2z M77.1,48.9c-1.2,1.7-2.3,2-3.6,2.8c-1.2,0.7-2.3,1.4-2.7,2.2
			c0.5,0.4,0.9,0.8,1.3,1.3c0.2-0.4,0.8-1.2,1.5-1.8C74.7,52.5,77.3,50.8,77.1,48.9L77.1,48.9z M77.1,77.2c-1.7-1.2-2-2.3-2.8-3.6
			c-0.7-1.2-1.4-2.3-2.2-2.7c-0.4,0.5-0.8,0.9-1.3,1.3c0.4,0.2,1.2,0.8,1.8,1.5C73.5,74.8,75.3,77.4,77.1,77.2L77.1,77.2z M69.7,55
			c0.1,0.1,0.3,0.3,0.4,0.4c0,0-2.4,0.1-5.2,1.2c-0.3-0.2-0.5-0.3-0.8-0.4C65.7,55.6,67.6,55.1,69.7,55L69.7,55z M70.7,56
			c0.1,0.1,0.2,0.3,0.4,0.4c0,0-2.1,0.2-4.6,1.2c-0.2-0.1-0.4-0.3-0.6-0.4C67.3,56.7,68.9,56.3,70.7,56L70.7,56z M71.5,57.1
			c1,1.6,1.6,3.4,1.6,5.4c0,1.2-0.2,2.3-0.6,3.4c-1.3-3.4-3.2-5.9-5.2-7.5C68.4,57.7,69.8,57.3,71.5,57.1L71.5,57.1z M71.4,67.8
			c-0.3,0.4-0.5,0.8-0.8,1.1c-0.9-4.7-2.9-7.7-5.3-9.7c0.3-0.2,0.5-0.3,0.8-0.4C70.4,62.4,71.4,67.5,71.4,67.8L71.4,67.8z
			 M69.4,70.2c-0.3,0.3-0.6,0.5-1,0.7c-0.2-5.1-2.2-8.4-4.6-10.6c0.2-0.2,0.4-0.3,0.6-0.5C69.3,64,69.4,69.9,69.4,70.2L69.4,70.2z
			 M67.1,71.6c-1.3,0.6-2.6,0.9-4.1,0.9c-1.4,0-2.8-0.3-4.1-0.9c0,0-0.5-6.2,4.1-10.6C67.5,65.3,67.1,71.4,67.1,71.6L67.1,71.6z
			 M57.6,70.9c-0.3-0.2-0.7-0.5-1-0.7c0,0-0.1-6.1,5-10.4c0.2,0.2,0.4,0.3,0.6,0.5C59.8,62.5,57.8,65.8,57.6,70.9L57.6,70.9z
			 M55.4,69c-0.3-0.4-0.6-0.7-0.8-1.1c0,0,0.9-5.3,5.3-9.1c0.3,0.1,0.5,0.3,0.8,0.4C58.3,61.2,56.2,64.3,55.4,69L55.4,69z
			 M53.5,65.8c-0.4-1.1-0.6-2.2-0.6-3.4c0-2,0.6-3.8,1.6-5.4l0,0c1.6,0.3,3,0.7,4.2,1.2C56.8,60,54.9,62.4,53.5,65.8L53.5,65.8z
			 M54.9,56.5c0.1-0.2,0.2-0.3,0.4-0.5l0,0c1.8,0.3,3.4,0.7,4.8,1.3c-0.2,0.1-0.4,0.3-0.6,0.4C57,56.6,55,56.4,54.9,56.5L54.9,56.5
			L54.9,56.5z M55.8,55.4c0.1-0.1,0.3-0.3,0.4-0.4h0c2.1,0.1,4,0.6,5.6,1.2c-0.3,0.1-0.5,0.3-0.8,0.4C58.2,55.5,55.8,55.4,55.8,55.4
			L55.8,55.4L55.8,55.4z M65.4,58.2c-0.2-0.1-0.4-0.3-0.6-0.4c-0.3,0.1-0.5,0.3-0.8,0.4c0.2,0.1,0.4,0.3,0.6,0.4
			C64.8,58.5,65.1,58.3,65.4,58.2L65.4,58.2z M63.8,57.1c-0.3-0.1-0.5-0.3-0.8-0.4c-0.3,0.1-0.5,0.3-0.8,0.4
			c0.3,0.1,0.5,0.3,0.8,0.4C63.3,57.4,63.5,57.3,63.8,57.1L63.8,57.1z M60.6,58.2c0.2-0.1,0.4-0.3,0.6-0.4c0.3,0.1,0.6,0.3,0.8,0.4
			c-0.2,0.1-0.4,0.3-0.6,0.4C61.1,58.5,60.9,58.3,60.6,58.2L60.6,58.2z M63.6,59.2c-0.2,0.1-0.4,0.3-0.6,0.5
			c-0.2-0.2-0.4-0.3-0.6-0.5c0.2-0.2,0.4-0.3,0.6-0.4C63.2,58.9,63.4,59.1,63.6,59.2L63.6,59.2z"/>
	</g>
	<path opacity="0.35" fill="#FFFFFF" d="M13,29.7v25.5C26.2,62.6,43.7,67,63,67s36.8-4.5,50-11.8V29.7H13z"/>
</g>
</svg>
