<?xml version="1.0" encoding="utf-8"?>
<!-- Generator: Adobe Illustrator 24.3.0, SVG Export Plug-In . SVG Version: 6.00 Build 0)  -->
<svg version="1.1" id="Layer_1" xmlns="http://www.w3.org/2000/svg" xmlns:xlink="http://www.w3.org/1999/xlink" x="0px" y="0px"
	 viewBox="0 0 126 126" enable-background="new 0 0 126 126" xml:space="preserve">
<g>
	<g>
		<path fill-rule="evenodd" clip-rule="evenodd" fill="#F90805" d="M13,96.3h100V79.7H13V96.3L13,96.3z M113,46.3V29.7H13v16.7H113
			L113,46.3z"/>
		<polygon fill-rule="evenodd" clip-rule="evenodd" fill="#0437A0" points="13,79.7 113,79.7 113,46.3 13,46.3 13,79.7 		"/>
		<path fill-rule="evenodd" clip-rule="evenodd" fill="#F4F4F4" d="M76.3,63c0,7.4-6,13.3-13.3,13.3s-13.3-6-13.3-13.3
			c0-7.4,6-13.3,13.3-13.3S76.3,55.6,76.3,63L76.3,63z"/>
	</g>
	<path opacity="0.3" fill="#FFFFFF" d="M13,29.7v25.5C26.2,62.6,43.7,67,63,67c19.3,0,36.8-4.5,50-11.8V29.7H13z"/>
</g>
</svg>
