<?xml version="1.0" encoding="utf-8"?>
<!-- Generator: Adobe Illustrator 24.3.0, SVG Export Plug-In . SVG Version: 6.00 Build 0)  -->
<svg version="1.1" id="Layer_1" xmlns="http://www.w3.org/2000/svg" xmlns:xlink="http://www.w3.org/1999/xlink" x="0px" y="0px"
	 viewBox="0 0 126 126" enable-background="new 0 0 126 126" xml:space="preserve">
<g>
	<g>
		<g>
			<polygon fill-rule="evenodd" clip-rule="evenodd" fill="#F0F0F0" points="13,79.7 113,79.7 113,46.3 13,46.3 13,79.7 			"/>
			<path fill-rule="evenodd" clip-rule="evenodd" fill="#47B71D" d="M62.3,46.8c0,0,1.1,2.8,3,3.3c1.9,0.4,2.3,0.5,3.2,1.2
				c0.9,0.7,1.1,0.7,1.5,0.9c0.3,0.2,0.3,0.7,0,0.8c-0.3,0-0.6-0.2-0.9,0c-0.4,0.2-0.2,0.4,0.4,0.8c0.6,0.4,1.1,0.8,1.4,1
				c0.3,0.2,0.7,0.2,0.7,0.4c0,0.2-0.2,0.2-0.8,0.2c-0.6,0-1.7-0.4-2.1-0.6c-0.4-0.2-0.8-0.1-0.9,0.2c-0.1,0.2-0.1,0.5,0.2,0.7
				c0.3,0.2,0.8,0.4,1.5,1c0.7,0.6,2.2,1.8,2.6,2.1c0.5,0.3,1.5,1,2.1,1.2c0.6,0.2,0.7,0.4,0.6,0.7c-0.1,0.3-0.3,0.2-0.6,0.2
				c-0.3,0-1.2-0.1-1.4-0.2c-0.2-0.1-1-0.5-1.2,0.1c-0.2,0.6,0.3,0.7,0.8,0.8c0.5,0,1.6,0.4,2,0.6c0.4,0.1,1.6,0.3,1.5,0.8
				c0,0.5-0.6,0.5-0.8,0.4c0,0-1.6,0.1-2,0.1c-0.4,0-0.8-0.2-1.1,0s-0.6,0.4-0.4,0.9c0,0,1.4-0.1,2.1,0.5c0.7,0.5,1.6,1.4,2,1.7
				c0.3,0.3,0.8,0.7,1,0.8c0.3,0.2,0.6,0.1,0.7,0.6c0,0.5-0.3,0.7-0.9,0.5c-0.6-0.2-0.9-0.3-1.3-0.6c-0.3-0.3-1.1-0.5-1.6-0.3
				c-0.5,0.2-0.8,0.5-0.6,1c0.2,0.5,0.5,0.4,1,0.8c0.5,0.3,2.7,1.5,3.5,2.1c0.8,0.5,1.7,1.2,1.4,1.8c-0.2,0.6-1,0.2-1.7-0.3
				c-0.8-0.5-2-1.4-3.1-1.6c-1.1-0.2-3.5,0.1-4.2-0.1c-0.7-0.2-1.3-0.5-1.9-0.8c-0.7-0.3-1.6-0.1-1.7,0.7c-0.1,0.8-0.3,2.2,0,3.4
				c0.3,1.2,1.4,2.3,1.9,2.7c0.4,0.4,0.9,0.7,1.4,1c0.4,0.3,0.7,0.6,0.4,1c-0.3,0.4-0.8-0.1-1.1-0.5c-0.3-0.4-0.8-1-1.6-1.1
				c-0.8-0.2-1.2-0.2-1.5-0.2c-0.3,0-0.5,0-0.5,0.5c0,0.5,0,0.7-0.2,0.7c-0.3,0-0.5-0.4-0.7-0.6c-0.2-0.2-0.7-0.4-1-0.7
				c-0.3-0.3-0.3-0.8-0.7-1c-0.4-0.2-0.7-0.1-1,0c-0.3,0.1-0.7,0-1-0.1c-0.4-0.2-1.1-0.1-1.7,0.4c-0.6,0.5-1.3,1.2-2.3,1.4
				c-0.9,0.2-1.9,0.2-2.4,0.4c-0.4,0.2-0.6,0.3-0.7,0.5c-0.1,0.2-0.3,0.4-0.5,0.2c-0.2-0.3-0.2-0.4,0-0.5c0.2-0.1,0.4-0.3,0.7-0.5
				c0.3-0.2,1.4-0.5,1.8-0.7c0.4-0.2,2.1-1.7,2.5-2.7c0.4-1.1,0.9-1.6,0.5-2.6c-0.4-1-1.5-1.4-2.7-0.9c-1.3,0.6-3.7,1.7-5.3,1.9
				c-1.6,0.2-2,0-2-0.5c0-0.5,0.4-0.5,0.6-0.5c0.2,0,3.4-1.1,4.3-1.6c0.9-0.4,1.3-0.9,0.9-1.4c-0.4-0.5-1-0.5-1.7-0.1
				s-3.3,1.8-4.7,1.9c-1.3,0.1-1-0.6-0.8-0.7c0.2-0.1,0.6-0.1,0.8-0.3c0.2-0.2,1-1,1.3-1.3c0.3-0.3,2-1.6,2.8-1.9
				c0.7-0.3,1.4-0.7,1.2-1.5c-0.2-0.8-1-0.7-1.8-0.2c-0.8,0.5-1.5,0.8-1.9,0.6c-0.4-0.2-0.4-0.6-0.2-0.8c0.2-0.2,1.2-1,1.5-1.4
				c0.3-0.4,0.9-0.8,1.8-1c0.8-0.2,1.9-1.2,2.1-1.8c0.2-0.6,0.2-1.9-1-1.6s-1.5,0.6-1.9,0.3c-0.4-0.4,0.2-0.8,0.7-1.1
				c0.5-0.3,2.1-1.1,2.4-1.3c0.4-0.3,0.5-0.6,0.9-1.2c0.4-0.6,0.9-0.6,1.2-0.6c0.3,0,0.8-0.3,0.6-0.8c-0.2-0.5-0.8-0.2-1-0.4
				c-0.2-0.2-0.1-0.3,0.2-0.5c0.3-0.2,1.4-0.9,1.8-1.1c0.4-0.1,1.1-0.5,0.9-0.8c-0.2-0.3-0.6-0.4-0.8-0.2c0,0-0.4-0.1,0.1-0.5
				c0.5-0.4,1.4-1.1,1.6-1.3C60.7,48.9,61.7,48,62.3,46.8L62.3,46.8z M58.3,53.2c0,0.2,0,0.6,0.2,0.7c0.3,0.1,0.5-0.1,0.6-0.3
				c0.1-0.2,0-0.5-0.2-0.6C58.7,52.9,58.4,53,58.3,53.2L58.3,53.2z M62.1,67.1c0.4,0,0.9,0.4,0.8,0.9c-0.1,0.5-0.9,0.5-1,0.1
				C61.7,67.8,61.8,67.1,62.1,67.1L62.1,67.1z M60,67.5c0.4,0.1,0.7,0.6,0.7,1c-0.1,0.4-0.5,0-0.7-0.2C59.9,68.1,59.6,67.4,60,67.5
				L60,67.5z M58.2,68.7c-0.4,0-0.5-0.8-0.6-1.2c-0.1-0.3-0.2-0.7,0.1-0.7c0.3,0,0.7,0.1,0.8,0.5c0.2,0.4,0,0.4,0.1,0.6
				C58.8,68,58.8,68.7,58.2,68.7L58.2,68.7z M56.8,63.8c0,0.4-0.5,0.7-1.2,0.9c-0.7,0.2-1.1,0.3-1.3,0.3c-0.2-0.1-0.6-0.7-0.7-0.9
				c-0.1-0.3-0.1-0.4,0.2-0.5c0.4-0.1,0.9-0.1,1.4-0.1c0.4,0,0.5-0.1,1,0C56.6,63.4,56.8,63.7,56.8,63.8L56.8,63.8z M72.9,66.7
				c0,0.5-0.9,1.2-1.7,0.9c-0.8-0.3-0.1-1,0-1.2c0.2-0.2,0.6-0.2,0.8-0.4C72.3,65.9,72.9,66,72.9,66.7L72.9,66.7z M70.1,65.9
				c0,0.4-1,1.1-1.9,0.8s-0.4-0.8-0.1-1.1c0.3-0.2,1.2-0.5,1.5-0.4C69.9,65.4,70.1,65.5,70.1,65.9L70.1,65.9z M69.2,60
				c0.3,0,1.1,1.2,0,1.3C68.2,61.4,68.3,59.9,69.2,60L69.2,60z M64.6,62.5c0.2,0,0.4,0.8,0,0.8C64.2,63.2,64.2,62.4,64.6,62.5
				L64.6,62.5z M63.3,61.8c0.3,0.3,0.5,0.7,0.6,1.1s-0.5,0.6-0.9,0.4c-0.2-0.1-0.3-0.4-0.3-0.8C62.6,61.9,62.9,61.4,63.3,61.8
				L63.3,61.8z M61.6,61.1c0.2,0,0.6,0.8-0.1,0.9C60.8,62.1,61.1,61,61.6,61.1L61.6,61.1z M59.3,61.5c0.2,0,0.7,0.5,0.3,0.8
				c-0.3,0.3-0.6-0.2-0.7-0.4C58.9,61.7,59,61.5,59.3,61.5L59.3,61.5z M55.7,57.9c0.4,0,0.6,0.1,1,0.6c0.3,0.5,0.3,0.8,0,1
				c-0.3,0.2-0.8,0.2-1.2-0.3C55,58.6,55.1,57.9,55.7,57.9L55.7,57.9z M57.9,58.8c-0.2,0-0.6-0.1-0.6-0.6c0-0.4,0.3-0.7,0.6-0.7
				c0.3,0,0.3,0,0.5,0c0.2,0,0.5,0.3,0.4,0.6C58.7,58.5,58.3,58.8,57.9,58.8L57.9,58.8z M58.8,56.4c-0.2,0-0.5-0.2-0.3-0.6
				c0.2-0.4,1-0.9,1.3-1c0.3-0.1,0.4,0,0.4,0.3c0,0.3,0,0.6-0.3,0.8C59.6,56,59.1,56.4,58.8,56.4L58.8,56.4z M62.4,57.9
				c-0.2,0-0.5-0.2-0.5-0.5c0-0.4,0.3-0.4,0.5-0.4c0.2,0,0.3-0.2,0.4,0c0.1,0.2,0.1,0.4,0,0.6C62.8,57.8,62.7,57.9,62.4,57.9
				L62.4,57.9z M64.3,58c-0.3,0-0.4-0.2-0.4-0.5c0-0.3,0-0.4,0.4-0.5c0.3-0.1,0.3-0.3,0.4-0.1C64.8,57.1,65,58.1,64.3,58L64.3,58z
				 M66.9,57.4c0.6,0,0.9,0.6,0.9,0.9c-0.1,0.3-0.5,0.7-0.9,0.6c-0.5-0.1-1.1-0.3-1.1-0.8C65.8,57.5,66.6,57.4,66.9,57.4L66.9,57.4z
				 M65.9,53.6c0.2,0,0.6,0,0.6,0.5c-0.1,0.5-0.4,0.6-0.6,0.6c-0.2,0-0.5-0.2-0.5-0.6C65.3,53.8,65.6,53.7,65.9,53.6L65.9,53.6z
				 M64.1,53.5c0.2,0,0.4,0.2,0.5,0.5c0,0.3-0.2,0.5-0.4,0.5c-0.3,0-0.4-0.3-0.5-0.5C63.7,53.6,63.8,53.5,64.1,53.5L64.1,53.5z
				 M62.1,53.7c0.2-0.1,0.5-0.2,0.7,0c0.2,0.2,0.2,0.6,0,0.8c-0.2,0.2-0.3,0.1-0.7,0.3c-0.3,0.1-1,0.3-1.1-0.1
				c-0.1-0.4,0.3-0.7,0.5-0.8C61.8,53.8,62,53.8,62.1,53.7L62.1,53.7z"/>
			<path fill-rule="evenodd" clip-rule="evenodd" fill="#FF1612" d="M13,96.3h100V79.7H13V96.3L13,96.3z M113,46.3V29.7H13v16.7H113
				L113,46.3z"/>
		</g>
	</g>
	<path opacity="0.25" fill="#FFFFFF" d="M13,29.7v25.5C26.2,62.6,43.7,67,63,67c19.3,0,36.8-4.5,50-11.8V29.7H13z"/>
</g>
</svg>
