<?xml version="1.0" encoding="utf-8"?>
<!-- Generator: Adobe Illustrator 24.3.0, SVG Export Plug-In . SVG Version: 6.00 Build 0)  -->
<svg version="1.1" id="Layer_1" xmlns="http://www.w3.org/2000/svg" xmlns:xlink="http://www.w3.org/1999/xlink" x="0px" y="0px"
	 viewBox="0 0 126 126" enable-background="new 0 0 126 126" xml:space="preserve">
<g>
	<g>
		<g>
			<polygon fill="#F0F0F0" points="113,49.7 113,76.3 13,76.3 13,49.7 113,49.7 			"/>
			<path d="M54.1,72c0.3,0.2,0.8,0.4,1.3,0.6l-0.3-0.9L54.1,72L54.1,72z M62.8,50.9L62.8,50.9c0.4,0,0.7,0.2,0.8,0.5
				c5.4,1.3,3.3,7.4,2.2,9.7l0.6,0l-0.8,0.7l5.2,6.9c0.1-0.1,0.1-0.1,0.1-0.1l0.5-0.4l0.3,0.6l1.5,2.8l0.2,0.4l-0.4,0.3
				c0,0-3.6,2.6-9.9,2.6c-6.3,0-10.4-2.4-10.4-2.4l-0.4-0.3l0.2-0.5l1.2-2.9l0.2-0.5l0.5,0.2c0.1,0,0.2,0.1,0.2,0.1l5.3-7
				c-0.7-1.5-4.1-8.9,1.9-10.4C62.2,51.1,62.5,50.9,62.8,50.9L62.8,50.9z M63.7,52.5v3.4l0.4,0.3l1.2,1.1H64v2.3l0.9,1.2
				C65.8,59,67.8,53.8,63.7,52.5L63.7,52.5z M60.8,60.9l0.9-1.2v-2.3h-1.3l1.2-1.1l0.4-0.3v-3.4C57.9,53.8,59.9,59,60.8,60.9
				L60.8,60.9z M70.5,71.5l0.8-1.3L71.1,70c-0.3,0.2-0.8,0.4-1.3,0.6L70.5,71.5L70.5,71.5z M71.5,70.7l-0.7,1.2l0.3,0.4
				c0.4-0.2,0.7-0.4,1-0.5L71.5,70.7L71.5,70.7z M67.9,72.1l1.1-0.9l-0.2-0.3c-0.5,0.1-1,0.3-1.6,0.4L67.9,72.1L67.9,72.1z
				 M69.3,71.6l-1.1,0.9l0.5,0.7c0.5-0.2,1-0.3,1.5-0.5L69.3,71.6L69.3,71.6z M65,72.5l1.3-0.7l-0.3-0.3c-0.5,0.1-1.1,0.1-1.7,0.1
				L65,72.5L65,72.5z M66.7,72.2l-1.4,0.7l0.5,0.8c0.7-0.1,1.3-0.2,1.8-0.3L66.7,72.2L66.7,72.2z M61.7,72.7l1.8-0.7l-0.2-0.3
				c-0.7,0-1.5-0.1-2.4-0.2L61.7,72.7L61.7,72.7z M63.8,72.4L62,73.1l0.5,0.8c0.3,0,0.5,0,0.8,0c0.5,0,1,0,1.5,0L63.8,72.4
				L63.8,72.4z M58.9,72.4l1.2-0.4l-0.5-0.7c-0.4-0.1-0.9-0.2-1.3-0.3L58.9,72.4L58.9,72.4z M60.4,72.4l-1.3,0.4l0.3,0.7
				c0.6,0.1,1.2,0.2,1.9,0.2L60.4,72.4L60.4,72.4z M56.2,71.8l1.2-0.4l-0.3-0.7c-0.5-0.1-1-0.3-1.5-0.4L56.2,71.8L56.2,71.8z
				 M57.6,71.9l-1.2,0.4l0.2,0.7c0.5,0.1,1,0.3,1.6,0.4L57.6,71.9L57.6,71.9z M54.9,71.2l-0.4-1L54,71.5L54.9,71.2L54.9,71.2z"/>
			<polygon fill="#47B71D" points="13,76.3 113,76.3 113,96.3 13,96.3 13,76.3 			"/>
			<polygon fill="#0437A0" points="13,29.7 113,29.7 113,49.7 13,49.7 13,29.7 			"/>
		</g>
	</g>
	<path opacity="0.25" fill="#FFFFFF" d="M13,29.7v25.5C26.2,62.6,43.7,67,63,67s36.8-4.5,50-11.8V29.7H13z"/>
</g>
</svg>
