<?xml version="1.0" encoding="utf-8"?>
<!-- Generator: Adobe Illustrator 24.3.0, SVG Export Plug-In . SVG Version: 6.00 Build 0)  -->
<svg version="1.1" id="Layer_1" xmlns="http://www.w3.org/2000/svg" xmlns:xlink="http://www.w3.org/1999/xlink" x="0px" y="0px"
	 viewBox="0 0 126 126" enable-background="new 0 0 126 126" xml:space="preserve">
<g>
	<g>
		<path fill-rule="evenodd" clip-rule="evenodd" fill="#FF1612" d="M13,96.3h100v-6.1H13V96.3L13,96.3z M113,84.2v-6.1H13v6.1H113
			L113,84.2z M113,72.1V66H13v6.1H113L113,72.1z M113,60v-6.1H43.3V60H113L113,60z M113,47.9v-6.1H43.3v6.1H113L113,47.9z M113,35.7
			v-6.1H43.3v6.1H113L113,35.7z"/>
		<path fill="#F4F4F4" d="M43.3,35.7H113v6.1H43.3V35.7L43.3,35.7z M43.3,47.9H113v6.1H43.3V47.9L43.3,47.9z M13,60h30.3H113V66H13
			V60L13,60z M13,72.1h100v6.1H13V72.1L13,72.1z M13,84.2h100v6.1H13V84.2L13,84.2z"/>
		<polygon fill-rule="evenodd" clip-rule="evenodd" fill="#0437A0" points="13,60 43.3,60 43.3,29.7 13,29.7 13,60 		"/>
		<polygon fill-rule="evenodd" clip-rule="evenodd" fill="#F4F4F4" points="28.2,35.7 30.2,42 36.7,42 31.4,45.8 33.4,52 28.2,48.2 
			22.9,52 24.9,45.8 19.6,42 26.1,42 28.2,35.7 		"/>
	</g>
	<path opacity="0.35" fill="#FFFFFF" d="M13,29.7v25.5C26.2,62.6,43.7,67,63,67c19.3,0,36.8-4.5,50-11.8V29.7H13z"/>
</g>
</svg>
