<?xml version="1.0" encoding="utf-8"?>
<!-- Generator: Adobe Illustrator 24.3.0, SVG Export Plug-In . SVG Version: 6.00 Build 0)  -->
<svg version="1.1" id="Layer_1" xmlns="http://www.w3.org/2000/svg" xmlns:xlink="http://www.w3.org/1999/xlink" x="0px" y="0px"
	 viewBox="0 0 126 126" enable-background="new 0 0 126 126" xml:space="preserve">
<g>
	<g>
		<polygon fill-rule="evenodd" clip-rule="evenodd" fill="#47B71D" points="13,96.3 113,96.3 113,79.7 13,79.7 13,96.3 		"/>
		<polygon fill-rule="evenodd" clip-rule="evenodd" points="13,79.7 113,79.7 113,46.3 13,46.3 13,79.7 		"/>
		<polygon fill-rule="evenodd" clip-rule="evenodd" fill="#FF1612" points="13,46.3 113,46.3 113,29.7 13,29.7 13,46.3 		"/>
		<path fill-rule="evenodd" clip-rule="evenodd" fill="#F4F4F4" d="M69,57.3c-5.1-5.4-14.4-1.8-14.4,5.7c0,7.6,9.3,11.1,14.4,5.7
			C64.4,72.3,57.5,69,57.5,63C57.5,57,64.4,53.7,69,57.3L69,57.3z M71.5,57.1l0,4.5l-4.2,1.3l4.2,1.4l0,4.5l2.6-3.6l4.2,1.4L75.7,63
			l2.7-3.6l-4.2,1.4L71.5,57.1L71.5,57.1z"/>
	</g>
	<path opacity="0.25" fill="#FFFFFF" d="M13,29.7v25.5C26.2,62.6,43.7,67,63,67c19.3,0,36.8-4.5,50-11.8V29.7H13z"/>
</g>
</svg>
