<?xml version="1.0" encoding="utf-8"?>
<!-- Generator: Adobe Illustrator 24.3.0, SVG Export Plug-In . SVG Version: 6.00 Build 0)  -->
<svg version="1.1" id="Layer_1" xmlns="http://www.w3.org/2000/svg" xmlns:xlink="http://www.w3.org/1999/xlink" x="0px" y="0px"
	 viewBox="0 0 126 126" enable-background="new 0 0 126 126" xml:space="preserve">
<g>
	<g>
		<polygon fill="#0437A0" points="13,29.7 113,29.7 113,96.3 13,96.3 13,29.7 		"/>
		<polygon fill="#FF1612" points="13,63 113,63 113,96.3 13,96.3 13,63 		"/>
		<g>
			<path d="M29.1,54c-0.1-0.1-0.7-1-1.2-2.5c-0.3-0.7-0.5-1.3-0.8-1.7c-0.3-0.6-0.6-0.9-0.8-1.1l0.1-0.2l-0.1,0.2
				c-0.1-0.1-0.1-0.2,0-0.3c0,0,0,0,0,0c0.1-0.1,0.5-0.3,1-0.5c-0.1,0-0.3-0.1-0.4-0.2c-0.1-0.1-0.2-0.3-0.2-0.5
				c0-0.2,0.1-0.3,0.2-0.5c0,0,0.1-0.1,0.1-0.1c-0.1,0-0.3-0.1-0.3-0.2c-0.1-0.1-0.2-0.3-0.2-0.5c0-0.2,0.1-0.3,0.2-0.5
				c0.1-0.1,0.2-0.1,0.3-0.2c-0.1,0-0.2-0.1-0.3-0.2c-0.1-0.1-0.2-0.3-0.2-0.5c0-0.2,0.1-0.3,0.2-0.5c0.1-0.1,0.3-0.2,0.4-0.2
				c0,0-0.1,0-0.1-0.1c-0.1-0.1-0.2-0.3-0.2-0.5c0-0.2,0.1-0.3,0.2-0.5c0.1-0.1,0.3-0.2,0.5-0.2c0.1,0,0.1,0,0.2,0
				c-0.1-0.1-0.1-0.2-0.1-0.4c0-0.2,0.1-0.3,0.2-0.5c0.1-0.1,0.3-0.2,0.5-0.2c0.1,0,0.2,0,0.3,0.1c0-0.1,0-0.1,0-0.2
				c0-0.2,0.1-0.3,0.2-0.5c0.1-0.1,0.3-0.2,0.5-0.2c0.2,0,0.3,0.1,0.5,0.2c0,0,0,0,0.1,0.1c0-0.2,0.1-0.3,0.2-0.5
				c0.1-0.1,0.3-0.2,0.5-0.2c0.2,0,0.3,0.1,0.5,0.2c0.1,0.1,0.1,0.1,0.1,0.2c0-0.1,0.1-0.2,0.2-0.3c0.1-0.1,0.3-0.2,0.5-0.2
				c0.2,0,0.3,0.1,0.5,0.2c0.1,0.1,0.2,0.2,0.2,0.3c0-0.1,0.1-0.2,0.1-0.2c0.1-0.1,0.3-0.2,0.5-0.2c0.2,0,0.3,0.1,0.5,0.2
				c0.1,0.1,0.2,0.3,0.2,0.4c0-0.1,0.1-0.1,0.1-0.2C33.8,41,34,41,34.2,41c0.2,0,0.3,0.1,0.5,0.2c0.1,0.1,0.2,0.3,0.2,0.5
				c0,0,0,0,0,0c0-0.1,0.1-0.1,0.1-0.2c0.1-0.1,0.3-0.2,0.5-0.2c0.2,0,0.3,0.1,0.5,0.2c0.1,0.1,0.2,0.3,0.2,0.5c0,0,0,0,0,0
				c0-0.1,0.1-0.1,0.1-0.2c0.1-0.1,0.3-0.2,0.5-0.2c0,0,0,0,0,0c-0.2-0.2-0.3-0.5-0.3-0.8c0-0.4,0.1-0.7,0.4-0.9
				c0.1-0.1,0.2-0.2,0.3-0.2L37,39.4l0.2-0.1L37,39.4c0-0.1,0-0.2,0-0.2l0.4-0.7c-0.1,0-0.1-0.1-0.2-0.1c0,0-0.1-0.1-0.1-0.1
				l-0.5,0.3c-0.1,0.1-0.2,0.1-0.2,0l0.1-0.2l-0.1,0.2l-0.7-0.4c0,0-0.1,0-0.1-0.1c-0.1-0.1,0-0.2,0.1-0.3l0,0l0.7-0.4
				c0.1-0.1,0.2-0.1,0.3,0l-0.1,0.2l0.1-0.2l0.6,0.4c0,0,0-0.1,0.1-0.1c0,0,0.1-0.1,0.2-0.1L37,36.8c0-0.1-0.1-0.2,0-0.2l0,0
				l0.5-0.8c0,0,0.1-0.1,0.1-0.1c0.1-0.1,0.2,0,0.3,0.1l-0.2,0.1l0.2-0.1l0.5,0.8c0,0.1,0.1,0.2,0,0.2l-0.2-0.1l0.2,0.1l-0.4,0.8
				c0.1,0,0.1,0.1,0.2,0.1c0,0,0.1,0.1,0.1,0.1l0.6-0.4l0.1,0.2l-0.1-0.2c0.1-0.1,0.2,0,0.3,0l0.7,0.4l0,0c0.1,0.1,0.1,0.2,0.1,0.3
				c0,0-0.1,0.1-0.1,0.1l-0.7,0.4l-0.1-0.2l0.1,0.2c-0.1,0.1-0.2,0-0.2,0l-0.5-0.3c0,0-0.1,0.1-0.1,0.1c0,0-0.1,0.1-0.2,0.1l0.4,0.7
				l0,0c0,0.1,0,0.1,0,0.2l-0.1,0.2c0.1,0.1,0.2,0.1,0.3,0.2c0.2,0.2,0.4,0.5,0.4,0.9c0,0.3-0.1,0.6-0.3,0.8c0,0,0,0,0,0
				c0.2,0,0.3,0.1,0.5,0.2c0.1,0.1,0.1,0.1,0.1,0.2c0,0,0,0,0,0c0-0.2,0.1-0.3,0.2-0.5c0.1-0.1,0.3-0.2,0.5-0.2s0.3,0.1,0.5,0.2
				c0.1,0.1,0.1,0.1,0.1,0.2c0,0,0,0,0,0c0-0.2,0.1-0.3,0.2-0.5C40.8,41,41,41,41.2,41c0.2,0,0.3,0.1,0.5,0.2
				c0.1,0.1,0.1,0.1,0.1,0.2c0-0.2,0.1-0.3,0.2-0.4c0.1-0.1,0.3-0.2,0.5-0.2c0.2,0,0.3,0.1,0.5,0.2c0.1,0.1,0.1,0.1,0.1,0.2
				c0-0.1,0.1-0.2,0.2-0.3c0.1-0.1,0.3-0.2,0.5-0.2c0.2,0,0.3,0.1,0.5,0.2c0.1,0.1,0.1,0.2,0.2,0.3c0-0.1,0.1-0.2,0.1-0.2
				c0.1-0.1,0.3-0.2,0.5-0.2c0.2,0,0.3,0.1,0.5,0.2c0.1,0.1,0.2,0.3,0.2,0.5c0,0,0,0,0.1-0.1c0.1-0.1,0.3-0.2,0.5-0.2
				c0.2,0,0.3,0.1,0.5,0.2c0.1,0.1,0.2,0.3,0.2,0.5c0,0.1,0,0.1,0,0.2c0.1-0.1,0.2-0.1,0.3-0.1c0.2,0,0.3,0.1,0.5,0.2
				c0.1,0.1,0.2,0.3,0.2,0.5c0,0.1,0,0.3-0.1,0.4c0.1,0,0.1,0,0.2,0c0.2,0,0.3,0.1,0.5,0.2c0.1,0.1,0.2,0.3,0.2,0.5
				c0,0.2-0.1,0.3-0.2,0.5c0,0-0.1,0-0.1,0.1c0.2,0,0.3,0.1,0.4,0.2c0.1,0.1,0.2,0.3,0.2,0.5c0,0.2-0.1,0.3-0.2,0.5
				c-0.1,0.1-0.2,0.1-0.3,0.2c0.1,0,0.2,0.1,0.3,0.2c0.1,0.1,0.2,0.3,0.2,0.5c0,0.2-0.1,0.3-0.2,0.5c-0.1,0.1-0.2,0.2-0.3,0.2
				c0,0,0.1,0.1,0.1,0.1c0.1,0.1,0.2,0.3,0.2,0.5c0,0.2-0.1,0.3-0.2,0.5c-0.1,0.1-0.2,0.2-0.4,0.2c0.6,0.2,1,0.5,1,0.5l-0.1,0.2
				l0.1-0.2c0.1,0.1,0.1,0.2,0,0.3c0,0,0,0,0,0c-0.2,0.2-0.5,0.5-0.8,1.1c-0.2,0.4-0.5,1-0.8,1.7c-0.6,1.7-1.2,2.5-1.2,2.5l0,0l0,0
				l0,0c0,0,0,0,0,0c-0.7,1.4-8.5,1.4-8.5,1.4S29.9,55.5,29.1,54C29.2,54,29.1,54,29.1,54L29.1,54z"/>
			<path fill-rule="evenodd" clip-rule="evenodd" fill="#FFDE27" d="M29.3,53.9c0,0-0.6-0.8-1.2-2.5c-0.6-1.7-1.2-2.6-1.6-2.9
				c0,0,1.1-0.9,2.3-0.5c1.2,0.4,1.5,1.4,1.6,1.6c0.1,0.2,0.2,0.1,0.2,0c0-0.1-0.1-1.4,0.7-2.2c0.8-0.8,2-0.1,2.7,0.6
				c0.7,0.7,0.9,1.1,1,1.2c0.1,0.1,0.2,0.1,0.2,0c0-0.1,0-1.2,0.7-1.8c0.7-0.6,1.8-0.5,1.8-0.5s1.1,0,1.8,0.5
				c0.7,0.6,0.7,1.6,0.7,1.8c0,0.1,0.1,0.1,0.2,0c0.1-0.1,0.3-0.5,1-1.2c0.7-0.8,1.9-1.4,2.7-0.6c0.8,0.8,0.7,2.1,0.7,2.2
				c0,0.1,0.2,0.2,0.2,0c0.1-0.2,0.4-1.2,1.6-1.6c1.2-0.4,2.3,0.5,2.3,0.5c-0.4,0.3-1,1.2-1.6,2.9C46.7,53,46,53.9,46,53.9
				c-0.1-0.1-0.2-0.2-0.4-0.2l0.1-0.3c0,0,0-0.1-0.1-0.1c0,0-0.1,0-0.1,0.1l-0.1,0.3c-0.1,0-0.2-0.1-0.3-0.1l0.1-0.3
				c0,0,0-0.1-0.1-0.1c0,0-0.1,0-0.1,0.1l-0.1,0.3c-0.1,0-0.2,0-0.3-0.1l0.1-0.3c0,0,0-0.1-0.1-0.1c0,0-0.1,0-0.1,0.1l-0.1,0.3
				c-0.1,0-0.2,0-0.3,0l0.1-0.3c0,0,0-0.1-0.1-0.1c0,0-0.1,0-0.1,0.1l-0.1,0.3c-0.1,0-0.2,0-0.4,0l0-0.3c0-0.1,0-0.1-0.1-0.1
				c0,0-0.1,0-0.1,0.1l0,0.3c-0.1,0-0.3,0-0.4,0l0-0.2c0,0,0-0.1-0.1-0.1c0,0-0.1,0-0.1,0.1l0,0.2c-0.1,0-0.3,0-0.4,0l0.1-0.4
				c0,0,0-0.1-0.1-0.1c0,0-0.1,0-0.1,0.1l-0.1,0.4c-0.1,0-0.2,0-0.4,0l0-0.3c0,0,0-0.1-0.1-0.1c0,0-0.1,0-0.1,0.1l0,0.3
				c-0.1,0-0.2,0-0.4,0l0-0.3c0,0,0-0.1-0.1-0.1c0,0-0.1,0-0.1,0.1l0,0.4c-0.1,0-0.2,0-0.4,0l0-0.4c0-0.1,0-0.1-0.1-0.1
				c0,0-0.1,0-0.1,0.1l0,0.4c-0.1,0-0.3,0-0.4,0l0-0.4c0,0,0-0.1-0.1-0.1c0,0-0.1,0-0.1,0.1l0,0.4c-0.1,0-0.2,0-0.3,0l0-0.4
				c0-0.1,0-0.1-0.1-0.1c0,0-0.1,0-0.1,0.1l0,0.4c-0.1,0-0.3,0-0.4,0l0-0.4c0-0.1,0-0.1-0.1-0.1c-0.1,0-0.1,0-0.1,0.1l0,0.4
				c-0.2,0-0.3,0-0.5,0l0-0.4c0,0,0-0.1-0.1-0.1c-0.1,0-0.1,0-0.1,0.1l0,0.4c-0.3,0-0.5,0-0.6,0l0-0.4c0,0,0-0.1-0.1-0.1
				c0,0-0.1,0-0.1,0.1l0,0.4c-0.2,0-0.4,0-0.6,0l0-0.4c0-0.1,0-0.1-0.1-0.1c0,0-0.1,0-0.1,0.1l0,0.4c-0.2,0-0.3,0-0.5,0l0-0.4
				c0,0,0-0.1-0.1-0.1c0,0-0.1,0-0.1,0.1l0,0.4c-0.1,0-0.3,0-0.4,0l0-0.4c0,0,0-0.1-0.1-0.1c-0.1,0-0.1,0-0.1,0.1l0,0.4
				c-0.1,0-0.2,0-0.3,0l0-0.4c0,0,0-0.1-0.1-0.1c-0.1,0-0.1,0-0.1,0.1l0,0.4c-0.1,0-0.3,0-0.4,0l0-0.4c0-0.1,0-0.1-0.1-0.1
				c0,0-0.1,0-0.1,0.1l0,0.4c-0.1,0-0.2,0-0.4,0l0-0.4c0,0,0-0.1-0.1-0.1c0,0-0.1,0-0.1,0.1l0,0.3c-0.1,0-0.2,0-0.4,0l0-0.3
				c0-0.1,0-0.1-0.1-0.1c-0.1,0-0.1,0.1-0.1,0.1l0,0.3c-0.1,0-0.2,0-0.4,0l-0.1-0.4c0,0-0.1-0.1-0.1-0.1c0,0-0.1,0.1-0.1,0.1
				l0.1,0.4c-0.1,0-0.3,0-0.4,0l0-0.2c0-0.1-0.1-0.1-0.1-0.1c0,0-0.1,0.1-0.1,0.1l0,0.2c-0.1,0-0.3,0-0.4,0l0-0.3
				c0,0-0.1-0.1-0.1-0.1c0,0-0.1,0.1-0.1,0.1l0,0.3c-0.1,0-0.3,0-0.4,0L31.1,53c0,0-0.1-0.1-0.1-0.1c0,0-0.1,0.1-0.1,0.1l0.1,0.3
				c-0.1,0-0.2,0-0.3,0l-0.1-0.3c0,0-0.1-0.1-0.1-0.1c0,0-0.1,0.1-0.1,0.1l0.1,0.3c-0.1,0-0.2,0-0.3,0.1l-0.1-0.3
				c0,0-0.1-0.1-0.1-0.1c0,0-0.1,0.1-0.1,0.1l0.1,0.3c-0.1,0-0.2,0-0.3,0.1l-0.1-0.3c0,0-0.1-0.1-0.1-0.1c0,0-0.1,0.1-0.1,0.1
				l0.1,0.3C29.5,53.7,29.4,53.8,29.3,53.9L29.3,53.9z M28.4,47.7c0,0,0.4,0,0.9,0.3c0,0-1.2-2.7-0.4-4.1c0.8-1.3,2.2-1.3,3-1.3
				c0.8,0,1.8,0.2,2.5,0.4c0.7,0.2,2,0.5,2,0.5l0-0.5c0,0-2.6-0.7-4-0.8c-1.5-0.2-2.7,0-3.6,1C27.8,44.2,27.8,45.4,28.4,47.7
				L28.4,47.7z M46.9,47.7c0,0-0.4,0-0.9,0.3c0,0,1.2-2.7,0.4-4.1c-0.8-1.3-2.2-1.3-3-1.3c-0.8,0-1.8,0.2-2.5,0.4
				c-0.7,0.2-2,0.5-2,0.5l0-0.5c0,0,2.6-0.7,4-0.8c1.5-0.2,2.7,0,3.6,1C47.6,44.2,47.6,45.4,46.9,47.7L46.9,47.7z M37.7,38.3
				c0.2,0,0.3-0.1,0.3-0.3c0-0.2-0.1-0.3-0.3-0.3c-0.2,0-0.3,0.2-0.3,0.3C37.3,38.2,37.5,38.3,37.7,38.3L37.7,38.3z M38.2,38.1
				c0,0,0-0.1,0-0.1l0.6-0.4l0.7,0.4l-0.7,0.5L38.2,38.1L38.2,38.1z M37.7,37.5l0.5-0.8l-0.5-0.8l-0.5,0.8L37.7,37.5L37.7,37.5z
				 M38,39.6c0,0-0.2-0.1-0.3,0c-0.1,0-0.3,0-0.3,0l-0.1-0.2l0.4-0.8l0.4,0.8L38,39.6L38,39.6z M37.7,41.8c0.4,0,0.8-0.3,1-0.7
				c-0.8-0.2-1.6-0.1-1.9,0C36.9,41.5,37.2,41.8,37.7,41.8L37.7,41.8z M38.7,41c0-0.1,0-0.2,0-0.2c0-0.1,0-0.1,0-0.2
				c0,0-0.1,0-0.1,0c-0.3,0-0.5-0.1-0.6,0l0,0c0,0-0.1,0-0.1-0.1v0v-0.7c-0.1,0-0.1,0-0.2,0c-0.1,0-0.1,0-0.2,0v0.7l0,0
				c0,0,0,0.1-0.1,0.1l0,0c-0.1,0-0.3,0-0.6,0c0,0-0.1,0-0.1,0c0,0.1,0,0.1,0,0.2c0,0.1,0,0.2,0,0.2C37,40.9,37.9,40.8,38.7,41
				L38.7,41z M38.7,40.4c-0.1-0.3-0.3-0.5-0.6-0.6v0.5C38.2,40.3,38.4,40.3,38.7,40.4C38.6,40.4,38.6,40.4,38.7,40.4L38.7,40.4z
				 M37.3,39.8c-0.3,0.1-0.5,0.3-0.6,0.6c0,0,0,0,0,0c0.2,0,0.4,0,0.6-0.1V39.8L37.3,39.8z M37.7,42.7c0.2,0,0.3-0.1,0.3-0.3
				c0-0.2-0.1-0.3-0.3-0.3c-0.2,0-0.3,0.1-0.3,0.3C37.4,42.6,37.5,42.7,37.7,42.7L37.7,42.7z M38.7,41.8c-0.2,0-0.4,0.2-0.4,0.4
				c0,0.2,0.2,0.4,0.4,0.4s0.4-0.2,0.4-0.4C39.1,42,38.9,41.8,38.7,41.8L38.7,41.8z M39.9,41.5c-0.2,0-0.4,0.2-0.4,0.4
				c0,0.2,0.2,0.4,0.4,0.4c0.2,0,0.4-0.2,0.4-0.4C40.4,41.7,40.2,41.5,39.9,41.5L39.9,41.5z M41.2,41.2c-0.2,0-0.4,0.2-0.4,0.4
				c0,0.2,0.2,0.4,0.4,0.4c0.2,0,0.4-0.2,0.4-0.4C41.6,41.4,41.4,41.2,41.2,41.2L41.2,41.2z M42.5,41c-0.2,0-0.4,0.2-0.4,0.4
				c0,0.2,0.2,0.4,0.4,0.4c0.2,0,0.4-0.2,0.4-0.4C42.9,41.2,42.7,41,42.5,41L42.5,41z M43.7,40.8c-0.2,0-0.4,0.2-0.4,0.4
				s0.2,0.4,0.4,0.4c0.2,0,0.4-0.2,0.4-0.4S43.9,40.8,43.7,40.8L43.7,40.8z M44.9,40.9c-0.2,0-0.4,0.2-0.4,0.4
				c0,0.2,0.2,0.4,0.4,0.4s0.4-0.2,0.4-0.4C45.4,41.1,45.2,40.9,44.9,40.9L44.9,40.9z M46.1,41.3c-0.2,0-0.4,0.2-0.4,0.4
				c0,0.2,0.2,0.4,0.4,0.4c0.2,0,0.4-0.2,0.4-0.4C46.6,41.5,46.4,41.3,46.1,41.3L46.1,41.3z M47.1,42c-0.2,0-0.4,0.2-0.4,0.4
				c0,0.2,0.2,0.4,0.4,0.4c0.2,0,0.4-0.2,0.4-0.4C47.5,42.2,47.3,42,47.1,42L47.1,42z M47.8,43.1c-0.2,0-0.4,0.2-0.4,0.4
				c0,0.2,0.2,0.4,0.4,0.4c0.2,0,0.4-0.2,0.4-0.4C48.2,43.3,48,43.1,47.8,43.1L47.8,43.1z M48.1,44.2c-0.2,0-0.4,0.2-0.4,0.4
				c0,0.2,0.2,0.4,0.4,0.4c0.2,0,0.4-0.2,0.4-0.4C48.6,44.4,48.4,44.2,48.1,44.2L48.1,44.2z M48.1,45.5c-0.2,0-0.4,0.2-0.4,0.4
				c0,0.2,0.2,0.4,0.4,0.4c0.2,0,0.4-0.2,0.4-0.4C48.6,45.7,48.4,45.5,48.1,45.5L48.1,45.5z M47.9,46.7c-0.2,0-0.4,0.2-0.4,0.4
				c0,0.2,0.2,0.4,0.4,0.4c0.2,0,0.4-0.2,0.4-0.4C48.3,46.9,48.1,46.7,47.9,46.7L47.9,46.7z M37.7,46.8c0.3,0,0.5-0.2,0.5-0.5
				c0-0.3-0.2-0.5-0.5-0.5c-0.3,0-0.5,0.2-0.5,0.5C37.2,46.5,37.4,46.8,37.7,46.8L37.7,46.8z M37.7,45.6c0.2,0,0.4-0.2,0.4-0.4
				c0-0.2-0.2-0.4-0.4-0.4c-0.2,0-0.4,0.2-0.4,0.4C37.3,45.4,37.4,45.6,37.7,45.6L37.7,45.6z M37.7,44.5c0.2,0,0.4-0.2,0.4-0.4
				c0-0.2-0.2-0.4-0.4-0.4c-0.2,0-0.4,0.2-0.4,0.4C37.3,44.3,37.5,44.5,37.7,44.5L37.7,44.5z M37.7,43.6c0.2,0,0.3-0.2,0.3-0.3
				c0-0.2-0.1-0.3-0.3-0.3c-0.2,0-0.3,0.1-0.3,0.3C37.3,43.4,37.5,43.6,37.7,43.6L37.7,43.6z M39.4,47.2c0,0-0.3-0.2-0.8-0.4
				c0,0-0.4-2-0.5-3.9l0.5-0.1C38.7,42.9,39,46.1,39.4,47.2L39.4,47.2z M39.3,45.6c0,0.2,0.1,0.5,0.2,0.8v-1.5
				C39.3,45.1,39.3,45.4,39.3,45.6L39.3,45.6z M39.6,46.8c0.1,0.2,0.2,0.4,0.4,0.5v-3c-0.2,0.1-0.3,0.3-0.4,0.5V46.8L39.6,46.8z
				 M40.2,47.3c0.1,0,0.1,0,0.2,0c0.1,0,0.2,0,0.2,0v-3.6c0,0,0,0,0,0c-0.1,0.1-0.2,0.2-0.4,0.3V47.3L40.2,47.3z M40.7,47.3
				c0.1,0,0.3,0,0.4-0.1v-3.8c-0.1,0.1-0.3,0.1-0.4,0.2V47.3L40.7,47.3z M41.3,47.2c0.1,0,0.3-0.1,0.4-0.1v-3.9
				c-0.1,0.1-0.3,0.1-0.4,0.2V47.2L41.3,47.2z M41.9,47.1c0.1,0,0.3-0.1,0.4-0.1v-4c-0.1,0-0.3,0.1-0.4,0.1V47.1L41.9,47.1z
				 M42.4,46.9c0.1,0,0.3-0.1,0.4-0.1v-4c-0.1,0-0.3,0.1-0.4,0.1V46.9L42.4,46.9z M43,46.8c0.1,0,0.2,0,0.2,0c0.1,0,0.1,0,0.2,0v-4
				c-0.1,0-0.3,0-0.4,0V46.8L43,46.8z M43.6,46.9c0.2,0,0.3,0.1,0.4,0.2v-4.2c-0.1,0-0.1,0-0.2,0c-0.1,0-0.1,0-0.2,0V46.9L43.6,46.9
				z M44.1,47.2c0.1,0.1,0.1,0.1,0.2,0.2c0.1,0.1,0.1,0.1,0.2,0.2v-4.7c-0.1,0-0.3,0-0.4-0.1V47.2L44.1,47.2z M44.7,47.7
				c0.1,0.1,0.3,0.2,0.4,0.2V43c-0.1,0-0.3-0.1-0.4-0.1V47.7L44.7,47.7z M45.3,47.9c0,0,0.1,0,0.1,0c0.1,0,0.2,0,0.3-0.1v-4.6
				c-0.1-0.1-0.3-0.2-0.4-0.2V47.9L45.3,47.9z M45.8,47.8c0.1-0.1,0.2-0.3,0.2-0.5c0.1-0.2,0.1-0.4,0.2-0.6v-2.8
				c-0.1-0.2-0.2-0.3-0.4-0.5V47.8L45.8,47.8z M46.4,45.9c0.1-0.3,0.1-0.6,0.1-0.8c0-0.2,0-0.5-0.1-0.8V45.9L46.4,45.9z M37.1,38.1
				c0,0,0-0.1,0-0.1l-0.6-0.4L35.8,38l0.7,0.5L37.1,38.1L37.1,38.1z M36.7,41.8c0.2,0,0.4,0.2,0.4,0.4c0,0.2-0.2,0.4-0.4,0.4
				c-0.2,0-0.4-0.2-0.4-0.4C36.2,42,36.4,41.8,36.7,41.8L36.7,41.8z M35.4,41.5c0.2,0,0.4,0.2,0.4,0.4c0,0.2-0.2,0.4-0.4,0.4
				c-0.2,0-0.4-0.2-0.4-0.4C35,41.7,35.2,41.5,35.4,41.5L35.4,41.5z M34.2,41.2c0.2,0,0.4,0.2,0.4,0.4c0,0.2-0.2,0.4-0.4,0.4
				c-0.2,0-0.4-0.2-0.4-0.4C33.7,41.4,33.9,41.2,34.2,41.2L34.2,41.2z M32.9,41c0.2,0,0.4,0.2,0.4,0.4c0,0.2-0.2,0.4-0.4,0.4
				c-0.2,0-0.4-0.2-0.4-0.4C32.5,41.2,32.7,41,32.9,41L32.9,41z M31.7,40.8c0.2,0,0.4,0.2,0.4,0.4s-0.2,0.4-0.4,0.4
				c-0.2,0-0.4-0.2-0.4-0.4S31.4,40.8,31.7,40.8L31.7,40.8z M30.4,40.9c0.2,0,0.4,0.2,0.4,0.4c0,0.2-0.2,0.4-0.4,0.4
				c-0.2,0-0.4-0.2-0.4-0.4C30,41.1,30.2,40.9,30.4,40.9L30.4,40.9z M29.2,41.3c0.2,0,0.4,0.2,0.4,0.4c0,0.2-0.2,0.4-0.4,0.4
				c-0.2,0-0.4-0.2-0.4-0.4C28.8,41.5,29,41.3,29.2,41.3L29.2,41.3z M28.3,42c0.2,0,0.4,0.2,0.4,0.4c0,0.2-0.2,0.4-0.4,0.4
				c-0.2,0-0.4-0.2-0.4-0.4C27.8,42.2,28,42,28.3,42L28.3,42z M27.6,43.1c0.2,0,0.4,0.2,0.4,0.4c0,0.2-0.2,0.4-0.4,0.4
				c-0.2,0-0.4-0.2-0.4-0.4C27.1,43.3,27.3,43.1,27.6,43.1L27.6,43.1z M27.2,44.2c0.2,0,0.4,0.2,0.4,0.4c0,0.2-0.2,0.4-0.4,0.4
				c-0.2,0-0.4-0.2-0.4-0.4C26.8,44.4,27,44.2,27.2,44.2L27.2,44.2z M27.2,45.5c0.2,0,0.4,0.2,0.4,0.4c0,0.2-0.2,0.4-0.4,0.4
				c-0.2,0-0.4-0.2-0.4-0.4C26.8,45.7,27,45.5,27.2,45.5L27.2,45.5z M27.5,46.7c0.2,0,0.4,0.2,0.4,0.4c0,0.2-0.2,0.4-0.4,0.4
				S27,47.4,27,47.1C27,46.9,27.2,46.7,27.5,46.7L27.5,46.7z M35.9,47.2c0,0,0.3-0.2,0.8-0.4c0,0,0.4-2,0.5-3.9l-0.5-0.1
				C36.6,42.9,36.4,46.1,35.9,47.2L35.9,47.2z M36.1,45.6c0,0.2-0.1,0.5-0.2,0.8v-1.5C36,45.1,36.1,45.4,36.1,45.6L36.1,45.6z
				 M35.8,46.8c-0.1,0.2-0.2,0.4-0.4,0.5v-3c0.2,0.1,0.3,0.3,0.4,0.5V46.8L35.8,46.8z M35.2,47.3c-0.1,0-0.1,0-0.2,0
				c-0.1,0-0.2,0-0.2,0v-3.6c0,0,0,0,0,0c0.1,0.1,0.2,0.2,0.4,0.3V47.3L35.2,47.3z M34.6,47.3c-0.1,0-0.3,0-0.4-0.1v-3.8
				c0.1,0.1,0.3,0.1,0.4,0.2V47.3L34.6,47.3z M34.1,47.2c-0.1,0-0.3-0.1-0.4-0.1v-3.9c0.1,0.1,0.3,0.1,0.4,0.2V47.2L34.1,47.2z
				 M33.5,47.1c-0.1,0-0.3-0.1-0.4-0.1v-4c0.1,0,0.3,0.1,0.4,0.1V47.1L33.5,47.1z M32.9,46.9c-0.1,0-0.3-0.1-0.4-0.1v-4
				c0.1,0,0.3,0.1,0.4,0.1V46.9L32.9,46.9z M32.4,46.8c-0.1,0-0.2,0-0.2,0c-0.1,0-0.1,0-0.2,0v-4c0.1,0,0.3,0,0.4,0V46.8L32.4,46.8z
				 M31.8,46.9c-0.2,0-0.3,0.1-0.4,0.2v-4.2c0.1,0,0.1,0,0.2,0c0.1,0,0.1,0,0.2,0V46.9L31.8,46.9z M31.2,47.2
				c-0.1,0.1-0.1,0.1-0.2,0.2c-0.1,0.1-0.1,0.1-0.2,0.2v-4.7c0.1,0,0.3,0,0.4-0.1V47.2L31.2,47.2z M30.7,47.7
				c-0.1,0.1-0.3,0.2-0.4,0.2V43c0.1,0,0.3-0.1,0.4-0.1V47.7L30.7,47.7z M30.1,47.9c0,0-0.1,0-0.1,0c-0.1,0-0.2,0-0.3-0.1v-4.6
				c0.1-0.1,0.3-0.2,0.4-0.2V47.9L30.1,47.9z M29.5,47.8c-0.1-0.1-0.2-0.3-0.2-0.5c-0.1-0.2-0.1-0.4-0.2-0.6v-2.8
				c0.1-0.2,0.2-0.3,0.4-0.5V47.8L29.5,47.8z M29,45.9c-0.1-0.3-0.1-0.6-0.1-0.8c0-0.2,0-0.5,0.1-0.8V45.9L29,45.9z M37.7,48.3
				C37.6,48.3,37.6,48.3,37.7,48.3c-0.1,0.2-0.1,1-0.5,1c-0.3,0-0.5-0.2-0.6-0.3c-0.1-0.1-0.2,0-0.1,0.1c0.1,0.2,0.4,0.6,0.6,0.9
				c0.2,0.3,0.3,0.5,0.4,0.9c0.1,0.5,0.1,0.7,0.1,0.8c0,0.1,0,0.1,0.1,0.1h0h0c0.1,0,0.1-0.1,0.1-0.1c0-0.1,0-0.4,0.1-0.8
				c0.1-0.5,0.2-0.6,0.4-0.9c0.2-0.3,0.5-0.8,0.6-0.9c0.1-0.2,0-0.2-0.1-0.1c-0.1,0.1-0.3,0.3-0.6,0.3
				C37.8,49.2,37.8,48.4,37.7,48.3C37.7,48.3,37.7,48.3,37.7,48.3L37.7,48.3z M45.4,50.5c0.1,0.3,0.1,0.6,0,1
				c-0.1,0.4-0.1,0.5-0.2,0.6c-0.1,0.1-0.1,0.3,0.1,0c0.2-0.3,0.4-0.6,0.9-1c0.5-0.4,0.6-0.4,0.7-0.6c0.2-0.1,0.1-0.2-0.1-0.1
				c-0.2,0.1-0.4,0.3-0.6,0.2c-0.1-0.1,0.1-0.6,0.3-0.8c0.1-0.2,0.1-0.3,0-0.2c-0.2,0.1-0.4,0.4-0.6,0.6c-0.2,0.2-0.3,0.2-0.4,0
				c-0.1-0.2-0.1-0.3-0.2-0.3C45.3,50,45.3,50.2,45.4,50.5L45.4,50.5z M41.9,49.6c0.1,0.3,0.1,0.6,0.1,1.1c0,0.5-0.1,0.9-0.1,1.1
				c0,0.1,0,0.1,0.1,0c0-0.1,0.3-1,1-1.7c0.7-0.7,0.1-0.3,0-0.2c-0.1,0.1-0.3,0.1-0.3-0.2c0-0.2,0.2-0.8,0.2-0.9s0-0.2-0.1,0
				c-0.1,0.2-0.3,0.6-0.4,0.8c-0.2,0.2-0.3,0.1-0.4-0.1C41.9,49.1,41.8,49.3,41.9,49.6L41.9,49.6z M37.9,47.4
				c-0.1,0-0.1,0.2-0.1,0.4c0,0.2,0,0.2,0.1,0.3C38,48.1,38.1,47.4,37.9,47.4L37.9,47.4z M38.3,47.4c-0.1,0-0.1,0.2-0.1,0.4
				c0,0.1,0,0.2,0.1,0.2c0.1,0,0.1-0.2,0.1-0.4C38.4,47.5,38.4,47.4,38.3,47.4L38.3,47.4z M38.8,47.6c-0.1,0-0.1,0.2-0.1,0.4
				c0,0.2,0,0.3,0.1,0.3c0.1,0,0.1,0,0.1-0.2C38.9,47.8,38.9,47.7,38.8,47.6L38.8,47.6z M39.3,48.2c-0.1,0-0.3,0.5-0.2,0.6
				C39.3,48.9,39.5,48.2,39.3,48.2L39.3,48.2z M39.6,48.7c-0.2,0-0.3,0.6-0.2,0.6C39.5,49.4,39.8,48.8,39.6,48.7L39.6,48.7z
				 M41.6,48.1c-0.1,0-0.3,0.6-0.2,0.6C41.5,48.7,41.8,48.1,41.6,48.1L41.6,48.1z M42.2,47.8c-0.1,0-0.3,0.7-0.2,0.7
				C42.1,48.5,42.4,47.8,42.2,47.8L42.2,47.8z M42.7,47.6c-0.1,0-0.3,0.5-0.2,0.6C42.6,48.4,42.9,47.7,42.7,47.6L42.7,47.6z
				 M43.1,47.7c-0.1,0.3-0.2,0.5-0.1,0.6c0.1,0.1,0.3-0.4,0.3-0.5C43.3,47.7,43.2,47.5,43.1,47.7L43.1,47.7z M43.5,47.9
				c-0.1,0.2-0.1,0.4-0.1,0.4c0.1,0.1,0.2-0.2,0.2-0.4C43.7,47.9,43.6,47.7,43.5,47.9L43.5,47.9z M43.8,48.2
				c-0.1,0.3-0.2,0.5-0.2,0.5c0.1,0,0.3-0.4,0.4-0.5C44.1,48.2,43.9,48.1,43.8,48.2L43.8,48.2z M44.2,48.6c-0.1,0.2-0.4,0.5-0.3,0.6
				c0,0.1,0.4-0.3,0.4-0.4C44.3,48.7,44.3,48.5,44.2,48.6L44.2,48.6z M44.4,49.2c0.1,0.1-0.2,0.5-0.4,0.5S44.3,49.1,44.4,49.2
				L44.4,49.2z M45.8,49c0.1,0.1,0,0.5-0.1,0.5C45.7,49.6,45.7,49,45.8,49L45.8,49z M46.3,48.8c0.1,0,0,0.1,0,0.3
				c-0.1,0.2-0.2,0.3-0.2,0.2C46.1,49.2,46.1,48.7,46.3,48.8L46.3,48.8z M47,48.8c-0.1,0.2-0.2,0.5-0.3,0.5c-0.1,0,0-0.2,0-0.4
				C46.7,48.7,47,48.5,47,48.8L47,48.8z M47.4,48.6c-0.1,0.1-0.1,0.2-0.2,0.3c-0.1,0.1,0,0.1,0.1,0.1c0.1-0.1,0.3-0.2,0.3-0.3
				C47.6,48.6,47.4,48.4,47.4,48.6L47.4,48.6z M48,48.8c-0.2,0.1-0.2,0.2-0.3,0.3c-0.1,0.1-0.2,0-0.1-0.1c0-0.1,0.2-0.2,0.4-0.3
				C48.1,48.6,48.1,48.8,48,48.8L48,48.8z M30,50.5c-0.1,0.3-0.1,0.6,0,1c0.1,0.4,0.1,0.5,0.2,0.6c0.1,0.1,0.1,0.3-0.1,0
				c-0.2-0.3-0.4-0.6-0.9-1c-0.5-0.4-0.6-0.4-0.7-0.6c-0.2-0.1-0.1-0.2,0.1-0.1s0.4,0.3,0.6,0.2c0.1-0.1-0.1-0.6-0.3-0.8
				c-0.1-0.2-0.1-0.3,0-0.2c0.2,0.1,0.4,0.4,0.6,0.6c0.2,0.2,0.3,0.2,0.4,0c0.1-0.2,0.1-0.3,0.2-0.3C30,50,30,50.2,30,50.5L30,50.5z
				 M33.4,49.6c-0.1,0.3-0.1,0.6-0.1,1.1c0,0.5,0.1,0.9,0.1,1.1c0,0.1,0,0.1-0.1,0c0-0.1-0.3-1-1-1.7c-0.7-0.7-0.1-0.3,0-0.2
				c0.1,0.1,0.3,0.1,0.3-0.2c0-0.2-0.2-0.8-0.2-0.9s0-0.2,0.1,0c0.1,0.2,0.3,0.6,0.4,0.8c0.2,0.2,0.3,0.1,0.4-0.1
				C33.5,49.1,33.5,49.3,33.4,49.6L33.4,49.6z M37.5,47.4c0.1,0,0.1,0.2,0.1,0.4c0,0.2,0,0.2-0.1,0.3C37.4,48.1,37.3,47.4,37.5,47.4
				L37.5,47.4z M37,47.4c0.1,0,0.1,0.2,0.1,0.4c0,0.1,0,0.2-0.1,0.2c-0.1,0-0.1-0.2-0.1-0.4C36.9,47.5,36.9,47.4,37,47.4L37,47.4z
				 M36.6,47.6c0.1,0,0.1,0.2,0.1,0.4c0,0.2,0,0.3-0.1,0.3c-0.1,0-0.1,0-0.1-0.2C36.5,47.8,36.4,47.7,36.6,47.6L36.6,47.6z M36,48.2
				c0.1,0,0.2,0.5,0.2,0.6C36.1,48.9,35.9,48.2,36,48.2L36,48.2z M35.8,48.7c0.2,0,0.3,0.6,0.2,0.6C35.8,49.4,35.6,48.8,35.8,48.7
				L35.8,48.7z M33.7,48.1c0.1,0,0.3,0.6,0.2,0.6C33.8,48.7,33.6,48.1,33.7,48.1L33.7,48.1z M33.2,47.8c0.1,0,0.3,0.7,0.2,0.7
				C33.3,48.5,33,47.8,33.2,47.8L33.2,47.8z M32.6,47.6c0.1,0,0.3,0.5,0.2,0.6C32.8,48.4,32.5,47.7,32.6,47.6L32.6,47.6z M32.3,47.7
				c0.1,0.3,0.2,0.5,0.1,0.6c-0.1,0.1-0.3-0.4-0.3-0.5C32.1,47.7,32.2,47.5,32.3,47.7L32.3,47.7z M31.9,47.9
				c0.1,0.2,0.1,0.4,0.1,0.4c-0.1,0.1-0.2-0.2-0.2-0.4C31.7,47.9,31.8,47.7,31.9,47.9L31.9,47.9z M31.5,48.2
				c0.1,0.3,0.2,0.5,0.2,0.5c-0.1,0-0.3-0.4-0.4-0.5C31.3,48.2,31.4,48.1,31.5,48.2L31.5,48.2z M31.2,48.6c0.1,0.2,0.4,0.5,0.3,0.6
				c0,0.1-0.4-0.3-0.4-0.4C31.1,48.7,31.1,48.5,31.2,48.6L31.2,48.6z M30.9,49.2c-0.1,0.1,0.2,0.5,0.4,0.5
				C31.6,49.8,31.1,49.1,30.9,49.2L30.9,49.2z M29.5,49c-0.1,0.1,0,0.5,0.1,0.5C29.7,49.6,29.7,49,29.5,49L29.5,49z M29,48.8
				c-0.1,0,0,0.1,0,0.3c0.1,0.2,0.2,0.3,0.2,0.2C29.2,49.2,29.2,48.7,29,48.8L29,48.8z M28.4,48.8c0.1,0.2,0.2,0.5,0.3,0.5
				c0.1,0,0-0.2,0-0.4C28.6,48.7,28.3,48.5,28.4,48.8L28.4,48.8z M28,48.6c0.1,0.1,0.1,0.2,0.2,0.3c0.1,0.1,0,0.1-0.1,0.1
				c-0.1-0.1-0.3-0.2-0.3-0.3C27.8,48.6,27.9,48.4,28,48.6L28,48.6z M27.4,48.8c0.2,0.1,0.2,0.2,0.3,0.3c0.1,0.1,0.2,0,0.1-0.1
				c0-0.1-0.2-0.2-0.4-0.3C27.3,48.6,27.3,48.8,27.4,48.8L27.4,48.8z"/>
		</g>
	</g>
	<path opacity="0.25" fill="#FFFFFF" d="M13,29.7v25.5C26.2,62.6,43.7,67,63,67c19.3,0,36.8-4.5,50-11.8V29.7H13z"/>
</g>
</svg>
