<?xml version="1.0" encoding="utf-8"?>
<!-- Generator: Adobe Illustrator 24.3.0, SVG Export Plug-In . SVG Version: 6.00 Build 0)  -->
<svg version="1.1" id="Layer_1" xmlns="http://www.w3.org/2000/svg" xmlns:xlink="http://www.w3.org/1999/xlink" x="0px" y="0px"
	 viewBox="0 0 126 126" enable-background="new 0 0 126 126" xml:space="preserve">
<g>
	<g>
		<polygon fill="#00785E" points="13,29.7 113,29.7 113,96.3 13,96.3 13,29.7 		"/>
		<path fill-rule="evenodd" clip-rule="evenodd" fill="#F4F4F4" d="M63,51c0,0,3.9,3.7,3.9,8.1c0,4.4-1.9,6.7-1.9,6.7
			s4.2-4.6,1.3-11.7c0,0,0.7-0.6,1-1.8c0,0,3.7,5.9-0.7,12.2c0,0,3.6-4.4,10.2-4.1c0,0-0.5,0.4-0.9,1.2c0,0-5-0.4-9.5,4.1
			c0,0,5.8-5.3,13.6-2.1c0,0-2.5,7.7-11.5,7.2c0,0,5.2,1.2,9.8-3c0,0,0.6,0.3,1.3,0.3c0,0-8,8.5-16.6,0.3
			c-8.5,8.2-16.6-0.3-16.6-0.3c0.7,0,1.3-0.3,1.3-0.3c4.6,4.2,9.8,3,9.8,3c-8.9,0.5-11.5-7.2-11.5-7.2c7.8-3.3,13.6,2.1,13.6,2.1
			c-4.5-4.4-9.5-4.1-9.5-4.1c-0.5-0.8-0.9-1.2-0.9-1.2c6.6-0.3,10.2,4.1,10.2,4.1c-4.5-6.3-0.7-12.2-0.7-12.2c0.4,1.2,1,1.8,1,1.8
			C56.8,61.2,61,65.8,61,65.8s-1.9-2.3-1.9-6.7C59.1,54.7,63,51,63,51L63,51z M63,80.3h-7.4c0,0,3.2,1.4,7.4,1.4
			c4.2,0,7.4-1.4,7.4-1.4H63L63,80.3z M63,78.6H52.3c0,0,1.2,0.8,2,1.1H63h8.6c0.8-0.4,2-1.1,2-1.1H63L63,78.6z M63,76.9H50
			c0,0,0.9,0.7,1.1,0.9c0.2,0.1,11.9,0,11.9,0s11.8,0.1,11.9,0c0.2-0.1,1.1-0.9,1.1-0.9H63L63,76.9z M63,75.2H48.2l0.5,0.6H63h14.2
			l0.5-0.6H63L63,75.2z M46.5,72.9c0,0,5.6,0.1,7.4,0.1c1.7,0,6.6-0.4,9.2-3.2c2.6,2.9,7.5,3.2,9.2,3.2c1.7,0,7.4-0.1,7.4-0.1
			l-0.8,1.2l-6.5,0.1c-6.7,0-9.2-2.8-9.2-2.8s-2.5,2.8-9.2,2.8l-6.5-0.1L46.5,72.9L46.5,72.9z"/>
		<path fill-rule="evenodd" clip-rule="evenodd" fill="#FFDF00" d="M63,42.4l0.8,2.5l2.6,0l-2.1,1.5l0.8,2.4L63,47.3l-2.1,1.5
			l0.8-2.4l-2.1-1.5l2.6,0L63,42.4L63,42.4z M79.6,53.9l-1.9,0.2L77,52.5l-0.4,1.9l-1.9,0.2l1.7,0.9L76,57.3l1.4-1.3l1.7,0.9
			l-0.8-1.7L79.6,53.9L79.6,53.9z M46.3,53.9l1.9,0.2l0.8-1.7l0.4,1.9l1.9,0.2l-1.7,0.9l0.4,1.9L48.6,56L46.9,57l0.8-1.7L46.3,53.9
			L46.3,53.9z M73.5,46.6L72,47.8l-1.6-1.1l0.6,1.8l-1.5,1.1l1.9,0l0.6,1.8l0.6-1.8l1.9,0L73,48.4L73.5,46.6L73.5,46.6z M52.5,46.6
			l1.5,1.1l1.6-1.1l-0.6,1.8l1.5,1.1l-1.9,0l-0.6,1.8l-0.6-1.8l-1.9,0l1.6-1.1L52.5,46.6L52.5,46.6z"/>
	</g>
	<path opacity="0.2" fill="#FFFFFF" d="M13,29.7v25.5C26.2,62.6,43.7,67,63,67c19.3,0,36.8-4.5,50-11.8V29.7H13z"/>
</g>
</svg>
