<?xml version="1.0" encoding="utf-8"?>
<!-- Generator: Adobe Illustrator 24.3.0, SVG Export Plug-In . SVG Version: 6.00 Build 0)  -->
<svg version="1.1" id="Layer_1" xmlns="http://www.w3.org/2000/svg" xmlns:xlink="http://www.w3.org/1999/xlink" x="0px" y="0px"
	 viewBox="0 0 126 126" enable-background="new 0 0 126 126" xml:space="preserve">
<g>
	<g>
		<g>
			<polygon fill-rule="evenodd" clip-rule="evenodd" fill="#47B71D" points="13,96.3 113,96.3 113,74.1 13,74.1 13,96.3 			"/>
			<polygon fill-rule="evenodd" clip-rule="evenodd" points="13,51.9 113,51.9 113,29.7 13,29.7 13,51.9 			"/>
			<polygon fill-rule="evenodd" clip-rule="evenodd" fill="#FF1612" points="13,74.1 113,74.1 113,51.9 13,51.9 13,74.1 			"/>
			<path fill-rule="evenodd" clip-rule="evenodd" fill="#FF1612" d="M62.9,41.1c5.8,0,10.7,3.7,12.6,8.8H50.3
				C52.2,44.7,57.1,41.1,62.9,41.1L62.9,41.1z M48.3,50.4c-0.6-0.3-5.5-2.9-5.8-1.6C42.1,50.1,47.6,50.4,48.3,50.4L48.3,50.4z
				 M48.7,49.2c-0.6-0.4-5.2-3.4-5.7-2.1C42.6,48.3,48,49.1,48.7,49.2L48.7,49.2z M49.2,47.9c-0.5-0.4-4.9-3.8-5.5-2.6
				C43.2,46.5,48.6,47.8,49.2,47.9L49.2,47.9z M49.9,46.7c-0.5-0.5-4.5-4.2-5.2-3.1C44,44.8,49.2,46.5,49.9,46.7L49.9,46.7z
				 M50.6,45.6c-0.5-0.5-4.2-4.6-4.9-3.5C44.9,43.2,49.9,45.4,50.6,45.6L50.6,45.6z M51.4,44.6c-0.4-0.5-3.7-4.9-4.6-3.9
				C45.9,41.7,50.8,44.3,51.4,44.6L51.4,44.6z M52.3,43.6C51.9,43,49,38.4,48,39.3C47.1,40.3,51.7,43.2,52.3,43.6L52.3,43.6z
				 M53.3,42.7c-0.3-0.6-2.8-5.5-3.9-4.7C48.4,39,52.7,42.3,53.3,42.7L53.3,42.7z M54.3,41.9c-0.3-0.6-2.4-5.7-3.5-5
				C49.7,37.8,53.8,41.5,54.3,41.9L54.3,41.9z M55.4,41.2c-0.2-0.7-1.9-5.9-3-5.3C51.3,36.6,55,40.7,55.4,41.2L55.4,41.2z
				 M56.6,40.6c-0.1-0.7-1.3-6-2.6-5.5C52.8,35.7,56.2,40.1,56.6,40.6L56.6,40.6z M57.8,40.1c-0.1-0.7-0.8-6.1-2.1-5.7
				C54.5,34.9,57.5,39.5,57.8,40.1L57.8,40.1z M59.1,39.7c0-0.7-0.3-6.2-1.6-5.9C56.3,34.2,58.8,39.1,59.1,39.7L59.1,39.7z
				 M60.4,39.4c0-0.7,0.2-6.2-1.1-6C58,33.7,60.1,38.8,60.4,39.4L60.4,39.4z M61.7,39.2c0.1-0.7,0.8-6.1-0.6-6
				C59.8,33.3,61.5,38.6,61.7,39.2L61.7,39.2z M77.7,50.4c0.6-0.3,5.5-2.9,5.8-1.6C83.9,50.1,78.4,50.4,77.7,50.4L77.7,50.4z
				 M77.3,49.2c0.6-0.4,5.2-3.4,5.7-2.1C83.4,48.3,78,49.1,77.3,49.2L77.3,49.2z M76.8,47.9c0.5-0.4,4.9-3.8,5.5-2.6
				C82.8,46.5,77.4,47.8,76.8,47.9L76.8,47.9z M76.2,46.7c0.5-0.5,4.5-4.2,5.2-3.1C82,44.8,76.8,46.5,76.2,46.7L76.2,46.7z
				 M75.4,45.6c0.5-0.5,4.2-4.6,5-3.5C81.1,43.2,76.1,45.4,75.4,45.6L75.4,45.6z M74.6,44.6c0.4-0.5,3.7-4.9,4.6-3.9
				C80.1,41.7,75.2,44.3,74.6,44.6L74.6,44.6z M73.7,43.6c0.4-0.6,3.3-5.2,4.3-4.3C78.9,40.3,74.3,43.2,73.7,43.6L73.7,43.6z
				 M72.7,42.7c0.3-0.6,2.8-5.5,3.9-4.7C77.6,39,73.3,42.3,72.7,42.7L72.7,42.7z M71.7,41.9c0.3-0.6,2.4-5.7,3.5-5
				C76.3,37.8,72.2,41.5,71.7,41.9L71.7,41.9z M70.6,41.2c0.2-0.7,1.9-5.9,3-5.3C74.7,36.6,71,40.7,70.6,41.2L70.6,41.2z M69.4,40.6
				c0.1-0.7,1.3-6,2.6-5.5C73.2,35.7,69.8,40.1,69.4,40.6L69.4,40.6z M68.2,40.1c0.1-0.7,0.8-6.1,2.1-5.7
				C71.5,34.9,68.5,39.5,68.2,40.1L68.2,40.1z M66.9,39.7c0-0.7,0.3-6.2,1.6-5.9C69.7,34.2,67.2,39.1,66.9,39.7L66.9,39.7z
				 M65.6,39.4c0-0.7-0.2-6.2,1.1-6C68,33.7,65.9,38.8,65.6,39.4L65.6,39.4z M64.3,39.2c-0.1-0.7-0.8-6.1,0.6-6
				C66.2,33.3,64.6,38.6,64.3,39.2L64.3,39.2z M62.9,39.2c-0.2-0.7-1.3-6,0-6.1C64.2,33.1,63.1,38.5,62.9,39.2L62.9,39.2z"/>
		</g>
	</g>
	<path opacity="0.25" fill="#FFFFFF" d="M13,29.7v25.5C26.2,62.6,43.7,67,63,67c19.3,0,36.8-4.5,50-11.8V29.7H13z"/>
</g>
</svg>
