<?xml version="1.0" encoding="utf-8"?>
<!-- Generator: Adobe Illustrator 24.3.0, SVG Export Plug-In . SVG Version: 6.00 Build 0)  -->
<svg version="1.1" id="Layer_1" xmlns="http://www.w3.org/2000/svg" xmlns:xlink="http://www.w3.org/1999/xlink" x="0px" y="0px"
	 viewBox="0 0 126 126" enable-background="new 0 0 126 126" xml:space="preserve">
<g>
	<g>
		<path fill-rule="evenodd" clip-rule="evenodd" fill="#FF1612" d="M113,91.6v-4.8H13v4.8H113L113,91.6z M113,82v-4.8H13V82H113
			L113,82z M113,72.5v-4.8H63H13v4.8H113L113,72.5z M113,63v-4.8H63V63H113L113,63z M113,53.5v-4.8H63v4.8H113L113,53.5z M113,44
			v-4.8H63V44H113L113,44z M113,34.4v-4.8H63v4.8H113L113,34.4z"/>
		<path fill-rule="evenodd" clip-rule="evenodd" fill="#F4F4F4" d="M63,39.2h50v-4.8H63V39.2L63,39.2z M13,96.3h100v-4.8H13V96.3
			L13,96.3z M13,86.8h100V82H13V86.8L13,86.8z M13,77.3h100v-4.8H13V77.3L13,77.3z M63,67.8h50V63H63V67.8L63,67.8z M63,58.2h50
			v-4.8H63V58.2L63,58.2z M63,48.7h50V44H63V48.7L63,48.7z"/>
		<polygon fill-rule="evenodd" clip-rule="evenodd" fill="#0437A0" points="13,67.8 63,67.8 63,29.7 13,29.7 13,67.8 		"/>
		<path fill-rule="evenodd" clip-rule="evenodd" fill="#FFDE27" d="M39.9,39.7c-6-2.9-13.1,1.5-13.1,8.3c0,6.8,7.1,11.2,13.1,8.3
			C33.1,61.8,22.7,57,22.7,48C22.7,39,33.1,34.3,39.9,39.7L39.9,39.7z M44.7,51.4l3.1,4.4l-1.6-5.1l4.7,2.7l-3.7-3.9l5.4,0.4
			L47.4,48l5.1-1.9l-5.4,0.4l3.7-3.9l-4.7,2.7l1.6-5.1l-3.1,4.4l-0.8-5.3l-0.8,5.3L40,40.2l1.6,5.1L37,42.6l3.7,3.9l-5.4-0.4
			l5.1,1.9l-5.1,1.9l5.4-0.4L37,53.4l4.7-2.7L40,55.8l3.1-4.4l0.8,5.3L44.7,51.4L44.7,51.4z"/>
	</g>
	<path opacity="0.2" fill="#FFFFFF" d="M13,29.7v25.5C26.2,62.6,43.7,67,63,67c19.3,0,36.8-4.5,50-11.8V29.7H13z"/>
</g>
</svg>
