<?xml version="1.0" encoding="utf-8"?>
<!-- Generator: Adobe Illustrator 24.3.0, SVG Export Plug-In . SVG Version: 6.00 Build 0)  -->
<svg version="1.1" id="Layer_1" xmlns="http://www.w3.org/2000/svg" xmlns:xlink="http://www.w3.org/1999/xlink" x="0px" y="0px"
	 viewBox="0 0 126 126" enable-background="new 0 0 126 126" xml:space="preserve">
<g>
	<g>
		<polygon fill="#FF1612" points="63,29.7 113,29.7 113,96.3 63,96.3 63,29.7 		"/>
		<polygon fill="#F0F0F0" points="13,29.7 63,29.7 63,96.3 13,96.3 13,29.7 		"/>
		<g>
			
				<path fill-rule="evenodd" clip-rule="evenodd" fill="#CCCCCC" stroke="#FF0000" stroke-width="0.8957" stroke-miterlimit="2.4142" d="
				M24.5,33.6H29v5.5c0.8,0.2,1.5,0.9,1.7,1.7h5.5v4.5h-5.5c-0.2,0.8-0.9,1.5-1.7,1.7v5.4h-4.5V47c-0.8-0.2-1.5-0.9-1.7-1.7h-5.5
				v-4.5h5.5c0.2-0.8,0.9-1.5,1.7-1.7V33.6L24.5,33.6z"/>
			
				<path fill-rule="evenodd" clip-rule="evenodd" fill="#CCCCCC" stroke="#96877D" stroke-width="0.1567" stroke-miterlimit="2.4142" d="
				M24.5,33.6H29v5.5c0.8,0.2,1.5,0.9,1.7,1.7h5.5v4.5h-5.5c-0.2,0.8-0.9,1.5-1.7,1.7v5.4h-4.5V47c-0.8-0.2-1.5-0.9-1.7-1.7h-5.5
				v-4.5h5.5c0.2-0.8,0.9-1.5,1.7-1.7V33.6L24.5,33.6z"/>
			<g>
				
					<path fill-rule="evenodd" clip-rule="evenodd" fill="#96877D" stroke="#000000" stroke-width="1.679600e-02" stroke-miterlimit="2.4142" d="
					M25.3,45.2h3.1l0.2-0.2l-0.4-0.2c0,0,0,0,0.1,0c0,0,0.1,0,0.1-0.1c0,0,0.3,0.3,0.6,0l-0.1-0.1c0,0,0,0.3-0.2,0.1
					c0,0,0.2-0.1,0.3-0.3c0.1-0.1,0.1-0.2,0.2-0.2c0.1,0,0,0,0-0.1c0,0-0.1-0.1-0.1-0.1c0,0-0.1,0-0.1,0c0,0,0,0.1,0,0.2
					c0,0.1,0,0.1-0.1,0.1c0,0-0.2,0.1-0.2,0.1s0-0.1-0.1-0.2c-0.1-0.1-0.2-0.2-0.1-0.3c0,0,0.2,0.1,0.2,0.1c0.1,0,0.2,0,0.2-0.1
					c0.1-0.1,0.1-0.1,0.1-0.1l0.2,0.1l0-0.1l0.1,0l-0.1-0.1l0.1,0H29c0,0,0-0.1-0.1-0.1c0,0-0.1-0.2-0.1-0.2c0,0-0.1,0-0.1,0
					s-0.1-0.2-0.1-0.2c0,0-0.1,0.1-0.1,0.2s0,0.2,0.2,0.2c0,0-0.1,0-0.3-0.1c0,0,0,0.1,0.1,0.1c0,0,0,0.1,0.1,0.1c0.1,0,0.1,0,0.1,0
					c0,0,0,0.1,0.1,0.1c0,0,0,0.1,0,0.1c0,0-0.1,0-0.1,0c-0.1,0-0.2-0.2-0.3-0.1c-0.1,0.1-0.1,0.1-0.1,0.2c0,0.1,0.1,0.2,0.1,0.2
					s-0.1,0-0.1,0.1c0,0-0.1-0.1-0.1-0.1c0,0,0-0.5,0.3-0.8c0,0-0.2,0-0.5,0.3c0,0-0.3-0.2-0.3-0.2c-0.1-0.1-0.1-0.2-0.1-0.2
					s0.3,0,0.5-0.1c0.2,0,0.3-0.1,0.3-0.1c0.1,0,0.1,0,0.1,0c0,0,0.2,0,0.2,0s0.2,0.1,0.2,0.2c0,0.1,0.1,0.2,0.1,0.1
					c0,0,0,0.2,0.3,0.2c0,0-0.1-0.3-0.3-0.4c-0.2-0.1-0.3-0.3-0.4-0.3c-0.1,0-0.4,0-0.4,0s0.3-0.2,0.3-0.5c0,0,0.2,0,0.3,0
					c0.1,0,0.3,0.1,0.3,0.1c0.1,0,0.1,0.2,0.3,0.1c0,0-0.2-0.2-0.3-0.3c-0.1-0.1-0.4-0.1-0.5-0.2c-0.1,0-0.1,0-0.2,0.1
					c-0.1,0.1-0.2,0.2-0.3,0.2c0,0-0.2-0.2-0.2-0.2c0,0,0-0.2-0.2-0.4c0,0,0.2-0.1,0.3-0.3c0,0,0.1,0,0.1,0c0,0,0.1,0,0.1-0.1
					c0-0.1-0.1-0.1-0.1-0.2c-0.1,0-0.3-0.1-0.3-0.1c-0.1,0-0.2,0-0.2,0s0-0.1,0-0.2c0,0-0.1,0-0.2,0.1c0,0-0.1,0-0.1,0
					c0,0,0-0.3-0.3-0.4c-0.3-0.1-0.4,0.1-0.5,0.3c0,0-0.1,0-0.1,0c0,0-0.1,0-0.1,0c-0.1,0-0.2,0-0.2,0.1c0,0-0.2,0-0.2,0.1
					c0,0,0.2,0,0.3,0.1c0,0-0.2,0-0.4-0.1c-0.1,0-0.2-0.1-0.3-0.1c-0.1,0.1-0.1,0.1-0.1,0.1c0,0-0.2,0-0.2,0.2c0,0-0.4,0-0.3,0.4
					c0,0-0.2,0-0.2,0.2c0,0.2,0,0.1,0,0.2c0,0.1,0,0.2,0.2,0.2c0,0,0,0.1,0,0.1c0,0,0.2,0.2,0.4,0.1c0.2-0.1,0.4-0.3,0.4-0.3
					s0,0.1,0,0.2c0,0,0,0,0,0s-0.1,0-0.1,0c0,0,0,0.1,0,0.1c0,0,0,0.1,0.1,0.1c0.1,0,0.2,0.1,0.2,0.1l0.3,0.3c0,0-0.3,0.2-0.3,0.4
					c0,0-0.1,0-0.3-0.1c-0.2-0.1-0.3-0.1-0.4,0c-0.1,0.1-0.1,0.4,0,0.5c0.1,0.1,0.1,0.1,0,0.2c-0.1,0.1-0.3,0.1-0.1,0.3
					c0,0,0,0.2,0.1,0.2c0,0,0,0.1,0.1,0.1c0,0,0-0.2,0.1-0.2c0.1,0,0.1-0.1,0.1-0.2c0,0,0,0,0-0.1c0-0.1-0.1-0.1,0-0.1
					c0,0,0.2-0.2,0.1-0.3c-0.1-0.1-0.2-0.3-0.2-0.3c0-0.1,0.2,0.1,0.3,0.1c0.1,0,0.2,0,0.2,0c0,0,0.2,0.4,0.7,0.5c0,0,0,0.2,0,0.3
					c-0.1,0.1,0,0.2,0.1,0.2c0.1,0,0.3,0.1,0.4,0.1c0,0-0.1,0.1-0.1,0.1c0,0-0.1,0-0.2,0c0,0-0.1,0-0.2,0c0,0-0.1,0.1-0.2,0.1
					c-0.1,0-0.2,0-0.3,0c-0.1,0-0.6,0-0.6,0l0.8,0.1l-0.7,0L25.3,45.2L25.3,45.2z M25.9,41.8c0,0.1,0,0.3,0.1,0.4c0,0,0,0.4,0.2,0.5
					c0,0-0.3,0-0.4,0.1l-0.4-0.3c0,0,0,0,0-0.1c-0.1-0.1-0.1-0.2,0-0.2c0.1-0.1,0.2-0.2,0.2-0.2S25.8,41.9,25.9,41.8L25.9,41.8z
					 M27.2,43.3c0,0-0.2,0.2-0.5,0.2c0,0,0.1,0.3,0,0.4c0,0,0,0.1,0,0.1c0,0,0.2,0,0.3,0c0.1,0,0.1,0,0.2,0c0.1,0,0.3,0.2,0.3,0.2
					c0,0,0.1,0,0.1,0c0,0,0.1,0,0.1,0c0,0,0.1,0,0.1,0c0,0-0.1-0.1-0.1-0.1c0,0-0.1,0-0.1,0s-0.1,0-0.1,0c0,0,0,0,0-0.1
					c0,0-0.1,0-0.1,0c0,0,0,0,0-0.1c0,0-0.1-0.1-0.2-0.1c0,0,0-0.2-0.3-0.2c0,0,0.3-0.2,0.8,0.1c0,0,0-0.1,0.1-0.1
					c0,0-0.1,0-0.1-0.1c0,0-0.1,0-0.2,0c0-0.1,0,0-0.1-0.1S27.2,43.3,27.2,43.3L27.2,43.3z M26.5,43.8c0,0,0.1,0.2,0.1,0.2
					c0,0.1,0,0.1,0.1,0.2c0.1,0,0.1,0,0.1,0s0.2,0,0.3,0c0.1,0,0.1-0.1,0.2,0c0,0,0.1,0,0.1,0c0,0,0.1,0,0.1,0c0,0,0.1,0.1,0.1,0.1
					s-0.3,0-0.3,0.1c-0.1,0-0.1,0-0.1,0c0,0-0.1-0.1-0.2-0.1c-0.1,0-0.3,0.2-0.3,0.2s-0.2-0.1-0.2-0.1c0-0.1-0.1-0.1-0.1-0.1
					S26.4,44.1,26.5,43.8L26.5,43.8z M26.4,41c0,0-0.1,0-0.2,0.1c0,0,0,0,0.1,0c0.1,0,0.1,0,0.1,0l0.1-0.1
					C26.4,41.1,26.4,41.1,26.4,41L26.4,41z M26.8,41.4c0,0-0.1,0-0.1,0C26.7,41.4,26.6,41.3,26.8,41.4c0-0.1,0-0.1,0-0.2
					c0,0,0.1,0,0.1,0S26.9,41.3,26.8,41.4C26.8,41.4,26.8,41.4,26.8,41.4L26.8,41.4z M27.6,41.6c0,0-0.1-0.1-0.1-0.1
					c0,0,0.2,0,0.3-0.1C27.8,41.4,27.7,41.5,27.6,41.6L27.6,41.6z"/>
				<path d="M26.4,40.8C26.4,40.8,26.4,40.8,26.4,40.8c0.1,0,0.1,0.1,0.1,0.1c0,0,0.1-0.2,0.3-0.1C27,40.8,27,40.9,27,41l0,0
					c0,0,0,0,0,0c0,0,0,0,0,0.1c0,0,0,0,0,0c0,0,0,0.1,0,0.1h0c0,0,0-0.1,0-0.1c0,0,0,0,0-0.1c0,0,0,0,0-0.1c0,0,0,0,0,0l0,0
					c0,0,0-0.2-0.2-0.2c-0.2-0.1-0.3,0.1-0.3,0.1v0h0C26.5,40.8,26.4,40.8,26.4,40.8C26.4,40.8,26.4,40.8,26.4,40.8L26.4,40.8
					L26.4,40.8z"/>
				<path d="M26.3,41C26.4,41,26.4,41,26.3,41c0.1-0.1,0.1-0.1,0.1-0.1c0,0,0.1,0,0.1,0c0.1,0,0.1,0,0.1,0l0,0c0,0,0.1,0,0.1,0
					c0,0,0.1,0,0.1,0v0c0,0-0.1,0-0.1,0c-0.1,0-0.1,0-0.1,0l0,0c0,0-0.1,0-0.1,0c-0.1,0-0.1,0-0.1,0C26.5,40.9,26.4,40.9,26.3,41
					C26.4,41,26.4,41,26.3,41L26.3,41L26.3,41z"/>
				<path d="M26.4,41.1C26.5,41.1,26.5,41.1,26.4,41.1C26.5,41.1,26.5,41,26.4,41.1c0-0.1,0-0.2,0-0.2l0,0c0,0,0,0.1,0,0.1
					C26.5,41,26.5,41.1,26.4,41.1C26.5,41.1,26.5,41.1,26.4,41.1L26.4,41.1L26.4,41.1z"/>
				<path d="M26.9,41.3C26.9,41.2,26.9,41.2,26.9,41.3c0.1-0.1,0.1-0.1,0.1-0.2c0,0,0-0.1,0.1-0.1c0,0,0.1-0.1,0.1-0.1l0,0
					c0,0,0,0.1-0.1,0.1c0,0,0,0.1-0.1,0.1C27,41.1,27,41.2,26.9,41.3C26.9,41.2,26.9,41.3,26.9,41.3L26.9,41.3L26.9,41.3z"/>
				<path d="M27.3,40.9c0,0,0,0.1-0.1,0.2c0,0.1-0.1,0.1-0.1,0.2c-0.1,0.1-0.1,0.1-0.2,0.2c0,0.1,0,0.1,0,0.2c0,0.1,0,0.2,0,0.2
					c0,0.1,0,0.1,0,0.2c0,0.1-0.1,0.2-0.1,0.2l0,0c0,0,0.1-0.1,0.1-0.2c0-0.1,0-0.1,0-0.2c0-0.1,0-0.1,0-0.2c0-0.1,0-0.2,0-0.2
					c0-0.1,0.1-0.2,0.2-0.2c0-0.1,0.1-0.1,0.1-0.2C27.2,41,27.3,40.9,27.3,40.9L27.3,40.9L27.3,40.9z"/>
				<path d="M27.8,41.4C27.8,41.4,27.8,41.4,27.8,41.4C27.8,41.3,27.8,41.3,27.8,41.4c0.1-0.1,0.1-0.1,0.1-0.1c0,0,0,0,0,0
					c0,0,0,0,0,0c0,0,0,0,0,0c0,0-0.1,0.1-0.1,0.1l0,0c0,0,0-0.1,0-0.1c0,0,0,0,0,0s0,0,0,0c0,0,0,0,0,0c0,0,0,0,0,0
					C27.8,41.3,27.8,41.3,27.8,41.4C27.8,41.4,27.8,41.4,27.8,41.4L27.8,41.4L27.8,41.4z"/>
				<path d="M27.6,41.6c0,0-0.2,0.2-0.3,0.2C27.1,41.9,27,42,27,42c-0.1,0-0.1,0-0.2-0.1c0-0.1,0-0.3,0-0.3c0,0,0-0.1,0-0.1l0,0
					c0,0,0,0,0,0.1c0,0.1,0,0.2,0,0.3c0,0.1,0.1,0.2,0.1,0.1c0.1,0,0.2-0.1,0.3-0.1C27.4,41.7,27.5,41.6,27.6,41.6L27.6,41.6
					L27.6,41.6z"/>
				<path d="M27.6,41.7c0,0-0.2,0.2-0.4,0.3C27.2,42,27,42,27,42c-0.1,0-0.2-0.1-0.2-0.2c0,0,0-0.1,0-0.1c0,0,0,0,0,0c0,0,0,0,0,0
					l0,0c0,0,0-0.1-0.1-0.1c-0.1,0-0.2-0.1-0.2-0.1l0,0l0,0c0,0,0.1,0,0.1,0l0,0c0,0,0.1,0.1,0.2,0.1l0,0c0,0-0.1-0.1-0.2-0.1h0
					c0,0-0.1,0-0.1,0c0,0,0.1,0.1,0.1,0.1c0.1,0,0.1,0.1,0.1,0.1l0,0c0,0,0,0,0,0c0,0,0,0,0,0c0,0,0,0.1,0,0.1
					c0,0.1,0.1,0.2,0.2,0.2c0.1,0,0.2-0.1,0.3-0.1C27.4,41.8,27.6,41.7,27.6,41.7L27.6,41.7L27.6,41.7z"/>
				<path d="M26.9,42c0,0,0,0.1,0,0.2l0,0l0,0c0,0,0,0,0,0.1c0,0,0,0,0,0.1c0,0.1,0,0.1,0,0.1l0,0c0,0,0,0,0-0.1c0,0,0,0,0-0.1
					c0,0,0,0,0-0.1l0,0l0,0C26.8,42.1,26.8,42.1,26.9,42L26.9,42L26.9,42z"/>
				<path d="M27.5,43.1c0,0,0-0.1-0.1-0.2c0-0.1,0-0.1-0.1-0.2c0,0,0-0.1,0-0.1c0-0.1,0-0.1-0.1-0.1c0,0-0.1-0.1-0.2-0.1
					c-0.1,0-0.1-0.1-0.2-0.1c-0.1,0-0.1,0-0.1-0.2v0h0l0,0c0,0.1,0,0.1,0.1,0.1c0.1,0,0.1,0,0.2,0.1c0.1,0,0.1,0.1,0.2,0.1
					c0.1,0.1,0.1,0.1,0.1,0.1c0,0,0,0,0,0.1c0,0,0,0.1,0.1,0.2C27.4,43,27.5,43.1,27.5,43.1L27.5,43.1L27.5,43.1z"/>
				<path d="M26.8,42.3C26.8,42.3,26.8,42.3,26.8,42.3C26.8,42.3,26.8,42.3,26.8,42.3L26.8,42.3c-0.1-0.1-0.1-0.1-0.1-0.1
					c-0.1-0.1-0.2-0.2-0.3-0.2l0,0l0,0c-0.1-0.1-0.1-0.1-0.1-0.2c0-0.1,0-0.1,0-0.2c0,0,0-0.1-0.1-0.1c0,0-0.1-0.1-0.1-0.1
					c0,0-0.1-0.1-0.1-0.1c0,0,0,0,0,0c0,0,0,0,0-0.1h0c0,0,0,0,0,0.1c0,0,0,0,0,0c0,0,0,0.1,0.1,0.1c0,0,0.1,0.1,0.1,0.1
					c0,0,0,0.1,0.1,0.1c0,0,0,0.1,0,0.2c0,0.1,0,0.2,0.1,0.2l0,0l0,0c0,0.1,0.2,0.2,0.3,0.2C26.7,42.2,26.7,42.2,26.8,42.3
					L26.8,42.3C26.8,42.2,26.8,42.3,26.8,42.3C26.8,42.3,26.8,42.3,26.8,42.3L26.8,42.3L26.8,42.3z"/>
				<path d="M26.7,41.4C26.6,41.4,26.6,41.4,26.7,41.4c-0.1-0.1-0.1-0.1-0.2-0.1c0,0-0.1-0.1-0.1-0.1l0,0c0,0,0.1,0.1,0.1,0.1
					C26.5,41.3,26.5,41.3,26.7,41.4C26.6,41.4,26.6,41.4,26.7,41.4L26.7,41.4L26.7,41.4z"/>
				<path d="M25.9,41C25.9,41,25.9,41,25.9,41c0.1,0,0.1,0,0.1,0c0,0,0.2,0,0.2,0v0c0,0-0.1,0-0.2,0C26,41.1,25.9,41.1,25.9,41
					C25.9,41.1,25.9,41.1,25.9,41L25.9,41L25.9,41z"/>
				<path d="M26.2,41.1C26.2,41.1,26.2,41.2,26.2,41.1c-0.1,0-0.1,0.1-0.1,0.1c0,0,0,0,0,0c-0.1,0-0.1,0-0.2,0.1
					c-0.1,0.1-0.1,0.1-0.1,0.1l0,0l0,0c0,0-0.1,0-0.2,0.1v0h0c0,0-0.2,0.1-0.2,0.2l0,0v0c0,0-0.2,0.2-0.2,0.4l0,0
					c0-0.2,0.2-0.4,0.2-0.4c0.1-0.1,0.2-0.2,0.2-0.2c0.1-0.1,0.1-0.1,0.2-0.1c0,0,0,0,0.1-0.1c0.1-0.1,0.1-0.1,0.2-0.1c0,0,0,0,0,0
					C26.1,41.2,26.1,41.2,26.2,41.1C26.2,41.1,26.2,41.1,26.2,41.1L26.2,41.1L26.2,41.1z"/>
				<path d="M25.9,41.8C25.9,41.8,25.9,41.7,25.9,41.8c0-0.1,0-0.1,0-0.1C25.9,41.7,25.9,41.8,25.9,41.8c-0.1,0-0.1,0-0.2,0
					c0,0,0,0-0.1,0c0,0,0,0.1,0,0.1c0,0,0,0.1,0,0.1l0,0c0,0,0,0,0-0.1c0,0,0-0.1,0.1-0.1c0,0,0,0,0.1,0
					C25.8,41.8,25.8,41.8,25.9,41.8c0,0,0.1-0.1,0.1-0.1l0,0l0,0C26,41.7,26,41.7,25.9,41.8C26,41.7,26,41.8,25.9,41.8L25.9,41.8
					L25.9,41.8z"/>
				<path d="M25.2,42.3C25.2,42.3,25.2,42.4,25.2,42.3c0,0.1,0,0.1,0,0.1l0,0C25.1,42.4,25.1,42.4,25.2,42.3
					C25.1,42.4,25.2,42.3,25.2,42.3L25.2,42.3L25.2,42.3z"/>
				<path d="M25.4,42.6C25.4,42.6,25.4,42.6,25.4,42.6c0-0.1,0-0.1,0-0.1c0,0,0.1,0,0.1,0L25.4,42.6c0.1-0.1,0-0.1,0-0.1
					C25.4,42.5,25.4,42.5,25.4,42.6C25.4,42.6,25.4,42.6,25.4,42.6L25.4,42.6L25.4,42.6z"/>
				<path d="M25.7,42.9c0,0,0.2,0.2,0.2,0.2l0.3,0.1L26,42.9l-0.2-0.1l0,0l0.2,0.1h0v0l0.2,0.3l0,0l0,0l-0.3-0.1h0l0,0
					C25.9,43.1,25.7,42.9,25.7,42.9L25.7,42.9L25.7,42.9z"/>
				<path d="M26.3,42.7c0.1,0,0.2,0.1,0.4,0.1c0.1,0,0.3,0,0.4,0h0l0,0c0,0,0.1,0.4,0.2,0.5l0,0c-0.1-0.1-0.2-0.4-0.2-0.5
					c-0.1,0-0.3,0-0.4,0C26.5,42.7,26.3,42.7,26.3,42.7L26.3,42.7L26.3,42.7z"/>
				<path d="M27.8,43.7C27.8,43.7,27.8,43.7,27.8,43.7C27.8,43.7,27.8,43.7,27.8,43.7L27.8,43.7c0.1,0,0.1,0,0.2,0c0,0,0,0,0.1,0
					c0,0-0.1-0.1-0.1-0.1l0,0c0,0,0.2,0.1,0.1,0.2c0,0,0,0-0.1,0C27.9,43.7,27.9,43.7,27.8,43.7L27.8,43.7
					C27.8,43.7,27.8,43.7,27.8,43.7C27.8,43.7,27.8,43.7,27.8,43.7L27.8,43.7L27.8,43.7z"/>
				<path d="M27.7,43.7c0.1,0,0.1,0.1,0.2,0.1C28,43.9,28,44,28.1,44l0,0c0,0-0.1-0.1-0.1-0.1C27.8,43.8,27.7,43.8,27.7,43.7
					L27.7,43.7L27.7,43.7z"/>
				<path d="M28.2,44.2C28.2,44.2,28.2,44.2,28.2,44.2C28.1,44.2,28.1,44.2,28.2,44.2L28.2,44.2C28.2,44.2,28.2,44.2,28.2,44.2
					C28.2,44.2,28.2,44.2,28.2,44.2L28.2,44.2L28.2,44.2z"/>
				<path d="M28.5,44.5C28.5,44.5,28.5,44.5,28.5,44.5C28.6,44.5,28.6,44.6,28.5,44.5l0.1,0.1C28.6,44.6,28.5,44.6,28.5,44.5
					C28.5,44.5,28.5,44.5,28.5,44.5L28.5,44.5L28.5,44.5z"/>
				<path d="M28.1,44.4C28.1,44.4,28.1,44.4,28.1,44.4c-0.1,0-0.1,0-0.2,0c0,0,0,0-0.1-0.1c0,0,0,0-0.1,0c0,0-0.1-0.1-0.1-0.1l0,0
					c0,0,0,0,0.1,0.1c0,0,0,0,0.1,0c0,0,0,0,0.1,0.1C28,44.4,28,44.4,28.1,44.4C28.1,44.4,28.1,44.4,28.1,44.4L28.1,44.4L28.1,44.4z
					"/>
				<path d="M27.4,44.2C27.4,44.2,27.4,44.2,27.4,44.2c0.1,0,0.1,0,0.1,0c0,0,0,0,0,0c0,0,0,0,0,0c0,0,0,0,0,0c0,0,0,0,0,0l0,0
					c0,0,0,0,0,0c0,0,0,0,0,0c0,0,0,0,0,0c0,0,0,0,0,0C27.5,44.2,27.5,44.2,27.4,44.2C27.4,44.2,27.4,44.2,27.4,44.2L27.4,44.2
					L27.4,44.2z"/>
				<path d="M28.2,44.8C28.2,44.8,28.2,44.8,28.2,44.8c-0.1,0-0.1,0-0.1,0c0,0,0,0,0,0c-0.1,0-0.1,0-0.1,0c0,0-0.1,0-0.1,0
					c0,0,0,0-0.1,0c0,0,0,0-0.1,0c0,0-0.1,0-0.1,0c0,0,0,0-0.1,0c0,0,0,0,0,0c0,0,0,0-0.1,0c0,0,0,0-0.1,0c0,0-0.1,0-0.1,0
					c0,0-0.1,0-0.1,0c0,0-0.1,0-0.1,0c0,0-0.1,0-0.1,0c0,0,0,0,0-0.1c0,0,0,0,0,0c0,0,0-0.1,0-0.1c0,0,0-0.1,0-0.1l0,0
					c0,0,0,0.1,0,0.1c0,0,0,0.1,0,0.1c0,0,0,0,0,0.1c0,0,0,0,0,0c0,0,0,0,0.1,0c0,0,0.1,0,0.1,0c0,0,0.1,0,0.1,0c0,0,0.1,0,0.1,0
					c0,0,0.1,0,0.1,0c0,0,0,0,0,0c0,0,0,0,0,0c0,0,0,0,0.1,0c0,0,0.1,0,0.1,0c0,0,0.1,0,0.1,0c0,0,0,0,0.1,0c0,0,0,0,0.1,0
					c0,0,0.1,0,0.2,0c0,0,0,0,0,0C28.1,44.8,28.1,44.8,28.2,44.8C28.2,44.7,28.2,44.7,28.2,44.8L28.2,44.8L28.2,44.8z"/>
				<path d="M27.4,44.5C27.4,44.5,27.4,44.5,27.4,44.5c0,0.1,0,0.1-0.1,0.1c0,0,0,0.1-0.1,0.1c0,0,0,0,0,0c0,0,0,0,0.1,0l0,0
					c0,0,0.1,0,0.1-0.1c0,0,0.1,0,0.1-0.1c0,0,0,0,0.1,0c0,0,0,0,0,0.1l0,0c0,0,0,0,0,0c0,0,0,0,0,0c0,0,0,0,0,0.1l0,0
					c0,0,0-0.1,0-0.1c0,0,0,0,0,0c0,0,0,0,0,0l0,0c0,0,0,0,0-0.1c0,0,0,0,0,0c0,0,0,0-0.1,0.1c0,0-0.1,0.1-0.1,0.1l0,0
					c0,0-0.1,0-0.1,0c0,0,0,0,0,0c0,0,0,0,0.1-0.1C27.3,44.6,27.3,44.6,27.4,44.5C27.3,44.5,27.3,44.5,27.4,44.5L27.4,44.5
					L27.4,44.5z"/>
				<path d="M26.9,44.4c0,0,0,0.1,0.1,0.1c0,0,0.1,0.1,0.1,0.1c0,0,0.1,0,0.1,0v0c0,0-0.1,0-0.1,0c0,0,0,0-0.1-0.1
					C26.9,44.5,26.9,44.5,26.9,44.4L26.9,44.4L26.9,44.4z"/>
				<path d="M26.5,44.4C26.5,44.4,26.6,44.4,26.5,44.4C26.6,44.4,26.6,44.4,26.5,44.4c0.1,0.1,0.1,0.1,0.2,0c0,0,0,0,0,0
					c0,0,0,0,0.1,0c0,0,0,0,0.1,0.1c0,0,0.1,0.1,0.1,0.1c0,0,0,0.1,0.1,0.1c0,0,0,0,0,0c0,0,0,0,0,0c0,0,0,0-0.1,0
					c-0.1,0-0.1,0-0.2-0.1c0,0,0,0-0.1,0c0,0-0.1,0-0.1,0c0,0,0,0-0.1,0c0,0,0,0-0.1-0.1c0,0-0.1,0-0.1,0l0,0c0,0,0.1,0,0.1,0
					c0,0,0.1,0,0.1,0.1c0,0,0,0,0,0c0,0,0,0,0.1,0c0,0,0,0,0.1,0c0,0,0.1,0.1,0.1,0.1c0.1,0,0.1,0,0.1,0c0,0,0,0,0,0c0,0,0,0,0,0
					c0,0,0-0.1,0-0.1c0-0.1-0.1-0.1-0.1-0.1c0,0,0,0-0.1,0c0,0,0,0-0.1,0c0,0,0,0,0,0C26.7,44.5,26.7,44.5,26.5,44.4
					C26.6,44.5,26.6,44.5,26.5,44.4C26.5,44.4,26.5,44.4,26.5,44.4L26.5,44.4L26.5,44.4z"/>
				<path d="M26.3,44.7C26.3,44.7,26.3,44.7,26.3,44.7L26.3,44.7C26.3,44.7,26.3,44.7,26.3,44.7C26.4,44.7,26.4,44.7,26.3,44.7
					C26.4,44.7,26.4,44.7,26.3,44.7c0.1,0,0.2-0.1,0.2-0.1l0,0C26.6,44.6,26.5,44.7,26.3,44.7C26.4,44.7,26.4,44.7,26.3,44.7
					C26.4,44.7,26.3,44.7,26.3,44.7C26.3,44.7,26.3,44.7,26.3,44.7L26.3,44.7C26.3,44.7,26.3,44.7,26.3,44.7L26.3,44.7L26.3,44.7z"
					/>
				<path d="M26.4,43.8C26.4,43.8,26.4,43.8,26.4,43.8C26.4,43.8,26.4,43.8,26.4,43.8C26.4,43.8,26.4,43.7,26.4,43.8
					c0-0.1,0-0.1,0-0.1c0,0,0-0.1,0-0.1c0,0,0-0.1,0-0.1c0,0,0.1,0,0.1,0c0.1,0,0.1,0,0.1,0l0,0c0,0-0.1,0-0.1,0c0,0-0.1,0-0.1,0
					c0,0,0,0.1,0,0.1c0,0,0,0.1,0,0.1C26.5,43.7,26.5,43.8,26.4,43.8C26.5,43.8,26.4,43.8,26.4,43.8C26.4,43.8,26.4,43.8,26.4,43.8
					C26.5,43.8,26.5,43.8,26.4,43.8L26.4,43.8L26.4,43.8z"/>
				<path d="M25.4,43.3C25.4,43.3,25.4,43.4,25.4,43.3c0,0.1,0,0.1,0,0.2l0,0C25.4,43.4,25.4,43.4,25.4,43.3
					C25.3,43.4,25.3,43.3,25.4,43.3L25.4,43.3L25.4,43.3z"/>
				<path d="M26.7,41.6C26.7,41.6,26.7,41.6,26.7,41.6c0,0,0,0.1,0,0.1c0,0,0,0.1,0,0.1c0,0,0,0.1,0,0.1c0,0.1,0.1,0.1,0.1,0.1v0
					c0,0,0,0-0.1-0.1c0,0,0-0.1,0-0.1c0,0,0-0.1,0-0.1C26.7,41.7,26.7,41.7,26.7,41.6C26.7,41.6,26.7,41.6,26.7,41.6L26.7,41.6
					L26.7,41.6z"/>
				<path d="M28.4,43.5c0,0,0.1,0,0.1,0c0,0,0.1,0,0.1,0l0,0c0,0,0,0-0.1,0C28.5,43.6,28.4,43.6,28.4,43.5L28.4,43.5L28.4,43.5z"/>
				<path d="M28.9,43.6c0,0,0,0.1,0,0.1c0,0,0,0.1,0,0.1l0,0c0,0,0-0.1,0-0.1C28.9,43.6,28.9,43.6,28.9,43.6L28.9,43.6L28.9,43.6z"
					/>
			</g>
			<g>
				<path d="M23.3,44.1C23.3,44.1,23.3,44.1,23.3,44.1C23.3,44.1,23.3,44.1,23.3,44.1C23.3,44,23.3,44,23.3,44.1
					C23.3,44,23.3,44,23.3,44.1C23.3,44,23.3,44,23.3,44.1c0.1-0.1,0.1-0.1,0.1-0.1c0,0,0,0,0.1,0c0,0,0.1,0,0.1,0c0,0,0.1,0,0.1,0
					c0,0,0.1,0,0.1,0c0,0,0,0,0.1,0c0,0,0,0,0,0s0,0,0,0c0,0,0,0,0,0c0,0,0,0,0,0c0,0,0,0,0,0c0,0,0,0,0,0c0,0,0,0,0,0c0,0,0,0,0,0
					c0,0,0,0,0-0.1c0,0,0,0,0-0.1c0,0,0-0.1,0-0.1c0,0,0,0,0-0.1c0,0,0,0,0,0c0,0,0,0,0,0l0,0c0,0,0,0,0,0c0,0,0,0,0,0c0,0,0,0,0,0
					c0,0,0,0,0,0c0,0,0,0,0,0c0,0,0,0,0,0c0,0,0,0-0.1,0c0,0,0,0-0.1,0c0,0,0,0-0.1,0c0,0,0,0,0,0c0,0,0,0,0,0c0,0,0,0,0,0
					c0,0,0,0,0,0c0,0,0,0,0,0c0,0,0,0,0,0c0,0,0,0,0,0c0,0,0,0,0,0c0,0,0,0,0,0c0,0,0,0,0,0c0,0,0,0,0,0c0,0,0,0,0,0c0,0,0,0,0,0v0
					c0,0,0,0,0,0c0,0,0,0,0,0c0,0,0,0,0,0c0,0,0,0,0,0c0,0,0,0,0,0c0,0,0,0,0,0c0,0,0,0,0,0c0,0,0,0,0,0c0,0,0,0,0,0c0,0,0,0,0,0
					c0,0,0,0,0,0c0,0,0,0,0,0c0,0,0,0,0,0c0,0,0,0,0,0c0,0,0,0,0,0c0,0,0,0,0,0c0,0,0,0,0,0c0,0,0,0,0,0c0,0,0,0,0,0c0,0,0,0,0,0
					c0,0,0,0,0,0c0,0,0,0-0.1,0c0,0,0,0-0.1,0c0,0,0,0,0,0c0,0,0,0,0,0c0,0,0,0,0,0c0,0,0,0,0,0c0,0,0,0,0,0c0,0,0,0,0,0
					c0,0,0,0,0,0c0,0,0,0,0,0c0,0,0,0,0,0c0,0,0,0,0,0c0,0,0,0,0,0c0,0,0,0,0,0c0,0,0,0,0,0c0,0,0,0,0,0s0,0,0,0v0c0,0,0,0-0.1,0
					c0,0,0,0-0.1,0c0,0,0,0,0,0c0,0,0,0,0,0c0,0,0,0,0,0c0,0,0,0,0,0c0,0,0,0,0,0c0,0,0,0,0,0l0.1,0.2C23.3,44,23.3,44,23.3,44.1
					C23.3,44.1,23.3,44.1,23.3,44.1C23.3,44.1,23.3,44.1,23.3,44.1C23.3,44.1,23.3,44.1,23.3,44.1L23.3,44.1L23.3,44.1z M23.8,42.8
					c0,0,0-0.1,0-0.1c0,0,0-0.1,0-0.1c0,0,0-0.1-0.1-0.1c0,0-0.1,0-0.1-0.1c0,0-0.1,0-0.1,0c0,0-0.1,0-0.1,0c0,0-0.1,0-0.1,0
					c0,0-0.1,0-0.1,0.1c0,0,0,0.1-0.1,0.1c0,0,0,0.1,0,0.1c0,0,0,0.1,0,0.1c0,0,0,0.1,0,0.1c0,0,0,0.1,0,0.1c0,0,0,0,0.1,0.1
					c0,0,0.1,0,0.1,0.1c0,0,0.1,0,0.1,0c0,0,0.1,0,0.1,0c0,0,0.1,0,0.1,0c0,0,0.1,0,0.1,0c0,0,0,0,0.1-0.1
					C23.8,42.9,23.8,42.9,23.8,42.8C23.8,42.9,23.8,42.8,23.8,42.8L23.8,42.8z M23.8,42.8C23.8,42.8,23.8,42.8,23.8,42.8
					c0,0.1,0,0.1-0.1,0.1c0,0,0,0-0.1,0.1c0,0-0.1,0-0.1,0c0,0-0.1,0-0.1,0c0,0-0.1,0-0.1,0c0,0-0.1,0-0.1,0c0,0-0.1,0-0.1,0
					c0,0,0,0-0.1-0.1c0,0,0,0,0,0c0,0,0,0,0-0.1c0,0,0-0.1,0-0.1c0,0,0,0,0-0.1c0,0,0,0,0.1-0.1c0,0,0,0,0.1,0c0,0,0.1,0,0.1,0
					c0,0,0.1,0,0.1,0c0,0,0.1,0,0.1,0c0,0,0.1,0,0.1,0c0,0,0,0,0.1,0.1C23.8,42.7,23.8,42.7,23.8,42.8
					C23.8,42.7,23.8,42.7,23.8,42.8L23.8,42.8z M23.3,41.8C23.3,41.8,23.3,41.8,23.3,41.8C23.4,41.8,23.4,41.8,23.3,41.8
					C23.4,41.8,23.4,41.8,23.3,41.8C23.4,41.8,23.4,41.8,23.3,41.8c0.1,0,0.1,0,0.1,0c0,0,0,0,0,0c0,0,0,0,0.1,0c0,0,0,0,0.1,0
					c0,0,0,0,0,0c0,0,0,0,0,0c0,0,0,0,0,0c0,0,0,0,0,0c0,0,0,0,0,0c0,0,0,0,0,0c0,0,0,0,0,0c0,0,0,0,0,0c0,0,0,0,0,0c0,0,0,0,0,0
					c0,0,0,0,0,0c0,0,0,0,0,0c0,0,0,0,0,0c0,0,0,0,0,0c0,0,0,0,0,0c0,0,0,0,0,0c0,0,0,0,0-0.1c0,0,0,0,0,0c0,0,0,0,0,0c0,0,0,0,0,0
					c0,0,0,0,0,0c0,0,0,0,0,0c0,0,0,0,0,0c0,0,0,0,0,0c0,0,0,0,0,0c0,0,0,0,0,0c0,0,0,0,0,0c0,0,0,0,0,0c0,0,0,0,0,0c0,0,0,0,0,0
					c0,0,0,0-0.1,0c0,0,0,0,0,0l0,0c0,0,0,0,0,0c0,0,0,0,0,0c0,0,0,0,0,0c0,0,0,0,0,0c0,0,0,0,0,0c0,0,0,0,0,0c0,0,0,0,0,0
					c0,0,0,0,0,0c0,0,0,0,0.1,0c0,0,0,0,0.1,0c0,0,0,0,0.1,0c0,0,0,0,0,0c0,0,0,0,0,0c0,0,0,0,0,0c0,0,0,0,0,0c0,0,0,0,0,0
					c0,0,0,0,0,0c0,0,0,0,0,0c0,0,0,0,0,0c0,0,0,0,0,0s0,0,0,0c0,0,0,0,0,0c0,0,0,0,0,0c0,0,0,0,0,0c0,0,0,0,0,0c0,0,0,0-0.1,0
					c0,0,0,0-0.1,0c0,0,0,0-0.1,0c0,0,0,0-0.1,0c0,0,0,0,0,0c0,0,0,0,0,0c0,0,0,0,0,0c0,0,0,0,0-0.1c0,0,0,0,0,0c0,0,0,0,0,0
					c0,0,0,0,0,0c0,0,0,0-0.1,0c0,0,0,0-0.1,0c0,0,0,0-0.1,0c0,0,0,0,0,0.1c0,0,0,0,0,0c0,0,0,0,0,0c0,0,0,0,0,0.1
					C23.4,41.7,23.4,41.7,23.3,41.8C23.4,41.7,23.4,41.8,23.3,41.8C23.3,41.8,23.3,41.8,23.3,41.8C23.3,41.8,23.3,41.8,23.3,41.8
					C23.3,41.8,23.3,41.8,23.3,41.8C23.3,41.8,23.3,41.8,23.3,41.8C23.3,41.8,23.3,41.8,23.3,41.8L23.3,41.8z M23.4,41.6
					C23.4,41.6,23.5,41.6,23.4,41.6c0.1-0.1,0.1-0.1,0.1-0.1c0,0,0.1,0,0.1,0c0,0,0,0,0.1,0c0,0,0,0,0,0c0,0,0,0,0,0c0,0,0,0,0,0
					c0,0,0,0,0,0c0,0,0,0,0,0c0,0,0,0,0,0c0,0,0,0,0,0c0,0,0,0,0,0c0,0,0,0,0,0c0,0,0,0-0.1,0c0,0,0,0-0.1,0
					C23.5,41.7,23.5,41.7,23.4,41.6C23.5,41.7,23.5,41.7,23.4,41.6C23.4,41.7,23.4,41.7,23.4,41.6C23.4,41.7,23.4,41.7,23.4,41.6
					C23.4,41.7,23.4,41.7,23.4,41.6C23.4,41.7,23.4,41.7,23.4,41.6C23.4,41.6,23.4,41.6,23.4,41.6L23.4,41.6z M25.1,40.5
					C25.1,40.5,25.1,40.5,25.1,40.5C25.1,40.5,25.1,40.5,25.1,40.5C25.1,40.5,25.1,40.5,25.1,40.5C25.1,40.5,25.1,40.5,25.1,40.5
					C25.1,40.4,25.1,40.4,25.1,40.5C25,40.4,25,40.4,25.1,40.5C25,40.4,25,40.4,25,40.4c0,0,0,0,0,0c0,0,0,0,0,0c0,0,0,0,0,0
					c0,0,0,0,0,0c0,0,0,0,0,0c0,0,0,0,0,0c0,0,0,0,0,0c0,0,0,0,0,0c0,0,0,0,0,0c0,0,0,0,0,0c0,0,0,0,0,0c0,0,0,0-0.1,0
					c0,0,0,0-0.1,0c0,0,0,0,0,0c0,0,0,0,0,0l0,0c0,0,0,0,0,0c0,0,0,0,0,0c0,0,0,0,0,0c0,0,0,0,0,0c0,0,0,0,0,0c0,0,0,0,0,0
					c0,0,0,0,0,0c0,0,0,0,0,0c0,0,0,0,0,0C25,40.5,25,40.5,25.1,40.5C25,40.6,25,40.6,25.1,40.5C25,40.6,25,40.6,25,40.6
					c0,0,0,0,0,0c0,0,0,0,0,0c0,0-0.1,0-0.1,0.1c0,0-0.1,0-0.1,0c0,0-0.1,0-0.1,0c0,0-0.1-0.1-0.1-0.1c0,0-0.1-0.1-0.1-0.1
					c0,0,0-0.1,0-0.1c0,0,0-0.1,0.1-0.1c0,0,0,0,0.1,0c0,0,0,0,0.1,0c0,0,0,0,0,0c0,0,0,0,0,0c0,0,0,0,0,0c0,0,0,0,0,0c0,0,0,0,0,0
					c0,0,0,0,0,0c0,0,0,0,0,0c0,0,0,0,0,0c0,0,0,0,0,0c0,0,0,0,0,0c0,0,0,0,0,0c0,0,0,0-0.1,0c0,0,0,0-0.1,0c0,0,0,0-0.1,0.1
					c0,0,0,0,0,0.1c0,0,0,0,0,0.1c0,0,0,0.1,0,0.1c0,0,0,0.1,0,0.1c0,0,0,0.1,0.1,0.1c0,0.1,0.1,0.1,0.1,0.1c0.1,0,0.1,0,0.2,0
					c0.1,0,0.1,0,0.2-0.1c0,0,0,0,0,0C25,40.6,25.1,40.6,25.1,40.5C25.1,40.5,25.1,40.5,25.1,40.5C25.1,40.5,25.1,40.5,25.1,40.5
					C25.1,40.5,25.1,40.5,25.1,40.5L25.1,40.5C25.1,40.5,25.1,40.5,25.1,40.5L25.1,40.5z M25.4,40.3C25.4,40.3,25.4,40.3,25.4,40.3
					C25.4,40.3,25.4,40.3,25.4,40.3C25.4,40.3,25.4,40.3,25.4,40.3C25.4,40.3,25.5,40.3,25.4,40.3C25.5,40.3,25.5,40.3,25.4,40.3
					c0.1,0,0.1,0,0.1,0c0,0,0,0,0,0c0,0,0,0,0,0c0,0,0,0,0,0c0,0,0,0,0,0c0,0,0,0,0,0c0,0,0,0,0,0c0,0,0,0,0,0c0,0,0,0,0,0
					c0,0,0,0,0,0c0,0,0,0,0,0c0,0,0,0,0,0c0,0,0,0,0,0s0,0,0,0c0,0,0,0,0,0c0,0,0,0,0,0c0,0,0,0,0,0c0,0,0,0,0,0c0,0,0,0,0,0
					c0,0,0,0,0,0c0,0,0,0,0,0c0,0,0,0,0,0c0,0,0,0,0,0c0,0,0,0,0,0c0,0,0,0,0,0c0,0,0,0,0,0h0c0,0,0,0,0,0c0,0,0,0,0,0.1
					c0,0,0,0,0,0c0,0,0,0,0,0c0,0,0,0,0,0c0,0,0,0,0,0c0,0,0,0,0,0c0,0,0,0,0,0c0,0,0,0,0,0c0,0,0,0,0,0c0,0,0,0,0,0c0,0,0,0,0,0
					c0,0,0,0,0,0c0,0,0,0,0,0c0,0,0,0,0,0c0,0,0,0,0,0c0,0,0,0,0,0c0,0,0,0,0,0c0,0,0,0,0,0c0,0,0,0,0,0c0,0,0,0,0,0c0,0,0,0,0,0
					c0,0,0,0,0,0c0,0,0,0,0,0c0,0,0,0,0,0c0,0,0,0,0,0c0,0,0,0,0-0.1c0,0,0,0-0.1-0.1c0,0,0-0.1-0.1-0.1c0,0,0,0-0.1-0.1
					c0,0,0,0,0-0.1c0,0,0,0,0,0l0,0c0,0,0,0,0,0c0,0,0,0,0,0c0,0,0,0,0,0c0,0,0,0,0,0c0,0,0,0,0,0c0,0,0,0,0,0c0,0,0,0,0,0.1
					c0,0,0,0,0,0.1c0,0,0,0.1,0,0.1c0,0,0,0.1,0,0.1c0,0,0,0.1,0,0.1c0,0,0,0.1,0,0.1C25.5,40.2,25.5,40.2,25.4,40.3
					C25.5,40.2,25.5,40.2,25.4,40.3C25.5,40.3,25.5,40.3,25.4,40.3C25.5,40.3,25.5,40.3,25.4,40.3L25.4,40.3z M25.6,39.7l0.1,0.2
					c0,0,0,0,0,0l0,0c0,0,0,0,0,0c0,0,0,0,0,0c0,0,0,0,0,0c0,0,0,0-0.1,0s0,0,0,0c0,0,0,0,0,0s0,0,0,0c0,0,0,0,0,0c0,0,0,0,0-0.1
					C25.6,39.8,25.6,39.8,25.6,39.7C25.6,39.8,25.6,39.8,25.6,39.7C25.6,39.7,25.6,39.7,25.6,39.7C25.6,39.7,25.6,39.7,25.6,39.7
					C25.6,39.7,25.6,39.7,25.6,39.7L25.6,39.7z"/>
				<path d="M26.3,39.4C26.3,39.4,26.3,39.4,26.3,39.4C26.4,39.4,26.4,39.4,26.3,39.4C26.4,39.4,26.4,39.4,26.3,39.4
					C26.4,39.4,26.4,39.4,26.3,39.4C26.4,39.4,26.4,39.4,26.3,39.4C26.4,39.5,26.4,39.5,26.3,39.4c0.1,0.1,0.1,0.1,0.1,0.1
					c0,0,0,0,0,0.1c0,0,0,0.1,0,0.1c0,0,0,0.1,0,0.1c0,0,0,0.1,0,0.1c0,0,0,0,0,0c0,0,0,0,0,0c0,0,0,0,0,0c0,0,0,0,0,0c0,0,0,0,0,0
					c0,0,0,0,0,0c0,0,0,0,0,0c0,0,0,0,0,0c0,0,0,0,0,0c0,0,0,0,0,0c0,0,0,0,0,0c0,0,0,0,0,0c0,0,0,0,0,0c0,0,0,0,0,0c0,0,0,0,0,0
					c0,0,0,0,0.1,0c0,0,0,0,0.1,0c0,0,0,0,0.1,0s0,0,0.1,0c0,0,0,0,0,0c0,0,0,0,0,0c0,0,0,0,0,0c0,0,0,0,0,0c0,0,0,0,0,0
					c0,0,0,0,0,0c0,0,0,0,0,0c0,0,0,0,0,0c0,0,0,0,0,0c0,0,0,0,0,0c0,0,0,0,0,0c0,0,0,0,0,0c0,0,0,0,0,0c0,0,0,0,0,0c0,0,0,0,0,0
					c0,0,0,0,0,0c0,0,0,0,0,0s0,0,0,0c0,0,0,0,0,0c0,0,0,0,0,0c0,0,0,0,0,0c0,0,0,0,0,0c0,0,0,0,0,0c0,0,0,0,0-0.1c0,0,0,0,0-0.1
					c0,0,0-0.1,0-0.1c0,0,0-0.1,0-0.1c0,0,0,0,0-0.1c0,0,0,0,0-0.1c0,0,0,0,0-0.1c0,0,0,0,0,0c0,0,0,0,0,0c0,0,0,0,0,0c0,0,0,0,0,0
					c0,0,0,0,0,0c0,0,0,0,0,0c0,0,0,0,0,0c0,0,0,0,0,0c0,0,0,0,0,0c0,0,0,0,0,0c0,0,0,0,0,0c0,0,0,0,0,0c0,0,0,0-0.1,0
					C26.4,39.4,26.4,39.4,26.3,39.4C26.4,39.4,26.4,39.4,26.3,39.4C26.4,39.4,26.3,39.4,26.3,39.4L26.3,39.4
					C26.3,39.4,26.3,39.4,26.3,39.4L26.3,39.4L26.3,39.4z M27.4,39.4C27.4,39.4,27.4,39.5,27.4,39.4C27.4,39.5,27.4,39.5,27.4,39.4
					C27.4,39.5,27.4,39.5,27.4,39.4C27.4,39.5,27.4,39.5,27.4,39.4C27.5,39.5,27.5,39.5,27.4,39.4C27.5,39.5,27.5,39.5,27.4,39.4
					c0.1,0.1,0.1,0.1,0.1,0.1c0,0,0,0,0,0.1c0,0,0,0.1,0,0.1c0,0,0,0.1,0,0.1c0,0,0,0.1,0,0.1c0,0,0,0,0,0c0,0,0,0,0,0c0,0,0,0,0,0
					c0,0,0,0,0,0c0,0,0,0,0,0c0,0,0,0,0,0s0,0,0,0c0,0,0,0,0,0c0,0,0,0,0,0c0,0,0,0,0,0c0,0,0,0,0,0c0,0,0,0,0,0c0,0,0,0,0,0
					c0,0,0,0,0,0c0,0,0,0,0,0c0,0,0,0,0,0c0,0,0,0,0.1,0c0,0,0,0,0.1,0c0,0,0,0,0,0c0,0,0,0,0,0c0,0,0,0,0,0c0,0,0,0,0,0
					c0,0,0,0,0,0c0,0,0,0,0,0c0,0,0,0,0,0c0,0,0,0,0,0c0,0,0,0,0,0c0,0,0,0,0,0c0,0,0,0,0,0c0,0,0,0,0,0c0,0,0,0,0,0c0,0,0,0,0,0
					c0,0,0,0,0,0c0,0,0,0,0,0c0,0,0,0,0,0c0,0,0,0,0,0c0,0,0,0,0,0c0,0,0,0,0,0c0,0,0,0,0,0c0,0,0,0,0,0c0,0,0,0,0,0c0,0,0,0,0,0
					c0,0,0,0,0,0c0,0,0,0,0-0.1c0,0,0-0.1,0-0.1c0,0,0-0.1,0-0.1c0,0,0,0,0-0.1c0,0,0,0,0-0.1c0,0,0,0,0-0.1c0,0,0,0,0,0
					c0,0,0,0,0,0c0,0,0,0,0,0c0,0,0,0,0,0c0,0,0,0,0,0c0,0,0,0,0,0c0,0,0,0,0,0c0,0,0,0,0,0c0,0,0,0,0,0c0,0,0,0,0,0c0,0,0,0,0,0
					c0,0,0,0,0,0c0,0,0,0-0.1,0C27.5,39.5,27.5,39.5,27.4,39.4C27.4,39.4,27.4,39.4,27.4,39.4C27.4,39.4,27.4,39.4,27.4,39.4
					C27.4,39.4,27.4,39.4,27.4,39.4C27.4,39.4,27.4,39.4,27.4,39.4C27.4,39.4,27.4,39.4,27.4,39.4L27.4,39.4z M28,40.3
					C28,40.3,28,40.3,28,40.3C28,40.3,28,40.3,28,40.3L28,40.3C28,40.3,28,40.3,28,40.3C28.1,40.3,28.1,40.3,28,40.3
					c0.1,0.1,0.1,0.1,0.1,0.1c0,0,0,0,0,0c0,0,0,0,0,0c0,0,0,0,0,0c0,0,0,0,0,0c0,0,0,0,0,0c0,0,0,0,0,0c0,0,0,0,0,0c0,0,0,0,0,0
					c0,0,0,0,0,0c0,0,0,0,0,0c0,0,0,0,0,0c0,0,0,0,0,0c0,0,0,0,0,0c0,0,0,0,0,0c0,0,0,0,0,0h0c0,0,0,0,0,0c0,0,0,0,0,0c0,0,0,0,0,0
					c0,0,0,0,0,0c0,0,0,0,0,0c0,0,0,0,0,0c0,0,0,0,0,0c0,0,0,0,0,0l0,0c0,0,0,0,0,0c0,0,0,0,0,0.1c0,0,0,0,0,0.1c0,0,0,0,0,0.1
					c0,0,0,0,0,0c0,0,0,0,0,0c0,0,0,0,0,0c0,0,0,0,0,0c0,0,0,0,0,0c0,0,0,0,0,0c0,0,0,0,0,0c0,0,0,0,0,0c0,0,0,0,0,0c0,0,0,0,0,0
					c0,0,0,0,0,0c0,0,0,0,0,0c0,0,0,0,0,0c0,0,0,0,0,0c0,0,0,0,0,0c0,0,0,0,0,0c0,0,0,0,0,0c0,0,0,0,0,0c0,0,0,0,0,0c0,0,0,0,0,0
					c0,0,0,0,0,0c0,0,0,0,0,0c0,0,0,0,0-0.1c0,0,0,0,0-0.1c0,0,0-0.1,0-0.1c0,0,0-0.1,0-0.1c0,0,0-0.1,0-0.1c0,0,0-0.1,0-0.1
					c0,0,0,0,0,0l0,0c0,0,0,0,0,0c0,0,0,0,0,0c0,0,0,0,0,0c0,0,0,0,0,0c0,0,0,0,0,0c0,0,0,0,0,0c0,0,0,0,0,0c0,0,0,0-0.1,0.1
					c0,0,0,0-0.1,0.1c0,0-0.1,0-0.1,0.1c0,0-0.1,0-0.1,0.1c0,0,0,0-0.1,0.1c0,0,0,0,0,0C28.1,40.3,28.1,40.3,28,40.3
					C28.1,40.3,28.1,40.3,28,40.3C28,40.3,28,40.3,28,40.3L28,40.3z M28.5,39.9l-0.1,0.2c0,0,0,0,0,0h0c0,0,0,0,0,0c0,0,0,0,0,0
					c0,0,0,0,0,0c0,0,0,0,0,0c0,0,0,0,0,0c0,0,0,0,0,0c0,0,0,0,0,0c0,0,0,0,0,0c0,0,0,0,0,0C28.4,40,28.5,40,28.5,39.9
					C28.5,40,28.5,40,28.5,39.9C28.5,40,28.5,40,28.5,39.9C28.5,39.9,28.5,39.9,28.5,39.9C28.5,39.9,28.5,39.9,28.5,39.9L28.5,39.9z
					 M29.3,40.4C29.3,40.4,29.3,40.4,29.3,40.4C29.3,40.4,29.3,40.4,29.3,40.4C29.3,40.4,29.3,40.4,29.3,40.4c0,0.1,0,0.1,0,0.1
					c0,0,0,0,0,0c0,0,0,0,0,0c0,0-0.1,0.1-0.1,0.1c0,0-0.1,0.1-0.1,0.1c0,0-0.1,0-0.1,0.1c0,0,0,0-0.1,0c0,0,0,0,0,0c0,0,0,0,0,0
					c0,0,0,0,0,0c0,0,0,0,0,0c0,0,0,0,0,0c0,0,0,0,0,0c0,0,0,0,0,0c0,0,0,0,0,0c0,0,0,0,0,0c0,0,0,0,0,0c0,0,0,0,0,0.1c0,0,0,0,0,0
					c0,0,0,0,0,0c0,0,0,0,0,0c0,0,0,0,0,0c0,0,0,0,0,0c0,0,0,0,0,0c0,0,0,0,0,0c0,0,0,0,0,0c0,0,0,0,0,0c0,0,0,0,0,0c0,0,0,0,0,0
					c0,0,0,0,0,0c0,0,0,0,0,0c0,0,0,0,0.1,0c0,0,0,0,0.1-0.1c0,0,0,0,0.1,0c0,0,0,0,0.1,0c0,0,0,0,0,0c0,0,0,0,0,0l0,0c0,0,0,0,0,0
					c0,0,0,0,0,0.1c0,0,0,0.1,0,0.1c0,0,0,0.1,0,0.1c0,0,0,0.1,0,0.1c0,0,0,0.1,0,0.1c0,0,0,0.1,0,0.1c0,0,0,0,0,0.1c0,0,0,0,0,0
					c0,0,0,0,0,0c0,0,0,0,0,0c0,0,0,0,0,0c0,0,0,0,0,0c0,0,0,0,0,0c0,0,0,0,0.1-0.1c0,0,0.1,0,0.1-0.1c0,0,0,0,0.1-0.1
					c0,0,0,0,0.1-0.1c0,0,0,0,0,0c0,0,0,0,0,0c0,0,0,0,0,0c0,0,0,0,0,0c0,0,0,0,0,0c0,0,0,0,0,0c0,0,0,0,0,0c0,0,0,0,0,0
					c0,0,0,0,0,0c0,0,0,0,0,0c0,0,0,0,0,0c0,0,0,0,0,0c0,0,0,0,0,0c0,0,0,0,0-0.1c0,0,0,0,0,0c0,0,0,0,0,0c0,0,0,0,0,0c0,0,0,0,0,0
					c0,0,0,0,0,0c0,0,0,0,0,0c0,0,0,0,0,0c0,0,0,0,0,0c0,0,0,0,0,0c0,0,0,0,0,0c0,0,0,0-0.1,0c0,0,0,0-0.1,0.1c0,0,0,0-0.1,0.1
					c0,0,0,0-0.1,0.1c0,0,0,0-0.1,0.1h0c0,0,0,0,0-0.1c0,0,0-0.1,0-0.1c0,0,0-0.1,0-0.1c0,0,0-0.1,0-0.1c0,0,0-0.1,0-0.1
					c0,0,0-0.1,0-0.1c0,0,0,0,0,0c0,0,0,0,0,0c0,0,0,0,0,0C29.4,40.5,29.4,40.5,29.3,40.4C29.4,40.4,29.4,40.4,29.3,40.4
					C29.3,40.4,29.3,40.4,29.3,40.4C29.3,40.4,29.3,40.4,29.3,40.4C29.3,40.4,29.3,40.4,29.3,40.4L29.3,40.4
					C29.3,40.4,29.3,40.4,29.3,40.4L29.3,40.4z M29.6,42C29.6,42,29.6,42,29.6,42C29.6,42,29.6,42,29.6,42C29.6,42,29.6,42,29.6,42
					C29.6,42,29.6,42,29.6,42C29.6,41.9,29.6,41.9,29.6,42C29.6,41.9,29.6,41.9,29.6,42c0-0.1,0-0.1,0-0.1c0,0,0,0,0,0
					c0,0,0,0,0.1,0c0,0,0,0,0.1,0c0,0,0.1,0,0.1,0c0,0,0.1,0,0.1,0c0,0,0.1,0,0.1,0c0,0,0,0,0.1,0c0,0,0,0,0,0c0,0,0,0,0,0
					c0,0,0,0,0,0c0,0,0,0,0,0c0,0,0,0,0,0c0,0,0,0,0,0c0,0,0,0,0,0c0,0,0,0,0,0c0,0,0,0,0,0c0,0,0,0,0,0c0,0,0,0,0,0c0,0,0,0,0,0
					c0,0,0,0,0,0c0,0,0,0,0,0c0,0,0,0,0,0c0,0,0,0,0,0c0,0,0,0,0,0c0,0,0,0,0,0c0,0,0,0,0,0l0,0c0,0,0,0,0,0c0,0,0,0,0,0
					c0,0,0,0,0,0c0,0,0,0,0,0l-0.1-0.4c0,0,0,0,0,0c0,0,0,0,0,0c0,0,0,0,0,0c0,0,0,0,0,0l0,0c0,0,0,0,0,0c0,0,0,0,0,0c0,0,0,0,0,0
					c0,0,0,0,0,0c0,0,0,0,0,0s0,0,0,0c0,0,0,0,0,0c0,0,0,0,0,0c0,0,0,0,0,0c0,0,0,0,0,0c0,0,0,0,0,0c0,0,0,0,0,0c0,0,0,0,0,0
					c0,0,0,0,0,0c0,0,0,0,0,0c0,0,0,0,0,0c0,0,0,0,0,0v0c0,0,0,0,0,0c0,0-0.1,0-0.1,0c0,0-0.1,0-0.1,0c0,0-0.1,0-0.1,0
					c0,0-0.1,0-0.1,0c0,0-0.1,0-0.1,0c0,0,0,0,0,0c0,0,0,0,0,0c0,0,0,0,0,0c0,0,0,0,0,0c0,0,0,0,0,0c0,0,0,0,0,0c0,0,0,0,0,0
					c0,0,0,0,0,0c0,0,0,0,0,0.1c0,0,0,0.1,0,0.1C29.6,41.9,29.6,41.9,29.6,42C29.6,42,29.6,42,29.6,42C29.6,42,29.6,42,29.6,42
					C29.6,42,29.6,42,29.6,42C29.6,42,29.6,42,29.6,42C29.6,42,29.6,42,29.6,42L29.6,42z"/>
				<path d="M30.4,42.5C30.4,42.5,30.4,42.5,30.4,42.5C30.4,42.5,30.4,42.5,30.4,42.5C30.4,42.6,30.4,42.6,30.4,42.5
					C30.4,42.6,30.3,42.6,30.4,42.5C30.3,42.6,30.3,42.6,30.4,42.5c-0.1,0.1-0.1,0.1-0.1,0.1c0,0,0,0-0.1,0c0,0,0,0-0.1,0
					c0,0,0,0,0,0c0,0,0,0,0,0c0,0,0,0,0,0c0,0,0,0-0.1,0c0,0,0,0,0,0s0,0,0,0s0,0,0,0c0,0,0,0,0,0c0,0,0,0,0,0c0,0,0,0,0,0
					c0,0,0,0,0,0c0,0,0,0,0,0c0,0,0,0,0,0c0,0,0,0,0,0c0,0,0,0,0,0c0,0,0,0,0,0c0,0,0,0,0,0.1c0,0,0,0,0,0.1c0,0,0,0,0,0
					c0,0,0,0,0,0c0,0,0,0,0,0h0c0,0,0,0,0,0c0,0,0,0,0,0c0,0,0,0,0,0c0,0,0,0,0,0c0,0,0,0,0,0c0,0,0,0,0,0c0,0,0,0,0,0
					c0,0,0,0,0.1,0c0,0,0,0,0.1,0c0,0,0,0,0.1,0c0,0,0,0,0,0c0,0,0,0,0,0c0,0,0,0,0,0c0,0,0,0,0,0c0,0,0,0,0,0c0,0,0,0,0,0
					c0,0,0,0,0,0c0,0,0,0,0,0c0,0,0,0,0,0c0,0,0,0,0,0c0,0,0,0,0,0c0,0,0,0,0,0c0,0,0,0,0,0c0,0,0,0,0,0c0,0,0,0,0,0c0,0,0,0,0,0
					c0,0,0,0,0,0s0,0,0,0c0,0,0,0,0,0c0,0,0,0,0,0c0,0,0,0,0,0h0c0,0,0,0,0,0c0,0,0,0,0,0c0,0,0,0,0,0c0,0,0,0,0,0c0,0,0,0,0,0
					c0,0,0,0,0,0c0,0,0,0,0.1,0c0,0,0,0,0.1,0c0,0,0,0,0,0l0,0c0,0,0,0,0,0c0,0,0,0,0,0c0,0,0,0,0,0c0,0,0,0,0.1,0c0,0,0,0,0.1,0
					c0,0,0,0,0.1,0c0,0,0,0,0,0c0,0,0,0,0-0.1c0,0,0-0.1,0-0.1c0,0,0,0,0-0.1c0,0,0,0,0-0.1c0,0,0,0,0-0.1
					C30.4,42.6,30.4,42.6,30.4,42.5C30.4,42.6,30.4,42.6,30.4,42.5C30.4,42.5,30.4,42.5,30.4,42.5C30.4,42.5,30.4,42.5,30.4,42.5
					C30.4,42.5,30.4,42.5,30.4,42.5C30.4,42.5,30.4,42.5,30.4,42.5L30.4,42.5L30.4,42.5z M30.4,42.7C30.4,42.7,30.4,42.8,30.4,42.7
					c0,0.1,0,0.1-0.1,0.2c0,0-0.1,0-0.1,0c0,0,0,0-0.1,0c0,0,0,0,0,0c0,0,0,0,0,0c0,0,0,0,0,0c0,0,0,0,0,0c0,0,0,0,0,0c0,0,0,0,0,0
					c0,0,0,0,0,0l0,0l0,0c0,0,0,0,0.1,0c0,0,0,0,0.1,0c0,0,0,0,0.1,0C30.3,42.7,30.3,42.7,30.4,42.7C30.4,42.7,30.4,42.7,30.4,42.7
					C30.4,42.7,30.4,42.7,30.4,42.7L30.4,42.7C30.4,42.7,30.4,42.7,30.4,42.7C30.4,42.7,30.4,42.7,30.4,42.7L30.4,42.7z M30.4,43.6
					C30.4,43.6,30.4,43.6,30.4,43.6C30.4,43.6,30.4,43.6,30.4,43.6C30.4,43.6,30.4,43.6,30.4,43.6C30.4,43.6,30.4,43.6,30.4,43.6
					C30.3,43.7,30.3,43.7,30.4,43.6c-0.1,0.1-0.1,0.1-0.1,0.1c0,0,0,0-0.1,0c0,0,0,0-0.1,0c0,0,0,0-0.1,0c0,0,0,0-0.1,0c0,0,0,0,0,0
					c0,0,0,0,0,0c0,0,0,0,0,0c0,0,0,0,0,0l-0.1,0c0,0,0,0,0,0c0,0,0,0,0,0c0,0,0,0,0,0c0,0,0,0,0,0c0,0,0,0,0,0c0,0,0,0,0,0
					c0,0,0,0,0,0c0,0,0,0,0,0c0,0,0,0,0,0.1c0,0,0,0,0,0.1c0,0,0,0,0,0.1c0,0,0,0,0,0c0,0,0,0,0,0c0,0,0,0,0,0c0,0,0,0,0,0
					c0,0,0,0,0,0c0,0,0,0,0,0c0,0,0,0,0,0c0,0,0,0,0,0c0,0,0,0,0,0c0,0,0,0,0,0c0,0,0,0,0,0l0.2,0c0,0,0,0,0,0c0,0,0,0,0,0
					c0,0,0,0,0,0c0,0,0,0,0,0c0,0,0,0,0,0c0,0,0,0,0.1,0c0,0,0,0,0.1,0c0,0,0,0,0,0c0,0,0,0,0,0c0,0,0,0,0,0c0,0,0,0,0,0v0
					c0,0,0,0,0,0c0,0,0,0,0,0c0,0,0,0,0,0c0,0,0,0,0,0c0,0,0,0,0,0c0,0,0,0,0,0c0,0,0,0,0,0c0,0,0,0,0,0c0,0,0,0,0,0c0,0,0,0,0,0
					c0,0,0,0,0,0c0,0,0,0,0,0c0,0,0,0,0,0c0,0,0,0,0,0c0,0,0,0,0,0c0,0,0,0,0,0c0,0,0,0,0,0c0,0,0,0,0,0c0,0,0,0,0,0c0,0,0,0,0,0
					c0,0,0,0,0,0c0,0,0,0,0,0l0,0c0,0,0,0,0,0c0,0,0,0,0,0c0,0,0,0,0.1,0c0,0,0,0,0.1,0c0,0,0,0,0.1,0c0,0,0,0,0,0c0,0,0,0,0,0
					c0,0,0,0,0,0c0,0,0,0,0,0c0,0,0,0,0,0c0,0,0,0,0,0c0,0,0,0,0,0c0,0,0,0,0,0c0,0,0,0,0,0c0,0,0,0,0,0c0,0,0,0,0,0c0,0,0,0,0,0
					C30.4,43.7,30.4,43.7,30.4,43.6C30.4,43.6,30.4,43.6,30.4,43.6C30.4,43.6,30.4,43.6,30.4,43.6C30.4,43.6,30.4,43.6,30.4,43.6
					L30.4,43.6z"/>
			</g>
			<circle fill="none" stroke="#96877D" stroke-width="4.478700e-02" stroke-miterlimit="2.4142" cx="26.8" cy="43" r="3.8"/>
			
				<path fill-rule="evenodd" clip-rule="evenodd" fill="none" stroke="#96877D" stroke-width="4.478900e-02" stroke-miterlimit="2.4142" d="
				M26.8,40.2c1.6,0,2.9,1.3,2.9,2.9c0,1.6-1.3,2.9-2.9,2.9c-1.6,0-2.9-1.3-2.9-2.9C23.9,41.4,25.2,40.2,26.8,40.2L26.8,40.2z"/>
			<path fill-rule="evenodd" clip-rule="evenodd" d="M26.8,45.9L26.8,45.9c0.1,0,0.1,0.1,0.1,0.1v0.2h0.3c0.1,0,0.1,0.1,0.1,0.1l0,0
				c0,0.1-0.1,0.1-0.1,0.1h-0.3v0.2c0,0.1-0.1,0.1-0.1,0.1l0,0c-0.1,0-0.1-0.1-0.1-0.1v-0.2h-0.3c-0.1,0-0.1-0.1-0.1-0.1l0,0
				c0-0.1,0.1-0.1,0.1-0.1h0.3V46C26.7,46,26.7,45.9,26.8,45.9L26.8,45.9z M28.2,45.9c0.1,0,0.2,0.1,0.2,0.2c0,0.1-0.1,0.2-0.2,0.2
				c-0.1,0-0.2-0.1-0.2-0.2C28,46,28.1,45.9,28.2,45.9L28.2,45.9z M25.3,45.9c0.1,0,0.2,0.1,0.2,0.2c0,0.1-0.1,0.2-0.2,0.2
				c-0.1,0-0.2-0.1-0.2-0.2C25.2,46,25.2,45.9,25.3,45.9L25.3,45.9z"/>
			<g>
				<path fill-rule="evenodd" clip-rule="evenodd" fill="#96877D" d="M30.6,39.2c0.4,0.4,0.5,1,0.2,1.3c-0.3,0.3-0.9,0.2-1.3-0.2
					c-0.4-0.4-0.5-1-0.2-1.3C29.6,38.7,30.2,38.8,30.6,39.2z"/>
				<path fill="#CCCCCC" d="M30,39.1l-0.2,0.4l0.4-0.2l0.2,0.1l-0.8,0.4l-0.2,0.1l0.1-0.2l0.4-0.7L30,39.1L30,39.1z M30.7,39.8
					L30,40.6l-0.1-0.1l0.8-0.8L30.7,39.8L30.7,39.8z"/>
			</g>
			<g>
				<path fill-rule="evenodd" clip-rule="evenodd" fill="#96877D" d="M23,39.2c0.4-0.4,1-0.5,1.3-0.2c0.3,0.3,0.2,0.9-0.2,1.3
					c-0.4,0.4-1,0.5-1.3,0.2C22.5,40.2,22.5,39.6,23,39.2z"/>
				<path fill="#CCCCCC" d="M22.9,39.8l0.4,0.2l-0.2-0.4l0.1-0.2l0.4,0.8l0.1,0.2l-0.2-0.1L22.7,40L22.9,39.8L22.9,39.8z M23.6,39.1
					l0.8,0.8L24.2,40l-0.8-0.8L23.6,39.1L23.6,39.1z"/>
			</g>
			<g>
				<path fill-rule="evenodd" clip-rule="evenodd" fill="#96877D" d="M23,46.9c-0.4-0.4-0.5-1-0.2-1.3c0.3-0.3,0.9-0.2,1.3,0.2
					c0.4,0.4,0.5,1,0.2,1.3C24,47.4,23.4,47.3,23,46.9z"/>
				<path fill="#CCCCCC" d="M23.6,47l0.2-0.4l-0.4,0.2l-0.2-0.1l0.8-0.4l0.2-0.1l-0.1,0.2l-0.4,0.7L23.6,47L23.6,47z M22.8,46.2
					l0.8-0.8l0.1,0.1L23,46.4L22.8,46.2L22.8,46.2z"/>
			</g>
			<g>
				<path fill-rule="evenodd" clip-rule="evenodd" fill="#96877D" d="M30.6,46.8c-0.4,0.4-1,0.5-1.3,0.2c-0.3-0.3-0.2-0.9,0.2-1.3
					c0.4-0.4,1-0.5,1.3-0.2C31.1,45.8,31,46.4,30.6,46.8z"/>
				<path fill="#CCCCCC" d="M30.7,46.2L30.3,46l0.2,0.4l-0.1,0.2L30,45.8l-0.1-0.2l0.2,0.1l0.7,0.4L30.7,46.2L30.7,46.2z M30,47
					l-0.8-0.8l0.1-0.1l0.8,0.8L30,47L30,47z"/>
			</g>
		</g>
	</g>
	<path opacity="0.35" fill="#FFFFFF" d="M13,29.7v25.5C26.2,62.6,43.7,67,63,67s36.8-4.5,50-11.8V29.7H13z"/>
</g>
</svg>
