<?xml version="1.0" encoding="utf-8"?>
<!-- Generator: Adobe Illustrator 24.3.0, SVG Export Plug-In . SVG Version: 6.00 Build 0)  -->
<svg version="1.1" id="Layer_1" xmlns="http://www.w3.org/2000/svg" xmlns:xlink="http://www.w3.org/1999/xlink" x="0px" y="0px"
	 viewBox="0 0 126 126" enable-background="new 0 0 126 126" xml:space="preserve">
<g>
	<g>
		<rect x="13" y="29.7" fill="#0437A0" width="100" height="66.7"/>
		<polygon fill="#F39229" points="13,94.2 113,43.8 113,30.7 13,93.1 13,94.2 		"/>
		<path fill="#F4F4F4" d="M36.6,73.4l-0.8-13.8l-2.9,7.6l1.3-8l-4.8,6.6l3.3-7.4l-6.3,5.1l5.1-6.3l-7.4,3.3l6.6-4.7l-8,1.3l7.6-2.9
			l-13.8-0.8l13.8-0.8l-7.6-2.9l8,1.3l-6.6-4.8l7.4,3.3l-5.1-6.3l6.3,5.1L29.4,41l4.8,6.6l-1.3-8l2.9,7.6l0.8-13.8l0.8,13.8l2.9-7.6
			l-1.3,8l4.7-6.6l-3.3,7.4l6.3-5.1l-5.1,6.3l7.4-3.3L42.5,51l8-1.3l-7.6,2.9l13.8,0.8l-13.8,0.8l7.6,2.9l-8-1.3l6.6,4.7l-7.4-3.3
			l5.1,6.3l-6.3-5.1l3.3,7.4L39,59.2l1.3,8l-2.9-7.6L36.6,73.4L36.6,73.4z"/>
	</g>
	<path opacity="0.35" fill="#FFFFFF" d="M13,29.7v25.5C26.2,62.6,43.7,67,63,67c19.3,0,36.8-4.5,50-11.8V29.7H13z"/>
</g>
</svg>
