<?xml version="1.0" encoding="utf-8"?>
<!-- Generator: Adobe Illustrator 24.3.0, SVG Export Plug-In . SVG Version: 6.00 Build 0)  -->
<svg version="1.1" id="Layer_1" xmlns="http://www.w3.org/2000/svg" xmlns:xlink="http://www.w3.org/1999/xlink" x="0px" y="0px"
	 viewBox="0 0 126 126" enable-background="new 0 0 126 126" xml:space="preserve">
<g>
	<g>
		<polygon fill="#107D40" points="13,29.7 113,29.7 113,96.3 13,96.3 13,29.7 		"/>
		<path fill="#FFDE27" d="M83.8,49.2c2.8,10.7-3,21.3-12.5,25.3c-5.4,2.3-11.8,2.2-17.1-0.2C45,70.2,39.4,59.8,42.2,49.2
			c0,8.9,5.7,16.5,13.6,19.5c4.5,1.7,9.5,1.7,14,0.1C78,66,83.8,58.3,83.8,49.2L83.8,49.2z M63,40.8l1.8,5.7l5.9,0L66,49.9l1.8,5.6
			L63,52l-4.8,3.5l1.8-5.6l-4.8-3.5l5.9,0L63,40.8L63,40.8z"/>
	</g>
	<path opacity="0.25" fill="#FFFFFF" d="M13,29.7v25.5C26.2,62.6,43.7,67,63,67s36.8-4.5,50-11.8V29.7H13z"/>
</g>
</svg>
