<?xml version="1.0" encoding="utf-8"?>
<!-- Generator: Adobe Illustrator 24.3.0, SVG Export Plug-In . SVG Version: 6.00 Build 0)  -->
<svg version="1.1" id="Layer_1" xmlns="http://www.w3.org/2000/svg" xmlns:xlink="http://www.w3.org/1999/xlink" x="0px" y="0px"
	 viewBox="0 0 126 126" enable-background="new 0 0 126 126" xml:space="preserve">
<g>
	<g>
		<polygon fill="#FFDE27" points="46.3,29.7 79.7,29.7 79.7,96.3 46.3,96.3 46.3,29.7 		"/>
		<g>
			<path fill-rule="evenodd" clip-rule="evenodd" fill="#B07F55" d="M60.4,55.2C60.4,55.2,60.4,55.2,60.4,55.2c0,0,0.5,0.2,1.4-0.5
				c0,0-0.1,0.6-0.3,0.7c0,0,0.7-0.2,1-0.6c0,0,0.1,0,0.1,0.1c0.1,0.1,0.2,0.3,0.2,0.3s0.1-0.2,0.2-0.3c0.1-0.1,0.1-0.1,0.1-0.1
				c0.3,0.5,1,0.6,1,0.6c-0.1-0.1-0.3-0.7-0.3-0.7c1,0.7,1.4,0.6,1.4,0.6s0,0,0.1,0c0,0,0,0-0.1,0c0.5,0,0.9-0.2,1.1-0.3
				c0.1-0.1,0.4-0.2,0.6-0.3c0,0.1,0,0.4-0.2,0.6c0,0-0.2-0.2-0.5-0.2c0,0,0.5,0.4,0.5,0.4c0,0,0.3-0.2,0.4-0.5c0,0,0.4,0.2,0.5,0.5
				c0,0,0.6-0.6,0.8-1.1c0,0,0.1,0.2,0.2,0.4v1.5l-0.5-0.4l-0.2,0.3l0.7,0.6l0.1,0.1l0.1-0.1l0.4-0.3v10.9l0,0
				c-0.3-0.3-0.5-1-0.7-1.4c-0.1-0.5-0.4-1.6-0.4-1.6l-0.1,0.5L62.8,61l-5.1,3.7l-0.1-0.4c0,0-0.3,1.2-0.4,1.6
				c-0.1,0.5-0.4,1.1-0.7,1.4l0,0V56.4l0.4,0.3l0.1,0.1l0.1-0.1l0.7-0.6l-0.2-0.3L57,56.3v-1.5c0.1-0.2,0.2-0.4,0.2-0.4
				c0.2,0.5,0.8,1.1,0.8,1.1c0.1-0.3,0.5-0.5,0.5-0.5c0.1,0.3,0.4,0.5,0.4,0.5c0-0.1,0.5-0.4,0.5-0.4c-0.3,0-0.5,0.2-0.5,0.2
				c-0.1-0.1-0.2-0.5-0.2-0.6c0.2,0.1,0.5,0.2,0.6,0.3C59.5,55.1,60,55.2,60.4,55.2L60.4,55.2L60.4,55.2z M56.8,55v1.3L56.4,56l0,0
				v-0.5C56.5,55.4,56.7,55.2,56.8,55L56.8,55z M56.4,54.9v-1.4c0.3,0.5,0.7,0.7,0.7,0.7C56.8,54.7,56.5,54.9,56.4,54.9L56.4,54.9z
				 M56.2,53.6v1.4l-0.5-0.4V54L56.2,53.6L56.2,53.6z M56.2,55.4v0.5l0,0l-0.4,0.3V55C55.9,55.1,56.1,55.3,56.2,55.4L56.2,55.4z
				 M55.6,55v1.3l-0.4-0.3l0,0v-0.5L55.6,55L55.6,55z M55.2,54.9v-1.6l0.4,0.7v0.5L55.2,54.9L55.2,54.9z M55,53.4v1.5l-0.5-0.4v-0.6
				L55,53.4L55,53.4z M55,55.4v0.5l0,0l-0.4,0.4V55L55,55.4L55,55.4z M54.4,55v1.3c-0.1-0.1-0.3-0.3-0.4-0.4v-0.5L54.4,55L54.4,55z
				 M54,54.9v-1.2c0-0.2,0.1-0.3,0.1-0.5l0.3,0.5v0.8L54,54.9L54,54.9z M54.3,52.9c0.1-0.2,0.3-0.4,0.5-0.6c0.2-0.2,0.8-0.7,0.9-0.8
				c0,0,0.6,0.6,0.8,0.7c0.2,0.1,0.5,0.4,0.7,0.5c0,0,0,1.2,0,1.4c-0.4-0.2-0.8-0.8-0.8-0.8s0-0.2,0-0.2c0-0.1,0.1-0.2,0.1-0.2
				l-0.2-0.1c0,0-0.1,0.2-0.1,0.3c0,0.1,0,0.1,0,0.1l-0.5,0.5L55.3,53c0,0,0-0.2,0-0.3c0-0.1,0.2-0.3,0.2-0.3l-0.2-0.1
				c-0.1,0.1-0.2,0.2-0.2,0.3c0,0.1,0,0.2,0,0.2l-0.6,0.6L54.3,52.9L54.3,52.9z M57.6,54.5c0.2,0,0.4-0.1,0.6,0
				c0.1,0,0.3,0.1,0.4,0.2c-0.4,0.2-0.7,0.5-0.7,0.5C57.8,55.1,57.7,54.7,57.6,54.5L57.6,54.5z M56.2,56.4v11.2
				C56,67.8,56,67.9,56,68c0,0.2-0.1,0.6-0.1,0.6s-0.6,0.6-0.7,0.7c0,0,0,0,0,0V56.4l0.4,0.3l0.1,0.1l0.1-0.1L56.2,56.4L56.2,56.4z
				 M54.9,56.4V69c0,0,0,0,0,0c0,0.1-0.6,1-0.9,1.2c0,0,0-5.1,0-5.4c0-0.3,0-7,0-7.6v-0.7c0.2,0.2,0.4,0.3,0.4,0.4l0.1,0.1l0.1-0.1
				L54.9,56.4L54.9,56.4z M68.8,55v1.3l0.4-0.3l0,0v-0.5C69.1,55.4,68.9,55.2,68.8,55L68.8,55z M69.2,54.9v-1.4
				c-0.3,0.5-0.7,0.7-0.7,0.7C68.9,54.7,69.1,54.9,69.2,54.9L69.2,54.9z M69.4,53.6v1.4l0.5-0.4V54L69.4,53.6L69.4,53.6z M69.4,55.4
				v0.5l0,0l0.4,0.3V55C69.7,55.1,69.5,55.3,69.4,55.4L69.4,55.4z M70,55v1.3l0.4-0.3l0,0v-0.5L70,55L70,55z M70.5,54.9v-1.6
				L70,53.9v0.5L70.5,54.9L70.5,54.9z M70.6,53.4v1.5l0.5-0.4v-0.6L70.6,53.4L70.6,53.4z M70.6,55.4v0.5l0,0l0.4,0.4V55L70.6,55.4
				L70.6,55.4z M71.2,55v1.3c0.1-0.1,0.3-0.3,0.4-0.4v-0.5L71.2,55L71.2,55z M71.6,54.9v-1.2c0-0.2-0.1-0.3-0.1-0.5l-0.3,0.5v0.8
				L71.6,54.9L71.6,54.9z M71.3,52.9c-0.1-0.2-0.3-0.4-0.5-0.6c-0.2-0.2-0.8-0.7-0.9-0.8c0,0-0.6,0.6-0.8,0.7
				c-0.2,0.1-0.5,0.4-0.7,0.5c0,0,0,1.2,0,1.4c0.4-0.2,0.8-0.8,0.8-0.8s0-0.2,0-0.2c0-0.1-0.1-0.2-0.1-0.2l0.2-0.1
				c0,0,0.1,0.2,0.1,0.3c0,0.1,0,0.1,0,0.1l0.5,0.5l0.5-0.7c0,0,0-0.2,0-0.3c0-0.1-0.2-0.3-0.2-0.3l0.2-0.1c0.1,0.1,0.2,0.2,0.2,0.3
				c0,0.1,0,0.2,0,0.2l0.6,0.6L71.3,52.9L71.3,52.9z M68,54.5c-0.2,0-0.4-0.1-0.6,0c-0.1,0-0.3,0.1-0.4,0.2c0.4,0.2,0.7,0.5,0.7,0.5
				C67.8,55.1,68,54.7,68,54.5L68,54.5z M69.5,56.4v11.2c0.1,0.1,0.2,0.2,0.2,0.4c0,0.2,0.1,0.6,0.1,0.6s0.6,0.6,0.7,0.7
				c0,0,0,0,0,0V56.4L70,56.7l-0.1,0.1l-0.1-0.1L69.5,56.4L69.5,56.4z M70.7,56.4V69c0,0,0,0,0,0c0,0.1,0.6,1,0.9,1.2
				c0,0,0-5.1,0-5.4c0-0.3,0-7,0-7.6v-0.7c-0.2,0.2-0.4,0.3-0.4,0.4l-0.1,0.1l-0.1-0.1L70.7,56.4L70.7,56.4z"/>
			<path fill="#B07F55" d="M62.1,52.6v1.6c0,0.2-0.1,0.4-0.2,0.5c0,0.2-0.1,0.5-0.2,0.6c0.5-0.2,0.8-0.6,0.8-0.6v-2.1h0.2v2.2
				c0.1,0.1,0.1,0.2,0.2,0.3c0.1-0.1,0.2-0.2,0.2-0.3v-2.2h0.2v2.1c0.2,0.3,0.6,0.5,0.8,0.6c-0.1-0.2-0.1-0.5-0.1-0.5
				c0,0-0.3-0.4-0.3-0.6v-1.6h0.2v1.6c0,0.2,0.2,0.5,0.3,0.5c0.4,0.3,0.7,0.4,0.8,0.5c-0.1-0.1-0.2-0.3-0.3-0.4
				c-0.1-0.2-0.3-0.5-0.3-0.7c-0.1-0.2-0.1-0.4-0.1-0.6c0-0.4,0-0.8,0-0.8c0-0.1,0.1-0.3,0.2-0.4c0-0.1,0.1-0.2,0.1-0.2
				c0-0.1,0-0.7,0-0.7l0-0.1l0.1,0c0.1,0,0.2,0,0.2,0c0-0.2-0.2-0.3-0.2-0.3l-0.1-0.1l0.1-0.1c0.1-0.1,0.1-0.1,0.2-0.1
				c-0.1-0.1-0.3-0.2-0.3-0.2l-0.1,0l0-0.1c0,0,0-0.1,0.1-0.1c-0.2-0.1-0.4-0.2-0.6-0.3c-0.1-0.1-0.3-0.1-0.5-0.2
				c-0.5-0.2-0.8-0.2-1-0.2c0,0,0,0-0.1,0c-0.1,0-0.3,0-0.5,0c-0.2,0-0.3,0.1-0.4,0.1c-0.1,0.1-0.1,0.1-0.1,0.2c0.1,0,0.1,0,0.2,0
				c0.2,0,0.2,0,0.4,0.1c0.2,0.1,0.3,0.1,0.6,0.1c0.3,0,0.5,0,0.6,0.1c0.1,0.1,0.5,0.4,0.6,0.5c0,0-0.2,0-0.4-0.2
				c-0.2-0.1-0.4-0.3-0.6-0.3c-0.2,0-0.5,0.1-0.7,0c-0.2-0.1-0.4-0.2-0.6-0.2c-0.1,0-0.2,0-0.2,0.1c0,0.3,0.6,0.4,0.6,0.4l0.1,0
				L62,50.5c-0.1,0-0.1,0.1,0,0.2c0.1,0.2,0.2,0.1,0.3,0.4c-0.1-0.1-0.3-0.2-0.5-0.3c-0.1,0-0.2-0.1-0.3,0c-0.1,0.1-0.1,0.2-0.1,0.2
				c0.1,0.1,0.2,0.4,0.2,0.7c0,0.3,0.1,0.6,0.1,0.9c0,0.3,0,0.6-0.1,0.9c-0.1,0.3-0.1,0.6-0.2,0.8c-0.1,0.3-0.3,0.6-0.5,0.8
				c0.5-0.1,0.8-0.4,0.8-0.5c0.1-0.1,0.2-0.3,0.2-0.5v-1.6H62.1L62.1,52.6z"/>
			
				<path fill-rule="evenodd" clip-rule="evenodd" fill="#FFD200" stroke="#000000" stroke-width="6.194400e-02" stroke-miterlimit="2.4142" d="
				M59.9,48.2c0,0,0.1-0.1,0.3-0.1c0.2,0,0.3,0.1,0.3,0.1c-0.2,0.1-0.2,0.2-0.2,0.4v0.4h0.1h0.3c0.1,0,0.2,0,0.3-0.2
				c0,0,0.1,0.1,0.1,0.3c0,0.2-0.1,0.3-0.1,0.3c-0.1-0.1-0.2-0.2-0.3-0.2h-0.3h-0.1v2.1c0,0.1,0.2,0.3,0.2,0.3
				c-0.2,0.1-0.3,0.3-0.3,0.3s-0.1-0.2-0.3-0.3c0,0,0.2-0.1,0.2-0.3v-2.1h-0.1h-0.3c-0.1,0-0.2,0-0.3,0.2c0,0-0.1-0.1-0.1-0.3
				c0-0.2,0.1-0.3,0.1-0.3c0.1,0.2,0.2,0.2,0.3,0.2h0.3H60v-0.4C60,48.4,60,48.3,59.9,48.2L59.9,48.2z"/>
			<path d="M64.6,50.1C64.5,50.1,64.5,50.1,64.6,50.1c-0.1,0.1-0.1,0.1-0.1,0.1c0.1,0.1,0.2,0.2,0.3,0.3l0.1,0.1l-0.1,0
				c0,0-0.1,0-0.2,0.1c0.1,0.1,0.2,0.3,0.2,0.5l0,0.1l-0.1,0c0,0-0.1,0-0.2-0.1c0,0.2,0.1,0.6,0,0.7c0,0.1-0.1,0.1-0.1,0.2
				c-0.1,0.2-0.2,0.3-0.2,0.4c0,0.1,0,0.4,0,0.8c0,0.2,0.1,0.4,0.1,0.6c0.1,0.2,0.2,0.5,0.3,0.7c0.3,0.4,0.4,0.6,1,0.9
				c-0.7-0.1-1.4-0.4-1.6-0.6c0,0.1,0.1,0.3,0.2,0.5l0.1,0.2l-0.2,0c0,0-0.6-0.2-1-0.6c-0.1,0.1-0.2,0.4-0.3,0.5
				c-0.1-0.1-0.2-0.4-0.3-0.5c-0.1,0.2-0.5,0.5-1,0.6l-0.2,0l0.1-0.1c0,0,0.1-0.2,0.2-0.5c-0.5,0.4-1,0.6-1.6,0.6
				c0.6-0.4,0.9-0.6,1.1-1.3c0.1-0.3,0.2-0.5,0.2-0.8c0.1-0.3,0.1-0.5,0.1-0.8c0-0.3,0-0.6-0.1-0.8c0-0.3-0.1-0.5-0.2-0.6
				c-0.1-0.1-0.5-0.5-0.7-0.6c-0.3-0.1-0.2-0.1-0.2-0.1v-0.1c0,0,0.3,0.1,0.6,0.1c0.3,0.1,0.5,0.1,0.5,0c0-0.1-0.3-0.3-0.6-0.4
				c-0.3-0.1-0.6-0.1-0.8,0.2c0,0,0-0.4,0.3-0.6c0.3-0.2,0.4-0.1,0.6-0.1c0.1,0,0.2,0,0.2-0.1c0-0.1,0-0.1,0.1-0.2
				c0.1-0.1,0.3-0.2,0.5-0.2c0.2,0,0.4,0,0.5,0c0,0,0,0,0.1,0c0.2,0,0.5,0,1,0.3c0.2,0.1,0.3,0.2,0.5,0.2c0.3,0.1,0.5,0.2,0.8,0.3
				l0.4,0.1L64.6,50.1L64.6,50.1z M62.1,52.6v1.6c0,0.2-0.1,0.4-0.2,0.5c0,0.2-0.1,0.5-0.2,0.6c0.5-0.2,0.8-0.6,0.8-0.6v-2.1h0.2
				v2.2c0.1,0.1,0.1,0.2,0.2,0.3c0.1-0.1,0.2-0.2,0.2-0.3v-2.2h0.2v2.1c0.2,0.3,0.6,0.5,0.8,0.6c-0.1-0.2-0.1-0.5-0.1-0.5
				c0,0-0.3-0.4-0.3-0.6v-1.6h0.2v1.6c0,0.2,0.2,0.5,0.3,0.5c0.4,0.3,0.7,0.4,0.8,0.5c-0.1-0.1-0.2-0.3-0.3-0.4
				c-0.1-0.2-0.3-0.5-0.3-0.7c-0.1-0.2-0.1-0.4-0.1-0.6c0-0.4,0-0.8,0-0.8c0-0.1,0.1-0.3,0.2-0.4c0-0.1,0.1-0.2,0.1-0.2
				c0-0.1,0-0.7,0-0.7l0-0.1l0.1,0c0.1,0,0.2,0,0.2,0c0-0.2-0.2-0.3-0.2-0.3l-0.1-0.1l0.1-0.1c0.1-0.1,0.1-0.1,0.2-0.1
				c-0.1-0.1-0.3-0.2-0.3-0.2l-0.1,0l0-0.1c0,0,0-0.1,0.1-0.1c-0.2-0.1-0.4-0.2-0.6-0.3c-0.1-0.1-0.3-0.1-0.5-0.2
				c-0.5-0.2-0.8-0.2-1-0.2c0,0,0,0-0.1,0c-0.1,0-0.3,0-0.5,0c-0.2,0-0.3,0.1-0.4,0.1c-0.1,0.1-0.1,0.1-0.1,0.2c0.1,0,0.1,0,0.2,0
				c0.2,0,0.2,0,0.4,0.1c0.2,0.1,0.3,0.1,0.6,0.1c0.3,0,0.5,0,0.6,0.1c0.1,0.1,0.5,0.4,0.6,0.5c0,0-0.2,0-0.4-0.2
				c-0.2-0.1-0.4-0.3-0.6-0.3c-0.2,0-0.5,0.1-0.7,0c-0.2-0.1-0.4-0.2-0.6-0.2c-0.1,0-0.2,0-0.2,0.1c0,0.3,0.6,0.4,0.6,0.4l0.1,0
				L62,50.5c-0.1,0-0.1,0.1,0,0.2c0.1,0.2,0.2,0.1,0.3,0.4c-0.1-0.1-0.3-0.2-0.5-0.3c-0.1,0-0.2-0.1-0.3,0c-0.1,0.1-0.1,0.2-0.1,0.2
				c0.1,0.1,0.2,0.4,0.2,0.7c0,0.3,0.1,0.6,0.1,0.9c0,0.3,0,0.6-0.1,0.9c-0.1,0.3-0.1,0.6-0.2,0.8c-0.1,0.3-0.3,0.6-0.5,0.8
				c0.5-0.1,0.8-0.4,0.8-0.5c0.1-0.1,0.2-0.3,0.2-0.5v-1.6H62.1L62.1,52.6z"/>
			<path fill-rule="evenodd" clip-rule="evenodd" d="M65.2,55.2c0.3-0.1,0.7-0.2,1-0.4c0.4-0.2,0.7-0.4,1-0.6
				c0.4-0.2,0.6-0.1,0.7-0.1c0,0,0-0.6,0-0.8s-0.1-0.5-0.1-0.7c0,0,0.2-0.1,0.4-0.3c0.2-0.2,0.9-0.8,1.1-1c0.2-0.2,0.5-0.4,0.5-0.4
				s0.8,0.5,1.4,1.2c0.5,0.7,0.8,1.2,0.8,1.4s0,16.6,0,16.8c0,0.3,0,0.7,0.1,0.9c0,0-0.7-0.2-1.4-1.7v0.2c0,0-0.7-0.3-1.2-1.3
				c0,0-0.2,0-0.3-0.2c-0.1-0.2-0.5-0.9-0.8-2c-0.3-1-0.5-1.6-0.5-1.6l0.1-0.5c0,0,0.3,1.2,0.4,1.6c0.1,0.5,0.4,1.1,0.7,1.4l0,0
				V56.4l-0.4,0.3l-0.1,0.1l-0.1-0.1l-0.7-0.6l0.2-0.3l0.5,0.4v-1.5c-0.1-0.2-0.2-0.4-0.2-0.4c-0.2,0.5-0.8,1.1-0.8,1.1
				c-0.1-0.3-0.5-0.5-0.5-0.5c-0.1,0.3-0.4,0.5-0.4,0.5c0-0.1-0.5-0.4-0.5-0.4c0.3,0,0.5,0.2,0.5,0.2c0.1-0.1,0.2-0.5,0.2-0.6
				c-0.2,0.1-0.5,0.2-0.6,0.3C66.1,55.1,65.7,55.2,65.2,55.2L65.2,55.2z M60.4,55.2c-0.3-0.1-0.7-0.2-1-0.4c-0.4-0.2-0.7-0.4-1-0.6
				c-0.4-0.2-0.6-0.1-0.7-0.1c0,0,0-0.6,0-0.8s0.1-0.5,0.1-0.7c0,0-0.2-0.1-0.4-0.3c-0.2-0.2-0.9-0.8-1.1-1
				c-0.2-0.2-0.5-0.4-0.5-0.4s-0.8,0.5-1.4,1.2c-0.5,0.7-0.8,1.2-0.8,1.4s0,16.6,0,16.8c0,0.3,0,0.7-0.1,0.9c0,0,0.7-0.2,1.4-1.7
				v0.2c0,0,0.7-0.3,1.2-1.3c0,0,0.2,0,0.3-0.2c0.1-0.2,0.5-0.9,0.8-2c0.3-1,0.5-1.6,0.5-1.6l-0.1-0.5c0,0-0.3,1.2-0.4,1.6
				c-0.1,0.5-0.4,1.1-0.7,1.4l0,0V56.4l0.4,0.3l0.1,0.1l0.1-0.1l0.7-0.6l-0.2-0.3L57,56.3v-1.5c0.1-0.2,0.2-0.4,0.2-0.4
				c0.2,0.5,0.8,1.1,0.8,1.1c0.1-0.3,0.5-0.5,0.5-0.5c0.1,0.3,0.4,0.5,0.4,0.5c0-0.1,0.5-0.4,0.5-0.4c-0.3,0-0.5,0.2-0.5,0.2
				c-0.1-0.1-0.2-0.5-0.2-0.6c0.2,0.1,0.5,0.2,0.6,0.3C59.5,55.1,60,55.2,60.4,55.2L60.4,55.2z M56.8,55v1.3L56.4,56l0,0v-0.5
				C56.5,55.4,56.7,55.2,56.8,55L56.8,55z M56.4,54.9v-1.4c0.3,0.5,0.7,0.7,0.7,0.7C56.8,54.7,56.5,54.9,56.4,54.9L56.4,54.9z
				 M56.2,53.6v1.4l-0.5-0.4V54L56.2,53.6L56.2,53.6z M56.2,55.4v0.5l0,0l-0.4,0.3V55C55.9,55.1,56.1,55.3,56.2,55.4L56.2,55.4z
				 M55.6,55v1.3l-0.4-0.3l0,0v-0.5L55.6,55L55.6,55z M55.2,54.9v-1.6l0.4,0.7v0.5L55.2,54.9L55.2,54.9z M55,53.4v1.5l-0.5-0.4v-0.6
				L55,53.4L55,53.4z M55,55.4v0.5l0,0l-0.4,0.4V55L55,55.4L55,55.4z M54.4,55v1.3c-0.1-0.1-0.3-0.3-0.4-0.4v-0.5L54.4,55L54.4,55z
				 M54,54.9v-1.2c0-0.2,0.1-0.3,0.1-0.5l0.3,0.5v0.8L54,54.9L54,54.9z M54.3,52.9c0.1-0.2,0.3-0.4,0.5-0.6c0.2-0.2,0.8-0.7,0.9-0.8
				c0,0,0.6,0.6,0.8,0.7c0.2,0.1,0.5,0.4,0.7,0.5c0,0,0,1.2,0,1.4c-0.4-0.2-0.8-0.8-0.8-0.8s0-0.2,0-0.2c0-0.1,0.1-0.2,0.1-0.2
				l-0.2-0.1c0,0-0.1,0.2-0.1,0.3c0,0.1,0,0.1,0,0.1l-0.5,0.5L55.3,53c0,0,0-0.2,0-0.3c0-0.1,0.2-0.3,0.2-0.3l-0.2-0.1
				c-0.1,0.1-0.2,0.2-0.2,0.3c0,0.1,0,0.2,0,0.2l-0.6,0.6L54.3,52.9L54.3,52.9z M57.6,54.5c0.2,0,0.4-0.1,0.6,0
				c0.1,0,0.3,0.1,0.4,0.2c-0.4,0.2-0.7,0.5-0.7,0.5C57.8,55.1,57.7,54.7,57.6,54.5L57.6,54.5z M56.2,56.4v11.2
				C56,67.8,56,67.9,56,68c0,0.2-0.1,0.6-0.1,0.6s-0.6,0.6-0.7,0.7c0,0,0,0,0,0V56.4l0.4,0.3l0.1,0.1l0.1-0.1L56.2,56.4L56.2,56.4z
				 M54.9,56.4V69c0,0,0,0,0,0c0,0.1-0.6,1-0.9,1.2c0,0,0-5.1,0-5.4c0-0.3,0-7,0-7.6v-0.7c0.2,0.2,0.4,0.3,0.4,0.4l0.1,0.1l0.1-0.1
				L54.9,56.4L54.9,56.4z M68.8,55v1.3l0.4-0.3l0,0v-0.5C69.1,55.4,68.9,55.2,68.8,55L68.8,55z M69.2,54.9v-1.4
				c-0.3,0.5-0.7,0.7-0.7,0.7C68.9,54.7,69.1,54.9,69.2,54.9L69.2,54.9z M69.4,53.6v1.4l0.5-0.4V54L69.4,53.6L69.4,53.6z M69.4,55.4
				v0.5l0,0l0.4,0.3V55C69.7,55.1,69.5,55.3,69.4,55.4L69.4,55.4z M70,55v1.3l0.4-0.3l0,0v-0.5L70,55L70,55z M70.5,54.9v-1.6
				L70,53.9v0.5L70.5,54.9L70.5,54.9z M70.6,53.4v1.5l0.5-0.4v-0.6L70.6,53.4L70.6,53.4z M70.6,55.4v0.5l0,0l0.4,0.4V55L70.6,55.4
				L70.6,55.4z M71.2,55v1.3c0.1-0.1,0.3-0.3,0.4-0.4v-0.5L71.2,55L71.2,55z M71.6,54.9v-1.2c0-0.2-0.1-0.3-0.1-0.5l-0.3,0.5v0.8
				L71.6,54.9L71.6,54.9z M71.3,52.9c-0.1-0.2-0.3-0.4-0.5-0.6c-0.2-0.2-0.8-0.7-0.9-0.8c0,0-0.6,0.6-0.8,0.7
				c-0.2,0.1-0.5,0.4-0.7,0.5c0,0,0,1.2,0,1.4c0.4-0.2,0.8-0.8,0.8-0.8s0-0.2,0-0.2c0-0.1-0.1-0.2-0.1-0.2l0.2-0.1
				c0,0,0.1,0.2,0.1,0.3c0,0.1,0,0.1,0,0.1l0.5,0.5l0.5-0.7c0,0,0-0.2,0-0.3c0-0.1-0.2-0.3-0.2-0.3l0.2-0.1c0.1,0.1,0.2,0.2,0.2,0.3
				c0,0.1,0,0.2,0,0.2l0.6,0.6L71.3,52.9L71.3,52.9z M68,54.5c-0.2,0-0.4-0.1-0.6,0c-0.1,0-0.3,0.1-0.4,0.2c0.4,0.2,0.7,0.5,0.7,0.5
				C67.8,55.1,68,54.7,68,54.5L68,54.5z M69.5,56.4v11.2c0.1,0.1,0.2,0.2,0.2,0.4c0,0.2,0.1,0.6,0.1,0.6s0.6,0.6,0.7,0.7
				c0,0,0,0,0,0V56.4L70,56.7l-0.1,0.1l-0.1-0.1L69.5,56.4L69.5,56.4z M70.7,56.4V69c0,0,0,0,0,0c0,0.1,0.6,1,0.9,1.2
				c0,0,0-5.1,0-5.4c0-0.3,0-7,0-7.6v-0.7c-0.2,0.2-0.4,0.3-0.4,0.4l-0.1,0.1l-0.1-0.1L70.7,56.4L70.7,56.4z"/>
			<path fill-rule="evenodd" clip-rule="evenodd" d="M60.4,55.2c-0.3-0.1-0.7-0.2-1-0.4c-0.4-0.2-0.7-0.4-1-0.6
				c-0.4-0.2-0.6-0.1-0.7-0.1c0,0,0-0.6,0-0.8s0.1-0.5,0.1-0.7c0,0-0.2-0.1-0.4-0.3c-0.2-0.2-0.9-0.8-1.1-1
				c-0.2-0.2-0.5-0.4-0.5-0.4s-0.8,0.5-1.4,1.2c-0.5,0.7-0.8,1.2-0.8,1.4s0,16.6,0,16.8c0,0.3,0,0.7-0.1,0.9c0,0,0.7-0.2,1.4-1.7
				v0.2c0,0,0.7-0.3,1.2-1.3c0,0,0.2,0,0.3-0.2c0.1-0.2,0.5-0.9,0.8-2c0.3-1,0.5-1.6,0.5-1.6l-0.1-0.5c0,0-0.3,1.2-0.4,1.6
				c-0.1,0.5-0.4,1.1-0.7,1.4l0,0V56.4l0.4,0.3l0.1,0.1l0.1-0.1l0.7-0.6l-0.2-0.3L57,56.3v-1.5c0.1-0.2,0.2-0.4,0.2-0.4
				c0.2,0.5,0.8,1.1,0.8,1.1c0.1-0.3,0.5-0.5,0.5-0.5c0.1,0.3,0.4,0.5,0.4,0.5c0-0.1,0.5-0.4,0.5-0.4c-0.3,0-0.5,0.2-0.5,0.2
				c-0.1-0.1-0.2-0.5-0.2-0.6c0.2,0.1,0.5,0.2,0.6,0.3C59.5,55.1,60,55.2,60.4,55.2L60.4,55.2z M56.8,55v1.3L56.4,56l0,0v-0.5
				C56.5,55.4,56.7,55.2,56.8,55L56.8,55z M56.4,54.9v-1.4c0.3,0.5,0.7,0.7,0.7,0.7C56.8,54.7,56.5,54.9,56.4,54.9L56.4,54.9z
				 M56.2,53.6v1.4l-0.5-0.4V54L56.2,53.6L56.2,53.6z M56.2,55.4v0.5l0,0l-0.4,0.3V55C55.9,55.1,56.1,55.3,56.2,55.4L56.2,55.4z
				 M55.6,55v1.3l-0.4-0.3l0,0v-0.5L55.6,55L55.6,55z M55.2,54.9v-1.6l0.4,0.7v0.5L55.2,54.9L55.2,54.9z M55,53.4v1.5l-0.5-0.4v-0.6
				L55,53.4L55,53.4z M55,55.4v0.5l0,0l-0.4,0.4V55L55,55.4L55,55.4z M54.4,55v1.3c-0.1-0.1-0.3-0.3-0.4-0.4v-0.5L54.4,55L54.4,55z
				 M54,54.9v-1.2c0-0.2,0.1-0.3,0.1-0.5l0.3,0.5v0.8L54,54.9L54,54.9z M54.3,52.9c0.1-0.2,0.3-0.4,0.5-0.6c0.2-0.2,0.8-0.7,0.9-0.8
				c0,0,0.6,0.6,0.8,0.7c0.2,0.1,0.5,0.4,0.7,0.5c0,0,0,1.2,0,1.4c-0.4-0.2-0.8-0.8-0.8-0.8s0-0.2,0-0.2c0-0.1,0.1-0.2,0.1-0.2
				l-0.2-0.1c0,0-0.1,0.2-0.1,0.3c0,0.1,0,0.1,0,0.1l-0.5,0.5L55.3,53c0,0,0-0.2,0-0.3c0-0.1,0.2-0.3,0.2-0.3l-0.2-0.1
				c-0.1,0.1-0.2,0.2-0.2,0.3c0,0.1,0,0.2,0,0.2l-0.6,0.6L54.3,52.9L54.3,52.9z M57.6,54.5c0.2,0,0.4-0.1,0.6,0
				c0.1,0,0.3,0.1,0.4,0.2c-0.4,0.2-0.7,0.5-0.7,0.5C57.8,55.1,57.7,54.7,57.6,54.5L57.6,54.5z M56.2,56.4v11.2
				C56,67.8,56,67.9,56,68c0,0.2-0.1,0.6-0.1,0.6s-0.6,0.6-0.7,0.7c0,0,0,0,0,0V56.4l0.4,0.3l0.1,0.1l0.1-0.1L56.2,56.4L56.2,56.4z
				 M54.9,56.4V69c0,0,0,0,0,0c0,0.1-0.6,1-0.9,1.2c0,0,0-5.1,0-5.4c0-0.3,0-7,0-7.6v-0.7c0.2,0.2,0.4,0.3,0.4,0.4l0.1,0.1l0.1-0.1
				L54.9,56.4L54.9,56.4z"/>
			<g>
				<path fill-rule="evenodd" clip-rule="evenodd" d="M58.5,67.2c0,0-0.6,0.9-0.7,1.1c-0.1,0.2-0.3,0.5-0.4,0.5
					c-0.1,0.1-0.4,0-0.5,0c-0.2,0-0.5,0.2-0.6,0.3c-0.1,0.1-0.2,0.2-0.3,0.4c-0.1,0.2-0.1,0.5,0.1,0.7c0,0,0-0.1,0.1-0.1
					c0.1,0.1,0.4,0.5,0.5,0.6c0.1,0.1,0.4,0.1,0.5,0c0.1-0.1,0.3-0.3,0.3-0.3s0.3-0.3,0.4-0.5c0.1-0.2,0.2-0.3,0.3-0.5
					c0.1-0.1,1.2-1.6,1.3-1.7l-0.2-0.5L59,67.4l-0.2-0.3L58.5,67.2L58.5,67.2z"/>
				<path fill-rule="evenodd" clip-rule="evenodd" fill="#D10429" d="M58.8,67.2c0,0-0.3,0.5-0.5,0.7c-0.1,0.2-0.6,0.9-0.6,1
					s-0.1,0.2-0.3,0.2c-0.2,0-0.4,0-0.5,0c-0.2,0.1-0.4,0.2-0.4,0.3c-0.1,0.1-0.1,0.1,0,0.2c0,0.1,0.1,0,0.2,0s0.2-0.2,0.4-0.2
					c0.2,0,0.4,0,0.5-0.1c0.1,0,0.1-0.1,0.1,0c0,0.1-0.1,0.1-0.2,0.2c-0.1,0.1-0.2,0.2-0.1,0.2c0,0,0.2,0,0.2-0.1c0,0,0.1-0.1,0.1,0
					c0,0.1,0,0.2,0,0.3c0.1,0.1,0.1,0.1,0.1,0.1c0-0.1,0.1-0.4,0.2-0.4c0-0.1,0.4-0.5,0.5-0.7c0.1-0.1,0.5-0.7,0.6-0.9
					c0.1-0.2,0.3-0.5,0.3-0.5l-0.1-0.3l-0.1,0l-0.2,0L58.8,67.2L58.8,67.2L58.8,67.2z M56.8,70.5c0.1-0.1,0.3-0.3,0.4-0.3
					c0,0,0.1,0,0.1,0c0,0,0.1,0.1,0.1,0.1c0,0,0,0.1,0,0.1S57,70.7,57,70.7c0,0-0.1,0-0.1,0c0,0,0,0-0.1-0.1
					C56.8,70.6,56.8,70.6,56.8,70.5L56.8,70.5z M56.6,70.3c0.1-0.1,0.3-0.3,0.4-0.3s0.1,0,0.1,0c0,0,0.1,0.1,0.1,0.1
					c0,0,0,0.1,0,0.1c-0.1,0.1-0.4,0.3-0.4,0.3c0,0-0.1,0-0.1,0s0,0-0.1-0.1C56.5,70.4,56.5,70.3,56.6,70.3L56.6,70.3z M56.3,70
					c0.1-0.1,0.3-0.3,0.4-0.3c0,0,0.1,0,0.1,0c0,0,0.1,0.1,0.1,0.1c0,0,0,0.1,0,0.1c-0.1,0.1-0.4,0.3-0.4,0.3c0,0-0.1,0-0.1,0
					c0,0,0,0-0.1-0.1C56.3,70.1,56.3,70.1,56.3,70L56.3,70z M56.4,69.7c0.1-0.1,0.1-0.1,0.2-0.1c0,0,0,0,0.1,0c0,0,0,0,0,0
					c0,0,0,0,0,0.1C56.6,69.7,56.5,69.8,56.4,69.7C56.5,69.8,56.5,69.8,56.4,69.7C56.4,69.8,56.4,69.7,56.4,69.7
					C56.4,69.7,56.4,69.7,56.4,69.7L56.4,69.7z"/>
				<path fill-rule="evenodd" clip-rule="evenodd" d="M58.9,66.1c0,0-0.4,0.8-0.6,1.1c0,0,0.2,0.1,0.5,0c0,0,0,0.3,0.1,0.4
					c0,0,0.2-0.1,0.3-0.2c0,0,0.1,0.4,0.2,0.7c0,0,0.8-1,1.2-1.2C60,66.8,59.4,66.4,58.9,66.1L58.9,66.1z"/>
				<path fill-rule="evenodd" clip-rule="evenodd" fill="#B07F55" d="M59.1,66.3c0,0-0.2,0.5-0.5,0.7c0,0,0.2,0,0.4-0.1
					c0,0,0,0.3,0.1,0.4c0,0,0.2,0,0.3-0.2c0,0,0.1,0.3,0.1,0.4c0,0,0.3-0.3,0.7-0.7L59.1,66.3L59.1,66.3z"/>
			</g>
			<g>
				<path fill-rule="evenodd" clip-rule="evenodd" d="M67.1,67.2c0,0,0.6,0.9,0.7,1.1c0.1,0.2,0.3,0.5,0.4,0.5c0.1,0.1,0.4,0,0.5,0
					c0.2,0,0.5,0.2,0.6,0.3c0.1,0.1,0.2,0.2,0.3,0.4c0.1,0.2,0.1,0.5-0.1,0.7c0,0,0-0.1-0.1-0.1c-0.1,0.1-0.4,0.5-0.5,0.6
					c-0.1,0.1-0.4,0.1-0.5,0c-0.1-0.1-0.3-0.3-0.3-0.3s-0.3-0.3-0.4-0.5c-0.1-0.2-0.2-0.3-0.3-0.5c-0.1-0.1-1.2-1.6-1.3-1.7l0.2-0.5
					l0.3,0.1l0.2-0.3L67.1,67.2L67.1,67.2z"/>
				<path fill-rule="evenodd" clip-rule="evenodd" fill="#D10429" d="M66.9,67.2c0,0,0.3,0.5,0.5,0.7c0.1,0.2,0.6,0.9,0.6,1
					c0.1,0.1,0.1,0.2,0.3,0.2c0.2,0,0.4,0,0.5,0c0.2,0.1,0.4,0.2,0.4,0.3c0.1,0.1,0.1,0.1,0,0.2c0,0.1-0.1,0-0.2,0
					c-0.1-0.1-0.2-0.2-0.4-0.2c-0.2,0-0.4,0-0.5-0.1s-0.1-0.1-0.1,0c0,0.1,0.1,0.1,0.2,0.2c0.1,0.1,0.1,0.2,0.1,0.2
					c0,0-0.2,0-0.2-0.1c0,0-0.1-0.1-0.1,0c0,0.1,0,0.2,0,0.3C68,70.1,68,70.1,68,70.1c0-0.1-0.1-0.4-0.2-0.4c0-0.1-0.4-0.5-0.5-0.7
					c-0.1-0.1-0.5-0.7-0.6-0.9c-0.1-0.2-0.4-0.5-0.4-0.5l0.1-0.3l0.1,0l0.2,0L66.9,67.2L66.9,67.2L66.9,67.2z M68.8,70.5
					c-0.1-0.1-0.3-0.3-0.4-0.3s-0.1,0-0.1,0c0,0-0.1,0.1-0.1,0.1c0,0,0,0.1,0,0.1s0.4,0.3,0.4,0.3c0,0,0.1,0,0.1,0c0,0,0,0,0.1-0.1
					C68.9,70.6,68.9,70.6,68.8,70.5L68.8,70.5z M69.1,70.3c-0.1-0.1-0.3-0.3-0.4-0.3c0,0-0.1,0-0.1,0c0,0-0.1,0.1-0.1,0.1
					c0,0,0,0.1,0,0.1c0.1,0.1,0.4,0.3,0.4,0.3c0,0,0.1,0,0.1,0c0,0,0,0,0.1-0.1C69.1,70.4,69.1,70.3,69.1,70.3L69.1,70.3z M69.3,70
					c-0.1-0.1-0.3-0.3-0.4-0.3s-0.1,0-0.1,0c0,0-0.1,0.1-0.1,0.1c0,0,0,0.1,0,0.1c0.1,0.1,0.4,0.3,0.4,0.3c0,0,0.1,0,0.1,0
					c0,0,0,0,0.1-0.1C69.3,70.1,69.3,70.1,69.3,70L69.3,70z M69.2,69.7c-0.1-0.1-0.1-0.1-0.2-0.1c0,0,0,0-0.1,0c0,0,0,0,0,0
					c0,0,0,0,0,0.1C69,69.7,69.1,69.8,69.2,69.7C69.2,69.8,69.2,69.8,69.2,69.7C69.2,69.8,69.2,69.7,69.2,69.7
					C69.2,69.7,69.2,69.7,69.2,69.7L69.2,69.7z"/>
				<path fill-rule="evenodd" clip-rule="evenodd" d="M66.8,66.1c0,0,0.4,0.8,0.6,1.1c0,0-0.2,0.1-0.5,0c0,0,0,0.3-0.1,0.4
					c0,0-0.2-0.1-0.3-0.2c0,0-0.1,0.4-0.2,0.7c0,0-0.8-1-1.2-1.2C65.7,66.8,66.2,66.4,66.8,66.1L66.8,66.1z"/>
				<path fill-rule="evenodd" clip-rule="evenodd" fill="#B07F55" d="M66.6,66.3c0,0,0.2,0.5,0.5,0.7c0,0-0.2,0-0.4-0.1
					c0,0,0,0.3-0.1,0.4c0,0-0.2,0-0.3-0.2c0,0-0.1,0.3-0.1,0.4c0,0-0.3-0.3-0.7-0.7L66.6,66.3L66.6,66.3z"/>
			</g>
			<g>
				<path fill-rule="evenodd" clip-rule="evenodd" fill="#FFD200" d="M62.1,50c0.1,0,0.2,0.1,0.2,0.2c0,0.1-0.1,0.2-0.2,0.2
					c-0.1,0-0.2-0.1-0.2-0.2C61.9,50.1,62,50,62.1,50L62.1,50z"/>
				<path fill-rule="evenodd" clip-rule="evenodd" d="M62.1,50c0.2,0,0.3,0.1,0.3,0.2c0,0.1-0.1,0.2-0.3,0.2c-0.2,0-0.3-0.1-0.3-0.2
					C61.8,50,61.9,50,62.1,50L62.1,50z M62.1,50.1C62.1,50.1,62.1,50.1,62.1,50.1c0.1,0.1,0,0.1,0,0.1C62,50.2,62,50.2,62.1,50.1
					C62,50.1,62,50.1,62.1,50.1L62.1,50.1z M62.1,50c0.1,0,0.2,0.1,0.2,0.2c0,0.1-0.1,0.2-0.2,0.2c-0.1,0-0.2-0.1-0.2-0.2
					C61.9,50.1,62,50,62.1,50L62.1,50z"/>
			</g>
			<path fill-rule="evenodd" clip-rule="evenodd" fill="#D10429" d="M60.2,50.1c0.2-0.2,0.3-0.2,0.6-0.2c0.3,0,0.5,0,0.5,0
				s0.1,0.1,0.2,0.3c0.1,0.1,0.2,0.3,0.2,0.4C61.6,50.5,61.1,49.8,60.2,50.1L60.2,50.1z M61.1,50c0,0,0,0.1,0.1,0.1
				c0.1,0,0.1,0,0.1,0C61.2,50.1,61.1,49.9,61.1,50L61.1,50z"/>
			<path fill-rule="evenodd" clip-rule="evenodd" fill="#D10429" d="M60.9,50.6c0,0,0.2,0.2,0.4,0.3c0,0,0.1-0.2,0.2-0.3
				C61.5,50.6,61.1,50.7,60.9,50.6L60.9,50.6z"/>
			<path fill-rule="evenodd" clip-rule="evenodd" d="M61.6,67.4c-0.5,1.2-2.2,4.4-3.6,5.1c0,0,1.6,0.8,2,1c0,0,1.3-1.7,1.4-2
				c0,0,0,0.6-1,2.2c0,0,2,1.2,2.4,1.9c0,0,0.4-0.9,2.4-1.9c0,0-1.1-1.7-1-2.2c0,0,1.1,1.7,1.4,2c0,0,1.7-0.9,2-1c0,0-1-0.4-2.1-2.2
				c-1.1-1.9-1.5-2.8-1.5-2.8l-0.2,0.1c0,0,0.4,1.1,0.8,1.7c0.3,0.6,0.9,1.6,1.3,2.1c0.4,0.5,1,1.1,1,1.1s-0.7,0.1-1.1,0.4
				c0,0-0.9-1-1.3-1.9c-0.5-0.9-0.9-2-0.9-2.2c0,0-0.1,0.4,0.1,1.6c0.2,1.2,0.5,2.2,1,3.1c0,0-1.2,0.6-1.7,1.1c0,0-0.5-0.6-1.7-1.1
				c0,0,1.4-2.6,1.1-4.6c0,0-0.4,1.9-2.2,4.1c0,0-0.8-0.3-1.1-0.4c0,0,0.8-0.6,1.6-2c0.8-1.4,1.4-2.9,1.4-2.9
				C61.8,67.4,61.7,67.4,61.6,67.4L61.6,67.4z"/>
			<path fill-rule="evenodd" clip-rule="evenodd" fill="#B07F55" d="M61.9,67.2l-0.1,0.3c0.1,0,0.1,0,0.2,0c0,0-0.6,1.5-1.4,2.9
				c-0.8,1.4-1.6,2-1.6,2c0.3,0.1,1.1,0.4,1.1,0.4c1.8-2.2,2.2-4.1,2.2-4.1c0.3,2-1.1,4.6-1.1,4.6c1.2,0.6,1.7,1.1,1.7,1.1
				c0.5-0.6,1.7-1.1,1.7-1.1c-0.5-0.9-0.8-1.9-1-3.1c-0.2-1.2-0.1-1.6-0.1-1.6c0,0.3,0.4,1.3,0.9,2.2c0.5,0.9,1.3,1.9,1.3,1.9
				c0.5-0.3,1.1-0.4,1.1-0.4s-0.6-0.5-1-1.1c-0.4-0.5-0.9-1.5-1.3-2.1c-0.3-0.6-0.8-1.7-0.8-1.7l0.1-0.1c-0.1-0.2-0.2-0.4-0.2-0.4
				L61.9,67.2L61.9,67.2z"/>
			<g>
				
					<path fill-rule="evenodd" clip-rule="evenodd" fill="#FFD200" stroke="#000000" stroke-width="7.226900e-02" stroke-miterlimit="2.4142" d="
					M68.3,70.7c0.1,0.1,0.2,0.1,0.1,0.2c0,0.1-0.1,0.1-0.3,0C68,70.9,68,70.8,68,70.8C68,70.7,68.2,70.7,68.3,70.7z"/>
				
					<path fill-rule="evenodd" clip-rule="evenodd" fill="#FFD200" stroke="#000000" stroke-width="8.259300e-02" stroke-miterlimit="2.4142" d="
					M67.8,71.7l0-0.8c0,0,0.4-0.1,0.7,0.3L67.8,71.7L67.8,71.7z"/>
				
					<path fill-rule="evenodd" clip-rule="evenodd" fill="#FFD200" stroke="#000000" stroke-width="7.747500e-02" stroke-miterlimit="2.4142" d="
					M69.4,68.5c-0.4-0.2-0.7,0.3-0.3,0.5C69.5,69.3,69.8,68.7,69.4,68.5L69.4,68.5z"/>
				
					<path fill-rule="evenodd" clip-rule="evenodd" fill="#FFD200" stroke="#000000" stroke-width="7.226900e-02" stroke-miterlimit="2.4142" d="
					M70.7,65.6c-0.1,0.2-0.7,1.5-0.8,1.6c-0.1,0.2-0.1,0.1-0.2,0.3c-0.2,0.1-0.4,0.2-0.4,0.4c0,0.2-0.1,0.4,0.2,0.6
					c0.2,0.2,0.5-0.1,0.6-0.2c0.1-0.1,0-0.4,0.1-0.6c0-0.2,0.2-0.5,0.3-0.7c0.1-0.2,0.6-1.2,0.6-1.2c0-0.1,0.1-0.2,0-0.3
					C70.9,65.4,70.8,65.5,70.7,65.6L70.7,65.6z"/>
				
					<path fill-rule="evenodd" clip-rule="evenodd" fill="#FFD200" stroke="#000000" stroke-width="7.226900e-02" stroke-miterlimit="2.4142" d="
					M71.1,65.2c0.1,0.1,0.2,0.2,0.1,0.3c-0.1,0.1-0.3,0.1-0.3,0c-0.1,0-0.2-0.2-0.1-0.3C70.9,65,71.1,65.1,71.1,65.2L71.1,65.2z"/>
				
					<path fill-rule="evenodd" clip-rule="evenodd" fill="#FFD200" stroke="#000000" stroke-width="7.767300e-02" stroke-miterlimit="2.4142" d="
					M71.3,64.8c0.1,0.1,0.2,0.2,0.2,0.3c-0.1,0.1-0.3,0.1-0.3,0c-0.1,0-0.3-0.2-0.1-0.3C71.1,64.7,71.3,64.8,71.3,64.8L71.3,64.8z"
					/>
				
					<path fill-rule="evenodd" clip-rule="evenodd" fill="#FFD200" stroke="#000000" stroke-width="6.842100e-02" stroke-miterlimit="2.4142" d="
					M71.5,64.4c0.1,0,0.2,0.2,0.1,0.3c-0.1,0.1-0.2,0.1-0.3,0.1c0,0-0.2-0.2-0.1-0.3C71.3,64.3,71.4,64.4,71.5,64.4L71.5,64.4z"/>
				
					<path fill-rule="evenodd" clip-rule="evenodd" fill="#FFD200" stroke="#000000" stroke-width="6.842300e-02" stroke-miterlimit="2.4142" d="
					M72.1,62.8c0,0-0.6,1.2-0.7,1.3c-0.1,0.1-0.1,0.2,0,0.3c0.1,0.1,0.2,0,0.3-0.2c0.1-0.1,0.6-1.2,0.7-1.4c0.1-0.1,0.2-0.3,0.2-0.3
					c0.2-0.3-0.3-0.6-0.4-0.2C72.2,62.6,72.2,62.6,72.1,62.8L72.1,62.8z"/>
				
					<path fill-rule="evenodd" clip-rule="evenodd" fill="#FFD200" stroke="#000000" stroke-width="6.842300e-02" stroke-miterlimit="2.4142" d="
					M73.4,60.6c-0.3-0.1-0.7-0.1-0.7,0c-0.1,0,0,0.5,0,0.8c0,0.2-0.2,0.4-0.3,0.5c-0.1,0.1,0,0.2,0.1,0.3c0.1,0.1,0.5,0.1,0.6,0
					c0-0.1,0.1-0.4,0.3-0.6c0.2-0.1,0.5-0.3,0.5-0.4C73.9,61.2,73.7,60.8,73.4,60.6L73.4,60.6z"/>
				<path d="M73.4,60.7c-0.1,0-0.2,0-0.3,0.1c-0.1,0-0.1,0-0.1,0.1c0,0,0,0.1,0,0.2c0,0.1,0,0.3-0.1,0.5c-0.1,0.3-0.3,0.7-0.3,0.7
					l-0.1,0c0,0,0.2-0.4,0.3-0.7c0.1-0.2,0.1-0.4,0.1-0.5c0-0.1,0-0.2,0-0.2c0,0,0.1-0.1,0.2-0.1C73.2,60.7,73.3,60.6,73.4,60.7
					L73.4,60.7L73.4,60.7z"/>
				<path d="M73.4,60.6L73.4,60.6L73.4,60.6c0.1,0.2,0.1,0.4,0.1,0.5c0,0.1-0.1,0.2-0.2,0.3c-0.1,0.1-0.2,0.2-0.3,0.3l0,0
					c-0.1,0.1-0.1,0.2-0.2,0.3c0,0.1-0.1,0.2-0.1,0.3l-0.1,0c0-0.1,0.1-0.2,0.1-0.3c0.1-0.1,0.1-0.2,0.2-0.3l0,0
					c0.1-0.1,0.2-0.2,0.3-0.3c0.1-0.1,0.2-0.2,0.2-0.2C73.5,61,73.5,60.9,73.4,60.6L73.4,60.6C73.4,60.7,73.4,60.7,73.4,60.6
					L73.4,60.6L73.4,60.6z"/>
				
					<path fill-rule="evenodd" clip-rule="evenodd" fill="#FFD200" stroke="#000000" stroke-width="6.842300e-02" stroke-miterlimit="2.4142" d="
					M73.6,60.2c0.1,0.1,0.2,0.2,0.1,0.4c-0.1,0.1-0.2,0.1-0.3,0.1c-0.1,0-0.2-0.2-0.1-0.3C73.3,60.2,73.5,60.1,73.6,60.2L73.6,60.2z
					"/>
				
					<path fill-rule="evenodd" clip-rule="evenodd" fill="#FFD200" stroke="#000000" stroke-width="6.842300e-02" stroke-miterlimit="2.4142" d="
					M73.9,59.7v0.6c0,0,0,0,0,0c-0.1,0-0.3-0.1-0.5-0.2c0,0,0,0,0,0L73.9,59.7L73.9,59.7z"/>
			</g>
			<g>
				<g>
					
						<polygon fill-rule="evenodd" clip-rule="evenodd" fill="#FFD200" stroke="#000000" stroke-width="0.1445" stroke-miterlimit="2.4142" points="
						58.2,71.7 57.5,71.3 57.7,70.6 58.4,70.9 58.2,71.7 					"/>
					<path fill-rule="evenodd" clip-rule="evenodd" d="M57.5,70.5l0.1,0.3l0.1-0.1l0.2,0.1l-0.2-0.4C57.7,70.2,57.6,70.4,57.5,70.5
						L57.5,70.5z"/>
				</g>
				<path fill-rule="evenodd" clip-rule="evenodd" d="M52.5,59.4c0,0,0.6,0.3,0.7,0.6c0,0,0.1-0.4,0.2-0.6c0,0,0.7,0.8,0.3,1.6
					l0.2,0.1c0,0,0.2-0.1,0.4,0.1c0,0,0.2,0.2,0.2,0.6c0,0,0.2-0.3,0.3-0.4c0,0,0.7,1.3-0.2,1.9l0.1,0.2c0,0,0.2,0,0.3-0.1
					c0.1-0.1,0.2-0.1,0.3,0c0.1,0.1,0.1,0.2,0.1,0.2s0.3-0.2,0.3-0.3c0,0,0.2,0.3,0.2,0.7c0.2-0.2,0.2-0.2,0.3-0.3
					c0,0,0.4,1.5-0.5,1.9l0,0.1c0,0,0.1,0,0.2-0.1c0.1-0.1,0.2-0.1,0.3-0.1c0.1,0,0.1,0.2,0.1,0.2c0,0.1,0,0.2-0.2,0.2
					c-0.2,0-0.2-0.1-0.3-0.1c-0.1,0-0.1,0-0.1,0l0.5,1.1c0,0-0.2-0.6,0.5-1.2c0,0,0.3,0.5,0.3,1c0,0,0.3-0.2,0.4-0.2
					c0,0,0.2,1-0.8,1.5l0,0.1c0,0,0.1,0,0.2,0c0.1-0.1,0.2-0.2,0.4-0.1c0.2,0.1,0,0.4,0,0.4c-0.1,0.1-0.2,0.1-0.3,0
					c-0.1-0.1-0.1-0.1-0.2-0.1l0.2,0.3c0,0-0.3,0-0.3,0l-0.2-0.3l0,0.1c0,0,0.1,0.2,0,0.3c-0.1,0.1-0.3,0.1-0.4,0
					c-0.1-0.1-0.1-0.2,0-0.3c0-0.1,0.2-0.1,0.2-0.1c0,0,0-0.1,0-0.1s-0.7,0.4-1.8-0.6c0,0,0.2-0.1,0.5-0.1c0,0-0.4-0.3-0.5-0.7
					c0,0,0.7,0,1.5,0.4l-0.6-1.2c0,0-0.1,0-0.1,0.1c0,0.1,0,0.2-0.1,0.3c-0.1,0.1-0.2,0.1-0.3-0.1c-0.1-0.1-0.1-0.3,0-0.4
					c0.1-0.1,0.1,0,0.2-0.1c0.1,0,0.2-0.2,0.2-0.2l-0.1-0.3c0,0-1,0.4-1.5-0.3c0,0,0.1-0.1,0.4-0.2c0,0-0.3-0.3-0.4-0.6
					c0,0,0.4-0.2,1,0.2c0,0-0.3-0.8-0.4-1c0,0,0,0-0.1,0.1c0,0.1,0,0.3-0.1,0.3c-0.1,0.1-0.2,0.1-0.3,0c-0.1-0.1-0.1-0.3,0-0.4
					c0.1-0.1,0.2-0.1,0.2-0.1c0.1,0,0.2-0.1,0.2-0.1l-0.2-0.4c0,0-1.2,0.4-1.7-0.7c0,0,0.1-0.1,0.4-0.1c0,0-0.3-0.2-0.3-0.4
					c0,0,0.6-0.1,1.2,0.2l-0.4-0.9c0,0-0.1,0-0.1,0.1c0,0.1,0,0.3-0.1,0.3c-0.1,0.1-0.3,0-0.3,0c-0.1-0.1-0.1-0.2,0-0.3
					c0.1-0.1,0.2-0.1,0.2-0.1c0.1,0,0.1-0.1,0.1-0.1s-0.9,0.1-1.1-1c0,0,0.3,0,0.6,0.2C52.7,60.5,52.3,60.1,52.5,59.4L52.5,59.4z"/>
				<path fill-rule="evenodd" clip-rule="evenodd" fill="#097754" d="M52.6,59.7c0,0-0.1,0.7,0.5,0.9C53.2,60.6,53.2,59.9,52.6,59.7
					L52.6,59.7z M55,68c0.3,0,1,0,1.3,0.3C56.3,68.3,55.7,68.7,55,68L55,68z M55,67.4c0.3,0,1,0,1.4,0.6C56.4,68,55.3,68.2,55,67.4
					L55,67.4z M56.9,68c0,0-0.2-0.6,0.6-1C57.5,67,57.5,67.9,56.9,68L56.9,68z M56.9,66.3c0,0,0.2,0.4,0.2,0.8c0,0-0.3,0.2-0.3,0.5
					C56.7,67.7,56.2,67,56.9,66.3L56.9,66.3z M54.1,65.6c0,0,0.7-0.4,1.2,0.2C55.3,65.8,54.5,66.1,54.1,65.6L54.1,65.6z M54.5,65.4
					c0,0-0.3-0.2-0.4-0.5c0,0,0.6-0.1,1.2,0.7C55.3,65.6,54.9,65.3,54.5,65.4L54.5,65.4z M56.1,64.3c0,0-0.6,0.4-0.3,1.3
					C55.8,65.6,56.3,65.3,56.1,64.3L56.1,64.3z M55.6,63.9c-0.2,0.3-0.6,0.6-0.1,1.2c0,0,0-0.4,0.2-0.6
					C55.7,64.5,55.8,64.2,55.6,63.9L55.6,63.9z M52.9,62.9c0,0,0.6-0.1,1,0.4C54,63.3,53.1,63.4,52.9,62.9L52.9,62.9z M52.9,62.3
					c0,0,0.7-0.1,1,0.5C53.9,62.8,53.2,62.9,52.9,62.3L52.9,62.3z M54.7,61.9c0,0,0.4,0.7-0.1,1.3C54.6,63.2,54.2,62.5,54.7,61.9
					L54.7,61.9z M54.2,61.6c0,0,0.3,0.4,0.1,1C54.3,62.6,54,62.1,54.2,61.6L54.2,61.6z M52.4,60.6c0,0,0.3,0.7,0.8,0.6
					C53.2,61.2,53.1,60.6,52.4,60.6L52.4,60.6z M53.4,59.8c0,0,0.4,0.5,0.1,1.1C53.5,60.9,53.2,60.4,53.4,59.8L53.4,59.8z"/>
				<path fill-rule="evenodd" clip-rule="evenodd" fill="#FFD200" d="M53.6,61.8c0.1,0.2,0.3,0.7,0.4,0.8c0.1,0.1,0.1,0.1,0.2,0.1
					c0.1,0,0.1-0.1,0-0.2c0-0.1-0.4-0.7-0.4-0.8C53.7,61.7,53.5,61.6,53.6,61.8L53.6,61.8z M55.6,66.1c0.1,0.3,0.3,0.7,0.4,0.9
					c0.1,0.2,0.5,1.1,0.6,1.2c0.1,0.2,0.1,0.2,0.2,0.3c0.1,0.1,0.1,0.1,0.1,0c-0.1-0.1-0.3-0.6-0.4-0.8c-0.1-0.2-0.7-1.6-0.8-1.7
					C55.7,65.9,55.6,65.8,55.6,66.1L55.6,66.1z M54.6,64c0.1,0.2,0.3,0.5,0.4,0.8c0.1,0.3,0.1,0.3,0.2,0.4c0.1,0.2,0.2,0.1,0.1,0
					c0-0.1-0.2-0.4-0.3-0.6c-0.1-0.2-0.2-0.6-0.3-0.7C54.7,63.9,54.5,63.8,54.6,64L54.6,64z"/>
			</g>
			<g>
				<g>
					<path fill="#0437A0" d="M68.1,61.1v3.5c0,0.2,0,0.4-0.1,0.5c-0.1,0.2-0.2,0.3-0.3,0.4c-0.2,0.1-0.5,0.3-0.9,0.5
						c-0.3,0.2-0.8,0.4-1.2,0.6c-0.2,0.1-0.4,0.2-0.6,0.2c-0.8,0.4-1.9,0.8-2.1,1.2l-0.1,0.1l-0.1-0.1c-0.3-0.4-1.3-0.8-2.1-1.2
						c-0.2-0.1-0.4-0.2-0.6-0.2c-0.4-0.2-0.8-0.4-1.2-0.6c-0.4-0.2-0.7-0.4-0.9-0.5c-0.2-0.1-0.3-0.3-0.3-0.4
						c-0.1-0.2-0.1-0.3-0.1-0.5v-3.5H68.1L68.1,61.1z"/>
					<path fill="#D10429" d="M57.4,55.6h5.4h5.4h0.2l-0.3,0.2c0,0-0.1,0.2-0.1,0.6v4.6H57.6v-4.6c0-0.5-0.1-0.7-0.1-0.7l-0.2-0.2
						H57.4L57.4,55.6z"/>
				</g>
				
					<path fill-rule="evenodd" clip-rule="evenodd" fill="#FFD200" stroke="#000000" stroke-width="0.1445" stroke-miterlimit="2.4142" d="
					M64.5,60.9l0.4,0.9c0,0-0.8,0.1-1.1,0.5c-0.3,0.4-0.3,1.1-0.3,1.5c0,0.4,0,1.1,0.2,1.4c0.2,0.3,0.7,0.4,0.7,0.8
					c0,0.3-0.5,0.4-0.7,0.5c-0.2,0.1-0.4,0.4-0.8,0.4c-0.4,0-0.6-0.2-0.8-0.4c-0.3-0.2-0.8-0.3-0.8-0.6c0-0.3,0.6-0.6,0.7-0.8
					c0.1-0.2,0.1-1,0.1-1.4c0-0.3,0-1.2-0.4-1.6s-1.1-0.4-1.1-0.4l0.4-0.9c0,0-1.3-0.4-1.6-1.4c-0.3-1,0-1.7,0.2-2
					c0.4-0.6,0.8-0.8,1.2-1.2c0,0-0.1,0.5-0.2,0.8c-0.1,0.3-0.4,0.9-0.4,1.6c0,0.7,0.5,1.1,0.8,1.2c0.3,0.1,0.4,0.1,0.5,0.1
					c0.1,0.1,0.3,0.1,0.4,0c0.1-0.1,0.3-0.2,0.5,0c0.3,0.2,0.4,0.1,0.6,0c0.2-0.2,0.3-0.1,0.5,0c0.2,0.1,0.3,0.2,0.4,0
					c0.1-0.1,0.2-0.1,0.4-0.1c0.2,0,0.9-0.5,0.9-1.2c0-0.7,0-0.9-0.2-1.4c-0.2-0.5-0.4-0.9-0.4-1.1c0.1,0.1,0.3,0.3,0.7,0.5
					c0.3,0.3,0.7,0.8,0.9,1.3C66.4,58.7,66.5,60.2,64.5,60.9L64.5,60.9z"/>
				
					<path fill-rule="evenodd" clip-rule="evenodd" fill="#FFD200" stroke="#000000" stroke-width="0.1652" stroke-miterlimit="2.4142" d="
					M65.1,61.1c0,0,0.7-0.2,1.2-0.7c0,0,0.5,0.6,1.3,0.7c0,0-0.7,0.3-1.3,0.8C66.3,62,65.6,61.3,65.1,61.1L65.1,61.1z"/>
				
					<path fill-rule="evenodd" clip-rule="evenodd" fill="#FFD200" stroke="#000000" stroke-width="0.1652" stroke-miterlimit="2.4142" d="
					M60.5,61.1c0,0-0.7-0.2-1.2-0.7c0,0-0.5,0.6-1.3,0.7c0,0,0.7,0.3,1.3,0.8C59.3,62,60,61.3,60.5,61.1L60.5,61.1z"/>
				
					<polygon fill-rule="evenodd" clip-rule="evenodd" fill="#FFD200" stroke="#000000" stroke-width="0.1445" stroke-miterlimit="2.4142" points="
					61,62.7 61.4,62.4 61.7,62.7 61.4,63 61,62.7 				"/>
				
					<path fill-rule="evenodd" clip-rule="evenodd" fill="#FFD200" stroke="#000000" stroke-width="0.1445" stroke-miterlimit="2.4142" d="
					M61.1,63.3c0,0,0.2,1,0.2,2.1c0,0,0.4-0.1,0.5-0.6c0.1-0.5,0.1-1.3-0.1-1.5C61.7,63.4,61.4,63.3,61.1,63.3L61.1,63.3z"/>
				<path fill-rule="evenodd" clip-rule="evenodd" d="M61.5,66.1c0-0.1,0.3-0.2,0.4-0.2c0.1,0,0.4,0,0.4,0.2c0,0.2-0.2,0.2-0.4,0.2
					C61.8,66.3,61.5,66.2,61.5,66.1L61.5,66.1z M64.1,66.1c0-0.1-0.3-0.2-0.4-0.2c-0.1,0-0.4,0-0.4,0.2c0,0.2,0.2,0.2,0.4,0.2
					C63.8,66.3,64.1,66.2,64.1,66.1L64.1,66.1z"/>
				
					<path fill-rule="evenodd" clip-rule="evenodd" fill="#FFD200" stroke="#000000" stroke-width="0.1445" stroke-miterlimit="2.4142" d="
					M66,63.8c0.4,0,0.7,0.2,0.9,0.5c0,0-0.1,0-0.1,0c-0.6,0-1.1,0.5-1.1,1.1c0,0.1,0,0.3,0.1,0.4c-0.4-0.1-0.7-0.5-0.7-1
					C64.9,64.2,65.4,63.8,66,63.8L66,63.8z"/>
				
					<polygon fill-rule="evenodd" clip-rule="evenodd" fill="#FFD200" stroke="#000000" stroke-width="0.1445" stroke-miterlimit="2.4142" points="
					64.6,62.7 64.3,62.4 64,62.7 64.3,63 64.6,62.7 				"/>
				
					<path fill-rule="evenodd" clip-rule="evenodd" fill="#FFD200" stroke="#000000" stroke-width="0.1445" stroke-miterlimit="2.4142" d="
					M64.5,63.3c0,0-0.2,1-0.2,2.1c0,0-0.4-0.1-0.5-0.6c-0.1-0.5-0.1-1.3,0.1-1.5C64,63.4,64.2,63.3,64.5,63.3L64.5,63.3z"/>
				<path fill-rule="evenodd" clip-rule="evenodd" fill="#FFD200" d="M59.5,63.3c0.3,0,0.5,0.2,0.5,0.5c0,0,0,0.1,0,0.1c0,0,0,0,0,0
					c0.2-0.2,0.5-0.3,0.7-0.1c0.2,0.2,0.3,0.5,0.1,0.7c-0.1,0.1-0.2,0.2-0.3,0.2c0.1,0,0.3,0.1,0.3,0.3c0.1,0.2,0,0.5-0.2,0.7
					c-0.2,0.1-0.5,0-0.6-0.2c0,0.2-0.2,0.4-0.5,0.4c-0.3,0-0.5-0.2-0.5-0.5c0-0.1,0-0.2,0.1-0.3c-0.1,0-0.2,0-0.2,0
					c-0.3,0-0.4-0.3-0.4-0.6c0-0.3,0.3-0.4,0.6-0.4c0.1,0,0.1,0,0.1,0.1C59,64.1,59,64,59,63.8C59,63.6,59.2,63.3,59.5,63.3
					L59.5,63.3z"/>
				<path fill-rule="evenodd" clip-rule="evenodd" d="M59.5,63.3c0.3,0,0.5,0.2,0.5,0.5c0,0,0,0.1,0,0.1c0,0,0,0,0,0
					c0.2-0.2,0.5-0.3,0.7-0.1c0.2,0.2,0.3,0.5,0.1,0.7c-0.1,0.1-0.2,0.2-0.3,0.2c0.1,0,0.3,0.1,0.3,0.3c0.1,0.2,0,0.5-0.2,0.7
					c-0.2,0.1-0.5,0-0.6-0.2c0,0.2-0.2,0.4-0.5,0.4c-0.3,0-0.5-0.2-0.5-0.5c0-0.1,0-0.2,0.1-0.3c-0.1,0-0.2,0-0.2,0
					c-0.3,0-0.4-0.3-0.4-0.6c0-0.3,0.3-0.4,0.6-0.4c0.1,0,0.1,0,0.1,0.1C59,64.1,59,64,59,63.8C59,63.6,59.2,63.3,59.5,63.3
					L59.5,63.3z M59.9,64C59.9,64,59.9,64,59.9,64c0-0.3-0.2-0.5-0.4-0.5c-0.2,0-0.4,0.2-0.4,0.4c0,0.2,0.1,0.3,0.2,0.4
					c-0.1,0-0.1-0.1-0.2-0.1c0,0-0.1,0-0.1,0c-0.2,0-0.4,0.1-0.5,0.3c0,0.2,0.1,0.4,0.3,0.5c0.1,0,0.2,0,0.3-0.1c0.1,0,0.1-0.1,0,0
					c0,0-0.1,0.1-0.1,0.1C59,65.1,59,65.2,59,65.3c0,0.2,0.2,0.4,0.4,0.4c0.2,0,0.4-0.1,0.4-0.3c-0.1-0.3,0-0.3,0.1,0
					c0.1,0.2,0.3,0.2,0.5,0.1c0.2-0.1,0.3-0.3,0.2-0.5c-0.1-0.1-0.2-0.2-0.3-0.2c0,0,0,0-0.1,0c0,0,0,0,0,0c0.1,0,0.3,0,0.4-0.2
					c0.1-0.2,0.1-0.4-0.1-0.6C60.4,63.8,60.1,63.8,59.9,64c0,0.1,0,0.1,0,0.2C59.9,64.1,59.9,64.1,59.9,64L59.9,64z"/>
				<path fill="none" stroke="#000000" stroke-width="0.1652" stroke-miterlimit="2.4142" d="M59.7,64.2c0.3,0,0.5,0.2,0.5,0.5
					s-0.2,0.5-0.5,0.5c-0.3,0-0.5-0.2-0.5-0.5S59.4,64.2,59.7,64.2z"/>
				
					<polygon fill-rule="evenodd" clip-rule="evenodd" fill="#FFD200" stroke="#000000" stroke-width="0.1445" stroke-miterlimit="2.4142" points="
					62.8,56.3 63.1,57.2 63.8,56.7 63.4,57.5 64.2,57.7 63.4,58 63.8,58.7 63.1,58.3 62.8,59.2 62.6,58.3 61.8,58.7 62.3,58 
					61.4,57.7 62.3,57.5 61.8,56.7 62.6,57.2 62.8,56.3 				"/>
				<path fill="#FFD200" d="M62.8,55.8h-5.2c0.1,0.1,0.1,0.3,0.1,0.6v8.3c0,0.2,0,0.3,0.1,0.4c0,0.1,0.1,0.2,0.3,0.3
					c0.2,0.1,0.5,0.3,0.8,0.5c0.4,0.2,0.8,0.4,1.1,0.6c0.2,0.1,0.4,0.2,0.6,0.2c0.8,0.3,1.8,0.8,2.2,1.2c0.4-0.4,1.4-0.8,2.2-1.2
					c0.2-0.1,0.4-0.2,0.6-0.2c0.4-0.2,0.8-0.4,1.1-0.6c0.4-0.2,0.7-0.4,0.8-0.5c0.1-0.1,0.2-0.2,0.3-0.3c0.1-0.1,0.1-0.3,0.1-0.4
					v-8.3c0-0.3,0.1-0.5,0.1-0.6H62.8L62.8,55.8z M57.4,55.6h5.5h5.5h0.4l-0.3,0.2c0,0-0.2,0.2-0.2,0.6v8.3c0,0.2,0,0.4-0.1,0.5
					c-0.1,0.2-0.2,0.3-0.3,0.4c-0.2,0.1-0.5,0.3-0.9,0.5c-0.4,0.2-0.8,0.4-1.2,0.6c-0.2,0.1-0.4,0.2-0.6,0.3
					c-0.8,0.4-1.9,0.8-2.2,1.2l-0.1,0.1l-0.1-0.1c-0.3-0.4-1.3-0.8-2.2-1.2c-0.2-0.1-0.4-0.2-0.6-0.3c-0.4-0.2-0.8-0.4-1.2-0.6
					c-0.4-0.2-0.7-0.4-0.9-0.5c-0.2-0.1-0.3-0.3-0.3-0.4c-0.1-0.2-0.1-0.3-0.1-0.5v-8.3c0-0.5-0.2-0.6-0.2-0.6L57,55.6H57.4
					L57.4,55.6z"/>
			</g>
		</g>
		<polygon fill="#F90805" points="79.7,29.7 113,29.7 113,96.3 79.7,96.3 79.7,29.7 		"/>
		<polygon fill="#0437A0" points="13,29.7 46.3,29.7 46.3,96.3 13,96.3 13,29.7 		"/>
	</g>
	<path opacity="0.35" fill="#FFFFFF" d="M13,29.7v25.5C26.2,62.6,43.7,67,63,67c19.3,0,36.8-4.5,50-11.8V29.7H13z"/>
</g>
</svg>
