<?xml version="1.0" encoding="utf-8"?>
<!-- Generator: Adobe Illustrator 24.3.0, SVG Export Plug-In . SVG Version: 6.00 Build 0)  -->
<svg version="1.1" id="Layer_1" xmlns="http://www.w3.org/2000/svg" xmlns:xlink="http://www.w3.org/1999/xlink" x="0px" y="0px"
	 viewBox="0 0 126 126" enable-background="new 0 0 126 126" xml:space="preserve">
<g>
	<g>
		<path fill-rule="evenodd" clip-rule="evenodd" fill="#F90805" d="M13,96.3h33.3V29.7H13V96.3L13,96.3z M79.7,96.3H113V29.7H79.7
			V96.3L79.7,96.3z"/>
		<polygon fill-rule="evenodd" clip-rule="evenodd" fill="#49A9F6" points="46.3,96.3 79.7,96.3 79.7,29.7 46.3,29.7 46.3,96.3 		
			"/>
		<path fill-rule="evenodd" clip-rule="evenodd" fill="#FFDE27" d="M28.7,67.6c-1.3,0.3-2.6,1-3.4,2.3c-1.5,2.4-0.8,5.6,1.5,7.1
			c0.1,0.1,0.2,0.1,0.3,0.2c-0.2-0.3-0.4-0.7-0.4-1.1c-0.2-0.8-0.1-1.6,0.4-2.3c0.1-0.1,0.1-0.2,0.2-0.3c0.8-1,1.6-1.1,2.4-1.2
			c0.7-0.1,1.4-0.2,1.9-0.9c0.1-0.1,0.2-0.3,0.2-0.4c0.2-0.5,0.3-1.2,0.1-1.8C31.5,67.5,30.1,67.3,28.7,67.6L28.7,67.6z M28.1,41
			c-0.2,0.4-0.1,0.6,0,0.7c0.1,0.2,0.2,0.4,0.2,0.7c0.1,0.3-0.3,0.7-0.3,1.1c0,0.4,0.3,0.5,0.5,0.5c0.3,0,0.5-0.2,0.5-0.6
			c0-0.3-0.4-0.7-0.4-1.1c0-0.4,0.2-1.1,0.4-1.5c0.2-0.4,0.1-1.3,0-1.6c0-0.3,0.1-0.7,0.5-0.9c0,0-0.4,0.3,0.1,1
			c0.5,0.7,0.9,1.2,1,2.1c0.1,0.9-0.4,1.3-0.5,1.6c-0.1,0.3-0.1,0.8,0.4,0.8c0.5,0.1,0.6-0.5,0.5-0.9c-0.2-0.4-0.3-0.9,0-1.3
			c0.2-0.4,0.3-0.7,0.2-0.9c0,0,0.5,0.3,0.4,0.9c-0.1,0.6-0.2,0.6,0.2,1.1s0.5,1.3,0.1,2.2c-0.4,0.9-1.5,1.5-2.3,1.5
			c-0.8,0-1.8-0.5-2.3-1.4c-0.4-0.9-0.3-1.6,0-2.1c0.3-0.5,0.4-0.4,0.4-0.8C27.6,42,27.5,41.5,28.1,41L28.1,41z M29.7,47.8
			c2.3,0,4.1,1.8,4.1,4.1S32,56,29.7,56c-2.3,0-4.1-1.8-4.1-4.1S27.4,47.8,29.7,47.8L29.7,47.8z M35.5,53.1c0,3.4-2.6,6.1-5.8,6.1
			c-3.2,0-5.7-2.7-5.8-6.1c0.9,2.3,3.1,4,5.8,4S34.6,55.4,35.5,53.1L35.5,53.1z M35.9,60.2h5.2v24.9h-5.2V60.2L35.9,60.2z
			 M18.3,60.2h5.2v24.9h-5.2V60.2L18.3,60.2z M24.5,78.9h10.4v2.1H24.5V78.9L24.5,78.9z M29.7,85.1l2.6-1.5l2.6-1.5h-5.1h-5.1
			l2.6,1.5L29.7,85.1L29.7,85.1z M29.7,63.3l2.6-1.5l2.6-1.5h-5.1h-5.1l2.6,1.5L29.7,63.3L29.7,63.3z M24.5,64.4h10.4v2.1H24.5V64.4
			L24.5,64.4z M30.1,77.8c1.6-0.1,3-0.9,3.9-2.4c1.5-2.4,0.9-5.6-1.5-7.1c-0.1-0.1-0.2-0.1-0.2-0.1c0.1,0.3,0.3,0.5,0.3,0.8
			c0.2,0.8,0.1,1.6-0.2,2.2c-0.1,0.2-0.2,0.4-0.3,0.5c-0.7,1-1.5,1.1-2.3,1.2c-0.7,0.1-1.4,0.2-2,0.9c-0.1,0.1-0.1,0.1-0.2,0.2
			c-0.3,0.5-0.4,1.2-0.3,1.8C27.7,77.5,28.7,77.9,30.1,77.8L30.1,77.8z M29.7,68.8c0.6,0,1,0.5,1,1s-0.5,1-1,1s-1-0.5-1-1
			S29.1,68.8,29.7,68.8L29.7,68.8z M29.7,74.3c0.6,0,1,0.5,1,1c0,0.6-0.5,1-1,1s-1-0.5-1-1C28.7,74.8,29.1,74.3,29.7,74.3L29.7,74.3
			z"/>
	</g>
	<path opacity="0.35" fill="#FFFFFF" d="M13,29.7v25.5C26.2,62.6,43.7,67,63,67c19.3,0,36.8-4.5,50-11.8V29.7H13z"/>
</g>
</svg>
