<?xml version="1.0" encoding="utf-8"?>
<!-- Generator: Adobe Illustrator 24.3.0, SVG Export Plug-In . SVG Version: 6.00 Build 0)  -->
<svg version="1.1" id="Layer_1" xmlns="http://www.w3.org/2000/svg" xmlns:xlink="http://www.w3.org/1999/xlink" x="0px" y="0px"
	 viewBox="0 0 126 126" enable-background="new 0 0 126 126" xml:space="preserve">
<g>
	<g>
		<polygon fill="#D4AF3A" points="13,29.7 113,29.7 113,96.3 13,96.3 13,29.7 		"/>
		<polygon fill="#C20B18" points="16.3,33.1 109.7,33.1 109.7,92.9 16.3,92.9 16.3,33.1 		"/>
		<g>
			<path fill-rule="evenodd" clip-rule="evenodd" fill="#B96B29" d="M56,51.1c0,0,0.1-0.7,1.1-0.7c0.9,0,1.4,0.4,1.6,0.5
				c0.2,0.1,1.1,0,1.6-0.4c0-0.1-0.1-0.2-0.1-0.3c-0.1-0.2-0.1-0.2-0.2-0.3c-0.2-0.1-0.2-0.1-0.2-0.2c0-0.1,0-0.1,0.1-0.3
				c0.2-0.1,0.1-0.4,0-0.5c-0.2-0.1-0.5-0.3-0.6-0.4c-0.1-0.1-0.3,0-0.4,0c-0.1,0-0.1-0.1-0.2-0.2c-0.1-0.1-0.2-0.1-0.3-0.3
				c0-0.2,0-0.3,0.1-0.4c0.1-0.1,0-0.1-0.1-0.2c-0.1-0.1-0.1-0.2-0.1-0.3c0-0.1,0-0.1,0-0.1s-0.2-0.2-0.1-0.4
				c0.1-0.2,0.3-0.2,0.3-0.2s0-0.3,0.3-0.6c0,0-0.1-0.2,0.1-0.4c0.2-0.1,0.4-0.1,0.4-0.1s0.3-0.2,0.7-0.4c0,0,0-0.2,0.2-0.3
				c0.2-0.1,0.3,0,0.3,0s0.4-0.2,1-0.2c0,0,0.6-0.3,1.1-0.4c-0.4-0.5-0.2-1.2,0.5-1.4v-0.2c0,0-0.3,0.1-0.4,0c0,0-0.1-0.4-0.1-0.5
				c0-0.1,0.1-0.1,0.1-0.1c0.1,0,0.3,0,0.3,0s-0.1-0.3-0.1-0.3c0-0.1,0.1-0.1,0.1-0.1c0.1,0,0.2,0,0.2,0s0.2,0,0.2,0
				c0.1,0,0.1,0,0.1,0.1c0,0.1-0.1,0.3-0.1,0.3s0.2,0,0.3,0c0.1,0,0.1,0,0.1,0.1c0,0.1,0,0.5-0.1,0.5c0,0-0.4,0-0.4,0v0.2
				c0.6,0.2,0.8,0.8,0.5,1.4c0.5,0.1,1.1,0.4,1.1,0.4c0.6,0.1,1,0.2,1,0.2s0.2-0.1,0.3,0c0.2,0.1,0.2,0.3,0.2,0.3
				c0.4,0.2,0.7,0.4,0.7,0.4s0.2,0,0.4,0.1c0.2,0.2,0.1,0.4,0.1,0.4c0.3,0.3,0.3,0.6,0.3,0.6s0.3,0,0.3,0.2c0.1,0.2-0.1,0.4-0.1,0.4
				s0,0,0,0.1c0,0.1,0,0.2-0.1,0.3c-0.1,0.1-0.1,0.1-0.1,0.2c0.1,0.1,0.1,0.2,0.1,0.4c0,0.2-0.1,0.3-0.3,0.3
				c-0.1,0.1-0.1,0.1-0.2,0.2c-0.1,0-0.3,0-0.4,0c-0.1,0.1-0.4,0.2-0.6,0.4c-0.2,0.1-0.2,0.3,0,0.5c0.2,0.1,0.1,0.1,0.1,0.3
				c0,0.1,0,0.1-0.2,0.2c-0.2,0.1-0.2,0-0.2,0.3c0,0.1-0.1,0.2-0.1,0.3c0.5,0.4,1.4,0.5,1.6,0.4c0.2-0.1,0.7-0.5,1.6-0.5
				c0.9,0,1.1,0.7,1.1,0.7s0.9-0.3,1.3,0.1c0.4,0.3,0.4,1,0.4,1.2c0,0.3-0.2,0.3-0.2,0.2c-0.1-0.1-0.2-0.4-0.7-0.4
				c-0.5,0-1.1,0.6-1.1,0.6c0.4-0.1,1.1-0.1,1.5,0c0.5,0.1,0.7,0.2,1.1,0c0.4-0.2,0.4-0.7,0.4-0.8c0-0.1,0.1-0.2,0.2-0.1
				c0.1,0.1,0.2,0.3,0.3,0.6c0.1,0.4-0.1,1-0.9,1.2C72,53.9,71,53.5,71,53.5c-1.1,1.5-2.3,0.8-2.3,0.8c-0.4,0.4-0.4,0.9-0.5,1.2
				c-0.1,0.3-0.6-0.2-0.6-0.2s0,0,0,0.6c0,0.6,0.2,0.9,0.1,1c0,0.1-0.5,0-0.5,0c0,0.6,0.3,1,0.4,1.2c0.1-0.1,0.3-0.1,0.3-0.1l2,2.4
				c-0.7,1-0.7,2.5-0.7,2.7c0.1,0,0.3,0,0.4-0.2c0.3-0.3,0.2-0.5,0.5-0.7c0.3-0.2,0.7-0.1,1-0.1c0.3,0,0.8-0.1,0.9-0.5
				c0.1-0.4,0-0.5-0.4-0.8c-0.3-0.3-0.8-0.6-0.9-1c-0.1-0.4-0.1-1,0.3-1.5c0.4-0.5,0.7-0.8,1.2-1.5c0.5-0.6,0.8-1.4,0.9-1.5
				c0.1-0.2,0.2-0.4,0.3-0.2c0.1,0.2,0.3,0.5,0.3,0.5s0.3-0.4,0.5-0.6c0.2-0.2,0.4-0.7,0.8-1.4c0.3-0.6,0.6-1.8,0.7-2.1
				c0.1-0.3,0.3,0,0.3,0s0.4-1.5,0.4-1.9c0-0.4,0.2-2.6,0.2-2.8c0-0.2,0-0.3,0.1-0.1c0.1,0.1,0.3,0.4,0.6,1.1
				c0.3,0.7,0.4,2.1,0.3,2.8c0,0.7-0.2,1.7-0.4,2.1c-0.1,0.4,0,0.4,0,0.2c0.1-0.1,0.1-0.1,0.3-0.7c0.2-0.5,0.5-1.8,0.6-2.4
				c0.1-0.6,0.1-1.6,0.1-1.7c0-0.2,0-0.3,0.2,0.1c0.3,0.4,0.5,1.2,0.5,2.2c0,0.9-0.3,2.8-0.4,3.3c-0.1,0.4-0.6,1.6-0.7,1.8
				c-0.1,0.2,0,0.1,0.1,0c0.1-0.1,0.2-0.3,0.3-0.5c0.1-0.2,0.6-1,0.7-1.4c0.1-0.3,0.5-1.6,0.6-1.9c0.1-0.4,0.1-1.3,0.4-0.5
				c0.3,0.8,0.2,1.5,0.2,2.3c-0.1,0.8-0.5,1.7-0.7,2c-0.2,0.3-0.9,1.4-1,1.5c-0.1,0.1-0.1,0.2,0.1,0.1s0.2-0.2,0.5-0.5
				c0.3-0.3,0.8-1,1-1.3c0.1-0.3,0.7-1.2,0.8-1.4c0.1-0.2,0.2-0.2,0.2,0.1c0,0.3,0.1,0.9-0.3,1.9c-0.3,1-1.1,1.9-1.2,2.1
				c-0.2,0.2-1.1,1-1.2,1.1c-0.2,0.1-0.3,0.2,0,0.1c0.3-0.1,1.4-0.9,1.6-1.1c0.2-0.2,0.5-0.5,0.7-0.7s0.6-0.6,0.7-0.7
				c0.1-0.1,0.2-0.1,0.1,0.4c-0.1,0.5-0.1,0.7-0.5,1.3c-0.4,0.6-0.8,1.1-1.1,1.3c-0.3,0.2-1.2,0.7-1.4,0.7c-0.1,0.1-0.1,0.1,0.1,0
				c0.2,0,0.1,0,0.6-0.2c0.5-0.2,1-0.4,1.2-0.6c0.2-0.1,0.9-0.6,1-0.7c0.1-0.1,0.3-0.2,0.2-0.1c0,0.1,0.1,0.5-0.5,1.3
				c-0.5,0.8-1.4,1.2-1.8,1.4c-0.4,0.2-1.5,0.6-1.8,0.7c-0.3,0.1,0,0.1,0.4,0c0.4-0.1,1-0.3,1.6-0.5c0.6-0.3,1.1-0.6,1.3-0.7
				c0.1-0.1,0.2-0.2,0.2,0c0,0.1,0,0.3-0.2,0.9c-0.3,0.6-0.9,1.2-1.7,1.4c-0.8,0.3-1.5,0.3-1.8,0.4c-0.3,0-0.1,0.1,0.2,0.1
				c0.3,0,0.9,0,1.4-0.1c0.5-0.1,0.9-0.2,1.1-0.3c0.2-0.1,0.2,0.1,0.1,0.1c0,0.1-0.1,0.3-0.2,0.5c-0.1,0.2-0.3,0.8-1.1,1
				c-0.9,0.3-1.9,0.4-2,0.4c-0.2,0,0,0.1,0.2,0.1c0.1,0,0.5,0,0.9,0c0.4,0,0.9-0.1,1-0.2c0.1,0,0.2,0.2,0,0.6
				c-0.2,0.4-0.6,0.7-1.1,0.9c-0.5,0.2-1.3,0.1-1.5,0.1c-0.2,0-0.2,0,0,0.1c0.2,0.1,0.6,0.2,0.8,0.2c0.2,0,0.2,0,0.2,0.1
				c0,0.1,0.1,0.5-0.7,0.8c-0.7,0.3-1.5,0.2-1.8,0.1c-0.3-0.1-0.4,0-0.1,0.1c0.2,0.1,0.6,0.2,0.9,0.3c0.3,0,0.2,0.1,0.1,0.2
				c-0.1,0.1-0.2,0.3-0.8,0.5c-0.6,0.2-1.6,0.1-1.8,0.1c-0.3-0.1-0.1,0.1,0.1,0.2c0.2,0.1,0.2,0.3,0.1,0.4c-0.1,0.1-0.7,0.3-1.4,0.2
				c-0.7,0-1.2-0.6-1.4-0.8c-0.1-0.2-0.2-0.1-0.1,0c0.1,0.1,0.1,0.2,0.3,0.4c0.1,0.2,0.3,0.5,0.1,0.5c-0.2,0-0.6,0.2-1,0
				c-0.3-0.1-0.6-0.6-0.7-0.8L69,69.8c0.1,0.2,0.2,0.6,0.4,0.8c0.2,0.3,0.7,0.7,1.1,0.9c0.4,0.2,0.8,0.3,1.1,0.3
				c0.3,0,0.1,0.3,0,0.4c-0.1,0.1-0.2,0.2,0,0.3c0.2,0.1,0.8,0.2,1.2,0.3c0.3,0.1,0.1,0.2-0.2,0.4c-0.2,0.2-0.2,0.2-0.1,0.3
				c0.1,0.1,0.4,0.3,0.7,0.4c0.2,0.1,0,0.2-0.4,0.3c0,0,0.1,0.1,0.2,0.2c0.2,0.2,1.2,0.9,1.4,1.1c0.2,0.1,0.3,0,0.2-0.2
				c-0.1-0.2-0.2-0.4-0.4-0.6c-0.1-0.2-0.3-0.4-0.3-0.7c0-0.4,0.2-0.5,0.3-0.7c0.1-0.1,0.1-0.2,0.1-0.3c0-0.2,0.1-0.3,0.2-0.4
				c0.1-0.1,0.3-0.2,0.3-0.3c0.1-0.1,0.2-0.4,0.7-0.9c0.5-0.4,1.2-0.5,1.4-0.5c0.2,0,0.4,0,0.5-0.1c0.1-0.1,0.1-0.2,0.2-0.3
				c0.1-0.1-0.2-0.1-0.3-0.1c-0.2,0-0.2-0.1-0.1-0.2c0-0.1,0.1-0.4,0.2-0.6c0-0.2,0.1-0.2,0.2-0.2c0.1,0,0.1,0.1,0.2,0.2
				c0.1,0.1,0.2,0.1,0.2,0c0-0.1,0-0.1,0-0.3c0-0.1,0.1-0.2,0.2-0.2c0.1,0,0.4,0.1,0.6,0.2c0.1,0.1,0.2,0.1,0.2,0.2
				c-0.1,0.1-0.1,0.2-0.2,0.3c-0.1,0.1,0.2,0.1,0.3,0.1c0.1,0,0.2,0.1,0.2,0.2c0,0.1-0.2,0.5-0.2,0.6c-0.1,0.1-0.3,0-0.3-0.1
				c-0.1-0.1-0.1,0-0.1,0c0,0.1,0,0.3,0,0.4c0,0.1,0.1,0.1,0.1,0.2c0.1,0,0,0.1,0.1,0.2c0.1,0.1,0.5,0.3,0.8,0.7
				c0.3,0.4,0.4,1,0.4,1.3c0,0.3,0,0.3,0.1,0.4c0.1,0.1,0.1,0.2,0.1,0.5c0,0.3,0.1,0.3,0.2,0.4c0.1,0.1,0.1,0.5-0.1,0.8
				C80,75.5,79.3,75.8,79,76c-0.3,0.1-1.9,0.7-2.3,0.8c-0.4,0.1-1.4,0.5-1.9,0.4c-0.5-0.1-0.8-0.3-1.1-0.6c-0.3-0.3-0.6-0.4-1.1-0.6
				c-0.4-0.2-1-0.3-1.3-0.4c-0.1,0.7-0.4,0.4-0.9,0c-0.6-0.4-1.5-0.9-1.5-0.9s-0.1,0.2-0.3,0.5c-0.2,0.2-0.4-0.2-0.6-0.4
				c-0.2-0.3-1-1.4-1.4-1.8c-0.2-0.2-0.7-0.7-1.1-1c-0.1,0-0.1,0.1-0.2,0.1c0,0.1,0.1,0.2,0.1,0.3c0.2,0.3,0.2,0.6,0.4,0.7
				c0.1,0.2,0.6,0.6,0.8,1.1c0.2,0.5,0.2,1.2-0.1,1.4c0,0,0.7,0.5,0.7,1.6c0,0,0.2,0.4,0.3,0.6c0.2,0.2,0.5,0.4,0.9,0.8
				c0.4,0.4,0.8,0.5,0.9,0.6c0.1,0.1,0.2,0.3,0,0.5c-0.2,0.2-0.6,0.4-0.9,0.4c-0.4,0-0.6,0-0.4,0.2c0.2,0.2,0.3,0.5,0.3,0.9
				c0,0.3-0.3,0.3-0.5,0.3c-0.2,0-0.7-0.1-0.8-0.2c-0.1-0.1-0.1,0-0.1,0.1c0,0.1,0.1,0.6,0,0.8c-0.1,0.2-0.4,0-0.6-0.1
				c-0.2-0.1-0.5-0.2-0.6-0.2c-0.1,0-0.1,0-0.2-0.1c-0.1-0.1-0.1,0-0.1,0c0,0.1,0.1,0.4,0,0.7c-0.1,0.3-0.3,0.6-0.5,0.8
				c-0.2,0.2-0.3-0.2-0.4-0.3c-0.1-0.2-0.4-0.4-0.4-0.4s-0.2,1-0.8,1.7c0,0-0.3,0.3-0.3,0.3c0,0-0.3-0.2-0.3-0.3
				c-0.6-0.7-0.8-1.7-0.8-1.7s-0.3,0.2-0.4,0.4c-0.1,0.2-0.3,0.5-0.4,0.3c-0.2-0.2-0.4-0.5-0.5-0.8c-0.1-0.3,0-0.7,0-0.7
				c0-0.1,0-0.1-0.1,0c-0.1,0.1-0.1,0.1-0.2,0.1c-0.1,0-0.5,0.1-0.6,0.2c-0.2,0.1-0.5,0.3-0.6,0.1c-0.1-0.3,0-0.7,0-0.8
				c0-0.1,0.1-0.2-0.1-0.1c-0.1,0.1-0.6,0.2-0.8,0.2c-0.2,0-0.4,0-0.5-0.3c0-0.3,0.1-0.7,0.3-0.9c0.2-0.2,0-0.2-0.4-0.2
				c-0.4,0-0.8-0.2-0.9-0.4s-0.1-0.4,0-0.5c0.1-0.1,0.5-0.2,0.9-0.6c0.4-0.4,0.8-0.6,0.9-0.8c0.2-0.2,0.3-0.6,0.3-0.6
				c0-1,0.7-1.6,0.7-1.6c-0.3-0.2-0.3-0.9-0.1-1.4c0.2-0.5,0.7-1,0.8-1.1c0.1-0.2,0.2-0.4,0.4-0.7c0-0.1,0.1-0.2,0.1-0.3
				c-0.1,0-0.1-0.1-0.2-0.1c-0.3,0.3-0.8,0.8-1.1,1c-0.3,0.3-1.2,1.5-1.4,1.8c-0.2,0.3-0.4,0.7-0.6,0.4c-0.2-0.2-0.3-0.5-0.3-0.5
				s-0.9,0.4-1.5,0.9c-0.6,0.4-0.8,0.8-0.9-0.1v0c-0.1,0-0.3,0.1-0.5,0.2c-0.2,0.1-0.7,0.5-0.9,0.7c-0.2,0.2-0.5,0.5-0.7,0.7
				c-0.1,0.2-0.2,0.5-0.4,0.7c-0.2,0.2-0.4,0.4-0.4,0.6c0,0.1,0,0.2-0.1,0.3c-0.1,0.1-0.1,0.2,0,0.3c0.1,0.1,0.2,0.2,0.5,0.3
				c0.2,0.1,0.6,0.2,0.6,0.4c0,0.1-0.2,0.2-0.4,0.2c-0.2,0-0.3,0.1-0.4,0.2c0,0.1,0,0.6-0.1,0.7c-0.1,0.1-0.3,0-0.4-0.1
				s-0.3-0.2-0.4-0.1c-0.1,0.1-0.3,0.2-0.4,0.1c-0.1-0.1,0-0.3,0-0.4c0-0.1,0-0.5,0-0.8c0-0.3-0.2-0.2-0.2-0.2
				c-1.1,0.2-1.1-0.6-1.1-0.6c-1.2-0.3-0.8-1.1-0.8-1.1c-0.6-0.4-0.5-1.1-0.3-1.3c0.2-0.2,0.5-0.4,0.6-0.5c0.1,0,0.1-0.1,0.1-0.1
				c-1.2-1-0.8-2.6-0.8-2.6c-0.9-0.3-0.4-1.2-0.4-1.2c-0.4-0.4-0.8-0.8-1.1-1.5c-0.3-0.7-0.4-1.8-0.4-2.3c0-0.4-0.2-1.4-0.4-1.7
				c-0.2-0.3-0.5-0.6-0.7-0.7c-0.2-0.1-0.3-0.1-0.3-0.2c0-0.1,0.1-0.2,0.3-0.3c0.2-0.1,0.2-0.1,0.1-0.2c0-0.1-0.1-0.3-0.1-0.3
				c0-0.1,0-0.1-0.1,0c0,0-0.1,0.1-0.2,0.1c-0.1,0.1-0.2,0.1-0.2,0s-0.2-0.5-0.3-0.6c0-0.1-0.1-0.2,0-0.2c0.1,0,0.2-0.1,0.4-0.1
				c0.2,0,0.1-0.1,0.1-0.1c0-0.1-0.2-0.3-0.2-0.4c0-0.1-0.1-0.2,0-0.2c0.1,0,0.4-0.2,0.7-0.3c0.2-0.1,0.1,0.3,0.2,0.4
				c0,0.1,0.1,0.3,0.2,0.2c0.1-0.1,0.2-0.1,0.3-0.2c0.1-0.1,0.2-0.1,0.2,0c0,0.1,0,0.2,0.1,0.3c0,0,0.1,0,0.1,0
				c0.2,0.1,0.6,0.2,1.1,0.3c0.5,0.1,1.1,0.1,1.4,0.1c0.3,0,0.4-0.1,0.2-0.1s-1-0.1-1.8-0.4c-0.8-0.3-1.5-0.9-1.7-1.4
				c-0.3-0.6-0.2-0.7-0.2-0.9c0-0.1,0.1-0.1,0.2,0c0.1,0.1,0.7,0.4,1.3,0.7c0.6,0.3,1.2,0.4,1.6,0.5c0.4,0.1,0.7,0.1,0.4,0
				c-0.3-0.1-1.4-0.5-1.8-0.7c-0.4-0.2-1.3-0.7-1.8-1.4c-0.5-0.8-0.4-1.2-0.5-1.3c0-0.1,0.1,0,0.2,0.1c0.1,0.1,0.8,0.6,1,0.7
				c0.2,0.1,0.7,0.4,1.2,0.6c0.5,0.2,0.4,0.1,0.6,0.2c0.2,0,0.2,0,0.1,0s-1-0.5-1.4-0.7c-0.3-0.2-0.8-0.7-1.1-1.3
				c-0.4-0.6-0.4-0.9-0.5-1.3c-0.1-0.5,0.1-0.5,0.1-0.4c0.1,0.1,0.5,0.5,0.7,0.7c0.2,0.2,0.5,0.5,0.7,0.7c0.2,0.2,1.3,0.9,1.6,1.1
				c0.3,0.2,0.2,0,0-0.1C48,59,47.1,58.2,46.9,58c-0.2-0.2-0.9-1-1.2-2.1c-0.3-1-0.3-1.6-0.3-1.9c0-0.3,0.1-0.2,0.2-0.1
				c0.1,0.2,0.6,1.1,0.8,1.4c0.1,0.3,0.7,0.9,1,1.3c0.3,0.3,0.3,0.4,0.5,0.5c0.2,0.1,0.2,0.1,0.1-0.1c-0.1-0.1-0.8-1.2-1-1.5
				c-0.2-0.3-0.6-1.3-0.7-2c-0.1-0.8-0.2-1.5,0.2-2.3c0.3-0.8,0.3,0.1,0.4,0.5c0.1,0.4,0.5,1.6,0.6,1.9c0.1,0.3,0.6,1.2,0.7,1.4
				c0.1,0.2,0.2,0.4,0.3,0.5c0.1,0.1,0.2,0.3,0.1,0c-0.1-0.2-0.5-1.3-0.7-1.8c-0.1-0.4-0.5-2.3-0.4-3.3c0-0.9,0.3-1.7,0.5-2.2
				c0.3-0.4,0.2-0.3,0.2-0.1c0,0.2,0.1,1.2,0.1,1.7c0.1,0.6,0.4,1.8,0.6,2.4c0.2,0.5,0.2,0.5,0.3,0.7c0.1,0.1,0.2,0.1,0-0.2
				c-0.1-0.4-0.3-1.4-0.4-2.1c0-0.7,0-2.1,0.3-2.8c0.3-0.7,0.5-1,0.6-1.1c0.1-0.1,0.1-0.1,0.1,0.1c0,0.2,0.2,2.5,0.2,2.8
				c0,0.4,0.4,1.9,0.4,1.9s0.2-0.3,0.3,0c0.1,0.3,0.4,1.5,0.7,2.1c0.3,0.6,0.6,1.1,0.8,1.4c0.2,0.2,0.5,0.6,0.5,0.6s0.2-0.4,0.3-0.5
				c0.1-0.2,0.2,0,0.3,0.2c0.1,0.2,0.4,0.9,0.9,1.5c0.5,0.6,0.8,0.9,1.2,1.5c0.4,0.5,0.4,1.1,0.3,1.5c-0.1,0.4-0.6,0.7-0.9,1
				c-0.3,0.3-0.5,0.4-0.4,0.8c0.1,0.4,0.6,0.5,0.9,0.5c0.3,0,0.7-0.1,1,0.1c0.3,0.2,0.2,0.4,0.5,0.7c0.1,0.1,0.3,0.2,0.4,0.2
				c0-0.2,0.1-1.7-0.7-2.7l2-2.4c0,0,0.1,0.1,0.3,0.1c0.2-0.2,0.5-0.6,0.4-1.2c0,0-0.5,0.1-0.5,0c0-0.1,0.2-0.4,0.1-1
				c0-0.6,0-0.6,0-0.6s-0.6,0.5-0.6,0.2c-0.1-0.3-0.1-0.8-0.5-1.2c0,0-1.2,0.7-2.3-0.8c0,0-1,0.4-1.9,0.2c-0.8-0.2-1-0.8-0.9-1.2
				c0.1-0.4,0.2-0.5,0.3-0.6c0.1-0.1,0.2-0.1,0.2,0.1c0,0.1,0,0.6,0.4,0.8c0.4,0.2,0.6,0.1,1.1,0c0.5-0.1,1.1-0.1,1.5,0
				c0,0-0.5-0.6-1.1-0.6c-0.5,0-0.6,0.3-0.7,0.4c-0.1,0.1-0.2,0-0.2-0.2c0-0.3-0.1-0.9,0.4-1.2C55.1,50.8,56,51.1,56,51.1L56,51.1z
				 M57.5,69.8L57.5,69.8c-0.2,0.1-0.5,0.6-0.8,0.8c-0.4,0.2-0.8,0.1-1,0c-0.2,0,0-0.4,0.1-0.5c0.1-0.2,0.2-0.2,0.3-0.4
				c0.1-0.1,0-0.2-0.1,0c-0.1,0.1-0.6,0.7-1.4,0.8c-0.7,0-1.3-0.1-1.4-0.2c-0.1-0.1-0.1-0.2,0.1-0.4c0.2-0.1,0.4-0.3,0.1-0.2
				c-0.3,0.1-1.2,0.2-1.8-0.1c-0.6-0.2-0.7-0.4-0.8-0.5c-0.1-0.1-0.2-0.2,0.1-0.2c0.3,0,0.6-0.2,0.9-0.3c0.2-0.1,0.2-0.1-0.1-0.1
				c-0.3,0.1-1.1,0.2-1.8-0.1c-0.7-0.3-0.7-0.8-0.7-0.8c0-0.1,0-0.1,0.2-0.1c0.2,0,0.6-0.1,0.8-0.2c0.2-0.1,0.2-0.1,0-0.1
				c-0.2,0-1,0.1-1.5-0.1c-0.5-0.2-0.9-0.5-1.1-0.9c-0.2-0.4-0.1-0.6,0-0.6c0.1,0,0.6,0.1,1,0.2c0.4,0,0.8,0,0.9,0
				c0.1,0,0.3-0.1,0.2-0.1c-0.2,0-1.1-0.1-2-0.4c-0.5-0.2-0.8-0.4-0.9-0.6c0,0,0,0,0,0c0,0.1-0.1,0.4,0,1c0.1,0.6,0.3,1.3,0.5,1.7
				c0.2,0.4,1,1.6,1.2,2.2c0.2,0.7,0.3,1.8,0.3,1.8c0.8,0.5,0.5,1.2,0.5,1.2c1,1,1,2.3,1,2.3c0.3,0,1.8,0.1,2.7,0
				c0.7-0.1,1-0.4,1.2-0.7c0,0-0.1,0-0.1,0c-0.5,0-1-0.2-0.7-0.3c0.3-0.1,0.6-0.3,0.7-0.4c0.1-0.1,0.1-0.2-0.1-0.3
				c-0.2-0.2-0.5-0.3-0.2-0.4c0.3-0.1,1-0.2,1.2-0.3c0.2-0.1,0.1-0.2,0-0.3c-0.1-0.1-0.3-0.4,0-0.4c0.3,0,0.7-0.1,1.1-0.3
				c0.4-0.2,0.8-0.5,1.1-0.9C57.4,70.4,57.5,70,57.5,69.8L57.5,69.8z M60.6,50.7c0,0.4-0.1,0.9-0.9,1.2c0,0,0.1,0.3,0.5,0.5
				c0.3,0.2,0.4,0.2,0.6,0.3c0.2,0.1,0.3,0.3-0.2,0.5c0,0,0.1,0.2,0.6,0.6c0.5,0.4,0.6,0.4,0.8,0.4c0.1,0,0.2,0.3-0.4,0.7
				c0,0,0.4,0.5,0.7,0.7c0.3,0.3,0.5,0.3,0.6,0.4c0.2,0.1,0.2,0.3,0.1,0.5c-0.1,0.2-0.3,0.4-0.4,0.4c-0.1,0.1,0,0.1,0,0.2
				c0,0.1,0.4,0.6,0.6,0.9c0.2-0.3,0.6-0.8,0.6-0.9c0-0.1,0.1-0.2,0-0.2c-0.1-0.1-0.3-0.2-0.4-0.4c-0.1-0.2-0.1-0.5,0.1-0.5
				c0.2-0.1,0.3-0.1,0.6-0.4c0.3-0.3,0.7-0.7,0.7-0.7c-0.6-0.3-0.5-0.6-0.4-0.7c0.1,0,0.3-0.1,0.8-0.4c0.5-0.4,0.6-0.6,0.6-0.6
				c-0.5-0.2-0.4-0.4-0.2-0.5c0.2-0.1,0.3-0.1,0.6-0.3c0.3-0.2,0.5-0.5,0.5-0.5c-0.7-0.3-0.9-0.8-0.9-1.2c-0.7,0.3-2.7,0.4-2.7,0.4
				S61.2,51,60.6,50.7L60.6,50.7z M66.3,45.6c0,0,0.5,0.8,0.5,1.4c0,0.7-0.3,0.7-0.4,0.8c-0.1,0.1,0,0.2,0.1,0.3
				c0.1,0.1,0.3,0.1,0.4,0c0.1,0,0.3-0.1,0.4-0.1c0.1,0,0.2,0,0.1-0.1c-0.1-0.1-0.1-0.3-0.1-0.5C67.4,46.5,67.1,46,66.3,45.6
				L66.3,45.6z M64,45.1c0,0,0.1,0.6,0.2,1.3c0.1,0.6,0.1,1-0.4,1.4c0.2,0.1,0.4,0.2,0.6,0.3c0.1,0,0.2,0,0.3,0
				c0.3-0.1,0.3-0.2,0.6-0.3c0,0-0.1-0.3,0-0.6C65.4,46,64.9,45.5,64,45.1L64,45.1z M60.3,45.6c0,0-0.5,0.8-0.5,1.4
				c0,0.7,0.3,0.7,0.4,0.8c0.1,0.1,0,0.2-0.1,0.3c-0.1,0.1-0.3,0.1-0.4,0c-0.1,0-0.3-0.1-0.4-0.1c-0.1,0-0.2,0-0.1-0.1
				c0.1-0.1,0.1-0.3,0.1-0.5C59.2,46.5,59.4,46,60.3,45.6L60.3,45.6z M62.6,45.1c0,0-0.1,0.6-0.2,1.3c-0.1,0.6-0.1,1,0.4,1.4
				c-0.2,0.1-0.4,0.2-0.6,0.3c-0.1,0-0.2,0-0.3,0c-0.3-0.1-0.3-0.2-0.6-0.3c0,0,0.1-0.3,0-0.6C61.1,46,61.7,45.5,62.6,45.1
				L62.6,45.1z M46.6,64.3c0-0.1-0.1-0.1-0.1-0.2c0-0.1-0.1-0.1-0.1-0.2c-0.1,0-0.4,0.1-0.4,0.1c0,0.1,0.2,0.4,0.2,0.4
				C46.3,64.5,46.5,64.4,46.6,64.3L46.6,64.3z"/>
			<path fill-rule="evenodd" clip-rule="evenodd" fill="#D4AF3A" d="M56.5,50.6c0.3-0.2,0.5-0.2,0.9-0.2c0.4,0,1.1,0.3,1.2,0.4
				c0.1,0.1,0.4,0.3,0.5,0.4c0.1,0.1,0.1,0,0.1,0c-0.1,0-0.2-0.1-0.2-0.2c-0.1-0.1,0-0.1,0.1-0.1c0.1,0,0.5,0,0.8-0.2
				c0.3-0.1,0.4-0.2,0.4-0.2c0.1-0.1,0.1,0,0.1,0.1c0,0.1,0.1,0.7-0.7,1c-0.7,0.3-1.3,0-1.5,0c-0.2-0.1-0.8-0.5-1.2-0.5
				c-0.2,0-0.4,0-0.5,0.1C56,51.3,56.2,50.8,56.5,50.6L56.5,50.6z M57.4,51.7c0,0,0.9,0.6,2.1,0.3c0,0,0.4,0.4,0.6,0.5
				c0.2,0.2,0.3,0.2,0.4,0.3c0.1,0,0.1,0.1,0,0.1c-0.1,0.1-0.3,0.1-0.1,0.2c0.1,0.1,0.5,0.5,0.7,0.7c0.2,0.2,0.5,0.3,0.6,0.4
				c0.1,0.1,0.1,0.1,0,0.1c0,0.1-0.2,0.2-0.3,0.2c-0.1,0.1-0.1,0.1,0,0.2c0.1,0.1,0.5,0.6,0.6,0.7c0.1,0.1,0.2,0.3,0.4,0.4
				c0.2,0.1,0.4,0.1,0.5,0.2c0.1,0.2-0.2,0.4-0.4,0.4c-0.2,0.1-0.6,0.1-0.9,0c-0.3-0.1-0.6-0.4-0.9-0.7c0,0,0.2,1.8-0.2,2.6
				c0,0-0.5-0.5-0.7-1.2c-0.2-0.7-0.1-0.6-0.1-0.7c0-0.1-0.1-0.1-0.2-0.1c-0.1,0.1-0.2,0.1-0.2,0.1c-0.1,0-0.2,0-0.1-0.1
				c0-0.1,0.1-0.9,0-1.2c0-0.3-0.1-0.4-0.1-0.5c0-0.1-0.1-0.1-0.2,0c0,0.1,0,0.2-0.2,0.4c-0.2,0.2-0.2-0.1-0.2-0.2
				c0-0.1-0.1-0.6-0.5-1c0,0-0.1-0.1-0.3-0.1c-0.2,0.1-0.7,0.2-1.1,0.1c-0.3-0.1-0.6-0.3-0.6-0.4c-0.1-0.1-0.1-0.2,0.1-0.1
				c0.2,0.1,0.5,0.1,0.8,0.1c0.3-0.1,0.4-0.1,0.5-0.2c0.1-0.1,0-0.2-0.1-0.3c-0.1-0.1-0.7-0.6-0.9-0.8c-0.2-0.2-0.7-0.4-1-0.4
				c-0.3,0-0.6,0.2-0.7,0.3c-0.1,0.1-0.2,0.1-0.2,0c0-0.2-0.1-0.5,0.2-0.8c0.3-0.4,1-0.3,1.3-0.2c0.3,0.1,0.7,0.3,0.7,0.3
				s-0.1,0.5,0.4,0.6C57.3,52.1,57.3,51.8,57.4,51.7L57.4,51.7z M58.5,53.7c0.2,0.3,0.7,0.6,1,0.8c0.3,0.2,0.3,0.2,0.3,0.1
				c0-0.2-0.2-0.7-0.2-0.9c-0.1-0.2-0.2-0.4-0.4-0.5c-0.1-0.2-0.2-0.2-0.3-0.3s-0.1-0.1-0.1,0c0.1,0.1,0.2,0.2,0.3,0.3
				c0.1,0.2,0.3,0.4,0.3,0.6c0,0.2,0,0.3-0.2,0.2c-0.2-0.1-0.4-0.3-0.5-0.4C58.5,53.4,58.4,53.5,58.5,53.7L58.5,53.7z M61,55.4
				c0.1,0.1,0.5,0.5,0.7,0.6c0.3,0.1,0.2,0,0.2,0c-0.1,0-0.3-0.1-0.5-0.3c-0.2-0.2-0.3-0.3-0.4-0.4C61,55.2,60.9,55.4,61,55.4
				L61,55.4z M60.1,56.1c0,0.3,0.2,1.3,0.2,1.4c0,0.1,0.1,0.2,0.1,0c0-0.2-0.1-1.3-0.1-1.4c0-0.1-0.1-0.1-0.1-0.1
				C60.1,56,60.1,56,60.1,56.1L60.1,56.1z M56.9,51.4c0.1,0,0.2,0.1,0.2,0.2c0,0.1-0.1,0.2-0.2,0.2c-0.1,0-0.2-0.1-0.2-0.2
				C56.7,51.5,56.8,51.4,56.9,51.4L56.9,51.4z"/>
			<path fill-rule="evenodd" clip-rule="evenodd" fill="#D4AF3A" d="M59.5,57.5c0,0,0.2,0.6,0.4,0.9c0,0-0.5-0.1-0.8-0.3
				C59.2,58.1,59.4,57.9,59.5,57.5L59.5,57.5z"/>
			<path fill-rule="evenodd" clip-rule="evenodd" fill="#D4AF3A" d="M61,56.7c0,0,0,1.4-0.2,1.8c0,0,1.3,0.2,2.2-0.4
				c0,0-0.5-0.8-0.6-1.1c0,0-0.7,0-1.1-0.2c0,0,0.2,0.6,0.7,0.8C61.9,57.6,61.4,57.6,61,56.7L61,56.7z"/>
			<path fill-rule="evenodd" clip-rule="evenodd" fill="#C52126" d="M53.1,52.2c0.1,0.2,0.3,0.8,0.9,0.8c0.6,0,1-0.2,1.4-0.2
				c0.4,0,1,0.1,1.4,0.2c0.3,0.1,0.5,0.2,0.4,0.3c-0.1,0.1-0.3,0.2-0.5,0.1c-0.2-0.1-0.4-0.3-0.8-0.3c-0.4,0-1,0.2-1.3,0.3
				c-0.7,0.2-1.6,0.1-1.6-0.8C52.9,52.4,53,52.1,53.1,52.2L53.1,52.2z"/>
			<path fill-rule="evenodd" clip-rule="evenodd" fill="#D4AF3A" d="M70,50.6c-0.3-0.2-0.5-0.2-0.9-0.2c-0.4,0-1.1,0.3-1.2,0.4
				c-0.1,0.1-0.4,0.3-0.5,0.4c-0.1,0.1-0.1,0-0.1,0c0.1,0,0.1-0.1,0.2-0.2c0.1-0.1,0-0.1-0.1-0.1c-0.1,0-0.5,0-0.8-0.2
				c-0.3-0.1-0.4-0.2-0.4-0.2c-0.1-0.1-0.1,0-0.1,0.1c0,0.1-0.1,0.7,0.7,1c0.7,0.3,1.3,0,1.5,0c0.2-0.1,0.8-0.5,1.2-0.5
				c0.2,0,0.4,0,0.5,0.1C70.5,51.3,70.3,50.8,70,50.6L70,50.6z M69.2,51.7c0,0-0.9,0.6-2.1,0.3c0,0-0.4,0.4-0.6,0.5
				c-0.2,0.2-0.3,0.2-0.4,0.3c-0.1,0-0.1,0.1,0,0.1c0.1,0.1,0.3,0.1,0.1,0.2c-0.1,0.1-0.5,0.5-0.7,0.7c-0.2,0.2-0.5,0.3-0.6,0.4
				c-0.1,0.1-0.1,0.1,0,0.1c0,0.1,0.2,0.2,0.3,0.2c0.1,0.1,0.1,0.1,0,0.2c-0.1,0.1-0.5,0.6-0.6,0.7c-0.1,0.1-0.2,0.3-0.4,0.4
				c-0.2,0.1-0.4,0.1-0.5,0.2c-0.1,0.2,0.2,0.4,0.4,0.4c0.2,0.1,0.6,0.1,0.9,0c0.3-0.1,0.6-0.4,0.9-0.7c0,0-0.2,1.8,0.2,2.6
				c0,0,0.5-0.5,0.7-1.2c0.2-0.7,0.1-0.6,0.1-0.7c0-0.1,0.1-0.1,0.2-0.1c0.1,0.1,0.2,0.1,0.2,0.1c0.1,0,0.2,0,0.1-0.1
				c0-0.1-0.1-0.9,0-1.2c0-0.3,0.1-0.4,0.2-0.5c0-0.1,0.1-0.1,0.2,0c0,0.1,0,0.2,0.2,0.4c0.2,0.2,0.2-0.1,0.2-0.2
				c0-0.1,0.1-0.6,0.5-1c0,0,0.1-0.1,0.3-0.1c0.2,0.1,0.7,0.2,1.1,0.1c0.3-0.1,0.6-0.3,0.6-0.4c0.1-0.1,0.1-0.2-0.1-0.1
				c-0.2,0.1-0.5,0.1-0.8,0.1c-0.3-0.1-0.4-0.1-0.5-0.2c-0.1-0.1,0-0.2,0.1-0.3c0.1-0.1,0.7-0.6,0.9-0.8c0.2-0.2,0.7-0.4,1-0.4
				c0.3,0,0.6,0.2,0.7,0.3c0.1,0.1,0.2,0.1,0.2,0c0-0.2,0.1-0.5-0.2-0.8c-0.3-0.4-1-0.3-1.3-0.2c-0.3,0.1-0.7,0.3-0.7,0.3
				s0.1,0.5-0.3,0.6C69.2,52.1,69.2,51.8,69.2,51.7L69.2,51.7z M68,53.7c-0.2,0.3-0.7,0.6-1,0.8c-0.3,0.2-0.3,0.2-0.3,0.1
				c0-0.2,0.2-0.7,0.2-0.9c0.1-0.2,0.2-0.4,0.4-0.5c0.1-0.2,0.2-0.2,0.3-0.3c0.1-0.1,0.1-0.1,0.1,0c0,0.1-0.2,0.2-0.3,0.3
				c-0.1,0.2-0.3,0.4-0.3,0.6c0,0.2,0,0.3,0.2,0.2c0.2-0.1,0.4-0.3,0.5-0.4C68,53.4,68.1,53.5,68,53.7L68,53.7z M65.5,55.4
				c-0.1,0.1-0.5,0.5-0.8,0.6c-0.3,0.1-0.2,0-0.2,0c0.1,0,0.3-0.1,0.5-0.3c0.2-0.2,0.3-0.3,0.4-0.4C65.6,55.2,65.6,55.4,65.5,55.4
				L65.5,55.4z M66.4,56.1c0,0.3-0.2,1.3-0.2,1.4c0,0.1-0.1,0.2-0.1,0c0-0.2,0.1-1.3,0.1-1.4c0-0.1,0.1-0.1,0.1-0.1
				C66.4,56,66.4,56,66.4,56.1L66.4,56.1z M69.6,51.4c-0.1,0-0.2,0.1-0.2,0.2c0,0.1,0.1,0.2,0.2,0.2c0.1,0,0.2-0.1,0.2-0.2
				C69.8,51.5,69.7,51.4,69.6,51.4L69.6,51.4z"/>
			<path fill-rule="evenodd" clip-rule="evenodd" fill="#C52126" d="M73.4,52.2c-0.1,0.2-0.3,0.8-0.9,0.8c-0.6,0-1-0.2-1.4-0.2
				c-0.4,0-1,0.1-1.3,0.2c-0.3,0.1-0.5,0.2-0.4,0.3c0.1,0.1,0.3,0.2,0.5,0.1c0.2-0.1,0.4-0.3,0.8-0.3c0.4,0,1,0.2,1.3,0.3
				c0.7,0.2,1.6,0.1,1.6-0.8C73.6,52.4,73.5,52.1,73.4,52.2L73.4,52.2z"/>
			<path fill-rule="evenodd" clip-rule="evenodd" fill="#D4AF3A" d="M61.4,50.3c0,0,2.2-0.3,3.8,0c0,0-0.9,0.2-1.9,0.2
				C62.3,50.5,61.8,50.4,61.4,50.3L61.4,50.3z M63.3,48.7c0.8,0,2.1,0,2.8,0.2c0.3,0.1,0.4,0.1,0.2,0.2c-0.2,0.1-0.6,0.2-0.7,0.2
				c-0.1,0-0.1,0.2,0,0.3c0.1,0.1,0.3,0.2,0.5,0.3c0.1,0.1,0.1,0.2-0.1,0.1c-0.2,0-1-0.1-1.5-0.2c-0.4,0-2.2,0-2.8,0
				c-0.6,0.1-0.9,0.1-1.1,0.2c-0.2,0.1-0.4,0-0.1-0.2c0.3-0.2,0.3-0.2,0.4-0.3c0.1-0.1,0.1-0.2-0.1-0.3c-0.2-0.1-0.5-0.1-0.6-0.2
				c-0.1-0.1-0.1-0.1,0.1-0.2C60.9,48.7,62.7,48.7,63.3,48.7L63.3,48.7z M63.3,48.9c0.2,0.1,0.5,0.2,0.6,0.3c0.1,0.1,0.1,0.2,0,0.2
				c-0.1,0.1-0.4,0.2-0.5,0.2c-0.1,0-0.1,0-0.2,0c-0.1-0.1-0.4-0.2-0.5-0.2c-0.1,0-0.1-0.2,0-0.2c0.1-0.1,0.5-0.3,0.6-0.3
				C63.3,48.8,63.3,48.8,63.3,48.9L63.3,48.9z M61.8,48.9c0.2,0,0.4,0.2,0.4,0.4c0,0.2-0.2,0.4-0.4,0.4c-0.2,0-0.4-0.2-0.4-0.4
				C61.3,49.1,61.5,48.9,61.8,48.9L61.8,48.9z M64.8,48.9c0.2,0,0.4,0.2,0.4,0.4c0,0.2-0.2,0.4-0.4,0.4c-0.2,0-0.4-0.2-0.4-0.4
				C64.3,49.1,64.5,48.9,64.8,48.9L64.8,48.9z M64.7,49c0.1,0,0.3,0.1,0.3,0.3c0,0.1-0.1,0.3-0.3,0.3c-0.1,0-0.3-0.1-0.3-0.3
				C64.5,49.1,64.6,49,64.7,49L64.7,49z M61.8,49c0.1,0,0.3,0.1,0.3,0.3c0,0.1-0.1,0.3-0.3,0.3c-0.1,0-0.3-0.1-0.3-0.3
				C61.5,49.1,61.6,49,61.8,49L61.8,49z M59.8,49.5c0,0,0.3-0.2,0.4-0.3c0,0,0.4,0.1,0.5,0.2c0,0-0.4,0.3-0.4,0.3
				C60.3,49.7,60,49.6,59.8,49.5L59.8,49.5z M63.3,48.9l0.5,0.2l-0.5,0.3l-0.5-0.2L63.3,48.9L63.3,48.9z M65.8,49.4l0.4,0.3l0.4-0.2
				c0,0-0.3-0.3-0.3-0.3C66.3,49.2,66.1,49.3,65.8,49.4L65.8,49.4z"/>
			<path fill-rule="evenodd" clip-rule="evenodd" fill="#D4AF3A" d="M66,50.4l-0.6-0.1c0,0-0.7,0.3-2.2,0.3c-1.5,0-2.2-0.3-2.2-0.3
				l-0.5,0.1c0,0,1,0.4,2.7,0.4C65,50.9,66,50.4,66,50.4L66,50.4z"/>
			<path fill-rule="evenodd" clip-rule="evenodd" fill="#D4AF3A" d="M62.4,48.1c0.1-0.1,0.3-0.3,0.5-0.2c0.2,0,0.2,0.3,0,0.3
				C62.8,48.3,62.6,48.2,62.4,48.1L62.4,48.1z M63.1,42.7c0,0,0.1-0.1,0.4,0l0-0.4l0.4,0.1l0-0.4l-0.5,0l0.1-0.4H63l0.1,0.4L62.7,42
				v0.4l0.5-0.1L63.1,42.7L63.1,42.7z M62.5,43.3h0.6v-0.5c0,0,0.2-0.1,0.3,0v0.5H64c0,0,0,0.1,0,0.3h-1.5
				C62.5,43.6,62.5,43.4,62.5,43.3L62.5,43.3z M64.1,48.1c-0.1-0.1-0.3-0.3-0.5-0.2c-0.2,0-0.2,0.3,0,0.3
				C63.7,48.3,63.9,48.2,64.1,48.1L64.1,48.1z M64.7,44.5c-0.1,0-0.2,0.1-0.2,0.2c0,0.1,0.1,0.2,0.2,0.2c0.1,0,0.2-0.1,0.2-0.2
				C64.9,44.6,64.8,44.5,64.7,44.5L64.7,44.5z M64.2,44.9c0.3,0.2,0.7,0.5,1,0.9c0.3,0.4,0.3,0.7,0.3,1c0,0.3-0.2,0.7,0,0.9
				c0,0,0.3-0.3,0.5-0.5c0,0,0.1,0.3,0.1,0.4c0,0.1,0,0.2,0,0.2s0.5-0.1,0.6-0.5c0.1-0.4,0-0.8-0.1-1C66.3,46,65.9,45,65,44.6
				c0,0,0,0.2-0.1,0.3c-0.1,0.1-0.3,0.1-0.4,0c-0.2-0.2-0.1-0.5,0.2-0.5c0,0-0.4-0.2-0.5-0.2c-0.1,0-0.3,0-0.3,0.1
				C63.9,44.4,63.9,44.7,64.2,44.9L64.2,44.9z M65.7,45.3c0.1,0.1,0.1,0.2,0,0.2c0,0-0.1,0.1-0.3,0C65.3,45.4,65.4,45.2,65.7,45.3
				L65.7,45.3z M66,46.3c-0.1,0-0.2,0.1-0.2,0.2c0,0.1,0.1,0.2,0.2,0.2c0.1,0,0.2-0.1,0.2-0.2C66.2,46.4,66.1,46.3,66,46.3L66,46.3z
				 M65.9,46.2c-0.1,0-0.3,0.1-0.3,0.4c0,0.2,0.2,0.3,0.4,0.3c0.1,0,0.3-0.1,0.3-0.4C66.3,46.3,66.1,46.2,65.9,46.2L65.9,46.2z
				 M65.3,45.7c-0.3-0.3,0.1-0.7,0.4-0.4C66.1,45.6,65.6,46.1,65.3,45.7L65.3,45.7z M66.3,44.7c-0.2,0-0.2,0.3,0,0.3
				C66.6,45,66.5,44.7,66.3,44.7L66.3,44.7z M67.3,45.6c0,0.1,0.1,0.2,0.2,0.2c0.1,0,0.2-0.2,0-0.3C67.4,45.4,67.3,45.5,67.3,45.6
				L67.3,45.6z M68.1,46.5c-0.1,0-0.2,0.1-0.2,0.2c0,0.1,0.1,0.2,0.2,0.2c0.1,0,0.2-0.1,0.2-0.2C68.3,46.6,68.2,46.5,68.1,46.5
				L68.1,46.5z M67.8,47.5c-0.1,0.1-0.3,0.2-0.3,0.3c0,0.1-0.1,0.1-0.1-0.1c0-0.1,0-0.5,0-0.8c0-0.2-0.1-0.6-0.2-0.8
				c-0.1-0.2-0.3-0.5-0.5-0.6c-0.2-0.1-0.5-0.3-0.5-0.3s-0.3-0.4-0.8-0.7c0,0,0.4,0,0.7,0.2c0,0.1,0.1,0.5,0.5,0.3
				c0,0,0.6,0.3,0.7,0.4c0,0-0.1,0.2,0.1,0.4c0.2,0.1,0.3,0.1,0.3,0.1s0.2,0.3,0.3,0.6c0,0-0.2,0.1-0.1,0.3c0.1,0.2,0.3,0.3,0.3,0.3
				S68.1,47.5,67.8,47.5L67.8,47.5z M67.9,47.7c-0.2,0.1-0.3,0.2-0.3,0.3c-0.1,0.1,0,0.1,0.1,0.2c0.1,0,0.2,0,0.3-0.1
				C68,48,68,47.8,68,47.7C68,47.7,67.9,47.6,67.9,47.7L67.9,47.7z M67.6,48.3C67.5,48.3,67.5,48.3,67.6,48.3
				c-0.1,0.1-0.1,0.2,0,0.2C67.7,48.4,67.7,48.4,67.6,48.3C67.7,48.3,67.7,48.3,67.6,48.3L67.6,48.3z M66.8,48.3
				c0.2-0.1,0.6-0.3,0.6-0.1C67.4,48.3,67.1,48.5,66.8,48.3L66.8,48.3z M65.8,47.3c-0.2,0.1-0.6,0.5-0.4,0.6
				C65.6,48,66,47.7,65.8,47.3L65.8,47.3z M65.3,48.3c-0.1,0.2-0.2,0.3-0.5,0.3c-0.4,0-1,0-1.2,0c-0.1,0-0.2-0.2-0.2-0.3
				c0-0.1,0-0.2,0.1,0c0.1,0.1,0.2,0.2,0.3,0.2c0.1,0,0.3-0.1,0.4-0.2c0.1-0.2,0.2-0.2,0.3-0.1c0,0.1,0.1,0.3,0.3,0.3
				C65.1,48.5,65.2,48.3,65.3,48.3C65.3,48.3,65.3,48.2,65.3,48.3L65.3,48.3z M66.8,48.6c0,0-0.3,0-0.4-0.4c0,0-0.6,0.5-1,0.1
				C65.4,48.3,65.6,49.1,66.8,48.6L66.8,48.6z M65.5,48C65.4,48,65.4,48,65.5,48c-0.1,0.1-0.1,0.1,0,0.1S65.5,48.1,65.5,48
				C65.5,48,65.5,48,65.5,48L65.5,48z M66.2,48.1c-0.1-0.2-0.3-0.2-0.4-0.1c-0.1,0.1-0.2,0.2-0.1,0.3c0.1,0.1,0.2,0,0.3,0
				C66,48.1,66.1,48.1,66.2,48.1L66.2,48.1z M64.8,48c0.1,0,0.5-0.4,0.5-0.1C65.3,48.1,65,48.4,64.8,48L64.8,48z M63.3,47.1l0.3,0.5
				c0,0,0.4-0.3,0.4-0.8c0-0.5-0.1-1-0.2-1.3c0-0.3-0.1-1.1-0.1-1.1s-0.5,0.3-1,0c0,0-0.1,0.7-0.1,1.1c0,0.4-0.2,1.2-0.2,1.5
				c0,0.3,0.2,0.6,0.4,0.8C62.9,47.6,63.1,47.3,63.3,47.1L63.3,47.1z M63.3,46.3c0.1,0,0.2,0.1,0.2,0.2c0,0.1-0.1,0.2-0.2,0.2
				c-0.1,0-0.2-0.1-0.2-0.2C63,46.4,63.1,46.3,63.3,46.3L63.3,46.3z M63.3,45.5c0.1,0,0.2,0.1,0.2,0.2c0,0.1-0.1,0.2-0.2,0.2
				c-0.1,0-0.2-0.1-0.2-0.2C63.1,45.5,63.1,45.5,63.3,45.5L63.3,45.5z M63.3,44.6c0.1,0,0.2,0.1,0.2,0.2c0,0.1-0.1,0.2-0.2,0.2
				c-0.1,0-0.2-0.1-0.2-0.2C63.1,44.7,63.1,44.6,63.3,44.6L63.3,44.6z M63.3,46.2c0.2,0,0.4,0.2,0.4,0.3c0,0.2-0.2,0.3-0.4,0.3
				c-0.2,0-0.4-0.2-0.4-0.3C62.9,46.4,63.1,46.2,63.3,46.2L63.3,46.2z M63.3,45.4c0.2,0,0.4,0.2,0.4,0.3c0,0.2-0.2,0.3-0.4,0.3
				c-0.2,0-0.4-0.2-0.4-0.3C62.9,45.5,63.1,45.4,63.3,45.4L63.3,45.4z M63.3,44.5c0.2,0,0.4,0.2,0.4,0.3c0,0.2-0.2,0.3-0.4,0.3
				c-0.2,0-0.4-0.2-0.4-0.3C62.9,44.7,63.1,44.5,63.3,44.5L63.3,44.5z M63.2,47.3c0,0,0.1,0.2,0.2,0.3c0.1,0.1-0.1,0.3-0.2,0.3
				c-0.1,0-0.2-0.1-0.2-0.3C63.2,47.4,63.2,47.4,63.2,47.3L63.2,47.3z M63.3,48C63.3,48,63.4,48,63.3,48c0.1,0.1,0.1,0.2,0,0.2
				C63.2,48.1,63.2,48.1,63.3,48C63.2,48,63.2,48,63.3,48L63.3,48z M61.8,44.5c0.1,0,0.2,0.1,0.2,0.2c0,0.1-0.1,0.2-0.2,0.2
				c-0.1,0-0.2-0.1-0.2-0.2C61.6,44.6,61.7,44.5,61.8,44.5L61.8,44.5z M62.3,44.9c-0.3,0.2-0.7,0.5-1,0.9c-0.3,0.4-0.3,0.7-0.3,1
				c0,0.4,0.3,0.6,0,0.9c0,0-0.3-0.3-0.5-0.5c0,0-0.1,0.3-0.1,0.4c0,0.1,0,0.2,0,0.2s-0.5-0.1-0.6-0.5c-0.2-1,0.7-2.3,1.5-2.7
				c0,0,0,0.2,0.1,0.3c0.1,0.1,0.3,0.1,0.4,0c0.2-0.2,0.1-0.5-0.2-0.5c0,0,0.4-0.2,0.5-0.2c0.1,0,0.3,0,0.3,0.1
				C62.6,44.4,62.7,44.7,62.3,44.9L62.3,44.9z M60.9,45.3c-0.1,0.1-0.1,0.2,0,0.2c0,0,0.1,0.1,0.3,0C61.3,45.4,61.1,45.2,60.9,45.3
				L60.9,45.3z M60.6,46.3c0.1,0,0.2,0.1,0.2,0.2c0,0.1-0.1,0.2-0.2,0.2c-0.1,0-0.2-0.1-0.2-0.2C60.4,46.4,60.5,46.3,60.6,46.3
				L60.6,46.3z M60.6,46.2c0.1,0,0.3,0.1,0.3,0.4c0,0.2-0.2,0.3-0.4,0.3c-0.1,0-0.3-0.1-0.3-0.4C60.2,46.3,60.4,46.2,60.6,46.2
				L60.6,46.2z M61.2,45.7c0.3-0.3-0.1-0.7-0.4-0.4C60.4,45.6,60.9,46.1,61.2,45.7L61.2,45.7z M60.2,45c-0.2,0-0.2-0.2-0.1-0.2
				C60.4,44.6,60.5,45,60.2,45L60.2,45z M59.2,45.7c-0.1,0.2-0.4,0.1-0.2-0.1C59.1,45.3,59.3,45.5,59.2,45.7L59.2,45.7z M58.5,46.5
				c0.2,0,0.2,0.4,0,0.4c-0.1,0-0.2-0.1-0.2-0.2C58.3,46.6,58.4,46.5,58.5,46.5L58.5,46.5z M58.7,47.5c0.1,0.1,0.3,0.2,0.3,0.3
				c0,0.1,0.1,0.1,0.1-0.1c0-0.1,0-0.5,0-0.8c0-0.2,0.1-0.6,0.2-0.8c0.1-0.2,0.3-0.5,0.5-0.6c0.2-0.1,0.5-0.3,0.5-0.3
				s0.3-0.4,0.8-0.7c0,0-0.4,0-0.7,0.2c0,0.1-0.1,0.5-0.5,0.3c0,0-0.6,0.3-0.7,0.4c0,0,0.1,0.2-0.1,0.4c-0.2,0.1-0.3,0.1-0.3,0.1
				s-0.2,0.3-0.3,0.6c0,0,0.2,0.1,0.1,0.3c-0.1,0.2-0.3,0.3-0.3,0.3S58.4,47.5,58.7,47.5L58.7,47.5z M58.7,47.7
				c0.2,0.1,0.3,0.2,0.3,0.3c0.1,0.1,0,0.1-0.1,0.2c-0.1,0-0.2,0-0.3-0.1c-0.1-0.1-0.1-0.3-0.1-0.3C58.6,47.7,58.6,47.6,58.7,47.7
				L58.7,47.7z M58.9,48.3C59,48.3,59,48.3,58.9,48.3c0.1,0.1,0.1,0.2,0,0.2C58.9,48.4,58.8,48.4,58.9,48.3
				C58.8,48.3,58.9,48.3,58.9,48.3L58.9,48.3z M59.8,48.3c-0.2-0.1-0.6-0.3-0.6-0.1C59.1,48.3,59.4,48.5,59.8,48.3L59.8,48.3z
				 M60.7,47.3c0.2,0.1,0.6,0.5,0.4,0.6C60.9,48,60.6,47.7,60.7,47.3L60.7,47.3z M61.2,48.3c0.1,0.2,0.2,0.3,0.5,0.3
				c0.4,0,1,0,1.2,0c0.1,0,0.2-0.2,0.2-0.3c0-0.1,0-0.2-0.1,0c-0.1,0.1-0.2,0.2-0.3,0.2c-0.1,0-0.3-0.1-0.4-0.2
				c-0.1-0.2-0.2-0.2-0.3-0.1c0,0.1-0.1,0.3-0.3,0.3C61.5,48.5,61.4,48.3,61.2,48.3C61.3,48.3,61.2,48.2,61.2,48.3L61.2,48.3z
				 M59.7,48.6c0,0,0.3,0,0.4-0.4c0,0,0.6,0.5,1,0.1C61.1,48.3,60.9,49.1,59.7,48.6L59.7,48.6z M61.1,48C61.1,48,61.1,48,61.1,48
				c0.1,0.1,0.1,0.1,0,0.1C61,48.1,61,48.1,61.1,48C61,48,61,48,61.1,48L61.1,48z M60.4,48.1c0.1-0.2,0.3-0.2,0.4-0.1
				c0.1,0.1,0.2,0.2,0.1,0.3c-0.1,0.1-0.2,0-0.3,0C60.5,48.1,60.5,48.1,60.4,48.1L60.4,48.1z M61.8,48c-0.1,0-0.5-0.4-0.5-0.1
				C61.2,48.1,61.5,48.4,61.8,48L61.8,48z"/>
			<path fill-rule="evenodd" clip-rule="evenodd" fill="#D4AF3A" d="M67,57.5c0,0-0.2,0.6-0.4,0.9c0,0,0.5-0.1,0.8-0.3
				C67.4,58.1,67.1,57.9,67,57.5L67,57.5z"/>
			<path fill-rule="evenodd" clip-rule="evenodd" fill="#D4AF3A" d="M65.5,56.7c0,0,0,1.4,0.2,1.8c0,0-1.3,0.2-2.2-0.4
				c0,0,0.5-0.8,0.6-1.1c0,0,0.7,0,1.1-0.2c0,0-0.2,0.6-0.7,0.8C64.6,57.6,65.1,57.6,65.5,56.7L65.5,56.7z"/>
			<path fill-rule="evenodd" clip-rule="evenodd" fill="#D4AF3A" d="M53.3,55.3c0.1,0.2,0.7,1.2,1.1,1.7c0.3,0.4,0.7,0.8,1.1,1.3
				c0.3,0.5,0.4,0.9,0.2,1.3c-0.2,0.4-0.6,0.6-1.1,0.8c-0.5,0.3-0.5,0.9-0.4,1.1c0.1,0.2,0.2,0.6,0.8,0.7c0.6,0.1,0.9,0,1.2,0.2
				c0.3,0.3,0.3,0.7,1.1,0.7c0,0-0.1,1.2-0.2,1.7c0,0-0.2,0.1-0.2,0.2c0,0.1-0.1,0.2-0.2,0.3c-0.1,0.1,0,0.1,0,0.1
				c0.1-0.1,0.1-0.1,0.2-0.2c0.1-0.1,0.1-0.1,0.1-0.1l-0.3,1c0,0-0.9,0-0.9-0.4c0-0.4,0.2-0.5,0.1-0.6c-0.1-0.1-0.3,0.1-0.4,0.2
				c-0.1,0.1-0.8,0.4-1.1,0c-0.3-0.4-0.1-0.7,0-0.8c0.1-0.1,0.1-0.2,0-0.3c-0.1,0-0.2,0-0.3,0.1c-0.1,0.1-0.7,0.2-1-0.1
				c-0.3-0.3-0.1-0.6,0.1-0.8c0.2-0.1,0.3-0.2,0.3-0.3c0-0.1-0.2,0-0.3,0.1c-0.2,0.1-0.6,0.1-0.9,0c-0.2-0.1-0.4-0.4-0.2-0.6
				c0.2-0.2,0.4-0.2,0.3-0.4c-0.1-0.1-0.3,0-0.5,0c-0.2,0-0.6-0.1-0.8-0.3c-0.1-0.2-0.1-0.6,0.3-0.7c0.4-0.1,0.4-0.1,0.4-0.2
				c0-0.1-0.4-0.1-0.7-0.2c-0.3-0.1-0.6-0.3-0.6-0.7c0.1-0.4,0.4-0.3,0.6-0.3c0.2,0,0.3,0,0.3-0.1c0-0.1-0.2-0.1-0.5-0.2
				c-0.3-0.1-0.9-0.4-0.7-0.7c0.2-0.3,0.6-0.4,0.8-0.3c0.2,0,0.4,0.1,0.2-0.1c-0.2-0.1-0.9-0.5-0.7-1c0.2-0.5,0.9-0.2,1-0.1
				c0.1,0.1,0.5,0.4,0.7,0.3c0.1,0-0.2-0.4-0.3-0.5c-0.1-0.1-0.5-0.7-0.1-1c0.3-0.3,1,0.1,1.2,0.2c0.2,0.1,0.2,0,0.2-0.2
				C53.1,55.9,53.1,55.5,53.3,55.3L53.3,55.3z M51.8,58c0,0-0.6-0.4-0.6-0.4C51.1,57.7,51.7,58.1,51.8,58L51.8,58z M56,64
				c0.1,0.1-0.6,0.6-0.7,0.6C55.2,64.6,55.9,64,56,64L56,64z M54.7,63.1c0,0.1-0.7,0.6-0.8,0.5C53.9,63.7,54.7,63.1,54.7,63.1
				L54.7,63.1z M53.7,62.3c0,0.1-0.7,0.5-0.8,0.4C52.9,62.7,53.7,62.2,53.7,62.3L53.7,62.3z M52.6,61.4c0-0.1-0.6,0.2-0.6,0.3
				C52,61.7,52.6,61.5,52.6,61.4L52.6,61.4z M52.1,60.3c0-0.1-0.7,0.1-0.7,0.1C51.4,60.5,52.1,60.4,52.1,60.3L52.1,60.3z M51.8,59.1
				c0,0.1-0.8,0-0.8-0.1C51,58.9,51.8,59,51.8,59.1L51.8,59.1z M52.8,57c0.1-0.1-0.4-0.5-0.5-0.5C52.2,56.6,52.7,57.1,52.8,57
				L52.8,57z"/>
			<path fill-rule="evenodd" clip-rule="evenodd" fill="#D4AF3A" d="M73.2,55.3c-0.1,0.2-0.7,1.2-1.1,1.7c-0.3,0.4-0.7,0.8-1.1,1.3
				c-0.3,0.5-0.4,0.9-0.2,1.3c0.2,0.4,0.6,0.6,1.1,0.8c0.5,0.3,0.5,0.9,0.4,1.1c-0.1,0.2-0.2,0.6-0.8,0.7c-0.6,0.1-0.9,0-1.2,0.2
				c-0.3,0.3-0.3,0.7-1.1,0.7c0,0,0.1,1.2,0.2,1.7c0,0,0.2,0.1,0.2,0.2c0,0.1,0.1,0.2,0.2,0.3c0.1,0.1,0,0.1,0,0.1
				c-0.1-0.1-0.1-0.1-0.2-0.2c-0.1-0.1-0.1-0.1-0.1-0.1l0.3,1c0,0,0.9,0,0.9-0.4c0-0.4-0.2-0.5-0.1-0.6c0.1-0.1,0.3,0.1,0.4,0.2
				c0.1,0.1,0.8,0.4,1.1,0c0.3-0.4,0.1-0.7,0-0.8c-0.1-0.1-0.1-0.2,0-0.3c0.1,0,0.2,0,0.3,0.1c0.1,0.1,0.7,0.2,1-0.1
				c0.3-0.3,0.1-0.6-0.1-0.8c-0.2-0.1-0.3-0.2-0.3-0.3c0-0.1,0.2,0,0.3,0.1c0.2,0.1,0.6,0.1,0.9,0c0.2-0.1,0.4-0.4,0.2-0.6
				c-0.2-0.2-0.4-0.2-0.3-0.4c0.1-0.1,0.3,0,0.5,0c0.2,0,0.6-0.1,0.8-0.3c0.1-0.2,0.1-0.6-0.3-0.7c-0.4-0.1-0.4-0.1-0.4-0.2
				c0-0.1,0.4-0.1,0.7-0.2c0.3-0.1,0.6-0.3,0.6-0.7c-0.1-0.4-0.4-0.3-0.6-0.3c-0.2,0-0.3,0-0.3-0.1c0-0.1,0.2-0.1,0.5-0.2
				c0.3-0.1,0.9-0.4,0.7-0.7c-0.2-0.3-0.6-0.4-0.8-0.3c-0.2,0-0.4,0.1-0.2-0.1c0.2-0.1,0.9-0.5,0.7-1c-0.2-0.5-0.9-0.2-1-0.1
				c-0.1,0.1-0.5,0.4-0.7,0.3c-0.1,0,0.2-0.4,0.3-0.5c0.1-0.1,0.5-0.7,0.1-1c-0.3-0.3-1,0.1-1.2,0.2c-0.2,0.1-0.2,0-0.2-0.2
				C73.4,55.9,73.4,55.5,73.2,55.3L73.2,55.3z M74.7,58c0,0,0.6-0.4,0.6-0.4C75.4,57.7,74.8,58.1,74.7,58L74.7,58z M70.5,64
				c-0.1,0.1,0.6,0.6,0.7,0.6C71.3,64.6,70.6,64,70.5,64L70.5,64z M71.8,63.1c-0.1,0.1,0.7,0.6,0.8,0.5
				C72.6,63.7,71.8,63.1,71.8,63.1L71.8,63.1z M72.8,62.3c0,0.1,0.7,0.5,0.8,0.4C73.6,62.7,72.8,62.2,72.8,62.3L72.8,62.3z
				 M73.9,61.4c0-0.1,0.6,0.2,0.6,0.3C74.6,61.7,73.9,61.5,73.9,61.4L73.9,61.4z M74.4,60.3c0-0.1,0.7,0.1,0.7,0.1
				C75.1,60.5,74.4,60.4,74.4,60.3L74.4,60.3z M74.7,59.1c0,0.1,0.8,0,0.8-0.1C75.5,58.9,74.7,59,74.7,59.1L74.7,59.1z M73.7,57
				c-0.1-0.1,0.4-0.5,0.5-0.5C74.3,56.6,73.8,57.1,73.7,57L73.7,57z"/>
			<path fill-rule="evenodd" clip-rule="evenodd" fill="#D4AF3A" d="M51,51.9c0.1,0.3,0.3,1.1,0.4,1.3c0.1,0.2,0.7,1.4,0.9,1.6
				c0.2,0.2,0.5,0.6,0.6,0.8c0.1,0.2,0.1,0.3,0.1,0.4c0,0.1-0.1,0-0.3-0.1c-0.3-0.1-0.6-0.2-0.9,0c-0.3,0.2-0.3,0.5-0.3,0.8
				c0,0.2,0.1,0.3,0,0.3c-0.1,0.1-0.1,0-0.4,0c-0.3,0-0.5,0.1-0.6,0.3c-0.1,0.2-0.1,0.6,0,0.8c0.1,0.2,0.2,0.2,0.2,0.2
				c0,0.1-0.1,0-0.3,0.1c-0.2,0.1-0.3,0.3-0.3,0.4c0,0.1,0,0.4,0.3,0.7c0.3,0.2,0.3,0.2,0.3,0.2c0.1,0,0,0.1-0.1,0.1
				c-0.1,0.1-0.2,0.4-0.1,0.7c0.1,0.3,0.3,0.5,0.5,0.6c0.2,0.1,0.3,0.1,0.1,0.3C51,61.5,50.9,61.9,51,62c0,0.1,0.1,0.3,0.5,0.5
				c0.4,0.2,0.3,0.2,0.4,0.5c0.1,0.2,0.2,0.4,0.5,0.6c0.3,0.2,0.3,0.2,0.4,0.4c0.1,0.3,0.2,0.5,0.6,0.6c0.4,0.1,0.5,0,0.6,0
				c0.1,0,0.2-0.1,0.2,0.1c0,0.2,0.1,0.5,0.4,0.8c0.3,0.2,0.6,0.3,0.9,0.2s0.3-0.1,0.4,0.1c0.1,0.2,0.3,0.5,0.9,0.6
				c0,0-0.1,0.7,0,1.1c0,0-1,0.9-1.8,0.6c-0.8-0.3-0.4-0.7-0.1-0.8c0.3-0.1,0.5-0.3,0.6-0.4c0.1-0.1,0.1-0.2-0.1-0.1
				c-0.2,0.1-1,0.5-1.7,0.4c-0.7-0.1-0.6-0.6-0.4-0.6c0.2-0.1,0.6-0.2,0.8-0.4c0.2-0.2-0.1-0.2-0.3-0.1c-0.2,0.1-0.8,0.2-1.3,0
				s-0.3-0.5,0-0.6c0.3-0.1,0.4-0.1,0.6-0.2c0.1-0.1,0.2-0.2-0.1-0.1c-0.2,0-1.1,0.1-1.4,0c-0.3-0.1-0.6-0.3-0.6-0.5
				c-0.1-0.2,0.2-0.3,0.4-0.3c0.2,0,0.4-0.1,0.6-0.1c0.2-0.1,0.1-0.2-0.1-0.2c-0.2,0-1,0.1-1.4-0.1c-0.4-0.1-0.6-0.4-0.6-0.6
				c0-0.2,0.5-0.3,0.7-0.3c0.2,0,0.4,0,0.4-0.1c0-0.1-0.5-0.2-0.8-0.2c-0.3-0.1-0.8-0.3-1-0.6c-0.2-0.3-0.2-0.5,0.1-0.5
				c0.3,0,0.7,0,1-0.1c0.3,0,0-0.1-0.3-0.2c-0.3-0.1-0.9-0.3-1.1-0.7c-0.3-0.4-0.3-0.7-0.2-0.8s0.5,0.1,0.8,0.2
				c0.2,0.1,0.3,0.2,0.5,0.3c0.2,0.1,0.2,0,0.1-0.1c-0.1-0.1-0.9-0.6-1.2-1c-0.3-0.4-0.4-0.8-0.4-1c0-0.2,0.1-0.2,0.3-0.1
				c0.2,0.2,0.7,0.5,1,0.6c0.3,0.2,0.3,0.1,0.2,0s-0.7-0.7-1-1c-0.3-0.3-0.5-0.6-0.5-1c0-0.4,0.1-0.6,0.3-0.4
				c0.2,0.2,0.6,0.6,0.9,0.8c0.2,0.2,0.3,0.3,0.5,0.4c0.2,0.1,0.1,0,0-0.1c-0.1-0.1-0.7-0.7-0.8-1c-0.1-0.2-0.4-0.6-0.4-1
				c0-0.4,0.1-0.5,0.1-0.6c0-0.1,0.1-0.1,0.2,0.1c0.1,0.1,0.4,0.6,0.7,1c0.3,0.3,0.7,0.7,0.8,0.9c0.1,0.2,0.1,0,0-0.1
				c-0.1-0.1-0.6-0.8-0.8-1c-0.2-0.2-0.5-0.8-0.5-1.3c0-0.5,0.1-0.7,0.1-0.9c0.1-0.1,0.2-0.3,0.3,0.1c0.1,0.4,0.4,0.8,0.7,1.2
				c0.3,0.4,0.6,0.9,0.7,1.1c0.1,0.1,0.2,0.2,0.1-0.1c-0.1-0.2-0.6-1.1-0.7-1.3c-0.1-0.2-0.2-0.6-0.3-1c0-0.4,0.1-1.3,0.3-1.6
				C50.8,51.5,50.9,51.5,51,51.9L51,51.9z M55.9,67.4c-0.1,0.1-0.4,0.3-0.5,0.3c-0.1,0,0,0.1,0.1,0C55.7,67.7,55.9,67.5,55.9,67.4
				C56,67.4,56.1,67.3,55.9,67.4L55.9,67.4z M51.5,54.9c0.1,0.1,0.4,0.6,0.5,0.7c0.1,0.1,0.1,0,0,0C52,55.5,51.5,54.9,51.5,54.9
				C51.5,54.8,51.4,54.7,51.5,54.9L51.5,54.9z M50.6,55.8c0.1,0.1,0.4,0.6,0.5,0.6c0.1,0.1,0.1,0,0,0C51.1,56.4,50.7,55.9,50.6,55.8
				C50.7,55.8,50.6,55.8,50.6,55.8L50.6,55.8z M49.9,56.7c0.1,0.1,0.3,0.3,0.3,0.4c0.1,0.1,0.1,0,0.1,0C50.3,57.1,50,56.8,49.9,56.7
				C49.9,56.7,49.9,56.7,49.9,56.7L49.9,56.7z M49.7,57.9c0.1,0.1,0.3,0.3,0.4,0.4c0,0.1,0,0.1,0,0C49.9,58.3,49.7,58,49.7,57.9
				C49.6,57.9,49.6,57.8,49.7,57.9L49.7,57.9z M49.5,59.2c0.2,0.1,0.4,0.3,0.5,0.4c0.1,0.1,0.2,0.1,0.2,0c0-0.1-0.2-0.1-0.3-0.3
				C49.7,59.3,49.6,59.3,49.5,59.2C49.5,59.1,49.3,59.1,49.5,59.2L49.5,59.2z M49.8,60.7c0.2,0,0.3,0,0.3,0.1c0,0.1,0,0.1-0.1,0.1
				C50,60.8,49.9,60.8,49.8,60.7C49.7,60.7,49.7,60.7,49.8,60.7L49.8,60.7z M50.1,62.2c0.3,0.1,0.6,0.1,0.6,0
				C50.7,62.2,50.3,62.2,50.1,62.2C50.1,62.2,49.9,62.2,50.1,62.2L50.1,62.2z M51.7,63.7c-0.2,0.1-0.4,0.1-0.5,0.1
				c-0.2,0-0.3,0-0.3,0.1c0,0,0.1,0,0.2,0c0.2,0,0.2,0,0.3,0C51.5,63.8,51.6,63.8,51.7,63.7C51.9,63.7,51.9,63.6,51.7,63.7
				L51.7,63.7z M52,64.8c0.2,0,0.5,0,0.6-0.1c0.1-0.1,0.2,0,0.1,0.1c0,0.1-0.4,0.1-0.6,0.1c-0.2,0-0.2,0-0.3,0.1S51.8,64.8,52,64.8
				L52,64.8z M53.7,65.5c-0.1,0.1-0.4,0.3-0.5,0.4c-0.1,0.1-0.1,0.1,0,0.1C53.3,65.9,53.7,65.7,53.7,65.5
				C53.8,65.5,53.8,65.4,53.7,65.5L53.7,65.5z M54.7,66.4c-0.1,0.1-0.4,0.3-0.5,0.3c-0.1,0-0.1,0,0,0C54.3,66.8,54.6,66.6,54.7,66.4
				C54.8,66.4,54.7,66.4,54.7,66.4L54.7,66.4z"/>
			<path fill-rule="evenodd" clip-rule="evenodd" fill="#D4AF3A" d="M50.1,53.7c0,0-0.5-0.7-0.6-1.2c-0.1-0.4-0.4-1.9-0.4-2.6
				c0-0.7,0-2.2,0.8-3.2c0,0,0.2,2.4,0.2,2.9c0,0.5,0.3,1.5,0.4,1.7c0.1,0.2,0,0.3-0.1,0.5c-0.1,0.2-0.3,0.5-0.3,0.7
				c-0.1-0.2-0.3-1.2-0.3-1.4c-0.1-0.6-0.1-1.1-0.1-1.1s0,0.5,0.1,1.2c0.1,0.7,0.3,1.3,0.3,1.5c0,0.1,0,0.4,0,0.5
				C50.1,53.2,50.1,53.5,50.1,53.7L50.1,53.7z"/>
			<path fill-rule="evenodd" clip-rule="evenodd" fill="#D4AF3A" d="M48.2,48.3c0,0,0.1,1.7,0.3,2.9c0.3,1.2,0.6,1.8,0.7,1.9
				c0.1,0.1,0,0.2,0,0.3s-0.1,1-0.1,1.3c0,0-0.7-0.8-0.9-2.9c0,0-0.1,1.2,0.6,2.7c0,0-0.3,0.1-0.3,0.6C48.6,55.2,46.7,51,48.2,48.3
				L48.2,48.3z"/>
			<path fill-rule="evenodd" clip-rule="evenodd" fill="#D4AF3A" d="M46.8,51.9c0.2,0.5,0.4,1.3,0.5,1.6c0.1,0.3,0.5,1.1,0.6,1.4
				c0.2,0.3,0.5,0.8,0.6,0.9c0.1,0.1,0.2,0.4,0.1,0.3c-0.2-0.1-0.2-0.2-0.3,0c0,0.2-0.1,0.3-0.2,0.2c-0.1-0.1-0.7-1-1-1.8
				c0,0,0.1,0.9,1,2c0,0,0,0.4,0.1,0.8c0,0-0.9-0.8-1.4-2.1c-0.5-1.3-0.6-2.2-0.6-2.7c0-0.4,0.2-1.1,0.2-1.2c0-0.2,0.1-0.2,0.1-0.1
				C46.6,51.4,46.7,51.6,46.8,51.9L46.8,51.9z"/>
			<path fill-rule="evenodd" clip-rule="evenodd" fill="#D4AF3A" d="M45.6,54.2c0.1,0.3,0.5,0.9,0.6,1.2c0.1,0.2,0.5,0.7,0.6,0.9
				c0.2,0.2,0.5,0.5,0.7,0.8c0.2,0.2,0.6,0.5,0.7,0.5c0.1,0.1,0,0.2,0,0.2c0,0.1-0.1,0.1-0.1,0.2c0,0.1,0,0.1-0.1,0
				c-0.1-0.1-1-1.1-1.2-1.2c-0.3-0.1,0.4,0.7,1.2,1.3c0,0,0.1,0.1,0.1,0.2c0,0.2,0,0.2,0.1,0.4c0.1,0.1,0.1,0.2-0.1,0.1
				c-0.2-0.1-1-0.7-1.4-1.2c-0.4-0.6-0.9-1.4-1.1-2.4c-0.2-1-0.1-1.1,0-1.1C45.6,54.1,45.6,54.1,45.6,54.2L45.6,54.2z"/>
			<path fill-rule="evenodd" clip-rule="evenodd" fill="#D4AF3A" d="M45.5,57.2c0.2,0.2,0.7,0.7,0.9,0.9c0.2,0.2,0.5,0.4,0.8,0.6
				c0.3,0.2,0.5,0.4,0.8,0.5c0.2,0.1,0.4,0.1,0.5,0.2c0.1,0.1,0.2,0.2,0.1,0.2c-0.1,0-0.2,0.1-0.2,0.1c-0.1,0.1-0.1,0.1-0.1,0
				c-0.1,0-1.4-0.9-1.5-0.9c-0.1-0.1-0.2,0-0.1,0c0.1,0.1,1.5,1,1.6,1c0.1,0.1,0.1,0,0.1,0.2c0,0.1,0.1,0.3,0,0.3
				c-0.6,0-1.4-0.6-2.1-1.2c-0.7-0.6-1.1-1.5-1.1-2.2c0-0.2,0-0.2,0.1-0.1C45.4,57.1,45.5,57.1,45.5,57.2L45.5,57.2z"/>
			<path fill-rule="evenodd" clip-rule="evenodd" fill="#D4AF3A" d="M45.2,59.2c0.8,0.5,1.3,0.9,2.2,1.2c0.4,0.1,0.9,0.2,1,0.3
				c0.1,0,0.1,0.1,0.2,0.2c0.1,0.1,0.2,0.2,0.3,0.2c0.1,0.1,0.1,0.1,0,0.1c-0.1,0-1-0.2-1.3-0.3c-0.3-0.1-0.4-0.2-0.5-0.2
				c-0.1-0.1-0.2-0.1,0,0c0.1,0.1,0.3,0.2,0.6,0.3c0.4,0.1,1,0.2,1.3,0.3c0.3,0.1,0.5,0.1,0.3,0.1c-0.2,0-0.3,0.1-0.4,0.2
				c0,0.1,0,0.2,0,0.3c0,0.1,0,0.1-0.3,0.1c-0.2-0.1-1.2-0.4-2-0.9c-0.7-0.5-1.1-1-1.3-1.3c-0.2-0.3-0.3-0.6-0.3-0.7
				C45,59.1,45.1,59.1,45.2,59.2L45.2,59.2z"/>
			<path fill-rule="evenodd" clip-rule="evenodd" fill="#D4AF3A" d="M49.2,62.6c0,0-0.8-0.1-1.8-0.5c-1.1-0.4-1.6-0.7-1.7-0.8
				c-0.1-0.1-0.1-0.1-0.1,0.1c0,0.2,0.3,0.8,0.8,1.3c0.6,0.5,1.5,0.7,1.9,0.8c0.3,0.1,1,0.1,1.4,0.1c0,0-0.1-0.2,0-0.3
				c0.1-0.1,0-0.1-0.2-0.1c-0.1,0-1.4-0.2-1.8-0.4c-0.4-0.1,0,0,0.2,0c0.2,0,0.9,0.1,1.4,0.2c0.4,0.1,0.5,0,0.7,0
				c0.2,0,0.1-0.1,0-0.1c-0.2,0-0.4-0.1-0.5-0.2C49.2,62.7,49.2,62.6,49.2,62.6L49.2,62.6z"/>
			<path fill-rule="evenodd" clip-rule="evenodd" fill="#D4AF3A" d="M46.9,63.8c0.3,0.1,0.9,0.3,1.6,0.3c0.8,0,1,0,1.1,0
				c0.1,0,0.2,0,0.3,0.1c0.1,0.1,0.2,0.1,0.3,0.2c0.1,0.1,0,0.1-0.1,0.2c-0.1,0-0.7,0.1-1,0.1c-0.3,0-0.2,0-0.1,0.1
				c0.2,0,0.6,0,0.9,0c0.3,0,0.4-0.1,0.5-0.1s0.1,0.1,0.1,0.2c0,0.1,0,0.1,0.1,0.2c0.1,0.1,0.1,0.2-0.1,0.2c-0.2,0.1-1,0.2-1.9,0
				c-0.9-0.1-1.3-0.3-1.6-0.6c-0.3-0.3-0.4-0.5-0.6-0.7C46.4,63.7,46.5,63.6,46.9,63.8L46.9,63.8z"/>
			<path fill-rule="evenodd" clip-rule="evenodd" fill="#D4AF3A" d="M48,65.7c0.3,0.1,0.8,0.1,1.5,0.1c0.7,0,1.3-0.2,1.5-0.3
				c0.1-0.1,0.3,0,0.5,0c0.2,0.1,0.3,0,0.2,0.1s-0.5,0.3-0.8,0.4c-0.3,0.1-0.4,0.1-0.5,0.1c-0.1,0-0.2,0.1,0,0.1
				c0.1,0,0.5-0.1,0.9-0.2c0.4-0.1,0.5-0.1,0.6-0.2c0.1-0.1,0.2,0.1,0.1,0.3c-0.1,0.1-0.2,0.2-0.7,0.5c-0.6,0.2-1.1,0.4-1.8,0.3
				c-0.6-0.1-1-0.1-1.3-0.5C47.7,66,47.6,65.6,48,65.7L48,65.7z"/>
			<path fill-rule="evenodd" clip-rule="evenodd" fill="#D4AF3A" d="M49.8,67.4c0.4-0.1,1.3-0.5,1.6-0.6c0.2-0.1,0.5-0.3,0.6-0.4
				c0.1-0.1,0.2,0,0.4,0.1c0.2,0,0.3,0,0.4,0c0.1,0,0.1,0,0,0.2c-0.1,0.1-0.4,0.3-0.7,0.5c-0.3,0.1-0.5,0.2-0.3,0.2
				c0.1,0,0.5-0.2,0.6-0.2c0.1-0.1,0.3-0.2,0.4-0.3c0.1-0.1,0.1,0,0.1,0.1c0,0.1,0,0.3,0.2,0.4c0.2,0.1,0.1,0.1,0,0.2
				c-0.1,0.1-1.4,0.6-2.2,0.6c-0.7,0-1.1-0.1-1.3-0.3c-0.2-0.3-0.2-0.3-0.2-0.3C49.4,67.6,49.7,67.5,49.8,67.4L49.8,67.4z"/>
			<path fill-rule="evenodd" clip-rule="evenodd" fill="#D4AF3A" d="M51.3,68.9c0.5-0.1,1.2-0.4,1.5-0.7c0.3-0.2,1-0.7,1.4-0.5
				c0,0-0.5,0.5-1.1,0.9c0,0,0.8-0.1,1.2-0.8c0,0,0.4,0.5,0,1c-0.5,0.5-1.4,0.6-1.8,0.6c-0.4,0-1-0.2-1.2-0.4
				C51,68.9,51.2,68.9,51.3,68.9L51.3,68.9z"/>
			<path fill-rule="evenodd" clip-rule="evenodd" fill="#D4AF3A" d="M54.7,68.6c-0.2,0.3-0.8,0.9-0.9,1.1c-0.1,0.2-0.2,0.3,0.1,0.3
				c0.2,0.1,0.8,0.2,1.4-0.1c0.7-0.4,0.9-0.7,1.1-1c0.2-0.3,0.3-0.9,0.3-0.9s-0.2,0.4-1,0.5c0,0-0.4,0.7-0.9,0.9
				c-0.5,0.2,0-0.1,0.1-0.2c0.2-0.1,0.4-0.4,0.5-0.5c0.1-0.1-0.2-0.1-0.4-0.1C54.9,68.5,54.8,68.5,54.7,68.6L54.7,68.6z"/>
			<path fill-rule="evenodd" clip-rule="evenodd" fill="#D4AF3A" d="M56.8,68.5c-0.1,0.3-0.3,0.9-0.5,1.1c-0.2,0.2-0.4,0.5-0.4,0.6
				c0.1,0.1,0.4,0.1,0.6,0.1c0.3-0.1,0.5-0.3,0.6-0.5c0.1-0.2,0-0.3,0-0.4c0-0.1-0.1-0.2-0.2-0.1c-0.1,0.1-0.2,0.3-0.3,0.3
				c-0.1,0.1,0-0.2,0-0.2c0-0.1,0.1-0.2,0.2-0.3c0-0.1,0-0.1,0-0.2C57,68.8,56.9,68.6,56.8,68.5C56.9,68.5,56.9,68.4,56.8,68.5
				L56.8,68.5z"/>
			<path fill-rule="evenodd" clip-rule="evenodd" fill="#D4AF3A" d="M57.6,69.9c0,0,0.1,0.2,0.6,0.6c0,0,0,0.4-0.4,0.8
				c0,0,0.5-0.2,0.6-0.6c0,0,0.5,0.4,1,0.6c0,0-0.4,0.4-0.6,0.7c-0.1,0.3,0,0.1,0.1,0s0.5-0.5,0.6-0.6c0.1-0.1,0.2,0,0.4,0.1
				c0.2,0.1,0.3,0.1,0.4,0.2c0.1,0,0,0.1-0.2,0.3c-0.3,0.2-0.4,0.4-0.5,0.6c-0.2,0.2-0.7,0.8-0.8,1c-0.2,0.2-0.7,0.8-0.7,0.9
				c0,0,0.1-0.8,0.2-1c0.1-0.3,0-0.2-0.1,0c-0.1,0.2-0.3,1.1-0.4,1.2c0,0.1-0.1,0.1-0.1-0.1c-0.1-0.2-0.2-0.7-0.3-1
				c0-0.3,0-0.5,0.1-0.7c0.1-0.1,0.1-0.2,0.1-0.3c0-0.1-0.2,0-0.4,0c-0.1,0-0.9-0.1-1.2-0.2c-0.3-0.1-0.3-0.2-0.4-0.2
				c-0.1-0.1-0.1-0.1,0.1-0.1c0.2,0,0.9,0,1-0.1c0.2,0,0.3-0.1,0.4-0.1c0.1-0.1,0.1-0.1-0.1-0.1C56.9,72,56.7,72,56.4,72
				c-0.3,0-0.6,0-0.8-0.1c-0.2-0.1-0.3-0.1,0-0.1c0.2,0,0.9-0.3,1.1-0.5c0.2-0.2,0.6-0.5,0.8-0.8C57.5,70.2,57.6,69.9,57.6,69.9
				L57.6,69.9z"/>
			<path fill-rule="evenodd" clip-rule="evenodd" fill="#D4AF3A" d="M57.3,73.3c0.1,0.2,0.1,0.4,0.1,0.6c0,0.2,0.1,0.3-0.1,0.4
				c-0.2,0.1-0.9,0.6-1.3,0.8c-0.4,0.3-0.4,0.3-0.5,0.4c-0.1,0.1-0.1-0.1-0.1-0.3c0-0.1,0.1-0.7,0.2-1c0.1-0.4,0.3-0.6,0.3-0.7
				c0.1-0.1,0.1-0.1-0.1-0.2c-0.2,0-0.5,0-0.8-0.1c-0.2-0.1-0.5-0.2-0.6-0.3c-0.2-0.1-0.1-0.1,0.1-0.2c0.2,0,0.6-0.2,0.7-0.3
				c0.2-0.1,0.2,0,0.3,0c0.1,0.1,0.5,0.3,0.8,0.4c0.3,0.1,0.4,0.1,0.5,0.1c0.2,0-0.2,0.5-0.3,0.7c-0.1,0.2-0.2,0.3-0.2,0.4
				c0,0,0.2-0.2,0.3-0.3c0.1-0.1,0.4-0.4,0.5-0.5C57.2,73.1,57.3,73.1,57.3,73.3L57.3,73.3z"/>
			<path fill-rule="evenodd" clip-rule="evenodd" fill="#D4AF3A" d="M53.7,73.9c0.2,0,0.8,0,0.8,0c0.1,0,0.2-0.1,0.3-0.2
				c0.1-0.1,0.1-0.1-0.1-0.1c-0.1,0-0.2-0.1-0.3-0.1c-0.1,0-0.2,0-0.3,0.1C54.1,73.6,53.9,73.8,53.7,73.9
				C53.7,73.8,53.7,73.9,53.7,73.9L53.7,73.9z"/>
			<path fill-rule="evenodd" clip-rule="evenodd" fill="#D4AF3A" d="M75.6,51.9c-0.1,0.3-0.3,1.1-0.4,1.3c-0.1,0.2-0.7,1.4-0.9,1.6
				c-0.2,0.2-0.5,0.6-0.6,0.8c-0.1,0.2-0.1,0.3-0.1,0.4c0,0.1,0.1,0,0.3-0.1c0.3-0.1,0.6-0.2,0.9,0c0.3,0.2,0.3,0.5,0.3,0.8
				c0,0.2-0.1,0.3,0,0.3c0.1,0.1,0.1,0,0.4,0c0.3,0,0.5,0.1,0.6,0.3c0.1,0.2,0.1,0.6,0,0.8c-0.1,0.2-0.2,0.2-0.2,0.2
				c0,0.1,0.1,0,0.3,0.1c0.2,0.1,0.3,0.3,0.3,0.4c0,0.1,0,0.4-0.3,0.7s-0.3,0.2-0.3,0.2c-0.1,0,0,0.1,0.1,0.1
				c0.1,0.1,0.2,0.4,0.1,0.7c-0.1,0.3-0.3,0.5-0.5,0.6c-0.2,0.1-0.3,0.1-0.1,0.3c0.1,0.2,0.1,0.5,0.1,0.7c0,0.1-0.1,0.3-0.5,0.5
				c-0.4,0.2-0.3,0.2-0.4,0.5c-0.1,0.2-0.2,0.4-0.5,0.6c-0.3,0.2-0.3,0.2-0.4,0.4c-0.1,0.3-0.2,0.5-0.6,0.6c-0.4,0.1-0.5,0-0.6,0
				c-0.1,0-0.2-0.1-0.2,0.1c0,0.2-0.1,0.5-0.4,0.8c-0.3,0.2-0.6,0.3-0.9,0.2c-0.2-0.1-0.3-0.1-0.4,0.1c-0.1,0.2-0.3,0.5-0.9,0.6
				c0,0,0.1,0.7,0,1.1c0,0,1,0.9,1.8,0.6c0.8-0.3,0.4-0.7,0.1-0.8c-0.3-0.1-0.5-0.3-0.6-0.4c-0.1-0.1-0.1-0.2,0.1-0.1
				c0.2,0.1,1,0.5,1.7,0.4c0.7-0.1,0.6-0.6,0.4-0.6c-0.2-0.1-0.6-0.2-0.8-0.4c-0.2-0.2,0.1-0.2,0.3-0.1c0.2,0.1,0.8,0.2,1.3,0
				s0.3-0.5,0-0.6c-0.3-0.1-0.4-0.1-0.6-0.2c-0.1-0.1-0.2-0.2,0.1-0.1c0.2,0,1.1,0.1,1.4,0c0.3-0.1,0.6-0.3,0.6-0.5
				c0.1-0.2-0.2-0.3-0.4-0.3c-0.2,0-0.4-0.1-0.6-0.1c-0.2-0.1-0.1-0.2,0.1-0.2c0.2,0,1,0.1,1.4-0.1c0.4-0.1,0.6-0.4,0.6-0.6
				c0-0.2-0.5-0.3-0.7-0.3c-0.2,0-0.4,0-0.4-0.1c0-0.1,0.5-0.2,0.8-0.2c0.3-0.1,0.8-0.3,1-0.6c0.2-0.3,0.2-0.5-0.1-0.5
				c-0.3,0-0.7,0-1-0.1c-0.3,0,0-0.1,0.3-0.2c0.3-0.1,0.9-0.3,1.1-0.7c0.3-0.4,0.2-0.7,0.2-0.8s-0.5,0.1-0.8,0.2
				c-0.2,0.1-0.3,0.2-0.5,0.3c-0.2,0.1-0.2,0-0.1-0.1c0.1-0.1,0.9-0.6,1.2-1c0.3-0.4,0.4-0.8,0.4-1c0-0.2-0.1-0.2-0.3-0.1
				c-0.2,0.2-0.7,0.5-1,0.6c-0.3,0.2-0.3,0.1-0.2,0c0.1-0.1,0.7-0.7,1-1c0.3-0.3,0.5-0.6,0.5-1c0-0.4-0.1-0.6-0.3-0.4
				c-0.2,0.2-0.6,0.6-0.9,0.8c-0.2,0.2-0.3,0.3-0.5,0.4c-0.2,0.1-0.1,0,0-0.1c0.1-0.1,0.7-0.7,0.8-1c0.1-0.2,0.4-0.6,0.4-1
				c0-0.4-0.1-0.5-0.1-0.6c0-0.1-0.1-0.1-0.2,0.1c-0.1,0.1-0.4,0.6-0.7,1c-0.3,0.3-0.7,0.7-0.8,0.9c-0.1,0.2-0.1,0,0-0.1
				c0.1-0.1,0.6-0.8,0.8-1c0.2-0.2,0.5-0.8,0.5-1.3c0-0.5-0.1-0.7-0.1-0.9c-0.1-0.1-0.2-0.3-0.3,0.1c-0.1,0.4-0.4,0.8-0.7,1.2
				c-0.3,0.4-0.6,0.9-0.7,1.1c-0.1,0.1-0.2,0.2-0.1-0.1c0.1-0.2,0.6-1.1,0.7-1.3c0.1-0.2,0.2-0.6,0.3-1c0-0.4-0.1-1.3-0.3-1.6
				C75.7,51.5,75.7,51.5,75.6,51.9L75.6,51.9z M70.6,67.4c0.1,0.1,0.4,0.3,0.5,0.3c0.1,0,0,0.1-0.1,0C70.9,67.7,70.7,67.5,70.6,67.4
				C70.5,67.4,70.5,67.3,70.6,67.4L70.6,67.4z M75.1,54.9c-0.1,0.1-0.4,0.6-0.5,0.7c-0.1,0.1-0.1,0,0,0C74.5,55.5,75,54.9,75.1,54.9
				C75.1,54.8,75.1,54.7,75.1,54.9L75.1,54.9z M75.9,55.8c-0.1,0.1-0.4,0.6-0.5,0.6c-0.1,0.1-0.1,0,0,0
				C75.4,56.4,75.8,55.9,75.9,55.8C75.9,55.8,75.9,55.8,75.9,55.8L75.9,55.8z M76.6,56.7c-0.1,0.1-0.3,0.3-0.3,0.4
				c-0.1,0.1-0.1,0-0.1,0C76.3,57.1,76.5,56.8,76.6,56.7C76.6,56.7,76.7,56.7,76.6,56.7L76.6,56.7z M76.9,57.9
				c-0.1,0.1-0.3,0.3-0.4,0.4c0,0.1,0,0.1,0,0C76.6,58.3,76.8,58,76.9,57.9C76.9,57.9,77,57.8,76.9,57.9L76.9,57.9z M77,59.2
				c-0.2,0.1-0.4,0.3-0.5,0.4c-0.1,0.1-0.2,0.1-0.2,0c0-0.1,0.2-0.1,0.3-0.3C76.9,59.3,76.9,59.3,77,59.2
				C77.1,59.1,77.2,59.1,77,59.2L77,59.2z M76.7,60.7c-0.2,0-0.3,0-0.3,0.1c0,0.1,0,0.1,0.1,0.1C76.5,60.8,76.6,60.8,76.7,60.7
				C76.8,60.7,76.8,60.7,76.7,60.7L76.7,60.7z M76.4,62.2c-0.3,0.1-0.6,0.1-0.6,0C75.8,62.2,76.2,62.2,76.4,62.2
				C76.5,62.2,76.6,62.2,76.4,62.2L76.4,62.2z M74.8,63.7c0.2,0.1,0.4,0.1,0.5,0.1c0.2,0,0.3,0,0.3,0.1c0,0-0.1,0-0.2,0
				c-0.2,0-0.2,0-0.3,0C75,63.8,74.9,63.8,74.8,63.7C74.7,63.7,74.7,63.6,74.8,63.7L74.8,63.7z M74.5,64.8c-0.2,0-0.5,0-0.6-0.1
				c-0.1-0.1-0.2,0-0.1,0.1c0,0.1,0.4,0.1,0.6,0.1c0.2,0,0.2,0,0.3,0.1C74.7,65,74.7,64.8,74.5,64.8L74.5,64.8z M72.8,65.5
				c0.1,0.1,0.4,0.3,0.5,0.4c0.1,0.1,0.1,0.1,0,0.1C73.3,65.9,72.9,65.7,72.8,65.5C72.7,65.5,72.7,65.4,72.8,65.5L72.8,65.5z
				 M71.8,66.4c0.1,0.1,0.4,0.3,0.5,0.3c0.1,0,0.1,0,0,0C72.2,66.8,71.9,66.6,71.8,66.4C71.7,66.4,71.8,66.4,71.8,66.4L71.8,66.4z"
				/>
			<path fill-rule="evenodd" clip-rule="evenodd" fill="#D4AF3A" d="M76.4,53.7c0,0,0.5-0.7,0.6-1.2c0.1-0.4,0.4-1.9,0.4-2.6
				c0-0.7,0-2.2-0.8-3.2c0,0-0.2,2.4-0.2,2.9c0,0.5-0.3,1.5-0.4,1.7c-0.1,0.2,0,0.3,0.1,0.5c0.1,0.2,0.3,0.5,0.3,0.7
				c0.1-0.2,0.3-1.2,0.3-1.4c0.1-0.6,0.1-1.1,0.1-1.1s0,0.5-0.1,1.2c-0.1,0.7-0.3,1.3-0.3,1.5c0,0.1,0,0.4,0,0.5
				C76.5,53.2,76.5,53.5,76.4,53.7L76.4,53.7z"/>
			<path fill-rule="evenodd" clip-rule="evenodd" fill="#D4AF3A" d="M78.4,48.3c0,0-0.1,1.7-0.3,2.9c-0.3,1.2-0.6,1.8-0.7,1.9
				c-0.1,0.1,0,0.2,0,0.3s0.1,1,0.1,1.3c0,0,0.7-0.8,0.9-2.9c0,0,0.1,1.2-0.6,2.7c0,0,0.3,0.1,0.3,0.6C77.9,55.2,79.9,51,78.4,48.3
				L78.4,48.3z"/>
			<path fill-rule="evenodd" clip-rule="evenodd" fill="#D4AF3A" d="M79.8,51.9c-0.2,0.5-0.4,1.3-0.5,1.6c-0.1,0.3-0.5,1.1-0.6,1.4
				c-0.2,0.3-0.5,0.8-0.6,0.9c-0.1,0.1-0.2,0.4-0.1,0.3c0.2-0.1,0.2-0.2,0.3,0c0,0.2,0.1,0.3,0.2,0.2s0.7-1,1-1.8c0,0-0.1,0.9-1,2
				c0,0,0,0.4-0.1,0.8c0,0,0.9-0.8,1.4-2.1c0.5-1.3,0.6-2.2,0.6-2.7c0-0.4-0.2-1.1-0.2-1.2c0-0.2-0.1-0.2-0.1-0.1
				C79.9,51.4,79.8,51.6,79.8,51.9L79.8,51.9z"/>
			<path fill-rule="evenodd" clip-rule="evenodd" fill="#D4AF3A" d="M80.9,54.2c-0.1,0.3-0.5,0.9-0.6,1.2c-0.1,0.2-0.5,0.7-0.6,0.9
				c-0.2,0.2-0.5,0.5-0.7,0.8c-0.2,0.2-0.6,0.5-0.7,0.5c-0.1,0.1,0,0.2,0,0.2c0,0.1,0.1,0.1,0.1,0.2c0,0.1,0,0.1,0.1,0
				c0.1-0.1,1-1.1,1.2-1.2c0.3-0.1-0.4,0.7-1.2,1.3c0,0-0.1,0.1-0.1,0.2c0,0.2,0,0.2-0.1,0.4c-0.1,0.1-0.1,0.2,0.1,0.1
				c0.2-0.1,1-0.7,1.4-1.2c0.4-0.6,0.9-1.4,1.1-2.4c0.2-1,0.1-1.1,0-1.1C81,54.1,81,54.1,80.9,54.2L80.9,54.2z"/>
			<path fill-rule="evenodd" clip-rule="evenodd" fill="#D4AF3A" d="M81,57.2c-0.2,0.2-0.7,0.7-0.9,0.9c-0.2,0.2-0.5,0.4-0.8,0.6
				c-0.3,0.2-0.5,0.4-0.8,0.5c-0.2,0.1-0.4,0.1-0.5,0.2c-0.1,0.1-0.2,0.2-0.1,0.2c0.1,0,0.2,0.1,0.2,0.1c0.1,0.1,0.1,0.1,0.1,0
				c0.1,0,1.4-0.9,1.5-0.9c0.1-0.1,0.2,0,0.1,0c-0.1,0.1-1.5,1-1.6,1c-0.1,0.1-0.1,0-0.1,0.2c0,0.1-0.1,0.3,0,0.3
				c0.6,0,1.4-0.6,2.1-1.2c0.7-0.6,1.1-1.5,1.1-2.2c0-0.2,0-0.2-0.1-0.1C81.1,57.1,81.1,57.1,81,57.2L81,57.2z"/>
			<path fill-rule="evenodd" clip-rule="evenodd" fill="#D4AF3A" d="M81.3,59.2c-0.8,0.5-1.3,0.9-2.2,1.2c-0.4,0.1-0.9,0.2-1,0.3
				c-0.1,0-0.1,0.1-0.2,0.2c-0.1,0.1-0.2,0.2-0.3,0.2c-0.1,0.1-0.1,0.1,0,0.1c0.1,0,1-0.2,1.3-0.3c0.3-0.1,0.4-0.2,0.5-0.2
				c0.1-0.1,0.2-0.1,0,0c-0.1,0.1-0.3,0.2-0.6,0.3c-0.4,0.1-1,0.2-1.3,0.3c-0.3,0.1-0.5,0.1-0.3,0.1c0.2,0,0.3,0.1,0.4,0.2
				c0,0.1,0,0.2,0,0.3c0,0.1,0,0.1,0.3,0.1c0.2-0.1,1.2-0.4,2-0.9c0.7-0.5,1.1-1,1.3-1.3c0.2-0.3,0.3-0.6,0.3-0.7
				C81.6,59.1,81.4,59.1,81.3,59.2L81.3,59.2z"/>
			<path fill-rule="evenodd" clip-rule="evenodd" fill="#D4AF3A" d="M77.4,62.6c0,0,0.8-0.1,1.9-0.5c1.1-0.4,1.6-0.7,1.7-0.8
				c0.1-0.1,0.1-0.1,0.1,0.1c0,0.2-0.3,0.8-0.8,1.3c-0.6,0.5-1.5,0.7-1.9,0.8c-0.3,0.1-1,0.1-1.4,0.1c0,0,0.1-0.2,0-0.3
				c-0.1-0.1,0-0.1,0.2-0.1c0.1,0,1.4-0.2,1.8-0.4c0.4-0.1,0,0-0.2,0c-0.2,0-0.9,0.1-1.4,0.2c-0.4,0.1-0.5,0-0.7,0
				c-0.2,0-0.1-0.1,0.1-0.1c0.2,0,0.4-0.1,0.5-0.2C77.3,62.7,77.3,62.6,77.4,62.6L77.4,62.6z"/>
			<path fill-rule="evenodd" clip-rule="evenodd" fill="#D4AF3A" d="M79.6,63.8c-0.3,0.1-0.9,0.3-1.6,0.3c-0.8,0-1,0-1.1,0
				c-0.1,0-0.2,0-0.3,0.1c-0.1,0.1-0.2,0.1-0.3,0.2c-0.1,0.1,0,0.1,0.1,0.2c0.1,0,0.7,0.1,1,0.1c0.3,0,0.2,0,0.1,0.1
				c-0.2,0-0.6,0-0.9,0c-0.3,0-0.4-0.1-0.5-0.1c-0.1,0-0.1,0.1-0.1,0.2c0,0.1,0,0.1-0.1,0.2c-0.1,0.1-0.1,0.2,0.1,0.2
				c0.2,0.1,1,0.2,1.9,0c0.9-0.1,1.3-0.3,1.6-0.6c0.3-0.3,0.4-0.5,0.6-0.7C80.1,63.7,80,63.6,79.6,63.8L79.6,63.8z"/>
			<path fill-rule="evenodd" clip-rule="evenodd" fill="#D4AF3A" d="M78.6,65.7c-0.3,0.1-0.8,0.1-1.5,0.1c-0.7,0-1.3-0.2-1.5-0.3
				s-0.3,0-0.5,0c-0.2,0.1-0.3,0-0.2,0.1c0.1,0.1,0.5,0.3,0.8,0.4c0.3,0.1,0.4,0.1,0.5,0.1c0.1,0,0.2,0.1,0,0.1
				c-0.1,0-0.5-0.1-0.9-0.2c-0.4-0.1-0.5-0.1-0.6-0.2c-0.1-0.1-0.2,0.1-0.1,0.3c0.1,0.1,0.2,0.2,0.7,0.5c0.6,0.2,1.1,0.4,1.8,0.3
				c0.6-0.1,1-0.1,1.3-0.5C78.8,66,79,65.6,78.6,65.7L78.6,65.7z"/>
			<path fill-rule="evenodd" clip-rule="evenodd" fill="#D4AF3A" d="M76.7,67.4c-0.4-0.1-1.3-0.5-1.6-0.6c-0.2-0.1-0.5-0.3-0.6-0.4
				c-0.1-0.1-0.2,0-0.4,0.1c-0.2,0-0.3,0-0.4,0c-0.1,0-0.1,0,0,0.2c0.1,0.1,0.4,0.3,0.7,0.5c0.3,0.1,0.5,0.2,0.3,0.2
				c-0.1,0-0.5-0.2-0.6-0.2c-0.1-0.1-0.3-0.2-0.4-0.3c-0.1-0.1-0.1,0-0.1,0.1c0,0.1,0,0.3-0.2,0.4c-0.2,0.1-0.1,0.1,0,0.2
				c0.1,0.1,1.4,0.6,2.2,0.6c0.7,0,1.1-0.1,1.3-0.3c0.2-0.3,0.2-0.3,0.2-0.3C77.1,67.6,76.9,67.5,76.7,67.4L76.7,67.4z"/>
			<path fill-rule="evenodd" clip-rule="evenodd" fill="#D4AF3A" d="M75.3,68.9c-0.5-0.1-1.2-0.4-1.5-0.7c-0.3-0.2-1-0.7-1.4-0.5
				c0,0,0.5,0.5,1.1,0.9c0,0-0.8-0.1-1.2-0.8c0,0-0.4,0.5,0,1c0.5,0.5,1.4,0.6,1.8,0.6c0.4,0,1-0.2,1.2-0.4
				C75.6,68.9,75.4,68.9,75.3,68.9L75.3,68.9z"/>
			<path fill-rule="evenodd" clip-rule="evenodd" fill="#D4AF3A" d="M71.9,68.6c0.2,0.3,0.8,0.9,0.9,1.1c0.1,0.2,0.2,0.3-0.1,0.3
				c-0.2,0.1-0.8,0.2-1.4-0.1c-0.7-0.4-0.9-0.7-1.1-1C70,68.6,69.8,68,69.8,68s0.2,0.4,1,0.5c0,0,0.4,0.7,0.9,0.9
				c0.5,0.2,0-0.1-0.1-0.2c-0.2-0.1-0.4-0.4-0.5-0.5c-0.1-0.1,0.2-0.1,0.4-0.1S71.8,68.5,71.9,68.6L71.9,68.6z"/>
			<path fill-rule="evenodd" clip-rule="evenodd" fill="#D4AF3A" d="M69.7,68.5c0.1,0.3,0.3,0.9,0.5,1.1c0.2,0.2,0.4,0.5,0.4,0.6
				c-0.1,0.1-0.4,0.1-0.6,0.1c-0.3-0.1-0.5-0.3-0.6-0.5c-0.1-0.2,0-0.3,0-0.4c0-0.1,0.1-0.2,0.2-0.1c0.1,0.1,0.2,0.3,0.3,0.3
				c0.1,0.1,0-0.2,0-0.2c0-0.1-0.1-0.2-0.2-0.3c0-0.1,0-0.1,0-0.2C69.6,68.8,69.6,68.6,69.7,68.5C69.7,68.5,69.7,68.4,69.7,68.5
				L69.7,68.5z"/>
			<path fill-rule="evenodd" clip-rule="evenodd" fill="#D4AF3A" d="M68.9,69.9c0,0-0.1,0.2-0.6,0.6c0,0,0,0.4,0.4,0.8
				c0,0-0.5-0.2-0.6-0.6c0,0-0.5,0.4-1,0.6c0,0,0.4,0.4,0.6,0.7c0.1,0.3,0,0.1-0.1,0c-0.1-0.1-0.5-0.5-0.6-0.6
				c-0.1-0.1-0.2,0-0.4,0.1c-0.2,0.1-0.3,0.1-0.4,0.2c-0.1,0,0,0.1,0.2,0.3c0.3,0.2,0.4,0.4,0.5,0.6c0.2,0.2,0.7,0.8,0.8,1
				c0.2,0.2,0.7,0.8,0.7,0.9c0,0-0.1-0.8-0.2-1c-0.1-0.3,0-0.2,0.1,0c0.1,0.2,0.3,1.1,0.4,1.2c0,0.1,0.1,0.1,0.1-0.1
				c0.1-0.2,0.2-0.7,0.3-1c0-0.3,0-0.5-0.1-0.7c-0.1-0.1-0.1-0.2-0.1-0.3c0-0.1,0.2,0,0.4,0c0.2,0,0.9-0.1,1.2-0.2
				c0.3-0.1,0.3-0.2,0.4-0.2c0.1-0.1,0.1-0.1-0.1-0.1c-0.2,0-0.9,0-1-0.1c-0.2,0-0.3-0.1-0.4-0.1c-0.1-0.1-0.1-0.1,0.1-0.1
				c0.2,0.1,0.4,0.1,0.8,0.1c0.3,0,0.6,0,0.8-0.1c0.2-0.1,0.3-0.1,0-0.1c-0.2,0-0.9-0.3-1.1-0.5c-0.2-0.2-0.6-0.5-0.8-0.8
				C69,70.2,68.9,69.9,68.9,69.9L68.9,69.9z"/>
			<path fill-rule="evenodd" clip-rule="evenodd" fill="#D4AF3A" d="M69.2,73.3c-0.1,0.2-0.1,0.4-0.1,0.6c0,0.2-0.1,0.3,0.1,0.4
				s0.9,0.6,1.3,0.8c0.4,0.3,0.4,0.3,0.5,0.4c0.1,0.1,0.1-0.1,0.1-0.3c0-0.1,0-0.7-0.2-1c-0.1-0.4-0.3-0.6-0.3-0.7
				c-0.1-0.1-0.1-0.1,0.1-0.2c0.2,0,0.5,0,0.8-0.1c0.2-0.1,0.5-0.2,0.6-0.3c0.2-0.1,0.1-0.1-0.1-0.2c-0.2,0-0.6-0.2-0.7-0.3
				c-0.2-0.1-0.2,0-0.3,0c-0.1,0.1-0.5,0.3-0.8,0.4C69.8,73,69.8,73,69.6,73c-0.2,0,0.2,0.5,0.3,0.7s0.2,0.3,0.2,0.4
				c0,0-0.2-0.2-0.3-0.3c-0.1-0.1-0.4-0.4-0.5-0.5C69.3,73.1,69.3,73.1,69.2,73.3L69.2,73.3z"/>
			<path fill-rule="evenodd" clip-rule="evenodd" fill="#D4AF3A" d="M72.8,73.9c-0.2,0-0.8,0-0.8,0c-0.1,0-0.2-0.1-0.3-0.2
				c-0.1-0.1-0.1-0.1,0.1-0.1c0.1,0,0.2-0.1,0.3-0.1s0.2,0,0.3,0.1C72.4,73.6,72.7,73.8,72.8,73.9C72.8,73.8,72.8,73.9,72.8,73.9
				L72.8,73.9z"/>
			<path fill-rule="evenodd" clip-rule="evenodd" fill="#D4AF3A" d="M55.4,73.8c0,0-0.2,0.7-0.3,1c-0.1,0.3-0.1,0.3-0.4,0.4
				c-0.3,0.2-0.7,0.4-1.4,1c-0.6,0.6-0.5,0.5-0.7,0.7c-0.2,0.2-0.2,0.3-0.2,0.3c0,0,0-0.1-0.1-0.2c-0.1-0.1-0.1-0.2-0.2-0.3
				c-0.1-0.1-0.1,0-0.2,0.1c0,0.1-0.1,0.3-0.1,0.5c-0.1,0.1-0.1,0.2-0.2,0.2c-0.1,0,0-0.1,0-0.3c0-0.1-0.1-0.1-0.1-0.2
				c0-0.1,0-0.1,0-0.2c0-0.1,0-0.4-0.1-0.6c-0.2-0.2-0.3-0.3-0.3-0.1c0,0.1-0.1,0.3-0.1,0.4c0,0.1-0.1-0.1-0.1-0.1
				c0-0.1,0.1,0,0-0.2c-0.1-0.2-0.1-0.2-0.1-0.3c0,0,0.2,0,0.5,0.1s0.5,0.2,0.7,0.2c0.1,0,0.1,0,0-0.1c-0.1-0.1-0.8-0.3-1-0.3
				c-0.2,0-0.5,0-0.6,0c-0.1,0.1-0.1,0.1,0,0.2c0,0.1,0.1,0.6-0.4,0.6c-0.5,0-0.6-0.6-0.6-0.8c0-0.2,0.2-0.5,0.7-0.6
				c0.5-0.2,1.8,0,2.3,0c0.4,0,1.1-0.1,1.4-0.3c0.3-0.2,0.6-0.4,0.7-0.5c0.1-0.1,0.2-0.1,0.5-0.2C55.2,74,55.4,73.8,55.4,73.8
				L55.4,73.8z"/>
			<path fill-rule="evenodd" clip-rule="evenodd" fill="#D4AF3A" d="M50.5,75.8c0,0.1,0,0.2,0,0.2c0,0.1,0,0.1,0.1,0.2
				c0.1,0,0.1,0,0.1-0.1C50.7,76.1,50.7,75.9,50.5,75.8L50.5,75.8z"/>
			<path fill-rule="evenodd" clip-rule="evenodd" fill="#D4AF3A" d="M51.2,76.3c0,0.2-0.1,0.3-0.2,0.4c-0.1,0.1,0,0.1,0.1,0.1
				C51.5,76.9,51.4,76.5,51.2,76.3L51.2,76.3z"/>
			<path fill-rule="evenodd" clip-rule="evenodd" fill="#D4AF3A" d="M52.1,77.1c0,0.1-0.1,0.3-0.1,0.4c0,0.1,0,0.1,0,0.2
				c0,0.1,0.1,0.1,0.2,0C52.2,77.6,52.3,77.3,52.1,77.1L52.1,77.1z"/>
			<path fill-rule="evenodd" clip-rule="evenodd" fill="#D4AF3A" d="M50.1,77.4c0-0.1-0.1-0.3-0.1-0.4c0-0.1-0.1-0.2-0.2-0.2
				c-0.1,0-0.1,0.1-0.1,0.2C49.8,77.2,50,77.4,50.1,77.4L50.1,77.4z"/>
			<path fill-rule="evenodd" clip-rule="evenodd" fill="#D4AF3A" d="M50.4,76.4c-0.1,0.2-0.2,0.2-0.2,0.4c0,0.1,0,0.2,0.1,0.3
				c0.1,0,0.3-0.1,0.4-0.2c0.1-0.1,0.1-0.3,0.1-0.4C50.7,76.4,50.5,76.2,50.4,76.4L50.4,76.4z"/>
			<path fill-rule="evenodd" clip-rule="evenodd" fill="#D4AF3A" d="M49.1,76.2c0,0.2,0.2,0.3,0.3,0.5c0.1,0.2,0.1,0.3,0,0.4
				c-0.1,0.1-0.3,0-0.5-0.2c-0.2-0.2-0.3-0.4-0.2-0.7c0-0.2,0.3-0.4,0.3-0.4c0.1,0,0.2,0,0.2,0.1C49.1,76.1,49.1,76.1,49.1,76.2
				L49.1,76.2z"/>
			<path fill-rule="evenodd" clip-rule="evenodd" fill="#D4AF3A" d="M50.9,77.8c-0.3,0.1-0.5,0.1-0.6,0.3c-0.1,0.2-0.2,0.2-0.4,0.1
				c-0.3,0-0.8-0.2-0.9-0.4c-0.1-0.2-0.1-0.4,0.2-0.4c0.2,0,0.3,0,0.5,0c0.2,0,0.2,0.1,0.4,0.1c0.1,0.1,0.2-0.1,0.3-0.2
				c0.1-0.1,0.3-0.1,0.4-0.2c0.1-0.1,0.1-0.2,0.3-0.2c0.1,0,0.3,0,0.4,0.3c0.1,0.2-0.1,0.4-0.2,0.4C51.1,77.8,51.1,77.8,50.9,77.8
				L50.9,77.8z"/>
			<path fill-rule="evenodd" clip-rule="evenodd" fill="#D4AF3A" d="M50.8,78.1c-0.2,0.1-0.3,0.1-0.4,0.2c-0.1,0.1-0.2,0.2-0.3,0.1
				c-0.1-0.1-0.2-0.1-0.2,0c-0.1,0.1,0,0.2,0.1,0.2c0.1,0.1,0.2,0,0.3,0.1c0.1,0,0.2,0.1,0.4,0c0.1-0.1,0.2-0.2,0.3-0.3
				c0.1-0.1,0.6-0.1,0.7-0.1c0.2,0,0.4-0.1,0.3-0.4c-0.1-0.2-0.3-0.2-0.4-0.2C51.4,77.8,51.2,78,50.8,78.1L50.8,78.1z"/>
			<path fill-rule="evenodd" clip-rule="evenodd" fill="#D4AF3A" d="M51.4,79c0.1,0.1,0.2,0.5,0.1,0.7c0,0.3,0,0.5,0.1,0.3
				c0.1-0.2,0.2-0.3,0.3-0.4c0.1-0.1,0.1-0.1,0.2-0.1c0.1,0,0.3,0,0.5,0c0.2,0,0.2-0.1,0-0.2c-0.2-0.1-0.5-0.4-0.6-0.5
				c-0.1-0.1-0.1-0.2-0.2-0.1c-0.1,0-0.2,0-0.4,0C51.3,78.8,51.2,78.8,51.4,79L51.4,79z"/>
			<path fill-rule="evenodd" clip-rule="evenodd" fill="#D4AF3A" d="M49.6,75.1C49.8,75,50,75,50,74.6c0-0.3-0.1-0.7-0.3-1
				c-0.2-0.3-0.4-0.8-0.6-0.9c-0.2-0.1-0.3-0.2-0.4,0.1c-0.1,0.2-0.1,0.8,0,1.2c0.1,0.3,0.5,0.9,0.6,1
				C49.4,75.1,49.5,75.1,49.6,75.1L49.6,75.1z"/>
			<path fill-rule="evenodd" clip-rule="evenodd" fill="#D4AF3A" d="M48.4,71.6c-0.3,0.1-0.3,0.5-0.2,0.6c0.1,0.2,0.3,0.3,0.5,0.2
				c0.3-0.1,0.3-0.4,0.3-0.6C49,71.7,48.8,71.6,48.4,71.6L48.4,71.6z"/>
			<path fill-rule="evenodd" clip-rule="evenodd" fill="#D4AF3A" d="M47,69.5c0.2,0.7,0.5,1.3,0.8,1.6c0.3,0.3,0.5,0.3,0.6,0.1
				c0-0.2,0.1-0.5,0.1-0.6c0-0.1-0.1-0.9-0.3-1.2c-0.2-0.3-0.6-1-0.8-1.3c-0.2-0.3-0.5-1-0.7-1.6c-0.2-0.6-0.2-1.2-0.2-1.3
				c0-0.2,0.2-0.4,0.1-0.5c0-0.1-0.1-0.1-0.2,0c-0.1,0.1-0.2,0.2-0.3,0.5c0,0-0.4,0-0.6,0c-0.2,0-0.3,0-0.3,0.1
				c0.1,0.1,0.4,0.2,0.5,0.3c0.1,0.1,0.4,0.5,0.6,1.1c0.2,0.6,0.3,1.7,0.4,2C46.8,68.9,46.9,69.3,47,69.5L47,69.5z"/>
			<path fill-rule="evenodd" clip-rule="evenodd" fill="#D4AF3A" d="M45.6,62.9c0,0.2,0,0.4,0.1,0.5c0.1,0.1,0.4-0.1,0.4-0.1
				c0.1-0.1,0.1-0.1,0.2,0.1c0.1,0.2,0.1,0.3-0.1,0.3c-0.2,0-0.4,0-0.4,0.1c0,0.1,0.2,0.4,0.2,0.5c0.1,0.1,0.2,0.2,0.1,0.3
				c-0.1,0.1-0.2,0.1-0.3,0.2c-0.1,0-0.1,0-0.2-0.1c0-0.1-0.1-0.5-0.2-0.6c0-0.1-0.1-0.1-0.2,0c-0.1,0.1-0.2,0.2-0.3,0.2
				s-0.1,0-0.2-0.1c-0.1-0.1-0.1-0.2-0.1-0.2c0-0.1,0-0.1,0.1-0.1c0.1,0,0.3-0.1,0.4-0.1c0.1,0,0.1-0.1,0.1-0.2
				c0-0.1-0.2-0.4-0.2-0.4s0-0.1,0-0.2c0.1,0,0.2-0.1,0.3-0.2C45.5,62.7,45.6,62.8,45.6,62.9L45.6,62.9z"/>
			<path fill-rule="evenodd" clip-rule="evenodd" fill="#D4AF3A" d="M65.2,72.1c0.1,0.4,0.3,0.9,0.6,1.2c0.2,0.3,0.5,0.4,0.8,0.8
				c0.2,0.4,0.3,1.1,0.1,1.2c-0.2,0.1-0.6-0.1-0.6-0.3c-0.1-0.2-0.2-0.6-0.3-0.6c0,0,0.2,0.7,0.2,1c0,0.3,0.1,0.5-0.2,0.7
				c-0.3,0.1-0.5-0.2-0.7-0.6c-0.2-0.3-0.2-0.4-0.3-0.4c0,0,0,0.2,0.1,0.5c0.1,0.4,0.2,0.5,0.1,0.9c0,0.4-0.2,0.4-0.4,0.4
				c-0.1,0-0.3-0.5-0.4-0.8c-0.1-0.4-0.1-0.5-0.2-0.5c-0.1,0,0,0.1-0.1,0.5c0,0.4-0.1,1-0.4,1.1c-0.3,0-0.4-0.7-0.5-1
				c0-0.2,0-0.6-0.1-0.6c-0.1,0-0.2,0.5-0.3,0.8C62.4,76.7,62.3,77,62,77c-0.3-0.1-0.3-0.7-0.2-1c0.1-0.3,0.3-0.9,0.2-1
				c-0.1-0.1-0.3,0.6-0.5,0.9c-0.2,0.2-0.3,0.4-0.5,0.3c-0.2-0.1-0.3-0.7-0.2-1.1c0.1-0.4,0.3-0.7,0.2-0.8c0,0-0.2,0.3-0.3,0.6
				c-0.1,0.3-0.6,0.5-0.7,0.4c-0.1-0.1-0.1-0.9,0.1-1.2c0.2-0.3,0.4-0.5,0.6-0.7c0.2-0.2,0.7-1.2,0.7-1.2s0.8,0.2,1.9,1.6
				C63.3,73.8,64.8,72.1,65.2,72.1L65.2,72.1z M60.3,74.7c0.1-0.3,0.3-0.7,0.5-0.8c0.1-0.1,0.1-0.1,0.1,0c-0.1,0.1-0.2,0.3-0.3,0.5
				C60.4,74.7,60.4,74.6,60.3,74.7C60.3,74.9,60.2,74.8,60.3,74.7L60.3,74.7z M65.7,73.9c0.1,0.2,0.4,0.7,0.5,0.9
				c0.1,0.2,0-0.1,0-0.3c-0.1-0.2-0.2-0.4-0.3-0.5C65.8,73.8,65.6,73.7,65.7,73.9L65.7,73.9z M65,74.6c0,0.3,0.2,0.7,0.3,0.8
				c0.1,0.1,0-0.2-0.1-0.4C65.2,74.9,65.1,74.7,65,74.6C65.1,74.5,65,74.4,65,74.6L65,74.6z M64.1,75.2c0.1,0.3,0.2,0.5,0.2,0.5
				c0.1,0.1,0,0,0-0.2c0-0.2-0.1-0.3-0.1-0.4C64.2,75.1,64,75,64.1,75.2L64.1,75.2z M63.2,75.4c0,0.2,0,0.5,0,0.6
				c0,0.2,0.1,0,0.1-0.1c0-0.1,0-0.4,0-0.6C63.3,75.3,63.2,75.3,63.2,75.4L63.2,75.4z M62.3,75.2c0,0.2-0.1,0.4-0.1,0.5
				c0,0.1,0,0.1,0.1,0c0.1-0.1,0.1-0.4,0.2-0.5S62.4,75,62.3,75.2L62.3,75.2z M61.5,74.6c-0.1,0.2-0.2,0.6-0.3,0.8
				c0,0.2,0,0.1,0.1,0c0.1-0.1,0.2-0.4,0.3-0.6C61.5,74.5,61.6,74.4,61.5,74.6L61.5,74.6z"/>
			<path fill-rule="evenodd" clip-rule="evenodd" fill="#D4AF3A" d="M60.1,75.5c0.1,0,0.3-0.1,0.4-0.1s0.1,0,0.1,0.1
				c0,0.1,0,0.2,0,0.2S60.2,76,60,76.3c0,0,0.4-0.3,0.6-0.4c0,0,0.1,0.6,0.5,0.5c0,0,0.1,0,0,0.1c-0.1,0.1-0.2,0.4-0.2,0.5
				s0,0.2,0.1,0.1c0.1-0.1,0.4-0.7,0.5-0.8c0.1-0.1,0.1-0.1,0.1,0.1c0,0.2,0.1,0.5,0.1,0.6c0.1,0.1,0.1,0.2,0,0.3
				c-0.1,0.2-0.1,0.2-0.1,0.3c0,0.1,0,0.2,0.1,0c0.1-0.1,0.2-0.3,0.2-0.4c0-0.1,0.1-0.1,0.2-0.1c0.1,0,0.3-0.2,0.4-0.3
				c0.1-0.2,0.1-0.1,0.1,0c0,0.1,0.2,0.5,0.3,0.6c0.1,0.1,0.2,0.1,0.2,0.2c0,0.1,0,0.6,0,0.8c0,0.2,0.1,0.1,0.2,0c0-0.2,0-0.6,0-0.8
				c0-0.1,0.1-0.1,0.2-0.2c0.1-0.1,0.3-0.3,0.3-0.5c0.1-0.2,0.1-0.1,0.1,0c0.1,0.1,0.1,0.2,0.3,0.3c0.1,0,0.2,0,0.3,0.1
				c0.1,0.1,0.2,0.3,0.2,0.4c0.1,0.1,0.1,0.1,0.1-0.1c0-0.1-0.1-0.3-0.1-0.4c0-0.1,0-0.1,0-0.2c0.1-0.1,0.2-0.5,0.2-0.6
				c0-0.2,0.1-0.2,0.1-0.1c0.1,0.1,0.4,0.7,0.5,0.8c0.1,0.1,0.1,0,0-0.1c0-0.1-0.2-0.3-0.2-0.4c0-0.1,0-0.1,0.1-0.1
				c0.1,0,0.3-0.1,0.3-0.2C65.9,76,66,76,66,76c0.1,0.1,0.2,0.1,0.3,0.2c0.1,0.1,0.1,0,0.1-0.1c-0.1-0.1-0.4-0.4-0.4-0.4
				c-0.1-0.1-0.1,0-0.1-0.2c0-0.2,0-0.3,0-0.2c0.1,0.1,0.2,0.1,0.3,0.2c0.1,0,0.1,0,0.2,0.1c0.1,0.1,0.3,0.4,0.4,0.7
				c0.1,0.3,0.1,0.7,0.1,0.8c0,0.1-0.2,0-0.3-0.1c-0.1-0.1-0.3-0.3-0.4-0.3c-0.1,0-0.1,0-0.1,0.1c0,0.2,0.1,0.5,0,0.8
				c0,0.3-0.1,0.4-0.3,0.3c-0.2-0.1-0.3-0.3-0.5-0.4c-0.1-0.1-0.3-0.2-0.2,0c0,0.2,0.1,0.5,0.1,0.6c0,0.1,0,0.5-0.1,0.6
				c-0.2,0-0.3-0.1-0.4-0.4c-0.2-0.2-0.3-0.6-0.5-0.7c-0.1-0.1-0.2-0.1-0.2,0.1c0,0.2-0.1,1.1-0.4,1.4c-0.3,0.3-0.5,0.5-0.7,0.3
				c-0.2-0.2-0.5-0.4-0.6-1c-0.1-0.6,0-0.9-0.1-0.9c-0.1,0-0.3,0.5-0.5,0.8c-0.2,0.3-0.3,0.5-0.5,0.4c-0.1,0-0.2-0.4-0.2-0.8
				c0.1-0.4,0.1-0.5,0.1-0.5c0,0-0.3,0.3-0.5,0.4c-0.2,0.1-0.5,0.2-0.4-0.4c0.1-0.6,0.1-0.7,0.1-0.8c-0.1,0-0.2,0.2-0.5,0.4
				c-0.2,0.1-0.4,0.2-0.4-0.1c0-0.3,0-0.6,0.3-1c0.2-0.3,0.3-0.4,0.3-0.4C60,75.5,60.1,75.5,60.1,75.5L60.1,75.5z"/>
			<path fill-rule="evenodd" clip-rule="evenodd" fill="#D4AF3A" d="M63.4,81.5c0.2,0.2,0.5,0.5,0.7,0.7c0.3,0.3-0.4,1.3-0.6,1.5
				c-0.2,0.2-0.2,0.1-0.4-0.1c-0.2-0.2-0.9-1.2-0.6-1.5c0.1-0.1,0.7-0.6,0.7-0.7C63.2,81.4,63.3,81.3,63.4,81.5L63.4,81.5z
				 M59.5,78.3c-0.1,0.1-0.2,0.2-0.3,0.3c-0.1,0.1-0.2,0.3-0.3,0.3c-0.1,0.1-0.3,0.1-0.3,0.2c0,0,0.2-0.1,0.3-0.1
				c0.1-0.1,0.3-0.2,0.4-0.3C59.3,78.6,59.5,78.4,59.5,78.3C59.5,78.3,59.6,78.2,59.5,78.3L59.5,78.3z M67,78.3
				c0.1,0.2,0.4,0.4,0.5,0.5c0.1,0.1,0.3,0.2,0.5,0.2c0.1,0,0.1,0,0,0c0,0-0.3-0.2-0.4-0.3c-0.1-0.1-0.5-0.4-0.5-0.5
				C67.1,78.3,66.9,78.2,67,78.3L67,78.3z M65.9,79.3c0.1,0.2,0.3,0.4,0.5,0.5c0.2,0.1,0.4,0.2,0.5,0.3s0.2,0,0.1,0
				c-0.1-0.1-0.4-0.2-0.6-0.3c-0.2-0.1-0.4-0.4-0.5-0.5C66,79.2,65.8,79.1,65.9,79.3L65.9,79.3z M64.9,80.2c0.1,0.1,0.4,0.4,0.5,0.4
				c0.1,0.1,0.2,0,0.3,0.1c0.1,0.1,0.2,0.2,0.3,0.1c0.1-0.1-0.1-0.1-0.2-0.2c-0.1-0.1-0.3-0.1-0.5-0.3
				C65.1,80.1,64.7,79.9,64.9,80.2L64.9,80.2z M64,80.9c0.2,0.2,0.2,0.3,0.5,0.5c0.2,0.2,0.4,0.3,0.5,0.5c0.1,0.2,0.2,0.2,0.2,0.1
				c0-0.1-0.1-0.2-0.2-0.4c-0.2-0.2-0.6-0.4-0.7-0.6C64,80.8,63.8,80.7,64,80.9L64,80.9z M63.2,82c0,0.2,0,0.8,0.1,0.8
				c0.1,0,0.1-0.7,0.1-0.8C63.4,81.9,63.2,81.9,63.2,82L63.2,82z M62.4,81c-0.1,0.1-0.5,0.4-0.6,0.4c-0.1,0.1-0.2,0.3-0.3,0.4
				c-0.1,0.2-0.1,0.3,0,0.2c0.1-0.1,0.3-0.3,0.4-0.4c0.1-0.1,0.4-0.3,0.5-0.4c0.1-0.1,0.2-0.2,0.2-0.3c0-0.1,0-0.2,0-0.1
				C62.5,80.8,62.5,80.9,62.4,81L62.4,81z M61.4,80.2c-0.1,0.1-0.3,0.3-0.4,0.3c-0.1,0.1-0.4,0.2-0.4,0.2c-0.1,0-0.1,0-0.1,0.1
				c0,0.1,0.1,0,0.2-0.1c0.1-0.1,0.2-0.1,0.3-0.1c0.1,0,0.2-0.1,0.3-0.2c0.1-0.1,0.2-0.2,0.3-0.3C61.7,80.1,61.7,80,61.4,80.2
				L61.4,80.2z M60.5,79.2c-0.2,0.1-0.3,0.3-0.5,0.5c-0.2,0.2-0.4,0.3-0.5,0.3s-0.1,0.1,0,0.1c0.1,0,0.5-0.2,0.6-0.3
				c0.1-0.1,0.4-0.3,0.5-0.4c0.1-0.1,0.2-0.1,0.1-0.2C60.6,79.1,60.6,79.2,60.5,79.2L60.5,79.2z M67.4,77.4c0.1,0.2,0.1,0.3,0.4,0.6
				c0.3,0.3,0.6,0.5,0.8,0.6c0.2,0.2,0.5,0.3,0.7,0.4c0.2,0.1,0.2,0.2,0,0.3c-0.3,0.1-0.8,0.3-1.2,0.2c-0.5-0.1-0.8-0.3-1-0.5
				c-0.2-0.2-0.6-0.4-0.7-0.6c-0.1-0.2-0.1-0.2,0-0.2c0.1-0.1,0.1-0.2,0.1-0.4c0-0.2,0-0.5,0-0.6c0-0.1,0-0.2,0.1-0.1
				c0.1,0.1,0.4,0.2,0.5,0.3c0.1,0,0.2,0.1,0.2-0.1C67.2,77.3,67.2,77.2,67.4,77.4L67.4,77.4z M66,78.4c0.2,0.3,0.3,0.4,0.5,0.6
				c0.3,0.2,0.4,0.2,0.6,0.4c0.2,0.2,0.4,0.3,0.6,0.4c0.2,0.1,0.5,0.3,0.5,0.6c0,0.3,0,0.4-0.2,0.4c-0.2,0-0.7-0.1-1-0.2
				c-0.3-0.2-0.9-0.5-1.1-0.7c-0.3-0.2-0.5-0.5-0.6-0.7c-0.1-0.1,0-0.1,0.1-0.2c0.1,0,0.2-0.2,0.2-0.3c0-0.2,0-0.6,0-0.7
				c0-0.1,0.1,0,0.1,0.1c0.1,0.1,0.1,0.1,0.2,0.1C65.9,78.3,65.9,78.3,66,78.4L66,78.4z M65,79.3c0.1,0.2,0.4,0.5,0.6,0.6
				c0.2,0.1,0.7,0.6,1,0.7c0.2,0.2,0.4,0.4,0.4,0.6c0,0.2-0.1,0.4-0.3,0.3c-0.2-0.1-0.5-0.2-0.8-0.3c-0.4-0.1-0.9-0.4-1.2-0.6
				c-0.3-0.2-0.4-0.4-0.6-0.8c-0.2-0.3-0.2-0.3-0.1-0.5c0.1-0.2,0.1-0.3,0.2-0.6c0.1-0.3,0.1-0.6,0.1-0.5c0.1,0.1,0.1,0.3,0.2,0.5
				c0.2,0.2,0.2,0.2,0.3,0.3C65,79.2,65,79.2,65,79.3L65,79.3z M63.9,79.8c0.1,0.2,0.3,0.6,0.5,0.8c0.2,0.2,0.5,0.3,0.8,0.7
				c0.3,0.4,0.3,0.8,0.2,1.1c-0.1,0.3-0.2,0.4-0.5,0.1c-0.2-0.2-0.8-0.7-1.1-1c-0.3-0.3-0.4-0.5-0.5-0.8c0-0.3-0.1-0.5-0.1-0.6
				c0-0.1,0.1-0.1,0.2-0.2C63.7,79.8,63.8,79.5,63.9,79.8L63.9,79.8z M62.6,79.8c-0.2,0.4-0.4,0.7-0.7,0.9c-0.3,0.2-0.8,0.5-0.9,0.9
				s-0.1,0.7,0,0.9c0.1,0.2,0.3,0.2,0.5,0c0.2-0.2,0.6-0.6,1-1c0.4-0.4,0.5-0.5,0.5-0.8c0-0.3,0.1-0.5,0.1-0.6
				c0-0.1-0.2-0.2-0.2-0.2c-0.1-0.1-0.1-0.1-0.2-0.2C62.7,79.7,62.7,79.6,62.6,79.8L62.6,79.8z M61.5,79.3c-0.1,0.2-0.3,0.4-0.6,0.6
				c-0.3,0.2-0.7,0.4-0.9,0.6c-0.2,0.2-0.4,0.4-0.5,0.7c-0.1,0.3,0.1,0.5,0.3,0.4c0.2-0.1,0.8-0.4,1.1-0.4c0.3-0.1,0.8-0.4,1-0.5
				c0.2-0.1,0.5-0.6,0.6-0.8c0.1-0.2,0.2-0.3,0.1-0.4c-0.1-0.2-0.3-0.7-0.3-0.9c0-0.2-0.1-0.3-0.1-0.1C62,78.7,62,78.8,61.8,79
				C61.6,79.1,61.6,79.1,61.5,79.3L61.5,79.3z M60.5,78.5c-0.1,0.2-0.3,0.4-0.5,0.5c-0.3,0.1-0.5,0.4-0.8,0.6
				c-0.3,0.2-0.6,0.3-0.7,0.6c-0.2,0.3-0.2,0.4-0.1,0.6c0.1,0.2,0.8,0,1.1-0.1s0.9-0.6,1-0.6c0.1-0.1,0.4-0.3,0.6-0.4
				c0.2-0.2,0.3-0.3,0.3-0.4c0-0.1,0-0.1-0.1-0.1c-0.1,0-0.3-0.1-0.3-0.4c0-0.3,0-0.5,0-0.6c0-0.2,0-0.1-0.1,0
				c-0.1,0.1-0.1,0.1-0.2,0.1C60.6,78.3,60.5,78.3,60.5,78.5L60.5,78.5z M59.1,77.5c-0.1,0.2-0.1,0.3-0.4,0.5
				c-0.2,0.2-0.6,0.5-0.8,0.6c-0.2,0.1-0.4,0.3-0.6,0.4c-0.2,0.1-0.4,0.2-0.2,0.3c0.1,0.1,0.3,0.2,0.8,0.3c0.4,0.1,0.8,0.1,1.1-0.1
				c0.3-0.2,0.4-0.3,0.7-0.5c0.2-0.2,0.4-0.2,0.5-0.3c0.1-0.1,0.2-0.2,0.2-0.3c0-0.1-0.1-0.1-0.2-0.1c-0.1-0.1-0.1-0.3-0.1-0.5
				c0-0.2,0-0.5,0-0.6c0-0.1,0-0.1-0.2,0c-0.1,0.1-0.3,0.2-0.4,0.3c-0.1,0-0.2,0-0.2-0.2C59.3,77.2,59.3,77.2,59.1,77.5L59.1,77.5z"
				/>
			<path fill-rule="evenodd" clip-rule="evenodd" fill="#D4AF3A" d="M51.9,79.9C51.9,80,51.9,80,52,80.1c0.1,0.1,0.1,0.2,0.2,0
				c0.1-0.2,0.1-0.3,0-0.3C52.1,79.8,52,79.8,51.9,79.9L51.9,79.9z"/>
			<path fill-rule="evenodd" clip-rule="evenodd" fill="#D4AF3A" d="M71.1,73.9c0.1,0.4,0.3,0.7,0.3,0.9c0,0.2,0,0.2,0.2,0.3
				c0.2,0.1,2,1,2.3,1.2c0.3,0.2,0.7,0.6,1.4,0.5c0.7-0.1,2.2-0.6,2.6-0.7c0.4-0.1,1.2-0.3,1.5-0.5c0.3-0.2,0.6-0.4,0.6-0.7
				c0-0.3,0-0.3-0.1-0.5c-0.2-0.1-0.4-0.2-0.4,0c0,0.2-0.1,0.6-0.3,0.8c-0.2,0.2-0.5,0.4-0.7,0.4c-0.2,0.1-0.5,0-0.7-0.1
				c-0.1-0.2-0.1-0.5,0.1-0.6c0.2-0.1,0.5-0.2,0.6-0.5c0.1-0.2,0.1-0.4-0.2-0.6c-0.2-0.1-0.5-0.1-0.6,0.1c-0.1,0.2-0.2,0.4-0.3,0.6
				c-0.1,0.2-0.6,0.8-1.2,0.7c-0.7-0.1-0.8-0.2-1-0.5c-0.2-0.3-0.3-1-0.5-1.3c-0.1-0.3-0.4-0.4-0.6-0.1c-0.2,0.2-0.2,0.4-0.1,0.6
				c0,0.2,0.4,0.5,0.5,0.8c0.1,0.3,0.2,0.5,0.3,0.7c0,0.2-0.1,0.2-0.3,0.2c-0.2,0-0.3-0.1-0.5-0.3c-0.3-0.2-1.5-1.1-1.6-1.2
				c-0.1-0.1-0.2-0.1-0.3-0.1c-0.2,0-0.5-0.1-0.7-0.2C71.3,73.9,71.1,73.8,71.1,73.9L71.1,73.9z"/>
			<path fill-rule="evenodd" clip-rule="evenodd" fill="#D4AF3A" d="M78.2,73.3c0,0.1,0,0.2-0.1,0.3c0,0.1,0.1,0.1,0.2,0.2
				c0.1,0,0.2,0,0.2-0.1c0-0.1-0.1-0.2-0.1-0.3C78.3,73.2,78.2,73.1,78.2,73.3L78.2,73.3z"/>
			<path fill-rule="evenodd" clip-rule="evenodd" fill="#D4AF3A" d="M79.7,73.9c0,0.1-0.1,0.1,0,0.2c0,0.1,0.1,0.1,0.2,0.1
				c0.1,0,0.1-0.1,0.1-0.2c0-0.1,0-0.1-0.1-0.2C79.8,73.8,79.8,73.7,79.7,73.9L79.7,73.9z"/>
			<path fill-rule="evenodd" clip-rule="evenodd" fill="#D4AF3A" d="M74.8,72.7c0,0.1-0.1,0.3-0.1,0.4c0,0.1,0,0.1-0.1,0.1
				c-0.1,0-0.2-0.1-0.2-0.2c0-0.1,0.1-0.2,0.2-0.3C74.8,72.6,74.9,72.5,74.8,72.7L74.8,72.7z"/>
			<path fill-rule="evenodd" clip-rule="evenodd" fill="#D4AF3A" d="M78.4,69.3c0.2,0,0.3,0.1,0.2,0.2c-0.1,0.1-0.1,0.1-0.2,0.3
				c-0.1,0.1-0.1,0.1,0.1,0.1c0.1,0,0.2,0,0.3,0C79,70,79,70,79,70.1c0,0.1-0.1,0.2-0.1,0.3c0,0.1-0.1,0.1-0.2,0
				c-0.1-0.1-0.2-0.2-0.3-0.1c-0.1,0-0.1,0.1-0.1,0.3c0,0.2,0,0.4,0,0.4c0,0,0,0.1-0.2,0c-0.1,0-0.3-0.1-0.4-0.1c-0.1,0,0-0.1,0-0.2
				c0.1-0.1,0.1-0.3,0.2-0.4s0-0.2-0.1-0.2c-0.1,0-0.2,0-0.4,0.1c-0.1,0,0-0.6,0.1-0.5c0.1,0.1,0.2,0.2,0.3,0.2c0.1,0,0.2,0,0.2-0.2
				c0-0.2,0-0.2,0-0.3C78.1,69.3,78.2,69.2,78.4,69.3L78.4,69.3z"/>
			<path fill-rule="evenodd" clip-rule="evenodd" fill="#D4AF3A" d="M77.5,71c0.2,0,0.8,0.2,0.9,0.2c0.1,0.1,0.1,0.2,0,0.3
				c0,0.1-0.3,0.9-0.3,1.1c-0.1,0.1,0,0.2,0.1,0.3c0.1,0,1.2,0.2,1.3,0.3c0.1,0.1,0.1,0.2,0.1,0.3c0,0.1-0.1,0.5-0.2,0.7
				c-0.2,0.2-0.5,0-0.7-0.1c-0.1-0.1-0.2-0.3-0.2-0.5c-0.1-0.3-0.3-0.5-0.4-0.5c-0.1,0-0.1,0.3-0.2,0.4c0,0.2-0.1,0.1-0.2,0.2
				c-0.2,0.1-0.3,0.2-0.5,0.1c-0.2-0.1-2.1-0.4-2.2-0.5c-0.2,0-0.1-0.2-0.1-0.3c0-0.2,0.2-0.6,0.2-0.7c0-0.1,0.2-0.1,0.4,0
				c0.2,0,1.1,0.2,1.2,0.3c0.1,0,0.3,0,0.3-0.2c0.1-0.2,0.2-1.1,0.3-1.2C77.4,71,77.4,71,77.5,71L77.5,71z M79.2,73.3
				c0.1,0,0.2,0.1,0.2,0.2c0,0.1-0.1,0.2-0.2,0.2c-0.1,0-0.2-0.1-0.2-0.2C79,73.4,79.1,73.3,79.2,73.3L79.2,73.3z M77.4,73
				c0.1,0,0.2,0.1,0.2,0.2c0,0.1-0.1,0.2-0.2,0.2c-0.1,0-0.2-0.1-0.2-0.2C77.2,73,77.3,73,77.4,73L77.4,73z M76.5,72.8
				c0.1,0,0.2,0.1,0.2,0.2c0,0.1-0.1,0.2-0.2,0.2c-0.1,0-0.2-0.1-0.2-0.2C76.4,72.8,76.4,72.8,76.5,72.8L76.5,72.8z M75.6,72.6
				c0.1,0,0.2,0.1,0.2,0.2c0,0.1-0.1,0.2-0.2,0.2c-0.1,0-0.2-0.1-0.2-0.2C75.4,72.6,75.5,72.6,75.6,72.6L75.6,72.6z M77.6,72.2
				c0.1,0,0.2,0.1,0.2,0.2c0,0.1-0.1,0.2-0.2,0.2c-0.1,0-0.2-0.1-0.2-0.2C77.5,72.3,77.6,72.2,77.6,72.2L77.6,72.2z M77.9,71.4
				c0.1,0,0.2,0.1,0.2,0.2c0,0.1-0.1,0.2-0.2,0.2c-0.1,0-0.2-0.1-0.2-0.2C77.7,71.5,77.8,71.4,77.9,71.4L77.9,71.4z M77.9,71.3
				c0.2,0,0.3,0.1,0.3,0.3c0,0.2-0.1,0.3-0.3,0.3c-0.2,0-0.3-0.1-0.3-0.3C77.6,71.4,77.7,71.3,77.9,71.3L77.9,71.3z M79.1,73.2
				c0.2,0,0.3,0.1,0.3,0.3c0,0.2-0.1,0.3-0.3,0.3c-0.2,0-0.3-0.1-0.3-0.3C78.8,73.4,79,73.2,79.1,73.2L79.1,73.2z M77.4,72.9
				c0.2,0,0.3,0.1,0.3,0.3c0,0.2-0.1,0.3-0.3,0.3c-0.2,0-0.3-0.1-0.3-0.3C77.1,73,77.2,72.9,77.4,72.9L77.4,72.9z M76.5,72.6
				c0.2,0,0.3,0.1,0.3,0.3c0,0.2-0.1,0.3-0.3,0.3c-0.2,0-0.3-0.1-0.3-0.3C76.2,72.8,76.3,72.6,76.5,72.6L76.5,72.6z M75.6,72.4
				c0.2,0,0.3,0.1,0.3,0.3c0,0.2-0.1,0.3-0.3,0.3c-0.2,0-0.3-0.1-0.3-0.3C75.3,72.6,75.4,72.4,75.6,72.4L75.6,72.4z M77.6,72.1
				c0.2,0,0.3,0.1,0.3,0.3c0,0.2-0.1,0.3-0.3,0.3c-0.2,0-0.3-0.1-0.3-0.3C77.3,72.2,77.5,72.1,77.6,72.1L77.6,72.1z"/>
			<path fill-rule="evenodd" clip-rule="evenodd" fill="#D4AF3A" d="M58.7,58.3c0,0,2.4,1,4.6-0.1c0,0,1.6,1.1,4.6,0l1.8,2
				c0,0-0.7,0.8-0.6,2.4c0,1.5,0.2,2.2,0.4,2.7c0.1,0.5,0.4,2.2,0.1,3c-0.3,0.9-0.7,1.5-1.6,2.1c-0.9,0.6-2.2,1-2.9,1.3
				c-0.7,0.4-1.5,1-1.7,1.3c0,0-0.9-1-1.6-1.3c-0.7-0.3-2-0.9-2.7-1.2c-0.6-0.3-1.4-1-1.7-1.7c-0.3-0.7-0.5-1.6-0.3-2.8
				c0.2-1.2,0.4-1.8,0.5-2.5c0.1-0.7,0-1.8-0.1-2.2c-0.1-0.5-0.5-1.2-0.5-1.2L58.7,58.3L58.7,58.3z M63.3,58.8c0,0,2.1,1.2,4.2,0.1
				l1.5,1.8c0,0-0.8,0.9-0.5,2.6c0.3,1.7,0.5,2.8,0.6,3.6c0,0.8-0.3,2.1-1.2,2.9c-0.9,0.8-1.6,1-2.6,1.4c-0.9,0.4-1.6,0.9-2,1.3
				c0,0-1-0.9-1.8-1.2c-0.8-0.3-2.1-1-2.7-1.5c-0.6-0.6-1.3-1.7-1.2-2.8c0.1-1.1,0.3-2.5,0.5-3.3c0.2-0.8,0.3-2-0.4-3l1.5-1.8
				C59.1,58.9,60.6,59.9,63.3,58.8L63.3,58.8z"/>
			<path fill-rule="evenodd" clip-rule="evenodd" fill="#D4AF3A" d="M57.9,68c0,0-0.1-0.2-0.1-0.3h10.9c0,0,0,0.2-0.1,0.3L57.9,68
				L57.9,68z"/>
			<path fill-rule="evenodd" clip-rule="evenodd" fill="#D4AF3A" d="M60.6,61.2c0.1,0.2,0.3,0.3,0.7,0.3c0.4,0,0.3,0.3,0.1,0.3
				c-0.2,0-0.5,0-0.6-0.2C60.6,61.5,60.5,61,60.6,61.2L60.6,61.2z"/>
			<path fill-rule="evenodd" clip-rule="evenodd" fill="#D4AF3A" d="M62.7,60.5c0.2-0.1,0.2-0.1,0.3-0.1c0.1,0,0.2,0,0.1,0.1
				c0,0.1-0.2,0-0.3,0.1c-0.1,0.1-0.2,0.1-0.2,0C62.6,60.6,62.6,60.6,62.7,60.5L62.7,60.5z"/>
			<path fill-rule="evenodd" clip-rule="evenodd" fill="#D4AF3A" d="M63.4,60.9c0,0.2-0.1,0.2-0.1,0.3c0,0.1,0.3-0.1,0.4-0.1
				c0.1-0.1,0.1-0.1,0-0.2C63.5,60.8,63.3,60.8,63.4,60.9L63.4,60.9z"/>
			<path fill-rule="evenodd" clip-rule="evenodd" fill="#D4AF3A" d="M63.4,61.4c0.1,0,0.3,0.2,0.4,0.2c0.1,0.1,0.1,0.1-0.1,0.2
				c-0.2,0.1-0.3,0.1-0.4,0.1c-0.1,0.1-0.2,0.1-0.3,0.1c-0.1,0-0.1-0.1-0.1-0.3c0-0.1,0-0.2,0.1-0.3C63.1,61.4,63.2,61.3,63.4,61.4
				L63.4,61.4z"/>
			<path fill-rule="evenodd" clip-rule="evenodd" fill="#D4AF3A" d="M63.6,62.3c0.2,0.2,0.3,0.3,0.3,0.3c0,0.1-0.2,0.1-0.4,0.1
				c-0.2,0-0.3,0.1-0.3,0.1c0,0.1,0.1,0.1,0.2,0.3c0.1,0.2,0.3,0.6,0.2,0.6c-0.1,0-0.3-0.1-0.4-0.1c-0.1,0-0.1,0-0.1,0.2
				c0,0.2,0,0.4-0.1,0.4c-0.1,0-0.3-0.2-0.3-0.2c0-0.1-0.1,0-0.2,0.2c0,0.2-0.1,0.5-0.2,0.6c-0.1,0-0.3-0.4-0.3-0.5
				c0-0.1-0.1-0.2-0.2,0c-0.1,0.2-0.1,0.5-0.2,0.5c-0.1,0-0.2-0.3-0.2-0.6c0-0.3,0-0.3,0-0.4c-0.1,0-0.2,0.2-0.3,0.3
				c-0.1,0.1-0.2,0.3-0.3,0.3c-0.1,0-0.2-0.2-0.2-0.4c0-0.2,0-0.3,0.2-0.4c0.1-0.1,0.4-0.2,0.5-0.3c0.1-0.1,0.1,0.1,0.1,0.2
				c0,0.1,0.1,0.1,0.2,0c0.1-0.1,0.2-0.1,0.3,0c0.1,0.1,0,0.3,0.1,0.4c0.1,0.1,0.3-0.1,0.4-0.2c0.1-0.2,0.1-0.3-0.1-0.1
				c-0.2,0.1-0.2,0.2-0.3,0.2c-0.1,0,0-0.3,0-0.4c0-0.1-0.1-0.1-0.2,0c-0.1,0.1-0.3,0.2-0.3,0.1c-0.1,0,0-0.2,0-0.3
				c0-0.1-0.1-0.1-0.2,0c-0.2,0.1-0.4,0.2-0.5,0.3c-0.1,0.1-0.2,0.1-0.1-0.1c0.1-0.2,0.2-0.3,0.4-0.4c0.2-0.1,0.5-0.1,0.6-0.2
				c0.1,0,0.3-0.2,0.4-0.2c0.1-0.1-0.1-0.2-0.2-0.2c-0.1,0-0.4-0.1-0.5-0.1c-0.1,0-0.2-0.1-0.1-0.2c0.2-0.1,0.3-0.1,0.3-0.2
				c0-0.1-0.1-0.2-0.2-0.3c-0.1,0-0.2,0-0.3-0.1c-0.1,0-0.1-0.1,0-0.2c0.1-0.1,0.1-0.1,0-0.1c-0.1,0-0.1-0.1-0.1-0.2
				c0-0.1,0.2-0.1,0.4-0.1c0.1,0,0.3,0,0.3-0.1c0.1,0,0.1-0.1,0.2-0.2c0.1-0.1,0.3-0.1,0.4-0.1c0.1,0,0.2,0.1,0.2,0.2
				c0,0.1,0,0.1,0,0.2c0,0.1,0,0.1,0.1,0.1c0,0,0.1-0.2,0.1-0.2c0.1-0.1,0.3-0.2,0.3-0.1c0.1,0.1,0.1,0.2,0.1,0.3
				c-0.1,0.2-0.1,0.2-0.1,0.3c0,0.1-0.1,0.1-0.1,0c0-0.1-0.1-0.1-0.1,0c-0.1,0.1,0,0.2-0.1,0.2c-0.1,0.1-0.3,0.1-0.3,0.1
				c0,0.1,0.2,0,0.3,0c0.1,0,0.1,0,0.2,0.1c0,0.1,0,0.2-0.1,0.3c-0.1,0.1-0.2,0.2-0.1,0.2c0.1,0.1,0.2-0.1,0.3-0.2
				c0.1,0,0.1,0,0.2,0C63.1,62.2,63.3,62.1,63.6,62.3L63.6,62.3z M62.2,60.8c0.1,0,0.2,0.1,0.2,0.2c0,0.1-0.1,0.2-0.2,0.2
				c-0.1,0-0.2-0.1-0.2-0.2C62,60.8,62.1,60.8,62.2,60.8L62.2,60.8z"/>
			<path fill-rule="evenodd" clip-rule="evenodd" fill="#D4AF3A" d="M59.8,61.6c-0.1,0.2-0.1,0.6-0.1,0.7c0,0.2,0.2,0.5,0.3,0.7
				c0.1,0.2,0.1,0.3,0.2,0.3c0.1,0.1,0.2,0,0.2,0.2c0,0.2-0.1,0.3-0.1,0.4c0,0.1,0,0.2-0.2,0.1c-0.1,0-0.4-0.2-0.5-0.4
				c-0.1-0.2-0.1-0.7-0.2-0.8c-0.1-0.2-0.3-0.1-0.4-0.1c-0.1-0.1-0.2-0.2-0.3-0.2c-0.1-0.1,0-0.1,0-0.1c0,0,0.1-0.1,0.2,0
				c0.1,0.1,0.2,0.1,0.2,0c0.1-0.1,0.1-0.3-0.1-0.4c-0.1-0.1-0.2-0.4-0.1-0.4c0.1-0.1,0.2,0,0.3,0c0.1,0.1,0.1,0,0.1-0.1
				c0-0.1,0-0.2,0-0.2c0,0,0.1,0,0.1,0.1c0.1,0.1,0.1,0.1,0.1,0c0-0.1,0.1-0.1,0.1-0.1C59.9,61.3,59.9,61.3,59.8,61.6L59.8,61.6z"/>
			<path fill-rule="evenodd" clip-rule="evenodd" fill="#D4AF3A" d="M59.8,61c0,0.1,0,0.1,0,0.1C59.9,61.2,59.9,61.1,59.8,61
				C59.9,61,59.9,60.9,59.8,61L59.8,61z"/>
			<path fill-rule="evenodd" clip-rule="evenodd" fill="#D4AF3A" d="M59.4,60.9c0,0.1,0,0.1,0,0.1c0,0,0.1,0,0.1-0.1
				C59.5,60.9,59.4,60.7,59.4,60.9L59.4,60.9z"/>
			<path fill-rule="evenodd" clip-rule="evenodd" fill="#D4AF3A" d="M59,61.1c0,0.1,0.1,0.2,0.1,0.1c0.1,0,0-0.1,0-0.2
				C59,61,58.9,61,59,61.1L59,61.1z"/>
			<path fill-rule="evenodd" clip-rule="evenodd" fill="#D4AF3A" d="M58.6,62.1c0,0.1,0,0.1,0.1,0.1c0,0,0.1,0,0.1-0.1
				C58.8,62.1,58.7,62.1,58.6,62.1C58.7,62,58.6,61.9,58.6,62.1L58.6,62.1z"/>
			<path fill-rule="evenodd" clip-rule="evenodd" fill="#D4AF3A" d="M60.4,64.8c-0.1,0.2,0,0.4,0.2,0.3c0.2-0.1,0.3-0.2,0.5-0.1
				c0.1,0.1,0.1,0.3,0.2,0.5c0.1,0.2,0.2,0.3,0.3,0.1c0.1-0.2,0.1-0.4,0.3-0.4c0.1,0,0.3,0.2,0.4,0.3c0.1,0.1,0.2-0.1,0.3-0.2
				c0.1-0.1,0.1-0.1,0.1-0.2c0.1,0,0.1-0.1,0.1,0c0,0.1-0.1,0.2,0,0.2c0.1,0,0.4-0.1,0.7-0.3c0.4-0.1,1.1-0.2,1.4-0.2
				c0.3,0,0.5-0.2,0.2-0.2c-0.3,0-0.6,0-0.7,0.1c-0.1,0-0.3,0-0.2,0c0-0.1,0.4-0.1,0.6-0.2c0.2,0,0.5,0,0.5,0
				c0.1,0.1,0.1,0.2,0.1,0.4c0,0.1,0,0.5,0.2,0.7c0.2,0.2,0.5,0.3,0.6,0.3c0.1,0,0.1-0.1,0.1-0.2c0-0.1,0.2,0,0.3,0.1
				c0.1,0,0.3,0.1,0.3,0.1c0.1,0.1,0.1,0.3,0.1,0.4c0,0.2,0,0.2-0.1,0.3c-0.1,0.1-0.1,0.2-0.3,0.2c-0.2,0-0.4,0.1-0.5,0.2
				c-0.1,0.1-0.1,0.2,0,0.2c0,0.1,0,0.2,0,0.2h0.1c0,0,0.1-0.2,0.2-0.2c0.2,0,0.3,0,0.3,0.1c0,0,0,0.1,0,0.1h0.5
				c0,0,0.3-0.5,0.3-0.7c0.1-0.1,0-0.4,0-0.5c0-0.1,0-0.5,0-0.6c0-0.1,0-0.3,0-0.4c0-0.1-0.1-0.2-0.4-0.2c-0.3,0-0.4-0.3-0.5-0.3
				c-0.1-0.1-0.1-0.5-0.2-0.7c-0.1-0.2-0.2-0.3-0.5-0.4c-0.2-0.1-0.4-0.1-0.7-0.1c-0.3,0-0.7,0-0.9,0c-0.2,0-0.3,0-0.4,0
				c-0.1,0-0.1,0-0.1,0.1c0.1,0.1,0.1,0.2-0.1,0.2c-0.1,0-0.2,0-0.4,0c-0.2,0-0.2,0-0.2,0.1c0,0.1,0,0.2-0.1,0.3
				c-0.1,0.1-0.2,0.1-0.2,0c-0.1,0-0.1,0-0.2,0.1c-0.1,0.1-0.1,0.2-0.2,0.3c-0.1,0.1-0.1,0.1-0.2,0c-0.1-0.1-0.2-0.1-0.2-0.2
				c0-0.1-0.1-0.2-0.2,0C61.7,65,61.6,65,61.6,65c-0.1,0-0.2-0.1-0.2-0.2c-0.1-0.1-0.1-0.3-0.2-0.3c-0.1,0-0.2,0.1-0.3,0.2
				c-0.1,0.1-0.1,0.1-0.2,0.1C60.6,64.7,60.5,64.6,60.4,64.8L60.4,64.8z"/>
			<path fill-rule="evenodd" clip-rule="evenodd" fill="#D4AF3A" d="M60.7,65.6c-0.1,0.4-0.1,0.6-0.2,0.8c-0.1,0.2-0.3,0.4-0.4,0.5
				c-0.1,0.1-0.3,0-0.4,0.1c-0.1,0.1-0.2,0.2-0.1,0.3c0,0.1,0.2,0.1,0.2,0c0.1-0.1,0.2-0.1,0.2-0.1c0,0,0,0.1,0,0.1
				c0,0.1,0.1,0.2,0.1,0.2s0.6,0,0.6,0c0,0,0.1-0.3,0.1-0.5c0.1-0.2,0.2-0.7,0.3-0.9c0.1-0.2,0.1-0.2,0-0.4
				c-0.1-0.2-0.1-0.2-0.1-0.4c0-0.1-0.2-0.2-0.3-0.1C60.7,65.4,60.7,65.5,60.7,65.6L60.7,65.6z"/>
			<path fill-rule="evenodd" clip-rule="evenodd" fill="#D4AF3A" d="M64.2,66.2c0.1,0.1,0.2,0.2,0.1,0.4C64.2,66.8,64.1,67,64,67
				c-0.1,0.1-0.2,0.1-0.3,0c-0.1,0-0.2-0.1-0.3,0c-0.1,0.1-0.2,0.1-0.2,0.2c0,0.1,0.1,0,0.2,0.1c0.1,0.1,0,0.2,0,0.2h0.7
				c0,0,0.2-0.2,0.2-0.3c0-0.1,0.3-0.3,0.3-0.4c0-0.1,0-0.3,0-0.4c-0.1-0.1-0.1-0.3-0.1-0.4c0-0.1,0.2-0.3,0.3-0.3
				c0.1-0.1,0.2-0.3,0-0.4c-0.1-0.1-0.5-0.1-0.7-0.1c-0.2,0-0.4,0.2-0.4,0.4c-0.1,0.2,0,0.3,0,0.4c0.1,0,0.1,0,0.2,0
				C64.2,66.1,64.2,66.2,64.2,66.2L64.2,66.2z"/>
			<path fill-rule="evenodd" clip-rule="evenodd" fill="#D4AF3A" d="M66.2,67.6c0,0,0.1-0.1,0.2-0.1c0.2,0,0.1,0.1,0.1,0.1H66.2
				L66.2,67.6z"/>
			<path fill-rule="evenodd" clip-rule="evenodd" fill="#D4AF3A" d="M65.6,67.6c0,0,0.1-0.1,0.2-0.1c0.2,0,0.1,0.1,0.1,0.1H65.6
				L65.6,67.6z"/>
			<path fill-rule="evenodd" clip-rule="evenodd" fill="#D4AF3A" d="M63.2,67.6c0,0,0.2-0.2,0.3-0.2c0.1,0.1,0,0.2,0,0.2L63.2,67.6
				L63.2,67.6z"/>
			<path fill-rule="evenodd" clip-rule="evenodd" fill="#D4AF3A" d="M62.9,67.6c0-0.1,0.2-0.3,0.3-0.3c0.1,0,0,0.1,0,0.2
				c0,0-0.1,0.1-0.1,0.1L62.9,67.6L62.9,67.6z"/>
			<path fill-rule="evenodd" clip-rule="evenodd" fill="#D4AF3A" d="M59.7,67.6c0.1-0.1,0.2-0.2,0.3-0.2c0.1,0,0.1,0.2,0.1,0.2H59.7
				L59.7,67.6z"/>
			<path fill-rule="evenodd" clip-rule="evenodd" fill="#D4AF3A" d="M59.2,67.6c0,0,0.1-0.2,0.2-0.1c0.1,0,0.1,0.1,0.1,0.1
				L59.2,67.6L59.2,67.6z"/>
			<path fill-rule="evenodd" clip-rule="evenodd" fill="#D4AF3A" d="M66.3,63.8c0,0,0.4,0,0.8-0.1c0.3-0.1,0.3-0.5,0.2-0.6
				c-0.1-0.1-0.2-0.2-0.9-0.3c-0.6,0-1.1-0.1-1.5-0.4c-0.3-0.3-0.4-0.6-0.2-0.8c0.2-0.2,0.6-0.3,0.9-0.4c0.2-0.1,0.5-0.2,0.8-0.2
				c0.4,0,0.5,0.1,0.7,0.1c0.2,0,0.4,0,0.4,0c0,0-0.2,0.3-0.5,0.4c-0.3,0.1-0.7,0.1-0.9,0c-0.2,0-0.4-0.1-0.6-0.1
				c-0.3,0.1-0.5,0.2-0.6,0.4c-0.1,0.2,0.1,0.4,0.3,0.5c0.2,0.1,0.7,0.1,1.2,0.2c0.5,0.1,0.8,0.1,1.1,0.2c0.2,0.2,0.3,0.5,0.3,0.7
				c-0.1,0.2-0.6,0.5-1.3,0.5C66.5,64,66.4,63.9,66.3,63.8L66.3,63.8z"/>
			<path fill-rule="evenodd" clip-rule="evenodd" fill="#1D5E91" d="M62.6,43.2H63v-0.4C63,42.9,62.7,43,62.6,43.2L62.6,43.2z
				 M75.1,73.6c0.1,0.3,0.3,1.3,1.2,1.3c0.9,0,1-0.4,1-0.5c0-0.1,0.1-0.3,0.1-0.3S76.5,74,75.1,73.6L75.1,73.6z M79.3,74.6
				c0,0-0.1,0.5-0.6,0.7c-0.5,0.1-0.6,0-0.6-0.1c0-0.2,0.2-0.3,0.4-0.4c0.2-0.1,0.3-0.3,0.3-0.3S79.2,74.4,79.3,74.6L79.3,74.6z
				 M78.6,71.5c0,0-0.3,0.9-0.3,1.1c0,0.2,0,0.2,0.1,0.2c0.1,0,1,0.2,1.1,0.3c0.1,0,0.2-0.1,0.1-0.1C79.7,72.8,79.5,72,78.6,71.5
				L78.6,71.5z M75.3,72c0,0,1.3,0.3,1.5,0.4c0.1,0,0.1,0,0.2-0.1c0-0.1,0.3-1.2,0.3-1.2S75.9,71,75.3,72L75.3,72z M64.7,67.6
				c0.1-0.1,0.3-0.5,0.3-0.6c0.1-0.1,0.1-0.3,0-0.5c-0.1-0.2-0.1-0.5,0-0.6c0.1-0.1,0.2-0.1,0.2-0.1s0.3,0.3,0.4,0.4
				c0.2,0.1,0.3,0.1,0.5,0.1c0.2,0,0.2,0,0.3-0.1c0-0.1,0-0.1,0.1-0.1c0.1,0,0.1,0,0.2,0.1c0.1,0,0.1,0.2,0.1,0.3
				c0,0.1,0,0.2-0.1,0.3c-0.1,0.1-0.1,0.1-0.3,0.2c-0.3,0-0.4,0.1-0.5,0.2c-0.1,0.1,0,0.2-0.1,0.2c-0.1,0-0.1,0-0.2,0.1
				c-0.1,0.1-0.1,0.1-0.1,0.1S64.7,67.6,64.7,67.6L64.7,67.6z M61.1,67.6c0,0,0.1-0.7,0.2-1.1c0.1-0.4,0.2-0.6,0.4-0.7
				c0.1-0.1,0.4-0.1,0.6-0.1c0.2,0,0.3,0,0.6-0.1c0.3-0.1,0.6-0.2,0.7-0.2c0.1,0,0.1,0,0.1,0.1c0,0.1,0,0.3,0,0.5
				c0,0.2,0.1,0.2,0.1,0.2c0.1,0,0.1,0,0.1-0.1c0,0,0.1,0.1,0.1,0.1c0.1,0.1,0.2,0.1,0.1,0.2c-0.1,0.1-0.2,0.3-0.2,0.4
				c-0.1,0.1-0.1,0.1-0.3,0c-0.1-0.1-0.3,0-0.3,0c-0.1,0.1,0,0.1-0.2,0.2c-0.2,0.1-0.2,0.1-0.3,0.2c-0.1,0.1-0.1,0.2-0.1,0.2
				S61.1,67.6,61.1,67.6L61.1,67.6z M57.8,60.7l1.4-1.5c0,0,1.5,1,4.1-0.1c0,0,2.4,1,4.1,0.1l1.3,1.5c0,0-0.6,1-0.5,2.2
				c0.1,1.1,0.4,2.6,0.5,3.6c0.1,0.9,0,1.2,0,1.2h-1.3c0,0,0.3-0.5,0.3-0.8c0.1-0.3,0-0.9,0-1.1c0-0.2,0-0.5-0.2-0.6
				c-0.2-0.1-0.6,0-0.7-0.2c-0.1-0.1-0.1-0.3-0.1-0.4c0-0.1-0.1-0.3-0.1-0.3s1-0.2,1.2-0.4c0.2-0.2,0.3-0.6,0.1-0.9
				c-0.1-0.2-0.3-0.4-1-0.5c-0.6-0.1-1.2-0.1-1.5-0.2c-0.3-0.1-0.5-0.4-0.2-0.7c0.3-0.2,0.5,0.1,1.1,0.1c0.7,0,1.1-0.2,1.2-0.4
				c0.1-0.1,0.2-0.3,0.1-0.4c-0.1-0.1-0.2,0-0.3,0c-0.1,0-0.4,0-0.5-0.1c-0.2,0-0.6-0.1-1,0.1c-0.4,0.1-0.5,0.2-0.7,0.3
				c-0.2,0.1-0.5,0.2-0.6,0.6c-0.1,0.4,0.3,0.7,0.6,0.8c0.3,0.1,0.7,0.2,1.1,0.2c0.5,0,0.8,0.1,0.8,0.3c0.1,0.2,0.1,0.4-0.6,0.5
				c-0.7,0-0.6-0.1-0.9-0.1c-0.3,0-0.8,0-1.2,0c-0.4,0-0.8,0-0.8,0s-0.1-0.3-0.2-0.4c-0.1-0.1-0.1-0.2,0.1-0.2
				c0.1,0,0.5-0.1,0.5-0.2c0.1-0.1,0-0.1,0-0.2c-0.1-0.1-0.1-0.1-0.2-0.2c-0.1-0.1-0.2-0.1-0.2-0.2c0-0.1,0-0.1,0.1-0.2
				c0.1-0.1,0.2-0.1,0.3-0.2c0.1-0.1,0.1-0.1,0-0.2c-0.1-0.1-0.2-0.2-0.3-0.2c-0.1,0-0.1-0.1,0-0.2c0.1-0.1,0.2-0.2,0.2-0.2
				c0-0.1,0-0.2-0.2-0.2c-0.2-0.1-0.3,0-0.4,0c-0.1,0,0-0.2,0-0.2c0-0.1-0.1-0.1-0.3-0.2c-0.1,0-0.3,0-0.4,0.1
				c-0.1,0.1-0.4,0.1-0.5,0.1c-0.1,0-0.3,0-0.4,0.1c-0.1,0.1-0.2,0.1-0.3,0.1c-0.1,0-0.4,0.1-0.4,0.2c-0.1,0.1-0.1,0.2-0.1,0.2
				c0,0.1,0.1,0.2,0.1,0.3c0,0.1,0,0.1-0.1,0c-0.1-0.1-0.1-0.1-0.2-0.2c-0.1-0.1-0.1-0.2-0.2-0.1c-0.1,0.1-0.1,0.3-0.1,0.4
				c0,0.1,0.1,0.3,0.3,0.4c0.2,0.1,0.2,0.1,0.3,0.1c0.1,0,0.1,0.1,0.1,0.2c0,0.1,0.1,0.2,0.2,0.2c0.1,0,0.3,0,0.3,0.1
				c0,0.1-0.2,0.1-0.5,0.2c-0.3,0.1-0.4,0.2-0.5,0.3c-0.1,0.1-0.1,0.2-0.2,0.2c-0.1,0-0.3,0-0.4-0.1c-0.1-0.1-0.3-0.5-0.3-0.8
				c0-0.3,0-0.6,0.1-0.7c0-0.1,0-0.3,0-0.4c0-0.1,0-0.2,0-0.3c0-0.1-0.1-0.2-0.1,0c0,0.1,0,0.2-0.1,0.2c0,0-0.1,0.1-0.1,0
				c0-0.1,0-0.2-0.1-0.3s-0.2-0.1-0.2,0c0,0.1,0,0.1,0,0.2c0,0.1,0,0.2-0.1,0.2c-0.1-0.1-0.1-0.2-0.2-0.2c-0.1,0-0.2,0-0.1,0.2
				c0,0.1,0.1,0.3,0,0.4c0,0.1,0,0.2,0,0.3c0.1,0.1,0.2,0.3,0.1,0.4c-0.1,0.1-0.2-0.2-0.3-0.2c-0.1-0.1-0.2-0.1-0.2,0.1
				c0,0.2,0,0.4,0.2,0.6s0.3,0.3,0.4,0.3c0.1,0,0.2-0.1,0.2,0.2c0,0.2,0.1,0.6,0.2,0.9c0,0.2,0.2,0.4,0.3,0.4
				c0.2,0.1,0.4,0.1,0.5,0.1c0.1,0,0.1,0,0.1,0.1c0,0,0.1,0.1,0,0.2c-0.1,0.1-0.1,0.3-0.1,0.5c0,0.2,0.1,0.3,0.1,0.3
				c0.1,0,0.2-0.1,0.2,0.2c0,0.3-0.1,0.6-0.3,0.9c-0.2,0.3-0.2,0.4-0.5,0.4c-0.2,0-0.3,0-0.3,0.1c0,0.1,0,0.2-0.1,0.2
				c-0.1,0-0.3,0.1-0.3,0.2h-1.3c-0.1-1.2,0.3-2.7,0.4-3.9c0,0,0,0,0,0C58.3,62.9,58.5,62,57.8,60.7L57.8,60.7z M62.6,43.7
				c0,0,1.4,0,1.4,0c0,0-0.2,0.5-0.7,0.5C62.8,44.2,62.6,43.7,62.6,43.7L62.6,43.7z M64,43.2h-0.4v-0.4C63.6,42.9,63.9,43,64,43.2
				L64,43.2z"/>
			<path fill-rule="evenodd" clip-rule="evenodd" fill="#6D8C3E" d="M58,68.2h10.6c0,0-0.3,1.2-1.5,1.9c-1.2,0.8-2.6,0.9-3.8,2.1
				c0,0-0.9-0.9-2.5-1.5C59.1,70.2,58.1,69,58,68.2L58,68.2z"/>
		</g>
	</g>
	<path opacity="0.25" fill="#FFFFFF" d="M13.1,29.7v25.5C26.3,62.6,43.8,67,63,67c19.2,0,36.7-4.5,49.9-11.8V29.7H13.1z"/>
</g>
</svg>
