<?xml version="1.0" encoding="utf-8"?>
<!-- Generator: Adobe Illustrator 24.3.0, SVG Export Plug-In . SVG Version: 6.00 Build 0)  -->
<svg version="1.1" id="Layer_1" xmlns="http://www.w3.org/2000/svg" xmlns:xlink="http://www.w3.org/1999/xlink" x="0px" y="0px"
	 viewBox="0 0 126 126" enable-background="new 0 0 126 126" xml:space="preserve">
<g>
	<g>
		<polygon fill-rule="evenodd" clip-rule="evenodd" fill="#C20B18" points="13,29.7 113,29.7 113,96.3 13,96.3 13,29.7 		"/>
		<path fill="#0C7843" d="M63.7,54.8l1.6,4.8h5.3h2.7l-2.2,1.6l-4.2,3l1.6,4.8l0.8,2.5L67.1,70l-4.3-3l-4.3,3l-2.1,1.5l0.8-2.5
			l1.6-4.8l-4.2-3l-2.2-1.6h2.7h5.3l1.6-4.8l0.8-2.4L63.7,54.8L63.7,54.8z M65.9,61.4l0.2,0.5l0.2,0.6l1.6-1.1H65.9L65.9,61.4z
			 M64.4,62.5l-0.4-1.1h-1.2h-1.2l-0.4,1.1l-0.4,1.1l0.9,0.7l1,0.7l1-0.7l0.9-0.7L64.4,62.5L64.4,62.5z M63.5,59.7l-0.6-1.9
			l-0.6,1.9h0.6H63.5L63.5,59.7z M66,67.1l-0.6-1.9l-0.5,0.4l-0.5,0.3L66,67.1L66,67.1z M61.4,65.9l-0.5-0.3l-0.5-0.4l-0.6,1.9
			L61.4,65.9L61.4,65.9z M57.9,61.4l1.6,1.1l0.2-0.6l0.2-0.5H57.9L57.9,61.4z"/>
	</g>
	<path opacity="0.25" fill="#FFFFFF" d="M13,29.7v25.5C26.2,62.6,43.7,67,63,67c19.3,0,36.8-4.5,50-11.8V29.7H13z"/>
</g>
</svg>
