<?xml version="1.0" encoding="utf-8"?>
<!-- Generator: Adobe Illustrator 24.3.0, SVG Export Plug-In . SVG Version: 6.00 Build 0)  -->
<svg version="1.1" id="Layer_1" xmlns="http://www.w3.org/2000/svg" xmlns:xlink="http://www.w3.org/1999/xlink" x="0px" y="0px"
	 viewBox="0 0 126 126" enable-background="new 0 0 126 126" xml:space="preserve">
<g>
	<g>
		<rect x="13" y="29.7" fill-rule="evenodd" clip-rule="evenodd" fill="#F4F4F4" width="100" height="66.7"/>
		<rect x="13" y="52.6" fill-rule="evenodd" clip-rule="evenodd" width="100" height="20.8"/>
		<rect x="13" y="29.7" fill-rule="evenodd" clip-rule="evenodd" fill="#006A4E" width="100" height="20.8"/>
		<rect x="13" y="75.5" fill-rule="evenodd" clip-rule="evenodd" fill="#FFDE27" width="100" height="20.8"/>
		<polygon fill-rule="evenodd" clip-rule="evenodd" fill="#C20B18" points="13,29.7 13,96.3 56.8,63 13,29.7 		"/>
		<g>
			<polygon fill-rule="evenodd" clip-rule="evenodd" fill="#FCE100" points="27.6,50.5 30.7,60.1 40.8,60.1 32.6,66 35.8,75.5 
				27.6,69.6 19.5,75.5 22.6,66 14.5,60.1 24.5,60.1 27.6,50.5 			"/>
			<g>
				
					<path fill-rule="evenodd" clip-rule="evenodd" fill="#FFFFFF" stroke="#000000" stroke-width="0.1572" stroke-miterlimit="2.4142" d="
					M20.6,68.9h5.9c0,0,0.9,1.2,2.5,0c1.6-1.1,6.3,0.2,6.3,0.2l-1.9-6.5l-0.7-0.7c0,0-1.4-0.8-3.7-0.5c-2.3,0.3-2.3,0.3-2.3,0.3
					l-0.5-0.4c0,0-2.1,0.1-3.4,0.6l-0.8,0.7L20.6,68.9L20.6,68.9z"/>
				<path d="M32.8,61.9l1.2,5.6l0,0.1l-0.1,0c0,0-3.3-0.8-5.9,0.4c0.5,0.2,0.8,0.5,1.1,0.9l-0.1,0.1c-0.2-0.4-0.6-0.7-1.1-0.9
					c-0.5,0.2-0.9,0.5-1.3,0.9l-0.1-0.1c0.4-0.3,0.8-0.6,1.2-0.8c-2.2-0.8-6-0.5-6-0.5l-0.1,0l0-0.1l1.3-5.6l0.2,0l-1.2,5.5
					c0.7-0.1,4-0.3,6,0.5l0-6.3h0.2l0,6.3c2.4-1.1,5.3-0.6,6-0.4L32.7,62L32.8,61.9L32.8,61.9z"/>
			</g>
			<path fill-rule="evenodd" clip-rule="evenodd" d="M16.7,69.5c0,0,1.8-1.6,2.1-1.9c0.3-0.3,0.7-0.3,0.9-0.3l1.2-1.2
				c0,0,0-0.1,0.4,0c0,0,2.1-1.9,2.2-2c0.1,0,0.1,0,0.1,0c0,0,0.1,0.1,0.1,0.1s0,0,0.1,0c0.1,0,0.2-0.2,0.2-0.2s0-0.1,0.1-0.2
				c0.1-0.1,1.6-1.4,1.6-1.4l0,0c0,0-1.7,1.4-1.7,1.4c-0.1,0.1-0.1,0-0.1,0c0,0-0.1-0.1-0.1,0c0,0.1,0,0.1-0.1,0.1
				c-0.1,0-2.2,1.8-2.3,1.9c-0.1,0.1-0.2,0.1-0.2-0.1c0-0.1,0.1-0.7,0.1-0.8c0-0.1,0.1-0.1,0.2-0.1c0.1,0,0.3,0,0.4-0.2
				c0.1-0.1,1.7-1.4,1.8-1.5c0.1-0.1,1.4-1.2,1.5-1.3c0.1-0.1,0.1-0.1,0.1-0.2c0-0.1,0.1-0.1,0.2-0.2c0.1-0.1,1-0.8,1.1-0.9
				c0.1-0.1,0.1,0,0.2,0.2c0,0.2-0.1,0.1,0.1,0.3c0.2,0.2,0.2,0.2,0.3,0.3c0.1,0,0.1,0,0.1,0c0.1,0,0.2-0.2,0.2-0.2c0,0,0-0.1,0-0.1
				c0,0-0.2,0.2-0.3,0.2c0,0-0.1,0-0.1,0c-0.1,0-0.3-0.3-0.3-0.3c0,0,0-0.1,0-0.1c0,0,0.2-0.2,0.3-0.2c0,0,0-0.1,0-0.1
				c0,0-2-2.3-2-2.3s-0.2,0.1-0.7,0.1l-0.7-0.7c0,0-0.1,1-0.1,1.1c0,0.1,0,0.1-0.1,0.2c0,0-3.6,4.5-3.6,4.6c-0.1,0.1-0.1,0-0.1,0
				c0,0-1.8-2.1-1.8-2.2c0,0,0-0.1,0-0.1c0.1-0.1,3.1-4.4,3.2-4.5c0-0.1,0.1-0.1,0.2-0.1c0.1,0,0.3-0.1,0.4-0.1c0.1,0,0.1,0,0.3,0
				c0.1,0,0.5,0,0.6,0.1c0.1,0,0.3,0,0.3-0.1c0-0.1,0.1-0.6,0.5-0.9c0.4-0.2,1-0.1,1.1-0.1c0.1,0,1.4,1.5,1.4,1.5c0,0,0,0.1,0,0.1
				c0,0.1-0.1,0.3-0.1,0.3s2.1,2.4,2.1,2.4c0,0,0.1,0,0.1,0c0,0,0.7-0.7,0.7-0.7c0,0,0.1,0,0.1,0s0.1,0.1,0.1,0.1c0,0,0,0,0.1-0.1
				c0-0.1,0-0.1,0.1-0.2c0.1-0.1,1.2-1.1,1.2-1.2c0,0,0.1,0,0.1,0c0.1,0,0.7,0,0.7,0c0.1,0,0.1,0,0.1,0c0.1-0.1,1.1-1,1.1-1
				s0-0.6,0.1-0.7c0-0.1,0.1-0.1,0.2,0c0.1,0.1,0.4,0.3,0.5,0.3c0.1,0.1,0.2,0.1,0.2,0.1s0.3-0.4,0.5-0.2c0.2,0.1,0.1,0.4,0.1,0.5
				c0,0.1,0.1,0.1,0.1,0c0.1,0,4.5-3.2,4.5-3.2c0.1-0.1,0.2,0.1,0.1,0.1c-0.1,0.1-4.1,4-4.3,4.1c-0.1,0.1-0.4,0.1-0.5,0
				c0,0-2.5,2.1-2.5,2.1c-0.1,0.1-0.1,0-0.2,0c0,0-0.2-0.3-0.4-0.3c-0.1-0.1-0.1,0-0.2,0c-0.1,0.1-0.8,0.7-0.8,0.7s0,0.2-0.1,0.4
				C29.4,60.7,29,61,29,61c0,0,0,0.1,0,0.1c0,0,7.8,9,7.9,9c0,0.1,0,0.2,0,0.3c0,0.1,0,0.3-0.3,0.5c-0.3,0.1-0.3,0.1-0.3,0.2
				c0,0-0.1,0-0.1,0c0,0-8-9.2-8.1-9.2c0,0,0,0-0.1,0c-0.1,0-1.2,1-1.3,1.1c-0.1,0-0.1,0-0.1,0c0,0-0.5-0.6-0.5-0.6c0,0,0,0,0,0
				c0,0,0,0,0,0.1c0,0,0.3,0.4,0.3,0.5c0,0,0.1,0.1-0.1,0.1c-0.1,0-0.4,0.1-0.5,0.2c-0.2,0.2-0.2,0.4,0,0.6c0.1,0.1,0.8,0.4,1.6,0.6
				c0.8,0.1,1.6,0.3,1.8,0.3c0.2,0,0.2,0.1,0.2,0.2c0,0.1-0.1,1.3-0.1,1.4c0,0.1,0,0.1-0.2,0.2c-0.2,0-1.1,0.2-2.7-0.6
				c-1.6-0.8-1.8-1-1.9-1c0,0,0,0-0.1,0c0,0-0.1,0.1-0.1,0.1c0,0,0,0.1,0,0.1c0,0,0.3,0.4,0.3,0.4c0,0.1,0,0.1,0,0.1
				c0,0-0.8,0.9-0.9,1c0,0,0,0.1,0,0.1c0,0,0.4,1.4,0.4,1.4c0,0.1,0,0.1,0,0.1c0,0-0.6,0.5-0.7,0.5c-0.1,0-0.1,0-0.1,0
				c0-0.1-0.5-1.5-0.6-1.5c0-0.1-0.3-0.3-0.4-0.4c0,0,0-0.1,0-0.1c0,0,0.8-0.7,0.8-0.8c0,0,0.1,0,0.1,0c0.1,0,0.3,0,0.4,0
				c0,0,0,0,0.1,0c0,0,0.3-0.4,0.3-0.4c0,0,0,0,0-0.1c0,0-0.2-0.2-0.2-0.2c0,0,0,0,0,0c0,0-0.2,0.2-0.3,0.2c0,0,0,0.1,0,0.1
				c0,0,0.2,0.1,0.2,0.1c0,0.1-0.2,0.1-0.3,0.1c-0.1,0-0.1,0-0.2,0.1c-0.1,0.1-1.4,1.3-1.4,1.3c0,0,0,0.3-0.2,0.5
				c-0.1,0.2-2.7,3.3-2.9,3.5c-0.2,0.2-0.4,0.3-0.7,0c-0.3-0.3-1.3-1.5-1.3-1.5C16.7,69.6,16.7,69.5,16.7,69.5L16.7,69.5z"/>
		</g>
	</g>
	<path opacity="0.3" fill="#FFFFFF" d="M13,29.7v25.5C26.2,62.5,43.7,67,63,67c19.3,0,36.8-4.5,50-11.8V29.7H13z"/>
</g>
</svg>
