<?xml version="1.0" encoding="utf-8"?>
<!-- Generator: Adobe Illustrator 24.3.0, SVG Export Plug-In . SVG Version: 6.00 Build 0)  -->
<svg version="1.1" id="Layer_1" xmlns="http://www.w3.org/2000/svg" xmlns:xlink="http://www.w3.org/1999/xlink" x="0px" y="0px"
	 viewBox="0 0 126 126" enable-background="new 0 0 126 126" xml:space="preserve">
<g>
	<g>
		<polygon fill-rule="evenodd" clip-rule="evenodd" fill="#0437A0" points="13,29.7 93,29.7 13,83 13,29.7 		"/>
		<polygon fill-rule="evenodd" clip-rule="evenodd" fill="#00840F" points="33,96.3 113,96.3 113,43 33,96.3 		"/>
		<path fill="#F4F4F4" d="M13,83l80-53.3h5L13,86.3V83L13,83z M113,39.7V43L33,96.3h-5L113,39.7L113,39.7z"/>
		<polygon fill="#FF1612" points="13,86.3 98,29.7 113,29.7 113,39.7 28,96.3 13,96.3 13,86.3 		"/>
		<path fill-rule="evenodd" clip-rule="evenodd" fill="#FFD31E" d="M42.6,53.6l-4.9-0.8l0.8,4.9l-3.8-3.2c2.3-0.6,4.1-2.4,4.7-4.7
			L42.6,53.6L42.6,53.6z M38.6,48L38.6,48c0,3.1-2.5,5.6-5.6,5.6c-3.1,0-5.6-2.5-5.6-5.6l0,0v0c0-3.1,2.5-5.6,5.6-5.6
			C36.1,42.5,38.6,44.9,38.6,48L38.6,48L38.6,48L38.6,48z M34.7,54.5L33,59.1l-1.7-4.7C32.4,54.8,33.6,54.8,34.7,54.5L34.7,54.5z
			 M31.3,54.5l-3.8,3.2l0.8-4.9l-4.9,0.8l3.2-3.8C27.2,52,29,53.8,31.3,54.5L31.3,54.5z M26.6,49.7L21.9,48l4.7-1.7
			C26.3,47.4,26.3,48.6,26.6,49.7L26.6,49.7z M26.6,46.3l-3.2-3.8l4.9,0.8l-0.8-4.9l3.8,3.2C29,42.2,27.2,44,26.6,46.3L26.6,46.3z
			 M31.3,41.6l1.7-4.7l1.7,4.7C33.6,41.3,32.4,41.3,31.3,41.6L31.3,41.6z M34.7,41.6l3.8-3.2l-0.8,4.9l4.9-0.8l-3.2,3.8
			C38.8,44,37,42.2,34.7,41.6L34.7,41.6z M39.4,46.3l4.7,1.7l-4.7,1.7C39.7,48.6,39.7,47.4,39.4,46.3L39.4,46.3z"/>
	</g>
	<path opacity="0.25" fill="#FFFFFF" d="M13,29.7v25.5C26.2,62.6,43.7,67,63,67c19.3,0,36.8-4.5,50-11.8V29.7H13z"/>
</g>
</svg>
