<?xml version="1.0" encoding="utf-8"?>
<!-- Generator: Adobe Illustrator 24.3.0, SVG Export Plug-In . SVG Version: 6.00 Build 0)  -->
<svg version="1.1" id="Layer_1" xmlns="http://www.w3.org/2000/svg" xmlns:xlink="http://www.w3.org/1999/xlink" x="0px" y="0px"
	 viewBox="0 0 126 126" enable-background="new 0 0 126 126" xml:space="preserve">
<g>
	<g>
		<polygon fill-rule="evenodd" clip-rule="evenodd" fill="#0437A0" points="13,96.3 113,96.3 113,29.7 13,29.7 13,96.3 		"/>
		<polygon fill-rule="evenodd" clip-rule="evenodd" fill="#FFD31E" points="13,65.8 113,65.8 113,60.2 13,60.2 13,65.8 		"/>
		<polygon fill-rule="evenodd" clip-rule="evenodd" fill="#F4F4F4" points="33.5,88 34.9,82.3 39,86.5 37.4,80.8 43.1,82.5 
			38.9,78.3 44.6,76.9 38.9,75.5 43.1,71.3 37.4,73 39,67.3 34.9,71.5 33.5,65.8 32,71.5 27.9,67.3 29.6,73 23.9,71.3 28.1,75.5 
			22.4,76.9 28.1,78.3 23.9,82.5 29.6,80.8 27.9,86.5 32,82.3 33.5,88 		"/>
	</g>
	<path opacity="0.25" fill="#FFFFFF" d="M13,29.7v25.5C26.2,62.6,43.7,67,63,67s36.8-4.5,50-11.8V29.7H13z"/>
</g>
</svg>
