<?xml version="1.0" encoding="utf-8"?>
<!-- Generator: Adobe Illustrator 24.3.0, SVG Export Plug-In . SVG Version: 6.00 Build 0)  -->
<svg version="1.1" id="Layer_1" xmlns="http://www.w3.org/2000/svg" xmlns:xlink="http://www.w3.org/1999/xlink" x="0px" y="0px"
	 viewBox="0 0 126 126" enable-background="new 0 0 126 126" xml:space="preserve">
<g>
	<g>
		<rect x="22.9" y="13.3" fill="#F0F0F0" width="80.3" height="99.7"/>
		<polygon fill="#0437A0" points="22.9,13.3 22.9,113 101,113 53,64.3 103.1,64.3 22.9,13.3 		"/>
		<polygon fill="#FF1612" points="26.2,19 26.2,109.6 93.1,109.6 45.8,61.5 93.1,61.5 26.2,19 		"/>
		<path fill-rule="evenodd" clip-rule="evenodd" fill="#F4F4F4" d="M42.9,71.3l2.2,5.4l4.9-3.4l-0.7,5.8l6-0.5l-3.5,4.6l5.4,2.6
			L52,88.1l3.4,5l-5.7-0.7l0.5,6.1l-4.6-3.5l-2.6,5.5L40.7,95l-4.9,3.4l0.7-5.8l-6,0.5l3.5-4.6l-5.4-2.6l5.3-2.3l-3.4-5l5.7,0.7
			l-0.4-6.1l4.6,3.5L42.9,71.3L42.9,71.3z M56.3,44.9c0,0.2,0,0.3,0,0.5c0,7.6-6,13.7-13.5,13.7c-7.4,0-13.5-6.1-13.5-13.7
			c0-0.2,0-0.3,0-0.5c0.9,3.3,3.1,6.1,5.9,7.9l1.5-1L34.3,50l3-0.6l-1.7-2.6l3,0.6l-0.6-3l2.5,1.7l0.6-3l1.7,2.5l1.7-2.5l0.6,3
			l2.5-1.7l-0.6,3l3-0.6l-1.7,2.6l3,0.6l-2.5,1.7l1.5,1C53.2,51,55.3,48.2,56.3,44.9L56.3,44.9z"/>
	</g>
	<path opacity="0.45" fill="#FFFFFF" d="M22.9,13v38.4c10.6,11,24.6,17.8,40,17.8s29.5-6.7,40-17.8V13H22.9z"/>
</g>
</svg>
