<?xml version="1.0" encoding="utf-8"?>
<!-- Generator: Adobe Illustrator 24.3.0, SVG Export Plug-In . SVG Version: 6.00 Build 0)  -->
<svg version="1.1" id="Layer_1" xmlns="http://www.w3.org/2000/svg" xmlns:xlink="http://www.w3.org/1999/xlink" x="0px" y="0px"
	 viewBox="0 0 126 126" enable-background="new 0 0 126 126" xml:space="preserve">
<g>
	<g>
		<g>
			<polygon fill="#F0F0F0" points="113,51.9 113,74.1 13,74.1 13,51.9 113,51.9 			"/>
			<path fill="#1971E4" d="M13,29.7h100v22.2H13V29.7L13,29.7z M13,74.1h100v22.2H13V74.1L13,74.1z"/>
			<g>
				<g>
					<defs>
						<polygon id="SVGID_1_" points="63,55 66.6,61.2 70.1,67.3 63,67.3 55.9,67.3 59.5,61.2 63,55 						"/>
					</defs>
					<use xlink:href="#SVGID_1_"  overflow="visible" fill-rule="evenodd" clip-rule="evenodd" fill="#FFFFFF"/>
					<clipPath id="SVGID_2_">
						<use xlink:href="#SVGID_1_"  overflow="visible"/>
					</clipPath>
					<g clip-path="url(#SVGID_2_)">
						<path fill-rule="evenodd" clip-rule="evenodd" fill="#6FD8F2" d="M63,61.7l0.1,3.6l0.1,3.6H63h-0.3l0.1-3.6L63,61.7l0.4-3.6
							l0.4-3.6l0.3,0l0.3,0l-0.7,3.5L63,61.7L63,61.7z M63,61.7l-0.7,3.5l-0.7,3.5l0.3,0l0.3,0l0.4-3.6L63,61.7l0.9-3.5l0.9-3.5
							l0.3,0.1l0.3,0.1l-1.2,3.4L63,61.7l0.7,3.5l0.7,3.5l-0.3,0l-0.3,0l-0.4-3.6L63,61.7l-1.2,3.4l-1.2,3.4l0.3,0.1l0.3,0.1
							l0.9-3.5L63,61.7l-3.6-0.4l-3.6-0.4l0-0.3l0-0.3l3.5,0.7L63,61.7l1.4-3.3l1.4-3.3l0.3,0.1l0.3,0.1l-1.7,3.2L63,61.7l-2.2-2.8
							l-2.2-2.8l-0.2,0.2l-0.2,0.2l2.4,2.6L63,61.7l-1.7,3.2L59.7,68l0.3,0.1l0.3,0.1l1.4-3.3L63,61.7l3.4,1.2l3.4,1.2l0.1-0.3
							l0.1-0.3l-3.5-0.9L63,61.7l1.9-3.1l1.9-3.1l0.2,0.2l0.2,0.2l-2.1,2.9L63,61.7l0.9,3.5l0.9,3.5l0.3-0.1l0.3-0.1l-1.1-3.4
							L63,61.7l-2.1,2.9l-2.1,2.9l0.2,0.2l0.2,0.2l1.8-3.1L63,61.7l-3.5-0.9l-3.5-0.9l0.1-0.3l0.1-0.3l3.4,1.2L63,61.7l2.3-2.8
							l2.3-2.8l0.2,0.2l0.2,0.2l-2.5,2.6L63,61.7l2,2.9l2,2.9l-0.2,0.2l-0.2,0.2l-1.8-3.1L63,61.7l-2.5,2.6L58,66.8l0.2,0.2l0.2,0.2
							l2.3-2.8L63,61.7l3.2,1.6l3.2,1.6l0.1-0.3l0.1-0.3l-3.3-1.4L63,61.7l2.6-2.4l2.6-2.4l0.2,0.2l0.2,0.2l-2.8,2.2L63,61.7
							l-0.4-3.6l-0.4-3.6l-0.3,0l-0.3,0l0.7,3.5L63,61.7l-2.8,2.2l-2.8,2.2l0.2,0.2l0.2,0.2l2.6-2.4L63,61.7l-3.3-1.4l-3.3-1.4
							l0.1-0.3l0.1-0.3l3.2,1.6L63,61.7l3-2l3-2l0.2,0.2l0.2,0.2l-3.1,1.8L63,61.7l-1.8-3.1l-1.8-3.1l-0.2,0.2l-0.2,0.2l2,2.9
							L63,61.7l-3.1,1.8l-3.1,1.8l0.2,0.2l0.2,0.2l3-2L63,61.7l2.9,2.1l2.9,2.1l0.2-0.2l0.2-0.2l-3.1-1.8L63,61.7l3.2-1.6l3.2-1.6
							l0.1,0.3l0.1,0.3l-3.3,1.3L63,61.7l-1.1-3.4l-1.1-3.4l0.3-0.1l0.3-0.1l0.9,3.5L63,61.7L59.7,63l-3.3,1.3l0.1,0.3l0.1,0.3
							l3.2-1.6L63,61.7l-3.1-1.8L56.8,58l0.2-0.2l0.2-0.2l2.9,2.1L63,61.7l3.4-1.1l3.4-1.1l0.1,0.3L70,60l-3.5,0.8L63,61.7l1.6,3.2
							l1.6,3.2L66,68.2l-0.3,0.1L64.4,65L63,61.7l-3.5,0.8L56,63.4l0.1,0.3l0.1,0.3l3.4-1.1L63,61.7l2.6,2.5l2.6,2.5l0.2-0.2
							l0.2-0.2l-2.8-2.2L63,61.7l3.5-0.6l3.5-0.6l0,0.3l0,0.3l-3.6,0.3L63,61.7l0.1-3.6l0.1-3.6H63h-0.3l0.1,3.6L63,61.7L59.4,62
							l-3.6,0.3l0,0.3l0,0.3l3.5-0.6L63,61.7l-2.8-2.2l-2.8-2.2l0.2-0.2l0.2-0.2l2.6,2.5L63,61.7l3.6-0.1l3.6-0.1l0,0.3l0,0.3
							l-3.6-0.2L63,61.7l-1.3-3.3L60.3,55L60,55.2l-0.3,0.1l1.6,3.2L63,61.7l-3.6-0.2l-3.6-0.2l0,0.3l0,0.3l3.6-0.1L63,61.7l2.2,2.8
							l2.2,2.8l0.2-0.2l0.2-0.2l-2.4-2.6L63,61.7l3.6,0.4l3.6,0.4l0,0.3l0,0.3l-3.5-0.7L63,61.7L63,61.7z"/>
						<g>
							<path fill="none" stroke="#800080" stroke-width="8.561400e-02" stroke-miterlimit="2.4142" d="M63,60c2.4,0,4.3,1.8,4.3,4.1
								c0,2.3-1.9,4.1-4.3,4.1c-2.4,0-4.3-1.8-4.3-4.1C58.7,61.9,60.6,60,63,60z"/>
							<path fill="none" stroke="#0000FF" stroke-width="8.727100e-02" stroke-miterlimit="2.4142" d="M63,59.9
								c2.4,0,4.4,1.9,4.4,4.2c0,2.3-2,4.2-4.4,4.2c-2.4,0-4.4-1.9-4.4-4.2C58.6,61.8,60.6,59.9,63,59.9z"/>
							<path fill="none" stroke="#00CCFF" stroke-width="8.905800e-02" stroke-miterlimit="2.4142" d="M63,59.9
								c2.5,0,4.5,1.9,4.5,4.3c0,2.4-2,4.3-4.5,4.3c-2.5,0-4.5-1.9-4.5-4.3C58.5,61.8,60.5,59.9,63,59.9z"/>
							<path fill="none" stroke="#00FF00" stroke-width="9.084000e-02" stroke-miterlimit="2.4142" d="M63,59.8
								c2.5,0,4.6,1.9,4.6,4.3c0,2.4-2,4.3-4.6,4.3c-2.5,0-4.6-1.9-4.6-4.3C58.4,61.7,60.5,59.8,63,59.8z"/>
							<path fill="none" stroke="#FFFF00" stroke-width="9.286300e-02" stroke-miterlimit="2.4142" d="M63,59.7c2.6,0,4.7,2,4.7,4.4
								c0,2.5-2.1,4.4-4.7,4.4c-2.6,0-4.7-2-4.7-4.4C58.3,61.7,60.4,59.7,63,59.7z"/>
							<path fill="none" stroke="#FF6600" stroke-width="9.476900e-02" stroke-miterlimit="2.4142" d="M63,59.6c2.6,0,4.8,2,4.8,4.5
								c0,2.5-2.1,4.5-4.8,4.5c-2.6,0-4.8-2-4.8-4.5C58.2,61.6,60.4,59.6,63,59.6z"/>
							<path fill="none" stroke="#FF0000" stroke-width="9.664800e-02" stroke-miterlimit="2.4142" d="M63,59.5
								c2.7,0,4.9,2.1,4.9,4.6c0,2.6-2.2,4.6-4.9,4.6c-2.7,0-4.9-2.1-4.9-4.6C58.1,61.6,60.3,59.5,63,59.5z"/>
						</g>
						<path fill-rule="evenodd" clip-rule="evenodd" fill="#00265F" d="M57.3,64c1.9,0,3.8,0,5.7,0c1.9,0,3.8,0,5.7,0c0,0,0,0,0,0.1
							c-1.9,0-3.8,0-5.8,0C61.1,64.1,59.2,64.1,57.3,64C57.3,64.1,57.3,64.1,57.3,64L57.3,64z"/>
						<path fill-rule="evenodd" clip-rule="evenodd" fill="#F8F8F8" d="M57.2,64.2c1.9,0,3.9,0,5.8,0c1.9,0,3.9,0,5.8,0
							c0,0,0,0,0-0.1c-1.9,0-3.8,0-5.8,0C61.1,64.1,59.2,64.1,57.2,64.2C57.3,64.1,57.3,64.1,57.2,64.2L57.2,64.2z"/>
						<path fill-rule="evenodd" clip-rule="evenodd" fill="#00265F" d="M57.2,64.2c1.9,0,3.9,0,5.8,0c1.9,0,3.9,0,5.8,0
							c0,0,0,0,0,0.1c-1.9,0-3.9,0-5.8,0C61.1,64.2,59.2,64.2,57.2,64.2C57.2,64.2,57.2,64.2,57.2,64.2L57.2,64.2z"/>
						<path fill-rule="evenodd" clip-rule="evenodd" fill="#F8F8F8" d="M57.2,64.3c1.9,0,3.9,0,5.9,0c1.9,0,3.9,0,5.8,0
							c0,0,0,0,0-0.1c-1.9,0-3.9,0-5.8,0C61.1,64.2,59.2,64.2,57.2,64.3C57.2,64.2,57.2,64.3,57.2,64.3L57.2,64.3z"/>
						<path fill-rule="evenodd" clip-rule="evenodd" fill="#00265F" d="M57.2,64.3c1.9,0,3.9,0,5.9,0c1.9,0,3.9,0,5.8,0
							c0,0,0,0,0,0.1c-2,0-3.9,0-5.9,0C61.1,64.3,59.1,64.3,57.2,64.3C57.2,64.3,57.2,64.3,57.2,64.3L57.2,64.3z"/>
						<path fill-rule="evenodd" clip-rule="evenodd" fill="#F8F8F8" d="M57.1,64.4c2,0,3.9,0,5.9,0c2,0,3.9,0,5.9,0c0,0,0,0,0-0.1
							c-2,0-3.9,0-5.9,0C61.1,64.3,59.1,64.3,57.1,64.4C57.2,64.4,57.1,64.4,57.1,64.4L57.1,64.4z"/>
						<path fill-rule="evenodd" clip-rule="evenodd" fill="#00265F" d="M57.1,64.4c2,0,3.9,0,5.9,0c2,0,3.9,0,5.9,0c0,0,0,0,0,0.1
							c-2,0-3.9,0-5.9,0C61.1,64.5,59.1,64.5,57.1,64.4C57.1,64.4,57.1,64.4,57.1,64.4L57.1,64.4z"/>
						<path fill-rule="evenodd" clip-rule="evenodd" fill="#F8F8F8" d="M57.1,64.5c2,0,4,0,6,0c2,0,4,0,5.9,0c0,0,0,0,0-0.1
							c-2,0-3.9,0-5.9,0C61.1,64.5,59.1,64.5,57.1,64.5C57.1,64.5,57.1,64.5,57.1,64.5L57.1,64.5z"/>
						<path fill-rule="evenodd" clip-rule="evenodd" fill="#00265F" d="M57.1,64.5c2,0,4,0,6,0c2,0,4,0,5.9,0c0,0,0,0,0,0.1
							c-2,0-4,0-6,0C61,64.6,59,64.6,57.1,64.5C57.1,64.6,57.1,64.5,57.1,64.5L57.1,64.5z"/>
						<path fill-rule="evenodd" clip-rule="evenodd" fill="#F8F8F8" d="M57,64.6c2,0,4,0,6,0c2,0,4,0,6,0c0,0,0,0,0-0.1
							c-2,0-4,0-6,0C61,64.6,59,64.6,57,64.6C57,64.6,57,64.6,57,64.6L57,64.6z"/>
						<path fill-rule="evenodd" clip-rule="evenodd" fill="#00265F" d="M57,64.6c2,0,4,0,6,0c2,0,4,0,6,0c0,0,0,0,0,0.1
							c-2,0-4,0-6,0C61,64.7,59,64.7,57,64.6C57,64.7,57,64.7,57,64.6L57,64.6z"/>
						<path fill-rule="evenodd" clip-rule="evenodd" fill="#F8F8F8" d="M57,64.8c2,0,4.1,0,6.1,0c2,0,4,0,6.1,0c0,0,0,0,0-0.1
							c-2,0-4,0-6,0C61,64.7,59,64.7,57,64.8C57,64.7,57,64.7,57,64.8L57,64.8z"/>
						<path fill-rule="evenodd" clip-rule="evenodd" fill="#00265F" d="M57,64.8c2,0,4.1,0,6.1,0c2,0,4,0,6.1,0c0,0,0,0,0,0.1
							c-2,0-4.1,0-6.1,0C61,64.8,59,64.8,57,64.8C56.9,64.8,56.9,64.8,57,64.8L57,64.8z"/>
						<path fill-rule="evenodd" clip-rule="evenodd" fill="#F8F8F8" d="M56.9,64.9c2,0,4.1,0,6.1,0c2,0,4.1,0,6.1,0c0,0,0,0,0-0.1
							c-2,0-4.1,0-6.1,0C61,64.8,59,64.8,56.9,64.9C56.9,64.8,56.9,64.9,56.9,64.9L56.9,64.9z"/>
						<path fill-rule="evenodd" clip-rule="evenodd" fill="#00265F" d="M56.9,64.9c2,0,4.1,0,6.1,0c2,0,4.1,0,6.1,0c0,0,0,0,0,0.1
							c-2.1,0-4.1,0-6.2,0C61,65,58.9,65,56.9,64.9C56.9,64.9,56.9,64.9,56.9,64.9L56.9,64.9z"/>
						<path fill-rule="evenodd" clip-rule="evenodd" fill="#F8F8F8" d="M56.8,65c2.1,0,4.1,0,6.2,0c2.1,0,4.1,0,6.2,0c0,0,0,0,0-0.1
							c-2.1,0-4.1,0-6.2,0C61,65,58.9,65,56.8,65C56.9,65,56.8,65,56.8,65L56.8,65z"/>
						<path fill-rule="evenodd" clip-rule="evenodd" fill="#00265F" d="M56.8,65c2.1,0,4.1,0,6.2,0c2.1,0,4.1,0,6.2,0c0,0,0,0,0,0.1
							c-2.1,0-4.1,0-6.2,0C61,65.1,58.9,65.1,56.8,65C56.8,65.1,56.8,65,56.8,65L56.8,65z"/>
						<path fill-rule="evenodd" clip-rule="evenodd" fill="#F8F8F8" d="M56.8,65.2c2.1,0,4.2,0,6.3,0c2.1,0,4.2,0,6.3,0
							c0,0,0,0,0-0.1c-2.1,0-4.1,0-6.2,0C61,65.1,58.9,65.1,56.8,65.2C56.8,65.1,56.8,65.1,56.8,65.2L56.8,65.2z"/>
						<path fill-rule="evenodd" clip-rule="evenodd" fill="#00265F" d="M56.8,65.2c2.1,0,4.2,0,6.3,0c2.1,0,4.2,0,6.3,0
							c0,0,0,0,0,0.1c-2.1,0-4.2,0-6.3,0C60.9,65.2,58.8,65.2,56.8,65.2C56.7,65.2,56.8,65.2,56.8,65.2L56.8,65.2z"/>
						<path fill-rule="evenodd" clip-rule="evenodd" fill="#F8F8F8" d="M56.7,65.3c2.1,0,4.2,0,6.3,0c2.1,0,4.2,0,6.3,0
							c0,0,0,0,0-0.1c-2.1,0-4.2,0-6.3,0C60.9,65.2,58.8,65.2,56.7,65.3C56.7,65.2,56.7,65.3,56.7,65.3L56.7,65.3z"/>
						<path fill-rule="evenodd" clip-rule="evenodd" fill="#00265F" d="M56.7,65.3c2.1,0,4.2,0,6.3,0c2.1,0,4.2,0,6.3,0
							c0,0,0,0,0,0.1c-2.1,0-4.2,0-6.3,0C60.9,65.4,58.8,65.4,56.7,65.3C56.7,65.3,56.7,65.3,56.7,65.3L56.7,65.3z"/>
						<path fill-rule="evenodd" clip-rule="evenodd" fill="#F8F8F8" d="M56.6,65.4c2.1,0,4.3,0,6.4,0c2.1,0,4.3,0,6.4,0
							c0,0,0,0,0-0.1c-2.1,0-4.2,0-6.3,0C60.9,65.4,58.8,65.4,56.6,65.4C56.7,65.4,56.7,65.4,56.6,65.4L56.6,65.4z"/>
						<path fill-rule="evenodd" clip-rule="evenodd" fill="#00265F" d="M56.6,65.4c2.1,0,4.3,0,6.4,0c2.1,0,4.3,0,6.4,0
							c0,0,0,0,0,0.1c-2.1,0-4.3,0-6.4,0C60.9,65.5,58.7,65.5,56.6,65.4C56.6,65.5,56.6,65.5,56.6,65.4L56.6,65.4z"/>
						<path fill-rule="evenodd" clip-rule="evenodd" fill="#F8F8F8" d="M56.6,65.6c2.2,0,4.3,0,6.5,0c2.2,0,4.3,0,6.4,0
							c0,0,0,0,0-0.1c-2.1,0-4.3,0-6.4,0C60.9,65.5,58.7,65.5,56.6,65.6C56.6,65.5,56.6,65.5,56.6,65.6L56.6,65.6z"/>
						<path fill-rule="evenodd" clip-rule="evenodd" fill="#00265F" d="M56.6,65.6c2.2,0,4.3,0,6.5,0c2.2,0,4.3,0,6.4,0
							c0,0,0,0.1,0,0.1c-2.2,0-4.3,0-6.5,0C60.9,65.6,58.7,65.6,56.6,65.6C56.5,65.6,56.6,65.6,56.6,65.6L56.6,65.6z"/>
						<path fill-rule="evenodd" clip-rule="evenodd" fill="#F8F8F8" d="M56.5,65.7c2.2,0,4.4,0,6.5,0c2.2,0,4.3,0,6.5,0
							c0,0,0,0,0-0.1c-2.2,0-4.3,0-6.5,0C60.9,65.6,58.7,65.6,56.5,65.7C56.5,65.7,56.5,65.7,56.5,65.7L56.5,65.7z"/>
						<path fill-rule="evenodd" clip-rule="evenodd" fill="#00265F" d="M56.5,65.7c2.2,0,4.4,0,6.5,0c2.2,0,4.3,0,6.5,0
							c0,0,0,0.1,0,0.1c-2.2,0-4.4,0-6.6,0C60.8,65.8,58.7,65.8,56.5,65.7C56.5,65.8,56.5,65.7,56.5,65.7L56.5,65.7z"/>
						<path fill-rule="evenodd" clip-rule="evenodd" fill="#F8F8F8" d="M56.4,65.9c2.2,0,4.4,0,6.6,0c2.2,0,4.4,0,6.6,0
							c0,0,0-0.1,0-0.1c-2.2,0-4.4,0-6.5,0C60.8,65.8,58.7,65.8,56.4,65.9C56.5,65.8,56.4,65.8,56.4,65.9L56.4,65.9z"/>
						<path fill-rule="evenodd" clip-rule="evenodd" fill="#00265F" d="M56.4,65.9c2.2,0,4.4,0,6.6,0c2.2,0,4.4,0,6.6,0
							c0,0,0,0.1,0,0.1c-2.2,0-4.4,0-6.6,0C60.8,65.9,58.6,65.9,56.4,65.9C56.4,65.9,56.4,65.9,56.4,65.9L56.4,65.9z"/>
						<path fill-rule="evenodd" clip-rule="evenodd" fill="#F8F8F8" d="M56.4,66c2.2,0,4.4,0,6.7,0c2.2,0,4.4,0,6.7,0
							c0,0,0-0.1,0-0.1c-2.2,0-4.4,0-6.6,0C60.8,65.9,58.6,65.9,56.4,66C56.4,66,56.4,66,56.4,66L56.4,66z"/>
						<path fill-rule="evenodd" clip-rule="evenodd" fill="#00265F" d="M56.4,66c2.2,0,4.4,0,6.7,0c2.2,0,4.4,0,6.7,0
							c0,0,0,0.1,0,0.1c-2.2,0-4.5,0-6.7,0C60.8,66.1,58.6,66.1,56.4,66C56.3,66.1,56.3,66,56.4,66L56.4,66z"/>
						<path fill-rule="evenodd" clip-rule="evenodd" fill="#F8F8F8" d="M56.3,66.2c2.3,0,4.5,0,6.7,0c2.2,0,4.5,0,6.7,0
							c0,0,0-0.1,0-0.1c-2.2,0-4.5,0-6.7,0C60.8,66.1,58.6,66.1,56.3,66.2C56.3,66.1,56.3,66.1,56.3,66.2L56.3,66.2z"/>
						<path fill-rule="evenodd" clip-rule="evenodd" fill="#00265F" d="M56.3,66.2c2.3,0,4.5,0,6.7,0c2.2,0,4.5,0,6.7,0
							c0,0,0,0.1,0,0.1c-2.3,0-4.5,0-6.8,0C60.8,66.2,58.5,66.2,56.3,66.2C56.3,66.2,56.3,66.2,56.3,66.2L56.3,66.2z"/>
						<path fill-rule="evenodd" clip-rule="evenodd" fill="#F8F8F8" d="M56.2,66.3c2.3,0,4.5,0,6.8,0c2.3,0,4.5,0,6.8,0
							c0,0,0-0.1,0-0.1c-2.3,0-4.5,0-6.8,0C60.8,66.2,58.5,66.2,56.2,66.3C56.2,66.3,56.2,66.3,56.2,66.3L56.2,66.3z"/>
						<path fill-rule="evenodd" clip-rule="evenodd" fill="#00265F" d="M56.2,66.3c2.3,0,4.5,0,6.8,0c2.3,0,4.5,0,6.8,0
							c0,0,0,0.1,0,0.1c-2.3,0-4.6,0-6.8,0C60.7,66.4,58.5,66.4,56.2,66.3C56.2,66.4,56.2,66.4,56.2,66.3L56.2,66.3z"/>
						<path fill-rule="evenodd" clip-rule="evenodd" fill="#F8F8F8" d="M56.1,66.5c2.3,0,4.6,0,6.9,0c2.3,0,4.6,0,6.9,0
							c0,0,0-0.1,0-0.1c-2.3,0-4.6,0-6.8,0C60.7,66.4,58.5,66.4,56.1,66.5C56.2,66.4,56.1,66.5,56.1,66.5L56.1,66.5z"/>
						<path fill-rule="evenodd" clip-rule="evenodd" fill="#00265F" d="M56.1,66.5c2.3,0,4.6,0,6.9,0c2.3,0,4.6,0,6.9,0
							c0,0,0,0.1,0,0.1c-2.3,0-4.6,0-6.9,0C60.7,66.6,58.4,66.6,56.1,66.5C56.1,66.5,56.1,66.5,56.1,66.5L56.1,66.5z"/>
						<path fill-rule="evenodd" clip-rule="evenodd" fill="#F8F8F8" d="M56.1,66.7c2.3,0,4.7,0,7,0c2.3,0,4.6,0,7,0c0,0,0-0.1,0-0.1
							c-2.3,0-4.6,0-6.9,0C60.7,66.6,58.4,66.6,56.1,66.7C56.1,66.6,56.1,66.6,56.1,66.7L56.1,66.7z"/>
						<path fill-rule="evenodd" clip-rule="evenodd" fill="#00265F" d="M56.1,66.7c2.3,0,4.7,0,7,0c2.3,0,4.6,0,7,0c0,0,0,0.1,0,0.1
							c-2.3,0-4.7,0-7,0C60.7,66.7,58.4,66.7,56.1,66.7C56,66.7,56,66.7,56.1,66.7L56.1,66.7z"/>
						<path fill-rule="evenodd" clip-rule="evenodd" fill="#F8F8F8" d="M56,66.8c2.4,0,4.7,0,7.1,0c2.3,0,4.7,0,7,0c0,0,0-0.1,0-0.1
							c-2.3,0-4.7,0-7,0C60.7,66.7,58.4,66.7,56,66.8C56,66.8,56,66.8,56,66.8L56,66.8z"/>
						<path fill-rule="evenodd" clip-rule="evenodd" fill="#00265F" d="M56,66.8c2.4,0,4.7,0,7.1,0c2.3,0,4.7,0,7,0c0,0,0,0.1,0,0.1
							c-2.4,0-4.7,0-7.1,0C60.7,66.9,58.3,66.9,56,66.8C55.9,66.9,56,66.9,56,66.8L56,66.8z"/>
						<path fill-rule="evenodd" clip-rule="evenodd" fill="#F8F8F8" d="M55.9,67c2.4,0,4.8,0,7.1,0c2.4,0,4.7,0,7.1,0
							c0,0,0-0.1,0-0.1c-2.4,0-4.7,0-7.1,0C60.7,66.9,58.3,66.9,55.9,67C55.9,66.9,55.9,67,55.9,67L55.9,67z"/>
						<path fill-rule="evenodd" clip-rule="evenodd" fill="#00265F" d="M55.9,67c2.4,0,4.8,0,7.1,0c2.4,0,4.7,0,7.1,0
							c0,0,0,0.1,0,0.1c-2.4,0-4.8,0-7.2,0C60.6,67.1,58.2,67.1,55.9,67C55.9,67.1,55.9,67,55.9,67L55.9,67z"/>
						<path fill-rule="evenodd" clip-rule="evenodd" fill="#F8F8F8" d="M55.8,67.2c2.4,0,4.8,0,7.2,0c2.4,0,4.8,0,7.2,0
							c0,0,0-0.1,0-0.1c-2.4,0-4.8,0-7.2,0C60.6,67.1,58.2,67.1,55.8,67.2C55.8,67.1,55.8,67.1,55.8,67.2L55.8,67.2z"/>
						<path fill-rule="evenodd" clip-rule="evenodd" fill="#00265F" d="M55.8,67.2c2.4,0,4.8,0,7.2,0c2.4,0,4.8,0,7.2,0
							c0,0,0,0.1,0,0.1c-2.4,0-4.8,0-7.2,0C60.6,67.3,58.2,67.3,55.8,67.2C55.8,67.2,55.8,67.2,55.8,67.2L55.8,67.2z"/>
						<path fill-rule="evenodd" clip-rule="evenodd" fill="#F8F8F8" d="M55.7,67.4c2.4,0,4.9,0,7.3,0c2.4,0,4.9,0,7.3,0
							c0,0,0-0.1,0-0.1c-2.4,0-4.8,0-7.2,0C60.6,67.3,58.2,67.3,55.7,67.4C55.7,67.3,55.7,67.3,55.7,67.4L55.7,67.4z"/>
						<path fill-rule="evenodd" clip-rule="evenodd" fill="#00265F" d="M55.7,67.4c2.4,0,4.9,0,7.3,0c2.4,0,4.9,0,7.3,0
							c0,0,0,0.1,0,0.1c-2.4,0-4.9,0-7.3,0C60.6,67.4,58.1,67.4,55.7,67.4C55.7,67.4,55.7,67.4,55.7,67.4L55.7,67.4z"/>
						<path fill-rule="evenodd" clip-rule="evenodd" fill="#F8F8F8" d="M55.6,67.5c2.5,0,4.9,0,7.4,0c2.5,0,4.9,0,7.4,0
							c0,0,0-0.1,0-0.1c-2.4,0-4.9,0-7.3,0C60.6,67.4,58.1,67.4,55.6,67.5C55.7,67.5,55.6,67.5,55.6,67.5L55.6,67.5z"/>
						<g>
							<path fill-rule="evenodd" clip-rule="evenodd" fill="#97C924" d="M55.9,66.6c0.1,0,1-0.2,1.3-0.3c0.3-0.1,1.2,0,1.7,0
								c0.4,0,1.1-0.1,1.5-0.2c0.4,0,1,0.1,1.3,0.1c0.3,0,1.1-0.2,1.6-0.2c0.5,0,0.6,0.1,1.1,0.1c0.5,0,0.9-0.2,1.3-0.1
								c0.4,0,1.1,0.1,1.4,0.1c0.4,0,1-0.1,1.3-0.1c0.4,0,1.1,0,1.1,0l-0.2-0.6c0,0-1.1,0-1.8-0.7c-0.7-0.8-0.9-1.4-0.9-1.6
								c-0.1-0.2-0.5-0.2-0.5-0.1c0,0.1-0.3,0.9-0.6,1.3c0,0-0.2-0.3-0.4-0.6C65,63.3,65,63.1,65,63.1c0-0.1-0.1-0.1-0.2-0.1
								c-0.1,0-0.3,0-0.3,0.1c0,0.1-0.2,0.7-0.6,1.2c0,0-0.3-0.3-0.4-0.7c-0.2-0.3-0.2-0.5-0.2-0.6c0-0.1-0.2-0.1-0.2-0.1
								c-0.1,0-0.2,0-0.3,0.1c0,0.1-0.1,0.5-0.6,1.2c0,0-0.2-0.3-0.4-0.7c-0.2-0.4-0.2-0.5-0.2-0.5c0-0.1-0.2-0.1-0.3-0.1
								c-0.1,0-0.2,0-0.3,0.1c0,0.1-0.2,0.6-0.6,1.2c0,0-0.2-0.2-0.4-0.7c-0.2-0.5-0.2-0.5-0.2-0.6c0-0.1-0.2-0.1-0.2-0.1
								c-0.1,0-0.2,0-0.3,0.1c0,0.1-0.3,0.9-0.8,1.6c-0.5,0.6-1.1,1-1.7,1.1C56.2,65.9,55.9,66.4,55.9,66.6L55.9,66.6z"/>
							<path fill-rule="evenodd" clip-rule="evenodd" fill="#EDE71F" d="M66.4,62.9c-0.1,0-0.3,0-0.3,0.1c0,0.1-0.3,0.9-0.6,1.3
								c0.2,0.3,0.6,0.6,0.6,0.6c0-0.1,0.3-0.5,0.3-0.8V62.9L66.4,62.9z M64.7,62.9L64.7,62.9c-0.1,0-0.3,0-0.3,0.1
								c0,0.1-0.2,0.7-0.6,1.2c0,0-0.3-0.3-0.4-0.7c-0.2-0.3-0.2-0.5-0.2-0.6c0,0-0.1-0.1-0.1-0.1c0,0.2,0,0.6,0.2,1
								c0.2,0.6,0.3,0.8,0.6,1.1c0.3,0.3,1.1,0.3,1.3,0.3c0,0-0.3-0.2-0.7-0.4c0.1-0.2,0.2-0.5,0.2-0.7V62.9L64.7,62.9z M62.9,62.9
								c-0.1,0-0.1,0-0.2,0.1c0,0.1-0.1,0.5-0.6,1.2c0,0-0.2-0.3-0.4-0.7c-0.2-0.4-0.2-0.5-0.2-0.5c0-0.1-0.2-0.1-0.3-0.1
								c0,0,0,0,0,0v1.4c0,0.3,0.2,0.7,0.5,1c0.4,0.3,0.9,0.4,1.6,0.4c0,0-1.1-0.7-1.5-1.6c0,0,0.3,0.6,1.3,1.3c0,0,0.2,0,0.3,0
								c0,0-0.6-0.2-1-0.7c0-0.1,0.2-0.3,0.3-0.8C62.9,63.5,62.9,63.1,62.9,62.9L62.9,62.9z M60.5,64.3c0,0-0.2-0.2-0.4-0.7
								c-0.2-0.5-0.2-0.5-0.2-0.6c0-0.1-0.2-0.1-0.2-0.1c0,0,0,0-0.1,0v0.6c0,0.3-0.1,0.9,0.3,1.5c0.4,0.6,1.8,0.6,1.8,0.6
								s-1.1-0.6-1.5-1.6c0,0,0.4,0.7,1.3,1.3c0,0,0.2,0,0.3-0.1C61.8,65.3,61,65,60.5,64.3L60.5,64.3z"/>
							<path fill-rule="evenodd" clip-rule="evenodd" fill="#C6CB24" d="M65.7,64.5c0.1,0.1,0.1,0.1,0.2,0.2
								c0.4-0.6,0.4-1.5,0.4-1.5C66.1,64,65.8,64.4,65.7,64.5L65.7,64.5z M59.7,63.2c0,0,0.1,0.9,0.4,1.5c0.3,0.5,0.6,0.6,0.9,0.6
								C61,65.3,60.2,64.7,59.7,63.2L59.7,63.2z M61.4,63.2c0,0,0.1,2,1.3,2.1C62.7,65.3,61.9,64.7,61.4,63.2L61.4,63.2z M62.9,63.2
								c0,0-0.2,0.7-0.6,1.3c0,0,0,0.1,0.1,0.2c0-0.1,0.2-0.3,0.3-0.8C62.9,63.6,62.9,63.4,62.9,63.2L62.9,63.2z M63.2,63.2
								c0,0,0.1,1.9,1.3,2C64.5,65.2,63.6,64.7,63.2,63.2L63.2,63.2z M64.6,63.2c0,0-0.1,0.9-0.4,1.5L64,64.5
								C64,64.5,64.3,64.2,64.6,63.2L64.6,63.2z"/>
							<path fill-rule="evenodd" clip-rule="evenodd" fill="#93BC30" d="M59.5,63.2c0,0-0.1,0.9-0.6,1.8c-0.5,0.9-1.3,0.7-1.3,0.7
								s0.8-0.4,1-0.8C58.9,64.6,59.2,63.9,59.5,63.2L59.5,63.2z M61.2,63.2c0,0-0.1,0.9-0.4,1.4c-0.1-0.1-0.1-0.1-0.2-0.2
								C60.6,64.4,60.9,64.1,61.2,63.2L61.2,63.2z"/>
						</g>
						<g>
							<path fill-rule="evenodd" clip-rule="evenodd" fill="#FF0F0F" d="M63.2,62.5c0-0.1,0.1-0.2,0.1-0.3c0,0,0.1,0,0.2,0
								c0.1,0,0.1-0.1,0.1-0.1c0-0.1,0-0.4-0.1-0.7C63.3,61.2,63.2,61,63,61c-0.2,0-0.4,0.1-0.5,0.3c-0.1,0.2,0,0.2,0.1,0.2
								c0.1,0,0.1,0,0.1-0.1c0,0,0.1,0,0,0c0,0-0.2,0.2-0.2,0.4c0,0,0,0,0.1,0.1c0.1,0,0.1,0.1,0.3,0.2c0.1,0.1,0.1,0.1,0.1,0.2
								c0,0.1,0,0.3,0.1,0.3C63.1,62.6,63.1,62.6,63.2,62.5L63.2,62.5z"/>
							<path fill-rule="evenodd" clip-rule="evenodd" fill="#930000" d="M62.5,61.5C62.5,61.5,62.5,61.5,62.5,61.5
								c0.1,0,0.1,0,0.2,0s0.1,0,0,0c0,0-0.2,0.2-0.2,0.4c0,0,0,0,0,0c0,0,0.1,0,0.1,0c0.1,0,0.2,0,0.2,0.1c0-0.1,0-0.2,0.1-0.3
								c0-0.1,0-0.3,0-0.4s0.1-0.1,0-0.1s0,0-0.1,0.1c-0.1,0-0.1,0-0.2,0C62.6,61.4,62.6,61.4,62.5,61.5L62.5,61.5z"/>
							<path fill-rule="evenodd" clip-rule="evenodd" fill="#510000" d="M62.5,61.9C62.5,61.9,62.5,61.9,62.5,61.9
								c0.1,0.1,0.2,0.1,0.3,0.2c0.1,0.1,0.1,0.1,0.1,0.2c0,0.1,0,0.3,0.1,0.3c0,0,0-0.1,0-0.1c0-0.1,0-0.2,0-0.3
								c0-0.1-0.3-0.2-0.4-0.2C62.5,61.9,62.5,61.9,62.5,61.9L62.5,61.9z M63.3,62.2C63.3,62.2,63.3,62.2,63.3,62.2
								c0.1-0.1,0.2-0.1,0.2-0.1c0,0,0.1,0,0.1,0C63.5,62.1,63.3,62.1,63.3,62.2L63.3,62.2L63.3,62.2z"/>
						</g>
					</g>
					
						<use xlink:href="#SVGID_1_"  overflow="visible" fill-rule="evenodd" clip-rule="evenodd" fill="none" stroke="#C8A400" stroke-width="0.1671" stroke-miterlimit="2.4142"/>
				</g>
				<g>
					<path fill="#C8A400" d="M54,65.7l0.1,0L54,65.2l-0.1,0L54,65.7L54,65.7z M53.1,63.2l0-0.7c0,0,0-0.1,0-0.1c0,0,0-0.1,0.1-0.1
						c0,0,0.1,0,0.1,0c0.1,0,0.1,0,0.1,0c0,0,0.1,0,0.1,0.1c0,0,0,0.1,0,0.1l0,0.7L53.1,63.2L53.1,63.2z M53.7,63.3l0-0.8
						c0,0,0-0.1,0-0.1c0,0,0,0,0.1-0.1s0.1,0,0.1,0l0.3,0l0-0.1l-0.3,0c-0.1,0-0.1,0-0.1,0c0,0-0.1,0-0.1,0c0,0,0,0,0,0.1
						c0,0,0,0,0-0.1c0,0,0,0,0-0.1c0,0,0,0-0.1,0c0,0-0.1,0-0.1,0c0,0-0.1,0-0.1,0c0,0-0.1,0-0.1,0.1c0,0-0.1,0.1-0.1,0.1
						c0,0,0,0.1,0,0.2l0,0.8l1.1,0l0-0.1L53.7,63.3L53.7,63.3z M54.2,62l0.2-1l-0.1,0l-0.2,0.8l-0.4-0.1l0.2-0.8l-0.1,0l-0.2,0.8
						l-0.4-0.1l0.2-0.8l-0.1,0l-0.2,1L54.2,62L54.2,62z M54.1,60.6l0.2-0.6c0-0.1,0-0.1,0-0.2c0-0.1,0-0.1,0-0.1c0,0,0-0.1-0.1-0.1
						c0,0-0.1-0.1-0.1-0.1c-0.1,0-0.1,0-0.2,0c-0.1,0-0.1,0-0.1,0.1c0,0-0.1,0.1-0.1,0.2l-0.2,0.7l1,0.4l0-0.1L54.1,60.6L54.1,60.6z
						 M53.5,60.4l0.2-0.6c0-0.1,0-0.1,0.1-0.1c0,0,0.1,0,0.1-0.1c0,0,0.1,0,0.1,0c0,0,0.1,0,0.1,0c0,0,0,0,0,0.1c0,0,0,0,0,0.1
						c0,0,0,0.1,0,0.1l-0.2,0.6L53.5,60.4L53.5,60.4z M53.9,59.1l0.6,0.3c0.1,0,0.1,0.1,0.2,0.1c0.1,0,0.1,0,0.1,0
						c0,0,0.1,0,0.1-0.1c0,0,0.1-0.1,0.1-0.2l0.2-0.4c0,0,0-0.1,0.1-0.1c0,0,0-0.1,0-0.1c0,0,0-0.1,0-0.1c0,0,0-0.1-0.1-0.1
						c0,0-0.1-0.1-0.1-0.1L54.5,58l-0.1,0.1l0.7,0.4c0,0,0.1,0.1,0.1,0.1c0,0,0,0.1,0,0.1c0,0,0,0.1-0.1,0.2L55,59.2
						c0,0.1-0.1,0.1-0.1,0.1c0,0-0.1,0-0.1,0.1c0,0-0.1,0-0.1,0c0,0-0.1,0-0.1,0L53.9,59L53.9,59.1L53.9,59.1z M54.9,57.6l0.5-0.6
						c0,0,0.1-0.1,0.1-0.1c0,0,0.1,0,0.1,0c0,0,0.1,0,0.1,0c0,0,0.1,0.1,0.1,0.1c0,0,0,0.1,0,0.1c0,0,0,0.1-0.1,0.1l-0.5,0.6
						L54.9,57.6L54.9,57.6z M55.6,58.3l0.5-0.7c0-0.1,0.1-0.1,0.1-0.1c0,0,0-0.1,0-0.1c0,0,0-0.1,0-0.1c0,0-0.1-0.1-0.1-0.1
						c0,0-0.1,0-0.1-0.1c0,0-0.1,0-0.1,0c0,0,0,0-0.1,0c0,0,0,0,0,0c0,0,0,0,0,0c0,0,0,0,0,0c0,0,0,0,0-0.1c0,0,0,0,0-0.1
						c0,0,0-0.1-0.1-0.1c0,0-0.1-0.1-0.1-0.1c-0.1,0-0.1,0-0.2,0c-0.1,0-0.1,0.1-0.2,0.1l-0.5,0.6L55.6,58.3L55.6,58.3z M55.2,57.9
						l0.5-0.6c0,0,0.1-0.1,0.1-0.1c0,0,0.1,0,0.1,0c0,0,0.1,0,0.1,0.1c0,0,0.1,0.1,0.1,0.1c0,0,0,0.1,0,0.1c0,0,0,0.1-0.1,0.1
						l-0.5,0.6L55.2,57.9L55.2,57.9z M55.8,56.3L55.8,56.3l0.7,0.9l0.7-0.6l-0.1-0.1l-0.6,0.6L55.8,56.3L55.8,56.3z M56.7,55.5
						L56.7,55.5l0.6,0.9l0.1-0.1L56.7,55.5L56.7,55.5z M58.4,55.3c0,0,0,0.1,0,0.1c0,0,0,0.1,0,0.1c0,0-0.1,0.1-0.1,0.1l-0.4,0.3
						c0,0-0.1,0.1-0.1,0.1c0,0-0.1,0-0.1,0c0,0-0.1,0-0.1,0c0,0-0.1-0.1-0.1-0.1l-0.2-0.3c0,0-0.1-0.1-0.1-0.1c0,0,0-0.1,0-0.1
						c0,0,0-0.1,0.1-0.1c0,0,0.1-0.1,0.1-0.1l0.4-0.3c0,0,0.1,0,0.1-0.1c0,0,0.1,0,0.1,0c0,0,0.1,0,0.1,0c0,0,0,0,0.1,0.1l0.1-0.1
						c-0.1-0.1-0.1-0.1-0.2-0.1c-0.1,0-0.2,0-0.3,0.1L57.3,55c-0.1,0-0.1,0.1-0.1,0.1c0,0-0.1,0.1-0.1,0.1c0,0,0,0.1,0,0.1
						c0,0.1,0,0.1,0.1,0.2l0.2,0.3c0,0.1,0.1,0.1,0.1,0.1c0,0,0.1,0.1,0.1,0.1c0,0,0.1,0,0.1,0c0.1,0,0.1,0,0.2-0.1l0.4-0.3
						c0.1,0,0.1-0.1,0.1-0.1c0,0,0.1-0.1,0.1-0.1c0,0,0-0.1,0-0.1C58.6,55.3,58.5,55.3,58.4,55.3L58.4,55.3L58.4,55.3z M58.9,55.4
						l0-0.3l0.7-0.3l0.2,0.2l0.1-0.1l-1-0.8l-0.2,0.1l-0.1,1.2L58.9,55.4L58.9,55.4z M58.9,54.9l0-0.7l0.6,0.4L58.9,54.9L58.9,54.9z
						 M61.7,54.3l-0.1-0.9l0.7-0.1c0.1,0,0.1,0,0.1,0c0,0,0.1,0,0.1,0c0,0,0,0.1,0,0.1c0,0,0,0.1,0,0.1l0,0.3c0,0.1,0,0.1,0,0.1
						c0,0,0,0.1,0,0.1c0,0,0,0-0.1,0.1s-0.1,0-0.1,0L61.7,54.3L61.7,54.3z M61.5,53.3l0.1,1.1l0.9-0.1c0.1,0,0.1,0,0.2,0
						c0,0,0.1,0,0.1-0.1c0,0,0-0.1,0.1-0.1c0-0.1,0-0.1,0-0.2l0-0.3c0-0.1,0-0.1,0-0.2c0-0.1,0-0.1-0.1-0.1c0,0-0.1,0-0.1-0.1
						c-0.1,0-0.1,0-0.2,0L61.5,53.3L61.5,53.3z M63,54.3l1,0.1l0-0.1l-0.9-0.1l0-0.4l0.8,0.1l0-0.1l-0.8-0.1l0-0.4l0.9,0.1l0-0.1
						l-1-0.1L63,54.3L63,54.3z M66,53.7l-0.4,1l0.1,0l0.4-1l0.1,0l0.5,1.3l0.2,0.1l0.4-1l-0.1,0L66.7,55l-0.4-1.2L66,53.7L66,53.7z
						 M67.6,54.4l-0.1-0.1l-0.5,1l0.1,0.1L67.6,54.4L67.6,54.4z M68.5,55.8C68.5,55.9,68.4,55.9,68.5,55.8c-0.1,0.1-0.2,0.1-0.2,0.1
						c0,0-0.1,0-0.2-0.1l-0.4-0.3c0,0-0.1-0.1-0.1-0.1s0-0.1-0.1-0.1c0,0,0-0.1,0-0.1c0,0,0-0.1,0.1-0.1l0.2-0.3
						c0,0,0.1-0.1,0.1-0.1c0,0,0.1,0,0.1-0.1c0,0,0.1,0,0.1,0c0,0,0.1,0,0.1,0.1l0.4,0.3c0,0,0.1,0.1,0.1,0.1c0,0,0,0.1,0.1,0.1
						c0,0,0,0.1,0,0.1c0,0,0,0.1,0,0.1l0.1,0.1c0.1-0.1,0.1-0.2,0-0.3c0-0.1-0.1-0.2-0.2-0.2l-0.4-0.3c-0.1,0-0.1-0.1-0.2-0.1
						c-0.1,0-0.1,0-0.1,0c0,0-0.1,0-0.1,0.1c0,0-0.1,0.1-0.1,0.1l-0.2,0.3c0,0.1-0.1,0.1-0.1,0.2c0,0.1,0,0.1,0,0.1
						c0,0,0,0.1,0.1,0.1c0,0,0.1,0.1,0.1,0.1l0.4,0.3c0.1,0,0.1,0.1,0.2,0.1c0.1,0,0.1,0,0.1,0c0,0,0.1,0,0.1,0
						C68.5,56,68.5,55.9,68.5,55.8L68.5,55.8L68.5,55.8z M68.6,56.3l0.3-0.1l0.6,0.5L69.4,57l0.1,0.1l0.3-1.2l-0.1-0.1L68.6,56.3
						L68.6,56.3L68.6,56.3z M69,56.2l0.7-0.2l-0.2,0.7L69,56.2L69,56.2z M70.4,56.7l0.5,0.6c0,0,0,0.1,0.1,0.1c0,0,0,0.1,0,0.1
						c0,0,0,0.1-0.1,0.1c0,0-0.1,0.1-0.1,0.1c0,0-0.1,0-0.1,0c0,0-0.1,0-0.1-0.1l-0.5-0.6L70.4,56.7L70.4,56.7z M70,57l0.5,0.6
						c0,0,0,0.1,0,0.1c0,0,0,0.1,0,0.1c0,0,0,0.1-0.1,0.1L70.2,58l0.1,0.1l0.2-0.2c0,0,0.1-0.1,0.1-0.1c0,0,0-0.1,0-0.1
						c0,0,0-0.1,0-0.1c0,0,0,0,0.1,0c0,0,0,0,0.1,0c0,0,0.1,0,0.1,0c0,0,0.1,0,0.1-0.1c0,0,0.1-0.1,0.1-0.1c0,0,0-0.1,0-0.1
						c0,0,0-0.1,0-0.1c0,0-0.1-0.1-0.1-0.2l-0.5-0.6l-0.9,0.7l0.1,0.1L70,57L70,57z M70.4,58.3l0.3,0l0.4,0.7l-0.2,0.3l0.1,0.1
						l0.7-1l-0.1-0.2l-1.2,0.1L70.4,58.3L70.4,58.3z M70.8,58.3l0.7,0l-0.4,0.6L70.8,58.3L70.8,58.3z M71.8,59.8l-0.1,0l0.2,0.5l0,0
						c-0.1,0-0.1,0-0.1,0c0,0-0.1,0-0.1,0c0,0,0,0-0.1-0.1c0,0,0-0.1-0.1-0.1l-0.2-0.5c0-0.1,0-0.1,0-0.1c0,0,0-0.1,0-0.1
						c0,0,0-0.1,0.1-0.1c0,0,0.1,0,0.1-0.1l0.3-0.1c0.1,0,0.1,0,0.1,0c0,0,0.1,0,0.1,0c0,0,0.1,0,0.1,0.1c0,0,0,0.1,0.1,0.1l0.2,0.5
						c0,0.1,0,0.1,0,0.1c0,0,0,0.1,0,0.1c0,0,0,0,0,0.1c0,0,0,0-0.1,0l0,0.1c0.1,0,0.2-0.1,0.2-0.2c0-0.1,0-0.2,0-0.3l-0.2-0.5
						c0-0.1-0.1-0.1-0.1-0.2c0,0-0.1-0.1-0.1-0.1c0,0-0.1,0-0.1,0c-0.1,0-0.1,0-0.2,0l-0.3,0.1c-0.1,0-0.1,0.1-0.2,0.1
						c0,0-0.1,0.1-0.1,0.1c0,0,0,0.1,0,0.1c0,0.1,0,0.1,0.1,0.2l0.2,0.5c0,0.1,0.1,0.1,0.1,0.2c0,0,0.1,0.1,0.1,0.1c0,0,0.1,0,0.1,0
						c0.1,0,0.1,0,0.2-0.1l0.1,0L71.8,59.8L71.8,59.8z M72.6,60.5l-0.7,0.2c-0.1,0-0.1,0-0.2,0.1c0,0-0.1,0.1-0.1,0.1
						c0,0,0,0.1,0,0.1c0,0.1,0,0.1,0,0.2l0.1,0.5c0,0.1,0,0.1,0,0.1c0,0,0,0.1,0.1,0.1c0,0,0.1,0,0.1,0.1c0,0,0.1,0,0.1,0
						c0,0,0.1,0,0.2,0l0.7-0.2l0-0.1l-0.7,0.2c0,0-0.1,0-0.1,0c0,0-0.1,0-0.1-0.1c0,0,0-0.1-0.1-0.2l-0.1-0.5c0-0.1,0-0.1,0-0.1
						c0,0,0-0.1,0-0.1c0,0,0,0,0.1-0.1c0,0,0.1,0,0.1,0l0.7-0.2L72.6,60.5L72.6,60.5z M71.8,62.3l0.3,0.1l0,0.8l-0.3,0.2l0,0.1
						l1.1-0.6l0-0.2l-1.1-0.5L71.8,62.3L71.8,62.3z M72.2,62.5l0.6,0.3l-0.6,0.4L72.2,62.5L72.2,62.5z M72.2,65.2l-0.1,0L72,65.7
						l0.1,0L72.2,65.2L72.2,65.2z"/>
					<path fill="#C8A400" d="M54.8,69l0.3-0.1l0.5,0.6l-0.1,0.3l0.1,0.1l0.5-1.1L56,68.7l-1.2,0.2L54.8,69L54.8,69z M55.3,69
						l0.7-0.1l-0.3,0.7L55.3,69L55.3,69z M56.4,69.2L55.7,70l0.1,0.1l0.7-0.7l0,0l-0.3,1.1l0,0l1.1-0.3l0,0l-0.7,0.7l0.1,0.1
						l0.8-0.8l-0.2-0.2l-1.1,0.3l0.3-1.1L56.4,69.2L56.4,69.2z M57,71.2l0.8,0.6l0.1-0.1l-0.7-0.5l0.2-0.3l0.7,0.5l0.1-0.1l-0.7-0.5
						l0.2-0.3l0.7,0.5l0.1-0.1l-0.8-0.6L57,71.2L57,71.2z M58.6,71.1l0.6,0.3c0,0,0.1,0,0.1,0.1c0,0,0,0.1,0,0.1c0,0,0,0.1,0,0.1
						c0,0.1-0.1,0.1-0.1,0.1c0,0-0.1,0-0.1,0c0,0-0.1,0-0.1,0l-0.6-0.3L58.6,71.1L58.6,71.1z M58.3,71.5l0.7,0.4c0,0,0.1,0,0.1,0.1
						c0,0,0,0,0,0.1c0,0,0,0.1,0,0.1l-0.1,0.2l0.1,0.1l0.1-0.2c0-0.1,0-0.1,0-0.1c0,0,0-0.1,0-0.1c0,0,0,0,0-0.1c0,0,0,0,0.1,0
						c0,0,0,0,0.1,0c0,0,0,0,0.1,0c0,0,0-0.1,0.1-0.1c0,0,0-0.1,0-0.1c0,0,0-0.1,0-0.1c0,0,0-0.1-0.1-0.1c0,0-0.1-0.1-0.1-0.1
						l-0.7-0.4l-0.5,1l0.1,0.1L58.3,71.5L58.3,71.5z M59.8,71.5l-0.1,0l-0.4,1l0.1,0L59.8,71.5L59.8,71.5z M60.8,72.7
						c0,0,0,0.1-0.1,0.1c0,0-0.1,0-0.1,0c0,0-0.1,0-0.2,0L60,72.7c-0.1,0-0.1,0-0.1-0.1c0,0-0.1,0-0.1-0.1c0,0,0-0.1,0-0.1
						c0,0,0-0.1,0-0.1l0.1-0.3c0-0.1,0-0.1,0.1-0.1c0,0,0-0.1,0.1-0.1c0,0,0.1,0,0.1,0c0,0,0.1,0,0.1,0l0.5,0.1c0.1,0,0.1,0,0.1,0.1
						c0,0,0.1,0,0.1,0.1c0,0,0,0,0,0.1c0,0,0,0.1,0,0.1l0.1,0c0-0.1,0-0.2,0-0.3c0-0.1-0.1-0.1-0.3-0.2l-0.5-0.1c-0.1,0-0.1,0-0.2,0
						c-0.1,0-0.1,0-0.1,0c0,0-0.1,0.1-0.1,0.1c0,0-0.1,0.1-0.1,0.2l-0.1,0.3c0,0.1,0,0.1,0,0.2c0,0.1,0,0.1,0,0.1
						c0,0,0.1,0.1,0.1,0.1c0,0,0.1,0.1,0.2,0.1l0.5,0.1c0.1,0,0.1,0,0.2,0c0.1,0,0.1,0,0.1,0c0,0,0.1,0,0.1-0.1c0,0,0-0.1,0.1-0.1
						L60.8,72.7L60.8,72.7z M61.1,73.1l0.2-0.3l0.8,0.1l0.1,0.3l0.1,0L61.8,72l-0.2,0l-0.7,1L61.1,73.1L61.1,73.1z M61.3,72.7
						l0.4-0.6l0.2,0.7L61.3,72.7L61.3,72.7z M65,72.7c0,0,0,0.1,0,0.1c0,0,0,0.1-0.1,0.1c0,0-0.1,0-0.2,0L64.3,73
						c-0.1,0-0.1,0-0.1,0c0,0-0.1,0-0.1,0c0,0,0,0-0.1-0.1c0,0,0-0.1,0-0.1l0-0.3c0-0.1,0-0.1,0-0.1c0,0,0-0.1,0-0.1
						c0,0,0,0,0.1-0.1c0,0,0.1,0,0.1,0l0.5-0.1c0.1,0,0.1,0,0.1,0c0,0,0.1,0,0.1,0c0,0,0,0,0.1,0.1c0,0,0,0.1,0,0.1l0.1,0
						c0-0.1-0.1-0.2-0.1-0.2c-0.1,0-0.2-0.1-0.3,0l-0.5,0.1c-0.1,0-0.1,0-0.2,0c0,0-0.1,0.1-0.1,0.1c0,0,0,0.1-0.1,0.1
						c0,0.1,0,0.1,0,0.2l0,0.3c0,0.1,0,0.1,0,0.2c0,0,0.1,0.1,0.1,0.1c0,0,0.1,0,0.1,0.1c0.1,0,0.1,0,0.2,0l0.5-0.1
						c0.1,0,0.1,0,0.2,0c0,0,0.1,0,0.1-0.1c0,0,0-0.1,0.1-0.1c0,0,0-0.1,0-0.1L65,72.7L65,72.7z M65.3,73l0.9-0.3l0-0.1l-0.8,0.2
						l-0.1-0.4l0.8-0.2l0-0.1l-0.8,0.2L65.2,72l0.8-0.2l0-0.1L65,71.9L65.3,73L65.3,73z M66,71.7l0.5,1l0.1-0.1l-0.4-0.9l0.1,0
						l1.2,0.6l0.2-0.1l-0.5-1L67,71.2l0.4,0.9l-1.2-0.5L66,71.7L66,71.7z M67.1,71.1L67.1,71.1l0.5-0.2l0.5,0.9l0.1-0.1l-0.5-0.9
						l0.5-0.3l-0.1-0.1L67.1,71.1L67.1,71.1z M68.3,70.5l0.6-0.5c0,0,0.1-0.1,0.1-0.1c0,0,0.1,0,0.1,0c0,0,0.1,0,0.1,0.1
						c0,0,0.1,0.1,0.1,0.1c0,0,0,0.1,0,0.1c0,0,0,0.1-0.1,0.1l-0.6,0.5L68.3,70.5L68.3,70.5z M68.7,70.9l0.6-0.5c0,0,0.1,0,0.1,0
						c0,0,0.1,0,0.1,0c0,0,0.1,0,0.1,0.1l0.2,0.2l0.1-0.1l-0.2-0.2c0,0-0.1-0.1-0.1-0.1c0,0-0.1,0-0.1,0c0,0-0.1,0-0.1,0
						c0,0,0,0,0-0.1c0,0,0,0,0-0.1c0,0,0-0.1,0-0.1c0,0,0-0.1-0.1-0.1c0,0-0.1-0.1-0.1-0.1c0,0-0.1,0-0.1,0c0,0-0.1,0-0.1,0
						c0,0-0.1,0.1-0.2,0.1l-0.6,0.5l0.7,0.9l0.1-0.1L68.7,70.9L68.7,70.9z M70,70.4l-0.1-0.3l0.5-0.6l0.3,0.1l0.1-0.1l-1.2-0.3
						l-0.1,0.1L70,70.4L70,70.4L70,70.4z M69.8,70l-0.2-0.7l0.7,0.2L69.8,70L69.8,70z M70,68.7L70,68.7l0.8,0.7l0.5-0.8l-0.1-0.1
						l-0.5,0.7L70,68.7L70,68.7z"/>
				</g>
			</g>
		</g>
	</g>
	<path opacity="0.25" fill="#FFFFFF" d="M13,29.7v25.5C26.2,62.6,43.7,67,63,67c19.3,0,36.8-4.5,50-11.8V29.7H13z"/>
</g>
</svg>
