<?xml version="1.0" encoding="utf-8"?>
<!-- Generator: Adobe Illustrator 24.3.0, SVG Export Plug-In . SVG Version: 6.00 Build 0)  -->
<svg version="1.1" id="Layer_1" xmlns="http://www.w3.org/2000/svg" xmlns:xlink="http://www.w3.org/1999/xlink" x="0px" y="0px"
	 viewBox="0 0 126 126" enable-background="new 0 0 126 126" xml:space="preserve">
<g>
	<g>
		<g>
			<polygon fill-rule="evenodd" clip-rule="evenodd" fill="#F0F0F0" points="113,74.1 113,51.9 13,51.9 13,74.1 113,74.1 			"/>
			<polygon fill-rule="evenodd" clip-rule="evenodd" fill="#47B71D" points="13,96.3 113,96.3 113,74.1 13,74.1 13,96.3 			"/>
			<path fill-rule="evenodd" clip-rule="evenodd" fill="#F39229" d="M72.4,63c0-5.2-4.2-9.4-9.4-9.4c-5.2,0-9.4,4.2-9.4,9.4
				c0,5.2,4.2,9.4,9.4,9.4C68.2,72.4,72.4,68.2,72.4,63L72.4,63z"/>
			<polygon fill-rule="evenodd" clip-rule="evenodd" fill="#F39229" points="13,51.9 113,51.9 113,29.7 13,29.7 13,51.9 			"/>
		</g>
	</g>
	<path opacity="0.25" fill="#FFFFFF" d="M13,29.7v25.5C26.2,62.6,43.7,67,63,67c19.3,0,36.8-4.5,50-11.8V29.7H13z"/>
</g>
</svg>
