<?xml version="1.0" encoding="utf-8"?>
<!-- Generator: Adobe Illustrator 24.3.0, SVG Export Plug-In . SVG Version: 6.00 Build 0)  -->
<svg version="1.1" id="Layer_1" xmlns="http://www.w3.org/2000/svg" xmlns:xlink="http://www.w3.org/1999/xlink" x="0px" y="0px"
	 viewBox="0 0 126 126" enable-background="new 0 0 126 126" xml:space="preserve">
<g>
	<g>
		<polygon fill-rule="evenodd" clip-rule="evenodd" fill="#FFD31E" points="13,29.7 63,29.7 113,29.7 113,96.3 63,96.3 13,96.3 
			13,29.7 		"/>
		<rect x="13" y="29.7" fill-rule="evenodd" clip-rule="evenodd" fill="#0437A0" width="50" height="33.3"/>
		<polygon fill="#FBF9F9" points="63,58.9 44.2,46.3 63,33.8 63,29.7 56.8,29.7 38,42.2 19.2,29.7 13,29.7 13,33.8 31.8,46.3 
			13,58.9 13,63 19.2,63 38,50.5 56.8,63 63,63 63,58.9 		"/>
		<polygon fill="#F90805" points="63,61.5 40.3,46.3 63,31.2 63,29.7 60.7,29.7 38,44.8 15.3,29.7 13,29.7 13,31.2 35.7,46.3 
			13,61.5 13,63 15.3,63 38,47.9 60.7,63 63,63 63,61.5 		"/>
		<polygon fill-rule="evenodd" clip-rule="evenodd" fill="#FBF9F9" points="33.9,29.7 38,29.7 42.1,29.7 42.1,40.8 63,40.8 63,51.9 
			42.1,51.9 42.1,63 38,63 33.9,63 33.9,51.9 13,51.9 13,40.8 33.9,40.8 33.9,29.7 		"/>
		<polygon fill-rule="evenodd" clip-rule="evenodd" fill="#F90805" points="40.6,29.7 40.6,42.9 63,42.9 63,49.8 40.6,49.8 40.6,63 
			38,63 35.4,63 35.4,49.8 13,49.8 13,42.9 35.4,42.9 35.4,29.7 38,29.7 40.6,29.7 		"/>
		<g>
			<path fill-rule="evenodd" clip-rule="evenodd" fill="#0437A0" d="M38,41c3,0,5.4,2.4,5.4,5.4c0,3-2.4,5.4-5.4,5.4
				c-3,0-5.4-2.4-5.4-5.4C32.6,43.4,35,41,38,41L38,41z"/>
			<polygon fill-rule="evenodd" clip-rule="evenodd" fill="#FFD31E" points="38,41 39.2,44.7 43.1,44.7 40,47 41.1,50.6 38,48.4 
				34.9,50.6 36,47 32.9,44.7 36.8,44.7 38,41 			"/>
		</g>
		<polygon fill-rule="evenodd" clip-rule="evenodd" fill="#FFD31E" points="38,32.8 38.6,34.6 40.5,34.6 39,35.8 39.6,37.6 38,36.5 
			36.4,37.6 37,35.8 35.5,34.6 37.4,34.6 38,32.8 		"/>
		<polygon fill-rule="evenodd" clip-rule="evenodd" fill="#FFD31E" points="38,54.4 38.6,56.3 40.5,56.3 39,57.4 39.6,59.2 38,58.1 
			36.4,59.2 37,57.4 35.5,56.3 37.4,56.3 38,54.4 		"/>
		<polygon fill-rule="evenodd" clip-rule="evenodd" fill="#FFD31E" points="23.2,43.9 23.8,45.8 25.7,45.8 24.2,46.9 24.7,48.8 
			23.2,47.6 21.6,48.8 22.2,46.9 20.6,45.8 22.6,45.8 23.2,43.9 		"/>
		<polygon fill-rule="evenodd" clip-rule="evenodd" fill="#FFD31E" points="52.4,43.9 53,45.8 55,45.8 53.4,46.9 54,48.8 52.4,47.6 
			50.9,48.8 51.4,46.9 49.9,45.8 51.8,45.8 52.4,43.9 		"/>
	</g>
	<path opacity="0.35" fill="#FFFFFF" d="M13,29.7v25.5C26.2,62.6,43.7,67,63,67c19.3,0,36.8-4.5,50-11.8V29.7H13z"/>
</g>
</svg>
