<?xml version="1.0" encoding="utf-8"?>
<!-- Generator: Adobe Illustrator 24.3.0, SVG Export Plug-In . SVG Version: 6.00 Build 0)  -->
<svg version="1.1" id="Layer_1" xmlns="http://www.w3.org/2000/svg" xmlns:xlink="http://www.w3.org/1999/xlink" x="0px" y="0px"
	 viewBox="0 0 126 126" enable-background="new 0 0 126 126" xml:space="preserve">
<g>
	<g>
		<path fill-rule="evenodd" clip-rule="evenodd" fill="#C20B18" d="M28,96.3h28.3l5-21.5c1.1,0.2,2.2,0.2,3.3,0l5,21.5H98L71.2,71.7
			c0.7-0.6,1.2-1.3,1.8-2.1L113,96.3V69.7l-38.2-5.1c0.1-1,0.1-2.1,0-3.1l38.2-5.1V29.7L72.9,56.4c-0.5-0.8-1.1-1.5-1.8-2.1L98,29.7
			H69.7l-5,21.5c-1.1-0.1-2.2-0.1-3.3,0l-5-21.5H28l26.8,24.7c-0.7,0.6-1.3,1.3-1.8,2.1L13,29.7v26.7l38.2,5.1c-0.1,1-0.1,2.1,0,3.1
			L13,69.7v26.7l40.1-26.7c0.5,0.8,1.1,1.5,1.8,2.1L28,96.3L28,96.3z M72.5,63c0,5.3-4.3,9.5-9.5,9.5c-5.3,0-9.5-4.3-9.5-9.5
			c0-5.3,4.3-9.5,9.5-9.5C68.3,53.5,72.5,57.7,72.5,63L72.5,63z"/>
		<path fill-rule="evenodd" clip-rule="evenodd" fill="#FEDC36" d="M56.3,96.3h13.3l-5-21.5c-1.1,0.2-2.2,0.2-3.3,0L56.3,96.3
			L56.3,96.3z M72.5,63c0,5.3-4.3,9.5-9.5,9.5c-5.3,0-9.5-4.3-9.5-9.5c0-5.3,4.3-9.5,9.5-9.5C68.3,53.5,72.5,57.7,72.5,63L72.5,63z
			 M13,96.3l40.1-26.7c0.5,0.8,1.1,1.5,1.8,2.1L28,96.3H13L13,96.3z M71.2,71.7c0.7-0.6,1.2-1.3,1.8-2.1L113,96.3H98L71.2,71.7
			L71.2,71.7z M53.1,56.4c0.5-0.8,1.1-1.5,1.8-2.1L28,29.7H13L53.1,56.4L53.1,56.4z M71.2,54.3c0.7,0.6,1.2,1.3,1.8,2.1L113,29.7H98
			L71.2,54.3L71.2,54.3z M56.3,29.7h13.3l-5,21.5c-1.1-0.1-2.2-0.1-3.3,0L56.3,29.7L56.3,29.7z M113,56.3l-38.2,5.1
			c0.1,1,0.1,2.1,0,3.1l38.2,5.1V56.3L113,56.3z M51.2,61.4c-0.1,1-0.1,2.1,0,3.1L13,69.7V56.3l0,0L51.2,61.4L51.2,61.4z"/>
	</g>
	<path opacity="0.35" fill="#FFFFFF" d="M13,29.7v25.5C26.2,62.6,43.7,67,63,67c19.3,0,36.8-4.5,50-11.8V29.7H13z"/>
</g>
</svg>
