<?xml version="1.0" encoding="utf-8"?>
<!-- Generator: Adobe Illustrator 24.3.0, SVG Export Plug-In . SVG Version: 6.00 Build 0)  -->
<svg version="1.1" id="Layer_1" xmlns="http://www.w3.org/2000/svg" xmlns:xlink="http://www.w3.org/1999/xlink" x="0px" y="0px"
	 viewBox="0 0 126 126" enable-background="new 0 0 126 126" xml:space="preserve">
<g>
	<path fill="#C7EBF9" d="M84.3,113c-0.9,0-1.8-0.4-2.3-1.2l-5.4-7.3l-8.9-4.5l-4.4,5.9c-0.8,1.1-2.4,1.5-3.7,0.9L36.7,95.4h-9.1
		c-0.5,0-0.9-0.1-1.3-0.3l-7.8-3.9c-0.8-0.4-1.4-1.1-1.5-2l-3.9-17.6c-0.2-0.8,0-1.7,0.5-2.4l4.9-6.5l-3.3-8.2
		C14.7,53.4,15,52,16,51.2l13.7-11.7c1.1-0.9,2.6-0.9,3.7-0.1l17.5,14l4-4c0.9-0.9,2.3-1.1,3.4-0.5L70,54.7c0.8,0.4,1.4,1.2,1.6,2.2
		c0.2,0.9-0.2,1.9-0.8,2.5l-7.2,7.2l-1.3,6.5l7.5,3c0.5,0.2,0.9,0.5,1.3,1l3.5,4.7l2.3-3.1L72,70.6c-0.8-1.3-0.4-3.1,0.9-3.9
		l5.9-3.9c1.2-0.8,2.7-0.6,3.7,0.4l4.1,4.1l5.8-4.3c1.1-0.8,2.5-0.8,3.6,0.1l9.8,7.8c0.7,0.6,1.1,1.4,1.1,2.3v7.8
		c0,0.9-0.4,1.7-1.1,2.3l-5.8,4.7l5.1,2c0.5,0.2,0.9,0.5,1.2,0.9l6.2,7.8c0.6,0.8,0.8,1.8,0.5,2.7c-0.3,0.9-1,1.7-1.9,1.9l-6.2,2
		c-0.3,0.1-0.6,0.1-0.9,0.1H91.6l-5,6.6C86.1,112.6,85.2,113,84.3,113L84.3,113z"/>
	<path fill="#C7EBF9" d="M51.1,44.6c-0.6,0-1.1-0.2-1.6-0.5l-11.7-7.8c-0.7-0.4-1.1-1.1-1.3-1.9s0.1-1.6,0.5-2.3l5.9-7.8
		c1-1.3,2.8-1.6,4-0.6l13.7,9.8c0.8,0.5,1.2,1.4,1.2,2.3c0,0.9-0.4,1.8-1.2,2.4l-7.8,5.9C52.3,44.4,51.7,44.6,51.1,44.6L51.1,44.6z"
		/>
	<path fill="#C7EBF9" d="M66.7,30.6c-0.9,0-1.8-0.4-2.3-1.2l-5.9-7.8c-0.5-0.6-0.7-1.5-0.5-2.3c0.1-0.8,0.6-1.5,1.3-1.9l5.9-3.9
		c0.5-0.3,1-0.5,1.6-0.5h15.6c1.6,0,2.9,1.3,2.9,2.9v9.8c0,1.5-1.1,2.7-2.6,2.9l-15.6,2C67,30.6,66.8,30.6,66.7,30.6L66.7,30.6z"/>
	<path fill="#C7EBF9" d="M86.2,60.3c-0.4,0-0.8-0.1-1.2-0.3c-0.7-0.3-1.3-1-1.5-1.7l-1.7-5.2l-2.8-2.8L70,48.5
		c-0.9-0.2-1.7-0.8-2.1-1.6c-0.4-0.8-0.4-1.8,0-2.6l3.9-7.8c0.4-0.8,1.2-1.4,2.1-1.6l11.7-2c0.8-0.1,1.7,0.1,2.3,0.6l9.8,7.8
		c0.7,0.6,1.1,1.4,1.1,2.3v9.8c0,1.2-0.7,2.3-1.8,2.7l-9.8,3.9C87,60.2,86.6,60.3,86.2,60.3z"/>
</g>
</svg>
