<?xml version="1.0" encoding="utf-8"?>
<!-- Generator: Adobe Illustrator 24.3.0, SVG Export Plug-In . SVG Version: 6.00 Build 0)  -->
<svg version="1.1" id="Layer_1" xmlns="http://www.w3.org/2000/svg" xmlns:xlink="http://www.w3.org/1999/xlink" x="0px" y="0px"
	 viewBox="0 0 126 126" enable-background="new 0 0 126 126" xml:space="preserve">
<g>
	<g>
		<path fill-rule="evenodd" clip-rule="evenodd" fill="#FF1612" d="M13,96.3h28V71H13V96.3L13,96.3z M57,96.3h56V71H57V96.3L57,96.3
			z M113,55V29.7H57V55H113L113,55z M41,29.7H13V55h28V29.7L41,29.7z"/>
		<path fill-rule="evenodd" clip-rule="evenodd" fill="#F4F4F4" d="M41,96.3h4V67H13v4h28V96.3L41,96.3z M53,96.3h4V71h56v-4H53
			V96.3L53,96.3z M113,59v-4H57V29.7h-4V59H113L113,59z M45,29.7h-4V55H13v4h32V29.7L45,29.7z"/>
		
			<polygon fill-rule="evenodd" clip-rule="evenodd" fill="#0437A0" stroke="#F4F4F4" stroke-width="3.927300e-02" stroke-miterlimit="2.4142" points="
			13,67 45,67 45,96.3 53,96.3 53,67 113,67 113,59 53,59 53,29.7 45,29.7 45,59 13,59 13,67 		"/>
	</g>
	<path opacity="0.35" fill="#FFFFFF" d="M13,29.7v25.5C26.2,62.6,43.7,67,63,67c19.3,0,36.8-4.5,50-11.8V29.7H13z"/>
</g>
</svg>
