<?xml version="1.0" encoding="utf-8"?>
<!-- Generator: Adobe Illustrator 24.3.0, SVG Export Plug-In . SVG Version: 6.00 Build 0)  -->
<svg version="1.1" id="Layer_1" xmlns="http://www.w3.org/2000/svg" xmlns:xlink="http://www.w3.org/1999/xlink" x="0px" y="0px"
	 viewBox="0 0 126 126" enable-background="new 0 0 126 126" xml:space="preserve">
<g>
	<g>
		<path fill="#C7EBF9" d="M92.7,107.3c1.2,0.8,2.8,0.2,3.1-1.2l1.7-6.8c0.1-0.5-0.3-1.1-0.8-1.1H85c-0.7,0-1.1,0.8-0.7,1.4
			C87.3,103.3,90.5,105.8,92.7,107.3z"/>
		<path fill="#C7EBF9" d="M16.7,66.5c3,5.9,5.7,12.4,4.7,18.6c-0.1,0.6,0.3,1.1,0.9,1.1h4.1c0.3,0,0.6-0.1,0.7-0.4
			c5-6.7,11.7-8.8,11.7-8.8c6.1-1.8,12.6-3.4,16.8-3.4c7.8,0,9.7,6.4,10.1,8.9c0.1,0.5,0.6,0.9,1.1,0.9c0.5,0,1-0.2,1.3-0.6l3.6-4
			c0.4-0.4,1-0.2,1.1,0.3c1.1,7,6.7,14.3,7.7,14.9C80.8,94,80.9,94,81,94h16.3c0.3,0,0.6-0.3,0.6-0.6c0.6-6.2,10-15.1,13.7-18.3
			c0.9-0.8,1.4-1.9,1.4-3.1v-7.8c0-0.1,0-0.2-0.1-0.3l-9.2-18.5c-0.1-0.1-0.2-0.2-0.3-0.3c-7.6-3.5-7.2-12.1-7-13.6
			c0-0.2,0-0.3-0.1-0.5L94,28.2c-0.2-0.3-0.6-0.3-0.9-0.1l-1,0.7c0-4.5-1.9-8.3-2.9-10.1c-0.3-0.5-1-0.4-1.2,0.1l-2.1,5.5
			c0,0.1,0,0.2,0,0.2c0,4.5-0.8,7.6-1.6,9.6c-0.7,1.8-2.9,2.4-4.5,1.4c-3.1-2-8.2-5.4-10-6.5c-0.3-0.2-0.4-0.7-0.1-1l4.9-6
			c0.3-0.4,0-1.1-0.5-1.1H58.8c-0.2,0-0.3,0.1-0.4,0.2l-5,4.7c-0.3,0.3-0.3,0.7,0,0.9l1.3,1.3c-4.3,1.4-7.1-1.5-8.2-2.8
			c-0.2-0.3-0.7-0.3-1-0.1l-11,10.6c-0.1,0.1-0.2,0.2-0.2,0.3c-1.2,6.7-14,11.2-18,12.5c-0.7,0.2-1.3,0.8-1.5,1.6l-1.9,7.8
			c-0.1,0.5-0.1,1,0.1,1.5C14.2,61.8,15.5,64.1,16.7,66.5z"/>
	</g>
</g>
</svg>
