<?xml version="1.0" encoding="utf-8"?>
<!-- Generator: Adobe Illustrator 24.3.0, SVG Export Plug-In . SVG Version: 6.00 Build 0)  -->
<svg version="1.1" id="Layer_1" xmlns="http://www.w3.org/2000/svg" xmlns:xlink="http://www.w3.org/1999/xlink" x="0px" y="0px"
	 viewBox="0 0 126 126" enable-background="new 0 0 126 126" xml:space="preserve">
<g>
	<g>
		<polygon fill-rule="evenodd" clip-rule="evenodd" fill="#FF1612" points="13,96.3 46.3,96.3 46.3,74.1 113,74.1 113,51.9 
			46.3,51.9 46.3,29.7 13,29.7 13,96.3 		"/>
		<polygon fill-rule="evenodd" clip-rule="evenodd" fill="#47B71D" points="46.3,96.3 113,96.3 113,74.1 46.3,74.1 46.3,96.3 		"/>
		<polygon fill-rule="evenodd" clip-rule="evenodd" fill="#F0F0F0" points="46.3,51.9 113,51.9 113,29.7 46.3,29.7 46.3,51.9 		"/>
		<g>
			<path fill-rule="evenodd" clip-rule="evenodd" fill="#FFFFFF" d="M19.1,53.8c0.6-0.5,1.3-1,1.7-1.4c0.4-0.4,0.7-0.7,0.8-0.8
				c0.1-0.1,0.1-0.1,0.2,0c0,0,0.2,0.1,0.2,0.1l1.8,0.4h0l0,0c0,0,0,0.1,0,0.1c0,0-1.3,1.1-2.3,1.6c-1,0.5-1.7,0.6-2.1,0.7
				C18.7,54.4,18.6,54.1,19.1,53.8L19.1,53.8z M25.8,49.4C25.8,49.4,25.8,49.4,25.8,49.4c0.1-0.1,0-0.1,0-0.2l0,0c0,0,0,0,0,0
				c0,0,0,0,0-0.1l0,0c0,0,0-0.1,0-0.1c0,0,0-0.1,0.1-0.1c0,0,0.1,0,0.1-0.1c0.1,0,0.2-0.1,0.2-0.1c0.1,0,0.1-0.1,0.1-0.1
				c0.1-0.1,0.1-0.2,0.1-0.2l0-0.1l0,0c0,0,0.1,0.1,0.3,0.1l0,0c-0.1,0-0.3,0-0.3-0.1c0,0,0,0.1-0.1,0.2c0,0-0.1,0.1-0.1,0.1
				c-0.1,0-0.1,0.1-0.2,0.1c0,0-0.1,0-0.1,0.1c0,0,0,0.1,0,0.1c0,0,0,0.1,0,0.1l0,0c0,0,0,0,0,0.1c0,0,0,0,0,0l0,0
				c0,0,0.1,0.1,0.1,0.1C25.9,49.4,25.9,49.4,25.8,49.4L25.8,49.4L25.8,49.4z M24.9,50.3C24.9,50.2,24.9,50.2,24.9,50.3
				c-0.1-0.1-0.1-0.2-0.1-0.4c0-0.1,0.1-0.2,0.2-0.3c0,0,0,0,0,0c0.1-0.1,0.2-0.1,0.3-0.1c0.1,0,0.3,0,0.3,0.1l0,0
				c-0.1,0-0.2-0.1-0.3-0.1c-0.1,0-0.2,0-0.3,0.1c0,0,0,0,0,0c-0.1,0.1-0.1,0.2-0.1,0.3C24.8,50,24.8,50.1,24.9,50.3
				C24.9,50.2,24.9,50.2,24.9,50.3L24.9,50.3L24.9,50.3z M23.6,50.8c0,0,0.1-0.1,0.2-0.1c0.1,0,0.1,0,0.2,0.1l0,0c0,0,0,0,0,0
				c0,0,0.1,0.1,0.1,0.1c0.1,0,0.1,0,0.2,0c0,0,0,0,0,0c0,0,0.1-0.1,0.1-0.1c0.1-0.1,0.1-0.1,0.1-0.2c0-0.1,0-0.1-0.1-0.2
				c0,0,0,0,0,0l0,0c0,0,0,0,0,0c0.1,0.1,0.1,0.1,0.1,0.2c0,0,0.1,0.1,0.2,0c0.1,0,0.1,0,0.2-0.1l0,0c-0.1,0-0.1,0.1-0.2,0.1
				c-0.1,0-0.1,0-0.2,0h0c0,0.1-0.1,0.2-0.1,0.2c0,0-0.1,0.1-0.1,0.1c0,0,0,0,0,0c-0.1,0.1-0.2,0.1-0.3,0c-0.1,0-0.1-0.1-0.2-0.1
				c0,0,0,0,0,0l0,0c0-0.1-0.1-0.1-0.1,0C23.7,50.8,23.7,50.8,23.6,50.8L23.6,50.8L23.6,50.8z M21.6,51.7c0.4,0.2,1.7,0.4,1.7,0.4
				l0,0l0,0c0,0-0.7,0.7-1.9,1.5c-0.5,0.3-0.9,0.4-1.2,0.5c-0.6,0.2-0.9,0.2-1,0.1c-0.1,0-0.1,0-0.1-0.1c0,0-0.1-0.1-0.1-0.1
				c0,0,0-0.1,0-0.1c0,0,0-0.1,0.1-0.1c0.1-0.1,0.5-0.4,0.9-0.7c0.2-0.2,0.5-0.4,0.6-0.5c0.2-0.1,0.4-0.3,0.6-0.5
				C21.2,52.1,21.4,51.9,21.6,51.7L21.6,51.7L21.6,51.7L21.6,51.7z M23.2,52.1c-0.2,0-1.2-0.3-1.6-0.4c-0.2,0.2-0.4,0.4-0.6,0.6
				c-0.2,0.2-0.4,0.3-0.6,0.5c-0.1,0.1-0.4,0.3-0.6,0.5c-0.4,0.3-0.8,0.6-0.9,0.7c0,0-0.1,0.1-0.1,0.1c0,0,0,0.1,0,0.1
				c0,0,0,0.1,0.1,0.1c0,0,0.1,0,0.1,0c0.1,0,0.4,0,1-0.1c0.3-0.1,0.7-0.3,1.2-0.5C22.5,52.9,23.1,52.3,23.2,52.1L23.2,52.1z
				 M19.7,53.8c0.1,0,0.2,0,0.3-0.1c0.1-0.1,0.1-0.1,0.1-0.3c0-0.1,0-0.1,0-0.2c0-0.1,0.1-0.1,0.1-0.2c0.1,0,0.1,0,0.2,0
				c0,0,0.1,0,0.1,0c0.1,0,0.1,0.1,0.1,0.1c0.1,0.1,0.2,0.1,0.3,0.1c-0.1,0-0.2-0.1-0.1-0.3c0-0.2,0-0.2,0-0.2l0,0l0,0
				c0.1-0.2,0.1-0.2,0.1-0.2c0,0,0,0,0-0.1l0,0l0,0c0,0,0.4,0.1,0.3-0.1l0,0l0,0c0,0,0.2,0.1,0.3,0.3c0,0.1,0.1,0.2,0.1,0.2
				c0,0,0,0,0.1,0c0,0,0,0,0,0c0,0,0-0.1,0.1-0.1c0-0.1,0.1-0.2,0.1-0.3c0.1-0.1,0.2-0.1,0.2-0.1c0.1,0,0.1,0,0.1-0.1c0,0,0,0,0-0.1
				c0,0,0,0,0-0.1c0,0,0,0-0.1-0.1c-0.1-0.1-0.2-0.1-0.2-0.1c-0.1,0-0.1,0-0.2,0.1c0,0-0.1,0-0.1,0c-0.1,0-0.1,0-0.1,0
				c0,0-0.1-0.1-0.1-0.1c0,0,0,0,0-0.1l0,0c0,0,0,0,0,0c0,0,0,0.1,0.1,0.1c0,0,0.1,0,0.1,0c0,0,0.1,0,0.1,0c0.1,0,0.2-0.1,0.2-0.1
				c0.1,0,0.1,0,0.2,0.1c0,0,0.1,0.1,0.1,0.1c0,0,0,0.1,0,0.1c0,0,0,0-0.1,0.1c0,0-0.1,0.1-0.2,0.1c-0.1,0-0.2,0-0.2,0.1
				c-0.1,0-0.1,0.1-0.1,0.2c0,0.1,0,0.1-0.1,0.1c0,0,0,0-0.1,0c0,0-0.1,0-0.1,0c-0.1,0-0.1-0.1-0.1-0.2c0-0.2-0.2-0.3-0.2-0.3
				c0,0.2-0.3,0.2-0.4,0.2c0,0,0,0,0,0.1c0,0,0,0.1-0.1,0.2c0,0,0.1,0.1,0,0.2c0,0.2,0.2,0.3,0.2,0.3l0.1,0l-0.1,0
				c-0.2,0-0.3-0.1-0.4-0.2c0,0-0.1-0.1-0.1-0.1c0,0-0.1,0-0.1,0c-0.1,0-0.1,0-0.2,0c-0.1,0-0.1,0.1-0.1,0.1c0,0,0,0.1,0,0.1
				c0,0.1-0.1,0.2-0.1,0.3C19.9,53.8,19.8,53.8,19.7,53.8L19.7,53.8L19.7,53.8z M32.4,41l0.6-1l0,0l0,0l0.7,0.3l0,0l0,0l-0.6,1.1
				l0,0l0,0L32.4,41L32.4,41L32.4,41L32.4,41z M33,40.1L32.5,41l0.6-0.3L33,40.1L33,40.1z M33.1,40.7l0.6-0.3L33.1,40L33.1,40.7
				L33.1,40.7z M32.5,41l0.6,0.3l0-0.6L32.5,41L32.5,41z M33.1,41.3l0.5-1l-0.6,0.3L33.1,41.3L33.1,41.3z M32.1,41.1l0.8-1.4l0,0
				l0,0l1,0.5l0,0l0,0l-0.8,1.4l0,0l0,0L32.1,41.1L32.1,41.1L32.1,41.1L32.1,41.1z M33,39.8l-0.8,1.4l1,0.5l0.8-1.4L33,39.8L33,39.8
				z M36.9,33.9c0.1,0,0.2,0.1,0.2,0.2c0,0.1-0.1,0.2-0.2,0.2s-0.2-0.1-0.2-0.2C36.7,34,36.8,33.9,36.9,33.9L36.9,33.9z M21.9,51.6
				c0.2-0.2,2.7-2.3,3.8-3.4l1.1,0.2c0,0,0,0.1,0.2,0.1c0.2,0,0.5,0,0.5,0l0.1,0l0.2,0c-0.6,0.5-1.8,1.7-2.4,2.3
				c-0.9,0.8-1.6,1.3-1.6,1.3c0,0,0,0,0,0h0l0,0l-0.5-0.1c0-0.1,0-0.2,0-0.3c0-0.1,0-0.1,0-0.2c0.1,0.1,0.5,0.3,0.8,0.1
				c0.4-0.2,0-0.6,0-0.6l0,0c0,0,0.4,0.4,0,0.6c-0.4,0.2-0.8-0.2-0.8-0.2l0,0l0,0l0,0l0,0c0,0,0.1,0.1,0.1,0.2c0,0.1,0,0.2,0,0.3
				L21.9,51.6L21.9,51.6z M31.5,41.8c0.1-0.2,0.3-0.5,0.4-0.6c0,0,0,0,0,0l1.4,0.7c0,0,0,0,0,0c-0.1,0.1-0.9,1.3-1,1.5
				c-0.1,0.2-0.5,0.6-0.7,0.9L31.5,41.8L31.5,41.8z M31.8,41c0-0.1,1.3-2.2,1.7-2.7c0.3-0.5,1.9-2.9,2.3-3.4
				c0.4-0.5,1.4-1.8,1.7-1.7c0.3,0.1-0.4,1.9-0.5,2.1c-0.1,0.2-1.8,3.6-2.1,4.2c-0.3,0.6-1.2,2.2-1.3,2.3c-0.1,0.1-0.1,0.1-0.1,0.1
				c0,0,0,0-0.1,0c0.1-0.2,1.1-2,1.3-2.3c0.1-0.2,0.6-1.1,1-1.9c0.3-0.6,0.6-1.1,0.6-1.3c0-0.1,0.1-0.2,0.2-0.3
				c0.2-0.4,0.5-1.1,0.7-1.7c0.2-0.5,0.3-0.8,0.1-0.9c-0.3-0.1-0.8,0.7-1.3,1.4c-0.2,0.3-0.4,0.6-0.5,0.7c-0.3,0.3-1.2,1.8-1.7,2.7
				c-0.2,0.3-0.4,0.6-0.4,0.7c-0.1,0.1-0.3,0.4-0.5,0.7c-0.2,0.2-0.3,0.5-0.4,0.6c-0.1,0.2-0.5,0.9-0.6,1
				C31.8,41.1,31.7,41.1,31.8,41L31.8,41z M33.3,41.8c-0.4-0.2-0.9-0.4-1.3-0.6c0,0,0,0,0,0c0.1-0.1,0.5-0.8,0.6-1
				c0.1-0.1,0.2-0.3,0.4-0.6l0,0l1.3,0.6C33.8,40.8,33.4,41.7,33.3,41.8L33.3,41.8z M32.9,39.5c0.2-0.3,0.3-0.5,0.4-0.6
				c0-0.1,0.2-0.3,0.4-0.7c0.5-0.9,1.4-2.3,1.7-2.7c0.1-0.1,0.3-0.4,0.5-0.7c0.1-0.1,0.2-0.2,0.2-0.3l0.7,0.3
				c-0.2,0.4-0.4,0.9-0.5,1.2c-0.1,0.1-0.1,0.3-0.2,0.3c-0.1,0.2-0.3,0.7-0.6,1.3c-0.4,0.8-0.9,1.7-1,1.9c-0.1,0.1-0.2,0.4-0.4,0.7
				L32.9,39.5L32.9,39.5z M36.2,34.5c0.4-0.5,0.8-1,1-1c0.1,0,0,0.4-0.1,0.9c-0.1,0.1-0.1,0.3-0.2,0.5L36.2,34.5L36.2,34.5z"/>
			<path fill-rule="evenodd" clip-rule="evenodd" fill="#FFFFFF" d="M40,53.8c-0.6-0.5-1.3-1-1.7-1.4c-0.4-0.4-0.7-0.7-0.8-0.8
				c-0.1-0.1-0.1-0.1-0.2,0c0,0-0.2,0.1-0.2,0.1L35.5,52l0,0h0c0,0,0,0.1,0,0.1c0,0,1.3,1.1,2.3,1.6c1,0.5,1.7,0.6,2.1,0.7
				C40.4,54.4,40.4,54.1,40,53.8L40,53.8z M33.3,49.4C33.3,49.4,33.2,49.4,33.3,49.4c-0.1-0.1,0-0.1,0-0.2l0,0c0,0,0,0,0,0
				c0,0,0,0,0-0.1l0,0c0,0,0-0.1,0-0.1c0,0,0-0.1-0.1-0.1c0,0-0.1,0-0.1-0.1c-0.1,0-0.2-0.1-0.2-0.1c-0.1,0-0.1-0.1-0.1-0.1
				c-0.1-0.1-0.1-0.2-0.1-0.2l0-0.1l0,0c0,0-0.1,0.1-0.3,0.1l0,0c0.1,0,0.3,0,0.3-0.1c0,0,0,0.1,0.1,0.2c0,0,0.1,0.1,0.1,0.1
				c0.1,0,0.1,0.1,0.2,0.1c0,0,0.1,0,0.1,0.1c0,0,0,0.1,0,0.1c0,0,0,0.1,0,0.1l0,0c0,0,0,0,0,0.1c0,0,0,0,0,0l0,0
				c0,0-0.1,0.1-0.1,0.1C33.2,49.4,33.2,49.4,33.3,49.4L33.3,49.4L33.3,49.4z M34.2,50.3C34.2,50.2,34.2,50.2,34.2,50.3
				c0.1-0.1,0.1-0.2,0.1-0.4c0-0.1-0.1-0.2-0.2-0.3c0,0,0,0,0,0c-0.1-0.1-0.2-0.1-0.3-0.1c-0.1,0-0.3,0-0.3,0.1l0,0
				c0.1,0,0.2-0.1,0.3-0.1c0.1,0,0.2,0,0.3,0.1c0,0,0,0,0,0c0.1,0.1,0.1,0.2,0.1,0.3C34.3,50,34.2,50.1,34.2,50.3
				C34.2,50.2,34.2,50.2,34.2,50.3L34.2,50.3L34.2,50.3z M35.5,50.8c0,0-0.1-0.1-0.2-0.1c-0.1,0-0.1,0-0.2,0.1l0,0c0,0,0,0,0,0
				c0,0-0.1,0.1-0.1,0.1c-0.1,0-0.1,0-0.2,0c0,0,0,0,0,0c0,0-0.1-0.1-0.1-0.1c-0.1-0.1-0.1-0.1-0.1-0.2c0-0.1,0-0.1,0.1-0.2
				c0,0,0,0,0,0l0,0c0,0,0,0,0,0c-0.1,0.1-0.1,0.1-0.1,0.2c0,0-0.1,0.1-0.2,0c-0.1,0-0.1,0-0.2-0.1l0,0c0.1,0,0.1,0.1,0.2,0.1
				c0.1,0,0.1,0,0.2,0l0,0c0,0.1,0.1,0.2,0.1,0.2c0,0,0.1,0.1,0.1,0.1c0,0,0,0,0,0c0.1,0.1,0.2,0.1,0.3,0c0.1,0,0.1-0.1,0.2-0.1
				c0,0,0,0,0,0l0,0c0-0.1,0.1-0.1,0.1,0C35.4,50.8,35.4,50.8,35.5,50.8L35.5,50.8L35.5,50.8z M37.5,51.7c-0.4,0.2-1.7,0.4-1.7,0.4
				l0,0l0,0c0,0,0.7,0.7,1.9,1.5c0.5,0.3,0.9,0.4,1.2,0.5c0.6,0.2,0.9,0.2,1,0.1c0.1,0,0.1,0,0.1-0.1c0,0,0.1-0.1,0.1-0.1
				c0,0,0-0.1,0-0.1c0,0,0-0.1-0.1-0.1c-0.1-0.1-0.5-0.4-0.9-0.7c-0.2-0.2-0.5-0.4-0.6-0.5c-0.2-0.1-0.4-0.3-0.6-0.5
				C37.9,52.1,37.7,51.9,37.5,51.7L37.5,51.7L37.5,51.7L37.5,51.7z M35.8,52.1c0.2,0,1.2-0.3,1.6-0.4c0.2,0.2,0.4,0.4,0.6,0.6
				c0.2,0.2,0.4,0.3,0.6,0.5c0.1,0.1,0.4,0.3,0.6,0.5c0.4,0.3,0.8,0.6,0.9,0.7c0,0,0.1,0.1,0.1,0.1c0,0,0,0.1,0,0.1
				c0,0,0,0.1-0.1,0.1c0,0-0.1,0-0.1,0c-0.1,0-0.4,0-1-0.1c-0.3-0.1-0.7-0.3-1.2-0.5C36.6,52.9,36,52.3,35.8,52.1L35.8,52.1z
				 M39.4,53.8c-0.1,0-0.2,0-0.3-0.1c-0.1-0.1-0.1-0.1-0.1-0.3c0-0.1,0-0.1,0-0.2c0-0.1-0.1-0.1-0.1-0.2c-0.1,0-0.1,0-0.2,0
				c0,0-0.1,0-0.1,0c-0.1,0-0.1,0.1-0.1,0.1c-0.1,0.1-0.2,0.1-0.3,0.1c0.1,0,0.2-0.1,0.1-0.3c0-0.2,0-0.2,0-0.2l0,0l0,0
				c-0.1-0.2-0.1-0.2-0.1-0.2c0,0,0,0,0-0.1l0,0l0,0c0,0-0.4,0.1-0.3-0.1l0,0l0,0c0,0-0.2,0.1-0.3,0.3c0,0.1-0.1,0.2-0.1,0.2
				c0,0,0,0-0.1,0c0,0,0,0,0,0c0,0,0-0.1-0.1-0.1c0-0.1-0.1-0.2-0.1-0.3c-0.1-0.1-0.2-0.1-0.2-0.1c-0.1,0-0.1,0-0.1-0.1
				c0,0,0,0,0-0.1c0,0,0,0,0-0.1c0,0,0,0,0.1-0.1c0.1-0.1,0.2-0.1,0.2-0.1c0.1,0,0.1,0,0.2,0.1c0,0,0.1,0,0.1,0c0.1,0,0.1,0,0.1,0
				c0,0,0.1-0.1,0.1-0.1c0,0,0,0,0-0.1l0,0c0,0,0,0,0,0c0,0,0,0.1-0.1,0.1c0,0-0.1,0-0.1,0c0,0-0.1,0-0.1,0c-0.1,0-0.2-0.1-0.2-0.1
				c-0.1,0-0.1,0-0.2,0.1c0,0-0.1,0.1-0.1,0.1c0,0,0,0.1,0,0.1c0,0,0,0,0.1,0.1c0,0,0.1,0.1,0.2,0.1c0.1,0,0.2,0,0.2,0.1
				c0.1,0,0.1,0.1,0.1,0.2c0,0.1,0,0.1,0.1,0.1c0,0,0,0,0.1,0c0,0,0,0,0.1,0c0.1,0,0.1-0.1,0.1-0.2c0-0.2,0.2-0.3,0.2-0.3
				c0,0.2,0.3,0.2,0.4,0.2c0,0,0,0,0,0.1c0,0,0,0.1,0.1,0.2c0,0-0.1,0.1,0,0.2c0,0.2-0.2,0.3-0.2,0.3l-0.1,0l0.1,0
				c0.2,0,0.3-0.1,0.4-0.2c0,0,0.1-0.1,0.1-0.1c0,0,0.1,0,0.1,0c0.1,0,0.1,0,0.2,0c0.1,0,0.1,0.1,0.1,0.1c0,0,0,0.1,0,0.1
				c0,0.1,0.1,0.2,0.1,0.3C39.2,53.8,39.3,53.8,39.4,53.8L39.4,53.8L39.4,53.8z M26.6,41l-0.6-1l0,0l0,0l-0.7,0.3l0,0l0,0l0.6,1.1
				l0,0l0,0L26.6,41L26.6,41L26.6,41L26.6,41z M26.1,40.1l0.5,0.9L26,40.7L26.1,40.1L26.1,40.1z M26,40.7l-0.6-0.3L26,40L26,40.7
				L26,40.7z M26.6,41L26,41.3l0-0.6L26.6,41L26.6,41z M26,41.3l-0.5-1l0.6,0.3L26,41.3L26,41.3z M27,41.1l-0.8-1.4l0,0l0,0l-1,0.5
				l0,0l0,0l0.8,1.4l0,0l0,0L27,41.1L27,41.1L27,41.1L27,41.1z M26.1,39.8l0.8,1.4l-1,0.5l-0.8-1.4L26.1,39.8L26.1,39.8z M22.2,33.9
				c-0.1,0-0.2,0.1-0.2,0.2c0,0.1,0.1,0.2,0.2,0.2c0.1,0,0.2-0.1,0.2-0.2C22.4,34,22.3,33.9,22.2,33.9L22.2,33.9z M37.2,51.6
				c-0.3-0.2-3.3-2.9-4.2-3.8c-0.3-0.3-1-1-1.7-1.7c0,0.2-0.2,0.8-0.8,1.4c0.3,0.3,0.5,0.6,0.5,0.6s1.9,1.8,2.7,2.6
				c0.9,0.8,1.6,1.3,1.6,1.3c0,0,0,0,0,0h0l0,0l0.5-0.1c0-0.1,0-0.2,0-0.3c0-0.1,0-0.1,0-0.2c-0.1,0.1-0.4,0.3-0.8,0.1
				c-0.4-0.2,0-0.6,0-0.6l0,0c0,0-0.4,0.4,0,0.6c0.4,0.2,0.8-0.2,0.8-0.2l0,0l0,0l0,0l0,0c0,0-0.1,0.1-0.1,0.2c0,0.1,0,0.2,0,0.3
				L37.2,51.6L37.2,51.6z M27.7,41.9c-0.1-0.2-0.4-0.5-0.5-0.6c0,0,0,0,0,0l-1.4,0.7c0,0,0,0,0,0c0.1,0.1,0.9,1.3,1,1.5
				c0.1,0.2,0.5,0.6,0.7,0.9c0-0.1,0-0.5,0-0.8c0-0.4,0-0.8,0-1c0-0.2,0-0.3,0-0.3L27.7,41.9L27.7,41.9z M27.3,41
				c0-0.1-1.3-2.2-1.7-2.7c-0.3-0.5-1.9-2.9-2.3-3.4c-0.4-0.5-1.4-1.8-1.7-1.7c-0.3,0.1,0.4,1.9,0.5,2.1c0.1,0.2,1.8,3.6,2.1,4.2
				c0.3,0.6,1.2,2.2,1.3,2.3c0.1,0.1,0.1,0.1,0.1,0.1c0,0,0,0,0.1,0c-0.1-0.2-1.1-2-1.3-2.3c-0.1-0.2-0.6-1.1-1-1.9
				c-0.3-0.6-0.6-1.1-0.6-1.3c0-0.1-0.1-0.2-0.2-0.3c-0.2-0.4-0.5-1.1-0.7-1.7c-0.2-0.5-0.3-0.8-0.1-0.9c0.3-0.1,0.8,0.7,1.3,1.4
				c0.2,0.3,0.4,0.6,0.5,0.7c0.3,0.3,1.2,1.8,1.7,2.7c0.2,0.3,0.4,0.6,0.4,0.7c0.1,0.1,0.3,0.4,0.5,0.7c0.2,0.2,0.3,0.5,0.4,0.6
				c0.1,0.2,0.5,0.9,0.6,1C27.3,41.1,27.3,41.1,27.3,41L27.3,41z M25.8,41.8c0.4-0.2,0.9-0.4,1.3-0.6c0,0,0,0,0,0
				c-0.1-0.1-0.5-0.8-0.6-1c-0.1-0.1-0.2-0.3-0.4-0.6l0,0l-1.3,0.6C25.2,40.8,25.7,41.7,25.8,41.8L25.8,41.8z M26.2,39.5
				c-0.2-0.3-0.3-0.5-0.4-0.6c0-0.1-0.2-0.3-0.4-0.7c-0.5-0.9-1.4-2.3-1.7-2.7c-0.1-0.1-0.3-0.4-0.5-0.7c-0.1-0.1-0.2-0.2-0.2-0.3
				l-0.7,0.3c0.2,0.4,0.4,0.9,0.5,1.2c0.1,0.1,0.1,0.3,0.2,0.3c0.1,0.2,0.3,0.7,0.6,1.3c0.4,0.8,0.9,1.7,1,1.9
				c0.1,0.1,0.2,0.4,0.4,0.7L26.2,39.5L26.2,39.5z M22.8,34.5c-0.4-0.5-0.8-1-1-1c-0.1,0,0,0.4,0.1,0.9c0.1,0.1,0.1,0.3,0.2,0.5
				L22.8,34.5L22.8,34.5z"/>
			<g>
				<path fill-rule="evenodd" clip-rule="evenodd" fill="#FFFFFF" d="M21.6,47c-0.1-0.9,0-1.3,0-1.5l-0.9,0.7L21.6,47L21.6,47z"/>
				<path fill-rule="evenodd" clip-rule="evenodd" fill="#FFFFFF" d="M20.1,46.6c0.5,0.3,1.3,0.6,1.5,0.6c0-0.1,0-0.1,0-0.2
					l-0.9-0.9L20.1,46.6L20.1,46.6z"/>
				<path fill-rule="evenodd" clip-rule="evenodd" fill="#FFFFFF" d="M20.2,45.7c-0.3,0.1-0.4,0.2-0.4,0.4c0,0.2,0.2,0.3,0.4,0.5
					l0.5-0.4L20.2,45.7L20.2,45.7z"/>
				<path fill-rule="evenodd" clip-rule="evenodd" fill="#FFFFFF" d="M21.6,45.4c-0.1,0-0.9,0.1-1.4,0.3l0.5,0.4L21.6,45.4
					C21.6,45.4,21.6,45.4,21.6,45.4L21.6,45.4z"/>
				<path fill-rule="evenodd" clip-rule="evenodd" fill="#FFFFFF" d="M22.4,45.3c0,0-0.1-0.1-0.1-0.1c-0.1,0-0.4,0-0.5,0.1
					c-0.1,0-0.1,0.1-0.1,0.1c0,0.1,0,0.1,0,0.1c0,0.2-0.1,0.7,0,1.7c0,0,0,0,0,0c0,0,0.1,0.1,0.1,0.1c0.1,0,0.5,0.1,0.5,0.1
					c0,0,0.1,0,0.1,0C22.2,46.2,22.4,45.5,22.4,45.3L22.4,45.3z"/>
				<path fill-rule="evenodd" clip-rule="evenodd" fill="#FFFFFF" d="M26.8,45.1L26.8,45.1c0,0-0.1,0-0.2,0l-4.1,2.3
					c0.1,0,0.1,0.1,0.3,0.1l0.6-0.3l3.4-2C26.8,45.2,26.8,45.1,26.8,45.1L26.8,45.1z M26.5,45.1c-0.1,0-0.3,0-0.5,0l-3.6,2.1
					c0,0.1,0,0.1,0,0.2c0,0,0,0,0,0L26.5,45.1L26.5,45.1z M25.9,45.1c-0.1,0-0.3,0-0.5,0l-3.1,1.8c0,0.1,0,0.2,0,0.2L25.9,45.1
					L25.9,45.1z M25.4,45.1c-0.2,0-0.3,0-0.5,0l-2.5,1.4c0,0.1,0,0.2,0,0.2L25.4,45.1L25.4,45.1z M24.8,45.2c-0.2,0-0.3,0-0.5,0
					l-2,1.1c0,0.1,0,0.2,0,0.3L24.8,45.2L24.8,45.2z M24.2,45.2c-0.2,0-0.3,0-0.5,0L22.4,46c0,0.1,0,0.2,0,0.3L24.2,45.2L24.2,45.2z
					 M23.7,45.2c-0.2,0-0.3,0-0.5,0l-0.8,0.5c0,0.1,0,0.2,0,0.3L23.7,45.2L23.7,45.2z M23.1,45.2c-0.2,0-0.3,0-0.4,0l-0.2,0.1
					c0,0.1,0,0.1,0,0.2L23.1,45.2L23.1,45.2z M22.5,45.3c0,0-0.1,0-0.1,0c0,0,0,0,0,0.1L22.5,45.3L22.5,45.3z M22.8,47.5
					c0.1,0,0.2,0,0.3,0.1l3.6-2.1c0-0.1,0-0.2,0-0.2L22.8,47.5L22.8,47.5z M23.2,47.6c0.1,0,0.2,0,0.3,0.1l3.2-1.9
					c0-0.1,0-0.2,0-0.3L23.2,47.6L23.2,47.6z M23.5,47.7c0.1,0,0.3,0.1,0.4,0.1l2.7-1.6c0-0.1,0-0.2,0-0.3L23.5,47.7L23.5,47.7z
					 M24,47.8c0.1,0,0.2,0,0.3,0.1l2.3-1.4c0-0.1,0-0.2,0-0.3L24,47.8L24,47.8z M24.4,47.9c0.1,0,0.3,0,0.4,0.1l1.9-1.1
					c0,0,0-0.1,0-0.1c0-0.1,0-0.1,0-0.2L24.4,47.9L24.4,47.9z M24.8,48c0.1,0,0.2,0,0.4,0.1l1.5-0.8c0-0.1,0-0.2,0-0.3L24.8,48
					L24.8,48z M25.3,48c0.1,0,0.2,0,0.4,0.1l1.1-0.6c0-0.1,0-0.2,0-0.2L25.3,48L25.3,48z M25.7,48.1c0.2,0,0.3,0,0.5,0.1l0.6-0.3
					c0-0.1,0-0.2,0-0.3L25.7,48.1L25.7,48.1z M26.2,48.2c0.1,0,0.2,0,0.4,0l0.2-0.1c0-0.1,0-0.2,0-0.2L26.2,48.2L26.2,48.2z
					 M26.6,48.2c0.1,0,0.1,0,0.2,0c0,0,0-0.1,0-0.1L26.6,48.2L26.6,48.2z"/>
				<path fill-rule="evenodd" clip-rule="evenodd" fill="#FFFFFF" d="M27.4,45C27.4,45,27.4,45,27.4,45c-0.2,0-0.5,0-0.5,0
					c0,0,0,0-0.1,0c0,0.3-0.1,1.3-0.1,1.8c0,0.4,0.1,1.2,0.1,1.5c0,0,0.1,0,0.1,0c0.1,0,0.4,0,0.4,0c0,0,0.1,0,0.1,0
					c0-0.3-0.2-1.2-0.2-1.6c0-0.2,0-0.5,0-0.7C27.4,45.5,27.4,45.2,27.4,45L27.4,45L27.4,45z"/>
				<path fill-rule="evenodd" clip-rule="evenodd" fill="#FFFFFF" d="M27.7,42.2l0,0.2l0.1-0.1L27.7,42.2L27.7,42.2z M27.9,42.3
					L27.9,42.3C27.9,42.2,27.8,42.2,27.9,42.3L27.9,42.3L27.9,42.3z M27.7,42.4L27.7,42.4l0.2,0.1l0.2-0.1l-0.2-0.1L27.7,42.4
					L27.7,42.4z M27.7,42.5c0,0.1,0,0.1,0,0.2l0.1-0.1L27.7,42.5L27.7,42.5z M28.1,42.4l0.2-0.1l0,0c-0.1,0-0.2,0-0.3,0l-0.1,0.1
					L28.1,42.4L28.1,42.4z M27.7,42.7L27.7,42.7l0.2,0.1l0.2-0.1l-0.2-0.1L27.7,42.7L27.7,42.7z M27.7,42.8l0,0.2l0.1-0.1L27.7,42.8
					L27.7,42.8z M28.1,42.7l0.2-0.1l-0.2-0.1l-0.2,0.1L28.1,42.7L28.1,42.7z M28.3,42.6l0.2-0.1l-0.2-0.1l-0.2,0.1L28.3,42.6
					L28.3,42.6z M28.5,42.4l0.1-0.1c-0.1,0-0.2,0-0.3,0h0L28.5,42.4L28.5,42.4z M27.7,43.1L27.7,43.1l0.2,0.1l0.2-0.1l-0.2-0.1
					L27.7,43.1L27.7,43.1z M27.7,43.1c0,0.1,0,0.1,0,0.2l0.1-0.1L27.7,43.1L27.7,43.1z M28.1,43.1l0.2-0.1l-0.2-0.1l-0.2,0.1
					L28.1,43.1L28.1,43.1z M28.3,42.9l0.2-0.1l-0.2-0.1l-0.2,0.1L28.3,42.9L28.3,42.9z M28.5,42.7l0.2-0.1l-0.2-0.1l-0.2,0.1
					L28.5,42.7L28.5,42.7z M28.7,42.6l0.2-0.1l-0.1-0.1l0,0l-0.1,0.1L28.7,42.6L28.7,42.6z M28.9,42.4L28.9,42.4
					c0-0.1,0-0.1-0.1-0.1L28.9,42.4L28.9,42.4z M27.7,43.4L27.7,43.4l0.2,0.1l0.2-0.1l-0.2-0.1L27.7,43.4L27.7,43.4z M27.7,43.4
					c0,0.1,0,0.2,0,0.2l0.1-0.1L27.7,43.4L27.7,43.4z M28.1,43.4l0.2-0.1l-0.2-0.1l-0.2,0.1L28.1,43.4L28.1,43.4z M28.3,43.2
					l0.2-0.1l-0.2-0.1l-0.2,0.1L28.3,43.2L28.3,43.2z M28.5,43.1l0.2-0.1l-0.2-0.1l-0.2,0.1L28.5,43.1L28.5,43.1z M28.7,42.9
					l0.2-0.1l-0.2-0.1l-0.2,0.1L28.7,42.9L28.7,42.9z M28.9,42.7l0.2-0.1l-0.2-0.1l-0.2,0.1L28.9,42.7L28.9,42.7z M29.1,42.6
					l0.2-0.1l-0.1-0.1c0,0-0.1,0-0.1,0l-0.1,0.1L29.1,42.6L29.1,42.6z M29.3,42.4L29.3,42.4C29.3,42.4,29.2,42.4,29.3,42.4
					L29.3,42.4L29.3,42.4z M27.7,43.8c0,0.1,0,0.2,0,0.2l0,0l0.2-0.1L27.7,43.8L27.7,43.8z M27.9,43.9l0.2-0.1l-0.2-0.1l-0.2,0.1
					L27.9,43.9L27.9,43.9z M28.1,43.7l0.2-0.1l-0.2-0.1l-0.2,0.1L28.1,43.7L28.1,43.7z M28.3,43.5l0.2-0.1l-0.2-0.1l-0.2,0.1
					L28.3,43.5L28.3,43.5z M28.5,43.4l0.2-0.1l-0.2-0.1l-0.2,0.1L28.5,43.4L28.5,43.4z M28.7,43.2l0.2-0.1l-0.2-0.1l-0.2,0.1
					L28.7,43.2L28.7,43.2z M28.9,43.1l0.2-0.1l-0.2-0.1l-0.2,0.1L28.9,43.1L28.9,43.1z M29.1,42.9l0.2-0.1l-0.2-0.1l-0.2,0.1
					L29.1,42.9L29.1,42.9z M29.3,42.7l0.2-0.1l-0.2-0.1l-0.2,0.1L29.3,42.7L29.3,42.7z M29.5,42.6l0.2-0.1l-0.1-0.1
					c-0.1,0-0.1,0-0.2,0l-0.1,0.1L29.5,42.6L29.5,42.6z M29.7,42.4L29.7,42.4C29.7,42.4,29.7,42.4,29.7,42.4L29.7,42.4L29.7,42.4
					L29.7,42.4z M27.7,44.1c0,0.1,0,0.2,0,0.3l0,0l0.2-0.1L27.7,44.1L27.7,44.1z M27.9,44.2l0.2-0.1l-0.2-0.1L27.7,44L27.9,44.2
					L27.9,44.2z M28.1,44l0.2-0.1l-0.2-0.1l-0.2,0.1L28.1,44L28.1,44z M28.3,43.9l0.2-0.1l-0.2-0.1l-0.2,0.1L28.3,43.9L28.3,43.9z
					 M28.5,43.7l0.2-0.1l-0.2-0.1l-0.2,0.1L28.5,43.7L28.5,43.7z M28.7,43.5l0.2-0.1l-0.2-0.1l-0.2,0.1L28.7,43.5L28.7,43.5z
					 M28.9,43.4l0.2-0.1l-0.2-0.1l-0.2,0.1L28.9,43.4L28.9,43.4z M29.1,43.2l0.2-0.1l-0.2-0.1l-0.2,0.1L29.1,43.2L29.1,43.2z
					 M29.3,43.1l0.2-0.1l-0.2-0.1l-0.2,0.1L29.3,43.1L29.3,43.1z M29.5,42.9l0.2-0.1l-0.2-0.1l-0.2,0.1L29.5,42.9L29.5,42.9z
					 M29.7,42.7l0.2-0.1l-0.2-0.1l-0.2,0.1L29.7,42.7L29.7,42.7z M29.9,42.6l0.2-0.1l-0.1-0.1c0,0-0.1,0-0.1,0l-0.1,0.1L29.9,42.6
					L29.9,42.6z M30,42.4L30,42.4C30.1,42.4,30,42.4,30,42.4L30,42.4L30,42.4z M27.7,44.4c0,0.1,0,0.1,0,0.2l0.1,0l0.2-0.1
					L27.7,44.4L27.7,44.4L27.7,44.4z M27.6,44.7C27.6,44.7,27.6,44.7,27.6,44.7L27.6,44.7L27.6,44.7L27.6,44.7z M27.9,44.5l0.2-0.1
					l-0.2-0.1l-0.2,0.1L27.9,44.5L27.9,44.5z M28.1,44.3l0.2-0.1l-0.2-0.1l-0.2,0.1L28.1,44.3L28.1,44.3z M28.3,44.2l0.2-0.1
					l-0.2-0.1L28.1,44L28.3,44.2L28.3,44.2z M28.5,44l0.2-0.1l-0.2-0.1l-0.2,0.1L28.5,44L28.5,44z M28.7,43.9l0.2-0.1l-0.2-0.1
					l-0.2,0.1L28.7,43.9L28.7,43.9z M28.9,43.7l0.2-0.1l-0.2-0.1l-0.2,0.1L28.9,43.7L28.9,43.7z M29.1,43.5l0.2-0.1l-0.2-0.1
					l-0.2,0.1L29.1,43.5L29.1,43.5z M29.3,43.4l0.2-0.1l-0.2-0.1l-0.2,0.1L29.3,43.4L29.3,43.4z M29.5,43.2l0.2-0.1l-0.2-0.1
					l-0.2,0.1L29.5,43.2L29.5,43.2z M29.7,43.1l0.2-0.1l-0.2-0.1l-0.2,0.1L29.7,43.1L29.7,43.1z M29.9,42.9l0.2-0.1l-0.2-0.1
					l-0.2,0.1L29.9,42.9L29.9,42.9z M30,42.7l0.2-0.1L30,42.5l-0.2,0.1L30,42.7L30,42.7z M30.2,42.6l0.2-0.1l-0.1-0.1
					c0,0-0.1,0-0.1,0l-0.1,0.1L30.2,42.6L30.2,42.6z M30.4,42.4l0.1-0.1C30.5,42.3,30.4,42.3,30.4,42.4L30.4,42.4L30.4,42.4z
					 M27.6,44.8C27.6,44.8,27.6,44.8,27.6,44.8l0.1,0.2l0.2-0.1l-0.2-0.1L27.6,44.8L27.6,44.8z M27.5,44.9
					C27.5,44.9,27.5,45,27.5,44.9L27.5,45c0,0,0,0.1,0,0.1l0,0l0.2-0.1L27.5,44.9L27.5,44.9z M27.5,45.2L27.5,45.2L27.5,45.2
					L27.5,45.2L27.5,45.2z M27.9,44.8l0.2-0.1l-0.2-0.1l-0.2,0.1L27.9,44.8L27.9,44.8z M28.1,44.7l0.2-0.1l-0.2-0.1l-0.2,0.1
					L28.1,44.7L28.1,44.7z M28.3,44.5l0.2-0.1l-0.2-0.1l-0.2,0.1L28.3,44.5L28.3,44.5z M28.5,44.3l0.2-0.1l-0.2-0.1l-0.2,0.1
					L28.5,44.3L28.5,44.3z M28.7,44.2l0.2-0.1l-0.2-0.1L28.5,44L28.7,44.2L28.7,44.2z M28.9,44l0.2-0.1l-0.2-0.1l-0.2,0.1L28.9,44
					L28.9,44z M29.1,43.9l0.2-0.1l-0.2-0.1l-0.2,0.1L29.1,43.9L29.1,43.9z M29.3,43.7l0.2-0.1l-0.2-0.1l-0.2,0.1L29.3,43.7
					L29.3,43.7z M29.5,43.5l0.2-0.1l-0.2-0.1l-0.2,0.1L29.5,43.5L29.5,43.5z M29.7,43.4l0.2-0.1l-0.2-0.1l-0.2,0.1L29.7,43.4
					L29.7,43.4z M29.9,43.2l0.2-0.1l-0.2-0.1l-0.2,0.1L29.9,43.2L29.9,43.2z M30,43.1l0.2-0.1L30,42.8l-0.2,0.1L30,43.1L30,43.1z
					 M30.2,42.9l0.2-0.1l-0.2-0.1l-0.2,0.1L30.2,42.9L30.2,42.9z M30.4,42.7l0.2-0.1l-0.2-0.1l-0.2,0.1L30.4,42.7L30.4,42.7z
					 M30.6,42.6l0.2-0.1l-0.2-0.1h0l-0.2,0.1L30.6,42.6L30.6,42.6z M30.8,42.4l0.2-0.1l0,0c-0.1,0-0.2,0-0.3,0L30.8,42.4L30.8,42.4z
					 M31,42.3L31,42.3L31,42.3L31,42.3L31,42.3z M27.4,45.2c0,0.1,0,0.1,0,0.2l0.1,0l0.2-0.1L27.4,45.2L27.4,45.2L27.4,45.2z
					 M27.4,45.5L27.4,45.5L27.4,45.5L27.4,45.5L27.4,45.5z M27.7,45.3l0.2-0.1L27.7,45l-0.2,0.1L27.7,45.3L27.7,45.3z M27.9,45.1
					L28,45l-0.2-0.1L27.7,45L27.9,45.1L27.9,45.1z M28.1,45l0.2-0.1l-0.2-0.1l-0.2,0.1L28.1,45L28.1,45z M28.3,44.8l0.2-0.1
					l-0.2-0.1l-0.2,0.1L28.3,44.8L28.3,44.8z M28.5,44.7l0.2-0.1l-0.2-0.1l-0.2,0.1L28.5,44.7L28.5,44.7z M28.7,44.5l0.2-0.1
					l-0.2-0.1l-0.2,0.1L28.7,44.5L28.7,44.5z M28.9,44.3l0.2-0.1l-0.2-0.1l-0.2,0.1L28.9,44.3L28.9,44.3z M29.1,44.2l0.2-0.1
					l-0.2-0.1L28.9,44L29.1,44.2L29.1,44.2z M29.3,44l0.2-0.1l-0.2-0.1l-0.2,0.1L29.3,44L29.3,44z M29.5,43.9l0.2-0.1l-0.2-0.1
					l-0.2,0.1L29.5,43.9L29.5,43.9z M29.7,43.7l0.2-0.1l-0.2-0.1l-0.2,0.1L29.7,43.7L29.7,43.7z M29.9,43.5l0.2-0.1l-0.2-0.1
					l-0.2,0.1L29.9,43.5L29.9,43.5z M30,43.4l0.2-0.1L30,43.1l-0.2,0.1L30,43.4L30,43.4z M30.2,43.2l0.2-0.1l-0.2-0.1l-0.2,0.1
					L30.2,43.2L30.2,43.2z M30.4,43.1l0.2-0.1l-0.2-0.1l-0.2,0.1L30.4,43.1L30.4,43.1z M30.6,42.9l0.2-0.1l-0.2-0.1l-0.2,0.1
					L30.6,42.9L30.6,42.9z M30.8,42.7l0.2-0.1l-0.2-0.1l-0.2,0.1L30.8,42.7L30.8,42.7z M31,42.6l0.2-0.1L31,42.3l-0.2,0.1L31,42.6
					L31,42.6z M31.2,42.4l0.2-0.2v-0.1c-0.1,0-0.2,0-0.3,0.1l-0.1,0L31.2,42.4L31.2,42.4z M27.4,45.6c0,0,0,0.1,0,0.1l0.1,0.1
					l0.2-0.1L27.4,45.6L27.4,45.6L27.4,45.6z M27.4,45.8c0,0,0,0.1,0,0.1L27.4,45.8L27.4,45.8L27.4,45.8z M27.7,45.6l0.2-0.1
					l-0.2-0.1l-0.2,0.1L27.7,45.6L27.7,45.6z M27.9,45.5l0.2-0.1l-0.2-0.1l-0.2,0.1L27.9,45.5L27.9,45.5z M28.1,45.3l0.2-0.1
					L28.1,45l-0.2,0.1L28.1,45.3L28.1,45.3z M28.3,45.1l0.2-0.1l-0.2-0.1L28.1,45L28.3,45.1L28.3,45.1z M28.5,45l0.2-0.1l-0.2-0.1
					l-0.2,0.1L28.5,45L28.5,45z M28.7,44.8l0.2-0.1l-0.2-0.1l-0.2,0.1L28.7,44.8L28.7,44.8z M28.9,44.7l0.2-0.1l-0.2-0.1l-0.2,0.1
					L28.9,44.7L28.9,44.7z M29.1,44.5l0.2-0.1l-0.2-0.1l-0.2,0.1L29.1,44.5L29.1,44.5z M29.3,44.3l0.2-0.1l-0.2-0.1l-0.2,0.1
					L29.3,44.3L29.3,44.3z M29.5,44.2l0.2-0.1l-0.2-0.1L29.3,44L29.5,44.2L29.5,44.2z M29.7,44l0.2-0.1l-0.2-0.1l-0.2,0.1L29.7,44
					L29.7,44z M29.9,43.9l0.2-0.1l-0.2-0.1l-0.2,0.1L29.9,43.9L29.9,43.9z M30,43.7l0.2-0.1L30,43.4l-0.2,0.1L30,43.7L30,43.7z
					 M30.2,43.5l0.2-0.1l-0.2-0.1l-0.2,0.1L30.2,43.5L30.2,43.5z M30.4,43.4l0.2-0.1l-0.2-0.1l-0.2,0.1L30.4,43.4L30.4,43.4z
					 M30.6,43.2l0.2-0.1l-0.2-0.1l-0.2,0.1L30.6,43.2L30.6,43.2z M30.8,43.1l0.2-0.1l-0.2-0.1l-0.2,0.1L30.8,43.1L30.8,43.1z
					 M31,42.9l0.2-0.1L31,42.6l-0.2,0.1L31,42.9L31,42.9z M31.2,42.7l0.2-0.1l-0.2-0.1l-0.2,0.1L31.2,42.7L31.2,42.7z M31.4,42.6
					v-0.3l-0.2,0.1L31.4,42.6L31.4,42.6z M27.4,45.9L27.4,45.9c0,0.1,0,0.1,0,0.1l0.1,0.1l0.2-0.1L27.4,45.9L27.4,45.9L27.4,45.9z
					 M27.4,46.1c0,0,0,0.1,0,0.1L27.4,46.1L27.4,46.1L27.4,46.1z M27.7,45.9l0.2-0.1l-0.2-0.1l-0.2,0.1L27.7,45.9L27.7,45.9z
					 M27.9,45.8l0.2-0.1l-0.2-0.1l-0.2,0.1L27.9,45.8L27.9,45.8z M28.1,45.6l0.2-0.1l-0.2-0.1l-0.2,0.1L28.1,45.6L28.1,45.6z
					 M28.3,45.5l0.2-0.1l-0.2-0.1l-0.2,0.1L28.3,45.5L28.3,45.5z M28.5,45.3l0.2-0.1L28.5,45l-0.2,0.1L28.5,45.3L28.5,45.3z
					 M28.7,45.1l0.2-0.1l-0.2-0.1L28.5,45L28.7,45.1L28.7,45.1z M28.9,45l0.2-0.1l-0.2-0.1l-0.2,0.1L28.9,45L28.9,45z M29.1,44.8
					l0.2-0.1l-0.2-0.1l-0.2,0.1L29.1,44.8L29.1,44.8z M29.3,44.7l0.2-0.1l-0.2-0.1l-0.2,0.1L29.3,44.7L29.3,44.7z M29.5,44.5
					l0.2-0.1l-0.2-0.1l-0.2,0.1L29.5,44.5L29.5,44.5z M29.7,44.3l0.2-0.1l-0.2-0.1l-0.2,0.1L29.7,44.3L29.7,44.3z M29.9,44.2L30,44
					l-0.2-0.1L29.7,44L29.9,44.2L29.9,44.2z M30,44l0.2-0.1L30,43.7l-0.2,0.1L30,44L30,44z M30.2,43.9l0.2-0.1l-0.2-0.1l-0.2,0.1
					L30.2,43.9L30.2,43.9z M30.4,43.7l0.2-0.1l-0.2-0.1l-0.2,0.1L30.4,43.7L30.4,43.7z M30.6,43.5l0.2-0.1l-0.2-0.1l-0.2,0.1
					L30.6,43.5L30.6,43.5z M30.8,43.4l0.2-0.1l-0.2-0.1l-0.2,0.1L30.8,43.4L30.8,43.4z M31,43.2l0.2-0.1L31,42.9l-0.2,0.1L31,43.2
					L31,43.2z M31.2,43.1l0.2-0.1l-0.2-0.1l-0.2,0.1L31.2,43.1L31.2,43.1z M31.4,42.9v-0.3l-0.2,0.1L31.4,42.9L31.4,42.9z
					 M27.4,46.2C27.4,46.3,27.4,46.3,27.4,46.2l0.1,0.2l0.2-0.1l-0.2-0.1L27.4,46.2L27.4,46.2z M27.4,46.4c0,0.1,0,0.1,0,0.2
					L27.4,46.4L27.4,46.4L27.4,46.4z M27.7,46.3l0.2-0.1L27.7,46l-0.2,0.1L27.7,46.3L27.7,46.3z M27.9,46.1L28,46l-0.2-0.1L27.7,46
					L27.9,46.1L27.9,46.1z M28.1,45.9l0.2-0.1l-0.2-0.1l-0.2,0.1L28.1,45.9L28.1,45.9z M28.3,45.8l0.2-0.1l-0.2-0.1l-0.2,0.1
					L28.3,45.8L28.3,45.8z M28.5,45.6l0.2-0.1l-0.2-0.1l-0.2,0.1L28.5,45.6L28.5,45.6z M28.7,45.5l0.2-0.1l-0.2-0.1l-0.2,0.1
					L28.7,45.5L28.7,45.5z M28.9,45.3l0.2-0.1L28.9,45l-0.2,0.1L28.9,45.3L28.9,45.3z M29.1,45.1l0.2-0.1l-0.2-0.1L28.9,45
					L29.1,45.1L29.1,45.1z M29.3,45l0.2-0.1l-0.2-0.1l-0.2,0.1L29.3,45L29.3,45z M29.5,44.8l0.2-0.1l-0.2-0.1l-0.2,0.1L29.5,44.8
					L29.5,44.8z M29.7,44.7l0.2-0.1l-0.2-0.1l-0.2,0.1L29.7,44.7L29.7,44.7z M29.9,44.5l0.2-0.1l-0.2-0.1l-0.2,0.1L29.9,44.5
					L29.9,44.5z M30,44.3l0.2-0.1L30,44.1l-0.2,0.1L30,44.3L30,44.3z M30.2,44.2l0.2-0.1l-0.2-0.1L30.1,44L30.2,44.2L30.2,44.2z
					 M30.4,44l0.2-0.1l-0.2-0.1l-0.2,0.1L30.4,44L30.4,44z M30.6,43.9l0.2-0.1l-0.2-0.1l-0.2,0.1L30.6,43.9L30.6,43.9z M30.8,43.7
					l0.2-0.1l-0.2-0.1l-0.2,0.1L30.8,43.7L30.8,43.7z M31,43.5l0.2-0.1L31,43.3l-0.2,0.1L31,43.5L31,43.5z M31.2,43.4l0.2-0.1
					l-0.2-0.1l-0.2,0.1L31.2,43.4L31.2,43.4z M31.4,43.2v-0.3l-0.2,0.1L31.4,43.2L31.4,43.2z M27.4,46.6
					C27.4,46.6,27.4,46.6,27.4,46.6l0.1,0.2l0.2-0.1l-0.2-0.1L27.4,46.6L27.4,46.6z M27.4,46.7c0,0.1,0,0.1,0,0.2l0.1-0.1L27.4,46.7
					L27.4,46.7z M27.7,46.6l0.2-0.1l-0.2-0.1l-0.2,0.1L27.7,46.6L27.7,46.6z M27.9,46.4l0.2-0.1l-0.2-0.1l-0.2,0.1L27.9,46.4
					L27.9,46.4z M28.1,46.3l0.2-0.1L28.1,46l-0.2,0.1L28.1,46.3L28.1,46.3z M28.3,46.1l0.2-0.1l-0.2-0.1L28.1,46L28.3,46.1
					L28.3,46.1z M28.5,45.9l0.2-0.1l-0.2-0.1l-0.2,0.1L28.5,45.9L28.5,45.9z M28.7,45.8l0.2-0.1l-0.2-0.1l-0.2,0.1L28.7,45.8
					L28.7,45.8z M28.9,45.6l0.2-0.1l-0.2-0.1l-0.2,0.1L28.9,45.6L28.9,45.6z M29.1,45.5l0.2-0.1l-0.2-0.1l-0.2,0.1L29.1,45.5
					L29.1,45.5z M29.3,45.3l0.2-0.1L29.3,45l-0.2,0.1L29.3,45.3L29.3,45.3z M29.5,45.1l0.2-0.1l-0.2-0.1L29.3,45L29.5,45.1
					L29.5,45.1z M29.7,45l0.2-0.1l-0.2-0.1l-0.2,0.1L29.7,45L29.7,45z M29.9,44.8l0.2-0.1l-0.2-0.1l-0.2,0.1L29.9,44.8L29.9,44.8z
					 M30,44.7l0.2-0.1L30,44.4l-0.2,0.1L30,44.7L30,44.7z M30.2,44.5l0.2-0.1l-0.2-0.1l-0.2,0.1L30.2,44.5L30.2,44.5z M30.4,44.3
					l0.2-0.1l-0.2-0.1l-0.2,0.1L30.4,44.3L30.4,44.3z M30.6,44.2l0.2-0.1l-0.2-0.1L30.5,44L30.6,44.2L30.6,44.2z M30.8,44l0.2-0.1
					l-0.2-0.1l-0.2,0.1L30.8,44L30.8,44z M31,43.9l0.2-0.1L31,43.6l-0.2,0.1L31,43.9L31,43.9z M31.2,43.7l0.2-0.1l-0.2-0.1l-0.2,0.1
					L31.2,43.7L31.2,43.7z M31.4,43.5v-0.3l-0.2,0.1L31.4,43.5L31.4,43.5z M27.4,46.9C27.4,46.9,27.4,46.9,27.4,46.9l0.1,0.2
					l0.2-0.1l-0.2-0.1L27.4,46.9L27.4,46.9z M27.4,47c0,0,0,0.1,0,0.1L27.4,47L27.4,47L27.4,47z M27.7,46.9l0.2-0.1l-0.2-0.1
					l-0.2,0.1L27.7,46.9L27.7,46.9z M27.9,46.7l0.2-0.1l-0.2-0.1l-0.2,0.1L27.9,46.7L27.9,46.7z M28.1,46.6l0.2-0.1l-0.2-0.1
					l-0.2,0.1L28.1,46.6L28.1,46.6z M28.3,46.4l0.2-0.1l-0.2-0.1l-0.2,0.1L28.3,46.4L28.3,46.4z M28.5,46.3l0.2-0.1L28.5,46
					l-0.2,0.1L28.5,46.3L28.5,46.3z M28.7,46.1l0.2-0.1l-0.2-0.1L28.5,46L28.7,46.1L28.7,46.1z M28.9,45.9l0.2-0.1l-0.2-0.1
					l-0.2,0.1L28.9,45.9L28.9,45.9z M29.1,45.8l0.2-0.1l-0.2-0.1l-0.2,0.1L29.1,45.8L29.1,45.8z M29.3,45.6l0.2-0.1l-0.2-0.1
					l-0.2,0.1L29.3,45.6L29.3,45.6z M29.5,45.5l0.2-0.1l-0.2-0.1l-0.2,0.1L29.5,45.5L29.5,45.5z M29.7,45.3l0.2-0.1L29.7,45
					l-0.2,0.1L29.7,45.3L29.7,45.3z M29.9,45.1L30,45l-0.2-0.1L29.7,45L29.9,45.1L29.9,45.1z M30.1,45l0.2-0.1L30,44.7l-0.2,0.1
					L30.1,45L30.1,45z M30.2,44.8l0.2-0.1l-0.2-0.1l-0.2,0.1L30.2,44.8L30.2,44.8z M30.4,44.7l0.2-0.1l-0.2-0.1l-0.2,0.1L30.4,44.7
					L30.4,44.7z M30.6,44.5l0.2-0.1l-0.2-0.1l-0.2,0.1L30.6,44.5L30.6,44.5z M30.8,44.3l0.2-0.1l-0.2-0.1l-0.2,0.1L30.8,44.3
					L30.8,44.3z M31,44.2l0.2-0.1L31,43.9L30.9,44L31,44.2L31,44.2z M31.2,44l0.2-0.1l-0.2-0.1l-0.2,0.1L31.2,44L31.2,44z
					 M31.4,43.8v-0.3l-0.2,0.1L31.4,43.8L31.4,43.8z M27.4,47.2c0,0,0,0.1,0,0.1l0.1,0.1l0.2-0.1l-0.2-0.1L27.4,47.2L27.4,47.2z
					 M27.4,47.4C27.4,47.4,27.4,47.4,27.4,47.4L27.4,47.4L27.4,47.4L27.4,47.4z M27.7,47.2l0.2-0.1l-0.2-0.1l-0.2,0.1L27.7,47.2
					L27.7,47.2z M27.9,47.1l0.2-0.1l-0.2-0.1l-0.2,0.1L27.9,47.1L27.9,47.1z M28.1,46.9l0.2-0.1l-0.2-0.1l-0.2,0.1L28.1,46.9
					L28.1,46.9z M28.3,46.7l0.2-0.1l-0.2-0.1l-0.2,0.1L28.3,46.7L28.3,46.7z M28.5,46.6l0.2-0.1l-0.2-0.1l-0.2,0.1L28.5,46.6
					L28.5,46.6z M28.7,46.4l0.2-0.1l-0.2-0.1l-0.2,0.1L28.7,46.4L28.7,46.4z M28.9,46.3l0.2-0.1L28.9,46l-0.2,0.1L28.9,46.3
					L28.9,46.3z M29.1,46.1l0.2-0.1l-0.2-0.1L28.9,46L29.1,46.1L29.1,46.1z M29.3,45.9l0.2-0.1l-0.2-0.1l-0.2,0.1L29.3,45.9
					L29.3,45.9z M29.5,45.8l0.2-0.1l-0.2-0.1l-0.2,0.1L29.5,45.8L29.5,45.8z M29.7,45.6l0.2-0.1l-0.2-0.1l-0.2,0.1L29.7,45.6
					L29.7,45.6z M29.9,45.5l0.2-0.1l-0.2-0.1l-0.2,0.1L29.9,45.5L29.9,45.5z M30.1,45.3l0.2-0.1L30.1,45l-0.2,0.1L30.1,45.3
					L30.1,45.3z M30.2,45.1l0.2-0.1l-0.2-0.1L30.1,45L30.2,45.1L30.2,45.1z M30.4,45l0.2-0.1l-0.2-0.1l-0.2,0.1L30.4,45L30.4,45z
					 M30.6,44.8l0.2-0.1l-0.2-0.1l-0.2,0.1L30.6,44.8L30.6,44.8z M30.8,44.7l0.2-0.1l-0.2-0.1l-0.2,0.1L30.8,44.7L30.8,44.7z
					 M31,44.5l0.2-0.1L31,44.2l-0.2,0.1L31,44.5L31,44.5z M31.2,44.3l0.2-0.1l-0.2-0.1l-0.2,0.1L31.2,44.3L31.2,44.3z M31.4,44.2
					v-0.3L31.3,44L31.4,44.2L31.4,44.2z M27.4,47.5c0,0.1,0,0.1,0,0.2l0.1,0.1l0.2-0.1L27.4,47.5L27.4,47.5L27.4,47.5z M27.4,47.7
					L27.4,47.7L27.4,47.7L27.4,47.7L27.4,47.7z M27.7,47.5l0.2-0.1l-0.2-0.1l-0.2,0.1L27.7,47.5L27.7,47.5z M27.9,47.4l0.2-0.1
					l-0.2-0.1l-0.2,0.1L27.9,47.4L27.9,47.4z M28.1,47.2l0.2-0.1l-0.2-0.1l-0.2,0.1L28.1,47.2L28.1,47.2z M28.3,47.1l0.2-0.1
					l-0.2-0.1l-0.2,0.1L28.3,47.1L28.3,47.1z M28.5,46.9l0.2-0.1l-0.2-0.1l-0.2,0.1L28.5,46.9L28.5,46.9z M28.7,46.7l0.2-0.1
					l-0.2-0.1l-0.2,0.1L28.7,46.7L28.7,46.7z M28.9,46.6l0.2-0.1l-0.2-0.1l-0.2,0.1L28.9,46.6L28.9,46.6z M29.1,46.4l0.2-0.1
					l-0.2-0.1l-0.2,0.1L29.1,46.4L29.1,46.4z M29.3,46.3l0.2-0.1L29.3,46l-0.2,0.1L29.3,46.3L29.3,46.3z M29.5,46.1l0.2-0.1
					l-0.2-0.1L29.3,46L29.5,46.1L29.5,46.1z M29.7,45.9l0.2-0.1l-0.2-0.1l-0.2,0.1L29.7,45.9L29.7,45.9z M29.9,45.8l0.2-0.1
					l-0.2-0.1l-0.2,0.1L29.9,45.8L29.9,45.8z M30.1,45.6l0.2-0.1l-0.2-0.1l-0.2,0.1L30.1,45.6L30.1,45.6z M30.2,45.5l0.2-0.1
					l-0.2-0.1l-0.2,0.1L30.2,45.5L30.2,45.5z M30.4,45.3l0.2-0.1L30.4,45l-0.2,0.1L30.4,45.3L30.4,45.3z M30.6,45.1l0.2-0.1
					l-0.2-0.1L30.5,45L30.6,45.1L30.6,45.1z M30.8,45l0.2-0.1l-0.2-0.1l-0.2,0.1L30.8,45L30.8,45z M31,44.8l0.2-0.1L31,44.5
					l-0.2,0.1L31,44.8L31,44.8z M31.2,44.7l0.2-0.1l-0.2-0.1l-0.2,0.1L31.2,44.7L31.2,44.7z M31.4,44.5v-0.3l-0.2,0.1L31.4,44.5
					L31.4,44.5z M27.4,47.8c0,0.1,0,0.1,0,0.2l0,0l0.2-0.1L27.4,47.8L27.4,47.8L27.4,47.8z M27.7,47.9l0.2-0.1l-0.2-0.1l-0.2,0.1
					L27.7,47.9L27.7,47.9z M27.9,47.7l0.2-0.1l-0.2-0.1l-0.2,0.1L27.9,47.7L27.9,47.7z M28.1,47.5l0.2-0.1l-0.2-0.1l-0.2,0.1
					L28.1,47.5L28.1,47.5z M28.3,47.4l0.2-0.1l-0.2-0.1l-0.2,0.1L28.3,47.4L28.3,47.4z M28.5,47.2l0.2-0.1l-0.2-0.1l-0.2,0.1
					L28.5,47.2L28.5,47.2z M28.7,47.1l0.2-0.1l-0.2-0.1l-0.2,0.1L28.7,47.1L28.7,47.1z M28.9,46.9l0.2-0.1l-0.2-0.1l-0.2,0.1
					L28.9,46.9L28.9,46.9z M29.1,46.7l0.2-0.1l-0.2-0.1l-0.2,0.1L29.1,46.7L29.1,46.7z M29.3,46.6l0.2-0.1l-0.2-0.1l-0.2,0.1
					L29.3,46.6L29.3,46.6z M29.5,46.4l0.2-0.1l-0.2-0.1l-0.2,0.1L29.5,46.4L29.5,46.4z M29.7,46.3l0.2-0.1L29.7,46l-0.2,0.1
					L29.7,46.3L29.7,46.3z M29.9,46.1L30,46l-0.2-0.1L29.7,46L29.9,46.1L29.9,46.1z M30,45.9l0.2-0.1l-0.2-0.1l-0.2,0.1L30,45.9
					L30,45.9z M30.2,45.8l0.2-0.1l-0.2-0.1l-0.2,0.1L30.2,45.8L30.2,45.8z M30.4,45.6l0.2-0.1l-0.2-0.1l-0.2,0.1L30.4,45.6
					L30.4,45.6z M30.6,45.5l0.2-0.1l-0.2-0.1l-0.2,0.1L30.6,45.5L30.6,45.5z M30.8,45.3l0.2-0.1L30.8,45l-0.2,0.1L30.8,45.3
					L30.8,45.3z M31,45.1l0.2-0.1L31,44.9L30.9,45L31,45.1L31,45.1z M31.2,45l0.2-0.1l-0.2-0.1l-0.2,0.1L31.2,45L31.2,45z
					 M31.4,44.8c0,0,0-0.1,0-0.1v-0.1l-0.2,0.1L31.4,44.8L31.4,44.8z M27.5,48.1c0,0.1,0,0.1,0,0.2c0,0,0,0,0.1,0l0.1-0.1L27.5,48.1
					L27.5,48.1L27.5,48.1z M27.7,48.2l0.2-0.1l-0.2-0.1L27.5,48L27.7,48.2L27.7,48.2z M27.9,48l0.2-0.1l-0.2-0.1l-0.2,0.1L27.9,48
					L27.9,48z M28.1,47.9l0.2-0.1l-0.2-0.1l-0.2,0.1L28.1,47.9L28.1,47.9z M28.3,47.7l0.2-0.1l-0.2-0.1l-0.2,0.1L28.3,47.7
					L28.3,47.7z M28.5,47.5l0.2-0.1l-0.2-0.1l-0.2,0.1L28.5,47.5L28.5,47.5z M28.7,47.4l0.2-0.1l-0.2-0.1l-0.2,0.1L28.7,47.4
					L28.7,47.4z M28.9,47.2l0.2-0.1l-0.2-0.1l-0.2,0.1L28.9,47.2L28.9,47.2z M29.1,47.1l0.2-0.1l-0.2-0.1l-0.2,0.1L29.1,47.1
					L29.1,47.1z M29.3,46.9l0.2-0.1l-0.2-0.1l-0.2,0.1L29.3,46.9L29.3,46.9z M29.5,46.7l0.2-0.1l-0.2-0.1l-0.2,0.1L29.5,46.7
					L29.5,46.7z M29.7,46.6l0.2-0.1l-0.2-0.1l-0.2,0.1L29.7,46.6L29.7,46.6z M29.9,46.4l0.2-0.1l-0.2-0.1l-0.2,0.1L29.9,46.4
					L29.9,46.4z M30,46.3l0.2-0.1L30,46l-0.2,0.1L30,46.3L30,46.3z M30.2,46.1l0.2-0.1l-0.2-0.1L30.1,46L30.2,46.1L30.2,46.1z
					 M30.4,45.9l0.2-0.1l-0.2-0.1l-0.2,0.1L30.4,45.9L30.4,45.9z M30.6,45.8l0.2-0.1l-0.2-0.1l-0.2,0.1L30.6,45.8L30.6,45.8z
					 M30.8,45.6l0.2-0.1l-0.2-0.1l-0.2,0.1L30.8,45.6L30.8,45.6z M31,45.5l0.2-0.1L31,45.2l-0.2,0.1L31,45.5L31,45.5z M31.2,45.3
					l0.2-0.1L31.2,45l-0.2,0.1L31.2,45.3L31.2,45.3z M31.4,45.1c0-0.1,0-0.2,0-0.2L31.3,45L31.4,45.1L31.4,45.1z M27.6,48.3
					c0,0,0.1,0,0.1,0H27.6L27.6,48.3L27.6,48.3z M27.8,48.3c0.1,0,0.1,0,0.2,0l0.1-0.1l-0.2-0.1L27.8,48.3L27.8,48.3L27.8,48.3z
					 M28.1,48.2l0.2-0.1l-0.2-0.1L27.9,48L28.1,48.2L28.1,48.2z M28.3,48l0.2-0.1l-0.2-0.1l-0.2,0.1L28.3,48L28.3,48z M28.5,47.9
					l0.2-0.1l-0.2-0.1l-0.2,0.1L28.5,47.9L28.5,47.9z M28.7,47.7l0.2-0.1l-0.2-0.1l-0.2,0.1L28.7,47.7L28.7,47.7z M28.9,47.5
					l0.2-0.1l-0.2-0.1l-0.2,0.1L28.9,47.5L28.9,47.5z M29.1,47.4l0.2-0.1l-0.2-0.1l-0.2,0.1L29.1,47.4L29.1,47.4z M29.3,47.2
					l0.2-0.1l-0.2-0.1l-0.2,0.1L29.3,47.2L29.3,47.2z M29.5,47.1l0.2-0.1l-0.2-0.1l-0.2,0.1L29.5,47.1L29.5,47.1z M29.7,46.9
					l0.2-0.1l-0.2-0.1l-0.2,0.1L29.7,46.9L29.7,46.9z M29.9,46.7l0.2-0.1l-0.2-0.1l-0.2,0.1L29.9,46.7L29.9,46.7z M30,46.6l0.2-0.1
					L30,46.3l-0.2,0.1L30,46.6L30,46.6z M30.2,46.4l0.2-0.1l-0.2-0.1l-0.2,0.1L30.2,46.4L30.2,46.4z M30.4,46.3l0.2-0.1L30.4,46
					l-0.2,0.1L30.4,46.3L30.4,46.3z M30.6,46.1l0.2-0.1l-0.2-0.1L30.5,46L30.6,46.1L30.6,46.1z M30.8,45.9l0.2-0.1l-0.2-0.1
					l-0.2,0.1L30.8,45.9L30.8,45.9z M31,45.8l0.2-0.1L31,45.5l-0.2,0.1L31,45.8L31,45.8z M31.2,45.6l0.1-0.1l0,0l-0.1-0.1l-0.2,0.1
					L31.2,45.6L31.2,45.6z M31.4,45.4c0-0.1,0-0.1,0-0.2l-0.1,0.1L31.4,45.4L31.4,45.4z M28,48.3C28.1,48.3,28.1,48.3,28,48.3
					L28,48.3L28,48.3L28,48.3z M28.2,48.3c0.1,0,0.2,0,0.2,0l0,0l-0.2-0.1L28.2,48.3L28.2,48.3L28.2,48.3z M28.5,48.2l0.2-0.1
					l-0.2-0.1L28.3,48L28.5,48.2L28.5,48.2z M28.7,48l0.2-0.1l-0.2-0.1l-0.2,0.1L28.7,48L28.7,48z M28.9,47.9l0.2-0.1l-0.2-0.1
					l-0.2,0.1L28.9,47.9L28.9,47.9z M29.1,47.7l0.2-0.1l-0.2-0.1l-0.2,0.1L29.1,47.7L29.1,47.7z M29.3,47.5l0.2-0.1l-0.2-0.1
					l-0.2,0.1L29.3,47.5L29.3,47.5z M29.5,47.4l0.2-0.1l-0.2-0.1l-0.2,0.1L29.5,47.4L29.5,47.4z M29.7,47.2l0.2-0.1l-0.2-0.1
					l-0.2,0.1L29.7,47.2L29.7,47.2z M29.9,47.1l0.2-0.1l-0.2-0.1l-0.2,0.1L29.9,47.1L29.9,47.1z M30,46.9l0.2-0.1L30,46.6l-0.2,0.1
					L30,46.9L30,46.9z M30.2,46.7l0.2-0.1l-0.2-0.1l-0.2,0.1L30.2,46.7L30.2,46.7z M30.4,46.6l0.2-0.1l-0.2-0.1l-0.2,0.1L30.4,46.6
					L30.4,46.6z M30.6,46.4l0.2-0.1l-0.2-0.1l-0.2,0.1L30.6,46.4L30.6,46.4z M30.8,46.3l0.2-0.1L30.8,46l-0.2,0.1L30.8,46.3
					L30.8,46.3z M31,46.1l0.2-0.1L31,45.8L30.9,46L31,46.1L31,46.1z M31.2,45.9L31.2,45.9c0.1-0.1,0.1-0.1,0.1-0.2l-0.1-0.1
					l-0.2,0.1L31.2,45.9L31.2,45.9z M31.3,45.7c0-0.1,0-0.1,0-0.2L31.3,45.7L31.3,45.7L31.3,45.7z M28.5,48.2c0.1,0,0.2,0,0.3,0
					l-0.1-0.1L28.5,48.2L28.5,48.2L28.5,48.2z M28.9,48.2C28.9,48.2,28.9,48.2,28.9,48.2L29,48l-0.2-0.1L28.7,48L28.9,48.2
					L28.9,48.2z M29.1,48l0.2-0.1l-0.2-0.1l-0.2,0.1L29.1,48L29.1,48z M29.3,47.9l0.2-0.1l-0.2-0.1l-0.2,0.1L29.3,47.9L29.3,47.9z
					 M29.5,47.7l0.2-0.1l-0.2-0.1l-0.2,0.1L29.5,47.7L29.5,47.7z M29.7,47.5l0.2-0.1l-0.2-0.1l-0.2,0.1L29.7,47.5L29.7,47.5z
					 M29.9,47.4l0.2-0.1l-0.2-0.1l-0.2,0.1L29.9,47.4L29.9,47.4z M30,47.2l0.2-0.1L30,46.9l-0.2,0.1L30,47.2L30,47.2z M30.2,47.1
					l0.2-0.1l-0.2-0.1l-0.2,0.1L30.2,47.1L30.2,47.1z M30.4,46.9l0.2-0.1l-0.2-0.1l-0.2,0.1L30.4,46.9L30.4,46.9z M30.6,46.7
					l0.2-0.1l-0.2-0.1l-0.2,0.1L30.6,46.7L30.6,46.7z M30.8,46.6l0.2-0.1l-0.2-0.1l-0.2,0.1L30.8,46.6L30.8,46.6z M31,46.4l0.2-0.1
					L31,46.1l-0.2,0.1L31,46.4L31,46.4z M31.2,46.3c0-0.1,0-0.1,0.1-0.2l-0.1,0l-0.2,0.1L31.2,46.3L31.2,46.3z M31.3,46
					C31.3,46,31.3,45.9,31.3,46L31.3,46L31.3,46L31.3,46z M29,48.1c0,0,0.1,0,0.1,0L29,48.1L29,48.1L29,48.1z M29.2,48.1
					c0.1,0,0.2,0,0.2-0.1l-0.2-0.1L29.2,48.1L29.2,48.1L29.2,48.1z M29.5,48L29.5,48l0.2-0.1l-0.2-0.1l-0.2,0.1L29.5,48L29.5,48z
					 M29.7,47.9l0.2-0.1l-0.2-0.1l-0.2,0.1L29.7,47.9L29.7,47.9z M29.9,47.7l0.2-0.1l-0.2-0.1l-0.2,0.1L29.9,47.7L29.9,47.7z
					 M30,47.5l0.2-0.1L30,47.3l-0.2,0.1L30,47.5L30,47.5z M30.2,47.4l0.2-0.1l-0.2-0.1l-0.2,0.1L30.2,47.4L30.2,47.4z M30.4,47.2
					l0.2-0.1l-0.2-0.1l-0.2,0.1L30.4,47.2L30.4,47.2z M30.6,47.1l0.2-0.1l-0.2-0.1l-0.2,0.1L30.6,47.1L30.6,47.1z M30.8,46.9
					l0.2-0.1l-0.2-0.1l-0.2,0.1L30.8,46.9L30.8,46.9z M31,46.7c0-0.1,0.1-0.1,0.1-0.2L31,46.5l-0.2,0.1L31,46.7L31,46.7z M31.1,46.5
					c0-0.1,0-0.1,0.1-0.2L31.1,46.5L31.1,46.5L31.1,46.5z M29.6,48c0,0,0.1,0,0.1,0L29.6,48L29.6,48L29.6,48z M29.7,47.9
					c0.1,0,0.1-0.1,0.2-0.1l-0.1-0.1L29.7,47.9L29.7,47.9L29.7,47.9z M30,47.8c0.1,0,0.1-0.1,0.2-0.1L30,47.6L30,47.8L30,47.8
					L30,47.8z M30.2,47.7c0.1,0,0.1-0.1,0.2-0.1l0,0l-0.1-0.1l-0.2,0.1L30.2,47.7L30.2,47.7z M30.4,47.5c0.1,0,0.1-0.1,0.2-0.1
					l-0.1-0.1l-0.2,0.1L30.4,47.5L30.4,47.5z M30.6,47.3c0-0.1,0.1-0.1,0.1-0.2l-0.1-0.1l-0.2,0.1L30.6,47.3L30.6,47.3z M30.7,47.2
					c0-0.1,0.1-0.1,0.1-0.2l0,0L30.7,47.2L30.7,47.2L30.7,47.2z M30.9,47c0,0,0-0.1,0.1-0.1L30.9,47L30.9,47L30.9,47z"/>
				<g>
					<path fill-rule="evenodd" clip-rule="evenodd" fill="#FFFFFF" d="M28.2,33.9c-0.1,0-0.4,0.1-0.4,0.3c0,0.3,0.3,0.3,0.5,0.3l0,0
						c0,0,0.3-0.2,0.3-0.3C28.5,34,28.2,33.9,28.2,33.9L28.2,33.9L28.2,33.9L28.2,33.9L28.2,33.9z"/>
					<path fill-rule="evenodd" clip-rule="evenodd" fill="#FFFFFF" d="M31.1,34.5c0.1,0,0.5,0,0.5-0.3c0-0.3-0.3-0.3-0.4-0.3l0,0
						l0,0h0c0,0-0.3,0.1-0.3,0.3S31.1,34.5,31.1,34.5L31.1,34.5L31.1,34.5L31.1,34.5L31.1,34.5z"/>
					<path fill-rule="evenodd" clip-rule="evenodd" fill="#FFFFFF" d="M28.5,33.5c-0.1,0.1-0.2,0.2-0.3,0.4l0,0c0,0,0.3,0.1,0.3,0.3
						c0,0.2-0.3,0.4-0.3,0.4h0l0,0c0,0,0.1,0.2,0.2,0.3l0,0C29.3,34.1,28.5,33.5,28.5,33.5L28.5,33.5L28.5,33.5L28.5,33.5z"/>
					<path fill-rule="evenodd" clip-rule="evenodd" fill="#FFFFFF" d="M30.8,34.8c0.1-0.1,0.2-0.2,0.3-0.3c0,0-0.3-0.2-0.3-0.4
						c0-0.2,0.3-0.3,0.3-0.3l0,0c0-0.1-0.1-0.2-0.3-0.4l0,0h0h0C30.8,33.5,30,34.1,30.8,34.8L30.8,34.8z"/>
					<path fill-rule="evenodd" clip-rule="evenodd" fill="#FFFFFF" d="M28.7,33.3c-0.1,0-0.1,0.1-0.2,0.1c0,0,0.8,0.7,0,1.4
						c0,0,0.1,0.1,0.1,0.1c0.2-0.2,0.5-0.6,0.5-0.8C29.1,33.8,28.9,33.4,28.7,33.3L28.7,33.3z"/>
					<path fill-rule="evenodd" clip-rule="evenodd" fill="#FFFFFF" d="M30.6,34.9c0,0,0.1-0.1,0.1-0.1c-0.8-0.8,0-1.4,0-1.4l0,0
						c-0.1,0-0.1-0.1-0.2-0.1c-0.1,0.2-0.3,0.5-0.3,0.8C30.2,34.4,30.4,34.7,30.6,34.9L30.6,34.9z"/>
					<path fill-rule="evenodd" clip-rule="evenodd" fill="#FFFFFF" d="M30,33.1c0-0.1-0.1-0.3-0.4-0.3c-0.3,0-0.4,0.3-0.4,0.4l0,0
						l0,0l0,0c0,0,0.1,0.3,0.4,0.3C29.9,33.4,30,33.1,30,33.1L30,33.1L30,33.1L30,33.1L30,33.1z"/>
					<path fill-rule="evenodd" clip-rule="evenodd" fill="#FFFFFF" d="M30.2,35.1c0.1,0,0.2-0.1,0.4-0.2c-0.2-0.2-0.4-0.5-0.4-0.8
						c0-0.3,0.2-0.7,0.3-0.8c-0.1-0.1-0.3-0.1-0.5-0.2l0,0c0,0-0.1,0.3-0.4,0.3c-0.3,0-0.4-0.3-0.4-0.3l0,0c-0.1,0-0.2,0-0.4,0.1
						c0.1,0.2,0.4,0.5,0.4,0.9c0,0.3-0.3,0.6-0.5,0.9c0.1,0.1,0.2,0.1,0.3,0.1c0,0,0,0,0.1,0c0.1,0,0.4,0,0.6,0
						C29.9,35.1,30,35.1,30.2,35.1C30.1,35.1,30.2,35.1,30.2,35.1L30.2,35.1z"/>
					<path fill-rule="evenodd" clip-rule="evenodd" fill="#FFFFFF" d="M31.4,42v-0.1c0,0,0,0,0,0c0,0-0.1,0-0.1,0l0,0h0l0,0
						c0,0-0.1,0-0.1,0.1c0,0,0,0.1,0,0.1l0,0l0,0l0,0c0,0,0,0,0.1,0.1c0,0,0.1,0,0.1,0l0,0l0,0l0,0C31.4,42.1,31.4,42,31.4,42
						C31.4,42,31.4,42,31.4,42L31.4,42z"/>
					<path fill-rule="evenodd" clip-rule="evenodd" fill="#FFFFFF" d="M27.7,41.9l0,0.1c0,0,0.1,0,0.1,0l0,0h0l0,0c0,0,0.1,0,0.1,0
						c0,0,0.1,0,0.1-0.1l0,0l0,0l0,0c0,0,0-0.1,0-0.1c0,0-0.1,0-0.1-0.1l0,0l0,0l0,0C27.8,41.9,27.8,41.9,27.7,41.9
						C27.7,41.9,27.7,41.9,27.7,41.9L27.7,41.9z"/>
					<path fill-rule="evenodd" clip-rule="evenodd" fill="#FFFFFF" d="M27.7,41.6l0,0.2c0,0,0.1,0,0.1,0l0,0h0l0,0
						c0,0,0.1,0,0.1,0.1c0,0,0,0.1,0,0.1l0,0l0,0l0,0c0,0,0,0.1-0.1,0.1c0,0-0.1,0-0.1,0l0,0h0l0,0c0,0-0.1,0-0.1,0v0.1
						c0.3,0.1,1,0.2,1.9,0.2c0.9,0,1.5-0.1,1.8-0.2v-0.1c0,0-0.1,0-0.1,0l0,0h0l0,0c-0.1,0-0.1,0-0.1,0c0,0-0.1-0.1-0.1-0.1l0,0l0,0
						l0,0c0,0,0-0.1,0-0.1c0,0,0.1-0.1,0.1-0.1l0,0h0l0,0c0.1,0,0.1,0,0.1,0c0,0,0,0,0,0v-0.2c-0.3,0.1-1.1,0.2-1.8,0.2
						C28.9,41.8,28.1,41.7,27.7,41.6L27.7,41.6z"/>
					<path fill-rule="evenodd" clip-rule="evenodd" fill="#FFFFFF" d="M27.7,41.1c0,0.2,0,0.3,0,0.5c0.3,0.1,1.2,0.2,1.8,0.2
						c0.7,0,1.5-0.1,1.8-0.2v-0.5c-0.3,0.1-1.1,0.2-1.8,0.2C28.9,41.3,28.1,41.2,27.7,41.1L27.7,41.1z"/>
					<path fill-rule="evenodd" clip-rule="evenodd" fill="#FFFFFF" d="M27.8,40.6c0,0.2,0,0.3,0,0.5c0.4,0.1,1.2,0.2,1.8,0.2
						c0.7,0,1.5-0.1,1.8-0.2v-0.5c-0.3,0.1-1.1,0.2-1.8,0.2C28.9,40.7,28.1,40.6,27.8,40.6L27.8,40.6z"/>
					<path fill-rule="evenodd" clip-rule="evenodd" fill="#FFFFFF" d="M31.4,40.4v-0.1l0,0c0,0-0.1,0-0.1,0c0,0-0.1,0-0.1,0
						c0,0,0,0,0,0.1c0,0,0,0.1,0,0.1c0,0,0.1,0,0.1,0C31.3,40.4,31.4,40.4,31.4,40.4C31.4,40.4,31.4,40.4,31.4,40.4L31.4,40.4z"/>
					<path fill-rule="evenodd" clip-rule="evenodd" fill="#FFFFFF" d="M27.8,40.2l0,0.2c0,0,0,0,0.1,0c0,0,0.1,0,0.1,0
						c0,0,0,0,0-0.1c0,0,0-0.1,0-0.1C27.9,40.2,27.9,40.2,27.8,40.2C27.8,40.2,27.8,40.2,27.8,40.2L27.8,40.2z"/>
					<path fill-rule="evenodd" clip-rule="evenodd" fill="#FFFFFF" d="M27.8,40v0.1c0,0,0,0,0.1,0c0.1,0,0.1,0,0.1,0
						c0,0,0.1,0.1,0.1,0.1c0,0,0,0.1-0.1,0.1c0,0-0.1,0-0.1,0c0,0-0.1,0-0.1,0v0.1c0.4,0.1,1.2,0.2,1.8,0.2c0.7,0,1.5-0.1,1.8-0.2
						v-0.1c0,0-0.1,0-0.1,0c-0.1,0-0.1,0-0.1,0c0,0-0.1-0.1-0.1-0.1c0,0,0-0.1,0.1-0.1c0,0,0.1,0,0.1,0c0,0,0.1,0,0.1,0V40
						c-0.4,0-1.3,0.1-1.9,0.1C29,40.2,28.1,40.1,27.8,40L27.8,40z"/>
					<path fill-rule="evenodd" clip-rule="evenodd" fill="#FFFFFF" d="M27.8,39.7l0,0.3c0.4,0,1.3,0.1,1.8,0.1
						c0.6,0,1.5-0.1,1.9-0.2v-0.3c-0.4,0-1.4,0-1.8,0c-0.3,0-0.8,0-1.2,0C28.2,39.7,28,39.7,27.8,39.7L27.8,39.7z"/>
					<path fill-rule="evenodd" clip-rule="evenodd" fill="#FFFFFF" d="M30,39c0.1,0.1,0.1,0.2,0.1,0.2c0,0.1-0.1,0.2-0.2,0.3
						c-0.1,0-0.1,0.1-0.2,0.1c0.2,0,0.5,0,0.7,0c-0.1,0-0.1,0-0.2-0.1c-0.1-0.1-0.1-0.1-0.1-0.2c0-0.1,0-0.2,0.1-0.2
						c0.1-0.1,0.2-0.1,0.3-0.1c0.1,0,0.2,0,0.3,0.1c0.1,0.1,0.1,0.1,0.1,0.2c0,0.1,0,0.2-0.1,0.2c0,0-0.1,0.1-0.2,0.1
						c0.3,0,0.5,0,0.7,0v-0.5c0,0-0.8,0-0.9-0.7h0L30,39L30,39z"/>
					<path fill-rule="evenodd" clip-rule="evenodd" fill="#FFFFFF" d="M28.7,38.5L28.7,38.5c0,0-0.1,0.6-0.9,0.6c0,0,0,0.2,0,0.5
						c0.2,0,0.4,0,0.6,0c-0.1,0-0.1,0-0.2-0.1c-0.1-0.1-0.1-0.1-0.1-0.2c0-0.1,0-0.2,0.1-0.2c0.1-0.1,0.2-0.1,0.3-0.1
						c0.1,0,0.2,0,0.3,0.1c0.1,0.1,0.1,0.1,0.1,0.2c0,0.1,0,0.2-0.1,0.2c0,0-0.1,0.1-0.2,0.1c0.3,0,0.6,0,0.8,0
						c-0.1,0-0.1-0.1-0.2-0.1c-0.1-0.1-0.2-0.2-0.2-0.3c0-0.1,0-0.2,0.1-0.2L28.7,38.5L28.7,38.5z"/>
					<path fill-rule="evenodd" clip-rule="evenodd" fill="#FFFFFF" d="M28.8,38.5L28.8,38.5l0.4,0.5c0,0,0,0,0,0
						c0.1-0.1,0.2-0.1,0.4-0.1c0.2,0,0.3,0,0.4,0.1c0,0,0,0,0,0l0.4-0.5l0,0H28.8L28.8,38.5z"/>
					<polygon fill-rule="evenodd" clip-rule="evenodd" fill="#FFFFFF" points="28.9,37.8 28.8,37.9 28.8,38.4 30.4,38.4 30.4,37.9 
						30.3,37.8 28.9,37.8 					"/>
					<polygon fill-rule="evenodd" clip-rule="evenodd" fill="#FFFFFF" points="28.9,37.2 28.9,37.8 30.2,37.8 30.2,37.2 28.9,37.2 
											"/>
					<polygon fill-rule="evenodd" clip-rule="evenodd" fill="#FFFFFF" points="29,36.5 28.9,36.5 28.9,37.2 30.2,37.2 30.2,36.5 
						30.1,36.5 29,36.5 					"/>
					<polygon fill-rule="evenodd" clip-rule="evenodd" fill="#FFFFFF" points="29.1,35.7 29.1,35.7 29.1,36.5 30.1,36.5 30.1,36.4 
						30.1,35.7 30.1,35.7 29.1,35.7 					"/>
					<path fill-rule="evenodd" clip-rule="evenodd" fill="#FFFFFF" d="M30,40.4c0,0-0.1,0-0.1,0c0,0-0.1,0-0.1,0c0,0,0,0,0,0.1
						c0,0,0,0.1,0,0.1c0,0,0.1,0,0.1,0c0,0,0.1,0,0.1,0C30,40.5,30,40.5,30,40.4C30,40.4,30,40.4,30,40.4L30,40.4z"/>
					<path fill-rule="evenodd" clip-rule="evenodd" fill="#FFFFFF" d="M30.7,40.3c0,0-0.1,0-0.1,0c0,0-0.1,0-0.1,0c0,0,0,0,0,0.1
						s0,0.1,0,0.1c0,0,0.1,0,0.1,0c0,0,0.1,0,0.1,0C30.7,40.4,30.7,40.4,30.7,40.3C30.7,40.4,30.7,40.3,30.7,40.3L30.7,40.3z"/>
					<path fill-rule="evenodd" clip-rule="evenodd" fill="#FFFFFF" d="M30.6,40.3c0.1,0,0.1,0,0.1,0c0,0,0.1,0.1,0.1,0.1
						c0,0,0,0.1-0.1,0.1c0,0-0.1,0-0.1,0c-0.1,0-0.1,0-0.1,0c0,0-0.1-0.1-0.1-0.1c0,0,0-0.1,0.1-0.1C30.5,40.3,30.5,40.3,30.6,40.3
						L30.6,40.3z"/>
					<path fill-rule="evenodd" clip-rule="evenodd" fill="#FFFFFF" d="M29.1,40.4c0,0,0.1,0,0.1,0c0,0,0.1,0,0.1,0c0,0,0,0,0,0.1
						c0,0,0,0.1,0,0.1c0,0-0.1,0-0.1,0c0,0-0.1,0-0.1,0C29.1,40.5,29.1,40.5,29.1,40.4C29.1,40.4,29.1,40.4,29.1,40.4L29.1,40.4z"/>
					<path fill-rule="evenodd" clip-rule="evenodd" fill="#FFFFFF" d="M28.4,40.3c0,0,0.1,0,0.1,0c0,0,0.1,0,0.1,0c0,0,0,0,0,0.1
						s0,0.1,0,0.1c0,0-0.1,0-0.1,0c0,0-0.1,0-0.1,0C28.4,40.4,28.4,40.4,28.4,40.3C28.4,40.4,28.4,40.3,28.4,40.3L28.4,40.3z"/>
					<path fill-rule="evenodd" clip-rule="evenodd" fill="#FFFFFF" d="M28.5,40.3c-0.1,0-0.1,0-0.1,0c0,0-0.1,0.1-0.1,0.1
						c0,0,0,0.1,0.1,0.1c0,0,0.1,0,0.1,0c0.1,0,0.1,0,0.1,0c0,0,0.1-0.1,0.1-0.1c0,0,0-0.1-0.1-0.1C28.6,40.3,28.6,40.3,28.5,40.3
						L28.5,40.3z"/>
					<path fill-rule="evenodd" clip-rule="evenodd" fill="#FFFFFF" d="M29.2,40.3c-0.1,0-0.1,0-0.1,0c0,0-0.1,0.1-0.1,0.1
						c0,0,0,0.1,0.1,0.1c0,0,0.1,0,0.1,0c0.1,0,0.1,0,0.1,0c0,0,0.1-0.1,0.1-0.1c0,0,0-0.1-0.1-0.1C29.3,40.3,29.3,40.3,29.2,40.3
						L29.2,40.3z"/>
					<path fill-rule="evenodd" clip-rule="evenodd" fill="#FFFFFF" d="M29.9,40.3c0.1,0,0.1,0,0.1,0c0,0,0.1,0.1,0.1,0.1
						c0,0,0,0.1-0.1,0.1c0,0-0.1,0-0.1,0c-0.1,0-0.1,0-0.1,0c0,0-0.1-0.1-0.1-0.1c0,0,0-0.1,0.1-0.1C29.8,40.3,29.8,40.3,29.9,40.3
						L29.9,40.3z"/>
					<path fill-rule="evenodd" clip-rule="evenodd" fill="#FFFFFF" d="M29.9,39c-0.1-0.1-0.2-0.1-0.4-0.1c-0.1,0-0.3,0-0.4,0.1
						c-0.1,0.1-0.1,0.2-0.1,0.3c0,0.1,0.1,0.2,0.1,0.3c0.1,0.1,0.2,0.1,0.4,0.1c0.1,0,0.3,0,0.4-0.1c0.1-0.1,0.1-0.2,0.1-0.3
						C30.1,39.1,30,39,29.9,39L29.9,39z"/>
					<path fill-rule="evenodd" clip-rule="evenodd" fill="#FFFFFF" d="M30.9,39.1c-0.1-0.1-0.2-0.1-0.3-0.1c-0.1,0-0.2,0-0.3,0.1
						c-0.1,0.1-0.1,0.1-0.1,0.2c0,0.1,0,0.2,0.1,0.2c0.1,0.1,0.2,0.1,0.3,0.1c0.1,0,0.2,0,0.3-0.1c0.1-0.1,0.1-0.1,0.1-0.2
						C31,39.3,30.9,39.2,30.9,39.1L30.9,39.1z"/>
					<path fill-rule="evenodd" clip-rule="evenodd" fill="#FFFFFF" d="M28.8,39.1c-0.1-0.1-0.2-0.1-0.3-0.1c-0.1,0-0.2,0-0.3,0.1
						c-0.1,0.1-0.1,0.1-0.1,0.2c0,0.1,0,0.2,0.1,0.2c0.1,0.1,0.2,0.1,0.3,0.1c0.1,0,0.2,0,0.3-0.1c0.1-0.1,0.1-0.1,0.1-0.2
						C28.9,39.3,28.8,39.2,28.8,39.1L28.8,39.1z"/>
					<path fill-rule="evenodd" clip-rule="evenodd" fill="#FFFFFF" d="M29.9,34c-0.1-0.1-0.2-0.1-0.2-0.1c-0.1,0-0.2,0-0.2,0.1
						c-0.1,0.1-0.1,0.1-0.1,0.2s0,0.2,0.1,0.2c0.1,0.1,0.1,0.1,0.2,0.1c0.1,0,0.2,0,0.2-0.1c0.1-0.1,0.1-0.1,0.1-0.2
						S29.9,34,29.9,34L29.9,34z"/>
					<path fill-rule="evenodd" clip-rule="evenodd" fill="#FFFFFF" d="M29.6,33.8c0.1,0,0.2,0,0.3,0.1C30,34,30,34.1,30,34.2
						c0,0.1,0,0.2-0.1,0.2c-0.1,0.1-0.2,0.1-0.3,0.1c-0.1,0-0.2,0-0.3-0.1c-0.1-0.1-0.1-0.2-0.1-0.2c0-0.1,0-0.2,0.1-0.2
						C29.4,33.9,29.5,33.8,29.6,33.8L29.6,33.8z"/>
					<path fill-rule="evenodd" clip-rule="evenodd" fill="#FFFFFF" d="M30,42c0,0-0.1,0-0.1,0c0,0-0.1,0-0.1,0c0,0,0,0,0,0.1
						s0,0.1,0,0.1c0,0,0.1,0,0.1,0c0,0,0.1,0,0.1,0C30,42.1,30.1,42.1,30,42C30.1,42.1,30,42,30,42L30,42z"/>
					<path fill-rule="evenodd" clip-rule="evenodd" fill="#FFFFFF" d="M29.1,42c0,0,0.1,0,0.1,0c0.1,0,0.1,0,0.1,0
						c0,0,0.1,0.1,0.1,0.1s0,0.1-0.1,0.1c0,0-0.1,0-0.1,0c-0.1,0-0.1,0-0.1,0c0,0-0.1-0.1-0.1-0.1S29.1,42,29.1,42L29.1,42z"/>
					<path fill-rule="evenodd" clip-rule="evenodd" fill="#FFFFFF" d="M29.2,42c0,0-0.1,0-0.1,0c0,0,0,0,0,0.1s0,0.1,0,0.1
						c0,0,0.1,0,0.1,0c0,0,0.1,0,0.1,0c0,0,0,0,0-0.1s0-0.1,0-0.1C29.3,42,29.3,42,29.2,42L29.2,42z"/>
					<path fill-rule="evenodd" clip-rule="evenodd" fill="#FFFFFF" d="M30.7,42c0,0-0.1,0-0.1,0c0,0-0.1,0-0.1,0c0,0,0,0,0,0.1
						s0,0.1,0,0.1c0,0,0.1,0,0.1,0c0,0,0.1,0,0.1,0C30.7,42.1,30.7,42.1,30.7,42C30.7,42,30.7,42,30.7,42L30.7,42z"/>
					<path fill-rule="evenodd" clip-rule="evenodd" fill="#FFFFFF" d="M30.6,41.9c0.1,0,0.1,0,0.1,0c0,0,0.1,0.1,0.1,0.1
						s0,0.1-0.1,0.1c0,0-0.1,0-0.1,0c-0.1,0-0.1,0-0.1,0c0,0-0.1-0.1-0.1-0.1s0-0.1,0.1-0.1C30.5,41.9,30.5,41.9,30.6,41.9
						L30.6,41.9z"/>
					<path fill-rule="evenodd" clip-rule="evenodd" fill="#FFFFFF" d="M28.7,42c0,0-0.1,0-0.1,0s-0.1,0-0.1,0c0,0,0,0,0,0.1
						c0,0,0,0.1,0,0.1c0,0,0.1,0,0.1,0s0.1,0,0.1,0C28.7,42.1,28.7,42.1,28.7,42C28.7,42,28.7,42,28.7,42L28.7,42z"/>
					<path fill-rule="evenodd" clip-rule="evenodd" fill="#FFFFFF" d="M28.6,41.9c0.1,0,0.1,0,0.1,0c0,0,0.1,0.1,0.1,0.1
						c0,0,0,0.1-0.1,0.1c0,0-0.1,0-0.1,0c-0.1,0-0.1,0-0.1,0c0,0-0.1-0.1-0.1-0.1c0,0,0-0.1,0.1-0.1C28.5,41.9,28.5,41.9,28.6,41.9
						L28.6,41.9z"/>
					<path fill-rule="evenodd" clip-rule="evenodd" fill="#FFFFFF" d="M29.9,41.9c0.1,0,0.1,0,0.1,0c0,0,0.1,0.1,0.1,0.1
						s0,0.1-0.1,0.1c0,0-0.1,0-0.1,0c-0.1,0-0.1,0-0.1,0c0,0-0.1-0.1-0.1-0.1s0-0.1,0.1-0.1C29.8,42,29.9,41.9,29.9,41.9L29.9,41.9z
						"/>
					<path fill-rule="evenodd" clip-rule="evenodd" fill="#FFFFFF" d="M29,35.2v0.4l0,0h1.1l0,0v-0.4c-0.1,0-0.3,0-0.5,0
						C29.4,35.2,29.1,35.2,29,35.2L29,35.2z"/>
				</g>
			</g>
			<g>
				<polygon fill-rule="evenodd" clip-rule="evenodd" fill="#FFFFFF" points="30.2,42.5 27.4,42.5 27.4,43.2 30.2,43.2 30.2,42.5 
									"/>
				<path fill-rule="evenodd" clip-rule="evenodd" fill="#FFFFFF" d="M19.5,41.7h4.1c0.2,0,0.3,0.2,0.3,0.3v1.9
					c0,0.2-0.2,0.3-0.3,0.3h-4.1c-0.2,0-0.3-0.2-0.3-0.3v-1.9C19.1,41.9,19.3,41.7,19.5,41.7L19.5,41.7z"/>
				
					<path fill-rule="evenodd" clip-rule="evenodd" fill="none" stroke="#FF1612" stroke-width="3.550800e-02" stroke-miterlimit="2.4142" d="
					M19.5,41.8h3.9c0.2,0,0.3,0.1,0.3,0.3v1.8c0,0.2-0.1,0.3-0.3,0.3h-3.9c-0.2,0-0.3-0.1-0.3-0.3v-1.8
					C19.2,41.9,19.4,41.8,19.5,41.8L19.5,41.8z"/>
				
					<path fill-rule="evenodd" clip-rule="evenodd" fill="none" stroke="#FF1612" stroke-width="3.530100e-02" stroke-miterlimit="2.4142" d="
					M21.3,42.6l0.1-0.1h0.2l0,0.1c0,0,0.1,0,0.2,0.1l0.2-0.1l0.1,0.1l-0.1,0.1c0,0,0,0,0,0.1l0.2,0l0,0.2l-0.2,0c0,0,0,0.1-0.1,0.1
					l0.2,0.2L22,43.4l-0.2-0.1c0,0-0.1,0-0.2,0.1l0,0.2h-0.2l0-0.2c0,0-0.1,0-0.2-0.1l-0.2,0.1l-0.1-0.1l0.1-0.1
					c0,0-0.1-0.1-0.1-0.1l-0.2,0v-0.2l0.2,0c0,0,0.1-0.1,0.1-0.1l-0.1-0.2l0.1-0.1l0.2,0.1C21.1,42.6,21.1,42.6,21.3,42.6L21.3,42.6
					z"/>
				<path fill="none" stroke="#FF1612" stroke-width="3.530100e-02" stroke-miterlimit="2.4142" d="M21.4,42.8
					c0.1,0,0.3,0.1,0.3,0.2c0,0.1-0.1,0.2-0.3,0.2s-0.3-0.1-0.3-0.2C21.1,42.9,21.2,42.8,21.4,42.8z"/>
				
					<path fill-rule="evenodd" clip-rule="evenodd" fill="#FFFFFF" stroke="#FF1612" stroke-width="3.535500e-02" stroke-miterlimit="2.4142" d="
					M25.6,41.8c0.5,0,1,0.3,1,0.7c0,0.4,0,0.6,0,0.7s0,0.7-1.1,0.7c-0.9,0-1-0.4-1-0.6c0-0.2,0-0.6,0-0.8
					C24.5,42.2,24.7,41.8,25.6,41.8L25.6,41.8z M25.6,42.1c0.4,0,0.8,0.4,0.8,0.8c0,0.4-0.3,0.8-0.8,0.8c-0.4,0-0.8-0.4-0.8-0.8
					C24.8,42.4,25.1,42.1,25.6,42.1L25.6,42.1z"/>
				
					<path fill-rule="evenodd" clip-rule="evenodd" fill="#FFFFFF" stroke="#FF1612" stroke-width="3.535500e-02" stroke-miterlimit="2.4142" d="
					M23.4,42.3h1.5c0.1,0,0.1,0.1,0.1,0.1v0.8c0,0.1-0.1,0.1-0.1,0.1h-1.5c-0.1,0-0.1-0.1-0.1-0.1v-0.8
					C23.3,42.4,23.4,42.3,23.4,42.3L23.4,42.3z"/>
				<path fill-rule="evenodd" clip-rule="evenodd" fill="#FFFFFF" d="M39.6,41.7h-4.1c-0.2,0-0.3,0.2-0.3,0.3v1.9
					c0,0.2,0.2,0.3,0.3,0.3h4.1c0.2,0,0.3-0.2,0.3-0.3v-1.9C40,41.9,39.8,41.7,39.6,41.7L39.6,41.7z"/>
				
					<path fill-rule="evenodd" clip-rule="evenodd" fill="none" stroke="#FF1612" stroke-width="3.550800e-02" stroke-miterlimit="2.4142" d="
					M39.6,41.8h-3.9c-0.2,0-0.3,0.1-0.3,0.3v1.8c0,0.2,0.1,0.3,0.3,0.3h3.9c0.2,0,0.3-0.1,0.3-0.3v-1.8
					C39.9,41.9,39.7,41.8,39.6,41.8L39.6,41.8z"/>
				
					<path fill-rule="evenodd" clip-rule="evenodd" fill="none" stroke="#FF1612" stroke-width="3.530100e-02" stroke-miterlimit="2.4142" d="
					M37.8,42.6l-0.1-0.1h-0.2l0,0.1c0,0-0.1,0-0.2,0.1l-0.2-0.1l-0.1,0.1l0.1,0.1c0,0,0,0,0,0.1l-0.2,0l0,0.2l0.2,0
					c0,0,0,0.1,0.1,0.1L37,43.3l0.1,0.1l0.2-0.1c0,0,0.1,0,0.2,0.1l0,0.2h0.2l0-0.2c0,0,0.1,0,0.2-0.1l0.2,0.1l0.1-0.1l-0.1-0.1
					c0,0,0.1-0.1,0.1-0.1l0.2,0v-0.2l-0.2,0c0,0-0.1-0.1-0.1-0.1l0.1-0.2l-0.1-0.1L38,42.6C38,42.6,38,42.6,37.8,42.6L37.8,42.6z"/>
				<path fill="none" stroke="#FF1612" stroke-width="3.530100e-02" stroke-miterlimit="2.4142" d="M37.7,42.8
					c-0.1,0-0.3,0.1-0.3,0.2c0,0.1,0.1,0.2,0.3,0.2c0.1,0,0.3-0.1,0.3-0.2C38,42.9,37.9,42.8,37.7,42.8z"/>
				
					<path fill-rule="evenodd" clip-rule="evenodd" fill="#FFFFFF" stroke="#FF1612" stroke-width="3.535500e-02" stroke-miterlimit="2.4142" d="
					M33.5,41.8c-0.5,0-1,0.3-1,0.7c0,0.4,0,0.6,0,0.7s0,0.7,1.1,0.7c0.9,0,1-0.4,1-0.6c0-0.2,0-0.6,0-0.8
					C34.6,42.2,34.4,41.8,33.5,41.8L33.5,41.8z M33.5,42.1c-0.4,0-0.8,0.4-0.8,0.8c0,0.4,0.3,0.8,0.8,0.8c0.4,0,0.8-0.4,0.8-0.8
					C34.3,42.4,34,42.1,33.5,42.1L33.5,42.1z"/>
				<path fill-rule="evenodd" clip-rule="evenodd" fill="#FFFFFF" d="M35.7,42.3h-1.5c-0.1,0-0.1,0.1-0.1,0.1v0.8
					c0,0.1,0.1,0.1,0.1,0.1h1.5c0.1,0,0.1-0.1,0.1-0.1v-0.8C35.8,42.4,35.7,42.3,35.7,42.3L35.7,42.3z"/>
				
					<path fill-rule="evenodd" clip-rule="evenodd" fill="#FFFFFF" stroke="#FF1612" stroke-width="2.945800e-02" stroke-miterlimit="2.4142" d="
					M31.2,43.7h0.3c0.3,0,0.5-0.2,0.5-0.5v-0.7c0-0.3-0.2-0.5-0.5-0.5h-0.3c-0.3,0-0.5,0.2-0.5,0.5v0.7
					C30.7,43.5,30.9,43.7,31.2,43.7L31.2,43.7z M31.2,43.5h0.2c0.2,0,0.3-0.1,0.3-0.3v-0.6c0-0.2-0.1-0.3-0.3-0.3h-0.2
					c-0.2,0-0.3,0.1-0.3,0.3v0.6C30.9,43.4,31,43.5,31.2,43.5L31.2,43.5z"/>
				
					<path fill-rule="evenodd" clip-rule="evenodd" fill="#FFFFFF" stroke="#FF1612" stroke-width="2.945800e-02" stroke-miterlimit="2.4142" d="
					M33,42.5h-1.4c-0.1,0-0.1,0-0.1,0.1v0.5c0,0.1,0,0.1,0.1,0.1H33c0.1,0,0.1,0,0.1-0.1L33,42.5C33,42.6,33,42.5,33,42.5L33,42.5z"
					/>
				
					<path fill-rule="evenodd" clip-rule="evenodd" fill="#FFFFFF" stroke="#FF1612" stroke-width="2.945800e-02" stroke-miterlimit="2.4142" d="
					M27.9,43.7h0.3c0.3,0,0.5-0.2,0.5-0.5v-0.7c0-0.3-0.2-0.5-0.5-0.5h-0.3c-0.3,0-0.5,0.2-0.5,0.5v0.7
					C27.5,43.5,27.7,43.7,27.9,43.7L27.9,43.7z M28,43.5h0.2c0.2,0,0.3-0.1,0.3-0.3v-0.6c0-0.2-0.1-0.3-0.3-0.3H28
					c-0.2,0-0.3,0.1-0.3,0.3v0.6C27.7,43.4,27.8,43.5,28,43.5L28,43.5z"/>
				<path fill="#FFFFFF" stroke="#FF1612" stroke-width="2.945800e-02" stroke-miterlimit="2.4142" d="M27.1,42.1L27.1,42.1
					c0.1,0,0.3,0.1,0.4,0.2c0.1,0.1,0.2,0.2,0.2,0.4v0.4c0,0.1-0.1,0.3-0.2,0.4s-0.2,0.2-0.4,0.2l0,0c-0.1,0-0.3-0.1-0.4-0.2
					c-0.1-0.1-0.2-0.2-0.2-0.4v-0.4c0-0.1,0.1-0.3,0.2-0.4C26.8,42.2,26.9,42.1,27.1,42.1L27.1,42.1z M27.1,42.3L27.1,42.3
					c-0.1,0-0.2,0-0.2,0.1c-0.1,0.1-0.1,0.1-0.1,0.2v0.4c0,0.1,0,0.2,0.1,0.2c0.1,0.1,0.1,0.1,0.2,0.1l0,0c0.1,0,0.2,0,0.2-0.1
					c0.1-0.1,0.1-0.1,0.1-0.2v-0.4c0-0.1,0-0.2-0.1-0.2C27.2,42.4,27.1,42.3,27.1,42.3L27.1,42.3z"/>
				
					<path fill-rule="evenodd" clip-rule="evenodd" fill="#FFFFFF" stroke="#FF1612" stroke-width="3.535500e-02" stroke-miterlimit="2.4142" d="
					M26.2,42.4h0.7c0.1,0,0.1,0.1,0.1,0.1v0.6c0,0.1,0,0.1-0.1,0.1h-0.7c-0.1,0-0.1-0.1-0.1-0.1v-0.6C26.1,42.5,26.1,42.4,26.2,42.4
					L26.2,42.4z"/>
				
					<path fill-rule="evenodd" clip-rule="evenodd" fill="#FFFFFF" stroke="#FF1612" stroke-width="3.535500e-02" stroke-miterlimit="2.4142" d="
					M30.3,42.4h0.7c0.1,0,0.1,0.1,0.1,0.1v0.6c0,0.1,0,0.1-0.1,0.1h-0.7c-0.1,0-0.1-0.1-0.1-0.1v-0.6C30.1,42.5,30.2,42.4,30.3,42.4
					L30.3,42.4z"/>
			</g>
		</g>
	</g>
	<path opacity="0.35" fill="#FFFFFF" d="M13,29.7v25.5C26.2,62.6,43.7,67,63,67c19.3,0,36.8-4.5,50-11.8V29.7H13z"/>
</g>
</svg>
