<?xml version="1.0" encoding="utf-8"?>
<!-- Generator: Adobe Illustrator 24.3.0, SVG Export Plug-In . SVG Version: 6.00 Build 0)  -->
<svg version="1.1" id="Layer_1" xmlns="http://www.w3.org/2000/svg" xmlns:xlink="http://www.w3.org/1999/xlink" x="0px" y="0px"
	 viewBox="0 0 126 126" enable-background="new 0 0 126 126" xml:space="preserve">
<g>
	<g>
		<polygon fill-rule="evenodd" clip-rule="evenodd" fill="#F0F0F0" points="13,96.3 38,96.3 38,29.7 13,29.7 13,96.3 		"/>
		<polygon fill-rule="evenodd" clip-rule="evenodd" fill="#47B71D" points="38,96.3 113,96.3 113,29.7 38,29.7 38,96.3 		"/>
		<path fill-rule="evenodd" clip-rule="evenodd" fill="#F4F4F4" d="M82.8,48l3.2,3.6l4.4-1.9L88,53.9l3.2,3.6l-4.7-1L84,60.7
			l-0.5-4.8l-4.7-1l4.4-1.9L82.8,48L82.8,48z M69.4,44C61.3,46.5,55.5,54.1,55.5,63c0,11,9,20,20,20c8.1,0,15.1-4.8,18.2-11.7
			c-0.3,0.3-0.6,0.6-0.9,0.9c-7.6,6.7-19.2,6-25.9-1.5c-6.7-7.6-6-19.2,1.5-25.9C68.7,44.5,69.1,44.2,69.4,44L69.4,44z"/>
	</g>
	<path opacity="0.35" fill="#FFFFFF" d="M13,29.7v25.5C26.2,62.6,43.7,67,63,67c19.3,0,36.8-4.5,50-11.8V29.7H13z"/>
</g>
</svg>
