<?xml version="1.0" encoding="utf-8"?>
<!-- Generator: Adobe Illustrator 24.3.0, SVG Export Plug-In . SVG Version: 6.00 Build 0)  -->
<svg version="1.1" id="Layer_1" xmlns="http://www.w3.org/2000/svg" xmlns:xlink="http://www.w3.org/1999/xlink" x="0px" y="0px"
	 viewBox="0 0 126 126" enable-background="new 0 0 126 126" xml:space="preserve">
<g>
	<g>
		<polygon fill-rule="evenodd" clip-rule="evenodd" points="13,96.3 113,96.3 13,29.7 13,96.3 		"/>
		<polygon fill-rule="evenodd" clip-rule="evenodd" fill="#F90805" points="13,29.7 113,29.7 113,96.3 13,29.7 		"/>
		<path fill-rule="evenodd" clip-rule="evenodd" fill="#FEDC36" d="M70.8,44.3c0.8,0.2,2.2,0.4,2.6,0.2c0.4-0.1,1.5-0.4,2-0.3
			c0.5,0.1,0.7,0.6,1.2,1c0.4,0.4,1.3,0.8,1.6,1c0.3,0.2,1,0.2,1.1-0.4c0.2-0.6,0.4-0.8,0.2-2c-0.2-1.2-0.3-2.9,0.7-4.4
			c1-1.5,2.7-2.9,3.7-3.4c1-0.5,1.3-0.6,0.9,0.2c-0.4,0.8-0.9,1.5-0.5,1.4c0.5-0.1,0.6-0.1,0.5,0.4c-0.2,0.5-0.2,0.5-0.3,0.7
			c-0.1,0.1,0.1,0.1,0.1,0.1c0.1,0,1.1-0.1,0.7,0.4c-0.4,0.6-0.5,0.7-0.6,0.8c-0.1,0.1-0.2,0.3,0.2,0.3c0.4,0,1,0.2,0.4,0.6
			c-0.6,0.4-0.6,0.4-0.7,0.5c-0.1,0.1,0.1,0.2,0.2,0.3c0.1,0.1,0.7,0.3,0.1,0.9c-0.6,0.6-1.2,1.1-1.3,1.3c-0.2,0.2-0.1,0.2,0,0.2
			c0.2-0.1,1.4-0.8,3-0.9c1.5-0.1,3.5,0.5,3.8,0.7c0.3,0.2,0.3,0.2,0.1,0.2c-0.2,0.1-0.9,0.4-1.1,0.5C89.3,45,89.5,45,89.6,45
			c0.1,0,1.2,0.6,1.9,1.2c0.7,0.6,1.2,1,1.3,1.2c0.1,0.1,0.1,0.1-0.1,0.1c-0.2,0-0.4,0-0.6,0.1c-0.2,0-0.2,0.1-0.1,0.1
			c0.2,0,0.2,0,0.4,0.2c0.2,0.1,1,1.2,1.4,1.8c0.4,0.5,1,1.6,1.1,1.7c0.1,0.2-0.1,0.1-0.2,0.1c-0.2-0.1-0.4-0.2-0.4-0.1
			c0,0.1,0.1,0.1,0.3,0.5c0.2,0.4,0.8,2.1,1,2.7c0.1,0.6,0.1,0.6-0.1,0.4c-0.2-0.1-1.2-0.9-1.4-1c-0.2-0.1-0.3-0.1-0.2,0.1
			c0.1,0.2,0.3,0.8,0.3,1c0.1,0.3-0.1,0.2-0.3,0.1c-0.2-0.1-0.4-0.3-0.6-0.4c-0.2-0.1-0.1,0-0.1,0.2c0,0.1,0.3,0.5,0.5,0.7
			c0.2,0.2,1,1.3,1.3,4.5c0,0,2.1,2.2,1.9,6.1c-0.2,3.9-4.5,5.9-7.4,4.2c0,0,4.4,0.6,5.6-2.6c1.3-3.2-0.2-5.8-0.2-5.8
			c-0.8,4-5.5,6.2-8.5,3.2c0,0,6.5,2.3,7.5-5c0,0-1.9-2.8-5.3-5.3c0,0,0.2,0.9-0.9,0.3c-1.1-0.6-1.1-0.7-1.4-0.8
			c-0.3-0.1-0.5-0.2-0.3,0.3c0.2,0.6,0.4,1,0.4,1.3c0.1,0.3,0,0.3-0.3,0.2c-0.3-0.1-0.5-0.1-0.3,0.3c0.2,0.4,0.7,1,1.3,1.7
			c0.6,0.7,0.8,1,0.4,0.9c-0.3-0.1-0.7-0.2-0.6,0.1c0.2,0.3,0.7,1.2,1.1,1.8c0.5,0.6,0.6,0.9,0.3,0.8c-0.3-0.1-0.6-0.3-0.9-0.3
			c-0.3-0.1-0.2,0-0.1,0.2c0.1,0.2,0.5,1,0.7,1.2c0.1,0.2,0.1,0.2-0.3,0.1c-0.3-0.1-1.2-0.5-2.2-1c-1-0.5-2.3-1.7-3-2.4
			c-0.7-0.7-0.8-0.8-0.7-0.5s0,0.5,0,0.7c0,0.3-0.3,0-0.5-0.1c-0.2-0.2-1-0.8-1.3-1.1c-0.3-0.3-0.3,0-0.2,0.1c0,0.1,0,0.7,0,0.9
			c0,0.2-0.1,0.2-0.3,0.1c-0.2-0.1-1.9-1.4-2.7-2.3c-0.8-0.9-1.2-1.4-1.4-2.6c-0.2-1.2-0.2-1.5-0.2-1.7c0-0.2,0-0.1-0.2,0.1
			c-0.1,0.2-1.1,1.4-1.4,1.7c-0.3,0.3-0.3,0.2-0.3,0c0-0.2,0-0.9,0.1-1.2s-0.1-0.3-0.3-0.2c-0.2,0.2-1.4,1.3-1.6,1.5
			c-0.2,0.2-0.2-0.1-0.1-0.3c0.1-0.3,0.1-0.7,0.1-0.9c0-0.2,0-0.3-0.3-0.1c-0.2,0.2-1.2,1.1-1.5,1.4c-0.3,0.2-0.3-0.1-0.3-0.3
			c0-0.2,0.2-0.6,0.2-0.9c0.1-0.3,0-0.2-0.2-0.1c-0.1,0.1-0.8,0.7-1,0.9c-0.2,0.2-0.3-0.1-0.2-0.3c0-0.2,0-0.3,0.2-0.6
			c0.1-0.3-0.2-0.2-0.3-0.1c-0.2,0.1-1.1,0.7-1.4,0.9c-0.3,0.1-0.3-0.1-0.2-0.2c0.1-0.2,0.3-0.6,0.3-0.8c0-0.2,0-0.2-0.1-0.1
			c-0.1,0.1-1,1-1.2,1.2c-0.2,0.2-0.2,0-0.1-0.3c0.1-0.3,1.3-2.7,1.8-3.5c0.5-0.8,2.1-2.8,3.4-3.1c1.3-0.3,2.6,0,3.3,0.5
			c0.7,0.4,1.7,0.8,2.1,0.2c0.4-0.5-0.1-1.1-0.6-1.4c-0.5-0.3-1.6-0.7-1.9-0.9c-0.3-0.2-0.3-0.5-0.9-0.8c-0.6-0.3-1.9-0.8-2.1-0.9
			C70.5,44.4,70.5,44.3,70.8,44.3L70.8,44.3z M88.9,54.2c0,0,1.5,1,2.4,1.9c1,0.8,2.6,2.5,2.6,2.5s-0.5-2.5-2.6-4.5
			c0,0-0.1-0.1-0.1,0.1c0,0.2-0.1,0.6-0.6,0.4c-0.5-0.2-1.5-0.7-1.6-0.8C88.9,53.8,88.8,54,88.9,54.2L88.9,54.2z"/>
		<path fill-rule="evenodd" clip-rule="evenodd" fill="#F3F3F4" d="M36.2,51l1,3.2l3.4,0l-2.8,2l1.1,3.2l-2.7-2l-2.7,2l1.1-3.2
			l-2.8-2l3.4,0L36.2,51L36.2,51z M40.8,74.9l0.5,1.6l1.7,0l-1.4,1l0.5,1.6l-1.4-1l-1.4,1l0.5-1.6l-1.4-1l1.7,0L40.8,74.9L40.8,74.9
			z M36.2,82.2l1,3.2l3.4,0l-2.8,2l1.1,3.2l-2.7-2l-2.7,2l1.1-3.2l-2.8-2l3.4,0L36.2,82.2L36.2,82.2z M46.6,63.4l1,3.2l3.4,0l-2.8,2
			l1.1,3.2l-2.7-2l-2.7,2l1.1-3.2l-2.8-2l3.4,0L46.6,63.4L46.6,63.4z M25.9,64.3l1,3.2l3.4,0l-2.8,2l1.1,3.2l-2.7-2l-2.7,2l1.1-3.2
			l-2.8-2l3.4,0L25.9,64.3L25.9,64.3z"/>
	</g>
	<path opacity="0.35" fill="#FFFFFF" d="M13,29.7v25.5C26.2,62.6,43.7,67,63,67c19.3,0,36.8-4.5,50-11.8V29.7H13z"/>
</g>
</svg>
