<?xml version="1.0" encoding="utf-8"?>
<!-- Generator: Adobe Illustrator 24.3.0, SVG Export Plug-In . SVG Version: 6.00 Build 0)  -->
<svg version="1.1" id="Layer_1" xmlns="http://www.w3.org/2000/svg" xmlns:xlink="http://www.w3.org/1999/xlink" x="0px" y="0px"
	 viewBox="0 0 126 126" enable-background="new 0 0 126 126" xml:space="preserve">
<g>
	<g>
		<polygon fill="#F0F0F0" points="13,51.9 112.9,51.9 112.9,74.1 13,74.1 13,51.9 		"/>
		<polygon fill="#0437A0" points="13,74.1 112.9,74.1 112.9,96.3 13,96.3 13,74.1 		"/>
		<polygon fill="#FF1612" points="13,29.7 112.9,29.7 112.9,51.9 13,51.9 13,29.7 		"/>
		<g>
			<g>
				
					<path fill-rule="evenodd" clip-rule="evenodd" fill="#009B3A" stroke="#004E1D" stroke-width="1.954600e-02" stroke-miterlimit="2.4142" d="
					M61.8,67.1c0.2,0.1,0.4,0.2,0.7,0c0.3-0.1,0.5-0.3,0.8-0.5c0.3-0.2,0.5-0.2,0.4-0.1c0,0.1-0.6,0.5-0.9,0.7
					c-0.2,0.2-0.5,0.3-0.9,0.3c-0.4-0.1-0.5-0.4-0.5-0.5C61.5,67,61.7,67.1,61.8,67.1L61.8,67.1z"/>
				
					<path fill-rule="evenodd" clip-rule="evenodd" fill="#009B3A" stroke="#004E1D" stroke-width="1.954600e-02" stroke-miterlimit="2.4142" d="
					M63.6,67.4c-0.4-0.2-1.1-0.7-1.2-0.8c-0.2-0.1-1.3,0.5-1.3,0.5l0.5-0.4l-0.9,0.3l0.6-0.4l-0.9,0.2l0.6-0.4l-0.9,0.3l0.7-0.4
					l-0.5,0l0.3-0.1l-1,0.1l0.7-0.2l-0.9,0l0.7-0.1L59.3,66l0.5-0.1L59,65.7l0.7,0l-0.7-0.2l0.6,0l-0.8-0.3l0.7,0.1l-0.8-0.5
					l0.7,0.2l-1-0.6l0.7,0.3l-0.8-0.6l0.8,0.4l-0.8-0.7l0.6,0.3l-0.7-0.6l0.6,0.4l-0.6-0.6l0.6,0.3l-0.6-0.7l0.5,0.4l-0.5-0.7
					l0.4,0.4l-0.4-0.5l0.4,0.4l-0.4-0.9l0.2,0.2l-0.2-0.5l0.3,0.6l-0.3-0.8l0.3,0.5l-0.2-0.7l0.3,0.5l-0.3-0.9l0.3,0.5l-0.1-0.9
					l0.2,0.6l-0.1-0.9l0.2,0.7l0.1-1l0.1,0.7l0.2-1.1l0,0.8l0.2-1l0,0.8l0.2-1l0,0.8l0.3-0.8l-0.1,0.7l0.3-0.8l-0.1,0.6l0.2-0.8
					l-0.1,0.7l0.3-0.6l-0.1,0.5l0.3-0.7l-0.2,0.6l0.4-0.7l-0.1,0.6l0.4-0.7L61.1,59l0.3-0.5L61.2,59l0.4-0.5L61.4,59l0.4-0.5
					L61.6,59l0.4-0.4L61.7,59l0.4-0.4l-0.2,0.3l0.6-0.2L62,59l0.3-0.1l-0.1,0.1l0.6,0l-0.7,0.1l0.2,0.1l-0.3,0l0.4,0.2l-0.7-0.2
					l0.4,0.3l-0.6-0.2l0.4,0.3l-0.6-0.2l0.4,0.2L61,59.6l0.4,0.2l-0.7-0.1l0.6,0.2l-0.7,0l0.5,0.1l-0.7,0.1l0.6,0.1l-0.7,0.1
					l0.5,0.1l-0.7,0.1l0.5,0L60,60.7l0.3,0L59.8,61l0.3,0l-0.4,0.4l0.3-0.2l-0.4,0.5l0.3-0.1l-0.4,0.5l0.3-0.2l-0.3,0.4l0.2-0.2
					l-0.2,0.4l0.2-0.1l-0.2,0.4l0.2-0.2l-0.2,0.4l0.2-0.2l-0.2,0.5l0.2-0.2l-0.1,0.4l0.1-0.2l-0.1,0.5l0.1-0.2l-0.1,0.6l0.1-0.3
					l0,0.7l0.1-0.5l0,0.6l0.1-0.3v0.5l0.1-0.3l0,0.5l0.1-0.3l0.1,0.5l0.1-0.3l0.2,0.4l0-0.3l0.3,0.5l-0.1-0.3l0.3,0.4L61,65.3
					l0.4,0.5l-0.1-0.3l0.3,0.5l0-0.2c0,0,0.4,0.3,0.6,0.5c0.2,0.2,0.2,0.1,0.6,0.4c0.4,0.2,0.6,0.5,0.9,0.6c0.3,0.1,0.6,0,0.9-0.1
					c0.3-0.1,0,0.2-0.1,0.3C64.3,67.6,63.9,67.6,63.6,67.4L63.6,67.4z"/>
				<polygon fill="#004E1D" points="62,66.4 61.5,66.5 61.4,66.5 61.4,66.5 61.6,66.3 60.8,66.2 60.7,66.2 60.8,66.2 61.1,66.1 
					60.6,66 60.5,65.9 60.6,65.9 61,65.9 60.2,65.7 60.1,65.7 60.2,65.7 60.5,65.7 59.8,65.5 59.8,65.5 59.8,65.5 60.3,65.4 
					59.7,65.2 59.6,65.2 59.7,65.2 60,65.2 59.4,64.9 59.4,64.8 59.4,64.8 59.7,64.8 59.3,64.4 59.3,64.4 59.3,64.4 59.5,64.5 
					59.2,64.1 59.2,64.1 59.2,64.1 59.4,64.2 59.1,63.8 59.1,63.7 59.1,63.8 59.3,63.8 59,63.4 59,63.3 59,63.4 59.2,63.5 
					58.9,62.8 58.8,62.8 58.9,62.8 59.1,62.9 58.8,62.4 58.8,62.4 58.8,62.4 59,62.5 58.8,62 58.8,62 58.8,62 59,62.1 58.9,61.5 
					58.9,61.5 58.9,61.5 59.1,61.7 59.1,61.1 59.1,61.1 59.1,61.1 59.3,61.3 59.3,60.8 59.3,60.8 59.4,60.8 59.4,61 59.5,60.5 
					59.5,60.4 59.5,60.4 59.6,60.7 59.8,60.1 59.8,60.1 59.8,60.1 59.8,60.4 60,60 60,59.9 60,60 60,60.2 60.3,59.7 60.4,59.7 
					60.4,59.7 60.3,59.9 60.7,59.5 60.7,59.5 60.7,59.5 60.7,59.6 60.9,59.3 60.9,59.3 60.9,59.3 60.9,59.5 61.3,59.3 61.3,59.3 
					60.9,59.5 60.9,59.5 60.9,59.5 60.9,59.4 60.7,59.6 60.7,59.6 60.7,59.6 60.7,59.5 60.3,59.9 60.3,60 60.3,59.9 60.3,59.8 
					60,60.2 60,60.3 60,60.2 60,60 59.8,60.4 59.8,60.5 59.8,60.4 59.8,60.2 59.6,60.7 59.6,60.7 59.6,60.7 59.5,60.5 59.5,61 
					59.5,61 59.4,61 59.3,60.8 59.3,61.4 59.3,61.4 59.3,61.4 59.1,61.1 59.2,61.7 59.2,61.7 59.1,61.7 58.9,61.5 59,62.1 59,62.1 
					59,62.1 58.9,62 59,62.5 59,62.5 59,62.5 58.9,62.4 59.1,63 59.1,63 59.1,63 58.9,62.8 59.2,63.5 59.2,63.5 59.2,63.5 59,63.4 
					59.3,63.9 59.4,63.9 59.3,63.9 59.2,63.8 59.5,64.2 59.5,64.3 59.5,64.2 59.3,64.2 59.6,64.5 59.6,64.6 59.6,64.5 59.4,64.5 
					59.7,64.9 59.7,64.9 59.7,64.9 59.5,64.9 60,65.2 60,65.2 60,65.2 59.7,65.2 60.3,65.4 60.4,65.5 60.3,65.5 59.9,65.5 
					60.6,65.7 60.6,65.7 60.6,65.7 60.3,65.7 61,65.9 61.1,66 61,66 60.6,66 61.2,66.1 61.2,66.1 61.2,66.1 60.8,66.2 61.6,66.3 
					61.6,66.3 61.6,66.3 61.5,66.5 62,66.4 62,66.4 				"/>
				<g>
					
						<path fill-rule="evenodd" clip-rule="evenodd" fill="#009B3A" stroke="#004E1D" stroke-width="1.154200e-02" stroke-miterlimit="2.4142" d="
						M64.1,59c0-0.1,0.5,0,0.6,0.1c0.2,0.1,0.4,0.1,0.4,0.2c0,0.1-0.4,0-0.5,0C64.5,59.3,64.1,59.1,64.1,59L64.1,59z"/>
					
						<path fill-rule="evenodd" clip-rule="evenodd" fill="#009B3A" stroke="#004E1D" stroke-width="1.154100e-02" stroke-miterlimit="2.4142" d="
						M64.4,58.6c0.1-0.1,0.4,0.2,0.5,0.4c0.1,0.1,0.3,0.3,0.2,0.4c-0.1,0.1-0.3-0.2-0.4-0.3C64.6,59,64.4,58.7,64.4,58.6L64.4,58.6z
						"/>
					
						<path fill-rule="evenodd" clip-rule="evenodd" fill="#009B3A" stroke="#004E1D" stroke-width="1.154200e-02" stroke-miterlimit="2.4142" d="
						M64.2,58.8c0-0.1,0.4,0.1,0.6,0.2c0.1,0.1,0.4,0.2,0.3,0.3c0,0.1-0.4-0.1-0.5-0.2C64.5,59.1,64.2,58.9,64.2,58.8L64.2,58.8z"/>
				</g>
				<g>
					
						<path fill-rule="evenodd" clip-rule="evenodd" fill="#009B3A" stroke="#004E1D" stroke-width="1.087800e-02" stroke-miterlimit="2.4142" d="
						M65.6,59.1c0.1,0,0.2,0.4,0.2,0.5c0,0.2,0.1,0.4,0,0.4c-0.1,0-0.2-0.3-0.2-0.4C65.5,59.5,65.5,59.1,65.6,59.1L65.6,59.1z"/>
					
						<path fill-rule="evenodd" clip-rule="evenodd" fill="#009B3A" stroke="#004E1D" stroke-width="1.087700e-02" stroke-miterlimit="2.4142" d="
						M64.8,59.7c0-0.1,0.4,0,0.6,0.1s0.4,0.2,0.4,0.2c0,0.1-0.3,0-0.5-0.1C65.2,59.9,64.8,59.8,64.8,59.7L64.8,59.7z"/>
					
						<path fill-rule="evenodd" clip-rule="evenodd" fill="#009B3A" stroke="#004E1D" stroke-width="1.087700e-02" stroke-miterlimit="2.4142" d="
						M64.9,59.5c0-0.1,0.4,0.2,0.5,0.3c0.1,0.1,0.3,0.3,0.3,0.3c0,0.1-0.3-0.1-0.5-0.2C65.2,59.8,64.9,59.5,64.9,59.5L64.9,59.5z"/>
					
						<path fill-rule="evenodd" clip-rule="evenodd" fill="#009B3A" stroke="#004E1D" stroke-width="1.087600e-02" stroke-miterlimit="2.4142" d="
						M65.3,59.1c0.1,0,0.3,0.3,0.3,0.5c0.1,0.1,0.2,0.4,0.1,0.4c-0.1,0-0.2-0.3-0.3-0.4C65.4,59.5,65.3,59.2,65.3,59.1L65.3,59.1z"
						/>
					
						<path fill-rule="evenodd" clip-rule="evenodd" fill="#009B3A" stroke="#004E1D" stroke-width="1.087700e-02" stroke-miterlimit="2.4142" d="
						M65.1,59.3c0.1-0.1,0.4,0.2,0.5,0.4c0.1,0.1,0.3,0.3,0.2,0.4c-0.1,0.1-0.3-0.2-0.4-0.3C65.3,59.6,65,59.3,65.1,59.3L65.1,59.3z
						"/>
					
						<path fill-rule="evenodd" clip-rule="evenodd" fill="#009B3A" stroke="#004E1D" stroke-width="1.087700e-02" stroke-miterlimit="2.4142" d="
						M65.7,60.1c0,0-0.1,0-0.2,0.1c0,0-0.1,0.1-0.2,0.1c-0.1,0-0.1,0-0.1,0c0,0,0.1-0.1,0.1-0.2c0.1,0,0.1,0,0.2,0
						C65.6,60.1,65.7,60.1,65.7,60.1C65.7,60.1,65.7,60.1,65.7,60.1L65.7,60.1z"/>
					
						<path fill-rule="evenodd" clip-rule="evenodd" fill="#009B3A" stroke="#004E1D" stroke-width="1.087700e-02" stroke-miterlimit="2.4142" d="
						M65.8,60c0,0,0.1-0.2,0.1-0.2c0,0,0.1-0.1,0.2-0.2c0,0,0.1-0.1,0-0.1c0,0-0.1,0.1-0.2,0.1c-0.1,0,0,0.1,0,0.2
						C65.9,59.9,65.8,60,65.8,60C65.8,60,65.8,60.1,65.8,60L65.8,60z"/>
				</g>
				<g>
					
						<path fill-rule="evenodd" clip-rule="evenodd" fill="#009B3A" stroke="#004E1D" stroke-width="1.529100e-02" stroke-miterlimit="2.4142" d="
						M66.6,59.7c0.1,0,0.2,0.5,0.2,0.8c0,0.2,0,0.6-0.1,0.6c-0.1,0-0.2-0.5-0.2-0.6C66.5,60.2,66.5,59.7,66.6,59.7L66.6,59.7z"/>
					
						<path fill-rule="evenodd" clip-rule="evenodd" fill="#009B3A" stroke="#004E1D" stroke-width="1.529100e-02" stroke-miterlimit="2.4142" d="
						M65.5,60.3c0-0.1,0.5,0.2,0.7,0.3c0.2,0.1,0.5,0.3,0.4,0.4c-0.1,0.1-0.5-0.1-0.6-0.2C65.9,60.7,65.5,60.4,65.5,60.3L65.5,60.3z
						"/>
					
						<path fill-rule="evenodd" clip-rule="evenodd" fill="#009B3A" stroke="#004E1D" stroke-width="1.529100e-02" stroke-miterlimit="2.4142" d="
						M65.7,60c0.1-0.1,0.5,0.3,0.7,0.5c0.2,0.2,0.4,0.4,0.3,0.5c-0.1,0.1-0.4-0.2-0.6-0.4C65.9,60.5,65.6,60.1,65.7,60L65.7,60z"/>
					
						<path fill-rule="evenodd" clip-rule="evenodd" fill="#009B3A" stroke="#004E1D" stroke-width="1.528800e-02" stroke-miterlimit="2.4142" d="
						M66.3,59.7c0.1,0,0.3,0.5,0.3,0.7c0.1,0.2,0.1,0.6,0,0.6c-0.1,0-0.3-0.4-0.3-0.6C66.3,60.2,66.2,59.7,66.3,59.7L66.3,59.7z"/>
					
						<path fill-rule="evenodd" clip-rule="evenodd" fill="#009B3A" stroke="#004E1D" stroke-width="1.529100e-02" stroke-miterlimit="2.4142" d="
						M66,59.8c0.1-0.1,0.4,0.4,0.5,0.6c0.1,0.2,0.3,0.5,0.2,0.6c-0.1,0.1-0.4-0.3-0.5-0.5C66.1,60.4,65.9,59.9,66,59.8L66,59.8z"/>
					
						<path fill-rule="evenodd" clip-rule="evenodd" fill="#009B3A" stroke="#004E1D" stroke-width="1.529100e-02" stroke-miterlimit="2.4142" d="
						M66.6,61.1c0,0-0.2,0-0.2,0.1c-0.1,0-0.2,0.1-0.3,0.1c-0.1,0-0.2,0-0.2,0c0-0.1,0.1-0.1,0.2-0.2c0.1-0.1,0.2,0,0.3,0
						C66.4,61.1,66.6,61.1,66.6,61.1C66.6,61.1,66.6,61.1,66.6,61.1L66.6,61.1z"/>
					
						<path fill-rule="evenodd" clip-rule="evenodd" fill="#009B3A" stroke="#004E1D" stroke-width="1.529100e-02" stroke-miterlimit="2.4142" d="
						M66.8,61c0,0,0.2-0.2,0.2-0.2c0.1,0,0.2-0.1,0.3-0.2c0.1-0.1,0.1-0.1,0.1-0.2c0,0-0.2,0-0.3,0.1c-0.1,0.1-0.1,0.2-0.1,0.2
						C66.9,60.8,66.7,61,66.8,61C66.7,61,66.7,61.1,66.8,61L66.8,61z"/>
				</g>
				<g>
					
						<path fill-rule="evenodd" clip-rule="evenodd" fill="#009B3A" stroke="#004E1D" stroke-width="1.626000e-02" stroke-miterlimit="2.4142" d="
						M67.4,61c0.1,0,0,0.6-0.1,0.8c-0.1,0.2-0.2,0.6-0.3,0.6c-0.1,0,0-0.5,0-0.7C67.1,61.5,67.2,61,67.4,61L67.4,61z"/>
					
						<path fill-rule="evenodd" clip-rule="evenodd" fill="#009B3A" stroke="#004E1D" stroke-width="1.625900e-02" stroke-miterlimit="2.4142" d="
						M66,61.3c0.1-0.1,0.5,0.3,0.7,0.5c0.2,0.2,0.4,0.5,0.3,0.5c-0.1,0.1-0.4-0.2-0.6-0.4C66.3,61.9,65.9,61.4,66,61.3L66,61.3z"/>
					
						<path fill-rule="evenodd" clip-rule="evenodd" fill="#009B3A" stroke="#004E1D" stroke-width="1.626000e-02" stroke-miterlimit="2.4142" d="
						M66.3,61.1c0.1-0.1,0.4,0.5,0.5,0.7c0.1,0.2,0.3,0.6,0.2,0.6c-0.1,0.1-0.4-0.4-0.5-0.6C66.4,61.6,66.2,61.1,66.3,61.1
						L66.3,61.1z"/>
					
						<path fill-rule="evenodd" clip-rule="evenodd" fill="#009B3A" stroke="#004E1D" stroke-width="1.625700e-02" stroke-miterlimit="2.4142" d="
						M67,60.9c0.1,0,0.1,0.6,0.1,0.9c0,0.2,0,0.6-0.2,0.6c-0.1,0-0.1-0.5-0.1-0.7C66.9,61.5,66.9,60.9,67,60.9L67,60.9z"/>
					
						<path fill-rule="evenodd" clip-rule="evenodd" fill="#009B3A" stroke="#004E1D" stroke-width="1.626000e-02" stroke-miterlimit="2.4142" d="
						M66.6,61c0.1,0,0.3,0.6,0.4,0.8c0.1,0.2,0.1,0.6,0,0.7c-0.1,0-0.3-0.5-0.3-0.7C66.6,61.5,66.5,61,66.6,61L66.6,61z"/>
					
						<path fill-rule="evenodd" clip-rule="evenodd" fill="#009B3A" stroke="#004E1D" stroke-width="1.626000e-02" stroke-miterlimit="2.4142" d="
						M66.9,62.4c0,0-0.2,0-0.2,0c-0.1,0-0.2,0.1-0.3,0.1c-0.1,0-0.2,0-0.2-0.1c0-0.1,0.2-0.1,0.3-0.1c0.1,0,0.2,0.1,0.3,0.1
						C66.7,62.4,66.9,62.4,66.9,62.4C66.9,62.4,67,62.4,66.9,62.4L66.9,62.4z"/>
					
						<path fill-rule="evenodd" clip-rule="evenodd" fill="#009B3A" stroke="#004E1D" stroke-width="1.626000e-02" stroke-miterlimit="2.4142" d="
						M67.1,62.4c0,0,0.2-0.2,0.3-0.2c0.1,0,0.2-0.1,0.3-0.1c0.1,0,0.1-0.1,0.1-0.2c0-0.1-0.2,0-0.3,0c-0.1,0-0.1,0.2-0.2,0.2
						C67.3,62.2,67.1,62.4,67.1,62.4C67.1,62.4,67.1,62.4,67.1,62.4L67.1,62.4z"/>
				</g>
				<g>
					
						<path fill-rule="evenodd" clip-rule="evenodd" fill="#009B3A" stroke="#004E1D" stroke-width="1.686200e-02" stroke-miterlimit="2.4142" d="
						M67.7,62.6c0.1,0.1-0.2,0.6-0.4,0.8c-0.1,0.2-0.4,0.5-0.5,0.4c-0.1-0.1,0.2-0.5,0.3-0.7C67.2,63,67.6,62.6,67.7,62.6L67.7,62.6
						z"/>
					
						<path fill-rule="evenodd" clip-rule="evenodd" fill="#009B3A" stroke="#004E1D" stroke-width="1.686100e-02" stroke-miterlimit="2.4142" d="
						M66.3,62.4c0.1-0.1,0.4,0.5,0.4,0.7c0.1,0.2,0.2,0.6,0.1,0.7c-0.1,0.1-0.3-0.4-0.4-0.6C66.3,63,66.2,62.5,66.3,62.4L66.3,62.4z
						"/>
					
						<path fill-rule="evenodd" clip-rule="evenodd" fill="#009B3A" stroke="#004E1D" stroke-width="1.686100e-02" stroke-miterlimit="2.4142" d="
						M66.7,62.3c0.1,0,0.2,0.6,0.2,0.9c0,0.3,0,0.7-0.1,0.7c-0.1,0-0.2-0.5-0.2-0.7C66.5,62.9,66.5,62.3,66.7,62.3L66.7,62.3z"/>
					
						<path fill-rule="evenodd" clip-rule="evenodd" fill="#009B3A" stroke="#004E1D" stroke-width="1.685900e-02" stroke-miterlimit="2.4142" d="
						M67.4,62.4c0.1,0-0.1,0.6-0.2,0.9c-0.1,0.2-0.3,0.6-0.4,0.5c-0.1,0,0.1-0.5,0.1-0.7C67,62.9,67.3,62.4,67.4,62.4L67.4,62.4z"/>
					
						<path fill-rule="evenodd" clip-rule="evenodd" fill="#009B3A" stroke="#004E1D" stroke-width="1.686100e-02" stroke-miterlimit="2.4142" d="
						M67,62.3c0.1,0,0.1,0.7,0,0.9c0,0.2-0.1,0.6-0.2,0.6c-0.1,0-0.1-0.5-0.1-0.8C66.8,62.9,66.9,62.3,67,62.3L67,62.3z"/>
					
						<path fill-rule="evenodd" clip-rule="evenodd" fill="#009B3A" stroke="#004E1D" stroke-width="1.686100e-02" stroke-miterlimit="2.4142" d="
						M66.7,63.8c0,0-0.2-0.1-0.2-0.1c-0.1,0-0.2,0-0.3-0.1c-0.1,0-0.2-0.1-0.1-0.2c0-0.1,0.2,0,0.3,0c0.1,0,0.2,0.1,0.2,0.2
						C66.6,63.7,66.7,63.8,66.7,63.8C66.7,63.8,66.8,63.9,66.7,63.8L66.7,63.8z"/>
					
						<path fill-rule="evenodd" clip-rule="evenodd" fill="#009B3A" stroke="#004E1D" stroke-width="1.686100e-02" stroke-miterlimit="2.4142" d="
						M66.9,63.9c0,0,0.3-0.1,0.3,0c0.1,0,0.2,0,0.3,0c0.1,0,0.2-0.1,0.2-0.1c0-0.1-0.2-0.1-0.3-0.1c-0.1,0-0.2,0.1-0.3,0.1
						C67.2,63.8,66.9,63.8,66.9,63.9C66.9,63.8,66.8,63.9,66.9,63.9L66.9,63.9z"/>
				</g>
				<g>
					
						<path fill-rule="evenodd" clip-rule="evenodd" fill="#009B3A" stroke="#004E1D" stroke-width="1.853800e-02" stroke-miterlimit="2.4142" d="
						M67.5,64.2c0.1,0.1-0.4,0.5-0.7,0.7c-0.2,0.2-0.6,0.4-0.7,0.3c-0.1-0.1,0.3-0.5,0.5-0.6C66.9,64.4,67.4,64.1,67.5,64.2
						L67.5,64.2z"/>
					
						<path fill-rule="evenodd" clip-rule="evenodd" fill="#009B3A" stroke="#004E1D" stroke-width="1.853700e-02" stroke-miterlimit="2.4142" d="
						M66.1,63.5c0.1,0,0.2,0.7,0.2,0.9c0,0.3,0,0.7-0.1,0.7c-0.1,0-0.2-0.5-0.2-0.8C65.9,64.2,65.9,63.6,66.1,63.5L66.1,63.5z"/>
					
						<path fill-rule="evenodd" clip-rule="evenodd" fill="#009B3A" stroke="#004E1D" stroke-width="1.853800e-02" stroke-miterlimit="2.4142" d="
						M66.5,63.5c0.1,0,0,0.7,0,1c-0.1,0.3-0.2,0.7-0.3,0.7c-0.2,0-0.1-0.6,0-0.8C66.2,64.1,66.4,63.5,66.5,63.5L66.5,63.5z"/>
					
						<path fill-rule="evenodd" clip-rule="evenodd" fill="#009B3A" stroke="#004E1D" stroke-width="1.853500e-02" stroke-miterlimit="2.4142" d="
						M67.3,63.9c0.1,0.1-0.3,0.6-0.5,0.8c-0.2,0.2-0.5,0.5-0.6,0.4c-0.1-0.1,0.2-0.6,0.4-0.7C66.7,64.3,67.2,63.8,67.3,63.9
						L67.3,63.9z"/>
					
						<path fill-rule="evenodd" clip-rule="evenodd" fill="#009B3A" stroke="#004E1D" stroke-width="1.853800e-02" stroke-miterlimit="2.4142" d="
						M66.9,63.6c0.1,0-0.1,0.7-0.3,1c-0.1,0.2-0.3,0.6-0.5,0.6c-0.1-0.1,0.1-0.6,0.2-0.8C66.4,64.1,66.7,63.6,66.9,63.6L66.9,63.6z"
						/>
					
						<path fill-rule="evenodd" clip-rule="evenodd" fill="#009B3A" stroke="#004E1D" stroke-width="1.853800e-02" stroke-miterlimit="2.4142" d="
						M66,65.1c0,0-0.1-0.2-0.2-0.2c-0.1,0-0.2-0.1-0.3-0.2c-0.1-0.1-0.1-0.2-0.1-0.2c0-0.1,0.2,0,0.3,0.1c0.1,0.1,0.1,0.2,0.2,0.3
						C65.9,65,66.1,65.1,66,65.1C66.1,65.1,66.1,65.2,66,65.1L66,65.1z"/>
					
						<path fill-rule="evenodd" clip-rule="evenodd" fill="#009B3A" stroke="#004E1D" stroke-width="1.853800e-02" stroke-miterlimit="2.4142" d="
						M66.2,65.3c0,0,0.3,0,0.4,0.1c0.1,0,0.2,0.1,0.3,0.1c0.1,0,0.2,0,0.2-0.1c0-0.1-0.2-0.2-0.3-0.2c-0.1-0.1-0.2,0-0.3,0.1
						C66.5,65.3,66.2,65.2,66.2,65.3C66.2,65.2,66.2,65.2,66.2,65.3L66.2,65.3z"/>
				</g>
				<g>
					
						<path fill-rule="evenodd" clip-rule="evenodd" fill="#009B3A" stroke="#004E1D" stroke-width="1.954700e-02" stroke-miterlimit="2.4142" d="
						M66.7,65.8c0,0.1-0.7,0.3-0.9,0.3c-0.3,0-0.7,0.1-0.8-0.1c0-0.1,0.5-0.3,0.8-0.3C66.1,65.8,66.7,65.7,66.7,65.8L66.7,65.8z"/>
					
						<path fill-rule="evenodd" clip-rule="evenodd" fill="#009B3A" stroke="#004E1D" stroke-width="1.954600e-02" stroke-miterlimit="2.4142" d="
						M65.7,64.5c0.1,0-0.1,0.7-0.2,1c-0.1,0.3-0.3,0.7-0.5,0.6c-0.1,0,0.1-0.6,0.2-0.8C65.3,65,65.6,64.5,65.7,64.5L65.7,64.5z"/>
					
						<path fill-rule="evenodd" clip-rule="evenodd" fill="#009B3A" stroke="#004E1D" stroke-width="1.954600e-02" stroke-miterlimit="2.4142" d="
						M66.2,64.7c0.1,0.1-0.3,0.7-0.5,0.9c-0.2,0.2-0.5,0.6-0.6,0.5c-0.1-0.1,0.2-0.6,0.4-0.8C65.6,65.1,66.1,64.6,66.2,64.7
						L66.2,64.7z"/>
					
						<path fill-rule="evenodd" clip-rule="evenodd" fill="#009B3A" stroke="#004E1D" stroke-width="1.954400e-02" stroke-miterlimit="2.4142" d="
						M66.7,65.4c0.1,0.1-0.6,0.4-0.9,0.5c-0.3,0.1-0.7,0.3-0.8,0.1c-0.1-0.1,0.5-0.4,0.7-0.5C66,65.5,66.6,65.3,66.7,65.4L66.7,65.4
						z"/>
					
						<path fill-rule="evenodd" clip-rule="evenodd" fill="#009B3A" stroke="#004E1D" stroke-width="1.954600e-02" stroke-miterlimit="2.4142" d="
						M66.5,65c0.1,0.1-0.5,0.6-0.7,0.8c-0.2,0.2-0.6,0.4-0.7,0.3c-0.1-0.1,0.4-0.5,0.6-0.7C65.8,65.3,66.4,64.9,66.5,65L66.5,65z"/>
					
						<path fill-rule="evenodd" clip-rule="evenodd" fill="#009B3A" stroke="#004E1D" stroke-width="1.954600e-02" stroke-miterlimit="2.4142" d="
						M64.9,66c0,0-0.1-0.2-0.1-0.3c-0.1-0.1-0.2-0.2-0.2-0.3c-0.1-0.1-0.1-0.2,0-0.2c0.1,0,0.2,0.1,0.3,0.2c0.1,0.1,0,0.3,0,0.3
						C64.9,65.8,65,66,64.9,66C65,66,65,66.1,64.9,66L64.9,66z"/>
					
						<path fill-rule="evenodd" clip-rule="evenodd" fill="#009B3A" stroke="#004E1D" stroke-width="1.954600e-02" stroke-miterlimit="2.4142" d="
						M65.1,66.2c0,0,0.3,0.2,0.3,0.2c0,0.1,0.2,0.2,0.3,0.3c0.1,0.1,0.2,0.1,0.2,0.1c0-0.1-0.1-0.2-0.2-0.3
						c-0.1-0.1-0.2-0.1-0.3-0.1C65.3,66.3,65.1,66.2,65.1,66.2C65.1,66.2,65,66.2,65.1,66.2L65.1,66.2z"/>
				</g>
				<g>
					
						<path fill-rule="evenodd" clip-rule="evenodd" fill="#009B3A" stroke="#004E1D" stroke-width="1.954600e-02" stroke-miterlimit="2.4142" d="
						M64.7,65.3c0.1,0.1-0.1,0.4-0.2,0.6c-0.1,0.2-0.5,0.6-0.6,0.7c-0.1,0.1-0.3,0.2-0.4,0.1C63.5,66.6,64.4,65.1,64.7,65.3
						L64.7,65.3z"/>
					
						<path fill-rule="evenodd" clip-rule="evenodd" fill="#009B3A" stroke="#004E1D" stroke-width="1.954600e-02" stroke-miterlimit="2.4142" d="
						M65.3,66.7c0,0.2-0.4,0.3-0.8,0.2c-0.4,0-0.9,0-0.9-0.2c0-0.2,0.6-0.2,0.9-0.2C64.8,66.4,65.3,66.5,65.3,66.7L65.3,66.7z"/>
					
						<path fill-rule="evenodd" clip-rule="evenodd" fill="#009B3A" stroke="#004E1D" stroke-width="1.954600e-02" stroke-miterlimit="2.4142" d="
						M64.2,66.2c0.2-0.1,0.9-0.4,1-0.2c0.2,0.2-0.6,0.5-0.8,0.6c-0.2,0.1-0.7,0.2-0.8,0.1C63.5,66.6,64,66.3,64.2,66.2L64.2,66.2z"
						/>
				</g>
				
					<polygon fill-rule="evenodd" clip-rule="evenodd" fill="#FEDF00" stroke="#000000" stroke-width="3.945400e-02" stroke-miterlimit="2.4142" points="
					63,61.2 63.3,62.4 64.6,62.4 63.6,63.1 64,64.3 63,63.6 61.9,64.3 62.3,63.1 61.3,62.4 62.6,62.4 63,61.2 				"/>
			</g>
			
				<path fill-rule="evenodd" clip-rule="evenodd" fill="none" stroke="#000000" stroke-width="0.1564" stroke-miterlimit="2.4142" d="
				M63,54.3c4.8,0,8.7,3.9,8.7,8.7c0,4.8-3.9,8.7-8.7,8.7c-4.8,0-8.7-3.9-8.7-8.7C54.2,58.2,58.1,54.3,63,54.3L63,54.3z"/>
			<path d="M58.4,66.4l-1,0.6l-0.3-0.5c-0.1-0.1-0.1-0.2-0.1-0.2c0-0.1,0-0.1,0-0.2c0-0.1,0.1-0.1,0.1-0.1c0.1,0,0.1-0.1,0.2-0.1
				c0.1,0,0.1,0,0.2,0c0,0,0.1,0,0.1,0.1c0,0,0-0.1,0-0.1c0,0,0,0,0-0.1c0,0,0-0.1,0-0.1l0.2-0.3l0.2,0.4l-0.2,0.4c0,0,0,0.1,0,0.1
				c0,0,0,0.1,0,0.1l0,0l0.4-0.3L58.4,66.4L58.4,66.4z M57.6,66.5l-0.1-0.1c0,0,0,0-0.1-0.1c0,0,0,0-0.1,0c0,0,0,0-0.1,0
				c0,0-0.1,0-0.1,0.1c0,0,0,0.1,0,0.1l0.1,0.1L57.6,66.5L57.6,66.5z M56.6,65.7l-0.3-0.9l0.2-0.1l0.2,0.6l0.2-0.1l-0.2-0.5l0.2-0.1
				l0.2,0.5l0.2-0.1l-0.2-0.6l0.3-0.1l0.3,1L56.6,65.7L56.6,65.7z M56.2,64.3l-0.1-0.6c0-0.1,0-0.2,0.1-0.3c0.1-0.1,0.1-0.1,0.3-0.1
				c0.1,0,0.2,0,0.3,0.1c0.1,0.1,0.1,0.2,0.1,0.3l0,0.2l0.4-0.1l0,0.4L56.2,64.3L56.2,64.3z M56.7,63.9L56.7,63.9
				c0-0.2,0-0.2-0.1-0.2s-0.1,0-0.1,0c0,0-0.1,0-0.1,0.1c0,0,0,0.1,0,0.1l0,0.1L56.7,63.9L56.7,63.9z M56.2,62l0.1-0.4l0.7,0.1
				c0.1,0,0.1,0,0.2,0.1c0.1,0,0.1,0.1,0.1,0.1c0,0.1,0.1,0.1,0.1,0.2c0,0.1,0,0.2,0,0.3c0,0.1,0,0.1,0,0.2c0,0.1,0,0.1-0.1,0.2
				c0,0-0.1,0.1-0.1,0.1c-0.1,0-0.1,0.1-0.1,0.1c-0.1,0-0.1,0-0.2,0l-0.7-0.1l0.1-0.4l0.7,0.1c0.1,0,0.1,0,0.2,0
				c0,0,0.1-0.1,0.1-0.1c0-0.1,0-0.1,0-0.2c0,0-0.1-0.1-0.1-0.1L56.2,62L56.2,62z M56.3,61.2l0.2-0.6c0-0.1,0.1-0.2,0.2-0.2
				c0.1,0,0.2,0,0.2,0c0.1,0,0.1,0.1,0.2,0.1c0,0,0,0.1,0,0.1c0-0.1,0.1-0.1,0.2-0.1c0.1,0,0.1,0,0.2,0c0.1,0,0.1,0.1,0.1,0.1
				c0,0,0.1,0.1,0.1,0.1c0,0,0,0.1,0,0.1c0,0.1,0,0.1,0,0.2l-0.2,0.6L56.3,61.2L56.3,61.2z M56.9,61l0.1-0.1c0-0.1,0-0.1,0-0.1
				c0,0,0,0-0.1-0.1c0,0-0.1,0-0.1,0c0,0,0,0-0.1,0.1l-0.1,0.2L56.9,61L56.9,61z M57.3,61.1l0.1-0.2c0-0.1,0-0.1,0-0.1
				c0,0,0-0.1-0.1-0.1c0,0-0.1,0-0.1,0c0,0-0.1,0.1-0.1,0.1l-0.1,0.2L57.3,61.1L57.3,61.1z M56.9,59.7l0.2-0.3l0.7,0.5l0.3-0.5
				l0.2,0.2l-0.5,0.8L56.9,59.7L56.9,59.7z M57.6,58.6l0.2-0.3l0.9,0.8l-0.2,0.3L57.6,58.6L57.6,58.6z M59.2,58.1l0.3-0.1
				c0,0.1,0.1,0.2,0.1,0.2c0,0.1,0,0.1,0,0.2c0,0.1-0.1,0.1-0.2,0.2c-0.1,0.1-0.2,0.1-0.3,0.2c-0.1,0-0.2,0-0.3,0
				c-0.1,0-0.2-0.1-0.3-0.2c-0.1-0.2-0.2-0.3-0.2-0.4c0-0.1,0.1-0.3,0.2-0.4c0.1-0.1,0.2-0.1,0.3-0.2c0.1,0,0.2,0,0.3,0.1L59,57.9
				c0,0-0.1,0-0.1,0c0,0-0.1,0-0.1,0c0,0-0.1,0-0.1,0c-0.1,0.1-0.1,0.1-0.1,0.2c0,0.1,0,0.1,0.1,0.2c0.1,0.1,0.2,0.2,0.2,0.2
				c0.1,0,0.1,0,0.2-0.1c0.1,0,0.1-0.1,0.1-0.1C59.3,58.2,59.2,58.2,59.2,58.1L59.2,58.1z M60.5,57.7l-0.4,0.2l0,0.2l-0.3,0.2
				l-0.1-1.3l0.4-0.2l0.9,0.9l-0.3,0.2L60.5,57.7L60.5,57.7z M60.3,57.5L60,57.1l0.1,0.4L60.3,57.5L60.3,57.5z M61.5,56.3l0.5-0.1
				c0.1,0,0.2,0,0.3,0c0.1,0,0.1,0.1,0.2,0.1c0,0,0.1,0.1,0.1,0.2c0,0.1,0,0.1,0.1,0.2c0,0.1,0,0.2,0,0.3c0,0.1-0.1,0.1-0.1,0.2
				c0,0.1-0.1,0.1-0.2,0.1c-0.1,0-0.1,0.1-0.2,0.1l-0.5,0.1L61.5,56.3L61.5,56.3z M61.9,56.5l0.1,0.6l0.1,0c0.1,0,0.1,0,0.2,0
				c0,0,0.1-0.1,0.1-0.1c0,0,0-0.1,0-0.2c0-0.1,0-0.2-0.1-0.2C62.1,56.5,62.1,56.5,61.9,56.5L61.9,56.5L61.9,56.5z M63,56.1l1,0.1
				l0,0.2l-0.6,0l0,0.2l0.6,0l0,0.2l-0.6,0l0,0.2l0.6,0l0,0.3l-1-0.1L63,56.1L63,56.1z M64.4,56.3l0.4,0.1l-0.2,0.9l0.5,0.1L65,57.7
				l-0.9-0.2L64.4,56.3L64.4,56.3z M66.3,57l0.5,0.3c0.1,0.1,0.2,0.2,0.2,0.2c0,0.1,0,0.2-0.1,0.3c-0.1,0.1-0.1,0.2-0.2,0.2
				c-0.1,0-0.2,0-0.3-0.1l-0.2-0.1L66,58.2L65.6,58L66.3,57L66.3,57z M66.3,57.6L66.3,57.6c0.1,0.1,0.2,0.1,0.2,0.1
				c0,0,0.1,0,0.1-0.1c0,0,0-0.1,0-0.1c0,0,0-0.1-0.1-0.1l-0.1-0.1L66.3,57.6L66.3,57.6z M67.2,58.9l-0.3-0.3l-0.2,0.1l-0.3-0.3
				l1.1-0.6l0.3,0.3l-0.5,1.2l-0.3-0.3L67.2,58.9L67.2,58.9z M67.3,58.7l0.2-0.4l-0.4,0.2L67.3,58.7L67.3,58.7z M67.4,59.5l1-0.6
				l0.3,0.5c0.1,0.1,0.1,0.2,0.1,0.2c0,0.1,0,0.1,0,0.2c0,0.1-0.1,0.1-0.1,0.1c-0.1,0-0.1,0.1-0.2,0.1c-0.1,0-0.1,0-0.2,0
				c0,0-0.1,0-0.1-0.1c0,0,0,0.1,0,0.1c0,0,0,0,0,0.1c0,0,0,0.1,0,0.1l-0.2,0.3l-0.2-0.3l0.2-0.4c0,0,0-0.1,0-0.1c0,0,0-0.1,0-0.1
				l0,0l-0.4,0.3L67.4,59.5L67.4,59.5z M68.2,59.4l0.1,0.1c0,0,0,0,0.1,0.1c0,0,0,0,0.1,0c0,0,0.1,0,0.1,0c0,0,0.1,0,0.1-0.1
				c0,0,0-0.1-0.1-0.1l-0.1-0.1L68.2,59.4L68.2,59.4z M68.6,61.2l-0.2-0.4l-0.2,0l-0.1-0.3l1.3,0l0.1,0.4l-0.9,0.9l-0.1-0.4
				L68.6,61.2L68.6,61.2z M68.8,61l0.3-0.3l-0.4,0L68.8,61L68.8,61z M69,62.3l0.2,0l0.1,0.6l-0.5,0.1c-0.1-0.1-0.2-0.2-0.2-0.3
				c0-0.1-0.1-0.2-0.1-0.3c0-0.1,0-0.3,0-0.4c0-0.1,0.1-0.2,0.2-0.2c0.1-0.1,0.2-0.1,0.3-0.1c0.1,0,0.2,0,0.3,0
				c0.1,0,0.2,0.1,0.2,0.2c0,0.1,0.1,0.2,0.1,0.3c0,0.1,0,0.2,0,0.3c0,0.1,0,0.1-0.1,0.2c0,0-0.1,0.1-0.2,0.1l-0.1-0.3
				c0,0,0.1-0.1,0.1-0.1c0,0,0-0.1,0-0.1c0-0.1,0-0.1-0.1-0.2c-0.1,0-0.2-0.1-0.3,0c-0.1,0-0.2,0.1-0.3,0.1c0,0.1-0.1,0.1-0.1,0.2
				c0,0,0,0.1,0,0.1c0,0,0,0.1,0.1,0.1l0.1,0L69,62.3L69,62.3z M69.7,64l0,0.4L69,64.3c-0.1,0-0.1,0-0.2-0.1c-0.1,0-0.1-0.1-0.1-0.1
				c0-0.1-0.1-0.1-0.1-0.2c0-0.1,0-0.2,0-0.3c0-0.1,0-0.1,0-0.2c0-0.1,0-0.1,0.1-0.2c0,0,0.1-0.1,0.1-0.1c0,0,0.1-0.1,0.1-0.1
				c0.1,0,0.1,0,0.2,0l0.7,0.1l0,0.4l-0.7-0.1c-0.1,0-0.1,0-0.2,0c0,0-0.1,0.1-0.1,0.1c0,0.1,0,0.1,0,0.2c0,0,0.1,0.1,0.1,0.1
				L69.7,64L69.7,64z M68.4,65.2l0.1-0.4l-0.2-0.1l0.1-0.4l1,0.8l-0.1,0.4l-1.3,0.1l0.1-0.4L68.4,65.2L68.4,65.2z M68.7,65.2l0.4,0
				l-0.4-0.3L68.7,65.2L68.7,65.2z M69.2,66l-0.2,0.3l-0.5,0l0.2,0.4l-0.2,0.3l-0.3-0.8l-0.4-0.3l0.2-0.3l0.4,0.3L69.2,66L69.2,66z"
				/>
			
				<path fill-rule="evenodd" clip-rule="evenodd" fill="none" stroke="#000000" stroke-width="7.818600e-02" stroke-miterlimit="2.4142" d="
				M63,57.5c3,0,5.5,2.4,5.5,5.5c0,3-2.4,5.5-5.5,5.5c-3,0-5.5-2.4-5.5-5.5C57.5,60,59.9,57.5,63,57.5L63,57.5z"/>
			
				<path fill-rule="evenodd" clip-rule="evenodd" fill="none" stroke="#000000" stroke-width="7.818600e-02" stroke-miterlimit="2.4142" d="
				M63,55.8c4,0,7.2,3.2,7.2,7.2c0,4-3.2,7.2-7.2,7.2c-4,0-7.2-3.2-7.2-7.2C55.8,59,59,55.8,63,55.8L63,55.8z"/>
		</g>
	</g>
	<path opacity="0.25" fill="#FFFFFF" d="M13,29.7v25.5c13.2,7.4,30.7,11.8,50,11.8c19.3,0,36.8-4.5,50-11.8V29.7H13z"/>
</g>
</svg>
