<?xml version="1.0" encoding="utf-8"?>
<!-- Generator: Adobe Illustrator 24.3.0, SVG Export Plug-In . SVG Version: 6.00 Build 0)  -->
<svg version="1.1" id="Layer_1" xmlns="http://www.w3.org/2000/svg" xmlns:xlink="http://www.w3.org/1999/xlink" x="0px" y="0px"
	 viewBox="0 0 126 126" enable-background="new 0 0 126 126" xml:space="preserve">
<g>
	<g>
		<polygon fill="#FF1612" points="13,29.7 71,63 113,63 113,96.3 13,96.3 71,63 13,29.7 		"/>
		<polygon fill="#0456BD" points="13,29.7 113,29.7 113,63 71,63 13,29.7 		"/>
		<polygon fill="#F0F0F0" points="71,63 13,96.3 13,29.7 71,63 		"/>
		<path fill-rule="evenodd" clip-rule="evenodd" fill="#FEDC36" d="M33.2,48.8l0.8,0.8l-0.4,6.5c0.2,0,0.3,0,0.5,0l0.7-5.9l0.7,0.7
			l-1.1,5.3c0.9,0.2,1.7,0.5,2.4,1l3-4.5l1,0l-3.6,4.6c0.1,0.1,0.2,0.2,0.4,0.3l4.3-4.9l1.1,0l0,1.1l-4.9,4.3
			c0.1,0.1,0.2,0.2,0.3,0.4l4.6-3.6l0,1l-4.5,3c0.5,0.7,0.8,1.5,1,2.4l5.3-1.1l0.7,0.7l-5.9,0.7c0,0.2,0,0.3,0,0.5l6.5-0.4l0.8,0.8
			l-0.8,0.8l-6.5-0.4c0,0.2,0,0.3,0,0.5l5.9,0.7L44.9,65L39.6,64c-0.2,0.9-0.5,1.7-1,2.4l4.5,3l0,1l-4.6-3.6
			c-0.1,0.1-0.2,0.2-0.3,0.4l4.9,4.3l0,1.1l-1.1,0l-4.3-4.9c-0.1,0.1-0.2,0.2-0.4,0.3l3.6,4.6l-1,0l-3-4.5c-0.7,0.5-1.5,0.8-2.4,1
			l1.1,5.3L34.8,75l-0.7-5.9c-0.2,0-0.3,0-0.5,0l0.4,6.5l-0.8,0.8l-0.8-0.8l0.4-6.5c-0.2,0-0.3,0-0.5,0L31.6,75l-0.7-0.7l1.1-5.3
			c-0.9-0.2-1.7-0.5-2.4-1l-3,4.5l-1,0l3.6-4.6c-0.1-0.1-0.2-0.2-0.4-0.3l-4.3,4.9l-1.1,0l0-1.1l4.9-4.3c-0.1-0.1-0.2-0.2-0.3-0.4
			l-4.6,3.6l0-1l4.5-3c-0.5-0.7-0.8-1.5-1-2.4L21.5,65l-0.7-0.7l5.9-0.7c0-0.2,0-0.3,0-0.5l-6.5,0.4l-0.8-0.8l0.8-0.8l6.5,0.4
			c0-0.2,0-0.3,0-0.5l-5.9-0.7l0.7-0.7l5.3,1.1c0.2-0.9,0.5-1.7,1-2.4l-4.5-3l0-1l4.6,3.6c0.1-0.1,0.2-0.2,0.3-0.4L23.4,54l0-1.1
			l1.1,0l4.3,4.9c0.1-0.1,0.2-0.2,0.4-0.3l-3.6-4.6l1,0l3,4.5c0.7-0.5,1.5-0.8,2.4-1L30.9,51l0.7-0.7l0.7,5.9c0.2,0,0.3,0,0.5,0
			l-0.4-6.5L33.2,48.8L33.2,48.8z M60.6,59.3l0,2.6l2.5,0.8l-2.5,0.8l0,2.6L59,64l-2.5,0.8l1.6-2.1l-1.6-2.1l2.5,0.8L60.6,59.3
			L60.6,59.3z M17.5,83.1l1.1,2.4l2.6-0.3L19.2,87l1.1,2.4l-2.3-1.3l-1.9,1.8l0.5-2.6L14.4,86l2.6-0.3L17.5,83.1L17.5,83.1z
			 M16.1,35.6l2,1.8l2.3-1.3l-1.1,2.4l2,1.7l-2.6-0.3l-1.1,2.4L17,39.7l-2.6-0.3l2.3-1.3L16.1,35.6L16.1,35.6z"/>
	</g>
	<path opacity="0.25" fill="#FFFFFF" d="M13,29.7v25.5C26.2,62.6,43.7,67,63,67c19.3,0,36.8-4.5,50-11.8V29.7H13z"/>
</g>
</svg>
