<?xml version="1.0" encoding="utf-8"?>
<!-- Generator: Adobe Illustrator 24.3.0, SVG Export Plug-In . SVG Version: 6.00 Build 0)  -->
<svg version="1.1" id="Layer_1" xmlns="http://www.w3.org/2000/svg" xmlns:xlink="http://www.w3.org/1999/xlink" x="0px" y="0px"
	 viewBox="0 0 126 126" enable-background="new 0 0 126 126" xml:space="preserve">
<g>
	<g>
		<polygon fill="#00840F" points="13,96.3 53,96.3 53,29.7 13,29.7 13,96.3 		"/>
		<polygon fill="#FF1612" points="53,96.3 113,96.3 113,29.7 53,29.7 53,96.3 		"/>
		<g>
			
				<path fill-rule="evenodd" clip-rule="evenodd" fill="#FFFF00" stroke="#000000" stroke-width="2.702500e-02" stroke-miterlimit="2.4142" d="
				M60.4,71.7c0,0,2.5,1.3,4.1,1.9c1.6,0.6,2.2,0.4,2.3,0.3s0.1-0.3,0.1-0.3l-0.6-1l-4-3.3c0,0-1.8,0.4-1.8,0.4
				C60.5,69.7,60.4,71.7,60.4,71.7L60.4,71.7z"/>
			<path d="M64.9,73.2c0,0-2.5-0.8-4-1.6l0,0.1C62.4,72.5,64.9,73.3,64.9,73.2L64.9,73.2L64.9,73.2z"/>
			
				<path fill-rule="evenodd" clip-rule="evenodd" fill="#FFFF00" stroke="#000000" stroke-width="2.702500e-02" stroke-miterlimit="2.4142" d="
				M67.8,54.2c0.2,0,0.4,0,0.2-0.3c-0.1-0.1-0.3-0.2-0.4-0.4c0,0.2-0.1,0.3-0.1,0.5C67.6,54.1,67.7,54.2,67.8,54.2L67.8,54.2z"/>
			
				<path fill-rule="evenodd" clip-rule="evenodd" fill="#FFFF00" stroke="#000000" stroke-width="2.702500e-02" stroke-miterlimit="2.4142" d="
				M68.4,55c0,0.1,0,0.3-0.1,0.4c0.1,0.1,0.1,0.1,0.2,0.2c0.2,0,0.5-0.1,0.3-0.3C68.7,55.2,68.5,55.1,68.4,55L68.4,55z"/>
			
				<path fill-rule="evenodd" clip-rule="evenodd" fill="#FFFF00" stroke="#000000" stroke-width="2.707700e-02" stroke-miterlimit="2.4142" d="
				M40,71.7c0,0,4.8,1.6,13,1.5c3.9,0,8.4-0.3,13.7-1.5c-0.6,0.6-1.1,1.3-1.7,1.9c-5.2,1.6-14.6,2.6-23.3,0.2L40,71.7L40,71.7z"/>
			<path d="M41.5,73.3c0.6,0.2,3.2,0.7,6.2,1.1c1.8,0.2,3.7,0.4,5.3,0.4c5,0,11.9-1.6,11.9-1.6l0,0.1c0,0-6.9,1.6-11.9,1.6
				c-1.7,0-3.6-0.2-5.3-0.4C44.7,74.1,42.1,73.6,41.5,73.3L41.5,73.3L41.5,73.3z"/>
			<path d="M40.5,72.1c0.5,0.1,3.5,0.8,6.8,1.2c1.9,0.3,4,0.4,5.7,0.4c5.2,0,12.5-1.6,12.5-1.6l0,0.1c0,0-7.3,1.6-12.5,1.6
				c-1.8,0-3.8-0.2-5.8-0.4C43.9,73,40.9,72.3,40.5,72.1L40.5,72.1L40.5,72.1z"/>
			
				<path fill-rule="evenodd" clip-rule="evenodd" fill="#FFFF00" stroke="#000000" stroke-width="2.702500e-02" stroke-miterlimit="2.4142" d="
				M43.3,66.1c0,0-3.8-0.5-6.1-1.3l0-1.8c0,0,3.6,1.1,6.1,1.3L43.3,66.1L43.3,66.1z"/>
			<path d="M37.4,63.4c0,0,2.7,0.9,5.5,1.2l0,0.1C40.1,64.4,37.4,63.4,37.4,63.4L37.4,63.4L37.4,63.4z"/>
			<path d="M37.4,64.4c0,0,2.9,1,5.5,1.2l0,0.1C40.3,65.5,37.4,64.5,37.4,64.4L37.4,64.4L37.4,64.4z"/>
			
				<path fill-rule="evenodd" clip-rule="evenodd" fill="#FFFF00" stroke="#000000" stroke-width="2.707700e-02" stroke-miterlimit="2.4142" d="
				M38.9,72.9c-0.2,0-0.4,0-0.6-0.2c0.1-0.2,0.2-0.3,0.3-0.5C38.7,72.4,38.8,72.6,38.9,72.9L38.9,72.9z"/>
			
				<path fill-rule="evenodd" clip-rule="evenodd" fill="#FFFF00" stroke="#000000" stroke-width="2.707700e-02" stroke-miterlimit="2.4142" d="
				M38.1,71.5c-0.1,0.1-0.3,0.1-0.5-0.1c0-0.1,0.1-0.3,0.1-0.4C37.9,71.1,38,71.3,38.1,71.5L38.1,71.5z"/>
			
				<path fill-rule="evenodd" clip-rule="evenodd" fill="#FFFF00" stroke="#000000" stroke-width="2.702500e-02" stroke-miterlimit="2.4142" d="
				M62.6,57.1c0,0,3.3-0.6,4.6-1.2c1.3-0.5-1.1-1.6-1.1-1.6s-2.4,0.6-3.3,0.8C62,55.4,62.6,57.1,62.6,57.1L62.6,57.1z"/>
			<path d="M63.2,56.5c0,0,2.8-0.5,3.6-0.9l0,0.1C66,56.1,63.2,56.6,63.2,56.5L63.2,56.5L63.2,56.5z M63,55.5c0,0,2.5-0.4,3.3-0.8
				l0,0.1C65.5,55.1,63.1,55.6,63,55.5L63,55.5L63,55.5z"/>
			
				<path fill-rule="evenodd" clip-rule="evenodd" fill="#FFFF00" stroke="#000000" stroke-width="2.707700e-02" stroke-miterlimit="2.4142" d="
				M35.9,64.4c-0.1,0-0.4,0-0.4-0.4c0.1-0.2,0.2-0.4,0.3-0.5C35.8,63.8,35.9,64.1,35.9,64.4L35.9,64.4z"/>
			
				<path fill-rule="evenodd" clip-rule="evenodd" fill="#FFFF00" stroke="#000000" stroke-width="2.707700e-02" stroke-miterlimit="2.4142" d="
				M35.8,62.8c-0.1,0-0.3,0.1-0.3-0.2c0.1-0.2,0.1-0.3,0.2-0.5C35.8,62.3,35.8,62.5,35.8,62.8L35.8,62.8z"/>
			
				<path fill-rule="evenodd" clip-rule="evenodd" fill="#FFFF00" stroke="#000000" stroke-width="2.707700e-02" stroke-miterlimit="2.4142" d="
				M70.1,64.4c0.1,0,0.4,0,0.4-0.4c-0.1-0.2-0.2-0.4-0.3-0.5C70.1,63.8,70.1,64.1,70.1,64.4L70.1,64.4z"/>
			
				<path fill-rule="evenodd" clip-rule="evenodd" fill="#FFFF00" stroke="#000000" stroke-width="2.707700e-02" stroke-miterlimit="2.4142" d="
				M70.2,62.8c0.1,0,0.3,0.1,0.3-0.2c-0.1-0.2-0.1-0.3-0.2-0.5C70.2,62.3,70.2,62.5,70.2,62.8L70.2,62.8z"/>
			
				<path fill-rule="evenodd" clip-rule="evenodd" fill="#FFFF00" stroke="#000000" stroke-width="2.702500e-02" stroke-miterlimit="2.4142" d="
				M41.1,60.2c0,0-1.6-1.1-2.9-2.3c-1.3-1.1-1.4-1.7-1.3-1.8C37,56,37,55.8,37,55.8l1.2,0l4.8,1.9c0,0,0.5,1.7,0.5,1.8
				C43.5,59.6,41.1,60.2,41.1,60.2L41.1,60.2z"/>
			<path d="M38.3,57.5c0,0,1.9,1.8,3.3,2.7l0,0.1C40.2,59.3,38.3,57.5,38.3,57.5L38.3,57.5L38.3,57.5z"/>
			
				<path fill-rule="evenodd" clip-rule="evenodd" fill="#FFFF00" stroke="#000000" stroke-width="2.702500e-02" stroke-miterlimit="2.4142" d="
				M62.6,66.1c0,0,3.8-0.5,6.1-1.3l0-1.8c0,0-3.6,1.1-6.1,1.3L62.6,66.1L62.6,66.1z"/>
			<path d="M68.6,63.4c0,0-2.7,0.9-5.5,1.2l0,0.1C65.9,64.4,68.6,63.4,68.6,63.4L68.6,63.4L68.6,63.4z"/>
			<path d="M68.5,64.4c0,0-2.9,1-5.5,1.2l0,0.1C65.6,65.5,68.5,64.5,68.5,64.4L68.5,64.4L68.5,64.4z"/>
			
				<path fill-rule="evenodd" clip-rule="evenodd" fill="#FFFF00" stroke="#000000" stroke-width="2.702500e-02" stroke-miterlimit="2.4142" d="
				M53,45.7c9.6,0,17.3,7.8,17.3,17.3c0,9.6-7.8,17.3-17.3,17.3c-9.6,0-17.3-7.8-17.3-17.3C35.7,53.4,43.4,45.7,53,45.7L53,45.7z
				 M53,47.5c8.5,0,15.5,6.9,15.5,15.5S61.5,78.5,53,78.5c-8.5,0-15.5-6.9-15.5-15.5S44.5,47.5,53,47.5L53,47.5z"/>
			<path fill="none" stroke="#000000" stroke-width="2.705000e-02" stroke-miterlimit="2.4142" d="M53,46.1
				c9.3,0,16.9,7.6,16.9,16.9c0,9.3-7.5,16.9-16.9,16.9c-9.3,0-16.9-7.6-16.9-16.9C36.1,53.7,43.7,46.1,53,46.1z"/>
			<path fill="none" stroke="#000000" stroke-width="2.705100e-02" stroke-miterlimit="2.4142" d="M53,47.1
				c8.7,0,15.8,7.1,15.8,15.9S61.7,78.9,53,78.9c-8.7,0-15.8-7.1-15.8-15.9S44.3,47.1,53,47.1z"/>
			
				<polygon fill-rule="evenodd" clip-rule="evenodd" fill="#FFFF00" stroke="#000000" stroke-width="2.707700e-02" stroke-miterlimit="2.4142" points="
				52.5,45.6 53.5,45.6 53.5,51.8 52.5,51.8 52.5,45.6 			"/>
			
				<polygon fill-rule="evenodd" clip-rule="evenodd" fill="#FFFF00" stroke="#000000" stroke-width="2.707700e-02" stroke-miterlimit="2.4142" points="
				53.9,45.4 53.5,45.4 53.5,51.8 53.9,51.8 53.9,45.4 			"/>
			
				<polygon fill-rule="evenodd" clip-rule="evenodd" fill="#FFFF00" stroke="#000000" stroke-width="2.707700e-02" stroke-miterlimit="2.4142" points="
				52.5,45.4 52.1,45.4 52.1,51.8 52.5,51.8 52.5,45.4 			"/>
			
				<polygon fill-rule="evenodd" clip-rule="evenodd" fill="#FFFF00" stroke="#000000" stroke-width="2.707700e-02" stroke-miterlimit="2.4142" points="
				52.5,80.4 53.5,80.4 53.5,74.2 52.5,74.2 52.5,80.4 			"/>
			
				<polygon fill-rule="evenodd" clip-rule="evenodd" fill="#FFFF00" stroke="#000000" stroke-width="2.707700e-02" stroke-miterlimit="2.4142" points="
				53.9,80.6 53.5,80.6 53.5,74.2 53.9,74.2 53.9,80.6 			"/>
			
				<polygon fill-rule="evenodd" clip-rule="evenodd" fill="#FFFF00" stroke="#000000" stroke-width="2.707700e-02" stroke-miterlimit="2.4142" points="
				52.5,80.6 52.1,80.6 52.1,74.2 52.5,74.2 52.5,80.6 			"/>
			
				<path fill-rule="evenodd" clip-rule="evenodd" fill="#FFFF00" stroke="#000000" stroke-width="2.707700e-02" stroke-miterlimit="2.4142" d="
				M37.6,71.1c0,0,0.4,0.8,0.7,1.2c0,0,0.6-0.5,1.5-0.8c0.8-0.3,4.5-1.3,4.5-1.3l-0.7-1.4c0,0-3.7,0.8-4.8,1.5
				C37.7,70.9,37.6,71.1,37.6,71.1L37.6,71.1z"/>
			
				<path fill-rule="evenodd" clip-rule="evenodd" fill="#FFFF00" stroke="#000000" stroke-width="2.707700e-02" stroke-miterlimit="2.4142" d="
				M37.4,71c0,0,0.2-0.6,2.3-1.3c2.1-0.7,4-1.1,4-1.1l0,0.4c0,0-2.6,0.6-3.9,1.1c-1.3,0.5-2,0.9-2.2,1.3L37.4,71L37.4,71z"/>
			
				<path fill-rule="evenodd" clip-rule="evenodd" fill="#FFFF00" stroke="#000000" stroke-width="2.707700e-02" stroke-miterlimit="2.4142" d="
				M38.2,72.4c0,0,0.2-0.6,2.3-1.3c2.1-0.7,4-1.1,4-1.1l0,0.4c0,0-2.6,0.6-3.9,1.1c-1.3,0.5-2,0.9-2.2,1.3L38.2,72.4L38.2,72.4z"/>
			
				<path fill-rule="evenodd" clip-rule="evenodd" fill="#FFFF00" stroke="#000000" stroke-width="2.707700e-02" stroke-miterlimit="2.4142" d="
				M35.7,62.3c0,0,0,0.8,0,1.3l2.3-1.1l3.2-0.9l1.7-0.3l-0.1-1.5l-3.6,0.8L37,61.4L35.7,62.3L35.7,62.3z"/>
			
				<path fill-rule="evenodd" clip-rule="evenodd" fill="#FFFF00" stroke="#000000" stroke-width="2.707700e-02" stroke-miterlimit="2.4142" d="
				M35.5,64.1c0,0,0.6-0.9,3.5-1.7c2.9-0.8,4-0.9,4-0.9l-0.1-0.4c0,0-2.1,0.3-3.9,0.8c-1.8,0.5-3.1,1.2-3.4,1.6L35.5,64.1L35.5,64.1
				z"/>
			
				<path fill-rule="evenodd" clip-rule="evenodd" fill="#FFFF00" stroke="#000000" stroke-width="2.707700e-02" stroke-miterlimit="2.4142" d="
				M35.5,62.6c0,0,0.6-0.9,3.5-1.7c2.9-0.8,4-0.9,4-0.9l-0.1-0.4c0,0-2.1,0.3-3.9,0.8c-1.8,0.5-3.1,1.2-3.4,1.6L35.5,62.6L35.5,62.6
				z"/>
			
				<path fill-rule="evenodd" clip-rule="evenodd" fill="#FFFF00" stroke="#000000" stroke-width="2.707700e-02" stroke-miterlimit="2.4142" d="
				M70.3,62.3c0,0,0,0.8,0,1.3L68,62.5l-3.2-0.9l-1.7-0.3l0.1-1.5l3.6,0.8l2.2,0.8L70.3,62.3L70.3,62.3z"/>
			
				<path fill-rule="evenodd" clip-rule="evenodd" fill="#FFFF00" stroke="#000000" stroke-width="2.707700e-02" stroke-miterlimit="2.4142" d="
				M70.4,64.1c0,0-0.6-0.9-3.5-1.7c-2.9-0.8-4-0.9-4-0.9l0.1-0.4c0,0,2.1,0.3,3.9,0.8c1.8,0.5,3.1,1.2,3.4,1.6L70.4,64.1L70.4,64.1z
				"/>
			
				<path fill-rule="evenodd" clip-rule="evenodd" fill="#FFFF00" stroke="#000000" stroke-width="2.707700e-02" stroke-miterlimit="2.4142" d="
				M70.4,62.6c0,0-0.6-0.9-3.5-1.7c-2.9-0.8-4-0.9-4-0.9l0.1-0.4c0,0,2.1,0.3,3.9,0.8c1.8,0.5,3.1,1.2,3.4,1.6L70.4,62.6L70.4,62.6z
				"/>
			
				<polygon fill-rule="evenodd" clip-rule="evenodd" fill="#FFFF00" stroke="#000000" stroke-width="2.702500e-02" stroke-miterlimit="2.4142" points="
				67.6,53.4 68.4,55 66.1,54.1 63,53.4 63,52.1 65.6,52.7 67.6,53.4 			"/>
			
				<path fill-rule="evenodd" clip-rule="evenodd" fill="#FFFF00" stroke="#000000" stroke-width="2.702500e-02" stroke-miterlimit="2.4142" d="
				M63.2,51.9c0,0,2.9,0.5,4.5,1.5l0.3,0.4c0.1,0.1,0.1,0.1,0,0c-0.2-0.1-0.9-0.6-2.4-1c-1.8-0.5-2.3-0.6-2.3-0.6L63.2,51.9
				L63.2,51.9z"/>
			
				<path fill-rule="evenodd" clip-rule="evenodd" fill="#FFFF00" stroke="#000000" stroke-width="2.702500e-02" stroke-miterlimit="2.4142" d="
				M68.5,54.9c0,0-1.6-1-5.3-1.5l0,0.3c0,0,3.2,0.5,5.4,1.6c0.1,0,0.1,0.1,0.1,0L68.5,54.9L68.5,54.9z"/>
			
				<polygon fill-rule="evenodd" clip-rule="evenodd" fill="#FFFF00" stroke="#000000" stroke-width="2.702500e-02" stroke-miterlimit="2.4142" points="
				39.2,53.1 38.2,54.6 40.6,53.9 43.7,53.4 43.7,52 41.2,52.5 39.2,53.1 			"/>
			
				<path fill-rule="evenodd" clip-rule="evenodd" fill="#FFFF00" stroke="#000000" stroke-width="2.702500e-02" stroke-miterlimit="2.4142" d="
				M43.6,51.8c0,0-3,0.4-4.6,1.3l-0.3,0.4c-0.1,0.1-0.1,0.1,0,0c0.2-0.1,1-0.6,2.5-0.9c1.8-0.4,2.3-0.4,2.3-0.4L43.6,51.8L43.6,51.8
				z"/>
			
				<path fill-rule="evenodd" clip-rule="evenodd" fill="#FFFF00" stroke="#000000" stroke-width="2.702500e-02" stroke-miterlimit="2.4142" d="
				M38.1,54.5c0,0,1.6-0.9,5.4-1.3l-0.1,0.3c0,0-3.2,0.4-5.5,1.3c-0.1,0-0.1,0.1-0.1,0L38.1,54.5L38.1,54.5z"/>
			
				<path fill-rule="evenodd" clip-rule="evenodd" fill="#FFFF00" stroke="#000000" stroke-width="2.702500e-02" stroke-miterlimit="2.4142" d="
				M38.4,53.3l-0.3,0.3c0,0-0.2,0.2,0.1,0.6l0.5-0.9L38.4,53.3L38.4,53.3z"/>
			
				<path fill-rule="evenodd" clip-rule="evenodd" fill="#FFFF00" stroke="#000000" stroke-width="2.702500e-02" stroke-miterlimit="2.4142" d="
				M37.2,55.7l1.4-2.5l0.9,0l2.4,0.7l1.1,0.5c0,0,0.1,3.3,0,3.3c-0.1,0-1.8-0.9-1.8-0.9l-3-1L37.2,55.7L37.2,55.7z"/>
			
				<path fill-rule="evenodd" clip-rule="evenodd" fill="#FFFF00" stroke="#000000" stroke-width="2.702500e-02" stroke-miterlimit="2.4142" d="
				M42.8,54.6c0,0-1.5-0.8-3-1.1c-1.5-0.3-1.7,0.1-1.7,0.1l0.2-0.4c0,0,0.2-0.4,2.2,0.2c2,0.6,2.2,0.8,2.2,0.8L42.8,54.6L42.8,54.6z
				"/>
			
				<path fill-rule="evenodd" clip-rule="evenodd" fill="#FFFF00" stroke="#000000" stroke-width="2.702500e-02" stroke-miterlimit="2.4142" d="
				M42.7,57.5c-1.1-0.6-4.5-2.1-5.7-1.8l-0.3,0.5c0.8-0.5,3.3,0.5,4.1,0.9c1.1,0.5,1.9,0.9,1.9,0.9L42.7,57.5L42.7,57.5z"/>
			
				<path fill-rule="evenodd" clip-rule="evenodd" fill="#FFFF00" stroke="#000000" stroke-width="2.702500e-02" stroke-miterlimit="2.4142" d="
				M68.5,71.2l-0.1,0.4c0,0-0.1,0.2-0.5,0.2l0.5-0.9L68.5,71.2L68.5,71.2z"/>
			
				<path fill-rule="evenodd" clip-rule="evenodd" fill="#FFFF00" stroke="#000000" stroke-width="2.702500e-02" stroke-miterlimit="2.4142" d="
				M67,73.4l1.6-2.4l-0.5-0.8l-1.8-1.8L62.9,66c0,0-0.8,3.1-0.7,3.2c0,0.1,1.8,1.2,1.8,1.2l2.4,2.1L67,73.4L67,73.4z"/>
			
				<path fill-rule="evenodd" clip-rule="evenodd" fill="#FFFF00" stroke="#000000" stroke-width="2.702500e-02" stroke-miterlimit="2.4142" d="
				M63.1,66.3c0,0,2.2,1.7,2.3,1.8c0.4,0.3,1.4,1,2.2,1.9c1,1.1,0.8,1.5,0.8,1.5l0.2-0.4c0,0,0.3-0.4-1.2-1.9
				c-0.8-0.8-1.3-1.2-1.6-1.4c-0.2-0.1-2.6-2-2.6-2L63.1,66.3L63.1,66.3z"/>
			
				<path fill-rule="evenodd" clip-rule="evenodd" fill="#FFFF00" stroke="#000000" stroke-width="2.702500e-02" stroke-miterlimit="2.4142" d="
				M62,68.9c1.3,0.8,4.7,3.3,5.1,4.6l-0.3,0.5c0-0.9-2.1-2.6-2.8-3.2c-0.8-0.6-1.6-1.2-2.4-1.7L62,68.9L62,68.9z"/>
			<path fill-rule="evenodd" clip-rule="evenodd" fill="#FF1612" d="M43,51.5h20v13.3c0,5.5-4.5,10-10,10h0c-5.5,0-10-4.5-10-10
				V51.5L43,51.5z"/>
			<path fill-rule="evenodd" clip-rule="evenodd" fill="#FFFFFF" d="M42.6,51.1h20.8v13.9c0,5.7-4.7,10.4-10.4,10.4l0,0
				c-5.7,0-10.4-4.7-10.4-10.4V51.1L42.6,51.1z"/>
			<path fill-rule="evenodd" clip-rule="evenodd" fill="#FF1612" d="M43,51.5h20v13.3c0,5.5-4.5,10-10,10h0c-5.5,0-10-4.5-10-10
				V51.5L43,51.5z"/>
			
				<polygon fill-rule="evenodd" clip-rule="evenodd" fill="#FFFF00" stroke="#000000" stroke-width="2.162200e-02" stroke-miterlimit="2.4142" points="
				52.6,53.4 52.7,52.1 53.3,52.1 53.4,53.4 52.6,53.4 			"/>
			<path fill-rule="evenodd" clip-rule="evenodd" d="M52.9,52.9h0.2v-0.3c0,0,0-0.1-0.1-0.1l0,0c0,0-0.1,0-0.1,0.1V52.9L52.9,52.9z"
				/>
			
				<polygon fill-rule="evenodd" clip-rule="evenodd" fill="#FFFF00" stroke="#000000" stroke-width="2.162200e-02" stroke-miterlimit="2.4142" points="
				51.7,53.4 51.7,52.7 52.4,52.7 52.5,53.4 51.7,53.4 			"/>
			
				<polygon fill-rule="evenodd" clip-rule="evenodd" fill="#FFFF00" stroke="#000000" stroke-width="2.162200e-02" stroke-miterlimit="2.4142" points="
				53.6,53.4 53.6,52.7 54.3,52.7 54.3,53.4 53.6,53.4 			"/>
			
				<polygon fill-rule="evenodd" clip-rule="evenodd" fill="#FFFF00" stroke="#000000" stroke-width="2.162200e-02" stroke-miterlimit="2.4142" points="
				51.6,55 51.7,53.8 54.3,53.8 54.5,55.1 51.6,55 			"/>
			
				<path fill-rule="evenodd" clip-rule="evenodd" fill="#FFFF00" stroke="#000000" stroke-width="2.162200e-02" stroke-miterlimit="2.4142" d="
				M52.3,55c0,0,0-0.9,0.7-1.2c0,0,0.7,0.2,0.7,1.1L52.3,55L52.3,55z"/>
			
				<path fill-rule="evenodd" clip-rule="evenodd" fill="#FFFF00" stroke="#000000" stroke-width="2.387700e-02" stroke-miterlimit="2.4142" d="
				M52.6,55c0,0,0-0.7,0.4-0.8c0,0,0.4,0.1,0.4,0.8L52.6,55L52.6,55z"/>
			<path fill-rule="evenodd" clip-rule="evenodd" fill="#FFFF00" d="M51.6,54.9h2.9c0.1,0,0.1,0.1,0.1,0.1l0,0
				c0,0.1-0.1,0.1-0.1,0.1h-2.9c-0.1,0-0.1-0.1-0.1-0.1l0,0C51.4,55,51.5,54.9,51.6,54.9L51.6,54.9z"/>
			<path fill-rule="evenodd" clip-rule="evenodd" fill="#FFFF00" d="M51.7,53.9h2.7c0.1,0,0.1-0.1,0.1-0.1l0,0
				c0-0.1-0.1-0.1-0.1-0.1h-2.7c-0.1,0-0.1,0.1-0.1,0.1l0,0C51.5,53.8,51.6,53.9,51.7,53.9L51.7,53.9z"/>
			<path fill-rule="evenodd" clip-rule="evenodd" fill="#FFFF00" d="M51.6,53.3h2.8c0.1,0,0.1,0.1,0.1,0.1l0,0
				c0,0.1-0.1,0.1-0.1,0.1h-2.8c-0.1,0-0.1-0.1-0.1-0.1l0,0C51.5,53.4,51.5,53.3,51.6,53.3L51.6,53.3z"/>
			<path fill-rule="evenodd" clip-rule="evenodd" d="M52,53.2h0.2V53c0,0,0-0.1-0.1-0.1l0,0c0,0-0.1,0-0.1,0.1V53.2L52,53.2z"/>
			<path fill-rule="evenodd" clip-rule="evenodd" d="M53.9,53.2H54V53c0,0,0-0.1-0.1-0.1l0,0c0,0-0.1,0-0.1,0.1V53.2L53.9,53.2z"/>
			
				<path fill-rule="evenodd" clip-rule="evenodd" fill="#FFFF00" stroke="#000000" stroke-width="2.162200e-02" stroke-miterlimit="2.4142" d="
				M51.9,52.8c0,0,0.5,0,0.6,0s0.2-0.1,0.2-0.1c0-0.1,0-0.3,0-0.3c0,0,0,0,0,0c0,0-0.1,0-0.1,0s0,0,0,0c0,0,0,0.1,0,0.1c0,0,0,0,0,0
				c0,0-0.1,0-0.1,0c0,0,0,0,0,0c0,0,0-0.1,0-0.1c0,0,0,0,0,0c0,0-0.1,0-0.1,0c0,0,0,0,0,0c0,0,0,0.1,0,0.1c0,0,0,0,0,0
				s-0.1,0-0.1,0c0,0,0,0,0,0c0,0,0-0.1,0-0.1c0,0,0,0,0,0c0,0-0.1,0-0.1,0c0,0-0.1,0-0.1,0.1c0,0,0,0.2,0,0.3
				C51.6,52.7,51.7,52.8,51.9,52.8L51.9,52.8z"/>
			
				<path fill-rule="evenodd" clip-rule="evenodd" fill="#FFFF00" stroke="#000000" stroke-width="2.162200e-02" stroke-miterlimit="2.4142" d="
				M52.8,52.2c0,0,0.5,0,0.6,0c0.1,0,0.2-0.1,0.2-0.1c0-0.1,0-0.3,0-0.3c0,0,0,0,0,0c0,0-0.1,0-0.1,0c0,0,0,0,0,0s0,0.1,0,0.1
				c0,0,0,0,0,0c0,0-0.1,0-0.1,0c0,0,0,0,0,0c0,0,0-0.1,0-0.1s0,0,0,0s-0.1,0-0.1,0c0,0,0,0,0,0c0,0,0,0.1,0,0.1c0,0,0,0,0,0
				c0,0-0.1,0-0.1,0c0,0,0,0,0,0c0,0,0-0.1,0-0.1c0,0,0,0,0,0c0,0-0.1,0-0.1,0c0,0-0.1,0-0.1,0.1c0,0,0,0.2,0,0.3
				C52.5,52.2,52.6,52.2,52.8,52.2L52.8,52.2z"/>
			
				<path fill-rule="evenodd" clip-rule="evenodd" fill="#FFFF00" stroke="#000000" stroke-width="2.162200e-02" stroke-miterlimit="2.4142" d="
				M53.7,52.8c0,0,0.5,0,0.6,0c0.1,0,0.2-0.1,0.2-0.1c0-0.1,0-0.3,0-0.3c0,0,0,0,0,0c0,0-0.1,0-0.1,0c0,0,0,0,0,0c0,0,0,0.1,0,0.1
				c0,0,0,0,0,0c0,0-0.1,0-0.1,0c0,0,0,0,0,0c0,0,0-0.1,0-0.1c0,0,0,0,0,0c0,0-0.1,0-0.1,0c0,0,0,0,0,0c0,0,0,0.1,0,0.1c0,0,0,0,0,0
				c0,0-0.1,0-0.1,0s0,0,0,0c0,0,0-0.1,0-0.1c0,0,0,0,0,0c0,0-0.1,0-0.1,0c0,0-0.1,0-0.1,0.1c0,0,0,0.2,0,0.3
				C53.5,52.7,53.5,52.8,53.7,52.8L53.7,52.8z"/>
			
				<polygon fill-rule="evenodd" clip-rule="evenodd" fill="#FFFF00" stroke="#000000" stroke-width="2.162200e-02" stroke-miterlimit="2.4142" points="
				44.6,53.4 44.7,52.1 45.3,52.1 45.4,53.4 44.6,53.4 			"/>
			<path fill-rule="evenodd" clip-rule="evenodd" d="M45,52.9h0.2v-0.3c0,0,0-0.1-0.1-0.1l0,0c0,0-0.1,0-0.1,0.1V52.9L45,52.9z"/>
			
				<polygon fill-rule="evenodd" clip-rule="evenodd" fill="#FFFF00" stroke="#000000" stroke-width="2.162200e-02" stroke-miterlimit="2.4142" points="
				43.7,53.4 43.8,52.7 44.4,52.7 44.5,53.4 43.7,53.4 			"/>
			
				<polygon fill-rule="evenodd" clip-rule="evenodd" fill="#FFFF00" stroke="#000000" stroke-width="2.162200e-02" stroke-miterlimit="2.4142" points="
				45.6,53.4 45.6,52.7 46.3,52.7 46.3,53.4 45.6,53.4 			"/>
			
				<polygon fill-rule="evenodd" clip-rule="evenodd" fill="#FFFF00" stroke="#000000" stroke-width="2.162200e-02" stroke-miterlimit="2.4142" points="
				43.6,55 43.7,53.8 46.3,53.8 46.5,55.1 43.6,55 			"/>
			
				<path fill-rule="evenodd" clip-rule="evenodd" fill="#FFFF00" stroke="#000000" stroke-width="2.162200e-02" stroke-miterlimit="2.4142" d="
				M44.3,55c0,0,0-0.9,0.7-1.2c0,0,0.7,0.2,0.7,1.1L44.3,55L44.3,55z"/>
			
				<path fill-rule="evenodd" clip-rule="evenodd" fill="#FFFF00" stroke="#000000" stroke-width="2.387700e-02" stroke-miterlimit="2.4142" d="
				M44.6,55c0,0,0-0.7,0.4-0.8c0,0,0.4,0.1,0.4,0.8L44.6,55L44.6,55z"/>
			<path fill-rule="evenodd" clip-rule="evenodd" fill="#FFFF00" d="M43.6,54.9h2.9c0.1,0,0.1,0.1,0.1,0.1l0,0
				c0,0.1-0.1,0.1-0.1,0.1h-2.9c-0.1,0-0.1-0.1-0.1-0.1l0,0C43.4,55,43.5,54.9,43.6,54.9L43.6,54.9z"/>
			<path fill-rule="evenodd" clip-rule="evenodd" fill="#FFFF00" d="M43.7,53.9h2.7c0.1,0,0.1-0.1,0.1-0.1l0,0
				c0-0.1-0.1-0.1-0.1-0.1h-2.7c-0.1,0-0.1,0.1-0.1,0.1l0,0C43.6,53.8,43.6,53.9,43.7,53.9L43.7,53.9z"/>
			<path fill-rule="evenodd" clip-rule="evenodd" fill="#FFFF00" d="M43.6,53.3h2.8c0.1,0,0.1,0.1,0.1,0.1l0,0
				c0,0.1-0.1,0.1-0.1,0.1h-2.8c-0.1,0-0.1-0.1-0.1-0.1l0,0C43.5,53.4,43.6,53.3,43.6,53.3L43.6,53.3z"/>
			<path fill-rule="evenodd" clip-rule="evenodd" d="M44,53.2h0.2V53c0,0,0-0.1-0.1-0.1l0,0c0,0-0.1,0-0.1,0.1V53.2L44,53.2z"/>
			<path fill-rule="evenodd" clip-rule="evenodd" d="M45.9,53.2H46V53c0,0,0-0.1-0.1-0.1l0,0c0,0-0.1,0-0.1,0.1V53.2L45.9,53.2z"/>
			
				<path fill-rule="evenodd" clip-rule="evenodd" fill="#FFFF00" stroke="#000000" stroke-width="2.162200e-02" stroke-miterlimit="2.4142" d="
				M43.9,52.8c0,0,0.5,0,0.6,0s0.2-0.1,0.2-0.1c0-0.1,0-0.3,0-0.3c0,0,0,0,0,0c0,0-0.1,0-0.1,0c0,0,0,0,0,0c0,0,0,0.1,0,0.1
				c0,0,0,0,0,0c0,0-0.1,0-0.1,0c0,0,0,0,0,0c0,0,0-0.1,0-0.1c0,0,0,0,0,0s-0.1,0-0.1,0c0,0,0,0,0,0c0,0,0,0.1,0,0.1c0,0,0,0,0,0
				c0,0-0.1,0-0.1,0c0,0,0,0,0,0c0,0,0-0.1,0-0.1c0,0,0,0,0,0c0,0-0.1,0-0.1,0c0,0-0.1,0-0.1,0.1c0,0,0,0.2,0,0.3
				C43.6,52.7,43.7,52.8,43.9,52.8L43.9,52.8z"/>
			
				<path fill-rule="evenodd" clip-rule="evenodd" fill="#FFFF00" stroke="#000000" stroke-width="2.162200e-02" stroke-miterlimit="2.4142" d="
				M44.8,52.2c0,0,0.5,0,0.6,0c0.1,0,0.2-0.1,0.2-0.1c0-0.1,0-0.3,0-0.3c0,0,0,0,0,0c0,0-0.1,0-0.1,0c0,0,0,0,0,0s0,0.1,0,0.1
				c0,0,0,0,0,0c0,0-0.1,0-0.1,0c0,0,0,0,0,0c0,0,0-0.1,0-0.1s0,0,0,0c0,0-0.1,0-0.1,0c0,0,0,0,0,0c0,0,0,0.1,0,0.1c0,0,0,0,0,0
				s-0.1,0-0.1,0c0,0,0,0,0,0c0,0,0-0.1,0-0.1c0,0,0,0,0,0c0,0-0.1,0-0.1,0c0,0-0.1,0-0.1,0.1c0,0,0,0.2,0,0.3
				C44.5,52.2,44.6,52.2,44.8,52.2L44.8,52.2z"/>
			
				<path fill-rule="evenodd" clip-rule="evenodd" fill="#FFFF00" stroke="#000000" stroke-width="2.162200e-02" stroke-miterlimit="2.4142" d="
				M45.7,52.8c0,0,0.5,0,0.6,0s0.2-0.1,0.2-0.1c0-0.1,0-0.3,0-0.3c0,0,0,0,0,0c0,0-0.1,0-0.1,0c0,0,0,0,0,0c0,0,0,0.1,0,0.1
				c0,0,0,0,0,0c0,0-0.1,0-0.1,0c0,0,0,0,0,0c0,0,0-0.1,0-0.1c0,0,0,0,0,0c0,0-0.1,0-0.1,0c0,0,0,0,0,0c0,0,0,0.1,0,0.1c0,0,0,0,0,0
				c0,0-0.1,0-0.1,0s0,0,0,0c0,0,0-0.1,0-0.1c0,0,0,0,0,0c0,0-0.1,0-0.1,0c0,0-0.1,0-0.1,0.1c0,0,0,0.2,0,0.3
				C45.5,52.7,45.5,52.8,45.7,52.8L45.7,52.8z"/>
			
				<polygon fill-rule="evenodd" clip-rule="evenodd" fill="#FFFF00" stroke="#000000" stroke-width="2.162200e-02" stroke-miterlimit="2.4142" points="
				60.6,53.4 60.7,52.1 61.2,52.1 61.3,53.4 60.6,53.4 			"/>
			<path fill-rule="evenodd" clip-rule="evenodd" d="M60.9,52.9H61v-0.3c0,0,0-0.1-0.1-0.1l0,0c0,0-0.1,0-0.1,0.1V52.9L60.9,52.9z"
				/>
			
				<polygon fill-rule="evenodd" clip-rule="evenodd" fill="#FFFF00" stroke="#000000" stroke-width="2.162200e-02" stroke-miterlimit="2.4142" points="
				59.6,53.4 59.7,52.7 60.3,52.7 60.4,53.4 59.6,53.4 			"/>
			
				<polygon fill-rule="evenodd" clip-rule="evenodd" fill="#FFFF00" stroke="#000000" stroke-width="2.162200e-02" stroke-miterlimit="2.4142" points="
				61.5,53.4 61.5,52.7 62.2,52.7 62.3,53.4 61.5,53.4 			"/>
			
				<polygon fill-rule="evenodd" clip-rule="evenodd" fill="#FFFF00" stroke="#000000" stroke-width="2.162200e-02" stroke-miterlimit="2.4142" points="
				59.5,55 59.7,53.8 62.2,53.8 62.4,55.1 59.5,55 			"/>
			
				<path fill-rule="evenodd" clip-rule="evenodd" fill="#FFFF00" stroke="#000000" stroke-width="2.162200e-02" stroke-miterlimit="2.4142" d="
				M60.2,55c0,0,0-0.9,0.7-1.2c0,0,0.7,0.2,0.7,1.1L60.2,55L60.2,55z"/>
			
				<path fill-rule="evenodd" clip-rule="evenodd" fill="#FFFF00" stroke="#000000" stroke-width="2.387700e-02" stroke-miterlimit="2.4142" d="
				M60.5,55c0,0,0-0.7,0.4-0.8c0,0,0.4,0.1,0.4,0.8L60.5,55L60.5,55z"/>
			<path fill-rule="evenodd" clip-rule="evenodd" fill="#FFFF00" d="M59.5,54.9h2.9c0.1,0,0.1,0.1,0.1,0.1l0,0
				c0,0.1-0.1,0.1-0.1,0.1h-2.9c-0.1,0-0.1-0.1-0.1-0.1l0,0C59.4,55,59.4,54.9,59.5,54.9L59.5,54.9z"/>
			<path fill-rule="evenodd" clip-rule="evenodd" fill="#FFFF00" d="M59.6,53.9h2.7c0.1,0,0.1-0.1,0.1-0.1l0,0
				c0-0.1-0.1-0.1-0.1-0.1h-2.7c-0.1,0-0.1,0.1-0.1,0.1l0,0C59.5,53.8,59.5,53.9,59.6,53.9L59.6,53.9z"/>
			<path fill-rule="evenodd" clip-rule="evenodd" fill="#FFFF00" d="M59.5,53.3h2.8c0.1,0,0.1,0.1,0.1,0.1l0,0
				c0,0.1-0.1,0.1-0.1,0.1h-2.8c-0.1,0-0.1-0.1-0.1-0.1l0,0C59.4,53.4,59.5,53.3,59.5,53.3L59.5,53.3z"/>
			<path fill-rule="evenodd" clip-rule="evenodd" d="M59.9,53.2h0.2V53c0,0,0-0.1-0.1-0.1l0,0c0,0-0.1,0-0.1,0.1V53.2L59.9,53.2z"/>
			<path fill-rule="evenodd" clip-rule="evenodd" d="M61.8,53.2H62V53c0,0,0-0.1-0.1-0.1l0,0c0,0-0.1,0-0.1,0.1V53.2L61.8,53.2z"/>
			
				<path fill-rule="evenodd" clip-rule="evenodd" fill="#FFFF00" stroke="#000000" stroke-width="2.162200e-02" stroke-miterlimit="2.4142" d="
				M59.8,52.8c0,0,0.5,0,0.6,0s0.2-0.1,0.2-0.1c0-0.1,0-0.3,0-0.3c0,0,0,0,0,0c0,0-0.1,0-0.1,0c0,0,0,0,0,0c0,0,0,0.1,0,0.1
				c0,0,0,0,0,0c0,0-0.1,0-0.1,0c0,0,0,0,0,0c0,0,0-0.1,0-0.1c0,0,0,0,0,0c0,0-0.1,0-0.1,0c0,0,0,0,0,0c0,0,0,0.1,0,0.1c0,0,0,0,0,0
				c0,0-0.1,0-0.1,0c0,0,0,0,0,0c0,0,0-0.1,0-0.1c0,0,0,0,0,0c0,0-0.1,0-0.1,0c0,0-0.1,0-0.1,0.1c0,0,0,0.2,0,0.3
				C59.5,52.7,59.6,52.8,59.8,52.8L59.8,52.8z"/>
			
				<path fill-rule="evenodd" clip-rule="evenodd" fill="#FFFF00" stroke="#000000" stroke-width="2.162200e-02" stroke-miterlimit="2.4142" d="
				M60.7,52.2c0,0,0.5,0,0.6,0c0.1,0,0.2-0.1,0.2-0.1c0-0.1,0-0.3,0-0.3c0,0,0,0,0,0c0,0-0.1,0-0.1,0c0,0,0,0,0,0s0,0.1,0,0.1
				c0,0,0,0,0,0c0,0-0.1,0-0.1,0c0,0,0,0,0,0c0,0,0-0.1,0-0.1s0,0,0,0s-0.1,0-0.1,0c0,0,0,0,0,0c0,0,0,0.1,0,0.1c0,0,0,0,0,0
				s-0.1,0-0.1,0s0,0,0,0c0,0,0-0.1,0-0.1c0,0,0,0,0,0c0,0-0.1,0-0.1,0c0,0-0.1,0-0.1,0.1c0,0,0,0.2,0,0.3
				C60.5,52.2,60.5,52.2,60.7,52.2L60.7,52.2z"/>
			
				<path fill-rule="evenodd" clip-rule="evenodd" fill="#FFFF00" stroke="#000000" stroke-width="2.162200e-02" stroke-miterlimit="2.4142" d="
				M61.7,52.8c0,0,0.5,0,0.6,0s0.2-0.1,0.2-0.1c0-0.1,0-0.3,0-0.3c0,0,0,0,0,0c0,0-0.1,0-0.1,0c0,0,0,0,0,0c0,0,0,0.1,0,0.1
				c0,0,0,0,0,0c0,0-0.1,0-0.1,0c0,0,0,0,0,0c0,0,0-0.1,0-0.1c0,0,0,0,0,0c0,0-0.1,0-0.1,0c0,0,0,0,0,0c0,0,0,0.1,0,0.1c0,0,0,0,0,0
				c0,0-0.1,0-0.1,0s0,0,0,0c0,0,0-0.1,0-0.1c0,0,0,0,0,0c0,0-0.1,0-0.1,0c0,0-0.1,0-0.1,0.1c0,0,0,0.2,0,0.3
				C61.4,52.7,61.5,52.8,61.7,52.8L61.7,52.8z"/>
			
				<polygon fill-rule="evenodd" clip-rule="evenodd" fill="#FFFF00" stroke="#000000" stroke-width="2.162200e-02" stroke-miterlimit="2.4142" points="
				44.6,61.5 44.7,60.2 45.3,60.2 45.4,61.5 44.6,61.5 			"/>
			<path fill-rule="evenodd" clip-rule="evenodd" d="M45,61h0.2v-0.3c0,0,0-0.1-0.1-0.1l0,0c0,0-0.1,0-0.1,0.1V61L45,61z"/>
			
				<polygon fill-rule="evenodd" clip-rule="evenodd" fill="#FFFF00" stroke="#000000" stroke-width="2.162200e-02" stroke-miterlimit="2.4142" points="
				43.7,61.5 43.8,60.8 44.4,60.8 44.5,61.5 43.7,61.5 			"/>
			
				<polygon fill-rule="evenodd" clip-rule="evenodd" fill="#FFFF00" stroke="#000000" stroke-width="2.162200e-02" stroke-miterlimit="2.4142" points="
				45.6,61.5 45.6,60.8 46.3,60.8 46.3,61.5 45.6,61.5 			"/>
			
				<polygon fill-rule="evenodd" clip-rule="evenodd" fill="#FFFF00" stroke="#000000" stroke-width="2.162200e-02" stroke-miterlimit="2.4142" points="
				43.6,63.1 43.7,61.9 46.3,61.9 46.5,63.2 43.6,63.1 			"/>
			
				<path fill-rule="evenodd" clip-rule="evenodd" fill="#FFFF00" stroke="#000000" stroke-width="2.162200e-02" stroke-miterlimit="2.4142" d="
				M44.3,63.1c0,0,0-0.9,0.7-1.2c0,0,0.7,0.2,0.7,1.1L44.3,63.1L44.3,63.1z"/>
			
				<path fill-rule="evenodd" clip-rule="evenodd" fill="#FFFF00" stroke="#000000" stroke-width="2.387700e-02" stroke-miterlimit="2.4142" d="
				M44.6,63.1c0,0,0-0.7,0.4-0.8c0,0,0.4,0.1,0.4,0.8L44.6,63.1L44.6,63.1z"/>
			<path fill-rule="evenodd" clip-rule="evenodd" fill="#FFFF00" d="M43.6,63h2.9c0.1,0,0.1,0.1,0.1,0.1l0,0c0,0.1-0.1,0.1-0.1,0.1
				h-2.9c-0.1,0-0.1-0.1-0.1-0.1l0,0C43.4,63.1,43.5,63,43.6,63L43.6,63z"/>
			<path fill-rule="evenodd" clip-rule="evenodd" fill="#FFFF00" d="M43.7,62h2.7c0.1,0,0.1-0.1,0.1-0.1l0,0c0-0.1-0.1-0.1-0.1-0.1
				h-2.7c-0.1,0-0.1,0.1-0.1,0.1l0,0C43.6,61.9,43.6,62,43.7,62L43.7,62z"/>
			<path fill-rule="evenodd" clip-rule="evenodd" fill="#FFFF00" d="M43.6,61.5h2.8c0.1,0,0.1,0.1,0.1,0.1l0,0
				c0,0.1-0.1,0.1-0.1,0.1h-2.8c-0.1,0-0.1-0.1-0.1-0.1l0,0C43.5,61.5,43.6,61.5,43.6,61.5L43.6,61.5z"/>
			<path fill-rule="evenodd" clip-rule="evenodd" d="M44,61.3h0.2v-0.2c0,0,0-0.1-0.1-0.1l0,0c0,0-0.1,0-0.1,0.1V61.3L44,61.3z"/>
			<path fill-rule="evenodd" clip-rule="evenodd" d="M45.9,61.3H46v-0.2c0,0,0-0.1-0.1-0.1l0,0c0,0-0.1,0-0.1,0.1V61.3L45.9,61.3z"
				/>
			
				<path fill-rule="evenodd" clip-rule="evenodd" fill="#FFFF00" stroke="#000000" stroke-width="2.162200e-02" stroke-miterlimit="2.4142" d="
				M43.9,60.9c0,0,0.5,0,0.6,0s0.2-0.1,0.2-0.1c0-0.1,0-0.3,0-0.3c0,0,0,0,0,0c0,0-0.1,0-0.1,0c0,0,0,0,0,0c0,0,0,0.1,0,0.1
				c0,0,0,0,0,0c0,0-0.1,0-0.1,0c0,0,0,0,0,0c0,0,0-0.1,0-0.1c0,0,0,0,0,0s-0.1,0-0.1,0c0,0,0,0,0,0c0,0,0,0.1,0,0.1c0,0,0,0,0,0
				c0,0-0.1,0-0.1,0c0,0,0,0,0,0s0-0.1,0-0.1c0,0,0,0,0,0c0,0-0.1,0-0.1,0c0,0-0.1,0-0.1,0.1c0,0,0,0.2,0,0.3
				C43.6,60.8,43.7,60.9,43.9,60.9L43.9,60.9z"/>
			
				<path fill-rule="evenodd" clip-rule="evenodd" fill="#FFFF00" stroke="#000000" stroke-width="2.162200e-02" stroke-miterlimit="2.4142" d="
				M44.8,60.3c0,0,0.5,0,0.6,0c0.1,0,0.2-0.1,0.2-0.1c0-0.1,0-0.3,0-0.3c0,0,0,0,0,0c0,0-0.1,0-0.1,0c0,0,0,0,0,0s0,0.1,0,0.1
				c0,0,0,0,0,0c0,0-0.1,0-0.1,0c0,0,0,0,0,0c0,0,0-0.1,0-0.1s0,0,0,0c0,0-0.1,0-0.1,0c0,0,0,0,0,0c0,0,0,0.1,0,0.1c0,0,0,0,0,0
				s-0.1,0-0.1,0c0,0,0,0,0,0c0,0,0-0.1,0-0.1c0,0,0,0,0,0c0,0-0.1,0-0.1,0c0,0-0.1,0-0.1,0.1c0,0,0,0.2,0,0.3
				C44.5,60.3,44.6,60.3,44.8,60.3L44.8,60.3z"/>
			
				<path fill-rule="evenodd" clip-rule="evenodd" fill="#FFFF00" stroke="#000000" stroke-width="2.162200e-02" stroke-miterlimit="2.4142" d="
				M45.7,60.9c0,0,0.5,0,0.6,0s0.2-0.1,0.2-0.1c0-0.1,0-0.3,0-0.3c0,0,0,0,0,0c0,0-0.1,0-0.1,0c0,0,0,0,0,0c0,0,0,0.1,0,0.1
				c0,0,0,0,0,0c0,0-0.1,0-0.1,0c0,0,0,0,0,0c0,0,0-0.1,0-0.1c0,0,0,0,0,0c0,0-0.1,0-0.1,0c0,0,0,0,0,0c0,0,0,0.1,0,0.1c0,0,0,0,0,0
				c0,0-0.1,0-0.1,0s0,0,0,0s0-0.1,0-0.1c0,0,0,0,0,0c0,0-0.1,0-0.1,0c0,0-0.1,0-0.1,0.1c0,0,0,0.2,0,0.3
				C45.5,60.8,45.5,60.9,45.7,60.9L45.7,60.9z"/>
			
				<polygon fill-rule="evenodd" clip-rule="evenodd" fill="#FFFF00" stroke="#000000" stroke-width="2.162200e-02" stroke-miterlimit="2.4142" points="
				60.6,61.5 60.7,60.2 61.2,60.2 61.3,61.5 60.6,61.5 			"/>
			<path fill-rule="evenodd" clip-rule="evenodd" d="M60.9,61H61v-0.3c0,0,0-0.1-0.1-0.1l0,0c0,0-0.1,0-0.1,0.1V61L60.9,61z"/>
			
				<polygon fill-rule="evenodd" clip-rule="evenodd" fill="#FFFF00" stroke="#000000" stroke-width="2.162200e-02" stroke-miterlimit="2.4142" points="
				59.6,61.5 59.7,60.8 60.3,60.8 60.4,61.5 59.6,61.5 			"/>
			
				<polygon fill-rule="evenodd" clip-rule="evenodd" fill="#FFFF00" stroke="#000000" stroke-width="2.162200e-02" stroke-miterlimit="2.4142" points="
				61.5,61.5 61.5,60.8 62.2,60.8 62.3,61.5 61.5,61.5 			"/>
			
				<polygon fill-rule="evenodd" clip-rule="evenodd" fill="#FFFF00" stroke="#000000" stroke-width="2.162200e-02" stroke-miterlimit="2.4142" points="
				59.5,63.1 59.7,61.9 62.2,61.9 62.4,63.2 59.5,63.1 			"/>
			
				<path fill-rule="evenodd" clip-rule="evenodd" fill="#FFFF00" stroke="#000000" stroke-width="2.162200e-02" stroke-miterlimit="2.4142" d="
				M60.2,63.1c0,0,0-0.9,0.7-1.2c0,0,0.7,0.2,0.7,1.1L60.2,63.1L60.2,63.1z"/>
			
				<path fill-rule="evenodd" clip-rule="evenodd" fill="#FFFF00" stroke="#000000" stroke-width="2.387700e-02" stroke-miterlimit="2.4142" d="
				M60.5,63.1c0,0,0-0.7,0.4-0.8c0,0,0.4,0.1,0.4,0.8L60.5,63.1L60.5,63.1z"/>
			<path fill-rule="evenodd" clip-rule="evenodd" fill="#FFFF00" d="M59.5,63h2.9c0.1,0,0.1,0.1,0.1,0.1l0,0c0,0.1-0.1,0.1-0.1,0.1
				h-2.9c-0.1,0-0.1-0.1-0.1-0.1l0,0C59.4,63.1,59.4,63,59.5,63L59.5,63z"/>
			<path fill-rule="evenodd" clip-rule="evenodd" fill="#FFFF00" d="M59.6,62h2.7c0.1,0,0.1-0.1,0.1-0.1l0,0c0-0.1-0.1-0.1-0.1-0.1
				h-2.7c-0.1,0-0.1,0.1-0.1,0.1l0,0C59.5,61.9,59.5,62,59.6,62L59.6,62z"/>
			<path fill-rule="evenodd" clip-rule="evenodd" fill="#FFFF00" d="M59.5,61.5h2.8c0.1,0,0.1,0.1,0.1,0.1l0,0
				c0,0.1-0.1,0.1-0.1,0.1h-2.8c-0.1,0-0.1-0.1-0.1-0.1l0,0C59.4,61.5,59.5,61.5,59.5,61.5L59.5,61.5z"/>
			<path fill-rule="evenodd" clip-rule="evenodd" d="M59.9,61.3h0.2v-0.2c0,0,0-0.1-0.1-0.1l0,0c0,0-0.1,0-0.1,0.1V61.3L59.9,61.3z"
				/>
			<path fill-rule="evenodd" clip-rule="evenodd" d="M61.8,61.3H62v-0.2c0,0,0-0.1-0.1-0.1l0,0c0,0-0.1,0-0.1,0.1V61.3L61.8,61.3z"
				/>
			
				<path fill-rule="evenodd" clip-rule="evenodd" fill="#FFFF00" stroke="#000000" stroke-width="2.162200e-02" stroke-miterlimit="2.4142" d="
				M59.8,60.9c0,0,0.5,0,0.6,0s0.2-0.1,0.2-0.1c0-0.1,0-0.3,0-0.3c0,0,0,0,0,0c0,0-0.1,0-0.1,0c0,0,0,0,0,0c0,0,0,0.1,0,0.1
				c0,0,0,0,0,0c0,0-0.1,0-0.1,0c0,0,0,0,0,0c0,0,0-0.1,0-0.1c0,0,0,0,0,0c0,0-0.1,0-0.1,0c0,0,0,0,0,0c0,0,0,0.1,0,0.1c0,0,0,0,0,0
				c0,0-0.1,0-0.1,0c0,0,0,0,0,0s0-0.1,0-0.1c0,0,0,0,0,0c0,0-0.1,0-0.1,0c0,0-0.1,0-0.1,0.1c0,0,0,0.2,0,0.3
				C59.5,60.8,59.6,60.9,59.8,60.9L59.8,60.9z"/>
			
				<path fill-rule="evenodd" clip-rule="evenodd" fill="#FFFF00" stroke="#000000" stroke-width="2.162200e-02" stroke-miterlimit="2.4142" d="
				M60.7,60.3c0,0,0.5,0,0.6,0c0.1,0,0.2-0.1,0.2-0.1c0-0.1,0-0.3,0-0.3c0,0,0,0,0,0c0,0-0.1,0-0.1,0c0,0,0,0,0,0s0,0.1,0,0.1
				c0,0,0,0,0,0c0,0-0.1,0-0.1,0c0,0,0,0,0,0c0,0,0-0.1,0-0.1s0,0,0,0s-0.1,0-0.1,0c0,0,0,0,0,0c0,0,0,0.1,0,0.1c0,0,0,0,0,0
				s-0.1,0-0.1,0s0,0,0,0c0,0,0-0.1,0-0.1c0,0,0,0,0,0c0,0-0.1,0-0.1,0c0,0-0.1,0-0.1,0.1c0,0,0,0.2,0,0.3
				C60.5,60.3,60.5,60.3,60.7,60.3L60.7,60.3z"/>
			
				<path fill-rule="evenodd" clip-rule="evenodd" fill="#FFFF00" stroke="#000000" stroke-width="2.162200e-02" stroke-miterlimit="2.4142" d="
				M61.7,60.9c0,0,0.5,0,0.6,0s0.2-0.1,0.2-0.1c0-0.1,0-0.3,0-0.3c0,0,0,0,0,0c0,0-0.1,0-0.1,0c0,0,0,0,0,0c0,0,0,0.1,0,0.1
				c0,0,0,0,0,0c0,0-0.1,0-0.1,0c0,0,0,0,0,0c0,0,0-0.1,0-0.1c0,0,0,0,0,0c0,0-0.1,0-0.1,0c0,0,0,0,0,0c0,0,0,0.1,0,0.1c0,0,0,0,0,0
				c0,0-0.1,0-0.1,0s0,0,0,0s0-0.1,0-0.1c0,0,0,0,0,0c0,0-0.1,0-0.1,0c0,0-0.1,0-0.1,0.1c0,0,0,0.2,0,0.3
				C61.4,60.8,61.5,60.9,61.7,60.9L61.7,60.9z"/>
			
				<polygon fill-rule="evenodd" clip-rule="evenodd" fill="#FFFF00" stroke="#000000" stroke-width="2.162200e-02" stroke-miterlimit="2.4142" points="
				46.6,70.2 45.7,69.2 46.1,68.7 47.1,69.6 46.6,70.2 			"/>
			<path fill-rule="evenodd" clip-rule="evenodd" d="M46.4,69.5l0.1-0.1l-0.2-0.2c0,0-0.1,0-0.1,0l0,0c0,0,0,0.1,0,0.1L46.4,69.5
				L46.4,69.5z"/>
			
				<polygon fill-rule="evenodd" clip-rule="evenodd" fill="#FFFF00" stroke="#000000" stroke-width="2.162200e-02" stroke-miterlimit="2.4142" points="
				45.9,70.8 45.5,70.3 45.9,69.8 46.5,70.3 45.9,70.8 			"/>
			
				<polygon fill-rule="evenodd" clip-rule="evenodd" fill="#FFFF00" stroke="#000000" stroke-width="2.162200e-02" stroke-miterlimit="2.4142" points="
				47.3,69.5 46.8,69 47.2,68.5 47.8,69 47.3,69.5 			"/>
			
				<polygon fill-rule="evenodd" clip-rule="evenodd" fill="#FFFF00" stroke="#000000" stroke-width="2.162200e-02" stroke-miterlimit="2.4142" points="
				47,72 46.2,71 48,69.2 49.1,70 47,72 			"/>
			
				<path fill-rule="evenodd" clip-rule="evenodd" fill="#FFFF00" stroke="#000000" stroke-width="2.162200e-02" stroke-miterlimit="2.4142" d="
				M47.5,71.5c0,0-0.7-0.7-0.3-1.3c0,0,0.6-0.4,1.3,0.3L47.5,71.5L47.5,71.5z"/>
			
				<path fill-rule="evenodd" clip-rule="evenodd" fill="#FFFF00" stroke="#000000" stroke-width="2.387700e-02" stroke-miterlimit="2.4142" d="
				M47.7,71.3c0,0-0.5-0.5-0.3-0.9c0,0,0.4-0.2,0.9,0.3L47.7,71.3L47.7,71.3z"/>
			<path fill-rule="evenodd" clip-rule="evenodd" fill="#FFFF00" d="M46.9,72l2.1-2.1c0.1-0.1,0.1-0.1,0.2,0l0,0
				c0.1,0.1,0.1,0.1,0,0.2l-2.1,2.1c-0.1,0.1-0.1,0.1-0.2,0l0,0C46.9,72.1,46.9,72,46.9,72L46.9,72z"/>
			<path fill-rule="evenodd" clip-rule="evenodd" fill="#FFFF00" d="M46.2,71.2l1.9-1.9c0,0,0-0.1,0-0.2l0,0c0,0-0.1,0-0.2,0L46,71
				c0,0.1,0,0.1,0,0.2l0,0C46.1,71.2,46.2,71.2,46.2,71.2L46.2,71.2z"/>
			<path fill-rule="evenodd" clip-rule="evenodd" fill="#FFFF00" d="M45.8,70.8l2-2c0.1-0.1,0.1-0.1,0.2,0l0,0c0,0,0,0.1,0,0.2l-2,2
				c-0.1,0-0.1,0-0.2,0l0,0C45.8,71,45.8,70.9,45.8,70.8L45.8,70.8z"/>
			<path fill-rule="evenodd" clip-rule="evenodd" d="M46,70.4l0.1-0.1l-0.2-0.2c0,0-0.1,0-0.1,0l0,0c0,0,0,0.1,0,0.1L46,70.4
				L46,70.4z"/>
			<path fill-rule="evenodd" clip-rule="evenodd" d="M47.3,69.1l0.1-0.1l-0.2-0.1c0,0-0.1,0-0.1,0l0,0c0,0,0,0.1,0,0.1L47.3,69.1
				L47.3,69.1z"/>
			
				<path fill-rule="evenodd" clip-rule="evenodd" fill="#FFFF00" stroke="#000000" stroke-width="2.162200e-02" stroke-miterlimit="2.4142" d="
				M45.6,70.2c0,0,0.3-0.3,0.4-0.4c0.1-0.1,0.1-0.1,0-0.2c0,0-0.2-0.2-0.2-0.2c0,0,0,0-0.1,0c0,0-0.1,0.1-0.1,0.1c0,0,0,0,0,0.1
				c0,0,0.1,0.1,0.1,0.1c0,0,0,0,0,0.1c0,0-0.1,0.1-0.1,0.1c0,0,0,0,0,0c0,0-0.1-0.1-0.1-0.1c0,0,0,0-0.1,0c0,0-0.1,0.1-0.1,0.1
				c0,0,0,0,0,0.1c0,0,0.1,0.1,0.1,0.1c0,0,0,0,0,0c0,0-0.1,0.1-0.1,0.1c0,0,0,0,0,0c0,0-0.1-0.1-0.1-0.1c0,0,0,0,0,0
				c0,0-0.1,0.1-0.1,0.1c0,0,0,0.1,0,0.1c0,0,0.2,0.2,0.2,0.2C45.4,70.4,45.4,70.4,45.6,70.2L45.6,70.2z"/>
			
				<path fill-rule="evenodd" clip-rule="evenodd" fill="#FFFF00" stroke="#000000" stroke-width="2.162200e-02" stroke-miterlimit="2.4142" d="
				M45.9,69.2c0,0,0.3-0.3,0.4-0.4c0.1-0.1,0.1-0.1,0-0.2c0,0-0.2-0.2-0.2-0.2c0,0,0,0-0.1,0c0,0-0.1,0.1-0.1,0.1c0,0,0,0,0,0.1
				c0,0,0.1,0.1,0.1,0.1c0,0,0,0,0,0.1c0,0-0.1,0.1-0.1,0.1c0,0,0,0,0,0c0,0-0.1-0.1-0.1-0.1c0,0,0,0-0.1,0c0,0-0.1,0.1-0.1,0.1
				c0,0,0,0,0,0.1c0,0,0.1,0.1,0.1,0.1c0,0,0,0,0,0c0,0-0.1,0.1-0.1,0.1c0,0,0,0,0,0c0,0-0.1-0.1-0.1-0.1c0,0,0,0,0,0
				c0,0-0.1,0.1-0.1,0.1c0,0,0,0.1,0,0.1c0,0,0.2,0.2,0.2,0.2C45.7,69.4,45.7,69.3,45.9,69.2L45.9,69.2z"/>
			
				<path fill-rule="evenodd" clip-rule="evenodd" fill="#FFFF00" stroke="#000000" stroke-width="2.162200e-02" stroke-miterlimit="2.4142" d="
				M46.9,68.9c0,0,0.3-0.3,0.4-0.4c0.1-0.1,0.1-0.1,0-0.2c0,0-0.2-0.2-0.2-0.2c0,0,0,0-0.1,0c0,0-0.1,0.1-0.1,0.1c0,0,0,0,0,0.1
				c0,0,0.1,0.1,0.1,0.1c0,0,0,0,0,0.1c0,0-0.1,0.1-0.1,0.1c0,0,0,0,0,0c0,0-0.1-0.1-0.1-0.1c0,0,0,0-0.1,0c0,0-0.1,0.1-0.1,0.1
				c0,0,0,0,0,0.1c0,0,0.1,0.1,0.1,0.1c0,0,0,0,0,0c0,0-0.1,0.1-0.1,0.1c0,0,0,0,0,0c0,0-0.1-0.1-0.1-0.1c0,0,0,0,0,0
				c0,0-0.1,0.1-0.1,0.1c0,0,0,0.1,0,0.1c0,0,0.2,0.2,0.2,0.2C46.7,69.1,46.8,69.1,46.9,68.9L46.9,68.9z"/>
			
				<polygon fill-rule="evenodd" clip-rule="evenodd" fill="#FFFF00" stroke="#000000" stroke-width="2.162200e-02" stroke-miterlimit="2.4142" points="
				59.4,70.2 60.3,69.2 59.8,68.7 58.8,69.6 59.4,70.2 			"/>
			<path fill-rule="evenodd" clip-rule="evenodd" d="M59.6,69.5l-0.1-0.1l0.2-0.2c0,0,0.1,0,0.1,0l0,0c0,0,0,0.1,0,0.1L59.6,69.5
				L59.6,69.5z"/>
			
				<polygon fill-rule="evenodd" clip-rule="evenodd" fill="#FFFF00" stroke="#000000" stroke-width="2.162200e-02" stroke-miterlimit="2.4142" points="
				60.1,70.8 60.5,70.3 60.1,69.8 59.5,70.3 60.1,70.8 			"/>
			
				<polygon fill-rule="evenodd" clip-rule="evenodd" fill="#FFFF00" stroke="#000000" stroke-width="2.162200e-02" stroke-miterlimit="2.4142" points="
				58.7,69.5 59.2,69 58.8,68.5 58.2,69 58.7,69.5 			"/>
			
				<polygon fill-rule="evenodd" clip-rule="evenodd" fill="#FFFF00" stroke="#000000" stroke-width="2.162200e-02" stroke-miterlimit="2.4142" points="
				59,72 59.8,71 58,69.2 56.9,70 59,72 			"/>
			
				<path fill-rule="evenodd" clip-rule="evenodd" fill="#FFFF00" stroke="#000000" stroke-width="2.162200e-02" stroke-miterlimit="2.4142" d="
				M58.5,71.5c0,0,0.7-0.7,0.3-1.3c0,0-0.6-0.4-1.3,0.3L58.5,71.5L58.5,71.5z"/>
			
				<path fill-rule="evenodd" clip-rule="evenodd" fill="#FFFF00" stroke="#000000" stroke-width="2.387700e-02" stroke-miterlimit="2.4142" d="
				M58.3,71.3c0,0,0.5-0.5,0.3-0.9c0,0-0.4-0.2-0.9,0.3L58.3,71.3L58.3,71.3z"/>
			<path fill-rule="evenodd" clip-rule="evenodd" fill="#FFFF00" d="M59.1,72L57,69.9c-0.1-0.1-0.1-0.1-0.2,0l0,0
				c-0.1,0.1-0.1,0.1,0,0.2l2.1,2.1c0.1,0.1,0.1,0.1,0.2,0l0,0C59.1,72.1,59.1,72,59.1,72L59.1,72z"/>
			<path fill-rule="evenodd" clip-rule="evenodd" fill="#FFFF00" d="M59.8,71.2l-1.9-1.9c0,0,0-0.1,0-0.2l0,0c0,0,0.1,0,0.2,0L60,71
				c0,0.1,0,0.1,0,0.2l0,0C59.9,71.2,59.8,71.2,59.8,71.2L59.8,71.2z"/>
			<path fill-rule="evenodd" clip-rule="evenodd" fill="#FFFF00" d="M60.2,70.8l-2-2c0-0.1-0.1-0.1-0.2,0l0,0c0,0,0,0.1,0,0.2l2,2
				c0,0,0.1,0,0.2,0l0,0C60.2,71,60.2,70.9,60.2,70.8L60.2,70.8z"/>
			<path fill-rule="evenodd" clip-rule="evenodd" d="M60,70.4l-0.1-0.1l0.2-0.2c0,0,0.1,0,0.1,0l0,0c0,0,0,0.1,0,0.1L60,70.4
				L60,70.4z"/>
			<path fill-rule="evenodd" clip-rule="evenodd" d="M58.7,69.1L58.6,69l0.2-0.1c0,0,0.1,0,0.1,0l0,0c0,0,0,0.1,0,0.1L58.7,69.1
				L58.7,69.1z"/>
			
				<path fill-rule="evenodd" clip-rule="evenodd" fill="#FFFF00" stroke="#000000" stroke-width="2.162200e-02" stroke-miterlimit="2.4142" d="
				M60.4,70.2c0,0-0.3-0.3-0.4-0.4c-0.1-0.1-0.1-0.1,0-0.2c0,0,0.2-0.2,0.2-0.2c0,0,0,0,0.1,0c0,0,0.1,0.1,0.1,0.1c0,0,0,0,0,0.1
				c0,0-0.1,0.1-0.1,0.1c0,0,0,0,0,0.1c0,0,0.1,0.1,0.1,0.1c0,0,0,0,0,0c0,0,0.1-0.1,0.1-0.1c0,0,0,0,0.1,0c0,0,0.1,0.1,0.1,0.1
				c0,0,0,0,0,0.1c0,0-0.1,0.1-0.1,0.1c0,0,0,0,0,0c0,0,0.1,0.1,0.1,0.1c0,0,0,0,0,0c0,0,0.1-0.1,0.1-0.1c0,0,0,0,0,0
				c0,0,0.1,0.1,0.1,0.1c0,0,0,0.1,0,0.1c0,0-0.2,0.2-0.2,0.2C60.6,70.4,60.5,70.4,60.4,70.2L60.4,70.2z"/>
			
				<path fill-rule="evenodd" clip-rule="evenodd" fill="#FFFF00" stroke="#000000" stroke-width="2.162200e-02" stroke-miterlimit="2.4142" d="
				M60.1,69.2c0,0-0.3-0.3-0.4-0.4c-0.1-0.1-0.1-0.1,0-0.2c0,0,0.2-0.2,0.2-0.2c0,0,0,0,0.1,0c0,0,0.1,0.1,0.1,0.1c0,0,0,0,0,0.1
				c0,0-0.1,0.1-0.1,0.1c0,0,0,0,0,0.1c0,0,0.1,0.1,0.1,0.1c0,0,0,0,0,0c0,0,0.1-0.1,0.1-0.1c0,0,0,0,0.1,0c0,0,0.1,0.1,0.1,0.1
				c0,0,0,0,0,0.1s-0.1,0.1-0.1,0.1c0,0,0,0,0,0c0,0,0.1,0.1,0.1,0.1s0,0,0,0c0,0,0.1-0.1,0.1-0.1c0,0,0,0,0,0c0,0,0.1,0.1,0.1,0.1
				c0,0,0,0.1,0,0.1c0,0-0.2,0.2-0.2,0.2C60.3,69.4,60.3,69.3,60.1,69.2L60.1,69.2z"/>
			
				<path fill-rule="evenodd" clip-rule="evenodd" fill="#FFFF00" stroke="#000000" stroke-width="2.162200e-02" stroke-miterlimit="2.4142" d="
				M59.1,68.9c0,0-0.3-0.3-0.4-0.4c-0.1-0.1-0.1-0.1,0-0.2c0,0,0.2-0.2,0.2-0.2c0,0,0,0,0.1,0c0,0,0.1,0.1,0.1,0.1c0,0,0,0,0,0.1
				c0,0-0.1,0.1-0.1,0.1c0,0,0,0,0,0.1c0,0,0.1,0.1,0.1,0.1c0,0,0,0,0,0c0,0,0.1-0.1,0.1-0.1c0,0,0,0,0.1,0c0,0,0.1,0.1,0.1,0.1
				c0,0,0,0,0,0.1c0,0-0.1,0.1-0.1,0.1c0,0,0,0,0,0c0,0,0.1,0.1,0.1,0.1c0,0,0,0,0,0c0,0,0.1-0.1,0.1-0.1c0,0,0,0,0,0
				c0,0,0.1,0.1,0.1,0.1c0,0,0,0.1,0,0.1c0,0-0.2,0.2-0.2,0.2C59.3,69.1,59.2,69.1,59.1,68.9L59.1,68.9z"/>
			<path fill-rule="evenodd" clip-rule="evenodd" fill="#FFFFFF" d="M47,55.5h11.9v9.4c0,3.3-2.7,6-6,6l0,0c-3.3,0-6-2.7-6-6V55.5
				L47,55.5z"/>
			<path fill-rule="evenodd" clip-rule="evenodd" fill="#003399" d="M51.7,57h2.7v2c0,0.7-0.6,1.3-1.3,1.3l0,0
				c-0.7,0-1.3-0.6-1.3-1.3V57L51.7,57z"/>
			<path fill-rule="evenodd" clip-rule="evenodd" fill="#FFFFFF" d="M52.3,58.9c0.1,0,0.2,0.1,0.2,0.2s-0.1,0.2-0.2,0.2
				s-0.2-0.1-0.2-0.2S52.2,58.9,52.3,58.9L52.3,58.9z M53,58.1c0.1,0,0.3,0.1,0.3,0.2c0,0.1-0.1,0.2-0.3,0.2c-0.1,0-0.2-0.1-0.2-0.2
				C52.8,58.3,52.9,58.1,53,58.1L53,58.1z M52.3,57.4c0.1,0,0.2,0.1,0.2,0.2c0,0.1-0.1,0.3-0.2,0.3s-0.2-0.1-0.2-0.3
				C52.1,57.5,52.2,57.4,52.3,57.4L52.3,57.4z M53.8,57.4c0.1,0,0.2,0.1,0.2,0.2c0,0.1-0.1,0.3-0.2,0.3c-0.1,0-0.3-0.1-0.3-0.3
				C53.5,57.5,53.6,57.4,53.8,57.4L53.8,57.4z M53.8,58.9c0.1,0,0.2,0.1,0.2,0.2s-0.1,0.2-0.2,0.2c-0.1,0-0.3-0.1-0.3-0.2
				S53.6,58.9,53.8,58.9L53.8,58.9z"/>
			<path fill-rule="evenodd" clip-rule="evenodd" fill="#003399" d="M51.7,61.5h2.7v2c0,0.7-0.6,1.3-1.3,1.3l0,0
				c-0.7,0-1.3-0.6-1.3-1.3V61.5L51.7,61.5z"/>
			<path fill-rule="evenodd" clip-rule="evenodd" fill="#FFFFFF" d="M52.3,63.4c0.1,0,0.2,0.1,0.2,0.2c0,0.1-0.1,0.2-0.2,0.2
				s-0.2-0.1-0.2-0.2C52.1,63.5,52.2,63.4,52.3,63.4L52.3,63.4z M53,62.7c0.1,0,0.3,0.1,0.3,0.2c0,0.1-0.1,0.2-0.3,0.2
				c-0.1,0-0.2-0.1-0.2-0.2C52.8,62.8,52.9,62.7,53,62.7L53,62.7z M52.3,62c0.1,0,0.2,0.1,0.2,0.2s-0.1,0.2-0.2,0.2
				s-0.2-0.1-0.2-0.2S52.2,62,52.3,62L52.3,62z M53.8,62c0.1,0,0.2,0.1,0.2,0.2s-0.1,0.2-0.2,0.2c-0.1,0-0.3-0.1-0.3-0.2
				S53.6,62,53.8,62L53.8,62z M53.8,63.4c0.1,0,0.2,0.1,0.2,0.2c0,0.1-0.1,0.2-0.2,0.2c-0.1,0-0.3-0.1-0.3-0.2
				C53.5,63.5,53.6,63.4,53.8,63.4L53.8,63.4z"/>
			<path fill-rule="evenodd" clip-rule="evenodd" fill="#003399" d="M48.1,61.5h2.7v2c0,0.7-0.6,1.3-1.3,1.3l0,0
				c-0.7,0-1.3-0.6-1.3-1.3V61.5L48.1,61.5z"/>
			<path fill-rule="evenodd" clip-rule="evenodd" fill="#FFFFFF" d="M48.7,63.4c0.1,0,0.3,0.1,0.3,0.2c0,0.1-0.1,0.2-0.3,0.2
				c-0.1,0-0.2-0.1-0.2-0.2C48.4,63.5,48.5,63.4,48.7,63.4L48.7,63.4z M49.4,62.7c0.1,0,0.2,0.1,0.2,0.2c0,0.1-0.1,0.2-0.2,0.2
				c-0.1,0-0.3-0.1-0.3-0.2C49.1,62.8,49.3,62.7,49.4,62.7L49.4,62.7z M48.7,62c0.1,0,0.3,0.1,0.3,0.2s-0.1,0.2-0.3,0.2
				c-0.1,0-0.2-0.1-0.2-0.2S48.5,62,48.7,62L48.7,62z M50.1,62c0.1,0,0.3,0.1,0.3,0.2s-0.1,0.2-0.3,0.2c-0.1,0-0.2-0.1-0.2-0.2
				S50,62,50.1,62L50.1,62z M50.1,63.4c0.1,0,0.3,0.1,0.3,0.2c0,0.1-0.1,0.2-0.3,0.2c-0.1,0-0.2-0.1-0.2-0.2
				C49.9,63.5,50,63.4,50.1,63.4L50.1,63.4z"/>
			<path fill-rule="evenodd" clip-rule="evenodd" fill="#003399" d="M55.3,61.5H58v2c0,0.7-0.6,1.3-1.3,1.3l0,0
				c-0.7,0-1.3-0.6-1.3-1.3V61.5L55.3,61.5z"/>
			<path fill-rule="evenodd" clip-rule="evenodd" fill="#FFFFFF" d="M56,63.4c0.1,0,0.3,0.1,0.3,0.2c0,0.1-0.1,0.2-0.3,0.2
				c-0.1,0-0.2-0.1-0.2-0.2C55.7,63.5,55.8,63.4,56,63.4L56,63.4z M56.7,62.7c0.1,0,0.2,0.1,0.2,0.2c0,0.1-0.1,0.2-0.2,0.2
				s-0.2-0.1-0.2-0.2C56.4,62.8,56.5,62.7,56.7,62.7L56.7,62.7z M56,62c0.1,0,0.3,0.1,0.3,0.2s-0.1,0.2-0.3,0.2
				c-0.1,0-0.2-0.1-0.2-0.2S55.8,62,56,62L56,62z M57.4,62c0.1,0,0.3,0.1,0.3,0.2s-0.1,0.2-0.3,0.2c-0.1,0-0.2-0.1-0.2-0.2
				S57.3,62,57.4,62L57.4,62z M57.4,63.4c0.1,0,0.3,0.1,0.3,0.2c0,0.1-0.1,0.2-0.3,0.2c-0.1,0-0.2-0.1-0.2-0.2
				C57.2,63.5,57.3,63.4,57.4,63.4L57.4,63.4z"/>
			<path fill-rule="evenodd" clip-rule="evenodd" fill="#003399" d="M51.7,66h2.7v2c0,0.7-0.6,1.3-1.3,1.3l0,0
				c-0.7,0-1.3-0.6-1.3-1.3V66L51.7,66z"/>
			<path fill-rule="evenodd" clip-rule="evenodd" fill="#FFFFFF" d="M52.3,67.9c0.1,0,0.2,0.1,0.2,0.2c0,0.1-0.1,0.2-0.2,0.2
				s-0.2-0.1-0.2-0.2C52.1,68,52.2,67.9,52.3,67.9L52.3,67.9z M53,67.2c0.1,0,0.3,0.1,0.3,0.2c0,0.1-0.1,0.3-0.3,0.3
				c-0.1,0-0.2-0.1-0.2-0.3C52.8,67.3,52.9,67.2,53,67.2L53,67.2z M52.3,66.5c0.1,0,0.2,0.1,0.2,0.2c0,0.1-0.1,0.3-0.2,0.3
				s-0.2-0.1-0.2-0.3C52.1,66.6,52.2,66.5,52.3,66.5L52.3,66.5z M53.8,66.5c0.1,0,0.2,0.1,0.2,0.2c0,0.1-0.1,0.3-0.2,0.3
				c-0.1,0-0.3-0.1-0.3-0.3C53.5,66.6,53.6,66.5,53.8,66.5L53.8,66.5z M53.8,67.9c0.1,0,0.2,0.1,0.2,0.2c0,0.1-0.1,0.2-0.2,0.2
				c-0.1,0-0.3-0.1-0.3-0.2C53.5,68,53.6,67.9,53.8,67.9L53.8,67.9z"/>
		</g>
	</g>
	<path opacity="0.35" fill="#FFFFFF" d="M13,29.7v25.5C26.2,62.6,43.7,67,63,67c19.3,0,36.8-4.5,50-11.8V29.7H13z"/>
</g>
</svg>
