<?xml version="1.0" encoding="utf-8"?>
<!-- Generator: Adobe Illustrator 24.3.0, SVG Export Plug-In . SVG Version: 6.00 Build 0)  -->
<svg version="1.1" id="Layer_1" xmlns="http://www.w3.org/2000/svg" xmlns:xlink="http://www.w3.org/1999/xlink" x="0px" y="0px"
	 viewBox="0 0 126 126" enable-background="new 0 0 126 126" xml:space="preserve">
<g>
	<g>
		<polygon fill="#49A9F6" points="13,29.7 113,29.7 113,63 13,63 13,29.7 		"/>
		<polygon fill="#00840F" points="13,79.7 113,79.7 113,96.3 13,96.3 13,79.7 		"/>
		<rect x="13" y="63" fill="#FEDC36" width="100" height="16.7"/>
		<path fill="#FEDC36" d="M96.4,50.3l1.4,7.2l-2.3-7l-0.5,7.3l-0.4-7.3l-2.4,7l1.5-7.2l-4.1,6.1l3.3-6.6l-5.5,4.9l4.9-5.5l-6.6,3.3
			l6.1-4l-7.2,1.4l7-2.3l-7.3-0.5l7.3-0.4l-7-2.3l7.2,1.5l-6.1-4.1l6.6,3.3l-4.9-5.5l5.5,4.9l-3.3-6.6l4,6.1l-1.4-7.2l2.3,7l0.5-7.3
			l0.4,7.3l2.4-7l-1.5,7.2l4.1-6.1l-3.3,6.6l5.5-4.9L97.8,45l6.6-3.3l-6.1,4l7.2-1.4l-7,2.3l7.3,0.5l-7.3,0.4l7,2.3l-7.2-1.5
			l6.1,4.1l-6.6-3.3l4.9,5.5l-5.5-4.9l3.3,6.6L96.4,50.3L96.4,50.3z M95.1,43.7c-0.9,0-1.8,0.4-2.4,1c-0.6,0.6-1,1.4-1,2.4
			c0,0.9,0.4,1.8,1,2.4c0.6,0.6,1.4,1,2.4,1c0.9,0,1.8-0.4,2.4-1c0.6-0.6,1-1.4,1-2.4c0-0.9-0.4-1.8-1-2.4
			C96.8,44.1,96,43.7,95.1,43.7L95.1,43.7z M97.2,44.9c0.5,0.5,0.9,1.3,0.9,2.1s-0.3,1.6-0.9,2.1c-0.5,0.5-1.3,0.9-2.1,0.9
			c-0.8,0-1.6-0.3-2.1-0.9c-0.5-0.5-0.9-1.3-0.9-2.1s0.3-1.6,0.9-2.1c0.5-0.5,1.3-0.9,2.1-0.9C95.9,44,96.7,44.4,97.2,44.9
			L97.2,44.9z"/>
	</g>
	<path opacity="0.25" fill="#FFFFFF" d="M13,29.7v25.5C26.2,62.6,43.7,67,63,67c19.3,0,36.8-4.5,50-11.8V29.7H13z"/>
</g>
</svg>
