<?xml version="1.0" encoding="utf-8"?>
<!-- Generator: Adobe Illustrator 24.3.0, SVG Export Plug-In . SVG Version: 6.00 Build 0)  -->
<svg version="1.1" id="Layer_1" xmlns="http://www.w3.org/2000/svg" xmlns:xlink="http://www.w3.org/1999/xlink" x="0px" y="0px"
	 viewBox="0 0 126 126" enable-background="new 0 0 126 126" xml:space="preserve">
<g>
	<g>
		<path fill-rule="evenodd" clip-rule="evenodd" fill="#FEDC36" d="M39.2,96.3h47.5V29.7H39.2V96.3L39.2,96.3z"/>
		<polygon fill-rule="evenodd" clip-rule="evenodd" fill="#1971E4" points="13,96.3 39.2,96.3 39.2,29.7 13,29.7 13,96.3 		"/>
		<polygon fill-rule="evenodd" clip-rule="evenodd" fill="#47B71D" points="86.8,96.3 113,96.3 113,29.7 86.8,29.7 86.8,96.3 		"/>
		<path fill-rule="evenodd" clip-rule="evenodd" fill="#47B71D" d="M56.8,76.8l5.4,11l5.4-11l-5.4-11L56.8,76.8L56.8,76.8z
			 M63.5,63.1l5.4,11l5.4-11L69,52L63.5,63.1L63.5,63.1z M50,63.1l5.4,11l5.4-11l-5.4-11L50,63.1L50,63.1z"/>
	</g>
	<path opacity="0.35" fill="#FFFFFF" d="M13,29.7v25.5C26.2,62.6,43.7,67,63,67s36.8-4.5,50-11.8V29.7H13z"/>
</g>
</svg>
