<?xml version="1.0" encoding="utf-8"?>
<!-- Generator: Adobe Illustrator 24.3.0, SVG Export Plug-In . SVG Version: 6.00 Build 0)  -->
<svg version="1.1" id="Layer_1" xmlns="http://www.w3.org/2000/svg" xmlns:xlink="http://www.w3.org/1999/xlink" x="0px" y="0px"
	 viewBox="0 0 126 126" enable-background="new 0 0 126 126" xml:space="preserve">
<g>
	<g>
		<polygon fill-rule="evenodd" clip-rule="evenodd" fill="#49A9F6" points="13,96.3 113,96.3 113,29.7 13,29.7 13,96.3 		"/>
		<g>
			<polygon fill-rule="evenodd" clip-rule="evenodd" fill="#F4F4F4" points="85.2,90.5 63,35.7 40.8,90.5 46.8,83.1 63,43 
				79.2,83.1 85.2,90.5 			"/>
			<polygon fill-rule="evenodd" clip-rule="evenodd" points="79.2,83.1 63,43 46.8,83.1 63,63 79.2,83.1 			"/>
			<polygon fill-rule="evenodd" clip-rule="evenodd" fill="#FEDC36" points="40.8,90.5 85.2,90.5 63,63 40.8,90.5 			"/>
		</g>
	</g>
	<path opacity="0.35" fill="#FFFFFF" d="M13,29.7v25.5C26.2,62.6,43.7,67,63,67c19.3,0,36.8-4.5,50-11.8V29.7H13z"/>
</g>
</svg>
