<?xml version="1.0" encoding="utf-8"?>
<!-- Generator: Adobe Illustrator 24.3.0, SVG Export Plug-In . SVG Version: 6.00 Build 0)  -->
<svg version="1.1" id="Layer_1" xmlns="http://www.w3.org/2000/svg" xmlns:xlink="http://www.w3.org/1999/xlink" x="0px" y="0px"
	 viewBox="0 0 126 126" enable-background="new 0 0 126 126" xml:space="preserve">
<g>
	<g>
		<rect x="13" y="29.7" fill-rule="evenodd" clip-rule="evenodd" fill="#FF1612" width="100" height="66.7"/>
		<polygon fill-rule="evenodd" clip-rule="evenodd" fill="#0437A0" points="13,63 63,63 63,29.7 13,29.7 13,63 		"/>
		<path fill-rule="evenodd" clip-rule="evenodd" fill="#F4F4F4" d="M38,52.1l1,2.9h3.1l-2.5,1.8l1,2.9L38,57.9l-2.5,1.8l1-2.9
			L33.9,55H37L38,52.1L38,52.1z M38,33l0.8,2.3h2.5l-2,1.4l0.8,2.3l-2-1.4l-2,1.4l0.8-2.3l-2-1.4h2.5L38,33L38,33z M29.1,40.3
			l0.8,2.3h2.5l-2,1.4l0.8,2.3l-2-1.4l-2,1.4l0.8-2.3l-2-1.4h2.5L29.1,40.3L29.1,40.3z M47.2,39.1l0.7,2.2h2.3l-1.9,1.4l0.7,2.2
			l-1.9-1.4l-1.9,1.4l0.7-2.2l-1.9-1.4h2.3L47.2,39.1L47.2,39.1z M42.5,46.6l0.5,1.5h1.5l-1.3,0.9l0.5,1.5l-1.3-0.9l-1.3,0.9
			l0.5-1.5l-1.3-0.9H42L42.5,46.6L42.5,46.6z"/>
	</g>
	<path opacity="0.25" fill="#FFFFFF" d="M13,29.7v25.5C26.2,62.6,43.7,67,63,67c19.3,0,36.8-4.5,50-11.8V29.7H13z"/>
</g>
</svg>
