<?xml version="1.0" encoding="utf-8"?>
<!-- Generator: Adobe Illustrator 24.3.0, SVG Export Plug-In . SVG Version: 6.00 Build 0)  -->
<svg version="1.1" id="Layer_1" xmlns="http://www.w3.org/2000/svg" xmlns:xlink="http://www.w3.org/1999/xlink" x="0px" y="0px"
	 viewBox="0 0 126 126" enable-background="new 0 0 126 126" xml:space="preserve">
<g>
	<g>
		<g>
			<polygon fill="#F0F0F0" points="13,29.7 113,29.7 113,63 13,63 13,29.7 			"/>
			<polygon fill="#49A9F6" points="13,63 113,63 113,96.3 13,96.3 13,63 			"/>
			<g>
				<path fill-rule="evenodd" clip-rule="evenodd" d="M62.2,77.4c0,0-0.6,1-0.9,1.5c-0.3,0.4-0.6,0.9-0.4,1.1
					c0.2,0.2,0.6,0.1,0.8-0.4c0.2-0.5,1.2-2.2,1.2-2.2L62.2,77.4L62.2,77.4z"/>
				<path fill-rule="evenodd" clip-rule="evenodd" fill="#A48253" d="M62.2,77.6c0,0,0.2,0,0.3,0l-0.1,0.2
					C62.4,77.8,62.2,77.7,62.2,77.6L62.2,77.6L62.2,77.6z M61.5,79.4c-0.1,0-0.2,0-0.4,0.1c-0.1,0.1-0.2,0.2-0.1,0.3
					c0.1,0.1,0.2,0,0.3-0.1C61.4,79.6,61.5,79.5,61.5,79.4L61.5,79.4z M61.9,78c0,0,0.2,0,0.2,0.1l-0.6,1.1c0,0-0.3-0.1-0.4,0
					L61.9,78L61.9,78z M62,78l0.1-0.2c0,0,0.2,0,0.2,0.1l-0.1,0.2C62.2,78.1,62.2,78,62,78L62,78z"/>
				<path fill-rule="evenodd" clip-rule="evenodd" d="M63.9,77.4c0,0,0.6,1,0.9,1.5c0.3,0.4,0.6,0.9,0.4,1.1
					c-0.2,0.2-0.6,0.1-0.8-0.4c-0.3-0.5-1.2-2.2-1.2-2.2L63.9,77.4L63.9,77.4z"/>
				<path fill-rule="evenodd" clip-rule="evenodd" fill="#A48253" d="M63.9,77.6c0,0-0.2,0-0.3,0l0.1,0.2
					C63.6,77.8,63.8,77.7,63.9,77.6L63.9,77.6L63.9,77.6z M64.6,79.4c0.1,0,0.2,0,0.4,0.1c0.1,0.1,0.2,0.2,0.1,0.3
					c-0.1,0.1-0.2,0-0.3-0.1C64.6,79.6,64.5,79.5,64.6,79.4L64.6,79.4z M64.1,78c0,0-0.2,0-0.2,0.1l0.6,1.1c0,0,0.3-0.1,0.4,0
					L64.1,78L64.1,78z M64,78l-0.1-0.2c0,0-0.2,0-0.2,0.1l0.1,0.2C63.8,78.1,63.8,78,64,78L64,78z"/>
				<g>
					<g>
						<polygon fill-rule="evenodd" clip-rule="evenodd" fill="#A0CFEB" points="63,55.2 63.7,54.8 67.3,56.3 68.6,55.4 70,56.4 
							71.2,62.8 69,69.8 65.3,73.6 63,74.8 60.7,73.6 57.1,69.8 54.8,62.8 56,56.4 57.4,55.4 58.7,56.3 62.4,54.8 63,55.2 						"/>
						<g>
							<path fill="#4C819A" d="M60.9,55.7h4.4v0.1L60.9,55.7L60.9,55.7L60.9,55.7z M70.7,62.5H70v0.1L70.7,62.5L70.7,62.5L70.7,62.5
								z M70.7,62.1h-1.1v0.1L70.7,62.1L70.7,62.1L70.7,62.1z M70.7,61.7h-1.6v0.1L70.7,61.7L70.7,61.7L70.7,61.7z M70.7,61.2h-2.3
								v0.1L70.7,61.2L70.7,61.2L70.7,61.2z M70.7,60.8h-3.1v0.1L70.7,60.8L70.7,60.8L70.7,60.8z M70.7,60.4h-3.6v0.1L70.7,60.4
								L70.7,60.4L70.7,60.4z M70.4,60H65v0.1L70.4,60L70.4,60L70.4,60z M55.3,62.5H56v0.1L55.3,62.5L55.3,62.5L55.3,62.5z
								 M55.3,62.1h1.1v0.1L55.3,62.1L55.3,62.1L55.3,62.1z M55.3,61.7h1.6v0.1L55.3,61.7L55.3,61.7L55.3,61.7z M55.3,61.2h2.3v0.1
								L55.3,61.2L55.3,61.2L55.3,61.2z M55.3,60.8h3.1v0.1L55.3,60.8L55.3,60.8L55.3,60.8z M55.3,60.4h3.6v0.1L55.3,60.4L55.3,60.4
								L55.3,60.4z M55.6,60H61v0.1L55.6,60L55.6,60L55.6,60z M55.6,59.6h14.9v0.1L55.6,59.6L55.6,59.6L55.6,59.6z M55.7,59.1h14.6
								v0.1L55.7,59.1L55.7,59.1L55.7,59.1z M55.7,58.7h14.6v0.1L55.7,58.7L55.7,58.7L55.7,58.7z M55.7,58.3h14.6v0.1L55.7,58.3
								L55.7,58.3L55.7,58.3z M55.9,57.8h14.3v0.1L55.9,57.8L55.9,57.8L55.9,57.8z M56.1,57.4h13.8v0.1L56.1,57.4L56.1,57.4
								L56.1,57.4z M56.4,57h13.5v0.1L56.4,57L56.4,57L56.4,57z M56.7,56.6h12.9v0.1L56.7,56.6L56.7,56.6L56.7,56.6z M60.1,56.1h6
								v0.1L60.1,56.1L60.1,56.1L60.1,56.1z M60.9,55.3h4.4v0.1L60.9,55.3L60.9,55.3L60.9,55.3z"/>
							<g>
								<g>
									<g>
										<path fill-rule="evenodd" clip-rule="evenodd" d="M61.5,61.3c0,0,0.4-0.2,0.6-0.2c0.2-0.1,0.1,0.1,0.2,0.2
											c0,0.1,0,0.2,0,0.2l0.3-0.1c0,0,0-0.3,0-0.3c0-0.1,0-0.1,0.1-0.1c0.1,0,0.3-0.1,0.3-0.1c0,0,0.1,0,0.1,0
											c0.1,0,0.3,0.1,0.3,0.1s0.1,0,0.1,0.1c0,0.1,0,0.3,0,0.3l0.3,0.1c0,0,0-0.3,0-0.3c0-0.1,0-0.1,0.1-0.1
											c0.1,0,0.6,0.2,0.6,0.2s0.1,0,0.1,0.1c0,0.1,0,1.1,0,1.1L64,63v3.2l0.7,2.1h-3.4l0.6-2.1V63l-0.4-0.5c0,0,0-1,0-1.1
											C61.4,61.3,61.4,61.3,61.5,61.3L61.5,61.3z"/>
										<path fill-rule="evenodd" clip-rule="evenodd" fill="#BDBFC1" d="M61.6,61.4v1l1.2-0.4v-1L62.6,61c0,0,0,0.6,0,0.6
											c0,0.1,0,0.1-0.1,0.1c-0.1,0-0.3,0.1-0.4,0.2c-0.1,0-0.1,0-0.1-0.1c0-0.1,0-0.5,0-0.5L61.6,61.4L61.6,61.4z M62.9,67v0.4
											c0,0-1,0.1-1.2,0.4l0.2-0.6L62.9,67L62.9,67z M62.8,66.5v0.4l-1,0.2l0.1-0.4L62.8,66.5L62.8,66.5z M62.8,66.4V66L62,66.2
											l-0.1,0.4L62.8,66.4L62.8,66.4z M62.7,65.6v0.3l0.1,0v-0.3L62.7,65.6L62.7,65.6z M62,65.8l0.5-0.2v0.3L62,66.1L62,65.8
											L62,65.8z M62,65.3v0.3l0.8-0.2v-0.3L62,65.3L62,65.3z M62.3,64.8v0.3l0.6-0.2v-0.3L62.3,64.8L62.3,64.8z M62,64.9v0.3
											l0.1,0v-0.3L62,64.9L62,64.9z M62,64.4v0.3l0.8-0.2v-0.3L62,64.4L62,64.4z M62.7,63.7v0.3l0.1,0v-0.3L62.7,63.7L62.7,63.7
											z M62,64l0.5-0.2v0.3L62,64.3L62,64L62,64z M62.3,63.4v0.3l0.6-0.2v-0.3L62.3,63.4L62.3,63.4z M62,63.5v0.3l0.1,0v-0.3
											L62,63.5L62,63.5z M62.7,62.8v0.3l0.1,0v-0.3L62.7,62.8L62.7,62.8z M62,63l0.5-0.2v0.3L62,63.3L62,63L62,63z M61.6,62.5
											l1.2-0.4v0.5L62,62.9L61.6,62.5L61.6,62.5z"/>
										<path fill-rule="evenodd" clip-rule="evenodd" fill="#FFFFFF" d="M63,60.9v1l1.3,0.4v-1l-0.4-0.2c0,0,0,0.4,0,0.5
											c0,0.1-0.1,0.1-0.1,0.1c-0.1,0-0.3-0.1-0.4-0.1c-0.1,0-0.1-0.1-0.1-0.2s0-0.5,0-0.5L63,60.9L63,60.9z M63,67v0.4
											c0,0,1,0,1.2,0.2l-0.1-0.4L63,67L63,67z M63,65.6v1.3l1.1,0.2l-0.2-0.9v-0.4l-0.2-0.1v0.6l-0.4-0.1v-0.6L63,65.6L63,65.6z
											 M63.6,65.3v0.3l0.2,0.1v-0.3L63.6,65.3L63.6,65.3z M63,65.1v0.3l0.2,0.1v-0.3L63,65.1L63,65.1z M63.8,65.2v-0.3l-0.2-0.1
											c0,0,0.1,0,0.1,0.1c0,0.1,0,0.3,0,0.3L63.8,65.2L63.8,65.2z M63,64.6V65l0.2,0.1c0,0,0-0.2,0-0.2c0-0.1,0-0.1,0-0.1
											L63,64.6L63,64.6z M63,64.2v0.4l0.9,0.2v-0.3L63,64.2L63,64.2z M63.6,63.9v0.3l0.2,0.1v-0.3L63.6,63.9L63.6,63.9z
											 M63,63.7V64l0.5,0.1v-0.3L63,63.7L63,63.7z M63.2,63.6v-0.3l0.6,0.2v0.3L63.2,63.6L63.2,63.6z M63,63.2v0.3l0.2,0v-0.3
											L63,63.2L63,63.2z M63.6,63.3v-0.3l0.2,0.1v0.3L63.6,63.3L63.6,63.3z M63,62.8v0.3l0.5,0.1v-0.3L63,62.8L63,62.8z
											 M63,62.1v0.6l0.9,0.2l0.3-0.5L63,62.1L63,62.1z"/>
									</g>
									<path fill-rule="evenodd" clip-rule="evenodd" d="M63.6,58.7c0,0,0.8-0.5,0.4-1.2c-0.5-0.9-2.1-0.3-1.8,0.8
										c0.1,0.6,0.4,1,0.5,1.2c0.1,0.2,0.2,0.6,0.2,0.8c0,0.1,0,0.3,0.2,0.2c0.2-0.1,0.3-0.6,0.3-0.9c0-0.3-0.2-1.2-0.2-1.4
										c0-0.2-0.1-0.3,0.1-0.2c0.1,0.1,0.2,0.2,0.3,0.3c0.1,0.2,0.1,0.2,0.1,0.3C63.5,58.7,63.5,58.8,63.6,58.7L63.6,58.7z"/>
									<path fill-rule="evenodd" clip-rule="evenodd" fill="#FFFFFF" d="M63.7,58.4c0,0,0.3-0.3,0.2-0.6c-0.1-0.4-0.4-0.5-0.5-0.5
										c-0.2,0-0.4,0-0.5,0c-0.1,0,0,0,0,0c0,0,0.3,0,0.4,0.1c0.1,0.1,0.3,0.2,0.2,0.2c0,0-0.1-0.1-0.3-0.2
										c-0.1-0.1-0.4-0.1-0.6,0c-0.2,0.1-0.4,0.2-0.4,0.5c-0.1,0.3,0,0.6,0.1,0.8c0.1,0.2,0.2,0.6,0.4,0.8
										c0.1,0.3,0.2,0.4,0.2,0.6c0,0.2,0,0.2,0.1,0.1c0.1-0.1,0.1-0.3,0.2-0.5c0-0.2-0.1-0.5-0.1-0.6c0-0.1-0.1,0-0.1,0
										c-0.1,0-0.1-0.1,0-0.1c0,0,0.1,0,0.1-0.1c0-0.1,0-0.1-0.2,0c-0.1,0.1-0.2,0.1-0.2,0.1c0,0,0-0.1,0-0.1
										c0.1,0,0.3-0.1,0.2-0.2c0-0.1-0.3,0.1-0.3,0.1c-0.1,0-0.1,0.1-0.1,0c0-0.1,0-0.1,0.1-0.1c0.1,0,0.4-0.1,0.3-0.2
										c0-0.1-0.3,0.1-0.4,0.1s-0.1,0-0.1,0c0,0,0-0.1,0.1-0.1c0.1,0,0.4-0.1,0.3-0.2c0-0.1-0.3,0.1-0.4,0.1c-0.1,0-0.1,0-0.1,0
										c0,0,0-0.1,0.1-0.1c0.1,0,0.4-0.1,0.4-0.2c0,0-0.3,0.1-0.4,0.1c-0.1,0-0.1,0-0.1-0.1c0-0.1,0.2-0.3,0.4-0.4
										c0.3-0.1,0.5,0.1,0.6,0.2c0.1,0.1,0.1,0.3,0.1,0.3C63.6,58.4,63.6,58.5,63.7,58.4L63.7,58.4z"/>
								</g>
								<g>
									<g>
										<path fill-rule="evenodd" clip-rule="evenodd" d="M57.5,61.9c0,0,0.4-0.2,0.6-0.2c0.2-0.1,0.1,0.1,0.2,0.2
											c0,0.1,0,0.2,0,0.2l0.3-0.1c0,0,0-0.3,0-0.3s0-0.1,0.1-0.1c0,0,0.3-0.1,0.3-0.1c0,0,0.1,0,0.1,0c0.1,0,0.3,0.1,0.3,0.1
											s0.1,0,0.1,0.1c0,0.1,0,0.3,0,0.3l0.3,0.1c0,0,0-0.3,0-0.3c0-0.1,0-0.1,0.1-0.1c0.1,0,0.6,0.2,0.6,0.2s0.1,0,0.1,0.1
											c0,0.1,0,1.1,0,1.1L60,63.6v3.2l0.7,2.1h-3.4l0.6-2.1v-3.2l-0.4-0.5c0,0,0-1,0-1.1C57.4,61.9,57.4,61.9,57.5,61.9
											L57.5,61.9z"/>
										<path fill-rule="evenodd" clip-rule="evenodd" fill="#BDBFC1" d="M57.6,62v1l1.2-0.4v-1l-0.2,0.1c0,0,0,0.6,0,0.6
											c0,0.1,0,0.1-0.1,0.1c-0.1,0-0.3,0.1-0.4,0.2c-0.1,0-0.1,0-0.1-0.1c0-0.1,0-0.5,0-0.5L57.6,62L57.6,62z M58.9,67.6v0.4
											c0,0-1,0.1-1.2,0.4l0.2-0.6L58.9,67.6L58.9,67.6z M58.9,67.1v0.4l-1,0.2l0.1-0.4L58.9,67.1L58.9,67.1z M58.9,67v-0.3
											l-0.8,0.2L58,67.2L58.9,67L58.9,67z M58.7,66.2v0.3l0.1,0v-0.3L58.7,66.2L58.7,66.2z M58,66.4l0.5-0.2v0.3L58,66.7
											L58,66.4L58,66.4z M58,65.9v0.3l0.8-0.2v-0.3L58,65.9L58,65.9z M58.3,65.4v0.3l0.6-0.2v-0.3L58.3,65.4L58.3,65.4z
											 M58,65.5v0.3l0.1,0v-0.3L58,65.5L58,65.5z M58,65v0.3l0.8-0.2v-0.3L58,65L58,65z M58.7,64.4v0.3l0.1,0v-0.3L58.7,64.4
											L58.7,64.4z M58,64.6l0.5-0.2v0.3L58,64.9L58,64.6L58,64.6z M58.3,64v0.3l0.6-0.2v-0.3L58.3,64L58.3,64z M58,64.1v0.3
											l0.1,0v-0.3L58,64.1L58,64.1z M58.7,63.4v0.3l0.1,0v-0.3L58.7,63.4L58.7,63.4z M58,63.7l0.5-0.2v0.3L58,64L58,63.7
											L58,63.7z M57.7,63.1l1.2-0.4v0.5L58,63.5L57.7,63.1L57.7,63.1z"/>
										<path fill-rule="evenodd" clip-rule="evenodd" fill="#FFFFFF" d="M59,61.5v1l1.3,0.4v-1l-0.4-0.2c0,0,0,0.4,0,0.5
											c0,0.1-0.1,0.1-0.1,0.1c-0.1,0-0.3-0.1-0.4-0.1c-0.1,0-0.1-0.1-0.1-0.2s0-0.5,0-0.5L59,61.5L59,61.5z M59,67.6v0.4
											c0,0,1,0,1.2,0.2l-0.1-0.4L59,67.6L59,67.6z M59,66.2v1.3l1.1,0.2l-0.2-0.9v-0.4l-0.2-0.1v0.6l-0.4-0.1v-0.6L59,66.2
											L59,66.2z M59.7,65.9v0.3l0.2,0.1v-0.3L59.7,65.9L59.7,65.9z M59,65.7V66l0.2,0.1v-0.3L59,65.7L59,65.7z M59.9,65.8v-0.3
											l-0.2-0.1c0,0,0,0,0,0.1c0,0.1,0,0.3,0,0.3L59.9,65.8L59.9,65.8z M59,65.3v0.3l0.2,0.1c0,0,0-0.2,0-0.2c0-0.1,0-0.1,0-0.1
											L59,65.3L59,65.3z M59,64.8v0.4l0.9,0.2V65L59,64.8L59,64.8z M59.6,64.5v0.3l0.2,0.1v-0.3L59.6,64.5L59.6,64.5z M59,64.3
											v0.3l0.5,0.1v-0.3L59,64.3L59,64.3z M59.3,64.3v-0.3l0.6,0.2v0.3L59.3,64.3L59.3,64.3z M59,63.9v0.3l0.2,0v-0.3L59,63.9
											L59,63.9z M59.6,63.9v-0.3l0.2,0.1V64L59.6,63.9L59.6,63.9z M59,63.4v0.3l0.5,0.1v-0.3L59,63.4L59,63.4z M59,62.7v0.6
											l0.9,0.2l0.3-0.5L59,62.7L59,62.7z"/>
									</g>
									<path fill-rule="evenodd" clip-rule="evenodd" d="M59.6,59.4c0,0,0.8-0.5,0.4-1.2c-0.5-0.9-2.1-0.3-1.8,0.8
										c0.1,0.6,0.4,1,0.5,1.2c0.1,0.2,0.2,0.6,0.2,0.8c0,0.1,0,0.3,0.2,0.2c0.2-0.1,0.3-0.6,0.3-0.9c0-0.3-0.2-1.2-0.2-1.4
										c0-0.2-0.1-0.3,0.1-0.2c0.1,0.1,0.2,0.2,0.3,0.3c0.1,0.2,0.1,0.2,0.1,0.3C59.5,59.3,59.5,59.4,59.6,59.4L59.6,59.4z"/>
									<path fill-rule="evenodd" clip-rule="evenodd" fill="#FFFFFF" d="M59.7,59c0,0,0.3-0.3,0.2-0.6c-0.1-0.4-0.4-0.5-0.5-0.5
										c-0.2,0-0.4,0-0.4,0c-0.1,0,0,0,0,0c0,0,0.3,0,0.4,0.1c0.1,0.1,0.3,0.2,0.2,0.2c0,0-0.1-0.1-0.2-0.2
										c-0.1-0.1-0.4-0.1-0.6,0c-0.2,0.1-0.4,0.2-0.4,0.5c-0.1,0.3,0,0.6,0.1,0.8c0.1,0.2,0.2,0.6,0.4,0.8
										c0.1,0.3,0.2,0.4,0.2,0.6c0,0.2,0,0.2,0.1,0.1c0.1-0.1,0.1-0.3,0.2-0.5c0-0.2-0.1-0.5-0.1-0.6c0-0.1-0.1,0-0.1,0
										c-0.1,0-0.1-0.1,0-0.1c0,0,0.1,0,0.1-0.1c0-0.1,0-0.1-0.2,0c-0.1,0.1-0.2,0.1-0.2,0.1c0,0,0-0.1,0-0.1
										c0.1,0,0.3-0.1,0.2-0.2c0-0.1-0.3,0.1-0.3,0.1c-0.1,0-0.1,0.1-0.1,0c0-0.1,0-0.1,0.1-0.1c0.1,0,0.4-0.1,0.3-0.2
										c0-0.1-0.3,0.1-0.4,0.1c-0.1,0-0.1,0-0.1,0c0,0,0-0.1,0.1-0.1c0.1,0,0.4-0.2,0.3-0.2c0-0.1-0.3,0.1-0.4,0.1
										c-0.1,0-0.1,0-0.1,0c0,0,0-0.1,0.1-0.1c0.1,0,0.4-0.1,0.4-0.2c0,0-0.3,0.1-0.4,0.1c-0.1,0-0.1,0-0.1-0.1
										c0-0.1,0.2-0.3,0.4-0.4c0.3-0.1,0.5,0.1,0.6,0.2c0.1,0.1,0.1,0.3,0.1,0.3C59.6,59,59.6,59.1,59.7,59L59.7,59z"/>
								</g>
								<g>
									<g>
										<path fill-rule="evenodd" clip-rule="evenodd" d="M65.5,61.9c0,0,0.4-0.2,0.6-0.2c0.2-0.1,0.1,0.1,0.2,0.2
											c0,0.1,0,0.2,0,0.2l0.3-0.1c0,0,0-0.3,0-0.3c0-0.1,0-0.1,0.1-0.1c0.1,0,0.3-0.1,0.3-0.1c0,0,0.1,0,0.1,0
											c0.1,0,0.3,0.1,0.3,0.1s0.1,0,0.1,0.1c0,0.1,0,0.3,0,0.3l0.3,0.1c0,0,0-0.3,0-0.3c0-0.1,0-0.1,0.1-0.1
											c0.1,0,0.6,0.2,0.6,0.2s0.1,0,0.1,0.1c0,0.1,0,1.1,0,1.1L68,63.6v3.2l0.7,2.1h-3.4l0.6-2.1v-3.2l-0.4-0.5c0,0,0-1,0-1.1
											C65.4,61.9,65.4,61.9,65.5,61.9L65.5,61.9z"/>
										<path fill-rule="evenodd" clip-rule="evenodd" fill="#BDBFC1" d="M65.6,62v1l1.2-0.4v-1l-0.2,0.1c0,0,0,0.6,0,0.6
											c0,0.1,0,0.1-0.1,0.1c0,0-0.3,0.1-0.4,0.2c-0.1,0-0.1,0-0.1-0.1c0-0.1,0-0.5,0-0.5L65.6,62L65.6,62z M66.9,67.6V68
											c0,0-1,0.1-1.2,0.4l0.2-0.6L66.9,67.6L66.9,67.6z M66.8,67.1v0.4l-1,0.2l0.1-0.4L66.8,67.1L66.8,67.1z M66.8,67v-0.3
											L66,66.8l-0.1,0.4L66.8,67L66.8,67z M66.7,66.2v0.3l0.1,0v-0.3L66.7,66.2L66.7,66.2z M66,66.4l0.5-0.2v0.3L66,66.7V66.4
											L66,66.4z M66,65.9v0.3l0.8-0.2v-0.3L66,65.9L66,65.9z M66.3,65.4v0.3l0.6-0.2v-0.3L66.3,65.4L66.3,65.4z M66,65.4v0.3
											l0.1,0v-0.3L66,65.4L66,65.4z M66,65v0.3l0.8-0.2v-0.3L66,65L66,65z M66.7,64.3v0.3l0.1,0v-0.3L66.7,64.3L66.7,64.3z
											 M66,64.5l0.5-0.2v0.3L66,64.9V64.5L66,64.5z M66.3,64v0.3l0.6-0.2v-0.3L66.3,64L66.3,64z M66,64.1v0.3l0.1,0V64L66,64.1
											L66,64.1z M66.7,63.4v0.3l0.1,0v-0.3L66.7,63.4L66.7,63.4z M66,63.6l0.5-0.2v0.3L66,63.9V63.6L66,63.6z M65.6,63.1
											l1.2-0.4v0.5L66,63.5L65.6,63.1L65.6,63.1z"/>
										<path fill-rule="evenodd" clip-rule="evenodd" fill="#FFFFFF" d="M67,61.5v1l1.3,0.4v-1l-0.4-0.2c0,0,0,0.4,0,0.5
											c0,0.1-0.1,0.1-0.1,0.1c-0.1,0-0.3-0.1-0.4-0.1c-0.1,0-0.1-0.1-0.1-0.2c0-0.1,0-0.5,0-0.5L67,61.5L67,61.5z M67,67.6V68
											c0,0,1,0,1.2,0.2l-0.1-0.4L67,67.6L67,67.6z M67,66.2v1.3l1.1,0.2l-0.2-0.9v-0.4l-0.2-0.1v0.6l-0.4-0.1v-0.6L67,66.2
											L67,66.2z M67.6,65.8v0.3l0.2,0.1v-0.3L67.6,65.8L67.6,65.8z M67,65.7V66l0.2,0.1v-0.3L67,65.7L67,65.7z M67.8,65.8v-0.3
											l-0.2-0.1c0,0,0.1,0,0.1,0.1c0,0.1,0,0.3,0,0.3L67.8,65.8L67.8,65.8z M67,65.2v0.3l0.2,0.1c0,0,0-0.2,0-0.2
											c0-0.1,0-0.1,0-0.1L67,65.2L67,65.2z M67,64.7v0.4l0.9,0.2V65L67,64.7L67,64.7z M67.6,64.4v0.3l0.2,0.1v-0.3L67.6,64.4
											L67.6,64.4z M67,64.3v0.3l0.5,0.1v-0.3L67,64.3L67,64.3z M67.2,64.2v-0.3l0.6,0.2v0.3L67.2,64.2L67.2,64.2z M67,63.8v0.3
											l0.2,0v-0.3L67,63.8L67,63.8z M67.6,63.9v-0.3l0.2,0.1v0.3L67.6,63.9L67.6,63.9z M67,63.4v0.3l0.5,0.1v-0.3L67,63.4
											L67,63.4z M67,62.6v0.6l0.9,0.2l0.3-0.5L67,62.6L67,62.6z"/>
									</g>
									<path fill-rule="evenodd" clip-rule="evenodd" d="M67.6,59.3c0,0,0.8-0.5,0.4-1.2c-0.5-0.9-2.1-0.3-1.8,0.8
										c0.1,0.6,0.4,1,0.5,1.2c0.1,0.2,0.2,0.6,0.2,0.8c0,0.1,0,0.3,0.2,0.2c0.2-0.1,0.3-0.6,0.3-0.9c0-0.3-0.2-1.2-0.2-1.4
										c0-0.2-0.1-0.3,0.1-0.2c0.1,0.1,0.2,0.2,0.3,0.3c0.1,0.2,0.1,0.2,0.1,0.3C67.5,59.3,67.5,59.4,67.6,59.3L67.6,59.3z"/>
									<path fill-rule="evenodd" clip-rule="evenodd" fill="#FFFFFF" d="M67.7,59c0,0,0.3-0.3,0.2-0.6c-0.1-0.4-0.4-0.5-0.5-0.5
										c-0.2,0-0.4,0-0.5,0c-0.1,0,0,0,0,0c0,0,0.3,0,0.4,0.1c0.1,0.1,0.3,0.2,0.2,0.2c0,0-0.1-0.1-0.3-0.2
										c-0.1-0.1-0.4-0.1-0.6,0c-0.2,0.1-0.4,0.2-0.4,0.5c-0.1,0.3,0,0.6,0.1,0.8c0.1,0.2,0.2,0.6,0.4,0.8
										c0.1,0.2,0.2,0.4,0.2,0.6c0,0.2,0,0.2,0.1,0.1c0.1-0.1,0.1-0.3,0.2-0.5c0-0.2-0.1-0.5-0.1-0.6c0-0.1-0.1,0-0.1,0
										c-0.1,0-0.1-0.1,0-0.1c0,0,0.1,0,0.1-0.1c0-0.1,0-0.1-0.2,0c-0.1,0.1-0.2,0.1-0.2,0.1c0,0,0-0.1,0-0.1
										c0.1,0,0.3-0.1,0.2-0.2c0-0.1-0.3,0.1-0.3,0.1c-0.1,0-0.1,0.1-0.1,0c0-0.1,0-0.1,0.1-0.1c0.1,0,0.4-0.1,0.3-0.2
										c0-0.1-0.3,0.1-0.4,0.1c-0.1,0-0.1,0-0.1,0c0,0,0-0.1,0.1-0.1c0.1,0,0.4-0.1,0.3-0.2c0-0.1-0.3,0.1-0.4,0.1
										c-0.1,0-0.1,0-0.1,0c0,0,0-0.1,0.1-0.1c0.1,0,0.4-0.1,0.4-0.2c0,0-0.3,0.1-0.4,0.1c-0.1,0-0.1,0-0.1-0.1
										c0-0.1,0.1-0.3,0.4-0.4c0.3-0.1,0.5,0.1,0.6,0.2c0.1,0.1,0.1,0.3,0.1,0.3C67.6,59,67.6,59,67.7,59L67.7,59z"/>
								</g>
							</g>
							<path fill-rule="evenodd" clip-rule="evenodd" d="M56.9,68.7c0,0,0.8-0.7,2-0.7c1.2,0,1.9,0.5,1.9,0.5s0.8-1,2.3-1
								c1.5,0,2.4,0.9,2.4,0.9s0.7-0.4,1.6-0.4s1.7,0.5,1.7,0.5l0.7,0.5c0,0-3.5,4.7-6.4,5.9C63.1,74.8,58.3,72.9,56.9,68.7
								L56.9,68.7z"/>
							<path fill-rule="evenodd" clip-rule="evenodd" fill="#658D5C" d="M57.1,68.6c0,0,1.1-0.5,1.8-0.5c0.8,0,1.5,0.3,2,0.7
								c0.5,0.3,0.5,0.4,0.6,0.4c0.1-0.1-0.4-0.4-0.5-0.5c-0.1-0.1-0.1-0.1-0.1-0.2c0.1-0.1,1-0.9,2-0.9c1.1,0,1.9,0.4,2.4,0.9
								c0.5,0.5,0.5,0.4,0.5,0.3c0-0.1-0.2-0.2-0.2-0.3c0,0,0-0.1,0.1-0.1c0.1,0,0.6-0.3,1.3-0.3c0.7,0,1.1,0.1,1.7,0.4l0.3,0.1
								c0,0-2.4,4.8-6,6.1C63,74.8,58.4,72.8,57.1,68.6L57.1,68.6z"/>
							<path fill-rule="evenodd" clip-rule="evenodd" fill="#94BB79" d="M59.3,68.1c0.6,0.1,1.3,0.4,1.7,0.7
								c0.5,0.3,0.5,0.4,0.6,0.4c0.3,0.2,1,0.9,2.2,1.9c1.1,0.9,1.8,1.6,2.1,1.9c-0.5,0.4-1,0.8-1.5,1.2c-0.5-0.6-1.6-1.7-2.4-2.3
								c-0.8-0.6-2.3-1.4-2.2-1.6c0.1-0.2,1.1,0.1,1.2-0.2c0.1-0.2-0.3-0.9-0.9-1.4C59.8,68.5,59.5,68.3,59.3,68.1L59.3,68.1z
								 M63.2,67.6c1,0,1.7,0.4,2.2,0.9c0.3,0.3,0.4,0.4,0.5,0.4l0,0c0.1,0.1,1.2,1.4,1.7,2c-0.3,0.4-0.6,0.8-0.9,1.1
								c-0.3-0.3-0.9-0.9-1.5-1.4c-0.8-0.6-1.3-1-1.6-1.1c-0.2-0.2-0.2-0.3,0.1-0.3c0.3,0,0.9,0.1,1-0.2c0.1-0.2-0.3-0.8-0.8-1.1
								C63.7,67.8,63.4,67.7,63.2,67.6L63.2,67.6z M67.1,68.1c0.6,0,1,0.1,1.6,0.4l0.3,0.1c0,0-0.1,0.3-0.4,0.7
								C68.3,68.8,67.7,68.4,67.1,68.1L67.1,68.1z"/>
						</g>
					</g>
					<path fill-rule="evenodd" clip-rule="evenodd" d="M63,53.5c0,0,1.5,0,2.5-0.2l-1.9,0.9c0,0-0.2-0.3-0.7-0.3
						c-0.4,0-0.7,0.3-0.7,0.3l-1.9-0.9C61.5,53.5,63,53.5,63,53.5L63,53.5z M63,55.6c0.4,0,0.6-0.2,0.7-0.3c0,0,1.7,1.1,2.1,1.3
						c0.4,0.2,1,0.6,1.6,0.5c0.6-0.1,1-0.3,1.2-0.7c0,0,1,0.8,1.3,2.8c0.3,2,0.4,4.5-0.3,6.6c-0.7,2.2-1.5,3.6-2.7,5.3
						c-1.2,1.7-2.6,2.7-2.6,2.7L63,74.5l-1.3-0.7c0,0-1.3-1-2.6-2.7c-1.2-1.7-2-3.1-2.7-5.3c-0.7-2.2-0.6-4.7-0.3-6.6
						c0.3-2,1.3-2.8,1.3-2.8c0.2,0.4,0.6,0.6,1.2,0.7c0.6,0.1,1.2-0.3,1.6-0.5c0.4-0.2,2.1-1.3,2.1-1.3C62.4,55.3,62.6,55.6,63,55.6
						L63,55.6z M63,75.3c0,0,0.8-0.2,2.6-1.2c1.8-1.1,3.4-2.4,4.3-3.7c0.9-1.3,2-3.1,2.3-4.1c0.9-3.1,1.2-6.3,0.1-9.4
						c-0.4-1.2-1-2.5-2.3-3.4c-1.3-0.8-2.5-0.7-2.5-0.7s0.6-0.5,0.2-0.9c0,0,0.1-0.1,0.2-0.3c0,0,0.4-0.1,0.4-0.5
						c0,0,0.2-0.2,0.2-0.4c0-0.3,0.3-0.5,0.5-0.7c0.2-0.2,0.8-0.5,1-0.5c0.2-0.1,0-0.1-0.1-0.2c-0.1,0-0.2-0.1-0.3-0.1
						c-0.1,0-0.1-0.1,0-0.1c0.1-0.1,0.2-0.3,0.2-0.3s0.5,0.1,0.7-0.3c0.2-0.5-0.2-0.7-0.2-0.7s0.1-0.3,0.1-0.5c0,0,0.6-0.2,0.5-0.8
						c-0.1-0.6-0.7-0.6-0.7-0.6s-0.2-0.2-0.3-0.3c0,0,0.1-0.5-0.3-0.7c-0.4-0.2-0.8,0-0.9,0.2c0,0-0.4,0-0.6-0.1
						c0,0-0.1-0.5-0.6-0.6c-0.5,0-0.6,0.4-0.6,0.4s-0.3,0-0.6,0c0,0,0-0.4-0.4-0.5c-0.4-0.1-0.7,0.3-0.7,0.3s-0.6-0.2-0.8-0.4
						c0,0,0.4-0.1,0.4-0.4c0,0-0.5,0-0.6-0.5c0-0.5-0.1-0.7-0.4-0.8c0,0,0.5-0.8-0.4-1.5c0,0-0.1-0.7-0.1-0.7c0-0.1,0.2,0,0.3,0.1
						c0.1,0,0.7,0.2,0.7-0.3s-0.5-0.5-0.7-0.4c-0.2,0.1-0.3-0.1-0.2-0.2c0.1-0.1,0.3-0.8-0.3-0.8c-0.6,0-0.4,0.7-0.3,0.8
						c0.1,0.1,0,0.3-0.2,0.2c-0.2-0.1-0.7-0.2-0.7,0.4s0.7,0.4,0.7,0.3c0.1,0,0.3-0.1,0.3-0.1c0,0.1-0.1,0.7-0.1,0.7
						c-1,0.6-0.4,1.5-0.4,1.5c-0.2,0.1-0.3,0.4-0.4,0.8c0,0.5-0.6,0.5-0.6,0.5c0,0.3,0.4,0.4,0.4,0.4c-0.2,0.2-0.8,0.4-0.8,0.4
						s-0.2-0.4-0.7-0.3c-0.4,0.1-0.4,0.5-0.4,0.5c-0.3,0.1-0.6,0-0.6,0s-0.1-0.5-0.6-0.4c-0.5,0.1-0.6,0.6-0.6,0.6
						c-0.2,0-0.6,0.1-0.6,0.1c-0.1-0.1-0.4-0.3-0.9-0.2c-0.4,0.2-0.3,0.7-0.3,0.7c-0.1,0.1-0.3,0.3-0.3,0.3s-0.6,0-0.7,0.6
						c-0.1,0.6,0.5,0.8,0.5,0.8c0,0.2,0.1,0.5,0.1,0.5s-0.4,0.2-0.2,0.7c0.2,0.5,0.7,0.3,0.7,0.3s0.2,0.2,0.2,0.3s0,0.1,0,0.1
						c-0.1,0-0.2,0.1-0.3,0.1c-0.1,0.1-0.3,0.1-0.1,0.2c0.2,0.1,0.8,0.4,1,0.5c0.2,0.2,0.5,0.4,0.5,0.7c0,0.3,0.2,0.4,0.2,0.4
						c0,0.4,0.4,0.5,0.4,0.5c0,0.2,0.2,0.3,0.2,0.3c-0.4,0.3,0.2,0.9,0.2,0.9s-1.1-0.1-2.5,0.7c-1.3,0.8-1.9,2.2-2.3,3.4
						c-1.1,3.1-0.8,6.3,0.1,9.4c0.3,1,1.3,2.9,2.3,4.1c0.9,1.3,2.6,2.6,4.3,3.7C62.2,75.1,63,75.3,63,75.3L63,75.3z M61.8,44.9
						c-0.1,0.4,0.1,0.6,0.2,1c0.1,0.4,0.2,0.7,0.2,0.9c0,0.2-0.2,0.4-0.3,0.6c0,0-0.3-0.6-1.1-0.9c0,0-0.5,0.6-0.6,1.2
						c0,0-0.3-0.4-1.2-0.6c0,0-0.2,0.3-0.2,1.1c0,0-0.3-0.2-0.6-0.3c0,0-0.4-0.4-0.5-0.7c-0.1-0.3-0.3-0.8,0.2-1.1
						c0.5-0.3,1.8-0.3,2.6-0.5C61.3,45.3,61.6,45,61.8,44.9L61.8,44.9z M64.2,44.9c0,0.4-0.1,0.6-0.2,1c-0.1,0.4-0.2,0.7-0.2,0.9
						c0,0.2,0.2,0.4,0.3,0.6c0,0,0.3-0.6,1.1-0.9c0,0,0.5,0.6,0.6,1.2c0,0,0.3-0.4,1.2-0.6c0,0,0.2,0.3,0.2,1.1c0,0,0.3-0.2,0.6-0.3
						c0,0,0.4-0.4,0.5-0.7s0.3-0.8-0.2-1.1c-0.5-0.3-1.8-0.3-2.6-0.5C64.7,45.3,64.4,45,64.2,44.9L64.2,44.9z"/>
					<path fill-rule="evenodd" clip-rule="evenodd" fill="#F1BF31" d="M63,38.6c0,0,0.3,0.1,0.3,0.3c0,0.3-0.1,0.3-0.1,0.5
						c0,0.2,0.1,0.2,0.3,0.2c0.2,0,0.7-0.2,0.7,0.2c0,0.5-0.6,0.2-0.7,0.1c-0.1,0-0.3,0-0.3,0.1c0,0.2,0,0.7,0,0.7l-0.2,0l-0.2,0
						c0,0,0-0.5,0-0.7c0-0.2-0.1-0.2-0.3-0.1c-0.1,0-0.7,0.3-0.7-0.1c0-0.5,0.5-0.3,0.7-0.2c0.2,0,0.3-0.1,0.3-0.2
						c0-0.2-0.1-0.2-0.1-0.5C62.7,38.6,63,38.6,63,38.6L63,38.6z M62.6,54.8C62.6,54.7,62.6,54.7,62.6,54.8
						C62.5,54.7,62.5,54.7,62.6,54.8c-0.1,0-0.1,0.3,0.2,0.5c0.1,0.1,0.2,0.1,0.3,0c0.2-0.1,0.3-0.2,0.3-0.2c0,0,0-0.1,0-0.1
						c0,0-0.1,0-0.1,0c0,0-0.1,0.1-0.3,0.2c-0.1,0-0.2,0-0.3,0C62.6,55,62.6,54.8,62.6,54.8L62.6,54.8z M62.8,54.8
						C62.8,54.7,62.8,54.7,62.8,54.8C62.8,54.7,62.7,54.8,62.8,54.8c-0.1,0-0.1,0.3,0.2,0.3c0,0,0,0,0-0.1c0,0,0,0-0.1,0
						C62.9,55,62.8,54.8,62.8,54.8L62.8,54.8z M59.9,55.2c0,0-0.3-0.5-1.1-0.6c-0.8-0.1-1.4,0.4-1.7,0.7c-0.3,0.3-0.8,0.9-1,1.5
						c-0.3,0.6-0.5,1.3-0.5,1.5c-0.1,0.1,0.1,0.2,0.1,0.1c0-0.1,0.4-1.3,0.7-1.7c0.3-0.4,0.7-1.1,1.1-1.3c0,0-0.1,0.2-0.1,0.5
						c0,0-0.5,0.4-0.8,1.1c-0.3,0.7-0.5,1.1-0.5,1.3c-0.1,0.2,0.1,0.2,0.1,0c0.1-0.2,0.3-0.9,0.5-1.3c0.2-0.4,0.6-0.9,0.8-1
						c0,0,0.1,0.2,0.1,0.3c0,0-0.9,0.9-1.2,2.1c-0.3,1.2-0.6,3-0.4,5c0.1,2,1.1,4.4,1.8,5.6c0.7,1.3,2.8,3.9,3.6,4.5
						c0,0-1.2-0.6-2.5-1.9c-1.4-1.3-2.3-2.5-3.1-4.1c-1.6-3.2-1.9-7.8-0.4-11c0.8-1.7,2.4-3.5,4.5-2.5c0,0-1-0.2-1.8,0
						c-0.8,0.2-1.7,1-2,1.7c-0.4,0.7-0.6,1.2-0.7,1.6c-0.2,0.4-0.3,1-0.3,1.1c0,0.1,0.1,0.2,0.1,0c0-0.2,0.2-1,0.4-1.3
						c0.2-0.4,0.6-1.4,1.2-2c0.6-0.7,1.4-1,2.1-1c0.7,0,1.1,0.2,1.3,0.2c0,0,0.1,0.1,0.2,0.4c0,0-0.6-0.3-1.4-0.3
						c-0.8,0.1-1.4,0.4-1.9,0.9c-0.5,0.5-0.7,0.9-1.1,1.8s-0.4,1.2-0.4,1.3c0,0.1,0.1,0.2,0.1,0c0-0.1,0.3-1,0.4-1.3
						c0.1-0.4,0.5-1.1,0.9-1.6c0.5-0.5,0.8-0.8,1.5-1c0.7-0.1,1.5,0,1.8,0.3C59.9,54.8,60,54.9,59.9,55.2L59.9,55.2z M59.6,55.7
						c0,0,0.1-0.5-0.2-0.8c0,0,0.4,0.2,0.4,0.4C59.9,55.3,59.9,55.5,59.6,55.7L59.6,55.7z M59.1,56.1c0,0,0.4-0.9-0.4-1.3
						c0,0,0.6-0.1,0.8,0.6C59.6,56,59.1,56.1,59.1,56.1L59.1,56.1z M58.2,54.8c-0.4,0-0.8,0.3-0.8,0.9c0,0.6,0.5,1.2,1.3,1.2
						c0.8,0,1.5-0.5,1.7-1c0.2-0.4,0.4-1.3,0.1-1.9c-0.3-0.6-0.9-1-1.5-1.2c-0.6-0.1-1.7,0-2.6,0.5c-0.9,0.5-1.7,1.6-2.2,2.7
						c-2.1,5.2-0.7,12.1,3.7,15.8c1.6,1.3,3.7,2.6,4.4,2.9c0,0,0.4,0.1,0.7,0.1c0.3,0,0.7-0.1,0.7-0.1c0.7-0.3,2.8-1.6,4.4-2.9
						c4.4-3.7,5.8-10.5,3.7-15.8c-0.5-1.2-1.3-2.2-2.2-2.7c-0.9-0.5-2-0.7-2.6-0.5c-0.6,0.1-1.2,0.6-1.5,1.2
						c-0.3,0.6-0.1,1.4,0.1,1.9c0.2,0.4,0.9,1,1.7,1c0.8,0,1.3-0.7,1.3-1.2c0-0.6-0.4-0.8-0.8-0.9c-0.5,0-0.8,0.3-0.8,0.7
						c-0.1,0.4,0.4,0.8,0.3,0.8c0,0-0.1,0.1-0.7-0.2c-0.5-0.2-1.3-1.4-0.3-2.3c0.4-0.3,0.8-0.5,1.3-0.5c2.7,0,4,3.3,4.3,5.4
						c0.4,2.5,0.1,4.7-0.3,6.3c-0.4,1.6-1.5,3.5-2.1,4.3c-0.6,0.8-1.7,2.1-3.3,3.3c-1.6,1.2-3.3,1.9-3.3,1.9s-1.7-0.7-3.3-1.9
						c-1.6-1.2-2.7-2.5-3.3-3.3c-0.6-0.8-1.7-2.7-2.1-4.3c-0.4-1.6-0.7-3.9-0.3-6.3c0.4-2.2,1.7-5.5,4.3-5.4c0.4,0,0.9,0.1,1.3,0.5
						c1,0.8,0.2,2-0.3,2.3c-0.5,0.2-0.7,0.2-0.7,0.2c0,0,0.4-0.4,0.3-0.8C59,55.2,58.7,54.8,58.2,54.8L58.2,54.8z M63,55.4
						c0,0-0.3,0-0.4-0.2c-0.2-0.2-0.2-0.2-0.2-0.3c0-0.1-0.1-0.1-0.1,0c0,0.1,0,0.1-0.1,0.2c-0.1,0.1-0.1,0.1-0.1,0.1
						c-0.1,0,0-0.1,0-0.1c0-0.1,0-0.2,0-0.3c0-0.1-0.1-0.1-0.1,0c0,0.1,0,0.3-0.1,0.4c-0.1,0.1-0.1,0.2-0.2,0.2c-0.1,0,0-0.1,0-0.2
						c0-0.1,0-0.3,0-0.4c0-0.1-0.1-0.1-0.1,0c0,0.1-0.1,0.4-0.1,0.5c0,0.1-0.1,0.2-0.1,0.2c-0.1,0.1-0.2,0.1-0.1,0
						c0.1-0.1,0.1-0.4,0.1-0.6s0-0.2,0-0.2c-0.1,0-0.1,0.1-0.1,0.2c0,0.1-0.1,0.4-0.1,0.6c-0.1,0.2-0.1,0.2-0.2,0.2
						c-0.1,0.1-0.1,0,0-0.1c0-0.1,0.1-0.4,0.1-0.6c0-0.2,0-0.2,0-0.3c0-0.1-0.1-0.1-0.1,0c0,0.1,0,0.3,0,0.4c0,0.1-0.1,0.5-0.2,0.6
						c-0.1,0.1-0.2,0.2-0.3,0.3c-0.1,0.1-0.1,0,0-0.1c0-0.1,0.3-0.5,0.3-0.8c0-0.4,0-0.6,0-0.9c-0.1-0.3-0.3-0.7-0.4-0.8
						c-0.1-0.1-0.2-0.1,0-0.1c0.2,0.1,1.8,0.7,1.8,0.8c0,0,0,0.2,0,0.2c0.1,0,0.1-0.1,0.2-0.2c0.1-0.1,0.3-0.3,0.5-0.2
						c0.2,0,0.4,0.1,0.5,0.2c0.1,0.1,0.1,0.2,0.2,0.2c0.1,0,0-0.2,0-0.2c0,0,1.6-0.7,1.8-0.8c0.2-0.1,0.1,0,0,0.1
						c-0.1,0.1-0.3,0.5-0.4,0.8c-0.1,0.3-0.1,0.5,0,0.9c0.1,0.4,0.3,0.8,0.3,0.8c0,0.1,0,0.1,0,0.1c-0.1-0.1-0.2-0.1-0.3-0.3
						c-0.1-0.1-0.2-0.5-0.2-0.6c0-0.1,0-0.4,0-0.4c0-0.1-0.1,0-0.1,0c0,0.1,0,0.1,0,0.3c0,0.2,0.1,0.5,0.1,0.6c0,0.1,0.1,0.2,0,0.1
						c-0.1-0.1-0.1-0.1-0.2-0.2c-0.1-0.2-0.1-0.4-0.1-0.6c0-0.1,0-0.2-0.1-0.2c-0.1,0,0,0.1,0,0.2s0.1,0.5,0.1,0.6
						c0.1,0.1,0,0.1-0.1,0c-0.1-0.1-0.1-0.1-0.1-0.2c0-0.1-0.1-0.4-0.1-0.5c0-0.1-0.1-0.1-0.1,0c0,0.1,0,0.3,0,0.4
						c0,0.1,0.1,0.2,0,0.2c-0.1,0-0.1-0.1-0.2-0.2c-0.1-0.1-0.1-0.3-0.1-0.4c0-0.1-0.1-0.1-0.1,0c0,0.1,0,0.2,0,0.3
						c0,0.1,0.1,0.1,0,0.1c-0.1,0-0.1,0-0.1-0.1c-0.1-0.1-0.1-0.1-0.1-0.2c0-0.1-0.1-0.1-0.1,0c0,0.1-0.1,0.1-0.2,0.3
						C63.3,55.4,63,55.4,63,55.4L63,55.4z M63,51.5c-0.4,0-1,0-1.6,0c0.7-0.1,1.3-0.1,1.6-0.1c0.3,0,1,0,1.6,0.1
						C64,51.5,63.4,51.5,63,51.5L63,51.5z M63,51.8c-0.6,0-1.8,0-2.9-0.2c0.2-0.1,0.5-0.1,0.7-0.1c0.9,0.1,1.7,0.1,2.2,0.1
						c0.5,0,1.3,0,2.2-0.1c0.3,0,0.5,0.1,0.7,0.1C64.9,51.8,63.6,51.8,63,51.8L63,51.8z M63,52.2c-0.7,0-2.4,0-3.6-0.3
						c0.1-0.1,0.3-0.1,0.4-0.1c1.1,0.2,2.5,0.2,3.2,0.2c0.6,0,2,0,3.2-0.2c0.2,0,0.3,0.1,0.4,0.1C65.5,52.2,63.8,52.2,63,52.2
						L63,52.2z M63,52.5c-0.8,0-2.8,0-3.9-0.4c0.1-0.1,0.1-0.1,0.2-0.1c1.2,0.4,3,0.4,3.7,0.4c0.8,0,2.6,0,3.7-0.4
						c0.1,0,0.1,0.1,0.2,0.1C65.9,52.5,63.8,52.5,63,52.5L63,52.5z M63,52.9c-0.8,0-3,0-4.1-0.5c0,0,0,0,0-0.1c0-0.1,0-0.2,0.1-0.2
						c1.1,0.5,3.2,0.5,4,0.5c0.8,0,2.9,0,4-0.5c0.1,0.1,0.1,0.1,0.1,0.2c0,0,0,0,0,0.1C66.1,52.9,63.9,53,63,52.9L63,52.9z M63,53.3
						c0,0-3.4-0.1-4-0.7c1.1,0.4,3.2,0.5,4,0.5c0.8,0,2.9,0,4-0.5C66.5,53.3,63,53.3,63,53.3L63,53.3z M63,50.9c0,0-1.3,0-2.3,0.2
						c-1,0.1-1.8,0.6-2,0.8c-0.2,0.2-0.2,0.6,0.3,0.8c0,0-0.5-0.3-0.1-0.7c0.4-0.3,1.4-0.6,2.1-0.7c0.7-0.1,1.4-0.1,2-0.1
						c0.6,0,1.3,0,2,0.1c0.7,0.1,1.7,0.4,2.1,0.7c0.4,0.3-0.1,0.7-0.1,0.7c0.5-0.2,0.5-0.6,0.3-0.8c-0.2-0.2-1-0.7-2-0.8
						C64.4,50.9,63,50.9,63,50.9L63,50.9z M58.4,51.4c-0.1,0-0.2,0-0.3-0.1C58,51.2,58,51,58.1,51c0-0.1,0.2-0.2,0.2-0.1
						c0,0,0.1,0.1,0.1,0.1C58.5,51.1,58.5,51.3,58.4,51.4L58.4,51.4z M63,49.4c0,0-1.1,0-1.8,0.1c-0.6,0.1-1.5,0.2-2.2,0.5
						c-0.7,0.3-0.8,0.6-0.8,0.6c0,0,0,0,0.2,0.1c0.1,0.1,0.2,0.2,0.2,0.5c0,0.2-0.1,0.3-0.2,0.3c0,0,0,0.1,0,0.1c0,0,0,0,0.1,0
						c0.1,0,0.7-0.5,1.7-0.7c1-0.2,2.1-0.3,2.7-0.3c0.6,0,1.7,0.1,2.7,0.3c1,0.2,1.7,0.6,1.7,0.7c0.1,0,0.1,0,0.1,0c0,0,0-0.1,0-0.1
						c0,0-0.2-0.1-0.2-0.3c0-0.2,0.1-0.4,0.2-0.5c0.1-0.1,0.2,0,0.2-0.1c0,0-0.1-0.3-0.8-0.6c-0.7-0.3-1.6-0.4-2.2-0.5
						C64.2,49.4,63,49.4,63,49.4L63,49.4z M63,50.6h-0.6l-0.3-0.3v-0.5l0.3-0.3H63h0.6l0.3,0.3v0.5l-0.3,0.3H63L63,50.6z M59.8,50.1
						c-0.1,0-0.8,0.3-0.8,0.3c0,0-0.1,0.1-0.1,0.2c0,0.1,0.1,0.3,0.1,0.3c0,0.1,0.1,0.1,0.1,0.1c0,0,0.8-0.2,0.9-0.3
						c0.1,0-0.1-0.1-0.1-0.1c0,0-0.1,0-0.1,0c0,0-0.6,0.2-0.6,0.2c0,0-0.1-0.1-0.1-0.1c0.1,0,0.7-0.2,0.8-0.3c0,0,0.1-0.1,0.1-0.1
						c0-0.1,0-0.2,0-0.3c0,0,0.1-0.1,0.1,0c0,0.1,0,0.2,0,0.4c0,0.1,0.1,0.1,0.2,0c0-0.1,0-0.3-0.1-0.4c0,0-0.1-0.1-0.2-0.1
						C59.9,50,59.9,50,59.8,50.1L59.8,50.1z M59.8,50c0,0-0.8,0.3-0.9,0.3c-0.1,0.1-0.1,0.2-0.1,0.3c0,0.1,0,0.3,0.1,0.4
						c0,0.1,0.2,0.1,0.2,0.2c0.1,0,0.5-0.1,0.7-0.2c0.1,0,0.4-0.1,0.4-0.1c0,0,0.1-0.2,0.1-0.2c0,0,0-0.4-0.1-0.5
						C60.2,50,59.9,49.9,59.8,50L59.8,50z M61.6,50c-0.1,0-0.1,0.1-0.1,0.1c0,0.1,0.1,0.1,0.1,0.1c0.1,0,0.1-0.1,0.1-0.1
						C61.7,50,61.6,50,61.6,50L61.6,50z M61.1,49.7c-0.1,0-0.1,0.1-0.1,0.1c0,0.1,0.1,0.1,0.1,0.1c0.1,0,0.1-0.1,0.1-0.1
						C61.2,49.7,61.2,49.7,61.1,49.7L61.1,49.7z M61.2,50.4c-0.1,0-0.1,0.1-0.1,0.1c0,0.1,0.1,0.1,0.1,0.1c0.1,0,0.1-0.1,0.1-0.1
						C61.3,50.4,61.2,50.4,61.2,50.4L61.2,50.4z M60.7,50c-0.1,0-0.1,0.1-0.1,0.1c0,0.1,0.1,0.1,0.1,0.1c0.1,0,0.1-0.1,0.1-0.1
						C60.9,50.1,60.8,50,60.7,50L60.7,50z M61.2,50.3c-0.1,0-0.2,0.1-0.2,0.2c0,0.1,0.1,0.2,0.2,0.2c0.1,0,0.2-0.1,0.2-0.2
						C61.4,50.4,61.3,50.3,61.2,50.3L61.2,50.3z M61.6,49.9c-0.1,0-0.2,0.1-0.2,0.2c0,0.1,0.1,0.2,0.2,0.2c0.1,0,0.2-0.1,0.2-0.2
						C61.8,50,61.7,49.9,61.6,49.9L61.6,49.9z M61.1,49.6c-0.1,0-0.2,0.1-0.2,0.2c0,0.1,0.1,0.2,0.2,0.2c0.1,0,0.2-0.1,0.2-0.2
						C61.3,49.7,61.2,49.6,61.1,49.6L61.1,49.6z M60.7,49.9c-0.1,0-0.2,0.1-0.2,0.2c0,0.1,0.1,0.2,0.2,0.2c0.1,0,0.2-0.1,0.2-0.2
						C60.9,50,60.9,49.9,60.7,49.9L60.7,49.9z M62.5,50.2c0,0-0.1,0.1-0.1,0.2c0,0-0.1,0-0.1,0c0,0,0-0.1,0-0.1
						C62.4,50.3,62.6,50.2,62.5,50.2L62.5,50.2z M63,50.4c0,0-0.3,0-0.4,0c-0.1,0,0-0.1,0-0.1c0,0,0-0.1,0.1-0.1c0.1,0,0.3,0,0.3,0
						s0.2,0,0.3,0c0.1,0,0.1,0,0.1,0.1s0.1,0.1,0,0.1C63.4,50.4,63,50.4,63,50.4L63,50.4z M63,49.6h-0.5l-0.2,0.2v0.4l0.2-0.1v-0.4
						c0,0,0.1-0.1,0.1,0c0,0,0,0.3,0,0.4c0,0.1,0,0.1,0.1,0.1c0,0,0.4,0,0.4,0s0.3,0,0.4,0c0,0,0.1,0,0.1-0.1c0-0.1,0-0.4,0-0.4
						c0.1-0.1,0.1,0,0.1,0v0.4l0.2,0.1v-0.4l-0.2-0.2H63L63,49.6z M63,48.9c-0.5,0-1.3,0-2,0.1c-0.7,0.1-1.7,0.4-2.2,0.6
						c-0.5,0.2-0.8,0.5-1,0.7c-0.1,0.2,0,0.4,0,0.4c0.1,0,0.1-0.1,0.1-0.1c0-0.1,0.2-0.4,1-0.8c0.9-0.4,2-0.5,2.6-0.5
						c0.5,0,1.2-0.1,1.4-0.1c0.2,0,0.8,0,1.4,0.1c0.5,0,1.7,0.2,2.6,0.5c0.9,0.4,1,0.7,1,0.8c0,0.1,0.1,0.1,0.1,0.1
						c0.1,0,0.2-0.2,0-0.4c-0.1-0.2-0.5-0.5-1-0.7c-0.5-0.2-1.5-0.5-2.2-0.6C64.3,49,63.5,48.9,63,48.9L63,48.9z M63,46.2
						c0,0-0.7,0.4-1,1.5c0,0-0.5-0.8-1.1-1c0,0-0.4,0.4-0.6,1.2c0,0-0.6-0.6-1.1-0.6c0,0-0.2,0.2-0.3,1.2c0,0-0.7-0.4-1.2-0.3
						c0,0-0.2,0.3,0,1.2c0,0-0.6-0.3-1.2,0c0,0,0.8,0.3,1.2,1c0,0,0.4-0.5,0.8-0.6l-0.3-0.7l0.5,0.7c0,0,0.7-0.3,1.2-0.4l-0.4-1
						l0.6,1c0,0,0.7-0.2,1.1-0.2l-0.2-1.2l0.4,1.2c0,0,1.3-0.1,1.4-0.1l0.1-1.6l0.1,1.6c0.2,0,1.4,0.1,1.4,0.1l0.4-1.2l-0.2,1.2
						c0.4,0,1.1,0.2,1.1,0.2l0.6-1l-0.4,1c0.5,0.1,1.2,0.4,1.2,0.4l0.5-0.7l-0.3,0.7c0.4,0.2,0.8,0.6,0.8,0.6c0.5-0.7,1.2-1,1.2-1
						c-0.5-0.3-1.2,0-1.2,0c0.1-0.9,0-1.2,0-1.2c-0.5-0.1-1.2,0.3-1.2,0.3c-0.1-1-0.3-1.2-0.3-1.2c-0.5,0-1.1,0.6-1.1,0.6
						c-0.1-0.9-0.5-1.2-0.5-1.2c-0.6,0.2-1.1,1-1.1,1C63.7,46.6,63,46.2,63,46.2L63,46.2z M61.9,44.3c0,0-0.1,0.1-0.3,0.3
						c0.1,0,0.1,0,0.1,0.1C61.9,44.5,61.9,44.4,61.9,44.3L61.9,44.3z M61.5,44.6c-0.1,0.1-0.3,0.2-0.4,0.3c0.1,0,0.2,0.1,0.3,0.1
						c0.1-0.1,0.3-0.2,0.4-0.3C61.7,44.7,61.6,44.7,61.5,44.6L61.5,44.6z M61,45c-0.2,0.1-0.4,0.1-0.6,0.2c0.1,0.1,0.2,0.2,0.2,0.2
						c0.2-0.1,0.4-0.2,0.6-0.3C61.2,45.1,61,45,61,45L61,45z M60.3,45.2c-0.1,0-0.2,0-0.3,0.1c-0.1,0-0.2,0-0.3,0
						c0.1,0.1,0.2,0.2,0.3,0.2c0.2,0,0.4-0.1,0.6-0.1C60.4,45.4,60.3,45.3,60.3,45.2L60.3,45.2z M59.5,45.4c-0.3,0-0.5,0.1-0.6,0.1
						c0.1,0.1,0.2,0.2,0.3,0.3c0.2,0,0.5-0.1,0.7-0.1C59.7,45.5,59.6,45.4,59.5,45.4L59.5,45.4z M58.7,45.4c-0.3,0-0.5,0-0.7,0.1
						c0.1,0.1,0.2,0.2,0.2,0.3c0.2,0,0.5-0.1,0.7-0.1C58.9,45.6,58.8,45.5,58.7,45.4L58.7,45.4z M57.9,45.5c-0.1,0-0.1,0-0.2,0
						c-0.2,0-0.3,0.1-0.4,0.1c0.1,0.1,0.2,0.3,0.3,0.4c0.1-0.1,0.3-0.2,0.5-0.2C58.1,45.8,58,45.6,57.9,45.5L57.9,45.5z M57.2,45.8
						c-0.2,0.1-0.4,0.3-0.4,0.5c0.1,0.1,0.4,0.2,0.6,0.3c0-0.2,0.1-0.3,0.2-0.4C57.5,46.1,57.3,45.9,57.2,45.8L57.2,45.8z
						 M56.8,46.4c0,0.1,0,0.2,0,0.2c0,0.2,0.1,0.4,0.1,0.6c0.1,0,0.4,0,0.6-0.1c-0.1-0.1-0.1-0.3-0.1-0.4c0,0,0-0.1,0-0.1
						C57.2,46.6,56.9,46.5,56.8,46.4L56.8,46.4z M56.9,47.4c0.1,0.2,0.1,0.3,0.2,0.3c0,0.1,0.1,0.2,0.2,0.3c0.1,0,0.2,0,0.3,0
						c0.1-0.1,0.2-0.1,0.2-0.2c0,0-0.2-0.2-0.3-0.5C57.4,47.3,57.1,47.4,56.9,47.4L56.9,47.4z M57.4,48.1c0.1,0.1,0.1,0.2,0.1,0.2
						s0-0.1,0-0.2L57.4,48.1L57.4,48.1z M62,44l-0.2,0c0,0-0.4,0.4-1.3,0.7c-0.9,0.2-2.2,0.3-2.5,0.3c-0.4,0-1.1,0.1-1.6,0.6
						c-0.5,0.5-0.6,1.2-0.1,2.2c0.5,1,0.7,1.2,0.7,1.2s0.4-0.1,0.6,0.1c0,0,0-0.3,0-0.5c0,0-0.8-0.9-0.9-1.5c-0.1-0.7,0-1.1,0.6-1.4
						c0.6-0.3,1.6-0.3,1.9-0.3c0.4,0,1.4-0.2,1.8-0.4C61.4,44.6,61.8,44.2,62,44L62,44z M62.4,44c-0.1,0.2-0.2,0.6-0.2,0.9
						c0,0.3,0.1,0.5,0.2,0.8c0.1,0.3,0.1,0.6,0.1,0.6l-0.1,0.2c0,0-0.1-0.5-0.2-0.8c-0.1-0.3-0.2-0.5-0.2-0.7c0-0.2,0.2-0.8,0.3-1
						c0.1-0.1,0.1-0.2,0.1-0.2c0,0,0,0,0.1,0c0,0,0.1,0,0.1,0.1C62.5,43.9,62.5,44,62.4,44L62.4,44z M62.9,44.2L62.6,44
						c0,0-0.3,0.4-0.3,0.9c0,0.5,0.3,0.8,0.3,1.3l0.4-0.3c0,0-0.4-0.1-0.4-0.4c0-0.3,0-0.4,0.2-0.5c0.2-0.1,0.2-0.1,0.1-0.1
						c-0.1,0-0.3-0.1-0.3-0.3C62.6,44.3,62.6,44.3,62.9,44.2L62.9,44.2z M63,44c0,0-0.4-0.1-0.5-0.2c-0.2-0.2-0.3-0.3-0.3-0.4
						c0-0.1-0.1-0.1-0.1,0c0,0.1,0.1,0.2,0.1,0.3c0,0,0,0.1-0.1,0.1c0,0-0.4,0.2-0.7-0.1c0,0,0.4-0.1,0.5-0.4c0.1-0.2,0-0.6,0.2-0.8
						c0.2-0.2,0.6-0.3,0.9,0c0.2-0.3,0.7-0.2,0.9,0c0.2,0.2,0.1,0.5,0.2,0.8c0.1,0.2,0.5,0.4,0.5,0.4c-0.3,0.4-0.7,0.1-0.7,0.1
						c0,0-0.1,0-0.1-0.1c0,0,0.1-0.2,0.1-0.3c0-0.1-0.1-0.1-0.1,0c0,0.1-0.1,0.2-0.3,0.4C63.4,43.9,63,44,63,44L63,44z M66.1,55.2
						c0,0,0.3-0.5,1.1-0.6c0.8-0.1,1.4,0.4,1.7,0.7c0.3,0.3,0.8,0.9,1,1.5c0.3,0.6,0.5,1.3,0.5,1.5c0,0.1-0.1,0.2-0.1,0.1
						c0-0.1-0.4-1.3-0.7-1.7c-0.3-0.4-0.7-1.1-1.1-1.3c0,0,0.1,0.2,0.1,0.5c0,0,0.5,0.4,0.9,1.1c0.3,0.7,0.5,1.1,0.5,1.3
						c0.1,0.2-0.1,0.2-0.1,0c-0.1-0.2-0.2-0.9-0.5-1.3c-0.2-0.4-0.6-0.9-0.8-1c0,0,0,0.2-0.1,0.3c0,0,0.9,0.9,1.1,2.1
						c0.3,1.2,0.6,3,0.4,5c-0.1,2-1.1,4.4-1.8,5.6c-0.7,1.3-2.8,3.9-3.6,4.5c0,0,1.2-0.6,2.5-1.9c1.4-1.3,2.3-2.5,3.1-4.1
						c1.6-3.2,1.9-7.8,0.4-11c-0.8-1.7-2.4-3.5-4.5-2.5c0,0,0.9-0.2,1.7,0c0.8,0.2,1.7,1,2,1.7c0.4,0.7,0.6,1.2,0.7,1.6
						c0.1,0.4,0.3,1,0.3,1.1c0,0.1-0.1,0.2-0.1,0c0-0.2-0.2-1-0.4-1.3c-0.2-0.4-0.6-1.4-1.2-2c-0.6-0.7-1.4-1-2.1-1
						c-0.7,0-1.1,0.2-1.3,0.2c0,0-0.1,0.1-0.2,0.4c0,0,0.6-0.3,1.4-0.3c0.8,0.1,1.4,0.4,1.9,0.9c0.5,0.5,0.7,0.9,1.1,1.8
						c0.4,0.9,0.4,1.2,0.4,1.3c0,0.1-0.1,0.2-0.1,0c0-0.1-0.3-1-0.4-1.3c-0.1-0.4-0.5-1.1-0.9-1.6c-0.5-0.5-0.9-0.8-1.5-1
						c-0.7-0.1-1.5,0-1.8,0.3C66.1,54.8,66.1,54.9,66.1,55.2L66.1,55.2z M66.4,55.7c0,0-0.1-0.5,0.2-0.8c0,0-0.4,0.2-0.4,0.4
						C66.2,55.3,66.2,55.5,66.4,55.7L66.4,55.7z M67,56.1c0,0-0.4-0.9,0.4-1.3c0,0-0.6-0.1-0.8,0.6C66.4,56,67,56.1,67,56.1L67,56.1
						z M67.6,51.4c0.1,0,0.2,0,0.3-0.1C68,51.2,68,51,68,51c0-0.1-0.2-0.2-0.2-0.1c0,0-0.1,0.1-0.1,0.1
						C67.5,51.1,67.5,51.3,67.6,51.4L67.6,51.4z M66.3,50.1c0.1,0,0.8,0.3,0.8,0.3c0,0,0.1,0.1,0.1,0.2c0,0.1-0.1,0.3-0.1,0.3
						c0,0.1-0.1,0.1-0.1,0.1c0,0-0.8-0.2-0.9-0.3c-0.1,0,0.1-0.1,0.1-0.1c0,0,0.1,0,0.1,0c0,0,0.6,0.2,0.6,0.2c0,0,0.1-0.1,0.1-0.1
						c-0.1,0-0.7-0.2-0.8-0.3c0,0-0.1-0.1-0.1-0.1c0-0.1,0-0.2,0-0.3c0,0-0.1-0.1-0.1,0c0,0.1,0,0.2,0,0.4c0,0.1-0.1,0.1-0.2,0
						c0-0.1,0-0.3,0.1-0.4c0,0,0.2-0.1,0.2-0.1C66.2,50,66.2,50,66.3,50.1L66.3,50.1z M66.3,50c0,0,0.8,0.3,0.9,0.3
						c0.1,0.1,0.1,0.2,0.1,0.3c0,0.1,0,0.3-0.1,0.4c0,0.1-0.1,0.1-0.2,0.2c-0.1,0-0.5-0.1-0.7-0.2c-0.1,0-0.4-0.1-0.4-0.1
						c0,0-0.1-0.2-0.2-0.2c0,0,0.1-0.4,0.1-0.5S66.1,49.9,66.3,50L66.3,50z M64.5,50c0.1,0,0.1,0.1,0.1,0.1c0,0.1-0.1,0.1-0.1,0.1
						c-0.1,0-0.1-0.1-0.1-0.1C64.4,50,64.4,50,64.5,50L64.5,50z M64.9,49.7c0.1,0,0.1,0.1,0.1,0.1c0,0.1-0.1,0.1-0.1,0.1
						c-0.1,0-0.1-0.1-0.1-0.1C64.8,49.7,64.9,49.7,64.9,49.7L64.9,49.7z M64.9,50.4c0.1,0,0.1,0.1,0.1,0.1c0,0.1-0.1,0.1-0.1,0.1
						c-0.1,0-0.1-0.1-0.1-0.1C64.8,50.4,64.8,50.4,64.9,50.4L64.9,50.4z M65.3,50c0.1,0,0.1,0.1,0.1,0.1c0,0.1-0.1,0.1-0.1,0.1
						c-0.1,0-0.1-0.1-0.1-0.1C65.2,50.1,65.2,50,65.3,50L65.3,50z M64.9,50.3c0.1,0,0.2,0.1,0.2,0.2c0,0.1-0.1,0.2-0.2,0.2
						c-0.1,0-0.2-0.1-0.2-0.2C64.7,50.4,64.8,50.3,64.9,50.3L64.9,50.3z M64.5,49.9c0.1,0,0.2,0.1,0.2,0.2c0,0.1-0.1,0.2-0.2,0.2
						c-0.1,0-0.2-0.1-0.2-0.2C64.3,50,64.4,49.9,64.5,49.9L64.5,49.9z M64.9,49.6c0.1,0,0.2,0.1,0.2,0.2c0,0.1-0.1,0.2-0.2,0.2
						c-0.1,0-0.2-0.1-0.2-0.2C64.7,49.7,64.8,49.6,64.9,49.6L64.9,49.6z M65.3,49.9c0.1,0,0.2,0.1,0.2,0.2c0,0.1-0.1,0.2-0.2,0.2
						c-0.1,0-0.2-0.1-0.2-0.2C65.1,50,65.2,49.9,65.3,49.9L65.3,49.9z M63.5,50.2c0,0,0.1,0.1,0.1,0.2c0,0,0.1,0,0.1,0
						c0,0,0.1-0.1,0-0.1C63.7,50.3,63.5,50.2,63.5,50.2L63.5,50.2z M64.1,44.3c0,0,0.1,0.1,0.3,0.3c-0.1,0-0.1,0-0.1,0.1
						C64.2,44.5,64.1,44.4,64.1,44.3L64.1,44.3z M64.5,44.6c0.1,0.1,0.3,0.2,0.4,0.3c-0.1,0-0.2,0.1-0.3,0.1
						c-0.1-0.1-0.3-0.2-0.4-0.3C64.4,44.7,64.4,44.7,64.5,44.6L64.5,44.6z M65.1,45c0.2,0.1,0.4,0.1,0.6,0.2
						c-0.1,0.1-0.2,0.2-0.2,0.2c-0.2-0.1-0.4-0.2-0.6-0.3C64.9,45.1,65,45,65.1,45L65.1,45z M65.8,45.2c0.1,0,0.2,0,0.3,0.1
						c0.1,0,0.2,0,0.3,0c-0.1,0.1-0.2,0.2-0.3,0.2c-0.2,0-0.4-0.1-0.6-0.1C65.6,45.4,65.7,45.3,65.8,45.2L65.8,45.2z M66.5,45.4
						c0.3,0,0.5,0.1,0.6,0.1c-0.1,0.1-0.2,0.2-0.3,0.3c-0.2,0-0.5-0.1-0.7-0.1C66.4,45.5,66.5,45.4,66.5,45.4L66.5,45.4z M67.3,45.4
						c0.3,0,0.5,0,0.7,0.1c-0.1,0.1-0.2,0.2-0.2,0.3c-0.2,0-0.5-0.1-0.7-0.1C67.2,45.6,67.3,45.5,67.3,45.4L67.3,45.4z M68.1,45.5
						c0.1,0,0.1,0,0.2,0c0.2,0,0.3,0.1,0.4,0.1c-0.1,0.1-0.2,0.3-0.3,0.4c-0.1-0.1-0.3-0.2-0.5-0.2C68,45.8,68.1,45.6,68.1,45.5
						L68.1,45.5z M68.8,45.8c0.2,0.1,0.4,0.3,0.4,0.5c-0.1,0.1-0.4,0.2-0.6,0.3c0-0.2-0.1-0.3-0.2-0.4
						C68.6,46.1,68.8,45.9,68.8,45.8L68.8,45.8z M69.3,46.4c0,0.1,0,0.2,0,0.2c0,0.2-0.1,0.4-0.2,0.6c-0.1,0-0.4,0-0.6-0.1
						c0.1-0.1,0.1-0.3,0.1-0.4c0,0,0-0.1,0-0.1C68.9,46.6,69.1,46.5,69.3,46.4L69.3,46.4z M69.1,47.4c-0.1,0.2-0.1,0.3-0.2,0.3
						c0,0.1-0.1,0.2-0.2,0.3c-0.1,0-0.2,0-0.3,0c-0.1-0.1-0.2-0.1-0.2-0.2c0,0,0.2-0.2,0.3-0.5C68.7,47.3,69,47.4,69.1,47.4
						L69.1,47.4z M68.7,48.1c-0.1,0.1-0.1,0.2-0.1,0.2s0-0.1,0-0.2L68.7,48.1L68.7,48.1z M64,44l0.2,0c0,0,0.4,0.4,1.3,0.7
						c0.9,0.2,2.2,0.3,2.5,0.3c0.4,0,1.1,0.1,1.6,0.6c0.5,0.5,0.6,1.2,0.1,2.2c-0.5,1-0.7,1.2-0.7,1.2s-0.4-0.1-0.6,0.1
						c0,0,0-0.3,0-0.5c0,0,0.8-0.9,0.9-1.5c0.1-0.7,0-1.1-0.6-1.4c-0.6-0.3-1.6-0.3-1.9-0.3c-0.4,0-1.4-0.2-1.8-0.4S64.2,44.2,64,44
						L64,44z M63.6,44c0.1,0.2,0.2,0.6,0.2,0.9c0,0.3-0.1,0.5-0.2,0.8c-0.1,0.3-0.1,0.6-0.1,0.6l0.1,0.2c0,0,0.1-0.5,0.2-0.8
						c0.1-0.3,0.2-0.5,0.2-0.7c0-0.2-0.2-0.8-0.3-1c-0.1-0.1-0.1-0.2-0.1-0.2c0,0,0,0-0.1,0c0,0-0.1,0-0.1,0.1
						C63.6,43.9,63.6,44,63.6,44L63.6,44z M63.1,44.2l0.3-0.2c0,0,0.3,0.4,0.3,0.9c0,0.5-0.3,0.8-0.3,1.3l-0.4-0.3
						c0,0,0.4-0.1,0.4-0.4c0-0.3,0-0.4-0.2-0.5c-0.1-0.1-0.2-0.1-0.1-0.1c0.1,0,0.3-0.1,0.3-0.3C63.5,44.3,63.4,44.3,63.1,44.2
						L63.1,44.2z"/>
					<path fill-rule="evenodd" clip-rule="evenodd" fill="#F1F1F2" d="M63,42.4c0,0,0.1-0.1,0.2-0.2c0-0.1,0.1-0.1,0.1-0.2
						c0,0,0,0,0,0c0,0,0,0,0,0c0,0,0,0.1-0.1,0.1c0.1,0,0.1,0,0.2,0c0,0,0-0.1,0-0.1c0,0,0,0,0,0c0,0,0,0,0,0c0,0,0,0.1,0,0.1
						c0,0,0.1,0,0.1,0c0.3-0.6,0-1.3-0.7-1.3c-0.4,0-0.8,0.3-0.8,0.7c0,0,0,0,0,0s0,0,0,0c0,0,0,0,0,0c0,0-0.1,0-0.1,0.1
						c0,0.1,0,0.1,0,0.2c0,0,0.1-0.1,0.1-0.1c0,0,0,0,0,0c0,0,0,0,0,0c0,0-0.1,0.1-0.1,0.1c0,0,0,0,0,0c0,0.1,0,0.1,0.1,0.2
						c0,0,0.1-0.1,0.1-0.1c0,0,0.1-0.1,0.1-0.1c0,0,0,0,0,0c0,0,0,0,0,0c0,0-0.1,0.1-0.1,0.1c0,0-0.1,0.1-0.1,0.1c0,0,0,0,0,0.1
						c0.1,0,0.1,0,0.2,0c0.1-0.1,0.2-0.2,0.2-0.2c0,0,0,0,0,0c0,0,0,0,0,0c0,0-0.1,0.1-0.2,0.2c0.1,0,0.2,0,0.2,0.1
						c0.1-0.1,0.2-0.2,0.2-0.3c0,0,0,0,0,0c0,0,0,0,0,0c0,0.1-0.2,0.2-0.2,0.3C63,42.3,63,42.4,63,42.4L63,42.4z M55.9,47.7
						c0,0,0.2,0.5,0.4,0.7c0,0-0.3,0.1-0.5-0.2C55.7,47.9,55.9,47.7,55.9,47.7L55.9,47.7z M55.9,45.9c0,0-0.2,0.4-0.1,1
						c0,0-0.4-0.2-0.3-0.5C55.5,46,55.9,45.9,55.9,45.9L55.9,45.9z M57.2,44.9c0,0-0.4,0-0.8,0.4c0,0,0-0.2,0.2-0.4
						C56.9,44.7,57.2,44.9,57.2,44.9L57.2,44.9z M59,44.7c0,0-0.6,0.1-0.8,0.1c0,0,0-0.3,0.4-0.4C58.9,44.4,59,44.7,59,44.7L59,44.7
						z M60.6,44.5c0,0-0.2,0.1-0.7,0.2c0,0,0-0.3,0.3-0.3C60.5,44.2,60.6,44.5,60.6,44.5L60.6,44.5z M63,45.8
						c-0.1,0-0.3-0.1-0.3-0.4c0-0.3,0.3-0.4,0.3-0.4c0,0,0.3,0,0.3,0.4C63.4,45.7,63.1,45.8,63,45.8L63,45.8z M63,44.8
						c0,0-0.3,0-0.3-0.2c0-0.2,0.3-0.2,0.3-0.2s0.3,0,0.3,0.2C63.3,44.7,63,44.8,63,44.8L63,44.8z M70.1,47.7c0,0-0.2,0.5-0.4,0.7
						c0,0,0.3,0.1,0.5-0.2C70.4,47.9,70.1,47.7,70.1,47.7L70.1,47.7z M70.2,45.9c0,0,0.2,0.4,0.1,1c0,0,0.4-0.2,0.3-0.5
						C70.6,46,70.2,45.9,70.2,45.9L70.2,45.9z M68.8,44.9c0,0,0.4,0,0.8,0.4c0,0,0-0.2-0.2-0.4C69.1,44.7,68.9,44.9,68.8,44.9
						L68.8,44.9z M67,44.7c0,0,0.6,0.1,0.8,0.1c0,0,0-0.3-0.4-0.4C67.1,44.4,67,44.7,67,44.7L67,44.7z M65.4,44.5
						c0,0,0.2,0.1,0.7,0.2c0,0,0-0.3-0.3-0.3C65.6,44.2,65.4,44.5,65.4,44.5L65.4,44.5z"/>
				</g>
				<g>
					<path fill-rule="evenodd" clip-rule="evenodd" d="M75.4,63.8c-0.1-0.3-0.3-0.3-0.4-0.3c-0.1,0.1-0.1,0-0.2-0.2
						c-0.1-0.2-0.2-0.2-0.3-0.2c-0.1,0-0.3,0.1-0.4,0.1c-0.2-0.1-0.5-0.3-0.7-0.1c-0.2,0.2,0,0.5,0,0.6c0.1,0.1-0.1,0.1-0.1,0.3
						c-0.1,0.1,0,0.2,0.2,0.4c0.1,0.2,0.1,0.2,0,0.3c-0.1,0.1-0.1,0.3,0,0.4c0.1,0.1,0.5,0.3,0.5,0.4c0,0.1-0.1,0.3,0,0.5
						c0.1,0.2,0.3,0.2,0.5,0.2c0.2,0,0.2,0,0.2,0.1c0,0.1,0,0.2,0.1,0.3c0.1,0.1,0.3,0,0.6,0.1c0.3,0,0.2,0.3,0.2,0.4
						c0,0.1-0.1,0.1-0.1,0.1c-0.1,0-0.2,0-0.3,0.1c-0.1,0.1-0.2,0.4-0.3,0.5c-0.1,0.2-0.2,0.1-0.2,0c0-0.1,0-0.1,0-0.2
						c0-0.1,0.1-0.6-0.1-0.9c-0.2-0.2-0.6-0.4-0.9-0.5c-0.4-0.1-0.4,0.2-0.4,0.4c0,0.2,0.1,0.8,0.4,1.1c0.3,0.3,0.7,0.2,0.6,0.2
						C74.1,67.9,74,68,74,68.1c0,0.1,0,0.3,0,0.5c0,0.2-0.1,0.3-0.2,0.3c-0.1,0-0.2-0.1-0.2-0.2c0-0.1,0-0.2,0.1-0.4
						c0-0.2-0.1-0.3-0.3-0.3c-0.2,0-0.1-0.1-0.1-0.4c0-0.3-0.2-0.2-0.3-0.1c-0.1,0-0.1,0.1-0.2-0.1c-0.1-0.2-0.2-0.5-0.4-0.5
						c-0.2,0.1-0.2,0.3-0.3,0.5c0,0.2,0,0.2-0.2,0.2c-0.1,0-0.2,0-0.3,0.2c0,0.1,0.1,0.3,0.1,0.4c0,0.1,0,0.1,0,0.1
						c-0.1,0-0.3,0-0.3,0.2c0,0.2,0.1,0.2,0.2,0.4c0.1,0.1,0.1,0.2,0,0.2c0,0.1-0.2,0.1-0.2,0.3c0,0.2,0.2,0.3,0.3,0.4
						c0.1,0.1,0.1,0.1,0.1,0.2c-0.1,0.1-0.1,0.2,0,0.4c0.1,0.1,0.5,0.4,0.5,0.5c0,0.1,0,0.3,0,0.3s-0.3,0.2-0.5,0.4
						c-0.2,0.2-0.7,0.5-0.8,0.6c-0.1,0-0.1,0-0.1,0c0,0,0,0,0-0.2c0-0.2,0.3-0.1,0.5-0.2c0.2-0.1,0.1-0.4,0-0.5
						c-0.1-0.1,0-0.2,0.1-0.3c0.1-0.2,0.1-0.3,0-0.3c-0.1-0.1-0.1-0.1-0.1-0.1c0-0.1,0.1-0.4-0.1-0.5c-0.2-0.1-0.3,0.1-0.5,0.2
						c-0.1,0.2-0.2,0.1-0.3,0c-0.1,0-0.2-0.1-0.3,0C70,70.2,70,70.2,70,70.5c0,0.2-0.1,0.3-0.2,0.4c-0.2,0-0.4,0-0.5,0.1
						c-0.1,0.1-0.1,0.3-0.1,0.6c0,0.3-0.1,0.2-0.3,0.3c-0.2,0.1-0.1,0.3-0.1,0.7c0,0.4-0.1,0.4-0.4,0.5c-0.3,0.2-0.9,0.4-1.4,0.6
						c-0.5,0.2-0.9,0.3-1.4,0.6c-0.5,0.3-1.2,0.8-1.2,0.8l0.8,0.1c0,0,0.7-0.5,1-0.6c0.2-0.1,1.3-0.6,1.6-0.6
						c0.3-0.1,1.5-0.4,1.7-0.4c0.2,0,0.3,0,0.3,0.1c0.1,0.1-0.1,0.2,0.1,0.6c0.2,0.4,0.5,0.5,0.6,0.5c0.2,0.1,0.7,0.1,0.8,0
						c0.1-0.1,0.1-0.5,0-0.6c0-0.1-0.2-0.4-0.5-0.6c-0.3-0.2-0.9-0.1-0.9-0.1s0.2-0.1,0.4-0.2C70.5,73,70.7,73,71,73
						c0.3,0,0.4,0.4,0.4,0.7c0.1,0.4,0.3,0.4,0.5,0.4c0.1,0,0.1,0,0.2,0.1c0,0.1,0,0.1,0.1,0.4c0.1,0.3,0.4,0.2,0.5,0.2
						c0.1-0.1,0.1-0.1,0.2,0c0,0,0.2,0.2,0.3,0.4c0.2,0.2,0.5,0.1,0.6,0C73.9,75,73.9,75,74,75c0.1,0,0.3,0.2,0.5,0
						c0.2-0.2-0.1-0.5-0.2-0.6c-0.1-0.1,0-0.2,0-0.4c0-0.2-0.3-0.3-0.5-0.3c-0.1,0-0.2-0.1-0.2-0.1c0,0,0.1-0.2,0-0.3
						c-0.1-0.2-0.5-0.2-0.7-0.2c-0.2,0-0.2,0-0.2-0.1c0-0.1-0.1-0.1-0.2-0.2c-0.1,0-0.4,0-0.8,0c-0.4,0-0.8-0.1-0.8-0.1
						c0.2-0.1,0.9-0.6,1.1-0.7c0.2-0.1,0.2,0,0.2,0c0,0.4,0.5,0.8,0.7,0.8c0.2,0,1,0.1,1.2-0.2c0.1-0.3-0.4-0.8-0.7-1
						c-0.3-0.1-0.7-0.1-0.7-0.1c0.1-0.2,0.4-0.3,0.7-0.3c0.3,0,0.4,0.4,0.5,0.6C74,72,74.1,72,74.2,72c0.1,0,0.1,0,0.2,0
						c0,0.1,0.1,0.2,0.3,0.4c0.2,0.2,0.5,0.1,0.5,0c0,0,0.1-0.1,0.1,0c0.1,0.1,0.2,0.3,0.4,0.3c0.1,0,0.2-0.1,0.2-0.2
						c0-0.1,0.1-0.1,0.3,0c0.2,0.1,0.4,0.1,0.4,0c0-0.1,0-0.1,0.1-0.2c0.1,0,0.4,0.1,0.5-0.1c0.1-0.2-0.1-0.3-0.1-0.4
						c-0.1-0.1,0.1-0.1,0-0.2c0-0.1-0.1-0.2-0.3-0.3c-0.2-0.1-0.2-0.1-0.2-0.1c0-0.1,0.1-0.2,0-0.3c-0.1-0.2-0.3-0.2-0.5-0.2
						c-0.2,0-0.1-0.1-0.1-0.2c0-0.1-0.1-0.2-0.2-0.2c-0.1-0.1-0.4,0-0.4,0c0-0.1,0-0.2,0-0.3c0-0.1,0-0.1,0.2-0.1c0.1,0,0.3,0,0.5,0
						c0.2,0,0.2-0.2,0.2-0.3c0-0.1,0.2,0,0.4,0c0.2,0,0.3-0.2,0.4-0.3c0-0.1,0.2-0.1,0.5-0.1c0.4,0,0.5-0.3,0.4-0.4
						c-0.1-0.1,0-0.1,0.3-0.2c0.3-0.1,0.2-0.4,0.1-0.5c-0.1-0.1,0-0.2,0.2-0.5c0.2-0.2,0.2-0.4,0.1-0.5c0-0.1-0.2-0.2-0.5-0.1
						c-0.3,0.1-0.2,0-0.3-0.1c-0.1-0.1-0.3,0-0.4,0.2c-0.2,0.2-0.2,0.1-0.3,0c-0.1-0.1-0.1-0.1-0.2,0c-0.1,0-0.2,0.2-0.2,0.2
						c0,0,0.2-0.4,0-0.6c-0.2-0.2-0.7,0.1-0.7,0.1l0.1-0.2c0,0,0.2-0.2,0.4-0.3c0.2-0.1,0.6-0.1,0.8,0c0.3,0,0.5,0.1,0.6-0.1
						c0.1-0.2,0.2-0.1,0.6-0.1c0.4,0,0.4-0.2,0.4-0.3c0-0.1,0-0.2,0.2-0.2s0.4-0.2,0.3-0.3c0-0.2-0.2-0.1,0-0.4
						c0.2-0.3,0.1-0.5,0-0.6c-0.1-0.1,0.1-0.5,0-0.7c-0.2-0.2-0.5,0-0.6,0.2c-0.1,0.1-0.2,0.3-0.4,0.2c-0.1-0.1-0.3,0-0.4,0.2
						c-0.1,0.1-0.1,0-0.4,0.1c-0.2,0-0.3,0.4-0.4,0.6c-0.1,0.2-0.2,0.1-0.3,0.1c-0.2,0-0.2,0.2-0.2,0.7c-0.1,0.4-0.4,0.6-0.4,0.6
						c0.1-0.1,0.3-0.8,0.3-1c0.1-0.2,0.4-0.5,0.6-0.7c0.2-0.2,0.3-0.3,0.2-0.4c-0.1-0.1-0.1-0.1-0.1-0.2c0-0.1,0.2-0.1,0.6,0
						c0.4,0,0.5-0.2,0.6-0.4c0.1-0.2,0.5-0.1,0.8-0.2c0.3-0.1,0.3-0.4,0.2-0.6c-0.1-0.1,0-0.2,0.3-0.4c0.3-0.2,0.3-0.5,0.2-0.6
						c-0.1-0.1-0.2-0.1-0.1-0.2c0.2-0.1,0.2-0.4,0.1-0.5c-0.1-0.1-0.1-0.1-0.1-0.2c0-0.1,0.2-0.5,0-0.6c-0.2-0.1-0.4,0-0.6,0.2
						c-0.1,0.2-0.1,0.2-0.3,0.1c-0.2-0.1-0.4,0.2-0.5,0.4c-0.1,0.1-0.2,0-0.4,0c-0.2,0-0.2,0.3-0.3,0.4c-0.1,0.1-0.2,0.1-0.4,0.1
						c-0.2,0-0.2,0.4-0.2,0.4c0-0.2-0.1-0.3-0.3-0.3c-0.1,0-0.2,0-0.2,0l0.2-0.2c0.7,0,1-0.3,1.1-0.4c0.1-0.1,0.4-0.9,0.1-1.1
						c-0.3-0.3-0.8,0-1.1,0.3C77,60.2,77.1,61,77.1,61l-0.1,0.2c0,0,0-0.4,0-0.7s0.1-0.5,0.3-0.7c0.2-0.2,0.5-0.3,0.8-0.4
						c0.3-0.1,0.2-0.3,0.2-0.3c0,0-0.1-0.1,0-0.2c0.1,0,0.2-0.1,0.6-0.3c0.3-0.2,0.1-0.4,0-0.5c-0.2-0.1,0-0.2,0.2-0.4
						c0.2-0.2,0.1-0.4-0.1-0.5c-0.2,0,0-0.1,0.1-0.5c0.1-0.3,0-0.6-0.3-0.5c-0.3,0.1-0.3-0.3-0.4-0.6c-0.1-0.4-0.8-0.6-0.8,0
						c0,0.6-0.3,0.6-0.3,0.6s-0.1-0.4-0.3-0.4c-0.2,0-0.6,0.3-0.7,0.7C76,56.7,76,57,76,57c-0.2-0.3-0.1-1,0-1.4
						c0.1-0.4,0-0.6-0.2-0.6c-0.2,0-0.1-0.2-0.1-0.6c0-0.4-0.1-0.5-0.4-0.5c-0.3,0.1-0.2-0.3-0.2-0.5c0-0.3-0.3-0.3-0.5-0.2
						c-0.2,0.1-0.2-0.1-0.2-0.3c-0.1-0.2-0.2-0.2-0.3-0.2c-0.1,0-0.2,0.2-0.4,0.1c-0.2-0.1-0.7-0.3-0.8-0.1
						c-0.1,0.1,0.1,0.6,0.2,0.8c0.1,0.2,0,0.1-0.1,0.3c-0.1,0.1,0,0.3,0.2,0.5c0.2,0.2-0.1,0.2-0.1,0.4c-0.1,0.2,0.4,0.5,0.5,0.6
						c0.1,0,0.1,0.1,0.1,0.1c0,0.1-0.1,0.1-0.1,0.3c0,0.2,0.3,0.3,0.5,0.4c0.2,0,0.1,0.1,0.1,0.2c0,0.1,0.1,0.2,0.6,0.3
						c0.4,0.1,0.8,0.3,1,0.5c0.1,0.2,0.2,0.6,0.4,0.9c0.1,0.3,0.3,1.1,0.3,1.4c0.1,0.3,0.1,0.8,0.1,0.8s-0.2-0.2-0.3-0.3
						c0-0.1-0.1-0.3-0.1-0.7c0-0.4-0.1-0.4-0.2-0.4c-0.1-0.1-0.1-0.1-0.1-0.2c0-0.1,0-0.6-0.1-0.9c-0.1-0.3-0.4-0.3-0.5-0.2
						c-0.1,0.1-0.1,0.1-0.2,0c0-0.1-0.1-0.1-0.1-0.3c-0.1-0.2-0.3-0.1-0.4,0c-0.1,0.1-0.1,0.1-0.2,0c0,0-0.1-0.1-0.2-0.2
						c-0.1-0.1-0.3-0.1-0.3-0.1c-0.1,0-0.2,0.1-0.2,0.1c-0.1,0-0.5-0.2-0.6-0.1c-0.1,0.2,0.1,0.4,0.2,0.6c0.1,0.1,0,0.2-0.1,0.4
						c-0.1,0.2,0.3,0.4,0.4,0.4c0.1,0,0.1,0,0.1,0.1c0,0.1-0.2,0.2-0.1,0.3c0.1,0.2,0.3,0.2,0.5,0.2c0.1,0,0.1,0,0.1,0.2
						c0,0.1,0,0.2,0.1,0.4c0.1,0.2,0.5,0.2,0.6,0.1c0.1,0,0.2,0,0.2,0c0,0.1,0,0.3,0.1,0.3c0.1,0.1,0.4,0,0.8,0.1
						c0.4,0.1,0.7,0.5,0.7,0.6c0,0,0.1,0.3,0.1,0.4c0,0.1-0.2,0-0.3,0.1c-0.1,0.1-0.1,0.2-0.1,0.4c0,0.2-0.1,0.1-0.2,0
						c0-0.1-0.1-0.3-0.1-0.5c-0.1-0.1-0.1-0.1-0.3-0.2c-0.2,0-0.2-0.2-0.2-0.4c0-0.2-0.2-0.3-0.3-0.2c-0.1,0-0.3,0-0.4-0.1
						c-0.1-0.1-0.3-0.3-0.4-0.4c-0.1-0.1-0.3-0.1-0.4,0c-0.1,0.1-0.2,0.1-0.3,0c-0.2-0.1-0.4-0.1-0.5,0c-0.1,0.1-0.1,0.3,0.1,0.5
						c0.2,0.2,0,0.3,0,0.5c0,0.2,0.3,0.4,0.4,0.5c0.1,0.1,0,0.2-0.1,0.4c0,0.2,0.2,0.5,0.5,0.5c0.3,0,0.4,0.1,0.4,0.2
						c0,0.1-0.1,0.2,0.1,0.4c0.2,0.1,0.7,0.1,0.8,0c0.1,0,0.1,0,0.1,0c0,0-0.1,0.1-0.1,0.2c0,0.2,0.2,0.4,0.2,0.5
						c0,0.1,0.1,0.1,0,0.1C75.6,63.6,75.4,63.7,75.4,63.8L75.4,63.8z M75.5,64.3c0,0-0.1-0.1-0.1-0.2C75.4,64.1,75.4,64.3,75.5,64.3
						L75.5,64.3z M76.5,57.8c0.1,0.1,0.1,0.3,0.2,0.4c0.1,0.1,0.1,0.1,0,0.2s-0.1,0.2-0.1,0.3c0,0.1,0.2,0.5,0.2,0.7
						c0,0.2-0.1,0.4-0.1,0.4s-0.2-0.9-0.2-1.1c-0.1-0.3-0.1-0.4-0.1-0.5C76.4,58.1,76.5,57.9,76.5,57.8L76.5,57.8z M76.2,57.5
						l0.1,0.2l0.1-0.1C76.4,57.6,76.3,57.6,76.2,57.5L76.2,57.5z M68.7,73.1l0.5-0.1c0,0-0.1-0.1-0.3,0C68.8,73,68.7,73.1,68.7,73.1
						L68.7,73.1z M75.7,66.6c0,0,0.4-0.9,0.4-1.2c0.1-0.3,0.2-0.3,0-0.5c-0.2-0.2-0.4-0.4-0.4-0.4s-0.1,0.2-0.1,0.4
						c0,0.2,0,0.1,0.1,0.2c0.1,0,0.1,0.2,0.1,0.2c0,0.1,0,0.3-0.1,0.6C75.8,66.2,75.7,66.3,75.7,66.6L75.7,66.6z M73.2,71
						c0,0,0.3-0.3,0.4-0.3c0.1,0,0.2,0,0.2,0s-0.3,0.3-0.4,0.3C73.3,71.1,73.3,71,73.2,71L73.2,71z M72.7,70.9l0.5-0.5
						c0,0-0.4,0.2-0.4,0.3C72.7,70.7,72.6,70.8,72.7,70.9L72.7,70.9z M70.3,72.5c0,0,0.3-0.2,0.3-0.2s-0.2-0.1-0.3,0
						C70.2,72.4,70.3,72.5,70.3,72.5L70.3,72.5z"/>
					<path fill-rule="evenodd" clip-rule="evenodd" fill="#658D5C" d="M68.9,72.7c0,0,0-0.6,0-0.7c0-0.1,0.2-0.1,0.3-0.2
						c0.1-0.1,0.1-0.4,0.1-0.6c0.1-0.2,0.2-0.3,0.4-0.3c0.2,0,0.3-0.2,0.4-0.3c0-0.1,0-0.4,0.1-0.4c0.1-0.1,0.3,0.1,0.4,0.1
						c0.1,0,0.3-0.1,0.4-0.3c0.1-0.2,0.3-0.1,0.3,0.1c0,0.2-0.1,0.3,0,0.4c0.1,0.1,0.2,0.2,0.1,0.3c-0.1,0.2-0.2,0.2-0.1,0.3
						c0.1,0.1,0.2,0.3,0,0.4c-0.2,0.1-0.5,0.1-0.5,0.2c0,0.1,0,0.3-0.2,0.3c-0.2,0.1-0.4,0-0.5,0.1c-0.1,0.1,0.1,0.3-0.1,0.4
						c-0.1,0.1-1,0.1-1,0.1s0.8-0.6,1.2-1.1c0.4-0.4,0.8-1.2,0.8-1.2l0,0c0,0-0.7,1-0.8,1.1C70.1,71.7,69.1,72.6,68.9,72.7
						L68.9,72.7z M75.7,56.5c0,0,0-0.5,0.1-0.8c0.1-0.3,0.1-0.4,0-0.5c-0.1-0.1-0.3,0-0.3-0.1c0-0.1,0.1-0.6,0-0.7s-0.1-0.2-0.3-0.2
						c-0.2,0-0.3,0-0.3-0.2c0-0.1,0-0.4-0.1-0.5c-0.1-0.1-0.3,0.1-0.4,0c-0.1-0.1-0.2-0.4-0.3-0.5c-0.1,0-0.2,0.1-0.4,0.1
						c-0.1,0-0.5-0.4-0.7-0.2c-0.2,0.2,0.1,0.6,0.2,0.7c0,0.1,0.1,0.1,0,0.2c-0.1,0.1-0.2,0.2-0.1,0.3c0.1,0.1,0.3,0.3,0.2,0.4
						c-0.1,0.1-0.2,0.3,0,0.4c0.2,0.1,0.6,0.3,0.5,0.5c-0.1,0.2-0.1,0.3,0.1,0.4c0.2,0.1,0.4,0.1,0.4,0.3c0,0.2,0.2,0.3,0.4,0.3
						c0.2,0.1,0.5,0.1,0.7,0.2c0.2,0.1,0.3,0.2,0.3,0.2s-0.5-1.2-1-1.9c-0.4-0.7-1.1-1.5-1.1-1.5l0.2,0.1c0,0,0.8,0.9,1,1.2
						C75.1,55.2,75.7,56.5,75.7,56.5L75.7,56.5z M76.1,59.6c0,0,0-0.4,0-0.5c0-0.1,0-0.2-0.1-0.3c-0.1-0.1-0.2-0.1-0.3-0.4
						c0-0.3,0-0.6-0.1-0.8c-0.1-0.2-0.2-0.3-0.3-0.2c-0.1,0.1-0.3,0.1-0.3,0c-0.1-0.2-0.1-0.4-0.2-0.4c-0.1,0-0.3,0.1-0.3,0.1
						c-0.1,0-0.3-0.3-0.4-0.3c-0.1,0-0.2,0.2-0.3,0.2c-0.1,0-0.4-0.2-0.4-0.1c-0.1,0.1,0.1,0.4,0.1,0.5c0,0.1,0,0.2,0,0.3
						c-0.1,0.1-0.1,0.1,0,0.2c0.1,0.1,0.3,0.2,0.4,0.2c0.1,0.1,0.1,0.1,0,0.2c-0.1,0.1-0.1,0.2,0,0.2c0.1,0,0.4,0.1,0.4,0.1
						c0.1,0.1,0,0.2,0,0.2c0,0.1,0,0.2,0.2,0.3c0.2,0.1,0.5,0.1,0.6,0.1c0.1,0,0.2,0.1,0.2,0.2c0,0.1-0.1,0.2,0.3,0.2
						c0.4,0,0.6,0.2,0.6,0.2s-0.7-1-1.1-1.5c-0.4-0.5-1.3-1.2-1.3-1.2l0.2,0c0,0,0.9,0.6,1.3,1C75.5,58.9,76.1,59.6,76.1,59.6
						L76.1,59.6z M77,59.5c0-0.2,0-0.4-0.1-0.6c-0.1-0.2-0.1-0.3,0-0.4c0.1-0.1,0.2-0.2,0.1-0.4c-0.1-0.2-0.2-0.4-0.3-0.5
						c0,0,0.3-0.1,0.5-0.4c0.2-0.3,0.2-0.3,0.1-0.5c0-0.2,0-0.5,0-0.5s0.3,0,0.4-0.3c0.1-0.3,0.1-0.5,0.2-0.5c0.2,0,0.4,0.2,0.4,0.5
						c0.1,0.2,0.1,0.4,0.3,0.4c0.2,0,0.3,0,0.3,0.1c0,0.2-0.2,0.5-0.2,0.6c-0.1,0.1-0.1,0.2,0.1,0.2c0.1,0,0.3,0.1,0.1,0.3
						c-0.2,0.2-0.2,0.2-0.2,0.3c-0.1,0.1-0.1,0.1,0,0.2c0.1,0.1,0.2,0.2,0,0.3c-0.2,0.1-0.5,0.3-0.6,0.3C78,58.8,78,58.9,78,58.9
						c0,0.1,0.1,0.2,0,0.2c-0.1,0-0.7,0.3-0.8,0.4c0,0,0.5-1.1,0.6-1.7c0.1-0.6,0.2-1.5,0.2-1.5l-0.1-0.1c0,0-0.1,1.1-0.2,1.6
						C77.6,58.3,77,59.5,77,59.5L77,59.5z M75.8,62c0-0.2,0-0.3,0.1-0.4c0.1-0.1,0-0.3,0-0.4c0-0.1-0.1-0.3-0.3-0.3
						c-0.2,0-0.2,0-0.2-0.2c0-0.2-0.1-0.5-0.2-0.5c-0.2,0-0.3,0-0.4-0.1c-0.1-0.1-0.4-0.4-0.5-0.4c-0.1,0-0.2,0-0.3,0.1
						c-0.1,0-0.2-0.1-0.4-0.1c-0.1,0-0.3-0.1-0.3,0.1c0,0.1,0.1,0.4,0.1,0.4c0,0.1,0,0.1,0,0.3c0,0.1,0,0.3,0.1,0.4
						c0.1,0.1,0.2,0.3,0.2,0.5c0,0.2-0.1,0.4,0.3,0.6c0.3,0.1,0.4,0.1,0.5,0.2c0.1,0.1-0.1,0.3,0.1,0.3c0.1,0.1,0.8,0.1,1.2,0
						c0,0,0-0.2,0-0.3c-0.1-0.1-0.5-0.8-0.9-1.2c-0.3-0.4-1.2-1-1.2-1l0.1,0c0,0,0.9,0.7,1.1,0.9C75.3,61.3,75.8,62,75.8,62L75.8,62
						z M77.5,63.7l0.2-0.4c0,0,0.8-0.7,1.1-1.1c0.3-0.4,0.8-1.1,0.8-1.1l0-0.1c0,0-0.7,1-0.8,1.1c-0.1,0.2-0.9,0.9-0.9,0.9
						s0.1-0.4,0-0.5c-0.1-0.1-0.3-0.1-0.3-0.1c0,0,0-0.1,0-0.3c0-0.2,0.1-0.4,0.2-0.5c0.1-0.1,0.2-0.1,0.3-0.1s0.1-0.1,0.2-0.2
						c0-0.1,0.1-0.4,0.3-0.4c0.2,0,0.3,0.1,0.4-0.1c0.1-0.1,0.1-0.3,0.3-0.3c0.2,0,0.3,0.1,0.4-0.1c0.1-0.2,0.2-0.2,0.4-0.2
						c0.1,0,0,0.4,0,0.5c0,0.1,0,0.1,0,0.2c0.1,0.1,0.1,0.1,0,0.3c-0.1,0.1-0.2,0.3-0.2,0.4c0.1,0.1,0.3,0.2,0.1,0.4
						c-0.2,0.2-0.3,0.3-0.4,0.4c-0.1,0.1-0.1,0.2-0.1,0.2c0,0.1,0.1,0.3-0.1,0.4c-0.2,0.1-0.7,0.1-0.8,0.2c-0.1,0.1-0.1,0.3-0.2,0.3
						C78.3,63.6,77.9,63.7,77.5,63.7L77.5,63.7z M76.7,65.1c0,0,0.4-0.5,0.5-0.7c0.2-0.2,0.3-0.2,0.2-0.3c-0.1-0.1-0.1-0.2,0-0.4
						c0.1-0.2,0.3-0.6,0.3-0.8c0-0.2,0-0.4-0.1-0.4c-0.2,0-0.2-0.1-0.2-0.2c0-0.2,0-0.4,0-0.6c0-0.1-0.1-0.2-0.2-0.1
						c-0.1,0.1-0.2,0-0.3-0.1c-0.1-0.1-0.3-0.3-0.4-0.3c-0.1,0-0.1,0.1-0.2,0.3c0,0.2-0.1,0.2-0.2,0.2c-0.1,0-0.3,0.1-0.2,0.3
						c0,0.2,0,0.4,0,0.6c0,0.1,0,0.2-0.1,0.2c-0.2,0-0.4,0.1-0.3,0.3c0.1,0.2,0.2,0.4,0.3,0.5c0,0.1,0.1,0.2-0.1,0.2
						c-0.1,0-0.3,0-0.2,0.3c0.1,0.2,0.3,0.5,0.4,0.6c0.1,0.1,0.4,0.3,0.4,0.4c0.1,0.1,0.1,0.3,0.1,0.3s0.2-1.3,0.3-1.9
						c0-0.6,0-1.5,0-1.5l0,0.1c0,0,0.1,0.7,0.1,1.4C76.8,64,76.7,65.1,76.7,65.1L76.7,65.1z M76.8,66.1c0,0,0.3,0,0.6,0
						c0.2,0,0.5,0.1,0.5,0c0-0.1,0-0.2,0.1-0.2c0.1,0,0.4,0,0.6,0c0.2,0,0.3-0.2,0.2-0.2c0-0.1,0-0.1,0.1-0.2c0.1,0,0.5-0.1,0.5-0.2
						c0-0.1-0.1-0.1-0.1-0.2c0-0.1,0.3-0.4,0.3-0.6c-0.1-0.2-0.2,0-0.2-0.3c0-0.3,0.1-0.5,0-0.5c-0.1,0-0.4,0.2-0.5,0.3
						c-0.1,0.1-0.2,0.1-0.3,0.1c-0.1,0-0.2,0-0.2,0.1c-0.1,0.1-0.2,0.3-0.3,0.2c-0.1,0-0.3-0.1-0.4,0.1c-0.1,0.2-0.2,0.4-0.2,0.5
						C77.5,65,77.3,65,77.2,65c-0.1,0-0.2,0-0.2,0.1c0,0.1-0.1,0.7-0.3,0.9c0,0,1-0.6,1.3-0.9c0.3-0.3,1-1.1,1-1.1l0,0.1
						c0,0-0.7,0.9-0.9,1.1C77.9,65.4,76.8,66.1,76.8,66.1L76.8,66.1z M73.6,71l0.4-0.4c0,0,0.3,0,0.5,0c0.2,0,0.4,0,0.5,0
						c0.1,0,0.2-0.2,0.5-0.2c0.2,0,0.2,0.3,0.2,0.3c0,0.1,0,0.1,0.2,0.1c0.2,0,0.4,0,0.4,0.3c0,0.2,0,0.2,0.1,0.3
						c0.1,0.1,0.4,0.1,0.3,0.3c-0.1,0.1,0,0.2,0.1,0.3c0.1,0.1,0.2,0.3-0.1,0.3c-0.3,0-0.3,0-0.4,0.1c-0.1,0.1-0.3,0.1-0.4,0
						c-0.1-0.1-0.2-0.1-0.3,0c0,0.1-0.2,0.2-0.3,0.1c-0.1-0.2-0.2-0.3-0.3-0.2c-0.1,0.1-0.4,0.1-0.6-0.2c-0.1-0.2-0.2-0.4-0.3-0.3
						c-0.1,0.1-0.3,0-0.3-0.1c-0.1-0.1-0.2-0.4-0.4-0.5c0,0,1-0.1,1.6,0.1c0.6,0.2,1.2,0.7,1.2,0.7l-0.1-0.1c0,0-0.7-0.6-1.3-0.7
						C74.6,71,73.6,71,73.6,71L73.6,71z M73.7,70.4c0-0.1,0-0.6,0-0.8c0-0.2-0.1-0.4,0-0.5c0.1-0.1,0.3,0,0.4-0.1
						c0.1-0.1,0.1-0.7,0.1-0.8c0-0.2,0.1-0.2,0.4-0.2c0.3,0,0.3-0.1,0.4-0.3c0.1-0.1,0.2-0.5,0.4-0.4c0.3,0.1,0.3,0.2,0.5,0
						c0.2-0.1,0.6-0.5,0.8-0.4c0.2,0.1,0,0.5,0,0.7c0,0.1,0.1,0.2,0.1,0.3c0,0.1,0,0.2-0.1,0.3c-0.1,0.1-0.3,0.3-0.1,0.5
						c0.1,0.2,0.3,0.3,0,0.4s-0.6,0.1-0.5,0.4c0,0.3,0,0.5-0.3,0.4c-0.3,0-0.6-0.1-0.6,0.2c0,0.3,0,0.5-0.5,0.5c-0.5,0-1,0.1-1,0.1
						s1.1-1,1.6-1.6c0.5-0.6,1.1-1.6,1.1-1.6l0-0.1c0,0-0.9,1.3-1.3,1.7C74.8,69.3,73.7,70.4,73.7,70.4L73.7,70.4z M72.5,70.8
						c0-0.1-0.4-0.4-0.5-0.5C72,70.2,72,70.1,72,70c0.1-0.1,0.1-0.2-0.1-0.3c-0.1-0.1-0.4-0.3-0.3-0.5c0.1-0.2,0.2-0.3,0.1-0.4
						c-0.1-0.2-0.2-0.3,0-0.4c0.2,0,0.3-0.1,0.2-0.3c-0.1-0.2-0.2-0.4,0-0.4c0.2,0,0.2,0,0.3-0.2c0-0.2,0.1-0.4,0.2-0.4
						c0.1,0,0.2,0.3,0.3,0.4c0.1,0.1,0.2,0.2,0.3,0.1c0.1,0,0.2-0.1,0.2,0.1c0,0.2,0,0.4,0.1,0.4c0.1,0,0.3,0,0.2,0.3
						c-0.1,0.2-0.1,0.3,0,0.4c0,0,0.1,0.1,0,0.2c-0.1,0.1,0,0.2-0.1,0.3c0,0.1-0.1,0.1-0.2,0.2c0,0.1,0.2,0.2,0.1,0.4
						c-0.1,0.1-0.7,0.5-0.8,0.7c0,0,0.1-1.1,0.1-1.6c0-0.5-0.2-1.5-0.2-1.5l0,0c0,0,0.1,1.3,0.1,1.6C72.6,69.5,72.5,70.8,72.5,70.8
						L72.5,70.8z"/>
					<path fill-rule="evenodd" clip-rule="evenodd" fill="#466343" d="M75.6,66.4c0-0.2,0.2-0.7,0.2-0.9c0.1-0.2,0-0.3-0.1-0.3
						c-0.1,0-0.2-0.1-0.1-0.3c0-0.2,0.1-0.5,0-0.5c-0.1,0-0.2,0-0.3-0.2c0-0.2,0-0.5-0.2-0.6c-0.2-0.1-0.2,0.1-0.3,0.1
						c-0.1,0-0.2-0.4-0.3-0.4c-0.1,0-0.3,0.1-0.4,0.1c-0.1,0-0.5-0.3-0.6-0.2c-0.1,0.1,0.1,0.4,0,0.5c0,0.1-0.2,0.2-0.2,0.3
						c0,0.1,0.3,0.4,0.3,0.5c0,0.1-0.2,0.2-0.2,0.4c0,0.2,0.5,0.4,0.5,0.6c0,0.2-0.1,0.3,0,0.4c0,0.1,0.7,0.2,0.7,0.2
						c0.1,0.1,0,0.2,0.1,0.3c0.1,0.1,0.5,0,0.7,0.1c0,0-0.2-1-0.6-1.6c-0.4-0.6-1.1-1.2-1.1-1.2l0.2,0.1c0,0,0.7,0.7,0.9,1.1
						C75.1,65.1,75.6,66.1,75.6,66.4L75.6,66.4z M71.3,73c0.1,0.1,0.1,0.3,0.2,0.5c0,0.2,0.1,0.4,0.3,0.4c0.2,0,0.3,0,0.4,0.2
						c0.1,0.2,0.1,0.6,0.3,0.6c0.2,0,0.2-0.1,0.4-0.1c0.1,0,0.2,0.3,0.5,0.4c0.2,0.1,0.3,0,0.5-0.1c0.2-0.1,0.4,0.1,0.6,0
						c0.1-0.1-0.1-0.3-0.2-0.4c-0.1-0.1-0.1-0.2-0.1-0.3c0.1-0.1,0.1-0.2-0.1-0.3c-0.2-0.1-0.6-0.1-0.5-0.3c0.1-0.2,0.1-0.2,0-0.3
						c-0.1-0.1-0.4-0.1-0.6-0.1c-0.2,0-0.2-0.1-0.2-0.1c0-0.1-0.1-0.1-0.3-0.1c-0.2,0-1,0-1,0s0.8,0.2,1.4,0.6c0.6,0.4,1,0.8,1,0.8
						l0,0.1c0,0-0.5-0.6-1.1-0.9C72.1,73.2,71.3,73,71.3,73L71.3,73z M76.7,68.4c0,0,0.2-0.3,0.2-0.5c0-0.1-0.1-0.2-0.2-0.3
						c0,0-0.1-0.1,0-0.2c0.1,0,0.2-0.1,0.2-0.2c0.1-0.1,0.1-0.1,0.2,0c0.1,0.1,0.2,0.1,0.3,0c0.1-0.1,0.2-0.2,0.3-0.2
						c0.1,0,0.1,0.1,0.2,0.2c0,0.1,0.2,0,0.3,0c0.1,0,0.2,0,0.3,0c0.1,0.1,0.1,0.1-0.1,0.5c-0.2,0.3-0.2,0.3-0.2,0.4
						c0,0.1,0.1,0.2,0.1,0.3c0,0.1-0.1,0.2-0.3,0.2c-0.2,0-0.3,0.1-0.3,0.2c0,0.1,0.1,0.3-0.2,0.3c-0.3,0-0.5,0-0.6,0.1
						s0,0.2-0.2,0.3c-0.1,0.1-0.5,0-0.5,0c-0.1,0-0.1-0.1,0-0.2c0.1,0,0.4-0.1,0.5-0.2c0.1-0.1,0.3-0.4,0-0.6c0,0,0.4-0.2,0.8-0.5
						c0.4-0.2,0.6-0.5,0.6-0.5l0-0.1c0,0-0.5,0.4-0.7,0.5C77.4,68.1,76.9,68.3,76.7,68.4L76.7,68.4z"/>
					<path fill-rule="evenodd" clip-rule="evenodd" fill="#F1BF31" d="M76.2,56.6c0,0,0.4,0.4,0.9,0.2c0,0,0-0.8-0.3-0.9
						C76.5,55.8,76.3,56.4,76.2,56.6L76.2,56.6z M70.3,74.3c0,0,0-0.4,0.6-0.6c0,0,0.5,0.5,0.2,0.8C71,74.7,70.4,74.4,70.3,74.3
						L70.3,74.3z M73,72.6c0,0-0.1-0.6,0.4-0.8c0.1,0,0.7,0.5,0.5,0.7C73.8,72.8,73.2,72.7,73,72.6L73,72.6z M73.5,67.3
						c0,0,0.5-0.2,0.7-0.7c-0.1-0.1-0.7-0.5-0.9-0.3C73.1,66.5,73.5,67.2,73.5,67.3L73.5,67.3z M77.5,60c0,0,0.1,0.5,0.7,0.6
						c0,0,0.4-0.6,0.2-0.9C78.1,59.4,77.5,60,77.5,60L77.5,60z"/>
					<path fill-rule="evenodd" clip-rule="evenodd" fill="#A48253" d="M76.2,56.7c0,0,0.3,0.3,0.9,0.2c0,0-0.3,0.7-0.6,0.6
						C76.2,57.4,76.2,56.7,76.2,56.7L76.2,56.7z M65.6,74.7l-0.5,0.1c0,0,1-0.6,1.8-0.9c0.8-0.3,1.4-0.4,2.2-0.6
						c0.8-0.2,1.5-0.6,2.1-0.9c0.6-0.3,1.7-1.3,2.4-2.1c0,0,0,0.2-0.2,0.4c-0.2,0.2-0.3,0.2-0.3,0.2l0.1,0c0,0-0.9,0.8-1.5,1.3
						c-0.7,0.4-1.6,1-2.3,1.1c-0.7,0.2-1.3,0.3-1.9,0.5C67,73.9,65.9,74.4,65.6,74.7L65.6,74.7z M69.7,73.3l0.2,0.1l0.1,0l-0.2-0.1
						L69.7,73.3L69.7,73.3z M76.3,57.9l0,0.1l0.1-0.3l-0.1,0L76.3,57.9L76.3,57.9z M76.8,61c0,0-0.1-1.1-0.2-1.4s-0.4-1.6-0.4-1.8
						c-0.1-0.2-0.3-0.8-0.3-0.8s0.2,0.7,0.2,0.9c0.1,0.2,0.4,1.4,0.4,1.7c0,0.3,0.2,1.2,0.2,1.4C76.7,61,76.8,61,76.8,61L76.8,61z
						 M77,61.2L77,61.2l0.2-0.1l-0.1-0.1L77,61.2L77,61.2z M75.6,67.2c0.1,0,0.2,0,0.3-0.1c0.2-0.3,0.5-1.1,0.5-1.5
						c0-0.1-0.1-0.2-0.1-0.3C76.2,65.9,75.9,66.5,75.6,67.2L75.6,67.2z M70.2,74.3c0,0,0.1-0.5,0.7-0.6c0,0-0.3-0.3-0.7-0.3
						C69.7,73.4,70,74.1,70.2,74.3L70.2,74.3z M72.9,72.6c0,0-0.1-0.7,0.4-1c0,0-0.7-0.1-0.9,0.2C72.3,72.2,72.9,72.6,72.9,72.6
						L72.9,72.6z M73.6,67.4c0,0,0.5-0.1,0.7-0.7c0,0,0.3,0.6,0.1,0.8C74.1,67.8,73.8,67.6,73.6,67.4L73.6,67.4z M77.4,60.1
						c0,0,0.1,0.6,0.8,0.7c0,0-0.6,0.5-0.9,0.3C77,60.7,77.4,60.1,77.4,60.1L77.4,60.1z"/>
				</g>
				<g>
					<path fill-rule="evenodd" clip-rule="evenodd" d="M52.8,52.6c0,0,0.3,1.3-0.2,2.3c-0.4,1-0.7,1.2-1.3,1.6
						c-0.6,0.5-0.9,0.7-1.1,1.2c-0.2,0.5-0.3,1-0.4,1.5c-0.1,0.5-0.2,1-0.2,1s0.2,0,0.4-0.5c0.2-0.5,0.5-1.3,0.8-1.9
						c0.4-0.6,1.3-1.4,1.5-1.6c0.2-0.2,0.4-0.4,0.4-0.4s0.3,1.3-0.2,2.4c-0.5,1.1-1.4,1.5-1.7,1.6c-0.3,0.1-1,0.5-1.1,0.5
						c-0.1,0.1-0.3,0.2-0.3,1l0.3-0.2c0,0,0.1,0.6,0.2,0.9c0,0,0.2-0.7,0.7-1.2c0.5-0.5,1.3-1.1,1.3-1.4c0,0,0.5,1.1,0.2,2.2
						c-0.3,1.1-1.3,1.9-1.8,2.2c0,0,0.2,0.7-0.1,1.4c-0.2,0.7-0.3,1-0.1,1.4c0.2,0.5,0.5,1.1,0.5,1.1s0.1-0.5-0.1-1.3
						c-0.2-0.8,0-1.5,0.2-1.9c0.2-0.3,0.7-1.2,0.9-1.4c0.2-0.2,0.3-0.5,0.3-0.5s0.2,0.2,0.4,1.3c0.2,1.1-0.1,1.8-0.3,2.3
						c-0.2,0.5-0.9,1.1-1,1.3c-0.1,0.2-0.2,0.4-0.1,0.7c0,0,0.1,0.1,0.3,0.3c-0.3-0.6,0.1-1.1,0.7-1c0,0,0.1-1.2,1-1.9
						c0,0,0.2,1,0.5,1.7c0.3,0.6,0.4,1.8-0.1,2.8c0,0,0.3,0.2,0.5,0.8c0.2,0.6,0.1,0.8,0.5,1.1c0.4,0.3,1.2,0.9,2.5,1.2
						c0,0,0-0.2-0.5-0.3c-0.5-0.2-1.2-0.4-1.5-0.8c-0.4-0.4-1-0.9-0.7-3c0,0,0.2,0.5,1,1c0.4,0.2,0.7,0.5,0.9,0.7
						c0.6,0.7,0.4,1.2,0.9,1.9c0.2,0.3,0.2,0.4,0.8,0.6c0.6,0.2,1.4,0.4,2,0.7c0.6,0.3,2.2,1.3,2.2,1.3l-1.6-0.3
						c0,0-0.6-0.5-1.5-0.8c-0.8-0.3-2.7-0.7-2.9-0.8l-0.1,0.1c0.6,0.9-0.5,1.4-1,0.8c-0.3-0.5,0.2-1.1,0.8-0.9l0-0.1
						c0,0-0.3-0.2-0.6-0.2c-0.3,0-0.5,0.1-0.9,0.5c-0.3,0.4-0.7,1-1.3,1.2c-0.5,0.2-1.7,0.5-2.8-0.2c0,0,0.4-0.1,0.8-0.5
						c0.4-0.3,1-1.1,1.8-1.2c0,0-0.3-0.3-0.2-0.6c0.1-0.4,0.5-0.5,0.5-0.5s-0.3-0.1-0.5-0.2c-0.1-0.1-1.3,1.2-3,0.6
						c-1.7-0.6-2-1.4-2-1.4s0.6-0.1,1-0.2c0.4-0.1,1.2-0.3,1.7-0.3c0.6,0,0.9,0.1,1.1,0.2c0,0-0.3-0.5-0.3-0.8c0,0-1.6,0.2-2.2,0.1
						c-0.7-0.1-2.3-0.8-2.7-2.7c0,0,0.9,0.3,1.2,0.3c0.4,0,1.5,0.2,2.2,0.7s1.4,1.2,1.4,1.3c0,0,0-0.2-0.1-0.3
						c-0.1-0.1-0.6-1.1-0.7-1.2c-0.1-0.1-0.3-0.3-0.5-0.4c-0.2-0.1-0.7-0.3-1.3-0.4c-0.7-0.1-1.5-0.3-2-0.9c-0.5-0.6-1-1.5-0.8-3.3
						c0,0,0.6,0.5,1.2,0.9c0.6,0.4,1.2,0.9,1.5,1.4c0.4,0.5,0.7,1.3,0.9,1.6c0.2,0.3,0.4,0.5,0.8,0.7c0,0-0.2-0.7-0.5-0.9
						c-0.3-0.2-1.1-1-1.1-2.2c0,0-0.9,0.2-0.9-0.6c0-0.3,0.2-0.6,0.5-0.6c0.2,0,0.4,0.1,0.5,0.1c0,0,0-0.2,0.1-0.3
						c0,0-1.6-0.3-2.2-1.4c-0.6-1.1-0.5-2.1-0.3-3.1c0,0,0.5,0.8,1.1,1.2c0.6,0.4,0.9,1.2,1.1,1.8c0.2,0.6,0.3,1.2,0.3,1.2
						s0.2-0.4,0.3-0.6c0,0,0.1-0.7,0.1-1c0-0.3-0.2-0.6-0.4-0.7c-0.2-0.2-1.3-1.1-1.4-2.2c-0.2-1.1,0.3-2.2,0.5-2.5
						c0.2-0.3,0.5-0.7,0.5-0.7s0.1,0.3,0.2,0.5c0.1,0.2,0.5,1.2,0.6,1.8c0,0,0.3-0.1,0.6,0.2c0.3,0.3,0.1,0.6-0.1,0.9
						c0,0,0,0.1,0.1,0.2c0,0,0.1-0.3,0.2-0.6s0.1-1,0.2-1.3c0.1-0.3,0.2-1.2,0.7-1.9C51.3,53.8,52.3,53,52.8,52.6L52.8,52.6z
						 M53.7,72.7c0,0,0.2-0.4,0-0.6c-0.2-0.2-0.2-0.3-0.1-0.2c0.1,0,0.4,0.3,0.6,0.4c0.2,0.1,0.5,0.4,0.6,0.4c0.1,0,0.1,0.1-0.1,0.1
						C54.6,72.8,54.2,72.7,53.7,72.7L53.7,72.7z M49.6,58.8c-0.1,0.3-0.1,0.5-0.2,0.8c-0.1,0.3-0.1,0.4-0.1,0.5c0,0.1,0,0.1-0.1,0.1
						c-0.1-0.1-0.1-0.3-0.1-0.6c0.1-0.3,0.1-0.8,0.1-1c0-0.2,0-0.3,0-0.3c0,0,0-0.1,0.1-0.1c0,0.1,0.1,0.2,0.1,0.3
						C49.7,58.5,49.7,58.6,49.6,58.8L49.6,58.8z M52.2,68.6c0,0.1,0.1,0.4,0.1,0.4c0,0.1,0,0.1,0,0c-0.1,0-0.5-0.3-0.7-0.5
						c-0.1-0.1,0-0.1,0.1-0.1c0,0,0.2,0,0.3,0C52.1,68.6,52.2,68.5,52.2,68.6L52.2,68.6z"/>
					<path fill-rule="evenodd" clip-rule="evenodd" fill="#658D5C" d="M50.3,57.3c0.2-0.2,0.9-0.8,1.2-1.1c0.3-0.3,0.8-0.8,1-1.7
						c0.2-0.9,0.1-1.5,0.1-1.5s-0.9,0.6-1.4,1.2c-0.5,0.6-0.7,1.1-0.8,1.5c-0.1,0.4-0.2,1.2-0.2,1.2s0.4-1,0.6-1.4
						c0.2-0.4,1-1.6,1.2-1.8l0.1-0.1c0,0-0.7,0.9-1.2,1.9C50.5,56.6,50.3,57.3,50.3,57.3L50.3,57.3z M56.8,72.6c0,0-0.1-0.4-0.3-0.9
						c-0.1-0.5-0.5-1.1-0.9-1.3c-0.4-0.3-1.1-0.7-1.3-1c0,0-0.2,0.9,0.1,1.6c0.3,0.7,0.9,1.2,1.3,1.4c0.4,0.2,0.8,0.3,0.8,0.3
						s-0.7-0.5-1.2-1.1c-0.5-0.6-0.7-1.1-0.7-1.1l0-0.1c0,0,0.4,0.7,0.8,1.2C56,72,56.8,72.6,56.8,72.6L56.8,72.6z M54.2,71.7
						c0,0-0.2-0.3-0.3-0.7c-0.1-0.4-0.1-0.6-0.4-0.9c-0.3-0.3-0.9-0.7-1.3-0.9s-0.7-0.4-0.9-0.6c0,0-0.1,0.8,0.1,1.5
						c0.3,0.7,0.7,1.1,0.9,1.2c0.2,0.2,1.3,0.5,1.9,0.6c-0.7-0.5-1.9-1.4-2.4-2.2l0-0.1C52.6,70.5,53.3,71.1,54.2,71.7L54.2,71.7z
						 M52.2,71.3c0,0-0.4-0.4-0.5-0.6c-0.1-0.2-0.6-0.3-1.1-0.4c-0.8,0-1.8,0.6-2.5,0.6c0,0,0.6,0.6,1.1,0.9
						c0.5,0.3,1.5,0.6,2.3,0.2c0.7-0.3,1.1-0.5,1.1-0.5s-0.1-0.1-0.2-0.1c-1.6,0.1-2,0.1-3.6-0.3l0-0.1C50,71.4,50.9,71.6,52.2,71.3
						L52.2,71.3z M51,69.3c0,0-1.2-1.2-1.8-1.4c-0.6-0.3-2.4-0.5-2.6-0.6c0,0,0.2,0.9,0.8,1.4c0.6,0.6,1.2,0.9,2.2,0.9
						c1,0,1.4-0.1,1.4-0.1s-1.9-0.5-2.6-0.9c-0.7-0.4-1.2-0.7-1.2-0.7l0-0.1c0,0,0.6,0.5,1.2,0.7C49,68.8,50.7,69.3,51,69.3L51,69.3
						z M49.3,66.8c0,0-0.6-1.2-0.9-1.6c-0.3-0.4-1.1-1.2-1.7-1.6c-0.6-0.3-0.9-0.6-0.9-0.6s-0.1,0.8,0.3,1.9
						c0.4,1.1,1.2,1.5,1.7,1.7c0.5,0.2,1.4,0.3,1.4,0.3s-1.2-0.7-1.7-1.4C47,64.9,46.4,64,46.4,64l0-0.2c0,0,0.8,1,1.1,1.5
						C47.9,65.7,48.9,66.6,49.3,66.8L49.3,66.8z M51.4,67.1c0,0,0.8-0.8,1-1.4c0.2-0.6,0.1-1.7-0.2-2.7c0,0-0.7,1-1,1.4
						c-0.2,0.4-0.4,1.1-0.3,1.7c0.1,0.6,0.2,1,0.2,1.4c0,0,0.4-0.8,0.7-1.9c0.3-1.1,0.4-1.5,0.4-1.9l0,0.1c0,0-0.1,0.8-0.3,1.8
						C51.6,66.7,51.4,67.1,51.4,67.1L51.4,67.1z M50.2,66.3c0,0-0.1-0.3,0-0.7c0.1-0.3,0.3-0.9,0.3-1.3c0-0.4,0-0.8-0.2-1.2
						c-0.2-0.4-0.5-1.5-0.5-1.7c0,0-1,0.7-1.1,2.3c-0.1,1.5,0.7,2.1,1.3,2.7c0,0-0.5-0.9-0.6-1.9c-0.1-1-0.1-1.9,0-2.2l0.1-0.1
						c0,0-0.2,1,0,2.2C49.7,65.6,50.2,66.3,50.2,66.3L50.2,66.3z M48.7,62.4c0,0-0.4-1.5-0.6-2c-0.3-0.5-1.1-1.2-1.3-1.4
						c-0.2-0.2-0.4-0.4-0.4-0.4s-0.2,1.2,0,2c0.2,0.8,1.1,1.4,1.3,1.5c0.2,0.1,0.9,0.3,0.9,0.3s-0.5-0.4-1.1-1.2
						C47,60.6,46.8,60,46.8,60l0-0.1c0,0,0.4,0.9,0.7,1.3C47.9,61.7,48.7,62.4,48.7,62.4L48.7,62.4z M49.1,59.9c0,0,0-0.4,0.1-0.8
						c0.1-0.4,0.1-0.7,0.1-1c0,0-0.5-0.1-0.6-0.6c0-0.5,0.4-0.6,0.4-0.6s-0.4-1.4-0.8-1.9c0,0-0.6,0.5-0.7,1.6
						c-0.2,1.1,0.2,1.9,0.4,2.2c0.3,0.4,1,1.1,1,1.1c-0.6-1.5-0.9-2.6-0.7-4.2l0.1-0.1C48.4,57.7,48.4,58.1,49.1,59.9L49.1,59.9z
						 M50.1,59.9c0,0,0.4-1,0.5-1.4c0.2-0.4,0.6-1.1,1-1.4c0.4-0.3,1.1-0.9,1.1-0.9s0,1.1-0.1,1.7c-0.2,0.6-0.5,1.1-1.1,1.5
						c-0.6,0.4-1.2,0.7-1.2,0.7s0.8-0.9,1.3-1.5c0.4-0.6,0.9-1.5,0.9-1.7l0-0.1c0,0-0.5,1.1-0.9,1.7C51,59.2,50.3,59.8,50.1,59.9
						L50.1,59.9z"/>
					<path fill-rule="evenodd" clip-rule="evenodd" fill="#466343" d="M50.4,62.9c0,0-0.2-0.5-0.2-0.7c0,0,0.2-0.5,0.5-0.9
						c0.3-0.4,0.5-0.5,0.8-0.8c0.3-0.2,0.6-0.4,0.7-0.7c0,0,0.4,1,0,1.9c-0.3,1-1.1,1.4-1.6,1.8c0,0-0.1-0.4-0.1-0.5
						c0.8-0.7,1.4-1.5,1.6-2.5l0-0.1C51.6,61.7,51.3,62,50.4,62.9L50.4,62.9z M54.6,72.9c0,0-0.6-0.1-1-0.1c0,0-0.2,0.2-0.4,0.2
						c-0.3,0-0.3-0.1-0.3-0.1s-0.6,0.2-1.1,0.6c-0.5,0.4-0.8,0.7-1.2,1c0,0,0.5,0.3,1.3,0.3c0.8,0,1.3-0.4,1.7-0.7
						c0.3-0.2,0.8-0.9,1-1c0,0-0.6,0.1-1.7,0.8c-1.1,0.6-1.6,0.6-1.6,0.6l-0.1,0c0,0,0.8-0.1,1.7-0.6C53.7,73.2,54.3,73,54.6,72.9
						L54.6,72.9z M52.8,69.4l-0.3-0.2c0,0-0.2-0.4-0.2-0.7c0.4-0.2,0.3-0.8-0.1-1.1c0,0,0.1-1.1,0.8-1.6c0,0,0.1,0.7,0.5,1.7
						c0.4,1,0,2.2-0.1,2.3c0,0-0.4-0.3-0.5-0.3c-0.3-1.2-0.2-1.9,0-3.1l-0.1,0.1C52.7,67.4,52.6,68.6,52.8,69.4L52.8,69.4z"/>
					<path fill-rule="evenodd" clip-rule="evenodd" fill="#F1BF31" d="M49.3,57.1c0.2,0,0.4,0.2,0.4,0.4c0,0.2-0.2,0.4-0.4,0.4
						c-0.2,0-0.4-0.2-0.4-0.4C48.9,57.3,49.1,57.1,49.3,57.1L49.3,57.1z M53.2,71.9c0.3,0,0.5,0.2,0.5,0.5c0,0.3-0.2,0.5-0.5,0.5
						c-0.3,0-0.5-0.2-0.5-0.5C52.7,72.1,52.9,71.9,53.2,71.9L53.2,71.9z M55.5,73.4c0.3,0,0.5,0.2,0.5,0.5c0,0.3-0.2,0.5-0.5,0.5
						c-0.3,0-0.5-0.2-0.5-0.5C55,73.6,55.2,73.4,55.5,73.4L55.5,73.4z M51.9,67.6c0.3,0,0.5,0.2,0.5,0.5c0,0.2-0.2,0.5-0.5,0.5
						c-0.2,0-0.5-0.2-0.5-0.5C51.5,67.8,51.7,67.6,51.9,67.6L51.9,67.6z M48.2,63c0.1,0,0.3,0.1,0.3,0.2c0,0.1,0,0.2,0,0.3
						c0,0.1,0,0.2,0,0.3c-0.1,0.1-0.2,0.1-0.3,0.1c-0.2,0-0.4-0.2-0.4-0.4S48,63,48.2,63L48.2,63z"/>
					<path fill-rule="evenodd" clip-rule="evenodd" fill="#A48253" d="M54.2,72c0,0,0.3,0.1,0.4,0.1c0.1,0.1,0.3,0.2,0.4,0.2
						c0,0,0.1,0,0.2,0c0.1,0,0.7,0.4,1.5,0.6c0.8,0.2,1.6,0.4,2.1,0.6c0.5,0.2,1.5,0.6,2.2,1.1c0,0-0.3,0-0.5-0.1
						c0,0-0.7-0.5-1.7-0.8c-1-0.3-1.2-0.3-1.8-0.5c-0.6-0.1-0.6-0.2-0.6-0.2S56.1,73,55.8,73c0,0-0.3-0.2-0.5-0.2
						c-0.2,0-0.4,0-0.4,0s0.1,0,0.1-0.1c0.1,0,0-0.1,0-0.2c-0.1,0-0.7-0.4-0.7-0.5C54.2,72.1,54.2,72.1,54.2,72L54.2,72z M49.4,61.6
						l0.1-0.1c0,0,0.1-0.9,0.1-1.4c0.1-0.5,0.4-1.9,0.5-2.1c0,0-0.1,0-0.1,0.2c0,0.1-0.1,0.3-0.1,0.3l-0.2-0.3l0,0l0.2,0.4
						c0,0-0.3,1.3-0.3,1.8c0,0,0.1,0.2,0,0.2c-0.1,0-0.1-0.1-0.1,0c0,0.1,0.1,0.1,0.1,0.3C49.4,61,49.4,61.6,49.4,61.6L49.4,61.6z
						 M55.9,73.3c0,0,0.1-0.2,0.1-0.2s0.1,0,0.1,0.1L55.9,73.3L55.9,73.3L55.9,73.3z M51.1,68.7c0,0,0.1-0.2,0.1-0.3
						c0,0-0.3-0.4-0.5-0.9c-0.2-0.5-0.4-1-0.4-1l-0.1,0c0,0,0.1,0.2,0,0.2c-0.1,0-0.1-0.1-0.1-0.1s-0.1,0,0,0.1c0,0.1,0.3,0.7,0.5,1
						C50.7,68.1,51,68.6,51.1,68.7L51.1,68.7z M49.5,67c0,0,0.2,0.1,0.4,0.2c0.1,0.1,0.4,0.2,0.4,0.2s0-0.1-0.1-0.2
						c0,0-0.3-0.1-0.4-0.1C49.7,67.1,49.6,67,49.5,67C49.6,67,49.5,67,49.5,67L49.5,67z"/>
				</g>
				<path fill-rule="evenodd" clip-rule="evenodd" d="M63,77.7c0,0,1.2,0,2.3-0.2c0,0-0.4,1,0.1,1.4c0.5,0.4,1,0.3,1.6,0.2
					c0.6-0.1,1.5-0.4,2.1-0.2c0.6,0.2,1.3,0.8,2.8,0.7c1.6,0,2.8-1.3,3-1.6c0.2-0.2,0.5-0.6,0-0.5c-0.4,0.1-1.5,0.2-1.6,0.2
					c-0.1,0-0.1,0,0-0.1c0.1-0.1,0.4-0.5,0.5-0.9c0.1-0.4,0.1-0.6-0.1-0.5c-0.1,0.1-0.7,0.4-1.3,0.5c-0.6,0.1-1.2,0.1-1.6-0.1
					c-0.4-0.2-1.1-0.4-1.2-0.4c0,0,0.2-0.9,0.2-1.2c0.1-0.3-0.1-0.8-0.7-0.9c-0.6-0.1-1.6,0-2.3,0.2c-0.8,0.2-1.8,0.4-2.4,0.5
					c-0.6,0.1-1.1,0.1-1.5,0.1c-0.5,0-1-0.1-1.5-0.1c-0.6-0.1-1.6-0.3-2.4-0.5c-0.8-0.2-1.7-0.3-2.4-0.2C56.2,74.2,56,74.7,56,75
					c0.1,0.3,0.2,1.2,0.2,1.2c-0.1,0-0.7,0.2-1.2,0.4c-0.4,0.2-1,0.3-1.6,0.1c-0.6-0.1-1.2-0.5-1.3-0.5c-0.1-0.1-0.2,0.1-0.1,0.5
					c0.1,0.4,0.5,0.9,0.5,0.9c0.1,0.1,0.1,0.1,0,0.1c-0.1,0-1.1,0-1.6-0.2c-0.4-0.1-0.2,0.3,0,0.5c0.2,0.2,1.5,1.5,3,1.6
					c1.6,0,2.2-0.5,2.8-0.7c0.6-0.2,1.5,0,2.1,0.2c0.6,0.1,1.2,0.2,1.7-0.2c0.5-0.4,0.1-1.4,0.1-1.4C61.8,77.7,63,77.7,63,77.7
					L63,77.7z"/>
				<path fill-rule="evenodd" clip-rule="evenodd" fill="#FFFFFF" d="M63,75.1c0,0,1.5,0,2.8-0.3c1.4-0.3,2-0.4,2.6-0.5
					c0.5,0,1.3,0,1.3,0.5c0.1,0.4-0.3,2.5-0.4,2.7c-0.1,0.2-0.1,0.4-0.8,0.3c-0.6-0.1-1.6-0.3-2.2-0.2c-0.5,0.1-0.7,0.3-0.8,0.7
					c0,0.4,0.5,0.5,1,0.5c0.5,0,1.2-0.2,1.6-0.3c0.4,0,1.2,0.1,1.4,0.2c0.2,0.1,0.2,0.1,0.3,0.1c0.1,0,0.1,0,0.1-0.1
					c-0.1,0-0.4-0.2-0.6-0.2c-0.3-0.1-0.8-0.2-1.2-0.1c-0.4,0.1-1.2,0.2-1.5,0.2c-0.4,0-0.6,0-0.7-0.2c0,0,0.3,0.1,0.5,0
					c0.2,0,1.1-0.2,1.4-0.3c0.3-0.1,0.9-0.1,1.2,0c0.3,0.1,0.8,0.2,0.9,0.3c0.1,0.1,0.1,0,0-0.1c-0.1,0-0.4-0.2-0.7-0.3
					c-0.3-0.1-0.6-0.1-1-0.1c-0.4,0-1.1,0.2-1.4,0.2c-0.4,0.1-0.6,0.1-0.8,0.1c-0.2,0-0.3-0.1-0.3-0.1c0-0.1,0-0.2,0-0.2
					s0.1,0.1,0.3,0.1c0.2,0,0.6,0,0.9-0.1C67.4,78,67.9,78,68,78c0.2,0,0.4,0,0.5,0s0.3,0.1,0.5,0.1c0.2,0,0.3-0.1,0.3-0.1
					c0.2,0,0.7,0.2,0.8,0.3c0,0,0,0,0.1,0c0,0,0,0,0-0.1c-0.1-0.1-0.5-0.2-0.7-0.3c0,0,0.1-0.1,0.1-0.2c0.2,0,0.6,0.2,0.7,0.2
					c0,0,0,0,0.1,0c0,0,0,0,0-0.1c-0.1-0.1-0.4-0.2-0.7-0.3c0,0,0-0.1,0-0.1c0,0,0-0.1,0-0.1c0.2,0.1,0.6,0.2,0.6,0.2c0,0,0,0,0.1,0
					c0,0,0,0,0-0.1c-0.1-0.1-0.4-0.2-0.7-0.3c0-0.1,0-0.1,0-0.2c0.2,0,0.6,0.1,0.7,0.2c0,0,0,0,0.1,0c0,0,0,0,0-0.1
					c-0.1-0.1-0.5-0.2-0.7-0.2c0-0.1,0-0.2,0-0.2c0.2,0,0.6,0.1,0.7,0.2c0,0,0,0,0.1,0c0,0,0,0,0-0.1c-0.1-0.1-0.4-0.2-0.7-0.2
					c0-0.1,0-0.2,0-0.2s0.3,0,0.7,0.2c0.4,0.2,1,0.4,1.6,0.4c0.6,0,1.4-0.3,1.7-0.5c0,0-0.1,0.7-0.5,1c-0.3,0.3-0.4,0.3-0.4,0.4
					c0,0.1,0,0.1,0.3,0.1c0.3,0,1,0,1.6-0.1c0,0-0.6,0.8-1.6,1.2c-0.9,0.4-1.8,0.5-2.9,0.1c-1-0.4-1-0.5-1.8-0.5
					c-0.8,0-1.5,0.3-2.2,0.3c-0.7,0-0.9-0.2-0.9-0.5c-0.1-0.3,0.1-1,0.1-1s1-0.2,1.6-0.2c0.6-0.1,1.2-0.1,1.5,0.1
					c0.2,0.1,0.2,0.2,0.1,0.2c-0.1,0-0.1,0.1,0,0.1c0,0.1,0.1,0.1,0.3,0c0.1-0.1,0.1-0.4,0-0.5c-0.1-0.1-0.4-0.3-1-0.2
					c-0.6,0-1.3,0.1-1.9,0.2c-0.6,0.1-1.4,0.3-1.9,0.3c-0.5,0.1-1.1,0-1.1,0s-0.6,0-1.1,0c-0.5-0.1-1.3-0.2-1.9-0.3
					c-0.6-0.1-1.3-0.2-1.9-0.2s-0.8,0.1-1,0.2c-0.1,0.1-0.2,0.4,0,0.5c0.1,0.1,0.2,0,0.3,0c0-0.1,0.1-0.1,0-0.1s-0.1-0.1,0.1-0.2
					c0.2-0.1,0.8-0.1,1.4-0.1c0.6,0.1,1.6,0.2,1.6,0.2s0.2,0.7,0.1,1c-0.1,0.3-0.3,0.5-0.9,0.5c-0.7,0-1.4-0.3-2.2-0.3
					c-0.8,0-0.7,0.2-1.8,0.5c-1,0.4-1.9,0.3-2.9-0.1c-0.9-0.4-1.6-1.2-1.6-1.2c0.6,0.1,1.3,0.1,1.6,0.1c0.3,0,0.3,0,0.3-0.1
					c0-0.1,0-0.1-0.4-0.4c-0.3-0.3-0.5-1-0.5-1c0.3,0.2,1,0.5,1.7,0.5c0.6,0,1.3-0.2,1.6-0.4c0.4-0.2,0.7-0.2,0.7-0.2s0,0.1,0,0.2
					c-0.2,0-0.6,0.2-0.7,0.2c0,0,0,0,0,0.1c0,0,0,0,0.1,0c0.1-0.1,0.4-0.2,0.7-0.2c0,0.1,0,0.2,0,0.2c-0.2,0-0.6,0.2-0.7,0.2
					c0,0,0,0,0,0.1c0,0,0,0,0.1,0c0.1-0.1,0.5-0.2,0.7-0.2c0,0.1,0,0.1,0,0.2c-0.2,0.1-0.6,0.2-0.7,0.3c0,0,0,0,0,0.1c0,0,0,0,0.1,0
					c0.1-0.1,0.4-0.2,0.6-0.2c0,0.1,0,0.1,0,0.1c0,0,0,0.1,0,0.1c-0.2,0.1-0.6,0.2-0.7,0.3c0,0,0,0,0,0.1c0,0,0,0,0.1,0
					c0.1-0.1,0.4-0.2,0.7-0.2c0,0.1,0.1,0.1,0.1,0.2c-0.2,0-0.6,0.2-0.7,0.3c0,0,0,0,0,0.1c0,0,0,0,0.1,0c0.1-0.1,0.6-0.2,0.8-0.3
					c0,0,0.1,0.1,0.3,0.1c0.2,0,0.4-0.1,0.5-0.1c0.1,0,0.3,0,0.5,0c0.2,0,0.6,0.1,0.9,0.2c0.3,0.1,0.8,0.1,0.9,0.1
					c0.2,0,0.3-0.1,0.3-0.1s0,0.1,0,0.2c0,0.1-0.1,0.1-0.3,0.1c-0.2,0-0.5,0-0.8-0.1c-0.4-0.1-1-0.2-1.4-0.2c-0.4,0-0.7,0-1,0.1
					c-0.3,0.1-0.6,0.2-0.7,0.3c-0.1,0,0,0.1,0.1,0.1c0.1,0,0.7-0.2,0.9-0.3c0.3-0.1,0.9-0.1,1.2,0c0.3,0.1,1.2,0.2,1.4,0.3
					c0.2,0,0.5,0,0.5,0c-0.1,0.1-0.4,0.2-0.7,0.2s-1.1-0.2-1.5-0.2c-0.4-0.1-0.9,0-1.2,0.1c-0.3,0.1-0.6,0.2-0.6,0.2
					c-0.1,0,0,0.1,0.1,0.1c0.1,0,0.1-0.1,0.3-0.1c0.2-0.1,1.1-0.2,1.4-0.2c0.4,0,1,0.2,1.6,0.3c0.5,0,1-0.1,1-0.5
					c0-0.4-0.2-0.6-0.8-0.7c-0.5-0.1-1.5,0.1-2.2,0.2c-0.6,0.1-0.7,0-0.8-0.3c-0.1-0.2-0.4-2.3-0.4-2.7c0.1-0.4,0.8-0.5,1.3-0.5
					c0.5,0,1.2,0.2,2.6,0.5C61.6,75,63,75.1,63,75.1L63,75.1z M59.9,77.8c-0.1,0-0.6,0-0.9-0.1C59,77.7,59.7,77.6,59.9,77.8
					L59.9,77.8z M60.1,78c0,0-0.2,0.1-0.4,0.1c-0.2,0-0.7-0.1-1-0.1c-0.3,0-0.5-0.1-0.5-0.1c0,0,0.3-0.1,0.5-0.1
					c0.2,0,0.3,0,0.6,0.1c0.3,0.1,0.5,0.1,0.6,0.1c0.1,0,0.2-0.1,0.2-0.1S60.1,77.9,60.1,78L60.1,78z M66.1,77.8
					c0.1,0,0.6,0,0.9-0.1C67,77.7,66.3,77.6,66.1,77.8L66.1,77.8z M65.9,78c0,0,0.2,0.1,0.4,0.1c0.2,0,0.7-0.1,1-0.1
					c0.3,0,0.5-0.1,0.6-0.1c0,0-0.3-0.1-0.5-0.1c-0.2,0-0.3,0-0.6,0.1c-0.3,0.1-0.5,0.1-0.6,0.1c-0.1,0-0.2-0.1-0.2-0.1
					S65.9,77.9,65.9,78L65.9,78z"/>
				<path fill-rule="evenodd" clip-rule="evenodd" d="M58,74.9l0.1,1.4c0,0,0.8,0.1,1,0.1v-0.3c0,0-0.4-0.1-0.6-0.1l-0.1-1.2
					L58,74.9L58,74.9z M67.9,75.3L68,75c0,0-0.3-0.1-0.6,0c-0.3,0.1-0.4,0.3-0.4,0.5c0.1,0.2,0.3,0.2,0.5,0.3
					c0.2,0.1,0.3,0.2,0.1,0.3c-0.2,0.1-0.5,0-0.5,0L67,76.3c0,0,0.5,0.2,0.8,0c0.3-0.2,0.3-0.5,0.2-0.6c-0.1-0.1-0.3-0.2-0.4-0.2
					c-0.1,0-0.2-0.1-0.1-0.2C67.4,75.2,67.7,75.2,67.9,75.3L67.9,75.3z M65.3,76.7l0.4-1.2l-0.2,0v-0.2l1-0.2v0.2l-0.2,0l0.4,1.1
					l-0.4,0.1l-0.2-0.4l-0.5,0.1l-0.1,0.4L65.3,76.7L65.3,76.7z M66.1,75.5l0.1,0.4L65.9,76L66.1,75.5L66.1,75.5z M64.5,76.8v-1.1
					l-0.4,0v-0.3l1.3-0.2v0.3l-0.4,0.1v1.1L64.5,76.8L64.5,76.8z M62.8,75.5v1.4h0.4v-0.5h0.2c0,0,0.2,0.4,0.7,0.5l0.1-0.3
					c0,0-0.4-0.1-0.5-0.3c0,0,0.2-0.2,0.2-0.4s-0.2-0.4-0.4-0.4C63.2,75.5,62.8,75.5,62.8,75.5L62.8,75.5z M63.1,75.8v0.4
					c0,0,0.4,0,0.4-0.2C63.5,75.7,63.2,75.8,63.1,75.8L63.1,75.8z M61.5,75.4v1.4c0,0,0.6,0.1,1,0.1v-0.2c0,0-0.5,0-0.6-0.1v-0.3
					c0,0,0.4,0,0.5,0v-0.2c0,0-0.4,0-0.5-0.1v-0.3c0,0,0.2,0,0.4,0v-0.3C62.3,75.5,61.9,75.5,61.5,75.4L61.5,75.4z M60.1,75.2l0,1.4
					c0,0,0.3,0,0.6,0.1c0.3,0.1,0.6-0.1,0.6-0.3c0-0.2-0.1-0.3-0.2-0.4c0,0,0.1-0.2,0.1-0.3c0-0.1,0-0.3-0.4-0.4
					C60.4,75.3,60.1,75.2,60.1,75.2L60.1,75.2z M60.4,76.1v0.3c0,0,0.4,0.1,0.4-0.1C60.9,76.1,60.7,76.1,60.4,76.1L60.4,76.1z
					 M60.4,75.5v0.3c0.1,0,0.3,0,0.3-0.1C60.8,75.6,60.6,75.5,60.4,75.5L60.4,75.5z M59.3,75.1l0.1,1.4l0.3,0l-0.1-1.4L59.3,75.1
					L59.3,75.1z"/>
			</g>
		</g>
	</g>
	<path opacity="0.25" fill="#FFFFFF" d="M13,29.7v25.5C26.2,62.6,43.7,67,63,67c19.3,0,36.8-4.5,50-11.8V29.7H13z"/>
</g>
</svg>
