<?xml version="1.0" encoding="utf-8"?>
<!-- Generator: Adobe Illustrator 24.3.0, SVG Export Plug-In . SVG Version: 6.00 Build 0)  -->
<svg version="1.1" id="Layer_1" xmlns="http://www.w3.org/2000/svg" xmlns:xlink="http://www.w3.org/1999/xlink" x="0px" y="0px"
	 viewBox="0 0 126 126" enable-background="new 0 0 126 126" xml:space="preserve">
<g>
	<g>
		<polygon fill-rule="evenodd" clip-rule="evenodd" fill="#46B61C" points="13,96.3 113,96.3 113,29.7 13,29.7 46.3,63 13,96.3 		
			"/>
		<polygon fill-rule="evenodd" clip-rule="evenodd" fill="#FFDE27" points="32,77.3 113,77.3 113,48.7 32,48.7 46.3,63 32,77.3 		
			"/>
		<path fill-rule="evenodd" clip-rule="evenodd" fill="#FF1612" d="M46.3,63L13,29.7v66.7L46.3,63L46.3,63z M13,29.7L13,29.7
			L13,29.7L13,29.7z"/>
		<path fill-rule="evenodd" clip-rule="evenodd" d="M65,53.5l2.1,6.6H74l-5.6,4.1l2.1,6.6L65,66.6l-5.6,4.1l2.1-6.6l-5.6-4.1h6.9
			L65,53.5L65,53.5z M92.3,53.5l2.1,6.6h6.9l-5.6,4.1l2.1,6.6l-5.6-4.1l-5.6,4.1l2.1-6.6l-5.6-4.1h6.9L92.3,53.5L92.3,53.5z"/>
	</g>
	<path opacity="0.35" fill="#FFFFFF" d="M13,29.7v25.5C26.2,62.6,43.7,67,63,67s36.8-4.5,50-11.8V29.7H13z"/>
</g>
</svg>
