<?xml version="1.0" encoding="utf-8"?>
<!-- Generator: Adobe Illustrator 24.3.0, SVG Export Plug-In . SVG Version: 6.00 Build 0)  -->
<svg version="1.1" id="Layer_1" xmlns="http://www.w3.org/2000/svg" xmlns:xlink="http://www.w3.org/1999/xlink" x="0px" y="0px"
	 viewBox="0 0 126 126" enable-background="new 0 0 126 126" xml:space="preserve">
<g>
	<g>
		<polygon fill="#47B71D" points="113,96.3 113,29.7 13,29.7 13,96.3 113,96.3 		"/>
		<path fill-rule="evenodd" clip-rule="evenodd" fill="#FFFFFF" d="M38,47.7c0.3,0.1,0.4,1.1,0.5,1.8c0.1,0.7,0.2,1.4,0.6,1.4
			c0.3,0,0.3-0.7,0.6-1.8c0.2-1.1,0.7-1.9,1.3-1.9c0.5,0,0.6,0.8,0.6,1.5c0,0.8,0,0.9-0.1,1.4c0,0.4,0.1,0.6,0.2,0.8
			c0.2,0.2,0.4,0.1,0.5-0.3c0-0.4-0.1-1.4-0.2-1.7c0-0.3-0.4-1.6-0.4-2c0-0.4-0.1-1.4,0.1-1.5c0.2-0.2,0.4-0.1,0.7,0.1
			c0.3,0.3,0.4,1.3,0.5,2.1c0.1,0.8,0.1,1.4,0.2,2c0.1,0.7,0.4,0.9,0.6,0.5c0,0-0.5-1-0.6-1.8c-0.1-0.7-0.1-1.6,0.4-1.8
			c0.4-0.2,0.9,0.9,1,1.3c0.1,0.5,0.1,1.3,0,1.8c0,0,0.6,0.7,0.9,0.8c0.3,0.2,0.5,0.2,0.7,0.1c0.1-0.1,0.1-0.6,0-0.9
			c-0.1-0.3-0.5-0.7-0.6-1.1c-0.2-0.4-0.6-1.5-0.1-2c0.6-0.5,1.3,0.4,1.4,0.6c0.1,0.2,0.4,0.8,0.2,0.9c-0.1,0.1-0.3,0-0.4-0.1
			c-0.1-0.1-0.1-0.1-0.1,0c0,0.1,0.1,0.3,0.1,0.4c0,0.1,0,0.3,0.1,0.5c0.1,0.2,0.3,1.3,0.3,2c0,0.7-0.9,1.2-1.3,1.3
			c-0.4,0.1-0.7,0.2-1.1-0.1c-0.4-0.3-0.7-0.6-0.9-0.4c-0.3,0.1-0.3,0.6-0.3,0.9c0,0.4,0.2,1.6,0.2,2.6c0,1-0.2,2-0.6,2.2
			s-0.4,0.1-0.4-0.5c0-0.7-0.1-2.6-0.1-3.2c0-0.6-0.1-0.6-0.3-0.7c-0.2-0.1-0.4,0-0.7-0.1c-0.3-0.1-0.8-0.5-0.9-0.9
			c0-0.5,0-2.4,0-2.7c0-0.3-0.1-0.5-0.3-0.2c-0.2,0.3-0.2,0.5-0.3,1c0,0.5,0.1,1.7-0.4,2.1c-0.4,0.4-1.1,0.2-1.4-0.3
			c-0.3-0.5-0.5-1.4-0.5-2.8C37.8,47.8,37.8,47.7,38,47.7L38,47.7z M67.3,47.2c0,0.3,0.1,0.6,0.2,0.9c-0.1,0-0.4-0.4-0.4-0.5
			C66.8,47.3,66.7,47.2,67.3,47.2L67.3,47.2z M45.2,54.8c0-0.6,0.8-0.8,0.8-0.1c0,0.3-0.2,0.3-0.4,0.3C45.5,54.9,45.2,55,45.2,54.8
			L45.2,54.8z M44.5,76.5c0,0,5.5,0.2,8.5,0.2c3,0,14.7,0.1,14.7,0.1l8,0c0,0-1-0.9,0.3-1.4c0,0,0.1,0.3,0.2,0.4
			c0,0.1,0.3,0,0.4,0.2c0.1,0.3-0.1,0.6-0.1,0.8c0,0,1.2,0.1,2,0.1c0.8,0,0.8,0.1,1.6,0c0.8-0.1,1.3-0.2,1.7,0.3
			c0.4,0.4,0.7,1.5,0.5,2.3c-0.2,0.8-0.9,0.9-1.2,0.8c-0.4-0.1-0.5-0.5-0.5-0.5s-1.8,0.2-3.9,0c0,0-0.5,0.8-0.9,0
			c-0.3-0.8-0.2-1.3-0.1-1.5c0,0-15.4,0-17.2,0c-1.8,0-8.6,0-9.4,0C48.3,78.4,45.7,78.4,44.5,76.5L44.5,76.5z M76.7,78.5
			c0,0,3.2,0.1,3.4,0.1c0.2,0,0.3,0.2,0.3,0.3c0,0.1,0,0.3-0.3,0.3s-1,0-1,0s-0.1-0.3-0.5-0.3c-0.5,0-0.5,0.3-0.5,0.3
			c-0.2,0-1.5,0-1.6-0.1C76.4,79,76.3,78.5,76.7,78.5L76.7,78.5z M83.2,60.6c-0.3,0-0.6,0.1-0.5,0.4c0.1,0.3,0.5,0.3,0.5,0.6
			c0,0.3-0.4,0.6-0.6,0.7c-0.2,0.1-0.1,0.5,0.2,0.5c0.4,0,1-0.4,1.2-0.5c0.3-0.1,0.4-0.2,0.4-0.4c0-0.1-0.2-0.2-0.5-0.2
			c-0.3,0-0.4-0.1-0.2-0.3C83.8,61.1,84.3,60.5,83.2,60.6L83.2,60.6z M86.3,46c-0.1,0.8,0.1,2.1,0.2,2.8c0.1,0.7,0.6,4.1,0.6,4.8
			c0,0.6,0.2,3.3,0.3,3.8c0,0.5,0.2,1.5-0.1,2.2c-0.2,0.7-0.9,1.3-1.2,1.6c-0.3,0.2-1.4,0.6-1.7,1c-0.4,0.4-0.5,0.7,0,0.8
			c0.5,0.1,1.8-0.2,2.5-0.6c0.8-0.4,1.4-1.4,1.5-2.4c0.2-1,0.1-4,0.1-5.1s-0.2-3.1-0.3-3.9c-0.1-0.8-0.4-2.6-0.5-3
			c-0.1-0.3,0-0.3,0.2-0.3c0.2,0,0.5,0,0.3-0.4c-0.2-0.3-0.9-1.5-1.1-1.7c-0.2-0.2-0.3-0.4-0.3-0.5c-0.1-0.1-0.1-0.3-0.3-0.1
			C86.5,45.4,86.4,45.8,86.3,46L86.3,46z M84.9,46.9c-0.2,0.2-0.1,0.5,0.1,1c0.2,0.4,0.5,0.8,0.5,1.1c-0.1,0.4-0.1,1.2,0.1,1
			c0.2-0.1,0.5-0.8,0.5-1.4C86,48,85.7,46.3,84.9,46.9L84.9,46.9z M77.4,51.5c0.3,0.4,1,1.2,1.6,1.4c0.6,0.2,0.3-0.8,0.3-1.3
			c0-0.5,0-0.8,0.3-0.7c0.3,0.1,0.4,0,0.3-0.3c0-0.3-0.1-1.1-0.7-1.1c-0.6,0-0.7,0.4-0.6,0.6c0,0.2,0.2,0.6-0.1,0.6
			c-0.2,0.1-0.3-0.2-0.4-0.3c-0.2-0.2-0.4-0.2-0.7,0C77.1,50.6,77.1,51.2,77.4,51.5L77.4,51.5z M80.3,53.1c-0.3,0.3-2,1.4-2.3,1.7
			c-0.3,0.2-0.2,0.5-0.2,0.7c0,0.2,0,0.4,0.3,0.2c0.4-0.2,2.2-1.4,2.4-1.7c0.3-0.2,0.2-0.7,0.2-0.8S80.7,52.8,80.3,53.1L80.3,53.1z
			 M79.9,54.9c-0.2,0.2-0.2,0.5,0,1c0.2,0.5,0.4,0.8,0.4,1.2c-0.1,0.4-0.1,1,0.1,0.9c0.2-0.1,0.5-0.6,0.5-1.2
			C81,56.1,80.7,54.4,79.9,54.9L79.9,54.9z M75.3,60.1c0.2,0.6,0.4,1,0.9,1.1c0.5,0.1,0.9-1,1-1.4c0.1-0.3,0.6-1.4,1-1.8
			c0.3-0.4,0.8-0.7,1.1-0.3c0.4,0.4,0.8,1.5,1.5,1.4c0.7-0.1,0.8-1.9,0.8-2.7c-0.1-0.8-0.4-5.8-0.4-5.8s-2-2.6-2.3-3
			c-0.3-0.4-0.4-0.4-0.4-1.1c0-0.7,0-1.1,0-1.4c0.1-0.3,0.3-0.1,0.4,0c0.2,0.1,0.7,0.6,0.9,0.8c0.3,0.3,0.8,0.7,0.7,0.9
			c-0.1,0.2-0.3,0-0.4,0.2c0,0.2,0.6,0.7,0.6,0.7s-0.2-1.7-0.2-2c0-0.3,0.2-0.6,0.4-0.8c0.1-0.1,0.2-0.2,0.4,0.1
			c0.2,0.3,1.1,2.1,1.3,2.3c0.1,0.2,0.1,0.5,0,0.5c-0.1,0.1-0.2,0-0.3-0.1c-0.1-0.1-0.2-0.1-0.2,0.1c0,0.2,0.1,1,0.1,1.3
			c0,0.3,0,0.7,0.1,0.8c0.1,0.1,1.4,2.1,1.4,2.1s-0.3-2.2-0.4-2.9c-0.1-0.7-0.5-2.2-0.5-2.7c0-0.5-0.1-0.8,0.2-1.1
			c0.3-0.3,0.6-0.5,0.8-0.2c0.2,0.3,0.6,1.2,0.8,1.8c0.2,0.6,0.2,0.8,0.3,1c0.1,0.2-0.1,0.3-0.3,0.3c-0.2,0-0.2,0-0.2,0.2
			c0,0.2,0.4,2.4,0.6,3.4s0.3,2.5,0.3,2.5s1,1.3,1.3,1.8c0.3,0.5,0.7,0.9,0.8,1.5c0.1,0.6,0.1,1.2,0,1.6c-0.1,0.4-0.1,0.3-0.3,0.1
			c-0.1-0.2-1.6-2.7-1.6-2.7s0,1.4,0,1.7c0,0.3-0.7,1.2-0.9,1.5c-0.2,0.2-0.3,0.3-0.3-0.1c0-0.4-0.1-3.2-0.1-3.6
			c0-0.4-0.1-1.6-0.1-1.6l-1.2-1.7c0,0,0.1,3.2,0.1,4.1c0,0.9,0.2,2.9-0.9,3.5c-1.1,0.7-1.4,0.4-2,0.1c-0.6-0.3-0.9-1-1.3-0.9
			c-0.4,0.1-0.6,0.5-0.7,1.1c-0.1,0.6-0.4,2-1.1,2.1c-0.7,0.1-1.4-0.5-1.8-1.3c-0.4-0.7-0.8-2.5,0.2-3.6C75,58.6,75,59.4,75.3,60.1
			L75.3,60.1z M74.3,45.8c-0.1,0.6-0.3,1-0.2,1.7c0,0.7,0.3,1.9,0.4,2.4c0.1,0.5,0.5,3,0.6,3.4c0.1,0.4,0.3,2.6,0.4,2.9
			c0,0.3,0.1,1.9,0.2,2.3c0,0.4,0,1.4,0,1.6c0,0.2,0,0.2,0.2,0.1c0.1-0.1,0.4-0.4,0.6-1c0.2-0.6,0.2-0.9,0.2-1.2
			c0-0.3-0.1-2.2-0.2-2.7c-0.1-0.4-0.4-3.1-0.5-3.7c-0.1-0.6-0.4-2.6-0.5-3c-0.1-0.4-0.1-0.5,0.1-0.6c0.2,0,0.5,0.1,0.5,0
			c0.1-0.2-0.3-0.7-0.4-0.9c-0.1-0.2-0.7-1.1-0.8-1.4c-0.1-0.2-0.2-0.5-0.3-0.6c-0.1-0.2-0.1-0.2-0.3,0
			C74.4,45.4,74.4,45.6,74.3,45.8L74.3,45.8z M72.3,45.5c-0.4,0.8-0.4,1.3-0.3,2.4c0.1,1.1,0.4,3.6,0.6,5.2c0.1,1.7,0.3,3.8,0.4,4.6
			c0.1,0.8,0.1,1.3-0.2,1.7c-0.3,0.4-1.1,1.1-1.5,1.4c-0.4,0.3-1.3,0.9-1.7,1.1C69,62,69,62.1,69.2,62.3c0.1,0.2,0.4,0.7,1.2,0.6
			c0.9-0.1,1.9-0.9,2.4-1.7c0.5-0.7,0.8-1.3,1.1-2c0.3-0.7,0.1-2,0.1-2.5c0-0.6,0-2-0.1-3c-0.1-1-0.3-2.8-0.4-3.3
			c-0.1-0.6-0.3-1.3-0.3-1.6c0-0.3-0.1-0.5,0.2-0.5c0.2,0,0.4-0.1,0.4-0.3c0-0.2-0.2-0.7-0.3-1.1c-0.1-0.4-0.5-1-0.6-1.3
			C72.6,45.1,72.5,45.1,72.3,45.5L72.3,45.5z M69.9,45.4c-0.2,0.2-0.2,0.5,0.1,0.9c0.3,0.4,0.6,0.7,0.5,1.1c-0.1,0.4,0,1,0.2,0.8
			c0.2-0.1,0.5-1,0.5-1.6C71.1,46,70.7,45,69.9,45.4L69.9,45.4z M69.7,49.8c0,0.4,0.1,1,1,1c0.9,0,1-0.6,1-1c0-0.4-0.1-0.5-0.3-0.5
			c-0.2,0-0.3,0.1-0.3,0.3c0,0.1,0,0.3-0.1,0.3c-0.1,0-0.1-0.1-0.1-0.3c0-0.1-0.1-0.2-0.2-0.2c-0.1,0-0.2,0.2-0.2,0.3
			c0,0.1-0.1,0.2-0.1,0.2c-0.1,0-0.1,0-0.2-0.2c0-0.2-0.1-0.2-0.2-0.2C69.9,49.3,69.8,49.4,69.7,49.8L69.7,49.8z M68.3,60.9
			c0,0,0.2-6.8-0.4-9.8c0,0-1.6-2.4-2.2-3.1c-0.6-0.8-1.2-1.4-1.2-2.1c0-0.6,0-1.2,0.4-1.1c0.4,0.1,0.8,0.4,1.2,0.7
			c0.4,0.3,0.8,0.7,1,1.1c0,0-0.1-0.8,0.1-1.1c0.2-0.3,0.3-0.6,0.6-0.3c0.2,0.3,0.7,1,1,1.4c0.3,0.4,0.5,0.9,0.6,1.4
			c0.1,0.5,0,0.5-0.1,0.4c-0.1-0.1-0.2-0.2-0.3-0.1c0,0.1,0.1,0.8,0.1,1.2c0.1,0.4,0.2,1.5,0.2,1.5s0.8,1.2,1.4,2.1
			c0.6,1,1.4,2.5,1.7,3c0.3,0.5,0.3,0.6,0.3,1c0.1,0.4,0,1.3,0,1.6c-0.1,0.2-0.1,0.4-0.3,0.1c-0.2-0.3-2.4-4.5-2.9-5.1
			c0,0,0.1,3.2,0.2,3.8c0,0.6,0,2.1-0.2,2.6C69.2,60.4,68.8,60.9,68.3,60.9L68.3,60.9z M65.1,60.3c-0.3,0.3-0.5,0.5-0.4,0.6
			c0.1,0.2,0.3,0.1,0.4,0c0.1,0,0.3,0.1,0.3,0.4c0,0.3,0.1,0.7,0.3,0.6c0.3-0.1,0.7-0.3,1.1-0.4c0.4-0.2,0.5-0.2,0.7-0.2
			c0.2,0,0.2-0.5-0.1-0.5c-0.3-0.1-0.6,0-0.8,0.1c-0.3,0.1-0.4,0.4-0.6,0.2c-0.2-0.2-0.2-0.4-0.1-0.6s0.2-0.4,0-0.5
			S65.4,59.9,65.1,60.3L65.1,60.3z M60.1,52.6c0,0.4,0.1,1,1,1c0.9,0,1-0.6,1-1c0-0.4-0.1-0.5-0.3-0.5c-0.2,0-0.3,0.1-0.3,0.3
			c0,0.1,0,0.3-0.1,0.3c-0.1,0-0.1-0.1-0.1-0.3c0-0.1-0.1-0.2-0.2-0.2c-0.1,0-0.2,0.2-0.2,0.3s-0.1,0.2-0.1,0.2
			c-0.1,0-0.1,0-0.2-0.2c0-0.2-0.1-0.2-0.2-0.2C60.3,52.2,60.1,52.3,60.1,52.6L60.1,52.6z M53,57.1c0,0-0.7,0.5-1,2.1
			c0,0-2.2,1.4-3.2,2c-1,0.7-1.4,1.1-1.4,1.2c0.1,0.2,1.3-0.2,2.1-0.5c0.8-0.3,2.3-0.9,2.3-0.9s0.3,1.4,1.6,1.6
			c1.3,0.2,2.5-0.6,3.2-1.3c0.7-0.7,1.2-1.4,1.5-1.7c0.2-0.3,0.4-0.2,0.5,0c0.1,0.2,0.6,1.1,1.8,1.7c1.2,0.6,2.8,0.8,3,0.8
			c0.2,0,0.4-0.5,0.4-0.6c0-0.2,0-0.4-0.3-0.5c-0.3-0.2-1.2-0.5-1.3-0.9c-0.1-0.4,0.1-0.8,0.4-1s1.2-0.2,1.7-0.3
			c0.5-0.1,2.5-0.4,3-0.7c0,0,0.2-1.2,0.6-1.7c0,0,0.1-0.1,0.1-0.1c0,0,0-0.1,0-0.1c-0.1,0-0.1-0.1-0.3-0.1c-0.2,0-2.3,0-2.9,0
			c-0.6,0-1.7,0-1.9,0c-0.2,0-0.3-0.2-0.1-0.2c0.2,0,1.2-0.1,2-0.5c0.9-0.4,1.2-1.1,1.3-1.7c0.1-0.6-0.1-1.5-0.7-1.8
			c-0.7-0.3-1.5-0.4-2,0.2c-0.5,0.6-0.5,1.5-0.4,1.8c0,0.3,0,0.5-0.6,0.5c-0.6,0.1-1.9,0.5-2.5,1c-0.6,0.5-0.7,0.7-0.8,0.9
			c-0.1,0.2-0.1,0.2-0.2,0.2c-0.1-0.1-0.2-0.2-0.2-0.4c0-0.2-0.2-1.8-0.5-2.6c-0.3-0.8-0.5-1.3-0.6-1.5c-0.1-0.2-0.3-0.3-0.4-0.5
			c-0.1-0.1-0.2,0-0.3,0.1c-0.1,0.1-0.4,0.2-0.4,0.8c0,0.6,0.3,1.1,0.4,1.3c0.1,0.3,0.8,1.8,0.9,3.1c0.1,1.3,0,1.3-0.6,2.1
			c-0.5,0.8-1.9,1.9-2.3,2.1c-0.4,0.2-1.6,0.4-1.7-0.7c0,0,1.3-0.7,2.3-2c1-1.3,0.9-2.2,0.9-2.6c0-0.4-0.3-1.5-0.6-1.9
			c0,0,0.2,0,0.3,0.1c0.2,0.1,0.4,0.1,0.3-0.2c-0.1-0.3-0.5-1.3-1.1-1.6c-0.6-0.2-1.1,0.3-1.1,0.8c0,0.5-0.1,0.8,0.4,1.3
			c0.4,0.5,0.8,0.9,0.8,1.5c0,0.6-0.3,1-0.7,1.4c-0.4,0.4-1.7,1.4-1.7,1.4S52.9,57.4,53,57.1L53,57.1z M59.9,57.3
			c0.6,0.1,1.6,0.2,2,0.2c0.4,0,0.8,0.4,0.3,0.6c-0.5,0.2-1.1,0.4-1.1,0.9c0,0.5,0.1,0.8,0,0.9c-0.1,0.1-0.6-0.1-1.1-0.6
			c-0.5-0.4-0.7-1.1-0.8-1.4C59.2,57.6,59.3,57.2,59.9,57.3L59.9,57.3z M64.1,53.2c-0.1,0.1,0,0.4,0.2,0.5c0.2,0.1,0.4,0.1,0.6,0
			c0.1-0.1-0.1-0.3-0.2-0.4C64.6,53.2,64.2,53.1,64.1,53.2L64.1,53.2z M50.8,56.7c0.3,0.3,0.5,0.5,0.5,0.9c0,0.3-0.1,0.8,0,0.8
			c0.2,0,0.5-0.7,0.5-1.1c0-0.4-0.2-1-0.5-1.2C51,56,50.3,56.2,50.8,56.7L50.8,56.7z M38.2,60c0,0.8,0.1,1.2,0.2,1.2
			c0.1,0,0.3-0.3,0.4-0.4c0.1-0.2,0.4,0.1,0.4,0.3c0.1,0.2,0,0.7-0.2,1.1c-0.2,0.3-0.9,0.8-1.4,0c-0.5-0.8-0.1-2.4,0.1-2.8
			c0.1-0.4,0.4-0.9,0.5-1c0.1-0.1,0.2-0.2,0.1,0.2C38.3,58.8,38.2,59.7,38.2,60L38.2,60z M38,56.4l4.2-2.1c0,0,0-0.6-0.7-0.7
			c-0.6,0-1.5,0.3-2.3,0.9C38.5,55.2,38.1,55.9,38,56.4L38,56.4z M58.9,45.4c-0.1,0.6-0.3,1.6,0,1.6c0.3,0.1,0.6-0.8,0.8-1.4
			c0.1-0.5,0.1-0.9-0.2-0.9C59.2,44.6,59,45,58.9,45.4L58.9,45.4z M54.5,50.3c0.4,0.7,0.6,0.9,0.9,0.9c0.2,0,0.3,0,0.3,0
			c0.1,0,0.1,0.1,0.3,0c0.2-0.1,0.5-0.4,0.7-1.1c0.2-0.7,0.2-0.9,0.3-1.2c0.1-0.3,0.4-0.5,0.4-0.2c0,0.3-0.2,2.2,0.7,2.8
			c0.9,0.7,1.7,0.1,1.9,0s0.6-0.6,0.8-0.8c0.2-0.2,0.5-0.3,0.8,0c0.2,0.4,0.4,0.9,1.2,0.8c0.7-0.1,1-0.2,1.2-0.5
			c0.2-0.3,0.3-0.6,0.5-0.8c0.2-0.2,0.4-0.2,0.5-0.2c0.1,0,0.1,0.1,0,0.2c-0.1,0.1-0.2,0.4,0,0.5c0.2,0.1,0.5,0,0.6-0.2
			c0.2-0.2,0.4-0.5,0.7-1.1c0.2-0.6-0.2-0.5-0.4-0.4c-0.2,0.1-0.5,0.4-1,0.3c-0.4-0.1-0.6-0.5-0.6-0.9c-0.1-0.4-0.2-0.9-0.3-1.1
			c-0.1-0.2-0.1-0.4,0-0.5c0.1-0.1,0.3,0.1,0.5-0.1c0.2-0.2,0.1-0.5,0-0.7c-0.1-0.2-0.6-1-1-1.1c-0.4-0.1-0.9,0.1-1,0.5
			c-0.1,0.4-0.2,0.9-0.1,1.3c0.1,0.4,0.5,0.7,0.8,1.5c0.2,0.8,0.2,1.2-0.1,1.4c-0.2,0.2-0.8,0.3-1,0c-0.2-0.3-0.4-0.9-0.4-1.5
			c0-0.6-0.1-2.5-0.3-2.9c-0.2-0.4-0.2-0.7-0.4-0.7c-0.2,0-0.4,0.4-0.6,0.9c-0.2,0.4-0.2,0.6,0,1.2c0.2,0.6,0.3,1.3,0.3,2
			c0,0.7-0.2,0.9-0.5,1.2c-0.3,0.3-0.9,0.4-1.3-0.1c-0.4-0.5-0.3-1.5-0.3-1.7c0-0.2,0.1-1.6-0.2-1.9c-0.3-0.3-0.6-0.3-1,0.3
			c-0.5,0.6-0.8,1.1-1,1.9c-0.3,0.8-0.3,1.5-0.6,1.5c-0.3,0-0.5-0.7-0.6-1.4c-0.1-0.6-0.3-1.4-0.3-1.7c-0.1-0.3-0.2-0.6-0.4-0.2
			C53.9,47.7,53.9,49.3,54.5,50.3L54.5,50.3z M52.6,49.8c-0.1,0.3-0.1,0.5,0,0.7c0.1,0.2,0.2,0.3,0.4,0.2c0.2-0.1,0.4-0.3,0.5-0.2
			c0.1,0.1-0.2,0.8-0.6,0.9c-0.4,0.1-1,0.1-1.1-0.5c-0.1-0.7,0.2-1,0.5-1.2C52.5,49.3,52.7,49.5,52.6,49.8L52.6,49.8z M55.9,44.7
			c-0.3,0.2-0.6,0.5-0.7,1c-0.1,0.5,0,0.6,0,0.7c0.1,0.1,0.1,0.1,0.2,0.2c0,0.1,0.2,0.1,0.5-0.1c0.2-0.1,0.3-0.3,0.4-0.5
			c0.1-0.2-0.1-0.1-0.2-0.1s-0.2,0-0.3-0.1c0-0.2,0-0.4,0.2-0.6c0.2-0.2,0.3-0.3,0.3-0.4C56.3,44.6,56.2,44.4,55.9,44.7L55.9,44.7z
			 M52.2,47.5c-0.6,0.5-2.4,2-2.6,2.2c-0.2,0.2-0.1,0.2,0.1,0.2c0.2,0,1,0,1.2,0c0.2,0,0.4-0.1,0.6-0.3c0.2-0.2,2-2.1,2.1-2.2
			c0.1-0.1,0-0.1,0-0.2c-0.1-0.1-0.2-0.2-0.3-0.2c-0.1-0.1-0.1-0.1,0.1-0.2c0.1-0.1,0.4-0.3,0.3-0.7c0-0.4-0.1-0.7-0.8-0.8
			c-0.8,0-0.9,0.6-0.9,0.9c0,0.2,0,0.5,0.3,0.6c0.3,0.2,0.3,0.4,0.2,0.5C52.4,47.3,52.2,47.5,52.2,47.5L52.2,47.5z M52.7,46.4
			c0.1,0.2,0.3,0.2,0.4,0.1c0.1-0.1,0.1-0.3,0-0.4C53,46,52.8,45.8,52.6,46C52.5,46.1,52.6,46.3,52.7,46.4L52.7,46.4z M48.2,45.6
			c0.3,0.5,0.8,2,0.9,2.3c0.1,0.3,0.1,0.4-0.1,0.4c-0.2,0.1-0.3,0-0.4,0c-0.2,0-0.2,0-0.2,0.1c0,0.2,0.3,2.2,0.4,2.8
			c0.1,0.6,0.3,1.9,0.3,1.9s0.4-0.3,0.7-0.2c0.3,0.1,0.2,0.5,0.2,0.7c0,0.1,0,0.3,0.4,0.3c0.4,0,0.5-0.1,0.6-0.4
			c0.1-0.2,0.4-0.8,0.8-0.8c0.4,0,0.5,0.4,0.5,0.6c0.1,0.1,0.1,0.2,0.3,0.2c0.2,0,0.2-0.2,0.2-0.4c0-0.2,0-0.4,0.3-0.6
			c0.3-0.1,0.6-0.2,0.6-0.2s-0.1,1.9-0.3,2.2c-0.1,0.4-0.6,0.7-1.1,0.6c-0.5,0-0.6-0.3-0.9-0.3c-0.2,0-0.4,0.4-0.8,0.5
			c-0.4,0.1-0.8,0.2-1.1,0c-0.3-0.2-0.4-0.2-0.4,0c0,0.2,0.3,1.9-0.1,3.2c-0.3,1.3-1.8,3.2-3.9,3.7c-2.1,0.5-3.8,0.5-4.6-1.1
			c-0.8-1.5-0.1-3.3,0-3.5c0.1-0.2,0.5-0.4,0.6,0.3c0.1,0.7,0,1.8,0.6,2.4c0.5,0.6,1.7,1.1,3.7,0.4c1.9-0.8,2.5-2.5,2.6-2.9
			c0.2-0.5,0.3-1.6,0.3-1.9c0-0.3-0.4-0.5-0.5,0.1c-0.1,0.6-0.3,1.8-1.1,2.8c-0.8,1-1.6,1.5-2.9,1.6c-1.2,0-2-0.8-2.4-1.6
			c-0.3-0.8-0.1-2,0-2.3c0.1-0.2,0.2-0.9,0.5-0.9c0.3,0,0.4,0.8,0.4,1.3c0,0.4,0,1.4,0.7,1.7c0.7,0.3,1.8,0,2.6-0.6
			c0.8-0.5,1.1-1,1.3-1.5c0.2-0.5,0.2-0.6,0.1-0.7c-0.1-0.1-0.3,0.1-0.6,0.3c-0.3,0.2-0.9,0.4-1.4,0.2c-0.5-0.2-0.6-0.5-0.6-1.5
			c0.1-1,0.5-1.6,1.2-1.9c0.7-0.3,1.3,0.2,1.5,0.5c0.2,0.2,0.5,0.7,0.8,0.5c0.3-0.2,0.3-0.4,0.2-1c-0.1-0.6-0.4-2.8-0.5-3.3
			c-0.1-0.5-0.4-2.7-0.5-3.2c-0.1-0.5,0.1-0.7,0.3-0.8C47.4,45.4,48,45.1,48.2,45.6L48.2,45.6z M43.6,45.7c0,0.4,0.1,1,1,1
			c0.9,0,1-0.6,1-1c0-0.4-0.1-0.5-0.3-0.5c-0.2,0-0.3,0.1-0.3,0.3c0,0.1,0,0.3-0.1,0.3c-0.1,0-0.1-0.1-0.1-0.3s-0.1-0.2-0.2-0.2
			c-0.1,0-0.2,0.2-0.2,0.3c0,0.1-0.1,0.2-0.1,0.2c-0.1,0-0.1,0-0.2-0.2c0-0.2-0.1-0.2-0.2-0.2C43.8,45.2,43.6,45.3,43.6,45.7
			L43.6,45.7z M39,45.1c-0.2,0.1-0.2,0.4,0.1,0.7c0.2,0.3,0.5,0.6,0.4,0.9c0,0.3,0,0.8,0.1,0.7c0.2-0.1,0.5-0.8,0.4-1.3
			C40.1,45.6,39.6,44.7,39,45.1L39,45.1z"/>
	</g>
	<path opacity="0.25" fill="#FFFFFF" d="M13,29.7v25.5C26.2,62.6,43.7,67,63,67c19.3,0,36.8-4.5,50-11.8V29.7H13z"/>
</g>
</svg>
