<?xml version="1.0" encoding="utf-8"?>
<!-- Generator: Adobe Illustrator 24.3.0, SVG Export Plug-In . SVG Version: 6.00 Build 0)  -->
<svg version="1.1" id="Layer_1" xmlns="http://www.w3.org/2000/svg" xmlns:xlink="http://www.w3.org/1999/xlink" x="0px" y="0px"
	 viewBox="0 0 126 126" enable-background="new 0 0 126 126" xml:space="preserve">
<g>
	<g>
		<polygon fill-rule="evenodd" clip-rule="evenodd" fill="#F0F0F0" points="13,96.3 113,96.3 113,74.1 13,74.1 13,96.3 		"/>
		<polygon fill-rule="evenodd" clip-rule="evenodd" fill="#0456BD" points="13,51.9 113,51.9 113,74.1 13,74.1 13,51.9 		"/>
		<polygon fill-rule="evenodd" clip-rule="evenodd" fill="#FF1612" points="13,51.9 113,51.9 113,29.7 13,29.7 13,51.9 		"/>
		<g>
			
				<path fill-rule="evenodd" clip-rule="evenodd" fill="#EDB92E" stroke="#000000" stroke-width="5.989000e-02" stroke-miterlimit="2.4142" d="
				M33.5,45.6c0,0-0.1-0.2-0.1-0.5c0-0.3,0.2-0.4,0.1-0.6c-0.1-0.1-0.7-1-0.8-1.2c-0.1-0.2,0-0.4,0.1-0.5c0.1-0.1,0.5-0.4,1-0.6
				c0.5-0.2,1-0.4,1-0.4l0.4-0.8c0,0-1,0.2-1.9,0.7c-0.9,0.5-1.3,0.7-1.4,1.1C31.7,43,31.9,43.8,32,44c0.1,0.3,0.9,1.7,0.9,1.7
				L33.5,45.6L33.5,45.6z"/>
			<path d="M34.9,41.3c-0.2,0-0.4,0.1-0.7,0.2c-0.2,0.1-0.5,0.2-0.7,0.3c-0.2,0.1-0.4,0.2-0.6,0.4c-0.2,0.1-0.3,0.3-0.4,0.4
				c-0.1,0.1-0.1,0.2-0.1,0.4c0,0.2,0,0.4,0.1,0.4c0,0.1,0.2,0.4,0.4,0.6c0.1,0.2,0.3,0.4,0.4,0.5l0,0l0,0c0,0-0.1,0.7,0.1,1.1
				l-0.1,0c-0.2-0.4-0.1-1-0.1-1.1c-0.1-0.1-0.2-0.3-0.3-0.5c-0.2-0.3-0.3-0.5-0.4-0.6c0-0.1-0.1-0.3-0.1-0.5c0-0.1,0.1-0.3,0.1-0.4
				c0.1-0.1,0.3-0.3,0.5-0.5c0.2-0.1,0.4-0.3,0.6-0.4c0.2-0.1,0.5-0.2,0.7-0.3C34.5,41.4,34.8,41.3,34.9,41.3L34.9,41.3L34.9,41.3z"
				/>
			
				<path fill-rule="evenodd" clip-rule="evenodd" fill="#FFFFFF" stroke="#000000" stroke-width="5.528800e-02" stroke-miterlimit="2.4142" d="
				M35.7,40c0.3,0,0.5,0.2,0.5,0.5c0,0.3-0.2,0.5-0.5,0.5c-0.3,0-0.5-0.2-0.5-0.5C35.3,40.2,35.5,40,35.7,40z"/>
			
				<path fill-rule="evenodd" clip-rule="evenodd" fill="#FFFFFF" stroke="#000000" stroke-width="5.528800e-02" stroke-miterlimit="2.4142" d="
				M34.8,40.3c0.3,0,0.5,0.2,0.5,0.5c0,0.3-0.2,0.5-0.5,0.5c-0.3,0-0.5-0.2-0.5-0.5C34.4,40.5,34.6,40.3,34.8,40.3z"/>
			
				<path fill-rule="evenodd" clip-rule="evenodd" fill="#FFFFFF" stroke="#000000" stroke-width="5.528800e-02" stroke-miterlimit="2.4142" d="
				M33.9,40.6c0.3,0,0.5,0.2,0.5,0.5c0,0.3-0.2,0.5-0.5,0.5c-0.3,0-0.5-0.2-0.5-0.5C33.5,40.8,33.7,40.6,33.9,40.6z"/>
			
				<path fill-rule="evenodd" clip-rule="evenodd" fill="#FFFFFF" stroke="#000000" stroke-width="5.528800e-02" stroke-miterlimit="2.4142" d="
				M33.1,41c0.3,0,0.5,0.2,0.5,0.5c0,0.3-0.2,0.5-0.5,0.5c-0.3,0-0.5-0.2-0.5-0.5C32.6,41.3,32.8,41,33.1,41z"/>
			
				<path fill-rule="evenodd" clip-rule="evenodd" fill="#FFFFFF" stroke="#000000" stroke-width="5.528800e-02" stroke-miterlimit="2.4142" d="
				M32.3,41.6c0.3,0,0.5,0.2,0.5,0.5c0,0.3-0.2,0.5-0.5,0.5c-0.3,0-0.5-0.2-0.5-0.5C31.8,41.8,32,41.6,32.3,41.6z"/>
			
				<circle fill-rule="evenodd" clip-rule="evenodd" fill="#FFFFFF" stroke="#000000" stroke-width="5.528800e-02" stroke-miterlimit="2.4142" cx="31.7" cy="42.8" r="0.5"/>
			
				<path fill-rule="evenodd" clip-rule="evenodd" fill="#FFFFFF" stroke="#000000" stroke-width="5.296200e-02" stroke-miterlimit="2.4142" d="
				M31.8,43.2c0.2,0,0.4,0.2,0.4,0.4c0,0.2-0.2,0.4-0.4,0.4s-0.4-0.2-0.4-0.4C31.4,43.4,31.6,43.2,31.8,43.2z"/>
			
				<path fill-rule="evenodd" clip-rule="evenodd" fill="#FFFFFF" stroke="#000000" stroke-width="5.296200e-02" stroke-miterlimit="2.4142" d="
				M32.2,44c0.2,0,0.4,0.2,0.4,0.4c0,0.2-0.2,0.4-0.4,0.4c-0.2,0-0.4-0.2-0.4-0.4C31.8,44.2,32,44,32.2,44z"/>
			
				<path fill-rule="evenodd" clip-rule="evenodd" fill="#FFFFFF" stroke="#000000" stroke-width="5.296200e-02" stroke-miterlimit="2.4142" d="
				M32.6,44.9c0.2,0,0.4,0.2,0.4,0.4c0,0.2-0.2,0.4-0.4,0.4c-0.2,0-0.4-0.2-0.4-0.4C32.2,45.1,32.4,44.9,32.6,44.9z"/>
			
				<path fill-rule="evenodd" clip-rule="evenodd" fill="#EDB92E" stroke="#000000" stroke-width="5.989000e-02" stroke-miterlimit="2.4142" d="
				M51.1,45.6c0,0,0.1-0.2,0.1-0.5c0-0.3-0.2-0.4-0.1-0.6c0.1-0.1,0.7-1,0.8-1.2c0.1-0.2,0-0.4-0.1-0.5c-0.1-0.1-0.5-0.4-1-0.6
				c-0.5-0.2-1-0.4-1-0.4l-0.4-0.8c0,0,1,0.2,1.9,0.7c0.9,0.5,1.3,0.7,1.4,1.1c0.2,0.4-0.1,1.1-0.2,1.4c-0.1,0.3-0.9,1.7-0.9,1.7
				L51.1,45.6L51.1,45.6z"/>
			<path d="M49.7,41.3c0.2,0,0.4,0.1,0.7,0.2c0.2,0.1,0.5,0.2,0.7,0.3c0.2,0.1,0.4,0.2,0.6,0.4c0.2,0.1,0.3,0.3,0.4,0.4
				c0.1,0.1,0.1,0.2,0.1,0.4c0,0.2,0,0.4-0.1,0.4c0,0.1-0.2,0.4-0.4,0.6c-0.1,0.2-0.3,0.4-0.3,0.5l0,0l0,0c0,0,0.1,0.7,0,1.1l0.1,0
				c0.2-0.4,0.1-1,0.1-1.1c0.1-0.1,0.2-0.3,0.3-0.5c0.2-0.3,0.3-0.5,0.4-0.6c0-0.1,0.1-0.3,0.1-0.5c0-0.1-0.1-0.3-0.1-0.4
				c-0.1-0.1-0.3-0.3-0.5-0.5c-0.2-0.1-0.4-0.3-0.6-0.4c-0.2-0.1-0.5-0.2-0.7-0.3C50.2,41.4,49.9,41.3,49.7,41.3L49.7,41.3
				L49.7,41.3z"/>
			
				<path fill-rule="evenodd" clip-rule="evenodd" fill="#FFFFFF" stroke="#000000" stroke-width="5.528800e-02" stroke-miterlimit="2.4142" d="
				M48.9,40c-0.3,0-0.5,0.2-0.5,0.5c0,0.3,0.2,0.5,0.5,0.5c0.3,0,0.5-0.2,0.5-0.5C49.4,40.2,49.2,40,48.9,40z"/>
			
				<path fill-rule="evenodd" clip-rule="evenodd" fill="#FFFFFF" stroke="#000000" stroke-width="5.528800e-02" stroke-miterlimit="2.4142" d="
				M49.8,40.3c-0.3,0-0.5,0.2-0.5,0.5c0,0.3,0.2,0.5,0.5,0.5c0.3,0,0.5-0.2,0.5-0.5C50.3,40.5,50.1,40.3,49.8,40.3z"/>
			
				<path fill-rule="evenodd" clip-rule="evenodd" fill="#FFFFFF" stroke="#000000" stroke-width="5.528800e-02" stroke-miterlimit="2.4142" d="
				M50.7,40.6c-0.3,0-0.5,0.2-0.5,0.5c0,0.3,0.2,0.5,0.5,0.5c0.3,0,0.5-0.2,0.5-0.5C51.2,40.8,51,40.6,50.7,40.6z"/>
			
				<path fill-rule="evenodd" clip-rule="evenodd" fill="#FFFFFF" stroke="#000000" stroke-width="5.528800e-02" stroke-miterlimit="2.4142" d="
				M51.6,41c-0.3,0-0.5,0.2-0.5,0.5c0,0.3,0.2,0.5,0.5,0.5c0.3,0,0.5-0.2,0.5-0.5C52.1,41.3,51.9,41,51.6,41z"/>
			
				<path fill-rule="evenodd" clip-rule="evenodd" fill="#FFFFFF" stroke="#000000" stroke-width="5.528800e-02" stroke-miterlimit="2.4142" d="
				M52.4,41.6c-0.3,0-0.5,0.2-0.5,0.5c0,0.3,0.2,0.5,0.5,0.5c0.3,0,0.5-0.2,0.5-0.5C52.8,41.8,52.6,41.6,52.4,41.6z"/>
			
				<circle fill-rule="evenodd" clip-rule="evenodd" fill="#FFFFFF" stroke="#000000" stroke-width="5.528800e-02" stroke-miterlimit="2.4142" cx="53" cy="42.8" r="0.5"/>
			
				<path fill-rule="evenodd" clip-rule="evenodd" fill="#FFFFFF" stroke="#000000" stroke-width="5.296200e-02" stroke-miterlimit="2.4142" d="
				M52.9,43.2c-0.2,0-0.4,0.2-0.4,0.4c0,0.2,0.2,0.4,0.4,0.4s0.4-0.2,0.4-0.4C53.3,43.4,53.1,43.2,52.9,43.2z"/>
			
				<path fill-rule="evenodd" clip-rule="evenodd" fill="#FFFFFF" stroke="#000000" stroke-width="5.296200e-02" stroke-miterlimit="2.4142" d="
				M52.5,44c-0.2,0-0.4,0.2-0.4,0.4c0,0.2,0.2,0.4,0.4,0.4c0.2,0,0.4-0.2,0.4-0.4C52.9,44.2,52.7,44,52.5,44z"/>
			
				<path fill-rule="evenodd" clip-rule="evenodd" fill="#FFFFFF" stroke="#000000" stroke-width="5.296200e-02" stroke-miterlimit="2.4142" d="
				M52,44.9c-0.2,0-0.4,0.2-0.4,0.4c0,0.2,0.2,0.4,0.4,0.4c0.2,0,0.4-0.2,0.4-0.4C52.5,45.1,52.3,44.9,52,44.9z"/>
			
				<path fill-rule="evenodd" clip-rule="evenodd" fill="#EDB92E" stroke="#000000" stroke-width="5.989000e-02" stroke-miterlimit="2.4142" d="
				M41.5,39.6c-0.4,0-2.2,0-2.8,0.1c-0.6,0.1-2,0.5-2.6,0.6c-0.6,0.2-1.2,0.5-1.4,1.2c-0.1,0.3,0.1,0.8,0.3,1.3
				c0.2,0.7,0.5,1.5,0.5,1.5s0.6,0.4,0.7,0.8l1.4-0.1c0,0-0.1-0.6,0.3-1c0,0-0.9-1.2-1-1.8c-0.2-0.6-0.2-1.1,0.4-1.5
				c0.6-0.3,1.5-0.5,1.9-0.5c0.4,0,2-0.1,2-0.1L41.5,39.6L41.5,39.6z"/>
			<path d="M41.2,40C41,40,40.5,40,40,40c-0.5,0-1,0-1.4,0.1c-0.5,0.1-1,0.2-1.5,0.5c-0.3,0.2-0.6,0.4-0.6,0.7c-0.1,0.3,0,0.6,0,0.8
				c0.1,0.3,0.2,0.5,0.3,0.7c0.2,0.4,0.8,1.2,0.8,1.2l0,0l0,0c0,0-0.2,0.6-0.2,1l0,0c0-0.4,0.2-0.9,0.2-1c-0.1-0.1-0.6-0.8-0.8-1.2
				c-0.1-0.2-0.2-0.5-0.3-0.7c-0.1-0.3-0.1-0.5,0-0.8c0-0.3,0.3-0.5,0.7-0.7c0.4-0.2,1-0.4,1.5-0.5c0.4-0.1,0.9-0.1,1.4-0.1
				C40.5,39.9,41,39.9,41.2,40L41.2,40L41.2,40z"/>
			<path d="M36.5,44.8c0,0-0.6-0.5-0.8-0.6l0,0l0,0c0,0-0.7-2-0.7-2.3c0-0.1,0-0.3,0-0.4c0.1-0.2,0.2-0.3,0.3-0.4
				c0.2-0.2,0.3-0.2,0.3-0.2l0,0c0,0-0.1,0-0.3,0.2c-0.1,0.1-0.2,0.2-0.3,0.4c-0.1,0.1-0.1,0.3,0,0.4c0.1,0.3,0.7,2.2,0.7,2.3
				C36,44.3,36.6,44.8,36.5,44.8L36.5,44.8L36.5,44.8z"/>
			
				<path fill-rule="evenodd" clip-rule="evenodd" fill="#EDB92E" stroke="#000000" stroke-width="5.989000e-02" stroke-miterlimit="2.4142" d="
				M43.2,39.6c0.4,0,2.2,0,2.8,0.1c0.6,0.1,2,0.5,2.6,0.6c0.6,0.2,1.2,0.5,1.4,1.2c0.1,0.3-0.1,0.8-0.3,1.3
				c-0.2,0.7-0.5,1.5-0.5,1.5s-0.6,0.4-0.7,0.8L47.1,45c0,0,0.1-0.6-0.3-1c0,0,0.9-1.2,1-1.8c0.2-0.6,0.2-1.1-0.4-1.5
				c-0.6-0.3-1.5-0.5-1.9-0.5c-0.4,0-2-0.1-2-0.1L43.2,39.6L43.2,39.6z"/>
			<path d="M43.5,40c0.2,0,0.7-0.1,1.2,0c0.5,0,1,0,1.4,0.1c0.5,0.1,1,0.2,1.5,0.5c0.3,0.2,0.6,0.4,0.6,0.7c0.1,0.3,0,0.6,0,0.8
				c-0.1,0.3-0.2,0.5-0.3,0.7c-0.2,0.4-0.8,1.2-0.8,1.2l0,0l0,0c0,0,0.2,0.6,0.2,1l0,0c0-0.4-0.2-0.9-0.2-1c0.1-0.1,0.6-0.8,0.8-1.2
				c0.1-0.2,0.2-0.5,0.3-0.7c0.1-0.3,0.1-0.5,0-0.8c0-0.3-0.3-0.5-0.7-0.7c-0.4-0.2-1-0.4-1.5-0.5c-0.4-0.1-0.9-0.1-1.4-0.1
				C44.1,39.9,43.7,39.9,43.5,40L43.5,40L43.5,40z"/>
			<path d="M48.1,44.8c0,0,0.6-0.5,0.8-0.6l0,0l0,0c0,0,0.7-2,0.7-2.3c0-0.1,0-0.3,0-0.4c-0.1-0.2-0.2-0.3-0.3-0.4
				c-0.2-0.2-0.3-0.2-0.3-0.2l0,0c0,0,0.1,0,0.3,0.2c0.1,0.1,0.2,0.2,0.3,0.4c0.1,0.1,0.1,0.3,0,0.4c-0.1,0.3-0.7,2.2-0.7,2.3
				C48.7,44.3,48.1,44.8,48.1,44.8L48.1,44.8L48.1,44.8z"/>
			
				<path fill-rule="evenodd" clip-rule="evenodd" fill="#EDB92E" stroke="#000000" stroke-width="5.989000e-02" stroke-miterlimit="2.4142" d="
				M41.6,44.6c-0.2-0.3-0.3-0.4-0.5-0.6c-0.2-0.2-0.3-0.2-0.2-0.4c0.1-0.2,0.3-1,0.3-1.5c0-0.5,0-1.4-0.1-1.8c0-0.3-0.1-0.7,0-0.8
				c0.1-0.1,0.7,0,0.7,0l0.6,0.1l0.6-0.1c0,0,0.6-0.1,0.7,0c0.1,0.1,0,0.4,0,0.8c0,0.3-0.1,1.3-0.1,1.8c0,0.5,0.2,1.3,0.3,1.5
				c0.1,0.2,0,0.2-0.2,0.4c-0.2,0.2-0.4,0.3-0.5,0.6c-0.3,0.3-0.7,0.1-0.7,0.1S41.9,45,41.6,44.6L41.6,44.6z"/>
			
				<path fill-rule="evenodd" clip-rule="evenodd" fill="#EDB92E" stroke="#000000" stroke-width="5.989000e-02" stroke-miterlimit="2.4142" d="
				M42.3,35.3c0,0,0.2,0,0.2,0.2c0,0,0.2,0,0.2,0.3c0,0.2-0.3,0.2-0.3,0.2s0,0.4,0,0.4c0,0.1,0,0.1,0.1,0.1c0,0,0.4,0,0.4,0
				s0-0.2,0.2-0.2c0.2,0,0.2,0.2,0.2,0.2s0.2,0,0.2,0.2c0,0.2-0.2,0.2-0.2,0.2s0,0.2-0.2,0.2C43,37.2,43,37,43,37s-0.3,0-0.3,0
				c0,0-0.1,0-0.1,0.1c0,0,0,0.8,0,0.8h-0.2h-0.2c0,0,0-0.7,0-0.8c0,0,0-0.1-0.1-0.1c0,0-0.3,0-0.3,0s-0.1,0.2-0.3,0.2
				c-0.2,0-0.2-0.2-0.2-0.2S41,37,41,36.7c0-0.2,0.2-0.2,0.2-0.2s0-0.2,0.2-0.2c0.2,0,0.2,0.2,0.2,0.2s0.3,0,0.4,0s0.1,0,0.1-0.1
				c0-0.1,0-0.4,0-0.4s-0.3,0-0.3-0.2c0-0.2,0.2-0.3,0.2-0.3C42.1,35.3,42.3,35.3,42.3,35.3L42.3,35.3z"/>
			
				<path fill-rule="evenodd" clip-rule="evenodd" fill="#0437A0" stroke="#000000" stroke-width="3.992600e-02" stroke-miterlimit="2.4142" d="
				M42.3,37.5c0.7,0,1.2,0.6,1.2,1.2S43,40,42.3,40s-1.2-0.6-1.2-1.2S41.6,37.5,42.3,37.5z"/>
			
				<path fill-rule="evenodd" clip-rule="evenodd" fill="#EDB92E" stroke="#000000" stroke-width="3.992600e-02" stroke-miterlimit="2.4142" d="
				M42.3,37.5c0.1,0,0.2,0,0.2,0V39h-0.5v-1.5C42.2,37.5,42.3,37.5,42.3,37.5L42.3,37.5z"/>
			
				<path fill-rule="evenodd" clip-rule="evenodd" fill="#EDB92E" stroke="#000000" stroke-width="3.992600e-02" stroke-miterlimit="2.4142" d="
				M43.6,38.5c0,0.1,0,0.1,0,0.2c0,0.1,0,0.2,0,0.2h-2.5c0-0.1,0-0.1,0-0.2c0-0.1,0-0.2,0-0.2H43.6L43.6,38.5z"/>
			<path d="M43.4,39.5c0,0.2-0.1,0.6-0.1,1.1c0,0.5-0.1,0.9-0.1,1.2c0,0.2,0,0.5,0.1,0.8c0.1,0.4,0.2,0.8,0.2,0.9
				c0.1,0.2,0,0.3-0.1,0.3l0,0c-0.2,0.1-0.3,0.3-0.4,0.5c0,0.1-0.1,0.1-0.1,0.2l-0.1,0c0-0.1,0.1-0.1,0.1-0.2
				c0.1-0.2,0.2-0.4,0.4-0.5l0,0c0.1-0.1,0.2-0.1,0.1-0.3c0-0.1-0.1-0.5-0.2-0.9c0-0.3-0.1-0.5-0.1-0.8c0-0.3,0-0.8,0.1-1.2
				C43.3,40.2,43.3,39.8,43.4,39.5L43.4,39.5L43.4,39.5z"/>
			<path d="M41.3,39.5c0,0.2,0.1,0.6,0.1,1.1c0,0.5,0.1,0.9,0.1,1.2c0,0.2,0,0.5-0.1,0.8c-0.1,0.4-0.2,0.8-0.2,0.9
				c-0.1,0.2,0,0.2,0.1,0.3l0,0c0.2,0.1,0.3,0.3,0.4,0.5c0,0.1,0.1,0.1,0.1,0.2l-0.1,0c0-0.1-0.1-0.1-0.1-0.2
				c-0.1-0.2-0.2-0.4-0.4-0.5l0,0c-0.1-0.1-0.2-0.1-0.1-0.3c0-0.1,0.1-0.5,0.2-0.9c0-0.3,0.1-0.5,0.1-0.8c0-0.3,0-0.8-0.1-1.2
				C41.3,40.2,41.3,39.8,41.3,39.5L41.3,39.5L41.3,39.5z"/>
			
				<circle fill-rule="evenodd" clip-rule="evenodd" fill="#FFFFFF" stroke="#000000" stroke-width="5.989100e-02" stroke-miterlimit="2.4142" cx="42.3" cy="39.7" r="0.5"/>
			
				<path fill-rule="evenodd" clip-rule="evenodd" fill="#FFFFFF" stroke="#000000" stroke-width="5.989100e-02" stroke-miterlimit="2.4142" d="
				M42.3,39.9c0.3,0,0.5,0.2,0.5,0.5c0,0.3-0.2,0.5-0.5,0.5c-0.3,0-0.5-0.2-0.5-0.5C41.8,40.1,42,39.9,42.3,39.9z"/>
			
				<path fill-rule="evenodd" clip-rule="evenodd" fill="#FFFFFF" stroke="#000000" stroke-width="5.989100e-02" stroke-miterlimit="2.4142" d="
				M42.3,43.4c0.3,0,0.5,0.2,0.5,0.5c0,0.3-0.2,0.5-0.5,0.5c-0.3,0-0.5-0.2-0.5-0.5C41.8,43.6,42,43.4,42.3,43.4z"/>
			
				<path fill-rule="evenodd" clip-rule="evenodd" fill="#FFFFFF" stroke="#000000" stroke-width="5.989100e-02" stroke-miterlimit="2.4142" d="
				M42.3,42.4c0.3,0,0.5,0.2,0.5,0.5c0,0.3-0.2,0.5-0.5,0.5c-0.3,0-0.5-0.2-0.5-0.5C41.8,42.7,42,42.4,42.3,42.4z"/>
			
				<path fill-rule="evenodd" clip-rule="evenodd" fill="#FFFFFF" stroke="#000000" stroke-width="5.989100e-02" stroke-miterlimit="2.4142" d="
				M42.3,41.6c0.3,0,0.5,0.2,0.5,0.5c0,0.3-0.2,0.5-0.5,0.5c-0.3,0-0.5-0.2-0.5-0.5C41.8,41.8,42,41.6,42.3,41.6z"/>
			
				<path fill-rule="evenodd" clip-rule="evenodd" fill="#FFFFFF" stroke="#000000" stroke-width="5.989100e-02" stroke-miterlimit="2.4142" d="
				M42.3,40.7c0.3,0,0.5,0.2,0.5,0.5c0,0.3-0.2,0.5-0.5,0.5c-0.3,0-0.5-0.2-0.5-0.5C41.8,40.9,42,40.7,42.3,40.7z"/>
			
				<path fill-rule="evenodd" clip-rule="evenodd" fill="#FFFFFF" stroke="#000000" stroke-width="5.528800e-02" stroke-miterlimit="2.4142" d="
				M40.6,38.9c0.3,0,0.5,0.2,0.5,0.5c0,0.3-0.2,0.5-0.5,0.5c-0.3,0-0.5-0.2-0.5-0.5C40.1,39.1,40.3,38.9,40.6,38.9z"/>
			
				<path fill-rule="evenodd" clip-rule="evenodd" fill="#FFFFFF" stroke="#000000" stroke-width="5.528800e-02" stroke-miterlimit="2.4142" d="
				M39.7,39c0.3,0,0.5,0.2,0.5,0.5s-0.2,0.5-0.5,0.5c-0.3,0-0.5-0.2-0.5-0.5S39.4,39,39.7,39z"/>
			
				<circle fill-rule="evenodd" clip-rule="evenodd" fill="#FFFFFF" stroke="#000000" stroke-width="5.528800e-02" stroke-miterlimit="2.4142" cx="38.8" cy="39.5" r="0.5"/>
			
				<path fill-rule="evenodd" clip-rule="evenodd" fill="#FFFFFF" stroke="#000000" stroke-width="5.528800e-02" stroke-miterlimit="2.4142" d="
				M37.9,39.2c0.3,0,0.5,0.2,0.5,0.5s-0.2,0.5-0.5,0.5c-0.3,0-0.5-0.2-0.5-0.5S37.6,39.2,37.9,39.2z"/>
			
				<path fill-rule="evenodd" clip-rule="evenodd" fill="#FFFFFF" stroke="#000000" stroke-width="5.528800e-02" stroke-miterlimit="2.4142" d="
				M37,39.5c0.3,0,0.5,0.2,0.5,0.5c0,0.3-0.2,0.5-0.5,0.5c-0.3,0-0.5-0.2-0.5-0.5C36.6,39.7,36.8,39.5,37,39.5z"/>
			
				<path fill-rule="evenodd" clip-rule="evenodd" fill="#FFFFFF" stroke="#000000" stroke-width="5.528800e-02" stroke-miterlimit="2.4142" d="
				M36.3,39.9c0.3,0,0.5,0.2,0.5,0.5c0,0.3-0.2,0.5-0.5,0.5c-0.3,0-0.5-0.2-0.5-0.5C35.8,40.1,36,39.9,36.3,39.9z"/>
			
				<path fill-rule="evenodd" clip-rule="evenodd" fill="#FFFFFF" stroke="#000000" stroke-width="5.528800e-02" stroke-miterlimit="2.4142" d="
				M35.7,40.5c0.3,0,0.5,0.2,0.5,0.5s-0.2,0.5-0.5,0.5c-0.3,0-0.5-0.2-0.5-0.5S35.5,40.5,35.7,40.5z"/>
			
				<path fill-rule="evenodd" clip-rule="evenodd" fill="#FFFFFF" stroke="#000000" stroke-width="5.528800e-02" stroke-miterlimit="2.4142" d="
				M35.6,41.4c0.3,0,0.5,0.2,0.5,0.5c0,0.3-0.2,0.5-0.5,0.5c-0.3,0-0.5-0.2-0.5-0.5C35.2,41.6,35.4,41.4,35.6,41.4z"/>
			
				<circle fill-rule="evenodd" clip-rule="evenodd" fill="#FFFFFF" stroke="#000000" stroke-width="5.528800e-02" stroke-miterlimit="2.4142" cx="36.6" cy="44.3" r="0.5"/>
			
				<path fill-rule="evenodd" clip-rule="evenodd" fill="#FFFFFF" stroke="#000000" stroke-width="5.528800e-02" stroke-miterlimit="2.4142" d="
				M36.3,43.1c0.3,0,0.5,0.2,0.5,0.5c0,0.3-0.2,0.5-0.5,0.5c-0.3,0-0.5-0.2-0.5-0.5C35.8,43.3,36,43.1,36.3,43.1z"/>
			
				<path fill-rule="evenodd" clip-rule="evenodd" fill="#FFFFFF" stroke="#000000" stroke-width="5.528800e-02" stroke-miterlimit="2.4142" d="
				M35.9,42.3c0.3,0,0.5,0.2,0.5,0.5c0,0.3-0.2,0.5-0.5,0.5c-0.3,0-0.5-0.2-0.5-0.5C35.4,42.5,35.6,42.3,35.9,42.3z"/>
			
				<path fill-rule="evenodd" clip-rule="evenodd" fill="#FFFFFF" stroke="#000000" stroke-width="5.528800e-02" stroke-miterlimit="2.4142" d="
				M44.1,38.9c-0.3,0-0.5,0.2-0.5,0.5c0,0.3,0.2,0.5,0.5,0.5c0.3,0,0.5-0.2,0.5-0.5C44.5,39.1,44.3,38.9,44.1,38.9z"/>
			
				<path fill-rule="evenodd" clip-rule="evenodd" fill="#FFFFFF" stroke="#000000" stroke-width="5.528800e-02" stroke-miterlimit="2.4142" d="
				M45,39c-0.3,0-0.5,0.2-0.5,0.5s0.2,0.5,0.5,0.5c0.3,0,0.5-0.2,0.5-0.5S45.2,39,45,39z"/>
			
				<path fill-rule="evenodd" clip-rule="evenodd" fill="#FFFFFF" stroke="#000000" stroke-width="5.528800e-02" stroke-miterlimit="2.4142" d="
				M45.9,39c-0.3,0-0.5,0.2-0.5,0.5s0.2,0.5,0.5,0.5c0.3,0,0.5-0.2,0.5-0.5S46.2,39,45.9,39z"/>
			
				<circle fill-rule="evenodd" clip-rule="evenodd" fill="#FFFFFF" stroke="#000000" stroke-width="5.528800e-02" stroke-miterlimit="2.4142" cx="46.8" cy="39.7" r="0.5"/>
			
				<path fill-rule="evenodd" clip-rule="evenodd" fill="#FFFFFF" stroke="#000000" stroke-width="5.528800e-02" stroke-miterlimit="2.4142" d="
				M47.6,39.5c-0.3,0-0.5,0.2-0.5,0.5c0,0.3,0.2,0.5,0.5,0.5c0.3,0,0.5-0.2,0.5-0.5C48.1,39.7,47.9,39.5,47.6,39.5z"/>
			
				<path fill-rule="evenodd" clip-rule="evenodd" fill="#FFFFFF" stroke="#000000" stroke-width="5.528800e-02" stroke-miterlimit="2.4142" d="
				M48.4,39.9c-0.3,0-0.5,0.2-0.5,0.5c0,0.3,0.2,0.5,0.5,0.5c0.3,0,0.5-0.2,0.5-0.5C48.8,40.1,48.6,39.9,48.4,39.9z"/>
			
				<path fill-rule="evenodd" clip-rule="evenodd" fill="#FFFFFF" stroke="#000000" stroke-width="5.528800e-02" stroke-miterlimit="2.4142" d="
				M48.9,40.5c-0.3,0-0.5,0.2-0.5,0.5s0.2,0.5,0.5,0.5s0.5-0.2,0.5-0.5S49.2,40.5,48.9,40.5z"/>
			
				<path fill-rule="evenodd" clip-rule="evenodd" fill="#FFFFFF" stroke="#000000" stroke-width="5.528800e-02" stroke-miterlimit="2.4142" d="
				M49,41.4c-0.3,0-0.5,0.2-0.5,0.5c0,0.3,0.2,0.5,0.5,0.5c0.3,0,0.5-0.2,0.5-0.5C49.5,41.6,49.3,41.4,49,41.4z"/>
			
				<path fill-rule="evenodd" clip-rule="evenodd" fill="#FFFFFF" stroke="#000000" stroke-width="5.528800e-02" stroke-miterlimit="2.4142" d="
				M48.1,43.8c-0.3,0-0.5,0.2-0.5,0.5c0,0.3,0.2,0.5,0.5,0.5c0.3,0,0.5-0.2,0.5-0.5C48.5,44,48.3,43.8,48.1,43.8z"/>
			
				<path fill-rule="evenodd" clip-rule="evenodd" fill="#FFFFFF" stroke="#000000" stroke-width="5.528800e-02" stroke-miterlimit="2.4142" d="
				M48.4,43.1c-0.3,0-0.5,0.2-0.5,0.5c0,0.3,0.2,0.5,0.5,0.5c0.3,0,0.5-0.2,0.5-0.5C48.9,43.3,48.7,43.1,48.4,43.1z"/>
			
				<path fill-rule="evenodd" clip-rule="evenodd" fill="#FFFFFF" stroke="#000000" stroke-width="5.528800e-02" stroke-miterlimit="2.4142" d="
				M48.8,42.3c-0.3,0-0.5,0.2-0.5,0.5c0,0.3,0.2,0.5,0.5,0.5c0.3,0,0.5-0.2,0.5-0.5C49.2,42.5,49,42.3,48.8,42.3z"/>
			
				<path fill-rule="evenodd" clip-rule="evenodd" fill="#EDB92E" stroke="#000000" stroke-width="5.989000e-02" stroke-miterlimit="2.4142" d="
				M42.3,44.1c0.1,0,0.2,0,0.4,0.2c0.1,0.2,0.2,0.2,0.4,0.2c0.2,0,0.3,0.1,0.2,0.3c-0.1,0.2-0.3,0.3-0.5,0.5
				c-0.1,0.1-0.2,0.3-0.2,0.3s0.1,0.1,0.2,0.2c0,0,0,0,0,0c0.1,0,0.2-0.1,0.4-0.3c0.2-0.2,0.3-0.3,0.5-0.4c0.2,0,0.3,0.1,0.2,0.2
				c0,0.2-0.1,0.3,0.1,0.4c0.2,0.1,0.3,0.2,0.3,0.4c0,0.2-0.1,0.3-0.3,0.4c-0.2,0.1-0.1,0.3-0.1,0.4c0,0.1-0.2,0.3-0.4,0.2
				c-0.2-0.2-0.4-0.4-0.5-0.5c-0.1-0.1-0.2-0.1-0.2-0.1l0,0c0,0,0,0.4,0,0.7c0,0.2,0.2,0.8,0.8,0.8c0.6,0,1-0.7,1.1-1
				c0,0,0-0.1,0-0.1c0,0-0.1-0.1-0.1-0.1c0,0,0-0.1-0.1-0.1c-0.1,0-0.1-0.1-0.1-0.1c0-0.1,0.2-0.2,0.4-0.1c0.2,0.1,0.2,0,0.3,0
				c0.1,0,0.3,0,0.4,0.1c0.1,0.2-0.1,0.1-0.2,0.1c-0.1,0-0.1,0.1-0.1,0.2c0,0.1,0,0.1,0,0.2c0,0.1,0.3,0.9,0.7,1
				c0.4,0,0.7-0.5,0.8-0.6c0.1-0.1,0.3-0.5,0.3-0.5s0-0.1-0.1-0.1c0,0-0.2,0.1-0.3,0.2c-0.1,0.1-0.6,0.4-0.7,0.3
				c-0.1-0.1,0.1-0.3,0-0.5c0-0.1-0.3-0.2-0.3-0.4c0-0.2,0-0.2,0.1-0.3c0.1-0.1,0.3-0.1,0.4-0.2c0.1-0.1,0-0.5,0.1-0.5
				c0.1-0.1,0.3,0,0.4,0.1c0.1,0.1,0.1,0.2,0.2,0.4c0.1,0.1,0.3,0.3,0.3,0.3s0-0.1,0.1-0.1c0,0,0-0.2-0.1-0.3
				c-0.1-0.1-0.3-0.4-0.3-0.6c0-0.2,0-0.4,0.2-0.3c0.2,0.1,0.3,0,0.4-0.1c0.1-0.1,0.2-0.3,0.4-0.3c0.2,0,0.3,0.3,0.3,0.4
				c0,0.1,0,0.2,0.2,0.2c0.2,0,0.3,0.1,0.2,0.3c-0.1,0.2-0.2,0.3-0.4,0.4C48.2,45.8,48,46,48,46s0.1,0.1,0.1,0.2
				c0,0,0.4-0.3,0.5-0.4c0.2-0.1,0.4-0.3,0.5-0.2c0.1,0.1-0.1,0.2-0.1,0.4c0,0.2,0.2,0.3,0.1,0.4c0,0.1-0.1,0.3-0.3,0.4
				c-0.2,0.1-0.3,0.3-0.3,0.4c0,0.1-0.2,0.4-0.3,0.2c-0.1-0.2-0.2-0.3-0.2-0.4c0-0.1-0.1-0.2-0.1-0.2c0,0,0,0,0,0.1c0,0,0,0.7,0.1,1
				c0.1,0.2,0.3,0.4,0.5,0.2c0.2-0.1,0.6-0.6,0.7-0.7c0.1,0,0.1-0.2,0-0.3c0,0-0.2,0-0.2-0.1c0-0.1,0.2-0.1,0.3-0.1
				c0,0,0.1,0.1,0.2,0.1c0.1,0,0.2,0,0.3,0.1c0.1,0.1,0.1,0.2,0,0.2c-0.1,0-0.2,0-0.2,0c0,0.1-0.1,0.1-0.1,0.2c0,0.1,0,0.8,0.3,0.9
				c0.3,0.1,0.6-0.7,0.7-0.8c0-0.1-0.1-0.1-0.1,0c-0.1,0.1-0.4,0.4-0.5,0.3c-0.1-0.1,0.1-0.3,0.1-0.4c0-0.1,0-0.3,0-0.4
				c0-0.1,0-0.2,0-0.4c0.1-0.1,0.2-0.2,0.3-0.2c0.1,0,0.2-0.1,0.3-0.2s0.1-0.3,0.2-0.3s0.1,0.1,0.1,0.3c0,0.1,0,0.3,0,0.3
				c0,0,0.1,0,0.1,0c0-0.1,0.1-0.4,0.1-0.5C51,45.8,51,45.6,51,45.6c0-0.1,0.1-0.1,0.2-0.1c0.1,0,0.2,0.1,0.5,0.1
				c0.3-0.1,0.6,0,0.7,0c0.1,0.1,0.2,0.2,0.1,0.3c0,0.1-0.1,0.2-0.1,0.2c-0.1,0-0.3,0-0.4,0c-0.1,0-0.2-0.1-0.2,0.1
				c0,0.1-0.1,0.2-0.2,0.4c-0.1,0.1-0.2,0.1-0.2,0.2c0,0.1,0,0.1-0.1,0.1c0,0,0,0.1,0,0.1c0,0-0.2,0.3-0.2,0.4
				c0,0.1-0.1,0.2-0.1,0.2c0,0-0.1,0.1-0.1,0.1c0,0,0,0.2-0.1,0.3c-0.1,0.2-0.4,0.5-0.4,0.6c-0.1,0.1-0.4,0.7-0.4,0.7
				s0.3,0.1,0.2,0.3c0,0.2-0.4,0.2-0.4,0.2l0,0.1c0,0,0.2,0.4,0.1,0.9c-0.1,0.5-0.4,0.8-0.4,0.8l0,0.1c0,0,0.2,0.1,0.2,0.2
				c0,0.2-0.5,0.3-0.5,0.3h-6.8h-6.8c0,0-0.4-0.1-0.5-0.3c0-0.2,0.2-0.2,0.2-0.2l0-0.1c0,0-0.3-0.2-0.4-0.8
				c-0.1-0.5,0.1-0.9,0.1-0.9l0-0.1c0,0-0.3,0-0.4-0.2c0-0.2,0.2-0.3,0.2-0.3s-0.3-0.7-0.4-0.7c-0.1-0.1-0.4-0.4-0.4-0.6
				c-0.1-0.2,0-0.3-0.1-0.3c0,0-0.1-0.1-0.1-0.1c0,0-0.1-0.1-0.1-0.2s-0.2-0.4-0.2-0.4s0-0.1,0-0.1c0,0-0.1,0-0.1-0.1
				c0-0.1-0.1-0.1-0.2-0.2c-0.1-0.1-0.1-0.2-0.2-0.4c0-0.1-0.1-0.1-0.2-0.1c-0.1,0-0.3,0-0.4,0c-0.1,0-0.1-0.1-0.1-0.2
				c0-0.1,0-0.2,0.1-0.3c0.1-0.1,0.4-0.1,0.7,0c0.3,0.1,0.4,0,0.5-0.1c0.1,0,0.1,0,0.2,0.1c0,0.1,0,0.3-0.1,0.4
				c-0.1,0.1,0,0.4,0.1,0.5c0,0.1,0.1,0.1,0.1,0c0,0,0-0.2,0-0.3c0-0.1,0-0.2,0.1-0.3c0.1,0,0.2,0.1,0.2,0.3
				c0.1,0.1,0.1,0.2,0.3,0.2c0.1,0,0.2,0.1,0.3,0.2c0.1,0.1,0.1,0.3,0,0.4c0,0.1,0,0.3,0,0.4c0,0.1,0.2,0.3,0.1,0.4
				c-0.1,0.1-0.4-0.2-0.5-0.3c-0.1-0.1-0.2-0.1-0.1,0c0,0.1,0.4,0.9,0.7,0.8c0.3-0.1,0.3-0.8,0.3-0.9c0-0.1,0-0.1-0.1-0.2
				c0-0.1-0.1,0-0.2,0c-0.1,0,0-0.1,0-0.2c0.1-0.1,0.2,0,0.3-0.1c0.1,0,0.2-0.1,0.2-0.1c0,0,0.2,0,0.3,0.1c0,0.1-0.1,0.1-0.2,0.1
				c0,0-0.1,0.2,0,0.3c0.1,0,0.5,0.5,0.7,0.7c0.2,0.1,0.4,0,0.5-0.2c0.1-0.2,0.1-1,0.1-1c0,0,0-0.1,0-0.1c0,0-0.1,0.1-0.1,0.2
				c0,0.1-0.1,0.3-0.2,0.4c-0.1,0.2-0.3-0.1-0.3-0.2s-0.2-0.3-0.3-0.4c-0.2-0.1-0.2-0.2-0.3-0.4c0-0.1,0.2-0.3,0.2-0.4
				c0-0.1-0.2-0.3-0.1-0.4c0.1-0.1,0.3,0.1,0.5,0.2c0.2,0.1,0.5,0.4,0.5,0.4c0-0.1,0.1-0.2,0.1-0.2s-0.2-0.2-0.4-0.3
				c-0.2-0.1-0.3-0.3-0.4-0.4c-0.1-0.2,0-0.3,0.2-0.3c0.2,0,0.2-0.1,0.2-0.2c0-0.1,0.1-0.3,0.3-0.4c0.2,0,0.3,0.2,0.4,0.3
				c0.1,0.1,0.2,0.2,0.4,0.1c0.2-0.1,0.3,0.1,0.2,0.3c0,0.2-0.2,0.5-0.3,0.6c-0.1,0.1-0.1,0.3-0.1,0.3c0.1,0,0.1,0.1,0.1,0.1
				s0.2-0.2,0.3-0.3c0.1-0.1,0.1-0.3,0.2-0.4c0.1-0.1,0.2-0.2,0.4-0.1c0.1,0.1,0,0.4,0.1,0.5c0.1,0.1,0.3,0.1,0.4,0.2
				c0.1,0.1,0.1,0.1,0.1,0.3c0,0.2-0.3,0.3-0.3,0.4c0,0.1,0.1,0.3,0,0.5c-0.1,0.1-0.5-0.2-0.7-0.3c-0.1-0.1-0.3-0.2-0.3-0.2
				c0,0-0.1,0.1-0.1,0.1s0.2,0.4,0.3,0.5c0.1,0.1,0.5,0.7,0.8,0.6c0.4,0,0.7-0.9,0.7-1c0-0.1,0.1-0.1,0-0.2c0-0.1-0.1-0.1-0.1-0.2
				c-0.1,0-0.3,0-0.2-0.1c0.1-0.2,0.3-0.1,0.4-0.1c0.1,0,0.1,0,0.3,0c0.2-0.1,0.4,0,0.4,0.1c0,0.1,0,0.1-0.1,0.1
				c-0.1,0-0.1,0.1-0.1,0.1c0,0.1-0.1,0.1-0.1,0.1c0,0,0,0.1,0,0.1c0.1,0.3,0.5,1,1.1,1c0.6,0,0.8-0.6,0.8-0.8c0-0.2,0-0.7,0-0.7
				l0,0c0,0-0.1,0.1-0.2,0.1c-0.1,0.1-0.3,0.3-0.5,0.5c-0.2,0.2-0.4,0-0.4-0.2c0-0.1,0.1-0.3-0.1-0.4c-0.2-0.1-0.3-0.2-0.3-0.4
				c0-0.2,0.1-0.3,0.3-0.4c0.2-0.1,0.1-0.2,0.1-0.4c0-0.2,0.1-0.3,0.2-0.2c0.2,0,0.3,0.2,0.5,0.4c0.1,0.2,0.3,0.3,0.4,0.3
				c0,0,0,0,0,0c0-0.1,0.2-0.2,0.2-0.2s-0.1-0.2-0.2-0.3c-0.1-0.1-0.4-0.3-0.5-0.5c-0.1-0.2,0-0.3,0.2-0.3c0.2,0,0.3,0,0.4-0.2
				C42.1,44.1,42.2,44.1,42.3,44.1L42.3,44.1z M34.8,45.4c-0.1,0-0.1,0.1-0.1,0.3c0,0.1,0.1,0.2,0.2,0.2c0.1,0,0.1-0.1,0.1-0.3
				C35,45.4,34.9,45.3,34.8,45.4L34.8,45.4z M39.5,44.7c-0.1,0-0.2,0.1-0.1,0.2c0,0.1,0.1,0.2,0.2,0.2c0.1,0,0.2-0.1,0.1-0.2
				C39.7,44.8,39.6,44.7,39.5,44.7L39.5,44.7z M49.9,45.4c0.1,0,0.1,0.1,0.1,0.3c0,0.1-0.1,0.2-0.2,0.2c-0.1,0-0.1-0.1-0.1-0.3
				C49.7,45.4,49.8,45.3,49.9,45.4L49.9,45.4z M45.1,44.7c0.1,0,0.2,0.1,0.1,0.2c0,0.1-0.1,0.2-0.2,0.2c-0.1,0-0.2-0.1-0.1-0.2
				C45,44.8,45,44.7,45.1,44.7L45.1,44.7z"/>
			<path d="M46.3,45.2L46.3,45.2L46.3,45.2c0,0,0.1,0,0.1,0.1c0.1,0.1,0.3,0.3,0.1,0.5l0,0c-0.2,0.2-0.3,0.4-0.2,0.7
				c0.1,0.1,0.1,0.3,0.1,0.4c0,0.1-0.1,0.2-0.3,0.2l0,0c0.2,0,0.2-0.1,0.3-0.2c0-0.1,0-0.2-0.1-0.3c-0.1-0.3,0-0.5,0.2-0.7l0,0
				c0.1-0.2,0-0.3-0.1-0.4C46.3,45.3,46.3,45.3,46.3,45.2L46.3,45.2L46.3,45.2L46.3,45.2L46.3,45.2z"/>
			<path d="M49.1,45.6C49,45.6,49,45.6,49.1,45.6c-0.2,0.2-0.3,0.2-0.3,0.4c0,0,0,0.1,0,0.1c0,0.2,0,0.4-0.2,0.7
				c-0.1,0.1-0.2,0.2-0.2,0.3c0,0.1,0,0.2,0,0.3l0,0c-0.1-0.1-0.1-0.2-0.1-0.3c0-0.1,0.1-0.2,0.2-0.4c0.2-0.2,0.2-0.4,0.2-0.6
				c0,0,0-0.1,0-0.1C48.7,45.8,48.8,45.7,49.1,45.6C49,45.6,49,45.6,49.1,45.6L49.1,45.6L49.1,45.6z"/>
			<path d="M47.1,44.7C47.1,44.7,47.1,44.8,47.1,44.7c0,0.2,0,0.4,0.2,0.4c0.1,0,0.2,0,0.2-0.1c0.1-0.1,0.2-0.1,0.3-0.1
				c0.1,0,0.2,0.1,0.3,0.2c0.1,0.1,0.1,0.1,0.2,0.1c0.2,0,0.3-0.3,0.3-0.3l0,0c0,0-0.2,0.3-0.4,0.3c-0.1,0-0.1-0.1-0.2-0.1
				C48.1,45.1,48,45,47.9,45c-0.1,0-0.2,0-0.3,0.1c-0.1,0.1-0.2,0.1-0.3,0.1C47.1,45.1,47.1,44.9,47.1,44.7
				C47,44.8,47,44.7,47.1,44.7L47.1,44.7L47.1,44.7z"/>
			<path d="M47,46.6c0,0-0.1-0.4,0.2-0.7l0,0C46.9,46.2,47,46.6,47,46.6L47,46.6L47,46.6z"/>
			<path d="M47.3,45.9c0.1,0,0.2-0.1,0.4-0.1c0.1,0,0.2,0.1,0.3,0.2l0,0c-0.1-0.1-0.2-0.1-0.3-0.2C47.5,45.8,47.4,45.9,47.3,45.9
				L47.3,45.9L47.3,45.9z"/>
			<path d="M48.1,46.1c0,0.1,0,0.2,0,0.4c0,0.1-0.1,0.2-0.2,0.3l0,0c0.1-0.1,0.1-0.2,0.2-0.3C48.1,46.3,48.1,46.2,48.1,46.1
				L48.1,46.1L48.1,46.1z"/>
			<path d="M47.1,46.7c0.1,0.1,0.2,0.1,0.3,0.2c0.1,0,0.3,0,0.5-0.1l0,0C47.6,47,47.5,47,47.3,47C47.2,46.9,47.1,46.9,47.1,46.7
				L47.1,46.7L47.1,46.7z"/>
			<path d="M47.8,46c0.1,0.1,0.1,0.2,0.2,0.3c0,0.1,0,0.2-0.1,0.3c-0.1,0.1-0.2,0.2-0.3,0.2c-0.1,0-0.2,0-0.3,0
				c-0.1,0-0.2-0.1-0.2-0.2c0-0.1,0-0.2,0-0.3c0,0,0,0,0-0.1c0.1-0.1,0.1-0.2,0.2-0.2C47.5,45.9,47.6,45.9,47.8,46
				C47.7,46,47.8,46,47.8,46L47.8,46L47.8,46L47.8,46z M47.9,46.3c0-0.1-0.1-0.2-0.1-0.3c0,0,0,0,0,0c-0.1,0-0.2,0-0.3,0
				c-0.1,0-0.2,0.1-0.2,0.2c0,0,0,0,0,0.1c0,0.1,0,0.2,0,0.3c0,0.1,0.1,0.2,0.2,0.2c0.1,0,0.2,0,0.3,0c0.1,0,0.2-0.1,0.2-0.2
				C47.9,46.5,47.9,46.4,47.9,46.3L47.9,46.3z"/>
			<path d="M50.7,45.9c0,0.1,0.1,0.2,0,0.4c0,0.1-0.1,0.2-0.2,0.3c-0.1,0.1-0.2,0.2-0.3,0.4c-0.1,0.2-0.1,0.4,0,0.6l0,0
				c0-0.2,0-0.4,0.1-0.6c0.1-0.2,0.2-0.3,0.3-0.4c0.1-0.1,0.2-0.2,0.2-0.3C50.8,46.2,50.7,46,50.7,45.9L50.7,45.9L50.7,45.9z"/>
			<path d="M51.2,45.4c0,0.1,0,0.2,0,0.3c0,0.1,0.1,0.1,0.2,0.2c0.1,0,0.2,0,0.3-0.1c0.1,0,0.2-0.1,0.3-0.1c0.1,0,0.2,0.1,0.2,0.1
				c0.1,0,0.1,0.1,0.1,0.1l0,0c0,0-0.1-0.1-0.1-0.1c0,0-0.1-0.1-0.2-0.1c-0.1,0-0.2,0-0.2,0.1c-0.1,0.1-0.2,0.1-0.3,0.1
				c-0.1,0-0.2-0.1-0.2-0.2C51.1,45.7,51.1,45.6,51.2,45.4L51.2,45.4L51.2,45.4z"/>
			<path d="M51.8,46c0,0,0-0.1,0-0.1c0-0.1,0-0.1,0.1-0.1l0,0C51.9,45.8,51.9,45.9,51.8,46C51.8,46,51.8,46,51.8,46L51.8,46L51.8,46
				z"/>
			<path d="M51,47.4c-0.1,0-0.2-0.1-0.2-0.1c-0.1-0.1-0.1-0.1-0.1-0.2c0-0.1,0-0.2,0.1-0.3c0.1-0.1,0.1-0.2,0.2-0.2
				c0.1,0,0.2,0,0.2,0c0.1,0,0.2,0.1,0.2,0.1l0,0c-0.1-0.1-0.1-0.1-0.2-0.1c-0.1,0-0.2,0-0.2,0c-0.1,0-0.1,0.1-0.2,0.2
				c0,0.1-0.1,0.2-0.1,0.2c0,0.1,0,0.1,0.1,0.2C50.8,47.3,50.9,47.4,51,47.4L51,47.4L51,47.4z"/>
			<path d="M50.8,47.6c-0.1,0-0.1-0.1-0.2-0.2c-0.1-0.1-0.1-0.2-0.1-0.3c0-0.1,0.1-0.2,0.1-0.3c0.1-0.1,0.1-0.2,0.2-0.2
				c0.1,0,0.1-0.1,0.2-0.1c0.1,0,0.1,0,0.2,0c0.1,0,0.3,0.2,0.3,0.2l0,0c0,0-0.1-0.1-0.3-0.2c-0.1,0-0.1,0-0.2,0
				c-0.1,0-0.1,0-0.2,0.1c-0.1,0-0.1,0.1-0.2,0.2c0,0.1-0.1,0.2-0.1,0.3c0,0.1,0,0.2,0.1,0.3C50.7,47.5,50.8,47.5,50.8,47.6
				L50.8,47.6L50.8,47.6z"/>
			<path d="M50.3,48.5c0,0-0.1,0.1-0.1,0.1c-0.2,0.1-0.4,0.3-0.6,0.2c-0.1,0-0.2-0.1-0.3-0.2c-0.1-0.1-0.1-0.3-0.2-0.4
				c0,0,0-0.1,0-0.1c0-0.1,0-0.2,0-0.2c0,0-0.1,0-0.2,0.1c-0.2,0.2-0.4,0.4-0.6,0.5c-0.2,0.1-0.4,0.2-0.5,0.1
				c-0.2,0-0.3-0.1-0.4-0.3c-0.1-0.1-0.2-0.3-0.2-0.5c0-0.2,0-0.2,0-0.2c0,0,0,0,0,0.1l0,0c0,0,0,0.1-0.1,0.1
				c-0.1,0.1-0.3,0.4-0.5,0.5c-0.2,0.1-0.4,0.2-0.6,0.2c-0.2,0-0.5-0.1-0.6-0.2C45.2,48.2,45,48,45,47.8c0-0.1,0-0.2,0-0.2
				c0,0,0,0,0,0.1c0,0,0,0.1,0,0.1c-0.1,0.1-0.2,0.4-0.5,0.6c-0.2,0.1-0.4,0.2-0.7,0.2c-0.3,0-0.6-0.1-0.9-0.3
				c-0.2-0.2-0.4-0.5-0.4-0.7v-0.1l0,0c0,0.3,0.2,0.6,0.4,0.8c0.2,0.2,0.5,0.3,0.8,0.3c0.3,0,0.5-0.1,0.7-0.2
				c0.3-0.2,0.5-0.4,0.5-0.6c0,0,0-0.1,0-0.1c0-0.1,0-0.1,0-0.1c0,0,0.1,0.1,0.1,0.2c0,0.2,0.2,0.4,0.4,0.5c0.2,0.1,0.4,0.2,0.6,0.2
				c0.2,0,0.4-0.1,0.5-0.1c0.3-0.2,0.4-0.4,0.5-0.5c0,0,0.1-0.1,0.1-0.1l0,0c0,0,0-0.1,0.1-0.1c0,0,0.1,0.1,0.1,0.3
				c0,0.2,0.1,0.4,0.2,0.5c0.1,0.1,0.2,0.2,0.4,0.2c0.1,0,0.3,0,0.5-0.1c0.2-0.1,0.5-0.3,0.6-0.5c0.1-0.1,0.2-0.2,0.2-0.1
				c0,0,0,0.1,0,0.2c0,0,0,0.1,0,0.1c0,0.1,0.1,0.3,0.1,0.4c0.1,0.1,0.2,0.2,0.3,0.2c0.2,0,0.4-0.1,0.5-0.2
				C50.2,48.5,50.2,48.5,50.3,48.5L50.3,48.5L50.3,48.5z"/>
			<path d="M42.3,48.8c0.2,0,1.6,0,2.7,0c0.6,0,1.2,0,1.5,0.1c0.7,0.1,3.4,0.3,3.4,0.3l0,0c0,0-2.7-0.2-3.4-0.3
				c-0.3,0-0.8,0-1.5-0.1C43.9,48.8,42.5,48.8,42.3,48.8L42.3,48.8L42.3,48.8z"/>
			<path d="M42.3,49.2c0.2,0,1.1,0,2,0.1c0.8,0,1.7,0.1,1.9,0.1c0.5,0,3.6,0.3,3.6,0.3l0,0c0,0-3-0.3-3.6-0.3c-0.2,0-1.1,0-1.9-0.1
				C43.4,49.3,42.5,49.3,42.3,49.2L42.3,49.2L42.3,49.2z"/>
			<path d="M42.3,51.2c0.3,0,1.1,0,1.9,0c0.6,0,1.1,0,1.6,0.1c1.2,0.1,3.6,0.2,3.6,0.2l0,0c0,0-2.4-0.2-3.6-0.2c-0.5,0-1,0-1.6-0.1
				C43.4,51.2,42.6,51.2,42.3,51.2L42.3,51.2L42.3,51.2z"/>
			<path d="M42.3,51.7c0.3,0,1.9,0,3.1,0.1c0.7,0,1.4,0,1.6,0.1l0.2,0l-0.2,0L45.7,52l0,0l1.2-0.2c-0.3,0-0.9,0-1.5-0.1
				C44.2,51.7,42.6,51.7,42.3,51.7L42.3,51.7L42.3,51.7z"/>
			<polygon points="42.3,49.4 44,50.2 44,50.3 44,50.3 42.3,51.1 42.3,51.1 44,50.3 42.3,49.4 42.3,49.4 			"/>
			<path d="M44.4,50.2l1.7-0.8l0,0l0,0l1.6,1l0,0l0,0L46,51.2l0,0l0,0L44.4,50.2L44.4,50.2L44.4,50.2L44.4,50.2z M46.1,49.5
				l-1.7,0.7l1.6,0.9l1.7-0.7L46.1,49.5L46.1,49.5z"/>
			<polygon points="49.4,51.5 47.9,50.5 47.9,50.4 48,50.4 49.8,49.7 49.8,49.8 48,50.4 49.4,51.4 49.4,51.5 			"/>
			<path d="M43.9,45.1c-0.1,0-0.2,0.1-0.2,0.1c-0.1,0-0.1,0.1-0.1,0.2c0,0.1,0.1,0.2,0.1,0.3c0.1,0.1,0.1,0.2,0.1,0.3
				c0,0.1-0.1,0.2-0.1,0.3c-0.1,0.1-0.1,0.2-0.1,0.2c0,0.1,0.3,0.3,0.3,0.3l0,0c0,0-0.3-0.2-0.3-0.4c0-0.1,0.1-0.2,0.1-0.3
				c0.1-0.1,0.1-0.2,0.1-0.3c0-0.1-0.1-0.2-0.1-0.3c-0.1-0.1-0.1-0.2-0.1-0.3c0-0.1,0.1-0.2,0.1-0.2C43.7,45.1,43.8,45.1,43.9,45.1
				L43.9,45.1L43.9,45.1z"/>
			<path d="M42.3,44.5c0.1,0,0.1,0,0.2,0.1c0.1,0,0.2,0.1,0.2,0.2l0,0c0,0,0,0,0.1,0l0,0c0,0,0.1,0,0.1,0c0.1,0,0.1-0.1,0.1-0.1
				c0,0,0.1-0.1,0.1-0.2l0,0c0,0.1,0,0.1-0.1,0.2c0,0.1-0.1,0.1-0.2,0.1c-0.1,0-0.1,0-0.2,0l0,0c0,0-0.1,0-0.1,0l0,0
				c-0.1-0.1-0.2-0.1-0.2-0.2C42.5,44.6,42.4,44.5,42.3,44.5L42.3,44.5L42.3,44.5z"/>
			<path d="M42.3,46.6c0.1,0,0.2,0,0.2-0.1c0.1,0,0.2-0.1,0.2-0.2c0-0.1,0.1-0.2,0.1-0.3c0-0.1,0-0.2,0-0.3l0,0c0,0.1,0.1,0.2,0,0.3
				c0,0.1,0,0.3-0.1,0.4c0,0.1-0.1,0.1-0.2,0.2C42.5,46.6,42.4,46.7,42.3,46.6L42.3,46.6L42.3,46.6z"/>
			<path d="M42.3,45.4c0.1,0,0.1,0,0.2,0c0.1,0,0.1,0,0.1,0.1l0,0c0,0-0.1,0-0.1-0.1C42.4,45.5,42.4,45.5,42.3,45.4L42.3,45.4
				L42.3,45.4z"/>
			<path d="M42.3,45.6c0.1,0,0.2,0.1,0.3,0.1c0.1,0.1,0.1,0.2,0.1,0.3c0,0.1,0,0.2-0.1,0.3c-0.1,0.1-0.2,0.1-0.3,0.2l0,0
				c0.2,0,0.3-0.1,0.3-0.2c0.1-0.1,0.1-0.1,0.1-0.3c0-0.1-0.1-0.2-0.1-0.3C42.5,45.7,42.4,45.6,42.3,45.6L42.3,45.6L42.3,45.6z"/>
			<path d="M43.5,45.7c0,0-0.1,0.1-0.2,0.1c-0.2,0.1-0.3,0.1-0.4,0.1l0,0c0,0,0.2-0.1,0.4-0.1C43.3,45.7,43.4,45.7,43.5,45.7
				L43.5,45.7L43.5,45.7z"/>
			<path d="M43.5,46.4c-0.1-0.1-0.2-0.1-0.3-0.2c-0.1-0.1-0.3-0.1-0.3-0.1v0c0,0,0.2,0,0.3,0.1C43.3,46.3,43.4,46.3,43.5,46.4
				L43.5,46.4L43.5,46.4z"/>
			<path d="M42.7,44.9c-0.2,0.2-0.2,0.4-0.2,0.5c0,0,0,0,0,0l0,0c0,0,0,0,0,0C42.5,45.3,42.5,45.1,42.7,44.9L42.7,44.9L42.7,44.9z"
				/>
			<path d="M46.6,45.9c0,0.1,0.1,0.1,0.2,0.2c0.1,0.1,0.2,0.1,0.2,0.1l0,0c-0.1,0-0.2-0.1-0.3-0.1C46.7,46,46.6,45.9,46.6,45.9
				L46.6,45.9L46.6,45.9z"/>
			<path d="M46.5,46.6c0.1,0,0.2-0.1,0.3-0.1c0.1,0,0.2-0.1,0.3-0.1v0c-0.1,0-0.2,0-0.3,0.1C46.6,46.5,46.5,46.6,46.5,46.6
				L46.5,46.6L46.5,46.6z"/>
			<path d="M48.6,46.1c-0.1,0.1-0.2,0.1-0.2,0.1c-0.1,0-0.2,0.1-0.3,0.1l0,0c0.1,0,0.2,0,0.3-0.1C48.4,46.2,48.5,46.2,48.6,46.1
				L48.6,46.1L48.6,46.1z"/>
			<path d="M48.3,46.9c-0.1-0.2-0.3-0.3-0.3-0.3l0,0C48,46.6,48.2,46.7,48.3,46.9L48.3,46.9L48.3,46.9z"/>
			<path d="M47.5,45.3c0,0.1,0,0.1,0.1,0.2c0,0.1,0,0.3,0,0.3h0c0,0,0-0.2,0-0.3C47.5,45.4,47.5,45.3,47.5,45.3L47.5,45.3L47.5,45.3
				z"/>
			<path d="M48.1,45.4c0,0-0.1,0.1-0.2,0.2c-0.1,0.1-0.2,0.2-0.2,0.3l0,0c0,0,0.1-0.2,0.2-0.3C48,45.5,48.1,45.4,48.1,45.4
				L48.1,45.4L48.1,45.4z"/>
			<path d="M51.4,46.1c0,0.1,0,0.1,0,0.2c0,0.1-0.1,0.2-0.1,0.2l0,0c0,0,0.1-0.1,0.1-0.2C51.4,46.2,51.4,46.2,51.4,46.1L51.4,46.1
				L51.4,46.1z"/>
			<path d="M38.4,45.2L38.4,45.2L38.4,45.2c0,0-0.1,0-0.1,0.1c-0.1,0.1-0.3,0.3-0.1,0.5l0,0c0.2,0.2,0.3,0.4,0.2,0.7
				c-0.1,0.1-0.1,0.3-0.1,0.4c0,0.1,0.1,0.2,0.3,0.2l0,0c-0.2,0-0.2-0.1-0.3-0.2c0-0.1,0-0.2,0.1-0.3c0.1-0.3,0-0.5-0.2-0.7l0,0
				c-0.1-0.2,0-0.3,0.1-0.4C38.3,45.3,38.4,45.3,38.4,45.2L38.4,45.2L38.4,45.2L38.4,45.2L38.4,45.2z"/>
			<path d="M35.6,45.6C35.6,45.6,35.6,45.6,35.6,45.6c0.2,0.2,0.3,0.2,0.3,0.4c0,0,0,0.1,0,0.1c0,0.2,0,0.4,0.2,0.7
				c0.1,0.1,0.2,0.2,0.2,0.3c0,0.1,0,0.2,0,0.3l0,0c0.1-0.1,0.1-0.2,0-0.3c0-0.1-0.1-0.2-0.2-0.4c-0.2-0.2-0.2-0.4-0.2-0.6
				c0,0,0-0.1,0-0.1C36,45.8,35.9,45.7,35.6,45.6C35.7,45.6,35.6,45.6,35.6,45.6L35.6,45.6L35.6,45.6z"/>
			<path d="M37.6,44.7C37.6,44.7,37.6,44.8,37.6,44.7c0,0.2,0,0.4-0.2,0.4c-0.1,0-0.2,0-0.2-0.1c-0.1-0.1-0.2-0.1-0.3-0.1
				c-0.2,0-0.2,0.1-0.3,0.2c-0.1,0.1-0.1,0.1-0.2,0.1C36.2,45.3,36,45,36,45l0,0c0,0,0.2,0.3,0.4,0.3c0.1,0,0.1-0.1,0.2-0.1
				c0.1-0.1,0.1-0.2,0.3-0.2c0.1,0,0.2,0,0.3,0.1c0.1,0.1,0.2,0.1,0.3,0.1C37.6,45.1,37.6,44.9,37.6,44.7
				C37.6,44.8,37.6,44.7,37.6,44.7L37.6,44.7L37.6,44.7z"/>
			<path d="M37.7,46.6c0,0,0.1-0.4-0.2-0.7l0,0C37.7,46.2,37.6,46.6,37.7,46.6L37.7,46.6L37.7,46.6z"/>
			<path d="M37.4,45.9c-0.1,0-0.2-0.1-0.4-0.1c-0.1,0-0.2,0.1-0.3,0.2l0,0c0.1-0.1,0.2-0.1,0.3-0.2C37.1,45.8,37.3,45.9,37.4,45.9
				L37.4,45.9L37.4,45.9z"/>
			<path d="M36.6,46.1c0,0.1,0,0.2,0,0.4c0,0.1,0.1,0.2,0.2,0.3l0,0c-0.1-0.1-0.1-0.2-0.2-0.3C36.6,46.3,36.6,46.2,36.6,46.1
				L36.6,46.1L36.6,46.1z"/>
			<path d="M37.6,46.7c-0.1,0.1-0.2,0.1-0.3,0.2c-0.1,0-0.3,0-0.5-0.1l0,0C37,47,37.2,47,37.3,47C37.4,46.9,37.5,46.9,37.6,46.7
				L37.6,46.7L37.6,46.7z"/>
			<path d="M36.9,46c-0.1,0.1-0.1,0.2-0.2,0.3c0,0.1,0,0.2,0.1,0.3c0.1,0.1,0.2,0.2,0.3,0.2c0.1,0,0.2,0,0.3,0
				c0.1,0,0.2-0.1,0.2-0.2c0-0.1,0-0.2,0-0.3c0,0,0,0,0-0.1c-0.1-0.1-0.1-0.2-0.2-0.2C37.1,45.9,37,45.9,36.9,46
				C36.9,46,36.9,46,36.9,46L36.9,46L36.9,46L36.9,46z M36.8,46.3c0-0.1,0.1-0.2,0.1-0.3c0,0,0,0,0,0c0.1,0,0.2,0,0.3,0
				c0.1,0,0.2,0.1,0.2,0.2c0,0,0,0,0,0.1c0,0.1,0,0.2,0,0.3c0,0.1-0.1,0.2-0.2,0.2c-0.1,0-0.2,0-0.3,0c-0.1,0-0.2-0.1-0.2-0.2
				C36.8,46.5,36.8,46.4,36.8,46.3L36.8,46.3z"/>
			<path d="M33.9,45.9c0,0.1-0.1,0.2,0,0.4c0,0.1,0.1,0.2,0.2,0.3c0.1,0.1,0.2,0.2,0.3,0.4c0.1,0.2,0.1,0.4,0.1,0.6l0,0
				c0-0.2,0-0.4-0.1-0.6c-0.1-0.2-0.2-0.3-0.3-0.4c-0.1-0.1-0.2-0.2-0.2-0.3C33.9,46.2,33.9,46,33.9,45.9L33.9,45.9L33.9,45.9z"/>
			<path d="M33.5,45.4c0,0.1,0,0.2,0,0.3c0,0.1-0.1,0.1-0.2,0.2c-0.1,0-0.2,0-0.3-0.1c-0.1,0-0.2-0.1-0.3-0.1
				c-0.1,0-0.2,0.1-0.2,0.1c-0.1,0-0.1,0.1-0.1,0.1l0,0c0,0,0-0.1,0.1-0.1c0,0,0.1-0.1,0.2-0.1c0.1,0,0.2,0,0.2,0.1
				c0.1,0.1,0.2,0.1,0.3,0.1c0.1,0,0.2-0.1,0.2-0.2C33.5,45.7,33.5,45.6,33.5,45.4L33.5,45.4L33.5,45.4z"/>
			<path d="M32.9,46c0,0,0-0.1,0-0.1c0-0.1,0-0.1-0.1-0.1l0,0C32.8,45.8,32.8,45.9,32.9,46C32.8,46,32.8,46,32.9,46L32.9,46L32.9,46
				z"/>
			<path d="M33.7,47.4c0.1,0,0.2-0.1,0.2-0.1c0.1-0.1,0.1-0.1,0.1-0.2c0-0.1,0-0.2-0.1-0.3c-0.1-0.1-0.1-0.2-0.2-0.2
				c-0.1,0-0.2,0-0.2,0c-0.1,0-0.2,0.1-0.2,0.1l0,0c0.1-0.1,0.1-0.1,0.2-0.1c0.1,0,0.2,0,0.2,0c0.1,0,0.1,0.1,0.2,0.2
				c0,0.1,0.1,0.2,0.1,0.2c0,0.1,0,0.1-0.1,0.2C33.8,47.3,33.8,47.4,33.7,47.4L33.7,47.4L33.7,47.4z"/>
			<path d="M33.8,47.6c0.1,0,0.1-0.1,0.2-0.2c0.1-0.1,0.1-0.2,0.1-0.3c0-0.1-0.1-0.2-0.1-0.3c-0.1-0.1-0.1-0.2-0.2-0.2
				c-0.1,0-0.1-0.1-0.2-0.1c-0.1,0-0.1,0-0.2,0c-0.1,0-0.3,0.2-0.3,0.2l0,0c0,0,0.1-0.1,0.3-0.2c0.1,0,0.1,0,0.2,0
				c0.1,0,0.1,0,0.2,0.1c0.1,0,0.1,0.1,0.2,0.2c0,0.1,0.1,0.2,0.1,0.3c0,0.1,0,0.2-0.1,0.3C34,47.5,33.9,47.5,33.8,47.6L33.8,47.6
				L33.8,47.6z"/>
			<path d="M34.4,48.5c0,0,0.1,0.1,0.1,0.1c0.2,0.1,0.4,0.3,0.6,0.2c0.1,0,0.2-0.1,0.3-0.2c0.1-0.1,0.1-0.3,0.1-0.4c0,0,0-0.1,0-0.1
				c0-0.1,0-0.2,0-0.2c0,0,0.1,0,0.2,0.1c0.2,0.2,0.4,0.4,0.6,0.5c0.2,0.1,0.4,0.2,0.5,0.1c0.2,0,0.3-0.1,0.4-0.3
				c0.1-0.1,0.2-0.3,0.2-0.5c0-0.2,0-0.2,0-0.2s0,0,0,0.1l0,0c0,0,0,0.1,0.1,0.1c0.1,0.1,0.3,0.4,0.5,0.5c0.2,0.1,0.4,0.2,0.6,0.2
				c0.2,0,0.5-0.1,0.6-0.2c0.2-0.2,0.3-0.4,0.4-0.5c0-0.1,0-0.2,0-0.2c0,0,0,0,0,0.1c0,0,0,0.1,0,0.1c0,0.1,0.2,0.4,0.5,0.6
				c0.2,0.1,0.4,0.2,0.7,0.2c0.3,0,0.6-0.1,0.9-0.3c0.2-0.2,0.4-0.5,0.4-0.7v-0.1l0,0c0,0.3-0.2,0.6-0.5,0.8
				c-0.2,0.2-0.5,0.3-0.8,0.3c-0.3,0-0.5-0.1-0.7-0.2c-0.3-0.2-0.5-0.4-0.5-0.6c0,0,0-0.1,0-0.1c0-0.1,0-0.1,0-0.1
				c0,0-0.1,0.1-0.1,0.2c0,0.2-0.2,0.4-0.4,0.5c-0.2,0.1-0.4,0.2-0.6,0.2c-0.2,0-0.4-0.1-0.5-0.1c-0.2-0.2-0.4-0.4-0.5-0.5
				c0,0-0.1-0.1-0.1-0.1l0,0c0,0,0-0.1-0.1-0.1c0,0-0.1,0.1-0.1,0.3c0,0.2-0.1,0.4-0.2,0.5c-0.1,0.1-0.2,0.2-0.4,0.2
				c-0.1,0-0.3,0-0.5-0.1c-0.2-0.1-0.5-0.3-0.6-0.5c-0.1-0.1-0.2-0.2-0.2-0.1c0,0,0,0.1,0,0.2c0,0,0,0.1,0,0.1
				c0,0.1-0.1,0.3-0.1,0.4c-0.1,0.1-0.2,0.2-0.3,0.2c-0.2,0-0.4-0.1-0.5-0.2C34.5,48.5,34.4,48.5,34.4,48.5L34.4,48.5L34.4,48.5z"/>
			<path d="M42.3,48.8c-0.2,0-1.6,0-2.7,0c-0.7,0-1.2,0-1.5,0.1c-0.7,0.1-3.4,0.3-3.4,0.3l0,0c0,0,2.7-0.2,3.4-0.3
				c0.3,0,0.8,0,1.5-0.1C40.8,48.8,42.1,48.8,42.3,48.8L42.3,48.8L42.3,48.8z"/>
			<path d="M42.3,49.2c-0.2,0-1.1,0-2,0.1c-0.8,0-1.7,0.1-1.9,0.1c-0.5,0-3.6,0.3-3.6,0.3l0,0c0,0,3-0.3,3.6-0.3
				c0.2,0,1.1,0,1.9-0.1C41.2,49.3,42.2,49.3,42.3,49.2L42.3,49.2L42.3,49.2z"/>
			<path d="M42.3,51.2c-0.3,0-1.1,0-1.9,0c-0.6,0-1.1,0-1.6,0.1c-1.2,0.1-3.6,0.2-3.6,0.2l0,0c0,0,2.4-0.2,3.6-0.2
				c0.5,0,1,0,1.6-0.1C41.2,51.2,42,51.2,42.3,51.2L42.3,51.2L42.3,51.2z"/>
			<path d="M42.3,51.7c-0.3,0-1.9,0-3.1,0.1c-0.7,0-1.4,0-1.6,0.1l-0.2,0l0.2,0l1.4,0.2l0,0l-1.2-0.2c0.3,0,0.9,0,1.5-0.1
				C40.5,51.7,42,51.7,42.3,51.7L42.3,51.7L42.3,51.7z"/>
			<polygon points="42.3,49.4 40.6,50.2 40.6,50.3 40.6,50.3 42.3,51.1 42.3,51.1 40.7,50.3 42.3,49.4 42.3,49.4 			"/>
			<path d="M40.3,50.2l-1.7-0.8l0,0l0,0l-1.6,1l0,0l0,0l1.7,0.7l0,0l0,0L40.3,50.2L40.3,50.2L40.3,50.2L40.3,50.2z M38.5,49.5
				l1.7,0.7l-1.6,0.9L37,50.5L38.5,49.5L38.5,49.5z"/>
			<polygon points="35.3,51.5 36.7,50.5 36.7,50.4 36.7,50.4 34.9,49.7 34.9,49.8 36.7,50.4 35.2,51.4 35.3,51.5 			"/>
			<path d="M40.7,45.1c0.1,0,0.2,0.1,0.2,0.1c0.1,0,0.1,0.1,0.1,0.2c0,0.1-0.1,0.2-0.1,0.3c-0.1,0.1-0.1,0.2-0.1,0.3
				c0,0.1,0.1,0.2,0.1,0.3c0.1,0.1,0.1,0.2,0.1,0.2c0,0.1-0.3,0.3-0.3,0.3l0,0c0,0,0.3-0.2,0.3-0.4c0-0.1-0.1-0.2-0.1-0.3
				c-0.1-0.1-0.1-0.2-0.1-0.3c0-0.1,0.1-0.2,0.1-0.3c0.1-0.1,0.1-0.2,0.1-0.3c0-0.1-0.1-0.2-0.1-0.2C40.9,45.1,40.8,45.1,40.7,45.1
				L40.7,45.1L40.7,45.1z"/>
			<path d="M42.3,44.5c-0.1,0-0.1,0-0.2,0.1c-0.1,0-0.2,0.1-0.2,0.2l0,0c0,0,0,0-0.1,0l0,0c0,0-0.1,0-0.1,0c-0.1,0-0.1-0.1-0.1-0.1
				c0,0-0.1-0.1-0.1-0.2l0,0c0,0.1,0,0.1,0.1,0.2c0,0.1,0.1,0.1,0.2,0.1c0.1,0,0.1,0,0.2,0l0,0c0,0,0.1,0,0.1,0l0,0
				c0.1-0.1,0.2-0.1,0.2-0.2C42.2,44.6,42.3,44.5,42.3,44.5L42.3,44.5L42.3,44.5z"/>
			<path d="M42.3,46.6c-0.1,0-0.2,0-0.2-0.1c-0.1,0-0.2-0.1-0.2-0.2c0-0.1-0.1-0.2-0.1-0.3c0-0.1,0-0.2,0-0.3l0,0
				c0,0.1-0.1,0.2,0,0.3c0,0.1,0,0.3,0.1,0.4c0,0.1,0.1,0.1,0.2,0.2C42.2,46.6,42.3,46.7,42.3,46.6L42.3,46.6L42.3,46.6z"/>
			<path d="M42.3,45.5c0,0-0.1,0-0.2,0c-0.1,0-0.1,0-0.1,0.1l0,0c0,0,0.1,0,0.1-0.1C42.2,45.4,42.3,45.4,42.3,45.5L42.3,45.5
				L42.3,45.5z"/>
			<path d="M42.3,45.6c-0.1,0-0.2,0.1-0.3,0.1c-0.1,0.1-0.1,0.2-0.1,0.3c0,0.1,0,0.2,0.1,0.3c0.1,0.1,0.2,0.1,0.3,0.2l0,0
				c-0.2,0-0.3-0.1-0.3-0.2c-0.1-0.1-0.1-0.1-0.1-0.3c0-0.1,0-0.2,0.1-0.3C42.1,45.7,42.2,45.6,42.3,45.6L42.3,45.6L42.3,45.6z"/>
			<path d="M41.2,45.7c0,0,0.1,0.1,0.2,0.1c0.2,0.1,0.3,0.1,0.4,0.1l0,0c0,0-0.2-0.1-0.4-0.1C41.3,45.7,41.2,45.7,41.2,45.7
				L41.2,45.7L41.2,45.7z"/>
			<path d="M41.2,46.4c0.1-0.1,0.2-0.1,0.3-0.2c0.1-0.1,0.3-0.1,0.3-0.1l0,0c0,0-0.2,0-0.3,0.1C41.4,46.3,41.3,46.3,41.2,46.4
				L41.2,46.4L41.2,46.4z"/>
			<path d="M42,44.9c0.2,0.2,0.2,0.4,0.2,0.5c0,0,0,0,0,0l0,0c0,0,0,0,0,0C42.2,45.3,42.2,45.1,42,44.9L42,44.9L42,44.9z"/>
			<path d="M38.1,45.9c0,0.1-0.1,0.1-0.2,0.2c-0.1,0.1-0.2,0.1-0.2,0.1l0,0c0.1,0,0.2-0.1,0.3-0.1C38,46,38.1,45.9,38.1,45.9
				L38.1,45.9L38.1,45.9z"/>
			<path d="M38.2,46.6c-0.1,0-0.2-0.1-0.3-0.1c-0.1,0-0.2-0.1-0.3-0.1v0c0.1,0,0.2,0,0.3,0.1C38,46.5,38.1,46.6,38.2,46.6L38.2,46.6
				L38.2,46.6z"/>
			<path d="M36.1,46.1c0.1,0.1,0.2,0.1,0.2,0.1c0.1,0,0.2,0.1,0.3,0.1l0,0c-0.1,0-0.2,0-0.3-0.1C36.2,46.2,36.1,46.2,36.1,46.1
				L36.1,46.1L36.1,46.1z"/>
			<path d="M36.3,46.9c0.1-0.2,0.3-0.3,0.3-0.3l0,0C36.6,46.6,36.4,46.7,36.3,46.9L36.3,46.9L36.3,46.9z"/>
			<path d="M37.2,45.3c0,0.1,0,0.1-0.1,0.2c0,0.1,0,0.3,0,0.3h0c0,0,0-0.2,0-0.3C37.2,45.4,37.2,45.3,37.2,45.3L37.2,45.3L37.2,45.3
				z"/>
			<path d="M36.5,45.4c0,0,0.1,0.1,0.2,0.2c0.1,0.1,0.2,0.2,0.2,0.3l0,0c0,0-0.1-0.2-0.2-0.3C36.7,45.5,36.6,45.4,36.5,45.4
				L36.5,45.4L36.5,45.4z"/>
			<path d="M33.3,46.1c0,0.1,0,0.1,0,0.2c0,0.1,0.1,0.2,0.1,0.2l0,0c0,0-0.1-0.1-0.1-0.2C33.3,46.2,33.3,46.2,33.3,46.1L33.3,46.1
				L33.3,46.1z"/>
			
				<path fill-rule="evenodd" clip-rule="evenodd" fill="#FFFFFF" stroke="#000000" stroke-width="3.992600e-02" stroke-miterlimit="2.4142" d="
				M49.8,45.6c0.3,0.1,0.2,0.7,0,1c-0.2,0.3-0.4,0.5-0.5,0.4c-0.1,0-0.2-0.4-0.2-0.7C49.2,46.1,49.3,45.5,49.8,45.6L49.8,45.6z"/>
			
				<path fill-rule="evenodd" clip-rule="evenodd" fill="#FFFFFF" stroke="#000000" stroke-width="3.992600e-02" stroke-miterlimit="2.4142" d="
				M45.4,46c-0.2,0.5-0.5,0.8-0.7,0C44.4,44.5,45.8,44.8,45.4,46L45.4,46z"/>
			
				<path fill-rule="evenodd" clip-rule="evenodd" fill="#0437A0" stroke="#000000" stroke-width="3.992600e-02" stroke-miterlimit="2.4142" d="
				M47.7,46.5c-0.1,0.2-0.4,0.1-0.4,0c-0.1-0.2,0.1-0.4,0.3-0.4C47.8,46.2,47.9,46.4,47.7,46.5L47.7,46.5z"/>
			
				<path fill-rule="evenodd" clip-rule="evenodd" fill="#0437A0" stroke="#000000" stroke-width="3.992600e-02" stroke-miterlimit="2.4142" d="
				M50.9,46.9c-0.1,0.1-0.1,0.2,0,0.3c0.1,0.1,0.3,0.1,0.4-0.1c0.1-0.1,0-0.3-0.1-0.3C51.1,46.7,51,46.8,50.9,46.9L50.9,46.9z"/>
			
				<path fill-rule="evenodd" clip-rule="evenodd" fill="#0437A0" stroke="#000000" stroke-width="3.992600e-02" stroke-miterlimit="2.4142" d="
				M42.3,45.8c0.1,0,0.2,0.1,0.2,0.3c0,0.2-0.2,0.3-0.2,0.3c-0.1,0-0.3-0.1-0.3-0.3C42.1,45.9,42.2,45.8,42.3,45.8L42.3,45.8z"/>
			
				<path fill-rule="evenodd" clip-rule="evenodd" fill="#0437A0" stroke="#000000" stroke-width="3.992600e-02" stroke-miterlimit="2.4142" d="
				M42.3,49.7c0.2,0,0.8,0.1,0.8,0.5c0,0.4-0.3,0.5-0.8,0.5c-0.4,0-0.8-0.1-0.8-0.5C41.6,49.8,42.1,49.7,42.3,49.7L42.3,49.7z"/>
			
				<path fill-rule="evenodd" clip-rule="evenodd" fill="#FF1612" stroke="#000000" stroke-width="3.992600e-02" stroke-miterlimit="2.4142" d="
				M46.8,50.3c0,0.7-1.5,0.7-1.5,0C45.3,49.6,46.8,49.6,46.8,50.3L46.8,50.3z"/>
			
				<path fill-rule="evenodd" clip-rule="evenodd" fill="#0437A0" stroke="#000000" stroke-width="3.992600e-02" stroke-miterlimit="2.4142" d="
				M49.3,50.1c0.3,0,0.6,0,0.7,0.2c0.1,0.2,0,0.5-0.1,0.6c-0.1,0.1-0.3,0.2-0.5,0.1C48.7,50.9,48.7,50.2,49.3,50.1L49.3,50.1z"/>
			
				<path fill-rule="evenodd" clip-rule="evenodd" fill="#FFFFFF" stroke="#000000" stroke-width="3.992600e-02" stroke-miterlimit="2.4142" d="
				M47.9,49.6c0.1,0,0.2,0.1,0.2,0.2c0,0.1-0.1,0.2-0.2,0.2s-0.2-0.1-0.2-0.2C47.7,49.8,47.8,49.6,47.9,49.6z"/>
			
				<path fill-rule="evenodd" clip-rule="evenodd" fill="#FFFFFF" stroke="#000000" stroke-width="3.992600e-02" stroke-miterlimit="2.4142" d="
				M47.8,50.8c0.1,0,0.2,0.1,0.2,0.2c0,0.1-0.1,0.2-0.2,0.2c-0.1,0-0.2-0.1-0.2-0.2C47.5,50.9,47.6,50.8,47.8,50.8z"/>
			
				<path fill-rule="evenodd" clip-rule="evenodd" fill="#FFFFFF" stroke="#000000" stroke-width="3.992600e-02" stroke-miterlimit="2.4142" d="
				M44.1,50.6c0.1,0,0.2,0.1,0.2,0.2c0,0.1-0.1,0.2-0.2,0.2c-0.1,0-0.2-0.1-0.2-0.2C43.9,50.7,44,50.6,44.1,50.6z"/>
			
				<path fill-rule="evenodd" clip-rule="evenodd" fill="#FFFFFF" stroke="#000000" stroke-width="3.992600e-02" stroke-miterlimit="2.4142" d="
				M44.2,49.5c0.1,0,0.2,0.1,0.2,0.2c0,0.1-0.1,0.2-0.2,0.2c-0.1,0-0.2-0.1-0.2-0.2C43.9,49.6,44,49.5,44.2,49.5z"/>
			
				<path fill-rule="evenodd" clip-rule="evenodd" fill="#FFFFFF" stroke="#000000" stroke-width="3.992600e-02" stroke-miterlimit="2.4142" d="
				M34.8,45.6c-0.3,0.1-0.2,0.7,0,1c0.2,0.3,0.4,0.5,0.5,0.4c0.1,0,0.2-0.4,0.2-0.7C35.4,46.1,35.3,45.5,34.8,45.6L34.8,45.6z"/>
			
				<path fill-rule="evenodd" clip-rule="evenodd" fill="#FFFFFF" stroke="#000000" stroke-width="3.992600e-02" stroke-miterlimit="2.4142" d="
				M39.3,46c0.2,0.5,0.5,0.8,0.7,0C40.2,44.5,38.9,44.8,39.3,46L39.3,46z"/>
			
				<path fill-rule="evenodd" clip-rule="evenodd" fill="#0437A0" stroke="#000000" stroke-width="3.992600e-02" stroke-miterlimit="2.4142" d="
				M37,46.5c0.1,0.2,0.3,0.1,0.4,0c0.1-0.2-0.1-0.4-0.3-0.4C36.9,46.2,36.8,46.4,37,46.5L37,46.5z"/>
			
				<path fill-rule="evenodd" clip-rule="evenodd" fill="#0437A0" stroke="#000000" stroke-width="3.992600e-02" stroke-miterlimit="2.4142" d="
				M33.8,46.9c0.1,0.1,0.1,0.2,0,0.3c-0.1,0.1-0.3,0.1-0.4-0.1c-0.1-0.1,0-0.3,0.1-0.3C33.5,46.7,33.7,46.8,33.8,46.9L33.8,46.9z"/>
			
				<path fill-rule="evenodd" clip-rule="evenodd" fill="#FF1612" stroke="#000000" stroke-width="3.992600e-02" stroke-miterlimit="2.4142" d="
				M37.8,50.3c0,0.7,1.5,0.7,1.5,0C39.3,49.6,37.8,49.6,37.8,50.3L37.8,50.3z"/>
			
				<path fill-rule="evenodd" clip-rule="evenodd" fill="#0437A0" stroke="#000000" stroke-width="3.992600e-02" stroke-miterlimit="2.4142" d="
				M35.3,50.1c-0.3,0-0.6,0-0.7,0.2c-0.1,0.2,0,0.5,0.1,0.6c0.1,0.1,0.3,0.2,0.5,0.1C35.9,50.9,36,50.2,35.3,50.1L35.3,50.1z"/>
			
				<path fill-rule="evenodd" clip-rule="evenodd" fill="#FFFFFF" stroke="#000000" stroke-width="3.992600e-02" stroke-miterlimit="2.4142" d="
				M36.8,49.6c-0.1,0-0.2,0.1-0.2,0.2c0,0.1,0.1,0.2,0.2,0.2c0.1,0,0.2-0.1,0.2-0.2C37,49.8,36.9,49.6,36.8,49.6z"/>
			
				<path fill-rule="evenodd" clip-rule="evenodd" fill="#FFFFFF" stroke="#000000" stroke-width="3.992600e-02" stroke-miterlimit="2.4142" d="
				M36.9,50.8c-0.1,0-0.2,0.1-0.2,0.2c0,0.1,0.1,0.2,0.2,0.2c0.1,0,0.2-0.1,0.2-0.2C37.1,50.9,37,50.8,36.9,50.8z"/>
			
				<path fill-rule="evenodd" clip-rule="evenodd" fill="#FFFFFF" stroke="#000000" stroke-width="3.992600e-02" stroke-miterlimit="2.4142" d="
				M40.5,50.6c-0.1,0-0.2,0.1-0.2,0.2c0,0.1,0.1,0.2,0.2,0.2c0.1,0,0.2-0.1,0.2-0.2C40.8,50.7,40.7,50.6,40.5,50.6z"/>
			
				<path fill-rule="evenodd" clip-rule="evenodd" fill="#FFFFFF" stroke="#000000" stroke-width="3.992600e-02" stroke-miterlimit="2.4142" d="
				M40.5,49.5c-0.1,0-0.2,0.1-0.2,0.2c0,0.1,0.1,0.2,0.2,0.2c0.1,0,0.2-0.1,0.2-0.2C40.7,49.6,40.6,49.5,40.5,49.5z"/>
			<path fill-rule="evenodd" clip-rule="evenodd" fill="#FF1612" d="M29.8,52h25v20.8c0,6.9-5.6,12.5-12.5,12.5l0,0
				c-6.9,0-12.5-5.6-12.5-12.5V52L29.8,52z"/>
			<path fill="#FFFFFF" d="M29.8,51.9h25H55V52v20.8c0,3.5-1.4,6.6-3.7,8.9c-2.3,2.3-5.5,3.7-8.9,3.7l0,0c-3.5,0-6.6-1.4-8.9-3.7
				s-3.7-5.5-3.7-8.9V52v-0.1H29.8L29.8,51.9z M54.7,52.2H29.9v20.6c0,3.4,1.4,6.5,3.6,8.7c2.2,2.2,5.3,3.6,8.7,3.6l0,0
				c3.4,0,6.5-1.4,8.7-3.6c2.2-2.2,3.6-5.3,3.6-8.7V52.2L54.7,52.2z"/>
			
				<path fill-rule="evenodd" clip-rule="evenodd" fill="#EDB92E" stroke="#000000" stroke-width="7.985300e-02" stroke-miterlimit="2.4142" d="
				M38.7,55.1c0.2,0.3,0.6,0.7,0.7,1.1c0.1,0.3,0,0.4-0.2,0.4c-0.2,0-0.6,0-0.8,0.1c-0.2,0-0.7,0.1-0.8,0c-0.1-0.2-0.2-0.3-0.2-0.3
				s-0.7,0-1.1-0.3c-0.3-0.3-0.4-0.7-0.4-0.7s0.4,0.4,0.8,0.5c0.4,0.1,0.7,0,0.9-0.1c0.2-0.1,0.8-0.2,1.1-0.2c0,0-0.3-0.2-0.4-0.3
				c-0.1-0.1-0.3,0-0.4,0c-0.1,0-0.3-0.4-0.6-0.4c-0.3,0-0.4,0.1-0.4,0.3c-0.1,0.2-0.1,0.5-0.3,0.2c-0.3-0.3-0.7-0.7-0.8-1.1
				c-0.3-0.7,0.2-0.9,0.8-1c0.4-0.5,1.1,0.1,0.9,0.4C38,54.1,38.3,54.6,38.7,55.1L38.7,55.1z"/>
			<path d="M37.6,56.3L37.6,56.3c0.2,0,0.4,0,0.5-0.1c0.1,0,0.2-0.1,0.3-0.1c0.1,0,0.2,0,0.3,0c0.1,0,0.2,0,0.3,0c0,0,0.1,0,0.1,0
				c0,0,0,0,0,0c0,0,0,0,0,0c0,0,0,0,0,0c-0.1-0.1-0.1-0.2-0.3-0.3l0-0.1c0.2,0.1,0.3,0.2,0.3,0.4c0,0,0,0,0,0c0,0,0,0,0,0
				c0,0,0,0.1-0.1,0.1c0,0-0.1,0-0.1,0.1c-0.1,0-0.2,0-0.3,0c-0.1,0-0.2,0-0.3,0c-0.1,0-0.2,0-0.3,0.1
				C37.9,56.4,37.7,56.4,37.6,56.3L37.6,56.3L37.6,56.3L37.6,56.3z"/>
			<path d="M37.3,54.1c-0.1-0.1-0.3-0.3-0.4-0.4c-0.1-0.2-0.3-0.4-0.3-0.4l0.1,0c0,0.1,0.1,0.2,0.3,0.4C37.1,53.8,37.2,54,37.3,54.1
				L37.3,54.1L37.3,54.1z"/>
			<path fill-rule="evenodd" clip-rule="evenodd" d="M36.5,53.7C36.6,53.7,36.6,53.8,36.5,53.7c0.1,0.1,0.1,0.2,0,0.2
				C36.5,53.9,36.5,53.9,36.5,53.7C36.5,53.8,36.5,53.7,36.5,53.7L36.5,53.7z"/>
			
				<path fill-rule="evenodd" clip-rule="evenodd" fill="#EDB92E" stroke="#000000" stroke-width="7.985300e-02" stroke-miterlimit="2.4142" d="
				M45.9,55.1c-0.2,0.3-0.6,0.7-0.7,1.1c-0.1,0.3,0,0.4,0.2,0.4c0.2,0,0.6,0,0.8,0.1c0.2,0,0.7,0.1,0.8,0c0.1-0.2,0.2-0.3,0.2-0.3
				s0.7,0,1.1-0.3c0.3-0.3,0.4-0.7,0.4-0.7s-0.4,0.4-0.8,0.5c-0.4,0.1-0.7,0-0.9-0.1c-0.2-0.1-0.8-0.2-1.1-0.2c0,0,0.3-0.2,0.4-0.3
				c0.1-0.1,0.3,0,0.4,0c0.1,0,0.3-0.4,0.6-0.4c0.3,0,0.4,0.1,0.4,0.3c0.1,0.2,0.1,0.5,0.3,0.2c0.3-0.3,0.7-0.7,0.8-1.1
				c0.3-0.7-0.2-0.9-0.8-1c-0.4-0.5-1.1,0.1-0.9,0.4C46.6,54.1,46.3,54.6,45.9,55.1L45.9,55.1z"/>
			<path d="M47.1,56.3L47.1,56.3c-0.2,0-0.4,0-0.5-0.1c-0.1,0-0.2-0.1-0.3-0.1c-0.1,0-0.2,0-0.3,0c-0.1,0-0.2,0-0.3,0
				c0,0-0.1,0-0.1,0c0,0,0,0,0,0c0,0,0,0,0,0c0,0,0,0,0,0c0.1-0.1,0.1-0.2,0.3-0.3l0-0.1c-0.2,0.1-0.3,0.2-0.3,0.4c0,0,0,0,0,0
				c0,0,0,0,0,0c0,0,0,0.1,0.1,0.1c0,0,0.1,0,0.1,0.1c0.1,0,0.2,0,0.3,0c0.1,0,0.2,0,0.3,0c0.1,0,0.2,0,0.3,0.1
				C46.7,56.4,46.9,56.4,47.1,56.3L47.1,56.3L47.1,56.3L47.1,56.3z"/>
			<path d="M47.3,54.1c0.1-0.1,0.3-0.3,0.4-0.4c0.1-0.2,0.3-0.4,0.3-0.4l-0.1,0c0,0.1-0.1,0.2-0.3,0.4C47.5,53.8,47.4,54,47.3,54.1
				L47.3,54.1L47.3,54.1z"/>
			<path fill-rule="evenodd" clip-rule="evenodd" d="M48.1,53.7C48,53.7,48,53.8,48.1,53.7c-0.1,0.1,0,0.2,0,0.2
				C48.1,53.9,48.2,53.9,48.1,53.7C48.2,53.8,48.1,53.7,48.1,53.7L48.1,53.7z"/>
			
				<path fill-rule="evenodd" clip-rule="evenodd" fill="#EDB92E" stroke="#000000" stroke-width="5.989000e-02" stroke-miterlimit="2.4142" d="
				M49.1,74.3c0,0,0.6,1.1,0.8,1.4C50,76,50,76,50.2,76.1c0.2,0.1,0.4,0.2,0.7,0.2c0.3,0,0.5,0,0.7,0c0.2,0,0.3-0.2,0.4-0.2
				c0.1,0,0.2,0,0.3,0.1c0,0,0.2-0.2,0.4,0c0.2,0.2,0.2,0.3,0.3,0.3c0,0.1,0,0.2-0.1,0.1c-0.1-0.1-0.3-0.1-0.4-0.1
				c-0.1,0-0.2,0.2-0.3,0.3c-0.1,0.1-0.2,0.1-0.4,0c-0.1-0.1-0.5-0.1-0.7-0.1c-0.2,0-0.5,0-0.5,0s0.1,0.2,0.7,0.3
				c0.6,0.1,0.6,0,0.8,0.2c0.2,0.1,0.2,0.4,0.2,0.4s0.2,0.3,0,0.5c-0.1,0.3-0.2,0.3-0.2,0.2c0-0.2-0.1-0.2-0.1-0.2s-0.2,0.2-0.4,0.1
				c-0.2-0.1,0-0.2-0.3-0.5c-0.3-0.2-0.5-0.3-0.7-0.4c-0.1-0.1-0.3-0.2-0.3-0.2s0.3,0.5,0.5,0.7c0.2,0.2,0.3,0.4,0.3,0.5
				c0,0.1,0.2,0.2,0.3,0.3c0,0.2-0.1,0.3-0.1,0.3s0,0.3-0.1,0.6c-0.1,0.2-0.3,0.3-0.3,0.3c0,0-0.2,0-0.1-0.1c0.1-0.1,0-0.5-0.1-0.6
				c0,0-0.5,0.1-0.5-0.3c0-0.4,0.1-0.4,0-0.8c-0.1-0.4-0.2-0.5-0.3-0.7c-0.1-0.2-0.1-0.4-0.5-0.6c-0.3-0.2-0.4-0.2-0.6-0.2
				c-0.1,0-0.4,0.1-0.6,0.1c-0.2,0-0.4-0.2-0.4-0.4c0,0-0.1-0.1-0.3-0.1c-0.2,0-0.2,0-0.3,0.1c-0.1,0-0.1,0-0.1,0
				c0-0.1,0.2-0.3,0.5-0.4c0.2-0.1,0.4,0,0.4,0s0.2-0.2,0.5,0c0.3,0.2,0.5,0.4,0.6,0.5c0.1,0.1,0.2,0,0.2,0c0,0,0-0.1,0-0.1
				c-0.1-0.1-0.6-0.6-0.8-0.7c-0.2-0.2-0.6-0.6-0.6-0.6l-0.2-1.1l0.5-0.1L49.1,74.3L49.1,74.3z"/>
			<path d="M52.5,77.6C52.5,77.6,52.5,77.6,52.5,77.6c-0.1-0.1-0.3-0.2-0.4-0.2c-0.1,0-0.1,0-0.2,0c-0.1,0-0.1,0-0.1,0.1
				c0,0,0,0.1,0,0.2c0,0.1,0,0.2,0,0.2c0,0.1,0.3,0.3,0.3,0.3l0-0.1c0,0-0.3-0.2-0.3-0.3c0,0,0-0.1,0-0.2c0-0.1,0-0.1,0-0.2
				c0,0,0,0,0,0c0,0,0.1,0,0.2,0C52.2,77.5,52.3,77.6,52.5,77.6C52.4,77.6,52.5,77.7,52.5,77.6L52.5,77.6L52.5,77.6z"/>
			<path d="M51.4,79C51.4,79,51.4,78.9,51.4,79c-0.1-0.2-0.2-0.3-0.3-0.4c0,0-0.1-0.1-0.1-0.1c0,0-0.1-0.1-0.1-0.1c0,0-0.1,0-0.1,0
				c0,0-0.1,0.1-0.1,0.2c0,0.1-0.1,0.2-0.1,0.3c0,0.1,0.1,0.3,0.1,0.3l0,0c0,0-0.2-0.2-0.1-0.3c0,0,0-0.1,0.1-0.2
				c0-0.1,0.1-0.1,0.1-0.2c0,0,0,0,0.1,0c0,0,0,0,0.1,0.1c0,0,0.1,0.1,0.1,0.1C51.2,78.7,51.3,78.8,51.4,79C51.4,79,51.4,79,51.4,79
				L51.4,79L51.4,79z"/>
			<path d="M52.4,76.2c-0.1,0-0.1,0.1-0.2,0.1c0,0-0.1,0.1-0.1,0.1c-0.1,0.1,0.4,0.4,0.4,0.4l0-0.1c0,0-0.4-0.2-0.3-0.3
				c0,0,0.1-0.1,0.1-0.1C52.4,76.3,52.4,76.3,52.4,76.2L52.4,76.2L52.4,76.2z"/>
			<path d="M48.1,75.7c0,0,0.1,0.1,0.1,0.1c0.1,0.1,0.2,0.1,0.2,0.2h0c0,0,0,0,0,0l0,0c0,0,0,0,0,0.1c0,0,0,0-0.1,0
				c-0.1,0-0.1,0.1-0.1,0.1c0,0-0.2-0.1-0.2-0.1l0,0.1c0,0,0.2,0.1,0.3,0.1c0,0,0.1-0.1,0.2-0.1c0,0,0,0,0.1,0
				c0.1-0.1,0.1-0.1,0.1-0.1l0,0c0,0,0,0,0,0l0,0c0,0-0.1-0.1-0.2-0.2C48.3,75.8,48.2,75.7,48.1,75.7L48.1,75.7L48.1,75.7z"/>
			<path d="M49.4,76.1c0.1-0.1,0.2-0.1,0.2-0.2c0-0.1,0-0.2,0-0.2c-0.1-0.1-0.1-0.1-0.2,0c-0.1,0-0.1,0.1-0.2,0.1l0,0
				c0.1-0.1,0.1-0.1,0.2-0.1c0.1,0,0.1,0,0.2,0c0,0,0,0.1,0,0.1C49.5,75.9,49.4,76,49.4,76.1L49.4,76.1L49.4,76.1z"/>
			<path d="M49.4,75.7c0-0.1,0-0.1,0-0.2c0,0,0-0.1-0.1-0.1l0,0h0l0,0c-0.1-0.1-0.2-0.2-0.5,0.1l0,0c0.2-0.3,0.3-0.2,0.4-0.1l0,0
				l0,0h0c0,0,0,0,0,0.1C49.3,75.6,49.3,75.6,49.4,75.7L49.4,75.7L49.4,75.7z"/>
			<path d="M49.1,75.4C49.1,75.4,49.1,75.3,49.1,75.4c0-0.2,0-0.3-0.1-0.4c0,0,0,0,0,0c0,0-0.1,0-0.2,0c-0.1,0-0.1,0.1-0.2,0.1
				c0,0-0.1,0.1-0.1,0.1l0,0c0-0.1,0.1-0.1,0.1-0.1c0.1-0.1,0.1-0.1,0.2-0.1c0,0,0.1,0,0.1,0c0,0,0,0,0,0C49,75.1,49,75.2,49.1,75.4
				C49,75.3,49,75.4,49.1,75.4L49.1,75.4L49.1,75.4z"/>
			<path d="M48.8,75L48.8,75c0-0.1,0-0.3-0.1-0.4c0,0-0.1-0.1-0.1-0.1c-0.1,0-0.1,0-0.2,0c-0.1,0.1-0.2,0.3-0.2,0.3l0,0
				c0,0,0.2-0.2,0.2-0.2c0,0,0.1,0,0.1,0c0,0,0.1,0,0.1,0.1C48.7,74.8,48.8,74.9,48.8,75L48.8,75L48.8,75L48.8,75z"/>
			<path d="M48.5,74.6c0-0.1,0-0.1,0-0.2c0-0.1,0-0.1-0.1-0.2c-0.1-0.1-0.4-0.1-0.4-0.1l0,0.1c0,0,0.3,0,0.3,0.1
				c0,0,0.1,0.1,0.1,0.1C48.5,74.5,48.5,74.6,48.5,74.6L48.5,74.6L48.5,74.6z"/>
			
				<path fill-rule="evenodd" clip-rule="evenodd" fill="#EDB92E" stroke="#000000" stroke-width="5.989000e-02" stroke-miterlimit="2.4142" d="
				M35.6,74.3c0,0-0.6,1.1-0.8,1.4c-0.2,0.3-0.2,0.3-0.4,0.5c-0.2,0.1-0.4,0.2-0.7,0.2c-0.3,0-0.5,0-0.7,0c-0.2,0-0.3-0.2-0.4-0.2
				c-0.1,0-0.2,0-0.3,0.1c0,0-0.2-0.2-0.4,0c-0.2,0.2-0.2,0.3-0.3,0.3c0,0.1,0,0.2,0.1,0.1c0.1-0.1,0.3-0.1,0.4-0.1
				c0.1,0,0.2,0.2,0.3,0.3c0.1,0.1,0.2,0.1,0.4,0c0.1-0.1,0.5-0.1,0.7-0.1c0.2,0,0.5,0,0.5,0s-0.1,0.2-0.7,0.3
				c-0.6,0.1-0.6,0-0.8,0.2c-0.2,0.1-0.2,0.4-0.2,0.4s-0.2,0.3,0,0.5c0.1,0.3,0.2,0.3,0.2,0.2c0-0.2,0.1-0.2,0.1-0.2
				s0.2,0.2,0.4,0.1c0.2-0.1,0-0.2,0.3-0.5c0.3-0.2,0.5-0.3,0.7-0.4c0.1-0.1,0.3-0.2,0.3-0.2s-0.3,0.5-0.5,0.7
				c-0.2,0.2-0.3,0.4-0.3,0.5c0,0.1-0.2,0.2-0.3,0.3c0,0.2,0.1,0.3,0.1,0.3s0,0.3,0.1,0.6c0.1,0.2,0.3,0.3,0.3,0.3
				c0,0,0.2,0,0.1-0.1c-0.1-0.1,0-0.5,0.1-0.6c0,0,0.5,0.1,0.5-0.3c0-0.4-0.1-0.4,0-0.8c0.1-0.4,0.2-0.5,0.3-0.7
				c0.1-0.2,0.1-0.4,0.5-0.6c0.3-0.2,0.4-0.2,0.6-0.2c0.1,0,0.4,0.1,0.6,0.1c0.2,0,0.4-0.2,0.4-0.4c0,0,0.1-0.1,0.3-0.1
				s0.2,0,0.3,0.1c0.1,0,0.1,0,0.1,0c0-0.1-0.2-0.3-0.5-0.4c-0.2-0.1-0.4,0-0.4,0s-0.2-0.2-0.5,0c-0.3,0.2-0.5,0.4-0.6,0.5
				c-0.1,0.1-0.2,0-0.2,0c0,0,0-0.1,0-0.1c0.1-0.1,0.6-0.6,0.8-0.7c0.2-0.2,0.6-0.6,0.6-0.6l0.2-1.1l-0.5-0.1L35.6,74.3L35.6,74.3z"
				/>
			<path d="M32.1,77.6C32.2,77.6,32.2,77.6,32.1,77.6c0.1-0.1,0.3-0.2,0.4-0.2c0.1,0,0.2,0,0.2,0c0.1,0,0.1,0,0.1,0.1
				c0,0,0,0.1,0,0.2c0,0.1,0,0.2,0,0.2c0,0.1-0.3,0.3-0.3,0.3l0-0.1c0,0,0.3-0.2,0.3-0.3c0,0,0-0.1,0-0.2c0-0.1,0-0.1,0-0.2
				c0,0,0,0,0,0c0,0-0.1,0-0.2,0C32.4,77.5,32.3,77.6,32.1,77.6C32.2,77.6,32.2,77.7,32.1,77.6L32.1,77.6L32.1,77.6z"/>
			<path d="M33.2,79C33.2,79,33.2,78.9,33.2,79c0.1-0.2,0.2-0.3,0.3-0.4c0,0,0.1-0.1,0.1-0.1c0,0,0.1-0.1,0.1-0.1c0.1,0,0.1,0,0.1,0
				c0,0,0.1,0.1,0.1,0.2c0,0.1,0.1,0.2,0.1,0.3c0,0.1-0.1,0.3-0.1,0.3l0,0c0,0,0.2-0.2,0.1-0.3c0,0,0-0.1-0.1-0.2
				c0-0.1-0.1-0.1-0.1-0.2c0,0,0,0-0.1,0c0,0,0,0-0.1,0.1c0,0-0.1,0.1-0.1,0.1C33.4,78.7,33.4,78.8,33.2,79C33.3,79,33.3,79,33.2,79
				L33.2,79L33.2,79z"/>
			<path d="M32.2,76.2c0.1,0,0.1,0.1,0.2,0.1c0,0,0.1,0.1,0.1,0.1c0.1,0.1-0.4,0.4-0.4,0.4l0-0.1c0,0,0.4-0.2,0.3-0.3
				c0,0-0.1-0.1-0.1-0.1C32.3,76.3,32.2,76.3,32.2,76.2L32.2,76.2L32.2,76.2z"/>
			<path d="M36.5,75.7c0,0-0.1,0.1-0.1,0.1c-0.1,0.1-0.2,0.1-0.2,0.2h0c0,0,0,0,0,0l0,0c0,0,0,0,0,0.1c0,0,0,0,0.1,0
				c0.1,0,0.1,0.1,0.1,0.1c0,0,0.2-0.1,0.2-0.1l0,0.1c0,0-0.2,0.1-0.3,0.1c0,0-0.1-0.1-0.2-0.1c0,0,0,0-0.1,0
				c-0.1-0.1-0.1-0.1-0.1-0.1l0,0c0,0,0,0,0,0l0,0c0,0,0.1-0.1,0.2-0.2C36.4,75.8,36.4,75.7,36.5,75.7L36.5,75.7L36.5,75.7z"/>
			<path d="M35.2,76.1c-0.1-0.1-0.1-0.1-0.2-0.2c0-0.1,0-0.2,0-0.2c0.1-0.1,0.1-0.1,0.2,0c0.1,0,0.1,0.1,0.2,0.1l0,0
				c-0.1-0.1-0.1-0.1-0.2-0.1c-0.1,0-0.1,0-0.2,0c0,0-0.1,0.1,0,0.1C35.1,75.9,35.2,76,35.2,76.1L35.2,76.1L35.2,76.1z"/>
			<path d="M35.3,75.7c0-0.1,0-0.1,0-0.2c0,0,0-0.1,0.1-0.1l0,0l0,0l0,0c0.1-0.1,0.2-0.2,0.5,0.1l0,0c-0.2-0.3-0.3-0.2-0.4-0.1l0,0
				l0,0h0c0,0,0,0,0,0.1C35.3,75.6,35.3,75.6,35.3,75.7L35.3,75.7L35.3,75.7z"/>
			<path d="M35.5,75.4C35.5,75.4,35.5,75.3,35.5,75.4c0-0.2,0-0.3,0.1-0.4c0,0,0,0,0,0c0,0,0.1,0,0.2,0c0.1,0,0.1,0.1,0.2,0.1
				c0,0,0.1,0.1,0.1,0.1l0,0c0-0.1-0.1-0.1-0.1-0.1c-0.1-0.1-0.1-0.1-0.2-0.1c0,0-0.1,0-0.1,0c0,0,0,0,0,0
				C35.6,75.1,35.6,75.2,35.5,75.4C35.6,75.3,35.6,75.4,35.5,75.4L35.5,75.4L35.5,75.4z"/>
			<path d="M35.8,75L35.8,75c0-0.1,0-0.3,0.1-0.4c0,0,0.1-0.1,0.1-0.1c0.1,0,0.1,0,0.2,0c0.1,0.1,0.2,0.3,0.2,0.3l0,0
				c0,0-0.2-0.2-0.2-0.2c0,0-0.1,0-0.1,0c0,0-0.1,0-0.1,0.1C35.9,74.8,35.9,74.9,35.8,75L35.8,75L35.8,75L35.8,75z"/>
			<path d="M36.1,74.6c0-0.1,0-0.1,0-0.2c0-0.1,0-0.1,0.1-0.2c0.1-0.1,0.4-0.1,0.4-0.1l0,0.1c0,0-0.3,0-0.3,0.1c0,0-0.1,0.1-0.1,0.1
				C36.2,74.5,36.2,74.6,36.1,74.6L36.1,74.6L36.1,74.6z"/>
			
				<path fill-rule="evenodd" clip-rule="evenodd" fill="#FFFFFF" stroke="#000000" stroke-width="7.985300e-02" stroke-miterlimit="2.4142" d="
				M42.3,58.3c0,0,0.2-1.6,0.4-2.3c0.2-0.7,0.7-1.4,0.7-1.4s-0.5,0.1-0.5-0.2c0-0.3,0-0.4,0-0.5c0,0,0-0.1,0.2-0.1
				c0.1,0,0.7-0.1,1.1-0.3c0.4-0.2,1.6-0.8,2.4-0.7c0.8,0.1,0.7,0.3,0.6,0.5c-0.1,0.3-0.1,0.8-0.1,0.8l-1.3,1.2l-0.6,1
				c0,0,0,0.2-0.1,0.4c-0.1,0.2-0.4,1.1-0.2,1.7c0.2,0.6,0.9,1.3,1.7,1.9c0,0-0.1,0.1-0.3,0.1c0,0,0.1,0.2,0.9,0.3
				c0,0,0.6-0.5,1-1.1c0.4-0.5,0.9-1.1,1-1.3c0.2-0.2,1.2-1.6,1.3-2.1c0.1-0.5,0.3-1-0.3-1.9c-0.6-0.9-0.3-1.1-0.2-1.1
				c0.1,0,0.9-0.2,1.7,0.4c0.8,0.6,1.5,1.8,1.9,3c0.4,1.2,0.7,4,0.7,4s-0.2-0.1-0.2-0.1c0,0,0.2,3.8-0.1,4.7c0,0,0.2,1.4-0.2,3.6
				c-0.4,2.2-0.6,3.5-0.5,4.7c0.1,1.2,0.3,2.2,0.3,2.2s-0.9,0-1.4-1.1c0,0-0.3,0.8-0.4,1c0,0-0.7-0.3-1-1.9c0,0-0.1,0.3-0.3,0.4
				c0,0-0.3-0.1-0.5-0.9c0,0-0.9,0-1-2.7h0c0,0,0,0.2-0.2,0.4c0,0-0.7-0.4-0.6-2.1l0,0c0,0-0.1,0.6-0.4,1c0,0,0.2,0.2,0.4,1.2
				c0.2,0.9,0.8,1.4,0.8,1.4s-0.1,0-0.2,0c0,0,0.3,0.9,1.2,1.7c0,0-1.2,0.2-1.7-0.5l0,0c0,0,0.2,0.8,0.1,1.3c0,0-0.4-0.1-0.7-0.4
				c0,0-0.1,0.4-0.2,0.7c0,0-0.6-0.3-0.8-1.1c0,0-0.2,0.4-0.5,0.6c0,0-0.1-1.4-0.6-2c0,0-0.8,1-1,2c0,0,0.3,0.7,0.5,1
				c0.1,0.2,0.4,0.5,0.4,1c0,0.5-0.2,0.5-0.2,0.5s0.3,0.6,0.6,1c0.2,0.4,0.4,0.4,0.5,0.7c0.1,0.3,0.3,0.8-0.3,0.9
				c0,0,0.2,0.7,0.6,1.4c0.4,0.6,0.5,0.9,0.6,1.2c0.1,0.3,0,0.4-0.2,0.5c-0.3,0.1-0.8,0.3-0.9,0.1c-0.1-0.1-0.2-0.5-0.2-0.5l0,0
				c0,0,0.1,0.5-0.1,0.6c-0.2,0.1-0.6,0.2-0.8,0.2c-0.2,0-0.3-0.1-0.4-0.4l0,0c0,0,0,0.4-0.2,0.5C44,84,43.5,84,43.3,84
				c-0.2,0-0.2-0.3-0.3-0.5h0c0,0,0,0.4-0.2,0.5c-0.2,0.1-0.5,0.1-0.5,0.1s-0.2,0-0.5-0.1c-0.2-0.1-0.2-0.5-0.2-0.5h0
				c0,0.2-0.1,0.5-0.3,0.5c-0.2,0-0.7,0-0.9-0.1c-0.2-0.1-0.2-0.5-0.2-0.5l0,0c-0.1,0.4-0.2,0.4-0.4,0.4c-0.2,0-0.6-0.1-0.8-0.2
				C38.9,83.6,39,83,39,83l0,0c0,0-0.1,0.3-0.2,0.5c-0.1,0.1-0.6,0-0.9-0.1c-0.3-0.1-0.3-0.2-0.2-0.5c0.1-0.3,0.2-0.6,0.6-1.2
				c0.4-0.6,0.6-1.4,0.6-1.4c-0.5-0.1-0.4-0.6-0.3-0.9c0.1-0.3,0.3-0.4,0.5-0.7c0.2-0.3,0.6-1,0.6-1s-0.3,0-0.2-0.5
				c0-0.5,0.3-0.8,0.4-1c0.1-0.2,0.5-1,0.5-1c-0.1-1-1-2-1-2c-0.5,0.6-0.6,2-0.6,2c-0.3-0.2-0.5-0.6-0.5-0.6
				c-0.2,0.8-0.8,1.1-0.8,1.1c-0.2-0.3-0.2-0.7-0.2-0.7c-0.3,0.3-0.7,0.4-0.7,0.4c-0.1-0.6,0.1-1.3,0.1-1.3l0,0
				c-0.4,0.7-1.7,0.5-1.7,0.5c0.9-0.8,1.2-1.7,1.2-1.7c-0.1,0-0.2,0-0.2,0s0.6-0.5,0.8-1.4c0.2-0.9,0.4-1.2,0.4-1.2
				c-0.3-0.4-0.4-1-0.4-1l0,0c0.1,1.7-0.6,2.1-0.6,2.1c-0.2-0.2-0.2-0.4-0.2-0.4h0c-0.2,2.7-1,2.7-1,2.7c-0.2,0.8-0.5,0.9-0.5,0.9
				C34,74.3,33.9,74,33.9,74c-0.3,1.6-1,1.9-1,1.9c-0.1-0.2-0.4-1-0.4-1c-0.5,1.1-1.4,1.1-1.4,1.1s0.2-1,0.3-2.2
				c0.1-1.2-0.1-2.5-0.5-4.7c-0.4-2.2-0.2-3.6-0.2-3.6c-0.3-0.9-0.1-4.7-0.1-4.7c-0.1,0-0.2,0.1-0.2,0.1s0.3-2.8,0.7-4
				c0.4-1.2,1.1-2.4,1.9-3c0.8-0.6,1.6-0.5,1.7-0.4c0.1,0,0.4,0.2-0.2,1.1c-0.6,0.9-0.4,1.4-0.3,1.9c0.1,0.6,1.1,1.9,1.3,2.1
				c0.2,0.2,0.6,0.8,1,1.3c0.4,0.5,1,1.1,1,1.1c0.7-0.1,0.9-0.3,0.9-0.3c-0.2,0-0.3-0.1-0.3-0.1c0.8-0.6,1.5-1.3,1.7-1.9
				c0.2-0.6-0.1-1.5-0.2-1.7c-0.1-0.2-0.1-0.4-0.1-0.4l-0.6-1l-1.3-1.2c0,0-0.1-0.5-0.1-0.8c-0.1-0.3-0.2-0.4,0.6-0.5
				c0.8-0.1,2,0.5,2.4,0.7c0.4,0.2,1,0.3,1.1,0.3c0.1,0,0.1,0,0.2,0.1c0,0,0.1,0.2,0,0.5c0,0.3-0.5,0.2-0.5,0.2s0.4,0.8,0.7,1.4
				C42.1,56.7,42.3,58.3,42.3,58.3L42.3,58.3z"/>
			<path d="M30.5,60.6c0,0,0.9-0.4,1.2-0.9l0.1,0.1C31.4,60.3,30.5,60.7,30.5,60.6L30.5,60.6L30.5,60.6z"/>
			<path d="M33.2,56.6c0,0-0.9,1-1.5,3.1c-0.2,0.7-0.3,1.6-0.3,2.3c-0.1,1.4,0.1,2.6,0.1,2.7c0,0.2,0.1,0.7,0.2,1.2
				c0.1,0.3,0.1,0.6,0.2,0.6l-0.1,0c0-0.1-0.1-0.3-0.2-0.7c-0.1-0.5-0.2-1-0.2-1.2c0-0.2-0.2-1.4-0.1-2.8c0-0.8,0.1-1.6,0.3-2.3
				C32.2,57.6,33.2,56.6,33.2,56.6L33.2,56.6L33.2,56.6z"/>
			<path d="M30.7,65.4C30.7,65.4,30.7,65.5,30.7,65.4c0.1,0.3,0.4,1.1,1.2,1.2h0l0,0c0,0,0.3,0.4,1,0.5c0.1,0,0.4-0.3,0.5-0.9l0,0
				l0,0c0,0,0.6-0.4,0.6-1l0-0.3l0.1,0.3c0,0,0.1,0.7,0.4,1c0.1-0.1,0.6-0.5,0.6-0.9c0-0.2,0.1-0.2,0.1,0c0,0.1,0,0.5,0.3,0.9
				c0.1-0.1,0.5-0.5,0.6-1.2l0-0.3l0,0.3c0,0,0.1,0.9,0.4,1.3c0.1-0.1,0.5-0.4,0.9-1.8l0.1,0c-0.5,1.7-1,1.9-1,1.9l0,0l0,0
				c-0.2-0.3-0.3-0.8-0.4-1.1c-0.2,0.7-0.6,1-0.6,1l0,0l0,0c-0.2-0.3-0.3-0.6-0.3-0.8c-0.1,0.4-0.6,0.8-0.6,0.8l0,0l0,0
				c-0.2-0.2-0.3-0.6-0.4-0.8c-0.1,0.4-0.5,0.8-0.6,0.8C33.4,67,33,67.2,33,67.2l0,0l0,0c-0.7-0.1-1-0.4-1.1-0.5
				C31,66.6,30.7,65.7,30.7,65.4C30.6,65.5,30.6,65.5,30.7,65.4L30.7,65.4L30.7,65.4z"/>
			<path d="M31.5,60.7c0.2,0,0.6-0.1,0.9-0.4c0.2-0.2,0.4-0.4,0.5-0.7c0.2-0.7,0.3-0.7,0.4-0.7c0,0,0,0,0,0c0,0,0.1,0,0.1,0
				c0.2,0,0.4,0,0.7,0l0,0l0,0c0,0,0.9,1.3,1.1,1.5c0.1,0.1,0.2,0.3,0.4,0.5c0.2,0.3,0.4,0.6,0.6,0.8c0.1,0.1,0.4,0.4,0.8,0.7
				c0.2,0.2,0.5,0.3,0.7,0.4l0,0.1c-0.2-0.1-0.5-0.3-0.7-0.4c-0.3-0.3-0.6-0.5-0.8-0.7c-0.1-0.1-0.4-0.5-0.6-0.8
				c-0.2-0.2-0.3-0.5-0.4-0.5c-0.2-0.2-1-1.3-1.1-1.5c-0.2,0.1-0.5,0-0.7,0c-0.1,0-0.1,0-0.1,0c0,0,0,0,0,0c0,0-0.1,0-0.3,0.6
				c-0.1,0.3-0.3,0.6-0.5,0.7C32.2,60.7,31.8,60.8,31.5,60.7L31.5,60.7L31.5,60.7z"/>
			<path d="M32.5,60.4c-0.1,1.1-0.2,2.3-0.1,3.4c0,1.2,0.2,2.3,0.6,3.3l-0.1,0c-0.4-1-0.6-2.2-0.6-3.4
				C32.3,62.6,32.3,61.4,32.5,60.4L32.5,60.4L32.5,60.4z"/>
			<path d="M32.9,59.8C32.9,59.8,32.9,59.8,32.9,59.8c-0.1,0.5-0.2,1.4,0.3,2.3c0.1-0.1,0.3-0.3,0.6-1.1l0.1,0
				c-0.3,1.1-0.7,1.2-0.7,1.2l0,0l0,0C32.7,61.2,32.8,60.3,32.9,59.8C32.9,59.8,32.9,59.8,32.9,59.8L32.9,59.8L32.9,59.8z"/>
			<path d="M33.3,62.1c0,0.2,0,1.5,0.1,2.6c0,0.6,0.1,1.2,0.2,1.6l-0.1,0c-0.1-0.4-0.1-0.9-0.2-1.6C33.2,63.6,33.2,62.3,33.3,62.1
				L33.3,62.1L33.3,62.1z"/>
			<path d="M34.1,59c-0.1,0.3-0.2,0.8-0.2,1.5c0,0.6,0,1.3,0.2,2.1c0.2-0.1,0.8-0.7,0.8-2.3l0.1,0c0,1.9-0.9,2.4-0.9,2.4l0,0l0-0.1
				c-0.2-0.8-0.3-1.5-0.3-2.2C33.8,59.8,33.9,59.3,34.1,59L34.1,59L34.1,59z"/>
			<path d="M34.8,61.6c0,0.3,0,0.6,0.1,1c0,0.3,0.1,0.5,0.2,0.6c0.2-0.1,0.8-0.6,0.7-1.8l0.1,0c0.1,1.4-0.8,1.9-0.8,1.9l0,0l0,0
				c-0.1-0.1-0.2-0.4-0.2-0.7C34.8,62.2,34.8,61.9,34.8,61.6L34.8,61.6L34.8,61.6z"/>
			<path d="M35.9,62c0,0.3,0,0.6,0.1,0.9c0.1,0.3,0.2,0.5,0.3,0.8c0.1-0.1,0.6-0.6,0.5-1.2h0.1c0,0.7-0.6,1.3-0.6,1.3l0,0l0,0
				c-0.2-0.2-0.3-0.5-0.3-0.8C35.8,62.6,35.8,62.3,35.9,62L35.9,62L35.9,62z"/>
			<path d="M36.9,62.7c0,0.2,0.1,0.6,0.2,1c0.1,0.2,0.2,0.4,0.4,0.6l0,0.1c-0.2-0.2-0.4-0.4-0.5-0.6C36.9,63.3,36.8,62.9,36.9,62.7
				L36.9,62.7L36.9,62.7z"/>
			<path d="M34.2,62.6c0,0.2,0,0.9,0,1.6c0,0.5,0,1,0,1.1l-0.1,0c0-0.2,0-0.6-0.1-1.1C34,63.5,34,62.8,34.2,62.6L34.2,62.6
				L34.2,62.6z"/>
			<path d="M35.2,63.2c0,0.2,0,0.7,0,1.2c0,0.4,0.1,0.8,0.1,0.9l-0.1,0c0-0.1-0.1-0.5-0.1-0.9C35.1,63.9,35.1,63.4,35.2,63.2
				L35.2,63.2L35.2,63.2z"/>
			<path d="M36.3,63.7c0,0.2,0,0.6,0,0.9c0,0.2,0,0.3,0,0.4l-0.1,0c0,0,0-0.2,0-0.4C36.2,64.3,36.2,64,36.3,63.7L36.3,63.7
				L36.3,63.7z"/>
			<path d="M31.5,66.5c0,0.5,0,1.2,0.1,1.9c0.1,0.5,0.1,1.1,0.3,1.6c0.1,0.4,0.2,0.9,0.2,1.4c0.1,0.8,0.1,1.5,0.1,1.6l-0.1,0
				c0-0.1,0-0.8-0.1-1.6c-0.1-0.5-0.1-1-0.2-1.4c-0.1-0.5-0.2-1-0.3-1.6C31.4,67.7,31.4,66.9,31.5,66.5L31.5,66.5L31.5,66.5z"/>
			<path d="M32.2,66.9c0,0.4,0,0.9,0.1,1.5c0.1,0.6,0.2,1.1,0.2,1.5c0.1,0.4,0.2,1.1,0.3,1.8c0.1,0.6,0.1,1.2,0.1,1.6
				c-0.1,0.8-0.4,1.6-0.4,1.6l-0.1,0c0,0,0.3-0.8,0.4-1.6c0-0.4,0-1-0.1-1.6c-0.1-0.7-0.2-1.4-0.3-1.8c-0.1-0.4-0.2-0.9-0.2-1.5
				C32.2,67.8,32.2,67.3,32.2,66.9L32.2,66.9L32.2,66.9z"/>
			<path d="M33.5,66.3c0,0.1,0,0.3,0,0.4c0,0.5,0,1.3,0.1,1.7c0,0.2,0.1,0.5,0.1,1c0.1,0.7,0.2,1.5,0.3,2c0.1,0.8-0.1,2.6-0.1,2.6
				l-0.1,0c0,0,0.1-1.8,0.1-2.6c0-0.5-0.2-1.3-0.3-2c-0.1-0.4-0.1-0.8-0.1-1c0-0.4-0.1-1.2-0.1-1.7C33.4,66.6,33.4,66.5,33.5,66.3
				L33.5,66.3L33.5,66.3z"/>
			<path d="M34.6,66.2c0,0.1,0,0.6,0,1.1c0,0.3,0,0.7,0,0.9c0,0.2,0.1,0.6,0.1,1.1c0.1,0.8,0.2,1.7,0.2,2.2c0,0.7-0.2,2.1-0.2,2.1
				l-0.1,0c0,0,0.3-1.4,0.2-2c0-0.4-0.1-1.4-0.2-2.1c-0.1-0.5-0.1-1-0.1-1.1c0-0.2,0-0.5,0-0.9C34.5,66.8,34.5,66.4,34.6,66.2
				L34.6,66.2L34.6,66.2z"/>
			<path d="M35.6,66.2c0,0.2,0,0.6,0,1.1c0,0.4,0,0.9,0,1.2c0.1,0.7,0.1,2.4,0.1,2.4l-0.1,0c0,0,0-1.6-0.1-2.4c0-0.3,0-0.8,0-1.2
				C35.5,66.8,35.5,66.3,35.6,66.2L35.6,66.2L35.6,66.2z"/>
			<path d="M36.7,66.2c0,0.2,0,0.6,0,1c0,0.3,0,0.7,0,0.9c0,0.2,0,0.5,0,0.7c0,0.2,0,0.3,0,0.4l-0.1,0c0-0.1,0-0.3,0-0.5
				c0-0.2,0-0.4,0-0.7c0-0.2,0-0.6,0-0.9C36.6,66.8,36.6,66.4,36.7,66.2L36.7,66.2L36.7,66.2z"/>
			<path d="M37,70.1c0-0.1,0.1-0.2,0.2-0.3c0.1-0.1,0.2-0.2,0.3-0.3l0.1,0.1c-0.1,0.1-0.2,0.2-0.3,0.3C37.2,70,37.1,70.1,37,70.1
				L37,70.1L37,70.1z"/>
			<path d="M36,72.7c0.1,0,0.3,0,0.6-0.1c0.2-0.1,0.3-0.1,0.4-0.3c0.3-0.2,0.4-0.6,0.5-0.8c0,0,0-0.1,0-0.1c0.1-0.2,0.4-0.5,0.4-0.5
				l0.1,0.1c0,0-0.3,0.3-0.4,0.5c0,0,0,0.1,0,0.1c-0.1,0.2-0.2,0.6-0.5,0.9c-0.1,0.1-0.3,0.2-0.5,0.3C36.3,72.7,36.1,72.8,36,72.7
				L36,72.7L36,72.7z"/>
			<path d="M38.1,74.6c0-0.1-0.1-0.3-0.1-0.4c0-0.2,0-0.3,0-0.4c0-0.2,0.2-0.7,0.2-0.9l0,0c0.1-0.2,0.4-0.9,0.4-0.9l0.1,0
				c0,0-0.3,0.7-0.4,0.9l0,0c-0.1,0.2-0.2,0.6-0.2,0.9c0,0.1,0,0.3,0,0.4C38.1,74.3,38.1,74.4,38.1,74.6L38.1,74.6L38.1,74.6z"/>
			<path d="M36.4,74c0-0.1,0.2-0.4,0.3-0.6c0.1-0.2,0.2-0.4,0.2-0.5c0.1-0.2,0.1-0.3,0.2-0.4c0,0,0-0.1,0.1-0.1c0.1-0.1,0-0.2,0-0.2
				l0.1,0c0,0,0,0.1,0,0.3c0,0,0,0.1-0.1,0.1c0,0.1-0.1,0.2-0.2,0.4c-0.1,0.1-0.1,0.3-0.2,0.5C36.7,73.6,36.6,73.9,36.4,74L36.4,74
				L36.4,74z"/>
			<path d="M37.1,72.7c0,0.1,0,0.4,0,0.6c0,0.1,0,0.3,0.1,0.4c0.1-0.1,0.7-0.3,0.9-0.7l0.1,0c-0.3,0.6-1,0.8-1,0.8l0,0l0,0
				c-0.1-0.1-0.1-0.3-0.1-0.4C37,73,37,72.8,37.1,72.7L37.1,72.7L37.1,72.7z"/>
			<path d="M37,74.9c0-0.2,0-0.5,0-0.7c0-0.2,0-0.4,0.1-0.5l0.1,0c0,0.1-0.1,0.3-0.1,0.5C37.1,74.4,37.1,74.7,37,74.9L37,74.9
				L37,74.9z"/>
			<path d="M40.2,75.1c0.1-0.1,0.3-0.3,0.4-0.6c0.1-0.2,0.1-0.5,0.1-0.7l0.1,0c0,0.3,0,0.5-0.1,0.7C40.5,74.8,40.3,75.1,40.2,75.1
				L40.2,75.1L40.2,75.1z"/>
			<path d="M40.8,73.9c0.1,0.1,0.4,0.4,0.6,0.7c0.2,0.2,0.3,0.5,0.4,0.7c0,0,0,0.1,0,0.2c0.1,0.4,0.2,0.8,0.5,0.8v0.1
				c-0.3,0-0.4-0.5-0.5-0.9c0-0.1,0-0.1,0-0.2c-0.1-0.2-0.2-0.4-0.4-0.7C41.1,74.4,40.9,74.1,40.8,73.9L40.8,73.9L40.8,73.9z"/>
			<path d="M42.3,74c0,0.2,0,0.5-0.1,0.8c-0.1,0.2-0.2,0.4-0.3,0.6l-0.1-0.1c0.1-0.1,0.2-0.3,0.3-0.5C42.2,74.6,42.2,74.2,42.3,74
				L42.3,74L42.3,74z"/>
			<path d="M40.6,74.5c0.1,0.1,0.2,0.3,0.4,0.6c0.1,0.2,0.2,0.5,0.3,0.7c0.1-0.1,0.3-0.5,0.4-0.8l0.1,0c-0.1,0.4-0.5,0.9-0.5,0.9
				l-0.1,0.1l0-0.1c0-0.2-0.2-0.5-0.3-0.7C40.8,74.9,40.6,74.7,40.6,74.5L40.6,74.5L40.6,74.5z"/>
			<path d="M39.6,77.6c0,0,0.2,0.1,0.3,0.1c0.1,0,0.2,0,0.2-0.1l0.1,0.1c-0.1,0.1-0.2,0.1-0.3,0.1C39.8,77.8,39.6,77.7,39.6,77.6
				L39.6,77.6L39.6,77.6z"/>
			<path d="M40.9,75.1c0,0.1-0.1,0.4-0.2,0.7c-0.1,0.3-0.2,0.6-0.2,0.7c-0.1,0.2-0.2,0.4-0.2,0.7c0,0.2-0.1,0.3,0,0.4c0,0,0,0,0,0.1
				c0,0.1,0.1,0.1,0.3,0.2c0.1,0,0.2,0,0.4,0c0,0,0.1,0,0.1-0.1l0.1,0.1c-0.1,0-0.1,0.1-0.2,0.1c-0.1,0-0.3,0-0.4,0
				c-0.1,0-0.2-0.1-0.3-0.2c0,0,0-0.1,0-0.1c0-0.1,0-0.3,0-0.4c0.1-0.3,0.1-0.5,0.2-0.7c0.1-0.1,0.2-0.4,0.2-0.7
				C40.7,75.5,40.8,75.2,40.9,75.1L40.9,75.1L40.9,75.1z"/>
			<path d="M41.3,75.9c0,0.2,0,0.5-0.1,0.7c0,0.2-0.1,0.4-0.1,0.6c0,0.1-0.1,0.3-0.1,0.4c0,0.1,0,0.2,0.1,0.3c0,0,0,0,0,0l0,0
				c0.1,0.1,0.3,0.1,0.4,0c0.1,0,0.3-0.1,0.3-0.1l0,0h0l0.1,0.1l0,0v0c0,0.1-0.2,0.1-0.3,0.2c-0.2,0-0.3,0-0.5-0.1l0,0c0,0,0,0,0,0
				c-0.1-0.1-0.2-0.2-0.2-0.4c0-0.1,0-0.3,0.1-0.4c0-0.1,0.1-0.3,0.1-0.6C41.1,76.4,41.2,76.1,41.3,75.9L41.3,75.9L41.3,75.9z"/>
			<path d="M42,75.8c0,0.2,0,0.5,0,0.9c0,0.2,0,0.4,0,0.5c0,0.2,0,0.3,0,0.4c0,0.1,0,0.2,0,0.3c0,0,0.1,0.1,0.2,0.1
				c0.1,0,0.1,0,0.2,0v0.1c-0.1,0-0.2,0-0.3-0.1c-0.1,0-0.2-0.1-0.2-0.2c0-0.1,0-0.1,0-0.3c0-0.1,0-0.2,0-0.4c0-0.2,0-0.4,0-0.5
				C41.9,76.4,41.9,76,42,75.8L42,75.8L42,75.8z"/>
			<path d="M38.8,80.2C38.8,80.2,38.8,80.2,38.8,80.2c0.2,0.1,0.5,0.1,0.7,0l0.1,0.1C39.3,80.4,39,80.3,38.8,80.2
				C38.8,80.3,38.8,80.3,38.8,80.2L38.8,80.2L38.8,80.2z"/>
			<path d="M40.4,77.8c0,0.1,0,0.2-0.1,0.2c-0.1,0.3-0.1,0.5-0.4,0.9c-0.2,0.3-0.3,0.5-0.3,0.7c-0.1,0.2-0.1,0.4,0,0.5
				c0,0,0,0,0,0.1l0,0c0.1,0.1,0.2,0.2,0.4,0.2c0.2,0,0.4,0,0.5,0c0.1,0,0.1,0,0.2-0.1l0.1,0.1c-0.1,0-0.1,0.1-0.2,0.1
				c-0.2,0.1-0.4,0.1-0.5,0c-0.2,0-0.3-0.1-0.4-0.2v0c0,0,0,0,0-0.1c-0.1-0.1,0-0.3,0-0.6c0.1-0.2,0.2-0.5,0.3-0.7
				c0.2-0.4,0.3-0.6,0.4-0.9C40.3,77.9,40.3,77.9,40.4,77.8L40.4,77.8L40.4,77.8z"/>
			<path d="M41,77.8c0,0.1,0,0.4-0.1,0.7c0,0.3-0.1,0.6-0.2,0.8c0,0.1,0,0.2-0.1,0.2c-0.1,0.4-0.2,0.9,0.2,1c0.2,0.1,0.4,0.1,0.5,0
				c0.2,0,0.3-0.1,0.3-0.2l0.1,0c0,0.1-0.2,0.2-0.4,0.2c-0.1,0-0.3,0-0.5,0c-0.5-0.1-0.4-0.6-0.2-1.1c0-0.1,0-0.2,0.1-0.2
				c0.1-0.2,0.1-0.5,0.2-0.8C40.9,78.2,41,77.9,41,77.8L41,77.8L41,77.8z"/>
			<path d="M41.8,77.9c0,0.2,0,0.5,0,0.9c0,0.3,0,0.6,0,0.8c0,0.1,0,0.2,0,0.3l0,0c0,0.1,0,0.2,0,0.3c0,0.2,0.1,0.3,0.2,0.3
				c0.1,0.1,0.2,0.1,0.4,0.1v0.1c-0.2,0-0.3,0-0.4-0.1c-0.1-0.1-0.2-0.2-0.2-0.4c0-0.1,0-0.2,0-0.3l0,0c0-0.1,0-0.2,0-0.3
				c0-0.2,0-0.5,0-0.8C41.8,78.4,41.8,78.1,41.8,77.9L41.8,77.9L41.8,77.9z"/>
			<path d="M38.9,83.1c0-0.1,0-0.1,0-0.2c0.1-0.3,0.1-0.6,0.3-0.8c0.2-0.3,0.5-1.6,0.5-1.6l0.1,0c0,0-0.3,1.3-0.5,1.6
				c-0.1,0.3-0.2,0.6-0.3,0.8C39,83,39,83,38.9,83.1L38.9,83.1L38.9,83.1z"/>
			<path d="M40.2,83.5c0.1-0.5,0.2-0.9,0.2-1.3c0-0.2,0.1-0.3,0.1-0.5c0.1-0.5,0.2-1.1,0.2-1.1l0.1,0c0,0-0.1,0.7-0.2,1.2
				c0,0.1-0.1,0.3-0.1,0.5C40.5,82.6,40.4,83,40.2,83.5L40.2,83.5L40.2,83.5z"/>
			<path d="M41.6,83.6c0-0.2,0-0.6,0-1c0-0.8,0.1-1.9,0.1-2l0.1,0c0,0.2-0.1,1.2-0.1,2C41.7,83,41.7,83.4,41.6,83.6L41.6,83.6
				L41.6,83.6z"/>
			<path d="M38.3,60.4C38.3,60.4,38.3,60.4,38.3,60.4c0.4,0.1,1.1,0.1,1.7-0.6l0.1,0.1C39.4,60.6,38.7,60.5,38.3,60.4
				C38.3,60.5,38.3,60.5,38.3,60.4L38.3,60.4L38.3,60.4z"/>
			<path d="M40.1,59.4c0,0.1-0.1,0.4-0.2,0.7c-0.1,0.2-0.1,0.4-0.2,0.5c0.2-0.1,0.6-0.2,1-0.7l0.1,0.1c-0.5,0.6-1.2,0.7-1.2,0.7
				l-0.1,0l0-0.1c0.1-0.1,0.1-0.3,0.2-0.6C40,59.8,40,59.5,40.1,59.4L40.1,59.4L40.1,59.4z"/>
			<path d="M40.8,59.3c0,0.1,0,0.4,0.1,0.6c0.1,0.2,0.1,0.4,0.3,0.5c0.1-0.1,0.4-0.4,0.5-0.8l0.1,0c-0.2,0.5-0.6,0.9-0.6,0.9l0,0
				l0,0c-0.1-0.2-0.2-0.4-0.3-0.6C40.7,59.7,40.7,59.5,40.8,59.3L40.8,59.3L40.8,59.3z"/>
			<path d="M41.7,59.2c0,0.3,0.1,0.6,0.2,0.9c0.2,0.4,0.3,0.7,0.4,0.7v0.1c-0.1,0-0.3-0.3-0.5-0.7C41.7,59.9,41.6,59.6,41.7,59.2
				L41.7,59.2L41.7,59.2z"/>
			<path d="M54.2,60.6c0,0-0.9-0.4-1.2-0.9l-0.1,0.1C53.3,60.3,54.2,60.7,54.2,60.6L54.2,60.6L54.2,60.6z"/>
			<path d="M51.4,56.6c0,0,0.9,1,1.5,3.1c0.2,0.7,0.3,1.6,0.3,2.3c0.1,1.4-0.1,2.6-0.1,2.7c0,0.2-0.1,0.7-0.2,1.2
				c-0.1,0.3-0.1,0.6-0.2,0.6l0.1,0c0-0.1,0.1-0.3,0.2-0.7c0.1-0.5,0.2-1,0.2-1.2c0-0.2,0.2-1.4,0.1-2.8c0-0.8-0.1-1.6-0.3-2.3
				C52.4,57.6,51.5,56.6,51.4,56.6L51.4,56.6L51.4,56.6z"/>
			<path d="M54,65.4C54,65.4,54,65.5,54,65.4c-0.1,0.3-0.4,1.1-1.2,1.2h0l0,0c0,0-0.3,0.4-1,0.5c-0.1,0-0.4-0.3-0.5-0.9l0,0l0,0
				c0,0-0.6-0.4-0.6-1l0-0.3l-0.1,0.3c0,0-0.1,0.7-0.4,1c-0.1-0.1-0.6-0.5-0.6-0.9c0-0.2-0.1-0.2-0.1,0c0,0.1,0,0.5-0.3,0.9
				c-0.1-0.1-0.5-0.5-0.6-1.2l0-0.3l0,0.3c0,0-0.1,0.9-0.4,1.3c-0.1-0.1-0.5-0.4-0.9-1.8l-0.1,0c0.5,1.7,1,1.9,1,1.9l0,0l0,0
				c0.2-0.3,0.3-0.8,0.4-1.1c0.2,0.7,0.6,1,0.6,1l0,0l0,0c0.2-0.3,0.3-0.6,0.3-0.8c0.1,0.4,0.6,0.8,0.6,0.8l0,0l0,0
				c0.2-0.2,0.3-0.6,0.4-0.8c0.1,0.4,0.5,0.8,0.6,0.8c0.1,0.7,0.5,0.9,0.5,0.9l0,0l0,0c0.7-0.1,1-0.4,1.1-0.5
				C53.6,66.6,53.9,65.7,54,65.4C54,65.5,54,65.5,54,65.4L54,65.4L54,65.4z"/>
			<path d="M53.1,60.7c-0.2,0-0.6-0.1-0.9-0.4c-0.2-0.2-0.4-0.4-0.5-0.7C51.6,59,51.5,59,51.4,59c0,0,0,0,0,0c0,0-0.1,0-0.1,0
				c-0.2,0-0.5,0-0.7,0l0,0l0,0c0,0-1,1.3-1.1,1.5c-0.1,0.1-0.2,0.3-0.4,0.5c-0.2,0.3-0.4,0.6-0.6,0.8c-0.1,0.1-0.4,0.4-0.8,0.7
				c-0.2,0.2-0.5,0.3-0.7,0.4l0,0.1c0.2-0.1,0.5-0.3,0.7-0.4c0.3-0.3,0.6-0.5,0.8-0.7c0.1-0.1,0.4-0.5,0.6-0.8
				c0.2-0.2,0.3-0.5,0.4-0.5c0.2-0.2,1-1.3,1.1-1.5c0.2,0.1,0.5,0,0.7,0c0.1,0,0.1,0,0.1,0c0,0,0,0,0,0c0,0,0.1,0,0.3,0.6
				c0.1,0.3,0.3,0.6,0.5,0.7C52.5,60.7,52.9,60.8,53.1,60.7L53.1,60.7L53.1,60.7z"/>
			<path d="M52.2,60.4c0.1,1.1,0.2,2.3,0.1,3.4c0,1.2-0.2,2.3-0.6,3.3l0.1,0c0.4-1,0.6-2.2,0.6-3.4C52.4,62.6,52.3,61.4,52.2,60.4
				L52.2,60.4L52.2,60.4z"/>
			<path d="M51.7,59.8C51.7,59.8,51.7,59.8,51.7,59.8c0.1,0.5,0.2,1.4-0.3,2.3c-0.1-0.1-0.3-0.3-0.6-1.1l-0.1,0
				c0.3,1.1,0.7,1.2,0.7,1.2l0,0l0,0C52,61.2,51.9,60.3,51.7,59.8C51.8,59.8,51.8,59.8,51.7,59.8L51.7,59.8L51.7,59.8z"/>
			<path d="M51.4,62.1c0,0.2,0,1.5-0.1,2.6c0,0.6-0.1,1.2-0.2,1.6l0.1,0c0.1-0.4,0.1-0.9,0.2-1.6C51.5,63.6,51.5,62.3,51.4,62.1
				L51.4,62.1L51.4,62.1z"/>
			<path d="M50.6,59c0.1,0.3,0.2,0.8,0.2,1.5c0,0.6,0,1.3-0.2,2.1c-0.2-0.1-0.8-0.7-0.8-2.3l-0.1,0c0,1.9,0.9,2.4,0.9,2.4l0,0l0-0.1
				c0.2-0.8,0.3-1.5,0.3-2.2S50.7,59.3,50.6,59L50.6,59L50.6,59z"/>
			<path d="M49.8,61.6c0,0.3,0,0.6-0.1,1c-0.1,0.3-0.1,0.5-0.2,0.6c-0.2-0.1-0.8-0.6-0.7-1.8l-0.1,0c-0.1,1.4,0.8,1.9,0.8,1.9l0,0
				l0,0c0.1-0.1,0.2-0.4,0.2-0.7C49.9,62.2,49.9,61.9,49.8,61.6L49.8,61.6L49.8,61.6z"/>
			<path d="M48.8,62c0,0.3,0,0.6-0.1,0.9c-0.1,0.3-0.2,0.5-0.3,0.8c-0.1-0.1-0.6-0.6-0.5-1.2h-0.1c0,0.7,0.6,1.3,0.6,1.3l0,0l0,0
				c0.2-0.2,0.3-0.5,0.3-0.8C48.8,62.6,48.9,62.3,48.8,62L48.8,62L48.8,62z"/>
			<path d="M47.8,62.7c0,0.2-0.1,0.6-0.2,1c-0.1,0.2-0.2,0.4-0.4,0.6l0,0.1c0.2-0.2,0.4-0.4,0.5-0.6C47.8,63.3,47.9,62.9,47.8,62.7
				L47.8,62.7L47.8,62.7z"/>
			<path d="M50.5,62.6c0,0.2,0,0.9,0,1.6c0,0.5,0,1,0,1.1l0.1,0c0-0.2,0.1-0.6,0.1-1.1C50.6,63.5,50.6,62.8,50.5,62.6L50.5,62.6
				L50.5,62.6z"/>
			<path d="M49.5,63.2c0,0.2,0,0.7,0,1.2c0,0.4-0.1,0.8-0.1,0.9l0.1,0c0-0.1,0.1-0.5,0.1-0.9C49.6,63.9,49.6,63.4,49.5,63.2
				L49.5,63.2L49.5,63.2z"/>
			<path d="M48.4,63.7c0,0.2,0,0.6,0,0.9c0,0.2,0,0.3,0,0.4l0.1,0c0,0,0-0.2,0-0.4C48.5,64.3,48.4,64,48.4,63.7L48.4,63.7L48.4,63.7
				z"/>
			<path d="M53.2,66.5c0,0.5,0,1.2-0.1,1.9c-0.1,0.5-0.1,1.1-0.3,1.6c-0.1,0.4-0.2,0.9-0.2,1.4c-0.1,0.8-0.1,1.5-0.1,1.6l0.1,0
				c0-0.1,0-0.8,0.1-1.6c0.1-0.5,0.1-1,0.2-1.4c0.1-0.5,0.2-1,0.3-1.6C53.3,67.7,53.3,66.9,53.2,66.5L53.2,66.5L53.2,66.5z"/>
			<path d="M52.4,66.9c0,0.4,0,0.9-0.1,1.5c-0.1,0.6-0.2,1.1-0.2,1.5c-0.1,0.4-0.2,1.1-0.3,1.8c-0.1,0.6-0.1,1.2-0.1,1.6
				c0.1,0.8,0.4,1.6,0.4,1.6l0.1,0c0,0-0.3-0.8-0.4-1.6c0-0.4,0-1,0.1-1.6c0.1-0.7,0.2-1.4,0.3-1.8c0.1-0.4,0.2-0.9,0.2-1.5
				C52.5,67.8,52.5,67.3,52.4,66.9L52.4,66.9L52.4,66.9z"/>
			<path d="M51.2,66.3c0,0.1,0,0.3,0,0.4c0,0.5,0,1.3-0.1,1.7c0,0.2-0.1,0.5-0.1,1c-0.1,0.7-0.2,1.5-0.3,2c-0.1,0.8,0.1,2.6,0.1,2.6
				l0.1,0c0,0-0.1-1.8-0.1-2.6c0-0.5,0.2-1.3,0.3-2c0.1-0.4,0.1-0.8,0.1-1c0-0.4,0.1-1.2,0.1-1.7C51.2,66.6,51.2,66.5,51.2,66.3
				L51.2,66.3L51.2,66.3z"/>
			<path d="M50.1,66.2c0,0.1,0,0.6,0,1.1c0,0.3,0,0.7,0,0.9c0,0.2-0.1,0.6-0.1,1.1c-0.1,0.8-0.2,1.7-0.2,2.2c0,0.7,0.2,2.1,0.2,2.1
				l0.1,0c0,0-0.2-1.4-0.2-2c0-0.4,0.1-1.4,0.2-2.1c0.1-0.5,0.1-1,0.1-1.1c0-0.2,0-0.5,0-0.9C50.2,66.8,50.2,66.4,50.1,66.2
				L50.1,66.2L50.1,66.2z"/>
			<path d="M49,66.2c0,0.2,0,0.6,0,1.1c0,0.4,0,0.9,0,1.2c-0.1,0.7-0.1,2.4-0.1,2.4l0.1,0c0,0,0-1.6,0.1-2.4c0-0.3,0-0.8,0-1.2
				C49.2,66.8,49.1,66.3,49,66.2L49,66.2L49,66.2z"/>
			<path d="M48,66.2c0,0.2,0,0.6,0,1c0,0.3,0,0.7,0,0.9c0,0.2,0,0.5,0,0.7c0,0.2,0,0.3,0,0.4l0.1,0c0-0.1,0-0.3,0-0.5
				c0-0.2,0-0.4,0-0.7c0-0.2,0-0.6,0-0.9C48.1,66.8,48.1,66.4,48,66.2L48,66.2L48,66.2z"/>
			<path d="M47.7,70.1c0-0.1-0.1-0.2-0.2-0.3c-0.1-0.1-0.2-0.2-0.3-0.3l-0.1,0.1c0.1,0.1,0.2,0.2,0.3,0.3
				C47.5,70,47.6,70.1,47.7,70.1L47.7,70.1L47.7,70.1z"/>
			<path d="M48.7,72.7c-0.1,0-0.3,0-0.6-0.1c-0.2-0.1-0.3-0.1-0.5-0.3c-0.3-0.2-0.4-0.6-0.5-0.8c0,0,0-0.1,0-0.1
				c-0.1-0.2-0.4-0.5-0.4-0.5l-0.1,0.1c0,0,0.3,0.3,0.4,0.5c0,0,0,0.1,0,0.1c0.1,0.2,0.2,0.6,0.5,0.9c0.1,0.1,0.3,0.2,0.5,0.3
				C48.3,72.7,48.5,72.8,48.7,72.7L48.7,72.7L48.7,72.7z"/>
			<path d="M46.6,74.6c0-0.1,0.1-0.3,0.1-0.4c0-0.2,0-0.3,0-0.4c0-0.2-0.2-0.7-0.2-0.9l0,0c-0.1-0.2-0.4-0.9-0.4-0.9l-0.1,0
				c0,0,0.3,0.7,0.4,0.9l0,0c0.1,0.2,0.2,0.6,0.2,0.9c0,0.1,0,0.3,0,0.4C46.6,74.3,46.6,74.4,46.6,74.6L46.6,74.6L46.6,74.6z"/>
			<path d="M48.2,74c0-0.1-0.2-0.4-0.3-0.6c-0.1-0.2-0.2-0.4-0.2-0.5c-0.1-0.2-0.1-0.3-0.2-0.4c0,0,0-0.1-0.1-0.1
				c-0.1-0.1,0-0.2,0-0.2l-0.1,0c0,0,0,0.1,0,0.3c0,0,0,0.1,0.1,0.1c0,0.1,0.1,0.2,0.2,0.4c0.1,0.1,0.1,0.3,0.2,0.5
				C48,73.6,48.1,73.9,48.2,74L48.2,74L48.2,74z"/>
			<path d="M47.5,72.7c0,0.1,0,0.4,0,0.6c0,0.1,0,0.3-0.1,0.4c-0.1-0.1-0.7-0.3-0.9-0.7l-0.1,0c0.3,0.6,1,0.8,1,0.8l0,0l0,0
				c0.1-0.1,0.1-0.3,0.1-0.4C47.6,73,47.6,72.8,47.5,72.7L47.5,72.7L47.5,72.7z"/>
			<path d="M47.6,74.9c0-0.2,0-0.5,0-0.7c0-0.2,0-0.4-0.1-0.5l-0.1,0c0,0.1,0.1,0.3,0.1,0.5C47.5,74.4,47.6,74.7,47.6,74.9
				L47.6,74.9L47.6,74.9z"/>
			<path d="M44.5,75.1c-0.1-0.1-0.3-0.3-0.4-0.6C44,74.3,44,74,44,73.8l-0.1,0c0,0.3,0,0.5,0.1,0.7C44.2,74.8,44.3,75.1,44.5,75.1
				L44.5,75.1L44.5,75.1z"/>
			<path d="M43.8,73.9c-0.1,0.1-0.4,0.4-0.6,0.7c-0.2,0.2-0.3,0.5-0.4,0.7c0,0,0,0.1-0.1,0.2c-0.1,0.4-0.2,0.8-0.5,0.8v0.1
				c0.3,0,0.4-0.5,0.5-0.9c0-0.1,0-0.1,0.1-0.2c0.1-0.2,0.2-0.4,0.4-0.7C43.5,74.4,43.8,74.1,43.8,73.9L43.8,73.9L43.8,73.9z"/>
			<path d="M42.4,74c0,0.2,0,0.5,0.1,0.8c0.1,0.2,0.2,0.4,0.3,0.6l0.1-0.1c-0.1-0.1-0.2-0.3-0.3-0.5C42.5,74.6,42.5,74.2,42.4,74
				L42.4,74L42.4,74z"/>
			<path d="M44.1,74.5c-0.1,0.1-0.2,0.3-0.4,0.6c-0.1,0.2-0.2,0.5-0.3,0.7c-0.1-0.1-0.3-0.5-0.4-0.8l-0.1,0c0.1,0.4,0.5,0.9,0.5,0.9
				l0.1,0.1l0-0.1c0-0.2,0.2-0.5,0.3-0.7C43.9,74.9,44.1,74.7,44.1,74.5L44.1,74.5L44.1,74.5z"/>
			<path d="M45,77.6c0,0-0.2,0.1-0.3,0.1c-0.1,0-0.2,0-0.2-0.1l-0.1,0.1c0.1,0.1,0.2,0.1,0.3,0.1C44.9,77.8,45,77.7,45,77.6L45,77.6
				L45,77.6z"/>
			<path d="M43.8,75.1c0,0.1,0.1,0.4,0.2,0.7c0.1,0.3,0.2,0.6,0.2,0.7c0.1,0.2,0.2,0.4,0.2,0.7c0,0.2,0.1,0.3,0,0.4c0,0,0,0,0,0.1
				c-0.1,0.1-0.1,0.1-0.3,0.2c-0.1,0-0.2,0-0.4,0c-0.1,0-0.1,0-0.1-0.1l0,0.1c0.1,0,0.1,0.1,0.2,0.1c0.1,0,0.3,0,0.4,0
				c0.1,0,0.2-0.1,0.3-0.2c0,0,0-0.1,0-0.1c0-0.1,0-0.3,0-0.4c-0.1-0.3-0.1-0.5-0.2-0.7c-0.1-0.1-0.2-0.4-0.2-0.7
				C44,75.5,43.9,75.2,43.8,75.1L43.8,75.1L43.8,75.1z"/>
			<path d="M43.4,75.9c0,0.2,0,0.5,0.1,0.7c0,0.2,0.1,0.4,0.1,0.6c0,0.1,0.1,0.3,0.1,0.4c0,0.1,0,0.2-0.1,0.3c0,0,0,0,0,0l0,0
				c-0.1,0.1-0.3,0.1-0.4,0c-0.1,0-0.3-0.1-0.3-0.1l0,0h0l-0.1,0.1l0,0v0c0,0.1,0.2,0.1,0.3,0.2c0.2,0,0.3,0,0.5-0.1l0,0
				c0,0,0,0,0,0c0.1-0.1,0.2-0.2,0.2-0.4c0-0.1,0-0.3-0.1-0.4c0-0.1-0.1-0.3-0.1-0.6C43.5,76.4,43.5,76.1,43.4,75.9L43.4,75.9
				L43.4,75.9z"/>
			<path d="M42.7,75.8c0,0.2,0,0.5,0,0.9c0,0.2,0,0.4,0,0.5c0,0.2,0,0.3,0,0.4c0,0.1,0,0.2,0,0.3c0,0-0.1,0.1-0.2,0.1
				c-0.1,0-0.1,0-0.2,0v0.1c0.1,0,0.2,0,0.3-0.1c0.1,0,0.2-0.1,0.2-0.2c0-0.1,0-0.1,0-0.3c0-0.1,0-0.2,0-0.4c0-0.2,0-0.4,0-0.5
				C42.8,76.4,42.8,76,42.7,75.8L42.7,75.8L42.7,75.8z"/>
			<path d="M45.9,80.2C45.8,80.2,45.8,80.2,45.9,80.2c-0.2,0.1-0.5,0.1-0.7,0l-0.1,0.1C45.4,80.4,45.6,80.3,45.9,80.2
				C45.8,80.3,45.9,80.3,45.9,80.2L45.9,80.2L45.9,80.2z"/>
			<path d="M44.3,77.8c0,0.1,0,0.2,0.1,0.2c0.1,0.3,0.1,0.5,0.4,0.9c0.2,0.3,0.3,0.5,0.3,0.7c0.1,0.2,0.1,0.4,0,0.5c0,0,0,0,0,0.1h0
				c-0.1,0.1-0.2,0.2-0.4,0.2c-0.2,0-0.4,0-0.5,0c-0.1,0-0.1,0-0.2-0.1L44,80.4c0.1,0,0.1,0.1,0.2,0.1c0.2,0.1,0.4,0.1,0.5,0
				c0.2,0,0.3-0.1,0.4-0.2v0c0,0,0,0,0-0.1c0.1-0.1,0-0.3,0-0.6c-0.1-0.2-0.2-0.5-0.3-0.7c-0.2-0.4-0.3-0.6-0.4-0.9
				C44.4,77.9,44.4,77.9,44.3,77.8L44.3,77.8L44.3,77.8z"/>
			<path d="M43.6,77.8c0,0.1,0,0.4,0.1,0.7c0,0.3,0.1,0.6,0.2,0.8c0,0.1,0,0.2,0.1,0.2c0.1,0.4,0.2,0.9-0.2,1
				c-0.2,0.1-0.4,0.1-0.5,0c-0.2,0-0.3-0.1-0.3-0.2l-0.1,0c0,0.1,0.2,0.2,0.4,0.2c0.1,0,0.3,0,0.5,0c0.5-0.1,0.4-0.6,0.2-1.1
				c0-0.1,0-0.2-0.1-0.2c-0.1-0.2-0.1-0.5-0.2-0.8C43.8,78.2,43.7,77.9,43.6,77.8L43.6,77.8L43.6,77.8z"/>
			<path d="M42.8,77.9c0,0.2,0,0.5,0,0.9c0,0.3,0,0.6,0,0.8c0,0.1,0,0.2,0,0.3l0,0c0,0.1,0,0.2,0,0.3c0,0.2-0.1,0.3-0.2,0.3
				c-0.1,0.1-0.2,0.1-0.4,0.1v0.1c0.2,0,0.3,0,0.4-0.1c0.1-0.1,0.2-0.2,0.2-0.4c0-0.1,0-0.2,0-0.3l0,0c0-0.1,0-0.2,0-0.3
				c0-0.2,0-0.5,0-0.8C42.9,78.4,42.9,78.1,42.8,77.9L42.8,77.9L42.8,77.9z"/>
			<path d="M45.7,83.1c0-0.1,0-0.1,0-0.2c-0.1-0.3-0.1-0.6-0.3-0.8c-0.2-0.3-0.5-1.6-0.5-1.6l-0.1,0c0,0,0.3,1.3,0.5,1.6
				c0.1,0.3,0.2,0.6,0.3,0.8C45.6,83,45.7,83,45.7,83.1L45.7,83.1L45.7,83.1z"/>
			<path d="M44.4,83.5c-0.1-0.5-0.2-0.9-0.2-1.3c0-0.2-0.1-0.3-0.1-0.5c-0.1-0.5-0.2-1.1-0.2-1.1l-0.1,0c0,0,0.1,0.7,0.2,1.2
				c0,0.1,0.1,0.3,0.1,0.5C44.2,82.6,44.3,83,44.4,83.5L44.4,83.5L44.4,83.5z"/>
			<path d="M43,83.6c0-0.2,0-0.6,0-1c0-0.8-0.1-1.9-0.1-2l-0.1,0c0,0.2,0.1,1.2,0.1,2C42.9,83,42.9,83.4,43,83.6L43,83.6L43,83.6z"
				/>
			<path d="M46.4,60.4C46.4,60.4,46.3,60.4,46.4,60.4c-0.4,0.1-1.1,0.1-1.7-0.6l-0.1,0.1C45.3,60.6,46,60.5,46.4,60.4
				C46.3,60.5,46.4,60.5,46.4,60.4L46.4,60.4L46.4,60.4z"/>
			<path d="M44.5,59.4c0,0.1,0.1,0.4,0.2,0.7c0.1,0.2,0.1,0.4,0.2,0.5c-0.2-0.1-0.6-0.2-1-0.7L43.8,60c0.5,0.6,1.2,0.7,1.2,0.7
				l0.1,0l0-0.1c-0.1-0.1-0.1-0.3-0.2-0.6C44.7,59.8,44.6,59.5,44.5,59.4L44.5,59.4L44.5,59.4z"/>
			<path d="M43.9,59.3c0,0.1,0,0.4-0.1,0.6c-0.1,0.2-0.1,0.4-0.3,0.5c-0.1-0.1-0.4-0.4-0.5-0.8l-0.1,0c0.2,0.5,0.6,0.9,0.6,0.9l0,0
				l0,0c0.1-0.2,0.2-0.4,0.3-0.6C44,59.7,44,59.5,43.9,59.3L43.9,59.3L43.9,59.3z"/>
			<path d="M43,59.2c0,0.3-0.1,0.6-0.2,0.9c-0.2,0.4-0.3,0.7-0.4,0.7v0.1c0.1,0,0.3-0.3,0.5-0.7C42.9,59.9,43,59.6,43,59.2L43,59.2
				L43,59.2z"/>
			<path d="M40.5,54.4c0.2,0.1,0.8,0.2,0.8,0.2l0,0.1C41.2,54.6,40.6,54.6,40.5,54.4L40.5,54.4L40.5,54.4z"/>
			<path d="M44.2,54.4c-0.2,0.1-0.8,0.2-0.8,0.2l0,0.1C43.4,54.6,44,54.6,44.2,54.4L44.2,54.4L44.2,54.4z"/>
			<path d="M37.6,53.6c0.1,0,0.3-0.1,0.4,0c0.2,0,0.4,0.1,0.5,0.1c0,0,0.1,0,0.1,0c0.3,0.1,0.6,0.2,0.9,0.3l0,0.1
				c-0.4,0-0.7-0.2-1-0.3c0,0-0.1,0-0.1,0c-0.1-0.1-0.3-0.1-0.5-0.1C37.8,53.6,37.7,53.6,37.6,53.6L37.6,53.6L37.6,53.6z"/>
			<path d="M38,53.5c0,0,0,0.1,0.1,0.1c0.1,0.2,0.2,0.4,0.4,0.6c0.1,0.1,0.2,0.1,0.3,0.1c0.1,0,0.2-0.1,0.2-0.1
				c0.1-0.1,0.2-0.3,0.2-0.3l0.1,0c0,0-0.1,0.2-0.2,0.3c0,0.1-0.2,0.1-0.3,0.1c-0.1,0-0.2,0-0.3-0.1c-0.2-0.2-0.3-0.4-0.4-0.6
				C38,53.7,37.9,53.6,38,53.5L38,53.5L38,53.5z"/>
			<path fill-rule="evenodd" clip-rule="evenodd" d="M38.4,53.7c-0.1,0-0.2,0.3-0.2,0.3c0,0.1,0.2,0.2,0.2,0.2s0.3-0.1,0.3-0.4
				L38.4,53.7L38.4,53.7z"/>
			<path d="M47.1,53.6c-0.1,0-0.3-0.1-0.4,0c-0.2,0-0.4,0.1-0.5,0.1c0,0-0.1,0-0.1,0c-0.3,0.1-0.6,0.2-0.9,0.3l0,0.1
				c0.4,0,0.7-0.2,1-0.3c0,0,0.1,0,0.1,0c0.1-0.1,0.3-0.1,0.5-0.1C46.8,53.6,47,53.6,47.1,53.6L47.1,53.6L47.1,53.6z"/>
			<path d="M46.7,53.5c0,0,0,0.1-0.1,0.1c-0.1,0.2-0.2,0.4-0.4,0.6c-0.1,0.1-0.2,0.1-0.3,0.1c-0.1,0-0.2-0.1-0.2-0.1
				c-0.1-0.1-0.2-0.3-0.2-0.3l-0.1,0c0,0,0.1,0.2,0.2,0.3c0,0.1,0.2,0.1,0.3,0.1c0.1,0,0.2,0,0.3-0.1c0.2-0.2,0.3-0.4,0.4-0.6
				C46.7,53.7,46.7,53.6,46.7,53.5L46.7,53.5L46.7,53.5z"/>
			<path fill-rule="evenodd" clip-rule="evenodd" d="M46.2,53.7c0.1,0,0.2,0.3,0.2,0.3c0,0.1-0.2,0.2-0.2,0.2s-0.3-0.1-0.3-0.4
				L46.2,53.7L46.2,53.7z"/>
			<g>
				<defs>
					<path id="SVGID_1_" d="M37.4,61h9.9v8.3c0,2.7-2.2,4.9-4.9,4.9l0,0c-2.7,0-4.9-2.2-4.9-4.9V61L37.4,61z"/>
				</defs>
				<use xlink:href="#SVGID_1_"  overflow="visible" fill-rule="evenodd" clip-rule="evenodd" fill="#FF1612"/>
				<clipPath id="SVGID_2_">
					<use xlink:href="#SVGID_1_"  overflow="visible"/>
				</clipPath>
				<g clip-path="url(#SVGID_2_)">
					
						<path fill-rule="evenodd" clip-rule="evenodd" fill="#FFFFFF" stroke="#000000" stroke-width="5.989000e-02" stroke-miterlimit="2.4142" d="
						M40.6,62.2V65c0,0-0.8,0.3-1.4,0.3c-0.6,0-0.9-0.5-0.9-0.8c0-0.4,0.3-0.8,0.6-0.8c0.4,0,0.4,0.4,0.4,0.5c0,0.1-0.1,0.3-0.3,0.3
						c-0.2,0-0.3-0.2-0.2-0.3c0,0-0.2,0.1-0.2,0.3c0,0.2,0.2,0.4,0.6,0.4c0.4,0,0.6-0.3,0.7-0.4c0.1-0.1,0.1-0.3,0-0.4
						c-0.1-0.2-0.3-0.3-0.2-0.6c0.1-0.2,0.4-0.5,0.2-0.7c-0.3-0.3-0.4-0.4-0.7-0.4c-0.3,0-0.4,0.1-0.5,0.2c-0.1,0.1-0.1,0.3,0.2,0.4
						c0,0-0.1-0.3,0.2-0.3c0.3,0,0.3,0.2,0.3,0.3c0,0.1-0.1,0.5-0.4,0.5c-0.3,0-0.6-0.3-0.6-0.8c0-0.5,0.5-0.8,0.8-0.8
						C39.4,61.8,40.5,62.1,40.6,62.2C40.6,62.2,40.6,62.1,40.6,62.2L40.6,62.2z"/>
					
						<path fill-rule="evenodd" clip-rule="evenodd" fill="#FFFFFF" stroke="#000000" stroke-width="5.989000e-02" stroke-miterlimit="2.4142" d="
						M41.3,61h2v4.9h3.9v2h-3.9v6.2c-0.3,0.1-0.7,0.1-1,0.1l0,0c-0.3,0-0.7,0-1-0.1v-6.2h-3.9v-2h3.9V61L41.3,61z"/>
					
						<path fill-rule="evenodd" clip-rule="evenodd" fill="#FFFFFF" stroke="#000000" stroke-width="5.989000e-02" stroke-miterlimit="2.4142" d="
						M40.6,68.8v2.9c0,0-0.8,0.3-1.4,0.3c-0.6,0-0.9-0.5-0.9-0.8c0-0.4,0.3-0.8,0.6-0.8c0.4,0,0.4,0.4,0.4,0.5
						c0,0.1-0.1,0.3-0.3,0.3c-0.2,0-0.3-0.2-0.2-0.3c0,0-0.2,0.1-0.2,0.3c0,0.2,0.2,0.4,0.6,0.4c0.4,0,0.6-0.3,0.7-0.4
						c0.1-0.1,0.1-0.3,0-0.4c-0.1-0.2-0.3-0.3-0.2-0.6c0.1-0.2,0.4-0.5,0.2-0.7c-0.3-0.3-0.4-0.4-0.7-0.4c-0.3,0-0.4,0.1-0.5,0.2
						c-0.1,0.1-0.1,0.3,0.2,0.4c0,0-0.1-0.3,0.2-0.3c0.3,0,0.3,0.2,0.3,0.3c0,0.1-0.1,0.5-0.4,0.5c-0.3,0-0.6-0.3-0.6-0.8
						c0-0.5,0.5-0.8,0.8-0.8C39.4,68.5,40.5,68.8,40.6,68.8C40.6,68.8,40.6,68.8,40.6,68.8L40.6,68.8z"/>
					
						<path fill-rule="evenodd" clip-rule="evenodd" fill="#FFFFFF" stroke="#000000" stroke-width="5.989000e-02" stroke-miterlimit="2.4142" d="
						M44,62.2V65c0,0,0.8,0.3,1.4,0.3c0.6,0,0.9-0.5,0.9-0.8c0-0.4-0.3-0.8-0.6-0.8c-0.4,0-0.4,0.4-0.4,0.5c0,0.1,0.1,0.3,0.3,0.3
						c0.2,0,0.3-0.2,0.2-0.3c0,0,0.2,0.1,0.2,0.3c0,0.2-0.2,0.4-0.6,0.4c-0.4,0-0.6-0.3-0.7-0.4c-0.1-0.1-0.1-0.3,0-0.4
						c0.1-0.2,0.3-0.3,0.2-0.6c-0.1-0.2-0.4-0.5-0.2-0.7c0.3-0.3,0.4-0.4,0.7-0.4c0.3,0,0.4,0.1,0.5,0.2c0.1,0.1,0.1,0.3-0.2,0.4
						c0,0,0.1-0.3-0.2-0.3c-0.3,0-0.3,0.2-0.3,0.3c0,0.1,0.1,0.5,0.4,0.5c0.3,0,0.6-0.3,0.6-0.8c0-0.5-0.5-0.8-0.8-0.8
						C45.2,61.8,44.2,62.1,44,62.2C44,62.2,44,62.1,44,62.2L44,62.2z"/>
					
						<path fill-rule="evenodd" clip-rule="evenodd" fill="#FFFFFF" stroke="#000000" stroke-width="5.989000e-02" stroke-miterlimit="2.4142" d="
						M44,68.8v2.9c0,0,0.8,0.3,1.4,0.3c0.6,0,0.9-0.5,0.9-0.8c0-0.4-0.3-0.8-0.6-0.8c-0.4,0-0.4,0.4-0.4,0.5c0,0.1,0.1,0.3,0.3,0.3
						c0.2,0,0.3-0.2,0.2-0.3c0,0,0.2,0.1,0.2,0.3c0,0.2-0.2,0.4-0.6,0.4c-0.4,0-0.6-0.3-0.7-0.4c-0.1-0.1-0.1-0.3,0-0.4
						c0.1-0.2,0.3-0.3,0.2-0.6c-0.1-0.2-0.4-0.5-0.2-0.7c0.3-0.3,0.4-0.4,0.7-0.4c0.3,0,0.4,0.1,0.5,0.2c0.1,0.1,0.1,0.3-0.2,0.4
						c0,0,0.1-0.3-0.2-0.3c-0.3,0-0.3,0.2-0.3,0.3c0,0.1,0.1,0.5,0.4,0.5c0.3,0,0.6-0.3,0.6-0.8c0-0.5-0.5-0.8-0.8-0.8
						C45.2,68.5,44.2,68.8,44,68.8C44,68.8,44,68.8,44,68.8L44,68.8z"/>
				</g>
			</g>
			<path d="M37.4,60.9h9.9h0.1V61v8.3c0,1.4-0.6,2.6-1.5,3.5c-0.9,0.9-2.2,1.5-3.5,1.5l0,0c-1.4,0-2.6-0.6-3.5-1.5
				c-0.9-0.9-1.5-2.2-1.5-3.5L37.4,60.9L37.4,60.9L37.4,60.9L37.4,60.9z M47.2,61.1h-9.8v8.3c0,1.3,0.5,2.6,1.4,3.4
				c0.9,0.9,2.1,1.4,3.4,1.4l0,0c1.3,0,2.6-0.5,3.4-1.4c0.9-0.9,1.4-2.1,1.4-3.4V61.1L47.2,61.1z"/>
			
				<path fill-rule="evenodd" clip-rule="evenodd" fill="#EDB92E" stroke="#000000" stroke-width="5.989000e-02" stroke-miterlimit="2.4142" d="
				M36.3,77c0.1,0.2,0.2,0.3,0.3,0.5c0.1,0.2,0.6,0.5,0.6,1c0,0.4-0.3,0.7-0.4,0.9c0,0,0,0,0,0c0.1-0.1,0.4-0.3,0.8-0.3
				c0.5,0,0.7,0.4,0.7,0.6c0,0.2-0.2,0.6-0.3,0.7c-0.1,0.1-0.1,0-0.1-0.2c0-0.1,0-0.3-0.3-0.3s-0.5,0.2-0.7,0.6c0,0,0.2,0.1,0.2,0.3
				c0,0.2-0.2,0.2-0.2,0.2s0.1,0.2,0.3,0.3c0.2,0.1,0.3-0.1,0.4,0c0.1,0.1-0.1,0.6-0.6,0.5c0,0,0,0.1-0.1,0.3
				c-0.2,0.1-0.3,0.2-0.3,0.3c-0.1,0.1-0.2,0.1-0.2,0c0-0.1-0.2-0.2-0.3-0.3c-0.1-0.1-0.2-0.2-0.2-0.3c0,0-0.3,0-0.5-0.2
				c-0.2-0.2-0.2-0.4-0.1-0.3c0.1,0,0.3,0.1,0.4,0c0.1-0.1,0.2-0.2,0.2-0.2s-0.2-0.1-0.2-0.3c0-0.2,0.2-0.2,0.2-0.2
				s-0.2-0.6-0.6-0.6c-0.4,0-0.4,0.3-0.3,0.4s-0.1,0.1-0.1,0c-0.1-0.1-0.4-0.6-0.2-1c0.2-0.4,0.8-0.4,1.2-0.1c0.1,0,0.1,0.1,0,0
				c-0.1-0.1-0.3-0.5-0.3-0.9C35.5,77.8,36.1,77.6,36.3,77L36.3,77z"/>
			<polygon points="35.8,80.5 36.8,80.5 36.8,80.5 35.8,80.5 35.8,80.5 			"/>
			<polygon points="35.8,81 36.8,81 36.8,81 35.8,81 35.8,81 			"/>
			<path d="M36.2,81c0,0.1,0,0.3-0.1,0.4c-0.1,0.1-0.2,0.2-0.3,0.3l0-0.1c0.1-0.1,0.2-0.2,0.3-0.3C36.1,81.3,36.1,81.1,36.2,81
				L36.2,81L36.2,81z"/>
			<path d="M36.5,81c0,0.1,0,0.3,0.1,0.4c0.1,0.1,0.2,0.2,0.3,0.3l0-0.1c-0.1-0.1-0.2-0.2-0.3-0.3C36.6,81.3,36.5,81.1,36.5,81
				L36.5,81L36.5,81z"/>
			<path d="M36.1,80.5c0,0-0.1-1-0.4-1.2l0,0C36.1,79.5,36.2,80.5,36.1,80.5L36.1,80.5L36.1,80.5z"/>
			<path d="M36.5,80.5c0,0,0.1-1,0.4-1.2l0,0C36.6,79.5,36.4,80.5,36.5,80.5L36.5,80.5L36.5,80.5z"/>
			
				<path fill-rule="evenodd" clip-rule="evenodd" fill="#EDB92E" stroke="#000000" stroke-width="5.989000e-02" stroke-miterlimit="2.4142" d="
				M48.4,77c0.1,0.2,0.2,0.3,0.3,0.5c0.1,0.2,0.6,0.5,0.6,1c0,0.4-0.3,0.7-0.4,0.9c0,0,0,0,0,0c0.1-0.1,0.4-0.3,0.8-0.3
				c0.5,0,0.7,0.4,0.7,0.6c0,0.2-0.2,0.6-0.3,0.7c-0.1,0.1-0.1,0-0.1-0.2c0-0.1,0-0.3-0.3-0.3c-0.3,0-0.5,0.2-0.7,0.6
				c0,0,0.2,0.1,0.2,0.3c0,0.2-0.2,0.2-0.2,0.2s0.1,0.2,0.3,0.3c0.2,0.1,0.3-0.1,0.4,0c0.1,0.1-0.1,0.6-0.6,0.5c0,0,0,0.1-0.1,0.3
				c-0.2,0.1-0.3,0.2-0.3,0.3c0,0.1-0.2,0.1-0.2,0c0-0.1-0.2-0.2-0.3-0.3c-0.1-0.1-0.2-0.2-0.2-0.3c0,0-0.3,0-0.5-0.2
				c-0.2-0.2-0.2-0.4-0.1-0.3c0.1,0,0.3,0.1,0.4,0c0.1-0.1,0.2-0.2,0.2-0.2s-0.2-0.1-0.2-0.3c0-0.2,0.2-0.2,0.2-0.2
				s-0.2-0.6-0.6-0.6c-0.4,0-0.4,0.3-0.3,0.4c0,0.1-0.1,0.1-0.1,0c-0.1-0.1-0.4-0.6-0.2-1c0.2-0.4,0.8-0.4,1.2-0.1
				c0.1,0,0.1,0.1,0,0c-0.1-0.1-0.3-0.5-0.3-0.9C47.5,77.8,48.1,77.6,48.4,77L48.4,77z"/>
			<polygon points="47.8,80.5 48.9,80.5 48.9,80.5 47.8,80.5 47.8,80.5 			"/>
			<polygon points="47.8,81 48.9,81 48.9,81 47.8,81 47.8,81 			"/>
			<path d="M48.2,81c0,0.1,0,0.3-0.1,0.4c-0.1,0.1-0.2,0.2-0.3,0.3l0-0.1c0.1-0.1,0.2-0.2,0.3-0.3C48.1,81.3,48.1,81.1,48.2,81
				L48.2,81L48.2,81z"/>
			<path d="M48.5,81c0,0.1,0,0.3,0.1,0.4c0.1,0.1,0.2,0.2,0.3,0.3l0-0.1c-0.1-0.1-0.2-0.2-0.3-0.3C48.6,81.3,48.6,81.1,48.5,81
				L48.5,81L48.5,81z"/>
			<path d="M48.1,80.5c0,0-0.1-1-0.4-1.2l0,0C48.1,79.5,48.2,80.5,48.1,80.5L48.1,80.5L48.1,80.5z"/>
			<path d="M48.5,80.5c0,0,0.1-1,0.4-1.2l0,0C48.6,79.5,48.5,80.5,48.5,80.5L48.5,80.5L48.5,80.5z"/>
		</g>
	</g>
	<path opacity="0.25" fill="#FFFFFF" d="M13,29.7v25.5C26.2,62.6,43.7,67,63,67c19.3,0,36.8-4.5,50-11.8V29.7H13z"/>
</g>
</svg>
