<?xml version="1.0" encoding="utf-8"?>
<!-- Generator: Adobe Illustrator 24.3.0, SVG Export Plug-In . SVG Version: 6.00 Build 0)  -->
<svg version="1.1" id="Layer_1" xmlns="http://www.w3.org/2000/svg" xmlns:xlink="http://www.w3.org/1999/xlink" x="0px" y="0px"
	 viewBox="0 0 126 126" enable-background="new 0 0 126 126" xml:space="preserve">
<g>
	<g>
		<g>
			<polygon fill="#F90805" points="13,63 113,63 113,29.7 13,29.7 13,63 			"/>
			<path fill="#F0F0F0" d="M13,96.3h100V63H13V96.3L13,96.3z M34.8,33.8c1.4,0,2.8,0.2,4.1,0.7c-6.3,0.6-11.2,5.7-11.2,11.8
				c0,6.2,4.9,11.2,11.2,11.8c-1.3,0.4-2.6,0.7-4.1,0.7c-6.9,0-12.5-5.6-12.5-12.5C22.3,39.4,27.9,33.8,34.8,33.8L34.8,33.8z
				 M41.4,36.1l0.7,2.1l2.2,0l-1.8,1.3l0.7,2.1l-1.8-1.3l-1.8,1.3l0.7-2.1l-1.8-1.3l2.2,0L41.4,36.1L41.4,36.1z M48.1,41.2l0.7,2.1
				l2.2,0l-1.8,1.3l0.7,2.1l-1.8-1.3l-1.8,1.3l0.7-2.1l-1.8-1.3l2.2,0L48.1,41.2L48.1,41.2z M34.8,41.2l0.7,2.1l2.2,0l-1.8,1.3
				l0.7,2.1l-1.8-1.3L33,46.6l0.7-2.1l-1.8-1.3l2.2,0L34.8,41.2L34.8,41.2z M37.2,49l0.7,2.1l2.2,0l-1.8,1.3l0.7,2.1l-1.8-1.3
				l-1.8,1.3l0.7-2.1l-1.8-1.3l2.2,0L37.2,49L37.2,49z M45.6,49l0.7,2.1l2.2,0l-1.8,1.3l0.7,2.1l-1.8-1.3l-1.8,1.3l0.7-2.1l-1.8-1.3
				l2.2,0L45.6,49L45.6,49z"/>
		</g>
	</g>
	<path opacity="0.25" fill="#FFFFFF" d="M13,29.7v25.5C26.2,62.6,43.7,67,63,67c19.3,0,36.8-4.5,50-11.8V29.7H13z"/>
</g>
</svg>
