<?xml version="1.0" encoding="utf-8"?>
<!-- Generator: Adobe Illustrator 24.3.0, SVG Export Plug-In . SVG Version: 6.00 Build 0)  -->
<svg version="1.1" id="Layer_1" xmlns="http://www.w3.org/2000/svg" xmlns:xlink="http://www.w3.org/1999/xlink" x="0px" y="0px"
	 viewBox="0 0 126 126" enable-background="new 0 0 126 126" xml:space="preserve">
<g>
	<g>
		<g>
			<polygon fill-rule="evenodd" clip-rule="evenodd" fill="#0456BD" points="113,74.1 113,51.9 13,51.9 13,74.1 113,74.1 			"/>
			<polygon fill-rule="evenodd" clip-rule="evenodd" fill="#FF1612" points="13,96.3 113,96.3 113,74.1 13,74.1 13,96.3 			"/>
			<polygon fill-rule="evenodd" clip-rule="evenodd" fill="#F0F0F0" points="13,51.9 113,51.9 113,29.7 13,29.7 13,51.9 			"/>
		</g>
		<g>
			
				<path fill-rule="evenodd" clip-rule="evenodd" fill="#FF1612" stroke="#F4F4F4" stroke-width="0.9974" stroke-miterlimit="2.4142" d="
				M58.7,47.5c0,0,0.6,11.4,0.4,16c-0.1,4.6-3.8,11.9-13,16.4c-9.2-4.5-12.9-11.8-13-16.4c-0.1-4.6,0.4-16,0.4-16h12.6H58.7
				L58.7,47.5z"/>
			<path fill-rule="evenodd" clip-rule="evenodd" fill="#F4F4F4" d="M46.1,49.2c0.4,0,1.8-0.1,1.8-0.1s-0.6,2.1-0.7,4.8
				c0,0,2.9,0.1,5.2-0.7c0,0-0.2,2.5,0,3.7c0,0-2.3-0.8-5.2-0.8v3.4c0,0,4.4,0.2,6.6-0.7c0,0-0.2,2.1,0,3.7c0,0-2.6-1-6.5-0.7v5
				c-0.3-0.1-0.7-0.2-1.1-0.2h0h0h0h0h0h0h0h0h0h0l0,0h0c-0.4,0-0.8,0.1-1.1,0.2v-5c-4-0.2-6.5,0.7-6.5,0.7c0.2-1.7,0-3.7,0-3.7
				c2.2,0.9,6.6,0.7,6.6,0.7v-3.4c-2.9,0-5.2,0.8-5.2,0.8c0.2-1.2,0-3.7,0-3.7c2.3,0.8,5.2,0.7,5.2,0.7c-0.1-2.7-0.7-4.8-0.7-4.8
				S45.6,49.2,46.1,49.2L46.1,49.2L46.1,49.2L46.1,49.2z"/>
			<path fill-rule="evenodd" clip-rule="evenodd" fill="#0456BD" d="M56,70.8c-0.6-0.9-1.7-2.3-3-2.3c-1.9,0-2.9,1.6-2.9,1.6
				s-1.4-3.5-4-3.5c-2.6,0-4,3.5-4,3.5s-1-1.6-2.9-1.6c-1.3,0-2.4,1.4-3,2.3c0.3,0.5,0.7,1.1,1.1,1.6c2,2.5,4.9,5,8.8,6.9
				c3.9-1.9,6.8-4.4,8.8-6.9C55.3,71.9,55.7,71.3,56,70.8L56,70.8z"/>
		</g>
	</g>
	<path opacity="0.25" fill="#FFFFFF" d="M13,29.7v25.5C26.2,62.6,43.7,67,63,67c19.3,0,36.8-4.5,50-11.8V29.7H13z"/>
</g>
</svg>
