<?xml version="1.0" encoding="utf-8"?>
<!-- Generator: Adobe Illustrator 24.3.0, SVG Export Plug-In . SVG Version: 6.00 Build 0)  -->
<svg version="1.1" id="Layer_1" xmlns="http://www.w3.org/2000/svg" xmlns:xlink="http://www.w3.org/1999/xlink" x="0px" y="0px"
	 viewBox="0 0 126 126" enable-background="new 0 0 126 126" xml:space="preserve">
<g>
	<g>
		<g>
			<polygon fill-rule="evenodd" clip-rule="evenodd" fill="#F0F0F0" points="13,29.7 113,29.7 113,51.9 13,51.9 13,29.7 			"/>
			<polygon fill-rule="evenodd" clip-rule="evenodd" fill="#0456BD" points="13,74.1 113,74.1 113,51.9 13,51.9 13,74.1 			"/>
			<polygon fill-rule="evenodd" clip-rule="evenodd" fill="#FF1612" points="13,74.1 113,74.1 113,96.3 13,96.3 13,74.1 			"/>
		</g>
		<g>
			<path fill-rule="evenodd" clip-rule="evenodd" fill="#0456BD" d="M42.5,64.5c2.3-0.9,4.2-2.2,5.6-3.9c1.3-1.6,2.2-3.6,2.4-5.9
				c0.2-1.8,0.3-3.8,0.5-5.7c0.2-2.5,0.3-4.7,0.4-5.8c0-0.3,0-0.7,0-0.8c-0.9-0.4-4.6-1.9-8.9-1.8c-4.3-0.1-8,1.4-8.9,1.8
				c0,0.1,0,0.5,0,0.8c0.1,1.1,0.2,3.2,0.4,5.8c0.1,1.8,0.3,3.8,0.5,5.7c0.2,2.3,1.1,4.3,2.4,5.9C38.3,62.3,40.2,63.6,42.5,64.5
				L42.5,64.5z"/>
			<path fill-rule="evenodd" clip-rule="evenodd" fill="#F4F4F4" d="M42.5,58.1c0,0,0.6,0,1.2-0.3c0.6-0.3,0.9-0.3,1.2-0.3
				c0.3,0,0.8,0.1,1.2,0.3c0.4,0.2,0.8,0.3,1.3,0.3c0.5,0,1.5-0.4,1.8-1c0.4-0.6,0.5-1.4,0.5-1.4L46.1,51l-1.4,1.9l-2.2-4.3
				l-2.2,4.3L38.9,51l-3.6,4.8c0,0,0.1,0.8,0.5,1.4c0.4,0.6,1.4,1,1.8,1c0.5,0,0.8-0.1,1.3-0.3c0.4-0.2,1-0.3,1.2-0.3
				c0.3,0,0.6,0,1.2,0.3C41.9,58.1,42.5,58.1,42.5,58.1L42.5,58.1z M42.5,63.8c0,0-2.8-0.8-5-3.5c0,0,1,0,1.5-0.4
				c0.5-0.4,1.6-0.4,2.1-0.1c0.5,0.3,0.9,0.5,1.4,0.5c0.5,0,0.9-0.2,1.4-0.5c0.5-0.3,1.5-0.3,2.1,0.1c0.5,0.4,1.5,0.4,1.5,0.4
				C45.3,63,42.5,63.8,42.5,63.8L42.5,63.8z M42.5,58.8c-0.4,0-0.8-0.1-1.1-0.3c-0.4-0.2-0.7-0.4-1.3-0.4c-0.6,0-0.9,0.2-1.2,0.3
				c-0.3,0.2-0.6,0.3-1.1,0.3c-0.5,0-1-0.2-1.5-0.5c0,0,0.3,0.6,0.6,1c0,0,0.6,0.3,1.2,0.2c0.6-0.1,0.5-0.1,1-0.4
				c0.5-0.3,0.7-0.3,1.1-0.3c0.4,0,0.6,0.1,1.2,0.4c0.6,0.3,1.1,0.3,1.1,0.3s0.5,0,1.1-0.3c0.6-0.3,0.9-0.4,1.2-0.4
				c0.4,0,0.6,0,1.1,0.3c0.5,0.3,0.4,0.3,1,0.4c0.6,0.1,1.2-0.2,1.2-0.2c0.3-0.4,0.6-1,0.6-1c-0.5,0.3-1,0.5-1.5,0.5
				c-0.5,0-0.8-0.1-1.1-0.3c-0.3-0.2-0.7-0.3-1.2-0.3c-0.6,0-0.9,0.2-1.3,0.4C43.3,58.8,42.9,58.8,42.5,58.8L42.5,58.8z"/>
			<path fill-rule="evenodd" clip-rule="evenodd" fill="#FEDC36" d="M42.5,45.5l0.2,0.5l0.5-0.1l-0.4,0.4l0.4,0.4l-0.5-0.1L42.5,47
				l-0.2-0.5l-0.5,0.1l0.4-0.4l-0.4-0.4l0.5,0.1L42.5,45.5L42.5,45.5z M39.8,41.9l0.2,0.5l0.5-0.1l-0.4,0.4l0.4,0.4L40,42.9
				l-0.2,0.5l-0.2-0.5L39.1,43l0.4-0.4l-0.4-0.4l0.5,0.1L39.8,41.9L39.8,41.9z M45.2,41.9l0.2,0.5l0.5-0.1l-0.4,0.4l0.4,0.4
				l-0.5-0.1l-0.2,0.5L45,42.9L44.5,43l0.4-0.4l-0.4-0.4l0.5,0.1L45.2,41.9L45.2,41.9z"/>
			<path fill="#FF1612" d="M52,42.8c0,0.1,0,0.3,0,0.7c-0.1,1.1-0.2,3.2-0.4,5.6c-0.1,1.8-0.3,3.8-0.5,5.7c-0.2,2.4-1.1,4.5-2.5,6.3
				c-1.4,1.7-3.2,3-5.4,3.9c-0.2,0.1-0.5,0.2-0.7,0.3c-0.2-0.1-0.5-0.2-0.7-0.3c-2.2-1-4.1-2.3-5.4-3.9c-1.4-1.7-2.3-3.8-2.5-6.3
				c-0.2-1.9-0.3-3.9-0.5-5.7c-0.2-2.4-0.3-4.4-0.4-5.6c0-0.4,0-0.6,0-0.7l0.7-0.3c0,0.1,0,0.5,0,0.8c0.1,1.1,0.2,3.2,0.4,5.8
				c0.1,1.8,0.3,3.8,0.5,5.7c0.2,2.3,1.1,4.3,2.4,5.9c1.4,1.7,3.3,3,5.6,3.9c2.3-0.9,4.2-2.2,5.6-3.9c1.3-1.6,2.2-3.6,2.4-5.9
				c0.2-1.8,0.3-3.8,0.5-5.7c0.2-2.5,0.3-4.7,0.4-5.8c0-0.3,0-0.7,0-0.8L52,42.8L52,42.8z"/>
		</g>
	</g>
	<path opacity="0.25" fill="#FFFFFF" d="M13,29.7v25.5C26.2,62.6,43.7,67,63,67c19.3,0,36.8-4.5,50-11.8V29.7H13z"/>
</g>
</svg>
