<?xml version="1.0" encoding="utf-8"?>
<!-- Generator: Adobe Illustrator 24.3.0, SVG Export Plug-In . SVG Version: 6.00 Build 0)  -->
<svg version="1.1" id="Layer_1" xmlns="http://www.w3.org/2000/svg" xmlns:xlink="http://www.w3.org/1999/xlink" x="0px" y="0px"
	 viewBox="0 0 126 126" enable-background="new 0 0 126 126" xml:space="preserve">
<g>
	<g>
		<polygon fill-rule="evenodd" clip-rule="evenodd" fill="#00840F" points="18,96.3 113,96.3 113,33 18,96.3 		"/>
		<polygon fill-rule="evenodd" clip-rule="evenodd" fill="#0437A0" points="13,93 13,29.7 108,29.7 13,93 		"/>
		<polygon fill="#FFCD31" points="113,33 18,96.3 13,96.3 13,93 108,29.7 113,29.7 113,33 		"/>
		<path fill-rule="evenodd" clip-rule="evenodd" fill="#FFFFFF" d="M22.9,32.4l1.4,4.2h4.5l-3.6,2.6l1.4,4.2l-3.6-2.6l-3.6,2.6
			l1.4-4.2l-3.6-2.6h4.4L22.9,32.4L22.9,32.4z M47.1,53.1l1.4,4.2h4.4L49.3,60l1.4,4.2l-3.6-2.6l-3.6,2.6l1.4-4.2l-3.6-2.6h4.4
			L47.1,53.1L47.1,53.1z M22.9,53.1l1.4,4.2h4.5L25.1,60l1.4,4.2l-3.6-2.6l-3.6,2.6l1.4-4.2l-3.6-2.6h4.4L22.9,53.1L22.9,53.1z
			 M35,42.8l1.4,4.2h4.4l-3.6,2.6l1.4,4.2L35,51.2l-3.6,2.6l1.4-4.2L29.2,47h4.4L35,42.8L35,42.8z M47.1,32.4l1.4,4.2h4.4l-3.6,2.6
			l1.4,4.2l-3.6-2.6l-3.6,2.6l1.4-4.2l-3.6-2.6h4.4L47.1,32.4L47.1,32.4z"/>
	</g>
	<path opacity="0.25" fill="#FFFFFF" d="M13,29.7v25.5C26.2,62.6,43.7,67,63,67c19.3,0,36.8-4.5,50-11.8V29.7H13z"/>
</g>
</svg>
