<?xml version="1.0" encoding="utf-8"?>
<!-- Generator: Adobe Illustrator 24.3.0, SVG Export Plug-In . SVG Version: 6.00 Build 0)  -->
<svg version="1.1" id="Layer_1" xmlns="http://www.w3.org/2000/svg" xmlns:xlink="http://www.w3.org/1999/xlink" x="0px" y="0px"
	 viewBox="0 0 126 126" enable-background="new 0 0 126 126" xml:space="preserve">
<g transform="translate(-1)">
	<g transform="translate(1 1)">
		<path fill="#C7EBF9" d="M93.7,41.4l-2.3,4.7c-1.2,2.4-2,4.9-2.6,7.5L86.4,65c-0.2,1.1-1,1.9-2,2.3l-2.3,0.8c-1,0.4-1.7,1.2-2,2.2
			l-1.3,5.6c0,0.2-0.1,0.4-0.2,0.6l-1.1,2.2c-0.4,0.8-1.1,1.4-2,1.6l-3.7,0.9c-1.4,0.4-2.3,1.6-2.3,3v2.2c0,0.7-0.2,1.3-0.6,1.9
			l-3.8,5.2c-0.7,1-1.2,2.1-1.3,3.4l-1.2,11.1c-0.1,1.1-0.6,2.1-1.5,2.9c-1,0.9-2.2,1.3-3.5,1.1c-1.3-0.2-2.4-0.9-3.1-1.9
			c0.6-0.2,1.1-0.5,1.5-0.9c0.8-0.8,1.3-1.8,1.5-2.9l1.2-11.1c0.1-1.2,0.6-2.4,1.3-3.4l3.8-5.2c0.4-0.5,0.6-1.2,0.6-1.9v-2.2
			c0-1.4,0.9-2.7,2.3-3l3.7-0.9c0.9-0.2,1.6-0.8,2-1.6l1.1-2.2c0.1-0.2,0.2-0.4,0.2-0.6l1.3-5.6c0.3-1,1-1.9,2-2.2l2.3-0.8
			c1-0.4,1.8-1.2,2-2.3l2.5-11.3c0.6-2.6,1.4-5.1,2.6-7.5l2.3-4.7c0.4-0.8,0.4-1.7,0.1-2.5c-0.3-0.8-0.9-1.5-1.7-1.8l-10-4.1l0-0.1
			h0c0.4,0,0.8,0.1,1.1,0.2l14,5.8c0.8,0.3,1.4,1,1.7,1.8C94.1,39.8,94.1,40.7,93.7,41.4z"/>
		<path fill="#C7EBF9" d="M88.5,39.7l-2.3,4.7c-1.2,2.4-2,4.9-2.6,7.5l-2.5,11.3c-0.2,1.1-1,1.9-2,2.3l-2.3,0.8
			c-1,0.4-1.7,1.2-2,2.2l-1.3,5.6c0,0.2-0.1,0.4-0.2,0.6l-1.1,2.2c-0.4,0.8-1.1,1.4-2,1.6l-3.7,0.9c-1.4,0.4-2.3,1.6-2.3,3v2.2
			c0,0.7-0.2,1.3-0.6,1.9l-3.8,5.2c-0.7,1-1.2,2.1-1.3,3.4l-1.2,11.1c-0.1,1.1-0.6,2.1-1.5,2.9c-0.4,0.4-0.9,0.7-1.5,0.9
			c-0.3-0.4-0.5-0.8-0.6-1.3l-4.5-15.3c-0.1-0.2-0.1-0.4-0.1-0.6l-3.4-32c-0.1-1-0.7-2-1.7-2.4L40,56.2c-1.1-0.5-1.9-1.4-2.4-2.5
			l-5.2-12.1c-0.8-1.9-0.4-4.2,1-5.7l2-2c0.7-0.7,1-1.7,0.8-2.7l-0.9-5.4c-0.5-2.7,0.4-5.5,2.3-7.5l3.7-3.8c1.6-1.6,3.7-2.6,6-2.6
			h5.8c2.3,0,4.4,0.9,6,2.6l3.2,3.3L77,31.2l0,0.1l10,4.1c0.8,0.3,1.4,1,1.7,1.8C89,38,88.9,38.9,88.5,39.7z"/>
	</g>
</g>
</svg>
