<?xml version="1.0" encoding="utf-8"?>
<!-- Generator: Adobe Illustrator 24.3.0, SVG Export Plug-In . SVG Version: 6.00 Build 0)  -->
<svg version="1.1" id="Layer_1" xmlns="http://www.w3.org/2000/svg" xmlns:xlink="http://www.w3.org/1999/xlink" x="0px" y="0px"
	 viewBox="0 0 126 126" enable-background="new 0 0 126 126" xml:space="preserve">
<g>
	<g>
		<polygon fill-rule="evenodd" clip-rule="evenodd" fill="#F4F4F4" points="13,29.7 113,29.7 113,96.3 13,96.3 13,29.7 		"/>
		<polygon fill="#FF1612" points="66.6,51.9 33.3,29.7 113,29.7 113,51.9 66.6,51.9 		"/>
		<polygon fill="#FFCD31" points="13,88.3 13,83 42.8,63 13,43.1 13,37.7 50.7,63 13,88.3 		"/>
		<polygon fill="#00840F" points="13,37.7 13,29.7 25.2,29.7 64.8,56.4 113,56.3 113,69.7 64.9,69.6 25.2,96.3 13,96.3 13,88.3 
			50.7,63 13,37.7 		"/>
		<polygon fill="#0437A0" points="33.3,96.3 66.5,74 113,74.1 113,96.3 33.3,96.3 		"/>
		<polygon points="13,43.1 42.8,63 13,83 13,43.1 		"/>
	</g>
	<g>
		<path opacity="0.3" fill="#FFFFFF" d="M13,29.7v25.5C26.2,62.6,43.7,67,63,67s36.8-4.5,50-11.8V29.7H13z"/>
	</g>
</g>
</svg>
