<?xml version="1.0" encoding="utf-8"?>
<!-- Generator: Adobe Illustrator 24.3.0, SVG Export Plug-In . SVG Version: 6.00 Build 0)  -->
<svg version="1.1" id="Layer_1" xmlns="http://www.w3.org/2000/svg" xmlns:xlink="http://www.w3.org/1999/xlink" x="0px" y="0px"
	 viewBox="0 0 126 126" enable-background="new 0 0 126 126" xml:space="preserve">
<g>
	<g>
		<rect x="13" y="29.7" fill-rule="evenodd" clip-rule="evenodd" fill="#FFC703" width="100" height="66.7"/>
		<polygon fill="#FF6600" points="30.3,34.5 43.4,34.5 43.4,90.7 30.3,90.7 30.3,34.5 		"/>
		<polygon fill="#007A26" points="17.2,34.5 30.3,34.5 30.3,90.7 17.2,90.7 17.2,34.5 		"/>
		<polygon fill="#C20B18" points="48.1,34.5 108.8,34.5 108.8,90.7 48.1,90.7 48.1,34.5 		"/>
		<g>
			
				<path fill-rule="evenodd" clip-rule="evenodd" fill="#FFC703" stroke="#000000" stroke-width="0.1592" stroke-miterlimit="2.4142" d="
				M59.2,66.2c-0.5,0.6,0.1,0.9,0.1,0.9c-0.4,0.7,0.3,1,0.3,1s0,0.4-0.1,0.6c-0.1,0.2-0.3,0-0.4-0.1c-0.1-0.1-0.3-0.2-0.5,0
				c-0.2,0.1-0.4,0.5-0.1,0.8c0.3,0.3,0.7,0.3,0.9,0.2c0.2,0,0.2,0.2,0.1,0.3c-0.1,0.1-0.3,0.4-0.4,0.5c-0.2,0.2,0,0.3,0.1,0.4
				c0.1,0.2,0.3,0.7,0.3,1.1c0,0.4-0.5,0.9-0.5,0.9c-0.1-0.3-0.4-0.4-0.5-0.5c-0.1,0-0.6-0.1-0.6,0.6c0,0.7,1.3,1,1.3,1
				s-0.5,0.5-0.6,0.6c-0.2,0.1,0,0.2,0.1,0.2c0.1,0,0.7,0.1,0.9,0.2c0.2,0.1,0.2,0.4,0.3,0.6c0.1,0.2,0.3,0.4,0.4,0.4
				c0.1,0,0.3-0.2,0.4-0.4c0.1-0.2,0.2-0.5,0.2-0.6c0.1-0.1,0.8-0.2,0.9-0.2c0.2,0,0.2-0.1,0.1-0.1c-0.1-0.1-0.7-0.7-0.7-0.7
				c0.9-0.2,1.4-0.7,1.4-1.1s-0.3-0.6-0.7-0.6c-0.4,0.1-0.5,0.4-0.5,0.4c-0.3-0.2-0.5-0.4-0.5-0.8c0-0.4,0.1-0.7,0.3-0.9
				c0.2-0.2,0.2-0.4,0.1-0.5C61.3,70.3,61,70,61,69.9c-0.1-0.1-0.2-0.3-0.1-0.4c0.1-0.1,0.4,0.1,0.6,0.2c0.2,0.1,0.7,0,0.7-0.4
				c0-0.4-0.3-0.5-0.5-0.6c-0.2,0-0.6,0-0.6,0c0-0.1-0.1-0.2-0.1-0.2c0.4,0,0.5-0.2,0.5-0.2s0.1,0.2,0.3,0.2c0.2,0,0.4-0.3,0.4-0.3
				s0.2,0.1,0.3,0.2c0.1,0.1,0.3,0.3,0.3,0.5c0,0.2,0,1.3,0,1.7c0,0.4,0.2,0.5,0.3,0.8c0.2,0.2,0.4,0.1,0.4-0.1
				c0-0.2,0.1-0.2,0.2-0.3c0.1-0.1,0.2-0.1,0.4,0c0.1,0.1,1.3,1.2,1.9,1.7c0.6,0.5,1.5,0,1.9-0.2c0.4-0.3,1.2-1.1,1.2-1.1
				c1.8,1.4,2.4,1.3,2.4,1.3s0.8,2.1,0.9,3.3c0.2,1.3-0.7,1.8-1,1.9C71,78,69.9,78,69.5,78c-0.4,0-0.6,0-0.9,0.2
				c-0.3,0.2-0.8,0.7-1,1.7c-0.2,1,1.2-0.1,1.2-0.1c0.7,1.1,1.8,0,1.8,0c1,1,2.1,0,2.1,0c0.6,0.5,1.5,0.5,1.7,0.3
				c0.2-0.1,0.7-0.8,0.6-1.1c-0.1-0.4-0.2-1.3-0.1-1.6c0.1-0.2,0.3-0.2,1.1-0.5c0.9-0.3,0.9-0.6,1.3-1.1c0.4-0.5,0-0.5-0.4-0.6
				c-0.4-0.1-1-0.1-1.3-0.6c-0.2-0.4,0.2-1,0.4-1.4c0.2-0.4,0.9-1.4,0.9-1.4c0.9-0.1,3.7-1.5,5.5-2.2c1.8-0.7,3.2-0.5,3.2-0.5
				c-0.1,1.4,0.7,2.5,1.3,3.2c0.6,0.8,1.2,1.6,1.3,2.2c0.1,0.6,0.1,3.1,0.1,3.1c-0.2,0.4-0.8,0.6-1.3,0.6c-0.5,0-1.3,0-1.6,0.2
				c-0.3,0.2-1.1,1.2-0.7,1.6c0.4,0.4,1.4-0.4,1.4-0.4c0.9,1.1,1.8,0,1.8,0c1,1.1,1.8,0,1.8,0c1.2,1,1.7,0.2,1.7,0.2
				c0.2,0.7,1.3-0.2,1.3-0.2c0.8,1.1,1.8,0,1.8,0c1.3,1.2,1.9,0,1.9,0c1.4,1,2,0.3,1.8-0.1c-0.2-0.4-1.1-1.4-0.9-2.3
				c0.2-0.9,1.2-1.3,1.7-2c0.5-0.7-0.2-0.8-0.5-0.9c-0.4-0.2-1.3-0.7-1.2-2.9c0.1-2.2,1.7-4.6,1.7-7.3c0-2.7-1.5-4.4-1.5-4.4
				c2.9-2.3,1.4-4.8,0.1-5.6c-1.3-0.8-3-0.6-4.2-0.5c-1.2,0.1-3.2,0.4-4.4,0.4c-1.2-0.1-1.3-0.8-1.4-1.2c-0.1-0.4-0.4-0.4-0.7-0.2
				c-0.4,0.2-0.7,0.8-0.7,0.8s-0.4-0.4-0.4-1.1c0-0.7,1.4-1.1,1.4-1.1c-1.8-1.5-2.9,0.5-2.9,0.5c-1.4-1.2-0.5-2.1-0.1-2.4
				c0.4-0.3,1.1-0.2,1.3,0.2c0.2,0.4,0.5,0.2,0.7-0.2c0.2-0.3,0.1-1.2,0.1-1.2c1.8,0.1,2.6,2,1.4,3.6c1.6,0.1,2.8-1.5,2.1-3.2
				c1.6,0.6,1.6,1.7,0.8,2.9c-0.1,0.2-0.1,0.3,0.1,0.3c0.2,0,0.5,0,1.1-0.4c0.6-0.4,0.7-1,0.7-1c0.3,0.6,1,1,1.2,1.1
				c0.2,0.2,1,0.5,1.2,0.3c0.1-0.2-0.2-0.4-0.4-0.8c-0.2-0.4-0.2-0.9-0.2-0.9c0.4,0.2,2.1,1.7,2.7,2.2c0.6,0.5,1.7,0.7,2.5,0.3
				c0.8-0.4,0.9-1.2,0.7-1.9c-0.2-0.6-0.9-0.9-1.5-0.5c-0.6,0.4-0.3,1.1-0.3,1.1c-0.8-0.1-2-1.2-2.7-1.8c-0.7-0.5-2.1-1.6-3.8-2.4
				c-1.7-0.8-3.1-0.9-4.7-0.9c-1.6,0.1-2.1,0.4-2.5,0.5c-0.4,0.1-0.8,0.4-1.8,1.1c-0.9,0.7-1.2,1.7-1,2.8c0.1,1.1,1.2,2.1,1.2,2.1
				s-0.5,0.5-0.5,1.2c0,0.7,0.4,1.2,0.7,1.4c0.3,0.3,0.3-0.2,0.4-0.7c0.1-0.5,0.6-0.7,1-0.5c0.5,0.2,1.6,0.7,2.9,0.9
				c1.3,0.2,3.4,0.1,4.2-0.1c0.8-0.2,1.7-0.4,3.2-0.4c1.4,0,2.2,0.6,2.3,1.5c0.1,1-0.5,1.6-1.1,1.8c-0.6,0.3-1.5,0.6-2.1,0.7
				c-0.6,0.1-1.6,0.1-2.8,0.1c-1.1,0-2.5,0-3.2,0.2c-0.8,0.2-1.6,0.2-2.8,0.2c-1.2,0-3.8-0.1-3.8-0.1s-0.6-0.6-0.7-1.1
				c-0.2-0.4-0.1-0.9-0.1-0.9s0.5,0.4,0.7,0.3c0.2-0.2-0.2-0.9-0.3-1.3c-0.1-0.4,0-0.7,0-0.7s0.2,0.1,0.3,0c0.1-0.1,0.1-1.1,0.1-1.6
				c0-0.5,0.1-2-0.1-2.7c-0.2-0.6-0.6-1.1-0.6-1.1s0.5-0.5,0.9-1.2c0.4-0.7,0.3-1.5,0.3-1.5c-0.4,0.4-1.1,1-1.5,1
				c-0.5,0-0.5-0.2-0.9-0.6c-0.4-0.3-1-0.6-1.4-0.7c-0.4-0.1-0.4,0.3-0.5,0.6c-0.1,0.3-0.3,0.6-0.3,0.6s-0.3-0.4-0.8-0.7
				c-0.5-0.4-1-0.4-1.3-0.4c-0.3,0-0.3,0.4-0.3,0.9c0,0.6-0.6,0.2-0.8-0.1c-0.3-0.2-0.5-0.3-1.1-0.4c-0.6-0.1-1.6,0.1-1.6,0.1
				s0.2,0.5,0.2,0.7c0,0.2-0.3,0.5-0.6,0.7c-0.3,0.2-0.7,0.3-1.2,0.3c-0.6,0-0.9,0.1-1.2,0.3c-0.3,0.1-1,0-1.5,0.2
				c0.2-1.6-1.9-1.9-2.2-0.6c-0.2,0.9,0.3,2,0.9,2.7c0.6,0.7,1.2,1.3,1.4,1.5c0.2,0.2,0.7,0.4,0.8,0.5c0.2,0.1,0.2,0,0.2,0
				c0-0.1,0-0.6,0-0.6s0.5,0.5,0.7,0.6c0.2,0.1,0.3,0,0.4-0.2c0-0.2,0.2-0.4,0.2-0.4c0.2,0.4,1.3,1.8,1.3,1.8s-0.9,0-1.2-0.1
				c-0.4-0.1-1.6-0.4-2.3-0.7c-0.7-0.3-1.8-1.2-2.2-0.6c-0.3,0.6,0.6,1.2,0.6,1.2c-0.2,0.1-0.4,0.3-0.4,0.5c0,0.2-0.3,1.2-0.4,1.4
				c-0.1,0.2-0.2,0.4,0.1,0.4c0.3,0,1.5-0.2,1.6-0.2c0.1,0,0.1,0,0.1,0.1c0,0.1-0.2,0.4-0.2,0.5c-0.1,0.1-0.1,0.2,0,0.2
				c0.1,0,1-0.2,1.1-0.3c0.2-0.1,0.3-0.2,0.5,0.1c0.2,0.2,0.4,0.5,0.6,0.5c0.2,0,0.3-0.2,0.3-0.5c0.1-0.3,0.2,0.2,0.4,0.5
				c0.2,0.3,0.4,0.7,0.6,0.6c0.2-0.1,0.3-0.5,0.5-0.7c0.2-0.2,0.6-0.3,0.6,0.3c0,0.6-0.8,0.7-3.2,2.9c-2.4,2.2-1.8,6-1.8,6l-3.5-3.5
				c0,0,1.1-0.6,0.8-1.6c-0.2-1-1.5-0.9-1.5-0.9s0.1-0.3,0.1-0.6c0-0.3,0-1.9,0.1-4.5c0.1-2.7,0.4-7,0.7-9.4
				c0.3-2.4,0.8-2.6,0.6-2.7c-0.1-0.1-0.8,0.2-1.6,1c-0.8,0.8-1.8,2.9-2.1,4.4c-0.7,3.4-0.5,8.2-0.5,11.8c-0.4-0.1-0.7,0-1,0.2
				c-0.3,0.2-0.9,0.7-0.4,1.6c0.5,0.8,1.6,1,1.6,1c-0.4,0.4,0,0.8,0,0.8C58.4,65.3,58.9,66,59.2,66.2L59.2,66.2z M91.8,72.4
				c0.7,0.4,2.3,1.4,2.7,2.1c0.4,0.8,0.4,2.8,0.1,3.2c-0.4,0.3-1.7,0.5-2.3,0.8c-0.5,0.3-0.6,0.4-0.7,0.6c0,0-0.3,0.8-0.3,0.8
				c0,0-0.1,0.1,0,0c0-0.1,0.3-0.8,0.3-0.8c0-0.2,0-0.5-0.2-1c-0.3-0.6-0.1-1.1,0.2-1.6c0.4-0.4,1.3-1.4,1.1-1.8
				c-0.2-0.4-1-0.1-1.2-0.3C91.2,74.2,90.6,73.5,91.8,72.4L91.8,72.4z"/>
			<g>
				<path d="M80.6,49.5c-0.2,0.1-0.6,0.4-1.2,0.6c-0.5,0.2-1.3,0.4-2.1,0.4v-0.1c0.9,0,1.6-0.2,2.1-0.4
					C79.9,49.8,80.3,49.5,80.6,49.5L80.6,49.5L80.6,49.5z"/>
				<path d="M77.5,50.7c0.2,0.1,0.7,0.6,0.7,0.6l0.1,0.1l-0.1,0c0,0-1.5,0.3-2.9-0.3c0.1,0.2,0.2,0.5,0.3,0.6l0.1,0.1l-0.1,0
					c0,0-0.9,0.1-2.1-0.5c-0.6-0.3-1-0.5-1.3-0.5c-0.3,0-0.5,0-0.6,0.2c-0.1,0.1-0.1,0.1-0.1,0.2c0,0.1,0,0.2,0,0.4
					c0,0.1,0.1,0.2,0.2,0.3c0.1,0.1,0.1,0.1,0.2,0.1c0.1,0,0.3,0,0.5-0.1c0.1,0,0.1-0.1,0.2-0.2c0-0.1,0.1-0.1,0.1-0.2
					c0-0.1-0.1-0.2-0.2-0.3l0.1-0.1c0.2,0.1,0.2,0.3,0.3,0.4c0,0.1,0,0.2-0.1,0.3c-0.1,0.1-0.1,0.1-0.2,0.2
					c-0.2,0.1-0.4,0.2-0.6,0.1c-0.1,0-0.2-0.1-0.2-0.1c-0.1-0.1-0.2-0.2-0.2-0.4c0-0.1,0-0.3,0-0.4c0-0.1,0.1-0.2,0.2-0.3
					c0.2-0.2,0.4-0.3,0.7-0.2c0.3,0,0.7,0.2,1.3,0.5c0.9,0.5,1.6,0.5,1.9,0.5c-0.2-0.3-0.4-0.7-0.4-0.7L75,50.9l0.1,0.1
					c1.1,0.6,2.5,0.4,2.8,0.3C77.9,51.2,77.5,50.9,77.5,50.7L77.5,50.7L77.5,50.7z"/>
				<path d="M72.9,54c0,0.2,0.1,0.4,0.3,0.6c0.2,0.2,0.4,0.4,0.6,0.6c0.1-0.1,0.5-0.6,0.6-0.8l0-0.1l0.1,0c0,0,0.7,0.4,1,0.7
					c0-0.2,0.1-0.6,0.1-0.9l0-0.2l0.1,0.1c0,0,0.3,0.3,0.5,0.5c0.1-0.1,0.3-0.4,0.3-0.8l0-0.1l0.1,0.1c0,0,0.4,0.4,0.6,0.7
					c0.1-0.2,0.3-0.7,0.3-1.1l0.1,0c0.1,0.6-0.3,1.3-0.3,1.3l-0.1,0.1l0-0.1c-0.1-0.2-0.4-0.5-0.6-0.7c-0.1,0.5-0.4,0.8-0.4,0.8
					l0,0.1l0-0.1c-0.1-0.1-0.3-0.3-0.4-0.4c0,0.4-0.1,0.9-0.1,0.9l0,0.1l-0.1-0.1c-0.2-0.2-0.8-0.6-0.9-0.7
					c-0.1,0.3-0.6,0.8-0.6,0.8l0,0l0,0c-0.2-0.1-0.5-0.4-0.7-0.6c-0.2-0.2-0.3-0.4-0.3-0.6L72.9,54L72.9,54z"/>
				<path d="M78,53.6c0.2,0.1,0.4,0.2,0.5,0.4c0.1,0.1,0.3,0.2,0.4,0.3c0.1-0.3,0.3-1,0.1-1.5l0-0.1l0.1,0c0,0,0.2,0.1,0.4,0.5
					c0.1,0.2,0.2,0.5,0.2,0.7c0,0.2,0.1,0.3,0.1,0.4c0.1,0.3,1.3,1.4,1.3,1.4L81,55.8c0,0-1.2-1.1-1.3-1.4c0-0.1-0.1-0.3-0.1-0.5
					c0-0.2-0.1-0.5-0.2-0.7c-0.1-0.2-0.2-0.3-0.3-0.4c0.1,0.7-0.2,1.5-0.2,1.5l0,0.1l-0.1-0.1c-0.1-0.1-0.2-0.3-0.4-0.4
					C78.3,54,78.1,53.8,78,53.6L78,53.6L78,53.6z"/>
				<path d="M80.3,52.3c0.1,0.1,0.3,0.3,0.4,0.4c0.1,0.1,0.2,0.2,0.3,0.3l-0.1,0.1c-0.1-0.1-0.2-0.2-0.3-0.3
					C80.4,52.7,80.3,52.5,80.3,52.3L80.3,52.3L80.3,52.3z"/>
				<path d="M76.2,55.9c0.1,0.1,0.3,0.2,0.4,0.4c0.1,0.2,0.3,0.3,0.4,0.4c0.1-0.1,0.4-0.5,0.4-0.8l0-0.1l0.1,0c0,0,0.5,0.3,0.8,0.6
					c0.1-0.2,0.3-0.6,0.4-0.8l0,0l0,0.1c0,0,0.4,0.5,0.8,0.8c0.4,0.4,1.2,1,1.2,1l-0.1,0.1c0,0-0.8-0.6-1.2-1
					c-0.3-0.3-0.6-0.6-0.7-0.8c-0.2,0.3-0.4,0.8-0.4,0.8l0,0.1l-0.1-0.1c-0.2-0.2-0.6-0.5-0.7-0.6c-0.1,0.4-0.4,0.8-0.4,0.8l0,0.1
					l0-0.1c-0.1-0.1-0.2-0.3-0.4-0.5C76.4,56.2,76.3,56.1,76.2,55.9L76.2,55.9L76.2,55.9z"/>
				<path d="M65.8,55.2c0.1,0,0.3,0.1,0.4,0.1c0.4,0.1,0.9,0.3,1.7,0.4c1.2,0.2,1.8,0.2,1.8,0.2l0.1,0l-0.1,0.1l-0.4,0.6
					c0.2,0,0.7,0,1.1,0c0.1,0,0.3,0,0.4,0.1c0.2,0,0.4,0.1,0.5,0.1c0.1,0,0.1-0.1,0.1-0.2c0-0.2-0.1-0.5-0.3-0.7
					c-0.1-0.2-0.3-0.4-0.4-0.5l0.1-0.1c0.2,0.1,0.3,0.3,0.5,0.5c0.1,0.2,0.3,0.5,0.3,0.8c0,0.2,0,0.3-0.2,0.3c-0.1,0-0.3,0-0.5-0.1
					c-0.1,0-0.3-0.1-0.4-0.1c-0.5,0-1.2,0-1.2,0l-0.1,0l0.1-0.1l0.4-0.6c-0.2,0-0.8,0-1.7-0.2c-0.8-0.2-1.3-0.3-1.7-0.4
					c-0.2-0.1-0.3-0.1-0.4-0.1L65.8,55.2L65.8,55.2z"/>
				<path d="M73.6,56.3c0.2,0.5,0.8,1,1,1.1c0.1-0.1,0.3-0.4,0.5-0.8l0-0.1l0.1,0c0,0,0.7,0.4,1.1,1.3c0.1-0.1,0.2-0.3,0.3-0.4
					l0-0.1l0.1,0.1c0,0,0.5,0.7,1.6,1.2c0.1-0.1,0.2-0.4,0.2-0.6l0.1,0c0,0.2-0.2,0.7-0.2,0.7l0,0.1l-0.1,0c-1-0.5-1.5-1-1.7-1.2
					c-0.1,0.2-0.3,0.4-0.3,0.4L76.1,58l0-0.1c-0.3-0.8-0.8-1.2-1-1.3c-0.2,0.5-0.5,0.8-0.5,0.8l0,0l0,0c0,0-0.8-0.6-1-1.2L73.6,56.3
					L73.6,56.3z"/>
				<path d="M78.9,58.4c0.3,0.2,0.6,0.5,1.1,0.7c0.4,0.1,0.9,0.2,1.3,0.2l0,0.1c-0.5,0-1,0-1.4-0.2C79.5,59,79,58.7,78.9,58.4
					L78.9,58.4L78.9,58.4z"/>
				<path d="M80.8,59.2c0.1,0.2,0.3,0.4,0.6,0.7c0.2,0.2,0.5,0.3,0.9,0.5l0.1,0.1l-0.1,0.1c0,0-0.8,0.3-1.7,0.1
					c0,0.2-0.2,0.8-0.1,1.2l0,0.1l-0.1,0c0,0-1-0.1-1.9-0.6c-0.1,0.2-0.7,0.9-1.4,1.1l-0.1,0l0-0.1c0,0-0.2-0.9-0.4-1.4
					c-0.1-0.2-0.2-0.4-0.2-0.6c-0.1-0.2-0.1-0.3-0.1-0.4c-0.1,0.1-0.3,0.3-0.4,0.8c-0.1,0.7-0.4,1-0.4,1l-0.1,0l0-0.1
					c0,0-0.1-0.4-0.4-0.7c-0.1-0.1-0.2-0.3-0.3-0.4c-0.1,0.4-0.5,1.3-1,1.4l-0.1,0l0-0.1c0,0-0.1-0.5-0.3-1.1
					c-0.1,0.3-0.3,0.8-0.7,1.1c-0.6,0.5-0.8,0.5-0.8,0.5l-0.1,0l0-0.1c0,0,0.2-0.7,0-1c-0.2-0.2-0.2-0.5-0.1-0.6
					c-0.2,0.1-0.8,0.4-1.2,0.4l-0.1,0l0.1-0.1c0,0,0.4-0.5,0.4-0.8c0-0.4,0.3-0.7,0.3-0.7l0.1,0.1c0,0-0.3,0.3-0.3,0.6
					c0,0.3-0.3,0.7-0.4,0.8c0.6,0,1.2-0.4,1.2-0.4l0.1-0.1l0,0.1c0,0-0.1,0.3,0.1,0.6c0.2,0.3,0.1,0.8,0.1,1
					c0.1-0.1,0.3-0.2,0.7-0.5c0.6-0.4,0.7-1.2,0.7-1.2l0-0.2l0.1,0.2c0.2,0.5,0.3,1,0.3,1.2c0.5-0.3,0.9-1.5,0.9-1.5l0.1-0.2l0,0.2
					c0,0,0,0.3,0.3,0.5c0.2,0.2,0.3,0.5,0.4,0.6c0.1-0.1,0.3-0.3,0.3-0.8c0.1-0.7,0.5-1,0.5-1l0.1,0v0.1c0,0.1,0,0.3,0.1,0.5
					c0.1,0.2,0.1,0.4,0.2,0.6c0.2,0.4,0.4,1.1,0.4,1.3c0.7-0.2,1.3-1,1.3-1.1l0,0l0,0c0.7,0.4,1.6,0.5,1.9,0.6
					c0-0.5,0.1-1.3,0.1-1.3l0-0.1l0.1,0c0.7,0.2,1.3,0,1.5-0.1c-0.3-0.1-0.5-0.3-0.7-0.4C81,59.7,80.8,59.4,80.8,59.2L80.8,59.2
					L80.8,59.2z"/>
				<path d="M71.9,58c0,0.3,0.2,0.8,0.3,1c0.1-0.1,0.5-0.5,0.6-0.9l0-0.1l0.1,0.1c0,0,0.2,0.3,0.3,1c0.2-0.2,0.7-0.6,0.9-1l0-0.1
					l0.1,0c0,0,0.6,0.5,1,1.2c0.1-0.1,0.2-0.4,0.3-1l0-0.1l0.1,0c0,0,1,0.3,1.6,1.1c0.1-0.2,0.2-0.7,0.1-1.3l0.1,0
					c0,0.9-0.2,1.5-0.2,1.5l0,0.1l-0.1-0.1c-0.5-0.7-1.3-1-1.5-1.1c-0.1,0.8-0.3,1.1-0.3,1.1l-0.1,0.1l0-0.1
					c-0.3-0.6-0.8-1.1-0.9-1.2c-0.3,0.5-1,1-1,1l-0.1,0.1l0-0.1c0-0.5-0.1-0.8-0.2-1c-0.2,0.4-0.7,0.9-0.7,0.9l-0.1,0.1l0-0.1
					c0,0-0.3-0.7-0.4-1.1L71.9,58L71.9,58z"/>
				<path d="M78.6,66.5c0.1,1.8-1.6,5.3-1.6,5.4l-0.1,0c0,0,1.7-3.5,1.6-5.3L78.6,66.5L78.6,66.5z"/>
				<path d="M71.4,68.5c-0.2,0.4-0.3,1.3-0.2,2.2c0,0.7,0.1,1.4,0.3,1.9l-0.1,0.1c-0.2-0.4-0.3-1.2-0.3-1.9c0-0.9,0.1-1.8,0.2-2.3
					L71.4,68.5L71.4,68.5z"/>
				<path d="M66.1,67.4c0.2,0.5,0.8,1.6,1.5,2.5c0.5,0.6,1,1.2,1.5,1.4l0,0.1c-0.5-0.2-1-0.8-1.5-1.4c-0.7-0.9-1.3-2.1-1.5-2.6
					L66.1,67.4L66.1,67.4z"/>
				<path d="M85.6,69c0.2,0,0.4,0,0.6,0c1,0,1.8,0,2.7,0.7c0.3,0.3,0.6,0.6,1,0.9c0.6,0.6,1.3,1.2,2,1.7l-0.1,0.1
					c-0.8-0.4-1.4-1.1-2.1-1.7c-0.3-0.3-0.6-0.6-1-0.9c-0.8-0.7-1.7-0.7-2.6-0.7c-0.2,0-0.4,0-0.6,0L85.6,69L85.6,69z"/>
				<path d="M59.1,61.6c0.1,0.1,0.3,0.2,0.3,0.4c0.1,0.1,0.1,0.3,0.1,0.4c0,0.1-0.1,0.2-0.2,0.2c-0.1,0-0.1,0.1-0.1,0.2
					c0,0.1,0.1,0.2,0.3,0.3c0.2,0.1,0.5,0.1,0.9,0.1c0.3,0,0.6,0,0.8-0.1c0.1,0,0.2-0.1,0.3-0.1c0.1,0,0.1-0.1,0.1-0.1l0,0
					c0,0,0,0,0,0c0-0.1-0.1-0.1-0.2-0.2c-0.1-0.1-0.2-0.2-0.2-0.3c0-0.1,0.1-0.3,0.2-0.4c0.1-0.1,0.2-0.3,0.3-0.4l0.1,0.1
					c-0.1,0.1-0.2,0.2-0.3,0.3c-0.1,0.1-0.1,0.3-0.1,0.4c0,0.1,0.1,0.2,0.1,0.2c0.1,0.1,0.2,0.1,0.2,0.3c0,0,0,0,0,0l0,0
					c0,0.1-0.1,0.2-0.1,0.2c-0.1,0.1-0.2,0.1-0.4,0.2c-0.2,0.1-0.5,0.1-0.8,0.1c-0.4,0-0.7,0-1-0.1c-0.2-0.1-0.4-0.2-0.4-0.4
					c0-0.2,0.1-0.2,0.1-0.3c0,0,0.1-0.1,0.1-0.2c0-0.1,0-0.2-0.1-0.4C59.3,61.9,59.2,61.8,59.1,61.6L59.1,61.6L59.1,61.6z"/>
				<path d="M59.2,64.3c0.3,0,0.9,0,1.6,0c0.7,0,1.4-0.1,1.8-0.3l0,0.1c-0.4,0.2-1.2,0.3-1.8,0.3c-0.7,0-1.3,0-1.6,0L59.2,64.3
					L59.2,64.3z"/>
				<path d="M59.7,68.1c0.2,0,0.5,0,0.7,0.1c0.2,0.1,0.4,0.1,0.5,0.2l-0.1,0.1c-0.1-0.1-0.3-0.1-0.5-0.2c-0.3-0.1-0.5-0.1-0.7-0.1
					L59.7,68.1L59.7,68.1z"/>
				<path d="M59.4,67.1c0.2,0,0.7,0.1,1.1,0.2c0.4,0.1,0.7,0.2,0.8,0.3c0.1,0.1,0.2,0.2,0.2,0.3c0,0.2,0,0.3,0,0.4l-0.1-0.1
					c0-0.1,0-0.2,0-0.3c0-0.1-0.1-0.2-0.2-0.3c-0.1-0.1-0.4-0.2-0.8-0.2c-0.4-0.1-0.8-0.2-1.1-0.2V67.1L59.4,67.1z"/>
				<path d="M59.2,66.2c0.2,0,0.7,0.1,1.2,0.2c0.3,0.1,0.6,0.2,0.8,0.3c0.1,0.1,0.2,0.1,0.2,0.2c0.1,0.1,0.1,0.2,0.1,0.3
					c0,0.1,0,0.2-0.1,0.3c-0.1,0.1-0.1,0.2-0.2,0.2l-0.1-0.1c0.1,0,0.1-0.1,0.2-0.2c0-0.1,0.1-0.2,0.1-0.2c0-0.1,0-0.2,0-0.2
					c0-0.1-0.1-0.1-0.2-0.2c-0.1-0.1-0.4-0.2-0.8-0.2c-0.5-0.1-1-0.2-1.2-0.2L59.2,66.2L59.2,66.2z"/>
				<path d="M59.2,65.1c0.3,0.1,0.7,0.2,1.1,0.3c0.3,0.1,0.7,0.2,0.9,0.3c0.1,0.1,0.2,0.1,0.2,0.2c0.1,0.1,0.1,0.2,0.1,0.4
					c0,0.1,0,0.2-0.1,0.3c0,0.1-0.1,0.1-0.1,0.1l-0.1-0.1c0,0,0.1,0,0.1-0.1c0-0.1,0.1-0.2,0.1-0.3c0-0.1,0-0.2-0.1-0.3
					c0-0.1-0.1-0.1-0.2-0.2c-0.2-0.1-0.5-0.2-0.8-0.3c-0.4-0.1-0.9-0.3-1.1-0.3L59.2,65.1L59.2,65.1z"/>
				<path d="M60.1,64.3c0.3,0.1,0.6,0.2,0.9,0.3c0.2,0.1,0.3,0.2,0.5,0.3c0.1,0.1,0.2,0.2,0.1,0.4c0,0,0,0,0,0
					c-0.2,0.4-0.5,0.4-0.5,0.4l0-0.1c0,0,0.2-0.1,0.4-0.4c0,0,0,0,0,0c0-0.1,0-0.2-0.1-0.2c-0.1-0.1-0.2-0.2-0.4-0.3
					c-0.3-0.1-0.6-0.2-0.9-0.3L60.1,64.3L60.1,64.3z"/>
				<path d="M62.1,68.2c0.1-0.1,0.3-0.3,0.4-0.4c0.1-0.1,0.1-0.2,0-0.3c0,0,0,0,0,0c0,0-0.1-0.1-0.2-0.1c-0.1,0-0.2,0-0.2,0.1
					c-0.1,0-0.1,0.1-0.2,0.2c-0.3,0.3-0.4,0.4-0.4,0.4L61.4,68c0,0,0.1-0.1,0.4-0.4c0.1-0.1,0.1-0.1,0.2-0.2
					c0.1-0.1,0.2-0.1,0.3-0.1c0.1,0,0.2,0,0.2,0.1c0,0,0,0,0,0.1c0.1,0.1,0,0.2,0,0.4C62.4,68,62.3,68.2,62.1,68.2L62.1,68.2
					L62.1,68.2z"/>
				<path d="M62.3,67.3c0.1-0.2,0.2-0.6,0.3-0.9c0-0.1,0-0.1,0-0.2c0,0,0,0,0,0c0,0,0,0-0.1,0.1c-0.4,0.3-1,0.9-1,0.9l-0.1-0.1
					c0,0,0.6-0.6,1-0.9c0.1-0.1,0.1-0.1,0.1-0.1c0.1,0,0.1,0,0.1,0.1c0,0,0,0.1,0,0.2C62.6,66.7,62.5,67.2,62.3,67.3L62.3,67.3
					L62.3,67.3z"/>
				<path d="M62.4,66.2c0.1-0.2,0.1-0.3,0.1-0.4c0-0.1,0-0.2-0.1-0.2c-0.2-0.1-1,0.7-1,0.7l-0.1-0.1c0,0,0.8-0.8,1.1-0.7
					c0.1,0.1,0.2,0.2,0.2,0.3c0,0.1,0,0.3-0.1,0.5L62.4,66.2L62.4,66.2z"/>
				<path d="M62.3,65.5c0.1-0.1,0.1-0.3,0.2-0.4c0-0.1,0-0.2,0-0.3c-0.1-0.1-0.9,0.5-0.9,0.5l-0.1-0.1c0,0,1-0.7,1.1-0.5
					c0,0.1,0,0.2,0,0.4c0,0.1-0.1,0.3-0.2,0.5L62.3,65.5L62.3,65.5z"/>
			</g>
		</g>
		
			<path fill-rule="evenodd" clip-rule="evenodd" fill="#FFC703" stroke="#000000" stroke-width="0.1124" stroke-miterlimit="2.4142" d="
			M106.3,37.1l-0.1,0.7c0,0,0.7,1.1,0.3,1.8c-0.4,0.7-1.2,0.9-1.8,1.1c-0.7,0.2-1.8,0.4-2.3,1.1c-0.5,0.7-0.5,0.8-0.6,0.8
			c-0.1,0,0-0.9,0.1-1.2c0.1-0.3,0.4-1.2,0.4-1.7c0-1.3,0.4-2.5,1.3-2.8c0.4-0.2,1-0.1,1.7,0.2L106.3,37.1L106.3,37.1z"/>
		
			<path fill-rule="evenodd" clip-rule="evenodd" fill="#FFC703" stroke="#000000" stroke-width="0.1124" stroke-miterlimit="2.4142" d="
			M50.4,37.1l0.1,0.7c0,0-0.7,1.1-0.3,1.8c0.4,0.7,1.2,0.9,1.8,1.1c0.7,0.2,1.8,0.4,2.3,1.1c0.5,0.7,0.5,0.8,0.6,0.8
			c0.1,0,0-0.9-0.1-1.2c-0.1-0.3-0.4-1.2-0.4-1.7c0-1.3-0.4-2.5-1.3-2.8c-0.4-0.2-1-0.1-1.7,0.2L50.4,37.1L50.4,37.1z"/>
		
			<path fill-rule="evenodd" clip-rule="evenodd" fill="#FFC703" stroke="#000000" stroke-width="0.1124" stroke-miterlimit="2.4142" d="
			M106.3,88.3l-0.1-0.7c0,0,0.7-1.1,0.3-1.8c-0.4-0.7-1.2-0.9-1.8-1.1c-0.7-0.2-1.8-0.4-2.3-1.1s-0.5-0.8-0.6-0.8
			c-0.1,0,0,0.9,0.1,1.2c0.1,0.3,0.4,1.2,0.4,1.7c0,1.3,0.4,2.5,1.3,2.8c0.4,0.2,1,0.1,1.7-0.2L106.3,88.3L106.3,88.3z"/>
		
			<path fill-rule="evenodd" clip-rule="evenodd" fill="#FFC703" stroke="#000000" stroke-width="0.1124" stroke-miterlimit="2.4142" d="
			M50.4,88.3l0.1-0.7c0,0-0.7-1.1-0.3-1.8c0.4-0.7,1.2-0.9,1.8-1.1c0.7-0.2,1.8-0.4,2.3-1.1c0.5-0.7,0.5-0.8,0.6-0.8
			c0.1,0,0,0.9-0.1,1.2c-0.1,0.3-0.4,1.2-0.4,1.7c0,1.3-0.4,2.5-1.3,2.8c-0.4,0.2-1,0.1-1.7-0.2L50.4,88.3L50.4,88.3z"/>
	</g>
	<path opacity="0.3" fill="#FFFFFF" d="M13,29.7v25.5C26.2,62.6,43.7,67,63,67s36.8-4.5,50-11.8V29.7H13z"/>
</g>
</svg>
