<?xml version="1.0" encoding="utf-8"?>
<!-- Generator: Adobe Illustrator 24.3.0, SVG Export Plug-In . SVG Version: 6.00 Build 0)  -->
<svg version="1.1" id="Layer_1" xmlns="http://www.w3.org/2000/svg" xmlns:xlink="http://www.w3.org/1999/xlink" x="0px" y="0px"
	 viewBox="0 0 126 126" enable-background="new 0 0 126 126" xml:space="preserve">
<g>
	<g>
		<path fill-rule="evenodd" clip-rule="evenodd" fill="#F0F0F0" d="M113,43v6.7H13V43H113L113,43z M113,76.3V83H13v-6.7H113
			L113,76.3z"/>
		<path fill="#00840F" d="M13,83h100v13.3H13V83L13,83z M13,29.7h100V43H13V29.7L13,29.7z"/>
		<polygon fill="#FF1612" points="13,49.7 113,49.7 113,76.3 13,76.3 13,49.7 		"/>
		<polygon fill="#FFC703" points="71,75.3 63,69.5 54.9,75.3 58,65.8 49.9,60 59.9,60 63,50.5 66.1,60 76,60 68,65.8 71,75.3 		"/>
	</g>
	<path opacity="0.35" fill="#FFFFFF" d="M13,29.7v25.5C26.2,62.6,43.7,67,63,67s36.8-4.5,50-11.8V29.7H13z"/>
</g>
</svg>
