<?xml version="1.0" encoding="utf-8"?>
<!-- Generator: Adobe Illustrator 24.3.0, SVG Export Plug-In . SVG Version: 6.00 Build 0)  -->
<svg version="1.1" id="Layer_1" xmlns="http://www.w3.org/2000/svg" xmlns:xlink="http://www.w3.org/1999/xlink" x="0px" y="0px"
	 viewBox="0 0 126 126" enable-background="new 0 0 126 126" xml:space="preserve">
<g>
	<g>
		<g>
			<path fill="#1971E4" d="M13,29.7h30v26.7H13V29.7L13,29.7z M56.3,29.7H113v66.7H56.3V69.7H113V56.3H56.3V29.7L56.3,29.7z
				 M43,96.3H13V69.7h30V96.3L43,96.3z"/>
			<polygon fill="#FFDE27" points="43,29.7 56.3,29.7 56.3,56.3 113,56.3 113,69.7 56.3,69.7 56.3,96.3 43,96.3 43,69.7 13,69.7 
				13,56.3 43,56.3 43,29.7 			"/>
		</g>
	</g>
	<path opacity="0.35" fill="#FFFFFF" d="M13,29.7v25.5C26.2,62.6,43.7,67,63,67c19.3,0,36.8-4.5,50-11.8V29.7H13z"/>
</g>
</svg>
