<?xml version="1.0" encoding="utf-8"?>
<!-- Generator: Adobe Illustrator 24.3.0, SVG Export Plug-In . SVG Version: 6.00 Build 0)  -->
<svg version="1.1" id="Layer_1" xmlns="http://www.w3.org/2000/svg" xmlns:xlink="http://www.w3.org/1999/xlink" x="0px" y="0px"
	 viewBox="0 0 126 126" enable-background="new 0 0 126 126" xml:space="preserve">
<g>
	<g>
		<g>
			<polygon fill-rule="evenodd" clip-rule="evenodd" fill="#F0F0F0" points="113,77.3 113,48.7 13,48.7 13,77.3 113,77.3 			"/>
			<polygon fill-rule="evenodd" clip-rule="evenodd" fill="#47B71D" points="13,96.3 113,96.3 113,77.3 13,77.3 13,96.3 			"/>
			<polygon fill-rule="evenodd" clip-rule="evenodd" fill="#FF1612" points="13,48.7 113,48.7 113,29.7 13,29.7 13,48.7 			"/>
			<path fill-rule="evenodd" clip-rule="evenodd" fill="#FFC703" d="M75.3,69.6c0,0-3.5,2.4-5.8-1.7c0,0-1.6,1.7-3.7,0.8
				c-2.1-0.9-2.4-2.3-2.4-3.4c0-1.1,0-1.7,0-2.6s1.2-1.8,2.2-0.7c0.5-1.8-0.7-3.6-2.6-3.6c-1.9,0-3.2,1.8-2.6,3.6
				c1-1.1,2.2-0.2,2.2,0.7s0,1.5,0,2.6c0,1.1-0.4,2.5-2.4,3.4c-2.1,0.9-3.7-0.8-3.7-0.8c-2.3,4.1-5.8,1.7-5.8,1.7
				c0.8,3.5,5.5,2.5,6-0.6c0.4,0.9,1.9,2.1,3.7,1.5c1.8-0.6,2.6-3,2.6-3s0.7,2.4,2.6,3c1.8,0.6,3.3-0.6,3.7-1.5
				C69.8,72.2,74.5,73.1,75.3,69.6L75.3,69.6z M63,50.2l0.5,1.6l1.7,0l-1.3,1l0.5,1.6l-1.3-1l-1.3,1l0.5-1.6l-1.3-1l1.7,0L63,50.2
				L63,50.2z M63,59.1c0,0,1.8,0.1,2,1.8c-0.7-0.1-1.6,0.1-2,1c-0.4-0.8-1.3-1.1-2-1C61.2,59.2,63,59.1,63,59.1L63,59.1z M49.6,63.6
				l-0.5,1.6l-1.7,0l1.3,1l-0.5,1.6l1.3-1l1.3,1l-0.5-1.6l1.3-1l-1.7,0L49.6,63.6L49.6,63.6z M51.4,56.9l-0.5,1.6l-1.7,0l1.3,1
				L50.1,61l1.3-1l1.3,1l-0.5-1.6l1.3-1l-1.7,0L51.4,56.9L51.4,56.9z M56.3,52l-0.5,1.6l-1.7,0l1.3,1L55,56.2l1.3-1l1.3,1l-0.5-1.6
				l1.3-1l-1.7,0L56.3,52L56.3,52z M54,76c2.8-0.8,5.4-1.4,9-1.3c3.6-0.1,6.3,0.5,9,1.3l0.4-1.4c0,0-2.3-0.7-4.6-1
				c-2.3-0.4-4.8-0.3-4.8-0.3s-2.5,0-4.8,0.3c-2.3,0.4-4.6,1-4.6,1L54,76L54,76z M57.1,70.6c0,0-0.5,0.5-0.5,1.4c0,0-0.5,0.1-1,0.5
				c0,0,0.9,0.9,1.9,0.7c1-0.2,1.4-0.9,1.5-1.3c-0.2-0.1-0.7-0.1-1.1-0.1C57.9,71.7,57.8,71,57.1,70.6L57.1,70.6z M63,70.1
				c0,0-0.7,0.5-0.7,1.3c0,0-0.6-0.1-1.1,0.3c0,0,0.7,1,1.7,1c1,0,1.7-1,1.7-1c-0.4-0.4-1.1-0.3-1.1-0.3C63.7,70.6,63,70.1,63,70.1
				L63,70.1z M76.5,63.6l0.5,1.6l1.7,0l-1.3,1l0.5,1.6l-1.3-1l-1.3,1l0.5-1.6l-1.3-1l1.7,0L76.5,63.6L76.5,63.6z M74.6,56.9l0.5,1.6
				l1.7,0l-1.3,1L76,61l-1.3-1l-1.3,1l0.5-1.6l-1.3-1l1.7,0L74.6,56.9L74.6,56.9z M69.7,52l0.5,1.6l1.7,0l-1.3,1l0.5,1.6l-1.3-1
				l-1.3,1l0.5-1.6l-1.3-1l1.7,0L69.7,52L69.7,52z M68.9,70.6c0,0,0.5,0.5,0.5,1.4c0,0,0.5,0.1,1,0.5c0,0-0.9,0.9-1.9,0.7
				c-1-0.2-1.4-0.9-1.5-1.3c0.2-0.1,0.7-0.1,1.1-0.1C68.1,71.7,68.3,71,68.9,70.6L68.9,70.6z"/>
		</g>
	</g>
	<path opacity="0.35" fill="#FFFFFF" d="M13,29.7v25.5C26.2,62.6,43.7,67,63,67c19.3,0,36.8-4.5,50-11.8V29.7H13z"/>
</g>
</svg>
