<?xml version="1.0" encoding="utf-8"?>
<!-- Generator: Adobe Illustrator 24.3.0, SVG Export Plug-In . SVG Version: 6.00 Build 0)  -->
<svg version="1.1" id="Layer_1" xmlns="http://www.w3.org/2000/svg" xmlns:xlink="http://www.w3.org/1999/xlink" x="0px" y="0px"
	 viewBox="0 0 126 126" enable-background="new 0 0 126 126" xml:space="preserve">
<g>
	<g>
		<rect x="13" y="29.7" fill-rule="evenodd" clip-rule="evenodd" fill="#FF1612" width="100" height="66.7"/>
		<path fill-rule="evenodd" clip-rule="evenodd" fill="#FFFFFF" d="M63,46.3c-9.2,0-16.7,7.5-16.7,16.7S53.8,79.7,63,79.7
			c9.2,0,16.7-7.5,16.7-16.7S72.2,46.3,63,46.3L63,46.3z M63,50.5c4.2,0,7.8,2,10.1,5.1C71.3,54,68.9,53,66.3,53
			c-5.5,0-10,4.5-10,10s4.5,10,10,10c2.6,0,5-1,6.8-2.6c-2.3,3.1-6,5.1-10.1,5.1c-6.9,0-12.5-5.6-12.5-12.5
			C50.5,56.1,56.1,50.5,63,50.5L63,50.5z M64,55.9l3.2,4.4l5.2-1.7L69.2,63l3.2,4.4l-5.2-1.7L64,70.1v-5.5L58.8,63l5.2-1.7V55.9
			L64,55.9z"/>
	</g>
	<path opacity="0.35" fill="#FFFFFF" d="M13,29.7v25.5C26.2,62.6,43.7,67,63,67c19.3,0,36.8-4.5,50-11.8V29.7H13z"/>
</g>
</svg>
