<?xml version="1.0" encoding="utf-8"?>
<!-- Generator: Adobe Illustrator 24.3.0, SVG Export Plug-In . SVG Version: 6.00 Build 0)  -->
<svg version="1.1" id="Layer_1" xmlns="http://www.w3.org/2000/svg" xmlns:xlink="http://www.w3.org/1999/xlink" x="0px" y="0px"
	 viewBox="0 0 126 126" enable-background="new 0 0 126 126" xml:space="preserve">
<g>
	<g>
		<polygon fill-rule="evenodd" clip-rule="evenodd" fill="#006A4E" points="13,29.7 113,29.7 113,96.3 13,96.3 13,29.7 		"/>
		<g>
			<g>
				<polygon fill-rule="evenodd" clip-rule="evenodd" fill="#C20B18" points="25.1,29.7 43.1,29.7 43.1,96.3 25.1,96.3 25.1,29.7 
									"/>
				
					<polygon fill-rule="evenodd" clip-rule="evenodd" fill="#FFC703" stroke="#000000" stroke-width="2.952200e-02" stroke-miterlimit="2.4142" points="
					34.1,35.5 34.1,30.8 31.9,30.8 29.9,31.9 28.7,31.9 27.6,32.6 27.6,33.7 26.2,34.6 26.2,35.5 34.1,35.5 				"/>
				
					<polygon fill-rule="evenodd" clip-rule="evenodd" fill="#C20B18" stroke="#000000" stroke-width="2.952200e-02" stroke-miterlimit="2.4142" points="
					27.1,35.5 28,34.4 28.5,34 28.7,34.2 28.7,34.6 28.8,34.7 29.2,34.7 29.2,35.5 27.1,35.5 				"/>
				
					<polygon fill-rule="evenodd" clip-rule="evenodd" fill="#C20B18" stroke="#000000" stroke-width="2.952200e-02" stroke-miterlimit="2.4142" points="
					33.1,32.8 32.1,31.8 31.9,31.8 31.3,32.1 31.1,31.8 31.7,31.4 32.7,31.4 33.3,30.8 34.1,30.8 34.1,32.3 33.1,32.8 				"/>
				<g>
					
						<polygon fill-rule="evenodd" clip-rule="evenodd" fill="#C20B18" stroke="#000000" stroke-width="2.952200e-02" stroke-miterlimit="2.4142" points="
						28.9,32.5 29.3,32.9 29.6,32.7 29.2,32.3 28.9,32.5 					"/>
					
						<polygon fill-rule="evenodd" clip-rule="evenodd" fill="#C20B18" stroke="#000000" stroke-width="2.952200e-02" stroke-miterlimit="2.4142" points="
						28.8,33.5 29.2,33.8 29.4,33.6 29,33.3 28.8,33.5 					"/>
					
						<polygon fill-rule="evenodd" clip-rule="evenodd" fill="#C20B18" stroke="#000000" stroke-width="2.952200e-02" stroke-miterlimit="2.4142" points="
						30.6,32.3 30.9,32.7 31.2,32.5 30.8,32.1 30.6,32.3 					"/>
					
						<polygon fill-rule="evenodd" clip-rule="evenodd" fill="#C20B18" stroke="#000000" stroke-width="2.952200e-02" stroke-miterlimit="2.4142" points="
						30.4,33.6 29.8,33 28.8,33.1 30,32.3 30,32.8 30.7,33.5 30.4,33.6 					"/>
					
						<polygon fill-rule="evenodd" clip-rule="evenodd" fill="#C20B18" stroke="#000000" stroke-width="2.952200e-02" stroke-miterlimit="2.4142" points="
						30.3,34.6 29.6,34 28.7,34 29.9,33.3 29.9,33.8 30.5,34.4 30.3,34.6 					"/>
					
						<polygon fill-rule="evenodd" clip-rule="evenodd" fill="#C20B18" stroke="#000000" stroke-width="2.952200e-02" stroke-miterlimit="2.4142" points="
						32,33.5 31.4,32.9 30.5,32.9 31.6,32.2 31.6,32.7 32.3,33.3 32,33.5 					"/>
				</g>
				
					<polygon fill-rule="evenodd" clip-rule="evenodd" fill="#FFFFFF" stroke="#000000" stroke-width="2.952200e-02" stroke-miterlimit="2.4142" points="
					27.5,35.5 28.2,34.6 28.5,34.9 28.3,34.9 28.8,35.3 29.6,35.3 30.3,34.8 30.3,33.5 32,33.5 33.9,32.3 33.9,31.9 33.5,31.6 
					33,32 32.9,31.8 34.1,30.9 34.1,35.5 27.5,35.5 				"/>
				
					<polygon fill-rule="evenodd" clip-rule="evenodd" fill="#006A4E" stroke="#000000" stroke-width="2.952200e-02" stroke-miterlimit="2.4142" points="
					34.1,32.4 34.1,35.5 29.7,35.5 30.5,34.9 30.5,33.6 32,33.6 34.1,32.4 				"/>
				<g>
					
						<polygon fill-rule="evenodd" clip-rule="evenodd" fill="#C20B18" stroke="#000000" stroke-width="2.952200e-02" stroke-miterlimit="2.4142" points="
						31.2,33.9 31.6,34.3 31.9,34.1 31.5,33.7 31.2,33.9 					"/>
					
						<polygon fill-rule="evenodd" clip-rule="evenodd" fill="#C20B18" stroke="#000000" stroke-width="2.952200e-02" stroke-miterlimit="2.4142" points="
						32.7,35.1 32.1,34.5 31.1,34.5 32.3,33.8 32.3,34.2 33,34.9 32.7,35.1 					"/>
					
						<polygon fill-rule="evenodd" clip-rule="evenodd" fill="#FFFFFF" stroke="#000000" stroke-width="2.952200e-02" stroke-miterlimit="2.4142" points="
						34.1,34.1 34.1,35.5 31.9,35.5 34.1,34.1 					"/>
					
						<polygon fill-rule="evenodd" clip-rule="evenodd" fill="#C20B18" stroke="#000000" stroke-width="2.952200e-02" stroke-miterlimit="2.4142" points="
						32.7,35.1 33.5,35.1 33.5,34.7 34.1,34.7 34.1,35.1 34.1,35.5 33.5,35.5 32.7,35.5 32.7,35.1 					"/>
				</g>
				
					<polygon fill-rule="evenodd" clip-rule="evenodd" fill="#FFC703" stroke="#000000" stroke-width="2.952200e-02" stroke-miterlimit="2.4142" points="
					28.2,35.2 28.3,35.4 28.4,35.5 28.2,35.5 27.9,35.5 28,35.4 28.2,35.2 				"/>
				
					<polygon fill-rule="evenodd" clip-rule="evenodd" fill="#FFC703" stroke="#000000" stroke-width="2.952200e-02" stroke-miterlimit="2.4142" points="
					33.8,31.5 33.9,31.4 34.1,31.2 34.1,31.5 34.1,31.8 33.9,31.6 33.8,31.5 				"/>
				<g>
					
						<polygon fill-rule="evenodd" clip-rule="evenodd" fill="#FFFFFF" stroke="#000000" stroke-width="2.952200e-02" stroke-miterlimit="2.4142" points="
						34.1,35.5 34.1,40.3 31.9,40.3 29.9,39.1 28.7,39.1 27.6,38.4 27.6,37.4 26.2,36.4 26.2,35.5 34.1,35.5 					"/>
					
						<polygon fill-rule="evenodd" clip-rule="evenodd" fill="#C20B18" stroke="#000000" stroke-width="2.952200e-02" stroke-miterlimit="2.4142" points="
						27.1,35.5 28,36.7 28.5,37 28.7,36.8 28.7,36.4 28.8,36.3 29.2,36.3 29.2,35.5 27.1,35.5 					"/>
					
						<polygon fill-rule="evenodd" clip-rule="evenodd" fill="#C20B18" stroke="#000000" stroke-width="2.952200e-02" stroke-miterlimit="2.4142" points="
						33.1,38.2 32.1,39.3 31.9,39.3 31.3,38.9 31.1,39.2 31.7,39.6 32.7,39.6 33.3,40.2 34.1,40.2 34.1,38.8 33.1,38.2 					"/>
					<g>
						
							<polygon fill-rule="evenodd" clip-rule="evenodd" fill="#C20B18" stroke="#000000" stroke-width="2.952200e-02" stroke-miterlimit="2.4142" points="
							28.9,38.6 29.3,38.2 29.6,38.4 29.2,38.8 28.9,38.6 						"/>
						
							<polygon fill-rule="evenodd" clip-rule="evenodd" fill="#C20B18" stroke="#000000" stroke-width="2.952200e-02" stroke-miterlimit="2.4142" points="
							28.8,37.6 29.2,37.2 29.4,37.4 29,37.8 28.8,37.6 						"/>
						
							<polygon fill-rule="evenodd" clip-rule="evenodd" fill="#C20B18" stroke="#000000" stroke-width="2.952200e-02" stroke-miterlimit="2.4142" points="
							30.6,38.7 30.9,38.3 31.2,38.5 30.8,38.9 30.6,38.7 						"/>
						
							<polygon fill-rule="evenodd" clip-rule="evenodd" fill="#C20B18" stroke="#000000" stroke-width="2.952200e-02" stroke-miterlimit="2.4142" points="
							30.4,37.4 29.8,38 28.8,38 30,38.7 30,38.2 30.7,37.6 30.4,37.4 						"/>
						
							<polygon fill-rule="evenodd" clip-rule="evenodd" fill="#C20B18" stroke="#000000" stroke-width="2.952200e-02" stroke-miterlimit="2.4142" points="
							30.3,36.4 29.6,37 28.7,37 29.9,37.7 29.9,37.2 30.5,36.6 30.3,36.4 						"/>
						
							<polygon fill-rule="evenodd" clip-rule="evenodd" fill="#C20B18" stroke="#000000" stroke-width="2.952200e-02" stroke-miterlimit="2.4142" points="
							32,37.5 31.4,38.1 30.5,38.1 31.6,38.8 31.6,38.4 32.3,37.7 32,37.5 						"/>
					</g>
					
						<polygon fill-rule="evenodd" clip-rule="evenodd" fill="#FFC703" stroke="#000000" stroke-width="2.952200e-02" stroke-miterlimit="2.4142" points="
						27.5,35.5 28.2,36.4 28.5,36.1 28.3,36.1 28.8,35.7 29.6,35.7 30.3,36.2 30.3,37.6 32,37.6 33.9,38.8 33.9,39.1 33.5,39.4 
						33,39 32.9,39.3 34.1,40.1 34.1,35.5 27.5,35.5 					"/>
					
						<polygon fill-rule="evenodd" clip-rule="evenodd" fill="#C20B18" stroke="#000000" stroke-width="2.952200e-02" stroke-miterlimit="2.4142" points="
						34.1,38.6 34.1,35.5 29.7,35.5 30.5,36.1 30.5,37.4 32,37.4 34.1,38.6 					"/>
					<g>
						
							<polygon fill-rule="evenodd" clip-rule="evenodd" fill="#006A4E" stroke="#000000" stroke-width="2.952200e-02" stroke-miterlimit="2.4142" points="
							31.2,37.1 31.6,36.7 31.9,36.9 31.5,37.3 31.2,37.1 						"/>
						
							<polygon fill-rule="evenodd" clip-rule="evenodd" fill="#006A4E" stroke="#000000" stroke-width="2.952200e-02" stroke-miterlimit="2.4142" points="
							32.7,36 32.1,36.6 31.1,36.5 32.3,37.3 32.3,36.8 33,36.1 32.7,36 						"/>
						
							<polygon fill-rule="evenodd" clip-rule="evenodd" fill="#FFFFFF" stroke="#000000" stroke-width="2.952200e-02" stroke-miterlimit="2.4142" points="
							34.1,36.9 34.1,35.5 31.9,35.5 34.1,36.9 						"/>
						
							<polygon fill-rule="evenodd" clip-rule="evenodd" fill="#C20B18" stroke="#000000" stroke-width="2.952200e-02" stroke-miterlimit="2.4142" points="
							32.7,36 33.5,36 33.5,36.4 34.1,36.4 34.1,36 34.1,35.5 33.5,35.5 32.7,35.5 32.7,36 						"/>
					</g>
					
						<polygon fill-rule="evenodd" clip-rule="evenodd" fill="#FFFFFF" stroke="#000000" stroke-width="2.952200e-02" stroke-miterlimit="2.4142" points="
						28.2,35.8 28.3,35.7 28.4,35.5 28.2,35.5 27.9,35.5 28,35.7 28.2,35.8 					"/>
					
						<polygon fill-rule="evenodd" clip-rule="evenodd" fill="#FFFFFF" stroke="#000000" stroke-width="2.952200e-02" stroke-miterlimit="2.4142" points="
						33.8,39.5 33.9,39.7 34.1,39.8 34.1,39.5 34.1,39.3 33.9,39.4 33.8,39.5 					"/>
				</g>
				
					<polygon fill-rule="evenodd" clip-rule="evenodd" fill="#FFC703" stroke="#000000" stroke-width="2.952200e-02" stroke-miterlimit="2.4142" points="
					34.1,35.5 34.1,40.3 36.3,40.3 38.3,39.1 39.4,39.1 40.6,38.4 40.6,37.4 42,36.4 42,35.5 34.1,35.5 				"/>
				
					<polygon fill-rule="evenodd" clip-rule="evenodd" fill="#C20B18" stroke="#000000" stroke-width="2.952200e-02" stroke-miterlimit="2.4142" points="
					41,35.5 40.2,36.7 39.7,37 39.5,36.8 39.5,36.4 39.3,36.3 38.9,36.3 38.9,35.5 41,35.5 				"/>
				
					<polygon fill-rule="evenodd" clip-rule="evenodd" fill="#C20B18" stroke="#000000" stroke-width="2.952200e-02" stroke-miterlimit="2.4142" points="
					35.1,38.2 36,39.3 36.3,39.3 36.8,38.9 37,39.2 36.4,39.6 35.4,39.6 34.9,40.2 34.1,40.2 34.1,38.8 35.1,38.2 				"/>
				<g>
					
						<polygon fill-rule="evenodd" clip-rule="evenodd" fill="#C20B18" stroke="#000000" stroke-width="2.952200e-02" stroke-miterlimit="2.4142" points="
						39.2,38.6 38.8,38.2 38.6,38.4 39,38.8 39.2,38.6 					"/>
					
						<polygon fill-rule="evenodd" clip-rule="evenodd" fill="#C20B18" stroke="#000000" stroke-width="2.952200e-02" stroke-miterlimit="2.4142" points="
						39.3,37.6 39,37.2 38.7,37.4 39.1,37.8 39.3,37.6 					"/>
					
						<polygon fill-rule="evenodd" clip-rule="evenodd" fill="#C20B18" stroke="#000000" stroke-width="2.952200e-02" stroke-miterlimit="2.4142" points="
						37.6,38.7 37.2,38.3 36.9,38.5 37.3,38.9 37.6,38.7 					"/>
					
						<polygon fill-rule="evenodd" clip-rule="evenodd" fill="#C20B18" stroke="#000000" stroke-width="2.952200e-02" stroke-miterlimit="2.4142" points="
						37.7,37.4 38.4,38 39.3,38 38.1,38.7 38.1,38.2 37.5,37.6 37.7,37.4 					"/>
					
						<polygon fill-rule="evenodd" clip-rule="evenodd" fill="#C20B18" stroke="#000000" stroke-width="2.952200e-02" stroke-miterlimit="2.4142" points="
						37.9,36.4 38.5,37 39.4,37 38.3,37.7 38.3,37.2 37.6,36.6 37.9,36.4 					"/>
					
						<polygon fill-rule="evenodd" clip-rule="evenodd" fill="#C20B18" stroke="#000000" stroke-width="2.952200e-02" stroke-miterlimit="2.4142" points="
						36.1,37.5 36.7,38.1 37.7,38.1 36.5,38.8 36.5,38.4 35.8,37.7 36.1,37.5 					"/>
				</g>
				
					<polygon fill-rule="evenodd" clip-rule="evenodd" fill="#FFFFFF" stroke="#000000" stroke-width="2.952200e-02" stroke-miterlimit="2.4142" points="
					40.7,35.5 40,36.4 39.6,36.1 39.8,36.1 39.4,35.7 38.5,35.7 37.9,36.2 37.9,37.6 36.2,37.6 34.3,38.8 34.3,39.1 34.6,39.4 
					35.1,39 35.3,39.3 34.1,40.1 34.1,35.5 40.7,35.5 				"/>
				
					<polygon fill-rule="evenodd" clip-rule="evenodd" fill="#006A4E" stroke="#000000" stroke-width="2.952200e-02" stroke-miterlimit="2.4142" points="
					34.1,38.6 34.1,35.5 38.4,35.5 37.7,36.1 37.7,37.4 36.1,37.4 34.1,38.6 				"/>
				<g>
					
						<polygon fill-rule="evenodd" clip-rule="evenodd" fill="#C20B18" stroke="#000000" stroke-width="2.952200e-02" stroke-miterlimit="2.4142" points="
						36.9,37.1 36.5,36.7 36.3,36.9 36.7,37.3 36.9,37.1 					"/>
					
						<polygon fill-rule="evenodd" clip-rule="evenodd" fill="#C20B18" stroke="#000000" stroke-width="2.952200e-02" stroke-miterlimit="2.4142" points="
						35.5,36 36.1,36.6 37,36.5 35.8,37.3 35.8,36.8 35.2,36.1 35.5,36 					"/>
					
						<polygon fill-rule="evenodd" clip-rule="evenodd" fill="#FFFFFF" stroke="#000000" stroke-width="2.952200e-02" stroke-miterlimit="2.4142" points="
						34.1,36.9 34.1,35.5 36.2,35.5 34.1,36.9 					"/>
					
						<polygon fill-rule="evenodd" clip-rule="evenodd" fill="#C20B18" stroke="#000000" stroke-width="2.952200e-02" stroke-miterlimit="2.4142" points="
						35.4,36 34.6,36 34.6,36.4 34.1,36.4 34.1,36 34.1,35.5 34.6,35.5 35.4,35.5 35.4,36 					"/>
				</g>
				
					<polygon fill-rule="evenodd" clip-rule="evenodd" fill="#FFC703" stroke="#000000" stroke-width="2.952200e-02" stroke-miterlimit="2.4142" points="
					40,35.8 39.8,35.7 39.7,35.5 40,35.5 40.2,35.5 40.1,35.7 40,35.8 				"/>
				
					<polygon fill-rule="evenodd" clip-rule="evenodd" fill="#FFC703" stroke="#000000" stroke-width="2.952200e-02" stroke-miterlimit="2.4142" points="
					34.4,39.5 34.2,39.7 34.1,39.8 34.1,39.5 34.1,39.3 34.2,39.4 34.4,39.5 				"/>
				<g>
					
						<polygon fill-rule="evenodd" clip-rule="evenodd" fill="#FFFFFF" stroke="#000000" stroke-width="2.952200e-02" stroke-miterlimit="2.4142" points="
						34.1,35.5 34.1,30.8 36.3,30.8 38.3,31.9 39.4,31.9 40.6,32.6 40.6,33.7 42,34.6 42,35.5 34.1,35.5 					"/>
					
						<polygon fill-rule="evenodd" clip-rule="evenodd" fill="#C20B18" stroke="#000000" stroke-width="2.952200e-02" stroke-miterlimit="2.4142" points="
						41,35.5 40.2,34.4 39.7,34 39.5,34.2 39.5,34.6 39.3,34.7 38.9,34.7 38.9,35.5 41,35.5 					"/>
					
						<polygon fill-rule="evenodd" clip-rule="evenodd" fill="#C20B18" stroke="#000000" stroke-width="2.952200e-02" stroke-miterlimit="2.4142" points="
						35.1,32.8 36,31.8 36.3,31.8 36.8,32.1 37,31.8 36.4,31.4 35.4,31.4 34.9,30.8 34.1,30.8 34.1,32.3 35.1,32.8 					"/>
					<g>
						
							<polygon fill-rule="evenodd" clip-rule="evenodd" fill="#C20B18" stroke="#000000" stroke-width="2.952200e-02" stroke-miterlimit="2.4142" points="
							39.2,32.5 38.8,32.9 38.6,32.7 39,32.3 39.2,32.5 						"/>
						
							<polygon fill-rule="evenodd" clip-rule="evenodd" fill="#C20B18" stroke="#000000" stroke-width="2.952200e-02" stroke-miterlimit="2.4142" points="
							39.3,33.5 39,33.8 38.7,33.6 39.1,33.3 39.3,33.5 						"/>
						
							<polygon fill-rule="evenodd" clip-rule="evenodd" fill="#C20B18" stroke="#000000" stroke-width="2.952200e-02" stroke-miterlimit="2.4142" points="
							37.6,32.3 37.2,32.7 36.9,32.5 37.3,32.1 37.6,32.3 						"/>
						
							<polygon fill-rule="evenodd" clip-rule="evenodd" fill="#C20B18" stroke="#000000" stroke-width="2.952200e-02" stroke-miterlimit="2.4142" points="
							37.7,33.6 38.4,33 39.3,33.1 38.1,32.3 38.1,32.8 37.5,33.5 37.7,33.6 						"/>
						
							<polygon fill-rule="evenodd" clip-rule="evenodd" fill="#C20B18" stroke="#000000" stroke-width="2.952200e-02" stroke-miterlimit="2.4142" points="
							37.9,34.6 38.5,34 39.4,34 38.3,33.3 38.3,33.8 37.6,34.4 37.9,34.6 						"/>
						
							<polygon fill-rule="evenodd" clip-rule="evenodd" fill="#C20B18" stroke="#000000" stroke-width="2.952200e-02" stroke-miterlimit="2.4142" points="
							36.1,33.5 36.7,32.9 37.7,32.9 36.5,32.2 36.5,32.7 35.8,33.3 36.1,33.5 						"/>
					</g>
					
						<polygon fill-rule="evenodd" clip-rule="evenodd" fill="#FFC703" stroke="#000000" stroke-width="2.952200e-02" stroke-miterlimit="2.4142" points="
						40.7,35.5 40,34.6 39.6,34.9 39.8,34.9 39.4,35.3 38.5,35.3 37.9,34.8 37.9,33.5 36.2,33.5 34.3,32.3 34.3,31.9 34.6,31.6 
						35.1,32 35.3,31.8 34.1,30.9 34.1,35.5 40.7,35.5 					"/>
					
						<polygon fill-rule="evenodd" clip-rule="evenodd" fill="#C20B18" stroke="#000000" stroke-width="2.952200e-02" stroke-miterlimit="2.4142" points="
						34.1,32.4 34.1,35.5 38.4,35.5 37.7,34.9 37.7,33.6 36.1,33.6 34.1,32.4 					"/>
					<g>
						
							<polygon fill-rule="evenodd" clip-rule="evenodd" fill="#006A4E" stroke="#000000" stroke-width="2.952200e-02" stroke-miterlimit="2.4142" points="
							36.9,33.9 36.5,34.3 36.3,34.1 36.7,33.7 36.9,33.9 						"/>
						
							<polygon fill-rule="evenodd" clip-rule="evenodd" fill="#006A4E" stroke="#000000" stroke-width="2.952200e-02" stroke-miterlimit="2.4142" points="
							35.5,35.1 36.1,34.5 37,34.5 35.8,33.8 35.8,34.2 35.2,34.9 35.5,35.1 						"/>
						
							<polygon fill-rule="evenodd" clip-rule="evenodd" fill="#FFFFFF" stroke="#000000" stroke-width="2.952200e-02" stroke-miterlimit="2.4142" points="
							34.1,34.1 34.1,35.5 36.2,35.5 34.1,34.1 						"/>
						
							<polygon fill-rule="evenodd" clip-rule="evenodd" fill="#C20B18" stroke="#000000" stroke-width="2.952200e-02" stroke-miterlimit="2.4142" points="
							35.4,35.1 34.6,35.1 34.6,34.7 34.1,34.7 34.1,35.1 34.1,35.5 34.6,35.5 35.4,35.5 35.4,35.1 						"/>
					</g>
					
						<polygon fill-rule="evenodd" clip-rule="evenodd" fill="#FFFFFF" stroke="#000000" stroke-width="2.952200e-02" stroke-miterlimit="2.4142" points="
						40,35.2 39.8,35.4 39.7,35.5 40,35.5 40.2,35.5 40.1,35.4 40,35.2 					"/>
					
						<polygon fill-rule="evenodd" clip-rule="evenodd" fill="#FFFFFF" stroke="#000000" stroke-width="2.952200e-02" stroke-miterlimit="2.4142" points="
						34.4,31.5 34.2,31.4 34.1,31.2 34.1,31.5 34.1,31.8 34.2,31.6 34.4,31.5 					"/>
				</g>
				<path fill="#006A4E" stroke="#000000" stroke-width="2.952200e-02" stroke-miterlimit="2.4142" d="M34.1,31h-2.2L30,32.1l-0.1,0
					h-0.1h-1.1l-0.9,0.6v1v0.1l-0.1,0.1l-1.4,0.9v0.8v0.8l1.4,0.9l0.1,0.1v0.1v1l0.9,0.6h1.1h0.1l0.1,0l1.9,1.1h2.2h2.2l1.9-1.1
					l0.1,0h0.1h1.1l0.9-0.6v-1v-0.1l0.1-0.1l1.4-0.9v-0.8v-0.8l-1.4-0.9l-0.1-0.1v-0.1v-1l-0.9-0.6h-1.1h-0.1l-0.1,0L36.2,31H34.1
					L34.1,31z M34.1,40.5h-2.2h-0.1l-0.1,0l-1.9-1.1h-1.1h-0.1l-0.1,0l-1.1-0.7l-0.1-0.1v-0.1v-1L26,36.6l-0.1-0.1v-0.1v-0.9v-0.9
					v-0.1l0.1-0.1l1.4-0.9v-1v-0.1l0.1-0.1l1.1-0.7l0.1,0h0.1h1.1l1.9-1.1l0.1,0h0.1h2.2h2.2h0.1l0.1,0l1.9,1.1h1.1h0.1l0.1,0
					l1.1,0.7l0.1,0.1v0.1v1l1.4,0.9l0.1,0.1v0.1v0.9v0.9v0.1l-0.1,0.1l-1.4,0.9v1v0.1l-0.1,0.1l-1.1,0.7l-0.1,0h-0.1h-1.1l-1.9,1.1
					l-0.1,0h-0.1H34.1L34.1,40.5z"/>
				
					<polygon fill-rule="evenodd" clip-rule="evenodd" fill="#FFC703" stroke="#000000" stroke-width="2.952200e-02" stroke-miterlimit="2.4142" points="
					34.1,44.3 33.3,43.8 33.3,44.5 32.6,43.9 32.6,46.4 34.1,46.4 35.5,46.4 35.5,43.9 34.9,44.5 34.9,43.8 34.1,44.3 				"/>
				
					<polygon fill-rule="evenodd" clip-rule="evenodd" fill="#006A4E" stroke="#000000" stroke-width="2.952200e-02" stroke-miterlimit="2.4142" points="
					30.9,44.6 30.9,47.5 30.9,47.5 32.6,46.4 32.6,44.6 32.2,45 32.2,44.5 31.7,44.9 31.3,44.5 31.3,45 30.9,44.6 				"/>
				
					<polygon fill-rule="evenodd" clip-rule="evenodd" fill="#FFC703" stroke="#000000" stroke-width="2.952200e-02" stroke-miterlimit="2.4142" points="
					29.1,45.2 29.1,47.5 30.9,47.5 30.9,45.2 30.4,45.6 30.4,45.1 30,45.5 29.6,45.1 29.6,45.6 29.1,45.2 				"/>
				
					<polygon fill-rule="evenodd" clip-rule="evenodd" fill="#006A4E" stroke="#000000" stroke-width="2.952200e-02" stroke-miterlimit="2.4142" points="
					26.8,48.1 26.8,47.7 27.3,47.7 27.3,45.8 27.7,46.1 27.7,45.7 28.2,46.1 28.6,45.7 28.6,46.2 29.1,45.8 29.1,47.5 28.6,47.5 
					28.6,47.8 27.8,47.8 27.8,48.1 27.8,48.3 28.6,48.3 28.6,48.6 29.1,48.6 29.1,50.3 28.6,50 28.6,50.4 28.2,50 27.7,50.4 
					27.7,50 27.3,50.3 27.3,48.4 26.8,48.4 26.8,48.1 				"/>
				
					<path fill-rule="evenodd" clip-rule="evenodd" fill="#FFFFFF" stroke="#000000" stroke-width="3.038200e-02" stroke-miterlimit="2.4142" d="
					M28.2,47.3c0.3,0,0.4-0.5,0.4-0.7l-0.2,0.2l-0.1-0.2L28,46.8l-0.2-0.2C27.8,46.8,27.9,47.3,28.2,47.3L28.2,47.3z"/>
				
					<path fill-rule="evenodd" clip-rule="evenodd" fill="#C20B18" stroke="#000000" stroke-width="2.952200e-02" stroke-miterlimit="2.4142" d="
					M29.9,47.2l0.5-0.5l-0.2-0.3c0,0,0,0.3,0,0.3c0,0-0.2,0.2-0.2,0.2v-0.6c0,0,0.2-0.2,0.2-0.2c0,0-0.3-0.3-0.3-0.3
					S29.6,46,29.6,46c0,0,0.2,0.2,0.2,0.2v0.6c0,0-0.2-0.2-0.2-0.2c0,0,0-0.3,0-0.3l-0.3,0.3L29.9,47.2L29.9,47.2z"/>
				
					<path fill-rule="evenodd" clip-rule="evenodd" fill="#FFFFFF" stroke="#000000" stroke-width="2.952200e-02" stroke-miterlimit="2.4142" d="
					M31.7,46.6l0.5-0.5L32,45.8c0,0,0,0.3,0,0.3s-0.2,0.2-0.2,0.2v-0.6c0,0,0.2-0.2,0.2-0.2c0,0-0.3-0.3-0.3-0.3s-0.3,0.3-0.3,0.3
					c0,0,0.2,0.2,0.2,0.2v0.6c0,0-0.2-0.2-0.2-0.2c0,0,0-0.3,0-0.3l-0.3,0.3L31.7,46.6L31.7,46.6z"/>
				<polygon points="26.7,48.1 26.7,45.1 26.7,45.1 26.8,45.1 28.5,45.1 28.5,44.5 28.5,44.5 28.5,44.5 30.3,44.5 30.3,43.8 
					30.3,43.8 30.3,43.8 32.1,43.8 32.1,43.2 32.1,43.2 32.1,43.2 34.1,43.2 34.1,43.2 32.1,43.2 32.1,43.8 32.1,43.9 32.1,43.9 
					30.3,43.9 30.3,44.5 30.3,44.5 30.3,44.5 28.6,44.5 28.6,45.1 28.6,45.2 28.5,45.2 26.8,45.2 26.8,48.1 26.7,48.1 				"/>
				<polygon points="34.1,43.8 32.6,43.8 32.6,44.4 32.6,44.4 32.6,44.4 30.9,44.4 30.9,45 30.9,45 30.9,45 29.1,45 29.1,45.7 
					29.1,45.7 29.1,45.7 27.3,45.7 27.3,45.9 27.3,45.9 27.3,45.7 27.3,45.6 27.3,45.6 29,45.6 29,45 29,45 29.1,45 30.8,45 
					30.8,44.4 30.8,44.4 30.9,44.4 32.6,44.4 32.6,43.7 32.6,43.7 32.6,43.7 34.1,43.7 34.1,43.8 				"/>
				
					<polygon fill-rule="evenodd" clip-rule="evenodd" fill="#006A4E" stroke="#000000" stroke-width="2.952200e-02" stroke-miterlimit="2.4142" points="
					32.2,48.1 31.8,47.8 31.5,48.1 31.8,48.3 32.2,48.1 				"/>
				
					<polygon fill-rule="evenodd" clip-rule="evenodd" fill="#006A4E" stroke="#000000" stroke-width="2.952200e-02" stroke-miterlimit="2.4142" points="
					30.9,51.5 30.9,48.6 30.9,48.6 32.6,49.7 32.6,51.5 32.2,51.1 32.2,51.6 31.7,51.2 31.3,51.6 31.3,51.1 30.9,51.5 				"/>
				
					<polygon fill-rule="evenodd" clip-rule="evenodd" fill="#FFC703" stroke="#000000" stroke-width="2.952200e-02" stroke-miterlimit="2.4142" points="
					29.1,50.9 29.1,48.6 30.9,48.6 30.9,50.9 30.4,50.5 30.4,51 30,50.6 29.6,51 29.6,50.5 29.1,50.9 				"/>
				
					<polygon fill-rule="evenodd" clip-rule="evenodd" fill="#006A4E" stroke="#000000" stroke-width="2.952200e-02" stroke-miterlimit="2.4142" points="
					41.4,48.1 41.4,48.4 40.8,48.4 40.8,50.3 40.4,50 40.4,50.4 40,50 39.6,50.4 39.6,50 39.1,50.3 39.1,48.6 39.6,48.6 39.6,48.3 
					40.3,48.3 40.3,48.1 40.3,47.8 39.6,47.8 39.6,47.5 39.1,47.5 39.1,45.8 39.6,46.2 39.6,45.7 40,46.1 40.4,45.7 40.4,46.1 
					40.8,45.8 40.8,47.7 41.4,47.7 41.4,48.1 				"/>
				
					<path fill-rule="evenodd" clip-rule="evenodd" fill="#FFFFFF" stroke="#000000" stroke-width="3.038200e-02" stroke-miterlimit="2.4142" d="
					M28.2,48.8c0.3,0,0.4,0.5,0.4,0.7l-0.2-0.2l-0.1,0.2L28,49.3l-0.2,0.2C27.8,49.3,27.9,48.8,28.2,48.8L28.2,48.8z"/>
				
					<path fill-rule="evenodd" clip-rule="evenodd" fill="#C20B18" stroke="#000000" stroke-width="2.952200e-02" stroke-miterlimit="2.4142" d="
					M29.9,48.9l0.5,0.5l-0.2,0.3c0,0,0-0.3,0-0.3c0,0-0.2-0.2-0.2-0.2v0.6c0,0,0.2,0.2,0.2,0.2c0,0-0.3,0.3-0.3,0.3
					s-0.3-0.3-0.3-0.3c0,0,0.2-0.2,0.2-0.2v-0.6c0,0-0.2,0.2-0.2,0.2c0,0,0,0.3,0,0.3l-0.3-0.3L29.9,48.9L29.9,48.9z"/>
				
					<path fill-rule="evenodd" clip-rule="evenodd" fill="#FFFFFF" stroke="#000000" stroke-width="2.952200e-02" stroke-miterlimit="2.4142" d="
					M31.7,49.5l0.5,0.5L32,50.3c0,0,0-0.3,0-0.3s-0.2-0.2-0.2-0.2v0.6c0,0,0.2,0.2,0.2,0.2c0,0-0.3,0.3-0.3,0.3s-0.3-0.3-0.3-0.3
					c0,0,0.2-0.2,0.2-0.2v-0.6c0,0-0.2,0.2-0.2,0.2c0,0,0,0.3,0,0.3L31.2,50L31.7,49.5L31.7,49.5z"/>
				<polygon points="26.7,48.1 26.7,51 26.7,51 26.8,51 28.5,51 28.5,51.6 28.5,51.6 28.5,51.6 30.3,51.6 30.3,52.3 30.3,52.3 
					30.3,52.3 32.1,52.3 32.1,52.9 32.1,52.9 32.1,52.9 34.1,52.9 34.1,52.9 32.1,52.9 32.1,52.3 32.1,52.3 32.1,52.3 30.3,52.3 
					30.3,51.6 30.3,51.6 30.3,51.6 28.6,51.6 28.6,51 28.6,51 28.5,51 26.8,51 26.8,48.1 26.7,48.1 				"/>
				<polygon points="34.1,52.3 32.6,52.3 32.6,51.7 32.6,51.7 32.6,51.7 30.9,51.7 30.9,51.1 30.9,51.1 30.9,51.1 29.1,51.1 
					29.1,50.5 29.1,50.4 29.1,50.4 27.3,50.4 27.3,50.2 27.3,50.2 27.3,50.5 27.3,50.5 27.3,50.5 29,50.5 29,51.1 29,51.1 
					29.1,51.1 30.8,51.1 30.8,51.7 30.8,51.7 30.9,51.7 32.6,51.7 32.6,52.4 32.6,52.4 32.6,52.4 34.1,52.4 34.1,52.3 				"/>
				
					<polygon fill-rule="evenodd" clip-rule="evenodd" fill="#006A4E" stroke="#000000" stroke-width="2.952200e-02" stroke-miterlimit="2.4142" points="
					37.3,44.6 37.3,47.5 37.2,47.5 35.5,46.4 35.5,44.6 36,45 36,44.5 36.4,44.9 36.8,44.5 36.8,45 37.3,44.6 				"/>
				
					<polygon fill-rule="evenodd" clip-rule="evenodd" fill="#FFC703" stroke="#000000" stroke-width="2.952200e-02" stroke-miterlimit="2.4142" points="
					39.1,45.2 39.1,47.5 37.3,47.5 37.3,45.2 37.8,45.6 37.8,45.1 38.2,45.5 38.6,45.1 38.6,45.6 39.1,45.2 				"/>
				
					<path fill-rule="evenodd" clip-rule="evenodd" fill="#FFFFFF" stroke="#000000" stroke-width="3.038200e-02" stroke-miterlimit="2.4142" d="
					M40,47.3c-0.3,0-0.4-0.5-0.4-0.7l0.2,0.2l0.1-0.2l0.1,0.2l0.2-0.2C40.4,46.8,40.2,47.3,40,47.3L40,47.3z"/>
				
					<path fill-rule="evenodd" clip-rule="evenodd" fill="#C20B18" stroke="#000000" stroke-width="2.952200e-02" stroke-miterlimit="2.4142" d="
					M38.2,47.2l-0.5-0.5l0.3-0.3c0,0,0,0.3,0,0.3c0,0,0.2,0.2,0.2,0.2v-0.6c0,0-0.2-0.2-0.2-0.2c0,0,0.3-0.3,0.3-0.3
					s0.3,0.3,0.3,0.3c0,0-0.2,0.2-0.2,0.2v0.6c0,0,0.2-0.2,0.2-0.2s0-0.3,0-0.3l0.3,0.3L38.2,47.2L38.2,47.2z"/>
				
					<path fill-rule="evenodd" clip-rule="evenodd" fill="#FFFFFF" stroke="#000000" stroke-width="2.952200e-02" stroke-miterlimit="2.4142" d="
					M36.4,46.6l-0.5-0.5l0.3-0.3c0,0,0,0.3,0,0.3s0.2,0.2,0.2,0.2v-0.6c0,0-0.2-0.2-0.2-0.2c0,0,0.3-0.3,0.3-0.3s0.3,0.3,0.3,0.3
					c0,0-0.2,0.2-0.2,0.2v0.6c0,0,0.2-0.2,0.2-0.2c0,0,0-0.3,0-0.3l0.2,0.3L36.4,46.6L36.4,46.6z"/>
				<polygon points="41.4,48.1 41.4,45.1 41.4,45.1 41.4,45.1 39.6,45.1 39.6,44.5 39.6,44.5 39.6,44.5 37.8,44.5 37.8,43.8 
					37.8,43.8 37.8,43.8 36,43.8 36,43.2 36,43.2 36,43.2 34.1,43.2 34.1,43.2 36,43.2 36,43.8 36,43.9 36,43.9 37.8,43.9 
					37.8,44.5 37.8,44.5 37.8,44.5 39.6,44.5 39.6,45.1 39.6,45.2 39.6,45.2 41.4,45.2 41.4,48.1 41.4,48.1 				"/>
				<polygon points="34.1,43.8 35.5,43.8 35.5,44.4 35.5,44.4 35.5,44.4 37.3,44.4 37.3,45 37.3,45 37.3,45 39.1,45 39.1,45.7 
					39.1,45.7 39.1,45.7 40.8,45.7 40.8,45.9 40.9,45.9 40.9,45.7 40.9,45.6 40.8,45.6 39.1,45.6 39.1,45 39.1,45 39.1,45 37.3,45 
					37.3,44.4 37.3,44.4 37.3,44.4 35.5,44.4 35.5,43.7 35.5,43.7 35.5,43.7 34.1,43.7 34.1,43.8 				"/>
				
					<polygon fill-rule="evenodd" clip-rule="evenodd" fill="#C20B18" stroke="#000000" stroke-width="2.952200e-02" stroke-miterlimit="2.4142" points="
					34.1,44.4 34.8,45 34.4,45.3 34.4,45.8 34.6,45.6 34.6,45.4 35,45.7 34.5,46.1 34.7,46.4 34.1,46.4 33.5,46.4 33.6,46.1 
					33.1,45.7 33.5,45.4 33.5,45.6 33.7,45.8 33.7,45.3 33.3,45 34.1,44.4 				"/>
				
					<polygon fill-rule="evenodd" clip-rule="evenodd" fill="none" stroke="#000000" stroke-width="2.952200e-02" stroke-miterlimit="2.4142" points="
					34.1,49.5 35.5,49.5 37,48.5 37,48.3 38.7,48.3 38.7,48.1 38.7,47.8 37,47.8 37,47.6 35.5,46.6 34.1,46.6 32.6,46.6 31.1,47.6 
					31.1,47.8 29.4,47.8 29.4,48.1 29.4,48.3 31.1,48.3 31.1,48.5 32.6,49.5 34.1,49.5 				"/>
				
					<polygon fill-rule="evenodd" clip-rule="evenodd" fill="none" stroke="#000000" stroke-width="2.952200e-02" stroke-miterlimit="2.4142" points="
					40.3,48.1 40.3,48.3 39.6,48.3 39.6,48.6 37.2,48.6 35.5,49.7 34.1,49.7 32.6,49.7 30.9,48.6 28.6,48.6 28.6,48.3 27.8,48.3 
					27.8,48.1 27.8,47.8 28.6,47.8 28.6,47.5 30.9,47.5 32.6,46.4 34.1,46.4 35.5,46.4 37.2,47.5 39.6,47.5 39.6,47.8 40.3,47.8 
					40.3,48.1 				"/>
				
					<polygon fill-rule="evenodd" clip-rule="evenodd" fill="#FFC703" stroke="#000000" stroke-width="2.952200e-02" stroke-miterlimit="2.4142" points="
					34.1,51.8 34.9,52.3 34.9,51.6 35.5,52.2 35.5,49.7 34.1,49.7 32.6,49.7 32.6,52.2 33.3,51.6 33.3,52.3 34.1,51.8 				"/>
				
					<polygon fill-rule="evenodd" clip-rule="evenodd" fill="#006A4E" stroke="#000000" stroke-width="2.952200e-02" stroke-miterlimit="2.4142" points="
					37.3,51.5 37.3,48.6 37.2,48.6 35.5,49.7 35.5,51.5 36,51.1 36,51.6 36.4,51.2 36.8,51.6 36.8,51.1 37.3,51.5 				"/>
				
					<polygon fill-rule="evenodd" clip-rule="evenodd" fill="#C20B18" stroke="#000000" stroke-width="2.952200e-02" stroke-miterlimit="2.4142" points="
					34.1,51.7 33.3,51.1 33.7,50.8 33.7,50.3 33.5,50.5 33.5,50.7 33.1,50.4 33.6,50 33.5,49.7 34.1,49.7 34.7,49.7 34.5,50 
					35,50.4 34.6,50.7 34.6,50.5 34.4,50.3 34.4,50.8 34.8,51.1 34.1,51.7 				"/>
				
					<polygon fill-rule="evenodd" clip-rule="evenodd" fill="#FFC703" stroke="#000000" stroke-width="2.952200e-02" stroke-miterlimit="2.4142" points="
					39.1,50.9 39.1,48.6 37.3,48.6 37.3,50.9 37.8,50.5 37.8,51 38.2,50.6 38.6,51 38.6,50.5 39.1,50.9 				"/>
				
					<path fill-rule="evenodd" clip-rule="evenodd" fill="#FFFFFF" stroke="#000000" stroke-width="3.038200e-02" stroke-miterlimit="2.4142" d="
					M40,48.8c-0.3,0-0.4,0.5-0.4,0.7l0.2-0.2l0.1,0.2l0.1-0.2l0.2,0.2C40.4,49.3,40.2,48.8,40,48.8L40,48.8z"/>
				
					<path fill-rule="evenodd" clip-rule="evenodd" fill="#C20B18" stroke="#000000" stroke-width="2.952200e-02" stroke-miterlimit="2.4142" d="
					M38.2,48.9l-0.5,0.5l0.3,0.3c0,0,0-0.3,0-0.3c0,0,0.2-0.2,0.2-0.2v0.6c0,0-0.2,0.2-0.2,0.2c0,0,0.3,0.3,0.3,0.3s0.3-0.3,0.3-0.3
					c0,0-0.2-0.2-0.2-0.2v-0.6c0,0,0.2,0.2,0.2,0.2s0,0.3,0,0.3l0.3-0.3L38.2,48.9L38.2,48.9z"/>
				
					<path fill-rule="evenodd" clip-rule="evenodd" fill="#FFFFFF" stroke="#000000" stroke-width="2.952200e-02" stroke-miterlimit="2.4142" d="
					M36.4,49.5L35.9,50l0.3,0.3c0,0,0-0.3,0-0.3s0.2-0.2,0.2-0.2v0.6c0,0-0.2,0.2-0.2,0.2c0,0,0.3,0.3,0.3,0.3s0.3-0.3,0.3-0.3
					c0,0-0.2-0.2-0.2-0.2v-0.6c0,0,0.2,0.2,0.2,0.2c0,0,0,0.3,0,0.3l0.2-0.3L36.4,49.5L36.4,49.5z"/>
				<polygon points="41.4,48.1 41.4,51 41.4,51 41.4,51 39.6,51 39.6,51.6 39.6,51.6 39.6,51.6 37.8,51.6 37.8,52.3 37.8,52.3 
					37.8,52.3 36,52.3 36,52.9 36,52.9 36,52.9 34.1,52.9 34.1,52.9 36,52.9 36,52.3 36,52.3 36,52.3 37.8,52.3 37.8,51.6 
					37.8,51.6 37.8,51.6 39.6,51.6 39.6,51 39.6,51 39.6,51 41.4,51 41.4,48.1 41.4,48.1 				"/>
				<polygon points="34.1,52.3 35.5,52.3 35.5,51.7 35.5,51.7 35.5,51.7 37.3,51.7 37.3,51.1 37.3,51.1 37.3,51.1 39.1,51.1 
					39.1,50.5 39.1,50.4 39.1,50.4 40.8,50.4 40.8,50.2 40.9,50.2 40.9,50.5 40.9,50.5 40.8,50.5 39.1,50.5 39.1,51.1 39.1,51.1 
					39.1,51.1 37.3,51.1 37.3,51.7 37.3,51.7 37.3,51.7 35.5,51.7 35.5,52.4 35.5,52.4 35.5,52.4 34.1,52.4 34.1,52.3 				"/>
				
					<polygon fill-rule="evenodd" clip-rule="evenodd" fill="#006A4E" stroke="#000000" stroke-width="2.952200e-02" stroke-miterlimit="2.4142" points="
					34.1,50.9 34.4,51.2 34.1,51.4 33.8,51.2 34.1,50.9 				"/>
				
					<polygon fill-rule="evenodd" clip-rule="evenodd" fill="#006A4E" stroke="#000000" stroke-width="2.952200e-02" stroke-miterlimit="2.4142" points="
					34.1,48.3 34.5,48.1 34.1,47.8 33.7,48.1 34.1,48.3 				"/>
				
					<path fill-rule="evenodd" clip-rule="evenodd" fill="#FFC703" stroke="#000000" stroke-width="2.952200e-02" stroke-miterlimit="2.4142" d="
					M34.1,49.1l0.2,0.2h0.4l-0.4-0.4l0.9-0.7l0.5,0.4l-0.2,0.2l-0.2-0.1l-0.2,0.2l0.4,0.3l0.6-0.5l-0.7-0.6l0.7-0.6L35.6,47
					l-0.4,0.3l0.2,0.2l0.2-0.2l0.2,0.2l-0.5,0.4l-0.9-0.7l0.4-0.4h-0.4l-0.2,0.2l-0.2-0.2h-0.4l0.4,0.4l-0.9,0.7l-0.5-0.4l0.2-0.2
					l0.2,0.2l0.2-0.2L32.5,47L32,47.5l0.7,0.6L32,48.6l0.6,0.5l0.4-0.3l-0.2-0.2l-0.2,0.1l-0.2-0.2l0.5-0.4l0.9,0.7l-0.4,0.4h0.4
					L34.1,49.1L34.1,49.1z M35,48.1l-1,0.7l-1-0.7l1-0.7L35,48.1L35,48.1z"/>
				
					<polygon fill-rule="evenodd" clip-rule="evenodd" fill="#006A4E" stroke="#000000" stroke-width="2.952200e-02" stroke-miterlimit="2.4142" points="
					35.9,48.1 36.3,48.3 36.7,48.1 36.3,47.8 35.9,48.1 				"/>
				<g>
					
						<polygon fill-rule="evenodd" clip-rule="evenodd" fill="#FFC703" stroke="#000000" stroke-width="2.958900e-02" stroke-miterlimit="2.4142" points="
						32.3,60.6 32.3,60.2 32.9,60.2 32.9,59.8 33.3,59.8 33.3,59.3 34.1,59.3 34.1,60.6 32.3,60.6 					"/>
					<g>
						
							<path fill-rule="evenodd" clip-rule="evenodd" fill="#006A4E" stroke="#000000" stroke-width="2.958900e-02" stroke-miterlimit="2.4142" d="
							M32.6,58.6c0,0-0.3,0.4-0.5,0.1c-0.2-0.3,0.2-0.5,0.2-0.5L32,57.8h0.7h0.7l-0.4,0.4c0,0,0.5,0.2,0.2,0.5
							C32.9,59,32.6,58.6,32.6,58.6L32.6,58.6z"/>
						
							<polygon fill-rule="evenodd" clip-rule="evenodd" fill="#FFFFFF" stroke="#000000" stroke-width="2.958900e-02" stroke-miterlimit="2.4142" points="
							32.4,57.8 32.6,58.1 32.9,57.8 32.6,57.8 32.4,57.8 						"/>
					</g>
					
						<path fill-rule="evenodd" clip-rule="evenodd" fill="#006A4E" stroke="#000000" stroke-width="3.284200e-02" stroke-miterlimit="2.4142" d="
						M31.2,59.4c0,0,0.4-0.2,0.1-0.4c-0.3-0.2-0.5,0.2-0.5,0.2l-0.4-0.3v0.6V60l0.4-0.3c0,0,0.2,0.4,0.5,0.2
						C31.6,59.7,31.2,59.4,31.2,59.4L31.2,59.4z"/>
					
						<polygon fill-rule="evenodd" clip-rule="evenodd" fill="#FFFFFF" stroke="#000000" stroke-width="3.284200e-02" stroke-miterlimit="2.4142" points="
						30.4,59.2 30.6,59.4 30.4,59.6 30.4,59.4 30.4,59.2 					"/>
					
						<path fill-rule="evenodd" clip-rule="evenodd" fill="#006A4E" stroke="#000000" stroke-width="2.967000e-02" stroke-miterlimit="2.4142" d="
						M31.3,56.9l-2.9,2.1v1.5v1.5l2.9,2.1h2.8l0,0h2.8l2.9-2.1v-1.5v-1.5l-2.9-2.1C34.9,56.9,33.3,56.9,31.3,56.9L31.3,56.9z
						 M29.9,60.6v-2.5h0.8v-0.5h0.8h2.5v0h2.5h0.8v0.5h0.8v2.5v2.5h-0.8v0.5h-0.8h-2.5v0h-2.5h-0.8v-0.5h-0.8V60.6L29.9,60.6z"/>
					
						<polygon fill-rule="evenodd" clip-rule="evenodd" fill="#FFC703" stroke="#000000" stroke-width="2.965600e-02" stroke-miterlimit="2.4142" points="
						29.2,60.2 29.9,60.2 29.9,60.6 29.9,60.9 29.2,60.9 28.8,60.6 29.2,60.2 					"/>
					
						<polygon fill-rule="evenodd" clip-rule="evenodd" fill="#C20B18" stroke="#000000" stroke-width="3.001000e-02" stroke-miterlimit="2.4142" points="
						29.2,60.2 29.9,60.2 29.9,59.9 29.9,59.5 29.2,59.5 28.8,59.9 29.2,60.2 					"/>
					
						<polygon fill-rule="evenodd" clip-rule="evenodd" fill="#FFC703" stroke="#000000" stroke-width="3.001000e-02" stroke-miterlimit="2.4142" points="
						29.2,58.8 29.9,58.8 29.9,59.1 29.9,59.5 29.2,59.5 28.8,59.1 29.2,58.8 					"/>
					
						<polygon fill-rule="evenodd" clip-rule="evenodd" fill="#C20B18" stroke="#000000" stroke-width="2.952200e-02" stroke-miterlimit="2.4142" points="
						32.3,57.6 32.3,57.4 32.6,57.1 33,57.4 33,57.6 32.3,57.6 					"/>
					
						<polygon fill-rule="evenodd" clip-rule="evenodd" fill="#FFC703" stroke="#000000" stroke-width="2.952200e-02" stroke-miterlimit="2.4142" points="
						33.7,57.6 33.7,57.4 33.4,57.1 33,57.4 33,57.6 33.7,57.6 					"/>
					
						<polygon fill-rule="evenodd" clip-rule="evenodd" fill="#006A4E" stroke="#000000" stroke-width="2.958900e-02" stroke-miterlimit="2.4142" points="
						32.3,55.9 32.7,55.5 33,55.8 32.7,56.1 33.1,56.6 32.6,56.6 32.3,56.3 32,56.6 31.5,56.6 31.9,56.1 31.6,55.8 31.9,55.5 
						32.3,55.9 					"/>
					
						<polygon fill-rule="evenodd" clip-rule="evenodd" fill="#006A4E" stroke="#000000" stroke-width="2.958900e-02" stroke-miterlimit="2.4142" points="
						29,56.8 29.9,56.8 29.9,55.9 29.4,55.9 29.4,56.3 29,56.3 29,56.8 					"/>
					
						<polygon fill-rule="evenodd" clip-rule="evenodd" fill="#006A4E" stroke="#000000" stroke-width="2.958900e-02" stroke-miterlimit="2.4142" points="
						27.6,57.8 28.4,57.8 28.4,56.9 28,56.9 28,57.3 27.6,57.3 27.6,57.8 					"/>
					
						<path fill-rule="evenodd" clip-rule="evenodd" fill="#006A4E" stroke="#000000" stroke-width="2.958900e-02" stroke-miterlimit="2.4142" d="
						M27.4,59l0.6,0.4v0.4l-0.9-0.6c0,0-0.3,0.2-0.3,0.3c-0.1,0.1-0.3,0-0.4-0.1c-0.1-0.1-0.2-0.1-0.1-0.2c0.1-0.1,0.3-0.2,0.3-0.2
						s-0.2-0.1-0.3-0.2c-0.1-0.1,0-0.1,0.1-0.2c0.1-0.1,0.3-0.1,0.4-0.1c0.1,0.1,0.3,0.3,0.3,0.3l0.9-0.6v0.4L27.4,59L27.4,59z"/>
					
						<polygon fill-rule="evenodd" clip-rule="evenodd" fill="#006A4E" stroke="#000000" stroke-width="2.958900e-02" stroke-miterlimit="2.4142" points="
						34.1,55.9 34.4,55.5 34.7,55.8 34.4,56.1 34.9,56.6 34.4,56.6 34.1,56.3 33.8,56.6 33.3,56.6 33.7,56.1 33.4,55.8 33.7,55.5 
						34.1,55.9 					"/>
					
						<polygon fill-rule="evenodd" clip-rule="evenodd" fill="#006A4E" stroke="#000000" stroke-width="2.965600e-02" stroke-miterlimit="2.4142" points="
						34.1,60.6 34.1,59.9 33.4,60.2 33.4,60.6 34.1,60.6 					"/>
					
						<polygon fill-rule="evenodd" clip-rule="evenodd" fill="#FFFFFF" stroke="#000000" stroke-width="2.958900e-02" stroke-miterlimit="2.4142" points="
						32.3,60.6 32.3,60.9 32.9,60.9 32.9,61.4 33.3,61.4 33.3,61.8 34.1,61.8 34.1,60.6 32.3,60.6 					"/>
					
						<path fill-rule="evenodd" clip-rule="evenodd" fill="#006A4E" stroke="#000000" stroke-width="2.958900e-02" stroke-miterlimit="2.4142" d="
						M32.6,62.5c0,0-0.3-0.4-0.5-0.1c-0.2,0.3,0.2,0.5,0.2,0.5L32,63.3h0.7h0.7l-0.4-0.4c0,0,0.5-0.2,0.2-0.5
						C32.9,62.1,32.6,62.5,32.6,62.5L32.6,62.5z"/>
					
						<polygon fill-rule="evenodd" clip-rule="evenodd" fill="#FFFFFF" stroke="#000000" stroke-width="2.958900e-02" stroke-miterlimit="2.4142" points="
						32.4,63.3 32.6,63.1 32.9,63.3 32.6,63.3 32.4,63.3 					"/>
					
						<path fill-rule="evenodd" clip-rule="evenodd" fill="#006A4E" stroke="#000000" stroke-width="3.284200e-02" stroke-miterlimit="2.4142" d="
						M31.2,61.7c0,0,0.4,0.2,0.1,0.4C31,62.3,30.8,62,30.8,62l-0.4,0.3v-0.6v-0.6l0.4,0.3c0,0,0.2-0.4,0.5-0.2
						C31.6,61.5,31.2,61.7,31.2,61.7L31.2,61.7z"/>
					
						<polygon fill-rule="evenodd" clip-rule="evenodd" fill="#FFFFFF" stroke="#000000" stroke-width="3.284200e-02" stroke-miterlimit="2.4142" points="
						30.4,61.9 30.6,61.7 30.4,61.5 30.4,61.7 30.4,61.9 					"/>
					
						<polygon fill-rule="evenodd" clip-rule="evenodd" fill="#C20B18" stroke="#000000" stroke-width="3.001000e-02" stroke-miterlimit="2.4142" points="
						29.2,60.9 29.9,60.9 29.9,61.3 29.9,61.7 29.2,61.7 28.8,61.3 29.2,60.9 					"/>
					
						<polygon fill-rule="evenodd" clip-rule="evenodd" fill="#FFC703" stroke="#000000" stroke-width="3.001000e-02" stroke-miterlimit="2.4142" points="
						29.2,62.4 29.9,62.4 29.9,62 29.9,61.7 29.2,61.7 28.8,62 29.2,62.4 					"/>
					
						<polygon fill-rule="evenodd" clip-rule="evenodd" fill="#C20B18" stroke="#000000" stroke-width="2.952200e-02" stroke-miterlimit="2.4142" points="
						32.3,63.6 32.3,63.7 32.6,64.1 33,63.7 33,63.6 32.3,63.6 					"/>
					
						<polygon fill-rule="evenodd" clip-rule="evenodd" fill="#FFC703" stroke="#000000" stroke-width="2.952200e-02" stroke-miterlimit="2.4142" points="
						33.7,63.6 33.7,63.7 33.4,64.1 33,63.7 33,63.6 33.7,63.6 					"/>
					
						<polygon fill-rule="evenodd" clip-rule="evenodd" fill="#006A4E" stroke="#000000" stroke-width="2.958900e-02" stroke-miterlimit="2.4142" points="
						32.3,65.3 32.7,65.7 33,65.4 32.7,65 33.1,64.6 32.6,64.6 32.3,64.9 32,64.6 31.5,64.6 31.9,65 31.6,65.4 31.9,65.7 32.3,65.3 
											"/>
					
						<polygon fill-rule="evenodd" clip-rule="evenodd" fill="#006A4E" stroke="#000000" stroke-width="2.958900e-02" stroke-miterlimit="2.4142" points="
						29,64.4 29.9,64.4 29.9,65.3 29.4,65.3 29.4,64.9 29,64.9 29,64.4 					"/>
					
						<polygon fill-rule="evenodd" clip-rule="evenodd" fill="#006A4E" stroke="#000000" stroke-width="2.958900e-02" stroke-miterlimit="2.4142" points="
						27.6,63.4 28.4,63.4 28.4,64.3 28,64.3 28,63.8 27.6,63.8 27.6,63.4 					"/>
					
						<path fill-rule="evenodd" clip-rule="evenodd" fill="#006A4E" stroke="#000000" stroke-width="2.958900e-02" stroke-miterlimit="2.4142" d="
						M27.4,62.1l0.6-0.4v-0.4L27.2,62c0,0-0.3-0.2-0.3-0.3c-0.1-0.1-0.3,0-0.4,0.1c-0.1,0.1-0.2,0.1-0.1,0.2
						c0.1,0.1,0.3,0.2,0.3,0.2s-0.2,0.1-0.3,0.2c-0.1,0.1,0,0.1,0.1,0.2c0.1,0.1,0.3,0.1,0.4,0.1c0.1-0.1,0.3-0.3,0.3-0.3l0.9,0.6
						v-0.4L27.4,62.1L27.4,62.1z"/>
					
						<polygon fill-rule="evenodd" clip-rule="evenodd" fill="#C20B18" stroke="#000000" stroke-width="2.965600e-02" stroke-miterlimit="2.4142" points="
						34.1,60.6 34.1,61.3 33.4,60.9 33.4,60.6 34.1,60.6 					"/>
					
						<polygon fill-rule="evenodd" clip-rule="evenodd" fill="#FFC703" stroke="#000000" stroke-width="2.958900e-02" stroke-miterlimit="2.4142" points="
						35.9,60.6 35.9,60.9 35.3,60.9 35.3,61.4 34.8,61.4 34.8,61.8 34.1,61.8 34.1,60.6 35.9,60.6 					"/>
					
						<path fill-rule="evenodd" clip-rule="evenodd" fill="#006A4E" stroke="#000000" stroke-width="2.958900e-02" stroke-miterlimit="2.4142" d="
						M35.5,62.5c0,0,0.3-0.4,0.5-0.1c0.2,0.3-0.2,0.5-0.2,0.5l0.4,0.4h-0.7h-0.7l0.4-0.4c0,0-0.5-0.2-0.2-0.5
						C35.2,62.1,35.5,62.5,35.5,62.5L35.5,62.5z"/>
					
						<polygon fill-rule="evenodd" clip-rule="evenodd" fill="#FFFFFF" stroke="#000000" stroke-width="2.958900e-02" stroke-miterlimit="2.4142" points="
						35.8,63.3 35.5,63.1 35.3,63.3 35.5,63.3 35.8,63.3 					"/>
					
						<path fill-rule="evenodd" clip-rule="evenodd" fill="#006A4E" stroke="#000000" stroke-width="2.965600e-02" stroke-miterlimit="2.4142" d="
						M37,60.6c0,0-0.4-0.2-0.1-0.4c0.3-0.2,0.5,0.2,0.5,0.2l0.4-0.3v0.6v0.6l-0.4-0.3c0,0-0.2,0.4-0.5,0.2
						C36.6,60.8,37,60.6,37,60.6L37,60.6z"/>
					
						<polygon fill-rule="evenodd" clip-rule="evenodd" fill="#FFFFFF" stroke="#000000" stroke-width="2.965600e-02" stroke-miterlimit="2.4142" points="
						37.8,60.4 37.5,60.6 37.8,60.8 37.8,60.6 37.8,60.4 					"/>
					
						<path fill-rule="evenodd" clip-rule="evenodd" fill="#006A4E" stroke="#000000" stroke-width="3.284200e-02" stroke-miterlimit="2.4142" d="
						M37,61.7c0,0-0.4,0.2-0.1,0.4c0.3,0.2,0.5-0.2,0.5-0.2l0.4,0.3v-0.6v-0.6l-0.4,0.3c0,0-0.2-0.4-0.5-0.2
						C36.6,61.5,37,61.7,37,61.7L37,61.7z"/>
					
						<polygon fill-rule="evenodd" clip-rule="evenodd" fill="#FFFFFF" stroke="#000000" stroke-width="3.284200e-02" stroke-miterlimit="2.4142" points="
						37.8,61.9 37.5,61.7 37.8,61.5 37.8,61.7 37.8,61.9 					"/>
					
						<polygon fill-rule="evenodd" clip-rule="evenodd" fill="#C20B18" stroke="#000000" stroke-width="3.001000e-02" stroke-miterlimit="2.4142" points="
						39,60.9 38.2,60.9 38.2,61.3 38.2,61.7 39,61.7 39.3,61.3 39,60.9 					"/>
					
						<polygon fill-rule="evenodd" clip-rule="evenodd" fill="#FFC703" stroke="#000000" stroke-width="3.001000e-02" stroke-miterlimit="2.4142" points="
						39,62.4 38.2,62.4 38.2,62 38.2,61.7 39,61.7 39.3,62 39,62.4 					"/>
					
						<polygon fill-rule="evenodd" clip-rule="evenodd" fill="#C20B18" stroke="#000000" stroke-width="2.952200e-02" stroke-miterlimit="2.4142" points="
						35.9,63.6 35.9,63.7 35.5,64.1 35.1,63.7 35.1,63.6 35.9,63.6 					"/>
					
						<polygon fill-rule="evenodd" clip-rule="evenodd" fill="#FFC703" stroke="#000000" stroke-width="2.952200e-02" stroke-miterlimit="2.4142" points="
						34.4,63.6 34.4,63.7 34.8,64.1 35.1,63.7 35.1,63.6 34.4,63.6 					"/>
					
						<polygon fill-rule="evenodd" clip-rule="evenodd" fill="#006A4E" stroke="#000000" stroke-width="2.958900e-02" stroke-miterlimit="2.4142" points="
						35.8,65.3 35.5,65.7 35.2,65.4 35.5,65 35,64.6 35.5,64.6 35.8,64.9 36.1,64.6 36.7,64.6 36.2,65 36.5,65.4 36.2,65.7 
						35.8,65.3 					"/>
					
						<polygon fill-rule="evenodd" clip-rule="evenodd" fill="#006A4E" stroke="#000000" stroke-width="2.958900e-02" stroke-miterlimit="2.4142" points="
						39.2,64.4 38.3,64.4 38.3,65.3 38.8,65.3 38.8,64.9 39.2,64.9 39.2,64.4 					"/>
					
						<polygon fill-rule="evenodd" clip-rule="evenodd" fill="#006A4E" stroke="#000000" stroke-width="2.958900e-02" stroke-miterlimit="2.4142" points="
						40.6,63.4 39.7,63.4 39.7,64.3 40.2,64.3 40.2,63.8 40.6,63.8 40.6,63.4 					"/>
					
						<path fill-rule="evenodd" clip-rule="evenodd" fill="#006A4E" stroke="#000000" stroke-width="2.958900e-02" stroke-miterlimit="2.4142" d="
						M40.7,60.6L40.1,61v0.4l0.9-0.6c0,0,0.3,0.2,0.3,0.3c0.1,0.1,0.3,0,0.4-0.1c0.1-0.1,0.2-0.1,0.1-0.2c-0.1-0.1-0.3-0.2-0.3-0.2
						s0.2-0.1,0.3-0.2c0.1-0.1,0-0.1-0.1-0.2c-0.1-0.1-0.3-0.1-0.4-0.1c-0.1,0.1-0.3,0.3-0.3,0.3l-0.9-0.6v0.4L40.7,60.6L40.7,60.6z
						"/>
					
						<path fill-rule="evenodd" clip-rule="evenodd" fill="#006A4E" stroke="#000000" stroke-width="2.958900e-02" stroke-miterlimit="2.4142" d="
						M40.7,62.1l-0.6-0.4v-0.4L41,62c0,0,0.3-0.2,0.3-0.3c0.1-0.1,0.3,0,0.4,0.1c0.1,0.1,0.2,0.1,0.1,0.2c-0.1,0.1-0.3,0.2-0.3,0.2
						s0.2,0.1,0.3,0.2c0.1,0.1,0,0.1-0.1,0.2c-0.1,0.1-0.3,0.1-0.4,0.1c-0.1-0.1-0.3-0.3-0.3-0.3l-0.9,0.6v-0.4L40.7,62.1L40.7,62.1
						z"/>
					<g>
						
							<path fill-rule="evenodd" clip-rule="evenodd" fill="#006A4E" stroke="#000000" stroke-width="2.958900e-02" stroke-miterlimit="2.4142" d="
							M34.1,62.5c0,0-0.3-0.4-0.5-0.1c-0.2,0.3,0.2,0.5,0.2,0.5l-0.4,0.4h0.7h0.7l-0.4-0.4c0,0,0.5-0.2,0.2-0.5
							C34.4,62.1,34.1,62.5,34.1,62.5L34.1,62.5z"/>
						
							<polygon fill-rule="evenodd" clip-rule="evenodd" fill="#FFFFFF" stroke="#000000" stroke-width="2.958900e-02" stroke-miterlimit="2.4142" points="
							33.8,63.3 34.1,63.1 34.3,63.3 34.1,63.3 33.8,63.3 						"/>
					</g>
					
						<polygon fill-rule="evenodd" clip-rule="evenodd" fill="#006A4E" stroke="#000000" stroke-width="2.965600e-02" stroke-miterlimit="2.4142" points="
						34.1,60.6 34.1,61.3 34.7,60.9 34.7,60.6 34.1,60.6 					"/>
					<g>
						
							<path fill-rule="evenodd" clip-rule="evenodd" fill="#006A4E" stroke="#000000" stroke-width="2.965600e-02" stroke-miterlimit="2.4142" d="
							M31.2,60.6c0,0,0.4-0.2,0.1-0.4c-0.3-0.2-0.5,0.2-0.5,0.2L30.4,60v0.6v0.6l0.4-0.3c0,0,0.2,0.4,0.5,0.2
							C31.6,60.8,31.2,60.6,31.2,60.6L31.2,60.6z"/>
						
							<polygon fill-rule="evenodd" clip-rule="evenodd" fill="#FFFFFF" stroke="#000000" stroke-width="2.965600e-02" stroke-miterlimit="2.4142" points="
							30.4,60.4 30.6,60.6 30.4,60.8 30.4,60.6 30.4,60.4 						"/>
					</g>
					
						<polygon fill-rule="evenodd" clip-rule="evenodd" fill="#FFFFFF" stroke="#000000" stroke-width="2.958900e-02" stroke-miterlimit="2.4142" points="
						35.9,60.6 35.9,60.2 35.3,60.2 35.3,59.8 34.8,59.8 34.8,59.3 34.1,59.3 34.1,60.6 35.9,60.6 					"/>
					
						<path fill-rule="evenodd" clip-rule="evenodd" fill="#006A4E" stroke="#000000" stroke-width="2.958900e-02" stroke-miterlimit="2.4142" d="
						M35.5,58.6c0,0,0.3,0.4,0.5,0.1c0.2-0.3-0.2-0.5-0.2-0.5l0.4-0.4h-0.7h-0.7l0.4,0.4c0,0-0.5,0.2-0.2,0.5
						C35.2,59,35.5,58.6,35.5,58.6L35.5,58.6z"/>
					
						<polygon fill-rule="evenodd" clip-rule="evenodd" fill="#FFFFFF" stroke="#000000" stroke-width="2.958900e-02" stroke-miterlimit="2.4142" points="
						35.8,57.8 35.5,58.1 35.3,57.8 35.5,57.8 35.8,57.8 					"/>
					
						<path fill-rule="evenodd" clip-rule="evenodd" fill="#006A4E" stroke="#000000" stroke-width="3.284200e-02" stroke-miterlimit="2.4142" d="
						M37,59.4c0,0-0.4-0.2-0.1-0.4c0.3-0.2,0.5,0.2,0.5,0.2l0.4-0.3v0.6V60l-0.4-0.3c0,0-0.2,0.4-0.5,0.2C36.6,59.7,37,59.4,37,59.4
						L37,59.4z"/>
					
						<polygon fill-rule="evenodd" clip-rule="evenodd" fill="#FFFFFF" stroke="#000000" stroke-width="3.284200e-02" stroke-miterlimit="2.4142" points="
						37.8,59.2 37.5,59.4 37.8,59.6 37.8,59.4 37.8,59.2 					"/>
					<g>
						
							<path fill-rule="evenodd" clip-rule="evenodd" fill="#006A4E" stroke="#000000" stroke-width="2.958900e-02" stroke-miterlimit="2.4142" d="
							M34.1,58.6c0,0-0.3,0.4-0.5,0.1c-0.2-0.3,0.2-0.5,0.2-0.5l-0.4-0.4h0.7h0.7l-0.4,0.4c0,0,0.5,0.2,0.2,0.5
							C34.4,59,34.1,58.6,34.1,58.6L34.1,58.6z"/>
						
							<polygon fill-rule="evenodd" clip-rule="evenodd" fill="#FFFFFF" stroke="#000000" stroke-width="2.958900e-02" stroke-miterlimit="2.4142" points="
							33.8,57.8 34.1,58.1 34.3,57.8 34.1,57.8 33.8,57.8 						"/>
					</g>
					
						<polygon fill-rule="evenodd" clip-rule="evenodd" fill="#C20B18" stroke="#000000" stroke-width="3.001000e-02" stroke-miterlimit="2.4142" points="
						39,60.2 38.2,60.2 38.2,59.9 38.2,59.5 39,59.5 39.3,59.9 39,60.2 					"/>
					
						<polygon fill-rule="evenodd" clip-rule="evenodd" fill="#FFC703" stroke="#000000" stroke-width="3.001000e-02" stroke-miterlimit="2.4142" points="
						39,58.8 38.2,58.8 38.2,59.1 38.2,59.5 39,59.5 39.3,59.1 39,58.8 					"/>
					
						<polygon fill-rule="evenodd" clip-rule="evenodd" fill="#C20B18" stroke="#000000" stroke-width="2.952200e-02" stroke-miterlimit="2.4142" points="
						35.9,57.6 35.9,57.4 35.5,57.1 35.1,57.4 35.1,57.6 35.9,57.6 					"/>
					<path fill="#006A4E" d="M34.1,63.3h-2.4l-1.2-1.1v-1.7v-1.7l1.2-1.1h2.4v-0.3h-2.5h0l0,0l-1.3,1.1l0,0v0.1v1.7v1.7v0.1l0,0
						l1.3,1.1l0,0h0h2.5V63.3L34.1,63.3z M34.1,63.3h2.4l1.2-1.1v-1.7v-1.7l-1.2-1.1h-2.4v-0.3h2.5h0l0,0l1.3,1.1l0,0v0.1v1.7v1.7
						v0.1l0,0l-1.3,1.1l0,0h0h-2.5V63.3L34.1,63.3z"/>
					
						<polygon fill-rule="evenodd" clip-rule="evenodd" fill="#FFC703" stroke="#000000" stroke-width="2.952200e-02" stroke-miterlimit="2.4142" points="
						34.4,57.6 34.4,57.4 34.8,57.1 35.1,57.4 35.1,57.6 34.4,57.6 					"/>
					
						<polygon fill-rule="evenodd" clip-rule="evenodd" fill="#006A4E" stroke="#000000" stroke-width="2.958900e-02" stroke-miterlimit="2.4142" points="
						34.1,65.3 34.4,65.7 34.7,65.4 34.4,65 34.9,64.6 34.4,64.6 34.1,64.9 33.8,64.6 33.3,64.6 33.7,65 33.4,65.4 33.7,65.7 
						34.1,65.3 					"/>
					
						<polygon fill-rule="evenodd" clip-rule="evenodd" fill="#006A4E" stroke="#000000" stroke-width="2.958900e-02" stroke-miterlimit="2.4142" points="
						35.8,55.9 35.5,55.5 35.2,55.8 35.5,56.1 35,56.6 35.5,56.6 35.8,56.3 36.1,56.6 36.7,56.6 36.2,56.1 36.5,55.8 36.2,55.5 
						35.8,55.9 					"/>
					
						<polygon fill-rule="evenodd" clip-rule="evenodd" fill="#006A4E" stroke="#000000" stroke-width="2.958900e-02" stroke-miterlimit="2.4142" points="
						39.2,56.8 38.3,56.8 38.3,55.9 38.8,55.9 38.8,56.3 39.2,56.3 39.2,56.8 					"/>
					
						<polygon fill-rule="evenodd" clip-rule="evenodd" fill="#006A4E" stroke="#000000" stroke-width="2.958900e-02" stroke-miterlimit="2.4142" points="
						40.6,57.8 39.7,57.8 39.7,56.9 40.2,56.9 40.2,57.3 40.6,57.3 40.6,57.8 					"/>
					
						<polygon fill-rule="evenodd" clip-rule="evenodd" fill="#C20B18" stroke="#000000" stroke-width="2.965600e-02" stroke-miterlimit="2.4142" points="
						34.1,60.6 34.1,59.9 34.7,60.2 34.7,60.6 34.1,60.6 					"/>
					<g>
						<polygon fill="#C20B18" points="34.1,64.2 38.2,64.2 38.2,63.4 38.2,63 38.4,63 39.7,63 39.7,60.6 40.2,60.6 40.2,63.4 
							40.2,63.6 39.9,63.6 38.7,63.6 38.7,64.5 38.7,64.7 38.4,64.7 34.1,64.7 34.1,64.2 						"/>
						<path d="M34.1,64.2h4.1v-0.8V63v0h0h0.2h1.3v-2.4h0V63v0h0h-1.3h-0.2v0.4v0.8v0h0L34.1,64.2L34.1,64.2L34.1,64.2z M40.2,60.6
							v2.8v0.2v0h0h-0.2h-1.3v0.8v0.2v0h0h-0.2h-4.4v0h4.4h0.2v-0.2v-0.8v0h0h1.3h0.2v-0.2L40.2,60.6L40.2,60.6L40.2,60.6z"/>
					</g>
					
						<path fill-rule="evenodd" clip-rule="evenodd" fill="#006A4E" stroke="#000000" stroke-width="2.958900e-02" stroke-miterlimit="2.4142" d="
						M40.7,59l-0.6-0.4v-0.4l0.9,0.6c0,0,0.3-0.2,0.3-0.3c0.1-0.1,0.3,0,0.4,0.1c0.1,0.1,0.2,0.1,0.1,0.2c-0.1,0.1-0.3,0.2-0.3,0.2
						s0.2,0.1,0.3,0.2c0.1,0.1,0,0.1-0.1,0.2c-0.1,0.1-0.3,0.1-0.4,0.1c-0.1-0.1-0.3-0.3-0.3-0.3l-0.9,0.6v-0.4L40.7,59L40.7,59z"/>
					<g>
						<polygon fill="#C20B18" points="34.1,56.9 38.2,56.9 38.2,57.8 38.2,58.1 38.4,58.1 39.7,58.1 39.7,60.6 40.2,60.6 40.2,57.8 
							40.2,57.5 39.9,57.5 38.7,57.5 38.7,56.7 38.7,56.5 38.4,56.5 34.1,56.5 34.1,56.9 						"/>
						<path d="M34.1,56.9h4.1v0.8v0.4v0h0h0.2h1.3v2.4h0v-2.4v0h0h-1.3h-0.2v-0.4v-0.8v0h0L34.1,56.9L34.1,56.9L34.1,56.9z
							 M40.2,60.6v-2.8v-0.2v0h0h-0.2h-1.3v-0.8v-0.2v0h0h-0.2h-4.4v0h4.4h0.2v0.2v0.8v0h0h1.3h0.2v0.2L40.2,60.6L40.2,60.6
							L40.2,60.6z"/>
					</g>
					
						<polygon fill-rule="evenodd" clip-rule="evenodd" fill="#FFC703" stroke="#000000" stroke-width="2.965600e-02" stroke-miterlimit="2.4142" points="
						39,60.9 38.2,60.9 38.2,60.6 38.2,60.2 39,60.2 39.3,60.6 39,60.9 					"/>
					
						<polygon fill-rule="evenodd" clip-rule="evenodd" fill="#C20B18" stroke="#000000" stroke-width="2.952200e-02" stroke-miterlimit="2.4142" points="
						33.7,63.6 33.7,63.7 34.1,64.1 34.4,63.7 34.4,63.6 33.7,63.6 					"/>
					
						<polygon fill-rule="evenodd" clip-rule="evenodd" fill="#C20B18" stroke="#000000" stroke-width="2.952200e-02" stroke-miterlimit="2.4142" points="
						33.7,57.6 33.7,57.4 34.1,57.1 34.4,57.4 34.4,57.6 33.7,57.6 					"/>
					<path d="M34.1,63.3h2.4l1.2-1v-1.7v-1.7l-1.2-1h-2.4h-2.4l-1.2,1v1.7v1.7l1.2,1H34.1L34.1,63.3z M30.4,60.6v-1.7v0l0,0l1.2-1.1
						l0,0h0h2.4v-0.2h-2.5h0l0,0l-1.3,1.1l0,0v0.1v1.7v1.7v0.1l0,0l1.3,1.1l0,0h0h2.5v-0.2h-2.4h0l0,0l-1.2-1.1l0,0v0V60.6
						L30.4,60.6z M30.1,60.6v-1.7v-0.1v0l0,0l0,0l1.3-1.1l0,0l0,0h0h0h2.5h2.5h0h0l0,0l0,0l1.3,1.1l0,0l0,0v0v0.1v1.7v1.7v0.1v0l0,0
						l0,0l-1.3,1.1l0,0l0,0h0h0h-2.5h-2.5h0h0l0,0l0,0l-1.3-1.1l0,0l0,0v0v-0.1V60.6L30.1,60.6z M37.8,60.6v1.7v0l0,0l-1.2,1.1l0,0
						h0h-2.4v0.2h2.5h0l0,0l1.3-1.1l0,0v-0.1v-1.7v-1.7v-0.1l0,0l-1.3-1.1l0,0h0h-2.5v0.2h2.4h0l0,0l1.2,1.1l0,0v0V60.6L37.8,60.6z"
						/>
					
						<path fill-rule="evenodd" clip-rule="evenodd" fill="#006A4E" stroke="#000000" stroke-width="2.958900e-02" stroke-miterlimit="2.4142" d="
						M27.4,60.6L28,61v0.4l-0.9-0.6c0,0-0.3,0.2-0.3,0.3c-0.1,0.1-0.3,0-0.4-0.1c-0.1-0.1-0.2-0.1-0.1-0.2c0.1-0.1,0.3-0.2,0.3-0.2
						s-0.2-0.1-0.3-0.2c-0.1-0.1,0-0.1,0.1-0.2c0.1-0.1,0.3-0.1,0.4-0.1c0.1,0.1,0.3,0.3,0.3,0.3l0.9-0.6v0.4L27.4,60.6L27.4,60.6z"
						/>
					<g>
						<polygon fill="#C20B18" points="34.1,64.2 29.9,64.2 29.9,63.4 29.9,63 29.7,63 28.4,63 28.4,60.6 28,60.6 28,63.4 28,63.6 
							28.2,63.6 29.5,63.6 29.5,64.5 29.5,64.7 29.7,64.7 34.1,64.7 34.1,64.2 						"/>
						<path d="M34.1,64.2h-4.1v-0.8V63v0h0h-0.2h-1.3v-2.4h0V63v0h0h1.3h0.2v0.4v0.8v0h0L34.1,64.2L34.1,64.2L34.1,64.2z M28,60.6
							v2.8v0.2v0h0h0.2h1.3v0.8v0.2v0h0h0.2h4.4v0h-4.4h-0.2v-0.2v-0.8v0h0h-1.3H28v-0.2L28,60.6L28,60.6L28,60.6z"/>
					</g>
					<g>
						<polygon fill="#C20B18" points="34.1,56.9 29.9,56.9 29.9,57.8 29.9,58.1 29.7,58.1 28.4,58.1 28.4,60.6 28,60.6 28,57.8 
							28,57.5 28.2,57.5 29.5,57.5 29.5,56.7 29.5,56.5 29.7,56.5 34.1,56.5 34.1,56.9 						"/>
						<path d="M34.1,56.9h-4.1v0.8v0.4v0h0h-0.2h-1.3v2.4h0v-2.4v0h0h1.3h0.2v-0.4v-0.8v0h0L34.1,56.9L34.1,56.9L34.1,56.9z
							 M28,60.6v-2.8v-0.2v0h0h0.2h1.3v-0.8v-0.2v0h0h0.2h4.4v0h-4.4h-0.2v0.2v0.8v0h0h-1.3H28v0.2L28,60.6L28,60.6L28,60.6z"/>
					</g>
				</g>
				
					<polygon fill-rule="evenodd" clip-rule="evenodd" fill="#006A4E" stroke="#000000" stroke-width="2.952200e-02" stroke-miterlimit="2.4142" points="
					34.1,45.2 33.8,44.9 34.1,44.7 34.4,44.9 34.1,45.2 				"/>
				<g>
					
						<polygon fill-rule="evenodd" clip-rule="evenodd" fill="none" stroke="#000000" stroke-width="2.952200e-02" stroke-miterlimit="2.4142" points="
						34.1,68.3 34.8,67.9 36.7,67.9 37.5,68.8 35.5,68.8 35.2,68.4 36.6,68.4 36.4,68.2 34.8,68.2 34.5,68.5 35.2,69 39.8,69 
						39.8,70.3 41,70.3 41,71.5 42.2,71.5 42.2,73.1 42.2,74.8 41,74.8 41,76 39.8,76 39.8,77.3 35.2,77.3 34.5,77.8 34.8,78 
						36.4,78 36.6,77.8 35.2,77.8 35.5,77.5 37.5,77.5 36.7,78.4 34.8,78.4 34.1,78 33.4,78.4 31.5,78.4 30.6,77.5 32.6,77.5 
						32.9,77.8 31.5,77.8 31.7,78 33.3,78 33.7,77.8 32.9,77.3 28.4,77.3 28.4,76 27.1,76 27.1,74.8 25.9,74.8 25.9,73.1 25.9,71.5 
						27.1,71.5 27.1,70.3 28.4,70.3 28.4,69 32.9,69 33.7,68.5 33.3,68.2 31.7,68.2 31.5,68.4 32.9,68.4 32.6,68.8 30.6,68.8 
						31.5,67.9 33.4,67.9 34.1,68.3 					"/>
					
						<polygon fill-rule="evenodd" clip-rule="evenodd" fill="#FFC703" stroke="#000000" stroke-width="2.952200e-02" stroke-miterlimit="2.4142" points="
						34.1,68.7 35.4,69.5 39.2,69.5 39.2,70.8 40.5,70.8 40.5,72 41.7,72 41.7,73.1 41.7,74.3 40.5,74.3 40.5,75.5 39.2,75.5 
						39.2,76.7 35.4,76.7 34.1,77.6 32.7,76.7 28.9,76.7 28.9,75.5 27.7,75.5 27.7,74.3 26.4,74.3 26.4,73.1 26.4,72 27.7,72 
						27.7,70.8 28.9,70.8 28.9,69.5 32.7,69.5 34.1,68.7 					"/>
					
						<polygon fill-rule="evenodd" clip-rule="evenodd" fill="#006A4E" stroke="#000000" stroke-width="2.952200e-02" stroke-miterlimit="2.4142" points="
						34.1,69.1 35.3,69.8 38.9,69.8 38.9,71.2 40.2,71.2 40.2,72.3 41.4,72.3 41.4,73.1 41.4,74 40.2,74 40.2,75.1 38.9,75.1 
						38.9,76.4 35.3,76.4 34.1,77.2 32.8,76.4 29.2,76.4 29.2,75.1 28,75.1 28,74 26.7,74 26.7,73.1 26.7,72.3 28,72.3 28,71.2 
						29.2,71.2 29.2,69.8 32.8,69.8 34.1,69.1 					"/>
					<g>
						<g>
							<g>
								<polygon fill-rule="evenodd" clip-rule="evenodd" fill="#C20B18" points="32.9,73.9 34.1,73.9 34.1,74.6 32.9,74.6 
									32.9,73.9 								"/>
								<polygon fill-rule="evenodd" clip-rule="evenodd" fill="#FFFFFF" points="33.2,74.1 33.7,74.1 33.7,74.4 33.2,74.4 
									33.2,74.1 								"/>
							</g>
							<g>
								<polygon fill-rule="evenodd" clip-rule="evenodd" fill="#C20B18" points="35.3,73.9 34.1,73.9 34.1,74.6 35.3,74.6 
									35.3,73.9 								"/>
								<polygon fill-rule="evenodd" clip-rule="evenodd" fill="#FFFFFF" points="34.9,74.1 34.4,74.1 34.4,74.4 34.9,74.4 
									34.9,74.1 								"/>
							</g>
							<g>
								<polygon fill-rule="evenodd" clip-rule="evenodd" fill="#C20B18" points="34.7,75.2 33.5,75.2 33.5,74.6 34.7,74.6 
									34.7,75.2 								"/>
								<polygon fill-rule="evenodd" clip-rule="evenodd" fill="#FFFFFF" points="34.3,75 33.8,75 33.8,74.8 34.3,74.8 34.3,75 
																	"/>
							</g>
							<g>
								<polygon fill-rule="evenodd" clip-rule="evenodd" fill="#C20B18" points="32.3,75.2 33.5,75.2 33.5,74.6 32.3,74.6 
									32.3,75.2 								"/>
								<polygon fill-rule="evenodd" clip-rule="evenodd" fill="#FFFFFF" points="32.6,75 33.1,75 33.1,74.8 32.6,74.8 32.6,75 
																	"/>
							</g>
							<g>
								<polygon fill-rule="evenodd" clip-rule="evenodd" fill="#C20B18" points="34.7,75.2 35.9,75.2 35.9,74.6 34.7,74.6 
									34.7,75.2 								"/>
								<polygon fill-rule="evenodd" clip-rule="evenodd" fill="#FFFFFF" points="35,75 35.5,75 35.5,74.8 35,74.8 35,75 								
									"/>
							</g>
							<g>
								<polygon fill-rule="evenodd" clip-rule="evenodd" fill="#C20B18" points="35.3,75.2 34.1,75.2 34.1,75.8 35.3,75.8 
									35.3,75.2 								"/>
								<polygon fill-rule="evenodd" clip-rule="evenodd" fill="#FFFFFF" points="34.9,75.4 34.4,75.4 34.4,75.7 34.9,75.7 
									34.9,75.4 								"/>
							</g>
							<g>
								<polygon fill-rule="evenodd" clip-rule="evenodd" fill="#C20B18" points="34.1,75.2 32.9,75.2 32.9,75.8 34.1,75.8 
									34.1,75.2 								"/>
								<polygon fill-rule="evenodd" clip-rule="evenodd" fill="#FFFFFF" points="33.7,75.4 33.2,75.4 33.2,75.7 33.7,75.7 
									33.7,75.4 								"/>
							</g>
							
								<polygon fill-rule="evenodd" clip-rule="evenodd" fill="#FFC703" stroke="#000000" stroke-width="2.952200e-02" stroke-miterlimit="2.4142" points="
								34.1,73.3 35,73.9 34.1,73.9 33.1,73.9 34.1,73.3 							"/>
							
								<polygon fill-rule="evenodd" clip-rule="evenodd" fill="#FFC703" stroke="#000000" stroke-width="2.952200e-02" stroke-miterlimit="2.4142" points="
								34.1,76.5 35,75.8 34.1,75.8 33.1,75.8 34.1,76.5 							"/>
						</g>
						<g>
							<g>
								<polygon fill-rule="evenodd" clip-rule="evenodd" fill="#C20B18" points="32.9,70.4 34.1,70.4 34.1,71 32.9,71 32.9,70.4 
																	"/>
								<polygon fill-rule="evenodd" clip-rule="evenodd" fill="#FFFFFF" points="33.2,70.6 33.7,70.6 33.7,70.8 33.2,70.8 
									33.2,70.6 								"/>
							</g>
							<g>
								<polygon fill-rule="evenodd" clip-rule="evenodd" fill="#C20B18" points="35.3,70.4 34.1,70.4 34.1,71 35.3,71 35.3,70.4 
																	"/>
								<polygon fill-rule="evenodd" clip-rule="evenodd" fill="#FFFFFF" points="34.9,70.6 34.4,70.6 34.4,70.8 34.9,70.8 
									34.9,70.6 								"/>
							</g>
							<g>
								<polygon fill-rule="evenodd" clip-rule="evenodd" fill="#C20B18" points="34.7,71.6 33.5,71.6 33.5,71 34.7,71 34.7,71.6 
																	"/>
								<polygon fill-rule="evenodd" clip-rule="evenodd" fill="#FFFFFF" points="34.3,71.5 33.8,71.5 33.8,71.2 34.3,71.2 
									34.3,71.5 								"/>
							</g>
							<g>
								<polygon fill-rule="evenodd" clip-rule="evenodd" fill="#C20B18" points="32.3,71.6 33.5,71.6 33.5,71 32.3,71 32.3,71.6 
																	"/>
								<polygon fill-rule="evenodd" clip-rule="evenodd" fill="#FFFFFF" points="32.6,71.5 33.1,71.5 33.1,71.2 32.6,71.2 
									32.6,71.5 								"/>
							</g>
							<g>
								<polygon fill-rule="evenodd" clip-rule="evenodd" fill="#C20B18" points="34.7,71.6 35.9,71.6 35.9,71 34.7,71 34.7,71.6 
																	"/>
								<polygon fill-rule="evenodd" clip-rule="evenodd" fill="#FFFFFF" points="35,71.5 35.5,71.5 35.5,71.2 35,71.2 35,71.5 
																	"/>
							</g>
							<g>
								<polygon fill-rule="evenodd" clip-rule="evenodd" fill="#C20B18" points="35.3,71.6 34.1,71.6 34.1,72.3 35.3,72.3 
									35.3,71.6 								"/>
								<polygon fill-rule="evenodd" clip-rule="evenodd" fill="#FFFFFF" points="34.9,71.8 34.4,71.8 34.4,72.1 34.9,72.1 
									34.9,71.8 								"/>
							</g>
							<g>
								<polygon fill-rule="evenodd" clip-rule="evenodd" fill="#C20B18" points="34.1,71.6 32.9,71.6 32.9,72.3 34.1,72.3 
									34.1,71.6 								"/>
								<polygon fill-rule="evenodd" clip-rule="evenodd" fill="#FFFFFF" points="33.7,71.8 33.2,71.8 33.2,72.1 33.7,72.1 
									33.7,71.8 								"/>
							</g>
							
								<polygon fill-rule="evenodd" clip-rule="evenodd" fill="#FFC703" stroke="#000000" stroke-width="2.952200e-02" stroke-miterlimit="2.4142" points="
								34.1,69.7 35,70.4 34.1,70.4 33.1,70.4 34.1,69.7 							"/>
							
								<polygon fill-rule="evenodd" clip-rule="evenodd" fill="#FFC703" stroke="#000000" stroke-width="2.952200e-02" stroke-miterlimit="2.4142" points="
								34.1,72.9 35,72.3 34.1,72.3 33.1,72.3 34.1,72.9 							"/>
						</g>
						<g>
							<g>
								<g>
									<polygon fill-rule="evenodd" clip-rule="evenodd" fill="#FFC703" points="36,72.2 37.2,72.2 37.2,72.8 36,72.8 36,72.2 
																			"/>
									<polygon fill-rule="evenodd" clip-rule="evenodd" fill="#FFFFFF" points="36.3,72.4 36.8,72.4 36.8,72.6 36.3,72.6 
										36.3,72.4 									"/>
								</g>
								<g>
									<polygon fill-rule="evenodd" clip-rule="evenodd" fill="#FFC703" points="38.4,72.2 37.2,72.2 37.2,72.8 38.4,72.8 
										38.4,72.2 									"/>
									<polygon fill-rule="evenodd" clip-rule="evenodd" fill="#FFFFFF" points="38.1,72.4 37.6,72.4 37.6,72.6 38.1,72.6 
										38.1,72.4 									"/>
								</g>
								<g>
									<polygon fill-rule="evenodd" clip-rule="evenodd" fill="#C20B18" points="37.7,73.5 36.5,73.5 36.5,72.8 37.7,72.8 
										37.7,73.5 									"/>
									<polygon fill-rule="evenodd" clip-rule="evenodd" fill="#FFFFFF" points="37.3,73.3 36.8,73.3 36.8,73 37.3,73 37.3,73.3 
																			"/>
								</g>
								<g>
									<polygon fill-rule="evenodd" clip-rule="evenodd" fill="#FFC703" points="35.2,73.5 36.5,73.5 36.5,72.8 35.2,72.8 
										35.2,73.5 									"/>
									<polygon fill-rule="evenodd" clip-rule="evenodd" fill="#FFFFFF" points="35.6,73.3 36.1,73.3 36.1,73 35.6,73 35.6,73.3 
																			"/>
								</g>
								<g>
									<polygon fill-rule="evenodd" clip-rule="evenodd" fill="#FFC703" points="37.7,73.5 38.9,73.5 38.9,72.8 37.7,72.8 
										37.7,73.5 									"/>
									<polygon fill-rule="evenodd" clip-rule="evenodd" fill="#FFFFFF" points="38,73.3 38.5,73.3 38.5,73 38,73 38,73.3 
																			"/>
								</g>
								<g>
									<polygon fill-rule="evenodd" clip-rule="evenodd" fill="#FFC703" points="38.4,73.5 37.2,73.5 37.2,74.1 38.4,74.1 
										38.4,73.5 									"/>
									<polygon fill-rule="evenodd" clip-rule="evenodd" fill="#FFFFFF" points="38.1,73.6 37.6,73.6 37.6,73.9 38.1,73.9 
										38.1,73.6 									"/>
								</g>
								<g>
									<polygon fill-rule="evenodd" clip-rule="evenodd" fill="#FFC703" points="37.2,73.5 36,73.5 36,74.1 37.2,74.1 37.2,73.5 
																			"/>
									<polygon fill-rule="evenodd" clip-rule="evenodd" fill="#FFFFFF" points="36.8,73.6 36.3,73.6 36.3,73.9 36.8,73.9 
										36.8,73.6 									"/>
								</g>
								
									<polygon fill-rule="evenodd" clip-rule="evenodd" fill="#C20B18" stroke="#000000" stroke-width="2.952200e-02" stroke-miterlimit="2.4142" points="
									37.2,71.5 38.2,72.2 37.2,72.2 36.2,72.2 37.2,71.5 								"/>
								
									<polygon fill-rule="evenodd" clip-rule="evenodd" fill="#C20B18" stroke="#000000" stroke-width="2.952200e-02" stroke-miterlimit="2.4142" points="
									37.2,74.7 38.2,74.1 37.2,74.1 36.2,74.1 37.2,74.7 								"/>
							</g>
							<g>
								<g>
									<polygon fill-rule="evenodd" clip-rule="evenodd" fill="#FFC703" points="32.2,72.2 30.9,72.2 30.9,72.8 32.2,72.8 
										32.2,72.2 									"/>
									<polygon fill-rule="evenodd" clip-rule="evenodd" fill="#FFFFFF" points="31.8,72.4 31.3,72.4 31.3,72.6 31.8,72.6 
										31.8,72.4 									"/>
								</g>
								<g>
									<polygon fill-rule="evenodd" clip-rule="evenodd" fill="#FFC703" points="29.7,72.2 30.9,72.2 30.9,72.8 29.7,72.8 
										29.7,72.2 									"/>
									<polygon fill-rule="evenodd" clip-rule="evenodd" fill="#FFFFFF" points="30.1,72.4 30.6,72.4 30.6,72.6 30.1,72.6 
										30.1,72.4 									"/>
								</g>
								<g>
									<polygon fill-rule="evenodd" clip-rule="evenodd" fill="#C20B18" points="30.5,73.5 31.7,73.5 31.7,72.8 30.5,72.8 
										30.5,73.5 									"/>
									<polygon fill-rule="evenodd" clip-rule="evenodd" fill="#FFFFFF" points="30.8,73.3 31.3,73.3 31.3,73 30.8,73 30.8,73.3 
																			"/>
								</g>
								<g>
									<polygon fill-rule="evenodd" clip-rule="evenodd" fill="#FFC703" points="32.9,73.5 31.7,73.5 31.7,72.8 32.9,72.8 
										32.9,73.5 									"/>
									<polygon fill-rule="evenodd" clip-rule="evenodd" fill="#FFFFFF" points="32.5,73.3 32,73.3 32,73 32.5,73 32.5,73.3 
																			"/>
								</g>
								<g>
									<polygon fill-rule="evenodd" clip-rule="evenodd" fill="#FFC703" points="30.5,73.5 29.3,73.5 29.3,72.8 30.5,72.8 
										30.5,73.5 									"/>
									<polygon fill-rule="evenodd" clip-rule="evenodd" fill="#FFFFFF" points="30.1,73.3 29.6,73.3 29.6,73 30.1,73 30.1,73.3 
																			"/>
								</g>
								<g>
									<polygon fill-rule="evenodd" clip-rule="evenodd" fill="#FFC703" points="29.7,73.5 30.9,73.5 30.9,74.1 29.7,74.1 
										29.7,73.5 									"/>
									<polygon fill-rule="evenodd" clip-rule="evenodd" fill="#FFFFFF" points="30.1,73.6 30.6,73.6 30.6,73.9 30.1,73.9 
										30.1,73.6 									"/>
								</g>
								<g>
									<polygon fill-rule="evenodd" clip-rule="evenodd" fill="#FFC703" points="30.9,73.5 32.2,73.5 32.2,74.1 30.9,74.1 
										30.9,73.5 									"/>
									<polygon fill-rule="evenodd" clip-rule="evenodd" fill="#FFFFFF" points="31.3,73.6 31.8,73.6 31.8,73.9 31.3,73.9 
										31.3,73.6 									"/>
								</g>
								
									<polygon fill-rule="evenodd" clip-rule="evenodd" fill="#C20B18" stroke="#000000" stroke-width="2.952200e-02" stroke-miterlimit="2.4142" points="
									30.9,71.5 30,72.2 30.9,72.2 31.9,72.2 30.9,71.5 								"/>
								
									<polygon fill-rule="evenodd" clip-rule="evenodd" fill="#C20B18" stroke="#000000" stroke-width="2.952200e-02" stroke-miterlimit="2.4142" points="
									30.9,74.7 30,74.1 30.9,74.1 31.9,74.1 30.9,74.7 								"/>
							</g>
						</g>
						
							<polygon fill-rule="evenodd" clip-rule="evenodd" fill="#C20B18" stroke="#000000" stroke-width="2.952200e-02" stroke-miterlimit="2.4142" points="
							29.7,70.4 29.7,71.6 31.5,70.4 29.7,70.4 						"/>
						
							<polygon fill-rule="evenodd" clip-rule="evenodd" fill="#C20B18" stroke="#000000" stroke-width="2.952200e-02" stroke-miterlimit="2.4142" points="
							29.7,75.9 29.7,74.6 31.5,75.9 29.7,75.9 						"/>
						
							<polygon fill-rule="evenodd" clip-rule="evenodd" fill="#C20B18" stroke="#000000" stroke-width="2.952200e-02" stroke-miterlimit="2.4142" points="
							38.4,70.4 38.4,71.6 36.6,70.4 38.4,70.4 						"/>
						
							<polygon fill-rule="evenodd" clip-rule="evenodd" fill="#C20B18" stroke="#000000" stroke-width="2.952200e-02" stroke-miterlimit="2.4142" points="
							38.4,75.9 38.4,74.6 36.6,75.9 38.4,75.9 						"/>
					</g>
				</g>
				<g>
					
						<polygon fill-rule="evenodd" clip-rule="evenodd" fill="#006A4E" stroke="#000000" stroke-width="2.952200e-02" stroke-miterlimit="2.4142" points="
						34.1,80.4 36.2,80.4 40.8,83 40.8,85 40.8,87 36.2,89.5 34.1,89.5 32,89.5 27.3,87 27.3,85 27.3,83 32,80.4 34.1,80.4 					"/>
					<g>
						
							<polygon fill-rule="evenodd" clip-rule="evenodd" fill="#FFFFFF" stroke="#000000" stroke-width="2.952200e-02" stroke-miterlimit="2.4142" points="
							34.1,85 34.1,80.8 36.1,80.8 40.4,83.2 40.4,85 34.1,85 						"/>
						
							<polygon fill-rule="evenodd" clip-rule="evenodd" fill="#FFC703" stroke="#000000" stroke-width="2.952200e-02" stroke-miterlimit="2.4142" points="
							34.1,85 34.1,80.8 32,80.8 27.7,83.2 27.7,85 34.1,85 						"/>
						
							<polygon fill-rule="evenodd" clip-rule="evenodd" fill="#FFC703" stroke="#000000" stroke-width="2.952200e-02" stroke-miterlimit="2.4142" points="
							34.1,85 34.1,89.2 36.1,89.2 40.4,86.8 40.4,85 34.1,85 						"/>
						
							<polygon fill-rule="evenodd" clip-rule="evenodd" fill="#FFFFFF" stroke="#000000" stroke-width="2.952200e-02" stroke-miterlimit="2.4142" points="
							34.1,85 34.1,89.2 32,89.2 27.7,86.8 27.7,85 34.1,85 						"/>
					</g>
					<g>
						<polygon fill-rule="evenodd" clip-rule="evenodd" fill="#C20B18" points="34.1,82.3 36,83.5 36.7,83.5 36.7,85 36.7,86.4 
							36,86.4 34.1,87.7 32.1,86.4 31.4,86.4 31.4,85 31.4,83.5 32.1,83.5 34.1,82.3 						"/>
						
							<path fill-rule="evenodd" clip-rule="evenodd" fill="#FFFFFF" stroke="#000000" stroke-width="2.952200e-02" stroke-miterlimit="2.4142" d="
							M34.1,84.8l1.1-0.7v-0.4h-0.7V84h0.2v0.3h-0.5v-0.8c0,0,1.2,0,1.2,0c0,0,0,0.6,0,0.6h0.6v0.8h-0.6v-0.3h0.3v-0.3h-0.4l-1,0.6
							l1,0.6h0.4v-0.3h-0.3v-0.3h0.6v0.8h-0.6c0,0,0,0.5,0,0.6c0,0-1.2,0-1.2,0v-0.8h0.5V86h-0.2v0.2h0.7v-0.4l-1.1-0.7l-1.1,0.7
							v0.4h0.7V86h-0.2v-0.3h0.5v0.8c0,0-1.2,0-1.2,0c0,0,0-0.6,0-0.6h-0.6v-0.8h0.6v0.3h-0.3v0.3h0.4l1-0.6l-1-0.6h-0.4v0.3h0.3
							v0.3h-0.6v-0.8h0.6c0,0,0-0.5,0-0.6c0,0,1.2,0,1.2,0v0.8h-0.5V84h0.2v-0.2h-0.7v0.4L34.1,84.8L34.1,84.8z"/>
						<g>
							
								<polygon fill-rule="evenodd" clip-rule="evenodd" fill="#FFC703" stroke="#000000" stroke-width="2.952200e-02" stroke-miterlimit="2.4142" points="
								34.1,82.5 36,83.7 36.6,83.7 36.6,85 37,85 37,83.4 36.1,83.4 34.8,82.5 34.8,81.7 35.6,81.1 34.5,81.1 34.5,82.3 34.1,82.1 
								34.1,82.5 							"/>
							
								<polygon fill-rule="evenodd" clip-rule="evenodd" fill="#FFFFFF" stroke="#000000" stroke-width="2.952200e-02" stroke-miterlimit="2.4142" points="
								34.1,82.5 32.2,83.7 31.5,83.7 31.5,85 31.2,85 31.2,83.4 32.1,83.4 33.3,82.5 33.3,81.7 32.5,81.1 33.7,81.1 33.7,82.3 
								34.1,82.1 34.1,82.5 							"/>
							
								<polygon fill-rule="evenodd" clip-rule="evenodd" fill="#FFC703" stroke="#000000" stroke-width="2.952200e-02" stroke-miterlimit="2.4142" points="
								34.1,87.5 32.2,86.3 31.5,86.3 31.5,85 31.2,85 31.2,86.6 32.1,86.6 33.3,87.5 33.3,88.3 32.5,88.9 33.7,88.9 33.7,87.6 
								34.1,87.9 34.1,87.5 							"/>
							
								<polygon fill-rule="evenodd" clip-rule="evenodd" fill="#FFFFFF" stroke="#000000" stroke-width="2.952200e-02" stroke-miterlimit="2.4142" points="
								34.1,87.5 36,86.3 36.6,86.3 36.6,85 37,85 37,86.6 36.1,86.6 34.8,87.5 34.8,88.3 35.6,88.9 34.5,88.9 34.5,87.6 34.1,87.9 
								34.1,87.5 							"/>
						</g>
						
							<polygon fill-rule="evenodd" clip-rule="evenodd" fill="#C20B18" stroke="#000000" stroke-width="2.952200e-02" stroke-miterlimit="2.4142" points="
							35.9,81.8 36.4,81.8 36.4,82.3 37,82.3 37,81.8 37.5,81.8 37.5,83 37,83 37,82.6 36.4,82.6 36.4,83 35.9,83 35.9,81.8 						
							"/>
						
							<polygon fill-rule="evenodd" clip-rule="evenodd" fill="#C20B18" stroke="#000000" stroke-width="2.952200e-02" stroke-miterlimit="2.4142" points="
							37.9,83.5 38.4,83.5 38.4,84 39,84 39,83.5 39.5,83.5 39.5,84.7 39,84.7 39,84.2 38.4,84.2 38.4,84.7 37.9,84.7 37.9,83.5 
													"/>
						
							<polygon fill-rule="evenodd" clip-rule="evenodd" fill="#FFC703" stroke="#000000" stroke-width="2.952200e-02" stroke-miterlimit="2.4142" points="
							37.9,82.2 37.9,83.1 39.6,83.1 37.9,82.2 						"/>
						
							<polygon fill-rule="evenodd" clip-rule="evenodd" fill="#C20B18" stroke="#000000" stroke-width="2.952200e-02" stroke-miterlimit="2.4142" points="
							35.9,88.2 36.4,88.2 36.4,87.7 37,87.7 37,88.2 37.5,88.2 37.5,86.9 37,86.9 37,87.4 36.4,87.4 36.4,86.9 35.9,86.9 
							35.9,88.2 						"/>
						
							<polygon fill-rule="evenodd" clip-rule="evenodd" fill="#C20B18" stroke="#000000" stroke-width="2.952200e-02" stroke-miterlimit="2.4142" points="
							37.9,86.5 38.4,86.5 38.4,86 39,86 39,86.5 39.5,86.5 39.5,85.3 39,85.3 39,85.8 38.4,85.8 38.4,85.3 37.9,85.3 37.9,86.5 
													"/>
						
							<polygon fill-rule="evenodd" clip-rule="evenodd" fill="#FFFFFF" stroke="#000000" stroke-width="2.952200e-02" stroke-miterlimit="2.4142" points="
							37.9,87.8 37.9,86.9 39.6,86.9 37.9,87.8 						"/>
						
							<polygon fill-rule="evenodd" clip-rule="evenodd" fill="#C20B18" stroke="#000000" stroke-width="2.952200e-02" stroke-miterlimit="2.4142" points="
							32.2,88.2 31.7,88.2 31.7,87.7 31.1,87.7 31.1,88.2 30.6,88.2 30.6,86.9 31.1,86.9 31.1,87.4 31.7,87.4 31.7,86.9 32.2,86.9 
							32.2,88.2 						"/>
						
							<polygon fill-rule="evenodd" clip-rule="evenodd" fill="#C20B18" stroke="#000000" stroke-width="2.952200e-02" stroke-miterlimit="2.4142" points="
							30.2,86.5 29.7,86.5 29.7,86 29.1,86 29.1,86.5 28.6,86.5 28.6,85.3 29.1,85.3 29.1,85.8 29.7,85.8 29.7,85.3 30.2,85.3 
							30.2,86.5 						"/>
						
							<polygon fill-rule="evenodd" clip-rule="evenodd" fill="#FFC703" stroke="#000000" stroke-width="2.952200e-02" stroke-miterlimit="2.4142" points="
							30.2,87.8 30.2,86.9 28.5,86.9 30.2,87.8 						"/>
						
							<polygon fill-rule="evenodd" clip-rule="evenodd" fill="#C20B18" stroke="#000000" stroke-width="2.952200e-02" stroke-miterlimit="2.4142" points="
							32.2,81.8 31.7,81.8 31.7,82.3 31.1,82.3 31.1,81.8 30.6,81.8 30.6,83 31.1,83 31.1,82.6 31.7,82.6 31.7,83 32.2,83 
							32.2,81.8 						"/>
						
							<polygon fill-rule="evenodd" clip-rule="evenodd" fill="#C20B18" stroke="#000000" stroke-width="2.952200e-02" stroke-miterlimit="2.4142" points="
							30.2,83.5 29.7,83.5 29.7,84 29.1,84 29.1,83.5 28.6,83.5 28.6,84.7 29.1,84.7 29.1,84.2 29.7,84.2 29.7,84.7 30.2,84.7 
							30.2,83.5 						"/>
						
							<polygon fill-rule="evenodd" clip-rule="evenodd" fill="#FFFFFF" stroke="#000000" stroke-width="2.952200e-02" stroke-miterlimit="2.4142" points="
							30.2,82.2 30.2,83.1 28.5,83.1 30.2,82.2 						"/>
					</g>
				</g>
				<g>
					<g>
						<path fill="#FFC703" stroke="#000000" stroke-width="2.952200e-02" stroke-miterlimit="2.4142" d="M40.6,79.6h0.5h0.1l0.1,0.1
							l1.2,1.1l0.1,0.1l0,0.1l0,0.4l-0.4,0l0-0.4L42,80.9l-0.4,0.4l0.6,0.5l0.1,0.1L42.2,82L42,82.2l1.1,1v0.5l-1.5-1.4l-0.1-0.1
							l0.1-0.1l0.2-0.2l-0.6-0.5l-0.1-0.1l0.1-0.1l0.5-0.5l-0.5-0.4l-0.8,0.6l-0.1,0.1l-0.1-0.1l-1.3-1.3l-0.1-0.1l0.1-0.1l1.4-1.3
							l0.1-0.1l0.1,0.1l0.7,0.7l0.5-0.4l-0.5-0.5l-0.1-0.1l0.1-0.1l0.5-0.5l-0.2-0.2l-0.1-0.1l0.1-0.1c0,0,1.1-1,1.5-1.3v0.5
							c-0.3,0.3-0.8,0.8-1.1,1l0.2,0.2l0.1,0.1L42.1,77l-0.5,0.5l0.4,0.4l0.1-0.1l0-0.3l0.4,0l0,0.4V78l-0.1,0.1l-1.2,1.1l-0.1,0
							l-0.1,0l-0.6,0l0-0.4l0.4,0l-0.5-0.5l-1.1,1l1.1,1l0.5-0.5h-0.3V79.6L40.6,79.6z M43.1,80.5l-0.4-0.4v-0.4h-0.5l-0.3-0.3
							l0.3-0.3h0.5v-0.4l0.4-0.4V80.5L43.1,80.5z M39.8,79.4l0.2-0.1l0.2-0.1v0.3v0.3L40,79.5L39.8,79.4L39.8,79.4z"/>
						<path fill="#FFC703" stroke="#000000" stroke-width="2.952200e-02" stroke-miterlimit="2.4142" d="M40.6,67h0.5h0.1l0.1,0.1
							l1.2,1.1l0.1,0.1l0,0.1l0,0.4l-0.4,0l0-0.4L42,68.3l-0.4,0.4l0.6,0.5l0.1,0.1l-0.1,0.1L42,69.7l1.1,1v0.5l-1.5-1.4l-0.1-0.1
							l0.1-0.1l0.2-0.2l-0.6-0.5l-0.1-0.1l0.1-0.1l0.5-0.5l-0.5-0.4l-0.8,0.6l-0.1,0.1l-0.1-0.1L38.9,67l-0.1-0.1l0.1-0.1l1.4-1.3
							l0.1-0.1l0.1,0.1l0.7,0.7l0.5-0.4l-0.5-0.5L41.1,65l0.1-0.1l0.5-0.5l-0.2-0.2L41.5,64l0.1-0.1c0,0,1.1-1,1.5-1.3v0.5
							c-0.3,0.3-0.8,0.8-1.1,1l0.2,0.2l0.1,0.1l-0.1,0.1L41.6,65l0.4,0.4l0.1-0.1l0-0.3l0.4,0l0,0.4v0.1l-0.1,0.1l-1.2,1.1l-0.1,0
							l-0.1,0l-0.6,0l0-0.4l0.4,0l-0.5-0.5l-1.1,1l1.1,1l0.5-0.5h-0.3V67L40.6,67z M43.1,68l-0.4-0.4v-0.4h-0.5l-0.3-0.3l0.3-0.3
							h0.5v-0.4l0.4-0.4V68L43.1,68z M39.8,66.8l0.2-0.1l0.2-0.1v0.3v0.3L40,67L39.8,66.8L39.8,66.8z"/>
						<path fill="#FFC703" stroke="#000000" stroke-width="2.952200e-02" stroke-miterlimit="2.4142" d="M40.6,54.5h0.5h0.1l0.1,0.1
							l1.2,1.1l0.1,0.1l0,0.1l0,0.4l-0.4,0l0-0.4L42,55.8l-0.4,0.4l0.6,0.5l0.1,0.1l-0.1,0.1L42,57.1l1.1,1v0.5l-1.5-1.4l-0.1-0.1
							l0.1-0.1l0.2-0.2l-0.6-0.5l-0.1-0.1l0.1-0.1l0.5-0.5l-0.5-0.4l-0.8,0.6l-0.1,0.1l-0.1-0.1l-1.3-1.3l-0.1-0.1l0.1-0.1l1.4-1.3
							l0.1-0.1l0.1,0.1l0.7,0.7l0.5-0.4l-0.5-0.5l-0.1-0.1l0.1-0.1l0.5-0.5l-0.2-0.2l-0.1-0.1l0.1-0.1c0,0,1.1-1,1.5-1.3v0.5
							c-0.3,0.3-0.8,0.8-1.1,1l0.2,0.2l0.1,0.1L42.1,52l-0.5,0.5l0.4,0.4l0.1-0.1l0-0.3l0.4,0l0,0.4V53L42.4,53l-1.2,1.1l-0.1,0
							l-0.1,0l-0.6,0l0-0.4l0.4,0l-0.5-0.5l-1.1,1l1.1,1l0.5-0.5h-0.3V54.5L40.6,54.5z M43.1,55.5l-0.4-0.4v-0.4h-0.5l-0.3-0.3
							l0.3-0.3h0.5v-0.4l0.4-0.4V55.5L43.1,55.5z M39.8,54.3l0.2-0.1l0.2-0.1v0.3v0.3L40,54.5L39.8,54.3L39.8,54.3z"/>
						<path fill="#FFC703" stroke="#000000" stroke-width="2.952200e-02" stroke-miterlimit="2.4142" d="M40.6,41.9h0.5h0.1l0.1,0.1
							l1.2,1.1l0.1,0.1l0,0.1l0,0.4l-0.4,0l0-0.4L42,43.2l-0.4,0.4l0.6,0.5l0.1,0.1l-0.1,0.1L42,44.6l1.1,1v0.5l-1.5-1.4l-0.1-0.1
							l0.1-0.1l0.2-0.2l-0.6-0.5l-0.1-0.1l0.1-0.1l0.5-0.5l-0.5-0.4l-0.8,0.6l-0.1,0.1l-0.1-0.1l-1.3-1.3l-0.1-0.1l0.1-0.1l1.4-1.3
							l0.1-0.1l0.1,0.1l0.7,0.7l0.5-0.4L41.2,40l-0.1-0.1l0.1-0.1l0.5-0.5l-0.2-0.2l-0.1-0.1l0.1-0.1c0,0,1.1-1,1.5-1.3V38
							c-0.3,0.3-0.8,0.8-1.1,1l0.2,0.2l0.1,0.1l-0.1,0.1l-0.5,0.5l0.4,0.4l0.1-0.1l0-0.3l0.4,0l0,0.4v0.1l-0.1,0.1l-1.2,1.1l-0.1,0
							l-0.1,0l-0.6,0l0-0.4l0.4,0l-0.5-0.5l-1.1,1l1.1,1l0.5-0.5h-0.3V41.9L40.6,41.9z M43.1,42.9l-0.4-0.4v-0.4h-0.5l-0.3-0.3
							l0.3-0.3h0.5v-0.4l0.4-0.4V42.9L43.1,42.9z M39.8,41.7l0.2-0.1l0.2-0.1v0.3V42L40,41.9L39.8,41.7L39.8,41.7z"/>
						<path fill="#FFC703" stroke="#000000" stroke-width="2.952200e-02" stroke-miterlimit="2.4142" d="M40.6,29.9h0.5h0.1l0.1,0.1
							l1.2,1.1l0.1,0.1l0,0.1l0,0.4l-0.4,0l0-0.4L42,31.2l-0.4,0.4l0.6,0.5l0.1,0.1l-0.1,0.1L42,32.5l1.1,1V34l-1.5-1.4l-0.1-0.1
							l0.1-0.1l0.2-0.2l-0.6-0.5l-0.1-0.1l0.1-0.1l0.5-0.5l-0.5-0.4l-0.8,0.6l-0.1,0.1l-0.1-0.1l-1.3-1.3l-0.1-0.1h0.5l1.1,1
							l0.5-0.5h-0.3V29.9L40.6,29.9z M43.1,30.8l-0.4-0.4V30h-0.5l-0.3-0.3h1.2V30.8L43.1,30.8z M40.1,29.7V30L40,29.8l-0.2-0.1
							H40.1L40.1,29.7z"/>
					</g>
					<g>
						<path fill="#FFC703" stroke="#000000" stroke-width="2.952200e-02" stroke-miterlimit="2.4142" d="M27.6,79.6h-0.5H27
							l-0.1,0.1l-1.2,1.1l-0.1,0.1v0.1l0,0.4l0.4,0l0-0.4l0.1-0.1l0.4,0.4L26,81.7l-0.1,0.1L26,82l0.2,0.2l-1.1,1v0.5l1.5-1.4
							l0.1-0.1l-0.1-0.1l-0.2-0.2l0.6-0.5l0.1-0.1l-0.1-0.1l-0.5-0.5l0.5-0.4l0.8,0.6l0.1,0.1l0.1-0.1l1.3-1.3l0.1-0.1l-0.1-0.1
							L27.9,78l-0.1-0.1L27.6,78l-0.7,0.7l-0.5-0.4l0.5-0.5l0.1-0.1l-0.1-0.1l-0.5-0.5l0.2-0.2l0.1-0.1l-0.1-0.1c0,0-1.1-1-1.5-1.3
							v0.5c0.4,0.3,0.8,0.8,1.1,1L26,76.8l-0.1,0.1L26,77l0.5,0.5l-0.4,0.4L26,77.8l0-0.3l-0.4,0l0,0.4V78l0.1,0.1l1.2,1.1l0.1,0
							l0.1,0l0.6,0l0-0.4l-0.4,0l0.5-0.5l1.1,1l-1.1,1l-0.5-0.5h0.3V79.6L27.6,79.6z M25.1,80.5l0.4-0.4v-0.4h0.5l0.3-0.3l-0.3-0.3
							h-0.5v-0.4l-0.4-0.4V80.5L25.1,80.5z M28.3,79.4l-0.2-0.1L28,79.1v0.3v0.3l0.2-0.1L28.3,79.4L28.3,79.4z"/>
						<path fill="#FFC703" stroke="#000000" stroke-width="2.952200e-02" stroke-miterlimit="2.4142" d="M27.6,67h-0.5H27l-0.1,0.1
							l-1.2,1.1l-0.1,0.1v0.1l0,0.4l0.4,0l0-0.4l0.1-0.1l0.4,0.4L26,69.2l-0.1,0.1l0.1,0.1l0.2,0.2l-1.1,1v0.5l1.5-1.4l0.1-0.1
							l-0.1-0.1l-0.2-0.2l0.6-0.5l0.1-0.1l-0.1-0.1l-0.5-0.5l0.5-0.4l0.8,0.6l0.1,0.1l0.1-0.1l1.3-1.3l0.1-0.1l-0.1-0.1l-1.4-1.3
							l-0.1-0.1l-0.1,0.1l-0.7,0.7l-0.5-0.4l0.5-0.5L27,65l-0.1-0.1l-0.5-0.5l0.2-0.2l0.1-0.1l-0.1-0.1c0,0-1.1-1-1.5-1.3v0.5
							c0.4,0.3,0.8,0.8,1.1,1L26,64.3l-0.1,0.1l0.1,0.1l0.5,0.5l-0.4,0.4L26,65.3l0-0.3l-0.4,0l0,0.4v0.1l0.1,0.1l1.2,1.1l0.1,0
							l0.1,0l0.6,0l0-0.4l-0.4,0l0.5-0.5l1.1,1l-1.1,1l-0.5-0.5h0.3V67L27.6,67z M25.1,68l0.4-0.4v-0.4h0.5l0.3-0.3l-0.3-0.3h-0.5
							v-0.4l-0.4-0.4V68L25.1,68z M28.3,66.8l-0.2-0.1L28,66.6v0.3v0.3l0.2-0.1L28.3,66.8L28.3,66.8z"/>
						<path fill="#FFC703" stroke="#000000" stroke-width="2.952200e-02" stroke-miterlimit="2.4142" d="M27.6,54.5h-0.5H27
							l-0.1,0.1l-1.2,1.1l-0.1,0.1v0.1l0,0.4l0.4,0l0-0.4l0.1-0.1l0.4,0.4L26,56.7l-0.1,0.1l0.1,0.1l0.2,0.2l-1.1,1v0.5l1.5-1.4
							l0.1-0.1L26.5,57l-0.2-0.2l0.6-0.5l0.1-0.1L26.9,56l-0.5-0.5l0.5-0.4l0.8,0.6l0.1,0.1l0.1-0.1l1.3-1.3l0.1-0.1l-0.1-0.1
							l-1.4-1.3l-0.1-0.1l-0.1,0.1l-0.7,0.7l-0.5-0.4l0.5-0.5l0.1-0.1l-0.1-0.1l-0.5-0.5l0.2-0.2l0.1-0.1l-0.1-0.1
							c0,0-1.1-1-1.5-1.3v0.5c0.4,0.3,0.8,0.8,1.1,1L26,51.7l-0.1,0.1L26,52l0.5,0.5l-0.4,0.4L26,52.8l0-0.3l-0.4,0l0,0.4V53
							l0.1,0.1l1.2,1.1l0.1,0l0.1,0l0.6,0l0-0.4l-0.4,0l0.5-0.5l1.1,1l-1.1,1l-0.5-0.5h0.3V54.5L27.6,54.5z M25.1,55.5l0.4-0.4v-0.4
							h0.5l0.3-0.3L25.9,54h-0.5v-0.4l-0.4-0.4V55.5L25.1,55.5z M28.3,54.3l-0.2-0.1L28,54v0.3v0.3l0.2-0.1L28.3,54.3L28.3,54.3z"/>
						<path fill="#FFC703" stroke="#000000" stroke-width="2.952200e-02" stroke-miterlimit="2.4142" d="M27.6,41.9h-0.5H27L26.9,42
							l-1.2,1.1l-0.1,0.1v0.1l0,0.4l0.4,0l0-0.4l0.1-0.1l0.4,0.4L26,44.1l-0.1,0.1l0.1,0.1l0.2,0.2l-1.1,1v0.5l1.5-1.4l0.1-0.1
							l-0.1-0.1l-0.2-0.2l0.6-0.5l0.1-0.1l-0.1-0.1L26.4,43l0.5-0.4l0.8,0.6l0.1,0.1l0.1-0.1l1.3-1.3l0.1-0.1l-0.1-0.1l-1.4-1.3
							l-0.1-0.1l-0.1,0.1L26.9,41l-0.5-0.4l0.5-0.5l0.1-0.1l-0.1-0.1l-0.5-0.5l0.2-0.2l0.1-0.1l-0.1-0.1c0,0-1.1-1-1.5-1.3V38
							c0.4,0.3,0.8,0.8,1.1,1L26,39.2l-0.1,0.1l0.1,0.1l0.5,0.5l-0.4,0.4L26,40.2l0-0.3l-0.4,0l0,0.4v0.1l0.1,0.1l1.2,1.1l0.1,0
							l0.1,0l0.6,0l0-0.4l-0.4,0l0.5-0.5l1.1,1l-1.1,1l-0.5-0.5h0.3V41.9L27.6,41.9z M25.1,42.9l0.4-0.4v-0.4h0.5l0.3-0.3l-0.3-0.3
							h-0.5v-0.4l-0.4-0.4V42.9L25.1,42.9z M28.3,41.7l-0.2-0.1L28,41.5v0.3V42l0.2-0.1L28.3,41.7L28.3,41.7z"/>
						<path fill="#FFC703" stroke="#000000" stroke-width="2.952200e-02" stroke-miterlimit="2.4142" d="M27.6,29.9h-0.5H27
							l-0.1,0.1L25.8,31l-0.1,0.1v0.1l0,0.4l0.4,0l0-0.4l0.1-0.1l0.4,0.4L26,32l-0.1,0.1l0.1,0.1l0.2,0.2l-1.1,1V34l1.5-1.4l0.1-0.1
							l-0.1-0.1l-0.2-0.2l0.6-0.5l0.1-0.1l-0.1-0.1l-0.5-0.5l0.5-0.4l0.8,0.6l0.1,0.1l0.1-0.1l1.3-1.3l0.1-0.1h-0.5l-1.1,1l-0.5-0.5
							h0.3V29.9L27.6,29.9z M25.1,30.8l0.4-0.4V30h0.5l0.3-0.3h-1.2V30.8L25.1,30.8z M28,29.7V30l0.2-0.1l0.2-0.1H28L28,29.7z"/>
					</g>
				</g>
				<path fill-rule="evenodd" clip-rule="evenodd" fill="#FFC703" d="M34.1,94.6c0.3,0,1.3,0.6,1.7,1.1l0.4-0.3c0,0-0.9-0.7-1.6-0.9
					c0,0,0.3-0.1,1.3,0.3c1,0.4,2.3,0.3,3.1,0c-0.8,0-0.9,0-2-0.3c-1.2-0.2-2.3-0.2-2.8,0c-0.6-0.2-1.7-0.2-2.8,0
					c-1.2,0.2-1.2,0.3-2,0.3c0.8,0.3,2,0.4,3.1,0c1-0.4,1.3-0.3,1.3-0.3c-0.7,0.2-1.6,0.9-1.6,0.9l0.4,0.3
					C32.7,95.1,33.8,94.6,34.1,94.6L34.1,94.6z M26.8,87.6c0,0.2,0.4,0.5,0.4,1c0,0.5-0.1,0.7-0.2,1c0,0-0.4-0.5-0.5-1
					C26.5,88.1,26.6,87.9,26.8,87.6L26.8,87.6z M27.8,89.3c0.1,0.3,0,0.7-0.2,0.9c-0.2,0.3-0.2,0.6-0.3,0.7c0,0-0.4-0.1-0.8-0.7
					c-0.5-0.5-0.4-1.1-0.4-1.1s0.3,0.2,0.6,0.5c0.3,0.3,0.2,0.5,0.4,0.7c0,0,0-0.3,0.2-0.5C27.5,89.8,27.7,89.7,27.8,89.3L27.8,89.3
					z M28,90.5c0.3,0.3,0.2,0.7,0.1,1c-0.1,0.3-0.2,0.7-0.2,0.8c0,0-0.5-0.4-0.9-0.5c-0.4-0.1-0.7-0.6-0.7-1c0,0,0.5,0.3,1.3,1
					c0,0,0-0.3,0.1-0.6C27.9,91,28,90.8,28,90.5L28,90.5z M29.4,93.6c0-0.3-0.1-0.7-0.3-1c-0.2-0.3-0.3-0.6-0.3-0.7
					c0,0-0.3,0.3-0.1,0.7c0.1,0.4,0.4,0.7,0.4,0.7s-0.5-0.3-1-0.6s-1.2-0.6-1.2-0.6s0.3,0.9,1,1.1C28.5,93.4,28.4,93.3,29.4,93.6
					L29.4,93.6z M29.5,92.8c0.6,0,0.9,0.6,1,0.9c0.2,0.3,0.5,0.6,0.5,0.6s-1.2,0.1-1.8,0c-0.6-0.1-1.1-0.5-1.1-0.5s1-0.2,1.4,0
					C30,94,30.5,94,30.5,94s-0.4-0.3-0.5-0.5C29.8,93.3,29.8,93.1,29.5,92.8L29.5,92.8z M41.4,87.6c0,0.2-0.4,0.5-0.4,1
					c0,0.5,0.1,0.7,0.2,1c0,0,0.4-0.5,0.5-1C41.7,88.1,41.5,87.9,41.4,87.6L41.4,87.6z M40.3,89.3c-0.1,0.3,0,0.7,0.2,0.9
					c0.2,0.3,0.2,0.6,0.3,0.7c0,0,0.4-0.1,0.8-0.7c0.5-0.5,0.4-1.1,0.4-1.1s-0.3,0.2-0.6,0.5c-0.3,0.3-0.2,0.5-0.4,0.7
					c0,0,0-0.3-0.2-0.5C40.6,89.8,40.5,89.7,40.3,89.3L40.3,89.3z M40.1,90.5c-0.3,0.3-0.2,0.7-0.1,1c0.1,0.3,0.2,0.7,0.2,0.8
					c0,0,0.5-0.4,0.9-0.5c0.4-0.1,0.7-0.6,0.7-1c0,0-0.5,0.3-1.3,1c0,0,0-0.3-0.1-0.6C40.2,91,40.2,90.8,40.1,90.5L40.1,90.5z
					 M38.7,93.6c0-0.3,0.1-0.7,0.3-1c0.2-0.3,0.3-0.6,0.4-0.7c0,0,0.3,0.3,0.1,0.7c-0.1,0.4-0.4,0.7-0.4,0.7s0.5-0.3,1-0.6
					c0.4-0.2,1.2-0.6,1.2-0.6s-0.3,0.9-1,1.1C39.7,93.4,39.7,93.3,38.7,93.6L38.7,93.6z M38.6,92.8c-0.6,0-0.9,0.6-1,0.9
					C37.4,94,37,94.3,37,94.3s1.2,0.1,1.8,0c0.6-0.1,1.1-0.5,1.1-0.5s-1-0.2-1.4,0C38.1,94,37.7,94,37.7,94s0.4-0.3,0.5-0.5
					C38.3,93.3,38.3,93.1,38.6,92.8L38.6,92.8z"/>
			</g>
			<path fill-rule="evenodd" clip-rule="evenodd" fill="#FFFFFF" d="M62.8,37.2c2.9,1.3,4.9,4.2,4.9,7.6c0,4.6-3.7,8.3-8.3,8.3
				c-2.1,0-4.1-0.8-5.5-2.1c1,0.5,2.2,0.7,3.4,0.7c4.6,0,8.3-3.7,8.3-8.3C65.6,40.9,64.5,38.7,62.8,37.2L62.8,37.2z M59,41l0.3-1.1
				h1.1l-0.9-0.7l0.4-1.1L59,38.9l-0.9-0.7l0.4,1.1l-0.9,0.7h1.1L59,41L59,41z M50.6,45.1l0.3-1.1l1.1,0l-0.9-0.7l0.4-1.1L50.6,43
				l-0.9-0.7l0.3,1.1l-0.9,0.7l1.1,0L50.6,45.1L50.6,45.1z M54.8,47.3l0.3-1.1l1.1,0l-0.9-0.7l0.4-1.1l-0.9,0.7l-0.9-0.7l0.3,1.1
				l-0.9,0.7l1.1,0L54.8,47.3L54.8,47.3z M54.8,38.9l0.3-1.1h1.1l-0.9-0.7l0.4-1.1l-0.9,0.7l-0.9-0.7l0.3,1.1l-0.9,0.7h1.1
				L54.8,38.9L54.8,38.9z M54.8,43.1l0.3-1.1l1.1,0l-0.9-0.7l0.4-1.1l-0.9,0.7l-0.9-0.7l0.3,1.1L53.3,42l1.1,0L54.8,43.1L54.8,43.1z
				"/>
		</g>
	</g>
	<path opacity="0.2" fill="#FFFFFF" d="M13,29.7v25.5C26.2,62.6,43.7,67,63,67c19.3,0,36.8-4.5,50-11.8V29.7H13z"/>
</g>
</svg>
