<?xml version="1.0" encoding="utf-8"?>
<!-- Generator: Adobe Illustrator 24.3.0, SVG Export Plug-In . SVG Version: 6.00 Build 0)  -->
<svg version="1.1" id="Layer_1" xmlns="http://www.w3.org/2000/svg" xmlns:xlink="http://www.w3.org/1999/xlink" x="0px" y="0px"
	 viewBox="0 0 126 126" enable-background="new 0 0 126 126" xml:space="preserve">
<g>
	<g>
		<polygon fill="#FF1612" points="13,29.7 113,29.7 113,96.3 13,96.3 13,29.7 		"/>
		<path fill-rule="evenodd" clip-rule="evenodd" fill="#FFFFFF" d="M46.1,45.5c6.1,0,11.4,3.1,14.5,7.8c-2.6-2.6-6.1-4.2-10.1-4.2
			c-7.8,0-14.1,6.2-14.1,13.9c0,7.7,6.3,13.9,14.1,13.9c3.9,0,7.5-1.6,10.1-4.2c-3.1,4.7-8.5,7.8-14.5,7.8
			c-9.6,0-17.5-7.8-17.5-17.5C28.6,53.4,36.4,45.5,46.1,45.5L46.1,45.5z M67,54.7l3.6,5.1l5.9-1.9l-3.7,5l3.6,5.1l-5.9-2l-3.7,5
			l0.1-6.2l-5.9-2l5.9-1.9L67,54.7L67,54.7z"/>
	</g>
	<path opacity="0.35" fill="#FFFFFF" d="M13,29.7v25.5C26.2,62.6,43.7,67,63,67s36.8-4.5,50-11.8V29.7H13z"/>
</g>
</svg>
