<?xml version="1.0" encoding="utf-8"?>
<!-- Generator: Adobe Illustrator 24.3.0, SVG Export Plug-In . SVG Version: 6.00 Build 0)  -->
<svg version="1.1" id="Layer_1" xmlns="http://www.w3.org/2000/svg" xmlns:xlink="http://www.w3.org/1999/xlink" x="0px" y="0px"
	 viewBox="0 0 126 126" enable-background="new 0 0 126 126" xml:space="preserve">
<g>
	<g>
		<polygon fill="#F0F0F0" points="13,29.7 113,29.7 113,96.3 13,96.3 13,29.7 		"/>
		<path fill="#FF1612" d="M113,36.3V43H13v-6.6H113L113,36.3z M113,83v6.6H13V83H113L113,83z M46.4,46.3c5.8,0,10.9,2.9,13.9,7.4
			c-2.4-2.5-5.9-4-9.6-4c-7.4,0-13.5,6-13.5,13.3c0,7.3,6,13.3,13.5,13.3c3.8,0,7.2-1.5,9.6-4c-3,4.5-8.1,7.4-13.9,7.4
			c-9.2,0-16.7-7.5-16.7-16.7C29.7,53.8,37.2,46.3,46.4,46.3L46.4,46.3z M66.4,55l3.5,4.9l5.7-1.8L72,62.9l3.5,4.8l-5.6-1.9
			l-3.5,4.8l0.1-6l-5.7-1.9l5.7-1.8L66.4,55L66.4,55z"/>
	</g>
	<path opacity="0.35" fill="#FFFFFF" d="M13,29.7v25.5C26.2,62.6,43.7,67,63,67c19.3,0,36.8-4.5,50-11.8V29.7H13z"/>
</g>
</svg>
