<?xml version="1.0" encoding="utf-8"?>
<!-- Generator: Adobe Illustrator 24.3.0, SVG Export Plug-In . SVG Version: 6.00 Build 0)  -->
<svg version="1.1" id="Layer_1" xmlns="http://www.w3.org/2000/svg" xmlns:xlink="http://www.w3.org/1999/xlink" x="0px" y="0px"
	 viewBox="0 0 126 126" enable-background="new 0 0 126 126" xml:space="preserve">
<g>
	<g>
		<polygon fill-rule="evenodd" clip-rule="evenodd" fill="#58A9EE" points="13,29.7 63,29.7 113,29.7 113,96.3 63,96.3 13,96.3 
			13,29.7 		"/>
		<rect x="13" y="29.7" fill-rule="evenodd" clip-rule="evenodd" fill="#0437A0" width="50" height="33.3"/>
		<polygon fill="#FBF9F9" points="63,58.9 44.2,46.3 63,33.8 63,29.7 56.8,29.7 38,42.2 19.2,29.7 13,29.7 13,33.8 31.8,46.3 
			13,58.9 13,63 19.2,63 38,50.5 56.8,63 63,63 63,58.9 		"/>
		<polygon fill="#F90805" points="63,61.5 40.3,46.3 63,31.2 63,29.7 60.7,29.7 38,44.8 15.3,29.7 13,29.7 13,31.2 35.7,46.3 
			13,61.5 13,63 15.3,63 38,47.9 60.7,63 63,63 63,61.5 		"/>
		<polygon fill-rule="evenodd" clip-rule="evenodd" fill="#FBF9F9" points="33.9,29.7 38,29.7 42.1,29.7 42.1,40.8 63,40.8 63,51.8 
			42.1,51.8 42.1,63 38,63 33.9,63 33.9,51.8 13,51.8 13,40.8 33.9,40.8 33.9,29.7 		"/>
		<polygon fill-rule="evenodd" clip-rule="evenodd" fill="#F90805" points="40.6,29.7 40.6,42.9 63,42.9 63,49.8 40.6,49.8 40.6,63 
			38,63 35.4,63 35.4,49.8 13,49.8 13,42.9 35.4,42.9 35.4,29.7 38,29.7 40.6,29.7 		"/>
		<path fill-rule="evenodd" clip-rule="evenodd" fill="#FFF200" d="M88.6,50l3,2.1l2.9-2.2l-1.1,3.5l3,2.1l-3.7,0.1l-1.1,3.5
			l-1.2-3.5l-3.7,0.1l2.9-2.2L88.6,50L88.6,50z M101.4,40.6l1.1,3.5l3.7,0l-3,2.2l1.1,3.5l-3-2.2l-3,2.2l1.1-3.5l-3-2.2l3.7,0
			L101.4,40.6L101.4,40.6z M59.6,81.7l1.1,3.5l3.7,0l-3,2.2l1.1,3.5l-3-2.2l-3,2.2l1.1-3.5l-3-2.2l3.7,0L59.6,81.7L59.6,81.7z
			 M67.9,79.7l3,2.1l2.9-2.2l-1.1,3.5l3,2.1l-3.7,0.1l-1.1,3.5l-1.2-3.5l-3.7,0.1l2.9-2.2L67.9,79.7L67.9,79.7z M79.3,77l3,2.1
			l2.9-2.2l-1.1,3.5l3,2.1l-3.7,0.1l-1.1,3.5l-1.2-3.5l-3.7,0.1l2.9-2.2L79.3,77L79.3,77z M67.9,68.9l3,2.1l2.9-2.2l-1.1,3.5l3,2.1
			l-3.7,0.1L71,78l-1.2-3.5l-3.7,0.1l2.9-2.2L67.9,68.9L67.9,68.9z M101.4,61.8l1.1,3.5l3.7,0l-3,2.2l1.1,3.5l-3-2.2l-3,2.2l1.1-3.5
			l-3-2.2l3.7,0L101.4,61.8L101.4,61.8z M91.8,68.2l1.1,3.5l3.7,0l-3,2.2l1.1,3.5l-3-2.2l-3,2.2l1.1-3.5l-3-2.2l3.7,0L91.8,68.2
			L91.8,68.2z M79.3,53.2l3,2.1l2.9-2.2l-1.1,3.5l3,2.1l-3.7,0.1l-1.1,3.5l-1.2-3.5l-3.7,0.1l2.9-2.2L79.3,53.2L79.3,53.2z"/>
	</g>
	<path opacity="0.25" fill="#FFFFFF" d="M13,29.7v25.5C26.2,62.6,43.7,67,63,67s36.8-4.5,50-11.8V29.7H13z"/>
</g>
</svg>
