<?xml version="1.0" encoding="utf-8"?>
<!-- Generator: Adobe Illustrator 24.3.0, SVG Export Plug-In . SVG Version: 6.00 Build 0)  -->
<svg version="1.1" id="Layer_1" xmlns="http://www.w3.org/2000/svg" xmlns:xlink="http://www.w3.org/1999/xlink" x="0px" y="0px"
	 viewBox="0 0 126 126" enable-background="new 0 0 126 126" xml:space="preserve">
<g>
	<g>
		<path d="M13,63h100v11.1H13V63L13,63z M13,29.7h100v11.1H13V29.7L13,29.7z"/>
		<path fill="#F90805" d="M13,85.2h100v11.1H13V85.2L13,85.2z M13,51.9h100V63H13V51.9L13,51.9z"/>
		<path fill="#FEDC36" d="M13,74.1h100v11.1H13V74.1L13,74.1z M13,40.8h100v11.1H13V40.8L13,40.8z"/>
		<g>
			<path fill-rule="evenodd" clip-rule="evenodd" fill="#FFFFFF" d="M63,52.6c5.8,0,10.4,4.7,10.4,10.4c0,5.8-4.7,10.4-10.4,10.4
				c-5.8,0-10.4-4.7-10.4-10.4C52.6,57.3,57.2,52.6,63,52.6z"/>
			<g>
				<path fill-rule="evenodd" clip-rule="evenodd" d="M59.4,57c0-0.2,0.3-0.3,0.6-0.4c0.3-0.1,0.9-0.3,0.9-0.3s-0.3-0.7,0.2-1.2
					l-0.7-1.3c0,0,0.4-0.5,1.5-0.5c1.1,0,1.7,0.4,2.2,0.8c0.4,0.5,0.6,0.8,0.7,1.4l-1.1,0.2c0,0,0.1,0.7-0.3,1.2
					c-0.4,0.5-0.7,0.7-0.9,1.2c-0.1,0.5-0.3,1.4-0.1,2.4c0,0,0.2-0.1,0.6,0.2c0.5,0.2,1.6,0.8,1.9,0.9c0.3,0.1,1.3,0.6,1.6,0.7
					c0.3,0.1,0.3,0.1,0.5,0.3c0,0,1,0.3,1.6,0.9c0.7,0.6,1.1,1.3,1,2.4c-0.1,1.1-0.7,2-1,2.4c-0.3,0.4-1.3,1.2-1.5,1
					c0,0-0.1-0.1,0.4-0.6c0,0-0.2,0.1-0.3,0.1c-0.1,0-0.2,0-0.2,0c0,0,0-0.2,0.1-0.3c0,0-0.4,0.2-0.6,0.2c-0.1,0-0.2,0-0.2,0
					c0-0.1,0.1-0.1,0.1-0.2c0.1,0,0.1-0.1,0.1-0.1s-0.2-0.1-0.3-0.2c0,0,1.3-0.5,1.1-2c0,0,0,0.6-0.6,0.9c0,0,0.1-0.5,0.1-0.7
					c0,0-0.1,0.1-0.1,0c-0.1-0.1-0.2-0.4-0.3-0.5c-0.1,0-0.7-0.2-1.1-0.2c-0.4-0.1-0.7-0.1-0.6,0.3c0.1,0.3,0.2,0.7,0.4,0.9
					c0.1,0.2,0.5,0.6,0.3,0.9c-0.2,0.3-0.3,0.3-0.6,0.3c-0.3-0.1-0.7,0-0.9-0.1c-0.2,0-0.4,0-0.4,0.4c0,0.4,0,1.1,0.1,1.5
					c0,0.4,0.1,1.1,0.1,1.1s1.2-0.1,1.7,0.7c0,0-2.5-0.4-3.9,1.2c0,0-0.4-0.4,0.4-1.2c0,0-0.5-0.1-1.4-0.1c0,0,0.2-0.8,2.5-0.6
					c0,0,0-1-0.1-1.6c-0.1-0.6-0.2-1.3-0.2-1.3s-0.7,0-1,0c-0.4,0-0.9-0.2-1.1,0.1c-0.2,0.2-0.4,0.7-0.5,0.9c-0.1,0.1-0.2,0.2-0.3,0
					c-0.1-0.2-0.1-0.7-0.1-0.7s-0.2,0.2-0.2,1.1c0,0-0.3-0.1-0.3-0.8c0,0-0.4,0.7-0.4,0.9c0,0-0.1-0.7,0-1.2
					c0.1-0.5,0.4-0.8,0.7-0.9c0.3-0.1,0.8-0.2,1.2-0.2c0.3,0,2,0,2.2,0.1c0,0,0.1-0.8,0-1.7c0,0-0.6-0.6-0.8-0.8c0,0-1-0.2-1.8-1.3
					l-0.1,0.1c0,0-1-0.9-1-2.2c0-1.3,0.7-2.4,1-2.7c0.3-0.3,0.7-0.9,0.8-1c0,0-0.4-0.2-0.3-0.6c0.1-0.4,0.3-0.5,0.3-0.5
					S59.8,57.1,59.4,57c0.1,0.1,0.5,0,0.9-0.1c0.4-0.1,0.7-0.1,0.7-0.1s0-0.1,0-0.1c0,0-0.2,0-0.7,0.1C59.8,56.8,59.5,56.9,59.4,57
					C59.4,56.9,59.4,56.9,59.4,57L59.4,57z"/>
				<path fill-rule="evenodd" clip-rule="evenodd" fill="#FFD80F" d="M62,53.4l-0.1,1.2c0,0,0.9-0.1,1.5,0.5l0.6-0.9
					C64,54.1,63.3,53.3,62,53.4L62,53.4z"/>
				<path fill-rule="evenodd" clip-rule="evenodd" fill="#FF1612" d="M61.1,57c0.2,0.2,0.5,0.3,0.5,0.5c0,0.2-0.1,0.3-0.3,0.4
					c-0.3,0.1-0.5,0.1-0.5-0.2S61.1,57,61.1,57L61.1,57z M65,63.9c0,0,0.3,0,0.7,0.1c0,0-0.1-0.3-0.3-0.4c0,0,0.8,0.1,1.1,0.2
					c0,0-0.2-0.5-0.5-0.7c0,0,1,0.4,1.4,0.7c0,0,0-0.2-1.1-1.2c0,0,0.8,0.2,1.3,0.5c0.5,0.3,1.1,0.7,1.6,1.4
					c0.4,0.7,0.4,1.6,0.3,2.2c-0.2,0.5-0.4,1.2-1,1.8c-0.6,0.6-0.8,0.7-1,0.8c-0.1,0.1-0.2,0.1-0.1-0.1c0.1-0.1,0.4-0.5,0.5-0.6
					c0.1-0.1,0.1-0.1,0.1-0.1L68,68.3c0,0-0.3,0.3-0.5,0.4c-0.2,0.1-0.2,0.1-0.2,0c0.1-0.1,0.3-0.3,0.3-0.3l-0.1-0.1
					c0,0-0.4,0.2-0.6,0.3s-0.3,0.1-0.2,0c0.1-0.1,0.2-0.1,0.2-0.2c0-0.1-0.2-0.1-0.2-0.1c0,0,0,0,0-0.1c0.1,0,0.4-0.3,0.6-0.5
					c0.2-0.3,0.4-0.8,0.4-1.2c0-0.4-0.1-0.9-0.1-0.9l-0.1,0c0,0,0.2,0.7-0.4,1.3c0,0,0.1-0.4,0-0.8c-0.1-0.4-0.5-0.9-0.8-1.2
					C66,64.6,65.6,64.3,65,63.9L65,63.9z M63.5,55.2l0.6-0.9c0,0,0.5,0.5,0.7,1.2l-1,0.2C63.7,55.7,63.7,55.4,63.5,55.2L63.5,55.2z
					 M61.2,54.9l-0.6-1.1c0,0,0.3-0.4,1.3-0.4l-0.1,1.3C61.8,54.6,61.6,54.7,61.2,54.9L61.2,54.9z"/>
				<path fill-rule="evenodd" clip-rule="evenodd" fill="#9CA69C" d="M62.7,55.2c0.3,0.2,0.6,0.4,0.5,1c-0.1,0.6-0.6,0.9-0.9,0.9
					c-0.3,0-0.4-0.3-0.3-0.4C62.3,56.3,62.9,56.7,62.7,55.2L62.7,55.2z M66.3,62.6L66,62.3l0.7,0.2c0,0-0.7-0.3-1-0.4
					c-0.3-0.1-1.2-0.6-1.7-0.8c-0.4-0.2-1.3-0.7-1.5-0.6c-0.2,0.1-0.4,0.4-0.3,0.8c0,0.3,0,1.1,0.5,1.7c0.5,0.6,0.9,0.7,1.6,0.8
					c0.6,0.2,1.2,0.5,1.7,1c0.5,0.5,0.9,1,1,1.3l0-0.2c0,0-0.2-0.4-0.6-0.9c-0.5-0.5-1.2-1-1.3-1.1c-0.1-0.1-0.1-0.2-0.1-0.2
					c0,0-0.7-0.7-0.9-0.7c-0.2-0.1-0.7-0.3-0.9-0.5c-0.2-0.2-0.2-0.6-0.1-0.8c0.2-0.2,0.7-0.1,0.8-0.1c0.1,0.1,0.8,0.4,1.1,0.5
					S66,62.5,66.3,62.6L66.3,62.6z M62.5,63.5c0,0.2-0.1,0.5-0.1,0.8c0,0.3,0.1,0.6,0.1,0.6s0.7-0.3,1.1-0.1l0.1-0.1
					C63.7,64.7,63.1,64.3,62.5,63.5L62.5,63.5z M61.8,61.1c0,0-0.5-0.7-0.3-1.5c0.1-0.9,0.6-1.9,0.6-1.9s-0.1-0.1-0.1,0
					c-0.1,0.1-1.1,1.3-1.5,2.6c-0.3,1.2-0.2,1.7,0.1,2.4c0,0,0.1-0.1,0.1-0.5c0,0,0.2,0.2,0.3,0.1c0.1-0.1-0.1-0.4-0.1-0.4l0.3,0.1
					L61,61.5l0.5,0.1l-0.1-0.5L61.8,61.1L61.8,61.1z"/>
				<path fill-rule="evenodd" clip-rule="evenodd" fill="#FFFFFF" d="M64.9,63.8c0,0,0.5,0,0.6,0c0,0-0.3-0.3-0.5-0.4l0-0.1
					c0,0,0.9,0.2,1.2,0.3c0,0-0.2-0.4-0.6-0.7c0,0,0.1,0,0.3,0.1c0.2,0.1,1.2,0.5,1.2,0.5l-0.6-0.7c0,0-0.7-0.2-1.1-0.3
					c-0.4-0.1-0.9-0.4-1.1-0.5c-0.2-0.1-0.7-0.4-1-0.3c-0.3,0.1-0.4,0.2-0.3,0.5c0.1,0.3,0.3,0.4,0.5,0.5c0.2,0.1,0.5,0.2,0.7,0.4
					C64.4,63.3,64.8,63.6,64.9,63.8L64.9,63.8z M61.7,55.9c0.1,0,0.2,0.1,0.2,0.2c0,0.1-0.1,0.2-0.2,0.2c-0.1,0-0.2-0.1-0.2-0.2
					C61.5,56,61.6,55.9,61.7,55.9L61.7,55.9z"/>
			</g>
		</g>
	</g>
	<path opacity="0.35" fill="#FFFFFF" d="M13,29.7v25.5C26.2,62.6,43.7,67,63,67c19.3,0,36.8-4.5,50-11.8V29.7H13z"/>
</g>
</svg>
