<?xml version="1.0" encoding="utf-8"?>
<!-- Generator: Adobe Illustrator 24.3.0, SVG Export Plug-In . SVG Version: 6.00 Build 0)  -->
<svg version="1.1" id="Layer_1" xmlns="http://www.w3.org/2000/svg" xmlns:xlink="http://www.w3.org/1999/xlink" x="0px" y="0px"
	 viewBox="0 0 126 126" enable-background="new 0 0 126 126" xml:space="preserve">
<g>
	<g>
		<path fill-rule="evenodd" clip-rule="evenodd" fill="#0437A0" d="M25.4,29.7h29.4v19.6L25.4,29.7L25.4,29.7z M71.3,29.7h29.4
			L71.3,49.2V29.7L71.3,29.7z M113,37.9V52H91.9L113,37.9L113,37.9z M113,74v14.1L91.9,74H113L113,74z M100.6,96.3H71.3V76.8
			L100.6,96.3L100.6,96.3z M54.7,96.3H25.4l29.4-19.6V96.3L54.7,96.3z M13,88.1V74h21.1L13,88.1L13,88.1z M13,52V37.9L34.1,52H13
			L13,52z"/>
		<polygon fill="#F4F4F4" points="113,88.1 91.9,74 113,74 113,52 91.9,52 113,37.9 113,29.7 100.6,29.7 71.3,49.2 71.3,29.7 
			63,29.7 54.7,29.7 54.7,49.2 25.4,29.7 13,29.7 13,37.9 34.1,52 13,52 13,74 34.1,74 13,88.1 13,96.3 25.4,96.3 54.7,76.8 
			54.7,96.3 63,96.3 71.3,96.3 71.3,76.8 100.6,96.3 113,96.3 113,88.1 		"/>
		<path fill-rule="evenodd" clip-rule="evenodd" fill="#FF1612" d="M68.2,29.7v26.5H113v13.7H68.2v26.5H63h-5.2V69.9H13V56.1h44.8
			V29.7H63H68.2L68.2,29.7z M113,93.2L84.2,74h-9.3l33.5,22.3h4.6V93.2L113,93.2z M84.2,52L113,32.8v-3.1h-4.6L74.9,52H84.2L84.2,52
			z M51.1,52L17.6,29.7H13v3.1L41.8,52H51.1L51.1,52z M41.8,74L13,93.2v3.1h4.6L51.1,74H41.8L41.8,74z"/>
	</g>
	<path opacity="0.35" fill="#FFFFFF" d="M13,29.7v25.5C26.2,62.6,43.7,67,63,67c19.3,0,36.8-4.5,50-11.8V29.7H13z"/>
</g>
</svg>
