<?xml version="1.0" encoding="utf-8"?>
<!-- Generator: Adobe Illustrator 24.3.0, SVG Export Plug-In . SVG Version: 6.00 Build 0)  -->
<svg version="1.1" id="Layer_1" xmlns="http://www.w3.org/2000/svg" xmlns:xlink="http://www.w3.org/1999/xlink" x="0px" y="0px"
	 viewBox="0 0 126 126" enable-background="new 0 0 126 126" xml:space="preserve">
<g>
	<g>
		<path fill-rule="evenodd" clip-rule="evenodd" fill="#F0F0F0" d="M13,96.3h100v-7.4H13V96.3L13,96.3z M113,81.5v-7.4H13v7.4H113
			L113,81.5z M113,66.7v-7.4H50v-7.4h63v-7.4H50v-7.4h63v-7.4H13v37H113L113,66.7z"/>
		<path fill-rule="evenodd" clip-rule="evenodd" fill="#0456BD" d="M13,88.9h100v-7.4H13V88.9L13,88.9z M50,44.5h63v-7.4H50V44.5
			L50,44.5z M50,59.3h63v-7.4H50V59.3L50,59.3z M13,74.1h100v-7.4H13V74.1L13,74.1z"/>
		<g>
			<g>
				<g>
					<g>
						
							<path fill-rule="evenodd" clip-rule="evenodd" fill="#FCD116" stroke="#000000" stroke-width="0.2091" stroke-miterlimit="2.4142" d="
							M32.4,41.8c0,0,0.6-0.3,1.3-1.5c0.7-1.2,0.7-2,1-2.6c0.2-0.6,0.8-1.3,1.9-1.6c0,0-0.7,0.6-0.9,1.4c-0.2,0.8,0.2,1.1,0.1,2.5
							c-0.1,1.5-1,3.5-1,3.5l-1.3,1.3l-1.4-0.7L32.4,41.8L32.4,41.8z"/>
						<path d="M33,44.5c0,0,0.9-1.6,1.2-2.4c0.1-0.3,0.2-0.8,0.4-1.2c0.2-0.6,0.3-1.3,0.3-1.5c0,0,0-0.1,0-0.1
							c0.1-0.5,0.2-1.5,0.5-2.1c0.3-0.6,1.1-1.1,1.1-1.1l0.1,0.1c0,0-0.8,0.5-1.1,1.1c-0.3,0.5-0.4,1.5-0.5,2c0,0,0,0.1,0,0.1
							c0,0.3-0.2,0.9-0.3,1.5c-0.1,0.4-0.2,0.9-0.4,1.2c-0.3,0.8-1.2,2.4-1.2,2.4L33,44.5L33,44.5z"/>
					</g>
					<g>
						
							<path fill-rule="evenodd" clip-rule="evenodd" fill="#FCD116" stroke="#000000" stroke-width="0.2091" stroke-miterlimit="2.4142" d="
							M30.8,54.5c0,0-0.6,0.3-1.3,1.5c-0.7,1.2-0.7,2-1,2.6c-0.2,0.6-0.8,1.3-1.9,1.6c0,0,0.8-0.6,0.9-1.4c0.2-0.8-0.2-1.1-0.1-2.5
							c0.1-1.5,1-3.5,1-3.5l1.3-1.3l1.4,0.7L30.8,54.5L30.8,54.5z"/>
						<path d="M30.3,51.8c0,0-0.9,1.6-1.2,2.4c-0.1,0.3-0.2,0.8-0.4,1.2c-0.2,0.6-0.3,1.3-0.3,1.5c0,0,0,0.1,0,0.1
							c-0.1,0.5-0.2,1.5-0.5,2.1c-0.3,0.6-1.1,1.1-1.1,1.1l-0.1-0.1c0,0,0.8-0.5,1.1-1.1c0.3-0.5,0.4-1.5,0.5-2c0,0,0-0.1,0-0.1
							c0-0.3,0.2-0.9,0.3-1.5c0.1-0.4,0.2-0.9,0.4-1.2c0.3-0.8,1.2-2.4,1.2-2.4L30.3,51.8L30.3,51.8z"/>
					</g>
				</g>
				<g>
					<g>
						
							<path fill-rule="evenodd" clip-rule="evenodd" fill="#FCD116" stroke="#000000" stroke-width="0.2091" stroke-miterlimit="2.4142" d="
							M27.7,43.1c0,0,0.2-0.7-0.1-2c-0.3-1.3-0.9-2-1.2-2.5c-0.2-0.5-0.3-1.5,0.2-2.4c0,0-0.1,0.9,0.4,1.7c0.5,0.7,0.9,0.6,1.9,1.7
							c1,1.1,1.7,3.2,1.7,3.2l0,1.8L29.2,45L27.7,43.1L27.7,43.1z"/>
						<path d="M30,44.6c0,0-0.5-1.8-0.9-2.6c-0.1-0.3-0.4-0.7-0.6-1.1c-0.3-0.6-0.7-1.1-0.9-1.3c0,0,0-0.1-0.1-0.1
							c-0.3-0.4-0.9-1.2-1.1-1.8c-0.2-0.6,0-1.6,0-1.6l0.2,0c0,0-0.2,0.9,0,1.5c0.2,0.6,0.8,1.4,1.1,1.8c0,0,0.1,0.1,0.1,0.1
							c0.2,0.2,0.5,0.7,0.9,1.3c0.2,0.4,0.5,0.8,0.6,1.1c0.3,0.8,0.9,2.6,0.9,2.6L30,44.6L30,44.6z"/>
					</g>
					<g>
						
							<path fill-rule="evenodd" clip-rule="evenodd" fill="#FCD116" stroke="#000000" stroke-width="0.2091" stroke-miterlimit="2.4142" d="
							M35.6,53.2c0,0-0.2,0.7,0.1,2c0.3,1.3,0.9,2,1.2,2.5c0.2,0.5,0.3,1.5-0.2,2.4c0,0,0.1-0.9-0.4-1.7c-0.5-0.7-0.9-0.6-1.9-1.7
							c-1-1.1-1.7-3.2-1.7-3.2l0-1.8l1.4-0.5L35.6,53.2L35.6,53.2z"/>
						<path d="M33.2,51.7c0,0,0.5,1.8,0.9,2.6c0.1,0.3,0.4,0.7,0.6,1.1c0.3,0.6,0.7,1.1,0.9,1.3c0,0,0,0.1,0.1,0.1
							c0.3,0.4,0.9,1.2,1.1,1.8c0.2,0.6,0,1.6,0,1.6l-0.2,0c0,0,0.2-0.9,0-1.5c-0.2-0.6-0.8-1.4-1.1-1.8c0,0-0.1-0.1-0.1-0.1
							c-0.2-0.2-0.5-0.7-0.9-1.3c-0.2-0.4-0.5-0.8-0.6-1.1c-0.3-0.8-0.9-2.6-0.9-2.6L33.2,51.7L33.2,51.7z"/>
					</g>
				</g>
				<g>
					<g>
						
							<path fill-rule="evenodd" clip-rule="evenodd" fill="#FCD116" stroke="#000000" stroke-width="0.2091" stroke-miterlimit="2.4142" d="
							M25.3,47.4c0,0-0.3-0.6-1.5-1.3c-1.2-0.7-2-0.7-2.6-1c-0.6-0.2-1.3-0.8-1.6-1.9c0,0,0.6,0.8,1.4,0.9c0.8,0.2,1.1-0.2,2.5-0.1
							c1.5,0.1,3.5,1,3.5,1l1.3,1.3l-0.7,1.4L25.3,47.4L25.3,47.4z"/>
						<path d="M28,46.8c0,0-1.6-0.9-2.4-1.2c-0.3-0.1-0.8-0.2-1.2-0.4c-0.6-0.2-1.3-0.3-1.5-0.3c0,0-0.1,0-0.1,0
							c-0.5-0.1-1.5-0.2-2.1-0.5c-0.6-0.3-1.1-1.1-1.1-1.1l0.1-0.1c0,0,0.5,0.8,1.1,1.1c0.5,0.3,1.5,0.4,2,0.5c0,0,0.1,0,0.1,0
							c0.3,0,0.9,0.2,1.5,0.3c0.4,0.1,0.9,0.2,1.2,0.4c0.8,0.3,2.4,1.2,2.4,1.2L28,46.8L28,46.8z"/>
					</g>
					<g>
						
							<path fill-rule="evenodd" clip-rule="evenodd" fill="#FCD116" stroke="#000000" stroke-width="0.2091" stroke-miterlimit="2.4142" d="
							M38,49c0,0,0.3,0.6,1.5,1.3c1.2,0.7,2,0.7,2.6,1c0.6,0.2,1.3,0.8,1.6,1.9c0,0-0.6-0.8-1.4-0.9c-0.8-0.2-1.1,0.2-2.5,0.1
							c-1.5-0.1-3.5-1-3.5-1L34.9,50l0.7-1.4L38,49L38,49z"/>
						<path d="M35.3,49.5c0,0,1.6,0.9,2.4,1.2c0.3,0.1,0.8,0.2,1.2,0.4c0.6,0.2,1.3,0.3,1.5,0.3c0,0,0.1,0,0.1,0
							c0.5,0.1,1.5,0.2,2.1,0.5c0.6,0.3,1.1,1.1,1.1,1.1l-0.1,0.1c0,0-0.5-0.8-1.1-1.1c-0.5-0.3-1.5-0.4-2-0.5c0,0-0.1,0-0.1,0
							c-0.3,0-0.9-0.2-1.5-0.3c-0.4-0.1-0.9-0.2-1.2-0.4c-0.8-0.3-2.4-1.2-2.4-1.2L35.3,49.5L35.3,49.5z"/>
					</g>
				</g>
				<g>
					<g>
						
							<path fill-rule="evenodd" clip-rule="evenodd" fill="#FCD116" stroke="#000000" stroke-width="0.2091" stroke-miterlimit="2.4142" d="
							M26.6,52.1c0,0-0.7-0.2-2,0.1c-1.3,0.3-2,0.9-2.5,1.2c-0.5,0.2-1.5,0.3-2.4-0.2c0,0,0.9,0.1,1.7-0.4c0.7-0.5,0.6-0.9,1.7-1.9
							c1.1-1,3.2-1.7,3.2-1.7l1.8,0l0.5,1.4L26.6,52.1L26.6,52.1z"/>
						<path d="M28.1,49.8c0,0-1.8,0.5-2.6,0.9c-0.3,0.1-0.7,0.4-1.1,0.6c-0.6,0.3-1.1,0.7-1.3,0.9c0,0-0.1,0-0.1,0.1
							c-0.4,0.3-1.2,0.9-1.8,1.1c-0.6,0.2-1.6,0-1.6,0l0-0.2c0,0,0.9,0.2,1.5,0c0.6-0.2,1.4-0.8,1.8-1.1C23,52,23,52,23,52
							c0.2-0.2,0.7-0.5,1.3-0.9c0.4-0.2,0.8-0.5,1.1-0.6c0.8-0.3,2.6-0.9,2.6-0.9L28.1,49.8L28.1,49.8z"/>
					</g>
					<g>
						
							<path fill-rule="evenodd" clip-rule="evenodd" fill="#FCD116" stroke="#000000" stroke-width="0.2091" stroke-miterlimit="2.4142" d="
							M36.7,44.2c0,0,0.7,0.2,2-0.1c1.3-0.3,2-0.9,2.5-1.2c0.5-0.2,1.5-0.3,2.4,0.2c0,0-0.9-0.1-1.7,0.4c-0.7,0.5-0.6,0.9-1.7,1.9
							c-1.1,1-3.2,1.7-3.2,1.7l-1.8,0l-0.5-1.4L36.7,44.2L36.7,44.2z"/>
						<path d="M35.2,46.6c0,0,1.8-0.5,2.6-0.9c0.3-0.1,0.7-0.4,1.1-0.6c0.6-0.3,1.1-0.7,1.3-0.9c0,0,0.1,0,0.1-0.1
							c0.4-0.3,1.2-0.9,1.8-1.1c0.6-0.2,1.6,0,1.6,0l0,0.2c0,0-0.9-0.2-1.5,0c-0.6,0.2-1.4,0.8-1.8,1.1c0,0-0.1,0.1-0.1,0.1
							c-0.2,0.2-0.7,0.5-1.3,0.9c-0.4,0.2-0.8,0.5-1.1,0.6c-0.8,0.3-2.6,0.9-2.6,0.9L35.2,46.6L35.2,46.6z"/>
					</g>
				</g>
			</g>
			<g>
				<g>
					
						<polygon fill-rule="evenodd" clip-rule="evenodd" fill="#FCD116" stroke="#000000" stroke-width="0.2058" stroke-miterlimit="2.4142" points="
						31.6,44.4 33.3,44.5 31.6,35.2 29.9,44.5 31.6,44.4 					"/>
					<polygon points="31.5,44.4 31.5,35.5 31.7,35.5 31.7,44.4 31.5,44.4 					"/>
				</g>
				<g>
					
						<polygon fill-rule="evenodd" clip-rule="evenodd" fill="#FCD116" stroke="#000000" stroke-width="0.2058" stroke-miterlimit="2.4142" points="
						31.6,52 33.3,51.8 31.6,61.2 29.9,51.8 31.6,52 					"/>
					<polygon points="31.5,52 31.5,60.8 31.7,60.8 31.7,52 31.5,52 					"/>
				</g>
				<g>
					
						<polygon fill-rule="evenodd" clip-rule="evenodd" fill="#FCD116" stroke="#000000" stroke-width="0.2058" stroke-miterlimit="2.4142" points="
						28.9,45.5 30.2,44.4 22.4,39 27.8,46.8 28.9,45.5 					"/>
					<polygon points="28.8,45.6 22.6,39.3 22.7,39.2 29,45.4 28.8,45.6 					"/>
				</g>
				<g>
					
						<polygon fill-rule="evenodd" clip-rule="evenodd" fill="#FCD116" stroke="#000000" stroke-width="0.2058" stroke-miterlimit="2.4142" points="
						34.3,50.9 35.4,49.5 40.8,57.4 32.9,52 34.3,50.9 					"/>
					<polygon points="34.2,51 40.5,57.2 40.6,57.1 34.4,50.8 34.2,51 					"/>
				</g>
				<g>
					
						<polygon fill-rule="evenodd" clip-rule="evenodd" fill="#FCD116" stroke="#000000" stroke-width="0.2058" stroke-miterlimit="2.4142" points="
						27.8,48.2 27.9,46.5 18.6,48.2 27.9,49.9 27.8,48.2 					"/>
					<polygon points="27.8,48.3 18.9,48.3 18.9,48.1 27.8,48.1 27.8,48.3 					"/>
				</g>
				<g>
					
						<polygon fill-rule="evenodd" clip-rule="evenodd" fill="#FCD116" stroke="#000000" stroke-width="0.2058" stroke-miterlimit="2.4142" points="
						35.4,48.2 35.2,46.5 44.6,48.2 35.2,49.9 35.4,48.2 					"/>
					<polygon points="35.4,48.3 44.3,48.3 44.3,48.1 35.4,48.1 35.4,48.3 					"/>
				</g>
				<g>
					
						<polygon fill-rule="evenodd" clip-rule="evenodd" fill="#FCD116" stroke="#000000" stroke-width="0.2058" stroke-miterlimit="2.4142" points="
						28.9,50.9 27.8,49.5 22.4,57.4 30.2,52 28.9,50.9 					"/>
					<polygon points="29,51 22.7,57.2 22.6,57.1 28.8,50.8 29,51 					"/>
				</g>
				<g>
					
						<polygon fill-rule="evenodd" clip-rule="evenodd" fill="#FCD116" stroke="#000000" stroke-width="0.2058" stroke-miterlimit="2.4142" points="
						34.3,45.5 32.9,44.4 40.8,39 35.4,46.8 34.3,45.5 					"/>
					<polygon points="34.4,45.6 40.6,39.3 40.5,39.2 34.2,45.4 34.4,45.6 					"/>
				</g>
			</g>
			
				<path fill-rule="evenodd" clip-rule="evenodd" fill="#FCD116" stroke="#000000" stroke-width="0.2091" stroke-miterlimit="2.4142" d="
				M31.6,43.8c2.4,0,4.3,1.9,4.3,4.3c0,2.4-1.9,4.3-4.3,4.3c-2.4,0-4.3-1.9-4.3-4.3C27.3,45.8,29.2,43.8,31.6,43.8z"/>
			<path fill-rule="evenodd" clip-rule="evenodd" d="M32.1,46.5c0.3-0.3,0.8-0.6,1.1-0.7c0.3,0,1,0.2,1.3,0.4
				c0.2,0.2,0.3,0.2,0.2,0.3c-0.1,0.1-0.2,0.1-0.3,0c-0.1-0.1-0.5-0.3-1.1-0.3c-0.6,0-0.9,0.2-1,0.3c-0.1,0.1-0.2,0.2-0.3,0.2
				C32,46.7,32.1,46.6,32.1,46.5L32.1,46.5z M31.8,51.3c0.3,0,0-0.1-0.2-0.1c-0.2,0-0.5,0.1-0.2,0.1C31.4,51.3,31.8,51.3,31.8,51.3
				L31.8,51.3z M29.7,49.8c0,0-0.3,0.4-0.4,0.6c0,0,0-0.2,0.1-0.3C29.5,49.9,29.7,49.8,29.7,49.8L29.7,49.8z M33.4,49.8
				c0,0,0.3,0.4,0.4,0.6c0,0,0-0.2-0.1-0.3C33.7,49.9,33.4,49.8,33.4,49.8L33.4,49.8z M31.6,49.9c0,0,0.1,0,0.4-0.1
				c0.2-0.1,0.4,0,0.5,0c0.2,0,0.5,0.2,0.7,0.2c0.3,0,0.4,0,0.4,0s-0.4,0.2-0.7,0.3c-0.3,0.2-0.5,0.3-0.8,0.4c-0.3,0-0.5,0-0.5,0
				s-0.3,0-0.5,0c-0.3,0-0.5-0.2-0.8-0.4c-0.3-0.2-0.7-0.3-0.7-0.3s0.2,0,0.4,0c0.3,0,0.6-0.2,0.7-0.2c0.2,0,0.3-0.1,0.5,0
				C31.5,49.9,31.6,49.9,31.6,49.9L31.6,49.9z M31.6,50.5c0,0,0.5,0,0.6,0c0.2,0,0.5-0.2,0.6-0.2c0,0-0.3-0.1-0.5-0.1
				c-0.2,0-0.8,0-0.8,0s-0.6,0-0.8,0c-0.2,0-0.5,0.1-0.5,0.1c0.1,0,0.5,0.2,0.6,0.2C31.1,50.5,31.6,50.5,31.6,50.5L31.6,50.5z
				 M31,46.5c-0.3-0.3-0.8-0.6-1.1-0.7c-0.3,0-1,0.2-1.2,0.4c-0.2,0.2-0.3,0.2-0.2,0.3c0.1,0.1,0.2,0.1,0.3,0
				c0.1-0.1,0.5-0.3,1.1-0.3c0.6,0,0.9,0.2,1,0.3c0.1,0.1,0.2,0.2,0.3,0.2C31.2,46.7,31.1,46.6,31,46.5L31,46.5z M30.8,47.1
				c0-0.2-0.1-0.3-0.4-0.4c-0.3-0.1-0.8,0-1,0c-0.2,0.1-0.5,0.4-0.6,0.4c-0.1,0.1-0.1,0.1-0.1,0.1c0.1,0,0.4-0.2,0.4-0.2
				c0,0-0.1,0.2,0,0.3c0,0-0.1-0.1-0.2-0.1c-0.1,0-0.1,0,0,0c0,0,0.2,0.2,0.5,0.4c0.3,0.1,0.6,0.1,0.7,0.1c0.2,0,0.4-0.1,0.5-0.2
				c0.1-0.1,0-0.2-0.1-0.2c-0.1,0-0.2,0.1-0.3,0.2c-0.1,0.1-0.2,0.1-0.4,0.1c0,0,0.5-0.3,0.4-0.7C30.4,46.8,30.6,46.9,30.8,47.1
				C30.9,47.3,30.8,47.1,30.8,47.1L30.8,47.1z M29.5,46.8c0,0-0.1,0.1-0.1,0.3c0,0.2,0.2,0.3,0.2,0.3s-0.4,0-0.4-0.3
				C29.2,46.8,29.5,46.8,29.5,46.8L29.5,46.8z M31.6,49.4c0,0,0.2,0,0.4-0.1c0.1-0.1,0.5-0.1,0.6,0c0.1,0,0.5,0.1,0.6,0.2
				c0,0-0.1-0.2-0.3-0.3c-0.2-0.1-0.3,0-0.3-0.2c-0.1-0.2-0.1-0.3-0.2-0.4c-0.1-0.1-0.2-0.1-0.2-0.1c0,0,0,0,0,0.1
				c0.1,0.1,0.1,0.2,0.1,0.2c0,0.1-0.2,0.2-0.3,0.1C32,48.9,32,48.8,32,48.8c0,0,0,0,0,0.1c0,0.1,0,0.2-0.4,0.2
				c-0.4,0-0.4-0.1-0.4-0.2c0-0.1,0-0.1,0-0.1c0,0,0,0.1-0.1,0.1s-0.3,0-0.3-0.1c0-0.1,0.1-0.2,0.1-0.2c0.1-0.1,0-0.1,0-0.1
				c0,0-0.1,0-0.2,0.1c-0.1,0.1-0.1,0.2-0.2,0.4s-0.2,0.1-0.3,0.2c-0.2,0.1-0.3,0.3-0.3,0.3c0.1-0.1,0.5-0.2,0.6-0.2
				c0.1,0,0.5-0.1,0.6,0C31.4,49.3,31.6,49.4,31.6,49.4L31.6,49.4z M32.4,47.1c0-0.2,0.1-0.3,0.4-0.4c0.3-0.1,0.8,0,1,0
				c0.2,0.1,0.5,0.4,0.6,0.4c0.1,0.1,0.1,0.1,0.1,0.1c-0.1,0-0.4-0.2-0.5-0.2c0,0,0.1,0.2,0,0.3c0,0,0.1-0.1,0.2-0.1
				c0.1,0,0.1,0,0,0c0,0-0.2,0.2-0.5,0.4c-0.3,0.1-0.6,0.1-0.7,0.1c-0.2,0-0.4-0.1-0.5-0.2c-0.1-0.1,0-0.2,0.1-0.2
				c0.1,0,0.2,0.1,0.3,0.2c0.1,0.1,0.2,0.1,0.4,0.1c0,0-0.5-0.3-0.4-0.7C32.8,46.8,32.6,46.9,32.4,47.1
				C32.3,47.3,32.4,47.1,32.4,47.1L32.4,47.1z M33.7,46.8c0,0,0.1,0.1,0.1,0.3c0,0.2-0.2,0.3-0.2,0.3s0.4,0,0.4-0.3
				C33.9,46.8,33.7,46.8,33.7,46.8L33.7,46.8z"/>
		</g>
	</g>
	<path opacity="0.35" fill="#FFFFFF" d="M13,29.7v25.5C26.2,62.6,43.7,67,63,67c19.3,0,36.8-4.5,50-11.8V29.7H13z"/>
</g>
</svg>
