<?xml version="1.0" encoding="utf-8"?>
<!-- Generator: Adobe Illustrator 24.3.0, SVG Export Plug-In . SVG Version: 6.00 Build 0)  -->
<svg version="1.1" id="Layer_1" xmlns="http://www.w3.org/2000/svg" xmlns:xlink="http://www.w3.org/1999/xlink" x="0px" y="0px"
	 viewBox="0 0 126 126" enable-background="new 0 0 126 126" xml:space="preserve">
<g>
	<g>
		<path fill-rule="evenodd" clip-rule="evenodd" fill="#F4F4F4" d="M113,34.8v5.1H63.7v-5.1H113L113,34.8z M113,45.1v5.1H63.7v-5.1
			H113L113,45.1z M113,55.3v5.1H63.7v-5.1H113L113,55.3z M113,65.6v5.1H13v-5.1H113L113,65.6z M113,75.8V81H13v-5.1H113L113,75.8z
			 M113,86.1v5.1H13v-5.1H113L113,86.1z"/>
		<path fill-rule="evenodd" clip-rule="evenodd" fill="#FF1612" d="M13,29.7h100v5.1H13V29.7L13,29.7z M13,91.2h100v5.1H13V91.2
			L13,91.2z M13,81h100v5.1H13V81L13,81z M13,70.7h100v5.1H13V70.7L13,70.7z M13,60.4h100v5.1H13V60.4L13,60.4z M13,50.2h100v5.1H13
			V50.2L13,50.2z M13,39.9h100v5.1H13V39.9L13,39.9z"/>
		<polygon fill-rule="evenodd" clip-rule="evenodd" fill="#0437A0" points="13,29.7 63.7,29.7 63.7,65.6 13,65.6 13,29.7 		"/>
		<path fill-rule="evenodd" clip-rule="evenodd" fill="#F4F4F4" d="M59.4,31.5l0.5,1.4l1.5,0l-1.2,0.9l0.5,1.4l-1.2-0.9l-1.2,0.9
			l0.5-1.4l-1.2-0.9l1.5,0L59.4,31.5L59.4,31.5z M17.2,45.8l0.5,1.4l1.5,0L18,48.1l0.5,1.4l-1.2-0.9L16,49.5l0.5-1.4l-1.2-0.9l1.5,0
			L17.2,45.8L17.2,45.8z M21.4,49.3l0.5,1.4l1.5,0l-1.2,0.9l0.5,1.4l-1.2-0.9l-1.2,0.9l0.5-1.4l-1.2-0.9l1.5,0L21.4,49.3L21.4,49.3z
			 M55.2,49.3l0.5,1.4l1.5,0L56,51.6l0.5,1.4l-1.2-0.9L54,53.1l0.5-1.4l-1.2-0.9l1.5,0L55.2,49.3L55.2,49.3z M46.8,49.3l0.5,1.4
			l1.5,0l-1.2,0.9l0.5,1.4l-1.2-0.9l-1.2,0.9l0.5-1.4l-1.2-0.9l1.5,0L46.8,49.3L46.8,49.3z M38.3,49.3l0.5,1.4l1.5,0l-1.2,0.9
			l0.5,1.4l-1.2-0.9l-1.2,0.9l0.5-1.4l-1.2-0.9l1.5,0L38.3,49.3L38.3,49.3z M29.9,49.3l0.5,1.4l1.5,0l-1.2,0.9l0.5,1.4l-1.2-0.9
			l-1.2,0.9l0.5-1.4l-1.2-0.9l1.5,0L29.9,49.3L29.9,49.3z M25.7,45.8l0.5,1.4l1.5,0l-1.2,0.9l0.5,1.4l-1.2-0.9l-1.2,0.9l0.5-1.4
			l-1.2-0.9l1.5,0L25.7,45.8L25.7,45.8z M51,45.8l0.5,1.4l1.5,0l-1.2,0.9l0.5,1.4L51,48.6l-1.2,0.9l0.5-1.4L49,47.2l1.5,0L51,45.8
			L51,45.8z M59.4,45.8l0.5,1.4l1.5,0l-1.2,0.9l0.5,1.4l-1.2-0.9l-1.2,0.9l0.5-1.4l-1.2-0.9l1.5,0L59.4,45.8L59.4,45.8z M59.4,52.9
			l0.5,1.4l1.5,0l-1.2,0.9l0.5,1.4l-1.2-0.9l-1.2,0.9l0.5-1.4l-1.2-0.9l1.5,0L59.4,52.9L59.4,52.9z M51,52.9l0.5,1.4l1.5,0l-1.2,0.9
			l0.5,1.4L51,55.8l-1.2,0.9l0.5-1.4L49,54.3l1.5,0L51,52.9L51,52.9z M25.7,52.9l0.5,1.4l1.5,0l-1.2,0.9l0.5,1.4l-1.2-0.9l-1.2,0.9
			l0.5-1.4l-1.2-0.9l1.5,0L25.7,52.9L25.7,52.9z M21.4,56.5l0.5,1.4l1.5,0l-1.2,0.9l0.5,1.4l-1.2-0.9l-1.2,0.9l0.5-1.4l-1.2-0.9
			l1.5,0L21.4,56.5L21.4,56.5z M55.2,56.5l0.5,1.4l1.5,0L56,58.8l0.5,1.4l-1.2-0.9L54,60.2l0.5-1.4l-1.2-0.9l1.5,0L55.2,56.5
			L55.2,56.5z M46.8,56.5l0.5,1.4l1.5,0l-1.2,0.9l0.5,1.4l-1.2-0.9l-1.2,0.9l0.5-1.4l-1.2-0.9l1.5,0L46.8,56.5L46.8,56.5z
			 M38.3,56.5l0.5,1.4l1.5,0l-1.2,0.9l0.5,1.4l-1.2-0.9l-1.2,0.9l0.5-1.4l-1.2-0.9l1.5,0L38.3,56.5L38.3,56.5z M29.9,56.5l0.5,1.4
			l1.5,0l-1.2,0.9l0.5,1.4l-1.2-0.9l-1.2,0.9l0.5-1.4l-1.2-0.9l1.5,0L29.9,56.5L29.9,56.5z M17.2,52.9l0.5,1.4l1.5,0L18,55.2
			l0.5,1.4l-1.2-0.9L16,56.6l0.5-1.4l-1.2-0.9l1.5,0L17.2,52.9L17.2,52.9z M17.2,60.1l0.5,1.4h1.5L18,62.4l0.5,1.4l-1.2-0.9L16,63.8
			l0.5-1.4l-1.2-0.9h1.5L17.2,60.1L17.2,60.1z M25.7,60.1l0.5,1.4h1.5l-1.2,0.9l0.5,1.4l-1.2-0.9l-1.2,0.9l0.5-1.4l-1.2-0.9h1.5
			L25.7,60.1L25.7,60.1z M51,60.1l0.5,1.4H53l-1.2,0.9l0.5,1.4L51,62.9l-1.2,0.9l0.5-1.4L49,61.5h1.5L51,60.1L51,60.1z M59.4,60.1
			l0.5,1.4h1.5l-1.2,0.9l0.5,1.4l-1.2-0.9l-1.2,0.9l0.5-1.4l-1.2-0.9H59L59.4,60.1L59.4,60.1z M21.4,42.2l0.5,1.4l1.5,0l-1.2,0.9
			l0.5,1.4L21.4,45l-1.2,0.9l0.5-1.4l-1.2-0.9l1.5,0L21.4,42.2L21.4,42.2z M21.4,35l0.5,1.4l1.5,0l-1.2,0.9l0.5,1.4l-1.2-0.9
			l-1.2,0.9l0.5-1.4l-1.2-0.9l1.5,0L21.4,35L21.4,35z M55.2,35l0.5,1.4l1.5,0L56,37.3l0.5,1.4l-1.2-0.9L54,38.7l0.5-1.4l-1.2-0.9
			l1.5,0L55.2,35L55.2,35z M46.8,35l0.5,1.4l1.5,0l-1.2,0.9l0.5,1.4l-1.2-0.9l-1.2,0.9l0.5-1.4l-1.2-0.9l1.5,0L46.8,35L46.8,35z
			 M38.3,35l0.5,1.4l1.5,0l-1.2,0.9l0.5,1.4l-1.2-0.9l-1.2,0.9l0.5-1.4l-1.2-0.9l1.5,0L38.3,35L38.3,35z M29.9,35l0.5,1.4l1.5,0
			l-1.2,0.9l0.5,1.4l-1.2-0.9l-1.2,0.9l0.5-1.4l-1.2-0.9l1.5,0L29.9,35L29.9,35z M17.2,38.6l0.5,1.4l1.5,0L18,40.9l0.5,1.4l-1.2-0.9
			L16,42.3l0.5-1.4L15.3,40l1.5,0L17.2,38.6L17.2,38.6z M55.2,42.2l0.5,1.4l1.5,0L56,44.5l0.5,1.4L55.2,45L54,45.9l0.5-1.4l-1.2-0.9
			l1.5,0L55.2,42.2L55.2,42.2z M46.8,42.2l0.5,1.4l1.5,0l-1.2,0.9l0.5,1.4L46.8,45l-1.2,0.9l0.5-1.4l-1.2-0.9l1.5,0L46.8,42.2
			L46.8,42.2z M38.3,42.2l0.5,1.4l1.5,0l-1.2,0.9l0.5,1.4L38.3,45l-1.2,0.9l0.5-1.4l-1.2-0.9l1.5,0L38.3,42.2L38.3,42.2z M29.9,42.2
			l0.5,1.4l1.5,0l-1.2,0.9l0.5,1.4L29.9,45l-1.2,0.9l0.5-1.4l-1.2-0.9l1.5,0L29.9,42.2L29.9,42.2z M25.7,38.6l0.5,1.4l1.5,0
			l-1.2,0.9l0.5,1.4l-1.2-0.9l-1.2,0.9l0.5-1.4L23.7,40l1.5,0L25.7,38.6L25.7,38.6z M25.7,31.5l0.5,1.4l1.5,0l-1.2,0.9l0.5,1.4
			l-1.2-0.9l-1.2,0.9l0.5-1.4l-1.2-0.9l1.5,0L25.7,31.5L25.7,31.5z M17.2,31.5l0.5,1.4l1.5,0L18,33.7l0.5,1.4l-1.2-0.9L16,35.2
			l0.5-1.4l-1.2-0.9l1.5,0L17.2,31.5L17.2,31.5z M34.1,60.1l0.5,1.4h1.5l-1.2,0.9l0.5,1.4l-1.2-0.9l-1.2,0.9l0.5-1.4l-1.2-0.9h1.5
			L34.1,60.1L34.1,60.1z M34.1,52.9l0.5,1.4l1.5,0l-1.2,0.9l0.5,1.4l-1.2-0.9l-1.2,0.9l0.5-1.4l-1.2-0.9l1.5,0L34.1,52.9L34.1,52.9z
			 M34.1,45.8l0.5,1.4l1.5,0l-1.2,0.9l0.5,1.4l-1.2-0.9l-1.2,0.9l0.5-1.4l-1.2-0.9l1.5,0L34.1,45.8L34.1,45.8z M34.1,38.6l0.5,1.4
			l1.5,0l-1.2,0.9l0.5,1.4l-1.2-0.9l-1.2,0.9l0.5-1.4L32.2,40l1.5,0L34.1,38.6L34.1,38.6z M34.1,31.5l0.5,1.4l1.5,0l-1.2,0.9
			l0.5,1.4l-1.2-0.9l-1.2,0.9l0.5-1.4l-1.2-0.9l1.5,0L34.1,31.5L34.1,31.5z M42.6,60.1l0.5,1.4h1.5l-1.2,0.9l0.5,1.4l-1.2-0.9
			l-1.2,0.9l0.5-1.4l-1.2-0.9h1.5L42.6,60.1L42.6,60.1z M42.6,52.9l0.5,1.4l1.5,0l-1.2,0.9l0.5,1.4l-1.2-0.9l-1.2,0.9l0.5-1.4
			l-1.2-0.9l1.5,0L42.6,52.9L42.6,52.9z M42.6,45.8l0.5,1.4l1.5,0l-1.2,0.9l0.5,1.4l-1.2-0.9l-1.2,0.9l0.5-1.4l-1.2-0.9l1.5,0
			L42.6,45.8L42.6,45.8z M42.6,38.6L43,40l1.5,0l-1.2,0.9l0.5,1.4l-1.2-0.9l-1.2,0.9l0.5-1.4L40.6,40l1.5,0L42.6,38.6L42.6,38.6z
			 M42.6,31.5l0.5,1.4l1.5,0l-1.2,0.9l0.5,1.4l-1.2-0.9l-1.2,0.9l0.5-1.4l-1.2-0.9l1.5,0L42.6,31.5L42.6,31.5z M51,38.6l0.5,1.4
			l1.5,0l-1.2,0.9l0.5,1.4L51,41.4l-1.2,0.9l0.5-1.4L49,40l1.5,0L51,38.6L51,38.6z M51,31.5l0.5,1.4l1.5,0l-1.2,0.9l0.5,1.4L51,34.3
			l-1.2,0.9l0.5-1.4L49,32.9l1.5,0L51,31.5L51,31.5z M59.4,38.6l0.5,1.4l1.5,0l-1.2,0.9l0.5,1.4l-1.2-0.9l-1.2,0.9l0.5-1.4L57.5,40
			l1.5,0L59.4,38.6L59.4,38.6z"/>
	</g>
	<path opacity="0.35" fill="#FFFFFF" d="M13,29.7v25.5C26.2,62.6,43.7,67,63,67c19.3,0,36.8-4.5,50-11.8V29.7H13z"/>
</g>
</svg>
