<?xml version="1.0" encoding="utf-8"?>
<!-- Generator: Adobe Illustrator 24.3.0, SVG Export Plug-In . SVG Version: 6.00 Build 0)  -->
<svg version="1.1" id="Layer_1" xmlns="http://www.w3.org/2000/svg" xmlns:xlink="http://www.w3.org/1999/xlink" x="0px" y="0px"
	 viewBox="0 0 126 126" enable-background="new 0 0 126 126" xml:space="preserve">
<g>
	<g>
		<g>
			<polygon fill-rule="evenodd" clip-rule="evenodd" fill="#F0F0F0" points="113,73.7 113,52.3 13,52.3 13,73.7 113,73.7 			"/>
			<polygon fill-rule="evenodd" clip-rule="evenodd" fill="#49A9F6" points="13,51 113,51 113,29.7 13,29.7 13,51 			"/>
			<path fill-rule="evenodd" clip-rule="evenodd" fill="#C20B18" d="M13,75h100v-1.3H13V75L13,75z M113,52.3V51H13v1.3H113L113,52.3
				z"/>
			<polygon fill-rule="evenodd" clip-rule="evenodd" fill="#47B71D" points="13,96.3 113,96.3 113,75 13,75 13,96.3 			"/>
			<path fill-rule="evenodd" clip-rule="evenodd" fill="#F4F4F4" d="M33,32.4c-0.4-0.1-0.9-0.1-1.3-0.1c-4.4,0-8,3.6-8,8s3.6,8,8,8
				c0.5,0,0.9,0,1.3-0.1c-3.8-0.6-6.7-3.9-6.7-7.9S29.2,33.1,33,32.4L33,32.4z M62.1,32.3l0.4,1.1l1.2,0l-1,0.7l0.4,1.1l-1-0.7
				l-1,0.7l0.4-1.1l-1-0.7l1.2,0L62.1,32.3L62.1,32.3z M36.5,45.1l0.4,1.1l1.2,0l-1,0.7l0.4,1.1l-1-0.7l-1,0.7l0.4-1.1l-1-0.7l1.2,0
				L36.5,45.1L36.5,45.1z M42.9,45.1l0.4,1.1l1.2,0l-1,0.7l0.4,1.1l-1-0.7l-1,0.7l0.4-1.1l-1-0.7l1.2,0L42.9,45.1L42.9,45.1z
				 M49.3,45.1l0.4,1.1l1.2,0l-1,0.7l0.4,1.1l-1-0.7l-1,0.7l0.4-1.1l-1-0.7l1.2,0L49.3,45.1L49.3,45.1z M55.7,45.1l0.4,1.1l1.2,0
				l-1,0.7l0.4,1.1l-1-0.7l-1,0.7l0.4-1.1l-1-0.7l1.2,0L55.7,45.1L55.7,45.1z M62.1,45.1l0.4,1.1l1.2,0l-1,0.7l0.4,1.1l-1-0.7
				l-1,0.7l0.4-1.1l-1-0.7l1.2,0L62.1,45.1L62.1,45.1z M62.1,38.6l0.4,1.1l1.2,0l-1,0.7l0.4,1.1l-1-0.7l-1,0.7l0.4-1.1l-1-0.7l1.2,0
				L62.1,38.6L62.1,38.6z M55.7,38.6l0.4,1.1l1.2,0l-1,0.7l0.4,1.1l-1-0.7l-1,0.7l0.4-1.1l-1-0.7l1.2,0L55.7,38.6L55.7,38.6z
				 M49.3,38.6l0.4,1.1l1.2,0l-1,0.7l0.4,1.1l-1-0.7l-1,0.7l0.4-1.1l-1-0.7l1.2,0L49.3,38.6L49.3,38.6z M42.9,38.6l0.4,1.1l1.2,0
				l-1,0.7l0.4,1.1l-1-0.7l-1,0.7l0.4-1.1l-1-0.7l1.2,0L42.9,38.6L42.9,38.6z M49.3,32.3l0.4,1.1l1.2,0l-1,0.7l0.4,1.1l-1-0.7
				l-1,0.7l0.4-1.1l-1-0.7l1.2,0L49.3,32.3L49.3,32.3z M55.7,32.3l0.4,1.1l1.2,0l-1,0.7l0.4,1.1l-1-0.7l-1,0.7l0.4-1.1l-1-0.7l1.2,0
				L55.7,32.3L55.7,32.3z"/>
		</g>
	</g>
	<path opacity="0.35" fill="#FFFFFF" d="M13,29.7v25.5C26.2,62.6,43.7,67,63,67c19.3,0,36.8-4.5,50-11.8V29.7H13z"/>
</g>
</svg>
