<?xml version="1.0" encoding="utf-8"?>
<!-- Generator: Adobe Illustrator 24.3.0, SVG Export Plug-In . SVG Version: 6.00 Build 0)  -->
<svg version="1.1" id="Layer_1" xmlns="http://www.w3.org/2000/svg" xmlns:xlink="http://www.w3.org/1999/xlink" x="0px" y="0px"
	 viewBox="0 0 126 126" enable-background="new 0 0 126 126" xml:space="preserve">
<g>
	<g>
		<path fill-rule="evenodd" clip-rule="evenodd" fill="#FFDA1E" d="M113,74.1L113,74.1H13l0,0H113L113,74.1z M113,51.9V29.7H13v22.2
			H113L113,51.9z"/>
		<polygon fill-rule="evenodd" clip-rule="evenodd" fill="#FF1612" points="13,96.3 113,96.3 113,74.1 13,74.1 13,96.3 		"/>
		<polygon fill-rule="evenodd" clip-rule="evenodd" fill="#0440A8" points="13,74.1 113,74.1 113,51.9 13,51.9 13,74.1 		"/>
		<path fill-rule="evenodd" clip-rule="evenodd" fill="#F4F4F4" d="M58.8,53.6l1,1.8l2-0.4l-1.4,1.5l1,1.8l-1.9-0.9L58.1,59l0.3-2.1
			l-1.9-0.9l2-0.4L58.8,53.6L58.8,53.6z M82.8,67.2l-0.6,2l-2.1,0.1l1.7,1.2l-0.6,2l1.6-1.3l1.7,1.2l-0.7-2l1.6-1.3l-2.1,0.1
			L82.8,67.2L82.8,67.2z M81.5,61.8l-1.9,0.8l-1.4-1.6l0.2,2.1l-1.9,0.8l2,0.5l0.2,2.1l1.1-1.8l2,0.5l-1.4-1.6L81.5,61.8L81.5,61.8z
			 M75,56.4l-1.5,1.4l-1.8-1l0.9,1.9L71,60.1l2.1-0.2l0.8,1.9l0.4-2l2.1-0.2l-1.8-1L75,56.4L75,56.4z M67.2,53.6l-1,1.8l-2-0.4
			l1.4,1.5l-1,1.8l1.9-0.9l1.4,1.5l-0.3-2.1l1.9-0.9l-2-0.4L67.2,53.6L67.2,53.6z M43.2,67.2l0.6,2l2.1,0.1l-1.7,1.2l0.6,2L43,71.1
			l-1.7,1.2l0.7-2L40.4,69l2.1,0.1L43.2,67.2L43.2,67.2z M44.5,61.8l1.9,0.8l1.4-1.6l-0.2,2.1l1.9,0.8l-2,0.5l-0.2,2.1l-1.1-1.8
			l-2,0.5l1.4-1.6L44.5,61.8L44.5,61.8z M51,56.4l1.5,1.4l1.8-1l-0.9,1.9l1.5,1.4l-2.1-0.2l-0.8,1.9l-0.4-2l-2.1-0.2l1.8-1L51,56.4
			L51,56.4z"/>
	</g>
	<path opacity="0.25" fill="#FFFFFF" d="M13,29.7v25.5C26.2,62.6,43.7,67,63,67c19.3,0,36.8-4.5,50-11.8V29.7H13z"/>
</g>
</svg>
