<?xml version="1.0" encoding="utf-8"?>
<!-- Generator: Adobe Illustrator 24.3.0, SVG Export Plug-In . SVG Version: 6.00 Build 0)  -->
<svg version="1.1" id="Layer_1" xmlns="http://www.w3.org/2000/svg" xmlns:xlink="http://www.w3.org/1999/xlink" x="0px" y="0px"
	 viewBox="0 0 126 126" enable-background="new 0 0 126 126" xml:space="preserve">
<g>
	<g>
		<path fill-rule="evenodd" clip-rule="evenodd" fill="#F0F0F0" d="M13.1,29.7c2.2,0,4.4,0,6.6,0c5.6,0,11.1,0,16.7,0
			c7.4,0,14.8,0,22.2,0c7.7,0,15.4,0,23.1,0c6.4,0,12.9,0,19.3,0c3.7,0,7.3,0,11,0c0.3,0,1-0.2,1,0.2c0,1.2,0,2.4,0,3.7
			c0,5.9,0,11.8,0,17.8c0,7.7,0,15.4,0,23c0,6,0,12,0,17.9c0,1.3,0,2.5,0,3.8c0,0.4-0.6,0.2-0.9,0.2c-3.6,0-7.2,0-10.8,0
			c-6.4,0-12.8,0-19.2,0c-7.7,0-15.4,0-23,0c-7.4,0-14.8,0-22.2,0c-5.6,0-11.2,0-16.8,0c-2.3,0-4.5,0-6.8,0c0,0,0-8.6,0-9.1
			c0-7,0-13.9,0-20.9c0-7.5,0-14.9,0-22.4c0-4.5,0-9,0-13.5C13.1,30.2,13.1,30,13.1,29.7L13.1,29.7z"/>
		
			<path fill-rule="evenodd" clip-rule="evenodd" fill="#1971E4" stroke="#000000" stroke-width="0.1048" stroke-miterlimit="2.4142" d="
			M82.7,65.3c1.2-2.2,2.4-4.4,3.6-6.6c0.1,2.5,0.1,5,0.2,7.5c-0.4-0.3-0.9-0.5-1.3-0.8c-0.7,3-1.5,6.1-2.2,9.1
			c-0.2-0.1-0.9-0.2-0.9-0.4c0.1-0.2,0.1-0.5,0.2-0.7c0.2-1,0.5-2,0.7-3.1c0.4-1.7,0.8-3.4,1.2-5.1C83.7,65.3,83.2,65.2,82.7,65.3
			L82.7,65.3z"/>
		
			<path fill-rule="evenodd" clip-rule="evenodd" fill="#00840F" stroke="#000000" stroke-width="0.1048" stroke-miterlimit="2.4142" d="
			M34.7,54.8c1.1,0.7,2,1.8,2.1,3.1c0,0.6-0.1,1.2,0,1.8c0.1,0.5,0.2,1.1,0.3,1.6c0.1,0.3,0.3,1.1,0.5,0.3c0.2-0.6-0.1-1.2-0.1-1.8
			c0-0.5,0-1.1,0.3-1.5c0.3-0.5,0.5-0.9,0.6-1.5c0.9,1.3,1.3,3,0.3,4.4c-0.4,0.7-0.8,1.1-0.7,1.9c0.1,0.7,0.3,1.3,0.6,2
			c0.5-0.7,0.2-1.6,0.3-2.4c0.2-1,1.1-1.4,1.5-2.3c0.3,0.9,0.3,2.1-0.4,2.9c-0.4,0.4-0.7,0.8-0.8,1.4c-0.1,0.7,0,1.4,0.2,2.1
			c0,0.1,0.2,0.9,0.5,0.8c0.2-0.1,0.1-1.6,0.1-1.8c0.1-0.8,0.5-1,1-1.5c0.4-0.3,0.5-0.9,0.5-1.4c0.4,0.9,0.8,1.8,0.2,2.7
			c-0.3,0.6-0.9,1.1-1.1,1.8c-0.1,0.5-0.1,1.1,0,1.7c0,0.2,0.3,1.6,0.7,1.3c0.3-0.2,0.1-1.4,0.1-1.8c0.1-0.6,0.3-0.9,0.7-1.3
			c0.4-0.4,0.8-0.9,0.8-1.5c0.4,0.8,0.6,1.9,0.4,2.8c-0.1,0.6-0.5,1.1-1,1.5c-0.4,0.3-0.6,0.6-0.5,1.1c0.1,0.5,0.3,1.2,0.8,1.4
			c0.5,0.2,0.3-0.9,0.3-1.1c0-0.7,0.1-1.1,0.6-1.6c0.4-0.4,1-1,1-1.6c0.3,0.7,0.4,1.5,0.3,2.3c-0.2,1-1.4,1.8-1.4,2.9
			c0,0.1,0.1,1,0.2,0.9c0.2-0.1,0.1-0.8,0.2-1c0.3-1.2,1.8-1.3,2.2-2.4c0.2,1,0.1,2.1-0.8,2.7c-0.5,0.3-0.9,0.5-0.8,1.2
			c0.1,0.6,0.4,1.3,0.7,1.8c1,1.9,2.4,3.7,3.7,5.4c-0.7,0.4-1.5,0-2.1,0.4c-1.1-1.8-2.2-3.5-3.2-5.4c-0.3-0.5-0.6-1-0.8-1.5
			c-0.2-0.3-0.3-0.6-0.7-0.7c-0.8-0.1-1.5,0.5-2.3,0.6c-0.5,0-1.7-0.1-2-0.6c0.3,0,0.6-0.1,0.9-0.2c0.5-0.2,0.8-0.5,1.3-0.6
			c0.7-0.2,1.4-0.1,2,0c-0.6-1.1-1.9-0.7-2.9-0.7c-1.3,0.1-2.3-0.5-3.1-1.6c0.7,0.1,1.4,0.2,2.2,0c1-0.2,2.1-0.2,2.9,0.6
			c-0.3-1.1-1-1.7-2.1-1.8c-1.5-0.1-3,0-3.8-1.5c0.4,0.1,0.8,0.2,1.2,0.2c0.6,0,1.1-0.4,1.7-0.3c0.8,0.1,1.5,0.6,2,1.1
			c-0.3-1-1-2.1-2.2-2.2c-0.7,0-1.4,0.3-2.1,0.1c-0.8-0.2-1.4-0.9-1.7-1.6c1.5,0.3,3.3-0.4,4.6,0.7c-0.4-1.4-1.4-2-2.7-2.3
			C35.3,65,34.6,64.7,34,64c-0.3-0.5-0.5-1-0.6-1.6c0.7,0.7,1.8,0.3,2.6,0.9c0.4,0.3,0.6,0.6,0.9,1c0.3,0.3,0.6,0.5,0.9,0.7
			c-0.1-0.6-0.2-1.1-0.4-1.7c-0.4-0.8-1.3-1-2.1-1.3c-1.8-0.7-2.9-1.7-3.2-3.6c0.9,0,1.9,0.4,2.5,1.1c0.2,0.2,1.5,2.7,2,1.9
			c0.4-0.7-1.3-2.3-1.7-2.8C34.1,57.5,34.3,55.9,34.7,54.8C35.6,55.4,34.7,54.8,34.7,54.8z"/>
		<g>
			
				<path fill-rule="evenodd" clip-rule="evenodd" fill="#FFD31E" stroke="#000000" stroke-width="0.2096" stroke-miterlimit="2.4142" d="
				M56.5,41.6c0-0.5,0.1-1.1,0.4-1.6c0.2-0.3,0.5-0.5,0.8-0.6c0.1-0.1,1.3-0.2,1.3-0.2c0.1-0.2,0.2-0.4,0.3-0.5
				c0.1-0.1,0.8-0.3,0.8-0.3c0.1-0.4,0.5-0.6,0.9-0.8c1.7-0.7,4-0.1,4.9,1.6c0.5,0.9,0.5,1.9,0.6,2.9c0.1,1,0.8,2,1.3,2.7
				c-0.4,0.1-0.8,0.1-1.2,0c0.5,1.1,1.5,2,2.6,2.5c-0.3,0.3-0.8,0.5-1.3,0.5c0.7,0.6,1.4,1.3,1.7,2.2c0.2,0.4-0.1,0.5-0.5,0.6
				c-1.5,0.3-3,0.2-4.5,0.2c-1.8,0-3.6-0.1-5.4-0.2c-0.5,0-1.1-0.1-1.6-0.1c-0.4,0-0.5-0.2-0.8-0.6c0,0,0.8-1.3,0.9-1.4
				c-0.4,0.1-0.9,0.1-1.2-0.2c0.4-0.2,0.9-0.5,1.1-0.9c0.2-0.5,0.7-0.9,1.2-1.1c-0.2-0.1-0.5-0.1-0.7-0.3c0.5-0.2,1.1-0.7,1.2-1.2
				c0.1-0.4,0.2-0.9,0.3-1.3c0.1-0.3,0.5-0.6,0.6-1c0.2-1-0.5-1.6-1.4-1.5c-0.5,0-1,0-1.5,0c-0.2,0-0.4,0.2-0.5,0.4
				C56.7,41.5,56.5,41.9,56.5,41.6C56.4,40.7,56.5,41.6,56.5,41.6z"/>
			
				<path fill-rule="evenodd" clip-rule="evenodd" fill="#FFD31E" stroke="#000000" stroke-width="0.2096" stroke-miterlimit="2.4142" d="
				M73.8,51c0.8-0.1,1.5,0.4,2.2,0.7c0.5,0.1,1-0.2,1.1-0.7c0.1-0.6-0.7-1-1-1.5c-0.4-0.7-0.6-1.4-0.5-2.2c0.2-1.3,1.3-2,2.4-2.4
				c1-0.4,2.1-0.8,3.1-1.1c1.7-0.6,3.3-1.1,5-1.6c1.1-0.3,2.1-0.6,3.2-0.8c0.6-0.1,1.1-0.1,1.7-0.2c2.2-0.6,4.5-1.1,6.7-1.9
				c1.2-0.4,2.5-0.8,3.7-1.3c0.9-0.3,2.1-1,3.1-0.8c1.4,0.4,0.5,2-0.2,2.6c-0.2,0.1-0.3,0.1-0.2,0.3c0.1,0.3,0.1,0.6,0.1,0.9
				c-0.1,0.5-0.5,0.9-0.9,1.2c-0.3,0.2-0.5,0.1-0.5,0.4c0,0.5-0.2,1-0.5,1.4c-0.7,0.8-1.9,1.2-2.9,1.4c0.6,2.1-2.8,3-4.2,3.3
				c0.7,1.9-2.6,2.5-3.7,2.7c0.5,1.8-2,2.4-3.2,2.5c0.3,2-3,2.2-4.2,2.2c0.5,1.2,0.2,2.3-1.3,2.3c0.3,0.9,0.1,1.9-0.9,2.2
				c-0.1,0-1.1,0.1-1.1,0.1c0,0.2-0.1,0.3-0.1,0.5c-0.4,0.8-1.4,0.6-2.1,0.4c-0.3,0.9-1.2,1.3-2.1,0.9c-0.2-0.1-0.5-0.4-0.7-0.3
				c-0.2,0.2-0.3,0.3-0.6,0.4c-0.7,0.4-1.3,0-1.7-0.7c-0.7-1.3-1-2.9-1-4.4C72.5,55.3,72.8,53,73.8,51C74.5,51,73.8,51,73.8,51z"/>
			
				<path fill-rule="evenodd" clip-rule="evenodd" fill="#FFD31E" stroke="#000000" stroke-width="0.2096" stroke-miterlimit="2.4142" d="
				M72.9,62.8c0.3,0.9,0.9,1.6,1.5,2.4c0.4,0.6,1,1,1.5,1.5c0.9,0.9,1.6,1.9,1.7,3.2c0.1,1.1-0.1,2,0.9,2.7c-0.1,0-0.2,0-0.3,0
				c0.2,0.3,0.5,0.6,0.8,0.9c0.1,0.1,1.1,0.7,0.5,0.7c0.8,0,1.5,0,2.3,0c1.1,0,2,0.5,2.6,1.4c0.3,0.5,0.3,1.1,0.3,1.6
				c0,0.2,0,0.4-0.1,0.5c-0.1,0.1-0.2,0-0.3,0.1c-0.1,0.3-0.2,0.6-0.4,0.7c-0.1,0-0.5,0.1-0.5,0.1c0,0.1-0.1,0.1-0.2,0.2
				c-0.7,0.6-2.2,0.2-2.9-0.2c-1-0.6-0.6-2-1.3-2.7c-0.5-0.4-1.3-0.7-1.9-1c-0.6-0.3-1.3-0.8-2-0.9c0,0.1-0.1,0.3-0.1,0.4
				c-0.5-0.6-1.4-0.8-1.8-1.6c-0.2-0.3-0.2-0.7-0.4-1c-0.2-0.5-0.5-0.7-1-1c-0.8-0.5-1.8-0.8-2.3-1.6c-0.2-0.3,0-0.6,0.2-0.9
				C70.4,66.4,71.7,64.5,72.9,62.8C73.2,63.6,72.9,62.8,72.9,62.8z"/>
			
				<path fill-rule="evenodd" clip-rule="evenodd" fill="#FFD31E" stroke="#000000" stroke-width="0.2096" stroke-miterlimit="2.4142" d="
				M64,71.2c-0.4,0.5-0.8,0.9-1.2,1.4c-0.4-0.5-0.8-1-1.2-1.4c-0.4-0.4-1-0.7-1.5-1c-0.8-0.4-1.7-1-2.6-0.9c-0.8,0-1.7,1.1-1.6,1.9
				c0,0.2-0.5,0.4-0.6,0.5c-0.4,0.4-0.8,0.8-1.2,1.2c-0.9,1-2,2.2-2.3,3.6c-0.1,0.4,0,0.8,0.4,1c0.1,0.1,0.2,0.1,0.3,0.1
				c0.1,0,0.1,0.5,0.1,0.6c0.1,0.6,0.7,0.9,1.3,0.7c0,0.7,0.3,1.7,1.2,1.4c0.1,0.7,0.4,1.8,1.3,1.5c0,1.1,0.8,1.7,1.9,1.3
				c0,0.7,0.1,1.6,0.8,1.9c0.8,0.4,1.5-0.5,1.8-1.1c0,1.2,0.5,3,2,3c1.5,0,2-1.8,2-3c0.3,0.6,0.9,1.4,1.7,1.2
				c0.8-0.3,0.9-1.2,0.9-1.9c1,0.4,1.9-0.1,1.9-1.3c0.9,0.3,1.3-0.8,1.4-1.5c0.9,0.3,1.2-0.7,1.2-1.4c0.4,0.1,0.9,0,1.1-0.3
				c0.1-0.2,0.2-1,0.3-1c0.2,0,0.4-0.2,0.6-0.4c0.6-0.9-0.6-2.5-1.2-3.1c-0.7-0.9-1.4-1.7-2.2-2.4c-0.1-0.1-0.6-0.4-0.6-0.5
				c0-0.3-0.1-0.5-0.2-0.7c-0.4-0.9-1.1-1.4-2-1.2C66.3,69.6,65.1,70.4,64,71.2L64,71.2z"/>
			<path d="M59,39.2c0.2,0.4,0.4,0.8,0.9,1c0.5,0.2,1,0.3,1.3,0.7c0.7,0.7-0.1,1.9-1,1.9c-0.1-0.3,0.5-0.4,0.7-0.6
				c0.3-0.3,0.5-0.8,0.1-1.1c-0.3-0.4-0.8-0.5-1.3-0.6c-0.5-0.2-0.8-0.6-1-1.1C58.9,39.3,59,39.2,59,39.2C59.1,39.4,59,39.2,59,39.2
				z"/>
			<path d="M60.2,38.3c-0.1,0.4-0.3,1.1,0.1,1.4c0.2,0.2,0.7,0.4,1,0.2c0.2-0.1,0.3-0.4,0.5-0.5c0.4-0.3,1.1-0.1,1.5,0.3
				c0.1,0.1,0.2,0.4,0.4,0.4c0.2,0.1,0.4,0,0.3,0.3c-0.5,0-0.6-0.3-0.9-0.6c-0.4-0.4-1-0.4-1.4,0.1c-0.4,0.5-1.4,0.3-1.7-0.2
				C59.8,39.3,59.8,38.4,60.2,38.3C60.2,38.4,60.2,38.3,60.2,38.3z"/>
			<path d="M61.3,39.9c0.5,0.2,0.5,0.6,1.1,0.7c0.3,0,0.5,0,0.7-0.2c0.1-0.1,0.3-0.3,0.5-0.3c0.2,0.5-0.8,0.8-1.2,0.8
				C62,40.8,61,40.3,61.3,39.9C61.5,40,61.3,39.9,61.3,39.9z"/>
			<path d="M81.3,45.1c-0.7,0.4-1.6,0.7-2,1.4c-0.5,0.7-0.1,1.5,0.1,2.3c0.4,1.2,1,3.1-0.2,4c-0.3-0.2,0.1-0.4,0.2-0.6
				c0.2-0.3,0.2-0.6,0.3-1c0-0.8-0.2-1.6-0.5-2.4c-0.2-0.8-0.6-1.6-0.1-2.4c0.4-0.8,1.4-1.2,2.1-1.6C81.2,45,81.2,45,81.3,45.1
				C80.5,45.5,81.3,45.1,81.3,45.1z"/>
			<path d="M82.5,46.6c0.3,0.5,0.5,1.1,0.4,1.7c-0.1,0.4-0.7,0.8-0.6,1.1c0.1,0.8-0.1,1.7-0.9,2.1c-0.2-0.2,0.1-0.3,0.3-0.5
				c0.2-0.2,0.3-0.4,0.4-0.6c0.1-0.4,0.1-0.8,0-1.1c-0.1-0.3,0.5-0.6,0.6-0.9c0.1-0.3,0.2-0.6,0.1-0.9
				C82.6,47.2,82.1,46.7,82.5,46.6C82.7,47,82.5,46.6,82.5,46.6z"/>
			<path d="M81.7,52c0.1,1.2-0.8,2.1-1.9,2.3c-0.2,0-0.4-0.1-0.4,0.2c0,0.1,0,0.3-0.1,0.4c-0.1,0.3-0.2,0.6-0.5,0.9
				c-0.4,0.3-0.9,0.4-1.3,0.4c-0.3,0-0.3,0.3-0.5,0.5c-0.6,0.8-1.6,0.9-2.5,0.7c0-0.3,0.2-0.2,0.4-0.1c0.2,0,0.5,0,0.7,0
				c0.4,0,0.7-0.2,0.9-0.4c0.2-0.2,0.3-0.4,0.4-0.6c0,0,0.1-0.3,0.1-0.3c0.1-0.1,0.5,0,0.6,0c0.2,0,0.4,0,0.6-0.1
				c0.3-0.1,0.5-0.3,0.7-0.6c0.2-0.3,0.2-0.7,0.2-1.1c0.6,0,1.3-0.1,1.8-0.6c0.3-0.3,0.4-0.6,0.5-1C81.5,52.3,81.4,51.9,81.7,52
				C81.7,52,81.7,52,81.7,52z"/>
			<path d="M85.6,45.3c0.7-0.1,1.4-0.3,2.1-0.5c0.8-0.2,1.6-0.4,2.3-0.8c0.6-0.3,1.2-0.9,1.3-1.5c0.1-0.4-0.1-0.7-0.3-0.9
				c-0.2-0.2-0.6-0.2-0.4-0.5c1.7,0.7,0.7,2.5-0.5,3.1c-0.7,0.4-1.4,0.5-2.1,0.7c-0.8,0.2-1.6,0.4-2.4,0.6
				C85.6,45.4,85.6,45.4,85.6,45.3C86.1,45.2,85.6,45.3,85.6,45.3z"/>
			<path d="M85.3,47.6c1.1-0.1,2.3-0.2,3.4-0.6c0.6-0.2,1.2-0.6,1.4-1.2c0.1-0.4,0-0.7-0.3-1c-0.2-0.2-0.5-0.2-0.3-0.5
				c0.7,0.3,1.1,1.1,0.7,1.8c-0.3,0.6-0.9,1-1.6,1.2c-0.6,0.2-1.3,0.4-2,0.4C86.3,47.7,85.2,48,85.3,47.6L85.3,47.6z"/>
			<path d="M83.9,49.8c1.2-0.1,2.6,0.2,3.6-0.5c0.5-0.3,0.8-0.9,0.6-1.5c-0.1-0.2-0.5-0.5-0.2-0.7c0.9,0.7,0.4,2-0.5,2.4
				c-0.6,0.3-1.3,0.4-2,0.4c-0.3,0-0.6,0-0.9,0C84.4,50,83.9,50.1,83.9,49.8C84.1,49.8,83.9,49.8,83.9,49.8z"/>
			<path d="M82.9,52.3c1-0.1,2.1-0.1,3-0.6c0.4-0.3,0.7-0.8,0.7-1.3c0-0.3-0.4-0.5-0.1-0.7c0.9,0.6,0.1,1.9-0.6,2.3
				c-0.5,0.3-1.1,0.4-1.7,0.4c-0.3,0-0.6,0.1-0.8,0.1C83.1,52.5,82.8,52.6,82.9,52.3L82.9,52.3z"/>
			<path d="M81,54.3c1,0.2,2.2,0.1,3.2-0.4c0.4-0.2,0.8-0.6,1-1c0.1-0.3-0.4-0.6-0.1-0.8c0.9,0.7-0.2,1.8-0.9,2.1
				c-1,0.4-2.1,0.5-3.1,0.3C81,54.4,81,54.3,81,54.3C81.6,54.4,81,54.3,81,54.3z"/>
			<path d="M74,59.8c0.5,0.1,1.2,0.1,1.7-0.1c0.2-0.1,0.4-0.3,0.5-0.5c0.1-0.2,0-0.6,0.3-0.5c0,1.4-1.5,1.6-2.6,1.4
				C74,60,74,59.9,74,59.8C74.2,59.9,74,59.8,74,59.8z"/>
			<path d="M76.2,59.3c0.5,0.2,1.2,0.1,1.5-0.4c0.2-0.2,0.3-0.5,0.3-0.8c0-0.2-0.1-0.5,0.3-0.4c0,1.2-0.9,2.2-2.2,1.7
				C76.2,59.5,76.2,59.4,76.2,59.3C76.4,59.4,76.2,59.3,76.2,59.3z"/>
			<path d="M78.2,58c0.4,0,1,0.2,1.3-0.2c0.2-0.2,0.3-0.4,0.3-0.6c0-0.2-0.1-0.6,0.3-0.5c0,0.5-0.1,1.2-0.6,1.5
				C79.3,58.3,78.1,58.4,78.2,58C78.3,58,78.2,58,78.2,58z"/>
			<path d="M80.1,56.8c0.6-0.1,1.3-0.5,1.6-1c0.2-0.3,0.3-0.6,0.1-0.9c-0.1-0.2-0.5-0.4-0.2-0.6c1.4,1.1-0.2,2.5-1.4,2.7
				C80.1,57,80.1,56.9,80.1,56.8C80.3,56.8,80.1,56.8,80.1,56.8z"/>
			<path d="M76,60.8c0.1,0.4,0,0.8,0,1.2c-0.1,0-0.2,0-0.2,0c0-0.2,0-0.5,0-0.7C75.8,61.1,75.7,60.8,76,60.8
				C76.1,61.2,76,60.8,76,60.8z"/>
			<path d="M77.9,60.2c0.1,0.3,0.4,0.7,0.6,0.9c0.1,0.2,0.4,0.3,0.1,0.5c-0.3-0.3-0.8-0.9-0.9-1.4C77.7,60.2,77.8,60.1,77.9,60.2
				C77.9,60.6,77.9,60.2,77.9,60.2z"/>
			<path d="M79.6,59.3c0.2,0.3,0.5,0.6,0.7,0.8c0.2,0.2,0.7,0.3,0.5,0.6c-0.5-0.2-1.2-0.8-1.4-1.3C79.4,59.4,79.5,59.3,79.6,59.3
				C79.6,59.5,79.6,59.3,79.6,59.3z"/>
			<path d="M80.9,57.5c0.5,0.4,1.5,0.7,2.1,0.8c-0.3,0.2-0.5,0.1-0.8,0c-0.5-0.2-1.1-0.3-1.4-0.6C80.8,57.6,80.9,57.5,80.9,57.5
				C81.2,57.7,80.9,57.5,80.9,57.5z"/>
			<path d="M82,55.6c0.6,0.4,1.6,0,2.2,0.4c-0.1,0.3-0.7,0.1-0.9,0.1c-0.4,0-1,0-1.4-0.2C81.9,55.7,81.9,55.6,82,55.6
				C82.1,55.7,82,55.6,82,55.6z"/>
			<path d="M83.8,54.1c0.3,0.1,0.7,0.1,1,0c0.4,0,0.9-0.1,1.3-0.1c0.4-0.1,0.7-0.2,1.1-0.3c0.3-0.1,0.9-0.2,1.2,0
				c-0.1,0.3-0.5,0.2-0.8,0.2c-0.4,0-0.8,0.2-1.3,0.3c-0.4,0.1-0.9,0.1-1.3,0.2c-0.4,0-1,0.1-1.4-0.1C83.7,54.3,83.7,54.2,83.8,54.1
				C83.9,54.2,83.8,54.1,83.8,54.1z"/>
			<path d="M85.2,52.4c1.3-0.1,2.5-0.4,3.8-0.6c0.6-0.1,1.2-0.2,1.9-0.4c0.2,0,0.8-0.3,0.7,0.1c-2.1,0.5-4.2,0.9-6.3,1.1
				C85.2,52.5,85.2,52.5,85.2,52.4C86.5,52.3,85.2,52.4,85.2,52.4z"/>
			<path d="M86.6,50.2c1.3-0.2,2.6-0.4,3.9-0.6c1-0.2,1.9-0.3,2.9-0.6c0.4-0.1,0.9-0.2,1.3-0.3c0.2-0.1,0.6-0.3,0.6,0
				c-1.5,0.6-3.2,0.8-4.8,1.1c-1.3,0.2-2.6,0.4-3.9,0.6C86.6,50.4,86.6,50.3,86.6,50.2C87.2,50.1,86.6,50.2,86.6,50.2z"/>
			<path d="M88.3,47.9c2.4-0.3,4.7-0.8,7.1-1.4c1.3-0.3,2.7-0.7,4-1.2c0.2,0.2,0,0.2-0.2,0.3c-0.3,0.1-0.7,0.2-1,0.3
				c-0.8,0.3-1.6,0.5-2.4,0.7c-2.4,0.6-4.9,1.1-7.4,1.4C88.4,48.1,88.3,48,88.3,47.9C89.4,47.7,88.3,47.9,88.3,47.9z"/>
			<path d="M90.2,45.3c2.3-0.3,4.6-0.8,6.9-1.4c1.1-0.3,2.3-0.6,3.4-0.9c0.8-0.2,1.6-0.6,2.4-0.7c0.1,0.4-1.5,0.7-1.8,0.8
				c-1.1,0.4-2.3,0.7-3.5,1c-2.4,0.6-4.9,1.2-7.3,1.5C90.2,45.4,90.2,45.4,90.2,45.3C91,45.2,90.2,45.3,90.2,45.3z"/>
			<path d="M91,43.2c2.4-0.4,4.7-1,7-1.6c1.1-0.3,2.3-0.6,3.4-0.9c0.5-0.2,1-0.3,1.5-0.5c0.4-0.2,0.9-0.4,1.3-0.5c0,0.5-1.6,0.8-2,1
				c-1.2,0.4-2.4,0.8-3.6,1.1c-2.5,0.6-5,1.3-7.6,1.7C91,43.4,91,43.3,91,43.2C91.8,43.1,91,43.2,91,43.2z"/>
			<path d="M71.1,69.4c0.7,0.2,1,0.8,1.6,0.9c-0.3-0.3-0.3-0.7-0.4-1.1c-0.1-0.3-0.5-0.7-0.2-0.9c0.5,0.4,0.4,1,0.6,1.5
				c0.1,0.3,0.4,0.5,0.6,0.7c-0.4,0-0.8,0.1-1.1-0.1c-0.3-0.1-0.5-0.4-0.7-0.6C71.4,69.7,71,69.7,71.1,69.4
				C71.6,69.5,71.1,69.4,71.1,69.4z"/>
			<path d="M73.3,67.4c0.7,0.1,1.1,0.8,1.9,0.9c-0.4-0.4-0.4-0.7-0.6-1.2c-0.1-0.3-0.6-0.8-0.4-1c0.6,0.4,0.5,1.2,0.8,1.7
				c0.2,0.3,0.5,0.5,0.7,0.7c-0.5,0-1,0-1.4-0.2c-0.2-0.1-0.4-0.3-0.6-0.5C73.6,67.7,73.2,67.7,73.3,67.4
				C73.5,67.4,73.3,67.4,73.3,67.4z"/>
			<path d="M73.8,70.5c0.2,0,0.5,0.3,0.6,0.4c0.3,0.2,0.5,0.3,0.8,0.3c-0.3-0.3-0.3-0.6-0.4-1c-0.1-0.2-0.4-0.6-0.1-0.8
				c0.4,0.4,0.2,1.1,0.6,1.5c0.2,0.2,0.5,0.4,0.7,0.5c-0.4,0-0.7,0-1.1,0C74.6,71.4,73.7,70.9,73.8,70.5
				C74,70.5,73.8,70.5,73.8,70.5z"/>
			<path d="M74.8,74c0.1-0.5,0-1.2-0.2-1.7c0.7-0.2,1.1,0.9,1.8,1.1c-0.2-0.6-0.1-1.3-0.3-1.9c0.3,0.2,0.5,0.3,0.8,0.5
				c0.3,0.1,0.5,0.3,0.8,0.4c0.2,0.1,0.5,0.1,0.3,0.4c-0.6-0.2-1.1-0.5-1.6-0.8c0,0.6,0.1,1.2,0.3,1.8c-0.4-0.1-0.7-0.2-1-0.4
				c-0.3-0.2-0.5-0.6-0.9-0.8c0.1,0.5,0.2,1,0.1,1.5C75,74,74.9,74,74.8,74C74.9,73.8,74.8,74,74.8,74z"/>
			<path d="M82.3,75.8c1.1,0.4,1.1,1.7,1.1,2.7c-0.4,0.1-0.3-0.9-0.3-1.1c0-0.4-0.1-0.7-0.4-1C82.6,76.2,82.1,76.1,82.3,75.8
				C82.5,75.9,82.3,75.8,82.3,75.8z"/>
			<path d="M82.1,74.6c0.7,0.3,1.4,0.7,1.8,1.4c0.2,0.3,0.8,1.8,0.3,1.9c0-0.7-0.2-1.5-0.6-2c-0.2-0.3-0.6-0.5-0.9-0.7
				C82.4,75,81.9,74.9,82.1,74.6C82.4,74.7,82.1,74.6,82.1,74.6z"/>
			<path d="M64.2,72.5c0.1,1,0.2,4.1-1.4,4.1c-0.1-0.3,0.3-0.3,0.5-0.5c0.3-0.3,0.4-0.8,0.5-1.2c0.1-0.5,0.1-1,0.1-1.5
				C64,73.1,63.8,72.4,64.2,72.5C64.2,72.7,64.2,72.5,64.2,72.5z"/>
			<path d="M65.1,72.4c0.4,0.5,0.8,1.3,0.6,2c-0.2,0.7-1.2,1.2-1.9,0.9c0.1-0.3,0.5-0.1,0.7-0.1c0.4-0.1,0.8-0.3,0.9-0.7
				c0.1-0.4,0-0.8-0.2-1.2C65.3,73,64.8,72.5,65.1,72.4C65.3,72.6,65.1,72.4,65.1,72.4z"/>
			<path d="M66.2,71.8c0.5,0.4,0.9,1,0.8,1.7c-0.1,0.7-0.6,1.2-1.3,1c0-0.4,0.4-0.1,0.6-0.2c0.3-0.1,0.5-0.5,0.5-0.9
				c0-0.4-0.1-0.7-0.3-1C66.3,72.2,65.9,72,66.2,71.8C66.4,72,66.2,71.8,66.2,71.8z"/>
			<path d="M67,71.1c0.5,0.4,0.9,1,0.9,1.6c0,0.5-0.5,1.2-1.1,1.1c-0.1-0.3,0.1-0.2,0.3-0.3c0.3-0.2,0.5-0.5,0.5-0.8
				c0-0.3-0.1-0.6-0.3-0.9C67.2,71.6,66.7,71.3,67,71.1C67.3,71.3,67,71.1,67,71.1z"/>
			<path d="M68.2,70.2c0.3,0.5,0.7,0.9,0.8,1.4c0.1,0.6-0.6,1.4-1.2,1.4c-0.1-0.2,0.1-0.2,0.2-0.3c0.3-0.1,0.6-0.5,0.7-0.8
				c0.2-0.6-0.4-1.2-0.7-1.6C68,70.3,68.1,70.3,68.2,70.2C68.2,70.3,68.2,70.2,68.2,70.2z"/>
			<path d="M69.9,71.3c-0.2,0.3-0.7,0.6-1.1,0.7c-0.1-0.3,0.2-0.3,0.4-0.4C69.5,71.4,69.7,71.1,69.9,71.3
				C69.8,71.4,69.9,71.3,69.9,71.3z"/>
			<path d="M63.7,75.9c0.7,2.7,1,5.4,1.2,8.2c-0.4,0.2-0.3-0.7-0.3-1c-0.1-0.9-0.1-1.8-0.2-2.7c-0.1-0.9-0.2-1.8-0.4-2.6
				c-0.1-0.3-0.1-0.6-0.2-0.9C63.7,76.6,63.4,76.1,63.7,75.9C63.8,76.2,63.7,75.9,63.7,75.9z"/>
			<path d="M64.6,75.2c0.8,1.6,1.7,3.1,2.3,4.8c0.3,1.1,0.4,2.2,0.7,3.2c-0.4,0.2-0.3-0.5-0.4-0.7c-0.1-0.7-0.3-1.4-0.4-2.1
				c-0.5-1.8-1.5-3.4-2.3-5.1C64.5,75.3,64.5,75.2,64.6,75.2C64.8,75.6,64.6,75.2,64.6,75.2z"/>
			<path d="M69,80.1c0.1,0.4,0.7,1.7,0.2,2c-0.2-2.8-2.2-5.3-3.6-7.5c0.1,0,0.1-0.1,0.2-0.1c0,0.1,0,0,0,0c0.7,1.1,1.5,2.2,2.2,3.4
				C68.3,78.5,68.7,79.3,69,80.1C69.1,80.5,68.7,79.3,69,80.1z"/>
			<path d="M66.9,73.6c1,1.3,2.1,2.7,2.8,4.2c0.3,0.6,0.5,1.3,0.7,2c0.1,0.3,0.3,0.6,0,0.8c-0.3-1.1-0.6-2.1-1.2-3.1
				c-0.4-0.8-1-1.5-1.5-2.2c-0.2-0.3-0.5-0.7-0.7-1C67,74.1,66.6,73.8,66.9,73.6C67.3,74.1,66.9,73.6,66.9,73.6z"/>
			<path d="M67.8,72.8c1.7,1.7,3.3,3.8,4.1,6.2c-0.3,0.2-0.4-0.4-0.4-0.6c-0.3-0.7-0.6-1.4-1.1-2c-0.5-0.8-1.1-1.5-1.7-2.2
				c-0.2-0.3-0.5-0.6-0.7-0.8C67.8,73.2,67.5,73,67.8,72.8C68.1,73.1,67.8,72.8,67.8,72.8z"/>
			<path d="M68.9,71.8c1.1,1,2.3,2.1,3.1,3.4c0.5,0.8,0.8,1.7,1.3,2.6c0,0-0.2,0.1-0.2,0.1c-0.3-0.9-0.8-1.9-1.4-2.7
				c-0.4-0.6-1-1.2-1.5-1.7c-0.3-0.3-0.6-0.7-1-1C69,72.2,68.6,72,68.9,71.8C69.2,72,68.9,71.8,68.9,71.8z"/>
			<path d="M61.4,72.5c-0.1,1-0.2,4.1,1.4,4.1c0.1-0.3-0.3-0.3-0.5-0.5c-0.3-0.3-0.4-0.8-0.5-1.2c-0.1-0.5-0.1-1-0.1-1.5
				C61.6,73.1,61.8,72.4,61.4,72.5C61.4,72.7,61.4,72.5,61.4,72.5z"/>
			<path d="M60.4,72.4c-0.4,0.5-0.8,1.3-0.6,2c0.2,0.7,1.2,1.2,1.9,0.9c-0.1-0.3-0.5-0.1-0.7-0.1c-0.4-0.1-0.8-0.3-0.9-0.7
				c-0.1-0.4,0-0.8,0.2-1.2C60.3,73,60.8,72.5,60.4,72.4C60.3,72.6,60.4,72.4,60.4,72.4z"/>
			<path d="M59.4,71.8c-0.5,0.4-0.9,1-0.8,1.7c0.1,0.7,0.6,1.2,1.3,1c0-0.4-0.4-0.1-0.6-0.2c-0.3-0.1-0.4-0.4-0.5-0.6
				c-0.1-0.4,0-0.8,0.2-1.1C59.2,72.3,59.7,72,59.4,71.8C59.2,72,59.4,71.8,59.4,71.8z"/>
			<path d="M58.5,71.1c-0.5,0.4-0.9,1-0.9,1.6c0,0.5,0.5,1.2,1.1,1.1c0.1-0.3-0.1-0.2-0.3-0.3c-0.3-0.2-0.5-0.5-0.5-0.8
				c0-0.3,0.1-0.6,0.3-0.9C58.4,71.6,58.9,71.3,58.5,71.1C58.3,71.3,58.5,71.1,58.5,71.1z"/>
			<path d="M57.4,70.2c-0.3,0.5-0.7,0.9-0.8,1.4c-0.1,0.6,0.5,1.4,1.2,1.4c0.1-0.2-0.1-0.2-0.2-0.3c-0.3-0.1-0.6-0.5-0.7-0.8
				c-0.2-0.6,0.4-1.2,0.7-1.6C57.6,70.3,57.5,70.3,57.4,70.2C57.4,70.3,57.4,70.2,57.4,70.2z"/>
			<path d="M55.7,71.3c0.2,0.3,0.7,0.6,1.1,0.7c0.1-0.3-0.2-0.3-0.4-0.4C56.1,71.4,55.9,71.1,55.7,71.3
				C55.8,71.4,55.7,71.3,55.7,71.3z"/>
			<path d="M61.9,75.9c-0.7,2.7-1,5.4-1.2,8.2c0.4,0.2,0.3-0.7,0.3-1c0.1-0.9,0.1-1.8,0.2-2.7c0.1-0.9,0.2-1.8,0.4-2.6
				c0.1-0.3,0.1-0.6,0.2-0.9C61.9,76.6,62.2,76.1,61.9,75.9C61.8,76.2,61.9,75.9,61.9,75.9z"/>
			<path d="M61,75.2c-0.8,1.6-1.8,3.2-2.3,5c-0.2,0.7-0.3,1.4-0.5,2.1c0,0.2-0.4,1,0.1,1c0.1-1.1,0.4-2.2,0.7-3.2
				c0.5-1.7,1.5-3.2,2.2-4.8C61.1,75.3,61,75.2,61,75.2C60.8,75.6,61,75.2,61,75.2z"/>
			<path d="M59.8,74.4c-0.7,1.1-1.5,2.2-2.2,3.4c-0.4,0.7-0.8,1.5-1,2.3c-0.1,0.4-0.7,1.7-0.2,2c0.2-2.8,2.2-5.3,3.6-7.5
				C60,74.5,59.9,74.4,59.8,74.4C59.8,74.5,59.8,74.4,59.8,74.4z"/>
			<path d="M58.6,73.6c-1,1.3-2.1,2.7-2.8,4.2c-0.3,0.6-0.5,1.3-0.7,2c-0.1,0.3-0.3,0.6,0,0.8c0.3-1.1,0.6-2.1,1.2-3.1
				c0.4-0.8,1-1.5,1.5-2.2c0.2-0.3,0.5-0.7,0.7-1C58.6,74.1,59,73.8,58.6,73.6C58.3,74.1,58.6,73.6,58.6,73.6z"/>
			<path d="M57.8,72.8c-1.7,1.7-3.3,3.8-4.1,6.2c0.3,0.2,0.4-0.4,0.4-0.6c0.3-0.7,0.6-1.4,1.1-2c0.5-0.8,1.1-1.5,1.7-2.2
				c0.2-0.3,0.5-0.6,0.7-0.8C57.7,73.2,58.1,73,57.8,72.8C57.5,73.1,57.8,72.8,57.8,72.8z"/>
			<path d="M56.7,71.8c-1.1,1-2.3,2.1-3.1,3.4c-0.5,0.8-0.9,1.7-1.2,2.6c0.3,0.2,0.4-0.4,0.5-0.6c0.3-0.6,0.6-1.2,0.9-1.8
				c0.4-0.7,1-1.2,1.5-1.8c0.3-0.3,0.7-0.7,1-1C56.4,72.3,57,72,56.7,71.8C56.4,72,56.7,71.8,56.7,71.8z"/>
			
				<path fill-rule="evenodd" clip-rule="evenodd" fill="#FFD31E" stroke="#000000" stroke-width="0.2096" stroke-miterlimit="2.4142" d="
				M52,51c-0.8-0.1-1.5,0.4-2.2,0.7c-0.5,0.1-1-0.2-1.1-0.7c-0.1-0.6,0.7-1,1-1.5c0.4-0.7,0.6-1.4,0.5-2.2c-0.2-1.3-1.3-2-2.4-2.4
				c-1-0.4-2.1-0.8-3.1-1.1c-1.7-0.6-3.3-1.1-5-1.6c-1.1-0.3-2.1-0.6-3.2-0.8c-0.6-0.1-1.1-0.1-1.7-0.2c-2.2-0.6-4.5-1.1-6.7-1.9
				c-1.3-0.4-2.5-0.8-3.7-1.3c-0.9-0.3-2.1-1-3.1-0.8c-1.4,0.4-0.5,2,0.2,2.6c0.2,0.1,0.3,0.1,0.2,0.3c-0.1,0.3-0.1,0.6-0.1,0.9
				c0.1,0.5,0.5,0.9,0.9,1.2c0.3,0.2,0.5,0.1,0.5,0.4c-0.1,0.5,0.2,1,0.5,1.4c0.7,0.8,1.9,1.2,2.9,1.4c-0.6,2.1,2.8,3,4.2,3.3
				c-0.7,1.9,2.6,2.5,3.7,2.7c-0.5,1.8,2,2.4,3.2,2.5c-0.3,2,3,2.2,4.2,2.2c-0.5,1.2-0.2,2.3,1.3,2.3c-0.3,0.9-0.1,1.9,0.9,2.2
				c0.1,0,1.1,0.1,1.1,0.1c0,0.2,0.1,0.3,0.1,0.5c0.4,0.8,1.4,0.6,2.1,0.4c0.3,0.9,1.2,1.3,2.1,0.9c0.2-0.1,0.5-0.4,0.7-0.3
				c0.2,0.2,0.4,0.3,0.6,0.4c0.7,0.4,1.3,0,1.7-0.7c0.7-1.3,1-2.9,1-4.4C53.3,55.3,53,53,52,51C51.3,51,52,51,52,51z"/>
			<path d="M44.6,45.1c0.7,0.4,1.6,0.7,2,1.4c0.5,0.7,0.1,1.5-0.1,2.3c-0.4,1.2-1,3.1,0.2,4c0.3-0.2-0.1-0.4-0.2-0.6
				c-0.2-0.3-0.2-0.6-0.3-1c0-0.8,0.2-1.6,0.5-2.4c0.2-0.8,0.6-1.6,0.2-2.4c-0.4-0.8-1.4-1.2-2.1-1.6C44.6,45,44.6,45,44.6,45.1
				C45.3,45.5,44.6,45.1,44.6,45.1z"/>
			<path d="M43.3,46.6c-0.3,0.5-0.6,1.1-0.4,1.7c0.1,0.4,0.7,0.8,0.6,1.1c-0.1,0.8,0.1,1.7,0.9,2.1c0.2-0.2-0.1-0.3-0.3-0.5
				c-0.2-0.2-0.3-0.4-0.4-0.6c-0.1-0.4-0.1-0.8,0-1.1c0.1-0.3-0.5-0.6-0.6-0.9c-0.1-0.3-0.2-0.6-0.1-0.9
				C43.2,47.2,43.7,46.7,43.3,46.6C43.1,47,43.3,46.6,43.3,46.6z"/>
			<path d="M44.1,52c-0.1,1.2,0.8,2.1,1.9,2.3c0.2,0,0.4-0.1,0.4,0.2c0,0.1,0,0.3,0.1,0.4c0.1,0.3,0.2,0.6,0.5,0.9
				c0.4,0.3,0.9,0.4,1.3,0.4c0.3,0,0.3,0.3,0.5,0.5c0.6,0.8,1.6,0.9,2.5,0.7c0-0.3-0.2-0.2-0.4-0.1c-0.2,0-0.5,0-0.7,0
				c-0.4,0-0.7-0.2-0.9-0.4c-0.2-0.2-0.3-0.4-0.4-0.6c0,0-0.1-0.3-0.1-0.3c-0.1-0.1-0.5,0-0.6,0c-0.2,0-0.4,0-0.6-0.1
				c-0.3-0.1-0.5-0.3-0.7-0.6c-0.2-0.3-0.2-0.7-0.2-1.1c-0.6,0-1.3-0.1-1.8-0.6c-0.3-0.3-0.4-0.6-0.5-1C44.3,52.3,44.5,51.9,44.1,52
				C44.1,52,44.1,52,44.1,52z"/>
			<path d="M40.2,45.3c-0.7-0.1-1.4-0.3-2.1-0.5c-0.8-0.2-1.6-0.4-2.3-0.8c-0.6-0.3-1.2-0.9-1.3-1.5c-0.1-0.4,0.1-0.7,0.3-0.9
				c0.2-0.2,0.6-0.2,0.4-0.5c-1.7,0.7-0.7,2.5,0.5,3.1c0.7,0.4,1.4,0.5,2.1,0.7c0.8,0.2,1.6,0.4,2.4,0.6
				C40.2,45.4,40.2,45.4,40.2,45.3C39.7,45.2,40.2,45.3,40.2,45.3z"/>
			<path d="M40.5,47.6c-1.1-0.1-2.3-0.2-3.4-0.6c-0.6-0.2-1.2-0.6-1.4-1.2c-0.1-0.4,0-0.7,0.3-1c0.2-0.2,0.5-0.2,0.3-0.5
				c-0.7,0.3-1.1,1.1-0.7,1.8c0.3,0.6,0.9,1,1.6,1.2c0.6,0.2,1.3,0.4,2,0.4C39.5,47.7,40.6,48,40.5,47.6L40.5,47.6z"/>
			<path d="M41.9,49.8c-1.2-0.1-2.6,0.2-3.6-0.5c-0.5-0.3-0.8-0.9-0.6-1.5c0.1-0.2,0.5-0.5,0.2-0.7c-0.9,0.7-0.4,2,0.5,2.4
				c0.6,0.3,1.3,0.4,2,0.4c0.3,0,0.6,0,0.9,0C41.5,50,42,50.1,41.9,49.8C41.7,49.8,41.9,49.8,41.9,49.8z"/>
			<path d="M43,52.3c-1-0.1-2.1-0.1-3-0.6c-0.4-0.3-0.7-0.8-0.7-1.3c0-0.3,0.4-0.5,0.1-0.7c-0.9,0.6-0.1,1.9,0.6,2.3
				c0.5,0.3,1.1,0.4,1.7,0.4c0.3,0,0.6,0.1,0.8,0.1C42.8,52.5,43,52.6,43,52.3L43,52.3z"/>
			<path d="M44.8,54.3c-1,0.2-2.2,0.1-3.1-0.4c-0.4-0.2-0.8-0.6-1-1c-0.1-0.3,0.4-0.6,0.1-0.8c-0.9,0.7,0.2,1.8,0.9,2.1
				c1,0.4,2.1,0.5,3.1,0.3C44.8,54.4,44.8,54.3,44.8,54.3C44.3,54.4,44.8,54.3,44.8,54.3z"/>
			<path d="M51.8,59.8c-0.5,0.1-1.2,0.1-1.7-0.1c-0.2-0.1-0.4-0.3-0.5-0.5c-0.1-0.2,0-0.6-0.3-0.5c0,1.4,1.5,1.6,2.6,1.4
				C51.9,60,51.9,59.9,51.8,59.8C51.6,59.9,51.8,59.8,51.8,59.8z"/>
			<path d="M49.6,59.3c-0.5,0.2-1.2,0.1-1.5-0.4c-0.2-0.2-0.3-0.5-0.3-0.8c0-0.2,0.1-0.5-0.3-0.4c0,1.2,0.9,2.2,2.2,1.7
				C49.6,59.5,49.6,59.4,49.6,59.3C49.5,59.4,49.6,59.3,49.6,59.3z"/>
			<path d="M47.6,58c-0.4,0-1,0.2-1.3-0.2c-0.2-0.2-0.3-0.4-0.3-0.6c0-0.2,0.1-0.6-0.3-0.5c0,0.5,0.1,1.2,0.6,1.5
				C46.5,58.3,47.8,58.4,47.6,58C47.5,58,47.6,58,47.6,58z"/>
			<path d="M45.8,56.8c-0.6-0.1-1.3-0.5-1.6-1c-0.2-0.3-0.3-0.6-0.1-0.9c0.1-0.2,0.5-0.4,0.3-0.6c-1.4,1.1,0.2,2.5,1.4,2.7
				C45.7,57,45.8,56.9,45.8,56.8C45.6,56.8,45.8,56.8,45.8,56.8z"/>
			<path d="M49.8,60.8c-0.1,0.4,0,0.8,0,1.2c0.3,0.1,0.2-0.2,0.2-0.4C50,61.4,50.1,60.8,49.8,60.8C49.7,61.2,49.8,60.8,49.8,60.8z"
				/>
			<path d="M47.9,60.2c-0.1,0.3-0.4,0.7-0.6,0.9c-0.1,0.2-0.4,0.3-0.1,0.5c0.3-0.3,0.8-0.9,0.9-1.4C48.1,60.2,48,60.1,47.9,60.2
				C47.9,60.6,47.9,60.2,47.9,60.2z"/>
			<path d="M46.3,59.3c-0.2,0.3-0.5,0.6-0.7,0.8c-0.2,0.2-0.8,0.3-0.5,0.6c0.5-0.2,1.2-0.8,1.4-1.3C46.4,59.4,46.3,59.3,46.3,59.3
				C46.2,59.5,46.3,59.3,46.3,59.3z"/>
			<path d="M44.9,57.5c-0.5,0.4-1.5,0.7-2.1,0.8c0.3,0.2,0.5,0.1,0.8,0c0.5-0.2,1.1-0.3,1.4-0.6C45,57.6,45,57.5,44.9,57.5
				C44.6,57.7,44.9,57.5,44.9,57.5z"/>
			<path d="M43.8,55.6c-0.6,0.4-1.6,0-2.2,0.4c0.1,0.3,0.7,0.1,0.9,0.1c0.4,0,1,0,1.4-0.2C43.9,55.7,43.9,55.6,43.8,55.6
				C43.7,55.7,43.8,55.6,43.8,55.6z"/>
			<path d="M42,54.1c-0.3,0.1-0.7,0.1-1,0c-0.4,0-0.9-0.1-1.3-0.1c-0.4-0.1-0.7-0.2-1.1-0.3c-0.3-0.1-0.9-0.2-1.2,0
				c0.1,0.3,0.5,0.2,0.8,0.2c0.4,0,0.8,0.2,1.3,0.3c0.4,0.1,0.9,0.1,1.3,0.2c0.4,0,1,0.1,1.4-0.1C42.1,54.3,42.1,54.2,42,54.1
				C41.9,54.2,42,54.1,42,54.1z"/>
			<path d="M40.6,52.4c-1.2-0.1-2.4-0.4-3.6-0.6c-0.9-0.2-1.8-0.3-2.7-0.5c-0.2,0.3,0.4,0.3,0.6,0.3c0.6,0.1,1.2,0.2,1.8,0.4
				c1.3,0.2,2.6,0.5,3.9,0.7C40.6,52.5,40.6,52.5,40.6,52.4C39.3,52.3,40.6,52.4,40.6,52.4z"/>
			<path d="M39.2,50.2c-1.3-0.2-2.6-0.4-3.9-0.6c-1-0.2-2-0.3-2.9-0.6c-0.4-0.1-0.9-0.2-1.3-0.3c-0.2-0.1-0.6-0.3-0.6,0
				c1.5,0.6,3.2,0.8,4.8,1.1c1.3,0.2,2.6,0.4,3.9,0.6C39.2,50.4,39.2,50.3,39.2,50.2C38.7,50.1,39.2,50.2,39.2,50.2z"/>
			<path d="M37.5,47.9c-2.4-0.3-4.7-0.8-7.1-1.4c-1.3-0.3-2.7-0.7-4-1.2c-0.2,0.2,0,0.2,0.2,0.3c0.3,0.1,0.7,0.2,1,0.3
				c0.8,0.3,1.6,0.5,2.4,0.7c2.4,0.6,4.9,1.1,7.4,1.4C37.4,48.1,37.5,48,37.5,47.9C36.4,47.7,37.5,47.9,37.5,47.9z"/>
			<path d="M35.6,45.3c-2.3-0.3-4.6-0.8-6.9-1.4c-1.1-0.3-2.3-0.6-3.4-0.9c-0.8-0.2-1.6-0.6-2.4-0.7c-0.1,0.4,1.5,0.7,1.8,0.8
				c1.1,0.4,2.3,0.7,3.5,1c2.4,0.6,4.9,1.2,7.3,1.5C35.6,45.4,35.6,45.4,35.6,45.3C34.8,45.2,35.6,45.3,35.6,45.3z"/>
			<path d="M34.8,43.2c-2.4-0.4-4.7-1-7-1.6c-1.1-0.3-2.3-0.6-3.4-0.9c-0.5-0.2-1-0.3-1.5-0.5c-0.4-0.2-0.9-0.4-1.3-0.5
				c0,0.5,1.6,0.8,2,1c1.2,0.4,2.4,0.8,3.6,1.1c2.5,0.6,5,1.3,7.6,1.7C34.8,43.4,34.9,43.3,34.8,43.2C34,43.1,34.8,43.2,34.8,43.2z"
				/>
			
				<path fill-rule="evenodd" clip-rule="evenodd" fill="#FFD31E" stroke="#000000" stroke-width="0.2096" stroke-miterlimit="2.4142" d="
				M52.9,62.8c-0.3,0.9-0.9,1.6-1.5,2.4c-0.4,0.6-1,1-1.5,1.5c-0.9,0.9-1.6,1.9-1.7,3.2c-0.1,1.1,0.1,2-0.9,2.7c0.1,0,0.2,0,0.3,0
				c-0.2,0.3-0.5,0.6-0.8,0.9c-0.1,0.1-1.1,0.7-0.5,0.7c-0.8,0-1.5,0-2.3,0c-1.1,0-2,0.5-2.6,1.4c-0.3,0.5-0.3,1.1-0.3,1.6
				c0,0.2,0,0.4,0.1,0.5c0.1,0.1,0.2,0,0.3,0.1c0.1,0.3,0.2,0.6,0.4,0.7c0.1,0,0.5,0.1,0.5,0.1c0,0.1,0.1,0.1,0.2,0.2
				c0.7,0.6,2.2,0.2,2.9-0.2c1-0.6,0.6-2,1.3-2.7c0.5-0.4,1.3-0.7,1.9-1c0.6-0.3,1.3-0.8,2-0.9c0,0.1,0.1,0.3,0.1,0.4
				c0.5-0.6,1.4-0.8,1.8-1.6c0.2-0.3,0.2-0.7,0.4-1c0.2-0.5,0.5-0.7,1-1c0.8-0.5,1.8-0.8,2.3-1.6c0.2-0.3,0-0.6-0.2-0.9
				C55.4,66.4,54.1,64.5,52.9,62.8C52.6,63.6,52.9,62.8,52.9,62.8z"/>
			<path d="M54.7,69.4c-0.7,0.2-1,0.8-1.6,0.9c0.3-0.3,0.3-0.7,0.4-1.1c0.1-0.3,0.5-0.7,0.2-0.9c-0.5,0.4-0.4,1-0.6,1.5
				c-0.1,0.3-0.4,0.5-0.6,0.7c0.4,0,0.8,0.1,1.1-0.1c0.3-0.1,0.5-0.4,0.7-0.6C54.4,69.7,54.8,69.7,54.7,69.4
				C54.2,69.5,54.7,69.4,54.7,69.4z"/>
			<path d="M52.5,67.4c-0.7,0.1-1.1,0.8-1.9,0.9c0.4-0.4,0.4-0.7,0.6-1.2c0.1-0.3,0.6-0.8,0.4-1c-0.6,0.4-0.5,1.2-0.8,1.7
				c-0.2,0.3-0.5,0.5-0.7,0.7c0.5,0,1,0,1.4-0.2c0.2-0.1,0.4-0.3,0.6-0.5C52.2,67.7,52.6,67.7,52.5,67.4
				C52.3,67.4,52.5,67.4,52.5,67.4z"/>
			<path d="M52,70.5c-0.2,0-0.5,0.3-0.6,0.4c-0.3,0.2-0.5,0.3-0.8,0.3c0.3-0.3,0.3-0.6,0.4-1c0.1-0.2,0.4-0.6,0.1-0.8
				c-0.4,0.4-0.2,1.1-0.6,1.5c-0.2,0.2-0.5,0.4-0.7,0.5c0.4,0,0.7,0,1.1,0C51.2,71.4,52.1,70.9,52,70.5C51.8,70.5,52,70.5,52,70.5z"
				/>
			<path d="M51,74c-0.1-0.5,0-1.2,0.2-1.7c-0.7-0.2-1.1,0.9-1.8,1.1c0.2-0.6,0.1-1.3,0.3-1.9c-0.3,0.2-0.5,0.3-0.8,0.5
				c-0.3,0.1-0.5,0.3-0.8,0.4c-0.2,0.1-0.5,0.1-0.3,0.4c0.6-0.2,1.1-0.5,1.6-0.8c0,0.6-0.1,1.2-0.3,1.8c0.4-0.1,0.7-0.2,1-0.4
				c0.3-0.2,0.5-0.6,0.9-0.8c-0.1,0.5-0.2,1-0.1,1.5C50.8,74,50.9,74,51,74C50.9,73.8,51,74,51,74z"/>
			<path d="M43.5,75.8c-1.1,0.4-1.1,1.7-1.1,2.7c0.4,0.1,0.3-0.9,0.3-1.1c0-0.4,0.1-0.7,0.4-1C43.2,76.2,43.7,76.1,43.5,75.8
				C43.3,75.9,43.5,75.8,43.5,75.8z"/>
			<path d="M43.7,74.6c-0.7,0.3-1.4,0.7-1.8,1.4c-0.2,0.3-0.8,1.8-0.3,1.9c0-0.7,0.2-1.5,0.6-2c0.2-0.3,0.6-0.5,0.9-0.7
				C43.4,75,43.9,74.9,43.7,74.6C43.4,74.7,43.7,74.6,43.7,74.6z"/>
		</g>
		
			<path fill-rule="evenodd" clip-rule="evenodd" fill="#FFFFFF" stroke="#000000" stroke-width="0.2096" stroke-miterlimit="2.4142" d="
			M63.2,74c4.2-2.3,8.2-5.4,10.1-9.9c1.7-4.1,1.7-8.6,1.7-13c0-1,0-2,0-3c-3.5,2-8.2,2-11.7-0.1c-3.5,2-8.2,2.1-11.7,0.1
			c0,4.6-0.3,9.4,0.9,13.8c1.2,4.4,4.1,7.8,7.9,10.3C61.2,72.9,62.2,73.4,63.2,74C75.5,67.3,63.2,74,63.2,74z"/>
		
			<path fill-rule="evenodd" clip-rule="evenodd" fill="#C20B18" stroke="#000000" stroke-width="0.2096" stroke-miterlimit="2.4142" d="
			M63.9,73.6c0.4-0.2,0.8-0.5,1.2-0.7c0.1-0.1,0.7-0.4,0.7-0.5c0-0.1,0-0.2,0-0.2c0-0.5,0-0.9,0-1.4c0-1.7,0-3.4,0-5.1
			c0-2.9,0-5.8,0-8.7c0-0.2-1.2-0.1-1.4-0.1c-0.4,0-0.5-0.1-0.5,0.3c0,1.2,0,2.4,0,3.6c0,3.6,0,7.2,0,10.7
			C63.9,72.3,63.9,72.9,63.9,73.6C64.6,73.2,63.9,73.6,63.9,73.6z M67.4,71.3c0.7-0.5,1.3-1,1.9-1.6c0-0.1,0-0.2,0-0.2
			c0-0.5,0-1,0-1.5c0-1.8,0-3.6,0-5.4c0-1.6,0-3.2,0-4.8c0-0.1,0.1-0.7,0-0.8c-0.1-0.1-1.8-0.1-1.9,0c-0.1,0.1,0,0.5,0,0.6
			c0,0.5,0,1.1,0,1.6c0,1.6,0,3.3,0,4.9C67.4,66.5,67.4,68.9,67.4,71.3C68.1,70.8,67.4,71.3,67.4,71.3z M70.9,67.9
			c0.5-0.6,1-1.3,1.4-2c0.2-0.3,0.5-0.7,0.5-1c0-0.6,0-1.2,0-1.8c0-1.8,0-3.5,0-5.3c0-0.2,0.1-0.9-0.1-0.9c-0.2,0-1.8,0-1.8,0
			c0,1.2,0,2.4,0,3.6C70.9,63,70.9,65.5,70.9,67.9C71.7,67,70.9,67.9,70.9,67.9z M53.4,64.6c0.5,1.1,1.1,2.1,1.9,3.1
			c0-2.9,0-5.8,0-8.8c0-0.6,0-1.1,0-1.7c0-0.1,0-0.2,0-0.3c0,0-0.8,0-0.9,0c-0.3,0-0.7,0-1,0c0,0,0,0.3,0,0.3c0,0.7,0,1.4,0,2.1
			C53.4,61.1,53.4,62.9,53.4,64.6C53.9,65.7,53.4,64.6,53.4,64.6z M56.9,69.5c0.6,0.6,1.2,1.1,1.9,1.6c0-2.7,0-5.4,0-8.1
			c0-1.6,0-3.3,0-4.9c0-0.4,0-0.7,0-1.1c0-0.1-1.3-0.1-1.5-0.1c-0.4,0-0.4-0.1-0.4,0.3c0,0.4,0,0.8,0,1.3c0,1.4,0,2.9,0,4.3
			C56.9,65,56.9,67.3,56.9,69.5C57.5,70.1,56.9,69.5,56.9,69.5z M60.4,72.3c0.6,0.4,1.2,0.8,1.9,1.2c0-5.5,0-10.9,0-16.4
			c0-0.3-0.7-0.2-1-0.2c-0.3,0-0.9-0.2-0.9,0.2c0,1.2,0,2.3,0,3.5c0,3.5,0,7,0,10.4C60.4,71.5,60.4,71.9,60.4,72.3
			C61,72.7,60.4,72.3,60.4,72.3z"/>
		
			<path fill-rule="evenodd" clip-rule="evenodd" fill="#0437A0" stroke="#000000" stroke-width="0.2096" stroke-miterlimit="2.4142" d="
			M74.8,56.9c0.2-2.9,0.2-5.9,0.2-8.8c-3.5,2-8.2,2-11.7-0.1c-3.5,2-8.2,2.1-11.7,0.1c0,0.7-0.1,8.8,0.2,8.8c0.8,0,1.5,0,2.3,0
			c3.5,0,6.9,0,10.4,0C67.8,56.9,71.3,56.9,74.8,56.9C75,54.3,74.8,56.9,74.8,56.9z"/>
		
			<path fill-rule="evenodd" clip-rule="evenodd" fill="#1971E4" stroke="#000000" stroke-width="0.1048" stroke-miterlimit="2.4142" d="
			M84.2,75.4c2.3-2.7,4.6-5.3,6.8-8c0.2,0.5,0.5,1,0.7,1.4c1.1-2.2,2.2-4.4,3.2-6.7c-2,1.3-4,2.6-6.1,3.9c0.4,0.2,0.9,0.5,1.3,0.7
			c-1.3,1.5-2.5,3-3.8,4.5c-0.8,0.9-1.5,1.8-2.3,2.7c-0.2,0.2-0.4,0.4-0.5,0.6C83.5,74.8,84.1,75.3,84.2,75.4L84.2,75.4z"/>
		
			<path fill-rule="evenodd" clip-rule="evenodd" fill="#1971E4" stroke="#000000" stroke-width="0.1048" stroke-miterlimit="2.4142" d="
			M87.1,62.5c0.5,0.1,1.1,0.1,1.5,0.4c-1.1,2.2-2.3,4.3-3.4,6.5c-0.7,1.4-1.5,2.8-2.2,4.2c-0.2,0.4-0.4,0.7-0.6,1.1
			c-0.2,0.3,0.3,0.4,0.6,0.5c2.1-4,4.3-7.9,6.4-11.9c0.4,0.4,0.8,0.7,1.1,1.2c0.5-2.4,1.1-4.8,1.6-7.2C90.4,59,88.7,60.7,87.1,62.5
			L87.1,62.5z"/>
		
			<path fill-rule="evenodd" clip-rule="evenodd" fill="#1971E4" stroke="#000000" stroke-width="0.1048" stroke-miterlimit="2.4142" d="
			M77.1,87.8c0.2-0.1,2.1-1.1,2.2-1c0.5,0.7,1,1.3,1.6,2c0.3-1.3,0.6-2.6,0.9-3.8c0.2-0.8,0.4-1.7,0.6-2.5c0.1-0.3,0.3-0.8,0.1-1
			c-0.3-0.3-0.6-0.5-0.9-0.8c-0.1-0.1-0.3,0.1-0.5,0.2c-0.7,0.4-1.4,0.8-2.1,1.2c-0.4,0.2-0.5,1.1-0.7,1.5c-0.2,0.5-0.6,1.1-0.7,1.7
			C77.4,86,77.3,86.9,77.1,87.8L77.1,87.8z"/>
		
			<path fill-rule="evenodd" clip-rule="evenodd" fill="#1971E4" stroke="#000000" stroke-width="0.1048" stroke-miterlimit="2.4142" d="
			M77.8,84.5c0.4,0.8,0.7,1.6,1.1,2.5c0.6-1.2,1.2-2.4,1.8-3.5c0.4-0.8,0.8-1.5,1.2-2.3c0.2-0.4,0.5-0.6,0.3-1
			c-0.2-0.3-0.4-0.6-0.5-0.9c-0.1-0.1,0.2-0.7,0.2-0.8c0.1-0.4,0.2-0.8,0.3-1.2c0.1-0.3,0-0.4-0.4-0.5c-0.4-0.1-0.4,0.2-0.6,0.5
			c-0.2,0.4-0.4,0.8-0.5,1.1c-0.2,0.3-1.4-0.1-1.7,0.1c-0.1,0.1-0.2,0.4-0.3,0.5c-0.2,0.3-0.3,0.6-0.5,1c-0.2,0.4-0.2,0.5-0.2,0.9
			C77.8,82.1,77.8,83.3,77.8,84.5L77.8,84.5z"/>
		
			<path fill-rule="evenodd" clip-rule="evenodd" fill="#1971E4" stroke="#000000" stroke-width="0.1048" stroke-miterlimit="2.4142" d="
			M72.8,85.3c0.9-1,1.7-2,2.6-3c0.6-0.7,1.1-1.3,1.7-1.9c0.2-0.3,0.4-0.7,0.8-0.6c0.5,0.1,1.3,0.5,1.6,0.1c0.5-0.7,1.1-1.3,1.6-2
			c0.2-0.3,0.4-0.6,0.7-0.8c0.2-0.2,0.2-0.2,0.4,0c0.2,0.2,0.4,0.5,0.2,0.8c-0.2,0.3-0.5,0.6-0.7,0.9c-0.4,0.5-0.8,1-1.2,1.5
			c-0.3,0.4-0.4,0.4-0.2,0.8c0.1,0.2,0.5,1.2,0.4,1.3c-0.2,0.2-0.4,0.5-0.6,0.7c-1.4,1.7-2.8,3.3-4.2,5c-0.1-0.9-0.3-1.8-0.4-2.7
			C75.4,85.2,73.1,85.3,72.8,85.3L72.8,85.3z"/>
		<path fill="#1971E4" stroke="#000000" stroke-width="0.1048" stroke-miterlimit="2.4142" d="M25.1,66.2c0.9-2.8,1.8-5.5,2.8-8.3
			c0.1-0.3,0.2-0.6,0.3-1c0.2-0.5,0.4-1.2-0.2-1.5c-0.3-0.1-0.2-0.4,0.1-0.4c0.8,0,1.7,0,2.5,0c0.3,0,0.7,0,1,0c0.3,0,0.3,0.3,0,0.4
			c-0.6,0.2-0.7,1.2-0.9,1.7c-0.2,0.5-0.3,0.9-0.5,1.4c-0.6,1.7-1.2,3.4-1.7,5.1c-0.5,1.5-1,2.9-1.5,4.4c-0.1,0.4-0.3,0.8-0.4,1.2
			c-0.1,0.2-0.1,0.5,0,0.7c0.1,0.2,0.5,0.4,0.5,0.4c0,0.4,0,0.3-0.3,0.3c-0.9,0-1.7,0-2.6,0c-0.3,0-0.6,0-1,0c0,0-0.1,0-0.1,0
			c-0.2-0.2,0.2-0.4,0.3-0.5c0.7-0.4-0.3-2.6-0.6-3.3c-1.1-3.2-2.2-6.3-3.3-9.5c-0.1-0.4-0.3-0.8-0.4-1.3c-0.1-0.2-0.1-0.4-0.2-0.6
			c-0.1-0.2-0.5-0.2-0.5-0.4c0-0.3,0.1-0.2,0.4-0.2c0.9,0,1.8,0,2.6,0c0.3,0,0.6,0,1,0c0,0,0.1,0,0.1,0c0.2,0.2-0.2,0.4-0.3,0.5
			c-0.7,0.5,0.4,2.9,0.6,3.6c0.6,1.7,1.2,3.5,1.7,5.2C24.7,65,24.9,65.6,25.1,66.2L25.1,66.2z"/>
		<path fill="#1971E4" stroke="#000000" stroke-width="0.1048" stroke-miterlimit="2.4142" d="M103,69.6c0-2.8,0-5.6,0-8.4
			c0-1.5,0-2.9,0-4.4c0-0.3,0.1-0.9-0.2-1.1c-0.2-0.2-0.4-0.1-0.4-0.5c0-0.1,0-0.1,0.1-0.1c0.3,0,0.7,0,1,0c0.8,0,1.6,0,2.4,0
			c0.1,0,0.1,0,0.1,0c0,0.3,0,0.3-0.3,0.5c-0.3,0.2-0.3,0.5-0.3,0.8c0,1.1,0,2.3,0,3.4c0,3.2,0,6.4,0,9.6c0,0.5,0,0.9,0.5,1.1
			c0.4,0.6-0.9,0.4-1.1,0.4c-0.7,0-1.5,0-2.2,0c-0.2,0-0.3,0.1-0.3-0.1c0-0.3,0-0.2,0.3-0.4C103,70.1,103,69.9,103,69.6L103,69.6z"
			/>
	</g>
	<path opacity="0.45" fill="#FFFFFF" d="M13,29.7v25.5C26.2,62.6,43.7,67,63,67s36.8-4.5,50-11.8V29.7H13z"/>
</g>
</svg>
