<?xml version="1.0" encoding="utf-8"?>
<!-- Generator: Adobe Illustrator 24.3.0, SVG Export Plug-In . SVG Version: 6.00 Build 0)  -->
<svg version="1.1" id="Layer_1" xmlns="http://www.w3.org/2000/svg" xmlns:xlink="http://www.w3.org/1999/xlink" x="0px" y="0px"
	 viewBox="0 0 126 126" enable-background="new 0 0 126 126" xml:space="preserve">
<g>
	<path fill="#C7EBF9" d="M101.8,48.2l0.9,0.6h0.8v-1.6l2.6-0.3l2.5,1.8h4.1l0.3-0.3c-0.4-1.4-0.9-2.7-1.4-4l-2.7,0l-1.3-1.5
		l-0.3-2.4l-1.4,0.7l-0.7,2.9l-2-2.1l-0.1-2l-1.9-1.6l-0.7-0.7h-2.2l0.7,2l2.7,1.5l0.5,0.5l-0.6,0.3l0,1.6l-1.3,0.5l-1.1-0.2l-0.7-1
		l1.8,0.1l0.5-0.7l-4-2.7l-0.3-1.1L95,40.2l-1.6-0.3l-2.5,3.2l-0.5,1.3l-1.6,0.1l-2.4,0L85,43.9l-0.4-2.8l0.5-1.3l2.4-0.5l2.6,0.5
		l0.3-1.5L89.3,38l0.4-2.3l2.6-0.4l1.8-2.6l1.9-0.3l1.7,0.3h0.6l-0.4-2.4L96,31.1l-0.7-1.8L94,29.1l-0.2-1.3l1-1.1l2.4-0.9l0.6-1.1
		C88.7,16.8,76.9,12,64,12c-11.2,0-21.6,3.6-30,9.8l2.6,0l1.1,0.6l2.2,0.5l0.2,0.8l3.4,0.1l-0.5-1.1L40,22.6l0.7-0.7l-0.3-0.8h-2.8
		l3-2.2h2.9l1.4,1.9l2.3,0.1l1.4-1.3l1,0.5l-1.9,1.8c0,0-2.6,0-2.5,0c0.1,0,0.2,1.8,0.2,1.8l3.1-0.1l0.3-0.8l2.2-0.1l0.3-1.3
		l-1.3-0.2l0.4-1.1l1-0.3l3.4,0.2L53,21.6l0.3,1.3l2,0.3l-0.1-2.4l1.9-1l3.3-0.4l4.8,2.1v1.8l1.5,0.4l-0.8,1.4h-2.2l-0.6,1.7
		l-4.9-1.2l3.9-2.1l-1.5-1.3l-3.4,0.4l-0.3,0.3l0,0l-0.1,0.1l-1,1l-1.6,0.1l0.1,0.8l0.6,0.2l0,0.3l-1.3,0.2l-0.1,0.8l-1.2,0.1
		l-0.2-1.5l-2.2,0.7l-4.5,2.7l0.5,1.9l1.3,0.8l2.5,0.4v2.9l1.2-0.2l1.1-2.3l2.7-0.9v-3.5l1.5-1.1l3.6,0.9l-0.3,2.3h1l2.7-1.3l0.1,3
		l1.9,1.2l-0.1,1.8l-1.9,0.6l0.1,0.6l2.2,1l0,1.2l-0.7,0.1c0,0,0,0,0,0l-2.8-0.9L62,36h0l0.8-0.6v-0.8l-0.9-0.2l-0.2,0.8l-1.6,0.2
		L60,35.4v0.1l-0.5,0.1L59,34.6l-0.5-0.2h-1.1l-0.5,0.4v0.9l1,0.3l0.9,0.1l-0.2,0.1l-0.9,1l-0.4-0.5l-0.8-0.2l-2.3,2.1l0.3,0.2
		l-3.3,1.8L48,44l-0.2,1.5l-3.1,2.1l-1.6,1.6l0.2,3.1l-2.2-1l0-1.8l-6,0L32,51l-1.4,2.5l-0.5,2l0.9,1.9l2.5,0.3l3.9-2.6l0.3,1.3
		l-1.2,2.3l3,0.5l0.3,4.6l4.1,0.7l2.6-3l3.1,0.6l1.1,1.5l3-0.2l0.1-0.9l1.7,0.8l1.9,2.9l3.2,0l1.2,2.1l0.2,2.5l3.6,1.4l4.5,0
		l1.3,2.2l2,0.6l-0.4,1.8l-2.2,2.8L70,85.8l-2,1.6l-2.9-0.1l-1,1.7l0.7,3.2l-3.2,4.1l-1,1.9l-3,1.5l-2,0.3l-0.1,0.8l1.4,0.4
		l-0.2,0.9l-1.3,1.2l0.8,1l1.5,0l-0.1,1.2l-0.4,1.1l-0.1,0.9l2.2,1.9l-0.3,1l-3-0.1l-3-2.6l-2.4-4.1l0.3-4l-1.8-2.4l0.7-4l-1.1-0.3
		v-8.7c0,0-3-2.3-3.1-2.3s-1.6-0.4-1.6-0.4l-0.3-1.7L40.1,75l0.4-1.7l0.1-2.8l2.7-1.9l-0.4-3.2L39,65l-3.1-3.5L33.7,61l-1.4-0.3
		l0.2-1.3l-1.8-0.3v0.7l-4.5-1.1L24.5,56l0.7-1.3l-2.8-4.1l-0.5-3h-1.1l0.4,2.9l2,3l-0.2,1.2l-1.7-0.3l-2-3.5v-4l-2.1-1V43
		C14.5,49.2,13,55.9,13,63c0,28.1,22.9,51,51,51c16,0,30.2-7.4,39.6-18.9h-1.7v-3.4l-1.9-2.6v-4.1l-1.5-1.5l-0.1-1.7l1.9-3.6
		L96.7,72l0.4-4.3l-3.2-0.3l-1.2-1.2h-2.2l-1.1,1h-3.8l-0.1,0.3h-2.1L78.5,62l0-4.3l0.8-0.3l0.3-1.7h-1.1L78,53.9l5.6-4.1V47
		l2.8-1.5l1.1,0.1h2.3l1.8-1l5.7-0.4v2.9L101.8,48.2z M87.5,30l0.5-0.7l1.7-0.3l0.4,2l0.9,1.4l0.6,0.7l1.1,0.4l-1,1.2l-2,0.2h-1.5
		l0.2-1.8l1.2-0.3l-0.1-0.8l-1.1-0.7l-0.8-0.6L87.5,30L87.5,30z M84.8,33.2l1-1.6l1.4-0.3l1,0.4L88,32.8l-2.1,1.5h-1.2L84.8,33.2
		L84.8,33.2z M57,39.5L56,39.6l0.1-0.7l0.5-0.6l0.6,0.5L57,39.5z M60.8,38.2L60,38.3L59.9,39l-0.6,0.3l-0.9,0.1c0-0.2,0-0.4,0-0.4
		H58v-0.8h1.5l0.3-0.8l0.6,0l0.7,0.1L60.8,38.2z"/>
</g>
</svg>
