<?xml version="1.0" encoding="utf-8"?>
<!-- Generator: Adobe Illustrator 24.3.0, SVG Export Plug-In . SVG Version: 6.00 Build 0)  -->
<svg version="1.1" id="Layer_1" xmlns="http://www.w3.org/2000/svg" xmlns:xlink="http://www.w3.org/1999/xlink" x="0px" y="0px"
	 viewBox="0 0 126 126" enable-background="new 0 0 126 126" xml:space="preserve">
<g>
	<g>
		<polygon fill-rule="evenodd" clip-rule="evenodd" fill="#00840F" points="13,96.3 113,96.3 113,29.7 13,29.7 13,96.3 		"/>
		<polygon fill-rule="evenodd" clip-rule="evenodd" fill="#EF7D00" points="101.1,96.3 113,96.3 113,53.5 101.1,53.5 101.1,96.3 		
			"/>
		<polygon fill-rule="evenodd" clip-rule="evenodd" points="89.2,96.3 101.1,96.3 101.1,53.5 89.2,53.5 89.2,96.3 		"/>
		<polygon fill-rule="evenodd" clip-rule="evenodd" fill="#FF1612" points="77.3,96.3 89.2,96.3 89.2,53.5 77.3,53.5 77.3,96.3 		
			"/>
		<g>
			
				<path fill-rule="evenodd" clip-rule="evenodd" fill="#EF7D00" stroke="#000000" stroke-width="7.572800e-02" stroke-miterlimit="2.4142" d="
				M91.9,38.4c0,0,0.2-1.1,0.9-1.6c0.6-0.5,1.7-0.8,2.6-0.1c0,0,0.3,0,0.7,0.1c0.4,0.1,0.6,0.4,0.4,0.6c-0.2,0.2-0.3,0.2-0.3,0.2
				s0.1-0.3-0.3-0.4c0,0,0,0.1-0.3,0.1c-0.3,0-0.4,0-0.6,0.2c-0.1,0.2-0.2,0.5,0.1,1.1c0,0,0.7-0.3,1.9-0.2c1.2,0,1.6,0.1,1.6,0.1
				s1-0.3,1.8-0.5c0.7-0.2,0.8-0.2,1.3-0.3c0.5-0.1,2.1-0.5,2.6-0.7c0.5-0.2,0.6-0.3,0.7-0.2c0.1,0.1-0.1,0.3-0.2,0.4
				c-0.1,0.1-0.4,0.4-0.4,0.4s1.3-0.5,2-0.8c0.7-0.3,2-0.9,2.2-0.9c0.2-0.1,0.3-0.2,0.4-0.1c0,0.1-0.2,0.3-0.4,0.6
				c-0.2,0.2-1.2,1-1.2,0.9c0,0,0.3-0.1,0.9-0.4c0.6-0.3,1.1-0.6,1.4-0.7c0.3-0.1,0.6-0.3,0.7-0.2c0.1,0.1-0.2,0.8-0.6,1.1
				c-0.4,0.3-0.9,0.7-1.3,0.9c0,0,0.4-0.2,1.1-0.5c0.7-0.4,1.4-0.8,1.5-0.8c0.1,0.1-0.3,0.6-0.6,0.9c-0.3,0.3-1,0.8-1,0.8
				s0.5-0.2,0.8-0.3c0.3-0.1,0.4-0.1,0.4,0c0,0.1-0.4,0.5-0.9,1c-0.5,0.4-1,0.7-1,0.7s0.9-0.5,1-0.4c0.1,0.1-0.5,0.7-0.8,1
				c-0.3,0.3-1.2,0.7-2,1c-0.7,0.2-2.1,0.5-2.1,0.5s0.1,0.1-0.2,0.2c-0.2,0.1-0.8,0.4-1.3,0.5c-0.5,0.1-1.1,0.1-1.1,0.1
				s0.6,0.1,0.5,0.3c-0.1,0.1-0.6,0.2-1.1,0.2c0,0,0.4,0.1,0.3,0.2c-0.1,0.1-0.5,0.2-0.8,0.2c-0.3,0-0.6-0.1-0.6-0.1
				s0.9,0.6,0.7,0.8c-0.2,0.2-1.1,0-1.4-0.2c-0.3-0.1-1-0.5-1-0.5s0.1,0.1,0.3,0.3c0.2,0.2,0.5,0.3,0.7,0.4c0.2,0.1,0.2,0.3,0,0.3
				s-0.6,0-0.9-0.2c-0.3-0.2-0.5-0.3-0.5-0.3s0.2,0.2,0.1,0.3c-0.1,0.1-0.4-0.1-0.6-0.1c-0.1-0.1-0.5-0.3-0.6-0.4
				c0,0,0.1,0.3,0.3,0.5c0.2,0.2,0.4,0.2,0.4,0.3c0,0.1-0.2,0-0.4-0.1c-0.2-0.1-0.3-0.3-0.4-0.2c-0.1,0.1,0.1,0.4,0.2,0.5
				c0.1,0.1,0.5,0.7,0.5,0.7s-0.4,0-0.8-0.3c0,0,0,0.2,0,0.3c0,0.1,0.1,0.1,0.2,0.1c0.1,0,0.6,0,0.7,0.4c0,0,0,0.1-0.1,0
				c-0.1-0.1-0.3-0.2-0.3-0.2c-0.1,0-0.2,0-0.2,0.1c0,0.1,0,0.1,0.1,0.1c0,0,0.4,0.1,0.3,0.6c-0.1,0.4-0.3,0.4-0.4,0.5
				c-0.1,0-0.1,0,0-0.1c0-0.1,0.1-0.2,0-0.2c0-0.1-0.1,0-0.2,0c-0.1,0-0.2,0-0.3-0.2c-0.1-0.2-0.1-0.3-0.2-0.3
				c-0.1,0-0.1,0.1-0.1,0.1c0,0.1,0.1,0.4-0.1,0.6c-0.1,0.2-0.2,0.2-0.3,0.2c0,0.1,0,0.2,0,0.3c0,0.1,0,0.1-0.1,0.1
				c-0.1,0-0.2-0.1-0.2-0.3c0-0.1,0-0.2-0.1-0.3c-0.1-0.1-0.1-0.4,0-0.5c0.1-0.1,0-0.1,0-0.1c0,0-0.1,0.2-0.3,0.2
				c-0.1,0.1-0.3,0-0.3,0s0,0.1,0,0.2c0,0.1,0,0.1,0,0.1c0,0-0.1-0.1-0.2-0.2c0-0.1,0-0.5,0-0.5s-0.1,0.1-0.2,0.1c0,0,0,0.1,0,0.1
				c0,0.1,0.1,0.1,0.1,0.3c0,0.2-0.1,0.4-0.2,0.4c-0.1,0.1-0.1,0.1-0.1,0.2c0,0.1,0.1,0.2,0.1,0.2c0,0,0,0.1-0.1,0
				c-0.1-0.1-0.2-0.1-0.2-0.2c0,0,0-0.1,0-0.1s-0.3-0.2-0.4-0.6c0,0,0,0,0,0c0,0.1,0,0.2-0.1,0.3c-0.1,0.1-0.4,0.2-0.4,0.2
				s-0.1,0.1,0,0.2c0,0.1-0.1,0.1-0.1,0c0,0-0.1-0.1-0.1-0.4c0,0-0.2-0.2,0-0.5c0.2-0.2,0.2-0.2,0.1-0.2s-0.3,0.2-0.5,0.2
				c-0.2,0-0.4,0-0.4,0S92.5,47,92.4,47c0,0.1-0.1,0-0.1,0s0-0.3,0.1-0.5c0.1-0.2,0.3-0.4,0.6-0.4c0.2,0,0.6,0,0.8-0.2
				c0.2-0.2,0.3-0.4,0.3-0.6c0,0-0.2,0.1-0.2-0.1c0-0.2,0.1-0.6,0.1-0.7c0-0.1,0-0.1-0.1,0c-0.1,0.1-0.2,0.4-0.4,0.4
				c-0.1,0.1-0.1,0-0.1-0.1c0-0.1,0.1-0.8,0.2-0.9c0-0.1,0.1-0.4,0.2-0.5c0-0.1,0-0.1-0.1,0c0,0.1-0.2,0.2-0.2,0.1
				c0-0.1,0.1-0.3,0.1-0.3s-0.4,0.2-1,0.1c-0.6-0.1-0.7-0.2-0.8-0.4c-0.1-0.1,0.1-0.3,0.2-0.4c0.1-0.1,0.2-0.1,0.3-0.2
				c0.1,0,0,0-0.1,0c0,0-0.7,0.2-0.9,0.3c-0.2,0.1-0.7,0.2-0.8,0.1c-0.2-0.1-0.1-0.2,0-0.3c0.1-0.1,0.5-0.4,0.7-0.4
				c0.1-0.1,0,0-0.1,0c-0.1,0-0.5,0.3-0.7,0.3c-0.2,0.1-0.6,0.2-0.9,0.2c-0.3,0-0.4-0.1-0.3-0.1c0.1-0.1,0.3-0.2,0.4-0.3
				c0.1,0,0,0,0,0c0,0-0.5,0.2-0.9,0.2c-0.4,0-0.5-0.1-0.5-0.1c0,0,0-0.1,0-0.1c0.1,0,0.3-0.2,0.3-0.2c0,0,0.1-0.1-0.1,0
				c-0.1,0-0.5,0.2-0.9,0.2c-0.4,0-0.7-0.1-0.8-0.2c-0.1-0.1-0.2-0.2-0.1-0.2c0.1,0,0.4-0.1,0.5-0.2c0.1,0,0.5-0.2,0.6-0.2
				c0.1-0.1,0.1-0.1,0-0.1c-0.1,0-0.5,0.1-0.8,0.2c-0.3,0.1-0.9,0.1-1.4,0c-0.5-0.1-0.7-0.2-0.8-0.3c-0.1-0.1,0-0.1,0.1-0.1
				c0.1,0,0.3,0,0.5-0.1c0.1-0.1,0.4-0.2,0.5-0.2c0.1,0,0.1-0.1,0.1-0.1c0,0-0.5,0.1-0.6,0.1c-0.1,0-0.5,0.1-0.7,0.1
				c-0.3,0-0.6,0-0.9-0.1c-0.3-0.1-0.4-0.2-0.5-0.3c-0.1,0-0.1-0.1,0-0.1c0.1,0,0.5-0.1,0.6-0.1c0.1,0,0.4-0.1,0.5-0.1
				c0.1,0,0.1-0.1,0-0.1c-0.1,0-0.6,0-0.8,0c-0.2,0-0.7-0.1-0.9-0.2c-0.2-0.1-0.3-0.1-0.3-0.2c0-0.1,0-0.1,0.1-0.1
				c0.1,0,0.5-0.1,0.6-0.1c0.1,0-0.2-0.1-0.4-0.1c-0.2-0.1-0.9-0.2-1.4-0.4c-0.4-0.2-0.9-0.4-1.1-0.6c-0.2-0.2-0.4-0.3-0.5-0.6
				c-0.2-0.3-0.1-0.3-0.1-0.4c0,0,0.1,0,0.3,0.2c0.2,0.1,0.2,0.2,0.4,0.3c0.2,0.1,0.2,0.1,0.2,0c0,0-0.2-0.2-0.3-0.3
				c-0.1-0.1-0.3-0.4-0.4-0.5c-0.1-0.1-0.2-0.3-0.1-0.4c0-0.1,0.3,0.1,0.4,0.2c0.1,0.1,0.6,0.4,0.7,0.5c0.1,0.1,0.1,0,0-0.1
				c-0.1-0.1-0.4-0.3-0.6-0.8c-0.2-0.4-0.2-0.6-0.2-0.7c0-0.1,0.1,0,0.2,0.1c0.1,0.1,0.6,0.5,0.7,0.6c0.1,0.1,0.3,0.1,0.4,0.2
				c0.1,0.1,0.5,0.2,0.6,0.3c0.2,0.1,0.5,0.2,0.6,0.2c0.1,0,0-0.1-0.1-0.2c-0.1-0.1-0.5-0.5-0.7-0.7c-0.2-0.2-0.4-0.4-0.4-0.6
				c-0.1-0.2-0.1-0.3-0.1-0.4c0-0.1,0-0.1,0.1-0.1c0.1,0.1,0.5,0.3,0.8,0.4c0.3,0.2,1.5,0.6,1.8,0.7c0.3,0.1,0.9,0.4,1.1,0.5
				c0.2,0.1,0.8,0.4,0.9,0.5c0.1,0,0.1,0,0-0.1c-0.1-0.1-0.6-0.5-0.7-0.7c-0.2-0.2-0.2-0.3-0.2-0.3c0,0,0.2,0,0.3,0
				c0.1,0.1,0.9,0.4,1.5,0.6c0.6,0.3,0.9,0.4,1.2,0.5c0.3,0.1,0.9,0.3,1.2,0.4c0.3,0.1,0.9,0.1,1.4,0.2
				C90.8,38.1,91.3,38.2,91.9,38.4L91.9,38.4z M95.3,46c0.1-0.1,0.2-0.1,0.4-0.1c0.2,0,0.5,0,0.5,0s0.1-0.1,0.1-0.2
				c0-0.1,0-0.5,0-0.5c0-0.1,0,0-0.1,0.1c-0.1,0.1-0.2,0.1-0.2,0c0-0.1,0.1-0.5,0-0.9c-0.1-0.3-0.4-0.9-0.5-1.2
				c-0.1-0.2-0.2-0.3-0.2-0.4c0,0-0.1,0-0.1,0.1c0,0.1,0,0.7,0,0.9c0,0.2,0,0.7,0,0.7s0.1,0.4,0.1,0.5c0,0.1-0.1,0.1-0.1,0
				c-0.1-0.1-0.2-0.2-0.2-0.2c0,0-0.1,0-0.1,0c0,0.1,0,0.3,0,0.5c0,0.2,0,0.3,0.1,0.4C95.1,45.9,95.2,45.9,95.3,46L95.3,46z"/>
			<g>
				<path d="M95.3,37.1c0.1,0,0.2,0.1,0.3,0.1c0,0,0,0,0.1,0c0.1,0,0.2,0.1,0.2,0.1l0,0.1c0,0-0.1,0-0.2-0.1c0,0,0,0-0.1,0
					C95.5,37.2,95.4,37.2,95.3,37.1L95.3,37.1L95.3,37.1z"/>
				<path d="M93.8,36.7L93.8,36.7c0.1,0,0.4,0.1,0.5,0.1c0.1,0,0.1,0,0.2,0c0,0,0.1,0,0.1-0.1c0,0,0-0.1,0-0.1c0,0-0.1,0-0.1-0.1
					c-0.1,0-0.1,0-0.2,0C94,36.6,93.9,36.7,93.8,36.7L93.8,36.7z M93.8,36.8C93.8,36.8,93.7,36.8,93.8,36.8l-0.1,0L93.8,36.8
					c0-0.2,0.2-0.3,0.4-0.3c0.1,0,0.2,0,0.2,0c0.1,0,0.1,0,0.2,0.1c0,0,0.1,0.1,0.1,0.1l0,0l0,0c0,0,0,0.1-0.1,0.1
					c-0.1,0-0.1,0.1-0.2,0.1C94.2,36.9,93.9,36.9,93.8,36.8L93.8,36.8z"/>
				<path d="M94.6,38.1c0,0.1,0.1,0.2,0.2,0.3c0.1,0.1,0.2,0.2,0.3,0.3c0,0,0.1,0.1,0.1,0.1c0.2,0.1,0.3,0.2,0.6,0.5
					c0.2,0.3,0.3,0.3,0.4,0.5c0,0.1,0.1,0.1,0.2,0.2c0.2,0.3,1,0.9,1.2,1.1l0,0l0,0c0,0,0.1,0,0.1,0.1c0.2,0.1,0.5,0.4,0.8,0.6
					c0.2,0.1,0.3,0.2,0.4,0.3c0.1,0.1,0.2,0.1,0.4,0.2c0.1,0.1,0.2,0.1,0.4,0.1c0.2,0,0.4,0.1,0.6,0.1c0.2,0,0.4,0,0.5,0l0,0
					c0,0,0.1,0,0.1,0c0,0,0,0,0,0c0,0-0.1,0-0.1-0.1c-0.1,0-0.4-0.2-0.8-0.4c-0.3-0.2-0.6-0.4-0.7-0.4c-0.1-0.1-0.5-0.3-0.9-0.6
					c-0.3-0.2-0.6-0.4-0.7-0.5c-0.2-0.1-0.3-0.2-0.3-0.2l0-0.1c0,0,0.1,0.1,0.3,0.2c0.1,0.1,0.4,0.3,0.7,0.4
					c0.4,0.2,0.8,0.5,0.9,0.6c0.1,0.1,0.4,0.3,0.7,0.4c0.3,0.2,0.7,0.4,0.8,0.4c0.1,0,0.1,0.1,0.2,0.1c0,0,0,0,0,0c0,0,0,0,0,0.1
					c0,0-0.1,0-0.1,0c0,0-0.1,0-0.1,0l0,0c-0.1,0-0.2,0-0.5,0c-0.2,0-0.4,0-0.6-0.1c-0.2,0-0.3-0.1-0.4-0.1
					c-0.1-0.1-0.2-0.1-0.4-0.2c-0.1-0.1-0.3-0.2-0.4-0.3c-0.3-0.2-0.6-0.5-0.8-0.6c0,0-0.1,0-0.1-0.1l0,0l0,0
					c-0.2-0.2-1-0.8-1.2-1.1c-0.1-0.1-0.1-0.2-0.2-0.2c-0.1-0.2-0.2-0.2-0.4-0.5c-0.3-0.3-0.4-0.4-0.6-0.5c0,0-0.1-0.1-0.1-0.1
					c-0.1-0.1-0.2-0.2-0.3-0.3C94.7,38.4,94.6,38.3,94.6,38.1L94.6,38.1L94.6,38.1z"/>
				<path d="M98.5,41c0,0,0.9,0.4,1.5,0.7c0.3,0.1,0.5,0.2,0.8,0.3c0.3,0.1,0.6,0.2,0.9,0.2c0.6,0.1,0.8-0.1,0.9-0.2l0,0
					c0,0,0.1-0.1,0-0.1c0,0-0.1,0-0.2-0.1c-0.1,0-0.2,0-0.3-0.1c-0.4-0.1-0.9-0.2-1.2-0.3c-0.2-0.1-0.5-0.2-0.8-0.3
					c-0.2-0.1-0.4-0.2-0.6-0.3c-0.2-0.1-0.3-0.2-0.5-0.3c-0.2-0.1-0.3-0.2-0.4-0.3c-0.2-0.1-0.5-0.4-0.5-0.4l0.1-0.1
					c0,0,0.3,0.3,0.5,0.4c0.1,0.1,0.3,0.2,0.4,0.3c0.1,0.1,0.3,0.2,0.5,0.3c0.2,0.1,0.4,0.2,0.6,0.3c0.3,0.1,0.6,0.2,0.8,0.3
					c0.2,0.1,0.8,0.2,1.1,0.3c0.2,0,0.3,0.1,0.3,0.1c0.1,0,0.2,0.1,0.2,0.1c0,0.1,0,0.1-0.1,0.2l0,0c-0.1,0.1-0.3,0.3-0.9,0.2
					c-0.3,0-0.6-0.1-0.9-0.2c-0.3-0.1-0.6-0.2-0.8-0.3C99.3,41.4,98.4,41,98.5,41L98.5,41L98.5,41z"/>
				<path d="M100.1,42.4c0,0,0.1,0.1,0.1,0.1c0.1,0.1,0.3,0.2,0.6,0.2c0.4,0.1,0.9,0.2,0.9,0.2l0,0.1c0,0-0.5-0.1-1-0.2
					c-0.3-0.1-0.5-0.2-0.6-0.2C100.1,42.5,100,42.5,100.1,42.4L100.1,42.4L100.1,42.4z"/>
				<path d="M101,42.2c0.1,0,0.4,0.1,0.6,0.2c0.2,0.1,0.5,0.1,0.7,0.1l0,0.1c-0.2,0-0.5-0.1-0.7-0.1C101.3,42.4,101.1,42.3,101,42.2
					L101,42.2L101,42.2z"/>
				<path d="M102.6,41.8c0.2-0.1,0.8-0.1,1.2-0.1c0,0,0.1,0,0.1,0c0.3,0,1-0.1,1-0.1l0,0.1c0,0-0.6,0.1-1,0.1c0,0-0.1,0-0.1,0
					C103.4,41.7,102.7,41.8,102.6,41.8L102.6,41.8L102.6,41.8z"/>
				<path d="M101.2,40.7c0.3,0.1,0.6,0.1,1,0.2c0.4,0.1,0.9,0.1,1.5,0.1c0.5,0,1-0.1,1.5-0.1c0.6-0.1,1.2-0.3,1.5-0.4
					c0.3-0.1,0.8-0.3,1.2-0.5c0.4-0.2,0.8-0.4,0.9-0.5l0,0.1c-0.2,0.1-0.6,0.3-1,0.5c-0.4,0.2-0.9,0.4-1.2,0.5
					c-0.3,0.1-0.9,0.3-1.5,0.4c-0.5,0.1-1,0.1-1.5,0.1c-0.6,0-1.1,0-1.5-0.1C101.8,40.9,101.4,40.9,101.2,40.7L101.2,40.7
					L101.2,40.7z"/>
				<path d="M106,39.7c0,0,1.6-0.5,2.4-0.9c0.8-0.4,1-0.6,1-0.6l0,0.1c0,0-0.3,0.2-1.1,0.6C107.6,39.2,106,39.7,106,39.7L106,39.7
					L106,39.7z"/>
				<path d="M103,39.8c0,0,1.5-0.5,2.6-0.8c1.1-0.4,2.8-1.2,2.8-1.2l0,0.1c0,0-1.8,0.9-2.8,1.3C104.6,39.5,103,39.9,103,39.8
					L103,39.8L103,39.8z"/>
				<path d="M103.7,38.6c0,0,0.8-0.1,2.1-0.6c1.2-0.5,1.7-0.9,1.7-0.9l0.1,0.1c0,0-0.5,0.4-1.7,0.9
					C104.6,38.5,103.7,38.7,103.7,38.6L103.7,38.6L103.7,38.6z"/>
				<path d="M98.4,39.9c0,0,0.5,0.3,1.3,0.5c0.6,0.2,1.2,0.1,1.3,0c-0.2-0.1-1-0.5-1.2-0.6c-0.1,0-0.1-0.1-0.1-0.1c0,0,0,0,0-0.1
					c0,0,0,0,0,0c0,0,0.1,0,0.1,0c0,0,0.1,0.1,0.2,0.1c0.1,0.1,0.3,0.1,0.6,0.2c0.3,0.1,0.6,0.1,0.8,0.1c0.2,0,0.5,0,0.6,0
					c0.2,0,0.3,0,0.3,0c0,0,0,0,0,0c0,0,0,0,0,0c0,0,0,0-0.1-0.1c-0.1-0.1-0.3-0.1-0.5-0.2c-0.2-0.1-0.4-0.1-0.5-0.1
					c0,0-0.1,0-0.1,0c-0.1,0-0.1-0.1,0-0.1c0,0,0,0,0,0c0.1,0,0.2,0,0.3,0c0.1,0,0.3,0.1,0.5,0.1c0.2,0,0.4,0.1,0.5,0
					c0.1,0,0.2,0,0.3-0.1c0,0,0,0,0,0c0,0,0,0,0,0c0,0,0,0-0.1-0.1c-0.2-0.1-0.3-0.1-0.4-0.2c0,0-0.1,0-0.1,0c0,0-0.1,0-0.1,0l0,0
					c0,0,0,0,0-0.1c0,0,0,0,0,0c0,0,0.1,0,0.1,0c0.1,0,0.2,0.1,0.5,0.1c0.2,0,0.4,0,0.6,0c0.3,0,0.5-0.1,0.7-0.2
					c0.1-0.1,0.2-0.2,0.2-0.2c0,0,0,0,0,0c0,0-0.1,0-0.3,0c-0.1,0-0.3,0-0.6,0c-0.3,0-0.7-0.1-1-0.1c0,0-0.1,0-0.1,0
					c-0.3,0-0.8-0.1-0.9-0.2l0-0.1c0.1,0.1,0.6,0.2,0.9,0.2c0.1,0,0.1,0,0.1,0c0.2,0,0.6,0.1,0.9,0.1c0.2,0,0.4,0,0.5,0
					c0.2,0,0.3,0,0.3,0c0.1,0,0.1,0.1,0,0.2c0,0.1-0.1,0.1-0.3,0.2c-0.1,0.1-0.4,0.2-0.7,0.2c-0.2,0-0.4,0-0.6,0c-0.1,0-0.2,0-0.2,0
					c0.1,0,0.1,0.1,0.2,0.1c0.1,0,0.1,0.1,0.1,0.1c0,0,0,0.1,0,0.1c0,0,0,0-0.1,0.1c-0.1,0-0.2,0.1-0.3,0.1c-0.1,0-0.4,0-0.6,0
					c-0.1,0-0.2,0-0.2,0c0,0,0.1,0,0.1,0c0.2,0.1,0.4,0.1,0.5,0.2c0.1,0,0.1,0.1,0.1,0.1c0,0,0,0.1,0,0.1c0,0,0,0-0.1,0.1
					c-0.1,0-0.2,0.1-0.4,0c-0.2,0-0.4,0-0.6,0c-0.2,0-0.5-0.1-0.8-0.1s-0.5-0.1-0.6-0.2c0,0,0,0,0,0c0.3,0.2,1.1,0.6,1.1,0.6l0.1,0
					l-0.1,0c0,0-0.6,0.3-1.5,0C98.8,40.3,98.3,40,98.4,39.9L98.4,39.9L98.4,39.9z"/>
				<path d="M96.2,39.8c0.1,0,0.2,0.1,0.3,0.1c0.1,0,0.3,0,0.4,0c0.1,0,0.3,0,0.3,0c0,0,0,0,0,0c0,0,0,0,0,0
					c-0.1-0.1-0.2-0.1-0.1-0.1c0,0,0,0,0.1,0c0,0,0,0,0,0c0,0,0,0,0.1,0c0.1,0,0.3,0,0.5,0.1c0.1,0,0.3,0,0.4,0c0.1,0,0.2,0,0.2,0
					c0-0.1-0.2-0.1-0.3-0.2c0,0,0,0,0,0c0,0,0,0,0,0c0,0,0-0.1,0-0.1c0,0,0,0,0,0c0.1,0,0.2,0,0.2,0.1c0,0,0.2,0,0.3,0
					c0.2,0,0.5,0,0.7,0c0.1,0,0.2,0,0.2,0c0,0,0,0,0,0c0,0,0,0,0,0c0,0,0,0-0.1,0c-0.1,0-0.2-0.1-0.2-0.1c-0.1,0-0.1-0.1-0.1-0.1
					c0-0.1,0.1-0.1,0.3,0l0,0l0,0c0.1,0,0.3,0,0.5,0c0.2,0,0.4,0,0.5-0.1c0.1,0,0.1-0.1,0.1-0.1c0,0,0,0,0-0.1c0,0,0,0,0-0.1
					c0,0,0,0-0.1,0c0,0-0.1,0-0.1,0c0,0,0,0,0,0l0,0c0,0,0,0,0,0c0,0,0,0,0.1,0c0.1,0,0.2,0,0.3,0c0.1,0,0.2,0,0.4-0.1
					c0.1,0,0.2-0.1,0.4-0.1c0.3-0.1,0.6-0.1,0.9-0.2c0.2-0.1,0.5-0.2,0.8-0.3c0.4-0.2,0.9-0.3,1-0.4l0,0.1c-0.1,0.1-0.6,0.2-1,0.4
					c-0.3,0.1-0.7,0.2-0.8,0.3c-0.2,0.1-0.6,0.1-0.9,0.2c-0.1,0-0.3,0.1-0.4,0.1c-0.1,0-0.3,0.1-0.4,0.1c-0.1,0-0.2,0-0.3,0
					c0,0,0,0,0.1,0c0,0,0,0.1,0,0.1c0,0,0,0.1,0,0.1c0,0-0.1,0.1-0.2,0.1c-0.1,0.1-0.3,0.1-0.5,0.1c-0.2,0-0.4,0-0.5,0l0,0l0,0
					c-0.2,0-0.2,0-0.2,0c0,0,0,0,0,0c0,0,0.1,0.1,0.2,0.1c0,0,0.1,0.1,0.1,0.1c0,0,0,0.1,0,0.1c0,0,0,0-0.1,0.1
					c-0.1,0-0.1,0-0.2,0.1c-0.1,0-0.4,0-0.7,0c-0.1,0-0.3,0-0.3,0c0.1,0,0.1,0.1,0.1,0.2c0,0.1-0.1,0.1-0.2,0.1c-0.1,0-0.3,0-0.4,0
					c-0.2,0-0.3,0-0.5,0c0,0,0,0,0.1,0.1c0,0,0,0.1,0,0.1c0,0,0,0-0.1,0c-0.1,0-0.2,0.1-0.4,0.1c-0.2,0-0.3,0-0.4,0
					c-0.1,0-0.2,0-0.3-0.1C96.2,39.9,96.2,39.9,96.2,39.8L96.2,39.8L96.2,39.8z M97.3,39.8C97.3,39.8,97.3,39.8,97.3,39.8L97.3,39.8
					L97.3,39.8L97.3,39.8z M97.3,39.8L97.3,39.8L97.3,39.8L97.3,39.8z"/>
				<path d="M101.1,40.4c0.1,0,0.3,0,0.6,0c0.2,0,0.4,0,0.5,0l0,0.1c-0.2,0-0.4,0-0.5,0C101.4,40.5,101.2,40.5,101.1,40.4
					L101.1,40.4L101.1,40.4z"/>
				<path d="M100.6,43.3c-0.1,0-0.2-0.1-0.2-0.1c-0.1-0.1-0.2-0.2-0.3-0.2c-0.2-0.1-0.6-0.6-0.6-0.6l0.1-0.1c0,0,0.4,0.4,0.6,0.5
					c0.1,0.1,0.2,0.1,0.3,0.2C100.5,43.1,100.6,43.2,100.6,43.3L100.6,43.3L100.6,43.3z"/>
				<path d="M97.3,43.8c-0.1-0.1-0.1-0.2-0.1-0.4c0-0.1-0.1-0.2-0.1-0.3c0-0.1-0.1-0.3-0.2-0.4c0-0.1-0.1-0.2-0.1-0.2
					c0-0.1-0.1-0.1-0.2-0.2c-0.1-0.1-0.1-0.1-0.2-0.2c-0.1-0.1-0.3-0.3-0.3-0.3l0.1-0.1c0,0,0.2,0.2,0.2,0.3c0,0,0.1,0.1,0.2,0.2
					s0.1,0.2,0.2,0.2c0,0,0.1,0.1,0.1,0.2c0.1,0.1,0.2,0.3,0.2,0.4c0,0.1,0.1,0.2,0.1,0.3C97.3,43.6,97.4,43.7,97.3,43.8L97.3,43.8
					L97.3,43.8z"/>
				<path d="M96.7,42.4c0,0,0.2,0.1,0.4,0.2c0.1,0.1,0.2,0.1,0.3,0.2c0.1,0.1,0.4,0.2,0.6,0.2c0.1,0,0.3,0,0.3,0
					c0.1-0.1-0.5-0.8-0.5-0.8l0.1-0.1c0,0,0.7,0.7,0.5,0.9c-0.1,0.1-0.2,0.1-0.4,0c-0.2-0.1-0.5-0.2-0.6-0.2
					c-0.1-0.1-0.2-0.1-0.3-0.2C96.9,42.6,96.8,42.5,96.7,42.4L96.7,42.4L96.7,42.4z"/>
				<path d="M97.2,41.5c0,0.1,0.1,0.1,0.2,0.2c0.1,0.1,0.2,0.3,0.3,0.3c0,0,0.1,0.1,0.2,0.1c0.1,0,0.1,0.1,0.2,0.1
					c0.1,0,0.2,0.1,0.3,0.2c0.2,0.1,0.5,0.3,0.6,0.3c0.1,0,0.2,0.1,0.3,0.1l0,0c0.2,0,0.3,0,0.4,0c0,0,0,0,0,0c0,0,0,0,0,0
					c0,0,0,0,0,0c0,0,0-0.1-0.1-0.1c-0.1,0-0.2-0.1-0.3-0.2c-0.1-0.1-0.3-0.2-0.4-0.3c-0.1,0-0.1-0.1-0.2-0.2
					c-0.1-0.1-0.1-0.2-0.1-0.2l0.1,0c0,0,0.1,0.1,0.1,0.2c0,0.1,0.1,0.1,0.1,0.1c0.1,0.1,0.2,0.2,0.4,0.3c0.1,0.1,0.2,0.2,0.3,0.2
					c0,0,0.1,0.1,0.1,0.1c0,0,0,0,0,0.1c0,0,0,0,0,0.1c0,0-0.1,0-0.1,0c-0.1,0-0.3,0-0.4,0l0,0c-0.1,0-0.2-0.1-0.3-0.1
					c-0.1-0.1-0.4-0.2-0.6-0.3c-0.1-0.1-0.3-0.2-0.3-0.2c-0.1,0-0.2-0.1-0.2-0.1c-0.1-0.1-0.1-0.1-0.2-0.1c0,0-0.2-0.2-0.3-0.3
					C97.2,41.7,97.1,41.6,97.2,41.5L97.2,41.5L97.2,41.5z"/>
				<path d="M97.1,45.2c0,0-0.3-0.2-0.4-0.4c0-0.1-0.1-0.2-0.1-0.2c0-0.1-0.1-0.1-0.1-0.1c0,0,0,0,0,0c0,0,0,0.1,0,0.1
					c0,0.1,0,0.1,0,0.2l0,0c0,0.1-0.1,0.2-0.2,0.4l-0.1,0c0.1-0.1,0.1-0.2,0.2-0.4l0,0c0-0.1,0-0.1,0-0.2c0,0,0-0.1,0-0.1
					c0-0.1,0-0.1,0.1-0.1c0,0,0.1,0.1,0.1,0.2c0,0.1,0.1,0.1,0.1,0.2C96.9,45,97.1,45.2,97.1,45.2L97.1,45.2L97.1,45.2z"/>
				<path d="M96.5,41.5c0-0.2,0-0.3-0.1-0.5c0-0.2-0.1-0.3-0.1-0.4c-0.1-0.2-0.1-0.5-0.1-0.5c0,0,0,0,0,0l0.1,0v0
					c0,0.1,0,0.3,0.1,0.5c0,0.1,0.1,0.3,0.1,0.5C96.6,41.2,96.6,41.4,96.5,41.5L96.5,41.5L96.5,41.5z"/>
				<path d="M94.8,41c0,0.1,0.1,0.2,0.2,0.4c0.1,0.1,0.2,0.2,0.3,0.3c0,0,0.1,0.1,0.1,0.1c0.2,0.1,0.4,0.3,0.5,0.7l-0.1,0
					c-0.1-0.4-0.3-0.5-0.4-0.7c0,0-0.1-0.1-0.1-0.1c-0.1-0.1-0.2-0.2-0.3-0.3C94.9,41.3,94.8,41.2,94.8,41L94.8,41L94.8,41z"/>
				<path d="M95.2,42.8L95.2,42.8c-0.1-0.3-0.1-0.5-0.4-0.6c-0.1-0.1-0.3-0.1-0.4-0.2c-0.1,0-0.2-0.1-0.4-0.2
					c-0.2-0.1-0.4-0.2-0.5-0.3c0,0.1-0.1,0.3-0.1,0.6l-0.1,0c0-0.3,0.2-0.6,0.2-0.7l0,0l0,0c0,0,0.2,0.2,0.5,0.3
					c0.1,0.1,0.3,0.1,0.4,0.2c0.1,0,0.3,0.1,0.4,0.2C95.2,42.3,95.2,42.5,95.2,42.8L95.2,42.8L95.2,42.8L95.2,42.8z"/>
				<path d="M93.5,43.4c0-0.1,0.1-0.2,0.1-0.3c0-0.1,0-0.2,0-0.3c0-0.2-0.1-0.3-0.2-0.5c0,0,0,0,0-0.1c0-0.1-0.1-0.2-0.2-0.3
					c-0.1-0.1-0.2-0.3-0.3-0.4c-0.1-0.1-0.2-0.2-0.3-0.3c-0.1,0.1-0.4,0.3-0.7,0.4c-0.2,0-0.3,0-0.4,0c-0.1,0-0.1,0-0.1,0
					c0,0-0.1,0-0.1-0.1c0,0,0-0.1,0.1-0.1c0-0.1,0.1-0.2,0.2-0.3c0.1-0.1,0.2-0.3,0.3-0.3c0.1-0.1,0.2-0.2,0.2-0.2
					c-0.1-0.1-0.2-0.2-0.3-0.4c-0.1-0.1-0.1-0.2-0.1-0.4c0-0.2,0-0.3,0-0.4c0-0.1,0.1-0.2,0.1-0.3c0-0.1,0.1-0.3,0.1-0.3l0.1,0
					c0,0.1,0,0.2-0.1,0.3c0,0.1-0.1,0.2-0.1,0.3c0,0.1,0,0.2,0,0.4c0,0.1,0,0.2,0.1,0.3c0.1,0.3,0.3,0.4,0.3,0.4l0,0l0,0
					c0,0-0.1,0.1-0.2,0.3c-0.1,0.1-0.2,0.2-0.3,0.3c-0.1,0.1-0.2,0.2-0.2,0.3c0,0.1,0,0.1,0,0.1c0,0,0,0,0,0c0,0,0.1,0,0.1,0
					c0.1,0,0.2,0,0.3,0c0.3-0.1,0.7-0.4,0.7-0.4l0,0l0,0c0,0,0.2,0.2,0.3,0.3c0.1,0.1,0.2,0.2,0.3,0.4c0.1,0.1,0.1,0.2,0.2,0.3
					c0,0,0,0.1,0,0.1c0.1,0.2,0.1,0.3,0.2,0.5c0,0.1,0,0.2,0,0.3C93.6,43.2,93.6,43.3,93.5,43.4L93.5,43.4L93.5,43.4z"/>
				<path d="M91.9,40.2C91.9,40.2,91.9,40.2,91.9,40.2c-0.2,0.2-0.5,0.5-1.1,0.8c-0.4,0.2-0.7,0.3-0.9,0.3c-0.2,0-0.4,0-0.5,0
					c-0.1,0-0.2,0-0.2-0.1c0,0,0,0,0,0c0,0,0-0.1,0-0.1c0,0,0,0,0.1,0c0.1,0,0.4-0.3,0.8-0.5c0.3-0.2,0.6-0.4,0.7-0.5
					c0,0,0.1-0.1,0.1-0.1c0.2-0.2,0.5-0.4,0.7-0.6c0.3-0.3,0.4-0.4,0.4-0.4l0,0.1c0,0-0.1,0.1-0.4,0.4c-0.2,0.2-0.5,0.4-0.7,0.6
					c0,0-0.1,0.1-0.1,0.1c-0.1,0.1-0.4,0.3-0.7,0.5c-0.4,0.2-0.7,0.5-0.8,0.5c0,0,0,0,0,0c0,0,0,0,0,0c0,0,0.1,0,0.2,0.1
					c0.1,0,0.2,0.1,0.5,0c0.2,0,0.5-0.1,0.9-0.3c0.5-0.3,0.8-0.6,1-0.7C91.8,40.2,91.8,40.1,91.9,40.2L91.9,40.2L91.9,40.2z"/>
				<path d="M92.2,38.5c0,0-0.2,0-0.3-0.1l0.1,0C92,38.4,92.2,38.4,92.2,38.5L92.2,38.5L92.2,38.5z"/>
				<path d="M98.1,43.7c0,0,0.2,0.1,0.3,0.2c0.1,0,0.1,0.1,0.1,0.1l-0.1,0.1c0,0-0.1-0.1-0.1-0.1C98.2,43.9,98.1,43.8,98.1,43.7
					L98.1,43.7L98.1,43.7z"/>
				<path d="M98.7,43.2c0.1,0,0.2,0.2,0.2,0.2l-0.1,0.1C98.9,43.4,98.7,43.3,98.7,43.2L98.7,43.2L98.7,43.2z"/>
				<path d="M100.9,39.3c0,0,0.1,0.1,0.2,0.1c0.1,0,0.3,0.1,0.4,0.1l0,0.1c-0.1,0-0.2-0.1-0.4-0.1C100.9,39.5,100.9,39.4,100.9,39.3
					L100.9,39.3L100.9,39.3z"/>
				<path d="M101.9,39.1c0,0,0.1,0.1,0.2,0.1c0.1,0,0.3,0.1,0.3,0.1l0,0.1c-0.1,0-0.2-0.1-0.3-0.1C102,39.2,101.9,39.2,101.9,39.1
					L101.9,39.1L101.9,39.1z"/>
				<path d="M96.9,39.6c0.1,0,0.1,0,0.2,0.1c0.1,0,0.1,0,0.1,0.1l0,0.1c0,0-0.1,0-0.1,0C97,39.7,97,39.7,96.9,39.6L96.9,39.6
					L96.9,39.6z"/>
				<path d="M97.8,39.3c0.1,0.1,0.3,0.1,0.3,0.1l0,0.1C98.1,39.5,97.9,39.4,97.8,39.3L97.8,39.3L97.8,39.3z"/>
				<path d="M99.1,39c0.1,0.1,0.2,0.1,0.2,0.1l0,0.1C99.3,39.2,99.1,39.2,99.1,39L99.1,39L99.1,39z"/>
				<path d="M100.3,38.6c0.1,0,0.4,0,0.4,0l0,0.1C100.6,38.7,100.3,38.7,100.3,38.6L100.3,38.6L100.3,38.6z"/>
				<path d="M95.1,46.4c0-0.1,0-0.2,0-0.2c0-0.1,0.1-0.1,0.2-0.2l0,0.1c-0.1,0.1-0.1,0.1-0.1,0.2C95.1,46.3,95.1,46.3,95.1,46.4
					L95.1,46.4L95.1,46.4z"/>
				<path d="M94,45.3c0.1-0.1,0.2-0.2,0.3-0.4c0.1-0.2,0.2-0.3,0.2-0.4s0-0.1,0-0.1c0,0,0,0,0,0c0,0,0,0,0.1,0c0,0,0,0,0,0
					c0,0,0.1,0.1,0.1,0.2c0.1,0.1,0.1,0.2,0.1,0.2l-0.1,0c0,0-0.1-0.1-0.1-0.2c0-0.1-0.1-0.1-0.1-0.2c0,0,0,0,0,0c0,0,0,0,0,0.1
					c0,0.1-0.1,0.2-0.2,0.4C94.3,45.1,94.1,45.3,94,45.3L94,45.3L94,45.3z"/>
				<path d="M94.1,43.6c0,0.1,0,0.3,0,0.4c0,0.2-0.1,0.5-0.1,0.5l-0.1,0c0-0.1,0.1-0.3,0.1-0.5C94,43.9,94,43.7,94.1,43.6L94.1,43.6
					L94.1,43.6z"/>
				<path d="M93.9,43.3c0,0.1-0.1,0.3-0.1,0.3l-0.1,0C93.7,43.5,93.8,43.4,93.9,43.3L93.9,43.3L93.9,43.3z"/>
				<path d="M92.8,42.4c-0.1,0-0.3,0.1-0.4,0.2c-0.1,0.1-0.2,0.1-0.2,0.1l0-0.1c0,0,0.1,0,0.2-0.1C92.5,42.4,92.7,42.3,92.8,42.4
					L92.8,42.4L92.8,42.4z"/>
				<polygon points="91.6,41.9 91,42.3 91,42.2 91.6,41.9 91.6,41.9 				"/>
				<path d="M89.5,42.3c0.2-0.1,0.7-0.4,0.9-0.5c0.1,0,0.1-0.1,0.2-0.1c0.1-0.1,0.3-0.2,0.5-0.3c0.2-0.1,0.4-0.2,0.5-0.3
					c0.1-0.1,0.3-0.2,0.3-0.2l0,0.1c0,0-0.2,0.1-0.3,0.2c-0.1,0-0.3,0.2-0.5,0.3c-0.2,0.1-0.4,0.2-0.5,0.3c0,0-0.1,0.1-0.2,0.1
					C90.2,42,89.7,42.2,89.5,42.3L89.5,42.3L89.5,42.3z"/>
				<path d="M88.3,41.9c0.1,0,0.2-0.1,0.3-0.1c0.1-0.1,0.2-0.1,0.3-0.2c0.1-0.1,0.2-0.1,0.3-0.2c0.1-0.1,0.1-0.1,0.2-0.2l0.1,0
					c0,0.1-0.1,0.2-0.2,0.2c-0.1,0.1-0.2,0.2-0.3,0.2c-0.1,0.1-0.2,0.1-0.3,0.2C88.6,41.9,88.5,42,88.3,41.9L88.3,41.9L88.3,41.9z"
					/>
				<path d="M87.6,41.2c0.1,0,0.2-0.1,0.2-0.1l0,0.1C87.9,41.2,87.7,41.3,87.6,41.2L87.6,41.2L87.6,41.2z"/>
				<path d="M85.7,40.7c0,0,0.1,0,0.1,0c0.3-0.1,0.7-0.2,0.9-0.3l0,0.1c-0.2,0.1-0.7,0.2-0.9,0.3C85.8,40.8,85.8,40.8,85.7,40.7
					L85.7,40.7L85.7,40.7z"/>
				<path d="M84.2,40.1c0.1,0,1.2-0.4,1.2-0.4l0,0.1C85.5,39.8,84.4,40.1,84.2,40.1L84.2,40.1L84.2,40.1z"/>
				<path d="M82.8,39.5c0.1,0,0.3,0,0.6-0.1c0.3,0,0.5-0.1,0.7-0.1l0,0.1c-0.1,0-0.4,0.1-0.7,0.1C83.1,39.5,82.8,39.6,82.8,39.5
					L82.8,39.5L82.8,39.5z"/>
				<path d="M82.3,37.2c0.1,0.1,0.5,0.2,0.8,0.4c0.1,0,0.2,0.1,0.3,0.1c0.4,0.2,1.3,0.6,1.3,0.6l0,0.1c0,0-0.9-0.4-1.3-0.6
					c-0.1,0-0.2-0.1-0.3-0.1C82.8,37.5,82.4,37.3,82.3,37.2L82.3,37.2L82.3,37.2z"/>
				<path d="M80.6,37.3c0.1,0.1,0.3,0.2,0.4,0.2c0.1,0.1,0.3,0.1,0.4,0.2c0.1,0,0.5,0.2,1,0.4c0.8,0.3,1.9,0.7,2.1,0.8l0,0.1
					c-0.2-0.1-1.2-0.5-2.1-0.8c-0.5-0.2-0.9-0.3-1-0.4c-0.1-0.1-0.3-0.1-0.4-0.2C80.8,37.6,80.7,37.5,80.6,37.3L80.6,37.3L80.6,37.3
					z"/>
				<path d="M80.2,37.8c0.1,0,0.2,0.1,0.3,0.2c0.2,0.1,0.5,0.2,0.7,0.2c0.2,0.1,0.5,0.2,0.9,0.3c0.3,0.1,0.5,0.2,0.6,0.2
					c0.3,0.1,0.6,0.2,0.6,0.2l0,0.1c0,0-0.3-0.1-0.7-0.2c-0.1,0-0.4-0.1-0.6-0.2c-0.3-0.1-0.7-0.3-0.8-0.3c-0.2-0.1-0.4-0.1-0.7-0.2
					C80.4,38,80.2,37.9,80.2,37.8L80.2,37.8L80.2,37.8z"/>
				<path d="M85.7,37.4c0,0,0.1,0.1,0.3,0.2c0.1,0.1,0.3,0.1,0.5,0.2c0.2,0.1,0.4,0.1,0.5,0.2c0.2,0.1,0.3,0.1,0.5,0.2
					c0.2,0.1,0.3,0.1,0.4,0.1c0.1,0,0.1,0,0.1,0c0,0,0,0,0.1,0c0,0,0,0,0,0.1c0,0,0,0,0,0.1c0,0-0.1,0.1-0.1,0.1c0,0-0.1,0-0.1,0
					c0,0-0.1,0-0.1,0c0,0,0,0,0,0c0.1,0,0.2,0.1,0.3,0.1c0.1,0,0.2,0,0.4,0.1c0.1,0,0.2,0,0.3,0c0.1,0,0.1,0,0.2,0
					c0.1,0,0.1,0,0.1,0.1c0,0,0,0.1-0.1,0.1c0,0-0.1,0.1-0.1,0.1c-0.1,0-0.1,0.1-0.1,0.1c0,0,0.2,0,0.3,0c0,0,0,0,0,0
					c0.1,0,0.2,0,0.4,0c0.1,0,0.2,0,0.3-0.1c0.1,0,0.1,0,0.1,0c0,0,0,0.1-0.1,0.2c0,0,0,0.1-0.1,0.1c0,0,0,0-0.1,0.1
					c0,0,0,0.1,0,0.1c0,0,0,0,0,0c0.1,0,0.4,0,0.4,0l0,0.1c0,0-0.3,0-0.4,0c-0.1,0-0.1,0-0.1-0.1c0,0,0-0.1,0.1-0.1c0,0,0,0,0-0.1
					c0,0,0,0,0.1-0.1c0,0,0-0.1,0.1-0.1c0,0,0,0,0,0c-0.1,0-0.2,0.1-0.3,0.1c-0.2,0-0.4,0-0.4,0c0,0,0,0,0,0c-0.1,0-0.4,0-0.4-0.1
					c0-0.1,0.1-0.1,0.1-0.2c0,0,0.1,0,0.1-0.1c0,0,0.1-0.1,0.1-0.1c0,0,0,0,0,0c-0.1,0-0.1,0-0.2,0c-0.1,0-0.2,0-0.3,0
					c-0.1,0-0.2,0-0.4-0.1c-0.1,0-0.2-0.1-0.3-0.1c-0.1,0-0.1-0.1-0.1-0.1c0,0,0,0,0.1-0.1c0,0,0.1,0,0.1,0c0,0,0.1,0,0.1-0.1
					c0,0,0,0,0,0c0,0,0,0,0,0c0,0-0.1,0-0.1,0c-0.1,0-0.2,0-0.4-0.1c-0.1,0-0.3-0.1-0.5-0.2c-0.2-0.1-0.4-0.1-0.6-0.2
					c-0.2-0.1-0.4-0.1-0.5-0.2C85.8,37.6,85.7,37.5,85.7,37.4L85.7,37.4L85.7,37.4z M90,39C90,39,90,39,90,39C90,39,90,39,90,39
					L90,39z"/>
				<path d="M86.5,37.9c0,0-0.2,0.1-0.3,0.1c-0.1,0.1-0.2,0.1-0.3,0.1c-0.1,0-0.3,0-0.4,0.1c0,0,0,0-0.1,0h0v0c0,0,0,0,0,0.1
					c0,0,0.1,0.1,0.1,0.1c0.1,0,0.1,0,0.2,0c0.1,0,0.2,0,0.3,0c0.1,0,0.3,0,0.4-0.1c0,0,0.1,0,0.1,0c0,0,0,0,0,0c0,0,0,0,0,0.1
					c0,0,0,0.1-0.1,0.1c0,0-0.1,0.1-0.2,0.2c-0.1,0.1-0.2,0.1-0.2,0.2c-0.1,0-0.1,0.1-0.2,0.1c-0.1,0-0.1,0-0.1,0.1c0,0,0,0,0,0l0,0
					c0,0,0,0,0,0c0,0,0.1,0,0.1,0c0.1,0,0.1,0,0.2,0c0.1,0,0.2,0,0.4,0c0.2,0,0.3,0,0.4,0c0.2,0,0.3-0.1,0.3-0.1l0,0.1
					c0,0-0.2,0-0.3,0.1c-0.1,0-0.2,0-0.4,0c-0.1,0-0.3,0-0.4,0c-0.1,0-0.1,0-0.2,0c0,0-0.1,0-0.1,0c0,0-0.1-0.1-0.1-0.1l0,0
					c0,0,0,0,0,0c0-0.1,0.1-0.1,0.2-0.1c0.1,0,0.1,0,0.2-0.1c0.1,0,0.1-0.1,0.2-0.2c0.1-0.1,0.2-0.1,0.2-0.2c0,0,0,0,0-0.1
					c0,0,0,0-0.1,0c-0.1,0-0.2,0.1-0.4,0.1c-0.1,0-0.2,0-0.3,0c-0.1,0-0.2,0-0.2,0c-0.1,0-0.1-0.1-0.2-0.1c0,0,0-0.1,0-0.1
					c0,0,0,0,0,0c0,0,0,0,0,0c0,0,0,0,0,0c0,0,0,0,0.1,0c0.1,0,0.2,0,0.3-0.1c0.1,0,0.2-0.1,0.3-0.1C86.3,37.9,86.4,37.9,86.5,37.9
					L86.5,37.9L86.5,37.9z"/>
				<path d="M87.8,38.6c-0.1,0-0.1,0-0.2,0.1c0,0,0,0,0,0c0,0.1-0.1,0.1-0.2,0.2c-0.1,0.1-0.1,0.1-0.2,0.2c0,0.1-0.1,0.1-0.2,0.2
					c-0.1,0-0.1,0.1-0.2,0.1c-0.1,0.1-0.1,0.1-0.2,0.2c-0.1,0.1-0.1,0.1-0.2,0.1c0,0,0,0,0,0c0,0,0.1,0,0.1,0c0.1,0,0.2,0,0.4,0
					c0.1,0,0.2,0,0.2,0c0.1,0,0.4-0.1,0.4-0.1l0,0.1c0,0-0.3,0-0.4,0.1c-0.1,0-0.1,0-0.2,0c-0.2,0-0.3,0-0.4,0c0,0-0.1,0-0.1,0
					c0,0-0.1,0-0.1,0c0,0,0,0,0-0.1c0,0,0,0,0,0c0,0,0.1-0.1,0.2-0.2c0.1-0.1,0.2-0.1,0.2-0.2s0.1-0.1,0.2-0.1
					c0.1-0.1,0.1-0.1,0.2-0.2c0,0,0.1-0.1,0.2-0.2c0.1-0.1,0.1-0.1,0.2-0.2c0,0,0,0,0,0C87.7,38.5,87.7,38.5,87.8,38.6L87.8,38.6
					L87.8,38.6z"/>
				<path d="M88.8,39c0,0-0.1,0.1-0.2,0.1c-0.1,0.1-0.3,0.2-0.4,0.2c-0.1,0.1-0.3,0.2-0.4,0.3c0,0-0.1,0.1-0.1,0.1
					c0,0-0.1,0.1-0.2,0.1c-0.1,0-0.1,0.1-0.2,0.1c0,0-0.1,0-0.1,0.1c0,0-0.1,0-0.1,0l0,0c0,0,0,0,0,0l0,0c0,0,0.1,0,0.1,0
					c0.1,0,0.3,0,0.4,0c0,0,0.3-0.1,0.6-0.1c0.2,0,0.3-0.1,0.4-0.1c0.1,0,0.2-0.1,0.3-0.1c0.1,0,0.1,0,0.1-0.1c0,0,0,0,0,0l0,0
					c0,0,0,0,0,0.1c0,0,0,0,0,0c-0.1,0.1-0.2,0.2-0.3,0.2c-0.1,0-0.2,0.1-0.4,0.2c-0.1,0.1-0.2,0.1-0.3,0.1c0,0-0.1,0-0.1,0
					c-0.1,0-0.2,0.1-0.2,0.1c0,0,0.1,0,0.2,0.1c0.1,0,0.1,0,0.2,0c0,0,0.3,0,0.5,0c0.2,0,0.5,0,0.6-0.1c0.2-0.1,0.5-0.2,0.8-0.3
					c0.2-0.1,0.4-0.2,0.5-0.3l0,0.1c-0.1,0.1-0.3,0.2-0.5,0.3c-0.3,0.1-0.7,0.2-0.8,0.3c-0.1,0-0.4,0.1-0.6,0.1c-0.3,0-0.5,0-0.6,0
					c0,0-0.1,0-0.1,0c-0.1,0-0.2-0.1-0.2-0.1c0-0.1,0.1-0.1,0.3-0.2c0,0,0.1,0,0.1,0c0.1,0,0.1-0.1,0.2-0.1c0.1-0.1,0.3-0.2,0.4-0.2
					c0.1,0,0.1-0.1,0.2-0.1c-0.1,0-0.2,0.1-0.3,0.1c-0.1,0-0.2,0.1-0.4,0.1c-0.3,0.1-0.6,0.1-0.6,0.1c0,0-0.2,0-0.4,0
					c-0.1,0-0.2,0-0.2-0.1l0,0c0-0.1,0-0.1,0.1-0.1l0,0c0,0,0,0,0.1,0c0,0,0.1,0,0.1-0.1c0.1,0,0.1-0.1,0.2-0.1
					c0.1,0,0.1-0.1,0.2-0.1c0,0,0.1,0,0.1-0.1c0.1-0.1,0.3-0.2,0.4-0.3c0.1-0.1,0.2-0.1,0.4-0.2C88.7,39,88.7,39,88.8,39L88.8,39
					L88.8,39z"/>
				<path d="M89.6,39.5c0,0-0.1,0.1-0.2,0.1c-0.1,0.1-0.3,0.2-0.3,0.2l0-0.1c0,0,0.2-0.1,0.3-0.2C89.5,39.5,89.5,39.5,89.6,39.5
					L89.6,39.5L89.6,39.5z"/>
			</g>
		</g>
	</g>
	<path opacity="0.25" fill="#FFFFFF" d="M13,29.7v25.5C26.2,62.6,43.7,67,63,67c19.3,0,36.8-4.5,50-11.8V29.7H13z"/>
</g>
</svg>
