<?xml version="1.0" encoding="utf-8"?>
<!-- Generator: Adobe Illustrator 24.3.0, SVG Export Plug-In . SVG Version: 6.00 Build 0)  -->
<svg version="1.1" id="Layer_1" xmlns="http://www.w3.org/2000/svg" xmlns:xlink="http://www.w3.org/1999/xlink" x="0px" y="0px"
	 viewBox="0 0 126 126" enable-background="new 0 0 126 126" xml:space="preserve">
<g>
	<g>
		<polygon fill-rule="evenodd" clip-rule="evenodd" points="13,29.7 13,96.3 15.4,96.3 53.5,67.8 113,67.8 113,58.2 53.5,58.2 
			15.4,29.7 13,29.7 		"/>
		<path fill-rule="evenodd" clip-rule="evenodd" fill="#47B71D" d="M15.4,96.3H113v-9.5H28.1L15.4,96.3L15.4,96.3z M113,39.2v-9.5
			H15.4l12.7,9.5H113L113,39.2z"/>
		<path fill-rule="evenodd" clip-rule="evenodd" fill="#FFF200" d="M28.1,86.8H113v-9.5H40.8L28.1,86.8L28.1,86.8z M113,48.7v-9.5
			H28.1l12.7,9.5H113L113,48.7z"/>
		<path fill-rule="evenodd" clip-rule="evenodd" fill="#FF1612" d="M40.8,77.3H113v-9.5H53.5L40.8,77.3L40.8,77.3z M113,58.2v-9.5
			H40.8l12.7,9.5H113L113,58.2z"/>
		<path fill-rule="evenodd" clip-rule="evenodd" fill="#F0F0F0" d="M13,96.3V29.7L57.4,63L13,96.3L13,96.3z M13,29.7L13,29.7
			L13,29.7L13,29.7z"/>
		<path fill-rule="evenodd" clip-rule="evenodd" fill="none" d="M13,29.7L13,29.7L13,29.7L13,29.7z"/>
		<g>
			<polygon fill-rule="evenodd" clip-rule="evenodd" fill="#FF1612" points="30.8,46.1 35.8,56.3 46.7,57.7 37.7,64.1 39.3,74.8 
				30.8,69.3 22.3,74.7 24.3,64.6 14.8,57.8 25.8,56.1 30.8,46.1 			"/>
			
				<path fill-rule="evenodd" clip-rule="evenodd" fill="#FFF200" stroke="#000000" stroke-width="0.1308" stroke-miterlimit="2.4142" d="
				M23.1,67.2l1.1,5.8h14.9l2.3-9.2l1.2,0.2c0,0-6.2-4.7-7.3-5.5c-1.1-0.9-2.9-2.2-3.9-2.8c-0.9-0.6-1.3-1-1.7-1.6
				c-0.3-0.6-1.3-2.3-2-3.4c-0.7-1-1.5-1.9-2.7-1.9c-1.2,0-2.1,0.7-2.4,2.1c0,0-1.2,0.5-1.3,1.5c0,0,1.4-0.4,2.3,0.5
				c0.9,0.9,1,2.5,1.1,3.1c0.1,0.6,0.2,2.7,0,4.3c-0.1,1.5-1.2,3.3-1.5,4C22.9,64.8,22,67.1,23.1,67.2L23.1,67.2z"/>
			<g>
				<path d="M24.6,50.1c0.1,0,0.3,0.1,0.4,0.2c0.1,0.1,0.1,0.2,0.1,0.4c0,0.1-0.1,0.3-0.1,0.4c-0.1,0.1-0.2,0.1-0.4,0.1
					c-0.1,0-0.3-0.1-0.4-0.1c-0.1-0.1-0.2-0.2-0.2-0.4c0-0.1,0.1-0.3,0.2-0.4C24.3,50.1,24.5,50.1,24.6,50.1L24.6,50.1z M24.9,50.3
					c-0.1-0.1-0.2-0.1-0.3-0.1c-0.1,0-0.2,0-0.3,0.1c-0.1,0.1-0.1,0.2-0.1,0.3c0,0.1,0,0.2,0.1,0.3c0.1,0.1,0.2,0.1,0.3,0.1
					c0.1,0,0.2,0,0.3-0.1c0.1-0.1,0.1-0.2,0.1-0.3C25,50.5,24.9,50.4,24.9,50.3L24.9,50.3z"/>
				<polygon points="24.8,56.6 29.9,54.2 29.9,54.3 24.8,56.8 24.8,56.6 				"/>
				<path d="M23.1,67.2c0.1,0,0.8-0.1,1.5-0.1c0.5,0,1.1-0.1,1.3,0c0.2,0,0.5,0,1.1,0c1.4,0,3.9,0,5.9,0.1c1.2,0,2.8,0.2,4.3,0.4
					c1.7,0.2,3.1,0.4,3.4,0.5l-0.1,0.1c-0.3-0.1-1.7-0.3-3.3-0.5c-1.4-0.2-3-0.3-4.3-0.4c-1.9-0.1-4.4-0.1-5.8-0.1
					c-0.5,0-0.9,0-1.1,0c-0.2,0-0.8,0-1.3,0.1c-0.7,0-1.4,0.1-1.4,0.1L23.1,67.2L23.1,67.2z"/>
				<path d="M27.6,73c-0.1-0.6-0.2-1.3-0.3-1.9c-0.1-0.7-0.2-1.3-0.2-1.9C27,68.1,27,67,27,67l0.1,0c0,0,0,1.1,0.1,2.1
					c0.1,0.5,0.1,1.2,0.2,1.9c0.1,0.7,0.2,1.4,0.3,1.9L27.6,73L27.6,73z"/>
				<path d="M39.7,70.6c-0.3,0-0.9-0.1-1.5-0.2c-0.6-0.1-1.3-0.1-1.8-0.2c-0.7,0-2.1-0.1-3.3-0.2c-0.8,0-1.5-0.1-1.8-0.1
					c-0.1,0-0.3,0-0.5,0c-1.1,0-3.1-0.1-3.5,0l0-0.1c0.4,0,2.4,0,3.5,0c0.2,0,0.4,0,0.5,0c0.3,0,1,0,1.8,0.1
					c1.2,0.1,2.6,0.2,3.3,0.2c0.6,0,1.2,0.1,1.8,0.2c0.6,0.1,1.2,0.1,1.5,0.2L39.7,70.6L39.7,70.6z"/>
				<path d="M27.1,67l1.3,1.3l1.4-1.2l0,0l0,0c0,0,0.1-0.1,0.3,0.1c0.1,0.1,0.9,1,1.1,1.2c0.3-0.2,1.4-1.2,1.4-1.2
					c0.1-0.1,0.1,0,0.2,0c0,0,0.1,0.1,0.1,0.1c0.1,0.1,0.7,0.8,1,1.1c0.1,0.1,0.1,0.1,0.1,0.1c0,0,0,0,0,0c0,0,0,0,0,0
					c0.1-0.1,0.7-0.6,1.1-0.9c0.1-0.1,0.2-0.2,0.2-0.2l0,0l0,0l0,0c0,0,0,0,0,0c0.1-0.1,0.2-0.1,0.3,0.1c0.1,0.1,0.5,0.6,0.8,0.9
					c0.1,0.2,0.2,0.3,0.3,0.3c0,0,0,0,0,0c0,0,0,0,0,0c0,0,0.2-0.2,0.5-0.4c0.3-0.2,0.7-0.5,0.7-0.5c0,0,0.2-0.1,0.2-0.1l0,0l0,0
					l0.2,0.2l0,0l1.6,1.5L40,69.4l-1.6-1.5l0,0l-0.1-0.1c0,0-0.1,0-0.1,0c0,0-0.4,0.3-0.7,0.5c-0.3,0.2-0.5,0.4-0.5,0.4c0,0,0,0,0,0
					c-0.1,0.1-0.1,0.1-0.2,0c0,0-0.1-0.1-0.2-0.3c-0.3-0.3-0.7-0.8-0.8-0.9c-0.1-0.1-0.1-0.1-0.1-0.1c0,0,0,0,0,0l0,0l0,0l0,0
					c0,0-0.1,0.1-0.2,0.2c-0.3,0.3-1,0.9-1.1,0.9c-0.2,0.1-0.2,0.1-0.2,0c0,0,0,0,0,0c0,0-0.1-0.1-0.1-0.1c-0.3-0.3-1-1.1-1-1.2
					c0,0,0-0.1-0.1-0.1c-0.2,0.2-1.4,1.3-1.4,1.3l-0.1,0l0,0c0,0-1.1-1.1-1.2-1.3C30,67.2,30,67.2,30,67.2l-1.5,1.3l0,0l0,0L27,67.1
					L27.1,67L27.1,67z"/>
				<path d="M27.2,68.5c0.1,0.1,0.6,0.5,1,0.9c0.2,0.2,0.4,0.4,0.4,0.4c0,0,0.1-0.1,0.2-0.2c0,0,0,0,0,0c0.1-0.1,1-1,1.1-1.1l0,0
					l0.1,0.1c0,0,1.3,1.3,1.3,1.4l0,0c0,0,0,0,0-0.1c0,0,0.1-0.1,0.1-0.1l0,0c0.1-0.1,1.3-1.1,1.3-1.1l0.1,0l0,0
					c0,0,1.2,1.3,1.2,1.3c0,0,0,0,0,0c0,0,0,0,0.1,0c0.1-0.1,1.4-1.1,1.4-1.2l0.1,0l0,0.1c0,0,1.1,1.3,1.2,1.4c0,0,0.1,0,0.1-0.1
					c0.1-0.1,1.3-1,1.3-1l0,0l0,0l1.6,1.4l-0.1,0.1l-1.5-1.3c-0.2,0.2-1.1,0.9-1.3,1c-0.1,0.1-0.1,0.1-0.2,0.1c-0.1,0-0.1,0-0.1,0
					c0,0-0.9-1.1-1.1-1.3c-0.2,0.2-1.2,1-1.3,1.1c-0.1,0.1-0.1,0.1-0.2,0.1c-0.1,0-0.1,0-0.1-0.1c0,0-1-1-1.2-1.3
					c-0.2,0.2-1.2,1-1.2,1.1l0,0c0,0,0,0.1-0.1,0.1c-0.1,0.1-0.2,0.1-0.2,0.1l0,0c0,0-1-1.1-1.3-1.3c-0.2,0.2-0.9,0.9-1,1
					c0,0,0,0,0,0c-0.1,0.1-0.2,0.3-0.4,0.2c0,0-0.2-0.2-0.4-0.4c-0.4-0.3-0.9-0.8-1-0.9L27.2,68.5L27.2,68.5z"/>
				<path d="M26.6,60.5c0,0.3-0.1,0.7-0.1,1.1c-0.1,0.5-0.3,1-0.4,1.4c-0.1,0.3-0.3,0.7-0.6,1c-0.3,0.5-0.7,1-0.9,1.3
					c-0.2,0.2-0.3,0.6-0.4,0.9c0,0.3,0,0.6,0.1,0.8l-0.1,0.1c-0.2-0.2-0.2-0.6-0.1-0.9c0-0.3,0.2-0.7,0.4-1c0.2-0.3,0.6-0.8,0.9-1.3
					c0.2-0.4,0.5-0.7,0.6-1c0.1-0.4,0.3-0.9,0.4-1.3c0.1-0.4,0.2-0.8,0.1-1.1L26.6,60.5L26.6,60.5z"/>
				<path d="M26,67.1L26,67.1c0-0.3,0-0.7,0.4-1.1c0.2-0.2,0.5-0.5,0.8-0.6c0.3-0.2,0.6-0.4,1-0.5c0.3-0.1,0.6-0.2,1-0.4
					c0.3-0.2,0.7-0.4,1.1-0.6c0.4-0.3,0.8-0.5,1.1-0.8c0.3-0.3,0.4-0.6,0.4-0.8l0.1,0c0,0.3-0.2,0.6-0.5,0.9
					c-0.3,0.3-0.7,0.6-1.1,0.9c-0.4,0.3-0.8,0.5-1.2,0.6c-0.3,0.2-0.7,0.3-1,0.4c-0.3,0.1-0.6,0.3-0.9,0.5c-0.3,0.2-0.5,0.4-0.8,0.6
					c-0.4,0.4-0.4,0.7-0.4,1v0H26L26,67.1z"/>
				<path d="M28.1,58.8L28.1,58.8c0.2,0.5,0.6,1.4,1.1,2c0.6,0.5,2.1,1,2.6,1.2l0.1,0c0.3,0.1,0.6,0.2,1.1,0.3
					c0.4,0.1,0.9,0.2,1.3,0.3c0.4,0.1,1.4,0.3,2.3,0.4c1,0.2,1.9,0.3,2.5,0.4c1.1,0.1,2.4,0.3,2.4,0.3l0,0.1c0,0-1.3-0.2-2.4-0.3
					c-0.6-0.1-1.6-0.2-2.5-0.4c-1-0.2-1.9-0.3-2.3-0.4c-0.4-0.1-0.9-0.2-1.3-0.3c-0.4-0.1-0.8-0.2-1.1-0.3l-0.1,0
					c-0.6-0.2-2.1-0.7-2.7-1.3c-0.6-0.6-0.9-1.5-1.1-1.9c0-0.1,0-0.1,0-0.1L28.1,58.8L28.1,58.8z"/>
				<path d="M30.2,63.9c0.1,0,0.5,0,0.9,0.1c0.5,0,1.1,0,1.4,0c0.3,0,0.8-0.1,1.1-0.4c0.3-0.2,0.5-0.5,0.6-0.8l0.1,0
					c-0.1,0.4-0.3,0.7-0.6,0.9c-0.4,0.3-0.9,0.4-1.2,0.4c-0.3,0-0.9,0-1.4,0c-0.4,0-0.8,0-1-0.1L30.2,63.9L30.2,63.9z"/>
				<path d="M33.1,62.5c-0.1,0.3-0.3,0.6-0.6,0.9c-0.3,0.3-0.6,0.5-0.9,0.7l-0.1-0.1c0.3-0.2,0.7-0.4,0.9-0.6
					c0.3-0.3,0.5-0.6,0.6-0.9L33.1,62.5L33.1,62.5z"/>
				<path d="M28.5,64.7c0.2,0,0.6,0,1.1,0c1,0,2.2,0.1,2.5,0.1c0.1,0,0.4,0,0.8,0.1c1.1,0.1,2.9,0.2,3.8,0.3c0.2,0,0.4,0.1,0.6,0.1
					c1.2,0.2,3.2,0.4,3.8,0.6l0,0.1c-0.6-0.2-2.5-0.4-3.7-0.6c-0.2,0-0.4-0.1-0.6-0.1c-0.8-0.1-2.7-0.2-3.8-0.3
					c-0.4,0-0.7,0-0.8-0.1c-0.3,0-1.6-0.1-2.5-0.1c-0.5,0-0.9,0-1.1,0L28.5,64.7L28.5,64.7z"/>
				<path d="M31.3,65.4c0.2,0,0.3,0.1,0.5,0.2c0.1,0.1,0.2,0.3,0.2,0.5c0,0.2-0.1,0.3-0.2,0.5c-0.1,0.1-0.3,0.2-0.5,0.2
					c-0.2,0-0.3-0.1-0.5-0.2c-0.1-0.1-0.2-0.3-0.2-0.5c0-0.2,0.1-0.4,0.2-0.5C30.9,65.5,31.1,65.4,31.3,65.4L31.3,65.4z M31.6,65.7
					c-0.1-0.1-0.2-0.2-0.4-0.2c-0.1,0-0.3,0.1-0.4,0.2s-0.2,0.2-0.2,0.4c0,0.1,0.1,0.3,0.2,0.4s0.2,0.2,0.4,0.2
					c0.1,0,0.3-0.1,0.4-0.2c0.1-0.1,0.2-0.2,0.2-0.4C31.8,65.9,31.7,65.8,31.6,65.7L31.6,65.7z"/>
				<path d="M33.7,65.5c0.2,0,0.4,0.1,0.5,0.2c0.1,0.1,0.2,0.3,0.2,0.5c0,0.2-0.1,0.3-0.2,0.5c-0.1,0.1-0.3,0.2-0.5,0.2
					c-0.2,0-0.3-0.1-0.5-0.2c-0.1-0.1-0.2-0.3-0.2-0.5c0-0.2,0.1-0.3,0.2-0.5S33.5,65.5,33.7,65.5L33.7,65.5z M34.1,65.8
					c-0.1-0.1-0.2-0.2-0.4-0.2c-0.1,0-0.3,0.1-0.4,0.2s-0.2,0.2-0.2,0.4s0.1,0.3,0.2,0.4s0.2,0.2,0.4,0.2c0.1,0,0.3-0.1,0.4-0.2
					s0.2-0.2,0.2-0.4S34.2,65.9,34.1,65.8L34.1,65.8z"/>
			</g>
		</g>
	</g>
	<path opacity="0.35" fill="#FFFFFF" d="M13,29.7v25.5C26.2,62.6,43.7,67,63,67s36.8-4.5,50-11.8V29.7H13z"/>
</g>
</svg>
